<?xml version="1.0" encoding="utf-8"?>
<svg xmlns="http://www.w3.org/2000/svg" xmlns:xlink="http://www.w3.org/1999/xlink" width="600" height="400" viewBox="0 0 2400 1600">
<defs>
  <clipPath id="clip550">
    <rect x="0" y="0" width="2400" height="1600"/>
  </clipPath>
</defs>
<path clip-path="url(#clip550)" d="M0 1600 L2400 1600 L2400 0 L0 0  Z" fill="#ffffff" fill-rule="evenodd" fill-opacity="1"/>
<defs>
  <clipPath id="clip551">
    <rect x="480" y="0" width="1681" height="1600"/>
  </clipPath>
</defs>
<path clip-path="url(#clip550)" d="M148.057 1486.45 L2352.76 1486.45 L2352.76 47.2441 L148.057 47.2441  Z" fill="#ffffff" fill-rule="evenodd" fill-opacity="1"/>
<defs>
  <clipPath id="clip552">
    <rect x="148" y="47" width="2206" height="1440"/>
  </clipPath>
</defs>
<polyline clip-path="url(#clip552)" style="stroke:#000000; stroke-linecap:round; stroke-linejoin:round; stroke-width:2; stroke-opacity:0.1; fill:none" points="390.529,1486.45 390.529,47.2441 "/>
<polyline clip-path="url(#clip552)" style="stroke:#000000; stroke-linecap:round; stroke-linejoin:round; stroke-width:2; stroke-opacity:0.1; fill:none" points="692.21,1486.45 692.21,47.2441 "/>
<polyline clip-path="url(#clip552)" style="stroke:#000000; stroke-linecap:round; stroke-linejoin:round; stroke-width:2; stroke-opacity:0.1; fill:none" points="993.89,1486.45 993.89,47.2441 "/>
<polyline clip-path="url(#clip552)" style="stroke:#000000; stroke-linecap:round; stroke-linejoin:round; stroke-width:2; stroke-opacity:0.1; fill:none" points="1295.57,1486.45 1295.57,47.2441 "/>
<polyline clip-path="url(#clip552)" style="stroke:#000000; stroke-linecap:round; stroke-linejoin:round; stroke-width:2; stroke-opacity:0.1; fill:none" points="1597.25,1486.45 1597.25,47.2441 "/>
<polyline clip-path="url(#clip552)" style="stroke:#000000; stroke-linecap:round; stroke-linejoin:round; stroke-width:2; stroke-opacity:0.1; fill:none" points="1898.93,1486.45 1898.93,47.2441 "/>
<polyline clip-path="url(#clip552)" style="stroke:#000000; stroke-linecap:round; stroke-linejoin:round; stroke-width:2; stroke-opacity:0.1; fill:none" points="2200.61,1486.45 2200.61,47.2441 "/>
<polyline clip-path="url(#clip552)" style="stroke:#000000; stroke-linecap:round; stroke-linejoin:round; stroke-width:2; stroke-opacity:0.1; fill:none" points="148.057,1313.37 2352.76,1313.37 "/>
<polyline clip-path="url(#clip552)" style="stroke:#000000; stroke-linecap:round; stroke-linejoin:round; stroke-width:2; stroke-opacity:0.1; fill:none" points="148.057,1090.96 2352.76,1090.96 "/>
<polyline clip-path="url(#clip552)" style="stroke:#000000; stroke-linecap:round; stroke-linejoin:round; stroke-width:2; stroke-opacity:0.1; fill:none" points="148.057,868.549 2352.76,868.549 "/>
<polyline clip-path="url(#clip552)" style="stroke:#000000; stroke-linecap:round; stroke-linejoin:round; stroke-width:2; stroke-opacity:0.1; fill:none" points="148.057,646.137 2352.76,646.137 "/>
<polyline clip-path="url(#clip552)" style="stroke:#000000; stroke-linecap:round; stroke-linejoin:round; stroke-width:2; stroke-opacity:0.1; fill:none" points="148.057,423.725 2352.76,423.725 "/>
<polyline clip-path="url(#clip552)" style="stroke:#000000; stroke-linecap:round; stroke-linejoin:round; stroke-width:2; stroke-opacity:0.1; fill:none" points="148.057,201.312 2352.76,201.312 "/>
<polyline clip-path="url(#clip550)" style="stroke:#000000; stroke-linecap:round; stroke-linejoin:round; stroke-width:4; stroke-opacity:1; fill:none" points="148.057,1486.45 2352.76,1486.45 "/>
<polyline clip-path="url(#clip550)" style="stroke:#000000; stroke-linecap:round; stroke-linejoin:round; stroke-width:4; stroke-opacity:1; fill:none" points="390.529,1486.45 390.529,1467.55 "/>
<polyline clip-path="url(#clip550)" style="stroke:#000000; stroke-linecap:round; stroke-linejoin:round; stroke-width:4; stroke-opacity:1; fill:none" points="692.21,1486.45 692.21,1467.55 "/>
<polyline clip-path="url(#clip550)" style="stroke:#000000; stroke-linecap:round; stroke-linejoin:round; stroke-width:4; stroke-opacity:1; fill:none" points="993.89,1486.45 993.89,1467.55 "/>
<polyline clip-path="url(#clip550)" style="stroke:#000000; stroke-linecap:round; stroke-linejoin:round; stroke-width:4; stroke-opacity:1; fill:none" points="1295.57,1486.45 1295.57,1467.55 "/>
<polyline clip-path="url(#clip550)" style="stroke:#000000; stroke-linecap:round; stroke-linejoin:round; stroke-width:4; stroke-opacity:1; fill:none" points="1597.25,1486.45 1597.25,1467.55 "/>
<polyline clip-path="url(#clip550)" style="stroke:#000000; stroke-linecap:round; stroke-linejoin:round; stroke-width:4; stroke-opacity:1; fill:none" points="1898.93,1486.45 1898.93,1467.55 "/>
<polyline clip-path="url(#clip550)" style="stroke:#000000; stroke-linecap:round; stroke-linejoin:round; stroke-width:4; stroke-opacity:1; fill:none" points="2200.61,1486.45 2200.61,1467.55 "/>
<path clip-path="url(#clip550)" d="M337.554 1532.02 L367.23 1532.02 L367.23 1535.95 L337.554 1535.95 L337.554 1532.02 Z" fill="#000000" fill-rule="nonzero" fill-opacity="1" /><path clip-path="url(#clip550)" d="M378.133 1544.91 L385.772 1544.91 L385.772 1518.55 L377.462 1520.21 L377.462 1515.95 L385.726 1514.29 L390.401 1514.29 L390.401 1544.91 L398.04 1544.91 L398.04 1548.85 L378.133 1548.85 L378.133 1544.91 Z" fill="#000000" fill-rule="nonzero" fill-opacity="1" /><path clip-path="url(#clip550)" d="M407.485 1542.97 L412.369 1542.97 L412.369 1548.85 L407.485 1548.85 L407.485 1542.97 Z" fill="#000000" fill-rule="nonzero" fill-opacity="1" /><path clip-path="url(#clip550)" d="M422.6 1514.29 L440.957 1514.29 L440.957 1518.22 L426.883 1518.22 L426.883 1526.7 Q427.901 1526.35 428.92 1526.19 Q429.938 1526 430.957 1526 Q436.744 1526 440.123 1529.17 Q443.503 1532.34 443.503 1537.76 Q443.503 1543.34 440.031 1546.44 Q436.559 1549.52 430.239 1549.52 Q428.063 1549.52 425.795 1549.15 Q423.549 1548.78 421.142 1548.04 L421.142 1543.34 Q423.225 1544.47 425.448 1545.03 Q427.67 1545.58 430.147 1545.58 Q434.151 1545.58 436.489 1543.48 Q438.827 1541.37 438.827 1537.76 Q438.827 1534.15 436.489 1532.04 Q434.151 1529.94 430.147 1529.94 Q428.272 1529.94 426.397 1530.35 Q424.545 1530.77 422.6 1531.65 L422.6 1514.29 Z" fill="#000000" fill-rule="nonzero" fill-opacity="1" /><path clip-path="url(#clip550)" d="M638.738 1532.02 L668.413 1532.02 L668.413 1535.95 L638.738 1535.95 L638.738 1532.02 Z" fill="#000000" fill-rule="nonzero" fill-opacity="1" /><path clip-path="url(#clip550)" d="M679.316 1544.91 L686.955 1544.91 L686.955 1518.55 L678.645 1520.21 L678.645 1515.95 L686.909 1514.29 L691.585 1514.29 L691.585 1544.91 L699.223 1544.91 L699.223 1548.85 L679.316 1548.85 L679.316 1544.91 Z" fill="#000000" fill-rule="nonzero" fill-opacity="1" /><path clip-path="url(#clip550)" d="M708.668 1542.97 L713.552 1542.97 L713.552 1548.85 L708.668 1548.85 L708.668 1542.97 Z" fill="#000000" fill-rule="nonzero" fill-opacity="1" /><path clip-path="url(#clip550)" d="M733.737 1517.37 Q730.126 1517.37 728.297 1520.93 Q726.492 1524.47 726.492 1531.6 Q726.492 1538.71 728.297 1542.27 Q730.126 1545.82 733.737 1545.82 Q737.371 1545.82 739.177 1542.27 Q741.006 1538.71 741.006 1531.6 Q741.006 1524.47 739.177 1520.93 Q737.371 1517.37 733.737 1517.37 M733.737 1513.66 Q739.547 1513.66 742.603 1518.27 Q745.681 1522.85 745.681 1531.6 Q745.681 1540.33 742.603 1544.94 Q739.547 1549.52 733.737 1549.52 Q727.927 1549.52 724.848 1544.94 Q721.793 1540.33 721.793 1531.6 Q721.793 1522.85 724.848 1518.27 Q727.927 1513.66 733.737 1513.66 Z" fill="#000000" fill-rule="nonzero" fill-opacity="1" /><path clip-path="url(#clip550)" d="M940.916 1532.02 L970.592 1532.02 L970.592 1535.95 L940.916 1535.95 L940.916 1532.02 Z" fill="#000000" fill-rule="nonzero" fill-opacity="1" /><path clip-path="url(#clip550)" d="M990.684 1517.37 Q987.073 1517.37 985.245 1520.93 Q983.439 1524.47 983.439 1531.6 Q983.439 1538.71 985.245 1542.27 Q987.073 1545.82 990.684 1545.82 Q994.319 1545.82 996.124 1542.27 Q997.953 1538.71 997.953 1531.6 Q997.953 1524.47 996.124 1520.93 Q994.319 1517.37 990.684 1517.37 M990.684 1513.66 Q996.495 1513.66 999.55 1518.27 Q1002.63 1522.85 1002.63 1531.6 Q1002.63 1540.33 999.55 1544.94 Q996.495 1549.52 990.684 1549.52 Q984.874 1549.52 981.796 1544.94 Q978.74 1540.33 978.74 1531.6 Q978.74 1522.85 981.796 1518.27 Q984.874 1513.66 990.684 1513.66 Z" fill="#000000" fill-rule="nonzero" fill-opacity="1" /><path clip-path="url(#clip550)" d="M1010.85 1542.97 L1015.73 1542.97 L1015.73 1548.85 L1010.85 1548.85 L1010.85 1542.97 Z" fill="#000000" fill-rule="nonzero" fill-opacity="1" /><path clip-path="url(#clip550)" d="M1025.96 1514.29 L1044.32 1514.29 L1044.32 1518.22 L1030.24 1518.22 L1030.24 1526.7 Q1031.26 1526.35 1032.28 1526.19 Q1033.3 1526 1034.32 1526 Q1040.11 1526 1043.49 1529.17 Q1046.86 1532.34 1046.86 1537.76 Q1046.86 1543.34 1043.39 1546.44 Q1039.92 1549.52 1033.6 1549.52 Q1031.42 1549.52 1029.16 1549.15 Q1026.91 1548.78 1024.5 1548.04 L1024.5 1543.34 Q1026.59 1544.47 1028.81 1545.03 Q1031.03 1545.58 1033.51 1545.58 Q1037.51 1545.58 1039.85 1543.48 Q1042.19 1541.37 1042.19 1537.76 Q1042.19 1534.15 1039.85 1532.04 Q1037.51 1529.94 1033.51 1529.94 Q1031.63 1529.94 1029.76 1530.35 Q1027.91 1530.77 1025.96 1531.65 L1025.96 1514.29 Z" fill="#000000" fill-rule="nonzero" fill-opacity="1" /><path clip-path="url(#clip550)" d="M1272.96 1517.37 Q1269.34 1517.37 1267.52 1520.93 Q1265.71 1524.47 1265.71 1531.6 Q1265.71 1538.71 1267.52 1542.27 Q1269.34 1545.82 1272.96 1545.82 Q1276.59 1545.82 1278.4 1542.27 Q1280.22 1538.71 1280.22 1531.6 Q1280.22 1524.47 1278.4 1520.93 Q1276.59 1517.37 1272.96 1517.37 M1272.96 1513.66 Q1278.77 1513.66 1281.82 1518.27 Q1284.9 1522.85 1284.9 1531.6 Q1284.9 1540.33 1281.82 1544.94 Q1278.77 1549.52 1272.96 1549.52 Q1267.15 1549.52 1264.07 1544.94 Q1261.01 1540.33 1261.01 1531.6 Q1261.01 1522.85 1264.07 1518.27 Q1267.15 1513.66 1272.96 1513.66 Z" fill="#000000" fill-rule="nonzero" fill-opacity="1" /><path clip-path="url(#clip550)" d="M1293.12 1542.97 L1298 1542.97 L1298 1548.85 L1293.12 1548.85 L1293.12 1542.97 Z" fill="#000000" fill-rule="nonzero" fill-opacity="1" /><path clip-path="url(#clip550)" d="M1318.19 1517.37 Q1314.58 1517.37 1312.75 1520.93 Q1310.94 1524.47 1310.94 1531.6 Q1310.94 1538.71 1312.75 1542.27 Q1314.58 1545.82 1318.19 1545.82 Q1321.82 1545.82 1323.63 1542.27 Q1325.46 1538.71 1325.46 1531.6 Q1325.46 1524.47 1323.63 1520.93 Q1321.82 1517.37 1318.19 1517.37 M1318.19 1513.66 Q1324 1513.66 1327.05 1518.27 Q1330.13 1522.85 1330.13 1531.6 Q1330.13 1540.33 1327.05 1544.94 Q1324 1549.52 1318.19 1549.52 Q1312.38 1549.52 1309.3 1544.94 Q1306.24 1540.33 1306.24 1531.6 Q1306.24 1522.85 1309.3 1518.27 Q1312.38 1513.66 1318.19 1513.66 Z" fill="#000000" fill-rule="nonzero" fill-opacity="1" /><path clip-path="url(#clip550)" d="M1575.13 1517.37 Q1571.52 1517.37 1569.69 1520.93 Q1567.89 1524.47 1567.89 1531.6 Q1567.89 1538.71 1569.69 1542.27 Q1571.52 1545.82 1575.13 1545.82 Q1578.77 1545.82 1580.57 1542.27 Q1582.4 1538.71 1582.4 1531.6 Q1582.4 1524.47 1580.57 1520.93 Q1578.77 1517.37 1575.13 1517.37 M1575.13 1513.66 Q1580.94 1513.66 1584 1518.27 Q1587.08 1522.85 1587.08 1531.6 Q1587.08 1540.33 1584 1544.94 Q1580.94 1549.52 1575.13 1549.52 Q1569.32 1549.52 1566.25 1544.94 Q1563.19 1540.33 1563.19 1531.6 Q1563.19 1522.85 1566.25 1518.27 Q1569.32 1513.66 1575.13 1513.66 Z" fill="#000000" fill-rule="nonzero" fill-opacity="1" /><path clip-path="url(#clip550)" d="M1595.3 1542.97 L1600.18 1542.97 L1600.18 1548.85 L1595.3 1548.85 L1595.3 1542.97 Z" fill="#000000" fill-rule="nonzero" fill-opacity="1" /><path clip-path="url(#clip550)" d="M1610.41 1514.29 L1628.77 1514.29 L1628.77 1518.22 L1614.69 1518.22 L1614.69 1526.7 Q1615.71 1526.35 1616.73 1526.19 Q1617.75 1526 1618.77 1526 Q1624.56 1526 1627.93 1529.17 Q1631.31 1532.34 1631.31 1537.76 Q1631.31 1543.34 1627.84 1546.44 Q1624.37 1549.52 1618.05 1549.52 Q1615.87 1549.52 1613.61 1549.15 Q1611.36 1548.78 1608.95 1548.04 L1608.95 1543.34 Q1611.04 1544.47 1613.26 1545.03 Q1615.48 1545.58 1617.96 1545.58 Q1621.96 1545.58 1624.3 1543.48 Q1626.64 1541.37 1626.64 1537.76 Q1626.64 1534.15 1624.3 1532.04 Q1621.96 1529.94 1617.96 1529.94 Q1616.08 1529.94 1614.21 1530.35 Q1612.36 1530.77 1610.41 1531.65 L1610.41 1514.29 Z" fill="#000000" fill-rule="nonzero" fill-opacity="1" /><path clip-path="url(#clip550)" d="M1866.09 1544.91 L1873.72 1544.91 L1873.72 1518.55 L1865.41 1520.21 L1865.41 1515.95 L1873.68 1514.29 L1878.35 1514.29 L1878.35 1544.91 L1885.99 1544.91 L1885.99 1548.85 L1866.09 1548.85 L1866.09 1544.91 Z" fill="#000000" fill-rule="nonzero" fill-opacity="1" /><path clip-path="url(#clip550)" d="M1895.44 1542.97 L1900.32 1542.97 L1900.32 1548.85 L1895.44 1548.85 L1895.44 1542.97 Z" fill="#000000" fill-rule="nonzero" fill-opacity="1" /><path clip-path="url(#clip550)" d="M1920.51 1517.37 Q1916.9 1517.37 1915.07 1520.93 Q1913.26 1524.47 1913.26 1531.6 Q1913.26 1538.71 1915.07 1542.27 Q1916.9 1545.82 1920.51 1545.82 Q1924.14 1545.82 1925.95 1542.27 Q1927.78 1538.71 1927.78 1531.6 Q1927.78 1524.47 1925.95 1520.93 Q1924.14 1517.37 1920.51 1517.37 M1920.51 1513.66 Q1926.32 1513.66 1929.37 1518.27 Q1932.45 1522.85 1932.45 1531.6 Q1932.45 1540.33 1929.37 1544.94 Q1926.32 1549.52 1920.51 1549.52 Q1914.7 1549.52 1911.62 1544.94 Q1908.56 1540.33 1908.56 1531.6 Q1908.56 1522.85 1911.62 1518.27 Q1914.7 1513.66 1920.51 1513.66 Z" fill="#000000" fill-rule="nonzero" fill-opacity="1" /><path clip-path="url(#clip550)" d="M2168.26 1544.91 L2175.9 1544.91 L2175.9 1518.55 L2167.59 1520.21 L2167.59 1515.95 L2175.86 1514.29 L2180.53 1514.29 L2180.53 1544.91 L2188.17 1544.91 L2188.17 1548.85 L2168.26 1548.85 L2168.26 1544.91 Z" fill="#000000" fill-rule="nonzero" fill-opacity="1" /><path clip-path="url(#clip550)" d="M2197.62 1542.97 L2202.5 1542.97 L2202.5 1548.85 L2197.62 1548.85 L2197.62 1542.97 Z" fill="#000000" fill-rule="nonzero" fill-opacity="1" /><path clip-path="url(#clip550)" d="M2212.73 1514.29 L2231.09 1514.29 L2231.09 1518.22 L2217.01 1518.22 L2217.01 1526.7 Q2218.03 1526.35 2219.05 1526.19 Q2220.07 1526 2221.09 1526 Q2226.88 1526 2230.25 1529.17 Q2233.63 1532.34 2233.63 1537.76 Q2233.63 1543.34 2230.16 1546.44 Q2226.69 1549.52 2220.37 1549.52 Q2218.19 1549.52 2215.93 1549.15 Q2213.68 1548.78 2211.27 1548.04 L2211.27 1543.34 Q2213.36 1544.47 2215.58 1545.03 Q2217.8 1545.58 2220.28 1545.58 Q2224.28 1545.58 2226.62 1543.48 Q2228.96 1541.37 2228.96 1537.76 Q2228.96 1534.15 2226.62 1532.04 Q2224.28 1529.94 2220.28 1529.94 Q2218.4 1529.94 2216.53 1530.35 Q2214.68 1530.77 2212.73 1531.65 L2212.73 1514.29 Z" fill="#000000" fill-rule="nonzero" fill-opacity="1" /><polyline clip-path="url(#clip550)" style="stroke:#000000; stroke-linecap:round; stroke-linejoin:round; stroke-width:4; stroke-opacity:1; fill:none" points="148.057,1486.45 148.057,47.2441 "/>
<polyline clip-path="url(#clip550)" style="stroke:#000000; stroke-linecap:round; stroke-linejoin:round; stroke-width:4; stroke-opacity:1; fill:none" points="148.057,1313.37 166.954,1313.37 "/>
<polyline clip-path="url(#clip550)" style="stroke:#000000; stroke-linecap:round; stroke-linejoin:round; stroke-width:4; stroke-opacity:1; fill:none" points="148.057,1090.96 166.954,1090.96 "/>
<polyline clip-path="url(#clip550)" style="stroke:#000000; stroke-linecap:round; stroke-linejoin:round; stroke-width:4; stroke-opacity:1; fill:none" points="148.057,868.549 166.954,868.549 "/>
<polyline clip-path="url(#clip550)" style="stroke:#000000; stroke-linecap:round; stroke-linejoin:round; stroke-width:4; stroke-opacity:1; fill:none" points="148.057,646.137 166.954,646.137 "/>
<polyline clip-path="url(#clip550)" style="stroke:#000000; stroke-linecap:round; stroke-linejoin:round; stroke-width:4; stroke-opacity:1; fill:none" points="148.057,423.725 166.954,423.725 "/>
<polyline clip-path="url(#clip550)" style="stroke:#000000; stroke-linecap:round; stroke-linejoin:round; stroke-width:4; stroke-opacity:1; fill:none" points="148.057,201.312 166.954,201.312 "/>
<path clip-path="url(#clip550)" d="M50.9921 1313.83 L80.6679 1313.83 L80.6679 1317.76 L50.9921 1317.76 L50.9921 1313.83 Z" fill="#000000" fill-rule="nonzero" fill-opacity="1" /><path clip-path="url(#clip550)" d="M104.927 1312.02 Q108.283 1312.74 110.158 1315.01 Q112.057 1317.27 112.057 1320.61 Q112.057 1325.72 108.538 1328.52 Q105.02 1331.32 98.5382 1331.32 Q96.3623 1331.32 94.0475 1330.89 Q91.7558 1330.47 89.3021 1329.61 L89.3021 1325.1 Q91.2465 1326.23 93.5613 1326.81 Q95.8761 1327.39 98.3993 1327.39 Q102.797 1327.39 105.089 1325.65 Q107.404 1323.92 107.404 1320.61 Q107.404 1317.55 105.251 1315.84 Q103.121 1314.1 99.3021 1314.1 L95.2743 1314.1 L95.2743 1310.26 L99.4872 1310.26 Q102.936 1310.26 104.765 1308.89 Q106.594 1307.51 106.594 1304.91 Q106.594 1302.25 104.696 1300.84 Q102.821 1299.4 99.3021 1299.4 Q97.3808 1299.4 95.1817 1299.82 Q92.9826 1300.24 90.3438 1301.12 L90.3438 1296.95 Q93.0058 1296.21 95.3206 1295.84 Q97.6585 1295.47 99.7187 1295.47 Q105.043 1295.47 108.145 1297.9 Q111.246 1300.31 111.246 1304.43 Q111.246 1307.3 109.603 1309.29 Q107.959 1311.26 104.927 1312.02 Z" fill="#000000" fill-rule="nonzero" fill-opacity="1" /><path clip-path="url(#clip550)" d="M51.9412 1091.41 L81.617 1091.41 L81.617 1095.35 L51.9412 1095.35 L51.9412 1091.41 Z" fill="#000000" fill-rule="nonzero" fill-opacity="1" /><path clip-path="url(#clip550)" d="M95.7373 1104.31 L112.057 1104.31 L112.057 1108.24 L90.1123 1108.24 L90.1123 1104.31 Q92.7743 1101.55 97.3576 1096.92 Q101.964 1092.27 103.145 1090.93 Q105.39 1088.4 106.27 1086.67 Q107.172 1084.91 107.172 1083.22 Q107.172 1080.46 105.228 1078.73 Q103.307 1076.99 100.205 1076.99 Q98.0058 1076.99 95.5521 1077.76 Q93.1215 1078.52 90.3438 1080.07 L90.3438 1075.35 Q93.1678 1074.21 95.6215 1073.64 Q98.0752 1073.06 100.112 1073.06 Q105.483 1073.06 108.677 1075.74 Q111.871 1078.43 111.871 1082.92 Q111.871 1085.05 111.061 1086.97 Q110.274 1088.87 108.168 1091.46 Q107.589 1092.13 104.487 1095.35 Q101.385 1098.54 95.7373 1104.31 Z" fill="#000000" fill-rule="nonzero" fill-opacity="1" /><path clip-path="url(#clip550)" d="M51.5708 869.001 L81.2466 869.001 L81.2466 872.936 L51.5708 872.936 L51.5708 869.001 Z" fill="#000000" fill-rule="nonzero" fill-opacity="1" /><path clip-path="url(#clip550)" d="M92.1493 881.894 L99.7882 881.894 L99.7882 855.528 L91.478 857.195 L91.478 852.936 L99.7419 851.269 L104.418 851.269 L104.418 881.894 L112.057 881.894 L112.057 885.829 L92.1493 885.829 L92.1493 881.894 Z" fill="#000000" fill-rule="nonzero" fill-opacity="1" /><path clip-path="url(#clip550)" d="M100.112 631.936 Q96.5011 631.936 94.6724 635.5 Q92.8669 639.042 92.8669 646.172 Q92.8669 653.278 94.6724 656.843 Q96.5011 660.385 100.112 660.385 Q103.746 660.385 105.552 656.843 Q107.381 653.278 107.381 646.172 Q107.381 639.042 105.552 635.5 Q103.746 631.936 100.112 631.936 M100.112 628.232 Q105.922 628.232 108.978 632.838 Q112.057 637.422 112.057 646.172 Q112.057 654.898 108.978 659.505 Q105.922 664.088 100.112 664.088 Q94.3021 664.088 91.2234 659.505 Q88.1679 654.898 88.1679 646.172 Q88.1679 637.422 91.2234 632.838 Q94.3021 628.232 100.112 628.232 Z" fill="#000000" fill-rule="nonzero" fill-opacity="1" /><path clip-path="url(#clip550)" d="M92.1493 437.07 L99.7882 437.07 L99.7882 410.704 L91.478 412.371 L91.478 408.111 L99.7419 406.445 L104.418 406.445 L104.418 437.07 L112.057 437.07 L112.057 441.005 L92.1493 441.005 L92.1493 437.07 Z" fill="#000000" fill-rule="nonzero" fill-opacity="1" /><path clip-path="url(#clip550)" d="M95.7373 214.657 L112.057 214.657 L112.057 218.592 L90.1123 218.592 L90.1123 214.657 Q92.7743 211.903 97.3576 207.273 Q101.964 202.62 103.145 201.278 Q105.39 198.755 106.27 197.019 Q107.172 195.259 107.172 193.569 Q107.172 190.815 105.228 189.079 Q103.307 187.343 100.205 187.343 Q98.0058 187.343 95.5521 188.107 Q93.1215 188.87 90.3438 190.421 L90.3438 185.699 Q93.1678 184.565 95.6215 183.986 Q98.0752 183.407 100.112 183.407 Q105.483 183.407 108.677 186.093 Q111.871 188.778 111.871 193.269 Q111.871 195.398 111.061 197.319 Q110.274 199.218 108.168 201.81 Q107.589 202.481 104.487 205.699 Q101.385 208.893 95.7373 214.657 Z" fill="#000000" fill-rule="nonzero" fill-opacity="1" /><circle clip-path="url(#clip552)" cx="435.726" cy="805.473" r="14.4" fill="#009af9" fill-rule="evenodd" fill-opacity="0.5" stroke="#000000" stroke-opacity="0.5" stroke-width="3.2"/>
<circle clip-path="url(#clip552)" cx="1707.46" cy="100.928" r="14.4" fill="#009af9" fill-rule="evenodd" fill-opacity="0.5" stroke="#000000" stroke-opacity="0.5" stroke-width="3.2"/>
<circle clip-path="url(#clip552)" cx="657.365" cy="571.258" r="14.4" fill="#009af9" fill-rule="evenodd" fill-opacity="0.5" stroke="#000000" stroke-opacity="0.5" stroke-width="3.2"/>
<circle clip-path="url(#clip552)" cx="2290.36" cy="688.23" r="14.4" fill="#009af9" fill-rule="evenodd" fill-opacity="0.5" stroke="#000000" stroke-opacity="0.5" stroke-width="3.2"/>
<circle clip-path="url(#clip552)" cx="1111.33" cy="641.471" r="14.4" fill="#009af9" fill-rule="evenodd" fill-opacity="0.5" stroke="#000000" stroke-opacity="0.5" stroke-width="3.2"/>
<circle clip-path="url(#clip552)" cx="775.774" cy="439.743" r="14.4" fill="#009af9" fill-rule="evenodd" fill-opacity="0.5" stroke="#000000" stroke-opacity="0.5" stroke-width="3.2"/>
<circle clip-path="url(#clip552)" cx="303.473" cy="197.041" r="14.4" fill="#009af9" fill-rule="evenodd" fill-opacity="0.5" stroke="#000000" stroke-opacity="0.5" stroke-width="3.2"/>
<circle clip-path="url(#clip552)" cx="1717.82" cy="437.408" r="14.4" fill="#009af9" fill-rule="evenodd" fill-opacity="0.5" stroke="#000000" stroke-opacity="0.5" stroke-width="3.2"/>
<circle clip-path="url(#clip552)" cx="1577.09" cy="513.864" r="14.4" fill="#009af9" fill-rule="evenodd" fill-opacity="0.5" stroke="#000000" stroke-opacity="0.5" stroke-width="3.2"/>
<circle clip-path="url(#clip552)" cx="486.402" cy="1013.9" r="14.4" fill="#009af9" fill-rule="evenodd" fill-opacity="0.5" stroke="#000000" stroke-opacity="0.5" stroke-width="3.2"/>
<circle clip-path="url(#clip552)" cx="790.378" cy="357.334" r="14.4" fill="#009af9" fill-rule="evenodd" fill-opacity="0.5" stroke="#000000" stroke-opacity="0.5" stroke-width="3.2"/>
<circle clip-path="url(#clip552)" cx="1181.55" cy="343.196" r="14.4" fill="#009af9" fill-rule="evenodd" fill-opacity="0.5" stroke="#000000" stroke-opacity="0.5" stroke-width="3.2"/>
<circle clip-path="url(#clip552)" cx="1873.04" cy="753.351" r="14.4" fill="#009af9" fill-rule="evenodd" fill-opacity="0.5" stroke="#000000" stroke-opacity="0.5" stroke-width="3.2"/>
<circle clip-path="url(#clip552)" cx="1284.01" cy="461.719" r="14.4" fill="#009af9" fill-rule="evenodd" fill-opacity="0.5" stroke="#000000" stroke-opacity="0.5" stroke-width="3.2"/>
<circle clip-path="url(#clip552)" cx="1294.23" cy="794.591" r="14.4" fill="#009af9" fill-rule="evenodd" fill-opacity="0.5" stroke="#000000" stroke-opacity="0.5" stroke-width="3.2"/>
<circle clip-path="url(#clip552)" cx="1176.82" cy="513.222" r="14.4" fill="#009af9" fill-rule="evenodd" fill-opacity="0.5" stroke="#000000" stroke-opacity="0.5" stroke-width="3.2"/>
<circle clip-path="url(#clip552)" cx="863.866" cy="474.249" r="14.4" fill="#009af9" fill-rule="evenodd" fill-opacity="0.5" stroke="#000000" stroke-opacity="0.5" stroke-width="3.2"/>
<circle clip-path="url(#clip552)" cx="838.777" cy="1445.72" r="14.4" fill="#009af9" fill-rule="evenodd" fill-opacity="0.5" stroke="#000000" stroke-opacity="0.5" stroke-width="3.2"/>
<circle clip-path="url(#clip552)" cx="210.454" cy="494.397" r="14.4" fill="#009af9" fill-rule="evenodd" fill-opacity="0.5" stroke="#000000" stroke-opacity="0.5" stroke-width="3.2"/>
<circle clip-path="url(#clip552)" cx="1302.01" cy="296.644" r="14.4" fill="#009af9" fill-rule="evenodd" fill-opacity="0.5" stroke="#000000" stroke-opacity="0.5" stroke-width="3.2"/>
<circle clip-path="url(#clip552)" cx="1000.48" cy="410.622" r="14.4" fill="#009af9" fill-rule="evenodd" fill-opacity="0.5" stroke="#000000" stroke-opacity="0.5" stroke-width="3.2"/>
<circle clip-path="url(#clip552)" cx="1719.12" cy="705.151" r="14.4" fill="#009af9" fill-rule="evenodd" fill-opacity="0.5" stroke="#000000" stroke-opacity="0.5" stroke-width="3.2"/>
<circle clip-path="url(#clip552)" cx="1000.76" cy="809.353" r="14.4" fill="#009af9" fill-rule="evenodd" fill-opacity="0.5" stroke="#000000" stroke-opacity="0.5" stroke-width="3.2"/>
<circle clip-path="url(#clip552)" cx="668.902" cy="797.036" r="14.4" fill="#009af9" fill-rule="evenodd" fill-opacity="0.5" stroke="#000000" stroke-opacity="0.5" stroke-width="3.2"/>
<circle clip-path="url(#clip552)" cx="1584" cy="563.65" r="14.4" fill="#009af9" fill-rule="evenodd" fill-opacity="0.5" stroke="#000000" stroke-opacity="0.5" stroke-width="3.2"/>
<circle clip-path="url(#clip552)" cx="642.811" cy="492.251" r="14.4" fill="#009af9" fill-rule="evenodd" fill-opacity="0.5" stroke="#000000" stroke-opacity="0.5" stroke-width="3.2"/>
<circle clip-path="url(#clip552)" cx="1081.35" cy="689.041" r="14.4" fill="#009af9" fill-rule="evenodd" fill-opacity="0.5" stroke="#000000" stroke-opacity="0.5" stroke-width="3.2"/>
<circle clip-path="url(#clip552)" cx="1914.43" cy="503.745" r="14.4" fill="#009af9" fill-rule="evenodd" fill-opacity="0.5" stroke="#000000" stroke-opacity="0.5" stroke-width="3.2"/>
<circle clip-path="url(#clip552)" cx="306.449" cy="723.71" r="14.4" fill="#009af9" fill-rule="evenodd" fill-opacity="0.5" stroke="#000000" stroke-opacity="0.5" stroke-width="3.2"/>
<circle clip-path="url(#clip552)" cx="2035.08" cy="87.9763" r="14.4" fill="#009af9" fill-rule="evenodd" fill-opacity="0.5" stroke="#000000" stroke-opacity="0.5" stroke-width="3.2"/>
<path clip-path="url(#clip552)" d="M210.454 494.397 L306.449 723.71 L486.402 1013.9 L838.777 1445.72 L2290.36 688.23 L2035.08 87.9763 L1707.46 100.928 L303.473 197.041 L210.454 494.397 L210.454 494.397  Z" fill="#e26f46" fill-rule="evenodd" fill-opacity="0.2"/>
<polyline clip-path="url(#clip552)" style="stroke:#000000; stroke-linecap:round; stroke-linejoin:round; stroke-width:4; stroke-opacity:0.2; fill:none" points="210.454,494.397 306.449,723.71 486.402,1013.9 838.777,1445.72 2290.36,688.23 2035.08,87.9763 1707.46,100.928 303.473,197.041 210.454,494.397 "/>
</svg>
