<?xml version="1.0" encoding="utf-8"?>
<svg xmlns="http://www.w3.org/2000/svg" xmlns:xlink="http://www.w3.org/1999/xlink" width="600" height="400" viewBox="0 0 2400 1600">
<defs>
  <clipPath id="clip350">
    <rect x="0" y="0" width="2400" height="1600"/>
  </clipPath>
</defs>
<path clip-path="url(#clip350)" d="M0 1600 L2400 1600 L2400 0 L0 0  Z" fill="#ffffff" fill-rule="evenodd" fill-opacity="1"/>
<defs>
  <clipPath id="clip351">
    <rect x="480" y="0" width="1681" height="1600"/>
  </clipPath>
</defs>
<path clip-path="url(#clip350)" d="M147.478 1486.45 L2352.76 1486.45 L2352.76 47.2441 L147.478 47.2441  Z" fill="#ffffff" fill-rule="evenodd" fill-opacity="1"/>
<defs>
  <clipPath id="clip352">
    <rect x="147" y="47" width="2206" height="1440"/>
  </clipPath>
</defs>
<polyline clip-path="url(#clip352)" style="stroke:#000000; stroke-linecap:round; stroke-linejoin:round; stroke-width:2; stroke-opacity:0.1; fill:none" points="459.549,1486.45 459.549,47.2441 "/>
<polyline clip-path="url(#clip352)" style="stroke:#000000; stroke-linecap:round; stroke-linejoin:round; stroke-width:2; stroke-opacity:0.1; fill:none" points="947.22,1486.45 947.22,47.2441 "/>
<polyline clip-path="url(#clip352)" style="stroke:#000000; stroke-linecap:round; stroke-linejoin:round; stroke-width:2; stroke-opacity:0.1; fill:none" points="1434.89,1486.45 1434.89,47.2441 "/>
<polyline clip-path="url(#clip352)" style="stroke:#000000; stroke-linecap:round; stroke-linejoin:round; stroke-width:2; stroke-opacity:0.1; fill:none" points="1922.56,1486.45 1922.56,47.2441 "/>
<polyline clip-path="url(#clip352)" style="stroke:#000000; stroke-linecap:round; stroke-linejoin:round; stroke-width:2; stroke-opacity:0.1; fill:none" points="147.478,1230.07 2352.76,1230.07 "/>
<polyline clip-path="url(#clip352)" style="stroke:#000000; stroke-linecap:round; stroke-linejoin:round; stroke-width:2; stroke-opacity:0.1; fill:none" points="147.478,918.605 2352.76,918.605 "/>
<polyline clip-path="url(#clip352)" style="stroke:#000000; stroke-linecap:round; stroke-linejoin:round; stroke-width:2; stroke-opacity:0.1; fill:none" points="147.478,607.144 2352.76,607.144 "/>
<polyline clip-path="url(#clip352)" style="stroke:#000000; stroke-linecap:round; stroke-linejoin:round; stroke-width:2; stroke-opacity:0.1; fill:none" points="147.478,295.683 2352.76,295.683 "/>
<polyline clip-path="url(#clip350)" style="stroke:#000000; stroke-linecap:round; stroke-linejoin:round; stroke-width:4; stroke-opacity:1; fill:none" points="147.478,1486.45 2352.76,1486.45 "/>
<polyline clip-path="url(#clip350)" style="stroke:#000000; stroke-linecap:round; stroke-linejoin:round; stroke-width:4; stroke-opacity:1; fill:none" points="459.549,1486.45 459.549,1467.55 "/>
<polyline clip-path="url(#clip350)" style="stroke:#000000; stroke-linecap:round; stroke-linejoin:round; stroke-width:4; stroke-opacity:1; fill:none" points="947.22,1486.45 947.22,1467.55 "/>
<polyline clip-path="url(#clip350)" style="stroke:#000000; stroke-linecap:round; stroke-linejoin:round; stroke-width:4; stroke-opacity:1; fill:none" points="1434.89,1486.45 1434.89,1467.55 "/>
<polyline clip-path="url(#clip350)" style="stroke:#000000; stroke-linecap:round; stroke-linejoin:round; stroke-width:4; stroke-opacity:1; fill:none" points="1922.56,1486.45 1922.56,1467.55 "/>
<path clip-path="url(#clip350)" d="M429.307 1532.02 L458.982 1532.02 L458.982 1535.95 L429.307 1535.95 L429.307 1532.02 Z" fill="#000000" fill-rule="nonzero" fill-opacity="1" /><path clip-path="url(#clip350)" d="M469.885 1544.91 L477.524 1544.91 L477.524 1518.55 L469.214 1520.21 L469.214 1515.95 L477.478 1514.29 L482.154 1514.29 L482.154 1544.91 L489.792 1544.91 L489.792 1548.85 L469.885 1548.85 L469.885 1544.91 Z" fill="#000000" fill-rule="nonzero" fill-opacity="1" /><path clip-path="url(#clip350)" d="M947.22 1517.37 Q943.609 1517.37 941.78 1520.93 Q939.974 1524.47 939.974 1531.6 Q939.974 1538.71 941.78 1542.27 Q943.609 1545.82 947.22 1545.82 Q950.854 1545.82 952.659 1542.27 Q954.488 1538.71 954.488 1531.6 Q954.488 1524.47 952.659 1520.93 Q950.854 1517.37 947.22 1517.37 M947.22 1513.66 Q953.03 1513.66 956.085 1518.27 Q959.164 1522.85 959.164 1531.6 Q959.164 1540.33 956.085 1544.94 Q953.03 1549.52 947.22 1549.52 Q941.41 1549.52 938.331 1544.94 Q935.275 1540.33 935.275 1531.6 Q935.275 1522.85 938.331 1518.27 Q941.41 1513.66 947.22 1513.66 Z" fill="#000000" fill-rule="nonzero" fill-opacity="1" /><path clip-path="url(#clip350)" d="M1425.27 1544.91 L1432.91 1544.91 L1432.91 1518.55 L1424.6 1520.21 L1424.6 1515.95 L1432.86 1514.29 L1437.54 1514.29 L1437.54 1544.91 L1445.18 1544.91 L1445.18 1548.85 L1425.27 1548.85 L1425.27 1544.91 Z" fill="#000000" fill-rule="nonzero" fill-opacity="1" /><path clip-path="url(#clip350)" d="M1917.21 1544.91 L1933.53 1544.91 L1933.53 1548.85 L1911.59 1548.85 L1911.59 1544.91 Q1914.25 1542.16 1918.83 1537.53 Q1923.44 1532.88 1924.62 1531.53 Q1926.87 1529.01 1927.75 1527.27 Q1928.65 1525.51 1928.65 1523.82 Q1928.65 1521.07 1926.7 1519.33 Q1924.78 1517.6 1921.68 1517.6 Q1919.48 1517.6 1917.03 1518.36 Q1914.6 1519.13 1911.82 1520.68 L1911.82 1515.95 Q1914.64 1514.82 1917.1 1514.24 Q1919.55 1513.66 1921.59 1513.66 Q1926.96 1513.66 1930.15 1516.35 Q1933.35 1519.03 1933.35 1523.52 Q1933.35 1525.65 1932.54 1527.57 Q1931.75 1529.47 1929.64 1532.07 Q1929.06 1532.74 1925.96 1535.95 Q1922.86 1539.15 1917.21 1544.91 Z" fill="#000000" fill-rule="nonzero" fill-opacity="1" /><polyline clip-path="url(#clip350)" style="stroke:#000000; stroke-linecap:round; stroke-linejoin:round; stroke-width:4; stroke-opacity:1; fill:none" points="147.478,1486.45 147.478,47.2441 "/>
<polyline clip-path="url(#clip350)" style="stroke:#000000; stroke-linecap:round; stroke-linejoin:round; stroke-width:4; stroke-opacity:1; fill:none" points="147.478,1230.07 166.376,1230.07 "/>
<polyline clip-path="url(#clip350)" style="stroke:#000000; stroke-linecap:round; stroke-linejoin:round; stroke-width:4; stroke-opacity:1; fill:none" points="147.478,918.605 166.376,918.605 "/>
<polyline clip-path="url(#clip350)" style="stroke:#000000; stroke-linecap:round; stroke-linejoin:round; stroke-width:4; stroke-opacity:1; fill:none" points="147.478,607.144 166.376,607.144 "/>
<polyline clip-path="url(#clip350)" style="stroke:#000000; stroke-linecap:round; stroke-linejoin:round; stroke-width:4; stroke-opacity:1; fill:none" points="147.478,295.683 166.376,295.683 "/>
<path clip-path="url(#clip350)" d="M51.3625 1230.52 L81.0383 1230.52 L81.0383 1234.45 L51.3625 1234.45 L51.3625 1230.52 Z" fill="#000000" fill-rule="nonzero" fill-opacity="1" /><path clip-path="url(#clip350)" d="M95.1586 1243.41 L111.478 1243.41 L111.478 1247.35 L89.5336 1247.35 L89.5336 1243.41 Q92.1956 1240.66 96.7789 1236.03 Q101.385 1231.37 102.566 1230.03 Q104.811 1227.51 105.691 1225.77 Q106.594 1224.01 106.594 1222.32 Q106.594 1219.57 104.649 1217.83 Q102.728 1216.1 99.6261 1216.1 Q97.4271 1216.1 94.9734 1216.86 Q92.5428 1217.62 89.7651 1219.17 L89.7651 1214.45 Q92.5891 1213.32 95.0428 1212.74 Q97.4965 1212.16 99.5335 1212.16 Q104.904 1212.16 108.098 1214.85 Q111.293 1217.53 111.293 1222.02 Q111.293 1224.15 110.483 1226.07 Q109.696 1227.97 107.589 1230.56 Q107.01 1231.23 103.909 1234.45 Q100.807 1237.65 95.1586 1243.41 Z" fill="#000000" fill-rule="nonzero" fill-opacity="1" /><path clip-path="url(#clip350)" d="M50.9921 919.056 L80.6679 919.056 L80.6679 922.991 L50.9921 922.991 L50.9921 919.056 Z" fill="#000000" fill-rule="nonzero" fill-opacity="1" /><path clip-path="url(#clip350)" d="M91.5706 931.95 L99.2095 931.95 L99.2095 905.584 L90.8993 907.251 L90.8993 902.992 L99.1632 901.325 L103.839 901.325 L103.839 931.95 L111.478 931.95 L111.478 935.885 L91.5706 935.885 L91.5706 931.95 Z" fill="#000000" fill-rule="nonzero" fill-opacity="1" /><path clip-path="url(#clip350)" d="M99.5335 592.943 Q95.9224 592.943 94.0937 596.507 Q92.2882 600.049 92.2882 607.179 Q92.2882 614.285 94.0937 617.85 Q95.9224 621.392 99.5335 621.392 Q103.168 621.392 104.973 617.85 Q106.802 614.285 106.802 607.179 Q106.802 600.049 104.973 596.507 Q103.168 592.943 99.5335 592.943 M99.5335 589.239 Q105.344 589.239 108.399 593.845 Q111.478 598.429 111.478 607.179 Q111.478 615.905 108.399 620.512 Q105.344 625.095 99.5335 625.095 Q93.7234 625.095 90.6447 620.512 Q87.5892 615.905 87.5892 607.179 Q87.5892 598.429 90.6447 593.845 Q93.7234 589.239 99.5335 589.239 Z" fill="#000000" fill-rule="nonzero" fill-opacity="1" /><path clip-path="url(#clip350)" d="M91.5706 309.028 L99.2095 309.028 L99.2095 282.662 L90.8993 284.329 L90.8993 280.07 L99.1632 278.403 L103.839 278.403 L103.839 309.028 L111.478 309.028 L111.478 312.963 L91.5706 312.963 L91.5706 309.028 Z" fill="#000000" fill-rule="nonzero" fill-opacity="1" /><circle clip-path="url(#clip352)" cx="1831.85" cy="541.025" r="14.4" fill="#009af9" fill-rule="evenodd" fill-opacity="0.5" stroke="#000000" stroke-opacity="0.5" stroke-width="3.2"/>
<circle clip-path="url(#clip352)" cx="1070.3" cy="528.467" r="14.4" fill="#009af9" fill-rule="evenodd" fill-opacity="0.5" stroke="#000000" stroke-opacity="0.5" stroke-width="3.2"/>
<circle clip-path="url(#clip352)" cx="561.423" cy="447.769" r="14.4" fill="#009af9" fill-rule="evenodd" fill-opacity="0.5" stroke="#000000" stroke-opacity="0.5" stroke-width="3.2"/>
<circle clip-path="url(#clip352)" cx="1004.02" cy="641.383" r="14.4" fill="#009af9" fill-rule="evenodd" fill-opacity="0.5" stroke="#000000" stroke-opacity="0.5" stroke-width="3.2"/>
<circle clip-path="url(#clip352)" cx="951.522" cy="306.154" r="14.4" fill="#009af9" fill-rule="evenodd" fill-opacity="0.5" stroke="#000000" stroke-opacity="0.5" stroke-width="3.2"/>
<circle clip-path="url(#clip352)" cx="2290.34" cy="691.394" r="14.4" fill="#009af9" fill-rule="evenodd" fill-opacity="0.5" stroke="#000000" stroke-opacity="0.5" stroke-width="3.2"/>
<circle clip-path="url(#clip352)" cx="1111.01" cy="654.83" r="14.4" fill="#009af9" fill-rule="evenodd" fill-opacity="0.5" stroke="#000000" stroke-opacity="0.5" stroke-width="3.2"/>
<circle clip-path="url(#clip352)" cx="209.891" cy="692.047" r="14.4" fill="#009af9" fill-rule="evenodd" fill-opacity="0.5" stroke="#000000" stroke-opacity="0.5" stroke-width="3.2"/>
<circle clip-path="url(#clip352)" cx="1119.81" cy="192.493" r="14.4" fill="#009af9" fill-rule="evenodd" fill-opacity="0.5" stroke="#000000" stroke-opacity="0.5" stroke-width="3.2"/>
<circle clip-path="url(#clip352)" cx="882.484" cy="585.951" r="14.4" fill="#009af9" fill-rule="evenodd" fill-opacity="0.5" stroke="#000000" stroke-opacity="0.5" stroke-width="3.2"/>
<circle clip-path="url(#clip352)" cx="430.035" cy="1445.72" r="14.4" fill="#009af9" fill-rule="evenodd" fill-opacity="0.5" stroke="#000000" stroke-opacity="0.5" stroke-width="3.2"/>
<circle clip-path="url(#clip352)" cx="1052.5" cy="723.724" r="14.4" fill="#009af9" fill-rule="evenodd" fill-opacity="0.5" stroke="#000000" stroke-opacity="0.5" stroke-width="3.2"/>
<circle clip-path="url(#clip352)" cx="1164.09" cy="324.798" r="14.4" fill="#009af9" fill-rule="evenodd" fill-opacity="0.5" stroke="#000000" stroke-opacity="0.5" stroke-width="3.2"/>
<circle clip-path="url(#clip352)" cx="571.704" cy="693.812" r="14.4" fill="#009af9" fill-rule="evenodd" fill-opacity="0.5" stroke="#000000" stroke-opacity="0.5" stroke-width="3.2"/>
<circle clip-path="url(#clip352)" cx="1430.94" cy="909.885" r="14.4" fill="#009af9" fill-rule="evenodd" fill-opacity="0.5" stroke="#000000" stroke-opacity="0.5" stroke-width="3.2"/>
<circle clip-path="url(#clip352)" cx="1518.48" cy="594.705" r="14.4" fill="#009af9" fill-rule="evenodd" fill-opacity="0.5" stroke="#000000" stroke-opacity="0.5" stroke-width="3.2"/>
<circle clip-path="url(#clip352)" cx="793.872" cy="535.559" r="14.4" fill="#009af9" fill-rule="evenodd" fill-opacity="0.5" stroke="#000000" stroke-opacity="0.5" stroke-width="3.2"/>
<circle clip-path="url(#clip352)" cx="1171.88" cy="570.628" r="14.4" fill="#009af9" fill-rule="evenodd" fill-opacity="0.5" stroke="#000000" stroke-opacity="0.5" stroke-width="3.2"/>
<circle clip-path="url(#clip352)" cx="912.074" cy="119.774" r="14.4" fill="#009af9" fill-rule="evenodd" fill-opacity="0.5" stroke="#000000" stroke-opacity="0.5" stroke-width="3.2"/>
<circle clip-path="url(#clip352)" cx="775.1" cy="506.734" r="14.4" fill="#009af9" fill-rule="evenodd" fill-opacity="0.5" stroke="#000000" stroke-opacity="0.5" stroke-width="3.2"/>
<circle clip-path="url(#clip352)" cx="1175.8" cy="1260.13" r="14.4" fill="#009af9" fill-rule="evenodd" fill-opacity="0.5" stroke="#000000" stroke-opacity="0.5" stroke-width="3.2"/>
<circle clip-path="url(#clip352)" cx="783.866" cy="87.9763" r="14.4" fill="#009af9" fill-rule="evenodd" fill-opacity="0.5" stroke="#000000" stroke-opacity="0.5" stroke-width="3.2"/>
<circle clip-path="url(#clip352)" cx="1593.91" cy="179.928" r="14.4" fill="#009af9" fill-rule="evenodd" fill-opacity="0.5" stroke="#000000" stroke-opacity="0.5" stroke-width="3.2"/>
<circle clip-path="url(#clip352)" cx="351.496" cy="857.488" r="14.4" fill="#009af9" fill-rule="evenodd" fill-opacity="0.5" stroke="#000000" stroke-opacity="0.5" stroke-width="3.2"/>
<circle clip-path="url(#clip352)" cx="1459.16" cy="1171.26" r="14.4" fill="#009af9" fill-rule="evenodd" fill-opacity="0.5" stroke="#000000" stroke-opacity="0.5" stroke-width="3.2"/>
<circle clip-path="url(#clip352)" cx="375.06" cy="1031.78" r="14.4" fill="#009af9" fill-rule="evenodd" fill-opacity="0.5" stroke="#000000" stroke-opacity="0.5" stroke-width="3.2"/>
<circle clip-path="url(#clip352)" cx="709.53" cy="596.612" r="14.4" fill="#009af9" fill-rule="evenodd" fill-opacity="0.5" stroke="#000000" stroke-opacity="0.5" stroke-width="3.2"/>
<circle clip-path="url(#clip352)" cx="558.121" cy="608.477" r="14.4" fill="#009af9" fill-rule="evenodd" fill-opacity="0.5" stroke="#000000" stroke-opacity="0.5" stroke-width="3.2"/>
<circle clip-path="url(#clip352)" cx="233.554" cy="635.298" r="14.4" fill="#009af9" fill-rule="evenodd" fill-opacity="0.5" stroke="#000000" stroke-opacity="0.5" stroke-width="3.2"/>
<circle clip-path="url(#clip352)" cx="234.537" cy="312.292" r="14.4" fill="#009af9" fill-rule="evenodd" fill-opacity="0.5" stroke="#000000" stroke-opacity="0.5" stroke-width="3.2"/>
<path clip-path="url(#clip352)" d="M209.891 692.047 L430.035 1445.72 L1175.8 1260.13 L1459.16 1171.26 L2290.34 691.394 L1593.91 179.928 L783.866 87.9763 L234.537 312.292 L209.891 692.047 L209.891 692.047  Z" fill="#e26f46" fill-rule="evenodd" fill-opacity="0.2"/>
<polyline clip-path="url(#clip352)" style="stroke:#000000; stroke-linecap:round; stroke-linejoin:round; stroke-width:4; stroke-opacity:0.2; fill:none" points="209.891,692.047 430.035,1445.72 1175.8,1260.13 1459.16,1171.26 2290.34,691.394 1593.91,179.928 783.866,87.9763 234.537,312.292 209.891,692.047 "/>
</svg>
