<?xml version="1.0" encoding="utf-8"?>
<svg xmlns="http://www.w3.org/2000/svg" xmlns:xlink="http://www.w3.org/1999/xlink" width="600" height="400" viewBox="0 0 2400 1600">
<defs>
  <clipPath id="clip440">
    <rect x="0" y="0" width="2400" height="1600"/>
  </clipPath>
</defs>
<path clip-path="url(#clip440)" d="M0 1600 L2400 1600 L2400 0 L0 0  Z" fill="#ffffff" fill-rule="evenodd" fill-opacity="1"/>
<defs>
  <clipPath id="clip441">
    <rect x="480" y="0" width="1681" height="1600"/>
  </clipPath>
</defs>
<path clip-path="url(#clip440)" d="M147.478 1486.45 L2352.76 1486.45 L2352.76 47.2441 L147.478 47.2441  Z" fill="#ffffff" fill-rule="evenodd" fill-opacity="1"/>
<defs>
  <clipPath id="clip442">
    <rect x="147" y="47" width="2206" height="1440"/>
  </clipPath>
</defs>
<polyline clip-path="url(#clip442)" style="stroke:#000000; stroke-linecap:round; stroke-linejoin:round; stroke-width:2; stroke-opacity:0.1; fill:none" points="199.706,1486.45 199.706,47.2441 "/>
<polyline clip-path="url(#clip442)" style="stroke:#000000; stroke-linecap:round; stroke-linejoin:round; stroke-width:2; stroke-opacity:0.1; fill:none" points="644.14,1486.45 644.14,47.2441 "/>
<polyline clip-path="url(#clip442)" style="stroke:#000000; stroke-linecap:round; stroke-linejoin:round; stroke-width:2; stroke-opacity:0.1; fill:none" points="1088.57,1486.45 1088.57,47.2441 "/>
<polyline clip-path="url(#clip442)" style="stroke:#000000; stroke-linecap:round; stroke-linejoin:round; stroke-width:2; stroke-opacity:0.1; fill:none" points="1533.01,1486.45 1533.01,47.2441 "/>
<polyline clip-path="url(#clip442)" style="stroke:#000000; stroke-linecap:round; stroke-linejoin:round; stroke-width:2; stroke-opacity:0.1; fill:none" points="1977.44,1486.45 1977.44,47.2441 "/>
<polyline clip-path="url(#clip442)" style="stroke:#000000; stroke-linecap:round; stroke-linejoin:round; stroke-width:2; stroke-opacity:0.1; fill:none" points="147.478,1162.39 2352.76,1162.39 "/>
<polyline clip-path="url(#clip442)" style="stroke:#000000; stroke-linecap:round; stroke-linejoin:round; stroke-width:2; stroke-opacity:0.1; fill:none" points="147.478,797.343 2352.76,797.343 "/>
<polyline clip-path="url(#clip442)" style="stroke:#000000; stroke-linecap:round; stroke-linejoin:round; stroke-width:2; stroke-opacity:0.1; fill:none" points="147.478,432.299 2352.76,432.299 "/>
<polyline clip-path="url(#clip442)" style="stroke:#000000; stroke-linecap:round; stroke-linejoin:round; stroke-width:2; stroke-opacity:0.1; fill:none" points="147.478,67.2558 2352.76,67.2558 "/>
<polyline clip-path="url(#clip440)" style="stroke:#000000; stroke-linecap:round; stroke-linejoin:round; stroke-width:4; stroke-opacity:1; fill:none" points="147.478,1486.45 2352.76,1486.45 "/>
<polyline clip-path="url(#clip440)" style="stroke:#000000; stroke-linecap:round; stroke-linejoin:round; stroke-width:4; stroke-opacity:1; fill:none" points="199.706,1486.45 199.706,1467.55 "/>
<polyline clip-path="url(#clip440)" style="stroke:#000000; stroke-linecap:round; stroke-linejoin:round; stroke-width:4; stroke-opacity:1; fill:none" points="644.14,1486.45 644.14,1467.55 "/>
<polyline clip-path="url(#clip440)" style="stroke:#000000; stroke-linecap:round; stroke-linejoin:round; stroke-width:4; stroke-opacity:1; fill:none" points="1088.57,1486.45 1088.57,1467.55 "/>
<polyline clip-path="url(#clip440)" style="stroke:#000000; stroke-linecap:round; stroke-linejoin:round; stroke-width:4; stroke-opacity:1; fill:none" points="1533.01,1486.45 1533.01,1467.55 "/>
<polyline clip-path="url(#clip440)" style="stroke:#000000; stroke-linecap:round; stroke-linejoin:round; stroke-width:4; stroke-opacity:1; fill:none" points="1977.44,1486.45 1977.44,1467.55 "/>
<path clip-path="url(#clip440)" d="M169.648 1532.02 L199.324 1532.02 L199.324 1535.95 L169.648 1535.95 L169.648 1532.02 Z" fill="#000000" fill-rule="nonzero" fill-opacity="1" /><path clip-path="url(#clip440)" d="M213.444 1544.91 L229.763 1544.91 L229.763 1548.85 L207.819 1548.85 L207.819 1544.91 Q210.481 1542.16 215.064 1537.53 Q219.671 1532.88 220.851 1531.53 Q223.097 1529.01 223.976 1527.27 Q224.879 1525.51 224.879 1523.82 Q224.879 1521.07 222.935 1519.33 Q221.013 1517.6 217.911 1517.6 Q215.712 1517.6 213.259 1518.36 Q210.828 1519.13 208.05 1520.68 L208.05 1515.95 Q210.874 1514.82 213.328 1514.24 Q215.782 1513.66 217.819 1513.66 Q223.189 1513.66 226.384 1516.35 Q229.578 1519.03 229.578 1523.52 Q229.578 1525.65 228.768 1527.57 Q227.981 1529.47 225.874 1532.07 Q225.296 1532.74 222.194 1535.95 Q219.092 1539.15 213.444 1544.91 Z" fill="#000000" fill-rule="nonzero" fill-opacity="1" /><path clip-path="url(#clip440)" d="M613.897 1532.02 L643.573 1532.02 L643.573 1535.95 L613.897 1535.95 L613.897 1532.02 Z" fill="#000000" fill-rule="nonzero" fill-opacity="1" /><path clip-path="url(#clip440)" d="M654.475 1544.91 L662.114 1544.91 L662.114 1518.55 L653.804 1520.21 L653.804 1515.95 L662.068 1514.29 L666.744 1514.29 L666.744 1544.91 L674.383 1544.91 L674.383 1548.85 L654.475 1548.85 L654.475 1544.91 Z" fill="#000000" fill-rule="nonzero" fill-opacity="1" /><path clip-path="url(#clip440)" d="M1088.57 1517.37 Q1084.96 1517.37 1083.13 1520.93 Q1081.33 1524.47 1081.33 1531.6 Q1081.33 1538.71 1083.13 1542.27 Q1084.96 1545.82 1088.57 1545.82 Q1092.21 1545.82 1094.01 1542.27 Q1095.84 1538.71 1095.84 1531.6 Q1095.84 1524.47 1094.01 1520.93 Q1092.21 1517.37 1088.57 1517.37 M1088.57 1513.66 Q1094.38 1513.66 1097.44 1518.27 Q1100.52 1522.85 1100.52 1531.6 Q1100.52 1540.33 1097.44 1544.94 Q1094.38 1549.52 1088.57 1549.52 Q1082.76 1549.52 1079.69 1544.94 Q1076.63 1540.33 1076.63 1531.6 Q1076.63 1522.85 1079.69 1518.27 Q1082.76 1513.66 1088.57 1513.66 Z" fill="#000000" fill-rule="nonzero" fill-opacity="1" /><path clip-path="url(#clip440)" d="M1523.39 1544.91 L1531.03 1544.91 L1531.03 1518.55 L1522.72 1520.21 L1522.72 1515.95 L1530.98 1514.29 L1535.66 1514.29 L1535.66 1544.91 L1543.3 1544.91 L1543.3 1548.85 L1523.39 1548.85 L1523.39 1544.91 Z" fill="#000000" fill-rule="nonzero" fill-opacity="1" /><path clip-path="url(#clip440)" d="M1972.1 1544.91 L1988.41 1544.91 L1988.41 1548.85 L1966.47 1548.85 L1966.47 1544.91 Q1969.13 1542.16 1973.72 1537.53 Q1978.32 1532.88 1979.5 1531.53 Q1981.75 1529.01 1982.63 1527.27 Q1983.53 1525.51 1983.53 1523.82 Q1983.53 1521.07 1981.59 1519.33 Q1979.66 1517.6 1976.56 1517.6 Q1974.36 1517.6 1971.91 1518.36 Q1969.48 1519.13 1966.7 1520.68 L1966.7 1515.95 Q1969.53 1514.82 1971.98 1514.24 Q1974.43 1513.66 1976.47 1513.66 Q1981.84 1513.66 1985.03 1516.35 Q1988.23 1519.03 1988.23 1523.52 Q1988.23 1525.65 1987.42 1527.57 Q1986.63 1529.47 1984.53 1532.07 Q1983.95 1532.74 1980.85 1535.95 Q1977.74 1539.15 1972.1 1544.91 Z" fill="#000000" fill-rule="nonzero" fill-opacity="1" /><polyline clip-path="url(#clip440)" style="stroke:#000000; stroke-linecap:round; stroke-linejoin:round; stroke-width:4; stroke-opacity:1; fill:none" points="147.478,1486.45 147.478,47.2441 "/>
<polyline clip-path="url(#clip440)" style="stroke:#000000; stroke-linecap:round; stroke-linejoin:round; stroke-width:4; stroke-opacity:1; fill:none" points="147.478,1162.39 166.376,1162.39 "/>
<polyline clip-path="url(#clip440)" style="stroke:#000000; stroke-linecap:round; stroke-linejoin:round; stroke-width:4; stroke-opacity:1; fill:none" points="147.478,797.343 166.376,797.343 "/>
<polyline clip-path="url(#clip440)" style="stroke:#000000; stroke-linecap:round; stroke-linejoin:round; stroke-width:4; stroke-opacity:1; fill:none" points="147.478,432.299 166.376,432.299 "/>
<polyline clip-path="url(#clip440)" style="stroke:#000000; stroke-linecap:round; stroke-linejoin:round; stroke-width:4; stroke-opacity:1; fill:none" points="147.478,67.2558 166.376,67.2558 "/>
<path clip-path="url(#clip440)" d="M50.9921 1162.84 L80.6679 1162.84 L80.6679 1166.77 L50.9921 1166.77 L50.9921 1162.84 Z" fill="#000000" fill-rule="nonzero" fill-opacity="1" /><path clip-path="url(#clip440)" d="M91.5706 1175.73 L99.2095 1175.73 L99.2095 1149.37 L90.8993 1151.03 L90.8993 1146.77 L99.1632 1145.11 L103.839 1145.11 L103.839 1175.73 L111.478 1175.73 L111.478 1179.67 L91.5706 1179.67 L91.5706 1175.73 Z" fill="#000000" fill-rule="nonzero" fill-opacity="1" /><path clip-path="url(#clip440)" d="M99.5335 783.141 Q95.9224 783.141 94.0937 786.706 Q92.2882 790.248 92.2882 797.377 Q92.2882 804.484 94.0937 808.049 Q95.9224 811.59 99.5335 811.59 Q103.168 811.59 104.973 808.049 Q106.802 804.484 106.802 797.377 Q106.802 790.248 104.973 786.706 Q103.168 783.141 99.5335 783.141 M99.5335 779.438 Q105.344 779.438 108.399 784.044 Q111.478 788.628 111.478 797.377 Q111.478 806.104 108.399 810.711 Q105.344 815.294 99.5335 815.294 Q93.7234 815.294 90.6447 810.711 Q87.5892 806.104 87.5892 797.377 Q87.5892 788.628 90.6447 784.044 Q93.7234 779.438 99.5335 779.438 Z" fill="#000000" fill-rule="nonzero" fill-opacity="1" /><path clip-path="url(#clip440)" d="M91.5706 445.644 L99.2095 445.644 L99.2095 419.278 L90.8993 420.945 L90.8993 416.686 L99.1632 415.019 L103.839 415.019 L103.839 445.644 L111.478 445.644 L111.478 449.579 L91.5706 449.579 L91.5706 445.644 Z" fill="#000000" fill-rule="nonzero" fill-opacity="1" /><path clip-path="url(#clip440)" d="M95.1586 80.6006 L111.478 80.6006 L111.478 84.5358 L89.5336 84.5358 L89.5336 80.6006 Q92.1956 77.846 96.7789 73.2164 Q101.385 68.5636 102.566 67.2211 Q104.811 64.6979 105.691 62.9618 Q106.594 61.2026 106.594 59.5128 Q106.594 56.7582 104.649 55.0221 Q102.728 53.286 99.6261 53.286 Q97.4271 53.286 94.9734 54.0498 Q92.5428 54.8137 89.7651 56.3646 L89.7651 51.6424 Q92.5891 50.5082 95.0428 49.9295 Q97.4965 49.3508 99.5335 49.3508 Q104.904 49.3508 108.098 52.036 Q111.293 54.7211 111.293 59.2118 Q111.293 61.3415 110.483 63.2628 Q109.696 65.1609 107.589 67.7535 Q107.01 68.4248 103.909 71.6423 Q100.807 74.8368 95.1586 80.6006 Z" fill="#000000" fill-rule="nonzero" fill-opacity="1" /><circle clip-path="url(#clip442)" cx="956.941" cy="498.13" r="14.4" fill="#009af9" fill-rule="evenodd" fill-opacity="0.5" stroke="#000000" stroke-opacity="0.5" stroke-width="3.2"/>
<circle clip-path="url(#clip442)" cx="1144.12" cy="1296.82" r="14.4" fill="#009af9" fill-rule="evenodd" fill-opacity="0.5" stroke="#000000" stroke-opacity="0.5" stroke-width="3.2"/>
<circle clip-path="url(#clip442)" cx="1632.77" cy="336.152" r="14.4" fill="#009af9" fill-rule="evenodd" fill-opacity="0.5" stroke="#000000" stroke-opacity="0.5" stroke-width="3.2"/>
<circle clip-path="url(#clip442)" cx="1365.59" cy="1117.48" r="14.4" fill="#009af9" fill-rule="evenodd" fill-opacity="0.5" stroke="#000000" stroke-opacity="0.5" stroke-width="3.2"/>
<circle clip-path="url(#clip442)" cx="985.02" cy="944.048" r="14.4" fill="#009af9" fill-rule="evenodd" fill-opacity="0.5" stroke="#000000" stroke-opacity="0.5" stroke-width="3.2"/>
<circle clip-path="url(#clip442)" cx="1083.19" cy="582.442" r="14.4" fill="#009af9" fill-rule="evenodd" fill-opacity="0.5" stroke="#000000" stroke-opacity="0.5" stroke-width="3.2"/>
<circle clip-path="url(#clip442)" cx="370.145" cy="285.754" r="14.4" fill="#009af9" fill-rule="evenodd" fill-opacity="0.5" stroke="#000000" stroke-opacity="0.5" stroke-width="3.2"/>
<circle clip-path="url(#clip442)" cx="830.14" cy="1029.44" r="14.4" fill="#009af9" fill-rule="evenodd" fill-opacity="0.5" stroke="#000000" stroke-opacity="0.5" stroke-width="3.2"/>
<circle clip-path="url(#clip442)" cx="1450.48" cy="629.093" r="14.4" fill="#009af9" fill-rule="evenodd" fill-opacity="0.5" stroke="#000000" stroke-opacity="0.5" stroke-width="3.2"/>
<circle clip-path="url(#clip442)" cx="1723.66" cy="1025.84" r="14.4" fill="#009af9" fill-rule="evenodd" fill-opacity="0.5" stroke="#000000" stroke-opacity="0.5" stroke-width="3.2"/>
<circle clip-path="url(#clip442)" cx="1482.53" cy="1236.2" r="14.4" fill="#009af9" fill-rule="evenodd" fill-opacity="0.5" stroke="#000000" stroke-opacity="0.5" stroke-width="3.2"/>
<circle clip-path="url(#clip442)" cx="1192.85" cy="1419.79" r="14.4" fill="#009af9" fill-rule="evenodd" fill-opacity="0.5" stroke="#000000" stroke-opacity="0.5" stroke-width="3.2"/>
<circle clip-path="url(#clip442)" cx="1219.37" cy="511.741" r="14.4" fill="#009af9" fill-rule="evenodd" fill-opacity="0.5" stroke="#000000" stroke-opacity="0.5" stroke-width="3.2"/>
<circle clip-path="url(#clip442)" cx="1112.04" cy="730.386" r="14.4" fill="#009af9" fill-rule="evenodd" fill-opacity="0.5" stroke="#000000" stroke-opacity="0.5" stroke-width="3.2"/>
<circle clip-path="url(#clip442)" cx="1111.23" cy="1058.09" r="14.4" fill="#009af9" fill-rule="evenodd" fill-opacity="0.5" stroke="#000000" stroke-opacity="0.5" stroke-width="3.2"/>
<circle clip-path="url(#clip442)" cx="1465.04" cy="1445.72" r="14.4" fill="#009af9" fill-rule="evenodd" fill-opacity="0.5" stroke="#000000" stroke-opacity="0.5" stroke-width="3.2"/>
<circle clip-path="url(#clip442)" cx="1049.84" cy="87.9763" r="14.4" fill="#009af9" fill-rule="evenodd" fill-opacity="0.5" stroke="#000000" stroke-opacity="0.5" stroke-width="3.2"/>
<circle clip-path="url(#clip442)" cx="1709.71" cy="1004.13" r="14.4" fill="#009af9" fill-rule="evenodd" fill-opacity="0.5" stroke="#000000" stroke-opacity="0.5" stroke-width="3.2"/>
<circle clip-path="url(#clip442)" cx="1437.08" cy="692.311" r="14.4" fill="#009af9" fill-rule="evenodd" fill-opacity="0.5" stroke="#000000" stroke-opacity="0.5" stroke-width="3.2"/>
<circle clip-path="url(#clip442)" cx="1387.36" cy="844.344" r="14.4" fill="#009af9" fill-rule="evenodd" fill-opacity="0.5" stroke="#000000" stroke-opacity="0.5" stroke-width="3.2"/>
<circle clip-path="url(#clip442)" cx="701.272" cy="1146.16" r="14.4" fill="#009af9" fill-rule="evenodd" fill-opacity="0.5" stroke="#000000" stroke-opacity="0.5" stroke-width="3.2"/>
<circle clip-path="url(#clip442)" cx="1210.98" cy="722.009" r="14.4" fill="#009af9" fill-rule="evenodd" fill-opacity="0.5" stroke="#000000" stroke-opacity="0.5" stroke-width="3.2"/>
<circle clip-path="url(#clip442)" cx="1178.52" cy="277.8" r="14.4" fill="#009af9" fill-rule="evenodd" fill-opacity="0.5" stroke="#000000" stroke-opacity="0.5" stroke-width="3.2"/>
<circle clip-path="url(#clip442)" cx="675.367" cy="1075.74" r="14.4" fill="#009af9" fill-rule="evenodd" fill-opacity="0.5" stroke="#000000" stroke-opacity="0.5" stroke-width="3.2"/>
<circle clip-path="url(#clip442)" cx="355.594" cy="1222.83" r="14.4" fill="#009af9" fill-rule="evenodd" fill-opacity="0.5" stroke="#000000" stroke-opacity="0.5" stroke-width="3.2"/>
<circle clip-path="url(#clip442)" cx="1299.82" cy="1364.02" r="14.4" fill="#009af9" fill-rule="evenodd" fill-opacity="0.5" stroke="#000000" stroke-opacity="0.5" stroke-width="3.2"/>
<circle clip-path="url(#clip442)" cx="1376" cy="140.998" r="14.4" fill="#009af9" fill-rule="evenodd" fill-opacity="0.5" stroke="#000000" stroke-opacity="0.5" stroke-width="3.2"/>
<circle clip-path="url(#clip442)" cx="1572.8" cy="1185.91" r="14.4" fill="#009af9" fill-rule="evenodd" fill-opacity="0.5" stroke="#000000" stroke-opacity="0.5" stroke-width="3.2"/>
<circle clip-path="url(#clip442)" cx="2290.34" cy="1254.27" r="14.4" fill="#009af9" fill-rule="evenodd" fill-opacity="0.5" stroke="#000000" stroke-opacity="0.5" stroke-width="3.2"/>
<circle clip-path="url(#clip442)" cx="209.891" cy="1052.23" r="14.4" fill="#009af9" fill-rule="evenodd" fill-opacity="0.5" stroke="#000000" stroke-opacity="0.5" stroke-width="3.2"/>
<path clip-path="url(#clip442)" d="M209.891 1052.23 L355.594 1222.83 L1192.85 1419.79 L1465.04 1445.72 L2290.34 1254.27 L1632.77 336.152 L1376 140.998 L1049.84 87.9763 L370.145 285.754 L209.891 1052.23 L209.891 1052.23  Z" fill="#e26f46" fill-rule="evenodd" fill-opacity="0.2"/>
<polyline clip-path="url(#clip442)" style="stroke:#000000; stroke-linecap:round; stroke-linejoin:round; stroke-width:4; stroke-opacity:0.2; fill:none" points="209.891,1052.23 355.594,1222.83 1192.85,1419.79 1465.04,1445.72 2290.34,1254.27 1632.77,336.152 1376,140.998 1049.84,87.9763 370.145,285.754 209.891,1052.23 "/>
</svg>
