<?xml version="1.0" encoding="utf-8"?>
<svg xmlns="http://www.w3.org/2000/svg" xmlns:xlink="http://www.w3.org/1999/xlink" width="600" height="400" viewBox="0 0 2400 1600">
<defs>
  <clipPath id="clip960">
    <rect x="0" y="0" width="2400" height="1600"/>
  </clipPath>
</defs>
<path clip-path="url(#clip960)" d="M0 1600 L2400 1600 L2400 0 L0 0  Z" fill="#ffffff" fill-rule="evenodd" fill-opacity="1"/>
<defs>
  <clipPath id="clip961">
    <rect x="480" y="0" width="1681" height="1600"/>
  </clipPath>
</defs>
<path clip-path="url(#clip960)" d="M147.478 1486.45 L2352.76 1486.45 L2352.76 47.2441 L147.478 47.2441  Z" fill="#ffffff" fill-rule="evenodd" fill-opacity="1"/>
<defs>
  <clipPath id="clip962">
    <rect x="147" y="47" width="2206" height="1440"/>
  </clipPath>
</defs>
<polyline clip-path="url(#clip962)" style="stroke:#000000; stroke-linecap:round; stroke-linejoin:round; stroke-width:2; stroke-opacity:0.1; fill:none" points="501.774,1486.45 501.774,47.2441 "/>
<polyline clip-path="url(#clip962)" style="stroke:#000000; stroke-linecap:round; stroke-linejoin:round; stroke-width:2; stroke-opacity:0.1; fill:none" points="1020.25,1486.45 1020.25,47.2441 "/>
<polyline clip-path="url(#clip962)" style="stroke:#000000; stroke-linecap:round; stroke-linejoin:round; stroke-width:2; stroke-opacity:0.1; fill:none" points="1538.73,1486.45 1538.73,47.2441 "/>
<polyline clip-path="url(#clip962)" style="stroke:#000000; stroke-linecap:round; stroke-linejoin:round; stroke-width:2; stroke-opacity:0.1; fill:none" points="2057.21,1486.45 2057.21,47.2441 "/>
<polyline clip-path="url(#clip962)" style="stroke:#000000; stroke-linecap:round; stroke-linejoin:round; stroke-width:2; stroke-opacity:0.1; fill:none" points="147.478,1444.45 2352.76,1444.45 "/>
<polyline clip-path="url(#clip962)" style="stroke:#000000; stroke-linecap:round; stroke-linejoin:round; stroke-width:2; stroke-opacity:0.1; fill:none" points="147.478,1079.12 2352.76,1079.12 "/>
<polyline clip-path="url(#clip962)" style="stroke:#000000; stroke-linecap:round; stroke-linejoin:round; stroke-width:2; stroke-opacity:0.1; fill:none" points="147.478,713.795 2352.76,713.795 "/>
<polyline clip-path="url(#clip962)" style="stroke:#000000; stroke-linecap:round; stroke-linejoin:round; stroke-width:2; stroke-opacity:0.1; fill:none" points="147.478,348.466 2352.76,348.466 "/>
<polyline clip-path="url(#clip960)" style="stroke:#000000; stroke-linecap:round; stroke-linejoin:round; stroke-width:4; stroke-opacity:1; fill:none" points="147.478,1486.45 2352.76,1486.45 "/>
<polyline clip-path="url(#clip960)" style="stroke:#000000; stroke-linecap:round; stroke-linejoin:round; stroke-width:4; stroke-opacity:1; fill:none" points="501.774,1486.45 501.774,1467.55 "/>
<polyline clip-path="url(#clip960)" style="stroke:#000000; stroke-linecap:round; stroke-linejoin:round; stroke-width:4; stroke-opacity:1; fill:none" points="1020.25,1486.45 1020.25,1467.55 "/>
<polyline clip-path="url(#clip960)" style="stroke:#000000; stroke-linecap:round; stroke-linejoin:round; stroke-width:4; stroke-opacity:1; fill:none" points="1538.73,1486.45 1538.73,1467.55 "/>
<polyline clip-path="url(#clip960)" style="stroke:#000000; stroke-linecap:round; stroke-linejoin:round; stroke-width:4; stroke-opacity:1; fill:none" points="2057.21,1486.45 2057.21,1467.55 "/>
<path clip-path="url(#clip960)" d="M471.531 1532.02 L501.207 1532.02 L501.207 1535.95 L471.531 1535.95 L471.531 1532.02 Z" fill="#000000" fill-rule="nonzero" fill-opacity="1" /><path clip-path="url(#clip960)" d="M512.109 1544.91 L519.748 1544.91 L519.748 1518.55 L511.438 1520.21 L511.438 1515.95 L519.702 1514.29 L524.378 1514.29 L524.378 1544.91 L532.017 1544.91 L532.017 1548.85 L512.109 1548.85 L512.109 1544.91 Z" fill="#000000" fill-rule="nonzero" fill-opacity="1" /><path clip-path="url(#clip960)" d="M1020.25 1517.37 Q1016.64 1517.37 1014.81 1520.93 Q1013.01 1524.47 1013.01 1531.6 Q1013.01 1538.71 1014.81 1542.27 Q1016.64 1545.82 1020.25 1545.82 Q1023.89 1545.82 1025.69 1542.27 Q1027.52 1538.71 1027.52 1531.6 Q1027.52 1524.47 1025.69 1520.93 Q1023.89 1517.37 1020.25 1517.37 M1020.25 1513.66 Q1026.06 1513.66 1029.12 1518.27 Q1032.2 1522.85 1032.2 1531.6 Q1032.2 1540.33 1029.12 1544.94 Q1026.06 1549.52 1020.25 1549.52 Q1014.44 1549.52 1011.36 1544.94 Q1008.31 1540.33 1008.31 1531.6 Q1008.31 1522.85 1011.36 1518.27 Q1014.44 1513.66 1020.25 1513.66 Z" fill="#000000" fill-rule="nonzero" fill-opacity="1" /><path clip-path="url(#clip960)" d="M1529.11 1544.91 L1536.75 1544.91 L1536.75 1518.55 L1528.44 1520.21 L1528.44 1515.95 L1536.71 1514.29 L1541.38 1514.29 L1541.38 1544.91 L1549.02 1544.91 L1549.02 1548.85 L1529.11 1548.85 L1529.11 1544.91 Z" fill="#000000" fill-rule="nonzero" fill-opacity="1" /><path clip-path="url(#clip960)" d="M2051.86 1544.91 L2068.18 1544.91 L2068.18 1548.85 L2046.24 1548.85 L2046.24 1544.91 Q2048.9 1542.16 2053.48 1537.53 Q2058.09 1532.88 2059.27 1531.53 Q2061.52 1529.01 2062.4 1527.27 Q2063.3 1525.51 2063.3 1523.82 Q2063.3 1521.07 2061.35 1519.33 Q2059.43 1517.6 2056.33 1517.6 Q2054.13 1517.6 2051.68 1518.36 Q2049.25 1519.13 2046.47 1520.68 L2046.47 1515.95 Q2049.29 1514.82 2051.75 1514.24 Q2054.2 1513.66 2056.24 1513.66 Q2061.61 1513.66 2064.8 1516.35 Q2068 1519.03 2068 1523.52 Q2068 1525.65 2067.19 1527.57 Q2066.4 1529.47 2064.29 1532.07 Q2063.72 1532.74 2060.61 1535.95 Q2057.51 1539.15 2051.86 1544.91 Z" fill="#000000" fill-rule="nonzero" fill-opacity="1" /><polyline clip-path="url(#clip960)" style="stroke:#000000; stroke-linecap:round; stroke-linejoin:round; stroke-width:4; stroke-opacity:1; fill:none" points="147.478,1486.45 147.478,47.2441 "/>
<polyline clip-path="url(#clip960)" style="stroke:#000000; stroke-linecap:round; stroke-linejoin:round; stroke-width:4; stroke-opacity:1; fill:none" points="147.478,1444.45 166.376,1444.45 "/>
<polyline clip-path="url(#clip960)" style="stroke:#000000; stroke-linecap:round; stroke-linejoin:round; stroke-width:4; stroke-opacity:1; fill:none" points="147.478,1079.12 166.376,1079.12 "/>
<polyline clip-path="url(#clip960)" style="stroke:#000000; stroke-linecap:round; stroke-linejoin:round; stroke-width:4; stroke-opacity:1; fill:none" points="147.478,713.795 166.376,713.795 "/>
<polyline clip-path="url(#clip960)" style="stroke:#000000; stroke-linecap:round; stroke-linejoin:round; stroke-width:4; stroke-opacity:1; fill:none" points="147.478,348.466 166.376,348.466 "/>
<path clip-path="url(#clip960)" d="M51.3625 1444.9 L81.0383 1444.9 L81.0383 1448.84 L51.3625 1448.84 L51.3625 1444.9 Z" fill="#000000" fill-rule="nonzero" fill-opacity="1" /><path clip-path="url(#clip960)" d="M95.1586 1457.8 L111.478 1457.8 L111.478 1461.73 L89.5336 1461.73 L89.5336 1457.8 Q92.1956 1455.04 96.7789 1450.41 Q101.385 1445.76 102.566 1444.42 Q104.811 1441.9 105.691 1440.16 Q106.594 1438.4 106.594 1436.71 Q106.594 1433.96 104.649 1432.22 Q102.728 1430.48 99.6261 1430.48 Q97.4271 1430.48 94.9734 1431.25 Q92.5428 1432.01 89.7651 1433.56 L89.7651 1428.84 Q92.5891 1427.71 95.0428 1427.13 Q97.4965 1426.55 99.5335 1426.55 Q104.904 1426.55 108.098 1429.23 Q111.293 1431.92 111.293 1436.41 Q111.293 1438.54 110.483 1440.46 Q109.696 1442.36 107.589 1444.95 Q107.01 1445.62 103.909 1448.84 Q100.807 1452.03 95.1586 1457.8 Z" fill="#000000" fill-rule="nonzero" fill-opacity="1" /><path clip-path="url(#clip960)" d="M50.9921 1079.58 L80.6679 1079.58 L80.6679 1083.51 L50.9921 1083.51 L50.9921 1079.58 Z" fill="#000000" fill-rule="nonzero" fill-opacity="1" /><path clip-path="url(#clip960)" d="M91.5706 1092.47 L99.2095 1092.47 L99.2095 1066.1 L90.8993 1067.77 L90.8993 1063.51 L99.1632 1061.84 L103.839 1061.84 L103.839 1092.47 L111.478 1092.47 L111.478 1096.4 L91.5706 1096.4 L91.5706 1092.47 Z" fill="#000000" fill-rule="nonzero" fill-opacity="1" /><path clip-path="url(#clip960)" d="M99.5335 699.594 Q95.9224 699.594 94.0937 703.158 Q92.2882 706.7 92.2882 713.83 Q92.2882 720.936 94.0937 724.501 Q95.9224 728.042 99.5335 728.042 Q103.168 728.042 104.973 724.501 Q106.802 720.936 106.802 713.83 Q106.802 706.7 104.973 703.158 Q103.168 699.594 99.5335 699.594 M99.5335 695.89 Q105.344 695.89 108.399 700.496 Q111.478 705.08 111.478 713.83 Q111.478 722.556 108.399 727.163 Q105.344 731.746 99.5335 731.746 Q93.7234 731.746 90.6447 727.163 Q87.5892 722.556 87.5892 713.83 Q87.5892 705.08 90.6447 700.496 Q93.7234 695.89 99.5335 695.89 Z" fill="#000000" fill-rule="nonzero" fill-opacity="1" /><path clip-path="url(#clip960)" d="M91.5706 361.811 L99.2095 361.811 L99.2095 335.445 L90.8993 337.112 L90.8993 332.852 L99.1632 331.186 L103.839 331.186 L103.839 361.811 L111.478 361.811 L111.478 365.746 L91.5706 365.746 L91.5706 361.811 Z" fill="#000000" fill-rule="nonzero" fill-opacity="1" /><circle clip-path="url(#clip962)" cx="920.243" cy="1445.72" r="14.4" fill="#009af9" fill-rule="evenodd" fill-opacity="0.5" stroke="#000000" stroke-opacity="0.5" stroke-width="3.2"/>
<circle clip-path="url(#clip962)" cx="1102.15" cy="920.495" r="14.4" fill="#009af9" fill-rule="evenodd" fill-opacity="0.5" stroke="#000000" stroke-opacity="0.5" stroke-width="3.2"/>
<circle clip-path="url(#clip962)" cx="1125.16" cy="193.882" r="14.4" fill="#009af9" fill-rule="evenodd" fill-opacity="0.5" stroke="#000000" stroke-opacity="0.5" stroke-width="3.2"/>
<circle clip-path="url(#clip962)" cx="1373.96" cy="1124.19" r="14.4" fill="#009af9" fill-rule="evenodd" fill-opacity="0.5" stroke="#000000" stroke-opacity="0.5" stroke-width="3.2"/>
<circle clip-path="url(#clip962)" cx="1771.03" cy="975.549" r="14.4" fill="#009af9" fill-rule="evenodd" fill-opacity="0.5" stroke="#000000" stroke-opacity="0.5" stroke-width="3.2"/>
<circle clip-path="url(#clip962)" cx="1055.38" cy="1051.37" r="14.4" fill="#009af9" fill-rule="evenodd" fill-opacity="0.5" stroke="#000000" stroke-opacity="0.5" stroke-width="3.2"/>
<circle clip-path="url(#clip962)" cx="490.969" cy="422.879" r="14.4" fill="#009af9" fill-rule="evenodd" fill-opacity="0.5" stroke="#000000" stroke-opacity="0.5" stroke-width="3.2"/>
<circle clip-path="url(#clip962)" cx="1351.64" cy="317.47" r="14.4" fill="#009af9" fill-rule="evenodd" fill-opacity="0.5" stroke="#000000" stroke-opacity="0.5" stroke-width="3.2"/>
<circle clip-path="url(#clip962)" cx="1751.93" cy="826.949" r="14.4" fill="#009af9" fill-rule="evenodd" fill-opacity="0.5" stroke="#000000" stroke-opacity="0.5" stroke-width="3.2"/>
<circle clip-path="url(#clip962)" cx="2290.34" cy="657.605" r="14.4" fill="#009af9" fill-rule="evenodd" fill-opacity="0.5" stroke="#000000" stroke-opacity="0.5" stroke-width="3.2"/>
<circle clip-path="url(#clip962)" cx="1139.84" cy="758.399" r="14.4" fill="#009af9" fill-rule="evenodd" fill-opacity="0.5" stroke="#000000" stroke-opacity="0.5" stroke-width="3.2"/>
<circle clip-path="url(#clip962)" cx="763.786" cy="714.451" r="14.4" fill="#009af9" fill-rule="evenodd" fill-opacity="0.5" stroke="#000000" stroke-opacity="0.5" stroke-width="3.2"/>
<circle clip-path="url(#clip962)" cx="649.81" cy="774.889" r="14.4" fill="#009af9" fill-rule="evenodd" fill-opacity="0.5" stroke="#000000" stroke-opacity="0.5" stroke-width="3.2"/>
<circle clip-path="url(#clip962)" cx="1408.14" cy="596.714" r="14.4" fill="#009af9" fill-rule="evenodd" fill-opacity="0.5" stroke="#000000" stroke-opacity="0.5" stroke-width="3.2"/>
<circle clip-path="url(#clip962)" cx="260.154" cy="620.061" r="14.4" fill="#009af9" fill-rule="evenodd" fill-opacity="0.5" stroke="#000000" stroke-opacity="0.5" stroke-width="3.2"/>
<circle clip-path="url(#clip962)" cx="1212.63" cy="184.558" r="14.4" fill="#009af9" fill-rule="evenodd" fill-opacity="0.5" stroke="#000000" stroke-opacity="0.5" stroke-width="3.2"/>
<circle clip-path="url(#clip962)" cx="1254.85" cy="87.9763" r="14.4" fill="#009af9" fill-rule="evenodd" fill-opacity="0.5" stroke="#000000" stroke-opacity="0.5" stroke-width="3.2"/>
<circle clip-path="url(#clip962)" cx="522.972" cy="257.116" r="14.4" fill="#009af9" fill-rule="evenodd" fill-opacity="0.5" stroke="#000000" stroke-opacity="0.5" stroke-width="3.2"/>
<circle clip-path="url(#clip962)" cx="287.899" cy="412.393" r="14.4" fill="#009af9" fill-rule="evenodd" fill-opacity="0.5" stroke="#000000" stroke-opacity="0.5" stroke-width="3.2"/>
<circle clip-path="url(#clip962)" cx="1360.81" cy="697.064" r="14.4" fill="#009af9" fill-rule="evenodd" fill-opacity="0.5" stroke="#000000" stroke-opacity="0.5" stroke-width="3.2"/>
<circle clip-path="url(#clip962)" cx="209.891" cy="1072.92" r="14.4" fill="#009af9" fill-rule="evenodd" fill-opacity="0.5" stroke="#000000" stroke-opacity="0.5" stroke-width="3.2"/>
<circle clip-path="url(#clip962)" cx="1075.15" cy="881.677" r="14.4" fill="#009af9" fill-rule="evenodd" fill-opacity="0.5" stroke="#000000" stroke-opacity="0.5" stroke-width="3.2"/>
<circle clip-path="url(#clip962)" cx="856.517" cy="567.668" r="14.4" fill="#009af9" fill-rule="evenodd" fill-opacity="0.5" stroke="#000000" stroke-opacity="0.5" stroke-width="3.2"/>
<circle clip-path="url(#clip962)" cx="1625.15" cy="976.72" r="14.4" fill="#009af9" fill-rule="evenodd" fill-opacity="0.5" stroke="#000000" stroke-opacity="0.5" stroke-width="3.2"/>
<circle clip-path="url(#clip962)" cx="1717.23" cy="356.144" r="14.4" fill="#009af9" fill-rule="evenodd" fill-opacity="0.5" stroke="#000000" stroke-opacity="0.5" stroke-width="3.2"/>
<circle clip-path="url(#clip962)" cx="1604.37" cy="925.006" r="14.4" fill="#009af9" fill-rule="evenodd" fill-opacity="0.5" stroke="#000000" stroke-opacity="0.5" stroke-width="3.2"/>
<circle clip-path="url(#clip962)" cx="888.719" cy="203.671" r="14.4" fill="#009af9" fill-rule="evenodd" fill-opacity="0.5" stroke="#000000" stroke-opacity="0.5" stroke-width="3.2"/>
<circle clip-path="url(#clip962)" cx="938.364" cy="730.482" r="14.4" fill="#009af9" fill-rule="evenodd" fill-opacity="0.5" stroke="#000000" stroke-opacity="0.5" stroke-width="3.2"/>
<circle clip-path="url(#clip962)" cx="1481.03" cy="722.659" r="14.4" fill="#009af9" fill-rule="evenodd" fill-opacity="0.5" stroke="#000000" stroke-opacity="0.5" stroke-width="3.2"/>
<circle clip-path="url(#clip962)" cx="947.178" cy="924.973" r="14.4" fill="#009af9" fill-rule="evenodd" fill-opacity="0.5" stroke="#000000" stroke-opacity="0.5" stroke-width="3.2"/>
<path clip-path="url(#clip962)" d="M209.891 1072.92 L920.243 1445.72 L1771.03 975.549 L2290.34 657.605 L1254.85 87.9763 L522.972 257.116 L287.899 412.393 L260.154 620.061 L209.891 1072.92 L209.891 1072.92  Z" fill="#e26f46" fill-rule="evenodd" fill-opacity="0.2"/>
<polyline clip-path="url(#clip962)" style="stroke:#000000; stroke-linecap:round; stroke-linejoin:round; stroke-width:4; stroke-opacity:0.2; fill:none" points="209.891,1072.92 920.243,1445.72 1771.03,975.549 2290.34,657.605 1254.85,87.9763 522.972,257.116 287.899,412.393 260.154,620.061 209.891,1072.92 "/>
</svg>
