<?xml version="1.0" encoding="utf-8"?>
<svg xmlns="http://www.w3.org/2000/svg" xmlns:xlink="http://www.w3.org/1999/xlink" width="600" height="400" viewBox="0 0 2400 1600">
<defs>
  <clipPath id="clip620">
    <rect x="0" y="0" width="2400" height="1600"/>
  </clipPath>
</defs>
<path clip-path="url(#clip620)" d="M0 1600 L2400 1600 L2400 0 L0 0  Z" fill="#ffffff" fill-rule="evenodd" fill-opacity="1"/>
<defs>
  <clipPath id="clip621">
    <rect x="480" y="0" width="1681" height="1600"/>
  </clipPath>
</defs>
<path clip-path="url(#clip620)" d="M147.478 1486.45 L2352.76 1486.45 L2352.76 47.2441 L147.478 47.2441  Z" fill="#ffffff" fill-rule="evenodd" fill-opacity="1"/>
<defs>
  <clipPath id="clip622">
    <rect x="147" y="47" width="2206" height="1440"/>
  </clipPath>
</defs>
<polyline clip-path="url(#clip622)" style="stroke:#000000; stroke-linecap:round; stroke-linejoin:round; stroke-width:2; stroke-opacity:0.1; fill:none" points="459.568,1486.45 459.568,47.2441 "/>
<polyline clip-path="url(#clip622)" style="stroke:#000000; stroke-linecap:round; stroke-linejoin:round; stroke-width:2; stroke-opacity:0.1; fill:none" points="943.754,1486.45 943.754,47.2441 "/>
<polyline clip-path="url(#clip622)" style="stroke:#000000; stroke-linecap:round; stroke-linejoin:round; stroke-width:2; stroke-opacity:0.1; fill:none" points="1427.94,1486.45 1427.94,47.2441 "/>
<polyline clip-path="url(#clip622)" style="stroke:#000000; stroke-linecap:round; stroke-linejoin:round; stroke-width:2; stroke-opacity:0.1; fill:none" points="1912.12,1486.45 1912.12,47.2441 "/>
<polyline clip-path="url(#clip622)" style="stroke:#000000; stroke-linecap:round; stroke-linejoin:round; stroke-width:2; stroke-opacity:0.1; fill:none" points="147.478,1286.87 2352.76,1286.87 "/>
<polyline clip-path="url(#clip622)" style="stroke:#000000; stroke-linecap:round; stroke-linejoin:round; stroke-width:2; stroke-opacity:0.1; fill:none" points="147.478,1003.01 2352.76,1003.01 "/>
<polyline clip-path="url(#clip622)" style="stroke:#000000; stroke-linecap:round; stroke-linejoin:round; stroke-width:2; stroke-opacity:0.1; fill:none" points="147.478,719.161 2352.76,719.161 "/>
<polyline clip-path="url(#clip622)" style="stroke:#000000; stroke-linecap:round; stroke-linejoin:round; stroke-width:2; stroke-opacity:0.1; fill:none" points="147.478,435.308 2352.76,435.308 "/>
<polyline clip-path="url(#clip622)" style="stroke:#000000; stroke-linecap:round; stroke-linejoin:round; stroke-width:2; stroke-opacity:0.1; fill:none" points="147.478,151.454 2352.76,151.454 "/>
<polyline clip-path="url(#clip620)" style="stroke:#000000; stroke-linecap:round; stroke-linejoin:round; stroke-width:4; stroke-opacity:1; fill:none" points="147.478,1486.45 2352.76,1486.45 "/>
<polyline clip-path="url(#clip620)" style="stroke:#000000; stroke-linecap:round; stroke-linejoin:round; stroke-width:4; stroke-opacity:1; fill:none" points="459.568,1486.45 459.568,1467.55 "/>
<polyline clip-path="url(#clip620)" style="stroke:#000000; stroke-linecap:round; stroke-linejoin:round; stroke-width:4; stroke-opacity:1; fill:none" points="943.754,1486.45 943.754,1467.55 "/>
<polyline clip-path="url(#clip620)" style="stroke:#000000; stroke-linecap:round; stroke-linejoin:round; stroke-width:4; stroke-opacity:1; fill:none" points="1427.94,1486.45 1427.94,1467.55 "/>
<polyline clip-path="url(#clip620)" style="stroke:#000000; stroke-linecap:round; stroke-linejoin:round; stroke-width:4; stroke-opacity:1; fill:none" points="1912.12,1486.45 1912.12,1467.55 "/>
<path clip-path="url(#clip620)" d="M429.51 1532.02 L459.186 1532.02 L459.186 1535.95 L429.51 1535.95 L429.51 1532.02 Z" fill="#000000" fill-rule="nonzero" fill-opacity="1" /><path clip-path="url(#clip620)" d="M473.306 1544.91 L489.626 1544.91 L489.626 1548.85 L467.681 1548.85 L467.681 1544.91 Q470.343 1542.16 474.927 1537.53 Q479.533 1532.88 480.714 1531.53 Q482.959 1529.01 483.838 1527.27 Q484.741 1525.51 484.741 1523.82 Q484.741 1521.07 482.797 1519.33 Q480.876 1517.6 477.774 1517.6 Q475.575 1517.6 473.121 1518.36 Q470.69 1519.13 467.913 1520.68 L467.913 1515.95 Q470.737 1514.82 473.19 1514.24 Q475.644 1513.66 477.681 1513.66 Q483.051 1513.66 486.246 1516.35 Q489.44 1519.03 489.44 1523.52 Q489.44 1525.65 488.63 1527.57 Q487.843 1529.47 485.737 1532.07 Q485.158 1532.74 482.056 1535.95 Q478.954 1539.15 473.306 1544.91 Z" fill="#000000" fill-rule="nonzero" fill-opacity="1" /><path clip-path="url(#clip620)" d="M913.511 1532.02 L943.186 1532.02 L943.186 1535.95 L913.511 1535.95 L913.511 1532.02 Z" fill="#000000" fill-rule="nonzero" fill-opacity="1" /><path clip-path="url(#clip620)" d="M954.089 1544.91 L961.728 1544.91 L961.728 1518.55 L953.418 1520.21 L953.418 1515.95 L961.682 1514.29 L966.358 1514.29 L966.358 1544.91 L973.996 1544.91 L973.996 1548.85 L954.089 1548.85 L954.089 1544.91 Z" fill="#000000" fill-rule="nonzero" fill-opacity="1" /><path clip-path="url(#clip620)" d="M1427.94 1517.37 Q1424.33 1517.37 1422.5 1520.93 Q1420.69 1524.47 1420.69 1531.6 Q1420.69 1538.71 1422.5 1542.27 Q1424.33 1545.82 1427.94 1545.82 Q1431.57 1545.82 1433.38 1542.27 Q1435.21 1538.71 1435.21 1531.6 Q1435.21 1524.47 1433.38 1520.93 Q1431.57 1517.37 1427.94 1517.37 M1427.94 1513.66 Q1433.75 1513.66 1436.8 1518.27 Q1439.88 1522.85 1439.88 1531.6 Q1439.88 1540.33 1436.8 1544.94 Q1433.75 1549.52 1427.94 1549.52 Q1422.13 1549.52 1419.05 1544.94 Q1415.99 1540.33 1415.99 1531.6 Q1415.99 1522.85 1419.05 1518.27 Q1422.13 1513.66 1427.94 1513.66 Z" fill="#000000" fill-rule="nonzero" fill-opacity="1" /><path clip-path="url(#clip620)" d="M1902.51 1544.91 L1910.15 1544.91 L1910.15 1518.55 L1901.84 1520.21 L1901.84 1515.95 L1910.1 1514.29 L1914.78 1514.29 L1914.78 1544.91 L1922.41 1544.91 L1922.41 1548.85 L1902.51 1548.85 L1902.51 1544.91 Z" fill="#000000" fill-rule="nonzero" fill-opacity="1" /><polyline clip-path="url(#clip620)" style="stroke:#000000; stroke-linecap:round; stroke-linejoin:round; stroke-width:4; stroke-opacity:1; fill:none" points="147.478,1486.45 147.478,47.2441 "/>
<polyline clip-path="url(#clip620)" style="stroke:#000000; stroke-linecap:round; stroke-linejoin:round; stroke-width:4; stroke-opacity:1; fill:none" points="147.478,1286.87 166.376,1286.87 "/>
<polyline clip-path="url(#clip620)" style="stroke:#000000; stroke-linecap:round; stroke-linejoin:round; stroke-width:4; stroke-opacity:1; fill:none" points="147.478,1003.01 166.376,1003.01 "/>
<polyline clip-path="url(#clip620)" style="stroke:#000000; stroke-linecap:round; stroke-linejoin:round; stroke-width:4; stroke-opacity:1; fill:none" points="147.478,719.161 166.376,719.161 "/>
<polyline clip-path="url(#clip620)" style="stroke:#000000; stroke-linecap:round; stroke-linejoin:round; stroke-width:4; stroke-opacity:1; fill:none" points="147.478,435.308 166.376,435.308 "/>
<polyline clip-path="url(#clip620)" style="stroke:#000000; stroke-linecap:round; stroke-linejoin:round; stroke-width:4; stroke-opacity:1; fill:none" points="147.478,151.454 166.376,151.454 "/>
<path clip-path="url(#clip620)" d="M50.9921 1287.32 L80.6679 1287.32 L80.6679 1291.25 L50.9921 1291.25 L50.9921 1287.32 Z" fill="#000000" fill-rule="nonzero" fill-opacity="1" /><path clip-path="url(#clip620)" d="M91.5706 1300.21 L99.2095 1300.21 L99.2095 1273.85 L90.8993 1275.51 L90.8993 1271.25 L99.1632 1269.59 L103.839 1269.59 L103.839 1300.21 L111.478 1300.21 L111.478 1304.15 L91.5706 1304.15 L91.5706 1300.21 Z" fill="#000000" fill-rule="nonzero" fill-opacity="1" /><path clip-path="url(#clip620)" d="M99.5335 988.813 Q95.9224 988.813 94.0937 992.378 Q92.2882 995.92 92.2882 1003.05 Q92.2882 1010.16 94.0937 1013.72 Q95.9224 1017.26 99.5335 1017.26 Q103.168 1017.26 104.973 1013.72 Q106.802 1010.16 106.802 1003.05 Q106.802 995.92 104.973 992.378 Q103.168 988.813 99.5335 988.813 M99.5335 985.11 Q105.344 985.11 108.399 989.716 Q111.478 994.299 111.478 1003.05 Q111.478 1011.78 108.399 1016.38 Q105.344 1020.97 99.5335 1020.97 Q93.7234 1020.97 90.6447 1016.38 Q87.5892 1011.78 87.5892 1003.05 Q87.5892 994.299 90.6447 989.716 Q93.7234 985.11 99.5335 985.11 Z" fill="#000000" fill-rule="nonzero" fill-opacity="1" /><path clip-path="url(#clip620)" d="M91.5706 732.506 L99.2095 732.506 L99.2095 706.14 L90.8993 707.807 L90.8993 703.548 L99.1632 701.881 L103.839 701.881 L103.839 732.506 L111.478 732.506 L111.478 736.441 L91.5706 736.441 L91.5706 732.506 Z" fill="#000000" fill-rule="nonzero" fill-opacity="1" /><path clip-path="url(#clip620)" d="M95.1586 448.652 L111.478 448.652 L111.478 452.588 L89.5336 452.588 L89.5336 448.652 Q92.1956 445.898 96.7789 441.268 Q101.385 436.615 102.566 435.273 Q104.811 432.75 105.691 431.014 Q106.594 429.254 106.594 427.565 Q106.594 424.81 104.649 423.074 Q102.728 421.338 99.6261 421.338 Q97.4271 421.338 94.9734 422.102 Q92.5428 422.865 89.7651 424.416 L89.7651 419.694 Q92.5891 418.56 95.0428 417.981 Q97.4965 417.403 99.5335 417.403 Q104.904 417.403 108.098 420.088 Q111.293 422.773 111.293 427.264 Q111.293 429.393 110.483 431.315 Q109.696 433.213 107.589 435.805 Q107.01 436.477 103.909 439.694 Q100.807 442.889 95.1586 448.652 Z" fill="#000000" fill-rule="nonzero" fill-opacity="1" /><path clip-path="url(#clip620)" d="M104.348 150.1 Q107.705 150.817 109.58 153.086 Q111.478 155.354 111.478 158.688 Q111.478 163.804 107.959 166.604 Q104.441 169.405 97.9595 169.405 Q95.7836 169.405 93.4688 168.966 Q91.1771 168.549 88.7234 167.692 L88.7234 163.179 Q90.6678 164.313 92.9826 164.891 Q95.2974 165.47 97.8206 165.47 Q102.219 165.47 104.51 163.734 Q106.825 161.998 106.825 158.688 Q106.825 155.632 104.672 153.919 Q102.543 152.183 98.7234 152.183 L94.6956 152.183 L94.6956 148.341 L98.9085 148.341 Q102.358 148.341 104.186 146.975 Q106.015 145.586 106.015 142.993 Q106.015 140.331 104.117 138.919 Q102.242 137.484 98.7234 137.484 Q96.8021 137.484 94.603 137.901 Q92.4039 138.318 89.7651 139.197 L89.7651 135.031 Q92.4271 134.29 94.7419 133.919 Q97.0798 133.549 99.14 133.549 Q104.464 133.549 107.566 135.98 Q110.668 138.387 110.668 142.507 Q110.668 145.378 109.024 147.368 Q107.381 149.336 104.348 150.1 Z" fill="#000000" fill-rule="nonzero" fill-opacity="1" /><circle clip-path="url(#clip622)" cx="1104.77" cy="1202" r="14.4" fill="#009af9" fill-rule="evenodd" fill-opacity="0.5" stroke="#000000" stroke-opacity="0.5" stroke-width="3.2"/>
<circle clip-path="url(#clip622)" cx="1679.64" cy="87.9763" r="14.4" fill="#009af9" fill-rule="evenodd" fill-opacity="0.5" stroke="#000000" stroke-opacity="0.5" stroke-width="3.2"/>
<circle clip-path="url(#clip622)" cx="1574" cy="889.054" r="14.4" fill="#009af9" fill-rule="evenodd" fill-opacity="0.5" stroke="#000000" stroke-opacity="0.5" stroke-width="3.2"/>
<circle clip-path="url(#clip622)" cx="2290.34" cy="932.379" r="14.4" fill="#009af9" fill-rule="evenodd" fill-opacity="0.5" stroke="#000000" stroke-opacity="0.5" stroke-width="3.2"/>
<circle clip-path="url(#clip622)" cx="1222.06" cy="1077.08" r="14.4" fill="#009af9" fill-rule="evenodd" fill-opacity="0.5" stroke="#000000" stroke-opacity="0.5" stroke-width="3.2"/>
<circle clip-path="url(#clip622)" cx="1093.52" cy="462.399" r="14.4" fill="#009af9" fill-rule="evenodd" fill-opacity="0.5" stroke="#000000" stroke-opacity="0.5" stroke-width="3.2"/>
<circle clip-path="url(#clip622)" cx="1838.84" cy="1133.22" r="14.4" fill="#009af9" fill-rule="evenodd" fill-opacity="0.5" stroke="#000000" stroke-opacity="0.5" stroke-width="3.2"/>
<circle clip-path="url(#clip622)" cx="209.891" cy="905.346" r="14.4" fill="#009af9" fill-rule="evenodd" fill-opacity="0.5" stroke="#000000" stroke-opacity="0.5" stroke-width="3.2"/>
<circle clip-path="url(#clip622)" cx="1334.75" cy="574.803" r="14.4" fill="#009af9" fill-rule="evenodd" fill-opacity="0.5" stroke="#000000" stroke-opacity="0.5" stroke-width="3.2"/>
<circle clip-path="url(#clip622)" cx="1494.74" cy="819.013" r="14.4" fill="#009af9" fill-rule="evenodd" fill-opacity="0.5" stroke="#000000" stroke-opacity="0.5" stroke-width="3.2"/>
<circle clip-path="url(#clip622)" cx="2065.14" cy="1213.07" r="14.4" fill="#009af9" fill-rule="evenodd" fill-opacity="0.5" stroke="#000000" stroke-opacity="0.5" stroke-width="3.2"/>
<circle clip-path="url(#clip622)" cx="1547.84" cy="1291.24" r="14.4" fill="#009af9" fill-rule="evenodd" fill-opacity="0.5" stroke="#000000" stroke-opacity="0.5" stroke-width="3.2"/>
<circle clip-path="url(#clip622)" cx="2001.1" cy="552.335" r="14.4" fill="#009af9" fill-rule="evenodd" fill-opacity="0.5" stroke="#000000" stroke-opacity="0.5" stroke-width="3.2"/>
<circle clip-path="url(#clip622)" cx="1384.25" cy="820.601" r="14.4" fill="#009af9" fill-rule="evenodd" fill-opacity="0.5" stroke="#000000" stroke-opacity="0.5" stroke-width="3.2"/>
<circle clip-path="url(#clip622)" cx="955.707" cy="1445.72" r="14.4" fill="#009af9" fill-rule="evenodd" fill-opacity="0.5" stroke="#000000" stroke-opacity="0.5" stroke-width="3.2"/>
<circle clip-path="url(#clip622)" cx="1648.36" cy="1339.16" r="14.4" fill="#009af9" fill-rule="evenodd" fill-opacity="0.5" stroke="#000000" stroke-opacity="0.5" stroke-width="3.2"/>
<circle clip-path="url(#clip622)" cx="1752.67" cy="674.428" r="14.4" fill="#009af9" fill-rule="evenodd" fill-opacity="0.5" stroke="#000000" stroke-opacity="0.5" stroke-width="3.2"/>
<circle clip-path="url(#clip622)" cx="1941.86" cy="1359.46" r="14.4" fill="#009af9" fill-rule="evenodd" fill-opacity="0.5" stroke="#000000" stroke-opacity="0.5" stroke-width="3.2"/>
<circle clip-path="url(#clip622)" cx="1158.28" cy="347.917" r="14.4" fill="#009af9" fill-rule="evenodd" fill-opacity="0.5" stroke="#000000" stroke-opacity="0.5" stroke-width="3.2"/>
<circle clip-path="url(#clip622)" cx="1016.7" cy="1059.4" r="14.4" fill="#009af9" fill-rule="evenodd" fill-opacity="0.5" stroke="#000000" stroke-opacity="0.5" stroke-width="3.2"/>
<circle clip-path="url(#clip622)" cx="1574.84" cy="1297.46" r="14.4" fill="#009af9" fill-rule="evenodd" fill-opacity="0.5" stroke="#000000" stroke-opacity="0.5" stroke-width="3.2"/>
<circle clip-path="url(#clip622)" cx="1165.46" cy="1160.39" r="14.4" fill="#009af9" fill-rule="evenodd" fill-opacity="0.5" stroke="#000000" stroke-opacity="0.5" stroke-width="3.2"/>
<circle clip-path="url(#clip622)" cx="1600.2" cy="1164.98" r="14.4" fill="#009af9" fill-rule="evenodd" fill-opacity="0.5" stroke="#000000" stroke-opacity="0.5" stroke-width="3.2"/>
<circle clip-path="url(#clip622)" cx="1593.68" cy="910.392" r="14.4" fill="#009af9" fill-rule="evenodd" fill-opacity="0.5" stroke="#000000" stroke-opacity="0.5" stroke-width="3.2"/>
<circle clip-path="url(#clip622)" cx="1619.55" cy="410.127" r="14.4" fill="#009af9" fill-rule="evenodd" fill-opacity="0.5" stroke="#000000" stroke-opacity="0.5" stroke-width="3.2"/>
<circle clip-path="url(#clip622)" cx="1327.02" cy="954.493" r="14.4" fill="#009af9" fill-rule="evenodd" fill-opacity="0.5" stroke="#000000" stroke-opacity="0.5" stroke-width="3.2"/>
<circle clip-path="url(#clip622)" cx="885.046" cy="912.064" r="14.4" fill="#009af9" fill-rule="evenodd" fill-opacity="0.5" stroke="#000000" stroke-opacity="0.5" stroke-width="3.2"/>
<circle clip-path="url(#clip622)" cx="1817.47" cy="1374.43" r="14.4" fill="#009af9" fill-rule="evenodd" fill-opacity="0.5" stroke="#000000" stroke-opacity="0.5" stroke-width="3.2"/>
<circle clip-path="url(#clip622)" cx="1914.89" cy="409.18" r="14.4" fill="#009af9" fill-rule="evenodd" fill-opacity="0.5" stroke="#000000" stroke-opacity="0.5" stroke-width="3.2"/>
<circle clip-path="url(#clip622)" cx="594.849" cy="860.646" r="14.4" fill="#009af9" fill-rule="evenodd" fill-opacity="0.5" stroke="#000000" stroke-opacity="0.5" stroke-width="3.2"/>
<path clip-path="url(#clip622)" d="M209.891 905.346 L955.707 1445.72 L1817.47 1374.43 L1941.86 1359.46 L2065.14 1213.07 L2290.34 932.379 L1914.89 409.18 L1679.64 87.9763 L1158.28 347.917 L209.891 905.346 L209.891 905.346  Z" fill="#e26f46" fill-rule="evenodd" fill-opacity="0.2"/>
<polyline clip-path="url(#clip622)" style="stroke:#000000; stroke-linecap:round; stroke-linejoin:round; stroke-width:4; stroke-opacity:0.2; fill:none" points="209.891,905.346 955.707,1445.72 1817.47,1374.43 1941.86,1359.46 2065.14,1213.07 2290.34,932.379 1914.89,409.18 1679.64,87.9763 1158.28,347.917 209.891,905.346 "/>
</svg>
