<?xml version="1.0" encoding="utf-8"?>
<svg xmlns="http://www.w3.org/2000/svg" xmlns:xlink="http://www.w3.org/1999/xlink" width="600" height="400" viewBox="0 0 2400 1600">
<defs>
  <clipPath id="clip390">
    <rect x="0" y="0" width="2400" height="1600"/>
  </clipPath>
</defs>
<path clip-path="url(#clip390)" d="M0 1600 L2400 1600 L2400 0 L0 0  Z" fill="#ffffff" fill-rule="evenodd" fill-opacity="1"/>
<defs>
  <clipPath id="clip391">
    <rect x="480" y="0" width="1681" height="1600"/>
  </clipPath>
</defs>
<path clip-path="url(#clip390)" d="M147.478 1486.45 L2352.76 1486.45 L2352.76 47.2441 L147.478 47.2441  Z" fill="#ffffff" fill-rule="evenodd" fill-opacity="1"/>
<defs>
  <clipPath id="clip392">
    <rect x="147" y="47" width="2206" height="1440"/>
  </clipPath>
</defs>
<polyline clip-path="url(#clip392)" style="stroke:#000000; stroke-linecap:round; stroke-linejoin:round; stroke-width:2; stroke-opacity:0.1; fill:none" points="306.064,1486.45 306.064,47.2441 "/>
<polyline clip-path="url(#clip392)" style="stroke:#000000; stroke-linecap:round; stroke-linejoin:round; stroke-width:2; stroke-opacity:0.1; fill:none" points="700.09,1486.45 700.09,47.2441 "/>
<polyline clip-path="url(#clip392)" style="stroke:#000000; stroke-linecap:round; stroke-linejoin:round; stroke-width:2; stroke-opacity:0.1; fill:none" points="1094.11,1486.45 1094.11,47.2441 "/>
<polyline clip-path="url(#clip392)" style="stroke:#000000; stroke-linecap:round; stroke-linejoin:round; stroke-width:2; stroke-opacity:0.1; fill:none" points="1488.14,1486.45 1488.14,47.2441 "/>
<polyline clip-path="url(#clip392)" style="stroke:#000000; stroke-linecap:round; stroke-linejoin:round; stroke-width:2; stroke-opacity:0.1; fill:none" points="1882.17,1486.45 1882.17,47.2441 "/>
<polyline clip-path="url(#clip392)" style="stroke:#000000; stroke-linecap:round; stroke-linejoin:round; stroke-width:2; stroke-opacity:0.1; fill:none" points="2276.19,1486.45 2276.19,47.2441 "/>
<polyline clip-path="url(#clip392)" style="stroke:#000000; stroke-linecap:round; stroke-linejoin:round; stroke-width:2; stroke-opacity:0.1; fill:none" points="147.478,1204.39 2352.76,1204.39 "/>
<polyline clip-path="url(#clip392)" style="stroke:#000000; stroke-linecap:round; stroke-linejoin:round; stroke-width:2; stroke-opacity:0.1; fill:none" points="147.478,821.644 2352.76,821.644 "/>
<polyline clip-path="url(#clip392)" style="stroke:#000000; stroke-linecap:round; stroke-linejoin:round; stroke-width:2; stroke-opacity:0.1; fill:none" points="147.478,438.899 2352.76,438.899 "/>
<polyline clip-path="url(#clip392)" style="stroke:#000000; stroke-linecap:round; stroke-linejoin:round; stroke-width:2; stroke-opacity:0.1; fill:none" points="147.478,56.154 2352.76,56.154 "/>
<polyline clip-path="url(#clip390)" style="stroke:#000000; stroke-linecap:round; stroke-linejoin:round; stroke-width:4; stroke-opacity:1; fill:none" points="147.478,1486.45 2352.76,1486.45 "/>
<polyline clip-path="url(#clip390)" style="stroke:#000000; stroke-linecap:round; stroke-linejoin:round; stroke-width:4; stroke-opacity:1; fill:none" points="306.064,1486.45 306.064,1467.55 "/>
<polyline clip-path="url(#clip390)" style="stroke:#000000; stroke-linecap:round; stroke-linejoin:round; stroke-width:4; stroke-opacity:1; fill:none" points="700.09,1486.45 700.09,1467.55 "/>
<polyline clip-path="url(#clip390)" style="stroke:#000000; stroke-linecap:round; stroke-linejoin:round; stroke-width:4; stroke-opacity:1; fill:none" points="1094.11,1486.45 1094.11,1467.55 "/>
<polyline clip-path="url(#clip390)" style="stroke:#000000; stroke-linecap:round; stroke-linejoin:round; stroke-width:4; stroke-opacity:1; fill:none" points="1488.14,1486.45 1488.14,1467.55 "/>
<polyline clip-path="url(#clip390)" style="stroke:#000000; stroke-linecap:round; stroke-linejoin:round; stroke-width:4; stroke-opacity:1; fill:none" points="1882.17,1486.45 1882.17,1467.55 "/>
<polyline clip-path="url(#clip390)" style="stroke:#000000; stroke-linecap:round; stroke-linejoin:round; stroke-width:4; stroke-opacity:1; fill:none" points="2276.19,1486.45 2276.19,1467.55 "/>
<path clip-path="url(#clip390)" d="M252.592 1532.02 L282.268 1532.02 L282.268 1535.95 L252.592 1535.95 L252.592 1532.02 Z" fill="#000000" fill-rule="nonzero" fill-opacity="1" /><path clip-path="url(#clip390)" d="M293.171 1544.91 L300.81 1544.91 L300.81 1518.55 L292.499 1520.21 L292.499 1515.95 L300.763 1514.29 L305.439 1514.29 L305.439 1544.91 L313.078 1544.91 L313.078 1548.85 L293.171 1548.85 L293.171 1544.91 Z" fill="#000000" fill-rule="nonzero" fill-opacity="1" /><path clip-path="url(#clip390)" d="M322.522 1542.97 L327.407 1542.97 L327.407 1548.85 L322.522 1548.85 L322.522 1542.97 Z" fill="#000000" fill-rule="nonzero" fill-opacity="1" /><path clip-path="url(#clip390)" d="M347.592 1517.37 Q343.981 1517.37 342.152 1520.93 Q340.346 1524.47 340.346 1531.6 Q340.346 1538.71 342.152 1542.27 Q343.981 1545.82 347.592 1545.82 Q351.226 1545.82 353.032 1542.27 Q354.86 1538.71 354.86 1531.6 Q354.86 1524.47 353.032 1520.93 Q351.226 1517.37 347.592 1517.37 M347.592 1513.66 Q353.402 1513.66 356.457 1518.27 Q359.536 1522.85 359.536 1531.6 Q359.536 1540.33 356.457 1544.94 Q353.402 1549.52 347.592 1549.52 Q341.782 1549.52 338.703 1544.94 Q335.647 1540.33 335.647 1531.6 Q335.647 1522.85 338.703 1518.27 Q341.782 1513.66 347.592 1513.66 Z" fill="#000000" fill-rule="nonzero" fill-opacity="1" /><path clip-path="url(#clip390)" d="M647.115 1532.02 L676.791 1532.02 L676.791 1535.95 L647.115 1535.95 L647.115 1532.02 Z" fill="#000000" fill-rule="nonzero" fill-opacity="1" /><path clip-path="url(#clip390)" d="M696.884 1517.37 Q693.272 1517.37 691.444 1520.93 Q689.638 1524.47 689.638 1531.6 Q689.638 1538.71 691.444 1542.27 Q693.272 1545.82 696.884 1545.82 Q700.518 1545.82 702.323 1542.27 Q704.152 1538.71 704.152 1531.6 Q704.152 1524.47 702.323 1520.93 Q700.518 1517.37 696.884 1517.37 M696.884 1513.66 Q702.694 1513.66 705.749 1518.27 Q708.828 1522.85 708.828 1531.6 Q708.828 1540.33 705.749 1544.94 Q702.694 1549.52 696.884 1549.52 Q691.073 1549.52 687.995 1544.94 Q684.939 1540.33 684.939 1531.6 Q684.939 1522.85 687.995 1518.27 Q691.073 1513.66 696.884 1513.66 Z" fill="#000000" fill-rule="nonzero" fill-opacity="1" /><path clip-path="url(#clip390)" d="M717.045 1542.97 L721.93 1542.97 L721.93 1548.85 L717.045 1548.85 L717.045 1542.97 Z" fill="#000000" fill-rule="nonzero" fill-opacity="1" /><path clip-path="url(#clip390)" d="M732.161 1514.29 L750.518 1514.29 L750.518 1518.22 L736.444 1518.22 L736.444 1526.7 Q737.462 1526.35 738.481 1526.19 Q739.499 1526 740.518 1526 Q746.305 1526 749.684 1529.17 Q753.064 1532.34 753.064 1537.76 Q753.064 1543.34 749.592 1546.44 Q746.119 1549.52 739.8 1549.52 Q737.624 1549.52 735.356 1549.15 Q733.11 1548.78 730.703 1548.04 L730.703 1543.34 Q732.786 1544.47 735.008 1545.03 Q737.231 1545.58 739.707 1545.58 Q743.712 1545.58 746.05 1543.48 Q748.388 1541.37 748.388 1537.76 Q748.388 1534.15 746.05 1532.04 Q743.712 1529.94 739.707 1529.94 Q737.832 1529.94 735.957 1530.35 Q734.106 1530.77 732.161 1531.65 L732.161 1514.29 Z" fill="#000000" fill-rule="nonzero" fill-opacity="1" /><path clip-path="url(#clip390)" d="M1071.5 1517.37 Q1067.89 1517.37 1066.06 1520.93 Q1064.25 1524.47 1064.25 1531.6 Q1064.25 1538.71 1066.06 1542.27 Q1067.89 1545.82 1071.5 1545.82 Q1075.13 1545.82 1076.94 1542.27 Q1078.77 1538.71 1078.77 1531.6 Q1078.77 1524.47 1076.94 1520.93 Q1075.13 1517.37 1071.5 1517.37 M1071.5 1513.66 Q1077.31 1513.66 1080.36 1518.27 Q1083.44 1522.85 1083.44 1531.6 Q1083.44 1540.33 1080.36 1544.94 Q1077.31 1549.52 1071.5 1549.52 Q1065.69 1549.52 1062.61 1544.94 Q1059.55 1540.33 1059.55 1531.6 Q1059.55 1522.85 1062.61 1518.27 Q1065.69 1513.66 1071.5 1513.66 Z" fill="#000000" fill-rule="nonzero" fill-opacity="1" /><path clip-path="url(#clip390)" d="M1091.66 1542.97 L1096.55 1542.97 L1096.55 1548.85 L1091.66 1548.85 L1091.66 1542.97 Z" fill="#000000" fill-rule="nonzero" fill-opacity="1" /><path clip-path="url(#clip390)" d="M1116.73 1517.37 Q1113.12 1517.37 1111.29 1520.93 Q1109.49 1524.47 1109.49 1531.6 Q1109.49 1538.71 1111.29 1542.27 Q1113.12 1545.82 1116.73 1545.82 Q1120.36 1545.82 1122.17 1542.27 Q1124 1538.71 1124 1531.6 Q1124 1524.47 1122.17 1520.93 Q1120.36 1517.37 1116.73 1517.37 M1116.73 1513.66 Q1122.54 1513.66 1125.6 1518.27 Q1128.67 1522.85 1128.67 1531.6 Q1128.67 1540.33 1125.6 1544.94 Q1122.54 1549.52 1116.73 1549.52 Q1110.92 1549.52 1107.84 1544.94 Q1104.79 1540.33 1104.79 1531.6 Q1104.79 1522.85 1107.84 1518.27 Q1110.92 1513.66 1116.73 1513.66 Z" fill="#000000" fill-rule="nonzero" fill-opacity="1" /><path clip-path="url(#clip390)" d="M1466.02 1517.37 Q1462.41 1517.37 1460.58 1520.93 Q1458.78 1524.47 1458.78 1531.6 Q1458.78 1538.71 1460.58 1542.27 Q1462.41 1545.82 1466.02 1545.82 Q1469.66 1545.82 1471.46 1542.27 Q1473.29 1538.71 1473.29 1531.6 Q1473.29 1524.47 1471.46 1520.93 Q1469.66 1517.37 1466.02 1517.37 M1466.02 1513.66 Q1471.83 1513.66 1474.89 1518.27 Q1477.97 1522.85 1477.97 1531.6 Q1477.97 1540.33 1474.89 1544.94 Q1471.83 1549.52 1466.02 1549.52 Q1460.21 1549.52 1457.13 1544.94 Q1454.08 1540.33 1454.08 1531.6 Q1454.08 1522.85 1457.13 1518.27 Q1460.21 1513.66 1466.02 1513.66 Z" fill="#000000" fill-rule="nonzero" fill-opacity="1" /><path clip-path="url(#clip390)" d="M1486.18 1542.97 L1491.07 1542.97 L1491.07 1548.85 L1486.18 1548.85 L1486.18 1542.97 Z" fill="#000000" fill-rule="nonzero" fill-opacity="1" /><path clip-path="url(#clip390)" d="M1501.3 1514.29 L1519.66 1514.29 L1519.66 1518.22 L1505.58 1518.22 L1505.58 1526.7 Q1506.6 1526.35 1507.62 1526.19 Q1508.64 1526 1509.66 1526 Q1515.44 1526 1518.82 1529.17 Q1522.2 1532.34 1522.2 1537.76 Q1522.2 1543.34 1518.73 1546.44 Q1515.26 1549.52 1508.94 1549.52 Q1506.76 1549.52 1504.49 1549.15 Q1502.25 1548.78 1499.84 1548.04 L1499.84 1543.34 Q1501.92 1544.47 1504.15 1545.03 Q1506.37 1545.58 1508.85 1545.58 Q1512.85 1545.58 1515.19 1543.48 Q1517.53 1541.37 1517.53 1537.76 Q1517.53 1534.15 1515.19 1532.04 Q1512.85 1529.94 1508.85 1529.94 Q1506.97 1529.94 1505.1 1530.35 Q1503.24 1530.77 1501.3 1531.65 L1501.3 1514.29 Z" fill="#000000" fill-rule="nonzero" fill-opacity="1" /><path clip-path="url(#clip390)" d="M1849.32 1544.91 L1856.96 1544.91 L1856.96 1518.55 L1848.65 1520.21 L1848.65 1515.95 L1856.91 1514.29 L1861.59 1514.29 L1861.59 1544.91 L1869.23 1544.91 L1869.23 1548.85 L1849.32 1548.85 L1849.32 1544.91 Z" fill="#000000" fill-rule="nonzero" fill-opacity="1" /><path clip-path="url(#clip390)" d="M1878.67 1542.97 L1883.55 1542.97 L1883.55 1548.85 L1878.67 1548.85 L1878.67 1542.97 Z" fill="#000000" fill-rule="nonzero" fill-opacity="1" /><path clip-path="url(#clip390)" d="M1903.74 1517.37 Q1900.13 1517.37 1898.3 1520.93 Q1896.49 1524.47 1896.49 1531.6 Q1896.49 1538.71 1898.3 1542.27 Q1900.13 1545.82 1903.74 1545.82 Q1907.37 1545.82 1909.18 1542.27 Q1911.01 1538.71 1911.01 1531.6 Q1911.01 1524.47 1909.18 1520.93 Q1907.37 1517.37 1903.74 1517.37 M1903.74 1513.66 Q1909.55 1513.66 1912.61 1518.27 Q1915.68 1522.85 1915.68 1531.6 Q1915.68 1540.33 1912.61 1544.94 Q1909.55 1549.52 1903.74 1549.52 Q1897.93 1549.52 1894.85 1544.94 Q1891.8 1540.33 1891.8 1531.6 Q1891.8 1522.85 1894.85 1518.27 Q1897.93 1513.66 1903.74 1513.66 Z" fill="#000000" fill-rule="nonzero" fill-opacity="1" /><path clip-path="url(#clip390)" d="M2243.84 1544.91 L2251.48 1544.91 L2251.48 1518.55 L2243.17 1520.21 L2243.17 1515.95 L2251.43 1514.29 L2256.11 1514.29 L2256.11 1544.91 L2263.75 1544.91 L2263.75 1548.85 L2243.84 1548.85 L2243.84 1544.91 Z" fill="#000000" fill-rule="nonzero" fill-opacity="1" /><path clip-path="url(#clip390)" d="M2273.19 1542.97 L2278.08 1542.97 L2278.08 1548.85 L2273.19 1548.85 L2273.19 1542.97 Z" fill="#000000" fill-rule="nonzero" fill-opacity="1" /><path clip-path="url(#clip390)" d="M2288.31 1514.29 L2306.67 1514.29 L2306.67 1518.22 L2292.59 1518.22 L2292.59 1526.7 Q2293.61 1526.35 2294.63 1526.19 Q2295.65 1526 2296.67 1526 Q2302.45 1526 2305.83 1529.17 Q2309.21 1532.34 2309.21 1537.76 Q2309.21 1543.34 2305.74 1546.44 Q2302.27 1549.52 2295.95 1549.52 Q2293.77 1549.52 2291.5 1549.15 Q2289.26 1548.78 2286.85 1548.04 L2286.85 1543.34 Q2288.93 1544.47 2291.16 1545.03 Q2293.38 1545.58 2295.86 1545.58 Q2299.86 1545.58 2302.2 1543.48 Q2304.54 1541.37 2304.54 1537.76 Q2304.54 1534.15 2302.2 1532.04 Q2299.86 1529.94 2295.86 1529.94 Q2293.98 1529.94 2292.11 1530.35 Q2290.25 1530.77 2288.31 1531.65 L2288.31 1514.29 Z" fill="#000000" fill-rule="nonzero" fill-opacity="1" /><polyline clip-path="url(#clip390)" style="stroke:#000000; stroke-linecap:round; stroke-linejoin:round; stroke-width:4; stroke-opacity:1; fill:none" points="147.478,1486.45 147.478,47.2441 "/>
<polyline clip-path="url(#clip390)" style="stroke:#000000; stroke-linecap:round; stroke-linejoin:round; stroke-width:4; stroke-opacity:1; fill:none" points="147.478,1204.39 166.376,1204.39 "/>
<polyline clip-path="url(#clip390)" style="stroke:#000000; stroke-linecap:round; stroke-linejoin:round; stroke-width:4; stroke-opacity:1; fill:none" points="147.478,821.644 166.376,821.644 "/>
<polyline clip-path="url(#clip390)" style="stroke:#000000; stroke-linecap:round; stroke-linejoin:round; stroke-width:4; stroke-opacity:1; fill:none" points="147.478,438.899 166.376,438.899 "/>
<polyline clip-path="url(#clip390)" style="stroke:#000000; stroke-linecap:round; stroke-linejoin:round; stroke-width:4; stroke-opacity:1; fill:none" points="147.478,56.154 166.376,56.154 "/>
<path clip-path="url(#clip390)" d="M50.9921 1204.84 L80.6679 1204.84 L80.6679 1208.78 L50.9921 1208.78 L50.9921 1204.84 Z" fill="#000000" fill-rule="nonzero" fill-opacity="1" /><path clip-path="url(#clip390)" d="M91.5706 1217.73 L99.2095 1217.73 L99.2095 1191.37 L90.8993 1193.03 L90.8993 1188.78 L99.1632 1187.11 L103.839 1187.11 L103.839 1217.73 L111.478 1217.73 L111.478 1221.67 L91.5706 1221.67 L91.5706 1217.73 Z" fill="#000000" fill-rule="nonzero" fill-opacity="1" /><path clip-path="url(#clip390)" d="M99.5335 807.442 Q95.9224 807.442 94.0937 811.007 Q92.2882 814.549 92.2882 821.678 Q92.2882 828.785 94.0937 832.35 Q95.9224 835.891 99.5335 835.891 Q103.168 835.891 104.973 832.35 Q106.802 828.785 106.802 821.678 Q106.802 814.549 104.973 811.007 Q103.168 807.442 99.5335 807.442 M99.5335 803.739 Q105.344 803.739 108.399 808.345 Q111.478 812.928 111.478 821.678 Q111.478 830.405 108.399 835.012 Q105.344 839.595 99.5335 839.595 Q93.7234 839.595 90.6447 835.012 Q87.5892 830.405 87.5892 821.678 Q87.5892 812.928 90.6447 808.345 Q93.7234 803.739 99.5335 803.739 Z" fill="#000000" fill-rule="nonzero" fill-opacity="1" /><path clip-path="url(#clip390)" d="M91.5706 452.244 L99.2095 452.244 L99.2095 425.878 L90.8993 427.545 L90.8993 423.286 L99.1632 421.619 L103.839 421.619 L103.839 452.244 L111.478 452.244 L111.478 456.179 L91.5706 456.179 L91.5706 452.244 Z" fill="#000000" fill-rule="nonzero" fill-opacity="1" /><path clip-path="url(#clip390)" d="M95.1586 69.4989 L111.478 69.4989 L111.478 73.434 L89.5336 73.434 L89.5336 69.4989 Q92.1956 66.7443 96.7789 62.1147 Q101.385 57.4619 102.566 56.1193 Q104.811 53.5962 105.691 51.8601 Q106.594 50.1008 106.594 48.411 Q106.594 45.6564 104.649 43.9203 Q102.728 42.1842 99.6261 42.1842 Q97.4271 42.1842 94.9734 42.9481 Q92.5428 43.712 89.7651 45.2629 L89.7651 40.5407 Q92.5891 39.4064 95.0428 38.8277 Q97.4965 38.249 99.5335 38.249 Q104.904 38.249 108.098 40.9342 Q111.293 43.6194 111.293 48.1101 Q111.293 50.2397 110.483 52.161 Q109.696 54.0591 107.589 56.6517 Q107.01 57.323 103.909 60.5406 Q100.807 63.735 95.1586 69.4989 Z" fill="#000000" fill-rule="nonzero" fill-opacity="1" /><circle clip-path="url(#clip392)" cx="1311.16" cy="920.58" r="14.4" fill="#009af9" fill-rule="evenodd" fill-opacity="0.5" stroke="#000000" stroke-opacity="0.5" stroke-width="3.2"/>
<circle clip-path="url(#clip392)" cx="1823.27" cy="1387.06" r="14.4" fill="#009af9" fill-rule="evenodd" fill-opacity="0.5" stroke="#000000" stroke-opacity="0.5" stroke-width="3.2"/>
<circle clip-path="url(#clip392)" cx="228.025" cy="925.19" r="14.4" fill="#009af9" fill-rule="evenodd" fill-opacity="0.5" stroke="#000000" stroke-opacity="0.5" stroke-width="3.2"/>
<circle clip-path="url(#clip392)" cx="461.721" cy="865.423" r="14.4" fill="#009af9" fill-rule="evenodd" fill-opacity="0.5" stroke="#000000" stroke-opacity="0.5" stroke-width="3.2"/>
<circle clip-path="url(#clip392)" cx="1377.9" cy="1318.29" r="14.4" fill="#009af9" fill-rule="evenodd" fill-opacity="0.5" stroke="#000000" stroke-opacity="0.5" stroke-width="3.2"/>
<circle clip-path="url(#clip392)" cx="744.21" cy="1061.04" r="14.4" fill="#009af9" fill-rule="evenodd" fill-opacity="0.5" stroke="#000000" stroke-opacity="0.5" stroke-width="3.2"/>
<circle clip-path="url(#clip392)" cx="712.304" cy="1244.46" r="14.4" fill="#009af9" fill-rule="evenodd" fill-opacity="0.5" stroke="#000000" stroke-opacity="0.5" stroke-width="3.2"/>
<circle clip-path="url(#clip392)" cx="874.375" cy="1445.72" r="14.4" fill="#009af9" fill-rule="evenodd" fill-opacity="0.5" stroke="#000000" stroke-opacity="0.5" stroke-width="3.2"/>
<circle clip-path="url(#clip392)" cx="348.396" cy="820.22" r="14.4" fill="#009af9" fill-rule="evenodd" fill-opacity="0.5" stroke="#000000" stroke-opacity="0.5" stroke-width="3.2"/>
<circle clip-path="url(#clip392)" cx="986.985" cy="87.9763" r="14.4" fill="#009af9" fill-rule="evenodd" fill-opacity="0.5" stroke="#000000" stroke-opacity="0.5" stroke-width="3.2"/>
<circle clip-path="url(#clip392)" cx="1269.46" cy="636.502" r="14.4" fill="#009af9" fill-rule="evenodd" fill-opacity="0.5" stroke="#000000" stroke-opacity="0.5" stroke-width="3.2"/>
<circle clip-path="url(#clip392)" cx="1267.79" cy="767.44" r="14.4" fill="#009af9" fill-rule="evenodd" fill-opacity="0.5" stroke="#000000" stroke-opacity="0.5" stroke-width="3.2"/>
<circle clip-path="url(#clip392)" cx="904.96" cy="1020.27" r="14.4" fill="#009af9" fill-rule="evenodd" fill-opacity="0.5" stroke="#000000" stroke-opacity="0.5" stroke-width="3.2"/>
<circle clip-path="url(#clip392)" cx="209.891" cy="348.658" r="14.4" fill="#009af9" fill-rule="evenodd" fill-opacity="0.5" stroke="#000000" stroke-opacity="0.5" stroke-width="3.2"/>
<circle clip-path="url(#clip392)" cx="1699.45" cy="1089.52" r="14.4" fill="#009af9" fill-rule="evenodd" fill-opacity="0.5" stroke="#000000" stroke-opacity="0.5" stroke-width="3.2"/>
<circle clip-path="url(#clip392)" cx="885.417" cy="1144.04" r="14.4" fill="#009af9" fill-rule="evenodd" fill-opacity="0.5" stroke="#000000" stroke-opacity="0.5" stroke-width="3.2"/>
<circle clip-path="url(#clip392)" cx="2290.34" cy="630.54" r="14.4" fill="#009af9" fill-rule="evenodd" fill-opacity="0.5" stroke="#000000" stroke-opacity="0.5" stroke-width="3.2"/>
<circle clip-path="url(#clip392)" cx="1841.8" cy="265.01" r="14.4" fill="#009af9" fill-rule="evenodd" fill-opacity="0.5" stroke="#000000" stroke-opacity="0.5" stroke-width="3.2"/>
<circle clip-path="url(#clip392)" cx="1380.09" cy="208.978" r="14.4" fill="#009af9" fill-rule="evenodd" fill-opacity="0.5" stroke="#000000" stroke-opacity="0.5" stroke-width="3.2"/>
<circle clip-path="url(#clip392)" cx="772.325" cy="1346.04" r="14.4" fill="#009af9" fill-rule="evenodd" fill-opacity="0.5" stroke="#000000" stroke-opacity="0.5" stroke-width="3.2"/>
<circle clip-path="url(#clip392)" cx="1847.03" cy="451.482" r="14.4" fill="#009af9" fill-rule="evenodd" fill-opacity="0.5" stroke="#000000" stroke-opacity="0.5" stroke-width="3.2"/>
<circle clip-path="url(#clip392)" cx="434.669" cy="944.624" r="14.4" fill="#009af9" fill-rule="evenodd" fill-opacity="0.5" stroke="#000000" stroke-opacity="0.5" stroke-width="3.2"/>
<circle clip-path="url(#clip392)" cx="584.032" cy="1063.5" r="14.4" fill="#009af9" fill-rule="evenodd" fill-opacity="0.5" stroke="#000000" stroke-opacity="0.5" stroke-width="3.2"/>
<circle clip-path="url(#clip392)" cx="1642.78" cy="834.48" r="14.4" fill="#009af9" fill-rule="evenodd" fill-opacity="0.5" stroke="#000000" stroke-opacity="0.5" stroke-width="3.2"/>
<circle clip-path="url(#clip392)" cx="594.861" cy="613.859" r="14.4" fill="#009af9" fill-rule="evenodd" fill-opacity="0.5" stroke="#000000" stroke-opacity="0.5" stroke-width="3.2"/>
<circle clip-path="url(#clip392)" cx="1471.2" cy="826.098" r="14.4" fill="#009af9" fill-rule="evenodd" fill-opacity="0.5" stroke="#000000" stroke-opacity="0.5" stroke-width="3.2"/>
<circle clip-path="url(#clip392)" cx="1336.65" cy="765.32" r="14.4" fill="#009af9" fill-rule="evenodd" fill-opacity="0.5" stroke="#000000" stroke-opacity="0.5" stroke-width="3.2"/>
<circle clip-path="url(#clip392)" cx="1816.12" cy="1241.05" r="14.4" fill="#009af9" fill-rule="evenodd" fill-opacity="0.5" stroke="#000000" stroke-opacity="0.5" stroke-width="3.2"/>
<circle clip-path="url(#clip392)" cx="1883.41" cy="714.622" r="14.4" fill="#009af9" fill-rule="evenodd" fill-opacity="0.5" stroke="#000000" stroke-opacity="0.5" stroke-width="3.2"/>
<circle clip-path="url(#clip392)" cx="874.488" cy="927.808" r="14.4" fill="#009af9" fill-rule="evenodd" fill-opacity="0.5" stroke="#000000" stroke-opacity="0.5" stroke-width="3.2"/>
<path clip-path="url(#clip392)" d="M209.891 348.658 L228.025 925.19 L874.375 1445.72 L1823.27 1387.06 L2290.34 630.54 L1841.8 265.01 L986.985 87.9763 L209.891 348.658 L209.891 348.658  Z" fill="#e26f46" fill-rule="evenodd" fill-opacity="0.2"/>
<polyline clip-path="url(#clip392)" style="stroke:#000000; stroke-linecap:round; stroke-linejoin:round; stroke-width:4; stroke-opacity:0.2; fill:none" points="209.891,348.658 228.025,925.19 874.375,1445.72 1823.27,1387.06 2290.34,630.54 1841.8,265.01 986.985,87.9763 209.891,348.658 "/>
</svg>
