<?xml version="1.0" encoding="utf-8"?>
<svg xmlns="http://www.w3.org/2000/svg" xmlns:xlink="http://www.w3.org/1999/xlink" width="600" height="400" viewBox="0 0 2400 1600">
<defs>
  <clipPath id="clip640">
    <rect x="0" y="0" width="2400" height="1600"/>
  </clipPath>
</defs>
<path clip-path="url(#clip640)" d="M0 1600 L2400 1600 L2400 0 L0 0  Z" fill="#ffffff" fill-rule="evenodd" fill-opacity="1"/>
<defs>
  <clipPath id="clip641">
    <rect x="480" y="0" width="1681" height="1600"/>
  </clipPath>
</defs>
<path clip-path="url(#clip640)" d="M193.936 1486.45 L2352.76 1486.45 L2352.76 47.2441 L193.936 47.2441  Z" fill="#ffffff" fill-rule="evenodd" fill-opacity="1"/>
<defs>
  <clipPath id="clip642">
    <rect x="193" y="47" width="2160" height="1440"/>
  </clipPath>
</defs>
<polyline clip-path="url(#clip642)" style="stroke:#000000; stroke-linecap:round; stroke-linejoin:round; stroke-width:2; stroke-opacity:0.1; fill:none" points="496.396,1486.45 496.396,47.2441 "/>
<polyline clip-path="url(#clip642)" style="stroke:#000000; stroke-linecap:round; stroke-linejoin:round; stroke-width:2; stroke-opacity:0.1; fill:none" points="984.36,1486.45 984.36,47.2441 "/>
<polyline clip-path="url(#clip642)" style="stroke:#000000; stroke-linecap:round; stroke-linejoin:round; stroke-width:2; stroke-opacity:0.1; fill:none" points="1472.32,1486.45 1472.32,47.2441 "/>
<polyline clip-path="url(#clip642)" style="stroke:#000000; stroke-linecap:round; stroke-linejoin:round; stroke-width:2; stroke-opacity:0.1; fill:none" points="1960.29,1486.45 1960.29,47.2441 "/>
<polyline clip-path="url(#clip642)" style="stroke:#000000; stroke-linecap:round; stroke-linejoin:round; stroke-width:2; stroke-opacity:0.1; fill:none" points="193.936,1338.93 2352.76,1338.93 "/>
<polyline clip-path="url(#clip642)" style="stroke:#000000; stroke-linecap:round; stroke-linejoin:round; stroke-width:2; stroke-opacity:0.1; fill:none" points="193.936,1130.96 2352.76,1130.96 "/>
<polyline clip-path="url(#clip642)" style="stroke:#000000; stroke-linecap:round; stroke-linejoin:round; stroke-width:2; stroke-opacity:0.1; fill:none" points="193.936,922.985 2352.76,922.985 "/>
<polyline clip-path="url(#clip642)" style="stroke:#000000; stroke-linecap:round; stroke-linejoin:round; stroke-width:2; stroke-opacity:0.1; fill:none" points="193.936,715.014 2352.76,715.014 "/>
<polyline clip-path="url(#clip642)" style="stroke:#000000; stroke-linecap:round; stroke-linejoin:round; stroke-width:2; stroke-opacity:0.1; fill:none" points="193.936,507.043 2352.76,507.043 "/>
<polyline clip-path="url(#clip642)" style="stroke:#000000; stroke-linecap:round; stroke-linejoin:round; stroke-width:2; stroke-opacity:0.1; fill:none" points="193.936,299.073 2352.76,299.073 "/>
<polyline clip-path="url(#clip642)" style="stroke:#000000; stroke-linecap:round; stroke-linejoin:round; stroke-width:2; stroke-opacity:0.1; fill:none" points="193.936,91.1018 2352.76,91.1018 "/>
<polyline clip-path="url(#clip640)" style="stroke:#000000; stroke-linecap:round; stroke-linejoin:round; stroke-width:4; stroke-opacity:1; fill:none" points="193.936,1486.45 2352.76,1486.45 "/>
<polyline clip-path="url(#clip640)" style="stroke:#000000; stroke-linecap:round; stroke-linejoin:round; stroke-width:4; stroke-opacity:1; fill:none" points="496.396,1486.45 496.396,1467.55 "/>
<polyline clip-path="url(#clip640)" style="stroke:#000000; stroke-linecap:round; stroke-linejoin:round; stroke-width:4; stroke-opacity:1; fill:none" points="984.36,1486.45 984.36,1467.55 "/>
<polyline clip-path="url(#clip640)" style="stroke:#000000; stroke-linecap:round; stroke-linejoin:round; stroke-width:4; stroke-opacity:1; fill:none" points="1472.32,1486.45 1472.32,1467.55 "/>
<polyline clip-path="url(#clip640)" style="stroke:#000000; stroke-linecap:round; stroke-linejoin:round; stroke-width:4; stroke-opacity:1; fill:none" points="1960.29,1486.45 1960.29,1467.55 "/>
<path clip-path="url(#clip640)" d="M466.153 1532.02 L495.829 1532.02 L495.829 1535.95 L466.153 1535.95 L466.153 1532.02 Z" fill="#000000" fill-rule="nonzero" fill-opacity="1" /><path clip-path="url(#clip640)" d="M506.732 1544.91 L514.37 1544.91 L514.37 1518.55 L506.06 1520.21 L506.06 1515.95 L514.324 1514.29 L519 1514.29 L519 1544.91 L526.639 1544.91 L526.639 1548.85 L506.732 1548.85 L506.732 1544.91 Z" fill="#000000" fill-rule="nonzero" fill-opacity="1" /><path clip-path="url(#clip640)" d="M984.36 1517.37 Q980.749 1517.37 978.921 1520.93 Q977.115 1524.47 977.115 1531.6 Q977.115 1538.71 978.921 1542.27 Q980.749 1545.82 984.36 1545.82 Q987.995 1545.82 989.8 1542.27 Q991.629 1538.71 991.629 1531.6 Q991.629 1524.47 989.8 1520.93 Q987.995 1517.37 984.36 1517.37 M984.36 1513.66 Q990.171 1513.66 993.226 1518.27 Q996.305 1522.85 996.305 1531.6 Q996.305 1540.33 993.226 1544.94 Q990.171 1549.52 984.36 1549.52 Q978.55 1549.52 975.472 1544.94 Q972.416 1540.33 972.416 1531.6 Q972.416 1522.85 975.472 1518.27 Q978.55 1513.66 984.36 1513.66 Z" fill="#000000" fill-rule="nonzero" fill-opacity="1" /><path clip-path="url(#clip640)" d="M1462.71 1544.91 L1470.35 1544.91 L1470.35 1518.55 L1462.04 1520.21 L1462.04 1515.95 L1470.3 1514.29 L1474.98 1514.29 L1474.98 1544.91 L1482.61 1544.91 L1482.61 1548.85 L1462.71 1548.85 L1462.71 1544.91 Z" fill="#000000" fill-rule="nonzero" fill-opacity="1" /><path clip-path="url(#clip640)" d="M1954.94 1544.91 L1971.26 1544.91 L1971.26 1548.85 L1949.32 1548.85 L1949.32 1544.91 Q1951.98 1542.16 1956.56 1537.53 Q1961.17 1532.88 1962.35 1531.53 Q1964.59 1529.01 1965.47 1527.27 Q1966.38 1525.51 1966.38 1523.82 Q1966.38 1521.07 1964.43 1519.33 Q1962.51 1517.6 1959.41 1517.6 Q1957.21 1517.6 1954.76 1518.36 Q1952.33 1519.13 1949.55 1520.68 L1949.55 1515.95 Q1952.37 1514.82 1954.83 1514.24 Q1957.28 1513.66 1959.32 1513.66 Q1964.69 1513.66 1967.88 1516.35 Q1971.08 1519.03 1971.08 1523.52 Q1971.08 1525.65 1970.27 1527.57 Q1969.48 1529.47 1967.37 1532.07 Q1966.79 1532.74 1963.69 1535.95 Q1960.59 1539.15 1954.94 1544.91 Z" fill="#000000" fill-rule="nonzero" fill-opacity="1" /><polyline clip-path="url(#clip640)" style="stroke:#000000; stroke-linecap:round; stroke-linejoin:round; stroke-width:4; stroke-opacity:1; fill:none" points="193.936,1486.45 193.936,47.2441 "/>
<polyline clip-path="url(#clip640)" style="stroke:#000000; stroke-linecap:round; stroke-linejoin:round; stroke-width:4; stroke-opacity:1; fill:none" points="193.936,1338.93 212.834,1338.93 "/>
<polyline clip-path="url(#clip640)" style="stroke:#000000; stroke-linecap:round; stroke-linejoin:round; stroke-width:4; stroke-opacity:1; fill:none" points="193.936,1130.96 212.834,1130.96 "/>
<polyline clip-path="url(#clip640)" style="stroke:#000000; stroke-linecap:round; stroke-linejoin:round; stroke-width:4; stroke-opacity:1; fill:none" points="193.936,922.985 212.834,922.985 "/>
<polyline clip-path="url(#clip640)" style="stroke:#000000; stroke-linecap:round; stroke-linejoin:round; stroke-width:4; stroke-opacity:1; fill:none" points="193.936,715.014 212.834,715.014 "/>
<polyline clip-path="url(#clip640)" style="stroke:#000000; stroke-linecap:round; stroke-linejoin:round; stroke-width:4; stroke-opacity:1; fill:none" points="193.936,507.043 212.834,507.043 "/>
<polyline clip-path="url(#clip640)" style="stroke:#000000; stroke-linecap:round; stroke-linejoin:round; stroke-width:4; stroke-opacity:1; fill:none" points="193.936,299.073 212.834,299.073 "/>
<polyline clip-path="url(#clip640)" style="stroke:#000000; stroke-linecap:round; stroke-linejoin:round; stroke-width:4; stroke-opacity:1; fill:none" points="193.936,91.1018 212.834,91.1018 "/>
<path clip-path="url(#clip640)" d="M51.9875 1339.38 L81.6633 1339.38 L81.6633 1343.31 L51.9875 1343.31 L51.9875 1339.38 Z" fill="#000000" fill-rule="nonzero" fill-opacity="1" /><path clip-path="url(#clip640)" d="M92.566 1352.27 L100.205 1352.27 L100.205 1325.91 L91.8947 1327.57 L91.8947 1323.31 L100.159 1321.65 L104.834 1321.65 L104.834 1352.27 L112.473 1352.27 L112.473 1356.21 L92.566 1356.21 L92.566 1352.27 Z" fill="#000000" fill-rule="nonzero" fill-opacity="1" /><path clip-path="url(#clip640)" d="M121.918 1350.33 L126.802 1350.33 L126.802 1356.21 L121.918 1356.21 L121.918 1350.33 Z" fill="#000000" fill-rule="nonzero" fill-opacity="1" /><path clip-path="url(#clip640)" d="M137.033 1321.65 L155.39 1321.65 L155.39 1325.58 L141.316 1325.58 L141.316 1334.05 Q142.334 1333.71 143.353 1333.54 Q144.371 1333.36 145.39 1333.36 Q151.177 1333.36 154.556 1336.53 Q157.936 1339.7 157.936 1345.12 Q157.936 1350.7 154.464 1353.8 Q150.992 1356.88 144.672 1356.88 Q142.496 1356.88 140.228 1356.51 Q137.982 1356.14 135.575 1355.4 L135.575 1350.7 Q137.658 1351.83 139.881 1352.39 Q142.103 1352.94 144.58 1352.94 Q148.584 1352.94 150.922 1350.84 Q153.26 1348.73 153.26 1345.12 Q153.26 1341.51 150.922 1339.4 Q148.584 1337.29 144.58 1337.29 Q142.705 1337.29 140.83 1337.71 Q138.978 1338.13 137.033 1339.01 L137.033 1321.65 Z" fill="#000000" fill-rule="nonzero" fill-opacity="1" /><path clip-path="url(#clip640)" d="M50.9921 1131.41 L80.6679 1131.41 L80.6679 1135.34 L50.9921 1135.34 L50.9921 1131.41 Z" fill="#000000" fill-rule="nonzero" fill-opacity="1" /><path clip-path="url(#clip640)" d="M91.5706 1144.3 L99.2095 1144.3 L99.2095 1117.93 L90.8993 1119.6 L90.8993 1115.34 L99.1632 1113.68 L103.839 1113.68 L103.839 1144.3 L111.478 1144.3 L111.478 1148.24 L91.5706 1148.24 L91.5706 1144.3 Z" fill="#000000" fill-rule="nonzero" fill-opacity="1" /><path clip-path="url(#clip640)" d="M120.922 1142.36 L125.807 1142.36 L125.807 1148.24 L120.922 1148.24 L120.922 1142.36 Z" fill="#000000" fill-rule="nonzero" fill-opacity="1" /><path clip-path="url(#clip640)" d="M145.992 1116.75 Q142.381 1116.75 140.552 1120.32 Q138.746 1123.86 138.746 1130.99 Q138.746 1138.1 140.552 1141.66 Q142.381 1145.2 145.992 1145.2 Q149.626 1145.2 151.431 1141.66 Q153.26 1138.1 153.26 1130.99 Q153.26 1123.86 151.431 1120.32 Q149.626 1116.75 145.992 1116.75 M145.992 1113.05 Q151.802 1113.05 154.857 1117.66 Q157.936 1122.24 157.936 1130.99 Q157.936 1139.72 154.857 1144.32 Q151.802 1148.91 145.992 1148.91 Q140.181 1148.91 137.103 1144.32 Q134.047 1139.72 134.047 1130.99 Q134.047 1122.24 137.103 1117.66 Q140.181 1113.05 145.992 1113.05 Z" fill="#000000" fill-rule="nonzero" fill-opacity="1" /><path clip-path="url(#clip640)" d="M51.9875 923.436 L81.6633 923.436 L81.6633 927.371 L51.9875 927.371 L51.9875 923.436 Z" fill="#000000" fill-rule="nonzero" fill-opacity="1" /><path clip-path="url(#clip640)" d="M101.756 908.784 Q98.1447 908.784 96.316 912.348 Q94.5104 915.89 94.5104 923.02 Q94.5104 930.126 96.316 933.691 Q98.1447 937.232 101.756 937.232 Q105.39 937.232 107.196 933.691 Q109.024 930.126 109.024 923.02 Q109.024 915.89 107.196 912.348 Q105.39 908.784 101.756 908.784 M101.756 905.08 Q107.566 905.08 110.621 909.686 Q113.7 914.27 113.7 923.02 Q113.7 931.746 110.621 936.353 Q107.566 940.936 101.756 940.936 Q95.9456 940.936 92.8669 936.353 Q89.8114 931.746 89.8114 923.02 Q89.8114 914.27 92.8669 909.686 Q95.9456 905.08 101.756 905.08 Z" fill="#000000" fill-rule="nonzero" fill-opacity="1" /><path clip-path="url(#clip640)" d="M121.918 934.385 L126.802 934.385 L126.802 940.265 L121.918 940.265 L121.918 934.385 Z" fill="#000000" fill-rule="nonzero" fill-opacity="1" /><path clip-path="url(#clip640)" d="M137.033 905.705 L155.39 905.705 L155.39 909.64 L141.316 909.64 L141.316 918.112 Q142.334 917.765 143.353 917.603 Q144.371 917.418 145.39 917.418 Q151.177 917.418 154.556 920.589 Q157.936 923.76 157.936 929.177 Q157.936 934.756 154.464 937.857 Q150.992 940.936 144.672 940.936 Q142.496 940.936 140.228 940.566 Q137.982 940.195 135.575 939.455 L135.575 934.756 Q137.658 935.89 139.881 936.445 Q142.103 937.001 144.58 937.001 Q148.584 937.001 150.922 934.894 Q153.26 932.788 153.26 929.177 Q153.26 925.566 150.922 923.459 Q148.584 921.353 144.58 921.353 Q142.705 921.353 140.83 921.77 Q138.978 922.186 137.033 923.066 L137.033 905.705 Z" fill="#000000" fill-rule="nonzero" fill-opacity="1" /><path clip-path="url(#clip640)" d="M100.76 700.813 Q97.1493 700.813 95.3206 704.378 Q93.515 707.919 93.515 715.049 Q93.515 722.155 95.3206 725.72 Q97.1493 729.262 100.76 729.262 Q104.395 729.262 106.2 725.72 Q108.029 722.155 108.029 715.049 Q108.029 707.919 106.2 704.378 Q104.395 700.813 100.76 700.813 M100.76 697.109 Q106.571 697.109 109.626 701.716 Q112.705 706.299 112.705 715.049 Q112.705 723.776 109.626 728.382 Q106.571 732.965 100.76 732.965 Q94.9502 732.965 91.8715 728.382 Q88.816 723.776 88.816 715.049 Q88.816 706.299 91.8715 701.716 Q94.9502 697.109 100.76 697.109 Z" fill="#000000" fill-rule="nonzero" fill-opacity="1" /><path clip-path="url(#clip640)" d="M120.922 726.414 L125.807 726.414 L125.807 732.294 L120.922 732.294 L120.922 726.414 Z" fill="#000000" fill-rule="nonzero" fill-opacity="1" /><path clip-path="url(#clip640)" d="M145.992 700.813 Q142.381 700.813 140.552 704.378 Q138.746 707.919 138.746 715.049 Q138.746 722.155 140.552 725.72 Q142.381 729.262 145.992 729.262 Q149.626 729.262 151.431 725.72 Q153.26 722.155 153.26 715.049 Q153.26 707.919 151.431 704.378 Q149.626 700.813 145.992 700.813 M145.992 697.109 Q151.802 697.109 154.857 701.716 Q157.936 706.299 157.936 715.049 Q157.936 723.776 154.857 728.382 Q151.802 732.965 145.992 732.965 Q140.181 732.965 137.103 728.382 Q134.047 723.776 134.047 715.049 Q134.047 706.299 137.103 701.716 Q140.181 697.109 145.992 697.109 Z" fill="#000000" fill-rule="nonzero" fill-opacity="1" /><path clip-path="url(#clip640)" d="M101.756 492.842 Q98.1447 492.842 96.316 496.407 Q94.5104 499.948 94.5104 507.078 Q94.5104 514.184 96.316 517.749 Q98.1447 521.291 101.756 521.291 Q105.39 521.291 107.196 517.749 Q109.024 514.184 109.024 507.078 Q109.024 499.948 107.196 496.407 Q105.39 492.842 101.756 492.842 M101.756 489.138 Q107.566 489.138 110.621 493.745 Q113.7 498.328 113.7 507.078 Q113.7 515.805 110.621 520.411 Q107.566 524.995 101.756 524.995 Q95.9456 524.995 92.8669 520.411 Q89.8114 515.805 89.8114 507.078 Q89.8114 498.328 92.8669 493.745 Q95.9456 489.138 101.756 489.138 Z" fill="#000000" fill-rule="nonzero" fill-opacity="1" /><path clip-path="url(#clip640)" d="M121.918 518.444 L126.802 518.444 L126.802 524.323 L121.918 524.323 L121.918 518.444 Z" fill="#000000" fill-rule="nonzero" fill-opacity="1" /><path clip-path="url(#clip640)" d="M137.033 489.763 L155.39 489.763 L155.39 493.698 L141.316 493.698 L141.316 502.171 Q142.334 501.823 143.353 501.661 Q144.371 501.476 145.39 501.476 Q151.177 501.476 154.556 504.648 Q157.936 507.819 157.936 513.235 Q157.936 518.814 154.464 521.916 Q150.992 524.995 144.672 524.995 Q142.496 524.995 140.228 524.624 Q137.982 524.254 135.575 523.513 L135.575 518.814 Q137.658 519.948 139.881 520.504 Q142.103 521.059 144.58 521.059 Q148.584 521.059 150.922 518.953 Q153.26 516.847 153.26 513.235 Q153.26 509.624 150.922 507.518 Q148.584 505.411 144.58 505.411 Q142.705 505.411 140.83 505.828 Q138.978 506.245 137.033 507.124 L137.033 489.763 Z" fill="#000000" fill-rule="nonzero" fill-opacity="1" /><path clip-path="url(#clip640)" d="M91.5706 312.417 L99.2095 312.417 L99.2095 286.052 L90.8993 287.718 L90.8993 283.459 L99.1632 281.793 L103.839 281.793 L103.839 312.417 L111.478 312.417 L111.478 316.353 L91.5706 316.353 L91.5706 312.417 Z" fill="#000000" fill-rule="nonzero" fill-opacity="1" /><path clip-path="url(#clip640)" d="M120.922 310.473 L125.807 310.473 L125.807 316.353 L120.922 316.353 L120.922 310.473 Z" fill="#000000" fill-rule="nonzero" fill-opacity="1" /><path clip-path="url(#clip640)" d="M145.992 284.871 Q142.381 284.871 140.552 288.436 Q138.746 291.978 138.746 299.107 Q138.746 306.214 140.552 309.779 Q142.381 313.32 145.992 313.32 Q149.626 313.32 151.431 309.779 Q153.26 306.214 153.26 299.107 Q153.26 291.978 151.431 288.436 Q149.626 284.871 145.992 284.871 M145.992 281.168 Q151.802 281.168 154.857 285.774 Q157.936 290.357 157.936 299.107 Q157.936 307.834 154.857 312.441 Q151.802 317.024 145.992 317.024 Q140.181 317.024 137.103 312.441 Q134.047 307.834 134.047 299.107 Q134.047 290.357 137.103 285.774 Q140.181 281.168 145.992 281.168 Z" fill="#000000" fill-rule="nonzero" fill-opacity="1" /><path clip-path="url(#clip640)" d="M92.566 104.447 L100.205 104.447 L100.205 78.0811 L91.8947 79.7477 L91.8947 75.4885 L100.159 73.8218 L104.834 73.8218 L104.834 104.447 L112.473 104.447 L112.473 108.382 L92.566 108.382 L92.566 104.447 Z" fill="#000000" fill-rule="nonzero" fill-opacity="1" /><path clip-path="url(#clip640)" d="M121.918 102.502 L126.802 102.502 L126.802 108.382 L121.918 108.382 L121.918 102.502 Z" fill="#000000" fill-rule="nonzero" fill-opacity="1" /><path clip-path="url(#clip640)" d="M137.033 73.8218 L155.39 73.8218 L155.39 77.757 L141.316 77.757 L141.316 86.2292 Q142.334 85.882 143.353 85.7199 Q144.371 85.5347 145.39 85.5347 Q151.177 85.5347 154.556 88.706 Q157.936 91.8773 157.936 97.2939 Q157.936 102.873 154.464 105.974 Q150.992 109.053 144.672 109.053 Q142.496 109.053 140.228 108.683 Q137.982 108.312 135.575 107.572 L135.575 102.873 Q137.658 104.007 139.881 104.562 Q142.103 105.118 144.58 105.118 Q148.584 105.118 150.922 103.011 Q153.26 100.905 153.26 97.2939 Q153.26 93.6828 150.922 91.5764 Q148.584 89.4699 144.58 89.4699 Q142.705 89.4699 140.83 89.8866 Q138.978 90.3032 137.033 91.1829 L137.033 73.8218 Z" fill="#000000" fill-rule="nonzero" fill-opacity="1" /><circle clip-path="url(#clip642)" cx="1230.89" cy="962.686" r="14.4" fill="#009af9" fill-rule="evenodd" fill-opacity="0.5" stroke="#000000" stroke-opacity="0.5" stroke-width="3.2"/>
<circle clip-path="url(#clip642)" cx="872.873" cy="1445.72" r="14.4" fill="#009af9" fill-rule="evenodd" fill-opacity="0.5" stroke="#000000" stroke-opacity="0.5" stroke-width="3.2"/>
<circle clip-path="url(#clip642)" cx="814.346" cy="726.449" r="14.4" fill="#009af9" fill-rule="evenodd" fill-opacity="0.5" stroke="#000000" stroke-opacity="0.5" stroke-width="3.2"/>
<circle clip-path="url(#clip642)" cx="1632.37" cy="87.9763" r="14.4" fill="#009af9" fill-rule="evenodd" fill-opacity="0.5" stroke="#000000" stroke-opacity="0.5" stroke-width="3.2"/>
<circle clip-path="url(#clip642)" cx="1480.74" cy="1113.39" r="14.4" fill="#009af9" fill-rule="evenodd" fill-opacity="0.5" stroke="#000000" stroke-opacity="0.5" stroke-width="3.2"/>
<circle clip-path="url(#clip642)" cx="511.7" cy="1206.5" r="14.4" fill="#009af9" fill-rule="evenodd" fill-opacity="0.5" stroke="#000000" stroke-opacity="0.5" stroke-width="3.2"/>
<circle clip-path="url(#clip642)" cx="912.51" cy="1158.21" r="14.4" fill="#009af9" fill-rule="evenodd" fill-opacity="0.5" stroke="#000000" stroke-opacity="0.5" stroke-width="3.2"/>
<circle clip-path="url(#clip642)" cx="1006.55" cy="1222.11" r="14.4" fill="#009af9" fill-rule="evenodd" fill-opacity="0.5" stroke="#000000" stroke-opacity="0.5" stroke-width="3.2"/>
<circle clip-path="url(#clip642)" cx="1040.09" cy="1263.64" r="14.4" fill="#009af9" fill-rule="evenodd" fill-opacity="0.5" stroke="#000000" stroke-opacity="0.5" stroke-width="3.2"/>
<circle clip-path="url(#clip642)" cx="1337.63" cy="871.08" r="14.4" fill="#009af9" fill-rule="evenodd" fill-opacity="0.5" stroke="#000000" stroke-opacity="0.5" stroke-width="3.2"/>
<circle clip-path="url(#clip642)" cx="1623.73" cy="1119.55" r="14.4" fill="#009af9" fill-rule="evenodd" fill-opacity="0.5" stroke="#000000" stroke-opacity="0.5" stroke-width="3.2"/>
<circle clip-path="url(#clip642)" cx="840.695" cy="694.974" r="14.4" fill="#009af9" fill-rule="evenodd" fill-opacity="0.5" stroke="#000000" stroke-opacity="0.5" stroke-width="3.2"/>
<circle clip-path="url(#clip642)" cx="1107.71" cy="1133.93" r="14.4" fill="#009af9" fill-rule="evenodd" fill-opacity="0.5" stroke="#000000" stroke-opacity="0.5" stroke-width="3.2"/>
<circle clip-path="url(#clip642)" cx="877.527" cy="552.754" r="14.4" fill="#009af9" fill-rule="evenodd" fill-opacity="0.5" stroke="#000000" stroke-opacity="0.5" stroke-width="3.2"/>
<circle clip-path="url(#clip642)" cx="585.03" cy="981.872" r="14.4" fill="#009af9" fill-rule="evenodd" fill-opacity="0.5" stroke="#000000" stroke-opacity="0.5" stroke-width="3.2"/>
<circle clip-path="url(#clip642)" cx="443.423" cy="404.937" r="14.4" fill="#009af9" fill-rule="evenodd" fill-opacity="0.5" stroke="#000000" stroke-opacity="0.5" stroke-width="3.2"/>
<circle clip-path="url(#clip642)" cx="1497.62" cy="308.28" r="14.4" fill="#009af9" fill-rule="evenodd" fill-opacity="0.5" stroke="#000000" stroke-opacity="0.5" stroke-width="3.2"/>
<circle clip-path="url(#clip642)" cx="829.653" cy="573.752" r="14.4" fill="#009af9" fill-rule="evenodd" fill-opacity="0.5" stroke="#000000" stroke-opacity="0.5" stroke-width="3.2"/>
<circle clip-path="url(#clip642)" cx="2291.66" cy="892.568" r="14.4" fill="#009af9" fill-rule="evenodd" fill-opacity="0.5" stroke="#000000" stroke-opacity="0.5" stroke-width="3.2"/>
<circle clip-path="url(#clip642)" cx="390.442" cy="997.478" r="14.4" fill="#009af9" fill-rule="evenodd" fill-opacity="0.5" stroke="#000000" stroke-opacity="0.5" stroke-width="3.2"/>
<circle clip-path="url(#clip642)" cx="1187.15" cy="1271.25" r="14.4" fill="#009af9" fill-rule="evenodd" fill-opacity="0.5" stroke="#000000" stroke-opacity="0.5" stroke-width="3.2"/>
<circle clip-path="url(#clip642)" cx="572.11" cy="804.218" r="14.4" fill="#009af9" fill-rule="evenodd" fill-opacity="0.5" stroke="#000000" stroke-opacity="0.5" stroke-width="3.2"/>
<circle clip-path="url(#clip642)" cx="1587.73" cy="448.379" r="14.4" fill="#009af9" fill-rule="evenodd" fill-opacity="0.5" stroke="#000000" stroke-opacity="0.5" stroke-width="3.2"/>
<circle clip-path="url(#clip642)" cx="980.343" cy="745.788" r="14.4" fill="#009af9" fill-rule="evenodd" fill-opacity="0.5" stroke="#000000" stroke-opacity="0.5" stroke-width="3.2"/>
<circle clip-path="url(#clip642)" cx="972.377" cy="521.368" r="14.4" fill="#009af9" fill-rule="evenodd" fill-opacity="0.5" stroke="#000000" stroke-opacity="0.5" stroke-width="3.2"/>
<circle clip-path="url(#clip642)" cx="255.035" cy="871.282" r="14.4" fill="#009af9" fill-rule="evenodd" fill-opacity="0.5" stroke="#000000" stroke-opacity="0.5" stroke-width="3.2"/>
<circle clip-path="url(#clip642)" cx="1503.33" cy="782.849" r="14.4" fill="#009af9" fill-rule="evenodd" fill-opacity="0.5" stroke="#000000" stroke-opacity="0.5" stroke-width="3.2"/>
<circle clip-path="url(#clip642)" cx="1220.12" cy="682.392" r="14.4" fill="#009af9" fill-rule="evenodd" fill-opacity="0.5" stroke="#000000" stroke-opacity="0.5" stroke-width="3.2"/>
<circle clip-path="url(#clip642)" cx="997.087" cy="1087.54" r="14.4" fill="#009af9" fill-rule="evenodd" fill-opacity="0.5" stroke="#000000" stroke-opacity="0.5" stroke-width="3.2"/>
<circle clip-path="url(#clip642)" cx="1070.29" cy="698.067" r="14.4" fill="#009af9" fill-rule="evenodd" fill-opacity="0.5" stroke="#000000" stroke-opacity="0.5" stroke-width="3.2"/>
<path clip-path="url(#clip642)" d="M255.035 871.282 L511.7 1206.5 L872.873 1445.72 L2291.66 892.568 L1632.37 87.9763 L443.423 404.937 L255.035 871.282 L255.035 871.282  Z" fill="#e26f46" fill-rule="evenodd" fill-opacity="0.2"/>
<polyline clip-path="url(#clip642)" style="stroke:#000000; stroke-linecap:round; stroke-linejoin:round; stroke-width:4; stroke-opacity:0.2; fill:none" points="255.035,871.282 511.7,1206.5 872.873,1445.72 2291.66,892.568 1632.37,87.9763 443.423,404.937 255.035,871.282 "/>
</svg>
