<?xml version="1.0" encoding="utf-8"?>
<svg xmlns="http://www.w3.org/2000/svg" xmlns:xlink="http://www.w3.org/1999/xlink" width="600" height="400" viewBox="0 0 2400 1600">
<defs>
  <clipPath id="clip810">
    <rect x="0" y="0" width="2400" height="1600"/>
  </clipPath>
</defs>
<path clip-path="url(#clip810)" d="M0 1600 L2400 1600 L2400 0 L0 0  Z" fill="#ffffff" fill-rule="evenodd" fill-opacity="1"/>
<defs>
  <clipPath id="clip811">
    <rect x="480" y="0" width="1681" height="1600"/>
  </clipPath>
</defs>
<path clip-path="url(#clip810)" d="M148.057 1486.45 L2352.76 1486.45 L2352.76 47.2441 L148.057 47.2441  Z" fill="#ffffff" fill-rule="evenodd" fill-opacity="1"/>
<defs>
  <clipPath id="clip812">
    <rect x="148" y="47" width="2206" height="1440"/>
  </clipPath>
</defs>
<polyline clip-path="url(#clip812)" style="stroke:#000000; stroke-linecap:round; stroke-linejoin:round; stroke-width:2; stroke-opacity:0.1; fill:none" points="331.521,1486.45 331.521,47.2441 "/>
<polyline clip-path="url(#clip812)" style="stroke:#000000; stroke-linecap:round; stroke-linejoin:round; stroke-width:2; stroke-opacity:0.1; fill:none" points="899.117,1486.45 899.117,47.2441 "/>
<polyline clip-path="url(#clip812)" style="stroke:#000000; stroke-linecap:round; stroke-linejoin:round; stroke-width:2; stroke-opacity:0.1; fill:none" points="1466.71,1486.45 1466.71,47.2441 "/>
<polyline clip-path="url(#clip812)" style="stroke:#000000; stroke-linecap:round; stroke-linejoin:round; stroke-width:2; stroke-opacity:0.1; fill:none" points="2034.31,1486.45 2034.31,47.2441 "/>
<polyline clip-path="url(#clip812)" style="stroke:#000000; stroke-linecap:round; stroke-linejoin:round; stroke-width:2; stroke-opacity:0.1; fill:none" points="148.057,1412.62 2352.76,1412.62 "/>
<polyline clip-path="url(#clip812)" style="stroke:#000000; stroke-linecap:round; stroke-linejoin:round; stroke-width:2; stroke-opacity:0.1; fill:none" points="148.057,1127.22 2352.76,1127.22 "/>
<polyline clip-path="url(#clip812)" style="stroke:#000000; stroke-linecap:round; stroke-linejoin:round; stroke-width:2; stroke-opacity:0.1; fill:none" points="148.057,841.82 2352.76,841.82 "/>
<polyline clip-path="url(#clip812)" style="stroke:#000000; stroke-linecap:round; stroke-linejoin:round; stroke-width:2; stroke-opacity:0.1; fill:none" points="148.057,556.418 2352.76,556.418 "/>
<polyline clip-path="url(#clip812)" style="stroke:#000000; stroke-linecap:round; stroke-linejoin:round; stroke-width:2; stroke-opacity:0.1; fill:none" points="148.057,271.017 2352.76,271.017 "/>
<polyline clip-path="url(#clip810)" style="stroke:#000000; stroke-linecap:round; stroke-linejoin:round; stroke-width:4; stroke-opacity:1; fill:none" points="148.057,1486.45 2352.76,1486.45 "/>
<polyline clip-path="url(#clip810)" style="stroke:#000000; stroke-linecap:round; stroke-linejoin:round; stroke-width:4; stroke-opacity:1; fill:none" points="331.521,1486.45 331.521,1467.55 "/>
<polyline clip-path="url(#clip810)" style="stroke:#000000; stroke-linecap:round; stroke-linejoin:round; stroke-width:4; stroke-opacity:1; fill:none" points="899.117,1486.45 899.117,1467.55 "/>
<polyline clip-path="url(#clip810)" style="stroke:#000000; stroke-linecap:round; stroke-linejoin:round; stroke-width:4; stroke-opacity:1; fill:none" points="1466.71,1486.45 1466.71,1467.55 "/>
<polyline clip-path="url(#clip810)" style="stroke:#000000; stroke-linecap:round; stroke-linejoin:round; stroke-width:4; stroke-opacity:1; fill:none" points="2034.31,1486.45 2034.31,1467.55 "/>
<path clip-path="url(#clip810)" d="M301.278 1532.02 L330.954 1532.02 L330.954 1535.95 L301.278 1535.95 L301.278 1532.02 Z" fill="#000000" fill-rule="nonzero" fill-opacity="1" /><path clip-path="url(#clip810)" d="M341.857 1544.91 L349.495 1544.91 L349.495 1518.55 L341.185 1520.21 L341.185 1515.95 L349.449 1514.29 L354.125 1514.29 L354.125 1544.91 L361.764 1544.91 L361.764 1548.85 L341.857 1548.85 L341.857 1544.91 Z" fill="#000000" fill-rule="nonzero" fill-opacity="1" /><path clip-path="url(#clip810)" d="M899.117 1517.37 Q895.506 1517.37 893.677 1520.93 Q891.872 1524.47 891.872 1531.6 Q891.872 1538.71 893.677 1542.27 Q895.506 1545.82 899.117 1545.82 Q902.751 1545.82 904.557 1542.27 Q906.386 1538.71 906.386 1531.6 Q906.386 1524.47 904.557 1520.93 Q902.751 1517.37 899.117 1517.37 M899.117 1513.66 Q904.927 1513.66 907.983 1518.27 Q911.061 1522.85 911.061 1531.6 Q911.061 1540.33 907.983 1544.94 Q904.927 1549.52 899.117 1549.52 Q893.307 1549.52 890.228 1544.94 Q887.173 1540.33 887.173 1531.6 Q887.173 1522.85 890.228 1518.27 Q893.307 1513.66 899.117 1513.66 Z" fill="#000000" fill-rule="nonzero" fill-opacity="1" /><path clip-path="url(#clip810)" d="M1457.1 1544.91 L1464.73 1544.91 L1464.73 1518.55 L1456.42 1520.21 L1456.42 1515.95 L1464.69 1514.29 L1469.36 1514.29 L1469.36 1544.91 L1477 1544.91 L1477 1548.85 L1457.1 1548.85 L1457.1 1544.91 Z" fill="#000000" fill-rule="nonzero" fill-opacity="1" /><path clip-path="url(#clip810)" d="M2028.96 1544.91 L2045.28 1544.91 L2045.28 1548.85 L2023.34 1548.85 L2023.34 1544.91 Q2026 1542.16 2030.58 1537.53 Q2035.19 1532.88 2036.37 1531.53 Q2038.61 1529.01 2039.49 1527.27 Q2040.4 1525.51 2040.4 1523.82 Q2040.4 1521.07 2038.45 1519.33 Q2036.53 1517.6 2033.43 1517.6 Q2031.23 1517.6 2028.78 1518.36 Q2026.35 1519.13 2023.57 1520.68 L2023.57 1515.95 Q2026.39 1514.82 2028.85 1514.24 Q2031.3 1513.66 2033.34 1513.66 Q2038.71 1513.66 2041.9 1516.35 Q2045.1 1519.03 2045.1 1523.52 Q2045.1 1525.65 2044.29 1527.57 Q2043.5 1529.47 2041.39 1532.07 Q2040.81 1532.74 2037.71 1535.95 Q2034.61 1539.15 2028.96 1544.91 Z" fill="#000000" fill-rule="nonzero" fill-opacity="1" /><polyline clip-path="url(#clip810)" style="stroke:#000000; stroke-linecap:round; stroke-linejoin:round; stroke-width:4; stroke-opacity:1; fill:none" points="148.057,1486.45 148.057,47.2441 "/>
<polyline clip-path="url(#clip810)" style="stroke:#000000; stroke-linecap:round; stroke-linejoin:round; stroke-width:4; stroke-opacity:1; fill:none" points="148.057,1412.62 166.954,1412.62 "/>
<polyline clip-path="url(#clip810)" style="stroke:#000000; stroke-linecap:round; stroke-linejoin:round; stroke-width:4; stroke-opacity:1; fill:none" points="148.057,1127.22 166.954,1127.22 "/>
<polyline clip-path="url(#clip810)" style="stroke:#000000; stroke-linecap:round; stroke-linejoin:round; stroke-width:4; stroke-opacity:1; fill:none" points="148.057,841.82 166.954,841.82 "/>
<polyline clip-path="url(#clip810)" style="stroke:#000000; stroke-linecap:round; stroke-linejoin:round; stroke-width:4; stroke-opacity:1; fill:none" points="148.057,556.418 166.954,556.418 "/>
<polyline clip-path="url(#clip810)" style="stroke:#000000; stroke-linecap:round; stroke-linejoin:round; stroke-width:4; stroke-opacity:1; fill:none" points="148.057,271.017 166.954,271.017 "/>
<path clip-path="url(#clip810)" d="M50.9921 1413.07 L80.6679 1413.07 L80.6679 1417.01 L50.9921 1417.01 L50.9921 1413.07 Z" fill="#000000" fill-rule="nonzero" fill-opacity="1" /><path clip-path="url(#clip810)" d="M104.927 1411.27 Q108.283 1411.99 110.158 1414.25 Q112.057 1416.52 112.057 1419.86 Q112.057 1424.97 108.538 1427.77 Q105.02 1430.57 98.5382 1430.57 Q96.3623 1430.57 94.0475 1430.13 Q91.7558 1429.72 89.3021 1428.86 L89.3021 1424.35 Q91.2465 1425.48 93.5613 1426.06 Q95.8761 1426.64 98.3993 1426.64 Q102.797 1426.64 105.089 1424.9 Q107.404 1423.17 107.404 1419.86 Q107.404 1416.8 105.251 1415.09 Q103.121 1413.35 99.3021 1413.35 L95.2743 1413.35 L95.2743 1409.51 L99.4872 1409.51 Q102.936 1409.51 104.765 1408.14 Q106.594 1406.75 106.594 1404.16 Q106.594 1401.5 104.696 1400.09 Q102.821 1398.65 99.3021 1398.65 Q97.3808 1398.65 95.1817 1399.07 Q92.9826 1399.49 90.3438 1400.37 L90.3438 1396.2 Q93.0058 1395.46 95.3206 1395.09 Q97.6585 1394.72 99.7187 1394.72 Q105.043 1394.72 108.145 1397.15 Q111.246 1399.56 111.246 1403.68 Q111.246 1406.55 109.603 1408.54 Q107.959 1410.5 104.927 1411.27 Z" fill="#000000" fill-rule="nonzero" fill-opacity="1" /><path clip-path="url(#clip810)" d="M51.9412 1127.67 L81.617 1127.67 L81.617 1131.61 L51.9412 1131.61 L51.9412 1127.67 Z" fill="#000000" fill-rule="nonzero" fill-opacity="1" /><path clip-path="url(#clip810)" d="M95.7373 1140.57 L112.057 1140.57 L112.057 1144.5 L90.1123 1144.5 L90.1123 1140.57 Q92.7743 1137.81 97.3576 1133.18 Q101.964 1128.53 103.145 1127.19 Q105.39 1124.66 106.27 1122.93 Q107.172 1121.17 107.172 1119.48 Q107.172 1116.72 105.228 1114.99 Q103.307 1113.25 100.205 1113.25 Q98.0058 1113.25 95.5521 1114.02 Q93.1215 1114.78 90.3438 1116.33 L90.3438 1111.61 Q93.1678 1110.47 95.6215 1109.9 Q98.0752 1109.32 100.112 1109.32 Q105.483 1109.32 108.677 1112 Q111.871 1114.69 111.871 1119.18 Q111.871 1121.31 111.061 1123.23 Q110.274 1125.13 108.168 1127.72 Q107.589 1128.39 104.487 1131.61 Q101.385 1134.8 95.7373 1140.57 Z" fill="#000000" fill-rule="nonzero" fill-opacity="1" /><path clip-path="url(#clip810)" d="M51.5708 842.271 L81.2466 842.271 L81.2466 846.206 L51.5708 846.206 L51.5708 842.271 Z" fill="#000000" fill-rule="nonzero" fill-opacity="1" /><path clip-path="url(#clip810)" d="M92.1493 855.165 L99.7882 855.165 L99.7882 828.799 L91.478 830.466 L91.478 826.207 L99.7419 824.54 L104.418 824.54 L104.418 855.165 L112.057 855.165 L112.057 859.1 L92.1493 859.1 L92.1493 855.165 Z" fill="#000000" fill-rule="nonzero" fill-opacity="1" /><path clip-path="url(#clip810)" d="M100.112 542.217 Q96.5011 542.217 94.6724 545.782 Q92.8669 549.324 92.8669 556.453 Q92.8669 563.56 94.6724 567.124 Q96.5011 570.666 100.112 570.666 Q103.746 570.666 105.552 567.124 Q107.381 563.56 107.381 556.453 Q107.381 549.324 105.552 545.782 Q103.746 542.217 100.112 542.217 M100.112 538.513 Q105.922 538.513 108.978 543.12 Q112.057 547.703 112.057 556.453 Q112.057 565.18 108.978 569.786 Q105.922 574.37 100.112 574.37 Q94.3021 574.37 91.2234 569.786 Q88.1679 565.18 88.1679 556.453 Q88.1679 547.703 91.2234 543.12 Q94.3021 538.513 100.112 538.513 Z" fill="#000000" fill-rule="nonzero" fill-opacity="1" /><path clip-path="url(#clip810)" d="M92.1493 284.362 L99.7882 284.362 L99.7882 257.996 L91.478 259.663 L91.478 255.404 L99.7419 253.737 L104.418 253.737 L104.418 284.362 L112.057 284.362 L112.057 288.297 L92.1493 288.297 L92.1493 284.362 Z" fill="#000000" fill-rule="nonzero" fill-opacity="1" /><circle clip-path="url(#clip812)" cx="438.217" cy="1445.72" r="14.4" fill="#009af9" fill-rule="evenodd" fill-opacity="0.5" stroke="#000000" stroke-opacity="0.5" stroke-width="3.2"/>
<circle clip-path="url(#clip812)" cx="1568.16" cy="507.569" r="14.4" fill="#009af9" fill-rule="evenodd" fill-opacity="0.5" stroke="#000000" stroke-opacity="0.5" stroke-width="3.2"/>
<circle clip-path="url(#clip812)" cx="210.454" cy="422.395" r="14.4" fill="#009af9" fill-rule="evenodd" fill-opacity="0.5" stroke="#000000" stroke-opacity="0.5" stroke-width="3.2"/>
<circle clip-path="url(#clip812)" cx="979.64" cy="177.614" r="14.4" fill="#009af9" fill-rule="evenodd" fill-opacity="0.5" stroke="#000000" stroke-opacity="0.5" stroke-width="3.2"/>
<circle clip-path="url(#clip812)" cx="421.888" cy="526.372" r="14.4" fill="#009af9" fill-rule="evenodd" fill-opacity="0.5" stroke="#000000" stroke-opacity="0.5" stroke-width="3.2"/>
<circle clip-path="url(#clip812)" cx="746.95" cy="842.125" r="14.4" fill="#009af9" fill-rule="evenodd" fill-opacity="0.5" stroke="#000000" stroke-opacity="0.5" stroke-width="3.2"/>
<circle clip-path="url(#clip812)" cx="293.925" cy="562.317" r="14.4" fill="#009af9" fill-rule="evenodd" fill-opacity="0.5" stroke="#000000" stroke-opacity="0.5" stroke-width="3.2"/>
<circle clip-path="url(#clip812)" cx="1349.89" cy="212.961" r="14.4" fill="#009af9" fill-rule="evenodd" fill-opacity="0.5" stroke="#000000" stroke-opacity="0.5" stroke-width="3.2"/>
<circle clip-path="url(#clip812)" cx="1715.03" cy="303.82" r="14.4" fill="#009af9" fill-rule="evenodd" fill-opacity="0.5" stroke="#000000" stroke-opacity="0.5" stroke-width="3.2"/>
<circle clip-path="url(#clip812)" cx="312.177" cy="630.933" r="14.4" fill="#009af9" fill-rule="evenodd" fill-opacity="0.5" stroke="#000000" stroke-opacity="0.5" stroke-width="3.2"/>
<circle clip-path="url(#clip812)" cx="1741.27" cy="537.311" r="14.4" fill="#009af9" fill-rule="evenodd" fill-opacity="0.5" stroke="#000000" stroke-opacity="0.5" stroke-width="3.2"/>
<circle clip-path="url(#clip812)" cx="1164.65" cy="773.386" r="14.4" fill="#009af9" fill-rule="evenodd" fill-opacity="0.5" stroke="#000000" stroke-opacity="0.5" stroke-width="3.2"/>
<circle clip-path="url(#clip812)" cx="455.482" cy="504.443" r="14.4" fill="#009af9" fill-rule="evenodd" fill-opacity="0.5" stroke="#000000" stroke-opacity="0.5" stroke-width="3.2"/>
<circle clip-path="url(#clip812)" cx="1505.14" cy="510.193" r="14.4" fill="#009af9" fill-rule="evenodd" fill-opacity="0.5" stroke="#000000" stroke-opacity="0.5" stroke-width="3.2"/>
<circle clip-path="url(#clip812)" cx="765.235" cy="1102.29" r="14.4" fill="#009af9" fill-rule="evenodd" fill-opacity="0.5" stroke="#000000" stroke-opacity="0.5" stroke-width="3.2"/>
<circle clip-path="url(#clip812)" cx="583.992" cy="591.174" r="14.4" fill="#009af9" fill-rule="evenodd" fill-opacity="0.5" stroke="#000000" stroke-opacity="0.5" stroke-width="3.2"/>
<circle clip-path="url(#clip812)" cx="1831.27" cy="484.33" r="14.4" fill="#009af9" fill-rule="evenodd" fill-opacity="0.5" stroke="#000000" stroke-opacity="0.5" stroke-width="3.2"/>
<circle clip-path="url(#clip812)" cx="1015.22" cy="378.782" r="14.4" fill="#009af9" fill-rule="evenodd" fill-opacity="0.5" stroke="#000000" stroke-opacity="0.5" stroke-width="3.2"/>
<circle clip-path="url(#clip812)" cx="1292.36" cy="87.9763" r="14.4" fill="#009af9" fill-rule="evenodd" fill-opacity="0.5" stroke="#000000" stroke-opacity="0.5" stroke-width="3.2"/>
<circle clip-path="url(#clip812)" cx="915.876" cy="911.148" r="14.4" fill="#009af9" fill-rule="evenodd" fill-opacity="0.5" stroke="#000000" stroke-opacity="0.5" stroke-width="3.2"/>
<circle clip-path="url(#clip812)" cx="903.186" cy="456.788" r="14.4" fill="#009af9" fill-rule="evenodd" fill-opacity="0.5" stroke="#000000" stroke-opacity="0.5" stroke-width="3.2"/>
<circle clip-path="url(#clip812)" cx="1970.44" cy="459.22" r="14.4" fill="#009af9" fill-rule="evenodd" fill-opacity="0.5" stroke="#000000" stroke-opacity="0.5" stroke-width="3.2"/>
<circle clip-path="url(#clip812)" cx="330.98" cy="573.588" r="14.4" fill="#009af9" fill-rule="evenodd" fill-opacity="0.5" stroke="#000000" stroke-opacity="0.5" stroke-width="3.2"/>
<circle clip-path="url(#clip812)" cx="2290.36" cy="511.809" r="14.4" fill="#009af9" fill-rule="evenodd" fill-opacity="0.5" stroke="#000000" stroke-opacity="0.5" stroke-width="3.2"/>
<circle clip-path="url(#clip812)" cx="673.393" cy="379.412" r="14.4" fill="#009af9" fill-rule="evenodd" fill-opacity="0.5" stroke="#000000" stroke-opacity="0.5" stroke-width="3.2"/>
<circle clip-path="url(#clip812)" cx="1735.91" cy="513.871" r="14.4" fill="#009af9" fill-rule="evenodd" fill-opacity="0.5" stroke="#000000" stroke-opacity="0.5" stroke-width="3.2"/>
<circle clip-path="url(#clip812)" cx="1026.59" cy="612.423" r="14.4" fill="#009af9" fill-rule="evenodd" fill-opacity="0.5" stroke="#000000" stroke-opacity="0.5" stroke-width="3.2"/>
<circle clip-path="url(#clip812)" cx="1208.88" cy="662.987" r="14.4" fill="#009af9" fill-rule="evenodd" fill-opacity="0.5" stroke="#000000" stroke-opacity="0.5" stroke-width="3.2"/>
<circle clip-path="url(#clip812)" cx="730.317" cy="761.206" r="14.4" fill="#009af9" fill-rule="evenodd" fill-opacity="0.5" stroke="#000000" stroke-opacity="0.5" stroke-width="3.2"/>
<circle clip-path="url(#clip812)" cx="566.193" cy="448.896" r="14.4" fill="#009af9" fill-rule="evenodd" fill-opacity="0.5" stroke="#000000" stroke-opacity="0.5" stroke-width="3.2"/>
<path clip-path="url(#clip812)" d="M210.454 422.395 L438.217 1445.72 L2290.36 511.809 L1292.36 87.9763 L979.64 177.614 L210.454 422.395 L210.454 422.395  Z" fill="#e26f46" fill-rule="evenodd" fill-opacity="0.2"/>
<polyline clip-path="url(#clip812)" style="stroke:#000000; stroke-linecap:round; stroke-linejoin:round; stroke-width:4; stroke-opacity:0.2; fill:none" points="210.454,422.395 438.217,1445.72 2290.36,511.809 1292.36,87.9763 979.64,177.614 210.454,422.395 "/>
</svg>
