<?xml version="1.0" encoding="utf-8"?>
<svg xmlns="http://www.w3.org/2000/svg" xmlns:xlink="http://www.w3.org/1999/xlink" width="600" height="400" viewBox="0 0 2400 1600">
<defs>
  <clipPath id="clip030">
    <rect x="0" y="0" width="2400" height="1600"/>
  </clipPath>
</defs>
<path clip-path="url(#clip030)" d="M0 1600 L2400 1600 L2400 0 L0 0  Z" fill="#ffffff" fill-rule="evenodd" fill-opacity="1"/>
<defs>
  <clipPath id="clip031">
    <rect x="480" y="0" width="1681" height="1600"/>
  </clipPath>
</defs>
<path clip-path="url(#clip030)" d="M147.478 1486.45 L2352.76 1486.45 L2352.76 47.2441 L147.478 47.2441  Z" fill="#ffffff" fill-rule="evenodd" fill-opacity="1"/>
<defs>
  <clipPath id="clip032">
    <rect x="147" y="47" width="2206" height="1440"/>
  </clipPath>
</defs>
<polyline clip-path="url(#clip032)" style="stroke:#000000; stroke-linecap:round; stroke-linejoin:round; stroke-width:2; stroke-opacity:0.1; fill:none" points="318.648,1486.45 318.648,47.2441 "/>
<polyline clip-path="url(#clip032)" style="stroke:#000000; stroke-linecap:round; stroke-linejoin:round; stroke-width:2; stroke-opacity:0.1; fill:none" points="886.794,1486.45 886.794,47.2441 "/>
<polyline clip-path="url(#clip032)" style="stroke:#000000; stroke-linecap:round; stroke-linejoin:round; stroke-width:2; stroke-opacity:0.1; fill:none" points="1454.94,1486.45 1454.94,47.2441 "/>
<polyline clip-path="url(#clip032)" style="stroke:#000000; stroke-linecap:round; stroke-linejoin:round; stroke-width:2; stroke-opacity:0.1; fill:none" points="2023.08,1486.45 2023.08,47.2441 "/>
<polyline clip-path="url(#clip032)" style="stroke:#000000; stroke-linecap:round; stroke-linejoin:round; stroke-width:2; stroke-opacity:0.1; fill:none" points="147.478,1334.15 2352.76,1334.15 "/>
<polyline clip-path="url(#clip032)" style="stroke:#000000; stroke-linecap:round; stroke-linejoin:round; stroke-width:2; stroke-opacity:0.1; fill:none" points="147.478,1083.62 2352.76,1083.62 "/>
<polyline clip-path="url(#clip032)" style="stroke:#000000; stroke-linecap:round; stroke-linejoin:round; stroke-width:2; stroke-opacity:0.1; fill:none" points="147.478,833.094 2352.76,833.094 "/>
<polyline clip-path="url(#clip032)" style="stroke:#000000; stroke-linecap:round; stroke-linejoin:round; stroke-width:2; stroke-opacity:0.1; fill:none" points="147.478,582.568 2352.76,582.568 "/>
<polyline clip-path="url(#clip032)" style="stroke:#000000; stroke-linecap:round; stroke-linejoin:round; stroke-width:2; stroke-opacity:0.1; fill:none" points="147.478,332.042 2352.76,332.042 "/>
<polyline clip-path="url(#clip032)" style="stroke:#000000; stroke-linecap:round; stroke-linejoin:round; stroke-width:2; stroke-opacity:0.1; fill:none" points="147.478,81.5153 2352.76,81.5153 "/>
<polyline clip-path="url(#clip030)" style="stroke:#000000; stroke-linecap:round; stroke-linejoin:round; stroke-width:4; stroke-opacity:1; fill:none" points="147.478,1486.45 2352.76,1486.45 "/>
<polyline clip-path="url(#clip030)" style="stroke:#000000; stroke-linecap:round; stroke-linejoin:round; stroke-width:4; stroke-opacity:1; fill:none" points="318.648,1486.45 318.648,1467.55 "/>
<polyline clip-path="url(#clip030)" style="stroke:#000000; stroke-linecap:round; stroke-linejoin:round; stroke-width:4; stroke-opacity:1; fill:none" points="886.794,1486.45 886.794,1467.55 "/>
<polyline clip-path="url(#clip030)" style="stroke:#000000; stroke-linecap:round; stroke-linejoin:round; stroke-width:4; stroke-opacity:1; fill:none" points="1454.94,1486.45 1454.94,1467.55 "/>
<polyline clip-path="url(#clip030)" style="stroke:#000000; stroke-linecap:round; stroke-linejoin:round; stroke-width:4; stroke-opacity:1; fill:none" points="2023.08,1486.45 2023.08,1467.55 "/>
<path clip-path="url(#clip030)" d="M288.591 1532.02 L318.266 1532.02 L318.266 1535.95 L288.591 1535.95 L288.591 1532.02 Z" fill="#000000" fill-rule="nonzero" fill-opacity="1" /><path clip-path="url(#clip030)" d="M332.387 1544.91 L348.706 1544.91 L348.706 1548.85 L326.762 1548.85 L326.762 1544.91 Q329.424 1542.16 334.007 1537.53 Q338.614 1532.88 339.794 1531.53 Q342.04 1529.01 342.919 1527.27 Q343.822 1525.51 343.822 1523.82 Q343.822 1521.07 341.877 1519.33 Q339.956 1517.6 336.854 1517.6 Q334.655 1517.6 332.202 1518.36 Q329.771 1519.13 326.993 1520.68 L326.993 1515.95 Q329.817 1514.82 332.271 1514.24 Q334.725 1513.66 336.762 1513.66 Q342.132 1513.66 345.327 1516.35 Q348.521 1519.03 348.521 1523.52 Q348.521 1525.65 347.711 1527.57 Q346.924 1529.47 344.817 1532.07 Q344.239 1532.74 341.137 1535.95 Q338.035 1539.15 332.387 1544.91 Z" fill="#000000" fill-rule="nonzero" fill-opacity="1" /><path clip-path="url(#clip030)" d="M856.551 1532.02 L886.227 1532.02 L886.227 1535.95 L856.551 1535.95 L856.551 1532.02 Z" fill="#000000" fill-rule="nonzero" fill-opacity="1" /><path clip-path="url(#clip030)" d="M897.13 1544.91 L904.768 1544.91 L904.768 1518.55 L896.458 1520.21 L896.458 1515.95 L904.722 1514.29 L909.398 1514.29 L909.398 1544.91 L917.037 1544.91 L917.037 1548.85 L897.13 1548.85 L897.13 1544.91 Z" fill="#000000" fill-rule="nonzero" fill-opacity="1" /><path clip-path="url(#clip030)" d="M1454.94 1517.37 Q1451.33 1517.37 1449.5 1520.93 Q1447.69 1524.47 1447.69 1531.6 Q1447.69 1538.71 1449.5 1542.27 Q1451.33 1545.82 1454.94 1545.82 Q1458.57 1545.82 1460.38 1542.27 Q1462.21 1538.71 1462.21 1531.6 Q1462.21 1524.47 1460.38 1520.93 Q1458.57 1517.37 1454.94 1517.37 M1454.94 1513.66 Q1460.75 1513.66 1463.81 1518.27 Q1466.88 1522.85 1466.88 1531.6 Q1466.88 1540.33 1463.81 1544.94 Q1460.75 1549.52 1454.94 1549.52 Q1449.13 1549.52 1446.05 1544.94 Q1443 1540.33 1443 1531.6 Q1443 1522.85 1446.05 1518.27 Q1449.13 1513.66 1454.94 1513.66 Z" fill="#000000" fill-rule="nonzero" fill-opacity="1" /><path clip-path="url(#clip030)" d="M2013.47 1544.91 L2021.11 1544.91 L2021.11 1518.55 L2012.8 1520.21 L2012.8 1515.95 L2021.06 1514.29 L2025.74 1514.29 L2025.74 1544.91 L2033.37 1544.91 L2033.37 1548.85 L2013.47 1548.85 L2013.47 1544.91 Z" fill="#000000" fill-rule="nonzero" fill-opacity="1" /><polyline clip-path="url(#clip030)" style="stroke:#000000; stroke-linecap:round; stroke-linejoin:round; stroke-width:4; stroke-opacity:1; fill:none" points="147.478,1486.45 147.478,47.2441 "/>
<polyline clip-path="url(#clip030)" style="stroke:#000000; stroke-linecap:round; stroke-linejoin:round; stroke-width:4; stroke-opacity:1; fill:none" points="147.478,1334.15 166.376,1334.15 "/>
<polyline clip-path="url(#clip030)" style="stroke:#000000; stroke-linecap:round; stroke-linejoin:round; stroke-width:4; stroke-opacity:1; fill:none" points="147.478,1083.62 166.376,1083.62 "/>
<polyline clip-path="url(#clip030)" style="stroke:#000000; stroke-linecap:round; stroke-linejoin:round; stroke-width:4; stroke-opacity:1; fill:none" points="147.478,833.094 166.376,833.094 "/>
<polyline clip-path="url(#clip030)" style="stroke:#000000; stroke-linecap:round; stroke-linejoin:round; stroke-width:4; stroke-opacity:1; fill:none" points="147.478,582.568 166.376,582.568 "/>
<polyline clip-path="url(#clip030)" style="stroke:#000000; stroke-linecap:round; stroke-linejoin:round; stroke-width:4; stroke-opacity:1; fill:none" points="147.478,332.042 166.376,332.042 "/>
<polyline clip-path="url(#clip030)" style="stroke:#000000; stroke-linecap:round; stroke-linejoin:round; stroke-width:4; stroke-opacity:1; fill:none" points="147.478,81.5153 166.376,81.5153 "/>
<path clip-path="url(#clip030)" d="M51.3625 1334.6 L81.0383 1334.6 L81.0383 1338.53 L51.3625 1338.53 L51.3625 1334.6 Z" fill="#000000" fill-rule="nonzero" fill-opacity="1" /><path clip-path="url(#clip030)" d="M95.1586 1347.49 L111.478 1347.49 L111.478 1351.43 L89.5336 1351.43 L89.5336 1347.49 Q92.1956 1344.74 96.7789 1340.11 Q101.385 1335.45 102.566 1334.11 Q104.811 1331.59 105.691 1329.85 Q106.594 1328.09 106.594 1326.4 Q106.594 1323.65 104.649 1321.91 Q102.728 1320.18 99.6261 1320.18 Q97.4271 1320.18 94.9734 1320.94 Q92.5428 1321.7 89.7651 1323.26 L89.7651 1318.53 Q92.5891 1317.4 95.0428 1316.82 Q97.4965 1316.24 99.5335 1316.24 Q104.904 1316.24 108.098 1318.93 Q111.293 1321.61 111.293 1326.1 Q111.293 1328.23 110.483 1330.15 Q109.696 1332.05 107.589 1334.64 Q107.01 1335.32 103.909 1338.53 Q100.807 1341.73 95.1586 1347.49 Z" fill="#000000" fill-rule="nonzero" fill-opacity="1" /><path clip-path="url(#clip030)" d="M50.9921 1084.07 L80.6679 1084.07 L80.6679 1088.01 L50.9921 1088.01 L50.9921 1084.07 Z" fill="#000000" fill-rule="nonzero" fill-opacity="1" /><path clip-path="url(#clip030)" d="M91.5706 1096.97 L99.2095 1096.97 L99.2095 1070.6 L90.8993 1072.27 L90.8993 1068.01 L99.1632 1066.34 L103.839 1066.34 L103.839 1096.97 L111.478 1096.97 L111.478 1100.9 L91.5706 1100.9 L91.5706 1096.97 Z" fill="#000000" fill-rule="nonzero" fill-opacity="1" /><path clip-path="url(#clip030)" d="M99.5335 818.893 Q95.9224 818.893 94.0937 822.458 Q92.2882 825.999 92.2882 833.129 Q92.2882 840.235 94.0937 843.8 Q95.9224 847.342 99.5335 847.342 Q103.168 847.342 104.973 843.8 Q106.802 840.235 106.802 833.129 Q106.802 825.999 104.973 822.458 Q103.168 818.893 99.5335 818.893 M99.5335 815.189 Q105.344 815.189 108.399 819.796 Q111.478 824.379 111.478 833.129 Q111.478 841.856 108.399 846.462 Q105.344 851.046 99.5335 851.046 Q93.7234 851.046 90.6447 846.462 Q87.5892 841.856 87.5892 833.129 Q87.5892 824.379 90.6447 819.796 Q93.7234 815.189 99.5335 815.189 Z" fill="#000000" fill-rule="nonzero" fill-opacity="1" /><path clip-path="url(#clip030)" d="M91.5706 595.913 L99.2095 595.913 L99.2095 569.547 L90.8993 571.214 L90.8993 566.955 L99.1632 565.288 L103.839 565.288 L103.839 595.913 L111.478 595.913 L111.478 599.848 L91.5706 599.848 L91.5706 595.913 Z" fill="#000000" fill-rule="nonzero" fill-opacity="1" /><path clip-path="url(#clip030)" d="M95.1586 345.386 L111.478 345.386 L111.478 349.322 L89.5336 349.322 L89.5336 345.386 Q92.1956 342.632 96.7789 338.002 Q101.385 333.349 102.566 332.007 Q104.811 329.484 105.691 327.748 Q106.594 325.988 106.594 324.299 Q106.594 321.544 104.649 319.808 Q102.728 318.072 99.6261 318.072 Q97.4271 318.072 94.9734 318.836 Q92.5428 319.6 89.7651 321.15 L89.7651 316.428 Q92.5891 315.294 95.0428 314.715 Q97.4965 314.137 99.5335 314.137 Q104.904 314.137 108.098 316.822 Q111.293 319.507 111.293 323.998 Q111.293 326.127 110.483 328.049 Q109.696 329.947 107.589 332.539 Q107.01 333.211 103.909 336.428 Q100.807 339.623 95.1586 345.386 Z" fill="#000000" fill-rule="nonzero" fill-opacity="1" /><path clip-path="url(#clip030)" d="M104.348 80.1611 Q107.705 80.8787 109.58 83.1472 Q111.478 85.4157 111.478 88.749 Q111.478 93.8648 107.959 96.6657 Q104.441 99.4666 97.9595 99.4666 Q95.7836 99.4666 93.4688 99.0268 Q91.1771 98.6101 88.7234 97.7536 L88.7234 93.2398 Q90.6678 94.374 92.9826 94.9527 Q95.2974 95.5314 97.8206 95.5314 Q102.219 95.5314 104.51 93.7953 Q106.825 92.0592 106.825 88.749 Q106.825 85.6935 104.672 83.9805 Q102.543 82.2444 98.7234 82.2444 L94.6956 82.2444 L94.6956 78.4019 L98.9085 78.4019 Q102.358 78.4019 104.186 77.0361 Q106.015 75.6473 106.015 73.0547 Q106.015 70.3927 104.117 68.9806 Q102.242 67.5454 98.7234 67.5454 Q96.8021 67.5454 94.603 67.9621 Q92.4039 68.3788 89.7651 69.2584 L89.7651 65.0918 Q92.4271 64.351 94.7419 63.9807 Q97.0798 63.6103 99.14 63.6103 Q104.464 63.6103 107.566 66.0408 Q110.668 68.4482 110.668 72.5686 Q110.668 75.4389 109.024 77.4297 Q107.381 79.3972 104.348 80.1611 Z" fill="#000000" fill-rule="nonzero" fill-opacity="1" /><circle clip-path="url(#clip032)" cx="1184.62" cy="890.469" r="14.4" fill="#009af9" fill-rule="evenodd" fill-opacity="0.5" stroke="#000000" stroke-opacity="0.5" stroke-width="3.2"/>
<circle clip-path="url(#clip032)" cx="718.458" cy="568.565" r="14.4" fill="#009af9" fill-rule="evenodd" fill-opacity="0.5" stroke="#000000" stroke-opacity="0.5" stroke-width="3.2"/>
<circle clip-path="url(#clip032)" cx="1513.68" cy="942.131" r="14.4" fill="#009af9" fill-rule="evenodd" fill-opacity="0.5" stroke="#000000" stroke-opacity="0.5" stroke-width="3.2"/>
<circle clip-path="url(#clip032)" cx="1693.85" cy="1052.56" r="14.4" fill="#009af9" fill-rule="evenodd" fill-opacity="0.5" stroke="#000000" stroke-opacity="0.5" stroke-width="3.2"/>
<circle clip-path="url(#clip032)" cx="2043.41" cy="862" r="14.4" fill="#009af9" fill-rule="evenodd" fill-opacity="0.5" stroke="#000000" stroke-opacity="0.5" stroke-width="3.2"/>
<circle clip-path="url(#clip032)" cx="1899.35" cy="720.857" r="14.4" fill="#009af9" fill-rule="evenodd" fill-opacity="0.5" stroke="#000000" stroke-opacity="0.5" stroke-width="3.2"/>
<circle clip-path="url(#clip032)" cx="1734.53" cy="505.931" r="14.4" fill="#009af9" fill-rule="evenodd" fill-opacity="0.5" stroke="#000000" stroke-opacity="0.5" stroke-width="3.2"/>
<circle clip-path="url(#clip032)" cx="1028.9" cy="879.738" r="14.4" fill="#009af9" fill-rule="evenodd" fill-opacity="0.5" stroke="#000000" stroke-opacity="0.5" stroke-width="3.2"/>
<circle clip-path="url(#clip032)" cx="1597.74" cy="989.384" r="14.4" fill="#009af9" fill-rule="evenodd" fill-opacity="0.5" stroke="#000000" stroke-opacity="0.5" stroke-width="3.2"/>
<circle clip-path="url(#clip032)" cx="209.891" cy="1218.84" r="14.4" fill="#009af9" fill-rule="evenodd" fill-opacity="0.5" stroke="#000000" stroke-opacity="0.5" stroke-width="3.2"/>
<circle clip-path="url(#clip032)" cx="896.162" cy="1014.08" r="14.4" fill="#009af9" fill-rule="evenodd" fill-opacity="0.5" stroke="#000000" stroke-opacity="0.5" stroke-width="3.2"/>
<circle clip-path="url(#clip032)" cx="524.662" cy="1169.76" r="14.4" fill="#009af9" fill-rule="evenodd" fill-opacity="0.5" stroke="#000000" stroke-opacity="0.5" stroke-width="3.2"/>
<circle clip-path="url(#clip032)" cx="1123.49" cy="389.68" r="14.4" fill="#009af9" fill-rule="evenodd" fill-opacity="0.5" stroke="#000000" stroke-opacity="0.5" stroke-width="3.2"/>
<circle clip-path="url(#clip032)" cx="860.355" cy="1028.26" r="14.4" fill="#009af9" fill-rule="evenodd" fill-opacity="0.5" stroke="#000000" stroke-opacity="0.5" stroke-width="3.2"/>
<circle clip-path="url(#clip032)" cx="1271.18" cy="528.542" r="14.4" fill="#009af9" fill-rule="evenodd" fill-opacity="0.5" stroke="#000000" stroke-opacity="0.5" stroke-width="3.2"/>
<circle clip-path="url(#clip032)" cx="1290.08" cy="1100.63" r="14.4" fill="#009af9" fill-rule="evenodd" fill-opacity="0.5" stroke="#000000" stroke-opacity="0.5" stroke-width="3.2"/>
<circle clip-path="url(#clip032)" cx="2290.34" cy="1148.92" r="14.4" fill="#009af9" fill-rule="evenodd" fill-opacity="0.5" stroke="#000000" stroke-opacity="0.5" stroke-width="3.2"/>
<circle clip-path="url(#clip032)" cx="1138.24" cy="87.9763" r="14.4" fill="#009af9" fill-rule="evenodd" fill-opacity="0.5" stroke="#000000" stroke-opacity="0.5" stroke-width="3.2"/>
<circle clip-path="url(#clip032)" cx="1345.5" cy="623.217" r="14.4" fill="#009af9" fill-rule="evenodd" fill-opacity="0.5" stroke="#000000" stroke-opacity="0.5" stroke-width="3.2"/>
<circle clip-path="url(#clip032)" cx="1975.52" cy="831.674" r="14.4" fill="#009af9" fill-rule="evenodd" fill-opacity="0.5" stroke="#000000" stroke-opacity="0.5" stroke-width="3.2"/>
<circle clip-path="url(#clip032)" cx="2270.88" cy="1032.8" r="14.4" fill="#009af9" fill-rule="evenodd" fill-opacity="0.5" stroke="#000000" stroke-opacity="0.5" stroke-width="3.2"/>
<circle clip-path="url(#clip032)" cx="1025.78" cy="845.042" r="14.4" fill="#009af9" fill-rule="evenodd" fill-opacity="0.5" stroke="#000000" stroke-opacity="0.5" stroke-width="3.2"/>
<circle clip-path="url(#clip032)" cx="1881.17" cy="827.728" r="14.4" fill="#009af9" fill-rule="evenodd" fill-opacity="0.5" stroke="#000000" stroke-opacity="0.5" stroke-width="3.2"/>
<circle clip-path="url(#clip032)" cx="2084.85" cy="953.553" r="14.4" fill="#009af9" fill-rule="evenodd" fill-opacity="0.5" stroke="#000000" stroke-opacity="0.5" stroke-width="3.2"/>
<circle clip-path="url(#clip032)" cx="2010.36" cy="1187.41" r="14.4" fill="#009af9" fill-rule="evenodd" fill-opacity="0.5" stroke="#000000" stroke-opacity="0.5" stroke-width="3.2"/>
<circle clip-path="url(#clip032)" cx="1197.13" cy="641.445" r="14.4" fill="#009af9" fill-rule="evenodd" fill-opacity="0.5" stroke="#000000" stroke-opacity="0.5" stroke-width="3.2"/>
<circle clip-path="url(#clip032)" cx="1504.74" cy="1159.43" r="14.4" fill="#009af9" fill-rule="evenodd" fill-opacity="0.5" stroke="#000000" stroke-opacity="0.5" stroke-width="3.2"/>
<circle clip-path="url(#clip032)" cx="2219.18" cy="1445.72" r="14.4" fill="#009af9" fill-rule="evenodd" fill-opacity="0.5" stroke="#000000" stroke-opacity="0.5" stroke-width="3.2"/>
<circle clip-path="url(#clip032)" cx="952.154" cy="1252.69" r="14.4" fill="#009af9" fill-rule="evenodd" fill-opacity="0.5" stroke="#000000" stroke-opacity="0.5" stroke-width="3.2"/>
<circle clip-path="url(#clip032)" cx="1780.76" cy="816.55" r="14.4" fill="#009af9" fill-rule="evenodd" fill-opacity="0.5" stroke="#000000" stroke-opacity="0.5" stroke-width="3.2"/>
<path clip-path="url(#clip032)" d="M209.891 1218.84 L2219.18 1445.72 L2290.34 1148.92 L2270.88 1032.8 L1734.53 505.931 L1138.24 87.9763 L718.458 568.565 L209.891 1218.84 L209.891 1218.84  Z" fill="#e26f46" fill-rule="evenodd" fill-opacity="0.2"/>
<polyline clip-path="url(#clip032)" style="stroke:#000000; stroke-linecap:round; stroke-linejoin:round; stroke-width:4; stroke-opacity:0.2; fill:none" points="209.891,1218.84 2219.18,1445.72 2290.34,1148.92 2270.88,1032.8 1734.53,505.931 1138.24,87.9763 718.458,568.565 209.891,1218.84 "/>
</svg>
