<?xml version="1.0" encoding="utf-8"?>
<svg xmlns="http://www.w3.org/2000/svg" xmlns:xlink="http://www.w3.org/1999/xlink" width="600" height="400" viewBox="0 0 2400 1600">
<defs>
  <clipPath id="clip530">
    <rect x="0" y="0" width="2400" height="1600"/>
  </clipPath>
</defs>
<path clip-path="url(#clip530)" d="M0 1600 L2400 1600 L2400 0 L0 0  Z" fill="#ffffff" fill-rule="evenodd" fill-opacity="1"/>
<defs>
  <clipPath id="clip531">
    <rect x="480" y="0" width="1681" height="1600"/>
  </clipPath>
</defs>
<path clip-path="url(#clip530)" d="M147.478 1486.45 L2352.76 1486.45 L2352.76 47.2441 L147.478 47.2441  Z" fill="#ffffff" fill-rule="evenodd" fill-opacity="1"/>
<defs>
  <clipPath id="clip532">
    <rect x="147" y="47" width="2206" height="1440"/>
  </clipPath>
</defs>
<polyline clip-path="url(#clip532)" style="stroke:#000000; stroke-linecap:round; stroke-linejoin:round; stroke-width:2; stroke-opacity:0.1; fill:none" points="216.753,1486.45 216.753,47.2441 "/>
<polyline clip-path="url(#clip532)" style="stroke:#000000; stroke-linecap:round; stroke-linejoin:round; stroke-width:2; stroke-opacity:0.1; fill:none" points="733.466,1486.45 733.466,47.2441 "/>
<polyline clip-path="url(#clip532)" style="stroke:#000000; stroke-linecap:round; stroke-linejoin:round; stroke-width:2; stroke-opacity:0.1; fill:none" points="1250.18,1486.45 1250.18,47.2441 "/>
<polyline clip-path="url(#clip532)" style="stroke:#000000; stroke-linecap:round; stroke-linejoin:round; stroke-width:2; stroke-opacity:0.1; fill:none" points="1766.89,1486.45 1766.89,47.2441 "/>
<polyline clip-path="url(#clip532)" style="stroke:#000000; stroke-linecap:round; stroke-linejoin:round; stroke-width:2; stroke-opacity:0.1; fill:none" points="2283.61,1486.45 2283.61,47.2441 "/>
<polyline clip-path="url(#clip532)" style="stroke:#000000; stroke-linecap:round; stroke-linejoin:round; stroke-width:2; stroke-opacity:0.1; fill:none" points="147.478,1348.01 2352.76,1348.01 "/>
<polyline clip-path="url(#clip532)" style="stroke:#000000; stroke-linecap:round; stroke-linejoin:round; stroke-width:2; stroke-opacity:0.1; fill:none" points="147.478,1079.74 2352.76,1079.74 "/>
<polyline clip-path="url(#clip532)" style="stroke:#000000; stroke-linecap:round; stroke-linejoin:round; stroke-width:2; stroke-opacity:0.1; fill:none" points="147.478,811.467 2352.76,811.467 "/>
<polyline clip-path="url(#clip532)" style="stroke:#000000; stroke-linecap:round; stroke-linejoin:round; stroke-width:2; stroke-opacity:0.1; fill:none" points="147.478,543.194 2352.76,543.194 "/>
<polyline clip-path="url(#clip532)" style="stroke:#000000; stroke-linecap:round; stroke-linejoin:round; stroke-width:2; stroke-opacity:0.1; fill:none" points="147.478,274.922 2352.76,274.922 "/>
<polyline clip-path="url(#clip530)" style="stroke:#000000; stroke-linecap:round; stroke-linejoin:round; stroke-width:4; stroke-opacity:1; fill:none" points="147.478,1486.45 2352.76,1486.45 "/>
<polyline clip-path="url(#clip530)" style="stroke:#000000; stroke-linecap:round; stroke-linejoin:round; stroke-width:4; stroke-opacity:1; fill:none" points="216.753,1486.45 216.753,1467.55 "/>
<polyline clip-path="url(#clip530)" style="stroke:#000000; stroke-linecap:round; stroke-linejoin:round; stroke-width:4; stroke-opacity:1; fill:none" points="733.466,1486.45 733.466,1467.55 "/>
<polyline clip-path="url(#clip530)" style="stroke:#000000; stroke-linecap:round; stroke-linejoin:round; stroke-width:4; stroke-opacity:1; fill:none" points="1250.18,1486.45 1250.18,1467.55 "/>
<polyline clip-path="url(#clip530)" style="stroke:#000000; stroke-linecap:round; stroke-linejoin:round; stroke-width:4; stroke-opacity:1; fill:none" points="1766.89,1486.45 1766.89,1467.55 "/>
<polyline clip-path="url(#clip530)" style="stroke:#000000; stroke-linecap:round; stroke-linejoin:round; stroke-width:4; stroke-opacity:1; fill:none" points="2283.61,1486.45 2283.61,1467.55 "/>
<path clip-path="url(#clip530)" d="M186.695 1532.02 L216.371 1532.02 L216.371 1535.95 L186.695 1535.95 L186.695 1532.02 Z" fill="#000000" fill-rule="nonzero" fill-opacity="1" /><path clip-path="url(#clip530)" d="M230.491 1544.91 L246.811 1544.91 L246.811 1548.85 L224.867 1548.85 L224.867 1544.91 Q227.529 1542.16 232.112 1537.53 Q236.718 1532.88 237.899 1531.53 Q240.144 1529.01 241.024 1527.27 Q241.927 1525.51 241.927 1523.82 Q241.927 1521.07 239.982 1519.33 Q238.061 1517.6 234.959 1517.6 Q232.76 1517.6 230.306 1518.36 Q227.876 1519.13 225.098 1520.68 L225.098 1515.95 Q227.922 1514.82 230.376 1514.24 Q232.829 1513.66 234.866 1513.66 Q240.237 1513.66 243.431 1516.35 Q246.626 1519.03 246.626 1523.52 Q246.626 1525.65 245.815 1527.57 Q245.028 1529.47 242.922 1532.07 Q242.343 1532.74 239.241 1535.95 Q236.14 1539.15 230.491 1544.91 Z" fill="#000000" fill-rule="nonzero" fill-opacity="1" /><path clip-path="url(#clip530)" d="M703.224 1532.02 L732.899 1532.02 L732.899 1535.95 L703.224 1535.95 L703.224 1532.02 Z" fill="#000000" fill-rule="nonzero" fill-opacity="1" /><path clip-path="url(#clip530)" d="M743.802 1544.91 L751.441 1544.91 L751.441 1518.55 L743.131 1520.21 L743.131 1515.95 L751.395 1514.29 L756.07 1514.29 L756.07 1544.91 L763.709 1544.91 L763.709 1548.85 L743.802 1548.85 L743.802 1544.91 Z" fill="#000000" fill-rule="nonzero" fill-opacity="1" /><path clip-path="url(#clip530)" d="M1250.18 1517.37 Q1246.57 1517.37 1244.74 1520.93 Q1242.93 1524.47 1242.93 1531.6 Q1242.93 1538.71 1244.74 1542.27 Q1246.57 1545.82 1250.18 1545.82 Q1253.81 1545.82 1255.62 1542.27 Q1257.45 1538.71 1257.45 1531.6 Q1257.45 1524.47 1255.62 1520.93 Q1253.81 1517.37 1250.18 1517.37 M1250.18 1513.66 Q1255.99 1513.66 1259.05 1518.27 Q1262.12 1522.85 1262.12 1531.6 Q1262.12 1540.33 1259.05 1544.94 Q1255.99 1549.52 1250.18 1549.52 Q1244.37 1549.52 1241.29 1544.94 Q1238.24 1540.33 1238.24 1531.6 Q1238.24 1522.85 1241.29 1518.27 Q1244.37 1513.66 1250.18 1513.66 Z" fill="#000000" fill-rule="nonzero" fill-opacity="1" /><path clip-path="url(#clip530)" d="M1757.27 1544.91 L1764.91 1544.91 L1764.91 1518.55 L1756.6 1520.21 L1756.6 1515.95 L1764.87 1514.29 L1769.54 1514.29 L1769.54 1544.91 L1777.18 1544.91 L1777.18 1548.85 L1757.27 1548.85 L1757.27 1544.91 Z" fill="#000000" fill-rule="nonzero" fill-opacity="1" /><path clip-path="url(#clip530)" d="M2278.26 1544.91 L2294.58 1544.91 L2294.58 1548.85 L2272.63 1548.85 L2272.63 1544.91 Q2275.3 1542.16 2279.88 1537.53 Q2284.49 1532.88 2285.67 1531.53 Q2287.91 1529.01 2288.79 1527.27 Q2289.69 1525.51 2289.69 1523.82 Q2289.69 1521.07 2287.75 1519.33 Q2285.83 1517.6 2282.73 1517.6 Q2280.53 1517.6 2278.07 1518.36 Q2275.64 1519.13 2272.87 1520.68 L2272.87 1515.95 Q2275.69 1514.82 2278.14 1514.24 Q2280.6 1513.66 2282.63 1513.66 Q2288 1513.66 2291.2 1516.35 Q2294.39 1519.03 2294.39 1523.52 Q2294.39 1525.65 2293.58 1527.57 Q2292.8 1529.47 2290.69 1532.07 Q2290.11 1532.74 2287.01 1535.95 Q2283.91 1539.15 2278.26 1544.91 Z" fill="#000000" fill-rule="nonzero" fill-opacity="1" /><polyline clip-path="url(#clip530)" style="stroke:#000000; stroke-linecap:round; stroke-linejoin:round; stroke-width:4; stroke-opacity:1; fill:none" points="147.478,1486.45 147.478,47.2441 "/>
<polyline clip-path="url(#clip530)" style="stroke:#000000; stroke-linecap:round; stroke-linejoin:round; stroke-width:4; stroke-opacity:1; fill:none" points="147.478,1348.01 166.376,1348.01 "/>
<polyline clip-path="url(#clip530)" style="stroke:#000000; stroke-linecap:round; stroke-linejoin:round; stroke-width:4; stroke-opacity:1; fill:none" points="147.478,1079.74 166.376,1079.74 "/>
<polyline clip-path="url(#clip530)" style="stroke:#000000; stroke-linecap:round; stroke-linejoin:round; stroke-width:4; stroke-opacity:1; fill:none" points="147.478,811.467 166.376,811.467 "/>
<polyline clip-path="url(#clip530)" style="stroke:#000000; stroke-linecap:round; stroke-linejoin:round; stroke-width:4; stroke-opacity:1; fill:none" points="147.478,543.194 166.376,543.194 "/>
<polyline clip-path="url(#clip530)" style="stroke:#000000; stroke-linecap:round; stroke-linejoin:round; stroke-width:4; stroke-opacity:1; fill:none" points="147.478,274.922 166.376,274.922 "/>
<path clip-path="url(#clip530)" d="M51.3625 1348.46 L81.0383 1348.46 L81.0383 1352.4 L51.3625 1352.4 L51.3625 1348.46 Z" fill="#000000" fill-rule="nonzero" fill-opacity="1" /><path clip-path="url(#clip530)" d="M95.1586 1361.36 L111.478 1361.36 L111.478 1365.29 L89.5336 1365.29 L89.5336 1361.36 Q92.1956 1358.6 96.7789 1353.97 Q101.385 1349.32 102.566 1347.98 Q104.811 1345.45 105.691 1343.72 Q106.594 1341.96 106.594 1340.27 Q106.594 1337.51 104.649 1335.78 Q102.728 1334.04 99.6261 1334.04 Q97.4271 1334.04 94.9734 1334.81 Q92.5428 1335.57 89.7651 1337.12 L89.7651 1332.4 Q92.5891 1331.26 95.0428 1330.68 Q97.4965 1330.11 99.5335 1330.11 Q104.904 1330.11 108.098 1332.79 Q111.293 1335.48 111.293 1339.97 Q111.293 1342.1 110.483 1344.02 Q109.696 1345.92 107.589 1348.51 Q107.01 1349.18 103.909 1352.4 Q100.807 1355.59 95.1586 1361.36 Z" fill="#000000" fill-rule="nonzero" fill-opacity="1" /><path clip-path="url(#clip530)" d="M50.9921 1080.19 L80.6679 1080.19 L80.6679 1084.13 L50.9921 1084.13 L50.9921 1080.19 Z" fill="#000000" fill-rule="nonzero" fill-opacity="1" /><path clip-path="url(#clip530)" d="M91.5706 1093.08 L99.2095 1093.08 L99.2095 1066.72 L90.8993 1068.38 L90.8993 1064.13 L99.1632 1062.46 L103.839 1062.46 L103.839 1093.08 L111.478 1093.08 L111.478 1097.02 L91.5706 1097.02 L91.5706 1093.08 Z" fill="#000000" fill-rule="nonzero" fill-opacity="1" /><path clip-path="url(#clip530)" d="M99.5335 797.265 Q95.9224 797.265 94.0937 800.83 Q92.2882 804.372 92.2882 811.501 Q92.2882 818.608 94.0937 822.173 Q95.9224 825.714 99.5335 825.714 Q103.168 825.714 104.973 822.173 Q106.802 818.608 106.802 811.501 Q106.802 804.372 104.973 800.83 Q103.168 797.265 99.5335 797.265 M99.5335 793.562 Q105.344 793.562 108.399 798.168 Q111.478 802.751 111.478 811.501 Q111.478 820.228 108.399 824.835 Q105.344 829.418 99.5335 829.418 Q93.7234 829.418 90.6447 824.835 Q87.5892 820.228 87.5892 811.501 Q87.5892 802.751 90.6447 798.168 Q93.7234 793.562 99.5335 793.562 Z" fill="#000000" fill-rule="nonzero" fill-opacity="1" /><path clip-path="url(#clip530)" d="M91.5706 556.539 L99.2095 556.539 L99.2095 530.174 L90.8993 531.84 L90.8993 527.581 L99.1632 525.914 L103.839 525.914 L103.839 556.539 L111.478 556.539 L111.478 560.474 L91.5706 560.474 L91.5706 556.539 Z" fill="#000000" fill-rule="nonzero" fill-opacity="1" /><path clip-path="url(#clip530)" d="M95.1586 288.267 L111.478 288.267 L111.478 292.202 L89.5336 292.202 L89.5336 288.267 Q92.1956 285.512 96.7789 280.883 Q101.385 276.23 102.566 274.887 Q104.811 272.364 105.691 270.628 Q106.594 268.869 106.594 267.179 Q106.594 264.425 104.649 262.688 Q102.728 260.952 99.6261 260.952 Q97.4271 260.952 94.9734 261.716 Q92.5428 262.48 89.7651 264.031 L89.7651 259.309 Q92.5891 258.175 95.0428 257.596 Q97.4965 257.017 99.5335 257.017 Q104.904 257.017 108.098 259.702 Q111.293 262.388 111.293 266.878 Q111.293 269.008 110.483 270.929 Q109.696 272.827 107.589 275.42 Q107.01 276.091 103.909 279.309 Q100.807 282.503 95.1586 288.267 Z" fill="#000000" fill-rule="nonzero" fill-opacity="1" /><circle clip-path="url(#clip532)" cx="1847.58" cy="1162.39" r="14.4" fill="#009af9" fill-rule="evenodd" fill-opacity="0.5" stroke="#000000" stroke-opacity="0.5" stroke-width="3.2"/>
<circle clip-path="url(#clip532)" cx="1224.94" cy="427.032" r="14.4" fill="#009af9" fill-rule="evenodd" fill-opacity="0.5" stroke="#000000" stroke-opacity="0.5" stroke-width="3.2"/>
<circle clip-path="url(#clip532)" cx="794.225" cy="1020.6" r="14.4" fill="#009af9" fill-rule="evenodd" fill-opacity="0.5" stroke="#000000" stroke-opacity="0.5" stroke-width="3.2"/>
<circle clip-path="url(#clip532)" cx="1018.26" cy="629.02" r="14.4" fill="#009af9" fill-rule="evenodd" fill-opacity="0.5" stroke="#000000" stroke-opacity="0.5" stroke-width="3.2"/>
<circle clip-path="url(#clip532)" cx="798.327" cy="701.573" r="14.4" fill="#009af9" fill-rule="evenodd" fill-opacity="0.5" stroke="#000000" stroke-opacity="0.5" stroke-width="3.2"/>
<circle clip-path="url(#clip532)" cx="1627.27" cy="1026.44" r="14.4" fill="#009af9" fill-rule="evenodd" fill-opacity="0.5" stroke="#000000" stroke-opacity="0.5" stroke-width="3.2"/>
<circle clip-path="url(#clip532)" cx="350.827" cy="994.475" r="14.4" fill="#009af9" fill-rule="evenodd" fill-opacity="0.5" stroke="#000000" stroke-opacity="0.5" stroke-width="3.2"/>
<circle clip-path="url(#clip532)" cx="1828.55" cy="974.102" r="14.4" fill="#009af9" fill-rule="evenodd" fill-opacity="0.5" stroke="#000000" stroke-opacity="0.5" stroke-width="3.2"/>
<circle clip-path="url(#clip532)" cx="1000.38" cy="510.364" r="14.4" fill="#009af9" fill-rule="evenodd" fill-opacity="0.5" stroke="#000000" stroke-opacity="0.5" stroke-width="3.2"/>
<circle clip-path="url(#clip532)" cx="2290.34" cy="87.9763" r="14.4" fill="#009af9" fill-rule="evenodd" fill-opacity="0.5" stroke="#000000" stroke-opacity="0.5" stroke-width="3.2"/>
<circle clip-path="url(#clip532)" cx="1432.72" cy="871.787" r="14.4" fill="#009af9" fill-rule="evenodd" fill-opacity="0.5" stroke="#000000" stroke-opacity="0.5" stroke-width="3.2"/>
<circle clip-path="url(#clip532)" cx="564.19" cy="836.129" r="14.4" fill="#009af9" fill-rule="evenodd" fill-opacity="0.5" stroke="#000000" stroke-opacity="0.5" stroke-width="3.2"/>
<circle clip-path="url(#clip532)" cx="704.372" cy="473.194" r="14.4" fill="#009af9" fill-rule="evenodd" fill-opacity="0.5" stroke="#000000" stroke-opacity="0.5" stroke-width="3.2"/>
<circle clip-path="url(#clip532)" cx="2213.95" cy="737.287" r="14.4" fill="#009af9" fill-rule="evenodd" fill-opacity="0.5" stroke="#000000" stroke-opacity="0.5" stroke-width="3.2"/>
<circle clip-path="url(#clip532)" cx="2042.17" cy="525.121" r="14.4" fill="#009af9" fill-rule="evenodd" fill-opacity="0.5" stroke="#000000" stroke-opacity="0.5" stroke-width="3.2"/>
<circle clip-path="url(#clip532)" cx="1292.49" cy="744.264" r="14.4" fill="#009af9" fill-rule="evenodd" fill-opacity="0.5" stroke="#000000" stroke-opacity="0.5" stroke-width="3.2"/>
<circle clip-path="url(#clip532)" cx="1307.26" cy="782.762" r="14.4" fill="#009af9" fill-rule="evenodd" fill-opacity="0.5" stroke="#000000" stroke-opacity="0.5" stroke-width="3.2"/>
<circle clip-path="url(#clip532)" cx="840.979" cy="853.807" r="14.4" fill="#009af9" fill-rule="evenodd" fill-opacity="0.5" stroke="#000000" stroke-opacity="0.5" stroke-width="3.2"/>
<circle clip-path="url(#clip532)" cx="2013.71" cy="864.861" r="14.4" fill="#009af9" fill-rule="evenodd" fill-opacity="0.5" stroke="#000000" stroke-opacity="0.5" stroke-width="3.2"/>
<circle clip-path="url(#clip532)" cx="1385.91" cy="1232.31" r="14.4" fill="#009af9" fill-rule="evenodd" fill-opacity="0.5" stroke="#000000" stroke-opacity="0.5" stroke-width="3.2"/>
<circle clip-path="url(#clip532)" cx="1229.33" cy="874.797" r="14.4" fill="#009af9" fill-rule="evenodd" fill-opacity="0.5" stroke="#000000" stroke-opacity="0.5" stroke-width="3.2"/>
<circle clip-path="url(#clip532)" cx="2013.76" cy="328.058" r="14.4" fill="#009af9" fill-rule="evenodd" fill-opacity="0.5" stroke="#000000" stroke-opacity="0.5" stroke-width="3.2"/>
<circle clip-path="url(#clip532)" cx="1094.93" cy="660.82" r="14.4" fill="#009af9" fill-rule="evenodd" fill-opacity="0.5" stroke="#000000" stroke-opacity="0.5" stroke-width="3.2"/>
<circle clip-path="url(#clip532)" cx="1157.59" cy="955.025" r="14.4" fill="#009af9" fill-rule="evenodd" fill-opacity="0.5" stroke="#000000" stroke-opacity="0.5" stroke-width="3.2"/>
<circle clip-path="url(#clip532)" cx="209.891" cy="981.266" r="14.4" fill="#009af9" fill-rule="evenodd" fill-opacity="0.5" stroke="#000000" stroke-opacity="0.5" stroke-width="3.2"/>
<circle clip-path="url(#clip532)" cx="1496.51" cy="436.796" r="14.4" fill="#009af9" fill-rule="evenodd" fill-opacity="0.5" stroke="#000000" stroke-opacity="0.5" stroke-width="3.2"/>
<circle clip-path="url(#clip532)" cx="1421.29" cy="923.217" r="14.4" fill="#009af9" fill-rule="evenodd" fill-opacity="0.5" stroke="#000000" stroke-opacity="0.5" stroke-width="3.2"/>
<circle clip-path="url(#clip532)" cx="1837.61" cy="467.795" r="14.4" fill="#009af9" fill-rule="evenodd" fill-opacity="0.5" stroke="#000000" stroke-opacity="0.5" stroke-width="3.2"/>
<circle clip-path="url(#clip532)" cx="1735.03" cy="1445.72" r="14.4" fill="#009af9" fill-rule="evenodd" fill-opacity="0.5" stroke="#000000" stroke-opacity="0.5" stroke-width="3.2"/>
<circle clip-path="url(#clip532)" cx="1261.26" cy="1094.29" r="14.4" fill="#009af9" fill-rule="evenodd" fill-opacity="0.5" stroke="#000000" stroke-opacity="0.5" stroke-width="3.2"/>
<path clip-path="url(#clip532)" d="M209.891 981.266 L1735.03 1445.72 L2213.95 737.287 L2290.34 87.9763 L704.372 473.194 L209.891 981.266 L209.891 981.266  Z" fill="#e26f46" fill-rule="evenodd" fill-opacity="0.2"/>
<polyline clip-path="url(#clip532)" style="stroke:#000000; stroke-linecap:round; stroke-linejoin:round; stroke-width:4; stroke-opacity:0.2; fill:none" points="209.891,981.266 1735.03,1445.72 2213.95,737.287 2290.34,87.9763 704.372,473.194 209.891,981.266 "/>
</svg>
