<?xml version="1.0" encoding="utf-8"?>
<svg xmlns="http://www.w3.org/2000/svg" xmlns:xlink="http://www.w3.org/1999/xlink" width="600" height="400" viewBox="0 0 2400 1600">
<defs>
  <clipPath id="clip680">
    <rect x="0" y="0" width="2400" height="1600"/>
  </clipPath>
</defs>
<path clip-path="url(#clip680)" d="M0 1600 L2400 1600 L2400 0 L0 0  Z" fill="#ffffff" fill-rule="evenodd" fill-opacity="1"/>
<defs>
  <clipPath id="clip681">
    <rect x="480" y="0" width="1681" height="1600"/>
  </clipPath>
</defs>
<path clip-path="url(#clip680)" d="M148.057 1486.45 L2352.76 1486.45 L2352.76 47.2441 L148.057 47.2441  Z" fill="#ffffff" fill-rule="evenodd" fill-opacity="1"/>
<defs>
  <clipPath id="clip682">
    <rect x="148" y="47" width="2206" height="1440"/>
  </clipPath>
</defs>
<polyline clip-path="url(#clip682)" style="stroke:#000000; stroke-linecap:round; stroke-linejoin:round; stroke-width:2; stroke-opacity:0.1; fill:none" points="226.475,1486.45 226.475,47.2441 "/>
<polyline clip-path="url(#clip682)" style="stroke:#000000; stroke-linecap:round; stroke-linejoin:round; stroke-width:2; stroke-opacity:0.1; fill:none" points="731.343,1486.45 731.343,47.2441 "/>
<polyline clip-path="url(#clip682)" style="stroke:#000000; stroke-linecap:round; stroke-linejoin:round; stroke-width:2; stroke-opacity:0.1; fill:none" points="1236.21,1486.45 1236.21,47.2441 "/>
<polyline clip-path="url(#clip682)" style="stroke:#000000; stroke-linecap:round; stroke-linejoin:round; stroke-width:2; stroke-opacity:0.1; fill:none" points="1741.08,1486.45 1741.08,47.2441 "/>
<polyline clip-path="url(#clip682)" style="stroke:#000000; stroke-linecap:round; stroke-linejoin:round; stroke-width:2; stroke-opacity:0.1; fill:none" points="2245.94,1486.45 2245.94,47.2441 "/>
<polyline clip-path="url(#clip682)" style="stroke:#000000; stroke-linecap:round; stroke-linejoin:round; stroke-width:2; stroke-opacity:0.1; fill:none" points="148.057,1453.96 2352.76,1453.96 "/>
<polyline clip-path="url(#clip682)" style="stroke:#000000; stroke-linecap:round; stroke-linejoin:round; stroke-width:2; stroke-opacity:0.1; fill:none" points="148.057,1199.03 2352.76,1199.03 "/>
<polyline clip-path="url(#clip682)" style="stroke:#000000; stroke-linecap:round; stroke-linejoin:round; stroke-width:2; stroke-opacity:0.1; fill:none" points="148.057,944.106 2352.76,944.106 "/>
<polyline clip-path="url(#clip682)" style="stroke:#000000; stroke-linecap:round; stroke-linejoin:round; stroke-width:2; stroke-opacity:0.1; fill:none" points="148.057,689.179 2352.76,689.179 "/>
<polyline clip-path="url(#clip682)" style="stroke:#000000; stroke-linecap:round; stroke-linejoin:round; stroke-width:2; stroke-opacity:0.1; fill:none" points="148.057,434.252 2352.76,434.252 "/>
<polyline clip-path="url(#clip682)" style="stroke:#000000; stroke-linecap:round; stroke-linejoin:round; stroke-width:2; stroke-opacity:0.1; fill:none" points="148.057,179.325 2352.76,179.325 "/>
<polyline clip-path="url(#clip680)" style="stroke:#000000; stroke-linecap:round; stroke-linejoin:round; stroke-width:4; stroke-opacity:1; fill:none" points="148.057,1486.45 2352.76,1486.45 "/>
<polyline clip-path="url(#clip680)" style="stroke:#000000; stroke-linecap:round; stroke-linejoin:round; stroke-width:4; stroke-opacity:1; fill:none" points="226.475,1486.45 226.475,1467.55 "/>
<polyline clip-path="url(#clip680)" style="stroke:#000000; stroke-linecap:round; stroke-linejoin:round; stroke-width:4; stroke-opacity:1; fill:none" points="731.343,1486.45 731.343,1467.55 "/>
<polyline clip-path="url(#clip680)" style="stroke:#000000; stroke-linecap:round; stroke-linejoin:round; stroke-width:4; stroke-opacity:1; fill:none" points="1236.21,1486.45 1236.21,1467.55 "/>
<polyline clip-path="url(#clip680)" style="stroke:#000000; stroke-linecap:round; stroke-linejoin:round; stroke-width:4; stroke-opacity:1; fill:none" points="1741.08,1486.45 1741.08,1467.55 "/>
<polyline clip-path="url(#clip680)" style="stroke:#000000; stroke-linecap:round; stroke-linejoin:round; stroke-width:4; stroke-opacity:1; fill:none" points="2245.94,1486.45 2245.94,1467.55 "/>
<path clip-path="url(#clip680)" d="M196.417 1532.02 L226.093 1532.02 L226.093 1535.95 L196.417 1535.95 L196.417 1532.02 Z" fill="#000000" fill-rule="nonzero" fill-opacity="1" /><path clip-path="url(#clip680)" d="M240.214 1544.91 L256.533 1544.91 L256.533 1548.85 L234.589 1548.85 L234.589 1544.91 Q237.251 1542.16 241.834 1537.53 Q246.44 1532.88 247.621 1531.53 Q249.866 1529.01 250.746 1527.27 Q251.649 1525.51 251.649 1523.82 Q251.649 1521.07 249.704 1519.33 Q247.783 1517.6 244.681 1517.6 Q242.482 1517.6 240.028 1518.36 Q237.598 1519.13 234.82 1520.68 L234.82 1515.95 Q237.644 1514.82 240.098 1514.24 Q242.551 1513.66 244.588 1513.66 Q249.959 1513.66 253.153 1516.35 Q256.348 1519.03 256.348 1523.52 Q256.348 1525.65 255.538 1527.57 Q254.75 1529.47 252.644 1532.07 Q252.065 1532.74 248.963 1535.95 Q245.862 1539.15 240.214 1544.91 Z" fill="#000000" fill-rule="nonzero" fill-opacity="1" /><path clip-path="url(#clip680)" d="M701.1 1532.02 L730.775 1532.02 L730.775 1535.95 L701.1 1535.95 L701.1 1532.02 Z" fill="#000000" fill-rule="nonzero" fill-opacity="1" /><path clip-path="url(#clip680)" d="M741.678 1544.91 L749.317 1544.91 L749.317 1518.55 L741.007 1520.21 L741.007 1515.95 L749.271 1514.29 L753.947 1514.29 L753.947 1544.91 L761.585 1544.91 L761.585 1548.85 L741.678 1548.85 L741.678 1544.91 Z" fill="#000000" fill-rule="nonzero" fill-opacity="1" /><path clip-path="url(#clip680)" d="M1236.21 1517.37 Q1232.6 1517.37 1230.77 1520.93 Q1228.96 1524.47 1228.96 1531.6 Q1228.96 1538.71 1230.77 1542.27 Q1232.6 1545.82 1236.21 1545.82 Q1239.84 1545.82 1241.65 1542.27 Q1243.48 1538.71 1243.48 1531.6 Q1243.48 1524.47 1241.65 1520.93 Q1239.84 1517.37 1236.21 1517.37 M1236.21 1513.66 Q1242.02 1513.66 1245.08 1518.27 Q1248.15 1522.85 1248.15 1531.6 Q1248.15 1540.33 1245.08 1544.94 Q1242.02 1549.52 1236.21 1549.52 Q1230.4 1549.52 1227.32 1544.94 Q1224.27 1540.33 1224.27 1531.6 Q1224.27 1522.85 1227.32 1518.27 Q1230.4 1513.66 1236.21 1513.66 Z" fill="#000000" fill-rule="nonzero" fill-opacity="1" /><path clip-path="url(#clip680)" d="M1731.46 1544.91 L1739.1 1544.91 L1739.1 1518.55 L1730.79 1520.21 L1730.79 1515.95 L1739.05 1514.29 L1743.73 1514.29 L1743.73 1544.91 L1751.37 1544.91 L1751.37 1548.85 L1731.46 1548.85 L1731.46 1544.91 Z" fill="#000000" fill-rule="nonzero" fill-opacity="1" /><path clip-path="url(#clip680)" d="M2240.6 1544.91 L2256.92 1544.91 L2256.92 1548.85 L2234.97 1548.85 L2234.97 1544.91 Q2237.63 1542.16 2242.22 1537.53 Q2246.82 1532.88 2248.01 1531.53 Q2250.25 1529.01 2251.13 1527.27 Q2252.03 1525.51 2252.03 1523.82 Q2252.03 1521.07 2250.09 1519.33 Q2248.17 1517.6 2245.07 1517.6 Q2242.87 1517.6 2240.41 1518.36 Q2237.98 1519.13 2235.2 1520.68 L2235.2 1515.95 Q2238.03 1514.82 2240.48 1514.24 Q2242.94 1513.66 2244.97 1513.66 Q2250.34 1513.66 2253.54 1516.35 Q2256.73 1519.03 2256.73 1523.52 Q2256.73 1525.65 2255.92 1527.57 Q2255.13 1529.47 2253.03 1532.07 Q2252.45 1532.74 2249.35 1535.95 Q2246.25 1539.15 2240.6 1544.91 Z" fill="#000000" fill-rule="nonzero" fill-opacity="1" /><polyline clip-path="url(#clip680)" style="stroke:#000000; stroke-linecap:round; stroke-linejoin:round; stroke-width:4; stroke-opacity:1; fill:none" points="148.057,1486.45 148.057,47.2441 "/>
<polyline clip-path="url(#clip680)" style="stroke:#000000; stroke-linecap:round; stroke-linejoin:round; stroke-width:4; stroke-opacity:1; fill:none" points="148.057,1453.96 166.954,1453.96 "/>
<polyline clip-path="url(#clip680)" style="stroke:#000000; stroke-linecap:round; stroke-linejoin:round; stroke-width:4; stroke-opacity:1; fill:none" points="148.057,1199.03 166.954,1199.03 "/>
<polyline clip-path="url(#clip680)" style="stroke:#000000; stroke-linecap:round; stroke-linejoin:round; stroke-width:4; stroke-opacity:1; fill:none" points="148.057,944.106 166.954,944.106 "/>
<polyline clip-path="url(#clip680)" style="stroke:#000000; stroke-linecap:round; stroke-linejoin:round; stroke-width:4; stroke-opacity:1; fill:none" points="148.057,689.179 166.954,689.179 "/>
<polyline clip-path="url(#clip680)" style="stroke:#000000; stroke-linecap:round; stroke-linejoin:round; stroke-width:4; stroke-opacity:1; fill:none" points="148.057,434.252 166.954,434.252 "/>
<polyline clip-path="url(#clip680)" style="stroke:#000000; stroke-linecap:round; stroke-linejoin:round; stroke-width:4; stroke-opacity:1; fill:none" points="148.057,179.325 166.954,179.325 "/>
<path clip-path="url(#clip680)" d="M50.9921 1454.41 L80.6679 1454.41 L80.6679 1458.35 L50.9921 1458.35 L50.9921 1454.41 Z" fill="#000000" fill-rule="nonzero" fill-opacity="1" /><path clip-path="url(#clip680)" d="M104.927 1452.61 Q108.283 1453.32 110.158 1455.59 Q112.057 1457.86 112.057 1461.19 Q112.057 1466.31 108.538 1469.11 Q105.02 1471.91 98.5382 1471.91 Q96.3623 1471.91 94.0475 1471.47 Q91.7558 1471.05 89.3021 1470.2 L89.3021 1465.68 Q91.2465 1466.82 93.5613 1467.4 Q95.8761 1467.98 98.3993 1467.98 Q102.797 1467.98 105.089 1466.24 Q107.404 1464.5 107.404 1461.19 Q107.404 1458.14 105.251 1456.42 Q103.121 1454.69 99.3021 1454.69 L95.2743 1454.69 L95.2743 1450.85 L99.4872 1450.85 Q102.936 1450.85 104.765 1449.48 Q106.594 1448.09 106.594 1445.5 Q106.594 1442.84 104.696 1441.43 Q102.821 1439.99 99.3021 1439.99 Q97.3808 1439.99 95.1817 1440.41 Q92.9826 1440.82 90.3438 1441.7 L90.3438 1437.54 Q93.0058 1436.8 95.3206 1436.43 Q97.6585 1436.05 99.7187 1436.05 Q105.043 1436.05 108.145 1438.49 Q111.246 1440.89 111.246 1445.01 Q111.246 1447.88 109.603 1449.87 Q107.959 1451.84 104.927 1452.61 Z" fill="#000000" fill-rule="nonzero" fill-opacity="1" /><path clip-path="url(#clip680)" d="M51.9412 1199.48 L81.617 1199.48 L81.617 1203.42 L51.9412 1203.42 L51.9412 1199.48 Z" fill="#000000" fill-rule="nonzero" fill-opacity="1" /><path clip-path="url(#clip680)" d="M95.7373 1212.38 L112.057 1212.38 L112.057 1216.31 L90.1123 1216.31 L90.1123 1212.38 Q92.7743 1209.62 97.3576 1204.99 Q101.964 1200.34 103.145 1199 Q105.39 1196.47 106.27 1194.74 Q107.172 1192.98 107.172 1191.29 Q107.172 1188.54 105.228 1186.8 Q103.307 1185.06 100.205 1185.06 Q98.0058 1185.06 95.5521 1185.83 Q93.1215 1186.59 90.3438 1188.14 L90.3438 1183.42 Q93.1678 1182.29 95.6215 1181.71 Q98.0752 1181.13 100.112 1181.13 Q105.483 1181.13 108.677 1183.81 Q111.871 1186.5 111.871 1190.99 Q111.871 1193.12 111.061 1195.04 Q110.274 1196.94 108.168 1199.53 Q107.589 1200.2 104.487 1203.42 Q101.385 1206.61 95.7373 1212.38 Z" fill="#000000" fill-rule="nonzero" fill-opacity="1" /><path clip-path="url(#clip680)" d="M51.5708 944.557 L81.2466 944.557 L81.2466 948.492 L51.5708 948.492 L51.5708 944.557 Z" fill="#000000" fill-rule="nonzero" fill-opacity="1" /><path clip-path="url(#clip680)" d="M92.1493 957.451 L99.7882 957.451 L99.7882 931.085 L91.478 932.752 L91.478 928.492 L99.7419 926.826 L104.418 926.826 L104.418 957.451 L112.057 957.451 L112.057 961.386 L92.1493 961.386 L92.1493 957.451 Z" fill="#000000" fill-rule="nonzero" fill-opacity="1" /><path clip-path="url(#clip680)" d="M100.112 674.977 Q96.5011 674.977 94.6724 678.542 Q92.8669 682.084 92.8669 689.213 Q92.8669 696.32 94.6724 699.885 Q96.5011 703.426 100.112 703.426 Q103.746 703.426 105.552 699.885 Q107.381 696.32 107.381 689.213 Q107.381 682.084 105.552 678.542 Q103.746 674.977 100.112 674.977 M100.112 671.274 Q105.922 671.274 108.978 675.88 Q112.057 680.463 112.057 689.213 Q112.057 697.94 108.978 702.547 Q105.922 707.13 100.112 707.13 Q94.3021 707.13 91.2234 702.547 Q88.1679 697.94 88.1679 689.213 Q88.1679 680.463 91.2234 675.88 Q94.3021 671.274 100.112 671.274 Z" fill="#000000" fill-rule="nonzero" fill-opacity="1" /><path clip-path="url(#clip680)" d="M92.1493 447.597 L99.7882 447.597 L99.7882 421.231 L91.478 422.898 L91.478 418.638 L99.7419 416.972 L104.418 416.972 L104.418 447.597 L112.057 447.597 L112.057 451.532 L92.1493 451.532 L92.1493 447.597 Z" fill="#000000" fill-rule="nonzero" fill-opacity="1" /><path clip-path="url(#clip680)" d="M95.7373 192.67 L112.057 192.67 L112.057 196.605 L90.1123 196.605 L90.1123 192.67 Q92.7743 189.915 97.3576 185.285 Q101.964 180.633 103.145 179.29 Q105.39 176.767 106.27 175.031 Q107.172 173.271 107.172 171.582 Q107.172 168.827 105.228 167.091 Q103.307 165.355 100.205 165.355 Q98.0058 165.355 95.5521 166.119 Q93.1215 166.883 90.3438 168.434 L90.3438 163.711 Q93.1678 162.577 95.6215 161.998 Q98.0752 161.42 100.112 161.42 Q105.483 161.42 108.677 164.105 Q111.871 166.79 111.871 171.281 Q111.871 173.41 111.061 175.332 Q110.274 177.23 108.168 179.822 Q107.589 180.494 104.487 183.711 Q101.385 186.906 95.7373 192.67 Z" fill="#000000" fill-rule="nonzero" fill-opacity="1" /><circle clip-path="url(#clip682)" cx="290.803" cy="479.149" r="14.4" fill="#009af9" fill-rule="evenodd" fill-opacity="0.5" stroke="#000000" stroke-opacity="0.5" stroke-width="3.2"/>
<circle clip-path="url(#clip682)" cx="1877.03" cy="87.9763" r="14.4" fill="#009af9" fill-rule="evenodd" fill-opacity="0.5" stroke="#000000" stroke-opacity="0.5" stroke-width="3.2"/>
<circle clip-path="url(#clip682)" cx="787.136" cy="867.496" r="14.4" fill="#009af9" fill-rule="evenodd" fill-opacity="0.5" stroke="#000000" stroke-opacity="0.5" stroke-width="3.2"/>
<circle clip-path="url(#clip682)" cx="1489.04" cy="280.568" r="14.4" fill="#009af9" fill-rule="evenodd" fill-opacity="0.5" stroke="#000000" stroke-opacity="0.5" stroke-width="3.2"/>
<circle clip-path="url(#clip682)" cx="1964.92" cy="874.37" r="14.4" fill="#009af9" fill-rule="evenodd" fill-opacity="0.5" stroke="#000000" stroke-opacity="0.5" stroke-width="3.2"/>
<circle clip-path="url(#clip682)" cx="841.744" cy="391.947" r="14.4" fill="#009af9" fill-rule="evenodd" fill-opacity="0.5" stroke="#000000" stroke-opacity="0.5" stroke-width="3.2"/>
<circle clip-path="url(#clip682)" cx="1287.12" cy="414.032" r="14.4" fill="#009af9" fill-rule="evenodd" fill-opacity="0.5" stroke="#000000" stroke-opacity="0.5" stroke-width="3.2"/>
<circle clip-path="url(#clip682)" cx="1979.23" cy="625.6" r="14.4" fill="#009af9" fill-rule="evenodd" fill-opacity="0.5" stroke="#000000" stroke-opacity="0.5" stroke-width="3.2"/>
<circle clip-path="url(#clip682)" cx="869.43" cy="818.324" r="14.4" fill="#009af9" fill-rule="evenodd" fill-opacity="0.5" stroke="#000000" stroke-opacity="0.5" stroke-width="3.2"/>
<circle clip-path="url(#clip682)" cx="1097.36" cy="377.497" r="14.4" fill="#009af9" fill-rule="evenodd" fill-opacity="0.5" stroke="#000000" stroke-opacity="0.5" stroke-width="3.2"/>
<circle clip-path="url(#clip682)" cx="1563.18" cy="753.236" r="14.4" fill="#009af9" fill-rule="evenodd" fill-opacity="0.5" stroke="#000000" stroke-opacity="0.5" stroke-width="3.2"/>
<circle clip-path="url(#clip682)" cx="210.454" cy="753.765" r="14.4" fill="#009af9" fill-rule="evenodd" fill-opacity="0.5" stroke="#000000" stroke-opacity="0.5" stroke-width="3.2"/>
<circle clip-path="url(#clip682)" cx="1034.16" cy="865.69" r="14.4" fill="#009af9" fill-rule="evenodd" fill-opacity="0.5" stroke="#000000" stroke-opacity="0.5" stroke-width="3.2"/>
<circle clip-path="url(#clip682)" cx="1226.56" cy="475.994" r="14.4" fill="#009af9" fill-rule="evenodd" fill-opacity="0.5" stroke="#000000" stroke-opacity="0.5" stroke-width="3.2"/>
<circle clip-path="url(#clip682)" cx="1290.25" cy="599.496" r="14.4" fill="#009af9" fill-rule="evenodd" fill-opacity="0.5" stroke="#000000" stroke-opacity="0.5" stroke-width="3.2"/>
<circle clip-path="url(#clip682)" cx="1458.69" cy="284.922" r="14.4" fill="#009af9" fill-rule="evenodd" fill-opacity="0.5" stroke="#000000" stroke-opacity="0.5" stroke-width="3.2"/>
<circle clip-path="url(#clip682)" cx="1486.37" cy="937.725" r="14.4" fill="#009af9" fill-rule="evenodd" fill-opacity="0.5" stroke="#000000" stroke-opacity="0.5" stroke-width="3.2"/>
<circle clip-path="url(#clip682)" cx="2023.87" cy="773.13" r="14.4" fill="#009af9" fill-rule="evenodd" fill-opacity="0.5" stroke="#000000" stroke-opacity="0.5" stroke-width="3.2"/>
<circle clip-path="url(#clip682)" cx="2290.36" cy="882.98" r="14.4" fill="#009af9" fill-rule="evenodd" fill-opacity="0.5" stroke="#000000" stroke-opacity="0.5" stroke-width="3.2"/>
<circle clip-path="url(#clip682)" cx="1864.5" cy="842.935" r="14.4" fill="#009af9" fill-rule="evenodd" fill-opacity="0.5" stroke="#000000" stroke-opacity="0.5" stroke-width="3.2"/>
<circle clip-path="url(#clip682)" cx="1523.42" cy="707.452" r="14.4" fill="#009af9" fill-rule="evenodd" fill-opacity="0.5" stroke="#000000" stroke-opacity="0.5" stroke-width="3.2"/>
<circle clip-path="url(#clip682)" cx="1838.28" cy="963.408" r="14.4" fill="#009af9" fill-rule="evenodd" fill-opacity="0.5" stroke="#000000" stroke-opacity="0.5" stroke-width="3.2"/>
<circle clip-path="url(#clip682)" cx="2270.11" cy="768.819" r="14.4" fill="#009af9" fill-rule="evenodd" fill-opacity="0.5" stroke="#000000" stroke-opacity="0.5" stroke-width="3.2"/>
<circle clip-path="url(#clip682)" cx="1307.67" cy="159.792" r="14.4" fill="#009af9" fill-rule="evenodd" fill-opacity="0.5" stroke="#000000" stroke-opacity="0.5" stroke-width="3.2"/>
<circle clip-path="url(#clip682)" cx="1600.46" cy="544.211" r="14.4" fill="#009af9" fill-rule="evenodd" fill-opacity="0.5" stroke="#000000" stroke-opacity="0.5" stroke-width="3.2"/>
<circle clip-path="url(#clip682)" cx="1196.62" cy="885.057" r="14.4" fill="#009af9" fill-rule="evenodd" fill-opacity="0.5" stroke="#000000" stroke-opacity="0.5" stroke-width="3.2"/>
<circle clip-path="url(#clip682)" cx="1956.27" cy="1445.72" r="14.4" fill="#009af9" fill-rule="evenodd" fill-opacity="0.5" stroke="#000000" stroke-opacity="0.5" stroke-width="3.2"/>
<circle clip-path="url(#clip682)" cx="1318.6" cy="419.808" r="14.4" fill="#009af9" fill-rule="evenodd" fill-opacity="0.5" stroke="#000000" stroke-opacity="0.5" stroke-width="3.2"/>
<circle clip-path="url(#clip682)" cx="557.081" cy="423.594" r="14.4" fill="#009af9" fill-rule="evenodd" fill-opacity="0.5" stroke="#000000" stroke-opacity="0.5" stroke-width="3.2"/>
<circle clip-path="url(#clip682)" cx="1422.84" cy="726.396" r="14.4" fill="#009af9" fill-rule="evenodd" fill-opacity="0.5" stroke="#000000" stroke-opacity="0.5" stroke-width="3.2"/>
<path clip-path="url(#clip682)" d="M210.454 753.765 L1956.27 1445.72 L2290.36 882.98 L2270.11 768.819 L1877.03 87.9763 L1307.67 159.792 L290.803 479.149 L210.454 753.765 L210.454 753.765  Z" fill="#e26f46" fill-rule="evenodd" fill-opacity="0.2"/>
<polyline clip-path="url(#clip682)" style="stroke:#000000; stroke-linecap:round; stroke-linejoin:round; stroke-width:4; stroke-opacity:0.2; fill:none" points="210.454,753.765 1956.27,1445.72 2290.36,882.98 2270.11,768.819 1877.03,87.9763 1307.67,159.792 290.803,479.149 210.454,753.765 "/>
</svg>
