<?xml version="1.0" encoding="utf-8"?>
<svg xmlns="http://www.w3.org/2000/svg" xmlns:xlink="http://www.w3.org/1999/xlink" width="600" height="400" viewBox="0 0 2400 1600">
<defs>
  <clipPath id="clip380">
    <rect x="0" y="0" width="2400" height="1600"/>
  </clipPath>
</defs>
<path clip-path="url(#clip380)" d="M0 1600 L2400 1600 L2400 0 L0 0  Z" fill="#ffffff" fill-rule="evenodd" fill-opacity="1"/>
<defs>
  <clipPath id="clip381">
    <rect x="480" y="0" width="1681" height="1600"/>
  </clipPath>
</defs>
<path clip-path="url(#clip380)" d="M147.478 1486.45 L2352.76 1486.45 L2352.76 47.2441 L147.478 47.2441  Z" fill="#ffffff" fill-rule="evenodd" fill-opacity="1"/>
<defs>
  <clipPath id="clip382">
    <rect x="147" y="47" width="2206" height="1440"/>
  </clipPath>
</defs>
<polyline clip-path="url(#clip382)" style="stroke:#000000; stroke-linecap:round; stroke-linejoin:round; stroke-width:2; stroke-opacity:0.1; fill:none" points="470.885,1486.45 470.885,47.2441 "/>
<polyline clip-path="url(#clip382)" style="stroke:#000000; stroke-linecap:round; stroke-linejoin:round; stroke-width:2; stroke-opacity:0.1; fill:none" points="1090.91,1486.45 1090.91,47.2441 "/>
<polyline clip-path="url(#clip382)" style="stroke:#000000; stroke-linecap:round; stroke-linejoin:round; stroke-width:2; stroke-opacity:0.1; fill:none" points="1710.94,1486.45 1710.94,47.2441 "/>
<polyline clip-path="url(#clip382)" style="stroke:#000000; stroke-linecap:round; stroke-linejoin:round; stroke-width:2; stroke-opacity:0.1; fill:none" points="2330.97,1486.45 2330.97,47.2441 "/>
<polyline clip-path="url(#clip382)" style="stroke:#000000; stroke-linecap:round; stroke-linejoin:round; stroke-width:2; stroke-opacity:0.1; fill:none" points="147.478,1462.69 2352.76,1462.69 "/>
<polyline clip-path="url(#clip382)" style="stroke:#000000; stroke-linecap:round; stroke-linejoin:round; stroke-width:2; stroke-opacity:0.1; fill:none" points="147.478,1025.66 2352.76,1025.66 "/>
<polyline clip-path="url(#clip382)" style="stroke:#000000; stroke-linecap:round; stroke-linejoin:round; stroke-width:2; stroke-opacity:0.1; fill:none" points="147.478,588.637 2352.76,588.637 "/>
<polyline clip-path="url(#clip382)" style="stroke:#000000; stroke-linecap:round; stroke-linejoin:round; stroke-width:2; stroke-opacity:0.1; fill:none" points="147.478,151.611 2352.76,151.611 "/>
<polyline clip-path="url(#clip380)" style="stroke:#000000; stroke-linecap:round; stroke-linejoin:round; stroke-width:4; stroke-opacity:1; fill:none" points="147.478,1486.45 2352.76,1486.45 "/>
<polyline clip-path="url(#clip380)" style="stroke:#000000; stroke-linecap:round; stroke-linejoin:round; stroke-width:4; stroke-opacity:1; fill:none" points="470.885,1486.45 470.885,1467.55 "/>
<polyline clip-path="url(#clip380)" style="stroke:#000000; stroke-linecap:round; stroke-linejoin:round; stroke-width:4; stroke-opacity:1; fill:none" points="1090.91,1486.45 1090.91,1467.55 "/>
<polyline clip-path="url(#clip380)" style="stroke:#000000; stroke-linecap:round; stroke-linejoin:round; stroke-width:4; stroke-opacity:1; fill:none" points="1710.94,1486.45 1710.94,1467.55 "/>
<polyline clip-path="url(#clip380)" style="stroke:#000000; stroke-linecap:round; stroke-linejoin:round; stroke-width:4; stroke-opacity:1; fill:none" points="2330.97,1486.45 2330.97,1467.55 "/>
<path clip-path="url(#clip380)" d="M440.642 1532.02 L470.318 1532.02 L470.318 1535.95 L440.642 1535.95 L440.642 1532.02 Z" fill="#000000" fill-rule="nonzero" fill-opacity="1" /><path clip-path="url(#clip380)" d="M481.221 1544.91 L488.86 1544.91 L488.86 1518.55 L480.55 1520.21 L480.55 1515.95 L488.813 1514.29 L493.489 1514.29 L493.489 1544.91 L501.128 1544.91 L501.128 1548.85 L481.221 1548.85 L481.221 1544.91 Z" fill="#000000" fill-rule="nonzero" fill-opacity="1" /><path clip-path="url(#clip380)" d="M1090.91 1517.37 Q1087.3 1517.37 1085.47 1520.93 Q1083.67 1524.47 1083.67 1531.6 Q1083.67 1538.71 1085.47 1542.27 Q1087.3 1545.82 1090.91 1545.82 Q1094.55 1545.82 1096.35 1542.27 Q1098.18 1538.71 1098.18 1531.6 Q1098.18 1524.47 1096.35 1520.93 Q1094.55 1517.37 1090.91 1517.37 M1090.91 1513.66 Q1096.72 1513.66 1099.78 1518.27 Q1102.86 1522.85 1102.86 1531.6 Q1102.86 1540.33 1099.78 1544.94 Q1096.72 1549.52 1090.91 1549.52 Q1085.1 1549.52 1082.03 1544.94 Q1078.97 1540.33 1078.97 1531.6 Q1078.97 1522.85 1082.03 1518.27 Q1085.1 1513.66 1090.91 1513.66 Z" fill="#000000" fill-rule="nonzero" fill-opacity="1" /><path clip-path="url(#clip380)" d="M1701.33 1544.91 L1708.96 1544.91 L1708.96 1518.55 L1700.65 1520.21 L1700.65 1515.95 L1708.92 1514.29 L1713.59 1514.29 L1713.59 1544.91 L1721.23 1544.91 L1721.23 1548.85 L1701.33 1548.85 L1701.33 1544.91 Z" fill="#000000" fill-rule="nonzero" fill-opacity="1" /><path clip-path="url(#clip380)" d="M2325.63 1544.91 L2341.94 1544.91 L2341.94 1548.85 L2320 1548.85 L2320 1544.91 Q2322.66 1542.16 2327.25 1537.53 Q2331.85 1532.88 2333.03 1531.53 Q2335.28 1529.01 2336.16 1527.27 Q2337.06 1525.51 2337.06 1523.82 Q2337.06 1521.07 2335.12 1519.33 Q2333.19 1517.6 2330.09 1517.6 Q2327.89 1517.6 2325.44 1518.36 Q2323.01 1519.13 2320.23 1520.68 L2320.23 1515.95 Q2323.06 1514.82 2325.51 1514.24 Q2327.96 1513.66 2330 1513.66 Q2335.37 1513.66 2338.57 1516.35 Q2341.76 1519.03 2341.76 1523.52 Q2341.76 1525.65 2340.95 1527.57 Q2340.16 1529.47 2338.06 1532.07 Q2337.48 1532.74 2334.38 1535.95 Q2331.27 1539.15 2325.63 1544.91 Z" fill="#000000" fill-rule="nonzero" fill-opacity="1" /><polyline clip-path="url(#clip380)" style="stroke:#000000; stroke-linecap:round; stroke-linejoin:round; stroke-width:4; stroke-opacity:1; fill:none" points="147.478,1486.45 147.478,47.2441 "/>
<polyline clip-path="url(#clip380)" style="stroke:#000000; stroke-linecap:round; stroke-linejoin:round; stroke-width:4; stroke-opacity:1; fill:none" points="147.478,1462.69 166.376,1462.69 "/>
<polyline clip-path="url(#clip380)" style="stroke:#000000; stroke-linecap:round; stroke-linejoin:round; stroke-width:4; stroke-opacity:1; fill:none" points="147.478,1025.66 166.376,1025.66 "/>
<polyline clip-path="url(#clip380)" style="stroke:#000000; stroke-linecap:round; stroke-linejoin:round; stroke-width:4; stroke-opacity:1; fill:none" points="147.478,588.637 166.376,588.637 "/>
<polyline clip-path="url(#clip380)" style="stroke:#000000; stroke-linecap:round; stroke-linejoin:round; stroke-width:4; stroke-opacity:1; fill:none" points="147.478,151.611 166.376,151.611 "/>
<path clip-path="url(#clip380)" d="M51.3625 1463.14 L81.0383 1463.14 L81.0383 1467.08 L51.3625 1467.08 L51.3625 1463.14 Z" fill="#000000" fill-rule="nonzero" fill-opacity="1" /><path clip-path="url(#clip380)" d="M95.1586 1476.04 L111.478 1476.04 L111.478 1479.97 L89.5336 1479.97 L89.5336 1476.04 Q92.1956 1473.28 96.7789 1468.65 Q101.385 1464 102.566 1462.66 Q104.811 1460.13 105.691 1458.4 Q106.594 1456.64 106.594 1454.95 Q106.594 1452.19 104.649 1450.46 Q102.728 1448.72 99.6261 1448.72 Q97.4271 1448.72 94.9734 1449.49 Q92.5428 1450.25 89.7651 1451.8 L89.7651 1447.08 Q92.5891 1445.94 95.0428 1445.36 Q97.4965 1444.79 99.5335 1444.79 Q104.904 1444.79 108.098 1447.47 Q111.293 1450.16 111.293 1454.65 Q111.293 1456.78 110.483 1458.7 Q109.696 1460.6 107.589 1463.19 Q107.01 1463.86 103.909 1467.08 Q100.807 1470.27 95.1586 1476.04 Z" fill="#000000" fill-rule="nonzero" fill-opacity="1" /><path clip-path="url(#clip380)" d="M50.9921 1026.12 L80.6679 1026.12 L80.6679 1030.05 L50.9921 1030.05 L50.9921 1026.12 Z" fill="#000000" fill-rule="nonzero" fill-opacity="1" /><path clip-path="url(#clip380)" d="M91.5706 1039.01 L99.2095 1039.01 L99.2095 1012.64 L90.8993 1014.31 L90.8993 1010.05 L99.1632 1008.38 L103.839 1008.38 L103.839 1039.01 L111.478 1039.01 L111.478 1042.94 L91.5706 1042.94 L91.5706 1039.01 Z" fill="#000000" fill-rule="nonzero" fill-opacity="1" /><path clip-path="url(#clip380)" d="M99.5335 574.436 Q95.9224 574.436 94.0937 578.001 Q92.2882 581.543 92.2882 588.672 Q92.2882 595.779 94.0937 599.343 Q95.9224 602.885 99.5335 602.885 Q103.168 602.885 104.973 599.343 Q106.802 595.779 106.802 588.672 Q106.802 581.543 104.973 578.001 Q103.168 574.436 99.5335 574.436 M99.5335 570.732 Q105.344 570.732 108.399 575.339 Q111.478 579.922 111.478 588.672 Q111.478 597.399 108.399 602.005 Q105.344 606.589 99.5335 606.589 Q93.7234 606.589 90.6447 602.005 Q87.5892 597.399 87.5892 588.672 Q87.5892 579.922 90.6447 575.339 Q93.7234 570.732 99.5335 570.732 Z" fill="#000000" fill-rule="nonzero" fill-opacity="1" /><path clip-path="url(#clip380)" d="M91.5706 164.956 L99.2095 164.956 L99.2095 138.59 L90.8993 140.257 L90.8993 135.997 L99.1632 134.331 L103.839 134.331 L103.839 164.956 L111.478 164.956 L111.478 168.891 L91.5706 168.891 L91.5706 164.956 Z" fill="#000000" fill-rule="nonzero" fill-opacity="1" /><circle clip-path="url(#clip382)" cx="1448.03" cy="1230.36" r="14.4" fill="#009af9" fill-rule="evenodd" fill-opacity="0.5" stroke="#000000" stroke-opacity="0.5" stroke-width="3.2"/>
<circle clip-path="url(#clip382)" cx="1527.01" cy="582.558" r="14.4" fill="#009af9" fill-rule="evenodd" fill-opacity="0.5" stroke="#000000" stroke-opacity="0.5" stroke-width="3.2"/>
<circle clip-path="url(#clip382)" cx="2290.34" cy="622.812" r="14.4" fill="#009af9" fill-rule="evenodd" fill-opacity="0.5" stroke="#000000" stroke-opacity="0.5" stroke-width="3.2"/>
<circle clip-path="url(#clip382)" cx="1160.13" cy="964.138" r="14.4" fill="#009af9" fill-rule="evenodd" fill-opacity="0.5" stroke="#000000" stroke-opacity="0.5" stroke-width="3.2"/>
<circle clip-path="url(#clip382)" cx="1206.61" cy="1018.02" r="14.4" fill="#009af9" fill-rule="evenodd" fill-opacity="0.5" stroke="#000000" stroke-opacity="0.5" stroke-width="3.2"/>
<circle clip-path="url(#clip382)" cx="906.253" cy="859.856" r="14.4" fill="#009af9" fill-rule="evenodd" fill-opacity="0.5" stroke="#000000" stroke-opacity="0.5" stroke-width="3.2"/>
<circle clip-path="url(#clip382)" cx="922.838" cy="957.582" r="14.4" fill="#009af9" fill-rule="evenodd" fill-opacity="0.5" stroke="#000000" stroke-opacity="0.5" stroke-width="3.2"/>
<circle clip-path="url(#clip382)" cx="295.065" cy="539.554" r="14.4" fill="#009af9" fill-rule="evenodd" fill-opacity="0.5" stroke="#000000" stroke-opacity="0.5" stroke-width="3.2"/>
<circle clip-path="url(#clip382)" cx="2137.11" cy="317.472" r="14.4" fill="#009af9" fill-rule="evenodd" fill-opacity="0.5" stroke="#000000" stroke-opacity="0.5" stroke-width="3.2"/>
<circle clip-path="url(#clip382)" cx="292.35" cy="195.522" r="14.4" fill="#009af9" fill-rule="evenodd" fill-opacity="0.5" stroke="#000000" stroke-opacity="0.5" stroke-width="3.2"/>
<circle clip-path="url(#clip382)" cx="1078.14" cy="881.64" r="14.4" fill="#009af9" fill-rule="evenodd" fill-opacity="0.5" stroke="#000000" stroke-opacity="0.5" stroke-width="3.2"/>
<circle clip-path="url(#clip382)" cx="1470.47" cy="536.703" r="14.4" fill="#009af9" fill-rule="evenodd" fill-opacity="0.5" stroke="#000000" stroke-opacity="0.5" stroke-width="3.2"/>
<circle clip-path="url(#clip382)" cx="1117.46" cy="887.633" r="14.4" fill="#009af9" fill-rule="evenodd" fill-opacity="0.5" stroke="#000000" stroke-opacity="0.5" stroke-width="3.2"/>
<circle clip-path="url(#clip382)" cx="466.848" cy="619.75" r="14.4" fill="#009af9" fill-rule="evenodd" fill-opacity="0.5" stroke="#000000" stroke-opacity="0.5" stroke-width="3.2"/>
<circle clip-path="url(#clip382)" cx="393.587" cy="1308.65" r="14.4" fill="#009af9" fill-rule="evenodd" fill-opacity="0.5" stroke="#000000" stroke-opacity="0.5" stroke-width="3.2"/>
<circle clip-path="url(#clip382)" cx="754.384" cy="1220.11" r="14.4" fill="#009af9" fill-rule="evenodd" fill-opacity="0.5" stroke="#000000" stroke-opacity="0.5" stroke-width="3.2"/>
<circle clip-path="url(#clip382)" cx="1126.02" cy="890.283" r="14.4" fill="#009af9" fill-rule="evenodd" fill-opacity="0.5" stroke="#000000" stroke-opacity="0.5" stroke-width="3.2"/>
<circle clip-path="url(#clip382)" cx="1398.26" cy="87.9763" r="14.4" fill="#009af9" fill-rule="evenodd" fill-opacity="0.5" stroke="#000000" stroke-opacity="0.5" stroke-width="3.2"/>
<circle clip-path="url(#clip382)" cx="209.891" cy="1019.31" r="14.4" fill="#009af9" fill-rule="evenodd" fill-opacity="0.5" stroke="#000000" stroke-opacity="0.5" stroke-width="3.2"/>
<circle clip-path="url(#clip382)" cx="1268.62" cy="753.519" r="14.4" fill="#009af9" fill-rule="evenodd" fill-opacity="0.5" stroke="#000000" stroke-opacity="0.5" stroke-width="3.2"/>
<circle clip-path="url(#clip382)" cx="505.818" cy="1445.72" r="14.4" fill="#009af9" fill-rule="evenodd" fill-opacity="0.5" stroke="#000000" stroke-opacity="0.5" stroke-width="3.2"/>
<circle clip-path="url(#clip382)" cx="1089.68" cy="253.801" r="14.4" fill="#009af9" fill-rule="evenodd" fill-opacity="0.5" stroke="#000000" stroke-opacity="0.5" stroke-width="3.2"/>
<circle clip-path="url(#clip382)" cx="596.714" cy="684.272" r="14.4" fill="#009af9" fill-rule="evenodd" fill-opacity="0.5" stroke="#000000" stroke-opacity="0.5" stroke-width="3.2"/>
<circle clip-path="url(#clip382)" cx="1832.08" cy="758.055" r="14.4" fill="#009af9" fill-rule="evenodd" fill-opacity="0.5" stroke="#000000" stroke-opacity="0.5" stroke-width="3.2"/>
<circle clip-path="url(#clip382)" cx="1240.35" cy="244.124" r="14.4" fill="#009af9" fill-rule="evenodd" fill-opacity="0.5" stroke="#000000" stroke-opacity="0.5" stroke-width="3.2"/>
<circle clip-path="url(#clip382)" cx="1240.91" cy="558.489" r="14.4" fill="#009af9" fill-rule="evenodd" fill-opacity="0.5" stroke="#000000" stroke-opacity="0.5" stroke-width="3.2"/>
<circle clip-path="url(#clip382)" cx="1886" cy="1411.05" r="14.4" fill="#009af9" fill-rule="evenodd" fill-opacity="0.5" stroke="#000000" stroke-opacity="0.5" stroke-width="3.2"/>
<circle clip-path="url(#clip382)" cx="907.568" cy="901.245" r="14.4" fill="#009af9" fill-rule="evenodd" fill-opacity="0.5" stroke="#000000" stroke-opacity="0.5" stroke-width="3.2"/>
<circle clip-path="url(#clip382)" cx="1040.39" cy="705.434" r="14.4" fill="#009af9" fill-rule="evenodd" fill-opacity="0.5" stroke="#000000" stroke-opacity="0.5" stroke-width="3.2"/>
<circle clip-path="url(#clip382)" cx="1619.6" cy="323.911" r="14.4" fill="#009af9" fill-rule="evenodd" fill-opacity="0.5" stroke="#000000" stroke-opacity="0.5" stroke-width="3.2"/>
<path clip-path="url(#clip382)" d="M209.891 1019.31 L393.587 1308.65 L505.818 1445.72 L1886 1411.05 L2290.34 622.812 L2137.11 317.472 L1398.26 87.9763 L292.35 195.522 L209.891 1019.31 L209.891 1019.31  Z" fill="#e26f46" fill-rule="evenodd" fill-opacity="0.2"/>
<polyline clip-path="url(#clip382)" style="stroke:#000000; stroke-linecap:round; stroke-linejoin:round; stroke-width:4; stroke-opacity:0.2; fill:none" points="209.891,1019.31 393.587,1308.65 505.818,1445.72 1886,1411.05 2290.34,622.812 2137.11,317.472 1398.26,87.9763 292.35,195.522 209.891,1019.31 "/>
</svg>
