<?xml version="1.0" encoding="utf-8"?>
<svg xmlns="http://www.w3.org/2000/svg" xmlns:xlink="http://www.w3.org/1999/xlink" width="600" height="400" viewBox="0 0 2400 1600">
<defs>
  <clipPath id="clip940">
    <rect x="0" y="0" width="2400" height="1600"/>
  </clipPath>
</defs>
<path clip-path="url(#clip940)" d="M0 1600 L2400 1600 L2400 0 L0 0  Z" fill="#ffffff" fill-rule="evenodd" fill-opacity="1"/>
<defs>
  <clipPath id="clip941">
    <rect x="480" y="0" width="1681" height="1600"/>
  </clipPath>
</defs>
<path clip-path="url(#clip940)" d="M147.478 1486.45 L2352.76 1486.45 L2352.76 47.2441 L147.478 47.2441  Z" fill="#ffffff" fill-rule="evenodd" fill-opacity="1"/>
<defs>
  <clipPath id="clip942">
    <rect x="147" y="47" width="2206" height="1440"/>
  </clipPath>
</defs>
<polyline clip-path="url(#clip942)" style="stroke:#000000; stroke-linecap:round; stroke-linejoin:round; stroke-width:2; stroke-opacity:0.1; fill:none" points="653.133,1486.45 653.133,47.2441 "/>
<polyline clip-path="url(#clip942)" style="stroke:#000000; stroke-linecap:round; stroke-linejoin:round; stroke-width:2; stroke-opacity:0.1; fill:none" points="1184.99,1486.45 1184.99,47.2441 "/>
<polyline clip-path="url(#clip942)" style="stroke:#000000; stroke-linecap:round; stroke-linejoin:round; stroke-width:2; stroke-opacity:0.1; fill:none" points="1716.84,1486.45 1716.84,47.2441 "/>
<polyline clip-path="url(#clip942)" style="stroke:#000000; stroke-linecap:round; stroke-linejoin:round; stroke-width:2; stroke-opacity:0.1; fill:none" points="2248.69,1486.45 2248.69,47.2441 "/>
<polyline clip-path="url(#clip942)" style="stroke:#000000; stroke-linecap:round; stroke-linejoin:round; stroke-width:2; stroke-opacity:0.1; fill:none" points="147.478,1301.93 2352.76,1301.93 "/>
<polyline clip-path="url(#clip942)" style="stroke:#000000; stroke-linecap:round; stroke-linejoin:round; stroke-width:2; stroke-opacity:0.1; fill:none" points="147.478,1036.13 2352.76,1036.13 "/>
<polyline clip-path="url(#clip942)" style="stroke:#000000; stroke-linecap:round; stroke-linejoin:round; stroke-width:2; stroke-opacity:0.1; fill:none" points="147.478,770.327 2352.76,770.327 "/>
<polyline clip-path="url(#clip942)" style="stroke:#000000; stroke-linecap:round; stroke-linejoin:round; stroke-width:2; stroke-opacity:0.1; fill:none" points="147.478,504.525 2352.76,504.525 "/>
<polyline clip-path="url(#clip942)" style="stroke:#000000; stroke-linecap:round; stroke-linejoin:round; stroke-width:2; stroke-opacity:0.1; fill:none" points="147.478,238.724 2352.76,238.724 "/>
<polyline clip-path="url(#clip940)" style="stroke:#000000; stroke-linecap:round; stroke-linejoin:round; stroke-width:4; stroke-opacity:1; fill:none" points="147.478,1486.45 2352.76,1486.45 "/>
<polyline clip-path="url(#clip940)" style="stroke:#000000; stroke-linecap:round; stroke-linejoin:round; stroke-width:4; stroke-opacity:1; fill:none" points="653.133,1486.45 653.133,1467.55 "/>
<polyline clip-path="url(#clip940)" style="stroke:#000000; stroke-linecap:round; stroke-linejoin:round; stroke-width:4; stroke-opacity:1; fill:none" points="1184.99,1486.45 1184.99,1467.55 "/>
<polyline clip-path="url(#clip940)" style="stroke:#000000; stroke-linecap:round; stroke-linejoin:round; stroke-width:4; stroke-opacity:1; fill:none" points="1716.84,1486.45 1716.84,1467.55 "/>
<polyline clip-path="url(#clip940)" style="stroke:#000000; stroke-linecap:round; stroke-linejoin:round; stroke-width:4; stroke-opacity:1; fill:none" points="2248.69,1486.45 2248.69,1467.55 "/>
<path clip-path="url(#clip940)" d="M622.89 1532.02 L652.566 1532.02 L652.566 1535.95 L622.89 1535.95 L622.89 1532.02 Z" fill="#000000" fill-rule="nonzero" fill-opacity="1" /><path clip-path="url(#clip940)" d="M663.469 1544.91 L671.108 1544.91 L671.108 1518.55 L662.798 1520.21 L662.798 1515.95 L671.062 1514.29 L675.737 1514.29 L675.737 1544.91 L683.376 1544.91 L683.376 1548.85 L663.469 1548.85 L663.469 1544.91 Z" fill="#000000" fill-rule="nonzero" fill-opacity="1" /><path clip-path="url(#clip940)" d="M1184.99 1517.37 Q1181.38 1517.37 1179.55 1520.93 Q1177.74 1524.47 1177.74 1531.6 Q1177.74 1538.71 1179.55 1542.27 Q1181.38 1545.82 1184.99 1545.82 Q1188.62 1545.82 1190.43 1542.27 Q1192.26 1538.71 1192.26 1531.6 Q1192.26 1524.47 1190.43 1520.93 Q1188.62 1517.37 1184.99 1517.37 M1184.99 1513.66 Q1190.8 1513.66 1193.85 1518.27 Q1196.93 1522.85 1196.93 1531.6 Q1196.93 1540.33 1193.85 1544.94 Q1190.8 1549.52 1184.99 1549.52 Q1179.18 1549.52 1176.1 1544.94 Q1173.04 1540.33 1173.04 1531.6 Q1173.04 1522.85 1176.1 1518.27 Q1179.18 1513.66 1184.99 1513.66 Z" fill="#000000" fill-rule="nonzero" fill-opacity="1" /><path clip-path="url(#clip940)" d="M1707.22 1544.91 L1714.86 1544.91 L1714.86 1518.55 L1706.55 1520.21 L1706.55 1515.95 L1714.81 1514.29 L1719.49 1514.29 L1719.49 1544.91 L1727.13 1544.91 L1727.13 1548.85 L1707.22 1548.85 L1707.22 1544.91 Z" fill="#000000" fill-rule="nonzero" fill-opacity="1" /><path clip-path="url(#clip940)" d="M2243.35 1544.91 L2259.67 1544.91 L2259.67 1548.85 L2237.72 1548.85 L2237.72 1544.91 Q2240.38 1542.16 2244.97 1537.53 Q2249.57 1532.88 2250.75 1531.53 Q2253 1529.01 2253.88 1527.27 Q2254.78 1525.51 2254.78 1523.82 Q2254.78 1521.07 2252.84 1519.33 Q2250.92 1517.6 2247.81 1517.6 Q2245.61 1517.6 2243.16 1518.36 Q2240.73 1519.13 2237.95 1520.68 L2237.95 1515.95 Q2240.78 1514.82 2243.23 1514.24 Q2245.68 1513.66 2247.72 1513.66 Q2253.09 1513.66 2256.29 1516.35 Q2259.48 1519.03 2259.48 1523.52 Q2259.48 1525.65 2258.67 1527.57 Q2257.88 1529.47 2255.78 1532.07 Q2255.2 1532.74 2252.1 1535.95 Q2248.99 1539.15 2243.35 1544.91 Z" fill="#000000" fill-rule="nonzero" fill-opacity="1" /><polyline clip-path="url(#clip940)" style="stroke:#000000; stroke-linecap:round; stroke-linejoin:round; stroke-width:4; stroke-opacity:1; fill:none" points="147.478,1486.45 147.478,47.2441 "/>
<polyline clip-path="url(#clip940)" style="stroke:#000000; stroke-linecap:round; stroke-linejoin:round; stroke-width:4; stroke-opacity:1; fill:none" points="147.478,1301.93 166.376,1301.93 "/>
<polyline clip-path="url(#clip940)" style="stroke:#000000; stroke-linecap:round; stroke-linejoin:round; stroke-width:4; stroke-opacity:1; fill:none" points="147.478,1036.13 166.376,1036.13 "/>
<polyline clip-path="url(#clip940)" style="stroke:#000000; stroke-linecap:round; stroke-linejoin:round; stroke-width:4; stroke-opacity:1; fill:none" points="147.478,770.327 166.376,770.327 "/>
<polyline clip-path="url(#clip940)" style="stroke:#000000; stroke-linecap:round; stroke-linejoin:round; stroke-width:4; stroke-opacity:1; fill:none" points="147.478,504.525 166.376,504.525 "/>
<polyline clip-path="url(#clip940)" style="stroke:#000000; stroke-linecap:round; stroke-linejoin:round; stroke-width:4; stroke-opacity:1; fill:none" points="147.478,238.724 166.376,238.724 "/>
<path clip-path="url(#clip940)" d="M51.3625 1302.38 L81.0383 1302.38 L81.0383 1306.32 L51.3625 1306.32 L51.3625 1302.38 Z" fill="#000000" fill-rule="nonzero" fill-opacity="1" /><path clip-path="url(#clip940)" d="M95.1586 1315.27 L111.478 1315.27 L111.478 1319.21 L89.5336 1319.21 L89.5336 1315.27 Q92.1956 1312.52 96.7789 1307.89 Q101.385 1303.24 102.566 1301.9 Q104.811 1299.37 105.691 1297.64 Q106.594 1295.88 106.594 1294.19 Q106.594 1291.43 104.649 1289.7 Q102.728 1287.96 99.6261 1287.96 Q97.4271 1287.96 94.9734 1288.72 Q92.5428 1289.49 89.7651 1291.04 L89.7651 1286.32 Q92.5891 1285.18 95.0428 1284.6 Q97.4965 1284.02 99.5335 1284.02 Q104.904 1284.02 108.098 1286.71 Q111.293 1289.4 111.293 1293.89 Q111.293 1296.02 110.483 1297.94 Q109.696 1299.83 107.589 1302.43 Q107.01 1303.1 103.909 1306.32 Q100.807 1309.51 95.1586 1315.27 Z" fill="#000000" fill-rule="nonzero" fill-opacity="1" /><path clip-path="url(#clip940)" d="M50.9921 1036.58 L80.6679 1036.58 L80.6679 1040.51 L50.9921 1040.51 L50.9921 1036.58 Z" fill="#000000" fill-rule="nonzero" fill-opacity="1" /><path clip-path="url(#clip940)" d="M91.5706 1049.47 L99.2095 1049.47 L99.2095 1023.11 L90.8993 1024.77 L90.8993 1020.51 L99.1632 1018.85 L103.839 1018.85 L103.839 1049.47 L111.478 1049.47 L111.478 1053.41 L91.5706 1053.41 L91.5706 1049.47 Z" fill="#000000" fill-rule="nonzero" fill-opacity="1" /><path clip-path="url(#clip940)" d="M99.5335 756.125 Q95.9224 756.125 94.0937 759.69 Q92.2882 763.232 92.2882 770.361 Q92.2882 777.468 94.0937 781.033 Q95.9224 784.574 99.5335 784.574 Q103.168 784.574 104.973 781.033 Q106.802 777.468 106.802 770.361 Q106.802 763.232 104.973 759.69 Q103.168 756.125 99.5335 756.125 M99.5335 752.422 Q105.344 752.422 108.399 757.028 Q111.478 761.612 111.478 770.361 Q111.478 779.088 108.399 783.695 Q105.344 788.278 99.5335 788.278 Q93.7234 788.278 90.6447 783.695 Q87.5892 779.088 87.5892 770.361 Q87.5892 761.612 90.6447 757.028 Q93.7234 752.422 99.5335 752.422 Z" fill="#000000" fill-rule="nonzero" fill-opacity="1" /><path clip-path="url(#clip940)" d="M91.5706 517.87 L99.2095 517.87 L99.2095 491.504 L90.8993 493.171 L90.8993 488.912 L99.1632 487.245 L103.839 487.245 L103.839 517.87 L111.478 517.87 L111.478 521.805 L91.5706 521.805 L91.5706 517.87 Z" fill="#000000" fill-rule="nonzero" fill-opacity="1" /><path clip-path="url(#clip940)" d="M95.1586 252.069 L111.478 252.069 L111.478 256.004 L89.5336 256.004 L89.5336 252.069 Q92.1956 249.314 96.7789 244.684 Q101.385 240.032 102.566 238.689 Q104.811 236.166 105.691 234.43 Q106.594 232.671 106.594 230.981 Q106.594 228.226 104.649 226.49 Q102.728 224.754 99.6261 224.754 Q97.4271 224.754 94.9734 225.518 Q92.5428 226.282 89.7651 227.833 L89.7651 223.11 Q92.5891 221.976 95.0428 221.397 Q97.4965 220.819 99.5335 220.819 Q104.904 220.819 108.098 223.504 Q111.293 226.189 111.293 230.68 Q111.293 232.809 110.483 234.731 Q109.696 236.629 107.589 239.221 Q107.01 239.893 103.909 243.11 Q100.807 246.305 95.1586 252.069 Z" fill="#000000" fill-rule="nonzero" fill-opacity="1" /><circle clip-path="url(#clip942)" cx="249.11" cy="872.779" r="14.4" fill="#009af9" fill-rule="evenodd" fill-opacity="0.5" stroke="#000000" stroke-opacity="0.5" stroke-width="3.2"/>
<circle clip-path="url(#clip942)" cx="1147.22" cy="1081.86" r="14.4" fill="#009af9" fill-rule="evenodd" fill-opacity="0.5" stroke="#000000" stroke-opacity="0.5" stroke-width="3.2"/>
<circle clip-path="url(#clip942)" cx="1211.44" cy="617.567" r="14.4" fill="#009af9" fill-rule="evenodd" fill-opacity="0.5" stroke="#000000" stroke-opacity="0.5" stroke-width="3.2"/>
<circle clip-path="url(#clip942)" cx="2290.34" cy="966.044" r="14.4" fill="#009af9" fill-rule="evenodd" fill-opacity="0.5" stroke="#000000" stroke-opacity="0.5" stroke-width="3.2"/>
<circle clip-path="url(#clip942)" cx="964.929" cy="409" r="14.4" fill="#009af9" fill-rule="evenodd" fill-opacity="0.5" stroke="#000000" stroke-opacity="0.5" stroke-width="3.2"/>
<circle clip-path="url(#clip942)" cx="2072.34" cy="1015.79" r="14.4" fill="#009af9" fill-rule="evenodd" fill-opacity="0.5" stroke="#000000" stroke-opacity="0.5" stroke-width="3.2"/>
<circle clip-path="url(#clip942)" cx="209.891" cy="729.387" r="14.4" fill="#009af9" fill-rule="evenodd" fill-opacity="0.5" stroke="#000000" stroke-opacity="0.5" stroke-width="3.2"/>
<circle clip-path="url(#clip942)" cx="1418.3" cy="958.758" r="14.4" fill="#009af9" fill-rule="evenodd" fill-opacity="0.5" stroke="#000000" stroke-opacity="0.5" stroke-width="3.2"/>
<circle clip-path="url(#clip942)" cx="1032.42" cy="571.314" r="14.4" fill="#009af9" fill-rule="evenodd" fill-opacity="0.5" stroke="#000000" stroke-opacity="0.5" stroke-width="3.2"/>
<circle clip-path="url(#clip942)" cx="581.3" cy="595.216" r="14.4" fill="#009af9" fill-rule="evenodd" fill-opacity="0.5" stroke="#000000" stroke-opacity="0.5" stroke-width="3.2"/>
<circle clip-path="url(#clip942)" cx="1069.19" cy="486.269" r="14.4" fill="#009af9" fill-rule="evenodd" fill-opacity="0.5" stroke="#000000" stroke-opacity="0.5" stroke-width="3.2"/>
<circle clip-path="url(#clip942)" cx="1194.86" cy="933.14" r="14.4" fill="#009af9" fill-rule="evenodd" fill-opacity="0.5" stroke="#000000" stroke-opacity="0.5" stroke-width="3.2"/>
<circle clip-path="url(#clip942)" cx="1519.62" cy="87.9763" r="14.4" fill="#009af9" fill-rule="evenodd" fill-opacity="0.5" stroke="#000000" stroke-opacity="0.5" stroke-width="3.2"/>
<circle clip-path="url(#clip942)" cx="1043.15" cy="956.428" r="14.4" fill="#009af9" fill-rule="evenodd" fill-opacity="0.5" stroke="#000000" stroke-opacity="0.5" stroke-width="3.2"/>
<circle clip-path="url(#clip942)" cx="921.201" cy="773.072" r="14.4" fill="#009af9" fill-rule="evenodd" fill-opacity="0.5" stroke="#000000" stroke-opacity="0.5" stroke-width="3.2"/>
<circle clip-path="url(#clip942)" cx="1917.5" cy="594.495" r="14.4" fill="#009af9" fill-rule="evenodd" fill-opacity="0.5" stroke="#000000" stroke-opacity="0.5" stroke-width="3.2"/>
<circle clip-path="url(#clip942)" cx="685.768" cy="931.68" r="14.4" fill="#009af9" fill-rule="evenodd" fill-opacity="0.5" stroke="#000000" stroke-opacity="0.5" stroke-width="3.2"/>
<circle clip-path="url(#clip942)" cx="1822.91" cy="420.962" r="14.4" fill="#009af9" fill-rule="evenodd" fill-opacity="0.5" stroke="#000000" stroke-opacity="0.5" stroke-width="3.2"/>
<circle clip-path="url(#clip942)" cx="1737.76" cy="738.187" r="14.4" fill="#009af9" fill-rule="evenodd" fill-opacity="0.5" stroke="#000000" stroke-opacity="0.5" stroke-width="3.2"/>
<circle clip-path="url(#clip942)" cx="860.503" cy="681.523" r="14.4" fill="#009af9" fill-rule="evenodd" fill-opacity="0.5" stroke="#000000" stroke-opacity="0.5" stroke-width="3.2"/>
<circle clip-path="url(#clip942)" cx="997.872" cy="754.779" r="14.4" fill="#009af9" fill-rule="evenodd" fill-opacity="0.5" stroke="#000000" stroke-opacity="0.5" stroke-width="3.2"/>
<circle clip-path="url(#clip942)" cx="1233.05" cy="959.892" r="14.4" fill="#009af9" fill-rule="evenodd" fill-opacity="0.5" stroke="#000000" stroke-opacity="0.5" stroke-width="3.2"/>
<circle clip-path="url(#clip942)" cx="1457.96" cy="766.246" r="14.4" fill="#009af9" fill-rule="evenodd" fill-opacity="0.5" stroke="#000000" stroke-opacity="0.5" stroke-width="3.2"/>
<circle clip-path="url(#clip942)" cx="656.428" cy="578.008" r="14.4" fill="#009af9" fill-rule="evenodd" fill-opacity="0.5" stroke="#000000" stroke-opacity="0.5" stroke-width="3.2"/>
<circle clip-path="url(#clip942)" cx="1362.23" cy="664.086" r="14.4" fill="#009af9" fill-rule="evenodd" fill-opacity="0.5" stroke="#000000" stroke-opacity="0.5" stroke-width="3.2"/>
<circle clip-path="url(#clip942)" cx="1459.71" cy="1114.96" r="14.4" fill="#009af9" fill-rule="evenodd" fill-opacity="0.5" stroke="#000000" stroke-opacity="0.5" stroke-width="3.2"/>
<circle clip-path="url(#clip942)" cx="1936.66" cy="637.349" r="14.4" fill="#009af9" fill-rule="evenodd" fill-opacity="0.5" stroke="#000000" stroke-opacity="0.5" stroke-width="3.2"/>
<circle clip-path="url(#clip942)" cx="298.294" cy="1154.47" r="14.4" fill="#009af9" fill-rule="evenodd" fill-opacity="0.5" stroke="#000000" stroke-opacity="0.5" stroke-width="3.2"/>
<circle clip-path="url(#clip942)" cx="1292.85" cy="566.621" r="14.4" fill="#009af9" fill-rule="evenodd" fill-opacity="0.5" stroke="#000000" stroke-opacity="0.5" stroke-width="3.2"/>
<circle clip-path="url(#clip942)" cx="1018.41" cy="1445.72" r="14.4" fill="#009af9" fill-rule="evenodd" fill-opacity="0.5" stroke="#000000" stroke-opacity="0.5" stroke-width="3.2"/>
<path clip-path="url(#clip942)" d="M209.891 729.387 L298.294 1154.47 L1018.41 1445.72 L2290.34 966.044 L1822.91 420.962 L1519.62 87.9763 L209.891 729.387 L209.891 729.387  Z" fill="#e26f46" fill-rule="evenodd" fill-opacity="0.2"/>
<polyline clip-path="url(#clip942)" style="stroke:#000000; stroke-linecap:round; stroke-linejoin:round; stroke-width:4; stroke-opacity:0.2; fill:none" points="209.891,729.387 298.294,1154.47 1018.41,1445.72 2290.34,966.044 1822.91,420.962 1519.62,87.9763 209.891,729.387 "/>
</svg>
