<?xml version="1.0" encoding="utf-8"?>
<svg xmlns="http://www.w3.org/2000/svg" xmlns:xlink="http://www.w3.org/1999/xlink" width="600" height="400" viewBox="0 0 2400 1600">
<defs>
  <clipPath id="clip250">
    <rect x="0" y="0" width="2400" height="1600"/>
  </clipPath>
</defs>
<path clip-path="url(#clip250)" d="M0 1600 L2400 1600 L2400 0 L0 0  Z" fill="#ffffff" fill-rule="evenodd" fill-opacity="1"/>
<defs>
  <clipPath id="clip251">
    <rect x="147" y="47" width="2206" height="1440"/>
  </clipPath>
</defs>
<path clip-path="url(#clip250)" d="M147.478 1486.45 L2352.76 1486.45 L2352.76 47.2441 L147.478 47.2441  Z" fill="#ffffff" fill-rule="evenodd" fill-opacity="1"/>
<polyline clip-path="url(#clip251)" style="stroke:#000000; stroke-linecap:round; stroke-linejoin:round; stroke-width:2; stroke-opacity:0.1; fill:none" points="424.113,1486.45 424.113,47.2441 "/>
<polyline clip-path="url(#clip251)" style="stroke:#000000; stroke-linecap:round; stroke-linejoin:round; stroke-width:2; stroke-opacity:0.1; fill:none" points="1004.29,1486.45 1004.29,47.2441 "/>
<polyline clip-path="url(#clip251)" style="stroke:#000000; stroke-linecap:round; stroke-linejoin:round; stroke-width:2; stroke-opacity:0.1; fill:none" points="1584.47,1486.45 1584.47,47.2441 "/>
<polyline clip-path="url(#clip251)" style="stroke:#000000; stroke-linecap:round; stroke-linejoin:round; stroke-width:2; stroke-opacity:0.1; fill:none" points="2164.65,1486.45 2164.65,47.2441 "/>
<polyline clip-path="url(#clip251)" style="stroke:#000000; stroke-linecap:round; stroke-linejoin:round; stroke-width:2; stroke-opacity:0.1; fill:none" points="147.478,1390.84 2352.76,1390.84 "/>
<polyline clip-path="url(#clip251)" style="stroke:#000000; stroke-linecap:round; stroke-linejoin:round; stroke-width:2; stroke-opacity:0.1; fill:none" points="147.478,1106.54 2352.76,1106.54 "/>
<polyline clip-path="url(#clip251)" style="stroke:#000000; stroke-linecap:round; stroke-linejoin:round; stroke-width:2; stroke-opacity:0.1; fill:none" points="147.478,822.233 2352.76,822.233 "/>
<polyline clip-path="url(#clip251)" style="stroke:#000000; stroke-linecap:round; stroke-linejoin:round; stroke-width:2; stroke-opacity:0.1; fill:none" points="147.478,537.928 2352.76,537.928 "/>
<polyline clip-path="url(#clip251)" style="stroke:#000000; stroke-linecap:round; stroke-linejoin:round; stroke-width:2; stroke-opacity:0.1; fill:none" points="147.478,253.623 2352.76,253.623 "/>
<polyline clip-path="url(#clip250)" style="stroke:#000000; stroke-linecap:round; stroke-linejoin:round; stroke-width:4; stroke-opacity:1; fill:none" points="147.478,1486.45 2352.76,1486.45 "/>
<polyline clip-path="url(#clip250)" style="stroke:#000000; stroke-linecap:round; stroke-linejoin:round; stroke-width:4; stroke-opacity:1; fill:none" points="424.113,1486.45 424.113,1467.55 "/>
<polyline clip-path="url(#clip250)" style="stroke:#000000; stroke-linecap:round; stroke-linejoin:round; stroke-width:4; stroke-opacity:1; fill:none" points="1004.29,1486.45 1004.29,1467.55 "/>
<polyline clip-path="url(#clip250)" style="stroke:#000000; stroke-linecap:round; stroke-linejoin:round; stroke-width:4; stroke-opacity:1; fill:none" points="1584.47,1486.45 1584.47,1467.55 "/>
<polyline clip-path="url(#clip250)" style="stroke:#000000; stroke-linecap:round; stroke-linejoin:round; stroke-width:4; stroke-opacity:1; fill:none" points="2164.65,1486.45 2164.65,1467.55 "/>
<path clip-path="url(#clip250)" d="M393.87 1532.02 L423.546 1532.02 L423.546 1535.95 L393.87 1535.95 L393.87 1532.02 Z" fill="#000000" fill-rule="nonzero" fill-opacity="1" /><path clip-path="url(#clip250)" d="M434.448 1544.91 L442.087 1544.91 L442.087 1518.55 L433.777 1520.21 L433.777 1515.95 L442.041 1514.29 L446.717 1514.29 L446.717 1544.91 L454.356 1544.91 L454.356 1548.85 L434.448 1548.85 L434.448 1544.91 Z" fill="#000000" fill-rule="nonzero" fill-opacity="1" /><path clip-path="url(#clip250)" d="M1004.29 1517.37 Q1000.68 1517.37 998.852 1520.93 Q997.047 1524.47 997.047 1531.6 Q997.047 1538.71 998.852 1542.27 Q1000.68 1545.82 1004.29 1545.82 Q1007.93 1545.82 1009.73 1542.27 Q1011.56 1538.71 1011.56 1531.6 Q1011.56 1524.47 1009.73 1520.93 Q1007.93 1517.37 1004.29 1517.37 M1004.29 1513.66 Q1010.1 1513.66 1013.16 1518.27 Q1016.24 1522.85 1016.24 1531.6 Q1016.24 1540.33 1013.16 1544.94 Q1010.1 1549.52 1004.29 1549.52 Q998.482 1549.52 995.403 1544.94 Q992.348 1540.33 992.348 1531.6 Q992.348 1522.85 995.403 1518.27 Q998.482 1513.66 1004.29 1513.66 Z" fill="#000000" fill-rule="nonzero" fill-opacity="1" /><path clip-path="url(#clip250)" d="M1574.85 1544.91 L1582.49 1544.91 L1582.49 1518.55 L1574.18 1520.21 L1574.18 1515.95 L1582.45 1514.29 L1587.12 1514.29 L1587.12 1544.91 L1594.76 1544.91 L1594.76 1548.85 L1574.85 1548.85 L1574.85 1544.91 Z" fill="#000000" fill-rule="nonzero" fill-opacity="1" /><path clip-path="url(#clip250)" d="M2159.3 1544.91 L2175.62 1544.91 L2175.62 1548.85 L2153.68 1548.85 L2153.68 1544.91 Q2156.34 1542.16 2160.92 1537.53 Q2165.53 1532.88 2166.71 1531.53 Q2168.96 1529.01 2169.84 1527.27 Q2170.74 1525.51 2170.74 1523.82 Q2170.74 1521.07 2168.79 1519.33 Q2166.87 1517.6 2163.77 1517.6 Q2161.57 1517.6 2159.12 1518.36 Q2156.69 1519.13 2153.91 1520.68 L2153.91 1515.95 Q2156.73 1514.82 2159.19 1514.24 Q2161.64 1513.66 2163.68 1513.66 Q2169.05 1513.66 2172.24 1516.35 Q2175.44 1519.03 2175.44 1523.52 Q2175.44 1525.65 2174.63 1527.57 Q2173.84 1529.47 2171.73 1532.07 Q2171.16 1532.74 2168.05 1535.95 Q2164.95 1539.15 2159.3 1544.91 Z" fill="#000000" fill-rule="nonzero" fill-opacity="1" /><polyline clip-path="url(#clip250)" style="stroke:#000000; stroke-linecap:round; stroke-linejoin:round; stroke-width:4; stroke-opacity:1; fill:none" points="147.478,1486.45 147.478,47.2441 "/>
<polyline clip-path="url(#clip250)" style="stroke:#000000; stroke-linecap:round; stroke-linejoin:round; stroke-width:4; stroke-opacity:1; fill:none" points="147.478,1390.84 166.376,1390.84 "/>
<polyline clip-path="url(#clip250)" style="stroke:#000000; stroke-linecap:round; stroke-linejoin:round; stroke-width:4; stroke-opacity:1; fill:none" points="147.478,1106.54 166.376,1106.54 "/>
<polyline clip-path="url(#clip250)" style="stroke:#000000; stroke-linecap:round; stroke-linejoin:round; stroke-width:4; stroke-opacity:1; fill:none" points="147.478,822.233 166.376,822.233 "/>
<polyline clip-path="url(#clip250)" style="stroke:#000000; stroke-linecap:round; stroke-linejoin:round; stroke-width:4; stroke-opacity:1; fill:none" points="147.478,537.928 166.376,537.928 "/>
<polyline clip-path="url(#clip250)" style="stroke:#000000; stroke-linecap:round; stroke-linejoin:round; stroke-width:4; stroke-opacity:1; fill:none" points="147.478,253.623 166.376,253.623 "/>
<path clip-path="url(#clip250)" d="M51.3625 1391.29 L81.0383 1391.29 L81.0383 1395.23 L51.3625 1395.23 L51.3625 1391.29 Z" fill="#000000" fill-rule="nonzero" fill-opacity="1" /><path clip-path="url(#clip250)" d="M95.1586 1404.19 L111.478 1404.19 L111.478 1408.12 L89.5336 1408.12 L89.5336 1404.19 Q92.1956 1401.43 96.7789 1396.8 Q101.385 1392.15 102.566 1390.81 Q104.811 1388.29 105.691 1386.55 Q106.594 1384.79 106.594 1383.1 Q106.594 1380.35 104.649 1378.61 Q102.728 1376.87 99.6261 1376.87 Q97.4271 1376.87 94.9734 1377.64 Q92.5428 1378.4 89.7651 1379.95 L89.7651 1375.23 Q92.5891 1374.1 95.0428 1373.52 Q97.4965 1372.94 99.5335 1372.94 Q104.904 1372.94 108.098 1375.62 Q111.293 1378.31 111.293 1382.8 Q111.293 1384.93 110.483 1386.85 Q109.696 1388.75 107.589 1391.34 Q107.01 1392.01 103.909 1395.23 Q100.807 1398.42 95.1586 1404.19 Z" fill="#000000" fill-rule="nonzero" fill-opacity="1" /><path clip-path="url(#clip250)" d="M50.9921 1106.99 L80.6679 1106.99 L80.6679 1110.92 L50.9921 1110.92 L50.9921 1106.99 Z" fill="#000000" fill-rule="nonzero" fill-opacity="1" /><path clip-path="url(#clip250)" d="M91.5706 1119.88 L99.2095 1119.88 L99.2095 1093.52 L90.8993 1095.18 L90.8993 1090.93 L99.1632 1089.26 L103.839 1089.26 L103.839 1119.88 L111.478 1119.88 L111.478 1123.82 L91.5706 1123.82 L91.5706 1119.88 Z" fill="#000000" fill-rule="nonzero" fill-opacity="1" /><path clip-path="url(#clip250)" d="M99.5335 808.032 Q95.9224 808.032 94.0937 811.597 Q92.2882 815.138 92.2882 822.268 Q92.2882 829.374 94.0937 832.939 Q95.9224 836.481 99.5335 836.481 Q103.168 836.481 104.973 832.939 Q106.802 829.374 106.802 822.268 Q106.802 815.138 104.973 811.597 Q103.168 808.032 99.5335 808.032 M99.5335 804.328 Q105.344 804.328 108.399 808.935 Q111.478 813.518 111.478 822.268 Q111.478 830.995 108.399 835.601 Q105.344 840.185 99.5335 840.185 Q93.7234 840.185 90.6447 835.601 Q87.5892 830.995 87.5892 822.268 Q87.5892 813.518 90.6447 808.935 Q93.7234 804.328 99.5335 804.328 Z" fill="#000000" fill-rule="nonzero" fill-opacity="1" /><path clip-path="url(#clip250)" d="M91.5706 551.273 L99.2095 551.273 L99.2095 524.907 L90.8993 526.574 L90.8993 522.315 L99.1632 520.648 L103.839 520.648 L103.839 551.273 L111.478 551.273 L111.478 555.208 L91.5706 555.208 L91.5706 551.273 Z" fill="#000000" fill-rule="nonzero" fill-opacity="1" /><path clip-path="url(#clip250)" d="M95.1586 266.968 L111.478 266.968 L111.478 270.903 L89.5336 270.903 L89.5336 266.968 Q92.1956 264.213 96.7789 259.584 Q101.385 254.931 102.566 253.588 Q104.811 251.065 105.691 249.329 Q106.594 247.57 106.594 245.88 Q106.594 243.125 104.649 241.389 Q102.728 239.653 99.6261 239.653 Q97.4271 239.653 94.9734 240.417 Q92.5428 241.181 89.7651 242.732 L89.7651 238.01 Q92.5891 236.875 95.0428 236.297 Q97.4965 235.718 99.5335 235.718 Q104.904 235.718 108.098 238.403 Q111.293 241.088 111.293 245.579 Q111.293 247.709 110.483 249.63 Q109.696 251.528 107.589 254.121 Q107.01 254.792 103.909 258.01 Q100.807 261.204 95.1586 266.968 Z" fill="#000000" fill-rule="nonzero" fill-opacity="1" /><circle clip-path="url(#clip251)" cx="412.047" cy="689.28" r="14.4" fill="#009af9" fill-rule="evenodd" fill-opacity="0.5" stroke="#000000" stroke-opacity="0.5" stroke-width="3.2"/>
<circle clip-path="url(#clip251)" cx="630.398" cy="1041.41" r="14.4" fill="#009af9" fill-rule="evenodd" fill-opacity="0.5" stroke="#000000" stroke-opacity="0.5" stroke-width="3.2"/>
<circle clip-path="url(#clip251)" cx="2237.98" cy="902.098" r="14.4" fill="#009af9" fill-rule="evenodd" fill-opacity="0.5" stroke="#000000" stroke-opacity="0.5" stroke-width="3.2"/>
<circle clip-path="url(#clip251)" cx="1543.61" cy="856.547" r="14.4" fill="#009af9" fill-rule="evenodd" fill-opacity="0.5" stroke="#000000" stroke-opacity="0.5" stroke-width="3.2"/>
<circle clip-path="url(#clip251)" cx="1822.74" cy="104.306" r="14.4" fill="#009af9" fill-rule="evenodd" fill-opacity="0.5" stroke="#000000" stroke-opacity="0.5" stroke-width="3.2"/>
<circle clip-path="url(#clip251)" cx="237.062" cy="752.056" r="14.4" fill="#009af9" fill-rule="evenodd" fill-opacity="0.5" stroke="#000000" stroke-opacity="0.5" stroke-width="3.2"/>
<circle clip-path="url(#clip251)" cx="1638.72" cy="1359.72" r="14.4" fill="#009af9" fill-rule="evenodd" fill-opacity="0.5" stroke="#000000" stroke-opacity="0.5" stroke-width="3.2"/>
<circle clip-path="url(#clip251)" cx="1099.66" cy="887.618" r="14.4" fill="#009af9" fill-rule="evenodd" fill-opacity="0.5" stroke="#000000" stroke-opacity="0.5" stroke-width="3.2"/>
<circle clip-path="url(#clip251)" cx="939.669" cy="1248.81" r="14.4" fill="#009af9" fill-rule="evenodd" fill-opacity="0.5" stroke="#000000" stroke-opacity="0.5" stroke-width="3.2"/>
<circle clip-path="url(#clip251)" cx="840.806" cy="87.9763" r="14.4" fill="#009af9" fill-rule="evenodd" fill-opacity="0.5" stroke="#000000" stroke-opacity="0.5" stroke-width="3.2"/>
<circle clip-path="url(#clip251)" cx="1542.1" cy="547.898" r="14.4" fill="#009af9" fill-rule="evenodd" fill-opacity="0.5" stroke="#000000" stroke-opacity="0.5" stroke-width="3.2"/>
<circle clip-path="url(#clip251)" cx="1157.23" cy="400.977" r="14.4" fill="#009af9" fill-rule="evenodd" fill-opacity="0.5" stroke="#000000" stroke-opacity="0.5" stroke-width="3.2"/>
<circle clip-path="url(#clip251)" cx="910.699" cy="1372.3" r="14.4" fill="#009af9" fill-rule="evenodd" fill-opacity="0.5" stroke="#000000" stroke-opacity="0.5" stroke-width="3.2"/>
<circle clip-path="url(#clip251)" cx="835.47" cy="681.82" r="14.4" fill="#009af9" fill-rule="evenodd" fill-opacity="0.5" stroke="#000000" stroke-opacity="0.5" stroke-width="3.2"/>
<circle clip-path="url(#clip251)" cx="1114.03" cy="467.579" r="14.4" fill="#009af9" fill-rule="evenodd" fill-opacity="0.5" stroke="#000000" stroke-opacity="0.5" stroke-width="3.2"/>
<circle clip-path="url(#clip251)" cx="1032.05" cy="803.708" r="14.4" fill="#009af9" fill-rule="evenodd" fill-opacity="0.5" stroke="#000000" stroke-opacity="0.5" stroke-width="3.2"/>
<circle clip-path="url(#clip251)" cx="277.966" cy="1408.14" r="14.4" fill="#009af9" fill-rule="evenodd" fill-opacity="0.5" stroke="#000000" stroke-opacity="0.5" stroke-width="3.2"/>
<circle clip-path="url(#clip251)" cx="1291.6" cy="276.116" r="14.4" fill="#009af9" fill-rule="evenodd" fill-opacity="0.5" stroke="#000000" stroke-opacity="0.5" stroke-width="3.2"/>
<circle clip-path="url(#clip251)" cx="777.648" cy="1236.8" r="14.4" fill="#009af9" fill-rule="evenodd" fill-opacity="0.5" stroke="#000000" stroke-opacity="0.5" stroke-width="3.2"/>
<circle clip-path="url(#clip251)" cx="2290.34" cy="1445.72" r="14.4" fill="#009af9" fill-rule="evenodd" fill-opacity="0.5" stroke="#000000" stroke-opacity="0.5" stroke-width="3.2"/>
<circle clip-path="url(#clip251)" cx="1058.27" cy="671.261" r="14.4" fill="#009af9" fill-rule="evenodd" fill-opacity="0.5" stroke="#000000" stroke-opacity="0.5" stroke-width="3.2"/>
<circle clip-path="url(#clip251)" cx="644.435" cy="887.635" r="14.4" fill="#009af9" fill-rule="evenodd" fill-opacity="0.5" stroke="#000000" stroke-opacity="0.5" stroke-width="3.2"/>
<circle clip-path="url(#clip251)" cx="862.61" cy="977.873" r="14.4" fill="#009af9" fill-rule="evenodd" fill-opacity="0.5" stroke="#000000" stroke-opacity="0.5" stroke-width="3.2"/>
<circle clip-path="url(#clip251)" cx="901.351" cy="365.137" r="14.4" fill="#009af9" fill-rule="evenodd" fill-opacity="0.5" stroke="#000000" stroke-opacity="0.5" stroke-width="3.2"/>
<circle clip-path="url(#clip251)" cx="209.891" cy="863.303" r="14.4" fill="#009af9" fill-rule="evenodd" fill-opacity="0.5" stroke="#000000" stroke-opacity="0.5" stroke-width="3.2"/>
<circle clip-path="url(#clip251)" cx="510.816" cy="948.894" r="14.4" fill="#009af9" fill-rule="evenodd" fill-opacity="0.5" stroke="#000000" stroke-opacity="0.5" stroke-width="3.2"/>
<circle clip-path="url(#clip251)" cx="576.338" cy="705.877" r="14.4" fill="#009af9" fill-rule="evenodd" fill-opacity="0.5" stroke="#000000" stroke-opacity="0.5" stroke-width="3.2"/>
<circle clip-path="url(#clip251)" cx="1491.48" cy="535.522" r="14.4" fill="#009af9" fill-rule="evenodd" fill-opacity="0.5" stroke="#000000" stroke-opacity="0.5" stroke-width="3.2"/>
<circle clip-path="url(#clip251)" cx="772.404" cy="982.269" r="14.4" fill="#009af9" fill-rule="evenodd" fill-opacity="0.5" stroke="#000000" stroke-opacity="0.5" stroke-width="3.2"/>
<circle clip-path="url(#clip251)" cx="493.47" cy="755.535" r="14.4" fill="#009af9" fill-rule="evenodd" fill-opacity="0.5" stroke="#000000" stroke-opacity="0.5" stroke-width="3.2"/>
<path clip-path="url(#clip251)" d="M209.891 863.303 L277.966 1408.14 L2290.34 1445.72 L2237.98 902.098 L1822.74 104.306 L840.806 87.9763 L237.062 752.056 L209.891 863.303 L209.891 863.303  Z" fill="#e26f46" fill-rule="evenodd" fill-opacity="0.2"/>
<polyline clip-path="url(#clip251)" style="stroke:#000000; stroke-linecap:round; stroke-linejoin:round; stroke-width:4; stroke-opacity:0.2; fill:none" points="209.891,863.303 277.966,1408.14 2290.34,1445.72 2237.98,902.098 1822.74,104.306 840.806,87.9763 237.062,752.056 209.891,863.303 "/>
</svg>
