<?xml version="1.0" encoding="utf-8"?>
<svg xmlns="http://www.w3.org/2000/svg" xmlns:xlink="http://www.w3.org/1999/xlink" width="600" height="400" viewBox="0 0 2400 1600">
<defs>
  <clipPath id="clip060">
    <rect x="0" y="0" width="2400" height="1600"/>
  </clipPath>
</defs>
<path clip-path="url(#clip060)" d="M0 1600 L2400 1600 L2400 0 L0 0  Z" fill="#ffffff" fill-rule="evenodd" fill-opacity="1"/>
<defs>
  <clipPath id="clip061">
    <rect x="480" y="0" width="1681" height="1600"/>
  </clipPath>
</defs>
<path clip-path="url(#clip060)" d="M147.478 1486.45 L2352.76 1486.45 L2352.76 47.2441 L147.478 47.2441  Z" fill="#ffffff" fill-rule="evenodd" fill-opacity="1"/>
<defs>
  <clipPath id="clip062">
    <rect x="147" y="47" width="2206" height="1440"/>
  </clipPath>
</defs>
<polyline clip-path="url(#clip062)" style="stroke:#000000; stroke-linecap:round; stroke-linejoin:round; stroke-width:2; stroke-opacity:0.1; fill:none" points="352.104,1486.45 352.104,47.2441 "/>
<polyline clip-path="url(#clip062)" style="stroke:#000000; stroke-linecap:round; stroke-linejoin:round; stroke-width:2; stroke-opacity:0.1; fill:none" points="643.085,1486.45 643.085,47.2441 "/>
<polyline clip-path="url(#clip062)" style="stroke:#000000; stroke-linecap:round; stroke-linejoin:round; stroke-width:2; stroke-opacity:0.1; fill:none" points="934.067,1486.45 934.067,47.2441 "/>
<polyline clip-path="url(#clip062)" style="stroke:#000000; stroke-linecap:round; stroke-linejoin:round; stroke-width:2; stroke-opacity:0.1; fill:none" points="1225.05,1486.45 1225.05,47.2441 "/>
<polyline clip-path="url(#clip062)" style="stroke:#000000; stroke-linecap:round; stroke-linejoin:round; stroke-width:2; stroke-opacity:0.1; fill:none" points="1516.03,1486.45 1516.03,47.2441 "/>
<polyline clip-path="url(#clip062)" style="stroke:#000000; stroke-linecap:round; stroke-linejoin:round; stroke-width:2; stroke-opacity:0.1; fill:none" points="1807.01,1486.45 1807.01,47.2441 "/>
<polyline clip-path="url(#clip062)" style="stroke:#000000; stroke-linecap:round; stroke-linejoin:round; stroke-width:2; stroke-opacity:0.1; fill:none" points="2097.99,1486.45 2097.99,47.2441 "/>
<polyline clip-path="url(#clip062)" style="stroke:#000000; stroke-linecap:round; stroke-linejoin:round; stroke-width:2; stroke-opacity:0.1; fill:none" points="147.478,1352.5 2352.76,1352.5 "/>
<polyline clip-path="url(#clip062)" style="stroke:#000000; stroke-linecap:round; stroke-linejoin:round; stroke-width:2; stroke-opacity:0.1; fill:none" points="147.478,1036.94 2352.76,1036.94 "/>
<polyline clip-path="url(#clip062)" style="stroke:#000000; stroke-linecap:round; stroke-linejoin:round; stroke-width:2; stroke-opacity:0.1; fill:none" points="147.478,721.378 2352.76,721.378 "/>
<polyline clip-path="url(#clip062)" style="stroke:#000000; stroke-linecap:round; stroke-linejoin:round; stroke-width:2; stroke-opacity:0.1; fill:none" points="147.478,405.817 2352.76,405.817 "/>
<polyline clip-path="url(#clip062)" style="stroke:#000000; stroke-linecap:round; stroke-linejoin:round; stroke-width:2; stroke-opacity:0.1; fill:none" points="147.478,90.2559 2352.76,90.2559 "/>
<polyline clip-path="url(#clip060)" style="stroke:#000000; stroke-linecap:round; stroke-linejoin:round; stroke-width:4; stroke-opacity:1; fill:none" points="147.478,1486.45 2352.76,1486.45 "/>
<polyline clip-path="url(#clip060)" style="stroke:#000000; stroke-linecap:round; stroke-linejoin:round; stroke-width:4; stroke-opacity:1; fill:none" points="352.104,1486.45 352.104,1467.55 "/>
<polyline clip-path="url(#clip060)" style="stroke:#000000; stroke-linecap:round; stroke-linejoin:round; stroke-width:4; stroke-opacity:1; fill:none" points="643.085,1486.45 643.085,1467.55 "/>
<polyline clip-path="url(#clip060)" style="stroke:#000000; stroke-linecap:round; stroke-linejoin:round; stroke-width:4; stroke-opacity:1; fill:none" points="934.067,1486.45 934.067,1467.55 "/>
<polyline clip-path="url(#clip060)" style="stroke:#000000; stroke-linecap:round; stroke-linejoin:round; stroke-width:4; stroke-opacity:1; fill:none" points="1225.05,1486.45 1225.05,1467.55 "/>
<polyline clip-path="url(#clip060)" style="stroke:#000000; stroke-linecap:round; stroke-linejoin:round; stroke-width:4; stroke-opacity:1; fill:none" points="1516.03,1486.45 1516.03,1467.55 "/>
<polyline clip-path="url(#clip060)" style="stroke:#000000; stroke-linecap:round; stroke-linejoin:round; stroke-width:4; stroke-opacity:1; fill:none" points="1807.01,1486.45 1807.01,1467.55 "/>
<polyline clip-path="url(#clip060)" style="stroke:#000000; stroke-linecap:round; stroke-linejoin:round; stroke-width:4; stroke-opacity:1; fill:none" points="2097.99,1486.45 2097.99,1467.55 "/>
<path clip-path="url(#clip060)" d="M299.13 1532.02 L328.805 1532.02 L328.805 1535.95 L299.13 1535.95 L299.13 1532.02 Z" fill="#000000" fill-rule="nonzero" fill-opacity="1" /><path clip-path="url(#clip060)" d="M339.708 1544.91 L347.347 1544.91 L347.347 1518.55 L339.037 1520.21 L339.037 1515.95 L347.301 1514.29 L351.976 1514.29 L351.976 1544.91 L359.615 1544.91 L359.615 1548.85 L339.708 1548.85 L339.708 1544.91 Z" fill="#000000" fill-rule="nonzero" fill-opacity="1" /><path clip-path="url(#clip060)" d="M369.06 1542.97 L373.944 1542.97 L373.944 1548.85 L369.06 1548.85 L369.06 1542.97 Z" fill="#000000" fill-rule="nonzero" fill-opacity="1" /><path clip-path="url(#clip060)" d="M384.175 1514.29 L402.532 1514.29 L402.532 1518.22 L388.458 1518.22 L388.458 1526.7 Q389.476 1526.35 390.495 1526.19 Q391.513 1526 392.532 1526 Q398.319 1526 401.698 1529.17 Q405.078 1532.34 405.078 1537.76 Q405.078 1543.34 401.606 1546.44 Q398.134 1549.52 391.814 1549.52 Q389.638 1549.52 387.37 1549.15 Q385.124 1548.78 382.717 1548.04 L382.717 1543.34 Q384.8 1544.47 387.023 1545.03 Q389.245 1545.58 391.722 1545.58 Q395.726 1545.58 398.064 1543.48 Q400.402 1541.37 400.402 1537.76 Q400.402 1534.15 398.064 1532.04 Q395.726 1529.94 391.722 1529.94 Q389.847 1529.94 387.972 1530.35 Q386.12 1530.77 384.175 1531.65 L384.175 1514.29 Z" fill="#000000" fill-rule="nonzero" fill-opacity="1" /><path clip-path="url(#clip060)" d="M589.613 1532.02 L619.289 1532.02 L619.289 1535.95 L589.613 1535.95 L589.613 1532.02 Z" fill="#000000" fill-rule="nonzero" fill-opacity="1" /><path clip-path="url(#clip060)" d="M630.192 1544.91 L637.831 1544.91 L637.831 1518.55 L629.521 1520.21 L629.521 1515.95 L637.784 1514.29 L642.46 1514.29 L642.46 1544.91 L650.099 1544.91 L650.099 1548.85 L630.192 1548.85 L630.192 1544.91 Z" fill="#000000" fill-rule="nonzero" fill-opacity="1" /><path clip-path="url(#clip060)" d="M659.544 1542.97 L664.428 1542.97 L664.428 1548.85 L659.544 1548.85 L659.544 1542.97 Z" fill="#000000" fill-rule="nonzero" fill-opacity="1" /><path clip-path="url(#clip060)" d="M684.613 1517.37 Q681.002 1517.37 679.173 1520.93 Q677.368 1524.47 677.368 1531.6 Q677.368 1538.71 679.173 1542.27 Q681.002 1545.82 684.613 1545.82 Q688.247 1545.82 690.053 1542.27 Q691.881 1538.71 691.881 1531.6 Q691.881 1524.47 690.053 1520.93 Q688.247 1517.37 684.613 1517.37 M684.613 1513.66 Q690.423 1513.66 693.479 1518.27 Q696.557 1522.85 696.557 1531.6 Q696.557 1540.33 693.479 1544.94 Q690.423 1549.52 684.613 1549.52 Q678.803 1549.52 675.724 1544.94 Q672.669 1540.33 672.669 1531.6 Q672.669 1522.85 675.724 1518.27 Q678.803 1513.66 684.613 1513.66 Z" fill="#000000" fill-rule="nonzero" fill-opacity="1" /><path clip-path="url(#clip060)" d="M881.093 1532.02 L910.768 1532.02 L910.768 1535.95 L881.093 1535.95 L881.093 1532.02 Z" fill="#000000" fill-rule="nonzero" fill-opacity="1" /><path clip-path="url(#clip060)" d="M930.861 1517.37 Q927.25 1517.37 925.421 1520.93 Q923.616 1524.47 923.616 1531.6 Q923.616 1538.71 925.421 1542.27 Q927.25 1545.82 930.861 1545.82 Q934.495 1545.82 936.301 1542.27 Q938.129 1538.71 938.129 1531.6 Q938.129 1524.47 936.301 1520.93 Q934.495 1517.37 930.861 1517.37 M930.861 1513.66 Q936.671 1513.66 939.727 1518.27 Q942.805 1522.85 942.805 1531.6 Q942.805 1540.33 939.727 1544.94 Q936.671 1549.52 930.861 1549.52 Q925.051 1549.52 921.972 1544.94 Q918.917 1540.33 918.917 1531.6 Q918.917 1522.85 921.972 1518.27 Q925.051 1513.66 930.861 1513.66 Z" fill="#000000" fill-rule="nonzero" fill-opacity="1" /><path clip-path="url(#clip060)" d="M951.023 1542.97 L955.907 1542.97 L955.907 1548.85 L951.023 1548.85 L951.023 1542.97 Z" fill="#000000" fill-rule="nonzero" fill-opacity="1" /><path clip-path="url(#clip060)" d="M966.139 1514.29 L984.495 1514.29 L984.495 1518.22 L970.421 1518.22 L970.421 1526.7 Q971.439 1526.35 972.458 1526.19 Q973.476 1526 974.495 1526 Q980.282 1526 983.662 1529.17 Q987.041 1532.34 987.041 1537.76 Q987.041 1543.34 983.569 1546.44 Q980.097 1549.52 973.777 1549.52 Q971.601 1549.52 969.333 1549.15 Q967.088 1548.78 964.68 1548.04 L964.68 1543.34 Q966.764 1544.47 968.986 1545.03 Q971.208 1545.58 973.685 1545.58 Q977.689 1545.58 980.027 1543.48 Q982.365 1541.37 982.365 1537.76 Q982.365 1534.15 980.027 1532.04 Q977.689 1529.94 973.685 1529.94 Q971.81 1529.94 969.935 1530.35 Q968.083 1530.77 966.139 1531.65 L966.139 1514.29 Z" fill="#000000" fill-rule="nonzero" fill-opacity="1" /><path clip-path="url(#clip060)" d="M1202.43 1517.37 Q1198.82 1517.37 1196.99 1520.93 Q1195.19 1524.47 1195.19 1531.6 Q1195.19 1538.71 1196.99 1542.27 Q1198.82 1545.82 1202.43 1545.82 Q1206.07 1545.82 1207.87 1542.27 Q1209.7 1538.71 1209.7 1531.6 Q1209.7 1524.47 1207.87 1520.93 Q1206.07 1517.37 1202.43 1517.37 M1202.43 1513.66 Q1208.24 1513.66 1211.3 1518.27 Q1214.38 1522.85 1214.38 1531.6 Q1214.38 1540.33 1211.3 1544.94 Q1208.24 1549.52 1202.43 1549.52 Q1196.62 1549.52 1193.54 1544.94 Q1190.49 1540.33 1190.49 1531.6 Q1190.49 1522.85 1193.54 1518.27 Q1196.62 1513.66 1202.43 1513.66 Z" fill="#000000" fill-rule="nonzero" fill-opacity="1" /><path clip-path="url(#clip060)" d="M1222.59 1542.97 L1227.48 1542.97 L1227.48 1548.85 L1222.59 1548.85 L1222.59 1542.97 Z" fill="#000000" fill-rule="nonzero" fill-opacity="1" /><path clip-path="url(#clip060)" d="M1247.66 1517.37 Q1244.05 1517.37 1242.22 1520.93 Q1240.42 1524.47 1240.42 1531.6 Q1240.42 1538.71 1242.22 1542.27 Q1244.05 1545.82 1247.66 1545.82 Q1251.3 1545.82 1253.1 1542.27 Q1254.93 1538.71 1254.93 1531.6 Q1254.93 1524.47 1253.1 1520.93 Q1251.3 1517.37 1247.66 1517.37 M1247.66 1513.66 Q1253.47 1513.66 1256.53 1518.27 Q1259.61 1522.85 1259.61 1531.6 Q1259.61 1540.33 1256.53 1544.94 Q1253.47 1549.52 1247.66 1549.52 Q1241.85 1549.52 1238.78 1544.94 Q1235.72 1540.33 1235.72 1531.6 Q1235.72 1522.85 1238.78 1518.27 Q1241.85 1513.66 1247.66 1513.66 Z" fill="#000000" fill-rule="nonzero" fill-opacity="1" /><path clip-path="url(#clip060)" d="M1493.91 1517.37 Q1490.3 1517.37 1488.47 1520.93 Q1486.67 1524.47 1486.67 1531.6 Q1486.67 1538.71 1488.47 1542.27 Q1490.3 1545.82 1493.91 1545.82 Q1497.55 1545.82 1499.35 1542.27 Q1501.18 1538.71 1501.18 1531.6 Q1501.18 1524.47 1499.35 1520.93 Q1497.55 1517.37 1493.91 1517.37 M1493.91 1513.66 Q1499.72 1513.66 1502.78 1518.27 Q1505.86 1522.85 1505.86 1531.6 Q1505.86 1540.33 1502.78 1544.94 Q1499.72 1549.52 1493.91 1549.52 Q1488.1 1549.52 1485.02 1544.94 Q1481.97 1540.33 1481.97 1531.6 Q1481.97 1522.85 1485.02 1518.27 Q1488.1 1513.66 1493.91 1513.66 Z" fill="#000000" fill-rule="nonzero" fill-opacity="1" /><path clip-path="url(#clip060)" d="M1514.07 1542.97 L1518.96 1542.97 L1518.96 1548.85 L1514.07 1548.85 L1514.07 1542.97 Z" fill="#000000" fill-rule="nonzero" fill-opacity="1" /><path clip-path="url(#clip060)" d="M1529.19 1514.29 L1547.55 1514.29 L1547.55 1518.22 L1533.47 1518.22 L1533.47 1526.7 Q1534.49 1526.35 1535.51 1526.19 Q1536.53 1526 1537.55 1526 Q1543.33 1526 1546.71 1529.17 Q1550.09 1532.34 1550.09 1537.76 Q1550.09 1543.34 1546.62 1546.44 Q1543.15 1549.52 1536.83 1549.52 Q1534.65 1549.52 1532.38 1549.15 Q1530.14 1548.78 1527.73 1548.04 L1527.73 1543.34 Q1529.81 1544.47 1532.04 1545.03 Q1534.26 1545.58 1536.74 1545.58 Q1540.74 1545.58 1543.08 1543.48 Q1545.42 1541.37 1545.42 1537.76 Q1545.42 1534.15 1543.08 1532.04 Q1540.74 1529.94 1536.74 1529.94 Q1534.86 1529.94 1532.99 1530.35 Q1531.13 1530.77 1529.19 1531.65 L1529.19 1514.29 Z" fill="#000000" fill-rule="nonzero" fill-opacity="1" /><path clip-path="url(#clip060)" d="M1774.16 1544.91 L1781.8 1544.91 L1781.8 1518.55 L1773.49 1520.21 L1773.49 1515.95 L1781.76 1514.29 L1786.43 1514.29 L1786.43 1544.91 L1794.07 1544.91 L1794.07 1548.85 L1774.16 1548.85 L1774.16 1544.91 Z" fill="#000000" fill-rule="nonzero" fill-opacity="1" /><path clip-path="url(#clip060)" d="M1803.52 1542.97 L1808.4 1542.97 L1808.4 1548.85 L1803.52 1548.85 L1803.52 1542.97 Z" fill="#000000" fill-rule="nonzero" fill-opacity="1" /><path clip-path="url(#clip060)" d="M1828.59 1517.37 Q1824.97 1517.37 1823.15 1520.93 Q1821.34 1524.47 1821.34 1531.6 Q1821.34 1538.71 1823.15 1542.27 Q1824.97 1545.82 1828.59 1545.82 Q1832.22 1545.82 1834.03 1542.27 Q1835.85 1538.71 1835.85 1531.6 Q1835.85 1524.47 1834.03 1520.93 Q1832.22 1517.37 1828.59 1517.37 M1828.59 1513.66 Q1834.4 1513.66 1837.45 1518.27 Q1840.53 1522.85 1840.53 1531.6 Q1840.53 1540.33 1837.45 1544.94 Q1834.4 1549.52 1828.59 1549.52 Q1822.78 1549.52 1819.7 1544.94 Q1816.64 1540.33 1816.64 1531.6 Q1816.64 1522.85 1819.7 1518.27 Q1822.78 1513.66 1828.59 1513.66 Z" fill="#000000" fill-rule="nonzero" fill-opacity="1" /><path clip-path="url(#clip060)" d="M2065.64 1544.91 L2073.28 1544.91 L2073.28 1518.55 L2064.97 1520.21 L2064.97 1515.95 L2073.24 1514.29 L2077.91 1514.29 L2077.91 1544.91 L2085.55 1544.91 L2085.55 1548.85 L2065.64 1548.85 L2065.64 1544.91 Z" fill="#000000" fill-rule="nonzero" fill-opacity="1" /><path clip-path="url(#clip060)" d="M2095 1542.97 L2099.88 1542.97 L2099.88 1548.85 L2095 1548.85 L2095 1542.97 Z" fill="#000000" fill-rule="nonzero" fill-opacity="1" /><path clip-path="url(#clip060)" d="M2110.11 1514.29 L2128.47 1514.29 L2128.47 1518.22 L2114.39 1518.22 L2114.39 1526.7 Q2115.41 1526.35 2116.43 1526.19 Q2117.45 1526 2118.47 1526 Q2124.25 1526 2127.63 1529.17 Q2131.01 1532.34 2131.01 1537.76 Q2131.01 1543.34 2127.54 1546.44 Q2124.07 1549.52 2117.75 1549.52 Q2115.57 1549.52 2113.31 1549.15 Q2111.06 1548.78 2108.65 1548.04 L2108.65 1543.34 Q2110.74 1544.47 2112.96 1545.03 Q2115.18 1545.58 2117.66 1545.58 Q2121.66 1545.58 2124 1543.48 Q2126.34 1541.37 2126.34 1537.76 Q2126.34 1534.15 2124 1532.04 Q2121.66 1529.94 2117.66 1529.94 Q2115.78 1529.94 2113.91 1530.35 Q2112.06 1530.77 2110.11 1531.65 L2110.11 1514.29 Z" fill="#000000" fill-rule="nonzero" fill-opacity="1" /><polyline clip-path="url(#clip060)" style="stroke:#000000; stroke-linecap:round; stroke-linejoin:round; stroke-width:4; stroke-opacity:1; fill:none" points="147.478,1486.45 147.478,47.2441 "/>
<polyline clip-path="url(#clip060)" style="stroke:#000000; stroke-linecap:round; stroke-linejoin:round; stroke-width:4; stroke-opacity:1; fill:none" points="147.478,1352.5 166.376,1352.5 "/>
<polyline clip-path="url(#clip060)" style="stroke:#000000; stroke-linecap:round; stroke-linejoin:round; stroke-width:4; stroke-opacity:1; fill:none" points="147.478,1036.94 166.376,1036.94 "/>
<polyline clip-path="url(#clip060)" style="stroke:#000000; stroke-linecap:round; stroke-linejoin:round; stroke-width:4; stroke-opacity:1; fill:none" points="147.478,721.378 166.376,721.378 "/>
<polyline clip-path="url(#clip060)" style="stroke:#000000; stroke-linecap:round; stroke-linejoin:round; stroke-width:4; stroke-opacity:1; fill:none" points="147.478,405.817 166.376,405.817 "/>
<polyline clip-path="url(#clip060)" style="stroke:#000000; stroke-linecap:round; stroke-linejoin:round; stroke-width:4; stroke-opacity:1; fill:none" points="147.478,90.2559 166.376,90.2559 "/>
<path clip-path="url(#clip060)" d="M51.3625 1352.95 L81.0383 1352.95 L81.0383 1356.89 L51.3625 1356.89 L51.3625 1352.95 Z" fill="#000000" fill-rule="nonzero" fill-opacity="1" /><path clip-path="url(#clip060)" d="M95.1586 1365.85 L111.478 1365.85 L111.478 1369.78 L89.5336 1369.78 L89.5336 1365.85 Q92.1956 1363.09 96.7789 1358.46 Q101.385 1353.81 102.566 1352.47 Q104.811 1349.94 105.691 1348.21 Q106.594 1346.45 106.594 1344.76 Q106.594 1342 104.649 1340.27 Q102.728 1338.53 99.6261 1338.53 Q97.4271 1338.53 94.9734 1339.29 Q92.5428 1340.06 89.7651 1341.61 L89.7651 1336.89 Q92.5891 1335.75 95.0428 1335.17 Q97.4965 1334.6 99.5335 1334.6 Q104.904 1334.6 108.098 1337.28 Q111.293 1339.97 111.293 1344.46 Q111.293 1346.59 110.483 1348.51 Q109.696 1350.41 107.589 1353 Q107.01 1353.67 103.909 1356.89 Q100.807 1360.08 95.1586 1365.85 Z" fill="#000000" fill-rule="nonzero" fill-opacity="1" /><path clip-path="url(#clip060)" d="M50.9921 1037.39 L80.6679 1037.39 L80.6679 1041.33 L50.9921 1041.33 L50.9921 1037.39 Z" fill="#000000" fill-rule="nonzero" fill-opacity="1" /><path clip-path="url(#clip060)" d="M91.5706 1050.28 L99.2095 1050.28 L99.2095 1023.92 L90.8993 1025.59 L90.8993 1021.33 L99.1632 1019.66 L103.839 1019.66 L103.839 1050.28 L111.478 1050.28 L111.478 1054.22 L91.5706 1054.22 L91.5706 1050.28 Z" fill="#000000" fill-rule="nonzero" fill-opacity="1" /><path clip-path="url(#clip060)" d="M99.5335 707.177 Q95.9224 707.177 94.0937 710.742 Q92.2882 714.284 92.2882 721.413 Q92.2882 728.52 94.0937 732.084 Q95.9224 735.626 99.5335 735.626 Q103.168 735.626 104.973 732.084 Q106.802 728.52 106.802 721.413 Q106.802 714.284 104.973 710.742 Q103.168 707.177 99.5335 707.177 M99.5335 703.473 Q105.344 703.473 108.399 708.08 Q111.478 712.663 111.478 721.413 Q111.478 730.14 108.399 734.746 Q105.344 739.33 99.5335 739.33 Q93.7234 739.33 90.6447 734.746 Q87.5892 730.14 87.5892 721.413 Q87.5892 712.663 90.6447 708.08 Q93.7234 703.473 99.5335 703.473 Z" fill="#000000" fill-rule="nonzero" fill-opacity="1" /><path clip-path="url(#clip060)" d="M91.5706 419.162 L99.2095 419.162 L99.2095 392.796 L90.8993 394.463 L90.8993 390.204 L99.1632 388.537 L103.839 388.537 L103.839 419.162 L111.478 419.162 L111.478 423.097 L91.5706 423.097 L91.5706 419.162 Z" fill="#000000" fill-rule="nonzero" fill-opacity="1" /><path clip-path="url(#clip060)" d="M95.1586 103.601 L111.478 103.601 L111.478 107.536 L89.5336 107.536 L89.5336 103.601 Q92.1956 100.846 96.7789 96.2165 Q101.385 91.5638 102.566 90.2212 Q104.811 87.698 105.691 85.9619 Q106.594 84.2027 106.594 82.5129 Q106.594 79.7583 104.649 78.0222 Q102.728 76.2861 99.6261 76.2861 Q97.4271 76.2861 94.9734 77.0499 Q92.5428 77.8138 89.7651 79.3647 L89.7651 74.6425 Q92.5891 73.5083 95.0428 72.9296 Q97.4965 72.3509 99.5335 72.3509 Q104.904 72.3509 108.098 75.0361 Q111.293 77.7212 111.293 82.212 Q111.293 84.3416 110.483 86.2629 Q109.696 88.161 107.589 90.7536 Q107.01 91.4249 103.909 94.6424 Q100.807 97.8369 95.1586 103.601 Z" fill="#000000" fill-rule="nonzero" fill-opacity="1" /><circle clip-path="url(#clip062)" cx="974.889" cy="307.672" r="14.4" fill="#009af9" fill-rule="evenodd" fill-opacity="0.5" stroke="#000000" stroke-opacity="0.5" stroke-width="3.2"/>
<circle clip-path="url(#clip062)" cx="1324.99" cy="87.9763" r="14.4" fill="#009af9" fill-rule="evenodd" fill-opacity="0.5" stroke="#000000" stroke-opacity="0.5" stroke-width="3.2"/>
<circle clip-path="url(#clip062)" cx="970.557" cy="1342.01" r="14.4" fill="#009af9" fill-rule="evenodd" fill-opacity="0.5" stroke="#000000" stroke-opacity="0.5" stroke-width="3.2"/>
<circle clip-path="url(#clip062)" cx="1642.82" cy="822.062" r="14.4" fill="#009af9" fill-rule="evenodd" fill-opacity="0.5" stroke="#000000" stroke-opacity="0.5" stroke-width="3.2"/>
<circle clip-path="url(#clip062)" cx="288.111" cy="408.886" r="14.4" fill="#009af9" fill-rule="evenodd" fill-opacity="0.5" stroke="#000000" stroke-opacity="0.5" stroke-width="3.2"/>
<circle clip-path="url(#clip062)" cx="1032.21" cy="456.642" r="14.4" fill="#009af9" fill-rule="evenodd" fill-opacity="0.5" stroke="#000000" stroke-opacity="0.5" stroke-width="3.2"/>
<circle clip-path="url(#clip062)" cx="1002.74" cy="430.505" r="14.4" fill="#009af9" fill-rule="evenodd" fill-opacity="0.5" stroke="#000000" stroke-opacity="0.5" stroke-width="3.2"/>
<circle clip-path="url(#clip062)" cx="722.244" cy="1445.72" r="14.4" fill="#009af9" fill-rule="evenodd" fill-opacity="0.5" stroke="#000000" stroke-opacity="0.5" stroke-width="3.2"/>
<circle clip-path="url(#clip062)" cx="1605.93" cy="929.759" r="14.4" fill="#009af9" fill-rule="evenodd" fill-opacity="0.5" stroke="#000000" stroke-opacity="0.5" stroke-width="3.2"/>
<circle clip-path="url(#clip062)" cx="1509.82" cy="788.298" r="14.4" fill="#009af9" fill-rule="evenodd" fill-opacity="0.5" stroke="#000000" stroke-opacity="0.5" stroke-width="3.2"/>
<circle clip-path="url(#clip062)" cx="1836.88" cy="365.455" r="14.4" fill="#009af9" fill-rule="evenodd" fill-opacity="0.5" stroke="#000000" stroke-opacity="0.5" stroke-width="3.2"/>
<circle clip-path="url(#clip062)" cx="209.891" cy="461.091" r="14.4" fill="#009af9" fill-rule="evenodd" fill-opacity="0.5" stroke="#000000" stroke-opacity="0.5" stroke-width="3.2"/>
<circle clip-path="url(#clip062)" cx="1444.86" cy="441.952" r="14.4" fill="#009af9" fill-rule="evenodd" fill-opacity="0.5" stroke="#000000" stroke-opacity="0.5" stroke-width="3.2"/>
<circle clip-path="url(#clip062)" cx="551.379" cy="1205.58" r="14.4" fill="#009af9" fill-rule="evenodd" fill-opacity="0.5" stroke="#000000" stroke-opacity="0.5" stroke-width="3.2"/>
<circle clip-path="url(#clip062)" cx="1970.04" cy="810.301" r="14.4" fill="#009af9" fill-rule="evenodd" fill-opacity="0.5" stroke="#000000" stroke-opacity="0.5" stroke-width="3.2"/>
<circle clip-path="url(#clip062)" cx="425.452" cy="968.186" r="14.4" fill="#009af9" fill-rule="evenodd" fill-opacity="0.5" stroke="#000000" stroke-opacity="0.5" stroke-width="3.2"/>
<circle clip-path="url(#clip062)" cx="1963.12" cy="683.52" r="14.4" fill="#009af9" fill-rule="evenodd" fill-opacity="0.5" stroke="#000000" stroke-opacity="0.5" stroke-width="3.2"/>
<circle clip-path="url(#clip062)" cx="1597.12" cy="643.095" r="14.4" fill="#009af9" fill-rule="evenodd" fill-opacity="0.5" stroke="#000000" stroke-opacity="0.5" stroke-width="3.2"/>
<circle clip-path="url(#clip062)" cx="1303.31" cy="595.104" r="14.4" fill="#009af9" fill-rule="evenodd" fill-opacity="0.5" stroke="#000000" stroke-opacity="0.5" stroke-width="3.2"/>
<circle clip-path="url(#clip062)" cx="949.787" cy="647.18" r="14.4" fill="#009af9" fill-rule="evenodd" fill-opacity="0.5" stroke="#000000" stroke-opacity="0.5" stroke-width="3.2"/>
<circle clip-path="url(#clip062)" cx="1032.57" cy="250.334" r="14.4" fill="#009af9" fill-rule="evenodd" fill-opacity="0.5" stroke="#000000" stroke-opacity="0.5" stroke-width="3.2"/>
<circle clip-path="url(#clip062)" cx="1054.96" cy="967.56" r="14.4" fill="#009af9" fill-rule="evenodd" fill-opacity="0.5" stroke="#000000" stroke-opacity="0.5" stroke-width="3.2"/>
<circle clip-path="url(#clip062)" cx="1097.73" cy="395.691" r="14.4" fill="#009af9" fill-rule="evenodd" fill-opacity="0.5" stroke="#000000" stroke-opacity="0.5" stroke-width="3.2"/>
<circle clip-path="url(#clip062)" cx="1413.26" cy="935.602" r="14.4" fill="#009af9" fill-rule="evenodd" fill-opacity="0.5" stroke="#000000" stroke-opacity="0.5" stroke-width="3.2"/>
<circle clip-path="url(#clip062)" cx="1728.56" cy="986.038" r="14.4" fill="#009af9" fill-rule="evenodd" fill-opacity="0.5" stroke="#000000" stroke-opacity="0.5" stroke-width="3.2"/>
<circle clip-path="url(#clip062)" cx="2290.34" cy="280.411" r="14.4" fill="#009af9" fill-rule="evenodd" fill-opacity="0.5" stroke="#000000" stroke-opacity="0.5" stroke-width="3.2"/>
<circle clip-path="url(#clip062)" cx="1472.01" cy="1168.88" r="14.4" fill="#009af9" fill-rule="evenodd" fill-opacity="0.5" stroke="#000000" stroke-opacity="0.5" stroke-width="3.2"/>
<circle clip-path="url(#clip062)" cx="1436.64" cy="913.155" r="14.4" fill="#009af9" fill-rule="evenodd" fill-opacity="0.5" stroke="#000000" stroke-opacity="0.5" stroke-width="3.2"/>
<circle clip-path="url(#clip062)" cx="460.503" cy="1042.17" r="14.4" fill="#009af9" fill-rule="evenodd" fill-opacity="0.5" stroke="#000000" stroke-opacity="0.5" stroke-width="3.2"/>
<circle clip-path="url(#clip062)" cx="1174.34" cy="695.89" r="14.4" fill="#009af9" fill-rule="evenodd" fill-opacity="0.5" stroke="#000000" stroke-opacity="0.5" stroke-width="3.2"/>
<path clip-path="url(#clip062)" d="M209.891 461.091 L425.452 968.186 L460.503 1042.17 L551.379 1205.58 L722.244 1445.72 L1472.01 1168.88 L1728.56 986.038 L1970.04 810.301 L2290.34 280.411 L1324.99 87.9763 L288.111 408.886 L209.891 461.091 L209.891 461.091  Z" fill="#e26f46" fill-rule="evenodd" fill-opacity="0.2"/>
<polyline clip-path="url(#clip062)" style="stroke:#000000; stroke-linecap:round; stroke-linejoin:round; stroke-width:4; stroke-opacity:0.2; fill:none" points="209.891,461.091 425.452,968.186 460.503,1042.17 551.379,1205.58 722.244,1445.72 1472.01,1168.88 1728.56,986.038 1970.04,810.301 2290.34,280.411 1324.99,87.9763 288.111,408.886 209.891,461.091 "/>
</svg>
