<?xml version="1.0" encoding="utf-8"?>
<svg xmlns="http://www.w3.org/2000/svg" xmlns:xlink="http://www.w3.org/1999/xlink" width="600" height="400" viewBox="0 0 2400 1600">
<defs>
  <clipPath id="clip530">
    <rect x="0" y="0" width="2400" height="1600"/>
  </clipPath>
</defs>
<path clip-path="url(#clip530)" d="M0 1600 L2400 1600 L2400 0 L0 0  Z" fill="#ffffff" fill-rule="evenodd" fill-opacity="1"/>
<defs>
  <clipPath id="clip531">
    <rect x="480" y="0" width="1681" height="1600"/>
  </clipPath>
</defs>
<path clip-path="url(#clip530)" d="M147.478 1486.45 L2352.76 1486.45 L2352.76 47.2441 L147.478 47.2441  Z" fill="#ffffff" fill-rule="evenodd" fill-opacity="1"/>
<defs>
  <clipPath id="clip532">
    <rect x="147" y="47" width="2206" height="1440"/>
  </clipPath>
</defs>
<polyline clip-path="url(#clip532)" style="stroke:#000000; stroke-linecap:round; stroke-linejoin:round; stroke-width:2; stroke-opacity:0.1; fill:none" points="250.293,1486.45 250.293,47.2441 "/>
<polyline clip-path="url(#clip532)" style="stroke:#000000; stroke-linecap:round; stroke-linejoin:round; stroke-width:2; stroke-opacity:0.1; fill:none" points="883.458,1486.45 883.458,47.2441 "/>
<polyline clip-path="url(#clip532)" style="stroke:#000000; stroke-linecap:round; stroke-linejoin:round; stroke-width:2; stroke-opacity:0.1; fill:none" points="1516.62,1486.45 1516.62,47.2441 "/>
<polyline clip-path="url(#clip532)" style="stroke:#000000; stroke-linecap:round; stroke-linejoin:round; stroke-width:2; stroke-opacity:0.1; fill:none" points="2149.79,1486.45 2149.79,47.2441 "/>
<polyline clip-path="url(#clip532)" style="stroke:#000000; stroke-linecap:round; stroke-linejoin:round; stroke-width:2; stroke-opacity:0.1; fill:none" points="147.478,1213.64 2352.76,1213.64 "/>
<polyline clip-path="url(#clip532)" style="stroke:#000000; stroke-linecap:round; stroke-linejoin:round; stroke-width:2; stroke-opacity:0.1; fill:none" points="147.478,874.526 2352.76,874.526 "/>
<polyline clip-path="url(#clip532)" style="stroke:#000000; stroke-linecap:round; stroke-linejoin:round; stroke-width:2; stroke-opacity:0.1; fill:none" points="147.478,535.41 2352.76,535.41 "/>
<polyline clip-path="url(#clip532)" style="stroke:#000000; stroke-linecap:round; stroke-linejoin:round; stroke-width:2; stroke-opacity:0.1; fill:none" points="147.478,196.295 2352.76,196.295 "/>
<polyline clip-path="url(#clip530)" style="stroke:#000000; stroke-linecap:round; stroke-linejoin:round; stroke-width:4; stroke-opacity:1; fill:none" points="147.478,1486.45 2352.76,1486.45 "/>
<polyline clip-path="url(#clip530)" style="stroke:#000000; stroke-linecap:round; stroke-linejoin:round; stroke-width:4; stroke-opacity:1; fill:none" points="250.293,1486.45 250.293,1467.55 "/>
<polyline clip-path="url(#clip530)" style="stroke:#000000; stroke-linecap:round; stroke-linejoin:round; stroke-width:4; stroke-opacity:1; fill:none" points="883.458,1486.45 883.458,1467.55 "/>
<polyline clip-path="url(#clip530)" style="stroke:#000000; stroke-linecap:round; stroke-linejoin:round; stroke-width:4; stroke-opacity:1; fill:none" points="1516.62,1486.45 1516.62,1467.55 "/>
<polyline clip-path="url(#clip530)" style="stroke:#000000; stroke-linecap:round; stroke-linejoin:round; stroke-width:4; stroke-opacity:1; fill:none" points="2149.79,1486.45 2149.79,1467.55 "/>
<path clip-path="url(#clip530)" d="M220.236 1532.02 L249.911 1532.02 L249.911 1535.95 L220.236 1535.95 L220.236 1532.02 Z" fill="#000000" fill-rule="nonzero" fill-opacity="1" /><path clip-path="url(#clip530)" d="M264.032 1544.91 L280.351 1544.91 L280.351 1548.85 L258.407 1548.85 L258.407 1544.91 Q261.069 1542.16 265.652 1537.53 Q270.259 1532.88 271.439 1531.53 Q273.684 1529.01 274.564 1527.27 Q275.467 1525.51 275.467 1523.82 Q275.467 1521.07 273.522 1519.33 Q271.601 1517.6 268.499 1517.6 Q266.3 1517.6 263.847 1518.36 Q261.416 1519.13 258.638 1520.68 L258.638 1515.95 Q261.462 1514.82 263.916 1514.24 Q266.37 1513.66 268.407 1513.66 Q273.777 1513.66 276.972 1516.35 Q280.166 1519.03 280.166 1523.52 Q280.166 1525.65 279.356 1527.57 Q278.569 1529.47 276.462 1532.07 Q275.884 1532.74 272.782 1535.95 Q269.68 1539.15 264.032 1544.91 Z" fill="#000000" fill-rule="nonzero" fill-opacity="1" /><path clip-path="url(#clip530)" d="M853.215 1532.02 L882.891 1532.02 L882.891 1535.95 L853.215 1535.95 L853.215 1532.02 Z" fill="#000000" fill-rule="nonzero" fill-opacity="1" /><path clip-path="url(#clip530)" d="M893.793 1544.91 L901.432 1544.91 L901.432 1518.55 L893.122 1520.21 L893.122 1515.95 L901.386 1514.29 L906.062 1514.29 L906.062 1544.91 L913.701 1544.91 L913.701 1548.85 L893.793 1548.85 L893.793 1544.91 Z" fill="#000000" fill-rule="nonzero" fill-opacity="1" /><path clip-path="url(#clip530)" d="M1516.62 1517.37 Q1513.01 1517.37 1511.18 1520.93 Q1509.38 1524.47 1509.38 1531.6 Q1509.38 1538.71 1511.18 1542.27 Q1513.01 1545.82 1516.62 1545.82 Q1520.26 1545.82 1522.06 1542.27 Q1523.89 1538.71 1523.89 1531.6 Q1523.89 1524.47 1522.06 1520.93 Q1520.26 1517.37 1516.62 1517.37 M1516.62 1513.66 Q1522.43 1513.66 1525.49 1518.27 Q1528.57 1522.85 1528.57 1531.6 Q1528.57 1540.33 1525.49 1544.94 Q1522.43 1549.52 1516.62 1549.52 Q1510.81 1549.52 1507.73 1544.94 Q1504.68 1540.33 1504.68 1531.6 Q1504.68 1522.85 1507.73 1518.27 Q1510.81 1513.66 1516.62 1513.66 Z" fill="#000000" fill-rule="nonzero" fill-opacity="1" /><path clip-path="url(#clip530)" d="M2140.17 1544.91 L2147.81 1544.91 L2147.81 1518.55 L2139.5 1520.21 L2139.5 1515.95 L2147.76 1514.29 L2152.44 1514.29 L2152.44 1544.91 L2160.08 1544.91 L2160.08 1548.85 L2140.17 1548.85 L2140.17 1544.91 Z" fill="#000000" fill-rule="nonzero" fill-opacity="1" /><polyline clip-path="url(#clip530)" style="stroke:#000000; stroke-linecap:round; stroke-linejoin:round; stroke-width:4; stroke-opacity:1; fill:none" points="147.478,1486.45 147.478,47.2441 "/>
<polyline clip-path="url(#clip530)" style="stroke:#000000; stroke-linecap:round; stroke-linejoin:round; stroke-width:4; stroke-opacity:1; fill:none" points="147.478,1213.64 166.376,1213.64 "/>
<polyline clip-path="url(#clip530)" style="stroke:#000000; stroke-linecap:round; stroke-linejoin:round; stroke-width:4; stroke-opacity:1; fill:none" points="147.478,874.526 166.376,874.526 "/>
<polyline clip-path="url(#clip530)" style="stroke:#000000; stroke-linecap:round; stroke-linejoin:round; stroke-width:4; stroke-opacity:1; fill:none" points="147.478,535.41 166.376,535.41 "/>
<polyline clip-path="url(#clip530)" style="stroke:#000000; stroke-linecap:round; stroke-linejoin:round; stroke-width:4; stroke-opacity:1; fill:none" points="147.478,196.295 166.376,196.295 "/>
<path clip-path="url(#clip530)" d="M50.9921 1214.09 L80.6679 1214.09 L80.6679 1218.03 L50.9921 1218.03 L50.9921 1214.09 Z" fill="#000000" fill-rule="nonzero" fill-opacity="1" /><path clip-path="url(#clip530)" d="M91.5706 1226.99 L99.2095 1226.99 L99.2095 1200.62 L90.8993 1202.29 L90.8993 1198.03 L99.1632 1196.36 L103.839 1196.36 L103.839 1226.99 L111.478 1226.99 L111.478 1230.92 L91.5706 1230.92 L91.5706 1226.99 Z" fill="#000000" fill-rule="nonzero" fill-opacity="1" /><path clip-path="url(#clip530)" d="M99.5335 860.325 Q95.9224 860.325 94.0937 863.889 Q92.2882 867.431 92.2882 874.561 Q92.2882 881.667 94.0937 885.232 Q95.9224 888.774 99.5335 888.774 Q103.168 888.774 104.973 885.232 Q106.802 881.667 106.802 874.561 Q106.802 867.431 104.973 863.889 Q103.168 860.325 99.5335 860.325 M99.5335 856.621 Q105.344 856.621 108.399 861.227 Q111.478 865.811 111.478 874.561 Q111.478 883.288 108.399 887.894 Q105.344 892.477 99.5335 892.477 Q93.7234 892.477 90.6447 887.894 Q87.5892 883.288 87.5892 874.561 Q87.5892 865.811 90.6447 861.227 Q93.7234 856.621 99.5335 856.621 Z" fill="#000000" fill-rule="nonzero" fill-opacity="1" /><path clip-path="url(#clip530)" d="M91.5706 548.755 L99.2095 548.755 L99.2095 522.39 L90.8993 524.056 L90.8993 519.797 L99.1632 518.13 L103.839 518.13 L103.839 548.755 L111.478 548.755 L111.478 552.69 L91.5706 552.69 L91.5706 548.755 Z" fill="#000000" fill-rule="nonzero" fill-opacity="1" /><path clip-path="url(#clip530)" d="M95.1586 209.639 L111.478 209.639 L111.478 213.575 L89.5336 213.575 L89.5336 209.639 Q92.1956 206.885 96.7789 202.255 Q101.385 197.602 102.566 196.26 Q104.811 193.737 105.691 192.001 Q106.594 190.241 106.594 188.552 Q106.594 185.797 104.649 184.061 Q102.728 182.325 99.6261 182.325 Q97.4271 182.325 94.9734 183.089 Q92.5428 183.852 89.7651 185.403 L89.7651 180.681 Q92.5891 179.547 95.0428 178.968 Q97.4965 178.39 99.5335 178.39 Q104.904 178.39 108.098 181.075 Q111.293 183.76 111.293 188.251 Q111.293 190.38 110.483 192.302 Q109.696 194.2 107.589 196.792 Q107.01 197.464 103.909 200.681 Q100.807 203.876 95.1586 209.639 Z" fill="#000000" fill-rule="nonzero" fill-opacity="1" /><circle clip-path="url(#clip532)" cx="1169.31" cy="621.283" r="14.4" fill="#009af9" fill-rule="evenodd" fill-opacity="0.5" stroke="#000000" stroke-opacity="0.5" stroke-width="3.2"/>
<circle clip-path="url(#clip532)" cx="1458.98" cy="223.006" r="14.4" fill="#009af9" fill-rule="evenodd" fill-opacity="0.5" stroke="#000000" stroke-opacity="0.5" stroke-width="3.2"/>
<circle clip-path="url(#clip532)" cx="1719.07" cy="87.9763" r="14.4" fill="#009af9" fill-rule="evenodd" fill-opacity="0.5" stroke="#000000" stroke-opacity="0.5" stroke-width="3.2"/>
<circle clip-path="url(#clip532)" cx="642.127" cy="200.337" r="14.4" fill="#009af9" fill-rule="evenodd" fill-opacity="0.5" stroke="#000000" stroke-opacity="0.5" stroke-width="3.2"/>
<circle clip-path="url(#clip532)" cx="1325.12" cy="933.545" r="14.4" fill="#009af9" fill-rule="evenodd" fill-opacity="0.5" stroke="#000000" stroke-opacity="0.5" stroke-width="3.2"/>
<circle clip-path="url(#clip532)" cx="761.26" cy="246.951" r="14.4" fill="#009af9" fill-rule="evenodd" fill-opacity="0.5" stroke="#000000" stroke-opacity="0.5" stroke-width="3.2"/>
<circle clip-path="url(#clip532)" cx="1279.27" cy="1295.39" r="14.4" fill="#009af9" fill-rule="evenodd" fill-opacity="0.5" stroke="#000000" stroke-opacity="0.5" stroke-width="3.2"/>
<circle clip-path="url(#clip532)" cx="1831.58" cy="729.026" r="14.4" fill="#009af9" fill-rule="evenodd" fill-opacity="0.5" stroke="#000000" stroke-opacity="0.5" stroke-width="3.2"/>
<circle clip-path="url(#clip532)" cx="1385.73" cy="672.234" r="14.4" fill="#009af9" fill-rule="evenodd" fill-opacity="0.5" stroke="#000000" stroke-opacity="0.5" stroke-width="3.2"/>
<circle clip-path="url(#clip532)" cx="1423.31" cy="753.76" r="14.4" fill="#009af9" fill-rule="evenodd" fill-opacity="0.5" stroke="#000000" stroke-opacity="0.5" stroke-width="3.2"/>
<circle clip-path="url(#clip532)" cx="548.725" cy="1445.72" r="14.4" fill="#009af9" fill-rule="evenodd" fill-opacity="0.5" stroke="#000000" stroke-opacity="0.5" stroke-width="3.2"/>
<circle clip-path="url(#clip532)" cx="2290.34" cy="1049.76" r="14.4" fill="#009af9" fill-rule="evenodd" fill-opacity="0.5" stroke="#000000" stroke-opacity="0.5" stroke-width="3.2"/>
<circle clip-path="url(#clip532)" cx="1816.94" cy="1053.49" r="14.4" fill="#009af9" fill-rule="evenodd" fill-opacity="0.5" stroke="#000000" stroke-opacity="0.5" stroke-width="3.2"/>
<circle clip-path="url(#clip532)" cx="1698.36" cy="1394.53" r="14.4" fill="#009af9" fill-rule="evenodd" fill-opacity="0.5" stroke="#000000" stroke-opacity="0.5" stroke-width="3.2"/>
<circle clip-path="url(#clip532)" cx="1404.37" cy="920.473" r="14.4" fill="#009af9" fill-rule="evenodd" fill-opacity="0.5" stroke="#000000" stroke-opacity="0.5" stroke-width="3.2"/>
<circle clip-path="url(#clip532)" cx="1350.75" cy="592.597" r="14.4" fill="#009af9" fill-rule="evenodd" fill-opacity="0.5" stroke="#000000" stroke-opacity="0.5" stroke-width="3.2"/>
<circle clip-path="url(#clip532)" cx="209.891" cy="985.111" r="14.4" fill="#009af9" fill-rule="evenodd" fill-opacity="0.5" stroke="#000000" stroke-opacity="0.5" stroke-width="3.2"/>
<circle clip-path="url(#clip532)" cx="754.664" cy="1007.48" r="14.4" fill="#009af9" fill-rule="evenodd" fill-opacity="0.5" stroke="#000000" stroke-opacity="0.5" stroke-width="3.2"/>
<circle clip-path="url(#clip532)" cx="1714.94" cy="1077.86" r="14.4" fill="#009af9" fill-rule="evenodd" fill-opacity="0.5" stroke="#000000" stroke-opacity="0.5" stroke-width="3.2"/>
<circle clip-path="url(#clip532)" cx="1662.1" cy="697.621" r="14.4" fill="#009af9" fill-rule="evenodd" fill-opacity="0.5" stroke="#000000" stroke-opacity="0.5" stroke-width="3.2"/>
<circle clip-path="url(#clip532)" cx="1935.62" cy="334.555" r="14.4" fill="#009af9" fill-rule="evenodd" fill-opacity="0.5" stroke="#000000" stroke-opacity="0.5" stroke-width="3.2"/>
<circle clip-path="url(#clip532)" cx="1446.16" cy="971.52" r="14.4" fill="#009af9" fill-rule="evenodd" fill-opacity="0.5" stroke="#000000" stroke-opacity="0.5" stroke-width="3.2"/>
<circle clip-path="url(#clip532)" cx="1398.62" cy="821.471" r="14.4" fill="#009af9" fill-rule="evenodd" fill-opacity="0.5" stroke="#000000" stroke-opacity="0.5" stroke-width="3.2"/>
<circle clip-path="url(#clip532)" cx="2097.35" cy="1418.52" r="14.4" fill="#009af9" fill-rule="evenodd" fill-opacity="0.5" stroke="#000000" stroke-opacity="0.5" stroke-width="3.2"/>
<circle clip-path="url(#clip532)" cx="1452.1" cy="1089.32" r="14.4" fill="#009af9" fill-rule="evenodd" fill-opacity="0.5" stroke="#000000" stroke-opacity="0.5" stroke-width="3.2"/>
<circle clip-path="url(#clip532)" cx="1930.9" cy="871.096" r="14.4" fill="#009af9" fill-rule="evenodd" fill-opacity="0.5" stroke="#000000" stroke-opacity="0.5" stroke-width="3.2"/>
<circle clip-path="url(#clip532)" cx="2277.76" cy="1184.08" r="14.4" fill="#009af9" fill-rule="evenodd" fill-opacity="0.5" stroke="#000000" stroke-opacity="0.5" stroke-width="3.2"/>
<circle clip-path="url(#clip532)" cx="837.001" cy="753.82" r="14.4" fill="#009af9" fill-rule="evenodd" fill-opacity="0.5" stroke="#000000" stroke-opacity="0.5" stroke-width="3.2"/>
<circle clip-path="url(#clip532)" cx="1734.01" cy="763.892" r="14.4" fill="#009af9" fill-rule="evenodd" fill-opacity="0.5" stroke="#000000" stroke-opacity="0.5" stroke-width="3.2"/>
<circle clip-path="url(#clip532)" cx="1770.7" cy="604.712" r="14.4" fill="#009af9" fill-rule="evenodd" fill-opacity="0.5" stroke="#000000" stroke-opacity="0.5" stroke-width="3.2"/>
<path clip-path="url(#clip532)" d="M209.891 985.111 L548.725 1445.72 L2097.35 1418.52 L2277.76 1184.08 L2290.34 1049.76 L1935.62 334.555 L1719.07 87.9763 L642.127 200.337 L209.891 985.111 L209.891 985.111  Z" fill="#e26f46" fill-rule="evenodd" fill-opacity="0.2"/>
<polyline clip-path="url(#clip532)" style="stroke:#000000; stroke-linecap:round; stroke-linejoin:round; stroke-width:4; stroke-opacity:0.2; fill:none" points="209.891,985.111 548.725,1445.72 2097.35,1418.52 2277.76,1184.08 2290.34,1049.76 1935.62,334.555 1719.07,87.9763 642.127,200.337 209.891,985.111 "/>
</svg>
