<?xml version="1.0" encoding="utf-8"?>
<svg xmlns="http://www.w3.org/2000/svg" xmlns:xlink="http://www.w3.org/1999/xlink" width="600" height="400" viewBox="0 0 2400 1600">
<defs>
  <clipPath id="clip110">
    <rect x="0" y="0" width="2400" height="1600"/>
  </clipPath>
</defs>
<path clip-path="url(#clip110)" d="M0 1600 L2400 1600 L2400 0 L0 0  Z" fill="#ffffff" fill-rule="evenodd" fill-opacity="1"/>
<defs>
  <clipPath id="clip111">
    <rect x="193" y="47" width="2160" height="1440"/>
  </clipPath>
</defs>
<path clip-path="url(#clip110)" d="M193.936 1486.45 L2352.76 1486.45 L2352.76 47.2441 L193.936 47.2441  Z" fill="#ffffff" fill-rule="evenodd" fill-opacity="1"/>
<polyline clip-path="url(#clip111)" style="stroke:#000000; stroke-linecap:round; stroke-linejoin:round; stroke-width:2; stroke-opacity:0.1; fill:none" points="213.986,1486.45 213.986,47.2441 "/>
<polyline clip-path="url(#clip111)" style="stroke:#000000; stroke-linecap:round; stroke-linejoin:round; stroke-width:2; stroke-opacity:0.1; fill:none" points="607.358,1486.45 607.358,47.2441 "/>
<polyline clip-path="url(#clip111)" style="stroke:#000000; stroke-linecap:round; stroke-linejoin:round; stroke-width:2; stroke-opacity:0.1; fill:none" points="1000.73,1486.45 1000.73,47.2441 "/>
<polyline clip-path="url(#clip111)" style="stroke:#000000; stroke-linecap:round; stroke-linejoin:round; stroke-width:2; stroke-opacity:0.1; fill:none" points="1394.1,1486.45 1394.1,47.2441 "/>
<polyline clip-path="url(#clip111)" style="stroke:#000000; stroke-linecap:round; stroke-linejoin:round; stroke-width:2; stroke-opacity:0.1; fill:none" points="1787.48,1486.45 1787.48,47.2441 "/>
<polyline clip-path="url(#clip111)" style="stroke:#000000; stroke-linecap:round; stroke-linejoin:round; stroke-width:2; stroke-opacity:0.1; fill:none" points="2180.85,1486.45 2180.85,47.2441 "/>
<polyline clip-path="url(#clip111)" style="stroke:#000000; stroke-linecap:round; stroke-linejoin:round; stroke-width:2; stroke-opacity:0.1; fill:none" points="193.936,1310.17 2352.76,1310.17 "/>
<polyline clip-path="url(#clip111)" style="stroke:#000000; stroke-linecap:round; stroke-linejoin:round; stroke-width:2; stroke-opacity:0.1; fill:none" points="193.936,1088.84 2352.76,1088.84 "/>
<polyline clip-path="url(#clip111)" style="stroke:#000000; stroke-linecap:round; stroke-linejoin:round; stroke-width:2; stroke-opacity:0.1; fill:none" points="193.936,867.506 2352.76,867.506 "/>
<polyline clip-path="url(#clip111)" style="stroke:#000000; stroke-linecap:round; stroke-linejoin:round; stroke-width:2; stroke-opacity:0.1; fill:none" points="193.936,646.174 2352.76,646.174 "/>
<polyline clip-path="url(#clip111)" style="stroke:#000000; stroke-linecap:round; stroke-linejoin:round; stroke-width:2; stroke-opacity:0.1; fill:none" points="193.936,424.842 2352.76,424.842 "/>
<polyline clip-path="url(#clip111)" style="stroke:#000000; stroke-linecap:round; stroke-linejoin:round; stroke-width:2; stroke-opacity:0.1; fill:none" points="193.936,203.51 2352.76,203.51 "/>
<polyline clip-path="url(#clip110)" style="stroke:#000000; stroke-linecap:round; stroke-linejoin:round; stroke-width:4; stroke-opacity:1; fill:none" points="193.936,1486.45 2352.76,1486.45 "/>
<polyline clip-path="url(#clip110)" style="stroke:#000000; stroke-linecap:round; stroke-linejoin:round; stroke-width:4; stroke-opacity:1; fill:none" points="213.986,1486.45 213.986,1467.55 "/>
<polyline clip-path="url(#clip110)" style="stroke:#000000; stroke-linecap:round; stroke-linejoin:round; stroke-width:4; stroke-opacity:1; fill:none" points="607.358,1486.45 607.358,1467.55 "/>
<polyline clip-path="url(#clip110)" style="stroke:#000000; stroke-linecap:round; stroke-linejoin:round; stroke-width:4; stroke-opacity:1; fill:none" points="1000.73,1486.45 1000.73,1467.55 "/>
<polyline clip-path="url(#clip110)" style="stroke:#000000; stroke-linecap:round; stroke-linejoin:round; stroke-width:4; stroke-opacity:1; fill:none" points="1394.1,1486.45 1394.1,1467.55 "/>
<polyline clip-path="url(#clip110)" style="stroke:#000000; stroke-linecap:round; stroke-linejoin:round; stroke-width:4; stroke-opacity:1; fill:none" points="1787.48,1486.45 1787.48,1467.55 "/>
<polyline clip-path="url(#clip110)" style="stroke:#000000; stroke-linecap:round; stroke-linejoin:round; stroke-width:4; stroke-opacity:1; fill:none" points="2180.85,1486.45 2180.85,1467.55 "/>
<path clip-path="url(#clip110)" d="M183.928 1532.02 L213.604 1532.02 L213.604 1535.95 L183.928 1535.95 L183.928 1532.02 Z" fill="#000000" fill-rule="nonzero" fill-opacity="1" /><path clip-path="url(#clip110)" d="M227.724 1544.91 L244.043 1544.91 L244.043 1548.85 L222.099 1548.85 L222.099 1544.91 Q224.761 1542.16 229.344 1537.53 Q233.951 1532.88 235.131 1531.53 Q237.377 1529.01 238.256 1527.27 Q239.159 1525.51 239.159 1523.82 Q239.159 1521.07 237.215 1519.33 Q235.293 1517.6 232.192 1517.6 Q229.993 1517.6 227.539 1518.36 Q225.108 1519.13 222.331 1520.68 L222.331 1515.95 Q225.155 1514.82 227.608 1514.24 Q230.062 1513.66 232.099 1513.66 Q237.469 1513.66 240.664 1516.35 Q243.858 1519.03 243.858 1523.52 Q243.858 1525.65 243.048 1527.57 Q242.261 1529.47 240.154 1532.07 Q239.576 1532.74 236.474 1535.95 Q233.372 1539.15 227.724 1544.91 Z" fill="#000000" fill-rule="nonzero" fill-opacity="1" /><path clip-path="url(#clip110)" d="M577.115 1532.02 L606.791 1532.02 L606.791 1535.95 L577.115 1535.95 L577.115 1532.02 Z" fill="#000000" fill-rule="nonzero" fill-opacity="1" /><path clip-path="url(#clip110)" d="M617.694 1544.91 L625.333 1544.91 L625.333 1518.55 L617.022 1520.21 L617.022 1515.95 L625.286 1514.29 L629.962 1514.29 L629.962 1544.91 L637.601 1544.91 L637.601 1548.85 L617.694 1548.85 L617.694 1544.91 Z" fill="#000000" fill-rule="nonzero" fill-opacity="1" /><path clip-path="url(#clip110)" d="M1000.73 1517.37 Q997.12 1517.37 995.291 1520.93 Q993.485 1524.47 993.485 1531.6 Q993.485 1538.71 995.291 1542.27 Q997.12 1545.82 1000.73 1545.82 Q1004.36 1545.82 1006.17 1542.27 Q1008 1538.71 1008 1531.6 Q1008 1524.47 1006.17 1520.93 Q1004.36 1517.37 1000.73 1517.37 M1000.73 1513.66 Q1006.54 1513.66 1009.6 1518.27 Q1012.67 1522.85 1012.67 1531.6 Q1012.67 1540.33 1009.6 1544.94 Q1006.54 1549.52 1000.73 1549.52 Q994.92 1549.52 991.842 1544.94 Q988.786 1540.33 988.786 1531.6 Q988.786 1522.85 991.842 1518.27 Q994.92 1513.66 1000.73 1513.66 Z" fill="#000000" fill-rule="nonzero" fill-opacity="1" /><path clip-path="url(#clip110)" d="M1384.49 1544.91 L1392.12 1544.91 L1392.12 1518.55 L1383.81 1520.21 L1383.81 1515.95 L1392.08 1514.29 L1396.75 1514.29 L1396.75 1544.91 L1404.39 1544.91 L1404.39 1548.85 L1384.49 1548.85 L1384.49 1544.91 Z" fill="#000000" fill-rule="nonzero" fill-opacity="1" /><path clip-path="url(#clip110)" d="M1782.13 1544.91 L1798.45 1544.91 L1798.45 1548.85 L1776.5 1548.85 L1776.5 1544.91 Q1779.17 1542.16 1783.75 1537.53 Q1788.36 1532.88 1789.54 1531.53 Q1791.78 1529.01 1792.66 1527.27 Q1793.56 1525.51 1793.56 1523.82 Q1793.56 1521.07 1791.62 1519.33 Q1789.7 1517.6 1786.6 1517.6 Q1784.4 1517.6 1781.94 1518.36 Q1779.51 1519.13 1776.73 1520.68 L1776.73 1515.95 Q1779.56 1514.82 1782.01 1514.24 Q1784.47 1513.66 1786.5 1513.66 Q1791.87 1513.66 1795.07 1516.35 Q1798.26 1519.03 1798.26 1523.52 Q1798.26 1525.65 1797.45 1527.57 Q1796.67 1529.47 1794.56 1532.07 Q1793.98 1532.74 1790.88 1535.95 Q1787.78 1539.15 1782.13 1544.91 Z" fill="#000000" fill-rule="nonzero" fill-opacity="1" /><path clip-path="url(#clip110)" d="M2185.1 1530.21 Q2188.45 1530.93 2190.33 1533.2 Q2192.23 1535.47 2192.23 1538.8 Q2192.23 1543.92 2188.71 1546.72 Q2185.19 1549.52 2178.71 1549.52 Q2176.53 1549.52 2174.22 1549.08 Q2171.92 1548.66 2169.47 1547.81 L2169.47 1543.29 Q2171.42 1544.43 2173.73 1545.01 Q2176.04 1545.58 2178.57 1545.58 Q2182.97 1545.58 2185.26 1543.85 Q2187.57 1542.11 2187.57 1538.8 Q2187.57 1535.75 2185.42 1534.03 Q2183.29 1532.3 2179.47 1532.3 L2175.44 1532.3 L2175.44 1528.45 L2179.66 1528.45 Q2183.1 1528.45 2184.93 1527.09 Q2186.76 1525.7 2186.76 1523.11 Q2186.76 1520.45 2184.86 1519.03 Q2182.99 1517.6 2179.47 1517.6 Q2177.55 1517.6 2175.35 1518.01 Q2173.15 1518.43 2170.51 1519.31 L2170.51 1515.14 Q2173.17 1514.4 2175.49 1514.03 Q2177.83 1513.66 2179.89 1513.66 Q2185.21 1513.66 2188.31 1516.09 Q2191.42 1518.5 2191.42 1522.62 Q2191.42 1525.49 2189.77 1527.48 Q2188.13 1529.45 2185.1 1530.21 Z" fill="#000000" fill-rule="nonzero" fill-opacity="1" /><polyline clip-path="url(#clip110)" style="stroke:#000000; stroke-linecap:round; stroke-linejoin:round; stroke-width:4; stroke-opacity:1; fill:none" points="193.936,1486.45 193.936,47.2441 "/>
<polyline clip-path="url(#clip110)" style="stroke:#000000; stroke-linecap:round; stroke-linejoin:round; stroke-width:4; stroke-opacity:1; fill:none" points="193.936,1310.17 212.834,1310.17 "/>
<polyline clip-path="url(#clip110)" style="stroke:#000000; stroke-linecap:round; stroke-linejoin:round; stroke-width:4; stroke-opacity:1; fill:none" points="193.936,1088.84 212.834,1088.84 "/>
<polyline clip-path="url(#clip110)" style="stroke:#000000; stroke-linecap:round; stroke-linejoin:round; stroke-width:4; stroke-opacity:1; fill:none" points="193.936,867.506 212.834,867.506 "/>
<polyline clip-path="url(#clip110)" style="stroke:#000000; stroke-linecap:round; stroke-linejoin:round; stroke-width:4; stroke-opacity:1; fill:none" points="193.936,646.174 212.834,646.174 "/>
<polyline clip-path="url(#clip110)" style="stroke:#000000; stroke-linecap:round; stroke-linejoin:round; stroke-width:4; stroke-opacity:1; fill:none" points="193.936,424.842 212.834,424.842 "/>
<polyline clip-path="url(#clip110)" style="stroke:#000000; stroke-linecap:round; stroke-linejoin:round; stroke-width:4; stroke-opacity:1; fill:none" points="193.936,203.51 212.834,203.51 "/>
<path clip-path="url(#clip110)" d="M50.9921 1310.62 L80.6679 1310.62 L80.6679 1314.56 L50.9921 1314.56 L50.9921 1310.62 Z" fill="#000000" fill-rule="nonzero" fill-opacity="1" /><path clip-path="url(#clip110)" d="M91.5706 1323.52 L99.2095 1323.52 L99.2095 1297.15 L90.8993 1298.82 L90.8993 1294.56 L99.1632 1292.89 L103.839 1292.89 L103.839 1323.52 L111.478 1323.52 L111.478 1327.45 L91.5706 1327.45 L91.5706 1323.52 Z" fill="#000000" fill-rule="nonzero" fill-opacity="1" /><path clip-path="url(#clip110)" d="M120.922 1321.57 L125.807 1321.57 L125.807 1327.45 L120.922 1327.45 L120.922 1321.57 Z" fill="#000000" fill-rule="nonzero" fill-opacity="1" /><path clip-path="url(#clip110)" d="M145.992 1295.97 Q142.381 1295.97 140.552 1299.53 Q138.746 1303.08 138.746 1310.21 Q138.746 1317.31 140.552 1320.88 Q142.381 1324.42 145.992 1324.42 Q149.626 1324.42 151.431 1320.88 Q153.26 1317.31 153.26 1310.21 Q153.26 1303.08 151.431 1299.53 Q149.626 1295.97 145.992 1295.97 M145.992 1292.27 Q151.802 1292.27 154.857 1296.87 Q157.936 1301.46 157.936 1310.21 Q157.936 1318.93 154.857 1323.54 Q151.802 1328.12 145.992 1328.12 Q140.181 1328.12 137.103 1323.54 Q134.047 1318.93 134.047 1310.21 Q134.047 1301.46 137.103 1296.87 Q140.181 1292.27 145.992 1292.27 Z" fill="#000000" fill-rule="nonzero" fill-opacity="1" /><path clip-path="url(#clip110)" d="M51.9875 1089.29 L81.6633 1089.29 L81.6633 1093.23 L51.9875 1093.23 L51.9875 1089.29 Z" fill="#000000" fill-rule="nonzero" fill-opacity="1" /><path clip-path="url(#clip110)" d="M101.756 1074.64 Q98.1447 1074.64 96.316 1078.2 Q94.5104 1081.74 94.5104 1088.87 Q94.5104 1095.98 96.316 1099.54 Q98.1447 1103.09 101.756 1103.09 Q105.39 1103.09 107.196 1099.54 Q109.024 1095.98 109.024 1088.87 Q109.024 1081.74 107.196 1078.2 Q105.39 1074.64 101.756 1074.64 M101.756 1070.93 Q107.566 1070.93 110.621 1075.54 Q113.7 1080.12 113.7 1088.87 Q113.7 1097.6 110.621 1102.21 Q107.566 1106.79 101.756 1106.79 Q95.9456 1106.79 92.8669 1102.21 Q89.8114 1097.6 89.8114 1088.87 Q89.8114 1080.12 92.8669 1075.54 Q95.9456 1070.93 101.756 1070.93 Z" fill="#000000" fill-rule="nonzero" fill-opacity="1" /><path clip-path="url(#clip110)" d="M121.918 1100.24 L126.802 1100.24 L126.802 1106.12 L121.918 1106.12 L121.918 1100.24 Z" fill="#000000" fill-rule="nonzero" fill-opacity="1" /><path clip-path="url(#clip110)" d="M137.033 1071.56 L155.39 1071.56 L155.39 1075.49 L141.316 1075.49 L141.316 1083.97 Q142.334 1083.62 143.353 1083.46 Q144.371 1083.27 145.39 1083.27 Q151.177 1083.27 154.556 1086.44 Q157.936 1089.61 157.936 1095.03 Q157.936 1100.61 154.464 1103.71 Q150.992 1106.79 144.672 1106.79 Q142.496 1106.79 140.228 1106.42 Q137.982 1106.05 135.575 1105.31 L135.575 1100.61 Q137.658 1101.74 139.881 1102.3 Q142.103 1102.85 144.58 1102.85 Q148.584 1102.85 150.922 1100.75 Q153.26 1098.64 153.26 1095.03 Q153.26 1091.42 150.922 1089.31 Q148.584 1087.21 144.58 1087.21 Q142.705 1087.21 140.83 1087.62 Q138.978 1088.04 137.033 1088.92 L137.033 1071.56 Z" fill="#000000" fill-rule="nonzero" fill-opacity="1" /><path clip-path="url(#clip110)" d="M100.76 853.305 Q97.1493 853.305 95.3206 856.87 Q93.515 860.412 93.515 867.541 Q93.515 874.648 95.3206 878.212 Q97.1493 881.754 100.76 881.754 Q104.395 881.754 106.2 878.212 Q108.029 874.648 108.029 867.541 Q108.029 860.412 106.2 856.87 Q104.395 853.305 100.76 853.305 M100.76 849.602 Q106.571 849.602 109.626 854.208 Q112.705 858.791 112.705 867.541 Q112.705 876.268 109.626 880.874 Q106.571 885.458 100.76 885.458 Q94.9502 885.458 91.8715 880.874 Q88.816 876.268 88.816 867.541 Q88.816 858.791 91.8715 854.208 Q94.9502 849.602 100.76 849.602 Z" fill="#000000" fill-rule="nonzero" fill-opacity="1" /><path clip-path="url(#clip110)" d="M120.922 878.907 L125.807 878.907 L125.807 884.786 L120.922 884.786 L120.922 878.907 Z" fill="#000000" fill-rule="nonzero" fill-opacity="1" /><path clip-path="url(#clip110)" d="M145.992 853.305 Q142.381 853.305 140.552 856.87 Q138.746 860.412 138.746 867.541 Q138.746 874.648 140.552 878.212 Q142.381 881.754 145.992 881.754 Q149.626 881.754 151.431 878.212 Q153.26 874.648 153.26 867.541 Q153.26 860.412 151.431 856.87 Q149.626 853.305 145.992 853.305 M145.992 849.602 Q151.802 849.602 154.857 854.208 Q157.936 858.791 157.936 867.541 Q157.936 876.268 154.857 880.874 Q151.802 885.458 145.992 885.458 Q140.181 885.458 137.103 880.874 Q134.047 876.268 134.047 867.541 Q134.047 858.791 137.103 854.208 Q140.181 849.602 145.992 849.602 Z" fill="#000000" fill-rule="nonzero" fill-opacity="1" /><path clip-path="url(#clip110)" d="M101.756 631.973 Q98.1447 631.973 96.316 635.538 Q94.5104 639.079 94.5104 646.209 Q94.5104 653.315 96.316 656.88 Q98.1447 660.422 101.756 660.422 Q105.39 660.422 107.196 656.88 Q109.024 653.315 109.024 646.209 Q109.024 639.079 107.196 635.538 Q105.39 631.973 101.756 631.973 M101.756 628.269 Q107.566 628.269 110.621 632.876 Q113.7 637.459 113.7 646.209 Q113.7 654.936 110.621 659.542 Q107.566 664.126 101.756 664.126 Q95.9456 664.126 92.8669 659.542 Q89.8114 654.936 89.8114 646.209 Q89.8114 637.459 92.8669 632.876 Q95.9456 628.269 101.756 628.269 Z" fill="#000000" fill-rule="nonzero" fill-opacity="1" /><path clip-path="url(#clip110)" d="M121.918 657.575 L126.802 657.575 L126.802 663.454 L121.918 663.454 L121.918 657.575 Z" fill="#000000" fill-rule="nonzero" fill-opacity="1" /><path clip-path="url(#clip110)" d="M137.033 628.894 L155.39 628.894 L155.39 632.829 L141.316 632.829 L141.316 641.302 Q142.334 640.954 143.353 640.792 Q144.371 640.607 145.39 640.607 Q151.177 640.607 154.556 643.778 Q157.936 646.95 157.936 652.366 Q157.936 657.945 154.464 661.047 Q150.992 664.126 144.672 664.126 Q142.496 664.126 140.228 663.755 Q137.982 663.385 135.575 662.644 L135.575 657.945 Q137.658 659.079 139.881 659.635 Q142.103 660.19 144.58 660.19 Q148.584 660.19 150.922 658.084 Q153.26 655.977 153.26 652.366 Q153.26 648.755 150.922 646.649 Q148.584 644.542 144.58 644.542 Q142.705 644.542 140.83 644.959 Q138.978 645.376 137.033 646.255 L137.033 628.894 Z" fill="#000000" fill-rule="nonzero" fill-opacity="1" /><path clip-path="url(#clip110)" d="M91.5706 438.187 L99.2095 438.187 L99.2095 411.821 L90.8993 413.488 L90.8993 409.229 L99.1632 407.562 L103.839 407.562 L103.839 438.187 L111.478 438.187 L111.478 442.122 L91.5706 442.122 L91.5706 438.187 Z" fill="#000000" fill-rule="nonzero" fill-opacity="1" /><path clip-path="url(#clip110)" d="M120.922 436.242 L125.807 436.242 L125.807 442.122 L120.922 442.122 L120.922 436.242 Z" fill="#000000" fill-rule="nonzero" fill-opacity="1" /><path clip-path="url(#clip110)" d="M145.992 410.641 Q142.381 410.641 140.552 414.205 Q138.746 417.747 138.746 424.877 Q138.746 431.983 140.552 435.548 Q142.381 439.09 145.992 439.09 Q149.626 439.09 151.431 435.548 Q153.26 431.983 153.26 424.877 Q153.26 417.747 151.431 414.205 Q149.626 410.641 145.992 410.641 M145.992 406.937 Q151.802 406.937 154.857 411.543 Q157.936 416.127 157.936 424.877 Q157.936 433.604 154.857 438.21 Q151.802 442.793 145.992 442.793 Q140.181 442.793 137.103 438.21 Q134.047 433.604 134.047 424.877 Q134.047 416.127 137.103 411.543 Q140.181 406.937 145.992 406.937 Z" fill="#000000" fill-rule="nonzero" fill-opacity="1" /><path clip-path="url(#clip110)" d="M92.566 216.855 L100.205 216.855 L100.205 190.489 L91.8947 192.156 L91.8947 187.896 L100.159 186.23 L104.834 186.23 L104.834 216.855 L112.473 216.855 L112.473 220.79 L92.566 220.79 L92.566 216.855 Z" fill="#000000" fill-rule="nonzero" fill-opacity="1" /><path clip-path="url(#clip110)" d="M121.918 214.91 L126.802 214.91 L126.802 220.79 L121.918 220.79 L121.918 214.91 Z" fill="#000000" fill-rule="nonzero" fill-opacity="1" /><path clip-path="url(#clip110)" d="M137.033 186.23 L155.39 186.23 L155.39 190.165 L141.316 190.165 L141.316 198.637 Q142.334 198.29 143.353 198.128 Q144.371 197.943 145.39 197.943 Q151.177 197.943 154.556 201.114 Q157.936 204.285 157.936 209.702 Q157.936 215.28 154.464 218.382 Q150.992 221.461 144.672 221.461 Q142.496 221.461 140.228 221.091 Q137.982 220.72 135.575 219.98 L135.575 215.28 Q137.658 216.415 139.881 216.97 Q142.103 217.526 144.58 217.526 Q148.584 217.526 150.922 215.419 Q153.26 213.313 153.26 209.702 Q153.26 206.091 150.922 203.984 Q148.584 201.878 144.58 201.878 Q142.705 201.878 140.83 202.294 Q138.978 202.711 137.033 203.591 L137.033 186.23 Z" fill="#000000" fill-rule="nonzero" fill-opacity="1" /><circle clip-path="url(#clip111)" cx="876.567" cy="1219.6" r="14.4" fill="#009af9" fill-rule="evenodd" fill-opacity="0.5" stroke="#000000" stroke-opacity="0.5" stroke-width="3.2"/>
<circle clip-path="url(#clip111)" cx="928.595" cy="354.523" r="14.4" fill="#009af9" fill-rule="evenodd" fill-opacity="0.5" stroke="#000000" stroke-opacity="0.5" stroke-width="3.2"/>
<circle clip-path="url(#clip111)" cx="1389.86" cy="452.544" r="14.4" fill="#009af9" fill-rule="evenodd" fill-opacity="0.5" stroke="#000000" stroke-opacity="0.5" stroke-width="3.2"/>
<circle clip-path="url(#clip111)" cx="1133.15" cy="1445.72" r="14.4" fill="#009af9" fill-rule="evenodd" fill-opacity="0.5" stroke="#000000" stroke-opacity="0.5" stroke-width="3.2"/>
<circle clip-path="url(#clip111)" cx="710.45" cy="1056.14" r="14.4" fill="#009af9" fill-rule="evenodd" fill-opacity="0.5" stroke="#000000" stroke-opacity="0.5" stroke-width="3.2"/>
<circle clip-path="url(#clip111)" cx="255.035" cy="825.398" r="14.4" fill="#009af9" fill-rule="evenodd" fill-opacity="0.5" stroke="#000000" stroke-opacity="0.5" stroke-width="3.2"/>
<circle clip-path="url(#clip111)" cx="1201.06" cy="1345.23" r="14.4" fill="#009af9" fill-rule="evenodd" fill-opacity="0.5" stroke="#000000" stroke-opacity="0.5" stroke-width="3.2"/>
<circle clip-path="url(#clip111)" cx="899.899" cy="770.111" r="14.4" fill="#009af9" fill-rule="evenodd" fill-opacity="0.5" stroke="#000000" stroke-opacity="0.5" stroke-width="3.2"/>
<circle clip-path="url(#clip111)" cx="777.712" cy="1086.22" r="14.4" fill="#009af9" fill-rule="evenodd" fill-opacity="0.5" stroke="#000000" stroke-opacity="0.5" stroke-width="3.2"/>
<circle clip-path="url(#clip111)" cx="1512.87" cy="1218.59" r="14.4" fill="#009af9" fill-rule="evenodd" fill-opacity="0.5" stroke="#000000" stroke-opacity="0.5" stroke-width="3.2"/>
<circle clip-path="url(#clip111)" cx="1176.3" cy="1273.95" r="14.4" fill="#009af9" fill-rule="evenodd" fill-opacity="0.5" stroke="#000000" stroke-opacity="0.5" stroke-width="3.2"/>
<circle clip-path="url(#clip111)" cx="923.863" cy="1069.38" r="14.4" fill="#009af9" fill-rule="evenodd" fill-opacity="0.5" stroke="#000000" stroke-opacity="0.5" stroke-width="3.2"/>
<circle clip-path="url(#clip111)" cx="2291.66" cy="1227.15" r="14.4" fill="#009af9" fill-rule="evenodd" fill-opacity="0.5" stroke="#000000" stroke-opacity="0.5" stroke-width="3.2"/>
<circle clip-path="url(#clip111)" cx="1216.16" cy="766.996" r="14.4" fill="#009af9" fill-rule="evenodd" fill-opacity="0.5" stroke="#000000" stroke-opacity="0.5" stroke-width="3.2"/>
<circle clip-path="url(#clip111)" cx="1518.54" cy="1163.07" r="14.4" fill="#009af9" fill-rule="evenodd" fill-opacity="0.5" stroke="#000000" stroke-opacity="0.5" stroke-width="3.2"/>
<circle clip-path="url(#clip111)" cx="1819.52" cy="807.112" r="14.4" fill="#009af9" fill-rule="evenodd" fill-opacity="0.5" stroke="#000000" stroke-opacity="0.5" stroke-width="3.2"/>
<circle clip-path="url(#clip111)" cx="729.915" cy="590.203" r="14.4" fill="#009af9" fill-rule="evenodd" fill-opacity="0.5" stroke="#000000" stroke-opacity="0.5" stroke-width="3.2"/>
<circle clip-path="url(#clip111)" cx="1005.54" cy="848.735" r="14.4" fill="#009af9" fill-rule="evenodd" fill-opacity="0.5" stroke="#000000" stroke-opacity="0.5" stroke-width="3.2"/>
<circle clip-path="url(#clip111)" cx="1189.2" cy="87.9763" r="14.4" fill="#009af9" fill-rule="evenodd" fill-opacity="0.5" stroke="#000000" stroke-opacity="0.5" stroke-width="3.2"/>
<circle clip-path="url(#clip111)" cx="1035.1" cy="1337.52" r="14.4" fill="#009af9" fill-rule="evenodd" fill-opacity="0.5" stroke="#000000" stroke-opacity="0.5" stroke-width="3.2"/>
<circle clip-path="url(#clip111)" cx="474.296" cy="1147.03" r="14.4" fill="#009af9" fill-rule="evenodd" fill-opacity="0.5" stroke="#000000" stroke-opacity="0.5" stroke-width="3.2"/>
<circle clip-path="url(#clip111)" cx="388.149" cy="728.576" r="14.4" fill="#009af9" fill-rule="evenodd" fill-opacity="0.5" stroke="#000000" stroke-opacity="0.5" stroke-width="3.2"/>
<circle clip-path="url(#clip111)" cx="923.058" cy="1173.86" r="14.4" fill="#009af9" fill-rule="evenodd" fill-opacity="0.5" stroke="#000000" stroke-opacity="0.5" stroke-width="3.2"/>
<circle clip-path="url(#clip111)" cx="1006.2" cy="892.436" r="14.4" fill="#009af9" fill-rule="evenodd" fill-opacity="0.5" stroke="#000000" stroke-opacity="0.5" stroke-width="3.2"/>
<circle clip-path="url(#clip111)" cx="948.321" cy="773.962" r="14.4" fill="#009af9" fill-rule="evenodd" fill-opacity="0.5" stroke="#000000" stroke-opacity="0.5" stroke-width="3.2"/>
<circle clip-path="url(#clip111)" cx="1287.49" cy="321.873" r="14.4" fill="#009af9" fill-rule="evenodd" fill-opacity="0.5" stroke="#000000" stroke-opacity="0.5" stroke-width="3.2"/>
<circle clip-path="url(#clip111)" cx="607.891" cy="826.283" r="14.4" fill="#009af9" fill-rule="evenodd" fill-opacity="0.5" stroke="#000000" stroke-opacity="0.5" stroke-width="3.2"/>
<circle clip-path="url(#clip111)" cx="1298.97" cy="887.391" r="14.4" fill="#009af9" fill-rule="evenodd" fill-opacity="0.5" stroke="#000000" stroke-opacity="0.5" stroke-width="3.2"/>
<circle clip-path="url(#clip111)" cx="1357.34" cy="1101.77" r="14.4" fill="#009af9" fill-rule="evenodd" fill-opacity="0.5" stroke="#000000" stroke-opacity="0.5" stroke-width="3.2"/>
<circle clip-path="url(#clip111)" cx="1108.73" cy="638.655" r="14.4" fill="#009af9" fill-rule="evenodd" fill-opacity="0.5" stroke="#000000" stroke-opacity="0.5" stroke-width="3.2"/>
<path clip-path="url(#clip111)" d="M255.035 825.398 L474.296 1147.03 L1133.15 1445.72 L2291.66 1227.15 L1189.2 87.9763 L255.035 825.398 L255.035 825.398  Z" fill="#e26f46" fill-rule="evenodd" fill-opacity="0.2"/>
<polyline clip-path="url(#clip111)" style="stroke:#000000; stroke-linecap:round; stroke-linejoin:round; stroke-width:4; stroke-opacity:0.2; fill:none" points="255.035,825.398 474.296,1147.03 1133.15,1445.72 2291.66,1227.15 1189.2,87.9763 255.035,825.398 "/>
</svg>
