<?xml version="1.0" encoding="utf-8"?>
<svg xmlns="http://www.w3.org/2000/svg" xmlns:xlink="http://www.w3.org/1999/xlink" width="600" height="400" viewBox="0 0 2400 1600">
<defs>
  <clipPath id="clip230">
    <rect x="0" y="0" width="2400" height="1600"/>
  </clipPath>
</defs>
<path clip-path="url(#clip230)" d="M0 1600 L2400 1600 L2400 0 L0 0  Z" fill="#ffffff" fill-rule="evenodd" fill-opacity="1"/>
<defs>
  <clipPath id="clip231">
    <rect x="480" y="0" width="1681" height="1600"/>
  </clipPath>
</defs>
<path clip-path="url(#clip230)" d="M193.936 1486.45 L2352.76 1486.45 L2352.76 47.2441 L193.936 47.2441  Z" fill="#ffffff" fill-rule="evenodd" fill-opacity="1"/>
<defs>
  <clipPath id="clip232">
    <rect x="193" y="47" width="2160" height="1440"/>
  </clipPath>
</defs>
<polyline clip-path="url(#clip232)" style="stroke:#000000; stroke-linecap:round; stroke-linejoin:round; stroke-width:2; stroke-opacity:0.1; fill:none" points="704.781,1486.45 704.781,47.2441 "/>
<polyline clip-path="url(#clip232)" style="stroke:#000000; stroke-linecap:round; stroke-linejoin:round; stroke-width:2; stroke-opacity:0.1; fill:none" points="1221.84,1486.45 1221.84,47.2441 "/>
<polyline clip-path="url(#clip232)" style="stroke:#000000; stroke-linecap:round; stroke-linejoin:round; stroke-width:2; stroke-opacity:0.1; fill:none" points="1738.89,1486.45 1738.89,47.2441 "/>
<polyline clip-path="url(#clip232)" style="stroke:#000000; stroke-linecap:round; stroke-linejoin:round; stroke-width:2; stroke-opacity:0.1; fill:none" points="2255.95,1486.45 2255.95,47.2441 "/>
<polyline clip-path="url(#clip232)" style="stroke:#000000; stroke-linecap:round; stroke-linejoin:round; stroke-width:2; stroke-opacity:0.1; fill:none" points="193.936,1471.53 2352.76,1471.53 "/>
<polyline clip-path="url(#clip232)" style="stroke:#000000; stroke-linecap:round; stroke-linejoin:round; stroke-width:2; stroke-opacity:0.1; fill:none" points="193.936,1182.08 2352.76,1182.08 "/>
<polyline clip-path="url(#clip232)" style="stroke:#000000; stroke-linecap:round; stroke-linejoin:round; stroke-width:2; stroke-opacity:0.1; fill:none" points="193.936,892.633 2352.76,892.633 "/>
<polyline clip-path="url(#clip232)" style="stroke:#000000; stroke-linecap:round; stroke-linejoin:round; stroke-width:2; stroke-opacity:0.1; fill:none" points="193.936,603.184 2352.76,603.184 "/>
<polyline clip-path="url(#clip232)" style="stroke:#000000; stroke-linecap:round; stroke-linejoin:round; stroke-width:2; stroke-opacity:0.1; fill:none" points="193.936,313.735 2352.76,313.735 "/>
<polyline clip-path="url(#clip230)" style="stroke:#000000; stroke-linecap:round; stroke-linejoin:round; stroke-width:4; stroke-opacity:1; fill:none" points="193.936,1486.45 2352.76,1486.45 "/>
<polyline clip-path="url(#clip230)" style="stroke:#000000; stroke-linecap:round; stroke-linejoin:round; stroke-width:4; stroke-opacity:1; fill:none" points="704.781,1486.45 704.781,1467.55 "/>
<polyline clip-path="url(#clip230)" style="stroke:#000000; stroke-linecap:round; stroke-linejoin:round; stroke-width:4; stroke-opacity:1; fill:none" points="1221.84,1486.45 1221.84,1467.55 "/>
<polyline clip-path="url(#clip230)" style="stroke:#000000; stroke-linecap:round; stroke-linejoin:round; stroke-width:4; stroke-opacity:1; fill:none" points="1738.89,1486.45 1738.89,1467.55 "/>
<polyline clip-path="url(#clip230)" style="stroke:#000000; stroke-linecap:round; stroke-linejoin:round; stroke-width:4; stroke-opacity:1; fill:none" points="2255.95,1486.45 2255.95,1467.55 "/>
<path clip-path="url(#clip230)" d="M674.538 1532.02 L704.214 1532.02 L704.214 1535.95 L674.538 1535.95 L674.538 1532.02 Z" fill="#000000" fill-rule="nonzero" fill-opacity="1" /><path clip-path="url(#clip230)" d="M715.117 1544.91 L722.756 1544.91 L722.756 1518.55 L714.446 1520.21 L714.446 1515.95 L722.709 1514.29 L727.385 1514.29 L727.385 1544.91 L735.024 1544.91 L735.024 1548.85 L715.117 1548.85 L715.117 1544.91 Z" fill="#000000" fill-rule="nonzero" fill-opacity="1" /><path clip-path="url(#clip230)" d="M1221.84 1517.37 Q1218.23 1517.37 1216.4 1520.93 Q1214.59 1524.47 1214.59 1531.6 Q1214.59 1538.71 1216.4 1542.27 Q1218.23 1545.82 1221.84 1545.82 Q1225.47 1545.82 1227.28 1542.27 Q1229.11 1538.71 1229.11 1531.6 Q1229.11 1524.47 1227.28 1520.93 Q1225.47 1517.37 1221.84 1517.37 M1221.84 1513.66 Q1227.65 1513.66 1230.7 1518.27 Q1233.78 1522.85 1233.78 1531.6 Q1233.78 1540.33 1230.7 1544.94 Q1227.65 1549.52 1221.84 1549.52 Q1216.03 1549.52 1212.95 1544.94 Q1209.89 1540.33 1209.89 1531.6 Q1209.89 1522.85 1212.95 1518.27 Q1216.03 1513.66 1221.84 1513.66 Z" fill="#000000" fill-rule="nonzero" fill-opacity="1" /><path clip-path="url(#clip230)" d="M1729.28 1544.91 L1736.92 1544.91 L1736.92 1518.55 L1728.61 1520.21 L1728.61 1515.95 L1736.87 1514.29 L1741.54 1514.29 L1741.54 1544.91 L1749.18 1544.91 L1749.18 1548.85 L1729.28 1548.85 L1729.28 1544.91 Z" fill="#000000" fill-rule="nonzero" fill-opacity="1" /><path clip-path="url(#clip230)" d="M2250.6 1544.91 L2266.92 1544.91 L2266.92 1548.85 L2244.98 1548.85 L2244.98 1544.91 Q2247.64 1542.16 2252.22 1537.53 Q2256.83 1532.88 2258.01 1531.53 Q2260.26 1529.01 2261.14 1527.27 Q2262.04 1525.51 2262.04 1523.82 Q2262.04 1521.07 2260.09 1519.33 Q2258.17 1517.6 2255.07 1517.6 Q2252.87 1517.6 2250.42 1518.36 Q2247.99 1519.13 2245.21 1520.68 L2245.21 1515.95 Q2248.03 1514.82 2250.49 1514.24 Q2252.94 1513.66 2254.98 1513.66 Q2260.35 1513.66 2263.54 1516.35 Q2266.74 1519.03 2266.74 1523.52 Q2266.74 1525.65 2265.93 1527.57 Q2265.14 1529.47 2263.03 1532.07 Q2262.46 1532.74 2259.35 1535.95 Q2256.25 1539.15 2250.6 1544.91 Z" fill="#000000" fill-rule="nonzero" fill-opacity="1" /><polyline clip-path="url(#clip230)" style="stroke:#000000; stroke-linecap:round; stroke-linejoin:round; stroke-width:4; stroke-opacity:1; fill:none" points="193.936,1486.45 193.936,47.2441 "/>
<polyline clip-path="url(#clip230)" style="stroke:#000000; stroke-linecap:round; stroke-linejoin:round; stroke-width:4; stroke-opacity:1; fill:none" points="193.936,1471.53 212.834,1471.53 "/>
<polyline clip-path="url(#clip230)" style="stroke:#000000; stroke-linecap:round; stroke-linejoin:round; stroke-width:4; stroke-opacity:1; fill:none" points="193.936,1182.08 212.834,1182.08 "/>
<polyline clip-path="url(#clip230)" style="stroke:#000000; stroke-linecap:round; stroke-linejoin:round; stroke-width:4; stroke-opacity:1; fill:none" points="193.936,892.633 212.834,892.633 "/>
<polyline clip-path="url(#clip230)" style="stroke:#000000; stroke-linecap:round; stroke-linejoin:round; stroke-width:4; stroke-opacity:1; fill:none" points="193.936,603.184 212.834,603.184 "/>
<polyline clip-path="url(#clip230)" style="stroke:#000000; stroke-linecap:round; stroke-linejoin:round; stroke-width:4; stroke-opacity:1; fill:none" points="193.936,313.735 212.834,313.735 "/>
<path clip-path="url(#clip230)" d="M50.9921 1471.98 L80.6679 1471.98 L80.6679 1475.92 L50.9921 1475.92 L50.9921 1471.98 Z" fill="#000000" fill-rule="nonzero" fill-opacity="1" /><path clip-path="url(#clip230)" d="M91.5706 1484.87 L99.2095 1484.87 L99.2095 1458.51 L90.8993 1460.18 L90.8993 1455.92 L99.1632 1454.25 L103.839 1454.25 L103.839 1484.87 L111.478 1484.87 L111.478 1488.81 L91.5706 1488.81 L91.5706 1484.87 Z" fill="#000000" fill-rule="nonzero" fill-opacity="1" /><path clip-path="url(#clip230)" d="M120.922 1482.93 L125.807 1482.93 L125.807 1488.81 L120.922 1488.81 L120.922 1482.93 Z" fill="#000000" fill-rule="nonzero" fill-opacity="1" /><path clip-path="url(#clip230)" d="M145.992 1457.33 Q142.381 1457.33 140.552 1460.89 Q138.746 1464.44 138.746 1471.56 Q138.746 1478.67 140.552 1482.24 Q142.381 1485.78 145.992 1485.78 Q149.626 1485.78 151.431 1482.24 Q153.26 1478.67 153.26 1471.56 Q153.26 1464.44 151.431 1460.89 Q149.626 1457.33 145.992 1457.33 M145.992 1453.63 Q151.802 1453.63 154.857 1458.23 Q157.936 1462.81 157.936 1471.56 Q157.936 1480.29 154.857 1484.9 Q151.802 1489.48 145.992 1489.48 Q140.181 1489.48 137.103 1484.9 Q134.047 1480.29 134.047 1471.56 Q134.047 1462.81 137.103 1458.23 Q140.181 1453.63 145.992 1453.63 Z" fill="#000000" fill-rule="nonzero" fill-opacity="1" /><path clip-path="url(#clip230)" d="M51.9875 1182.53 L81.6633 1182.53 L81.6633 1186.47 L51.9875 1186.47 L51.9875 1182.53 Z" fill="#000000" fill-rule="nonzero" fill-opacity="1" /><path clip-path="url(#clip230)" d="M101.756 1167.88 Q98.1447 1167.88 96.316 1171.44 Q94.5104 1174.99 94.5104 1182.12 Q94.5104 1189.22 96.316 1192.79 Q98.1447 1196.33 101.756 1196.33 Q105.39 1196.33 107.196 1192.79 Q109.024 1189.22 109.024 1182.12 Q109.024 1174.99 107.196 1171.44 Q105.39 1167.88 101.756 1167.88 M101.756 1164.18 Q107.566 1164.18 110.621 1168.78 Q113.7 1173.37 113.7 1182.12 Q113.7 1190.84 110.621 1195.45 Q107.566 1200.03 101.756 1200.03 Q95.9456 1200.03 92.8669 1195.45 Q89.8114 1190.84 89.8114 1182.12 Q89.8114 1173.37 92.8669 1168.78 Q95.9456 1164.18 101.756 1164.18 Z" fill="#000000" fill-rule="nonzero" fill-opacity="1" /><path clip-path="url(#clip230)" d="M121.918 1193.48 L126.802 1193.48 L126.802 1199.36 L121.918 1199.36 L121.918 1193.48 Z" fill="#000000" fill-rule="nonzero" fill-opacity="1" /><path clip-path="url(#clip230)" d="M137.033 1164.8 L155.39 1164.8 L155.39 1168.74 L141.316 1168.74 L141.316 1177.21 Q142.334 1176.86 143.353 1176.7 Q144.371 1176.51 145.39 1176.51 Q151.177 1176.51 154.556 1179.69 Q157.936 1182.86 157.936 1188.27 Q157.936 1193.85 154.464 1196.95 Q150.992 1200.03 144.672 1200.03 Q142.496 1200.03 140.228 1199.66 Q137.982 1199.29 135.575 1198.55 L135.575 1193.85 Q137.658 1194.99 139.881 1195.54 Q142.103 1196.1 144.58 1196.1 Q148.584 1196.1 150.922 1193.99 Q153.26 1191.88 153.26 1188.27 Q153.26 1184.66 150.922 1182.56 Q148.584 1180.45 144.58 1180.45 Q142.705 1180.45 140.83 1180.87 Q138.978 1181.28 137.033 1182.16 L137.033 1164.8 Z" fill="#000000" fill-rule="nonzero" fill-opacity="1" /><path clip-path="url(#clip230)" d="M100.76 878.431 Q97.1493 878.431 95.3206 881.996 Q93.515 885.538 93.515 892.667 Q93.515 899.774 95.3206 903.338 Q97.1493 906.88 100.76 906.88 Q104.395 906.88 106.2 903.338 Q108.029 899.774 108.029 892.667 Q108.029 885.538 106.2 881.996 Q104.395 878.431 100.76 878.431 M100.76 874.728 Q106.571 874.728 109.626 879.334 Q112.705 883.917 112.705 892.667 Q112.705 901.394 109.626 906 Q106.571 910.584 100.76 910.584 Q94.9502 910.584 91.8715 906 Q88.816 901.394 88.816 892.667 Q88.816 883.917 91.8715 879.334 Q94.9502 874.728 100.76 874.728 Z" fill="#000000" fill-rule="nonzero" fill-opacity="1" /><path clip-path="url(#clip230)" d="M120.922 904.033 L125.807 904.033 L125.807 909.913 L120.922 909.913 L120.922 904.033 Z" fill="#000000" fill-rule="nonzero" fill-opacity="1" /><path clip-path="url(#clip230)" d="M145.992 878.431 Q142.381 878.431 140.552 881.996 Q138.746 885.538 138.746 892.667 Q138.746 899.774 140.552 903.338 Q142.381 906.88 145.992 906.88 Q149.626 906.88 151.431 903.338 Q153.26 899.774 153.26 892.667 Q153.26 885.538 151.431 881.996 Q149.626 878.431 145.992 878.431 M145.992 874.728 Q151.802 874.728 154.857 879.334 Q157.936 883.917 157.936 892.667 Q157.936 901.394 154.857 906 Q151.802 910.584 145.992 910.584 Q140.181 910.584 137.103 906 Q134.047 901.394 134.047 892.667 Q134.047 883.917 137.103 879.334 Q140.181 874.728 145.992 874.728 Z" fill="#000000" fill-rule="nonzero" fill-opacity="1" /><path clip-path="url(#clip230)" d="M101.756 588.982 Q98.1447 588.982 96.316 592.547 Q94.5104 596.089 94.5104 603.218 Q94.5104 610.325 96.316 613.89 Q98.1447 617.431 101.756 617.431 Q105.39 617.431 107.196 613.89 Q109.024 610.325 109.024 603.218 Q109.024 596.089 107.196 592.547 Q105.39 588.982 101.756 588.982 M101.756 585.279 Q107.566 585.279 110.621 589.885 Q113.7 594.468 113.7 603.218 Q113.7 611.945 110.621 616.552 Q107.566 621.135 101.756 621.135 Q95.9456 621.135 92.8669 616.552 Q89.8114 611.945 89.8114 603.218 Q89.8114 594.468 92.8669 589.885 Q95.9456 585.279 101.756 585.279 Z" fill="#000000" fill-rule="nonzero" fill-opacity="1" /><path clip-path="url(#clip230)" d="M121.918 614.584 L126.802 614.584 L126.802 620.464 L121.918 620.464 L121.918 614.584 Z" fill="#000000" fill-rule="nonzero" fill-opacity="1" /><path clip-path="url(#clip230)" d="M137.033 585.904 L155.39 585.904 L155.39 589.839 L141.316 589.839 L141.316 598.311 Q142.334 597.964 143.353 597.802 Q144.371 597.617 145.39 597.617 Q151.177 597.617 154.556 600.788 Q157.936 603.959 157.936 609.376 Q157.936 614.954 154.464 618.056 Q150.992 621.135 144.672 621.135 Q142.496 621.135 140.228 620.765 Q137.982 620.394 135.575 619.654 L135.575 614.954 Q137.658 616.089 139.881 616.644 Q142.103 617.2 144.58 617.2 Q148.584 617.2 150.922 615.093 Q153.26 612.987 153.26 609.376 Q153.26 605.765 150.922 603.658 Q148.584 601.552 144.58 601.552 Q142.705 601.552 140.83 601.968 Q138.978 602.385 137.033 603.265 L137.033 585.904 Z" fill="#000000" fill-rule="nonzero" fill-opacity="1" /><path clip-path="url(#clip230)" d="M91.5706 327.08 L99.2095 327.08 L99.2095 300.714 L90.8993 302.381 L90.8993 298.122 L99.1632 296.455 L103.839 296.455 L103.839 327.08 L111.478 327.08 L111.478 331.015 L91.5706 331.015 L91.5706 327.08 Z" fill="#000000" fill-rule="nonzero" fill-opacity="1" /><path clip-path="url(#clip230)" d="M120.922 325.135 L125.807 325.135 L125.807 331.015 L120.922 331.015 L120.922 325.135 Z" fill="#000000" fill-rule="nonzero" fill-opacity="1" /><path clip-path="url(#clip230)" d="M145.992 299.534 Q142.381 299.534 140.552 303.098 Q138.746 306.64 138.746 313.77 Q138.746 320.876 140.552 324.441 Q142.381 327.983 145.992 327.983 Q149.626 327.983 151.431 324.441 Q153.26 320.876 153.26 313.77 Q153.26 306.64 151.431 303.098 Q149.626 299.534 145.992 299.534 M145.992 295.83 Q151.802 295.83 154.857 300.436 Q157.936 305.02 157.936 313.77 Q157.936 322.496 154.857 327.103 Q151.802 331.686 145.992 331.686 Q140.181 331.686 137.103 327.103 Q134.047 322.496 134.047 313.77 Q134.047 305.02 137.103 300.436 Q140.181 295.83 145.992 295.83 Z" fill="#000000" fill-rule="nonzero" fill-opacity="1" /><circle clip-path="url(#clip232)" cx="255.035" cy="751.614" r="14.4" fill="#009af9" fill-rule="evenodd" fill-opacity="0.5" stroke="#000000" stroke-opacity="0.5" stroke-width="3.2"/>
<circle clip-path="url(#clip232)" cx="1506.85" cy="136.824" r="14.4" fill="#009af9" fill-rule="evenodd" fill-opacity="0.5" stroke="#000000" stroke-opacity="0.5" stroke-width="3.2"/>
<circle clip-path="url(#clip232)" cx="2021.62" cy="1052.4" r="14.4" fill="#009af9" fill-rule="evenodd" fill-opacity="0.5" stroke="#000000" stroke-opacity="0.5" stroke-width="3.2"/>
<circle clip-path="url(#clip232)" cx="1464.28" cy="810.74" r="14.4" fill="#009af9" fill-rule="evenodd" fill-opacity="0.5" stroke="#000000" stroke-opacity="0.5" stroke-width="3.2"/>
<circle clip-path="url(#clip232)" cx="367.02" cy="600.698" r="14.4" fill="#009af9" fill-rule="evenodd" fill-opacity="0.5" stroke="#000000" stroke-opacity="0.5" stroke-width="3.2"/>
<circle clip-path="url(#clip232)" cx="1923.96" cy="408.594" r="14.4" fill="#009af9" fill-rule="evenodd" fill-opacity="0.5" stroke="#000000" stroke-opacity="0.5" stroke-width="3.2"/>
<circle clip-path="url(#clip232)" cx="1344.28" cy="629.607" r="14.4" fill="#009af9" fill-rule="evenodd" fill-opacity="0.5" stroke="#000000" stroke-opacity="0.5" stroke-width="3.2"/>
<circle clip-path="url(#clip232)" cx="2002.87" cy="437.846" r="14.4" fill="#009af9" fill-rule="evenodd" fill-opacity="0.5" stroke="#000000" stroke-opacity="0.5" stroke-width="3.2"/>
<circle clip-path="url(#clip232)" cx="2219.99" cy="1299.17" r="14.4" fill="#009af9" fill-rule="evenodd" fill-opacity="0.5" stroke="#000000" stroke-opacity="0.5" stroke-width="3.2"/>
<circle clip-path="url(#clip232)" cx="1244.34" cy="460.493" r="14.4" fill="#009af9" fill-rule="evenodd" fill-opacity="0.5" stroke="#000000" stroke-opacity="0.5" stroke-width="3.2"/>
<circle clip-path="url(#clip232)" cx="568.476" cy="1090.51" r="14.4" fill="#009af9" fill-rule="evenodd" fill-opacity="0.5" stroke="#000000" stroke-opacity="0.5" stroke-width="3.2"/>
<circle clip-path="url(#clip232)" cx="1499.87" cy="636.061" r="14.4" fill="#009af9" fill-rule="evenodd" fill-opacity="0.5" stroke="#000000" stroke-opacity="0.5" stroke-width="3.2"/>
<circle clip-path="url(#clip232)" cx="1298.78" cy="639.218" r="14.4" fill="#009af9" fill-rule="evenodd" fill-opacity="0.5" stroke="#000000" stroke-opacity="0.5" stroke-width="3.2"/>
<circle clip-path="url(#clip232)" cx="776.62" cy="1191.68" r="14.4" fill="#009af9" fill-rule="evenodd" fill-opacity="0.5" stroke="#000000" stroke-opacity="0.5" stroke-width="3.2"/>
<circle clip-path="url(#clip232)" cx="1926.28" cy="503.435" r="14.4" fill="#009af9" fill-rule="evenodd" fill-opacity="0.5" stroke="#000000" stroke-opacity="0.5" stroke-width="3.2"/>
<circle clip-path="url(#clip232)" cx="1792.41" cy="1338" r="14.4" fill="#009af9" fill-rule="evenodd" fill-opacity="0.5" stroke="#000000" stroke-opacity="0.5" stroke-width="3.2"/>
<circle clip-path="url(#clip232)" cx="997.283" cy="807.21" r="14.4" fill="#009af9" fill-rule="evenodd" fill-opacity="0.5" stroke="#000000" stroke-opacity="0.5" stroke-width="3.2"/>
<circle clip-path="url(#clip232)" cx="1690.06" cy="1054.18" r="14.4" fill="#009af9" fill-rule="evenodd" fill-opacity="0.5" stroke="#000000" stroke-opacity="0.5" stroke-width="3.2"/>
<circle clip-path="url(#clip232)" cx="2291.66" cy="1407.18" r="14.4" fill="#009af9" fill-rule="evenodd" fill-opacity="0.5" stroke="#000000" stroke-opacity="0.5" stroke-width="3.2"/>
<circle clip-path="url(#clip232)" cx="428.356" cy="591.371" r="14.4" fill="#009af9" fill-rule="evenodd" fill-opacity="0.5" stroke="#000000" stroke-opacity="0.5" stroke-width="3.2"/>
<circle clip-path="url(#clip232)" cx="1297.86" cy="688.581" r="14.4" fill="#009af9" fill-rule="evenodd" fill-opacity="0.5" stroke="#000000" stroke-opacity="0.5" stroke-width="3.2"/>
<circle clip-path="url(#clip232)" cx="1172.94" cy="592.794" r="14.4" fill="#009af9" fill-rule="evenodd" fill-opacity="0.5" stroke="#000000" stroke-opacity="0.5" stroke-width="3.2"/>
<circle clip-path="url(#clip232)" cx="353.878" cy="621.79" r="14.4" fill="#009af9" fill-rule="evenodd" fill-opacity="0.5" stroke="#000000" stroke-opacity="0.5" stroke-width="3.2"/>
<circle clip-path="url(#clip232)" cx="953.451" cy="729.828" r="14.4" fill="#009af9" fill-rule="evenodd" fill-opacity="0.5" stroke="#000000" stroke-opacity="0.5" stroke-width="3.2"/>
<circle clip-path="url(#clip232)" cx="1767.31" cy="1445.72" r="14.4" fill="#009af9" fill-rule="evenodd" fill-opacity="0.5" stroke="#000000" stroke-opacity="0.5" stroke-width="3.2"/>
<circle clip-path="url(#clip232)" cx="1140.99" cy="895.046" r="14.4" fill="#009af9" fill-rule="evenodd" fill-opacity="0.5" stroke="#000000" stroke-opacity="0.5" stroke-width="3.2"/>
<circle clip-path="url(#clip232)" cx="1514.27" cy="175.514" r="14.4" fill="#009af9" fill-rule="evenodd" fill-opacity="0.5" stroke="#000000" stroke-opacity="0.5" stroke-width="3.2"/>
<circle clip-path="url(#clip232)" cx="1101.38" cy="87.9763" r="14.4" fill="#009af9" fill-rule="evenodd" fill-opacity="0.5" stroke="#000000" stroke-opacity="0.5" stroke-width="3.2"/>
<circle clip-path="url(#clip232)" cx="2098.24" cy="689.753" r="14.4" fill="#009af9" fill-rule="evenodd" fill-opacity="0.5" stroke="#000000" stroke-opacity="0.5" stroke-width="3.2"/>
<circle clip-path="url(#clip232)" cx="524.397" cy="1088.38" r="14.4" fill="#009af9" fill-rule="evenodd" fill-opacity="0.5" stroke="#000000" stroke-opacity="0.5" stroke-width="3.2"/>
<path clip-path="url(#clip232)" d="M255.035 751.614 L524.397 1088.38 L776.62 1191.68 L1767.31 1445.72 L2291.66 1407.18 L2098.24 689.753 L2002.87 437.846 L1506.85 136.824 L1101.38 87.9763 L367.02 600.698 L255.035 751.614 L255.035 751.614  Z" fill="#e26f46" fill-rule="evenodd" fill-opacity="0.2"/>
<polyline clip-path="url(#clip232)" style="stroke:#000000; stroke-linecap:round; stroke-linejoin:round; stroke-width:4; stroke-opacity:0.2; fill:none" points="255.035,751.614 524.397,1088.38 776.62,1191.68 1767.31,1445.72 2291.66,1407.18 2098.24,689.753 2002.87,437.846 1506.85,136.824 1101.38,87.9763 367.02,600.698 255.035,751.614 "/>
</svg>
