<?xml version="1.0" encoding="utf-8"?>
<svg xmlns="http://www.w3.org/2000/svg" xmlns:xlink="http://www.w3.org/1999/xlink" width="600" height="400" viewBox="0 0 2400 1600">
<defs>
  <clipPath id="clip590">
    <rect x="0" y="0" width="2400" height="1600"/>
  </clipPath>
</defs>
<path clip-path="url(#clip590)" d="M0 1600 L2400 1600 L2400 0 L0 0  Z" fill="#ffffff" fill-rule="evenodd" fill-opacity="1"/>
<defs>
  <clipPath id="clip591">
    <rect x="480" y="0" width="1681" height="1600"/>
  </clipPath>
</defs>
<path clip-path="url(#clip590)" d="M147.478 1486.45 L2352.76 1486.45 L2352.76 47.2441 L147.478 47.2441  Z" fill="#ffffff" fill-rule="evenodd" fill-opacity="1"/>
<defs>
  <clipPath id="clip592">
    <rect x="147" y="47" width="2206" height="1440"/>
  </clipPath>
</defs>
<polyline clip-path="url(#clip592)" style="stroke:#000000; stroke-linecap:round; stroke-linejoin:round; stroke-width:2; stroke-opacity:0.1; fill:none" points="288.478,1486.45 288.478,47.2441 "/>
<polyline clip-path="url(#clip592)" style="stroke:#000000; stroke-linecap:round; stroke-linejoin:round; stroke-width:2; stroke-opacity:0.1; fill:none" points="624.877,1486.45 624.877,47.2441 "/>
<polyline clip-path="url(#clip592)" style="stroke:#000000; stroke-linecap:round; stroke-linejoin:round; stroke-width:2; stroke-opacity:0.1; fill:none" points="961.277,1486.45 961.277,47.2441 "/>
<polyline clip-path="url(#clip592)" style="stroke:#000000; stroke-linecap:round; stroke-linejoin:round; stroke-width:2; stroke-opacity:0.1; fill:none" points="1297.68,1486.45 1297.68,47.2441 "/>
<polyline clip-path="url(#clip592)" style="stroke:#000000; stroke-linecap:round; stroke-linejoin:round; stroke-width:2; stroke-opacity:0.1; fill:none" points="1634.08,1486.45 1634.08,47.2441 "/>
<polyline clip-path="url(#clip592)" style="stroke:#000000; stroke-linecap:round; stroke-linejoin:round; stroke-width:2; stroke-opacity:0.1; fill:none" points="1970.47,1486.45 1970.47,47.2441 "/>
<polyline clip-path="url(#clip592)" style="stroke:#000000; stroke-linecap:round; stroke-linejoin:round; stroke-width:2; stroke-opacity:0.1; fill:none" points="2306.87,1486.45 2306.87,47.2441 "/>
<polyline clip-path="url(#clip592)" style="stroke:#000000; stroke-linecap:round; stroke-linejoin:round; stroke-width:2; stroke-opacity:0.1; fill:none" points="147.478,1428.91 2352.76,1428.91 "/>
<polyline clip-path="url(#clip592)" style="stroke:#000000; stroke-linecap:round; stroke-linejoin:round; stroke-width:2; stroke-opacity:0.1; fill:none" points="147.478,1081.14 2352.76,1081.14 "/>
<polyline clip-path="url(#clip592)" style="stroke:#000000; stroke-linecap:round; stroke-linejoin:round; stroke-width:2; stroke-opacity:0.1; fill:none" points="147.478,733.368 2352.76,733.368 "/>
<polyline clip-path="url(#clip592)" style="stroke:#000000; stroke-linecap:round; stroke-linejoin:round; stroke-width:2; stroke-opacity:0.1; fill:none" points="147.478,385.596 2352.76,385.596 "/>
<polyline clip-path="url(#clip590)" style="stroke:#000000; stroke-linecap:round; stroke-linejoin:round; stroke-width:4; stroke-opacity:1; fill:none" points="147.478,1486.45 2352.76,1486.45 "/>
<polyline clip-path="url(#clip590)" style="stroke:#000000; stroke-linecap:round; stroke-linejoin:round; stroke-width:4; stroke-opacity:1; fill:none" points="288.478,1486.45 288.478,1467.55 "/>
<polyline clip-path="url(#clip590)" style="stroke:#000000; stroke-linecap:round; stroke-linejoin:round; stroke-width:4; stroke-opacity:1; fill:none" points="624.877,1486.45 624.877,1467.55 "/>
<polyline clip-path="url(#clip590)" style="stroke:#000000; stroke-linecap:round; stroke-linejoin:round; stroke-width:4; stroke-opacity:1; fill:none" points="961.277,1486.45 961.277,1467.55 "/>
<polyline clip-path="url(#clip590)" style="stroke:#000000; stroke-linecap:round; stroke-linejoin:round; stroke-width:4; stroke-opacity:1; fill:none" points="1297.68,1486.45 1297.68,1467.55 "/>
<polyline clip-path="url(#clip590)" style="stroke:#000000; stroke-linecap:round; stroke-linejoin:round; stroke-width:4; stroke-opacity:1; fill:none" points="1634.08,1486.45 1634.08,1467.55 "/>
<polyline clip-path="url(#clip590)" style="stroke:#000000; stroke-linecap:round; stroke-linejoin:round; stroke-width:4; stroke-opacity:1; fill:none" points="1970.47,1486.45 1970.47,1467.55 "/>
<polyline clip-path="url(#clip590)" style="stroke:#000000; stroke-linecap:round; stroke-linejoin:round; stroke-width:4; stroke-opacity:1; fill:none" points="2306.87,1486.45 2306.87,1467.55 "/>
<path clip-path="url(#clip590)" d="M235.504 1532.02 L265.18 1532.02 L265.18 1535.95 L235.504 1535.95 L235.504 1532.02 Z" fill="#000000" fill-rule="nonzero" fill-opacity="1" /><path clip-path="url(#clip590)" d="M276.082 1544.91 L283.721 1544.91 L283.721 1518.55 L275.411 1520.21 L275.411 1515.95 L283.675 1514.29 L288.351 1514.29 L288.351 1544.91 L295.99 1544.91 L295.99 1548.85 L276.082 1548.85 L276.082 1544.91 Z" fill="#000000" fill-rule="nonzero" fill-opacity="1" /><path clip-path="url(#clip590)" d="M305.434 1542.97 L310.318 1542.97 L310.318 1548.85 L305.434 1548.85 L305.434 1542.97 Z" fill="#000000" fill-rule="nonzero" fill-opacity="1" /><path clip-path="url(#clip590)" d="M320.55 1514.29 L338.906 1514.29 L338.906 1518.22 L324.832 1518.22 L324.832 1526.7 Q325.851 1526.35 326.869 1526.19 Q327.888 1526 328.906 1526 Q334.693 1526 338.073 1529.17 Q341.452 1532.34 341.452 1537.76 Q341.452 1543.34 337.98 1546.44 Q334.508 1549.52 328.189 1549.52 Q326.013 1549.52 323.744 1549.15 Q321.499 1548.78 319.091 1548.04 L319.091 1543.34 Q321.175 1544.47 323.397 1545.03 Q325.619 1545.58 328.096 1545.58 Q332.101 1545.58 334.439 1543.48 Q336.777 1541.37 336.777 1537.76 Q336.777 1534.15 334.439 1532.04 Q332.101 1529.94 328.096 1529.94 Q326.221 1529.94 324.346 1530.35 Q322.494 1530.77 320.55 1531.65 L320.55 1514.29 Z" fill="#000000" fill-rule="nonzero" fill-opacity="1" /><path clip-path="url(#clip590)" d="M571.406 1532.02 L601.081 1532.02 L601.081 1535.95 L571.406 1535.95 L571.406 1532.02 Z" fill="#000000" fill-rule="nonzero" fill-opacity="1" /><path clip-path="url(#clip590)" d="M611.984 1544.91 L619.623 1544.91 L619.623 1518.55 L611.313 1520.21 L611.313 1515.95 L619.577 1514.29 L624.252 1514.29 L624.252 1544.91 L631.891 1544.91 L631.891 1548.85 L611.984 1548.85 L611.984 1544.91 Z" fill="#000000" fill-rule="nonzero" fill-opacity="1" /><path clip-path="url(#clip590)" d="M641.336 1542.97 L646.22 1542.97 L646.22 1548.85 L641.336 1548.85 L641.336 1542.97 Z" fill="#000000" fill-rule="nonzero" fill-opacity="1" /><path clip-path="url(#clip590)" d="M666.405 1517.37 Q662.794 1517.37 660.965 1520.93 Q659.16 1524.47 659.16 1531.6 Q659.16 1538.71 660.965 1542.27 Q662.794 1545.82 666.405 1545.82 Q670.039 1545.82 671.845 1542.27 Q673.673 1538.71 673.673 1531.6 Q673.673 1524.47 671.845 1520.93 Q670.039 1517.37 666.405 1517.37 M666.405 1513.66 Q672.215 1513.66 675.271 1518.27 Q678.349 1522.85 678.349 1531.6 Q678.349 1540.33 675.271 1544.94 Q672.215 1549.52 666.405 1549.52 Q660.595 1549.52 657.516 1544.94 Q654.461 1540.33 654.461 1531.6 Q654.461 1522.85 657.516 1518.27 Q660.595 1513.66 666.405 1513.66 Z" fill="#000000" fill-rule="nonzero" fill-opacity="1" /><path clip-path="url(#clip590)" d="M908.302 1532.02 L937.978 1532.02 L937.978 1535.95 L908.302 1535.95 L908.302 1532.02 Z" fill="#000000" fill-rule="nonzero" fill-opacity="1" /><path clip-path="url(#clip590)" d="M958.071 1517.37 Q954.46 1517.37 952.631 1520.93 Q950.825 1524.47 950.825 1531.6 Q950.825 1538.71 952.631 1542.27 Q954.46 1545.82 958.071 1545.82 Q961.705 1545.82 963.511 1542.27 Q965.339 1538.71 965.339 1531.6 Q965.339 1524.47 963.511 1520.93 Q961.705 1517.37 958.071 1517.37 M958.071 1513.66 Q963.881 1513.66 966.936 1518.27 Q970.015 1522.85 970.015 1531.6 Q970.015 1540.33 966.936 1544.94 Q963.881 1549.52 958.071 1549.52 Q952.261 1549.52 949.182 1544.94 Q946.126 1540.33 946.126 1531.6 Q946.126 1522.85 949.182 1518.27 Q952.261 1513.66 958.071 1513.66 Z" fill="#000000" fill-rule="nonzero" fill-opacity="1" /><path clip-path="url(#clip590)" d="M978.233 1542.97 L983.117 1542.97 L983.117 1548.85 L978.233 1548.85 L978.233 1542.97 Z" fill="#000000" fill-rule="nonzero" fill-opacity="1" /><path clip-path="url(#clip590)" d="M993.348 1514.29 L1011.7 1514.29 L1011.7 1518.22 L997.631 1518.22 L997.631 1526.7 Q998.649 1526.35 999.668 1526.19 Q1000.69 1526 1001.7 1526 Q1007.49 1526 1010.87 1529.17 Q1014.25 1532.34 1014.25 1537.76 Q1014.25 1543.34 1010.78 1546.44 Q1007.31 1549.52 1000.99 1549.52 Q998.811 1549.52 996.543 1549.15 Q994.297 1548.78 991.89 1548.04 L991.89 1543.34 Q993.973 1544.47 996.196 1545.03 Q998.418 1545.58 1000.89 1545.58 Q1004.9 1545.58 1007.24 1543.48 Q1009.58 1541.37 1009.58 1537.76 Q1009.58 1534.15 1007.24 1532.04 Q1004.9 1529.94 1000.89 1529.94 Q999.02 1529.94 997.145 1530.35 Q995.293 1530.77 993.348 1531.65 L993.348 1514.29 Z" fill="#000000" fill-rule="nonzero" fill-opacity="1" /><path clip-path="url(#clip590)" d="M1275.06 1517.37 Q1271.45 1517.37 1269.62 1520.93 Q1267.82 1524.47 1267.82 1531.6 Q1267.82 1538.71 1269.62 1542.27 Q1271.45 1545.82 1275.06 1545.82 Q1278.69 1545.82 1280.5 1542.27 Q1282.33 1538.71 1282.33 1531.6 Q1282.33 1524.47 1280.5 1520.93 Q1278.69 1517.37 1275.06 1517.37 M1275.06 1513.66 Q1280.87 1513.66 1283.93 1518.27 Q1287 1522.85 1287 1531.6 Q1287 1540.33 1283.93 1544.94 Q1280.87 1549.52 1275.06 1549.52 Q1269.25 1549.52 1266.17 1544.94 Q1263.12 1540.33 1263.12 1531.6 Q1263.12 1522.85 1266.17 1518.27 Q1269.25 1513.66 1275.06 1513.66 Z" fill="#000000" fill-rule="nonzero" fill-opacity="1" /><path clip-path="url(#clip590)" d="M1295.22 1542.97 L1300.11 1542.97 L1300.11 1548.85 L1295.22 1548.85 L1295.22 1542.97 Z" fill="#000000" fill-rule="nonzero" fill-opacity="1" /><path clip-path="url(#clip590)" d="M1320.29 1517.37 Q1316.68 1517.37 1314.85 1520.93 Q1313.05 1524.47 1313.05 1531.6 Q1313.05 1538.71 1314.85 1542.27 Q1316.68 1545.82 1320.29 1545.82 Q1323.93 1545.82 1325.73 1542.27 Q1327.56 1538.71 1327.56 1531.6 Q1327.56 1524.47 1325.73 1520.93 Q1323.93 1517.37 1320.29 1517.37 M1320.29 1513.66 Q1326.1 1513.66 1329.16 1518.27 Q1332.24 1522.85 1332.24 1531.6 Q1332.24 1540.33 1329.16 1544.94 Q1326.1 1549.52 1320.29 1549.52 Q1314.48 1549.52 1311.4 1544.94 Q1308.35 1540.33 1308.35 1531.6 Q1308.35 1522.85 1311.4 1518.27 Q1314.48 1513.66 1320.29 1513.66 Z" fill="#000000" fill-rule="nonzero" fill-opacity="1" /><path clip-path="url(#clip590)" d="M1611.96 1517.37 Q1608.35 1517.37 1606.52 1520.93 Q1604.71 1524.47 1604.71 1531.6 Q1604.71 1538.71 1606.52 1542.27 Q1608.35 1545.82 1611.96 1545.82 Q1615.59 1545.82 1617.4 1542.27 Q1619.23 1538.71 1619.23 1531.6 Q1619.23 1524.47 1617.4 1520.93 Q1615.59 1517.37 1611.96 1517.37 M1611.96 1513.66 Q1617.77 1513.66 1620.82 1518.27 Q1623.9 1522.85 1623.9 1531.6 Q1623.9 1540.33 1620.82 1544.94 Q1617.77 1549.52 1611.96 1549.52 Q1606.15 1549.52 1603.07 1544.94 Q1600.01 1540.33 1600.01 1531.6 Q1600.01 1522.85 1603.07 1518.27 Q1606.15 1513.66 1611.96 1513.66 Z" fill="#000000" fill-rule="nonzero" fill-opacity="1" /><path clip-path="url(#clip590)" d="M1632.12 1542.97 L1637 1542.97 L1637 1548.85 L1632.12 1548.85 L1632.12 1542.97 Z" fill="#000000" fill-rule="nonzero" fill-opacity="1" /><path clip-path="url(#clip590)" d="M1647.23 1514.29 L1665.59 1514.29 L1665.59 1518.22 L1651.52 1518.22 L1651.52 1526.7 Q1652.54 1526.35 1653.55 1526.19 Q1654.57 1526 1655.59 1526 Q1661.38 1526 1664.76 1529.17 Q1668.14 1532.34 1668.14 1537.76 Q1668.14 1543.34 1664.67 1546.44 Q1661.19 1549.52 1654.87 1549.52 Q1652.7 1549.52 1650.43 1549.15 Q1648.18 1548.78 1645.78 1548.04 L1645.78 1543.34 Q1647.86 1544.47 1650.08 1545.03 Q1652.3 1545.58 1654.78 1545.58 Q1658.79 1545.58 1661.12 1543.48 Q1663.46 1541.37 1663.46 1537.76 Q1663.46 1534.15 1661.12 1532.04 Q1658.79 1529.94 1654.78 1529.94 Q1652.91 1529.94 1651.03 1530.35 Q1649.18 1530.77 1647.23 1531.65 L1647.23 1514.29 Z" fill="#000000" fill-rule="nonzero" fill-opacity="1" /><path clip-path="url(#clip590)" d="M1937.63 1544.91 L1945.27 1544.91 L1945.27 1518.55 L1936.96 1520.21 L1936.96 1515.95 L1945.22 1514.29 L1949.9 1514.29 L1949.9 1544.91 L1957.53 1544.91 L1957.53 1548.85 L1937.63 1548.85 L1937.63 1544.91 Z" fill="#000000" fill-rule="nonzero" fill-opacity="1" /><path clip-path="url(#clip590)" d="M1966.98 1542.97 L1971.86 1542.97 L1971.86 1548.85 L1966.98 1548.85 L1966.98 1542.97 Z" fill="#000000" fill-rule="nonzero" fill-opacity="1" /><path clip-path="url(#clip590)" d="M1992.05 1517.37 Q1988.44 1517.37 1986.61 1520.93 Q1984.8 1524.47 1984.8 1531.6 Q1984.8 1538.71 1986.61 1542.27 Q1988.44 1545.82 1992.05 1545.82 Q1995.68 1545.82 1997.49 1542.27 Q1999.32 1538.71 1999.32 1531.6 Q1999.32 1524.47 1997.49 1520.93 Q1995.68 1517.37 1992.05 1517.37 M1992.05 1513.66 Q1997.86 1513.66 2000.91 1518.27 Q2003.99 1522.85 2003.99 1531.6 Q2003.99 1540.33 2000.91 1544.94 Q1997.86 1549.52 1992.05 1549.52 Q1986.24 1549.52 1983.16 1544.94 Q1980.1 1540.33 1980.1 1531.6 Q1980.1 1522.85 1983.16 1518.27 Q1986.24 1513.66 1992.05 1513.66 Z" fill="#000000" fill-rule="nonzero" fill-opacity="1" /><path clip-path="url(#clip590)" d="M2274.52 1544.91 L2282.16 1544.91 L2282.16 1518.55 L2273.85 1520.21 L2273.85 1515.95 L2282.12 1514.29 L2286.79 1514.29 L2286.79 1544.91 L2294.43 1544.91 L2294.43 1548.85 L2274.52 1548.85 L2274.52 1544.91 Z" fill="#000000" fill-rule="nonzero" fill-opacity="1" /><path clip-path="url(#clip590)" d="M2303.88 1542.97 L2308.76 1542.97 L2308.76 1548.85 L2303.88 1548.85 L2303.88 1542.97 Z" fill="#000000" fill-rule="nonzero" fill-opacity="1" /><path clip-path="url(#clip590)" d="M2318.99 1514.29 L2337.35 1514.29 L2337.35 1518.22 L2323.27 1518.22 L2323.27 1526.7 Q2324.29 1526.35 2325.31 1526.19 Q2326.33 1526 2327.35 1526 Q2333.14 1526 2336.51 1529.17 Q2339.89 1532.34 2339.89 1537.76 Q2339.89 1543.34 2336.42 1546.44 Q2332.95 1549.52 2326.63 1549.52 Q2324.45 1549.52 2322.19 1549.15 Q2319.94 1548.78 2317.53 1548.04 L2317.53 1543.34 Q2319.62 1544.47 2321.84 1545.03 Q2324.06 1545.58 2326.54 1545.58 Q2330.54 1545.58 2332.88 1543.48 Q2335.22 1541.37 2335.22 1537.76 Q2335.22 1534.15 2332.88 1532.04 Q2330.54 1529.94 2326.54 1529.94 Q2324.66 1529.94 2322.79 1530.35 Q2320.94 1530.77 2318.99 1531.65 L2318.99 1514.29 Z" fill="#000000" fill-rule="nonzero" fill-opacity="1" /><polyline clip-path="url(#clip590)" style="stroke:#000000; stroke-linecap:round; stroke-linejoin:round; stroke-width:4; stroke-opacity:1; fill:none" points="147.478,1486.45 147.478,47.2441 "/>
<polyline clip-path="url(#clip590)" style="stroke:#000000; stroke-linecap:round; stroke-linejoin:round; stroke-width:4; stroke-opacity:1; fill:none" points="147.478,1428.91 166.376,1428.91 "/>
<polyline clip-path="url(#clip590)" style="stroke:#000000; stroke-linecap:round; stroke-linejoin:round; stroke-width:4; stroke-opacity:1; fill:none" points="147.478,1081.14 166.376,1081.14 "/>
<polyline clip-path="url(#clip590)" style="stroke:#000000; stroke-linecap:round; stroke-linejoin:round; stroke-width:4; stroke-opacity:1; fill:none" points="147.478,733.368 166.376,733.368 "/>
<polyline clip-path="url(#clip590)" style="stroke:#000000; stroke-linecap:round; stroke-linejoin:round; stroke-width:4; stroke-opacity:1; fill:none" points="147.478,385.596 166.376,385.596 "/>
<path clip-path="url(#clip590)" d="M51.3625 1429.36 L81.0383 1429.36 L81.0383 1433.3 L51.3625 1433.3 L51.3625 1429.36 Z" fill="#000000" fill-rule="nonzero" fill-opacity="1" /><path clip-path="url(#clip590)" d="M95.1586 1442.26 L111.478 1442.26 L111.478 1446.19 L89.5336 1446.19 L89.5336 1442.26 Q92.1956 1439.5 96.7789 1434.87 Q101.385 1430.22 102.566 1428.88 Q104.811 1426.36 105.691 1424.62 Q106.594 1422.86 106.594 1421.17 Q106.594 1418.42 104.649 1416.68 Q102.728 1414.94 99.6261 1414.94 Q97.4271 1414.94 94.9734 1415.71 Q92.5428 1416.47 89.7651 1418.02 L89.7651 1413.3 Q92.5891 1412.17 95.0428 1411.59 Q97.4965 1411.01 99.5335 1411.01 Q104.904 1411.01 108.098 1413.69 Q111.293 1416.38 111.293 1420.87 Q111.293 1423 110.483 1424.92 Q109.696 1426.82 107.589 1429.41 Q107.01 1430.08 103.909 1433.3 Q100.807 1436.49 95.1586 1442.26 Z" fill="#000000" fill-rule="nonzero" fill-opacity="1" /><path clip-path="url(#clip590)" d="M50.9921 1081.59 L80.6679 1081.59 L80.6679 1085.53 L50.9921 1085.53 L50.9921 1081.59 Z" fill="#000000" fill-rule="nonzero" fill-opacity="1" /><path clip-path="url(#clip590)" d="M91.5706 1094.49 L99.2095 1094.49 L99.2095 1068.12 L90.8993 1069.79 L90.8993 1065.53 L99.1632 1063.86 L103.839 1063.86 L103.839 1094.49 L111.478 1094.49 L111.478 1098.42 L91.5706 1098.42 L91.5706 1094.49 Z" fill="#000000" fill-rule="nonzero" fill-opacity="1" /><path clip-path="url(#clip590)" d="M99.5335 719.167 Q95.9224 719.167 94.0937 722.732 Q92.2882 726.274 92.2882 733.403 Q92.2882 740.51 94.0937 744.074 Q95.9224 747.616 99.5335 747.616 Q103.168 747.616 104.973 744.074 Q106.802 740.51 106.802 733.403 Q106.802 726.274 104.973 722.732 Q103.168 719.167 99.5335 719.167 M99.5335 715.463 Q105.344 715.463 108.399 720.07 Q111.478 724.653 111.478 733.403 Q111.478 742.13 108.399 746.736 Q105.344 751.32 99.5335 751.32 Q93.7234 751.32 90.6447 746.736 Q87.5892 742.13 87.5892 733.403 Q87.5892 724.653 90.6447 720.07 Q93.7234 715.463 99.5335 715.463 Z" fill="#000000" fill-rule="nonzero" fill-opacity="1" /><path clip-path="url(#clip590)" d="M91.5706 398.941 L99.2095 398.941 L99.2095 372.576 L90.8993 374.242 L90.8993 369.983 L99.1632 368.316 L103.839 368.316 L103.839 398.941 L111.478 398.941 L111.478 402.876 L91.5706 402.876 L91.5706 398.941 Z" fill="#000000" fill-rule="nonzero" fill-opacity="1" /><circle clip-path="url(#clip592)" cx="2072.36" cy="464.375" r="14.4" fill="#009af9" fill-rule="evenodd" fill-opacity="0.5" stroke="#000000" stroke-opacity="0.5" stroke-width="3.2"/>
<circle clip-path="url(#clip592)" cx="1228.95" cy="379.536" r="14.4" fill="#009af9" fill-rule="evenodd" fill-opacity="0.5" stroke="#000000" stroke-opacity="0.5" stroke-width="3.2"/>
<circle clip-path="url(#clip592)" cx="311.306" cy="664.721" r="14.4" fill="#009af9" fill-rule="evenodd" fill-opacity="0.5" stroke="#000000" stroke-opacity="0.5" stroke-width="3.2"/>
<circle clip-path="url(#clip592)" cx="1525.25" cy="697.294" r="14.4" fill="#009af9" fill-rule="evenodd" fill-opacity="0.5" stroke="#000000" stroke-opacity="0.5" stroke-width="3.2"/>
<circle clip-path="url(#clip592)" cx="295.228" cy="910.738" r="14.4" fill="#009af9" fill-rule="evenodd" fill-opacity="0.5" stroke="#000000" stroke-opacity="0.5" stroke-width="3.2"/>
<circle clip-path="url(#clip592)" cx="1787.86" cy="1288.46" r="14.4" fill="#009af9" fill-rule="evenodd" fill-opacity="0.5" stroke="#000000" stroke-opacity="0.5" stroke-width="3.2"/>
<circle clip-path="url(#clip592)" cx="739.51" cy="913.935" r="14.4" fill="#009af9" fill-rule="evenodd" fill-opacity="0.5" stroke="#000000" stroke-opacity="0.5" stroke-width="3.2"/>
<circle clip-path="url(#clip592)" cx="561.482" cy="835.611" r="14.4" fill="#009af9" fill-rule="evenodd" fill-opacity="0.5" stroke="#000000" stroke-opacity="0.5" stroke-width="3.2"/>
<circle clip-path="url(#clip592)" cx="1819.05" cy="814.017" r="14.4" fill="#009af9" fill-rule="evenodd" fill-opacity="0.5" stroke="#000000" stroke-opacity="0.5" stroke-width="3.2"/>
<circle clip-path="url(#clip592)" cx="724.566" cy="953.149" r="14.4" fill="#009af9" fill-rule="evenodd" fill-opacity="0.5" stroke="#000000" stroke-opacity="0.5" stroke-width="3.2"/>
<circle clip-path="url(#clip592)" cx="1921.11" cy="963.747" r="14.4" fill="#009af9" fill-rule="evenodd" fill-opacity="0.5" stroke="#000000" stroke-opacity="0.5" stroke-width="3.2"/>
<circle clip-path="url(#clip592)" cx="1247.67" cy="1094.67" r="14.4" fill="#009af9" fill-rule="evenodd" fill-opacity="0.5" stroke="#000000" stroke-opacity="0.5" stroke-width="3.2"/>
<circle clip-path="url(#clip592)" cx="1281.63" cy="1445.72" r="14.4" fill="#009af9" fill-rule="evenodd" fill-opacity="0.5" stroke="#000000" stroke-opacity="0.5" stroke-width="3.2"/>
<circle clip-path="url(#clip592)" cx="1376.31" cy="1125.48" r="14.4" fill="#009af9" fill-rule="evenodd" fill-opacity="0.5" stroke="#000000" stroke-opacity="0.5" stroke-width="3.2"/>
<circle clip-path="url(#clip592)" cx="1213.69" cy="480.314" r="14.4" fill="#009af9" fill-rule="evenodd" fill-opacity="0.5" stroke="#000000" stroke-opacity="0.5" stroke-width="3.2"/>
<circle clip-path="url(#clip592)" cx="504.692" cy="880.77" r="14.4" fill="#009af9" fill-rule="evenodd" fill-opacity="0.5" stroke="#000000" stroke-opacity="0.5" stroke-width="3.2"/>
<circle clip-path="url(#clip592)" cx="1385.99" cy="1148.29" r="14.4" fill="#009af9" fill-rule="evenodd" fill-opacity="0.5" stroke="#000000" stroke-opacity="0.5" stroke-width="3.2"/>
<circle clip-path="url(#clip592)" cx="2290.34" cy="746.732" r="14.4" fill="#009af9" fill-rule="evenodd" fill-opacity="0.5" stroke="#000000" stroke-opacity="0.5" stroke-width="3.2"/>
<circle clip-path="url(#clip592)" cx="1659.97" cy="358.567" r="14.4" fill="#009af9" fill-rule="evenodd" fill-opacity="0.5" stroke="#000000" stroke-opacity="0.5" stroke-width="3.2"/>
<circle clip-path="url(#clip592)" cx="1195.03" cy="564.626" r="14.4" fill="#009af9" fill-rule="evenodd" fill-opacity="0.5" stroke="#000000" stroke-opacity="0.5" stroke-width="3.2"/>
<circle clip-path="url(#clip592)" cx="1571.41" cy="631.907" r="14.4" fill="#009af9" fill-rule="evenodd" fill-opacity="0.5" stroke="#000000" stroke-opacity="0.5" stroke-width="3.2"/>
<circle clip-path="url(#clip592)" cx="670.373" cy="158.412" r="14.4" fill="#009af9" fill-rule="evenodd" fill-opacity="0.5" stroke="#000000" stroke-opacity="0.5" stroke-width="3.2"/>
<circle clip-path="url(#clip592)" cx="1330.35" cy="571.732" r="14.4" fill="#009af9" fill-rule="evenodd" fill-opacity="0.5" stroke="#000000" stroke-opacity="0.5" stroke-width="3.2"/>
<circle clip-path="url(#clip592)" cx="209.891" cy="318.468" r="14.4" fill="#009af9" fill-rule="evenodd" fill-opacity="0.5" stroke="#000000" stroke-opacity="0.5" stroke-width="3.2"/>
<circle clip-path="url(#clip592)" cx="1844.48" cy="87.9763" r="14.4" fill="#009af9" fill-rule="evenodd" fill-opacity="0.5" stroke="#000000" stroke-opacity="0.5" stroke-width="3.2"/>
<circle clip-path="url(#clip592)" cx="1778.98" cy="800.849" r="14.4" fill="#009af9" fill-rule="evenodd" fill-opacity="0.5" stroke="#000000" stroke-opacity="0.5" stroke-width="3.2"/>
<circle clip-path="url(#clip592)" cx="1369.66" cy="992.368" r="14.4" fill="#009af9" fill-rule="evenodd" fill-opacity="0.5" stroke="#000000" stroke-opacity="0.5" stroke-width="3.2"/>
<circle clip-path="url(#clip592)" cx="1565.34" cy="411.648" r="14.4" fill="#009af9" fill-rule="evenodd" fill-opacity="0.5" stroke="#000000" stroke-opacity="0.5" stroke-width="3.2"/>
<circle clip-path="url(#clip592)" cx="1768.18" cy="972.43" r="14.4" fill="#009af9" fill-rule="evenodd" fill-opacity="0.5" stroke="#000000" stroke-opacity="0.5" stroke-width="3.2"/>
<circle clip-path="url(#clip592)" cx="1201.94" cy="411.616" r="14.4" fill="#009af9" fill-rule="evenodd" fill-opacity="0.5" stroke="#000000" stroke-opacity="0.5" stroke-width="3.2"/>
<path clip-path="url(#clip592)" d="M209.891 318.468 L295.228 910.738 L1281.63 1445.72 L1787.86 1288.46 L2290.34 746.732 L1844.48 87.9763 L670.373 158.412 L209.891 318.468 L209.891 318.468  Z" fill="#e26f46" fill-rule="evenodd" fill-opacity="0.2"/>
<polyline clip-path="url(#clip592)" style="stroke:#000000; stroke-linecap:round; stroke-linejoin:round; stroke-width:4; stroke-opacity:0.2; fill:none" points="209.891,318.468 295.228,910.738 1281.63,1445.72 1787.86,1288.46 2290.34,746.732 1844.48,87.9763 670.373,158.412 209.891,318.468 "/>
</svg>
