<?xml version="1.0" encoding="utf-8"?>
<svg xmlns="http://www.w3.org/2000/svg" xmlns:xlink="http://www.w3.org/1999/xlink" width="600" height="400" viewBox="0 0 2400 1600">
<defs>
  <clipPath id="clip160">
    <rect x="0" y="0" width="2400" height="1600"/>
  </clipPath>
</defs>
<path clip-path="url(#clip160)" d="M0 1600 L2400 1600 L2400 0 L0 0  Z" fill="#ffffff" fill-rule="evenodd" fill-opacity="1"/>
<defs>
  <clipPath id="clip161">
    <rect x="480" y="0" width="1681" height="1600"/>
  </clipPath>
</defs>
<path clip-path="url(#clip160)" d="M148.057 1486.45 L2352.76 1486.45 L2352.76 47.2441 L148.057 47.2441  Z" fill="#ffffff" fill-rule="evenodd" fill-opacity="1"/>
<defs>
  <clipPath id="clip162">
    <rect x="148" y="47" width="2206" height="1440"/>
  </clipPath>
</defs>
<polyline clip-path="url(#clip162)" style="stroke:#000000; stroke-linecap:round; stroke-linejoin:round; stroke-width:2; stroke-opacity:0.1; fill:none" points="479.695,1486.45 479.695,47.2441 "/>
<polyline clip-path="url(#clip162)" style="stroke:#000000; stroke-linecap:round; stroke-linejoin:round; stroke-width:2; stroke-opacity:0.1; fill:none" points="992.292,1486.45 992.292,47.2441 "/>
<polyline clip-path="url(#clip162)" style="stroke:#000000; stroke-linecap:round; stroke-linejoin:round; stroke-width:2; stroke-opacity:0.1; fill:none" points="1504.89,1486.45 1504.89,47.2441 "/>
<polyline clip-path="url(#clip162)" style="stroke:#000000; stroke-linecap:round; stroke-linejoin:round; stroke-width:2; stroke-opacity:0.1; fill:none" points="2017.49,1486.45 2017.49,47.2441 "/>
<polyline clip-path="url(#clip162)" style="stroke:#000000; stroke-linecap:round; stroke-linejoin:round; stroke-width:2; stroke-opacity:0.1; fill:none" points="148.057,1403.99 2352.76,1403.99 "/>
<polyline clip-path="url(#clip162)" style="stroke:#000000; stroke-linecap:round; stroke-linejoin:round; stroke-width:2; stroke-opacity:0.1; fill:none" points="148.057,1202.84 2352.76,1202.84 "/>
<polyline clip-path="url(#clip162)" style="stroke:#000000; stroke-linecap:round; stroke-linejoin:round; stroke-width:2; stroke-opacity:0.1; fill:none" points="148.057,1001.68 2352.76,1001.68 "/>
<polyline clip-path="url(#clip162)" style="stroke:#000000; stroke-linecap:round; stroke-linejoin:round; stroke-width:2; stroke-opacity:0.1; fill:none" points="148.057,800.527 2352.76,800.527 "/>
<polyline clip-path="url(#clip162)" style="stroke:#000000; stroke-linecap:round; stroke-linejoin:round; stroke-width:2; stroke-opacity:0.1; fill:none" points="148.057,599.373 2352.76,599.373 "/>
<polyline clip-path="url(#clip162)" style="stroke:#000000; stroke-linecap:round; stroke-linejoin:round; stroke-width:2; stroke-opacity:0.1; fill:none" points="148.057,398.219 2352.76,398.219 "/>
<polyline clip-path="url(#clip162)" style="stroke:#000000; stroke-linecap:round; stroke-linejoin:round; stroke-width:2; stroke-opacity:0.1; fill:none" points="148.057,197.065 2352.76,197.065 "/>
<polyline clip-path="url(#clip160)" style="stroke:#000000; stroke-linecap:round; stroke-linejoin:round; stroke-width:4; stroke-opacity:1; fill:none" points="148.057,1486.45 2352.76,1486.45 "/>
<polyline clip-path="url(#clip160)" style="stroke:#000000; stroke-linecap:round; stroke-linejoin:round; stroke-width:4; stroke-opacity:1; fill:none" points="479.695,1486.45 479.695,1467.55 "/>
<polyline clip-path="url(#clip160)" style="stroke:#000000; stroke-linecap:round; stroke-linejoin:round; stroke-width:4; stroke-opacity:1; fill:none" points="992.292,1486.45 992.292,1467.55 "/>
<polyline clip-path="url(#clip160)" style="stroke:#000000; stroke-linecap:round; stroke-linejoin:round; stroke-width:4; stroke-opacity:1; fill:none" points="1504.89,1486.45 1504.89,1467.55 "/>
<polyline clip-path="url(#clip160)" style="stroke:#000000; stroke-linecap:round; stroke-linejoin:round; stroke-width:4; stroke-opacity:1; fill:none" points="2017.49,1486.45 2017.49,1467.55 "/>
<path clip-path="url(#clip160)" d="M449.638 1532.02 L479.314 1532.02 L479.314 1535.95 L449.638 1535.95 L449.638 1532.02 Z" fill="#000000" fill-rule="nonzero" fill-opacity="1" /><path clip-path="url(#clip160)" d="M493.434 1544.91 L509.753 1544.91 L509.753 1548.85 L487.809 1548.85 L487.809 1544.91 Q490.471 1542.16 495.054 1537.53 Q499.661 1532.88 500.841 1531.53 Q503.087 1529.01 503.966 1527.27 Q504.869 1525.51 504.869 1523.82 Q504.869 1521.07 502.925 1519.33 Q501.003 1517.6 497.901 1517.6 Q495.702 1517.6 493.249 1518.36 Q490.818 1519.13 488.04 1520.68 L488.04 1515.95 Q490.864 1514.82 493.318 1514.24 Q495.772 1513.66 497.809 1513.66 Q503.179 1513.66 506.374 1516.35 Q509.568 1519.03 509.568 1523.52 Q509.568 1525.65 508.758 1527.57 Q507.971 1529.47 505.864 1532.07 Q505.286 1532.74 502.184 1535.95 Q499.082 1539.15 493.434 1544.91 Z" fill="#000000" fill-rule="nonzero" fill-opacity="1" /><path clip-path="url(#clip160)" d="M962.049 1532.02 L991.725 1532.02 L991.725 1535.95 L962.049 1535.95 L962.049 1532.02 Z" fill="#000000" fill-rule="nonzero" fill-opacity="1" /><path clip-path="url(#clip160)" d="M1002.63 1544.91 L1010.27 1544.91 L1010.27 1518.55 L1001.96 1520.21 L1001.96 1515.95 L1010.22 1514.29 L1014.9 1514.29 L1014.9 1544.91 L1022.54 1544.91 L1022.54 1548.85 L1002.63 1548.85 L1002.63 1544.91 Z" fill="#000000" fill-rule="nonzero" fill-opacity="1" /><path clip-path="url(#clip160)" d="M1504.89 1517.37 Q1501.28 1517.37 1499.45 1520.93 Q1497.64 1524.47 1497.64 1531.6 Q1497.64 1538.71 1499.45 1542.27 Q1501.28 1545.82 1504.89 1545.82 Q1508.52 1545.82 1510.33 1542.27 Q1512.16 1538.71 1512.16 1531.6 Q1512.16 1524.47 1510.33 1520.93 Q1508.52 1517.37 1504.89 1517.37 M1504.89 1513.66 Q1510.7 1513.66 1513.75 1518.27 Q1516.83 1522.85 1516.83 1531.6 Q1516.83 1540.33 1513.75 1544.94 Q1510.7 1549.52 1504.89 1549.52 Q1499.08 1549.52 1496 1544.94 Q1492.94 1540.33 1492.94 1531.6 Q1492.94 1522.85 1496 1518.27 Q1499.08 1513.66 1504.89 1513.66 Z" fill="#000000" fill-rule="nonzero" fill-opacity="1" /><path clip-path="url(#clip160)" d="M2007.87 1544.91 L2015.51 1544.91 L2015.51 1518.55 L2007.2 1520.21 L2007.2 1515.95 L2015.46 1514.29 L2020.14 1514.29 L2020.14 1544.91 L2027.78 1544.91 L2027.78 1548.85 L2007.87 1548.85 L2007.87 1544.91 Z" fill="#000000" fill-rule="nonzero" fill-opacity="1" /><polyline clip-path="url(#clip160)" style="stroke:#000000; stroke-linecap:round; stroke-linejoin:round; stroke-width:4; stroke-opacity:1; fill:none" points="148.057,1486.45 148.057,47.2441 "/>
<polyline clip-path="url(#clip160)" style="stroke:#000000; stroke-linecap:round; stroke-linejoin:round; stroke-width:4; stroke-opacity:1; fill:none" points="148.057,1403.99 166.954,1403.99 "/>
<polyline clip-path="url(#clip160)" style="stroke:#000000; stroke-linecap:round; stroke-linejoin:round; stroke-width:4; stroke-opacity:1; fill:none" points="148.057,1202.84 166.954,1202.84 "/>
<polyline clip-path="url(#clip160)" style="stroke:#000000; stroke-linecap:round; stroke-linejoin:round; stroke-width:4; stroke-opacity:1; fill:none" points="148.057,1001.68 166.954,1001.68 "/>
<polyline clip-path="url(#clip160)" style="stroke:#000000; stroke-linecap:round; stroke-linejoin:round; stroke-width:4; stroke-opacity:1; fill:none" points="148.057,800.527 166.954,800.527 "/>
<polyline clip-path="url(#clip160)" style="stroke:#000000; stroke-linecap:round; stroke-linejoin:round; stroke-width:4; stroke-opacity:1; fill:none" points="148.057,599.373 166.954,599.373 "/>
<polyline clip-path="url(#clip160)" style="stroke:#000000; stroke-linecap:round; stroke-linejoin:round; stroke-width:4; stroke-opacity:1; fill:none" points="148.057,398.219 166.954,398.219 "/>
<polyline clip-path="url(#clip160)" style="stroke:#000000; stroke-linecap:round; stroke-linejoin:round; stroke-width:4; stroke-opacity:1; fill:none" points="148.057,197.065 166.954,197.065 "/>
<path clip-path="url(#clip160)" d="M50.9921 1404.44 L80.6679 1404.44 L80.6679 1408.38 L50.9921 1408.38 L50.9921 1404.44 Z" fill="#000000" fill-rule="nonzero" fill-opacity="1" /><path clip-path="url(#clip160)" d="M104.927 1402.63 Q108.283 1403.35 110.158 1405.62 Q112.057 1407.89 112.057 1411.22 Q112.057 1416.34 108.538 1419.14 Q105.02 1421.94 98.5382 1421.94 Q96.3623 1421.94 94.0475 1421.5 Q91.7558 1421.08 89.3021 1420.23 L89.3021 1415.71 Q91.2465 1416.85 93.5613 1417.43 Q95.8761 1418.01 98.3993 1418.01 Q102.797 1418.01 105.089 1416.27 Q107.404 1414.53 107.404 1411.22 Q107.404 1408.17 105.251 1406.45 Q103.121 1404.72 99.3021 1404.72 L95.2743 1404.72 L95.2743 1400.88 L99.4872 1400.88 Q102.936 1400.88 104.765 1399.51 Q106.594 1398.12 106.594 1395.53 Q106.594 1392.87 104.696 1391.45 Q102.821 1390.02 99.3021 1390.02 Q97.3808 1390.02 95.1817 1390.44 Q92.9826 1390.85 90.3438 1391.73 L90.3438 1387.57 Q93.0058 1386.82 95.3206 1386.45 Q97.6585 1386.08 99.7187 1386.08 Q105.043 1386.08 108.145 1388.51 Q111.246 1390.92 111.246 1395.04 Q111.246 1397.91 109.603 1399.9 Q107.959 1401.87 104.927 1402.63 Z" fill="#000000" fill-rule="nonzero" fill-opacity="1" /><path clip-path="url(#clip160)" d="M51.9412 1203.29 L81.617 1203.29 L81.617 1207.22 L51.9412 1207.22 L51.9412 1203.29 Z" fill="#000000" fill-rule="nonzero" fill-opacity="1" /><path clip-path="url(#clip160)" d="M95.7373 1216.18 L112.057 1216.18 L112.057 1220.12 L90.1123 1220.12 L90.1123 1216.18 Q92.7743 1213.43 97.3576 1208.8 Q101.964 1204.14 103.145 1202.8 Q105.39 1200.28 106.27 1198.54 Q107.172 1196.78 107.172 1195.09 Q107.172 1192.34 105.228 1190.6 Q103.307 1188.87 100.205 1188.87 Q98.0058 1188.87 95.5521 1189.63 Q93.1215 1190.39 90.3438 1191.94 L90.3438 1187.22 Q93.1678 1186.09 95.6215 1185.51 Q98.0752 1184.93 100.112 1184.93 Q105.483 1184.93 108.677 1187.62 Q111.871 1190.3 111.871 1194.79 Q111.871 1196.92 111.061 1198.84 Q110.274 1200.74 108.168 1203.33 Q107.589 1204 104.487 1207.22 Q101.385 1210.42 95.7373 1216.18 Z" fill="#000000" fill-rule="nonzero" fill-opacity="1" /><path clip-path="url(#clip160)" d="M51.5708 1002.13 L81.2466 1002.13 L81.2466 1006.07 L51.5708 1006.07 L51.5708 1002.13 Z" fill="#000000" fill-rule="nonzero" fill-opacity="1" /><path clip-path="url(#clip160)" d="M92.1493 1015.03 L99.7882 1015.03 L99.7882 988.66 L91.478 990.327 L91.478 986.068 L99.7419 984.401 L104.418 984.401 L104.418 1015.03 L112.057 1015.03 L112.057 1018.96 L92.1493 1018.96 L92.1493 1015.03 Z" fill="#000000" fill-rule="nonzero" fill-opacity="1" /><path clip-path="url(#clip160)" d="M100.112 786.326 Q96.5011 786.326 94.6724 789.891 Q92.8669 793.432 92.8669 800.562 Q92.8669 807.668 94.6724 811.233 Q96.5011 814.775 100.112 814.775 Q103.746 814.775 105.552 811.233 Q107.381 807.668 107.381 800.562 Q107.381 793.432 105.552 789.891 Q103.746 786.326 100.112 786.326 M100.112 782.622 Q105.922 782.622 108.978 787.229 Q112.057 791.812 112.057 800.562 Q112.057 809.289 108.978 813.895 Q105.922 818.478 100.112 818.478 Q94.3021 818.478 91.2234 813.895 Q88.1679 809.289 88.1679 800.562 Q88.1679 791.812 91.2234 787.229 Q94.3021 782.622 100.112 782.622 Z" fill="#000000" fill-rule="nonzero" fill-opacity="1" /><path clip-path="url(#clip160)" d="M92.1493 612.718 L99.7882 612.718 L99.7882 586.352 L91.478 588.019 L91.478 583.76 L99.7419 582.093 L104.418 582.093 L104.418 612.718 L112.057 612.718 L112.057 616.653 L92.1493 616.653 L92.1493 612.718 Z" fill="#000000" fill-rule="nonzero" fill-opacity="1" /><path clip-path="url(#clip160)" d="M95.7373 411.564 L112.057 411.564 L112.057 415.499 L90.1123 415.499 L90.1123 411.564 Q92.7743 408.809 97.3576 404.18 Q101.964 399.527 103.145 398.184 Q105.39 395.661 106.27 393.925 Q107.172 392.166 107.172 390.476 Q107.172 387.721 105.228 385.985 Q103.307 384.249 100.205 384.249 Q98.0058 384.249 95.5521 385.013 Q93.1215 385.777 90.3438 387.328 L90.3438 382.606 Q93.1678 381.471 95.6215 380.893 Q98.0752 380.314 100.112 380.314 Q105.483 380.314 108.677 382.999 Q111.871 385.684 111.871 390.175 Q111.871 392.305 111.061 394.226 Q110.274 396.124 108.168 398.717 Q107.589 399.388 104.487 402.606 Q101.385 405.8 95.7373 411.564 Z" fill="#000000" fill-rule="nonzero" fill-opacity="1" /><path clip-path="url(#clip160)" d="M104.927 195.711 Q108.283 196.428 110.158 198.697 Q112.057 200.965 112.057 204.299 Q112.057 209.415 108.538 212.215 Q105.02 215.016 98.5382 215.016 Q96.3623 215.016 94.0475 214.577 Q91.7558 214.16 89.3021 213.303 L89.3021 208.79 Q91.2465 209.924 93.5613 210.502 Q95.8761 211.081 98.3993 211.081 Q102.797 211.081 105.089 209.345 Q107.404 207.609 107.404 204.299 Q107.404 201.243 105.251 199.53 Q103.121 197.794 99.3021 197.794 L95.2743 197.794 L95.2743 193.952 L99.4872 193.952 Q102.936 193.952 104.765 192.586 Q106.594 191.197 106.594 188.604 Q106.594 185.942 104.696 184.53 Q102.821 183.095 99.3021 183.095 Q97.3808 183.095 95.1817 183.512 Q92.9826 183.929 90.3438 184.808 L90.3438 180.642 Q93.0058 179.901 95.3206 179.53 Q97.6585 179.16 99.7187 179.16 Q105.043 179.16 108.145 181.591 Q111.246 183.998 111.246 188.118 Q111.246 190.989 109.603 192.979 Q107.959 194.947 104.927 195.711 Z" fill="#000000" fill-rule="nonzero" fill-opacity="1" /><circle clip-path="url(#clip162)" cx="1144.02" cy="666.509" r="14.4" fill="#009af9" fill-rule="evenodd" fill-opacity="0.5" stroke="#000000" stroke-opacity="0.5" stroke-width="3.2"/>
<circle clip-path="url(#clip162)" cx="1970.32" cy="825.356" r="14.4" fill="#009af9" fill-rule="evenodd" fill-opacity="0.5" stroke="#000000" stroke-opacity="0.5" stroke-width="3.2"/>
<circle clip-path="url(#clip162)" cx="956.081" cy="523.569" r="14.4" fill="#009af9" fill-rule="evenodd" fill-opacity="0.5" stroke="#000000" stroke-opacity="0.5" stroke-width="3.2"/>
<circle clip-path="url(#clip162)" cx="1203.53" cy="722.018" r="14.4" fill="#009af9" fill-rule="evenodd" fill-opacity="0.5" stroke="#000000" stroke-opacity="0.5" stroke-width="3.2"/>
<circle clip-path="url(#clip162)" cx="2033.61" cy="909.412" r="14.4" fill="#009af9" fill-rule="evenodd" fill-opacity="0.5" stroke="#000000" stroke-opacity="0.5" stroke-width="3.2"/>
<circle clip-path="url(#clip162)" cx="1334.54" cy="946.501" r="14.4" fill="#009af9" fill-rule="evenodd" fill-opacity="0.5" stroke="#000000" stroke-opacity="0.5" stroke-width="3.2"/>
<circle clip-path="url(#clip162)" cx="2290.36" cy="737.663" r="14.4" fill="#009af9" fill-rule="evenodd" fill-opacity="0.5" stroke="#000000" stroke-opacity="0.5" stroke-width="3.2"/>
<circle clip-path="url(#clip162)" cx="1103.37" cy="701.666" r="14.4" fill="#009af9" fill-rule="evenodd" fill-opacity="0.5" stroke="#000000" stroke-opacity="0.5" stroke-width="3.2"/>
<circle clip-path="url(#clip162)" cx="1247.92" cy="834.394" r="14.4" fill="#009af9" fill-rule="evenodd" fill-opacity="0.5" stroke="#000000" stroke-opacity="0.5" stroke-width="3.2"/>
<circle clip-path="url(#clip162)" cx="1099.34" cy="1004.63" r="14.4" fill="#009af9" fill-rule="evenodd" fill-opacity="0.5" stroke="#000000" stroke-opacity="0.5" stroke-width="3.2"/>
<circle clip-path="url(#clip162)" cx="1515.07" cy="968.812" r="14.4" fill="#009af9" fill-rule="evenodd" fill-opacity="0.5" stroke="#000000" stroke-opacity="0.5" stroke-width="3.2"/>
<circle clip-path="url(#clip162)" cx="924.006" cy="875.455" r="14.4" fill="#009af9" fill-rule="evenodd" fill-opacity="0.5" stroke="#000000" stroke-opacity="0.5" stroke-width="3.2"/>
<circle clip-path="url(#clip162)" cx="1407.35" cy="825.715" r="14.4" fill="#009af9" fill-rule="evenodd" fill-opacity="0.5" stroke="#000000" stroke-opacity="0.5" stroke-width="3.2"/>
<circle clip-path="url(#clip162)" cx="1614.77" cy="721.229" r="14.4" fill="#009af9" fill-rule="evenodd" fill-opacity="0.5" stroke="#000000" stroke-opacity="0.5" stroke-width="3.2"/>
<circle clip-path="url(#clip162)" cx="1831.61" cy="1165.24" r="14.4" fill="#009af9" fill-rule="evenodd" fill-opacity="0.5" stroke="#000000" stroke-opacity="0.5" stroke-width="3.2"/>
<circle clip-path="url(#clip162)" cx="2036.71" cy="446.456" r="14.4" fill="#009af9" fill-rule="evenodd" fill-opacity="0.5" stroke="#000000" stroke-opacity="0.5" stroke-width="3.2"/>
<circle clip-path="url(#clip162)" cx="943.388" cy="1445.72" r="14.4" fill="#009af9" fill-rule="evenodd" fill-opacity="0.5" stroke="#000000" stroke-opacity="0.5" stroke-width="3.2"/>
<circle clip-path="url(#clip162)" cx="210.454" cy="834.108" r="14.4" fill="#009af9" fill-rule="evenodd" fill-opacity="0.5" stroke="#000000" stroke-opacity="0.5" stroke-width="3.2"/>
<circle clip-path="url(#clip162)" cx="1568.78" cy="431.697" r="14.4" fill="#009af9" fill-rule="evenodd" fill-opacity="0.5" stroke="#000000" stroke-opacity="0.5" stroke-width="3.2"/>
<circle clip-path="url(#clip162)" cx="1494.41" cy="982.176" r="14.4" fill="#009af9" fill-rule="evenodd" fill-opacity="0.5" stroke="#000000" stroke-opacity="0.5" stroke-width="3.2"/>
<circle clip-path="url(#clip162)" cx="2067.82" cy="463.48" r="14.4" fill="#009af9" fill-rule="evenodd" fill-opacity="0.5" stroke="#000000" stroke-opacity="0.5" stroke-width="3.2"/>
<circle clip-path="url(#clip162)" cx="1248.37" cy="720.526" r="14.4" fill="#009af9" fill-rule="evenodd" fill-opacity="0.5" stroke="#000000" stroke-opacity="0.5" stroke-width="3.2"/>
<circle clip-path="url(#clip162)" cx="1820.26" cy="87.9763" r="14.4" fill="#009af9" fill-rule="evenodd" fill-opacity="0.5" stroke="#000000" stroke-opacity="0.5" stroke-width="3.2"/>
<circle clip-path="url(#clip162)" cx="1720.42" cy="608.157" r="14.4" fill="#009af9" fill-rule="evenodd" fill-opacity="0.5" stroke="#000000" stroke-opacity="0.5" stroke-width="3.2"/>
<circle clip-path="url(#clip162)" cx="1754.21" cy="833.082" r="14.4" fill="#009af9" fill-rule="evenodd" fill-opacity="0.5" stroke="#000000" stroke-opacity="0.5" stroke-width="3.2"/>
<circle clip-path="url(#clip162)" cx="1870.61" cy="985.241" r="14.4" fill="#009af9" fill-rule="evenodd" fill-opacity="0.5" stroke="#000000" stroke-opacity="0.5" stroke-width="3.2"/>
<circle clip-path="url(#clip162)" cx="1529.82" cy="583.82" r="14.4" fill="#009af9" fill-rule="evenodd" fill-opacity="0.5" stroke="#000000" stroke-opacity="0.5" stroke-width="3.2"/>
<circle clip-path="url(#clip162)" cx="1696.33" cy="643.565" r="14.4" fill="#009af9" fill-rule="evenodd" fill-opacity="0.5" stroke="#000000" stroke-opacity="0.5" stroke-width="3.2"/>
<circle clip-path="url(#clip162)" cx="1490.92" cy="970.991" r="14.4" fill="#009af9" fill-rule="evenodd" fill-opacity="0.5" stroke="#000000" stroke-opacity="0.5" stroke-width="3.2"/>
<circle clip-path="url(#clip162)" cx="1322.86" cy="836.909" r="14.4" fill="#009af9" fill-rule="evenodd" fill-opacity="0.5" stroke="#000000" stroke-opacity="0.5" stroke-width="3.2"/>
<path clip-path="url(#clip162)" d="M210.454 834.108 L943.388 1445.72 L1831.61 1165.24 L2290.36 737.663 L1820.26 87.9763 L210.454 834.108 L210.454 834.108  Z" fill="#e26f46" fill-rule="evenodd" fill-opacity="0.2"/>
<polyline clip-path="url(#clip162)" style="stroke:#000000; stroke-linecap:round; stroke-linejoin:round; stroke-width:4; stroke-opacity:0.2; fill:none" points="210.454,834.108 943.388,1445.72 1831.61,1165.24 2290.36,737.663 1820.26,87.9763 210.454,834.108 "/>
</svg>
