<?xml version="1.0" encoding="utf-8"?>
<svg xmlns="http://www.w3.org/2000/svg" xmlns:xlink="http://www.w3.org/1999/xlink" width="600" height="400" viewBox="0 0 2400 1600">
<defs>
  <clipPath id="clip050">
    <rect x="0" y="0" width="2400" height="1600"/>
  </clipPath>
</defs>
<path clip-path="url(#clip050)" d="M0 1600 L2400 1600 L2400 0 L0 0  Z" fill="#ffffff" fill-rule="evenodd" fill-opacity="1"/>
<defs>
  <clipPath id="clip051">
    <rect x="480" y="0" width="1681" height="1600"/>
  </clipPath>
</defs>
<path clip-path="url(#clip050)" d="M147.478 1486.45 L2352.76 1486.45 L2352.76 47.2441 L147.478 47.2441  Z" fill="#ffffff" fill-rule="evenodd" fill-opacity="1"/>
<defs>
  <clipPath id="clip052">
    <rect x="147" y="47" width="2206" height="1440"/>
  </clipPath>
</defs>
<polyline clip-path="url(#clip052)" style="stroke:#000000; stroke-linecap:round; stroke-linejoin:round; stroke-width:2; stroke-opacity:0.1; fill:none" points="424.004,1486.45 424.004,47.2441 "/>
<polyline clip-path="url(#clip052)" style="stroke:#000000; stroke-linecap:round; stroke-linejoin:round; stroke-width:2; stroke-opacity:0.1; fill:none" points="988.761,1486.45 988.761,47.2441 "/>
<polyline clip-path="url(#clip052)" style="stroke:#000000; stroke-linecap:round; stroke-linejoin:round; stroke-width:2; stroke-opacity:0.1; fill:none" points="1553.52,1486.45 1553.52,47.2441 "/>
<polyline clip-path="url(#clip052)" style="stroke:#000000; stroke-linecap:round; stroke-linejoin:round; stroke-width:2; stroke-opacity:0.1; fill:none" points="2118.28,1486.45 2118.28,47.2441 "/>
<polyline clip-path="url(#clip052)" style="stroke:#000000; stroke-linecap:round; stroke-linejoin:round; stroke-width:2; stroke-opacity:0.1; fill:none" points="147.478,1275.66 2352.76,1275.66 "/>
<polyline clip-path="url(#clip052)" style="stroke:#000000; stroke-linecap:round; stroke-linejoin:round; stroke-width:2; stroke-opacity:0.1; fill:none" points="147.478,1009.61 2352.76,1009.61 "/>
<polyline clip-path="url(#clip052)" style="stroke:#000000; stroke-linecap:round; stroke-linejoin:round; stroke-width:2; stroke-opacity:0.1; fill:none" points="147.478,743.553 2352.76,743.553 "/>
<polyline clip-path="url(#clip052)" style="stroke:#000000; stroke-linecap:round; stroke-linejoin:round; stroke-width:2; stroke-opacity:0.1; fill:none" points="147.478,477.498 2352.76,477.498 "/>
<polyline clip-path="url(#clip052)" style="stroke:#000000; stroke-linecap:round; stroke-linejoin:round; stroke-width:2; stroke-opacity:0.1; fill:none" points="147.478,211.442 2352.76,211.442 "/>
<polyline clip-path="url(#clip050)" style="stroke:#000000; stroke-linecap:round; stroke-linejoin:round; stroke-width:4; stroke-opacity:1; fill:none" points="147.478,1486.45 2352.76,1486.45 "/>
<polyline clip-path="url(#clip050)" style="stroke:#000000; stroke-linecap:round; stroke-linejoin:round; stroke-width:4; stroke-opacity:1; fill:none" points="424.004,1486.45 424.004,1467.55 "/>
<polyline clip-path="url(#clip050)" style="stroke:#000000; stroke-linecap:round; stroke-linejoin:round; stroke-width:4; stroke-opacity:1; fill:none" points="988.761,1486.45 988.761,1467.55 "/>
<polyline clip-path="url(#clip050)" style="stroke:#000000; stroke-linecap:round; stroke-linejoin:round; stroke-width:4; stroke-opacity:1; fill:none" points="1553.52,1486.45 1553.52,1467.55 "/>
<polyline clip-path="url(#clip050)" style="stroke:#000000; stroke-linecap:round; stroke-linejoin:round; stroke-width:4; stroke-opacity:1; fill:none" points="2118.28,1486.45 2118.28,1467.55 "/>
<path clip-path="url(#clip050)" d="M393.761 1532.02 L423.437 1532.02 L423.437 1535.95 L393.761 1535.95 L393.761 1532.02 Z" fill="#000000" fill-rule="nonzero" fill-opacity="1" /><path clip-path="url(#clip050)" d="M434.339 1544.91 L441.978 1544.91 L441.978 1518.55 L433.668 1520.21 L433.668 1515.95 L441.932 1514.29 L446.608 1514.29 L446.608 1544.91 L454.247 1544.91 L454.247 1548.85 L434.339 1548.85 L434.339 1544.91 Z" fill="#000000" fill-rule="nonzero" fill-opacity="1" /><path clip-path="url(#clip050)" d="M988.761 1517.37 Q985.15 1517.37 983.322 1520.93 Q981.516 1524.47 981.516 1531.6 Q981.516 1538.71 983.322 1542.27 Q985.15 1545.82 988.761 1545.82 Q992.396 1545.82 994.201 1542.27 Q996.03 1538.71 996.03 1531.6 Q996.03 1524.47 994.201 1520.93 Q992.396 1517.37 988.761 1517.37 M988.761 1513.66 Q994.572 1513.66 997.627 1518.27 Q1000.71 1522.85 1000.71 1531.6 Q1000.71 1540.33 997.627 1544.94 Q994.572 1549.52 988.761 1549.52 Q982.951 1549.52 979.873 1544.94 Q976.817 1540.33 976.817 1531.6 Q976.817 1522.85 979.873 1518.27 Q982.951 1513.66 988.761 1513.66 Z" fill="#000000" fill-rule="nonzero" fill-opacity="1" /><path clip-path="url(#clip050)" d="M1543.9 1544.91 L1551.54 1544.91 L1551.54 1518.55 L1543.23 1520.21 L1543.23 1515.95 L1551.49 1514.29 L1556.17 1514.29 L1556.17 1544.91 L1563.81 1544.91 L1563.81 1548.85 L1543.9 1548.85 L1543.9 1544.91 Z" fill="#000000" fill-rule="nonzero" fill-opacity="1" /><path clip-path="url(#clip050)" d="M2112.93 1544.91 L2129.25 1544.91 L2129.25 1548.85 L2107.3 1548.85 L2107.3 1544.91 Q2109.97 1542.16 2114.55 1537.53 Q2119.16 1532.88 2120.34 1531.53 Q2122.58 1529.01 2123.46 1527.27 Q2124.36 1525.51 2124.36 1523.82 Q2124.36 1521.07 2122.42 1519.33 Q2120.5 1517.6 2117.4 1517.6 Q2115.2 1517.6 2112.74 1518.36 Q2110.31 1519.13 2107.54 1520.68 L2107.54 1515.95 Q2110.36 1514.82 2112.81 1514.24 Q2115.27 1513.66 2117.3 1513.66 Q2122.68 1513.66 2125.87 1516.35 Q2129.06 1519.03 2129.06 1523.52 Q2129.06 1525.65 2128.25 1527.57 Q2127.47 1529.47 2125.36 1532.07 Q2124.78 1532.74 2121.68 1535.95 Q2118.58 1539.15 2112.93 1544.91 Z" fill="#000000" fill-rule="nonzero" fill-opacity="1" /><polyline clip-path="url(#clip050)" style="stroke:#000000; stroke-linecap:round; stroke-linejoin:round; stroke-width:4; stroke-opacity:1; fill:none" points="147.478,1486.45 147.478,47.2441 "/>
<polyline clip-path="url(#clip050)" style="stroke:#000000; stroke-linecap:round; stroke-linejoin:round; stroke-width:4; stroke-opacity:1; fill:none" points="147.478,1275.66 166.376,1275.66 "/>
<polyline clip-path="url(#clip050)" style="stroke:#000000; stroke-linecap:round; stroke-linejoin:round; stroke-width:4; stroke-opacity:1; fill:none" points="147.478,1009.61 166.376,1009.61 "/>
<polyline clip-path="url(#clip050)" style="stroke:#000000; stroke-linecap:round; stroke-linejoin:round; stroke-width:4; stroke-opacity:1; fill:none" points="147.478,743.553 166.376,743.553 "/>
<polyline clip-path="url(#clip050)" style="stroke:#000000; stroke-linecap:round; stroke-linejoin:round; stroke-width:4; stroke-opacity:1; fill:none" points="147.478,477.498 166.376,477.498 "/>
<polyline clip-path="url(#clip050)" style="stroke:#000000; stroke-linecap:round; stroke-linejoin:round; stroke-width:4; stroke-opacity:1; fill:none" points="147.478,211.442 166.376,211.442 "/>
<path clip-path="url(#clip050)" d="M51.3625 1276.12 L81.0383 1276.12 L81.0383 1280.05 L51.3625 1280.05 L51.3625 1276.12 Z" fill="#000000" fill-rule="nonzero" fill-opacity="1" /><path clip-path="url(#clip050)" d="M95.1586 1289.01 L111.478 1289.01 L111.478 1292.94 L89.5336 1292.94 L89.5336 1289.01 Q92.1956 1286.26 96.7789 1281.63 Q101.385 1276.97 102.566 1275.63 Q104.811 1273.11 105.691 1271.37 Q106.594 1269.61 106.594 1267.92 Q106.594 1265.17 104.649 1263.43 Q102.728 1261.7 99.6261 1261.7 Q97.4271 1261.7 94.9734 1262.46 Q92.5428 1263.22 89.7651 1264.77 L89.7651 1260.05 Q92.5891 1258.92 95.0428 1258.34 Q97.4965 1257.76 99.5335 1257.76 Q104.904 1257.76 108.098 1260.45 Q111.293 1263.13 111.293 1267.62 Q111.293 1269.75 110.483 1271.67 Q109.696 1273.57 107.589 1276.16 Q107.01 1276.83 103.909 1280.05 Q100.807 1283.25 95.1586 1289.01 Z" fill="#000000" fill-rule="nonzero" fill-opacity="1" /><path clip-path="url(#clip050)" d="M50.9921 1010.06 L80.6679 1010.06 L80.6679 1014 L50.9921 1014 L50.9921 1010.06 Z" fill="#000000" fill-rule="nonzero" fill-opacity="1" /><path clip-path="url(#clip050)" d="M91.5706 1022.95 L99.2095 1022.95 L99.2095 996.588 L90.8993 998.255 L90.8993 993.996 L99.1632 992.329 L103.839 992.329 L103.839 1022.95 L111.478 1022.95 L111.478 1026.89 L91.5706 1026.89 L91.5706 1022.95 Z" fill="#000000" fill-rule="nonzero" fill-opacity="1" /><path clip-path="url(#clip050)" d="M99.5335 729.352 Q95.9224 729.352 94.0937 732.917 Q92.2882 736.458 92.2882 743.588 Q92.2882 750.695 94.0937 754.259 Q95.9224 757.801 99.5335 757.801 Q103.168 757.801 104.973 754.259 Q106.802 750.695 106.802 743.588 Q106.802 736.458 104.973 732.917 Q103.168 729.352 99.5335 729.352 M99.5335 725.648 Q105.344 725.648 108.399 730.255 Q111.478 734.838 111.478 743.588 Q111.478 752.315 108.399 756.921 Q105.344 761.505 99.5335 761.505 Q93.7234 761.505 90.6447 756.921 Q87.5892 752.315 87.5892 743.588 Q87.5892 734.838 90.6447 730.255 Q93.7234 725.648 99.5335 725.648 Z" fill="#000000" fill-rule="nonzero" fill-opacity="1" /><path clip-path="url(#clip050)" d="M91.5706 490.842 L99.2095 490.842 L99.2095 464.477 L90.8993 466.143 L90.8993 461.884 L99.1632 460.218 L103.839 460.218 L103.839 490.842 L111.478 490.842 L111.478 494.778 L91.5706 494.778 L91.5706 490.842 Z" fill="#000000" fill-rule="nonzero" fill-opacity="1" /><path clip-path="url(#clip050)" d="M95.1586 224.787 L111.478 224.787 L111.478 228.722 L89.5336 228.722 L89.5336 224.787 Q92.1956 222.032 96.7789 217.402 Q101.385 212.75 102.566 211.407 Q104.811 208.884 105.691 207.148 Q106.594 205.389 106.594 203.699 Q106.594 200.944 104.649 199.208 Q102.728 197.472 99.6261 197.472 Q97.4271 197.472 94.9734 198.236 Q92.5428 199 89.7651 200.551 L89.7651 195.828 Q92.5891 194.694 95.0428 194.115 Q97.4965 193.537 99.5335 193.537 Q104.904 193.537 108.098 196.222 Q111.293 198.907 111.293 203.398 Q111.293 205.527 110.483 207.449 Q109.696 209.347 107.589 211.939 Q107.01 212.611 103.909 215.828 Q100.807 219.023 95.1586 224.787 Z" fill="#000000" fill-rule="nonzero" fill-opacity="1" /><circle clip-path="url(#clip052)" cx="1861.25" cy="1235.33" r="14.4" fill="#009af9" fill-rule="evenodd" fill-opacity="0.5" stroke="#000000" stroke-opacity="0.5" stroke-width="3.2"/>
<circle clip-path="url(#clip052)" cx="2262.82" cy="972.921" r="14.4" fill="#009af9" fill-rule="evenodd" fill-opacity="0.5" stroke="#000000" stroke-opacity="0.5" stroke-width="3.2"/>
<circle clip-path="url(#clip052)" cx="955.017" cy="968.153" r="14.4" fill="#009af9" fill-rule="evenodd" fill-opacity="0.5" stroke="#000000" stroke-opacity="0.5" stroke-width="3.2"/>
<circle clip-path="url(#clip052)" cx="926.153" cy="334.877" r="14.4" fill="#009af9" fill-rule="evenodd" fill-opacity="0.5" stroke="#000000" stroke-opacity="0.5" stroke-width="3.2"/>
<circle clip-path="url(#clip052)" cx="291.194" cy="732.544" r="14.4" fill="#009af9" fill-rule="evenodd" fill-opacity="0.5" stroke="#000000" stroke-opacity="0.5" stroke-width="3.2"/>
<circle clip-path="url(#clip052)" cx="853.138" cy="649.11" r="14.4" fill="#009af9" fill-rule="evenodd" fill-opacity="0.5" stroke="#000000" stroke-opacity="0.5" stroke-width="3.2"/>
<circle clip-path="url(#clip052)" cx="676.92" cy="688.762" r="14.4" fill="#009af9" fill-rule="evenodd" fill-opacity="0.5" stroke="#000000" stroke-opacity="0.5" stroke-width="3.2"/>
<circle clip-path="url(#clip052)" cx="623.223" cy="680.853" r="14.4" fill="#009af9" fill-rule="evenodd" fill-opacity="0.5" stroke="#000000" stroke-opacity="0.5" stroke-width="3.2"/>
<circle clip-path="url(#clip052)" cx="966.49" cy="1115.91" r="14.4" fill="#009af9" fill-rule="evenodd" fill-opacity="0.5" stroke="#000000" stroke-opacity="0.5" stroke-width="3.2"/>
<circle clip-path="url(#clip052)" cx="1484.66" cy="877.473" r="14.4" fill="#009af9" fill-rule="evenodd" fill-opacity="0.5" stroke="#000000" stroke-opacity="0.5" stroke-width="3.2"/>
<circle clip-path="url(#clip052)" cx="1033.01" cy="618.492" r="14.4" fill="#009af9" fill-rule="evenodd" fill-opacity="0.5" stroke="#000000" stroke-opacity="0.5" stroke-width="3.2"/>
<circle clip-path="url(#clip052)" cx="767.898" cy="927.844" r="14.4" fill="#009af9" fill-rule="evenodd" fill-opacity="0.5" stroke="#000000" stroke-opacity="0.5" stroke-width="3.2"/>
<circle clip-path="url(#clip052)" cx="2232.81" cy="830.748" r="14.4" fill="#009af9" fill-rule="evenodd" fill-opacity="0.5" stroke="#000000" stroke-opacity="0.5" stroke-width="3.2"/>
<circle clip-path="url(#clip052)" cx="209.891" cy="1445.72" r="14.4" fill="#009af9" fill-rule="evenodd" fill-opacity="0.5" stroke="#000000" stroke-opacity="0.5" stroke-width="3.2"/>
<circle clip-path="url(#clip052)" cx="2021.28" cy="87.9763" r="14.4" fill="#009af9" fill-rule="evenodd" fill-opacity="0.5" stroke="#000000" stroke-opacity="0.5" stroke-width="3.2"/>
<circle clip-path="url(#clip052)" cx="1141.1" cy="1332.53" r="14.4" fill="#009af9" fill-rule="evenodd" fill-opacity="0.5" stroke="#000000" stroke-opacity="0.5" stroke-width="3.2"/>
<circle clip-path="url(#clip052)" cx="1412.52" cy="184.582" r="14.4" fill="#009af9" fill-rule="evenodd" fill-opacity="0.5" stroke="#000000" stroke-opacity="0.5" stroke-width="3.2"/>
<circle clip-path="url(#clip052)" cx="1288.23" cy="846.948" r="14.4" fill="#009af9" fill-rule="evenodd" fill-opacity="0.5" stroke="#000000" stroke-opacity="0.5" stroke-width="3.2"/>
<circle clip-path="url(#clip052)" cx="473.273" cy="664.96" r="14.4" fill="#009af9" fill-rule="evenodd" fill-opacity="0.5" stroke="#000000" stroke-opacity="0.5" stroke-width="3.2"/>
<circle clip-path="url(#clip052)" cx="474.159" cy="1043.95" r="14.4" fill="#009af9" fill-rule="evenodd" fill-opacity="0.5" stroke="#000000" stroke-opacity="0.5" stroke-width="3.2"/>
<circle clip-path="url(#clip052)" cx="444.573" cy="641.674" r="14.4" fill="#009af9" fill-rule="evenodd" fill-opacity="0.5" stroke="#000000" stroke-opacity="0.5" stroke-width="3.2"/>
<circle clip-path="url(#clip052)" cx="2290.34" cy="953.401" r="14.4" fill="#009af9" fill-rule="evenodd" fill-opacity="0.5" stroke="#000000" stroke-opacity="0.5" stroke-width="3.2"/>
<circle clip-path="url(#clip052)" cx="1184.83" cy="490.946" r="14.4" fill="#009af9" fill-rule="evenodd" fill-opacity="0.5" stroke="#000000" stroke-opacity="0.5" stroke-width="3.2"/>
<circle clip-path="url(#clip052)" cx="1402.4" cy="319.256" r="14.4" fill="#009af9" fill-rule="evenodd" fill-opacity="0.5" stroke="#000000" stroke-opacity="0.5" stroke-width="3.2"/>
<circle clip-path="url(#clip052)" cx="1430.69" cy="1023.56" r="14.4" fill="#009af9" fill-rule="evenodd" fill-opacity="0.5" stroke="#000000" stroke-opacity="0.5" stroke-width="3.2"/>
<circle clip-path="url(#clip052)" cx="1919.1" cy="838.341" r="14.4" fill="#009af9" fill-rule="evenodd" fill-opacity="0.5" stroke="#000000" stroke-opacity="0.5" stroke-width="3.2"/>
<circle clip-path="url(#clip052)" cx="210.563" cy="1111.96" r="14.4" fill="#009af9" fill-rule="evenodd" fill-opacity="0.5" stroke="#000000" stroke-opacity="0.5" stroke-width="3.2"/>
<circle clip-path="url(#clip052)" cx="1190.31" cy="669.765" r="14.4" fill="#009af9" fill-rule="evenodd" fill-opacity="0.5" stroke="#000000" stroke-opacity="0.5" stroke-width="3.2"/>
<circle clip-path="url(#clip052)" cx="1013.7" cy="1205.85" r="14.4" fill="#009af9" fill-rule="evenodd" fill-opacity="0.5" stroke="#000000" stroke-opacity="0.5" stroke-width="3.2"/>
<circle clip-path="url(#clip052)" cx="625.079" cy="526.084" r="14.4" fill="#009af9" fill-rule="evenodd" fill-opacity="0.5" stroke="#000000" stroke-opacity="0.5" stroke-width="3.2"/>
<path clip-path="url(#clip052)" d="M209.891 1445.72 L1141.1 1332.53 L1861.25 1235.33 L2262.82 972.921 L2290.34 953.401 L2021.28 87.9763 L1412.52 184.582 L926.153 334.877 L291.194 732.544 L210.563 1111.96 L209.891 1445.72 L209.891 1445.72  Z" fill="#e26f46" fill-rule="evenodd" fill-opacity="0.2"/>
<polyline clip-path="url(#clip052)" style="stroke:#000000; stroke-linecap:round; stroke-linejoin:round; stroke-width:4; stroke-opacity:0.2; fill:none" points="209.891,1445.72 1141.1,1332.53 1861.25,1235.33 2262.82,972.921 2290.34,953.401 2021.28,87.9763 1412.52,184.582 926.153,334.877 291.194,732.544 210.563,1111.96 209.891,1445.72 "/>
</svg>
