<?xml version="1.0" encoding="utf-8"?>
<svg xmlns="http://www.w3.org/2000/svg" xmlns:xlink="http://www.w3.org/1999/xlink" width="600" height="400" viewBox="0 0 2400 1600">
<defs>
  <clipPath id="clip410">
    <rect x="0" y="0" width="2400" height="1600"/>
  </clipPath>
</defs>
<path clip-path="url(#clip410)" d="M0 1600 L2400 1600 L2400 0 L0 0  Z" fill="#ffffff" fill-rule="evenodd" fill-opacity="1"/>
<defs>
  <clipPath id="clip411">
    <rect x="480" y="0" width="1681" height="1600"/>
  </clipPath>
</defs>
<path clip-path="url(#clip410)" d="M147.478 1486.45 L2352.76 1486.45 L2352.76 47.2441 L147.478 47.2441  Z" fill="#ffffff" fill-rule="evenodd" fill-opacity="1"/>
<defs>
  <clipPath id="clip412">
    <rect x="147" y="47" width="2206" height="1440"/>
  </clipPath>
</defs>
<polyline clip-path="url(#clip412)" style="stroke:#000000; stroke-linecap:round; stroke-linejoin:round; stroke-width:2; stroke-opacity:0.1; fill:none" points="415.077,1486.45 415.077,47.2441 "/>
<polyline clip-path="url(#clip412)" style="stroke:#000000; stroke-linecap:round; stroke-linejoin:round; stroke-width:2; stroke-opacity:0.1; fill:none" points="920.49,1486.45 920.49,47.2441 "/>
<polyline clip-path="url(#clip412)" style="stroke:#000000; stroke-linecap:round; stroke-linejoin:round; stroke-width:2; stroke-opacity:0.1; fill:none" points="1425.9,1486.45 1425.9,47.2441 "/>
<polyline clip-path="url(#clip412)" style="stroke:#000000; stroke-linecap:round; stroke-linejoin:round; stroke-width:2; stroke-opacity:0.1; fill:none" points="1931.32,1486.45 1931.32,47.2441 "/>
<polyline clip-path="url(#clip412)" style="stroke:#000000; stroke-linecap:round; stroke-linejoin:round; stroke-width:2; stroke-opacity:0.1; fill:none" points="147.478,1215.37 2352.76,1215.37 "/>
<polyline clip-path="url(#clip412)" style="stroke:#000000; stroke-linecap:round; stroke-linejoin:round; stroke-width:2; stroke-opacity:0.1; fill:none" points="147.478,879.698 2352.76,879.698 "/>
<polyline clip-path="url(#clip412)" style="stroke:#000000; stroke-linecap:round; stroke-linejoin:round; stroke-width:2; stroke-opacity:0.1; fill:none" points="147.478,544.031 2352.76,544.031 "/>
<polyline clip-path="url(#clip412)" style="stroke:#000000; stroke-linecap:round; stroke-linejoin:round; stroke-width:2; stroke-opacity:0.1; fill:none" points="147.478,208.364 2352.76,208.364 "/>
<polyline clip-path="url(#clip410)" style="stroke:#000000; stroke-linecap:round; stroke-linejoin:round; stroke-width:4; stroke-opacity:1; fill:none" points="147.478,1486.45 2352.76,1486.45 "/>
<polyline clip-path="url(#clip410)" style="stroke:#000000; stroke-linecap:round; stroke-linejoin:round; stroke-width:4; stroke-opacity:1; fill:none" points="415.077,1486.45 415.077,1467.55 "/>
<polyline clip-path="url(#clip410)" style="stroke:#000000; stroke-linecap:round; stroke-linejoin:round; stroke-width:4; stroke-opacity:1; fill:none" points="920.49,1486.45 920.49,1467.55 "/>
<polyline clip-path="url(#clip410)" style="stroke:#000000; stroke-linecap:round; stroke-linejoin:round; stroke-width:4; stroke-opacity:1; fill:none" points="1425.9,1486.45 1425.9,1467.55 "/>
<polyline clip-path="url(#clip410)" style="stroke:#000000; stroke-linecap:round; stroke-linejoin:round; stroke-width:4; stroke-opacity:1; fill:none" points="1931.32,1486.45 1931.32,1467.55 "/>
<path clip-path="url(#clip410)" d="M384.834 1532.02 L414.51 1532.02 L414.51 1535.95 L384.834 1535.95 L384.834 1532.02 Z" fill="#000000" fill-rule="nonzero" fill-opacity="1" /><path clip-path="url(#clip410)" d="M425.413 1544.91 L433.052 1544.91 L433.052 1518.55 L424.741 1520.21 L424.741 1515.95 L433.005 1514.29 L437.681 1514.29 L437.681 1544.91 L445.32 1544.91 L445.32 1548.85 L425.413 1548.85 L425.413 1544.91 Z" fill="#000000" fill-rule="nonzero" fill-opacity="1" /><path clip-path="url(#clip410)" d="M920.49 1517.37 Q916.879 1517.37 915.05 1520.93 Q913.245 1524.47 913.245 1531.6 Q913.245 1538.71 915.05 1542.27 Q916.879 1545.82 920.49 1545.82 Q924.124 1545.82 925.93 1542.27 Q927.758 1538.71 927.758 1531.6 Q927.758 1524.47 925.93 1520.93 Q924.124 1517.37 920.49 1517.37 M920.49 1513.66 Q926.3 1513.66 929.356 1518.27 Q932.434 1522.85 932.434 1531.6 Q932.434 1540.33 929.356 1544.94 Q926.3 1549.52 920.49 1549.52 Q914.68 1549.52 911.601 1544.94 Q908.546 1540.33 908.546 1531.6 Q908.546 1522.85 911.601 1518.27 Q914.68 1513.66 920.49 1513.66 Z" fill="#000000" fill-rule="nonzero" fill-opacity="1" /><path clip-path="url(#clip410)" d="M1416.28 1544.91 L1423.92 1544.91 L1423.92 1518.55 L1415.61 1520.21 L1415.61 1515.95 L1423.88 1514.29 L1428.55 1514.29 L1428.55 1544.91 L1436.19 1544.91 L1436.19 1548.85 L1416.28 1548.85 L1416.28 1544.91 Z" fill="#000000" fill-rule="nonzero" fill-opacity="1" /><path clip-path="url(#clip410)" d="M1925.97 1544.91 L1942.29 1544.91 L1942.29 1548.85 L1920.34 1548.85 L1920.34 1544.91 Q1923.01 1542.16 1927.59 1537.53 Q1932.19 1532.88 1933.38 1531.53 Q1935.62 1529.01 1936.5 1527.27 Q1937.4 1525.51 1937.4 1523.82 Q1937.4 1521.07 1935.46 1519.33 Q1933.54 1517.6 1930.44 1517.6 Q1928.24 1517.6 1925.78 1518.36 Q1923.35 1519.13 1920.57 1520.68 L1920.57 1515.95 Q1923.4 1514.82 1925.85 1514.24 Q1928.31 1513.66 1930.34 1513.66 Q1935.71 1513.66 1938.91 1516.35 Q1942.1 1519.03 1942.1 1523.52 Q1942.1 1525.65 1941.29 1527.57 Q1940.51 1529.47 1938.4 1532.07 Q1937.82 1532.74 1934.72 1535.95 Q1931.62 1539.15 1925.97 1544.91 Z" fill="#000000" fill-rule="nonzero" fill-opacity="1" /><polyline clip-path="url(#clip410)" style="stroke:#000000; stroke-linecap:round; stroke-linejoin:round; stroke-width:4; stroke-opacity:1; fill:none" points="147.478,1486.45 147.478,47.2441 "/>
<polyline clip-path="url(#clip410)" style="stroke:#000000; stroke-linecap:round; stroke-linejoin:round; stroke-width:4; stroke-opacity:1; fill:none" points="147.478,1215.37 166.376,1215.37 "/>
<polyline clip-path="url(#clip410)" style="stroke:#000000; stroke-linecap:round; stroke-linejoin:round; stroke-width:4; stroke-opacity:1; fill:none" points="147.478,879.698 166.376,879.698 "/>
<polyline clip-path="url(#clip410)" style="stroke:#000000; stroke-linecap:round; stroke-linejoin:round; stroke-width:4; stroke-opacity:1; fill:none" points="147.478,544.031 166.376,544.031 "/>
<polyline clip-path="url(#clip410)" style="stroke:#000000; stroke-linecap:round; stroke-linejoin:round; stroke-width:4; stroke-opacity:1; fill:none" points="147.478,208.364 166.376,208.364 "/>
<path clip-path="url(#clip410)" d="M50.9921 1215.82 L80.6679 1215.82 L80.6679 1219.75 L50.9921 1219.75 L50.9921 1215.82 Z" fill="#000000" fill-rule="nonzero" fill-opacity="1" /><path clip-path="url(#clip410)" d="M91.5706 1228.71 L99.2095 1228.71 L99.2095 1202.34 L90.8993 1204.01 L90.8993 1199.75 L99.1632 1198.09 L103.839 1198.09 L103.839 1228.71 L111.478 1228.71 L111.478 1232.65 L91.5706 1232.65 L91.5706 1228.71 Z" fill="#000000" fill-rule="nonzero" fill-opacity="1" /><path clip-path="url(#clip410)" d="M99.5335 865.497 Q95.9224 865.497 94.0937 869.062 Q92.2882 872.603 92.2882 879.733 Q92.2882 886.839 94.0937 890.404 Q95.9224 893.946 99.5335 893.946 Q103.168 893.946 104.973 890.404 Q106.802 886.839 106.802 879.733 Q106.802 872.603 104.973 869.062 Q103.168 865.497 99.5335 865.497 M99.5335 861.793 Q105.344 861.793 108.399 866.4 Q111.478 870.983 111.478 879.733 Q111.478 888.46 108.399 893.066 Q105.344 897.649 99.5335 897.649 Q93.7234 897.649 90.6447 893.066 Q87.5892 888.46 87.5892 879.733 Q87.5892 870.983 90.6447 866.4 Q93.7234 861.793 99.5335 861.793 Z" fill="#000000" fill-rule="nonzero" fill-opacity="1" /><path clip-path="url(#clip410)" d="M91.5706 557.376 L99.2095 557.376 L99.2095 531.01 L90.8993 532.677 L90.8993 528.418 L99.1632 526.751 L103.839 526.751 L103.839 557.376 L111.478 557.376 L111.478 561.311 L91.5706 561.311 L91.5706 557.376 Z" fill="#000000" fill-rule="nonzero" fill-opacity="1" /><path clip-path="url(#clip410)" d="M95.1586 221.709 L111.478 221.709 L111.478 225.644 L89.5336 225.644 L89.5336 221.709 Q92.1956 218.954 96.7789 214.325 Q101.385 209.672 102.566 208.329 Q104.811 205.806 105.691 204.07 Q106.594 202.311 106.594 200.621 Q106.594 197.866 104.649 196.13 Q102.728 194.394 99.6261 194.394 Q97.4271 194.394 94.9734 195.158 Q92.5428 195.922 89.7651 197.473 L89.7651 192.751 Q92.5891 191.616 95.0428 191.038 Q97.4965 190.459 99.5335 190.459 Q104.904 190.459 108.098 193.144 Q111.293 195.829 111.293 200.32 Q111.293 202.45 110.483 204.371 Q109.696 206.269 107.589 208.862 Q107.01 209.533 103.909 212.751 Q100.807 215.945 95.1586 221.709 Z" fill="#000000" fill-rule="nonzero" fill-opacity="1" /><circle clip-path="url(#clip412)" cx="976.71" cy="626.829" r="14.4" fill="#009af9" fill-rule="evenodd" fill-opacity="0.5" stroke="#000000" stroke-opacity="0.5" stroke-width="3.2"/>
<circle clip-path="url(#clip412)" cx="279.249" cy="984.652" r="14.4" fill="#009af9" fill-rule="evenodd" fill-opacity="0.5" stroke="#000000" stroke-opacity="0.5" stroke-width="3.2"/>
<circle clip-path="url(#clip412)" cx="1477.12" cy="1020.49" r="14.4" fill="#009af9" fill-rule="evenodd" fill-opacity="0.5" stroke="#000000" stroke-opacity="0.5" stroke-width="3.2"/>
<circle clip-path="url(#clip412)" cx="1040.6" cy="800.231" r="14.4" fill="#009af9" fill-rule="evenodd" fill-opacity="0.5" stroke="#000000" stroke-opacity="0.5" stroke-width="3.2"/>
<circle clip-path="url(#clip412)" cx="409.156" cy="1090.13" r="14.4" fill="#009af9" fill-rule="evenodd" fill-opacity="0.5" stroke="#000000" stroke-opacity="0.5" stroke-width="3.2"/>
<circle clip-path="url(#clip412)" cx="209.891" cy="1293.76" r="14.4" fill="#009af9" fill-rule="evenodd" fill-opacity="0.5" stroke="#000000" stroke-opacity="0.5" stroke-width="3.2"/>
<circle clip-path="url(#clip412)" cx="903.952" cy="1054.94" r="14.4" fill="#009af9" fill-rule="evenodd" fill-opacity="0.5" stroke="#000000" stroke-opacity="0.5" stroke-width="3.2"/>
<circle clip-path="url(#clip412)" cx="1855.31" cy="746.761" r="14.4" fill="#009af9" fill-rule="evenodd" fill-opacity="0.5" stroke="#000000" stroke-opacity="0.5" stroke-width="3.2"/>
<circle clip-path="url(#clip412)" cx="1032.09" cy="477.272" r="14.4" fill="#009af9" fill-rule="evenodd" fill-opacity="0.5" stroke="#000000" stroke-opacity="0.5" stroke-width="3.2"/>
<circle clip-path="url(#clip412)" cx="400.802" cy="1399.96" r="14.4" fill="#009af9" fill-rule="evenodd" fill-opacity="0.5" stroke="#000000" stroke-opacity="0.5" stroke-width="3.2"/>
<circle clip-path="url(#clip412)" cx="375.938" cy="829.142" r="14.4" fill="#009af9" fill-rule="evenodd" fill-opacity="0.5" stroke="#000000" stroke-opacity="0.5" stroke-width="3.2"/>
<circle clip-path="url(#clip412)" cx="535.309" cy="807.255" r="14.4" fill="#009af9" fill-rule="evenodd" fill-opacity="0.5" stroke="#000000" stroke-opacity="0.5" stroke-width="3.2"/>
<circle clip-path="url(#clip412)" cx="1021.4" cy="1322.63" r="14.4" fill="#009af9" fill-rule="evenodd" fill-opacity="0.5" stroke="#000000" stroke-opacity="0.5" stroke-width="3.2"/>
<circle clip-path="url(#clip412)" cx="972.71" cy="864.621" r="14.4" fill="#009af9" fill-rule="evenodd" fill-opacity="0.5" stroke="#000000" stroke-opacity="0.5" stroke-width="3.2"/>
<circle clip-path="url(#clip412)" cx="2290.34" cy="683.509" r="14.4" fill="#009af9" fill-rule="evenodd" fill-opacity="0.5" stroke="#000000" stroke-opacity="0.5" stroke-width="3.2"/>
<circle clip-path="url(#clip412)" cx="1436.34" cy="549.421" r="14.4" fill="#009af9" fill-rule="evenodd" fill-opacity="0.5" stroke="#000000" stroke-opacity="0.5" stroke-width="3.2"/>
<circle clip-path="url(#clip412)" cx="1418.79" cy="1162.68" r="14.4" fill="#009af9" fill-rule="evenodd" fill-opacity="0.5" stroke="#000000" stroke-opacity="0.5" stroke-width="3.2"/>
<circle clip-path="url(#clip412)" cx="303.891" cy="115.903" r="14.4" fill="#009af9" fill-rule="evenodd" fill-opacity="0.5" stroke="#000000" stroke-opacity="0.5" stroke-width="3.2"/>
<circle clip-path="url(#clip412)" cx="1722.84" cy="487.888" r="14.4" fill="#009af9" fill-rule="evenodd" fill-opacity="0.5" stroke="#000000" stroke-opacity="0.5" stroke-width="3.2"/>
<circle clip-path="url(#clip412)" cx="1103.66" cy="1320.02" r="14.4" fill="#009af9" fill-rule="evenodd" fill-opacity="0.5" stroke="#000000" stroke-opacity="0.5" stroke-width="3.2"/>
<circle clip-path="url(#clip412)" cx="2026.76" cy="1160.79" r="14.4" fill="#009af9" fill-rule="evenodd" fill-opacity="0.5" stroke="#000000" stroke-opacity="0.5" stroke-width="3.2"/>
<circle clip-path="url(#clip412)" cx="834.103" cy="1002.75" r="14.4" fill="#009af9" fill-rule="evenodd" fill-opacity="0.5" stroke="#000000" stroke-opacity="0.5" stroke-width="3.2"/>
<circle clip-path="url(#clip412)" cx="639.797" cy="1445.72" r="14.4" fill="#009af9" fill-rule="evenodd" fill-opacity="0.5" stroke="#000000" stroke-opacity="0.5" stroke-width="3.2"/>
<circle clip-path="url(#clip412)" cx="654.623" cy="1298.72" r="14.4" fill="#009af9" fill-rule="evenodd" fill-opacity="0.5" stroke="#000000" stroke-opacity="0.5" stroke-width="3.2"/>
<circle clip-path="url(#clip412)" cx="1096.85" cy="87.9763" r="14.4" fill="#009af9" fill-rule="evenodd" fill-opacity="0.5" stroke="#000000" stroke-opacity="0.5" stroke-width="3.2"/>
<circle clip-path="url(#clip412)" cx="2080.32" cy="1382.2" r="14.4" fill="#009af9" fill-rule="evenodd" fill-opacity="0.5" stroke="#000000" stroke-opacity="0.5" stroke-width="3.2"/>
<circle clip-path="url(#clip412)" cx="720.322" cy="1053.2" r="14.4" fill="#009af9" fill-rule="evenodd" fill-opacity="0.5" stroke="#000000" stroke-opacity="0.5" stroke-width="3.2"/>
<circle clip-path="url(#clip412)" cx="282.105" cy="502.799" r="14.4" fill="#009af9" fill-rule="evenodd" fill-opacity="0.5" stroke="#000000" stroke-opacity="0.5" stroke-width="3.2"/>
<circle clip-path="url(#clip412)" cx="1060.41" cy="839.459" r="14.4" fill="#009af9" fill-rule="evenodd" fill-opacity="0.5" stroke="#000000" stroke-opacity="0.5" stroke-width="3.2"/>
<circle clip-path="url(#clip412)" cx="886.846" cy="931.187" r="14.4" fill="#009af9" fill-rule="evenodd" fill-opacity="0.5" stroke="#000000" stroke-opacity="0.5" stroke-width="3.2"/>
<path clip-path="url(#clip412)" d="M209.891 1293.76 L400.802 1399.96 L639.797 1445.72 L2080.32 1382.2 L2290.34 683.509 L1096.85 87.9763 L303.891 115.903 L209.891 1293.76 L209.891 1293.76  Z" fill="#e26f46" fill-rule="evenodd" fill-opacity="0.2"/>
<polyline clip-path="url(#clip412)" style="stroke:#000000; stroke-linecap:round; stroke-linejoin:round; stroke-width:4; stroke-opacity:0.2; fill:none" points="209.891,1293.76 400.802,1399.96 639.797,1445.72 2080.32,1382.2 2290.34,683.509 1096.85,87.9763 303.891,115.903 209.891,1293.76 "/>
</svg>
