<?xml version="1.0" encoding="utf-8"?>
<svg xmlns="http://www.w3.org/2000/svg" xmlns:xlink="http://www.w3.org/1999/xlink" width="600" height="400" viewBox="0 0 2400 1600">
<defs>
  <clipPath id="clip610">
    <rect x="0" y="0" width="2400" height="1600"/>
  </clipPath>
</defs>
<path clip-path="url(#clip610)" d="M0 1600 L2400 1600 L2400 0 L0 0  Z" fill="#ffffff" fill-rule="evenodd" fill-opacity="1"/>
<defs>
  <clipPath id="clip611">
    <rect x="480" y="0" width="1681" height="1600"/>
  </clipPath>
</defs>
<path clip-path="url(#clip610)" d="M223.103 1486.45 L2352.76 1486.45 L2352.76 47.2441 L223.103 47.2441  Z" fill="#ffffff" fill-rule="evenodd" fill-opacity="1"/>
<defs>
  <clipPath id="clip612">
    <rect x="223" y="47" width="2131" height="1440"/>
  </clipPath>
</defs>
<polyline clip-path="url(#clip612)" style="stroke:#000000; stroke-linecap:round; stroke-linejoin:round; stroke-width:2; stroke-opacity:0.1; fill:none" points="368.372,1486.45 368.372,47.2441 "/>
<polyline clip-path="url(#clip612)" style="stroke:#000000; stroke-linecap:round; stroke-linejoin:round; stroke-width:2; stroke-opacity:0.1; fill:none" points="965.232,1486.45 965.232,47.2441 "/>
<polyline clip-path="url(#clip612)" style="stroke:#000000; stroke-linecap:round; stroke-linejoin:round; stroke-width:2; stroke-opacity:0.1; fill:none" points="1562.09,1486.45 1562.09,47.2441 "/>
<polyline clip-path="url(#clip612)" style="stroke:#000000; stroke-linecap:round; stroke-linejoin:round; stroke-width:2; stroke-opacity:0.1; fill:none" points="2158.95,1486.45 2158.95,47.2441 "/>
<polyline clip-path="url(#clip612)" style="stroke:#000000; stroke-linecap:round; stroke-linejoin:round; stroke-width:2; stroke-opacity:0.1; fill:none" points="223.103,1270.66 2352.76,1270.66 "/>
<polyline clip-path="url(#clip612)" style="stroke:#000000; stroke-linecap:round; stroke-linejoin:round; stroke-width:2; stroke-opacity:0.1; fill:none" points="223.103,992.642 2352.76,992.642 "/>
<polyline clip-path="url(#clip612)" style="stroke:#000000; stroke-linecap:round; stroke-linejoin:round; stroke-width:2; stroke-opacity:0.1; fill:none" points="223.103,714.623 2352.76,714.623 "/>
<polyline clip-path="url(#clip612)" style="stroke:#000000; stroke-linecap:round; stroke-linejoin:round; stroke-width:2; stroke-opacity:0.1; fill:none" points="223.103,436.603 2352.76,436.603 "/>
<polyline clip-path="url(#clip612)" style="stroke:#000000; stroke-linecap:round; stroke-linejoin:round; stroke-width:2; stroke-opacity:0.1; fill:none" points="223.103,158.583 2352.76,158.583 "/>
<polyline clip-path="url(#clip610)" style="stroke:#000000; stroke-linecap:round; stroke-linejoin:round; stroke-width:4; stroke-opacity:1; fill:none" points="223.103,1486.45 2352.76,1486.45 "/>
<polyline clip-path="url(#clip610)" style="stroke:#000000; stroke-linecap:round; stroke-linejoin:round; stroke-width:4; stroke-opacity:1; fill:none" points="368.372,1486.45 368.372,1467.55 "/>
<polyline clip-path="url(#clip610)" style="stroke:#000000; stroke-linecap:round; stroke-linejoin:round; stroke-width:4; stroke-opacity:1; fill:none" points="965.232,1486.45 965.232,1467.55 "/>
<polyline clip-path="url(#clip610)" style="stroke:#000000; stroke-linecap:round; stroke-linejoin:round; stroke-width:4; stroke-opacity:1; fill:none" points="1562.09,1486.45 1562.09,1467.55 "/>
<polyline clip-path="url(#clip610)" style="stroke:#000000; stroke-linecap:round; stroke-linejoin:round; stroke-width:4; stroke-opacity:1; fill:none" points="2158.95,1486.45 2158.95,1467.55 "/>
<path clip-path="url(#clip610)" d="M315.398 1532.02 L345.074 1532.02 L345.074 1535.95 L315.398 1535.95 L315.398 1532.02 Z" fill="#000000" fill-rule="nonzero" fill-opacity="1" /><path clip-path="url(#clip610)" d="M365.166 1517.37 Q361.555 1517.37 359.726 1520.93 Q357.921 1524.47 357.921 1531.6 Q357.921 1538.71 359.726 1542.27 Q361.555 1545.82 365.166 1545.82 Q368.8 1545.82 370.606 1542.27 Q372.435 1538.71 372.435 1531.6 Q372.435 1524.47 370.606 1520.93 Q368.8 1517.37 365.166 1517.37 M365.166 1513.66 Q370.976 1513.66 374.032 1518.27 Q377.111 1522.85 377.111 1531.6 Q377.111 1540.33 374.032 1544.94 Q370.976 1549.52 365.166 1549.52 Q359.356 1549.52 356.277 1544.94 Q353.222 1540.33 353.222 1531.6 Q353.222 1522.85 356.277 1518.27 Q359.356 1513.66 365.166 1513.66 Z" fill="#000000" fill-rule="nonzero" fill-opacity="1" /><path clip-path="url(#clip610)" d="M385.328 1542.97 L390.212 1542.97 L390.212 1548.85 L385.328 1548.85 L385.328 1542.97 Z" fill="#000000" fill-rule="nonzero" fill-opacity="1" /><path clip-path="url(#clip610)" d="M400.444 1514.29 L418.8 1514.29 L418.8 1518.22 L404.726 1518.22 L404.726 1526.7 Q405.745 1526.35 406.763 1526.19 Q407.782 1526 408.8 1526 Q414.587 1526 417.967 1529.17 Q421.347 1532.34 421.347 1537.76 Q421.347 1543.34 417.874 1546.44 Q414.402 1549.52 408.083 1549.52 Q405.907 1549.52 403.638 1549.15 Q401.393 1548.78 398.986 1548.04 L398.986 1543.34 Q401.069 1544.47 403.291 1545.03 Q405.513 1545.58 407.99 1545.58 Q411.995 1545.58 414.333 1543.48 Q416.671 1541.37 416.671 1537.76 Q416.671 1534.15 414.333 1532.04 Q411.995 1529.94 407.99 1529.94 Q406.115 1529.94 404.24 1530.35 Q402.388 1530.77 400.444 1531.65 L400.444 1514.29 Z" fill="#000000" fill-rule="nonzero" fill-opacity="1" /><path clip-path="url(#clip610)" d="M942.616 1517.37 Q939.005 1517.37 937.176 1520.93 Q935.371 1524.47 935.371 1531.6 Q935.371 1538.71 937.176 1542.27 Q939.005 1545.82 942.616 1545.82 Q946.25 1545.82 948.056 1542.27 Q949.884 1538.71 949.884 1531.6 Q949.884 1524.47 948.056 1520.93 Q946.25 1517.37 942.616 1517.37 M942.616 1513.66 Q948.426 1513.66 951.482 1518.27 Q954.56 1522.85 954.56 1531.6 Q954.56 1540.33 951.482 1544.94 Q948.426 1549.52 942.616 1549.52 Q936.806 1549.52 933.727 1544.94 Q930.672 1540.33 930.672 1531.6 Q930.672 1522.85 933.727 1518.27 Q936.806 1513.66 942.616 1513.66 Z" fill="#000000" fill-rule="nonzero" fill-opacity="1" /><path clip-path="url(#clip610)" d="M962.778 1542.97 L967.662 1542.97 L967.662 1548.85 L962.778 1548.85 L962.778 1542.97 Z" fill="#000000" fill-rule="nonzero" fill-opacity="1" /><path clip-path="url(#clip610)" d="M987.847 1517.37 Q984.236 1517.37 982.407 1520.93 Q980.602 1524.47 980.602 1531.6 Q980.602 1538.71 982.407 1542.27 Q984.236 1545.82 987.847 1545.82 Q991.481 1545.82 993.287 1542.27 Q995.116 1538.71 995.116 1531.6 Q995.116 1524.47 993.287 1520.93 Q991.481 1517.37 987.847 1517.37 M987.847 1513.66 Q993.657 1513.66 996.713 1518.27 Q999.792 1522.85 999.792 1531.6 Q999.792 1540.33 996.713 1544.94 Q993.657 1549.52 987.847 1549.52 Q982.037 1549.52 978.958 1544.94 Q975.903 1540.33 975.903 1531.6 Q975.903 1522.85 978.958 1518.27 Q982.037 1513.66 987.847 1513.66 Z" fill="#000000" fill-rule="nonzero" fill-opacity="1" /><path clip-path="url(#clip610)" d="M1539.97 1517.37 Q1536.36 1517.37 1534.53 1520.93 Q1532.73 1524.47 1532.73 1531.6 Q1532.73 1538.71 1534.53 1542.27 Q1536.36 1545.82 1539.97 1545.82 Q1543.61 1545.82 1545.41 1542.27 Q1547.24 1538.71 1547.24 1531.6 Q1547.24 1524.47 1545.41 1520.93 Q1543.61 1517.37 1539.97 1517.37 M1539.97 1513.66 Q1545.78 1513.66 1548.84 1518.27 Q1551.92 1522.85 1551.92 1531.6 Q1551.92 1540.33 1548.84 1544.94 Q1545.78 1549.52 1539.97 1549.52 Q1534.16 1549.52 1531.08 1544.94 Q1528.03 1540.33 1528.03 1531.6 Q1528.03 1522.85 1531.08 1518.27 Q1534.16 1513.66 1539.97 1513.66 Z" fill="#000000" fill-rule="nonzero" fill-opacity="1" /><path clip-path="url(#clip610)" d="M1560.13 1542.97 L1565.02 1542.97 L1565.02 1548.85 L1560.13 1548.85 L1560.13 1542.97 Z" fill="#000000" fill-rule="nonzero" fill-opacity="1" /><path clip-path="url(#clip610)" d="M1575.25 1514.29 L1593.61 1514.29 L1593.61 1518.22 L1579.53 1518.22 L1579.53 1526.7 Q1580.55 1526.35 1581.57 1526.19 Q1582.59 1526 1583.61 1526 Q1589.39 1526 1592.77 1529.17 Q1596.15 1532.34 1596.15 1537.76 Q1596.15 1543.34 1592.68 1546.44 Q1589.21 1549.52 1582.89 1549.52 Q1580.71 1549.52 1578.45 1549.15 Q1576.2 1548.78 1573.79 1548.04 L1573.79 1543.34 Q1575.88 1544.47 1578.1 1545.03 Q1580.32 1545.58 1582.8 1545.58 Q1586.8 1545.58 1589.14 1543.48 Q1591.48 1541.37 1591.48 1537.76 Q1591.48 1534.15 1589.14 1532.04 Q1586.8 1529.94 1582.8 1529.94 Q1580.92 1529.94 1579.05 1530.35 Q1577.2 1530.77 1575.25 1531.65 L1575.25 1514.29 Z" fill="#000000" fill-rule="nonzero" fill-opacity="1" /><path clip-path="url(#clip610)" d="M2126.1 1544.91 L2133.74 1544.91 L2133.74 1518.55 L2125.43 1520.21 L2125.43 1515.95 L2133.7 1514.29 L2138.37 1514.29 L2138.37 1544.91 L2146.01 1544.91 L2146.01 1548.85 L2126.1 1548.85 L2126.1 1544.91 Z" fill="#000000" fill-rule="nonzero" fill-opacity="1" /><path clip-path="url(#clip610)" d="M2155.45 1542.97 L2160.34 1542.97 L2160.34 1548.85 L2155.45 1548.85 L2155.45 1542.97 Z" fill="#000000" fill-rule="nonzero" fill-opacity="1" /><path clip-path="url(#clip610)" d="M2180.52 1517.37 Q2176.91 1517.37 2175.08 1520.93 Q2173.28 1524.47 2173.28 1531.6 Q2173.28 1538.71 2175.08 1542.27 Q2176.91 1545.82 2180.52 1545.82 Q2184.16 1545.82 2185.96 1542.27 Q2187.79 1538.71 2187.79 1531.6 Q2187.79 1524.47 2185.96 1520.93 Q2184.16 1517.37 2180.52 1517.37 M2180.52 1513.66 Q2186.33 1513.66 2189.39 1518.27 Q2192.47 1522.85 2192.47 1531.6 Q2192.47 1540.33 2189.39 1544.94 Q2186.33 1549.52 2180.52 1549.52 Q2174.71 1549.52 2171.64 1544.94 Q2168.58 1540.33 2168.58 1531.6 Q2168.58 1522.85 2171.64 1518.27 Q2174.71 1513.66 2180.52 1513.66 Z" fill="#000000" fill-rule="nonzero" fill-opacity="1" /><polyline clip-path="url(#clip610)" style="stroke:#000000; stroke-linecap:round; stroke-linejoin:round; stroke-width:4; stroke-opacity:1; fill:none" points="223.103,1486.45 223.103,47.2441 "/>
<polyline clip-path="url(#clip610)" style="stroke:#000000; stroke-linecap:round; stroke-linejoin:round; stroke-width:4; stroke-opacity:1; fill:none" points="223.103,1270.66 242,1270.66 "/>
<polyline clip-path="url(#clip610)" style="stroke:#000000; stroke-linecap:round; stroke-linejoin:round; stroke-width:4; stroke-opacity:1; fill:none" points="223.103,992.642 242,992.642 "/>
<polyline clip-path="url(#clip610)" style="stroke:#000000; stroke-linecap:round; stroke-linejoin:round; stroke-width:4; stroke-opacity:1; fill:none" points="223.103,714.623 242,714.623 "/>
<polyline clip-path="url(#clip610)" style="stroke:#000000; stroke-linecap:round; stroke-linejoin:round; stroke-width:4; stroke-opacity:1; fill:none" points="223.103,436.603 242,436.603 "/>
<polyline clip-path="url(#clip610)" style="stroke:#000000; stroke-linecap:round; stroke-linejoin:round; stroke-width:4; stroke-opacity:1; fill:none" points="223.103,158.583 242,158.583 "/>
<path clip-path="url(#clip610)" d="M50.9921 1271.11 L80.6679 1271.11 L80.6679 1275.05 L50.9921 1275.05 L50.9921 1271.11 Z" fill="#000000" fill-rule="nonzero" fill-opacity="1" /><path clip-path="url(#clip610)" d="M100.76 1256.46 Q97.1493 1256.46 95.3206 1260.03 Q93.515 1263.57 93.515 1270.7 Q93.515 1277.8 95.3206 1281.37 Q97.1493 1284.91 100.76 1284.91 Q104.395 1284.91 106.2 1281.37 Q108.029 1277.8 108.029 1270.7 Q108.029 1263.57 106.2 1260.03 Q104.395 1256.46 100.76 1256.46 M100.76 1252.76 Q106.571 1252.76 109.626 1257.36 Q112.705 1261.95 112.705 1270.7 Q112.705 1279.42 109.626 1284.03 Q106.571 1288.61 100.76 1288.61 Q94.9502 1288.61 91.8715 1284.03 Q88.816 1279.42 88.816 1270.7 Q88.816 1261.95 91.8715 1257.36 Q94.9502 1252.76 100.76 1252.76 Z" fill="#000000" fill-rule="nonzero" fill-opacity="1" /><path clip-path="url(#clip610)" d="M120.922 1282.06 L125.807 1282.06 L125.807 1287.94 L120.922 1287.94 L120.922 1282.06 Z" fill="#000000" fill-rule="nonzero" fill-opacity="1" /><path clip-path="url(#clip610)" d="M140.019 1284.01 L156.339 1284.01 L156.339 1287.94 L134.394 1287.94 L134.394 1284.01 Q137.056 1281.25 141.64 1276.62 Q146.246 1271.97 147.427 1270.63 Q149.672 1268.1 150.552 1266.37 Q151.455 1264.61 151.455 1262.92 Q151.455 1260.16 149.51 1258.43 Q147.589 1256.69 144.487 1256.69 Q142.288 1256.69 139.834 1257.46 Q137.404 1258.22 134.626 1259.77 L134.626 1255.05 Q137.45 1253.91 139.904 1253.34 Q142.357 1252.76 144.394 1252.76 Q149.765 1252.76 152.959 1255.44 Q156.154 1258.13 156.154 1262.62 Q156.154 1264.75 155.343 1266.67 Q154.556 1268.57 152.45 1271.16 Q151.871 1271.83 148.769 1275.05 Q145.668 1278.24 140.019 1284.01 Z" fill="#000000" fill-rule="nonzero" fill-opacity="1" /><path clip-path="url(#clip610)" d="M166.2 1253.38 L184.556 1253.38 L184.556 1257.32 L170.482 1257.32 L170.482 1265.79 Q171.501 1265.44 172.519 1265.28 Q173.538 1265.09 174.556 1265.09 Q180.343 1265.09 183.723 1268.27 Q187.103 1271.44 187.103 1276.85 Q187.103 1282.43 183.63 1285.53 Q180.158 1288.61 173.839 1288.61 Q171.663 1288.61 169.394 1288.24 Q167.149 1287.87 164.742 1287.13 L164.742 1282.43 Q166.825 1283.57 169.047 1284.12 Q171.269 1284.68 173.746 1284.68 Q177.751 1284.68 180.089 1282.57 Q182.427 1280.46 182.427 1276.85 Q182.427 1273.24 180.089 1271.14 Q177.751 1269.03 173.746 1269.03 Q171.871 1269.03 169.996 1269.45 Q168.144 1269.86 166.2 1270.74 L166.2 1253.38 Z" fill="#000000" fill-rule="nonzero" fill-opacity="1" /><path clip-path="url(#clip610)" d="M99.765 978.441 Q96.1539 978.441 94.3252 982.006 Q92.5197 985.547 92.5197 992.677 Q92.5197 999.783 94.3252 1003.35 Q96.1539 1006.89 99.765 1006.89 Q103.399 1006.89 105.205 1003.35 Q107.033 999.783 107.033 992.677 Q107.033 985.547 105.205 982.006 Q103.399 978.441 99.765 978.441 M99.765 974.737 Q105.575 974.737 108.631 979.344 Q111.709 983.927 111.709 992.677 Q111.709 1001.4 108.631 1006.01 Q105.575 1010.59 99.765 1010.59 Q93.9549 1010.59 90.8762 1006.01 Q87.8206 1001.4 87.8206 992.677 Q87.8206 983.927 90.8762 979.344 Q93.9549 974.737 99.765 974.737 Z" fill="#000000" fill-rule="nonzero" fill-opacity="1" /><path clip-path="url(#clip610)" d="M119.927 1004.04 L124.811 1004.04 L124.811 1009.92 L119.927 1009.92 L119.927 1004.04 Z" fill="#000000" fill-rule="nonzero" fill-opacity="1" /><path clip-path="url(#clip610)" d="M144.996 978.441 Q141.385 978.441 139.556 982.006 Q137.751 985.547 137.751 992.677 Q137.751 999.783 139.556 1003.35 Q141.385 1006.89 144.996 1006.89 Q148.63 1006.89 150.436 1003.35 Q152.265 999.783 152.265 992.677 Q152.265 985.547 150.436 982.006 Q148.63 978.441 144.996 978.441 M144.996 974.737 Q150.806 974.737 153.862 979.344 Q156.941 983.927 156.941 992.677 Q156.941 1001.4 153.862 1006.01 Q150.806 1010.59 144.996 1010.59 Q139.186 1010.59 136.107 1006.01 Q133.052 1001.4 133.052 992.677 Q133.052 983.927 136.107 979.344 Q139.186 974.737 144.996 974.737 Z" fill="#000000" fill-rule="nonzero" fill-opacity="1" /><path clip-path="url(#clip610)" d="M175.158 978.441 Q171.547 978.441 169.718 982.006 Q167.913 985.547 167.913 992.677 Q167.913 999.783 169.718 1003.35 Q171.547 1006.89 175.158 1006.89 Q178.792 1006.89 180.598 1003.35 Q182.427 999.783 182.427 992.677 Q182.427 985.547 180.598 982.006 Q178.792 978.441 175.158 978.441 M175.158 974.737 Q180.968 974.737 184.024 979.344 Q187.103 983.927 187.103 992.677 Q187.103 1001.4 184.024 1006.01 Q180.968 1010.59 175.158 1010.59 Q169.348 1010.59 166.269 1006.01 Q163.214 1001.4 163.214 992.677 Q163.214 983.927 166.269 979.344 Q169.348 974.737 175.158 974.737 Z" fill="#000000" fill-rule="nonzero" fill-opacity="1" /><path clip-path="url(#clip610)" d="M100.76 700.421 Q97.1493 700.421 95.3206 703.986 Q93.515 707.528 93.515 714.657 Q93.515 721.764 95.3206 725.328 Q97.1493 728.87 100.76 728.87 Q104.395 728.87 106.2 725.328 Q108.029 721.764 108.029 714.657 Q108.029 707.528 106.2 703.986 Q104.395 700.421 100.76 700.421 M100.76 696.718 Q106.571 696.718 109.626 701.324 Q112.705 705.907 112.705 714.657 Q112.705 723.384 109.626 727.99 Q106.571 732.574 100.76 732.574 Q94.9502 732.574 91.8715 727.99 Q88.816 723.384 88.816 714.657 Q88.816 705.907 91.8715 701.324 Q94.9502 696.718 100.76 696.718 Z" fill="#000000" fill-rule="nonzero" fill-opacity="1" /><path clip-path="url(#clip610)" d="M120.922 726.023 L125.807 726.023 L125.807 731.903 L120.922 731.903 L120.922 726.023 Z" fill="#000000" fill-rule="nonzero" fill-opacity="1" /><path clip-path="url(#clip610)" d="M140.019 727.967 L156.339 727.967 L156.339 731.903 L134.394 731.903 L134.394 727.967 Q137.056 725.213 141.64 720.583 Q146.246 715.93 147.427 714.588 Q149.672 712.065 150.552 710.329 Q151.455 708.569 151.455 706.88 Q151.455 704.125 149.51 702.389 Q147.589 700.653 144.487 700.653 Q142.288 700.653 139.834 701.417 Q137.404 702.18 134.626 703.731 L134.626 699.009 Q137.45 697.875 139.904 697.296 Q142.357 696.718 144.394 696.718 Q149.765 696.718 152.959 699.403 Q156.154 702.088 156.154 706.579 Q156.154 708.708 155.343 710.629 Q154.556 712.528 152.45 715.12 Q151.871 715.791 148.769 719.009 Q145.668 722.203 140.019 727.967 Z" fill="#000000" fill-rule="nonzero" fill-opacity="1" /><path clip-path="url(#clip610)" d="M166.2 697.343 L184.556 697.343 L184.556 701.278 L170.482 701.278 L170.482 709.75 Q171.501 709.403 172.519 709.241 Q173.538 709.055 174.556 709.055 Q180.343 709.055 183.723 712.227 Q187.103 715.398 187.103 720.815 Q187.103 726.393 183.63 729.495 Q180.158 732.574 173.839 732.574 Q171.663 732.574 169.394 732.203 Q167.149 731.833 164.742 731.092 L164.742 726.393 Q166.825 727.528 169.047 728.083 Q171.269 728.639 173.746 728.639 Q177.751 728.639 180.089 726.532 Q182.427 724.426 182.427 720.815 Q182.427 717.204 180.089 715.097 Q177.751 712.991 173.746 712.991 Q171.871 712.991 169.996 713.407 Q168.144 713.824 166.2 714.704 L166.2 697.343 Z" fill="#000000" fill-rule="nonzero" fill-opacity="1" /><path clip-path="url(#clip610)" d="M99.765 422.402 Q96.1539 422.402 94.3252 425.966 Q92.5197 429.508 92.5197 436.638 Q92.5197 443.744 94.3252 447.309 Q96.1539 450.85 99.765 450.85 Q103.399 450.85 105.205 447.309 Q107.033 443.744 107.033 436.638 Q107.033 429.508 105.205 425.966 Q103.399 422.402 99.765 422.402 M99.765 418.698 Q105.575 418.698 108.631 423.304 Q111.709 427.888 111.709 436.638 Q111.709 445.364 108.631 449.971 Q105.575 454.554 99.765 454.554 Q93.9549 454.554 90.8762 449.971 Q87.8206 445.364 87.8206 436.638 Q87.8206 427.888 90.8762 423.304 Q93.9549 418.698 99.765 418.698 Z" fill="#000000" fill-rule="nonzero" fill-opacity="1" /><path clip-path="url(#clip610)" d="M119.927 448.003 L124.811 448.003 L124.811 453.883 L119.927 453.883 L119.927 448.003 Z" fill="#000000" fill-rule="nonzero" fill-opacity="1" /><path clip-path="url(#clip610)" d="M135.043 419.323 L153.399 419.323 L153.399 423.258 L139.325 423.258 L139.325 431.73 Q140.343 431.383 141.362 431.221 Q142.381 431.036 143.399 431.036 Q149.186 431.036 152.566 434.207 Q155.945 437.378 155.945 442.795 Q155.945 448.374 152.473 451.475 Q149.001 454.554 142.681 454.554 Q140.506 454.554 138.237 454.184 Q135.992 453.813 133.584 453.073 L133.584 448.374 Q135.668 449.508 137.89 450.063 Q140.112 450.619 142.589 450.619 Q146.593 450.619 148.931 448.513 Q151.269 446.406 151.269 442.795 Q151.269 439.184 148.931 437.077 Q146.593 434.971 142.589 434.971 Q140.714 434.971 138.839 435.388 Q136.987 435.804 135.043 436.684 L135.043 419.323 Z" fill="#000000" fill-rule="nonzero" fill-opacity="1" /><path clip-path="url(#clip610)" d="M175.158 422.402 Q171.547 422.402 169.718 425.966 Q167.913 429.508 167.913 436.638 Q167.913 443.744 169.718 447.309 Q171.547 450.85 175.158 450.85 Q178.792 450.85 180.598 447.309 Q182.427 443.744 182.427 436.638 Q182.427 429.508 180.598 425.966 Q178.792 422.402 175.158 422.402 M175.158 418.698 Q180.968 418.698 184.024 423.304 Q187.103 427.888 187.103 436.638 Q187.103 445.364 184.024 449.971 Q180.968 454.554 175.158 454.554 Q169.348 454.554 166.269 449.971 Q163.214 445.364 163.214 436.638 Q163.214 427.888 166.269 423.304 Q169.348 418.698 175.158 418.698 Z" fill="#000000" fill-rule="nonzero" fill-opacity="1" /><path clip-path="url(#clip610)" d="M100.76 144.382 Q97.1493 144.382 95.3206 147.947 Q93.515 151.488 93.515 158.618 Q93.515 165.724 95.3206 169.289 Q97.1493 172.831 100.76 172.831 Q104.395 172.831 106.2 169.289 Q108.029 165.724 108.029 158.618 Q108.029 151.488 106.2 147.947 Q104.395 144.382 100.76 144.382 M100.76 140.678 Q106.571 140.678 109.626 145.285 Q112.705 149.868 112.705 158.618 Q112.705 167.345 109.626 171.951 Q106.571 176.535 100.76 176.535 Q94.9502 176.535 91.8715 171.951 Q88.816 167.345 88.816 158.618 Q88.816 149.868 91.8715 145.285 Q94.9502 140.678 100.76 140.678 Z" fill="#000000" fill-rule="nonzero" fill-opacity="1" /><path clip-path="url(#clip610)" d="M120.922 169.984 L125.807 169.984 L125.807 175.863 L120.922 175.863 L120.922 169.984 Z" fill="#000000" fill-rule="nonzero" fill-opacity="1" /><path clip-path="url(#clip610)" d="M134.811 141.303 L157.033 141.303 L157.033 143.294 L144.487 175.863 L139.603 175.863 L151.408 145.238 L134.811 145.238 L134.811 141.303 Z" fill="#000000" fill-rule="nonzero" fill-opacity="1" /><path clip-path="url(#clip610)" d="M166.2 141.303 L184.556 141.303 L184.556 145.238 L170.482 145.238 L170.482 153.711 Q171.501 153.363 172.519 153.201 Q173.538 153.016 174.556 153.016 Q180.343 153.016 183.723 156.187 Q187.103 159.359 187.103 164.775 Q187.103 170.354 183.63 173.456 Q180.158 176.535 173.839 176.535 Q171.663 176.535 169.394 176.164 Q167.149 175.794 164.742 175.053 L164.742 170.354 Q166.825 171.488 169.047 172.044 Q171.269 172.599 173.746 172.599 Q177.751 172.599 180.089 170.493 Q182.427 168.386 182.427 164.775 Q182.427 161.164 180.089 159.058 Q177.751 156.951 173.746 156.951 Q171.871 156.951 169.996 157.368 Q168.144 157.785 166.2 158.664 L166.2 141.303 Z" fill="#000000" fill-rule="nonzero" fill-opacity="1" /><path clip-path="url(#clip612)" d="M1998.04 959.377 L2012.91 1057.73 L2037.51 1117.04 L2177.45 1117.04 L2292.48 1107.56 L2292.48 951.745 L2283.13 876.953 L2253.01 781.131 L2204.62 781.131 L1998.04 790.255 L1998.04 959.377 L1998.04 959.377  Z" fill="#009af9" fill-rule="evenodd" fill-opacity="0.1"/>
<polyline clip-path="url(#clip612)" style="stroke:#000000; stroke-linecap:round; stroke-linejoin:round; stroke-width:4; stroke-opacity:0.5; fill:none" points="1998.04,959.377 2012.91,1057.73 2037.51,1117.04 2177.45,1117.04 2292.48,1107.56 2292.48,951.745 2283.13,876.953 2253.01,781.131 2204.62,781.131 1998.04,790.255 1998.04,959.377 "/>
<path clip-path="url(#clip612)" d="M1956.27 814.204 L1987.07 956.901 L2022.13 1037.1 L2058.37 1037.1 L2272.8 1009.51 L2272.8 917.705 L2244.42 782.275 L2206.94 690.848 L2188.98 690.848 L1956.27 718.338 L1956.27 814.204 L1956.27 814.204  Z" fill="#009af9" fill-rule="evenodd" fill-opacity="0.1"/>
<polyline clip-path="url(#clip612)" style="stroke:#000000; stroke-linecap:round; stroke-linejoin:round; stroke-width:4; stroke-opacity:0.5; fill:none" points="1956.27,814.204 1987.07,956.901 2022.13,1037.1 2058.37,1037.1 2272.8,1009.51 2272.8,917.705 2244.42,782.275 2206.94,690.848 2188.98,690.848 1956.27,718.338 1956.27,814.204 "/>
<path clip-path="url(#clip612)" d="M1909.41 658.43 L1952.45 861.617 L1959.28 884.051 L2000.38 960.108 L2024.12 960.108 L2245.3 914.911 L2245.3 907.594 L2200.88 700.119 L2198.63 692.594 L2154.32 605.999 L2143.31 605.999 L1909.41 651.099 L1909.41 658.43 L1909.41 658.43  Z" fill="#009af9" fill-rule="evenodd" fill-opacity="0.1"/>
<polyline clip-path="url(#clip612)" style="stroke:#000000; stroke-linecap:round; stroke-linejoin:round; stroke-width:4; stroke-opacity:0.5; fill:none" points="1909.41,658.43 1952.45,861.617 1959.28,884.051 2000.38,960.108 2024.12,960.108 2245.3,914.911 2245.3,907.594 2200.88,700.119 2198.63,692.594 2154.32,605.999 2143.31,605.999 1909.41,651.099 1909.41,658.43 "/>
<path clip-path="url(#clip612)" d="M1857.97 596.807 L1914.92 787.035 L1925.94 814.823 L1972.66 886.472 L1990.62 886.472 L2210.47 824.504 L2210.47 816.502 L2151.23 620.765 L2146.36 608.31 L2095.78 526.935 L2087.81 526.935 L1857.97 588.803 L1857.97 596.807 L1857.97 596.807  Z" fill="#009af9" fill-rule="evenodd" fill-opacity="0.1"/>
<polyline clip-path="url(#clip612)" style="stroke:#000000; stroke-linecap:round; stroke-linejoin:round; stroke-width:4; stroke-opacity:0.5; fill:none" points="1857.97,596.807 1914.92,787.035 1925.94,814.823 1972.66,886.472 1990.62,886.472 2210.47,824.504 2210.47,816.502 2151.23,620.765 2146.36,608.31 2095.78,526.935 2087.81,526.935 1857.97,588.803 1857.97,596.807 "/>
<path clip-path="url(#clip612)" d="M1802.48 540.534 L1870.69 715.515 L1887.48 749.553 L1939.39 816.548 L1954.02 816.548 L2168.85 738.733 L2168.85 729.858 L2097.36 548.536 L2088.19 529.775 L2031.94 453.957 L2024.46 453.957 L1802.48 531.254 L1802.48 540.534 L1802.48 540.534  Z" fill="#009af9" fill-rule="evenodd" fill-opacity="0.1"/>
<polyline clip-path="url(#clip612)" style="stroke:#000000; stroke-linecap:round; stroke-linejoin:round; stroke-width:4; stroke-opacity:0.5; fill:none" points="1802.48,540.534 1870.69,715.515 1887.48,749.553 1939.39,816.548 1954.02,816.548 2168.85,738.733 2168.85,729.858 2097.36,548.536 2088.19,529.775 2031.94,453.957 2024.46,453.957 1802.48,531.254 1802.48,540.534 "/>
<path clip-path="url(#clip612)" d="M1743.46 489.692 L1820.05 647.784 L1844.33 688.541 L1900.99 750.655 L1913.47 750.655 L2120.96 657.99 L2120.96 648.15 L2040.12 483.241 L2024.76 457.285 L1963.42 387.312 L1955.01 387.312 L1743.46 478.499 L1743.46 489.692 L1743.46 489.692  Z" fill="#009af9" fill-rule="evenodd" fill-opacity="0.1"/>
<polyline clip-path="url(#clip612)" style="stroke:#000000; stroke-linecap:round; stroke-linejoin:round; stroke-width:4; stroke-opacity:0.5; fill:none" points="1743.46,489.692 1820.05,647.784 1844.33,688.541 1900.99,750.655 1913.47,750.655 2120.96,657.99 2120.96,648.15 2040.12,483.241 2024.76,457.285 1963.42,387.312 1955.01,387.312 1743.46,478.499 1743.46,489.692 "/>
<path clip-path="url(#clip612)" d="M1681.44 444.38 L1763.39 584.544 L1796.97 632.048 L1857.94 689.076 L1868.9 689.076 L2067.37 582.618 L2067.37 571.753 L1980.27 424.606 L1956.69 391.087 L1890.87 327.196 L1881.48 327.196 L1681.44 431.011 L1681.44 444.38 L1681.44 444.38  Z" fill="#009af9" fill-rule="evenodd" fill-opacity="0.1"/>
<polyline clip-path="url(#clip612)" style="stroke:#000000; stroke-linecap:round; stroke-linejoin:round; stroke-width:4; stroke-opacity:0.5; fill:none" points="1681.44,444.38 1763.39,584.544 1796.97,632.048 1857.94,689.076 1868.9,689.076 2067.37,582.618 2067.37,571.753 1980.27,424.606 1956.69,391.087 1890.87,327.196 1881.48,327.196 1681.44,431.011 1681.44,444.38 "/>
<path clip-path="url(#clip612)" d="M1616.95 404.676 L1701.26 526.446 L1745.88 580.293 L1810.7 632.051 L1821.49 632.051 L2008.67 513.514 L2008.67 481.538 L1884.61 331.376 L1814.93 273.752 L1804.53 273.752 L1616.95 388.848 L1616.95 404.676 L1616.95 404.676  Z" fill="#009af9" fill-rule="evenodd" fill-opacity="0.1"/>
<polyline clip-path="url(#clip612)" style="stroke:#000000; stroke-linecap:round; stroke-linejoin:round; stroke-width:4; stroke-opacity:0.5; fill:none" points="1616.95,404.676 1701.26,526.446 1745.88,580.293 1810.7,632.051 1821.49,632.051 2008.67,513.514 2008.67,481.538 1884.61,331.376 1814.93,273.752 1804.53,273.752 1616.95,388.848 1616.95,404.676 "/>
<path clip-path="url(#clip612)" d="M1550.53 387.217 L1691.53 533.455 L1759.74 579.782 L1771.56 579.782 L1945.45 451.227 L1945.45 419.812 L1809.17 278.293 L1736.24 227.077 L1724.8 227.077 L1550.53 352.019 L1550.53 387.217 L1550.53 387.217  Z" fill="#009af9" fill-rule="evenodd" fill-opacity="0.1"/>
<polyline clip-path="url(#clip612)" style="stroke:#000000; stroke-linecap:round; stroke-linejoin:round; stroke-width:4; stroke-opacity:0.5; fill:none" points="1550.53,387.217 1691.53,533.455 1759.74,579.782 1771.56,579.782 1945.45,451.227 1945.45,419.812 1809.17,278.293 1736.24,227.077 1724.8,227.077 1550.53,352.019 1550.53,387.217 "/>
<path clip-path="url(#clip612)" d="M1482.69 355.943 L1634.43 491.672 L1705.56 532.429 L1718.43 532.429 L1878.3 395.378 L1878.3 363.639 L1730.99 231.934 L1655.42 187.214 L1642.94 187.214 L1482.69 320.471 L1482.69 355.943 L1482.69 355.943  Z" fill="#009af9" fill-rule="evenodd" fill-opacity="0.1"/>
<polyline clip-path="url(#clip612)" style="stroke:#000000; stroke-linecap:round; stroke-linejoin:round; stroke-width:4; stroke-opacity:0.5; fill:none" points="1482.69,355.943 1634.43,491.672 1705.56,532.429 1718.43,532.429 1878.3,395.378 1878.3,363.639 1730.99,231.934 1655.42,187.214 1642.94,187.214 1482.69,320.471 1482.69,355.943 "/>
<path clip-path="url(#clip612)" d="M1413.93 330.712 L1575.08 455.04 L1648.64 490.117 L1662.58 490.117 L1807.83 346.2 L1807.83 313.302 L1650.7 192.343 L1573.11 154.163 L1559.56 154.163 L1413.93 294.092 L1413.93 330.712 L1413.93 330.712  Z" fill="#009af9" fill-rule="evenodd" fill-opacity="0.1"/>
<polyline clip-path="url(#clip612)" style="stroke:#000000; stroke-linecap:round; stroke-linejoin:round; stroke-width:4; stroke-opacity:0.5; fill:none" points="1413.93,330.712 1575.08,455.04 1648.64,490.117 1662.58,490.117 1807.83,346.2 1807.83,313.302 1650.7,192.343 1573.11,154.163 1559.56,154.163 1413.93,294.092 1413.93,330.712 "/>
<path clip-path="url(#clip612)" d="M1344.76 311.363 L1513.96 423.613 L1589.47 452.929 L1604.5 452.929 L1734.63 303.913 L1734.63 268.991 L1568.93 159.519 L1489.91 127.877 L1475.2 127.877 L1344.76 272.611 L1344.76 311.363 L1344.76 311.363  Z" fill="#009af9" fill-rule="evenodd" fill-opacity="0.1"/>
<polyline clip-path="url(#clip612)" style="stroke:#000000; stroke-linecap:round; stroke-linejoin:round; stroke-width:4; stroke-opacity:0.5; fill:none" points="1344.76,311.363 1513.96,423.613 1589.47,452.929 1604.5,452.929 1734.63,303.913 1734.63,268.991 1568.93,159.519 1489.91,127.877 1475.2,127.877 1344.76,272.611 1344.76,311.363 "/>
<path clip-path="url(#clip612)" d="M1275.64 297.73 L1493.05 420.912 L1544.67 420.912 L1659.3 268.765 L1659.3 230.825 L1441.6 108.265 L1390.51 108.265 L1275.64 255.807 L1275.64 297.73 L1275.64 297.73  Z" fill="#009af9" fill-rule="evenodd" fill-opacity="0.1"/>
<polyline clip-path="url(#clip612)" style="stroke:#000000; stroke-linecap:round; stroke-linejoin:round; stroke-width:4; stroke-opacity:0.5; fill:none" points="1275.64,297.73 1493.05,420.912 1544.67,420.912 1659.3,268.765 1659.3,230.825 1441.6,108.265 1390.51,108.265 1275.64,255.807 1275.64,297.73 "/>
<path clip-path="url(#clip612)" d="M1207.04 284.597 L1250.44 310.404 L1425.32 394.076 L1483.65 394.076 L1582.43 241.133 L1582.43 204.518 L1529.78 173.896 L1363.79 95.1964 L1306.08 95.1964 L1285.84 125.451 L1207.04 265.301 L1207.04 284.597 L1207.04 284.597  Z" fill="#009af9" fill-rule="evenodd" fill-opacity="0.1"/>
<polyline clip-path="url(#clip612)" style="stroke:#000000; stroke-linecap:round; stroke-linejoin:round; stroke-width:4; stroke-opacity:0.5; fill:none" points="1207.04,284.597 1250.44,310.404 1425.32,394.076 1483.65,394.076 1582.43,241.133 1582.43,204.518 1529.78,173.896 1363.79,95.1964 1306.08,95.1964 1285.84,125.451 1207.04,265.301 1207.04,284.597 "/>
<path clip-path="url(#clip612)" d="M1139.39 283.521 L1169.96 299.026 L1354.73 372.398 L1421.82 372.398 L1445.32 329.507 L1504.59 198.332 L1504.59 177.205 L1464.42 157.339 L1288.84 88.502 L1222.43 88.502 L1205.45 118.338 L1139.39 262.53 L1139.39 283.521 L1139.39 283.521  Z" fill="#009af9" fill-rule="evenodd" fill-opacity="0.1"/>
<polyline clip-path="url(#clip612)" style="stroke:#000000; stroke-linecap:round; stroke-linejoin:round; stroke-width:4; stroke-opacity:0.5; fill:none" points="1139.39,283.521 1169.96,299.026 1354.73,372.398 1421.82,372.398 1445.32,329.507 1504.59,198.332 1504.59,177.205 1464.42,157.339 1288.84,88.502 1222.43,88.502 1205.45,118.338 1139.39,262.53 1139.39,283.521 "/>
<path clip-path="url(#clip612)" d="M1073.11 289.365 L1259.43 349.166 L1287.12 355.818 L1359.64 355.818 L1377.74 316.242 L1426.33 179.322 L1426.33 156.149 L1399.24 144.923 L1218.61 87.9763 L1140.08 87.9763 L1125.91 117.679 L1073.11 264.448 L1073.11 289.365 L1073.11 289.365  Z" fill="#009af9" fill-rule="evenodd" fill-opacity="0.1"/>
<polyline clip-path="url(#clip612)" style="stroke:#000000; stroke-linecap:round; stroke-linejoin:round; stroke-width:4; stroke-opacity:0.5; fill:none" points="1073.11,289.365 1259.43,349.166 1287.12,355.818 1359.64,355.818 1377.74,316.242 1426.33,179.322 1426.33,156.149 1399.24,144.923 1218.61,87.9763 1140.08,87.9763 1125.91,117.679 1073.11,264.448 1073.11,289.365 "/>
<path clip-path="url(#clip612)" d="M1008.58 298.16 L1193.8 344.249 L1297.55 344.249 L1311.33 307.288 L1348.19 167.077 L1348.19 139.319 L1158.76 93.3808 L1059.52 93.3808 L1047.87 123.18 L1008.58 270.551 L1008.58 298.16 L1008.58 298.16  Z" fill="#009af9" fill-rule="evenodd" fill-opacity="0.1"/>
<polyline clip-path="url(#clip612)" style="stroke:#000000; stroke-linecap:round; stroke-linejoin:round; stroke-width:4; stroke-opacity:0.5; fill:none" points="1008.58,298.16 1193.8,344.249 1297.55,344.249 1311.33,307.288 1348.19,167.077 1348.19,139.319 1158.76,93.3808 1059.52,93.3808 1047.87,123.18 1008.58,270.551 1008.58,298.16 "/>
<path clip-path="url(#clip612)" d="M945.655 308.845 L966.435 315.284 L1137.09 342.828 L1226.46 342.828 L1240.86 322.454 L1271.21 167.065 L1271.21 133.029 L1250.34 126.731 L1082.1 99.1894 L990.774 99.1894 L976.068 119.357 L945.655 272.945 L945.655 308.845 L945.655 308.845  Z" fill="#009af9" fill-rule="evenodd" fill-opacity="0.1"/>
<polyline clip-path="url(#clip612)" style="stroke:#000000; stroke-linecap:round; stroke-linejoin:round; stroke-width:4; stroke-opacity:0.5; fill:none" points="945.655,308.845 966.435,315.284 1137.09,342.828 1226.46,342.828 1240.86,322.454 1271.21,167.065 1271.21,133.029 1250.34,126.731 1082.1,99.1894 990.774,99.1894 976.068,119.357 945.655,272.945 945.655,308.845 "/>
<path clip-path="url(#clip612)" d="M885.162 326.356 L967.74 346.323 L1112.61 346.323 L1171.55 332.032 L1179.41 318.993 L1195.37 172.271 L1195.37 129.98 L1110.4 110.191 L969.162 110.191 L909.251 124.355 L901.159 137.343 L885.162 282.339 L885.162 326.356 L885.162 326.356  Z" fill="#009af9" fill-rule="evenodd" fill-opacity="0.1"/>
<polyline clip-path="url(#clip612)" style="stroke:#000000; stroke-linecap:round; stroke-linejoin:round; stroke-width:4; stroke-opacity:0.5; fill:none" points="885.162,326.356 967.74,346.323 1112.61,346.323 1171.55,332.032 1179.41,318.993 1195.37,172.271 1195.37,129.98 1110.4,110.191 969.162,110.191 909.251,124.355 901.159,137.343 885.162,282.339 885.162,326.356 "/>
<path clip-path="url(#clip612)" d="M827.448 347.981 L862.143 354.105 L1047.16 354.105 L1112.33 333.407 L1121.1 316.119 L1121.1 132.429 L1085.67 126.522 L905.353 126.522 L836.568 146.873 L827.448 164.21 L827.448 347.981 L827.448 347.981  Z" fill="#009af9" fill-rule="evenodd" fill-opacity="0.1"/>
<polyline clip-path="url(#clip612)" style="stroke:#000000; stroke-linecap:round; stroke-linejoin:round; stroke-width:4; stroke-opacity:0.5; fill:none" points="827.448,347.981 862.143,354.105 1047.16,354.105 1112.33,333.407 1121.1,316.119 1121.1,132.429 1085.67,126.522 905.353,126.522 836.568,146.873 827.448,164.21 827.448,347.981 "/>
<path clip-path="url(#clip612)" d="M761.717 296.431 L778.795 376.268 L920.189 376.268 L1022.65 354.183 L1059.9 335.481 L1059.9 220.304 L1043.1 137.551 L904.116 137.551 L803.35 158.168 L761.717 177.995 L761.717 296.431 L761.717 296.431  Z" fill="#009af9" fill-rule="evenodd" fill-opacity="0.1"/>
<polyline clip-path="url(#clip612)" style="stroke:#000000; stroke-linecap:round; stroke-linejoin:round; stroke-width:4; stroke-opacity:0.5; fill:none" points="761.717,296.431 778.795,376.268 920.189,376.268 1022.65,354.183 1059.9,335.481 1059.9,220.304 1043.1,137.551 904.116,137.551 803.35,158.168 761.717,177.995 761.717,296.431 "/>
<path clip-path="url(#clip612)" d="M697.686 294.814 L729.215 403.748 L754.501 403.748 L915.143 381.652 L965.68 367.219 L1002.7 345.626 L1002.7 263.802 L971.406 151.763 L945.981 151.763 L787.804 173.205 L739.077 186.541 L697.686 209.539 L697.686 294.814 L697.686 294.814  Z" fill="#009af9" fill-rule="evenodd" fill-opacity="0.1"/>
<polyline clip-path="url(#clip612)" style="stroke:#000000; stroke-linecap:round; stroke-linejoin:round; stroke-width:4; stroke-opacity:0.5; fill:none" points="697.686,294.814 729.215,403.748 754.501,403.748 915.143,381.652 965.68,367.219 1002.7,345.626 1002.7,263.802 971.406,151.763 945.981,151.763 787.804,173.205 739.077,186.541 697.686,209.539 697.686,294.814 "/>
<path clip-path="url(#clip612)" d="M637.69 263.282 L670.397 399.903 L682.999 434.315 L708.466 434.315 L861.899 401.96 L947.756 371.257 L947.756 297.187 L902.639 170.78 L877.109 170.78 L727.567 201.851 L678.731 218.682 L637.69 245.016 L637.69 263.282 L637.69 263.282  Z" fill="#009af9" fill-rule="evenodd" fill-opacity="0.1"/>
<polyline clip-path="url(#clip612)" style="stroke:#000000; stroke-linecap:round; stroke-linejoin:round; stroke-width:4; stroke-opacity:0.5; fill:none" points="637.69,263.282 670.397,399.903 682.999,434.315 708.466,434.315 861.899,401.96 947.756,371.257 947.756,297.187 902.639,170.78 877.109,170.78 727.567,201.851 678.731,218.682 637.69,245.016 637.69,263.282 "/>
<path clip-path="url(#clip612)" d="M581.971 302.78 L621.175 424.608 L640.327 467.642 L666.285 467.642 L809.629 426.794 L895.338 389.73 L895.338 327.566 L837.155 194.287 L811.187 194.287 L673.194 233.023 L581.971 271.175 L581.971 302.78 L581.971 302.78  Z" fill="#009af9" fill-rule="evenodd" fill-opacity="0.1"/>
<polyline clip-path="url(#clip612)" style="stroke:#000000; stroke-linecap:round; stroke-linejoin:round; stroke-width:4; stroke-opacity:0.5; fill:none" points="581.971,302.78 621.175,424.608 640.327,467.642 666.285,467.642 809.629,426.794 895.338,389.73 895.338,327.566 837.155,194.287 811.187,194.287 673.194,233.023 581.971,271.175 581.971,302.78 "/>
<path clip-path="url(#clip612)" d="M530.733 312.521 L530.733 345.565 L573.487 450.495 L601.351 503.399 L627.956 503.399 L758.798 456.205 L845.698 411.797 L845.698 357.735 L775.218 221.951 L748.67 221.951 L624.616 266.015 L530.733 312.521 L530.733 312.521  Z" fill="#009af9" fill-rule="evenodd" fill-opacity="0.1"/>
<polyline clip-path="url(#clip612)" style="stroke:#000000; stroke-linecap:round; stroke-linejoin:round; stroke-width:4; stroke-opacity:0.5; fill:none" points="530.733,312.521 530.733,345.565 573.487,450.495 601.351,503.399 627.956,503.399 758.798,456.205 845.698,411.797 845.698,357.735 775.218,221.951 748.67,221.951 624.616,266.015 530.733,312.521 "/>
<path clip-path="url(#clip612)" d="M484.142 407.154 L566.221 541.254 L593.553 541.254 L709.932 490.164 L799.058 437.183 L799.058 388.834 L717.086 253.425 L689.93 253.425 L582.684 299.577 L484.142 356.444 L484.142 407.154 L484.142 407.154  Z" fill="#009af9" fill-rule="evenodd" fill-opacity="0.1"/>
<polyline clip-path="url(#clip612)" style="stroke:#000000; stroke-linecap:round; stroke-linejoin:round; stroke-width:4; stroke-opacity:0.5; fill:none" points="484.142,407.154 566.221,541.254 593.553,541.254 709.932,490.164 799.058,437.183 799.058,388.834 717.086,253.425 689.93,253.425 582.684,299.577 484.142,356.444 484.142,407.154 "/>
<path clip-path="url(#clip612)" d="M442.325 448.845 L535.031 580.871 L563.103 580.871 L662.648 529.218 L755.612 465.627 L755.612 421.332 L662.983 288.35 L614.102 288.35 L442.325 402.519 L442.325 448.845 L442.325 448.845  Z" fill="#009af9" fill-rule="evenodd" fill-opacity="0.1"/>
<polyline clip-path="url(#clip612)" style="stroke:#000000; stroke-linecap:round; stroke-linejoin:round; stroke-width:4; stroke-opacity:0.5; fill:none" points="442.325,448.845 535.031,580.871 563.103,580.871 662.648,529.218 755.612,465.627 755.612,421.332 662.983,288.35 614.102,288.35 442.325,402.519 442.325,448.845 "/>
<path clip-path="url(#clip612)" d="M405.373 493.544 L507.845 621.918 L555.478 621.918 L683.412 521.951 L715.523 480.351 L715.523 455.367 L613.111 326.358 L568.61 326.358 L440.881 423.374 L405.373 467.7 L405.373 493.544 L405.373 493.544  Z" fill="#009af9" fill-rule="evenodd" fill-opacity="0.1"/>
<polyline clip-path="url(#clip612)" style="stroke:#000000; stroke-linecap:round; stroke-linejoin:round; stroke-width:4; stroke-opacity:0.5; fill:none" points="405.373,493.544 507.845,621.918 555.478,621.918 683.412,521.951 715.523,480.351 715.523,455.367 613.111,326.358 568.61,326.358 440.881,423.374 405.373,467.7 405.373,493.544 "/>
<path clip-path="url(#clip612)" d="M373.343 542.611 L482.849 664.066 L528.712 664.066 L649.099 557.094 L678.927 512.399 L678.927 488.576 L569.731 367.074 L526.646 367.074 L406.164 471.137 L373.343 518.543 L373.343 542.611 L373.343 542.611  Z" fill="#009af9" fill-rule="evenodd" fill-opacity="0.1"/>
<polyline clip-path="url(#clip612)" style="stroke:#000000; stroke-linecap:round; stroke-linejoin:round; stroke-width:4; stroke-opacity:0.5; fill:none" points="373.343,542.611 482.849,664.066 528.712,664.066 649.099,557.094 678.927,512.399 678.927,488.576 569.731,367.074 526.646,367.074 406.164,471.137 373.343,518.543 373.343,542.611 "/>
<path clip-path="url(#clip612)" d="M346.255 595.134 L459.688 706.989 L506.639 706.989 L618.843 593.866 L645.931 546.375 L645.931 521.992 L532.6 410.121 L495.803 410.121 L459.744 438.326 L375.895 520.468 L346.255 570.565 L346.255 595.134 L346.255 595.134  Z" fill="#009af9" fill-rule="evenodd" fill-opacity="0.1"/>
<polyline clip-path="url(#clip612)" style="stroke:#000000; stroke-linecap:round; stroke-linejoin:round; stroke-width:4; stroke-opacity:0.5; fill:none" points="346.255,595.134 459.688,706.989 506.639,706.989 618.843,593.866 645.931,546.375 645.931,521.992 532.6,410.121 495.803,410.121 459.744,438.326 375.895,520.468 346.255,570.565 346.255,595.134 "/>
<path clip-path="url(#clip612)" d="M324.095 648.548 L439.962 750.372 L482.596 750.372 L513.925 721.97 L592.704 631.864 L616.613 581.969 L616.613 556.931 L500.635 455.121 L458.421 455.121 L438.979 472.348 L351.102 569.941 L324.095 623.318 L324.095 648.548 L324.095 648.548  Z" fill="#009af9" fill-rule="evenodd" fill-opacity="0.1"/>
<polyline clip-path="url(#clip612)" style="stroke:#000000; stroke-linecap:round; stroke-linejoin:round; stroke-width:4; stroke-opacity:0.5; fill:none" points="324.095,648.548 439.962,750.372 482.596,750.372 513.925,721.97 592.704,631.864 616.613,581.969 616.613,556.931 500.635,455.121 458.421,455.121 438.979,472.348 351.102,569.941 324.095,623.318 324.095,648.548 "/>
<path clip-path="url(#clip612)" d="M306.818 702.44 L423.517 793.908 L472.516 793.908 L488.747 777.27 L591.024 644.292 L591.024 593.126 L473.991 501.699 L422.402 501.699 L340.658 604.774 L306.818 658.487 L306.818 702.44 L306.818 702.44  Z" fill="#009af9" fill-rule="evenodd" fill-opacity="0.1"/>
<polyline clip-path="url(#clip612)" style="stroke:#000000; stroke-linecap:round; stroke-linejoin:round; stroke-width:4; stroke-opacity:0.5; fill:none" points="306.818,702.44 423.517,793.908 472.516,793.908 488.747,777.27 591.024,644.292 591.024,593.126 473.991,501.699 422.402,501.699 340.658,604.774 306.818,658.487 306.818,702.44 "/>
<path clip-path="url(#clip612)" d="M294.347 756.403 L341.489 789.333 L434.105 837.3 L469.775 837.3 L540.749 731.965 L569.189 676.994 L569.189 630.306 L526.439 600.612 L429.573 549.48 L394.253 549.48 L328.975 643.286 L294.347 709.266 L294.347 756.403 L294.347 756.403  Z" fill="#009af9" fill-rule="evenodd" fill-opacity="0.1"/>
<polyline clip-path="url(#clip612)" style="stroke:#000000; stroke-linecap:round; stroke-linejoin:round; stroke-width:4; stroke-opacity:0.5; fill:none" points="294.347,756.403 341.489,789.333 434.105,837.3 469.775,837.3 540.749,731.965 569.189,676.994 569.189,630.306 526.439,600.612 429.573,549.48 394.253,549.48 328.975,643.286 294.347,709.266 294.347,756.403 "/>
<path clip-path="url(#clip612)" d="M286.577 810.064 L328.359 836.012 L430.647 880.266 L467.486 880.266 L523.68 784.418 L551.107 719.201 L551.107 668.203 L513.156 644.827 L407.154 598.101 L370.637 598.101 L318.865 683.411 L286.577 758.406 L286.577 810.064 L286.577 810.064  Z" fill="#009af9" fill-rule="evenodd" fill-opacity="0.1"/>
<polyline clip-path="url(#clip612)" style="stroke:#000000; stroke-linecap:round; stroke-linejoin:round; stroke-width:4; stroke-opacity:0.5; fill:none" points="286.577,810.064 328.359,836.012 430.647,880.266 467.486,880.266 523.68,784.418 551.107,719.201 551.107,668.203 513.156,644.827 407.154,598.101 370.637,598.101 318.865,683.411 286.577,758.406 286.577,810.064 "/>
<path clip-path="url(#clip612)" d="M283.376 863.112 L320.844 883.717 L430.717 922.536 L469.021 922.536 L536.749 788.438 L536.749 706.495 L501.142 687.133 L389.466 647.204 L351.551 647.204 L283.376 777.211 L283.376 863.112 L283.376 863.112  Z" fill="#009af9" fill-rule="evenodd" fill-opacity="0.1"/>
<polyline clip-path="url(#clip612)" style="stroke:#000000; stroke-linecap:round; stroke-linejoin:round; stroke-width:4; stroke-opacity:0.5; fill:none" points="283.376,863.112 320.844,883.717 430.717,922.536 469.021,922.536 536.749,788.438 536.749,706.495 501.142,687.133 389.466,647.204 351.551,647.204 283.376,777.211 283.376,863.112 "/>
<path clip-path="url(#clip612)" d="M284.585 915.246 L320.265 932.516 L434.106 963.855 L474.165 963.855 L508.609 883.552 L526.067 812.517 L526.067 744.884 L492.834 729.035 L376.615 696.443 L336.935 696.443 L303.757 770.637 L284.585 847.574 L284.585 915.246 L284.585 915.246  Z" fill="#009af9" fill-rule="evenodd" fill-opacity="0.1"/>
<polyline clip-path="url(#clip612)" style="stroke:#000000; stroke-linecap:round; stroke-linejoin:round; stroke-width:4; stroke-opacity:0.5; fill:none" points="284.585,915.246 320.265,932.516 434.106,963.855 474.165,963.855 508.609,883.552 526.067,812.517 526.067,744.884 492.834,729.035 376.615,696.443 336.935,696.443 303.757,770.637 284.585,847.574 284.585,915.246 "/>
<path clip-path="url(#clip612)" d="M288.811 958.529 L313.916 977.185 L430.039 1004.09 L478.674 1004.09 L492.829 976.736 L520.2 863.629 L520.2 790.885 L495.15 772.347 L380.85 745.382 L330.909 745.382 L316.443 772.003 L288.811 882.413 L288.811 958.529 L288.811 958.529  Z" fill="#009af9" fill-rule="evenodd" fill-opacity="0.1"/>
<polyline clip-path="url(#clip612)" style="stroke:#000000; stroke-linecap:round; stroke-linejoin:round; stroke-width:4; stroke-opacity:0.5; fill:none" points="288.811,958.529 313.916,977.185 430.039,1004.09 478.674,1004.09 492.829,976.736 520.2,863.629 520.2,790.885 495.15,772.347 380.85,745.382 330.909,745.382 316.443,772.003 288.811,882.413 288.811,958.529 "/>
<path clip-path="url(#clip612)" d="M294.22 1005.29 L325.618 1026.01 L430.708 1043.15 L490.094 1043.15 L503.357 1013.6 L520.685 905.699 L520.685 831.324 L489.291 810.747 L385.871 793.563 L325.425 793.563 L311.638 822.684 L294.22 929.074 L294.22 1005.29 L294.22 1005.29  Z" fill="#009af9" fill-rule="evenodd" fill-opacity="0.1"/>
<polyline clip-path="url(#clip612)" style="stroke:#000000; stroke-linecap:round; stroke-linejoin:round; stroke-width:4; stroke-opacity:0.5; fill:none" points="294.22,1005.29 325.618,1026.01 430.708,1043.15 490.094,1043.15 503.357,1013.6 520.685,905.699 520.685,831.324 489.291,810.747 385.871,793.563 325.425,793.563 311.638,822.684 294.22,929.074 294.22,1005.29 "/>
<path clip-path="url(#clip612)" d="M303.63 1013.61 L320.405 1060.81 L354.295 1080.59 L504.595 1080.59 L524.37 1029.07 L524.37 907 L507.387 860.534 L473.513 840.943 L324.037 840.943 L303.63 891.043 L303.63 1013.61 L303.63 1013.61  Z" fill="#009af9" fill-rule="evenodd" fill-opacity="0.1"/>
<polyline clip-path="url(#clip612)" style="stroke:#000000; stroke-linecap:round; stroke-linejoin:round; stroke-width:4; stroke-opacity:0.5; fill:none" points="303.63,1013.61 320.405,1060.81 354.295,1080.59 504.595,1080.59 524.37,1029.07 524.37,907 507.387,860.534 473.513,840.943 324.037,840.943 303.63,891.043 303.63,1013.61 "/>
<path clip-path="url(#clip612)" d="M314.871 1037.38 L341.038 1118.03 L485.685 1118.03 L533.054 1104.08 L533.054 967.596 L507.155 885.418 L363.38 885.418 L314.871 898.775 L314.871 1037.38 L314.871 1037.38  Z" fill="#009af9" fill-rule="evenodd" fill-opacity="0.1"/>
<polyline clip-path="url(#clip612)" style="stroke:#000000; stroke-linecap:round; stroke-linejoin:round; stroke-width:4; stroke-opacity:0.5; fill:none" points="314.871,1037.38 341.038,1118.03 485.685,1118.03 533.054,1104.08 533.054,967.596 507.155,885.418 363.38,885.418 314.871,898.775 314.871,1037.38 "/>
<path clip-path="url(#clip612)" d="M322.92 1054.68 L354.046 1138.31 L371.66 1159.76 L480.083 1159.76 L551.362 1136.56 L551.362 1028.22 L521.197 945.225 L503.175 922.265 L396.62 922.265 L322.92 944.823 L322.92 1054.68 L322.92 1054.68  Z" fill="#009af9" fill-rule="evenodd" fill-opacity="0.1"/>
<polyline clip-path="url(#clip612)" style="stroke:#000000; stroke-linecap:round; stroke-linejoin:round; stroke-width:4; stroke-opacity:0.5; fill:none" points="322.92,1054.68 354.046,1138.31 371.66,1159.76 480.083,1159.76 551.362,1136.56 551.362,1028.22 521.197,945.225 503.175,922.265 396.62,922.265 322.92,944.823 322.92,1054.68 "/>
<path clip-path="url(#clip612)" d="M334.518 1022.21 L354.575 1128.38 L376.288 1177.3 L396.058 1199.13 L421.501 1199.13 L536.838 1179.85 L572.124 1166.34 L572.124 1134.52 L551.435 1027.15 L531.369 981.113 L511.104 957.749 L485.301 957.749 L371.999 976.327 L334.518 989.9 L334.518 1022.21 L334.518 1022.21  Z" fill="#009af9" fill-rule="evenodd" fill-opacity="0.1"/>
<polyline clip-path="url(#clip612)" style="stroke:#000000; stroke-linecap:round; stroke-linejoin:round; stroke-width:4; stroke-opacity:0.5; fill:none" points="334.518,1022.21 354.575,1128.38 376.288,1177.3 396.058,1199.13 421.501,1199.13 536.838,1179.85 572.124,1166.34 572.124,1134.52 551.435,1027.15 531.369,981.113 511.104,957.749 485.301,957.749 371.999,976.327 334.518,989.9 334.518,1022.21 "/>
<path clip-path="url(#clip612)" d="M349.516 1065.78 L376.513 1166.37 L401.118 1213.9 L423.404 1235.91 L449.48 1235.91 L559.031 1209.89 L595.036 1194 L595.036 1161.68 L567.084 1059.56 L544.479 1015.26 L521.644 991.752 L495.389 991.752 L389.978 1016.08 L349.516 1033.05 L349.516 1065.78 L349.516 1065.78  Z" fill="#009af9" fill-rule="evenodd" fill-opacity="0.1"/>
<polyline clip-path="url(#clip612)" style="stroke:#000000; stroke-linecap:round; stroke-linejoin:round; stroke-width:4; stroke-opacity:0.5; fill:none" points="349.516,1065.78 376.513,1166.37 401.118,1213.9 423.404,1235.91 449.48,1235.91 559.031,1209.89 595.036,1194 595.036,1161.68 567.084,1059.56 544.479,1015.26 521.644,991.752 495.389,991.752 389.978,1016.08 349.516,1033.05 349.516,1065.78 "/>
<path clip-path="url(#clip612)" d="M367.683 1107.28 L399.507 1199.48 L441.369 1269.94 L479.899 1269.94 L580.163 1239.31 L619.862 1219.4 L619.862 1186.56 L586.776 1092.58 L560.487 1047.84 L534.938 1024.11 L507.988 1024.11 L413.55 1052.12 L367.683 1074.04 L367.683 1107.28 L367.683 1107.28  Z" fill="#009af9" fill-rule="evenodd" fill-opacity="0.1"/>
<polyline clip-path="url(#clip612)" style="stroke:#000000; stroke-linecap:round; stroke-linejoin:round; stroke-width:4; stroke-opacity:0.5; fill:none" points="367.683,1107.28 399.507,1199.48 441.369,1269.94 479.899,1269.94 580.163,1239.31 619.862,1219.4 619.862,1186.56 586.776,1092.58 560.487,1047.84 534.938,1024.11 507.988,1024.11 413.55,1052.12 367.683,1074.04 367.683,1107.28 "/>
<path clip-path="url(#clip612)" d="M388.772 1146.62 L424.032 1229.58 L472.249 1301.12 L512.514 1301.12 L600.759 1268.19 L646.363 1242.48 L646.363 1209.02 L610.314 1125.19 L563.174 1054.66 L522.857 1054.66 L440.893 1084.63 L388.772 1112.69 L388.772 1146.62 L388.772 1146.62  Z" fill="#009af9" fill-rule="evenodd" fill-opacity="0.1"/>
<polyline clip-path="url(#clip612)" style="stroke:#000000; stroke-linecap:round; stroke-linejoin:round; stroke-width:4; stroke-opacity:0.5; fill:none" points="388.772,1146.62 424.032,1229.58 472.249,1301.12 512.514,1301.12 600.759,1268.19 646.363,1242.48 646.363,1209.02 610.314,1125.19 563.174,1054.66 522.857,1054.66 440.893,1084.63 388.772,1112.69 388.772,1146.62 "/>
<path clip-path="url(#clip612)" d="M412.527 1183.52 L448.359 1254.85 L504.83 1329.34 L568.954 1329.34 L674.294 1263.14 L674.294 1228.85 L636.803 1155.74 L582.205 1083.28 L521.658 1083.28 L412.527 1148.89 L412.527 1183.52 L412.527 1183.52  Z" fill="#009af9" fill-rule="evenodd" fill-opacity="0.1"/>
<polyline clip-path="url(#clip612)" style="stroke:#000000; stroke-linecap:round; stroke-linejoin:round; stroke-width:4; stroke-opacity:0.5; fill:none" points="412.527,1183.52 448.359,1254.85 504.83,1329.34 568.954,1329.34 674.294,1263.14 674.294,1228.85 636.803,1155.74 582.205,1083.28 521.658,1083.28 412.527,1148.89 412.527,1183.52 "/>
<path clip-path="url(#clip612)" d="M438.688 1236.3 L538.875 1354.53 L598.291 1354.53 L703.415 1281.33 L703.415 1228.4 L603.374 1109.85 L547.562 1109.85 L438.688 1182.46 L438.688 1236.3 L438.688 1236.3  Z" fill="#009af9" fill-rule="evenodd" fill-opacity="0.1"/>
<polyline clip-path="url(#clip612)" style="stroke:#000000; stroke-linecap:round; stroke-linejoin:round; stroke-width:4; stroke-opacity:0.5; fill:none" points="438.688,1236.3 538.875,1354.53 598.291,1354.53 703.415,1281.33 703.415,1228.4 603.374,1109.85 547.562,1109.85 438.688,1182.46 438.688,1236.3 "/>
<path clip-path="url(#clip612)" d="M466.984 1213.32 L466.984 1263.1 L574.039 1376.65 L629.833 1376.65 L733.485 1297.05 L733.485 1247.99 L626.508 1134.27 L579.98 1134.27 L554.278 1149.08 L466.984 1213.32 L466.984 1213.32  Z" fill="#009af9" fill-rule="evenodd" fill-opacity="0.1"/>
<polyline clip-path="url(#clip612)" style="stroke:#000000; stroke-linecap:round; stroke-linejoin:round; stroke-width:4; stroke-opacity:0.5; fill:none" points="466.984,1213.32 466.984,1263.1 574.039,1376.65 629.833,1376.65 733.485,1297.05 733.485,1247.99 626.508,1134.27 579.98,1134.27 554.278,1149.08 466.984,1213.32 "/>
<path clip-path="url(#clip612)" d="M497.144 1287.76 L609.992 1395.66 L663.296 1395.66 L749.962 1322.53 L764.265 1307.09 L764.265 1273.44 L737.631 1238.93 L651.433 1156.47 L598.91 1156.47 L521.803 1218.85 L497.144 1244.66 L497.144 1287.76 L497.144 1287.76  Z" fill="#009af9" fill-rule="evenodd" fill-opacity="0.1"/>
<polyline clip-path="url(#clip612)" style="stroke:#000000; stroke-linecap:round; stroke-linejoin:round; stroke-width:4; stroke-opacity:0.5; fill:none" points="497.144,1287.76 609.992,1395.66 663.296,1395.66 749.962,1322.53 764.265,1307.09 764.265,1273.44 737.631,1238.93 651.433,1156.47 598.91,1156.47 521.803,1218.85 497.144,1244.66 497.144,1287.76 "/>
<path clip-path="url(#clip612)" d="M528.893 1304.37 L546.63 1325.33 L625.004 1393.01 L667.067 1411.57 L702.078 1411.57 L795.524 1325.13 L795.524 1283.23 L777.097 1261.96 L700.884 1196.23 L657.664 1176.39 L623.065 1176.39 L528.893 1259.88 L528.893 1304.37 L528.893 1304.37  Z" fill="#009af9" fill-rule="evenodd" fill-opacity="0.1"/>
<polyline clip-path="url(#clip612)" style="stroke:#000000; stroke-linecap:round; stroke-linejoin:round; stroke-width:4; stroke-opacity:0.5; fill:none" points="528.893,1304.37 546.63,1325.33 625.004,1393.01 667.067,1411.57 702.078,1411.57 795.524,1325.13 795.524,1283.23 777.097,1261.96 700.884,1196.23 657.664,1176.39 623.065,1176.39 528.893,1259.88 528.893,1304.37 "/>
<path clip-path="url(#clip612)" d="M561.958 1277.68 L561.958 1332.36 L642.791 1395.46 L693.67 1424.38 L741.457 1424.38 L827.034 1337.77 L827.034 1285.94 L746.263 1223.09 L696.01 1193.98 L648.274 1193.98 L561.958 1277.68 L561.958 1277.68  Z" fill="#009af9" fill-rule="evenodd" fill-opacity="0.1"/>
<polyline clip-path="url(#clip612)" style="stroke:#000000; stroke-linecap:round; stroke-linejoin:round; stroke-width:4; stroke-opacity:0.5; fill:none" points="561.958,1277.68 561.958,1332.36 642.791,1395.46 693.67,1424.38 741.457,1424.38 827.034,1337.77 827.034,1285.94 746.263,1223.09 696.01,1193.98 648.274,1193.98 561.958,1277.68 "/>
<path clip-path="url(#clip612)" d="M596.067 1352.47 L669.134 1404.02 L731.029 1434.14 L781.049 1434.14 L858.576 1348.36 L858.576 1290.8 L785.885 1239.79 L724.229 1209.21 L674.335 1209.21 L636.119 1249.69 L596.067 1312.29 L596.067 1352.47 L596.067 1352.47  Z" fill="#009af9" fill-rule="evenodd" fill-opacity="0.1"/>
<polyline clip-path="url(#clip612)" style="stroke:#000000; stroke-linecap:round; stroke-linejoin:round; stroke-width:4; stroke-opacity:0.5; fill:none" points="596.067,1352.47 669.134,1404.02 731.029,1434.14 781.049,1434.14 858.576,1348.36 858.576,1290.8 785.885,1239.79 724.229,1209.21 674.335,1209.21 636.119,1249.69 596.067,1312.29 596.067,1352.47 "/>
<path clip-path="url(#clip612)" d="M630.952 1369.71 L698.104 1412.46 L767.942 1440.9 L820.588 1440.9 L855.384 1398.82 L889.937 1333.77 L889.937 1293.16 L823.29 1251.04 L753.489 1222.09 L701.069 1222.09 L669.305 1258.82 L630.952 1328.93 L630.952 1369.71 L630.952 1369.71  Z" fill="#009af9" fill-rule="evenodd" fill-opacity="0.1"/>
<polyline clip-path="url(#clip612)" style="stroke:#000000; stroke-linecap:round; stroke-linejoin:round; stroke-width:4; stroke-opacity:0.5; fill:none" points="630.952,1369.71 698.104,1412.46 767.942,1440.9 820.588,1440.9 855.384,1398.82 889.937,1333.77 889.937,1293.16 823.29,1251.04 753.489,1222.09 701.069,1222.09 669.305,1258.82 630.952,1328.93 630.952,1369.71 "/>
<path clip-path="url(#clip612)" d="M666.349 1384.05 L772.226 1444.73 L859.803 1444.73 L888.325 1407.02 L920.917 1334.58 L920.917 1293.13 L814.267 1232.6 L728.236 1232.6 L701.763 1266.02 L666.349 1342.53 L666.349 1384.05 L666.349 1384.05  Z" fill="#009af9" fill-rule="evenodd" fill-opacity="0.1"/>
<polyline clip-path="url(#clip612)" style="stroke:#000000; stroke-linecap:round; stroke-linejoin:round; stroke-width:4; stroke-opacity:0.5; fill:none" points="666.349,1384.05 772.226,1444.73 859.803,1444.73 888.325,1407.02 920.917,1334.58 920.917,1293.13 814.267,1232.6 728.236,1232.6 701.763,1266.02 666.349,1342.53 666.349,1384.05 "/>
<path clip-path="url(#clip612)" d="M702.004 1395.52 L761.171 1425.94 L836.86 1445.72 L898.492 1445.72 L923.102 1410.11 L951.323 1333.09 L951.323 1290.79 L892.013 1260.68 L816.664 1240.79 L755.639 1240.79 L732.494 1272.71 L702.004 1353.21 L702.004 1395.52 L702.004 1395.52  Z" fill="#009af9" fill-rule="evenodd" fill-opacity="0.1"/>
<polyline clip-path="url(#clip612)" style="stroke:#000000; stroke-linecap:round; stroke-linejoin:round; stroke-width:4; stroke-opacity:0.5; fill:none" points="702.004,1395.52 761.171,1425.94 836.86,1445.72 898.492,1445.72 923.102,1410.11 951.323,1333.09 951.323,1290.79 892.013,1260.68 816.664,1240.79 755.639,1240.79 732.494,1272.71 702.004,1353.21 702.004,1395.52 "/>
<path clip-path="url(#clip612)" d="M737.667 1404.18 L794.576 1430.29 L865.952 1443.97 L936.382 1443.97 L957.304 1410.78 L980.976 1329.7 L980.976 1286.24 L924.208 1260.61 L852.839 1246.67 L783.072 1246.67 L762.741 1277.34 L737.667 1360.49 L737.667 1404.18 L737.667 1404.18  Z" fill="#009af9" fill-rule="evenodd" fill-opacity="0.1"/>
<polyline clip-path="url(#clip612)" style="stroke:#000000; stroke-linecap:round; stroke-linejoin:round; stroke-width:4; stroke-opacity:0.5; fill:none" points="737.667,1404.18 794.576,1430.29 865.952,1443.97 936.382,1443.97 957.304,1410.78 980.976,1329.7 980.976,1286.24 924.208,1260.61 852.839,1246.67 783.072,1246.67 762.741,1277.34 737.667,1360.49 737.667,1404.18 "/>
<path clip-path="url(#clip612)" d="M772.936 1405.65 L807.656 1424.77 L889.978 1441.32 L965.021 1441.32 L990.897 1411.38 L1009.87 1337.39 L1009.87 1284.07 L974.985 1265.11 L892.566 1248.61 L818.579 1248.61 L792.256 1277.8 L772.936 1348.99 L772.936 1405.65 L772.936 1405.65  Z" fill="#009af9" fill-rule="evenodd" fill-opacity="0.1"/>
<polyline clip-path="url(#clip612)" style="stroke:#000000; stroke-linecap:round; stroke-linejoin:round; stroke-width:4; stroke-opacity:0.5; fill:none" points="772.936,1405.65 807.656,1424.77 889.978,1441.32 965.021,1441.32 990.897,1411.38 1009.87,1337.39 1009.87,1284.07 974.985,1265.11 892.566,1248.61 818.579,1248.61 792.256,1277.8 772.936,1348.99 772.936,1405.65 "/>
<path clip-path="url(#clip612)" d="M807.67 1408.45 L864.35 1436.98 L998.99 1436.98 L1037.77 1387.76 L1037.77 1275.84 L980.648 1247.55 L847.338 1247.55 L807.67 1295.76 L807.67 1408.45 L807.67 1408.45  Z" fill="#009af9" fill-rule="evenodd" fill-opacity="0.1"/>
<polyline clip-path="url(#clip612)" style="stroke:#000000; stroke-linecap:round; stroke-linejoin:round; stroke-width:4; stroke-opacity:0.5; fill:none" points="807.67,1408.45 864.35,1436.98 998.99,1436.98 1037.77,1387.76 1037.77,1275.84 980.648,1247.55 847.338,1247.55 807.67,1295.76 807.67,1408.45 "/>
<path clip-path="url(#clip612)" d="M841.747 1408.67 L888.627 1430.18 L998.618 1430.18 L1044.09 1413.38 L1064.44 1385.01 L1064.44 1265.75 L1017.24 1244.52 L908.437 1244.52 L862.89 1260.85 L841.747 1289.01 L841.747 1408.67 L841.747 1408.67  Z" fill="#009af9" fill-rule="evenodd" fill-opacity="0.1"/>
<polyline clip-path="url(#clip612)" style="stroke:#000000; stroke-linecap:round; stroke-linejoin:round; stroke-width:4; stroke-opacity:0.5; fill:none" points="841.747,1408.67 888.627,1430.18 998.618,1430.18 1044.09,1413.38 1064.44,1385.01 1064.44,1265.75 1017.24,1244.52 908.437,1244.52 862.89,1260.85 841.747,1289.01 841.747,1408.67 "/>
<path clip-path="url(#clip612)" d="M871.515 1373.25 L894.787 1424.26 L1016.6 1424.26 L1093.2 1395.02 L1093.2 1287.91 L1070.28 1236.4 L950.404 1236.4 L871.515 1264.96 L871.515 1373.25 L871.515 1373.25  Z" fill="#009af9" fill-rule="evenodd" fill-opacity="0.1"/>
<polyline clip-path="url(#clip612)" style="stroke:#000000; stroke-linecap:round; stroke-linejoin:round; stroke-width:4; stroke-opacity:0.5; fill:none" points="871.515,1373.25 894.787,1424.26 1016.6,1424.26 1093.2,1395.02 1093.2,1287.91 1070.28,1236.4 950.404,1236.4 871.515,1264.96 871.515,1373.25 "/>
<path clip-path="url(#clip612)" d="M897.847 1357.72 L928.702 1418.39 L997.205 1418.39 L1064.15 1405.44 L1122.87 1379.89 L1122.87 1285.62 L1092.32 1224.28 L1025.17 1224.28 L959.495 1236.58 L897.847 1262.12 L897.847 1357.72 L897.847 1357.72  Z" fill="#009af9" fill-rule="evenodd" fill-opacity="0.1"/>
<polyline clip-path="url(#clip612)" style="stroke:#000000; stroke-linecap:round; stroke-linejoin:round; stroke-width:4; stroke-opacity:0.5; fill:none" points="897.847,1357.72 928.702,1418.39 997.205,1418.39 1064.15,1405.44 1122.87,1379.89 1122.87,1285.62 1092.32,1224.28 1025.17,1224.28 959.495,1236.58 897.847,1262.12 897.847,1357.72 "/>
<path clip-path="url(#clip612)" d="M923.189 1298.39 L941.417 1374.86 L961.331 1410.3 L1020.15 1410.3 L1092.57 1391.47 L1150.73 1363 L1150.73 1322.72 L1132.57 1246.41 L1112.85 1210.71 L1055.81 1210.71 L984.723 1228.59 L923.189 1257.36 L923.189 1298.39 L923.189 1298.39  Z" fill="#009af9" fill-rule="evenodd" fill-opacity="0.1"/>
<polyline clip-path="url(#clip612)" style="stroke:#000000; stroke-linecap:round; stroke-linejoin:round; stroke-width:4; stroke-opacity:0.5; fill:none" points="923.189,1298.39 941.417,1374.86 961.331,1410.3 1020.15,1410.3 1092.57,1391.47 1150.73,1363 1150.73,1322.72 1132.57,1246.41 1112.85,1210.71 1055.81,1210.71 984.723,1228.59 923.189,1257.36 923.189,1298.39 "/>
<path clip-path="url(#clip612)" d="M947.412 1288.32 L969.538 1362.98 L992.429 1400.12 L1032.67 1400.12 L1114.47 1378.56 L1158.3 1354.64 L1176.67 1334.84 L1176.67 1307.36 L1153.71 1231.74 L1131.89 1195.84 L1091.71 1195.84 L1012.09 1216.31 L967.868 1239.41 L947.412 1260.56 L947.412 1288.32 L947.412 1288.32  Z" fill="#009af9" fill-rule="evenodd" fill-opacity="0.1"/>
<polyline clip-path="url(#clip612)" style="stroke:#000000; stroke-linecap:round; stroke-linejoin:round; stroke-width:4; stroke-opacity:0.5; fill:none" points="947.412,1288.32 969.538,1362.98 992.429,1400.12 1032.67,1400.12 1114.47,1378.56 1158.3,1354.64 1176.67,1334.84 1176.67,1307.36 1153.71,1231.74 1131.89,1195.84 1091.71,1195.84 1012.09,1216.31 967.868,1239.41 947.412,1260.56 947.412,1288.32 "/>
<path clip-path="url(#clip612)" d="M970.397 1280.3 L994.55 1347.38 L1021.85 1388 L1062.9 1388 L1138.32 1363.48 L1200.59 1325.88 L1200.59 1287.22 L1175.46 1219.14 L1149.34 1179.82 L1108.62 1179.82 L1036.89 1202.23 L991.284 1228.62 L970.397 1251.84 L970.397 1280.3 L970.397 1280.3  Z" fill="#009af9" fill-rule="evenodd" fill-opacity="0.1"/>
<polyline clip-path="url(#clip612)" style="stroke:#000000; stroke-linecap:round; stroke-linejoin:round; stroke-width:4; stroke-opacity:0.5; fill:none" points="970.397,1280.3 994.55,1347.38 1021.85,1388 1062.9,1388 1138.32,1363.48 1200.59,1325.88 1200.59,1287.22 1175.46,1219.14 1149.34,1179.82 1108.62,1179.82 1036.89,1202.23 991.284,1228.62 970.397,1251.84 970.397,1280.3 "/>
<path clip-path="url(#clip612)" d="M992.04 1271.16 L1017.36 1330.03 L1049.51 1374.11 L1091.44 1374.11 L1158.86 1348.16 L1222.41 1305.95 L1222.41 1265.46 L1196.02 1205.59 L1165.1 1162.8 L1123.39 1162.8 L1059.86 1186.52 L992.04 1229.73 L992.04 1271.16 L992.04 1271.16  Z" fill="#009af9" fill-rule="evenodd" fill-opacity="0.1"/>
<polyline clip-path="url(#clip612)" style="stroke:#000000; stroke-linecap:round; stroke-linejoin:round; stroke-width:4; stroke-opacity:0.5; fill:none" points="992.04,1271.16 1017.36,1330.03 1049.51,1374.11 1091.44,1374.11 1158.86,1348.16 1222.41,1305.95 1222.41,1265.46 1196.02,1205.59 1165.1,1162.8 1123.39,1162.8 1059.86,1186.52 992.04,1229.73 992.04,1271.16 "/>
<path clip-path="url(#clip612)" d="M1012.25 1278.57 L1075.36 1358.59 L1140.88 1358.59 L1242.07 1285.01 L1242.07 1225.4 L1179.09 1144.94 L1115.94 1144.94 L1012.25 1217.33 L1012.25 1278.57 L1012.25 1278.57  Z" fill="#009af9" fill-rule="evenodd" fill-opacity="0.1"/>
<polyline clip-path="url(#clip612)" style="stroke:#000000; stroke-linecap:round; stroke-linejoin:round; stroke-width:4; stroke-opacity:0.5; fill:none" points="1012.25,1278.57 1075.36,1358.59 1140.88,1358.59 1242.07,1285.01 1242.07,1225.4 1179.09,1144.94 1115.94,1144.94 1012.25,1217.33 1012.25,1278.57 "/>
<path clip-path="url(#clip612)" d="M1030.95 1261.23 L1099.27 1341.62 L1160.7 1341.62 L1259.52 1263.24 L1259.52 1207.12 L1191.3 1126.38 L1132.29 1126.38 L1030.95 1203.58 L1030.95 1261.23 L1030.95 1261.23  Z" fill="#009af9" fill-rule="evenodd" fill-opacity="0.1"/>
<polyline clip-path="url(#clip612)" style="stroke:#000000; stroke-linecap:round; stroke-linejoin:round; stroke-width:4; stroke-opacity:0.5; fill:none" points="1030.95,1261.23 1099.27,1341.62 1160.7,1341.62 1259.52,1263.24 1259.52,1207.12 1191.3,1126.38 1132.29,1126.38 1030.95,1203.58 1030.95,1261.23 "/>
<path clip-path="url(#clip612)" d="M1048.07 1235.5 L1064 1260.77 L1121.17 1323.38 L1179.06 1323.38 L1274.73 1240.84 L1274.73 1194.78 L1258.6 1169.84 L1201.7 1107.29 L1146.3 1107.29 L1048.07 1188.69 L1048.07 1235.5 L1048.07 1235.5  Z" fill="#009af9" fill-rule="evenodd" fill-opacity="0.1"/>
<polyline clip-path="url(#clip612)" style="stroke:#000000; stroke-linecap:round; stroke-linejoin:round; stroke-width:4; stroke-opacity:0.5; fill:none" points="1048.07,1235.5 1064,1260.77 1121.17,1323.38 1179.06,1323.38 1274.73,1240.84 1274.73,1194.78 1258.6,1169.84 1201.7,1107.29 1146.3,1107.29 1048.07,1188.69 1048.07,1235.5 "/>
<path clip-path="url(#clip612)" d="M1063.56 1227.24 L1120.94 1285.86 L1147.14 1304.02 L1186.46 1304.02 L1214.92 1286.13 L1287.69 1217.98 L1287.69 1164.62 L1231.35 1106.94 L1204.57 1087.8 L1165.32 1087.8 L1142.56 1101.68 L1063.56 1172.72 L1063.56 1227.24 L1063.56 1227.24  Z" fill="#009af9" fill-rule="evenodd" fill-opacity="0.1"/>
<polyline clip-path="url(#clip612)" style="stroke:#000000; stroke-linecap:round; stroke-linejoin:round; stroke-width:4; stroke-opacity:0.5; fill:none" points="1063.56,1227.24 1120.94,1285.86 1147.14,1304.02 1186.46,1304.02 1214.92,1286.13 1287.69,1217.98 1287.69,1164.62 1231.35,1106.94 1204.57,1087.8 1165.32,1087.8 1142.56,1101.68 1063.56,1172.72 1063.56,1227.24 "/>
<path clip-path="url(#clip612)" d="M1077.38 1212.04 L1152.47 1283.73 L1212.37 1283.73 L1272.61 1222.59 L1298.4 1184.35 L1298.4 1139.75 L1223.34 1068.06 L1164.28 1068.06 L1107.01 1123.85 L1077.38 1166.73 L1077.38 1212.04 L1077.38 1212.04  Z" fill="#009af9" fill-rule="evenodd" fill-opacity="0.1"/>
<polyline clip-path="url(#clip612)" style="stroke:#000000; stroke-linecap:round; stroke-linejoin:round; stroke-width:4; stroke-opacity:0.5; fill:none" points="1077.38,1212.04 1152.47,1283.73 1212.37,1283.73 1272.61,1222.59 1298.4,1184.35 1298.4,1139.75 1223.34,1068.06 1164.28,1068.06 1107.01,1123.85 1077.38,1166.73 1077.38,1212.04 "/>
<path clip-path="url(#clip612)" d="M1089.51 1196.2 L1163.89 1262.67 L1228.65 1262.67 L1279.5 1206.8 L1306.88 1160.53 L1306.88 1114.66 L1232.44 1048.22 L1168.55 1048.22 L1120.13 1099.24 L1089.51 1149.61 L1089.51 1196.2 L1089.51 1196.2  Z" fill="#009af9" fill-rule="evenodd" fill-opacity="0.1"/>
<polyline clip-path="url(#clip612)" style="stroke:#000000; stroke-linecap:round; stroke-linejoin:round; stroke-width:4; stroke-opacity:0.5; fill:none" points="1089.51,1196.2 1163.89,1262.67 1228.65,1262.67 1279.5,1206.8 1306.88,1160.53 1306.88,1114.66 1232.44,1048.22 1168.55,1048.22 1120.13,1099.24 1089.51,1149.61 1089.51,1196.2 "/>
<path clip-path="url(#clip612)" d="M1099.93 1179.88 L1172.91 1241.01 L1242.86 1241.01 L1286.48 1189.16 L1313.15 1136.73 L1313.15 1089.48 L1240.04 1028.4 L1171.07 1028.4 L1129.07 1076.23 L1099.93 1132.03 L1099.93 1179.88 L1099.93 1179.88  Z" fill="#009af9" fill-rule="evenodd" fill-opacity="0.1"/>
<polyline clip-path="url(#clip612)" style="stroke:#000000; stroke-linecap:round; stroke-linejoin:round; stroke-width:4; stroke-opacity:0.5; fill:none" points="1099.93,1179.88 1172.91,1241.01 1242.86,1241.01 1286.48,1189.16 1313.15,1136.73 1313.15,1089.48 1240.04,1028.4 1171.07,1028.4 1129.07,1076.23 1099.93,1132.03 1099.93,1179.88 "/>
<path clip-path="url(#clip612)" d="M1108.63 1086.47 L1108.63 1163.16 L1147.32 1193.58 L1206.82 1218.93 L1254.94 1218.93 L1317.26 1138.81 L1317.26 1064.44 L1280.16 1035.4 L1219.38 1008.75 L1171.81 1008.75 L1108.63 1086.47 L1108.63 1086.47  Z" fill="#009af9" fill-rule="evenodd" fill-opacity="0.1"/>
<polyline clip-path="url(#clip612)" style="stroke:#000000; stroke-linecap:round; stroke-linejoin:round; stroke-width:4; stroke-opacity:0.5; fill:none" points="1108.63,1086.47 1108.63,1163.16 1147.32,1193.58 1206.82,1218.93 1254.94,1218.93 1317.26,1138.81 1317.26,1064.44 1280.16,1035.4 1219.38,1008.75 1171.81,1008.75 1108.63,1086.47 "/>
<path clip-path="url(#clip612)" d="M1115.64 1146.21 L1152.31 1173.29 L1216.45 1196.59 L1264.91 1196.59 L1298.59 1149.74 L1319.28 1091.23 L1319.28 1039.65 L1284.04 1013.78 L1218.75 989.379 L1170.9 989.379 L1138.26 1032.75 L1115.64 1093.95 L1115.64 1146.21 L1115.64 1146.21  Z" fill="#009af9" fill-rule="evenodd" fill-opacity="0.1"/>
<polyline clip-path="url(#clip612)" style="stroke:#000000; stroke-linecap:round; stroke-linejoin:round; stroke-width:4; stroke-opacity:0.5; fill:none" points="1115.64,1146.21 1152.31,1173.29 1216.45,1196.59 1264.91,1196.59 1298.59,1149.74 1319.28,1091.23 1319.28,1039.65 1284.04,1013.78 1218.75,989.379 1170.9,989.379 1138.26,1032.75 1115.64,1093.95 1115.64,1146.21 "/>
<path clip-path="url(#clip612)" d="M1120.96 1129.14 L1155.78 1153.32 L1223.76 1174.14 L1272.8 1174.14 L1302.82 1128.94 L1319.26 1070.76 L1319.26 1015.28 L1285.37 991.917 L1217.14 970.412 L1168.32 970.412 L1138.33 1013.46 L1120.96 1073.51 L1120.96 1129.14 L1120.96 1129.14  Z" fill="#009af9" fill-rule="evenodd" fill-opacity="0.1"/>
<polyline clip-path="url(#clip612)" style="stroke:#000000; stroke-linecap:round; stroke-linejoin:round; stroke-width:4; stroke-opacity:0.5; fill:none" points="1120.96,1129.14 1155.78,1153.32 1223.76,1174.14 1272.8,1174.14 1302.82,1128.94 1319.26,1070.76 1319.26,1015.28 1285.37,991.917 1217.14,970.412 1168.32,970.412 1138.33,1013.46 1120.96,1073.51 1120.96,1129.14 "/>
<path clip-path="url(#clip612)" d="M1124.58 1106.93 L1155.7 1133.81 L1217.58 1151.74 L1274.44 1151.74 L1299.79 1118.58 L1317.33 1059.86 L1317.33 996.734 L1286.37 970.032 L1225.7 951.955 L1168.5 951.955 L1142.57 984.12 L1124.58 1041.82 L1124.58 1106.93 L1124.58 1106.93  Z" fill="#009af9" fill-rule="evenodd" fill-opacity="0.1"/>
<polyline clip-path="url(#clip612)" style="stroke:#000000; stroke-linecap:round; stroke-linejoin:round; stroke-width:4; stroke-opacity:0.5; fill:none" points="1124.58,1106.93 1155.7,1133.81 1217.58,1151.74 1274.44,1151.74 1299.79,1118.58 1317.33,1059.86 1317.33,996.734 1286.37,970.032 1225.7,951.955 1168.5,951.955 1142.57,984.12 1124.58,1041.82 1124.58,1106.93 "/>
<path clip-path="url(#clip612)" d="M1124.77 1088.64 L1175.62 1129.7 L1277.86 1129.7 L1303.29 1094.36 L1315.38 1042.06 L1315.38 974.954 L1264.43 933.959 L1163.35 933.959 L1137.3 968.249 L1124.77 1018.17 L1124.77 1088.64 L1124.77 1088.64  Z" fill="#009af9" fill-rule="evenodd" fill-opacity="0.1"/>
<polyline clip-path="url(#clip612)" style="stroke:#000000; stroke-linecap:round; stroke-linejoin:round; stroke-width:4; stroke-opacity:0.5; fill:none" points="1124.77,1088.64 1175.62,1129.7 1277.86,1129.7 1303.29,1094.36 1315.38,1042.06 1315.38,974.954 1264.43,933.959 1163.35,933.959 1137.3,968.249 1124.77,1018.17 1124.77,1088.64 "/>
<path clip-path="url(#clip612)" d="M1123.47 1070.84 L1172.64 1107.99 L1279.36 1107.99 L1311.57 1060.44 L1311.57 953.72 L1262.3 916.681 L1156.78 916.681 L1123.47 963.145 L1123.47 1070.84 L1123.47 1070.84  Z" fill="#009af9" fill-rule="evenodd" fill-opacity="0.1"/>
<polyline clip-path="url(#clip612)" style="stroke:#000000; stroke-linecap:round; stroke-linejoin:round; stroke-width:4; stroke-opacity:0.5; fill:none" points="1123.47,1070.84 1172.64,1107.99 1279.36,1107.99 1311.57,1060.44 1311.57,953.72 1262.3,916.681 1156.78,916.681 1123.47,963.145 1123.47,1070.84 "/>
<path clip-path="url(#clip612)" d="M1120.77 1053.64 L1167.53 1086.73 L1278.97 1086.73 L1306.01 1044.38 L1306.01 933.148 L1259.15 900.209 L1148.92 900.209 L1120.77 941.782 L1120.77 1053.64 L1120.77 1053.64  Z" fill="#009af9" fill-rule="evenodd" fill-opacity="0.1"/>
<polyline clip-path="url(#clip612)" style="stroke:#000000; stroke-linecap:round; stroke-linejoin:round; stroke-width:4; stroke-opacity:0.5; fill:none" points="1120.77,1053.64 1167.53,1086.73 1278.97,1086.73 1306.01,1044.38 1306.01,933.148 1259.15,900.209 1148.92,900.209 1120.77,941.782 1120.77,1053.64 "/>
<path clip-path="url(#clip612)" d="M1112.95 1005.4 L1148.76 1069.59 L1247.73 1069.59 L1302.59 1040.92 L1302.59 945.84 L1267.07 881.091 L1169.24 881.091 L1112.95 908.818 L1112.95 1005.4 L1112.95 1005.4  Z" fill="#009af9" fill-rule="evenodd" fill-opacity="0.1"/>
<polyline clip-path="url(#clip612)" style="stroke:#000000; stroke-linecap:round; stroke-linejoin:round; stroke-width:4; stroke-opacity:0.5; fill:none" points="1112.95,1005.4 1148.76,1069.59 1247.73,1069.59 1302.59,1040.92 1302.59,945.84 1267.07,881.091 1169.24,881.091 1112.95,908.818 1112.95,1005.4 "/>
<path clip-path="url(#clip612)" d="M1103.76 895.43 L1103.76 983.09 L1146.42 1053.25 L1237.8 1053.25 L1297.74 1019.71 L1297.74 933.592 L1255.32 862.833 L1165.46 862.833 L1103.76 895.43 L1103.76 895.43  Z" fill="#009af9" fill-rule="evenodd" fill-opacity="0.1"/>
<polyline clip-path="url(#clip612)" style="stroke:#000000; stroke-linecap:round; stroke-linejoin:round; stroke-width:4; stroke-opacity:0.5; fill:none" points="1103.76,895.43 1103.76,983.09 1146.42,1053.25 1237.8,1053.25 1297.74,1019.71 1297.74,933.592 1255.32,862.833 1165.46,862.833 1103.76,895.43 "/>
<path clip-path="url(#clip612)" d="M1093.57 932.671 L1112.08 991.031 L1142.75 1037.55 L1191.05 1037.55 L1253.53 1021.91 L1291.31 999.346 L1291.31 949.557 L1272.74 892.404 L1242.34 845.74 L1197.4 845.74 L1132.78 860.875 L1093.57 883.02 L1093.57 932.671 L1093.57 932.671  Z" fill="#009af9" fill-rule="evenodd" fill-opacity="0.1"/>
<polyline clip-path="url(#clip612)" style="stroke:#000000; stroke-linecap:round; stroke-linejoin:round; stroke-width:4; stroke-opacity:0.5; fill:none" points="1093.57,932.671 1112.08,991.031 1142.75,1037.55 1191.05,1037.55 1253.53,1021.91 1291.31,999.346 1291.31,949.557 1272.74,892.404 1242.34,845.74 1197.4,845.74 1132.78,860.875 1093.57,883.02 1093.57,932.671 "/>
<path clip-path="url(#clip612)" d="M1082.48 917.565 L1105.04 976.551 L1137.81 1022.59 L1181.74 1022.59 L1247.04 1003.07 L1283.41 979.953 L1283.41 933.72 L1260.83 876.117 L1228.25 829.879 L1184.68 829.879 L1122.03 847.815 L1082.48 871.624 L1082.48 917.565 L1082.48 917.565  Z" fill="#009af9" fill-rule="evenodd" fill-opacity="0.1"/>
<polyline clip-path="url(#clip612)" style="stroke:#000000; stroke-linecap:round; stroke-linejoin:round; stroke-width:4; stroke-opacity:0.5; fill:none" points="1082.48,917.565 1105.04,976.551 1137.81,1022.59 1181.74,1022.59 1247.04,1003.07 1283.41,979.953 1283.41,933.72 1260.83,876.117 1228.25,829.879 1184.68,829.879 1122.03,847.815 1082.48,871.624 1082.48,917.565 "/>
<path clip-path="url(#clip612)" d="M1070.59 902.587 L1090.81 955.746 L1131.13 1008.43 L1175.72 1008.43 L1234.18 988.575 L1274.14 961.608 L1274.14 920.926 L1253.36 867.368 L1213.83 815.309 L1169.48 815.309 L1113.86 833.5 L1070.59 861.187 L1070.59 902.587 L1070.59 902.587  Z" fill="#009af9" fill-rule="evenodd" fill-opacity="0.1"/>
<polyline clip-path="url(#clip612)" style="stroke:#000000; stroke-linecap:round; stroke-linejoin:round; stroke-width:4; stroke-opacity:0.5; fill:none" points="1070.59,902.587 1090.81,955.746 1131.13,1008.43 1175.72,1008.43 1234.18,988.575 1274.14,961.608 1274.14,920.926 1253.36,867.368 1213.83,815.309 1169.48,815.309 1113.86,833.5 1070.59,861.187 1070.59,902.587 "/>
<path clip-path="url(#clip612)" d="M1058.02 916.24 L1122.78 995.143 L1192.74 995.143 L1263.62 944.458 L1263.62 881.25 L1199.05 802.075 L1131.35 802.075 L1058.02 851.835 L1058.02 916.24 L1058.02 916.24  Z" fill="#009af9" fill-rule="evenodd" fill-opacity="0.1"/>
<polyline clip-path="url(#clip612)" style="stroke:#000000; stroke-linecap:round; stroke-linejoin:round; stroke-width:4; stroke-opacity:0.5; fill:none" points="1058.02,916.24 1122.78,995.143 1192.74,995.143 1263.62,944.458 1263.62,881.25 1199.05,802.075 1131.35,802.075 1058.02,851.835 1058.02,916.24 "/>
<path clip-path="url(#clip612)" d="M1044.88 904.704 L1113.39 982.772 L1180.21 982.772 L1251.98 928.497 L1251.98 868.49 L1183.6 790.213 L1119.22 790.213 L1044.88 843.587 L1044.88 904.704 L1044.88 904.704  Z" fill="#009af9" fill-rule="evenodd" fill-opacity="0.1"/>
<polyline clip-path="url(#clip612)" style="stroke:#000000; stroke-linecap:round; stroke-linejoin:round; stroke-width:4; stroke-opacity:0.5; fill:none" points="1044.88,904.704 1113.39,982.772 1180.21,982.772 1251.98,928.497 1251.98,868.49 1183.6,790.213 1119.22,790.213 1044.88,843.587 1044.88,904.704 "/>
<path clip-path="url(#clip612)" d="M1031.27 836.462 L1031.27 894.621 L1103.14 971.367 L1167.16 971.367 L1239.33 913.749 L1239.33 856.64 L1167.55 779.749 L1106.07 779.749 L1031.27 836.462 L1031.27 836.462  Z" fill="#009af9" fill-rule="evenodd" fill-opacity="0.1"/>
<polyline clip-path="url(#clip612)" style="stroke:#000000; stroke-linecap:round; stroke-linejoin:round; stroke-width:4; stroke-opacity:0.5; fill:none" points="1031.27,836.462 1031.27,894.621 1103.14,971.367 1167.16,971.367 1239.33,913.749 1239.33,856.64 1167.55,779.749 1106.07,779.749 1031.27,836.462 "/>
<path clip-path="url(#clip612)" d="M1017.32 886.015 L1092.05 960.968 L1143.67 960.968 L1171.04 946.36 L1225.8 900.288 L1225.8 856.32 L1208.76 828.615 L1151.1 770.697 L1091.66 770.697 L1034.4 816.469 L1017.32 837.892 L1017.32 886.015 L1017.32 886.015  Z" fill="#009af9" fill-rule="evenodd" fill-opacity="0.1"/>
<polyline clip-path="url(#clip612)" style="stroke:#000000; stroke-linecap:round; stroke-linejoin:round; stroke-width:4; stroke-opacity:0.5; fill:none" points="1017.32,886.015 1092.05,960.968 1143.67,960.968 1171.04,946.36 1225.8,900.288 1225.8,856.32 1208.76,828.615 1151.1,770.697 1091.66,770.697 1034.4,816.469 1017.32,837.892 1017.32,886.015 "/>
<path clip-path="url(#clip612)" d="M1003.11 879.74 L1056.26 929.879 L1093.18 951.604 L1141.99 951.604 L1211.5 890.048 L1211.5 834.933 L1158.81 785.204 L1122.25 763.063 L1073.71 763.063 L1003.11 822.453 L1003.11 879.74 L1003.11 879.74  Z" fill="#009af9" fill-rule="evenodd" fill-opacity="0.1"/>
<polyline clip-path="url(#clip612)" style="stroke:#000000; stroke-linecap:round; stroke-linejoin:round; stroke-width:4; stroke-opacity:0.5; fill:none" points="1003.11,879.74 1056.26,929.879 1093.18,951.604 1141.99,951.604 1211.5,890.048 1211.5,834.933 1158.81,785.204 1122.25,763.063 1073.71,763.063 1003.11,822.453 1003.11,879.74 "/>
<path clip-path="url(#clip612)" d="M988.767 876.47 L1038.61 920.784 L1081.42 943.297 L1130.97 943.297 L1196.58 882.237 L1196.58 823.646 L1147.37 779.949 L1104.67 756.841 L1055.45 756.841 L988.767 815.792 L988.767 876.47 L988.767 876.47  Z" fill="#009af9" fill-rule="evenodd" fill-opacity="0.1"/>
<polyline clip-path="url(#clip612)" style="stroke:#000000; stroke-linecap:round; stroke-linejoin:round; stroke-width:4; stroke-opacity:0.5; fill:none" points="988.767,876.47 1038.61,920.784 1081.42,943.297 1130.97,943.297 1196.58,882.237 1196.58,823.646 1147.37,779.949 1104.67,756.841 1055.45,756.841 988.767,815.792 988.767,876.47 "/>
<path clip-path="url(#clip612)" d="M974.38 874.38 L1021.54 913.94 L1069.1 936.06 L1119.51 936.06 L1181.14 875.853 L1181.14 813.648 L1134.69 774.778 L1087.12 752.018 L1037.1 752.018 L974.38 810.194 L974.38 874.38 L974.38 874.38  Z" fill="#009af9" fill-rule="evenodd" fill-opacity="0.1"/>
<polyline clip-path="url(#clip612)" style="stroke:#000000; stroke-linecap:round; stroke-linejoin:round; stroke-width:4; stroke-opacity:0.5; fill:none" points="974.38,874.38 1021.54,913.94 1069.1,936.06 1119.51,936.06 1181.14,875.853 1181.14,813.648 1134.69,774.778 1087.12,752.018 1037.1,752.018 974.38,810.194 974.38,874.38 "/>
<path clip-path="url(#clip612)" d="M960.05 873.381 L1031.37 929.9 L1107.72 929.9 L1165.32 870.915 L1165.32 805.014 L1093.82 748.571 L1018.78 748.571 L960.05 805.64 L960.05 873.381 L960.05 873.381  Z" fill="#009af9" fill-rule="evenodd" fill-opacity="0.1"/>
<polyline clip-path="url(#clip612)" style="stroke:#000000; stroke-linecap:round; stroke-linejoin:round; stroke-width:4; stroke-opacity:0.5; fill:none" points="960.05,873.381 1031.37,929.9 1107.72,929.9 1165.32,870.915 1165.32,805.014 1093.82,748.571 1018.78,748.571 960.05,805.64 960.05,873.381 "/>
<path clip-path="url(#clip612)" d="M945.869 873.449 L989.513 906.167 L1042.68 924.816 L1095.67 924.816 L1128.14 890.008 L1149.23 843.797 L1149.23 797.729 L1080.49 746.469 L1000.57 746.469 L969.252 778.309 L945.869 826.962 L945.869 873.449 L945.869 873.449  Z" fill="#009af9" fill-rule="evenodd" fill-opacity="0.1"/>
<polyline clip-path="url(#clip612)" style="stroke:#000000; stroke-linecap:round; stroke-linejoin:round; stroke-width:4; stroke-opacity:0.5; fill:none" points="945.869,873.449 989.513,906.167 1042.68,924.816 1095.67,924.816 1128.14,890.008 1149.23,843.797 1149.23,797.729 1080.49,746.469 1000.57,746.469 969.252,778.309 945.869,826.962 945.869,873.449 "/>
<path clip-path="url(#clip612)" d="M931.927 874.559 L974.601 904.856 L1028.45 920.799 L1083.45 920.799 L1112.91 887.789 L1133 838.034 L1133 791.777 L1090.98 762.146 L1036.91 745.673 L982.607 745.673 L953.738 776.333 L931.927 828.011 L931.927 874.559 L931.927 874.559  Z" fill="#009af9" fill-rule="evenodd" fill-opacity="0.1"/>
<polyline clip-path="url(#clip612)" style="stroke:#000000; stroke-linecap:round; stroke-linejoin:round; stroke-width:4; stroke-opacity:0.5; fill:none" points="931.927,874.559 974.601,904.856 1028.45,920.799 1083.45,920.799 1112.91,887.789 1133,838.034 1133,791.777 1090.98,762.146 1036.91,745.673 982.607,745.673 953.738,776.333 931.927,828.011 931.927,874.559 "/>
<path clip-path="url(#clip612)" d="M918.306 876.649 L960.135 904.806 L1013.1 917.835 L1071.19 917.835 L1099.84 884.311 L1116.73 835.181 L1116.73 787.161 L1075.47 759.62 L1022.2 746.138 L965.015 746.138 L935.958 778.331 L918.306 826.068 L918.306 876.649 L918.306 876.649  Z" fill="#009af9" fill-rule="evenodd" fill-opacity="0.1"/>
<polyline clip-path="url(#clip612)" style="stroke:#000000; stroke-linecap:round; stroke-linejoin:round; stroke-width:4; stroke-opacity:0.5; fill:none" points="918.306,876.649 960.135,904.806 1013.1,917.835 1071.19,917.835 1099.84,884.311 1116.73,835.181 1116.73,787.161 1075.47,759.62 1022.2,746.138 965.015,746.138 935.958,778.331 918.306,826.068 918.306,876.649 "/>
<path clip-path="url(#clip612)" d="M905.041 876.27 L957.938 916.362 L1054.3 916.362 L1100.58 869.942 L1100.58 787.323 L1047.53 747.349 L952.436 747.349 L905.041 792.532 L905.041 876.27 L905.041 876.27  Z" fill="#009af9" fill-rule="evenodd" fill-opacity="0.1"/>
<polyline clip-path="url(#clip612)" style="stroke:#000000; stroke-linecap:round; stroke-linejoin:round; stroke-width:4; stroke-opacity:0.5; fill:none" points="905.041,876.27 957.938,916.362 1054.3,916.362 1100.58,869.942 1100.58,787.323 1047.53,747.349 952.436,747.349 905.041,792.532 905.041,876.27 "/>
<path clip-path="url(#clip612)" d="M892.18 879.898 L942.515 916.59 L1041.28 916.59 L1084.68 870.862 L1084.68 785.565 L1034.18 749.012 L936.764 749.012 L892.18 793.638 L892.18 879.898 L892.18 879.898  Z" fill="#009af9" fill-rule="evenodd" fill-opacity="0.1"/>
<polyline clip-path="url(#clip612)" style="stroke:#000000; stroke-linecap:round; stroke-linejoin:round; stroke-width:4; stroke-opacity:0.5; fill:none" points="892.18,879.898 942.515,916.59 1041.28,916.59 1084.68,870.862 1084.68,785.565 1034.18,749.012 936.764,749.012 892.18,793.638 892.18,879.898 "/>
<path clip-path="url(#clip612)" d="M879.863 884.369 L927.376 917.732 L1028.59 917.732 L1069.05 873.002 L1069.05 785.016 L1021.38 751.817 L921.56 751.817 L879.863 795.574 L879.863 884.369 L879.863 884.369  Z" fill="#009af9" fill-rule="evenodd" fill-opacity="0.1"/>
<polyline clip-path="url(#clip612)" style="stroke:#000000; stroke-linecap:round; stroke-linejoin:round; stroke-width:4; stroke-opacity:0.5; fill:none" points="879.863,884.369 927.376,917.732 1028.59,917.732 1069.05,873.002 1069.05,785.016 1021.38,751.817 921.56,751.817 879.863,795.574 879.863,884.369 "/>
<path clip-path="url(#clip612)" d="M867.299 873.388 L899.638 920.538 L997.172 920.538 L1054.64 887.769 L1054.64 802.316 L1022.56 754.906 L926.203 754.906 L867.299 786.675 L867.299 873.388 L867.299 873.388  Z" fill="#009af9" fill-rule="evenodd" fill-opacity="0.1"/>
<polyline clip-path="url(#clip612)" style="stroke:#000000; stroke-linecap:round; stroke-linejoin:round; stroke-width:4; stroke-opacity:0.5; fill:none" points="867.299,873.388 899.638,920.538 997.172,920.538 1054.64,887.769 1054.64,802.316 1022.56,754.906 926.203,754.906 867.299,786.675 867.299,873.388 "/>
<path clip-path="url(#clip612)" d="M853.573 793.243 L853.573 875.191 L889.079 925.864 L980.187 925.864 L1042.51 888.945 L1042.51 808.276 L1007.25 757.309 L917.624 757.309 L853.573 793.243 L853.573 793.243  Z" fill="#009af9" fill-rule="evenodd" fill-opacity="0.1"/>
<polyline clip-path="url(#clip612)" style="stroke:#000000; stroke-linecap:round; stroke-linejoin:round; stroke-width:4; stroke-opacity:0.5; fill:none" points="853.573,793.243 853.573,875.191 889.079,925.864 980.187,925.864 1042.51,888.945 1042.51,808.276 1007.25,757.309 917.624,757.309 853.573,793.243 "/>
</svg>
