<?xml version="1.0" encoding="utf-8"?>
<svg xmlns="http://www.w3.org/2000/svg" xmlns:xlink="http://www.w3.org/1999/xlink" width="600" height="400" viewBox="0 0 2400 1600">
<defs>
  <clipPath id="clip800">
    <rect x="0" y="0" width="2400" height="1600"/>
  </clipPath>
</defs>
<path clip-path="url(#clip800)" d="M0 1600 L2400 1600 L2400 0 L0 0  Z" fill="#ffffff" fill-rule="evenodd" fill-opacity="1"/>
<defs>
  <clipPath id="clip801">
    <rect x="480" y="0" width="1681" height="1600"/>
  </clipPath>
</defs>
<path clip-path="url(#clip800)" d="M193.936 1486.45 L2352.76 1486.45 L2352.76 47.2441 L193.936 47.2441  Z" fill="#ffffff" fill-rule="evenodd" fill-opacity="1"/>
<defs>
  <clipPath id="clip802">
    <rect x="193" y="47" width="2160" height="1440"/>
  </clipPath>
</defs>
<polyline clip-path="url(#clip802)" style="stroke:#000000; stroke-linecap:round; stroke-linejoin:round; stroke-width:2; stroke-opacity:0.1; fill:none" points="350.929,1486.45 350.929,47.2441 "/>
<polyline clip-path="url(#clip802)" style="stroke:#000000; stroke-linecap:round; stroke-linejoin:round; stroke-width:2; stroke-opacity:0.1; fill:none" points="759.189,1486.45 759.189,47.2441 "/>
<polyline clip-path="url(#clip802)" style="stroke:#000000; stroke-linecap:round; stroke-linejoin:round; stroke-width:2; stroke-opacity:0.1; fill:none" points="1167.45,1486.45 1167.45,47.2441 "/>
<polyline clip-path="url(#clip802)" style="stroke:#000000; stroke-linecap:round; stroke-linejoin:round; stroke-width:2; stroke-opacity:0.1; fill:none" points="1575.71,1486.45 1575.71,47.2441 "/>
<polyline clip-path="url(#clip802)" style="stroke:#000000; stroke-linecap:round; stroke-linejoin:round; stroke-width:2; stroke-opacity:0.1; fill:none" points="1983.97,1486.45 1983.97,47.2441 "/>
<polyline clip-path="url(#clip802)" style="stroke:#000000; stroke-linecap:round; stroke-linejoin:round; stroke-width:2; stroke-opacity:0.1; fill:none" points="193.936,1385.8 2352.76,1385.8 "/>
<polyline clip-path="url(#clip802)" style="stroke:#000000; stroke-linecap:round; stroke-linejoin:round; stroke-width:2; stroke-opacity:0.1; fill:none" points="193.936,1167.06 2352.76,1167.06 "/>
<polyline clip-path="url(#clip802)" style="stroke:#000000; stroke-linecap:round; stroke-linejoin:round; stroke-width:2; stroke-opacity:0.1; fill:none" points="193.936,948.309 2352.76,948.309 "/>
<polyline clip-path="url(#clip802)" style="stroke:#000000; stroke-linecap:round; stroke-linejoin:round; stroke-width:2; stroke-opacity:0.1; fill:none" points="193.936,729.563 2352.76,729.563 "/>
<polyline clip-path="url(#clip802)" style="stroke:#000000; stroke-linecap:round; stroke-linejoin:round; stroke-width:2; stroke-opacity:0.1; fill:none" points="193.936,510.817 2352.76,510.817 "/>
<polyline clip-path="url(#clip802)" style="stroke:#000000; stroke-linecap:round; stroke-linejoin:round; stroke-width:2; stroke-opacity:0.1; fill:none" points="193.936,292.071 2352.76,292.071 "/>
<polyline clip-path="url(#clip802)" style="stroke:#000000; stroke-linecap:round; stroke-linejoin:round; stroke-width:2; stroke-opacity:0.1; fill:none" points="193.936,73.3243 2352.76,73.3243 "/>
<polyline clip-path="url(#clip800)" style="stroke:#000000; stroke-linecap:round; stroke-linejoin:round; stroke-width:4; stroke-opacity:1; fill:none" points="193.936,1486.45 2352.76,1486.45 "/>
<polyline clip-path="url(#clip800)" style="stroke:#000000; stroke-linecap:round; stroke-linejoin:round; stroke-width:4; stroke-opacity:1; fill:none" points="350.929,1486.45 350.929,1467.55 "/>
<polyline clip-path="url(#clip800)" style="stroke:#000000; stroke-linecap:round; stroke-linejoin:round; stroke-width:4; stroke-opacity:1; fill:none" points="759.189,1486.45 759.189,1467.55 "/>
<polyline clip-path="url(#clip800)" style="stroke:#000000; stroke-linecap:round; stroke-linejoin:round; stroke-width:4; stroke-opacity:1; fill:none" points="1167.45,1486.45 1167.45,1467.55 "/>
<polyline clip-path="url(#clip800)" style="stroke:#000000; stroke-linecap:round; stroke-linejoin:round; stroke-width:4; stroke-opacity:1; fill:none" points="1575.71,1486.45 1575.71,1467.55 "/>
<polyline clip-path="url(#clip800)" style="stroke:#000000; stroke-linecap:round; stroke-linejoin:round; stroke-width:4; stroke-opacity:1; fill:none" points="1983.97,1486.45 1983.97,1467.55 "/>
<path clip-path="url(#clip800)" d="M320.397 1532.02 L350.072 1532.02 L350.072 1535.95 L320.397 1535.95 L320.397 1532.02 Z" fill="#000000" fill-rule="nonzero" fill-opacity="1" /><path clip-path="url(#clip800)" d="M374.331 1530.21 Q377.688 1530.93 379.563 1533.2 Q381.461 1535.47 381.461 1538.8 Q381.461 1543.92 377.943 1546.72 Q374.424 1549.52 367.943 1549.52 Q365.767 1549.52 363.452 1549.08 Q361.16 1548.66 358.707 1547.81 L358.707 1543.29 Q360.651 1544.43 362.966 1545.01 Q365.281 1545.58 367.804 1545.58 Q372.202 1545.58 374.493 1543.85 Q376.808 1542.11 376.808 1538.8 Q376.808 1535.75 374.655 1534.03 Q372.526 1532.3 368.706 1532.3 L364.679 1532.3 L364.679 1528.45 L368.892 1528.45 Q372.341 1528.45 374.169 1527.09 Q375.998 1525.7 375.998 1523.11 Q375.998 1520.45 374.1 1519.03 Q372.225 1517.6 368.706 1517.6 Q366.785 1517.6 364.586 1518.01 Q362.387 1518.43 359.748 1519.31 L359.748 1515.14 Q362.41 1514.4 364.725 1514.03 Q367.063 1513.66 369.123 1513.66 Q374.447 1513.66 377.549 1516.09 Q380.651 1518.5 380.651 1522.62 Q380.651 1525.49 379.007 1527.48 Q377.364 1529.45 374.331 1530.21 Z" fill="#000000" fill-rule="nonzero" fill-opacity="1" /><path clip-path="url(#clip800)" d="M729.131 1532.02 L758.807 1532.02 L758.807 1535.95 L729.131 1535.95 L729.131 1532.02 Z" fill="#000000" fill-rule="nonzero" fill-opacity="1" /><path clip-path="url(#clip800)" d="M772.927 1544.91 L789.247 1544.91 L789.247 1548.85 L767.303 1548.85 L767.303 1544.91 Q769.965 1542.16 774.548 1537.53 Q779.154 1532.88 780.335 1531.53 Q782.58 1529.01 783.46 1527.27 Q784.363 1525.51 784.363 1523.82 Q784.363 1521.07 782.418 1519.33 Q780.497 1517.6 777.395 1517.6 Q775.196 1517.6 772.742 1518.36 Q770.312 1519.13 767.534 1520.68 L767.534 1515.95 Q770.358 1514.82 772.812 1514.24 Q775.265 1513.66 777.302 1513.66 Q782.673 1513.66 785.867 1516.35 Q789.062 1519.03 789.062 1523.52 Q789.062 1525.65 788.251 1527.57 Q787.464 1529.47 785.358 1532.07 Q784.779 1532.74 781.677 1535.95 Q778.576 1539.15 772.927 1544.91 Z" fill="#000000" fill-rule="nonzero" fill-opacity="1" /><path clip-path="url(#clip800)" d="M1137.21 1532.02 L1166.88 1532.02 L1166.88 1535.95 L1137.21 1535.95 L1137.21 1532.02 Z" fill="#000000" fill-rule="nonzero" fill-opacity="1" /><path clip-path="url(#clip800)" d="M1177.79 1544.91 L1185.42 1544.91 L1185.42 1518.55 L1177.11 1520.21 L1177.11 1515.95 L1185.38 1514.29 L1190.05 1514.29 L1190.05 1544.91 L1197.69 1544.91 L1197.69 1548.85 L1177.79 1548.85 L1177.79 1544.91 Z" fill="#000000" fill-rule="nonzero" fill-opacity="1" /><path clip-path="url(#clip800)" d="M1575.71 1517.37 Q1572.1 1517.37 1570.27 1520.93 Q1568.46 1524.47 1568.46 1531.6 Q1568.46 1538.71 1570.27 1542.27 Q1572.1 1545.82 1575.71 1545.82 Q1579.34 1545.82 1581.15 1542.27 Q1582.98 1538.71 1582.98 1531.6 Q1582.98 1524.47 1581.15 1520.93 Q1579.34 1517.37 1575.71 1517.37 M1575.71 1513.66 Q1581.52 1513.66 1584.58 1518.27 Q1587.65 1522.85 1587.65 1531.6 Q1587.65 1540.33 1584.58 1544.94 Q1581.52 1549.52 1575.71 1549.52 Q1569.9 1549.52 1566.82 1544.94 Q1563.77 1540.33 1563.77 1531.6 Q1563.77 1522.85 1566.82 1518.27 Q1569.9 1513.66 1575.71 1513.66 Z" fill="#000000" fill-rule="nonzero" fill-opacity="1" /><path clip-path="url(#clip800)" d="M1974.35 1544.91 L1981.99 1544.91 L1981.99 1518.55 L1973.68 1520.21 L1973.68 1515.95 L1981.94 1514.29 L1986.62 1514.29 L1986.62 1544.91 L1994.26 1544.91 L1994.26 1548.85 L1974.35 1548.85 L1974.35 1544.91 Z" fill="#000000" fill-rule="nonzero" fill-opacity="1" /><polyline clip-path="url(#clip800)" style="stroke:#000000; stroke-linecap:round; stroke-linejoin:round; stroke-width:4; stroke-opacity:1; fill:none" points="193.936,1486.45 193.936,47.2441 "/>
<polyline clip-path="url(#clip800)" style="stroke:#000000; stroke-linecap:round; stroke-linejoin:round; stroke-width:4; stroke-opacity:1; fill:none" points="193.936,1385.8 212.834,1385.8 "/>
<polyline clip-path="url(#clip800)" style="stroke:#000000; stroke-linecap:round; stroke-linejoin:round; stroke-width:4; stroke-opacity:1; fill:none" points="193.936,1167.06 212.834,1167.06 "/>
<polyline clip-path="url(#clip800)" style="stroke:#000000; stroke-linecap:round; stroke-linejoin:round; stroke-width:4; stroke-opacity:1; fill:none" points="193.936,948.309 212.834,948.309 "/>
<polyline clip-path="url(#clip800)" style="stroke:#000000; stroke-linecap:round; stroke-linejoin:round; stroke-width:4; stroke-opacity:1; fill:none" points="193.936,729.563 212.834,729.563 "/>
<polyline clip-path="url(#clip800)" style="stroke:#000000; stroke-linecap:round; stroke-linejoin:round; stroke-width:4; stroke-opacity:1; fill:none" points="193.936,510.817 212.834,510.817 "/>
<polyline clip-path="url(#clip800)" style="stroke:#000000; stroke-linecap:round; stroke-linejoin:round; stroke-width:4; stroke-opacity:1; fill:none" points="193.936,292.071 212.834,292.071 "/>
<polyline clip-path="url(#clip800)" style="stroke:#000000; stroke-linecap:round; stroke-linejoin:round; stroke-width:4; stroke-opacity:1; fill:none" points="193.936,73.3243 212.834,73.3243 "/>
<path clip-path="url(#clip800)" d="M51.9875 1386.25 L81.6633 1386.25 L81.6633 1390.19 L51.9875 1390.19 L51.9875 1386.25 Z" fill="#000000" fill-rule="nonzero" fill-opacity="1" /><path clip-path="url(#clip800)" d="M92.566 1399.15 L100.205 1399.15 L100.205 1372.78 L91.8947 1374.45 L91.8947 1370.19 L100.159 1368.52 L104.834 1368.52 L104.834 1399.15 L112.473 1399.15 L112.473 1403.08 L92.566 1403.08 L92.566 1399.15 Z" fill="#000000" fill-rule="nonzero" fill-opacity="1" /><path clip-path="url(#clip800)" d="M121.918 1397.2 L126.802 1397.2 L126.802 1403.08 L121.918 1403.08 L121.918 1397.2 Z" fill="#000000" fill-rule="nonzero" fill-opacity="1" /><path clip-path="url(#clip800)" d="M137.033 1368.52 L155.39 1368.52 L155.39 1372.46 L141.316 1372.46 L141.316 1380.93 Q142.334 1380.58 143.353 1380.42 Q144.371 1380.23 145.39 1380.23 Q151.177 1380.23 154.556 1383.41 Q157.936 1386.58 157.936 1391.99 Q157.936 1397.57 154.464 1400.67 Q150.992 1403.75 144.672 1403.75 Q142.496 1403.75 140.228 1403.38 Q137.982 1403.01 135.575 1402.27 L135.575 1397.57 Q137.658 1398.71 139.881 1399.26 Q142.103 1399.82 144.58 1399.82 Q148.584 1399.82 150.922 1397.71 Q153.26 1395.6 153.26 1391.99 Q153.26 1388.38 150.922 1386.28 Q148.584 1384.17 144.58 1384.17 Q142.705 1384.17 140.83 1384.59 Q138.978 1385 137.033 1385.88 L137.033 1368.52 Z" fill="#000000" fill-rule="nonzero" fill-opacity="1" /><path clip-path="url(#clip800)" d="M50.9921 1167.51 L80.6679 1167.51 L80.6679 1171.44 L50.9921 1171.44 L50.9921 1167.51 Z" fill="#000000" fill-rule="nonzero" fill-opacity="1" /><path clip-path="url(#clip800)" d="M91.5706 1180.4 L99.2095 1180.4 L99.2095 1154.03 L90.8993 1155.7 L90.8993 1151.44 L99.1632 1149.78 L103.839 1149.78 L103.839 1180.4 L111.478 1180.4 L111.478 1184.34 L91.5706 1184.34 L91.5706 1180.4 Z" fill="#000000" fill-rule="nonzero" fill-opacity="1" /><path clip-path="url(#clip800)" d="M120.922 1178.46 L125.807 1178.46 L125.807 1184.34 L120.922 1184.34 L120.922 1178.46 Z" fill="#000000" fill-rule="nonzero" fill-opacity="1" /><path clip-path="url(#clip800)" d="M145.992 1152.85 Q142.381 1152.85 140.552 1156.42 Q138.746 1159.96 138.746 1167.09 Q138.746 1174.2 140.552 1177.76 Q142.381 1181.3 145.992 1181.3 Q149.626 1181.3 151.431 1177.76 Q153.26 1174.2 153.26 1167.09 Q153.26 1159.96 151.431 1156.42 Q149.626 1152.85 145.992 1152.85 M145.992 1149.15 Q151.802 1149.15 154.857 1153.76 Q157.936 1158.34 157.936 1167.09 Q157.936 1175.82 154.857 1180.42 Q151.802 1185.01 145.992 1185.01 Q140.181 1185.01 137.103 1180.42 Q134.047 1175.82 134.047 1167.09 Q134.047 1158.34 137.103 1153.76 Q140.181 1149.15 145.992 1149.15 Z" fill="#000000" fill-rule="nonzero" fill-opacity="1" /><path clip-path="url(#clip800)" d="M51.9875 948.76 L81.6633 948.76 L81.6633 952.696 L51.9875 952.696 L51.9875 948.76 Z" fill="#000000" fill-rule="nonzero" fill-opacity="1" /><path clip-path="url(#clip800)" d="M101.756 934.108 Q98.1447 934.108 96.316 937.673 Q94.5104 941.214 94.5104 948.344 Q94.5104 955.45 96.316 959.015 Q98.1447 962.557 101.756 962.557 Q105.39 962.557 107.196 959.015 Q109.024 955.45 109.024 948.344 Q109.024 941.214 107.196 937.673 Q105.39 934.108 101.756 934.108 M101.756 930.404 Q107.566 930.404 110.621 935.011 Q113.7 939.594 113.7 948.344 Q113.7 957.071 110.621 961.677 Q107.566 966.26 101.756 966.26 Q95.9456 966.26 92.8669 961.677 Q89.8114 957.071 89.8114 948.344 Q89.8114 939.594 92.8669 935.011 Q95.9456 930.404 101.756 930.404 Z" fill="#000000" fill-rule="nonzero" fill-opacity="1" /><path clip-path="url(#clip800)" d="M121.918 959.71 L126.802 959.71 L126.802 965.589 L121.918 965.589 L121.918 959.71 Z" fill="#000000" fill-rule="nonzero" fill-opacity="1" /><path clip-path="url(#clip800)" d="M137.033 931.029 L155.39 931.029 L155.39 934.964 L141.316 934.964 L141.316 943.436 Q142.334 943.089 143.353 942.927 Q144.371 942.742 145.39 942.742 Q151.177 942.742 154.556 945.913 Q157.936 949.085 157.936 954.501 Q157.936 960.08 154.464 963.182 Q150.992 966.26 144.672 966.26 Q142.496 966.26 140.228 965.89 Q137.982 965.52 135.575 964.779 L135.575 960.08 Q137.658 961.214 139.881 961.77 Q142.103 962.325 144.58 962.325 Q148.584 962.325 150.922 960.219 Q153.26 958.112 153.26 954.501 Q153.26 950.89 150.922 948.784 Q148.584 946.677 144.58 946.677 Q142.705 946.677 140.83 947.094 Q138.978 947.51 137.033 948.39 L137.033 931.029 Z" fill="#000000" fill-rule="nonzero" fill-opacity="1" /><path clip-path="url(#clip800)" d="M100.76 715.362 Q97.1493 715.362 95.3206 718.926 Q93.515 722.468 93.515 729.598 Q93.515 736.704 95.3206 740.269 Q97.1493 743.811 100.76 743.811 Q104.395 743.811 106.2 740.269 Q108.029 736.704 108.029 729.598 Q108.029 722.468 106.2 718.926 Q104.395 715.362 100.76 715.362 M100.76 711.658 Q106.571 711.658 109.626 716.264 Q112.705 720.848 112.705 729.598 Q112.705 738.324 109.626 742.931 Q106.571 747.514 100.76 747.514 Q94.9502 747.514 91.8715 742.931 Q88.816 738.324 88.816 729.598 Q88.816 720.848 91.8715 716.264 Q94.9502 711.658 100.76 711.658 Z" fill="#000000" fill-rule="nonzero" fill-opacity="1" /><path clip-path="url(#clip800)" d="M120.922 740.963 L125.807 740.963 L125.807 746.843 L120.922 746.843 L120.922 740.963 Z" fill="#000000" fill-rule="nonzero" fill-opacity="1" /><path clip-path="url(#clip800)" d="M145.992 715.362 Q142.381 715.362 140.552 718.926 Q138.746 722.468 138.746 729.598 Q138.746 736.704 140.552 740.269 Q142.381 743.811 145.992 743.811 Q149.626 743.811 151.431 740.269 Q153.26 736.704 153.26 729.598 Q153.26 722.468 151.431 718.926 Q149.626 715.362 145.992 715.362 M145.992 711.658 Q151.802 711.658 154.857 716.264 Q157.936 720.848 157.936 729.598 Q157.936 738.324 154.857 742.931 Q151.802 747.514 145.992 747.514 Q140.181 747.514 137.103 742.931 Q134.047 738.324 134.047 729.598 Q134.047 720.848 137.103 716.264 Q140.181 711.658 145.992 711.658 Z" fill="#000000" fill-rule="nonzero" fill-opacity="1" /><path clip-path="url(#clip800)" d="M101.756 496.615 Q98.1447 496.615 96.316 500.18 Q94.5104 503.722 94.5104 510.851 Q94.5104 517.958 96.316 521.523 Q98.1447 525.064 101.756 525.064 Q105.39 525.064 107.196 521.523 Q109.024 517.958 109.024 510.851 Q109.024 503.722 107.196 500.18 Q105.39 496.615 101.756 496.615 M101.756 492.912 Q107.566 492.912 110.621 497.518 Q113.7 502.101 113.7 510.851 Q113.7 519.578 110.621 524.185 Q107.566 528.768 101.756 528.768 Q95.9456 528.768 92.8669 524.185 Q89.8114 519.578 89.8114 510.851 Q89.8114 502.101 92.8669 497.518 Q95.9456 492.912 101.756 492.912 Z" fill="#000000" fill-rule="nonzero" fill-opacity="1" /><path clip-path="url(#clip800)" d="M121.918 522.217 L126.802 522.217 L126.802 528.097 L121.918 528.097 L121.918 522.217 Z" fill="#000000" fill-rule="nonzero" fill-opacity="1" /><path clip-path="url(#clip800)" d="M137.033 493.537 L155.39 493.537 L155.39 497.472 L141.316 497.472 L141.316 505.944 Q142.334 505.597 143.353 505.435 Q144.371 505.25 145.39 505.25 Q151.177 505.25 154.556 508.421 Q157.936 511.592 157.936 517.009 Q157.936 522.587 154.464 525.689 Q150.992 528.768 144.672 528.768 Q142.496 528.768 140.228 528.398 Q137.982 528.027 135.575 527.287 L135.575 522.587 Q137.658 523.722 139.881 524.277 Q142.103 524.833 144.58 524.833 Q148.584 524.833 150.922 522.726 Q153.26 520.62 153.26 517.009 Q153.26 513.398 150.922 511.291 Q148.584 509.185 144.58 509.185 Q142.705 509.185 140.83 509.601 Q138.978 510.018 137.033 510.898 L137.033 493.537 Z" fill="#000000" fill-rule="nonzero" fill-opacity="1" /><path clip-path="url(#clip800)" d="M91.5706 305.415 L99.2095 305.415 L99.2095 279.05 L90.8993 280.716 L90.8993 276.457 L99.1632 274.791 L103.839 274.791 L103.839 305.415 L111.478 305.415 L111.478 309.351 L91.5706 309.351 L91.5706 305.415 Z" fill="#000000" fill-rule="nonzero" fill-opacity="1" /><path clip-path="url(#clip800)" d="M120.922 303.471 L125.807 303.471 L125.807 309.351 L120.922 309.351 L120.922 303.471 Z" fill="#000000" fill-rule="nonzero" fill-opacity="1" /><path clip-path="url(#clip800)" d="M145.992 277.869 Q142.381 277.869 140.552 281.434 Q138.746 284.976 138.746 292.105 Q138.746 299.212 140.552 302.776 Q142.381 306.318 145.992 306.318 Q149.626 306.318 151.431 302.776 Q153.26 299.212 153.26 292.105 Q153.26 284.976 151.431 281.434 Q149.626 277.869 145.992 277.869 M145.992 274.166 Q151.802 274.166 154.857 278.772 Q157.936 283.355 157.936 292.105 Q157.936 300.832 154.857 305.439 Q151.802 310.022 145.992 310.022 Q140.181 310.022 137.103 305.439 Q134.047 300.832 134.047 292.105 Q134.047 283.355 137.103 278.772 Q140.181 274.166 145.992 274.166 Z" fill="#000000" fill-rule="nonzero" fill-opacity="1" /><path clip-path="url(#clip800)" d="M92.566 86.6692 L100.205 86.6692 L100.205 60.3036 L91.8947 61.9702 L91.8947 57.711 L100.159 56.0443 L104.834 56.0443 L104.834 86.6692 L112.473 86.6692 L112.473 90.6043 L92.566 90.6043 L92.566 86.6692 Z" fill="#000000" fill-rule="nonzero" fill-opacity="1" /><path clip-path="url(#clip800)" d="M121.918 84.7247 L126.802 84.7247 L126.802 90.6043 L121.918 90.6043 L121.918 84.7247 Z" fill="#000000" fill-rule="nonzero" fill-opacity="1" /><path clip-path="url(#clip800)" d="M137.033 56.0443 L155.39 56.0443 L155.39 59.9795 L141.316 59.9795 L141.316 68.4517 Q142.334 68.1044 143.353 67.9424 Q144.371 67.7572 145.39 67.7572 Q151.177 67.7572 154.556 70.9285 Q157.936 74.0998 157.936 79.5164 Q157.936 85.0951 154.464 88.1969 Q150.992 91.2756 144.672 91.2756 Q142.496 91.2756 140.228 90.9053 Q137.982 90.5349 135.575 89.7941 L135.575 85.0951 Q137.658 86.2294 139.881 86.7849 Q142.103 87.3405 144.58 87.3405 Q148.584 87.3405 150.922 85.234 Q153.26 83.1275 153.26 79.5164 Q153.26 75.9053 150.922 73.7989 Q148.584 71.6924 144.58 71.6924 Q142.705 71.6924 140.83 72.1091 Q138.978 72.5257 137.033 73.4053 L137.033 56.0443 Z" fill="#000000" fill-rule="nonzero" fill-opacity="1" /><circle clip-path="url(#clip802)" cx="255.035" cy="271.054" r="14.4" fill="#009af9" fill-rule="evenodd" fill-opacity="0.5" stroke="#000000" stroke-opacity="0.5" stroke-width="3.2"/>
<circle clip-path="url(#clip802)" cx="1691.21" cy="831.569" r="14.4" fill="#009af9" fill-rule="evenodd" fill-opacity="0.5" stroke="#000000" stroke-opacity="0.5" stroke-width="3.2"/>
<circle clip-path="url(#clip802)" cx="2064.46" cy="770.004" r="14.4" fill="#009af9" fill-rule="evenodd" fill-opacity="0.5" stroke="#000000" stroke-opacity="0.5" stroke-width="3.2"/>
<circle clip-path="url(#clip802)" cx="1684.31" cy="1037.95" r="14.4" fill="#009af9" fill-rule="evenodd" fill-opacity="0.5" stroke="#000000" stroke-opacity="0.5" stroke-width="3.2"/>
<circle clip-path="url(#clip802)" cx="2291.66" cy="923.362" r="14.4" fill="#009af9" fill-rule="evenodd" fill-opacity="0.5" stroke="#000000" stroke-opacity="0.5" stroke-width="3.2"/>
<circle clip-path="url(#clip802)" cx="1931.58" cy="1015.21" r="14.4" fill="#009af9" fill-rule="evenodd" fill-opacity="0.5" stroke="#000000" stroke-opacity="0.5" stroke-width="3.2"/>
<circle clip-path="url(#clip802)" cx="1376.74" cy="514.141" r="14.4" fill="#009af9" fill-rule="evenodd" fill-opacity="0.5" stroke="#000000" stroke-opacity="0.5" stroke-width="3.2"/>
<circle clip-path="url(#clip802)" cx="1897.83" cy="1086.66" r="14.4" fill="#009af9" fill-rule="evenodd" fill-opacity="0.5" stroke="#000000" stroke-opacity="0.5" stroke-width="3.2"/>
<circle clip-path="url(#clip802)" cx="1095.62" cy="596.849" r="14.4" fill="#009af9" fill-rule="evenodd" fill-opacity="0.5" stroke="#000000" stroke-opacity="0.5" stroke-width="3.2"/>
<circle clip-path="url(#clip802)" cx="1368.47" cy="465.571" r="14.4" fill="#009af9" fill-rule="evenodd" fill-opacity="0.5" stroke="#000000" stroke-opacity="0.5" stroke-width="3.2"/>
<circle clip-path="url(#clip802)" cx="1720.96" cy="835.845" r="14.4" fill="#009af9" fill-rule="evenodd" fill-opacity="0.5" stroke="#000000" stroke-opacity="0.5" stroke-width="3.2"/>
<circle clip-path="url(#clip802)" cx="1676.42" cy="366.95" r="14.4" fill="#009af9" fill-rule="evenodd" fill-opacity="0.5" stroke="#000000" stroke-opacity="0.5" stroke-width="3.2"/>
<circle clip-path="url(#clip802)" cx="1022.67" cy="814.467" r="14.4" fill="#009af9" fill-rule="evenodd" fill-opacity="0.5" stroke="#000000" stroke-opacity="0.5" stroke-width="3.2"/>
<circle clip-path="url(#clip802)" cx="1981.69" cy="378.704" r="14.4" fill="#009af9" fill-rule="evenodd" fill-opacity="0.5" stroke="#000000" stroke-opacity="0.5" stroke-width="3.2"/>
<circle clip-path="url(#clip802)" cx="1893.87" cy="428.084" r="14.4" fill="#009af9" fill-rule="evenodd" fill-opacity="0.5" stroke="#000000" stroke-opacity="0.5" stroke-width="3.2"/>
<circle clip-path="url(#clip802)" cx="1528.27" cy="712.535" r="14.4" fill="#009af9" fill-rule="evenodd" fill-opacity="0.5" stroke="#000000" stroke-opacity="0.5" stroke-width="3.2"/>
<circle clip-path="url(#clip802)" cx="1605.26" cy="1119.52" r="14.4" fill="#009af9" fill-rule="evenodd" fill-opacity="0.5" stroke="#000000" stroke-opacity="0.5" stroke-width="3.2"/>
<circle clip-path="url(#clip802)" cx="1591.29" cy="279.872" r="14.4" fill="#009af9" fill-rule="evenodd" fill-opacity="0.5" stroke="#000000" stroke-opacity="0.5" stroke-width="3.2"/>
<circle clip-path="url(#clip802)" cx="1444.99" cy="87.9763" r="14.4" fill="#009af9" fill-rule="evenodd" fill-opacity="0.5" stroke="#000000" stroke-opacity="0.5" stroke-width="3.2"/>
<circle clip-path="url(#clip802)" cx="758.411" cy="603.104" r="14.4" fill="#009af9" fill-rule="evenodd" fill-opacity="0.5" stroke="#000000" stroke-opacity="0.5" stroke-width="3.2"/>
<circle clip-path="url(#clip802)" cx="2082.53" cy="1445.72" r="14.4" fill="#009af9" fill-rule="evenodd" fill-opacity="0.5" stroke="#000000" stroke-opacity="0.5" stroke-width="3.2"/>
<circle clip-path="url(#clip802)" cx="2103.73" cy="343.333" r="14.4" fill="#009af9" fill-rule="evenodd" fill-opacity="0.5" stroke="#000000" stroke-opacity="0.5" stroke-width="3.2"/>
<circle clip-path="url(#clip802)" cx="1795.28" cy="422.32" r="14.4" fill="#009af9" fill-rule="evenodd" fill-opacity="0.5" stroke="#000000" stroke-opacity="0.5" stroke-width="3.2"/>
<circle clip-path="url(#clip802)" cx="1445.69" cy="922.95" r="14.4" fill="#009af9" fill-rule="evenodd" fill-opacity="0.5" stroke="#000000" stroke-opacity="0.5" stroke-width="3.2"/>
<circle clip-path="url(#clip802)" cx="1154.29" cy="1235.88" r="14.4" fill="#009af9" fill-rule="evenodd" fill-opacity="0.5" stroke="#000000" stroke-opacity="0.5" stroke-width="3.2"/>
<circle clip-path="url(#clip802)" cx="1641.37" cy="824.942" r="14.4" fill="#009af9" fill-rule="evenodd" fill-opacity="0.5" stroke="#000000" stroke-opacity="0.5" stroke-width="3.2"/>
<circle clip-path="url(#clip802)" cx="1803.87" cy="453.617" r="14.4" fill="#009af9" fill-rule="evenodd" fill-opacity="0.5" stroke="#000000" stroke-opacity="0.5" stroke-width="3.2"/>
<circle clip-path="url(#clip802)" cx="1792.41" cy="1002.14" r="14.4" fill="#009af9" fill-rule="evenodd" fill-opacity="0.5" stroke="#000000" stroke-opacity="0.5" stroke-width="3.2"/>
<circle clip-path="url(#clip802)" cx="467.826" cy="448.394" r="14.4" fill="#009af9" fill-rule="evenodd" fill-opacity="0.5" stroke="#000000" stroke-opacity="0.5" stroke-width="3.2"/>
<circle clip-path="url(#clip802)" cx="890.493" cy="1246.87" r="14.4" fill="#009af9" fill-rule="evenodd" fill-opacity="0.5" stroke="#000000" stroke-opacity="0.5" stroke-width="3.2"/>
<path clip-path="url(#clip802)" d="M255.035 271.054 L890.493 1246.87 L2082.53 1445.72 L2291.66 923.362 L2103.73 343.333 L1444.99 87.9763 L255.035 271.054 L255.035 271.054  Z" fill="#e26f46" fill-rule="evenodd" fill-opacity="0.2"/>
<polyline clip-path="url(#clip802)" style="stroke:#000000; stroke-linecap:round; stroke-linejoin:round; stroke-width:4; stroke-opacity:0.2; fill:none" points="255.035,271.054 890.493,1246.87 2082.53,1445.72 2291.66,923.362 2103.73,343.333 1444.99,87.9763 255.035,271.054 "/>
</svg>
