<?xml version="1.0" encoding="utf-8"?>
<svg xmlns="http://www.w3.org/2000/svg" xmlns:xlink="http://www.w3.org/1999/xlink" width="600" height="400" viewBox="0 0 2400 1600">
<defs>
  <clipPath id="clip990">
    <rect x="0" y="0" width="2400" height="1600"/>
  </clipPath>
</defs>
<path clip-path="url(#clip990)" d="M0 1600 L2400 1600 L2400 0 L0 0  Z" fill="#ffffff" fill-rule="evenodd" fill-opacity="1"/>
<defs>
  <clipPath id="clip991">
    <rect x="147" y="47" width="2206" height="1440"/>
  </clipPath>
</defs>
<path clip-path="url(#clip990)" d="M147.478 1486.45 L2352.76 1486.45 L2352.76 47.2441 L147.478 47.2441  Z" fill="#ffffff" fill-rule="evenodd" fill-opacity="1"/>
<polyline clip-path="url(#clip991)" style="stroke:#000000; stroke-linecap:round; stroke-linejoin:round; stroke-width:2; stroke-opacity:0.1; fill:none" points="177.408,1486.45 177.408,47.2441 "/>
<polyline clip-path="url(#clip991)" style="stroke:#000000; stroke-linecap:round; stroke-linejoin:round; stroke-width:2; stroke-opacity:0.1; fill:none" points="606.176,1486.45 606.176,47.2441 "/>
<polyline clip-path="url(#clip991)" style="stroke:#000000; stroke-linecap:round; stroke-linejoin:round; stroke-width:2; stroke-opacity:0.1; fill:none" points="1034.94,1486.45 1034.94,47.2441 "/>
<polyline clip-path="url(#clip991)" style="stroke:#000000; stroke-linecap:round; stroke-linejoin:round; stroke-width:2; stroke-opacity:0.1; fill:none" points="1463.71,1486.45 1463.71,47.2441 "/>
<polyline clip-path="url(#clip991)" style="stroke:#000000; stroke-linecap:round; stroke-linejoin:round; stroke-width:2; stroke-opacity:0.1; fill:none" points="1892.48,1486.45 1892.48,47.2441 "/>
<polyline clip-path="url(#clip991)" style="stroke:#000000; stroke-linecap:round; stroke-linejoin:round; stroke-width:2; stroke-opacity:0.1; fill:none" points="2321.25,1486.45 2321.25,47.2441 "/>
<polyline clip-path="url(#clip991)" style="stroke:#000000; stroke-linecap:round; stroke-linejoin:round; stroke-width:2; stroke-opacity:0.1; fill:none" points="147.478,1439.13 2352.76,1439.13 "/>
<polyline clip-path="url(#clip991)" style="stroke:#000000; stroke-linecap:round; stroke-linejoin:round; stroke-width:2; stroke-opacity:0.1; fill:none" points="147.478,1127.88 2352.76,1127.88 "/>
<polyline clip-path="url(#clip991)" style="stroke:#000000; stroke-linecap:round; stroke-linejoin:round; stroke-width:2; stroke-opacity:0.1; fill:none" points="147.478,816.628 2352.76,816.628 "/>
<polyline clip-path="url(#clip991)" style="stroke:#000000; stroke-linecap:round; stroke-linejoin:round; stroke-width:2; stroke-opacity:0.1; fill:none" points="147.478,505.379 2352.76,505.379 "/>
<polyline clip-path="url(#clip991)" style="stroke:#000000; stroke-linecap:round; stroke-linejoin:round; stroke-width:2; stroke-opacity:0.1; fill:none" points="147.478,194.13 2352.76,194.13 "/>
<polyline clip-path="url(#clip990)" style="stroke:#000000; stroke-linecap:round; stroke-linejoin:round; stroke-width:4; stroke-opacity:1; fill:none" points="147.478,1486.45 2352.76,1486.45 "/>
<polyline clip-path="url(#clip990)" style="stroke:#000000; stroke-linecap:round; stroke-linejoin:round; stroke-width:4; stroke-opacity:1; fill:none" points="177.408,1486.45 177.408,1467.55 "/>
<polyline clip-path="url(#clip990)" style="stroke:#000000; stroke-linecap:round; stroke-linejoin:round; stroke-width:4; stroke-opacity:1; fill:none" points="606.176,1486.45 606.176,1467.55 "/>
<polyline clip-path="url(#clip990)" style="stroke:#000000; stroke-linecap:round; stroke-linejoin:round; stroke-width:4; stroke-opacity:1; fill:none" points="1034.94,1486.45 1034.94,1467.55 "/>
<polyline clip-path="url(#clip990)" style="stroke:#000000; stroke-linecap:round; stroke-linejoin:round; stroke-width:4; stroke-opacity:1; fill:none" points="1463.71,1486.45 1463.71,1467.55 "/>
<polyline clip-path="url(#clip990)" style="stroke:#000000; stroke-linecap:round; stroke-linejoin:round; stroke-width:4; stroke-opacity:1; fill:none" points="1892.48,1486.45 1892.48,1467.55 "/>
<polyline clip-path="url(#clip990)" style="stroke:#000000; stroke-linecap:round; stroke-linejoin:round; stroke-width:4; stroke-opacity:1; fill:none" points="2321.25,1486.45 2321.25,1467.55 "/>
<path clip-path="url(#clip990)" d="M124.434 1532.02 L154.11 1532.02 L154.11 1535.95 L124.434 1535.95 L124.434 1532.02 Z" fill="#000000" fill-rule="nonzero" fill-opacity="1" /><path clip-path="url(#clip990)" d="M165.012 1544.91 L172.651 1544.91 L172.651 1518.55 L164.341 1520.21 L164.341 1515.95 L172.605 1514.29 L177.281 1514.29 L177.281 1544.91 L184.92 1544.91 L184.92 1548.85 L165.012 1548.85 L165.012 1544.91 Z" fill="#000000" fill-rule="nonzero" fill-opacity="1" /><path clip-path="url(#clip990)" d="M194.364 1542.97 L199.248 1542.97 L199.248 1548.85 L194.364 1548.85 L194.364 1542.97 Z" fill="#000000" fill-rule="nonzero" fill-opacity="1" /><path clip-path="url(#clip990)" d="M209.48 1514.29 L227.836 1514.29 L227.836 1518.22 L213.762 1518.22 L213.762 1526.7 Q214.78 1526.35 215.799 1526.19 Q216.818 1526 217.836 1526 Q223.623 1526 227.003 1529.17 Q230.382 1532.34 230.382 1537.76 Q230.382 1543.34 226.91 1546.44 Q223.438 1549.52 217.118 1549.52 Q214.943 1549.52 212.674 1549.15 Q210.429 1548.78 208.021 1548.04 L208.021 1543.34 Q210.105 1544.47 212.327 1545.03 Q214.549 1545.58 217.026 1545.58 Q221.03 1545.58 223.368 1543.48 Q225.706 1541.37 225.706 1537.76 Q225.706 1534.15 223.368 1532.04 Q221.03 1529.94 217.026 1529.94 Q215.151 1529.94 213.276 1530.35 Q211.424 1530.77 209.48 1531.65 L209.48 1514.29 Z" fill="#000000" fill-rule="nonzero" fill-opacity="1" /><path clip-path="url(#clip990)" d="M552.704 1532.02 L582.379 1532.02 L582.379 1535.95 L552.704 1535.95 L552.704 1532.02 Z" fill="#000000" fill-rule="nonzero" fill-opacity="1" /><path clip-path="url(#clip990)" d="M593.282 1544.91 L600.921 1544.91 L600.921 1518.55 L592.611 1520.21 L592.611 1515.95 L600.875 1514.29 L605.551 1514.29 L605.551 1544.91 L613.19 1544.91 L613.19 1548.85 L593.282 1548.85 L593.282 1544.91 Z" fill="#000000" fill-rule="nonzero" fill-opacity="1" /><path clip-path="url(#clip990)" d="M622.634 1542.97 L627.518 1542.97 L627.518 1548.85 L622.634 1548.85 L622.634 1542.97 Z" fill="#000000" fill-rule="nonzero" fill-opacity="1" /><path clip-path="url(#clip990)" d="M647.703 1517.37 Q644.092 1517.37 642.263 1520.93 Q640.458 1524.47 640.458 1531.6 Q640.458 1538.71 642.263 1542.27 Q644.092 1545.82 647.703 1545.82 Q651.337 1545.82 653.143 1542.27 Q654.972 1538.71 654.972 1531.6 Q654.972 1524.47 653.143 1520.93 Q651.337 1517.37 647.703 1517.37 M647.703 1513.66 Q653.513 1513.66 656.569 1518.27 Q659.648 1522.85 659.648 1531.6 Q659.648 1540.33 656.569 1544.94 Q653.513 1549.52 647.703 1549.52 Q641.893 1549.52 638.814 1544.94 Q635.759 1540.33 635.759 1531.6 Q635.759 1522.85 638.814 1518.27 Q641.893 1513.66 647.703 1513.66 Z" fill="#000000" fill-rule="nonzero" fill-opacity="1" /><path clip-path="url(#clip990)" d="M981.969 1532.02 L1011.64 1532.02 L1011.64 1535.95 L981.969 1535.95 L981.969 1532.02 Z" fill="#000000" fill-rule="nonzero" fill-opacity="1" /><path clip-path="url(#clip990)" d="M1031.74 1517.37 Q1028.13 1517.37 1026.3 1520.93 Q1024.49 1524.47 1024.49 1531.6 Q1024.49 1538.71 1026.3 1542.27 Q1028.13 1545.82 1031.74 1545.82 Q1035.37 1545.82 1037.18 1542.27 Q1039.01 1538.71 1039.01 1531.6 Q1039.01 1524.47 1037.18 1520.93 Q1035.37 1517.37 1031.74 1517.37 M1031.74 1513.66 Q1037.55 1513.66 1040.6 1518.27 Q1043.68 1522.85 1043.68 1531.6 Q1043.68 1540.33 1040.6 1544.94 Q1037.55 1549.52 1031.74 1549.52 Q1025.93 1549.52 1022.85 1544.94 Q1019.79 1540.33 1019.79 1531.6 Q1019.79 1522.85 1022.85 1518.27 Q1025.93 1513.66 1031.74 1513.66 Z" fill="#000000" fill-rule="nonzero" fill-opacity="1" /><path clip-path="url(#clip990)" d="M1051.9 1542.97 L1056.78 1542.97 L1056.78 1548.85 L1051.9 1548.85 L1051.9 1542.97 Z" fill="#000000" fill-rule="nonzero" fill-opacity="1" /><path clip-path="url(#clip990)" d="M1067.01 1514.29 L1085.37 1514.29 L1085.37 1518.22 L1071.3 1518.22 L1071.3 1526.7 Q1072.32 1526.35 1073.33 1526.19 Q1074.35 1526 1075.37 1526 Q1081.16 1526 1084.54 1529.17 Q1087.92 1532.34 1087.92 1537.76 Q1087.92 1543.34 1084.45 1546.44 Q1080.97 1549.52 1074.65 1549.52 Q1072.48 1549.52 1070.21 1549.15 Q1067.96 1548.78 1065.56 1548.04 L1065.56 1543.34 Q1067.64 1544.47 1069.86 1545.03 Q1072.08 1545.58 1074.56 1545.58 Q1078.57 1545.58 1080.9 1543.48 Q1083.24 1541.37 1083.24 1537.76 Q1083.24 1534.15 1080.9 1532.04 Q1078.57 1529.94 1074.56 1529.94 Q1072.69 1529.94 1070.81 1530.35 Q1068.96 1530.77 1067.01 1531.65 L1067.01 1514.29 Z" fill="#000000" fill-rule="nonzero" fill-opacity="1" /><path clip-path="url(#clip990)" d="M1441.1 1517.37 Q1437.48 1517.37 1435.66 1520.93 Q1433.85 1524.47 1433.85 1531.6 Q1433.85 1538.71 1435.66 1542.27 Q1437.48 1545.82 1441.1 1545.82 Q1444.73 1545.82 1446.54 1542.27 Q1448.36 1538.71 1448.36 1531.6 Q1448.36 1524.47 1446.54 1520.93 Q1444.73 1517.37 1441.1 1517.37 M1441.1 1513.66 Q1446.91 1513.66 1449.96 1518.27 Q1453.04 1522.85 1453.04 1531.6 Q1453.04 1540.33 1449.96 1544.94 Q1446.91 1549.52 1441.1 1549.52 Q1435.29 1549.52 1432.21 1544.94 Q1429.15 1540.33 1429.15 1531.6 Q1429.15 1522.85 1432.21 1518.27 Q1435.29 1513.66 1441.1 1513.66 Z" fill="#000000" fill-rule="nonzero" fill-opacity="1" /><path clip-path="url(#clip990)" d="M1461.26 1542.97 L1466.14 1542.97 L1466.14 1548.85 L1461.26 1548.85 L1461.26 1542.97 Z" fill="#000000" fill-rule="nonzero" fill-opacity="1" /><path clip-path="url(#clip990)" d="M1486.33 1517.37 Q1482.72 1517.37 1480.89 1520.93 Q1479.08 1524.47 1479.08 1531.6 Q1479.08 1538.71 1480.89 1542.27 Q1482.72 1545.82 1486.33 1545.82 Q1489.96 1545.82 1491.77 1542.27 Q1493.6 1538.71 1493.6 1531.6 Q1493.6 1524.47 1491.77 1520.93 Q1489.96 1517.37 1486.33 1517.37 M1486.33 1513.66 Q1492.14 1513.66 1495.19 1518.27 Q1498.27 1522.85 1498.27 1531.6 Q1498.27 1540.33 1495.19 1544.94 Q1492.14 1549.52 1486.33 1549.52 Q1480.52 1549.52 1477.44 1544.94 Q1474.38 1540.33 1474.38 1531.6 Q1474.38 1522.85 1477.44 1518.27 Q1480.52 1513.66 1486.33 1513.66 Z" fill="#000000" fill-rule="nonzero" fill-opacity="1" /><path clip-path="url(#clip990)" d="M1870.36 1517.37 Q1866.75 1517.37 1864.92 1520.93 Q1863.12 1524.47 1863.12 1531.6 Q1863.12 1538.71 1864.92 1542.27 Q1866.75 1545.82 1870.36 1545.82 Q1873.99 1545.82 1875.8 1542.27 Q1877.63 1538.71 1877.63 1531.6 Q1877.63 1524.47 1875.8 1520.93 Q1873.99 1517.37 1870.36 1517.37 M1870.36 1513.66 Q1876.17 1513.66 1879.23 1518.27 Q1882.31 1522.85 1882.31 1531.6 Q1882.31 1540.33 1879.23 1544.94 Q1876.17 1549.52 1870.36 1549.52 Q1864.55 1549.52 1861.47 1544.94 Q1858.42 1540.33 1858.42 1531.6 Q1858.42 1522.85 1861.47 1518.27 Q1864.55 1513.66 1870.36 1513.66 Z" fill="#000000" fill-rule="nonzero" fill-opacity="1" /><path clip-path="url(#clip990)" d="M1890.52 1542.97 L1895.41 1542.97 L1895.41 1548.85 L1890.52 1548.85 L1890.52 1542.97 Z" fill="#000000" fill-rule="nonzero" fill-opacity="1" /><path clip-path="url(#clip990)" d="M1905.64 1514.29 L1923.99 1514.29 L1923.99 1518.22 L1909.92 1518.22 L1909.92 1526.7 Q1910.94 1526.35 1911.96 1526.19 Q1912.98 1526 1913.99 1526 Q1919.78 1526 1923.16 1529.17 Q1926.54 1532.34 1926.54 1537.76 Q1926.54 1543.34 1923.07 1546.44 Q1919.6 1549.52 1913.28 1549.52 Q1911.1 1549.52 1908.83 1549.15 Q1906.59 1548.78 1904.18 1548.04 L1904.18 1543.34 Q1906.26 1544.47 1908.49 1545.03 Q1910.71 1545.58 1913.18 1545.58 Q1917.19 1545.58 1919.53 1543.48 Q1921.87 1541.37 1921.87 1537.76 Q1921.87 1534.15 1919.53 1532.04 Q1917.19 1529.94 1913.18 1529.94 Q1911.31 1529.94 1909.43 1530.35 Q1907.58 1530.77 1905.64 1531.65 L1905.64 1514.29 Z" fill="#000000" fill-rule="nonzero" fill-opacity="1" /><path clip-path="url(#clip990)" d="M2288.4 1544.91 L2296.04 1544.91 L2296.04 1518.55 L2287.73 1520.21 L2287.73 1515.95 L2295.99 1514.29 L2300.67 1514.29 L2300.67 1544.91 L2308.31 1544.91 L2308.31 1548.85 L2288.4 1548.85 L2288.4 1544.91 Z" fill="#000000" fill-rule="nonzero" fill-opacity="1" /><path clip-path="url(#clip990)" d="M2317.75 1542.97 L2322.64 1542.97 L2322.64 1548.85 L2317.75 1548.85 L2317.75 1542.97 Z" fill="#000000" fill-rule="nonzero" fill-opacity="1" /><path clip-path="url(#clip990)" d="M2342.82 1517.37 Q2339.21 1517.37 2337.38 1520.93 Q2335.57 1524.47 2335.57 1531.6 Q2335.57 1538.71 2337.38 1542.27 Q2339.21 1545.82 2342.82 1545.82 Q2346.45 1545.82 2348.26 1542.27 Q2350.09 1538.71 2350.09 1531.6 Q2350.09 1524.47 2348.26 1520.93 Q2346.45 1517.37 2342.82 1517.37 M2342.82 1513.66 Q2348.63 1513.66 2351.69 1518.27 Q2354.76 1522.85 2354.76 1531.6 Q2354.76 1540.33 2351.69 1544.94 Q2348.63 1549.52 2342.82 1549.52 Q2337.01 1549.52 2333.93 1544.94 Q2330.88 1540.33 2330.88 1531.6 Q2330.88 1522.85 2333.93 1518.27 Q2337.01 1513.66 2342.82 1513.66 Z" fill="#000000" fill-rule="nonzero" fill-opacity="1" /><polyline clip-path="url(#clip990)" style="stroke:#000000; stroke-linecap:round; stroke-linejoin:round; stroke-width:4; stroke-opacity:1; fill:none" points="147.478,1486.45 147.478,47.2441 "/>
<polyline clip-path="url(#clip990)" style="stroke:#000000; stroke-linecap:round; stroke-linejoin:round; stroke-width:4; stroke-opacity:1; fill:none" points="147.478,1439.13 166.376,1439.13 "/>
<polyline clip-path="url(#clip990)" style="stroke:#000000; stroke-linecap:round; stroke-linejoin:round; stroke-width:4; stroke-opacity:1; fill:none" points="147.478,1127.88 166.376,1127.88 "/>
<polyline clip-path="url(#clip990)" style="stroke:#000000; stroke-linecap:round; stroke-linejoin:round; stroke-width:4; stroke-opacity:1; fill:none" points="147.478,816.628 166.376,816.628 "/>
<polyline clip-path="url(#clip990)" style="stroke:#000000; stroke-linecap:round; stroke-linejoin:round; stroke-width:4; stroke-opacity:1; fill:none" points="147.478,505.379 166.376,505.379 "/>
<polyline clip-path="url(#clip990)" style="stroke:#000000; stroke-linecap:round; stroke-linejoin:round; stroke-width:4; stroke-opacity:1; fill:none" points="147.478,194.13 166.376,194.13 "/>
<path clip-path="url(#clip990)" d="M51.3625 1439.58 L81.0383 1439.58 L81.0383 1443.51 L51.3625 1443.51 L51.3625 1439.58 Z" fill="#000000" fill-rule="nonzero" fill-opacity="1" /><path clip-path="url(#clip990)" d="M95.1586 1452.47 L111.478 1452.47 L111.478 1456.41 L89.5336 1456.41 L89.5336 1452.47 Q92.1956 1449.72 96.7789 1445.09 Q101.385 1440.43 102.566 1439.09 Q104.811 1436.57 105.691 1434.83 Q106.594 1433.07 106.594 1431.38 Q106.594 1428.63 104.649 1426.89 Q102.728 1425.16 99.6261 1425.16 Q97.4271 1425.16 94.9734 1425.92 Q92.5428 1426.68 89.7651 1428.24 L89.7651 1423.51 Q92.5891 1422.38 95.0428 1421.8 Q97.4965 1421.22 99.5335 1421.22 Q104.904 1421.22 108.098 1423.91 Q111.293 1426.59 111.293 1431.08 Q111.293 1433.21 110.483 1435.13 Q109.696 1437.03 107.589 1439.62 Q107.01 1440.3 103.909 1443.51 Q100.807 1446.71 95.1586 1452.47 Z" fill="#000000" fill-rule="nonzero" fill-opacity="1" /><path clip-path="url(#clip990)" d="M50.9921 1128.33 L80.6679 1128.33 L80.6679 1132.26 L50.9921 1132.26 L50.9921 1128.33 Z" fill="#000000" fill-rule="nonzero" fill-opacity="1" /><path clip-path="url(#clip990)" d="M91.5706 1141.22 L99.2095 1141.22 L99.2095 1114.86 L90.8993 1116.52 L90.8993 1112.26 L99.1632 1110.6 L103.839 1110.6 L103.839 1141.22 L111.478 1141.22 L111.478 1145.16 L91.5706 1145.16 L91.5706 1141.22 Z" fill="#000000" fill-rule="nonzero" fill-opacity="1" /><path clip-path="url(#clip990)" d="M99.5335 802.427 Q95.9224 802.427 94.0937 805.992 Q92.2882 809.534 92.2882 816.663 Q92.2882 823.77 94.0937 827.334 Q95.9224 830.876 99.5335 830.876 Q103.168 830.876 104.973 827.334 Q106.802 823.77 106.802 816.663 Q106.802 809.534 104.973 805.992 Q103.168 802.427 99.5335 802.427 M99.5335 798.723 Q105.344 798.723 108.399 803.33 Q111.478 807.913 111.478 816.663 Q111.478 825.39 108.399 829.996 Q105.344 834.58 99.5335 834.58 Q93.7234 834.58 90.6447 829.996 Q87.5892 825.39 87.5892 816.663 Q87.5892 807.913 90.6447 803.33 Q93.7234 798.723 99.5335 798.723 Z" fill="#000000" fill-rule="nonzero" fill-opacity="1" /><path clip-path="url(#clip990)" d="M91.5706 518.724 L99.2095 518.724 L99.2095 492.359 L90.8993 494.025 L90.8993 489.766 L99.1632 488.099 L103.839 488.099 L103.839 518.724 L111.478 518.724 L111.478 522.659 L91.5706 522.659 L91.5706 518.724 Z" fill="#000000" fill-rule="nonzero" fill-opacity="1" /><path clip-path="url(#clip990)" d="M95.1586 207.475 L111.478 207.475 L111.478 211.41 L89.5336 211.41 L89.5336 207.475 Q92.1956 204.721 96.7789 200.091 Q101.385 195.438 102.566 194.096 Q104.811 191.573 105.691 189.836 Q106.594 188.077 106.594 186.387 Q106.594 183.633 104.649 181.897 Q102.728 180.161 99.6261 180.161 Q97.4271 180.161 94.9734 180.925 Q92.5428 181.688 89.7651 183.239 L89.7651 178.517 Q92.5891 177.383 95.0428 176.804 Q97.4965 176.225 99.5335 176.225 Q104.904 176.225 108.098 178.911 Q111.293 181.596 111.293 186.087 Q111.293 188.216 110.483 190.137 Q109.696 192.036 107.589 194.628 Q107.01 195.299 103.909 198.517 Q100.807 201.711 95.1586 207.475 Z" fill="#000000" fill-rule="nonzero" fill-opacity="1" /><circle clip-path="url(#clip991)" cx="1562.57" cy="1049.91" r="14.4" fill="#009af9" fill-rule="evenodd" fill-opacity="0.5" stroke="#000000" stroke-opacity="0.5" stroke-width="3.2"/>
<circle clip-path="url(#clip991)" cx="2186.38" cy="575.111" r="14.4" fill="#009af9" fill-rule="evenodd" fill-opacity="0.5" stroke="#000000" stroke-opacity="0.5" stroke-width="3.2"/>
<circle clip-path="url(#clip991)" cx="1823.84" cy="943.804" r="14.4" fill="#009af9" fill-rule="evenodd" fill-opacity="0.5" stroke="#000000" stroke-opacity="0.5" stroke-width="3.2"/>
<circle clip-path="url(#clip991)" cx="1777.99" cy="1445.72" r="14.4" fill="#009af9" fill-rule="evenodd" fill-opacity="0.5" stroke="#000000" stroke-opacity="0.5" stroke-width="3.2"/>
<circle clip-path="url(#clip991)" cx="2037.39" cy="511.434" r="14.4" fill="#009af9" fill-rule="evenodd" fill-opacity="0.5" stroke="#000000" stroke-opacity="0.5" stroke-width="3.2"/>
<circle clip-path="url(#clip991)" cx="543.465" cy="1074.34" r="14.4" fill="#009af9" fill-rule="evenodd" fill-opacity="0.5" stroke="#000000" stroke-opacity="0.5" stroke-width="3.2"/>
<circle clip-path="url(#clip991)" cx="1631.65" cy="444.629" r="14.4" fill="#009af9" fill-rule="evenodd" fill-opacity="0.5" stroke="#000000" stroke-opacity="0.5" stroke-width="3.2"/>
<circle clip-path="url(#clip991)" cx="748.534" cy="666.507" r="14.4" fill="#009af9" fill-rule="evenodd" fill-opacity="0.5" stroke="#000000" stroke-opacity="0.5" stroke-width="3.2"/>
<circle clip-path="url(#clip991)" cx="887.877" cy="440.008" r="14.4" fill="#009af9" fill-rule="evenodd" fill-opacity="0.5" stroke="#000000" stroke-opacity="0.5" stroke-width="3.2"/>
<circle clip-path="url(#clip991)" cx="209.891" cy="739.602" r="14.4" fill="#009af9" fill-rule="evenodd" fill-opacity="0.5" stroke="#000000" stroke-opacity="0.5" stroke-width="3.2"/>
<circle clip-path="url(#clip991)" cx="2114.52" cy="1207.83" r="14.4" fill="#009af9" fill-rule="evenodd" fill-opacity="0.5" stroke="#000000" stroke-opacity="0.5" stroke-width="3.2"/>
<circle clip-path="url(#clip991)" cx="2282.03" cy="1170.01" r="14.4" fill="#009af9" fill-rule="evenodd" fill-opacity="0.5" stroke="#000000" stroke-opacity="0.5" stroke-width="3.2"/>
<circle clip-path="url(#clip991)" cx="1540.72" cy="590.308" r="14.4" fill="#009af9" fill-rule="evenodd" fill-opacity="0.5" stroke="#000000" stroke-opacity="0.5" stroke-width="3.2"/>
<circle clip-path="url(#clip991)" cx="1462.12" cy="1230.37" r="14.4" fill="#009af9" fill-rule="evenodd" fill-opacity="0.5" stroke="#000000" stroke-opacity="0.5" stroke-width="3.2"/>
<circle clip-path="url(#clip991)" cx="2290.34" cy="105.986" r="14.4" fill="#009af9" fill-rule="evenodd" fill-opacity="0.5" stroke="#000000" stroke-opacity="0.5" stroke-width="3.2"/>
<circle clip-path="url(#clip991)" cx="2016.28" cy="1128.92" r="14.4" fill="#009af9" fill-rule="evenodd" fill-opacity="0.5" stroke="#000000" stroke-opacity="0.5" stroke-width="3.2"/>
<circle clip-path="url(#clip991)" cx="2223.92" cy="749.531" r="14.4" fill="#009af9" fill-rule="evenodd" fill-opacity="0.5" stroke="#000000" stroke-opacity="0.5" stroke-width="3.2"/>
<circle clip-path="url(#clip991)" cx="1296.03" cy="548.094" r="14.4" fill="#009af9" fill-rule="evenodd" fill-opacity="0.5" stroke="#000000" stroke-opacity="0.5" stroke-width="3.2"/>
<circle clip-path="url(#clip991)" cx="1769.71" cy="880.433" r="14.4" fill="#009af9" fill-rule="evenodd" fill-opacity="0.5" stroke="#000000" stroke-opacity="0.5" stroke-width="3.2"/>
<circle clip-path="url(#clip991)" cx="1352.74" cy="829.257" r="14.4" fill="#009af9" fill-rule="evenodd" fill-opacity="0.5" stroke="#000000" stroke-opacity="0.5" stroke-width="3.2"/>
<circle clip-path="url(#clip991)" cx="1827.29" cy="625.793" r="14.4" fill="#009af9" fill-rule="evenodd" fill-opacity="0.5" stroke="#000000" stroke-opacity="0.5" stroke-width="3.2"/>
<circle clip-path="url(#clip991)" cx="691.104" cy="599.815" r="14.4" fill="#009af9" fill-rule="evenodd" fill-opacity="0.5" stroke="#000000" stroke-opacity="0.5" stroke-width="3.2"/>
<circle clip-path="url(#clip991)" cx="2289.52" cy="980.701" r="14.4" fill="#009af9" fill-rule="evenodd" fill-opacity="0.5" stroke="#000000" stroke-opacity="0.5" stroke-width="3.2"/>
<circle clip-path="url(#clip991)" cx="1861.01" cy="1378.56" r="14.4" fill="#009af9" fill-rule="evenodd" fill-opacity="0.5" stroke="#000000" stroke-opacity="0.5" stroke-width="3.2"/>
<circle clip-path="url(#clip991)" cx="1845.15" cy="87.9763" r="14.4" fill="#009af9" fill-rule="evenodd" fill-opacity="0.5" stroke="#000000" stroke-opacity="0.5" stroke-width="3.2"/>
<circle clip-path="url(#clip991)" cx="2149.97" cy="1010.89" r="14.4" fill="#009af9" fill-rule="evenodd" fill-opacity="0.5" stroke="#000000" stroke-opacity="0.5" stroke-width="3.2"/>
<circle clip-path="url(#clip991)" cx="1357.03" cy="1238.05" r="14.4" fill="#009af9" fill-rule="evenodd" fill-opacity="0.5" stroke="#000000" stroke-opacity="0.5" stroke-width="3.2"/>
<circle clip-path="url(#clip991)" cx="929.709" cy="639.95" r="14.4" fill="#009af9" fill-rule="evenodd" fill-opacity="0.5" stroke="#000000" stroke-opacity="0.5" stroke-width="3.2"/>
<circle clip-path="url(#clip991)" cx="1921.56" cy="699.678" r="14.4" fill="#009af9" fill-rule="evenodd" fill-opacity="0.5" stroke="#000000" stroke-opacity="0.5" stroke-width="3.2"/>
<circle clip-path="url(#clip991)" cx="592.843" cy="516.481" r="14.4" fill="#009af9" fill-rule="evenodd" fill-opacity="0.5" stroke="#000000" stroke-opacity="0.5" stroke-width="3.2"/>
<path clip-path="url(#clip991)" d="M209.891 739.602 L543.465 1074.34 L1777.99 1445.72 L2282.03 1170.01 L2289.52 980.701 L2290.34 105.986 L1845.15 87.9763 L592.843 516.481 L209.891 739.602 L209.891 739.602  Z" fill="#e26f46" fill-rule="evenodd" fill-opacity="0.2"/>
<polyline clip-path="url(#clip991)" style="stroke:#000000; stroke-linecap:round; stroke-linejoin:round; stroke-width:4; stroke-opacity:0.2; fill:none" points="209.891,739.602 543.465,1074.34 1777.99,1445.72 2282.03,1170.01 2289.52,980.701 2290.34,105.986 1845.15,87.9763 592.843,516.481 209.891,739.602 "/>
</svg>
