<?xml version="1.0" encoding="utf-8"?>
<svg xmlns="http://www.w3.org/2000/svg" xmlns:xlink="http://www.w3.org/1999/xlink" width="600" height="400" viewBox="0 0 2400 1600">
<defs>
  <clipPath id="clip290">
    <rect x="0" y="0" width="2400" height="1600"/>
  </clipPath>
</defs>
<path clip-path="url(#clip290)" d="M0 1600 L2400 1600 L2400 0 L0 0  Z" fill="#ffffff" fill-rule="evenodd" fill-opacity="1"/>
<defs>
  <clipPath id="clip291">
    <rect x="193" y="47" width="2160" height="1440"/>
  </clipPath>
</defs>
<path clip-path="url(#clip290)" d="M193.936 1486.45 L2352.76 1486.45 L2352.76 47.2441 L193.936 47.2441  Z" fill="#ffffff" fill-rule="evenodd" fill-opacity="1"/>
<polyline clip-path="url(#clip291)" style="stroke:#000000; stroke-linecap:round; stroke-linejoin:round; stroke-width:2; stroke-opacity:0.1; fill:none" points="327.868,1486.45 327.868,47.2441 "/>
<polyline clip-path="url(#clip291)" style="stroke:#000000; stroke-linecap:round; stroke-linejoin:round; stroke-width:2; stroke-opacity:0.1; fill:none" points="664.927,1486.45 664.927,47.2441 "/>
<polyline clip-path="url(#clip291)" style="stroke:#000000; stroke-linecap:round; stroke-linejoin:round; stroke-width:2; stroke-opacity:0.1; fill:none" points="1001.99,1486.45 1001.99,47.2441 "/>
<polyline clip-path="url(#clip291)" style="stroke:#000000; stroke-linecap:round; stroke-linejoin:round; stroke-width:2; stroke-opacity:0.1; fill:none" points="1339.04,1486.45 1339.04,47.2441 "/>
<polyline clip-path="url(#clip291)" style="stroke:#000000; stroke-linecap:round; stroke-linejoin:round; stroke-width:2; stroke-opacity:0.1; fill:none" points="1676.1,1486.45 1676.1,47.2441 "/>
<polyline clip-path="url(#clip291)" style="stroke:#000000; stroke-linecap:round; stroke-linejoin:round; stroke-width:2; stroke-opacity:0.1; fill:none" points="2013.16,1486.45 2013.16,47.2441 "/>
<polyline clip-path="url(#clip291)" style="stroke:#000000; stroke-linecap:round; stroke-linejoin:round; stroke-width:2; stroke-opacity:0.1; fill:none" points="2350.22,1486.45 2350.22,47.2441 "/>
<polyline clip-path="url(#clip291)" style="stroke:#000000; stroke-linecap:round; stroke-linejoin:round; stroke-width:2; stroke-opacity:0.1; fill:none" points="193.936,1392.61 2352.76,1392.61 "/>
<polyline clip-path="url(#clip291)" style="stroke:#000000; stroke-linecap:round; stroke-linejoin:round; stroke-width:2; stroke-opacity:0.1; fill:none" points="193.936,1167.44 2352.76,1167.44 "/>
<polyline clip-path="url(#clip291)" style="stroke:#000000; stroke-linecap:round; stroke-linejoin:round; stroke-width:2; stroke-opacity:0.1; fill:none" points="193.936,942.267 2352.76,942.267 "/>
<polyline clip-path="url(#clip291)" style="stroke:#000000; stroke-linecap:round; stroke-linejoin:round; stroke-width:2; stroke-opacity:0.1; fill:none" points="193.936,717.097 2352.76,717.097 "/>
<polyline clip-path="url(#clip291)" style="stroke:#000000; stroke-linecap:round; stroke-linejoin:round; stroke-width:2; stroke-opacity:0.1; fill:none" points="193.936,491.927 2352.76,491.927 "/>
<polyline clip-path="url(#clip291)" style="stroke:#000000; stroke-linecap:round; stroke-linejoin:round; stroke-width:2; stroke-opacity:0.1; fill:none" points="193.936,266.756 2352.76,266.756 "/>
<polyline clip-path="url(#clip290)" style="stroke:#000000; stroke-linecap:round; stroke-linejoin:round; stroke-width:4; stroke-opacity:1; fill:none" points="193.936,1486.45 2352.76,1486.45 "/>
<polyline clip-path="url(#clip290)" style="stroke:#000000; stroke-linecap:round; stroke-linejoin:round; stroke-width:4; stroke-opacity:1; fill:none" points="327.868,1486.45 327.868,1467.55 "/>
<polyline clip-path="url(#clip290)" style="stroke:#000000; stroke-linecap:round; stroke-linejoin:round; stroke-width:4; stroke-opacity:1; fill:none" points="664.927,1486.45 664.927,1467.55 "/>
<polyline clip-path="url(#clip290)" style="stroke:#000000; stroke-linecap:round; stroke-linejoin:round; stroke-width:4; stroke-opacity:1; fill:none" points="1001.99,1486.45 1001.99,1467.55 "/>
<polyline clip-path="url(#clip290)" style="stroke:#000000; stroke-linecap:round; stroke-linejoin:round; stroke-width:4; stroke-opacity:1; fill:none" points="1339.04,1486.45 1339.04,1467.55 "/>
<polyline clip-path="url(#clip290)" style="stroke:#000000; stroke-linecap:round; stroke-linejoin:round; stroke-width:4; stroke-opacity:1; fill:none" points="1676.1,1486.45 1676.1,1467.55 "/>
<polyline clip-path="url(#clip290)" style="stroke:#000000; stroke-linecap:round; stroke-linejoin:round; stroke-width:4; stroke-opacity:1; fill:none" points="2013.16,1486.45 2013.16,1467.55 "/>
<polyline clip-path="url(#clip290)" style="stroke:#000000; stroke-linecap:round; stroke-linejoin:round; stroke-width:4; stroke-opacity:1; fill:none" points="2350.22,1486.45 2350.22,1467.55 "/>
<path clip-path="url(#clip290)" d="M274.894 1532.02 L304.569 1532.02 L304.569 1535.95 L274.894 1535.95 L274.894 1532.02 Z" fill="#000000" fill-rule="nonzero" fill-opacity="1" /><path clip-path="url(#clip290)" d="M315.472 1544.91 L323.111 1544.91 L323.111 1518.55 L314.801 1520.21 L314.801 1515.95 L323.065 1514.29 L327.74 1514.29 L327.74 1544.91 L335.379 1544.91 L335.379 1548.85 L315.472 1548.85 L315.472 1544.91 Z" fill="#000000" fill-rule="nonzero" fill-opacity="1" /><path clip-path="url(#clip290)" d="M344.824 1542.97 L349.708 1542.97 L349.708 1548.85 L344.824 1548.85 L344.824 1542.97 Z" fill="#000000" fill-rule="nonzero" fill-opacity="1" /><path clip-path="url(#clip290)" d="M359.939 1514.29 L378.296 1514.29 L378.296 1518.22 L364.222 1518.22 L364.222 1526.7 Q365.24 1526.35 366.259 1526.19 Q367.277 1526 368.296 1526 Q374.083 1526 377.462 1529.17 Q380.842 1532.34 380.842 1537.76 Q380.842 1543.34 377.37 1546.44 Q373.898 1549.52 367.578 1549.52 Q365.402 1549.52 363.134 1549.15 Q360.888 1548.78 358.481 1548.04 L358.481 1543.34 Q360.564 1544.47 362.787 1545.03 Q365.009 1545.58 367.486 1545.58 Q371.49 1545.58 373.828 1543.48 Q376.166 1541.37 376.166 1537.76 Q376.166 1534.15 373.828 1532.04 Q371.49 1529.94 367.486 1529.94 Q365.611 1529.94 363.736 1530.35 Q361.884 1530.77 359.939 1531.65 L359.939 1514.29 Z" fill="#000000" fill-rule="nonzero" fill-opacity="1" /><path clip-path="url(#clip290)" d="M611.455 1532.02 L641.131 1532.02 L641.131 1535.95 L611.455 1535.95 L611.455 1532.02 Z" fill="#000000" fill-rule="nonzero" fill-opacity="1" /><path clip-path="url(#clip290)" d="M652.033 1544.91 L659.672 1544.91 L659.672 1518.55 L651.362 1520.21 L651.362 1515.95 L659.626 1514.29 L664.302 1514.29 L664.302 1544.91 L671.941 1544.91 L671.941 1548.85 L652.033 1548.85 L652.033 1544.91 Z" fill="#000000" fill-rule="nonzero" fill-opacity="1" /><path clip-path="url(#clip290)" d="M681.385 1542.97 L686.269 1542.97 L686.269 1548.85 L681.385 1548.85 L681.385 1542.97 Z" fill="#000000" fill-rule="nonzero" fill-opacity="1" /><path clip-path="url(#clip290)" d="M706.454 1517.37 Q702.843 1517.37 701.014 1520.93 Q699.209 1524.47 699.209 1531.6 Q699.209 1538.71 701.014 1542.27 Q702.843 1545.82 706.454 1545.82 Q710.088 1545.82 711.894 1542.27 Q713.723 1538.71 713.723 1531.6 Q713.723 1524.47 711.894 1520.93 Q710.088 1517.37 706.454 1517.37 M706.454 1513.66 Q712.264 1513.66 715.32 1518.27 Q718.399 1522.85 718.399 1531.6 Q718.399 1540.33 715.32 1544.94 Q712.264 1549.52 706.454 1549.52 Q700.644 1549.52 697.565 1544.94 Q694.51 1540.33 694.51 1531.6 Q694.51 1522.85 697.565 1518.27 Q700.644 1513.66 706.454 1513.66 Z" fill="#000000" fill-rule="nonzero" fill-opacity="1" /><path clip-path="url(#clip290)" d="M949.011 1532.02 L978.687 1532.02 L978.687 1535.95 L949.011 1535.95 L949.011 1532.02 Z" fill="#000000" fill-rule="nonzero" fill-opacity="1" /><path clip-path="url(#clip290)" d="M998.78 1517.37 Q995.168 1517.37 993.34 1520.93 Q991.534 1524.47 991.534 1531.6 Q991.534 1538.71 993.34 1542.27 Q995.168 1545.82 998.78 1545.82 Q1002.41 1545.82 1004.22 1542.27 Q1006.05 1538.71 1006.05 1531.6 Q1006.05 1524.47 1004.22 1520.93 Q1002.41 1517.37 998.78 1517.37 M998.78 1513.66 Q1004.59 1513.66 1007.65 1518.27 Q1010.72 1522.85 1010.72 1531.6 Q1010.72 1540.33 1007.65 1544.94 Q1004.59 1549.52 998.78 1549.52 Q992.969 1549.52 989.891 1544.94 Q986.835 1540.33 986.835 1531.6 Q986.835 1522.85 989.891 1518.27 Q992.969 1513.66 998.78 1513.66 Z" fill="#000000" fill-rule="nonzero" fill-opacity="1" /><path clip-path="url(#clip290)" d="M1018.94 1542.97 L1023.83 1542.97 L1023.83 1548.85 L1018.94 1548.85 L1018.94 1542.97 Z" fill="#000000" fill-rule="nonzero" fill-opacity="1" /><path clip-path="url(#clip290)" d="M1034.06 1514.29 L1052.41 1514.29 L1052.41 1518.22 L1038.34 1518.22 L1038.34 1526.7 Q1039.36 1526.35 1040.38 1526.19 Q1041.4 1526 1042.41 1526 Q1048.2 1526 1051.58 1529.17 Q1054.96 1532.34 1054.96 1537.76 Q1054.96 1543.34 1051.49 1546.44 Q1048.02 1549.52 1041.7 1549.52 Q1039.52 1549.52 1037.25 1549.15 Q1035.01 1548.78 1032.6 1548.04 L1032.6 1543.34 Q1034.68 1544.47 1036.9 1545.03 Q1039.13 1545.58 1041.6 1545.58 Q1045.61 1545.58 1047.95 1543.48 Q1050.28 1541.37 1050.28 1537.76 Q1050.28 1534.15 1047.95 1532.04 Q1045.61 1529.94 1041.6 1529.94 Q1039.73 1529.94 1037.85 1530.35 Q1036 1530.77 1034.06 1531.65 L1034.06 1514.29 Z" fill="#000000" fill-rule="nonzero" fill-opacity="1" /><path clip-path="url(#clip290)" d="M1316.43 1517.37 Q1312.82 1517.37 1310.99 1520.93 Q1309.18 1524.47 1309.18 1531.6 Q1309.18 1538.71 1310.99 1542.27 Q1312.82 1545.82 1316.43 1545.82 Q1320.06 1545.82 1321.87 1542.27 Q1323.7 1538.71 1323.7 1531.6 Q1323.7 1524.47 1321.87 1520.93 Q1320.06 1517.37 1316.43 1517.37 M1316.43 1513.66 Q1322.24 1513.66 1325.29 1518.27 Q1328.37 1522.85 1328.37 1531.6 Q1328.37 1540.33 1325.29 1544.94 Q1322.24 1549.52 1316.43 1549.52 Q1310.62 1549.52 1307.54 1544.94 Q1304.48 1540.33 1304.48 1531.6 Q1304.48 1522.85 1307.54 1518.27 Q1310.62 1513.66 1316.43 1513.66 Z" fill="#000000" fill-rule="nonzero" fill-opacity="1" /><path clip-path="url(#clip290)" d="M1336.59 1542.97 L1341.48 1542.97 L1341.48 1548.85 L1336.59 1548.85 L1336.59 1542.97 Z" fill="#000000" fill-rule="nonzero" fill-opacity="1" /><path clip-path="url(#clip290)" d="M1361.66 1517.37 Q1358.05 1517.37 1356.22 1520.93 Q1354.41 1524.47 1354.41 1531.6 Q1354.41 1538.71 1356.22 1542.27 Q1358.05 1545.82 1361.66 1545.82 Q1365.29 1545.82 1367.1 1542.27 Q1368.93 1538.71 1368.93 1531.6 Q1368.93 1524.47 1367.1 1520.93 Q1365.29 1517.37 1361.66 1517.37 M1361.66 1513.66 Q1367.47 1513.66 1370.53 1518.27 Q1373.6 1522.85 1373.6 1531.6 Q1373.6 1540.33 1370.53 1544.94 Q1367.47 1549.52 1361.66 1549.52 Q1355.85 1549.52 1352.77 1544.94 Q1349.72 1540.33 1349.72 1531.6 Q1349.72 1522.85 1352.77 1518.27 Q1355.85 1513.66 1361.66 1513.66 Z" fill="#000000" fill-rule="nonzero" fill-opacity="1" /><path clip-path="url(#clip290)" d="M1653.99 1517.37 Q1650.37 1517.37 1648.55 1520.93 Q1646.74 1524.47 1646.74 1531.6 Q1646.74 1538.71 1648.55 1542.27 Q1650.37 1545.82 1653.99 1545.82 Q1657.62 1545.82 1659.43 1542.27 Q1661.25 1538.71 1661.25 1531.6 Q1661.25 1524.47 1659.43 1520.93 Q1657.62 1517.37 1653.99 1517.37 M1653.99 1513.66 Q1659.8 1513.66 1662.85 1518.27 Q1665.93 1522.85 1665.93 1531.6 Q1665.93 1540.33 1662.85 1544.94 Q1659.8 1549.52 1653.99 1549.52 Q1648.18 1549.52 1645.1 1544.94 Q1642.04 1540.33 1642.04 1531.6 Q1642.04 1522.85 1645.1 1518.27 Q1648.18 1513.66 1653.99 1513.66 Z" fill="#000000" fill-rule="nonzero" fill-opacity="1" /><path clip-path="url(#clip290)" d="M1674.15 1542.97 L1679.03 1542.97 L1679.03 1548.85 L1674.15 1548.85 L1674.15 1542.97 Z" fill="#000000" fill-rule="nonzero" fill-opacity="1" /><path clip-path="url(#clip290)" d="M1689.26 1514.29 L1707.62 1514.29 L1707.62 1518.22 L1693.55 1518.22 L1693.55 1526.7 Q1694.56 1526.35 1695.58 1526.19 Q1696.6 1526 1697.62 1526 Q1703.41 1526 1706.79 1529.17 Q1710.17 1532.34 1710.17 1537.76 Q1710.17 1543.34 1706.69 1546.44 Q1703.22 1549.52 1696.9 1549.52 Q1694.73 1549.52 1692.46 1549.15 Q1690.21 1548.78 1687.8 1548.04 L1687.8 1543.34 Q1689.89 1544.47 1692.11 1545.03 Q1694.33 1545.58 1696.81 1545.58 Q1700.81 1545.58 1703.15 1543.48 Q1705.49 1541.37 1705.49 1537.76 Q1705.49 1534.15 1703.15 1532.04 Q1700.81 1529.94 1696.81 1529.94 Q1694.93 1529.94 1693.06 1530.35 Q1691.21 1530.77 1689.26 1531.65 L1689.26 1514.29 Z" fill="#000000" fill-rule="nonzero" fill-opacity="1" /><path clip-path="url(#clip290)" d="M1980.32 1544.91 L1987.95 1544.91 L1987.95 1518.55 L1979.64 1520.21 L1979.64 1515.95 L1987.91 1514.29 L1992.58 1514.29 L1992.58 1544.91 L2000.22 1544.91 L2000.22 1548.85 L1980.32 1548.85 L1980.32 1544.91 Z" fill="#000000" fill-rule="nonzero" fill-opacity="1" /><path clip-path="url(#clip290)" d="M2009.67 1542.97 L2014.55 1542.97 L2014.55 1548.85 L2009.67 1548.85 L2009.67 1542.97 Z" fill="#000000" fill-rule="nonzero" fill-opacity="1" /><path clip-path="url(#clip290)" d="M2034.74 1517.37 Q2031.13 1517.37 2029.3 1520.93 Q2027.49 1524.47 2027.49 1531.6 Q2027.49 1538.71 2029.3 1542.27 Q2031.13 1545.82 2034.74 1545.82 Q2038.37 1545.82 2040.18 1542.27 Q2042 1538.71 2042 1531.6 Q2042 1524.47 2040.18 1520.93 Q2038.37 1517.37 2034.74 1517.37 M2034.74 1513.66 Q2040.55 1513.66 2043.6 1518.27 Q2046.68 1522.85 2046.68 1531.6 Q2046.68 1540.33 2043.6 1544.94 Q2040.55 1549.52 2034.74 1549.52 Q2028.93 1549.52 2025.85 1544.94 Q2022.79 1540.33 2022.79 1531.6 Q2022.79 1522.85 2025.85 1518.27 Q2028.93 1513.66 2034.74 1513.66 Z" fill="#000000" fill-rule="nonzero" fill-opacity="1" /><path clip-path="url(#clip290)" d="M2317.87 1544.91 L2325.51 1544.91 L2325.51 1518.55 L2317.2 1520.21 L2317.2 1515.95 L2325.46 1514.29 L2330.14 1514.29 L2330.14 1544.91 L2337.78 1544.91 L2337.78 1548.85 L2317.87 1548.85 L2317.87 1544.91 Z" fill="#000000" fill-rule="nonzero" fill-opacity="1" /><path clip-path="url(#clip290)" d="M2347.22 1542.97 L2352.11 1542.97 L2352.11 1548.85 L2347.22 1548.85 L2347.22 1542.97 Z" fill="#000000" fill-rule="nonzero" fill-opacity="1" /><path clip-path="url(#clip290)" d="M2362.34 1514.29 L2380.7 1514.29 L2380.7 1518.22 L2366.62 1518.22 L2366.62 1526.7 Q2367.64 1526.35 2368.66 1526.19 Q2369.68 1526 2370.7 1526 Q2376.48 1526 2379.86 1529.17 Q2383.24 1532.34 2383.24 1537.76 Q2383.24 1543.34 2379.77 1546.44 Q2376.3 1549.52 2369.98 1549.52 Q2367.8 1549.52 2365.53 1549.15 Q2363.29 1548.78 2360.88 1548.04 L2360.88 1543.34 Q2362.96 1544.47 2365.19 1545.03 Q2367.41 1545.58 2369.89 1545.58 Q2373.89 1545.58 2376.23 1543.48 Q2378.57 1541.37 2378.57 1537.76 Q2378.57 1534.15 2376.23 1532.04 Q2373.89 1529.94 2369.89 1529.94 Q2368.01 1529.94 2366.14 1530.35 Q2364.28 1530.77 2362.34 1531.65 L2362.34 1514.29 Z" fill="#000000" fill-rule="nonzero" fill-opacity="1" /><polyline clip-path="url(#clip290)" style="stroke:#000000; stroke-linecap:round; stroke-linejoin:round; stroke-width:4; stroke-opacity:1; fill:none" points="193.936,1486.45 193.936,47.2441 "/>
<polyline clip-path="url(#clip290)" style="stroke:#000000; stroke-linecap:round; stroke-linejoin:round; stroke-width:4; stroke-opacity:1; fill:none" points="193.936,1392.61 212.834,1392.61 "/>
<polyline clip-path="url(#clip290)" style="stroke:#000000; stroke-linecap:round; stroke-linejoin:round; stroke-width:4; stroke-opacity:1; fill:none" points="193.936,1167.44 212.834,1167.44 "/>
<polyline clip-path="url(#clip290)" style="stroke:#000000; stroke-linecap:round; stroke-linejoin:round; stroke-width:4; stroke-opacity:1; fill:none" points="193.936,942.267 212.834,942.267 "/>
<polyline clip-path="url(#clip290)" style="stroke:#000000; stroke-linecap:round; stroke-linejoin:round; stroke-width:4; stroke-opacity:1; fill:none" points="193.936,717.097 212.834,717.097 "/>
<polyline clip-path="url(#clip290)" style="stroke:#000000; stroke-linecap:round; stroke-linejoin:round; stroke-width:4; stroke-opacity:1; fill:none" points="193.936,491.927 212.834,491.927 "/>
<polyline clip-path="url(#clip290)" style="stroke:#000000; stroke-linecap:round; stroke-linejoin:round; stroke-width:4; stroke-opacity:1; fill:none" points="193.936,266.756 212.834,266.756 "/>
<path clip-path="url(#clip290)" d="M51.9875 1393.06 L81.6633 1393.06 L81.6633 1396.99 L51.9875 1396.99 L51.9875 1393.06 Z" fill="#000000" fill-rule="nonzero" fill-opacity="1" /><path clip-path="url(#clip290)" d="M92.566 1405.95 L100.205 1405.95 L100.205 1379.59 L91.8947 1381.25 L91.8947 1376.99 L100.159 1375.33 L104.834 1375.33 L104.834 1405.95 L112.473 1405.95 L112.473 1409.89 L92.566 1409.89 L92.566 1405.95 Z" fill="#000000" fill-rule="nonzero" fill-opacity="1" /><path clip-path="url(#clip290)" d="M121.918 1404.01 L126.802 1404.01 L126.802 1409.89 L121.918 1409.89 L121.918 1404.01 Z" fill="#000000" fill-rule="nonzero" fill-opacity="1" /><path clip-path="url(#clip290)" d="M137.033 1375.33 L155.39 1375.33 L155.39 1379.26 L141.316 1379.26 L141.316 1387.73 Q142.334 1387.39 143.353 1387.23 Q144.371 1387.04 145.39 1387.04 Q151.177 1387.04 154.556 1390.21 Q157.936 1393.38 157.936 1398.8 Q157.936 1404.38 154.464 1407.48 Q150.992 1410.56 144.672 1410.56 Q142.496 1410.56 140.228 1410.19 Q137.982 1409.82 135.575 1409.08 L135.575 1404.38 Q137.658 1405.51 139.881 1406.07 Q142.103 1406.62 144.58 1406.62 Q148.584 1406.62 150.922 1404.52 Q153.26 1402.41 153.26 1398.8 Q153.26 1395.19 150.922 1393.08 Q148.584 1390.98 144.58 1390.98 Q142.705 1390.98 140.83 1391.39 Q138.978 1391.81 137.033 1392.69 L137.033 1375.33 Z" fill="#000000" fill-rule="nonzero" fill-opacity="1" /><path clip-path="url(#clip290)" d="M50.9921 1167.89 L80.6679 1167.89 L80.6679 1171.82 L50.9921 1171.82 L50.9921 1167.89 Z" fill="#000000" fill-rule="nonzero" fill-opacity="1" /><path clip-path="url(#clip290)" d="M91.5706 1180.78 L99.2095 1180.78 L99.2095 1154.42 L90.8993 1156.08 L90.8993 1151.82 L99.1632 1150.16 L103.839 1150.16 L103.839 1180.78 L111.478 1180.78 L111.478 1184.72 L91.5706 1184.72 L91.5706 1180.78 Z" fill="#000000" fill-rule="nonzero" fill-opacity="1" /><path clip-path="url(#clip290)" d="M120.922 1178.84 L125.807 1178.84 L125.807 1184.72 L120.922 1184.72 L120.922 1178.84 Z" fill="#000000" fill-rule="nonzero" fill-opacity="1" /><path clip-path="url(#clip290)" d="M145.992 1153.24 Q142.381 1153.24 140.552 1156.8 Q138.746 1160.34 138.746 1167.47 Q138.746 1174.58 140.552 1178.14 Q142.381 1181.68 145.992 1181.68 Q149.626 1181.68 151.431 1178.14 Q153.26 1174.58 153.26 1167.47 Q153.26 1160.34 151.431 1156.8 Q149.626 1153.24 145.992 1153.24 M145.992 1149.53 Q151.802 1149.53 154.857 1154.14 Q157.936 1158.72 157.936 1167.47 Q157.936 1176.2 154.857 1180.81 Q151.802 1185.39 145.992 1185.39 Q140.181 1185.39 137.103 1180.81 Q134.047 1176.2 134.047 1167.47 Q134.047 1158.72 137.103 1154.14 Q140.181 1149.53 145.992 1149.53 Z" fill="#000000" fill-rule="nonzero" fill-opacity="1" /><path clip-path="url(#clip290)" d="M51.9875 942.718 L81.6633 942.718 L81.6633 946.653 L51.9875 946.653 L51.9875 942.718 Z" fill="#000000" fill-rule="nonzero" fill-opacity="1" /><path clip-path="url(#clip290)" d="M101.756 928.066 Q98.1447 928.066 96.316 931.63 Q94.5104 935.172 94.5104 942.302 Q94.5104 949.408 96.316 952.973 Q98.1447 956.515 101.756 956.515 Q105.39 956.515 107.196 952.973 Q109.024 949.408 109.024 942.302 Q109.024 935.172 107.196 931.63 Q105.39 928.066 101.756 928.066 M101.756 924.362 Q107.566 924.362 110.621 928.968 Q113.7 933.552 113.7 942.302 Q113.7 951.028 110.621 955.635 Q107.566 960.218 101.756 960.218 Q95.9456 960.218 92.8669 955.635 Q89.8114 951.028 89.8114 942.302 Q89.8114 933.552 92.8669 928.968 Q95.9456 924.362 101.756 924.362 Z" fill="#000000" fill-rule="nonzero" fill-opacity="1" /><path clip-path="url(#clip290)" d="M121.918 953.667 L126.802 953.667 L126.802 959.547 L121.918 959.547 L121.918 953.667 Z" fill="#000000" fill-rule="nonzero" fill-opacity="1" /><path clip-path="url(#clip290)" d="M137.033 924.987 L155.39 924.987 L155.39 928.922 L141.316 928.922 L141.316 937.394 Q142.334 937.047 143.353 936.885 Q144.371 936.7 145.39 936.7 Q151.177 936.7 154.556 939.871 Q157.936 943.042 157.936 948.459 Q157.936 954.038 154.464 957.14 Q150.992 960.218 144.672 960.218 Q142.496 960.218 140.228 959.848 Q137.982 959.478 135.575 958.737 L135.575 954.038 Q137.658 955.172 139.881 955.728 Q142.103 956.283 144.58 956.283 Q148.584 956.283 150.922 954.177 Q153.26 952.07 153.26 948.459 Q153.26 944.848 150.922 942.741 Q148.584 940.635 144.58 940.635 Q142.705 940.635 140.83 941.052 Q138.978 941.468 137.033 942.348 L137.033 924.987 Z" fill="#000000" fill-rule="nonzero" fill-opacity="1" /><path clip-path="url(#clip290)" d="M100.76 702.895 Q97.1493 702.895 95.3206 706.46 Q93.515 710.002 93.515 717.131 Q93.515 724.238 95.3206 727.803 Q97.1493 731.344 100.76 731.344 Q104.395 731.344 106.2 727.803 Q108.029 724.238 108.029 717.131 Q108.029 710.002 106.2 706.46 Q104.395 702.895 100.76 702.895 M100.76 699.192 Q106.571 699.192 109.626 703.798 Q112.705 708.381 112.705 717.131 Q112.705 725.858 109.626 730.465 Q106.571 735.048 100.76 735.048 Q94.9502 735.048 91.8715 730.465 Q88.816 725.858 88.816 717.131 Q88.816 708.381 91.8715 703.798 Q94.9502 699.192 100.76 699.192 Z" fill="#000000" fill-rule="nonzero" fill-opacity="1" /><path clip-path="url(#clip290)" d="M120.922 728.497 L125.807 728.497 L125.807 734.377 L120.922 734.377 L120.922 728.497 Z" fill="#000000" fill-rule="nonzero" fill-opacity="1" /><path clip-path="url(#clip290)" d="M145.992 702.895 Q142.381 702.895 140.552 706.46 Q138.746 710.002 138.746 717.131 Q138.746 724.238 140.552 727.803 Q142.381 731.344 145.992 731.344 Q149.626 731.344 151.431 727.803 Q153.26 724.238 153.26 717.131 Q153.26 710.002 151.431 706.46 Q149.626 702.895 145.992 702.895 M145.992 699.192 Q151.802 699.192 154.857 703.798 Q157.936 708.381 157.936 717.131 Q157.936 725.858 154.857 730.465 Q151.802 735.048 145.992 735.048 Q140.181 735.048 137.103 730.465 Q134.047 725.858 134.047 717.131 Q134.047 708.381 137.103 703.798 Q140.181 699.192 145.992 699.192 Z" fill="#000000" fill-rule="nonzero" fill-opacity="1" /><path clip-path="url(#clip290)" d="M101.756 477.725 Q98.1447 477.725 96.316 481.29 Q94.5104 484.832 94.5104 491.961 Q94.5104 499.068 96.316 502.632 Q98.1447 506.174 101.756 506.174 Q105.39 506.174 107.196 502.632 Q109.024 499.068 109.024 491.961 Q109.024 484.832 107.196 481.29 Q105.39 477.725 101.756 477.725 M101.756 474.022 Q107.566 474.022 110.621 478.628 Q113.7 483.211 113.7 491.961 Q113.7 500.688 110.621 505.294 Q107.566 509.878 101.756 509.878 Q95.9456 509.878 92.8669 505.294 Q89.8114 500.688 89.8114 491.961 Q89.8114 483.211 92.8669 478.628 Q95.9456 474.022 101.756 474.022 Z" fill="#000000" fill-rule="nonzero" fill-opacity="1" /><path clip-path="url(#clip290)" d="M121.918 503.327 L126.802 503.327 L126.802 509.207 L121.918 509.207 L121.918 503.327 Z" fill="#000000" fill-rule="nonzero" fill-opacity="1" /><path clip-path="url(#clip290)" d="M137.033 474.647 L155.39 474.647 L155.39 478.582 L141.316 478.582 L141.316 487.054 Q142.334 486.707 143.353 486.545 Q144.371 486.359 145.39 486.359 Q151.177 486.359 154.556 489.531 Q157.936 492.702 157.936 498.119 Q157.936 503.697 154.464 506.799 Q150.992 509.878 144.672 509.878 Q142.496 509.878 140.228 509.507 Q137.982 509.137 135.575 508.396 L135.575 503.697 Q137.658 504.832 139.881 505.387 Q142.103 505.943 144.58 505.943 Q148.584 505.943 150.922 503.836 Q153.26 501.73 153.26 498.119 Q153.26 494.508 150.922 492.401 Q148.584 490.295 144.58 490.295 Q142.705 490.295 140.83 490.711 Q138.978 491.128 137.033 492.008 L137.033 474.647 Z" fill="#000000" fill-rule="nonzero" fill-opacity="1" /><path clip-path="url(#clip290)" d="M91.5706 280.101 L99.2095 280.101 L99.2095 253.736 L90.8993 255.402 L90.8993 251.143 L99.1632 249.476 L103.839 249.476 L103.839 280.101 L111.478 280.101 L111.478 284.036 L91.5706 284.036 L91.5706 280.101 Z" fill="#000000" fill-rule="nonzero" fill-opacity="1" /><path clip-path="url(#clip290)" d="M120.922 278.157 L125.807 278.157 L125.807 284.036 L120.922 284.036 L120.922 278.157 Z" fill="#000000" fill-rule="nonzero" fill-opacity="1" /><path clip-path="url(#clip290)" d="M145.992 252.555 Q142.381 252.555 140.552 256.12 Q138.746 259.661 138.746 266.791 Q138.746 273.897 140.552 277.462 Q142.381 281.004 145.992 281.004 Q149.626 281.004 151.431 277.462 Q153.26 273.897 153.26 266.791 Q153.26 259.661 151.431 256.12 Q149.626 252.555 145.992 252.555 M145.992 248.851 Q151.802 248.851 154.857 253.458 Q157.936 258.041 157.936 266.791 Q157.936 275.518 154.857 280.124 Q151.802 284.708 145.992 284.708 Q140.181 284.708 137.103 280.124 Q134.047 275.518 134.047 266.791 Q134.047 258.041 137.103 253.458 Q140.181 248.851 145.992 248.851 Z" fill="#000000" fill-rule="nonzero" fill-opacity="1" /><circle clip-path="url(#clip291)" cx="2291.66" cy="516.783" r="14.4" fill="#009af9" fill-rule="evenodd" fill-opacity="0.5" stroke="#000000" stroke-opacity="0.5" stroke-width="3.2"/>
<circle clip-path="url(#clip291)" cx="1246.95" cy="636.341" r="14.4" fill="#009af9" fill-rule="evenodd" fill-opacity="0.5" stroke="#000000" stroke-opacity="0.5" stroke-width="3.2"/>
<circle clip-path="url(#clip291)" cx="255.035" cy="774.608" r="14.4" fill="#009af9" fill-rule="evenodd" fill-opacity="0.5" stroke="#000000" stroke-opacity="0.5" stroke-width="3.2"/>
<circle clip-path="url(#clip291)" cx="1553.55" cy="1356.69" r="14.4" fill="#009af9" fill-rule="evenodd" fill-opacity="0.5" stroke="#000000" stroke-opacity="0.5" stroke-width="3.2"/>
<circle clip-path="url(#clip291)" cx="372.257" cy="1184.38" r="14.4" fill="#009af9" fill-rule="evenodd" fill-opacity="0.5" stroke="#000000" stroke-opacity="0.5" stroke-width="3.2"/>
<circle clip-path="url(#clip291)" cx="830.323" cy="87.9763" r="14.4" fill="#009af9" fill-rule="evenodd" fill-opacity="0.5" stroke="#000000" stroke-opacity="0.5" stroke-width="3.2"/>
<circle clip-path="url(#clip291)" cx="2079.62" cy="747.523" r="14.4" fill="#009af9" fill-rule="evenodd" fill-opacity="0.5" stroke="#000000" stroke-opacity="0.5" stroke-width="3.2"/>
<circle clip-path="url(#clip291)" cx="367.47" cy="918.858" r="14.4" fill="#009af9" fill-rule="evenodd" fill-opacity="0.5" stroke="#000000" stroke-opacity="0.5" stroke-width="3.2"/>
<circle clip-path="url(#clip291)" cx="2179.25" cy="355.524" r="14.4" fill="#009af9" fill-rule="evenodd" fill-opacity="0.5" stroke="#000000" stroke-opacity="0.5" stroke-width="3.2"/>
<circle clip-path="url(#clip291)" cx="1446.83" cy="844.767" r="14.4" fill="#009af9" fill-rule="evenodd" fill-opacity="0.5" stroke="#000000" stroke-opacity="0.5" stroke-width="3.2"/>
<circle clip-path="url(#clip291)" cx="702.362" cy="591.441" r="14.4" fill="#009af9" fill-rule="evenodd" fill-opacity="0.5" stroke="#000000" stroke-opacity="0.5" stroke-width="3.2"/>
<circle clip-path="url(#clip291)" cx="1676.28" cy="226.398" r="14.4" fill="#009af9" fill-rule="evenodd" fill-opacity="0.5" stroke="#000000" stroke-opacity="0.5" stroke-width="3.2"/>
<circle clip-path="url(#clip291)" cx="1079.53" cy="161.524" r="14.4" fill="#009af9" fill-rule="evenodd" fill-opacity="0.5" stroke="#000000" stroke-opacity="0.5" stroke-width="3.2"/>
<circle clip-path="url(#clip291)" cx="1308.45" cy="657.575" r="14.4" fill="#009af9" fill-rule="evenodd" fill-opacity="0.5" stroke="#000000" stroke-opacity="0.5" stroke-width="3.2"/>
<circle clip-path="url(#clip291)" cx="1599.02" cy="907.831" r="14.4" fill="#009af9" fill-rule="evenodd" fill-opacity="0.5" stroke="#000000" stroke-opacity="0.5" stroke-width="3.2"/>
<circle clip-path="url(#clip291)" cx="931.298" cy="866.165" r="14.4" fill="#009af9" fill-rule="evenodd" fill-opacity="0.5" stroke="#000000" stroke-opacity="0.5" stroke-width="3.2"/>
<circle clip-path="url(#clip291)" cx="777.462" cy="1381.15" r="14.4" fill="#009af9" fill-rule="evenodd" fill-opacity="0.5" stroke="#000000" stroke-opacity="0.5" stroke-width="3.2"/>
<circle clip-path="url(#clip291)" cx="1808.32" cy="401.522" r="14.4" fill="#009af9" fill-rule="evenodd" fill-opacity="0.5" stroke="#000000" stroke-opacity="0.5" stroke-width="3.2"/>
<circle clip-path="url(#clip291)" cx="766.403" cy="731.826" r="14.4" fill="#009af9" fill-rule="evenodd" fill-opacity="0.5" stroke="#000000" stroke-opacity="0.5" stroke-width="3.2"/>
<circle clip-path="url(#clip291)" cx="1070.18" cy="528.372" r="14.4" fill="#009af9" fill-rule="evenodd" fill-opacity="0.5" stroke="#000000" stroke-opacity="0.5" stroke-width="3.2"/>
<circle clip-path="url(#clip291)" cx="1685.47" cy="657.418" r="14.4" fill="#009af9" fill-rule="evenodd" fill-opacity="0.5" stroke="#000000" stroke-opacity="0.5" stroke-width="3.2"/>
<circle clip-path="url(#clip291)" cx="1810.31" cy="1011.48" r="14.4" fill="#009af9" fill-rule="evenodd" fill-opacity="0.5" stroke="#000000" stroke-opacity="0.5" stroke-width="3.2"/>
<circle clip-path="url(#clip291)" cx="1856.42" cy="434.78" r="14.4" fill="#009af9" fill-rule="evenodd" fill-opacity="0.5" stroke="#000000" stroke-opacity="0.5" stroke-width="3.2"/>
<circle clip-path="url(#clip291)" cx="1094.02" cy="1157.55" r="14.4" fill="#009af9" fill-rule="evenodd" fill-opacity="0.5" stroke="#000000" stroke-opacity="0.5" stroke-width="3.2"/>
<circle clip-path="url(#clip291)" cx="598.84" cy="467.093" r="14.4" fill="#009af9" fill-rule="evenodd" fill-opacity="0.5" stroke="#000000" stroke-opacity="0.5" stroke-width="3.2"/>
<circle clip-path="url(#clip291)" cx="1612.64" cy="780.783" r="14.4" fill="#009af9" fill-rule="evenodd" fill-opacity="0.5" stroke="#000000" stroke-opacity="0.5" stroke-width="3.2"/>
<circle clip-path="url(#clip291)" cx="1039.46" cy="601.826" r="14.4" fill="#009af9" fill-rule="evenodd" fill-opacity="0.5" stroke="#000000" stroke-opacity="0.5" stroke-width="3.2"/>
<circle clip-path="url(#clip291)" cx="1457.85" cy="1445.72" r="14.4" fill="#009af9" fill-rule="evenodd" fill-opacity="0.5" stroke="#000000" stroke-opacity="0.5" stroke-width="3.2"/>
<circle clip-path="url(#clip291)" cx="1854.2" cy="258.692" r="14.4" fill="#009af9" fill-rule="evenodd" fill-opacity="0.5" stroke="#000000" stroke-opacity="0.5" stroke-width="3.2"/>
<circle clip-path="url(#clip291)" cx="1267.67" cy="549.512" r="14.4" fill="#009af9" fill-rule="evenodd" fill-opacity="0.5" stroke="#000000" stroke-opacity="0.5" stroke-width="3.2"/>
<path clip-path="url(#clip291)" d="M255.035 774.608 L372.257 1184.38 L777.462 1381.15 L1457.85 1445.72 L1553.55 1356.69 L2291.66 516.783 L2179.25 355.524 L1854.2 258.692 L1676.28 226.398 L830.323 87.9763 L255.035 774.608 L255.035 774.608  Z" fill="#e26f46" fill-rule="evenodd" fill-opacity="0.2"/>
<polyline clip-path="url(#clip291)" style="stroke:#000000; stroke-linecap:round; stroke-linejoin:round; stroke-width:4; stroke-opacity:0.2; fill:none" points="255.035,774.608 372.257,1184.38 777.462,1381.15 1457.85,1445.72 1553.55,1356.69 2291.66,516.783 2179.25,355.524 1854.2,258.692 1676.28,226.398 830.323,87.9763 255.035,774.608 "/>
</svg>
