<?xml version="1.0" encoding="utf-8"?>
<svg xmlns="http://www.w3.org/2000/svg" xmlns:xlink="http://www.w3.org/1999/xlink" width="600" height="400" viewBox="0 0 2400 1600">
<defs>
  <clipPath id="clip100">
    <rect x="0" y="0" width="2400" height="1600"/>
  </clipPath>
</defs>
<path clip-path="url(#clip100)" d="M0 1600 L2400 1600 L2400 0 L0 0  Z" fill="#ffffff" fill-rule="evenodd" fill-opacity="1"/>
<defs>
  <clipPath id="clip101">
    <rect x="480" y="0" width="1681" height="1600"/>
  </clipPath>
</defs>
<path clip-path="url(#clip100)" d="M147.478 1486.45 L2352.76 1486.45 L2352.76 47.2441 L147.478 47.2441  Z" fill="#ffffff" fill-rule="evenodd" fill-opacity="1"/>
<defs>
  <clipPath id="clip102">
    <rect x="147" y="47" width="2206" height="1440"/>
  </clipPath>
</defs>
<polyline clip-path="url(#clip102)" style="stroke:#000000; stroke-linecap:round; stroke-linejoin:round; stroke-width:2; stroke-opacity:0.1; fill:none" points="321.408,1486.45 321.408,47.2441 "/>
<polyline clip-path="url(#clip102)" style="stroke:#000000; stroke-linecap:round; stroke-linejoin:round; stroke-width:2; stroke-opacity:0.1; fill:none" points="800.991,1486.45 800.991,47.2441 "/>
<polyline clip-path="url(#clip102)" style="stroke:#000000; stroke-linecap:round; stroke-linejoin:round; stroke-width:2; stroke-opacity:0.1; fill:none" points="1280.57,1486.45 1280.57,47.2441 "/>
<polyline clip-path="url(#clip102)" style="stroke:#000000; stroke-linecap:round; stroke-linejoin:round; stroke-width:2; stroke-opacity:0.1; fill:none" points="1760.16,1486.45 1760.16,47.2441 "/>
<polyline clip-path="url(#clip102)" style="stroke:#000000; stroke-linecap:round; stroke-linejoin:round; stroke-width:2; stroke-opacity:0.1; fill:none" points="2239.74,1486.45 2239.74,47.2441 "/>
<polyline clip-path="url(#clip102)" style="stroke:#000000; stroke-linecap:round; stroke-linejoin:round; stroke-width:2; stroke-opacity:0.1; fill:none" points="147.478,1301.87 2352.76,1301.87 "/>
<polyline clip-path="url(#clip102)" style="stroke:#000000; stroke-linecap:round; stroke-linejoin:round; stroke-width:2; stroke-opacity:0.1; fill:none" points="147.478,928.702 2352.76,928.702 "/>
<polyline clip-path="url(#clip102)" style="stroke:#000000; stroke-linecap:round; stroke-linejoin:round; stroke-width:2; stroke-opacity:0.1; fill:none" points="147.478,555.532 2352.76,555.532 "/>
<polyline clip-path="url(#clip102)" style="stroke:#000000; stroke-linecap:round; stroke-linejoin:round; stroke-width:2; stroke-opacity:0.1; fill:none" points="147.478,182.362 2352.76,182.362 "/>
<polyline clip-path="url(#clip100)" style="stroke:#000000; stroke-linecap:round; stroke-linejoin:round; stroke-width:4; stroke-opacity:1; fill:none" points="147.478,1486.45 2352.76,1486.45 "/>
<polyline clip-path="url(#clip100)" style="stroke:#000000; stroke-linecap:round; stroke-linejoin:round; stroke-width:4; stroke-opacity:1; fill:none" points="321.408,1486.45 321.408,1467.55 "/>
<polyline clip-path="url(#clip100)" style="stroke:#000000; stroke-linecap:round; stroke-linejoin:round; stroke-width:4; stroke-opacity:1; fill:none" points="800.991,1486.45 800.991,1467.55 "/>
<polyline clip-path="url(#clip100)" style="stroke:#000000; stroke-linecap:round; stroke-linejoin:round; stroke-width:4; stroke-opacity:1; fill:none" points="1280.57,1486.45 1280.57,1467.55 "/>
<polyline clip-path="url(#clip100)" style="stroke:#000000; stroke-linecap:round; stroke-linejoin:round; stroke-width:4; stroke-opacity:1; fill:none" points="1760.16,1486.45 1760.16,1467.55 "/>
<polyline clip-path="url(#clip100)" style="stroke:#000000; stroke-linecap:round; stroke-linejoin:round; stroke-width:4; stroke-opacity:1; fill:none" points="2239.74,1486.45 2239.74,1467.55 "/>
<path clip-path="url(#clip100)" d="M291.35 1532.02 L321.026 1532.02 L321.026 1535.95 L291.35 1535.95 L291.35 1532.02 Z" fill="#000000" fill-rule="nonzero" fill-opacity="1" /><path clip-path="url(#clip100)" d="M335.146 1544.91 L351.466 1544.91 L351.466 1548.85 L329.521 1548.85 L329.521 1544.91 Q332.183 1542.16 336.767 1537.53 Q341.373 1532.88 342.554 1531.53 Q344.799 1529.01 345.679 1527.27 Q346.581 1525.51 346.581 1523.82 Q346.581 1521.07 344.637 1519.33 Q342.716 1517.6 339.614 1517.6 Q337.415 1517.6 334.961 1518.36 Q332.531 1519.13 329.753 1520.68 L329.753 1515.95 Q332.577 1514.82 335.031 1514.24 Q337.484 1513.66 339.521 1513.66 Q344.892 1513.66 348.086 1516.35 Q351.28 1519.03 351.28 1523.52 Q351.28 1525.65 350.47 1527.57 Q349.683 1529.47 347.577 1532.07 Q346.998 1532.74 343.896 1535.95 Q340.794 1539.15 335.146 1544.91 Z" fill="#000000" fill-rule="nonzero" fill-opacity="1" /><path clip-path="url(#clip100)" d="M770.748 1532.02 L800.424 1532.02 L800.424 1535.95 L770.748 1535.95 L770.748 1532.02 Z" fill="#000000" fill-rule="nonzero" fill-opacity="1" /><path clip-path="url(#clip100)" d="M811.327 1544.91 L818.966 1544.91 L818.966 1518.55 L810.656 1520.21 L810.656 1515.95 L818.919 1514.29 L823.595 1514.29 L823.595 1544.91 L831.234 1544.91 L831.234 1548.85 L811.327 1548.85 L811.327 1544.91 Z" fill="#000000" fill-rule="nonzero" fill-opacity="1" /><path clip-path="url(#clip100)" d="M1280.57 1517.37 Q1276.96 1517.37 1275.13 1520.93 Q1273.33 1524.47 1273.33 1531.6 Q1273.33 1538.71 1275.13 1542.27 Q1276.96 1545.82 1280.57 1545.82 Q1284.21 1545.82 1286.01 1542.27 Q1287.84 1538.71 1287.84 1531.6 Q1287.84 1524.47 1286.01 1520.93 Q1284.21 1517.37 1280.57 1517.37 M1280.57 1513.66 Q1286.38 1513.66 1289.44 1518.27 Q1292.52 1522.85 1292.52 1531.6 Q1292.52 1540.33 1289.44 1544.94 Q1286.38 1549.52 1280.57 1549.52 Q1274.76 1549.52 1271.69 1544.94 Q1268.63 1540.33 1268.63 1531.6 Q1268.63 1522.85 1271.69 1518.27 Q1274.76 1513.66 1280.57 1513.66 Z" fill="#000000" fill-rule="nonzero" fill-opacity="1" /><path clip-path="url(#clip100)" d="M1750.54 1544.91 L1758.18 1544.91 L1758.18 1518.55 L1749.87 1520.21 L1749.87 1515.95 L1758.13 1514.29 L1762.81 1514.29 L1762.81 1544.91 L1770.45 1544.91 L1770.45 1548.85 L1750.54 1548.85 L1750.54 1544.91 Z" fill="#000000" fill-rule="nonzero" fill-opacity="1" /><path clip-path="url(#clip100)" d="M2234.39 1544.91 L2250.71 1544.91 L2250.71 1548.85 L2228.77 1548.85 L2228.77 1544.91 Q2231.43 1542.16 2236.01 1537.53 Q2240.62 1532.88 2241.8 1531.53 Q2244.05 1529.01 2244.93 1527.27 Q2245.83 1525.51 2245.83 1523.82 Q2245.83 1521.07 2243.88 1519.33 Q2241.96 1517.6 2238.86 1517.6 Q2236.66 1517.6 2234.21 1518.36 Q2231.78 1519.13 2229 1520.68 L2229 1515.95 Q2231.82 1514.82 2234.28 1514.24 Q2236.73 1513.66 2238.77 1513.66 Q2244.14 1513.66 2247.33 1516.35 Q2250.53 1519.03 2250.53 1523.52 Q2250.53 1525.65 2249.72 1527.57 Q2248.93 1529.47 2246.82 1532.07 Q2246.25 1532.74 2243.14 1535.95 Q2240.04 1539.15 2234.39 1544.91 Z" fill="#000000" fill-rule="nonzero" fill-opacity="1" /><polyline clip-path="url(#clip100)" style="stroke:#000000; stroke-linecap:round; stroke-linejoin:round; stroke-width:4; stroke-opacity:1; fill:none" points="147.478,1486.45 147.478,47.2441 "/>
<polyline clip-path="url(#clip100)" style="stroke:#000000; stroke-linecap:round; stroke-linejoin:round; stroke-width:4; stroke-opacity:1; fill:none" points="147.478,1301.87 166.376,1301.87 "/>
<polyline clip-path="url(#clip100)" style="stroke:#000000; stroke-linecap:round; stroke-linejoin:round; stroke-width:4; stroke-opacity:1; fill:none" points="147.478,928.702 166.376,928.702 "/>
<polyline clip-path="url(#clip100)" style="stroke:#000000; stroke-linecap:round; stroke-linejoin:round; stroke-width:4; stroke-opacity:1; fill:none" points="147.478,555.532 166.376,555.532 "/>
<polyline clip-path="url(#clip100)" style="stroke:#000000; stroke-linecap:round; stroke-linejoin:round; stroke-width:4; stroke-opacity:1; fill:none" points="147.478,182.362 166.376,182.362 "/>
<path clip-path="url(#clip100)" d="M51.3625 1302.32 L81.0383 1302.32 L81.0383 1306.26 L51.3625 1306.26 L51.3625 1302.32 Z" fill="#000000" fill-rule="nonzero" fill-opacity="1" /><path clip-path="url(#clip100)" d="M95.1586 1315.22 L111.478 1315.22 L111.478 1319.15 L89.5336 1319.15 L89.5336 1315.22 Q92.1956 1312.46 96.7789 1307.83 Q101.385 1303.18 102.566 1301.84 Q104.811 1299.31 105.691 1297.58 Q106.594 1295.82 106.594 1294.13 Q106.594 1291.37 104.649 1289.64 Q102.728 1287.9 99.6261 1287.9 Q97.4271 1287.9 94.9734 1288.67 Q92.5428 1289.43 89.7651 1290.98 L89.7651 1286.26 Q92.5891 1285.12 95.0428 1284.55 Q97.4965 1283.97 99.5335 1283.97 Q104.904 1283.97 108.098 1286.65 Q111.293 1289.34 111.293 1293.83 Q111.293 1295.96 110.483 1297.88 Q109.696 1299.78 107.589 1302.37 Q107.01 1303.04 103.909 1306.26 Q100.807 1309.45 95.1586 1315.22 Z" fill="#000000" fill-rule="nonzero" fill-opacity="1" /><path clip-path="url(#clip100)" d="M50.9921 929.154 L80.6679 929.154 L80.6679 933.089 L50.9921 933.089 L50.9921 929.154 Z" fill="#000000" fill-rule="nonzero" fill-opacity="1" /><path clip-path="url(#clip100)" d="M91.5706 942.047 L99.2095 942.047 L99.2095 915.681 L90.8993 917.348 L90.8993 913.089 L99.1632 911.422 L103.839 911.422 L103.839 942.047 L111.478 942.047 L111.478 945.982 L91.5706 945.982 L91.5706 942.047 Z" fill="#000000" fill-rule="nonzero" fill-opacity="1" /><path clip-path="url(#clip100)" d="M99.5335 541.331 Q95.9224 541.331 94.0937 544.895 Q92.2882 548.437 92.2882 555.567 Q92.2882 562.673 94.0937 566.238 Q95.9224 569.78 99.5335 569.78 Q103.168 569.78 104.973 566.238 Q106.802 562.673 106.802 555.567 Q106.802 548.437 104.973 544.895 Q103.168 541.331 99.5335 541.331 M99.5335 537.627 Q105.344 537.627 108.399 542.233 Q111.478 546.817 111.478 555.567 Q111.478 564.293 108.399 568.9 Q105.344 573.483 99.5335 573.483 Q93.7234 573.483 90.6447 568.9 Q87.5892 564.293 87.5892 555.567 Q87.5892 546.817 90.6447 542.233 Q93.7234 537.627 99.5335 537.627 Z" fill="#000000" fill-rule="nonzero" fill-opacity="1" /><path clip-path="url(#clip100)" d="M91.5706 195.707 L99.2095 195.707 L99.2095 169.341 L90.8993 171.008 L90.8993 166.748 L99.1632 165.082 L103.839 165.082 L103.839 195.707 L111.478 195.707 L111.478 199.642 L91.5706 199.642 L91.5706 195.707 Z" fill="#000000" fill-rule="nonzero" fill-opacity="1" /><circle clip-path="url(#clip102)" cx="973.941" cy="929.084" r="14.4" fill="#009af9" fill-rule="evenodd" fill-opacity="0.5" stroke="#000000" stroke-opacity="0.5" stroke-width="3.2"/>
<circle clip-path="url(#clip102)" cx="2290.34" cy="269.508" r="14.4" fill="#009af9" fill-rule="evenodd" fill-opacity="0.5" stroke="#000000" stroke-opacity="0.5" stroke-width="3.2"/>
<circle clip-path="url(#clip102)" cx="783.863" cy="961.127" r="14.4" fill="#009af9" fill-rule="evenodd" fill-opacity="0.5" stroke="#000000" stroke-opacity="0.5" stroke-width="3.2"/>
<circle clip-path="url(#clip102)" cx="1485.12" cy="336.324" r="14.4" fill="#009af9" fill-rule="evenodd" fill-opacity="0.5" stroke="#000000" stroke-opacity="0.5" stroke-width="3.2"/>
<circle clip-path="url(#clip102)" cx="1481.57" cy="442.398" r="14.4" fill="#009af9" fill-rule="evenodd" fill-opacity="0.5" stroke="#000000" stroke-opacity="0.5" stroke-width="3.2"/>
<circle clip-path="url(#clip102)" cx="1771.07" cy="502.736" r="14.4" fill="#009af9" fill-rule="evenodd" fill-opacity="0.5" stroke="#000000" stroke-opacity="0.5" stroke-width="3.2"/>
<circle clip-path="url(#clip102)" cx="818.3" cy="721.872" r="14.4" fill="#009af9" fill-rule="evenodd" fill-opacity="0.5" stroke="#000000" stroke-opacity="0.5" stroke-width="3.2"/>
<circle clip-path="url(#clip102)" cx="1220.07" cy="769.901" r="14.4" fill="#009af9" fill-rule="evenodd" fill-opacity="0.5" stroke="#000000" stroke-opacity="0.5" stroke-width="3.2"/>
<circle clip-path="url(#clip102)" cx="826.664" cy="570.456" r="14.4" fill="#009af9" fill-rule="evenodd" fill-opacity="0.5" stroke="#000000" stroke-opacity="0.5" stroke-width="3.2"/>
<circle clip-path="url(#clip102)" cx="804.287" cy="468.959" r="14.4" fill="#009af9" fill-rule="evenodd" fill-opacity="0.5" stroke="#000000" stroke-opacity="0.5" stroke-width="3.2"/>
<circle clip-path="url(#clip102)" cx="871.478" cy="300.41" r="14.4" fill="#009af9" fill-rule="evenodd" fill-opacity="0.5" stroke="#000000" stroke-opacity="0.5" stroke-width="3.2"/>
<circle clip-path="url(#clip102)" cx="816.097" cy="699.81" r="14.4" fill="#009af9" fill-rule="evenodd" fill-opacity="0.5" stroke="#000000" stroke-opacity="0.5" stroke-width="3.2"/>
<circle clip-path="url(#clip102)" cx="1411.94" cy="1213.41" r="14.4" fill="#009af9" fill-rule="evenodd" fill-opacity="0.5" stroke="#000000" stroke-opacity="0.5" stroke-width="3.2"/>
<circle clip-path="url(#clip102)" cx="583.764" cy="883.086" r="14.4" fill="#009af9" fill-rule="evenodd" fill-opacity="0.5" stroke="#000000" stroke-opacity="0.5" stroke-width="3.2"/>
<circle clip-path="url(#clip102)" cx="614.498" cy="710.324" r="14.4" fill="#009af9" fill-rule="evenodd" fill-opacity="0.5" stroke="#000000" stroke-opacity="0.5" stroke-width="3.2"/>
<circle clip-path="url(#clip102)" cx="394.314" cy="171.761" r="14.4" fill="#009af9" fill-rule="evenodd" fill-opacity="0.5" stroke="#000000" stroke-opacity="0.5" stroke-width="3.2"/>
<circle clip-path="url(#clip102)" cx="1384.72" cy="1341.25" r="14.4" fill="#009af9" fill-rule="evenodd" fill-opacity="0.5" stroke="#000000" stroke-opacity="0.5" stroke-width="3.2"/>
<circle clip-path="url(#clip102)" cx="1322.03" cy="697.139" r="14.4" fill="#009af9" fill-rule="evenodd" fill-opacity="0.5" stroke="#000000" stroke-opacity="0.5" stroke-width="3.2"/>
<circle clip-path="url(#clip102)" cx="1577.29" cy="637.722" r="14.4" fill="#009af9" fill-rule="evenodd" fill-opacity="0.5" stroke="#000000" stroke-opacity="0.5" stroke-width="3.2"/>
<circle clip-path="url(#clip102)" cx="1903.72" cy="1009.11" r="14.4" fill="#009af9" fill-rule="evenodd" fill-opacity="0.5" stroke="#000000" stroke-opacity="0.5" stroke-width="3.2"/>
<circle clip-path="url(#clip102)" cx="2113.6" cy="1326.94" r="14.4" fill="#009af9" fill-rule="evenodd" fill-opacity="0.5" stroke="#000000" stroke-opacity="0.5" stroke-width="3.2"/>
<circle clip-path="url(#clip102)" cx="1201.21" cy="454.001" r="14.4" fill="#009af9" fill-rule="evenodd" fill-opacity="0.5" stroke="#000000" stroke-opacity="0.5" stroke-width="3.2"/>
<circle clip-path="url(#clip102)" cx="209.891" cy="87.9763" r="14.4" fill="#009af9" fill-rule="evenodd" fill-opacity="0.5" stroke="#000000" stroke-opacity="0.5" stroke-width="3.2"/>
<circle clip-path="url(#clip102)" cx="1322.44" cy="439.562" r="14.4" fill="#009af9" fill-rule="evenodd" fill-opacity="0.5" stroke="#000000" stroke-opacity="0.5" stroke-width="3.2"/>
<circle clip-path="url(#clip102)" cx="970.969" cy="703.065" r="14.4" fill="#009af9" fill-rule="evenodd" fill-opacity="0.5" stroke="#000000" stroke-opacity="0.5" stroke-width="3.2"/>
<circle clip-path="url(#clip102)" cx="1161.44" cy="241.485" r="14.4" fill="#009af9" fill-rule="evenodd" fill-opacity="0.5" stroke="#000000" stroke-opacity="0.5" stroke-width="3.2"/>
<circle clip-path="url(#clip102)" cx="1879.25" cy="508.757" r="14.4" fill="#009af9" fill-rule="evenodd" fill-opacity="0.5" stroke="#000000" stroke-opacity="0.5" stroke-width="3.2"/>
<circle clip-path="url(#clip102)" cx="1424.95" cy="1053.96" r="14.4" fill="#009af9" fill-rule="evenodd" fill-opacity="0.5" stroke="#000000" stroke-opacity="0.5" stroke-width="3.2"/>
<circle clip-path="url(#clip102)" cx="2057.84" cy="1445.72" r="14.4" fill="#009af9" fill-rule="evenodd" fill-opacity="0.5" stroke="#000000" stroke-opacity="0.5" stroke-width="3.2"/>
<circle clip-path="url(#clip102)" cx="1631.56" cy="113.604" r="14.4" fill="#009af9" fill-rule="evenodd" fill-opacity="0.5" stroke="#000000" stroke-opacity="0.5" stroke-width="3.2"/>
<path clip-path="url(#clip102)" d="M209.891 87.9763 L583.764 883.086 L1384.72 1341.25 L2057.84 1445.72 L2113.6 1326.94 L2290.34 269.508 L1631.56 113.604 L209.891 87.9763 L209.891 87.9763  Z" fill="#e26f46" fill-rule="evenodd" fill-opacity="0.2"/>
<polyline clip-path="url(#clip102)" style="stroke:#000000; stroke-linecap:round; stroke-linejoin:round; stroke-width:4; stroke-opacity:0.2; fill:none" points="209.891,87.9763 583.764,883.086 1384.72,1341.25 2057.84,1445.72 2113.6,1326.94 2290.34,269.508 1631.56,113.604 209.891,87.9763 "/>
</svg>
