<?xml version="1.0" encoding="utf-8"?>
<svg xmlns="http://www.w3.org/2000/svg" xmlns:xlink="http://www.w3.org/1999/xlink" width="600" height="400" viewBox="0 0 2400 1600">
<defs>
  <clipPath id="clip600">
    <rect x="0" y="0" width="2400" height="1600"/>
  </clipPath>
</defs>
<path clip-path="url(#clip600)" d="M0 1600 L2400 1600 L2400 0 L0 0  Z" fill="#ffffff" fill-rule="evenodd" fill-opacity="1"/>
<defs>
  <clipPath id="clip601">
    <rect x="480" y="0" width="1681" height="1600"/>
  </clipPath>
</defs>
<path clip-path="url(#clip600)" d="M147.478 1486.45 L2352.76 1486.45 L2352.76 47.2441 L147.478 47.2441  Z" fill="#ffffff" fill-rule="evenodd" fill-opacity="1"/>
<defs>
  <clipPath id="clip602">
    <rect x="147" y="47" width="2206" height="1440"/>
  </clipPath>
</defs>
<polyline clip-path="url(#clip602)" style="stroke:#000000; stroke-linecap:round; stroke-linejoin:round; stroke-width:2; stroke-opacity:0.1; fill:none" points="375.9,1486.45 375.9,47.2441 "/>
<polyline clip-path="url(#clip602)" style="stroke:#000000; stroke-linecap:round; stroke-linejoin:round; stroke-width:2; stroke-opacity:0.1; fill:none" points="893.158,1486.45 893.158,47.2441 "/>
<polyline clip-path="url(#clip602)" style="stroke:#000000; stroke-linecap:round; stroke-linejoin:round; stroke-width:2; stroke-opacity:0.1; fill:none" points="1410.42,1486.45 1410.42,47.2441 "/>
<polyline clip-path="url(#clip602)" style="stroke:#000000; stroke-linecap:round; stroke-linejoin:round; stroke-width:2; stroke-opacity:0.1; fill:none" points="1927.67,1486.45 1927.67,47.2441 "/>
<polyline clip-path="url(#clip602)" style="stroke:#000000; stroke-linecap:round; stroke-linejoin:round; stroke-width:2; stroke-opacity:0.1; fill:none" points="147.478,1394.38 2352.76,1394.38 "/>
<polyline clip-path="url(#clip602)" style="stroke:#000000; stroke-linecap:round; stroke-linejoin:round; stroke-width:2; stroke-opacity:0.1; fill:none" points="147.478,1087.48 2352.76,1087.48 "/>
<polyline clip-path="url(#clip602)" style="stroke:#000000; stroke-linecap:round; stroke-linejoin:round; stroke-width:2; stroke-opacity:0.1; fill:none" points="147.478,780.567 2352.76,780.567 "/>
<polyline clip-path="url(#clip602)" style="stroke:#000000; stroke-linecap:round; stroke-linejoin:round; stroke-width:2; stroke-opacity:0.1; fill:none" points="147.478,473.659 2352.76,473.659 "/>
<polyline clip-path="url(#clip602)" style="stroke:#000000; stroke-linecap:round; stroke-linejoin:round; stroke-width:2; stroke-opacity:0.1; fill:none" points="147.478,166.751 2352.76,166.751 "/>
<polyline clip-path="url(#clip600)" style="stroke:#000000; stroke-linecap:round; stroke-linejoin:round; stroke-width:4; stroke-opacity:1; fill:none" points="147.478,1486.45 2352.76,1486.45 "/>
<polyline clip-path="url(#clip600)" style="stroke:#000000; stroke-linecap:round; stroke-linejoin:round; stroke-width:4; stroke-opacity:1; fill:none" points="375.9,1486.45 375.9,1467.55 "/>
<polyline clip-path="url(#clip600)" style="stroke:#000000; stroke-linecap:round; stroke-linejoin:round; stroke-width:4; stroke-opacity:1; fill:none" points="893.158,1486.45 893.158,1467.55 "/>
<polyline clip-path="url(#clip600)" style="stroke:#000000; stroke-linecap:round; stroke-linejoin:round; stroke-width:4; stroke-opacity:1; fill:none" points="1410.42,1486.45 1410.42,1467.55 "/>
<polyline clip-path="url(#clip600)" style="stroke:#000000; stroke-linecap:round; stroke-linejoin:round; stroke-width:4; stroke-opacity:1; fill:none" points="1927.67,1486.45 1927.67,1467.55 "/>
<path clip-path="url(#clip600)" d="M345.842 1532.02 L375.518 1532.02 L375.518 1535.95 L345.842 1535.95 L345.842 1532.02 Z" fill="#000000" fill-rule="nonzero" fill-opacity="1" /><path clip-path="url(#clip600)" d="M389.639 1544.91 L405.958 1544.91 L405.958 1548.85 L384.014 1548.85 L384.014 1544.91 Q386.676 1542.16 391.259 1537.53 Q395.865 1532.88 397.046 1531.53 Q399.291 1529.01 400.171 1527.27 Q401.074 1525.51 401.074 1523.82 Q401.074 1521.07 399.129 1519.33 Q397.208 1517.6 394.106 1517.6 Q391.907 1517.6 389.453 1518.36 Q387.023 1519.13 384.245 1520.68 L384.245 1515.95 Q387.069 1514.82 389.523 1514.24 Q391.976 1513.66 394.014 1513.66 Q399.384 1513.66 402.578 1516.35 Q405.773 1519.03 405.773 1523.52 Q405.773 1525.65 404.963 1527.57 Q404.175 1529.47 402.069 1532.07 Q401.49 1532.74 398.388 1535.95 Q395.287 1539.15 389.639 1544.91 Z" fill="#000000" fill-rule="nonzero" fill-opacity="1" /><path clip-path="url(#clip600)" d="M862.915 1532.02 L892.591 1532.02 L892.591 1535.95 L862.915 1535.95 L862.915 1532.02 Z" fill="#000000" fill-rule="nonzero" fill-opacity="1" /><path clip-path="url(#clip600)" d="M903.494 1544.91 L911.133 1544.91 L911.133 1518.55 L902.823 1520.21 L902.823 1515.95 L911.086 1514.29 L915.762 1514.29 L915.762 1544.91 L923.401 1544.91 L923.401 1548.85 L903.494 1548.85 L903.494 1544.91 Z" fill="#000000" fill-rule="nonzero" fill-opacity="1" /><path clip-path="url(#clip600)" d="M1410.42 1517.37 Q1406.81 1517.37 1404.98 1520.93 Q1403.17 1524.47 1403.17 1531.6 Q1403.17 1538.71 1404.98 1542.27 Q1406.81 1545.82 1410.42 1545.82 Q1414.05 1545.82 1415.86 1542.27 Q1417.68 1538.71 1417.68 1531.6 Q1417.68 1524.47 1415.86 1520.93 Q1414.05 1517.37 1410.42 1517.37 M1410.42 1513.66 Q1416.23 1513.66 1419.28 1518.27 Q1422.36 1522.85 1422.36 1531.6 Q1422.36 1540.33 1419.28 1544.94 Q1416.23 1549.52 1410.42 1549.52 Q1404.61 1549.52 1401.53 1544.94 Q1398.47 1540.33 1398.47 1531.6 Q1398.47 1522.85 1401.53 1518.27 Q1404.61 1513.66 1410.42 1513.66 Z" fill="#000000" fill-rule="nonzero" fill-opacity="1" /><path clip-path="url(#clip600)" d="M1918.06 1544.91 L1925.7 1544.91 L1925.7 1518.55 L1917.39 1520.21 L1917.39 1515.95 L1925.65 1514.29 L1930.32 1514.29 L1930.32 1544.91 L1937.96 1544.91 L1937.96 1548.85 L1918.06 1548.85 L1918.06 1544.91 Z" fill="#000000" fill-rule="nonzero" fill-opacity="1" /><polyline clip-path="url(#clip600)" style="stroke:#000000; stroke-linecap:round; stroke-linejoin:round; stroke-width:4; stroke-opacity:1; fill:none" points="147.478,1486.45 147.478,47.2441 "/>
<polyline clip-path="url(#clip600)" style="stroke:#000000; stroke-linecap:round; stroke-linejoin:round; stroke-width:4; stroke-opacity:1; fill:none" points="147.478,1394.38 166.376,1394.38 "/>
<polyline clip-path="url(#clip600)" style="stroke:#000000; stroke-linecap:round; stroke-linejoin:round; stroke-width:4; stroke-opacity:1; fill:none" points="147.478,1087.48 166.376,1087.48 "/>
<polyline clip-path="url(#clip600)" style="stroke:#000000; stroke-linecap:round; stroke-linejoin:round; stroke-width:4; stroke-opacity:1; fill:none" points="147.478,780.567 166.376,780.567 "/>
<polyline clip-path="url(#clip600)" style="stroke:#000000; stroke-linecap:round; stroke-linejoin:round; stroke-width:4; stroke-opacity:1; fill:none" points="147.478,473.659 166.376,473.659 "/>
<polyline clip-path="url(#clip600)" style="stroke:#000000; stroke-linecap:round; stroke-linejoin:round; stroke-width:4; stroke-opacity:1; fill:none" points="147.478,166.751 166.376,166.751 "/>
<path clip-path="url(#clip600)" d="M51.3625 1394.83 L81.0383 1394.83 L81.0383 1398.77 L51.3625 1398.77 L51.3625 1394.83 Z" fill="#000000" fill-rule="nonzero" fill-opacity="1" /><path clip-path="url(#clip600)" d="M95.1586 1407.73 L111.478 1407.73 L111.478 1411.66 L89.5336 1411.66 L89.5336 1407.73 Q92.1956 1404.97 96.7789 1400.34 Q101.385 1395.69 102.566 1394.35 Q104.811 1391.83 105.691 1390.09 Q106.594 1388.33 106.594 1386.64 Q106.594 1383.89 104.649 1382.15 Q102.728 1380.41 99.6261 1380.41 Q97.4271 1380.41 94.9734 1381.18 Q92.5428 1381.94 89.7651 1383.49 L89.7651 1378.77 Q92.5891 1377.64 95.0428 1377.06 Q97.4965 1376.48 99.5335 1376.48 Q104.904 1376.48 108.098 1379.16 Q111.293 1381.85 111.293 1386.34 Q111.293 1388.47 110.483 1390.39 Q109.696 1392.29 107.589 1394.88 Q107.01 1395.55 103.909 1398.77 Q100.807 1401.96 95.1586 1407.73 Z" fill="#000000" fill-rule="nonzero" fill-opacity="1" /><path clip-path="url(#clip600)" d="M50.9921 1087.93 L80.6679 1087.93 L80.6679 1091.86 L50.9921 1091.86 L50.9921 1087.93 Z" fill="#000000" fill-rule="nonzero" fill-opacity="1" /><path clip-path="url(#clip600)" d="M91.5706 1100.82 L99.2095 1100.82 L99.2095 1074.45 L90.8993 1076.12 L90.8993 1071.86 L99.1632 1070.2 L103.839 1070.2 L103.839 1100.82 L111.478 1100.82 L111.478 1104.76 L91.5706 1104.76 L91.5706 1100.82 Z" fill="#000000" fill-rule="nonzero" fill-opacity="1" /><path clip-path="url(#clip600)" d="M99.5335 766.366 Q95.9224 766.366 94.0937 769.931 Q92.2882 773.472 92.2882 780.602 Q92.2882 787.708 94.0937 791.273 Q95.9224 794.815 99.5335 794.815 Q103.168 794.815 104.973 791.273 Q106.802 787.708 106.802 780.602 Q106.802 773.472 104.973 769.931 Q103.168 766.366 99.5335 766.366 M99.5335 762.662 Q105.344 762.662 108.399 767.269 Q111.478 771.852 111.478 780.602 Q111.478 789.329 108.399 793.935 Q105.344 798.518 99.5335 798.518 Q93.7234 798.518 90.6447 793.935 Q87.5892 789.329 87.5892 780.602 Q87.5892 771.852 90.6447 767.269 Q93.7234 762.662 99.5335 762.662 Z" fill="#000000" fill-rule="nonzero" fill-opacity="1" /><path clip-path="url(#clip600)" d="M91.5706 487.004 L99.2095 487.004 L99.2095 460.638 L90.8993 462.305 L90.8993 458.046 L99.1632 456.379 L103.839 456.379 L103.839 487.004 L111.478 487.004 L111.478 490.939 L91.5706 490.939 L91.5706 487.004 Z" fill="#000000" fill-rule="nonzero" fill-opacity="1" /><path clip-path="url(#clip600)" d="M95.1586 180.096 L111.478 180.096 L111.478 184.031 L89.5336 184.031 L89.5336 180.096 Q92.1956 177.341 96.7789 172.711 Q101.385 168.059 102.566 166.716 Q104.811 164.193 105.691 162.457 Q106.594 160.698 106.594 159.008 Q106.594 156.253 104.649 154.517 Q102.728 152.781 99.6261 152.781 Q97.4271 152.781 94.9734 153.545 Q92.5428 154.309 89.7651 155.86 L89.7651 151.138 Q92.5891 150.003 95.0428 149.425 Q97.4965 148.846 99.5335 148.846 Q104.904 148.846 108.098 151.531 Q111.293 154.216 111.293 158.707 Q111.293 160.837 110.483 162.758 Q109.696 164.656 107.589 167.249 Q107.01 167.92 103.909 171.137 Q100.807 174.332 95.1586 180.096 Z" fill="#000000" fill-rule="nonzero" fill-opacity="1" /><circle clip-path="url(#clip602)" cx="388.761" cy="1027.78" r="14.4" fill="#009af9" fill-rule="evenodd" fill-opacity="0.5" stroke="#000000" stroke-opacity="0.5" stroke-width="3.2"/>
<circle clip-path="url(#clip602)" cx="463.303" cy="993.924" r="14.4" fill="#009af9" fill-rule="evenodd" fill-opacity="0.5" stroke="#000000" stroke-opacity="0.5" stroke-width="3.2"/>
<circle clip-path="url(#clip602)" cx="1986.36" cy="1445.72" r="14.4" fill="#009af9" fill-rule="evenodd" fill-opacity="0.5" stroke="#000000" stroke-opacity="0.5" stroke-width="3.2"/>
<circle clip-path="url(#clip602)" cx="209.891" cy="1038.85" r="14.4" fill="#009af9" fill-rule="evenodd" fill-opacity="0.5" stroke="#000000" stroke-opacity="0.5" stroke-width="3.2"/>
<circle clip-path="url(#clip602)" cx="1052.52" cy="1209.39" r="14.4" fill="#009af9" fill-rule="evenodd" fill-opacity="0.5" stroke="#000000" stroke-opacity="0.5" stroke-width="3.2"/>
<circle clip-path="url(#clip602)" cx="2097.57" cy="818.22" r="14.4" fill="#009af9" fill-rule="evenodd" fill-opacity="0.5" stroke="#000000" stroke-opacity="0.5" stroke-width="3.2"/>
<circle clip-path="url(#clip602)" cx="1870.9" cy="247.041" r="14.4" fill="#009af9" fill-rule="evenodd" fill-opacity="0.5" stroke="#000000" stroke-opacity="0.5" stroke-width="3.2"/>
<circle clip-path="url(#clip602)" cx="1622.86" cy="606.705" r="14.4" fill="#009af9" fill-rule="evenodd" fill-opacity="0.5" stroke="#000000" stroke-opacity="0.5" stroke-width="3.2"/>
<circle clip-path="url(#clip602)" cx="607.733" cy="87.9763" r="14.4" fill="#009af9" fill-rule="evenodd" fill-opacity="0.5" stroke="#000000" stroke-opacity="0.5" stroke-width="3.2"/>
<circle clip-path="url(#clip602)" cx="1360.64" cy="630.291" r="14.4" fill="#009af9" fill-rule="evenodd" fill-opacity="0.5" stroke="#000000" stroke-opacity="0.5" stroke-width="3.2"/>
<circle clip-path="url(#clip602)" cx="1011.1" cy="912.401" r="14.4" fill="#009af9" fill-rule="evenodd" fill-opacity="0.5" stroke="#000000" stroke-opacity="0.5" stroke-width="3.2"/>
<circle clip-path="url(#clip602)" cx="721.134" cy="1202.76" r="14.4" fill="#009af9" fill-rule="evenodd" fill-opacity="0.5" stroke="#000000" stroke-opacity="0.5" stroke-width="3.2"/>
<circle clip-path="url(#clip602)" cx="1681.34" cy="532.897" r="14.4" fill="#009af9" fill-rule="evenodd" fill-opacity="0.5" stroke="#000000" stroke-opacity="0.5" stroke-width="3.2"/>
<circle clip-path="url(#clip602)" cx="1709.19" cy="469.078" r="14.4" fill="#009af9" fill-rule="evenodd" fill-opacity="0.5" stroke="#000000" stroke-opacity="0.5" stroke-width="3.2"/>
<circle clip-path="url(#clip602)" cx="2064.59" cy="1214.38" r="14.4" fill="#009af9" fill-rule="evenodd" fill-opacity="0.5" stroke="#000000" stroke-opacity="0.5" stroke-width="3.2"/>
<circle clip-path="url(#clip602)" cx="914.355" cy="1123.41" r="14.4" fill="#009af9" fill-rule="evenodd" fill-opacity="0.5" stroke="#000000" stroke-opacity="0.5" stroke-width="3.2"/>
<circle clip-path="url(#clip602)" cx="1338.27" cy="692.642" r="14.4" fill="#009af9" fill-rule="evenodd" fill-opacity="0.5" stroke="#000000" stroke-opacity="0.5" stroke-width="3.2"/>
<circle clip-path="url(#clip602)" cx="2290.34" cy="469.329" r="14.4" fill="#009af9" fill-rule="evenodd" fill-opacity="0.5" stroke="#000000" stroke-opacity="0.5" stroke-width="3.2"/>
<circle clip-path="url(#clip602)" cx="1383.23" cy="1217.32" r="14.4" fill="#009af9" fill-rule="evenodd" fill-opacity="0.5" stroke="#000000" stroke-opacity="0.5" stroke-width="3.2"/>
<circle clip-path="url(#clip602)" cx="795.052" cy="849.613" r="14.4" fill="#009af9" fill-rule="evenodd" fill-opacity="0.5" stroke="#000000" stroke-opacity="0.5" stroke-width="3.2"/>
<circle clip-path="url(#clip602)" cx="1693.08" cy="517.18" r="14.4" fill="#009af9" fill-rule="evenodd" fill-opacity="0.5" stroke="#000000" stroke-opacity="0.5" stroke-width="3.2"/>
<circle clip-path="url(#clip602)" cx="2167.5" cy="676.71" r="14.4" fill="#009af9" fill-rule="evenodd" fill-opacity="0.5" stroke="#000000" stroke-opacity="0.5" stroke-width="3.2"/>
<circle clip-path="url(#clip602)" cx="1025.91" cy="720.826" r="14.4" fill="#009af9" fill-rule="evenodd" fill-opacity="0.5" stroke="#000000" stroke-opacity="0.5" stroke-width="3.2"/>
<circle clip-path="url(#clip602)" cx="1585.83" cy="904.252" r="14.4" fill="#009af9" fill-rule="evenodd" fill-opacity="0.5" stroke="#000000" stroke-opacity="0.5" stroke-width="3.2"/>
<circle clip-path="url(#clip602)" cx="1448.08" cy="426.837" r="14.4" fill="#009af9" fill-rule="evenodd" fill-opacity="0.5" stroke="#000000" stroke-opacity="0.5" stroke-width="3.2"/>
<circle clip-path="url(#clip602)" cx="1098.14" cy="617.374" r="14.4" fill="#009af9" fill-rule="evenodd" fill-opacity="0.5" stroke="#000000" stroke-opacity="0.5" stroke-width="3.2"/>
<circle clip-path="url(#clip602)" cx="847.136" cy="776.309" r="14.4" fill="#009af9" fill-rule="evenodd" fill-opacity="0.5" stroke="#000000" stroke-opacity="0.5" stroke-width="3.2"/>
<circle clip-path="url(#clip602)" cx="1029.94" cy="1317.63" r="14.4" fill="#009af9" fill-rule="evenodd" fill-opacity="0.5" stroke="#000000" stroke-opacity="0.5" stroke-width="3.2"/>
<circle clip-path="url(#clip602)" cx="1804.17" cy="627.434" r="14.4" fill="#009af9" fill-rule="evenodd" fill-opacity="0.5" stroke="#000000" stroke-opacity="0.5" stroke-width="3.2"/>
<circle clip-path="url(#clip602)" cx="1340.49" cy="725.561" r="14.4" fill="#009af9" fill-rule="evenodd" fill-opacity="0.5" stroke="#000000" stroke-opacity="0.5" stroke-width="3.2"/>
<path clip-path="url(#clip602)" d="M209.891 1038.85 L1029.94 1317.63 L1986.36 1445.72 L2064.59 1214.38 L2290.34 469.329 L1870.9 247.041 L607.733 87.9763 L209.891 1038.85 L209.891 1038.85  Z" fill="#e26f46" fill-rule="evenodd" fill-opacity="0.2"/>
<polyline clip-path="url(#clip602)" style="stroke:#000000; stroke-linecap:round; stroke-linejoin:round; stroke-width:4; stroke-opacity:0.2; fill:none" points="209.891,1038.85 1029.94,1317.63 1986.36,1445.72 2064.59,1214.38 2290.34,469.329 1870.9,247.041 607.733,87.9763 209.891,1038.85 "/>
</svg>
