<?xml version="1.0" encoding="utf-8"?>
<svg xmlns="http://www.w3.org/2000/svg" xmlns:xlink="http://www.w3.org/1999/xlink" width="600" height="400" viewBox="0 0 2400 1600">
<defs>
  <clipPath id="clip850">
    <rect x="0" y="0" width="2400" height="1600"/>
  </clipPath>
</defs>
<path clip-path="url(#clip850)" d="M0 1600 L2400 1600 L2400 0 L0 0  Z" fill="#ffffff" fill-rule="evenodd" fill-opacity="1"/>
<defs>
  <clipPath id="clip851">
    <rect x="480" y="0" width="1681" height="1600"/>
  </clipPath>
</defs>
<path clip-path="url(#clip850)" d="M193.936 1486.45 L2352.76 1486.45 L2352.76 47.2441 L193.936 47.2441  Z" fill="#ffffff" fill-rule="evenodd" fill-opacity="1"/>
<defs>
  <clipPath id="clip852">
    <rect x="193" y="47" width="2160" height="1440"/>
  </clipPath>
</defs>
<polyline clip-path="url(#clip852)" style="stroke:#000000; stroke-linecap:round; stroke-linejoin:round; stroke-width:2; stroke-opacity:0.1; fill:none" points="200.812,1486.45 200.812,47.2441 "/>
<polyline clip-path="url(#clip852)" style="stroke:#000000; stroke-linecap:round; stroke-linejoin:round; stroke-width:2; stroke-opacity:0.1; fill:none" points="644.485,1486.45 644.485,47.2441 "/>
<polyline clip-path="url(#clip852)" style="stroke:#000000; stroke-linecap:round; stroke-linejoin:round; stroke-width:2; stroke-opacity:0.1; fill:none" points="1088.16,1486.45 1088.16,47.2441 "/>
<polyline clip-path="url(#clip852)" style="stroke:#000000; stroke-linecap:round; stroke-linejoin:round; stroke-width:2; stroke-opacity:0.1; fill:none" points="1531.83,1486.45 1531.83,47.2441 "/>
<polyline clip-path="url(#clip852)" style="stroke:#000000; stroke-linecap:round; stroke-linejoin:round; stroke-width:2; stroke-opacity:0.1; fill:none" points="1975.5,1486.45 1975.5,47.2441 "/>
<polyline clip-path="url(#clip852)" style="stroke:#000000; stroke-linecap:round; stroke-linejoin:round; stroke-width:2; stroke-opacity:0.1; fill:none" points="193.936,1317.03 2352.76,1317.03 "/>
<polyline clip-path="url(#clip852)" style="stroke:#000000; stroke-linecap:round; stroke-linejoin:round; stroke-width:2; stroke-opacity:0.1; fill:none" points="193.936,1132.99 2352.76,1132.99 "/>
<polyline clip-path="url(#clip852)" style="stroke:#000000; stroke-linecap:round; stroke-linejoin:round; stroke-width:2; stroke-opacity:0.1; fill:none" points="193.936,948.96 2352.76,948.96 "/>
<polyline clip-path="url(#clip852)" style="stroke:#000000; stroke-linecap:round; stroke-linejoin:round; stroke-width:2; stroke-opacity:0.1; fill:none" points="193.936,764.926 2352.76,764.926 "/>
<polyline clip-path="url(#clip852)" style="stroke:#000000; stroke-linecap:round; stroke-linejoin:round; stroke-width:2; stroke-opacity:0.1; fill:none" points="193.936,580.893 2352.76,580.893 "/>
<polyline clip-path="url(#clip852)" style="stroke:#000000; stroke-linecap:round; stroke-linejoin:round; stroke-width:2; stroke-opacity:0.1; fill:none" points="193.936,396.859 2352.76,396.859 "/>
<polyline clip-path="url(#clip852)" style="stroke:#000000; stroke-linecap:round; stroke-linejoin:round; stroke-width:2; stroke-opacity:0.1; fill:none" points="193.936,212.825 2352.76,212.825 "/>
<polyline clip-path="url(#clip850)" style="stroke:#000000; stroke-linecap:round; stroke-linejoin:round; stroke-width:4; stroke-opacity:1; fill:none" points="193.936,1486.45 2352.76,1486.45 "/>
<polyline clip-path="url(#clip850)" style="stroke:#000000; stroke-linecap:round; stroke-linejoin:round; stroke-width:4; stroke-opacity:1; fill:none" points="200.812,1486.45 200.812,1467.55 "/>
<polyline clip-path="url(#clip850)" style="stroke:#000000; stroke-linecap:round; stroke-linejoin:round; stroke-width:4; stroke-opacity:1; fill:none" points="644.485,1486.45 644.485,1467.55 "/>
<polyline clip-path="url(#clip850)" style="stroke:#000000; stroke-linecap:round; stroke-linejoin:round; stroke-width:4; stroke-opacity:1; fill:none" points="1088.16,1486.45 1088.16,1467.55 "/>
<polyline clip-path="url(#clip850)" style="stroke:#000000; stroke-linecap:round; stroke-linejoin:round; stroke-width:4; stroke-opacity:1; fill:none" points="1531.83,1486.45 1531.83,1467.55 "/>
<polyline clip-path="url(#clip850)" style="stroke:#000000; stroke-linecap:round; stroke-linejoin:round; stroke-width:4; stroke-opacity:1; fill:none" points="1975.5,1486.45 1975.5,1467.55 "/>
<path clip-path="url(#clip850)" d="M170.28 1532.02 L199.955 1532.02 L199.955 1535.95 L170.28 1535.95 L170.28 1532.02 Z" fill="#000000" fill-rule="nonzero" fill-opacity="1" /><path clip-path="url(#clip850)" d="M224.215 1530.21 Q227.571 1530.93 229.446 1533.2 Q231.344 1535.47 231.344 1538.8 Q231.344 1543.92 227.826 1546.72 Q224.307 1549.52 217.826 1549.52 Q215.65 1549.52 213.335 1549.08 Q211.043 1548.66 208.59 1547.81 L208.59 1543.29 Q210.534 1544.43 212.849 1545.01 Q215.164 1545.58 217.687 1545.58 Q222.085 1545.58 224.377 1543.85 Q226.691 1542.11 226.691 1538.8 Q226.691 1535.75 224.539 1534.03 Q222.409 1532.3 218.59 1532.3 L214.562 1532.3 L214.562 1528.45 L218.775 1528.45 Q222.224 1528.45 224.053 1527.09 Q225.881 1525.7 225.881 1523.11 Q225.881 1520.45 223.983 1519.03 Q222.108 1517.6 218.59 1517.6 Q216.668 1517.6 214.469 1518.01 Q212.27 1518.43 209.631 1519.31 L209.631 1515.14 Q212.293 1514.4 214.608 1514.03 Q216.946 1513.66 219.006 1513.66 Q224.33 1513.66 227.432 1516.09 Q230.534 1518.5 230.534 1522.62 Q230.534 1525.49 228.89 1527.48 Q227.247 1529.45 224.215 1530.21 Z" fill="#000000" fill-rule="nonzero" fill-opacity="1" /><path clip-path="url(#clip850)" d="M614.427 1532.02 L644.103 1532.02 L644.103 1535.95 L614.427 1535.95 L614.427 1532.02 Z" fill="#000000" fill-rule="nonzero" fill-opacity="1" /><path clip-path="url(#clip850)" d="M658.223 1544.91 L674.542 1544.91 L674.542 1548.85 L652.598 1548.85 L652.598 1544.91 Q655.26 1542.16 659.843 1537.53 Q664.45 1532.88 665.63 1531.53 Q667.876 1529.01 668.755 1527.27 Q669.658 1525.51 669.658 1523.82 Q669.658 1521.07 667.714 1519.33 Q665.792 1517.6 662.69 1517.6 Q660.491 1517.6 658.038 1518.36 Q655.607 1519.13 652.829 1520.68 L652.829 1515.95 Q655.653 1514.82 658.107 1514.24 Q660.561 1513.66 662.598 1513.66 Q667.968 1513.66 671.163 1516.35 Q674.357 1519.03 674.357 1523.52 Q674.357 1525.65 673.547 1527.57 Q672.76 1529.47 670.653 1532.07 Q670.075 1532.74 666.973 1535.95 Q663.871 1539.15 658.223 1544.91 Z" fill="#000000" fill-rule="nonzero" fill-opacity="1" /><path clip-path="url(#clip850)" d="M1057.91 1532.02 L1087.59 1532.02 L1087.59 1535.95 L1057.91 1535.95 L1057.91 1532.02 Z" fill="#000000" fill-rule="nonzero" fill-opacity="1" /><path clip-path="url(#clip850)" d="M1098.49 1544.91 L1106.13 1544.91 L1106.13 1518.55 L1097.82 1520.21 L1097.82 1515.95 L1106.09 1514.29 L1110.76 1514.29 L1110.76 1544.91 L1118.4 1544.91 L1118.4 1548.85 L1098.49 1548.85 L1098.49 1544.91 Z" fill="#000000" fill-rule="nonzero" fill-opacity="1" /><path clip-path="url(#clip850)" d="M1531.83 1517.37 Q1528.22 1517.37 1526.39 1520.93 Q1524.58 1524.47 1524.58 1531.6 Q1524.58 1538.71 1526.39 1542.27 Q1528.22 1545.82 1531.83 1545.82 Q1535.46 1545.82 1537.27 1542.27 Q1539.1 1538.71 1539.1 1531.6 Q1539.1 1524.47 1537.27 1520.93 Q1535.46 1517.37 1531.83 1517.37 M1531.83 1513.66 Q1537.64 1513.66 1540.7 1518.27 Q1543.77 1522.85 1543.77 1531.6 Q1543.77 1540.33 1540.7 1544.94 Q1537.64 1549.52 1531.83 1549.52 Q1526.02 1549.52 1522.94 1544.94 Q1519.89 1540.33 1519.89 1531.6 Q1519.89 1522.85 1522.94 1518.27 Q1526.02 1513.66 1531.83 1513.66 Z" fill="#000000" fill-rule="nonzero" fill-opacity="1" /><path clip-path="url(#clip850)" d="M1965.88 1544.91 L1973.52 1544.91 L1973.52 1518.55 L1965.21 1520.21 L1965.21 1515.95 L1973.48 1514.29 L1978.15 1514.29 L1978.15 1544.91 L1985.79 1544.91 L1985.79 1548.85 L1965.88 1548.85 L1965.88 1544.91 Z" fill="#000000" fill-rule="nonzero" fill-opacity="1" /><polyline clip-path="url(#clip850)" style="stroke:#000000; stroke-linecap:round; stroke-linejoin:round; stroke-width:4; stroke-opacity:1; fill:none" points="193.936,1486.45 193.936,47.2441 "/>
<polyline clip-path="url(#clip850)" style="stroke:#000000; stroke-linecap:round; stroke-linejoin:round; stroke-width:4; stroke-opacity:1; fill:none" points="193.936,1317.03 212.834,1317.03 "/>
<polyline clip-path="url(#clip850)" style="stroke:#000000; stroke-linecap:round; stroke-linejoin:round; stroke-width:4; stroke-opacity:1; fill:none" points="193.936,1132.99 212.834,1132.99 "/>
<polyline clip-path="url(#clip850)" style="stroke:#000000; stroke-linecap:round; stroke-linejoin:round; stroke-width:4; stroke-opacity:1; fill:none" points="193.936,948.96 212.834,948.96 "/>
<polyline clip-path="url(#clip850)" style="stroke:#000000; stroke-linecap:round; stroke-linejoin:round; stroke-width:4; stroke-opacity:1; fill:none" points="193.936,764.926 212.834,764.926 "/>
<polyline clip-path="url(#clip850)" style="stroke:#000000; stroke-linecap:round; stroke-linejoin:round; stroke-width:4; stroke-opacity:1; fill:none" points="193.936,580.893 212.834,580.893 "/>
<polyline clip-path="url(#clip850)" style="stroke:#000000; stroke-linecap:round; stroke-linejoin:round; stroke-width:4; stroke-opacity:1; fill:none" points="193.936,396.859 212.834,396.859 "/>
<polyline clip-path="url(#clip850)" style="stroke:#000000; stroke-linecap:round; stroke-linejoin:round; stroke-width:4; stroke-opacity:1; fill:none" points="193.936,212.825 212.834,212.825 "/>
<path clip-path="url(#clip850)" d="M51.9875 1317.48 L81.6633 1317.48 L81.6633 1321.41 L51.9875 1321.41 L51.9875 1317.48 Z" fill="#000000" fill-rule="nonzero" fill-opacity="1" /><path clip-path="url(#clip850)" d="M92.566 1330.37 L100.205 1330.37 L100.205 1304.01 L91.8947 1305.67 L91.8947 1301.41 L100.159 1299.75 L104.834 1299.75 L104.834 1330.37 L112.473 1330.37 L112.473 1334.31 L92.566 1334.31 L92.566 1330.37 Z" fill="#000000" fill-rule="nonzero" fill-opacity="1" /><path clip-path="url(#clip850)" d="M121.918 1328.43 L126.802 1328.43 L126.802 1334.31 L121.918 1334.31 L121.918 1328.43 Z" fill="#000000" fill-rule="nonzero" fill-opacity="1" /><path clip-path="url(#clip850)" d="M137.033 1299.75 L155.39 1299.75 L155.39 1303.68 L141.316 1303.68 L141.316 1312.15 Q142.334 1311.81 143.353 1311.65 Q144.371 1311.46 145.39 1311.46 Q151.177 1311.46 154.556 1314.63 Q157.936 1317.8 157.936 1323.22 Q157.936 1328.8 154.464 1331.9 Q150.992 1334.98 144.672 1334.98 Q142.496 1334.98 140.228 1334.61 Q137.982 1334.24 135.575 1333.5 L135.575 1328.8 Q137.658 1329.93 139.881 1330.49 Q142.103 1331.04 144.58 1331.04 Q148.584 1331.04 150.922 1328.94 Q153.26 1326.83 153.26 1323.22 Q153.26 1319.61 150.922 1317.5 Q148.584 1315.4 144.58 1315.4 Q142.705 1315.4 140.83 1315.81 Q138.978 1316.23 137.033 1317.11 L137.033 1299.75 Z" fill="#000000" fill-rule="nonzero" fill-opacity="1" /><path clip-path="url(#clip850)" d="M50.9921 1133.45 L80.6679 1133.45 L80.6679 1137.38 L50.9921 1137.38 L50.9921 1133.45 Z" fill="#000000" fill-rule="nonzero" fill-opacity="1" /><path clip-path="url(#clip850)" d="M91.5706 1146.34 L99.2095 1146.34 L99.2095 1119.97 L90.8993 1121.64 L90.8993 1117.38 L99.1632 1115.71 L103.839 1115.71 L103.839 1146.34 L111.478 1146.34 L111.478 1150.27 L91.5706 1150.27 L91.5706 1146.34 Z" fill="#000000" fill-rule="nonzero" fill-opacity="1" /><path clip-path="url(#clip850)" d="M120.922 1144.39 L125.807 1144.39 L125.807 1150.27 L120.922 1150.27 L120.922 1144.39 Z" fill="#000000" fill-rule="nonzero" fill-opacity="1" /><path clip-path="url(#clip850)" d="M145.992 1118.79 Q142.381 1118.79 140.552 1122.36 Q138.746 1125.9 138.746 1133.03 Q138.746 1140.13 140.552 1143.7 Q142.381 1147.24 145.992 1147.24 Q149.626 1147.24 151.431 1143.7 Q153.26 1140.13 153.26 1133.03 Q153.26 1125.9 151.431 1122.36 Q149.626 1118.79 145.992 1118.79 M145.992 1115.09 Q151.802 1115.09 154.857 1119.7 Q157.936 1124.28 157.936 1133.03 Q157.936 1141.76 154.857 1146.36 Q151.802 1150.95 145.992 1150.95 Q140.181 1150.95 137.103 1146.36 Q134.047 1141.76 134.047 1133.03 Q134.047 1124.28 137.103 1119.7 Q140.181 1115.09 145.992 1115.09 Z" fill="#000000" fill-rule="nonzero" fill-opacity="1" /><path clip-path="url(#clip850)" d="M51.9875 949.411 L81.6633 949.411 L81.6633 953.347 L51.9875 953.347 L51.9875 949.411 Z" fill="#000000" fill-rule="nonzero" fill-opacity="1" /><path clip-path="url(#clip850)" d="M101.756 934.759 Q98.1447 934.759 96.316 938.324 Q94.5104 941.865 94.5104 948.995 Q94.5104 956.101 96.316 959.666 Q98.1447 963.208 101.756 963.208 Q105.39 963.208 107.196 959.666 Q109.024 956.101 109.024 948.995 Q109.024 941.865 107.196 938.324 Q105.39 934.759 101.756 934.759 M101.756 931.055 Q107.566 931.055 110.621 935.662 Q113.7 940.245 113.7 948.995 Q113.7 957.722 110.621 962.328 Q107.566 966.911 101.756 966.911 Q95.9456 966.911 92.8669 962.328 Q89.8114 957.722 89.8114 948.995 Q89.8114 940.245 92.8669 935.662 Q95.9456 931.055 101.756 931.055 Z" fill="#000000" fill-rule="nonzero" fill-opacity="1" /><path clip-path="url(#clip850)" d="M121.918 960.36 L126.802 960.36 L126.802 966.24 L121.918 966.24 L121.918 960.36 Z" fill="#000000" fill-rule="nonzero" fill-opacity="1" /><path clip-path="url(#clip850)" d="M137.033 931.68 L155.39 931.68 L155.39 935.615 L141.316 935.615 L141.316 944.087 Q142.334 943.74 143.353 943.578 Q144.371 943.393 145.39 943.393 Q151.177 943.393 154.556 946.564 Q157.936 949.736 157.936 955.152 Q157.936 960.731 154.464 963.833 Q150.992 966.911 144.672 966.911 Q142.496 966.911 140.228 966.541 Q137.982 966.171 135.575 965.43 L135.575 960.731 Q137.658 961.865 139.881 962.421 Q142.103 962.976 144.58 962.976 Q148.584 962.976 150.922 960.87 Q153.26 958.763 153.26 955.152 Q153.26 951.541 150.922 949.435 Q148.584 947.328 144.58 947.328 Q142.705 947.328 140.83 947.745 Q138.978 948.161 137.033 949.041 L137.033 931.68 Z" fill="#000000" fill-rule="nonzero" fill-opacity="1" /><path clip-path="url(#clip850)" d="M100.76 750.725 Q97.1493 750.725 95.3206 754.29 Q93.515 757.831 93.515 764.961 Q93.515 772.068 95.3206 775.632 Q97.1493 779.174 100.76 779.174 Q104.395 779.174 106.2 775.632 Q108.029 772.068 108.029 764.961 Q108.029 757.831 106.2 754.29 Q104.395 750.725 100.76 750.725 M100.76 747.021 Q106.571 747.021 109.626 751.628 Q112.705 756.211 112.705 764.961 Q112.705 773.688 109.626 778.294 Q106.571 782.878 100.76 782.878 Q94.9502 782.878 91.8715 778.294 Q88.816 773.688 88.816 764.961 Q88.816 756.211 91.8715 751.628 Q94.9502 747.021 100.76 747.021 Z" fill="#000000" fill-rule="nonzero" fill-opacity="1" /><path clip-path="url(#clip850)" d="M120.922 776.327 L125.807 776.327 L125.807 782.206 L120.922 782.206 L120.922 776.327 Z" fill="#000000" fill-rule="nonzero" fill-opacity="1" /><path clip-path="url(#clip850)" d="M145.992 750.725 Q142.381 750.725 140.552 754.29 Q138.746 757.831 138.746 764.961 Q138.746 772.068 140.552 775.632 Q142.381 779.174 145.992 779.174 Q149.626 779.174 151.431 775.632 Q153.26 772.068 153.26 764.961 Q153.26 757.831 151.431 754.29 Q149.626 750.725 145.992 750.725 M145.992 747.021 Q151.802 747.021 154.857 751.628 Q157.936 756.211 157.936 764.961 Q157.936 773.688 154.857 778.294 Q151.802 782.878 145.992 782.878 Q140.181 782.878 137.103 778.294 Q134.047 773.688 134.047 764.961 Q134.047 756.211 137.103 751.628 Q140.181 747.021 145.992 747.021 Z" fill="#000000" fill-rule="nonzero" fill-opacity="1" /><path clip-path="url(#clip850)" d="M101.756 566.691 Q98.1447 566.691 96.316 570.256 Q94.5104 573.798 94.5104 580.927 Q94.5104 588.034 96.316 591.599 Q98.1447 595.14 101.756 595.14 Q105.39 595.14 107.196 591.599 Q109.024 588.034 109.024 580.927 Q109.024 573.798 107.196 570.256 Q105.39 566.691 101.756 566.691 M101.756 562.988 Q107.566 562.988 110.621 567.594 Q113.7 572.177 113.7 580.927 Q113.7 589.654 110.621 594.261 Q107.566 598.844 101.756 598.844 Q95.9456 598.844 92.8669 594.261 Q89.8114 589.654 89.8114 580.927 Q89.8114 572.177 92.8669 567.594 Q95.9456 562.988 101.756 562.988 Z" fill="#000000" fill-rule="nonzero" fill-opacity="1" /><path clip-path="url(#clip850)" d="M121.918 592.293 L126.802 592.293 L126.802 598.173 L121.918 598.173 L121.918 592.293 Z" fill="#000000" fill-rule="nonzero" fill-opacity="1" /><path clip-path="url(#clip850)" d="M137.033 563.613 L155.39 563.613 L155.39 567.548 L141.316 567.548 L141.316 576.02 Q142.334 575.673 143.353 575.511 Q144.371 575.326 145.39 575.326 Q151.177 575.326 154.556 578.497 Q157.936 581.668 157.936 587.085 Q157.936 592.663 154.464 595.765 Q150.992 598.844 144.672 598.844 Q142.496 598.844 140.228 598.474 Q137.982 598.103 135.575 597.363 L135.575 592.663 Q137.658 593.798 139.881 594.353 Q142.103 594.909 144.58 594.909 Q148.584 594.909 150.922 592.802 Q153.26 590.696 153.26 587.085 Q153.26 583.474 150.922 581.367 Q148.584 579.261 144.58 579.261 Q142.705 579.261 140.83 579.677 Q138.978 580.094 137.033 580.974 L137.033 563.613 Z" fill="#000000" fill-rule="nonzero" fill-opacity="1" /><path clip-path="url(#clip850)" d="M91.5706 410.204 L99.2095 410.204 L99.2095 383.838 L90.8993 385.505 L90.8993 381.246 L99.1632 379.579 L103.839 379.579 L103.839 410.204 L111.478 410.204 L111.478 414.139 L91.5706 414.139 L91.5706 410.204 Z" fill="#000000" fill-rule="nonzero" fill-opacity="1" /><path clip-path="url(#clip850)" d="M120.922 408.259 L125.807 408.259 L125.807 414.139 L120.922 414.139 L120.922 408.259 Z" fill="#000000" fill-rule="nonzero" fill-opacity="1" /><path clip-path="url(#clip850)" d="M145.992 382.658 Q142.381 382.658 140.552 386.222 Q138.746 389.764 138.746 396.894 Q138.746 404 140.552 407.565 Q142.381 411.107 145.992 411.107 Q149.626 411.107 151.431 407.565 Q153.26 404 153.26 396.894 Q153.26 389.764 151.431 386.222 Q149.626 382.658 145.992 382.658 M145.992 378.954 Q151.802 378.954 154.857 383.56 Q157.936 388.144 157.936 396.894 Q157.936 405.621 154.857 410.227 Q151.802 414.81 145.992 414.81 Q140.181 414.81 137.103 410.227 Q134.047 405.621 134.047 396.894 Q134.047 388.144 137.103 383.56 Q140.181 378.954 145.992 378.954 Z" fill="#000000" fill-rule="nonzero" fill-opacity="1" /><path clip-path="url(#clip850)" d="M92.566 226.17 L100.205 226.17 L100.205 199.805 L91.8947 201.471 L91.8947 197.212 L100.159 195.545 L104.834 195.545 L104.834 226.17 L112.473 226.17 L112.473 230.105 L92.566 230.105 L92.566 226.17 Z" fill="#000000" fill-rule="nonzero" fill-opacity="1" /><path clip-path="url(#clip850)" d="M121.918 224.226 L126.802 224.226 L126.802 230.105 L121.918 230.105 L121.918 224.226 Z" fill="#000000" fill-rule="nonzero" fill-opacity="1" /><path clip-path="url(#clip850)" d="M137.033 195.545 L155.39 195.545 L155.39 199.48 L141.316 199.48 L141.316 207.953 Q142.334 207.605 143.353 207.443 Q144.371 207.258 145.39 207.258 Q151.177 207.258 154.556 210.429 Q157.936 213.601 157.936 219.017 Q157.936 224.596 154.464 227.698 Q150.992 230.777 144.672 230.777 Q142.496 230.777 140.228 230.406 Q137.982 230.036 135.575 229.295 L135.575 224.596 Q137.658 225.73 139.881 226.286 Q142.103 226.841 144.58 226.841 Q148.584 226.841 150.922 224.735 Q153.26 222.629 153.26 219.017 Q153.26 215.406 150.922 213.3 Q148.584 211.193 144.58 211.193 Q142.705 211.193 140.83 211.61 Q138.978 212.027 137.033 212.906 L137.033 195.545 Z" fill="#000000" fill-rule="nonzero" fill-opacity="1" /><circle clip-path="url(#clip852)" cx="1240" cy="933.352" r="14.4" fill="#009af9" fill-rule="evenodd" fill-opacity="0.5" stroke="#000000" stroke-opacity="0.5" stroke-width="3.2"/>
<circle clip-path="url(#clip852)" cx="1953.77" cy="324.958" r="14.4" fill="#009af9" fill-rule="evenodd" fill-opacity="0.5" stroke="#000000" stroke-opacity="0.5" stroke-width="3.2"/>
<circle clip-path="url(#clip852)" cx="1181.6" cy="247.222" r="14.4" fill="#009af9" fill-rule="evenodd" fill-opacity="0.5" stroke="#000000" stroke-opacity="0.5" stroke-width="3.2"/>
<circle clip-path="url(#clip852)" cx="1587.63" cy="772.1" r="14.4" fill="#009af9" fill-rule="evenodd" fill-opacity="0.5" stroke="#000000" stroke-opacity="0.5" stroke-width="3.2"/>
<circle clip-path="url(#clip852)" cx="1592.95" cy="584.88" r="14.4" fill="#009af9" fill-rule="evenodd" fill-opacity="0.5" stroke="#000000" stroke-opacity="0.5" stroke-width="3.2"/>
<circle clip-path="url(#clip852)" cx="1643.87" cy="982.594" r="14.4" fill="#009af9" fill-rule="evenodd" fill-opacity="0.5" stroke="#000000" stroke-opacity="0.5" stroke-width="3.2"/>
<circle clip-path="url(#clip852)" cx="1769.36" cy="548.808" r="14.4" fill="#009af9" fill-rule="evenodd" fill-opacity="0.5" stroke="#000000" stroke-opacity="0.5" stroke-width="3.2"/>
<circle clip-path="url(#clip852)" cx="1364.47" cy="1099.53" r="14.4" fill="#009af9" fill-rule="evenodd" fill-opacity="0.5" stroke="#000000" stroke-opacity="0.5" stroke-width="3.2"/>
<circle clip-path="url(#clip852)" cx="1634.39" cy="632.827" r="14.4" fill="#009af9" fill-rule="evenodd" fill-opacity="0.5" stroke="#000000" stroke-opacity="0.5" stroke-width="3.2"/>
<circle clip-path="url(#clip852)" cx="2012" cy="871.336" r="14.4" fill="#009af9" fill-rule="evenodd" fill-opacity="0.5" stroke="#000000" stroke-opacity="0.5" stroke-width="3.2"/>
<circle clip-path="url(#clip852)" cx="1877.2" cy="1317.43" r="14.4" fill="#009af9" fill-rule="evenodd" fill-opacity="0.5" stroke="#000000" stroke-opacity="0.5" stroke-width="3.2"/>
<circle clip-path="url(#clip852)" cx="1511.07" cy="598.165" r="14.4" fill="#009af9" fill-rule="evenodd" fill-opacity="0.5" stroke="#000000" stroke-opacity="0.5" stroke-width="3.2"/>
<circle clip-path="url(#clip852)" cx="1639.77" cy="1173.53" r="14.4" fill="#009af9" fill-rule="evenodd" fill-opacity="0.5" stroke="#000000" stroke-opacity="0.5" stroke-width="3.2"/>
<circle clip-path="url(#clip852)" cx="2054.63" cy="729.993" r="14.4" fill="#009af9" fill-rule="evenodd" fill-opacity="0.5" stroke="#000000" stroke-opacity="0.5" stroke-width="3.2"/>
<circle clip-path="url(#clip852)" cx="1785.82" cy="1445.72" r="14.4" fill="#009af9" fill-rule="evenodd" fill-opacity="0.5" stroke="#000000" stroke-opacity="0.5" stroke-width="3.2"/>
<circle clip-path="url(#clip852)" cx="945.671" cy="240.953" r="14.4" fill="#009af9" fill-rule="evenodd" fill-opacity="0.5" stroke="#000000" stroke-opacity="0.5" stroke-width="3.2"/>
<circle clip-path="url(#clip852)" cx="1777.08" cy="740.682" r="14.4" fill="#009af9" fill-rule="evenodd" fill-opacity="0.5" stroke="#000000" stroke-opacity="0.5" stroke-width="3.2"/>
<circle clip-path="url(#clip852)" cx="756.105" cy="876.432" r="14.4" fill="#009af9" fill-rule="evenodd" fill-opacity="0.5" stroke="#000000" stroke-opacity="0.5" stroke-width="3.2"/>
<circle clip-path="url(#clip852)" cx="1512.21" cy="87.9763" r="14.4" fill="#009af9" fill-rule="evenodd" fill-opacity="0.5" stroke="#000000" stroke-opacity="0.5" stroke-width="3.2"/>
<circle clip-path="url(#clip852)" cx="1445.02" cy="505.477" r="14.4" fill="#009af9" fill-rule="evenodd" fill-opacity="0.5" stroke="#000000" stroke-opacity="0.5" stroke-width="3.2"/>
<circle clip-path="url(#clip852)" cx="1620.33" cy="578.753" r="14.4" fill="#009af9" fill-rule="evenodd" fill-opacity="0.5" stroke="#000000" stroke-opacity="0.5" stroke-width="3.2"/>
<circle clip-path="url(#clip852)" cx="2291.66" cy="968.5" r="14.4" fill="#009af9" fill-rule="evenodd" fill-opacity="0.5" stroke="#000000" stroke-opacity="0.5" stroke-width="3.2"/>
<circle clip-path="url(#clip852)" cx="1677.3" cy="373.376" r="14.4" fill="#009af9" fill-rule="evenodd" fill-opacity="0.5" stroke="#000000" stroke-opacity="0.5" stroke-width="3.2"/>
<circle clip-path="url(#clip852)" cx="1926.64" cy="703.336" r="14.4" fill="#009af9" fill-rule="evenodd" fill-opacity="0.5" stroke="#000000" stroke-opacity="0.5" stroke-width="3.2"/>
<circle clip-path="url(#clip852)" cx="255.035" cy="1307.16" r="14.4" fill="#009af9" fill-rule="evenodd" fill-opacity="0.5" stroke="#000000" stroke-opacity="0.5" stroke-width="3.2"/>
<circle clip-path="url(#clip852)" cx="1676.46" cy="720.934" r="14.4" fill="#009af9" fill-rule="evenodd" fill-opacity="0.5" stroke="#000000" stroke-opacity="0.5" stroke-width="3.2"/>
<circle clip-path="url(#clip852)" cx="1390.33" cy="942.082" r="14.4" fill="#009af9" fill-rule="evenodd" fill-opacity="0.5" stroke="#000000" stroke-opacity="0.5" stroke-width="3.2"/>
<circle clip-path="url(#clip852)" cx="1701.75" cy="886.065" r="14.4" fill="#009af9" fill-rule="evenodd" fill-opacity="0.5" stroke="#000000" stroke-opacity="0.5" stroke-width="3.2"/>
<circle clip-path="url(#clip852)" cx="943.031" cy="914.243" r="14.4" fill="#009af9" fill-rule="evenodd" fill-opacity="0.5" stroke="#000000" stroke-opacity="0.5" stroke-width="3.2"/>
<circle clip-path="url(#clip852)" cx="2159.74" cy="717.589" r="14.4" fill="#009af9" fill-rule="evenodd" fill-opacity="0.5" stroke="#000000" stroke-opacity="0.5" stroke-width="3.2"/>
<path clip-path="url(#clip852)" d="M255.035 1307.16 L1785.82 1445.72 L2291.66 968.5 L1953.77 324.958 L1512.21 87.9763 L945.671 240.953 L255.035 1307.16 L255.035 1307.16  Z" fill="#e26f46" fill-rule="evenodd" fill-opacity="0.2"/>
<polyline clip-path="url(#clip852)" style="stroke:#000000; stroke-linecap:round; stroke-linejoin:round; stroke-width:4; stroke-opacity:0.2; fill:none" points="255.035,1307.16 1785.82,1445.72 2291.66,968.5 1953.77,324.958 1512.21,87.9763 945.671,240.953 255.035,1307.16 "/>
</svg>
