<?xml version="1.0" encoding="utf-8"?>
<svg xmlns="http://www.w3.org/2000/svg" xmlns:xlink="http://www.w3.org/1999/xlink" width="600" height="400" viewBox="0 0 2400 1600">
<defs>
  <clipPath id="clip660">
    <rect x="0" y="0" width="2400" height="1600"/>
  </clipPath>
</defs>
<path clip-path="url(#clip660)" d="M0 1600 L2400 1600 L2400 0 L0 0  Z" fill="#ffffff" fill-rule="evenodd" fill-opacity="1"/>
<defs>
  <clipPath id="clip661">
    <rect x="480" y="0" width="1681" height="1600"/>
  </clipPath>
</defs>
<path clip-path="url(#clip660)" d="M193.936 1486.45 L2352.76 1486.45 L2352.76 47.2441 L193.936 47.2441  Z" fill="#ffffff" fill-rule="evenodd" fill-opacity="1"/>
<defs>
  <clipPath id="clip662">
    <rect x="193" y="47" width="2160" height="1440"/>
  </clipPath>
</defs>
<polyline clip-path="url(#clip662)" style="stroke:#000000; stroke-linecap:round; stroke-linejoin:round; stroke-width:2; stroke-opacity:0.1; fill:none" points="464.115,1486.45 464.115,47.2441 "/>
<polyline clip-path="url(#clip662)" style="stroke:#000000; stroke-linecap:round; stroke-linejoin:round; stroke-width:2; stroke-opacity:0.1; fill:none" points="966.846,1486.45 966.846,47.2441 "/>
<polyline clip-path="url(#clip662)" style="stroke:#000000; stroke-linecap:round; stroke-linejoin:round; stroke-width:2; stroke-opacity:0.1; fill:none" points="1469.58,1486.45 1469.58,47.2441 "/>
<polyline clip-path="url(#clip662)" style="stroke:#000000; stroke-linecap:round; stroke-linejoin:round; stroke-width:2; stroke-opacity:0.1; fill:none" points="1972.31,1486.45 1972.31,47.2441 "/>
<polyline clip-path="url(#clip662)" style="stroke:#000000; stroke-linecap:round; stroke-linejoin:round; stroke-width:2; stroke-opacity:0.1; fill:none" points="193.936,1309.51 2352.76,1309.51 "/>
<polyline clip-path="url(#clip662)" style="stroke:#000000; stroke-linecap:round; stroke-linejoin:round; stroke-width:2; stroke-opacity:0.1; fill:none" points="193.936,1108.11 2352.76,1108.11 "/>
<polyline clip-path="url(#clip662)" style="stroke:#000000; stroke-linecap:round; stroke-linejoin:round; stroke-width:2; stroke-opacity:0.1; fill:none" points="193.936,906.698 2352.76,906.698 "/>
<polyline clip-path="url(#clip662)" style="stroke:#000000; stroke-linecap:round; stroke-linejoin:round; stroke-width:2; stroke-opacity:0.1; fill:none" points="193.936,705.29 2352.76,705.29 "/>
<polyline clip-path="url(#clip662)" style="stroke:#000000; stroke-linecap:round; stroke-linejoin:round; stroke-width:2; stroke-opacity:0.1; fill:none" points="193.936,503.882 2352.76,503.882 "/>
<polyline clip-path="url(#clip662)" style="stroke:#000000; stroke-linecap:round; stroke-linejoin:round; stroke-width:2; stroke-opacity:0.1; fill:none" points="193.936,302.474 2352.76,302.474 "/>
<polyline clip-path="url(#clip662)" style="stroke:#000000; stroke-linecap:round; stroke-linejoin:round; stroke-width:2; stroke-opacity:0.1; fill:none" points="193.936,101.066 2352.76,101.066 "/>
<polyline clip-path="url(#clip660)" style="stroke:#000000; stroke-linecap:round; stroke-linejoin:round; stroke-width:4; stroke-opacity:1; fill:none" points="193.936,1486.45 2352.76,1486.45 "/>
<polyline clip-path="url(#clip660)" style="stroke:#000000; stroke-linecap:round; stroke-linejoin:round; stroke-width:4; stroke-opacity:1; fill:none" points="464.115,1486.45 464.115,1467.55 "/>
<polyline clip-path="url(#clip660)" style="stroke:#000000; stroke-linecap:round; stroke-linejoin:round; stroke-width:4; stroke-opacity:1; fill:none" points="966.846,1486.45 966.846,1467.55 "/>
<polyline clip-path="url(#clip660)" style="stroke:#000000; stroke-linecap:round; stroke-linejoin:round; stroke-width:4; stroke-opacity:1; fill:none" points="1469.58,1486.45 1469.58,1467.55 "/>
<polyline clip-path="url(#clip660)" style="stroke:#000000; stroke-linecap:round; stroke-linejoin:round; stroke-width:4; stroke-opacity:1; fill:none" points="1972.31,1486.45 1972.31,1467.55 "/>
<path clip-path="url(#clip660)" d="M433.872 1532.02 L463.548 1532.02 L463.548 1535.95 L433.872 1535.95 L433.872 1532.02 Z" fill="#000000" fill-rule="nonzero" fill-opacity="1" /><path clip-path="url(#clip660)" d="M474.45 1544.91 L482.089 1544.91 L482.089 1518.55 L473.779 1520.21 L473.779 1515.95 L482.043 1514.29 L486.719 1514.29 L486.719 1544.91 L494.358 1544.91 L494.358 1548.85 L474.45 1548.85 L474.45 1544.91 Z" fill="#000000" fill-rule="nonzero" fill-opacity="1" /><path clip-path="url(#clip660)" d="M966.846 1517.37 Q963.235 1517.37 961.407 1520.93 Q959.601 1524.47 959.601 1531.6 Q959.601 1538.71 961.407 1542.27 Q963.235 1545.82 966.846 1545.82 Q970.481 1545.82 972.286 1542.27 Q974.115 1538.71 974.115 1531.6 Q974.115 1524.47 972.286 1520.93 Q970.481 1517.37 966.846 1517.37 M966.846 1513.66 Q972.657 1513.66 975.712 1518.27 Q978.791 1522.85 978.791 1531.6 Q978.791 1540.33 975.712 1544.94 Q972.657 1549.52 966.846 1549.52 Q961.036 1549.52 957.958 1544.94 Q954.902 1540.33 954.902 1531.6 Q954.902 1522.85 957.958 1518.27 Q961.036 1513.66 966.846 1513.66 Z" fill="#000000" fill-rule="nonzero" fill-opacity="1" /><path clip-path="url(#clip660)" d="M1459.96 1544.91 L1467.6 1544.91 L1467.6 1518.55 L1459.29 1520.21 L1459.29 1515.95 L1467.55 1514.29 L1472.23 1514.29 L1472.23 1544.91 L1479.87 1544.91 L1479.87 1548.85 L1459.96 1548.85 L1459.96 1544.91 Z" fill="#000000" fill-rule="nonzero" fill-opacity="1" /><path clip-path="url(#clip660)" d="M1966.96 1544.91 L1983.28 1544.91 L1983.28 1548.85 L1961.34 1548.85 L1961.34 1544.91 Q1964 1542.16 1968.58 1537.53 Q1973.19 1532.88 1974.37 1531.53 Q1976.62 1529.01 1977.49 1527.27 Q1978.4 1525.51 1978.4 1523.82 Q1978.4 1521.07 1976.45 1519.33 Q1974.53 1517.6 1971.43 1517.6 Q1969.23 1517.6 1966.78 1518.36 Q1964.35 1519.13 1961.57 1520.68 L1961.57 1515.95 Q1964.39 1514.82 1966.85 1514.24 Q1969.3 1513.66 1971.34 1513.66 Q1976.71 1513.66 1979.9 1516.35 Q1983.1 1519.03 1983.1 1523.52 Q1983.1 1525.65 1982.29 1527.57 Q1981.5 1529.47 1979.39 1532.07 Q1978.81 1532.74 1975.71 1535.95 Q1972.61 1539.15 1966.96 1544.91 Z" fill="#000000" fill-rule="nonzero" fill-opacity="1" /><polyline clip-path="url(#clip660)" style="stroke:#000000; stroke-linecap:round; stroke-linejoin:round; stroke-width:4; stroke-opacity:1; fill:none" points="193.936,1486.45 193.936,47.2441 "/>
<polyline clip-path="url(#clip660)" style="stroke:#000000; stroke-linecap:round; stroke-linejoin:round; stroke-width:4; stroke-opacity:1; fill:none" points="193.936,1309.51 212.834,1309.51 "/>
<polyline clip-path="url(#clip660)" style="stroke:#000000; stroke-linecap:round; stroke-linejoin:round; stroke-width:4; stroke-opacity:1; fill:none" points="193.936,1108.11 212.834,1108.11 "/>
<polyline clip-path="url(#clip660)" style="stroke:#000000; stroke-linecap:round; stroke-linejoin:round; stroke-width:4; stroke-opacity:1; fill:none" points="193.936,906.698 212.834,906.698 "/>
<polyline clip-path="url(#clip660)" style="stroke:#000000; stroke-linecap:round; stroke-linejoin:round; stroke-width:4; stroke-opacity:1; fill:none" points="193.936,705.29 212.834,705.29 "/>
<polyline clip-path="url(#clip660)" style="stroke:#000000; stroke-linecap:round; stroke-linejoin:round; stroke-width:4; stroke-opacity:1; fill:none" points="193.936,503.882 212.834,503.882 "/>
<polyline clip-path="url(#clip660)" style="stroke:#000000; stroke-linecap:round; stroke-linejoin:round; stroke-width:4; stroke-opacity:1; fill:none" points="193.936,302.474 212.834,302.474 "/>
<polyline clip-path="url(#clip660)" style="stroke:#000000; stroke-linecap:round; stroke-linejoin:round; stroke-width:4; stroke-opacity:1; fill:none" points="193.936,101.066 212.834,101.066 "/>
<path clip-path="url(#clip660)" d="M51.9875 1309.97 L81.6633 1309.97 L81.6633 1313.9 L51.9875 1313.9 L51.9875 1309.97 Z" fill="#000000" fill-rule="nonzero" fill-opacity="1" /><path clip-path="url(#clip660)" d="M92.566 1322.86 L100.205 1322.86 L100.205 1296.49 L91.8947 1298.16 L91.8947 1293.9 L100.159 1292.23 L104.834 1292.23 L104.834 1322.86 L112.473 1322.86 L112.473 1326.79 L92.566 1326.79 L92.566 1322.86 Z" fill="#000000" fill-rule="nonzero" fill-opacity="1" /><path clip-path="url(#clip660)" d="M121.918 1320.92 L126.802 1320.92 L126.802 1326.79 L121.918 1326.79 L121.918 1320.92 Z" fill="#000000" fill-rule="nonzero" fill-opacity="1" /><path clip-path="url(#clip660)" d="M137.033 1292.23 L155.39 1292.23 L155.39 1296.17 L141.316 1296.17 L141.316 1304.64 Q142.334 1304.29 143.353 1304.13 Q144.371 1303.95 145.39 1303.95 Q151.177 1303.95 154.556 1307.12 Q157.936 1310.29 157.936 1315.71 Q157.936 1321.29 154.464 1324.39 Q150.992 1327.47 144.672 1327.47 Q142.496 1327.47 140.228 1327.1 Q137.982 1326.73 135.575 1325.98 L135.575 1321.29 Q137.658 1322.42 139.881 1322.98 Q142.103 1323.53 144.58 1323.53 Q148.584 1323.53 150.922 1321.42 Q153.26 1319.32 153.26 1315.71 Q153.26 1312.1 150.922 1309.99 Q148.584 1307.88 144.58 1307.88 Q142.705 1307.88 140.83 1308.3 Q138.978 1308.72 137.033 1309.6 L137.033 1292.23 Z" fill="#000000" fill-rule="nonzero" fill-opacity="1" /><path clip-path="url(#clip660)" d="M50.9921 1108.56 L80.6679 1108.56 L80.6679 1112.49 L50.9921 1112.49 L50.9921 1108.56 Z" fill="#000000" fill-rule="nonzero" fill-opacity="1" /><path clip-path="url(#clip660)" d="M91.5706 1121.45 L99.2095 1121.45 L99.2095 1095.09 L90.8993 1096.75 L90.8993 1092.49 L99.1632 1090.83 L103.839 1090.83 L103.839 1121.45 L111.478 1121.45 L111.478 1125.39 L91.5706 1125.39 L91.5706 1121.45 Z" fill="#000000" fill-rule="nonzero" fill-opacity="1" /><path clip-path="url(#clip660)" d="M120.922 1119.51 L125.807 1119.51 L125.807 1125.39 L120.922 1125.39 L120.922 1119.51 Z" fill="#000000" fill-rule="nonzero" fill-opacity="1" /><path clip-path="url(#clip660)" d="M145.992 1093.91 Q142.381 1093.91 140.552 1097.47 Q138.746 1101.01 138.746 1108.14 Q138.746 1115.25 140.552 1118.81 Q142.381 1122.35 145.992 1122.35 Q149.626 1122.35 151.431 1118.81 Q153.26 1115.25 153.26 1108.14 Q153.26 1101.01 151.431 1097.47 Q149.626 1093.91 145.992 1093.91 M145.992 1090.2 Q151.802 1090.2 154.857 1094.81 Q157.936 1099.39 157.936 1108.14 Q157.936 1116.87 154.857 1121.47 Q151.802 1126.06 145.992 1126.06 Q140.181 1126.06 137.103 1121.47 Q134.047 1116.87 134.047 1108.14 Q134.047 1099.39 137.103 1094.81 Q140.181 1090.2 145.992 1090.2 Z" fill="#000000" fill-rule="nonzero" fill-opacity="1" /><path clip-path="url(#clip660)" d="M51.9875 907.15 L81.6633 907.15 L81.6633 911.085 L51.9875 911.085 L51.9875 907.15 Z" fill="#000000" fill-rule="nonzero" fill-opacity="1" /><path clip-path="url(#clip660)" d="M101.756 892.497 Q98.1447 892.497 96.316 896.062 Q94.5104 899.603 94.5104 906.733 Q94.5104 913.839 96.316 917.404 Q98.1447 920.946 101.756 920.946 Q105.39 920.946 107.196 917.404 Q109.024 913.839 109.024 906.733 Q109.024 899.603 107.196 896.062 Q105.39 892.497 101.756 892.497 M101.756 888.793 Q107.566 888.793 110.621 893.4 Q113.7 897.983 113.7 906.733 Q113.7 915.46 110.621 920.066 Q107.566 924.65 101.756 924.65 Q95.9456 924.65 92.8669 920.066 Q89.8114 915.46 89.8114 906.733 Q89.8114 897.983 92.8669 893.4 Q95.9456 888.793 101.756 888.793 Z" fill="#000000" fill-rule="nonzero" fill-opacity="1" /><path clip-path="url(#clip660)" d="M121.918 918.099 L126.802 918.099 L126.802 923.978 L121.918 923.978 L121.918 918.099 Z" fill="#000000" fill-rule="nonzero" fill-opacity="1" /><path clip-path="url(#clip660)" d="M137.033 889.418 L155.39 889.418 L155.39 893.353 L141.316 893.353 L141.316 901.826 Q142.334 901.478 143.353 901.316 Q144.371 901.131 145.39 901.131 Q151.177 901.131 154.556 904.302 Q157.936 907.474 157.936 912.89 Q157.936 918.469 154.464 921.571 Q150.992 924.65 144.672 924.65 Q142.496 924.65 140.228 924.279 Q137.982 923.909 135.575 923.168 L135.575 918.469 Q137.658 919.603 139.881 920.159 Q142.103 920.714 144.58 920.714 Q148.584 920.714 150.922 918.608 Q153.26 916.501 153.26 912.89 Q153.26 909.279 150.922 907.173 Q148.584 905.066 144.58 905.066 Q142.705 905.066 140.83 905.483 Q138.978 905.9 137.033 906.779 L137.033 889.418 Z" fill="#000000" fill-rule="nonzero" fill-opacity="1" /><path clip-path="url(#clip660)" d="M100.76 691.089 Q97.1493 691.089 95.3206 694.654 Q93.515 698.195 93.515 705.325 Q93.515 712.431 95.3206 715.996 Q97.1493 719.538 100.76 719.538 Q104.395 719.538 106.2 715.996 Q108.029 712.431 108.029 705.325 Q108.029 698.195 106.2 694.654 Q104.395 691.089 100.76 691.089 M100.76 687.385 Q106.571 687.385 109.626 691.992 Q112.705 696.575 112.705 705.325 Q112.705 714.052 109.626 718.658 Q106.571 723.241 100.76 723.241 Q94.9502 723.241 91.8715 718.658 Q88.816 714.052 88.816 705.325 Q88.816 696.575 91.8715 691.992 Q94.9502 687.385 100.76 687.385 Z" fill="#000000" fill-rule="nonzero" fill-opacity="1" /><path clip-path="url(#clip660)" d="M120.922 716.691 L125.807 716.691 L125.807 722.57 L120.922 722.57 L120.922 716.691 Z" fill="#000000" fill-rule="nonzero" fill-opacity="1" /><path clip-path="url(#clip660)" d="M145.992 691.089 Q142.381 691.089 140.552 694.654 Q138.746 698.195 138.746 705.325 Q138.746 712.431 140.552 715.996 Q142.381 719.538 145.992 719.538 Q149.626 719.538 151.431 715.996 Q153.26 712.431 153.26 705.325 Q153.26 698.195 151.431 694.654 Q149.626 691.089 145.992 691.089 M145.992 687.385 Q151.802 687.385 154.857 691.992 Q157.936 696.575 157.936 705.325 Q157.936 714.052 154.857 718.658 Q151.802 723.241 145.992 723.241 Q140.181 723.241 137.103 718.658 Q134.047 714.052 134.047 705.325 Q134.047 696.575 137.103 691.992 Q140.181 687.385 145.992 687.385 Z" fill="#000000" fill-rule="nonzero" fill-opacity="1" /><path clip-path="url(#clip660)" d="M101.756 489.681 Q98.1447 489.681 96.316 493.245 Q94.5104 496.787 94.5104 503.917 Q94.5104 511.023 96.316 514.588 Q98.1447 518.13 101.756 518.13 Q105.39 518.13 107.196 514.588 Q109.024 511.023 109.024 503.917 Q109.024 496.787 107.196 493.245 Q105.39 489.681 101.756 489.681 M101.756 485.977 Q107.566 485.977 110.621 490.583 Q113.7 495.167 113.7 503.917 Q113.7 512.643 110.621 517.25 Q107.566 521.833 101.756 521.833 Q95.9456 521.833 92.8669 517.25 Q89.8114 512.643 89.8114 503.917 Q89.8114 495.167 92.8669 490.583 Q95.9456 485.977 101.756 485.977 Z" fill="#000000" fill-rule="nonzero" fill-opacity="1" /><path clip-path="url(#clip660)" d="M121.918 515.282 L126.802 515.282 L126.802 521.162 L121.918 521.162 L121.918 515.282 Z" fill="#000000" fill-rule="nonzero" fill-opacity="1" /><path clip-path="url(#clip660)" d="M137.033 486.602 L155.39 486.602 L155.39 490.537 L141.316 490.537 L141.316 499.009 Q142.334 498.662 143.353 498.5 Q144.371 498.315 145.39 498.315 Q151.177 498.315 154.556 501.486 Q157.936 504.657 157.936 510.074 Q157.936 515.653 154.464 518.755 Q150.992 521.833 144.672 521.833 Q142.496 521.833 140.228 521.463 Q137.982 521.092 135.575 520.352 L135.575 515.653 Q137.658 516.787 139.881 517.342 Q142.103 517.898 144.58 517.898 Q148.584 517.898 150.922 515.792 Q153.26 513.685 153.26 510.074 Q153.26 506.463 150.922 504.356 Q148.584 502.25 144.58 502.25 Q142.705 502.25 140.83 502.667 Q138.978 503.083 137.033 503.963 L137.033 486.602 Z" fill="#000000" fill-rule="nonzero" fill-opacity="1" /><path clip-path="url(#clip660)" d="M91.5706 315.819 L99.2095 315.819 L99.2095 289.453 L90.8993 291.12 L90.8993 286.86 L99.1632 285.194 L103.839 285.194 L103.839 315.819 L111.478 315.819 L111.478 319.754 L91.5706 319.754 L91.5706 315.819 Z" fill="#000000" fill-rule="nonzero" fill-opacity="1" /><path clip-path="url(#clip660)" d="M120.922 313.874 L125.807 313.874 L125.807 319.754 L120.922 319.754 L120.922 313.874 Z" fill="#000000" fill-rule="nonzero" fill-opacity="1" /><path clip-path="url(#clip660)" d="M145.992 288.272 Q142.381 288.272 140.552 291.837 Q138.746 295.379 138.746 302.508 Q138.746 309.615 140.552 313.18 Q142.381 316.721 145.992 316.721 Q149.626 316.721 151.431 313.18 Q153.26 309.615 153.26 302.508 Q153.26 295.379 151.431 291.837 Q149.626 288.272 145.992 288.272 M145.992 284.569 Q151.802 284.569 154.857 289.175 Q157.936 293.758 157.936 302.508 Q157.936 311.235 154.857 315.842 Q151.802 320.425 145.992 320.425 Q140.181 320.425 137.103 315.842 Q134.047 311.235 134.047 302.508 Q134.047 293.758 137.103 289.175 Q140.181 284.569 145.992 284.569 Z" fill="#000000" fill-rule="nonzero" fill-opacity="1" /><path clip-path="url(#clip660)" d="M92.566 114.41 L100.205 114.41 L100.205 88.0447 L91.8947 89.7114 L91.8947 85.4522 L100.159 83.7855 L104.834 83.7855 L104.834 114.41 L112.473 114.41 L112.473 118.346 L92.566 118.346 L92.566 114.41 Z" fill="#000000" fill-rule="nonzero" fill-opacity="1" /><path clip-path="url(#clip660)" d="M121.918 112.466 L126.802 112.466 L126.802 118.346 L121.918 118.346 L121.918 112.466 Z" fill="#000000" fill-rule="nonzero" fill-opacity="1" /><path clip-path="url(#clip660)" d="M137.033 83.7855 L155.39 83.7855 L155.39 87.7207 L141.316 87.7207 L141.316 96.1929 Q142.334 95.8456 143.353 95.6836 Q144.371 95.4984 145.39 95.4984 Q151.177 95.4984 154.556 98.6697 Q157.936 101.841 157.936 107.258 Q157.936 112.836 154.464 115.938 Q150.992 119.017 144.672 119.017 Q142.496 119.017 140.228 118.646 Q137.982 118.276 135.575 117.535 L135.575 112.836 Q137.658 113.971 139.881 114.526 Q142.103 115.082 144.58 115.082 Q148.584 115.082 150.922 112.975 Q153.26 110.869 153.26 107.258 Q153.26 103.647 150.922 101.54 Q148.584 99.4336 144.58 99.4336 Q142.705 99.4336 140.83 99.8502 Q138.978 100.267 137.033 101.147 L137.033 83.7855 Z" fill="#000000" fill-rule="nonzero" fill-opacity="1" /><circle clip-path="url(#clip662)" cx="471.569" cy="456.662" r="14.4" fill="#009af9" fill-rule="evenodd" fill-opacity="0.5" stroke="#000000" stroke-opacity="0.5" stroke-width="3.2"/>
<circle clip-path="url(#clip662)" cx="742.042" cy="87.9763" r="14.4" fill="#009af9" fill-rule="evenodd" fill-opacity="0.5" stroke="#000000" stroke-opacity="0.5" stroke-width="3.2"/>
<circle clip-path="url(#clip662)" cx="693.912" cy="1394.13" r="14.4" fill="#009af9" fill-rule="evenodd" fill-opacity="0.5" stroke="#000000" stroke-opacity="0.5" stroke-width="3.2"/>
<circle clip-path="url(#clip662)" cx="574.309" cy="389.508" r="14.4" fill="#009af9" fill-rule="evenodd" fill-opacity="0.5" stroke="#000000" stroke-opacity="0.5" stroke-width="3.2"/>
<circle clip-path="url(#clip662)" cx="362.071" cy="216.86" r="14.4" fill="#009af9" fill-rule="evenodd" fill-opacity="0.5" stroke="#000000" stroke-opacity="0.5" stroke-width="3.2"/>
<circle clip-path="url(#clip662)" cx="720.334" cy="618.627" r="14.4" fill="#009af9" fill-rule="evenodd" fill-opacity="0.5" stroke="#000000" stroke-opacity="0.5" stroke-width="3.2"/>
<circle clip-path="url(#clip662)" cx="2150.34" cy="1179.88" r="14.4" fill="#009af9" fill-rule="evenodd" fill-opacity="0.5" stroke="#000000" stroke-opacity="0.5" stroke-width="3.2"/>
<circle clip-path="url(#clip662)" cx="1257.06" cy="120.91" r="14.4" fill="#009af9" fill-rule="evenodd" fill-opacity="0.5" stroke="#000000" stroke-opacity="0.5" stroke-width="3.2"/>
<circle clip-path="url(#clip662)" cx="1073.77" cy="1083.5" r="14.4" fill="#009af9" fill-rule="evenodd" fill-opacity="0.5" stroke="#000000" stroke-opacity="0.5" stroke-width="3.2"/>
<circle clip-path="url(#clip662)" cx="1343.8" cy="327.017" r="14.4" fill="#009af9" fill-rule="evenodd" fill-opacity="0.5" stroke="#000000" stroke-opacity="0.5" stroke-width="3.2"/>
<circle clip-path="url(#clip662)" cx="913.623" cy="353.943" r="14.4" fill="#009af9" fill-rule="evenodd" fill-opacity="0.5" stroke="#000000" stroke-opacity="0.5" stroke-width="3.2"/>
<circle clip-path="url(#clip662)" cx="1163.22" cy="1445.72" r="14.4" fill="#009af9" fill-rule="evenodd" fill-opacity="0.5" stroke="#000000" stroke-opacity="0.5" stroke-width="3.2"/>
<circle clip-path="url(#clip662)" cx="255.035" cy="665.006" r="14.4" fill="#009af9" fill-rule="evenodd" fill-opacity="0.5" stroke="#000000" stroke-opacity="0.5" stroke-width="3.2"/>
<circle clip-path="url(#clip662)" cx="1503.78" cy="511.528" r="14.4" fill="#009af9" fill-rule="evenodd" fill-opacity="0.5" stroke="#000000" stroke-opacity="0.5" stroke-width="3.2"/>
<circle clip-path="url(#clip662)" cx="507.53" cy="1318.4" r="14.4" fill="#009af9" fill-rule="evenodd" fill-opacity="0.5" stroke="#000000" stroke-opacity="0.5" stroke-width="3.2"/>
<circle clip-path="url(#clip662)" cx="668.972" cy="911.696" r="14.4" fill="#009af9" fill-rule="evenodd" fill-opacity="0.5" stroke="#000000" stroke-opacity="0.5" stroke-width="3.2"/>
<circle clip-path="url(#clip662)" cx="1540.04" cy="638.657" r="14.4" fill="#009af9" fill-rule="evenodd" fill-opacity="0.5" stroke="#000000" stroke-opacity="0.5" stroke-width="3.2"/>
<circle clip-path="url(#clip662)" cx="1633.43" cy="877.74" r="14.4" fill="#009af9" fill-rule="evenodd" fill-opacity="0.5" stroke="#000000" stroke-opacity="0.5" stroke-width="3.2"/>
<circle clip-path="url(#clip662)" cx="716.131" cy="571.738" r="14.4" fill="#009af9" fill-rule="evenodd" fill-opacity="0.5" stroke="#000000" stroke-opacity="0.5" stroke-width="3.2"/>
<circle clip-path="url(#clip662)" cx="453.903" cy="814.291" r="14.4" fill="#009af9" fill-rule="evenodd" fill-opacity="0.5" stroke="#000000" stroke-opacity="0.5" stroke-width="3.2"/>
<circle clip-path="url(#clip662)" cx="408.522" cy="1206.88" r="14.4" fill="#009af9" fill-rule="evenodd" fill-opacity="0.5" stroke="#000000" stroke-opacity="0.5" stroke-width="3.2"/>
<circle clip-path="url(#clip662)" cx="952.46" cy="1378.93" r="14.4" fill="#009af9" fill-rule="evenodd" fill-opacity="0.5" stroke="#000000" stroke-opacity="0.5" stroke-width="3.2"/>
<circle clip-path="url(#clip662)" cx="987.263" cy="806.432" r="14.4" fill="#009af9" fill-rule="evenodd" fill-opacity="0.5" stroke="#000000" stroke-opacity="0.5" stroke-width="3.2"/>
<circle clip-path="url(#clip662)" cx="1033.37" cy="596.546" r="14.4" fill="#009af9" fill-rule="evenodd" fill-opacity="0.5" stroke="#000000" stroke-opacity="0.5" stroke-width="3.2"/>
<circle clip-path="url(#clip662)" cx="518.905" cy="1329.3" r="14.4" fill="#009af9" fill-rule="evenodd" fill-opacity="0.5" stroke="#000000" stroke-opacity="0.5" stroke-width="3.2"/>
<circle clip-path="url(#clip662)" cx="1087.8" cy="296.529" r="14.4" fill="#009af9" fill-rule="evenodd" fill-opacity="0.5" stroke="#000000" stroke-opacity="0.5" stroke-width="3.2"/>
<circle clip-path="url(#clip662)" cx="1664.64" cy="600.358" r="14.4" fill="#009af9" fill-rule="evenodd" fill-opacity="0.5" stroke="#000000" stroke-opacity="0.5" stroke-width="3.2"/>
<circle clip-path="url(#clip662)" cx="2291.66" cy="494.828" r="14.4" fill="#009af9" fill-rule="evenodd" fill-opacity="0.5" stroke="#000000" stroke-opacity="0.5" stroke-width="3.2"/>
<circle clip-path="url(#clip662)" cx="433.396" cy="418.249" r="14.4" fill="#009af9" fill-rule="evenodd" fill-opacity="0.5" stroke="#000000" stroke-opacity="0.5" stroke-width="3.2"/>
<circle clip-path="url(#clip662)" cx="912.391" cy="357.139" r="14.4" fill="#009af9" fill-rule="evenodd" fill-opacity="0.5" stroke="#000000" stroke-opacity="0.5" stroke-width="3.2"/>
<path clip-path="url(#clip662)" d="M255.035 665.006 L408.522 1206.88 L507.53 1318.4 L518.905 1329.3 L693.912 1394.13 L1163.22 1445.72 L2150.34 1179.88 L2291.66 494.828 L1257.06 120.91 L742.042 87.9763 L362.071 216.86 L255.035 665.006 L255.035 665.006  Z" fill="#e26f46" fill-rule="evenodd" fill-opacity="0.2"/>
<polyline clip-path="url(#clip662)" style="stroke:#000000; stroke-linecap:round; stroke-linejoin:round; stroke-width:4; stroke-opacity:0.2; fill:none" points="255.035,665.006 408.522,1206.88 507.53,1318.4 518.905,1329.3 693.912,1394.13 1163.22,1445.72 2150.34,1179.88 2291.66,494.828 1257.06,120.91 742.042,87.9763 362.071,216.86 255.035,665.006 "/>
</svg>
