<?xml version="1.0" encoding="utf-8"?>
<svg xmlns="http://www.w3.org/2000/svg" xmlns:xlink="http://www.w3.org/1999/xlink" width="600" height="400" viewBox="0 0 2400 1600">
<defs>
  <clipPath id="clip980">
    <rect x="0" y="0" width="2400" height="1600"/>
  </clipPath>
</defs>
<path clip-path="url(#clip980)" d="M0 1600 L2400 1600 L2400 0 L0 0  Z" fill="#ffffff" fill-rule="evenodd" fill-opacity="1"/>
<defs>
  <clipPath id="clip981">
    <rect x="480" y="0" width="1681" height="1600"/>
  </clipPath>
</defs>
<path clip-path="url(#clip980)" d="M193.936 1486.45 L2352.76 1486.45 L2352.76 47.2441 L193.936 47.2441  Z" fill="#ffffff" fill-rule="evenodd" fill-opacity="1"/>
<defs>
  <clipPath id="clip982">
    <rect x="193" y="47" width="2160" height="1440"/>
  </clipPath>
</defs>
<polyline clip-path="url(#clip982)" style="stroke:#000000; stroke-linecap:round; stroke-linejoin:round; stroke-width:2; stroke-opacity:0.1; fill:none" points="622.596,1486.45 622.596,47.2441 "/>
<polyline clip-path="url(#clip982)" style="stroke:#000000; stroke-linecap:round; stroke-linejoin:round; stroke-width:2; stroke-opacity:0.1; fill:none" points="1071.46,1486.45 1071.46,47.2441 "/>
<polyline clip-path="url(#clip982)" style="stroke:#000000; stroke-linecap:round; stroke-linejoin:round; stroke-width:2; stroke-opacity:0.1; fill:none" points="1520.33,1486.45 1520.33,47.2441 "/>
<polyline clip-path="url(#clip982)" style="stroke:#000000; stroke-linecap:round; stroke-linejoin:round; stroke-width:2; stroke-opacity:0.1; fill:none" points="1969.2,1486.45 1969.2,47.2441 "/>
<polyline clip-path="url(#clip982)" style="stroke:#000000; stroke-linecap:round; stroke-linejoin:round; stroke-width:2; stroke-opacity:0.1; fill:none" points="193.936,1383.2 2352.76,1383.2 "/>
<polyline clip-path="url(#clip982)" style="stroke:#000000; stroke-linecap:round; stroke-linejoin:round; stroke-width:2; stroke-opacity:0.1; fill:none" points="193.936,1173.36 2352.76,1173.36 "/>
<polyline clip-path="url(#clip982)" style="stroke:#000000; stroke-linecap:round; stroke-linejoin:round; stroke-width:2; stroke-opacity:0.1; fill:none" points="193.936,963.522 2352.76,963.522 "/>
<polyline clip-path="url(#clip982)" style="stroke:#000000; stroke-linecap:round; stroke-linejoin:round; stroke-width:2; stroke-opacity:0.1; fill:none" points="193.936,753.68 2352.76,753.68 "/>
<polyline clip-path="url(#clip982)" style="stroke:#000000; stroke-linecap:round; stroke-linejoin:round; stroke-width:2; stroke-opacity:0.1; fill:none" points="193.936,543.839 2352.76,543.839 "/>
<polyline clip-path="url(#clip982)" style="stroke:#000000; stroke-linecap:round; stroke-linejoin:round; stroke-width:2; stroke-opacity:0.1; fill:none" points="193.936,333.998 2352.76,333.998 "/>
<polyline clip-path="url(#clip982)" style="stroke:#000000; stroke-linecap:round; stroke-linejoin:round; stroke-width:2; stroke-opacity:0.1; fill:none" points="193.936,124.157 2352.76,124.157 "/>
<polyline clip-path="url(#clip980)" style="stroke:#000000; stroke-linecap:round; stroke-linejoin:round; stroke-width:4; stroke-opacity:1; fill:none" points="193.936,1486.45 2352.76,1486.45 "/>
<polyline clip-path="url(#clip980)" style="stroke:#000000; stroke-linecap:round; stroke-linejoin:round; stroke-width:4; stroke-opacity:1; fill:none" points="622.596,1486.45 622.596,1467.55 "/>
<polyline clip-path="url(#clip980)" style="stroke:#000000; stroke-linecap:round; stroke-linejoin:round; stroke-width:4; stroke-opacity:1; fill:none" points="1071.46,1486.45 1071.46,1467.55 "/>
<polyline clip-path="url(#clip980)" style="stroke:#000000; stroke-linecap:round; stroke-linejoin:round; stroke-width:4; stroke-opacity:1; fill:none" points="1520.33,1486.45 1520.33,1467.55 "/>
<polyline clip-path="url(#clip980)" style="stroke:#000000; stroke-linecap:round; stroke-linejoin:round; stroke-width:4; stroke-opacity:1; fill:none" points="1969.2,1486.45 1969.2,1467.55 "/>
<path clip-path="url(#clip980)" d="M592.539 1532.02 L622.214 1532.02 L622.214 1535.95 L592.539 1535.95 L592.539 1532.02 Z" fill="#000000" fill-rule="nonzero" fill-opacity="1" /><path clip-path="url(#clip980)" d="M636.335 1544.91 L652.654 1544.91 L652.654 1548.85 L630.71 1548.85 L630.71 1544.91 Q633.372 1542.16 637.955 1537.53 Q642.561 1532.88 643.742 1531.53 Q645.987 1529.01 646.867 1527.27 Q647.77 1525.51 647.77 1523.82 Q647.77 1521.07 645.825 1519.33 Q643.904 1517.6 640.802 1517.6 Q638.603 1517.6 636.149 1518.36 Q633.719 1519.13 630.941 1520.68 L630.941 1515.95 Q633.765 1514.82 636.219 1514.24 Q638.673 1513.66 640.71 1513.66 Q646.08 1513.66 649.274 1516.35 Q652.469 1519.03 652.469 1523.52 Q652.469 1525.65 651.659 1527.57 Q650.872 1529.47 648.765 1532.07 Q648.186 1532.74 645.085 1535.95 Q641.983 1539.15 636.335 1544.91 Z" fill="#000000" fill-rule="nonzero" fill-opacity="1" /><path clip-path="url(#clip980)" d="M1041.22 1532.02 L1070.9 1532.02 L1070.9 1535.95 L1041.22 1535.95 L1041.22 1532.02 Z" fill="#000000" fill-rule="nonzero" fill-opacity="1" /><path clip-path="url(#clip980)" d="M1081.8 1544.91 L1089.44 1544.91 L1089.44 1518.55 L1081.13 1520.21 L1081.13 1515.95 L1089.39 1514.29 L1094.07 1514.29 L1094.07 1544.91 L1101.71 1544.91 L1101.71 1548.85 L1081.8 1548.85 L1081.8 1544.91 Z" fill="#000000" fill-rule="nonzero" fill-opacity="1" /><path clip-path="url(#clip980)" d="M1520.33 1517.37 Q1516.72 1517.37 1514.89 1520.93 Q1513.09 1524.47 1513.09 1531.6 Q1513.09 1538.71 1514.89 1542.27 Q1516.72 1545.82 1520.33 1545.82 Q1523.97 1545.82 1525.77 1542.27 Q1527.6 1538.71 1527.6 1531.6 Q1527.6 1524.47 1525.77 1520.93 Q1523.97 1517.37 1520.33 1517.37 M1520.33 1513.66 Q1526.14 1513.66 1529.2 1518.27 Q1532.28 1522.85 1532.28 1531.6 Q1532.28 1540.33 1529.2 1544.94 Q1526.14 1549.52 1520.33 1549.52 Q1514.52 1549.52 1511.44 1544.94 Q1508.39 1540.33 1508.39 1531.6 Q1508.39 1522.85 1511.44 1518.27 Q1514.52 1513.66 1520.33 1513.66 Z" fill="#000000" fill-rule="nonzero" fill-opacity="1" /><path clip-path="url(#clip980)" d="M1959.58 1544.91 L1967.22 1544.91 L1967.22 1518.55 L1958.91 1520.21 L1958.91 1515.95 L1967.17 1514.29 L1971.85 1514.29 L1971.85 1544.91 L1979.49 1544.91 L1979.49 1548.85 L1959.58 1548.85 L1959.58 1544.91 Z" fill="#000000" fill-rule="nonzero" fill-opacity="1" /><polyline clip-path="url(#clip980)" style="stroke:#000000; stroke-linecap:round; stroke-linejoin:round; stroke-width:4; stroke-opacity:1; fill:none" points="193.936,1486.45 193.936,47.2441 "/>
<polyline clip-path="url(#clip980)" style="stroke:#000000; stroke-linecap:round; stroke-linejoin:round; stroke-width:4; stroke-opacity:1; fill:none" points="193.936,1383.2 212.834,1383.2 "/>
<polyline clip-path="url(#clip980)" style="stroke:#000000; stroke-linecap:round; stroke-linejoin:round; stroke-width:4; stroke-opacity:1; fill:none" points="193.936,1173.36 212.834,1173.36 "/>
<polyline clip-path="url(#clip980)" style="stroke:#000000; stroke-linecap:round; stroke-linejoin:round; stroke-width:4; stroke-opacity:1; fill:none" points="193.936,963.522 212.834,963.522 "/>
<polyline clip-path="url(#clip980)" style="stroke:#000000; stroke-linecap:round; stroke-linejoin:round; stroke-width:4; stroke-opacity:1; fill:none" points="193.936,753.68 212.834,753.68 "/>
<polyline clip-path="url(#clip980)" style="stroke:#000000; stroke-linecap:round; stroke-linejoin:round; stroke-width:4; stroke-opacity:1; fill:none" points="193.936,543.839 212.834,543.839 "/>
<polyline clip-path="url(#clip980)" style="stroke:#000000; stroke-linecap:round; stroke-linejoin:round; stroke-width:4; stroke-opacity:1; fill:none" points="193.936,333.998 212.834,333.998 "/>
<polyline clip-path="url(#clip980)" style="stroke:#000000; stroke-linecap:round; stroke-linejoin:round; stroke-width:4; stroke-opacity:1; fill:none" points="193.936,124.157 212.834,124.157 "/>
<path clip-path="url(#clip980)" d="M51.9875 1383.66 L81.6633 1383.66 L81.6633 1387.59 L51.9875 1387.59 L51.9875 1383.66 Z" fill="#000000" fill-rule="nonzero" fill-opacity="1" /><path clip-path="url(#clip980)" d="M92.566 1396.55 L100.205 1396.55 L100.205 1370.18 L91.8947 1371.85 L91.8947 1367.59 L100.159 1365.92 L104.834 1365.92 L104.834 1396.55 L112.473 1396.55 L112.473 1400.48 L92.566 1400.48 L92.566 1396.55 Z" fill="#000000" fill-rule="nonzero" fill-opacity="1" /><path clip-path="url(#clip980)" d="M121.918 1394.6 L126.802 1394.6 L126.802 1400.48 L121.918 1400.48 L121.918 1394.6 Z" fill="#000000" fill-rule="nonzero" fill-opacity="1" /><path clip-path="url(#clip980)" d="M137.033 1365.92 L155.39 1365.92 L155.39 1369.86 L141.316 1369.86 L141.316 1378.33 Q142.334 1377.98 143.353 1377.82 Q144.371 1377.64 145.39 1377.64 Q151.177 1377.64 154.556 1380.81 Q157.936 1383.98 157.936 1389.4 Q157.936 1394.97 154.464 1398.08 Q150.992 1401.16 144.672 1401.16 Q142.496 1401.16 140.228 1400.78 Q137.982 1400.41 135.575 1399.67 L135.575 1394.97 Q137.658 1396.11 139.881 1396.66 Q142.103 1397.22 144.58 1397.22 Q148.584 1397.22 150.922 1395.11 Q153.26 1393.01 153.26 1389.4 Q153.26 1385.79 150.922 1383.68 Q148.584 1381.57 144.58 1381.57 Q142.705 1381.57 140.83 1381.99 Q138.978 1382.41 137.033 1383.29 L137.033 1365.92 Z" fill="#000000" fill-rule="nonzero" fill-opacity="1" /><path clip-path="url(#clip980)" d="M50.9921 1173.81 L80.6679 1173.81 L80.6679 1177.75 L50.9921 1177.75 L50.9921 1173.81 Z" fill="#000000" fill-rule="nonzero" fill-opacity="1" /><path clip-path="url(#clip980)" d="M91.5706 1186.71 L99.2095 1186.71 L99.2095 1160.34 L90.8993 1162.01 L90.8993 1157.75 L99.1632 1156.08 L103.839 1156.08 L103.839 1186.71 L111.478 1186.71 L111.478 1190.64 L91.5706 1190.64 L91.5706 1186.71 Z" fill="#000000" fill-rule="nonzero" fill-opacity="1" /><path clip-path="url(#clip980)" d="M120.922 1184.76 L125.807 1184.76 L125.807 1190.64 L120.922 1190.64 L120.922 1184.76 Z" fill="#000000" fill-rule="nonzero" fill-opacity="1" /><path clip-path="url(#clip980)" d="M145.992 1159.16 Q142.381 1159.16 140.552 1162.73 Q138.746 1166.27 138.746 1173.4 Q138.746 1180.5 140.552 1184.07 Q142.381 1187.61 145.992 1187.61 Q149.626 1187.61 151.431 1184.07 Q153.26 1180.5 153.26 1173.4 Q153.26 1166.27 151.431 1162.73 Q149.626 1159.16 145.992 1159.16 M145.992 1155.46 Q151.802 1155.46 154.857 1160.06 Q157.936 1164.65 157.936 1173.4 Q157.936 1182.12 154.857 1186.73 Q151.802 1191.31 145.992 1191.31 Q140.181 1191.31 137.103 1186.73 Q134.047 1182.12 134.047 1173.4 Q134.047 1164.65 137.103 1160.06 Q140.181 1155.46 145.992 1155.46 Z" fill="#000000" fill-rule="nonzero" fill-opacity="1" /><path clip-path="url(#clip980)" d="M51.9875 963.973 L81.6633 963.973 L81.6633 967.908 L51.9875 967.908 L51.9875 963.973 Z" fill="#000000" fill-rule="nonzero" fill-opacity="1" /><path clip-path="url(#clip980)" d="M101.756 949.32 Q98.1447 949.32 96.316 952.885 Q94.5104 956.427 94.5104 963.556 Q94.5104 970.663 96.316 974.228 Q98.1447 977.769 101.756 977.769 Q105.39 977.769 107.196 974.228 Q109.024 970.663 109.024 963.556 Q109.024 956.427 107.196 952.885 Q105.39 949.32 101.756 949.32 M101.756 945.617 Q107.566 945.617 110.621 950.223 Q113.7 954.806 113.7 963.556 Q113.7 972.283 110.621 976.89 Q107.566 981.473 101.756 981.473 Q95.9456 981.473 92.8669 976.89 Q89.8114 972.283 89.8114 963.556 Q89.8114 954.806 92.8669 950.223 Q95.9456 945.617 101.756 945.617 Z" fill="#000000" fill-rule="nonzero" fill-opacity="1" /><path clip-path="url(#clip980)" d="M121.918 974.922 L126.802 974.922 L126.802 980.802 L121.918 980.802 L121.918 974.922 Z" fill="#000000" fill-rule="nonzero" fill-opacity="1" /><path clip-path="url(#clip980)" d="M137.033 946.242 L155.39 946.242 L155.39 950.177 L141.316 950.177 L141.316 958.649 Q142.334 958.302 143.353 958.14 Q144.371 957.954 145.39 957.954 Q151.177 957.954 154.556 961.126 Q157.936 964.297 157.936 969.714 Q157.936 975.292 154.464 978.394 Q150.992 981.473 144.672 981.473 Q142.496 981.473 140.228 981.102 Q137.982 980.732 135.575 979.991 L135.575 975.292 Q137.658 976.427 139.881 976.982 Q142.103 977.538 144.58 977.538 Q148.584 977.538 150.922 975.431 Q153.26 973.325 153.26 969.714 Q153.26 966.103 150.922 963.996 Q148.584 961.89 144.58 961.89 Q142.705 961.89 140.83 962.306 Q138.978 962.723 137.033 963.603 L137.033 946.242 Z" fill="#000000" fill-rule="nonzero" fill-opacity="1" /><path clip-path="url(#clip980)" d="M100.76 739.479 Q97.1493 739.479 95.3206 743.044 Q93.515 746.585 93.515 753.715 Q93.515 760.821 95.3206 764.386 Q97.1493 767.928 100.76 767.928 Q104.395 767.928 106.2 764.386 Q108.029 760.821 108.029 753.715 Q108.029 746.585 106.2 743.044 Q104.395 739.479 100.76 739.479 M100.76 735.775 Q106.571 735.775 109.626 740.382 Q112.705 744.965 112.705 753.715 Q112.705 762.442 109.626 767.048 Q106.571 771.632 100.76 771.632 Q94.9502 771.632 91.8715 767.048 Q88.816 762.442 88.816 753.715 Q88.816 744.965 91.8715 740.382 Q94.9502 735.775 100.76 735.775 Z" fill="#000000" fill-rule="nonzero" fill-opacity="1" /><path clip-path="url(#clip980)" d="M120.922 765.081 L125.807 765.081 L125.807 770.96 L120.922 770.96 L120.922 765.081 Z" fill="#000000" fill-rule="nonzero" fill-opacity="1" /><path clip-path="url(#clip980)" d="M145.992 739.479 Q142.381 739.479 140.552 743.044 Q138.746 746.585 138.746 753.715 Q138.746 760.821 140.552 764.386 Q142.381 767.928 145.992 767.928 Q149.626 767.928 151.431 764.386 Q153.26 760.821 153.26 753.715 Q153.26 746.585 151.431 743.044 Q149.626 739.479 145.992 739.479 M145.992 735.775 Q151.802 735.775 154.857 740.382 Q157.936 744.965 157.936 753.715 Q157.936 762.442 154.857 767.048 Q151.802 771.632 145.992 771.632 Q140.181 771.632 137.103 767.048 Q134.047 762.442 134.047 753.715 Q134.047 744.965 137.103 740.382 Q140.181 735.775 145.992 735.775 Z" fill="#000000" fill-rule="nonzero" fill-opacity="1" /><path clip-path="url(#clip980)" d="M101.756 529.638 Q98.1447 529.638 96.316 533.203 Q94.5104 536.744 94.5104 543.874 Q94.5104 550.98 96.316 554.545 Q98.1447 558.087 101.756 558.087 Q105.39 558.087 107.196 554.545 Q109.024 550.98 109.024 543.874 Q109.024 536.744 107.196 533.203 Q105.39 529.638 101.756 529.638 M101.756 525.934 Q107.566 525.934 110.621 530.541 Q113.7 535.124 113.7 543.874 Q113.7 552.601 110.621 557.207 Q107.566 561.79 101.756 561.79 Q95.9456 561.79 92.8669 557.207 Q89.8114 552.601 89.8114 543.874 Q89.8114 535.124 92.8669 530.541 Q95.9456 525.934 101.756 525.934 Z" fill="#000000" fill-rule="nonzero" fill-opacity="1" /><path clip-path="url(#clip980)" d="M121.918 555.239 L126.802 555.239 L126.802 561.119 L121.918 561.119 L121.918 555.239 Z" fill="#000000" fill-rule="nonzero" fill-opacity="1" /><path clip-path="url(#clip980)" d="M137.033 526.559 L155.39 526.559 L155.39 530.494 L141.316 530.494 L141.316 538.966 Q142.334 538.619 143.353 538.457 Q144.371 538.272 145.39 538.272 Q151.177 538.272 154.556 541.443 Q157.936 544.615 157.936 550.031 Q157.936 555.61 154.464 558.712 Q150.992 561.79 144.672 561.79 Q142.496 561.79 140.228 561.42 Q137.982 561.05 135.575 560.309 L135.575 555.61 Q137.658 556.744 139.881 557.3 Q142.103 557.855 144.58 557.855 Q148.584 557.855 150.922 555.749 Q153.26 553.642 153.26 550.031 Q153.26 546.42 150.922 544.314 Q148.584 542.207 144.58 542.207 Q142.705 542.207 140.83 542.624 Q138.978 543.04 137.033 543.92 L137.033 526.559 Z" fill="#000000" fill-rule="nonzero" fill-opacity="1" /><path clip-path="url(#clip980)" d="M91.5706 347.343 L99.2095 347.343 L99.2095 320.977 L90.8993 322.644 L90.8993 318.384 L99.1632 316.718 L103.839 316.718 L103.839 347.343 L111.478 347.343 L111.478 351.278 L91.5706 351.278 L91.5706 347.343 Z" fill="#000000" fill-rule="nonzero" fill-opacity="1" /><path clip-path="url(#clip980)" d="M120.922 345.398 L125.807 345.398 L125.807 351.278 L120.922 351.278 L120.922 345.398 Z" fill="#000000" fill-rule="nonzero" fill-opacity="1" /><path clip-path="url(#clip980)" d="M145.992 319.796 Q142.381 319.796 140.552 323.361 Q138.746 326.903 138.746 334.033 Q138.746 341.139 140.552 344.704 Q142.381 348.245 145.992 348.245 Q149.626 348.245 151.431 344.704 Q153.26 341.139 153.26 334.033 Q153.26 326.903 151.431 323.361 Q149.626 319.796 145.992 319.796 M145.992 316.093 Q151.802 316.093 154.857 320.699 Q157.936 325.283 157.936 334.033 Q157.936 342.759 154.857 347.366 Q151.802 351.949 145.992 351.949 Q140.181 351.949 137.103 347.366 Q134.047 342.759 134.047 334.033 Q134.047 325.283 137.103 320.699 Q140.181 316.093 145.992 316.093 Z" fill="#000000" fill-rule="nonzero" fill-opacity="1" /><path clip-path="url(#clip980)" d="M92.566 137.501 L100.205 137.501 L100.205 111.136 L91.8947 112.802 L91.8947 108.543 L100.159 106.877 L104.834 106.877 L104.834 137.501 L112.473 137.501 L112.473 141.437 L92.566 141.437 L92.566 137.501 Z" fill="#000000" fill-rule="nonzero" fill-opacity="1" /><path clip-path="url(#clip980)" d="M121.918 135.557 L126.802 135.557 L126.802 141.437 L121.918 141.437 L121.918 135.557 Z" fill="#000000" fill-rule="nonzero" fill-opacity="1" /><path clip-path="url(#clip980)" d="M137.033 106.877 L155.39 106.877 L155.39 110.812 L141.316 110.812 L141.316 119.284 Q142.334 118.937 143.353 118.775 Q144.371 118.589 145.39 118.589 Q151.177 118.589 154.556 121.761 Q157.936 124.932 157.936 130.349 Q157.936 135.927 154.464 139.029 Q150.992 142.108 144.672 142.108 Q142.496 142.108 140.228 141.737 Q137.982 141.367 135.575 140.626 L135.575 135.927 Q137.658 137.062 139.881 137.617 Q142.103 138.173 144.58 138.173 Q148.584 138.173 150.922 136.066 Q153.26 133.96 153.26 130.349 Q153.26 126.738 150.922 124.631 Q148.584 122.525 144.58 122.525 Q142.705 122.525 140.83 122.941 Q138.978 123.358 137.033 124.238 L137.033 106.877 Z" fill="#000000" fill-rule="nonzero" fill-opacity="1" /><circle clip-path="url(#clip982)" cx="1114.28" cy="435.49" r="14.4" fill="#009af9" fill-rule="evenodd" fill-opacity="0.5" stroke="#000000" stroke-opacity="0.5" stroke-width="3.2"/>
<circle clip-path="url(#clip982)" cx="1533.63" cy="87.9763" r="14.4" fill="#009af9" fill-rule="evenodd" fill-opacity="0.5" stroke="#000000" stroke-opacity="0.5" stroke-width="3.2"/>
<circle clip-path="url(#clip982)" cx="1382.45" cy="517.487" r="14.4" fill="#009af9" fill-rule="evenodd" fill-opacity="0.5" stroke="#000000" stroke-opacity="0.5" stroke-width="3.2"/>
<circle clip-path="url(#clip982)" cx="1852.57" cy="660.878" r="14.4" fill="#009af9" fill-rule="evenodd" fill-opacity="0.5" stroke="#000000" stroke-opacity="0.5" stroke-width="3.2"/>
<circle clip-path="url(#clip982)" cx="716.78" cy="313.628" r="14.4" fill="#009af9" fill-rule="evenodd" fill-opacity="0.5" stroke="#000000" stroke-opacity="0.5" stroke-width="3.2"/>
<circle clip-path="url(#clip982)" cx="945.555" cy="508.515" r="14.4" fill="#009af9" fill-rule="evenodd" fill-opacity="0.5" stroke="#000000" stroke-opacity="0.5" stroke-width="3.2"/>
<circle clip-path="url(#clip982)" cx="1703.26" cy="467.795" r="14.4" fill="#009af9" fill-rule="evenodd" fill-opacity="0.5" stroke="#000000" stroke-opacity="0.5" stroke-width="3.2"/>
<circle clip-path="url(#clip982)" cx="1568.63" cy="825.799" r="14.4" fill="#009af9" fill-rule="evenodd" fill-opacity="0.5" stroke="#000000" stroke-opacity="0.5" stroke-width="3.2"/>
<circle clip-path="url(#clip982)" cx="1671.51" cy="1445.72" r="14.4" fill="#009af9" fill-rule="evenodd" fill-opacity="0.5" stroke="#000000" stroke-opacity="0.5" stroke-width="3.2"/>
<circle clip-path="url(#clip982)" cx="255.035" cy="969.269" r="14.4" fill="#009af9" fill-rule="evenodd" fill-opacity="0.5" stroke="#000000" stroke-opacity="0.5" stroke-width="3.2"/>
<circle clip-path="url(#clip982)" cx="809.527" cy="804.371" r="14.4" fill="#009af9" fill-rule="evenodd" fill-opacity="0.5" stroke="#000000" stroke-opacity="0.5" stroke-width="3.2"/>
<circle clip-path="url(#clip982)" cx="1690.45" cy="905.589" r="14.4" fill="#009af9" fill-rule="evenodd" fill-opacity="0.5" stroke="#000000" stroke-opacity="0.5" stroke-width="3.2"/>
<circle clip-path="url(#clip982)" cx="1045.92" cy="651.325" r="14.4" fill="#009af9" fill-rule="evenodd" fill-opacity="0.5" stroke="#000000" stroke-opacity="0.5" stroke-width="3.2"/>
<circle clip-path="url(#clip982)" cx="1409.58" cy="1001.81" r="14.4" fill="#009af9" fill-rule="evenodd" fill-opacity="0.5" stroke="#000000" stroke-opacity="0.5" stroke-width="3.2"/>
<circle clip-path="url(#clip982)" cx="2016.16" cy="1225.68" r="14.4" fill="#009af9" fill-rule="evenodd" fill-opacity="0.5" stroke="#000000" stroke-opacity="0.5" stroke-width="3.2"/>
<circle clip-path="url(#clip982)" cx="2276.74" cy="1327.84" r="14.4" fill="#009af9" fill-rule="evenodd" fill-opacity="0.5" stroke="#000000" stroke-opacity="0.5" stroke-width="3.2"/>
<circle clip-path="url(#clip982)" cx="1660.43" cy="598.313" r="14.4" fill="#009af9" fill-rule="evenodd" fill-opacity="0.5" stroke="#000000" stroke-opacity="0.5" stroke-width="3.2"/>
<circle clip-path="url(#clip982)" cx="1947.42" cy="482.806" r="14.4" fill="#009af9" fill-rule="evenodd" fill-opacity="0.5" stroke="#000000" stroke-opacity="0.5" stroke-width="3.2"/>
<circle clip-path="url(#clip982)" cx="1304.73" cy="624.418" r="14.4" fill="#009af9" fill-rule="evenodd" fill-opacity="0.5" stroke="#000000" stroke-opacity="0.5" stroke-width="3.2"/>
<circle clip-path="url(#clip982)" cx="1642.45" cy="446.768" r="14.4" fill="#009af9" fill-rule="evenodd" fill-opacity="0.5" stroke="#000000" stroke-opacity="0.5" stroke-width="3.2"/>
<circle clip-path="url(#clip982)" cx="2291.66" cy="832.226" r="14.4" fill="#009af9" fill-rule="evenodd" fill-opacity="0.5" stroke="#000000" stroke-opacity="0.5" stroke-width="3.2"/>
<circle clip-path="url(#clip982)" cx="1310.18" cy="558.814" r="14.4" fill="#009af9" fill-rule="evenodd" fill-opacity="0.5" stroke="#000000" stroke-opacity="0.5" stroke-width="3.2"/>
<circle clip-path="url(#clip982)" cx="1690.08" cy="846.354" r="14.4" fill="#009af9" fill-rule="evenodd" fill-opacity="0.5" stroke="#000000" stroke-opacity="0.5" stroke-width="3.2"/>
<circle clip-path="url(#clip982)" cx="1548.05" cy="1318.35" r="14.4" fill="#009af9" fill-rule="evenodd" fill-opacity="0.5" stroke="#000000" stroke-opacity="0.5" stroke-width="3.2"/>
<circle clip-path="url(#clip982)" cx="1588.11" cy="820.494" r="14.4" fill="#009af9" fill-rule="evenodd" fill-opacity="0.5" stroke="#000000" stroke-opacity="0.5" stroke-width="3.2"/>
<circle clip-path="url(#clip982)" cx="1201.27" cy="633.962" r="14.4" fill="#009af9" fill-rule="evenodd" fill-opacity="0.5" stroke="#000000" stroke-opacity="0.5" stroke-width="3.2"/>
<circle clip-path="url(#clip982)" cx="1844.41" cy="623.039" r="14.4" fill="#009af9" fill-rule="evenodd" fill-opacity="0.5" stroke="#000000" stroke-opacity="0.5" stroke-width="3.2"/>
<circle clip-path="url(#clip982)" cx="958.374" cy="821.795" r="14.4" fill="#009af9" fill-rule="evenodd" fill-opacity="0.5" stroke="#000000" stroke-opacity="0.5" stroke-width="3.2"/>
<circle clip-path="url(#clip982)" cx="2287.79" cy="360.552" r="14.4" fill="#009af9" fill-rule="evenodd" fill-opacity="0.5" stroke="#000000" stroke-opacity="0.5" stroke-width="3.2"/>
<circle clip-path="url(#clip982)" cx="1225.41" cy="379.112" r="14.4" fill="#009af9" fill-rule="evenodd" fill-opacity="0.5" stroke="#000000" stroke-opacity="0.5" stroke-width="3.2"/>
<path clip-path="url(#clip982)" d="M255.035 969.269 L1671.51 1445.72 L2276.74 1327.84 L2291.66 832.226 L2287.79 360.552 L1533.63 87.9763 L716.78 313.628 L255.035 969.269 L255.035 969.269  Z" fill="#e26f46" fill-rule="evenodd" fill-opacity="0.2"/>
<polyline clip-path="url(#clip982)" style="stroke:#000000; stroke-linecap:round; stroke-linejoin:round; stroke-width:4; stroke-opacity:0.2; fill:none" points="255.035,969.269 1671.51,1445.72 2276.74,1327.84 2291.66,832.226 2287.79,360.552 1533.63,87.9763 716.78,313.628 255.035,969.269 "/>
</svg>
