<?xml version="1.0" encoding="utf-8"?>
<svg xmlns="http://www.w3.org/2000/svg" xmlns:xlink="http://www.w3.org/1999/xlink" width="600" height="400" viewBox="0 0 2400 1600">
<defs>
  <clipPath id="clip840">
    <rect x="0" y="0" width="2400" height="1600"/>
  </clipPath>
</defs>
<path clip-path="url(#clip840)" d="M0 1600 L2400 1600 L2400 0 L0 0  Z" fill="#ffffff" fill-rule="evenodd" fill-opacity="1"/>
<defs>
  <clipPath id="clip841">
    <rect x="147" y="47" width="2206" height="1440"/>
  </clipPath>
</defs>
<path clip-path="url(#clip840)" d="M147.478 1486.45 L2352.76 1486.45 L2352.76 47.2441 L147.478 47.2441  Z" fill="#ffffff" fill-rule="evenodd" fill-opacity="1"/>
<polyline clip-path="url(#clip841)" style="stroke:#000000; stroke-linecap:round; stroke-linejoin:round; stroke-width:2; stroke-opacity:0.1; fill:none" points="170.832,1486.45 170.832,47.2441 "/>
<polyline clip-path="url(#clip841)" style="stroke:#000000; stroke-linecap:round; stroke-linejoin:round; stroke-width:2; stroke-opacity:0.1; fill:none" points="715.09,1486.45 715.09,47.2441 "/>
<polyline clip-path="url(#clip841)" style="stroke:#000000; stroke-linecap:round; stroke-linejoin:round; stroke-width:2; stroke-opacity:0.1; fill:none" points="1259.35,1486.45 1259.35,47.2441 "/>
<polyline clip-path="url(#clip841)" style="stroke:#000000; stroke-linecap:round; stroke-linejoin:round; stroke-width:2; stroke-opacity:0.1; fill:none" points="1803.61,1486.45 1803.61,47.2441 "/>
<polyline clip-path="url(#clip841)" style="stroke:#000000; stroke-linecap:round; stroke-linejoin:round; stroke-width:2; stroke-opacity:0.1; fill:none" points="2347.87,1486.45 2347.87,47.2441 "/>
<polyline clip-path="url(#clip841)" style="stroke:#000000; stroke-linecap:round; stroke-linejoin:round; stroke-width:2; stroke-opacity:0.1; fill:none" points="147.478,1449.32 2352.76,1449.32 "/>
<polyline clip-path="url(#clip841)" style="stroke:#000000; stroke-linecap:round; stroke-linejoin:round; stroke-width:2; stroke-opacity:0.1; fill:none" points="147.478,1093.88 2352.76,1093.88 "/>
<polyline clip-path="url(#clip841)" style="stroke:#000000; stroke-linecap:round; stroke-linejoin:round; stroke-width:2; stroke-opacity:0.1; fill:none" points="147.478,738.441 2352.76,738.441 "/>
<polyline clip-path="url(#clip841)" style="stroke:#000000; stroke-linecap:round; stroke-linejoin:round; stroke-width:2; stroke-opacity:0.1; fill:none" points="147.478,383 2352.76,383 "/>
<polyline clip-path="url(#clip840)" style="stroke:#000000; stroke-linecap:round; stroke-linejoin:round; stroke-width:4; stroke-opacity:1; fill:none" points="147.478,1486.45 2352.76,1486.45 "/>
<polyline clip-path="url(#clip840)" style="stroke:#000000; stroke-linecap:round; stroke-linejoin:round; stroke-width:4; stroke-opacity:1; fill:none" points="170.832,1486.45 170.832,1467.55 "/>
<polyline clip-path="url(#clip840)" style="stroke:#000000; stroke-linecap:round; stroke-linejoin:round; stroke-width:4; stroke-opacity:1; fill:none" points="715.09,1486.45 715.09,1467.55 "/>
<polyline clip-path="url(#clip840)" style="stroke:#000000; stroke-linecap:round; stroke-linejoin:round; stroke-width:4; stroke-opacity:1; fill:none" points="1259.35,1486.45 1259.35,1467.55 "/>
<polyline clip-path="url(#clip840)" style="stroke:#000000; stroke-linecap:round; stroke-linejoin:round; stroke-width:4; stroke-opacity:1; fill:none" points="1803.61,1486.45 1803.61,1467.55 "/>
<polyline clip-path="url(#clip840)" style="stroke:#000000; stroke-linecap:round; stroke-linejoin:round; stroke-width:4; stroke-opacity:1; fill:none" points="2347.87,1486.45 2347.87,1467.55 "/>
<path clip-path="url(#clip840)" d="M140.774 1532.02 L170.45 1532.02 L170.45 1535.95 L140.774 1535.95 L140.774 1532.02 Z" fill="#000000" fill-rule="nonzero" fill-opacity="1" /><path clip-path="url(#clip840)" d="M184.57 1544.91 L200.889 1544.91 L200.889 1548.85 L178.945 1548.85 L178.945 1544.91 Q181.607 1542.16 186.19 1537.53 Q190.797 1532.88 191.977 1531.53 Q194.223 1529.01 195.102 1527.27 Q196.005 1525.51 196.005 1523.82 Q196.005 1521.07 194.061 1519.33 Q192.139 1517.6 189.038 1517.6 Q186.839 1517.6 184.385 1518.36 Q181.954 1519.13 179.177 1520.68 L179.177 1515.95 Q182.001 1514.82 184.454 1514.24 Q186.908 1513.66 188.945 1513.66 Q194.315 1513.66 197.51 1516.35 Q200.704 1519.03 200.704 1523.52 Q200.704 1525.65 199.894 1527.57 Q199.107 1529.47 197.001 1532.07 Q196.422 1532.74 193.32 1535.95 Q190.218 1539.15 184.57 1544.91 Z" fill="#000000" fill-rule="nonzero" fill-opacity="1" /><path clip-path="url(#clip840)" d="M684.848 1532.02 L714.523 1532.02 L714.523 1535.95 L684.848 1535.95 L684.848 1532.02 Z" fill="#000000" fill-rule="nonzero" fill-opacity="1" /><path clip-path="url(#clip840)" d="M725.426 1544.91 L733.065 1544.91 L733.065 1518.55 L724.755 1520.21 L724.755 1515.95 L733.019 1514.29 L737.694 1514.29 L737.694 1544.91 L745.333 1544.91 L745.333 1548.85 L725.426 1548.85 L725.426 1544.91 Z" fill="#000000" fill-rule="nonzero" fill-opacity="1" /><path clip-path="url(#clip840)" d="M1259.35 1517.37 Q1255.74 1517.37 1253.91 1520.93 Q1252.1 1524.47 1252.1 1531.6 Q1252.1 1538.71 1253.91 1542.27 Q1255.74 1545.82 1259.35 1545.82 Q1262.98 1545.82 1264.79 1542.27 Q1266.62 1538.71 1266.62 1531.6 Q1266.62 1524.47 1264.79 1520.93 Q1262.98 1517.37 1259.35 1517.37 M1259.35 1513.66 Q1265.16 1513.66 1268.21 1518.27 Q1271.29 1522.85 1271.29 1531.6 Q1271.29 1540.33 1268.21 1544.94 Q1265.16 1549.52 1259.35 1549.52 Q1253.54 1549.52 1250.46 1544.94 Q1247.4 1540.33 1247.4 1531.6 Q1247.4 1522.85 1250.46 1518.27 Q1253.54 1513.66 1259.35 1513.66 Z" fill="#000000" fill-rule="nonzero" fill-opacity="1" /><path clip-path="url(#clip840)" d="M1793.99 1544.91 L1801.63 1544.91 L1801.63 1518.55 L1793.32 1520.21 L1793.32 1515.95 L1801.58 1514.29 L1806.26 1514.29 L1806.26 1544.91 L1813.9 1544.91 L1813.9 1548.85 L1793.99 1548.85 L1793.99 1544.91 Z" fill="#000000" fill-rule="nonzero" fill-opacity="1" /><path clip-path="url(#clip840)" d="M2342.52 1544.91 L2358.84 1544.91 L2358.84 1548.85 L2336.89 1548.85 L2336.89 1544.91 Q2339.56 1542.16 2344.14 1537.53 Q2348.75 1532.88 2349.93 1531.53 Q2352.17 1529.01 2353.05 1527.27 Q2353.95 1525.51 2353.95 1523.82 Q2353.95 1521.07 2352.01 1519.33 Q2350.09 1517.6 2346.99 1517.6 Q2344.79 1517.6 2342.33 1518.36 Q2339.9 1519.13 2337.13 1520.68 L2337.13 1515.95 Q2339.95 1514.82 2342.4 1514.24 Q2344.86 1513.66 2346.89 1513.66 Q2352.26 1513.66 2355.46 1516.35 Q2358.65 1519.03 2358.65 1523.52 Q2358.65 1525.65 2357.84 1527.57 Q2357.06 1529.47 2354.95 1532.07 Q2354.37 1532.74 2351.27 1535.95 Q2348.17 1539.15 2342.52 1544.91 Z" fill="#000000" fill-rule="nonzero" fill-opacity="1" /><polyline clip-path="url(#clip840)" style="stroke:#000000; stroke-linecap:round; stroke-linejoin:round; stroke-width:4; stroke-opacity:1; fill:none" points="147.478,1486.45 147.478,47.2441 "/>
<polyline clip-path="url(#clip840)" style="stroke:#000000; stroke-linecap:round; stroke-linejoin:round; stroke-width:4; stroke-opacity:1; fill:none" points="147.478,1449.32 166.376,1449.32 "/>
<polyline clip-path="url(#clip840)" style="stroke:#000000; stroke-linecap:round; stroke-linejoin:round; stroke-width:4; stroke-opacity:1; fill:none" points="147.478,1093.88 166.376,1093.88 "/>
<polyline clip-path="url(#clip840)" style="stroke:#000000; stroke-linecap:round; stroke-linejoin:round; stroke-width:4; stroke-opacity:1; fill:none" points="147.478,738.441 166.376,738.441 "/>
<polyline clip-path="url(#clip840)" style="stroke:#000000; stroke-linecap:round; stroke-linejoin:round; stroke-width:4; stroke-opacity:1; fill:none" points="147.478,383 166.376,383 "/>
<path clip-path="url(#clip840)" d="M51.3625 1449.77 L81.0383 1449.77 L81.0383 1453.71 L51.3625 1453.71 L51.3625 1449.77 Z" fill="#000000" fill-rule="nonzero" fill-opacity="1" /><path clip-path="url(#clip840)" d="M95.1586 1462.67 L111.478 1462.67 L111.478 1466.6 L89.5336 1466.6 L89.5336 1462.67 Q92.1956 1459.91 96.7789 1455.28 Q101.385 1450.63 102.566 1449.29 Q104.811 1446.76 105.691 1445.03 Q106.594 1443.27 106.594 1441.58 Q106.594 1438.82 104.649 1437.09 Q102.728 1435.35 99.6261 1435.35 Q97.4271 1435.35 94.9734 1436.12 Q92.5428 1436.88 89.7651 1438.43 L89.7651 1433.71 Q92.5891 1432.57 95.0428 1432 Q97.4965 1431.42 99.5335 1431.42 Q104.904 1431.42 108.098 1434.1 Q111.293 1436.79 111.293 1441.28 Q111.293 1443.41 110.483 1445.33 Q109.696 1447.23 107.589 1449.82 Q107.01 1450.49 103.909 1453.71 Q100.807 1456.9 95.1586 1462.67 Z" fill="#000000" fill-rule="nonzero" fill-opacity="1" /><path clip-path="url(#clip840)" d="M50.9921 1094.33 L80.6679 1094.33 L80.6679 1098.27 L50.9921 1098.27 L50.9921 1094.33 Z" fill="#000000" fill-rule="nonzero" fill-opacity="1" /><path clip-path="url(#clip840)" d="M91.5706 1107.23 L99.2095 1107.23 L99.2095 1080.86 L90.8993 1082.53 L90.8993 1078.27 L99.1632 1076.6 L103.839 1076.6 L103.839 1107.23 L111.478 1107.23 L111.478 1111.16 L91.5706 1111.16 L91.5706 1107.23 Z" fill="#000000" fill-rule="nonzero" fill-opacity="1" /><path clip-path="url(#clip840)" d="M99.5335 724.24 Q95.9224 724.24 94.0937 727.804 Q92.2882 731.346 92.2882 738.476 Q92.2882 745.582 94.0937 749.147 Q95.9224 752.689 99.5335 752.689 Q103.168 752.689 104.973 749.147 Q106.802 745.582 106.802 738.476 Q106.802 731.346 104.973 727.804 Q103.168 724.24 99.5335 724.24 M99.5335 720.536 Q105.344 720.536 108.399 725.142 Q111.478 729.726 111.478 738.476 Q111.478 747.202 108.399 751.809 Q105.344 756.392 99.5335 756.392 Q93.7234 756.392 90.6447 751.809 Q87.5892 747.202 87.5892 738.476 Q87.5892 729.726 90.6447 725.142 Q93.7234 720.536 99.5335 720.536 Z" fill="#000000" fill-rule="nonzero" fill-opacity="1" /><path clip-path="url(#clip840)" d="M91.5706 396.345 L99.2095 396.345 L99.2095 369.98 L90.8993 371.646 L90.8993 367.387 L99.1632 365.72 L103.839 365.72 L103.839 396.345 L111.478 396.345 L111.478 400.28 L91.5706 400.28 L91.5706 396.345 Z" fill="#000000" fill-rule="nonzero" fill-opacity="1" /><circle clip-path="url(#clip841)" cx="2232.02" cy="336.18" r="14.4" fill="#009af9" fill-rule="evenodd" fill-opacity="0.5" stroke="#000000" stroke-opacity="0.5" stroke-width="3.2"/>
<circle clip-path="url(#clip841)" cx="1233.56" cy="439.388" r="14.4" fill="#009af9" fill-rule="evenodd" fill-opacity="0.5" stroke="#000000" stroke-opacity="0.5" stroke-width="3.2"/>
<circle clip-path="url(#clip841)" cx="209.891" cy="87.9763" r="14.4" fill="#009af9" fill-rule="evenodd" fill-opacity="0.5" stroke="#000000" stroke-opacity="0.5" stroke-width="3.2"/>
<circle clip-path="url(#clip841)" cx="1349.31" cy="833.424" r="14.4" fill="#009af9" fill-rule="evenodd" fill-opacity="0.5" stroke="#000000" stroke-opacity="0.5" stroke-width="3.2"/>
<circle clip-path="url(#clip841)" cx="1719.49" cy="338.048" r="14.4" fill="#009af9" fill-rule="evenodd" fill-opacity="0.5" stroke="#000000" stroke-opacity="0.5" stroke-width="3.2"/>
<circle clip-path="url(#clip841)" cx="923.47" cy="701.966" r="14.4" fill="#009af9" fill-rule="evenodd" fill-opacity="0.5" stroke="#000000" stroke-opacity="0.5" stroke-width="3.2"/>
<circle clip-path="url(#clip841)" cx="1362.07" cy="245.091" r="14.4" fill="#009af9" fill-rule="evenodd" fill-opacity="0.5" stroke="#000000" stroke-opacity="0.5" stroke-width="3.2"/>
<circle clip-path="url(#clip841)" cx="2290.34" cy="771.209" r="14.4" fill="#009af9" fill-rule="evenodd" fill-opacity="0.5" stroke="#000000" stroke-opacity="0.5" stroke-width="3.2"/>
<circle clip-path="url(#clip841)" cx="1713.43" cy="886.804" r="14.4" fill="#009af9" fill-rule="evenodd" fill-opacity="0.5" stroke="#000000" stroke-opacity="0.5" stroke-width="3.2"/>
<circle clip-path="url(#clip841)" cx="783.28" cy="793.679" r="14.4" fill="#009af9" fill-rule="evenodd" fill-opacity="0.5" stroke="#000000" stroke-opacity="0.5" stroke-width="3.2"/>
<circle clip-path="url(#clip841)" cx="1658.93" cy="1289.13" r="14.4" fill="#009af9" fill-rule="evenodd" fill-opacity="0.5" stroke="#000000" stroke-opacity="0.5" stroke-width="3.2"/>
<circle clip-path="url(#clip841)" cx="1545.55" cy="1049.5" r="14.4" fill="#009af9" fill-rule="evenodd" fill-opacity="0.5" stroke="#000000" stroke-opacity="0.5" stroke-width="3.2"/>
<circle clip-path="url(#clip841)" cx="1871.82" cy="498.257" r="14.4" fill="#009af9" fill-rule="evenodd" fill-opacity="0.5" stroke="#000000" stroke-opacity="0.5" stroke-width="3.2"/>
<circle clip-path="url(#clip841)" cx="2242.45" cy="1115.77" r="14.4" fill="#009af9" fill-rule="evenodd" fill-opacity="0.5" stroke="#000000" stroke-opacity="0.5" stroke-width="3.2"/>
<circle clip-path="url(#clip841)" cx="1745.9" cy="1147.63" r="14.4" fill="#009af9" fill-rule="evenodd" fill-opacity="0.5" stroke="#000000" stroke-opacity="0.5" stroke-width="3.2"/>
<circle clip-path="url(#clip841)" cx="1254.77" cy="1445.72" r="14.4" fill="#009af9" fill-rule="evenodd" fill-opacity="0.5" stroke="#000000" stroke-opacity="0.5" stroke-width="3.2"/>
<circle clip-path="url(#clip841)" cx="1078.48" cy="569.057" r="14.4" fill="#009af9" fill-rule="evenodd" fill-opacity="0.5" stroke="#000000" stroke-opacity="0.5" stroke-width="3.2"/>
<circle clip-path="url(#clip841)" cx="1775.29" cy="378.215" r="14.4" fill="#009af9" fill-rule="evenodd" fill-opacity="0.5" stroke="#000000" stroke-opacity="0.5" stroke-width="3.2"/>
<circle clip-path="url(#clip841)" cx="977.332" cy="729.822" r="14.4" fill="#009af9" fill-rule="evenodd" fill-opacity="0.5" stroke="#000000" stroke-opacity="0.5" stroke-width="3.2"/>
<circle clip-path="url(#clip841)" cx="1809.92" cy="704.561" r="14.4" fill="#009af9" fill-rule="evenodd" fill-opacity="0.5" stroke="#000000" stroke-opacity="0.5" stroke-width="3.2"/>
<circle clip-path="url(#clip841)" cx="657.144" cy="779.848" r="14.4" fill="#009af9" fill-rule="evenodd" fill-opacity="0.5" stroke="#000000" stroke-opacity="0.5" stroke-width="3.2"/>
<circle clip-path="url(#clip841)" cx="1603.92" cy="934.932" r="14.4" fill="#009af9" fill-rule="evenodd" fill-opacity="0.5" stroke="#000000" stroke-opacity="0.5" stroke-width="3.2"/>
<circle clip-path="url(#clip841)" cx="1436.86" cy="1220.47" r="14.4" fill="#009af9" fill-rule="evenodd" fill-opacity="0.5" stroke="#000000" stroke-opacity="0.5" stroke-width="3.2"/>
<circle clip-path="url(#clip841)" cx="2124.97" cy="862.588" r="14.4" fill="#009af9" fill-rule="evenodd" fill-opacity="0.5" stroke="#000000" stroke-opacity="0.5" stroke-width="3.2"/>
<circle clip-path="url(#clip841)" cx="348.356" cy="822.411" r="14.4" fill="#009af9" fill-rule="evenodd" fill-opacity="0.5" stroke="#000000" stroke-opacity="0.5" stroke-width="3.2"/>
<circle clip-path="url(#clip841)" cx="1539.7" cy="782.797" r="14.4" fill="#009af9" fill-rule="evenodd" fill-opacity="0.5" stroke="#000000" stroke-opacity="0.5" stroke-width="3.2"/>
<circle clip-path="url(#clip841)" cx="1040.51" cy="897.297" r="14.4" fill="#009af9" fill-rule="evenodd" fill-opacity="0.5" stroke="#000000" stroke-opacity="0.5" stroke-width="3.2"/>
<circle clip-path="url(#clip841)" cx="785.295" cy="474.978" r="14.4" fill="#009af9" fill-rule="evenodd" fill-opacity="0.5" stroke="#000000" stroke-opacity="0.5" stroke-width="3.2"/>
<circle clip-path="url(#clip841)" cx="1973.56" cy="724.98" r="14.4" fill="#009af9" fill-rule="evenodd" fill-opacity="0.5" stroke="#000000" stroke-opacity="0.5" stroke-width="3.2"/>
<circle clip-path="url(#clip841)" cx="1698.31" cy="530.328" r="14.4" fill="#009af9" fill-rule="evenodd" fill-opacity="0.5" stroke="#000000" stroke-opacity="0.5" stroke-width="3.2"/>
<path clip-path="url(#clip841)" d="M209.891 87.9763 L348.356 822.411 L1254.77 1445.72 L2242.45 1115.77 L2290.34 771.209 L2232.02 336.18 L209.891 87.9763 L209.891 87.9763  Z" fill="#e26f46" fill-rule="evenodd" fill-opacity="0.2"/>
<polyline clip-path="url(#clip841)" style="stroke:#000000; stroke-linecap:round; stroke-linejoin:round; stroke-width:4; stroke-opacity:0.2; fill:none" points="209.891,87.9763 348.356,822.411 1254.77,1445.72 2242.45,1115.77 2290.34,771.209 2232.02,336.18 209.891,87.9763 "/>
</svg>
