<?xml version="1.0" encoding="utf-8"?>
<svg xmlns="http://www.w3.org/2000/svg" xmlns:xlink="http://www.w3.org/1999/xlink" width="600" height="400" viewBox="0 0 2400 1600">
<defs>
  <clipPath id="clip690">
    <rect x="0" y="0" width="2400" height="1600"/>
  </clipPath>
</defs>
<path clip-path="url(#clip690)" d="M0 1600 L2400 1600 L2400 0 L0 0  Z" fill="#ffffff" fill-rule="evenodd" fill-opacity="1"/>
<defs>
  <clipPath id="clip691">
    <rect x="480" y="0" width="1681" height="1600"/>
  </clipPath>
</defs>
<path clip-path="url(#clip690)" d="M193.936 1486.45 L2352.76 1486.45 L2352.76 47.2441 L193.936 47.2441  Z" fill="#ffffff" fill-rule="evenodd" fill-opacity="1"/>
<defs>
  <clipPath id="clip692">
    <rect x="193" y="47" width="2160" height="1440"/>
  </clipPath>
</defs>
<polyline clip-path="url(#clip692)" style="stroke:#000000; stroke-linecap:round; stroke-linejoin:round; stroke-width:2; stroke-opacity:0.1; fill:none" points="422.414,1486.45 422.414,47.2441 "/>
<polyline clip-path="url(#clip692)" style="stroke:#000000; stroke-linecap:round; stroke-linejoin:round; stroke-width:2; stroke-opacity:0.1; fill:none" points="758.434,1486.45 758.434,47.2441 "/>
<polyline clip-path="url(#clip692)" style="stroke:#000000; stroke-linecap:round; stroke-linejoin:round; stroke-width:2; stroke-opacity:0.1; fill:none" points="1094.45,1486.45 1094.45,47.2441 "/>
<polyline clip-path="url(#clip692)" style="stroke:#000000; stroke-linecap:round; stroke-linejoin:round; stroke-width:2; stroke-opacity:0.1; fill:none" points="1430.47,1486.45 1430.47,47.2441 "/>
<polyline clip-path="url(#clip692)" style="stroke:#000000; stroke-linecap:round; stroke-linejoin:round; stroke-width:2; stroke-opacity:0.1; fill:none" points="1766.49,1486.45 1766.49,47.2441 "/>
<polyline clip-path="url(#clip692)" style="stroke:#000000; stroke-linecap:round; stroke-linejoin:round; stroke-width:2; stroke-opacity:0.1; fill:none" points="2102.51,1486.45 2102.51,47.2441 "/>
<polyline clip-path="url(#clip692)" style="stroke:#000000; stroke-linecap:round; stroke-linejoin:round; stroke-width:2; stroke-opacity:0.1; fill:none" points="193.936,1325.37 2352.76,1325.37 "/>
<polyline clip-path="url(#clip692)" style="stroke:#000000; stroke-linecap:round; stroke-linejoin:round; stroke-width:2; stroke-opacity:0.1; fill:none" points="193.936,1140.91 2352.76,1140.91 "/>
<polyline clip-path="url(#clip692)" style="stroke:#000000; stroke-linecap:round; stroke-linejoin:round; stroke-width:2; stroke-opacity:0.1; fill:none" points="193.936,956.442 2352.76,956.442 "/>
<polyline clip-path="url(#clip692)" style="stroke:#000000; stroke-linecap:round; stroke-linejoin:round; stroke-width:2; stroke-opacity:0.1; fill:none" points="193.936,771.977 2352.76,771.977 "/>
<polyline clip-path="url(#clip692)" style="stroke:#000000; stroke-linecap:round; stroke-linejoin:round; stroke-width:2; stroke-opacity:0.1; fill:none" points="193.936,587.512 2352.76,587.512 "/>
<polyline clip-path="url(#clip692)" style="stroke:#000000; stroke-linecap:round; stroke-linejoin:round; stroke-width:2; stroke-opacity:0.1; fill:none" points="193.936,403.047 2352.76,403.047 "/>
<polyline clip-path="url(#clip692)" style="stroke:#000000; stroke-linecap:round; stroke-linejoin:round; stroke-width:2; stroke-opacity:0.1; fill:none" points="193.936,218.582 2352.76,218.582 "/>
<polyline clip-path="url(#clip690)" style="stroke:#000000; stroke-linecap:round; stroke-linejoin:round; stroke-width:4; stroke-opacity:1; fill:none" points="193.936,1486.45 2352.76,1486.45 "/>
<polyline clip-path="url(#clip690)" style="stroke:#000000; stroke-linecap:round; stroke-linejoin:round; stroke-width:4; stroke-opacity:1; fill:none" points="422.414,1486.45 422.414,1467.55 "/>
<polyline clip-path="url(#clip690)" style="stroke:#000000; stroke-linecap:round; stroke-linejoin:round; stroke-width:4; stroke-opacity:1; fill:none" points="758.434,1486.45 758.434,1467.55 "/>
<polyline clip-path="url(#clip690)" style="stroke:#000000; stroke-linecap:round; stroke-linejoin:round; stroke-width:4; stroke-opacity:1; fill:none" points="1094.45,1486.45 1094.45,1467.55 "/>
<polyline clip-path="url(#clip690)" style="stroke:#000000; stroke-linecap:round; stroke-linejoin:round; stroke-width:4; stroke-opacity:1; fill:none" points="1430.47,1486.45 1430.47,1467.55 "/>
<polyline clip-path="url(#clip690)" style="stroke:#000000; stroke-linecap:round; stroke-linejoin:round; stroke-width:4; stroke-opacity:1; fill:none" points="1766.49,1486.45 1766.49,1467.55 "/>
<polyline clip-path="url(#clip690)" style="stroke:#000000; stroke-linecap:round; stroke-linejoin:round; stroke-width:4; stroke-opacity:1; fill:none" points="2102.51,1486.45 2102.51,1467.55 "/>
<path clip-path="url(#clip690)" d="M368.942 1532.02 L398.618 1532.02 L398.618 1535.95 L368.942 1535.95 L368.942 1532.02 Z" fill="#000000" fill-rule="nonzero" fill-opacity="1" /><path clip-path="url(#clip690)" d="M409.521 1544.91 L417.16 1544.91 L417.16 1518.55 L408.85 1520.21 L408.85 1515.95 L417.113 1514.29 L421.789 1514.29 L421.789 1544.91 L429.428 1544.91 L429.428 1548.85 L409.521 1548.85 L409.521 1544.91 Z" fill="#000000" fill-rule="nonzero" fill-opacity="1" /><path clip-path="url(#clip690)" d="M438.873 1542.97 L443.757 1542.97 L443.757 1548.85 L438.873 1548.85 L438.873 1542.97 Z" fill="#000000" fill-rule="nonzero" fill-opacity="1" /><path clip-path="url(#clip690)" d="M463.942 1517.37 Q460.331 1517.37 458.502 1520.93 Q456.696 1524.47 456.696 1531.6 Q456.696 1538.71 458.502 1542.27 Q460.331 1545.82 463.942 1545.82 Q467.576 1545.82 469.382 1542.27 Q471.21 1538.71 471.21 1531.6 Q471.21 1524.47 469.382 1520.93 Q467.576 1517.37 463.942 1517.37 M463.942 1513.66 Q469.752 1513.66 472.808 1518.27 Q475.886 1522.85 475.886 1531.6 Q475.886 1540.33 472.808 1544.94 Q469.752 1549.52 463.942 1549.52 Q458.132 1549.52 455.053 1544.94 Q451.997 1540.33 451.997 1531.6 Q451.997 1522.85 455.053 1518.27 Q458.132 1513.66 463.942 1513.66 Z" fill="#000000" fill-rule="nonzero" fill-opacity="1" /><path clip-path="url(#clip690)" d="M705.46 1532.02 L735.136 1532.02 L735.136 1535.95 L705.46 1535.95 L705.46 1532.02 Z" fill="#000000" fill-rule="nonzero" fill-opacity="1" /><path clip-path="url(#clip690)" d="M755.228 1517.37 Q751.617 1517.37 749.789 1520.93 Q747.983 1524.47 747.983 1531.6 Q747.983 1538.71 749.789 1542.27 Q751.617 1545.82 755.228 1545.82 Q758.863 1545.82 760.668 1542.27 Q762.497 1538.71 762.497 1531.6 Q762.497 1524.47 760.668 1520.93 Q758.863 1517.37 755.228 1517.37 M755.228 1513.66 Q761.039 1513.66 764.094 1518.27 Q767.173 1522.85 767.173 1531.6 Q767.173 1540.33 764.094 1544.94 Q761.039 1549.52 755.228 1549.52 Q749.418 1549.52 746.34 1544.94 Q743.284 1540.33 743.284 1531.6 Q743.284 1522.85 746.34 1518.27 Q749.418 1513.66 755.228 1513.66 Z" fill="#000000" fill-rule="nonzero" fill-opacity="1" /><path clip-path="url(#clip690)" d="M775.39 1542.97 L780.275 1542.97 L780.275 1548.85 L775.39 1548.85 L775.39 1542.97 Z" fill="#000000" fill-rule="nonzero" fill-opacity="1" /><path clip-path="url(#clip690)" d="M790.506 1514.29 L808.862 1514.29 L808.862 1518.22 L794.788 1518.22 L794.788 1526.7 Q795.807 1526.35 796.825 1526.19 Q797.844 1526 798.862 1526 Q804.649 1526 808.029 1529.17 Q811.409 1532.34 811.409 1537.76 Q811.409 1543.34 807.936 1546.44 Q804.464 1549.52 798.145 1549.52 Q795.969 1549.52 793.7 1549.15 Q791.455 1548.78 789.048 1548.04 L789.048 1543.34 Q791.131 1544.47 793.353 1545.03 Q795.575 1545.58 798.052 1545.58 Q802.057 1545.58 804.395 1543.48 Q806.733 1541.37 806.733 1537.76 Q806.733 1534.15 804.395 1532.04 Q802.057 1529.94 798.052 1529.94 Q796.177 1529.94 794.302 1530.35 Q792.45 1530.77 790.506 1531.65 L790.506 1514.29 Z" fill="#000000" fill-rule="nonzero" fill-opacity="1" /><path clip-path="url(#clip690)" d="M1071.84 1517.37 Q1068.23 1517.37 1066.4 1520.93 Q1064.59 1524.47 1064.59 1531.6 Q1064.59 1538.71 1066.4 1542.27 Q1068.23 1545.82 1071.84 1545.82 Q1075.47 1545.82 1077.28 1542.27 Q1079.11 1538.71 1079.11 1531.6 Q1079.11 1524.47 1077.28 1520.93 Q1075.47 1517.37 1071.84 1517.37 M1071.84 1513.66 Q1077.65 1513.66 1080.7 1518.27 Q1083.78 1522.85 1083.78 1531.6 Q1083.78 1540.33 1080.7 1544.94 Q1077.65 1549.52 1071.84 1549.52 Q1066.03 1549.52 1062.95 1544.94 Q1059.89 1540.33 1059.89 1531.6 Q1059.89 1522.85 1062.95 1518.27 Q1066.03 1513.66 1071.84 1513.66 Z" fill="#000000" fill-rule="nonzero" fill-opacity="1" /><path clip-path="url(#clip690)" d="M1092 1542.97 L1096.89 1542.97 L1096.89 1548.85 L1092 1548.85 L1092 1542.97 Z" fill="#000000" fill-rule="nonzero" fill-opacity="1" /><path clip-path="url(#clip690)" d="M1117.07 1517.37 Q1113.46 1517.37 1111.63 1520.93 Q1109.82 1524.47 1109.82 1531.6 Q1109.82 1538.71 1111.63 1542.27 Q1113.46 1545.82 1117.07 1545.82 Q1120.7 1545.82 1122.51 1542.27 Q1124.34 1538.71 1124.34 1531.6 Q1124.34 1524.47 1122.51 1520.93 Q1120.7 1517.37 1117.07 1517.37 M1117.07 1513.66 Q1122.88 1513.66 1125.94 1518.27 Q1129.01 1522.85 1129.01 1531.6 Q1129.01 1540.33 1125.94 1544.94 Q1122.88 1549.52 1117.07 1549.52 Q1111.26 1549.52 1108.18 1544.94 Q1105.13 1540.33 1105.13 1531.6 Q1105.13 1522.85 1108.18 1518.27 Q1111.26 1513.66 1117.07 1513.66 Z" fill="#000000" fill-rule="nonzero" fill-opacity="1" /><path clip-path="url(#clip690)" d="M1408.36 1517.37 Q1404.75 1517.37 1402.92 1520.93 Q1401.11 1524.47 1401.11 1531.6 Q1401.11 1538.71 1402.92 1542.27 Q1404.75 1545.82 1408.36 1545.82 Q1411.99 1545.82 1413.8 1542.27 Q1415.63 1538.71 1415.63 1531.6 Q1415.63 1524.47 1413.8 1520.93 Q1411.99 1517.37 1408.36 1517.37 M1408.36 1513.66 Q1414.17 1513.66 1417.22 1518.27 Q1420.3 1522.85 1420.3 1531.6 Q1420.3 1540.33 1417.22 1544.94 Q1414.17 1549.52 1408.36 1549.52 Q1402.55 1549.52 1399.47 1544.94 Q1396.41 1540.33 1396.41 1531.6 Q1396.41 1522.85 1399.47 1518.27 Q1402.55 1513.66 1408.36 1513.66 Z" fill="#000000" fill-rule="nonzero" fill-opacity="1" /><path clip-path="url(#clip690)" d="M1428.52 1542.97 L1433.4 1542.97 L1433.4 1548.85 L1428.52 1548.85 L1428.52 1542.97 Z" fill="#000000" fill-rule="nonzero" fill-opacity="1" /><path clip-path="url(#clip690)" d="M1443.63 1514.29 L1461.99 1514.29 L1461.99 1518.22 L1447.92 1518.22 L1447.92 1526.7 Q1448.94 1526.35 1449.95 1526.19 Q1450.97 1526 1451.99 1526 Q1457.78 1526 1461.16 1529.17 Q1464.54 1532.34 1464.54 1537.76 Q1464.54 1543.34 1461.06 1546.44 Q1457.59 1549.52 1451.27 1549.52 Q1449.1 1549.52 1446.83 1549.15 Q1444.58 1548.78 1442.18 1548.04 L1442.18 1543.34 Q1444.26 1544.47 1446.48 1545.03 Q1448.7 1545.58 1451.18 1545.58 Q1455.19 1545.58 1457.52 1543.48 Q1459.86 1541.37 1459.86 1537.76 Q1459.86 1534.15 1457.52 1532.04 Q1455.19 1529.94 1451.18 1529.94 Q1449.31 1529.94 1447.43 1530.35 Q1445.58 1530.77 1443.63 1531.65 L1443.63 1514.29 Z" fill="#000000" fill-rule="nonzero" fill-opacity="1" /><path clip-path="url(#clip690)" d="M1733.65 1544.91 L1741.29 1544.91 L1741.29 1518.55 L1732.98 1520.21 L1732.98 1515.95 L1741.24 1514.29 L1745.92 1514.29 L1745.92 1544.91 L1753.56 1544.91 L1753.56 1548.85 L1733.65 1548.85 L1733.65 1544.91 Z" fill="#000000" fill-rule="nonzero" fill-opacity="1" /><path clip-path="url(#clip690)" d="M1763 1542.97 L1767.88 1542.97 L1767.88 1548.85 L1763 1548.85 L1763 1542.97 Z" fill="#000000" fill-rule="nonzero" fill-opacity="1" /><path clip-path="url(#clip690)" d="M1788.07 1517.37 Q1784.46 1517.37 1782.63 1520.93 Q1780.82 1524.47 1780.82 1531.6 Q1780.82 1538.71 1782.63 1542.27 Q1784.46 1545.82 1788.07 1545.82 Q1791.7 1545.82 1793.51 1542.27 Q1795.34 1538.71 1795.34 1531.6 Q1795.34 1524.47 1793.51 1520.93 Q1791.7 1517.37 1788.07 1517.37 M1788.07 1513.66 Q1793.88 1513.66 1796.93 1518.27 Q1800.01 1522.85 1800.01 1531.6 Q1800.01 1540.33 1796.93 1544.94 Q1793.88 1549.52 1788.07 1549.52 Q1782.26 1549.52 1779.18 1544.94 Q1776.12 1540.33 1776.12 1531.6 Q1776.12 1522.85 1779.18 1518.27 Q1782.26 1513.66 1788.07 1513.66 Z" fill="#000000" fill-rule="nonzero" fill-opacity="1" /><path clip-path="url(#clip690)" d="M2070.17 1544.91 L2077.8 1544.91 L2077.8 1518.55 L2069.49 1520.21 L2069.49 1515.95 L2077.76 1514.29 L2082.43 1514.29 L2082.43 1544.91 L2090.07 1544.91 L2090.07 1548.85 L2070.17 1548.85 L2070.17 1544.91 Z" fill="#000000" fill-rule="nonzero" fill-opacity="1" /><path clip-path="url(#clip690)" d="M2099.52 1542.97 L2104.4 1542.97 L2104.4 1548.85 L2099.52 1548.85 L2099.52 1542.97 Z" fill="#000000" fill-rule="nonzero" fill-opacity="1" /><path clip-path="url(#clip690)" d="M2114.63 1514.29 L2132.99 1514.29 L2132.99 1518.22 L2118.92 1518.22 L2118.92 1526.7 Q2119.93 1526.35 2120.95 1526.19 Q2121.97 1526 2122.99 1526 Q2128.78 1526 2132.16 1529.17 Q2135.54 1532.34 2135.54 1537.76 Q2135.54 1543.34 2132.06 1546.44 Q2128.59 1549.52 2122.27 1549.52 Q2120.1 1549.52 2117.83 1549.15 Q2115.58 1548.78 2113.17 1548.04 L2113.17 1543.34 Q2115.26 1544.47 2117.48 1545.03 Q2119.7 1545.58 2122.18 1545.58 Q2126.18 1545.58 2128.52 1543.48 Q2130.86 1541.37 2130.86 1537.76 Q2130.86 1534.15 2128.52 1532.04 Q2126.18 1529.94 2122.18 1529.94 Q2120.3 1529.94 2118.43 1530.35 Q2116.58 1530.77 2114.63 1531.65 L2114.63 1514.29 Z" fill="#000000" fill-rule="nonzero" fill-opacity="1" /><polyline clip-path="url(#clip690)" style="stroke:#000000; stroke-linecap:round; stroke-linejoin:round; stroke-width:4; stroke-opacity:1; fill:none" points="193.936,1486.45 193.936,47.2441 "/>
<polyline clip-path="url(#clip690)" style="stroke:#000000; stroke-linecap:round; stroke-linejoin:round; stroke-width:4; stroke-opacity:1; fill:none" points="193.936,1325.37 212.834,1325.37 "/>
<polyline clip-path="url(#clip690)" style="stroke:#000000; stroke-linecap:round; stroke-linejoin:round; stroke-width:4; stroke-opacity:1; fill:none" points="193.936,1140.91 212.834,1140.91 "/>
<polyline clip-path="url(#clip690)" style="stroke:#000000; stroke-linecap:round; stroke-linejoin:round; stroke-width:4; stroke-opacity:1; fill:none" points="193.936,956.442 212.834,956.442 "/>
<polyline clip-path="url(#clip690)" style="stroke:#000000; stroke-linecap:round; stroke-linejoin:round; stroke-width:4; stroke-opacity:1; fill:none" points="193.936,771.977 212.834,771.977 "/>
<polyline clip-path="url(#clip690)" style="stroke:#000000; stroke-linecap:round; stroke-linejoin:round; stroke-width:4; stroke-opacity:1; fill:none" points="193.936,587.512 212.834,587.512 "/>
<polyline clip-path="url(#clip690)" style="stroke:#000000; stroke-linecap:round; stroke-linejoin:round; stroke-width:4; stroke-opacity:1; fill:none" points="193.936,403.047 212.834,403.047 "/>
<polyline clip-path="url(#clip690)" style="stroke:#000000; stroke-linecap:round; stroke-linejoin:round; stroke-width:4; stroke-opacity:1; fill:none" points="193.936,218.582 212.834,218.582 "/>
<path clip-path="url(#clip690)" d="M51.9875 1325.82 L81.6633 1325.82 L81.6633 1329.76 L51.9875 1329.76 L51.9875 1325.82 Z" fill="#000000" fill-rule="nonzero" fill-opacity="1" /><path clip-path="url(#clip690)" d="M92.566 1338.72 L100.205 1338.72 L100.205 1312.35 L91.8947 1314.02 L91.8947 1309.76 L100.159 1308.09 L104.834 1308.09 L104.834 1338.72 L112.473 1338.72 L112.473 1342.65 L92.566 1342.65 L92.566 1338.72 Z" fill="#000000" fill-rule="nonzero" fill-opacity="1" /><path clip-path="url(#clip690)" d="M121.918 1336.77 L126.802 1336.77 L126.802 1342.65 L121.918 1342.65 L121.918 1336.77 Z" fill="#000000" fill-rule="nonzero" fill-opacity="1" /><path clip-path="url(#clip690)" d="M137.033 1308.09 L155.39 1308.09 L155.39 1312.03 L141.316 1312.03 L141.316 1320.5 Q142.334 1320.15 143.353 1319.99 Q144.371 1319.8 145.39 1319.8 Q151.177 1319.8 154.556 1322.98 Q157.936 1326.15 157.936 1331.56 Q157.936 1337.14 154.464 1340.24 Q150.992 1343.32 144.672 1343.32 Q142.496 1343.32 140.228 1342.95 Q137.982 1342.58 135.575 1341.84 L135.575 1337.14 Q137.658 1338.28 139.881 1338.83 Q142.103 1339.39 144.58 1339.39 Q148.584 1339.39 150.922 1337.28 Q153.26 1335.17 153.26 1331.56 Q153.26 1327.95 150.922 1325.85 Q148.584 1323.74 144.58 1323.74 Q142.705 1323.74 140.83 1324.16 Q138.978 1324.57 137.033 1325.45 L137.033 1308.09 Z" fill="#000000" fill-rule="nonzero" fill-opacity="1" /><path clip-path="url(#clip690)" d="M50.9921 1141.36 L80.6679 1141.36 L80.6679 1145.29 L50.9921 1145.29 L50.9921 1141.36 Z" fill="#000000" fill-rule="nonzero" fill-opacity="1" /><path clip-path="url(#clip690)" d="M91.5706 1154.25 L99.2095 1154.25 L99.2095 1127.89 L90.8993 1129.55 L90.8993 1125.29 L99.1632 1123.63 L103.839 1123.63 L103.839 1154.25 L111.478 1154.25 L111.478 1158.19 L91.5706 1158.19 L91.5706 1154.25 Z" fill="#000000" fill-rule="nonzero" fill-opacity="1" /><path clip-path="url(#clip690)" d="M120.922 1152.31 L125.807 1152.31 L125.807 1158.19 L120.922 1158.19 L120.922 1152.31 Z" fill="#000000" fill-rule="nonzero" fill-opacity="1" /><path clip-path="url(#clip690)" d="M145.992 1126.71 Q142.381 1126.71 140.552 1130.27 Q138.746 1133.81 138.746 1140.94 Q138.746 1148.05 140.552 1151.61 Q142.381 1155.15 145.992 1155.15 Q149.626 1155.15 151.431 1151.61 Q153.26 1148.05 153.26 1140.94 Q153.26 1133.81 151.431 1130.27 Q149.626 1126.71 145.992 1126.71 M145.992 1123 Q151.802 1123 154.857 1127.61 Q157.936 1132.19 157.936 1140.94 Q157.936 1149.67 154.857 1154.27 Q151.802 1158.86 145.992 1158.86 Q140.181 1158.86 137.103 1154.27 Q134.047 1149.67 134.047 1140.94 Q134.047 1132.19 137.103 1127.61 Q140.181 1123 145.992 1123 Z" fill="#000000" fill-rule="nonzero" fill-opacity="1" /><path clip-path="url(#clip690)" d="M51.9875 956.893 L81.6633 956.893 L81.6633 960.828 L51.9875 960.828 L51.9875 956.893 Z" fill="#000000" fill-rule="nonzero" fill-opacity="1" /><path clip-path="url(#clip690)" d="M101.756 942.24 Q98.1447 942.24 96.316 945.805 Q94.5104 949.347 94.5104 956.476 Q94.5104 963.583 96.316 967.148 Q98.1447 970.689 101.756 970.689 Q105.39 970.689 107.196 967.148 Q109.024 963.583 109.024 956.476 Q109.024 949.347 107.196 945.805 Q105.39 942.24 101.756 942.24 M101.756 938.537 Q107.566 938.537 110.621 943.143 Q113.7 947.726 113.7 956.476 Q113.7 965.203 110.621 969.81 Q107.566 974.393 101.756 974.393 Q95.9456 974.393 92.8669 969.81 Q89.8114 965.203 89.8114 956.476 Q89.8114 947.726 92.8669 943.143 Q95.9456 938.537 101.756 938.537 Z" fill="#000000" fill-rule="nonzero" fill-opacity="1" /><path clip-path="url(#clip690)" d="M121.918 967.842 L126.802 967.842 L126.802 973.722 L121.918 973.722 L121.918 967.842 Z" fill="#000000" fill-rule="nonzero" fill-opacity="1" /><path clip-path="url(#clip690)" d="M137.033 939.162 L155.39 939.162 L155.39 943.097 L141.316 943.097 L141.316 951.569 Q142.334 951.222 143.353 951.06 Q144.371 950.875 145.39 950.875 Q151.177 950.875 154.556 954.046 Q157.936 957.217 157.936 962.634 Q157.936 968.212 154.464 971.314 Q150.992 974.393 144.672 974.393 Q142.496 974.393 140.228 974.023 Q137.982 973.652 135.575 972.911 L135.575 968.212 Q137.658 969.347 139.881 969.902 Q142.103 970.458 144.58 970.458 Q148.584 970.458 150.922 968.351 Q153.26 966.245 153.26 962.634 Q153.26 959.023 150.922 956.916 Q148.584 954.81 144.58 954.81 Q142.705 954.81 140.83 955.226 Q138.978 955.643 137.033 956.523 L137.033 939.162 Z" fill="#000000" fill-rule="nonzero" fill-opacity="1" /><path clip-path="url(#clip690)" d="M100.76 757.775 Q97.1493 757.775 95.3206 761.34 Q93.515 764.882 93.515 772.011 Q93.515 779.118 95.3206 782.683 Q97.1493 786.224 100.76 786.224 Q104.395 786.224 106.2 782.683 Q108.029 779.118 108.029 772.011 Q108.029 764.882 106.2 761.34 Q104.395 757.775 100.76 757.775 M100.76 754.072 Q106.571 754.072 109.626 758.678 Q112.705 763.261 112.705 772.011 Q112.705 780.738 109.626 785.345 Q106.571 789.928 100.76 789.928 Q94.9502 789.928 91.8715 785.345 Q88.816 780.738 88.816 772.011 Q88.816 763.261 91.8715 758.678 Q94.9502 754.072 100.76 754.072 Z" fill="#000000" fill-rule="nonzero" fill-opacity="1" /><path clip-path="url(#clip690)" d="M120.922 783.377 L125.807 783.377 L125.807 789.257 L120.922 789.257 L120.922 783.377 Z" fill="#000000" fill-rule="nonzero" fill-opacity="1" /><path clip-path="url(#clip690)" d="M145.992 757.775 Q142.381 757.775 140.552 761.34 Q138.746 764.882 138.746 772.011 Q138.746 779.118 140.552 782.683 Q142.381 786.224 145.992 786.224 Q149.626 786.224 151.431 782.683 Q153.26 779.118 153.26 772.011 Q153.26 764.882 151.431 761.34 Q149.626 757.775 145.992 757.775 M145.992 754.072 Q151.802 754.072 154.857 758.678 Q157.936 763.261 157.936 772.011 Q157.936 780.738 154.857 785.345 Q151.802 789.928 145.992 789.928 Q140.181 789.928 137.103 785.345 Q134.047 780.738 134.047 772.011 Q134.047 763.261 137.103 758.678 Q140.181 754.072 145.992 754.072 Z" fill="#000000" fill-rule="nonzero" fill-opacity="1" /><path clip-path="url(#clip690)" d="M101.756 573.311 Q98.1447 573.311 96.316 576.875 Q94.5104 580.417 94.5104 587.547 Q94.5104 594.653 96.316 598.218 Q98.1447 601.759 101.756 601.759 Q105.39 601.759 107.196 598.218 Q109.024 594.653 109.024 587.547 Q109.024 580.417 107.196 576.875 Q105.39 573.311 101.756 573.311 M101.756 569.607 Q107.566 569.607 110.621 574.213 Q113.7 578.797 113.7 587.547 Q113.7 596.273 110.621 600.88 Q107.566 605.463 101.756 605.463 Q95.9456 605.463 92.8669 600.88 Q89.8114 596.273 89.8114 587.547 Q89.8114 578.797 92.8669 574.213 Q95.9456 569.607 101.756 569.607 Z" fill="#000000" fill-rule="nonzero" fill-opacity="1" /><path clip-path="url(#clip690)" d="M121.918 598.912 L126.802 598.912 L126.802 604.792 L121.918 604.792 L121.918 598.912 Z" fill="#000000" fill-rule="nonzero" fill-opacity="1" /><path clip-path="url(#clip690)" d="M137.033 570.232 L155.39 570.232 L155.39 574.167 L141.316 574.167 L141.316 582.639 Q142.334 582.292 143.353 582.13 Q144.371 581.945 145.39 581.945 Q151.177 581.945 154.556 585.116 Q157.936 588.287 157.936 593.704 Q157.936 599.283 154.464 602.384 Q150.992 605.463 144.672 605.463 Q142.496 605.463 140.228 605.093 Q137.982 604.722 135.575 603.982 L135.575 599.283 Q137.658 600.417 139.881 600.972 Q142.103 601.528 144.58 601.528 Q148.584 601.528 150.922 599.421 Q153.26 597.315 153.26 593.704 Q153.26 590.093 150.922 587.986 Q148.584 585.88 144.58 585.88 Q142.705 585.88 140.83 586.297 Q138.978 586.713 137.033 587.593 L137.033 570.232 Z" fill="#000000" fill-rule="nonzero" fill-opacity="1" /><path clip-path="url(#clip690)" d="M91.5706 416.392 L99.2095 416.392 L99.2095 390.026 L90.8993 391.693 L90.8993 387.434 L99.1632 385.767 L103.839 385.767 L103.839 416.392 L111.478 416.392 L111.478 420.327 L91.5706 420.327 L91.5706 416.392 Z" fill="#000000" fill-rule="nonzero" fill-opacity="1" /><path clip-path="url(#clip690)" d="M120.922 414.447 L125.807 414.447 L125.807 420.327 L120.922 420.327 L120.922 414.447 Z" fill="#000000" fill-rule="nonzero" fill-opacity="1" /><path clip-path="url(#clip690)" d="M145.992 388.846 Q142.381 388.846 140.552 392.41 Q138.746 395.952 138.746 403.082 Q138.746 410.188 140.552 413.753 Q142.381 417.295 145.992 417.295 Q149.626 417.295 151.431 413.753 Q153.26 410.188 153.26 403.082 Q153.26 395.952 151.431 392.41 Q149.626 388.846 145.992 388.846 M145.992 385.142 Q151.802 385.142 154.857 389.748 Q157.936 394.332 157.936 403.082 Q157.936 411.808 154.857 416.415 Q151.802 420.998 145.992 420.998 Q140.181 420.998 137.103 416.415 Q134.047 411.808 134.047 403.082 Q134.047 394.332 137.103 389.748 Q140.181 385.142 145.992 385.142 Z" fill="#000000" fill-rule="nonzero" fill-opacity="1" /><path clip-path="url(#clip690)" d="M92.566 231.927 L100.205 231.927 L100.205 205.561 L91.8947 207.228 L91.8947 202.969 L100.159 201.302 L104.834 201.302 L104.834 231.927 L112.473 231.927 L112.473 235.862 L92.566 235.862 L92.566 231.927 Z" fill="#000000" fill-rule="nonzero" fill-opacity="1" /><path clip-path="url(#clip690)" d="M121.918 229.982 L126.802 229.982 L126.802 235.862 L121.918 235.862 L121.918 229.982 Z" fill="#000000" fill-rule="nonzero" fill-opacity="1" /><path clip-path="url(#clip690)" d="M137.033 201.302 L155.39 201.302 L155.39 205.237 L141.316 205.237 L141.316 213.709 Q142.334 213.362 143.353 213.2 Q144.371 213.015 145.39 213.015 Q151.177 213.015 154.556 216.186 Q157.936 219.357 157.936 224.774 Q157.936 230.353 154.464 233.455 Q150.992 236.533 144.672 236.533 Q142.496 236.533 140.228 236.163 Q137.982 235.793 135.575 235.052 L135.575 230.353 Q137.658 231.487 139.881 232.043 Q142.103 232.598 144.58 232.598 Q148.584 232.598 150.922 230.492 Q153.26 228.385 153.26 224.774 Q153.26 221.163 150.922 219.057 Q148.584 216.95 144.58 216.95 Q142.705 216.95 140.83 217.367 Q138.978 217.783 137.033 218.663 L137.033 201.302 Z" fill="#000000" fill-rule="nonzero" fill-opacity="1" /><circle clip-path="url(#clip692)" cx="1322.99" cy="792.124" r="14.4" fill="#009af9" fill-rule="evenodd" fill-opacity="0.5" stroke="#000000" stroke-opacity="0.5" stroke-width="3.2"/>
<circle clip-path="url(#clip692)" cx="1996.17" cy="965.176" r="14.4" fill="#009af9" fill-rule="evenodd" fill-opacity="0.5" stroke="#000000" stroke-opacity="0.5" stroke-width="3.2"/>
<circle clip-path="url(#clip692)" cx="1164.84" cy="701.903" r="14.4" fill="#009af9" fill-rule="evenodd" fill-opacity="0.5" stroke="#000000" stroke-opacity="0.5" stroke-width="3.2"/>
<circle clip-path="url(#clip692)" cx="255.035" cy="855.365" r="14.4" fill="#009af9" fill-rule="evenodd" fill-opacity="0.5" stroke="#000000" stroke-opacity="0.5" stroke-width="3.2"/>
<circle clip-path="url(#clip692)" cx="323.383" cy="623.235" r="14.4" fill="#009af9" fill-rule="evenodd" fill-opacity="0.5" stroke="#000000" stroke-opacity="0.5" stroke-width="3.2"/>
<circle clip-path="url(#clip692)" cx="1147.37" cy="1445.72" r="14.4" fill="#009af9" fill-rule="evenodd" fill-opacity="0.5" stroke="#000000" stroke-opacity="0.5" stroke-width="3.2"/>
<circle clip-path="url(#clip692)" cx="1004.87" cy="1128.08" r="14.4" fill="#009af9" fill-rule="evenodd" fill-opacity="0.5" stroke="#000000" stroke-opacity="0.5" stroke-width="3.2"/>
<circle clip-path="url(#clip692)" cx="1544.74" cy="675.992" r="14.4" fill="#009af9" fill-rule="evenodd" fill-opacity="0.5" stroke="#000000" stroke-opacity="0.5" stroke-width="3.2"/>
<circle clip-path="url(#clip692)" cx="545.921" cy="905.89" r="14.4" fill="#009af9" fill-rule="evenodd" fill-opacity="0.5" stroke="#000000" stroke-opacity="0.5" stroke-width="3.2"/>
<circle clip-path="url(#clip692)" cx="820.44" cy="748.339" r="14.4" fill="#009af9" fill-rule="evenodd" fill-opacity="0.5" stroke="#000000" stroke-opacity="0.5" stroke-width="3.2"/>
<circle clip-path="url(#clip692)" cx="780.612" cy="523.205" r="14.4" fill="#009af9" fill-rule="evenodd" fill-opacity="0.5" stroke="#000000" stroke-opacity="0.5" stroke-width="3.2"/>
<circle clip-path="url(#clip692)" cx="963.779" cy="615.684" r="14.4" fill="#009af9" fill-rule="evenodd" fill-opacity="0.5" stroke="#000000" stroke-opacity="0.5" stroke-width="3.2"/>
<circle clip-path="url(#clip692)" cx="1513.55" cy="324.625" r="14.4" fill="#009af9" fill-rule="evenodd" fill-opacity="0.5" stroke="#000000" stroke-opacity="0.5" stroke-width="3.2"/>
<circle clip-path="url(#clip692)" cx="1289.22" cy="368.581" r="14.4" fill="#009af9" fill-rule="evenodd" fill-opacity="0.5" stroke="#000000" stroke-opacity="0.5" stroke-width="3.2"/>
<circle clip-path="url(#clip692)" cx="1372.48" cy="616.371" r="14.4" fill="#009af9" fill-rule="evenodd" fill-opacity="0.5" stroke="#000000" stroke-opacity="0.5" stroke-width="3.2"/>
<circle clip-path="url(#clip692)" cx="942.343" cy="828.123" r="14.4" fill="#009af9" fill-rule="evenodd" fill-opacity="0.5" stroke="#000000" stroke-opacity="0.5" stroke-width="3.2"/>
<circle clip-path="url(#clip692)" cx="996.876" cy="796.887" r="14.4" fill="#009af9" fill-rule="evenodd" fill-opacity="0.5" stroke="#000000" stroke-opacity="0.5" stroke-width="3.2"/>
<circle clip-path="url(#clip692)" cx="2056.33" cy="373.823" r="14.4" fill="#009af9" fill-rule="evenodd" fill-opacity="0.5" stroke="#000000" stroke-opacity="0.5" stroke-width="3.2"/>
<circle clip-path="url(#clip692)" cx="1711.35" cy="618.494" r="14.4" fill="#009af9" fill-rule="evenodd" fill-opacity="0.5" stroke="#000000" stroke-opacity="0.5" stroke-width="3.2"/>
<circle clip-path="url(#clip692)" cx="1561.02" cy="759.144" r="14.4" fill="#009af9" fill-rule="evenodd" fill-opacity="0.5" stroke="#000000" stroke-opacity="0.5" stroke-width="3.2"/>
<circle clip-path="url(#clip692)" cx="1027.56" cy="167.671" r="14.4" fill="#009af9" fill-rule="evenodd" fill-opacity="0.5" stroke="#000000" stroke-opacity="0.5" stroke-width="3.2"/>
<circle clip-path="url(#clip692)" cx="1824.31" cy="87.9763" r="14.4" fill="#009af9" fill-rule="evenodd" fill-opacity="0.5" stroke="#000000" stroke-opacity="0.5" stroke-width="3.2"/>
<circle clip-path="url(#clip692)" cx="560.898" cy="961.99" r="14.4" fill="#009af9" fill-rule="evenodd" fill-opacity="0.5" stroke="#000000" stroke-opacity="0.5" stroke-width="3.2"/>
<circle clip-path="url(#clip692)" cx="872.739" cy="1412.65" r="14.4" fill="#009af9" fill-rule="evenodd" fill-opacity="0.5" stroke="#000000" stroke-opacity="0.5" stroke-width="3.2"/>
<circle clip-path="url(#clip692)" cx="1050.12" cy="268.198" r="14.4" fill="#009af9" fill-rule="evenodd" fill-opacity="0.5" stroke="#000000" stroke-opacity="0.5" stroke-width="3.2"/>
<circle clip-path="url(#clip692)" cx="2291.66" cy="880.635" r="14.4" fill="#009af9" fill-rule="evenodd" fill-opacity="0.5" stroke="#000000" stroke-opacity="0.5" stroke-width="3.2"/>
<circle clip-path="url(#clip692)" cx="423.427" cy="1051.19" r="14.4" fill="#009af9" fill-rule="evenodd" fill-opacity="0.5" stroke="#000000" stroke-opacity="0.5" stroke-width="3.2"/>
<circle clip-path="url(#clip692)" cx="991.637" cy="755.991" r="14.4" fill="#009af9" fill-rule="evenodd" fill-opacity="0.5" stroke="#000000" stroke-opacity="0.5" stroke-width="3.2"/>
<circle clip-path="url(#clip692)" cx="1000.02" cy="376.45" r="14.4" fill="#009af9" fill-rule="evenodd" fill-opacity="0.5" stroke="#000000" stroke-opacity="0.5" stroke-width="3.2"/>
<circle clip-path="url(#clip692)" cx="835.66" cy="726.084" r="14.4" fill="#009af9" fill-rule="evenodd" fill-opacity="0.5" stroke="#000000" stroke-opacity="0.5" stroke-width="3.2"/>
<path clip-path="url(#clip692)" d="M255.035 855.365 L423.427 1051.19 L872.739 1412.65 L1147.37 1445.72 L2291.66 880.635 L2056.33 373.823 L1824.31 87.9763 L1027.56 167.671 L323.383 623.235 L255.035 855.365 L255.035 855.365  Z" fill="#e26f46" fill-rule="evenodd" fill-opacity="0.2"/>
<polyline clip-path="url(#clip692)" style="stroke:#000000; stroke-linecap:round; stroke-linejoin:round; stroke-width:4; stroke-opacity:0.2; fill:none" points="255.035,855.365 423.427,1051.19 872.739,1412.65 1147.37,1445.72 2291.66,880.635 2056.33,373.823 1824.31,87.9763 1027.56,167.671 323.383,623.235 255.035,855.365 "/>
</svg>
