<?xml version="1.0" encoding="utf-8"?>
<svg xmlns="http://www.w3.org/2000/svg" xmlns:xlink="http://www.w3.org/1999/xlink" width="600" height="400" viewBox="0 0 2400 1600">
<defs>
  <clipPath id="clip770">
    <rect x="0" y="0" width="2400" height="1600"/>
  </clipPath>
</defs>
<path clip-path="url(#clip770)" d="M0 1600 L2400 1600 L2400 0 L0 0  Z" fill="#ffffff" fill-rule="evenodd" fill-opacity="1"/>
<defs>
  <clipPath id="clip771">
    <rect x="147" y="47" width="2206" height="1440"/>
  </clipPath>
</defs>
<path clip-path="url(#clip770)" d="M147.478 1486.45 L2352.76 1486.45 L2352.76 47.2441 L147.478 47.2441  Z" fill="#ffffff" fill-rule="evenodd" fill-opacity="1"/>
<polyline clip-path="url(#clip771)" style="stroke:#000000; stroke-linecap:round; stroke-linejoin:round; stroke-width:2; stroke-opacity:0.1; fill:none" points="350.064,1486.45 350.064,47.2441 "/>
<polyline clip-path="url(#clip771)" style="stroke:#000000; stroke-linecap:round; stroke-linejoin:round; stroke-width:2; stroke-opacity:0.1; fill:none" points="859.065,1486.45 859.065,47.2441 "/>
<polyline clip-path="url(#clip771)" style="stroke:#000000; stroke-linecap:round; stroke-linejoin:round; stroke-width:2; stroke-opacity:0.1; fill:none" points="1368.07,1486.45 1368.07,47.2441 "/>
<polyline clip-path="url(#clip771)" style="stroke:#000000; stroke-linecap:round; stroke-linejoin:round; stroke-width:2; stroke-opacity:0.1; fill:none" points="1877.07,1486.45 1877.07,47.2441 "/>
<polyline clip-path="url(#clip771)" style="stroke:#000000; stroke-linecap:round; stroke-linejoin:round; stroke-width:2; stroke-opacity:0.1; fill:none" points="147.478,1260.83 2352.76,1260.83 "/>
<polyline clip-path="url(#clip771)" style="stroke:#000000; stroke-linecap:round; stroke-linejoin:round; stroke-width:2; stroke-opacity:0.1; fill:none" points="147.478,899.987 2352.76,899.987 "/>
<polyline clip-path="url(#clip771)" style="stroke:#000000; stroke-linecap:round; stroke-linejoin:round; stroke-width:2; stroke-opacity:0.1; fill:none" points="147.478,539.148 2352.76,539.148 "/>
<polyline clip-path="url(#clip771)" style="stroke:#000000; stroke-linecap:round; stroke-linejoin:round; stroke-width:2; stroke-opacity:0.1; fill:none" points="147.478,178.309 2352.76,178.309 "/>
<polyline clip-path="url(#clip770)" style="stroke:#000000; stroke-linecap:round; stroke-linejoin:round; stroke-width:4; stroke-opacity:1; fill:none" points="147.478,1486.45 2352.76,1486.45 "/>
<polyline clip-path="url(#clip770)" style="stroke:#000000; stroke-linecap:round; stroke-linejoin:round; stroke-width:4; stroke-opacity:1; fill:none" points="350.064,1486.45 350.064,1467.55 "/>
<polyline clip-path="url(#clip770)" style="stroke:#000000; stroke-linecap:round; stroke-linejoin:round; stroke-width:4; stroke-opacity:1; fill:none" points="859.065,1486.45 859.065,1467.55 "/>
<polyline clip-path="url(#clip770)" style="stroke:#000000; stroke-linecap:round; stroke-linejoin:round; stroke-width:4; stroke-opacity:1; fill:none" points="1368.07,1486.45 1368.07,1467.55 "/>
<polyline clip-path="url(#clip770)" style="stroke:#000000; stroke-linecap:round; stroke-linejoin:round; stroke-width:4; stroke-opacity:1; fill:none" points="1877.07,1486.45 1877.07,1467.55 "/>
<path clip-path="url(#clip770)" d="M320.006 1532.02 L349.682 1532.02 L349.682 1535.95 L320.006 1535.95 L320.006 1532.02 Z" fill="#000000" fill-rule="nonzero" fill-opacity="1" /><path clip-path="url(#clip770)" d="M363.802 1544.91 L380.121 1544.91 L380.121 1548.85 L358.177 1548.85 L358.177 1544.91 Q360.839 1542.16 365.422 1537.53 Q370.029 1532.88 371.209 1531.53 Q373.455 1529.01 374.334 1527.27 Q375.237 1525.51 375.237 1523.82 Q375.237 1521.07 373.293 1519.33 Q371.371 1517.6 368.27 1517.6 Q366.07 1517.6 363.617 1518.36 Q361.186 1519.13 358.408 1520.68 L358.408 1515.95 Q361.233 1514.82 363.686 1514.24 Q366.14 1513.66 368.177 1513.66 Q373.547 1513.66 376.742 1516.35 Q379.936 1519.03 379.936 1523.52 Q379.936 1525.65 379.126 1527.57 Q378.339 1529.47 376.232 1532.07 Q375.654 1532.74 372.552 1535.95 Q369.45 1539.15 363.802 1544.91 Z" fill="#000000" fill-rule="nonzero" fill-opacity="1" /><path clip-path="url(#clip770)" d="M828.822 1532.02 L858.498 1532.02 L858.498 1535.95 L828.822 1535.95 L828.822 1532.02 Z" fill="#000000" fill-rule="nonzero" fill-opacity="1" /><path clip-path="url(#clip770)" d="M869.4 1544.91 L877.039 1544.91 L877.039 1518.55 L868.729 1520.21 L868.729 1515.95 L876.993 1514.29 L881.669 1514.29 L881.669 1544.91 L889.308 1544.91 L889.308 1548.85 L869.4 1548.85 L869.4 1544.91 Z" fill="#000000" fill-rule="nonzero" fill-opacity="1" /><path clip-path="url(#clip770)" d="M1368.07 1517.37 Q1364.45 1517.37 1362.63 1520.93 Q1360.82 1524.47 1360.82 1531.6 Q1360.82 1538.71 1362.63 1542.27 Q1364.45 1545.82 1368.07 1545.82 Q1371.7 1545.82 1373.51 1542.27 Q1375.33 1538.71 1375.33 1531.6 Q1375.33 1524.47 1373.51 1520.93 Q1371.7 1517.37 1368.07 1517.37 M1368.07 1513.66 Q1373.88 1513.66 1376.93 1518.27 Q1380.01 1522.85 1380.01 1531.6 Q1380.01 1540.33 1376.93 1544.94 Q1373.88 1549.52 1368.07 1549.52 Q1362.26 1549.52 1359.18 1544.94 Q1356.12 1540.33 1356.12 1531.6 Q1356.12 1522.85 1359.18 1518.27 Q1362.26 1513.66 1368.07 1513.66 Z" fill="#000000" fill-rule="nonzero" fill-opacity="1" /><path clip-path="url(#clip770)" d="M1867.45 1544.91 L1875.09 1544.91 L1875.09 1518.55 L1866.78 1520.21 L1866.78 1515.95 L1875.04 1514.29 L1879.72 1514.29 L1879.72 1544.91 L1887.36 1544.91 L1887.36 1548.85 L1867.45 1548.85 L1867.45 1544.91 Z" fill="#000000" fill-rule="nonzero" fill-opacity="1" /><polyline clip-path="url(#clip770)" style="stroke:#000000; stroke-linecap:round; stroke-linejoin:round; stroke-width:4; stroke-opacity:1; fill:none" points="147.478,1486.45 147.478,47.2441 "/>
<polyline clip-path="url(#clip770)" style="stroke:#000000; stroke-linecap:round; stroke-linejoin:round; stroke-width:4; stroke-opacity:1; fill:none" points="147.478,1260.83 166.376,1260.83 "/>
<polyline clip-path="url(#clip770)" style="stroke:#000000; stroke-linecap:round; stroke-linejoin:round; stroke-width:4; stroke-opacity:1; fill:none" points="147.478,899.987 166.376,899.987 "/>
<polyline clip-path="url(#clip770)" style="stroke:#000000; stroke-linecap:round; stroke-linejoin:round; stroke-width:4; stroke-opacity:1; fill:none" points="147.478,539.148 166.376,539.148 "/>
<polyline clip-path="url(#clip770)" style="stroke:#000000; stroke-linecap:round; stroke-linejoin:round; stroke-width:4; stroke-opacity:1; fill:none" points="147.478,178.309 166.376,178.309 "/>
<path clip-path="url(#clip770)" d="M50.9921 1261.28 L80.6679 1261.28 L80.6679 1265.21 L50.9921 1265.21 L50.9921 1261.28 Z" fill="#000000" fill-rule="nonzero" fill-opacity="1" /><path clip-path="url(#clip770)" d="M91.5706 1274.17 L99.2095 1274.17 L99.2095 1247.81 L90.8993 1249.47 L90.8993 1245.21 L99.1632 1243.55 L103.839 1243.55 L103.839 1274.17 L111.478 1274.17 L111.478 1278.11 L91.5706 1278.11 L91.5706 1274.17 Z" fill="#000000" fill-rule="nonzero" fill-opacity="1" /><path clip-path="url(#clip770)" d="M99.5335 885.786 Q95.9224 885.786 94.0937 889.351 Q92.2882 892.893 92.2882 900.022 Q92.2882 907.129 94.0937 910.693 Q95.9224 914.235 99.5335 914.235 Q103.168 914.235 104.973 910.693 Q106.802 907.129 106.802 900.022 Q106.802 892.893 104.973 889.351 Q103.168 885.786 99.5335 885.786 M99.5335 882.082 Q105.344 882.082 108.399 886.689 Q111.478 891.272 111.478 900.022 Q111.478 908.749 108.399 913.355 Q105.344 917.939 99.5335 917.939 Q93.7234 917.939 90.6447 913.355 Q87.5892 908.749 87.5892 900.022 Q87.5892 891.272 90.6447 886.689 Q93.7234 882.082 99.5335 882.082 Z" fill="#000000" fill-rule="nonzero" fill-opacity="1" /><path clip-path="url(#clip770)" d="M91.5706 552.493 L99.2095 552.493 L99.2095 526.127 L90.8993 527.794 L90.8993 523.535 L99.1632 521.868 L103.839 521.868 L103.839 552.493 L111.478 552.493 L111.478 556.428 L91.5706 556.428 L91.5706 552.493 Z" fill="#000000" fill-rule="nonzero" fill-opacity="1" /><path clip-path="url(#clip770)" d="M95.1586 191.654 L111.478 191.654 L111.478 195.589 L89.5336 195.589 L89.5336 191.654 Q92.1956 188.899 96.7789 184.269 Q101.385 179.617 102.566 178.274 Q104.811 175.751 105.691 174.015 Q106.594 172.256 106.594 170.566 Q106.594 167.811 104.649 166.075 Q102.728 164.339 99.6261 164.339 Q97.4271 164.339 94.9734 165.103 Q92.5428 165.867 89.7651 167.418 L89.7651 162.695 Q92.5891 161.561 95.0428 160.983 Q97.4965 160.404 99.5335 160.404 Q104.904 160.404 108.098 163.089 Q111.293 165.774 111.293 170.265 Q111.293 172.395 110.483 174.316 Q109.696 176.214 107.589 178.807 Q107.01 179.478 103.909 182.695 Q100.807 185.89 95.1586 191.654 Z" fill="#000000" fill-rule="nonzero" fill-opacity="1" /><circle clip-path="url(#clip771)" cx="1035.09" cy="1282.3" r="14.4" fill="#009af9" fill-rule="evenodd" fill-opacity="0.5" stroke="#000000" stroke-opacity="0.5" stroke-width="3.2"/>
<circle clip-path="url(#clip771)" cx="887.388" cy="891.368" r="14.4" fill="#009af9" fill-rule="evenodd" fill-opacity="0.5" stroke="#000000" stroke-opacity="0.5" stroke-width="3.2"/>
<circle clip-path="url(#clip771)" cx="1600.39" cy="853.149" r="14.4" fill="#009af9" fill-rule="evenodd" fill-opacity="0.5" stroke="#000000" stroke-opacity="0.5" stroke-width="3.2"/>
<circle clip-path="url(#clip771)" cx="943.307" cy="789.092" r="14.4" fill="#009af9" fill-rule="evenodd" fill-opacity="0.5" stroke="#000000" stroke-opacity="0.5" stroke-width="3.2"/>
<circle clip-path="url(#clip771)" cx="2290.34" cy="331.413" r="14.4" fill="#009af9" fill-rule="evenodd" fill-opacity="0.5" stroke="#000000" stroke-opacity="0.5" stroke-width="3.2"/>
<circle clip-path="url(#clip771)" cx="209.891" cy="588.957" r="14.4" fill="#009af9" fill-rule="evenodd" fill-opacity="0.5" stroke="#000000" stroke-opacity="0.5" stroke-width="3.2"/>
<circle clip-path="url(#clip771)" cx="907.457" cy="1286.42" r="14.4" fill="#009af9" fill-rule="evenodd" fill-opacity="0.5" stroke="#000000" stroke-opacity="0.5" stroke-width="3.2"/>
<circle clip-path="url(#clip771)" cx="1439.19" cy="730.932" r="14.4" fill="#009af9" fill-rule="evenodd" fill-opacity="0.5" stroke="#000000" stroke-opacity="0.5" stroke-width="3.2"/>
<circle clip-path="url(#clip771)" cx="1552.41" cy="987.491" r="14.4" fill="#009af9" fill-rule="evenodd" fill-opacity="0.5" stroke="#000000" stroke-opacity="0.5" stroke-width="3.2"/>
<circle clip-path="url(#clip771)" cx="1380.67" cy="1129.11" r="14.4" fill="#009af9" fill-rule="evenodd" fill-opacity="0.5" stroke="#000000" stroke-opacity="0.5" stroke-width="3.2"/>
<circle clip-path="url(#clip771)" cx="612.24" cy="607.614" r="14.4" fill="#009af9" fill-rule="evenodd" fill-opacity="0.5" stroke="#000000" stroke-opacity="0.5" stroke-width="3.2"/>
<circle clip-path="url(#clip771)" cx="1345.71" cy="579.302" r="14.4" fill="#009af9" fill-rule="evenodd" fill-opacity="0.5" stroke="#000000" stroke-opacity="0.5" stroke-width="3.2"/>
<circle clip-path="url(#clip771)" cx="1922.63" cy="816.351" r="14.4" fill="#009af9" fill-rule="evenodd" fill-opacity="0.5" stroke="#000000" stroke-opacity="0.5" stroke-width="3.2"/>
<circle clip-path="url(#clip771)" cx="1482.56" cy="597.121" r="14.4" fill="#009af9" fill-rule="evenodd" fill-opacity="0.5" stroke="#000000" stroke-opacity="0.5" stroke-width="3.2"/>
<circle clip-path="url(#clip771)" cx="1583.96" cy="1024.78" r="14.4" fill="#009af9" fill-rule="evenodd" fill-opacity="0.5" stroke="#000000" stroke-opacity="0.5" stroke-width="3.2"/>
<circle clip-path="url(#clip771)" cx="1090.85" cy="911.711" r="14.4" fill="#009af9" fill-rule="evenodd" fill-opacity="0.5" stroke="#000000" stroke-opacity="0.5" stroke-width="3.2"/>
<circle clip-path="url(#clip771)" cx="1362.04" cy="786.841" r="14.4" fill="#009af9" fill-rule="evenodd" fill-opacity="0.5" stroke="#000000" stroke-opacity="0.5" stroke-width="3.2"/>
<circle clip-path="url(#clip771)" cx="1318.33" cy="1077.42" r="14.4" fill="#009af9" fill-rule="evenodd" fill-opacity="0.5" stroke="#000000" stroke-opacity="0.5" stroke-width="3.2"/>
<circle clip-path="url(#clip771)" cx="1939.16" cy="430.727" r="14.4" fill="#009af9" fill-rule="evenodd" fill-opacity="0.5" stroke="#000000" stroke-opacity="0.5" stroke-width="3.2"/>
<circle clip-path="url(#clip771)" cx="895.589" cy="572.043" r="14.4" fill="#009af9" fill-rule="evenodd" fill-opacity="0.5" stroke="#000000" stroke-opacity="0.5" stroke-width="3.2"/>
<circle clip-path="url(#clip771)" cx="989.252" cy="871.518" r="14.4" fill="#009af9" fill-rule="evenodd" fill-opacity="0.5" stroke="#000000" stroke-opacity="0.5" stroke-width="3.2"/>
<circle clip-path="url(#clip771)" cx="1224.54" cy="880.134" r="14.4" fill="#009af9" fill-rule="evenodd" fill-opacity="0.5" stroke="#000000" stroke-opacity="0.5" stroke-width="3.2"/>
<circle clip-path="url(#clip771)" cx="803.674" cy="1213.75" r="14.4" fill="#009af9" fill-rule="evenodd" fill-opacity="0.5" stroke="#000000" stroke-opacity="0.5" stroke-width="3.2"/>
<circle clip-path="url(#clip771)" cx="1644.08" cy="1097.05" r="14.4" fill="#009af9" fill-rule="evenodd" fill-opacity="0.5" stroke="#000000" stroke-opacity="0.5" stroke-width="3.2"/>
<circle clip-path="url(#clip771)" cx="1847.59" cy="852.408" r="14.4" fill="#009af9" fill-rule="evenodd" fill-opacity="0.5" stroke="#000000" stroke-opacity="0.5" stroke-width="3.2"/>
<circle clip-path="url(#clip771)" cx="1307.42" cy="691.725" r="14.4" fill="#009af9" fill-rule="evenodd" fill-opacity="0.5" stroke="#000000" stroke-opacity="0.5" stroke-width="3.2"/>
<circle clip-path="url(#clip771)" cx="1261.32" cy="387.548" r="14.4" fill="#009af9" fill-rule="evenodd" fill-opacity="0.5" stroke="#000000" stroke-opacity="0.5" stroke-width="3.2"/>
<circle clip-path="url(#clip771)" cx="1295.1" cy="1445.72" r="14.4" fill="#009af9" fill-rule="evenodd" fill-opacity="0.5" stroke="#000000" stroke-opacity="0.5" stroke-width="3.2"/>
<circle clip-path="url(#clip771)" cx="1232.42" cy="576.702" r="14.4" fill="#009af9" fill-rule="evenodd" fill-opacity="0.5" stroke="#000000" stroke-opacity="0.5" stroke-width="3.2"/>
<circle clip-path="url(#clip771)" cx="331.881" cy="87.9763" r="14.4" fill="#009af9" fill-rule="evenodd" fill-opacity="0.5" stroke="#000000" stroke-opacity="0.5" stroke-width="3.2"/>
<path clip-path="url(#clip771)" d="M209.891 588.957 L803.674 1213.75 L907.457 1286.42 L1295.1 1445.72 L1644.08 1097.05 L1922.63 816.351 L2290.34 331.413 L331.881 87.9763 L209.891 588.957 L209.891 588.957  Z" fill="#e26f46" fill-rule="evenodd" fill-opacity="0.2"/>
<polyline clip-path="url(#clip771)" style="stroke:#000000; stroke-linecap:round; stroke-linejoin:round; stroke-width:4; stroke-opacity:0.2; fill:none" points="209.891,588.957 803.674,1213.75 907.457,1286.42 1295.1,1445.72 1644.08,1097.05 1922.63,816.351 2290.34,331.413 331.881,87.9763 209.891,588.957 "/>
</svg>
