<?xml version="1.0" encoding="utf-8"?>
<svg xmlns="http://www.w3.org/2000/svg" xmlns:xlink="http://www.w3.org/1999/xlink" width="600" height="400" viewBox="0 0 2400 1600">
<defs>
  <clipPath id="clip450">
    <rect x="0" y="0" width="2400" height="1600"/>
  </clipPath>
</defs>
<path clip-path="url(#clip450)" d="M0 1600 L2400 1600 L2400 0 L0 0  Z" fill="#ffffff" fill-rule="evenodd" fill-opacity="1"/>
<defs>
  <clipPath id="clip451">
    <rect x="480" y="0" width="1681" height="1600"/>
  </clipPath>
</defs>
<path clip-path="url(#clip450)" d="M147.478 1486.45 L2352.76 1486.45 L2352.76 47.2441 L147.478 47.2441  Z" fill="#ffffff" fill-rule="evenodd" fill-opacity="1"/>
<defs>
  <clipPath id="clip452">
    <rect x="147" y="47" width="2206" height="1440"/>
  </clipPath>
</defs>
<polyline clip-path="url(#clip452)" style="stroke:#000000; stroke-linecap:round; stroke-linejoin:round; stroke-width:2; stroke-opacity:0.1; fill:none" points="219.793,1486.45 219.793,47.2441 "/>
<polyline clip-path="url(#clip452)" style="stroke:#000000; stroke-linecap:round; stroke-linejoin:round; stroke-width:2; stroke-opacity:0.1; fill:none" points="739.524,1486.45 739.524,47.2441 "/>
<polyline clip-path="url(#clip452)" style="stroke:#000000; stroke-linecap:round; stroke-linejoin:round; stroke-width:2; stroke-opacity:0.1; fill:none" points="1259.26,1486.45 1259.26,47.2441 "/>
<polyline clip-path="url(#clip452)" style="stroke:#000000; stroke-linecap:round; stroke-linejoin:round; stroke-width:2; stroke-opacity:0.1; fill:none" points="1778.99,1486.45 1778.99,47.2441 "/>
<polyline clip-path="url(#clip452)" style="stroke:#000000; stroke-linecap:round; stroke-linejoin:round; stroke-width:2; stroke-opacity:0.1; fill:none" points="2298.72,1486.45 2298.72,47.2441 "/>
<polyline clip-path="url(#clip452)" style="stroke:#000000; stroke-linecap:round; stroke-linejoin:round; stroke-width:2; stroke-opacity:0.1; fill:none" points="147.478,1292.63 2352.76,1292.63 "/>
<polyline clip-path="url(#clip452)" style="stroke:#000000; stroke-linecap:round; stroke-linejoin:round; stroke-width:2; stroke-opacity:0.1; fill:none" points="147.478,961.44 2352.76,961.44 "/>
<polyline clip-path="url(#clip452)" style="stroke:#000000; stroke-linecap:round; stroke-linejoin:round; stroke-width:2; stroke-opacity:0.1; fill:none" points="147.478,630.252 2352.76,630.252 "/>
<polyline clip-path="url(#clip452)" style="stroke:#000000; stroke-linecap:round; stroke-linejoin:round; stroke-width:2; stroke-opacity:0.1; fill:none" points="147.478,299.063 2352.76,299.063 "/>
<polyline clip-path="url(#clip450)" style="stroke:#000000; stroke-linecap:round; stroke-linejoin:round; stroke-width:4; stroke-opacity:1; fill:none" points="147.478,1486.45 2352.76,1486.45 "/>
<polyline clip-path="url(#clip450)" style="stroke:#000000; stroke-linecap:round; stroke-linejoin:round; stroke-width:4; stroke-opacity:1; fill:none" points="219.793,1486.45 219.793,1467.55 "/>
<polyline clip-path="url(#clip450)" style="stroke:#000000; stroke-linecap:round; stroke-linejoin:round; stroke-width:4; stroke-opacity:1; fill:none" points="739.524,1486.45 739.524,1467.55 "/>
<polyline clip-path="url(#clip450)" style="stroke:#000000; stroke-linecap:round; stroke-linejoin:round; stroke-width:4; stroke-opacity:1; fill:none" points="1259.26,1486.45 1259.26,1467.55 "/>
<polyline clip-path="url(#clip450)" style="stroke:#000000; stroke-linecap:round; stroke-linejoin:round; stroke-width:4; stroke-opacity:1; fill:none" points="1778.99,1486.45 1778.99,1467.55 "/>
<polyline clip-path="url(#clip450)" style="stroke:#000000; stroke-linecap:round; stroke-linejoin:round; stroke-width:4; stroke-opacity:1; fill:none" points="2298.72,1486.45 2298.72,1467.55 "/>
<path clip-path="url(#clip450)" d="M189.735 1532.02 L219.411 1532.02 L219.411 1535.95 L189.735 1535.95 L189.735 1532.02 Z" fill="#000000" fill-rule="nonzero" fill-opacity="1" /><path clip-path="url(#clip450)" d="M233.531 1544.91 L249.85 1544.91 L249.85 1548.85 L227.906 1548.85 L227.906 1544.91 Q230.568 1542.16 235.151 1537.53 Q239.758 1532.88 240.938 1531.53 Q243.184 1529.01 244.063 1527.27 Q244.966 1525.51 244.966 1523.82 Q244.966 1521.07 243.022 1519.33 Q241.101 1517.6 237.999 1517.6 Q235.8 1517.6 233.346 1518.36 Q230.915 1519.13 228.138 1520.68 L228.138 1515.95 Q230.962 1514.82 233.415 1514.24 Q235.869 1513.66 237.906 1513.66 Q243.276 1513.66 246.471 1516.35 Q249.665 1519.03 249.665 1523.52 Q249.665 1525.65 248.855 1527.57 Q248.068 1529.47 245.962 1532.07 Q245.383 1532.74 242.281 1535.95 Q239.179 1539.15 233.531 1544.91 Z" fill="#000000" fill-rule="nonzero" fill-opacity="1" /><path clip-path="url(#clip450)" d="M709.281 1532.02 L738.957 1532.02 L738.957 1535.95 L709.281 1535.95 L709.281 1532.02 Z" fill="#000000" fill-rule="nonzero" fill-opacity="1" /><path clip-path="url(#clip450)" d="M749.86 1544.91 L757.499 1544.91 L757.499 1518.55 L749.189 1520.21 L749.189 1515.95 L757.452 1514.29 L762.128 1514.29 L762.128 1544.91 L769.767 1544.91 L769.767 1548.85 L749.86 1548.85 L749.86 1544.91 Z" fill="#000000" fill-rule="nonzero" fill-opacity="1" /><path clip-path="url(#clip450)" d="M1259.26 1517.37 Q1255.64 1517.37 1253.82 1520.93 Q1252.01 1524.47 1252.01 1531.6 Q1252.01 1538.71 1253.82 1542.27 Q1255.64 1545.82 1259.26 1545.82 Q1262.89 1545.82 1264.7 1542.27 Q1266.52 1538.71 1266.52 1531.6 Q1266.52 1524.47 1264.7 1520.93 Q1262.89 1517.37 1259.26 1517.37 M1259.26 1513.66 Q1265.07 1513.66 1268.12 1518.27 Q1271.2 1522.85 1271.2 1531.6 Q1271.2 1540.33 1268.12 1544.94 Q1265.07 1549.52 1259.26 1549.52 Q1253.45 1549.52 1250.37 1544.94 Q1247.31 1540.33 1247.31 1531.6 Q1247.31 1522.85 1250.37 1518.27 Q1253.45 1513.66 1259.26 1513.66 Z" fill="#000000" fill-rule="nonzero" fill-opacity="1" /><path clip-path="url(#clip450)" d="M1769.37 1544.91 L1777.01 1544.91 L1777.01 1518.55 L1768.7 1520.21 L1768.7 1515.95 L1776.96 1514.29 L1781.64 1514.29 L1781.64 1544.91 L1789.28 1544.91 L1789.28 1548.85 L1769.37 1548.85 L1769.37 1544.91 Z" fill="#000000" fill-rule="nonzero" fill-opacity="1" /><path clip-path="url(#clip450)" d="M2293.37 1544.91 L2309.69 1544.91 L2309.69 1548.85 L2287.75 1548.85 L2287.75 1544.91 Q2290.41 1542.16 2294.99 1537.53 Q2299.6 1532.88 2300.78 1531.53 Q2303.02 1529.01 2303.9 1527.27 Q2304.81 1525.51 2304.81 1523.82 Q2304.81 1521.07 2302.86 1519.33 Q2300.94 1517.6 2297.84 1517.6 Q2295.64 1517.6 2293.19 1518.36 Q2290.76 1519.13 2287.98 1520.68 L2287.98 1515.95 Q2290.8 1514.82 2293.26 1514.24 Q2295.71 1513.66 2297.75 1513.66 Q2303.12 1513.66 2306.31 1516.35 Q2309.51 1519.03 2309.51 1523.52 Q2309.51 1525.65 2308.7 1527.57 Q2307.91 1529.47 2305.8 1532.07 Q2305.22 1532.74 2302.12 1535.95 Q2299.02 1539.15 2293.37 1544.91 Z" fill="#000000" fill-rule="nonzero" fill-opacity="1" /><polyline clip-path="url(#clip450)" style="stroke:#000000; stroke-linecap:round; stroke-linejoin:round; stroke-width:4; stroke-opacity:1; fill:none" points="147.478,1486.45 147.478,47.2441 "/>
<polyline clip-path="url(#clip450)" style="stroke:#000000; stroke-linecap:round; stroke-linejoin:round; stroke-width:4; stroke-opacity:1; fill:none" points="147.478,1292.63 166.376,1292.63 "/>
<polyline clip-path="url(#clip450)" style="stroke:#000000; stroke-linecap:round; stroke-linejoin:round; stroke-width:4; stroke-opacity:1; fill:none" points="147.478,961.44 166.376,961.44 "/>
<polyline clip-path="url(#clip450)" style="stroke:#000000; stroke-linecap:round; stroke-linejoin:round; stroke-width:4; stroke-opacity:1; fill:none" points="147.478,630.252 166.376,630.252 "/>
<polyline clip-path="url(#clip450)" style="stroke:#000000; stroke-linecap:round; stroke-linejoin:round; stroke-width:4; stroke-opacity:1; fill:none" points="147.478,299.063 166.376,299.063 "/>
<path clip-path="url(#clip450)" d="M51.3625 1293.08 L81.0383 1293.08 L81.0383 1297.01 L51.3625 1297.01 L51.3625 1293.08 Z" fill="#000000" fill-rule="nonzero" fill-opacity="1" /><path clip-path="url(#clip450)" d="M95.1586 1305.97 L111.478 1305.97 L111.478 1309.91 L89.5336 1309.91 L89.5336 1305.97 Q92.1956 1303.22 96.7789 1298.59 Q101.385 1293.94 102.566 1292.59 Q104.811 1290.07 105.691 1288.33 Q106.594 1286.57 106.594 1284.89 Q106.594 1282.13 104.649 1280.39 Q102.728 1278.66 99.6261 1278.66 Q97.4271 1278.66 94.9734 1279.42 Q92.5428 1280.19 89.7651 1281.74 L89.7651 1277.01 Q92.5891 1275.88 95.0428 1275.3 Q97.4965 1274.72 99.5335 1274.72 Q104.904 1274.72 108.098 1277.41 Q111.293 1280.09 111.293 1284.58 Q111.293 1286.71 110.483 1288.64 Q109.696 1290.53 107.589 1293.13 Q107.01 1293.8 103.909 1297.01 Q100.807 1300.21 95.1586 1305.97 Z" fill="#000000" fill-rule="nonzero" fill-opacity="1" /><path clip-path="url(#clip450)" d="M50.9921 961.891 L80.6679 961.891 L80.6679 965.826 L50.9921 965.826 L50.9921 961.891 Z" fill="#000000" fill-rule="nonzero" fill-opacity="1" /><path clip-path="url(#clip450)" d="M91.5706 974.785 L99.2095 974.785 L99.2095 948.419 L90.8993 950.086 L90.8993 945.827 L99.1632 944.16 L103.839 944.16 L103.839 974.785 L111.478 974.785 L111.478 978.72 L91.5706 978.72 L91.5706 974.785 Z" fill="#000000" fill-rule="nonzero" fill-opacity="1" /><path clip-path="url(#clip450)" d="M99.5335 616.05 Q95.9224 616.05 94.0937 619.615 Q92.2882 623.157 92.2882 630.286 Q92.2882 637.393 94.0937 640.958 Q95.9224 644.499 99.5335 644.499 Q103.168 644.499 104.973 640.958 Q106.802 637.393 106.802 630.286 Q106.802 623.157 104.973 619.615 Q103.168 616.05 99.5335 616.05 M99.5335 612.347 Q105.344 612.347 108.399 616.953 Q111.478 621.536 111.478 630.286 Q111.478 639.013 108.399 643.62 Q105.344 648.203 99.5335 648.203 Q93.7234 648.203 90.6447 643.62 Q87.5892 639.013 87.5892 630.286 Q87.5892 621.536 90.6447 616.953 Q93.7234 612.347 99.5335 612.347 Z" fill="#000000" fill-rule="nonzero" fill-opacity="1" /><path clip-path="url(#clip450)" d="M91.5706 312.408 L99.2095 312.408 L99.2095 286.043 L90.8993 287.709 L90.8993 283.45 L99.1632 281.783 L103.839 281.783 L103.839 312.408 L111.478 312.408 L111.478 316.343 L91.5706 316.343 L91.5706 312.408 Z" fill="#000000" fill-rule="nonzero" fill-opacity="1" /><circle clip-path="url(#clip452)" cx="883.52" cy="819.957" r="14.4" fill="#009af9" fill-rule="evenodd" fill-opacity="0.5" stroke="#000000" stroke-opacity="0.5" stroke-width="3.2"/>
<circle clip-path="url(#clip452)" cx="1038.96" cy="728.053" r="14.4" fill="#009af9" fill-rule="evenodd" fill-opacity="0.5" stroke="#000000" stroke-opacity="0.5" stroke-width="3.2"/>
<circle clip-path="url(#clip452)" cx="1552.46" cy="880.425" r="14.4" fill="#009af9" fill-rule="evenodd" fill-opacity="0.5" stroke="#000000" stroke-opacity="0.5" stroke-width="3.2"/>
<circle clip-path="url(#clip452)" cx="1588.26" cy="748.799" r="14.4" fill="#009af9" fill-rule="evenodd" fill-opacity="0.5" stroke="#000000" stroke-opacity="0.5" stroke-width="3.2"/>
<circle clip-path="url(#clip452)" cx="1109.26" cy="846.488" r="14.4" fill="#009af9" fill-rule="evenodd" fill-opacity="0.5" stroke="#000000" stroke-opacity="0.5" stroke-width="3.2"/>
<circle clip-path="url(#clip452)" cx="1688.2" cy="655.047" r="14.4" fill="#009af9" fill-rule="evenodd" fill-opacity="0.5" stroke="#000000" stroke-opacity="0.5" stroke-width="3.2"/>
<circle clip-path="url(#clip452)" cx="1163.13" cy="510.626" r="14.4" fill="#009af9" fill-rule="evenodd" fill-opacity="0.5" stroke="#000000" stroke-opacity="0.5" stroke-width="3.2"/>
<circle clip-path="url(#clip452)" cx="1612.95" cy="281.686" r="14.4" fill="#009af9" fill-rule="evenodd" fill-opacity="0.5" stroke="#000000" stroke-opacity="0.5" stroke-width="3.2"/>
<circle clip-path="url(#clip452)" cx="1300.34" cy="1002.37" r="14.4" fill="#009af9" fill-rule="evenodd" fill-opacity="0.5" stroke="#000000" stroke-opacity="0.5" stroke-width="3.2"/>
<circle clip-path="url(#clip452)" cx="1974.63" cy="574.474" r="14.4" fill="#009af9" fill-rule="evenodd" fill-opacity="0.5" stroke="#000000" stroke-opacity="0.5" stroke-width="3.2"/>
<circle clip-path="url(#clip452)" cx="1678.64" cy="858.952" r="14.4" fill="#009af9" fill-rule="evenodd" fill-opacity="0.5" stroke="#000000" stroke-opacity="0.5" stroke-width="3.2"/>
<circle clip-path="url(#clip452)" cx="761.872" cy="87.9763" r="14.4" fill="#009af9" fill-rule="evenodd" fill-opacity="0.5" stroke="#000000" stroke-opacity="0.5" stroke-width="3.2"/>
<circle clip-path="url(#clip452)" cx="1049.76" cy="408.223" r="14.4" fill="#009af9" fill-rule="evenodd" fill-opacity="0.5" stroke="#000000" stroke-opacity="0.5" stroke-width="3.2"/>
<circle clip-path="url(#clip452)" cx="1272.66" cy="539.642" r="14.4" fill="#009af9" fill-rule="evenodd" fill-opacity="0.5" stroke="#000000" stroke-opacity="0.5" stroke-width="3.2"/>
<circle clip-path="url(#clip452)" cx="1007.88" cy="1037.74" r="14.4" fill="#009af9" fill-rule="evenodd" fill-opacity="0.5" stroke="#000000" stroke-opacity="0.5" stroke-width="3.2"/>
<circle clip-path="url(#clip452)" cx="209.891" cy="976.014" r="14.4" fill="#009af9" fill-rule="evenodd" fill-opacity="0.5" stroke="#000000" stroke-opacity="0.5" stroke-width="3.2"/>
<circle clip-path="url(#clip452)" cx="1253.3" cy="935.144" r="14.4" fill="#009af9" fill-rule="evenodd" fill-opacity="0.5" stroke="#000000" stroke-opacity="0.5" stroke-width="3.2"/>
<circle clip-path="url(#clip452)" cx="1680.13" cy="399.951" r="14.4" fill="#009af9" fill-rule="evenodd" fill-opacity="0.5" stroke="#000000" stroke-opacity="0.5" stroke-width="3.2"/>
<circle clip-path="url(#clip452)" cx="585.308" cy="567.051" r="14.4" fill="#009af9" fill-rule="evenodd" fill-opacity="0.5" stroke="#000000" stroke-opacity="0.5" stroke-width="3.2"/>
<circle clip-path="url(#clip452)" cx="1810.73" cy="872.081" r="14.4" fill="#009af9" fill-rule="evenodd" fill-opacity="0.5" stroke="#000000" stroke-opacity="0.5" stroke-width="3.2"/>
<circle clip-path="url(#clip452)" cx="1330.03" cy="1027.88" r="14.4" fill="#009af9" fill-rule="evenodd" fill-opacity="0.5" stroke="#000000" stroke-opacity="0.5" stroke-width="3.2"/>
<circle clip-path="url(#clip452)" cx="2290.34" cy="704.179" r="14.4" fill="#009af9" fill-rule="evenodd" fill-opacity="0.5" stroke="#000000" stroke-opacity="0.5" stroke-width="3.2"/>
<circle clip-path="url(#clip452)" cx="1709.08" cy="1445.72" r="14.4" fill="#009af9" fill-rule="evenodd" fill-opacity="0.5" stroke="#000000" stroke-opacity="0.5" stroke-width="3.2"/>
<circle clip-path="url(#clip452)" cx="1852.08" cy="545.819" r="14.4" fill="#009af9" fill-rule="evenodd" fill-opacity="0.5" stroke="#000000" stroke-opacity="0.5" stroke-width="3.2"/>
<circle clip-path="url(#clip452)" cx="1548.08" cy="515.001" r="14.4" fill="#009af9" fill-rule="evenodd" fill-opacity="0.5" stroke="#000000" stroke-opacity="0.5" stroke-width="3.2"/>
<circle clip-path="url(#clip452)" cx="1290.36" cy="1159.9" r="14.4" fill="#009af9" fill-rule="evenodd" fill-opacity="0.5" stroke="#000000" stroke-opacity="0.5" stroke-width="3.2"/>
<circle clip-path="url(#clip452)" cx="1599.6" cy="710.245" r="14.4" fill="#009af9" fill-rule="evenodd" fill-opacity="0.5" stroke="#000000" stroke-opacity="0.5" stroke-width="3.2"/>
<circle clip-path="url(#clip452)" cx="1241.47" cy="234.633" r="14.4" fill="#009af9" fill-rule="evenodd" fill-opacity="0.5" stroke="#000000" stroke-opacity="0.5" stroke-width="3.2"/>
<circle clip-path="url(#clip452)" cx="951.918" cy="301.91" r="14.4" fill="#009af9" fill-rule="evenodd" fill-opacity="0.5" stroke="#000000" stroke-opacity="0.5" stroke-width="3.2"/>
<circle clip-path="url(#clip452)" cx="296.857" cy="807.289" r="14.4" fill="#009af9" fill-rule="evenodd" fill-opacity="0.5" stroke="#000000" stroke-opacity="0.5" stroke-width="3.2"/>
<path clip-path="url(#clip452)" d="M209.891 976.014 L1709.08 1445.72 L2290.34 704.179 L1612.95 281.686 L761.872 87.9763 L296.857 807.289 L209.891 976.014 L209.891 976.014  Z" fill="#e26f46" fill-rule="evenodd" fill-opacity="0.2"/>
<polyline clip-path="url(#clip452)" style="stroke:#000000; stroke-linecap:round; stroke-linejoin:round; stroke-width:4; stroke-opacity:0.2; fill:none" points="209.891,976.014 1709.08,1445.72 2290.34,704.179 1612.95,281.686 761.872,87.9763 296.857,807.289 209.891,976.014 "/>
</svg>
