<?xml version="1.0" encoding="utf-8"?>
<svg xmlns="http://www.w3.org/2000/svg" xmlns:xlink="http://www.w3.org/1999/xlink" width="600" height="400" viewBox="0 0 2400 1600">
<defs>
  <clipPath id="clip590">
    <rect x="0" y="0" width="2400" height="1600"/>
  </clipPath>
</defs>
<path clip-path="url(#clip590)" d="M0 1600 L2400 1600 L2400 0 L0 0  Z" fill="#ffffff" fill-rule="evenodd" fill-opacity="1"/>
<defs>
  <clipPath id="clip591">
    <rect x="480" y="0" width="1681" height="1600"/>
  </clipPath>
</defs>
<path clip-path="url(#clip590)" d="M147.478 1486.45 L2352.76 1486.45 L2352.76 47.2441 L147.478 47.2441  Z" fill="#ffffff" fill-rule="evenodd" fill-opacity="1"/>
<defs>
  <clipPath id="clip592">
    <rect x="147" y="47" width="2206" height="1440"/>
  </clipPath>
</defs>
<polyline clip-path="url(#clip592)" style="stroke:#000000; stroke-linecap:round; stroke-linejoin:round; stroke-width:2; stroke-opacity:0.1; fill:none" points="574.752,1486.45 574.752,47.2441 "/>
<polyline clip-path="url(#clip592)" style="stroke:#000000; stroke-linecap:round; stroke-linejoin:round; stroke-width:2; stroke-opacity:0.1; fill:none" points="1029.48,1486.45 1029.48,47.2441 "/>
<polyline clip-path="url(#clip592)" style="stroke:#000000; stroke-linecap:round; stroke-linejoin:round; stroke-width:2; stroke-opacity:0.1; fill:none" points="1484.21,1486.45 1484.21,47.2441 "/>
<polyline clip-path="url(#clip592)" style="stroke:#000000; stroke-linecap:round; stroke-linejoin:round; stroke-width:2; stroke-opacity:0.1; fill:none" points="1938.94,1486.45 1938.94,47.2441 "/>
<polyline clip-path="url(#clip592)" style="stroke:#000000; stroke-linecap:round; stroke-linejoin:round; stroke-width:2; stroke-opacity:0.1; fill:none" points="147.478,1200.07 2352.76,1200.07 "/>
<polyline clip-path="url(#clip592)" style="stroke:#000000; stroke-linecap:round; stroke-linejoin:round; stroke-width:2; stroke-opacity:0.1; fill:none" points="147.478,846.942 2352.76,846.942 "/>
<polyline clip-path="url(#clip592)" style="stroke:#000000; stroke-linecap:round; stroke-linejoin:round; stroke-width:2; stroke-opacity:0.1; fill:none" points="147.478,493.817 2352.76,493.817 "/>
<polyline clip-path="url(#clip592)" style="stroke:#000000; stroke-linecap:round; stroke-linejoin:round; stroke-width:2; stroke-opacity:0.1; fill:none" points="147.478,140.692 2352.76,140.692 "/>
<polyline clip-path="url(#clip590)" style="stroke:#000000; stroke-linecap:round; stroke-linejoin:round; stroke-width:4; stroke-opacity:1; fill:none" points="147.478,1486.45 2352.76,1486.45 "/>
<polyline clip-path="url(#clip590)" style="stroke:#000000; stroke-linecap:round; stroke-linejoin:round; stroke-width:4; stroke-opacity:1; fill:none" points="574.752,1486.45 574.752,1467.55 "/>
<polyline clip-path="url(#clip590)" style="stroke:#000000; stroke-linecap:round; stroke-linejoin:round; stroke-width:4; stroke-opacity:1; fill:none" points="1029.48,1486.45 1029.48,1467.55 "/>
<polyline clip-path="url(#clip590)" style="stroke:#000000; stroke-linecap:round; stroke-linejoin:round; stroke-width:4; stroke-opacity:1; fill:none" points="1484.21,1486.45 1484.21,1467.55 "/>
<polyline clip-path="url(#clip590)" style="stroke:#000000; stroke-linecap:round; stroke-linejoin:round; stroke-width:4; stroke-opacity:1; fill:none" points="1938.94,1486.45 1938.94,1467.55 "/>
<path clip-path="url(#clip590)" d="M544.694 1532.02 L574.37 1532.02 L574.37 1535.95 L544.694 1535.95 L544.694 1532.02 Z" fill="#000000" fill-rule="nonzero" fill-opacity="1" /><path clip-path="url(#clip590)" d="M588.49 1544.91 L604.809 1544.91 L604.809 1548.85 L582.865 1548.85 L582.865 1544.91 Q585.527 1542.16 590.11 1537.53 Q594.717 1532.88 595.897 1531.53 Q598.143 1529.01 599.022 1527.27 Q599.925 1525.51 599.925 1523.82 Q599.925 1521.07 597.981 1519.33 Q596.06 1517.6 592.958 1517.6 Q590.759 1517.6 588.305 1518.36 Q585.874 1519.13 583.097 1520.68 L583.097 1515.95 Q585.921 1514.82 588.374 1514.24 Q590.828 1513.66 592.865 1513.66 Q598.235 1513.66 601.43 1516.35 Q604.624 1519.03 604.624 1523.52 Q604.624 1525.65 603.814 1527.57 Q603.027 1529.47 600.921 1532.07 Q600.342 1532.74 597.24 1535.95 Q594.138 1539.15 588.49 1544.91 Z" fill="#000000" fill-rule="nonzero" fill-opacity="1" /><path clip-path="url(#clip590)" d="M999.24 1532.02 L1028.92 1532.02 L1028.92 1535.95 L999.24 1535.95 L999.24 1532.02 Z" fill="#000000" fill-rule="nonzero" fill-opacity="1" /><path clip-path="url(#clip590)" d="M1039.82 1544.91 L1047.46 1544.91 L1047.46 1518.55 L1039.15 1520.21 L1039.15 1515.95 L1047.41 1514.29 L1052.09 1514.29 L1052.09 1544.91 L1059.73 1544.91 L1059.73 1548.85 L1039.82 1548.85 L1039.82 1544.91 Z" fill="#000000" fill-rule="nonzero" fill-opacity="1" /><path clip-path="url(#clip590)" d="M1484.21 1517.37 Q1480.6 1517.37 1478.77 1520.93 Q1476.97 1524.47 1476.97 1531.6 Q1476.97 1538.71 1478.77 1542.27 Q1480.6 1545.82 1484.21 1545.82 Q1487.85 1545.82 1489.65 1542.27 Q1491.48 1538.71 1491.48 1531.6 Q1491.48 1524.47 1489.65 1520.93 Q1487.85 1517.37 1484.21 1517.37 M1484.21 1513.66 Q1490.02 1513.66 1493.08 1518.27 Q1496.16 1522.85 1496.16 1531.6 Q1496.16 1540.33 1493.08 1544.94 Q1490.02 1549.52 1484.21 1549.52 Q1478.4 1549.52 1475.32 1544.94 Q1472.27 1540.33 1472.27 1531.6 Q1472.27 1522.85 1475.32 1518.27 Q1478.4 1513.66 1484.21 1513.66 Z" fill="#000000" fill-rule="nonzero" fill-opacity="1" /><path clip-path="url(#clip590)" d="M1929.33 1544.91 L1936.97 1544.91 L1936.97 1518.55 L1928.66 1520.21 L1928.66 1515.95 L1936.92 1514.29 L1941.6 1514.29 L1941.6 1544.91 L1949.23 1544.91 L1949.23 1548.85 L1929.33 1548.85 L1929.33 1544.91 Z" fill="#000000" fill-rule="nonzero" fill-opacity="1" /><polyline clip-path="url(#clip590)" style="stroke:#000000; stroke-linecap:round; stroke-linejoin:round; stroke-width:4; stroke-opacity:1; fill:none" points="147.478,1486.45 147.478,47.2441 "/>
<polyline clip-path="url(#clip590)" style="stroke:#000000; stroke-linecap:round; stroke-linejoin:round; stroke-width:4; stroke-opacity:1; fill:none" points="147.478,1200.07 166.376,1200.07 "/>
<polyline clip-path="url(#clip590)" style="stroke:#000000; stroke-linecap:round; stroke-linejoin:round; stroke-width:4; stroke-opacity:1; fill:none" points="147.478,846.942 166.376,846.942 "/>
<polyline clip-path="url(#clip590)" style="stroke:#000000; stroke-linecap:round; stroke-linejoin:round; stroke-width:4; stroke-opacity:1; fill:none" points="147.478,493.817 166.376,493.817 "/>
<polyline clip-path="url(#clip590)" style="stroke:#000000; stroke-linecap:round; stroke-linejoin:round; stroke-width:4; stroke-opacity:1; fill:none" points="147.478,140.692 166.376,140.692 "/>
<path clip-path="url(#clip590)" d="M50.9921 1200.52 L80.6679 1200.52 L80.6679 1204.45 L50.9921 1204.45 L50.9921 1200.52 Z" fill="#000000" fill-rule="nonzero" fill-opacity="1" /><path clip-path="url(#clip590)" d="M91.5706 1213.41 L99.2095 1213.41 L99.2095 1187.05 L90.8993 1188.71 L90.8993 1184.45 L99.1632 1182.79 L103.839 1182.79 L103.839 1213.41 L111.478 1213.41 L111.478 1217.35 L91.5706 1217.35 L91.5706 1213.41 Z" fill="#000000" fill-rule="nonzero" fill-opacity="1" /><path clip-path="url(#clip590)" d="M99.5335 832.741 Q95.9224 832.741 94.0937 836.306 Q92.2882 839.847 92.2882 846.977 Q92.2882 854.083 94.0937 857.648 Q95.9224 861.19 99.5335 861.19 Q103.168 861.19 104.973 857.648 Q106.802 854.083 106.802 846.977 Q106.802 839.847 104.973 836.306 Q103.168 832.741 99.5335 832.741 M99.5335 829.037 Q105.344 829.037 108.399 833.644 Q111.478 838.227 111.478 846.977 Q111.478 855.704 108.399 860.31 Q105.344 864.893 99.5335 864.893 Q93.7234 864.893 90.6447 860.31 Q87.5892 855.704 87.5892 846.977 Q87.5892 838.227 90.6447 833.644 Q93.7234 829.037 99.5335 829.037 Z" fill="#000000" fill-rule="nonzero" fill-opacity="1" /><path clip-path="url(#clip590)" d="M91.5706 507.162 L99.2095 507.162 L99.2095 480.796 L90.8993 482.463 L90.8993 478.204 L99.1632 476.537 L103.839 476.537 L103.839 507.162 L111.478 507.162 L111.478 511.097 L91.5706 511.097 L91.5706 507.162 Z" fill="#000000" fill-rule="nonzero" fill-opacity="1" /><path clip-path="url(#clip590)" d="M95.1586 154.037 L111.478 154.037 L111.478 157.972 L89.5336 157.972 L89.5336 154.037 Q92.1956 151.282 96.7789 146.653 Q101.385 142 102.566 140.657 Q104.811 138.134 105.691 136.398 Q106.594 134.639 106.594 132.949 Q106.594 130.194 104.649 128.458 Q102.728 126.722 99.6261 126.722 Q97.4271 126.722 94.9734 127.486 Q92.5428 128.25 89.7651 129.801 L89.7651 125.079 Q92.5891 123.944 95.0428 123.366 Q97.4965 122.787 99.5335 122.787 Q104.904 122.787 108.098 125.472 Q111.293 128.157 111.293 132.648 Q111.293 134.778 110.483 136.699 Q109.696 138.597 107.589 141.19 Q107.01 141.861 103.909 145.079 Q100.807 148.273 95.1586 154.037 Z" fill="#000000" fill-rule="nonzero" fill-opacity="1" /><circle clip-path="url(#clip592)" cx="1871.66" cy="481.491" r="14.4" fill="#009af9" fill-rule="evenodd" fill-opacity="0.5" stroke="#000000" stroke-opacity="0.5" stroke-width="3.2"/>
<circle clip-path="url(#clip592)" cx="1328.94" cy="1445.72" r="14.4" fill="#009af9" fill-rule="evenodd" fill-opacity="0.5" stroke="#000000" stroke-opacity="0.5" stroke-width="3.2"/>
<circle clip-path="url(#clip592)" cx="1323.42" cy="1053.95" r="14.4" fill="#009af9" fill-rule="evenodd" fill-opacity="0.5" stroke="#000000" stroke-opacity="0.5" stroke-width="3.2"/>
<circle clip-path="url(#clip592)" cx="1036.89" cy="1351" r="14.4" fill="#009af9" fill-rule="evenodd" fill-opacity="0.5" stroke="#000000" stroke-opacity="0.5" stroke-width="3.2"/>
<circle clip-path="url(#clip592)" cx="1555.46" cy="472.787" r="14.4" fill="#009af9" fill-rule="evenodd" fill-opacity="0.5" stroke="#000000" stroke-opacity="0.5" stroke-width="3.2"/>
<circle clip-path="url(#clip592)" cx="1381.2" cy="1167.36" r="14.4" fill="#009af9" fill-rule="evenodd" fill-opacity="0.5" stroke="#000000" stroke-opacity="0.5" stroke-width="3.2"/>
<circle clip-path="url(#clip592)" cx="815.395" cy="1260.25" r="14.4" fill="#009af9" fill-rule="evenodd" fill-opacity="0.5" stroke="#000000" stroke-opacity="0.5" stroke-width="3.2"/>
<circle clip-path="url(#clip592)" cx="818.896" cy="720.377" r="14.4" fill="#009af9" fill-rule="evenodd" fill-opacity="0.5" stroke="#000000" stroke-opacity="0.5" stroke-width="3.2"/>
<circle clip-path="url(#clip592)" cx="1410.71" cy="1255.28" r="14.4" fill="#009af9" fill-rule="evenodd" fill-opacity="0.5" stroke="#000000" stroke-opacity="0.5" stroke-width="3.2"/>
<circle clip-path="url(#clip592)" cx="1721" cy="1279.98" r="14.4" fill="#009af9" fill-rule="evenodd" fill-opacity="0.5" stroke="#000000" stroke-opacity="0.5" stroke-width="3.2"/>
<circle clip-path="url(#clip592)" cx="2290.34" cy="913.095" r="14.4" fill="#009af9" fill-rule="evenodd" fill-opacity="0.5" stroke="#000000" stroke-opacity="0.5" stroke-width="3.2"/>
<circle clip-path="url(#clip592)" cx="700.35" cy="710.248" r="14.4" fill="#009af9" fill-rule="evenodd" fill-opacity="0.5" stroke="#000000" stroke-opacity="0.5" stroke-width="3.2"/>
<circle clip-path="url(#clip592)" cx="1616.16" cy="1053.91" r="14.4" fill="#009af9" fill-rule="evenodd" fill-opacity="0.5" stroke="#000000" stroke-opacity="0.5" stroke-width="3.2"/>
<circle clip-path="url(#clip592)" cx="1498.97" cy="1010.69" r="14.4" fill="#009af9" fill-rule="evenodd" fill-opacity="0.5" stroke="#000000" stroke-opacity="0.5" stroke-width="3.2"/>
<circle clip-path="url(#clip592)" cx="1610.59" cy="1295.97" r="14.4" fill="#009af9" fill-rule="evenodd" fill-opacity="0.5" stroke="#000000" stroke-opacity="0.5" stroke-width="3.2"/>
<circle clip-path="url(#clip592)" cx="1127.63" cy="642.139" r="14.4" fill="#009af9" fill-rule="evenodd" fill-opacity="0.5" stroke="#000000" stroke-opacity="0.5" stroke-width="3.2"/>
<circle clip-path="url(#clip592)" cx="2056.71" cy="850.932" r="14.4" fill="#009af9" fill-rule="evenodd" fill-opacity="0.5" stroke="#000000" stroke-opacity="0.5" stroke-width="3.2"/>
<circle clip-path="url(#clip592)" cx="1052.91" cy="1173.69" r="14.4" fill="#009af9" fill-rule="evenodd" fill-opacity="0.5" stroke="#000000" stroke-opacity="0.5" stroke-width="3.2"/>
<circle clip-path="url(#clip592)" cx="2061.09" cy="87.9763" r="14.4" fill="#009af9" fill-rule="evenodd" fill-opacity="0.5" stroke="#000000" stroke-opacity="0.5" stroke-width="3.2"/>
<circle clip-path="url(#clip592)" cx="1812.92" cy="1407.98" r="14.4" fill="#009af9" fill-rule="evenodd" fill-opacity="0.5" stroke="#000000" stroke-opacity="0.5" stroke-width="3.2"/>
<circle clip-path="url(#clip592)" cx="1405.86" cy="1392.99" r="14.4" fill="#009af9" fill-rule="evenodd" fill-opacity="0.5" stroke="#000000" stroke-opacity="0.5" stroke-width="3.2"/>
<circle clip-path="url(#clip592)" cx="1402.32" cy="872.906" r="14.4" fill="#009af9" fill-rule="evenodd" fill-opacity="0.5" stroke="#000000" stroke-opacity="0.5" stroke-width="3.2"/>
<circle clip-path="url(#clip592)" cx="1603.61" cy="637.146" r="14.4" fill="#009af9" fill-rule="evenodd" fill-opacity="0.5" stroke="#000000" stroke-opacity="0.5" stroke-width="3.2"/>
<circle clip-path="url(#clip592)" cx="1606.77" cy="1004.72" r="14.4" fill="#009af9" fill-rule="evenodd" fill-opacity="0.5" stroke="#000000" stroke-opacity="0.5" stroke-width="3.2"/>
<circle clip-path="url(#clip592)" cx="1290.11" cy="707.246" r="14.4" fill="#009af9" fill-rule="evenodd" fill-opacity="0.5" stroke="#000000" stroke-opacity="0.5" stroke-width="3.2"/>
<circle clip-path="url(#clip592)" cx="209.891" cy="1274.01" r="14.4" fill="#009af9" fill-rule="evenodd" fill-opacity="0.5" stroke="#000000" stroke-opacity="0.5" stroke-width="3.2"/>
<circle clip-path="url(#clip592)" cx="1032.6" cy="562.571" r="14.4" fill="#009af9" fill-rule="evenodd" fill-opacity="0.5" stroke="#000000" stroke-opacity="0.5" stroke-width="3.2"/>
<circle clip-path="url(#clip592)" cx="1846.09" cy="1336.91" r="14.4" fill="#009af9" fill-rule="evenodd" fill-opacity="0.5" stroke="#000000" stroke-opacity="0.5" stroke-width="3.2"/>
<circle clip-path="url(#clip592)" cx="1699.07" cy="887.509" r="14.4" fill="#009af9" fill-rule="evenodd" fill-opacity="0.5" stroke="#000000" stroke-opacity="0.5" stroke-width="3.2"/>
<circle clip-path="url(#clip592)" cx="997.556" cy="1162.35" r="14.4" fill="#009af9" fill-rule="evenodd" fill-opacity="0.5" stroke="#000000" stroke-opacity="0.5" stroke-width="3.2"/>
<path clip-path="url(#clip592)" d="M209.891 1274.01 L1328.94 1445.72 L1812.92 1407.98 L2290.34 913.095 L2061.09 87.9763 L700.35 710.248 L209.891 1274.01 L209.891 1274.01  Z" fill="#e26f46" fill-rule="evenodd" fill-opacity="0.2"/>
<polyline clip-path="url(#clip592)" style="stroke:#000000; stroke-linecap:round; stroke-linejoin:round; stroke-width:4; stroke-opacity:0.2; fill:none" points="209.891,1274.01 1328.94,1445.72 1812.92,1407.98 2290.34,913.095 2061.09,87.9763 700.35,710.248 209.891,1274.01 "/>
</svg>
