<?xml version="1.0" encoding="utf-8"?>
<svg xmlns="http://www.w3.org/2000/svg" xmlns:xlink="http://www.w3.org/1999/xlink" width="600" height="400" viewBox="0 0 2400 1600">
<defs>
  <clipPath id="clip880">
    <rect x="0" y="0" width="2400" height="1600"/>
  </clipPath>
</defs>
<path clip-path="url(#clip880)" d="M0 1600 L2400 1600 L2400 0 L0 0  Z" fill="#ffffff" fill-rule="evenodd" fill-opacity="1"/>
<defs>
  <clipPath id="clip881">
    <rect x="480" y="0" width="1681" height="1600"/>
  </clipPath>
</defs>
<path clip-path="url(#clip880)" d="M147.478 1486.45 L2352.76 1486.45 L2352.76 47.2441 L147.478 47.2441  Z" fill="#ffffff" fill-rule="evenodd" fill-opacity="1"/>
<defs>
  <clipPath id="clip882">
    <rect x="147" y="47" width="2206" height="1440"/>
  </clipPath>
</defs>
<polyline clip-path="url(#clip882)" style="stroke:#000000; stroke-linecap:round; stroke-linejoin:round; stroke-width:2; stroke-opacity:0.1; fill:none" points="176.731,1486.45 176.731,47.2441 "/>
<polyline clip-path="url(#clip882)" style="stroke:#000000; stroke-linecap:round; stroke-linejoin:round; stroke-width:2; stroke-opacity:0.1; fill:none" points="550.806,1486.45 550.806,47.2441 "/>
<polyline clip-path="url(#clip882)" style="stroke:#000000; stroke-linecap:round; stroke-linejoin:round; stroke-width:2; stroke-opacity:0.1; fill:none" points="924.881,1486.45 924.881,47.2441 "/>
<polyline clip-path="url(#clip882)" style="stroke:#000000; stroke-linecap:round; stroke-linejoin:round; stroke-width:2; stroke-opacity:0.1; fill:none" points="1298.96,1486.45 1298.96,47.2441 "/>
<polyline clip-path="url(#clip882)" style="stroke:#000000; stroke-linecap:round; stroke-linejoin:round; stroke-width:2; stroke-opacity:0.1; fill:none" points="1673.03,1486.45 1673.03,47.2441 "/>
<polyline clip-path="url(#clip882)" style="stroke:#000000; stroke-linecap:round; stroke-linejoin:round; stroke-width:2; stroke-opacity:0.1; fill:none" points="2047.11,1486.45 2047.11,47.2441 "/>
<polyline clip-path="url(#clip882)" style="stroke:#000000; stroke-linecap:round; stroke-linejoin:round; stroke-width:2; stroke-opacity:0.1; fill:none" points="147.478,1282.41 2352.76,1282.41 "/>
<polyline clip-path="url(#clip882)" style="stroke:#000000; stroke-linecap:round; stroke-linejoin:round; stroke-width:2; stroke-opacity:0.1; fill:none" points="147.478,976.591 2352.76,976.591 "/>
<polyline clip-path="url(#clip882)" style="stroke:#000000; stroke-linecap:round; stroke-linejoin:round; stroke-width:2; stroke-opacity:0.1; fill:none" points="147.478,670.77 2352.76,670.77 "/>
<polyline clip-path="url(#clip882)" style="stroke:#000000; stroke-linecap:round; stroke-linejoin:round; stroke-width:2; stroke-opacity:0.1; fill:none" points="147.478,364.95 2352.76,364.95 "/>
<polyline clip-path="url(#clip882)" style="stroke:#000000; stroke-linecap:round; stroke-linejoin:round; stroke-width:2; stroke-opacity:0.1; fill:none" points="147.478,59.1303 2352.76,59.1303 "/>
<polyline clip-path="url(#clip880)" style="stroke:#000000; stroke-linecap:round; stroke-linejoin:round; stroke-width:4; stroke-opacity:1; fill:none" points="147.478,1486.45 2352.76,1486.45 "/>
<polyline clip-path="url(#clip880)" style="stroke:#000000; stroke-linecap:round; stroke-linejoin:round; stroke-width:4; stroke-opacity:1; fill:none" points="176.731,1486.45 176.731,1467.55 "/>
<polyline clip-path="url(#clip880)" style="stroke:#000000; stroke-linecap:round; stroke-linejoin:round; stroke-width:4; stroke-opacity:1; fill:none" points="550.806,1486.45 550.806,1467.55 "/>
<polyline clip-path="url(#clip880)" style="stroke:#000000; stroke-linecap:round; stroke-linejoin:round; stroke-width:4; stroke-opacity:1; fill:none" points="924.881,1486.45 924.881,1467.55 "/>
<polyline clip-path="url(#clip880)" style="stroke:#000000; stroke-linecap:round; stroke-linejoin:round; stroke-width:4; stroke-opacity:1; fill:none" points="1298.96,1486.45 1298.96,1467.55 "/>
<polyline clip-path="url(#clip880)" style="stroke:#000000; stroke-linecap:round; stroke-linejoin:round; stroke-width:4; stroke-opacity:1; fill:none" points="1673.03,1486.45 1673.03,1467.55 "/>
<polyline clip-path="url(#clip880)" style="stroke:#000000; stroke-linecap:round; stroke-linejoin:round; stroke-width:4; stroke-opacity:1; fill:none" points="2047.11,1486.45 2047.11,1467.55 "/>
<path clip-path="url(#clip880)" d="M146.199 1532.02 L175.874 1532.02 L175.874 1535.95 L146.199 1535.95 L146.199 1532.02 Z" fill="#000000" fill-rule="nonzero" fill-opacity="1" /><path clip-path="url(#clip880)" d="M200.133 1530.21 Q203.49 1530.93 205.365 1533.2 Q207.263 1535.47 207.263 1538.8 Q207.263 1543.92 203.745 1546.72 Q200.226 1549.52 193.745 1549.52 Q191.569 1549.52 189.254 1549.08 Q186.962 1548.66 184.509 1547.81 L184.509 1543.29 Q186.453 1544.43 188.768 1545.01 Q191.083 1545.58 193.606 1545.58 Q198.004 1545.58 200.296 1543.85 Q202.61 1542.11 202.61 1538.8 Q202.61 1535.75 200.458 1534.03 Q198.328 1532.3 194.509 1532.3 L190.481 1532.3 L190.481 1528.45 L194.694 1528.45 Q198.143 1528.45 199.971 1527.09 Q201.8 1525.7 201.8 1523.11 Q201.8 1520.45 199.902 1519.03 Q198.027 1517.6 194.509 1517.6 Q192.587 1517.6 190.388 1518.01 Q188.189 1518.43 185.55 1519.31 L185.55 1515.14 Q188.212 1514.4 190.527 1514.03 Q192.865 1513.66 194.925 1513.66 Q200.249 1513.66 203.351 1516.09 Q206.453 1518.5 206.453 1522.62 Q206.453 1525.49 204.809 1527.48 Q203.166 1529.45 200.133 1530.21 Z" fill="#000000" fill-rule="nonzero" fill-opacity="1" /><path clip-path="url(#clip880)" d="M520.748 1532.02 L550.424 1532.02 L550.424 1535.95 L520.748 1535.95 L520.748 1532.02 Z" fill="#000000" fill-rule="nonzero" fill-opacity="1" /><path clip-path="url(#clip880)" d="M564.544 1544.91 L580.864 1544.91 L580.864 1548.85 L558.919 1548.85 L558.919 1544.91 Q561.581 1542.16 566.165 1537.53 Q570.771 1532.88 571.952 1531.53 Q574.197 1529.01 575.077 1527.27 Q575.979 1525.51 575.979 1523.82 Q575.979 1521.07 574.035 1519.33 Q572.114 1517.6 569.012 1517.6 Q566.813 1517.6 564.359 1518.36 Q561.928 1519.13 559.151 1520.68 L559.151 1515.95 Q561.975 1514.82 564.428 1514.24 Q566.882 1513.66 568.919 1513.66 Q574.289 1513.66 577.484 1516.35 Q580.678 1519.03 580.678 1523.52 Q580.678 1525.65 579.868 1527.57 Q579.081 1529.47 576.975 1532.07 Q576.396 1532.74 573.294 1535.95 Q570.192 1539.15 564.544 1544.91 Z" fill="#000000" fill-rule="nonzero" fill-opacity="1" /><path clip-path="url(#clip880)" d="M894.638 1532.02 L924.314 1532.02 L924.314 1535.95 L894.638 1535.95 L894.638 1532.02 Z" fill="#000000" fill-rule="nonzero" fill-opacity="1" /><path clip-path="url(#clip880)" d="M935.216 1544.91 L942.855 1544.91 L942.855 1518.55 L934.545 1520.21 L934.545 1515.95 L942.809 1514.29 L947.485 1514.29 L947.485 1544.91 L955.124 1544.91 L955.124 1548.85 L935.216 1548.85 L935.216 1544.91 Z" fill="#000000" fill-rule="nonzero" fill-opacity="1" /><path clip-path="url(#clip880)" d="M1298.96 1517.37 Q1295.34 1517.37 1293.52 1520.93 Q1291.71 1524.47 1291.71 1531.6 Q1291.71 1538.71 1293.52 1542.27 Q1295.34 1545.82 1298.96 1545.82 Q1302.59 1545.82 1304.4 1542.27 Q1306.22 1538.71 1306.22 1531.6 Q1306.22 1524.47 1304.4 1520.93 Q1302.59 1517.37 1298.96 1517.37 M1298.96 1513.66 Q1304.77 1513.66 1307.82 1518.27 Q1310.9 1522.85 1310.9 1531.6 Q1310.9 1540.33 1307.82 1544.94 Q1304.77 1549.52 1298.96 1549.52 Q1293.15 1549.52 1290.07 1544.94 Q1287.01 1540.33 1287.01 1531.6 Q1287.01 1522.85 1290.07 1518.27 Q1293.15 1513.66 1298.96 1513.66 Z" fill="#000000" fill-rule="nonzero" fill-opacity="1" /><path clip-path="url(#clip880)" d="M1663.41 1544.91 L1671.05 1544.91 L1671.05 1518.55 L1662.74 1520.21 L1662.74 1515.95 L1671.01 1514.29 L1675.68 1514.29 L1675.68 1544.91 L1683.32 1544.91 L1683.32 1548.85 L1663.41 1548.85 L1663.41 1544.91 Z" fill="#000000" fill-rule="nonzero" fill-opacity="1" /><path clip-path="url(#clip880)" d="M2041.76 1544.91 L2058.08 1544.91 L2058.08 1548.85 L2036.13 1548.85 L2036.13 1544.91 Q2038.8 1542.16 2043.38 1537.53 Q2047.99 1532.88 2049.17 1531.53 Q2051.41 1529.01 2052.29 1527.27 Q2053.19 1525.51 2053.19 1523.82 Q2053.19 1521.07 2051.25 1519.33 Q2049.33 1517.6 2046.23 1517.6 Q2044.03 1517.6 2041.57 1518.36 Q2039.14 1519.13 2036.37 1520.68 L2036.37 1515.95 Q2039.19 1514.82 2041.64 1514.24 Q2044.1 1513.66 2046.13 1513.66 Q2051.5 1513.66 2054.7 1516.35 Q2057.89 1519.03 2057.89 1523.52 Q2057.89 1525.65 2057.08 1527.57 Q2056.3 1529.47 2054.19 1532.07 Q2053.61 1532.74 2050.51 1535.95 Q2047.41 1539.15 2041.76 1544.91 Z" fill="#000000" fill-rule="nonzero" fill-opacity="1" /><polyline clip-path="url(#clip880)" style="stroke:#000000; stroke-linecap:round; stroke-linejoin:round; stroke-width:4; stroke-opacity:1; fill:none" points="147.478,1486.45 147.478,47.2441 "/>
<polyline clip-path="url(#clip880)" style="stroke:#000000; stroke-linecap:round; stroke-linejoin:round; stroke-width:4; stroke-opacity:1; fill:none" points="147.478,1282.41 166.376,1282.41 "/>
<polyline clip-path="url(#clip880)" style="stroke:#000000; stroke-linecap:round; stroke-linejoin:round; stroke-width:4; stroke-opacity:1; fill:none" points="147.478,976.591 166.376,976.591 "/>
<polyline clip-path="url(#clip880)" style="stroke:#000000; stroke-linecap:round; stroke-linejoin:round; stroke-width:4; stroke-opacity:1; fill:none" points="147.478,670.77 166.376,670.77 "/>
<polyline clip-path="url(#clip880)" style="stroke:#000000; stroke-linecap:round; stroke-linejoin:round; stroke-width:4; stroke-opacity:1; fill:none" points="147.478,364.95 166.376,364.95 "/>
<polyline clip-path="url(#clip880)" style="stroke:#000000; stroke-linecap:round; stroke-linejoin:round; stroke-width:4; stroke-opacity:1; fill:none" points="147.478,59.1303 166.376,59.1303 "/>
<path clip-path="url(#clip880)" d="M51.3625 1282.86 L81.0383 1282.86 L81.0383 1286.8 L51.3625 1286.8 L51.3625 1282.86 Z" fill="#000000" fill-rule="nonzero" fill-opacity="1" /><path clip-path="url(#clip880)" d="M95.1586 1295.76 L111.478 1295.76 L111.478 1299.69 L89.5336 1299.69 L89.5336 1295.76 Q92.1956 1293 96.7789 1288.37 Q101.385 1283.72 102.566 1282.38 Q104.811 1279.85 105.691 1278.12 Q106.594 1276.36 106.594 1274.67 Q106.594 1271.91 104.649 1270.18 Q102.728 1268.44 99.6261 1268.44 Q97.4271 1268.44 94.9734 1269.2 Q92.5428 1269.97 89.7651 1271.52 L89.7651 1266.8 Q92.5891 1265.66 95.0428 1265.08 Q97.4965 1264.51 99.5335 1264.51 Q104.904 1264.51 108.098 1267.19 Q111.293 1269.88 111.293 1274.37 Q111.293 1276.5 110.483 1278.42 Q109.696 1280.32 107.589 1282.91 Q107.01 1283.58 103.909 1286.8 Q100.807 1289.99 95.1586 1295.76 Z" fill="#000000" fill-rule="nonzero" fill-opacity="1" /><path clip-path="url(#clip880)" d="M50.9921 977.042 L80.6679 977.042 L80.6679 980.977 L50.9921 980.977 L50.9921 977.042 Z" fill="#000000" fill-rule="nonzero" fill-opacity="1" /><path clip-path="url(#clip880)" d="M91.5706 989.935 L99.2095 989.935 L99.2095 963.57 L90.8993 965.236 L90.8993 960.977 L99.1632 959.311 L103.839 959.311 L103.839 989.935 L111.478 989.935 L111.478 993.871 L91.5706 993.871 L91.5706 989.935 Z" fill="#000000" fill-rule="nonzero" fill-opacity="1" /><path clip-path="url(#clip880)" d="M99.5335 656.569 Q95.9224 656.569 94.0937 660.134 Q92.2882 663.676 92.2882 670.805 Q92.2882 677.912 94.0937 681.476 Q95.9224 685.018 99.5335 685.018 Q103.168 685.018 104.973 681.476 Q106.802 677.912 106.802 670.805 Q106.802 663.676 104.973 660.134 Q103.168 656.569 99.5335 656.569 M99.5335 652.865 Q105.344 652.865 108.399 657.472 Q111.478 662.055 111.478 670.805 Q111.478 679.532 108.399 684.138 Q105.344 688.722 99.5335 688.722 Q93.7234 688.722 90.6447 684.138 Q87.5892 679.532 87.5892 670.805 Q87.5892 662.055 90.6447 657.472 Q93.7234 652.865 99.5335 652.865 Z" fill="#000000" fill-rule="nonzero" fill-opacity="1" /><path clip-path="url(#clip880)" d="M91.5706 378.295 L99.2095 378.295 L99.2095 351.93 L90.8993 353.596 L90.8993 349.337 L99.1632 347.67 L103.839 347.67 L103.839 378.295 L111.478 378.295 L111.478 382.23 L91.5706 382.23 L91.5706 378.295 Z" fill="#000000" fill-rule="nonzero" fill-opacity="1" /><path clip-path="url(#clip880)" d="M95.1586 72.4751 L111.478 72.4751 L111.478 76.4103 L89.5336 76.4103 L89.5336 72.4751 Q92.1956 69.7205 96.7789 65.0909 Q101.385 60.4381 102.566 59.0955 Q104.811 56.5724 105.691 54.8363 Q106.594 53.0771 106.594 51.3873 Q106.594 48.6326 104.649 46.8965 Q102.728 45.1604 99.6261 45.1604 Q97.4271 45.1604 94.9734 45.9243 Q92.5428 46.6882 89.7651 48.2391 L89.7651 43.5169 Q92.5891 42.3827 95.0428 41.804 Q97.4965 41.2253 99.5335 41.2253 Q104.904 41.2253 108.098 43.9104 Q111.293 46.5956 111.293 51.0863 Q111.293 53.2159 110.483 55.1372 Q109.696 57.0354 107.589 59.6279 Q107.01 60.2992 103.909 63.5168 Q100.807 66.7112 95.1586 72.4751 Z" fill="#000000" fill-rule="nonzero" fill-opacity="1" /><circle clip-path="url(#clip882)" cx="1676.45" cy="990.98" r="14.4" fill="#009af9" fill-rule="evenodd" fill-opacity="0.5" stroke="#000000" stroke-opacity="0.5" stroke-width="3.2"/>
<circle clip-path="url(#clip882)" cx="1172.03" cy="696.229" r="14.4" fill="#009af9" fill-rule="evenodd" fill-opacity="0.5" stroke="#000000" stroke-opacity="0.5" stroke-width="3.2"/>
<circle clip-path="url(#clip882)" cx="209.891" cy="877.727" r="14.4" fill="#009af9" fill-rule="evenodd" fill-opacity="0.5" stroke="#000000" stroke-opacity="0.5" stroke-width="3.2"/>
<circle clip-path="url(#clip882)" cx="2290.34" cy="1018.44" r="14.4" fill="#009af9" fill-rule="evenodd" fill-opacity="0.5" stroke="#000000" stroke-opacity="0.5" stroke-width="3.2"/>
<circle clip-path="url(#clip882)" cx="1520.76" cy="87.9763" r="14.4" fill="#009af9" fill-rule="evenodd" fill-opacity="0.5" stroke="#000000" stroke-opacity="0.5" stroke-width="3.2"/>
<circle clip-path="url(#clip882)" cx="1120.27" cy="814.956" r="14.4" fill="#009af9" fill-rule="evenodd" fill-opacity="0.5" stroke="#000000" stroke-opacity="0.5" stroke-width="3.2"/>
<circle clip-path="url(#clip882)" cx="1463.8" cy="545.701" r="14.4" fill="#009af9" fill-rule="evenodd" fill-opacity="0.5" stroke="#000000" stroke-opacity="0.5" stroke-width="3.2"/>
<circle clip-path="url(#clip882)" cx="969.035" cy="594.637" r="14.4" fill="#009af9" fill-rule="evenodd" fill-opacity="0.5" stroke="#000000" stroke-opacity="0.5" stroke-width="3.2"/>
<circle clip-path="url(#clip882)" cx="906.322" cy="1039.16" r="14.4" fill="#009af9" fill-rule="evenodd" fill-opacity="0.5" stroke="#000000" stroke-opacity="0.5" stroke-width="3.2"/>
<circle clip-path="url(#clip882)" cx="544.065" cy="1028.92" r="14.4" fill="#009af9" fill-rule="evenodd" fill-opacity="0.5" stroke="#000000" stroke-opacity="0.5" stroke-width="3.2"/>
<circle clip-path="url(#clip882)" cx="1390.9" cy="880.562" r="14.4" fill="#009af9" fill-rule="evenodd" fill-opacity="0.5" stroke="#000000" stroke-opacity="0.5" stroke-width="3.2"/>
<circle clip-path="url(#clip882)" cx="1391" cy="956.96" r="14.4" fill="#009af9" fill-rule="evenodd" fill-opacity="0.5" stroke="#000000" stroke-opacity="0.5" stroke-width="3.2"/>
<circle clip-path="url(#clip882)" cx="1132.67" cy="721.385" r="14.4" fill="#009af9" fill-rule="evenodd" fill-opacity="0.5" stroke="#000000" stroke-opacity="0.5" stroke-width="3.2"/>
<circle clip-path="url(#clip882)" cx="1572.35" cy="1445.72" r="14.4" fill="#009af9" fill-rule="evenodd" fill-opacity="0.5" stroke="#000000" stroke-opacity="0.5" stroke-width="3.2"/>
<circle clip-path="url(#clip882)" cx="659.352" cy="364.14" r="14.4" fill="#009af9" fill-rule="evenodd" fill-opacity="0.5" stroke="#000000" stroke-opacity="0.5" stroke-width="3.2"/>
<circle clip-path="url(#clip882)" cx="742.588" cy="709.471" r="14.4" fill="#009af9" fill-rule="evenodd" fill-opacity="0.5" stroke="#000000" stroke-opacity="0.5" stroke-width="3.2"/>
<circle clip-path="url(#clip882)" cx="1242.24" cy="579.08" r="14.4" fill="#009af9" fill-rule="evenodd" fill-opacity="0.5" stroke="#000000" stroke-opacity="0.5" stroke-width="3.2"/>
<circle clip-path="url(#clip882)" cx="814.704" cy="778.21" r="14.4" fill="#009af9" fill-rule="evenodd" fill-opacity="0.5" stroke="#000000" stroke-opacity="0.5" stroke-width="3.2"/>
<circle clip-path="url(#clip882)" cx="1030.01" cy="596.307" r="14.4" fill="#009af9" fill-rule="evenodd" fill-opacity="0.5" stroke="#000000" stroke-opacity="0.5" stroke-width="3.2"/>
<circle clip-path="url(#clip882)" cx="1590.44" cy="883.969" r="14.4" fill="#009af9" fill-rule="evenodd" fill-opacity="0.5" stroke="#000000" stroke-opacity="0.5" stroke-width="3.2"/>
<circle clip-path="url(#clip882)" cx="1530.81" cy="253.167" r="14.4" fill="#009af9" fill-rule="evenodd" fill-opacity="0.5" stroke="#000000" stroke-opacity="0.5" stroke-width="3.2"/>
<circle clip-path="url(#clip882)" cx="1563.57" cy="510.692" r="14.4" fill="#009af9" fill-rule="evenodd" fill-opacity="0.5" stroke="#000000" stroke-opacity="0.5" stroke-width="3.2"/>
<circle clip-path="url(#clip882)" cx="847.454" cy="1321.88" r="14.4" fill="#009af9" fill-rule="evenodd" fill-opacity="0.5" stroke="#000000" stroke-opacity="0.5" stroke-width="3.2"/>
<circle clip-path="url(#clip882)" cx="1355.67" cy="976.12" r="14.4" fill="#009af9" fill-rule="evenodd" fill-opacity="0.5" stroke="#000000" stroke-opacity="0.5" stroke-width="3.2"/>
<circle clip-path="url(#clip882)" cx="1710.58" cy="989.042" r="14.4" fill="#009af9" fill-rule="evenodd" fill-opacity="0.5" stroke="#000000" stroke-opacity="0.5" stroke-width="3.2"/>
<circle clip-path="url(#clip882)" cx="1836.05" cy="346.202" r="14.4" fill="#009af9" fill-rule="evenodd" fill-opacity="0.5" stroke="#000000" stroke-opacity="0.5" stroke-width="3.2"/>
<circle clip-path="url(#clip882)" cx="1204.62" cy="337.806" r="14.4" fill="#009af9" fill-rule="evenodd" fill-opacity="0.5" stroke="#000000" stroke-opacity="0.5" stroke-width="3.2"/>
<circle clip-path="url(#clip882)" cx="837.286" cy="1071.62" r="14.4" fill="#009af9" fill-rule="evenodd" fill-opacity="0.5" stroke="#000000" stroke-opacity="0.5" stroke-width="3.2"/>
<circle clip-path="url(#clip882)" cx="925.827" cy="538.066" r="14.4" fill="#009af9" fill-rule="evenodd" fill-opacity="0.5" stroke="#000000" stroke-opacity="0.5" stroke-width="3.2"/>
<circle clip-path="url(#clip882)" cx="1133.48" cy="170.005" r="14.4" fill="#009af9" fill-rule="evenodd" fill-opacity="0.5" stroke="#000000" stroke-opacity="0.5" stroke-width="3.2"/>
<path clip-path="url(#clip882)" d="M209.891 877.727 L847.454 1321.88 L1572.35 1445.72 L2290.34 1018.44 L1836.05 346.202 L1520.76 87.9763 L1133.48 170.005 L659.352 364.14 L209.891 877.727 L209.891 877.727  Z" fill="#e26f46" fill-rule="evenodd" fill-opacity="0.2"/>
<polyline clip-path="url(#clip882)" style="stroke:#000000; stroke-linecap:round; stroke-linejoin:round; stroke-width:4; stroke-opacity:0.2; fill:none" points="209.891,877.727 847.454,1321.88 1572.35,1445.72 2290.34,1018.44 1836.05,346.202 1520.76,87.9763 1133.48,170.005 659.352,364.14 209.891,877.727 "/>
</svg>
