<?xml version="1.0" encoding="utf-8"?>
<svg xmlns="http://www.w3.org/2000/svg" xmlns:xlink="http://www.w3.org/1999/xlink" width="600" height="400" viewBox="0 0 2400 1600">
<defs>
  <clipPath id="clip920">
    <rect x="0" y="0" width="2400" height="1600"/>
  </clipPath>
</defs>
<path clip-path="url(#clip920)" d="M0 1600 L2400 1600 L2400 0 L0 0  Z" fill="#ffffff" fill-rule="evenodd" fill-opacity="1"/>
<defs>
  <clipPath id="clip921">
    <rect x="480" y="0" width="1681" height="1600"/>
  </clipPath>
</defs>
<path clip-path="url(#clip920)" d="M147.478 1486.45 L2352.76 1486.45 L2352.76 47.2441 L147.478 47.2441  Z" fill="#ffffff" fill-rule="evenodd" fill-opacity="1"/>
<defs>
  <clipPath id="clip922">
    <rect x="147" y="47" width="2206" height="1440"/>
  </clipPath>
</defs>
<polyline clip-path="url(#clip922)" style="stroke:#000000; stroke-linecap:round; stroke-linejoin:round; stroke-width:2; stroke-opacity:0.1; fill:none" points="632.674,1486.45 632.674,47.2441 "/>
<polyline clip-path="url(#clip922)" style="stroke:#000000; stroke-linecap:round; stroke-linejoin:round; stroke-width:2; stroke-opacity:0.1; fill:none" points="1161.64,1486.45 1161.64,47.2441 "/>
<polyline clip-path="url(#clip922)" style="stroke:#000000; stroke-linecap:round; stroke-linejoin:round; stroke-width:2; stroke-opacity:0.1; fill:none" points="1690.6,1486.45 1690.6,47.2441 "/>
<polyline clip-path="url(#clip922)" style="stroke:#000000; stroke-linecap:round; stroke-linejoin:round; stroke-width:2; stroke-opacity:0.1; fill:none" points="2219.56,1486.45 2219.56,47.2441 "/>
<polyline clip-path="url(#clip922)" style="stroke:#000000; stroke-linecap:round; stroke-linejoin:round; stroke-width:2; stroke-opacity:0.1; fill:none" points="147.478,1289.2 2352.76,1289.2 "/>
<polyline clip-path="url(#clip922)" style="stroke:#000000; stroke-linecap:round; stroke-linejoin:round; stroke-width:2; stroke-opacity:0.1; fill:none" points="147.478,1066.44 2352.76,1066.44 "/>
<polyline clip-path="url(#clip922)" style="stroke:#000000; stroke-linecap:round; stroke-linejoin:round; stroke-width:2; stroke-opacity:0.1; fill:none" points="147.478,843.678 2352.76,843.678 "/>
<polyline clip-path="url(#clip922)" style="stroke:#000000; stroke-linecap:round; stroke-linejoin:round; stroke-width:2; stroke-opacity:0.1; fill:none" points="147.478,620.916 2352.76,620.916 "/>
<polyline clip-path="url(#clip922)" style="stroke:#000000; stroke-linecap:round; stroke-linejoin:round; stroke-width:2; stroke-opacity:0.1; fill:none" points="147.478,398.154 2352.76,398.154 "/>
<polyline clip-path="url(#clip922)" style="stroke:#000000; stroke-linecap:round; stroke-linejoin:round; stroke-width:2; stroke-opacity:0.1; fill:none" points="147.478,175.391 2352.76,175.391 "/>
<polyline clip-path="url(#clip920)" style="stroke:#000000; stroke-linecap:round; stroke-linejoin:round; stroke-width:4; stroke-opacity:1; fill:none" points="147.478,1486.45 2352.76,1486.45 "/>
<polyline clip-path="url(#clip920)" style="stroke:#000000; stroke-linecap:round; stroke-linejoin:round; stroke-width:4; stroke-opacity:1; fill:none" points="632.674,1486.45 632.674,1467.55 "/>
<polyline clip-path="url(#clip920)" style="stroke:#000000; stroke-linecap:round; stroke-linejoin:round; stroke-width:4; stroke-opacity:1; fill:none" points="1161.64,1486.45 1161.64,1467.55 "/>
<polyline clip-path="url(#clip920)" style="stroke:#000000; stroke-linecap:round; stroke-linejoin:round; stroke-width:4; stroke-opacity:1; fill:none" points="1690.6,1486.45 1690.6,1467.55 "/>
<polyline clip-path="url(#clip920)" style="stroke:#000000; stroke-linecap:round; stroke-linejoin:round; stroke-width:4; stroke-opacity:1; fill:none" points="2219.56,1486.45 2219.56,1467.55 "/>
<path clip-path="url(#clip920)" d="M602.431 1532.02 L632.106 1532.02 L632.106 1535.95 L602.431 1535.95 L602.431 1532.02 Z" fill="#000000" fill-rule="nonzero" fill-opacity="1" /><path clip-path="url(#clip920)" d="M643.009 1544.91 L650.648 1544.91 L650.648 1518.55 L642.338 1520.21 L642.338 1515.95 L650.602 1514.29 L655.278 1514.29 L655.278 1544.91 L662.917 1544.91 L662.917 1548.85 L643.009 1548.85 L643.009 1544.91 Z" fill="#000000" fill-rule="nonzero" fill-opacity="1" /><path clip-path="url(#clip920)" d="M1161.64 1517.37 Q1158.02 1517.37 1156.2 1520.93 Q1154.39 1524.47 1154.39 1531.6 Q1154.39 1538.71 1156.2 1542.27 Q1158.02 1545.82 1161.64 1545.82 Q1165.27 1545.82 1167.08 1542.27 Q1168.9 1538.71 1168.9 1531.6 Q1168.9 1524.47 1167.08 1520.93 Q1165.27 1517.37 1161.64 1517.37 M1161.64 1513.66 Q1167.45 1513.66 1170.5 1518.27 Q1173.58 1522.85 1173.58 1531.6 Q1173.58 1540.33 1170.5 1544.94 Q1167.45 1549.52 1161.64 1549.52 Q1155.83 1549.52 1152.75 1544.94 Q1149.69 1540.33 1149.69 1531.6 Q1149.69 1522.85 1152.75 1518.27 Q1155.83 1513.66 1161.64 1513.66 Z" fill="#000000" fill-rule="nonzero" fill-opacity="1" /><path clip-path="url(#clip920)" d="M1680.98 1544.91 L1688.62 1544.91 L1688.62 1518.55 L1680.31 1520.21 L1680.31 1515.95 L1688.57 1514.29 L1693.25 1514.29 L1693.25 1544.91 L1700.89 1544.91 L1700.89 1548.85 L1680.98 1548.85 L1680.98 1544.91 Z" fill="#000000" fill-rule="nonzero" fill-opacity="1" /><path clip-path="url(#clip920)" d="M2214.21 1544.91 L2230.53 1544.91 L2230.53 1548.85 L2208.59 1548.85 L2208.59 1544.91 Q2211.25 1542.16 2215.83 1537.53 Q2220.44 1532.88 2221.62 1531.53 Q2223.87 1529.01 2224.75 1527.27 Q2225.65 1525.51 2225.65 1523.82 Q2225.65 1521.07 2223.7 1519.33 Q2221.78 1517.6 2218.68 1517.6 Q2216.48 1517.6 2214.03 1518.36 Q2211.6 1519.13 2208.82 1520.68 L2208.82 1515.95 Q2211.64 1514.82 2214.1 1514.24 Q2216.55 1513.66 2218.59 1513.66 Q2223.96 1513.66 2227.15 1516.35 Q2230.35 1519.03 2230.35 1523.52 Q2230.35 1525.65 2229.54 1527.57 Q2228.75 1529.47 2226.64 1532.07 Q2226.07 1532.74 2222.96 1535.95 Q2219.86 1539.15 2214.21 1544.91 Z" fill="#000000" fill-rule="nonzero" fill-opacity="1" /><polyline clip-path="url(#clip920)" style="stroke:#000000; stroke-linecap:round; stroke-linejoin:round; stroke-width:4; stroke-opacity:1; fill:none" points="147.478,1486.45 147.478,47.2441 "/>
<polyline clip-path="url(#clip920)" style="stroke:#000000; stroke-linecap:round; stroke-linejoin:round; stroke-width:4; stroke-opacity:1; fill:none" points="147.478,1289.2 166.376,1289.2 "/>
<polyline clip-path="url(#clip920)" style="stroke:#000000; stroke-linecap:round; stroke-linejoin:round; stroke-width:4; stroke-opacity:1; fill:none" points="147.478,1066.44 166.376,1066.44 "/>
<polyline clip-path="url(#clip920)" style="stroke:#000000; stroke-linecap:round; stroke-linejoin:round; stroke-width:4; stroke-opacity:1; fill:none" points="147.478,843.678 166.376,843.678 "/>
<polyline clip-path="url(#clip920)" style="stroke:#000000; stroke-linecap:round; stroke-linejoin:round; stroke-width:4; stroke-opacity:1; fill:none" points="147.478,620.916 166.376,620.916 "/>
<polyline clip-path="url(#clip920)" style="stroke:#000000; stroke-linecap:round; stroke-linejoin:round; stroke-width:4; stroke-opacity:1; fill:none" points="147.478,398.154 166.376,398.154 "/>
<polyline clip-path="url(#clip920)" style="stroke:#000000; stroke-linecap:round; stroke-linejoin:round; stroke-width:4; stroke-opacity:1; fill:none" points="147.478,175.391 166.376,175.391 "/>
<path clip-path="url(#clip920)" d="M51.3625 1289.65 L81.0383 1289.65 L81.0383 1293.59 L51.3625 1293.59 L51.3625 1289.65 Z" fill="#000000" fill-rule="nonzero" fill-opacity="1" /><path clip-path="url(#clip920)" d="M95.1586 1302.55 L111.478 1302.55 L111.478 1306.48 L89.5336 1306.48 L89.5336 1302.55 Q92.1956 1299.79 96.7789 1295.16 Q101.385 1290.51 102.566 1289.17 Q104.811 1286.65 105.691 1284.91 Q106.594 1283.15 106.594 1281.46 Q106.594 1278.71 104.649 1276.97 Q102.728 1275.23 99.6261 1275.23 Q97.4271 1275.23 94.9734 1276 Q92.5428 1276.76 89.7651 1278.31 L89.7651 1273.59 Q92.5891 1272.46 95.0428 1271.88 Q97.4965 1271.3 99.5335 1271.3 Q104.904 1271.3 108.098 1273.98 Q111.293 1276.67 111.293 1281.16 Q111.293 1283.29 110.483 1285.21 Q109.696 1287.11 107.589 1289.7 Q107.01 1290.37 103.909 1293.59 Q100.807 1296.78 95.1586 1302.55 Z" fill="#000000" fill-rule="nonzero" fill-opacity="1" /><path clip-path="url(#clip920)" d="M50.9921 1066.89 L80.6679 1066.89 L80.6679 1070.83 L50.9921 1070.83 L50.9921 1066.89 Z" fill="#000000" fill-rule="nonzero" fill-opacity="1" /><path clip-path="url(#clip920)" d="M91.5706 1079.79 L99.2095 1079.79 L99.2095 1053.42 L90.8993 1055.09 L90.8993 1050.83 L99.1632 1049.16 L103.839 1049.16 L103.839 1079.79 L111.478 1079.79 L111.478 1083.72 L91.5706 1083.72 L91.5706 1079.79 Z" fill="#000000" fill-rule="nonzero" fill-opacity="1" /><path clip-path="url(#clip920)" d="M99.5335 829.477 Q95.9224 829.477 94.0937 833.042 Q92.2882 836.584 92.2882 843.713 Q92.2882 850.82 94.0937 854.384 Q95.9224 857.926 99.5335 857.926 Q103.168 857.926 104.973 854.384 Q106.802 850.82 106.802 843.713 Q106.802 836.584 104.973 833.042 Q103.168 829.477 99.5335 829.477 M99.5335 825.773 Q105.344 825.773 108.399 830.38 Q111.478 834.963 111.478 843.713 Q111.478 852.44 108.399 857.046 Q105.344 861.63 99.5335 861.63 Q93.7234 861.63 90.6447 857.046 Q87.5892 852.44 87.5892 843.713 Q87.5892 834.963 90.6447 830.38 Q93.7234 825.773 99.5335 825.773 Z" fill="#000000" fill-rule="nonzero" fill-opacity="1" /><path clip-path="url(#clip920)" d="M91.5706 634.261 L99.2095 634.261 L99.2095 607.895 L90.8993 609.562 L90.8993 605.303 L99.1632 603.636 L103.839 603.636 L103.839 634.261 L111.478 634.261 L111.478 638.196 L91.5706 638.196 L91.5706 634.261 Z" fill="#000000" fill-rule="nonzero" fill-opacity="1" /><path clip-path="url(#clip920)" d="M95.1586 411.498 L111.478 411.498 L111.478 415.434 L89.5336 415.434 L89.5336 411.498 Q92.1956 408.744 96.7789 404.114 Q101.385 399.461 102.566 398.119 Q104.811 395.596 105.691 393.86 Q106.594 392.1 106.594 390.411 Q106.594 387.656 104.649 385.92 Q102.728 384.184 99.6261 384.184 Q97.4271 384.184 94.9734 384.948 Q92.5428 385.711 89.7651 387.262 L89.7651 382.54 Q92.5891 381.406 95.0428 380.827 Q97.4965 380.249 99.5335 380.249 Q104.904 380.249 108.098 382.934 Q111.293 385.619 111.293 390.11 Q111.293 392.239 110.483 394.161 Q109.696 396.059 107.589 398.651 Q107.01 399.323 103.909 402.54 Q100.807 405.735 95.1586 411.498 Z" fill="#000000" fill-rule="nonzero" fill-opacity="1" /><path clip-path="url(#clip920)" d="M104.348 174.037 Q107.705 174.755 109.58 177.023 Q111.478 179.292 111.478 182.625 Q111.478 187.741 107.959 190.541 Q104.441 193.342 97.9595 193.342 Q95.7836 193.342 93.4688 192.903 Q91.1771 192.486 88.7234 191.629 L88.7234 187.116 Q90.6678 188.25 92.9826 188.829 Q95.2974 189.407 97.8206 189.407 Q102.219 189.407 104.51 187.671 Q106.825 185.935 106.825 182.625 Q106.825 179.569 104.672 177.856 Q102.543 176.12 98.7234 176.12 L94.6956 176.12 L94.6956 172.278 L98.9085 172.278 Q102.358 172.278 104.186 170.912 Q106.015 169.523 106.015 166.93 Q106.015 164.268 104.117 162.856 Q102.242 161.421 98.7234 161.421 Q96.8021 161.421 94.603 161.838 Q92.4039 162.255 89.7651 163.134 L89.7651 158.968 Q92.4271 158.227 94.7419 157.856 Q97.0798 157.486 99.14 157.486 Q104.464 157.486 107.566 159.917 Q110.668 162.324 110.668 166.444 Q110.668 169.315 109.024 171.305 Q107.381 173.273 104.348 174.037 Z" fill="#000000" fill-rule="nonzero" fill-opacity="1" /><circle clip-path="url(#clip922)" cx="663.82" cy="924.844" r="14.4" fill="#009af9" fill-rule="evenodd" fill-opacity="0.5" stroke="#000000" stroke-opacity="0.5" stroke-width="3.2"/>
<circle clip-path="url(#clip922)" cx="634.688" cy="697.023" r="14.4" fill="#009af9" fill-rule="evenodd" fill-opacity="0.5" stroke="#000000" stroke-opacity="0.5" stroke-width="3.2"/>
<circle clip-path="url(#clip922)" cx="1627.52" cy="660.033" r="14.4" fill="#009af9" fill-rule="evenodd" fill-opacity="0.5" stroke="#000000" stroke-opacity="0.5" stroke-width="3.2"/>
<circle clip-path="url(#clip922)" cx="855.397" cy="794.898" r="14.4" fill="#009af9" fill-rule="evenodd" fill-opacity="0.5" stroke="#000000" stroke-opacity="0.5" stroke-width="3.2"/>
<circle clip-path="url(#clip922)" cx="1178.17" cy="87.9763" r="14.4" fill="#009af9" fill-rule="evenodd" fill-opacity="0.5" stroke="#000000" stroke-opacity="0.5" stroke-width="3.2"/>
<circle clip-path="url(#clip922)" cx="1781.67" cy="574.252" r="14.4" fill="#009af9" fill-rule="evenodd" fill-opacity="0.5" stroke="#000000" stroke-opacity="0.5" stroke-width="3.2"/>
<circle clip-path="url(#clip922)" cx="1265.05" cy="1445.72" r="14.4" fill="#009af9" fill-rule="evenodd" fill-opacity="0.5" stroke="#000000" stroke-opacity="0.5" stroke-width="3.2"/>
<circle clip-path="url(#clip922)" cx="209.891" cy="764.876" r="14.4" fill="#009af9" fill-rule="evenodd" fill-opacity="0.5" stroke="#000000" stroke-opacity="0.5" stroke-width="3.2"/>
<circle clip-path="url(#clip922)" cx="791.591" cy="431.317" r="14.4" fill="#009af9" fill-rule="evenodd" fill-opacity="0.5" stroke="#000000" stroke-opacity="0.5" stroke-width="3.2"/>
<circle clip-path="url(#clip922)" cx="624.577" cy="580.086" r="14.4" fill="#009af9" fill-rule="evenodd" fill-opacity="0.5" stroke="#000000" stroke-opacity="0.5" stroke-width="3.2"/>
<circle clip-path="url(#clip922)" cx="1956.11" cy="484.17" r="14.4" fill="#009af9" fill-rule="evenodd" fill-opacity="0.5" stroke="#000000" stroke-opacity="0.5" stroke-width="3.2"/>
<circle clip-path="url(#clip922)" cx="288.59" cy="451.514" r="14.4" fill="#009af9" fill-rule="evenodd" fill-opacity="0.5" stroke="#000000" stroke-opacity="0.5" stroke-width="3.2"/>
<circle clip-path="url(#clip922)" cx="1938.13" cy="884.064" r="14.4" fill="#009af9" fill-rule="evenodd" fill-opacity="0.5" stroke="#000000" stroke-opacity="0.5" stroke-width="3.2"/>
<circle clip-path="url(#clip922)" cx="284.173" cy="315.899" r="14.4" fill="#009af9" fill-rule="evenodd" fill-opacity="0.5" stroke="#000000" stroke-opacity="0.5" stroke-width="3.2"/>
<circle clip-path="url(#clip922)" cx="967.056" cy="1142.2" r="14.4" fill="#009af9" fill-rule="evenodd" fill-opacity="0.5" stroke="#000000" stroke-opacity="0.5" stroke-width="3.2"/>
<circle clip-path="url(#clip922)" cx="890.409" cy="771.45" r="14.4" fill="#009af9" fill-rule="evenodd" fill-opacity="0.5" stroke="#000000" stroke-opacity="0.5" stroke-width="3.2"/>
<circle clip-path="url(#clip922)" cx="1377.25" cy="714.11" r="14.4" fill="#009af9" fill-rule="evenodd" fill-opacity="0.5" stroke="#000000" stroke-opacity="0.5" stroke-width="3.2"/>
<circle clip-path="url(#clip922)" cx="990.733" cy="718.515" r="14.4" fill="#009af9" fill-rule="evenodd" fill-opacity="0.5" stroke="#000000" stroke-opacity="0.5" stroke-width="3.2"/>
<circle clip-path="url(#clip922)" cx="1640.74" cy="950.867" r="14.4" fill="#009af9" fill-rule="evenodd" fill-opacity="0.5" stroke="#000000" stroke-opacity="0.5" stroke-width="3.2"/>
<circle clip-path="url(#clip922)" cx="1847.35" cy="872.259" r="14.4" fill="#009af9" fill-rule="evenodd" fill-opacity="0.5" stroke="#000000" stroke-opacity="0.5" stroke-width="3.2"/>
<circle clip-path="url(#clip922)" cx="946.281" cy="976.825" r="14.4" fill="#009af9" fill-rule="evenodd" fill-opacity="0.5" stroke="#000000" stroke-opacity="0.5" stroke-width="3.2"/>
<circle clip-path="url(#clip922)" cx="1072.18" cy="869.015" r="14.4" fill="#009af9" fill-rule="evenodd" fill-opacity="0.5" stroke="#000000" stroke-opacity="0.5" stroke-width="3.2"/>
<circle clip-path="url(#clip922)" cx="1765.69" cy="1078.51" r="14.4" fill="#009af9" fill-rule="evenodd" fill-opacity="0.5" stroke="#000000" stroke-opacity="0.5" stroke-width="3.2"/>
<circle clip-path="url(#clip922)" cx="2290.34" cy="1285.15" r="14.4" fill="#009af9" fill-rule="evenodd" fill-opacity="0.5" stroke="#000000" stroke-opacity="0.5" stroke-width="3.2"/>
<circle clip-path="url(#clip922)" cx="533.669" cy="687.01" r="14.4" fill="#009af9" fill-rule="evenodd" fill-opacity="0.5" stroke="#000000" stroke-opacity="0.5" stroke-width="3.2"/>
<circle clip-path="url(#clip922)" cx="775.476" cy="621.931" r="14.4" fill="#009af9" fill-rule="evenodd" fill-opacity="0.5" stroke="#000000" stroke-opacity="0.5" stroke-width="3.2"/>
<circle clip-path="url(#clip922)" cx="467.636" cy="398.423" r="14.4" fill="#009af9" fill-rule="evenodd" fill-opacity="0.5" stroke="#000000" stroke-opacity="0.5" stroke-width="3.2"/>
<circle clip-path="url(#clip922)" cx="1500.63" cy="1163.87" r="14.4" fill="#009af9" fill-rule="evenodd" fill-opacity="0.5" stroke="#000000" stroke-opacity="0.5" stroke-width="3.2"/>
<circle clip-path="url(#clip922)" cx="627.904" cy="788.209" r="14.4" fill="#009af9" fill-rule="evenodd" fill-opacity="0.5" stroke="#000000" stroke-opacity="0.5" stroke-width="3.2"/>
<circle clip-path="url(#clip922)" cx="799.545" cy="737.766" r="14.4" fill="#009af9" fill-rule="evenodd" fill-opacity="0.5" stroke="#000000" stroke-opacity="0.5" stroke-width="3.2"/>
<path clip-path="url(#clip922)" d="M209.891 764.876 L1265.05 1445.72 L2290.34 1285.15 L1956.11 484.17 L1178.17 87.9763 L284.173 315.899 L209.891 764.876 L209.891 764.876  Z" fill="#e26f46" fill-rule="evenodd" fill-opacity="0.2"/>
<polyline clip-path="url(#clip922)" style="stroke:#000000; stroke-linecap:round; stroke-linejoin:round; stroke-width:4; stroke-opacity:0.2; fill:none" points="209.891,764.876 1265.05,1445.72 2290.34,1285.15 1956.11,484.17 1178.17,87.9763 284.173,315.899 209.891,764.876 "/>
</svg>
