<?xml version="1.0" encoding="utf-8"?>
<svg xmlns="http://www.w3.org/2000/svg" xmlns:xlink="http://www.w3.org/1999/xlink" width="600" height="400" viewBox="0 0 2400 1600">
<defs>
  <clipPath id="clip890">
    <rect x="0" y="0" width="2400" height="1600"/>
  </clipPath>
</defs>
<path clip-path="url(#clip890)" d="M0 1600 L2400 1600 L2400 0 L0 0  Z" fill="#ffffff" fill-rule="evenodd" fill-opacity="1"/>
<defs>
  <clipPath id="clip891">
    <rect x="480" y="0" width="1681" height="1600"/>
  </clipPath>
</defs>
<path clip-path="url(#clip890)" d="M147.478 1486.45 L2352.76 1486.45 L2352.76 47.2441 L147.478 47.2441  Z" fill="#ffffff" fill-rule="evenodd" fill-opacity="1"/>
<defs>
  <clipPath id="clip892">
    <rect x="147" y="47" width="2206" height="1440"/>
  </clipPath>
</defs>
<polyline clip-path="url(#clip892)" style="stroke:#000000; stroke-linecap:round; stroke-linejoin:round; stroke-width:2; stroke-opacity:0.1; fill:none" points="413.989,1486.45 413.989,47.2441 "/>
<polyline clip-path="url(#clip892)" style="stroke:#000000; stroke-linecap:round; stroke-linejoin:round; stroke-width:2; stroke-opacity:0.1; fill:none" points="698.877,1486.45 698.877,47.2441 "/>
<polyline clip-path="url(#clip892)" style="stroke:#000000; stroke-linecap:round; stroke-linejoin:round; stroke-width:2; stroke-opacity:0.1; fill:none" points="983.766,1486.45 983.766,47.2441 "/>
<polyline clip-path="url(#clip892)" style="stroke:#000000; stroke-linecap:round; stroke-linejoin:round; stroke-width:2; stroke-opacity:0.1; fill:none" points="1268.65,1486.45 1268.65,47.2441 "/>
<polyline clip-path="url(#clip892)" style="stroke:#000000; stroke-linecap:round; stroke-linejoin:round; stroke-width:2; stroke-opacity:0.1; fill:none" points="1553.54,1486.45 1553.54,47.2441 "/>
<polyline clip-path="url(#clip892)" style="stroke:#000000; stroke-linecap:round; stroke-linejoin:round; stroke-width:2; stroke-opacity:0.1; fill:none" points="1838.43,1486.45 1838.43,47.2441 "/>
<polyline clip-path="url(#clip892)" style="stroke:#000000; stroke-linecap:round; stroke-linejoin:round; stroke-width:2; stroke-opacity:0.1; fill:none" points="2123.32,1486.45 2123.32,47.2441 "/>
<polyline clip-path="url(#clip892)" style="stroke:#000000; stroke-linecap:round; stroke-linejoin:round; stroke-width:2; stroke-opacity:0.1; fill:none" points="147.478,1448.05 2352.76,1448.05 "/>
<polyline clip-path="url(#clip892)" style="stroke:#000000; stroke-linecap:round; stroke-linejoin:round; stroke-width:2; stroke-opacity:0.1; fill:none" points="147.478,1055.18 2352.76,1055.18 "/>
<polyline clip-path="url(#clip892)" style="stroke:#000000; stroke-linecap:round; stroke-linejoin:round; stroke-width:2; stroke-opacity:0.1; fill:none" points="147.478,662.314 2352.76,662.314 "/>
<polyline clip-path="url(#clip892)" style="stroke:#000000; stroke-linecap:round; stroke-linejoin:round; stroke-width:2; stroke-opacity:0.1; fill:none" points="147.478,269.446 2352.76,269.446 "/>
<polyline clip-path="url(#clip890)" style="stroke:#000000; stroke-linecap:round; stroke-linejoin:round; stroke-width:4; stroke-opacity:1; fill:none" points="147.478,1486.45 2352.76,1486.45 "/>
<polyline clip-path="url(#clip890)" style="stroke:#000000; stroke-linecap:round; stroke-linejoin:round; stroke-width:4; stroke-opacity:1; fill:none" points="413.989,1486.45 413.989,1467.55 "/>
<polyline clip-path="url(#clip890)" style="stroke:#000000; stroke-linecap:round; stroke-linejoin:round; stroke-width:4; stroke-opacity:1; fill:none" points="698.877,1486.45 698.877,1467.55 "/>
<polyline clip-path="url(#clip890)" style="stroke:#000000; stroke-linecap:round; stroke-linejoin:round; stroke-width:4; stroke-opacity:1; fill:none" points="983.766,1486.45 983.766,1467.55 "/>
<polyline clip-path="url(#clip890)" style="stroke:#000000; stroke-linecap:round; stroke-linejoin:round; stroke-width:4; stroke-opacity:1; fill:none" points="1268.65,1486.45 1268.65,1467.55 "/>
<polyline clip-path="url(#clip890)" style="stroke:#000000; stroke-linecap:round; stroke-linejoin:round; stroke-width:4; stroke-opacity:1; fill:none" points="1553.54,1486.45 1553.54,1467.55 "/>
<polyline clip-path="url(#clip890)" style="stroke:#000000; stroke-linecap:round; stroke-linejoin:round; stroke-width:4; stroke-opacity:1; fill:none" points="1838.43,1486.45 1838.43,1467.55 "/>
<polyline clip-path="url(#clip890)" style="stroke:#000000; stroke-linecap:round; stroke-linejoin:round; stroke-width:4; stroke-opacity:1; fill:none" points="2123.32,1486.45 2123.32,1467.55 "/>
<path clip-path="url(#clip890)" d="M361.015 1532.02 L390.69 1532.02 L390.69 1535.95 L361.015 1535.95 L361.015 1532.02 Z" fill="#000000" fill-rule="nonzero" fill-opacity="1" /><path clip-path="url(#clip890)" d="M401.593 1544.91 L409.232 1544.91 L409.232 1518.55 L400.922 1520.21 L400.922 1515.95 L409.186 1514.29 L413.862 1514.29 L413.862 1544.91 L421.5 1544.91 L421.5 1548.85 L401.593 1548.85 L401.593 1544.91 Z" fill="#000000" fill-rule="nonzero" fill-opacity="1" /><path clip-path="url(#clip890)" d="M430.945 1542.97 L435.829 1542.97 L435.829 1548.85 L430.945 1548.85 L430.945 1542.97 Z" fill="#000000" fill-rule="nonzero" fill-opacity="1" /><path clip-path="url(#clip890)" d="M446.06 1514.29 L464.417 1514.29 L464.417 1518.22 L450.343 1518.22 L450.343 1526.7 Q451.361 1526.35 452.38 1526.19 Q453.398 1526 454.417 1526 Q460.204 1526 463.583 1529.17 Q466.963 1532.34 466.963 1537.76 Q466.963 1543.34 463.491 1546.44 Q460.019 1549.52 453.699 1549.52 Q451.523 1549.52 449.255 1549.15 Q447.009 1548.78 444.602 1548.04 L444.602 1543.34 Q446.685 1544.47 448.908 1545.03 Q451.13 1545.58 453.607 1545.58 Q457.611 1545.58 459.949 1543.48 Q462.287 1541.37 462.287 1537.76 Q462.287 1534.15 459.949 1532.04 Q457.611 1529.94 453.607 1529.94 Q451.732 1529.94 449.857 1530.35 Q448.005 1530.77 446.06 1531.65 L446.06 1514.29 Z" fill="#000000" fill-rule="nonzero" fill-opacity="1" /><path clip-path="url(#clip890)" d="M645.406 1532.02 L675.081 1532.02 L675.081 1535.95 L645.406 1535.95 L645.406 1532.02 Z" fill="#000000" fill-rule="nonzero" fill-opacity="1" /><path clip-path="url(#clip890)" d="M685.984 1544.91 L693.623 1544.91 L693.623 1518.55 L685.313 1520.21 L685.313 1515.95 L693.577 1514.29 L698.252 1514.29 L698.252 1544.91 L705.891 1544.91 L705.891 1548.85 L685.984 1548.85 L685.984 1544.91 Z" fill="#000000" fill-rule="nonzero" fill-opacity="1" /><path clip-path="url(#clip890)" d="M715.336 1542.97 L720.22 1542.97 L720.22 1548.85 L715.336 1548.85 L715.336 1542.97 Z" fill="#000000" fill-rule="nonzero" fill-opacity="1" /><path clip-path="url(#clip890)" d="M740.405 1517.37 Q736.794 1517.37 734.965 1520.93 Q733.16 1524.47 733.16 1531.6 Q733.16 1538.71 734.965 1542.27 Q736.794 1545.82 740.405 1545.82 Q744.039 1545.82 745.845 1542.27 Q747.674 1538.71 747.674 1531.6 Q747.674 1524.47 745.845 1520.93 Q744.039 1517.37 740.405 1517.37 M740.405 1513.66 Q746.215 1513.66 749.271 1518.27 Q752.349 1522.85 752.349 1531.6 Q752.349 1540.33 749.271 1544.94 Q746.215 1549.52 740.405 1549.52 Q734.595 1549.52 731.516 1544.94 Q728.461 1540.33 728.461 1531.6 Q728.461 1522.85 731.516 1518.27 Q734.595 1513.66 740.405 1513.66 Z" fill="#000000" fill-rule="nonzero" fill-opacity="1" /><path clip-path="url(#clip890)" d="M930.792 1532.02 L960.468 1532.02 L960.468 1535.95 L930.792 1535.95 L930.792 1532.02 Z" fill="#000000" fill-rule="nonzero" fill-opacity="1" /><path clip-path="url(#clip890)" d="M980.56 1517.37 Q976.949 1517.37 975.12 1520.93 Q973.315 1524.47 973.315 1531.6 Q973.315 1538.71 975.12 1542.27 Q976.949 1545.82 980.56 1545.82 Q984.194 1545.82 986 1542.27 Q987.829 1538.71 987.829 1531.6 Q987.829 1524.47 986 1520.93 Q984.194 1517.37 980.56 1517.37 M980.56 1513.66 Q986.37 1513.66 989.426 1518.27 Q992.505 1522.85 992.505 1531.6 Q992.505 1540.33 989.426 1544.94 Q986.37 1549.52 980.56 1549.52 Q974.75 1549.52 971.671 1544.94 Q968.616 1540.33 968.616 1531.6 Q968.616 1522.85 971.671 1518.27 Q974.75 1513.66 980.56 1513.66 Z" fill="#000000" fill-rule="nonzero" fill-opacity="1" /><path clip-path="url(#clip890)" d="M1000.72 1542.97 L1005.61 1542.97 L1005.61 1548.85 L1000.72 1548.85 L1000.72 1542.97 Z" fill="#000000" fill-rule="nonzero" fill-opacity="1" /><path clip-path="url(#clip890)" d="M1015.84 1514.29 L1034.19 1514.29 L1034.19 1518.22 L1020.12 1518.22 L1020.12 1526.7 Q1021.14 1526.35 1022.16 1526.19 Q1023.18 1526 1024.19 1526 Q1029.98 1526 1033.36 1529.17 Q1036.74 1532.34 1036.74 1537.76 Q1036.74 1543.34 1033.27 1546.44 Q1029.8 1549.52 1023.48 1549.52 Q1021.3 1549.52 1019.03 1549.15 Q1016.79 1548.78 1014.38 1548.04 L1014.38 1543.34 Q1016.46 1544.47 1018.68 1545.03 Q1020.91 1545.58 1023.38 1545.58 Q1027.39 1545.58 1029.73 1543.48 Q1032.06 1541.37 1032.06 1537.76 Q1032.06 1534.15 1029.73 1532.04 Q1027.39 1529.94 1023.38 1529.94 Q1021.51 1529.94 1019.63 1530.35 Q1017.78 1530.77 1015.84 1531.65 L1015.84 1514.29 Z" fill="#000000" fill-rule="nonzero" fill-opacity="1" /><path clip-path="url(#clip890)" d="M1246.04 1517.37 Q1242.43 1517.37 1240.6 1520.93 Q1238.79 1524.47 1238.79 1531.6 Q1238.79 1538.71 1240.6 1542.27 Q1242.43 1545.82 1246.04 1545.82 Q1249.67 1545.82 1251.48 1542.27 Q1253.31 1538.71 1253.31 1531.6 Q1253.31 1524.47 1251.48 1520.93 Q1249.67 1517.37 1246.04 1517.37 M1246.04 1513.66 Q1251.85 1513.66 1254.9 1518.27 Q1257.98 1522.85 1257.98 1531.6 Q1257.98 1540.33 1254.9 1544.94 Q1251.85 1549.52 1246.04 1549.52 Q1240.23 1549.52 1237.15 1544.94 Q1234.09 1540.33 1234.09 1531.6 Q1234.09 1522.85 1237.15 1518.27 Q1240.23 1513.66 1246.04 1513.66 Z" fill="#000000" fill-rule="nonzero" fill-opacity="1" /><path clip-path="url(#clip890)" d="M1266.2 1542.97 L1271.09 1542.97 L1271.09 1548.85 L1266.2 1548.85 L1266.2 1542.97 Z" fill="#000000" fill-rule="nonzero" fill-opacity="1" /><path clip-path="url(#clip890)" d="M1291.27 1517.37 Q1287.66 1517.37 1285.83 1520.93 Q1284.03 1524.47 1284.03 1531.6 Q1284.03 1538.71 1285.83 1542.27 Q1287.66 1545.82 1291.27 1545.82 Q1294.9 1545.82 1296.71 1542.27 Q1298.54 1538.71 1298.54 1531.6 Q1298.54 1524.47 1296.71 1520.93 Q1294.9 1517.37 1291.27 1517.37 M1291.27 1513.66 Q1297.08 1513.66 1300.14 1518.27 Q1303.21 1522.85 1303.21 1531.6 Q1303.21 1540.33 1300.14 1544.94 Q1297.08 1549.52 1291.27 1549.52 Q1285.46 1549.52 1282.38 1544.94 Q1279.33 1540.33 1279.33 1531.6 Q1279.33 1522.85 1282.38 1518.27 Q1285.46 1513.66 1291.27 1513.66 Z" fill="#000000" fill-rule="nonzero" fill-opacity="1" /><path clip-path="url(#clip890)" d="M1531.43 1517.37 Q1527.81 1517.37 1525.99 1520.93 Q1524.18 1524.47 1524.18 1531.6 Q1524.18 1538.71 1525.99 1542.27 Q1527.81 1545.82 1531.43 1545.82 Q1535.06 1545.82 1536.87 1542.27 Q1538.69 1538.71 1538.69 1531.6 Q1538.69 1524.47 1536.87 1520.93 Q1535.06 1517.37 1531.43 1517.37 M1531.43 1513.66 Q1537.24 1513.66 1540.29 1518.27 Q1543.37 1522.85 1543.37 1531.6 Q1543.37 1540.33 1540.29 1544.94 Q1537.24 1549.52 1531.43 1549.52 Q1525.62 1549.52 1522.54 1544.94 Q1519.48 1540.33 1519.48 1531.6 Q1519.48 1522.85 1522.54 1518.27 Q1525.62 1513.66 1531.43 1513.66 Z" fill="#000000" fill-rule="nonzero" fill-opacity="1" /><path clip-path="url(#clip890)" d="M1551.59 1542.97 L1556.47 1542.97 L1556.47 1548.85 L1551.59 1548.85 L1551.59 1542.97 Z" fill="#000000" fill-rule="nonzero" fill-opacity="1" /><path clip-path="url(#clip890)" d="M1566.7 1514.29 L1585.06 1514.29 L1585.06 1518.22 L1570.99 1518.22 L1570.99 1526.7 Q1572 1526.35 1573.02 1526.19 Q1574.04 1526 1575.06 1526 Q1580.85 1526 1584.23 1529.17 Q1587.61 1532.34 1587.61 1537.76 Q1587.61 1543.34 1584.13 1546.44 Q1580.66 1549.52 1574.34 1549.52 Q1572.17 1549.52 1569.9 1549.15 Q1567.65 1548.78 1565.24 1548.04 L1565.24 1543.34 Q1567.33 1544.47 1569.55 1545.03 Q1571.77 1545.58 1574.25 1545.58 Q1578.25 1545.58 1580.59 1543.48 Q1582.93 1541.37 1582.93 1537.76 Q1582.93 1534.15 1580.59 1532.04 Q1578.25 1529.94 1574.25 1529.94 Q1572.37 1529.94 1570.5 1530.35 Q1568.65 1530.77 1566.7 1531.65 L1566.7 1514.29 Z" fill="#000000" fill-rule="nonzero" fill-opacity="1" /><path clip-path="url(#clip890)" d="M1805.59 1544.91 L1813.22 1544.91 L1813.22 1518.55 L1804.91 1520.21 L1804.91 1515.95 L1813.18 1514.29 L1817.85 1514.29 L1817.85 1544.91 L1825.49 1544.91 L1825.49 1548.85 L1805.59 1548.85 L1805.59 1544.91 Z" fill="#000000" fill-rule="nonzero" fill-opacity="1" /><path clip-path="url(#clip890)" d="M1834.94 1542.97 L1839.82 1542.97 L1839.82 1548.85 L1834.94 1548.85 L1834.94 1542.97 Z" fill="#000000" fill-rule="nonzero" fill-opacity="1" /><path clip-path="url(#clip890)" d="M1860.01 1517.37 Q1856.4 1517.37 1854.57 1520.93 Q1852.76 1524.47 1852.76 1531.6 Q1852.76 1538.71 1854.57 1542.27 Q1856.4 1545.82 1860.01 1545.82 Q1863.64 1545.82 1865.45 1542.27 Q1867.27 1538.71 1867.27 1531.6 Q1867.27 1524.47 1865.45 1520.93 Q1863.64 1517.37 1860.01 1517.37 M1860.01 1513.66 Q1865.82 1513.66 1868.87 1518.27 Q1871.95 1522.85 1871.95 1531.6 Q1871.95 1540.33 1868.87 1544.94 Q1865.82 1549.52 1860.01 1549.52 Q1854.2 1549.52 1851.12 1544.94 Q1848.06 1540.33 1848.06 1531.6 Q1848.06 1522.85 1851.12 1518.27 Q1854.2 1513.66 1860.01 1513.66 Z" fill="#000000" fill-rule="nonzero" fill-opacity="1" /><path clip-path="url(#clip890)" d="M2090.97 1544.91 L2098.61 1544.91 L2098.61 1518.55 L2090.3 1520.21 L2090.3 1515.95 L2098.56 1514.29 L2103.24 1514.29 L2103.24 1544.91 L2110.88 1544.91 L2110.88 1548.85 L2090.97 1548.85 L2090.97 1544.91 Z" fill="#000000" fill-rule="nonzero" fill-opacity="1" /><path clip-path="url(#clip890)" d="M2120.32 1542.97 L2125.21 1542.97 L2125.21 1548.85 L2120.32 1548.85 L2120.32 1542.97 Z" fill="#000000" fill-rule="nonzero" fill-opacity="1" /><path clip-path="url(#clip890)" d="M2135.44 1514.29 L2153.8 1514.29 L2153.8 1518.22 L2139.72 1518.22 L2139.72 1526.7 Q2140.74 1526.35 2141.76 1526.19 Q2142.78 1526 2143.8 1526 Q2149.58 1526 2152.96 1529.17 Q2156.34 1532.34 2156.34 1537.76 Q2156.34 1543.34 2152.87 1546.44 Q2149.4 1549.52 2143.08 1549.52 Q2140.9 1549.52 2138.63 1549.15 Q2136.39 1548.78 2133.98 1548.04 L2133.98 1543.34 Q2136.06 1544.47 2138.29 1545.03 Q2140.51 1545.58 2142.99 1545.58 Q2146.99 1545.58 2149.33 1543.48 Q2151.67 1541.37 2151.67 1537.76 Q2151.67 1534.15 2149.33 1532.04 Q2146.99 1529.94 2142.99 1529.94 Q2141.11 1529.94 2139.24 1530.35 Q2137.38 1530.77 2135.44 1531.65 L2135.44 1514.29 Z" fill="#000000" fill-rule="nonzero" fill-opacity="1" /><polyline clip-path="url(#clip890)" style="stroke:#000000; stroke-linecap:round; stroke-linejoin:round; stroke-width:4; stroke-opacity:1; fill:none" points="147.478,1486.45 147.478,47.2441 "/>
<polyline clip-path="url(#clip890)" style="stroke:#000000; stroke-linecap:round; stroke-linejoin:round; stroke-width:4; stroke-opacity:1; fill:none" points="147.478,1448.05 166.376,1448.05 "/>
<polyline clip-path="url(#clip890)" style="stroke:#000000; stroke-linecap:round; stroke-linejoin:round; stroke-width:4; stroke-opacity:1; fill:none" points="147.478,1055.18 166.376,1055.18 "/>
<polyline clip-path="url(#clip890)" style="stroke:#000000; stroke-linecap:round; stroke-linejoin:round; stroke-width:4; stroke-opacity:1; fill:none" points="147.478,662.314 166.376,662.314 "/>
<polyline clip-path="url(#clip890)" style="stroke:#000000; stroke-linecap:round; stroke-linejoin:round; stroke-width:4; stroke-opacity:1; fill:none" points="147.478,269.446 166.376,269.446 "/>
<path clip-path="url(#clip890)" d="M51.3625 1448.5 L81.0383 1448.5 L81.0383 1452.44 L51.3625 1452.44 L51.3625 1448.5 Z" fill="#000000" fill-rule="nonzero" fill-opacity="1" /><path clip-path="url(#clip890)" d="M95.1586 1461.4 L111.478 1461.4 L111.478 1465.33 L89.5336 1465.33 L89.5336 1461.4 Q92.1956 1458.64 96.7789 1454.01 Q101.385 1449.36 102.566 1448.02 Q104.811 1445.49 105.691 1443.76 Q106.594 1442 106.594 1440.31 Q106.594 1437.55 104.649 1435.82 Q102.728 1434.08 99.6261 1434.08 Q97.4271 1434.08 94.9734 1434.85 Q92.5428 1435.61 89.7651 1437.16 L89.7651 1432.44 Q92.5891 1431.3 95.0428 1430.73 Q97.4965 1430.15 99.5335 1430.15 Q104.904 1430.15 108.098 1432.83 Q111.293 1435.52 111.293 1440.01 Q111.293 1442.14 110.483 1444.06 Q109.696 1445.96 107.589 1448.55 Q107.01 1449.22 103.909 1452.44 Q100.807 1455.63 95.1586 1461.4 Z" fill="#000000" fill-rule="nonzero" fill-opacity="1" /><path clip-path="url(#clip890)" d="M50.9921 1055.63 L80.6679 1055.63 L80.6679 1059.57 L50.9921 1059.57 L50.9921 1055.63 Z" fill="#000000" fill-rule="nonzero" fill-opacity="1" /><path clip-path="url(#clip890)" d="M91.5706 1068.53 L99.2095 1068.53 L99.2095 1042.16 L90.8993 1043.83 L90.8993 1039.57 L99.1632 1037.9 L103.839 1037.9 L103.839 1068.53 L111.478 1068.53 L111.478 1072.46 L91.5706 1072.46 L91.5706 1068.53 Z" fill="#000000" fill-rule="nonzero" fill-opacity="1" /><path clip-path="url(#clip890)" d="M99.5335 648.113 Q95.9224 648.113 94.0937 651.678 Q92.2882 655.22 92.2882 662.349 Q92.2882 669.456 94.0937 673.02 Q95.9224 676.562 99.5335 676.562 Q103.168 676.562 104.973 673.02 Q106.802 669.456 106.802 662.349 Q106.802 655.22 104.973 651.678 Q103.168 648.113 99.5335 648.113 M99.5335 644.409 Q105.344 644.409 108.399 649.016 Q111.478 653.599 111.478 662.349 Q111.478 671.076 108.399 675.682 Q105.344 680.266 99.5335 680.266 Q93.7234 680.266 90.6447 675.682 Q87.5892 671.076 87.5892 662.349 Q87.5892 653.599 90.6447 649.016 Q93.7234 644.409 99.5335 644.409 Z" fill="#000000" fill-rule="nonzero" fill-opacity="1" /><path clip-path="url(#clip890)" d="M91.5706 282.79 L99.2095 282.79 L99.2095 256.425 L90.8993 258.092 L90.8993 253.832 L99.1632 252.166 L103.839 252.166 L103.839 282.79 L111.478 282.79 L111.478 286.726 L91.5706 286.726 L91.5706 282.79 Z" fill="#000000" fill-rule="nonzero" fill-opacity="1" /><circle clip-path="url(#clip892)" cx="1380.1" cy="118.202" r="14.4" fill="#009af9" fill-rule="evenodd" fill-opacity="0.5" stroke="#000000" stroke-opacity="0.5" stroke-width="3.2"/>
<circle clip-path="url(#clip892)" cx="848.781" cy="990.788" r="14.4" fill="#009af9" fill-rule="evenodd" fill-opacity="0.5" stroke="#000000" stroke-opacity="0.5" stroke-width="3.2"/>
<circle clip-path="url(#clip892)" cx="605.573" cy="675.491" r="14.4" fill="#009af9" fill-rule="evenodd" fill-opacity="0.5" stroke="#000000" stroke-opacity="0.5" stroke-width="3.2"/>
<circle clip-path="url(#clip892)" cx="749.775" cy="478.029" r="14.4" fill="#009af9" fill-rule="evenodd" fill-opacity="0.5" stroke="#000000" stroke-opacity="0.5" stroke-width="3.2"/>
<circle clip-path="url(#clip892)" cx="1175.62" cy="1160.55" r="14.4" fill="#009af9" fill-rule="evenodd" fill-opacity="0.5" stroke="#000000" stroke-opacity="0.5" stroke-width="3.2"/>
<circle clip-path="url(#clip892)" cx="889.084" cy="928.401" r="14.4" fill="#009af9" fill-rule="evenodd" fill-opacity="0.5" stroke="#000000" stroke-opacity="0.5" stroke-width="3.2"/>
<circle clip-path="url(#clip892)" cx="2290.34" cy="1002.55" r="14.4" fill="#009af9" fill-rule="evenodd" fill-opacity="0.5" stroke="#000000" stroke-opacity="0.5" stroke-width="3.2"/>
<circle clip-path="url(#clip892)" cx="1139.86" cy="1183.72" r="14.4" fill="#009af9" fill-rule="evenodd" fill-opacity="0.5" stroke="#000000" stroke-opacity="0.5" stroke-width="3.2"/>
<circle clip-path="url(#clip892)" cx="939.083" cy="1262.9" r="14.4" fill="#009af9" fill-rule="evenodd" fill-opacity="0.5" stroke="#000000" stroke-opacity="0.5" stroke-width="3.2"/>
<circle clip-path="url(#clip892)" cx="1137.26" cy="616.895" r="14.4" fill="#009af9" fill-rule="evenodd" fill-opacity="0.5" stroke="#000000" stroke-opacity="0.5" stroke-width="3.2"/>
<circle clip-path="url(#clip892)" cx="580.573" cy="747.694" r="14.4" fill="#009af9" fill-rule="evenodd" fill-opacity="0.5" stroke="#000000" stroke-opacity="0.5" stroke-width="3.2"/>
<circle clip-path="url(#clip892)" cx="1319.16" cy="1007.65" r="14.4" fill="#009af9" fill-rule="evenodd" fill-opacity="0.5" stroke="#000000" stroke-opacity="0.5" stroke-width="3.2"/>
<circle clip-path="url(#clip892)" cx="209.891" cy="223.858" r="14.4" fill="#009af9" fill-rule="evenodd" fill-opacity="0.5" stroke="#000000" stroke-opacity="0.5" stroke-width="3.2"/>
<circle clip-path="url(#clip892)" cx="1943.14" cy="649.29" r="14.4" fill="#009af9" fill-rule="evenodd" fill-opacity="0.5" stroke="#000000" stroke-opacity="0.5" stroke-width="3.2"/>
<circle clip-path="url(#clip892)" cx="950.124" cy="615.475" r="14.4" fill="#009af9" fill-rule="evenodd" fill-opacity="0.5" stroke="#000000" stroke-opacity="0.5" stroke-width="3.2"/>
<circle clip-path="url(#clip892)" cx="1397.86" cy="963.325" r="14.4" fill="#009af9" fill-rule="evenodd" fill-opacity="0.5" stroke="#000000" stroke-opacity="0.5" stroke-width="3.2"/>
<circle clip-path="url(#clip892)" cx="2139.29" cy="708.781" r="14.4" fill="#009af9" fill-rule="evenodd" fill-opacity="0.5" stroke="#000000" stroke-opacity="0.5" stroke-width="3.2"/>
<circle clip-path="url(#clip892)" cx="1473.51" cy="912.222" r="14.4" fill="#009af9" fill-rule="evenodd" fill-opacity="0.5" stroke="#000000" stroke-opacity="0.5" stroke-width="3.2"/>
<circle clip-path="url(#clip892)" cx="1718.58" cy="713.551" r="14.4" fill="#009af9" fill-rule="evenodd" fill-opacity="0.5" stroke="#000000" stroke-opacity="0.5" stroke-width="3.2"/>
<circle clip-path="url(#clip892)" cx="1998.96" cy="87.9763" r="14.4" fill="#009af9" fill-rule="evenodd" fill-opacity="0.5" stroke="#000000" stroke-opacity="0.5" stroke-width="3.2"/>
<circle clip-path="url(#clip892)" cx="1527.1" cy="632.884" r="14.4" fill="#009af9" fill-rule="evenodd" fill-opacity="0.5" stroke="#000000" stroke-opacity="0.5" stroke-width="3.2"/>
<circle clip-path="url(#clip892)" cx="1161.77" cy="1273.67" r="14.4" fill="#009af9" fill-rule="evenodd" fill-opacity="0.5" stroke="#000000" stroke-opacity="0.5" stroke-width="3.2"/>
<circle clip-path="url(#clip892)" cx="1375.02" cy="1445.72" r="14.4" fill="#009af9" fill-rule="evenodd" fill-opacity="0.5" stroke="#000000" stroke-opacity="0.5" stroke-width="3.2"/>
<circle clip-path="url(#clip892)" cx="685.221" cy="631.823" r="14.4" fill="#009af9" fill-rule="evenodd" fill-opacity="0.5" stroke="#000000" stroke-opacity="0.5" stroke-width="3.2"/>
<circle clip-path="url(#clip892)" cx="1577.91" cy="854.546" r="14.4" fill="#009af9" fill-rule="evenodd" fill-opacity="0.5" stroke="#000000" stroke-opacity="0.5" stroke-width="3.2"/>
<circle clip-path="url(#clip892)" cx="1854.89" cy="423.233" r="14.4" fill="#009af9" fill-rule="evenodd" fill-opacity="0.5" stroke="#000000" stroke-opacity="0.5" stroke-width="3.2"/>
<circle clip-path="url(#clip892)" cx="1021.95" cy="604.702" r="14.4" fill="#009af9" fill-rule="evenodd" fill-opacity="0.5" stroke="#000000" stroke-opacity="0.5" stroke-width="3.2"/>
<circle clip-path="url(#clip892)" cx="561.029" cy="1092.82" r="14.4" fill="#009af9" fill-rule="evenodd" fill-opacity="0.5" stroke="#000000" stroke-opacity="0.5" stroke-width="3.2"/>
<circle clip-path="url(#clip892)" cx="1385.56" cy="1013.94" r="14.4" fill="#009af9" fill-rule="evenodd" fill-opacity="0.5" stroke="#000000" stroke-opacity="0.5" stroke-width="3.2"/>
<circle clip-path="url(#clip892)" cx="459.199" cy="350.577" r="14.4" fill="#009af9" fill-rule="evenodd" fill-opacity="0.5" stroke="#000000" stroke-opacity="0.5" stroke-width="3.2"/>
<path clip-path="url(#clip892)" d="M209.891 223.858 L561.029 1092.82 L939.083 1262.9 L1375.02 1445.72 L2290.34 1002.55 L1998.96 87.9763 L1380.1 118.202 L209.891 223.858 L209.891 223.858  Z" fill="#e26f46" fill-rule="evenodd" fill-opacity="0.2"/>
<polyline clip-path="url(#clip892)" style="stroke:#000000; stroke-linecap:round; stroke-linejoin:round; stroke-width:4; stroke-opacity:0.2; fill:none" points="209.891,223.858 561.029,1092.82 939.083,1262.9 1375.02,1445.72 2290.34,1002.55 1998.96,87.9763 1380.1,118.202 209.891,223.858 "/>
</svg>
