<?xml version="1.0" encoding="utf-8"?>
<svg xmlns="http://www.w3.org/2000/svg" xmlns:xlink="http://www.w3.org/1999/xlink" width="600" height="400" viewBox="0 0 2400 1600">
<defs>
  <clipPath id="clip970">
    <rect x="0" y="0" width="2400" height="1600"/>
  </clipPath>
</defs>
<path clip-path="url(#clip970)" d="M0 1600 L2400 1600 L2400 0 L0 0  Z" fill="#ffffff" fill-rule="evenodd" fill-opacity="1"/>
<defs>
  <clipPath id="clip971">
    <rect x="480" y="0" width="1681" height="1600"/>
  </clipPath>
</defs>
<path clip-path="url(#clip970)" d="M148.057 1486.45 L2352.76 1486.45 L2352.76 47.2441 L148.057 47.2441  Z" fill="#ffffff" fill-rule="evenodd" fill-opacity="1"/>
<defs>
  <clipPath id="clip972">
    <rect x="148" y="47" width="2206" height="1440"/>
  </clipPath>
</defs>
<polyline clip-path="url(#clip972)" style="stroke:#000000; stroke-linecap:round; stroke-linejoin:round; stroke-width:2; stroke-opacity:0.1; fill:none" points="386.231,1486.45 386.231,47.2441 "/>
<polyline clip-path="url(#clip972)" style="stroke:#000000; stroke-linecap:round; stroke-linejoin:round; stroke-width:2; stroke-opacity:0.1; fill:none" points="921.711,1486.45 921.711,47.2441 "/>
<polyline clip-path="url(#clip972)" style="stroke:#000000; stroke-linecap:round; stroke-linejoin:round; stroke-width:2; stroke-opacity:0.1; fill:none" points="1457.19,1486.45 1457.19,47.2441 "/>
<polyline clip-path="url(#clip972)" style="stroke:#000000; stroke-linecap:round; stroke-linejoin:round; stroke-width:2; stroke-opacity:0.1; fill:none" points="1992.67,1486.45 1992.67,47.2441 "/>
<polyline clip-path="url(#clip972)" style="stroke:#000000; stroke-linecap:round; stroke-linejoin:round; stroke-width:2; stroke-opacity:0.1; fill:none" points="148.057,1486.17 2352.76,1486.17 "/>
<polyline clip-path="url(#clip972)" style="stroke:#000000; stroke-linecap:round; stroke-linejoin:round; stroke-width:2; stroke-opacity:0.1; fill:none" points="148.057,1259.28 2352.76,1259.28 "/>
<polyline clip-path="url(#clip972)" style="stroke:#000000; stroke-linecap:round; stroke-linejoin:round; stroke-width:2; stroke-opacity:0.1; fill:none" points="148.057,1032.4 2352.76,1032.4 "/>
<polyline clip-path="url(#clip972)" style="stroke:#000000; stroke-linecap:round; stroke-linejoin:round; stroke-width:2; stroke-opacity:0.1; fill:none" points="148.057,805.511 2352.76,805.511 "/>
<polyline clip-path="url(#clip972)" style="stroke:#000000; stroke-linecap:round; stroke-linejoin:round; stroke-width:2; stroke-opacity:0.1; fill:none" points="148.057,578.625 2352.76,578.625 "/>
<polyline clip-path="url(#clip972)" style="stroke:#000000; stroke-linecap:round; stroke-linejoin:round; stroke-width:2; stroke-opacity:0.1; fill:none" points="148.057,351.739 2352.76,351.739 "/>
<polyline clip-path="url(#clip972)" style="stroke:#000000; stroke-linecap:round; stroke-linejoin:round; stroke-width:2; stroke-opacity:0.1; fill:none" points="148.057,124.853 2352.76,124.853 "/>
<polyline clip-path="url(#clip970)" style="stroke:#000000; stroke-linecap:round; stroke-linejoin:round; stroke-width:4; stroke-opacity:1; fill:none" points="148.057,1486.45 2352.76,1486.45 "/>
<polyline clip-path="url(#clip970)" style="stroke:#000000; stroke-linecap:round; stroke-linejoin:round; stroke-width:4; stroke-opacity:1; fill:none" points="386.231,1486.45 386.231,1467.55 "/>
<polyline clip-path="url(#clip970)" style="stroke:#000000; stroke-linecap:round; stroke-linejoin:round; stroke-width:4; stroke-opacity:1; fill:none" points="921.711,1486.45 921.711,1467.55 "/>
<polyline clip-path="url(#clip970)" style="stroke:#000000; stroke-linecap:round; stroke-linejoin:round; stroke-width:4; stroke-opacity:1; fill:none" points="1457.19,1486.45 1457.19,1467.55 "/>
<polyline clip-path="url(#clip970)" style="stroke:#000000; stroke-linecap:round; stroke-linejoin:round; stroke-width:4; stroke-opacity:1; fill:none" points="1992.67,1486.45 1992.67,1467.55 "/>
<path clip-path="url(#clip970)" d="M356.173 1532.02 L385.849 1532.02 L385.849 1535.95 L356.173 1535.95 L356.173 1532.02 Z" fill="#000000" fill-rule="nonzero" fill-opacity="1" /><path clip-path="url(#clip970)" d="M399.969 1544.91 L416.288 1544.91 L416.288 1548.85 L394.344 1548.85 L394.344 1544.91 Q397.006 1542.16 401.589 1537.53 Q406.196 1532.88 407.376 1531.53 Q409.622 1529.01 410.501 1527.27 Q411.404 1525.51 411.404 1523.82 Q411.404 1521.07 409.46 1519.33 Q407.538 1517.6 404.437 1517.6 Q402.238 1517.6 399.784 1518.36 Q397.353 1519.13 394.576 1520.68 L394.576 1515.95 Q397.4 1514.82 399.853 1514.24 Q402.307 1513.66 404.344 1513.66 Q409.714 1513.66 412.909 1516.35 Q416.103 1519.03 416.103 1523.52 Q416.103 1525.65 415.293 1527.57 Q414.506 1529.47 412.399 1532.07 Q411.821 1532.74 408.719 1535.95 Q405.617 1539.15 399.969 1544.91 Z" fill="#000000" fill-rule="nonzero" fill-opacity="1" /><path clip-path="url(#clip970)" d="M891.468 1532.02 L921.144 1532.02 L921.144 1535.95 L891.468 1535.95 L891.468 1532.02 Z" fill="#000000" fill-rule="nonzero" fill-opacity="1" /><path clip-path="url(#clip970)" d="M932.046 1544.91 L939.685 1544.91 L939.685 1518.55 L931.375 1520.21 L931.375 1515.95 L939.639 1514.29 L944.315 1514.29 L944.315 1544.91 L951.954 1544.91 L951.954 1548.85 L932.046 1548.85 L932.046 1544.91 Z" fill="#000000" fill-rule="nonzero" fill-opacity="1" /><path clip-path="url(#clip970)" d="M1457.19 1517.37 Q1453.58 1517.37 1451.75 1520.93 Q1449.95 1524.47 1449.95 1531.6 Q1449.95 1538.71 1451.75 1542.27 Q1453.58 1545.82 1457.19 1545.82 Q1460.83 1545.82 1462.63 1542.27 Q1464.46 1538.71 1464.46 1531.6 Q1464.46 1524.47 1462.63 1520.93 Q1460.83 1517.37 1457.19 1517.37 M1457.19 1513.66 Q1463 1513.66 1466.06 1518.27 Q1469.14 1522.85 1469.14 1531.6 Q1469.14 1540.33 1466.06 1544.94 Q1463 1549.52 1457.19 1549.52 Q1451.38 1549.52 1448.3 1544.94 Q1445.25 1540.33 1445.25 1531.6 Q1445.25 1522.85 1448.3 1518.27 Q1451.38 1513.66 1457.19 1513.66 Z" fill="#000000" fill-rule="nonzero" fill-opacity="1" /><path clip-path="url(#clip970)" d="M1983.05 1544.91 L1990.69 1544.91 L1990.69 1518.55 L1982.38 1520.21 L1982.38 1515.95 L1990.65 1514.29 L1995.32 1514.29 L1995.32 1544.91 L2002.96 1544.91 L2002.96 1548.85 L1983.05 1548.85 L1983.05 1544.91 Z" fill="#000000" fill-rule="nonzero" fill-opacity="1" /><polyline clip-path="url(#clip970)" style="stroke:#000000; stroke-linecap:round; stroke-linejoin:round; stroke-width:4; stroke-opacity:1; fill:none" points="148.057,1486.45 148.057,47.2441 "/>
<polyline clip-path="url(#clip970)" style="stroke:#000000; stroke-linecap:round; stroke-linejoin:round; stroke-width:4; stroke-opacity:1; fill:none" points="148.057,1486.17 166.954,1486.17 "/>
<polyline clip-path="url(#clip970)" style="stroke:#000000; stroke-linecap:round; stroke-linejoin:round; stroke-width:4; stroke-opacity:1; fill:none" points="148.057,1259.28 166.954,1259.28 "/>
<polyline clip-path="url(#clip970)" style="stroke:#000000; stroke-linecap:round; stroke-linejoin:round; stroke-width:4; stroke-opacity:1; fill:none" points="148.057,1032.4 166.954,1032.4 "/>
<polyline clip-path="url(#clip970)" style="stroke:#000000; stroke-linecap:round; stroke-linejoin:round; stroke-width:4; stroke-opacity:1; fill:none" points="148.057,805.511 166.954,805.511 "/>
<polyline clip-path="url(#clip970)" style="stroke:#000000; stroke-linecap:round; stroke-linejoin:round; stroke-width:4; stroke-opacity:1; fill:none" points="148.057,578.625 166.954,578.625 "/>
<polyline clip-path="url(#clip970)" style="stroke:#000000; stroke-linecap:round; stroke-linejoin:round; stroke-width:4; stroke-opacity:1; fill:none" points="148.057,351.739 166.954,351.739 "/>
<polyline clip-path="url(#clip970)" style="stroke:#000000; stroke-linecap:round; stroke-linejoin:round; stroke-width:4; stroke-opacity:1; fill:none" points="148.057,124.853 166.954,124.853 "/>
<path clip-path="url(#clip970)" d="M50.9921 1486.62 L80.6679 1486.62 L80.6679 1490.56 L50.9921 1490.56 L50.9921 1486.62 Z" fill="#000000" fill-rule="nonzero" fill-opacity="1" /><path clip-path="url(#clip970)" d="M104.927 1484.82 Q108.283 1485.53 110.158 1487.8 Q112.057 1490.07 112.057 1493.4 Q112.057 1498.52 108.538 1501.32 Q105.02 1504.12 98.5382 1504.12 Q96.3623 1504.12 94.0475 1503.68 Q91.7558 1503.26 89.3021 1502.41 L89.3021 1497.89 Q91.2465 1499.03 93.5613 1499.61 Q95.8761 1500.19 98.3993 1500.19 Q102.797 1500.19 105.089 1498.45 Q107.404 1496.71 107.404 1493.4 Q107.404 1490.35 105.251 1488.63 Q103.121 1486.9 99.3021 1486.9 L95.2743 1486.9 L95.2743 1483.06 L99.4872 1483.06 Q102.936 1483.06 104.765 1481.69 Q106.594 1480.3 106.594 1477.71 Q106.594 1475.05 104.696 1473.63 Q102.821 1472.2 99.3021 1472.2 Q97.3808 1472.2 95.1817 1472.62 Q92.9826 1473.03 90.3438 1473.91 L90.3438 1469.75 Q93.0058 1469.01 95.3206 1468.63 Q97.6585 1468.26 99.7187 1468.26 Q105.043 1468.26 108.145 1470.7 Q111.246 1473.1 111.246 1477.22 Q111.246 1480.09 109.603 1482.08 Q107.959 1484.05 104.927 1484.82 Z" fill="#000000" fill-rule="nonzero" fill-opacity="1" /><path clip-path="url(#clip970)" d="M51.9412 1259.73 L81.617 1259.73 L81.617 1263.67 L51.9412 1263.67 L51.9412 1259.73 Z" fill="#000000" fill-rule="nonzero" fill-opacity="1" /><path clip-path="url(#clip970)" d="M95.7373 1272.63 L112.057 1272.63 L112.057 1276.56 L90.1123 1276.56 L90.1123 1272.63 Q92.7743 1269.87 97.3576 1265.24 Q101.964 1260.59 103.145 1259.25 Q105.39 1256.73 106.27 1254.99 Q107.172 1253.23 107.172 1251.54 Q107.172 1248.79 105.228 1247.05 Q103.307 1245.31 100.205 1245.31 Q98.0058 1245.31 95.5521 1246.08 Q93.1215 1246.84 90.3438 1248.39 L90.3438 1243.67 Q93.1678 1242.54 95.6215 1241.96 Q98.0752 1241.38 100.112 1241.38 Q105.483 1241.38 108.677 1244.06 Q111.871 1246.75 111.871 1251.24 Q111.871 1253.37 111.061 1255.29 Q110.274 1257.19 108.168 1259.78 Q107.589 1260.45 104.487 1263.67 Q101.385 1266.86 95.7373 1272.63 Z" fill="#000000" fill-rule="nonzero" fill-opacity="1" /><path clip-path="url(#clip970)" d="M51.5708 1032.85 L81.2466 1032.85 L81.2466 1036.78 L51.5708 1036.78 L51.5708 1032.85 Z" fill="#000000" fill-rule="nonzero" fill-opacity="1" /><path clip-path="url(#clip970)" d="M92.1493 1045.74 L99.7882 1045.74 L99.7882 1019.38 L91.478 1021.04 L91.478 1016.78 L99.7419 1015.12 L104.418 1015.12 L104.418 1045.74 L112.057 1045.74 L112.057 1049.68 L92.1493 1049.68 L92.1493 1045.74 Z" fill="#000000" fill-rule="nonzero" fill-opacity="1" /><path clip-path="url(#clip970)" d="M100.112 791.31 Q96.5011 791.31 94.6724 794.875 Q92.8669 798.417 92.8669 805.546 Q92.8669 812.653 94.6724 816.217 Q96.5011 819.759 100.112 819.759 Q103.746 819.759 105.552 816.217 Q107.381 812.653 107.381 805.546 Q107.381 798.417 105.552 794.875 Q103.746 791.31 100.112 791.31 M100.112 787.607 Q105.922 787.607 108.978 792.213 Q112.057 796.796 112.057 805.546 Q112.057 814.273 108.978 818.879 Q105.922 823.463 100.112 823.463 Q94.3021 823.463 91.2234 818.879 Q88.1679 814.273 88.1679 805.546 Q88.1679 796.796 91.2234 792.213 Q94.3021 787.607 100.112 787.607 Z" fill="#000000" fill-rule="nonzero" fill-opacity="1" /><path clip-path="url(#clip970)" d="M92.1493 591.97 L99.7882 591.97 L99.7882 565.605 L91.478 567.271 L91.478 563.012 L99.7419 561.345 L104.418 561.345 L104.418 591.97 L112.057 591.97 L112.057 595.905 L92.1493 595.905 L92.1493 591.97 Z" fill="#000000" fill-rule="nonzero" fill-opacity="1" /><path clip-path="url(#clip970)" d="M95.7373 365.084 L112.057 365.084 L112.057 369.019 L90.1123 369.019 L90.1123 365.084 Q92.7743 362.33 97.3576 357.7 Q101.964 353.047 103.145 351.705 Q105.39 349.182 106.27 347.446 Q107.172 345.686 107.172 343.996 Q107.172 341.242 105.228 339.506 Q103.307 337.77 100.205 337.77 Q98.0058 337.77 95.5521 338.534 Q93.1215 339.297 90.3438 340.848 L90.3438 336.126 Q93.1678 334.992 95.6215 334.413 Q98.0752 333.834 100.112 333.834 Q105.483 333.834 108.677 336.52 Q111.871 339.205 111.871 343.696 Q111.871 345.825 111.061 347.746 Q110.274 349.645 108.168 352.237 Q107.589 352.908 104.487 356.126 Q101.385 359.32 95.7373 365.084 Z" fill="#000000" fill-rule="nonzero" fill-opacity="1" /><path clip-path="url(#clip970)" d="M104.927 123.499 Q108.283 124.217 110.158 126.485 Q112.057 128.754 112.057 132.087 Q112.057 137.203 108.538 140.004 Q105.02 142.805 98.5382 142.805 Q96.3623 142.805 94.0475 142.365 Q91.7558 141.948 89.3021 141.092 L89.3021 136.578 Q91.2465 137.712 93.5613 138.291 Q95.8761 138.87 98.3993 138.87 Q102.797 138.87 105.089 137.134 Q107.404 135.397 107.404 132.087 Q107.404 129.032 105.251 127.319 Q103.121 125.583 99.3021 125.583 L95.2743 125.583 L95.2743 121.74 L99.4872 121.74 Q102.936 121.74 104.765 120.374 Q106.594 118.985 106.594 116.393 Q106.594 113.731 104.696 112.319 Q102.821 110.884 99.3021 110.884 Q97.3808 110.884 95.1817 111.3 Q92.9826 111.717 90.3438 112.597 L90.3438 108.43 Q93.0058 107.689 95.3206 107.319 Q97.6585 106.948 99.7187 106.948 Q105.043 106.948 108.145 109.379 Q111.246 111.786 111.246 115.907 Q111.246 118.777 109.603 120.768 Q107.959 122.735 104.927 123.499 Z" fill="#000000" fill-rule="nonzero" fill-opacity="1" /><circle clip-path="url(#clip972)" cx="1664.17" cy="463.234" r="14.4" fill="#009af9" fill-rule="evenodd" fill-opacity="0.5" stroke="#000000" stroke-opacity="0.5" stroke-width="3.2"/>
<circle clip-path="url(#clip972)" cx="1608.73" cy="583.488" r="14.4" fill="#009af9" fill-rule="evenodd" fill-opacity="0.5" stroke="#000000" stroke-opacity="0.5" stroke-width="3.2"/>
<circle clip-path="url(#clip972)" cx="1722.45" cy="871.592" r="14.4" fill="#009af9" fill-rule="evenodd" fill-opacity="0.5" stroke="#000000" stroke-opacity="0.5" stroke-width="3.2"/>
<circle clip-path="url(#clip972)" cx="1279.13" cy="1082" r="14.4" fill="#009af9" fill-rule="evenodd" fill-opacity="0.5" stroke="#000000" stroke-opacity="0.5" stroke-width="3.2"/>
<circle clip-path="url(#clip972)" cx="210.454" cy="693.527" r="14.4" fill="#009af9" fill-rule="evenodd" fill-opacity="0.5" stroke="#000000" stroke-opacity="0.5" stroke-width="3.2"/>
<circle clip-path="url(#clip972)" cx="2290.36" cy="1445.72" r="14.4" fill="#009af9" fill-rule="evenodd" fill-opacity="0.5" stroke="#000000" stroke-opacity="0.5" stroke-width="3.2"/>
<circle clip-path="url(#clip972)" cx="1025.12" cy="763.551" r="14.4" fill="#009af9" fill-rule="evenodd" fill-opacity="0.5" stroke="#000000" stroke-opacity="0.5" stroke-width="3.2"/>
<circle clip-path="url(#clip972)" cx="1314.15" cy="656.873" r="14.4" fill="#009af9" fill-rule="evenodd" fill-opacity="0.5" stroke="#000000" stroke-opacity="0.5" stroke-width="3.2"/>
<circle clip-path="url(#clip972)" cx="1762.21" cy="578.963" r="14.4" fill="#009af9" fill-rule="evenodd" fill-opacity="0.5" stroke="#000000" stroke-opacity="0.5" stroke-width="3.2"/>
<circle clip-path="url(#clip972)" cx="1581.8" cy="1072.71" r="14.4" fill="#009af9" fill-rule="evenodd" fill-opacity="0.5" stroke="#000000" stroke-opacity="0.5" stroke-width="3.2"/>
<circle clip-path="url(#clip972)" cx="1825.82" cy="480.063" r="14.4" fill="#009af9" fill-rule="evenodd" fill-opacity="0.5" stroke="#000000" stroke-opacity="0.5" stroke-width="3.2"/>
<circle clip-path="url(#clip972)" cx="1507.78" cy="1111.74" r="14.4" fill="#009af9" fill-rule="evenodd" fill-opacity="0.5" stroke="#000000" stroke-opacity="0.5" stroke-width="3.2"/>
<circle clip-path="url(#clip972)" cx="988.991" cy="864.964" r="14.4" fill="#009af9" fill-rule="evenodd" fill-opacity="0.5" stroke="#000000" stroke-opacity="0.5" stroke-width="3.2"/>
<circle clip-path="url(#clip972)" cx="1595.26" cy="247.165" r="14.4" fill="#009af9" fill-rule="evenodd" fill-opacity="0.5" stroke="#000000" stroke-opacity="0.5" stroke-width="3.2"/>
<circle clip-path="url(#clip972)" cx="1645.21" cy="801.614" r="14.4" fill="#009af9" fill-rule="evenodd" fill-opacity="0.5" stroke="#000000" stroke-opacity="0.5" stroke-width="3.2"/>
<circle clip-path="url(#clip972)" cx="1565.49" cy="802.461" r="14.4" fill="#009af9" fill-rule="evenodd" fill-opacity="0.5" stroke="#000000" stroke-opacity="0.5" stroke-width="3.2"/>
<circle clip-path="url(#clip972)" cx="1675.51" cy="1276.14" r="14.4" fill="#009af9" fill-rule="evenodd" fill-opacity="0.5" stroke="#000000" stroke-opacity="0.5" stroke-width="3.2"/>
<circle clip-path="url(#clip972)" cx="1195.16" cy="811.612" r="14.4" fill="#009af9" fill-rule="evenodd" fill-opacity="0.5" stroke="#000000" stroke-opacity="0.5" stroke-width="3.2"/>
<circle clip-path="url(#clip972)" cx="1267.65" cy="1011.85" r="14.4" fill="#009af9" fill-rule="evenodd" fill-opacity="0.5" stroke="#000000" stroke-opacity="0.5" stroke-width="3.2"/>
<circle clip-path="url(#clip972)" cx="1239.76" cy="784.082" r="14.4" fill="#009af9" fill-rule="evenodd" fill-opacity="0.5" stroke="#000000" stroke-opacity="0.5" stroke-width="3.2"/>
<circle clip-path="url(#clip972)" cx="1100.55" cy="1021.12" r="14.4" fill="#009af9" fill-rule="evenodd" fill-opacity="0.5" stroke="#000000" stroke-opacity="0.5" stroke-width="3.2"/>
<circle clip-path="url(#clip972)" cx="2289.78" cy="923.574" r="14.4" fill="#009af9" fill-rule="evenodd" fill-opacity="0.5" stroke="#000000" stroke-opacity="0.5" stroke-width="3.2"/>
<circle clip-path="url(#clip972)" cx="1895.08" cy="1091.95" r="14.4" fill="#009af9" fill-rule="evenodd" fill-opacity="0.5" stroke="#000000" stroke-opacity="0.5" stroke-width="3.2"/>
<circle clip-path="url(#clip972)" cx="1617.97" cy="709.67" r="14.4" fill="#009af9" fill-rule="evenodd" fill-opacity="0.5" stroke="#000000" stroke-opacity="0.5" stroke-width="3.2"/>
<circle clip-path="url(#clip972)" cx="861.066" cy="87.9763" r="14.4" fill="#009af9" fill-rule="evenodd" fill-opacity="0.5" stroke="#000000" stroke-opacity="0.5" stroke-width="3.2"/>
<circle clip-path="url(#clip972)" cx="1220.96" cy="877.76" r="14.4" fill="#009af9" fill-rule="evenodd" fill-opacity="0.5" stroke="#000000" stroke-opacity="0.5" stroke-width="3.2"/>
<circle clip-path="url(#clip972)" cx="807.171" cy="1044.09" r="14.4" fill="#009af9" fill-rule="evenodd" fill-opacity="0.5" stroke="#000000" stroke-opacity="0.5" stroke-width="3.2"/>
<circle clip-path="url(#clip972)" cx="800.798" cy="735.613" r="14.4" fill="#009af9" fill-rule="evenodd" fill-opacity="0.5" stroke="#000000" stroke-opacity="0.5" stroke-width="3.2"/>
<circle clip-path="url(#clip972)" cx="1216.14" cy="1015.48" r="14.4" fill="#009af9" fill-rule="evenodd" fill-opacity="0.5" stroke="#000000" stroke-opacity="0.5" stroke-width="3.2"/>
<circle clip-path="url(#clip972)" cx="1641.17" cy="1324.16" r="14.4" fill="#009af9" fill-rule="evenodd" fill-opacity="0.5" stroke="#000000" stroke-opacity="0.5" stroke-width="3.2"/>
<path clip-path="url(#clip972)" d="M210.454 693.527 L807.171 1044.09 L1641.17 1324.16 L2290.36 1445.72 L2289.78 923.574 L1595.26 247.165 L861.066 87.9763 L210.454 693.527 L210.454 693.527  Z" fill="#e26f46" fill-rule="evenodd" fill-opacity="0.2"/>
<polyline clip-path="url(#clip972)" style="stroke:#000000; stroke-linecap:round; stroke-linejoin:round; stroke-width:4; stroke-opacity:0.2; fill:none" points="210.454,693.527 807.171,1044.09 1641.17,1324.16 2290.36,1445.72 2289.78,923.574 1595.26,247.165 861.066,87.9763 210.454,693.527 "/>
</svg>
