<?xml version="1.0" encoding="utf-8"?>
<svg xmlns="http://www.w3.org/2000/svg" xmlns:xlink="http://www.w3.org/1999/xlink" width="600" height="400" viewBox="0 0 2400 1600">
<defs>
  <clipPath id="clip260">
    <rect x="0" y="0" width="2400" height="1600"/>
  </clipPath>
</defs>
<path clip-path="url(#clip260)" d="M0 1600 L2400 1600 L2400 0 L0 0  Z" fill="#ffffff" fill-rule="evenodd" fill-opacity="1"/>
<defs>
  <clipPath id="clip261">
    <rect x="480" y="0" width="1681" height="1600"/>
  </clipPath>
</defs>
<path clip-path="url(#clip260)" d="M193.936 1486.45 L2352.76 1486.45 L2352.76 47.2441 L193.936 47.2441  Z" fill="#ffffff" fill-rule="evenodd" fill-opacity="1"/>
<defs>
  <clipPath id="clip262">
    <rect x="193" y="47" width="2160" height="1440"/>
  </clipPath>
</defs>
<polyline clip-path="url(#clip262)" style="stroke:#000000; stroke-linecap:round; stroke-linejoin:round; stroke-width:2; stroke-opacity:0.1; fill:none" points="352.378,1486.45 352.378,47.2441 "/>
<polyline clip-path="url(#clip262)" style="stroke:#000000; stroke-linecap:round; stroke-linejoin:round; stroke-width:2; stroke-opacity:0.1; fill:none" points="793.917,1486.45 793.917,47.2441 "/>
<polyline clip-path="url(#clip262)" style="stroke:#000000; stroke-linecap:round; stroke-linejoin:round; stroke-width:2; stroke-opacity:0.1; fill:none" points="1235.46,1486.45 1235.46,47.2441 "/>
<polyline clip-path="url(#clip262)" style="stroke:#000000; stroke-linecap:round; stroke-linejoin:round; stroke-width:2; stroke-opacity:0.1; fill:none" points="1677,1486.45 1677,47.2441 "/>
<polyline clip-path="url(#clip262)" style="stroke:#000000; stroke-linecap:round; stroke-linejoin:round; stroke-width:2; stroke-opacity:0.1; fill:none" points="2118.53,1486.45 2118.53,47.2441 "/>
<polyline clip-path="url(#clip262)" style="stroke:#000000; stroke-linecap:round; stroke-linejoin:round; stroke-width:2; stroke-opacity:0.1; fill:none" points="193.936,1420.76 2352.76,1420.76 "/>
<polyline clip-path="url(#clip262)" style="stroke:#000000; stroke-linecap:round; stroke-linejoin:round; stroke-width:2; stroke-opacity:0.1; fill:none" points="193.936,1211.43 2352.76,1211.43 "/>
<polyline clip-path="url(#clip262)" style="stroke:#000000; stroke-linecap:round; stroke-linejoin:round; stroke-width:2; stroke-opacity:0.1; fill:none" points="193.936,1002.1 2352.76,1002.1 "/>
<polyline clip-path="url(#clip262)" style="stroke:#000000; stroke-linecap:round; stroke-linejoin:round; stroke-width:2; stroke-opacity:0.1; fill:none" points="193.936,792.773 2352.76,792.773 "/>
<polyline clip-path="url(#clip262)" style="stroke:#000000; stroke-linecap:round; stroke-linejoin:round; stroke-width:2; stroke-opacity:0.1; fill:none" points="193.936,583.445 2352.76,583.445 "/>
<polyline clip-path="url(#clip262)" style="stroke:#000000; stroke-linecap:round; stroke-linejoin:round; stroke-width:2; stroke-opacity:0.1; fill:none" points="193.936,374.116 2352.76,374.116 "/>
<polyline clip-path="url(#clip262)" style="stroke:#000000; stroke-linecap:round; stroke-linejoin:round; stroke-width:2; stroke-opacity:0.1; fill:none" points="193.936,164.788 2352.76,164.788 "/>
<polyline clip-path="url(#clip260)" style="stroke:#000000; stroke-linecap:round; stroke-linejoin:round; stroke-width:4; stroke-opacity:1; fill:none" points="193.936,1486.45 2352.76,1486.45 "/>
<polyline clip-path="url(#clip260)" style="stroke:#000000; stroke-linecap:round; stroke-linejoin:round; stroke-width:4; stroke-opacity:1; fill:none" points="352.378,1486.45 352.378,1467.55 "/>
<polyline clip-path="url(#clip260)" style="stroke:#000000; stroke-linecap:round; stroke-linejoin:round; stroke-width:4; stroke-opacity:1; fill:none" points="793.917,1486.45 793.917,1467.55 "/>
<polyline clip-path="url(#clip260)" style="stroke:#000000; stroke-linecap:round; stroke-linejoin:round; stroke-width:4; stroke-opacity:1; fill:none" points="1235.46,1486.45 1235.46,1467.55 "/>
<polyline clip-path="url(#clip260)" style="stroke:#000000; stroke-linecap:round; stroke-linejoin:round; stroke-width:4; stroke-opacity:1; fill:none" points="1677,1486.45 1677,1467.55 "/>
<polyline clip-path="url(#clip260)" style="stroke:#000000; stroke-linecap:round; stroke-linejoin:round; stroke-width:4; stroke-opacity:1; fill:none" points="2118.53,1486.45 2118.53,1467.55 "/>
<path clip-path="url(#clip260)" d="M322.321 1532.02 L351.996 1532.02 L351.996 1535.95 L322.321 1535.95 L322.321 1532.02 Z" fill="#000000" fill-rule="nonzero" fill-opacity="1" /><path clip-path="url(#clip260)" d="M366.117 1544.91 L382.436 1544.91 L382.436 1548.85 L360.492 1548.85 L360.492 1544.91 Q363.154 1542.16 367.737 1537.53 Q372.344 1532.88 373.524 1531.53 Q375.77 1529.01 376.649 1527.27 Q377.552 1525.51 377.552 1523.82 Q377.552 1521.07 375.607 1519.33 Q373.686 1517.6 370.584 1517.6 Q368.385 1517.6 365.932 1518.36 Q363.501 1519.13 360.723 1520.68 L360.723 1515.95 Q363.547 1514.82 366.001 1514.24 Q368.455 1513.66 370.492 1513.66 Q375.862 1513.66 379.057 1516.35 Q382.251 1519.03 382.251 1523.52 Q382.251 1525.65 381.441 1527.57 Q380.654 1529.47 378.547 1532.07 Q377.969 1532.74 374.867 1535.95 Q371.765 1539.15 366.117 1544.91 Z" fill="#000000" fill-rule="nonzero" fill-opacity="1" /><path clip-path="url(#clip260)" d="M763.675 1532.02 L793.35 1532.02 L793.35 1535.95 L763.675 1535.95 L763.675 1532.02 Z" fill="#000000" fill-rule="nonzero" fill-opacity="1" /><path clip-path="url(#clip260)" d="M804.253 1544.91 L811.892 1544.91 L811.892 1518.55 L803.582 1520.21 L803.582 1515.95 L811.846 1514.29 L816.521 1514.29 L816.521 1544.91 L824.16 1544.91 L824.16 1548.85 L804.253 1548.85 L804.253 1544.91 Z" fill="#000000" fill-rule="nonzero" fill-opacity="1" /><path clip-path="url(#clip260)" d="M1235.46 1517.37 Q1231.85 1517.37 1230.02 1520.93 Q1228.21 1524.47 1228.21 1531.6 Q1228.21 1538.71 1230.02 1542.27 Q1231.85 1545.82 1235.46 1545.82 Q1239.09 1545.82 1240.9 1542.27 Q1242.72 1538.71 1242.72 1531.6 Q1242.72 1524.47 1240.9 1520.93 Q1239.09 1517.37 1235.46 1517.37 M1235.46 1513.66 Q1241.27 1513.66 1244.32 1518.27 Q1247.4 1522.85 1247.4 1531.6 Q1247.4 1540.33 1244.32 1544.94 Q1241.27 1549.52 1235.46 1549.52 Q1229.65 1549.52 1226.57 1544.94 Q1223.51 1540.33 1223.51 1531.6 Q1223.51 1522.85 1226.57 1518.27 Q1229.65 1513.66 1235.46 1513.66 Z" fill="#000000" fill-rule="nonzero" fill-opacity="1" /><path clip-path="url(#clip260)" d="M1667.38 1544.91 L1675.02 1544.91 L1675.02 1518.55 L1666.71 1520.21 L1666.71 1515.95 L1674.97 1514.29 L1679.65 1514.29 L1679.65 1544.91 L1687.28 1544.91 L1687.28 1548.85 L1667.38 1548.85 L1667.38 1544.91 Z" fill="#000000" fill-rule="nonzero" fill-opacity="1" /><path clip-path="url(#clip260)" d="M2113.19 1544.91 L2129.51 1544.91 L2129.51 1548.85 L2107.56 1548.85 L2107.56 1544.91 Q2110.22 1542.16 2114.81 1537.53 Q2119.41 1532.88 2120.59 1531.53 Q2122.84 1529.01 2123.72 1527.27 Q2124.62 1525.51 2124.62 1523.82 Q2124.62 1521.07 2122.68 1519.33 Q2120.76 1517.6 2117.65 1517.6 Q2115.46 1517.6 2113 1518.36 Q2110.57 1519.13 2107.79 1520.68 L2107.79 1515.95 Q2110.62 1514.82 2113.07 1514.24 Q2115.53 1513.66 2117.56 1513.66 Q2122.93 1513.66 2126.13 1516.35 Q2129.32 1519.03 2129.32 1523.52 Q2129.32 1525.65 2128.51 1527.57 Q2127.72 1529.47 2125.62 1532.07 Q2125.04 1532.74 2121.94 1535.95 Q2118.84 1539.15 2113.19 1544.91 Z" fill="#000000" fill-rule="nonzero" fill-opacity="1" /><polyline clip-path="url(#clip260)" style="stroke:#000000; stroke-linecap:round; stroke-linejoin:round; stroke-width:4; stroke-opacity:1; fill:none" points="193.936,1486.45 193.936,47.2441 "/>
<polyline clip-path="url(#clip260)" style="stroke:#000000; stroke-linecap:round; stroke-linejoin:round; stroke-width:4; stroke-opacity:1; fill:none" points="193.936,1420.76 212.834,1420.76 "/>
<polyline clip-path="url(#clip260)" style="stroke:#000000; stroke-linecap:round; stroke-linejoin:round; stroke-width:4; stroke-opacity:1; fill:none" points="193.936,1211.43 212.834,1211.43 "/>
<polyline clip-path="url(#clip260)" style="stroke:#000000; stroke-linecap:round; stroke-linejoin:round; stroke-width:4; stroke-opacity:1; fill:none" points="193.936,1002.1 212.834,1002.1 "/>
<polyline clip-path="url(#clip260)" style="stroke:#000000; stroke-linecap:round; stroke-linejoin:round; stroke-width:4; stroke-opacity:1; fill:none" points="193.936,792.773 212.834,792.773 "/>
<polyline clip-path="url(#clip260)" style="stroke:#000000; stroke-linecap:round; stroke-linejoin:round; stroke-width:4; stroke-opacity:1; fill:none" points="193.936,583.445 212.834,583.445 "/>
<polyline clip-path="url(#clip260)" style="stroke:#000000; stroke-linecap:round; stroke-linejoin:round; stroke-width:4; stroke-opacity:1; fill:none" points="193.936,374.116 212.834,374.116 "/>
<polyline clip-path="url(#clip260)" style="stroke:#000000; stroke-linecap:round; stroke-linejoin:round; stroke-width:4; stroke-opacity:1; fill:none" points="193.936,164.788 212.834,164.788 "/>
<path clip-path="url(#clip260)" d="M51.9875 1421.21 L81.6633 1421.21 L81.6633 1425.14 L51.9875 1425.14 L51.9875 1421.21 Z" fill="#000000" fill-rule="nonzero" fill-opacity="1" /><path clip-path="url(#clip260)" d="M92.566 1434.1 L100.205 1434.1 L100.205 1407.74 L91.8947 1409.4 L91.8947 1405.14 L100.159 1403.48 L104.834 1403.48 L104.834 1434.1 L112.473 1434.1 L112.473 1438.04 L92.566 1438.04 L92.566 1434.1 Z" fill="#000000" fill-rule="nonzero" fill-opacity="1" /><path clip-path="url(#clip260)" d="M121.918 1432.16 L126.802 1432.16 L126.802 1438.04 L121.918 1438.04 L121.918 1432.16 Z" fill="#000000" fill-rule="nonzero" fill-opacity="1" /><path clip-path="url(#clip260)" d="M137.033 1403.48 L155.39 1403.48 L155.39 1407.41 L141.316 1407.41 L141.316 1415.88 Q142.334 1415.54 143.353 1415.38 Q144.371 1415.19 145.39 1415.19 Q151.177 1415.19 154.556 1418.36 Q157.936 1421.53 157.936 1426.95 Q157.936 1432.53 154.464 1435.63 Q150.992 1438.71 144.672 1438.71 Q142.496 1438.71 140.228 1438.34 Q137.982 1437.97 135.575 1437.23 L135.575 1432.53 Q137.658 1433.66 139.881 1434.22 Q142.103 1434.77 144.58 1434.77 Q148.584 1434.77 150.922 1432.67 Q153.26 1430.56 153.26 1426.95 Q153.26 1423.34 150.922 1421.23 Q148.584 1419.13 144.58 1419.13 Q142.705 1419.13 140.83 1419.54 Q138.978 1419.96 137.033 1420.84 L137.033 1403.48 Z" fill="#000000" fill-rule="nonzero" fill-opacity="1" /><path clip-path="url(#clip260)" d="M50.9921 1211.88 L80.6679 1211.88 L80.6679 1215.82 L50.9921 1215.82 L50.9921 1211.88 Z" fill="#000000" fill-rule="nonzero" fill-opacity="1" /><path clip-path="url(#clip260)" d="M91.5706 1224.77 L99.2095 1224.77 L99.2095 1198.41 L90.8993 1200.07 L90.8993 1195.82 L99.1632 1194.15 L103.839 1194.15 L103.839 1224.77 L111.478 1224.77 L111.478 1228.71 L91.5706 1228.71 L91.5706 1224.77 Z" fill="#000000" fill-rule="nonzero" fill-opacity="1" /><path clip-path="url(#clip260)" d="M120.922 1222.83 L125.807 1222.83 L125.807 1228.71 L120.922 1228.71 L120.922 1222.83 Z" fill="#000000" fill-rule="nonzero" fill-opacity="1" /><path clip-path="url(#clip260)" d="M145.992 1197.23 Q142.381 1197.23 140.552 1200.79 Q138.746 1204.33 138.746 1211.46 Q138.746 1218.57 140.552 1222.13 Q142.381 1225.68 145.992 1225.68 Q149.626 1225.68 151.431 1222.13 Q153.26 1218.57 153.26 1211.46 Q153.26 1204.33 151.431 1200.79 Q149.626 1197.23 145.992 1197.23 M145.992 1193.52 Q151.802 1193.52 154.857 1198.13 Q157.936 1202.71 157.936 1211.46 Q157.936 1220.19 154.857 1224.8 Q151.802 1229.38 145.992 1229.38 Q140.181 1229.38 137.103 1224.8 Q134.047 1220.19 134.047 1211.46 Q134.047 1202.71 137.103 1198.13 Q140.181 1193.52 145.992 1193.52 Z" fill="#000000" fill-rule="nonzero" fill-opacity="1" /><path clip-path="url(#clip260)" d="M51.9875 1002.55 L81.6633 1002.55 L81.6633 1006.49 L51.9875 1006.49 L51.9875 1002.55 Z" fill="#000000" fill-rule="nonzero" fill-opacity="1" /><path clip-path="url(#clip260)" d="M101.756 987.9 Q98.1447 987.9 96.316 991.464 Q94.5104 995.006 94.5104 1002.14 Q94.5104 1009.24 96.316 1012.81 Q98.1447 1016.35 101.756 1016.35 Q105.39 1016.35 107.196 1012.81 Q109.024 1009.24 109.024 1002.14 Q109.024 995.006 107.196 991.464 Q105.39 987.9 101.756 987.9 M101.756 984.196 Q107.566 984.196 110.621 988.802 Q113.7 993.386 113.7 1002.14 Q113.7 1010.86 110.621 1015.47 Q107.566 1020.05 101.756 1020.05 Q95.9456 1020.05 92.8669 1015.47 Q89.8114 1010.86 89.8114 1002.14 Q89.8114 993.386 92.8669 988.802 Q95.9456 984.196 101.756 984.196 Z" fill="#000000" fill-rule="nonzero" fill-opacity="1" /><path clip-path="url(#clip260)" d="M121.918 1013.5 L126.802 1013.5 L126.802 1019.38 L121.918 1019.38 L121.918 1013.5 Z" fill="#000000" fill-rule="nonzero" fill-opacity="1" /><path clip-path="url(#clip260)" d="M137.033 984.821 L155.39 984.821 L155.39 988.756 L141.316 988.756 L141.316 997.228 Q142.334 996.881 143.353 996.719 Q144.371 996.534 145.39 996.534 Q151.177 996.534 154.556 999.705 Q157.936 1002.88 157.936 1008.29 Q157.936 1013.87 154.464 1016.97 Q150.992 1020.05 144.672 1020.05 Q142.496 1020.05 140.228 1019.68 Q137.982 1019.31 135.575 1018.57 L135.575 1013.87 Q137.658 1015.01 139.881 1015.56 Q142.103 1016.12 144.58 1016.12 Q148.584 1016.12 150.922 1014.01 Q153.26 1011.9 153.26 1008.29 Q153.26 1004.68 150.922 1002.58 Q148.584 1000.47 144.58 1000.47 Q142.705 1000.47 140.83 1000.89 Q138.978 1001.3 137.033 1002.18 L137.033 984.821 Z" fill="#000000" fill-rule="nonzero" fill-opacity="1" /><path clip-path="url(#clip260)" d="M100.76 778.571 Q97.1493 778.571 95.3206 782.136 Q93.515 785.678 93.515 792.807 Q93.515 799.914 95.3206 803.479 Q97.1493 807.02 100.76 807.02 Q104.395 807.02 106.2 803.479 Q108.029 799.914 108.029 792.807 Q108.029 785.678 106.2 782.136 Q104.395 778.571 100.76 778.571 M100.76 774.868 Q106.571 774.868 109.626 779.474 Q112.705 784.057 112.705 792.807 Q112.705 801.534 109.626 806.141 Q106.571 810.724 100.76 810.724 Q94.9502 810.724 91.8715 806.141 Q88.816 801.534 88.816 792.807 Q88.816 784.057 91.8715 779.474 Q94.9502 774.868 100.76 774.868 Z" fill="#000000" fill-rule="nonzero" fill-opacity="1" /><path clip-path="url(#clip260)" d="M120.922 804.173 L125.807 804.173 L125.807 810.053 L120.922 810.053 L120.922 804.173 Z" fill="#000000" fill-rule="nonzero" fill-opacity="1" /><path clip-path="url(#clip260)" d="M145.992 778.571 Q142.381 778.571 140.552 782.136 Q138.746 785.678 138.746 792.807 Q138.746 799.914 140.552 803.479 Q142.381 807.02 145.992 807.02 Q149.626 807.02 151.431 803.479 Q153.26 799.914 153.26 792.807 Q153.26 785.678 151.431 782.136 Q149.626 778.571 145.992 778.571 M145.992 774.868 Q151.802 774.868 154.857 779.474 Q157.936 784.057 157.936 792.807 Q157.936 801.534 154.857 806.141 Q151.802 810.724 145.992 810.724 Q140.181 810.724 137.103 806.141 Q134.047 801.534 134.047 792.807 Q134.047 784.057 137.103 779.474 Q140.181 774.868 145.992 774.868 Z" fill="#000000" fill-rule="nonzero" fill-opacity="1" /><path clip-path="url(#clip260)" d="M101.756 569.243 Q98.1447 569.243 96.316 572.808 Q94.5104 576.35 94.5104 583.479 Q94.5104 590.586 96.316 594.151 Q98.1447 597.692 101.756 597.692 Q105.39 597.692 107.196 594.151 Q109.024 590.586 109.024 583.479 Q109.024 576.35 107.196 572.808 Q105.39 569.243 101.756 569.243 M101.756 565.54 Q107.566 565.54 110.621 570.146 Q113.7 574.729 113.7 583.479 Q113.7 592.206 110.621 596.813 Q107.566 601.396 101.756 601.396 Q95.9456 601.396 92.8669 596.813 Q89.8114 592.206 89.8114 583.479 Q89.8114 574.729 92.8669 570.146 Q95.9456 565.54 101.756 565.54 Z" fill="#000000" fill-rule="nonzero" fill-opacity="1" /><path clip-path="url(#clip260)" d="M121.918 594.845 L126.802 594.845 L126.802 600.725 L121.918 600.725 L121.918 594.845 Z" fill="#000000" fill-rule="nonzero" fill-opacity="1" /><path clip-path="url(#clip260)" d="M137.033 566.165 L155.39 566.165 L155.39 570.1 L141.316 570.1 L141.316 578.572 Q142.334 578.225 143.353 578.063 Q144.371 577.877 145.39 577.877 Q151.177 577.877 154.556 581.049 Q157.936 584.22 157.936 589.637 Q157.936 595.215 154.464 598.317 Q150.992 601.396 144.672 601.396 Q142.496 601.396 140.228 601.025 Q137.982 600.655 135.575 599.914 L135.575 595.215 Q137.658 596.35 139.881 596.905 Q142.103 597.461 144.58 597.461 Q148.584 597.461 150.922 595.354 Q153.26 593.248 153.26 589.637 Q153.26 586.026 150.922 583.919 Q148.584 581.813 144.58 581.813 Q142.705 581.813 140.83 582.229 Q138.978 582.646 137.033 583.526 L137.033 566.165 Z" fill="#000000" fill-rule="nonzero" fill-opacity="1" /><path clip-path="url(#clip260)" d="M91.5706 387.461 L99.2095 387.461 L99.2095 361.096 L90.8993 362.762 L90.8993 358.503 L99.1632 356.836 L103.839 356.836 L103.839 387.461 L111.478 387.461 L111.478 391.396 L91.5706 391.396 L91.5706 387.461 Z" fill="#000000" fill-rule="nonzero" fill-opacity="1" /><path clip-path="url(#clip260)" d="M120.922 385.517 L125.807 385.517 L125.807 391.396 L120.922 391.396 L120.922 385.517 Z" fill="#000000" fill-rule="nonzero" fill-opacity="1" /><path clip-path="url(#clip260)" d="M145.992 359.915 Q142.381 359.915 140.552 363.48 Q138.746 367.022 138.746 374.151 Q138.746 381.258 140.552 384.822 Q142.381 388.364 145.992 388.364 Q149.626 388.364 151.431 384.822 Q153.26 381.258 153.26 374.151 Q153.26 367.022 151.431 363.48 Q149.626 359.915 145.992 359.915 M145.992 356.211 Q151.802 356.211 154.857 360.818 Q157.936 365.401 157.936 374.151 Q157.936 382.878 154.857 387.484 Q151.802 392.068 145.992 392.068 Q140.181 392.068 137.103 387.484 Q134.047 382.878 134.047 374.151 Q134.047 365.401 137.103 360.818 Q140.181 356.211 145.992 356.211 Z" fill="#000000" fill-rule="nonzero" fill-opacity="1" /><path clip-path="url(#clip260)" d="M92.566 178.133 L100.205 178.133 L100.205 151.768 L91.8947 153.434 L91.8947 149.175 L100.159 147.508 L104.834 147.508 L104.834 178.133 L112.473 178.133 L112.473 182.068 L92.566 182.068 L92.566 178.133 Z" fill="#000000" fill-rule="nonzero" fill-opacity="1" /><path clip-path="url(#clip260)" d="M121.918 176.189 L126.802 176.189 L126.802 182.068 L121.918 182.068 L121.918 176.189 Z" fill="#000000" fill-rule="nonzero" fill-opacity="1" /><path clip-path="url(#clip260)" d="M137.033 147.508 L155.39 147.508 L155.39 151.443 L141.316 151.443 L141.316 159.916 Q142.334 159.568 143.353 159.406 Q144.371 159.221 145.39 159.221 Q151.177 159.221 154.556 162.392 Q157.936 165.564 157.936 170.98 Q157.936 176.559 154.464 179.661 Q150.992 182.74 144.672 182.74 Q142.496 182.74 140.228 182.369 Q137.982 181.999 135.575 181.258 L135.575 176.559 Q137.658 177.693 139.881 178.249 Q142.103 178.804 144.58 178.804 Q148.584 178.804 150.922 176.698 Q153.26 174.591 153.26 170.98 Q153.26 167.369 150.922 165.263 Q148.584 163.156 144.58 163.156 Q142.705 163.156 140.83 163.573 Q138.978 163.99 137.033 164.869 L137.033 147.508 Z" fill="#000000" fill-rule="nonzero" fill-opacity="1" /><circle clip-path="url(#clip262)" cx="731.055" cy="1099.99" r="14.4" fill="#009af9" fill-rule="evenodd" fill-opacity="0.5" stroke="#000000" stroke-opacity="0.5" stroke-width="3.2"/>
<circle clip-path="url(#clip262)" cx="1086.02" cy="1308.68" r="14.4" fill="#009af9" fill-rule="evenodd" fill-opacity="0.5" stroke="#000000" stroke-opacity="0.5" stroke-width="3.2"/>
<circle clip-path="url(#clip262)" cx="1459.03" cy="1149.26" r="14.4" fill="#009af9" fill-rule="evenodd" fill-opacity="0.5" stroke="#000000" stroke-opacity="0.5" stroke-width="3.2"/>
<circle clip-path="url(#clip262)" cx="1626.89" cy="415.379" r="14.4" fill="#009af9" fill-rule="evenodd" fill-opacity="0.5" stroke="#000000" stroke-opacity="0.5" stroke-width="3.2"/>
<circle clip-path="url(#clip262)" cx="1522.99" cy="866.093" r="14.4" fill="#009af9" fill-rule="evenodd" fill-opacity="0.5" stroke="#000000" stroke-opacity="0.5" stroke-width="3.2"/>
<circle clip-path="url(#clip262)" cx="1312.21" cy="1254.93" r="14.4" fill="#009af9" fill-rule="evenodd" fill-opacity="0.5" stroke="#000000" stroke-opacity="0.5" stroke-width="3.2"/>
<circle clip-path="url(#clip262)" cx="1449.55" cy="1445.72" r="14.4" fill="#009af9" fill-rule="evenodd" fill-opacity="0.5" stroke="#000000" stroke-opacity="0.5" stroke-width="3.2"/>
<circle clip-path="url(#clip262)" cx="2291.66" cy="740.694" r="14.4" fill="#009af9" fill-rule="evenodd" fill-opacity="0.5" stroke="#000000" stroke-opacity="0.5" stroke-width="3.2"/>
<circle clip-path="url(#clip262)" cx="1511.29" cy="1312.37" r="14.4" fill="#009af9" fill-rule="evenodd" fill-opacity="0.5" stroke="#000000" stroke-opacity="0.5" stroke-width="3.2"/>
<circle clip-path="url(#clip262)" cx="2096.71" cy="1118.58" r="14.4" fill="#009af9" fill-rule="evenodd" fill-opacity="0.5" stroke="#000000" stroke-opacity="0.5" stroke-width="3.2"/>
<circle clip-path="url(#clip262)" cx="863.924" cy="1201.82" r="14.4" fill="#009af9" fill-rule="evenodd" fill-opacity="0.5" stroke="#000000" stroke-opacity="0.5" stroke-width="3.2"/>
<circle clip-path="url(#clip262)" cx="2181.46" cy="768.859" r="14.4" fill="#009af9" fill-rule="evenodd" fill-opacity="0.5" stroke="#000000" stroke-opacity="0.5" stroke-width="3.2"/>
<circle clip-path="url(#clip262)" cx="1923.5" cy="411.681" r="14.4" fill="#009af9" fill-rule="evenodd" fill-opacity="0.5" stroke="#000000" stroke-opacity="0.5" stroke-width="3.2"/>
<circle clip-path="url(#clip262)" cx="1073.93" cy="1120.31" r="14.4" fill="#009af9" fill-rule="evenodd" fill-opacity="0.5" stroke="#000000" stroke-opacity="0.5" stroke-width="3.2"/>
<circle clip-path="url(#clip262)" cx="954.21" cy="921.544" r="14.4" fill="#009af9" fill-rule="evenodd" fill-opacity="0.5" stroke="#000000" stroke-opacity="0.5" stroke-width="3.2"/>
<circle clip-path="url(#clip262)" cx="1123.47" cy="877.148" r="14.4" fill="#009af9" fill-rule="evenodd" fill-opacity="0.5" stroke="#000000" stroke-opacity="0.5" stroke-width="3.2"/>
<circle clip-path="url(#clip262)" cx="1129.1" cy="1311.09" r="14.4" fill="#009af9" fill-rule="evenodd" fill-opacity="0.5" stroke="#000000" stroke-opacity="0.5" stroke-width="3.2"/>
<circle clip-path="url(#clip262)" cx="1761.9" cy="1090.45" r="14.4" fill="#009af9" fill-rule="evenodd" fill-opacity="0.5" stroke="#000000" stroke-opacity="0.5" stroke-width="3.2"/>
<circle clip-path="url(#clip262)" cx="1221.23" cy="1129.5" r="14.4" fill="#009af9" fill-rule="evenodd" fill-opacity="0.5" stroke="#000000" stroke-opacity="0.5" stroke-width="3.2"/>
<circle clip-path="url(#clip262)" cx="1919.71" cy="649.43" r="14.4" fill="#009af9" fill-rule="evenodd" fill-opacity="0.5" stroke="#000000" stroke-opacity="0.5" stroke-width="3.2"/>
<circle clip-path="url(#clip262)" cx="1228.69" cy="440.731" r="14.4" fill="#009af9" fill-rule="evenodd" fill-opacity="0.5" stroke="#000000" stroke-opacity="0.5" stroke-width="3.2"/>
<circle clip-path="url(#clip262)" cx="1842.63" cy="99.7068" r="14.4" fill="#009af9" fill-rule="evenodd" fill-opacity="0.5" stroke="#000000" stroke-opacity="0.5" stroke-width="3.2"/>
<circle clip-path="url(#clip262)" cx="727.977" cy="114.841" r="14.4" fill="#009af9" fill-rule="evenodd" fill-opacity="0.5" stroke="#000000" stroke-opacity="0.5" stroke-width="3.2"/>
<circle clip-path="url(#clip262)" cx="255.035" cy="680.228" r="14.4" fill="#009af9" fill-rule="evenodd" fill-opacity="0.5" stroke="#000000" stroke-opacity="0.5" stroke-width="3.2"/>
<circle clip-path="url(#clip262)" cx="775.578" cy="87.9763" r="14.4" fill="#009af9" fill-rule="evenodd" fill-opacity="0.5" stroke="#000000" stroke-opacity="0.5" stroke-width="3.2"/>
<circle clip-path="url(#clip262)" cx="1456.56" cy="338.171" r="14.4" fill="#009af9" fill-rule="evenodd" fill-opacity="0.5" stroke="#000000" stroke-opacity="0.5" stroke-width="3.2"/>
<circle clip-path="url(#clip262)" cx="856.37" cy="909.445" r="14.4" fill="#009af9" fill-rule="evenodd" fill-opacity="0.5" stroke="#000000" stroke-opacity="0.5" stroke-width="3.2"/>
<circle clip-path="url(#clip262)" cx="1845.08" cy="693.389" r="14.4" fill="#009af9" fill-rule="evenodd" fill-opacity="0.5" stroke="#000000" stroke-opacity="0.5" stroke-width="3.2"/>
<circle clip-path="url(#clip262)" cx="859.093" cy="635.488" r="14.4" fill="#009af9" fill-rule="evenodd" fill-opacity="0.5" stroke="#000000" stroke-opacity="0.5" stroke-width="3.2"/>
<circle clip-path="url(#clip262)" cx="981.119" cy="1340.04" r="14.4" fill="#009af9" fill-rule="evenodd" fill-opacity="0.5" stroke="#000000" stroke-opacity="0.5" stroke-width="3.2"/>
<path clip-path="url(#clip262)" d="M255.035 680.228 L981.119 1340.04 L1449.55 1445.72 L2096.71 1118.58 L2291.66 740.694 L1842.63 99.7068 L775.578 87.9763 L727.977 114.841 L255.035 680.228 L255.035 680.228  Z" fill="#e26f46" fill-rule="evenodd" fill-opacity="0.2"/>
<polyline clip-path="url(#clip262)" style="stroke:#000000; stroke-linecap:round; stroke-linejoin:round; stroke-width:4; stroke-opacity:0.2; fill:none" points="255.035,680.228 981.119,1340.04 1449.55,1445.72 2096.71,1118.58 2291.66,740.694 1842.63,99.7068 775.578,87.9763 727.977,114.841 255.035,680.228 "/>
</svg>
