<?xml version="1.0" encoding="utf-8"?>
<svg xmlns="http://www.w3.org/2000/svg" xmlns:xlink="http://www.w3.org/1999/xlink" width="600" height="400" viewBox="0 0 2400 1600">
<defs>
  <clipPath id="clip200">
    <rect x="0" y="0" width="2400" height="1600"/>
  </clipPath>
</defs>
<path clip-path="url(#clip200)" d="M0 1600 L2400 1600 L2400 0 L0 0  Z" fill="#ffffff" fill-rule="evenodd" fill-opacity="1"/>
<defs>
  <clipPath id="clip201">
    <rect x="480" y="0" width="1681" height="1600"/>
  </clipPath>
</defs>
<path clip-path="url(#clip200)" d="M147.478 1486.45 L2352.76 1486.45 L2352.76 47.2441 L147.478 47.2441  Z" fill="#ffffff" fill-rule="evenodd" fill-opacity="1"/>
<defs>
  <clipPath id="clip202">
    <rect x="147" y="47" width="2206" height="1440"/>
  </clipPath>
</defs>
<polyline clip-path="url(#clip202)" style="stroke:#000000; stroke-linecap:round; stroke-linejoin:round; stroke-width:2; stroke-opacity:0.1; fill:none" points="345.148,1486.45 345.148,47.2441 "/>
<polyline clip-path="url(#clip202)" style="stroke:#000000; stroke-linecap:round; stroke-linejoin:round; stroke-width:2; stroke-opacity:0.1; fill:none" points="648.964,1486.45 648.964,47.2441 "/>
<polyline clip-path="url(#clip202)" style="stroke:#000000; stroke-linecap:round; stroke-linejoin:round; stroke-width:2; stroke-opacity:0.1; fill:none" points="952.781,1486.45 952.781,47.2441 "/>
<polyline clip-path="url(#clip202)" style="stroke:#000000; stroke-linecap:round; stroke-linejoin:round; stroke-width:2; stroke-opacity:0.1; fill:none" points="1256.6,1486.45 1256.6,47.2441 "/>
<polyline clip-path="url(#clip202)" style="stroke:#000000; stroke-linecap:round; stroke-linejoin:round; stroke-width:2; stroke-opacity:0.1; fill:none" points="1560.41,1486.45 1560.41,47.2441 "/>
<polyline clip-path="url(#clip202)" style="stroke:#000000; stroke-linecap:round; stroke-linejoin:round; stroke-width:2; stroke-opacity:0.1; fill:none" points="1864.23,1486.45 1864.23,47.2441 "/>
<polyline clip-path="url(#clip202)" style="stroke:#000000; stroke-linecap:round; stroke-linejoin:round; stroke-width:2; stroke-opacity:0.1; fill:none" points="2168.05,1486.45 2168.05,47.2441 "/>
<polyline clip-path="url(#clip202)" style="stroke:#000000; stroke-linecap:round; stroke-linejoin:round; stroke-width:2; stroke-opacity:0.1; fill:none" points="147.478,1294.27 2352.76,1294.27 "/>
<polyline clip-path="url(#clip202)" style="stroke:#000000; stroke-linecap:round; stroke-linejoin:round; stroke-width:2; stroke-opacity:0.1; fill:none" points="147.478,1039.54 2352.76,1039.54 "/>
<polyline clip-path="url(#clip202)" style="stroke:#000000; stroke-linecap:round; stroke-linejoin:round; stroke-width:2; stroke-opacity:0.1; fill:none" points="147.478,784.802 2352.76,784.802 "/>
<polyline clip-path="url(#clip202)" style="stroke:#000000; stroke-linecap:round; stroke-linejoin:round; stroke-width:2; stroke-opacity:0.1; fill:none" points="147.478,530.069 2352.76,530.069 "/>
<polyline clip-path="url(#clip202)" style="stroke:#000000; stroke-linecap:round; stroke-linejoin:round; stroke-width:2; stroke-opacity:0.1; fill:none" points="147.478,275.336 2352.76,275.336 "/>
<polyline clip-path="url(#clip200)" style="stroke:#000000; stroke-linecap:round; stroke-linejoin:round; stroke-width:4; stroke-opacity:1; fill:none" points="147.478,1486.45 2352.76,1486.45 "/>
<polyline clip-path="url(#clip200)" style="stroke:#000000; stroke-linecap:round; stroke-linejoin:round; stroke-width:4; stroke-opacity:1; fill:none" points="345.148,1486.45 345.148,1467.55 "/>
<polyline clip-path="url(#clip200)" style="stroke:#000000; stroke-linecap:round; stroke-linejoin:round; stroke-width:4; stroke-opacity:1; fill:none" points="648.964,1486.45 648.964,1467.55 "/>
<polyline clip-path="url(#clip200)" style="stroke:#000000; stroke-linecap:round; stroke-linejoin:round; stroke-width:4; stroke-opacity:1; fill:none" points="952.781,1486.45 952.781,1467.55 "/>
<polyline clip-path="url(#clip200)" style="stroke:#000000; stroke-linecap:round; stroke-linejoin:round; stroke-width:4; stroke-opacity:1; fill:none" points="1256.6,1486.45 1256.6,1467.55 "/>
<polyline clip-path="url(#clip200)" style="stroke:#000000; stroke-linecap:round; stroke-linejoin:round; stroke-width:4; stroke-opacity:1; fill:none" points="1560.41,1486.45 1560.41,1467.55 "/>
<polyline clip-path="url(#clip200)" style="stroke:#000000; stroke-linecap:round; stroke-linejoin:round; stroke-width:4; stroke-opacity:1; fill:none" points="1864.23,1486.45 1864.23,1467.55 "/>
<polyline clip-path="url(#clip200)" style="stroke:#000000; stroke-linecap:round; stroke-linejoin:round; stroke-width:4; stroke-opacity:1; fill:none" points="2168.05,1486.45 2168.05,1467.55 "/>
<path clip-path="url(#clip200)" d="M292.173 1532.02 L321.849 1532.02 L321.849 1535.95 L292.173 1535.95 L292.173 1532.02 Z" fill="#000000" fill-rule="nonzero" fill-opacity="1" /><path clip-path="url(#clip200)" d="M332.752 1544.91 L340.391 1544.91 L340.391 1518.55 L332.08 1520.21 L332.08 1515.95 L340.344 1514.29 L345.02 1514.29 L345.02 1544.91 L352.659 1544.91 L352.659 1548.85 L332.752 1548.85 L332.752 1544.91 Z" fill="#000000" fill-rule="nonzero" fill-opacity="1" /><path clip-path="url(#clip200)" d="M362.103 1542.97 L366.988 1542.97 L366.988 1548.85 L362.103 1548.85 L362.103 1542.97 Z" fill="#000000" fill-rule="nonzero" fill-opacity="1" /><path clip-path="url(#clip200)" d="M377.219 1514.29 L395.575 1514.29 L395.575 1518.22 L381.501 1518.22 L381.501 1526.7 Q382.52 1526.35 383.539 1526.19 Q384.557 1526 385.576 1526 Q391.363 1526 394.742 1529.17 Q398.122 1532.34 398.122 1537.76 Q398.122 1543.34 394.65 1546.44 Q391.177 1549.52 384.858 1549.52 Q382.682 1549.52 380.414 1549.15 Q378.168 1548.78 375.761 1548.04 L375.761 1543.34 Q377.844 1544.47 380.066 1545.03 Q382.289 1545.58 384.765 1545.58 Q388.77 1545.58 391.108 1543.48 Q393.446 1541.37 393.446 1537.76 Q393.446 1534.15 391.108 1532.04 Q388.77 1529.94 384.765 1529.94 Q382.89 1529.94 381.015 1530.35 Q379.164 1530.77 377.219 1531.65 L377.219 1514.29 Z" fill="#000000" fill-rule="nonzero" fill-opacity="1" /><path clip-path="url(#clip200)" d="M595.492 1532.02 L625.168 1532.02 L625.168 1535.95 L595.492 1535.95 L595.492 1532.02 Z" fill="#000000" fill-rule="nonzero" fill-opacity="1" /><path clip-path="url(#clip200)" d="M636.071 1544.91 L643.709 1544.91 L643.709 1518.55 L635.399 1520.21 L635.399 1515.95 L643.663 1514.29 L648.339 1514.29 L648.339 1544.91 L655.978 1544.91 L655.978 1548.85 L636.071 1548.85 L636.071 1544.91 Z" fill="#000000" fill-rule="nonzero" fill-opacity="1" /><path clip-path="url(#clip200)" d="M665.422 1542.97 L670.307 1542.97 L670.307 1548.85 L665.422 1548.85 L665.422 1542.97 Z" fill="#000000" fill-rule="nonzero" fill-opacity="1" /><path clip-path="url(#clip200)" d="M690.492 1517.37 Q686.881 1517.37 685.052 1520.93 Q683.246 1524.47 683.246 1531.6 Q683.246 1538.71 685.052 1542.27 Q686.881 1545.82 690.492 1545.82 Q694.126 1545.82 695.931 1542.27 Q697.76 1538.71 697.76 1531.6 Q697.76 1524.47 695.931 1520.93 Q694.126 1517.37 690.492 1517.37 M690.492 1513.66 Q696.302 1513.66 699.357 1518.27 Q702.436 1522.85 702.436 1531.6 Q702.436 1540.33 699.357 1544.94 Q696.302 1549.52 690.492 1549.52 Q684.681 1549.52 681.603 1544.94 Q678.547 1540.33 678.547 1531.6 Q678.547 1522.85 681.603 1518.27 Q684.681 1513.66 690.492 1513.66 Z" fill="#000000" fill-rule="nonzero" fill-opacity="1" /><path clip-path="url(#clip200)" d="M899.806 1532.02 L929.482 1532.02 L929.482 1535.95 L899.806 1535.95 L899.806 1532.02 Z" fill="#000000" fill-rule="nonzero" fill-opacity="1" /><path clip-path="url(#clip200)" d="M949.575 1517.37 Q945.964 1517.37 944.135 1520.93 Q942.329 1524.47 942.329 1531.6 Q942.329 1538.71 944.135 1542.27 Q945.964 1545.82 949.575 1545.82 Q953.209 1545.82 955.014 1542.27 Q956.843 1538.71 956.843 1531.6 Q956.843 1524.47 955.014 1520.93 Q953.209 1517.37 949.575 1517.37 M949.575 1513.66 Q955.385 1513.66 958.44 1518.27 Q961.519 1522.85 961.519 1531.6 Q961.519 1540.33 958.44 1544.94 Q955.385 1549.52 949.575 1549.52 Q943.764 1549.52 940.686 1544.94 Q937.63 1540.33 937.63 1531.6 Q937.63 1522.85 940.686 1518.27 Q943.764 1513.66 949.575 1513.66 Z" fill="#000000" fill-rule="nonzero" fill-opacity="1" /><path clip-path="url(#clip200)" d="M969.737 1542.97 L974.621 1542.97 L974.621 1548.85 L969.737 1548.85 L969.737 1542.97 Z" fill="#000000" fill-rule="nonzero" fill-opacity="1" /><path clip-path="url(#clip200)" d="M984.852 1514.29 L1003.21 1514.29 L1003.21 1518.22 L989.135 1518.22 L989.135 1526.7 Q990.153 1526.35 991.172 1526.19 Q992.19 1526 993.209 1526 Q998.996 1526 1002.38 1529.17 Q1005.75 1532.34 1005.75 1537.76 Q1005.75 1543.34 1002.28 1546.44 Q998.81 1549.52 992.491 1549.52 Q990.315 1549.52 988.047 1549.15 Q985.801 1548.78 983.394 1548.04 L983.394 1543.34 Q985.477 1544.47 987.699 1545.03 Q989.922 1545.58 992.398 1545.58 Q996.403 1545.58 998.741 1543.48 Q1001.08 1541.37 1001.08 1537.76 Q1001.08 1534.15 998.741 1532.04 Q996.403 1529.94 992.398 1529.94 Q990.523 1529.94 988.648 1530.35 Q986.797 1530.77 984.852 1531.65 L984.852 1514.29 Z" fill="#000000" fill-rule="nonzero" fill-opacity="1" /><path clip-path="url(#clip200)" d="M1233.98 1517.37 Q1230.37 1517.37 1228.54 1520.93 Q1226.74 1524.47 1226.74 1531.6 Q1226.74 1538.71 1228.54 1542.27 Q1230.37 1545.82 1233.98 1545.82 Q1237.62 1545.82 1239.42 1542.27 Q1241.25 1538.71 1241.25 1531.6 Q1241.25 1524.47 1239.42 1520.93 Q1237.62 1517.37 1233.98 1517.37 M1233.98 1513.66 Q1239.79 1513.66 1242.85 1518.27 Q1245.93 1522.85 1245.93 1531.6 Q1245.93 1540.33 1242.85 1544.94 Q1239.79 1549.52 1233.98 1549.52 Q1228.17 1549.52 1225.09 1544.94 Q1222.04 1540.33 1222.04 1531.6 Q1222.04 1522.85 1225.09 1518.27 Q1228.17 1513.66 1233.98 1513.66 Z" fill="#000000" fill-rule="nonzero" fill-opacity="1" /><path clip-path="url(#clip200)" d="M1254.14 1542.97 L1259.03 1542.97 L1259.03 1548.85 L1254.14 1548.85 L1254.14 1542.97 Z" fill="#000000" fill-rule="nonzero" fill-opacity="1" /><path clip-path="url(#clip200)" d="M1279.21 1517.37 Q1275.6 1517.37 1273.77 1520.93 Q1271.97 1524.47 1271.97 1531.6 Q1271.97 1538.71 1273.77 1542.27 Q1275.6 1545.82 1279.21 1545.82 Q1282.85 1545.82 1284.65 1542.27 Q1286.48 1538.71 1286.48 1531.6 Q1286.48 1524.47 1284.65 1520.93 Q1282.85 1517.37 1279.21 1517.37 M1279.21 1513.66 Q1285.02 1513.66 1288.08 1518.27 Q1291.16 1522.85 1291.16 1531.6 Q1291.16 1540.33 1288.08 1544.94 Q1285.02 1549.52 1279.21 1549.52 Q1273.4 1549.52 1270.32 1544.94 Q1267.27 1540.33 1267.27 1531.6 Q1267.27 1522.85 1270.32 1518.27 Q1273.4 1513.66 1279.21 1513.66 Z" fill="#000000" fill-rule="nonzero" fill-opacity="1" /><path clip-path="url(#clip200)" d="M1538.3 1517.37 Q1534.68 1517.37 1532.86 1520.93 Q1531.05 1524.47 1531.05 1531.6 Q1531.05 1538.71 1532.86 1542.27 Q1534.68 1545.82 1538.3 1545.82 Q1541.93 1545.82 1543.74 1542.27 Q1545.56 1538.71 1545.56 1531.6 Q1545.56 1524.47 1543.74 1520.93 Q1541.93 1517.37 1538.3 1517.37 M1538.3 1513.66 Q1544.11 1513.66 1547.16 1518.27 Q1550.24 1522.85 1550.24 1531.6 Q1550.24 1540.33 1547.16 1544.94 Q1544.11 1549.52 1538.3 1549.52 Q1532.49 1549.52 1529.41 1544.94 Q1526.35 1540.33 1526.35 1531.6 Q1526.35 1522.85 1529.41 1518.27 Q1532.49 1513.66 1538.3 1513.66 Z" fill="#000000" fill-rule="nonzero" fill-opacity="1" /><path clip-path="url(#clip200)" d="M1558.46 1542.97 L1563.34 1542.97 L1563.34 1548.85 L1558.46 1548.85 L1558.46 1542.97 Z" fill="#000000" fill-rule="nonzero" fill-opacity="1" /><path clip-path="url(#clip200)" d="M1573.57 1514.29 L1591.93 1514.29 L1591.93 1518.22 L1577.86 1518.22 L1577.86 1526.7 Q1578.87 1526.35 1579.89 1526.19 Q1580.91 1526 1581.93 1526 Q1587.72 1526 1591.1 1529.17 Q1594.48 1532.34 1594.48 1537.76 Q1594.48 1543.34 1591 1546.44 Q1587.53 1549.52 1581.21 1549.52 Q1579.04 1549.52 1576.77 1549.15 Q1574.52 1548.78 1572.12 1548.04 L1572.12 1543.34 Q1574.2 1544.47 1576.42 1545.03 Q1578.64 1545.58 1581.12 1545.58 Q1585.12 1545.58 1587.46 1543.48 Q1589.8 1541.37 1589.8 1537.76 Q1589.8 1534.15 1587.46 1532.04 Q1585.12 1529.94 1581.12 1529.94 Q1579.24 1529.94 1577.37 1530.35 Q1575.52 1530.77 1573.57 1531.65 L1573.57 1514.29 Z" fill="#000000" fill-rule="nonzero" fill-opacity="1" /><path clip-path="url(#clip200)" d="M1831.38 1544.91 L1839.02 1544.91 L1839.02 1518.55 L1830.71 1520.21 L1830.71 1515.95 L1838.98 1514.29 L1843.65 1514.29 L1843.65 1544.91 L1851.29 1544.91 L1851.29 1548.85 L1831.38 1548.85 L1831.38 1544.91 Z" fill="#000000" fill-rule="nonzero" fill-opacity="1" /><path clip-path="url(#clip200)" d="M1860.73 1542.97 L1865.62 1542.97 L1865.62 1548.85 L1860.73 1548.85 L1860.73 1542.97 Z" fill="#000000" fill-rule="nonzero" fill-opacity="1" /><path clip-path="url(#clip200)" d="M1885.8 1517.37 Q1882.19 1517.37 1880.36 1520.93 Q1878.56 1524.47 1878.56 1531.6 Q1878.56 1538.71 1880.36 1542.27 Q1882.19 1545.82 1885.8 1545.82 Q1889.44 1545.82 1891.24 1542.27 Q1893.07 1538.71 1893.07 1531.6 Q1893.07 1524.47 1891.24 1520.93 Q1889.44 1517.37 1885.8 1517.37 M1885.8 1513.66 Q1891.61 1513.66 1894.67 1518.27 Q1897.75 1522.85 1897.75 1531.6 Q1897.75 1540.33 1894.67 1544.94 Q1891.61 1549.52 1885.8 1549.52 Q1879.99 1549.52 1876.92 1544.94 Q1873.86 1540.33 1873.86 1531.6 Q1873.86 1522.85 1876.92 1518.27 Q1879.99 1513.66 1885.8 1513.66 Z" fill="#000000" fill-rule="nonzero" fill-opacity="1" /><path clip-path="url(#clip200)" d="M2135.7 1544.91 L2143.34 1544.91 L2143.34 1518.55 L2135.03 1520.21 L2135.03 1515.95 L2143.29 1514.29 L2147.97 1514.29 L2147.97 1544.91 L2155.6 1544.91 L2155.6 1548.85 L2135.7 1548.85 L2135.7 1544.91 Z" fill="#000000" fill-rule="nonzero" fill-opacity="1" /><path clip-path="url(#clip200)" d="M2165.05 1542.97 L2169.93 1542.97 L2169.93 1548.85 L2165.05 1548.85 L2165.05 1542.97 Z" fill="#000000" fill-rule="nonzero" fill-opacity="1" /><path clip-path="url(#clip200)" d="M2180.16 1514.29 L2198.52 1514.29 L2198.52 1518.22 L2184.45 1518.22 L2184.45 1526.7 Q2185.47 1526.35 2186.48 1526.19 Q2187.5 1526 2188.52 1526 Q2194.31 1526 2197.69 1529.17 Q2201.07 1532.34 2201.07 1537.76 Q2201.07 1543.34 2197.6 1546.44 Q2194.12 1549.52 2187.8 1549.52 Q2185.63 1549.52 2183.36 1549.15 Q2181.11 1548.78 2178.71 1548.04 L2178.71 1543.34 Q2180.79 1544.47 2183.01 1545.03 Q2185.23 1545.58 2187.71 1545.58 Q2191.72 1545.58 2194.05 1543.48 Q2196.39 1541.37 2196.39 1537.76 Q2196.39 1534.15 2194.05 1532.04 Q2191.72 1529.94 2187.71 1529.94 Q2185.84 1529.94 2183.96 1530.35 Q2182.11 1530.77 2180.16 1531.65 L2180.16 1514.29 Z" fill="#000000" fill-rule="nonzero" fill-opacity="1" /><polyline clip-path="url(#clip200)" style="stroke:#000000; stroke-linecap:round; stroke-linejoin:round; stroke-width:4; stroke-opacity:1; fill:none" points="147.478,1486.45 147.478,47.2441 "/>
<polyline clip-path="url(#clip200)" style="stroke:#000000; stroke-linecap:round; stroke-linejoin:round; stroke-width:4; stroke-opacity:1; fill:none" points="147.478,1294.27 166.376,1294.27 "/>
<polyline clip-path="url(#clip200)" style="stroke:#000000; stroke-linecap:round; stroke-linejoin:round; stroke-width:4; stroke-opacity:1; fill:none" points="147.478,1039.54 166.376,1039.54 "/>
<polyline clip-path="url(#clip200)" style="stroke:#000000; stroke-linecap:round; stroke-linejoin:round; stroke-width:4; stroke-opacity:1; fill:none" points="147.478,784.802 166.376,784.802 "/>
<polyline clip-path="url(#clip200)" style="stroke:#000000; stroke-linecap:round; stroke-linejoin:round; stroke-width:4; stroke-opacity:1; fill:none" points="147.478,530.069 166.376,530.069 "/>
<polyline clip-path="url(#clip200)" style="stroke:#000000; stroke-linecap:round; stroke-linejoin:round; stroke-width:4; stroke-opacity:1; fill:none" points="147.478,275.336 166.376,275.336 "/>
<path clip-path="url(#clip200)" d="M51.3625 1294.72 L81.0383 1294.72 L81.0383 1298.65 L51.3625 1298.65 L51.3625 1294.72 Z" fill="#000000" fill-rule="nonzero" fill-opacity="1" /><path clip-path="url(#clip200)" d="M95.1586 1307.61 L111.478 1307.61 L111.478 1311.55 L89.5336 1311.55 L89.5336 1307.61 Q92.1956 1304.86 96.7789 1300.23 Q101.385 1295.58 102.566 1294.23 Q104.811 1291.71 105.691 1289.97 Q106.594 1288.21 106.594 1286.53 Q106.594 1283.77 104.649 1282.03 Q102.728 1280.3 99.6261 1280.3 Q97.4271 1280.3 94.9734 1281.06 Q92.5428 1281.83 89.7651 1283.38 L89.7651 1278.65 Q92.5891 1277.52 95.0428 1276.94 Q97.4965 1276.36 99.5335 1276.36 Q104.904 1276.36 108.098 1279.05 Q111.293 1281.73 111.293 1286.22 Q111.293 1288.35 110.483 1290.28 Q109.696 1292.17 107.589 1294.77 Q107.01 1295.44 103.909 1298.65 Q100.807 1301.85 95.1586 1307.61 Z" fill="#000000" fill-rule="nonzero" fill-opacity="1" /><path clip-path="url(#clip200)" d="M50.9921 1039.99 L80.6679 1039.99 L80.6679 1043.92 L50.9921 1043.92 L50.9921 1039.99 Z" fill="#000000" fill-rule="nonzero" fill-opacity="1" /><path clip-path="url(#clip200)" d="M91.5706 1052.88 L99.2095 1052.88 L99.2095 1026.51 L90.8993 1028.18 L90.8993 1023.92 L99.1632 1022.26 L103.839 1022.26 L103.839 1052.88 L111.478 1052.88 L111.478 1056.82 L91.5706 1056.82 L91.5706 1052.88 Z" fill="#000000" fill-rule="nonzero" fill-opacity="1" /><path clip-path="url(#clip200)" d="M99.5335 770.601 Q95.9224 770.601 94.0937 774.166 Q92.2882 777.707 92.2882 784.837 Q92.2882 791.943 94.0937 795.508 Q95.9224 799.05 99.5335 799.05 Q103.168 799.05 104.973 795.508 Q106.802 791.943 106.802 784.837 Q106.802 777.707 104.973 774.166 Q103.168 770.601 99.5335 770.601 M99.5335 766.897 Q105.344 766.897 108.399 771.503 Q111.478 776.087 111.478 784.837 Q111.478 793.564 108.399 798.17 Q105.344 802.753 99.5335 802.753 Q93.7234 802.753 90.6447 798.17 Q87.5892 793.564 87.5892 784.837 Q87.5892 776.087 90.6447 771.503 Q93.7234 766.897 99.5335 766.897 Z" fill="#000000" fill-rule="nonzero" fill-opacity="1" /><path clip-path="url(#clip200)" d="M91.5706 543.414 L99.2095 543.414 L99.2095 517.048 L90.8993 518.715 L90.8993 514.456 L99.1632 512.789 L103.839 512.789 L103.839 543.414 L111.478 543.414 L111.478 547.349 L91.5706 547.349 L91.5706 543.414 Z" fill="#000000" fill-rule="nonzero" fill-opacity="1" /><path clip-path="url(#clip200)" d="M95.1586 288.681 L111.478 288.681 L111.478 292.616 L89.5336 292.616 L89.5336 288.681 Q92.1956 285.926 96.7789 281.297 Q101.385 276.644 102.566 275.301 Q104.811 272.778 105.691 271.042 Q106.594 269.283 106.594 267.593 Q106.594 264.838 104.649 263.102 Q102.728 261.366 99.6261 261.366 Q97.4271 261.366 94.9734 262.13 Q92.5428 262.894 89.7651 264.445 L89.7651 259.723 Q92.5891 258.588 95.0428 258.01 Q97.4965 257.431 99.5335 257.431 Q104.904 257.431 108.098 260.116 Q111.293 262.801 111.293 267.292 Q111.293 269.422 110.483 271.343 Q109.696 273.241 107.589 275.834 Q107.01 276.505 103.909 279.723 Q100.807 282.917 95.1586 288.681 Z" fill="#000000" fill-rule="nonzero" fill-opacity="1" /><circle clip-path="url(#clip202)" cx="480.567" cy="394.557" r="14.4" fill="#009af9" fill-rule="evenodd" fill-opacity="0.5" stroke="#000000" stroke-opacity="0.5" stroke-width="3.2"/>
<circle clip-path="url(#clip202)" cx="1552.15" cy="552.96" r="14.4" fill="#009af9" fill-rule="evenodd" fill-opacity="0.5" stroke="#000000" stroke-opacity="0.5" stroke-width="3.2"/>
<circle clip-path="url(#clip202)" cx="1799.71" cy="541.986" r="14.4" fill="#009af9" fill-rule="evenodd" fill-opacity="0.5" stroke="#000000" stroke-opacity="0.5" stroke-width="3.2"/>
<circle clip-path="url(#clip202)" cx="1673.69" cy="668.251" r="14.4" fill="#009af9" fill-rule="evenodd" fill-opacity="0.5" stroke="#000000" stroke-opacity="0.5" stroke-width="3.2"/>
<circle clip-path="url(#clip202)" cx="1460.34" cy="854.137" r="14.4" fill="#009af9" fill-rule="evenodd" fill-opacity="0.5" stroke="#000000" stroke-opacity="0.5" stroke-width="3.2"/>
<circle clip-path="url(#clip202)" cx="792.651" cy="674.684" r="14.4" fill="#009af9" fill-rule="evenodd" fill-opacity="0.5" stroke="#000000" stroke-opacity="0.5" stroke-width="3.2"/>
<circle clip-path="url(#clip202)" cx="1540.21" cy="87.9763" r="14.4" fill="#009af9" fill-rule="evenodd" fill-opacity="0.5" stroke="#000000" stroke-opacity="0.5" stroke-width="3.2"/>
<circle clip-path="url(#clip202)" cx="1967.3" cy="729.81" r="14.4" fill="#009af9" fill-rule="evenodd" fill-opacity="0.5" stroke="#000000" stroke-opacity="0.5" stroke-width="3.2"/>
<circle clip-path="url(#clip202)" cx="2196.05" cy="938.667" r="14.4" fill="#009af9" fill-rule="evenodd" fill-opacity="0.5" stroke="#000000" stroke-opacity="0.5" stroke-width="3.2"/>
<circle clip-path="url(#clip202)" cx="1110.36" cy="931.23" r="14.4" fill="#009af9" fill-rule="evenodd" fill-opacity="0.5" stroke="#000000" stroke-opacity="0.5" stroke-width="3.2"/>
<circle clip-path="url(#clip202)" cx="209.891" cy="669.728" r="14.4" fill="#009af9" fill-rule="evenodd" fill-opacity="0.5" stroke="#000000" stroke-opacity="0.5" stroke-width="3.2"/>
<circle clip-path="url(#clip202)" cx="801.587" cy="630.859" r="14.4" fill="#009af9" fill-rule="evenodd" fill-opacity="0.5" stroke="#000000" stroke-opacity="0.5" stroke-width="3.2"/>
<circle clip-path="url(#clip202)" cx="1643.7" cy="448.942" r="14.4" fill="#009af9" fill-rule="evenodd" fill-opacity="0.5" stroke="#000000" stroke-opacity="0.5" stroke-width="3.2"/>
<circle clip-path="url(#clip202)" cx="1377.93" cy="565.374" r="14.4" fill="#009af9" fill-rule="evenodd" fill-opacity="0.5" stroke="#000000" stroke-opacity="0.5" stroke-width="3.2"/>
<circle clip-path="url(#clip202)" cx="1807.85" cy="1445.72" r="14.4" fill="#009af9" fill-rule="evenodd" fill-opacity="0.5" stroke="#000000" stroke-opacity="0.5" stroke-width="3.2"/>
<circle clip-path="url(#clip202)" cx="1773.77" cy="373.026" r="14.4" fill="#009af9" fill-rule="evenodd" fill-opacity="0.5" stroke="#000000" stroke-opacity="0.5" stroke-width="3.2"/>
<circle clip-path="url(#clip202)" cx="1018.02" cy="997.828" r="14.4" fill="#009af9" fill-rule="evenodd" fill-opacity="0.5" stroke="#000000" stroke-opacity="0.5" stroke-width="3.2"/>
<circle clip-path="url(#clip202)" cx="1682.15" cy="919.458" r="14.4" fill="#009af9" fill-rule="evenodd" fill-opacity="0.5" stroke="#000000" stroke-opacity="0.5" stroke-width="3.2"/>
<circle clip-path="url(#clip202)" cx="925.051" cy="707.898" r="14.4" fill="#009af9" fill-rule="evenodd" fill-opacity="0.5" stroke="#000000" stroke-opacity="0.5" stroke-width="3.2"/>
<circle clip-path="url(#clip202)" cx="1260.58" cy="649.332" r="14.4" fill="#009af9" fill-rule="evenodd" fill-opacity="0.5" stroke="#000000" stroke-opacity="0.5" stroke-width="3.2"/>
<circle clip-path="url(#clip202)" cx="1443.35" cy="714.123" r="14.4" fill="#009af9" fill-rule="evenodd" fill-opacity="0.5" stroke="#000000" stroke-opacity="0.5" stroke-width="3.2"/>
<circle clip-path="url(#clip202)" cx="978.964" cy="726.939" r="14.4" fill="#009af9" fill-rule="evenodd" fill-opacity="0.5" stroke="#000000" stroke-opacity="0.5" stroke-width="3.2"/>
<circle clip-path="url(#clip202)" cx="1870.27" cy="1259.28" r="14.4" fill="#009af9" fill-rule="evenodd" fill-opacity="0.5" stroke="#000000" stroke-opacity="0.5" stroke-width="3.2"/>
<circle clip-path="url(#clip202)" cx="832.222" cy="767.695" r="14.4" fill="#009af9" fill-rule="evenodd" fill-opacity="0.5" stroke="#000000" stroke-opacity="0.5" stroke-width="3.2"/>
<circle clip-path="url(#clip202)" cx="1712.38" cy="549.6" r="14.4" fill="#009af9" fill-rule="evenodd" fill-opacity="0.5" stroke="#000000" stroke-opacity="0.5" stroke-width="3.2"/>
<circle clip-path="url(#clip202)" cx="663.083" cy="1010.4" r="14.4" fill="#009af9" fill-rule="evenodd" fill-opacity="0.5" stroke="#000000" stroke-opacity="0.5" stroke-width="3.2"/>
<circle clip-path="url(#clip202)" cx="1962.46" cy="1096.85" r="14.4" fill="#009af9" fill-rule="evenodd" fill-opacity="0.5" stroke="#000000" stroke-opacity="0.5" stroke-width="3.2"/>
<circle clip-path="url(#clip202)" cx="346.44" cy="588.18" r="14.4" fill="#009af9" fill-rule="evenodd" fill-opacity="0.5" stroke="#000000" stroke-opacity="0.5" stroke-width="3.2"/>
<circle clip-path="url(#clip202)" cx="2290.34" cy="679.151" r="14.4" fill="#009af9" fill-rule="evenodd" fill-opacity="0.5" stroke="#000000" stroke-opacity="0.5" stroke-width="3.2"/>
<circle clip-path="url(#clip202)" cx="677.169" cy="1324.46" r="14.4" fill="#009af9" fill-rule="evenodd" fill-opacity="0.5" stroke="#000000" stroke-opacity="0.5" stroke-width="3.2"/>
<path clip-path="url(#clip202)" d="M209.891 669.728 L677.169 1324.46 L1807.85 1445.72 L2196.05 938.667 L2290.34 679.151 L1540.21 87.9763 L480.567 394.557 L209.891 669.728 L209.891 669.728  Z" fill="#e26f46" fill-rule="evenodd" fill-opacity="0.2"/>
<polyline clip-path="url(#clip202)" style="stroke:#000000; stroke-linecap:round; stroke-linejoin:round; stroke-width:4; stroke-opacity:0.2; fill:none" points="209.891,669.728 677.169,1324.46 1807.85,1445.72 2196.05,938.667 2290.34,679.151 1540.21,87.9763 480.567,394.557 209.891,669.728 "/>
</svg>
