<?xml version="1.0" encoding="utf-8"?>
<svg xmlns="http://www.w3.org/2000/svg" xmlns:xlink="http://www.w3.org/1999/xlink" width="600" height="400" viewBox="0 0 2400 1600">
<defs>
  <clipPath id="clip280">
    <rect x="0" y="0" width="2400" height="1600"/>
  </clipPath>
</defs>
<path clip-path="url(#clip280)" d="M0 1600 L2400 1600 L2400 0 L0 0  Z" fill="#ffffff" fill-rule="evenodd" fill-opacity="1"/>
<defs>
  <clipPath id="clip281">
    <rect x="480" y="0" width="1681" height="1600"/>
  </clipPath>
</defs>
<path clip-path="url(#clip280)" d="M193.936 1486.45 L2352.76 1486.45 L2352.76 47.2441 L193.936 47.2441  Z" fill="#ffffff" fill-rule="evenodd" fill-opacity="1"/>
<defs>
  <clipPath id="clip282">
    <rect x="193" y="47" width="2160" height="1440"/>
  </clipPath>
</defs>
<polyline clip-path="url(#clip282)" style="stroke:#000000; stroke-linecap:round; stroke-linejoin:round; stroke-width:2; stroke-opacity:0.1; fill:none" points="562.449,1486.45 562.449,47.2441 "/>
<polyline clip-path="url(#clip282)" style="stroke:#000000; stroke-linecap:round; stroke-linejoin:round; stroke-width:2; stroke-opacity:0.1; fill:none" points="946.718,1486.45 946.718,47.2441 "/>
<polyline clip-path="url(#clip282)" style="stroke:#000000; stroke-linecap:round; stroke-linejoin:round; stroke-width:2; stroke-opacity:0.1; fill:none" points="1330.99,1486.45 1330.99,47.2441 "/>
<polyline clip-path="url(#clip282)" style="stroke:#000000; stroke-linecap:round; stroke-linejoin:round; stroke-width:2; stroke-opacity:0.1; fill:none" points="1715.25,1486.45 1715.25,47.2441 "/>
<polyline clip-path="url(#clip282)" style="stroke:#000000; stroke-linecap:round; stroke-linejoin:round; stroke-width:2; stroke-opacity:0.1; fill:none" points="2099.52,1486.45 2099.52,47.2441 "/>
<polyline clip-path="url(#clip282)" style="stroke:#000000; stroke-linecap:round; stroke-linejoin:round; stroke-width:2; stroke-opacity:0.1; fill:none" points="193.936,1381.68 2352.76,1381.68 "/>
<polyline clip-path="url(#clip282)" style="stroke:#000000; stroke-linecap:round; stroke-linejoin:round; stroke-width:2; stroke-opacity:0.1; fill:none" points="193.936,1189.54 2352.76,1189.54 "/>
<polyline clip-path="url(#clip282)" style="stroke:#000000; stroke-linecap:round; stroke-linejoin:round; stroke-width:2; stroke-opacity:0.1; fill:none" points="193.936,997.407 2352.76,997.407 "/>
<polyline clip-path="url(#clip282)" style="stroke:#000000; stroke-linecap:round; stroke-linejoin:round; stroke-width:2; stroke-opacity:0.1; fill:none" points="193.936,805.273 2352.76,805.273 "/>
<polyline clip-path="url(#clip282)" style="stroke:#000000; stroke-linecap:round; stroke-linejoin:round; stroke-width:2; stroke-opacity:0.1; fill:none" points="193.936,613.139 2352.76,613.139 "/>
<polyline clip-path="url(#clip282)" style="stroke:#000000; stroke-linecap:round; stroke-linejoin:round; stroke-width:2; stroke-opacity:0.1; fill:none" points="193.936,421.004 2352.76,421.004 "/>
<polyline clip-path="url(#clip282)" style="stroke:#000000; stroke-linecap:round; stroke-linejoin:round; stroke-width:2; stroke-opacity:0.1; fill:none" points="193.936,228.87 2352.76,228.87 "/>
<polyline clip-path="url(#clip280)" style="stroke:#000000; stroke-linecap:round; stroke-linejoin:round; stroke-width:4; stroke-opacity:1; fill:none" points="193.936,1486.45 2352.76,1486.45 "/>
<polyline clip-path="url(#clip280)" style="stroke:#000000; stroke-linecap:round; stroke-linejoin:round; stroke-width:4; stroke-opacity:1; fill:none" points="562.449,1486.45 562.449,1467.55 "/>
<polyline clip-path="url(#clip280)" style="stroke:#000000; stroke-linecap:round; stroke-linejoin:round; stroke-width:4; stroke-opacity:1; fill:none" points="946.718,1486.45 946.718,1467.55 "/>
<polyline clip-path="url(#clip280)" style="stroke:#000000; stroke-linecap:round; stroke-linejoin:round; stroke-width:4; stroke-opacity:1; fill:none" points="1330.99,1486.45 1330.99,1467.55 "/>
<polyline clip-path="url(#clip280)" style="stroke:#000000; stroke-linecap:round; stroke-linejoin:round; stroke-width:4; stroke-opacity:1; fill:none" points="1715.25,1486.45 1715.25,1467.55 "/>
<polyline clip-path="url(#clip280)" style="stroke:#000000; stroke-linecap:round; stroke-linejoin:round; stroke-width:4; stroke-opacity:1; fill:none" points="2099.52,1486.45 2099.52,1467.55 "/>
<path clip-path="url(#clip280)" d="M531.917 1532.02 L561.593 1532.02 L561.593 1535.95 L531.917 1535.95 L531.917 1532.02 Z" fill="#000000" fill-rule="nonzero" fill-opacity="1" /><path clip-path="url(#clip280)" d="M585.852 1530.21 Q589.209 1530.93 591.084 1533.2 Q592.982 1535.47 592.982 1538.8 Q592.982 1543.92 589.463 1546.72 Q585.945 1549.52 579.463 1549.52 Q577.287 1549.52 574.972 1549.08 Q572.681 1548.66 570.227 1547.81 L570.227 1543.29 Q572.172 1544.43 574.486 1545.01 Q576.801 1545.58 579.324 1545.58 Q583.722 1545.58 586.014 1543.85 Q588.329 1542.11 588.329 1538.8 Q588.329 1535.75 586.176 1534.03 Q584.047 1532.3 580.227 1532.3 L576.199 1532.3 L576.199 1528.45 L580.412 1528.45 Q583.861 1528.45 585.69 1527.09 Q587.519 1525.7 587.519 1523.11 Q587.519 1520.45 585.621 1519.03 Q583.746 1517.6 580.227 1517.6 Q578.306 1517.6 576.107 1518.01 Q573.908 1518.43 571.269 1519.31 L571.269 1515.14 Q573.931 1514.4 576.246 1514.03 Q578.584 1513.66 580.644 1513.66 Q585.968 1513.66 589.07 1516.09 Q592.171 1518.5 592.171 1522.62 Q592.171 1525.49 590.528 1527.48 Q588.884 1529.45 585.852 1530.21 Z" fill="#000000" fill-rule="nonzero" fill-opacity="1" /><path clip-path="url(#clip280)" d="M916.66 1532.02 L946.336 1532.02 L946.336 1535.95 L916.66 1535.95 L916.66 1532.02 Z" fill="#000000" fill-rule="nonzero" fill-opacity="1" /><path clip-path="url(#clip280)" d="M960.456 1544.91 L976.776 1544.91 L976.776 1548.85 L954.831 1548.85 L954.831 1544.91 Q957.493 1542.16 962.077 1537.53 Q966.683 1532.88 967.864 1531.53 Q970.109 1529.01 970.989 1527.27 Q971.891 1525.51 971.891 1523.82 Q971.891 1521.07 969.947 1519.33 Q968.026 1517.6 964.924 1517.6 Q962.725 1517.6 960.271 1518.36 Q957.84 1519.13 955.063 1520.68 L955.063 1515.95 Q957.887 1514.82 960.34 1514.24 Q962.794 1513.66 964.831 1513.66 Q970.201 1513.66 973.396 1516.35 Q976.59 1519.03 976.59 1523.52 Q976.59 1525.65 975.78 1527.57 Q974.993 1529.47 972.887 1532.07 Q972.308 1532.74 969.206 1535.95 Q966.104 1539.15 960.456 1544.91 Z" fill="#000000" fill-rule="nonzero" fill-opacity="1" /><path clip-path="url(#clip280)" d="M1300.74 1532.02 L1330.42 1532.02 L1330.42 1535.95 L1300.74 1535.95 L1300.74 1532.02 Z" fill="#000000" fill-rule="nonzero" fill-opacity="1" /><path clip-path="url(#clip280)" d="M1341.32 1544.91 L1348.96 1544.91 L1348.96 1518.55 L1340.65 1520.21 L1340.65 1515.95 L1348.91 1514.29 L1353.59 1514.29 L1353.59 1544.91 L1361.23 1544.91 L1361.23 1548.85 L1341.32 1548.85 L1341.32 1544.91 Z" fill="#000000" fill-rule="nonzero" fill-opacity="1" /><path clip-path="url(#clip280)" d="M1715.25 1517.37 Q1711.64 1517.37 1709.81 1520.93 Q1708.01 1524.47 1708.01 1531.6 Q1708.01 1538.71 1709.81 1542.27 Q1711.64 1545.82 1715.25 1545.82 Q1718.89 1545.82 1720.69 1542.27 Q1722.52 1538.71 1722.52 1531.6 Q1722.52 1524.47 1720.69 1520.93 Q1718.89 1517.37 1715.25 1517.37 M1715.25 1513.66 Q1721.06 1513.66 1724.12 1518.27 Q1727.2 1522.85 1727.2 1531.6 Q1727.2 1540.33 1724.12 1544.94 Q1721.06 1549.52 1715.25 1549.52 Q1709.44 1549.52 1706.37 1544.94 Q1703.31 1540.33 1703.31 1531.6 Q1703.31 1522.85 1706.37 1518.27 Q1709.44 1513.66 1715.25 1513.66 Z" fill="#000000" fill-rule="nonzero" fill-opacity="1" /><path clip-path="url(#clip280)" d="M2089.91 1544.91 L2097.54 1544.91 L2097.54 1518.55 L2089.23 1520.21 L2089.23 1515.95 L2097.5 1514.29 L2102.17 1514.29 L2102.17 1544.91 L2109.81 1544.91 L2109.81 1548.85 L2089.91 1548.85 L2089.91 1544.91 Z" fill="#000000" fill-rule="nonzero" fill-opacity="1" /><polyline clip-path="url(#clip280)" style="stroke:#000000; stroke-linecap:round; stroke-linejoin:round; stroke-width:4; stroke-opacity:1; fill:none" points="193.936,1486.45 193.936,47.2441 "/>
<polyline clip-path="url(#clip280)" style="stroke:#000000; stroke-linecap:round; stroke-linejoin:round; stroke-width:4; stroke-opacity:1; fill:none" points="193.936,1381.68 212.834,1381.68 "/>
<polyline clip-path="url(#clip280)" style="stroke:#000000; stroke-linecap:round; stroke-linejoin:round; stroke-width:4; stroke-opacity:1; fill:none" points="193.936,1189.54 212.834,1189.54 "/>
<polyline clip-path="url(#clip280)" style="stroke:#000000; stroke-linecap:round; stroke-linejoin:round; stroke-width:4; stroke-opacity:1; fill:none" points="193.936,997.407 212.834,997.407 "/>
<polyline clip-path="url(#clip280)" style="stroke:#000000; stroke-linecap:round; stroke-linejoin:round; stroke-width:4; stroke-opacity:1; fill:none" points="193.936,805.273 212.834,805.273 "/>
<polyline clip-path="url(#clip280)" style="stroke:#000000; stroke-linecap:round; stroke-linejoin:round; stroke-width:4; stroke-opacity:1; fill:none" points="193.936,613.139 212.834,613.139 "/>
<polyline clip-path="url(#clip280)" style="stroke:#000000; stroke-linecap:round; stroke-linejoin:round; stroke-width:4; stroke-opacity:1; fill:none" points="193.936,421.004 212.834,421.004 "/>
<polyline clip-path="url(#clip280)" style="stroke:#000000; stroke-linecap:round; stroke-linejoin:round; stroke-width:4; stroke-opacity:1; fill:none" points="193.936,228.87 212.834,228.87 "/>
<path clip-path="url(#clip280)" d="M51.9875 1382.13 L81.6633 1382.13 L81.6633 1386.06 L51.9875 1386.06 L51.9875 1382.13 Z" fill="#000000" fill-rule="nonzero" fill-opacity="1" /><path clip-path="url(#clip280)" d="M92.566 1395.02 L100.205 1395.02 L100.205 1368.65 L91.8947 1370.32 L91.8947 1366.06 L100.159 1364.4 L104.834 1364.4 L104.834 1395.02 L112.473 1395.02 L112.473 1398.96 L92.566 1398.96 L92.566 1395.02 Z" fill="#000000" fill-rule="nonzero" fill-opacity="1" /><path clip-path="url(#clip280)" d="M121.918 1393.08 L126.802 1393.08 L126.802 1398.96 L121.918 1398.96 L121.918 1393.08 Z" fill="#000000" fill-rule="nonzero" fill-opacity="1" /><path clip-path="url(#clip280)" d="M137.033 1364.4 L155.39 1364.4 L155.39 1368.33 L141.316 1368.33 L141.316 1376.8 Q142.334 1376.46 143.353 1376.29 Q144.371 1376.11 145.39 1376.11 Q151.177 1376.11 154.556 1379.28 Q157.936 1382.45 157.936 1387.87 Q157.936 1393.45 154.464 1396.55 Q150.992 1399.63 144.672 1399.63 Q142.496 1399.63 140.228 1399.26 Q137.982 1398.89 135.575 1398.15 L135.575 1393.45 Q137.658 1394.58 139.881 1395.14 Q142.103 1395.69 144.58 1395.69 Q148.584 1395.69 150.922 1393.59 Q153.26 1391.48 153.26 1387.87 Q153.26 1384.26 150.922 1382.15 Q148.584 1380.04 144.58 1380.04 Q142.705 1380.04 140.83 1380.46 Q138.978 1380.88 137.033 1381.76 L137.033 1364.4 Z" fill="#000000" fill-rule="nonzero" fill-opacity="1" /><path clip-path="url(#clip280)" d="M50.9921 1189.99 L80.6679 1189.99 L80.6679 1193.93 L50.9921 1193.93 L50.9921 1189.99 Z" fill="#000000" fill-rule="nonzero" fill-opacity="1" /><path clip-path="url(#clip280)" d="M91.5706 1202.89 L99.2095 1202.89 L99.2095 1176.52 L90.8993 1178.19 L90.8993 1173.93 L99.1632 1172.26 L103.839 1172.26 L103.839 1202.89 L111.478 1202.89 L111.478 1206.82 L91.5706 1206.82 L91.5706 1202.89 Z" fill="#000000" fill-rule="nonzero" fill-opacity="1" /><path clip-path="url(#clip280)" d="M120.922 1200.94 L125.807 1200.94 L125.807 1206.82 L120.922 1206.82 L120.922 1200.94 Z" fill="#000000" fill-rule="nonzero" fill-opacity="1" /><path clip-path="url(#clip280)" d="M145.992 1175.34 Q142.381 1175.34 140.552 1178.9 Q138.746 1182.45 138.746 1189.58 Q138.746 1196.68 140.552 1200.25 Q142.381 1203.79 145.992 1203.79 Q149.626 1203.79 151.431 1200.25 Q153.26 1196.68 153.26 1189.58 Q153.26 1182.45 151.431 1178.9 Q149.626 1175.34 145.992 1175.34 M145.992 1171.64 Q151.802 1171.64 154.857 1176.24 Q157.936 1180.83 157.936 1189.58 Q157.936 1198.3 154.857 1202.91 Q151.802 1207.49 145.992 1207.49 Q140.181 1207.49 137.103 1202.91 Q134.047 1198.3 134.047 1189.58 Q134.047 1180.83 137.103 1176.24 Q140.181 1171.64 145.992 1171.64 Z" fill="#000000" fill-rule="nonzero" fill-opacity="1" /><path clip-path="url(#clip280)" d="M51.9875 997.858 L81.6633 997.858 L81.6633 1001.79 L51.9875 1001.79 L51.9875 997.858 Z" fill="#000000" fill-rule="nonzero" fill-opacity="1" /><path clip-path="url(#clip280)" d="M101.756 983.206 Q98.1447 983.206 96.316 986.771 Q94.5104 990.312 94.5104 997.442 Q94.5104 1004.55 96.316 1008.11 Q98.1447 1011.65 101.756 1011.65 Q105.39 1011.65 107.196 1008.11 Q109.024 1004.55 109.024 997.442 Q109.024 990.312 107.196 986.771 Q105.39 983.206 101.756 983.206 M101.756 979.502 Q107.566 979.502 110.621 984.108 Q113.7 988.692 113.7 997.442 Q113.7 1006.17 110.621 1010.78 Q107.566 1015.36 101.756 1015.36 Q95.9456 1015.36 92.8669 1010.78 Q89.8114 1006.17 89.8114 997.442 Q89.8114 988.692 92.8669 984.108 Q95.9456 979.502 101.756 979.502 Z" fill="#000000" fill-rule="nonzero" fill-opacity="1" /><path clip-path="url(#clip280)" d="M121.918 1008.81 L126.802 1008.81 L126.802 1014.69 L121.918 1014.69 L121.918 1008.81 Z" fill="#000000" fill-rule="nonzero" fill-opacity="1" /><path clip-path="url(#clip280)" d="M137.033 980.127 L155.39 980.127 L155.39 984.062 L141.316 984.062 L141.316 992.534 Q142.334 992.187 143.353 992.025 Q144.371 991.84 145.39 991.84 Q151.177 991.84 154.556 995.011 Q157.936 998.182 157.936 1003.6 Q157.936 1009.18 154.464 1012.28 Q150.992 1015.36 144.672 1015.36 Q142.496 1015.36 140.228 1014.99 Q137.982 1014.62 135.575 1013.88 L135.575 1009.18 Q137.658 1010.31 139.881 1010.87 Q142.103 1011.42 144.58 1011.42 Q148.584 1011.42 150.922 1009.32 Q153.26 1007.21 153.26 1003.6 Q153.26 999.988 150.922 997.882 Q148.584 995.775 144.58 995.775 Q142.705 995.775 140.83 996.192 Q138.978 996.608 137.033 997.488 L137.033 980.127 Z" fill="#000000" fill-rule="nonzero" fill-opacity="1" /><path clip-path="url(#clip280)" d="M100.76 791.072 Q97.1493 791.072 95.3206 794.636 Q93.515 798.178 93.515 805.308 Q93.515 812.414 95.3206 815.979 Q97.1493 819.52 100.76 819.52 Q104.395 819.52 106.2 815.979 Q108.029 812.414 108.029 805.308 Q108.029 798.178 106.2 794.636 Q104.395 791.072 100.76 791.072 M100.76 787.368 Q106.571 787.368 109.626 791.974 Q112.705 796.558 112.705 805.308 Q112.705 814.034 109.626 818.641 Q106.571 823.224 100.76 823.224 Q94.9502 823.224 91.8715 818.641 Q88.816 814.034 88.816 805.308 Q88.816 796.558 91.8715 791.974 Q94.9502 787.368 100.76 787.368 Z" fill="#000000" fill-rule="nonzero" fill-opacity="1" /><path clip-path="url(#clip280)" d="M120.922 816.673 L125.807 816.673 L125.807 822.553 L120.922 822.553 L120.922 816.673 Z" fill="#000000" fill-rule="nonzero" fill-opacity="1" /><path clip-path="url(#clip280)" d="M145.992 791.072 Q142.381 791.072 140.552 794.636 Q138.746 798.178 138.746 805.308 Q138.746 812.414 140.552 815.979 Q142.381 819.52 145.992 819.52 Q149.626 819.52 151.431 815.979 Q153.26 812.414 153.26 805.308 Q153.26 798.178 151.431 794.636 Q149.626 791.072 145.992 791.072 M145.992 787.368 Q151.802 787.368 154.857 791.974 Q157.936 796.558 157.936 805.308 Q157.936 814.034 154.857 818.641 Q151.802 823.224 145.992 823.224 Q140.181 823.224 137.103 818.641 Q134.047 814.034 134.047 805.308 Q134.047 796.558 137.103 791.974 Q140.181 787.368 145.992 787.368 Z" fill="#000000" fill-rule="nonzero" fill-opacity="1" /><path clip-path="url(#clip280)" d="M101.756 598.937 Q98.1447 598.937 96.316 602.502 Q94.5104 606.044 94.5104 613.173 Q94.5104 620.28 96.316 623.845 Q98.1447 627.386 101.756 627.386 Q105.39 627.386 107.196 623.845 Q109.024 620.28 109.024 613.173 Q109.024 606.044 107.196 602.502 Q105.39 598.937 101.756 598.937 M101.756 595.234 Q107.566 595.234 110.621 599.84 Q113.7 604.423 113.7 613.173 Q113.7 621.9 110.621 626.507 Q107.566 631.09 101.756 631.09 Q95.9456 631.09 92.8669 626.507 Q89.8114 621.9 89.8114 613.173 Q89.8114 604.423 92.8669 599.84 Q95.9456 595.234 101.756 595.234 Z" fill="#000000" fill-rule="nonzero" fill-opacity="1" /><path clip-path="url(#clip280)" d="M121.918 624.539 L126.802 624.539 L126.802 630.419 L121.918 630.419 L121.918 624.539 Z" fill="#000000" fill-rule="nonzero" fill-opacity="1" /><path clip-path="url(#clip280)" d="M137.033 595.859 L155.39 595.859 L155.39 599.794 L141.316 599.794 L141.316 608.266 Q142.334 607.919 143.353 607.757 Q144.371 607.572 145.39 607.572 Q151.177 607.572 154.556 610.743 Q157.936 613.914 157.936 619.331 Q157.936 624.909 154.464 628.011 Q150.992 631.09 144.672 631.09 Q142.496 631.09 140.228 630.72 Q137.982 630.349 135.575 629.608 L135.575 624.909 Q137.658 626.044 139.881 626.599 Q142.103 627.155 144.58 627.155 Q148.584 627.155 150.922 625.048 Q153.26 622.942 153.26 619.331 Q153.26 615.72 150.922 613.613 Q148.584 611.507 144.58 611.507 Q142.705 611.507 140.83 611.923 Q138.978 612.34 137.033 613.22 L137.033 595.859 Z" fill="#000000" fill-rule="nonzero" fill-opacity="1" /><path clip-path="url(#clip280)" d="M91.5706 434.349 L99.2095 434.349 L99.2095 407.984 L90.8993 409.65 L90.8993 405.391 L99.1632 403.724 L103.839 403.724 L103.839 434.349 L111.478 434.349 L111.478 438.284 L91.5706 438.284 L91.5706 434.349 Z" fill="#000000" fill-rule="nonzero" fill-opacity="1" /><path clip-path="url(#clip280)" d="M120.922 432.405 L125.807 432.405 L125.807 438.284 L120.922 438.284 L120.922 432.405 Z" fill="#000000" fill-rule="nonzero" fill-opacity="1" /><path clip-path="url(#clip280)" d="M145.992 406.803 Q142.381 406.803 140.552 410.368 Q138.746 413.91 138.746 421.039 Q138.746 428.146 140.552 431.71 Q142.381 435.252 145.992 435.252 Q149.626 435.252 151.431 431.71 Q153.26 428.146 153.26 421.039 Q153.26 413.91 151.431 410.368 Q149.626 406.803 145.992 406.803 M145.992 403.099 Q151.802 403.099 154.857 407.706 Q157.936 412.289 157.936 421.039 Q157.936 429.766 154.857 434.372 Q151.802 438.956 145.992 438.956 Q140.181 438.956 137.103 434.372 Q134.047 429.766 134.047 421.039 Q134.047 412.289 137.103 407.706 Q140.181 403.099 145.992 403.099 Z" fill="#000000" fill-rule="nonzero" fill-opacity="1" /><path clip-path="url(#clip280)" d="M92.566 242.215 L100.205 242.215 L100.205 215.849 L91.8947 217.516 L91.8947 213.257 L100.159 211.59 L104.834 211.59 L104.834 242.215 L112.473 242.215 L112.473 246.15 L92.566 246.15 L92.566 242.215 Z" fill="#000000" fill-rule="nonzero" fill-opacity="1" /><path clip-path="url(#clip280)" d="M121.918 240.271 L126.802 240.271 L126.802 246.15 L121.918 246.15 L121.918 240.271 Z" fill="#000000" fill-rule="nonzero" fill-opacity="1" /><path clip-path="url(#clip280)" d="M137.033 211.59 L155.39 211.59 L155.39 215.525 L141.316 215.525 L141.316 223.998 Q142.334 223.65 143.353 223.488 Q144.371 223.303 145.39 223.303 Q151.177 223.303 154.556 226.474 Q157.936 229.646 157.936 235.062 Q157.936 240.641 154.464 243.743 Q150.992 246.822 144.672 246.822 Q142.496 246.822 140.228 246.451 Q137.982 246.081 135.575 245.34 L135.575 240.641 Q137.658 241.775 139.881 242.331 Q142.103 242.886 144.58 242.886 Q148.584 242.886 150.922 240.78 Q153.26 238.673 153.26 235.062 Q153.26 231.451 150.922 229.345 Q148.584 227.238 144.58 227.238 Q142.705 227.238 140.83 227.655 Q138.978 228.072 137.033 228.951 L137.033 211.59 Z" fill="#000000" fill-rule="nonzero" fill-opacity="1" /><path clip-path="url(#clip282)" d="M1907.39 430.443 L1909.24 449.23 L1912.92 467.746 L1918.4 485.811 L1925.63 503.251 L1934.53 519.9 L1945.01 535.597 L1956.99 550.189 L1970.34 563.538 L1984.93 575.514 L2000.63 586.002 L2017.28 594.901 L2034.72 602.125 L2052.78 607.605 L2071.3 611.288 L2090.08 613.139 L2108.96 613.139 L2127.75 611.288 L2146.26 607.605 L2164.33 602.125 L2181.77 594.901 L2198.42 586.002 L2214.12 575.514 L2228.71 563.538 L2242.06 550.189 L2254.03 535.597 L2264.52 519.9 L2273.42 503.251 L2280.64 485.811 L2286.12 467.746 L2289.81 449.23 L2291.66 430.443 L2291.66 411.565 L2289.81 392.778 L2286.12 374.263 L2280.64 356.198 L2273.42 338.757 L2264.52 322.109 L2254.03 306.412 L2242.06 291.819 L2228.71 278.471 L2214.12 266.495 L2198.42 256.007 L2181.77 247.108 L2164.33 239.883 L2146.26 234.403 L2127.75 230.721 L2108.96 228.87 L2090.08 228.87 L2071.3 230.721 L2052.78 234.403 L2034.72 239.883 L2017.28 247.108 L2000.63 256.007 L1984.93 266.495 L1970.34 278.471 L1956.99 291.819 L1945.01 306.412 L1934.53 322.109 L1925.63 338.757 L1918.4 356.198 L1912.92 374.263 L1909.24 392.778 L1907.39 411.565 L1907.39 430.443 L1907.39 430.443  Z" fill="#009af9" fill-rule="evenodd" fill-opacity="0.5"/>
<polyline clip-path="url(#clip282)" style="stroke:#000000; stroke-linecap:round; stroke-linejoin:round; stroke-width:4; stroke-opacity:0.5; fill:none" points="1907.39,430.443 1909.24,449.23 1912.92,467.746 1918.4,485.811 1925.63,503.251 1934.53,519.9 1945.01,535.597 1956.99,550.189 1970.34,563.538 1984.93,575.514 2000.63,586.002 2017.28,594.901 2034.72,602.125 2052.78,607.605 2071.3,611.288 2090.08,613.139 2108.96,613.139 2127.75,611.288 2146.26,607.605 2164.33,602.125 2181.77,594.901 2198.42,586.002 2214.12,575.514 2228.71,563.538 2242.06,550.189 2254.03,535.597 2264.52,519.9 2273.42,503.251 2280.64,485.811 2286.12,467.746 2289.81,449.23 2291.66,430.443 2291.66,411.565 2289.81,392.778 2286.12,374.263 2280.64,356.198 2273.42,338.757 2264.52,322.109 2254.03,306.412 2242.06,291.819 2228.71,278.471 2214.12,266.495 2198.42,256.007 2181.77,247.108 2164.33,239.883 2146.26,234.403 2127.75,230.721 2108.96,228.87 2090.08,228.87 2071.3,230.721 2052.78,234.403 2034.72,239.883 2017.28,247.108 2000.63,256.007 1984.93,266.495 1970.34,278.471 1956.99,291.819 1945.01,306.412 1934.53,322.109 1925.63,338.757 1918.4,356.198 1912.92,374.263 1909.24,392.778 1907.39,411.565 1907.39,430.443 "/>
<path clip-path="url(#clip282)" d="M255.035 1012.51 L257.995 1042.57 L263.888 1072.19 L272.656 1101.1 L284.215 1129 L298.453 1155.64 L315.234 1180.75 L334.395 1204.1 L355.753 1225.46 L379.102 1244.62 L404.216 1261.4 L430.854 1275.64 L458.76 1287.2 L487.664 1295.97 L517.288 1301.86 L547.347 1304.82 L577.552 1304.82 L607.611 1301.86 L637.235 1295.97 L666.139 1287.2 L694.045 1275.64 L720.683 1261.4 L745.797 1244.62 L769.145 1225.46 L790.503 1204.1 L809.665 1180.75 L826.446 1155.64 L840.684 1129 L852.243 1101.1 L861.011 1072.19 L866.904 1042.57 L869.864 1012.51 L869.864 982.305 L866.904 952.246 L861.011 922.621 L852.243 893.717 L840.684 865.812 L826.446 839.174 L809.665 814.059 L790.503 790.711 L769.145 769.353 L745.797 750.191 L720.683 733.411 L694.045 719.172 L666.139 707.613 L637.235 698.846 L607.611 692.953 L577.552 689.992 L547.347 689.992 L517.288 692.953 L487.664 698.846 L458.76 707.613 L430.854 719.172 L404.216 733.411 L379.102 750.191 L355.753 769.353 L334.395 790.711 L315.234 814.059 L298.453 839.174 L284.215 865.812 L272.656 893.717 L263.888 922.621 L257.995 952.246 L255.035 982.305 L255.035 1012.51 L255.035 1012.51  Z" fill="#e26f46" fill-rule="evenodd" fill-opacity="0.5"/>
<polyline clip-path="url(#clip282)" style="stroke:#000000; stroke-linecap:round; stroke-linejoin:round; stroke-width:4; stroke-opacity:0.5; fill:none" points="255.035,1012.51 257.995,1042.57 263.888,1072.19 272.656,1101.1 284.215,1129 298.453,1155.64 315.234,1180.75 334.395,1204.1 355.753,1225.46 379.102,1244.62 404.216,1261.4 430.854,1275.64 458.76,1287.2 487.664,1295.97 517.288,1301.86 547.347,1304.82 577.552,1304.82 607.611,1301.86 637.235,1295.97 666.139,1287.2 694.045,1275.64 720.683,1261.4 745.797,1244.62 769.145,1225.46 790.503,1204.1 809.665,1180.75 826.446,1155.64 840.684,1129 852.243,1101.1 861.011,1072.19 866.904,1042.57 869.864,1012.51 869.864,982.305 866.904,952.246 861.011,922.621 852.243,893.717 840.684,865.812 826.446,839.174 809.665,814.059 790.503,790.711 769.145,769.353 745.797,750.191 720.683,733.411 694.045,719.172 666.139,707.613 637.235,698.846 607.611,692.953 577.552,689.992 547.347,689.992 517.288,692.953 487.664,698.846 458.76,707.613 430.854,719.172 404.216,733.411 379.102,750.191 355.753,769.353 334.395,790.711 315.234,814.059 298.453,839.174 284.215,865.812 272.656,893.717 263.888,922.621 257.995,952.246 255.035,982.305 255.035,1012.51 "/>
<path clip-path="url(#clip282)" d="M255.035 986.104 L255.035 1012.51 L257.995 1042.57 L263.888 1072.19 L272.656 1101.1 L284.215 1129 L298.453 1155.64 L315.234 1180.75 L334.395 1204.1 L355.753 1225.46 L379.102 1244.62 L404.216 1261.4 L430.854 1275.64 L458.76 1287.2 L487.664 1295.97 L517.288 1301.86 L547.347 1304.82 L570.395 1304.82 L586.265 1304 L602.071 1302.36 L617.771 1299.91 L633.324 1296.65 L648.687 1292.58 L663.821 1287.74 L678.683 1282.11 L696.496 1274.3 L2183.26 593.983 L2192.84 589.085 L2204.15 582.289 L2214.96 574.733 L2225.24 566.452 L2234.92 557.487 L2243.96 547.879 L2252.32 537.673 L2259.96 526.918 L2266.85 515.664 L2272.95 503.964 L2278.23 491.874 L2282.67 479.449 L2286.25 466.749 L2288.95 453.834 L2290.75 440.764 L2291.66 427.601 L2291.66 411.565 L2289.81 392.778 L2286.12 374.263 L2280.64 356.198 L2273.42 338.757 L2264.52 322.109 L2254.03 306.412 L2242.06 291.819 L2228.71 278.471 L2214.12 266.495 L2198.42 256.007 L2181.77 247.108 L2164.33 239.883 L2146.26 234.403 L2127.75 230.721 L2108.96 228.87 L2092.68 228.87 L2079.02 229.844 L2065.47 231.788 L2052.09 234.691 L2045.19 236.712 L475.83 702.445 L466.928 705.097 L451.682 710.527 L433.78 717.987 L413.608 728.19 L394.24 739.847 L375.781 752.895 L358.329 767.263 L341.98 782.873 L326.821 799.643 L312.934 817.48 L300.395 836.288 L289.271 855.967 L279.622 876.41 L271.501 897.505 L264.95 919.141 L260.006 941.199 L256.695 963.56 L255.035 986.104 L255.035 986.104  Z" fill="#3da44d" fill-rule="evenodd" fill-opacity="0.2"/>
<polyline clip-path="url(#clip282)" style="stroke:#000000; stroke-linecap:round; stroke-linejoin:round; stroke-width:4; stroke-opacity:0.2; fill:none" points="255.035,986.104 255.035,1012.51 257.995,1042.57 263.888,1072.19 272.656,1101.1 284.215,1129 298.453,1155.64 315.234,1180.75 334.395,1204.1 355.753,1225.46 379.102,1244.62 404.216,1261.4 430.854,1275.64 458.76,1287.2 487.664,1295.97 517.288,1301.86 547.347,1304.82 570.395,1304.82 586.265,1304 602.071,1302.36 617.771,1299.91 633.324,1296.65 648.687,1292.58 663.821,1287.74 678.683,1282.11 696.496,1274.3 2183.26,593.983 2192.84,589.085 2204.15,582.289 2214.96,574.733 2225.24,566.452 2234.92,557.487 2243.96,547.879 2252.32,537.673 2259.96,526.918 2266.85,515.664 2272.95,503.964 2278.23,491.874 2282.67,479.449 2286.25,466.749 2288.95,453.834 2290.75,440.764 2291.66,427.601 2291.66,411.565 2289.81,392.778 2286.12,374.263 2280.64,356.198 2273.42,338.757 2264.52,322.109 2254.03,306.412 2242.06,291.819 2228.71,278.471 2214.12,266.495 2198.42,256.007 2181.77,247.108 2164.33,239.883 2146.26,234.403 2127.75,230.721 2108.96,228.87 2092.68,228.87 2079.02,229.844 2065.47,231.788 2052.09,234.691 2045.19,236.712 475.83,702.445 466.928,705.097 451.682,710.527 433.78,717.987 413.608,728.19 394.24,739.847 375.781,752.895 358.329,767.263 341.98,782.873 326.821,799.643 312.934,817.48 300.395,836.288 289.271,855.967 279.622,876.41 271.501,897.505 264.95,919.141 260.006,941.199 256.695,963.56 255.035,986.104 "/>
</svg>
