<?xml version="1.0" encoding="utf-8"?>
<svg xmlns="http://www.w3.org/2000/svg" xmlns:xlink="http://www.w3.org/1999/xlink" width="600" height="400" viewBox="0 0 2400 1600">
<defs>
  <clipPath id="clip990">
    <rect x="0" y="0" width="2400" height="1600"/>
  </clipPath>
</defs>
<path clip-path="url(#clip990)" d="M0 1600 L2400 1600 L2400 0 L0 0  Z" fill="#ffffff" fill-rule="evenodd" fill-opacity="1"/>
<defs>
  <clipPath id="clip991">
    <rect x="480" y="0" width="1681" height="1600"/>
  </clipPath>
</defs>
<path clip-path="url(#clip990)" d="M148.057 1486.45 L2352.76 1486.45 L2352.76 47.2441 L148.057 47.2441  Z" fill="#ffffff" fill-rule="evenodd" fill-opacity="1"/>
<defs>
  <clipPath id="clip992">
    <rect x="148" y="47" width="2206" height="1440"/>
  </clipPath>
</defs>
<polyline clip-path="url(#clip992)" style="stroke:#000000; stroke-linecap:round; stroke-linejoin:round; stroke-width:2; stroke-opacity:0.1; fill:none" points="427.989,1486.45 427.989,47.2441 "/>
<polyline clip-path="url(#clip992)" style="stroke:#000000; stroke-linecap:round; stroke-linejoin:round; stroke-width:2; stroke-opacity:0.1; fill:none" points="907.037,1486.45 907.037,47.2441 "/>
<polyline clip-path="url(#clip992)" style="stroke:#000000; stroke-linecap:round; stroke-linejoin:round; stroke-width:2; stroke-opacity:0.1; fill:none" points="1386.08,1486.45 1386.08,47.2441 "/>
<polyline clip-path="url(#clip992)" style="stroke:#000000; stroke-linecap:round; stroke-linejoin:round; stroke-width:2; stroke-opacity:0.1; fill:none" points="1865.13,1486.45 1865.13,47.2441 "/>
<polyline clip-path="url(#clip992)" style="stroke:#000000; stroke-linecap:round; stroke-linejoin:round; stroke-width:2; stroke-opacity:0.1; fill:none" points="2344.18,1486.45 2344.18,47.2441 "/>
<polyline clip-path="url(#clip992)" style="stroke:#000000; stroke-linecap:round; stroke-linejoin:round; stroke-width:2; stroke-opacity:0.1; fill:none" points="148.057,1447.77 2352.76,1447.77 "/>
<polyline clip-path="url(#clip992)" style="stroke:#000000; stroke-linecap:round; stroke-linejoin:round; stroke-width:2; stroke-opacity:0.1; fill:none" points="148.057,1190.74 2352.76,1190.74 "/>
<polyline clip-path="url(#clip992)" style="stroke:#000000; stroke-linecap:round; stroke-linejoin:round; stroke-width:2; stroke-opacity:0.1; fill:none" points="148.057,933.706 2352.76,933.706 "/>
<polyline clip-path="url(#clip992)" style="stroke:#000000; stroke-linecap:round; stroke-linejoin:round; stroke-width:2; stroke-opacity:0.1; fill:none" points="148.057,676.673 2352.76,676.673 "/>
<polyline clip-path="url(#clip992)" style="stroke:#000000; stroke-linecap:round; stroke-linejoin:round; stroke-width:2; stroke-opacity:0.1; fill:none" points="148.057,419.64 2352.76,419.64 "/>
<polyline clip-path="url(#clip992)" style="stroke:#000000; stroke-linecap:round; stroke-linejoin:round; stroke-width:2; stroke-opacity:0.1; fill:none" points="148.057,162.607 2352.76,162.607 "/>
<polyline clip-path="url(#clip990)" style="stroke:#000000; stroke-linecap:round; stroke-linejoin:round; stroke-width:4; stroke-opacity:1; fill:none" points="148.057,1486.45 2352.76,1486.45 "/>
<polyline clip-path="url(#clip990)" style="stroke:#000000; stroke-linecap:round; stroke-linejoin:round; stroke-width:4; stroke-opacity:1; fill:none" points="427.989,1486.45 427.989,1467.55 "/>
<polyline clip-path="url(#clip990)" style="stroke:#000000; stroke-linecap:round; stroke-linejoin:round; stroke-width:4; stroke-opacity:1; fill:none" points="907.037,1486.45 907.037,1467.55 "/>
<polyline clip-path="url(#clip990)" style="stroke:#000000; stroke-linecap:round; stroke-linejoin:round; stroke-width:4; stroke-opacity:1; fill:none" points="1386.08,1486.45 1386.08,1467.55 "/>
<polyline clip-path="url(#clip990)" style="stroke:#000000; stroke-linecap:round; stroke-linejoin:round; stroke-width:4; stroke-opacity:1; fill:none" points="1865.13,1486.45 1865.13,1467.55 "/>
<polyline clip-path="url(#clip990)" style="stroke:#000000; stroke-linecap:round; stroke-linejoin:round; stroke-width:4; stroke-opacity:1; fill:none" points="2344.18,1486.45 2344.18,1467.55 "/>
<path clip-path="url(#clip990)" d="M397.932 1532.02 L427.607 1532.02 L427.607 1535.95 L397.932 1535.95 L397.932 1532.02 Z" fill="#000000" fill-rule="nonzero" fill-opacity="1" /><path clip-path="url(#clip990)" d="M441.728 1544.91 L458.047 1544.91 L458.047 1548.85 L436.103 1548.85 L436.103 1544.91 Q438.765 1542.16 443.348 1537.53 Q447.954 1532.88 449.135 1531.53 Q451.38 1529.01 452.26 1527.27 Q453.163 1525.51 453.163 1523.82 Q453.163 1521.07 451.218 1519.33 Q449.297 1517.6 446.195 1517.6 Q443.996 1517.6 441.542 1518.36 Q439.112 1519.13 436.334 1520.68 L436.334 1515.95 Q439.158 1514.82 441.612 1514.24 Q444.066 1513.66 446.103 1513.66 Q451.473 1513.66 454.667 1516.35 Q457.862 1519.03 457.862 1523.52 Q457.862 1525.65 457.052 1527.57 Q456.265 1529.47 454.158 1532.07 Q453.579 1532.74 450.478 1535.95 Q447.376 1539.15 441.728 1544.91 Z" fill="#000000" fill-rule="nonzero" fill-opacity="1" /><path clip-path="url(#clip990)" d="M876.794 1532.02 L906.47 1532.02 L906.47 1535.95 L876.794 1535.95 L876.794 1532.02 Z" fill="#000000" fill-rule="nonzero" fill-opacity="1" /><path clip-path="url(#clip990)" d="M917.372 1544.91 L925.011 1544.91 L925.011 1518.55 L916.701 1520.21 L916.701 1515.95 L924.965 1514.29 L929.641 1514.29 L929.641 1544.91 L937.28 1544.91 L937.28 1548.85 L917.372 1548.85 L917.372 1544.91 Z" fill="#000000" fill-rule="nonzero" fill-opacity="1" /><path clip-path="url(#clip990)" d="M1386.08 1517.37 Q1382.47 1517.37 1380.64 1520.93 Q1378.84 1524.47 1378.84 1531.6 Q1378.84 1538.71 1380.64 1542.27 Q1382.47 1545.82 1386.08 1545.82 Q1389.72 1545.82 1391.52 1542.27 Q1393.35 1538.71 1393.35 1531.6 Q1393.35 1524.47 1391.52 1520.93 Q1389.72 1517.37 1386.08 1517.37 M1386.08 1513.66 Q1391.89 1513.66 1394.95 1518.27 Q1398.03 1522.85 1398.03 1531.6 Q1398.03 1540.33 1394.95 1544.94 Q1391.89 1549.52 1386.08 1549.52 Q1380.27 1549.52 1377.2 1544.94 Q1374.14 1540.33 1374.14 1531.6 Q1374.14 1522.85 1377.2 1518.27 Q1380.27 1513.66 1386.08 1513.66 Z" fill="#000000" fill-rule="nonzero" fill-opacity="1" /><path clip-path="url(#clip990)" d="M1855.51 1544.91 L1863.15 1544.91 L1863.15 1518.55 L1854.84 1520.21 L1854.84 1515.95 L1863.11 1514.29 L1867.78 1514.29 L1867.78 1544.91 L1875.42 1544.91 L1875.42 1548.85 L1855.51 1548.85 L1855.51 1544.91 Z" fill="#000000" fill-rule="nonzero" fill-opacity="1" /><path clip-path="url(#clip990)" d="M2338.83 1544.91 L2355.15 1544.91 L2355.15 1548.85 L2333.21 1548.85 L2333.21 1544.91 Q2335.87 1542.16 2340.45 1537.53 Q2345.06 1532.88 2346.24 1531.53 Q2348.48 1529.01 2349.36 1527.27 Q2350.27 1525.51 2350.27 1523.82 Q2350.27 1521.07 2348.32 1519.33 Q2346.4 1517.6 2343.3 1517.6 Q2341.1 1517.6 2338.65 1518.36 Q2336.22 1519.13 2333.44 1520.68 L2333.44 1515.95 Q2336.26 1514.82 2338.72 1514.24 Q2341.17 1513.66 2343.21 1513.66 Q2348.58 1513.66 2351.77 1516.35 Q2354.97 1519.03 2354.97 1523.52 Q2354.97 1525.65 2354.16 1527.57 Q2353.37 1529.47 2351.26 1532.07 Q2350.68 1532.74 2347.58 1535.95 Q2344.48 1539.15 2338.83 1544.91 Z" fill="#000000" fill-rule="nonzero" fill-opacity="1" /><polyline clip-path="url(#clip990)" style="stroke:#000000; stroke-linecap:round; stroke-linejoin:round; stroke-width:4; stroke-opacity:1; fill:none" points="148.057,1486.45 148.057,47.2441 "/>
<polyline clip-path="url(#clip990)" style="stroke:#000000; stroke-linecap:round; stroke-linejoin:round; stroke-width:4; stroke-opacity:1; fill:none" points="148.057,1447.77 166.954,1447.77 "/>
<polyline clip-path="url(#clip990)" style="stroke:#000000; stroke-linecap:round; stroke-linejoin:round; stroke-width:4; stroke-opacity:1; fill:none" points="148.057,1190.74 166.954,1190.74 "/>
<polyline clip-path="url(#clip990)" style="stroke:#000000; stroke-linecap:round; stroke-linejoin:round; stroke-width:4; stroke-opacity:1; fill:none" points="148.057,933.706 166.954,933.706 "/>
<polyline clip-path="url(#clip990)" style="stroke:#000000; stroke-linecap:round; stroke-linejoin:round; stroke-width:4; stroke-opacity:1; fill:none" points="148.057,676.673 166.954,676.673 "/>
<polyline clip-path="url(#clip990)" style="stroke:#000000; stroke-linecap:round; stroke-linejoin:round; stroke-width:4; stroke-opacity:1; fill:none" points="148.057,419.64 166.954,419.64 "/>
<polyline clip-path="url(#clip990)" style="stroke:#000000; stroke-linecap:round; stroke-linejoin:round; stroke-width:4; stroke-opacity:1; fill:none" points="148.057,162.607 166.954,162.607 "/>
<path clip-path="url(#clip990)" d="M50.9921 1448.22 L80.6679 1448.22 L80.6679 1452.16 L50.9921 1452.16 L50.9921 1448.22 Z" fill="#000000" fill-rule="nonzero" fill-opacity="1" /><path clip-path="url(#clip990)" d="M104.927 1446.42 Q108.283 1447.14 110.158 1449.4 Q112.057 1451.67 112.057 1455.01 Q112.057 1460.12 108.538 1462.92 Q105.02 1465.72 98.5382 1465.72 Q96.3623 1465.72 94.0475 1465.28 Q91.7558 1464.87 89.3021 1464.01 L89.3021 1459.5 Q91.2465 1460.63 93.5613 1461.21 Q95.8761 1461.79 98.3993 1461.79 Q102.797 1461.79 105.089 1460.05 Q107.404 1458.32 107.404 1455.01 Q107.404 1451.95 105.251 1450.24 Q103.121 1448.5 99.3021 1448.5 L95.2743 1448.5 L95.2743 1444.66 L99.4872 1444.66 Q102.936 1444.66 104.765 1443.29 Q106.594 1441.9 106.594 1439.31 Q106.594 1436.65 104.696 1435.24 Q102.821 1433.8 99.3021 1433.8 Q97.3808 1433.8 95.1817 1434.22 Q92.9826 1434.64 90.3438 1435.52 L90.3438 1431.35 Q93.0058 1430.61 95.3206 1430.24 Q97.6585 1429.87 99.7187 1429.87 Q105.043 1429.87 108.145 1432.3 Q111.246 1434.71 111.246 1438.83 Q111.246 1441.7 109.603 1443.69 Q107.959 1445.65 104.927 1446.42 Z" fill="#000000" fill-rule="nonzero" fill-opacity="1" /><path clip-path="url(#clip990)" d="M51.9412 1191.19 L81.617 1191.19 L81.617 1195.13 L51.9412 1195.13 L51.9412 1191.19 Z" fill="#000000" fill-rule="nonzero" fill-opacity="1" /><path clip-path="url(#clip990)" d="M95.7373 1204.08 L112.057 1204.08 L112.057 1208.02 L90.1123 1208.02 L90.1123 1204.08 Q92.7743 1201.33 97.3576 1196.7 Q101.964 1192.05 103.145 1190.7 Q105.39 1188.18 106.27 1186.45 Q107.172 1184.69 107.172 1183 Q107.172 1180.24 105.228 1178.51 Q103.307 1176.77 100.205 1176.77 Q98.0058 1176.77 95.5521 1177.53 Q93.1215 1178.3 90.3438 1179.85 L90.3438 1175.13 Q93.1678 1173.99 95.6215 1173.41 Q98.0752 1172.83 100.112 1172.83 Q105.483 1172.83 108.677 1175.52 Q111.871 1178.2 111.871 1182.7 Q111.871 1184.83 111.061 1186.75 Q110.274 1188.64 108.168 1191.24 Q107.589 1191.91 104.487 1195.13 Q101.385 1198.32 95.7373 1204.08 Z" fill="#000000" fill-rule="nonzero" fill-opacity="1" /><path clip-path="url(#clip990)" d="M51.5708 934.158 L81.2466 934.158 L81.2466 938.093 L51.5708 938.093 L51.5708 934.158 Z" fill="#000000" fill-rule="nonzero" fill-opacity="1" /><path clip-path="url(#clip990)" d="M92.1493 947.051 L99.7882 947.051 L99.7882 920.686 L91.478 922.352 L91.478 918.093 L99.7419 916.426 L104.418 916.426 L104.418 947.051 L112.057 947.051 L112.057 950.986 L92.1493 950.986 L92.1493 947.051 Z" fill="#000000" fill-rule="nonzero" fill-opacity="1" /><path clip-path="url(#clip990)" d="M100.112 662.472 Q96.5011 662.472 94.6724 666.037 Q92.8669 669.578 92.8669 676.708 Q92.8669 683.814 94.6724 687.379 Q96.5011 690.921 100.112 690.921 Q103.746 690.921 105.552 687.379 Q107.381 683.814 107.381 676.708 Q107.381 669.578 105.552 666.037 Q103.746 662.472 100.112 662.472 M100.112 658.768 Q105.922 658.768 108.978 663.375 Q112.057 667.958 112.057 676.708 Q112.057 685.435 108.978 690.041 Q105.922 694.624 100.112 694.624 Q94.3021 694.624 91.2234 690.041 Q88.1679 685.435 88.1679 676.708 Q88.1679 667.958 91.2234 663.375 Q94.3021 658.768 100.112 658.768 Z" fill="#000000" fill-rule="nonzero" fill-opacity="1" /><path clip-path="url(#clip990)" d="M92.1493 432.985 L99.7882 432.985 L99.7882 406.619 L91.478 408.286 L91.478 404.027 L99.7419 402.36 L104.418 402.36 L104.418 432.985 L112.057 432.985 L112.057 436.92 L92.1493 436.92 L92.1493 432.985 Z" fill="#000000" fill-rule="nonzero" fill-opacity="1" /><path clip-path="url(#clip990)" d="M95.7373 175.952 L112.057 175.952 L112.057 179.887 L90.1123 179.887 L90.1123 175.952 Q92.7743 173.197 97.3576 168.567 Q101.964 163.915 103.145 162.572 Q105.39 160.049 106.27 158.313 Q107.172 156.553 107.172 154.864 Q107.172 152.109 105.228 150.373 Q103.307 148.637 100.205 148.637 Q98.0058 148.637 95.5521 149.401 Q93.1215 150.165 90.3438 151.716 L90.3438 146.993 Q93.1678 145.859 95.6215 145.28 Q98.0752 144.702 100.112 144.702 Q105.483 144.702 108.677 147.387 Q111.871 150.072 111.871 154.563 Q111.871 156.692 111.061 158.614 Q110.274 160.512 108.168 163.104 Q107.589 163.776 104.487 166.993 Q101.385 170.188 95.7373 175.952 Z" fill="#000000" fill-rule="nonzero" fill-opacity="1" /><circle clip-path="url(#clip992)" cx="2087.64" cy="135.46" r="14.4" fill="#009af9" fill-rule="evenodd" fill-opacity="0.5" stroke="#000000" stroke-opacity="0.5" stroke-width="3.2"/>
<circle clip-path="url(#clip992)" cx="887.764" cy="415.271" r="14.4" fill="#009af9" fill-rule="evenodd" fill-opacity="0.5" stroke="#000000" stroke-opacity="0.5" stroke-width="3.2"/>
<circle clip-path="url(#clip992)" cx="2032.57" cy="272.982" r="14.4" fill="#009af9" fill-rule="evenodd" fill-opacity="0.5" stroke="#000000" stroke-opacity="0.5" stroke-width="3.2"/>
<circle clip-path="url(#clip992)" cx="1387.72" cy="1068.56" r="14.4" fill="#009af9" fill-rule="evenodd" fill-opacity="0.5" stroke="#000000" stroke-opacity="0.5" stroke-width="3.2"/>
<circle clip-path="url(#clip992)" cx="957.215" cy="1082.6" r="14.4" fill="#009af9" fill-rule="evenodd" fill-opacity="0.5" stroke="#000000" stroke-opacity="0.5" stroke-width="3.2"/>
<circle clip-path="url(#clip992)" cx="1512.32" cy="1035.39" r="14.4" fill="#009af9" fill-rule="evenodd" fill-opacity="0.5" stroke="#000000" stroke-opacity="0.5" stroke-width="3.2"/>
<circle clip-path="url(#clip992)" cx="1081.93" cy="170.293" r="14.4" fill="#009af9" fill-rule="evenodd" fill-opacity="0.5" stroke="#000000" stroke-opacity="0.5" stroke-width="3.2"/>
<circle clip-path="url(#clip992)" cx="1498.1" cy="1036.56" r="14.4" fill="#009af9" fill-rule="evenodd" fill-opacity="0.5" stroke="#000000" stroke-opacity="0.5" stroke-width="3.2"/>
<circle clip-path="url(#clip992)" cx="1644.37" cy="87.9763" r="14.4" fill="#009af9" fill-rule="evenodd" fill-opacity="0.5" stroke="#000000" stroke-opacity="0.5" stroke-width="3.2"/>
<circle clip-path="url(#clip992)" cx="2003.53" cy="801.355" r="14.4" fill="#009af9" fill-rule="evenodd" fill-opacity="0.5" stroke="#000000" stroke-opacity="0.5" stroke-width="3.2"/>
<circle clip-path="url(#clip992)" cx="2051.84" cy="449.513" r="14.4" fill="#009af9" fill-rule="evenodd" fill-opacity="0.5" stroke="#000000" stroke-opacity="0.5" stroke-width="3.2"/>
<circle clip-path="url(#clip992)" cx="2290.36" cy="571.342" r="14.4" fill="#009af9" fill-rule="evenodd" fill-opacity="0.5" stroke="#000000" stroke-opacity="0.5" stroke-width="3.2"/>
<circle clip-path="url(#clip992)" cx="2069.15" cy="685.986" r="14.4" fill="#009af9" fill-rule="evenodd" fill-opacity="0.5" stroke="#000000" stroke-opacity="0.5" stroke-width="3.2"/>
<circle clip-path="url(#clip992)" cx="1901.19" cy="523.74" r="14.4" fill="#009af9" fill-rule="evenodd" fill-opacity="0.5" stroke="#000000" stroke-opacity="0.5" stroke-width="3.2"/>
<circle clip-path="url(#clip992)" cx="1244.75" cy="1209.18" r="14.4" fill="#009af9" fill-rule="evenodd" fill-opacity="0.5" stroke="#000000" stroke-opacity="0.5" stroke-width="3.2"/>
<circle clip-path="url(#clip992)" cx="1951.44" cy="803.648" r="14.4" fill="#009af9" fill-rule="evenodd" fill-opacity="0.5" stroke="#000000" stroke-opacity="0.5" stroke-width="3.2"/>
<circle clip-path="url(#clip992)" cx="1685.07" cy="669.612" r="14.4" fill="#009af9" fill-rule="evenodd" fill-opacity="0.5" stroke="#000000" stroke-opacity="0.5" stroke-width="3.2"/>
<circle clip-path="url(#clip992)" cx="1369.42" cy="491.371" r="14.4" fill="#009af9" fill-rule="evenodd" fill-opacity="0.5" stroke="#000000" stroke-opacity="0.5" stroke-width="3.2"/>
<circle clip-path="url(#clip992)" cx="1654.45" cy="580.079" r="14.4" fill="#009af9" fill-rule="evenodd" fill-opacity="0.5" stroke="#000000" stroke-opacity="0.5" stroke-width="3.2"/>
<circle clip-path="url(#clip992)" cx="1954.79" cy="197.552" r="14.4" fill="#009af9" fill-rule="evenodd" fill-opacity="0.5" stroke="#000000" stroke-opacity="0.5" stroke-width="3.2"/>
<circle clip-path="url(#clip992)" cx="1459.9" cy="757.786" r="14.4" fill="#009af9" fill-rule="evenodd" fill-opacity="0.5" stroke="#000000" stroke-opacity="0.5" stroke-width="3.2"/>
<circle clip-path="url(#clip992)" cx="2169.3" cy="631.404" r="14.4" fill="#009af9" fill-rule="evenodd" fill-opacity="0.5" stroke="#000000" stroke-opacity="0.5" stroke-width="3.2"/>
<circle clip-path="url(#clip992)" cx="2071.2" cy="653.169" r="14.4" fill="#009af9" fill-rule="evenodd" fill-opacity="0.5" stroke="#000000" stroke-opacity="0.5" stroke-width="3.2"/>
<circle clip-path="url(#clip992)" cx="1820.61" cy="1445.72" r="14.4" fill="#009af9" fill-rule="evenodd" fill-opacity="0.5" stroke="#000000" stroke-opacity="0.5" stroke-width="3.2"/>
<circle clip-path="url(#clip992)" cx="1216" cy="895.91" r="14.4" fill="#009af9" fill-rule="evenodd" fill-opacity="0.5" stroke="#000000" stroke-opacity="0.5" stroke-width="3.2"/>
<circle clip-path="url(#clip992)" cx="571.121" cy="994.501" r="14.4" fill="#009af9" fill-rule="evenodd" fill-opacity="0.5" stroke="#000000" stroke-opacity="0.5" stroke-width="3.2"/>
<circle clip-path="url(#clip992)" cx="210.454" cy="870.448" r="14.4" fill="#009af9" fill-rule="evenodd" fill-opacity="0.5" stroke="#000000" stroke-opacity="0.5" stroke-width="3.2"/>
<circle clip-path="url(#clip992)" cx="2085.62" cy="376.843" r="14.4" fill="#009af9" fill-rule="evenodd" fill-opacity="0.5" stroke="#000000" stroke-opacity="0.5" stroke-width="3.2"/>
<circle clip-path="url(#clip992)" cx="1505.11" cy="720.867" r="14.4" fill="#009af9" fill-rule="evenodd" fill-opacity="0.5" stroke="#000000" stroke-opacity="0.5" stroke-width="3.2"/>
<circle clip-path="url(#clip992)" cx="1470.2" cy="967.463" r="14.4" fill="#009af9" fill-rule="evenodd" fill-opacity="0.5" stroke="#000000" stroke-opacity="0.5" stroke-width="3.2"/>
<path clip-path="url(#clip992)" d="M210.454 870.448 L1820.61 1445.72 L2290.36 571.342 L2087.64 135.46 L1644.37 87.9763 L1081.93 170.293 L210.454 870.448 L210.454 870.448  Z" fill="#e26f46" fill-rule="evenodd" fill-opacity="0.2"/>
<polyline clip-path="url(#clip992)" style="stroke:#000000; stroke-linecap:round; stroke-linejoin:round; stroke-width:4; stroke-opacity:0.2; fill:none" points="210.454,870.448 1820.61,1445.72 2290.36,571.342 2087.64,135.46 1644.37,87.9763 1081.93,170.293 210.454,870.448 "/>
</svg>
