<?xml version="1.0" encoding="utf-8"?>
<svg xmlns="http://www.w3.org/2000/svg" xmlns:xlink="http://www.w3.org/1999/xlink" width="600" height="400" viewBox="0 0 2400 1600">
<defs>
  <clipPath id="clip580">
    <rect x="0" y="0" width="2400" height="1600"/>
  </clipPath>
</defs>
<path clip-path="url(#clip580)" d="M0 1600 L2400 1600 L2400 0 L0 0  Z" fill="#ffffff" fill-rule="evenodd" fill-opacity="1"/>
<defs>
  <clipPath id="clip581">
    <rect x="480" y="0" width="1681" height="1600"/>
  </clipPath>
</defs>
<path clip-path="url(#clip580)" d="M147.478 1486.45 L2352.76 1486.45 L2352.76 47.2441 L147.478 47.2441  Z" fill="#ffffff" fill-rule="evenodd" fill-opacity="1"/>
<defs>
  <clipPath id="clip582">
    <rect x="147" y="47" width="2206" height="1440"/>
  </clipPath>
</defs>
<polyline clip-path="url(#clip582)" style="stroke:#000000; stroke-linecap:round; stroke-linejoin:round; stroke-width:2; stroke-opacity:0.1; fill:none" points="316.293,1486.45 316.293,47.2441 "/>
<polyline clip-path="url(#clip582)" style="stroke:#000000; stroke-linecap:round; stroke-linejoin:round; stroke-width:2; stroke-opacity:0.1; fill:none" points="690.585,1486.45 690.585,47.2441 "/>
<polyline clip-path="url(#clip582)" style="stroke:#000000; stroke-linecap:round; stroke-linejoin:round; stroke-width:2; stroke-opacity:0.1; fill:none" points="1064.88,1486.45 1064.88,47.2441 "/>
<polyline clip-path="url(#clip582)" style="stroke:#000000; stroke-linecap:round; stroke-linejoin:round; stroke-width:2; stroke-opacity:0.1; fill:none" points="1439.17,1486.45 1439.17,47.2441 "/>
<polyline clip-path="url(#clip582)" style="stroke:#000000; stroke-linecap:round; stroke-linejoin:round; stroke-width:2; stroke-opacity:0.1; fill:none" points="1813.46,1486.45 1813.46,47.2441 "/>
<polyline clip-path="url(#clip582)" style="stroke:#000000; stroke-linecap:round; stroke-linejoin:round; stroke-width:2; stroke-opacity:0.1; fill:none" points="2187.75,1486.45 2187.75,47.2441 "/>
<polyline clip-path="url(#clip582)" style="stroke:#000000; stroke-linecap:round; stroke-linejoin:round; stroke-width:2; stroke-opacity:0.1; fill:none" points="147.478,1433.63 2352.76,1433.63 "/>
<polyline clip-path="url(#clip582)" style="stroke:#000000; stroke-linecap:round; stroke-linejoin:round; stroke-width:2; stroke-opacity:0.1; fill:none" points="147.478,1110.71 2352.76,1110.71 "/>
<polyline clip-path="url(#clip582)" style="stroke:#000000; stroke-linecap:round; stroke-linejoin:round; stroke-width:2; stroke-opacity:0.1; fill:none" points="147.478,787.779 2352.76,787.779 "/>
<polyline clip-path="url(#clip582)" style="stroke:#000000; stroke-linecap:round; stroke-linejoin:round; stroke-width:2; stroke-opacity:0.1; fill:none" points="147.478,464.851 2352.76,464.851 "/>
<polyline clip-path="url(#clip582)" style="stroke:#000000; stroke-linecap:round; stroke-linejoin:round; stroke-width:2; stroke-opacity:0.1; fill:none" points="147.478,141.923 2352.76,141.923 "/>
<polyline clip-path="url(#clip580)" style="stroke:#000000; stroke-linecap:round; stroke-linejoin:round; stroke-width:4; stroke-opacity:1; fill:none" points="147.478,1486.45 2352.76,1486.45 "/>
<polyline clip-path="url(#clip580)" style="stroke:#000000; stroke-linecap:round; stroke-linejoin:round; stroke-width:4; stroke-opacity:1; fill:none" points="316.293,1486.45 316.293,1467.55 "/>
<polyline clip-path="url(#clip580)" style="stroke:#000000; stroke-linecap:round; stroke-linejoin:round; stroke-width:4; stroke-opacity:1; fill:none" points="690.585,1486.45 690.585,1467.55 "/>
<polyline clip-path="url(#clip580)" style="stroke:#000000; stroke-linecap:round; stroke-linejoin:round; stroke-width:4; stroke-opacity:1; fill:none" points="1064.88,1486.45 1064.88,1467.55 "/>
<polyline clip-path="url(#clip580)" style="stroke:#000000; stroke-linecap:round; stroke-linejoin:round; stroke-width:4; stroke-opacity:1; fill:none" points="1439.17,1486.45 1439.17,1467.55 "/>
<polyline clip-path="url(#clip580)" style="stroke:#000000; stroke-linecap:round; stroke-linejoin:round; stroke-width:4; stroke-opacity:1; fill:none" points="1813.46,1486.45 1813.46,1467.55 "/>
<polyline clip-path="url(#clip580)" style="stroke:#000000; stroke-linecap:round; stroke-linejoin:round; stroke-width:4; stroke-opacity:1; fill:none" points="2187.75,1486.45 2187.75,1467.55 "/>
<path clip-path="url(#clip580)" d="M285.761 1532.02 L315.436 1532.02 L315.436 1535.95 L285.761 1535.95 L285.761 1532.02 Z" fill="#000000" fill-rule="nonzero" fill-opacity="1" /><path clip-path="url(#clip580)" d="M339.696 1530.21 Q343.052 1530.93 344.927 1533.2 Q346.825 1535.47 346.825 1538.8 Q346.825 1543.92 343.307 1546.72 Q339.788 1549.52 333.307 1549.52 Q331.131 1549.52 328.816 1549.08 Q326.524 1548.66 324.071 1547.81 L324.071 1543.29 Q326.015 1544.43 328.33 1545.01 Q330.645 1545.58 333.168 1545.58 Q337.566 1545.58 339.858 1543.85 Q342.172 1542.11 342.172 1538.8 Q342.172 1535.75 340.02 1534.03 Q337.89 1532.3 334.071 1532.3 L330.043 1532.3 L330.043 1528.45 L334.256 1528.45 Q337.705 1528.45 339.534 1527.09 Q341.362 1525.7 341.362 1523.11 Q341.362 1520.45 339.464 1519.03 Q337.589 1517.6 334.071 1517.6 Q332.149 1517.6 329.95 1518.01 Q327.751 1518.43 325.112 1519.31 L325.112 1515.14 Q327.774 1514.4 330.089 1514.03 Q332.427 1513.66 334.487 1513.66 Q339.811 1513.66 342.913 1516.09 Q346.015 1518.5 346.015 1522.62 Q346.015 1525.49 344.371 1527.48 Q342.728 1529.45 339.696 1530.21 Z" fill="#000000" fill-rule="nonzero" fill-opacity="1" /><path clip-path="url(#clip580)" d="M660.527 1532.02 L690.203 1532.02 L690.203 1535.95 L660.527 1535.95 L660.527 1532.02 Z" fill="#000000" fill-rule="nonzero" fill-opacity="1" /><path clip-path="url(#clip580)" d="M704.323 1544.91 L720.643 1544.91 L720.643 1548.85 L698.698 1548.85 L698.698 1544.91 Q701.36 1542.16 705.944 1537.53 Q710.55 1532.88 711.731 1531.53 Q713.976 1529.01 714.856 1527.27 Q715.758 1525.51 715.758 1523.82 Q715.758 1521.07 713.814 1519.33 Q711.893 1517.6 708.791 1517.6 Q706.592 1517.6 704.138 1518.36 Q701.708 1519.13 698.93 1520.68 L698.93 1515.95 Q701.754 1514.82 704.208 1514.24 Q706.661 1513.66 708.698 1513.66 Q714.069 1513.66 717.263 1516.35 Q720.457 1519.03 720.457 1523.52 Q720.457 1525.65 719.647 1527.57 Q718.86 1529.47 716.754 1532.07 Q716.175 1532.74 713.073 1535.95 Q709.971 1539.15 704.323 1544.91 Z" fill="#000000" fill-rule="nonzero" fill-opacity="1" /><path clip-path="url(#clip580)" d="M1034.63 1532.02 L1064.31 1532.02 L1064.31 1535.95 L1034.63 1535.95 L1034.63 1532.02 Z" fill="#000000" fill-rule="nonzero" fill-opacity="1" /><path clip-path="url(#clip580)" d="M1075.21 1544.91 L1082.85 1544.91 L1082.85 1518.55 L1074.54 1520.21 L1074.54 1515.95 L1082.81 1514.29 L1087.48 1514.29 L1087.48 1544.91 L1095.12 1544.91 L1095.12 1548.85 L1075.21 1548.85 L1075.21 1544.91 Z" fill="#000000" fill-rule="nonzero" fill-opacity="1" /><path clip-path="url(#clip580)" d="M1439.17 1517.37 Q1435.56 1517.37 1433.73 1520.93 Q1431.92 1524.47 1431.92 1531.6 Q1431.92 1538.71 1433.73 1542.27 Q1435.56 1545.82 1439.17 1545.82 Q1442.8 1545.82 1444.61 1542.27 Q1446.44 1538.71 1446.44 1531.6 Q1446.44 1524.47 1444.61 1520.93 Q1442.8 1517.37 1439.17 1517.37 M1439.17 1513.66 Q1444.98 1513.66 1448.03 1518.27 Q1451.11 1522.85 1451.11 1531.6 Q1451.11 1540.33 1448.03 1544.94 Q1444.98 1549.52 1439.17 1549.52 Q1433.36 1549.52 1430.28 1544.94 Q1427.22 1540.33 1427.22 1531.6 Q1427.22 1522.85 1430.28 1518.27 Q1433.36 1513.66 1439.17 1513.66 Z" fill="#000000" fill-rule="nonzero" fill-opacity="1" /><path clip-path="url(#clip580)" d="M1803.84 1544.91 L1811.48 1544.91 L1811.48 1518.55 L1803.17 1520.21 L1803.17 1515.95 L1811.44 1514.29 L1816.11 1514.29 L1816.11 1544.91 L1823.75 1544.91 L1823.75 1548.85 L1803.84 1548.85 L1803.84 1544.91 Z" fill="#000000" fill-rule="nonzero" fill-opacity="1" /><path clip-path="url(#clip580)" d="M2182.41 1544.91 L2198.73 1544.91 L2198.73 1548.85 L2176.78 1548.85 L2176.78 1544.91 Q2179.44 1542.16 2184.03 1537.53 Q2188.63 1532.88 2189.81 1531.53 Q2192.06 1529.01 2192.94 1527.27 Q2193.84 1525.51 2193.84 1523.82 Q2193.84 1521.07 2191.9 1519.33 Q2189.98 1517.6 2186.87 1517.6 Q2184.67 1517.6 2182.22 1518.36 Q2179.79 1519.13 2177.01 1520.68 L2177.01 1515.95 Q2179.84 1514.82 2182.29 1514.24 Q2184.74 1513.66 2186.78 1513.66 Q2192.15 1513.66 2195.35 1516.35 Q2198.54 1519.03 2198.54 1523.52 Q2198.54 1525.65 2197.73 1527.57 Q2196.94 1529.47 2194.84 1532.07 Q2194.26 1532.74 2191.16 1535.95 Q2188.05 1539.15 2182.41 1544.91 Z" fill="#000000" fill-rule="nonzero" fill-opacity="1" /><polyline clip-path="url(#clip580)" style="stroke:#000000; stroke-linecap:round; stroke-linejoin:round; stroke-width:4; stroke-opacity:1; fill:none" points="147.478,1486.45 147.478,47.2441 "/>
<polyline clip-path="url(#clip580)" style="stroke:#000000; stroke-linecap:round; stroke-linejoin:round; stroke-width:4; stroke-opacity:1; fill:none" points="147.478,1433.63 166.376,1433.63 "/>
<polyline clip-path="url(#clip580)" style="stroke:#000000; stroke-linecap:round; stroke-linejoin:round; stroke-width:4; stroke-opacity:1; fill:none" points="147.478,1110.71 166.376,1110.71 "/>
<polyline clip-path="url(#clip580)" style="stroke:#000000; stroke-linecap:round; stroke-linejoin:round; stroke-width:4; stroke-opacity:1; fill:none" points="147.478,787.779 166.376,787.779 "/>
<polyline clip-path="url(#clip580)" style="stroke:#000000; stroke-linecap:round; stroke-linejoin:round; stroke-width:4; stroke-opacity:1; fill:none" points="147.478,464.851 166.376,464.851 "/>
<polyline clip-path="url(#clip580)" style="stroke:#000000; stroke-linecap:round; stroke-linejoin:round; stroke-width:4; stroke-opacity:1; fill:none" points="147.478,141.923 166.376,141.923 "/>
<path clip-path="url(#clip580)" d="M51.3625 1434.09 L81.0383 1434.09 L81.0383 1438.02 L51.3625 1438.02 L51.3625 1434.09 Z" fill="#000000" fill-rule="nonzero" fill-opacity="1" /><path clip-path="url(#clip580)" d="M95.1586 1446.98 L111.478 1446.98 L111.478 1450.91 L89.5336 1450.91 L89.5336 1446.98 Q92.1956 1444.22 96.7789 1439.59 Q101.385 1434.94 102.566 1433.6 Q104.811 1431.08 105.691 1429.34 Q106.594 1427.58 106.594 1425.89 Q106.594 1423.14 104.649 1421.4 Q102.728 1419.66 99.6261 1419.66 Q97.4271 1419.66 94.9734 1420.43 Q92.5428 1421.19 89.7651 1422.74 L89.7651 1418.02 Q92.5891 1416.89 95.0428 1416.31 Q97.4965 1415.73 99.5335 1415.73 Q104.904 1415.73 108.098 1418.41 Q111.293 1421.1 111.293 1425.59 Q111.293 1427.72 110.483 1429.64 Q109.696 1431.54 107.589 1434.13 Q107.01 1434.8 103.909 1438.02 Q100.807 1441.22 95.1586 1446.98 Z" fill="#000000" fill-rule="nonzero" fill-opacity="1" /><path clip-path="url(#clip580)" d="M50.9921 1111.16 L80.6679 1111.16 L80.6679 1115.09 L50.9921 1115.09 L50.9921 1111.16 Z" fill="#000000" fill-rule="nonzero" fill-opacity="1" /><path clip-path="url(#clip580)" d="M91.5706 1124.05 L99.2095 1124.05 L99.2095 1097.69 L90.8993 1099.35 L90.8993 1095.09 L99.1632 1093.43 L103.839 1093.43 L103.839 1124.05 L111.478 1124.05 L111.478 1127.99 L91.5706 1127.99 L91.5706 1124.05 Z" fill="#000000" fill-rule="nonzero" fill-opacity="1" /><path clip-path="url(#clip580)" d="M99.5335 773.577 Q95.9224 773.577 94.0937 777.142 Q92.2882 780.684 92.2882 787.814 Q92.2882 794.92 94.0937 798.485 Q95.9224 802.026 99.5335 802.026 Q103.168 802.026 104.973 798.485 Q106.802 794.92 106.802 787.814 Q106.802 780.684 104.973 777.142 Q103.168 773.577 99.5335 773.577 M99.5335 769.874 Q105.344 769.874 108.399 774.48 Q111.478 779.064 111.478 787.814 Q111.478 796.54 108.399 801.147 Q105.344 805.73 99.5335 805.73 Q93.7234 805.73 90.6447 801.147 Q87.5892 796.54 87.5892 787.814 Q87.5892 779.064 90.6447 774.48 Q93.7234 769.874 99.5335 769.874 Z" fill="#000000" fill-rule="nonzero" fill-opacity="1" /><path clip-path="url(#clip580)" d="M91.5706 478.196 L99.2095 478.196 L99.2095 451.83 L90.8993 453.497 L90.8993 449.238 L99.1632 447.571 L103.839 447.571 L103.839 478.196 L111.478 478.196 L111.478 482.131 L91.5706 482.131 L91.5706 478.196 Z" fill="#000000" fill-rule="nonzero" fill-opacity="1" /><path clip-path="url(#clip580)" d="M95.1586 155.268 L111.478 155.268 L111.478 159.203 L89.5336 159.203 L89.5336 155.268 Q92.1956 152.514 96.7789 147.884 Q101.385 143.231 102.566 141.889 Q104.811 139.365 105.691 137.629 Q106.594 135.87 106.594 134.18 Q106.594 131.426 104.649 129.69 Q102.728 127.954 99.6261 127.954 Q97.4271 127.954 94.9734 128.717 Q92.5428 129.481 89.7651 131.032 L89.7651 126.31 Q92.5891 125.176 95.0428 124.597 Q97.4965 124.018 99.5335 124.018 Q104.904 124.018 108.098 126.704 Q111.293 129.389 111.293 133.879 Q111.293 136.009 110.483 137.93 Q109.696 139.828 107.589 142.421 Q107.01 143.092 103.909 146.31 Q100.807 149.504 95.1586 155.268 Z" fill="#000000" fill-rule="nonzero" fill-opacity="1" /><circle clip-path="url(#clip582)" cx="1011.63" cy="644.935" r="14.4" fill="#009af9" fill-rule="evenodd" fill-opacity="0.5" stroke="#000000" stroke-opacity="0.5" stroke-width="3.2"/>
<circle clip-path="url(#clip582)" cx="1470.35" cy="867.055" r="14.4" fill="#009af9" fill-rule="evenodd" fill-opacity="0.5" stroke="#000000" stroke-opacity="0.5" stroke-width="3.2"/>
<circle clip-path="url(#clip582)" cx="1092.16" cy="601.012" r="14.4" fill="#009af9" fill-rule="evenodd" fill-opacity="0.5" stroke="#000000" stroke-opacity="0.5" stroke-width="3.2"/>
<circle clip-path="url(#clip582)" cx="1559.48" cy="320.052" r="14.4" fill="#009af9" fill-rule="evenodd" fill-opacity="0.5" stroke="#000000" stroke-opacity="0.5" stroke-width="3.2"/>
<circle clip-path="url(#clip582)" cx="1671" cy="1120.7" r="14.4" fill="#009af9" fill-rule="evenodd" fill-opacity="0.5" stroke="#000000" stroke-opacity="0.5" stroke-width="3.2"/>
<circle clip-path="url(#clip582)" cx="1222.8" cy="820.494" r="14.4" fill="#009af9" fill-rule="evenodd" fill-opacity="0.5" stroke="#000000" stroke-opacity="0.5" stroke-width="3.2"/>
<circle clip-path="url(#clip582)" cx="1487.09" cy="861.905" r="14.4" fill="#009af9" fill-rule="evenodd" fill-opacity="0.5" stroke="#000000" stroke-opacity="0.5" stroke-width="3.2"/>
<circle clip-path="url(#clip582)" cx="1211.69" cy="1201.73" r="14.4" fill="#009af9" fill-rule="evenodd" fill-opacity="0.5" stroke="#000000" stroke-opacity="0.5" stroke-width="3.2"/>
<circle clip-path="url(#clip582)" cx="2098.56" cy="994.981" r="14.4" fill="#009af9" fill-rule="evenodd" fill-opacity="0.5" stroke="#000000" stroke-opacity="0.5" stroke-width="3.2"/>
<circle clip-path="url(#clip582)" cx="1460.87" cy="1199.49" r="14.4" fill="#009af9" fill-rule="evenodd" fill-opacity="0.5" stroke="#000000" stroke-opacity="0.5" stroke-width="3.2"/>
<circle clip-path="url(#clip582)" cx="1379.32" cy="761.989" r="14.4" fill="#009af9" fill-rule="evenodd" fill-opacity="0.5" stroke="#000000" stroke-opacity="0.5" stroke-width="3.2"/>
<circle clip-path="url(#clip582)" cx="1454.48" cy="955.921" r="14.4" fill="#009af9" fill-rule="evenodd" fill-opacity="0.5" stroke="#000000" stroke-opacity="0.5" stroke-width="3.2"/>
<circle clip-path="url(#clip582)" cx="1403.06" cy="1445.72" r="14.4" fill="#009af9" fill-rule="evenodd" fill-opacity="0.5" stroke="#000000" stroke-opacity="0.5" stroke-width="3.2"/>
<circle clip-path="url(#clip582)" cx="1372.36" cy="148.425" r="14.4" fill="#009af9" fill-rule="evenodd" fill-opacity="0.5" stroke="#000000" stroke-opacity="0.5" stroke-width="3.2"/>
<circle clip-path="url(#clip582)" cx="2050.57" cy="901.281" r="14.4" fill="#009af9" fill-rule="evenodd" fill-opacity="0.5" stroke="#000000" stroke-opacity="0.5" stroke-width="3.2"/>
<circle clip-path="url(#clip582)" cx="209.891" cy="611.364" r="14.4" fill="#009af9" fill-rule="evenodd" fill-opacity="0.5" stroke="#000000" stroke-opacity="0.5" stroke-width="3.2"/>
<circle clip-path="url(#clip582)" cx="921.412" cy="425.183" r="14.4" fill="#009af9" fill-rule="evenodd" fill-opacity="0.5" stroke="#000000" stroke-opacity="0.5" stroke-width="3.2"/>
<circle clip-path="url(#clip582)" cx="1938.45" cy="1371.6" r="14.4" fill="#009af9" fill-rule="evenodd" fill-opacity="0.5" stroke="#000000" stroke-opacity="0.5" stroke-width="3.2"/>
<circle clip-path="url(#clip582)" cx="1039.59" cy="208.363" r="14.4" fill="#009af9" fill-rule="evenodd" fill-opacity="0.5" stroke="#000000" stroke-opacity="0.5" stroke-width="3.2"/>
<circle clip-path="url(#clip582)" cx="2146.53" cy="1058.9" r="14.4" fill="#009af9" fill-rule="evenodd" fill-opacity="0.5" stroke="#000000" stroke-opacity="0.5" stroke-width="3.2"/>
<circle clip-path="url(#clip582)" cx="1485.86" cy="1351.9" r="14.4" fill="#009af9" fill-rule="evenodd" fill-opacity="0.5" stroke="#000000" stroke-opacity="0.5" stroke-width="3.2"/>
<circle clip-path="url(#clip582)" cx="2134.59" cy="640.053" r="14.4" fill="#009af9" fill-rule="evenodd" fill-opacity="0.5" stroke="#000000" stroke-opacity="0.5" stroke-width="3.2"/>
<circle clip-path="url(#clip582)" cx="1455.95" cy="140.172" r="14.4" fill="#009af9" fill-rule="evenodd" fill-opacity="0.5" stroke="#000000" stroke-opacity="0.5" stroke-width="3.2"/>
<circle clip-path="url(#clip582)" cx="1354.53" cy="1115.18" r="14.4" fill="#009af9" fill-rule="evenodd" fill-opacity="0.5" stroke="#000000" stroke-opacity="0.5" stroke-width="3.2"/>
<circle clip-path="url(#clip582)" cx="855.8" cy="798.618" r="14.4" fill="#009af9" fill-rule="evenodd" fill-opacity="0.5" stroke="#000000" stroke-opacity="0.5" stroke-width="3.2"/>
<circle clip-path="url(#clip582)" cx="1563.37" cy="580.239" r="14.4" fill="#009af9" fill-rule="evenodd" fill-opacity="0.5" stroke="#000000" stroke-opacity="0.5" stroke-width="3.2"/>
<circle clip-path="url(#clip582)" cx="1681.43" cy="557.851" r="14.4" fill="#009af9" fill-rule="evenodd" fill-opacity="0.5" stroke="#000000" stroke-opacity="0.5" stroke-width="3.2"/>
<circle clip-path="url(#clip582)" cx="2290.34" cy="87.9763" r="14.4" fill="#009af9" fill-rule="evenodd" fill-opacity="0.5" stroke="#000000" stroke-opacity="0.5" stroke-width="3.2"/>
<circle clip-path="url(#clip582)" cx="1933.99" cy="536.984" r="14.4" fill="#009af9" fill-rule="evenodd" fill-opacity="0.5" stroke="#000000" stroke-opacity="0.5" stroke-width="3.2"/>
<circle clip-path="url(#clip582)" cx="1322.62" cy="746.906" r="14.4" fill="#009af9" fill-rule="evenodd" fill-opacity="0.5" stroke="#000000" stroke-opacity="0.5" stroke-width="3.2"/>
<path clip-path="url(#clip582)" d="M209.891 611.364 L1403.06 1445.72 L1938.45 1371.6 L2146.53 1058.9 L2290.34 87.9763 L1455.95 140.172 L1372.36 148.425 L1039.59 208.363 L209.891 611.364 L209.891 611.364  Z" fill="#e26f46" fill-rule="evenodd" fill-opacity="0.2"/>
<polyline clip-path="url(#clip582)" style="stroke:#000000; stroke-linecap:round; stroke-linejoin:round; stroke-width:4; stroke-opacity:0.2; fill:none" points="209.891,611.364 1403.06,1445.72 1938.45,1371.6 2146.53,1058.9 2290.34,87.9763 1455.95,140.172 1372.36,148.425 1039.59,208.363 209.891,611.364 "/>
</svg>
