<?xml version="1.0" encoding="utf-8"?>
<svg xmlns="http://www.w3.org/2000/svg" xmlns:xlink="http://www.w3.org/1999/xlink" width="600" height="400" viewBox="0 0 2400 1600">
<defs>
  <clipPath id="clip840">
    <rect x="0" y="0" width="2400" height="1600"/>
  </clipPath>
</defs>
<path clip-path="url(#clip840)" d="M0 1600 L2400 1600 L2400 0 L0 0  Z" fill="#ffffff" fill-rule="evenodd" fill-opacity="1"/>
<defs>
  <clipPath id="clip841">
    <rect x="480" y="0" width="1681" height="1600"/>
  </clipPath>
</defs>
<path clip-path="url(#clip840)" d="M147.478 1486.45 L2352.76 1486.45 L2352.76 47.2441 L147.478 47.2441  Z" fill="#ffffff" fill-rule="evenodd" fill-opacity="1"/>
<defs>
  <clipPath id="clip842">
    <rect x="147" y="47" width="2206" height="1440"/>
  </clipPath>
</defs>
<polyline clip-path="url(#clip842)" style="stroke:#000000; stroke-linecap:round; stroke-linejoin:round; stroke-width:2; stroke-opacity:0.1; fill:none" points="241.22,1486.45 241.22,47.2441 "/>
<polyline clip-path="url(#clip842)" style="stroke:#000000; stroke-linecap:round; stroke-linejoin:round; stroke-width:2; stroke-opacity:0.1; fill:none" points="559.427,1486.45 559.427,47.2441 "/>
<polyline clip-path="url(#clip842)" style="stroke:#000000; stroke-linecap:round; stroke-linejoin:round; stroke-width:2; stroke-opacity:0.1; fill:none" points="877.635,1486.45 877.635,47.2441 "/>
<polyline clip-path="url(#clip842)" style="stroke:#000000; stroke-linecap:round; stroke-linejoin:round; stroke-width:2; stroke-opacity:0.1; fill:none" points="1195.84,1486.45 1195.84,47.2441 "/>
<polyline clip-path="url(#clip842)" style="stroke:#000000; stroke-linecap:round; stroke-linejoin:round; stroke-width:2; stroke-opacity:0.1; fill:none" points="1514.05,1486.45 1514.05,47.2441 "/>
<polyline clip-path="url(#clip842)" style="stroke:#000000; stroke-linecap:round; stroke-linejoin:round; stroke-width:2; stroke-opacity:0.1; fill:none" points="1832.26,1486.45 1832.26,47.2441 "/>
<polyline clip-path="url(#clip842)" style="stroke:#000000; stroke-linecap:round; stroke-linejoin:round; stroke-width:2; stroke-opacity:0.1; fill:none" points="2150.46,1486.45 2150.46,47.2441 "/>
<polyline clip-path="url(#clip842)" style="stroke:#000000; stroke-linecap:round; stroke-linejoin:round; stroke-width:2; stroke-opacity:0.1; fill:none" points="147.478,1247.71 2352.76,1247.71 "/>
<polyline clip-path="url(#clip842)" style="stroke:#000000; stroke-linecap:round; stroke-linejoin:round; stroke-width:2; stroke-opacity:0.1; fill:none" points="147.478,935.904 2352.76,935.904 "/>
<polyline clip-path="url(#clip842)" style="stroke:#000000; stroke-linecap:round; stroke-linejoin:round; stroke-width:2; stroke-opacity:0.1; fill:none" points="147.478,624.101 2352.76,624.101 "/>
<polyline clip-path="url(#clip842)" style="stroke:#000000; stroke-linecap:round; stroke-linejoin:round; stroke-width:2; stroke-opacity:0.1; fill:none" points="147.478,312.297 2352.76,312.297 "/>
<polyline clip-path="url(#clip840)" style="stroke:#000000; stroke-linecap:round; stroke-linejoin:round; stroke-width:4; stroke-opacity:1; fill:none" points="147.478,1486.45 2352.76,1486.45 "/>
<polyline clip-path="url(#clip840)" style="stroke:#000000; stroke-linecap:round; stroke-linejoin:round; stroke-width:4; stroke-opacity:1; fill:none" points="241.22,1486.45 241.22,1467.55 "/>
<polyline clip-path="url(#clip840)" style="stroke:#000000; stroke-linecap:round; stroke-linejoin:round; stroke-width:4; stroke-opacity:1; fill:none" points="559.427,1486.45 559.427,1467.55 "/>
<polyline clip-path="url(#clip840)" style="stroke:#000000; stroke-linecap:round; stroke-linejoin:round; stroke-width:4; stroke-opacity:1; fill:none" points="877.635,1486.45 877.635,1467.55 "/>
<polyline clip-path="url(#clip840)" style="stroke:#000000; stroke-linecap:round; stroke-linejoin:round; stroke-width:4; stroke-opacity:1; fill:none" points="1195.84,1486.45 1195.84,1467.55 "/>
<polyline clip-path="url(#clip840)" style="stroke:#000000; stroke-linecap:round; stroke-linejoin:round; stroke-width:4; stroke-opacity:1; fill:none" points="1514.05,1486.45 1514.05,1467.55 "/>
<polyline clip-path="url(#clip840)" style="stroke:#000000; stroke-linecap:round; stroke-linejoin:round; stroke-width:4; stroke-opacity:1; fill:none" points="1832.26,1486.45 1832.26,1467.55 "/>
<polyline clip-path="url(#clip840)" style="stroke:#000000; stroke-linecap:round; stroke-linejoin:round; stroke-width:4; stroke-opacity:1; fill:none" points="2150.46,1486.45 2150.46,1467.55 "/>
<path clip-path="url(#clip840)" d="M188.245 1532.02 L217.921 1532.02 L217.921 1535.95 L188.245 1535.95 L188.245 1532.02 Z" fill="#000000" fill-rule="nonzero" fill-opacity="1" /><path clip-path="url(#clip840)" d="M228.824 1544.91 L236.463 1544.91 L236.463 1518.55 L228.153 1520.21 L228.153 1515.95 L236.417 1514.29 L241.092 1514.29 L241.092 1544.91 L248.731 1544.91 L248.731 1548.85 L228.824 1548.85 L228.824 1544.91 Z" fill="#000000" fill-rule="nonzero" fill-opacity="1" /><path clip-path="url(#clip840)" d="M258.176 1542.97 L263.06 1542.97 L263.06 1548.85 L258.176 1548.85 L258.176 1542.97 Z" fill="#000000" fill-rule="nonzero" fill-opacity="1" /><path clip-path="url(#clip840)" d="M273.291 1514.29 L291.648 1514.29 L291.648 1518.22 L277.574 1518.22 L277.574 1526.7 Q278.592 1526.35 279.611 1526.19 Q280.629 1526 281.648 1526 Q287.435 1526 290.814 1529.17 Q294.194 1532.34 294.194 1537.76 Q294.194 1543.34 290.722 1546.44 Q287.25 1549.52 280.93 1549.52 Q278.754 1549.52 276.486 1549.15 Q274.24 1548.78 271.833 1548.04 L271.833 1543.34 Q273.916 1544.47 276.139 1545.03 Q278.361 1545.58 280.838 1545.58 Q284.842 1545.58 287.18 1543.48 Q289.518 1541.37 289.518 1537.76 Q289.518 1534.15 287.18 1532.04 Q284.842 1529.94 280.838 1529.94 Q278.963 1529.94 277.088 1530.35 Q275.236 1530.77 273.291 1531.65 L273.291 1514.29 Z" fill="#000000" fill-rule="nonzero" fill-opacity="1" /><path clip-path="url(#clip840)" d="M505.955 1532.02 L535.631 1532.02 L535.631 1535.95 L505.955 1535.95 L505.955 1532.02 Z" fill="#000000" fill-rule="nonzero" fill-opacity="1" /><path clip-path="url(#clip840)" d="M546.534 1544.91 L554.173 1544.91 L554.173 1518.55 L545.862 1520.21 L545.862 1515.95 L554.126 1514.29 L558.802 1514.29 L558.802 1544.91 L566.441 1544.91 L566.441 1548.85 L546.534 1548.85 L546.534 1544.91 Z" fill="#000000" fill-rule="nonzero" fill-opacity="1" /><path clip-path="url(#clip840)" d="M575.885 1542.97 L580.77 1542.97 L580.77 1548.85 L575.885 1548.85 L575.885 1542.97 Z" fill="#000000" fill-rule="nonzero" fill-opacity="1" /><path clip-path="url(#clip840)" d="M600.955 1517.37 Q597.344 1517.37 595.515 1520.93 Q593.709 1524.47 593.709 1531.6 Q593.709 1538.71 595.515 1542.27 Q597.344 1545.82 600.955 1545.82 Q604.589 1545.82 606.395 1542.27 Q608.223 1538.71 608.223 1531.6 Q608.223 1524.47 606.395 1520.93 Q604.589 1517.37 600.955 1517.37 M600.955 1513.66 Q606.765 1513.66 609.82 1518.27 Q612.899 1522.85 612.899 1531.6 Q612.899 1540.33 609.82 1544.94 Q606.765 1549.52 600.955 1549.52 Q595.145 1549.52 592.066 1544.94 Q589.01 1540.33 589.01 1531.6 Q589.01 1522.85 592.066 1518.27 Q595.145 1513.66 600.955 1513.66 Z" fill="#000000" fill-rule="nonzero" fill-opacity="1" /><path clip-path="url(#clip840)" d="M824.66 1532.02 L854.336 1532.02 L854.336 1535.95 L824.66 1535.95 L824.66 1532.02 Z" fill="#000000" fill-rule="nonzero" fill-opacity="1" /><path clip-path="url(#clip840)" d="M874.429 1517.37 Q870.818 1517.37 868.989 1520.93 Q867.183 1524.47 867.183 1531.6 Q867.183 1538.71 868.989 1542.27 Q870.818 1545.82 874.429 1545.82 Q878.063 1545.82 879.868 1542.27 Q881.697 1538.71 881.697 1531.6 Q881.697 1524.47 879.868 1520.93 Q878.063 1517.37 874.429 1517.37 M874.429 1513.66 Q880.239 1513.66 883.294 1518.27 Q886.373 1522.85 886.373 1531.6 Q886.373 1540.33 883.294 1544.94 Q880.239 1549.52 874.429 1549.52 Q868.619 1549.52 865.54 1544.94 Q862.484 1540.33 862.484 1531.6 Q862.484 1522.85 865.54 1518.27 Q868.619 1513.66 874.429 1513.66 Z" fill="#000000" fill-rule="nonzero" fill-opacity="1" /><path clip-path="url(#clip840)" d="M894.591 1542.97 L899.475 1542.97 L899.475 1548.85 L894.591 1548.85 L894.591 1542.97 Z" fill="#000000" fill-rule="nonzero" fill-opacity="1" /><path clip-path="url(#clip840)" d="M909.706 1514.29 L928.063 1514.29 L928.063 1518.22 L913.989 1518.22 L913.989 1526.7 Q915.007 1526.35 916.026 1526.19 Q917.044 1526 918.063 1526 Q923.85 1526 927.229 1529.17 Q930.609 1532.34 930.609 1537.76 Q930.609 1543.34 927.137 1546.44 Q923.665 1549.52 917.345 1549.52 Q915.169 1549.52 912.901 1549.15 Q910.655 1548.78 908.248 1548.04 L908.248 1543.34 Q910.331 1544.47 912.554 1545.03 Q914.776 1545.58 917.253 1545.58 Q921.257 1545.58 923.595 1543.48 Q925.933 1541.37 925.933 1537.76 Q925.933 1534.15 923.595 1532.04 Q921.257 1529.94 917.253 1529.94 Q915.378 1529.94 913.503 1530.35 Q911.651 1530.77 909.706 1531.65 L909.706 1514.29 Z" fill="#000000" fill-rule="nonzero" fill-opacity="1" /><path clip-path="url(#clip840)" d="M1173.23 1517.37 Q1169.62 1517.37 1167.79 1520.93 Q1165.98 1524.47 1165.98 1531.6 Q1165.98 1538.71 1167.79 1542.27 Q1169.62 1545.82 1173.23 1545.82 Q1176.86 1545.82 1178.67 1542.27 Q1180.5 1538.71 1180.5 1531.6 Q1180.5 1524.47 1178.67 1520.93 Q1176.86 1517.37 1173.23 1517.37 M1173.23 1513.66 Q1179.04 1513.66 1182.09 1518.27 Q1185.17 1522.85 1185.17 1531.6 Q1185.17 1540.33 1182.09 1544.94 Q1179.04 1549.52 1173.23 1549.52 Q1167.42 1549.52 1164.34 1544.94 Q1161.28 1540.33 1161.28 1531.6 Q1161.28 1522.85 1164.34 1518.27 Q1167.42 1513.66 1173.23 1513.66 Z" fill="#000000" fill-rule="nonzero" fill-opacity="1" /><path clip-path="url(#clip840)" d="M1193.39 1542.97 L1198.27 1542.97 L1198.27 1548.85 L1193.39 1548.85 L1193.39 1542.97 Z" fill="#000000" fill-rule="nonzero" fill-opacity="1" /><path clip-path="url(#clip840)" d="M1218.46 1517.37 Q1214.85 1517.37 1213.02 1520.93 Q1211.21 1524.47 1211.21 1531.6 Q1211.21 1538.71 1213.02 1542.27 Q1214.85 1545.82 1218.46 1545.82 Q1222.09 1545.82 1223.9 1542.27 Q1225.73 1538.71 1225.73 1531.6 Q1225.73 1524.47 1223.9 1520.93 Q1222.09 1517.37 1218.46 1517.37 M1218.46 1513.66 Q1224.27 1513.66 1227.32 1518.27 Q1230.4 1522.85 1230.4 1531.6 Q1230.4 1540.33 1227.32 1544.94 Q1224.27 1549.52 1218.46 1549.52 Q1212.65 1549.52 1209.57 1544.94 Q1206.51 1540.33 1206.51 1531.6 Q1206.51 1522.85 1209.57 1518.27 Q1212.65 1513.66 1218.46 1513.66 Z" fill="#000000" fill-rule="nonzero" fill-opacity="1" /><path clip-path="url(#clip840)" d="M1491.93 1517.37 Q1488.32 1517.37 1486.49 1520.93 Q1484.69 1524.47 1484.69 1531.6 Q1484.69 1538.71 1486.49 1542.27 Q1488.32 1545.82 1491.93 1545.82 Q1495.57 1545.82 1497.37 1542.27 Q1499.2 1538.71 1499.2 1531.6 Q1499.2 1524.47 1497.37 1520.93 Q1495.57 1517.37 1491.93 1517.37 M1491.93 1513.66 Q1497.74 1513.66 1500.8 1518.27 Q1503.88 1522.85 1503.88 1531.6 Q1503.88 1540.33 1500.8 1544.94 Q1497.74 1549.52 1491.93 1549.52 Q1486.12 1549.52 1483.04 1544.94 Q1479.99 1540.33 1479.99 1531.6 Q1479.99 1522.85 1483.04 1518.27 Q1486.12 1513.66 1491.93 1513.66 Z" fill="#000000" fill-rule="nonzero" fill-opacity="1" /><path clip-path="url(#clip840)" d="M1512.09 1542.97 L1516.98 1542.97 L1516.98 1548.85 L1512.09 1548.85 L1512.09 1542.97 Z" fill="#000000" fill-rule="nonzero" fill-opacity="1" /><path clip-path="url(#clip840)" d="M1527.21 1514.29 L1545.57 1514.29 L1545.57 1518.22 L1531.49 1518.22 L1531.49 1526.7 Q1532.51 1526.35 1533.53 1526.19 Q1534.55 1526 1535.57 1526 Q1541.35 1526 1544.73 1529.17 Q1548.11 1532.34 1548.11 1537.76 Q1548.11 1543.34 1544.64 1546.44 Q1541.17 1549.52 1534.85 1549.52 Q1532.67 1549.52 1530.4 1549.15 Q1528.16 1548.78 1525.75 1548.04 L1525.75 1543.34 Q1527.83 1544.47 1530.06 1545.03 Q1532.28 1545.58 1534.76 1545.58 Q1538.76 1545.58 1541.1 1543.48 Q1543.44 1541.37 1543.44 1537.76 Q1543.44 1534.15 1541.1 1532.04 Q1538.76 1529.94 1534.76 1529.94 Q1532.88 1529.94 1531.01 1530.35 Q1529.15 1530.77 1527.21 1531.65 L1527.21 1514.29 Z" fill="#000000" fill-rule="nonzero" fill-opacity="1" /><path clip-path="url(#clip840)" d="M1799.41 1544.91 L1807.05 1544.91 L1807.05 1518.55 L1798.74 1520.21 L1798.74 1515.95 L1807 1514.29 L1811.68 1514.29 L1811.68 1544.91 L1819.32 1544.91 L1819.32 1548.85 L1799.41 1548.85 L1799.41 1544.91 Z" fill="#000000" fill-rule="nonzero" fill-opacity="1" /><path clip-path="url(#clip840)" d="M1828.76 1542.97 L1833.65 1542.97 L1833.65 1548.85 L1828.76 1548.85 L1828.76 1542.97 Z" fill="#000000" fill-rule="nonzero" fill-opacity="1" /><path clip-path="url(#clip840)" d="M1853.83 1517.37 Q1850.22 1517.37 1848.39 1520.93 Q1846.59 1524.47 1846.59 1531.6 Q1846.59 1538.71 1848.39 1542.27 Q1850.22 1545.82 1853.83 1545.82 Q1857.47 1545.82 1859.27 1542.27 Q1861.1 1538.71 1861.1 1531.6 Q1861.1 1524.47 1859.27 1520.93 Q1857.47 1517.37 1853.83 1517.37 M1853.83 1513.66 Q1859.64 1513.66 1862.7 1518.27 Q1865.78 1522.85 1865.78 1531.6 Q1865.78 1540.33 1862.7 1544.94 Q1859.64 1549.52 1853.83 1549.52 Q1848.02 1549.52 1844.94 1544.94 Q1841.89 1540.33 1841.89 1531.6 Q1841.89 1522.85 1844.94 1518.27 Q1848.02 1513.66 1853.83 1513.66 Z" fill="#000000" fill-rule="nonzero" fill-opacity="1" /><path clip-path="url(#clip840)" d="M2118.12 1544.91 L2125.75 1544.91 L2125.75 1518.55 L2117.44 1520.21 L2117.44 1515.95 L2125.71 1514.29 L2130.38 1514.29 L2130.38 1544.91 L2138.02 1544.91 L2138.02 1548.85 L2118.12 1548.85 L2118.12 1544.91 Z" fill="#000000" fill-rule="nonzero" fill-opacity="1" /><path clip-path="url(#clip840)" d="M2147.47 1542.97 L2152.35 1542.97 L2152.35 1548.85 L2147.47 1548.85 L2147.47 1542.97 Z" fill="#000000" fill-rule="nonzero" fill-opacity="1" /><path clip-path="url(#clip840)" d="M2162.58 1514.29 L2180.94 1514.29 L2180.94 1518.22 L2166.87 1518.22 L2166.87 1526.7 Q2167.88 1526.35 2168.9 1526.19 Q2169.92 1526 2170.94 1526 Q2176.73 1526 2180.11 1529.17 Q2183.49 1532.34 2183.49 1537.76 Q2183.49 1543.34 2180.01 1546.44 Q2176.54 1549.52 2170.22 1549.52 Q2168.05 1549.52 2165.78 1549.15 Q2163.53 1548.78 2161.12 1548.04 L2161.12 1543.34 Q2163.21 1544.47 2165.43 1545.03 Q2167.65 1545.58 2170.13 1545.58 Q2174.13 1545.58 2176.47 1543.48 Q2178.81 1541.37 2178.81 1537.76 Q2178.81 1534.15 2176.47 1532.04 Q2174.13 1529.94 2170.13 1529.94 Q2168.25 1529.94 2166.38 1530.35 Q2164.53 1530.77 2162.58 1531.65 L2162.58 1514.29 Z" fill="#000000" fill-rule="nonzero" fill-opacity="1" /><polyline clip-path="url(#clip840)" style="stroke:#000000; stroke-linecap:round; stroke-linejoin:round; stroke-width:4; stroke-opacity:1; fill:none" points="147.478,1486.45 147.478,47.2441 "/>
<polyline clip-path="url(#clip840)" style="stroke:#000000; stroke-linecap:round; stroke-linejoin:round; stroke-width:4; stroke-opacity:1; fill:none" points="147.478,1247.71 166.376,1247.71 "/>
<polyline clip-path="url(#clip840)" style="stroke:#000000; stroke-linecap:round; stroke-linejoin:round; stroke-width:4; stroke-opacity:1; fill:none" points="147.478,935.904 166.376,935.904 "/>
<polyline clip-path="url(#clip840)" style="stroke:#000000; stroke-linecap:round; stroke-linejoin:round; stroke-width:4; stroke-opacity:1; fill:none" points="147.478,624.101 166.376,624.101 "/>
<polyline clip-path="url(#clip840)" style="stroke:#000000; stroke-linecap:round; stroke-linejoin:round; stroke-width:4; stroke-opacity:1; fill:none" points="147.478,312.297 166.376,312.297 "/>
<path clip-path="url(#clip840)" d="M51.3625 1248.16 L81.0383 1248.16 L81.0383 1252.09 L51.3625 1252.09 L51.3625 1248.16 Z" fill="#000000" fill-rule="nonzero" fill-opacity="1" /><path clip-path="url(#clip840)" d="M95.1586 1261.05 L111.478 1261.05 L111.478 1264.99 L89.5336 1264.99 L89.5336 1261.05 Q92.1956 1258.3 96.7789 1253.67 Q101.385 1249.02 102.566 1247.67 Q104.811 1245.15 105.691 1243.41 Q106.594 1241.65 106.594 1239.96 Q106.594 1237.21 104.649 1235.47 Q102.728 1233.74 99.6261 1233.74 Q97.4271 1233.74 94.9734 1234.5 Q92.5428 1235.27 89.7651 1236.82 L89.7651 1232.09 Q92.5891 1230.96 95.0428 1230.38 Q97.4965 1229.8 99.5335 1229.8 Q104.904 1229.8 108.098 1232.49 Q111.293 1235.17 111.293 1239.66 Q111.293 1241.79 110.483 1243.71 Q109.696 1245.61 107.589 1248.21 Q107.01 1248.88 103.909 1252.09 Q100.807 1255.29 95.1586 1261.05 Z" fill="#000000" fill-rule="nonzero" fill-opacity="1" /><path clip-path="url(#clip840)" d="M50.9921 936.355 L80.6679 936.355 L80.6679 940.291 L50.9921 940.291 L50.9921 936.355 Z" fill="#000000" fill-rule="nonzero" fill-opacity="1" /><path clip-path="url(#clip840)" d="M91.5706 949.249 L99.2095 949.249 L99.2095 922.883 L90.8993 924.55 L90.8993 920.291 L99.1632 918.624 L103.839 918.624 L103.839 949.249 L111.478 949.249 L111.478 953.184 L91.5706 953.184 L91.5706 949.249 Z" fill="#000000" fill-rule="nonzero" fill-opacity="1" /><path clip-path="url(#clip840)" d="M99.5335 609.899 Q95.9224 609.899 94.0937 613.464 Q92.2882 617.006 92.2882 624.135 Q92.2882 631.242 94.0937 634.806 Q95.9224 638.348 99.5335 638.348 Q103.168 638.348 104.973 634.806 Q106.802 631.242 106.802 624.135 Q106.802 617.006 104.973 613.464 Q103.168 609.899 99.5335 609.899 M99.5335 606.196 Q105.344 606.196 108.399 610.802 Q111.478 615.385 111.478 624.135 Q111.478 632.862 108.399 637.468 Q105.344 642.052 99.5335 642.052 Q93.7234 642.052 90.6447 637.468 Q87.5892 632.862 87.5892 624.135 Q87.5892 615.385 90.6447 610.802 Q93.7234 606.196 99.5335 606.196 Z" fill="#000000" fill-rule="nonzero" fill-opacity="1" /><path clip-path="url(#clip840)" d="M91.5706 325.642 L99.2095 325.642 L99.2095 299.276 L90.8993 300.943 L90.8993 296.684 L99.1632 295.017 L103.839 295.017 L103.839 325.642 L111.478 325.642 L111.478 329.577 L91.5706 329.577 L91.5706 325.642 Z" fill="#000000" fill-rule="nonzero" fill-opacity="1" /><circle clip-path="url(#clip842)" cx="1071.52" cy="833.38" r="14.4" fill="#009af9" fill-rule="evenodd" fill-opacity="0.5" stroke="#000000" stroke-opacity="0.5" stroke-width="3.2"/>
<circle clip-path="url(#clip842)" cx="1096.94" cy="965.648" r="14.4" fill="#009af9" fill-rule="evenodd" fill-opacity="0.5" stroke="#000000" stroke-opacity="0.5" stroke-width="3.2"/>
<circle clip-path="url(#clip842)" cx="919.032" cy="126.019" r="14.4" fill="#009af9" fill-rule="evenodd" fill-opacity="0.5" stroke="#000000" stroke-opacity="0.5" stroke-width="3.2"/>
<circle clip-path="url(#clip842)" cx="2282.7" cy="400.721" r="14.4" fill="#009af9" fill-rule="evenodd" fill-opacity="0.5" stroke="#000000" stroke-opacity="0.5" stroke-width="3.2"/>
<circle clip-path="url(#clip842)" cx="1350.63" cy="595.908" r="14.4" fill="#009af9" fill-rule="evenodd" fill-opacity="0.5" stroke="#000000" stroke-opacity="0.5" stroke-width="3.2"/>
<circle clip-path="url(#clip842)" cx="1348.59" cy="805.635" r="14.4" fill="#009af9" fill-rule="evenodd" fill-opacity="0.5" stroke="#000000" stroke-opacity="0.5" stroke-width="3.2"/>
<circle clip-path="url(#clip842)" cx="1256.17" cy="723.616" r="14.4" fill="#009af9" fill-rule="evenodd" fill-opacity="0.5" stroke="#000000" stroke-opacity="0.5" stroke-width="3.2"/>
<circle clip-path="url(#clip842)" cx="1992.41" cy="1445.72" r="14.4" fill="#009af9" fill-rule="evenodd" fill-opacity="0.5" stroke="#000000" stroke-opacity="0.5" stroke-width="3.2"/>
<circle clip-path="url(#clip842)" cx="1432.72" cy="275.015" r="14.4" fill="#009af9" fill-rule="evenodd" fill-opacity="0.5" stroke="#000000" stroke-opacity="0.5" stroke-width="3.2"/>
<circle clip-path="url(#clip842)" cx="1141.87" cy="569.179" r="14.4" fill="#009af9" fill-rule="evenodd" fill-opacity="0.5" stroke="#000000" stroke-opacity="0.5" stroke-width="3.2"/>
<circle clip-path="url(#clip842)" cx="1526.95" cy="87.9763" r="14.4" fill="#009af9" fill-rule="evenodd" fill-opacity="0.5" stroke="#000000" stroke-opacity="0.5" stroke-width="3.2"/>
<circle clip-path="url(#clip842)" cx="765.155" cy="455.424" r="14.4" fill="#009af9" fill-rule="evenodd" fill-opacity="0.5" stroke="#000000" stroke-opacity="0.5" stroke-width="3.2"/>
<circle clip-path="url(#clip842)" cx="1729.04" cy="474.06" r="14.4" fill="#009af9" fill-rule="evenodd" fill-opacity="0.5" stroke="#000000" stroke-opacity="0.5" stroke-width="3.2"/>
<circle clip-path="url(#clip842)" cx="527.645" cy="273.593" r="14.4" fill="#009af9" fill-rule="evenodd" fill-opacity="0.5" stroke="#000000" stroke-opacity="0.5" stroke-width="3.2"/>
<circle clip-path="url(#clip842)" cx="1685.29" cy="952.606" r="14.4" fill="#009af9" fill-rule="evenodd" fill-opacity="0.5" stroke="#000000" stroke-opacity="0.5" stroke-width="3.2"/>
<circle clip-path="url(#clip842)" cx="1907.21" cy="444.602" r="14.4" fill="#009af9" fill-rule="evenodd" fill-opacity="0.5" stroke="#000000" stroke-opacity="0.5" stroke-width="3.2"/>
<circle clip-path="url(#clip842)" cx="1105.94" cy="384.425" r="14.4" fill="#009af9" fill-rule="evenodd" fill-opacity="0.5" stroke="#000000" stroke-opacity="0.5" stroke-width="3.2"/>
<circle clip-path="url(#clip842)" cx="1661.98" cy="486.741" r="14.4" fill="#009af9" fill-rule="evenodd" fill-opacity="0.5" stroke="#000000" stroke-opacity="0.5" stroke-width="3.2"/>
<circle clip-path="url(#clip842)" cx="2290.34" cy="929.826" r="14.4" fill="#009af9" fill-rule="evenodd" fill-opacity="0.5" stroke="#000000" stroke-opacity="0.5" stroke-width="3.2"/>
<circle clip-path="url(#clip842)" cx="815.734" cy="855.597" r="14.4" fill="#009af9" fill-rule="evenodd" fill-opacity="0.5" stroke="#000000" stroke-opacity="0.5" stroke-width="3.2"/>
<circle clip-path="url(#clip842)" cx="251.451" cy="423.377" r="14.4" fill="#009af9" fill-rule="evenodd" fill-opacity="0.5" stroke="#000000" stroke-opacity="0.5" stroke-width="3.2"/>
<circle clip-path="url(#clip842)" cx="1338.76" cy="584.961" r="14.4" fill="#009af9" fill-rule="evenodd" fill-opacity="0.5" stroke="#000000" stroke-opacity="0.5" stroke-width="3.2"/>
<circle clip-path="url(#clip842)" cx="1222.55" cy="1008.04" r="14.4" fill="#009af9" fill-rule="evenodd" fill-opacity="0.5" stroke="#000000" stroke-opacity="0.5" stroke-width="3.2"/>
<circle clip-path="url(#clip842)" cx="441.777" cy="534.752" r="14.4" fill="#009af9" fill-rule="evenodd" fill-opacity="0.5" stroke="#000000" stroke-opacity="0.5" stroke-width="3.2"/>
<circle clip-path="url(#clip842)" cx="1234.14" cy="349.948" r="14.4" fill="#009af9" fill-rule="evenodd" fill-opacity="0.5" stroke="#000000" stroke-opacity="0.5" stroke-width="3.2"/>
<circle clip-path="url(#clip842)" cx="753.589" cy="1022.24" r="14.4" fill="#009af9" fill-rule="evenodd" fill-opacity="0.5" stroke="#000000" stroke-opacity="0.5" stroke-width="3.2"/>
<circle clip-path="url(#clip842)" cx="1554.54" cy="499.66" r="14.4" fill="#009af9" fill-rule="evenodd" fill-opacity="0.5" stroke="#000000" stroke-opacity="0.5" stroke-width="3.2"/>
<circle clip-path="url(#clip842)" cx="686.246" cy="476.577" r="14.4" fill="#009af9" fill-rule="evenodd" fill-opacity="0.5" stroke="#000000" stroke-opacity="0.5" stroke-width="3.2"/>
<circle clip-path="url(#clip842)" cx="1926.32" cy="399.581" r="14.4" fill="#009af9" fill-rule="evenodd" fill-opacity="0.5" stroke="#000000" stroke-opacity="0.5" stroke-width="3.2"/>
<circle clip-path="url(#clip842)" cx="209.891" cy="579.694" r="14.4" fill="#009af9" fill-rule="evenodd" fill-opacity="0.5" stroke="#000000" stroke-opacity="0.5" stroke-width="3.2"/>
<path clip-path="url(#clip842)" d="M209.891 579.694 L753.589 1022.24 L1992.41 1445.72 L2290.34 929.826 L2282.7 400.721 L1526.95 87.9763 L919.032 126.019 L527.645 273.593 L251.451 423.377 L209.891 579.694 L209.891 579.694  Z" fill="#e26f46" fill-rule="evenodd" fill-opacity="0.2"/>
<polyline clip-path="url(#clip842)" style="stroke:#000000; stroke-linecap:round; stroke-linejoin:round; stroke-width:4; stroke-opacity:0.2; fill:none" points="209.891,579.694 753.589,1022.24 1992.41,1445.72 2290.34,929.826 2282.7,400.721 1526.95,87.9763 919.032,126.019 527.645,273.593 251.451,423.377 209.891,579.694 "/>
</svg>
