<?xml version="1.0" encoding="utf-8"?>
<svg xmlns="http://www.w3.org/2000/svg" xmlns:xlink="http://www.w3.org/1999/xlink" width="600" height="400" viewBox="0 0 2400 1600">
<defs>
  <clipPath id="clip850">
    <rect x="0" y="0" width="2400" height="1600"/>
  </clipPath>
</defs>
<path clip-path="url(#clip850)" d="M0 1600 L2400 1600 L2400 0 L0 0  Z" fill="#ffffff" fill-rule="evenodd" fill-opacity="1"/>
<defs>
  <clipPath id="clip851">
    <rect x="480" y="0" width="1681" height="1600"/>
  </clipPath>
</defs>
<path clip-path="url(#clip850)" d="M147.478 1486.45 L2352.76 1486.45 L2352.76 47.2441 L147.478 47.2441  Z" fill="#ffffff" fill-rule="evenodd" fill-opacity="1"/>
<defs>
  <clipPath id="clip852">
    <rect x="147" y="47" width="2206" height="1440"/>
  </clipPath>
</defs>
<polyline clip-path="url(#clip852)" style="stroke:#000000; stroke-linecap:round; stroke-linejoin:round; stroke-width:2; stroke-opacity:0.1; fill:none" points="353.055,1486.45 353.055,47.2441 "/>
<polyline clip-path="url(#clip852)" style="stroke:#000000; stroke-linecap:round; stroke-linejoin:round; stroke-width:2; stroke-opacity:0.1; fill:none" points="705.276,1486.45 705.276,47.2441 "/>
<polyline clip-path="url(#clip852)" style="stroke:#000000; stroke-linecap:round; stroke-linejoin:round; stroke-width:2; stroke-opacity:0.1; fill:none" points="1057.5,1486.45 1057.5,47.2441 "/>
<polyline clip-path="url(#clip852)" style="stroke:#000000; stroke-linecap:round; stroke-linejoin:round; stroke-width:2; stroke-opacity:0.1; fill:none" points="1409.72,1486.45 1409.72,47.2441 "/>
<polyline clip-path="url(#clip852)" style="stroke:#000000; stroke-linecap:round; stroke-linejoin:round; stroke-width:2; stroke-opacity:0.1; fill:none" points="1761.94,1486.45 1761.94,47.2441 "/>
<polyline clip-path="url(#clip852)" style="stroke:#000000; stroke-linecap:round; stroke-linejoin:round; stroke-width:2; stroke-opacity:0.1; fill:none" points="2114.16,1486.45 2114.16,47.2441 "/>
<polyline clip-path="url(#clip850)" style="stroke:#000000; stroke-linecap:round; stroke-linejoin:round; stroke-width:4; stroke-opacity:1; fill:none" points="147.478,1486.45 2352.76,1486.45 "/>
<polyline clip-path="url(#clip850)" style="stroke:#000000; stroke-linecap:round; stroke-linejoin:round; stroke-width:4; stroke-opacity:1; fill:none" points="353.055,1486.45 353.055,1467.55 "/>
<polyline clip-path="url(#clip850)" style="stroke:#000000; stroke-linecap:round; stroke-linejoin:round; stroke-width:4; stroke-opacity:1; fill:none" points="705.276,1486.45 705.276,1467.55 "/>
<polyline clip-path="url(#clip850)" style="stroke:#000000; stroke-linecap:round; stroke-linejoin:round; stroke-width:4; stroke-opacity:1; fill:none" points="1057.5,1486.45 1057.5,1467.55 "/>
<polyline clip-path="url(#clip850)" style="stroke:#000000; stroke-linecap:round; stroke-linejoin:round; stroke-width:4; stroke-opacity:1; fill:none" points="1409.72,1486.45 1409.72,1467.55 "/>
<polyline clip-path="url(#clip850)" style="stroke:#000000; stroke-linecap:round; stroke-linejoin:round; stroke-width:4; stroke-opacity:1; fill:none" points="1761.94,1486.45 1761.94,1467.55 "/>
<polyline clip-path="url(#clip850)" style="stroke:#000000; stroke-linecap:round; stroke-linejoin:round; stroke-width:4; stroke-opacity:1; fill:none" points="2114.16,1486.45 2114.16,1467.55 "/>
<path clip-path="url(#clip850)" d="M299.583 1532.02 L329.259 1532.02 L329.259 1535.95 L299.583 1535.95 L299.583 1532.02 Z" fill="#000000" fill-rule="nonzero" fill-opacity="1" /><path clip-path="url(#clip850)" d="M340.162 1544.91 L347.801 1544.91 L347.801 1518.55 L339.491 1520.21 L339.491 1515.95 L347.754 1514.29 L352.43 1514.29 L352.43 1544.91 L360.069 1544.91 L360.069 1548.85 L340.162 1548.85 L340.162 1544.91 Z" fill="#000000" fill-rule="nonzero" fill-opacity="1" /><path clip-path="url(#clip850)" d="M369.514 1542.97 L374.398 1542.97 L374.398 1548.85 L369.514 1548.85 L369.514 1542.97 Z" fill="#000000" fill-rule="nonzero" fill-opacity="1" /><path clip-path="url(#clip850)" d="M394.583 1517.37 Q390.972 1517.37 389.143 1520.93 Q387.338 1524.47 387.338 1531.6 Q387.338 1538.71 389.143 1542.27 Q390.972 1545.82 394.583 1545.82 Q398.217 1545.82 400.023 1542.27 Q401.851 1538.71 401.851 1531.6 Q401.851 1524.47 400.023 1520.93 Q398.217 1517.37 394.583 1517.37 M394.583 1513.66 Q400.393 1513.66 403.449 1518.27 Q406.527 1522.85 406.527 1531.6 Q406.527 1540.33 403.449 1544.94 Q400.393 1549.52 394.583 1549.52 Q388.773 1549.52 385.694 1544.94 Q382.638 1540.33 382.638 1531.6 Q382.638 1522.85 385.694 1518.27 Q388.773 1513.66 394.583 1513.66 Z" fill="#000000" fill-rule="nonzero" fill-opacity="1" /><path clip-path="url(#clip850)" d="M652.302 1532.02 L681.978 1532.02 L681.978 1535.95 L652.302 1535.95 L652.302 1532.02 Z" fill="#000000" fill-rule="nonzero" fill-opacity="1" /><path clip-path="url(#clip850)" d="M702.07 1517.37 Q698.459 1517.37 696.631 1520.93 Q694.825 1524.47 694.825 1531.6 Q694.825 1538.71 696.631 1542.27 Q698.459 1545.82 702.07 1545.82 Q705.705 1545.82 707.51 1542.27 Q709.339 1538.71 709.339 1531.6 Q709.339 1524.47 707.51 1520.93 Q705.705 1517.37 702.07 1517.37 M702.07 1513.66 Q707.881 1513.66 710.936 1518.27 Q714.015 1522.85 714.015 1531.6 Q714.015 1540.33 710.936 1544.94 Q707.881 1549.52 702.07 1549.52 Q696.26 1549.52 693.182 1544.94 Q690.126 1540.33 690.126 1531.6 Q690.126 1522.85 693.182 1518.27 Q696.26 1513.66 702.07 1513.66 Z" fill="#000000" fill-rule="nonzero" fill-opacity="1" /><path clip-path="url(#clip850)" d="M722.232 1542.97 L727.117 1542.97 L727.117 1548.85 L722.232 1548.85 L722.232 1542.97 Z" fill="#000000" fill-rule="nonzero" fill-opacity="1" /><path clip-path="url(#clip850)" d="M737.348 1514.29 L755.704 1514.29 L755.704 1518.22 L741.63 1518.22 L741.63 1526.7 Q742.649 1526.35 743.667 1526.19 Q744.686 1526 745.704 1526 Q751.491 1526 754.871 1529.17 Q758.251 1532.34 758.251 1537.76 Q758.251 1543.34 754.778 1546.44 Q751.306 1549.52 744.987 1549.52 Q742.811 1549.52 740.542 1549.15 Q738.297 1548.78 735.89 1548.04 L735.89 1543.34 Q737.973 1544.47 740.195 1545.03 Q742.417 1545.58 744.894 1545.58 Q748.899 1545.58 751.237 1543.48 Q753.575 1541.37 753.575 1537.76 Q753.575 1534.15 751.237 1532.04 Q748.899 1529.94 744.894 1529.94 Q743.019 1529.94 741.144 1530.35 Q739.292 1530.77 737.348 1531.65 L737.348 1514.29 Z" fill="#000000" fill-rule="nonzero" fill-opacity="1" /><path clip-path="url(#clip850)" d="M1034.88 1517.37 Q1031.27 1517.37 1029.44 1520.93 Q1027.64 1524.47 1027.64 1531.6 Q1027.64 1538.71 1029.44 1542.27 Q1031.27 1545.82 1034.88 1545.82 Q1038.52 1545.82 1040.32 1542.27 Q1042.15 1538.71 1042.15 1531.6 Q1042.15 1524.47 1040.32 1520.93 Q1038.52 1517.37 1034.88 1517.37 M1034.88 1513.66 Q1040.69 1513.66 1043.75 1518.27 Q1046.83 1522.85 1046.83 1531.6 Q1046.83 1540.33 1043.75 1544.94 Q1040.69 1549.52 1034.88 1549.52 Q1029.07 1549.52 1025.99 1544.94 Q1022.94 1540.33 1022.94 1531.6 Q1022.94 1522.85 1025.99 1518.27 Q1029.07 1513.66 1034.88 1513.66 Z" fill="#000000" fill-rule="nonzero" fill-opacity="1" /><path clip-path="url(#clip850)" d="M1055.04 1542.97 L1059.93 1542.97 L1059.93 1548.85 L1055.04 1548.85 L1055.04 1542.97 Z" fill="#000000" fill-rule="nonzero" fill-opacity="1" /><path clip-path="url(#clip850)" d="M1080.11 1517.37 Q1076.5 1517.37 1074.67 1520.93 Q1072.87 1524.47 1072.87 1531.6 Q1072.87 1538.71 1074.67 1542.27 Q1076.5 1545.82 1080.11 1545.82 Q1083.75 1545.82 1085.55 1542.27 Q1087.38 1538.71 1087.38 1531.6 Q1087.38 1524.47 1085.55 1520.93 Q1083.75 1517.37 1080.11 1517.37 M1080.11 1513.66 Q1085.92 1513.66 1088.98 1518.27 Q1092.06 1522.85 1092.06 1531.6 Q1092.06 1540.33 1088.98 1544.94 Q1085.92 1549.52 1080.11 1549.52 Q1074.3 1549.52 1071.22 1544.94 Q1068.17 1540.33 1068.17 1531.6 Q1068.17 1522.85 1071.22 1518.27 Q1074.3 1513.66 1080.11 1513.66 Z" fill="#000000" fill-rule="nonzero" fill-opacity="1" /><path clip-path="url(#clip850)" d="M1387.6 1517.37 Q1383.99 1517.37 1382.16 1520.93 Q1380.36 1524.47 1380.36 1531.6 Q1380.36 1538.71 1382.16 1542.27 Q1383.99 1545.82 1387.6 1545.82 Q1391.23 1545.82 1393.04 1542.27 Q1394.87 1538.71 1394.87 1531.6 Q1394.87 1524.47 1393.04 1520.93 Q1391.23 1517.37 1387.6 1517.37 M1387.6 1513.66 Q1393.41 1513.66 1396.47 1518.27 Q1399.54 1522.85 1399.54 1531.6 Q1399.54 1540.33 1396.47 1544.94 Q1393.41 1549.52 1387.6 1549.52 Q1381.79 1549.52 1378.71 1544.94 Q1375.66 1540.33 1375.66 1531.6 Q1375.66 1522.85 1378.71 1518.27 Q1381.79 1513.66 1387.6 1513.66 Z" fill="#000000" fill-rule="nonzero" fill-opacity="1" /><path clip-path="url(#clip850)" d="M1407.76 1542.97 L1412.65 1542.97 L1412.65 1548.85 L1407.76 1548.85 L1407.76 1542.97 Z" fill="#000000" fill-rule="nonzero" fill-opacity="1" /><path clip-path="url(#clip850)" d="M1422.88 1514.29 L1441.23 1514.29 L1441.23 1518.22 L1427.16 1518.22 L1427.16 1526.7 Q1428.18 1526.35 1429.2 1526.19 Q1430.22 1526 1431.23 1526 Q1437.02 1526 1440.4 1529.17 Q1443.78 1532.34 1443.78 1537.76 Q1443.78 1543.34 1440.31 1546.44 Q1436.84 1549.52 1430.52 1549.52 Q1428.34 1549.52 1426.07 1549.15 Q1423.83 1548.78 1421.42 1548.04 L1421.42 1543.34 Q1423.5 1544.47 1425.73 1545.03 Q1427.95 1545.58 1430.42 1545.58 Q1434.43 1545.58 1436.77 1543.48 Q1439.1 1541.37 1439.1 1537.76 Q1439.1 1534.15 1436.77 1532.04 Q1434.43 1529.94 1430.42 1529.94 Q1428.55 1529.94 1426.67 1530.35 Q1424.82 1530.77 1422.88 1531.65 L1422.88 1514.29 Z" fill="#000000" fill-rule="nonzero" fill-opacity="1" /><path clip-path="url(#clip850)" d="M1729.09 1544.91 L1736.73 1544.91 L1736.73 1518.55 L1728.42 1520.21 L1728.42 1515.95 L1736.68 1514.29 L1741.36 1514.29 L1741.36 1544.91 L1749 1544.91 L1749 1548.85 L1729.09 1548.85 L1729.09 1544.91 Z" fill="#000000" fill-rule="nonzero" fill-opacity="1" /><path clip-path="url(#clip850)" d="M1758.44 1542.97 L1763.33 1542.97 L1763.33 1548.85 L1758.44 1548.85 L1758.44 1542.97 Z" fill="#000000" fill-rule="nonzero" fill-opacity="1" /><path clip-path="url(#clip850)" d="M1783.51 1517.37 Q1779.9 1517.37 1778.07 1520.93 Q1776.27 1524.47 1776.27 1531.6 Q1776.27 1538.71 1778.07 1542.27 Q1779.9 1545.82 1783.51 1545.82 Q1787.15 1545.82 1788.95 1542.27 Q1790.78 1538.71 1790.78 1531.6 Q1790.78 1524.47 1788.95 1520.93 Q1787.15 1517.37 1783.51 1517.37 M1783.51 1513.66 Q1789.32 1513.66 1792.38 1518.27 Q1795.46 1522.85 1795.46 1531.6 Q1795.46 1540.33 1792.38 1544.94 Q1789.32 1549.52 1783.51 1549.52 Q1777.7 1549.52 1774.62 1544.94 Q1771.57 1540.33 1771.57 1531.6 Q1771.57 1522.85 1774.62 1518.27 Q1777.7 1513.66 1783.51 1513.66 Z" fill="#000000" fill-rule="nonzero" fill-opacity="1" /><path clip-path="url(#clip850)" d="M2081.81 1544.91 L2089.45 1544.91 L2089.45 1518.55 L2081.14 1520.21 L2081.14 1515.95 L2089.4 1514.29 L2094.08 1514.29 L2094.08 1544.91 L2101.72 1544.91 L2101.72 1548.85 L2081.81 1548.85 L2081.81 1544.91 Z" fill="#000000" fill-rule="nonzero" fill-opacity="1" /><path clip-path="url(#clip850)" d="M2111.16 1542.97 L2116.05 1542.97 L2116.05 1548.85 L2111.16 1548.85 L2111.16 1542.97 Z" fill="#000000" fill-rule="nonzero" fill-opacity="1" /><path clip-path="url(#clip850)" d="M2126.28 1514.29 L2144.63 1514.29 L2144.63 1518.22 L2130.56 1518.22 L2130.56 1526.7 Q2131.58 1526.35 2132.6 1526.19 Q2133.62 1526 2134.63 1526 Q2140.42 1526 2143.8 1529.17 Q2147.18 1532.34 2147.18 1537.76 Q2147.18 1543.34 2143.71 1546.44 Q2140.24 1549.52 2133.92 1549.52 Q2131.74 1549.52 2129.47 1549.15 Q2127.23 1548.78 2124.82 1548.04 L2124.82 1543.34 Q2126.9 1544.47 2129.13 1545.03 Q2131.35 1545.58 2133.82 1545.58 Q2137.83 1545.58 2140.17 1543.48 Q2142.51 1541.37 2142.51 1537.76 Q2142.51 1534.15 2140.17 1532.04 Q2137.83 1529.94 2133.82 1529.94 Q2131.95 1529.94 2130.07 1530.35 Q2128.22 1530.77 2126.28 1531.65 L2126.28 1514.29 Z" fill="#000000" fill-rule="nonzero" fill-opacity="1" /><polyline clip-path="url(#clip852)" style="stroke:#000000; stroke-linecap:round; stroke-linejoin:round; stroke-width:2; stroke-opacity:0.1; fill:none" points="147.478,1160.07 2352.76,1160.07 "/>
<polyline clip-path="url(#clip852)" style="stroke:#000000; stroke-linecap:round; stroke-linejoin:round; stroke-width:2; stroke-opacity:0.1; fill:none" points="147.478,811.074 2352.76,811.074 "/>
<polyline clip-path="url(#clip852)" style="stroke:#000000; stroke-linecap:round; stroke-linejoin:round; stroke-width:2; stroke-opacity:0.1; fill:none" points="147.478,462.08 2352.76,462.08 "/>
<polyline clip-path="url(#clip852)" style="stroke:#000000; stroke-linecap:round; stroke-linejoin:round; stroke-width:2; stroke-opacity:0.1; fill:none" points="147.478,113.085 2352.76,113.085 "/>
<polyline clip-path="url(#clip850)" style="stroke:#000000; stroke-linecap:round; stroke-linejoin:round; stroke-width:4; stroke-opacity:1; fill:none" points="147.478,1486.45 147.478,47.2441 "/>
<polyline clip-path="url(#clip850)" style="stroke:#000000; stroke-linecap:round; stroke-linejoin:round; stroke-width:4; stroke-opacity:1; fill:none" points="147.478,1160.07 166.376,1160.07 "/>
<polyline clip-path="url(#clip850)" style="stroke:#000000; stroke-linecap:round; stroke-linejoin:round; stroke-width:4; stroke-opacity:1; fill:none" points="147.478,811.074 166.376,811.074 "/>
<polyline clip-path="url(#clip850)" style="stroke:#000000; stroke-linecap:round; stroke-linejoin:round; stroke-width:4; stroke-opacity:1; fill:none" points="147.478,462.08 166.376,462.08 "/>
<polyline clip-path="url(#clip850)" style="stroke:#000000; stroke-linecap:round; stroke-linejoin:round; stroke-width:4; stroke-opacity:1; fill:none" points="147.478,113.085 166.376,113.085 "/>
<path clip-path="url(#clip850)" d="M50.9921 1160.52 L80.6679 1160.52 L80.6679 1164.45 L50.9921 1164.45 L50.9921 1160.52 Z" fill="#000000" fill-rule="nonzero" fill-opacity="1" /><path clip-path="url(#clip850)" d="M91.5706 1173.41 L99.2095 1173.41 L99.2095 1147.05 L90.8993 1148.71 L90.8993 1144.46 L99.1632 1142.79 L103.839 1142.79 L103.839 1173.41 L111.478 1173.41 L111.478 1177.35 L91.5706 1177.35 L91.5706 1173.41 Z" fill="#000000" fill-rule="nonzero" fill-opacity="1" /><path clip-path="url(#clip850)" d="M99.5335 796.873 Q95.9224 796.873 94.0937 800.438 Q92.2882 803.979 92.2882 811.109 Q92.2882 818.215 94.0937 821.78 Q95.9224 825.322 99.5335 825.322 Q103.168 825.322 104.973 821.78 Q106.802 818.215 106.802 811.109 Q106.802 803.979 104.973 800.438 Q103.168 796.873 99.5335 796.873 M99.5335 793.169 Q105.344 793.169 108.399 797.776 Q111.478 802.359 111.478 811.109 Q111.478 819.836 108.399 824.442 Q105.344 829.025 99.5335 829.025 Q93.7234 829.025 90.6447 824.442 Q87.5892 819.836 87.5892 811.109 Q87.5892 802.359 90.6447 797.776 Q93.7234 793.169 99.5335 793.169 Z" fill="#000000" fill-rule="nonzero" fill-opacity="1" /><path clip-path="url(#clip850)" d="M91.5706 475.425 L99.2095 475.425 L99.2095 449.059 L90.8993 450.726 L90.8993 446.466 L99.1632 444.8 L103.839 444.8 L103.839 475.425 L111.478 475.425 L111.478 479.36 L91.5706 479.36 L91.5706 475.425 Z" fill="#000000" fill-rule="nonzero" fill-opacity="1" /><path clip-path="url(#clip850)" d="M95.1586 126.43 L111.478 126.43 L111.478 130.365 L89.5336 130.365 L89.5336 126.43 Q92.1956 123.676 96.7789 119.046 Q101.385 114.393 102.566 113.051 Q104.811 110.528 105.691 108.792 Q106.594 107.032 106.594 105.342 Q106.594 102.588 104.649 100.852 Q102.728 99.1157 99.6261 99.1157 Q97.4271 99.1157 94.9734 99.8795 Q92.5428 100.643 89.7651 102.194 L89.7651 97.4721 Q92.5891 96.3379 95.0428 95.7592 Q97.4965 95.1805 99.5335 95.1805 Q104.904 95.1805 108.098 97.8657 Q111.293 100.551 111.293 105.042 Q111.293 107.171 110.483 109.092 Q109.696 110.991 107.589 113.583 Q107.01 114.254 103.909 117.472 Q100.807 120.666 95.1586 126.43 Z" fill="#000000" fill-rule="nonzero" fill-opacity="1" /><circle clip-path="url(#clip852)" cx="1244.57" cy="1240.66" r="14.4" fill="#009af9" fill-rule="evenodd" fill-opacity="0.5" stroke="#000000" stroke-opacity="0.5" stroke-width="3.2"/>
<circle clip-path="url(#clip852)" cx="733.667" cy="785.005" r="14.4" fill="#009af9" fill-rule="evenodd" fill-opacity="0.5" stroke="#000000" stroke-opacity="0.5" stroke-width="3.2"/>
<circle clip-path="url(#clip852)" cx="353.265" cy="1176.13" r="14.4" fill="#009af9" fill-rule="evenodd" fill-opacity="0.5" stroke="#000000" stroke-opacity="0.5" stroke-width="3.2"/>
<circle clip-path="url(#clip852)" cx="209.891" cy="343.811" r="14.4" fill="#009af9" fill-rule="evenodd" fill-opacity="0.5" stroke="#000000" stroke-opacity="0.5" stroke-width="3.2"/>
<circle clip-path="url(#clip852)" cx="536.552" cy="497.076" r="14.4" fill="#009af9" fill-rule="evenodd" fill-opacity="0.5" stroke="#000000" stroke-opacity="0.5" stroke-width="3.2"/>
<circle clip-path="url(#clip852)" cx="1452.87" cy="569.596" r="14.4" fill="#009af9" fill-rule="evenodd" fill-opacity="0.5" stroke="#000000" stroke-opacity="0.5" stroke-width="3.2"/>
<circle clip-path="url(#clip852)" cx="1732.58" cy="774.965" r="14.4" fill="#009af9" fill-rule="evenodd" fill-opacity="0.5" stroke="#000000" stroke-opacity="0.5" stroke-width="3.2"/>
<circle clip-path="url(#clip852)" cx="1091.5" cy="882.637" r="14.4" fill="#009af9" fill-rule="evenodd" fill-opacity="0.5" stroke="#000000" stroke-opacity="0.5" stroke-width="3.2"/>
<circle clip-path="url(#clip852)" cx="352.306" cy="1314.7" r="14.4" fill="#009af9" fill-rule="evenodd" fill-opacity="0.5" stroke="#000000" stroke-opacity="0.5" stroke-width="3.2"/>
<circle clip-path="url(#clip852)" cx="1303.09" cy="965.692" r="14.4" fill="#009af9" fill-rule="evenodd" fill-opacity="0.5" stroke="#000000" stroke-opacity="0.5" stroke-width="3.2"/>
<circle clip-path="url(#clip852)" cx="939.907" cy="793.197" r="14.4" fill="#009af9" fill-rule="evenodd" fill-opacity="0.5" stroke="#000000" stroke-opacity="0.5" stroke-width="3.2"/>
<circle clip-path="url(#clip852)" cx="596.212" cy="916.052" r="14.4" fill="#009af9" fill-rule="evenodd" fill-opacity="0.5" stroke="#000000" stroke-opacity="0.5" stroke-width="3.2"/>
<circle clip-path="url(#clip852)" cx="2290.34" cy="688.978" r="14.4" fill="#009af9" fill-rule="evenodd" fill-opacity="0.5" stroke="#000000" stroke-opacity="0.5" stroke-width="3.2"/>
<circle clip-path="url(#clip852)" cx="2034.4" cy="1292.09" r="14.4" fill="#009af9" fill-rule="evenodd" fill-opacity="0.5" stroke="#000000" stroke-opacity="0.5" stroke-width="3.2"/>
<circle clip-path="url(#clip852)" cx="1173.97" cy="87.9763" r="14.4" fill="#009af9" fill-rule="evenodd" fill-opacity="0.5" stroke="#000000" stroke-opacity="0.5" stroke-width="3.2"/>
<circle clip-path="url(#clip852)" cx="1684.48" cy="1202.59" r="14.4" fill="#009af9" fill-rule="evenodd" fill-opacity="0.5" stroke="#000000" stroke-opacity="0.5" stroke-width="3.2"/>
<circle clip-path="url(#clip852)" cx="1500.27" cy="872.395" r="14.4" fill="#009af9" fill-rule="evenodd" fill-opacity="0.5" stroke="#000000" stroke-opacity="0.5" stroke-width="3.2"/>
<circle clip-path="url(#clip852)" cx="1542.22" cy="525.272" r="14.4" fill="#009af9" fill-rule="evenodd" fill-opacity="0.5" stroke="#000000" stroke-opacity="0.5" stroke-width="3.2"/>
<circle clip-path="url(#clip852)" cx="330.869" cy="659.734" r="14.4" fill="#009af9" fill-rule="evenodd" fill-opacity="0.5" stroke="#000000" stroke-opacity="0.5" stroke-width="3.2"/>
<circle clip-path="url(#clip852)" cx="1820.51" cy="669.705" r="14.4" fill="#009af9" fill-rule="evenodd" fill-opacity="0.5" stroke="#000000" stroke-opacity="0.5" stroke-width="3.2"/>
<circle clip-path="url(#clip852)" cx="1172.08" cy="767.915" r="14.4" fill="#009af9" fill-rule="evenodd" fill-opacity="0.5" stroke="#000000" stroke-opacity="0.5" stroke-width="3.2"/>
<circle clip-path="url(#clip852)" cx="698.558" cy="1445.72" r="14.4" fill="#009af9" fill-rule="evenodd" fill-opacity="0.5" stroke="#000000" stroke-opacity="0.5" stroke-width="3.2"/>
<circle clip-path="url(#clip852)" cx="696.92" cy="1063.54" r="14.4" fill="#009af9" fill-rule="evenodd" fill-opacity="0.5" stroke="#000000" stroke-opacity="0.5" stroke-width="3.2"/>
<circle clip-path="url(#clip852)" cx="1869.71" cy="735.296" r="14.4" fill="#009af9" fill-rule="evenodd" fill-opacity="0.5" stroke="#000000" stroke-opacity="0.5" stroke-width="3.2"/>
<circle clip-path="url(#clip852)" cx="1772.69" cy="769.809" r="14.4" fill="#009af9" fill-rule="evenodd" fill-opacity="0.5" stroke="#000000" stroke-opacity="0.5" stroke-width="3.2"/>
<circle clip-path="url(#clip852)" cx="1621.52" cy="892.284" r="14.4" fill="#009af9" fill-rule="evenodd" fill-opacity="0.5" stroke="#000000" stroke-opacity="0.5" stroke-width="3.2"/>
<circle clip-path="url(#clip852)" cx="1136.8" cy="449.528" r="14.4" fill="#009af9" fill-rule="evenodd" fill-opacity="0.5" stroke="#000000" stroke-opacity="0.5" stroke-width="3.2"/>
<circle clip-path="url(#clip852)" cx="1075.95" cy="1239.39" r="14.4" fill="#009af9" fill-rule="evenodd" fill-opacity="0.5" stroke="#000000" stroke-opacity="0.5" stroke-width="3.2"/>
<circle clip-path="url(#clip852)" cx="1095.94" cy="1140.25" r="14.4" fill="#009af9" fill-rule="evenodd" fill-opacity="0.5" stroke="#000000" stroke-opacity="0.5" stroke-width="3.2"/>
<circle clip-path="url(#clip852)" cx="1322.13" cy="1038.52" r="14.4" fill="#009af9" fill-rule="evenodd" fill-opacity="0.5" stroke="#000000" stroke-opacity="0.5" stroke-width="3.2"/>
<path clip-path="url(#clip852)" d="M209.891 343.811 L352.306 1314.7 L698.558 1445.72 L2034.4 1292.09 L2290.34 688.978 L1173.97 87.9763 L209.891 343.811 L209.891 343.811  Z" fill="#e26f46" fill-rule="evenodd" fill-opacity="0.2"/>
<polyline clip-path="url(#clip852)" style="stroke:#000000; stroke-linecap:round; stroke-linejoin:round; stroke-width:4; stroke-opacity:0.2; fill:none" points="209.891,343.811 352.306,1314.7 698.558,1445.72 2034.4,1292.09 2290.34,688.978 1173.97,87.9763 209.891,343.811 "/>
</svg>
