<?xml version="1.0" encoding="utf-8"?>
<svg xmlns="http://www.w3.org/2000/svg" xmlns:xlink="http://www.w3.org/1999/xlink" width="600" height="400" viewBox="0 0 2400 1600">
<defs>
  <clipPath id="clip490">
    <rect x="0" y="0" width="2400" height="1600"/>
  </clipPath>
</defs>
<path clip-path="url(#clip490)" d="M0 1600 L2400 1600 L2400 0 L0 0  Z" fill="#ffffff" fill-rule="evenodd" fill-opacity="1"/>
<defs>
  <clipPath id="clip491">
    <rect x="480" y="0" width="1681" height="1600"/>
  </clipPath>
</defs>
<path clip-path="url(#clip490)" d="M147.478 1486.45 L2352.76 1486.45 L2352.76 47.2441 L147.478 47.2441  Z" fill="#ffffff" fill-rule="evenodd" fill-opacity="1"/>
<defs>
  <clipPath id="clip492">
    <rect x="147" y="47" width="2206" height="1440"/>
  </clipPath>
</defs>
<polyline clip-path="url(#clip492)" style="stroke:#000000; stroke-linecap:round; stroke-linejoin:round; stroke-width:2; stroke-opacity:0.1; fill:none" points="200.936,1486.45 200.936,47.2441 "/>
<polyline clip-path="url(#clip492)" style="stroke:#000000; stroke-linecap:round; stroke-linejoin:round; stroke-width:2; stroke-opacity:0.1; fill:none" points="581.034,1486.45 581.034,47.2441 "/>
<polyline clip-path="url(#clip492)" style="stroke:#000000; stroke-linecap:round; stroke-linejoin:round; stroke-width:2; stroke-opacity:0.1; fill:none" points="961.133,1486.45 961.133,47.2441 "/>
<polyline clip-path="url(#clip492)" style="stroke:#000000; stroke-linecap:round; stroke-linejoin:round; stroke-width:2; stroke-opacity:0.1; fill:none" points="1341.23,1486.45 1341.23,47.2441 "/>
<polyline clip-path="url(#clip492)" style="stroke:#000000; stroke-linecap:round; stroke-linejoin:round; stroke-width:2; stroke-opacity:0.1; fill:none" points="1721.33,1486.45 1721.33,47.2441 "/>
<polyline clip-path="url(#clip492)" style="stroke:#000000; stroke-linecap:round; stroke-linejoin:round; stroke-width:2; stroke-opacity:0.1; fill:none" points="2101.43,1486.45 2101.43,47.2441 "/>
<polyline clip-path="url(#clip490)" style="stroke:#000000; stroke-linecap:round; stroke-linejoin:round; stroke-width:4; stroke-opacity:1; fill:none" points="147.478,1486.45 2352.76,1486.45 "/>
<polyline clip-path="url(#clip490)" style="stroke:#000000; stroke-linecap:round; stroke-linejoin:round; stroke-width:4; stroke-opacity:1; fill:none" points="200.936,1486.45 200.936,1467.55 "/>
<polyline clip-path="url(#clip490)" style="stroke:#000000; stroke-linecap:round; stroke-linejoin:round; stroke-width:4; stroke-opacity:1; fill:none" points="581.034,1486.45 581.034,1467.55 "/>
<polyline clip-path="url(#clip490)" style="stroke:#000000; stroke-linecap:round; stroke-linejoin:round; stroke-width:4; stroke-opacity:1; fill:none" points="961.133,1486.45 961.133,1467.55 "/>
<polyline clip-path="url(#clip490)" style="stroke:#000000; stroke-linecap:round; stroke-linejoin:round; stroke-width:4; stroke-opacity:1; fill:none" points="1341.23,1486.45 1341.23,1467.55 "/>
<polyline clip-path="url(#clip490)" style="stroke:#000000; stroke-linecap:round; stroke-linejoin:round; stroke-width:4; stroke-opacity:1; fill:none" points="1721.33,1486.45 1721.33,1467.55 "/>
<polyline clip-path="url(#clip490)" style="stroke:#000000; stroke-linecap:round; stroke-linejoin:round; stroke-width:4; stroke-opacity:1; fill:none" points="2101.43,1486.45 2101.43,1467.55 "/>
<path clip-path="url(#clip490)" d="M147.962 1532.02 L177.637 1532.02 L177.637 1535.95 L147.962 1535.95 L147.962 1532.02 Z" fill="#000000" fill-rule="nonzero" fill-opacity="1" /><path clip-path="url(#clip490)" d="M188.54 1544.91 L196.179 1544.91 L196.179 1518.55 L187.869 1520.21 L187.869 1515.95 L196.133 1514.29 L200.809 1514.29 L200.809 1544.91 L208.448 1544.91 L208.448 1548.85 L188.54 1548.85 L188.54 1544.91 Z" fill="#000000" fill-rule="nonzero" fill-opacity="1" /><path clip-path="url(#clip490)" d="M217.892 1542.97 L222.776 1542.97 L222.776 1548.85 L217.892 1548.85 L217.892 1542.97 Z" fill="#000000" fill-rule="nonzero" fill-opacity="1" /><path clip-path="url(#clip490)" d="M233.008 1514.29 L251.364 1514.29 L251.364 1518.22 L237.29 1518.22 L237.29 1526.7 Q238.308 1526.35 239.327 1526.19 Q240.345 1526 241.364 1526 Q247.151 1526 250.531 1529.17 Q253.91 1532.34 253.91 1537.76 Q253.91 1543.34 250.438 1546.44 Q246.966 1549.52 240.646 1549.52 Q238.47 1549.52 236.202 1549.15 Q233.957 1548.78 231.549 1548.04 L231.549 1543.34 Q233.633 1544.47 235.855 1545.03 Q238.077 1545.58 240.554 1545.58 Q244.558 1545.58 246.896 1543.48 Q249.234 1541.37 249.234 1537.76 Q249.234 1534.15 246.896 1532.04 Q244.558 1529.94 240.554 1529.94 Q238.679 1529.94 236.804 1530.35 Q234.952 1530.77 233.008 1531.65 L233.008 1514.29 Z" fill="#000000" fill-rule="nonzero" fill-opacity="1" /><path clip-path="url(#clip490)" d="M527.562 1532.02 L557.238 1532.02 L557.238 1535.95 L527.562 1535.95 L527.562 1532.02 Z" fill="#000000" fill-rule="nonzero" fill-opacity="1" /><path clip-path="url(#clip490)" d="M568.141 1544.91 L575.78 1544.91 L575.78 1518.55 L567.47 1520.21 L567.47 1515.95 L575.734 1514.29 L580.409 1514.29 L580.409 1544.91 L588.048 1544.91 L588.048 1548.85 L568.141 1548.85 L568.141 1544.91 Z" fill="#000000" fill-rule="nonzero" fill-opacity="1" /><path clip-path="url(#clip490)" d="M597.493 1542.97 L602.377 1542.97 L602.377 1548.85 L597.493 1548.85 L597.493 1542.97 Z" fill="#000000" fill-rule="nonzero" fill-opacity="1" /><path clip-path="url(#clip490)" d="M622.562 1517.37 Q618.951 1517.37 617.122 1520.93 Q615.317 1524.47 615.317 1531.6 Q615.317 1538.71 617.122 1542.27 Q618.951 1545.82 622.562 1545.82 Q626.196 1545.82 628.002 1542.27 Q629.83 1538.71 629.83 1531.6 Q629.83 1524.47 628.002 1520.93 Q626.196 1517.37 622.562 1517.37 M622.562 1513.66 Q628.372 1513.66 631.428 1518.27 Q634.506 1522.85 634.506 1531.6 Q634.506 1540.33 631.428 1544.94 Q628.372 1549.52 622.562 1549.52 Q616.752 1549.52 613.673 1544.94 Q610.618 1540.33 610.618 1531.6 Q610.618 1522.85 613.673 1518.27 Q616.752 1513.66 622.562 1513.66 Z" fill="#000000" fill-rule="nonzero" fill-opacity="1" /><path clip-path="url(#clip490)" d="M908.159 1532.02 L937.834 1532.02 L937.834 1535.95 L908.159 1535.95 L908.159 1532.02 Z" fill="#000000" fill-rule="nonzero" fill-opacity="1" /><path clip-path="url(#clip490)" d="M957.927 1517.37 Q954.316 1517.37 952.487 1520.93 Q950.682 1524.47 950.682 1531.6 Q950.682 1538.71 952.487 1542.27 Q954.316 1545.82 957.927 1545.82 Q961.561 1545.82 963.367 1542.27 Q965.195 1538.71 965.195 1531.6 Q965.195 1524.47 963.367 1520.93 Q961.561 1517.37 957.927 1517.37 M957.927 1513.66 Q963.737 1513.66 966.793 1518.27 Q969.871 1522.85 969.871 1531.6 Q969.871 1540.33 966.793 1544.94 Q963.737 1549.52 957.927 1549.52 Q952.117 1549.52 949.038 1544.94 Q945.982 1540.33 945.982 1531.6 Q945.982 1522.85 949.038 1518.27 Q952.117 1513.66 957.927 1513.66 Z" fill="#000000" fill-rule="nonzero" fill-opacity="1" /><path clip-path="url(#clip490)" d="M978.089 1542.97 L982.973 1542.97 L982.973 1548.85 L978.089 1548.85 L978.089 1542.97 Z" fill="#000000" fill-rule="nonzero" fill-opacity="1" /><path clip-path="url(#clip490)" d="M993.204 1514.29 L1011.56 1514.29 L1011.56 1518.22 L997.487 1518.22 L997.487 1526.7 Q998.505 1526.35 999.524 1526.19 Q1000.54 1526 1001.56 1526 Q1007.35 1526 1010.73 1529.17 Q1014.11 1532.34 1014.11 1537.76 Q1014.11 1543.34 1010.63 1546.44 Q1007.16 1549.52 1000.84 1549.52 Q998.667 1549.52 996.399 1549.15 Q994.154 1548.78 991.746 1548.04 L991.746 1543.34 Q993.829 1544.47 996.052 1545.03 Q998.274 1545.58 1000.75 1545.58 Q1004.76 1545.58 1007.09 1543.48 Q1009.43 1541.37 1009.43 1537.76 Q1009.43 1534.15 1007.09 1532.04 Q1004.76 1529.94 1000.75 1529.94 Q998.876 1529.94 997.001 1530.35 Q995.149 1530.77 993.204 1531.65 L993.204 1514.29 Z" fill="#000000" fill-rule="nonzero" fill-opacity="1" /><path clip-path="url(#clip490)" d="M1318.62 1517.37 Q1315 1517.37 1313.18 1520.93 Q1311.37 1524.47 1311.37 1531.6 Q1311.37 1538.71 1313.18 1542.27 Q1315 1545.82 1318.62 1545.82 Q1322.25 1545.82 1324.06 1542.27 Q1325.88 1538.71 1325.88 1531.6 Q1325.88 1524.47 1324.06 1520.93 Q1322.25 1517.37 1318.62 1517.37 M1318.62 1513.66 Q1324.43 1513.66 1327.48 1518.27 Q1330.56 1522.85 1330.56 1531.6 Q1330.56 1540.33 1327.48 1544.94 Q1324.43 1549.52 1318.62 1549.52 Q1312.81 1549.52 1309.73 1544.94 Q1306.67 1540.33 1306.67 1531.6 Q1306.67 1522.85 1309.73 1518.27 Q1312.81 1513.66 1318.62 1513.66 Z" fill="#000000" fill-rule="nonzero" fill-opacity="1" /><path clip-path="url(#clip490)" d="M1338.78 1542.97 L1343.66 1542.97 L1343.66 1548.85 L1338.78 1548.85 L1338.78 1542.97 Z" fill="#000000" fill-rule="nonzero" fill-opacity="1" /><path clip-path="url(#clip490)" d="M1363.85 1517.37 Q1360.24 1517.37 1358.41 1520.93 Q1356.6 1524.47 1356.6 1531.6 Q1356.6 1538.71 1358.41 1542.27 Q1360.24 1545.82 1363.85 1545.82 Q1367.48 1545.82 1369.29 1542.27 Q1371.12 1538.71 1371.12 1531.6 Q1371.12 1524.47 1369.29 1520.93 Q1367.48 1517.37 1363.85 1517.37 M1363.85 1513.66 Q1369.66 1513.66 1372.71 1518.27 Q1375.79 1522.85 1375.79 1531.6 Q1375.79 1540.33 1372.71 1544.94 Q1369.66 1549.52 1363.85 1549.52 Q1358.04 1549.52 1354.96 1544.94 Q1351.9 1540.33 1351.9 1531.6 Q1351.9 1522.85 1354.96 1518.27 Q1358.04 1513.66 1363.85 1513.66 Z" fill="#000000" fill-rule="nonzero" fill-opacity="1" /><path clip-path="url(#clip490)" d="M1699.21 1517.37 Q1695.6 1517.37 1693.77 1520.93 Q1691.97 1524.47 1691.97 1531.6 Q1691.97 1538.71 1693.77 1542.27 Q1695.6 1545.82 1699.21 1545.82 Q1702.85 1545.82 1704.65 1542.27 Q1706.48 1538.71 1706.48 1531.6 Q1706.48 1524.47 1704.65 1520.93 Q1702.85 1517.37 1699.21 1517.37 M1699.21 1513.66 Q1705.02 1513.66 1708.08 1518.27 Q1711.16 1522.85 1711.16 1531.6 Q1711.16 1540.33 1708.08 1544.94 Q1705.02 1549.52 1699.21 1549.52 Q1693.4 1549.52 1690.32 1544.94 Q1687.27 1540.33 1687.27 1531.6 Q1687.27 1522.85 1690.32 1518.27 Q1693.4 1513.66 1699.21 1513.66 Z" fill="#000000" fill-rule="nonzero" fill-opacity="1" /><path clip-path="url(#clip490)" d="M1719.37 1542.97 L1724.26 1542.97 L1724.26 1548.85 L1719.37 1548.85 L1719.37 1542.97 Z" fill="#000000" fill-rule="nonzero" fill-opacity="1" /><path clip-path="url(#clip490)" d="M1734.49 1514.29 L1752.85 1514.29 L1752.85 1518.22 L1738.77 1518.22 L1738.77 1526.7 Q1739.79 1526.35 1740.81 1526.19 Q1741.83 1526 1742.85 1526 Q1748.63 1526 1752.01 1529.17 Q1755.39 1532.34 1755.39 1537.76 Q1755.39 1543.34 1751.92 1546.44 Q1748.45 1549.52 1742.13 1549.52 Q1739.95 1549.52 1737.68 1549.15 Q1735.44 1548.78 1733.03 1548.04 L1733.03 1543.34 Q1735.11 1544.47 1737.34 1545.03 Q1739.56 1545.58 1742.04 1545.58 Q1746.04 1545.58 1748.38 1543.48 Q1750.72 1541.37 1750.72 1537.76 Q1750.72 1534.15 1748.38 1532.04 Q1746.04 1529.94 1742.04 1529.94 Q1740.16 1529.94 1738.29 1530.35 Q1736.43 1530.77 1734.49 1531.65 L1734.49 1514.29 Z" fill="#000000" fill-rule="nonzero" fill-opacity="1" /><path clip-path="url(#clip490)" d="M2068.58 1544.91 L2076.22 1544.91 L2076.22 1518.55 L2067.91 1520.21 L2067.91 1515.95 L2076.17 1514.29 L2080.85 1514.29 L2080.85 1544.91 L2088.49 1544.91 L2088.49 1548.85 L2068.58 1548.85 L2068.58 1544.91 Z" fill="#000000" fill-rule="nonzero" fill-opacity="1" /><path clip-path="url(#clip490)" d="M2097.93 1542.97 L2102.82 1542.97 L2102.82 1548.85 L2097.93 1548.85 L2097.93 1542.97 Z" fill="#000000" fill-rule="nonzero" fill-opacity="1" /><path clip-path="url(#clip490)" d="M2123 1517.37 Q2119.39 1517.37 2117.56 1520.93 Q2115.76 1524.47 2115.76 1531.6 Q2115.76 1538.71 2117.56 1542.27 Q2119.39 1545.82 2123 1545.82 Q2126.64 1545.82 2128.44 1542.27 Q2130.27 1538.71 2130.27 1531.6 Q2130.27 1524.47 2128.44 1520.93 Q2126.64 1517.37 2123 1517.37 M2123 1513.66 Q2128.81 1513.66 2131.87 1518.27 Q2134.95 1522.85 2134.95 1531.6 Q2134.95 1540.33 2131.87 1544.94 Q2128.81 1549.52 2123 1549.52 Q2117.19 1549.52 2114.11 1544.94 Q2111.06 1540.33 2111.06 1531.6 Q2111.06 1522.85 2114.11 1518.27 Q2117.19 1513.66 2123 1513.66 Z" fill="#000000" fill-rule="nonzero" fill-opacity="1" /><polyline clip-path="url(#clip492)" style="stroke:#000000; stroke-linecap:round; stroke-linejoin:round; stroke-width:2; stroke-opacity:0.1; fill:none" points="147.478,1478.29 2352.76,1478.29 "/>
<polyline clip-path="url(#clip492)" style="stroke:#000000; stroke-linecap:round; stroke-linejoin:round; stroke-width:2; stroke-opacity:0.1; fill:none" points="147.478,1161.75 2352.76,1161.75 "/>
<polyline clip-path="url(#clip492)" style="stroke:#000000; stroke-linecap:round; stroke-linejoin:round; stroke-width:2; stroke-opacity:0.1; fill:none" points="147.478,845.214 2352.76,845.214 "/>
<polyline clip-path="url(#clip492)" style="stroke:#000000; stroke-linecap:round; stroke-linejoin:round; stroke-width:2; stroke-opacity:0.1; fill:none" points="147.478,528.678 2352.76,528.678 "/>
<polyline clip-path="url(#clip492)" style="stroke:#000000; stroke-linecap:round; stroke-linejoin:round; stroke-width:2; stroke-opacity:0.1; fill:none" points="147.478,212.142 2352.76,212.142 "/>
<polyline clip-path="url(#clip490)" style="stroke:#000000; stroke-linecap:round; stroke-linejoin:round; stroke-width:4; stroke-opacity:1; fill:none" points="147.478,1486.45 147.478,47.2441 "/>
<polyline clip-path="url(#clip490)" style="stroke:#000000; stroke-linecap:round; stroke-linejoin:round; stroke-width:4; stroke-opacity:1; fill:none" points="147.478,1478.29 166.376,1478.29 "/>
<polyline clip-path="url(#clip490)" style="stroke:#000000; stroke-linecap:round; stroke-linejoin:round; stroke-width:4; stroke-opacity:1; fill:none" points="147.478,1161.75 166.376,1161.75 "/>
<polyline clip-path="url(#clip490)" style="stroke:#000000; stroke-linecap:round; stroke-linejoin:round; stroke-width:4; stroke-opacity:1; fill:none" points="147.478,845.214 166.376,845.214 "/>
<polyline clip-path="url(#clip490)" style="stroke:#000000; stroke-linecap:round; stroke-linejoin:round; stroke-width:4; stroke-opacity:1; fill:none" points="147.478,528.678 166.376,528.678 "/>
<polyline clip-path="url(#clip490)" style="stroke:#000000; stroke-linecap:round; stroke-linejoin:round; stroke-width:4; stroke-opacity:1; fill:none" points="147.478,212.142 166.376,212.142 "/>
<path clip-path="url(#clip490)" d="M51.3625 1478.74 L81.0383 1478.74 L81.0383 1482.67 L51.3625 1482.67 L51.3625 1478.74 Z" fill="#000000" fill-rule="nonzero" fill-opacity="1" /><path clip-path="url(#clip490)" d="M95.1586 1491.63 L111.478 1491.63 L111.478 1495.57 L89.5336 1495.57 L89.5336 1491.63 Q92.1956 1488.88 96.7789 1484.25 Q101.385 1479.59 102.566 1478.25 Q104.811 1475.73 105.691 1473.99 Q106.594 1472.23 106.594 1470.54 Q106.594 1467.79 104.649 1466.05 Q102.728 1464.32 99.6261 1464.32 Q97.4271 1464.32 94.9734 1465.08 Q92.5428 1465.84 89.7651 1467.39 L89.7651 1462.67 Q92.5891 1461.54 95.0428 1460.96 Q97.4965 1460.38 99.5335 1460.38 Q104.904 1460.38 108.098 1463.07 Q111.293 1465.75 111.293 1470.24 Q111.293 1472.37 110.483 1474.29 Q109.696 1476.19 107.589 1478.78 Q107.01 1479.45 103.909 1482.67 Q100.807 1485.87 95.1586 1491.63 Z" fill="#000000" fill-rule="nonzero" fill-opacity="1" /><path clip-path="url(#clip490)" d="M50.9921 1162.2 L80.6679 1162.2 L80.6679 1166.14 L50.9921 1166.14 L50.9921 1162.2 Z" fill="#000000" fill-rule="nonzero" fill-opacity="1" /><path clip-path="url(#clip490)" d="M91.5706 1175.09 L99.2095 1175.09 L99.2095 1148.73 L90.8993 1150.4 L90.8993 1146.14 L99.1632 1144.47 L103.839 1144.47 L103.839 1175.09 L111.478 1175.09 L111.478 1179.03 L91.5706 1179.03 L91.5706 1175.09 Z" fill="#000000" fill-rule="nonzero" fill-opacity="1" /><path clip-path="url(#clip490)" d="M99.5335 831.012 Q95.9224 831.012 94.0937 834.577 Q92.2882 838.119 92.2882 845.248 Q92.2882 852.355 94.0937 855.92 Q95.9224 859.461 99.5335 859.461 Q103.168 859.461 104.973 855.92 Q106.802 852.355 106.802 845.248 Q106.802 838.119 104.973 834.577 Q103.168 831.012 99.5335 831.012 M99.5335 827.309 Q105.344 827.309 108.399 831.915 Q111.478 836.498 111.478 845.248 Q111.478 853.975 108.399 858.582 Q105.344 863.165 99.5335 863.165 Q93.7234 863.165 90.6447 858.582 Q87.5892 853.975 87.5892 845.248 Q87.5892 836.498 90.6447 831.915 Q93.7234 827.309 99.5335 827.309 Z" fill="#000000" fill-rule="nonzero" fill-opacity="1" /><path clip-path="url(#clip490)" d="M91.5706 542.023 L99.2095 542.023 L99.2095 515.657 L90.8993 517.324 L90.8993 513.064 L99.1632 511.398 L103.839 511.398 L103.839 542.023 L111.478 542.023 L111.478 545.958 L91.5706 545.958 L91.5706 542.023 Z" fill="#000000" fill-rule="nonzero" fill-opacity="1" /><path clip-path="url(#clip490)" d="M95.1586 225.487 L111.478 225.487 L111.478 229.422 L89.5336 229.422 L89.5336 225.487 Q92.1956 222.732 96.7789 218.102 Q101.385 213.45 102.566 212.107 Q104.811 209.584 105.691 207.848 Q106.594 206.089 106.594 204.399 Q106.594 201.644 104.649 199.908 Q102.728 198.172 99.6261 198.172 Q97.4271 198.172 94.9734 198.936 Q92.5428 199.7 89.7651 201.251 L89.7651 196.529 Q92.5891 195.394 95.0428 194.816 Q97.4965 194.237 99.5335 194.237 Q104.904 194.237 108.098 196.922 Q111.293 199.607 111.293 204.098 Q111.293 206.228 110.483 208.149 Q109.696 210.047 107.589 212.64 Q107.01 213.311 103.909 216.528 Q100.807 219.723 95.1586 225.487 Z" fill="#000000" fill-rule="nonzero" fill-opacity="1" /><circle clip-path="url(#clip492)" cx="449.086" cy="1080.73" r="14.4" fill="#009af9" fill-rule="evenodd" fill-opacity="0.5" stroke="#000000" stroke-opacity="0.5" stroke-width="3.2"/>
<circle clip-path="url(#clip492)" cx="1339.85" cy="880.613" r="14.4" fill="#009af9" fill-rule="evenodd" fill-opacity="0.5" stroke="#000000" stroke-opacity="0.5" stroke-width="3.2"/>
<circle clip-path="url(#clip492)" cx="1170.2" cy="567.202" r="14.4" fill="#009af9" fill-rule="evenodd" fill-opacity="0.5" stroke="#000000" stroke-opacity="0.5" stroke-width="3.2"/>
<circle clip-path="url(#clip492)" cx="1387.34" cy="423.136" r="14.4" fill="#009af9" fill-rule="evenodd" fill-opacity="0.5" stroke="#000000" stroke-opacity="0.5" stroke-width="3.2"/>
<circle clip-path="url(#clip492)" cx="1391.57" cy="600.888" r="14.4" fill="#009af9" fill-rule="evenodd" fill-opacity="0.5" stroke="#000000" stroke-opacity="0.5" stroke-width="3.2"/>
<circle clip-path="url(#clip492)" cx="209.891" cy="837.638" r="14.4" fill="#009af9" fill-rule="evenodd" fill-opacity="0.5" stroke="#000000" stroke-opacity="0.5" stroke-width="3.2"/>
<circle clip-path="url(#clip492)" cx="2063.49" cy="87.9763" r="14.4" fill="#009af9" fill-rule="evenodd" fill-opacity="0.5" stroke="#000000" stroke-opacity="0.5" stroke-width="3.2"/>
<circle clip-path="url(#clip492)" cx="1416.84" cy="766.636" r="14.4" fill="#009af9" fill-rule="evenodd" fill-opacity="0.5" stroke="#000000" stroke-opacity="0.5" stroke-width="3.2"/>
<circle clip-path="url(#clip492)" cx="719.314" cy="1423.01" r="14.4" fill="#009af9" fill-rule="evenodd" fill-opacity="0.5" stroke="#000000" stroke-opacity="0.5" stroke-width="3.2"/>
<circle clip-path="url(#clip492)" cx="1426.26" cy="1145.78" r="14.4" fill="#009af9" fill-rule="evenodd" fill-opacity="0.5" stroke="#000000" stroke-opacity="0.5" stroke-width="3.2"/>
<circle clip-path="url(#clip492)" cx="941.048" cy="1361.94" r="14.4" fill="#009af9" fill-rule="evenodd" fill-opacity="0.5" stroke="#000000" stroke-opacity="0.5" stroke-width="3.2"/>
<circle clip-path="url(#clip492)" cx="1512.04" cy="1379.57" r="14.4" fill="#009af9" fill-rule="evenodd" fill-opacity="0.5" stroke="#000000" stroke-opacity="0.5" stroke-width="3.2"/>
<circle clip-path="url(#clip492)" cx="1590.47" cy="1327.12" r="14.4" fill="#009af9" fill-rule="evenodd" fill-opacity="0.5" stroke="#000000" stroke-opacity="0.5" stroke-width="3.2"/>
<circle clip-path="url(#clip492)" cx="1133.33" cy="1354.39" r="14.4" fill="#009af9" fill-rule="evenodd" fill-opacity="0.5" stroke="#000000" stroke-opacity="0.5" stroke-width="3.2"/>
<circle clip-path="url(#clip492)" cx="1670.72" cy="353.35" r="14.4" fill="#009af9" fill-rule="evenodd" fill-opacity="0.5" stroke="#000000" stroke-opacity="0.5" stroke-width="3.2"/>
<circle clip-path="url(#clip492)" cx="1575.6" cy="861.203" r="14.4" fill="#009af9" fill-rule="evenodd" fill-opacity="0.5" stroke="#000000" stroke-opacity="0.5" stroke-width="3.2"/>
<circle clip-path="url(#clip492)" cx="948.431" cy="826.745" r="14.4" fill="#009af9" fill-rule="evenodd" fill-opacity="0.5" stroke="#000000" stroke-opacity="0.5" stroke-width="3.2"/>
<circle clip-path="url(#clip492)" cx="1542.39" cy="914.693" r="14.4" fill="#009af9" fill-rule="evenodd" fill-opacity="0.5" stroke="#000000" stroke-opacity="0.5" stroke-width="3.2"/>
<circle clip-path="url(#clip492)" cx="1835.26" cy="1445.72" r="14.4" fill="#009af9" fill-rule="evenodd" fill-opacity="0.5" stroke="#000000" stroke-opacity="0.5" stroke-width="3.2"/>
<circle clip-path="url(#clip492)" cx="1349.89" cy="879.962" r="14.4" fill="#009af9" fill-rule="evenodd" fill-opacity="0.5" stroke="#000000" stroke-opacity="0.5" stroke-width="3.2"/>
<circle clip-path="url(#clip492)" cx="489.772" cy="518.912" r="14.4" fill="#009af9" fill-rule="evenodd" fill-opacity="0.5" stroke="#000000" stroke-opacity="0.5" stroke-width="3.2"/>
<circle clip-path="url(#clip492)" cx="1910.73" cy="673.086" r="14.4" fill="#009af9" fill-rule="evenodd" fill-opacity="0.5" stroke="#000000" stroke-opacity="0.5" stroke-width="3.2"/>
<circle clip-path="url(#clip492)" cx="680.835" cy="537.923" r="14.4" fill="#009af9" fill-rule="evenodd" fill-opacity="0.5" stroke="#000000" stroke-opacity="0.5" stroke-width="3.2"/>
<circle clip-path="url(#clip492)" cx="1159.72" cy="1422.32" r="14.4" fill="#009af9" fill-rule="evenodd" fill-opacity="0.5" stroke="#000000" stroke-opacity="0.5" stroke-width="3.2"/>
<circle clip-path="url(#clip492)" cx="2290.34" cy="673.298" r="14.4" fill="#009af9" fill-rule="evenodd" fill-opacity="0.5" stroke="#000000" stroke-opacity="0.5" stroke-width="3.2"/>
<circle clip-path="url(#clip492)" cx="2094.94" cy="884.867" r="14.4" fill="#009af9" fill-rule="evenodd" fill-opacity="0.5" stroke="#000000" stroke-opacity="0.5" stroke-width="3.2"/>
<circle clip-path="url(#clip492)" cx="2138.37" cy="1224.97" r="14.4" fill="#009af9" fill-rule="evenodd" fill-opacity="0.5" stroke="#000000" stroke-opacity="0.5" stroke-width="3.2"/>
<circle clip-path="url(#clip492)" cx="2045.67" cy="1327.31" r="14.4" fill="#009af9" fill-rule="evenodd" fill-opacity="0.5" stroke="#000000" stroke-opacity="0.5" stroke-width="3.2"/>
<circle clip-path="url(#clip492)" cx="496.03" cy="636.27" r="14.4" fill="#009af9" fill-rule="evenodd" fill-opacity="0.5" stroke="#000000" stroke-opacity="0.5" stroke-width="3.2"/>
<circle clip-path="url(#clip492)" cx="1465.37" cy="830.16" r="14.4" fill="#009af9" fill-rule="evenodd" fill-opacity="0.5" stroke="#000000" stroke-opacity="0.5" stroke-width="3.2"/>
<path clip-path="url(#clip492)" d="M209.891 837.638 L719.314 1423.01 L1835.26 1445.72 L2045.67 1327.31 L2138.37 1224.97 L2290.34 673.298 L2063.49 87.9763 L489.772 518.912 L209.891 837.638 L209.891 837.638  Z" fill="#e26f46" fill-rule="evenodd" fill-opacity="0.2"/>
<polyline clip-path="url(#clip492)" style="stroke:#000000; stroke-linecap:round; stroke-linejoin:round; stroke-width:4; stroke-opacity:0.2; fill:none" points="209.891,837.638 719.314,1423.01 1835.26,1445.72 2045.67,1327.31 2138.37,1224.97 2290.34,673.298 2063.49,87.9763 489.772,518.912 209.891,837.638 "/>
</svg>
