<?xml version="1.0" encoding="utf-8"?>
<svg xmlns="http://www.w3.org/2000/svg" xmlns:xlink="http://www.w3.org/1999/xlink" width="600" height="400" viewBox="0 0 2400 1600">
<defs>
  <clipPath id="clip770">
    <rect x="0" y="0" width="2400" height="1600"/>
  </clipPath>
</defs>
<path clip-path="url(#clip770)" d="M0 1600 L2400 1600 L2400 0 L0 0  Z" fill="#ffffff" fill-rule="evenodd" fill-opacity="1"/>
<defs>
  <clipPath id="clip771">
    <rect x="480" y="0" width="1681" height="1600"/>
  </clipPath>
</defs>
<path clip-path="url(#clip770)" d="M193.936 1486.45 L2352.76 1486.45 L2352.76 47.2441 L193.936 47.2441  Z" fill="#ffffff" fill-rule="evenodd" fill-opacity="1"/>
<defs>
  <clipPath id="clip772">
    <rect x="193" y="47" width="2160" height="1440"/>
  </clipPath>
</defs>
<polyline clip-path="url(#clip772)" style="stroke:#000000; stroke-linecap:round; stroke-linejoin:round; stroke-width:2; stroke-opacity:0.1; fill:none" points="563.995,1486.45 563.995,47.2441 "/>
<polyline clip-path="url(#clip772)" style="stroke:#000000; stroke-linecap:round; stroke-linejoin:round; stroke-width:2; stroke-opacity:0.1; fill:none" points="1034.27,1486.45 1034.27,47.2441 "/>
<polyline clip-path="url(#clip772)" style="stroke:#000000; stroke-linecap:round; stroke-linejoin:round; stroke-width:2; stroke-opacity:0.1; fill:none" points="1504.54,1486.45 1504.54,47.2441 "/>
<polyline clip-path="url(#clip772)" style="stroke:#000000; stroke-linecap:round; stroke-linejoin:round; stroke-width:2; stroke-opacity:0.1; fill:none" points="1974.81,1486.45 1974.81,47.2441 "/>
<polyline clip-path="url(#clip772)" style="stroke:#000000; stroke-linecap:round; stroke-linejoin:round; stroke-width:2; stroke-opacity:0.1; fill:none" points="193.936,1287.27 2352.76,1287.27 "/>
<polyline clip-path="url(#clip772)" style="stroke:#000000; stroke-linecap:round; stroke-linejoin:round; stroke-width:2; stroke-opacity:0.1; fill:none" points="193.936,1076.95 2352.76,1076.95 "/>
<polyline clip-path="url(#clip772)" style="stroke:#000000; stroke-linecap:round; stroke-linejoin:round; stroke-width:2; stroke-opacity:0.1; fill:none" points="193.936,866.635 2352.76,866.635 "/>
<polyline clip-path="url(#clip772)" style="stroke:#000000; stroke-linecap:round; stroke-linejoin:round; stroke-width:2; stroke-opacity:0.1; fill:none" points="193.936,656.314 2352.76,656.314 "/>
<polyline clip-path="url(#clip772)" style="stroke:#000000; stroke-linecap:round; stroke-linejoin:round; stroke-width:2; stroke-opacity:0.1; fill:none" points="193.936,445.994 2352.76,445.994 "/>
<polyline clip-path="url(#clip772)" style="stroke:#000000; stroke-linecap:round; stroke-linejoin:round; stroke-width:2; stroke-opacity:0.1; fill:none" points="193.936,235.674 2352.76,235.674 "/>
<polyline clip-path="url(#clip770)" style="stroke:#000000; stroke-linecap:round; stroke-linejoin:round; stroke-width:4; stroke-opacity:1; fill:none" points="193.936,1486.45 2352.76,1486.45 "/>
<polyline clip-path="url(#clip770)" style="stroke:#000000; stroke-linecap:round; stroke-linejoin:round; stroke-width:4; stroke-opacity:1; fill:none" points="563.995,1486.45 563.995,1467.55 "/>
<polyline clip-path="url(#clip770)" style="stroke:#000000; stroke-linecap:round; stroke-linejoin:round; stroke-width:4; stroke-opacity:1; fill:none" points="1034.27,1486.45 1034.27,1467.55 "/>
<polyline clip-path="url(#clip770)" style="stroke:#000000; stroke-linecap:round; stroke-linejoin:round; stroke-width:4; stroke-opacity:1; fill:none" points="1504.54,1486.45 1504.54,1467.55 "/>
<polyline clip-path="url(#clip770)" style="stroke:#000000; stroke-linecap:round; stroke-linejoin:round; stroke-width:4; stroke-opacity:1; fill:none" points="1974.81,1486.45 1974.81,1467.55 "/>
<path clip-path="url(#clip770)" d="M533.938 1532.02 L563.614 1532.02 L563.614 1535.95 L533.938 1535.95 L533.938 1532.02 Z" fill="#000000" fill-rule="nonzero" fill-opacity="1" /><path clip-path="url(#clip770)" d="M577.734 1544.91 L594.053 1544.91 L594.053 1548.85 L572.109 1548.85 L572.109 1544.91 Q574.771 1542.16 579.354 1537.53 Q583.961 1532.88 585.141 1531.53 Q587.387 1529.01 588.266 1527.27 Q589.169 1525.51 589.169 1523.82 Q589.169 1521.07 587.224 1519.33 Q585.303 1517.6 582.201 1517.6 Q580.002 1517.6 577.549 1518.36 Q575.118 1519.13 572.34 1520.68 L572.34 1515.95 Q575.164 1514.82 577.618 1514.24 Q580.072 1513.66 582.109 1513.66 Q587.479 1513.66 590.674 1516.35 Q593.868 1519.03 593.868 1523.52 Q593.868 1525.65 593.058 1527.57 Q592.271 1529.47 590.164 1532.07 Q589.586 1532.74 586.484 1535.95 Q583.382 1539.15 577.734 1544.91 Z" fill="#000000" fill-rule="nonzero" fill-opacity="1" /><path clip-path="url(#clip770)" d="M1004.03 1532.02 L1033.7 1532.02 L1033.7 1535.95 L1004.03 1535.95 L1004.03 1532.02 Z" fill="#000000" fill-rule="nonzero" fill-opacity="1" /><path clip-path="url(#clip770)" d="M1044.6 1544.91 L1052.24 1544.91 L1052.24 1518.55 L1043.93 1520.21 L1043.93 1515.95 L1052.2 1514.29 L1056.87 1514.29 L1056.87 1544.91 L1064.51 1544.91 L1064.51 1548.85 L1044.6 1548.85 L1044.6 1544.91 Z" fill="#000000" fill-rule="nonzero" fill-opacity="1" /><path clip-path="url(#clip770)" d="M1504.54 1517.37 Q1500.93 1517.37 1499.1 1520.93 Q1497.3 1524.47 1497.3 1531.6 Q1497.3 1538.71 1499.1 1542.27 Q1500.93 1545.82 1504.54 1545.82 Q1508.18 1545.82 1509.98 1542.27 Q1511.81 1538.71 1511.81 1531.6 Q1511.81 1524.47 1509.98 1520.93 Q1508.18 1517.37 1504.54 1517.37 M1504.54 1513.66 Q1510.35 1513.66 1513.41 1518.27 Q1516.49 1522.85 1516.49 1531.6 Q1516.49 1540.33 1513.41 1544.94 Q1510.35 1549.52 1504.54 1549.52 Q1498.73 1549.52 1495.65 1544.94 Q1492.6 1540.33 1492.6 1531.6 Q1492.6 1522.85 1495.65 1518.27 Q1498.73 1513.66 1504.54 1513.66 Z" fill="#000000" fill-rule="nonzero" fill-opacity="1" /><path clip-path="url(#clip770)" d="M1965.2 1544.91 L1972.84 1544.91 L1972.84 1518.55 L1964.53 1520.21 L1964.53 1515.95 L1972.79 1514.29 L1977.46 1514.29 L1977.46 1544.91 L1985.1 1544.91 L1985.1 1548.85 L1965.2 1548.85 L1965.2 1544.91 Z" fill="#000000" fill-rule="nonzero" fill-opacity="1" /><polyline clip-path="url(#clip770)" style="stroke:#000000; stroke-linecap:round; stroke-linejoin:round; stroke-width:4; stroke-opacity:1; fill:none" points="193.936,1486.45 193.936,47.2441 "/>
<polyline clip-path="url(#clip770)" style="stroke:#000000; stroke-linecap:round; stroke-linejoin:round; stroke-width:4; stroke-opacity:1; fill:none" points="193.936,1287.27 212.834,1287.27 "/>
<polyline clip-path="url(#clip770)" style="stroke:#000000; stroke-linecap:round; stroke-linejoin:round; stroke-width:4; stroke-opacity:1; fill:none" points="193.936,1076.95 212.834,1076.95 "/>
<polyline clip-path="url(#clip770)" style="stroke:#000000; stroke-linecap:round; stroke-linejoin:round; stroke-width:4; stroke-opacity:1; fill:none" points="193.936,866.635 212.834,866.635 "/>
<polyline clip-path="url(#clip770)" style="stroke:#000000; stroke-linecap:round; stroke-linejoin:round; stroke-width:4; stroke-opacity:1; fill:none" points="193.936,656.314 212.834,656.314 "/>
<polyline clip-path="url(#clip770)" style="stroke:#000000; stroke-linecap:round; stroke-linejoin:round; stroke-width:4; stroke-opacity:1; fill:none" points="193.936,445.994 212.834,445.994 "/>
<polyline clip-path="url(#clip770)" style="stroke:#000000; stroke-linecap:round; stroke-linejoin:round; stroke-width:4; stroke-opacity:1; fill:none" points="193.936,235.674 212.834,235.674 "/>
<path clip-path="url(#clip770)" d="M50.9921 1287.73 L80.6679 1287.73 L80.6679 1291.66 L50.9921 1291.66 L50.9921 1287.73 Z" fill="#000000" fill-rule="nonzero" fill-opacity="1" /><path clip-path="url(#clip770)" d="M91.5706 1300.62 L99.2095 1300.62 L99.2095 1274.25 L90.8993 1275.92 L90.8993 1271.66 L99.1632 1269.99 L103.839 1269.99 L103.839 1300.62 L111.478 1300.62 L111.478 1304.55 L91.5706 1304.55 L91.5706 1300.62 Z" fill="#000000" fill-rule="nonzero" fill-opacity="1" /><path clip-path="url(#clip770)" d="M120.922 1298.68 L125.807 1298.68 L125.807 1304.55 L120.922 1304.55 L120.922 1298.68 Z" fill="#000000" fill-rule="nonzero" fill-opacity="1" /><path clip-path="url(#clip770)" d="M145.992 1273.07 Q142.381 1273.07 140.552 1276.64 Q138.746 1280.18 138.746 1287.31 Q138.746 1294.42 140.552 1297.98 Q142.381 1301.52 145.992 1301.52 Q149.626 1301.52 151.431 1297.98 Q153.26 1294.42 153.26 1287.31 Q153.26 1280.18 151.431 1276.64 Q149.626 1273.07 145.992 1273.07 M145.992 1269.37 Q151.802 1269.37 154.857 1273.98 Q157.936 1278.56 157.936 1287.31 Q157.936 1296.04 154.857 1300.64 Q151.802 1305.23 145.992 1305.23 Q140.181 1305.23 137.103 1300.64 Q134.047 1296.04 134.047 1287.31 Q134.047 1278.56 137.103 1273.98 Q140.181 1269.37 145.992 1269.37 Z" fill="#000000" fill-rule="nonzero" fill-opacity="1" /><path clip-path="url(#clip770)" d="M51.9875 1077.41 L81.6633 1077.41 L81.6633 1081.34 L51.9875 1081.34 L51.9875 1077.41 Z" fill="#000000" fill-rule="nonzero" fill-opacity="1" /><path clip-path="url(#clip770)" d="M101.756 1062.75 Q98.1447 1062.75 96.316 1066.32 Q94.5104 1069.86 94.5104 1076.99 Q94.5104 1084.1 96.316 1087.66 Q98.1447 1091.2 101.756 1091.2 Q105.39 1091.2 107.196 1087.66 Q109.024 1084.1 109.024 1076.99 Q109.024 1069.86 107.196 1066.32 Q105.39 1062.75 101.756 1062.75 M101.756 1059.05 Q107.566 1059.05 110.621 1063.66 Q113.7 1068.24 113.7 1076.99 Q113.7 1085.72 110.621 1090.32 Q107.566 1094.91 101.756 1094.91 Q95.9456 1094.91 92.8669 1090.32 Q89.8114 1085.72 89.8114 1076.99 Q89.8114 1068.24 92.8669 1063.66 Q95.9456 1059.05 101.756 1059.05 Z" fill="#000000" fill-rule="nonzero" fill-opacity="1" /><path clip-path="url(#clip770)" d="M121.918 1088.36 L126.802 1088.36 L126.802 1094.23 L121.918 1094.23 L121.918 1088.36 Z" fill="#000000" fill-rule="nonzero" fill-opacity="1" /><path clip-path="url(#clip770)" d="M137.033 1059.67 L155.39 1059.67 L155.39 1063.61 L141.316 1063.61 L141.316 1072.08 Q142.334 1071.73 143.353 1071.57 Q144.371 1071.39 145.39 1071.39 Q151.177 1071.39 154.556 1074.56 Q157.936 1077.73 157.936 1083.15 Q157.936 1088.73 154.464 1091.83 Q150.992 1094.91 144.672 1094.91 Q142.496 1094.91 140.228 1094.54 Q137.982 1094.17 135.575 1093.42 L135.575 1088.73 Q137.658 1089.86 139.881 1090.42 Q142.103 1090.97 144.58 1090.97 Q148.584 1090.97 150.922 1088.86 Q153.26 1086.76 153.26 1083.15 Q153.26 1079.54 150.922 1077.43 Q148.584 1075.32 144.58 1075.32 Q142.705 1075.32 140.83 1075.74 Q138.978 1076.16 137.033 1077.04 L137.033 1059.67 Z" fill="#000000" fill-rule="nonzero" fill-opacity="1" /><path clip-path="url(#clip770)" d="M100.76 852.433 Q97.1493 852.433 95.3206 855.998 Q93.515 859.54 93.515 866.669 Q93.515 873.776 95.3206 877.341 Q97.1493 880.882 100.76 880.882 Q104.395 880.882 106.2 877.341 Q108.029 873.776 108.029 866.669 Q108.029 859.54 106.2 855.998 Q104.395 852.433 100.76 852.433 M100.76 848.73 Q106.571 848.73 109.626 853.336 Q112.705 857.919 112.705 866.669 Q112.705 875.396 109.626 880.003 Q106.571 884.586 100.76 884.586 Q94.9502 884.586 91.8715 880.003 Q88.816 875.396 88.816 866.669 Q88.816 857.919 91.8715 853.336 Q94.9502 848.73 100.76 848.73 Z" fill="#000000" fill-rule="nonzero" fill-opacity="1" /><path clip-path="url(#clip770)" d="M120.922 878.035 L125.807 878.035 L125.807 883.915 L120.922 883.915 L120.922 878.035 Z" fill="#000000" fill-rule="nonzero" fill-opacity="1" /><path clip-path="url(#clip770)" d="M145.992 852.433 Q142.381 852.433 140.552 855.998 Q138.746 859.54 138.746 866.669 Q138.746 873.776 140.552 877.341 Q142.381 880.882 145.992 880.882 Q149.626 880.882 151.431 877.341 Q153.26 873.776 153.26 866.669 Q153.26 859.54 151.431 855.998 Q149.626 852.433 145.992 852.433 M145.992 848.73 Q151.802 848.73 154.857 853.336 Q157.936 857.919 157.936 866.669 Q157.936 875.396 154.857 880.003 Q151.802 884.586 145.992 884.586 Q140.181 884.586 137.103 880.003 Q134.047 875.396 134.047 866.669 Q134.047 857.919 137.103 853.336 Q140.181 848.73 145.992 848.73 Z" fill="#000000" fill-rule="nonzero" fill-opacity="1" /><path clip-path="url(#clip770)" d="M101.756 642.113 Q98.1447 642.113 96.316 645.678 Q94.5104 649.22 94.5104 656.349 Q94.5104 663.456 96.316 667.02 Q98.1447 670.562 101.756 670.562 Q105.39 670.562 107.196 667.02 Q109.024 663.456 109.024 656.349 Q109.024 649.22 107.196 645.678 Q105.39 642.113 101.756 642.113 M101.756 638.409 Q107.566 638.409 110.621 643.016 Q113.7 647.599 113.7 656.349 Q113.7 665.076 110.621 669.682 Q107.566 674.266 101.756 674.266 Q95.9456 674.266 92.8669 669.682 Q89.8114 665.076 89.8114 656.349 Q89.8114 647.599 92.8669 643.016 Q95.9456 638.409 101.756 638.409 Z" fill="#000000" fill-rule="nonzero" fill-opacity="1" /><path clip-path="url(#clip770)" d="M121.918 667.715 L126.802 667.715 L126.802 673.594 L121.918 673.594 L121.918 667.715 Z" fill="#000000" fill-rule="nonzero" fill-opacity="1" /><path clip-path="url(#clip770)" d="M137.033 639.034 L155.39 639.034 L155.39 642.97 L141.316 642.97 L141.316 651.442 Q142.334 651.095 143.353 650.933 Q144.371 650.747 145.39 650.747 Q151.177 650.747 154.556 653.919 Q157.936 657.09 157.936 662.507 Q157.936 668.085 154.464 671.187 Q150.992 674.266 144.672 674.266 Q142.496 674.266 140.228 673.895 Q137.982 673.525 135.575 672.784 L135.575 668.085 Q137.658 669.219 139.881 669.775 Q142.103 670.331 144.58 670.331 Q148.584 670.331 150.922 668.224 Q153.26 666.118 153.26 662.507 Q153.26 658.895 150.922 656.789 Q148.584 654.683 144.58 654.683 Q142.705 654.683 140.83 655.099 Q138.978 655.516 137.033 656.395 L137.033 639.034 Z" fill="#000000" fill-rule="nonzero" fill-opacity="1" /><path clip-path="url(#clip770)" d="M91.5706 459.339 L99.2095 459.339 L99.2095 432.974 L90.8993 434.64 L90.8993 430.381 L99.1632 428.714 L103.839 428.714 L103.839 459.339 L111.478 459.339 L111.478 463.274 L91.5706 463.274 L91.5706 459.339 Z" fill="#000000" fill-rule="nonzero" fill-opacity="1" /><path clip-path="url(#clip770)" d="M120.922 457.395 L125.807 457.395 L125.807 463.274 L120.922 463.274 L120.922 457.395 Z" fill="#000000" fill-rule="nonzero" fill-opacity="1" /><path clip-path="url(#clip770)" d="M145.992 431.793 Q142.381 431.793 140.552 435.358 Q138.746 438.899 138.746 446.029 Q138.746 453.135 140.552 456.7 Q142.381 460.242 145.992 460.242 Q149.626 460.242 151.431 456.7 Q153.26 453.135 153.26 446.029 Q153.26 438.899 151.431 435.358 Q149.626 431.793 145.992 431.793 M145.992 428.089 Q151.802 428.089 154.857 432.696 Q157.936 437.279 157.936 446.029 Q157.936 454.756 154.857 459.362 Q151.802 463.946 145.992 463.946 Q140.181 463.946 137.103 459.362 Q134.047 454.756 134.047 446.029 Q134.047 437.279 137.103 432.696 Q140.181 428.089 145.992 428.089 Z" fill="#000000" fill-rule="nonzero" fill-opacity="1" /><path clip-path="url(#clip770)" d="M92.566 249.019 L100.205 249.019 L100.205 222.653 L91.8947 224.32 L91.8947 220.061 L100.159 218.394 L104.834 218.394 L104.834 249.019 L112.473 249.019 L112.473 252.954 L92.566 252.954 L92.566 249.019 Z" fill="#000000" fill-rule="nonzero" fill-opacity="1" /><path clip-path="url(#clip770)" d="M121.918 247.075 L126.802 247.075 L126.802 252.954 L121.918 252.954 L121.918 247.075 Z" fill="#000000" fill-rule="nonzero" fill-opacity="1" /><path clip-path="url(#clip770)" d="M137.033 218.394 L155.39 218.394 L155.39 222.329 L141.316 222.329 L141.316 230.801 Q142.334 230.454 143.353 230.292 Q144.371 230.107 145.39 230.107 Q151.177 230.107 154.556 233.278 Q157.936 236.45 157.936 241.866 Q157.936 247.445 154.464 250.547 Q150.992 253.625 144.672 253.625 Q142.496 253.625 140.228 253.255 Q137.982 252.885 135.575 252.144 L135.575 247.445 Q137.658 248.579 139.881 249.135 Q142.103 249.69 144.58 249.69 Q148.584 249.69 150.922 247.584 Q153.26 245.477 153.26 241.866 Q153.26 238.255 150.922 236.149 Q148.584 234.042 144.58 234.042 Q142.705 234.042 140.83 234.459 Q138.978 234.876 137.033 235.755 L137.033 218.394 Z" fill="#000000" fill-rule="nonzero" fill-opacity="1" /><circle clip-path="url(#clip772)" cx="2291.66" cy="1421.84" r="14.4" fill="#009af9" fill-rule="evenodd" fill-opacity="0.5" stroke="#000000" stroke-opacity="0.5" stroke-width="3.2"/>
<circle clip-path="url(#clip772)" cx="2239.66" cy="396.7" r="14.4" fill="#009af9" fill-rule="evenodd" fill-opacity="0.5" stroke="#000000" stroke-opacity="0.5" stroke-width="3.2"/>
<circle clip-path="url(#clip772)" cx="2027.11" cy="188.702" r="14.4" fill="#009af9" fill-rule="evenodd" fill-opacity="0.5" stroke="#000000" stroke-opacity="0.5" stroke-width="3.2"/>
<circle clip-path="url(#clip772)" cx="1068.45" cy="649.077" r="14.4" fill="#009af9" fill-rule="evenodd" fill-opacity="0.5" stroke="#000000" stroke-opacity="0.5" stroke-width="3.2"/>
<circle clip-path="url(#clip772)" cx="1156.08" cy="514.958" r="14.4" fill="#009af9" fill-rule="evenodd" fill-opacity="0.5" stroke="#000000" stroke-opacity="0.5" stroke-width="3.2"/>
<circle clip-path="url(#clip772)" cx="833.906" cy="1158.18" r="14.4" fill="#009af9" fill-rule="evenodd" fill-opacity="0.5" stroke="#000000" stroke-opacity="0.5" stroke-width="3.2"/>
<circle clip-path="url(#clip772)" cx="1723.61" cy="449.609" r="14.4" fill="#009af9" fill-rule="evenodd" fill-opacity="0.5" stroke="#000000" stroke-opacity="0.5" stroke-width="3.2"/>
<circle clip-path="url(#clip772)" cx="1001.66" cy="1341.06" r="14.4" fill="#009af9" fill-rule="evenodd" fill-opacity="0.5" stroke="#000000" stroke-opacity="0.5" stroke-width="3.2"/>
<circle clip-path="url(#clip772)" cx="1295.09" cy="648.881" r="14.4" fill="#009af9" fill-rule="evenodd" fill-opacity="0.5" stroke="#000000" stroke-opacity="0.5" stroke-width="3.2"/>
<circle clip-path="url(#clip772)" cx="814.414" cy="188.385" r="14.4" fill="#009af9" fill-rule="evenodd" fill-opacity="0.5" stroke="#000000" stroke-opacity="0.5" stroke-width="3.2"/>
<circle clip-path="url(#clip772)" cx="820.722" cy="866.767" r="14.4" fill="#009af9" fill-rule="evenodd" fill-opacity="0.5" stroke="#000000" stroke-opacity="0.5" stroke-width="3.2"/>
<circle clip-path="url(#clip772)" cx="1447.11" cy="1200.09" r="14.4" fill="#009af9" fill-rule="evenodd" fill-opacity="0.5" stroke="#000000" stroke-opacity="0.5" stroke-width="3.2"/>
<circle clip-path="url(#clip772)" cx="1406.32" cy="830.777" r="14.4" fill="#009af9" fill-rule="evenodd" fill-opacity="0.5" stroke="#000000" stroke-opacity="0.5" stroke-width="3.2"/>
<circle clip-path="url(#clip772)" cx="2106.03" cy="87.9763" r="14.4" fill="#009af9" fill-rule="evenodd" fill-opacity="0.5" stroke="#000000" stroke-opacity="0.5" stroke-width="3.2"/>
<circle clip-path="url(#clip772)" cx="1626.58" cy="1020.58" r="14.4" fill="#009af9" fill-rule="evenodd" fill-opacity="0.5" stroke="#000000" stroke-opacity="0.5" stroke-width="3.2"/>
<circle clip-path="url(#clip772)" cx="2006.14" cy="1220.17" r="14.4" fill="#009af9" fill-rule="evenodd" fill-opacity="0.5" stroke="#000000" stroke-opacity="0.5" stroke-width="3.2"/>
<circle clip-path="url(#clip772)" cx="685.682" cy="673.033" r="14.4" fill="#009af9" fill-rule="evenodd" fill-opacity="0.5" stroke="#000000" stroke-opacity="0.5" stroke-width="3.2"/>
<circle clip-path="url(#clip772)" cx="1290.54" cy="910.615" r="14.4" fill="#009af9" fill-rule="evenodd" fill-opacity="0.5" stroke="#000000" stroke-opacity="0.5" stroke-width="3.2"/>
<circle clip-path="url(#clip772)" cx="890.343" cy="1445.72" r="14.4" fill="#009af9" fill-rule="evenodd" fill-opacity="0.5" stroke="#000000" stroke-opacity="0.5" stroke-width="3.2"/>
<circle clip-path="url(#clip772)" cx="2130.02" cy="463.473" r="14.4" fill="#009af9" fill-rule="evenodd" fill-opacity="0.5" stroke="#000000" stroke-opacity="0.5" stroke-width="3.2"/>
<circle clip-path="url(#clip772)" cx="1118.73" cy="695.002" r="14.4" fill="#009af9" fill-rule="evenodd" fill-opacity="0.5" stroke="#000000" stroke-opacity="0.5" stroke-width="3.2"/>
<circle clip-path="url(#clip772)" cx="1259.84" cy="212.524" r="14.4" fill="#009af9" fill-rule="evenodd" fill-opacity="0.5" stroke="#000000" stroke-opacity="0.5" stroke-width="3.2"/>
<circle clip-path="url(#clip772)" cx="1324.28" cy="319.12" r="14.4" fill="#009af9" fill-rule="evenodd" fill-opacity="0.5" stroke="#000000" stroke-opacity="0.5" stroke-width="3.2"/>
<circle clip-path="url(#clip772)" cx="778.195" cy="1043.51" r="14.4" fill="#009af9" fill-rule="evenodd" fill-opacity="0.5" stroke="#000000" stroke-opacity="0.5" stroke-width="3.2"/>
<circle clip-path="url(#clip772)" cx="2249.8" cy="1270.02" r="14.4" fill="#009af9" fill-rule="evenodd" fill-opacity="0.5" stroke="#000000" stroke-opacity="0.5" stroke-width="3.2"/>
<circle clip-path="url(#clip772)" cx="1100.2" cy="1221.85" r="14.4" fill="#009af9" fill-rule="evenodd" fill-opacity="0.5" stroke="#000000" stroke-opacity="0.5" stroke-width="3.2"/>
<circle clip-path="url(#clip772)" cx="255.035" cy="1004.95" r="14.4" fill="#009af9" fill-rule="evenodd" fill-opacity="0.5" stroke="#000000" stroke-opacity="0.5" stroke-width="3.2"/>
<circle clip-path="url(#clip772)" cx="1481.96" cy="1224.74" r="14.4" fill="#009af9" fill-rule="evenodd" fill-opacity="0.5" stroke="#000000" stroke-opacity="0.5" stroke-width="3.2"/>
<circle clip-path="url(#clip772)" cx="1444.99" cy="956.933" r="14.4" fill="#009af9" fill-rule="evenodd" fill-opacity="0.5" stroke="#000000" stroke-opacity="0.5" stroke-width="3.2"/>
<circle clip-path="url(#clip772)" cx="1365.56" cy="465.85" r="14.4" fill="#009af9" fill-rule="evenodd" fill-opacity="0.5" stroke="#000000" stroke-opacity="0.5" stroke-width="3.2"/>
<path clip-path="url(#clip772)" d="M255.035 1004.95 L890.343 1445.72 L2291.66 1421.84 L2239.66 396.7 L2106.03 87.9763 L814.414 188.385 L255.035 1004.95 L255.035 1004.95  Z" fill="#e26f46" fill-rule="evenodd" fill-opacity="0.2"/>
<polyline clip-path="url(#clip772)" style="stroke:#000000; stroke-linecap:round; stroke-linejoin:round; stroke-width:4; stroke-opacity:0.2; fill:none" points="255.035,1004.95 890.343,1445.72 2291.66,1421.84 2239.66,396.7 2106.03,87.9763 814.414,188.385 255.035,1004.95 "/>
</svg>
