<?xml version="1.0" encoding="utf-8"?>
<svg xmlns="http://www.w3.org/2000/svg" xmlns:xlink="http://www.w3.org/1999/xlink" width="600" height="400" viewBox="0 0 2400 1600">
<defs>
  <clipPath id="clip770">
    <rect x="0" y="0" width="2400" height="1600"/>
  </clipPath>
</defs>
<path clip-path="url(#clip770)" d="M0 1600 L2400 1600 L2400 0 L0 0  Z" fill="#ffffff" fill-rule="evenodd" fill-opacity="1"/>
<defs>
  <clipPath id="clip771">
    <rect x="480" y="0" width="1681" height="1600"/>
  </clipPath>
</defs>
<path clip-path="url(#clip770)" d="M147.478 1486.45 L2352.76 1486.45 L2352.76 47.2441 L147.478 47.2441  Z" fill="#ffffff" fill-rule="evenodd" fill-opacity="1"/>
<defs>
  <clipPath id="clip772">
    <rect x="147" y="47" width="2206" height="1440"/>
  </clipPath>
</defs>
<polyline clip-path="url(#clip772)" style="stroke:#000000; stroke-linecap:round; stroke-linejoin:round; stroke-width:2; stroke-opacity:0.1; fill:none" points="634.107,1486.45 634.107,47.2441 "/>
<polyline clip-path="url(#clip772)" style="stroke:#000000; stroke-linecap:round; stroke-linejoin:round; stroke-width:2; stroke-opacity:0.1; fill:none" points="1190.12,1486.45 1190.12,47.2441 "/>
<polyline clip-path="url(#clip772)" style="stroke:#000000; stroke-linecap:round; stroke-linejoin:round; stroke-width:2; stroke-opacity:0.1; fill:none" points="1746.14,1486.45 1746.14,47.2441 "/>
<polyline clip-path="url(#clip772)" style="stroke:#000000; stroke-linecap:round; stroke-linejoin:round; stroke-width:2; stroke-opacity:0.1; fill:none" points="2302.15,1486.45 2302.15,47.2441 "/>
<polyline clip-path="url(#clip772)" style="stroke:#000000; stroke-linecap:round; stroke-linejoin:round; stroke-width:2; stroke-opacity:0.1; fill:none" points="147.478,1347.76 2352.76,1347.76 "/>
<polyline clip-path="url(#clip772)" style="stroke:#000000; stroke-linecap:round; stroke-linejoin:round; stroke-width:2; stroke-opacity:0.1; fill:none" points="147.478,922.208 2352.76,922.208 "/>
<polyline clip-path="url(#clip772)" style="stroke:#000000; stroke-linecap:round; stroke-linejoin:round; stroke-width:2; stroke-opacity:0.1; fill:none" points="147.478,496.653 2352.76,496.653 "/>
<polyline clip-path="url(#clip772)" style="stroke:#000000; stroke-linecap:round; stroke-linejoin:round; stroke-width:2; stroke-opacity:0.1; fill:none" points="147.478,71.0983 2352.76,71.0983 "/>
<polyline clip-path="url(#clip770)" style="stroke:#000000; stroke-linecap:round; stroke-linejoin:round; stroke-width:4; stroke-opacity:1; fill:none" points="147.478,1486.45 2352.76,1486.45 "/>
<polyline clip-path="url(#clip770)" style="stroke:#000000; stroke-linecap:round; stroke-linejoin:round; stroke-width:4; stroke-opacity:1; fill:none" points="634.107,1486.45 634.107,1467.55 "/>
<polyline clip-path="url(#clip770)" style="stroke:#000000; stroke-linecap:round; stroke-linejoin:round; stroke-width:4; stroke-opacity:1; fill:none" points="1190.12,1486.45 1190.12,1467.55 "/>
<polyline clip-path="url(#clip770)" style="stroke:#000000; stroke-linecap:round; stroke-linejoin:round; stroke-width:4; stroke-opacity:1; fill:none" points="1746.14,1486.45 1746.14,1467.55 "/>
<polyline clip-path="url(#clip770)" style="stroke:#000000; stroke-linecap:round; stroke-linejoin:round; stroke-width:4; stroke-opacity:1; fill:none" points="2302.15,1486.45 2302.15,1467.55 "/>
<path clip-path="url(#clip770)" d="M603.864 1532.02 L633.54 1532.02 L633.54 1535.95 L603.864 1535.95 L603.864 1532.02 Z" fill="#000000" fill-rule="nonzero" fill-opacity="1" /><path clip-path="url(#clip770)" d="M644.443 1544.91 L652.081 1544.91 L652.081 1518.55 L643.771 1520.21 L643.771 1515.95 L652.035 1514.29 L656.711 1514.29 L656.711 1544.91 L664.35 1544.91 L664.35 1548.85 L644.443 1548.85 L644.443 1544.91 Z" fill="#000000" fill-rule="nonzero" fill-opacity="1" /><path clip-path="url(#clip770)" d="M1190.12 1517.37 Q1186.51 1517.37 1184.68 1520.93 Q1182.88 1524.47 1182.88 1531.6 Q1182.88 1538.71 1184.68 1542.27 Q1186.51 1545.82 1190.12 1545.82 Q1193.76 1545.82 1195.56 1542.27 Q1197.39 1538.71 1197.39 1531.6 Q1197.39 1524.47 1195.56 1520.93 Q1193.76 1517.37 1190.12 1517.37 M1190.12 1513.66 Q1195.93 1513.66 1198.99 1518.27 Q1202.07 1522.85 1202.07 1531.6 Q1202.07 1540.33 1198.99 1544.94 Q1195.93 1549.52 1190.12 1549.52 Q1184.31 1549.52 1181.23 1544.94 Q1178.18 1540.33 1178.18 1531.6 Q1178.18 1522.85 1181.23 1518.27 Q1184.31 1513.66 1190.12 1513.66 Z" fill="#000000" fill-rule="nonzero" fill-opacity="1" /><path clip-path="url(#clip770)" d="M1736.52 1544.91 L1744.16 1544.91 L1744.16 1518.55 L1735.85 1520.21 L1735.85 1515.95 L1744.11 1514.29 L1748.79 1514.29 L1748.79 1544.91 L1756.42 1544.91 L1756.42 1548.85 L1736.52 1548.85 L1736.52 1544.91 Z" fill="#000000" fill-rule="nonzero" fill-opacity="1" /><path clip-path="url(#clip770)" d="M2296.8 1544.91 L2313.12 1544.91 L2313.12 1548.85 L2291.18 1548.85 L2291.18 1544.91 Q2293.84 1542.16 2298.42 1537.53 Q2303.03 1532.88 2304.21 1531.53 Q2306.45 1529.01 2307.33 1527.27 Q2308.24 1525.51 2308.24 1523.82 Q2308.24 1521.07 2306.29 1519.33 Q2304.37 1517.6 2301.27 1517.6 Q2299.07 1517.6 2296.62 1518.36 Q2294.19 1519.13 2291.41 1520.68 L2291.41 1515.95 Q2294.23 1514.82 2296.69 1514.24 Q2299.14 1513.66 2301.18 1513.66 Q2306.55 1513.66 2309.74 1516.35 Q2312.94 1519.03 2312.94 1523.52 Q2312.94 1525.65 2312.13 1527.57 Q2311.34 1529.47 2309.23 1532.07 Q2308.65 1532.74 2305.55 1535.95 Q2302.45 1539.15 2296.8 1544.91 Z" fill="#000000" fill-rule="nonzero" fill-opacity="1" /><polyline clip-path="url(#clip770)" style="stroke:#000000; stroke-linecap:round; stroke-linejoin:round; stroke-width:4; stroke-opacity:1; fill:none" points="147.478,1486.45 147.478,47.2441 "/>
<polyline clip-path="url(#clip770)" style="stroke:#000000; stroke-linecap:round; stroke-linejoin:round; stroke-width:4; stroke-opacity:1; fill:none" points="147.478,1347.76 166.376,1347.76 "/>
<polyline clip-path="url(#clip770)" style="stroke:#000000; stroke-linecap:round; stroke-linejoin:round; stroke-width:4; stroke-opacity:1; fill:none" points="147.478,922.208 166.376,922.208 "/>
<polyline clip-path="url(#clip770)" style="stroke:#000000; stroke-linecap:round; stroke-linejoin:round; stroke-width:4; stroke-opacity:1; fill:none" points="147.478,496.653 166.376,496.653 "/>
<polyline clip-path="url(#clip770)" style="stroke:#000000; stroke-linecap:round; stroke-linejoin:round; stroke-width:4; stroke-opacity:1; fill:none" points="147.478,71.0983 166.376,71.0983 "/>
<path clip-path="url(#clip770)" d="M50.9921 1348.21 L80.6679 1348.21 L80.6679 1352.15 L50.9921 1352.15 L50.9921 1348.21 Z" fill="#000000" fill-rule="nonzero" fill-opacity="1" /><path clip-path="url(#clip770)" d="M91.5706 1361.11 L99.2095 1361.11 L99.2095 1334.74 L90.8993 1336.41 L90.8993 1332.15 L99.1632 1330.48 L103.839 1330.48 L103.839 1361.11 L111.478 1361.11 L111.478 1365.04 L91.5706 1365.04 L91.5706 1361.11 Z" fill="#000000" fill-rule="nonzero" fill-opacity="1" /><path clip-path="url(#clip770)" d="M99.5335 908.007 Q95.9224 908.007 94.0937 911.572 Q92.2882 915.114 92.2882 922.243 Q92.2882 929.35 94.0937 932.914 Q95.9224 936.456 99.5335 936.456 Q103.168 936.456 104.973 932.914 Q106.802 929.35 106.802 922.243 Q106.802 915.114 104.973 911.572 Q103.168 908.007 99.5335 908.007 M99.5335 904.303 Q105.344 904.303 108.399 908.91 Q111.478 913.493 111.478 922.243 Q111.478 930.97 108.399 935.576 Q105.344 940.16 99.5335 940.16 Q93.7234 940.16 90.6447 935.576 Q87.5892 930.97 87.5892 922.243 Q87.5892 913.493 90.6447 908.91 Q93.7234 904.303 99.5335 904.303 Z" fill="#000000" fill-rule="nonzero" fill-opacity="1" /><path clip-path="url(#clip770)" d="M91.5706 509.998 L99.2095 509.998 L99.2095 483.633 L90.8993 485.299 L90.8993 481.04 L99.1632 479.373 L103.839 479.373 L103.839 509.998 L111.478 509.998 L111.478 513.933 L91.5706 513.933 L91.5706 509.998 Z" fill="#000000" fill-rule="nonzero" fill-opacity="1" /><path clip-path="url(#clip770)" d="M95.1586 84.4431 L111.478 84.4431 L111.478 88.3783 L89.5336 88.3783 L89.5336 84.4431 Q92.1956 81.6885 96.7789 77.0589 Q101.385 72.4061 102.566 71.0635 Q104.811 68.5404 105.691 66.8043 Q106.594 65.0451 106.594 63.3553 Q106.594 60.6006 104.649 58.8645 Q102.728 57.1284 99.6261 57.1284 Q97.4271 57.1284 94.9734 57.8923 Q92.5428 58.6562 89.7651 60.2071 L89.7651 55.4849 Q92.5891 54.3507 95.0428 53.772 Q97.4965 53.1933 99.5335 53.1933 Q104.904 53.1933 108.098 55.8784 Q111.293 58.5636 111.293 63.0543 Q111.293 65.1839 110.483 67.1052 Q109.696 69.0034 107.589 71.5959 Q107.01 72.2672 103.909 75.4848 Q100.807 78.6792 95.1586 84.4431 Z" fill="#000000" fill-rule="nonzero" fill-opacity="1" /><circle clip-path="url(#clip772)" cx="2061.66" cy="921.162" r="14.4" fill="#009af9" fill-rule="evenodd" fill-opacity="0.5" stroke="#000000" stroke-opacity="0.5" stroke-width="3.2"/>
<circle clip-path="url(#clip772)" cx="1460.43" cy="783.511" r="14.4" fill="#009af9" fill-rule="evenodd" fill-opacity="0.5" stroke="#000000" stroke-opacity="0.5" stroke-width="3.2"/>
<circle clip-path="url(#clip772)" cx="942.746" cy="1445.72" r="14.4" fill="#009af9" fill-rule="evenodd" fill-opacity="0.5" stroke="#000000" stroke-opacity="0.5" stroke-width="3.2"/>
<circle clip-path="url(#clip772)" cx="954.674" cy="598.235" r="14.4" fill="#009af9" fill-rule="evenodd" fill-opacity="0.5" stroke="#000000" stroke-opacity="0.5" stroke-width="3.2"/>
<circle clip-path="url(#clip772)" cx="1566.26" cy="1441.25" r="14.4" fill="#009af9" fill-rule="evenodd" fill-opacity="0.5" stroke="#000000" stroke-opacity="0.5" stroke-width="3.2"/>
<circle clip-path="url(#clip772)" cx="336.511" cy="812.995" r="14.4" fill="#009af9" fill-rule="evenodd" fill-opacity="0.5" stroke="#000000" stroke-opacity="0.5" stroke-width="3.2"/>
<circle clip-path="url(#clip772)" cx="1367.04" cy="1365.58" r="14.4" fill="#009af9" fill-rule="evenodd" fill-opacity="0.5" stroke="#000000" stroke-opacity="0.5" stroke-width="3.2"/>
<circle clip-path="url(#clip772)" cx="1159.8" cy="1316.93" r="14.4" fill="#009af9" fill-rule="evenodd" fill-opacity="0.5" stroke="#000000" stroke-opacity="0.5" stroke-width="3.2"/>
<circle clip-path="url(#clip772)" cx="426.376" cy="222.827" r="14.4" fill="#009af9" fill-rule="evenodd" fill-opacity="0.5" stroke="#000000" stroke-opacity="0.5" stroke-width="3.2"/>
<circle clip-path="url(#clip772)" cx="655.342" cy="1021.27" r="14.4" fill="#009af9" fill-rule="evenodd" fill-opacity="0.5" stroke="#000000" stroke-opacity="0.5" stroke-width="3.2"/>
<circle clip-path="url(#clip772)" cx="1362.08" cy="87.9763" r="14.4" fill="#009af9" fill-rule="evenodd" fill-opacity="0.5" stroke="#000000" stroke-opacity="0.5" stroke-width="3.2"/>
<circle clip-path="url(#clip772)" cx="1862.15" cy="1124.93" r="14.4" fill="#009af9" fill-rule="evenodd" fill-opacity="0.5" stroke="#000000" stroke-opacity="0.5" stroke-width="3.2"/>
<circle clip-path="url(#clip772)" cx="828.012" cy="613.415" r="14.4" fill="#009af9" fill-rule="evenodd" fill-opacity="0.5" stroke="#000000" stroke-opacity="0.5" stroke-width="3.2"/>
<circle clip-path="url(#clip772)" cx="767.57" cy="350.129" r="14.4" fill="#009af9" fill-rule="evenodd" fill-opacity="0.5" stroke="#000000" stroke-opacity="0.5" stroke-width="3.2"/>
<circle clip-path="url(#clip772)" cx="1137.19" cy="572.584" r="14.4" fill="#009af9" fill-rule="evenodd" fill-opacity="0.5" stroke="#000000" stroke-opacity="0.5" stroke-width="3.2"/>
<circle clip-path="url(#clip772)" cx="1216.75" cy="883.121" r="14.4" fill="#009af9" fill-rule="evenodd" fill-opacity="0.5" stroke="#000000" stroke-opacity="0.5" stroke-width="3.2"/>
<circle clip-path="url(#clip772)" cx="900.251" cy="1121.84" r="14.4" fill="#009af9" fill-rule="evenodd" fill-opacity="0.5" stroke="#000000" stroke-opacity="0.5" stroke-width="3.2"/>
<circle clip-path="url(#clip772)" cx="209.891" cy="817.46" r="14.4" fill="#009af9" fill-rule="evenodd" fill-opacity="0.5" stroke="#000000" stroke-opacity="0.5" stroke-width="3.2"/>
<circle clip-path="url(#clip772)" cx="269.101" cy="857.679" r="14.4" fill="#009af9" fill-rule="evenodd" fill-opacity="0.5" stroke="#000000" stroke-opacity="0.5" stroke-width="3.2"/>
<circle clip-path="url(#clip772)" cx="379.805" cy="349.596" r="14.4" fill="#009af9" fill-rule="evenodd" fill-opacity="0.5" stroke="#000000" stroke-opacity="0.5" stroke-width="3.2"/>
<circle clip-path="url(#clip772)" cx="815.934" cy="383.384" r="14.4" fill="#009af9" fill-rule="evenodd" fill-opacity="0.5" stroke="#000000" stroke-opacity="0.5" stroke-width="3.2"/>
<circle clip-path="url(#clip772)" cx="1166.97" cy="1166.03" r="14.4" fill="#009af9" fill-rule="evenodd" fill-opacity="0.5" stroke="#000000" stroke-opacity="0.5" stroke-width="3.2"/>
<circle clip-path="url(#clip772)" cx="2238.03" cy="261.446" r="14.4" fill="#009af9" fill-rule="evenodd" fill-opacity="0.5" stroke="#000000" stroke-opacity="0.5" stroke-width="3.2"/>
<circle clip-path="url(#clip772)" cx="1340" cy="629.749" r="14.4" fill="#009af9" fill-rule="evenodd" fill-opacity="0.5" stroke="#000000" stroke-opacity="0.5" stroke-width="3.2"/>
<circle clip-path="url(#clip772)" cx="952.893" cy="1056.89" r="14.4" fill="#009af9" fill-rule="evenodd" fill-opacity="0.5" stroke="#000000" stroke-opacity="0.5" stroke-width="3.2"/>
<circle clip-path="url(#clip772)" cx="487.721" cy="536.58" r="14.4" fill="#009af9" fill-rule="evenodd" fill-opacity="0.5" stroke="#000000" stroke-opacity="0.5" stroke-width="3.2"/>
<circle clip-path="url(#clip772)" cx="1358.6" cy="648.004" r="14.4" fill="#009af9" fill-rule="evenodd" fill-opacity="0.5" stroke="#000000" stroke-opacity="0.5" stroke-width="3.2"/>
<circle clip-path="url(#clip772)" cx="425.645" cy="1058.48" r="14.4" fill="#009af9" fill-rule="evenodd" fill-opacity="0.5" stroke="#000000" stroke-opacity="0.5" stroke-width="3.2"/>
<circle clip-path="url(#clip772)" cx="1664.4" cy="1088.36" r="14.4" fill="#009af9" fill-rule="evenodd" fill-opacity="0.5" stroke="#000000" stroke-opacity="0.5" stroke-width="3.2"/>
<circle clip-path="url(#clip772)" cx="2290.34" cy="1443.9" r="14.4" fill="#009af9" fill-rule="evenodd" fill-opacity="0.5" stroke="#000000" stroke-opacity="0.5" stroke-width="3.2"/>
<path clip-path="url(#clip772)" d="M209.891 817.46 L425.645 1058.48 L942.746 1445.72 L2290.34 1443.9 L2238.03 261.446 L1362.08 87.9763 L426.376 222.827 L379.805 349.596 L209.891 817.46 L209.891 817.46  Z" fill="#e26f46" fill-rule="evenodd" fill-opacity="0.2"/>
<polyline clip-path="url(#clip772)" style="stroke:#000000; stroke-linecap:round; stroke-linejoin:round; stroke-width:4; stroke-opacity:0.2; fill:none" points="209.891,817.46 425.645,1058.48 942.746,1445.72 2290.34,1443.9 2238.03,261.446 1362.08,87.9763 426.376,222.827 379.805,349.596 209.891,817.46 "/>
</svg>
