<?xml version="1.0" encoding="utf-8"?>
<svg xmlns="http://www.w3.org/2000/svg" xmlns:xlink="http://www.w3.org/1999/xlink" width="600" height="400" viewBox="0 0 2400 1600">
<defs>
  <clipPath id="clip870">
    <rect x="0" y="0" width="2400" height="1600"/>
  </clipPath>
</defs>
<path clip-path="url(#clip870)" d="M0 1600 L2400 1600 L2400 0 L0 0  Z" fill="#ffffff" fill-rule="evenodd" fill-opacity="1"/>
<defs>
  <clipPath id="clip871">
    <rect x="480" y="0" width="1681" height="1600"/>
  </clipPath>
</defs>
<path clip-path="url(#clip870)" d="M147.478 1486.45 L2352.76 1486.45 L2352.76 47.2441 L147.478 47.2441  Z" fill="#ffffff" fill-rule="evenodd" fill-opacity="1"/>
<defs>
  <clipPath id="clip872">
    <rect x="147" y="47" width="2206" height="1440"/>
  </clipPath>
</defs>
<polyline clip-path="url(#clip872)" style="stroke:#000000; stroke-linecap:round; stroke-linejoin:round; stroke-width:2; stroke-opacity:0.1; fill:none" points="277.872,1486.45 277.872,47.2441 "/>
<polyline clip-path="url(#clip872)" style="stroke:#000000; stroke-linecap:round; stroke-linejoin:round; stroke-width:2; stroke-opacity:0.1; fill:none" points="577.423,1486.45 577.423,47.2441 "/>
<polyline clip-path="url(#clip872)" style="stroke:#000000; stroke-linecap:round; stroke-linejoin:round; stroke-width:2; stroke-opacity:0.1; fill:none" points="876.975,1486.45 876.975,47.2441 "/>
<polyline clip-path="url(#clip872)" style="stroke:#000000; stroke-linecap:round; stroke-linejoin:round; stroke-width:2; stroke-opacity:0.1; fill:none" points="1176.53,1486.45 1176.53,47.2441 "/>
<polyline clip-path="url(#clip872)" style="stroke:#000000; stroke-linecap:round; stroke-linejoin:round; stroke-width:2; stroke-opacity:0.1; fill:none" points="1476.08,1486.45 1476.08,47.2441 "/>
<polyline clip-path="url(#clip872)" style="stroke:#000000; stroke-linecap:round; stroke-linejoin:round; stroke-width:2; stroke-opacity:0.1; fill:none" points="1775.63,1486.45 1775.63,47.2441 "/>
<polyline clip-path="url(#clip872)" style="stroke:#000000; stroke-linecap:round; stroke-linejoin:round; stroke-width:2; stroke-opacity:0.1; fill:none" points="2075.18,1486.45 2075.18,47.2441 "/>
<polyline clip-path="url(#clip872)" style="stroke:#000000; stroke-linecap:round; stroke-linejoin:round; stroke-width:2; stroke-opacity:0.1; fill:none" points="147.478,1473.03 2352.76,1473.03 "/>
<polyline clip-path="url(#clip872)" style="stroke:#000000; stroke-linecap:round; stroke-linejoin:round; stroke-width:2; stroke-opacity:0.1; fill:none" points="147.478,1102.01 2352.76,1102.01 "/>
<polyline clip-path="url(#clip872)" style="stroke:#000000; stroke-linecap:round; stroke-linejoin:round; stroke-width:2; stroke-opacity:0.1; fill:none" points="147.478,730.991 2352.76,730.991 "/>
<polyline clip-path="url(#clip872)" style="stroke:#000000; stroke-linecap:round; stroke-linejoin:round; stroke-width:2; stroke-opacity:0.1; fill:none" points="147.478,359.969 2352.76,359.969 "/>
<polyline clip-path="url(#clip870)" style="stroke:#000000; stroke-linecap:round; stroke-linejoin:round; stroke-width:4; stroke-opacity:1; fill:none" points="147.478,1486.45 2352.76,1486.45 "/>
<polyline clip-path="url(#clip870)" style="stroke:#000000; stroke-linecap:round; stroke-linejoin:round; stroke-width:4; stroke-opacity:1; fill:none" points="277.872,1486.45 277.872,1467.55 "/>
<polyline clip-path="url(#clip870)" style="stroke:#000000; stroke-linecap:round; stroke-linejoin:round; stroke-width:4; stroke-opacity:1; fill:none" points="577.423,1486.45 577.423,1467.55 "/>
<polyline clip-path="url(#clip870)" style="stroke:#000000; stroke-linecap:round; stroke-linejoin:round; stroke-width:4; stroke-opacity:1; fill:none" points="876.975,1486.45 876.975,1467.55 "/>
<polyline clip-path="url(#clip870)" style="stroke:#000000; stroke-linecap:round; stroke-linejoin:round; stroke-width:4; stroke-opacity:1; fill:none" points="1176.53,1486.45 1176.53,1467.55 "/>
<polyline clip-path="url(#clip870)" style="stroke:#000000; stroke-linecap:round; stroke-linejoin:round; stroke-width:4; stroke-opacity:1; fill:none" points="1476.08,1486.45 1476.08,1467.55 "/>
<polyline clip-path="url(#clip870)" style="stroke:#000000; stroke-linecap:round; stroke-linejoin:round; stroke-width:4; stroke-opacity:1; fill:none" points="1775.63,1486.45 1775.63,1467.55 "/>
<polyline clip-path="url(#clip870)" style="stroke:#000000; stroke-linecap:round; stroke-linejoin:round; stroke-width:4; stroke-opacity:1; fill:none" points="2075.18,1486.45 2075.18,1467.55 "/>
<path clip-path="url(#clip870)" d="M224.898 1532.02 L254.573 1532.02 L254.573 1535.95 L224.898 1535.95 L224.898 1532.02 Z" fill="#000000" fill-rule="nonzero" fill-opacity="1" /><path clip-path="url(#clip870)" d="M265.476 1544.91 L273.115 1544.91 L273.115 1518.55 L264.805 1520.21 L264.805 1515.95 L273.069 1514.29 L277.744 1514.29 L277.744 1544.91 L285.383 1544.91 L285.383 1548.85 L265.476 1548.85 L265.476 1544.91 Z" fill="#000000" fill-rule="nonzero" fill-opacity="1" /><path clip-path="url(#clip870)" d="M294.828 1542.97 L299.712 1542.97 L299.712 1548.85 L294.828 1548.85 L294.828 1542.97 Z" fill="#000000" fill-rule="nonzero" fill-opacity="1" /><path clip-path="url(#clip870)" d="M309.943 1514.29 L328.3 1514.29 L328.3 1518.22 L314.226 1518.22 L314.226 1526.7 Q315.244 1526.35 316.263 1526.19 Q317.281 1526 318.3 1526 Q324.087 1526 327.466 1529.17 Q330.846 1532.34 330.846 1537.76 Q330.846 1543.34 327.374 1546.44 Q323.902 1549.52 317.582 1549.52 Q315.406 1549.52 313.138 1549.15 Q310.892 1548.78 308.485 1548.04 L308.485 1543.34 Q310.568 1544.47 312.791 1545.03 Q315.013 1545.58 317.49 1545.58 Q321.494 1545.58 323.832 1543.48 Q326.17 1541.37 326.17 1537.76 Q326.17 1534.15 323.832 1532.04 Q321.494 1529.94 317.49 1529.94 Q315.615 1529.94 313.74 1530.35 Q311.888 1530.77 309.943 1531.65 L309.943 1514.29 Z" fill="#000000" fill-rule="nonzero" fill-opacity="1" /><path clip-path="url(#clip870)" d="M523.951 1532.02 L553.627 1532.02 L553.627 1535.95 L523.951 1535.95 L523.951 1532.02 Z" fill="#000000" fill-rule="nonzero" fill-opacity="1" /><path clip-path="url(#clip870)" d="M564.53 1544.91 L572.169 1544.91 L572.169 1518.55 L563.858 1520.21 L563.858 1515.95 L572.122 1514.29 L576.798 1514.29 L576.798 1544.91 L584.437 1544.91 L584.437 1548.85 L564.53 1548.85 L564.53 1544.91 Z" fill="#000000" fill-rule="nonzero" fill-opacity="1" /><path clip-path="url(#clip870)" d="M593.881 1542.97 L598.766 1542.97 L598.766 1548.85 L593.881 1548.85 L593.881 1542.97 Z" fill="#000000" fill-rule="nonzero" fill-opacity="1" /><path clip-path="url(#clip870)" d="M618.951 1517.37 Q615.34 1517.37 613.511 1520.93 Q611.705 1524.47 611.705 1531.6 Q611.705 1538.71 613.511 1542.27 Q615.34 1545.82 618.951 1545.82 Q622.585 1545.82 624.391 1542.27 Q626.219 1538.71 626.219 1531.6 Q626.219 1524.47 624.391 1520.93 Q622.585 1517.37 618.951 1517.37 M618.951 1513.66 Q624.761 1513.66 627.816 1518.27 Q630.895 1522.85 630.895 1531.6 Q630.895 1540.33 627.816 1544.94 Q624.761 1549.52 618.951 1549.52 Q613.141 1549.52 610.062 1544.94 Q607.006 1540.33 607.006 1531.6 Q607.006 1522.85 610.062 1518.27 Q613.141 1513.66 618.951 1513.66 Z" fill="#000000" fill-rule="nonzero" fill-opacity="1" /><path clip-path="url(#clip870)" d="M824 1532.02 L853.676 1532.02 L853.676 1535.95 L824 1535.95 L824 1532.02 Z" fill="#000000" fill-rule="nonzero" fill-opacity="1" /><path clip-path="url(#clip870)" d="M873.769 1517.37 Q870.158 1517.37 868.329 1520.93 Q866.523 1524.47 866.523 1531.6 Q866.523 1538.71 868.329 1542.27 Q870.158 1545.82 873.769 1545.82 Q877.403 1545.82 879.208 1542.27 Q881.037 1538.71 881.037 1531.6 Q881.037 1524.47 879.208 1520.93 Q877.403 1517.37 873.769 1517.37 M873.769 1513.66 Q879.579 1513.66 882.634 1518.27 Q885.713 1522.85 885.713 1531.6 Q885.713 1540.33 882.634 1544.94 Q879.579 1549.52 873.769 1549.52 Q867.958 1549.52 864.88 1544.94 Q861.824 1540.33 861.824 1531.6 Q861.824 1522.85 864.88 1518.27 Q867.958 1513.66 873.769 1513.66 Z" fill="#000000" fill-rule="nonzero" fill-opacity="1" /><path clip-path="url(#clip870)" d="M893.931 1542.97 L898.815 1542.97 L898.815 1548.85 L893.931 1548.85 L893.931 1542.97 Z" fill="#000000" fill-rule="nonzero" fill-opacity="1" /><path clip-path="url(#clip870)" d="M909.046 1514.29 L927.403 1514.29 L927.403 1518.22 L913.329 1518.22 L913.329 1526.7 Q914.347 1526.35 915.366 1526.19 Q916.384 1526 917.403 1526 Q923.19 1526 926.569 1529.17 Q929.949 1532.34 929.949 1537.76 Q929.949 1543.34 926.477 1546.44 Q923.004 1549.52 916.685 1549.52 Q914.509 1549.52 912.241 1549.15 Q909.995 1548.78 907.588 1548.04 L907.588 1543.34 Q909.671 1544.47 911.893 1545.03 Q914.116 1545.58 916.592 1545.58 Q920.597 1545.58 922.935 1543.48 Q925.273 1541.37 925.273 1537.76 Q925.273 1534.15 922.935 1532.04 Q920.597 1529.94 916.592 1529.94 Q914.717 1529.94 912.842 1530.35 Q910.991 1530.77 909.046 1531.65 L909.046 1514.29 Z" fill="#000000" fill-rule="nonzero" fill-opacity="1" /><path clip-path="url(#clip870)" d="M1153.91 1517.37 Q1150.3 1517.37 1148.47 1520.93 Q1146.67 1524.47 1146.67 1531.6 Q1146.67 1538.71 1148.47 1542.27 Q1150.3 1545.82 1153.91 1545.82 Q1157.54 1545.82 1159.35 1542.27 Q1161.18 1538.71 1161.18 1531.6 Q1161.18 1524.47 1159.35 1520.93 Q1157.54 1517.37 1153.91 1517.37 M1153.91 1513.66 Q1159.72 1513.66 1162.78 1518.27 Q1165.85 1522.85 1165.85 1531.6 Q1165.85 1540.33 1162.78 1544.94 Q1159.72 1549.52 1153.91 1549.52 Q1148.1 1549.52 1145.02 1544.94 Q1141.97 1540.33 1141.97 1531.6 Q1141.97 1522.85 1145.02 1518.27 Q1148.1 1513.66 1153.91 1513.66 Z" fill="#000000" fill-rule="nonzero" fill-opacity="1" /><path clip-path="url(#clip870)" d="M1174.07 1542.97 L1178.96 1542.97 L1178.96 1548.85 L1174.07 1548.85 L1174.07 1542.97 Z" fill="#000000" fill-rule="nonzero" fill-opacity="1" /><path clip-path="url(#clip870)" d="M1199.14 1517.37 Q1195.53 1517.37 1193.7 1520.93 Q1191.9 1524.47 1191.9 1531.6 Q1191.9 1538.71 1193.7 1542.27 Q1195.53 1545.82 1199.14 1545.82 Q1202.78 1545.82 1204.58 1542.27 Q1206.41 1538.71 1206.41 1531.6 Q1206.41 1524.47 1204.58 1520.93 Q1202.78 1517.37 1199.14 1517.37 M1199.14 1513.66 Q1204.95 1513.66 1208.01 1518.27 Q1211.09 1522.85 1211.09 1531.6 Q1211.09 1540.33 1208.01 1544.94 Q1204.95 1549.52 1199.14 1549.52 Q1193.33 1549.52 1190.25 1544.94 Q1187.2 1540.33 1187.2 1531.6 Q1187.2 1522.85 1190.25 1518.27 Q1193.33 1513.66 1199.14 1513.66 Z" fill="#000000" fill-rule="nonzero" fill-opacity="1" /><path clip-path="url(#clip870)" d="M1453.96 1517.37 Q1450.35 1517.37 1448.52 1520.93 Q1446.71 1524.47 1446.71 1531.6 Q1446.71 1538.71 1448.52 1542.27 Q1450.35 1545.82 1453.96 1545.82 Q1457.59 1545.82 1459.4 1542.27 Q1461.23 1538.71 1461.23 1531.6 Q1461.23 1524.47 1459.4 1520.93 Q1457.59 1517.37 1453.96 1517.37 M1453.96 1513.66 Q1459.77 1513.66 1462.83 1518.27 Q1465.9 1522.85 1465.9 1531.6 Q1465.9 1540.33 1462.83 1544.94 Q1459.77 1549.52 1453.96 1549.52 Q1448.15 1549.52 1445.07 1544.94 Q1442.02 1540.33 1442.02 1531.6 Q1442.02 1522.85 1445.07 1518.27 Q1448.15 1513.66 1453.96 1513.66 Z" fill="#000000" fill-rule="nonzero" fill-opacity="1" /><path clip-path="url(#clip870)" d="M1474.12 1542.97 L1479.01 1542.97 L1479.01 1548.85 L1474.12 1548.85 L1474.12 1542.97 Z" fill="#000000" fill-rule="nonzero" fill-opacity="1" /><path clip-path="url(#clip870)" d="M1489.24 1514.29 L1507.59 1514.29 L1507.59 1518.22 L1493.52 1518.22 L1493.52 1526.7 Q1494.54 1526.35 1495.56 1526.19 Q1496.58 1526 1497.59 1526 Q1503.38 1526 1506.76 1529.17 Q1510.14 1532.34 1510.14 1537.76 Q1510.14 1543.34 1506.67 1546.44 Q1503.2 1549.52 1496.88 1549.52 Q1494.7 1549.52 1492.43 1549.15 Q1490.19 1548.78 1487.78 1548.04 L1487.78 1543.34 Q1489.86 1544.47 1492.08 1545.03 Q1494.31 1545.58 1496.78 1545.58 Q1500.79 1545.58 1503.13 1543.48 Q1505.46 1541.37 1505.46 1537.76 Q1505.46 1534.15 1503.13 1532.04 Q1500.79 1529.94 1496.78 1529.94 Q1494.91 1529.94 1493.03 1530.35 Q1491.18 1530.77 1489.24 1531.65 L1489.24 1514.29 Z" fill="#000000" fill-rule="nonzero" fill-opacity="1" /><path clip-path="url(#clip870)" d="M1742.78 1544.91 L1750.42 1544.91 L1750.42 1518.55 L1742.11 1520.21 L1742.11 1515.95 L1750.37 1514.29 L1755.05 1514.29 L1755.05 1544.91 L1762.69 1544.91 L1762.69 1548.85 L1742.78 1548.85 L1742.78 1544.91 Z" fill="#000000" fill-rule="nonzero" fill-opacity="1" /><path clip-path="url(#clip870)" d="M1772.13 1542.97 L1777.02 1542.97 L1777.02 1548.85 L1772.13 1548.85 L1772.13 1542.97 Z" fill="#000000" fill-rule="nonzero" fill-opacity="1" /><path clip-path="url(#clip870)" d="M1797.2 1517.37 Q1793.59 1517.37 1791.76 1520.93 Q1789.96 1524.47 1789.96 1531.6 Q1789.96 1538.71 1791.76 1542.27 Q1793.59 1545.82 1797.2 1545.82 Q1800.84 1545.82 1802.64 1542.27 Q1804.47 1538.71 1804.47 1531.6 Q1804.47 1524.47 1802.64 1520.93 Q1800.84 1517.37 1797.2 1517.37 M1797.2 1513.66 Q1803.01 1513.66 1806.07 1518.27 Q1809.15 1522.85 1809.15 1531.6 Q1809.15 1540.33 1806.07 1544.94 Q1803.01 1549.52 1797.2 1549.52 Q1791.39 1549.52 1788.31 1544.94 Q1785.26 1540.33 1785.26 1531.6 Q1785.26 1522.85 1788.31 1518.27 Q1791.39 1513.66 1797.2 1513.66 Z" fill="#000000" fill-rule="nonzero" fill-opacity="1" /><path clip-path="url(#clip870)" d="M2042.83 1544.91 L2050.47 1544.91 L2050.47 1518.55 L2042.16 1520.21 L2042.16 1515.95 L2050.42 1514.29 L2055.1 1514.29 L2055.1 1544.91 L2062.74 1544.91 L2062.74 1548.85 L2042.83 1548.85 L2042.83 1544.91 Z" fill="#000000" fill-rule="nonzero" fill-opacity="1" /><path clip-path="url(#clip870)" d="M2072.18 1542.97 L2077.07 1542.97 L2077.07 1548.85 L2072.18 1548.85 L2072.18 1542.97 Z" fill="#000000" fill-rule="nonzero" fill-opacity="1" /><path clip-path="url(#clip870)" d="M2087.3 1514.29 L2105.65 1514.29 L2105.65 1518.22 L2091.58 1518.22 L2091.58 1526.7 Q2092.6 1526.35 2093.62 1526.19 Q2094.64 1526 2095.65 1526 Q2101.44 1526 2104.82 1529.17 Q2108.2 1532.34 2108.2 1537.76 Q2108.2 1543.34 2104.73 1546.44 Q2101.26 1549.52 2094.94 1549.52 Q2092.76 1549.52 2090.49 1549.15 Q2088.25 1548.78 2085.84 1548.04 L2085.84 1543.34 Q2087.92 1544.47 2090.15 1545.03 Q2092.37 1545.58 2094.84 1545.58 Q2098.85 1545.58 2101.19 1543.48 Q2103.53 1541.37 2103.53 1537.76 Q2103.53 1534.15 2101.19 1532.04 Q2098.85 1529.94 2094.84 1529.94 Q2092.97 1529.94 2091.09 1530.35 Q2089.24 1530.77 2087.3 1531.65 L2087.3 1514.29 Z" fill="#000000" fill-rule="nonzero" fill-opacity="1" /><polyline clip-path="url(#clip870)" style="stroke:#000000; stroke-linecap:round; stroke-linejoin:round; stroke-width:4; stroke-opacity:1; fill:none" points="147.478,1486.45 147.478,47.2441 "/>
<polyline clip-path="url(#clip870)" style="stroke:#000000; stroke-linecap:round; stroke-linejoin:round; stroke-width:4; stroke-opacity:1; fill:none" points="147.478,1473.03 166.376,1473.03 "/>
<polyline clip-path="url(#clip870)" style="stroke:#000000; stroke-linecap:round; stroke-linejoin:round; stroke-width:4; stroke-opacity:1; fill:none" points="147.478,1102.01 166.376,1102.01 "/>
<polyline clip-path="url(#clip870)" style="stroke:#000000; stroke-linecap:round; stroke-linejoin:round; stroke-width:4; stroke-opacity:1; fill:none" points="147.478,730.991 166.376,730.991 "/>
<polyline clip-path="url(#clip870)" style="stroke:#000000; stroke-linecap:round; stroke-linejoin:round; stroke-width:4; stroke-opacity:1; fill:none" points="147.478,359.969 166.376,359.969 "/>
<path clip-path="url(#clip870)" d="M51.3625 1473.48 L81.0383 1473.48 L81.0383 1477.42 L51.3625 1477.42 L51.3625 1473.48 Z" fill="#000000" fill-rule="nonzero" fill-opacity="1" /><path clip-path="url(#clip870)" d="M95.1586 1486.38 L111.478 1486.38 L111.478 1490.31 L89.5336 1490.31 L89.5336 1486.38 Q92.1956 1483.62 96.7789 1478.99 Q101.385 1474.34 102.566 1473 Q104.811 1470.48 105.691 1468.74 Q106.594 1466.98 106.594 1465.29 Q106.594 1462.54 104.649 1460.8 Q102.728 1459.06 99.6261 1459.06 Q97.4271 1459.06 94.9734 1459.83 Q92.5428 1460.59 89.7651 1462.14 L89.7651 1457.42 Q92.5891 1456.29 95.0428 1455.71 Q97.4965 1455.13 99.5335 1455.13 Q104.904 1455.13 108.098 1457.81 Q111.293 1460.5 111.293 1464.99 Q111.293 1467.12 110.483 1469.04 Q109.696 1470.94 107.589 1473.53 Q107.01 1474.2 103.909 1477.42 Q100.807 1480.61 95.1586 1486.38 Z" fill="#000000" fill-rule="nonzero" fill-opacity="1" /><path clip-path="url(#clip870)" d="M50.9921 1102.46 L80.6679 1102.46 L80.6679 1106.4 L50.9921 1106.4 L50.9921 1102.46 Z" fill="#000000" fill-rule="nonzero" fill-opacity="1" /><path clip-path="url(#clip870)" d="M91.5706 1115.36 L99.2095 1115.36 L99.2095 1088.99 L90.8993 1090.66 L90.8993 1086.4 L99.1632 1084.73 L103.839 1084.73 L103.839 1115.36 L111.478 1115.36 L111.478 1119.29 L91.5706 1119.29 L91.5706 1115.36 Z" fill="#000000" fill-rule="nonzero" fill-opacity="1" /><path clip-path="url(#clip870)" d="M99.5335 716.789 Q95.9224 716.789 94.0937 720.354 Q92.2882 723.896 92.2882 731.025 Q92.2882 738.132 94.0937 741.697 Q95.9224 745.238 99.5335 745.238 Q103.168 745.238 104.973 741.697 Q106.802 738.132 106.802 731.025 Q106.802 723.896 104.973 720.354 Q103.168 716.789 99.5335 716.789 M99.5335 713.086 Q105.344 713.086 108.399 717.692 Q111.478 722.275 111.478 731.025 Q111.478 739.752 108.399 744.359 Q105.344 748.942 99.5335 748.942 Q93.7234 748.942 90.6447 744.359 Q87.5892 739.752 87.5892 731.025 Q87.5892 722.275 90.6447 717.692 Q93.7234 713.086 99.5335 713.086 Z" fill="#000000" fill-rule="nonzero" fill-opacity="1" /><path clip-path="url(#clip870)" d="M91.5706 373.314 L99.2095 373.314 L99.2095 346.948 L90.8993 348.615 L90.8993 344.356 L99.1632 342.689 L103.839 342.689 L103.839 373.314 L111.478 373.314 L111.478 377.249 L91.5706 377.249 L91.5706 373.314 Z" fill="#000000" fill-rule="nonzero" fill-opacity="1" /><circle clip-path="url(#clip872)" cx="1028.64" cy="742.563" r="14.4" fill="#009af9" fill-rule="evenodd" fill-opacity="0.5" stroke="#000000" stroke-opacity="0.5" stroke-width="3.2"/>
<circle clip-path="url(#clip872)" cx="1365.63" cy="1443.4" r="14.4" fill="#009af9" fill-rule="evenodd" fill-opacity="0.5" stroke="#000000" stroke-opacity="0.5" stroke-width="3.2"/>
<circle clip-path="url(#clip872)" cx="1271.5" cy="835.484" r="14.4" fill="#009af9" fill-rule="evenodd" fill-opacity="0.5" stroke="#000000" stroke-opacity="0.5" stroke-width="3.2"/>
<circle clip-path="url(#clip872)" cx="1660.22" cy="1276.44" r="14.4" fill="#009af9" fill-rule="evenodd" fill-opacity="0.5" stroke="#000000" stroke-opacity="0.5" stroke-width="3.2"/>
<circle clip-path="url(#clip872)" cx="1175.94" cy="1443.19" r="14.4" fill="#009af9" fill-rule="evenodd" fill-opacity="0.5" stroke="#000000" stroke-opacity="0.5" stroke-width="3.2"/>
<circle clip-path="url(#clip872)" cx="804.872" cy="167.949" r="14.4" fill="#009af9" fill-rule="evenodd" fill-opacity="0.5" stroke="#000000" stroke-opacity="0.5" stroke-width="3.2"/>
<circle clip-path="url(#clip872)" cx="803.631" cy="234.958" r="14.4" fill="#009af9" fill-rule="evenodd" fill-opacity="0.5" stroke="#000000" stroke-opacity="0.5" stroke-width="3.2"/>
<circle clip-path="url(#clip872)" cx="1643.86" cy="487.288" r="14.4" fill="#009af9" fill-rule="evenodd" fill-opacity="0.5" stroke="#000000" stroke-opacity="0.5" stroke-width="3.2"/>
<circle clip-path="url(#clip872)" cx="1412.49" cy="318.837" r="14.4" fill="#009af9" fill-rule="evenodd" fill-opacity="0.5" stroke="#000000" stroke-opacity="0.5" stroke-width="3.2"/>
<circle clip-path="url(#clip872)" cx="2157.44" cy="904.807" r="14.4" fill="#009af9" fill-rule="evenodd" fill-opacity="0.5" stroke="#000000" stroke-opacity="0.5" stroke-width="3.2"/>
<circle clip-path="url(#clip872)" cx="1600.59" cy="593.986" r="14.4" fill="#009af9" fill-rule="evenodd" fill-opacity="0.5" stroke="#000000" stroke-opacity="0.5" stroke-width="3.2"/>
<circle clip-path="url(#clip872)" cx="911.831" cy="464.513" r="14.4" fill="#009af9" fill-rule="evenodd" fill-opacity="0.5" stroke="#000000" stroke-opacity="0.5" stroke-width="3.2"/>
<circle clip-path="url(#clip872)" cx="315.436" cy="386.717" r="14.4" fill="#009af9" fill-rule="evenodd" fill-opacity="0.5" stroke="#000000" stroke-opacity="0.5" stroke-width="3.2"/>
<circle clip-path="url(#clip872)" cx="1451.56" cy="256.852" r="14.4" fill="#009af9" fill-rule="evenodd" fill-opacity="0.5" stroke="#000000" stroke-opacity="0.5" stroke-width="3.2"/>
<circle clip-path="url(#clip872)" cx="1649.57" cy="456.954" r="14.4" fill="#009af9" fill-rule="evenodd" fill-opacity="0.5" stroke="#000000" stroke-opacity="0.5" stroke-width="3.2"/>
<circle clip-path="url(#clip872)" cx="1608.14" cy="1445.72" r="14.4" fill="#009af9" fill-rule="evenodd" fill-opacity="0.5" stroke="#000000" stroke-opacity="0.5" stroke-width="3.2"/>
<circle clip-path="url(#clip872)" cx="477.618" cy="1076.19" r="14.4" fill="#009af9" fill-rule="evenodd" fill-opacity="0.5" stroke="#000000" stroke-opacity="0.5" stroke-width="3.2"/>
<circle clip-path="url(#clip872)" cx="209.891" cy="547.346" r="14.4" fill="#009af9" fill-rule="evenodd" fill-opacity="0.5" stroke="#000000" stroke-opacity="0.5" stroke-width="3.2"/>
<circle clip-path="url(#clip872)" cx="1700.28" cy="439.209" r="14.4" fill="#009af9" fill-rule="evenodd" fill-opacity="0.5" stroke="#000000" stroke-opacity="0.5" stroke-width="3.2"/>
<circle clip-path="url(#clip872)" cx="2165.52" cy="1084.73" r="14.4" fill="#009af9" fill-rule="evenodd" fill-opacity="0.5" stroke="#000000" stroke-opacity="0.5" stroke-width="3.2"/>
<circle clip-path="url(#clip872)" cx="688.823" cy="1009.6" r="14.4" fill="#009af9" fill-rule="evenodd" fill-opacity="0.5" stroke="#000000" stroke-opacity="0.5" stroke-width="3.2"/>
<circle clip-path="url(#clip872)" cx="1506.69" cy="496.802" r="14.4" fill="#009af9" fill-rule="evenodd" fill-opacity="0.5" stroke="#000000" stroke-opacity="0.5" stroke-width="3.2"/>
<circle clip-path="url(#clip872)" cx="774.964" cy="1101.18" r="14.4" fill="#009af9" fill-rule="evenodd" fill-opacity="0.5" stroke="#000000" stroke-opacity="0.5" stroke-width="3.2"/>
<circle clip-path="url(#clip872)" cx="1496.37" cy="1351.55" r="14.4" fill="#009af9" fill-rule="evenodd" fill-opacity="0.5" stroke="#000000" stroke-opacity="0.5" stroke-width="3.2"/>
<circle clip-path="url(#clip872)" cx="2087.21" cy="673.634" r="14.4" fill="#009af9" fill-rule="evenodd" fill-opacity="0.5" stroke="#000000" stroke-opacity="0.5" stroke-width="3.2"/>
<circle clip-path="url(#clip872)" cx="1419.86" cy="585.614" r="14.4" fill="#009af9" fill-rule="evenodd" fill-opacity="0.5" stroke="#000000" stroke-opacity="0.5" stroke-width="3.2"/>
<circle clip-path="url(#clip872)" cx="1689.94" cy="847.301" r="14.4" fill="#009af9" fill-rule="evenodd" fill-opacity="0.5" stroke="#000000" stroke-opacity="0.5" stroke-width="3.2"/>
<circle clip-path="url(#clip872)" cx="1283.82" cy="87.9763" r="14.4" fill="#009af9" fill-rule="evenodd" fill-opacity="0.5" stroke="#000000" stroke-opacity="0.5" stroke-width="3.2"/>
<circle clip-path="url(#clip872)" cx="2290.34" cy="1038.64" r="14.4" fill="#009af9" fill-rule="evenodd" fill-opacity="0.5" stroke="#000000" stroke-opacity="0.5" stroke-width="3.2"/>
<circle clip-path="url(#clip872)" cx="949.136" cy="531.607" r="14.4" fill="#009af9" fill-rule="evenodd" fill-opacity="0.5" stroke="#000000" stroke-opacity="0.5" stroke-width="3.2"/>
<path clip-path="url(#clip872)" d="M209.891 547.346 L477.618 1076.19 L1175.94 1443.19 L1608.14 1445.72 L2290.34 1038.64 L2087.21 673.634 L1283.82 87.9763 L804.872 167.949 L315.436 386.717 L209.891 547.346 L209.891 547.346  Z" fill="#e26f46" fill-rule="evenodd" fill-opacity="0.2"/>
<polyline clip-path="url(#clip872)" style="stroke:#000000; stroke-linecap:round; stroke-linejoin:round; stroke-width:4; stroke-opacity:0.2; fill:none" points="209.891,547.346 477.618,1076.19 1175.94,1443.19 1608.14,1445.72 2290.34,1038.64 2087.21,673.634 1283.82,87.9763 804.872,167.949 315.436,386.717 209.891,547.346 "/>
</svg>
