<?xml version="1.0" encoding="utf-8"?>
<svg xmlns="http://www.w3.org/2000/svg" xmlns:xlink="http://www.w3.org/1999/xlink" width="600" height="400" viewBox="0 0 2400 1600">
<defs>
  <clipPath id="clip610">
    <rect x="0" y="0" width="2400" height="1600"/>
  </clipPath>
</defs>
<path clip-path="url(#clip610)" d="M0 1600 L2400 1600 L2400 0 L0 0  Z" fill="#ffffff" fill-rule="evenodd" fill-opacity="1"/>
<defs>
  <clipPath id="clip611">
    <rect x="480" y="0" width="1681" height="1600"/>
  </clipPath>
</defs>
<path clip-path="url(#clip610)" d="M147.478 1486.45 L2352.76 1486.45 L2352.76 47.2441 L147.478 47.2441  Z" fill="#ffffff" fill-rule="evenodd" fill-opacity="1"/>
<defs>
  <clipPath id="clip612">
    <rect x="147" y="47" width="2206" height="1440"/>
  </clipPath>
</defs>
<polyline clip-path="url(#clip612)" style="stroke:#000000; stroke-linecap:round; stroke-linejoin:round; stroke-width:2; stroke-opacity:0.1; fill:none" points="221.103,1486.45 221.103,47.2441 "/>
<polyline clip-path="url(#clip612)" style="stroke:#000000; stroke-linecap:round; stroke-linejoin:round; stroke-width:2; stroke-opacity:0.1; fill:none" points="621.945,1486.45 621.945,47.2441 "/>
<polyline clip-path="url(#clip612)" style="stroke:#000000; stroke-linecap:round; stroke-linejoin:round; stroke-width:2; stroke-opacity:0.1; fill:none" points="1022.79,1486.45 1022.79,47.2441 "/>
<polyline clip-path="url(#clip612)" style="stroke:#000000; stroke-linecap:round; stroke-linejoin:round; stroke-width:2; stroke-opacity:0.1; fill:none" points="1423.63,1486.45 1423.63,47.2441 "/>
<polyline clip-path="url(#clip612)" style="stroke:#000000; stroke-linecap:round; stroke-linejoin:round; stroke-width:2; stroke-opacity:0.1; fill:none" points="1824.47,1486.45 1824.47,47.2441 "/>
<polyline clip-path="url(#clip612)" style="stroke:#000000; stroke-linecap:round; stroke-linejoin:round; stroke-width:2; stroke-opacity:0.1; fill:none" points="2225.31,1486.45 2225.31,47.2441 "/>
<polyline clip-path="url(#clip612)" style="stroke:#000000; stroke-linecap:round; stroke-linejoin:round; stroke-width:2; stroke-opacity:0.1; fill:none" points="147.478,1434.23 2352.76,1434.23 "/>
<polyline clip-path="url(#clip612)" style="stroke:#000000; stroke-linecap:round; stroke-linejoin:round; stroke-width:2; stroke-opacity:0.1; fill:none" points="147.478,1069.51 2352.76,1069.51 "/>
<polyline clip-path="url(#clip612)" style="stroke:#000000; stroke-linecap:round; stroke-linejoin:round; stroke-width:2; stroke-opacity:0.1; fill:none" points="147.478,704.783 2352.76,704.783 "/>
<polyline clip-path="url(#clip612)" style="stroke:#000000; stroke-linecap:round; stroke-linejoin:round; stroke-width:2; stroke-opacity:0.1; fill:none" points="147.478,340.058 2352.76,340.058 "/>
<polyline clip-path="url(#clip610)" style="stroke:#000000; stroke-linecap:round; stroke-linejoin:round; stroke-width:4; stroke-opacity:1; fill:none" points="147.478,1486.45 2352.76,1486.45 "/>
<polyline clip-path="url(#clip610)" style="stroke:#000000; stroke-linecap:round; stroke-linejoin:round; stroke-width:4; stroke-opacity:1; fill:none" points="221.103,1486.45 221.103,1467.55 "/>
<polyline clip-path="url(#clip610)" style="stroke:#000000; stroke-linecap:round; stroke-linejoin:round; stroke-width:4; stroke-opacity:1; fill:none" points="621.945,1486.45 621.945,1467.55 "/>
<polyline clip-path="url(#clip610)" style="stroke:#000000; stroke-linecap:round; stroke-linejoin:round; stroke-width:4; stroke-opacity:1; fill:none" points="1022.79,1486.45 1022.79,1467.55 "/>
<polyline clip-path="url(#clip610)" style="stroke:#000000; stroke-linecap:round; stroke-linejoin:round; stroke-width:4; stroke-opacity:1; fill:none" points="1423.63,1486.45 1423.63,1467.55 "/>
<polyline clip-path="url(#clip610)" style="stroke:#000000; stroke-linecap:round; stroke-linejoin:round; stroke-width:4; stroke-opacity:1; fill:none" points="1824.47,1486.45 1824.47,1467.55 "/>
<polyline clip-path="url(#clip610)" style="stroke:#000000; stroke-linecap:round; stroke-linejoin:round; stroke-width:4; stroke-opacity:1; fill:none" points="2225.31,1486.45 2225.31,1467.55 "/>
<path clip-path="url(#clip610)" d="M191.045 1532.02 L220.721 1532.02 L220.721 1535.95 L191.045 1535.95 L191.045 1532.02 Z" fill="#000000" fill-rule="nonzero" fill-opacity="1" /><path clip-path="url(#clip610)" d="M234.841 1544.91 L251.161 1544.91 L251.161 1548.85 L229.216 1548.85 L229.216 1544.91 Q231.878 1542.16 236.462 1537.53 Q241.068 1532.88 242.249 1531.53 Q244.494 1529.01 245.374 1527.27 Q246.277 1525.51 246.277 1523.82 Q246.277 1521.07 244.332 1519.33 Q242.411 1517.6 239.309 1517.6 Q237.11 1517.6 234.656 1518.36 Q232.226 1519.13 229.448 1520.68 L229.448 1515.95 Q232.272 1514.82 234.726 1514.24 Q237.179 1513.66 239.216 1513.66 Q244.587 1513.66 247.781 1516.35 Q250.976 1519.03 250.976 1523.52 Q250.976 1525.65 250.165 1527.57 Q249.378 1529.47 247.272 1532.07 Q246.693 1532.74 243.591 1535.95 Q240.49 1539.15 234.841 1544.91 Z" fill="#000000" fill-rule="nonzero" fill-opacity="1" /><path clip-path="url(#clip610)" d="M591.702 1532.02 L621.378 1532.02 L621.378 1535.95 L591.702 1535.95 L591.702 1532.02 Z" fill="#000000" fill-rule="nonzero" fill-opacity="1" /><path clip-path="url(#clip610)" d="M632.281 1544.91 L639.92 1544.91 L639.92 1518.55 L631.61 1520.21 L631.61 1515.95 L639.873 1514.29 L644.549 1514.29 L644.549 1544.91 L652.188 1544.91 L652.188 1548.85 L632.281 1548.85 L632.281 1544.91 Z" fill="#000000" fill-rule="nonzero" fill-opacity="1" /><path clip-path="url(#clip610)" d="M1022.79 1517.37 Q1019.18 1517.37 1017.35 1520.93 Q1015.54 1524.47 1015.54 1531.6 Q1015.54 1538.71 1017.35 1542.27 Q1019.18 1545.82 1022.79 1545.82 Q1026.42 1545.82 1028.23 1542.27 Q1030.06 1538.71 1030.06 1531.6 Q1030.06 1524.47 1028.23 1520.93 Q1026.42 1517.37 1022.79 1517.37 M1022.79 1513.66 Q1028.6 1513.66 1031.65 1518.27 Q1034.73 1522.85 1034.73 1531.6 Q1034.73 1540.33 1031.65 1544.94 Q1028.6 1549.52 1022.79 1549.52 Q1016.98 1549.52 1013.9 1544.94 Q1010.84 1540.33 1010.84 1531.6 Q1010.84 1522.85 1013.9 1518.27 Q1016.98 1513.66 1022.79 1513.66 Z" fill="#000000" fill-rule="nonzero" fill-opacity="1" /><path clip-path="url(#clip610)" d="M1414.01 1544.91 L1421.65 1544.91 L1421.65 1518.55 L1413.34 1520.21 L1413.34 1515.95 L1421.6 1514.29 L1426.28 1514.29 L1426.28 1544.91 L1433.92 1544.91 L1433.92 1548.85 L1414.01 1548.85 L1414.01 1544.91 Z" fill="#000000" fill-rule="nonzero" fill-opacity="1" /><path clip-path="url(#clip610)" d="M1819.12 1544.91 L1835.44 1544.91 L1835.44 1548.85 L1813.5 1548.85 L1813.5 1544.91 Q1816.16 1542.16 1820.75 1537.53 Q1825.35 1532.88 1826.53 1531.53 Q1828.78 1529.01 1829.66 1527.27 Q1830.56 1525.51 1830.56 1523.82 Q1830.56 1521.07 1828.62 1519.33 Q1826.69 1517.6 1823.59 1517.6 Q1821.39 1517.6 1818.94 1518.36 Q1816.51 1519.13 1813.73 1520.68 L1813.73 1515.95 Q1816.56 1514.82 1819.01 1514.24 Q1821.46 1513.66 1823.5 1513.66 Q1828.87 1513.66 1832.06 1516.35 Q1835.26 1519.03 1835.26 1523.52 Q1835.26 1525.65 1834.45 1527.57 Q1833.66 1529.47 1831.56 1532.07 Q1830.98 1532.74 1827.87 1535.95 Q1824.77 1539.15 1819.12 1544.91 Z" fill="#000000" fill-rule="nonzero" fill-opacity="1" /><path clip-path="url(#clip610)" d="M2229.56 1530.21 Q2232.92 1530.93 2234.79 1533.2 Q2236.69 1535.47 2236.69 1538.8 Q2236.69 1543.92 2233.17 1546.72 Q2229.65 1549.52 2223.17 1549.52 Q2221 1549.52 2218.68 1549.08 Q2216.39 1548.66 2213.94 1547.81 L2213.94 1543.29 Q2215.88 1544.43 2218.2 1545.01 Q2220.51 1545.58 2223.03 1545.58 Q2227.43 1545.58 2229.72 1543.85 Q2232.04 1542.11 2232.04 1538.8 Q2232.04 1535.75 2229.89 1534.03 Q2227.76 1532.3 2223.94 1532.3 L2219.91 1532.3 L2219.91 1528.45 L2224.12 1528.45 Q2227.57 1528.45 2229.4 1527.09 Q2231.23 1525.7 2231.23 1523.11 Q2231.23 1520.45 2229.33 1519.03 Q2227.46 1517.6 2223.94 1517.6 Q2222.02 1517.6 2219.82 1518.01 Q2217.62 1518.43 2214.98 1519.31 L2214.98 1515.14 Q2217.64 1514.4 2219.96 1514.03 Q2222.29 1513.66 2224.35 1513.66 Q2229.68 1513.66 2232.78 1516.09 Q2235.88 1518.5 2235.88 1522.62 Q2235.88 1525.49 2234.24 1527.48 Q2232.59 1529.45 2229.56 1530.21 Z" fill="#000000" fill-rule="nonzero" fill-opacity="1" /><polyline clip-path="url(#clip610)" style="stroke:#000000; stroke-linecap:round; stroke-linejoin:round; stroke-width:4; stroke-opacity:1; fill:none" points="147.478,1486.45 147.478,47.2441 "/>
<polyline clip-path="url(#clip610)" style="stroke:#000000; stroke-linecap:round; stroke-linejoin:round; stroke-width:4; stroke-opacity:1; fill:none" points="147.478,1434.23 166.376,1434.23 "/>
<polyline clip-path="url(#clip610)" style="stroke:#000000; stroke-linecap:round; stroke-linejoin:round; stroke-width:4; stroke-opacity:1; fill:none" points="147.478,1069.51 166.376,1069.51 "/>
<polyline clip-path="url(#clip610)" style="stroke:#000000; stroke-linecap:round; stroke-linejoin:round; stroke-width:4; stroke-opacity:1; fill:none" points="147.478,704.783 166.376,704.783 "/>
<polyline clip-path="url(#clip610)" style="stroke:#000000; stroke-linecap:round; stroke-linejoin:round; stroke-width:4; stroke-opacity:1; fill:none" points="147.478,340.058 166.376,340.058 "/>
<path clip-path="url(#clip610)" d="M51.3625 1434.69 L81.0383 1434.69 L81.0383 1438.62 L51.3625 1438.62 L51.3625 1434.69 Z" fill="#000000" fill-rule="nonzero" fill-opacity="1" /><path clip-path="url(#clip610)" d="M95.1586 1447.58 L111.478 1447.58 L111.478 1451.51 L89.5336 1451.51 L89.5336 1447.58 Q92.1956 1444.82 96.7789 1440.2 Q101.385 1435.54 102.566 1434.2 Q104.811 1431.68 105.691 1429.94 Q106.594 1428.18 106.594 1426.49 Q106.594 1423.74 104.649 1422 Q102.728 1420.26 99.6261 1420.26 Q97.4271 1420.26 94.9734 1421.03 Q92.5428 1421.79 89.7651 1423.34 L89.7651 1418.62 Q92.5891 1417.49 95.0428 1416.91 Q97.4965 1416.33 99.5335 1416.33 Q104.904 1416.33 108.098 1419.01 Q111.293 1421.7 111.293 1426.19 Q111.293 1428.32 110.483 1430.24 Q109.696 1432.14 107.589 1434.73 Q107.01 1435.4 103.909 1438.62 Q100.807 1441.82 95.1586 1447.58 Z" fill="#000000" fill-rule="nonzero" fill-opacity="1" /><path clip-path="url(#clip610)" d="M50.9921 1069.96 L80.6679 1069.96 L80.6679 1073.9 L50.9921 1073.9 L50.9921 1069.96 Z" fill="#000000" fill-rule="nonzero" fill-opacity="1" /><path clip-path="url(#clip610)" d="M91.5706 1082.85 L99.2095 1082.85 L99.2095 1056.49 L90.8993 1058.15 L90.8993 1053.9 L99.1632 1052.23 L103.839 1052.23 L103.839 1082.85 L111.478 1082.85 L111.478 1086.79 L91.5706 1086.79 L91.5706 1082.85 Z" fill="#000000" fill-rule="nonzero" fill-opacity="1" /><path clip-path="url(#clip610)" d="M99.5335 690.582 Q95.9224 690.582 94.0937 694.147 Q92.2882 697.688 92.2882 704.818 Q92.2882 711.925 94.0937 715.489 Q95.9224 719.031 99.5335 719.031 Q103.168 719.031 104.973 715.489 Q106.802 711.925 106.802 704.818 Q106.802 697.688 104.973 694.147 Q103.168 690.582 99.5335 690.582 M99.5335 686.878 Q105.344 686.878 108.399 691.485 Q111.478 696.068 111.478 704.818 Q111.478 713.545 108.399 718.151 Q105.344 722.735 99.5335 722.735 Q93.7234 722.735 90.6447 718.151 Q87.5892 713.545 87.5892 704.818 Q87.5892 696.068 90.6447 691.485 Q93.7234 686.878 99.5335 686.878 Z" fill="#000000" fill-rule="nonzero" fill-opacity="1" /><path clip-path="url(#clip610)" d="M91.5706 353.403 L99.2095 353.403 L99.2095 327.037 L90.8993 328.704 L90.8993 324.444 L99.1632 322.778 L103.839 322.778 L103.839 353.403 L111.478 353.403 L111.478 357.338 L91.5706 357.338 L91.5706 353.403 Z" fill="#000000" fill-rule="nonzero" fill-opacity="1" /><circle clip-path="url(#clip612)" cx="1140.43" cy="811.224" r="14.4" fill="#009af9" fill-rule="evenodd" fill-opacity="0.5" stroke="#000000" stroke-opacity="0.5" stroke-width="3.2"/>
<circle clip-path="url(#clip612)" cx="876.756" cy="862.447" r="14.4" fill="#009af9" fill-rule="evenodd" fill-opacity="0.5" stroke="#000000" stroke-opacity="0.5" stroke-width="3.2"/>
<circle clip-path="url(#clip612)" cx="209.891" cy="800.832" r="14.4" fill="#009af9" fill-rule="evenodd" fill-opacity="0.5" stroke="#000000" stroke-opacity="0.5" stroke-width="3.2"/>
<circle clip-path="url(#clip612)" cx="1569.94" cy="1121.91" r="14.4" fill="#009af9" fill-rule="evenodd" fill-opacity="0.5" stroke="#000000" stroke-opacity="0.5" stroke-width="3.2"/>
<circle clip-path="url(#clip612)" cx="703.782" cy="874.461" r="14.4" fill="#009af9" fill-rule="evenodd" fill-opacity="0.5" stroke="#000000" stroke-opacity="0.5" stroke-width="3.2"/>
<circle clip-path="url(#clip612)" cx="906.535" cy="964.585" r="14.4" fill="#009af9" fill-rule="evenodd" fill-opacity="0.5" stroke="#000000" stroke-opacity="0.5" stroke-width="3.2"/>
<circle clip-path="url(#clip612)" cx="859.042" cy="399.438" r="14.4" fill="#009af9" fill-rule="evenodd" fill-opacity="0.5" stroke="#000000" stroke-opacity="0.5" stroke-width="3.2"/>
<circle clip-path="url(#clip612)" cx="620.499" cy="874.15" r="14.4" fill="#009af9" fill-rule="evenodd" fill-opacity="0.5" stroke="#000000" stroke-opacity="0.5" stroke-width="3.2"/>
<circle clip-path="url(#clip612)" cx="1322.17" cy="652.216" r="14.4" fill="#009af9" fill-rule="evenodd" fill-opacity="0.5" stroke="#000000" stroke-opacity="0.5" stroke-width="3.2"/>
<circle clip-path="url(#clip612)" cx="760.506" cy="1445.72" r="14.4" fill="#009af9" fill-rule="evenodd" fill-opacity="0.5" stroke="#000000" stroke-opacity="0.5" stroke-width="3.2"/>
<circle clip-path="url(#clip612)" cx="1370.81" cy="861.722" r="14.4" fill="#009af9" fill-rule="evenodd" fill-opacity="0.5" stroke="#000000" stroke-opacity="0.5" stroke-width="3.2"/>
<circle clip-path="url(#clip612)" cx="936.826" cy="464.171" r="14.4" fill="#009af9" fill-rule="evenodd" fill-opacity="0.5" stroke="#000000" stroke-opacity="0.5" stroke-width="3.2"/>
<circle clip-path="url(#clip612)" cx="814.983" cy="668.106" r="14.4" fill="#009af9" fill-rule="evenodd" fill-opacity="0.5" stroke="#000000" stroke-opacity="0.5" stroke-width="3.2"/>
<circle clip-path="url(#clip612)" cx="1232.5" cy="293.851" r="14.4" fill="#009af9" fill-rule="evenodd" fill-opacity="0.5" stroke="#000000" stroke-opacity="0.5" stroke-width="3.2"/>
<circle clip-path="url(#clip612)" cx="569.258" cy="993.647" r="14.4" fill="#009af9" fill-rule="evenodd" fill-opacity="0.5" stroke="#000000" stroke-opacity="0.5" stroke-width="3.2"/>
<circle clip-path="url(#clip612)" cx="979.705" cy="1211.06" r="14.4" fill="#009af9" fill-rule="evenodd" fill-opacity="0.5" stroke="#000000" stroke-opacity="0.5" stroke-width="3.2"/>
<circle clip-path="url(#clip612)" cx="1648.89" cy="318.725" r="14.4" fill="#009af9" fill-rule="evenodd" fill-opacity="0.5" stroke="#000000" stroke-opacity="0.5" stroke-width="3.2"/>
<circle clip-path="url(#clip612)" cx="1294.23" cy="777.528" r="14.4" fill="#009af9" fill-rule="evenodd" fill-opacity="0.5" stroke="#000000" stroke-opacity="0.5" stroke-width="3.2"/>
<circle clip-path="url(#clip612)" cx="966.996" cy="693.869" r="14.4" fill="#009af9" fill-rule="evenodd" fill-opacity="0.5" stroke="#000000" stroke-opacity="0.5" stroke-width="3.2"/>
<circle clip-path="url(#clip612)" cx="1181.93" cy="971.601" r="14.4" fill="#009af9" fill-rule="evenodd" fill-opacity="0.5" stroke="#000000" stroke-opacity="0.5" stroke-width="3.2"/>
<circle clip-path="url(#clip612)" cx="1271.23" cy="884.662" r="14.4" fill="#009af9" fill-rule="evenodd" fill-opacity="0.5" stroke="#000000" stroke-opacity="0.5" stroke-width="3.2"/>
<circle clip-path="url(#clip612)" cx="2290.34" cy="1341.86" r="14.4" fill="#009af9" fill-rule="evenodd" fill-opacity="0.5" stroke="#000000" stroke-opacity="0.5" stroke-width="3.2"/>
<circle clip-path="url(#clip612)" cx="808.608" cy="1137.48" r="14.4" fill="#009af9" fill-rule="evenodd" fill-opacity="0.5" stroke="#000000" stroke-opacity="0.5" stroke-width="3.2"/>
<circle clip-path="url(#clip612)" cx="943.902" cy="1256.78" r="14.4" fill="#009af9" fill-rule="evenodd" fill-opacity="0.5" stroke="#000000" stroke-opacity="0.5" stroke-width="3.2"/>
<circle clip-path="url(#clip612)" cx="742.375" cy="1090.44" r="14.4" fill="#009af9" fill-rule="evenodd" fill-opacity="0.5" stroke="#000000" stroke-opacity="0.5" stroke-width="3.2"/>
<circle clip-path="url(#clip612)" cx="907.336" cy="1167.73" r="14.4" fill="#009af9" fill-rule="evenodd" fill-opacity="0.5" stroke="#000000" stroke-opacity="0.5" stroke-width="3.2"/>
<circle clip-path="url(#clip612)" cx="1205.45" cy="850.21" r="14.4" fill="#009af9" fill-rule="evenodd" fill-opacity="0.5" stroke="#000000" stroke-opacity="0.5" stroke-width="3.2"/>
<circle clip-path="url(#clip612)" cx="587.911" cy="1249.91" r="14.4" fill="#009af9" fill-rule="evenodd" fill-opacity="0.5" stroke="#000000" stroke-opacity="0.5" stroke-width="3.2"/>
<circle clip-path="url(#clip612)" cx="1087.77" cy="740.117" r="14.4" fill="#009af9" fill-rule="evenodd" fill-opacity="0.5" stroke="#000000" stroke-opacity="0.5" stroke-width="3.2"/>
<circle clip-path="url(#clip612)" cx="1500.2" cy="87.9763" r="14.4" fill="#009af9" fill-rule="evenodd" fill-opacity="0.5" stroke="#000000" stroke-opacity="0.5" stroke-width="3.2"/>
<path clip-path="url(#clip612)" d="M209.891 800.832 L587.911 1249.91 L760.506 1445.72 L2290.34 1341.86 L1648.89 318.725 L1500.2 87.9763 L859.042 399.438 L209.891 800.832 L209.891 800.832  Z" fill="#e26f46" fill-rule="evenodd" fill-opacity="0.2"/>
<polyline clip-path="url(#clip612)" style="stroke:#000000; stroke-linecap:round; stroke-linejoin:round; stroke-width:4; stroke-opacity:0.2; fill:none" points="209.891,800.832 587.911,1249.91 760.506,1445.72 2290.34,1341.86 1648.89,318.725 1500.2,87.9763 859.042,399.438 209.891,800.832 "/>
</svg>
