<?xml version="1.0" encoding="utf-8"?>
<svg xmlns="http://www.w3.org/2000/svg" xmlns:xlink="http://www.w3.org/1999/xlink" width="600" height="400" viewBox="0 0 2400 1600">
<defs>
  <clipPath id="clip530">
    <rect x="0" y="0" width="2400" height="1600"/>
  </clipPath>
</defs>
<path clip-path="url(#clip530)" d="M0 1600 L2400 1600 L2400 0 L0 0  Z" fill="#ffffff" fill-rule="evenodd" fill-opacity="1"/>
<defs>
  <clipPath id="clip531">
    <rect x="480" y="0" width="1681" height="1600"/>
  </clipPath>
</defs>
<path clip-path="url(#clip530)" d="M147.478 1486.45 L2352.76 1486.45 L2352.76 47.2441 L147.478 47.2441  Z" fill="#ffffff" fill-rule="evenodd" fill-opacity="1"/>
<defs>
  <clipPath id="clip532">
    <rect x="147" y="47" width="2206" height="1440"/>
  </clipPath>
</defs>
<polyline clip-path="url(#clip532)" style="stroke:#000000; stroke-linecap:round; stroke-linejoin:round; stroke-width:2; stroke-opacity:0.1; fill:none" points="350.174,1486.45 350.174,47.2441 "/>
<polyline clip-path="url(#clip532)" style="stroke:#000000; stroke-linecap:round; stroke-linejoin:round; stroke-width:2; stroke-opacity:0.1; fill:none" points="921.277,1486.45 921.277,47.2441 "/>
<polyline clip-path="url(#clip532)" style="stroke:#000000; stroke-linecap:round; stroke-linejoin:round; stroke-width:2; stroke-opacity:0.1; fill:none" points="1492.38,1486.45 1492.38,47.2441 "/>
<polyline clip-path="url(#clip532)" style="stroke:#000000; stroke-linecap:round; stroke-linejoin:round; stroke-width:2; stroke-opacity:0.1; fill:none" points="2063.48,1486.45 2063.48,47.2441 "/>
<polyline clip-path="url(#clip530)" style="stroke:#000000; stroke-linecap:round; stroke-linejoin:round; stroke-width:4; stroke-opacity:1; fill:none" points="147.478,1486.45 2352.76,1486.45 "/>
<polyline clip-path="url(#clip530)" style="stroke:#000000; stroke-linecap:round; stroke-linejoin:round; stroke-width:4; stroke-opacity:1; fill:none" points="350.174,1486.45 350.174,1467.55 "/>
<polyline clip-path="url(#clip530)" style="stroke:#000000; stroke-linecap:round; stroke-linejoin:round; stroke-width:4; stroke-opacity:1; fill:none" points="921.277,1486.45 921.277,1467.55 "/>
<polyline clip-path="url(#clip530)" style="stroke:#000000; stroke-linecap:round; stroke-linejoin:round; stroke-width:4; stroke-opacity:1; fill:none" points="1492.38,1486.45 1492.38,1467.55 "/>
<polyline clip-path="url(#clip530)" style="stroke:#000000; stroke-linecap:round; stroke-linejoin:round; stroke-width:4; stroke-opacity:1; fill:none" points="2063.48,1486.45 2063.48,1467.55 "/>
<path clip-path="url(#clip530)" d="M320.116 1532.02 L349.792 1532.02 L349.792 1535.95 L320.116 1535.95 L320.116 1532.02 Z" fill="#000000" fill-rule="nonzero" fill-opacity="1" /><path clip-path="url(#clip530)" d="M363.912 1544.91 L380.232 1544.91 L380.232 1548.85 L358.287 1548.85 L358.287 1544.91 Q360.949 1542.16 365.533 1537.53 Q370.139 1532.88 371.32 1531.53 Q373.565 1529.01 374.445 1527.27 Q375.347 1525.51 375.347 1523.82 Q375.347 1521.07 373.403 1519.33 Q371.482 1517.6 368.38 1517.6 Q366.181 1517.6 363.727 1518.36 Q361.297 1519.13 358.519 1520.68 L358.519 1515.95 Q361.343 1514.82 363.797 1514.24 Q366.25 1513.66 368.287 1513.66 Q373.658 1513.66 376.852 1516.35 Q380.047 1519.03 380.047 1523.52 Q380.047 1525.65 379.236 1527.57 Q378.449 1529.47 376.343 1532.07 Q375.764 1532.74 372.662 1535.95 Q369.56 1539.15 363.912 1544.91 Z" fill="#000000" fill-rule="nonzero" fill-opacity="1" /><path clip-path="url(#clip530)" d="M891.034 1532.02 L920.71 1532.02 L920.71 1535.95 L891.034 1535.95 L891.034 1532.02 Z" fill="#000000" fill-rule="nonzero" fill-opacity="1" /><path clip-path="url(#clip530)" d="M931.613 1544.91 L939.251 1544.91 L939.251 1518.55 L930.941 1520.21 L930.941 1515.95 L939.205 1514.29 L943.881 1514.29 L943.881 1544.91 L951.52 1544.91 L951.52 1548.85 L931.613 1548.85 L931.613 1544.91 Z" fill="#000000" fill-rule="nonzero" fill-opacity="1" /><path clip-path="url(#clip530)" d="M1492.38 1517.37 Q1488.77 1517.37 1486.94 1520.93 Q1485.13 1524.47 1485.13 1531.6 Q1485.13 1538.71 1486.94 1542.27 Q1488.77 1545.82 1492.38 1545.82 Q1496.01 1545.82 1497.82 1542.27 Q1499.65 1538.71 1499.65 1531.6 Q1499.65 1524.47 1497.82 1520.93 Q1496.01 1517.37 1492.38 1517.37 M1492.38 1513.66 Q1498.19 1513.66 1501.25 1518.27 Q1504.32 1522.85 1504.32 1531.6 Q1504.32 1540.33 1501.25 1544.94 Q1498.19 1549.52 1492.38 1549.52 Q1486.57 1549.52 1483.49 1544.94 Q1480.44 1540.33 1480.44 1531.6 Q1480.44 1522.85 1483.49 1518.27 Q1486.57 1513.66 1492.38 1513.66 Z" fill="#000000" fill-rule="nonzero" fill-opacity="1" /><path clip-path="url(#clip530)" d="M2053.86 1544.91 L2061.5 1544.91 L2061.5 1518.55 L2053.19 1520.21 L2053.19 1515.95 L2061.46 1514.29 L2066.13 1514.29 L2066.13 1544.91 L2073.77 1544.91 L2073.77 1548.85 L2053.86 1548.85 L2053.86 1544.91 Z" fill="#000000" fill-rule="nonzero" fill-opacity="1" /><polyline clip-path="url(#clip532)" style="stroke:#000000; stroke-linecap:round; stroke-linejoin:round; stroke-width:2; stroke-opacity:0.1; fill:none" points="147.478,1481.27 2352.76,1481.27 "/>
<polyline clip-path="url(#clip532)" style="stroke:#000000; stroke-linecap:round; stroke-linejoin:round; stroke-width:2; stroke-opacity:0.1; fill:none" points="147.478,1057.6 2352.76,1057.6 "/>
<polyline clip-path="url(#clip532)" style="stroke:#000000; stroke-linecap:round; stroke-linejoin:round; stroke-width:2; stroke-opacity:0.1; fill:none" points="147.478,633.933 2352.76,633.933 "/>
<polyline clip-path="url(#clip532)" style="stroke:#000000; stroke-linecap:round; stroke-linejoin:round; stroke-width:2; stroke-opacity:0.1; fill:none" points="147.478,210.263 2352.76,210.263 "/>
<polyline clip-path="url(#clip530)" style="stroke:#000000; stroke-linecap:round; stroke-linejoin:round; stroke-width:4; stroke-opacity:1; fill:none" points="147.478,1486.45 147.478,47.2441 "/>
<polyline clip-path="url(#clip530)" style="stroke:#000000; stroke-linecap:round; stroke-linejoin:round; stroke-width:4; stroke-opacity:1; fill:none" points="147.478,1481.27 166.376,1481.27 "/>
<polyline clip-path="url(#clip530)" style="stroke:#000000; stroke-linecap:round; stroke-linejoin:round; stroke-width:4; stroke-opacity:1; fill:none" points="147.478,1057.6 166.376,1057.6 "/>
<polyline clip-path="url(#clip530)" style="stroke:#000000; stroke-linecap:round; stroke-linejoin:round; stroke-width:4; stroke-opacity:1; fill:none" points="147.478,633.933 166.376,633.933 "/>
<polyline clip-path="url(#clip530)" style="stroke:#000000; stroke-linecap:round; stroke-linejoin:round; stroke-width:4; stroke-opacity:1; fill:none" points="147.478,210.263 166.376,210.263 "/>
<path clip-path="url(#clip530)" d="M51.3625 1481.72 L81.0383 1481.72 L81.0383 1485.66 L51.3625 1485.66 L51.3625 1481.72 Z" fill="#000000" fill-rule="nonzero" fill-opacity="1" /><path clip-path="url(#clip530)" d="M95.1586 1494.62 L111.478 1494.62 L111.478 1498.55 L89.5336 1498.55 L89.5336 1494.62 Q92.1956 1491.86 96.7789 1487.23 Q101.385 1482.58 102.566 1481.24 Q104.811 1478.71 105.691 1476.98 Q106.594 1475.22 106.594 1473.53 Q106.594 1470.77 104.649 1469.04 Q102.728 1467.3 99.6261 1467.3 Q97.4271 1467.3 94.9734 1468.07 Q92.5428 1468.83 89.7651 1470.38 L89.7651 1465.66 Q92.5891 1464.52 95.0428 1463.95 Q97.4965 1463.37 99.5335 1463.37 Q104.904 1463.37 108.098 1466.05 Q111.293 1468.74 111.293 1473.23 Q111.293 1475.36 110.483 1477.28 Q109.696 1479.18 107.589 1481.77 Q107.01 1482.44 103.909 1485.66 Q100.807 1488.85 95.1586 1494.62 Z" fill="#000000" fill-rule="nonzero" fill-opacity="1" /><path clip-path="url(#clip530)" d="M50.9921 1058.05 L80.6679 1058.05 L80.6679 1061.99 L50.9921 1061.99 L50.9921 1058.05 Z" fill="#000000" fill-rule="nonzero" fill-opacity="1" /><path clip-path="url(#clip530)" d="M91.5706 1070.95 L99.2095 1070.95 L99.2095 1044.58 L90.8993 1046.25 L90.8993 1041.99 L99.1632 1040.32 L103.839 1040.32 L103.839 1070.95 L111.478 1070.95 L111.478 1074.88 L91.5706 1074.88 L91.5706 1070.95 Z" fill="#000000" fill-rule="nonzero" fill-opacity="1" /><path clip-path="url(#clip530)" d="M99.5335 619.732 Q95.9224 619.732 94.0937 623.297 Q92.2882 626.838 92.2882 633.968 Q92.2882 641.074 94.0937 644.639 Q95.9224 648.181 99.5335 648.181 Q103.168 648.181 104.973 644.639 Q106.802 641.074 106.802 633.968 Q106.802 626.838 104.973 623.297 Q103.168 619.732 99.5335 619.732 M99.5335 616.028 Q105.344 616.028 108.399 620.635 Q111.478 625.218 111.478 633.968 Q111.478 642.695 108.399 647.301 Q105.344 651.884 99.5335 651.884 Q93.7234 651.884 90.6447 647.301 Q87.5892 642.695 87.5892 633.968 Q87.5892 625.218 90.6447 620.635 Q93.7234 616.028 99.5335 616.028 Z" fill="#000000" fill-rule="nonzero" fill-opacity="1" /><path clip-path="url(#clip530)" d="M91.5706 223.608 L99.2095 223.608 L99.2095 197.243 L90.8993 198.909 L90.8993 194.65 L99.1632 192.983 L103.839 192.983 L103.839 223.608 L111.478 223.608 L111.478 227.543 L91.5706 227.543 L91.5706 223.608 Z" fill="#000000" fill-rule="nonzero" fill-opacity="1" /><circle clip-path="url(#clip532)" cx="2004.32" cy="809.04" r="14.4" fill="#009af9" fill-rule="evenodd" fill-opacity="0.5" stroke="#000000" stroke-opacity="0.5" stroke-width="3.2"/>
<circle clip-path="url(#clip532)" cx="209.891" cy="789.597" r="14.4" fill="#009af9" fill-rule="evenodd" fill-opacity="0.5" stroke="#000000" stroke-opacity="0.5" stroke-width="3.2"/>
<circle clip-path="url(#clip532)" cx="2069.27" cy="87.9763" r="14.4" fill="#009af9" fill-rule="evenodd" fill-opacity="0.5" stroke="#000000" stroke-opacity="0.5" stroke-width="3.2"/>
<circle clip-path="url(#clip532)" cx="1014.18" cy="970.623" r="14.4" fill="#009af9" fill-rule="evenodd" fill-opacity="0.5" stroke="#000000" stroke-opacity="0.5" stroke-width="3.2"/>
<circle clip-path="url(#clip532)" cx="1221.55" cy="1264.88" r="14.4" fill="#009af9" fill-rule="evenodd" fill-opacity="0.5" stroke="#000000" stroke-opacity="0.5" stroke-width="3.2"/>
<circle clip-path="url(#clip532)" cx="1851.16" cy="715.86" r="14.4" fill="#009af9" fill-rule="evenodd" fill-opacity="0.5" stroke="#000000" stroke-opacity="0.5" stroke-width="3.2"/>
<circle clip-path="url(#clip532)" cx="1793.63" cy="588.927" r="14.4" fill="#009af9" fill-rule="evenodd" fill-opacity="0.5" stroke="#000000" stroke-opacity="0.5" stroke-width="3.2"/>
<circle clip-path="url(#clip532)" cx="1109.21" cy="1215.64" r="14.4" fill="#009af9" fill-rule="evenodd" fill-opacity="0.5" stroke="#000000" stroke-opacity="0.5" stroke-width="3.2"/>
<circle clip-path="url(#clip532)" cx="1271.43" cy="855.928" r="14.4" fill="#009af9" fill-rule="evenodd" fill-opacity="0.5" stroke="#000000" stroke-opacity="0.5" stroke-width="3.2"/>
<circle clip-path="url(#clip532)" cx="1444.38" cy="645.244" r="14.4" fill="#009af9" fill-rule="evenodd" fill-opacity="0.5" stroke="#000000" stroke-opacity="0.5" stroke-width="3.2"/>
<circle clip-path="url(#clip532)" cx="1115.33" cy="1445.72" r="14.4" fill="#009af9" fill-rule="evenodd" fill-opacity="0.5" stroke="#000000" stroke-opacity="0.5" stroke-width="3.2"/>
<circle clip-path="url(#clip532)" cx="1799.28" cy="793.42" r="14.4" fill="#009af9" fill-rule="evenodd" fill-opacity="0.5" stroke="#000000" stroke-opacity="0.5" stroke-width="3.2"/>
<circle clip-path="url(#clip532)" cx="1675.33" cy="731.442" r="14.4" fill="#009af9" fill-rule="evenodd" fill-opacity="0.5" stroke="#000000" stroke-opacity="0.5" stroke-width="3.2"/>
<circle clip-path="url(#clip532)" cx="1285.48" cy="1001.75" r="14.4" fill="#009af9" fill-rule="evenodd" fill-opacity="0.5" stroke="#000000" stroke-opacity="0.5" stroke-width="3.2"/>
<circle clip-path="url(#clip532)" cx="1326.88" cy="687.774" r="14.4" fill="#009af9" fill-rule="evenodd" fill-opacity="0.5" stroke="#000000" stroke-opacity="0.5" stroke-width="3.2"/>
<circle clip-path="url(#clip532)" cx="1094.11" cy="483.864" r="14.4" fill="#009af9" fill-rule="evenodd" fill-opacity="0.5" stroke="#000000" stroke-opacity="0.5" stroke-width="3.2"/>
<circle clip-path="url(#clip532)" cx="1928.11" cy="890.484" r="14.4" fill="#009af9" fill-rule="evenodd" fill-opacity="0.5" stroke="#000000" stroke-opacity="0.5" stroke-width="3.2"/>
<circle clip-path="url(#clip532)" cx="1306.07" cy="759.788" r="14.4" fill="#009af9" fill-rule="evenodd" fill-opacity="0.5" stroke="#000000" stroke-opacity="0.5" stroke-width="3.2"/>
<circle clip-path="url(#clip532)" cx="833.332" cy="332.194" r="14.4" fill="#009af9" fill-rule="evenodd" fill-opacity="0.5" stroke="#000000" stroke-opacity="0.5" stroke-width="3.2"/>
<circle clip-path="url(#clip532)" cx="704.68" cy="915.481" r="14.4" fill="#009af9" fill-rule="evenodd" fill-opacity="0.5" stroke="#000000" stroke-opacity="0.5" stroke-width="3.2"/>
<circle clip-path="url(#clip532)" cx="1772.68" cy="625.381" r="14.4" fill="#009af9" fill-rule="evenodd" fill-opacity="0.5" stroke="#000000" stroke-opacity="0.5" stroke-width="3.2"/>
<circle clip-path="url(#clip532)" cx="1231.08" cy="1118.8" r="14.4" fill="#009af9" fill-rule="evenodd" fill-opacity="0.5" stroke="#000000" stroke-opacity="0.5" stroke-width="3.2"/>
<circle clip-path="url(#clip532)" cx="1487.19" cy="547.861" r="14.4" fill="#009af9" fill-rule="evenodd" fill-opacity="0.5" stroke="#000000" stroke-opacity="0.5" stroke-width="3.2"/>
<circle clip-path="url(#clip532)" cx="2290.34" cy="1008.35" r="14.4" fill="#009af9" fill-rule="evenodd" fill-opacity="0.5" stroke="#000000" stroke-opacity="0.5" stroke-width="3.2"/>
<circle clip-path="url(#clip532)" cx="1013.75" cy="866.783" r="14.4" fill="#009af9" fill-rule="evenodd" fill-opacity="0.5" stroke="#000000" stroke-opacity="0.5" stroke-width="3.2"/>
<circle clip-path="url(#clip532)" cx="696.711" cy="553.088" r="14.4" fill="#009af9" fill-rule="evenodd" fill-opacity="0.5" stroke="#000000" stroke-opacity="0.5" stroke-width="3.2"/>
<circle clip-path="url(#clip532)" cx="566.994" cy="957.45" r="14.4" fill="#009af9" fill-rule="evenodd" fill-opacity="0.5" stroke="#000000" stroke-opacity="0.5" stroke-width="3.2"/>
<circle clip-path="url(#clip532)" cx="1467.54" cy="770.409" r="14.4" fill="#009af9" fill-rule="evenodd" fill-opacity="0.5" stroke="#000000" stroke-opacity="0.5" stroke-width="3.2"/>
<circle clip-path="url(#clip532)" cx="1502.37" cy="1240.89" r="14.4" fill="#009af9" fill-rule="evenodd" fill-opacity="0.5" stroke="#000000" stroke-opacity="0.5" stroke-width="3.2"/>
<circle clip-path="url(#clip532)" cx="2145.55" cy="574.932" r="14.4" fill="#009af9" fill-rule="evenodd" fill-opacity="0.5" stroke="#000000" stroke-opacity="0.5" stroke-width="3.2"/>
<path clip-path="url(#clip532)" d="M209.891 789.597 L1115.33 1445.72 L2290.34 1008.35 L2069.27 87.9763 L833.332 332.194 L209.891 789.597 L209.891 789.597  Z" fill="#e26f46" fill-rule="evenodd" fill-opacity="0.2"/>
<polyline clip-path="url(#clip532)" style="stroke:#000000; stroke-linecap:round; stroke-linejoin:round; stroke-width:4; stroke-opacity:0.2; fill:none" points="209.891,789.597 1115.33,1445.72 2290.34,1008.35 2069.27,87.9763 833.332,332.194 209.891,789.597 "/>
</svg>
