<?xml version="1.0" encoding="utf-8"?>
<svg xmlns="http://www.w3.org/2000/svg" xmlns:xlink="http://www.w3.org/1999/xlink" width="600" height="400" viewBox="0 0 2400 1600">
<defs>
  <clipPath id="clip630">
    <rect x="0" y="0" width="2400" height="1600"/>
  </clipPath>
</defs>
<path clip-path="url(#clip630)" d="M0 1600 L2400 1600 L2400 0 L0 0  Z" fill="#ffffff" fill-rule="evenodd" fill-opacity="1"/>
<defs>
  <clipPath id="clip631">
    <rect x="480" y="0" width="1681" height="1600"/>
  </clipPath>
</defs>
<path clip-path="url(#clip630)" d="M147.478 1486.45 L2352.76 1486.45 L2352.76 47.2441 L147.478 47.2441  Z" fill="#ffffff" fill-rule="evenodd" fill-opacity="1"/>
<defs>
  <clipPath id="clip632">
    <rect x="147" y="47" width="2206" height="1440"/>
  </clipPath>
</defs>
<polyline clip-path="url(#clip632)" style="stroke:#000000; stroke-linecap:round; stroke-linejoin:round; stroke-width:2; stroke-opacity:0.1; fill:none" points="524.921,1486.45 524.921,47.2441 "/>
<polyline clip-path="url(#clip632)" style="stroke:#000000; stroke-linecap:round; stroke-linejoin:round; stroke-width:2; stroke-opacity:0.1; fill:none" points="1122.07,1486.45 1122.07,47.2441 "/>
<polyline clip-path="url(#clip632)" style="stroke:#000000; stroke-linecap:round; stroke-linejoin:round; stroke-width:2; stroke-opacity:0.1; fill:none" points="1719.22,1486.45 1719.22,47.2441 "/>
<polyline clip-path="url(#clip632)" style="stroke:#000000; stroke-linecap:round; stroke-linejoin:round; stroke-width:2; stroke-opacity:0.1; fill:none" points="2316.36,1486.45 2316.36,47.2441 "/>
<polyline clip-path="url(#clip632)" style="stroke:#000000; stroke-linecap:round; stroke-linejoin:round; stroke-width:2; stroke-opacity:0.1; fill:none" points="147.478,1292.84 2352.76,1292.84 "/>
<polyline clip-path="url(#clip632)" style="stroke:#000000; stroke-linecap:round; stroke-linejoin:round; stroke-width:2; stroke-opacity:0.1; fill:none" points="147.478,891.653 2352.76,891.653 "/>
<polyline clip-path="url(#clip632)" style="stroke:#000000; stroke-linecap:round; stroke-linejoin:round; stroke-width:2; stroke-opacity:0.1; fill:none" points="147.478,490.463 2352.76,490.463 "/>
<polyline clip-path="url(#clip632)" style="stroke:#000000; stroke-linecap:round; stroke-linejoin:round; stroke-width:2; stroke-opacity:0.1; fill:none" points="147.478,89.2722 2352.76,89.2722 "/>
<polyline clip-path="url(#clip630)" style="stroke:#000000; stroke-linecap:round; stroke-linejoin:round; stroke-width:4; stroke-opacity:1; fill:none" points="147.478,1486.45 2352.76,1486.45 "/>
<polyline clip-path="url(#clip630)" style="stroke:#000000; stroke-linecap:round; stroke-linejoin:round; stroke-width:4; stroke-opacity:1; fill:none" points="524.921,1486.45 524.921,1467.55 "/>
<polyline clip-path="url(#clip630)" style="stroke:#000000; stroke-linecap:round; stroke-linejoin:round; stroke-width:4; stroke-opacity:1; fill:none" points="1122.07,1486.45 1122.07,1467.55 "/>
<polyline clip-path="url(#clip630)" style="stroke:#000000; stroke-linecap:round; stroke-linejoin:round; stroke-width:4; stroke-opacity:1; fill:none" points="1719.22,1486.45 1719.22,1467.55 "/>
<polyline clip-path="url(#clip630)" style="stroke:#000000; stroke-linecap:round; stroke-linejoin:round; stroke-width:4; stroke-opacity:1; fill:none" points="2316.36,1486.45 2316.36,1467.55 "/>
<path clip-path="url(#clip630)" d="M494.678 1532.02 L524.354 1532.02 L524.354 1535.95 L494.678 1535.95 L494.678 1532.02 Z" fill="#000000" fill-rule="nonzero" fill-opacity="1" /><path clip-path="url(#clip630)" d="M535.256 1544.91 L542.895 1544.91 L542.895 1518.55 L534.585 1520.21 L534.585 1515.95 L542.849 1514.29 L547.525 1514.29 L547.525 1544.91 L555.164 1544.91 L555.164 1548.85 L535.256 1548.85 L535.256 1544.91 Z" fill="#000000" fill-rule="nonzero" fill-opacity="1" /><path clip-path="url(#clip630)" d="M1122.07 1517.37 Q1118.46 1517.37 1116.63 1520.93 Q1114.82 1524.47 1114.82 1531.6 Q1114.82 1538.71 1116.63 1542.27 Q1118.46 1545.82 1122.07 1545.82 Q1125.7 1545.82 1127.51 1542.27 Q1129.34 1538.71 1129.34 1531.6 Q1129.34 1524.47 1127.51 1520.93 Q1125.7 1517.37 1122.07 1517.37 M1122.07 1513.66 Q1127.88 1513.66 1130.93 1518.27 Q1134.01 1522.85 1134.01 1531.6 Q1134.01 1540.33 1130.93 1544.94 Q1127.88 1549.52 1122.07 1549.52 Q1116.26 1549.52 1113.18 1544.94 Q1110.12 1540.33 1110.12 1531.6 Q1110.12 1522.85 1113.18 1518.27 Q1116.26 1513.66 1122.07 1513.66 Z" fill="#000000" fill-rule="nonzero" fill-opacity="1" /><path clip-path="url(#clip630)" d="M1709.6 1544.91 L1717.24 1544.91 L1717.24 1518.55 L1708.93 1520.21 L1708.93 1515.95 L1717.19 1514.29 L1721.87 1514.29 L1721.87 1544.91 L1729.51 1544.91 L1729.51 1548.85 L1709.6 1548.85 L1709.6 1544.91 Z" fill="#000000" fill-rule="nonzero" fill-opacity="1" /><path clip-path="url(#clip630)" d="M2311.02 1544.91 L2327.34 1544.91 L2327.34 1548.85 L2305.39 1548.85 L2305.39 1544.91 Q2308.05 1542.16 2312.64 1537.53 Q2317.24 1532.88 2318.42 1531.53 Q2320.67 1529.01 2321.55 1527.27 Q2322.45 1525.51 2322.45 1523.82 Q2322.45 1521.07 2320.51 1519.33 Q2318.59 1517.6 2315.48 1517.6 Q2313.29 1517.6 2310.83 1518.36 Q2308.4 1519.13 2305.62 1520.68 L2305.62 1515.95 Q2308.45 1514.82 2310.9 1514.24 Q2313.35 1513.66 2315.39 1513.66 Q2320.76 1513.66 2323.96 1516.35 Q2327.15 1519.03 2327.15 1523.52 Q2327.15 1525.65 2326.34 1527.57 Q2325.55 1529.47 2323.45 1532.07 Q2322.87 1532.74 2319.77 1535.95 Q2316.66 1539.15 2311.02 1544.91 Z" fill="#000000" fill-rule="nonzero" fill-opacity="1" /><polyline clip-path="url(#clip630)" style="stroke:#000000; stroke-linecap:round; stroke-linejoin:round; stroke-width:4; stroke-opacity:1; fill:none" points="147.478,1486.45 147.478,47.2441 "/>
<polyline clip-path="url(#clip630)" style="stroke:#000000; stroke-linecap:round; stroke-linejoin:round; stroke-width:4; stroke-opacity:1; fill:none" points="147.478,1292.84 166.376,1292.84 "/>
<polyline clip-path="url(#clip630)" style="stroke:#000000; stroke-linecap:round; stroke-linejoin:round; stroke-width:4; stroke-opacity:1; fill:none" points="147.478,891.653 166.376,891.653 "/>
<polyline clip-path="url(#clip630)" style="stroke:#000000; stroke-linecap:round; stroke-linejoin:round; stroke-width:4; stroke-opacity:1; fill:none" points="147.478,490.463 166.376,490.463 "/>
<polyline clip-path="url(#clip630)" style="stroke:#000000; stroke-linecap:round; stroke-linejoin:round; stroke-width:4; stroke-opacity:1; fill:none" points="147.478,89.2722 166.376,89.2722 "/>
<path clip-path="url(#clip630)" d="M51.3625 1293.29 L81.0383 1293.29 L81.0383 1297.23 L51.3625 1297.23 L51.3625 1293.29 Z" fill="#000000" fill-rule="nonzero" fill-opacity="1" /><path clip-path="url(#clip630)" d="M95.1586 1306.19 L111.478 1306.19 L111.478 1310.12 L89.5336 1310.12 L89.5336 1306.19 Q92.1956 1303.43 96.7789 1298.8 Q101.385 1294.15 102.566 1292.81 Q104.811 1290.29 105.691 1288.55 Q106.594 1286.79 106.594 1285.1 Q106.594 1282.35 104.649 1280.61 Q102.728 1278.87 99.6261 1278.87 Q97.4271 1278.87 94.9734 1279.64 Q92.5428 1280.4 89.7651 1281.95 L89.7651 1277.23 Q92.5891 1276.1 95.0428 1275.52 Q97.4965 1274.94 99.5335 1274.94 Q104.904 1274.94 108.098 1277.62 Q111.293 1280.31 111.293 1284.8 Q111.293 1286.93 110.483 1288.85 Q109.696 1290.75 107.589 1293.34 Q107.01 1294.01 103.909 1297.23 Q100.807 1300.42 95.1586 1306.19 Z" fill="#000000" fill-rule="nonzero" fill-opacity="1" /><path clip-path="url(#clip630)" d="M50.9921 892.104 L80.6679 892.104 L80.6679 896.039 L50.9921 896.039 L50.9921 892.104 Z" fill="#000000" fill-rule="nonzero" fill-opacity="1" /><path clip-path="url(#clip630)" d="M91.5706 904.998 L99.2095 904.998 L99.2095 878.632 L90.8993 880.299 L90.8993 876.039 L99.1632 874.373 L103.839 874.373 L103.839 904.998 L111.478 904.998 L111.478 908.933 L91.5706 908.933 L91.5706 904.998 Z" fill="#000000" fill-rule="nonzero" fill-opacity="1" /><path clip-path="url(#clip630)" d="M99.5335 476.261 Q95.9224 476.261 94.0937 479.826 Q92.2882 483.368 92.2882 490.497 Q92.2882 497.604 94.0937 501.168 Q95.9224 504.71 99.5335 504.71 Q103.168 504.71 104.973 501.168 Q106.802 497.604 106.802 490.497 Q106.802 483.368 104.973 479.826 Q103.168 476.261 99.5335 476.261 M99.5335 472.558 Q105.344 472.558 108.399 477.164 Q111.478 481.747 111.478 490.497 Q111.478 499.224 108.399 503.83 Q105.344 508.414 99.5335 508.414 Q93.7234 508.414 90.6447 503.83 Q87.5892 499.224 87.5892 490.497 Q87.5892 481.747 90.6447 477.164 Q93.7234 472.558 99.5335 472.558 Z" fill="#000000" fill-rule="nonzero" fill-opacity="1" /><path clip-path="url(#clip630)" d="M91.5706 102.617 L99.2095 102.617 L99.2095 76.2514 L90.8993 77.9181 L90.8993 73.6589 L99.1632 71.9922 L103.839 71.9922 L103.839 102.617 L111.478 102.617 L111.478 106.552 L91.5706 106.552 L91.5706 102.617 Z" fill="#000000" fill-rule="nonzero" fill-opacity="1" /><circle clip-path="url(#clip632)" cx="932.948" cy="823.493" r="14.4" fill="#009af9" fill-rule="evenodd" fill-opacity="0.5" stroke="#000000" stroke-opacity="0.5" stroke-width="3.2"/>
<circle clip-path="url(#clip632)" cx="1419.72" cy="1041.95" r="14.4" fill="#009af9" fill-rule="evenodd" fill-opacity="0.5" stroke="#000000" stroke-opacity="0.5" stroke-width="3.2"/>
<circle clip-path="url(#clip632)" cx="1332.34" cy="690.901" r="14.4" fill="#009af9" fill-rule="evenodd" fill-opacity="0.5" stroke="#000000" stroke-opacity="0.5" stroke-width="3.2"/>
<circle clip-path="url(#clip632)" cx="744.93" cy="1445.72" r="14.4" fill="#009af9" fill-rule="evenodd" fill-opacity="0.5" stroke="#000000" stroke-opacity="0.5" stroke-width="3.2"/>
<circle clip-path="url(#clip632)" cx="1711.02" cy="481.552" r="14.4" fill="#009af9" fill-rule="evenodd" fill-opacity="0.5" stroke="#000000" stroke-opacity="0.5" stroke-width="3.2"/>
<circle clip-path="url(#clip632)" cx="209.891" cy="834.658" r="14.4" fill="#009af9" fill-rule="evenodd" fill-opacity="0.5" stroke="#000000" stroke-opacity="0.5" stroke-width="3.2"/>
<circle clip-path="url(#clip632)" cx="1053.23" cy="270.446" r="14.4" fill="#009af9" fill-rule="evenodd" fill-opacity="0.5" stroke="#000000" stroke-opacity="0.5" stroke-width="3.2"/>
<circle clip-path="url(#clip632)" cx="914.88" cy="668.574" r="14.4" fill="#009af9" fill-rule="evenodd" fill-opacity="0.5" stroke="#000000" stroke-opacity="0.5" stroke-width="3.2"/>
<circle clip-path="url(#clip632)" cx="873.439" cy="520.638" r="14.4" fill="#009af9" fill-rule="evenodd" fill-opacity="0.5" stroke="#000000" stroke-opacity="0.5" stroke-width="3.2"/>
<circle clip-path="url(#clip632)" cx="2098.61" cy="648.79" r="14.4" fill="#009af9" fill-rule="evenodd" fill-opacity="0.5" stroke="#000000" stroke-opacity="0.5" stroke-width="3.2"/>
<circle clip-path="url(#clip632)" cx="2290.34" cy="568.751" r="14.4" fill="#009af9" fill-rule="evenodd" fill-opacity="0.5" stroke="#000000" stroke-opacity="0.5" stroke-width="3.2"/>
<circle clip-path="url(#clip632)" cx="727.454" cy="378.677" r="14.4" fill="#009af9" fill-rule="evenodd" fill-opacity="0.5" stroke="#000000" stroke-opacity="0.5" stroke-width="3.2"/>
<circle clip-path="url(#clip632)" cx="588.644" cy="1062.68" r="14.4" fill="#009af9" fill-rule="evenodd" fill-opacity="0.5" stroke="#000000" stroke-opacity="0.5" stroke-width="3.2"/>
<circle clip-path="url(#clip632)" cx="1536.89" cy="653.681" r="14.4" fill="#009af9" fill-rule="evenodd" fill-opacity="0.5" stroke="#000000" stroke-opacity="0.5" stroke-width="3.2"/>
<circle clip-path="url(#clip632)" cx="1208.47" cy="664.945" r="14.4" fill="#009af9" fill-rule="evenodd" fill-opacity="0.5" stroke="#000000" stroke-opacity="0.5" stroke-width="3.2"/>
<circle clip-path="url(#clip632)" cx="1679.76" cy="101.212" r="14.4" fill="#009af9" fill-rule="evenodd" fill-opacity="0.5" stroke="#000000" stroke-opacity="0.5" stroke-width="3.2"/>
<circle clip-path="url(#clip632)" cx="1189.67" cy="285.122" r="14.4" fill="#009af9" fill-rule="evenodd" fill-opacity="0.5" stroke="#000000" stroke-opacity="0.5" stroke-width="3.2"/>
<circle clip-path="url(#clip632)" cx="1554.89" cy="250.966" r="14.4" fill="#009af9" fill-rule="evenodd" fill-opacity="0.5" stroke="#000000" stroke-opacity="0.5" stroke-width="3.2"/>
<circle clip-path="url(#clip632)" cx="449.135" cy="1116.68" r="14.4" fill="#009af9" fill-rule="evenodd" fill-opacity="0.5" stroke="#000000" stroke-opacity="0.5" stroke-width="3.2"/>
<circle clip-path="url(#clip632)" cx="402.812" cy="759.14" r="14.4" fill="#009af9" fill-rule="evenodd" fill-opacity="0.5" stroke="#000000" stroke-opacity="0.5" stroke-width="3.2"/>
<circle clip-path="url(#clip632)" cx="1366.86" cy="240.157" r="14.4" fill="#009af9" fill-rule="evenodd" fill-opacity="0.5" stroke="#000000" stroke-opacity="0.5" stroke-width="3.2"/>
<circle clip-path="url(#clip632)" cx="761.034" cy="175.858" r="14.4" fill="#009af9" fill-rule="evenodd" fill-opacity="0.5" stroke="#000000" stroke-opacity="0.5" stroke-width="3.2"/>
<circle clip-path="url(#clip632)" cx="1212.16" cy="87.9763" r="14.4" fill="#009af9" fill-rule="evenodd" fill-opacity="0.5" stroke="#000000" stroke-opacity="0.5" stroke-width="3.2"/>
<circle clip-path="url(#clip632)" cx="310.694" cy="1089.61" r="14.4" fill="#009af9" fill-rule="evenodd" fill-opacity="0.5" stroke="#000000" stroke-opacity="0.5" stroke-width="3.2"/>
<circle clip-path="url(#clip632)" cx="1512.39" cy="118.137" r="14.4" fill="#009af9" fill-rule="evenodd" fill-opacity="0.5" stroke="#000000" stroke-opacity="0.5" stroke-width="3.2"/>
<circle clip-path="url(#clip632)" cx="809.399" cy="314.111" r="14.4" fill="#009af9" fill-rule="evenodd" fill-opacity="0.5" stroke="#000000" stroke-opacity="0.5" stroke-width="3.2"/>
<circle clip-path="url(#clip632)" cx="1693.59" cy="922.969" r="14.4" fill="#009af9" fill-rule="evenodd" fill-opacity="0.5" stroke="#000000" stroke-opacity="0.5" stroke-width="3.2"/>
<circle clip-path="url(#clip632)" cx="1656.42" cy="817.908" r="14.4" fill="#009af9" fill-rule="evenodd" fill-opacity="0.5" stroke="#000000" stroke-opacity="0.5" stroke-width="3.2"/>
<circle clip-path="url(#clip632)" cx="1499.4" cy="258.697" r="14.4" fill="#009af9" fill-rule="evenodd" fill-opacity="0.5" stroke="#000000" stroke-opacity="0.5" stroke-width="3.2"/>
<circle clip-path="url(#clip632)" cx="1075.82" cy="715.356" r="14.4" fill="#009af9" fill-rule="evenodd" fill-opacity="0.5" stroke="#000000" stroke-opacity="0.5" stroke-width="3.2"/>
<path clip-path="url(#clip632)" d="M209.891 834.658 L310.694 1089.61 L744.93 1445.72 L1693.59 922.969 L2290.34 568.751 L1679.76 101.212 L1212.16 87.9763 L761.034 175.858 L209.891 834.658 L209.891 834.658  Z" fill="#e26f46" fill-rule="evenodd" fill-opacity="0.2"/>
<polyline clip-path="url(#clip632)" style="stroke:#000000; stroke-linecap:round; stroke-linejoin:round; stroke-width:4; stroke-opacity:0.2; fill:none" points="209.891,834.658 310.694,1089.61 744.93,1445.72 1693.59,922.969 2290.34,568.751 1679.76,101.212 1212.16,87.9763 761.034,175.858 209.891,834.658 "/>
</svg>
