<?xml version="1.0" encoding="utf-8"?>
<svg xmlns="http://www.w3.org/2000/svg" xmlns:xlink="http://www.w3.org/1999/xlink" width="600" height="400" viewBox="0 0 2400 1600">
<defs>
  <clipPath id="clip780">
    <rect x="0" y="0" width="2400" height="1600"/>
  </clipPath>
</defs>
<path clip-path="url(#clip780)" d="M0 1600 L2400 1600 L2400 0 L0 0  Z" fill="#ffffff" fill-rule="evenodd" fill-opacity="1"/>
<defs>
  <clipPath id="clip781">
    <rect x="480" y="0" width="1681" height="1600"/>
  </clipPath>
</defs>
<path clip-path="url(#clip780)" d="M148.057 1486.45 L2352.76 1486.45 L2352.76 47.2441 L148.057 47.2441  Z" fill="#ffffff" fill-rule="evenodd" fill-opacity="1"/>
<defs>
  <clipPath id="clip782">
    <rect x="148" y="47" width="2206" height="1440"/>
  </clipPath>
</defs>
<polyline clip-path="url(#clip782)" style="stroke:#000000; stroke-linecap:round; stroke-linejoin:round; stroke-width:2; stroke-opacity:0.1; fill:none" points="270.099,1486.45 270.099,47.2441 "/>
<polyline clip-path="url(#clip782)" style="stroke:#000000; stroke-linecap:round; stroke-linejoin:round; stroke-width:2; stroke-opacity:0.1; fill:none" points="738.112,1486.45 738.112,47.2441 "/>
<polyline clip-path="url(#clip782)" style="stroke:#000000; stroke-linecap:round; stroke-linejoin:round; stroke-width:2; stroke-opacity:0.1; fill:none" points="1206.12,1486.45 1206.12,47.2441 "/>
<polyline clip-path="url(#clip782)" style="stroke:#000000; stroke-linecap:round; stroke-linejoin:round; stroke-width:2; stroke-opacity:0.1; fill:none" points="1674.14,1486.45 1674.14,47.2441 "/>
<polyline clip-path="url(#clip782)" style="stroke:#000000; stroke-linecap:round; stroke-linejoin:round; stroke-width:2; stroke-opacity:0.1; fill:none" points="2142.15,1486.45 2142.15,47.2441 "/>
<polyline clip-path="url(#clip782)" style="stroke:#000000; stroke-linecap:round; stroke-linejoin:round; stroke-width:2; stroke-opacity:0.1; fill:none" points="148.057,1397.14 2352.76,1397.14 "/>
<polyline clip-path="url(#clip782)" style="stroke:#000000; stroke-linecap:round; stroke-linejoin:round; stroke-width:2; stroke-opacity:0.1; fill:none" points="148.057,1158.05 2352.76,1158.05 "/>
<polyline clip-path="url(#clip782)" style="stroke:#000000; stroke-linecap:round; stroke-linejoin:round; stroke-width:2; stroke-opacity:0.1; fill:none" points="148.057,918.958 2352.76,918.958 "/>
<polyline clip-path="url(#clip782)" style="stroke:#000000; stroke-linecap:round; stroke-linejoin:round; stroke-width:2; stroke-opacity:0.1; fill:none" points="148.057,679.867 2352.76,679.867 "/>
<polyline clip-path="url(#clip782)" style="stroke:#000000; stroke-linecap:round; stroke-linejoin:round; stroke-width:2; stroke-opacity:0.1; fill:none" points="148.057,440.776 2352.76,440.776 "/>
<polyline clip-path="url(#clip782)" style="stroke:#000000; stroke-linecap:round; stroke-linejoin:round; stroke-width:2; stroke-opacity:0.1; fill:none" points="148.057,201.685 2352.76,201.685 "/>
<polyline clip-path="url(#clip780)" style="stroke:#000000; stroke-linecap:round; stroke-linejoin:round; stroke-width:4; stroke-opacity:1; fill:none" points="148.057,1486.45 2352.76,1486.45 "/>
<polyline clip-path="url(#clip780)" style="stroke:#000000; stroke-linecap:round; stroke-linejoin:round; stroke-width:4; stroke-opacity:1; fill:none" points="270.099,1486.45 270.099,1467.55 "/>
<polyline clip-path="url(#clip780)" style="stroke:#000000; stroke-linecap:round; stroke-linejoin:round; stroke-width:4; stroke-opacity:1; fill:none" points="738.112,1486.45 738.112,1467.55 "/>
<polyline clip-path="url(#clip780)" style="stroke:#000000; stroke-linecap:round; stroke-linejoin:round; stroke-width:4; stroke-opacity:1; fill:none" points="1206.12,1486.45 1206.12,1467.55 "/>
<polyline clip-path="url(#clip780)" style="stroke:#000000; stroke-linecap:round; stroke-linejoin:round; stroke-width:4; stroke-opacity:1; fill:none" points="1674.14,1486.45 1674.14,1467.55 "/>
<polyline clip-path="url(#clip780)" style="stroke:#000000; stroke-linecap:round; stroke-linejoin:round; stroke-width:4; stroke-opacity:1; fill:none" points="2142.15,1486.45 2142.15,1467.55 "/>
<path clip-path="url(#clip780)" d="M240.041 1532.02 L269.717 1532.02 L269.717 1535.95 L240.041 1535.95 L240.041 1532.02 Z" fill="#000000" fill-rule="nonzero" fill-opacity="1" /><path clip-path="url(#clip780)" d="M283.837 1544.91 L300.157 1544.91 L300.157 1548.85 L278.213 1548.85 L278.213 1544.91 Q280.875 1542.16 285.458 1537.53 Q290.064 1532.88 291.245 1531.53 Q293.49 1529.01 294.37 1527.27 Q295.273 1525.51 295.273 1523.82 Q295.273 1521.07 293.328 1519.33 Q291.407 1517.6 288.305 1517.6 Q286.106 1517.6 283.652 1518.36 Q281.222 1519.13 278.444 1520.68 L278.444 1515.95 Q281.268 1514.82 283.722 1514.24 Q286.175 1513.66 288.212 1513.66 Q293.583 1513.66 296.777 1516.35 Q299.972 1519.03 299.972 1523.52 Q299.972 1525.65 299.161 1527.57 Q298.374 1529.47 296.268 1532.07 Q295.689 1532.74 292.587 1535.95 Q289.486 1539.15 283.837 1544.91 Z" fill="#000000" fill-rule="nonzero" fill-opacity="1" /><path clip-path="url(#clip780)" d="M707.869 1532.02 L737.545 1532.02 L737.545 1535.95 L707.869 1535.95 L707.869 1532.02 Z" fill="#000000" fill-rule="nonzero" fill-opacity="1" /><path clip-path="url(#clip780)" d="M748.448 1544.91 L756.086 1544.91 L756.086 1518.55 L747.776 1520.21 L747.776 1515.95 L756.04 1514.29 L760.716 1514.29 L760.716 1544.91 L768.355 1544.91 L768.355 1548.85 L748.448 1548.85 L748.448 1544.91 Z" fill="#000000" fill-rule="nonzero" fill-opacity="1" /><path clip-path="url(#clip780)" d="M1206.12 1517.37 Q1202.51 1517.37 1200.68 1520.93 Q1198.88 1524.47 1198.88 1531.6 Q1198.88 1538.71 1200.68 1542.27 Q1202.51 1545.82 1206.12 1545.82 Q1209.76 1545.82 1211.56 1542.27 Q1213.39 1538.71 1213.39 1531.6 Q1213.39 1524.47 1211.56 1520.93 Q1209.76 1517.37 1206.12 1517.37 M1206.12 1513.66 Q1211.93 1513.66 1214.99 1518.27 Q1218.07 1522.85 1218.07 1531.6 Q1218.07 1540.33 1214.99 1544.94 Q1211.93 1549.52 1206.12 1549.52 Q1200.31 1549.52 1197.24 1544.94 Q1194.18 1540.33 1194.18 1531.6 Q1194.18 1522.85 1197.24 1518.27 Q1200.31 1513.66 1206.12 1513.66 Z" fill="#000000" fill-rule="nonzero" fill-opacity="1" /><path clip-path="url(#clip780)" d="M1664.52 1544.91 L1672.16 1544.91 L1672.16 1518.55 L1663.85 1520.21 L1663.85 1515.95 L1672.11 1514.29 L1676.79 1514.29 L1676.79 1544.91 L1684.43 1544.91 L1684.43 1548.85 L1664.52 1548.85 L1664.52 1544.91 Z" fill="#000000" fill-rule="nonzero" fill-opacity="1" /><path clip-path="url(#clip780)" d="M2136.8 1544.91 L2153.12 1544.91 L2153.12 1548.85 L2131.18 1548.85 L2131.18 1544.91 Q2133.84 1542.16 2138.42 1537.53 Q2143.03 1532.88 2144.21 1531.53 Q2146.46 1529.01 2147.34 1527.27 Q2148.24 1525.51 2148.24 1523.82 Q2148.24 1521.07 2146.29 1519.33 Q2144.37 1517.6 2141.27 1517.6 Q2139.07 1517.6 2136.62 1518.36 Q2134.19 1519.13 2131.41 1520.68 L2131.41 1515.95 Q2134.23 1514.82 2136.69 1514.24 Q2139.14 1513.66 2141.18 1513.66 Q2146.55 1513.66 2149.74 1516.35 Q2152.94 1519.03 2152.94 1523.52 Q2152.94 1525.65 2152.13 1527.57 Q2151.34 1529.47 2149.23 1532.07 Q2148.65 1532.74 2145.55 1535.95 Q2142.45 1539.15 2136.8 1544.91 Z" fill="#000000" fill-rule="nonzero" fill-opacity="1" /><polyline clip-path="url(#clip780)" style="stroke:#000000; stroke-linecap:round; stroke-linejoin:round; stroke-width:4; stroke-opacity:1; fill:none" points="148.057,1486.45 148.057,47.2441 "/>
<polyline clip-path="url(#clip780)" style="stroke:#000000; stroke-linecap:round; stroke-linejoin:round; stroke-width:4; stroke-opacity:1; fill:none" points="148.057,1397.14 166.954,1397.14 "/>
<polyline clip-path="url(#clip780)" style="stroke:#000000; stroke-linecap:round; stroke-linejoin:round; stroke-width:4; stroke-opacity:1; fill:none" points="148.057,1158.05 166.954,1158.05 "/>
<polyline clip-path="url(#clip780)" style="stroke:#000000; stroke-linecap:round; stroke-linejoin:round; stroke-width:4; stroke-opacity:1; fill:none" points="148.057,918.958 166.954,918.958 "/>
<polyline clip-path="url(#clip780)" style="stroke:#000000; stroke-linecap:round; stroke-linejoin:round; stroke-width:4; stroke-opacity:1; fill:none" points="148.057,679.867 166.954,679.867 "/>
<polyline clip-path="url(#clip780)" style="stroke:#000000; stroke-linecap:round; stroke-linejoin:round; stroke-width:4; stroke-opacity:1; fill:none" points="148.057,440.776 166.954,440.776 "/>
<polyline clip-path="url(#clip780)" style="stroke:#000000; stroke-linecap:round; stroke-linejoin:round; stroke-width:4; stroke-opacity:1; fill:none" points="148.057,201.685 166.954,201.685 "/>
<path clip-path="url(#clip780)" d="M50.9921 1397.59 L80.6679 1397.59 L80.6679 1401.53 L50.9921 1401.53 L50.9921 1397.59 Z" fill="#000000" fill-rule="nonzero" fill-opacity="1" /><path clip-path="url(#clip780)" d="M104.927 1395.79 Q108.283 1396.5 110.158 1398.77 Q112.057 1401.04 112.057 1404.37 Q112.057 1409.49 108.538 1412.29 Q105.02 1415.09 98.5382 1415.09 Q96.3623 1415.09 94.0475 1414.65 Q91.7558 1414.23 89.3021 1413.38 L89.3021 1408.86 Q91.2465 1410 93.5613 1410.58 Q95.8761 1411.16 98.3993 1411.16 Q102.797 1411.16 105.089 1409.42 Q107.404 1407.68 107.404 1404.37 Q107.404 1401.32 105.251 1399.61 Q103.121 1397.87 99.3021 1397.87 L95.2743 1397.87 L95.2743 1394.03 L99.4872 1394.03 Q102.936 1394.03 104.765 1392.66 Q106.594 1391.27 106.594 1388.68 Q106.594 1386.02 104.696 1384.61 Q102.821 1383.17 99.3021 1383.17 Q97.3808 1383.17 95.1817 1383.59 Q92.9826 1384 90.3438 1384.88 L90.3438 1380.72 Q93.0058 1379.98 95.3206 1379.61 Q97.6585 1379.24 99.7187 1379.24 Q105.043 1379.24 108.145 1381.67 Q111.246 1384.07 111.246 1388.19 Q111.246 1391.06 109.603 1393.05 Q107.959 1395.02 104.927 1395.79 Z" fill="#000000" fill-rule="nonzero" fill-opacity="1" /><path clip-path="url(#clip780)" d="M51.9412 1158.5 L81.617 1158.5 L81.617 1162.44 L51.9412 1162.44 L51.9412 1158.5 Z" fill="#000000" fill-rule="nonzero" fill-opacity="1" /><path clip-path="url(#clip780)" d="M95.7373 1171.39 L112.057 1171.39 L112.057 1175.33 L90.1123 1175.33 L90.1123 1171.39 Q92.7743 1168.64 97.3576 1164.01 Q101.964 1159.36 103.145 1158.01 Q105.39 1155.49 106.27 1153.76 Q107.172 1152 107.172 1150.31 Q107.172 1147.55 105.228 1145.82 Q103.307 1144.08 100.205 1144.08 Q98.0058 1144.08 95.5521 1144.84 Q93.1215 1145.61 90.3438 1147.16 L90.3438 1142.44 Q93.1678 1141.3 95.6215 1140.72 Q98.0752 1140.14 100.112 1140.14 Q105.483 1140.14 108.677 1142.83 Q111.871 1145.51 111.871 1150.01 Q111.871 1152.13 111.061 1154.06 Q110.274 1155.95 108.168 1158.55 Q107.589 1159.22 104.487 1162.44 Q101.385 1165.63 95.7373 1171.39 Z" fill="#000000" fill-rule="nonzero" fill-opacity="1" /><path clip-path="url(#clip780)" d="M51.5708 919.409 L81.2466 919.409 L81.2466 923.344 L51.5708 923.344 L51.5708 919.409 Z" fill="#000000" fill-rule="nonzero" fill-opacity="1" /><path clip-path="url(#clip780)" d="M92.1493 932.303 L99.7882 932.303 L99.7882 905.937 L91.478 907.604 L91.478 903.345 L99.7419 901.678 L104.418 901.678 L104.418 932.303 L112.057 932.303 L112.057 936.238 L92.1493 936.238 L92.1493 932.303 Z" fill="#000000" fill-rule="nonzero" fill-opacity="1" /><path clip-path="url(#clip780)" d="M100.112 665.665 Q96.5011 665.665 94.6724 669.23 Q92.8669 672.772 92.8669 679.902 Q92.8669 687.008 94.6724 690.573 Q96.5011 694.114 100.112 694.114 Q103.746 694.114 105.552 690.573 Q107.381 687.008 107.381 679.902 Q107.381 672.772 105.552 669.23 Q103.746 665.665 100.112 665.665 M100.112 661.962 Q105.922 661.962 108.978 666.568 Q112.057 671.152 112.057 679.902 Q112.057 688.628 108.978 693.235 Q105.922 697.818 100.112 697.818 Q94.3021 697.818 91.2234 693.235 Q88.1679 688.628 88.1679 679.902 Q88.1679 671.152 91.2234 666.568 Q94.3021 661.962 100.112 661.962 Z" fill="#000000" fill-rule="nonzero" fill-opacity="1" /><path clip-path="url(#clip780)" d="M92.1493 454.121 L99.7882 454.121 L99.7882 427.755 L91.478 429.422 L91.478 425.162 L99.7419 423.496 L104.418 423.496 L104.418 454.121 L112.057 454.121 L112.057 458.056 L92.1493 458.056 L92.1493 454.121 Z" fill="#000000" fill-rule="nonzero" fill-opacity="1" /><path clip-path="url(#clip780)" d="M95.7373 215.029 L112.057 215.029 L112.057 218.965 L90.1123 218.965 L90.1123 215.029 Q92.7743 212.275 97.3576 207.645 Q101.964 202.992 103.145 201.65 Q105.39 199.127 106.27 197.391 Q107.172 195.631 107.172 193.942 Q107.172 191.187 105.228 189.451 Q103.307 187.715 100.205 187.715 Q98.0058 187.715 95.5521 188.479 Q93.1215 189.243 90.3438 190.793 L90.3438 186.071 Q93.1678 184.937 95.6215 184.358 Q98.0752 183.78 100.112 183.78 Q105.483 183.78 108.677 186.465 Q111.871 189.15 111.871 193.641 Q111.871 195.77 111.061 197.692 Q110.274 199.59 108.168 202.182 Q107.589 202.854 104.487 206.071 Q101.385 209.266 95.7373 215.029 Z" fill="#000000" fill-rule="nonzero" fill-opacity="1" /><circle clip-path="url(#clip782)" cx="1586.46" cy="1234.19" r="14.4" fill="#009af9" fill-rule="evenodd" fill-opacity="0.5" stroke="#000000" stroke-opacity="0.5" stroke-width="3.2"/>
<circle clip-path="url(#clip782)" cx="1635.28" cy="743.628" r="14.4" fill="#009af9" fill-rule="evenodd" fill-opacity="0.5" stroke="#000000" stroke-opacity="0.5" stroke-width="3.2"/>
<circle clip-path="url(#clip782)" cx="1852.36" cy="508.746" r="14.4" fill="#009af9" fill-rule="evenodd" fill-opacity="0.5" stroke="#000000" stroke-opacity="0.5" stroke-width="3.2"/>
<circle clip-path="url(#clip782)" cx="1750.66" cy="519.279" r="14.4" fill="#009af9" fill-rule="evenodd" fill-opacity="0.5" stroke="#000000" stroke-opacity="0.5" stroke-width="3.2"/>
<circle clip-path="url(#clip782)" cx="1536.3" cy="776.815" r="14.4" fill="#009af9" fill-rule="evenodd" fill-opacity="0.5" stroke="#000000" stroke-opacity="0.5" stroke-width="3.2"/>
<circle clip-path="url(#clip782)" cx="1196.45" cy="632.351" r="14.4" fill="#009af9" fill-rule="evenodd" fill-opacity="0.5" stroke="#000000" stroke-opacity="0.5" stroke-width="3.2"/>
<circle clip-path="url(#clip782)" cx="2290.36" cy="259.575" r="14.4" fill="#009af9" fill-rule="evenodd" fill-opacity="0.5" stroke="#000000" stroke-opacity="0.5" stroke-width="3.2"/>
<circle clip-path="url(#clip782)" cx="772.569" cy="717.091" r="14.4" fill="#009af9" fill-rule="evenodd" fill-opacity="0.5" stroke="#000000" stroke-opacity="0.5" stroke-width="3.2"/>
<circle clip-path="url(#clip782)" cx="781.322" cy="642.888" r="14.4" fill="#009af9" fill-rule="evenodd" fill-opacity="0.5" stroke="#000000" stroke-opacity="0.5" stroke-width="3.2"/>
<circle clip-path="url(#clip782)" cx="966.481" cy="797.238" r="14.4" fill="#009af9" fill-rule="evenodd" fill-opacity="0.5" stroke="#000000" stroke-opacity="0.5" stroke-width="3.2"/>
<circle clip-path="url(#clip782)" cx="2167.68" cy="1445.72" r="14.4" fill="#009af9" fill-rule="evenodd" fill-opacity="0.5" stroke="#000000" stroke-opacity="0.5" stroke-width="3.2"/>
<circle clip-path="url(#clip782)" cx="409.813" cy="763.029" r="14.4" fill="#009af9" fill-rule="evenodd" fill-opacity="0.5" stroke="#000000" stroke-opacity="0.5" stroke-width="3.2"/>
<circle clip-path="url(#clip782)" cx="1789.94" cy="502.818" r="14.4" fill="#009af9" fill-rule="evenodd" fill-opacity="0.5" stroke="#000000" stroke-opacity="0.5" stroke-width="3.2"/>
<circle clip-path="url(#clip782)" cx="848.639" cy="387.57" r="14.4" fill="#009af9" fill-rule="evenodd" fill-opacity="0.5" stroke="#000000" stroke-opacity="0.5" stroke-width="3.2"/>
<circle clip-path="url(#clip782)" cx="814.04" cy="866.144" r="14.4" fill="#009af9" fill-rule="evenodd" fill-opacity="0.5" stroke="#000000" stroke-opacity="0.5" stroke-width="3.2"/>
<circle clip-path="url(#clip782)" cx="1085.86" cy="1079.47" r="14.4" fill="#009af9" fill-rule="evenodd" fill-opacity="0.5" stroke="#000000" stroke-opacity="0.5" stroke-width="3.2"/>
<circle clip-path="url(#clip782)" cx="704.346" cy="868.606" r="14.4" fill="#009af9" fill-rule="evenodd" fill-opacity="0.5" stroke="#000000" stroke-opacity="0.5" stroke-width="3.2"/>
<circle clip-path="url(#clip782)" cx="722.828" cy="756.41" r="14.4" fill="#009af9" fill-rule="evenodd" fill-opacity="0.5" stroke="#000000" stroke-opacity="0.5" stroke-width="3.2"/>
<circle clip-path="url(#clip782)" cx="2280.81" cy="337.383" r="14.4" fill="#009af9" fill-rule="evenodd" fill-opacity="0.5" stroke="#000000" stroke-opacity="0.5" stroke-width="3.2"/>
<circle clip-path="url(#clip782)" cx="1562.13" cy="133.296" r="14.4" fill="#009af9" fill-rule="evenodd" fill-opacity="0.5" stroke="#000000" stroke-opacity="0.5" stroke-width="3.2"/>
<circle clip-path="url(#clip782)" cx="1819.17" cy="1096.81" r="14.4" fill="#009af9" fill-rule="evenodd" fill-opacity="0.5" stroke="#000000" stroke-opacity="0.5" stroke-width="3.2"/>
<circle clip-path="url(#clip782)" cx="558.494" cy="894.196" r="14.4" fill="#009af9" fill-rule="evenodd" fill-opacity="0.5" stroke="#000000" stroke-opacity="0.5" stroke-width="3.2"/>
<circle clip-path="url(#clip782)" cx="986.512" cy="529.286" r="14.4" fill="#009af9" fill-rule="evenodd" fill-opacity="0.5" stroke="#000000" stroke-opacity="0.5" stroke-width="3.2"/>
<circle clip-path="url(#clip782)" cx="210.454" cy="699.55" r="14.4" fill="#009af9" fill-rule="evenodd" fill-opacity="0.5" stroke="#000000" stroke-opacity="0.5" stroke-width="3.2"/>
<circle clip-path="url(#clip782)" cx="1143.26" cy="849.709" r="14.4" fill="#009af9" fill-rule="evenodd" fill-opacity="0.5" stroke="#000000" stroke-opacity="0.5" stroke-width="3.2"/>
<circle clip-path="url(#clip782)" cx="721.291" cy="568.476" r="14.4" fill="#009af9" fill-rule="evenodd" fill-opacity="0.5" stroke="#000000" stroke-opacity="0.5" stroke-width="3.2"/>
<circle clip-path="url(#clip782)" cx="692.814" cy="87.9763" r="14.4" fill="#009af9" fill-rule="evenodd" fill-opacity="0.5" stroke="#000000" stroke-opacity="0.5" stroke-width="3.2"/>
<circle clip-path="url(#clip782)" cx="671.294" cy="759.804" r="14.4" fill="#009af9" fill-rule="evenodd" fill-opacity="0.5" stroke="#000000" stroke-opacity="0.5" stroke-width="3.2"/>
<circle clip-path="url(#clip782)" cx="860.705" cy="460.492" r="14.4" fill="#009af9" fill-rule="evenodd" fill-opacity="0.5" stroke="#000000" stroke-opacity="0.5" stroke-width="3.2"/>
<circle clip-path="url(#clip782)" cx="1244.05" cy="916.318" r="14.4" fill="#009af9" fill-rule="evenodd" fill-opacity="0.5" stroke="#000000" stroke-opacity="0.5" stroke-width="3.2"/>
<path clip-path="url(#clip782)" d="M210.454 699.55 L558.494 894.196 L1085.86 1079.47 L2167.68 1445.72 L2290.36 259.575 L1562.13 133.296 L692.814 87.9763 L210.454 699.55 L210.454 699.55  Z" fill="#e26f46" fill-rule="evenodd" fill-opacity="0.2"/>
<polyline clip-path="url(#clip782)" style="stroke:#000000; stroke-linecap:round; stroke-linejoin:round; stroke-width:4; stroke-opacity:0.2; fill:none" points="210.454,699.55 558.494,894.196 1085.86,1079.47 2167.68,1445.72 2290.36,259.575 1562.13,133.296 692.814,87.9763 210.454,699.55 "/>
</svg>
