<?xml version="1.0" encoding="utf-8"?>
<svg xmlns="http://www.w3.org/2000/svg" xmlns:xlink="http://www.w3.org/1999/xlink" width="600" height="400" viewBox="0 0 2400 1600">
<defs>
  <clipPath id="clip260">
    <rect x="0" y="0" width="2400" height="1600"/>
  </clipPath>
</defs>
<path clip-path="url(#clip260)" d="M0 1600 L2400 1600 L2400 0 L0 0  Z" fill="#ffffff" fill-rule="evenodd" fill-opacity="1"/>
<defs>
  <clipPath id="clip261">
    <rect x="480" y="0" width="1681" height="1600"/>
  </clipPath>
</defs>
<path clip-path="url(#clip260)" d="M147.478 1486.45 L2352.76 1486.45 L2352.76 47.2441 L147.478 47.2441  Z" fill="#ffffff" fill-rule="evenodd" fill-opacity="1"/>
<defs>
  <clipPath id="clip262">
    <rect x="147" y="47" width="2206" height="1440"/>
  </clipPath>
</defs>
<polyline clip-path="url(#clip262)" style="stroke:#000000; stroke-linecap:round; stroke-linejoin:round; stroke-width:2; stroke-opacity:0.1; fill:none" points="167.974,1486.45 167.974,47.2441 "/>
<polyline clip-path="url(#clip262)" style="stroke:#000000; stroke-linecap:round; stroke-linejoin:round; stroke-width:2; stroke-opacity:0.1; fill:none" points="824.192,1486.45 824.192,47.2441 "/>
<polyline clip-path="url(#clip262)" style="stroke:#000000; stroke-linecap:round; stroke-linejoin:round; stroke-width:2; stroke-opacity:0.1; fill:none" points="1480.41,1486.45 1480.41,47.2441 "/>
<polyline clip-path="url(#clip262)" style="stroke:#000000; stroke-linecap:round; stroke-linejoin:round; stroke-width:2; stroke-opacity:0.1; fill:none" points="2136.63,1486.45 2136.63,47.2441 "/>
<polyline clip-path="url(#clip260)" style="stroke:#000000; stroke-linecap:round; stroke-linejoin:round; stroke-width:4; stroke-opacity:1; fill:none" points="147.478,1486.45 2352.76,1486.45 "/>
<polyline clip-path="url(#clip260)" style="stroke:#000000; stroke-linecap:round; stroke-linejoin:round; stroke-width:4; stroke-opacity:1; fill:none" points="167.974,1486.45 167.974,1467.55 "/>
<polyline clip-path="url(#clip260)" style="stroke:#000000; stroke-linecap:round; stroke-linejoin:round; stroke-width:4; stroke-opacity:1; fill:none" points="824.192,1486.45 824.192,1467.55 "/>
<polyline clip-path="url(#clip260)" style="stroke:#000000; stroke-linecap:round; stroke-linejoin:round; stroke-width:4; stroke-opacity:1; fill:none" points="1480.41,1486.45 1480.41,1467.55 "/>
<polyline clip-path="url(#clip260)" style="stroke:#000000; stroke-linecap:round; stroke-linejoin:round; stroke-width:4; stroke-opacity:1; fill:none" points="2136.63,1486.45 2136.63,1467.55 "/>
<path clip-path="url(#clip260)" d="M137.731 1532.02 L167.407 1532.02 L167.407 1535.95 L137.731 1535.95 L137.731 1532.02 Z" fill="#000000" fill-rule="nonzero" fill-opacity="1" /><path clip-path="url(#clip260)" d="M178.309 1544.91 L185.948 1544.91 L185.948 1518.55 L177.638 1520.21 L177.638 1515.95 L185.902 1514.29 L190.578 1514.29 L190.578 1544.91 L198.217 1544.91 L198.217 1548.85 L178.309 1548.85 L178.309 1544.91 Z" fill="#000000" fill-rule="nonzero" fill-opacity="1" /><path clip-path="url(#clip260)" d="M824.192 1517.37 Q820.581 1517.37 818.752 1520.93 Q816.946 1524.47 816.946 1531.6 Q816.946 1538.71 818.752 1542.27 Q820.581 1545.82 824.192 1545.82 Q827.826 1545.82 829.631 1542.27 Q831.46 1538.71 831.46 1531.6 Q831.46 1524.47 829.631 1520.93 Q827.826 1517.37 824.192 1517.37 M824.192 1513.66 Q830.002 1513.66 833.057 1518.27 Q836.136 1522.85 836.136 1531.6 Q836.136 1540.33 833.057 1544.94 Q830.002 1549.52 824.192 1549.52 Q818.382 1549.52 815.303 1544.94 Q812.247 1540.33 812.247 1531.6 Q812.247 1522.85 815.303 1518.27 Q818.382 1513.66 824.192 1513.66 Z" fill="#000000" fill-rule="nonzero" fill-opacity="1" /><path clip-path="url(#clip260)" d="M1470.79 1544.91 L1478.43 1544.91 L1478.43 1518.55 L1470.12 1520.21 L1470.12 1515.95 L1478.38 1514.29 L1483.06 1514.29 L1483.06 1544.91 L1490.7 1544.91 L1490.7 1548.85 L1470.79 1548.85 L1470.79 1544.91 Z" fill="#000000" fill-rule="nonzero" fill-opacity="1" /><path clip-path="url(#clip260)" d="M2131.28 1544.91 L2147.6 1544.91 L2147.6 1548.85 L2125.66 1548.85 L2125.66 1544.91 Q2128.32 1542.16 2132.9 1537.53 Q2137.51 1532.88 2138.69 1531.53 Q2140.93 1529.01 2141.81 1527.27 Q2142.72 1525.51 2142.72 1523.82 Q2142.72 1521.07 2140.77 1519.33 Q2138.85 1517.6 2135.75 1517.6 Q2133.55 1517.6 2131.1 1518.36 Q2128.66 1519.13 2125.89 1520.68 L2125.89 1515.95 Q2128.71 1514.82 2131.16 1514.24 Q2133.62 1513.66 2135.66 1513.66 Q2141.03 1513.66 2144.22 1516.35 Q2147.41 1519.03 2147.41 1523.52 Q2147.41 1525.65 2146.6 1527.57 Q2145.82 1529.47 2143.71 1532.07 Q2143.13 1532.74 2140.03 1535.95 Q2136.93 1539.15 2131.28 1544.91 Z" fill="#000000" fill-rule="nonzero" fill-opacity="1" /><polyline clip-path="url(#clip262)" style="stroke:#000000; stroke-linecap:round; stroke-linejoin:round; stroke-width:2; stroke-opacity:0.1; fill:none" points="147.478,1274.09 2352.76,1274.09 "/>
<polyline clip-path="url(#clip262)" style="stroke:#000000; stroke-linecap:round; stroke-linejoin:round; stroke-width:2; stroke-opacity:0.1; fill:none" points="147.478,942.53 2352.76,942.53 "/>
<polyline clip-path="url(#clip262)" style="stroke:#000000; stroke-linecap:round; stroke-linejoin:round; stroke-width:2; stroke-opacity:0.1; fill:none" points="147.478,610.973 2352.76,610.973 "/>
<polyline clip-path="url(#clip262)" style="stroke:#000000; stroke-linecap:round; stroke-linejoin:round; stroke-width:2; stroke-opacity:0.1; fill:none" points="147.478,279.416 2352.76,279.416 "/>
<polyline clip-path="url(#clip260)" style="stroke:#000000; stroke-linecap:round; stroke-linejoin:round; stroke-width:4; stroke-opacity:1; fill:none" points="147.478,1486.45 147.478,47.2441 "/>
<polyline clip-path="url(#clip260)" style="stroke:#000000; stroke-linecap:round; stroke-linejoin:round; stroke-width:4; stroke-opacity:1; fill:none" points="147.478,1274.09 166.376,1274.09 "/>
<polyline clip-path="url(#clip260)" style="stroke:#000000; stroke-linecap:round; stroke-linejoin:round; stroke-width:4; stroke-opacity:1; fill:none" points="147.478,942.53 166.376,942.53 "/>
<polyline clip-path="url(#clip260)" style="stroke:#000000; stroke-linecap:round; stroke-linejoin:round; stroke-width:4; stroke-opacity:1; fill:none" points="147.478,610.973 166.376,610.973 "/>
<polyline clip-path="url(#clip260)" style="stroke:#000000; stroke-linecap:round; stroke-linejoin:round; stroke-width:4; stroke-opacity:1; fill:none" points="147.478,279.416 166.376,279.416 "/>
<path clip-path="url(#clip260)" d="M50.9921 1274.54 L80.6679 1274.54 L80.6679 1278.47 L50.9921 1278.47 L50.9921 1274.54 Z" fill="#000000" fill-rule="nonzero" fill-opacity="1" /><path clip-path="url(#clip260)" d="M91.5706 1287.43 L99.2095 1287.43 L99.2095 1261.07 L90.8993 1262.73 L90.8993 1258.47 L99.1632 1256.81 L103.839 1256.81 L103.839 1287.43 L111.478 1287.43 L111.478 1291.37 L91.5706 1291.37 L91.5706 1287.43 Z" fill="#000000" fill-rule="nonzero" fill-opacity="1" /><path clip-path="url(#clip260)" d="M99.5335 928.329 Q95.9224 928.329 94.0937 931.894 Q92.2882 935.435 92.2882 942.565 Q92.2882 949.671 94.0937 953.236 Q95.9224 956.778 99.5335 956.778 Q103.168 956.778 104.973 953.236 Q106.802 949.671 106.802 942.565 Q106.802 935.435 104.973 931.894 Q103.168 928.329 99.5335 928.329 M99.5335 924.625 Q105.344 924.625 108.399 929.232 Q111.478 933.815 111.478 942.565 Q111.478 951.292 108.399 955.898 Q105.344 960.481 99.5335 960.481 Q93.7234 960.481 90.6447 955.898 Q87.5892 951.292 87.5892 942.565 Q87.5892 933.815 90.6447 929.232 Q93.7234 924.625 99.5335 924.625 Z" fill="#000000" fill-rule="nonzero" fill-opacity="1" /><path clip-path="url(#clip260)" d="M91.5706 624.318 L99.2095 624.318 L99.2095 597.952 L90.8993 599.619 L90.8993 595.36 L99.1632 593.693 L103.839 593.693 L103.839 624.318 L111.478 624.318 L111.478 628.253 L91.5706 628.253 L91.5706 624.318 Z" fill="#000000" fill-rule="nonzero" fill-opacity="1" /><path clip-path="url(#clip260)" d="M95.1586 292.761 L111.478 292.761 L111.478 296.696 L89.5336 296.696 L89.5336 292.761 Q92.1956 290.006 96.7789 285.376 Q101.385 280.724 102.566 279.381 Q104.811 276.858 105.691 275.122 Q106.594 273.363 106.594 271.673 Q106.594 268.918 104.649 267.182 Q102.728 265.446 99.6261 265.446 Q97.4271 265.446 94.9734 266.21 Q92.5428 266.974 89.7651 268.525 L89.7651 263.802 Q92.5891 262.668 95.0428 262.09 Q97.4965 261.511 99.5335 261.511 Q104.904 261.511 108.098 264.196 Q111.293 266.881 111.293 271.372 Q111.293 273.502 110.483 275.423 Q109.696 277.321 107.589 279.914 Q107.01 280.585 103.909 283.802 Q100.807 286.997 95.1586 292.761 Z" fill="#000000" fill-rule="nonzero" fill-opacity="1" /><circle clip-path="url(#clip262)" cx="1238.49" cy="588.818" r="14.4" fill="#009af9" fill-rule="evenodd" fill-opacity="0.5" stroke="#000000" stroke-opacity="0.5" stroke-width="3.2"/>
<circle clip-path="url(#clip262)" cx="655.799" cy="873.517" r="14.4" fill="#009af9" fill-rule="evenodd" fill-opacity="0.5" stroke="#000000" stroke-opacity="0.5" stroke-width="3.2"/>
<circle clip-path="url(#clip262)" cx="1092.32" cy="867.974" r="14.4" fill="#009af9" fill-rule="evenodd" fill-opacity="0.5" stroke="#000000" stroke-opacity="0.5" stroke-width="3.2"/>
<circle clip-path="url(#clip262)" cx="657.958" cy="729.999" r="14.4" fill="#009af9" fill-rule="evenodd" fill-opacity="0.5" stroke="#000000" stroke-opacity="0.5" stroke-width="3.2"/>
<circle clip-path="url(#clip262)" cx="1498.38" cy="1208.93" r="14.4" fill="#009af9" fill-rule="evenodd" fill-opacity="0.5" stroke="#000000" stroke-opacity="0.5" stroke-width="3.2"/>
<circle clip-path="url(#clip262)" cx="1022.06" cy="1015.35" r="14.4" fill="#009af9" fill-rule="evenodd" fill-opacity="0.5" stroke="#000000" stroke-opacity="0.5" stroke-width="3.2"/>
<circle clip-path="url(#clip262)" cx="1823.34" cy="1033.72" r="14.4" fill="#009af9" fill-rule="evenodd" fill-opacity="0.5" stroke="#000000" stroke-opacity="0.5" stroke-width="3.2"/>
<circle clip-path="url(#clip262)" cx="885.306" cy="1021.57" r="14.4" fill="#009af9" fill-rule="evenodd" fill-opacity="0.5" stroke="#000000" stroke-opacity="0.5" stroke-width="3.2"/>
<circle clip-path="url(#clip262)" cx="1452.3" cy="611.368" r="14.4" fill="#009af9" fill-rule="evenodd" fill-opacity="0.5" stroke="#000000" stroke-opacity="0.5" stroke-width="3.2"/>
<circle clip-path="url(#clip262)" cx="812.884" cy="1445.72" r="14.4" fill="#009af9" fill-rule="evenodd" fill-opacity="0.5" stroke="#000000" stroke-opacity="0.5" stroke-width="3.2"/>
<circle clip-path="url(#clip262)" cx="825.026" cy="642.779" r="14.4" fill="#009af9" fill-rule="evenodd" fill-opacity="0.5" stroke="#000000" stroke-opacity="0.5" stroke-width="3.2"/>
<circle clip-path="url(#clip262)" cx="1185.57" cy="1025.27" r="14.4" fill="#009af9" fill-rule="evenodd" fill-opacity="0.5" stroke="#000000" stroke-opacity="0.5" stroke-width="3.2"/>
<circle clip-path="url(#clip262)" cx="209.891" cy="1060.49" r="14.4" fill="#009af9" fill-rule="evenodd" fill-opacity="0.5" stroke="#000000" stroke-opacity="0.5" stroke-width="3.2"/>
<circle clip-path="url(#clip262)" cx="358.768" cy="869.951" r="14.4" fill="#009af9" fill-rule="evenodd" fill-opacity="0.5" stroke="#000000" stroke-opacity="0.5" stroke-width="3.2"/>
<circle clip-path="url(#clip262)" cx="2290.34" cy="1161.64" r="14.4" fill="#009af9" fill-rule="evenodd" fill-opacity="0.5" stroke="#000000" stroke-opacity="0.5" stroke-width="3.2"/>
<circle clip-path="url(#clip262)" cx="995.966" cy="962.82" r="14.4" fill="#009af9" fill-rule="evenodd" fill-opacity="0.5" stroke="#000000" stroke-opacity="0.5" stroke-width="3.2"/>
<circle clip-path="url(#clip262)" cx="1395.31" cy="701.756" r="14.4" fill="#009af9" fill-rule="evenodd" fill-opacity="0.5" stroke="#000000" stroke-opacity="0.5" stroke-width="3.2"/>
<circle clip-path="url(#clip262)" cx="1816.13" cy="522.605" r="14.4" fill="#009af9" fill-rule="evenodd" fill-opacity="0.5" stroke="#000000" stroke-opacity="0.5" stroke-width="3.2"/>
<circle clip-path="url(#clip262)" cx="1880.23" cy="610.076" r="14.4" fill="#009af9" fill-rule="evenodd" fill-opacity="0.5" stroke="#000000" stroke-opacity="0.5" stroke-width="3.2"/>
<circle clip-path="url(#clip262)" cx="1398.33" cy="1038.52" r="14.4" fill="#009af9" fill-rule="evenodd" fill-opacity="0.5" stroke="#000000" stroke-opacity="0.5" stroke-width="3.2"/>
<circle clip-path="url(#clip262)" cx="1682.05" cy="781.644" r="14.4" fill="#009af9" fill-rule="evenodd" fill-opacity="0.5" stroke="#000000" stroke-opacity="0.5" stroke-width="3.2"/>
<circle clip-path="url(#clip262)" cx="907.309" cy="550.339" r="14.4" fill="#009af9" fill-rule="evenodd" fill-opacity="0.5" stroke="#000000" stroke-opacity="0.5" stroke-width="3.2"/>
<circle clip-path="url(#clip262)" cx="1221.72" cy="495.147" r="14.4" fill="#009af9" fill-rule="evenodd" fill-opacity="0.5" stroke="#000000" stroke-opacity="0.5" stroke-width="3.2"/>
<circle clip-path="url(#clip262)" cx="1102.3" cy="604.761" r="14.4" fill="#009af9" fill-rule="evenodd" fill-opacity="0.5" stroke="#000000" stroke-opacity="0.5" stroke-width="3.2"/>
<circle clip-path="url(#clip262)" cx="792.432" cy="549.19" r="14.4" fill="#009af9" fill-rule="evenodd" fill-opacity="0.5" stroke="#000000" stroke-opacity="0.5" stroke-width="3.2"/>
<circle clip-path="url(#clip262)" cx="229.58" cy="1098.23" r="14.4" fill="#009af9" fill-rule="evenodd" fill-opacity="0.5" stroke="#000000" stroke-opacity="0.5" stroke-width="3.2"/>
<circle clip-path="url(#clip262)" cx="2123.8" cy="524.259" r="14.4" fill="#009af9" fill-rule="evenodd" fill-opacity="0.5" stroke="#000000" stroke-opacity="0.5" stroke-width="3.2"/>
<circle clip-path="url(#clip262)" cx="406.006" cy="87.9763" r="14.4" fill="#009af9" fill-rule="evenodd" fill-opacity="0.5" stroke="#000000" stroke-opacity="0.5" stroke-width="3.2"/>
<circle clip-path="url(#clip262)" cx="1414.37" cy="1402.27" r="14.4" fill="#009af9" fill-rule="evenodd" fill-opacity="0.5" stroke="#000000" stroke-opacity="0.5" stroke-width="3.2"/>
<circle clip-path="url(#clip262)" cx="996.979" cy="331.875" r="14.4" fill="#009af9" fill-rule="evenodd" fill-opacity="0.5" stroke="#000000" stroke-opacity="0.5" stroke-width="3.2"/>
<path clip-path="url(#clip262)" d="M209.891 1060.49 L229.58 1098.23 L812.884 1445.72 L1414.37 1402.27 L2290.34 1161.64 L2123.8 524.259 L406.006 87.9763 L209.891 1060.49 L209.891 1060.49  Z" fill="#e26f46" fill-rule="evenodd" fill-opacity="0.2"/>
<polyline clip-path="url(#clip262)" style="stroke:#000000; stroke-linecap:round; stroke-linejoin:round; stroke-width:4; stroke-opacity:0.2; fill:none" points="209.891,1060.49 229.58,1098.23 812.884,1445.72 1414.37,1402.27 2290.34,1161.64 2123.8,524.259 406.006,87.9763 209.891,1060.49 "/>
</svg>
