<?xml version="1.0" encoding="utf-8"?>
<svg xmlns="http://www.w3.org/2000/svg" xmlns:xlink="http://www.w3.org/1999/xlink" width="600" height="400" viewBox="0 0 2400 1600">
<defs>
  <clipPath id="clip720">
    <rect x="0" y="0" width="2400" height="1600"/>
  </clipPath>
</defs>
<path clip-path="url(#clip720)" d="M0 1600 L2400 1600 L2400 0 L0 0  Z" fill="#ffffff" fill-rule="evenodd" fill-opacity="1"/>
<defs>
  <clipPath id="clip721">
    <rect x="480" y="0" width="1681" height="1600"/>
  </clipPath>
</defs>
<path clip-path="url(#clip720)" d="M193.936 1486.45 L2352.76 1486.45 L2352.76 47.2441 L193.936 47.2441  Z" fill="#ffffff" fill-rule="evenodd" fill-opacity="1"/>
<defs>
  <clipPath id="clip722">
    <rect x="193" y="47" width="2160" height="1440"/>
  </clipPath>
</defs>
<polyline clip-path="url(#clip722)" style="stroke:#000000; stroke-linecap:round; stroke-linejoin:round; stroke-width:2; stroke-opacity:0.1; fill:none" points="242.61,1486.45 242.61,47.2441 "/>
<polyline clip-path="url(#clip722)" style="stroke:#000000; stroke-linecap:round; stroke-linejoin:round; stroke-width:2; stroke-opacity:0.1; fill:none" points="636.052,1486.45 636.052,47.2441 "/>
<polyline clip-path="url(#clip722)" style="stroke:#000000; stroke-linecap:round; stroke-linejoin:round; stroke-width:2; stroke-opacity:0.1; fill:none" points="1029.49,1486.45 1029.49,47.2441 "/>
<polyline clip-path="url(#clip722)" style="stroke:#000000; stroke-linecap:round; stroke-linejoin:round; stroke-width:2; stroke-opacity:0.1; fill:none" points="1422.94,1486.45 1422.94,47.2441 "/>
<polyline clip-path="url(#clip722)" style="stroke:#000000; stroke-linecap:round; stroke-linejoin:round; stroke-width:2; stroke-opacity:0.1; fill:none" points="1816.38,1486.45 1816.38,47.2441 "/>
<polyline clip-path="url(#clip722)" style="stroke:#000000; stroke-linecap:round; stroke-linejoin:round; stroke-width:2; stroke-opacity:0.1; fill:none" points="2209.82,1486.45 2209.82,47.2441 "/>
<polyline clip-path="url(#clip722)" style="stroke:#000000; stroke-linecap:round; stroke-linejoin:round; stroke-width:2; stroke-opacity:0.1; fill:none" points="193.936,1313.59 2352.76,1313.59 "/>
<polyline clip-path="url(#clip722)" style="stroke:#000000; stroke-linecap:round; stroke-linejoin:round; stroke-width:2; stroke-opacity:0.1; fill:none" points="193.936,1131.95 2352.76,1131.95 "/>
<polyline clip-path="url(#clip722)" style="stroke:#000000; stroke-linecap:round; stroke-linejoin:round; stroke-width:2; stroke-opacity:0.1; fill:none" points="193.936,950.301 2352.76,950.301 "/>
<polyline clip-path="url(#clip722)" style="stroke:#000000; stroke-linecap:round; stroke-linejoin:round; stroke-width:2; stroke-opacity:0.1; fill:none" points="193.936,768.657 2352.76,768.657 "/>
<polyline clip-path="url(#clip722)" style="stroke:#000000; stroke-linecap:round; stroke-linejoin:round; stroke-width:2; stroke-opacity:0.1; fill:none" points="193.936,587.012 2352.76,587.012 "/>
<polyline clip-path="url(#clip722)" style="stroke:#000000; stroke-linecap:round; stroke-linejoin:round; stroke-width:2; stroke-opacity:0.1; fill:none" points="193.936,405.367 2352.76,405.367 "/>
<polyline clip-path="url(#clip722)" style="stroke:#000000; stroke-linecap:round; stroke-linejoin:round; stroke-width:2; stroke-opacity:0.1; fill:none" points="193.936,223.723 2352.76,223.723 "/>
<polyline clip-path="url(#clip720)" style="stroke:#000000; stroke-linecap:round; stroke-linejoin:round; stroke-width:4; stroke-opacity:1; fill:none" points="193.936,1486.45 2352.76,1486.45 "/>
<polyline clip-path="url(#clip720)" style="stroke:#000000; stroke-linecap:round; stroke-linejoin:round; stroke-width:4; stroke-opacity:1; fill:none" points="242.61,1486.45 242.61,1467.55 "/>
<polyline clip-path="url(#clip720)" style="stroke:#000000; stroke-linecap:round; stroke-linejoin:round; stroke-width:4; stroke-opacity:1; fill:none" points="636.052,1486.45 636.052,1467.55 "/>
<polyline clip-path="url(#clip720)" style="stroke:#000000; stroke-linecap:round; stroke-linejoin:round; stroke-width:4; stroke-opacity:1; fill:none" points="1029.49,1486.45 1029.49,1467.55 "/>
<polyline clip-path="url(#clip720)" style="stroke:#000000; stroke-linecap:round; stroke-linejoin:round; stroke-width:4; stroke-opacity:1; fill:none" points="1422.94,1486.45 1422.94,1467.55 "/>
<polyline clip-path="url(#clip720)" style="stroke:#000000; stroke-linecap:round; stroke-linejoin:round; stroke-width:4; stroke-opacity:1; fill:none" points="1816.38,1486.45 1816.38,1467.55 "/>
<polyline clip-path="url(#clip720)" style="stroke:#000000; stroke-linecap:round; stroke-linejoin:round; stroke-width:4; stroke-opacity:1; fill:none" points="2209.82,1486.45 2209.82,1467.55 "/>
<path clip-path="url(#clip720)" d="M212.078 1532.02 L241.754 1532.02 L241.754 1535.95 L212.078 1535.95 L212.078 1532.02 Z" fill="#000000" fill-rule="nonzero" fill-opacity="1" /><path clip-path="url(#clip720)" d="M266.013 1530.21 Q269.369 1530.93 271.244 1533.2 Q273.142 1535.47 273.142 1538.8 Q273.142 1543.92 269.624 1546.72 Q266.105 1549.52 259.624 1549.52 Q257.448 1549.52 255.133 1549.08 Q252.841 1548.66 250.388 1547.81 L250.388 1543.29 Q252.332 1544.43 254.647 1545.01 Q256.962 1545.58 259.485 1545.58 Q263.883 1545.58 266.175 1543.85 Q268.489 1542.11 268.489 1538.8 Q268.489 1535.75 266.337 1534.03 Q264.207 1532.3 260.388 1532.3 L256.36 1532.3 L256.36 1528.45 L260.573 1528.45 Q264.022 1528.45 265.851 1527.09 Q267.679 1525.7 267.679 1523.11 Q267.679 1520.45 265.781 1519.03 Q263.906 1517.6 260.388 1517.6 Q258.466 1517.6 256.267 1518.01 Q254.068 1518.43 251.429 1519.31 L251.429 1515.14 Q254.091 1514.4 256.406 1514.03 Q258.744 1513.66 260.804 1513.66 Q266.128 1513.66 269.23 1516.09 Q272.332 1518.5 272.332 1522.62 Q272.332 1525.49 270.689 1527.48 Q269.045 1529.45 266.013 1530.21 Z" fill="#000000" fill-rule="nonzero" fill-opacity="1" /><path clip-path="url(#clip720)" d="M605.994 1532.02 L635.67 1532.02 L635.67 1535.95 L605.994 1535.95 L605.994 1532.02 Z" fill="#000000" fill-rule="nonzero" fill-opacity="1" /><path clip-path="url(#clip720)" d="M649.79 1544.91 L666.11 1544.91 L666.11 1548.85 L644.165 1548.85 L644.165 1544.91 Q646.827 1542.16 651.411 1537.53 Q656.017 1532.88 657.198 1531.53 Q659.443 1529.01 660.323 1527.27 Q661.225 1525.51 661.225 1523.82 Q661.225 1521.07 659.281 1519.33 Q657.36 1517.6 654.258 1517.6 Q652.059 1517.6 649.605 1518.36 Q647.174 1519.13 644.397 1520.68 L644.397 1515.95 Q647.221 1514.82 649.674 1514.24 Q652.128 1513.66 654.165 1513.66 Q659.536 1513.66 662.73 1516.35 Q665.924 1519.03 665.924 1523.52 Q665.924 1525.65 665.114 1527.57 Q664.327 1529.47 662.221 1532.07 Q661.642 1532.74 658.54 1535.95 Q655.438 1539.15 649.79 1544.91 Z" fill="#000000" fill-rule="nonzero" fill-opacity="1" /><path clip-path="url(#clip720)" d="M999.251 1532.02 L1028.93 1532.02 L1028.93 1535.95 L999.251 1535.95 L999.251 1532.02 Z" fill="#000000" fill-rule="nonzero" fill-opacity="1" /><path clip-path="url(#clip720)" d="M1039.83 1544.91 L1047.47 1544.91 L1047.47 1518.55 L1039.16 1520.21 L1039.16 1515.95 L1047.42 1514.29 L1052.1 1514.29 L1052.1 1544.91 L1059.74 1544.91 L1059.74 1548.85 L1039.83 1548.85 L1039.83 1544.91 Z" fill="#000000" fill-rule="nonzero" fill-opacity="1" /><path clip-path="url(#clip720)" d="M1422.94 1517.37 Q1419.32 1517.37 1417.5 1520.93 Q1415.69 1524.47 1415.69 1531.6 Q1415.69 1538.71 1417.5 1542.27 Q1419.32 1545.82 1422.94 1545.82 Q1426.57 1545.82 1428.38 1542.27 Q1430.2 1538.71 1430.2 1531.6 Q1430.2 1524.47 1428.38 1520.93 Q1426.57 1517.37 1422.94 1517.37 M1422.94 1513.66 Q1428.75 1513.66 1431.8 1518.27 Q1434.88 1522.85 1434.88 1531.6 Q1434.88 1540.33 1431.8 1544.94 Q1428.75 1549.52 1422.94 1549.52 Q1417.13 1549.52 1414.05 1544.94 Q1410.99 1540.33 1410.99 1531.6 Q1410.99 1522.85 1414.05 1518.27 Q1417.13 1513.66 1422.94 1513.66 Z" fill="#000000" fill-rule="nonzero" fill-opacity="1" /><path clip-path="url(#clip720)" d="M1806.76 1544.91 L1814.4 1544.91 L1814.4 1518.55 L1806.09 1520.21 L1806.09 1515.95 L1814.35 1514.29 L1819.03 1514.29 L1819.03 1544.91 L1826.67 1544.91 L1826.67 1548.85 L1806.76 1548.85 L1806.76 1544.91 Z" fill="#000000" fill-rule="nonzero" fill-opacity="1" /><path clip-path="url(#clip720)" d="M2204.47 1544.91 L2220.79 1544.91 L2220.79 1548.85 L2198.85 1548.85 L2198.85 1544.91 Q2201.51 1542.16 2206.09 1537.53 Q2210.7 1532.88 2211.88 1531.53 Q2214.12 1529.01 2215 1527.27 Q2215.91 1525.51 2215.91 1523.82 Q2215.91 1521.07 2213.96 1519.33 Q2212.04 1517.6 2208.94 1517.6 Q2206.74 1517.6 2204.29 1518.36 Q2201.86 1519.13 2199.08 1520.68 L2199.08 1515.95 Q2201.9 1514.82 2204.36 1514.24 Q2206.81 1513.66 2208.85 1513.66 Q2214.22 1513.66 2217.41 1516.35 Q2220.61 1519.03 2220.61 1523.52 Q2220.61 1525.65 2219.8 1527.57 Q2219.01 1529.47 2216.9 1532.07 Q2216.32 1532.74 2213.22 1535.95 Q2210.12 1539.15 2204.47 1544.91 Z" fill="#000000" fill-rule="nonzero" fill-opacity="1" /><polyline clip-path="url(#clip720)" style="stroke:#000000; stroke-linecap:round; stroke-linejoin:round; stroke-width:4; stroke-opacity:1; fill:none" points="193.936,1486.45 193.936,47.2441 "/>
<polyline clip-path="url(#clip720)" style="stroke:#000000; stroke-linecap:round; stroke-linejoin:round; stroke-width:4; stroke-opacity:1; fill:none" points="193.936,1313.59 212.834,1313.59 "/>
<polyline clip-path="url(#clip720)" style="stroke:#000000; stroke-linecap:round; stroke-linejoin:round; stroke-width:4; stroke-opacity:1; fill:none" points="193.936,1131.95 212.834,1131.95 "/>
<polyline clip-path="url(#clip720)" style="stroke:#000000; stroke-linecap:round; stroke-linejoin:round; stroke-width:4; stroke-opacity:1; fill:none" points="193.936,950.301 212.834,950.301 "/>
<polyline clip-path="url(#clip720)" style="stroke:#000000; stroke-linecap:round; stroke-linejoin:round; stroke-width:4; stroke-opacity:1; fill:none" points="193.936,768.657 212.834,768.657 "/>
<polyline clip-path="url(#clip720)" style="stroke:#000000; stroke-linecap:round; stroke-linejoin:round; stroke-width:4; stroke-opacity:1; fill:none" points="193.936,587.012 212.834,587.012 "/>
<polyline clip-path="url(#clip720)" style="stroke:#000000; stroke-linecap:round; stroke-linejoin:round; stroke-width:4; stroke-opacity:1; fill:none" points="193.936,405.367 212.834,405.367 "/>
<polyline clip-path="url(#clip720)" style="stroke:#000000; stroke-linecap:round; stroke-linejoin:round; stroke-width:4; stroke-opacity:1; fill:none" points="193.936,223.723 212.834,223.723 "/>
<path clip-path="url(#clip720)" d="M51.9875 1314.04 L81.6633 1314.04 L81.6633 1317.98 L51.9875 1317.98 L51.9875 1314.04 Z" fill="#000000" fill-rule="nonzero" fill-opacity="1" /><path clip-path="url(#clip720)" d="M92.566 1326.93 L100.205 1326.93 L100.205 1300.57 L91.8947 1302.24 L91.8947 1297.98 L100.159 1296.31 L104.834 1296.31 L104.834 1326.93 L112.473 1326.93 L112.473 1330.87 L92.566 1330.87 L92.566 1326.93 Z" fill="#000000" fill-rule="nonzero" fill-opacity="1" /><path clip-path="url(#clip720)" d="M121.918 1324.99 L126.802 1324.99 L126.802 1330.87 L121.918 1330.87 L121.918 1324.99 Z" fill="#000000" fill-rule="nonzero" fill-opacity="1" /><path clip-path="url(#clip720)" d="M137.033 1296.31 L155.39 1296.31 L155.39 1300.25 L141.316 1300.25 L141.316 1308.72 Q142.334 1308.37 143.353 1308.21 Q144.371 1308.02 145.39 1308.02 Q151.177 1308.02 154.556 1311.19 Q157.936 1314.37 157.936 1319.78 Q157.936 1325.36 154.464 1328.46 Q150.992 1331.54 144.672 1331.54 Q142.496 1331.54 140.228 1331.17 Q137.982 1330.8 135.575 1330.06 L135.575 1325.36 Q137.658 1326.5 139.881 1327.05 Q142.103 1327.61 144.58 1327.61 Q148.584 1327.61 150.922 1325.5 Q153.26 1323.39 153.26 1319.78 Q153.26 1316.17 150.922 1314.06 Q148.584 1311.96 144.58 1311.96 Q142.705 1311.96 140.83 1312.37 Q138.978 1312.79 137.033 1313.67 L137.033 1296.31 Z" fill="#000000" fill-rule="nonzero" fill-opacity="1" /><path clip-path="url(#clip720)" d="M50.9921 1132.4 L80.6679 1132.4 L80.6679 1136.33 L50.9921 1136.33 L50.9921 1132.4 Z" fill="#000000" fill-rule="nonzero" fill-opacity="1" /><path clip-path="url(#clip720)" d="M91.5706 1145.29 L99.2095 1145.29 L99.2095 1118.92 L90.8993 1120.59 L90.8993 1116.33 L99.1632 1114.67 L103.839 1114.67 L103.839 1145.29 L111.478 1145.29 L111.478 1149.23 L91.5706 1149.23 L91.5706 1145.29 Z" fill="#000000" fill-rule="nonzero" fill-opacity="1" /><path clip-path="url(#clip720)" d="M120.922 1143.35 L125.807 1143.35 L125.807 1149.23 L120.922 1149.23 L120.922 1143.35 Z" fill="#000000" fill-rule="nonzero" fill-opacity="1" /><path clip-path="url(#clip720)" d="M145.992 1117.74 Q142.381 1117.74 140.552 1121.31 Q138.746 1124.85 138.746 1131.98 Q138.746 1139.09 140.552 1142.65 Q142.381 1146.19 145.992 1146.19 Q149.626 1146.19 151.431 1142.65 Q153.26 1139.09 153.26 1131.98 Q153.26 1124.85 151.431 1121.31 Q149.626 1117.74 145.992 1117.74 M145.992 1114.04 Q151.802 1114.04 154.857 1118.65 Q157.936 1123.23 157.936 1131.98 Q157.936 1140.71 154.857 1145.31 Q151.802 1149.9 145.992 1149.9 Q140.181 1149.9 137.103 1145.31 Q134.047 1140.71 134.047 1131.98 Q134.047 1123.23 137.103 1118.65 Q140.181 1114.04 145.992 1114.04 Z" fill="#000000" fill-rule="nonzero" fill-opacity="1" /><path clip-path="url(#clip720)" d="M51.9875 950.752 L81.6633 950.752 L81.6633 954.688 L51.9875 954.688 L51.9875 950.752 Z" fill="#000000" fill-rule="nonzero" fill-opacity="1" /><path clip-path="url(#clip720)" d="M101.756 936.1 Q98.1447 936.1 96.316 939.664 Q94.5104 943.206 94.5104 950.336 Q94.5104 957.442 96.316 961.007 Q98.1447 964.549 101.756 964.549 Q105.39 964.549 107.196 961.007 Q109.024 957.442 109.024 950.336 Q109.024 943.206 107.196 939.664 Q105.39 936.1 101.756 936.1 M101.756 932.396 Q107.566 932.396 110.621 937.002 Q113.7 941.586 113.7 950.336 Q113.7 959.063 110.621 963.669 Q107.566 968.252 101.756 968.252 Q95.9456 968.252 92.8669 963.669 Q89.8114 959.063 89.8114 950.336 Q89.8114 941.586 92.8669 937.002 Q95.9456 932.396 101.756 932.396 Z" fill="#000000" fill-rule="nonzero" fill-opacity="1" /><path clip-path="url(#clip720)" d="M121.918 961.701 L126.802 961.701 L126.802 967.581 L121.918 967.581 L121.918 961.701 Z" fill="#000000" fill-rule="nonzero" fill-opacity="1" /><path clip-path="url(#clip720)" d="M137.033 933.021 L155.39 933.021 L155.39 936.956 L141.316 936.956 L141.316 945.428 Q142.334 945.081 143.353 944.919 Q144.371 944.734 145.39 944.734 Q151.177 944.734 154.556 947.905 Q157.936 951.076 157.936 956.493 Q157.936 962.072 154.464 965.174 Q150.992 968.252 144.672 968.252 Q142.496 968.252 140.228 967.882 Q137.982 967.512 135.575 966.771 L135.575 962.072 Q137.658 963.206 139.881 963.762 Q142.103 964.317 144.58 964.317 Q148.584 964.317 150.922 962.211 Q153.26 960.104 153.26 956.493 Q153.26 952.882 150.922 950.776 Q148.584 948.669 144.58 948.669 Q142.705 948.669 140.83 949.086 Q138.978 949.502 137.033 950.382 L137.033 933.021 Z" fill="#000000" fill-rule="nonzero" fill-opacity="1" /><path clip-path="url(#clip720)" d="M100.76 754.455 Q97.1493 754.455 95.3206 758.02 Q93.515 761.562 93.515 768.691 Q93.515 775.798 95.3206 779.362 Q97.1493 782.904 100.76 782.904 Q104.395 782.904 106.2 779.362 Q108.029 775.798 108.029 768.691 Q108.029 761.562 106.2 758.02 Q104.395 754.455 100.76 754.455 M100.76 750.752 Q106.571 750.752 109.626 755.358 Q112.705 759.941 112.705 768.691 Q112.705 777.418 109.626 782.024 Q106.571 786.608 100.76 786.608 Q94.9502 786.608 91.8715 782.024 Q88.816 777.418 88.816 768.691 Q88.816 759.941 91.8715 755.358 Q94.9502 750.752 100.76 750.752 Z" fill="#000000" fill-rule="nonzero" fill-opacity="1" /><path clip-path="url(#clip720)" d="M120.922 780.057 L125.807 780.057 L125.807 785.937 L120.922 785.937 L120.922 780.057 Z" fill="#000000" fill-rule="nonzero" fill-opacity="1" /><path clip-path="url(#clip720)" d="M145.992 754.455 Q142.381 754.455 140.552 758.02 Q138.746 761.562 138.746 768.691 Q138.746 775.798 140.552 779.362 Q142.381 782.904 145.992 782.904 Q149.626 782.904 151.431 779.362 Q153.26 775.798 153.26 768.691 Q153.26 761.562 151.431 758.02 Q149.626 754.455 145.992 754.455 M145.992 750.752 Q151.802 750.752 154.857 755.358 Q157.936 759.941 157.936 768.691 Q157.936 777.418 154.857 782.024 Q151.802 786.608 145.992 786.608 Q140.181 786.608 137.103 782.024 Q134.047 777.418 134.047 768.691 Q134.047 759.941 137.103 755.358 Q140.181 750.752 145.992 750.752 Z" fill="#000000" fill-rule="nonzero" fill-opacity="1" /><path clip-path="url(#clip720)" d="M101.756 572.811 Q98.1447 572.811 96.316 576.375 Q94.5104 579.917 94.5104 587.047 Q94.5104 594.153 96.316 597.718 Q98.1447 601.26 101.756 601.26 Q105.39 601.26 107.196 597.718 Q109.024 594.153 109.024 587.047 Q109.024 579.917 107.196 576.375 Q105.39 572.811 101.756 572.811 M101.756 569.107 Q107.566 569.107 110.621 573.713 Q113.7 578.297 113.7 587.047 Q113.7 595.774 110.621 600.38 Q107.566 604.963 101.756 604.963 Q95.9456 604.963 92.8669 600.38 Q89.8114 595.774 89.8114 587.047 Q89.8114 578.297 92.8669 573.713 Q95.9456 569.107 101.756 569.107 Z" fill="#000000" fill-rule="nonzero" fill-opacity="1" /><path clip-path="url(#clip720)" d="M121.918 598.412 L126.802 598.412 L126.802 604.292 L121.918 604.292 L121.918 598.412 Z" fill="#000000" fill-rule="nonzero" fill-opacity="1" /><path clip-path="url(#clip720)" d="M137.033 569.732 L155.39 569.732 L155.39 573.667 L141.316 573.667 L141.316 582.139 Q142.334 581.792 143.353 581.63 Q144.371 581.445 145.39 581.445 Q151.177 581.445 154.556 584.616 Q157.936 587.787 157.936 593.204 Q157.936 598.783 154.464 601.885 Q150.992 604.963 144.672 604.963 Q142.496 604.963 140.228 604.593 Q137.982 604.223 135.575 603.482 L135.575 598.783 Q137.658 599.917 139.881 600.473 Q142.103 601.028 144.58 601.028 Q148.584 601.028 150.922 598.922 Q153.26 596.815 153.26 593.204 Q153.26 589.593 150.922 587.487 Q148.584 585.38 144.58 585.38 Q142.705 585.38 140.83 585.797 Q138.978 586.213 137.033 587.093 L137.033 569.732 Z" fill="#000000" fill-rule="nonzero" fill-opacity="1" /><path clip-path="url(#clip720)" d="M91.5706 418.712 L99.2095 418.712 L99.2095 392.347 L90.8993 394.013 L90.8993 389.754 L99.1632 388.087 L103.839 388.087 L103.839 418.712 L111.478 418.712 L111.478 422.647 L91.5706 422.647 L91.5706 418.712 Z" fill="#000000" fill-rule="nonzero" fill-opacity="1" /><path clip-path="url(#clip720)" d="M120.922 416.768 L125.807 416.768 L125.807 422.647 L120.922 422.647 L120.922 416.768 Z" fill="#000000" fill-rule="nonzero" fill-opacity="1" /><path clip-path="url(#clip720)" d="M145.992 391.166 Q142.381 391.166 140.552 394.731 Q138.746 398.273 138.746 405.402 Q138.746 412.509 140.552 416.073 Q142.381 419.615 145.992 419.615 Q149.626 419.615 151.431 416.073 Q153.26 412.509 153.26 405.402 Q153.26 398.273 151.431 394.731 Q149.626 391.166 145.992 391.166 M145.992 387.462 Q151.802 387.462 154.857 392.069 Q157.936 396.652 157.936 405.402 Q157.936 414.129 154.857 418.735 Q151.802 423.319 145.992 423.319 Q140.181 423.319 137.103 418.735 Q134.047 414.129 134.047 405.402 Q134.047 396.652 137.103 392.069 Q140.181 387.462 145.992 387.462 Z" fill="#000000" fill-rule="nonzero" fill-opacity="1" /><path clip-path="url(#clip720)" d="M92.566 237.068 L100.205 237.068 L100.205 210.702 L91.8947 212.369 L91.8947 208.11 L100.159 206.443 L104.834 206.443 L104.834 237.068 L112.473 237.068 L112.473 241.003 L92.566 241.003 L92.566 237.068 Z" fill="#000000" fill-rule="nonzero" fill-opacity="1" /><path clip-path="url(#clip720)" d="M121.918 235.123 L126.802 235.123 L126.802 241.003 L121.918 241.003 L121.918 235.123 Z" fill="#000000" fill-rule="nonzero" fill-opacity="1" /><path clip-path="url(#clip720)" d="M137.033 206.443 L155.39 206.443 L155.39 210.378 L141.316 210.378 L141.316 218.85 Q142.334 218.503 143.353 218.341 Q144.371 218.156 145.39 218.156 Q151.177 218.156 154.556 221.327 Q157.936 224.498 157.936 229.915 Q157.936 235.494 154.464 238.596 Q150.992 241.674 144.672 241.674 Q142.496 241.674 140.228 241.304 Q137.982 240.934 135.575 240.193 L135.575 235.494 Q137.658 236.628 139.881 237.184 Q142.103 237.739 144.58 237.739 Q148.584 237.739 150.922 235.633 Q153.26 233.526 153.26 229.915 Q153.26 226.304 150.922 224.198 Q148.584 222.091 144.58 222.091 Q142.705 222.091 140.83 222.508 Q138.978 222.924 137.033 223.804 L137.033 206.443 Z" fill="#000000" fill-rule="nonzero" fill-opacity="1" /><circle clip-path="url(#clip722)" cx="1388.94" cy="902.772" r="14.4" fill="#009af9" fill-rule="evenodd" fill-opacity="0.5" stroke="#000000" stroke-opacity="0.5" stroke-width="3.2"/>
<circle clip-path="url(#clip722)" cx="1533.44" cy="879.418" r="14.4" fill="#009af9" fill-rule="evenodd" fill-opacity="0.5" stroke="#000000" stroke-opacity="0.5" stroke-width="3.2"/>
<circle clip-path="url(#clip722)" cx="1545.59" cy="664.01" r="14.4" fill="#009af9" fill-rule="evenodd" fill-opacity="0.5" stroke="#000000" stroke-opacity="0.5" stroke-width="3.2"/>
<circle clip-path="url(#clip722)" cx="1507.09" cy="879.736" r="14.4" fill="#009af9" fill-rule="evenodd" fill-opacity="0.5" stroke="#000000" stroke-opacity="0.5" stroke-width="3.2"/>
<circle clip-path="url(#clip722)" cx="1182.52" cy="1445.72" r="14.4" fill="#009af9" fill-rule="evenodd" fill-opacity="0.5" stroke="#000000" stroke-opacity="0.5" stroke-width="3.2"/>
<circle clip-path="url(#clip722)" cx="1977.83" cy="407.745" r="14.4" fill="#009af9" fill-rule="evenodd" fill-opacity="0.5" stroke="#000000" stroke-opacity="0.5" stroke-width="3.2"/>
<circle clip-path="url(#clip722)" cx="2280.43" cy="788.659" r="14.4" fill="#009af9" fill-rule="evenodd" fill-opacity="0.5" stroke="#000000" stroke-opacity="0.5" stroke-width="3.2"/>
<circle clip-path="url(#clip722)" cx="1647.02" cy="1296.27" r="14.4" fill="#009af9" fill-rule="evenodd" fill-opacity="0.5" stroke="#000000" stroke-opacity="0.5" stroke-width="3.2"/>
<circle clip-path="url(#clip722)" cx="1729.56" cy="87.9763" r="14.4" fill="#009af9" fill-rule="evenodd" fill-opacity="0.5" stroke="#000000" stroke-opacity="0.5" stroke-width="3.2"/>
<circle clip-path="url(#clip722)" cx="1181.3" cy="351.8" r="14.4" fill="#009af9" fill-rule="evenodd" fill-opacity="0.5" stroke="#000000" stroke-opacity="0.5" stroke-width="3.2"/>
<circle clip-path="url(#clip722)" cx="1708.85" cy="982.286" r="14.4" fill="#009af9" fill-rule="evenodd" fill-opacity="0.5" stroke="#000000" stroke-opacity="0.5" stroke-width="3.2"/>
<circle clip-path="url(#clip722)" cx="1870.21" cy="761.143" r="14.4" fill="#009af9" fill-rule="evenodd" fill-opacity="0.5" stroke="#000000" stroke-opacity="0.5" stroke-width="3.2"/>
<circle clip-path="url(#clip722)" cx="1489.06" cy="736.544" r="14.4" fill="#009af9" fill-rule="evenodd" fill-opacity="0.5" stroke="#000000" stroke-opacity="0.5" stroke-width="3.2"/>
<circle clip-path="url(#clip722)" cx="1210.22" cy="362.71" r="14.4" fill="#009af9" fill-rule="evenodd" fill-opacity="0.5" stroke="#000000" stroke-opacity="0.5" stroke-width="3.2"/>
<circle clip-path="url(#clip722)" cx="1138.44" cy="505.248" r="14.4" fill="#009af9" fill-rule="evenodd" fill-opacity="0.5" stroke="#000000" stroke-opacity="0.5" stroke-width="3.2"/>
<circle clip-path="url(#clip722)" cx="902.425" cy="478.117" r="14.4" fill="#009af9" fill-rule="evenodd" fill-opacity="0.5" stroke="#000000" stroke-opacity="0.5" stroke-width="3.2"/>
<circle clip-path="url(#clip722)" cx="1413.21" cy="522.179" r="14.4" fill="#009af9" fill-rule="evenodd" fill-opacity="0.5" stroke="#000000" stroke-opacity="0.5" stroke-width="3.2"/>
<circle clip-path="url(#clip722)" cx="1168.27" cy="614.932" r="14.4" fill="#009af9" fill-rule="evenodd" fill-opacity="0.5" stroke="#000000" stroke-opacity="0.5" stroke-width="3.2"/>
<circle clip-path="url(#clip722)" cx="494.631" cy="1052.77" r="14.4" fill="#009af9" fill-rule="evenodd" fill-opacity="0.5" stroke="#000000" stroke-opacity="0.5" stroke-width="3.2"/>
<circle clip-path="url(#clip722)" cx="1218.13" cy="213.728" r="14.4" fill="#009af9" fill-rule="evenodd" fill-opacity="0.5" stroke="#000000" stroke-opacity="0.5" stroke-width="3.2"/>
<circle clip-path="url(#clip722)" cx="868.73" cy="663.339" r="14.4" fill="#009af9" fill-rule="evenodd" fill-opacity="0.5" stroke="#000000" stroke-opacity="0.5" stroke-width="3.2"/>
<circle clip-path="url(#clip722)" cx="1843.86" cy="296.867" r="14.4" fill="#009af9" fill-rule="evenodd" fill-opacity="0.5" stroke="#000000" stroke-opacity="0.5" stroke-width="3.2"/>
<circle clip-path="url(#clip722)" cx="1554.18" cy="1039.19" r="14.4" fill="#009af9" fill-rule="evenodd" fill-opacity="0.5" stroke="#000000" stroke-opacity="0.5" stroke-width="3.2"/>
<circle clip-path="url(#clip722)" cx="658.825" cy="464.441" r="14.4" fill="#009af9" fill-rule="evenodd" fill-opacity="0.5" stroke="#000000" stroke-opacity="0.5" stroke-width="3.2"/>
<circle clip-path="url(#clip722)" cx="1311.36" cy="1066.21" r="14.4" fill="#009af9" fill-rule="evenodd" fill-opacity="0.5" stroke="#000000" stroke-opacity="0.5" stroke-width="3.2"/>
<circle clip-path="url(#clip722)" cx="1114.39" cy="323.214" r="14.4" fill="#009af9" fill-rule="evenodd" fill-opacity="0.5" stroke="#000000" stroke-opacity="0.5" stroke-width="3.2"/>
<circle clip-path="url(#clip722)" cx="2291.66" cy="1376.33" r="14.4" fill="#009af9" fill-rule="evenodd" fill-opacity="0.5" stroke="#000000" stroke-opacity="0.5" stroke-width="3.2"/>
<circle clip-path="url(#clip722)" cx="1227.11" cy="1005.62" r="14.4" fill="#009af9" fill-rule="evenodd" fill-opacity="0.5" stroke="#000000" stroke-opacity="0.5" stroke-width="3.2"/>
<circle clip-path="url(#clip722)" cx="255.035" cy="908.757" r="14.4" fill="#009af9" fill-rule="evenodd" fill-opacity="0.5" stroke="#000000" stroke-opacity="0.5" stroke-width="3.2"/>
<circle clip-path="url(#clip722)" cx="1664.43" cy="1188.56" r="14.4" fill="#009af9" fill-rule="evenodd" fill-opacity="0.5" stroke="#000000" stroke-opacity="0.5" stroke-width="3.2"/>
<path clip-path="url(#clip722)" d="M255.035 908.757 L494.631 1052.77 L1182.52 1445.72 L2291.66 1376.33 L2280.43 788.659 L1729.56 87.9763 L1218.13 213.728 L658.825 464.441 L255.035 908.757 L255.035 908.757  Z" fill="#e26f46" fill-rule="evenodd" fill-opacity="0.2"/>
<polyline clip-path="url(#clip722)" style="stroke:#000000; stroke-linecap:round; stroke-linejoin:round; stroke-width:4; stroke-opacity:0.2; fill:none" points="255.035,908.757 494.631,1052.77 1182.52,1445.72 2291.66,1376.33 2280.43,788.659 1729.56,87.9763 1218.13,213.728 658.825,464.441 255.035,908.757 "/>
</svg>
