<?xml version="1.0" encoding="utf-8"?>
<svg xmlns="http://www.w3.org/2000/svg" xmlns:xlink="http://www.w3.org/1999/xlink" width="600" height="400" viewBox="0 0 2400 1600">
<defs>
  <clipPath id="clip930">
    <rect x="0" y="0" width="2400" height="1600"/>
  </clipPath>
</defs>
<path clip-path="url(#clip930)" d="M0 1600 L2400 1600 L2400 0 L0 0  Z" fill="#ffffff" fill-rule="evenodd" fill-opacity="1"/>
<defs>
  <clipPath id="clip931">
    <rect x="480" y="0" width="1681" height="1600"/>
  </clipPath>
</defs>
<path clip-path="url(#clip930)" d="M147.478 1486.45 L2352.76 1486.45 L2352.76 47.2441 L147.478 47.2441  Z" fill="#ffffff" fill-rule="evenodd" fill-opacity="1"/>
<defs>
  <clipPath id="clip932">
    <rect x="147" y="47" width="2206" height="1440"/>
  </clipPath>
</defs>
<polyline clip-path="url(#clip932)" style="stroke:#000000; stroke-linecap:round; stroke-linejoin:round; stroke-width:2; stroke-opacity:0.1; fill:none" points="523.029,1486.45 523.029,47.2441 "/>
<polyline clip-path="url(#clip932)" style="stroke:#000000; stroke-linecap:round; stroke-linejoin:round; stroke-width:2; stroke-opacity:0.1; fill:none" points="998.825,1486.45 998.825,47.2441 "/>
<polyline clip-path="url(#clip932)" style="stroke:#000000; stroke-linecap:round; stroke-linejoin:round; stroke-width:2; stroke-opacity:0.1; fill:none" points="1474.62,1486.45 1474.62,47.2441 "/>
<polyline clip-path="url(#clip932)" style="stroke:#000000; stroke-linecap:round; stroke-linejoin:round; stroke-width:2; stroke-opacity:0.1; fill:none" points="1950.42,1486.45 1950.42,47.2441 "/>
<polyline clip-path="url(#clip930)" style="stroke:#000000; stroke-linecap:round; stroke-linejoin:round; stroke-width:4; stroke-opacity:1; fill:none" points="147.478,1486.45 2352.76,1486.45 "/>
<polyline clip-path="url(#clip930)" style="stroke:#000000; stroke-linecap:round; stroke-linejoin:round; stroke-width:4; stroke-opacity:1; fill:none" points="523.029,1486.45 523.029,1467.55 "/>
<polyline clip-path="url(#clip930)" style="stroke:#000000; stroke-linecap:round; stroke-linejoin:round; stroke-width:4; stroke-opacity:1; fill:none" points="998.825,1486.45 998.825,1467.55 "/>
<polyline clip-path="url(#clip930)" style="stroke:#000000; stroke-linecap:round; stroke-linejoin:round; stroke-width:4; stroke-opacity:1; fill:none" points="1474.62,1486.45 1474.62,1467.55 "/>
<polyline clip-path="url(#clip930)" style="stroke:#000000; stroke-linecap:round; stroke-linejoin:round; stroke-width:4; stroke-opacity:1; fill:none" points="1950.42,1486.45 1950.42,1467.55 "/>
<path clip-path="url(#clip930)" d="M492.971 1532.02 L522.647 1532.02 L522.647 1535.95 L492.971 1535.95 L492.971 1532.02 Z" fill="#000000" fill-rule="nonzero" fill-opacity="1" /><path clip-path="url(#clip930)" d="M536.767 1544.91 L553.086 1544.91 L553.086 1548.85 L531.142 1548.85 L531.142 1544.91 Q533.804 1542.16 538.387 1537.53 Q542.994 1532.88 544.174 1531.53 Q546.42 1529.01 547.299 1527.27 Q548.202 1525.51 548.202 1523.82 Q548.202 1521.07 546.258 1519.33 Q544.336 1517.6 541.235 1517.6 Q539.036 1517.6 536.582 1518.36 Q534.151 1519.13 531.374 1520.68 L531.374 1515.95 Q534.198 1514.82 536.651 1514.24 Q539.105 1513.66 541.142 1513.66 Q546.512 1513.66 549.707 1516.35 Q552.901 1519.03 552.901 1523.52 Q552.901 1525.65 552.091 1527.57 Q551.304 1529.47 549.197 1532.07 Q548.619 1532.74 545.517 1535.95 Q542.415 1539.15 536.767 1544.91 Z" fill="#000000" fill-rule="nonzero" fill-opacity="1" /><path clip-path="url(#clip930)" d="M968.582 1532.02 L998.258 1532.02 L998.258 1535.95 L968.582 1535.95 L968.582 1532.02 Z" fill="#000000" fill-rule="nonzero" fill-opacity="1" /><path clip-path="url(#clip930)" d="M1009.16 1544.91 L1016.8 1544.91 L1016.8 1518.55 L1008.49 1520.21 L1008.49 1515.95 L1016.75 1514.29 L1021.43 1514.29 L1021.43 1544.91 L1029.07 1544.91 L1029.07 1548.85 L1009.16 1548.85 L1009.16 1544.91 Z" fill="#000000" fill-rule="nonzero" fill-opacity="1" /><path clip-path="url(#clip930)" d="M1474.62 1517.37 Q1471.01 1517.37 1469.18 1520.93 Q1467.38 1524.47 1467.38 1531.6 Q1467.38 1538.71 1469.18 1542.27 Q1471.01 1545.82 1474.62 1545.82 Q1478.26 1545.82 1480.06 1542.27 Q1481.89 1538.71 1481.89 1531.6 Q1481.89 1524.47 1480.06 1520.93 Q1478.26 1517.37 1474.62 1517.37 M1474.62 1513.66 Q1480.43 1513.66 1483.49 1518.27 Q1486.57 1522.85 1486.57 1531.6 Q1486.57 1540.33 1483.49 1544.94 Q1480.43 1549.52 1474.62 1549.52 Q1468.81 1549.52 1465.73 1544.94 Q1462.68 1540.33 1462.68 1531.6 Q1462.68 1522.85 1465.73 1518.27 Q1468.81 1513.66 1474.62 1513.66 Z" fill="#000000" fill-rule="nonzero" fill-opacity="1" /><path clip-path="url(#clip930)" d="M1940.8 1544.91 L1948.44 1544.91 L1948.44 1518.55 L1940.13 1520.21 L1940.13 1515.95 L1948.39 1514.29 L1953.07 1514.29 L1953.07 1544.91 L1960.71 1544.91 L1960.71 1548.85 L1940.8 1548.85 L1940.8 1544.91 Z" fill="#000000" fill-rule="nonzero" fill-opacity="1" /><polyline clip-path="url(#clip932)" style="stroke:#000000; stroke-linecap:round; stroke-linejoin:round; stroke-width:2; stroke-opacity:0.1; fill:none" points="147.478,1278.42 2352.76,1278.42 "/>
<polyline clip-path="url(#clip932)" style="stroke:#000000; stroke-linecap:round; stroke-linejoin:round; stroke-width:2; stroke-opacity:0.1; fill:none" points="147.478,955.239 2352.76,955.239 "/>
<polyline clip-path="url(#clip932)" style="stroke:#000000; stroke-linecap:round; stroke-linejoin:round; stroke-width:2; stroke-opacity:0.1; fill:none" points="147.478,632.057 2352.76,632.057 "/>
<polyline clip-path="url(#clip932)" style="stroke:#000000; stroke-linecap:round; stroke-linejoin:round; stroke-width:2; stroke-opacity:0.1; fill:none" points="147.478,308.876 2352.76,308.876 "/>
<polyline clip-path="url(#clip930)" style="stroke:#000000; stroke-linecap:round; stroke-linejoin:round; stroke-width:4; stroke-opacity:1; fill:none" points="147.478,1486.45 147.478,47.2441 "/>
<polyline clip-path="url(#clip930)" style="stroke:#000000; stroke-linecap:round; stroke-linejoin:round; stroke-width:4; stroke-opacity:1; fill:none" points="147.478,1278.42 166.376,1278.42 "/>
<polyline clip-path="url(#clip930)" style="stroke:#000000; stroke-linecap:round; stroke-linejoin:round; stroke-width:4; stroke-opacity:1; fill:none" points="147.478,955.239 166.376,955.239 "/>
<polyline clip-path="url(#clip930)" style="stroke:#000000; stroke-linecap:round; stroke-linejoin:round; stroke-width:4; stroke-opacity:1; fill:none" points="147.478,632.057 166.376,632.057 "/>
<polyline clip-path="url(#clip930)" style="stroke:#000000; stroke-linecap:round; stroke-linejoin:round; stroke-width:4; stroke-opacity:1; fill:none" points="147.478,308.876 166.376,308.876 "/>
<path clip-path="url(#clip930)" d="M51.3625 1278.87 L81.0383 1278.87 L81.0383 1282.81 L51.3625 1282.81 L51.3625 1278.87 Z" fill="#000000" fill-rule="nonzero" fill-opacity="1" /><path clip-path="url(#clip930)" d="M95.1586 1291.77 L111.478 1291.77 L111.478 1295.7 L89.5336 1295.7 L89.5336 1291.77 Q92.1956 1289.01 96.7789 1284.38 Q101.385 1279.73 102.566 1278.39 Q104.811 1275.86 105.691 1274.13 Q106.594 1272.37 106.594 1270.68 Q106.594 1267.92 104.649 1266.19 Q102.728 1264.45 99.6261 1264.45 Q97.4271 1264.45 94.9734 1265.21 Q92.5428 1265.98 89.7651 1267.53 L89.7651 1262.81 Q92.5891 1261.67 95.0428 1261.09 Q97.4965 1260.52 99.5335 1260.52 Q104.904 1260.52 108.098 1263.2 Q111.293 1265.89 111.293 1270.38 Q111.293 1272.51 110.483 1274.43 Q109.696 1276.33 107.589 1278.92 Q107.01 1279.59 103.909 1282.81 Q100.807 1286 95.1586 1291.77 Z" fill="#000000" fill-rule="nonzero" fill-opacity="1" /><path clip-path="url(#clip930)" d="M50.9921 955.69 L80.6679 955.69 L80.6679 959.625 L50.9921 959.625 L50.9921 955.69 Z" fill="#000000" fill-rule="nonzero" fill-opacity="1" /><path clip-path="url(#clip930)" d="M91.5706 968.584 L99.2095 968.584 L99.2095 942.218 L90.8993 943.885 L90.8993 939.626 L99.1632 937.959 L103.839 937.959 L103.839 968.584 L111.478 968.584 L111.478 972.519 L91.5706 972.519 L91.5706 968.584 Z" fill="#000000" fill-rule="nonzero" fill-opacity="1" /><path clip-path="url(#clip930)" d="M99.5335 617.856 Q95.9224 617.856 94.0937 621.421 Q92.2882 624.962 92.2882 632.092 Q92.2882 639.198 94.0937 642.763 Q95.9224 646.305 99.5335 646.305 Q103.168 646.305 104.973 642.763 Q106.802 639.198 106.802 632.092 Q106.802 624.962 104.973 621.421 Q103.168 617.856 99.5335 617.856 M99.5335 614.152 Q105.344 614.152 108.399 618.759 Q111.478 623.342 111.478 632.092 Q111.478 640.819 108.399 645.425 Q105.344 650.009 99.5335 650.009 Q93.7234 650.009 90.6447 645.425 Q87.5892 640.819 87.5892 632.092 Q87.5892 623.342 90.6447 618.759 Q93.7234 614.152 99.5335 614.152 Z" fill="#000000" fill-rule="nonzero" fill-opacity="1" /><path clip-path="url(#clip930)" d="M91.5706 322.22 L99.2095 322.22 L99.2095 295.855 L90.8993 297.521 L90.8993 293.262 L99.1632 291.596 L103.839 291.596 L103.839 322.22 L111.478 322.22 L111.478 326.156 L91.5706 326.156 L91.5706 322.22 Z" fill="#000000" fill-rule="nonzero" fill-opacity="1" /><circle clip-path="url(#clip932)" cx="1328.86" cy="893.367" r="14.4" fill="#009af9" fill-rule="evenodd" fill-opacity="0.5" stroke="#000000" stroke-opacity="0.5" stroke-width="3.2"/>
<circle clip-path="url(#clip932)" cx="2290.34" cy="1058.45" r="14.4" fill="#009af9" fill-rule="evenodd" fill-opacity="0.5" stroke="#000000" stroke-opacity="0.5" stroke-width="3.2"/>
<circle clip-path="url(#clip932)" cx="1797.12" cy="331.642" r="14.4" fill="#009af9" fill-rule="evenodd" fill-opacity="0.5" stroke="#000000" stroke-opacity="0.5" stroke-width="3.2"/>
<circle clip-path="url(#clip932)" cx="1763.53" cy="111.583" r="14.4" fill="#009af9" fill-rule="evenodd" fill-opacity="0.5" stroke="#000000" stroke-opacity="0.5" stroke-width="3.2"/>
<circle clip-path="url(#clip932)" cx="778.707" cy="660.806" r="14.4" fill="#009af9" fill-rule="evenodd" fill-opacity="0.5" stroke="#000000" stroke-opacity="0.5" stroke-width="3.2"/>
<circle clip-path="url(#clip932)" cx="1493.92" cy="657.279" r="14.4" fill="#009af9" fill-rule="evenodd" fill-opacity="0.5" stroke="#000000" stroke-opacity="0.5" stroke-width="3.2"/>
<circle clip-path="url(#clip932)" cx="1200.67" cy="929.468" r="14.4" fill="#009af9" fill-rule="evenodd" fill-opacity="0.5" stroke="#000000" stroke-opacity="0.5" stroke-width="3.2"/>
<circle clip-path="url(#clip932)" cx="1383.21" cy="112.751" r="14.4" fill="#009af9" fill-rule="evenodd" fill-opacity="0.5" stroke="#000000" stroke-opacity="0.5" stroke-width="3.2"/>
<circle clip-path="url(#clip932)" cx="1794.1" cy="763.419" r="14.4" fill="#009af9" fill-rule="evenodd" fill-opacity="0.5" stroke="#000000" stroke-opacity="0.5" stroke-width="3.2"/>
<circle clip-path="url(#clip932)" cx="621.748" cy="690.074" r="14.4" fill="#009af9" fill-rule="evenodd" fill-opacity="0.5" stroke="#000000" stroke-opacity="0.5" stroke-width="3.2"/>
<circle clip-path="url(#clip932)" cx="1398.14" cy="345.001" r="14.4" fill="#009af9" fill-rule="evenodd" fill-opacity="0.5" stroke="#000000" stroke-opacity="0.5" stroke-width="3.2"/>
<circle clip-path="url(#clip932)" cx="558.44" cy="1445.72" r="14.4" fill="#009af9" fill-rule="evenodd" fill-opacity="0.5" stroke="#000000" stroke-opacity="0.5" stroke-width="3.2"/>
<circle clip-path="url(#clip932)" cx="1853.29" cy="1168.19" r="14.4" fill="#009af9" fill-rule="evenodd" fill-opacity="0.5" stroke="#000000" stroke-opacity="0.5" stroke-width="3.2"/>
<circle clip-path="url(#clip932)" cx="1014.89" cy="965.49" r="14.4" fill="#009af9" fill-rule="evenodd" fill-opacity="0.5" stroke="#000000" stroke-opacity="0.5" stroke-width="3.2"/>
<circle clip-path="url(#clip932)" cx="2183.19" cy="812.306" r="14.4" fill="#009af9" fill-rule="evenodd" fill-opacity="0.5" stroke="#000000" stroke-opacity="0.5" stroke-width="3.2"/>
<circle clip-path="url(#clip932)" cx="2128.15" cy="323.09" r="14.4" fill="#009af9" fill-rule="evenodd" fill-opacity="0.5" stroke="#000000" stroke-opacity="0.5" stroke-width="3.2"/>
<circle clip-path="url(#clip932)" cx="1177.23" cy="87.9763" r="14.4" fill="#009af9" fill-rule="evenodd" fill-opacity="0.5" stroke="#000000" stroke-opacity="0.5" stroke-width="3.2"/>
<circle clip-path="url(#clip932)" cx="1652.58" cy="686.194" r="14.4" fill="#009af9" fill-rule="evenodd" fill-opacity="0.5" stroke="#000000" stroke-opacity="0.5" stroke-width="3.2"/>
<circle clip-path="url(#clip932)" cx="209.891" cy="739.97" r="14.4" fill="#009af9" fill-rule="evenodd" fill-opacity="0.5" stroke="#000000" stroke-opacity="0.5" stroke-width="3.2"/>
<circle clip-path="url(#clip932)" cx="1521.55" cy="559.79" r="14.4" fill="#009af9" fill-rule="evenodd" fill-opacity="0.5" stroke="#000000" stroke-opacity="0.5" stroke-width="3.2"/>
<circle clip-path="url(#clip932)" cx="2199.87" cy="554.575" r="14.4" fill="#009af9" fill-rule="evenodd" fill-opacity="0.5" stroke="#000000" stroke-opacity="0.5" stroke-width="3.2"/>
<circle clip-path="url(#clip932)" cx="1504.17" cy="130.772" r="14.4" fill="#009af9" fill-rule="evenodd" fill-opacity="0.5" stroke="#000000" stroke-opacity="0.5" stroke-width="3.2"/>
<circle clip-path="url(#clip932)" cx="1134.17" cy="436.253" r="14.4" fill="#009af9" fill-rule="evenodd" fill-opacity="0.5" stroke="#000000" stroke-opacity="0.5" stroke-width="3.2"/>
<circle clip-path="url(#clip932)" cx="1141.35" cy="1100.04" r="14.4" fill="#009af9" fill-rule="evenodd" fill-opacity="0.5" stroke="#000000" stroke-opacity="0.5" stroke-width="3.2"/>
<circle clip-path="url(#clip932)" cx="1312.5" cy="1001.51" r="14.4" fill="#009af9" fill-rule="evenodd" fill-opacity="0.5" stroke="#000000" stroke-opacity="0.5" stroke-width="3.2"/>
<circle clip-path="url(#clip932)" cx="2224.91" cy="384.668" r="14.4" fill="#009af9" fill-rule="evenodd" fill-opacity="0.5" stroke="#000000" stroke-opacity="0.5" stroke-width="3.2"/>
<circle clip-path="url(#clip932)" cx="2177.47" cy="842.327" r="14.4" fill="#009af9" fill-rule="evenodd" fill-opacity="0.5" stroke="#000000" stroke-opacity="0.5" stroke-width="3.2"/>
<circle clip-path="url(#clip932)" cx="1792.58" cy="664.046" r="14.4" fill="#009af9" fill-rule="evenodd" fill-opacity="0.5" stroke="#000000" stroke-opacity="0.5" stroke-width="3.2"/>
<circle clip-path="url(#clip932)" cx="624.248" cy="359.64" r="14.4" fill="#009af9" fill-rule="evenodd" fill-opacity="0.5" stroke="#000000" stroke-opacity="0.5" stroke-width="3.2"/>
<circle clip-path="url(#clip932)" cx="842.364" cy="805.527" r="14.4" fill="#009af9" fill-rule="evenodd" fill-opacity="0.5" stroke="#000000" stroke-opacity="0.5" stroke-width="3.2"/>
<path clip-path="url(#clip932)" d="M209.891 739.97 L558.44 1445.72 L1853.29 1168.19 L2290.34 1058.45 L2224.91 384.668 L2128.15 323.09 L1763.53 111.583 L1177.23 87.9763 L624.248 359.64 L209.891 739.97 L209.891 739.97  Z" fill="#e26f46" fill-rule="evenodd" fill-opacity="0.2"/>
<polyline clip-path="url(#clip932)" style="stroke:#000000; stroke-linecap:round; stroke-linejoin:round; stroke-width:4; stroke-opacity:0.2; fill:none" points="209.891,739.97 558.44,1445.72 1853.29,1168.19 2290.34,1058.45 2224.91,384.668 2128.15,323.09 1763.53,111.583 1177.23,87.9763 624.248,359.64 209.891,739.97 "/>
</svg>
