<?xml version="1.0" encoding="utf-8"?>
<svg xmlns="http://www.w3.org/2000/svg" xmlns:xlink="http://www.w3.org/1999/xlink" width="600" height="400" viewBox="0 0 2400 1600">
<defs>
  <clipPath id="clip630">
    <rect x="0" y="0" width="2400" height="1600"/>
  </clipPath>
</defs>
<path clip-path="url(#clip630)" d="M0 1600 L2400 1600 L2400 0 L0 0  Z" fill="#ffffff" fill-rule="evenodd" fill-opacity="1"/>
<defs>
  <clipPath id="clip631">
    <rect x="480" y="0" width="1681" height="1600"/>
  </clipPath>
</defs>
<path clip-path="url(#clip630)" d="M193.936 1486.45 L2352.76 1486.45 L2352.76 47.2441 L193.936 47.2441  Z" fill="#ffffff" fill-rule="evenodd" fill-opacity="1"/>
<defs>
  <clipPath id="clip632">
    <rect x="193" y="47" width="2160" height="1440"/>
  </clipPath>
</defs>
<polyline clip-path="url(#clip632)" style="stroke:#000000; stroke-linecap:round; stroke-linejoin:round; stroke-width:2; stroke-opacity:0.1; fill:none" points="207.013,1486.45 207.013,47.2441 "/>
<polyline clip-path="url(#clip632)" style="stroke:#000000; stroke-linecap:round; stroke-linejoin:round; stroke-width:2; stroke-opacity:0.1; fill:none" points="667.552,1486.45 667.552,47.2441 "/>
<polyline clip-path="url(#clip632)" style="stroke:#000000; stroke-linecap:round; stroke-linejoin:round; stroke-width:2; stroke-opacity:0.1; fill:none" points="1128.09,1486.45 1128.09,47.2441 "/>
<polyline clip-path="url(#clip632)" style="stroke:#000000; stroke-linecap:round; stroke-linejoin:round; stroke-width:2; stroke-opacity:0.1; fill:none" points="1588.63,1486.45 1588.63,47.2441 "/>
<polyline clip-path="url(#clip632)" style="stroke:#000000; stroke-linecap:round; stroke-linejoin:round; stroke-width:2; stroke-opacity:0.1; fill:none" points="2049.17,1486.45 2049.17,47.2441 "/>
<polyline clip-path="url(#clip632)" style="stroke:#000000; stroke-linecap:round; stroke-linejoin:round; stroke-width:2; stroke-opacity:0.1; fill:none" points="193.936,1448.34 2352.76,1448.34 "/>
<polyline clip-path="url(#clip632)" style="stroke:#000000; stroke-linecap:round; stroke-linejoin:round; stroke-width:2; stroke-opacity:0.1; fill:none" points="193.936,1224.53 2352.76,1224.53 "/>
<polyline clip-path="url(#clip632)" style="stroke:#000000; stroke-linecap:round; stroke-linejoin:round; stroke-width:2; stroke-opacity:0.1; fill:none" points="193.936,1000.73 2352.76,1000.73 "/>
<polyline clip-path="url(#clip632)" style="stroke:#000000; stroke-linecap:round; stroke-linejoin:round; stroke-width:2; stroke-opacity:0.1; fill:none" points="193.936,776.925 2352.76,776.925 "/>
<polyline clip-path="url(#clip632)" style="stroke:#000000; stroke-linecap:round; stroke-linejoin:round; stroke-width:2; stroke-opacity:0.1; fill:none" points="193.936,553.121 2352.76,553.121 "/>
<polyline clip-path="url(#clip632)" style="stroke:#000000; stroke-linecap:round; stroke-linejoin:round; stroke-width:2; stroke-opacity:0.1; fill:none" points="193.936,329.316 2352.76,329.316 "/>
<polyline clip-path="url(#clip632)" style="stroke:#000000; stroke-linecap:round; stroke-linejoin:round; stroke-width:2; stroke-opacity:0.1; fill:none" points="193.936,105.512 2352.76,105.512 "/>
<polyline clip-path="url(#clip630)" style="stroke:#000000; stroke-linecap:round; stroke-linejoin:round; stroke-width:4; stroke-opacity:1; fill:none" points="193.936,1486.45 2352.76,1486.45 "/>
<polyline clip-path="url(#clip630)" style="stroke:#000000; stroke-linecap:round; stroke-linejoin:round; stroke-width:4; stroke-opacity:1; fill:none" points="207.013,1486.45 207.013,1467.55 "/>
<polyline clip-path="url(#clip630)" style="stroke:#000000; stroke-linecap:round; stroke-linejoin:round; stroke-width:4; stroke-opacity:1; fill:none" points="667.552,1486.45 667.552,1467.55 "/>
<polyline clip-path="url(#clip630)" style="stroke:#000000; stroke-linecap:round; stroke-linejoin:round; stroke-width:4; stroke-opacity:1; fill:none" points="1128.09,1486.45 1128.09,1467.55 "/>
<polyline clip-path="url(#clip630)" style="stroke:#000000; stroke-linecap:round; stroke-linejoin:round; stroke-width:4; stroke-opacity:1; fill:none" points="1588.63,1486.45 1588.63,1467.55 "/>
<polyline clip-path="url(#clip630)" style="stroke:#000000; stroke-linecap:round; stroke-linejoin:round; stroke-width:4; stroke-opacity:1; fill:none" points="2049.17,1486.45 2049.17,1467.55 "/>
<path clip-path="url(#clip630)" d="M176.956 1532.02 L206.631 1532.02 L206.631 1535.95 L176.956 1535.95 L176.956 1532.02 Z" fill="#000000" fill-rule="nonzero" fill-opacity="1" /><path clip-path="url(#clip630)" d="M220.752 1544.91 L237.071 1544.91 L237.071 1548.85 L215.127 1548.85 L215.127 1544.91 Q217.789 1542.16 222.372 1537.53 Q226.979 1532.88 228.159 1531.53 Q230.404 1529.01 231.284 1527.27 Q232.187 1525.51 232.187 1523.82 Q232.187 1521.07 230.242 1519.33 Q228.321 1517.6 225.219 1517.6 Q223.02 1517.6 220.567 1518.36 Q218.136 1519.13 215.358 1520.68 L215.358 1515.95 Q218.182 1514.82 220.636 1514.24 Q223.09 1513.66 225.127 1513.66 Q230.497 1513.66 233.691 1516.35 Q236.886 1519.03 236.886 1523.52 Q236.886 1525.65 236.076 1527.57 Q235.289 1529.47 233.182 1532.07 Q232.603 1532.74 229.502 1535.95 Q226.4 1539.15 220.752 1544.91 Z" fill="#000000" fill-rule="nonzero" fill-opacity="1" /><path clip-path="url(#clip630)" d="M637.309 1532.02 L666.985 1532.02 L666.985 1535.95 L637.309 1535.95 L637.309 1532.02 Z" fill="#000000" fill-rule="nonzero" fill-opacity="1" /><path clip-path="url(#clip630)" d="M677.888 1544.91 L685.527 1544.91 L685.527 1518.55 L677.217 1520.21 L677.217 1515.95 L685.48 1514.29 L690.156 1514.29 L690.156 1544.91 L697.795 1544.91 L697.795 1548.85 L677.888 1548.85 L677.888 1544.91 Z" fill="#000000" fill-rule="nonzero" fill-opacity="1" /><path clip-path="url(#clip630)" d="M1128.09 1517.37 Q1124.48 1517.37 1122.65 1520.93 Q1120.85 1524.47 1120.85 1531.6 Q1120.85 1538.71 1122.65 1542.27 Q1124.48 1545.82 1128.09 1545.82 Q1131.73 1545.82 1133.53 1542.27 Q1135.36 1538.71 1135.36 1531.6 Q1135.36 1524.47 1133.53 1520.93 Q1131.73 1517.37 1128.09 1517.37 M1128.09 1513.66 Q1133.9 1513.66 1136.96 1518.27 Q1140.04 1522.85 1140.04 1531.6 Q1140.04 1540.33 1136.96 1544.94 Q1133.9 1549.52 1128.09 1549.52 Q1122.28 1549.52 1119.2 1544.94 Q1116.15 1540.33 1116.15 1531.6 Q1116.15 1522.85 1119.2 1518.27 Q1122.28 1513.66 1128.09 1513.66 Z" fill="#000000" fill-rule="nonzero" fill-opacity="1" /><path clip-path="url(#clip630)" d="M1579.01 1544.91 L1586.65 1544.91 L1586.65 1518.55 L1578.34 1520.21 L1578.34 1515.95 L1586.6 1514.29 L1591.28 1514.29 L1591.28 1544.91 L1598.92 1544.91 L1598.92 1548.85 L1579.01 1548.85 L1579.01 1544.91 Z" fill="#000000" fill-rule="nonzero" fill-opacity="1" /><path clip-path="url(#clip630)" d="M2043.82 1544.91 L2060.14 1544.91 L2060.14 1548.85 L2038.2 1548.85 L2038.2 1544.91 Q2040.86 1542.16 2045.44 1537.53 Q2050.05 1532.88 2051.23 1531.53 Q2053.47 1529.01 2054.35 1527.27 Q2055.26 1525.51 2055.26 1523.82 Q2055.26 1521.07 2053.31 1519.33 Q2051.39 1517.6 2048.29 1517.6 Q2046.09 1517.6 2043.64 1518.36 Q2041.21 1519.13 2038.43 1520.68 L2038.43 1515.95 Q2041.25 1514.82 2043.71 1514.24 Q2046.16 1513.66 2048.2 1513.66 Q2053.57 1513.66 2056.76 1516.35 Q2059.96 1519.03 2059.96 1523.52 Q2059.96 1525.65 2059.15 1527.57 Q2058.36 1529.47 2056.25 1532.07 Q2055.67 1532.74 2052.57 1535.95 Q2049.47 1539.15 2043.82 1544.91 Z" fill="#000000" fill-rule="nonzero" fill-opacity="1" /><polyline clip-path="url(#clip630)" style="stroke:#000000; stroke-linecap:round; stroke-linejoin:round; stroke-width:4; stroke-opacity:1; fill:none" points="193.936,1486.45 193.936,47.2441 "/>
<polyline clip-path="url(#clip630)" style="stroke:#000000; stroke-linecap:round; stroke-linejoin:round; stroke-width:4; stroke-opacity:1; fill:none" points="193.936,1448.34 212.834,1448.34 "/>
<polyline clip-path="url(#clip630)" style="stroke:#000000; stroke-linecap:round; stroke-linejoin:round; stroke-width:4; stroke-opacity:1; fill:none" points="193.936,1224.53 212.834,1224.53 "/>
<polyline clip-path="url(#clip630)" style="stroke:#000000; stroke-linecap:round; stroke-linejoin:round; stroke-width:4; stroke-opacity:1; fill:none" points="193.936,1000.73 212.834,1000.73 "/>
<polyline clip-path="url(#clip630)" style="stroke:#000000; stroke-linecap:round; stroke-linejoin:round; stroke-width:4; stroke-opacity:1; fill:none" points="193.936,776.925 212.834,776.925 "/>
<polyline clip-path="url(#clip630)" style="stroke:#000000; stroke-linecap:round; stroke-linejoin:round; stroke-width:4; stroke-opacity:1; fill:none" points="193.936,553.121 212.834,553.121 "/>
<polyline clip-path="url(#clip630)" style="stroke:#000000; stroke-linecap:round; stroke-linejoin:round; stroke-width:4; stroke-opacity:1; fill:none" points="193.936,329.316 212.834,329.316 "/>
<polyline clip-path="url(#clip630)" style="stroke:#000000; stroke-linecap:round; stroke-linejoin:round; stroke-width:4; stroke-opacity:1; fill:none" points="193.936,105.512 212.834,105.512 "/>
<path clip-path="url(#clip630)" d="M51.9875 1448.79 L81.6633 1448.79 L81.6633 1452.73 L51.9875 1452.73 L51.9875 1448.79 Z" fill="#000000" fill-rule="nonzero" fill-opacity="1" /><path clip-path="url(#clip630)" d="M92.566 1461.68 L100.205 1461.68 L100.205 1435.32 L91.8947 1436.99 L91.8947 1432.73 L100.159 1431.06 L104.834 1431.06 L104.834 1461.68 L112.473 1461.68 L112.473 1465.62 L92.566 1465.62 L92.566 1461.68 Z" fill="#000000" fill-rule="nonzero" fill-opacity="1" /><path clip-path="url(#clip630)" d="M121.918 1459.74 L126.802 1459.74 L126.802 1465.62 L121.918 1465.62 L121.918 1459.74 Z" fill="#000000" fill-rule="nonzero" fill-opacity="1" /><path clip-path="url(#clip630)" d="M137.033 1431.06 L155.39 1431.06 L155.39 1434.99 L141.316 1434.99 L141.316 1443.47 Q142.334 1443.12 143.353 1442.96 Q144.371 1442.77 145.39 1442.77 Q151.177 1442.77 154.556 1445.94 Q157.936 1449.11 157.936 1454.53 Q157.936 1460.11 154.464 1463.21 Q150.992 1466.29 144.672 1466.29 Q142.496 1466.29 140.228 1465.92 Q137.982 1465.55 135.575 1464.81 L135.575 1460.11 Q137.658 1461.24 139.881 1461.8 Q142.103 1462.36 144.58 1462.36 Q148.584 1462.36 150.922 1460.25 Q153.26 1458.14 153.26 1454.53 Q153.26 1450.92 150.922 1448.81 Q148.584 1446.71 144.58 1446.71 Q142.705 1446.71 140.83 1447.12 Q138.978 1447.54 137.033 1448.42 L137.033 1431.06 Z" fill="#000000" fill-rule="nonzero" fill-opacity="1" /><path clip-path="url(#clip630)" d="M50.9921 1224.99 L80.6679 1224.99 L80.6679 1228.92 L50.9921 1228.92 L50.9921 1224.99 Z" fill="#000000" fill-rule="nonzero" fill-opacity="1" /><path clip-path="url(#clip630)" d="M91.5706 1237.88 L99.2095 1237.88 L99.2095 1211.51 L90.8993 1213.18 L90.8993 1208.92 L99.1632 1207.25 L103.839 1207.25 L103.839 1237.88 L111.478 1237.88 L111.478 1241.81 L91.5706 1241.81 L91.5706 1237.88 Z" fill="#000000" fill-rule="nonzero" fill-opacity="1" /><path clip-path="url(#clip630)" d="M120.922 1235.93 L125.807 1235.93 L125.807 1241.81 L120.922 1241.81 L120.922 1235.93 Z" fill="#000000" fill-rule="nonzero" fill-opacity="1" /><path clip-path="url(#clip630)" d="M145.992 1210.33 Q142.381 1210.33 140.552 1213.9 Q138.746 1217.44 138.746 1224.57 Q138.746 1231.68 140.552 1235.24 Q142.381 1238.78 145.992 1238.78 Q149.626 1238.78 151.431 1235.24 Q153.26 1231.68 153.26 1224.57 Q153.26 1217.44 151.431 1213.9 Q149.626 1210.33 145.992 1210.33 M145.992 1206.63 Q151.802 1206.63 154.857 1211.24 Q157.936 1215.82 157.936 1224.57 Q157.936 1233.3 154.857 1237.9 Q151.802 1242.49 145.992 1242.49 Q140.181 1242.49 137.103 1237.9 Q134.047 1233.3 134.047 1224.57 Q134.047 1215.82 137.103 1211.24 Q140.181 1206.63 145.992 1206.63 Z" fill="#000000" fill-rule="nonzero" fill-opacity="1" /><path clip-path="url(#clip630)" d="M51.9875 1001.18 L81.6633 1001.18 L81.6633 1005.12 L51.9875 1005.12 L51.9875 1001.18 Z" fill="#000000" fill-rule="nonzero" fill-opacity="1" /><path clip-path="url(#clip630)" d="M101.756 986.529 Q98.1447 986.529 96.316 990.094 Q94.5104 993.635 94.5104 1000.76 Q94.5104 1007.87 96.316 1011.44 Q98.1447 1014.98 101.756 1014.98 Q105.39 1014.98 107.196 1011.44 Q109.024 1007.87 109.024 1000.76 Q109.024 993.635 107.196 990.094 Q105.39 986.529 101.756 986.529 M101.756 982.825 Q107.566 982.825 110.621 987.431 Q113.7 992.015 113.7 1000.76 Q113.7 1009.49 110.621 1014.1 Q107.566 1018.68 101.756 1018.68 Q95.9456 1018.68 92.8669 1014.1 Q89.8114 1009.49 89.8114 1000.76 Q89.8114 992.015 92.8669 987.431 Q95.9456 982.825 101.756 982.825 Z" fill="#000000" fill-rule="nonzero" fill-opacity="1" /><path clip-path="url(#clip630)" d="M121.918 1012.13 L126.802 1012.13 L126.802 1018.01 L121.918 1018.01 L121.918 1012.13 Z" fill="#000000" fill-rule="nonzero" fill-opacity="1" /><path clip-path="url(#clip630)" d="M137.033 983.45 L155.39 983.45 L155.39 987.385 L141.316 987.385 L141.316 995.857 Q142.334 995.51 143.353 995.348 Q144.371 995.163 145.39 995.163 Q151.177 995.163 154.556 998.334 Q157.936 1001.51 157.936 1006.92 Q157.936 1012.5 154.464 1015.6 Q150.992 1018.68 144.672 1018.68 Q142.496 1018.68 140.228 1018.31 Q137.982 1017.94 135.575 1017.2 L135.575 1012.5 Q137.658 1013.64 139.881 1014.19 Q142.103 1014.75 144.58 1014.75 Q148.584 1014.75 150.922 1012.64 Q153.26 1010.53 153.26 1006.92 Q153.26 1003.31 150.922 1001.2 Q148.584 999.098 144.58 999.098 Q142.705 999.098 140.83 999.515 Q138.978 999.931 137.033 1000.81 L137.033 983.45 Z" fill="#000000" fill-rule="nonzero" fill-opacity="1" /><path clip-path="url(#clip630)" d="M100.76 762.724 Q97.1493 762.724 95.3206 766.289 Q93.515 769.831 93.515 776.96 Q93.515 784.067 95.3206 787.631 Q97.1493 791.173 100.76 791.173 Q104.395 791.173 106.2 787.631 Q108.029 784.067 108.029 776.96 Q108.029 769.831 106.2 766.289 Q104.395 762.724 100.76 762.724 M100.76 759.02 Q106.571 759.02 109.626 763.627 Q112.705 768.21 112.705 776.96 Q112.705 785.687 109.626 790.293 Q106.571 794.877 100.76 794.877 Q94.9502 794.877 91.8715 790.293 Q88.816 785.687 88.816 776.96 Q88.816 768.21 91.8715 763.627 Q94.9502 759.02 100.76 759.02 Z" fill="#000000" fill-rule="nonzero" fill-opacity="1" /><path clip-path="url(#clip630)" d="M120.922 788.326 L125.807 788.326 L125.807 794.205 L120.922 794.205 L120.922 788.326 Z" fill="#000000" fill-rule="nonzero" fill-opacity="1" /><path clip-path="url(#clip630)" d="M145.992 762.724 Q142.381 762.724 140.552 766.289 Q138.746 769.831 138.746 776.96 Q138.746 784.067 140.552 787.631 Q142.381 791.173 145.992 791.173 Q149.626 791.173 151.431 787.631 Q153.26 784.067 153.26 776.96 Q153.26 769.831 151.431 766.289 Q149.626 762.724 145.992 762.724 M145.992 759.02 Q151.802 759.02 154.857 763.627 Q157.936 768.21 157.936 776.96 Q157.936 785.687 154.857 790.293 Q151.802 794.877 145.992 794.877 Q140.181 794.877 137.103 790.293 Q134.047 785.687 134.047 776.96 Q134.047 768.21 137.103 763.627 Q140.181 759.02 145.992 759.02 Z" fill="#000000" fill-rule="nonzero" fill-opacity="1" /><path clip-path="url(#clip630)" d="M101.756 538.92 Q98.1447 538.92 96.316 542.484 Q94.5104 546.026 94.5104 553.156 Q94.5104 560.262 96.316 563.827 Q98.1447 567.369 101.756 567.369 Q105.39 567.369 107.196 563.827 Q109.024 560.262 109.024 553.156 Q109.024 546.026 107.196 542.484 Q105.39 538.92 101.756 538.92 M101.756 535.216 Q107.566 535.216 110.621 539.822 Q113.7 544.406 113.7 553.156 Q113.7 561.882 110.621 566.489 Q107.566 571.072 101.756 571.072 Q95.9456 571.072 92.8669 566.489 Q89.8114 561.882 89.8114 553.156 Q89.8114 544.406 92.8669 539.822 Q95.9456 535.216 101.756 535.216 Z" fill="#000000" fill-rule="nonzero" fill-opacity="1" /><path clip-path="url(#clip630)" d="M121.918 564.521 L126.802 564.521 L126.802 570.401 L121.918 570.401 L121.918 564.521 Z" fill="#000000" fill-rule="nonzero" fill-opacity="1" /><path clip-path="url(#clip630)" d="M137.033 535.841 L155.39 535.841 L155.39 539.776 L141.316 539.776 L141.316 548.248 Q142.334 547.901 143.353 547.739 Q144.371 547.554 145.39 547.554 Q151.177 547.554 154.556 550.725 Q157.936 553.896 157.936 559.313 Q157.936 564.892 154.464 567.994 Q150.992 571.072 144.672 571.072 Q142.496 571.072 140.228 570.702 Q137.982 570.331 135.575 569.591 L135.575 564.892 Q137.658 566.026 139.881 566.581 Q142.103 567.137 144.58 567.137 Q148.584 567.137 150.922 565.031 Q153.26 562.924 153.26 559.313 Q153.26 555.702 150.922 553.595 Q148.584 551.489 144.58 551.489 Q142.705 551.489 140.83 551.906 Q138.978 552.322 137.033 553.202 L137.033 535.841 Z" fill="#000000" fill-rule="nonzero" fill-opacity="1" /><path clip-path="url(#clip630)" d="M91.5706 342.661 L99.2095 342.661 L99.2095 316.296 L90.8993 317.962 L90.8993 313.703 L99.1632 312.036 L103.839 312.036 L103.839 342.661 L111.478 342.661 L111.478 346.596 L91.5706 346.596 L91.5706 342.661 Z" fill="#000000" fill-rule="nonzero" fill-opacity="1" /><path clip-path="url(#clip630)" d="M120.922 340.717 L125.807 340.717 L125.807 346.596 L120.922 346.596 L120.922 340.717 Z" fill="#000000" fill-rule="nonzero" fill-opacity="1" /><path clip-path="url(#clip630)" d="M145.992 315.115 Q142.381 315.115 140.552 318.68 Q138.746 322.221 138.746 329.351 Q138.746 336.458 140.552 340.022 Q142.381 343.564 145.992 343.564 Q149.626 343.564 151.431 340.022 Q153.26 336.458 153.26 329.351 Q153.26 322.221 151.431 318.68 Q149.626 315.115 145.992 315.115 M145.992 311.411 Q151.802 311.411 154.857 316.018 Q157.936 320.601 157.936 329.351 Q157.936 338.078 154.857 342.684 Q151.802 347.268 145.992 347.268 Q140.181 347.268 137.103 342.684 Q134.047 338.078 134.047 329.351 Q134.047 320.601 137.103 316.018 Q140.181 311.411 145.992 311.411 Z" fill="#000000" fill-rule="nonzero" fill-opacity="1" /><path clip-path="url(#clip630)" d="M92.566 118.857 L100.205 118.857 L100.205 92.491 L91.8947 94.1577 L91.8947 89.8985 L100.159 88.2318 L104.834 88.2318 L104.834 118.857 L112.473 118.857 L112.473 122.792 L92.566 122.792 L92.566 118.857 Z" fill="#000000" fill-rule="nonzero" fill-opacity="1" /><path clip-path="url(#clip630)" d="M121.918 116.912 L126.802 116.912 L126.802 122.792 L121.918 122.792 L121.918 116.912 Z" fill="#000000" fill-rule="nonzero" fill-opacity="1" /><path clip-path="url(#clip630)" d="M137.033 88.2318 L155.39 88.2318 L155.39 92.167 L141.316 92.167 L141.316 100.639 Q142.334 100.292 143.353 100.13 Q144.371 99.9447 145.39 99.9447 Q151.177 99.9447 154.556 103.116 Q157.936 106.287 157.936 111.704 Q157.936 117.283 154.464 120.384 Q150.992 123.463 144.672 123.463 Q142.496 123.463 140.228 123.093 Q137.982 122.722 135.575 121.982 L135.575 117.283 Q137.658 118.417 139.881 118.972 Q142.103 119.528 144.58 119.528 Q148.584 119.528 150.922 117.421 Q153.26 115.315 153.26 111.704 Q153.26 108.093 150.922 105.986 Q148.584 103.88 144.58 103.88 Q142.705 103.88 140.83 104.297 Q138.978 104.713 137.033 105.593 L137.033 88.2318 Z" fill="#000000" fill-rule="nonzero" fill-opacity="1" /><circle clip-path="url(#clip632)" cx="678.101" cy="621.383" r="14.4" fill="#009af9" fill-rule="evenodd" fill-opacity="0.5" stroke="#000000" stroke-opacity="0.5" stroke-width="3.2"/>
<circle clip-path="url(#clip632)" cx="660.766" cy="1036.3" r="14.4" fill="#009af9" fill-rule="evenodd" fill-opacity="0.5" stroke="#000000" stroke-opacity="0.5" stroke-width="3.2"/>
<circle clip-path="url(#clip632)" cx="709.883" cy="633.254" r="14.4" fill="#009af9" fill-rule="evenodd" fill-opacity="0.5" stroke="#000000" stroke-opacity="0.5" stroke-width="3.2"/>
<circle clip-path="url(#clip632)" cx="772.73" cy="1336.54" r="14.4" fill="#009af9" fill-rule="evenodd" fill-opacity="0.5" stroke="#000000" stroke-opacity="0.5" stroke-width="3.2"/>
<circle clip-path="url(#clip632)" cx="1314.15" cy="214.415" r="14.4" fill="#009af9" fill-rule="evenodd" fill-opacity="0.5" stroke="#000000" stroke-opacity="0.5" stroke-width="3.2"/>
<circle clip-path="url(#clip632)" cx="255.035" cy="87.9763" r="14.4" fill="#009af9" fill-rule="evenodd" fill-opacity="0.5" stroke="#000000" stroke-opacity="0.5" stroke-width="3.2"/>
<circle clip-path="url(#clip632)" cx="931.106" cy="787.361" r="14.4" fill="#009af9" fill-rule="evenodd" fill-opacity="0.5" stroke="#000000" stroke-opacity="0.5" stroke-width="3.2"/>
<circle clip-path="url(#clip632)" cx="1380.08" cy="329.846" r="14.4" fill="#009af9" fill-rule="evenodd" fill-opacity="0.5" stroke="#000000" stroke-opacity="0.5" stroke-width="3.2"/>
<circle clip-path="url(#clip632)" cx="1589.16" cy="607.529" r="14.4" fill="#009af9" fill-rule="evenodd" fill-opacity="0.5" stroke="#000000" stroke-opacity="0.5" stroke-width="3.2"/>
<circle clip-path="url(#clip632)" cx="1275.81" cy="1057.9" r="14.4" fill="#009af9" fill-rule="evenodd" fill-opacity="0.5" stroke="#000000" stroke-opacity="0.5" stroke-width="3.2"/>
<circle clip-path="url(#clip632)" cx="1564.06" cy="858.12" r="14.4" fill="#009af9" fill-rule="evenodd" fill-opacity="0.5" stroke="#000000" stroke-opacity="0.5" stroke-width="3.2"/>
<circle clip-path="url(#clip632)" cx="1408.83" cy="120.179" r="14.4" fill="#009af9" fill-rule="evenodd" fill-opacity="0.5" stroke="#000000" stroke-opacity="0.5" stroke-width="3.2"/>
<circle clip-path="url(#clip632)" cx="1646.91" cy="1445.72" r="14.4" fill="#009af9" fill-rule="evenodd" fill-opacity="0.5" stroke="#000000" stroke-opacity="0.5" stroke-width="3.2"/>
<circle clip-path="url(#clip632)" cx="271.886" cy="1086.66" r="14.4" fill="#009af9" fill-rule="evenodd" fill-opacity="0.5" stroke="#000000" stroke-opacity="0.5" stroke-width="3.2"/>
<circle clip-path="url(#clip632)" cx="1139.16" cy="136.369" r="14.4" fill="#009af9" fill-rule="evenodd" fill-opacity="0.5" stroke="#000000" stroke-opacity="0.5" stroke-width="3.2"/>
<circle clip-path="url(#clip632)" cx="999.332" cy="922.546" r="14.4" fill="#009af9" fill-rule="evenodd" fill-opacity="0.5" stroke="#000000" stroke-opacity="0.5" stroke-width="3.2"/>
<circle clip-path="url(#clip632)" cx="1204.04" cy="1228.88" r="14.4" fill="#009af9" fill-rule="evenodd" fill-opacity="0.5" stroke="#000000" stroke-opacity="0.5" stroke-width="3.2"/>
<circle clip-path="url(#clip632)" cx="1531.71" cy="900.46" r="14.4" fill="#009af9" fill-rule="evenodd" fill-opacity="0.5" stroke="#000000" stroke-opacity="0.5" stroke-width="3.2"/>
<circle clip-path="url(#clip632)" cx="1643.42" cy="840.016" r="14.4" fill="#009af9" fill-rule="evenodd" fill-opacity="0.5" stroke="#000000" stroke-opacity="0.5" stroke-width="3.2"/>
<circle clip-path="url(#clip632)" cx="1541.81" cy="1079.59" r="14.4" fill="#009af9" fill-rule="evenodd" fill-opacity="0.5" stroke="#000000" stroke-opacity="0.5" stroke-width="3.2"/>
<circle clip-path="url(#clip632)" cx="1079.82" cy="874.764" r="14.4" fill="#009af9" fill-rule="evenodd" fill-opacity="0.5" stroke="#000000" stroke-opacity="0.5" stroke-width="3.2"/>
<circle clip-path="url(#clip632)" cx="1000.17" cy="690.066" r="14.4" fill="#009af9" fill-rule="evenodd" fill-opacity="0.5" stroke="#000000" stroke-opacity="0.5" stroke-width="3.2"/>
<circle clip-path="url(#clip632)" cx="1121.24" cy="925.38" r="14.4" fill="#009af9" fill-rule="evenodd" fill-opacity="0.5" stroke="#000000" stroke-opacity="0.5" stroke-width="3.2"/>
<circle clip-path="url(#clip632)" cx="1005.36" cy="587.209" r="14.4" fill="#009af9" fill-rule="evenodd" fill-opacity="0.5" stroke="#000000" stroke-opacity="0.5" stroke-width="3.2"/>
<circle clip-path="url(#clip632)" cx="1082.59" cy="322.303" r="14.4" fill="#009af9" fill-rule="evenodd" fill-opacity="0.5" stroke="#000000" stroke-opacity="0.5" stroke-width="3.2"/>
<circle clip-path="url(#clip632)" cx="2291.66" cy="707.916" r="14.4" fill="#009af9" fill-rule="evenodd" fill-opacity="0.5" stroke="#000000" stroke-opacity="0.5" stroke-width="3.2"/>
<circle clip-path="url(#clip632)" cx="1468.63" cy="1172.61" r="14.4" fill="#009af9" fill-rule="evenodd" fill-opacity="0.5" stroke="#000000" stroke-opacity="0.5" stroke-width="3.2"/>
<circle clip-path="url(#clip632)" cx="1253.58" cy="239.394" r="14.4" fill="#009af9" fill-rule="evenodd" fill-opacity="0.5" stroke="#000000" stroke-opacity="0.5" stroke-width="3.2"/>
<circle clip-path="url(#clip632)" cx="1550.66" cy="723.451" r="14.4" fill="#009af9" fill-rule="evenodd" fill-opacity="0.5" stroke="#000000" stroke-opacity="0.5" stroke-width="3.2"/>
<circle clip-path="url(#clip632)" cx="1215.89" cy="262.32" r="14.4" fill="#009af9" fill-rule="evenodd" fill-opacity="0.5" stroke="#000000" stroke-opacity="0.5" stroke-width="3.2"/>
<path clip-path="url(#clip632)" d="M255.035 87.9763 L271.886 1086.66 L772.73 1336.54 L1646.91 1445.72 L2291.66 707.916 L1408.83 120.179 L255.035 87.9763 L255.035 87.9763  Z" fill="#e26f46" fill-rule="evenodd" fill-opacity="0.2"/>
<polyline clip-path="url(#clip632)" style="stroke:#000000; stroke-linecap:round; stroke-linejoin:round; stroke-width:4; stroke-opacity:0.2; fill:none" points="255.035,87.9763 271.886,1086.66 772.73,1336.54 1646.91,1445.72 2291.66,707.916 1408.83,120.179 255.035,87.9763 "/>
</svg>
