<?xml version="1.0" encoding="utf-8"?>
<svg xmlns="http://www.w3.org/2000/svg" xmlns:xlink="http://www.w3.org/1999/xlink" width="600" height="400" viewBox="0 0 2400 1600">
<defs>
  <clipPath id="clip650">
    <rect x="0" y="0" width="2400" height="1600"/>
  </clipPath>
</defs>
<path clip-path="url(#clip650)" d="M0 1600 L2400 1600 L2400 0 L0 0  Z" fill="#ffffff" fill-rule="evenodd" fill-opacity="1"/>
<defs>
  <clipPath id="clip651">
    <rect x="480" y="0" width="1681" height="1600"/>
  </clipPath>
</defs>
<path clip-path="url(#clip650)" d="M147.478 1486.45 L2352.76 1486.45 L2352.76 47.2441 L147.478 47.2441  Z" fill="#ffffff" fill-rule="evenodd" fill-opacity="1"/>
<defs>
  <clipPath id="clip652">
    <rect x="147" y="47" width="2206" height="1440"/>
  </clipPath>
</defs>
<polyline clip-path="url(#clip652)" style="stroke:#000000; stroke-linecap:round; stroke-linejoin:round; stroke-width:2; stroke-opacity:0.1; fill:none" points="453.758,1486.45 453.758,47.2441 "/>
<polyline clip-path="url(#clip652)" style="stroke:#000000; stroke-linecap:round; stroke-linejoin:round; stroke-width:2; stroke-opacity:0.1; fill:none" points="986.113,1486.45 986.113,47.2441 "/>
<polyline clip-path="url(#clip652)" style="stroke:#000000; stroke-linecap:round; stroke-linejoin:round; stroke-width:2; stroke-opacity:0.1; fill:none" points="1518.47,1486.45 1518.47,47.2441 "/>
<polyline clip-path="url(#clip652)" style="stroke:#000000; stroke-linecap:round; stroke-linejoin:round; stroke-width:2; stroke-opacity:0.1; fill:none" points="2050.82,1486.45 2050.82,47.2441 "/>
<polyline clip-path="url(#clip652)" style="stroke:#000000; stroke-linecap:round; stroke-linejoin:round; stroke-width:2; stroke-opacity:0.1; fill:none" points="147.478,1269.01 2352.76,1269.01 "/>
<polyline clip-path="url(#clip652)" style="stroke:#000000; stroke-linecap:round; stroke-linejoin:round; stroke-width:2; stroke-opacity:0.1; fill:none" points="147.478,1047.23 2352.76,1047.23 "/>
<polyline clip-path="url(#clip652)" style="stroke:#000000; stroke-linecap:round; stroke-linejoin:round; stroke-width:2; stroke-opacity:0.1; fill:none" points="147.478,825.457 2352.76,825.457 "/>
<polyline clip-path="url(#clip652)" style="stroke:#000000; stroke-linecap:round; stroke-linejoin:round; stroke-width:2; stroke-opacity:0.1; fill:none" points="147.478,603.683 2352.76,603.683 "/>
<polyline clip-path="url(#clip652)" style="stroke:#000000; stroke-linecap:round; stroke-linejoin:round; stroke-width:2; stroke-opacity:0.1; fill:none" points="147.478,381.908 2352.76,381.908 "/>
<polyline clip-path="url(#clip652)" style="stroke:#000000; stroke-linecap:round; stroke-linejoin:round; stroke-width:2; stroke-opacity:0.1; fill:none" points="147.478,160.134 2352.76,160.134 "/>
<polyline clip-path="url(#clip650)" style="stroke:#000000; stroke-linecap:round; stroke-linejoin:round; stroke-width:4; stroke-opacity:1; fill:none" points="147.478,1486.45 2352.76,1486.45 "/>
<polyline clip-path="url(#clip650)" style="stroke:#000000; stroke-linecap:round; stroke-linejoin:round; stroke-width:4; stroke-opacity:1; fill:none" points="453.758,1486.45 453.758,1467.55 "/>
<polyline clip-path="url(#clip650)" style="stroke:#000000; stroke-linecap:round; stroke-linejoin:round; stroke-width:4; stroke-opacity:1; fill:none" points="986.113,1486.45 986.113,1467.55 "/>
<polyline clip-path="url(#clip650)" style="stroke:#000000; stroke-linecap:round; stroke-linejoin:round; stroke-width:4; stroke-opacity:1; fill:none" points="1518.47,1486.45 1518.47,1467.55 "/>
<polyline clip-path="url(#clip650)" style="stroke:#000000; stroke-linecap:round; stroke-linejoin:round; stroke-width:4; stroke-opacity:1; fill:none" points="2050.82,1486.45 2050.82,1467.55 "/>
<path clip-path="url(#clip650)" d="M423.515 1532.02 L453.191 1532.02 L453.191 1535.95 L423.515 1535.95 L423.515 1532.02 Z" fill="#000000" fill-rule="nonzero" fill-opacity="1" /><path clip-path="url(#clip650)" d="M464.094 1544.91 L471.733 1544.91 L471.733 1518.55 L463.423 1520.21 L463.423 1515.95 L471.686 1514.29 L476.362 1514.29 L476.362 1544.91 L484.001 1544.91 L484.001 1548.85 L464.094 1548.85 L464.094 1544.91 Z" fill="#000000" fill-rule="nonzero" fill-opacity="1" /><path clip-path="url(#clip650)" d="M986.113 1517.37 Q982.502 1517.37 980.673 1520.93 Q978.867 1524.47 978.867 1531.6 Q978.867 1538.71 980.673 1542.27 Q982.502 1545.82 986.113 1545.82 Q989.747 1545.82 991.553 1542.27 Q993.381 1538.71 993.381 1531.6 Q993.381 1524.47 991.553 1520.93 Q989.747 1517.37 986.113 1517.37 M986.113 1513.66 Q991.923 1513.66 994.978 1518.27 Q998.057 1522.85 998.057 1531.6 Q998.057 1540.33 994.978 1544.94 Q991.923 1549.52 986.113 1549.52 Q980.303 1549.52 977.224 1544.94 Q974.168 1540.33 974.168 1531.6 Q974.168 1522.85 977.224 1518.27 Q980.303 1513.66 986.113 1513.66 Z" fill="#000000" fill-rule="nonzero" fill-opacity="1" /><path clip-path="url(#clip650)" d="M1508.85 1544.91 L1516.49 1544.91 L1516.49 1518.55 L1508.18 1520.21 L1508.18 1515.95 L1516.44 1514.29 L1521.12 1514.29 L1521.12 1544.91 L1528.76 1544.91 L1528.76 1548.85 L1508.85 1548.85 L1508.85 1544.91 Z" fill="#000000" fill-rule="nonzero" fill-opacity="1" /><path clip-path="url(#clip650)" d="M2045.47 1544.91 L2061.79 1544.91 L2061.79 1548.85 L2039.85 1548.85 L2039.85 1544.91 Q2042.51 1542.16 2047.1 1537.53 Q2051.7 1532.88 2052.88 1531.53 Q2055.13 1529.01 2056.01 1527.27 Q2056.91 1525.51 2056.91 1523.82 Q2056.91 1521.07 2054.97 1519.33 Q2053.04 1517.6 2049.94 1517.6 Q2047.74 1517.6 2045.29 1518.36 Q2042.86 1519.13 2040.08 1520.68 L2040.08 1515.95 Q2042.91 1514.82 2045.36 1514.24 Q2047.81 1513.66 2049.85 1513.66 Q2055.22 1513.66 2058.41 1516.35 Q2061.61 1519.03 2061.61 1523.52 Q2061.61 1525.65 2060.8 1527.57 Q2060.01 1529.47 2057.91 1532.07 Q2057.33 1532.74 2054.22 1535.95 Q2051.12 1539.15 2045.47 1544.91 Z" fill="#000000" fill-rule="nonzero" fill-opacity="1" /><polyline clip-path="url(#clip650)" style="stroke:#000000; stroke-linecap:round; stroke-linejoin:round; stroke-width:4; stroke-opacity:1; fill:none" points="147.478,1486.45 147.478,47.2441 "/>
<polyline clip-path="url(#clip650)" style="stroke:#000000; stroke-linecap:round; stroke-linejoin:round; stroke-width:4; stroke-opacity:1; fill:none" points="147.478,1269.01 166.376,1269.01 "/>
<polyline clip-path="url(#clip650)" style="stroke:#000000; stroke-linecap:round; stroke-linejoin:round; stroke-width:4; stroke-opacity:1; fill:none" points="147.478,1047.23 166.376,1047.23 "/>
<polyline clip-path="url(#clip650)" style="stroke:#000000; stroke-linecap:round; stroke-linejoin:round; stroke-width:4; stroke-opacity:1; fill:none" points="147.478,825.457 166.376,825.457 "/>
<polyline clip-path="url(#clip650)" style="stroke:#000000; stroke-linecap:round; stroke-linejoin:round; stroke-width:4; stroke-opacity:1; fill:none" points="147.478,603.683 166.376,603.683 "/>
<polyline clip-path="url(#clip650)" style="stroke:#000000; stroke-linecap:round; stroke-linejoin:round; stroke-width:4; stroke-opacity:1; fill:none" points="147.478,381.908 166.376,381.908 "/>
<polyline clip-path="url(#clip650)" style="stroke:#000000; stroke-linecap:round; stroke-linejoin:round; stroke-width:4; stroke-opacity:1; fill:none" points="147.478,160.134 166.376,160.134 "/>
<path clip-path="url(#clip650)" d="M51.3625 1269.46 L81.0383 1269.46 L81.0383 1273.39 L51.3625 1273.39 L51.3625 1269.46 Z" fill="#000000" fill-rule="nonzero" fill-opacity="1" /><path clip-path="url(#clip650)" d="M95.1586 1282.35 L111.478 1282.35 L111.478 1286.29 L89.5336 1286.29 L89.5336 1282.35 Q92.1956 1279.6 96.7789 1274.97 Q101.385 1270.31 102.566 1268.97 Q104.811 1266.45 105.691 1264.71 Q106.594 1262.95 106.594 1261.26 Q106.594 1258.51 104.649 1256.77 Q102.728 1255.04 99.6261 1255.04 Q97.4271 1255.04 94.9734 1255.8 Q92.5428 1256.56 89.7651 1258.12 L89.7651 1253.39 Q92.5891 1252.26 95.0428 1251.68 Q97.4965 1251.1 99.5335 1251.1 Q104.904 1251.1 108.098 1253.79 Q111.293 1256.47 111.293 1260.96 Q111.293 1263.09 110.483 1265.01 Q109.696 1266.91 107.589 1269.5 Q107.01 1270.18 103.909 1273.39 Q100.807 1276.59 95.1586 1282.35 Z" fill="#000000" fill-rule="nonzero" fill-opacity="1" /><path clip-path="url(#clip650)" d="M50.9921 1047.68 L80.6679 1047.68 L80.6679 1051.62 L50.9921 1051.62 L50.9921 1047.68 Z" fill="#000000" fill-rule="nonzero" fill-opacity="1" /><path clip-path="url(#clip650)" d="M91.5706 1060.58 L99.2095 1060.58 L99.2095 1034.21 L90.8993 1035.88 L90.8993 1031.62 L99.1632 1029.95 L103.839 1029.95 L103.839 1060.58 L111.478 1060.58 L111.478 1064.51 L91.5706 1064.51 L91.5706 1060.58 Z" fill="#000000" fill-rule="nonzero" fill-opacity="1" /><path clip-path="url(#clip650)" d="M99.5335 811.256 Q95.9224 811.256 94.0937 814.821 Q92.2882 818.363 92.2882 825.492 Q92.2882 832.599 94.0937 836.163 Q95.9224 839.705 99.5335 839.705 Q103.168 839.705 104.973 836.163 Q106.802 832.599 106.802 825.492 Q106.802 818.363 104.973 814.821 Q103.168 811.256 99.5335 811.256 M99.5335 807.552 Q105.344 807.552 108.399 812.159 Q111.478 816.742 111.478 825.492 Q111.478 834.219 108.399 838.825 Q105.344 843.409 99.5335 843.409 Q93.7234 843.409 90.6447 838.825 Q87.5892 834.219 87.5892 825.492 Q87.5892 816.742 90.6447 812.159 Q93.7234 807.552 99.5335 807.552 Z" fill="#000000" fill-rule="nonzero" fill-opacity="1" /><path clip-path="url(#clip650)" d="M91.5706 617.028 L99.2095 617.028 L99.2095 590.662 L90.8993 592.329 L90.8993 588.069 L99.1632 586.403 L103.839 586.403 L103.839 617.028 L111.478 617.028 L111.478 620.963 L91.5706 620.963 L91.5706 617.028 Z" fill="#000000" fill-rule="nonzero" fill-opacity="1" /><path clip-path="url(#clip650)" d="M95.1586 395.253 L111.478 395.253 L111.478 399.188 L89.5336 399.188 L89.5336 395.253 Q92.1956 392.498 96.7789 387.869 Q101.385 383.216 102.566 381.873 Q104.811 379.35 105.691 377.614 Q106.594 375.855 106.594 374.165 Q106.594 371.411 104.649 369.674 Q102.728 367.938 99.6261 367.938 Q97.4271 367.938 94.9734 368.702 Q92.5428 369.466 89.7651 371.017 L89.7651 366.295 Q92.5891 365.161 95.0428 364.582 Q97.4965 364.003 99.5335 364.003 Q104.904 364.003 108.098 366.688 Q111.293 369.373 111.293 373.864 Q111.293 375.994 110.483 377.915 Q109.696 379.813 107.589 382.406 Q107.01 383.077 103.909 386.295 Q100.807 389.489 95.1586 395.253 Z" fill="#000000" fill-rule="nonzero" fill-opacity="1" /><path clip-path="url(#clip650)" d="M104.348 158.779 Q107.705 159.497 109.58 161.765 Q111.478 164.034 111.478 167.367 Q111.478 172.483 107.959 175.284 Q104.441 178.085 97.9595 178.085 Q95.7836 178.085 93.4688 177.645 Q91.1771 177.228 88.7234 176.372 L88.7234 171.858 Q90.6678 172.992 92.9826 173.571 Q95.2974 174.15 97.8206 174.15 Q102.219 174.15 104.51 172.414 Q106.825 170.677 106.825 167.367 Q106.825 164.312 104.672 162.599 Q102.543 160.863 98.7234 160.863 L94.6956 160.863 L94.6956 157.02 L98.9085 157.02 Q102.358 157.02 104.186 155.654 Q106.015 154.265 106.015 151.673 Q106.015 149.011 104.117 147.599 Q102.242 146.164 98.7234 146.164 Q96.8021 146.164 94.603 146.58 Q92.4039 146.997 89.7651 147.877 L89.7651 143.71 Q92.4271 142.969 94.7419 142.599 Q97.0798 142.229 99.14 142.229 Q104.464 142.229 107.566 144.659 Q110.668 147.066 110.668 151.187 Q110.668 154.057 109.024 156.048 Q107.381 158.015 104.348 158.779 Z" fill="#000000" fill-rule="nonzero" fill-opacity="1" /><circle clip-path="url(#clip652)" cx="1439.67" cy="797.715" r="14.4" fill="#009af9" fill-rule="evenodd" fill-opacity="0.5" stroke="#000000" stroke-opacity="0.5" stroke-width="3.2"/>
<circle clip-path="url(#clip652)" cx="1246.58" cy="705.622" r="14.4" fill="#009af9" fill-rule="evenodd" fill-opacity="0.5" stroke="#000000" stroke-opacity="0.5" stroke-width="3.2"/>
<circle clip-path="url(#clip652)" cx="767.853" cy="1075.6" r="14.4" fill="#009af9" fill-rule="evenodd" fill-opacity="0.5" stroke="#000000" stroke-opacity="0.5" stroke-width="3.2"/>
<circle clip-path="url(#clip652)" cx="209.891" cy="1319.84" r="14.4" fill="#009af9" fill-rule="evenodd" fill-opacity="0.5" stroke="#000000" stroke-opacity="0.5" stroke-width="3.2"/>
<circle clip-path="url(#clip652)" cx="1578.47" cy="649.073" r="14.4" fill="#009af9" fill-rule="evenodd" fill-opacity="0.5" stroke="#000000" stroke-opacity="0.5" stroke-width="3.2"/>
<circle clip-path="url(#clip652)" cx="2290.34" cy="820.053" r="14.4" fill="#009af9" fill-rule="evenodd" fill-opacity="0.5" stroke="#000000" stroke-opacity="0.5" stroke-width="3.2"/>
<circle clip-path="url(#clip652)" cx="1545.24" cy="1098.92" r="14.4" fill="#009af9" fill-rule="evenodd" fill-opacity="0.5" stroke="#000000" stroke-opacity="0.5" stroke-width="3.2"/>
<circle clip-path="url(#clip652)" cx="1622.83" cy="792.534" r="14.4" fill="#009af9" fill-rule="evenodd" fill-opacity="0.5" stroke="#000000" stroke-opacity="0.5" stroke-width="3.2"/>
<circle clip-path="url(#clip652)" cx="928.896" cy="633.272" r="14.4" fill="#009af9" fill-rule="evenodd" fill-opacity="0.5" stroke="#000000" stroke-opacity="0.5" stroke-width="3.2"/>
<circle clip-path="url(#clip652)" cx="429.565" cy="614.524" r="14.4" fill="#009af9" fill-rule="evenodd" fill-opacity="0.5" stroke="#000000" stroke-opacity="0.5" stroke-width="3.2"/>
<circle clip-path="url(#clip652)" cx="393.456" cy="744.805" r="14.4" fill="#009af9" fill-rule="evenodd" fill-opacity="0.5" stroke="#000000" stroke-opacity="0.5" stroke-width="3.2"/>
<circle clip-path="url(#clip652)" cx="550.754" cy="1007.1" r="14.4" fill="#009af9" fill-rule="evenodd" fill-opacity="0.5" stroke="#000000" stroke-opacity="0.5" stroke-width="3.2"/>
<circle clip-path="url(#clip652)" cx="1279.73" cy="802.227" r="14.4" fill="#009af9" fill-rule="evenodd" fill-opacity="0.5" stroke="#000000" stroke-opacity="0.5" stroke-width="3.2"/>
<circle clip-path="url(#clip652)" cx="768.033" cy="612.545" r="14.4" fill="#009af9" fill-rule="evenodd" fill-opacity="0.5" stroke="#000000" stroke-opacity="0.5" stroke-width="3.2"/>
<circle clip-path="url(#clip652)" cx="218.794" cy="1058.63" r="14.4" fill="#009af9" fill-rule="evenodd" fill-opacity="0.5" stroke="#000000" stroke-opacity="0.5" stroke-width="3.2"/>
<circle clip-path="url(#clip652)" cx="513.618" cy="568.743" r="14.4" fill="#009af9" fill-rule="evenodd" fill-opacity="0.5" stroke="#000000" stroke-opacity="0.5" stroke-width="3.2"/>
<circle clip-path="url(#clip652)" cx="820.581" cy="827.5" r="14.4" fill="#009af9" fill-rule="evenodd" fill-opacity="0.5" stroke="#000000" stroke-opacity="0.5" stroke-width="3.2"/>
<circle clip-path="url(#clip652)" cx="1687.17" cy="517.923" r="14.4" fill="#009af9" fill-rule="evenodd" fill-opacity="0.5" stroke="#000000" stroke-opacity="0.5" stroke-width="3.2"/>
<circle clip-path="url(#clip652)" cx="245.35" cy="669.428" r="14.4" fill="#009af9" fill-rule="evenodd" fill-opacity="0.5" stroke="#000000" stroke-opacity="0.5" stroke-width="3.2"/>
<circle clip-path="url(#clip652)" cx="1977.73" cy="1205.13" r="14.4" fill="#009af9" fill-rule="evenodd" fill-opacity="0.5" stroke="#000000" stroke-opacity="0.5" stroke-width="3.2"/>
<circle clip-path="url(#clip652)" cx="1666.13" cy="1445.72" r="14.4" fill="#009af9" fill-rule="evenodd" fill-opacity="0.5" stroke="#000000" stroke-opacity="0.5" stroke-width="3.2"/>
<circle clip-path="url(#clip652)" cx="1049.29" cy="958.161" r="14.4" fill="#009af9" fill-rule="evenodd" fill-opacity="0.5" stroke="#000000" stroke-opacity="0.5" stroke-width="3.2"/>
<circle clip-path="url(#clip652)" cx="881.845" cy="87.9763" r="14.4" fill="#009af9" fill-rule="evenodd" fill-opacity="0.5" stroke="#000000" stroke-opacity="0.5" stroke-width="3.2"/>
<circle clip-path="url(#clip652)" cx="1421.03" cy="868.568" r="14.4" fill="#009af9" fill-rule="evenodd" fill-opacity="0.5" stroke="#000000" stroke-opacity="0.5" stroke-width="3.2"/>
<circle clip-path="url(#clip652)" cx="800.094" cy="1014.19" r="14.4" fill="#009af9" fill-rule="evenodd" fill-opacity="0.5" stroke="#000000" stroke-opacity="0.5" stroke-width="3.2"/>
<circle clip-path="url(#clip652)" cx="839.533" cy="683.195" r="14.4" fill="#009af9" fill-rule="evenodd" fill-opacity="0.5" stroke="#000000" stroke-opacity="0.5" stroke-width="3.2"/>
<circle clip-path="url(#clip652)" cx="1327.16" cy="771.713" r="14.4" fill="#009af9" fill-rule="evenodd" fill-opacity="0.5" stroke="#000000" stroke-opacity="0.5" stroke-width="3.2"/>
<circle clip-path="url(#clip652)" cx="1132.47" cy="795.694" r="14.4" fill="#009af9" fill-rule="evenodd" fill-opacity="0.5" stroke="#000000" stroke-opacity="0.5" stroke-width="3.2"/>
<circle clip-path="url(#clip652)" cx="1387.88" cy="786.429" r="14.4" fill="#009af9" fill-rule="evenodd" fill-opacity="0.5" stroke="#000000" stroke-opacity="0.5" stroke-width="3.2"/>
<circle clip-path="url(#clip652)" cx="982.746" cy="684.092" r="14.4" fill="#009af9" fill-rule="evenodd" fill-opacity="0.5" stroke="#000000" stroke-opacity="0.5" stroke-width="3.2"/>
<path clip-path="url(#clip652)" d="M209.891 1319.84 L1666.13 1445.72 L1977.73 1205.13 L2290.34 820.053 L881.845 87.9763 L245.35 669.428 L218.794 1058.63 L209.891 1319.84 L209.891 1319.84  Z" fill="#e26f46" fill-rule="evenodd" fill-opacity="0.2"/>
<polyline clip-path="url(#clip652)" style="stroke:#000000; stroke-linecap:round; stroke-linejoin:round; stroke-width:4; stroke-opacity:0.2; fill:none" points="209.891,1319.84 1666.13,1445.72 1977.73,1205.13 2290.34,820.053 881.845,87.9763 245.35,669.428 218.794,1058.63 209.891,1319.84 "/>
</svg>
