<?xml version="1.0" encoding="utf-8"?>
<svg xmlns="http://www.w3.org/2000/svg" xmlns:xlink="http://www.w3.org/1999/xlink" width="600" height="400" viewBox="0 0 2400 1600">
<defs>
  <clipPath id="clip880">
    <rect x="0" y="0" width="2400" height="1600"/>
  </clipPath>
</defs>
<path clip-path="url(#clip880)" d="M0 1600 L2400 1600 L2400 0 L0 0  Z" fill="#ffffff" fill-rule="evenodd" fill-opacity="1"/>
<defs>
  <clipPath id="clip881">
    <rect x="193" y="47" width="2160" height="1440"/>
  </clipPath>
</defs>
<path clip-path="url(#clip880)" d="M193.936 1486.45 L2352.76 1486.45 L2352.76 47.2441 L193.936 47.2441  Z" fill="#ffffff" fill-rule="evenodd" fill-opacity="1"/>
<polyline clip-path="url(#clip881)" style="stroke:#000000; stroke-linecap:round; stroke-linejoin:round; stroke-width:2; stroke-opacity:0.1; fill:none" points="318.169,1486.45 318.169,47.2441 "/>
<polyline clip-path="url(#clip881)" style="stroke:#000000; stroke-linecap:round; stroke-linejoin:round; stroke-width:2; stroke-opacity:0.1; fill:none" points="925.167,1486.45 925.167,47.2441 "/>
<polyline clip-path="url(#clip881)" style="stroke:#000000; stroke-linecap:round; stroke-linejoin:round; stroke-width:2; stroke-opacity:0.1; fill:none" points="1532.16,1486.45 1532.16,47.2441 "/>
<polyline clip-path="url(#clip881)" style="stroke:#000000; stroke-linecap:round; stroke-linejoin:round; stroke-width:2; stroke-opacity:0.1; fill:none" points="2139.16,1486.45 2139.16,47.2441 "/>
<polyline clip-path="url(#clip881)" style="stroke:#000000; stroke-linecap:round; stroke-linejoin:round; stroke-width:2; stroke-opacity:0.1; fill:none" points="193.936,1344.97 2352.76,1344.97 "/>
<polyline clip-path="url(#clip881)" style="stroke:#000000; stroke-linecap:round; stroke-linejoin:round; stroke-width:2; stroke-opacity:0.1; fill:none" points="193.936,1145.58 2352.76,1145.58 "/>
<polyline clip-path="url(#clip881)" style="stroke:#000000; stroke-linecap:round; stroke-linejoin:round; stroke-width:2; stroke-opacity:0.1; fill:none" points="193.936,946.193 2352.76,946.193 "/>
<polyline clip-path="url(#clip881)" style="stroke:#000000; stroke-linecap:round; stroke-linejoin:round; stroke-width:2; stroke-opacity:0.1; fill:none" points="193.936,746.803 2352.76,746.803 "/>
<polyline clip-path="url(#clip881)" style="stroke:#000000; stroke-linecap:round; stroke-linejoin:round; stroke-width:2; stroke-opacity:0.1; fill:none" points="193.936,547.414 2352.76,547.414 "/>
<polyline clip-path="url(#clip881)" style="stroke:#000000; stroke-linecap:round; stroke-linejoin:round; stroke-width:2; stroke-opacity:0.1; fill:none" points="193.936,348.024 2352.76,348.024 "/>
<polyline clip-path="url(#clip881)" style="stroke:#000000; stroke-linecap:round; stroke-linejoin:round; stroke-width:2; stroke-opacity:0.1; fill:none" points="193.936,148.635 2352.76,148.635 "/>
<polyline clip-path="url(#clip880)" style="stroke:#000000; stroke-linecap:round; stroke-linejoin:round; stroke-width:4; stroke-opacity:1; fill:none" points="193.936,1486.45 2352.76,1486.45 "/>
<polyline clip-path="url(#clip880)" style="stroke:#000000; stroke-linecap:round; stroke-linejoin:round; stroke-width:4; stroke-opacity:1; fill:none" points="318.169,1486.45 318.169,1467.55 "/>
<polyline clip-path="url(#clip880)" style="stroke:#000000; stroke-linecap:round; stroke-linejoin:round; stroke-width:4; stroke-opacity:1; fill:none" points="925.167,1486.45 925.167,1467.55 "/>
<polyline clip-path="url(#clip880)" style="stroke:#000000; stroke-linecap:round; stroke-linejoin:round; stroke-width:4; stroke-opacity:1; fill:none" points="1532.16,1486.45 1532.16,1467.55 "/>
<polyline clip-path="url(#clip880)" style="stroke:#000000; stroke-linecap:round; stroke-linejoin:round; stroke-width:4; stroke-opacity:1; fill:none" points="2139.16,1486.45 2139.16,1467.55 "/>
<path clip-path="url(#clip880)" d="M288.111 1532.02 L317.787 1532.02 L317.787 1535.95 L288.111 1535.95 L288.111 1532.02 Z" fill="#000000" fill-rule="nonzero" fill-opacity="1" /><path clip-path="url(#clip880)" d="M331.907 1544.91 L348.226 1544.91 L348.226 1548.85 L326.282 1548.85 L326.282 1544.91 Q328.944 1542.16 333.527 1537.53 Q338.134 1532.88 339.314 1531.53 Q341.56 1529.01 342.439 1527.27 Q343.342 1525.51 343.342 1523.82 Q343.342 1521.07 341.398 1519.33 Q339.476 1517.6 336.375 1517.6 Q334.176 1517.6 331.722 1518.36 Q329.291 1519.13 326.514 1520.68 L326.514 1515.95 Q329.338 1514.82 331.791 1514.24 Q334.245 1513.66 336.282 1513.66 Q341.652 1513.66 344.847 1516.35 Q348.041 1519.03 348.041 1523.52 Q348.041 1525.65 347.231 1527.57 Q346.444 1529.47 344.338 1532.07 Q343.759 1532.74 340.657 1535.95 Q337.555 1539.15 331.907 1544.91 Z" fill="#000000" fill-rule="nonzero" fill-opacity="1" /><path clip-path="url(#clip880)" d="M894.924 1532.02 L924.6 1532.02 L924.6 1535.95 L894.924 1535.95 L894.924 1532.02 Z" fill="#000000" fill-rule="nonzero" fill-opacity="1" /><path clip-path="url(#clip880)" d="M935.502 1544.91 L943.141 1544.91 L943.141 1518.55 L934.831 1520.21 L934.831 1515.95 L943.095 1514.29 L947.771 1514.29 L947.771 1544.91 L955.41 1544.91 L955.41 1548.85 L935.502 1548.85 L935.502 1544.91 Z" fill="#000000" fill-rule="nonzero" fill-opacity="1" /><path clip-path="url(#clip880)" d="M1532.16 1517.37 Q1528.55 1517.37 1526.72 1520.93 Q1524.92 1524.47 1524.92 1531.6 Q1524.92 1538.71 1526.72 1542.27 Q1528.55 1545.82 1532.16 1545.82 Q1535.8 1545.82 1537.6 1542.27 Q1539.43 1538.71 1539.43 1531.6 Q1539.43 1524.47 1537.6 1520.93 Q1535.8 1517.37 1532.16 1517.37 M1532.16 1513.66 Q1537.97 1513.66 1541.03 1518.27 Q1544.11 1522.85 1544.11 1531.6 Q1544.11 1540.33 1541.03 1544.94 Q1537.97 1549.52 1532.16 1549.52 Q1526.35 1549.52 1523.28 1544.94 Q1520.22 1540.33 1520.22 1531.6 Q1520.22 1522.85 1523.28 1518.27 Q1526.35 1513.66 1532.16 1513.66 Z" fill="#000000" fill-rule="nonzero" fill-opacity="1" /><path clip-path="url(#clip880)" d="M2129.54 1544.91 L2137.18 1544.91 L2137.18 1518.55 L2128.87 1520.21 L2128.87 1515.95 L2137.14 1514.29 L2141.81 1514.29 L2141.81 1544.91 L2149.45 1544.91 L2149.45 1548.85 L2129.54 1548.85 L2129.54 1544.91 Z" fill="#000000" fill-rule="nonzero" fill-opacity="1" /><polyline clip-path="url(#clip880)" style="stroke:#000000; stroke-linecap:round; stroke-linejoin:round; stroke-width:4; stroke-opacity:1; fill:none" points="193.936,1486.45 193.936,47.2441 "/>
<polyline clip-path="url(#clip880)" style="stroke:#000000; stroke-linecap:round; stroke-linejoin:round; stroke-width:4; stroke-opacity:1; fill:none" points="193.936,1344.97 212.834,1344.97 "/>
<polyline clip-path="url(#clip880)" style="stroke:#000000; stroke-linecap:round; stroke-linejoin:round; stroke-width:4; stroke-opacity:1; fill:none" points="193.936,1145.58 212.834,1145.58 "/>
<polyline clip-path="url(#clip880)" style="stroke:#000000; stroke-linecap:round; stroke-linejoin:round; stroke-width:4; stroke-opacity:1; fill:none" points="193.936,946.193 212.834,946.193 "/>
<polyline clip-path="url(#clip880)" style="stroke:#000000; stroke-linecap:round; stroke-linejoin:round; stroke-width:4; stroke-opacity:1; fill:none" points="193.936,746.803 212.834,746.803 "/>
<polyline clip-path="url(#clip880)" style="stroke:#000000; stroke-linecap:round; stroke-linejoin:round; stroke-width:4; stroke-opacity:1; fill:none" points="193.936,547.414 212.834,547.414 "/>
<polyline clip-path="url(#clip880)" style="stroke:#000000; stroke-linecap:round; stroke-linejoin:round; stroke-width:4; stroke-opacity:1; fill:none" points="193.936,348.024 212.834,348.024 "/>
<polyline clip-path="url(#clip880)" style="stroke:#000000; stroke-linecap:round; stroke-linejoin:round; stroke-width:4; stroke-opacity:1; fill:none" points="193.936,148.635 212.834,148.635 "/>
<path clip-path="url(#clip880)" d="M51.9875 1345.42 L81.6633 1345.42 L81.6633 1349.36 L51.9875 1349.36 L51.9875 1345.42 Z" fill="#000000" fill-rule="nonzero" fill-opacity="1" /><path clip-path="url(#clip880)" d="M92.566 1358.32 L100.205 1358.32 L100.205 1331.95 L91.8947 1333.62 L91.8947 1329.36 L100.159 1327.69 L104.834 1327.69 L104.834 1358.32 L112.473 1358.32 L112.473 1362.25 L92.566 1362.25 L92.566 1358.32 Z" fill="#000000" fill-rule="nonzero" fill-opacity="1" /><path clip-path="url(#clip880)" d="M121.918 1356.37 L126.802 1356.37 L126.802 1362.25 L121.918 1362.25 L121.918 1356.37 Z" fill="#000000" fill-rule="nonzero" fill-opacity="1" /><path clip-path="url(#clip880)" d="M137.033 1327.69 L155.39 1327.69 L155.39 1331.63 L141.316 1331.63 L141.316 1340.1 Q142.334 1339.75 143.353 1339.59 Q144.371 1339.4 145.39 1339.4 Q151.177 1339.4 154.556 1342.58 Q157.936 1345.75 157.936 1351.16 Q157.936 1356.74 154.464 1359.84 Q150.992 1362.92 144.672 1362.92 Q142.496 1362.92 140.228 1362.55 Q137.982 1362.18 135.575 1361.44 L135.575 1356.74 Q137.658 1357.88 139.881 1358.43 Q142.103 1358.99 144.58 1358.99 Q148.584 1358.99 150.922 1356.88 Q153.26 1354.78 153.26 1351.16 Q153.26 1347.55 150.922 1345.45 Q148.584 1343.34 144.58 1343.34 Q142.705 1343.34 140.83 1343.76 Q138.978 1344.17 137.033 1345.05 L137.033 1327.69 Z" fill="#000000" fill-rule="nonzero" fill-opacity="1" /><path clip-path="url(#clip880)" d="M50.9921 1146.03 L80.6679 1146.03 L80.6679 1149.97 L50.9921 1149.97 L50.9921 1146.03 Z" fill="#000000" fill-rule="nonzero" fill-opacity="1" /><path clip-path="url(#clip880)" d="M91.5706 1158.93 L99.2095 1158.93 L99.2095 1132.56 L90.8993 1134.23 L90.8993 1129.97 L99.1632 1128.3 L103.839 1128.3 L103.839 1158.93 L111.478 1158.93 L111.478 1162.86 L91.5706 1162.86 L91.5706 1158.93 Z" fill="#000000" fill-rule="nonzero" fill-opacity="1" /><path clip-path="url(#clip880)" d="M120.922 1156.98 L125.807 1156.98 L125.807 1162.86 L120.922 1162.86 L120.922 1156.98 Z" fill="#000000" fill-rule="nonzero" fill-opacity="1" /><path clip-path="url(#clip880)" d="M145.992 1131.38 Q142.381 1131.38 140.552 1134.95 Q138.746 1138.49 138.746 1145.62 Q138.746 1152.72 140.552 1156.29 Q142.381 1159.83 145.992 1159.83 Q149.626 1159.83 151.431 1156.29 Q153.26 1152.72 153.26 1145.62 Q153.26 1138.49 151.431 1134.95 Q149.626 1131.38 145.992 1131.38 M145.992 1127.68 Q151.802 1127.68 154.857 1132.28 Q157.936 1136.87 157.936 1145.62 Q157.936 1154.34 154.857 1158.95 Q151.802 1163.53 145.992 1163.53 Q140.181 1163.53 137.103 1158.95 Q134.047 1154.34 134.047 1145.62 Q134.047 1136.87 137.103 1132.28 Q140.181 1127.68 145.992 1127.68 Z" fill="#000000" fill-rule="nonzero" fill-opacity="1" /><path clip-path="url(#clip880)" d="M51.9875 946.644 L81.6633 946.644 L81.6633 950.579 L51.9875 950.579 L51.9875 946.644 Z" fill="#000000" fill-rule="nonzero" fill-opacity="1" /><path clip-path="url(#clip880)" d="M101.756 931.992 Q98.1447 931.992 96.316 935.556 Q94.5104 939.098 94.5104 946.228 Q94.5104 953.334 96.316 956.899 Q98.1447 960.44 101.756 960.44 Q105.39 960.44 107.196 956.899 Q109.024 953.334 109.024 946.228 Q109.024 939.098 107.196 935.556 Q105.39 931.992 101.756 931.992 M101.756 928.288 Q107.566 928.288 110.621 932.894 Q113.7 937.478 113.7 946.228 Q113.7 954.954 110.621 959.561 Q107.566 964.144 101.756 964.144 Q95.9456 964.144 92.8669 959.561 Q89.8114 954.954 89.8114 946.228 Q89.8114 937.478 92.8669 932.894 Q95.9456 928.288 101.756 928.288 Z" fill="#000000" fill-rule="nonzero" fill-opacity="1" /><path clip-path="url(#clip880)" d="M121.918 957.593 L126.802 957.593 L126.802 963.473 L121.918 963.473 L121.918 957.593 Z" fill="#000000" fill-rule="nonzero" fill-opacity="1" /><path clip-path="url(#clip880)" d="M137.033 928.913 L155.39 928.913 L155.39 932.848 L141.316 932.848 L141.316 941.32 Q142.334 940.973 143.353 940.811 Q144.371 940.626 145.39 940.626 Q151.177 940.626 154.556 943.797 Q157.936 946.968 157.936 952.385 Q157.936 957.964 154.464 961.065 Q150.992 964.144 144.672 964.144 Q142.496 964.144 140.228 963.774 Q137.982 963.403 135.575 962.663 L135.575 957.964 Q137.658 959.098 139.881 959.653 Q142.103 960.209 144.58 960.209 Q148.584 960.209 150.922 958.103 Q153.26 955.996 153.26 952.385 Q153.26 948.774 150.922 946.667 Q148.584 944.561 144.58 944.561 Q142.705 944.561 140.83 944.978 Q138.978 945.394 137.033 946.274 L137.033 928.913 Z" fill="#000000" fill-rule="nonzero" fill-opacity="1" /><path clip-path="url(#clip880)" d="M100.76 732.602 Q97.1493 732.602 95.3206 736.167 Q93.515 739.708 93.515 746.838 Q93.515 753.945 95.3206 757.509 Q97.1493 761.051 100.76 761.051 Q104.395 761.051 106.2 757.509 Q108.029 753.945 108.029 746.838 Q108.029 739.708 106.2 736.167 Q104.395 732.602 100.76 732.602 M100.76 728.898 Q106.571 728.898 109.626 733.505 Q112.705 738.088 112.705 746.838 Q112.705 755.565 109.626 760.171 Q106.571 764.755 100.76 764.755 Q94.9502 764.755 91.8715 760.171 Q88.816 755.565 88.816 746.838 Q88.816 738.088 91.8715 733.505 Q94.9502 728.898 100.76 728.898 Z" fill="#000000" fill-rule="nonzero" fill-opacity="1" /><path clip-path="url(#clip880)" d="M120.922 758.204 L125.807 758.204 L125.807 764.083 L120.922 764.083 L120.922 758.204 Z" fill="#000000" fill-rule="nonzero" fill-opacity="1" /><path clip-path="url(#clip880)" d="M145.992 732.602 Q142.381 732.602 140.552 736.167 Q138.746 739.708 138.746 746.838 Q138.746 753.945 140.552 757.509 Q142.381 761.051 145.992 761.051 Q149.626 761.051 151.431 757.509 Q153.26 753.945 153.26 746.838 Q153.26 739.708 151.431 736.167 Q149.626 732.602 145.992 732.602 M145.992 728.898 Q151.802 728.898 154.857 733.505 Q157.936 738.088 157.936 746.838 Q157.936 755.565 154.857 760.171 Q151.802 764.755 145.992 764.755 Q140.181 764.755 137.103 760.171 Q134.047 755.565 134.047 746.838 Q134.047 738.088 137.103 733.505 Q140.181 728.898 145.992 728.898 Z" fill="#000000" fill-rule="nonzero" fill-opacity="1" /><path clip-path="url(#clip880)" d="M101.756 533.213 Q98.1447 533.213 96.316 536.777 Q94.5104 540.319 94.5104 547.449 Q94.5104 554.555 96.316 558.12 Q98.1447 561.661 101.756 561.661 Q105.39 561.661 107.196 558.12 Q109.024 554.555 109.024 547.449 Q109.024 540.319 107.196 536.777 Q105.39 533.213 101.756 533.213 M101.756 529.509 Q107.566 529.509 110.621 534.115 Q113.7 538.699 113.7 547.449 Q113.7 556.175 110.621 560.782 Q107.566 565.365 101.756 565.365 Q95.9456 565.365 92.8669 560.782 Q89.8114 556.175 89.8114 547.449 Q89.8114 538.699 92.8669 534.115 Q95.9456 529.509 101.756 529.509 Z" fill="#000000" fill-rule="nonzero" fill-opacity="1" /><path clip-path="url(#clip880)" d="M121.918 558.814 L126.802 558.814 L126.802 564.694 L121.918 564.694 L121.918 558.814 Z" fill="#000000" fill-rule="nonzero" fill-opacity="1" /><path clip-path="url(#clip880)" d="M137.033 530.134 L155.39 530.134 L155.39 534.069 L141.316 534.069 L141.316 542.541 Q142.334 542.194 143.353 542.032 Q144.371 541.847 145.39 541.847 Q151.177 541.847 154.556 545.018 Q157.936 548.189 157.936 553.606 Q157.936 559.185 154.464 562.286 Q150.992 565.365 144.672 565.365 Q142.496 565.365 140.228 564.995 Q137.982 564.624 135.575 563.884 L135.575 559.185 Q137.658 560.319 139.881 560.874 Q142.103 561.43 144.58 561.43 Q148.584 561.43 150.922 559.323 Q153.26 557.217 153.26 553.606 Q153.26 549.995 150.922 547.888 Q148.584 545.782 144.58 545.782 Q142.705 545.782 140.83 546.199 Q138.978 546.615 137.033 547.495 L137.033 530.134 Z" fill="#000000" fill-rule="nonzero" fill-opacity="1" /><path clip-path="url(#clip880)" d="M91.5706 361.369 L99.2095 361.369 L99.2095 335.004 L90.8993 336.67 L90.8993 332.411 L99.1632 330.744 L103.839 330.744 L103.839 361.369 L111.478 361.369 L111.478 365.304 L91.5706 365.304 L91.5706 361.369 Z" fill="#000000" fill-rule="nonzero" fill-opacity="1" /><path clip-path="url(#clip880)" d="M120.922 359.425 L125.807 359.425 L125.807 365.304 L120.922 365.304 L120.922 359.425 Z" fill="#000000" fill-rule="nonzero" fill-opacity="1" /><path clip-path="url(#clip880)" d="M145.992 333.823 Q142.381 333.823 140.552 337.388 Q138.746 340.929 138.746 348.059 Q138.746 355.165 140.552 358.73 Q142.381 362.272 145.992 362.272 Q149.626 362.272 151.431 358.73 Q153.26 355.165 153.26 348.059 Q153.26 340.929 151.431 337.388 Q149.626 333.823 145.992 333.823 M145.992 330.119 Q151.802 330.119 154.857 334.726 Q157.936 339.309 157.936 348.059 Q157.936 356.786 154.857 361.392 Q151.802 365.976 145.992 365.976 Q140.181 365.976 137.103 361.392 Q134.047 356.786 134.047 348.059 Q134.047 339.309 137.103 334.726 Q140.181 330.119 145.992 330.119 Z" fill="#000000" fill-rule="nonzero" fill-opacity="1" /><path clip-path="url(#clip880)" d="M92.566 161.98 L100.205 161.98 L100.205 135.614 L91.8947 137.281 L91.8947 133.021 L100.159 131.355 L104.834 131.355 L104.834 161.98 L112.473 161.98 L112.473 165.915 L92.566 165.915 L92.566 161.98 Z" fill="#000000" fill-rule="nonzero" fill-opacity="1" /><path clip-path="url(#clip880)" d="M121.918 160.035 L126.802 160.035 L126.802 165.915 L121.918 165.915 L121.918 160.035 Z" fill="#000000" fill-rule="nonzero" fill-opacity="1" /><path clip-path="url(#clip880)" d="M137.033 131.355 L155.39 131.355 L155.39 135.29 L141.316 135.29 L141.316 143.762 Q142.334 143.415 143.353 143.253 Q144.371 143.068 145.39 143.068 Q151.177 143.068 154.556 146.239 Q157.936 149.41 157.936 154.827 Q157.936 160.406 154.464 163.507 Q150.992 166.586 144.672 166.586 Q142.496 166.586 140.228 166.216 Q137.982 165.845 135.575 165.105 L135.575 160.406 Q137.658 161.54 139.881 162.095 Q142.103 162.651 144.58 162.651 Q148.584 162.651 150.922 160.544 Q153.26 158.438 153.26 154.827 Q153.26 151.216 150.922 149.109 Q148.584 147.003 144.58 147.003 Q142.705 147.003 140.83 147.42 Q138.978 147.836 137.033 148.716 L137.033 131.355 Z" fill="#000000" fill-rule="nonzero" fill-opacity="1" /><circle clip-path="url(#clip881)" cx="1023.41" cy="87.9763" r="14.4" fill="#009af9" fill-rule="evenodd" fill-opacity="0.5" stroke="#000000" stroke-opacity="0.5" stroke-width="3.2"/>
<circle clip-path="url(#clip881)" cx="1022.81" cy="686.195" r="14.4" fill="#009af9" fill-rule="evenodd" fill-opacity="0.5" stroke="#000000" stroke-opacity="0.5" stroke-width="3.2"/>
<circle clip-path="url(#clip881)" cx="2291.66" cy="199.69" r="14.4" fill="#009af9" fill-rule="evenodd" fill-opacity="0.5" stroke="#000000" stroke-opacity="0.5" stroke-width="3.2"/>
<circle clip-path="url(#clip881)" cx="851.912" cy="986.535" r="14.4" fill="#009af9" fill-rule="evenodd" fill-opacity="0.5" stroke="#000000" stroke-opacity="0.5" stroke-width="3.2"/>
<circle clip-path="url(#clip881)" cx="2063.51" cy="444.316" r="14.4" fill="#009af9" fill-rule="evenodd" fill-opacity="0.5" stroke="#000000" stroke-opacity="0.5" stroke-width="3.2"/>
<circle clip-path="url(#clip881)" cx="1230.21" cy="1445.72" r="14.4" fill="#009af9" fill-rule="evenodd" fill-opacity="0.5" stroke="#000000" stroke-opacity="0.5" stroke-width="3.2"/>
<circle clip-path="url(#clip881)" cx="851.311" cy="105.156" r="14.4" fill="#009af9" fill-rule="evenodd" fill-opacity="0.5" stroke="#000000" stroke-opacity="0.5" stroke-width="3.2"/>
<circle clip-path="url(#clip881)" cx="1513.58" cy="1044.67" r="14.4" fill="#009af9" fill-rule="evenodd" fill-opacity="0.5" stroke="#000000" stroke-opacity="0.5" stroke-width="3.2"/>
<circle clip-path="url(#clip881)" cx="1822.16" cy="780.146" r="14.4" fill="#009af9" fill-rule="evenodd" fill-opacity="0.5" stroke="#000000" stroke-opacity="0.5" stroke-width="3.2"/>
<circle clip-path="url(#clip881)" cx="255.035" cy="1031.21" r="14.4" fill="#009af9" fill-rule="evenodd" fill-opacity="0.5" stroke="#000000" stroke-opacity="0.5" stroke-width="3.2"/>
<circle clip-path="url(#clip881)" cx="1486.81" cy="299.36" r="14.4" fill="#009af9" fill-rule="evenodd" fill-opacity="0.5" stroke="#000000" stroke-opacity="0.5" stroke-width="3.2"/>
<circle clip-path="url(#clip881)" cx="1539.13" cy="984.654" r="14.4" fill="#009af9" fill-rule="evenodd" fill-opacity="0.5" stroke="#000000" stroke-opacity="0.5" stroke-width="3.2"/>
<circle clip-path="url(#clip881)" cx="1284.95" cy="855.214" r="14.4" fill="#009af9" fill-rule="evenodd" fill-opacity="0.5" stroke="#000000" stroke-opacity="0.5" stroke-width="3.2"/>
<circle clip-path="url(#clip881)" cx="564.558" cy="346.613" r="14.4" fill="#009af9" fill-rule="evenodd" fill-opacity="0.5" stroke="#000000" stroke-opacity="0.5" stroke-width="3.2"/>
<circle clip-path="url(#clip881)" cx="985.488" cy="458.617" r="14.4" fill="#009af9" fill-rule="evenodd" fill-opacity="0.5" stroke="#000000" stroke-opacity="0.5" stroke-width="3.2"/>
<circle clip-path="url(#clip881)" cx="1587.61" cy="411.888" r="14.4" fill="#009af9" fill-rule="evenodd" fill-opacity="0.5" stroke="#000000" stroke-opacity="0.5" stroke-width="3.2"/>
<circle clip-path="url(#clip881)" cx="1993.21" cy="1085.14" r="14.4" fill="#009af9" fill-rule="evenodd" fill-opacity="0.5" stroke="#000000" stroke-opacity="0.5" stroke-width="3.2"/>
<circle clip-path="url(#clip881)" cx="810.419" cy="1214.07" r="14.4" fill="#009af9" fill-rule="evenodd" fill-opacity="0.5" stroke="#000000" stroke-opacity="0.5" stroke-width="3.2"/>
<circle clip-path="url(#clip881)" cx="1042.53" cy="772.707" r="14.4" fill="#009af9" fill-rule="evenodd" fill-opacity="0.5" stroke="#000000" stroke-opacity="0.5" stroke-width="3.2"/>
<circle clip-path="url(#clip881)" cx="1577.33" cy="1292.69" r="14.4" fill="#009af9" fill-rule="evenodd" fill-opacity="0.5" stroke="#000000" stroke-opacity="0.5" stroke-width="3.2"/>
<circle clip-path="url(#clip881)" cx="1737.88" cy="580.458" r="14.4" fill="#009af9" fill-rule="evenodd" fill-opacity="0.5" stroke="#000000" stroke-opacity="0.5" stroke-width="3.2"/>
<circle clip-path="url(#clip881)" cx="1751.6" cy="291.887" r="14.4" fill="#009af9" fill-rule="evenodd" fill-opacity="0.5" stroke="#000000" stroke-opacity="0.5" stroke-width="3.2"/>
<circle clip-path="url(#clip881)" cx="794.337" cy="1173.29" r="14.4" fill="#009af9" fill-rule="evenodd" fill-opacity="0.5" stroke="#000000" stroke-opacity="0.5" stroke-width="3.2"/>
<circle clip-path="url(#clip881)" cx="722.969" cy="581.217" r="14.4" fill="#009af9" fill-rule="evenodd" fill-opacity="0.5" stroke="#000000" stroke-opacity="0.5" stroke-width="3.2"/>
<circle clip-path="url(#clip881)" cx="2096.81" cy="1416.57" r="14.4" fill="#009af9" fill-rule="evenodd" fill-opacity="0.5" stroke="#000000" stroke-opacity="0.5" stroke-width="3.2"/>
<circle clip-path="url(#clip881)" cx="1098.21" cy="1007.61" r="14.4" fill="#009af9" fill-rule="evenodd" fill-opacity="0.5" stroke="#000000" stroke-opacity="0.5" stroke-width="3.2"/>
<circle clip-path="url(#clip881)" cx="806.014" cy="672.435" r="14.4" fill="#009af9" fill-rule="evenodd" fill-opacity="0.5" stroke="#000000" stroke-opacity="0.5" stroke-width="3.2"/>
<circle clip-path="url(#clip881)" cx="1315.59" cy="766.046" r="14.4" fill="#009af9" fill-rule="evenodd" fill-opacity="0.5" stroke="#000000" stroke-opacity="0.5" stroke-width="3.2"/>
<circle clip-path="url(#clip881)" cx="2030.53" cy="661.352" r="14.4" fill="#009af9" fill-rule="evenodd" fill-opacity="0.5" stroke="#000000" stroke-opacity="0.5" stroke-width="3.2"/>
<circle clip-path="url(#clip881)" cx="954.85" cy="559.444" r="14.4" fill="#009af9" fill-rule="evenodd" fill-opacity="0.5" stroke="#000000" stroke-opacity="0.5" stroke-width="3.2"/>
<path clip-path="url(#clip881)" d="M255.035 1031.21 L1230.21 1445.72 L2096.81 1416.57 L2291.66 199.69 L1023.41 87.9763 L851.311 105.156 L564.558 346.613 L255.035 1031.21 L255.035 1031.21  Z" fill="#e26f46" fill-rule="evenodd" fill-opacity="0.2"/>
<polyline clip-path="url(#clip881)" style="stroke:#000000; stroke-linecap:round; stroke-linejoin:round; stroke-width:4; stroke-opacity:0.2; fill:none" points="255.035,1031.21 1230.21,1445.72 2096.81,1416.57 2291.66,199.69 1023.41,87.9763 851.311,105.156 564.558,346.613 255.035,1031.21 "/>
</svg>
