<?xml version="1.0" encoding="utf-8"?>
<svg xmlns="http://www.w3.org/2000/svg" xmlns:xlink="http://www.w3.org/1999/xlink" width="600" height="400" viewBox="0 0 2400 1600">
<defs>
  <clipPath id="clip600">
    <rect x="0" y="0" width="2400" height="1600"/>
  </clipPath>
</defs>
<path clip-path="url(#clip600)" d="M0 1600 L2400 1600 L2400 0 L0 0  Z" fill="#ffffff" fill-rule="evenodd" fill-opacity="1"/>
<defs>
  <clipPath id="clip601">
    <rect x="480" y="0" width="1681" height="1600"/>
  </clipPath>
</defs>
<path clip-path="url(#clip600)" d="M147.478 1486.45 L2352.76 1486.45 L2352.76 47.2441 L147.478 47.2441  Z" fill="#ffffff" fill-rule="evenodd" fill-opacity="1"/>
<defs>
  <clipPath id="clip602">
    <rect x="147" y="47" width="2206" height="1440"/>
  </clipPath>
</defs>
<polyline clip-path="url(#clip602)" style="stroke:#000000; stroke-linecap:round; stroke-linejoin:round; stroke-width:2; stroke-opacity:0.1; fill:none" points="417.845,1486.45 417.845,47.2441 "/>
<polyline clip-path="url(#clip602)" style="stroke:#000000; stroke-linecap:round; stroke-linejoin:round; stroke-width:2; stroke-opacity:0.1; fill:none" points="778.597,1486.45 778.597,47.2441 "/>
<polyline clip-path="url(#clip602)" style="stroke:#000000; stroke-linecap:round; stroke-linejoin:round; stroke-width:2; stroke-opacity:0.1; fill:none" points="1139.35,1486.45 1139.35,47.2441 "/>
<polyline clip-path="url(#clip602)" style="stroke:#000000; stroke-linecap:round; stroke-linejoin:round; stroke-width:2; stroke-opacity:0.1; fill:none" points="1500.1,1486.45 1500.1,47.2441 "/>
<polyline clip-path="url(#clip602)" style="stroke:#000000; stroke-linecap:round; stroke-linejoin:round; stroke-width:2; stroke-opacity:0.1; fill:none" points="1860.85,1486.45 1860.85,47.2441 "/>
<polyline clip-path="url(#clip602)" style="stroke:#000000; stroke-linecap:round; stroke-linejoin:round; stroke-width:2; stroke-opacity:0.1; fill:none" points="2221.6,1486.45 2221.6,47.2441 "/>
<polyline clip-path="url(#clip602)" style="stroke:#000000; stroke-linecap:round; stroke-linejoin:round; stroke-width:2; stroke-opacity:0.1; fill:none" points="147.478,1441.66 2352.76,1441.66 "/>
<polyline clip-path="url(#clip602)" style="stroke:#000000; stroke-linecap:round; stroke-linejoin:round; stroke-width:2; stroke-opacity:0.1; fill:none" points="147.478,1098.19 2352.76,1098.19 "/>
<polyline clip-path="url(#clip602)" style="stroke:#000000; stroke-linecap:round; stroke-linejoin:round; stroke-width:2; stroke-opacity:0.1; fill:none" points="147.478,754.726 2352.76,754.726 "/>
<polyline clip-path="url(#clip602)" style="stroke:#000000; stroke-linecap:round; stroke-linejoin:round; stroke-width:2; stroke-opacity:0.1; fill:none" points="147.478,411.259 2352.76,411.259 "/>
<polyline clip-path="url(#clip602)" style="stroke:#000000; stroke-linecap:round; stroke-linejoin:round; stroke-width:2; stroke-opacity:0.1; fill:none" points="147.478,67.7918 2352.76,67.7918 "/>
<polyline clip-path="url(#clip600)" style="stroke:#000000; stroke-linecap:round; stroke-linejoin:round; stroke-width:4; stroke-opacity:1; fill:none" points="147.478,1486.45 2352.76,1486.45 "/>
<polyline clip-path="url(#clip600)" style="stroke:#000000; stroke-linecap:round; stroke-linejoin:round; stroke-width:4; stroke-opacity:1; fill:none" points="417.845,1486.45 417.845,1467.55 "/>
<polyline clip-path="url(#clip600)" style="stroke:#000000; stroke-linecap:round; stroke-linejoin:round; stroke-width:4; stroke-opacity:1; fill:none" points="778.597,1486.45 778.597,1467.55 "/>
<polyline clip-path="url(#clip600)" style="stroke:#000000; stroke-linecap:round; stroke-linejoin:round; stroke-width:4; stroke-opacity:1; fill:none" points="1139.35,1486.45 1139.35,1467.55 "/>
<polyline clip-path="url(#clip600)" style="stroke:#000000; stroke-linecap:round; stroke-linejoin:round; stroke-width:4; stroke-opacity:1; fill:none" points="1500.1,1486.45 1500.1,1467.55 "/>
<polyline clip-path="url(#clip600)" style="stroke:#000000; stroke-linecap:round; stroke-linejoin:round; stroke-width:4; stroke-opacity:1; fill:none" points="1860.85,1486.45 1860.85,1467.55 "/>
<polyline clip-path="url(#clip600)" style="stroke:#000000; stroke-linecap:round; stroke-linejoin:round; stroke-width:4; stroke-opacity:1; fill:none" points="2221.6,1486.45 2221.6,1467.55 "/>
<path clip-path="url(#clip600)" d="M364.373 1532.02 L394.049 1532.02 L394.049 1535.95 L364.373 1535.95 L364.373 1532.02 Z" fill="#000000" fill-rule="nonzero" fill-opacity="1" /><path clip-path="url(#clip600)" d="M404.952 1544.91 L412.591 1544.91 L412.591 1518.55 L404.281 1520.21 L404.281 1515.95 L412.544 1514.29 L417.22 1514.29 L417.22 1544.91 L424.859 1544.91 L424.859 1548.85 L404.952 1548.85 L404.952 1544.91 Z" fill="#000000" fill-rule="nonzero" fill-opacity="1" /><path clip-path="url(#clip600)" d="M434.304 1542.97 L439.188 1542.97 L439.188 1548.85 L434.304 1548.85 L434.304 1542.97 Z" fill="#000000" fill-rule="nonzero" fill-opacity="1" /><path clip-path="url(#clip600)" d="M459.373 1517.37 Q455.762 1517.37 453.933 1520.93 Q452.128 1524.47 452.128 1531.6 Q452.128 1538.71 453.933 1542.27 Q455.762 1545.82 459.373 1545.82 Q463.007 1545.82 464.813 1542.27 Q466.641 1538.71 466.641 1531.6 Q466.641 1524.47 464.813 1520.93 Q463.007 1517.37 459.373 1517.37 M459.373 1513.66 Q465.183 1513.66 468.239 1518.27 Q471.317 1522.85 471.317 1531.6 Q471.317 1540.33 468.239 1544.94 Q465.183 1549.52 459.373 1549.52 Q453.563 1549.52 450.484 1544.94 Q447.429 1540.33 447.429 1531.6 Q447.429 1522.85 450.484 1518.27 Q453.563 1513.66 459.373 1513.66 Z" fill="#000000" fill-rule="nonzero" fill-opacity="1" /><path clip-path="url(#clip600)" d="M725.623 1532.02 L755.299 1532.02 L755.299 1535.95 L725.623 1535.95 L725.623 1532.02 Z" fill="#000000" fill-rule="nonzero" fill-opacity="1" /><path clip-path="url(#clip600)" d="M775.391 1517.37 Q771.78 1517.37 769.951 1520.93 Q768.146 1524.47 768.146 1531.6 Q768.146 1538.71 769.951 1542.27 Q771.78 1545.82 775.391 1545.82 Q779.025 1545.82 780.831 1542.27 Q782.66 1538.71 782.66 1531.6 Q782.66 1524.47 780.831 1520.93 Q779.025 1517.37 775.391 1517.37 M775.391 1513.66 Q781.201 1513.66 784.257 1518.27 Q787.335 1522.85 787.335 1531.6 Q787.335 1540.33 784.257 1544.94 Q781.201 1549.52 775.391 1549.52 Q769.581 1549.52 766.502 1544.94 Q763.447 1540.33 763.447 1531.6 Q763.447 1522.85 766.502 1518.27 Q769.581 1513.66 775.391 1513.66 Z" fill="#000000" fill-rule="nonzero" fill-opacity="1" /><path clip-path="url(#clip600)" d="M795.553 1542.97 L800.437 1542.97 L800.437 1548.85 L795.553 1548.85 L795.553 1542.97 Z" fill="#000000" fill-rule="nonzero" fill-opacity="1" /><path clip-path="url(#clip600)" d="M810.669 1514.29 L829.025 1514.29 L829.025 1518.22 L814.951 1518.22 L814.951 1526.7 Q815.97 1526.35 816.988 1526.19 Q818.007 1526 819.025 1526 Q824.812 1526 828.192 1529.17 Q831.571 1532.34 831.571 1537.76 Q831.571 1543.34 828.099 1546.44 Q824.627 1549.52 818.308 1549.52 Q816.132 1549.52 813.863 1549.15 Q811.618 1548.78 809.21 1548.04 L809.21 1543.34 Q811.294 1544.47 813.516 1545.03 Q815.738 1545.58 818.215 1545.58 Q822.22 1545.58 824.558 1543.48 Q826.895 1541.37 826.895 1537.76 Q826.895 1534.15 824.558 1532.04 Q822.22 1529.94 818.215 1529.94 Q816.34 1529.94 814.465 1530.35 Q812.613 1530.77 810.669 1531.65 L810.669 1514.29 Z" fill="#000000" fill-rule="nonzero" fill-opacity="1" /><path clip-path="url(#clip600)" d="M1116.73 1517.37 Q1113.12 1517.37 1111.29 1520.93 Q1109.49 1524.47 1109.49 1531.6 Q1109.49 1538.71 1111.29 1542.27 Q1113.12 1545.82 1116.73 1545.82 Q1120.37 1545.82 1122.17 1542.27 Q1124 1538.71 1124 1531.6 Q1124 1524.47 1122.17 1520.93 Q1120.37 1517.37 1116.73 1517.37 M1116.73 1513.66 Q1122.54 1513.66 1125.6 1518.27 Q1128.68 1522.85 1128.68 1531.6 Q1128.68 1540.33 1125.6 1544.94 Q1122.54 1549.52 1116.73 1549.52 Q1110.92 1549.52 1107.84 1544.94 Q1104.79 1540.33 1104.79 1531.6 Q1104.79 1522.85 1107.84 1518.27 Q1110.92 1513.66 1116.73 1513.66 Z" fill="#000000" fill-rule="nonzero" fill-opacity="1" /><path clip-path="url(#clip600)" d="M1136.9 1542.97 L1141.78 1542.97 L1141.78 1548.85 L1136.9 1548.85 L1136.9 1542.97 Z" fill="#000000" fill-rule="nonzero" fill-opacity="1" /><path clip-path="url(#clip600)" d="M1161.96 1517.37 Q1158.35 1517.37 1156.52 1520.93 Q1154.72 1524.47 1154.72 1531.6 Q1154.72 1538.71 1156.52 1542.27 Q1158.35 1545.82 1161.96 1545.82 Q1165.6 1545.82 1167.4 1542.27 Q1169.23 1538.71 1169.23 1531.6 Q1169.23 1524.47 1167.4 1520.93 Q1165.6 1517.37 1161.96 1517.37 M1161.96 1513.66 Q1167.77 1513.66 1170.83 1518.27 Q1173.91 1522.85 1173.91 1531.6 Q1173.91 1540.33 1170.83 1544.94 Q1167.77 1549.52 1161.96 1549.52 Q1156.15 1549.52 1153.08 1544.94 Q1150.02 1540.33 1150.02 1531.6 Q1150.02 1522.85 1153.08 1518.27 Q1156.15 1513.66 1161.96 1513.66 Z" fill="#000000" fill-rule="nonzero" fill-opacity="1" /><path clip-path="url(#clip600)" d="M1477.98 1517.37 Q1474.37 1517.37 1472.54 1520.93 Q1470.74 1524.47 1470.74 1531.6 Q1470.74 1538.71 1472.54 1542.27 Q1474.37 1545.82 1477.98 1545.82 Q1481.62 1545.82 1483.42 1542.27 Q1485.25 1538.71 1485.25 1531.6 Q1485.25 1524.47 1483.42 1520.93 Q1481.62 1517.37 1477.98 1517.37 M1477.98 1513.66 Q1483.79 1513.66 1486.85 1518.27 Q1489.93 1522.85 1489.93 1531.6 Q1489.93 1540.33 1486.85 1544.94 Q1483.79 1549.52 1477.98 1549.52 Q1472.17 1549.52 1469.09 1544.94 Q1466.04 1540.33 1466.04 1531.6 Q1466.04 1522.85 1469.09 1518.27 Q1472.17 1513.66 1477.98 1513.66 Z" fill="#000000" fill-rule="nonzero" fill-opacity="1" /><path clip-path="url(#clip600)" d="M1498.14 1542.97 L1503.03 1542.97 L1503.03 1548.85 L1498.14 1548.85 L1498.14 1542.97 Z" fill="#000000" fill-rule="nonzero" fill-opacity="1" /><path clip-path="url(#clip600)" d="M1513.26 1514.29 L1531.62 1514.29 L1531.62 1518.22 L1517.54 1518.22 L1517.54 1526.7 Q1518.56 1526.35 1519.58 1526.19 Q1520.6 1526 1521.62 1526 Q1527.4 1526 1530.78 1529.17 Q1534.16 1532.34 1534.16 1537.76 Q1534.16 1543.34 1530.69 1546.44 Q1527.22 1549.52 1520.9 1549.52 Q1518.72 1549.52 1516.45 1549.15 Q1514.21 1548.78 1511.8 1548.04 L1511.8 1543.34 Q1513.89 1544.47 1516.11 1545.03 Q1518.33 1545.58 1520.81 1545.58 Q1524.81 1545.58 1527.15 1543.48 Q1529.49 1541.37 1529.49 1537.76 Q1529.49 1534.15 1527.15 1532.04 Q1524.81 1529.94 1520.81 1529.94 Q1518.93 1529.94 1517.06 1530.35 Q1515.2 1530.77 1513.26 1531.65 L1513.26 1514.29 Z" fill="#000000" fill-rule="nonzero" fill-opacity="1" /><path clip-path="url(#clip600)" d="M1828.01 1544.91 L1835.64 1544.91 L1835.64 1518.55 L1827.33 1520.21 L1827.33 1515.95 L1835.6 1514.29 L1840.27 1514.29 L1840.27 1544.91 L1847.91 1544.91 L1847.91 1548.85 L1828.01 1548.85 L1828.01 1544.91 Z" fill="#000000" fill-rule="nonzero" fill-opacity="1" /><path clip-path="url(#clip600)" d="M1857.36 1542.97 L1862.24 1542.97 L1862.24 1548.85 L1857.36 1548.85 L1857.36 1542.97 Z" fill="#000000" fill-rule="nonzero" fill-opacity="1" /><path clip-path="url(#clip600)" d="M1882.43 1517.37 Q1878.82 1517.37 1876.99 1520.93 Q1875.18 1524.47 1875.18 1531.6 Q1875.18 1538.71 1876.99 1542.27 Q1878.82 1545.82 1882.43 1545.82 Q1886.06 1545.82 1887.87 1542.27 Q1889.69 1538.71 1889.69 1531.6 Q1889.69 1524.47 1887.87 1520.93 Q1886.06 1517.37 1882.43 1517.37 M1882.43 1513.66 Q1888.24 1513.66 1891.29 1518.27 Q1894.37 1522.85 1894.37 1531.6 Q1894.37 1540.33 1891.29 1544.94 Q1888.24 1549.52 1882.43 1549.52 Q1876.62 1549.52 1873.54 1544.94 Q1870.48 1540.33 1870.48 1531.6 Q1870.48 1522.85 1873.54 1518.27 Q1876.62 1513.66 1882.43 1513.66 Z" fill="#000000" fill-rule="nonzero" fill-opacity="1" /><path clip-path="url(#clip600)" d="M2189.25 1544.91 L2196.89 1544.91 L2196.89 1518.55 L2188.58 1520.21 L2188.58 1515.95 L2196.85 1514.29 L2201.52 1514.29 L2201.52 1544.91 L2209.16 1544.91 L2209.16 1548.85 L2189.25 1548.85 L2189.25 1544.91 Z" fill="#000000" fill-rule="nonzero" fill-opacity="1" /><path clip-path="url(#clip600)" d="M2218.61 1542.97 L2223.49 1542.97 L2223.49 1548.85 L2218.61 1548.85 L2218.61 1542.97 Z" fill="#000000" fill-rule="nonzero" fill-opacity="1" /><path clip-path="url(#clip600)" d="M2233.72 1514.29 L2252.08 1514.29 L2252.08 1518.22 L2238 1518.22 L2238 1526.7 Q2239.02 1526.35 2240.04 1526.19 Q2241.06 1526 2242.08 1526 Q2247.87 1526 2251.25 1529.17 Q2254.62 1532.34 2254.62 1537.76 Q2254.62 1543.34 2251.15 1546.44 Q2247.68 1549.52 2241.36 1549.52 Q2239.18 1549.52 2236.92 1549.15 Q2234.67 1548.78 2232.26 1548.04 L2232.26 1543.34 Q2234.35 1544.47 2236.57 1545.03 Q2238.79 1545.58 2241.27 1545.58 Q2245.27 1545.58 2247.61 1543.48 Q2249.95 1541.37 2249.95 1537.76 Q2249.95 1534.15 2247.61 1532.04 Q2245.27 1529.94 2241.27 1529.94 Q2239.39 1529.94 2237.52 1530.35 Q2235.67 1530.77 2233.72 1531.65 L2233.72 1514.29 Z" fill="#000000" fill-rule="nonzero" fill-opacity="1" /><polyline clip-path="url(#clip600)" style="stroke:#000000; stroke-linecap:round; stroke-linejoin:round; stroke-width:4; stroke-opacity:1; fill:none" points="147.478,1486.45 147.478,47.2441 "/>
<polyline clip-path="url(#clip600)" style="stroke:#000000; stroke-linecap:round; stroke-linejoin:round; stroke-width:4; stroke-opacity:1; fill:none" points="147.478,1441.66 166.376,1441.66 "/>
<polyline clip-path="url(#clip600)" style="stroke:#000000; stroke-linecap:round; stroke-linejoin:round; stroke-width:4; stroke-opacity:1; fill:none" points="147.478,1098.19 166.376,1098.19 "/>
<polyline clip-path="url(#clip600)" style="stroke:#000000; stroke-linecap:round; stroke-linejoin:round; stroke-width:4; stroke-opacity:1; fill:none" points="147.478,754.726 166.376,754.726 "/>
<polyline clip-path="url(#clip600)" style="stroke:#000000; stroke-linecap:round; stroke-linejoin:round; stroke-width:4; stroke-opacity:1; fill:none" points="147.478,411.259 166.376,411.259 "/>
<polyline clip-path="url(#clip600)" style="stroke:#000000; stroke-linecap:round; stroke-linejoin:round; stroke-width:4; stroke-opacity:1; fill:none" points="147.478,67.7918 166.376,67.7918 "/>
<path clip-path="url(#clip600)" d="M51.3625 1442.11 L81.0383 1442.11 L81.0383 1446.05 L51.3625 1446.05 L51.3625 1442.11 Z" fill="#000000" fill-rule="nonzero" fill-opacity="1" /><path clip-path="url(#clip600)" d="M95.1586 1455 L111.478 1455 L111.478 1458.94 L89.5336 1458.94 L89.5336 1455 Q92.1956 1452.25 96.7789 1447.62 Q101.385 1442.97 102.566 1441.62 Q104.811 1439.1 105.691 1437.37 Q106.594 1435.61 106.594 1433.92 Q106.594 1431.16 104.649 1429.43 Q102.728 1427.69 99.6261 1427.69 Q97.4271 1427.69 94.9734 1428.45 Q92.5428 1429.22 89.7651 1430.77 L89.7651 1426.05 Q92.5891 1424.91 95.0428 1424.33 Q97.4965 1423.75 99.5335 1423.75 Q104.904 1423.75 108.098 1426.44 Q111.293 1429.13 111.293 1433.62 Q111.293 1435.75 110.483 1437.67 Q109.696 1439.56 107.589 1442.16 Q107.01 1442.83 103.909 1446.05 Q100.807 1449.24 95.1586 1455 Z" fill="#000000" fill-rule="nonzero" fill-opacity="1" /><path clip-path="url(#clip600)" d="M50.9921 1098.64 L80.6679 1098.64 L80.6679 1102.58 L50.9921 1102.58 L50.9921 1098.64 Z" fill="#000000" fill-rule="nonzero" fill-opacity="1" /><path clip-path="url(#clip600)" d="M91.5706 1111.54 L99.2095 1111.54 L99.2095 1085.17 L90.8993 1086.84 L90.8993 1082.58 L99.1632 1080.91 L103.839 1080.91 L103.839 1111.54 L111.478 1111.54 L111.478 1115.47 L91.5706 1115.47 L91.5706 1111.54 Z" fill="#000000" fill-rule="nonzero" fill-opacity="1" /><path clip-path="url(#clip600)" d="M99.5335 740.524 Q95.9224 740.524 94.0937 744.089 Q92.2882 747.631 92.2882 754.76 Q92.2882 761.867 94.0937 765.432 Q95.9224 768.973 99.5335 768.973 Q103.168 768.973 104.973 765.432 Q106.802 761.867 106.802 754.76 Q106.802 747.631 104.973 744.089 Q103.168 740.524 99.5335 740.524 M99.5335 736.821 Q105.344 736.821 108.399 741.427 Q111.478 746.011 111.478 754.76 Q111.478 763.487 108.399 768.094 Q105.344 772.677 99.5335 772.677 Q93.7234 772.677 90.6447 768.094 Q87.5892 763.487 87.5892 754.76 Q87.5892 746.011 90.6447 741.427 Q93.7234 736.821 99.5335 736.821 Z" fill="#000000" fill-rule="nonzero" fill-opacity="1" /><path clip-path="url(#clip600)" d="M91.5706 424.604 L99.2095 424.604 L99.2095 398.238 L90.8993 399.905 L90.8993 395.645 L99.1632 393.979 L103.839 393.979 L103.839 424.604 L111.478 424.604 L111.478 428.539 L91.5706 428.539 L91.5706 424.604 Z" fill="#000000" fill-rule="nonzero" fill-opacity="1" /><path clip-path="url(#clip600)" d="M95.1586 81.1367 L111.478 81.1367 L111.478 85.0718 L89.5336 85.0718 L89.5336 81.1367 Q92.1956 78.3821 96.7789 73.7524 Q101.385 69.0997 102.566 67.7571 Q104.811 65.234 105.691 63.4979 Q106.594 61.7386 106.594 60.0488 Q106.594 57.2942 104.649 55.5581 Q102.728 53.822 99.6261 53.822 Q97.4271 53.822 94.9734 54.5859 Q92.5428 55.3498 89.7651 56.9007 L89.7651 52.1785 Q92.5891 51.0442 95.0428 50.4655 Q97.4965 49.8868 99.5335 49.8868 Q104.904 49.8868 108.098 52.572 Q111.293 55.2572 111.293 59.7479 Q111.293 61.8775 110.483 63.7988 Q109.696 65.6969 107.589 68.2895 Q107.01 68.9608 103.909 72.1784 Q100.807 75.3728 95.1586 81.1367 Z" fill="#000000" fill-rule="nonzero" fill-opacity="1" /><circle clip-path="url(#clip602)" cx="1283.26" cy="1083.24" r="14.4" fill="#009af9" fill-rule="evenodd" fill-opacity="0.5" stroke="#000000" stroke-opacity="0.5" stroke-width="3.2"/>
<circle clip-path="url(#clip602)" cx="1049.86" cy="1065.29" r="14.4" fill="#009af9" fill-rule="evenodd" fill-opacity="0.5" stroke="#000000" stroke-opacity="0.5" stroke-width="3.2"/>
<circle clip-path="url(#clip602)" cx="2005.02" cy="800.3" r="14.4" fill="#009af9" fill-rule="evenodd" fill-opacity="0.5" stroke="#000000" stroke-opacity="0.5" stroke-width="3.2"/>
<circle clip-path="url(#clip602)" cx="802.609" cy="990.918" r="14.4" fill="#009af9" fill-rule="evenodd" fill-opacity="0.5" stroke="#000000" stroke-opacity="0.5" stroke-width="3.2"/>
<circle clip-path="url(#clip602)" cx="880.992" cy="1331.64" r="14.4" fill="#009af9" fill-rule="evenodd" fill-opacity="0.5" stroke="#000000" stroke-opacity="0.5" stroke-width="3.2"/>
<circle clip-path="url(#clip602)" cx="921.032" cy="627.837" r="14.4" fill="#009af9" fill-rule="evenodd" fill-opacity="0.5" stroke="#000000" stroke-opacity="0.5" stroke-width="3.2"/>
<circle clip-path="url(#clip602)" cx="1141.11" cy="666.19" r="14.4" fill="#009af9" fill-rule="evenodd" fill-opacity="0.5" stroke="#000000" stroke-opacity="0.5" stroke-width="3.2"/>
<circle clip-path="url(#clip602)" cx="1689.21" cy="506.762" r="14.4" fill="#009af9" fill-rule="evenodd" fill-opacity="0.5" stroke="#000000" stroke-opacity="0.5" stroke-width="3.2"/>
<circle clip-path="url(#clip602)" cx="458.241" cy="684.93" r="14.4" fill="#009af9" fill-rule="evenodd" fill-opacity="0.5" stroke="#000000" stroke-opacity="0.5" stroke-width="3.2"/>
<circle clip-path="url(#clip602)" cx="1960.2" cy="1328.24" r="14.4" fill="#009af9" fill-rule="evenodd" fill-opacity="0.5" stroke="#000000" stroke-opacity="0.5" stroke-width="3.2"/>
<circle clip-path="url(#clip602)" cx="1072.77" cy="1163.62" r="14.4" fill="#009af9" fill-rule="evenodd" fill-opacity="0.5" stroke="#000000" stroke-opacity="0.5" stroke-width="3.2"/>
<circle clip-path="url(#clip602)" cx="1208.2" cy="1026.53" r="14.4" fill="#009af9" fill-rule="evenodd" fill-opacity="0.5" stroke="#000000" stroke-opacity="0.5" stroke-width="3.2"/>
<circle clip-path="url(#clip602)" cx="2290.34" cy="836.131" r="14.4" fill="#009af9" fill-rule="evenodd" fill-opacity="0.5" stroke="#000000" stroke-opacity="0.5" stroke-width="3.2"/>
<circle clip-path="url(#clip602)" cx="451.338" cy="991.528" r="14.4" fill="#009af9" fill-rule="evenodd" fill-opacity="0.5" stroke="#000000" stroke-opacity="0.5" stroke-width="3.2"/>
<circle clip-path="url(#clip602)" cx="1914.87" cy="980.138" r="14.4" fill="#009af9" fill-rule="evenodd" fill-opacity="0.5" stroke="#000000" stroke-opacity="0.5" stroke-width="3.2"/>
<circle clip-path="url(#clip602)" cx="1392.17" cy="965.314" r="14.4" fill="#009af9" fill-rule="evenodd" fill-opacity="0.5" stroke="#000000" stroke-opacity="0.5" stroke-width="3.2"/>
<circle clip-path="url(#clip602)" cx="957.692" cy="1201.63" r="14.4" fill="#009af9" fill-rule="evenodd" fill-opacity="0.5" stroke="#000000" stroke-opacity="0.5" stroke-width="3.2"/>
<circle clip-path="url(#clip602)" cx="438.516" cy="1445.72" r="14.4" fill="#009af9" fill-rule="evenodd" fill-opacity="0.5" stroke="#000000" stroke-opacity="0.5" stroke-width="3.2"/>
<circle clip-path="url(#clip602)" cx="209.891" cy="1199.61" r="14.4" fill="#009af9" fill-rule="evenodd" fill-opacity="0.5" stroke="#000000" stroke-opacity="0.5" stroke-width="3.2"/>
<circle clip-path="url(#clip602)" cx="1544.76" cy="475.04" r="14.4" fill="#009af9" fill-rule="evenodd" fill-opacity="0.5" stroke="#000000" stroke-opacity="0.5" stroke-width="3.2"/>
<circle clip-path="url(#clip602)" cx="1458.38" cy="87.9763" r="14.4" fill="#009af9" fill-rule="evenodd" fill-opacity="0.5" stroke="#000000" stroke-opacity="0.5" stroke-width="3.2"/>
<circle clip-path="url(#clip602)" cx="524.478" cy="634.311" r="14.4" fill="#009af9" fill-rule="evenodd" fill-opacity="0.5" stroke="#000000" stroke-opacity="0.5" stroke-width="3.2"/>
<circle clip-path="url(#clip602)" cx="1007.39" cy="611.632" r="14.4" fill="#009af9" fill-rule="evenodd" fill-opacity="0.5" stroke="#000000" stroke-opacity="0.5" stroke-width="3.2"/>
<circle clip-path="url(#clip602)" cx="474.947" cy="483.6" r="14.4" fill="#009af9" fill-rule="evenodd" fill-opacity="0.5" stroke="#000000" stroke-opacity="0.5" stroke-width="3.2"/>
<circle clip-path="url(#clip602)" cx="772.209" cy="828.965" r="14.4" fill="#009af9" fill-rule="evenodd" fill-opacity="0.5" stroke="#000000" stroke-opacity="0.5" stroke-width="3.2"/>
<circle clip-path="url(#clip602)" cx="427.58" cy="1221.26" r="14.4" fill="#009af9" fill-rule="evenodd" fill-opacity="0.5" stroke="#000000" stroke-opacity="0.5" stroke-width="3.2"/>
<circle clip-path="url(#clip602)" cx="1607.6" cy="307.725" r="14.4" fill="#009af9" fill-rule="evenodd" fill-opacity="0.5" stroke="#000000" stroke-opacity="0.5" stroke-width="3.2"/>
<circle clip-path="url(#clip602)" cx="730.988" cy="530.851" r="14.4" fill="#009af9" fill-rule="evenodd" fill-opacity="0.5" stroke="#000000" stroke-opacity="0.5" stroke-width="3.2"/>
<circle clip-path="url(#clip602)" cx="1784.35" cy="414.035" r="14.4" fill="#009af9" fill-rule="evenodd" fill-opacity="0.5" stroke="#000000" stroke-opacity="0.5" stroke-width="3.2"/>
<circle clip-path="url(#clip602)" cx="463.699" cy="984.238" r="14.4" fill="#009af9" fill-rule="evenodd" fill-opacity="0.5" stroke="#000000" stroke-opacity="0.5" stroke-width="3.2"/>
<path clip-path="url(#clip602)" d="M209.891 1199.61 L438.516 1445.72 L1960.2 1328.24 L2290.34 836.131 L1458.38 87.9763 L474.947 483.6 L209.891 1199.61 L209.891 1199.61  Z" fill="#e26f46" fill-rule="evenodd" fill-opacity="0.2"/>
<polyline clip-path="url(#clip602)" style="stroke:#000000; stroke-linecap:round; stroke-linejoin:round; stroke-width:4; stroke-opacity:0.2; fill:none" points="209.891,1199.61 438.516,1445.72 1960.2,1328.24 2290.34,836.131 1458.38,87.9763 474.947,483.6 209.891,1199.61 "/>
</svg>
