<?xml version="1.0" encoding="utf-8"?>
<svg xmlns="http://www.w3.org/2000/svg" xmlns:xlink="http://www.w3.org/1999/xlink" width="600" height="400" viewBox="0 0 2400 1600">
<defs>
  <clipPath id="clip470">
    <rect x="0" y="0" width="2400" height="1600"/>
  </clipPath>
</defs>
<path clip-path="url(#clip470)" d="M0 1600 L2400 1600 L2400 0 L0 0  Z" fill="#ffffff" fill-rule="evenodd" fill-opacity="1"/>
<defs>
  <clipPath id="clip471">
    <rect x="480" y="0" width="1681" height="1600"/>
  </clipPath>
</defs>
<path clip-path="url(#clip470)" d="M147.478 1486.45 L2352.76 1486.45 L2352.76 47.2441 L147.478 47.2441  Z" fill="#ffffff" fill-rule="evenodd" fill-opacity="1"/>
<defs>
  <clipPath id="clip472">
    <rect x="147" y="47" width="2206" height="1440"/>
  </clipPath>
</defs>
<polyline clip-path="url(#clip472)" style="stroke:#000000; stroke-linecap:round; stroke-linejoin:round; stroke-width:2; stroke-opacity:0.1; fill:none" points="391.257,1486.45 391.257,47.2441 "/>
<polyline clip-path="url(#clip472)" style="stroke:#000000; stroke-linecap:round; stroke-linejoin:round; stroke-width:2; stroke-opacity:0.1; fill:none" points="854.815,1486.45 854.815,47.2441 "/>
<polyline clip-path="url(#clip472)" style="stroke:#000000; stroke-linecap:round; stroke-linejoin:round; stroke-width:2; stroke-opacity:0.1; fill:none" points="1318.37,1486.45 1318.37,47.2441 "/>
<polyline clip-path="url(#clip472)" style="stroke:#000000; stroke-linecap:round; stroke-linejoin:round; stroke-width:2; stroke-opacity:0.1; fill:none" points="1781.93,1486.45 1781.93,47.2441 "/>
<polyline clip-path="url(#clip472)" style="stroke:#000000; stroke-linecap:round; stroke-linejoin:round; stroke-width:2; stroke-opacity:0.1; fill:none" points="2245.49,1486.45 2245.49,47.2441 "/>
<polyline clip-path="url(#clip472)" style="stroke:#000000; stroke-linecap:round; stroke-linejoin:round; stroke-width:2; stroke-opacity:0.1; fill:none" points="147.478,1216.63 2352.76,1216.63 "/>
<polyline clip-path="url(#clip472)" style="stroke:#000000; stroke-linecap:round; stroke-linejoin:round; stroke-width:2; stroke-opacity:0.1; fill:none" points="147.478,903.601 2352.76,903.601 "/>
<polyline clip-path="url(#clip472)" style="stroke:#000000; stroke-linecap:round; stroke-linejoin:round; stroke-width:2; stroke-opacity:0.1; fill:none" points="147.478,590.572 2352.76,590.572 "/>
<polyline clip-path="url(#clip472)" style="stroke:#000000; stroke-linecap:round; stroke-linejoin:round; stroke-width:2; stroke-opacity:0.1; fill:none" points="147.478,277.543 2352.76,277.543 "/>
<polyline clip-path="url(#clip470)" style="stroke:#000000; stroke-linecap:round; stroke-linejoin:round; stroke-width:4; stroke-opacity:1; fill:none" points="147.478,1486.45 2352.76,1486.45 "/>
<polyline clip-path="url(#clip470)" style="stroke:#000000; stroke-linecap:round; stroke-linejoin:round; stroke-width:4; stroke-opacity:1; fill:none" points="391.257,1486.45 391.257,1467.55 "/>
<polyline clip-path="url(#clip470)" style="stroke:#000000; stroke-linecap:round; stroke-linejoin:round; stroke-width:4; stroke-opacity:1; fill:none" points="854.815,1486.45 854.815,1467.55 "/>
<polyline clip-path="url(#clip470)" style="stroke:#000000; stroke-linecap:round; stroke-linejoin:round; stroke-width:4; stroke-opacity:1; fill:none" points="1318.37,1486.45 1318.37,1467.55 "/>
<polyline clip-path="url(#clip470)" style="stroke:#000000; stroke-linecap:round; stroke-linejoin:round; stroke-width:4; stroke-opacity:1; fill:none" points="1781.93,1486.45 1781.93,1467.55 "/>
<polyline clip-path="url(#clip470)" style="stroke:#000000; stroke-linecap:round; stroke-linejoin:round; stroke-width:4; stroke-opacity:1; fill:none" points="2245.49,1486.45 2245.49,1467.55 "/>
<path clip-path="url(#clip470)" d="M361.199 1532.02 L390.875 1532.02 L390.875 1535.95 L361.199 1535.95 L361.199 1532.02 Z" fill="#000000" fill-rule="nonzero" fill-opacity="1" /><path clip-path="url(#clip470)" d="M404.995 1544.91 L421.315 1544.91 L421.315 1548.85 L399.37 1548.85 L399.37 1544.91 Q402.032 1542.16 406.616 1537.53 Q411.222 1532.88 412.403 1531.53 Q414.648 1529.01 415.528 1527.27 Q416.431 1525.51 416.431 1523.82 Q416.431 1521.07 414.486 1519.33 Q412.565 1517.6 409.463 1517.6 Q407.264 1517.6 404.81 1518.36 Q402.38 1519.13 399.602 1520.68 L399.602 1515.95 Q402.426 1514.82 404.88 1514.24 Q407.333 1513.66 409.37 1513.66 Q414.741 1513.66 417.935 1516.35 Q421.13 1519.03 421.13 1523.52 Q421.13 1525.65 420.319 1527.57 Q419.532 1529.47 417.426 1532.07 Q416.847 1532.74 413.745 1535.95 Q410.644 1539.15 404.995 1544.91 Z" fill="#000000" fill-rule="nonzero" fill-opacity="1" /><path clip-path="url(#clip470)" d="M824.572 1532.02 L854.248 1532.02 L854.248 1535.95 L824.572 1535.95 L824.572 1532.02 Z" fill="#000000" fill-rule="nonzero" fill-opacity="1" /><path clip-path="url(#clip470)" d="M865.15 1544.91 L872.789 1544.91 L872.789 1518.55 L864.479 1520.21 L864.479 1515.95 L872.743 1514.29 L877.419 1514.29 L877.419 1544.91 L885.058 1544.91 L885.058 1548.85 L865.15 1548.85 L865.15 1544.91 Z" fill="#000000" fill-rule="nonzero" fill-opacity="1" /><path clip-path="url(#clip470)" d="M1318.37 1517.37 Q1314.76 1517.37 1312.93 1520.93 Q1311.13 1524.47 1311.13 1531.6 Q1311.13 1538.71 1312.93 1542.27 Q1314.76 1545.82 1318.37 1545.82 Q1322.01 1545.82 1323.81 1542.27 Q1325.64 1538.71 1325.64 1531.6 Q1325.64 1524.47 1323.81 1520.93 Q1322.01 1517.37 1318.37 1517.37 M1318.37 1513.66 Q1324.18 1513.66 1327.24 1518.27 Q1330.32 1522.85 1330.32 1531.6 Q1330.32 1540.33 1327.24 1544.94 Q1324.18 1549.52 1318.37 1549.52 Q1312.56 1549.52 1309.48 1544.94 Q1306.43 1540.33 1306.43 1531.6 Q1306.43 1522.85 1309.48 1518.27 Q1312.56 1513.66 1318.37 1513.66 Z" fill="#000000" fill-rule="nonzero" fill-opacity="1" /><path clip-path="url(#clip470)" d="M1772.31 1544.91 L1779.95 1544.91 L1779.95 1518.55 L1771.64 1520.21 L1771.64 1515.95 L1779.9 1514.29 L1784.58 1514.29 L1784.58 1544.91 L1792.22 1544.91 L1792.22 1548.85 L1772.31 1548.85 L1772.31 1544.91 Z" fill="#000000" fill-rule="nonzero" fill-opacity="1" /><path clip-path="url(#clip470)" d="M2240.14 1544.91 L2256.46 1544.91 L2256.46 1548.85 L2234.52 1548.85 L2234.52 1544.91 Q2237.18 1542.16 2241.76 1537.53 Q2246.37 1532.88 2247.55 1531.53 Q2249.79 1529.01 2250.67 1527.27 Q2251.58 1525.51 2251.58 1523.82 Q2251.58 1521.07 2249.63 1519.33 Q2247.71 1517.6 2244.61 1517.6 Q2242.41 1517.6 2239.96 1518.36 Q2237.52 1519.13 2234.75 1520.68 L2234.75 1515.95 Q2237.57 1514.82 2240.02 1514.24 Q2242.48 1513.66 2244.52 1513.66 Q2249.89 1513.66 2253.08 1516.35 Q2256.27 1519.03 2256.27 1523.52 Q2256.27 1525.65 2255.46 1527.57 Q2254.68 1529.47 2252.57 1532.07 Q2251.99 1532.74 2248.89 1535.95 Q2245.79 1539.15 2240.14 1544.91 Z" fill="#000000" fill-rule="nonzero" fill-opacity="1" /><polyline clip-path="url(#clip470)" style="stroke:#000000; stroke-linecap:round; stroke-linejoin:round; stroke-width:4; stroke-opacity:1; fill:none" points="147.478,1486.45 147.478,47.2441 "/>
<polyline clip-path="url(#clip470)" style="stroke:#000000; stroke-linecap:round; stroke-linejoin:round; stroke-width:4; stroke-opacity:1; fill:none" points="147.478,1216.63 166.376,1216.63 "/>
<polyline clip-path="url(#clip470)" style="stroke:#000000; stroke-linecap:round; stroke-linejoin:round; stroke-width:4; stroke-opacity:1; fill:none" points="147.478,903.601 166.376,903.601 "/>
<polyline clip-path="url(#clip470)" style="stroke:#000000; stroke-linecap:round; stroke-linejoin:round; stroke-width:4; stroke-opacity:1; fill:none" points="147.478,590.572 166.376,590.572 "/>
<polyline clip-path="url(#clip470)" style="stroke:#000000; stroke-linecap:round; stroke-linejoin:round; stroke-width:4; stroke-opacity:1; fill:none" points="147.478,277.543 166.376,277.543 "/>
<path clip-path="url(#clip470)" d="M50.9921 1217.08 L80.6679 1217.08 L80.6679 1221.02 L50.9921 1221.02 L50.9921 1217.08 Z" fill="#000000" fill-rule="nonzero" fill-opacity="1" /><path clip-path="url(#clip470)" d="M91.5706 1229.97 L99.2095 1229.97 L99.2095 1203.61 L90.8993 1205.28 L90.8993 1201.02 L99.1632 1199.35 L103.839 1199.35 L103.839 1229.97 L111.478 1229.97 L111.478 1233.91 L91.5706 1233.91 L91.5706 1229.97 Z" fill="#000000" fill-rule="nonzero" fill-opacity="1" /><path clip-path="url(#clip470)" d="M99.5335 889.399 Q95.9224 889.399 94.0937 892.964 Q92.2882 896.506 92.2882 903.635 Q92.2882 910.742 94.0937 914.307 Q95.9224 917.848 99.5335 917.848 Q103.168 917.848 104.973 914.307 Q106.802 910.742 106.802 903.635 Q106.802 896.506 104.973 892.964 Q103.168 889.399 99.5335 889.399 M99.5335 885.696 Q105.344 885.696 108.399 890.302 Q111.478 894.885 111.478 903.635 Q111.478 912.362 108.399 916.969 Q105.344 921.552 99.5335 921.552 Q93.7234 921.552 90.6447 916.969 Q87.5892 912.362 87.5892 903.635 Q87.5892 894.885 90.6447 890.302 Q93.7234 885.696 99.5335 885.696 Z" fill="#000000" fill-rule="nonzero" fill-opacity="1" /><path clip-path="url(#clip470)" d="M91.5706 603.917 L99.2095 603.917 L99.2095 577.551 L90.8993 579.218 L90.8993 574.958 L99.1632 573.292 L103.839 573.292 L103.839 603.917 L111.478 603.917 L111.478 607.852 L91.5706 607.852 L91.5706 603.917 Z" fill="#000000" fill-rule="nonzero" fill-opacity="1" /><path clip-path="url(#clip470)" d="M95.1586 290.888 L111.478 290.888 L111.478 294.823 L89.5336 294.823 L89.5336 290.888 Q92.1956 288.133 96.7789 283.504 Q101.385 278.851 102.566 277.508 Q104.811 274.985 105.691 273.249 Q106.594 271.49 106.594 269.8 Q106.594 267.045 104.649 265.309 Q102.728 263.573 99.6261 263.573 Q97.4271 263.573 94.9734 264.337 Q92.5428 265.101 89.7651 266.652 L89.7651 261.93 Q92.5891 260.795 95.0428 260.217 Q97.4965 259.638 99.5335 259.638 Q104.904 259.638 108.098 262.323 Q111.293 265.008 111.293 269.499 Q111.293 271.629 110.483 273.55 Q109.696 275.448 107.589 278.041 Q107.01 278.712 103.909 281.93 Q100.807 285.124 95.1586 290.888 Z" fill="#000000" fill-rule="nonzero" fill-opacity="1" /><circle clip-path="url(#clip472)" cx="209.891" cy="643.681" r="14.4" fill="#009af9" fill-rule="evenodd" fill-opacity="0.5" stroke="#000000" stroke-opacity="0.5" stroke-width="3.2"/>
<circle clip-path="url(#clip472)" cx="1295.8" cy="87.9763" r="14.4" fill="#009af9" fill-rule="evenodd" fill-opacity="0.5" stroke="#000000" stroke-opacity="0.5" stroke-width="3.2"/>
<circle clip-path="url(#clip472)" cx="854.927" cy="916.288" r="14.4" fill="#009af9" fill-rule="evenodd" fill-opacity="0.5" stroke="#000000" stroke-opacity="0.5" stroke-width="3.2"/>
<circle clip-path="url(#clip472)" cx="1570.36" cy="482.879" r="14.4" fill="#009af9" fill-rule="evenodd" fill-opacity="0.5" stroke="#000000" stroke-opacity="0.5" stroke-width="3.2"/>
<circle clip-path="url(#clip472)" cx="1089.98" cy="679.515" r="14.4" fill="#009af9" fill-rule="evenodd" fill-opacity="0.5" stroke="#000000" stroke-opacity="0.5" stroke-width="3.2"/>
<circle clip-path="url(#clip472)" cx="1398.26" cy="576.218" r="14.4" fill="#009af9" fill-rule="evenodd" fill-opacity="0.5" stroke="#000000" stroke-opacity="0.5" stroke-width="3.2"/>
<circle clip-path="url(#clip472)" cx="413.771" cy="1222.97" r="14.4" fill="#009af9" fill-rule="evenodd" fill-opacity="0.5" stroke="#000000" stroke-opacity="0.5" stroke-width="3.2"/>
<circle clip-path="url(#clip472)" cx="865.222" cy="1370.59" r="14.4" fill="#009af9" fill-rule="evenodd" fill-opacity="0.5" stroke="#000000" stroke-opacity="0.5" stroke-width="3.2"/>
<circle clip-path="url(#clip472)" cx="1210.22" cy="1017.49" r="14.4" fill="#009af9" fill-rule="evenodd" fill-opacity="0.5" stroke="#000000" stroke-opacity="0.5" stroke-width="3.2"/>
<circle clip-path="url(#clip472)" cx="1505.79" cy="634.25" r="14.4" fill="#009af9" fill-rule="evenodd" fill-opacity="0.5" stroke="#000000" stroke-opacity="0.5" stroke-width="3.2"/>
<circle clip-path="url(#clip472)" cx="871.152" cy="647.307" r="14.4" fill="#009af9" fill-rule="evenodd" fill-opacity="0.5" stroke="#000000" stroke-opacity="0.5" stroke-width="3.2"/>
<circle clip-path="url(#clip472)" cx="1630.12" cy="963.357" r="14.4" fill="#009af9" fill-rule="evenodd" fill-opacity="0.5" stroke="#000000" stroke-opacity="0.5" stroke-width="3.2"/>
<circle clip-path="url(#clip472)" cx="1535.28" cy="911.269" r="14.4" fill="#009af9" fill-rule="evenodd" fill-opacity="0.5" stroke="#000000" stroke-opacity="0.5" stroke-width="3.2"/>
<circle clip-path="url(#clip472)" cx="1362.39" cy="799.601" r="14.4" fill="#009af9" fill-rule="evenodd" fill-opacity="0.5" stroke="#000000" stroke-opacity="0.5" stroke-width="3.2"/>
<circle clip-path="url(#clip472)" cx="1232.18" cy="1018.81" r="14.4" fill="#009af9" fill-rule="evenodd" fill-opacity="0.5" stroke="#000000" stroke-opacity="0.5" stroke-width="3.2"/>
<circle clip-path="url(#clip472)" cx="2144.92" cy="528.555" r="14.4" fill="#009af9" fill-rule="evenodd" fill-opacity="0.5" stroke="#000000" stroke-opacity="0.5" stroke-width="3.2"/>
<circle clip-path="url(#clip472)" cx="1239.06" cy="1055.73" r="14.4" fill="#009af9" fill-rule="evenodd" fill-opacity="0.5" stroke="#000000" stroke-opacity="0.5" stroke-width="3.2"/>
<circle clip-path="url(#clip472)" cx="1478.23" cy="905.101" r="14.4" fill="#009af9" fill-rule="evenodd" fill-opacity="0.5" stroke="#000000" stroke-opacity="0.5" stroke-width="3.2"/>
<circle clip-path="url(#clip472)" cx="1871.65" cy="1035.07" r="14.4" fill="#009af9" fill-rule="evenodd" fill-opacity="0.5" stroke="#000000" stroke-opacity="0.5" stroke-width="3.2"/>
<circle clip-path="url(#clip472)" cx="904.47" cy="792.405" r="14.4" fill="#009af9" fill-rule="evenodd" fill-opacity="0.5" stroke="#000000" stroke-opacity="0.5" stroke-width="3.2"/>
<circle clip-path="url(#clip472)" cx="1859.76" cy="1445.72" r="14.4" fill="#009af9" fill-rule="evenodd" fill-opacity="0.5" stroke="#000000" stroke-opacity="0.5" stroke-width="3.2"/>
<circle clip-path="url(#clip472)" cx="1410.83" cy="1046.33" r="14.4" fill="#009af9" fill-rule="evenodd" fill-opacity="0.5" stroke="#000000" stroke-opacity="0.5" stroke-width="3.2"/>
<circle clip-path="url(#clip472)" cx="2290.34" cy="725.817" r="14.4" fill="#009af9" fill-rule="evenodd" fill-opacity="0.5" stroke="#000000" stroke-opacity="0.5" stroke-width="3.2"/>
<circle clip-path="url(#clip472)" cx="1145.8" cy="921.719" r="14.4" fill="#009af9" fill-rule="evenodd" fill-opacity="0.5" stroke="#000000" stroke-opacity="0.5" stroke-width="3.2"/>
<circle clip-path="url(#clip472)" cx="1423.98" cy="429.071" r="14.4" fill="#009af9" fill-rule="evenodd" fill-opacity="0.5" stroke="#000000" stroke-opacity="0.5" stroke-width="3.2"/>
<circle clip-path="url(#clip472)" cx="331.136" cy="720.053" r="14.4" fill="#009af9" fill-rule="evenodd" fill-opacity="0.5" stroke="#000000" stroke-opacity="0.5" stroke-width="3.2"/>
<circle clip-path="url(#clip472)" cx="1074.67" cy="619.858" r="14.4" fill="#009af9" fill-rule="evenodd" fill-opacity="0.5" stroke="#000000" stroke-opacity="0.5" stroke-width="3.2"/>
<circle clip-path="url(#clip472)" cx="1179.7" cy="815.587" r="14.4" fill="#009af9" fill-rule="evenodd" fill-opacity="0.5" stroke="#000000" stroke-opacity="0.5" stroke-width="3.2"/>
<circle clip-path="url(#clip472)" cx="1431.46" cy="611.877" r="14.4" fill="#009af9" fill-rule="evenodd" fill-opacity="0.5" stroke="#000000" stroke-opacity="0.5" stroke-width="3.2"/>
<circle clip-path="url(#clip472)" cx="1168.52" cy="629.869" r="14.4" fill="#009af9" fill-rule="evenodd" fill-opacity="0.5" stroke="#000000" stroke-opacity="0.5" stroke-width="3.2"/>
<path clip-path="url(#clip472)" d="M209.891 643.681 L413.771 1222.97 L865.222 1370.59 L1859.76 1445.72 L2290.34 725.817 L2144.92 528.555 L1295.8 87.9763 L209.891 643.681 L209.891 643.681  Z" fill="#e26f46" fill-rule="evenodd" fill-opacity="0.2"/>
<polyline clip-path="url(#clip472)" style="stroke:#000000; stroke-linecap:round; stroke-linejoin:round; stroke-width:4; stroke-opacity:0.2; fill:none" points="209.891,643.681 413.771,1222.97 865.222,1370.59 1859.76,1445.72 2290.34,725.817 2144.92,528.555 1295.8,87.9763 209.891,643.681 "/>
</svg>
