<?xml version="1.0" encoding="utf-8"?>
<svg xmlns="http://www.w3.org/2000/svg" xmlns:xlink="http://www.w3.org/1999/xlink" width="600" height="400" viewBox="0 0 2400 1600">
<defs>
  <clipPath id="clip450">
    <rect x="0" y="0" width="2400" height="1600"/>
  </clipPath>
</defs>
<path clip-path="url(#clip450)" d="M0 1600 L2400 1600 L2400 0 L0 0  Z" fill="#ffffff" fill-rule="evenodd" fill-opacity="1"/>
<defs>
  <clipPath id="clip451">
    <rect x="480" y="0" width="1681" height="1600"/>
  </clipPath>
</defs>
<path clip-path="url(#clip450)" d="M147.478 1486.45 L2352.76 1486.45 L2352.76 47.2441 L147.478 47.2441  Z" fill="#ffffff" fill-rule="evenodd" fill-opacity="1"/>
<defs>
  <clipPath id="clip452">
    <rect x="147" y="47" width="2206" height="1440"/>
  </clipPath>
</defs>
<polyline clip-path="url(#clip452)" style="stroke:#000000; stroke-linecap:round; stroke-linejoin:round; stroke-width:2; stroke-opacity:0.1; fill:none" points="323.054,1486.45 323.054,47.2441 "/>
<polyline clip-path="url(#clip452)" style="stroke:#000000; stroke-linecap:round; stroke-linejoin:round; stroke-width:2; stroke-opacity:0.1; fill:none" points="859.174,1486.45 859.174,47.2441 "/>
<polyline clip-path="url(#clip452)" style="stroke:#000000; stroke-linecap:round; stroke-linejoin:round; stroke-width:2; stroke-opacity:0.1; fill:none" points="1395.29,1486.45 1395.29,47.2441 "/>
<polyline clip-path="url(#clip452)" style="stroke:#000000; stroke-linecap:round; stroke-linejoin:round; stroke-width:2; stroke-opacity:0.1; fill:none" points="1931.41,1486.45 1931.41,47.2441 "/>
<polyline clip-path="url(#clip452)" style="stroke:#000000; stroke-linecap:round; stroke-linejoin:round; stroke-width:2; stroke-opacity:0.1; fill:none" points="147.478,1382.45 2352.76,1382.45 "/>
<polyline clip-path="url(#clip452)" style="stroke:#000000; stroke-linecap:round; stroke-linejoin:round; stroke-width:2; stroke-opacity:0.1; fill:none" points="147.478,1064.36 2352.76,1064.36 "/>
<polyline clip-path="url(#clip452)" style="stroke:#000000; stroke-linecap:round; stroke-linejoin:round; stroke-width:2; stroke-opacity:0.1; fill:none" points="147.478,746.26 2352.76,746.26 "/>
<polyline clip-path="url(#clip452)" style="stroke:#000000; stroke-linecap:round; stroke-linejoin:round; stroke-width:2; stroke-opacity:0.1; fill:none" points="147.478,428.163 2352.76,428.163 "/>
<polyline clip-path="url(#clip452)" style="stroke:#000000; stroke-linecap:round; stroke-linejoin:round; stroke-width:2; stroke-opacity:0.1; fill:none" points="147.478,110.067 2352.76,110.067 "/>
<polyline clip-path="url(#clip450)" style="stroke:#000000; stroke-linecap:round; stroke-linejoin:round; stroke-width:4; stroke-opacity:1; fill:none" points="147.478,1486.45 2352.76,1486.45 "/>
<polyline clip-path="url(#clip450)" style="stroke:#000000; stroke-linecap:round; stroke-linejoin:round; stroke-width:4; stroke-opacity:1; fill:none" points="323.054,1486.45 323.054,1467.55 "/>
<polyline clip-path="url(#clip450)" style="stroke:#000000; stroke-linecap:round; stroke-linejoin:round; stroke-width:4; stroke-opacity:1; fill:none" points="859.174,1486.45 859.174,1467.55 "/>
<polyline clip-path="url(#clip450)" style="stroke:#000000; stroke-linecap:round; stroke-linejoin:round; stroke-width:4; stroke-opacity:1; fill:none" points="1395.29,1486.45 1395.29,1467.55 "/>
<polyline clip-path="url(#clip450)" style="stroke:#000000; stroke-linecap:round; stroke-linejoin:round; stroke-width:4; stroke-opacity:1; fill:none" points="1931.41,1486.45 1931.41,1467.55 "/>
<path clip-path="url(#clip450)" d="M292.997 1532.02 L322.672 1532.02 L322.672 1535.95 L292.997 1535.95 L292.997 1532.02 Z" fill="#000000" fill-rule="nonzero" fill-opacity="1" /><path clip-path="url(#clip450)" d="M336.793 1544.91 L353.112 1544.91 L353.112 1548.85 L331.168 1548.85 L331.168 1544.91 Q333.83 1542.16 338.413 1537.53 Q343.019 1532.88 344.2 1531.53 Q346.445 1529.01 347.325 1527.27 Q348.228 1525.51 348.228 1523.82 Q348.228 1521.07 346.283 1519.33 Q344.362 1517.6 341.26 1517.6 Q339.061 1517.6 336.607 1518.36 Q334.177 1519.13 331.399 1520.68 L331.399 1515.95 Q334.223 1514.82 336.677 1514.24 Q339.131 1513.66 341.168 1513.66 Q346.538 1513.66 349.732 1516.35 Q352.927 1519.03 352.927 1523.52 Q352.927 1525.65 352.117 1527.57 Q351.33 1529.47 349.223 1532.07 Q348.644 1532.74 345.543 1535.95 Q342.441 1539.15 336.793 1544.91 Z" fill="#000000" fill-rule="nonzero" fill-opacity="1" /><path clip-path="url(#clip450)" d="M828.931 1532.02 L858.607 1532.02 L858.607 1535.95 L828.931 1535.95 L828.931 1532.02 Z" fill="#000000" fill-rule="nonzero" fill-opacity="1" /><path clip-path="url(#clip450)" d="M869.51 1544.91 L877.149 1544.91 L877.149 1518.55 L868.839 1520.21 L868.839 1515.95 L877.102 1514.29 L881.778 1514.29 L881.778 1544.91 L889.417 1544.91 L889.417 1548.85 L869.51 1548.85 L869.51 1544.91 Z" fill="#000000" fill-rule="nonzero" fill-opacity="1" /><path clip-path="url(#clip450)" d="M1395.29 1517.37 Q1391.68 1517.37 1389.85 1520.93 Q1388.05 1524.47 1388.05 1531.6 Q1388.05 1538.71 1389.85 1542.27 Q1391.68 1545.82 1395.29 1545.82 Q1398.93 1545.82 1400.73 1542.27 Q1402.56 1538.71 1402.56 1531.6 Q1402.56 1524.47 1400.73 1520.93 Q1398.93 1517.37 1395.29 1517.37 M1395.29 1513.66 Q1401.1 1513.66 1404.16 1518.27 Q1407.24 1522.85 1407.24 1531.6 Q1407.24 1540.33 1404.16 1544.94 Q1401.1 1549.52 1395.29 1549.52 Q1389.48 1549.52 1386.41 1544.94 Q1383.35 1540.33 1383.35 1531.6 Q1383.35 1522.85 1386.41 1518.27 Q1389.48 1513.66 1395.29 1513.66 Z" fill="#000000" fill-rule="nonzero" fill-opacity="1" /><path clip-path="url(#clip450)" d="M1921.8 1544.91 L1929.44 1544.91 L1929.44 1518.55 L1921.13 1520.21 L1921.13 1515.95 L1929.39 1514.29 L1934.06 1514.29 L1934.06 1544.91 L1941.7 1544.91 L1941.7 1548.85 L1921.8 1548.85 L1921.8 1544.91 Z" fill="#000000" fill-rule="nonzero" fill-opacity="1" /><polyline clip-path="url(#clip450)" style="stroke:#000000; stroke-linecap:round; stroke-linejoin:round; stroke-width:4; stroke-opacity:1; fill:none" points="147.478,1486.45 147.478,47.2441 "/>
<polyline clip-path="url(#clip450)" style="stroke:#000000; stroke-linecap:round; stroke-linejoin:round; stroke-width:4; stroke-opacity:1; fill:none" points="147.478,1382.45 166.376,1382.45 "/>
<polyline clip-path="url(#clip450)" style="stroke:#000000; stroke-linecap:round; stroke-linejoin:round; stroke-width:4; stroke-opacity:1; fill:none" points="147.478,1064.36 166.376,1064.36 "/>
<polyline clip-path="url(#clip450)" style="stroke:#000000; stroke-linecap:round; stroke-linejoin:round; stroke-width:4; stroke-opacity:1; fill:none" points="147.478,746.26 166.376,746.26 "/>
<polyline clip-path="url(#clip450)" style="stroke:#000000; stroke-linecap:round; stroke-linejoin:round; stroke-width:4; stroke-opacity:1; fill:none" points="147.478,428.163 166.376,428.163 "/>
<polyline clip-path="url(#clip450)" style="stroke:#000000; stroke-linecap:round; stroke-linejoin:round; stroke-width:4; stroke-opacity:1; fill:none" points="147.478,110.067 166.376,110.067 "/>
<path clip-path="url(#clip450)" d="M51.3625 1382.9 L81.0383 1382.9 L81.0383 1386.84 L51.3625 1386.84 L51.3625 1382.9 Z" fill="#000000" fill-rule="nonzero" fill-opacity="1" /><path clip-path="url(#clip450)" d="M95.1586 1395.8 L111.478 1395.8 L111.478 1399.73 L89.5336 1399.73 L89.5336 1395.8 Q92.1956 1393.04 96.7789 1388.41 Q101.385 1383.76 102.566 1382.42 Q104.811 1379.89 105.691 1378.16 Q106.594 1376.4 106.594 1374.71 Q106.594 1371.95 104.649 1370.22 Q102.728 1368.48 99.6261 1368.48 Q97.4271 1368.48 94.9734 1369.25 Q92.5428 1370.01 89.7651 1371.56 L89.7651 1366.84 Q92.5891 1365.71 95.0428 1365.13 Q97.4965 1364.55 99.5335 1364.55 Q104.904 1364.55 108.098 1367.23 Q111.293 1369.92 111.293 1374.41 Q111.293 1376.54 110.483 1378.46 Q109.696 1380.36 107.589 1382.95 Q107.01 1383.62 103.909 1386.84 Q100.807 1390.03 95.1586 1395.8 Z" fill="#000000" fill-rule="nonzero" fill-opacity="1" /><path clip-path="url(#clip450)" d="M50.9921 1064.81 L80.6679 1064.81 L80.6679 1068.74 L50.9921 1068.74 L50.9921 1064.81 Z" fill="#000000" fill-rule="nonzero" fill-opacity="1" /><path clip-path="url(#clip450)" d="M91.5706 1077.7 L99.2095 1077.7 L99.2095 1051.34 L90.8993 1053 L90.8993 1048.74 L99.1632 1047.08 L103.839 1047.08 L103.839 1077.7 L111.478 1077.7 L111.478 1081.64 L91.5706 1081.64 L91.5706 1077.7 Z" fill="#000000" fill-rule="nonzero" fill-opacity="1" /><path clip-path="url(#clip450)" d="M99.5335 732.058 Q95.9224 732.058 94.0937 735.623 Q92.2882 739.165 92.2882 746.294 Q92.2882 753.401 94.0937 756.966 Q95.9224 760.507 99.5335 760.507 Q103.168 760.507 104.973 756.966 Q106.802 753.401 106.802 746.294 Q106.802 739.165 104.973 735.623 Q103.168 732.058 99.5335 732.058 M99.5335 728.355 Q105.344 728.355 108.399 732.961 Q111.478 737.545 111.478 746.294 Q111.478 755.021 108.399 759.628 Q105.344 764.211 99.5335 764.211 Q93.7234 764.211 90.6447 759.628 Q87.5892 755.021 87.5892 746.294 Q87.5892 737.545 90.6447 732.961 Q93.7234 728.355 99.5335 728.355 Z" fill="#000000" fill-rule="nonzero" fill-opacity="1" /><path clip-path="url(#clip450)" d="M91.5706 441.508 L99.2095 441.508 L99.2095 415.143 L90.8993 416.809 L90.8993 412.55 L99.1632 410.883 L103.839 410.883 L103.839 441.508 L111.478 441.508 L111.478 445.443 L91.5706 445.443 L91.5706 441.508 Z" fill="#000000" fill-rule="nonzero" fill-opacity="1" /><path clip-path="url(#clip450)" d="M95.1586 123.412 L111.478 123.412 L111.478 127.347 L89.5336 127.347 L89.5336 123.412 Q92.1956 120.657 96.7789 116.028 Q101.385 111.375 102.566 110.032 Q104.811 107.509 105.691 105.773 Q106.594 104.014 106.594 102.324 Q106.594 99.5693 104.649 97.8332 Q102.728 96.0971 99.6261 96.0971 Q97.4271 96.0971 94.9734 96.861 Q92.5428 97.6248 89.7651 99.1758 L89.7651 94.4536 Q92.5891 93.3193 95.0428 92.7406 Q97.4965 92.1619 99.5335 92.1619 Q104.904 92.1619 108.098 94.8471 Q111.293 97.5323 111.293 102.023 Q111.293 104.153 110.483 106.074 Q109.696 107.972 107.589 110.565 Q107.01 111.236 103.909 114.453 Q100.807 117.648 95.1586 123.412 Z" fill="#000000" fill-rule="nonzero" fill-opacity="1" /><circle clip-path="url(#clip452)" cx="1473.24" cy="212.334" r="14.4" fill="#009af9" fill-rule="evenodd" fill-opacity="0.5" stroke="#000000" stroke-opacity="0.5" stroke-width="3.2"/>
<circle clip-path="url(#clip452)" cx="1470.43" cy="1438.92" r="14.4" fill="#009af9" fill-rule="evenodd" fill-opacity="0.5" stroke="#000000" stroke-opacity="0.5" stroke-width="3.2"/>
<circle clip-path="url(#clip452)" cx="1662.79" cy="852.6" r="14.4" fill="#009af9" fill-rule="evenodd" fill-opacity="0.5" stroke="#000000" stroke-opacity="0.5" stroke-width="3.2"/>
<circle clip-path="url(#clip452)" cx="882.524" cy="1064.77" r="14.4" fill="#009af9" fill-rule="evenodd" fill-opacity="0.5" stroke="#000000" stroke-opacity="0.5" stroke-width="3.2"/>
<circle clip-path="url(#clip452)" cx="1253.75" cy="606.278" r="14.4" fill="#009af9" fill-rule="evenodd" fill-opacity="0.5" stroke="#000000" stroke-opacity="0.5" stroke-width="3.2"/>
<circle clip-path="url(#clip452)" cx="1690.89" cy="636.427" r="14.4" fill="#009af9" fill-rule="evenodd" fill-opacity="0.5" stroke="#000000" stroke-opacity="0.5" stroke-width="3.2"/>
<circle clip-path="url(#clip452)" cx="1195.07" cy="513.723" r="14.4" fill="#009af9" fill-rule="evenodd" fill-opacity="0.5" stroke="#000000" stroke-opacity="0.5" stroke-width="3.2"/>
<circle clip-path="url(#clip452)" cx="354.547" cy="1078.53" r="14.4" fill="#009af9" fill-rule="evenodd" fill-opacity="0.5" stroke="#000000" stroke-opacity="0.5" stroke-width="3.2"/>
<circle clip-path="url(#clip452)" cx="333.385" cy="468.034" r="14.4" fill="#009af9" fill-rule="evenodd" fill-opacity="0.5" stroke="#000000" stroke-opacity="0.5" stroke-width="3.2"/>
<circle clip-path="url(#clip452)" cx="1882.55" cy="955.115" r="14.4" fill="#009af9" fill-rule="evenodd" fill-opacity="0.5" stroke="#000000" stroke-opacity="0.5" stroke-width="3.2"/>
<circle clip-path="url(#clip452)" cx="1204.37" cy="445.915" r="14.4" fill="#009af9" fill-rule="evenodd" fill-opacity="0.5" stroke="#000000" stroke-opacity="0.5" stroke-width="3.2"/>
<circle clip-path="url(#clip452)" cx="720.062" cy="686.173" r="14.4" fill="#009af9" fill-rule="evenodd" fill-opacity="0.5" stroke="#000000" stroke-opacity="0.5" stroke-width="3.2"/>
<circle clip-path="url(#clip452)" cx="577.167" cy="1129.33" r="14.4" fill="#009af9" fill-rule="evenodd" fill-opacity="0.5" stroke="#000000" stroke-opacity="0.5" stroke-width="3.2"/>
<circle clip-path="url(#clip452)" cx="717.668" cy="960.11" r="14.4" fill="#009af9" fill-rule="evenodd" fill-opacity="0.5" stroke="#000000" stroke-opacity="0.5" stroke-width="3.2"/>
<circle clip-path="url(#clip452)" cx="1355.93" cy="788.441" r="14.4" fill="#009af9" fill-rule="evenodd" fill-opacity="0.5" stroke="#000000" stroke-opacity="0.5" stroke-width="3.2"/>
<circle clip-path="url(#clip452)" cx="793.684" cy="974.247" r="14.4" fill="#009af9" fill-rule="evenodd" fill-opacity="0.5" stroke="#000000" stroke-opacity="0.5" stroke-width="3.2"/>
<circle clip-path="url(#clip452)" cx="1605.41" cy="720.271" r="14.4" fill="#009af9" fill-rule="evenodd" fill-opacity="0.5" stroke="#000000" stroke-opacity="0.5" stroke-width="3.2"/>
<circle clip-path="url(#clip452)" cx="984.582" cy="1130.19" r="14.4" fill="#009af9" fill-rule="evenodd" fill-opacity="0.5" stroke="#000000" stroke-opacity="0.5" stroke-width="3.2"/>
<circle clip-path="url(#clip452)" cx="2290.34" cy="780.999" r="14.4" fill="#009af9" fill-rule="evenodd" fill-opacity="0.5" stroke="#000000" stroke-opacity="0.5" stroke-width="3.2"/>
<circle clip-path="url(#clip452)" cx="1427.84" cy="1181.63" r="14.4" fill="#009af9" fill-rule="evenodd" fill-opacity="0.5" stroke="#000000" stroke-opacity="0.5" stroke-width="3.2"/>
<circle clip-path="url(#clip452)" cx="1527.18" cy="1445.72" r="14.4" fill="#009af9" fill-rule="evenodd" fill-opacity="0.5" stroke="#000000" stroke-opacity="0.5" stroke-width="3.2"/>
<circle clip-path="url(#clip452)" cx="1644.41" cy="571.743" r="14.4" fill="#009af9" fill-rule="evenodd" fill-opacity="0.5" stroke="#000000" stroke-opacity="0.5" stroke-width="3.2"/>
<circle clip-path="url(#clip452)" cx="1826.08" cy="388.92" r="14.4" fill="#009af9" fill-rule="evenodd" fill-opacity="0.5" stroke="#000000" stroke-opacity="0.5" stroke-width="3.2"/>
<circle clip-path="url(#clip452)" cx="552.5" cy="445.596" r="14.4" fill="#009af9" fill-rule="evenodd" fill-opacity="0.5" stroke="#000000" stroke-opacity="0.5" stroke-width="3.2"/>
<circle clip-path="url(#clip452)" cx="1997.88" cy="603.037" r="14.4" fill="#009af9" fill-rule="evenodd" fill-opacity="0.5" stroke="#000000" stroke-opacity="0.5" stroke-width="3.2"/>
<circle clip-path="url(#clip452)" cx="1634.81" cy="197.323" r="14.4" fill="#009af9" fill-rule="evenodd" fill-opacity="0.5" stroke="#000000" stroke-opacity="0.5" stroke-width="3.2"/>
<circle clip-path="url(#clip452)" cx="998.901" cy="87.9763" r="14.4" fill="#009af9" fill-rule="evenodd" fill-opacity="0.5" stroke="#000000" stroke-opacity="0.5" stroke-width="3.2"/>
<circle clip-path="url(#clip452)" cx="1295.11" cy="923.852" r="14.4" fill="#009af9" fill-rule="evenodd" fill-opacity="0.5" stroke="#000000" stroke-opacity="0.5" stroke-width="3.2"/>
<circle clip-path="url(#clip452)" cx="209.891" cy="555.537" r="14.4" fill="#009af9" fill-rule="evenodd" fill-opacity="0.5" stroke="#000000" stroke-opacity="0.5" stroke-width="3.2"/>
<circle clip-path="url(#clip452)" cx="727.154" cy="108.91" r="14.4" fill="#009af9" fill-rule="evenodd" fill-opacity="0.5" stroke="#000000" stroke-opacity="0.5" stroke-width="3.2"/>
<path clip-path="url(#clip452)" d="M209.891 555.537 L354.547 1078.53 L1470.43 1438.92 L1527.18 1445.72 L2290.34 780.999 L1634.81 197.323 L998.901 87.9763 L727.154 108.91 L209.891 555.537 L209.891 555.537  Z" fill="#e26f46" fill-rule="evenodd" fill-opacity="0.2"/>
<polyline clip-path="url(#clip452)" style="stroke:#000000; stroke-linecap:round; stroke-linejoin:round; stroke-width:4; stroke-opacity:0.2; fill:none" points="209.891,555.537 354.547,1078.53 1470.43,1438.92 1527.18,1445.72 2290.34,780.999 1634.81,197.323 998.901,87.9763 727.154,108.91 209.891,555.537 "/>
</svg>
