<?xml version="1.0" encoding="utf-8"?>
<svg xmlns="http://www.w3.org/2000/svg" xmlns:xlink="http://www.w3.org/1999/xlink" width="600" height="400" viewBox="0 0 2400 1600">
<defs>
  <clipPath id="clip640">
    <rect x="0" y="0" width="2400" height="1600"/>
  </clipPath>
</defs>
<path clip-path="url(#clip640)" d="M0 1600 L2400 1600 L2400 0 L0 0  Z" fill="#ffffff" fill-rule="evenodd" fill-opacity="1"/>
<defs>
  <clipPath id="clip641">
    <rect x="480" y="0" width="1681" height="1600"/>
  </clipPath>
</defs>
<path clip-path="url(#clip640)" d="M147.478 1486.45 L2352.76 1486.45 L2352.76 47.2441 L147.478 47.2441  Z" fill="#ffffff" fill-rule="evenodd" fill-opacity="1"/>
<defs>
  <clipPath id="clip642">
    <rect x="147" y="47" width="2206" height="1440"/>
  </clipPath>
</defs>
<polyline clip-path="url(#clip642)" style="stroke:#000000; stroke-linecap:round; stroke-linejoin:round; stroke-width:2; stroke-opacity:0.1; fill:none" points="160.104,1486.45 160.104,47.2441 "/>
<polyline clip-path="url(#clip642)" style="stroke:#000000; stroke-linecap:round; stroke-linejoin:round; stroke-width:2; stroke-opacity:0.1; fill:none" points="699.021,1486.45 699.021,47.2441 "/>
<polyline clip-path="url(#clip642)" style="stroke:#000000; stroke-linecap:round; stroke-linejoin:round; stroke-width:2; stroke-opacity:0.1; fill:none" points="1237.94,1486.45 1237.94,47.2441 "/>
<polyline clip-path="url(#clip642)" style="stroke:#000000; stroke-linecap:round; stroke-linejoin:round; stroke-width:2; stroke-opacity:0.1; fill:none" points="1776.85,1486.45 1776.85,47.2441 "/>
<polyline clip-path="url(#clip642)" style="stroke:#000000; stroke-linecap:round; stroke-linejoin:round; stroke-width:2; stroke-opacity:0.1; fill:none" points="2315.77,1486.45 2315.77,47.2441 "/>
<polyline clip-path="url(#clip640)" style="stroke:#000000; stroke-linecap:round; stroke-linejoin:round; stroke-width:4; stroke-opacity:1; fill:none" points="147.478,1486.45 2352.76,1486.45 "/>
<polyline clip-path="url(#clip640)" style="stroke:#000000; stroke-linecap:round; stroke-linejoin:round; stroke-width:4; stroke-opacity:1; fill:none" points="160.104,1486.45 160.104,1467.55 "/>
<polyline clip-path="url(#clip640)" style="stroke:#000000; stroke-linecap:round; stroke-linejoin:round; stroke-width:4; stroke-opacity:1; fill:none" points="699.021,1486.45 699.021,1467.55 "/>
<polyline clip-path="url(#clip640)" style="stroke:#000000; stroke-linecap:round; stroke-linejoin:round; stroke-width:4; stroke-opacity:1; fill:none" points="1237.94,1486.45 1237.94,1467.55 "/>
<polyline clip-path="url(#clip640)" style="stroke:#000000; stroke-linecap:round; stroke-linejoin:round; stroke-width:4; stroke-opacity:1; fill:none" points="1776.85,1486.45 1776.85,1467.55 "/>
<polyline clip-path="url(#clip640)" style="stroke:#000000; stroke-linecap:round; stroke-linejoin:round; stroke-width:4; stroke-opacity:1; fill:none" points="2315.77,1486.45 2315.77,1467.55 "/>
<path clip-path="url(#clip640)" d="M130.047 1532.02 L159.722 1532.02 L159.722 1535.95 L130.047 1535.95 L130.047 1532.02 Z" fill="#000000" fill-rule="nonzero" fill-opacity="1" /><path clip-path="url(#clip640)" d="M173.843 1544.91 L190.162 1544.91 L190.162 1548.85 L168.218 1548.85 L168.218 1544.91 Q170.88 1542.16 175.463 1537.53 Q180.07 1532.88 181.25 1531.53 Q183.495 1529.01 184.375 1527.27 Q185.278 1525.51 185.278 1523.82 Q185.278 1521.07 183.333 1519.33 Q181.412 1517.6 178.31 1517.6 Q176.111 1517.6 173.658 1518.36 Q171.227 1519.13 168.449 1520.68 L168.449 1515.95 Q171.273 1514.82 173.727 1514.24 Q176.181 1513.66 178.218 1513.66 Q183.588 1513.66 186.782 1516.35 Q189.977 1519.03 189.977 1523.52 Q189.977 1525.65 189.167 1527.57 Q188.38 1529.47 186.273 1532.07 Q185.695 1532.74 182.593 1535.95 Q179.491 1539.15 173.843 1544.91 Z" fill="#000000" fill-rule="nonzero" fill-opacity="1" /><path clip-path="url(#clip640)" d="M668.778 1532.02 L698.454 1532.02 L698.454 1535.95 L668.778 1535.95 L668.778 1532.02 Z" fill="#000000" fill-rule="nonzero" fill-opacity="1" /><path clip-path="url(#clip640)" d="M709.357 1544.91 L716.996 1544.91 L716.996 1518.55 L708.685 1520.21 L708.685 1515.95 L716.949 1514.29 L721.625 1514.29 L721.625 1544.91 L729.264 1544.91 L729.264 1548.85 L709.357 1548.85 L709.357 1544.91 Z" fill="#000000" fill-rule="nonzero" fill-opacity="1" /><path clip-path="url(#clip640)" d="M1237.94 1517.37 Q1234.33 1517.37 1232.5 1520.93 Q1230.69 1524.47 1230.69 1531.6 Q1230.69 1538.71 1232.5 1542.27 Q1234.33 1545.82 1237.94 1545.82 Q1241.57 1545.82 1243.38 1542.27 Q1245.21 1538.71 1245.21 1531.6 Q1245.21 1524.47 1243.38 1520.93 Q1241.57 1517.37 1237.94 1517.37 M1237.94 1513.66 Q1243.75 1513.66 1246.8 1518.27 Q1249.88 1522.85 1249.88 1531.6 Q1249.88 1540.33 1246.8 1544.94 Q1243.75 1549.52 1237.94 1549.52 Q1232.13 1549.52 1229.05 1544.94 Q1225.99 1540.33 1225.99 1531.6 Q1225.99 1522.85 1229.05 1518.27 Q1232.13 1513.66 1237.94 1513.66 Z" fill="#000000" fill-rule="nonzero" fill-opacity="1" /><path clip-path="url(#clip640)" d="M1767.24 1544.91 L1774.88 1544.91 L1774.88 1518.55 L1766.57 1520.21 L1766.57 1515.95 L1774.83 1514.29 L1779.51 1514.29 L1779.51 1544.91 L1787.14 1544.91 L1787.14 1548.85 L1767.24 1548.85 L1767.24 1544.91 Z" fill="#000000" fill-rule="nonzero" fill-opacity="1" /><path clip-path="url(#clip640)" d="M2310.42 1544.91 L2326.74 1544.91 L2326.74 1548.85 L2304.8 1548.85 L2304.8 1544.91 Q2307.46 1542.16 2312.04 1537.53 Q2316.65 1532.88 2317.83 1531.53 Q2320.08 1529.01 2320.96 1527.27 Q2321.86 1525.51 2321.86 1523.82 Q2321.86 1521.07 2319.91 1519.33 Q2317.99 1517.6 2314.89 1517.6 Q2312.69 1517.6 2310.24 1518.36 Q2307.81 1519.13 2305.03 1520.68 L2305.03 1515.95 Q2307.85 1514.82 2310.31 1514.24 Q2312.76 1513.66 2314.8 1513.66 Q2320.17 1513.66 2323.36 1516.35 Q2326.56 1519.03 2326.56 1523.52 Q2326.56 1525.65 2325.75 1527.57 Q2324.96 1529.47 2322.85 1532.07 Q2322.28 1532.74 2319.17 1535.95 Q2316.07 1539.15 2310.42 1544.91 Z" fill="#000000" fill-rule="nonzero" fill-opacity="1" /><polyline clip-path="url(#clip642)" style="stroke:#000000; stroke-linecap:round; stroke-linejoin:round; stroke-width:2; stroke-opacity:0.1; fill:none" points="147.478,1430.72 2352.76,1430.72 "/>
<polyline clip-path="url(#clip642)" style="stroke:#000000; stroke-linecap:round; stroke-linejoin:round; stroke-width:2; stroke-opacity:0.1; fill:none" points="147.478,1095.26 2352.76,1095.26 "/>
<polyline clip-path="url(#clip642)" style="stroke:#000000; stroke-linecap:round; stroke-linejoin:round; stroke-width:2; stroke-opacity:0.1; fill:none" points="147.478,759.806 2352.76,759.806 "/>
<polyline clip-path="url(#clip642)" style="stroke:#000000; stroke-linecap:round; stroke-linejoin:round; stroke-width:2; stroke-opacity:0.1; fill:none" points="147.478,424.35 2352.76,424.35 "/>
<polyline clip-path="url(#clip642)" style="stroke:#000000; stroke-linecap:round; stroke-linejoin:round; stroke-width:2; stroke-opacity:0.1; fill:none" points="147.478,88.8936 2352.76,88.8936 "/>
<polyline clip-path="url(#clip640)" style="stroke:#000000; stroke-linecap:round; stroke-linejoin:round; stroke-width:4; stroke-opacity:1; fill:none" points="147.478,1486.45 147.478,47.2441 "/>
<polyline clip-path="url(#clip640)" style="stroke:#000000; stroke-linecap:round; stroke-linejoin:round; stroke-width:4; stroke-opacity:1; fill:none" points="147.478,1430.72 166.376,1430.72 "/>
<polyline clip-path="url(#clip640)" style="stroke:#000000; stroke-linecap:round; stroke-linejoin:round; stroke-width:4; stroke-opacity:1; fill:none" points="147.478,1095.26 166.376,1095.26 "/>
<polyline clip-path="url(#clip640)" style="stroke:#000000; stroke-linecap:round; stroke-linejoin:round; stroke-width:4; stroke-opacity:1; fill:none" points="147.478,759.806 166.376,759.806 "/>
<polyline clip-path="url(#clip640)" style="stroke:#000000; stroke-linecap:round; stroke-linejoin:round; stroke-width:4; stroke-opacity:1; fill:none" points="147.478,424.35 166.376,424.35 "/>
<polyline clip-path="url(#clip640)" style="stroke:#000000; stroke-linecap:round; stroke-linejoin:round; stroke-width:4; stroke-opacity:1; fill:none" points="147.478,88.8936 166.376,88.8936 "/>
<path clip-path="url(#clip640)" d="M51.3625 1431.17 L81.0383 1431.17 L81.0383 1435.11 L51.3625 1435.11 L51.3625 1431.17 Z" fill="#000000" fill-rule="nonzero" fill-opacity="1" /><path clip-path="url(#clip640)" d="M95.1586 1444.06 L111.478 1444.06 L111.478 1448 L89.5336 1448 L89.5336 1444.06 Q92.1956 1441.31 96.7789 1436.68 Q101.385 1432.03 102.566 1430.68 Q104.811 1428.16 105.691 1426.43 Q106.594 1424.67 106.594 1422.98 Q106.594 1420.22 104.649 1418.49 Q102.728 1416.75 99.6261 1416.75 Q97.4271 1416.75 94.9734 1417.51 Q92.5428 1418.28 89.7651 1419.83 L89.7651 1415.11 Q92.5891 1413.97 95.0428 1413.39 Q97.4965 1412.81 99.5335 1412.81 Q104.904 1412.81 108.098 1415.5 Q111.293 1418.18 111.293 1422.68 Q111.293 1424.81 110.483 1426.73 Q109.696 1428.62 107.589 1431.22 Q107.01 1431.89 103.909 1435.11 Q100.807 1438.3 95.1586 1444.06 Z" fill="#000000" fill-rule="nonzero" fill-opacity="1" /><path clip-path="url(#clip640)" d="M50.9921 1095.71 L80.6679 1095.71 L80.6679 1099.65 L50.9921 1099.65 L50.9921 1095.71 Z" fill="#000000" fill-rule="nonzero" fill-opacity="1" /><path clip-path="url(#clip640)" d="M91.5706 1108.61 L99.2095 1108.61 L99.2095 1082.24 L90.8993 1083.91 L90.8993 1079.65 L99.1632 1077.98 L103.839 1077.98 L103.839 1108.61 L111.478 1108.61 L111.478 1112.54 L91.5706 1112.54 L91.5706 1108.61 Z" fill="#000000" fill-rule="nonzero" fill-opacity="1" /><path clip-path="url(#clip640)" d="M99.5335 745.605 Q95.9224 745.605 94.0937 749.17 Q92.2882 752.712 92.2882 759.841 Q92.2882 766.948 94.0937 770.512 Q95.9224 774.054 99.5335 774.054 Q103.168 774.054 104.973 770.512 Q106.802 766.948 106.802 759.841 Q106.802 752.712 104.973 749.17 Q103.168 745.605 99.5335 745.605 M99.5335 741.901 Q105.344 741.901 108.399 746.508 Q111.478 751.091 111.478 759.841 Q111.478 768.568 108.399 773.174 Q105.344 777.758 99.5335 777.758 Q93.7234 777.758 90.6447 773.174 Q87.5892 768.568 87.5892 759.841 Q87.5892 751.091 90.6447 746.508 Q93.7234 741.901 99.5335 741.901 Z" fill="#000000" fill-rule="nonzero" fill-opacity="1" /><path clip-path="url(#clip640)" d="M91.5706 437.695 L99.2095 437.695 L99.2095 411.329 L90.8993 412.996 L90.8993 408.737 L99.1632 407.07 L103.839 407.07 L103.839 437.695 L111.478 437.695 L111.478 441.63 L91.5706 441.63 L91.5706 437.695 Z" fill="#000000" fill-rule="nonzero" fill-opacity="1" /><path clip-path="url(#clip640)" d="M95.1586 102.238 L111.478 102.238 L111.478 106.174 L89.5336 106.174 L89.5336 102.238 Q92.1956 99.4838 96.7789 94.8542 Q101.385 90.2015 102.566 88.8589 Q104.811 86.3357 105.691 84.5996 Q106.594 82.8404 106.594 81.1506 Q106.594 78.396 104.649 76.6599 Q102.728 74.9238 99.6261 74.9238 Q97.4271 74.9238 94.9734 75.6876 Q92.5428 76.4515 89.7651 78.0024 L89.7651 73.2802 Q92.5891 72.146 95.0428 71.5673 Q97.4965 70.9886 99.5335 70.9886 Q104.904 70.9886 108.098 73.6738 Q111.293 76.3589 111.293 80.8496 Q111.293 82.9793 110.483 84.9006 Q109.696 86.7987 107.589 89.3913 Q107.01 90.0626 103.909 93.2801 Q100.807 96.4746 95.1586 102.238 Z" fill="#000000" fill-rule="nonzero" fill-opacity="1" /><circle clip-path="url(#clip642)" cx="1644.54" cy="1100.48" r="14.4" fill="#009af9" fill-rule="evenodd" fill-opacity="0.5" stroke="#000000" stroke-opacity="0.5" stroke-width="3.2"/>
<circle clip-path="url(#clip642)" cx="209.891" cy="726.788" r="14.4" fill="#009af9" fill-rule="evenodd" fill-opacity="0.5" stroke="#000000" stroke-opacity="0.5" stroke-width="3.2"/>
<circle clip-path="url(#clip642)" cx="1103.06" cy="87.9763" r="14.4" fill="#009af9" fill-rule="evenodd" fill-opacity="0.5" stroke="#000000" stroke-opacity="0.5" stroke-width="3.2"/>
<circle clip-path="url(#clip642)" cx="1279.06" cy="575.695" r="14.4" fill="#009af9" fill-rule="evenodd" fill-opacity="0.5" stroke="#000000" stroke-opacity="0.5" stroke-width="3.2"/>
<circle clip-path="url(#clip642)" cx="1711.28" cy="220.684" r="14.4" fill="#009af9" fill-rule="evenodd" fill-opacity="0.5" stroke="#000000" stroke-opacity="0.5" stroke-width="3.2"/>
<circle clip-path="url(#clip642)" cx="801.678" cy="1407.7" r="14.4" fill="#009af9" fill-rule="evenodd" fill-opacity="0.5" stroke="#000000" stroke-opacity="0.5" stroke-width="3.2"/>
<circle clip-path="url(#clip642)" cx="466.502" cy="119.833" r="14.4" fill="#009af9" fill-rule="evenodd" fill-opacity="0.5" stroke="#000000" stroke-opacity="0.5" stroke-width="3.2"/>
<circle clip-path="url(#clip642)" cx="1171.3" cy="428.774" r="14.4" fill="#009af9" fill-rule="evenodd" fill-opacity="0.5" stroke="#000000" stroke-opacity="0.5" stroke-width="3.2"/>
<circle clip-path="url(#clip642)" cx="2290.34" cy="980.75" r="14.4" fill="#009af9" fill-rule="evenodd" fill-opacity="0.5" stroke="#000000" stroke-opacity="0.5" stroke-width="3.2"/>
<circle clip-path="url(#clip642)" cx="1499.69" cy="1174.8" r="14.4" fill="#009af9" fill-rule="evenodd" fill-opacity="0.5" stroke="#000000" stroke-opacity="0.5" stroke-width="3.2"/>
<circle clip-path="url(#clip642)" cx="1301.34" cy="850.704" r="14.4" fill="#009af9" fill-rule="evenodd" fill-opacity="0.5" stroke="#000000" stroke-opacity="0.5" stroke-width="3.2"/>
<circle clip-path="url(#clip642)" cx="547.444" cy="243.127" r="14.4" fill="#009af9" fill-rule="evenodd" fill-opacity="0.5" stroke="#000000" stroke-opacity="0.5" stroke-width="3.2"/>
<circle clip-path="url(#clip642)" cx="500.364" cy="1161.29" r="14.4" fill="#009af9" fill-rule="evenodd" fill-opacity="0.5" stroke="#000000" stroke-opacity="0.5" stroke-width="3.2"/>
<circle clip-path="url(#clip642)" cx="1167.09" cy="226.754" r="14.4" fill="#009af9" fill-rule="evenodd" fill-opacity="0.5" stroke="#000000" stroke-opacity="0.5" stroke-width="3.2"/>
<circle clip-path="url(#clip642)" cx="306.381" cy="1028.67" r="14.4" fill="#009af9" fill-rule="evenodd" fill-opacity="0.5" stroke="#000000" stroke-opacity="0.5" stroke-width="3.2"/>
<circle clip-path="url(#clip642)" cx="1135.45" cy="1445.72" r="14.4" fill="#009af9" fill-rule="evenodd" fill-opacity="0.5" stroke="#000000" stroke-opacity="0.5" stroke-width="3.2"/>
<circle clip-path="url(#clip642)" cx="1145.21" cy="882.235" r="14.4" fill="#009af9" fill-rule="evenodd" fill-opacity="0.5" stroke="#000000" stroke-opacity="0.5" stroke-width="3.2"/>
<circle clip-path="url(#clip642)" cx="1687.04" cy="918.3" r="14.4" fill="#009af9" fill-rule="evenodd" fill-opacity="0.5" stroke="#000000" stroke-opacity="0.5" stroke-width="3.2"/>
<circle clip-path="url(#clip642)" cx="1208.23" cy="152.811" r="14.4" fill="#009af9" fill-rule="evenodd" fill-opacity="0.5" stroke="#000000" stroke-opacity="0.5" stroke-width="3.2"/>
<circle clip-path="url(#clip642)" cx="2139.5" cy="426.61" r="14.4" fill="#009af9" fill-rule="evenodd" fill-opacity="0.5" stroke="#000000" stroke-opacity="0.5" stroke-width="3.2"/>
<circle clip-path="url(#clip642)" cx="849.922" cy="1130.76" r="14.4" fill="#009af9" fill-rule="evenodd" fill-opacity="0.5" stroke="#000000" stroke-opacity="0.5" stroke-width="3.2"/>
<circle clip-path="url(#clip642)" cx="1013.57" cy="747.14" r="14.4" fill="#009af9" fill-rule="evenodd" fill-opacity="0.5" stroke="#000000" stroke-opacity="0.5" stroke-width="3.2"/>
<circle clip-path="url(#clip642)" cx="1823.15" cy="482.889" r="14.4" fill="#009af9" fill-rule="evenodd" fill-opacity="0.5" stroke="#000000" stroke-opacity="0.5" stroke-width="3.2"/>
<circle clip-path="url(#clip642)" cx="1108.75" cy="566.919" r="14.4" fill="#009af9" fill-rule="evenodd" fill-opacity="0.5" stroke="#000000" stroke-opacity="0.5" stroke-width="3.2"/>
<circle clip-path="url(#clip642)" cx="729.038" cy="780.154" r="14.4" fill="#009af9" fill-rule="evenodd" fill-opacity="0.5" stroke="#000000" stroke-opacity="0.5" stroke-width="3.2"/>
<circle clip-path="url(#clip642)" cx="369.451" cy="750.715" r="14.4" fill="#009af9" fill-rule="evenodd" fill-opacity="0.5" stroke="#000000" stroke-opacity="0.5" stroke-width="3.2"/>
<circle clip-path="url(#clip642)" cx="1174.35" cy="904.535" r="14.4" fill="#009af9" fill-rule="evenodd" fill-opacity="0.5" stroke="#000000" stroke-opacity="0.5" stroke-width="3.2"/>
<circle clip-path="url(#clip642)" cx="469.005" cy="847.054" r="14.4" fill="#009af9" fill-rule="evenodd" fill-opacity="0.5" stroke="#000000" stroke-opacity="0.5" stroke-width="3.2"/>
<circle clip-path="url(#clip642)" cx="2092.08" cy="1078.14" r="14.4" fill="#009af9" fill-rule="evenodd" fill-opacity="0.5" stroke="#000000" stroke-opacity="0.5" stroke-width="3.2"/>
<circle clip-path="url(#clip642)" cx="903.061" cy="845.955" r="14.4" fill="#009af9" fill-rule="evenodd" fill-opacity="0.5" stroke="#000000" stroke-opacity="0.5" stroke-width="3.2"/>
<path clip-path="url(#clip642)" d="M209.891 726.788 L306.381 1028.67 L801.678 1407.7 L1135.45 1445.72 L2092.08 1078.14 L2290.34 980.75 L2139.5 426.61 L1711.28 220.684 L1103.06 87.9763 L466.502 119.833 L209.891 726.788 L209.891 726.788  Z" fill="#e26f46" fill-rule="evenodd" fill-opacity="0.2"/>
<polyline clip-path="url(#clip642)" style="stroke:#000000; stroke-linecap:round; stroke-linejoin:round; stroke-width:4; stroke-opacity:0.2; fill:none" points="209.891,726.788 306.381,1028.67 801.678,1407.7 1135.45,1445.72 2092.08,1078.14 2290.34,980.75 2139.5,426.61 1711.28,220.684 1103.06,87.9763 466.502,119.833 209.891,726.788 "/>
</svg>
