<?xml version="1.0" encoding="utf-8"?>
<svg xmlns="http://www.w3.org/2000/svg" xmlns:xlink="http://www.w3.org/1999/xlink" width="600" height="400" viewBox="0 0 2400 1600">
<defs>
  <clipPath id="clip140">
    <rect x="0" y="0" width="2400" height="1600"/>
  </clipPath>
</defs>
<path clip-path="url(#clip140)" d="M0 1600 L2400 1600 L2400 0 L0 0  Z" fill="#ffffff" fill-rule="evenodd" fill-opacity="1"/>
<defs>
  <clipPath id="clip141">
    <rect x="480" y="0" width="1681" height="1600"/>
  </clipPath>
</defs>
<path clip-path="url(#clip140)" d="M147.478 1486.45 L2352.76 1486.45 L2352.76 47.2441 L147.478 47.2441  Z" fill="#ffffff" fill-rule="evenodd" fill-opacity="1"/>
<defs>
  <clipPath id="clip142">
    <rect x="147" y="47" width="2206" height="1440"/>
  </clipPath>
</defs>
<polyline clip-path="url(#clip142)" style="stroke:#000000; stroke-linecap:round; stroke-linejoin:round; stroke-width:2; stroke-opacity:0.1; fill:none" points="493.583,1486.45 493.583,47.2441 "/>
<polyline clip-path="url(#clip142)" style="stroke:#000000; stroke-linecap:round; stroke-linejoin:round; stroke-width:2; stroke-opacity:0.1; fill:none" points="889.715,1486.45 889.715,47.2441 "/>
<polyline clip-path="url(#clip142)" style="stroke:#000000; stroke-linecap:round; stroke-linejoin:round; stroke-width:2; stroke-opacity:0.1; fill:none" points="1285.85,1486.45 1285.85,47.2441 "/>
<polyline clip-path="url(#clip142)" style="stroke:#000000; stroke-linecap:round; stroke-linejoin:round; stroke-width:2; stroke-opacity:0.1; fill:none" points="1681.98,1486.45 1681.98,47.2441 "/>
<polyline clip-path="url(#clip142)" style="stroke:#000000; stroke-linecap:round; stroke-linejoin:round; stroke-width:2; stroke-opacity:0.1; fill:none" points="2078.11,1486.45 2078.11,47.2441 "/>
<polyline clip-path="url(#clip142)" style="stroke:#000000; stroke-linecap:round; stroke-linejoin:round; stroke-width:2; stroke-opacity:0.1; fill:none" points="147.478,1335.48 2352.76,1335.48 "/>
<polyline clip-path="url(#clip142)" style="stroke:#000000; stroke-linecap:round; stroke-linejoin:round; stroke-width:2; stroke-opacity:0.1; fill:none" points="147.478,1054.79 2352.76,1054.79 "/>
<polyline clip-path="url(#clip142)" style="stroke:#000000; stroke-linecap:round; stroke-linejoin:round; stroke-width:2; stroke-opacity:0.1; fill:none" points="147.478,774.102 2352.76,774.102 "/>
<polyline clip-path="url(#clip142)" style="stroke:#000000; stroke-linecap:round; stroke-linejoin:round; stroke-width:2; stroke-opacity:0.1; fill:none" points="147.478,493.411 2352.76,493.411 "/>
<polyline clip-path="url(#clip142)" style="stroke:#000000; stroke-linecap:round; stroke-linejoin:round; stroke-width:2; stroke-opacity:0.1; fill:none" points="147.478,212.721 2352.76,212.721 "/>
<polyline clip-path="url(#clip140)" style="stroke:#000000; stroke-linecap:round; stroke-linejoin:round; stroke-width:4; stroke-opacity:1; fill:none" points="147.478,1486.45 2352.76,1486.45 "/>
<polyline clip-path="url(#clip140)" style="stroke:#000000; stroke-linecap:round; stroke-linejoin:round; stroke-width:4; stroke-opacity:1; fill:none" points="493.583,1486.45 493.583,1467.55 "/>
<polyline clip-path="url(#clip140)" style="stroke:#000000; stroke-linecap:round; stroke-linejoin:round; stroke-width:4; stroke-opacity:1; fill:none" points="889.715,1486.45 889.715,1467.55 "/>
<polyline clip-path="url(#clip140)" style="stroke:#000000; stroke-linecap:round; stroke-linejoin:round; stroke-width:4; stroke-opacity:1; fill:none" points="1285.85,1486.45 1285.85,1467.55 "/>
<polyline clip-path="url(#clip140)" style="stroke:#000000; stroke-linecap:round; stroke-linejoin:round; stroke-width:4; stroke-opacity:1; fill:none" points="1681.98,1486.45 1681.98,1467.55 "/>
<polyline clip-path="url(#clip140)" style="stroke:#000000; stroke-linecap:round; stroke-linejoin:round; stroke-width:4; stroke-opacity:1; fill:none" points="2078.11,1486.45 2078.11,1467.55 "/>
<path clip-path="url(#clip140)" d="M463.051 1532.02 L492.727 1532.02 L492.727 1535.95 L463.051 1535.95 L463.051 1532.02 Z" fill="#000000" fill-rule="nonzero" fill-opacity="1" /><path clip-path="url(#clip140)" d="M516.986 1530.21 Q520.342 1530.93 522.217 1533.2 Q524.115 1535.47 524.115 1538.8 Q524.115 1543.92 520.597 1546.72 Q517.078 1549.52 510.597 1549.52 Q508.421 1549.52 506.106 1549.08 Q503.815 1548.66 501.361 1547.81 L501.361 1543.29 Q503.305 1544.43 505.62 1545.01 Q507.935 1545.58 510.458 1545.58 Q514.856 1545.58 517.148 1543.85 Q519.463 1542.11 519.463 1538.8 Q519.463 1535.75 517.31 1534.03 Q515.18 1532.3 511.361 1532.3 L507.333 1532.3 L507.333 1528.45 L511.546 1528.45 Q514.995 1528.45 516.824 1527.09 Q518.652 1525.7 518.652 1523.11 Q518.652 1520.45 516.754 1519.03 Q514.879 1517.6 511.361 1517.6 Q509.439 1517.6 507.24 1518.01 Q505.041 1518.43 502.402 1519.31 L502.402 1515.14 Q505.065 1514.4 507.379 1514.03 Q509.717 1513.66 511.777 1513.66 Q517.101 1513.66 520.203 1516.09 Q523.305 1518.5 523.305 1522.62 Q523.305 1525.49 521.662 1527.48 Q520.018 1529.45 516.986 1530.21 Z" fill="#000000" fill-rule="nonzero" fill-opacity="1" /><path clip-path="url(#clip140)" d="M859.657 1532.02 L889.333 1532.02 L889.333 1535.95 L859.657 1535.95 L859.657 1532.02 Z" fill="#000000" fill-rule="nonzero" fill-opacity="1" /><path clip-path="url(#clip140)" d="M903.453 1544.91 L919.772 1544.91 L919.772 1548.85 L897.828 1548.85 L897.828 1544.91 Q900.49 1542.16 905.073 1537.53 Q909.68 1532.88 910.86 1531.53 Q913.106 1529.01 913.985 1527.27 Q914.888 1525.51 914.888 1523.82 Q914.888 1521.07 912.944 1519.33 Q911.022 1517.6 907.92 1517.6 Q905.721 1517.6 903.268 1518.36 Q900.837 1519.13 898.059 1520.68 L898.059 1515.95 Q900.883 1514.82 903.337 1514.24 Q905.791 1513.66 907.828 1513.66 Q913.198 1513.66 916.393 1516.35 Q919.587 1519.03 919.587 1523.52 Q919.587 1525.65 918.777 1527.57 Q917.99 1529.47 915.883 1532.07 Q915.305 1532.74 912.203 1535.95 Q909.101 1539.15 903.453 1544.91 Z" fill="#000000" fill-rule="nonzero" fill-opacity="1" /><path clip-path="url(#clip140)" d="M1255.6 1532.02 L1285.28 1532.02 L1285.28 1535.95 L1255.6 1535.95 L1255.6 1532.02 Z" fill="#000000" fill-rule="nonzero" fill-opacity="1" /><path clip-path="url(#clip140)" d="M1296.18 1544.91 L1303.82 1544.91 L1303.82 1518.55 L1295.51 1520.21 L1295.51 1515.95 L1303.77 1514.29 L1308.45 1514.29 L1308.45 1544.91 L1316.09 1544.91 L1316.09 1548.85 L1296.18 1548.85 L1296.18 1544.91 Z" fill="#000000" fill-rule="nonzero" fill-opacity="1" /><path clip-path="url(#clip140)" d="M1681.98 1517.37 Q1678.37 1517.37 1676.54 1520.93 Q1674.73 1524.47 1674.73 1531.6 Q1674.73 1538.71 1676.54 1542.27 Q1678.37 1545.82 1681.98 1545.82 Q1685.61 1545.82 1687.42 1542.27 Q1689.25 1538.71 1689.25 1531.6 Q1689.25 1524.47 1687.42 1520.93 Q1685.61 1517.37 1681.98 1517.37 M1681.98 1513.66 Q1687.79 1513.66 1690.84 1518.27 Q1693.92 1522.85 1693.92 1531.6 Q1693.92 1540.33 1690.84 1544.94 Q1687.79 1549.52 1681.98 1549.52 Q1676.17 1549.52 1673.09 1544.94 Q1670.03 1540.33 1670.03 1531.6 Q1670.03 1522.85 1673.09 1518.27 Q1676.17 1513.66 1681.98 1513.66 Z" fill="#000000" fill-rule="nonzero" fill-opacity="1" /><path clip-path="url(#clip140)" d="M2068.49 1544.91 L2076.13 1544.91 L2076.13 1518.55 L2067.82 1520.21 L2067.82 1515.95 L2076.08 1514.29 L2080.76 1514.29 L2080.76 1544.91 L2088.4 1544.91 L2088.4 1548.85 L2068.49 1548.85 L2068.49 1544.91 Z" fill="#000000" fill-rule="nonzero" fill-opacity="1" /><polyline clip-path="url(#clip140)" style="stroke:#000000; stroke-linecap:round; stroke-linejoin:round; stroke-width:4; stroke-opacity:1; fill:none" points="147.478,1486.45 147.478,47.2441 "/>
<polyline clip-path="url(#clip140)" style="stroke:#000000; stroke-linecap:round; stroke-linejoin:round; stroke-width:4; stroke-opacity:1; fill:none" points="147.478,1335.48 166.376,1335.48 "/>
<polyline clip-path="url(#clip140)" style="stroke:#000000; stroke-linecap:round; stroke-linejoin:round; stroke-width:4; stroke-opacity:1; fill:none" points="147.478,1054.79 166.376,1054.79 "/>
<polyline clip-path="url(#clip140)" style="stroke:#000000; stroke-linecap:round; stroke-linejoin:round; stroke-width:4; stroke-opacity:1; fill:none" points="147.478,774.102 166.376,774.102 "/>
<polyline clip-path="url(#clip140)" style="stroke:#000000; stroke-linecap:round; stroke-linejoin:round; stroke-width:4; stroke-opacity:1; fill:none" points="147.478,493.411 166.376,493.411 "/>
<polyline clip-path="url(#clip140)" style="stroke:#000000; stroke-linecap:round; stroke-linejoin:round; stroke-width:4; stroke-opacity:1; fill:none" points="147.478,212.721 166.376,212.721 "/>
<path clip-path="url(#clip140)" d="M51.3625 1335.93 L81.0383 1335.93 L81.0383 1339.87 L51.3625 1339.87 L51.3625 1335.93 Z" fill="#000000" fill-rule="nonzero" fill-opacity="1" /><path clip-path="url(#clip140)" d="M95.1586 1348.83 L111.478 1348.83 L111.478 1352.76 L89.5336 1352.76 L89.5336 1348.83 Q92.1956 1346.07 96.7789 1341.44 Q101.385 1336.79 102.566 1335.45 Q104.811 1332.92 105.691 1331.19 Q106.594 1329.43 106.594 1327.74 Q106.594 1324.98 104.649 1323.25 Q102.728 1321.51 99.6261 1321.51 Q97.4271 1321.51 94.9734 1322.28 Q92.5428 1323.04 89.7651 1324.59 L89.7651 1319.87 Q92.5891 1318.73 95.0428 1318.16 Q97.4965 1317.58 99.5335 1317.58 Q104.904 1317.58 108.098 1320.26 Q111.293 1322.95 111.293 1327.44 Q111.293 1329.57 110.483 1331.49 Q109.696 1333.39 107.589 1335.98 Q107.01 1336.65 103.909 1339.87 Q100.807 1343.06 95.1586 1348.83 Z" fill="#000000" fill-rule="nonzero" fill-opacity="1" /><path clip-path="url(#clip140)" d="M50.9921 1055.24 L80.6679 1055.24 L80.6679 1059.18 L50.9921 1059.18 L50.9921 1055.24 Z" fill="#000000" fill-rule="nonzero" fill-opacity="1" /><path clip-path="url(#clip140)" d="M91.5706 1068.14 L99.2095 1068.14 L99.2095 1041.77 L90.8993 1043.44 L90.8993 1039.18 L99.1632 1037.51 L103.839 1037.51 L103.839 1068.14 L111.478 1068.14 L111.478 1072.07 L91.5706 1072.07 L91.5706 1068.14 Z" fill="#000000" fill-rule="nonzero" fill-opacity="1" /><path clip-path="url(#clip140)" d="M99.5335 759.9 Q95.9224 759.9 94.0937 763.465 Q92.2882 767.007 92.2882 774.136 Q92.2882 781.243 94.0937 784.808 Q95.9224 788.349 99.5335 788.349 Q103.168 788.349 104.973 784.808 Q106.802 781.243 106.802 774.136 Q106.802 767.007 104.973 763.465 Q103.168 759.9 99.5335 759.9 M99.5335 756.197 Q105.344 756.197 108.399 760.803 Q111.478 765.386 111.478 774.136 Q111.478 782.863 108.399 787.47 Q105.344 792.053 99.5335 792.053 Q93.7234 792.053 90.6447 787.47 Q87.5892 782.863 87.5892 774.136 Q87.5892 765.386 90.6447 760.803 Q93.7234 756.197 99.5335 756.197 Z" fill="#000000" fill-rule="nonzero" fill-opacity="1" /><path clip-path="url(#clip140)" d="M91.5706 506.756 L99.2095 506.756 L99.2095 480.391 L90.8993 482.057 L90.8993 477.798 L99.1632 476.131 L103.839 476.131 L103.839 506.756 L111.478 506.756 L111.478 510.691 L91.5706 510.691 L91.5706 506.756 Z" fill="#000000" fill-rule="nonzero" fill-opacity="1" /><path clip-path="url(#clip140)" d="M95.1586 226.066 L111.478 226.066 L111.478 230.001 L89.5336 230.001 L89.5336 226.066 Q92.1956 223.311 96.7789 218.682 Q101.385 214.029 102.566 212.686 Q104.811 210.163 105.691 208.427 Q106.594 206.668 106.594 204.978 Q106.594 202.224 104.649 200.487 Q102.728 198.751 99.6261 198.751 Q97.4271 198.751 94.9734 199.515 Q92.5428 200.279 89.7651 201.83 L89.7651 197.108 Q92.5891 195.974 95.0428 195.395 Q97.4965 194.816 99.5335 194.816 Q104.904 194.816 108.098 197.501 Q111.293 200.187 111.293 204.677 Q111.293 206.807 110.483 208.728 Q109.696 210.626 107.589 213.219 Q107.01 213.89 103.909 217.108 Q100.807 220.302 95.1586 226.066 Z" fill="#000000" fill-rule="nonzero" fill-opacity="1" /><circle clip-path="url(#clip142)" cx="1827.78" cy="978.206" r="14.4" fill="#009af9" fill-rule="evenodd" fill-opacity="0.5" stroke="#000000" stroke-opacity="0.5" stroke-width="3.2"/>
<circle clip-path="url(#clip142)" cx="1901.49" cy="645.843" r="14.4" fill="#009af9" fill-rule="evenodd" fill-opacity="0.5" stroke="#000000" stroke-opacity="0.5" stroke-width="3.2"/>
<circle clip-path="url(#clip142)" cx="1410.26" cy="641.858" r="14.4" fill="#009af9" fill-rule="evenodd" fill-opacity="0.5" stroke="#000000" stroke-opacity="0.5" stroke-width="3.2"/>
<circle clip-path="url(#clip142)" cx="1399.09" cy="1086.72" r="14.4" fill="#009af9" fill-rule="evenodd" fill-opacity="0.5" stroke="#000000" stroke-opacity="0.5" stroke-width="3.2"/>
<circle clip-path="url(#clip142)" cx="1341.28" cy="1046.72" r="14.4" fill="#009af9" fill-rule="evenodd" fill-opacity="0.5" stroke="#000000" stroke-opacity="0.5" stroke-width="3.2"/>
<circle clip-path="url(#clip142)" cx="1064.66" cy="650.525" r="14.4" fill="#009af9" fill-rule="evenodd" fill-opacity="0.5" stroke="#000000" stroke-opacity="0.5" stroke-width="3.2"/>
<circle clip-path="url(#clip142)" cx="1656.06" cy="596.141" r="14.4" fill="#009af9" fill-rule="evenodd" fill-opacity="0.5" stroke="#000000" stroke-opacity="0.5" stroke-width="3.2"/>
<circle clip-path="url(#clip142)" cx="2066.51" cy="516.877" r="14.4" fill="#009af9" fill-rule="evenodd" fill-opacity="0.5" stroke="#000000" stroke-opacity="0.5" stroke-width="3.2"/>
<circle clip-path="url(#clip142)" cx="2290.34" cy="664.24" r="14.4" fill="#009af9" fill-rule="evenodd" fill-opacity="0.5" stroke="#000000" stroke-opacity="0.5" stroke-width="3.2"/>
<circle clip-path="url(#clip142)" cx="2245.35" cy="484.604" r="14.4" fill="#009af9" fill-rule="evenodd" fill-opacity="0.5" stroke="#000000" stroke-opacity="0.5" stroke-width="3.2"/>
<circle clip-path="url(#clip142)" cx="1434.31" cy="1066.73" r="14.4" fill="#009af9" fill-rule="evenodd" fill-opacity="0.5" stroke="#000000" stroke-opacity="0.5" stroke-width="3.2"/>
<circle clip-path="url(#clip142)" cx="1323.48" cy="804.556" r="14.4" fill="#009af9" fill-rule="evenodd" fill-opacity="0.5" stroke="#000000" stroke-opacity="0.5" stroke-width="3.2"/>
<circle clip-path="url(#clip142)" cx="1985.12" cy="1095.13" r="14.4" fill="#009af9" fill-rule="evenodd" fill-opacity="0.5" stroke="#000000" stroke-opacity="0.5" stroke-width="3.2"/>
<circle clip-path="url(#clip142)" cx="209.891" cy="937.503" r="14.4" fill="#009af9" fill-rule="evenodd" fill-opacity="0.5" stroke="#000000" stroke-opacity="0.5" stroke-width="3.2"/>
<circle clip-path="url(#clip142)" cx="1681.42" cy="1281.31" r="14.4" fill="#009af9" fill-rule="evenodd" fill-opacity="0.5" stroke="#000000" stroke-opacity="0.5" stroke-width="3.2"/>
<circle clip-path="url(#clip142)" cx="1764.66" cy="699.907" r="14.4" fill="#009af9" fill-rule="evenodd" fill-opacity="0.5" stroke="#000000" stroke-opacity="0.5" stroke-width="3.2"/>
<circle clip-path="url(#clip142)" cx="1875.23" cy="508.142" r="14.4" fill="#009af9" fill-rule="evenodd" fill-opacity="0.5" stroke="#000000" stroke-opacity="0.5" stroke-width="3.2"/>
<circle clip-path="url(#clip142)" cx="1193.69" cy="817.753" r="14.4" fill="#009af9" fill-rule="evenodd" fill-opacity="0.5" stroke="#000000" stroke-opacity="0.5" stroke-width="3.2"/>
<circle clip-path="url(#clip142)" cx="1826.95" cy="1107.3" r="14.4" fill="#009af9" fill-rule="evenodd" fill-opacity="0.5" stroke="#000000" stroke-opacity="0.5" stroke-width="3.2"/>
<circle clip-path="url(#clip142)" cx="1329.89" cy="1079.5" r="14.4" fill="#009af9" fill-rule="evenodd" fill-opacity="0.5" stroke="#000000" stroke-opacity="0.5" stroke-width="3.2"/>
<circle clip-path="url(#clip142)" cx="2287.6" cy="706.665" r="14.4" fill="#009af9" fill-rule="evenodd" fill-opacity="0.5" stroke="#000000" stroke-opacity="0.5" stroke-width="3.2"/>
<circle clip-path="url(#clip142)" cx="1940.18" cy="1071.9" r="14.4" fill="#009af9" fill-rule="evenodd" fill-opacity="0.5" stroke="#000000" stroke-opacity="0.5" stroke-width="3.2"/>
<circle clip-path="url(#clip142)" cx="1864.61" cy="781.688" r="14.4" fill="#009af9" fill-rule="evenodd" fill-opacity="0.5" stroke="#000000" stroke-opacity="0.5" stroke-width="3.2"/>
<circle clip-path="url(#clip142)" cx="1394.47" cy="926.755" r="14.4" fill="#009af9" fill-rule="evenodd" fill-opacity="0.5" stroke="#000000" stroke-opacity="0.5" stroke-width="3.2"/>
<circle clip-path="url(#clip142)" cx="1745.97" cy="87.9763" r="14.4" fill="#009af9" fill-rule="evenodd" fill-opacity="0.5" stroke="#000000" stroke-opacity="0.5" stroke-width="3.2"/>
<circle clip-path="url(#clip142)" cx="1641.41" cy="628.312" r="14.4" fill="#009af9" fill-rule="evenodd" fill-opacity="0.5" stroke="#000000" stroke-opacity="0.5" stroke-width="3.2"/>
<circle clip-path="url(#clip142)" cx="1838.72" cy="559.665" r="14.4" fill="#009af9" fill-rule="evenodd" fill-opacity="0.5" stroke="#000000" stroke-opacity="0.5" stroke-width="3.2"/>
<circle clip-path="url(#clip142)" cx="1488.02" cy="891.533" r="14.4" fill="#009af9" fill-rule="evenodd" fill-opacity="0.5" stroke="#000000" stroke-opacity="0.5" stroke-width="3.2"/>
<circle clip-path="url(#clip142)" cx="1131.89" cy="1445.72" r="14.4" fill="#009af9" fill-rule="evenodd" fill-opacity="0.5" stroke="#000000" stroke-opacity="0.5" stroke-width="3.2"/>
<circle clip-path="url(#clip142)" cx="1372.07" cy="713.573" r="14.4" fill="#009af9" fill-rule="evenodd" fill-opacity="0.5" stroke="#000000" stroke-opacity="0.5" stroke-width="3.2"/>
<path clip-path="url(#clip142)" d="M209.891 937.503 L1131.89 1445.72 L1681.42 1281.31 L1985.12 1095.13 L2287.6 706.665 L2290.34 664.24 L2245.35 484.604 L1745.97 87.9763 L209.891 937.503 L209.891 937.503  Z" fill="#e26f46" fill-rule="evenodd" fill-opacity="0.2"/>
<polyline clip-path="url(#clip142)" style="stroke:#000000; stroke-linecap:round; stroke-linejoin:round; stroke-width:4; stroke-opacity:0.2; fill:none" points="209.891,937.503 1131.89,1445.72 1681.42,1281.31 1985.12,1095.13 2287.6,706.665 2290.34,664.24 2245.35,484.604 1745.97,87.9763 209.891,937.503 "/>
</svg>
