<?xml version="1.0" encoding="utf-8"?>
<svg xmlns="http://www.w3.org/2000/svg" xmlns:xlink="http://www.w3.org/1999/xlink" width="600" height="400" viewBox="0 0 2400 1600">
<defs>
  <clipPath id="clip760">
    <rect x="0" y="0" width="2400" height="1600"/>
  </clipPath>
</defs>
<path clip-path="url(#clip760)" d="M0 1600 L2400 1600 L2400 0 L0 0  Z" fill="#ffffff" fill-rule="evenodd" fill-opacity="1"/>
<defs>
  <clipPath id="clip761">
    <rect x="480" y="0" width="1681" height="1600"/>
  </clipPath>
</defs>
<path clip-path="url(#clip760)" d="M147.478 1486.45 L2352.76 1486.45 L2352.76 47.2441 L147.478 47.2441  Z" fill="#ffffff" fill-rule="evenodd" fill-opacity="1"/>
<defs>
  <clipPath id="clip762">
    <rect x="147" y="47" width="2206" height="1440"/>
  </clipPath>
</defs>
<polyline clip-path="url(#clip762)" style="stroke:#000000; stroke-linecap:round; stroke-linejoin:round; stroke-width:2; stroke-opacity:0.1; fill:none" points="462.847,1486.45 462.847,47.2441 "/>
<polyline clip-path="url(#clip762)" style="stroke:#000000; stroke-linecap:round; stroke-linejoin:round; stroke-width:2; stroke-opacity:0.1; fill:none" points="917.016,1486.45 917.016,47.2441 "/>
<polyline clip-path="url(#clip762)" style="stroke:#000000; stroke-linecap:round; stroke-linejoin:round; stroke-width:2; stroke-opacity:0.1; fill:none" points="1371.19,1486.45 1371.19,47.2441 "/>
<polyline clip-path="url(#clip762)" style="stroke:#000000; stroke-linecap:round; stroke-linejoin:round; stroke-width:2; stroke-opacity:0.1; fill:none" points="1825.35,1486.45 1825.35,47.2441 "/>
<polyline clip-path="url(#clip762)" style="stroke:#000000; stroke-linecap:round; stroke-linejoin:round; stroke-width:2; stroke-opacity:0.1; fill:none" points="2279.52,1486.45 2279.52,47.2441 "/>
<polyline clip-path="url(#clip762)" style="stroke:#000000; stroke-linecap:round; stroke-linejoin:round; stroke-width:2; stroke-opacity:0.1; fill:none" points="147.478,1322.04 2352.76,1322.04 "/>
<polyline clip-path="url(#clip762)" style="stroke:#000000; stroke-linecap:round; stroke-linejoin:round; stroke-width:2; stroke-opacity:0.1; fill:none" points="147.478,953.983 2352.76,953.983 "/>
<polyline clip-path="url(#clip762)" style="stroke:#000000; stroke-linecap:round; stroke-linejoin:round; stroke-width:2; stroke-opacity:0.1; fill:none" points="147.478,585.924 2352.76,585.924 "/>
<polyline clip-path="url(#clip762)" style="stroke:#000000; stroke-linecap:round; stroke-linejoin:round; stroke-width:2; stroke-opacity:0.1; fill:none" points="147.478,217.865 2352.76,217.865 "/>
<polyline clip-path="url(#clip760)" style="stroke:#000000; stroke-linecap:round; stroke-linejoin:round; stroke-width:4; stroke-opacity:1; fill:none" points="147.478,1486.45 2352.76,1486.45 "/>
<polyline clip-path="url(#clip760)" style="stroke:#000000; stroke-linecap:round; stroke-linejoin:round; stroke-width:4; stroke-opacity:1; fill:none" points="462.847,1486.45 462.847,1467.55 "/>
<polyline clip-path="url(#clip760)" style="stroke:#000000; stroke-linecap:round; stroke-linejoin:round; stroke-width:4; stroke-opacity:1; fill:none" points="917.016,1486.45 917.016,1467.55 "/>
<polyline clip-path="url(#clip760)" style="stroke:#000000; stroke-linecap:round; stroke-linejoin:round; stroke-width:4; stroke-opacity:1; fill:none" points="1371.19,1486.45 1371.19,1467.55 "/>
<polyline clip-path="url(#clip760)" style="stroke:#000000; stroke-linecap:round; stroke-linejoin:round; stroke-width:4; stroke-opacity:1; fill:none" points="1825.35,1486.45 1825.35,1467.55 "/>
<polyline clip-path="url(#clip760)" style="stroke:#000000; stroke-linecap:round; stroke-linejoin:round; stroke-width:4; stroke-opacity:1; fill:none" points="2279.52,1486.45 2279.52,1467.55 "/>
<path clip-path="url(#clip760)" d="M432.789 1532.02 L462.465 1532.02 L462.465 1535.95 L432.789 1535.95 L432.789 1532.02 Z" fill="#000000" fill-rule="nonzero" fill-opacity="1" /><path clip-path="url(#clip760)" d="M476.585 1544.91 L492.905 1544.91 L492.905 1548.85 L470.96 1548.85 L470.96 1544.91 Q473.622 1542.16 478.206 1537.53 Q482.812 1532.88 483.993 1531.53 Q486.238 1529.01 487.118 1527.27 Q488.02 1525.51 488.02 1523.82 Q488.02 1521.07 486.076 1519.33 Q484.155 1517.6 481.053 1517.6 Q478.854 1517.6 476.4 1518.36 Q473.97 1519.13 471.192 1520.68 L471.192 1515.95 Q474.016 1514.82 476.47 1514.24 Q478.923 1513.66 480.96 1513.66 Q486.331 1513.66 489.525 1516.35 Q492.72 1519.03 492.72 1523.52 Q492.72 1525.65 491.909 1527.57 Q491.122 1529.47 489.016 1532.07 Q488.437 1532.74 485.335 1535.95 Q482.233 1539.15 476.585 1544.91 Z" fill="#000000" fill-rule="nonzero" fill-opacity="1" /><path clip-path="url(#clip760)" d="M886.773 1532.02 L916.449 1532.02 L916.449 1535.95 L886.773 1535.95 L886.773 1532.02 Z" fill="#000000" fill-rule="nonzero" fill-opacity="1" /><path clip-path="url(#clip760)" d="M927.352 1544.91 L934.991 1544.91 L934.991 1518.55 L926.68 1520.21 L926.68 1515.95 L934.944 1514.29 L939.62 1514.29 L939.62 1544.91 L947.259 1544.91 L947.259 1548.85 L927.352 1548.85 L927.352 1544.91 Z" fill="#000000" fill-rule="nonzero" fill-opacity="1" /><path clip-path="url(#clip760)" d="M1371.19 1517.37 Q1367.57 1517.37 1365.75 1520.93 Q1363.94 1524.47 1363.94 1531.6 Q1363.94 1538.71 1365.75 1542.27 Q1367.57 1545.82 1371.19 1545.82 Q1374.82 1545.82 1376.63 1542.27 Q1378.45 1538.71 1378.45 1531.6 Q1378.45 1524.47 1376.63 1520.93 Q1374.82 1517.37 1371.19 1517.37 M1371.19 1513.66 Q1377 1513.66 1380.05 1518.27 Q1383.13 1522.85 1383.13 1531.6 Q1383.13 1540.33 1380.05 1544.94 Q1377 1549.52 1371.19 1549.52 Q1365.38 1549.52 1362.3 1544.94 Q1359.24 1540.33 1359.24 1531.6 Q1359.24 1522.85 1362.3 1518.27 Q1365.38 1513.66 1371.19 1513.66 Z" fill="#000000" fill-rule="nonzero" fill-opacity="1" /><path clip-path="url(#clip760)" d="M1815.74 1544.91 L1823.38 1544.91 L1823.38 1518.55 L1815.07 1520.21 L1815.07 1515.95 L1823.33 1514.29 L1828 1514.29 L1828 1544.91 L1835.64 1544.91 L1835.64 1548.85 L1815.74 1548.85 L1815.74 1544.91 Z" fill="#000000" fill-rule="nonzero" fill-opacity="1" /><path clip-path="url(#clip760)" d="M2274.18 1544.91 L2290.5 1544.91 L2290.5 1548.85 L2268.55 1548.85 L2268.55 1544.91 Q2271.21 1542.16 2275.8 1537.53 Q2280.4 1532.88 2281.58 1531.53 Q2283.83 1529.01 2284.71 1527.27 Q2285.61 1525.51 2285.61 1523.82 Q2285.61 1521.07 2283.67 1519.33 Q2281.75 1517.6 2278.64 1517.6 Q2276.44 1517.6 2273.99 1518.36 Q2271.56 1519.13 2268.78 1520.68 L2268.78 1515.95 Q2271.61 1514.82 2274.06 1514.24 Q2276.51 1513.66 2278.55 1513.66 Q2283.92 1513.66 2287.12 1516.35 Q2290.31 1519.03 2290.31 1523.52 Q2290.31 1525.65 2289.5 1527.57 Q2288.71 1529.47 2286.61 1532.07 Q2286.03 1532.74 2282.93 1535.95 Q2279.82 1539.15 2274.18 1544.91 Z" fill="#000000" fill-rule="nonzero" fill-opacity="1" /><polyline clip-path="url(#clip760)" style="stroke:#000000; stroke-linecap:round; stroke-linejoin:round; stroke-width:4; stroke-opacity:1; fill:none" points="147.478,1486.45 147.478,47.2441 "/>
<polyline clip-path="url(#clip760)" style="stroke:#000000; stroke-linecap:round; stroke-linejoin:round; stroke-width:4; stroke-opacity:1; fill:none" points="147.478,1322.04 166.376,1322.04 "/>
<polyline clip-path="url(#clip760)" style="stroke:#000000; stroke-linecap:round; stroke-linejoin:round; stroke-width:4; stroke-opacity:1; fill:none" points="147.478,953.983 166.376,953.983 "/>
<polyline clip-path="url(#clip760)" style="stroke:#000000; stroke-linecap:round; stroke-linejoin:round; stroke-width:4; stroke-opacity:1; fill:none" points="147.478,585.924 166.376,585.924 "/>
<polyline clip-path="url(#clip760)" style="stroke:#000000; stroke-linecap:round; stroke-linejoin:round; stroke-width:4; stroke-opacity:1; fill:none" points="147.478,217.865 166.376,217.865 "/>
<path clip-path="url(#clip760)" d="M50.9921 1322.49 L80.6679 1322.49 L80.6679 1326.43 L50.9921 1326.43 L50.9921 1322.49 Z" fill="#000000" fill-rule="nonzero" fill-opacity="1" /><path clip-path="url(#clip760)" d="M91.5706 1335.39 L99.2095 1335.39 L99.2095 1309.02 L90.8993 1310.69 L90.8993 1306.43 L99.1632 1304.76 L103.839 1304.76 L103.839 1335.39 L111.478 1335.39 L111.478 1339.32 L91.5706 1339.32 L91.5706 1335.39 Z" fill="#000000" fill-rule="nonzero" fill-opacity="1" /><path clip-path="url(#clip760)" d="M99.5335 939.782 Q95.9224 939.782 94.0937 943.347 Q92.2882 946.888 92.2882 954.018 Q92.2882 961.124 94.0937 964.689 Q95.9224 968.231 99.5335 968.231 Q103.168 968.231 104.973 964.689 Q106.802 961.124 106.802 954.018 Q106.802 946.888 104.973 943.347 Q103.168 939.782 99.5335 939.782 M99.5335 936.078 Q105.344 936.078 108.399 940.685 Q111.478 945.268 111.478 954.018 Q111.478 962.745 108.399 967.351 Q105.344 971.935 99.5335 971.935 Q93.7234 971.935 90.6447 967.351 Q87.5892 962.745 87.5892 954.018 Q87.5892 945.268 90.6447 940.685 Q93.7234 936.078 99.5335 936.078 Z" fill="#000000" fill-rule="nonzero" fill-opacity="1" /><path clip-path="url(#clip760)" d="M91.5706 599.269 L99.2095 599.269 L99.2095 572.903 L90.8993 574.57 L90.8993 570.311 L99.1632 568.644 L103.839 568.644 L103.839 599.269 L111.478 599.269 L111.478 603.204 L91.5706 603.204 L91.5706 599.269 Z" fill="#000000" fill-rule="nonzero" fill-opacity="1" /><path clip-path="url(#clip760)" d="M95.1586 231.209 L111.478 231.209 L111.478 235.145 L89.5336 235.145 L89.5336 231.209 Q92.1956 228.455 96.7789 223.825 Q101.385 219.172 102.566 217.83 Q104.811 215.307 105.691 213.571 Q106.594 211.811 106.594 210.121 Q106.594 207.367 104.649 205.631 Q102.728 203.895 99.6261 203.895 Q97.4271 203.895 94.9734 204.659 Q92.5428 205.422 89.7651 206.973 L89.7651 202.251 Q92.5891 201.117 95.0428 200.538 Q97.4965 199.96 99.5335 199.96 Q104.904 199.96 108.098 202.645 Q111.293 205.33 111.293 209.821 Q111.293 211.95 110.483 213.871 Q109.696 215.77 107.589 218.362 Q107.01 219.033 103.909 222.251 Q100.807 225.445 95.1586 231.209 Z" fill="#000000" fill-rule="nonzero" fill-opacity="1" /><circle clip-path="url(#clip762)" cx="861.091" cy="164.954" r="14.4" fill="#009af9" fill-rule="evenodd" fill-opacity="0.5" stroke="#000000" stroke-opacity="0.5" stroke-width="3.2"/>
<circle clip-path="url(#clip762)" cx="2002.66" cy="1186.18" r="14.4" fill="#009af9" fill-rule="evenodd" fill-opacity="0.5" stroke="#000000" stroke-opacity="0.5" stroke-width="3.2"/>
<circle clip-path="url(#clip762)" cx="1447.6" cy="87.9763" r="14.4" fill="#009af9" fill-rule="evenodd" fill-opacity="0.5" stroke="#000000" stroke-opacity="0.5" stroke-width="3.2"/>
<circle clip-path="url(#clip762)" cx="1092.12" cy="867.53" r="14.4" fill="#009af9" fill-rule="evenodd" fill-opacity="0.5" stroke="#000000" stroke-opacity="0.5" stroke-width="3.2"/>
<circle clip-path="url(#clip762)" cx="1041.39" cy="956.927" r="14.4" fill="#009af9" fill-rule="evenodd" fill-opacity="0.5" stroke="#000000" stroke-opacity="0.5" stroke-width="3.2"/>
<circle clip-path="url(#clip762)" cx="209.891" cy="820.897" r="14.4" fill="#009af9" fill-rule="evenodd" fill-opacity="0.5" stroke="#000000" stroke-opacity="0.5" stroke-width="3.2"/>
<circle clip-path="url(#clip762)" cx="1269.27" cy="282.88" r="14.4" fill="#009af9" fill-rule="evenodd" fill-opacity="0.5" stroke="#000000" stroke-opacity="0.5" stroke-width="3.2"/>
<circle clip-path="url(#clip762)" cx="1838.11" cy="768.124" r="14.4" fill="#009af9" fill-rule="evenodd" fill-opacity="0.5" stroke="#000000" stroke-opacity="0.5" stroke-width="3.2"/>
<circle clip-path="url(#clip762)" cx="1537.63" cy="1192.24" r="14.4" fill="#009af9" fill-rule="evenodd" fill-opacity="0.5" stroke="#000000" stroke-opacity="0.5" stroke-width="3.2"/>
<circle clip-path="url(#clip762)" cx="699.594" cy="553.495" r="14.4" fill="#009af9" fill-rule="evenodd" fill-opacity="0.5" stroke="#000000" stroke-opacity="0.5" stroke-width="3.2"/>
<circle clip-path="url(#clip762)" cx="1363.56" cy="1129.58" r="14.4" fill="#009af9" fill-rule="evenodd" fill-opacity="0.5" stroke="#000000" stroke-opacity="0.5" stroke-width="3.2"/>
<circle clip-path="url(#clip762)" cx="1541.45" cy="401.951" r="14.4" fill="#009af9" fill-rule="evenodd" fill-opacity="0.5" stroke="#000000" stroke-opacity="0.5" stroke-width="3.2"/>
<circle clip-path="url(#clip762)" cx="1628.17" cy="1141.15" r="14.4" fill="#009af9" fill-rule="evenodd" fill-opacity="0.5" stroke="#000000" stroke-opacity="0.5" stroke-width="3.2"/>
<circle clip-path="url(#clip762)" cx="1847.73" cy="1049.98" r="14.4" fill="#009af9" fill-rule="evenodd" fill-opacity="0.5" stroke="#000000" stroke-opacity="0.5" stroke-width="3.2"/>
<circle clip-path="url(#clip762)" cx="1176.83" cy="1278.39" r="14.4" fill="#009af9" fill-rule="evenodd" fill-opacity="0.5" stroke="#000000" stroke-opacity="0.5" stroke-width="3.2"/>
<circle clip-path="url(#clip762)" cx="1086.69" cy="1445.72" r="14.4" fill="#009af9" fill-rule="evenodd" fill-opacity="0.5" stroke="#000000" stroke-opacity="0.5" stroke-width="3.2"/>
<circle clip-path="url(#clip762)" cx="2166.48" cy="1227.72" r="14.4" fill="#009af9" fill-rule="evenodd" fill-opacity="0.5" stroke="#000000" stroke-opacity="0.5" stroke-width="3.2"/>
<circle clip-path="url(#clip762)" cx="867.079" cy="471.893" r="14.4" fill="#009af9" fill-rule="evenodd" fill-opacity="0.5" stroke="#000000" stroke-opacity="0.5" stroke-width="3.2"/>
<circle clip-path="url(#clip762)" cx="2290.34" cy="729.805" r="14.4" fill="#009af9" fill-rule="evenodd" fill-opacity="0.5" stroke="#000000" stroke-opacity="0.5" stroke-width="3.2"/>
<circle clip-path="url(#clip762)" cx="1602.38" cy="317.665" r="14.4" fill="#009af9" fill-rule="evenodd" fill-opacity="0.5" stroke="#000000" stroke-opacity="0.5" stroke-width="3.2"/>
<circle clip-path="url(#clip762)" cx="892.351" cy="1081.92" r="14.4" fill="#009af9" fill-rule="evenodd" fill-opacity="0.5" stroke="#000000" stroke-opacity="0.5" stroke-width="3.2"/>
<circle clip-path="url(#clip762)" cx="1868.84" cy="552.019" r="14.4" fill="#009af9" fill-rule="evenodd" fill-opacity="0.5" stroke="#000000" stroke-opacity="0.5" stroke-width="3.2"/>
<circle clip-path="url(#clip762)" cx="2218.82" cy="1210.71" r="14.4" fill="#009af9" fill-rule="evenodd" fill-opacity="0.5" stroke="#000000" stroke-opacity="0.5" stroke-width="3.2"/>
<circle clip-path="url(#clip762)" cx="1492.12" cy="766.432" r="14.4" fill="#009af9" fill-rule="evenodd" fill-opacity="0.5" stroke="#000000" stroke-opacity="0.5" stroke-width="3.2"/>
<circle clip-path="url(#clip762)" cx="1251.7" cy="1425.73" r="14.4" fill="#009af9" fill-rule="evenodd" fill-opacity="0.5" stroke="#000000" stroke-opacity="0.5" stroke-width="3.2"/>
<circle clip-path="url(#clip762)" cx="1092.92" cy="1114.37" r="14.4" fill="#009af9" fill-rule="evenodd" fill-opacity="0.5" stroke="#000000" stroke-opacity="0.5" stroke-width="3.2"/>
<circle clip-path="url(#clip762)" cx="840.083" cy="1318.76" r="14.4" fill="#009af9" fill-rule="evenodd" fill-opacity="0.5" stroke="#000000" stroke-opacity="0.5" stroke-width="3.2"/>
<circle clip-path="url(#clip762)" cx="954.297" cy="563.295" r="14.4" fill="#009af9" fill-rule="evenodd" fill-opacity="0.5" stroke="#000000" stroke-opacity="0.5" stroke-width="3.2"/>
<circle clip-path="url(#clip762)" cx="1392.24" cy="1386.02" r="14.4" fill="#009af9" fill-rule="evenodd" fill-opacity="0.5" stroke="#000000" stroke-opacity="0.5" stroke-width="3.2"/>
<circle clip-path="url(#clip762)" cx="946.579" cy="1058.57" r="14.4" fill="#009af9" fill-rule="evenodd" fill-opacity="0.5" stroke="#000000" stroke-opacity="0.5" stroke-width="3.2"/>
<path clip-path="url(#clip762)" d="M209.891 820.897 L840.083 1318.76 L1086.69 1445.72 L1251.7 1425.73 L2166.48 1227.72 L2218.82 1210.71 L2290.34 729.805 L1447.6 87.9763 L861.091 164.954 L209.891 820.897 L209.891 820.897  Z" fill="#e26f46" fill-rule="evenodd" fill-opacity="0.2"/>
<polyline clip-path="url(#clip762)" style="stroke:#000000; stroke-linecap:round; stroke-linejoin:round; stroke-width:4; stroke-opacity:0.2; fill:none" points="209.891,820.897 840.083,1318.76 1086.69,1445.72 1251.7,1425.73 2166.48,1227.72 2218.82,1210.71 2290.34,729.805 1447.6,87.9763 861.091,164.954 209.891,820.897 "/>
</svg>
