<?xml version="1.0" encoding="utf-8"?>
<svg xmlns="http://www.w3.org/2000/svg" xmlns:xlink="http://www.w3.org/1999/xlink" width="600" height="400" viewBox="0 0 2400 1600">
<defs>
  <clipPath id="clip790">
    <rect x="0" y="0" width="2400" height="1600"/>
  </clipPath>
</defs>
<path clip-path="url(#clip790)" d="M0 1600 L2400 1600 L2400 0 L0 0  Z" fill="#ffffff" fill-rule="evenodd" fill-opacity="1"/>
<defs>
  <clipPath id="clip791">
    <rect x="480" y="0" width="1681" height="1600"/>
  </clipPath>
</defs>
<path clip-path="url(#clip790)" d="M147.478 1486.45 L2352.76 1486.45 L2352.76 47.2441 L147.478 47.2441  Z" fill="#ffffff" fill-rule="evenodd" fill-opacity="1"/>
<defs>
  <clipPath id="clip792">
    <rect x="147" y="47" width="2206" height="1440"/>
  </clipPath>
</defs>
<polyline clip-path="url(#clip792)" style="stroke:#000000; stroke-linecap:round; stroke-linejoin:round; stroke-width:2; stroke-opacity:0.1; fill:none" points="337.188,1486.45 337.188,47.2441 "/>
<polyline clip-path="url(#clip792)" style="stroke:#000000; stroke-linecap:round; stroke-linejoin:round; stroke-width:2; stroke-opacity:0.1; fill:none" points="1006.35,1486.45 1006.35,47.2441 "/>
<polyline clip-path="url(#clip792)" style="stroke:#000000; stroke-linecap:round; stroke-linejoin:round; stroke-width:2; stroke-opacity:0.1; fill:none" points="1675.51,1486.45 1675.51,47.2441 "/>
<polyline clip-path="url(#clip792)" style="stroke:#000000; stroke-linecap:round; stroke-linejoin:round; stroke-width:2; stroke-opacity:0.1; fill:none" points="2344.67,1486.45 2344.67,47.2441 "/>
<polyline clip-path="url(#clip792)" style="stroke:#000000; stroke-linecap:round; stroke-linejoin:round; stroke-width:2; stroke-opacity:0.1; fill:none" points="147.478,1319.69 2352.76,1319.69 "/>
<polyline clip-path="url(#clip792)" style="stroke:#000000; stroke-linecap:round; stroke-linejoin:round; stroke-width:2; stroke-opacity:0.1; fill:none" points="147.478,1066.11 2352.76,1066.11 "/>
<polyline clip-path="url(#clip792)" style="stroke:#000000; stroke-linecap:round; stroke-linejoin:round; stroke-width:2; stroke-opacity:0.1; fill:none" points="147.478,812.537 2352.76,812.537 "/>
<polyline clip-path="url(#clip792)" style="stroke:#000000; stroke-linecap:round; stroke-linejoin:round; stroke-width:2; stroke-opacity:0.1; fill:none" points="147.478,558.959 2352.76,558.959 "/>
<polyline clip-path="url(#clip792)" style="stroke:#000000; stroke-linecap:round; stroke-linejoin:round; stroke-width:2; stroke-opacity:0.1; fill:none" points="147.478,305.382 2352.76,305.382 "/>
<polyline clip-path="url(#clip792)" style="stroke:#000000; stroke-linecap:round; stroke-linejoin:round; stroke-width:2; stroke-opacity:0.1; fill:none" points="147.478,51.8048 2352.76,51.8048 "/>
<polyline clip-path="url(#clip790)" style="stroke:#000000; stroke-linecap:round; stroke-linejoin:round; stroke-width:4; stroke-opacity:1; fill:none" points="147.478,1486.45 2352.76,1486.45 "/>
<polyline clip-path="url(#clip790)" style="stroke:#000000; stroke-linecap:round; stroke-linejoin:round; stroke-width:4; stroke-opacity:1; fill:none" points="337.188,1486.45 337.188,1467.55 "/>
<polyline clip-path="url(#clip790)" style="stroke:#000000; stroke-linecap:round; stroke-linejoin:round; stroke-width:4; stroke-opacity:1; fill:none" points="1006.35,1486.45 1006.35,1467.55 "/>
<polyline clip-path="url(#clip790)" style="stroke:#000000; stroke-linecap:round; stroke-linejoin:round; stroke-width:4; stroke-opacity:1; fill:none" points="1675.51,1486.45 1675.51,1467.55 "/>
<polyline clip-path="url(#clip790)" style="stroke:#000000; stroke-linecap:round; stroke-linejoin:round; stroke-width:4; stroke-opacity:1; fill:none" points="2344.67,1486.45 2344.67,1467.55 "/>
<path clip-path="url(#clip790)" d="M306.945 1532.02 L336.621 1532.02 L336.621 1535.95 L306.945 1535.95 L306.945 1532.02 Z" fill="#000000" fill-rule="nonzero" fill-opacity="1" /><path clip-path="url(#clip790)" d="M347.524 1544.91 L355.163 1544.91 L355.163 1518.55 L346.852 1520.21 L346.852 1515.95 L355.116 1514.29 L359.792 1514.29 L359.792 1544.91 L367.431 1544.91 L367.431 1548.85 L347.524 1548.85 L347.524 1544.91 Z" fill="#000000" fill-rule="nonzero" fill-opacity="1" /><path clip-path="url(#clip790)" d="M1006.35 1517.37 Q1002.74 1517.37 1000.91 1520.93 Q999.103 1524.47 999.103 1531.6 Q999.103 1538.71 1000.91 1542.27 Q1002.74 1545.82 1006.35 1545.82 Q1009.98 1545.82 1011.79 1542.27 Q1013.62 1538.71 1013.62 1531.6 Q1013.62 1524.47 1011.79 1520.93 Q1009.98 1517.37 1006.35 1517.37 M1006.35 1513.66 Q1012.16 1513.66 1015.21 1518.27 Q1018.29 1522.85 1018.29 1531.6 Q1018.29 1540.33 1015.21 1544.94 Q1012.16 1549.52 1006.35 1549.52 Q1000.54 1549.52 997.46 1544.94 Q994.404 1540.33 994.404 1531.6 Q994.404 1522.85 997.46 1518.27 Q1000.54 1513.66 1006.35 1513.66 Z" fill="#000000" fill-rule="nonzero" fill-opacity="1" /><path clip-path="url(#clip790)" d="M1665.89 1544.91 L1673.53 1544.91 L1673.53 1518.55 L1665.22 1520.21 L1665.22 1515.95 L1673.48 1514.29 L1678.16 1514.29 L1678.16 1544.91 L1685.8 1544.91 L1685.8 1548.85 L1665.89 1548.85 L1665.89 1544.91 Z" fill="#000000" fill-rule="nonzero" fill-opacity="1" /><path clip-path="url(#clip790)" d="M2339.32 1544.91 L2355.64 1544.91 L2355.64 1548.85 L2333.7 1548.85 L2333.7 1544.91 Q2336.36 1542.16 2340.94 1537.53 Q2345.55 1532.88 2346.73 1531.53 Q2348.97 1529.01 2349.85 1527.27 Q2350.76 1525.51 2350.76 1523.82 Q2350.76 1521.07 2348.81 1519.33 Q2346.89 1517.6 2343.79 1517.6 Q2341.59 1517.6 2339.14 1518.36 Q2336.71 1519.13 2333.93 1520.68 L2333.93 1515.95 Q2336.75 1514.82 2339.21 1514.24 Q2341.66 1513.66 2343.7 1513.66 Q2349.07 1513.66 2352.26 1516.35 Q2355.46 1519.03 2355.46 1523.52 Q2355.46 1525.65 2354.65 1527.57 Q2353.86 1529.47 2351.75 1532.07 Q2351.17 1532.74 2348.07 1535.95 Q2344.97 1539.15 2339.32 1544.91 Z" fill="#000000" fill-rule="nonzero" fill-opacity="1" /><polyline clip-path="url(#clip790)" style="stroke:#000000; stroke-linecap:round; stroke-linejoin:round; stroke-width:4; stroke-opacity:1; fill:none" points="147.478,1486.45 147.478,47.2441 "/>
<polyline clip-path="url(#clip790)" style="stroke:#000000; stroke-linecap:round; stroke-linejoin:round; stroke-width:4; stroke-opacity:1; fill:none" points="147.478,1319.69 166.376,1319.69 "/>
<polyline clip-path="url(#clip790)" style="stroke:#000000; stroke-linecap:round; stroke-linejoin:round; stroke-width:4; stroke-opacity:1; fill:none" points="147.478,1066.11 166.376,1066.11 "/>
<polyline clip-path="url(#clip790)" style="stroke:#000000; stroke-linecap:round; stroke-linejoin:round; stroke-width:4; stroke-opacity:1; fill:none" points="147.478,812.537 166.376,812.537 "/>
<polyline clip-path="url(#clip790)" style="stroke:#000000; stroke-linecap:round; stroke-linejoin:round; stroke-width:4; stroke-opacity:1; fill:none" points="147.478,558.959 166.376,558.959 "/>
<polyline clip-path="url(#clip790)" style="stroke:#000000; stroke-linecap:round; stroke-linejoin:round; stroke-width:4; stroke-opacity:1; fill:none" points="147.478,305.382 166.376,305.382 "/>
<polyline clip-path="url(#clip790)" style="stroke:#000000; stroke-linecap:round; stroke-linejoin:round; stroke-width:4; stroke-opacity:1; fill:none" points="147.478,51.8048 166.376,51.8048 "/>
<path clip-path="url(#clip790)" d="M51.3625 1320.14 L81.0383 1320.14 L81.0383 1324.08 L51.3625 1324.08 L51.3625 1320.14 Z" fill="#000000" fill-rule="nonzero" fill-opacity="1" /><path clip-path="url(#clip790)" d="M95.1586 1333.04 L111.478 1333.04 L111.478 1336.97 L89.5336 1336.97 L89.5336 1333.04 Q92.1956 1330.28 96.7789 1325.65 Q101.385 1321 102.566 1319.66 Q104.811 1317.13 105.691 1315.4 Q106.594 1313.64 106.594 1311.95 Q106.594 1309.19 104.649 1307.46 Q102.728 1305.72 99.6261 1305.72 Q97.4271 1305.72 94.9734 1306.49 Q92.5428 1307.25 89.7651 1308.8 L89.7651 1304.08 Q92.5891 1302.94 95.0428 1302.37 Q97.4965 1301.79 99.5335 1301.79 Q104.904 1301.79 108.098 1304.47 Q111.293 1307.16 111.293 1311.65 Q111.293 1313.78 110.483 1315.7 Q109.696 1317.6 107.589 1320.19 Q107.01 1320.86 103.909 1324.08 Q100.807 1327.27 95.1586 1333.04 Z" fill="#000000" fill-rule="nonzero" fill-opacity="1" /><path clip-path="url(#clip790)" d="M50.9921 1066.57 L80.6679 1066.57 L80.6679 1070.5 L50.9921 1070.5 L50.9921 1066.57 Z" fill="#000000" fill-rule="nonzero" fill-opacity="1" /><path clip-path="url(#clip790)" d="M91.5706 1079.46 L99.2095 1079.46 L99.2095 1053.09 L90.8993 1054.76 L90.8993 1050.5 L99.1632 1048.83 L103.839 1048.83 L103.839 1079.46 L111.478 1079.46 L111.478 1083.39 L91.5706 1083.39 L91.5706 1079.46 Z" fill="#000000" fill-rule="nonzero" fill-opacity="1" /><path clip-path="url(#clip790)" d="M99.5335 798.335 Q95.9224 798.335 94.0937 801.9 Q92.2882 805.442 92.2882 812.572 Q92.2882 819.678 94.0937 823.243 Q95.9224 826.784 99.5335 826.784 Q103.168 826.784 104.973 823.243 Q106.802 819.678 106.802 812.572 Q106.802 805.442 104.973 801.9 Q103.168 798.335 99.5335 798.335 M99.5335 794.632 Q105.344 794.632 108.399 799.238 Q111.478 803.822 111.478 812.572 Q111.478 821.298 108.399 825.905 Q105.344 830.488 99.5335 830.488 Q93.7234 830.488 90.6447 825.905 Q87.5892 821.298 87.5892 812.572 Q87.5892 803.822 90.6447 799.238 Q93.7234 794.632 99.5335 794.632 Z" fill="#000000" fill-rule="nonzero" fill-opacity="1" /><path clip-path="url(#clip790)" d="M91.5706 572.304 L99.2095 572.304 L99.2095 545.939 L90.8993 547.605 L90.8993 543.346 L99.1632 541.679 L103.839 541.679 L103.839 572.304 L111.478 572.304 L111.478 576.239 L91.5706 576.239 L91.5706 572.304 Z" fill="#000000" fill-rule="nonzero" fill-opacity="1" /><path clip-path="url(#clip790)" d="M95.1586 318.727 L111.478 318.727 L111.478 322.662 L89.5336 322.662 L89.5336 318.727 Q92.1956 315.972 96.7789 311.343 Q101.385 306.69 102.566 305.347 Q104.811 302.824 105.691 301.088 Q106.594 299.329 106.594 297.639 Q106.594 294.884 104.649 293.148 Q102.728 291.412 99.6261 291.412 Q97.4271 291.412 94.9734 292.176 Q92.5428 292.94 89.7651 294.491 L89.7651 289.769 Q92.5891 288.635 95.0428 288.056 Q97.4965 287.477 99.5335 287.477 Q104.904 287.477 108.098 290.162 Q111.293 292.847 111.293 297.338 Q111.293 299.468 110.483 301.389 Q109.696 303.287 107.589 305.88 Q107.01 306.551 103.909 309.769 Q100.807 312.963 95.1586 318.727 Z" fill="#000000" fill-rule="nonzero" fill-opacity="1" /><path clip-path="url(#clip790)" d="M104.348 50.4506 Q107.705 51.1682 109.58 53.4367 Q111.478 55.7052 111.478 59.0385 Q111.478 64.1543 107.959 66.9552 Q104.441 69.7561 97.9595 69.7561 Q95.7836 69.7561 93.4688 69.3163 Q91.1771 68.8996 88.7234 68.0431 L88.7234 63.5293 Q90.6678 64.6635 92.9826 65.2422 Q95.2974 65.8209 97.8206 65.8209 Q102.219 65.8209 104.51 64.0848 Q106.825 62.3487 106.825 59.0385 Q106.825 55.983 104.672 54.2701 Q102.543 52.534 98.7234 52.534 L94.6956 52.534 L94.6956 48.6914 L98.9085 48.6914 Q102.358 48.6914 104.186 47.3256 Q106.015 45.9368 106.015 43.3442 Q106.015 40.6822 104.117 39.2701 Q102.242 37.835 98.7234 37.835 Q96.8021 37.835 94.603 38.2516 Q92.4039 38.6683 89.7651 39.5479 L89.7651 35.3813 Q92.4271 34.6405 94.7419 34.2702 Q97.0798 33.8998 99.14 33.8998 Q104.464 33.8998 107.566 36.3303 Q110.668 38.7377 110.668 42.8581 Q110.668 45.7284 109.024 47.7192 Q107.381 49.6867 104.348 50.4506 Z" fill="#000000" fill-rule="nonzero" fill-opacity="1" /><circle clip-path="url(#clip792)" cx="860.629" cy="638.533" r="14.4" fill="#009af9" fill-rule="evenodd" fill-opacity="0.5" stroke="#000000" stroke-opacity="0.5" stroke-width="3.2"/>
<circle clip-path="url(#clip792)" cx="1431.08" cy="1040.38" r="14.4" fill="#009af9" fill-rule="evenodd" fill-opacity="0.5" stroke="#000000" stroke-opacity="0.5" stroke-width="3.2"/>
<circle clip-path="url(#clip792)" cx="1072.38" cy="461.886" r="14.4" fill="#009af9" fill-rule="evenodd" fill-opacity="0.5" stroke="#000000" stroke-opacity="0.5" stroke-width="3.2"/>
<circle clip-path="url(#clip792)" cx="1251.38" cy="1041.15" r="14.4" fill="#009af9" fill-rule="evenodd" fill-opacity="0.5" stroke="#000000" stroke-opacity="0.5" stroke-width="3.2"/>
<circle clip-path="url(#clip792)" cx="936.005" cy="758.887" r="14.4" fill="#009af9" fill-rule="evenodd" fill-opacity="0.5" stroke="#000000" stroke-opacity="0.5" stroke-width="3.2"/>
<circle clip-path="url(#clip792)" cx="2290.34" cy="769.897" r="14.4" fill="#009af9" fill-rule="evenodd" fill-opacity="0.5" stroke="#000000" stroke-opacity="0.5" stroke-width="3.2"/>
<circle clip-path="url(#clip792)" cx="1062.72" cy="569.227" r="14.4" fill="#009af9" fill-rule="evenodd" fill-opacity="0.5" stroke="#000000" stroke-opacity="0.5" stroke-width="3.2"/>
<circle clip-path="url(#clip792)" cx="711.252" cy="758.382" r="14.4" fill="#009af9" fill-rule="evenodd" fill-opacity="0.5" stroke="#000000" stroke-opacity="0.5" stroke-width="3.2"/>
<circle clip-path="url(#clip792)" cx="1042.05" cy="1178.07" r="14.4" fill="#009af9" fill-rule="evenodd" fill-opacity="0.5" stroke="#000000" stroke-opacity="0.5" stroke-width="3.2"/>
<circle clip-path="url(#clip792)" cx="1097.54" cy="1013.62" r="14.4" fill="#009af9" fill-rule="evenodd" fill-opacity="0.5" stroke="#000000" stroke-opacity="0.5" stroke-width="3.2"/>
<circle clip-path="url(#clip792)" cx="1439.99" cy="914.928" r="14.4" fill="#009af9" fill-rule="evenodd" fill-opacity="0.5" stroke="#000000" stroke-opacity="0.5" stroke-width="3.2"/>
<circle clip-path="url(#clip792)" cx="1166.01" cy="1307.48" r="14.4" fill="#009af9" fill-rule="evenodd" fill-opacity="0.5" stroke="#000000" stroke-opacity="0.5" stroke-width="3.2"/>
<circle clip-path="url(#clip792)" cx="2123.01" cy="739.748" r="14.4" fill="#009af9" fill-rule="evenodd" fill-opacity="0.5" stroke="#000000" stroke-opacity="0.5" stroke-width="3.2"/>
<circle clip-path="url(#clip792)" cx="1308.03" cy="627.72" r="14.4" fill="#009af9" fill-rule="evenodd" fill-opacity="0.5" stroke="#000000" stroke-opacity="0.5" stroke-width="3.2"/>
<circle clip-path="url(#clip792)" cx="590.987" cy="210.816" r="14.4" fill="#009af9" fill-rule="evenodd" fill-opacity="0.5" stroke="#000000" stroke-opacity="0.5" stroke-width="3.2"/>
<circle clip-path="url(#clip792)" cx="719.54" cy="848.387" r="14.4" fill="#009af9" fill-rule="evenodd" fill-opacity="0.5" stroke="#000000" stroke-opacity="0.5" stroke-width="3.2"/>
<circle clip-path="url(#clip792)" cx="1731.31" cy="1030.71" r="14.4" fill="#009af9" fill-rule="evenodd" fill-opacity="0.5" stroke="#000000" stroke-opacity="0.5" stroke-width="3.2"/>
<circle clip-path="url(#clip792)" cx="1763.68" cy="905.471" r="14.4" fill="#009af9" fill-rule="evenodd" fill-opacity="0.5" stroke="#000000" stroke-opacity="0.5" stroke-width="3.2"/>
<circle clip-path="url(#clip792)" cx="1541.12" cy="557.403" r="14.4" fill="#009af9" fill-rule="evenodd" fill-opacity="0.5" stroke="#000000" stroke-opacity="0.5" stroke-width="3.2"/>
<circle clip-path="url(#clip792)" cx="1206.4" cy="754.508" r="14.4" fill="#009af9" fill-rule="evenodd" fill-opacity="0.5" stroke="#000000" stroke-opacity="0.5" stroke-width="3.2"/>
<circle clip-path="url(#clip792)" cx="209.891" cy="1321.33" r="14.4" fill="#009af9" fill-rule="evenodd" fill-opacity="0.5" stroke="#000000" stroke-opacity="0.5" stroke-width="3.2"/>
<circle clip-path="url(#clip792)" cx="394.061" cy="506.713" r="14.4" fill="#009af9" fill-rule="evenodd" fill-opacity="0.5" stroke="#000000" stroke-opacity="0.5" stroke-width="3.2"/>
<circle clip-path="url(#clip792)" cx="710.349" cy="1445.72" r="14.4" fill="#009af9" fill-rule="evenodd" fill-opacity="0.5" stroke="#000000" stroke-opacity="0.5" stroke-width="3.2"/>
<circle clip-path="url(#clip792)" cx="1287.2" cy="1154.3" r="14.4" fill="#009af9" fill-rule="evenodd" fill-opacity="0.5" stroke="#000000" stroke-opacity="0.5" stroke-width="3.2"/>
<circle clip-path="url(#clip792)" cx="1093.07" cy="87.9763" r="14.4" fill="#009af9" fill-rule="evenodd" fill-opacity="0.5" stroke="#000000" stroke-opacity="0.5" stroke-width="3.2"/>
<circle clip-path="url(#clip792)" cx="656.128" cy="660.204" r="14.4" fill="#009af9" fill-rule="evenodd" fill-opacity="0.5" stroke="#000000" stroke-opacity="0.5" stroke-width="3.2"/>
<circle clip-path="url(#clip792)" cx="1505.79" cy="782.814" r="14.4" fill="#009af9" fill-rule="evenodd" fill-opacity="0.5" stroke="#000000" stroke-opacity="0.5" stroke-width="3.2"/>
<circle clip-path="url(#clip792)" cx="665.114" cy="378.484" r="14.4" fill="#009af9" fill-rule="evenodd" fill-opacity="0.5" stroke="#000000" stroke-opacity="0.5" stroke-width="3.2"/>
<circle clip-path="url(#clip792)" cx="561.522" cy="555.989" r="14.4" fill="#009af9" fill-rule="evenodd" fill-opacity="0.5" stroke="#000000" stroke-opacity="0.5" stroke-width="3.2"/>
<circle clip-path="url(#clip792)" cx="1188.68" cy="654.145" r="14.4" fill="#009af9" fill-rule="evenodd" fill-opacity="0.5" stroke="#000000" stroke-opacity="0.5" stroke-width="3.2"/>
<path clip-path="url(#clip792)" d="M209.891 1321.33 L710.349 1445.72 L1166.01 1307.48 L2290.34 769.897 L1093.07 87.9763 L590.987 210.816 L394.061 506.713 L209.891 1321.33 L209.891 1321.33  Z" fill="#e26f46" fill-rule="evenodd" fill-opacity="0.2"/>
<polyline clip-path="url(#clip792)" style="stroke:#000000; stroke-linecap:round; stroke-linejoin:round; stroke-width:4; stroke-opacity:0.2; fill:none" points="209.891,1321.33 710.349,1445.72 1166.01,1307.48 2290.34,769.897 1093.07,87.9763 590.987,210.816 394.061,506.713 209.891,1321.33 "/>
</svg>
