<?xml version="1.0" encoding="utf-8"?>
<svg xmlns="http://www.w3.org/2000/svg" xmlns:xlink="http://www.w3.org/1999/xlink" width="600" height="400" viewBox="0 0 2400 1600">
<defs>
  <clipPath id="clip690">
    <rect x="0" y="0" width="2400" height="1600"/>
  </clipPath>
</defs>
<path clip-path="url(#clip690)" d="M0 1600 L2400 1600 L2400 0 L0 0  Z" fill="#ffffff" fill-rule="evenodd" fill-opacity="1"/>
<defs>
  <clipPath id="clip691">
    <rect x="193" y="47" width="2160" height="1440"/>
  </clipPath>
</defs>
<path clip-path="url(#clip690)" d="M193.936 1486.45 L2352.76 1486.45 L2352.76 47.2441 L193.936 47.2441  Z" fill="#ffffff" fill-rule="evenodd" fill-opacity="1"/>
<polyline clip-path="url(#clip691)" style="stroke:#000000; stroke-linecap:round; stroke-linejoin:round; stroke-width:2; stroke-opacity:0.1; fill:none" points="273.113,1486.45 273.113,47.2441 "/>
<polyline clip-path="url(#clip691)" style="stroke:#000000; stroke-linecap:round; stroke-linejoin:round; stroke-width:2; stroke-opacity:0.1; fill:none" points="792.403,1486.45 792.403,47.2441 "/>
<polyline clip-path="url(#clip691)" style="stroke:#000000; stroke-linecap:round; stroke-linejoin:round; stroke-width:2; stroke-opacity:0.1; fill:none" points="1311.69,1486.45 1311.69,47.2441 "/>
<polyline clip-path="url(#clip691)" style="stroke:#000000; stroke-linecap:round; stroke-linejoin:round; stroke-width:2; stroke-opacity:0.1; fill:none" points="1830.98,1486.45 1830.98,47.2441 "/>
<polyline clip-path="url(#clip691)" style="stroke:#000000; stroke-linecap:round; stroke-linejoin:round; stroke-width:2; stroke-opacity:0.1; fill:none" points="2350.27,1486.45 2350.27,47.2441 "/>
<polyline clip-path="url(#clip691)" style="stroke:#000000; stroke-linecap:round; stroke-linejoin:round; stroke-width:2; stroke-opacity:0.1; fill:none" points="193.936,1379.95 2352.76,1379.95 "/>
<polyline clip-path="url(#clip691)" style="stroke:#000000; stroke-linecap:round; stroke-linejoin:round; stroke-width:2; stroke-opacity:0.1; fill:none" points="193.936,1135.19 2352.76,1135.19 "/>
<polyline clip-path="url(#clip691)" style="stroke:#000000; stroke-linecap:round; stroke-linejoin:round; stroke-width:2; stroke-opacity:0.1; fill:none" points="193.936,890.44 2352.76,890.44 "/>
<polyline clip-path="url(#clip691)" style="stroke:#000000; stroke-linecap:round; stroke-linejoin:round; stroke-width:2; stroke-opacity:0.1; fill:none" points="193.936,645.687 2352.76,645.687 "/>
<polyline clip-path="url(#clip691)" style="stroke:#000000; stroke-linecap:round; stroke-linejoin:round; stroke-width:2; stroke-opacity:0.1; fill:none" points="193.936,400.934 2352.76,400.934 "/>
<polyline clip-path="url(#clip691)" style="stroke:#000000; stroke-linecap:round; stroke-linejoin:round; stroke-width:2; stroke-opacity:0.1; fill:none" points="193.936,156.18 2352.76,156.18 "/>
<polyline clip-path="url(#clip690)" style="stroke:#000000; stroke-linecap:round; stroke-linejoin:round; stroke-width:4; stroke-opacity:1; fill:none" points="193.936,1486.45 2352.76,1486.45 "/>
<polyline clip-path="url(#clip690)" style="stroke:#000000; stroke-linecap:round; stroke-linejoin:round; stroke-width:4; stroke-opacity:1; fill:none" points="273.113,1486.45 273.113,1467.55 "/>
<polyline clip-path="url(#clip690)" style="stroke:#000000; stroke-linecap:round; stroke-linejoin:round; stroke-width:4; stroke-opacity:1; fill:none" points="792.403,1486.45 792.403,1467.55 "/>
<polyline clip-path="url(#clip690)" style="stroke:#000000; stroke-linecap:round; stroke-linejoin:round; stroke-width:4; stroke-opacity:1; fill:none" points="1311.69,1486.45 1311.69,1467.55 "/>
<polyline clip-path="url(#clip690)" style="stroke:#000000; stroke-linecap:round; stroke-linejoin:round; stroke-width:4; stroke-opacity:1; fill:none" points="1830.98,1486.45 1830.98,1467.55 "/>
<polyline clip-path="url(#clip690)" style="stroke:#000000; stroke-linecap:round; stroke-linejoin:round; stroke-width:4; stroke-opacity:1; fill:none" points="2350.27,1486.45 2350.27,1467.55 "/>
<path clip-path="url(#clip690)" d="M243.055 1532.02 L272.731 1532.02 L272.731 1535.95 L243.055 1535.95 L243.055 1532.02 Z" fill="#000000" fill-rule="nonzero" fill-opacity="1" /><path clip-path="url(#clip690)" d="M286.851 1544.91 L303.171 1544.91 L303.171 1548.85 L281.226 1548.85 L281.226 1544.91 Q283.888 1542.16 288.472 1537.53 Q293.078 1532.88 294.259 1531.53 Q296.504 1529.01 297.384 1527.27 Q298.286 1525.51 298.286 1523.82 Q298.286 1521.07 296.342 1519.33 Q294.421 1517.6 291.319 1517.6 Q289.12 1517.6 286.666 1518.36 Q284.235 1519.13 281.458 1520.68 L281.458 1515.95 Q284.282 1514.82 286.735 1514.24 Q289.189 1513.66 291.226 1513.66 Q296.597 1513.66 299.791 1516.35 Q302.985 1519.03 302.985 1523.52 Q302.985 1525.65 302.175 1527.57 Q301.388 1529.47 299.282 1532.07 Q298.703 1532.74 295.601 1535.95 Q292.499 1539.15 286.851 1544.91 Z" fill="#000000" fill-rule="nonzero" fill-opacity="1" /><path clip-path="url(#clip690)" d="M762.16 1532.02 L791.835 1532.02 L791.835 1535.95 L762.16 1535.95 L762.16 1532.02 Z" fill="#000000" fill-rule="nonzero" fill-opacity="1" /><path clip-path="url(#clip690)" d="M802.738 1544.91 L810.377 1544.91 L810.377 1518.55 L802.067 1520.21 L802.067 1515.95 L810.331 1514.29 L815.007 1514.29 L815.007 1544.91 L822.646 1544.91 L822.646 1548.85 L802.738 1548.85 L802.738 1544.91 Z" fill="#000000" fill-rule="nonzero" fill-opacity="1" /><path clip-path="url(#clip690)" d="M1311.69 1517.37 Q1308.08 1517.37 1306.25 1520.93 Q1304.45 1524.47 1304.45 1531.6 Q1304.45 1538.71 1306.25 1542.27 Q1308.08 1545.82 1311.69 1545.82 Q1315.33 1545.82 1317.13 1542.27 Q1318.96 1538.71 1318.96 1531.6 Q1318.96 1524.47 1317.13 1520.93 Q1315.33 1517.37 1311.69 1517.37 M1311.69 1513.66 Q1317.5 1513.66 1320.56 1518.27 Q1323.64 1522.85 1323.64 1531.6 Q1323.64 1540.33 1320.56 1544.94 Q1317.5 1549.52 1311.69 1549.52 Q1305.88 1549.52 1302.8 1544.94 Q1299.75 1540.33 1299.75 1531.6 Q1299.75 1522.85 1302.8 1518.27 Q1305.88 1513.66 1311.69 1513.66 Z" fill="#000000" fill-rule="nonzero" fill-opacity="1" /><path clip-path="url(#clip690)" d="M1821.36 1544.91 L1829 1544.91 L1829 1518.55 L1820.69 1520.21 L1820.69 1515.95 L1828.96 1514.29 L1833.63 1514.29 L1833.63 1544.91 L1841.27 1544.91 L1841.27 1548.85 L1821.36 1548.85 L1821.36 1544.91 Z" fill="#000000" fill-rule="nonzero" fill-opacity="1" /><path clip-path="url(#clip690)" d="M2344.92 1544.91 L2361.24 1544.91 L2361.24 1548.85 L2339.3 1548.85 L2339.3 1544.91 Q2341.96 1542.16 2346.55 1537.53 Q2351.15 1532.88 2352.33 1531.53 Q2354.58 1529.01 2355.46 1527.27 Q2356.36 1525.51 2356.36 1523.82 Q2356.36 1521.07 2354.42 1519.33 Q2352.49 1517.6 2349.39 1517.6 Q2347.19 1517.6 2344.74 1518.36 Q2342.31 1519.13 2339.53 1520.68 L2339.53 1515.95 Q2342.36 1514.82 2344.81 1514.24 Q2347.26 1513.66 2349.3 1513.66 Q2354.67 1513.66 2357.86 1516.35 Q2361.06 1519.03 2361.06 1523.52 Q2361.06 1525.65 2360.25 1527.57 Q2359.46 1529.47 2357.36 1532.07 Q2356.78 1532.74 2353.67 1535.95 Q2350.57 1539.15 2344.92 1544.91 Z" fill="#000000" fill-rule="nonzero" fill-opacity="1" /><polyline clip-path="url(#clip690)" style="stroke:#000000; stroke-linecap:round; stroke-linejoin:round; stroke-width:4; stroke-opacity:1; fill:none" points="193.936,1486.45 193.936,47.2441 "/>
<polyline clip-path="url(#clip690)" style="stroke:#000000; stroke-linecap:round; stroke-linejoin:round; stroke-width:4; stroke-opacity:1; fill:none" points="193.936,1379.95 212.834,1379.95 "/>
<polyline clip-path="url(#clip690)" style="stroke:#000000; stroke-linecap:round; stroke-linejoin:round; stroke-width:4; stroke-opacity:1; fill:none" points="193.936,1135.19 212.834,1135.19 "/>
<polyline clip-path="url(#clip690)" style="stroke:#000000; stroke-linecap:round; stroke-linejoin:round; stroke-width:4; stroke-opacity:1; fill:none" points="193.936,890.44 212.834,890.44 "/>
<polyline clip-path="url(#clip690)" style="stroke:#000000; stroke-linecap:round; stroke-linejoin:round; stroke-width:4; stroke-opacity:1; fill:none" points="193.936,645.687 212.834,645.687 "/>
<polyline clip-path="url(#clip690)" style="stroke:#000000; stroke-linecap:round; stroke-linejoin:round; stroke-width:4; stroke-opacity:1; fill:none" points="193.936,400.934 212.834,400.934 "/>
<polyline clip-path="url(#clip690)" style="stroke:#000000; stroke-linecap:round; stroke-linejoin:round; stroke-width:4; stroke-opacity:1; fill:none" points="193.936,156.18 212.834,156.18 "/>
<path clip-path="url(#clip690)" d="M50.9921 1380.4 L80.6679 1380.4 L80.6679 1384.33 L50.9921 1384.33 L50.9921 1380.4 Z" fill="#000000" fill-rule="nonzero" fill-opacity="1" /><path clip-path="url(#clip690)" d="M91.5706 1393.29 L99.2095 1393.29 L99.2095 1366.93 L90.8993 1368.59 L90.8993 1364.33 L99.1632 1362.67 L103.839 1362.67 L103.839 1393.29 L111.478 1393.29 L111.478 1397.23 L91.5706 1397.23 L91.5706 1393.29 Z" fill="#000000" fill-rule="nonzero" fill-opacity="1" /><path clip-path="url(#clip690)" d="M120.922 1391.35 L125.807 1391.35 L125.807 1397.23 L120.922 1397.23 L120.922 1391.35 Z" fill="#000000" fill-rule="nonzero" fill-opacity="1" /><path clip-path="url(#clip690)" d="M145.992 1365.75 Q142.381 1365.75 140.552 1369.31 Q138.746 1372.85 138.746 1379.98 Q138.746 1387.09 140.552 1390.65 Q142.381 1394.19 145.992 1394.19 Q149.626 1394.19 151.431 1390.65 Q153.26 1387.09 153.26 1379.98 Q153.26 1372.85 151.431 1369.31 Q149.626 1365.75 145.992 1365.75 M145.992 1362.04 Q151.802 1362.04 154.857 1366.65 Q157.936 1371.23 157.936 1379.98 Q157.936 1388.71 154.857 1393.32 Q151.802 1397.9 145.992 1397.9 Q140.181 1397.9 137.103 1393.32 Q134.047 1388.71 134.047 1379.98 Q134.047 1371.23 137.103 1366.65 Q140.181 1362.04 145.992 1362.04 Z" fill="#000000" fill-rule="nonzero" fill-opacity="1" /><path clip-path="url(#clip690)" d="M51.9875 1135.65 L81.6633 1135.65 L81.6633 1139.58 L51.9875 1139.58 L51.9875 1135.65 Z" fill="#000000" fill-rule="nonzero" fill-opacity="1" /><path clip-path="url(#clip690)" d="M101.756 1120.99 Q98.1447 1120.99 96.316 1124.56 Q94.5104 1128.1 94.5104 1135.23 Q94.5104 1142.33 96.316 1145.9 Q98.1447 1149.44 101.756 1149.44 Q105.39 1149.44 107.196 1145.9 Q109.024 1142.33 109.024 1135.23 Q109.024 1128.1 107.196 1124.56 Q105.39 1120.99 101.756 1120.99 M101.756 1117.29 Q107.566 1117.29 110.621 1121.9 Q113.7 1126.48 113.7 1135.23 Q113.7 1143.96 110.621 1148.56 Q107.566 1153.15 101.756 1153.15 Q95.9456 1153.15 92.8669 1148.56 Q89.8114 1143.96 89.8114 1135.23 Q89.8114 1126.48 92.8669 1121.9 Q95.9456 1117.29 101.756 1117.29 Z" fill="#000000" fill-rule="nonzero" fill-opacity="1" /><path clip-path="url(#clip690)" d="M121.918 1146.59 L126.802 1146.59 L126.802 1152.47 L121.918 1152.47 L121.918 1146.59 Z" fill="#000000" fill-rule="nonzero" fill-opacity="1" /><path clip-path="url(#clip690)" d="M137.033 1117.91 L155.39 1117.91 L155.39 1121.85 L141.316 1121.85 L141.316 1130.32 Q142.334 1129.97 143.353 1129.81 Q144.371 1129.63 145.39 1129.63 Q151.177 1129.63 154.556 1132.8 Q157.936 1135.97 157.936 1141.39 Q157.936 1146.96 154.464 1150.07 Q150.992 1153.15 144.672 1153.15 Q142.496 1153.15 140.228 1152.77 Q137.982 1152.4 135.575 1151.66 L135.575 1146.96 Q137.658 1148.1 139.881 1148.65 Q142.103 1149.21 144.58 1149.21 Q148.584 1149.21 150.922 1147.1 Q153.26 1145 153.26 1141.39 Q153.26 1137.77 150.922 1135.67 Q148.584 1133.56 144.58 1133.56 Q142.705 1133.56 140.83 1133.98 Q138.978 1134.4 137.033 1135.27 L137.033 1117.91 Z" fill="#000000" fill-rule="nonzero" fill-opacity="1" /><path clip-path="url(#clip690)" d="M100.76 876.239 Q97.1493 876.239 95.3206 879.804 Q93.515 883.346 93.515 890.475 Q93.515 897.582 95.3206 901.146 Q97.1493 904.688 100.76 904.688 Q104.395 904.688 106.2 901.146 Q108.029 897.582 108.029 890.475 Q108.029 883.346 106.2 879.804 Q104.395 876.239 100.76 876.239 M100.76 872.535 Q106.571 872.535 109.626 877.142 Q112.705 881.725 112.705 890.475 Q112.705 899.202 109.626 903.808 Q106.571 908.392 100.76 908.392 Q94.9502 908.392 91.8715 903.808 Q88.816 899.202 88.816 890.475 Q88.816 881.725 91.8715 877.142 Q94.9502 872.535 100.76 872.535 Z" fill="#000000" fill-rule="nonzero" fill-opacity="1" /><path clip-path="url(#clip690)" d="M120.922 901.841 L125.807 901.841 L125.807 907.72 L120.922 907.72 L120.922 901.841 Z" fill="#000000" fill-rule="nonzero" fill-opacity="1" /><path clip-path="url(#clip690)" d="M145.992 876.239 Q142.381 876.239 140.552 879.804 Q138.746 883.346 138.746 890.475 Q138.746 897.582 140.552 901.146 Q142.381 904.688 145.992 904.688 Q149.626 904.688 151.431 901.146 Q153.26 897.582 153.26 890.475 Q153.26 883.346 151.431 879.804 Q149.626 876.239 145.992 876.239 M145.992 872.535 Q151.802 872.535 154.857 877.142 Q157.936 881.725 157.936 890.475 Q157.936 899.202 154.857 903.808 Q151.802 908.392 145.992 908.392 Q140.181 908.392 137.103 903.808 Q134.047 899.202 134.047 890.475 Q134.047 881.725 137.103 877.142 Q140.181 872.535 145.992 872.535 Z" fill="#000000" fill-rule="nonzero" fill-opacity="1" /><path clip-path="url(#clip690)" d="M101.756 631.486 Q98.1447 631.486 96.316 635.051 Q94.5104 638.592 94.5104 645.722 Q94.5104 652.828 96.316 656.393 Q98.1447 659.935 101.756 659.935 Q105.39 659.935 107.196 656.393 Q109.024 652.828 109.024 645.722 Q109.024 638.592 107.196 635.051 Q105.39 631.486 101.756 631.486 M101.756 627.782 Q107.566 627.782 110.621 632.389 Q113.7 636.972 113.7 645.722 Q113.7 654.449 110.621 659.055 Q107.566 663.638 101.756 663.638 Q95.9456 663.638 92.8669 659.055 Q89.8114 654.449 89.8114 645.722 Q89.8114 636.972 92.8669 632.389 Q95.9456 627.782 101.756 627.782 Z" fill="#000000" fill-rule="nonzero" fill-opacity="1" /><path clip-path="url(#clip690)" d="M121.918 657.087 L126.802 657.087 L126.802 662.967 L121.918 662.967 L121.918 657.087 Z" fill="#000000" fill-rule="nonzero" fill-opacity="1" /><path clip-path="url(#clip690)" d="M137.033 628.407 L155.39 628.407 L155.39 632.342 L141.316 632.342 L141.316 640.814 Q142.334 640.467 143.353 640.305 Q144.371 640.12 145.39 640.12 Q151.177 640.12 154.556 643.291 Q157.936 646.463 157.936 651.879 Q157.936 657.458 154.464 660.56 Q150.992 663.638 144.672 663.638 Q142.496 663.638 140.228 663.268 Q137.982 662.898 135.575 662.157 L135.575 657.458 Q137.658 658.592 139.881 659.148 Q142.103 659.703 144.58 659.703 Q148.584 659.703 150.922 657.597 Q153.26 655.49 153.26 651.879 Q153.26 648.268 150.922 646.162 Q148.584 644.055 144.58 644.055 Q142.705 644.055 140.83 644.472 Q138.978 644.888 137.033 645.768 L137.033 628.407 Z" fill="#000000" fill-rule="nonzero" fill-opacity="1" /><path clip-path="url(#clip690)" d="M91.5706 414.279 L99.2095 414.279 L99.2095 387.913 L90.8993 389.58 L90.8993 385.32 L99.1632 383.654 L103.839 383.654 L103.839 414.279 L111.478 414.279 L111.478 418.214 L91.5706 418.214 L91.5706 414.279 Z" fill="#000000" fill-rule="nonzero" fill-opacity="1" /><path clip-path="url(#clip690)" d="M120.922 412.334 L125.807 412.334 L125.807 418.214 L120.922 418.214 L120.922 412.334 Z" fill="#000000" fill-rule="nonzero" fill-opacity="1" /><path clip-path="url(#clip690)" d="M145.992 386.732 Q142.381 386.732 140.552 390.297 Q138.746 393.839 138.746 400.968 Q138.746 408.075 140.552 411.64 Q142.381 415.181 145.992 415.181 Q149.626 415.181 151.431 411.64 Q153.26 408.075 153.26 400.968 Q153.26 393.839 151.431 390.297 Q149.626 386.732 145.992 386.732 M145.992 383.029 Q151.802 383.029 154.857 387.635 Q157.936 392.218 157.936 400.968 Q157.936 409.695 154.857 414.302 Q151.802 418.885 145.992 418.885 Q140.181 418.885 137.103 414.302 Q134.047 409.695 134.047 400.968 Q134.047 392.218 137.103 387.635 Q140.181 383.029 145.992 383.029 Z" fill="#000000" fill-rule="nonzero" fill-opacity="1" /><path clip-path="url(#clip690)" d="M92.566 169.525 L100.205 169.525 L100.205 143.16 L91.8947 144.826 L91.8947 140.567 L100.159 138.9 L104.834 138.9 L104.834 169.525 L112.473 169.525 L112.473 173.46 L92.566 173.46 L92.566 169.525 Z" fill="#000000" fill-rule="nonzero" fill-opacity="1" /><path clip-path="url(#clip690)" d="M121.918 167.581 L126.802 167.581 L126.802 173.46 L121.918 173.46 L121.918 167.581 Z" fill="#000000" fill-rule="nonzero" fill-opacity="1" /><path clip-path="url(#clip690)" d="M137.033 138.9 L155.39 138.9 L155.39 142.836 L141.316 142.836 L141.316 151.308 Q142.334 150.96 143.353 150.798 Q144.371 150.613 145.39 150.613 Q151.177 150.613 154.556 153.785 Q157.936 156.956 157.936 162.372 Q157.936 167.951 154.464 171.053 Q150.992 174.132 144.672 174.132 Q142.496 174.132 140.228 173.761 Q137.982 173.391 135.575 172.65 L135.575 167.951 Q137.658 169.085 139.881 169.641 Q142.103 170.197 144.58 170.197 Q148.584 170.197 150.922 168.09 Q153.26 165.984 153.26 162.372 Q153.26 158.761 150.922 156.655 Q148.584 154.548 144.58 154.548 Q142.705 154.548 140.83 154.965 Q138.978 155.382 137.033 156.261 L137.033 138.9 Z" fill="#000000" fill-rule="nonzero" fill-opacity="1" /><circle clip-path="url(#clip691)" cx="873.626" cy="852.012" r="14.4" fill="#009af9" fill-rule="evenodd" fill-opacity="0.5" stroke="#000000" stroke-opacity="0.5" stroke-width="3.2"/>
<circle clip-path="url(#clip691)" cx="255.035" cy="965.144" r="14.4" fill="#009af9" fill-rule="evenodd" fill-opacity="0.5" stroke="#000000" stroke-opacity="0.5" stroke-width="3.2"/>
<circle clip-path="url(#clip691)" cx="2129.14" cy="782.235" r="14.4" fill="#009af9" fill-rule="evenodd" fill-opacity="0.5" stroke="#000000" stroke-opacity="0.5" stroke-width="3.2"/>
<circle clip-path="url(#clip691)" cx="1677.92" cy="338.521" r="14.4" fill="#009af9" fill-rule="evenodd" fill-opacity="0.5" stroke="#000000" stroke-opacity="0.5" stroke-width="3.2"/>
<circle clip-path="url(#clip691)" cx="1054.37" cy="1164.21" r="14.4" fill="#009af9" fill-rule="evenodd" fill-opacity="0.5" stroke="#000000" stroke-opacity="0.5" stroke-width="3.2"/>
<circle clip-path="url(#clip691)" cx="1963.16" cy="311.453" r="14.4" fill="#009af9" fill-rule="evenodd" fill-opacity="0.5" stroke="#000000" stroke-opacity="0.5" stroke-width="3.2"/>
<circle clip-path="url(#clip691)" cx="1097.93" cy="140.47" r="14.4" fill="#009af9" fill-rule="evenodd" fill-opacity="0.5" stroke="#000000" stroke-opacity="0.5" stroke-width="3.2"/>
<circle clip-path="url(#clip691)" cx="1939.2" cy="1445.72" r="14.4" fill="#009af9" fill-rule="evenodd" fill-opacity="0.5" stroke="#000000" stroke-opacity="0.5" stroke-width="3.2"/>
<circle clip-path="url(#clip691)" cx="1398.8" cy="87.9763" r="14.4" fill="#009af9" fill-rule="evenodd" fill-opacity="0.5" stroke="#000000" stroke-opacity="0.5" stroke-width="3.2"/>
<circle clip-path="url(#clip691)" cx="1630" cy="398.785" r="14.4" fill="#009af9" fill-rule="evenodd" fill-opacity="0.5" stroke="#000000" stroke-opacity="0.5" stroke-width="3.2"/>
<circle clip-path="url(#clip691)" cx="987.222" cy="859.603" r="14.4" fill="#009af9" fill-rule="evenodd" fill-opacity="0.5" stroke="#000000" stroke-opacity="0.5" stroke-width="3.2"/>
<circle clip-path="url(#clip691)" cx="1792.69" cy="762.262" r="14.4" fill="#009af9" fill-rule="evenodd" fill-opacity="0.5" stroke="#000000" stroke-opacity="0.5" stroke-width="3.2"/>
<circle clip-path="url(#clip691)" cx="1075.06" cy="737.398" r="14.4" fill="#009af9" fill-rule="evenodd" fill-opacity="0.5" stroke="#000000" stroke-opacity="0.5" stroke-width="3.2"/>
<circle clip-path="url(#clip691)" cx="552.422" cy="480.088" r="14.4" fill="#009af9" fill-rule="evenodd" fill-opacity="0.5" stroke="#000000" stroke-opacity="0.5" stroke-width="3.2"/>
<circle clip-path="url(#clip691)" cx="1684.75" cy="1246.29" r="14.4" fill="#009af9" fill-rule="evenodd" fill-opacity="0.5" stroke="#000000" stroke-opacity="0.5" stroke-width="3.2"/>
<circle clip-path="url(#clip691)" cx="1875.25" cy="563.209" r="14.4" fill="#009af9" fill-rule="evenodd" fill-opacity="0.5" stroke="#000000" stroke-opacity="0.5" stroke-width="3.2"/>
<circle clip-path="url(#clip691)" cx="1152.1" cy="743.981" r="14.4" fill="#009af9" fill-rule="evenodd" fill-opacity="0.5" stroke="#000000" stroke-opacity="0.5" stroke-width="3.2"/>
<circle clip-path="url(#clip691)" cx="1268.36" cy="1192.73" r="14.4" fill="#009af9" fill-rule="evenodd" fill-opacity="0.5" stroke="#000000" stroke-opacity="0.5" stroke-width="3.2"/>
<circle clip-path="url(#clip691)" cx="1362.94" cy="863.501" r="14.4" fill="#009af9" fill-rule="evenodd" fill-opacity="0.5" stroke="#000000" stroke-opacity="0.5" stroke-width="3.2"/>
<circle clip-path="url(#clip691)" cx="662.848" cy="1152.35" r="14.4" fill="#009af9" fill-rule="evenodd" fill-opacity="0.5" stroke="#000000" stroke-opacity="0.5" stroke-width="3.2"/>
<circle clip-path="url(#clip691)" cx="886.524" cy="1031.4" r="14.4" fill="#009af9" fill-rule="evenodd" fill-opacity="0.5" stroke="#000000" stroke-opacity="0.5" stroke-width="3.2"/>
<circle clip-path="url(#clip691)" cx="1254" cy="881.622" r="14.4" fill="#009af9" fill-rule="evenodd" fill-opacity="0.5" stroke="#000000" stroke-opacity="0.5" stroke-width="3.2"/>
<circle clip-path="url(#clip691)" cx="805.507" cy="1238.72" r="14.4" fill="#009af9" fill-rule="evenodd" fill-opacity="0.5" stroke="#000000" stroke-opacity="0.5" stroke-width="3.2"/>
<circle clip-path="url(#clip691)" cx="2291.66" cy="397.485" r="14.4" fill="#009af9" fill-rule="evenodd" fill-opacity="0.5" stroke="#000000" stroke-opacity="0.5" stroke-width="3.2"/>
<circle clip-path="url(#clip691)" cx="703.99" cy="380.077" r="14.4" fill="#009af9" fill-rule="evenodd" fill-opacity="0.5" stroke="#000000" stroke-opacity="0.5" stroke-width="3.2"/>
<circle clip-path="url(#clip691)" cx="919.172" cy="800.86" r="14.4" fill="#009af9" fill-rule="evenodd" fill-opacity="0.5" stroke="#000000" stroke-opacity="0.5" stroke-width="3.2"/>
<circle clip-path="url(#clip691)" cx="488.755" cy="1051.96" r="14.4" fill="#009af9" fill-rule="evenodd" fill-opacity="0.5" stroke="#000000" stroke-opacity="0.5" stroke-width="3.2"/>
<circle clip-path="url(#clip691)" cx="1594.41" cy="687.37" r="14.4" fill="#009af9" fill-rule="evenodd" fill-opacity="0.5" stroke="#000000" stroke-opacity="0.5" stroke-width="3.2"/>
<circle clip-path="url(#clip691)" cx="1578.13" cy="1140.76" r="14.4" fill="#009af9" fill-rule="evenodd" fill-opacity="0.5" stroke="#000000" stroke-opacity="0.5" stroke-width="3.2"/>
<circle clip-path="url(#clip691)" cx="1123.61" cy="722.981" r="14.4" fill="#009af9" fill-rule="evenodd" fill-opacity="0.5" stroke="#000000" stroke-opacity="0.5" stroke-width="3.2"/>
<path clip-path="url(#clip691)" d="M255.035 965.144 L805.507 1238.72 L1939.2 1445.72 L2291.66 397.485 L1398.8 87.9763 L1097.93 140.47 L703.99 380.077 L552.422 480.088 L255.035 965.144 L255.035 965.144  Z" fill="#e26f46" fill-rule="evenodd" fill-opacity="0.2"/>
<polyline clip-path="url(#clip691)" style="stroke:#000000; stroke-linecap:round; stroke-linejoin:round; stroke-width:4; stroke-opacity:0.2; fill:none" points="255.035,965.144 805.507,1238.72 1939.2,1445.72 2291.66,397.485 1398.8,87.9763 1097.93,140.47 703.99,380.077 552.422,480.088 255.035,965.144 "/>
</svg>
