<?xml version="1.0" encoding="utf-8"?>
<svg xmlns="http://www.w3.org/2000/svg" xmlns:xlink="http://www.w3.org/1999/xlink" width="600" height="400" viewBox="0 0 2400 1600">
<defs>
  <clipPath id="clip610">
    <rect x="0" y="0" width="2400" height="1600"/>
  </clipPath>
</defs>
<path clip-path="url(#clip610)" d="M0 1600 L2400 1600 L2400 0 L0 0  Z" fill="#ffffff" fill-rule="evenodd" fill-opacity="1"/>
<defs>
  <clipPath id="clip611">
    <rect x="480" y="0" width="1681" height="1600"/>
  </clipPath>
</defs>
<path clip-path="url(#clip610)" d="M193.936 1486.45 L2352.76 1486.45 L2352.76 47.2441 L193.936 47.2441  Z" fill="#ffffff" fill-rule="evenodd" fill-opacity="1"/>
<defs>
  <clipPath id="clip612">
    <rect x="193" y="47" width="2160" height="1440"/>
  </clipPath>
</defs>
<polyline clip-path="url(#clip612)" style="stroke:#000000; stroke-linecap:round; stroke-linejoin:round; stroke-width:2; stroke-opacity:0.1; fill:none" points="560.412,1486.45 560.412,47.2441 "/>
<polyline clip-path="url(#clip612)" style="stroke:#000000; stroke-linecap:round; stroke-linejoin:round; stroke-width:2; stroke-opacity:0.1; fill:none" points="1014.6,1486.45 1014.6,47.2441 "/>
<polyline clip-path="url(#clip612)" style="stroke:#000000; stroke-linecap:round; stroke-linejoin:round; stroke-width:2; stroke-opacity:0.1; fill:none" points="1468.78,1486.45 1468.78,47.2441 "/>
<polyline clip-path="url(#clip612)" style="stroke:#000000; stroke-linecap:round; stroke-linejoin:round; stroke-width:2; stroke-opacity:0.1; fill:none" points="1922.97,1486.45 1922.97,47.2441 "/>
<polyline clip-path="url(#clip612)" style="stroke:#000000; stroke-linecap:round; stroke-linejoin:round; stroke-width:2; stroke-opacity:0.1; fill:none" points="193.936,1477.77 2352.76,1477.77 "/>
<polyline clip-path="url(#clip612)" style="stroke:#000000; stroke-linecap:round; stroke-linejoin:round; stroke-width:2; stroke-opacity:0.1; fill:none" points="193.936,1243.46 2352.76,1243.46 "/>
<polyline clip-path="url(#clip612)" style="stroke:#000000; stroke-linecap:round; stroke-linejoin:round; stroke-width:2; stroke-opacity:0.1; fill:none" points="193.936,1009.15 2352.76,1009.15 "/>
<polyline clip-path="url(#clip612)" style="stroke:#000000; stroke-linecap:round; stroke-linejoin:round; stroke-width:2; stroke-opacity:0.1; fill:none" points="193.936,774.844 2352.76,774.844 "/>
<polyline clip-path="url(#clip612)" style="stroke:#000000; stroke-linecap:round; stroke-linejoin:round; stroke-width:2; stroke-opacity:0.1; fill:none" points="193.936,540.537 2352.76,540.537 "/>
<polyline clip-path="url(#clip612)" style="stroke:#000000; stroke-linecap:round; stroke-linejoin:round; stroke-width:2; stroke-opacity:0.1; fill:none" points="193.936,306.23 2352.76,306.23 "/>
<polyline clip-path="url(#clip612)" style="stroke:#000000; stroke-linecap:round; stroke-linejoin:round; stroke-width:2; stroke-opacity:0.1; fill:none" points="193.936,71.9228 2352.76,71.9228 "/>
<polyline clip-path="url(#clip610)" style="stroke:#000000; stroke-linecap:round; stroke-linejoin:round; stroke-width:4; stroke-opacity:1; fill:none" points="193.936,1486.45 2352.76,1486.45 "/>
<polyline clip-path="url(#clip610)" style="stroke:#000000; stroke-linecap:round; stroke-linejoin:round; stroke-width:4; stroke-opacity:1; fill:none" points="560.412,1486.45 560.412,1467.55 "/>
<polyline clip-path="url(#clip610)" style="stroke:#000000; stroke-linecap:round; stroke-linejoin:round; stroke-width:4; stroke-opacity:1; fill:none" points="1014.6,1486.45 1014.6,1467.55 "/>
<polyline clip-path="url(#clip610)" style="stroke:#000000; stroke-linecap:round; stroke-linejoin:round; stroke-width:4; stroke-opacity:1; fill:none" points="1468.78,1486.45 1468.78,1467.55 "/>
<polyline clip-path="url(#clip610)" style="stroke:#000000; stroke-linecap:round; stroke-linejoin:round; stroke-width:4; stroke-opacity:1; fill:none" points="1922.97,1486.45 1922.97,1467.55 "/>
<path clip-path="url(#clip610)" d="M530.354 1532.02 L560.03 1532.02 L560.03 1535.95 L530.354 1535.95 L530.354 1532.02 Z" fill="#000000" fill-rule="nonzero" fill-opacity="1" /><path clip-path="url(#clip610)" d="M574.15 1544.91 L590.47 1544.91 L590.47 1548.85 L568.525 1548.85 L568.525 1544.91 Q571.187 1542.16 575.771 1537.53 Q580.377 1532.88 581.558 1531.53 Q583.803 1529.01 584.683 1527.27 Q585.585 1525.51 585.585 1523.82 Q585.585 1521.07 583.641 1519.33 Q581.72 1517.6 578.618 1517.6 Q576.419 1517.6 573.965 1518.36 Q571.535 1519.13 568.757 1520.68 L568.757 1515.95 Q571.581 1514.82 574.035 1514.24 Q576.488 1513.66 578.525 1513.66 Q583.896 1513.66 587.09 1516.35 Q590.284 1519.03 590.284 1523.52 Q590.284 1525.65 589.474 1527.57 Q588.687 1529.47 586.581 1532.07 Q586.002 1532.74 582.9 1535.95 Q579.798 1539.15 574.15 1544.91 Z" fill="#000000" fill-rule="nonzero" fill-opacity="1" /><path clip-path="url(#clip610)" d="M984.354 1532.02 L1014.03 1532.02 L1014.03 1535.95 L984.354 1535.95 L984.354 1532.02 Z" fill="#000000" fill-rule="nonzero" fill-opacity="1" /><path clip-path="url(#clip610)" d="M1024.93 1544.91 L1032.57 1544.91 L1032.57 1518.55 L1024.26 1520.21 L1024.26 1515.95 L1032.53 1514.29 L1037.2 1514.29 L1037.2 1544.91 L1044.84 1544.91 L1044.84 1548.85 L1024.93 1548.85 L1024.93 1544.91 Z" fill="#000000" fill-rule="nonzero" fill-opacity="1" /><path clip-path="url(#clip610)" d="M1468.78 1517.37 Q1465.17 1517.37 1463.34 1520.93 Q1461.54 1524.47 1461.54 1531.6 Q1461.54 1538.71 1463.34 1542.27 Q1465.17 1545.82 1468.78 1545.82 Q1472.42 1545.82 1474.22 1542.27 Q1476.05 1538.71 1476.05 1531.6 Q1476.05 1524.47 1474.22 1520.93 Q1472.42 1517.37 1468.78 1517.37 M1468.78 1513.66 Q1474.59 1513.66 1477.65 1518.27 Q1480.73 1522.85 1480.73 1531.6 Q1480.73 1540.33 1477.65 1544.94 Q1474.59 1549.52 1468.78 1549.52 Q1462.97 1549.52 1459.89 1544.94 Q1456.84 1540.33 1456.84 1531.6 Q1456.84 1522.85 1459.89 1518.27 Q1462.97 1513.66 1468.78 1513.66 Z" fill="#000000" fill-rule="nonzero" fill-opacity="1" /><path clip-path="url(#clip610)" d="M1913.35 1544.91 L1920.99 1544.91 L1920.99 1518.55 L1912.68 1520.21 L1912.68 1515.95 L1920.94 1514.29 L1925.62 1514.29 L1925.62 1544.91 L1933.26 1544.91 L1933.26 1548.85 L1913.35 1548.85 L1913.35 1544.91 Z" fill="#000000" fill-rule="nonzero" fill-opacity="1" /><polyline clip-path="url(#clip610)" style="stroke:#000000; stroke-linecap:round; stroke-linejoin:round; stroke-width:4; stroke-opacity:1; fill:none" points="193.936,1486.45 193.936,47.2441 "/>
<polyline clip-path="url(#clip610)" style="stroke:#000000; stroke-linecap:round; stroke-linejoin:round; stroke-width:4; stroke-opacity:1; fill:none" points="193.936,1477.77 212.834,1477.77 "/>
<polyline clip-path="url(#clip610)" style="stroke:#000000; stroke-linecap:round; stroke-linejoin:round; stroke-width:4; stroke-opacity:1; fill:none" points="193.936,1243.46 212.834,1243.46 "/>
<polyline clip-path="url(#clip610)" style="stroke:#000000; stroke-linecap:round; stroke-linejoin:round; stroke-width:4; stroke-opacity:1; fill:none" points="193.936,1009.15 212.834,1009.15 "/>
<polyline clip-path="url(#clip610)" style="stroke:#000000; stroke-linecap:round; stroke-linejoin:round; stroke-width:4; stroke-opacity:1; fill:none" points="193.936,774.844 212.834,774.844 "/>
<polyline clip-path="url(#clip610)" style="stroke:#000000; stroke-linecap:round; stroke-linejoin:round; stroke-width:4; stroke-opacity:1; fill:none" points="193.936,540.537 212.834,540.537 "/>
<polyline clip-path="url(#clip610)" style="stroke:#000000; stroke-linecap:round; stroke-linejoin:round; stroke-width:4; stroke-opacity:1; fill:none" points="193.936,306.23 212.834,306.23 "/>
<polyline clip-path="url(#clip610)" style="stroke:#000000; stroke-linecap:round; stroke-linejoin:round; stroke-width:4; stroke-opacity:1; fill:none" points="193.936,71.9228 212.834,71.9228 "/>
<path clip-path="url(#clip610)" d="M51.9875 1478.22 L81.6633 1478.22 L81.6633 1482.15 L51.9875 1482.15 L51.9875 1478.22 Z" fill="#000000" fill-rule="nonzero" fill-opacity="1" /><path clip-path="url(#clip610)" d="M92.566 1491.11 L100.205 1491.11 L100.205 1464.74 L91.8947 1466.41 L91.8947 1462.15 L100.159 1460.49 L104.834 1460.49 L104.834 1491.11 L112.473 1491.11 L112.473 1495.05 L92.566 1495.05 L92.566 1491.11 Z" fill="#000000" fill-rule="nonzero" fill-opacity="1" /><path clip-path="url(#clip610)" d="M121.918 1489.17 L126.802 1489.17 L126.802 1495.05 L121.918 1495.05 L121.918 1489.17 Z" fill="#000000" fill-rule="nonzero" fill-opacity="1" /><path clip-path="url(#clip610)" d="M137.033 1460.49 L155.39 1460.49 L155.39 1464.42 L141.316 1464.42 L141.316 1472.89 Q142.334 1472.55 143.353 1472.38 Q144.371 1472.2 145.39 1472.2 Q151.177 1472.2 154.556 1475.37 Q157.936 1478.54 157.936 1483.96 Q157.936 1489.54 154.464 1492.64 Q150.992 1495.72 144.672 1495.72 Q142.496 1495.72 140.228 1495.35 Q137.982 1494.98 135.575 1494.24 L135.575 1489.54 Q137.658 1490.67 139.881 1491.23 Q142.103 1491.78 144.58 1491.78 Q148.584 1491.78 150.922 1489.67 Q153.26 1487.57 153.26 1483.96 Q153.26 1480.35 150.922 1478.24 Q148.584 1476.13 144.58 1476.13 Q142.705 1476.13 140.83 1476.55 Q138.978 1476.97 137.033 1477.85 L137.033 1460.49 Z" fill="#000000" fill-rule="nonzero" fill-opacity="1" /><path clip-path="url(#clip610)" d="M50.9921 1243.91 L80.6679 1243.91 L80.6679 1247.84 L50.9921 1247.84 L50.9921 1243.91 Z" fill="#000000" fill-rule="nonzero" fill-opacity="1" /><path clip-path="url(#clip610)" d="M91.5706 1256.8 L99.2095 1256.8 L99.2095 1230.44 L90.8993 1232.1 L90.8993 1227.84 L99.1632 1226.18 L103.839 1226.18 L103.839 1256.8 L111.478 1256.8 L111.478 1260.74 L91.5706 1260.74 L91.5706 1256.8 Z" fill="#000000" fill-rule="nonzero" fill-opacity="1" /><path clip-path="url(#clip610)" d="M120.922 1254.86 L125.807 1254.86 L125.807 1260.74 L120.922 1260.74 L120.922 1254.86 Z" fill="#000000" fill-rule="nonzero" fill-opacity="1" /><path clip-path="url(#clip610)" d="M145.992 1229.26 Q142.381 1229.26 140.552 1232.82 Q138.746 1236.36 138.746 1243.49 Q138.746 1250.6 140.552 1254.16 Q142.381 1257.71 145.992 1257.71 Q149.626 1257.71 151.431 1254.16 Q153.26 1250.6 153.26 1243.49 Q153.26 1236.36 151.431 1232.82 Q149.626 1229.26 145.992 1229.26 M145.992 1225.55 Q151.802 1225.55 154.857 1230.16 Q157.936 1234.74 157.936 1243.49 Q157.936 1252.22 154.857 1256.83 Q151.802 1261.41 145.992 1261.41 Q140.181 1261.41 137.103 1256.83 Q134.047 1252.22 134.047 1243.49 Q134.047 1234.74 137.103 1230.16 Q140.181 1225.55 145.992 1225.55 Z" fill="#000000" fill-rule="nonzero" fill-opacity="1" /><path clip-path="url(#clip610)" d="M51.9875 1009.6 L81.6633 1009.6 L81.6633 1013.54 L51.9875 1013.54 L51.9875 1009.6 Z" fill="#000000" fill-rule="nonzero" fill-opacity="1" /><path clip-path="url(#clip610)" d="M101.756 994.95 Q98.1447 994.95 96.316 998.515 Q94.5104 1002.06 94.5104 1009.19 Q94.5104 1016.29 96.316 1019.86 Q98.1447 1023.4 101.756 1023.4 Q105.39 1023.4 107.196 1019.86 Q109.024 1016.29 109.024 1009.19 Q109.024 1002.06 107.196 998.515 Q105.39 994.95 101.756 994.95 M101.756 991.246 Q107.566 991.246 110.621 995.853 Q113.7 1000.44 113.7 1009.19 Q113.7 1017.91 110.621 1022.52 Q107.566 1027.1 101.756 1027.1 Q95.9456 1027.1 92.8669 1022.52 Q89.8114 1017.91 89.8114 1009.19 Q89.8114 1000.44 92.8669 995.853 Q95.9456 991.246 101.756 991.246 Z" fill="#000000" fill-rule="nonzero" fill-opacity="1" /><path clip-path="url(#clip610)" d="M121.918 1020.55 L126.802 1020.55 L126.802 1026.43 L121.918 1026.43 L121.918 1020.55 Z" fill="#000000" fill-rule="nonzero" fill-opacity="1" /><path clip-path="url(#clip610)" d="M137.033 991.871 L155.39 991.871 L155.39 995.806 L141.316 995.806 L141.316 1004.28 Q142.334 1003.93 143.353 1003.77 Q144.371 1003.58 145.39 1003.58 Q151.177 1003.58 154.556 1006.76 Q157.936 1009.93 157.936 1015.34 Q157.936 1020.92 154.464 1024.02 Q150.992 1027.1 144.672 1027.1 Q142.496 1027.1 140.228 1026.73 Q137.982 1026.36 135.575 1025.62 L135.575 1020.92 Q137.658 1022.06 139.881 1022.61 Q142.103 1023.17 144.58 1023.17 Q148.584 1023.17 150.922 1021.06 Q153.26 1018.95 153.26 1015.34 Q153.26 1011.73 150.922 1009.63 Q148.584 1007.52 144.58 1007.52 Q142.705 1007.52 140.83 1007.94 Q138.978 1008.35 137.033 1009.23 L137.033 991.871 Z" fill="#000000" fill-rule="nonzero" fill-opacity="1" /><path clip-path="url(#clip610)" d="M100.76 760.643 Q97.1493 760.643 95.3206 764.208 Q93.515 767.749 93.515 774.879 Q93.515 781.985 95.3206 785.55 Q97.1493 789.092 100.76 789.092 Q104.395 789.092 106.2 785.55 Q108.029 781.985 108.029 774.879 Q108.029 767.749 106.2 764.208 Q104.395 760.643 100.76 760.643 M100.76 756.939 Q106.571 756.939 109.626 761.545 Q112.705 766.129 112.705 774.879 Q112.705 783.606 109.626 788.212 Q106.571 792.795 100.76 792.795 Q94.9502 792.795 91.8715 788.212 Q88.816 783.606 88.816 774.879 Q88.816 766.129 91.8715 761.545 Q94.9502 756.939 100.76 756.939 Z" fill="#000000" fill-rule="nonzero" fill-opacity="1" /><path clip-path="url(#clip610)" d="M120.922 786.244 L125.807 786.244 L125.807 792.124 L120.922 792.124 L120.922 786.244 Z" fill="#000000" fill-rule="nonzero" fill-opacity="1" /><path clip-path="url(#clip610)" d="M145.992 760.643 Q142.381 760.643 140.552 764.208 Q138.746 767.749 138.746 774.879 Q138.746 781.985 140.552 785.55 Q142.381 789.092 145.992 789.092 Q149.626 789.092 151.431 785.55 Q153.26 781.985 153.26 774.879 Q153.26 767.749 151.431 764.208 Q149.626 760.643 145.992 760.643 M145.992 756.939 Q151.802 756.939 154.857 761.545 Q157.936 766.129 157.936 774.879 Q157.936 783.606 154.857 788.212 Q151.802 792.795 145.992 792.795 Q140.181 792.795 137.103 788.212 Q134.047 783.606 134.047 774.879 Q134.047 766.129 137.103 761.545 Q140.181 756.939 145.992 756.939 Z" fill="#000000" fill-rule="nonzero" fill-opacity="1" /><path clip-path="url(#clip610)" d="M101.756 526.336 Q98.1447 526.336 96.316 529.9 Q94.5104 533.442 94.5104 540.572 Q94.5104 547.678 96.316 551.243 Q98.1447 554.785 101.756 554.785 Q105.39 554.785 107.196 551.243 Q109.024 547.678 109.024 540.572 Q109.024 533.442 107.196 529.9 Q105.39 526.336 101.756 526.336 M101.756 522.632 Q107.566 522.632 110.621 527.238 Q113.7 531.822 113.7 540.572 Q113.7 549.298 110.621 553.905 Q107.566 558.488 101.756 558.488 Q95.9456 558.488 92.8669 553.905 Q89.8114 549.298 89.8114 540.572 Q89.8114 531.822 92.8669 527.238 Q95.9456 522.632 101.756 522.632 Z" fill="#000000" fill-rule="nonzero" fill-opacity="1" /><path clip-path="url(#clip610)" d="M121.918 551.937 L126.802 551.937 L126.802 557.817 L121.918 557.817 L121.918 551.937 Z" fill="#000000" fill-rule="nonzero" fill-opacity="1" /><path clip-path="url(#clip610)" d="M137.033 523.257 L155.39 523.257 L155.39 527.192 L141.316 527.192 L141.316 535.664 Q142.334 535.317 143.353 535.155 Q144.371 534.97 145.39 534.97 Q151.177 534.97 154.556 538.141 Q157.936 541.312 157.936 546.729 Q157.936 552.308 154.464 555.41 Q150.992 558.488 144.672 558.488 Q142.496 558.488 140.228 558.118 Q137.982 557.748 135.575 557.007 L135.575 552.308 Q137.658 553.442 139.881 553.998 Q142.103 554.553 144.58 554.553 Q148.584 554.553 150.922 552.447 Q153.26 550.34 153.26 546.729 Q153.26 543.118 150.922 541.011 Q148.584 538.905 144.58 538.905 Q142.705 538.905 140.83 539.322 Q138.978 539.738 137.033 540.618 L137.033 523.257 Z" fill="#000000" fill-rule="nonzero" fill-opacity="1" /><path clip-path="url(#clip610)" d="M91.5706 319.575 L99.2095 319.575 L99.2095 293.209 L90.8993 294.876 L90.8993 290.617 L99.1632 288.95 L103.839 288.95 L103.839 319.575 L111.478 319.575 L111.478 323.51 L91.5706 323.51 L91.5706 319.575 Z" fill="#000000" fill-rule="nonzero" fill-opacity="1" /><path clip-path="url(#clip610)" d="M120.922 317.63 L125.807 317.63 L125.807 323.51 L120.922 323.51 L120.922 317.63 Z" fill="#000000" fill-rule="nonzero" fill-opacity="1" /><path clip-path="url(#clip610)" d="M145.992 292.029 Q142.381 292.029 140.552 295.593 Q138.746 299.135 138.746 306.265 Q138.746 313.371 140.552 316.936 Q142.381 320.477 145.992 320.477 Q149.626 320.477 151.431 316.936 Q153.26 313.371 153.26 306.265 Q153.26 299.135 151.431 295.593 Q149.626 292.029 145.992 292.029 M145.992 288.325 Q151.802 288.325 154.857 292.931 Q157.936 297.515 157.936 306.265 Q157.936 314.991 154.857 319.598 Q151.802 324.181 145.992 324.181 Q140.181 324.181 137.103 319.598 Q134.047 314.991 134.047 306.265 Q134.047 297.515 137.103 292.931 Q140.181 288.325 145.992 288.325 Z" fill="#000000" fill-rule="nonzero" fill-opacity="1" /><path clip-path="url(#clip610)" d="M92.566 85.2676 L100.205 85.2676 L100.205 58.902 L91.8947 60.5687 L91.8947 56.3094 L100.159 54.6428 L104.834 54.6428 L104.834 85.2676 L112.473 85.2676 L112.473 89.2028 L92.566 89.2028 L92.566 85.2676 Z" fill="#000000" fill-rule="nonzero" fill-opacity="1" /><path clip-path="url(#clip610)" d="M121.918 83.3232 L126.802 83.3232 L126.802 89.2028 L121.918 89.2028 L121.918 83.3232 Z" fill="#000000" fill-rule="nonzero" fill-opacity="1" /><path clip-path="url(#clip610)" d="M137.033 54.6428 L155.39 54.6428 L155.39 58.5779 L141.316 58.5779 L141.316 67.0501 Q142.334 66.7029 143.353 66.5409 Q144.371 66.3557 145.39 66.3557 Q151.177 66.3557 154.556 69.527 Q157.936 72.6982 157.936 78.1149 Q157.936 83.6936 154.464 86.7954 Q150.992 89.8741 144.672 89.8741 Q142.496 89.8741 140.228 89.5037 Q137.982 89.1333 135.575 88.3926 L135.575 83.6936 Q137.658 84.8278 139.881 85.3834 Q142.103 85.9389 144.58 85.9389 Q148.584 85.9389 150.922 83.8324 Q153.26 81.726 153.26 78.1149 Q153.26 74.5038 150.922 72.3973 Q148.584 70.2908 144.58 70.2908 Q142.705 70.2908 140.83 70.7075 Q138.978 71.1242 137.033 72.0038 L137.033 54.6428 Z" fill="#000000" fill-rule="nonzero" fill-opacity="1" /><circle clip-path="url(#clip612)" cx="2141.13" cy="1445.72" r="14.4" fill="#009af9" fill-rule="evenodd" fill-opacity="0.5" stroke="#000000" stroke-opacity="0.5" stroke-width="3.2"/>
<circle clip-path="url(#clip612)" cx="1231.77" cy="681.151" r="14.4" fill="#009af9" fill-rule="evenodd" fill-opacity="0.5" stroke="#000000" stroke-opacity="0.5" stroke-width="3.2"/>
<circle clip-path="url(#clip612)" cx="1773.33" cy="857.524" r="14.4" fill="#009af9" fill-rule="evenodd" fill-opacity="0.5" stroke="#000000" stroke-opacity="0.5" stroke-width="3.2"/>
<circle clip-path="url(#clip612)" cx="1696.16" cy="742.976" r="14.4" fill="#009af9" fill-rule="evenodd" fill-opacity="0.5" stroke="#000000" stroke-opacity="0.5" stroke-width="3.2"/>
<circle clip-path="url(#clip612)" cx="1224.2" cy="145.185" r="14.4" fill="#009af9" fill-rule="evenodd" fill-opacity="0.5" stroke="#000000" stroke-opacity="0.5" stroke-width="3.2"/>
<circle clip-path="url(#clip612)" cx="2291.66" cy="560.879" r="14.4" fill="#009af9" fill-rule="evenodd" fill-opacity="0.5" stroke="#000000" stroke-opacity="0.5" stroke-width="3.2"/>
<circle clip-path="url(#clip612)" cx="860.869" cy="530.623" r="14.4" fill="#009af9" fill-rule="evenodd" fill-opacity="0.5" stroke="#000000" stroke-opacity="0.5" stroke-width="3.2"/>
<circle clip-path="url(#clip612)" cx="1308.56" cy="301.498" r="14.4" fill="#009af9" fill-rule="evenodd" fill-opacity="0.5" stroke="#000000" stroke-opacity="0.5" stroke-width="3.2"/>
<circle clip-path="url(#clip612)" cx="1716.02" cy="955.553" r="14.4" fill="#009af9" fill-rule="evenodd" fill-opacity="0.5" stroke="#000000" stroke-opacity="0.5" stroke-width="3.2"/>
<circle clip-path="url(#clip612)" cx="1580.96" cy="667.811" r="14.4" fill="#009af9" fill-rule="evenodd" fill-opacity="0.5" stroke="#000000" stroke-opacity="0.5" stroke-width="3.2"/>
<circle clip-path="url(#clip612)" cx="1774.54" cy="404.888" r="14.4" fill="#009af9" fill-rule="evenodd" fill-opacity="0.5" stroke="#000000" stroke-opacity="0.5" stroke-width="3.2"/>
<circle clip-path="url(#clip612)" cx="255.035" cy="418.54" r="14.4" fill="#009af9" fill-rule="evenodd" fill-opacity="0.5" stroke="#000000" stroke-opacity="0.5" stroke-width="3.2"/>
<circle clip-path="url(#clip612)" cx="1287.53" cy="686.862" r="14.4" fill="#009af9" fill-rule="evenodd" fill-opacity="0.5" stroke="#000000" stroke-opacity="0.5" stroke-width="3.2"/>
<circle clip-path="url(#clip612)" cx="1088.03" cy="1177.64" r="14.4" fill="#009af9" fill-rule="evenodd" fill-opacity="0.5" stroke="#000000" stroke-opacity="0.5" stroke-width="3.2"/>
<circle clip-path="url(#clip612)" cx="1769.12" cy="414.606" r="14.4" fill="#009af9" fill-rule="evenodd" fill-opacity="0.5" stroke="#000000" stroke-opacity="0.5" stroke-width="3.2"/>
<circle clip-path="url(#clip612)" cx="1297.81" cy="912.507" r="14.4" fill="#009af9" fill-rule="evenodd" fill-opacity="0.5" stroke="#000000" stroke-opacity="0.5" stroke-width="3.2"/>
<circle clip-path="url(#clip612)" cx="1177.23" cy="714.925" r="14.4" fill="#009af9" fill-rule="evenodd" fill-opacity="0.5" stroke="#000000" stroke-opacity="0.5" stroke-width="3.2"/>
<circle clip-path="url(#clip612)" cx="947.204" cy="1087.62" r="14.4" fill="#009af9" fill-rule="evenodd" fill-opacity="0.5" stroke="#000000" stroke-opacity="0.5" stroke-width="3.2"/>
<circle clip-path="url(#clip612)" cx="926.817" cy="1392.19" r="14.4" fill="#009af9" fill-rule="evenodd" fill-opacity="0.5" stroke="#000000" stroke-opacity="0.5" stroke-width="3.2"/>
<circle clip-path="url(#clip612)" cx="1133.51" cy="931.742" r="14.4" fill="#009af9" fill-rule="evenodd" fill-opacity="0.5" stroke="#000000" stroke-opacity="0.5" stroke-width="3.2"/>
<circle clip-path="url(#clip612)" cx="1636.8" cy="818.339" r="14.4" fill="#009af9" fill-rule="evenodd" fill-opacity="0.5" stroke="#000000" stroke-opacity="0.5" stroke-width="3.2"/>
<circle clip-path="url(#clip612)" cx="1598.94" cy="1275.12" r="14.4" fill="#009af9" fill-rule="evenodd" fill-opacity="0.5" stroke="#000000" stroke-opacity="0.5" stroke-width="3.2"/>
<circle clip-path="url(#clip612)" cx="2080.62" cy="637.376" r="14.4" fill="#009af9" fill-rule="evenodd" fill-opacity="0.5" stroke="#000000" stroke-opacity="0.5" stroke-width="3.2"/>
<circle clip-path="url(#clip612)" cx="1799.54" cy="971.895" r="14.4" fill="#009af9" fill-rule="evenodd" fill-opacity="0.5" stroke="#000000" stroke-opacity="0.5" stroke-width="3.2"/>
<circle clip-path="url(#clip612)" cx="633.414" cy="916.424" r="14.4" fill="#009af9" fill-rule="evenodd" fill-opacity="0.5" stroke="#000000" stroke-opacity="0.5" stroke-width="3.2"/>
<circle clip-path="url(#clip612)" cx="813.828" cy="538.843" r="14.4" fill="#009af9" fill-rule="evenodd" fill-opacity="0.5" stroke="#000000" stroke-opacity="0.5" stroke-width="3.2"/>
<circle clip-path="url(#clip612)" cx="1840.6" cy="861.457" r="14.4" fill="#009af9" fill-rule="evenodd" fill-opacity="0.5" stroke="#000000" stroke-opacity="0.5" stroke-width="3.2"/>
<circle clip-path="url(#clip612)" cx="1053.72" cy="162.76" r="14.4" fill="#009af9" fill-rule="evenodd" fill-opacity="0.5" stroke="#000000" stroke-opacity="0.5" stroke-width="3.2"/>
<circle clip-path="url(#clip612)" cx="1054.49" cy="87.9763" r="14.4" fill="#009af9" fill-rule="evenodd" fill-opacity="0.5" stroke="#000000" stroke-opacity="0.5" stroke-width="3.2"/>
<circle clip-path="url(#clip612)" cx="1069.5" cy="671.281" r="14.4" fill="#009af9" fill-rule="evenodd" fill-opacity="0.5" stroke="#000000" stroke-opacity="0.5" stroke-width="3.2"/>
<path clip-path="url(#clip612)" d="M255.035 418.54 L926.817 1392.19 L2141.13 1445.72 L2291.66 560.879 L1224.2 145.185 L1054.49 87.9763 L255.035 418.54 L255.035 418.54  Z" fill="#e26f46" fill-rule="evenodd" fill-opacity="0.2"/>
<polyline clip-path="url(#clip612)" style="stroke:#000000; stroke-linecap:round; stroke-linejoin:round; stroke-width:4; stroke-opacity:0.2; fill:none" points="255.035,418.54 926.817,1392.19 2141.13,1445.72 2291.66,560.879 1224.2,145.185 1054.49,87.9763 255.035,418.54 "/>
</svg>
