<?xml version="1.0" encoding="utf-8"?>
<svg xmlns="http://www.w3.org/2000/svg" xmlns:xlink="http://www.w3.org/1999/xlink" width="300" height="300" viewBox="0 0 1200 1200">
<defs>
  <clipPath id="clip890">
    <rect x="0" y="0" width="1200" height="1200"/>
  </clipPath>
</defs>
<path clip-path="url(#clip890)" d="M0 1200 L1200 1200 L1200 0 L0 0  Z" fill="#ffffff" fill-rule="evenodd" fill-opacity="1"/>
<defs>
  <clipPath id="clip891">
    <rect x="240" y="120" width="841" height="841"/>
  </clipPath>
</defs>
<path clip-path="url(#clip890)" d="M148.357 1027.22 L1128.33 1027.22 L1128.33 47.2441 L148.357 47.2441  Z" fill="#ffffff" fill-rule="evenodd" fill-opacity="1"/>
<defs>
  <clipPath id="clip892">
    <rect x="148" y="47" width="981" height="981"/>
  </clipPath>
</defs>
<polyline clip-path="url(#clip892)" style="stroke:#000000; stroke-linecap:round; stroke-linejoin:round; stroke-width:2; stroke-opacity:0.1; fill:none" points="176.092,1027.22 176.092,47.2441 "/>
<polyline clip-path="url(#clip892)" style="stroke:#000000; stroke-linecap:round; stroke-linejoin:round; stroke-width:2; stroke-opacity:0.1; fill:none" points="638.345,1027.22 638.345,47.2441 "/>
<polyline clip-path="url(#clip892)" style="stroke:#000000; stroke-linecap:round; stroke-linejoin:round; stroke-width:2; stroke-opacity:0.1; fill:none" points="1100.6,1027.22 1100.6,47.2441 "/>
<polyline clip-path="url(#clip892)" style="stroke:#000000; stroke-linecap:round; stroke-linejoin:round; stroke-width:2; stroke-opacity:0.1; fill:none" points="148.357,537.232 1128.33,537.232 "/>
<polyline clip-path="url(#clip892)" style="stroke:#000000; stroke-linecap:round; stroke-linejoin:round; stroke-width:2; stroke-opacity:0.1; fill:none" points="148.357,74.9793 1128.33,74.9793 "/>
<polyline clip-path="url(#clip890)" style="stroke:#000000; stroke-linecap:round; stroke-linejoin:round; stroke-width:4; stroke-opacity:1; fill:none" points="148.357,1027.22 1128.33,1027.22 "/>
<polyline clip-path="url(#clip890)" style="stroke:#000000; stroke-linecap:round; stroke-linejoin:round; stroke-width:4; stroke-opacity:1; fill:none" points="176.092,1027.22 176.092,1008.32 "/>
<polyline clip-path="url(#clip890)" style="stroke:#000000; stroke-linecap:round; stroke-linejoin:round; stroke-width:4; stroke-opacity:1; fill:none" points="638.345,1027.22 638.345,1008.32 "/>
<polyline clip-path="url(#clip890)" style="stroke:#000000; stroke-linecap:round; stroke-linejoin:round; stroke-width:4; stroke-opacity:1; fill:none" points="1100.6,1027.22 1100.6,1008.32 "/>
<g clip-path="url(#clip890)">
<text style="fill:#000000; fill-opacity:1; font-family:Times New Roman,TimesNewRoman,Times,Baskerville,Georgia,serif; font-size:98px; text-anchor:middle;" transform="rotate(0, 176.092, 1118.21)" x="176.092" y="1118.21">−1</text>
</g>
<g clip-path="url(#clip890)">
<text style="fill:#000000; fill-opacity:1; font-family:Times New Roman,TimesNewRoman,Times,Baskerville,Georgia,serif; font-size:98px; text-anchor:middle;" transform="rotate(0, 638.345, 1118.21)" x="638.345" y="1118.21">0</text>
</g>
<g clip-path="url(#clip890)">
<text style="fill:#000000; fill-opacity:1; font-family:Times New Roman,TimesNewRoman,Times,Baskerville,Georgia,serif; font-size:98px; text-anchor:middle;" transform="rotate(0, 1100.6, 1118.21)" x="1100.6" y="1118.21">1</text>
</g>
<polyline clip-path="url(#clip890)" style="stroke:#000000; stroke-linecap:round; stroke-linejoin:round; stroke-width:4; stroke-opacity:1; fill:none" points="148.357,1027.22 148.357,47.2441 "/>
<polyline clip-path="url(#clip890)" style="stroke:#000000; stroke-linecap:round; stroke-linejoin:round; stroke-width:4; stroke-opacity:1; fill:none" points="148.357,537.232 166.358,537.232 "/>
<polyline clip-path="url(#clip890)" style="stroke:#000000; stroke-linecap:round; stroke-linejoin:round; stroke-width:4; stroke-opacity:1; fill:none" points="148.357,74.9793 166.358,74.9793 "/>
<g clip-path="url(#clip890)">
<text style="fill:#000000; fill-opacity:1; font-family:Times New Roman,TimesNewRoman,Times,Baskerville,Georgia,serif; font-size:98px; text-anchor:middle;" transform="rotate(0, 105.886, 569.732)" x="105.886" y="569.732">0</text>
</g>
<g clip-path="url(#clip890)">
<text style="fill:#000000; fill-opacity:1; font-family:Times New Roman,TimesNewRoman,Times,Baskerville,Georgia,serif; font-size:98px; text-anchor:middle;" transform="rotate(0, 105.886, 107.479)" x="105.886" y="107.479">1</text>
</g>
<path clip-path="url(#clip892)" d="M176.092 537.24 L176.12 537.338 L176.173 537.502 L176.276 537.781 L176.404 538.101 L176.553 538.454 L176.72 538.834 L176.906 539.241 L177.109 539.672 L177.433 540.344 L177.919 541.31 L178.458 542.345 L179.047 543.443 L179.676 544.585 L180.339 545.763 L181.044 546.989 L181.787 548.259 L182.568 549.572 L183.386 550.925 L184.239 552.315 L185.126 553.742 L186.035 555.186 L186.963 556.644 L187.922 558.132 L188.909 559.649 L189.926 561.195 L190.97 562.769 L192.042 564.369 L193.14 565.995 L194.264 567.645 L195.414 569.319 L196.59 571.017 L197.789 572.737 L199.014 574.48 L200.262 576.244 L201.533 578.028 L202.828 579.833 L204.129 581.635 L205.434 583.432 L206.759 585.247 L208.106 587.079 L209.472 588.928 L210.859 590.793 L212.265 592.675 L213.69 594.572 L215.134 596.485 L216.597 598.413 L218.078 600.355 L219.578 602.311 L221.095 604.281 L222.63 606.265 L224.183 608.263 L225.752 610.273 L227.338 612.295 L228.941 614.329 L230.559 616.375 L232.194 618.433 L233.845 620.502 L235.512 622.582 L237.194 624.673 L238.891 626.775 L240.604 628.887 L242.331 631.009 L244.073 633.141 L245.829 635.283 L247.6 637.434 L249.384 639.594 L251.183 641.762 L252.995 643.94 L254.796 646.096 L256.586 648.232 L258.388 650.375 L260.203 652.525 L262.942 655.761 L266.642 660.103 L270.388 664.47 L274.178 668.861 L278.011 673.275 L281.886 677.709 L285.802 682.163 L289.756 686.635 L293.748 691.123 L297.778 695.626 L301.842 700.143 L305.941 704.673 L310.073 709.213 L314.237 713.764 L318.431 718.322 L322.653 722.886 L326.904 727.456 L331.181 732.031 L335.485 736.609 L339.814 741.19 L344.166 745.771 L348.54 750.352 L352.936 754.931 L357.352 759.508 L361.787 764.081 L366.24 768.649 L370.709 773.21 L375.195 777.765 L379.694 782.31 L384.207 786.846 L388.732 791.371 L393.268 795.884 L397.813 800.383 L402.367 804.868 L406.929 809.338 L411.497 813.791 L416.07 818.226 L420.646 822.642 L425.226 827.037 L429.807 831.412 L434.388 835.764 L438.968 840.093 L443.547 844.396 L448.121 848.674 L452.692 852.925 L457.256 857.147 L461.814 861.341 L466.364 865.504 L470.905 869.637 L475.434 873.735 L479.952 877.8 L484.455 881.829 L488.943 885.822 L493.415 889.776 L497.868 893.691 L502.303 897.566 L506.716 901.4 L511.108 905.19 L515.475 908.935 L519.817 912.635 L523.053 915.375 L525.203 917.189 L527.346 918.992 L529.481 920.781 L531.638 922.583 L533.815 924.395 L535.984 926.193 L538.144 927.978 L540.295 929.749 L542.436 931.505 L544.568 933.247 L546.69 934.974 L548.802 936.686 L550.904 938.384 L552.995 940.066 L555.076 941.733 L557.145 943.383 L559.203 945.018 L561.249 946.637 L563.283 948.239 L565.305 949.825 L567.315 951.395 L569.312 952.947 L571.296 954.482 L573.267 956 L575.223 957.499 L577.165 958.981 L579.093 960.443 L581.005 961.888 L582.903 963.313 L584.784 964.719 L586.65 966.105 L588.499 967.472 L590.331 968.818 L592.146 970.144 L593.942 971.449 L595.744 972.75 L597.549 974.044 L599.334 975.316 L601.098 976.564 L602.84 977.788 L604.561 978.988 L606.258 980.163 L607.932 981.313 L609.583 982.438 L611.209 983.536 L612.809 984.608 L614.382 985.652 L615.928 986.668 L617.446 987.656 L618.934 988.614 L620.392 989.543 L621.835 990.452 L623.262 991.339 L624.653 992.192 L626.006 993.009 L627.318 993.79 L628.589 994.534 L629.815 995.238 L630.993 995.902 L632.134 996.531 L633.233 997.12 L634.268 997.659 L635.234 998.145 L635.905 998.469 L636.337 998.672 L636.744 998.857 L637.124 999.024 L637.477 999.174 L637.797 999.301 L638.076 999.404 L638.239 999.458 L638.337 999.485 L638.353 999.485 L638.451 999.458 L638.615 999.404 L638.894 999.301 L639.214 999.174 L639.567 999.024 L639.947 998.857 L640.354 998.672 L640.785 998.469 L641.457 998.145 L642.423 997.659 L643.458 997.12 L644.556 996.531 L645.698 995.902 L646.876 995.238 L648.102 994.534 L649.372 993.79 L650.685 993.009 L652.038 992.192 L653.428 991.339 L654.855 990.452 L656.299 989.543 L657.757 988.614 L659.245 987.656 L660.762 986.668 L662.308 985.652 L663.882 984.608 L665.482 983.536 L667.108 982.438 L668.758 981.313 L670.432 980.163 L672.13 978.988 L673.85 977.788 L675.593 976.564 L677.357 975.316 L679.141 974.044 L680.946 972.75 L682.748 971.449 L684.545 970.144 L686.36 968.818 L688.192 967.472 L690.041 966.105 L691.906 964.719 L693.788 963.313 L695.685 961.888 L697.598 960.443 L699.526 958.981 L701.468 957.499 L703.424 956 L705.394 954.482 L707.378 952.947 L709.376 951.395 L711.386 949.825 L713.408 948.239 L715.442 946.637 L717.488 945.018 L719.546 943.383 L721.615 941.733 L723.695 940.066 L725.786 938.384 L727.888 936.686 L730 934.974 L732.122 933.247 L734.254 931.505 L736.396 929.749 L738.547 927.978 L740.707 926.193 L742.875 924.395 L745.053 922.583 L747.209 920.781 L749.345 918.992 L751.488 917.189 L753.638 915.375 L756.874 912.635 L761.216 908.935 L765.583 905.19 L769.974 901.4 L774.388 897.566 L778.822 893.691 L783.276 889.776 L787.748 885.822 L792.236 881.829 L796.739 877.8 L801.256 873.735 L805.786 869.637 L810.326 865.504 L814.877 861.341 L819.435 857.147 L823.999 852.925 L828.569 848.674 L833.144 844.396 L837.722 840.093 L842.302 835.764 L846.884 831.412 L851.465 827.037 L856.044 822.642 L860.621 818.226 L865.194 813.791 L869.762 809.338 L874.323 804.868 L878.878 800.383 L883.423 795.884 L887.959 791.371 L892.484 786.846 L896.997 782.31 L901.496 777.765 L905.981 773.21 L910.451 768.649 L914.904 764.081 L919.339 759.508 L923.755 754.931 L928.15 750.352 L932.525 745.771 L936.877 741.19 L941.206 736.609 L945.509 732.031 L949.787 727.456 L954.038 722.886 L958.26 718.322 L962.453 713.764 L966.617 709.213 L970.749 704.673 L974.848 700.143 L978.913 695.626 L982.942 691.123 L986.935 686.635 L990.889 682.163 L994.804 677.709 L998.679 673.275 L1002.51 668.861 L1006.3 664.47 L1010.05 660.103 L1013.75 655.761 L1016.49 652.525 L1018.3 650.375 L1020.1 648.232 L1021.89 646.096 L1023.7 643.94 L1025.51 641.762 L1027.31 639.594 L1029.09 637.434 L1030.86 635.283 L1032.62 633.141 L1034.36 631.009 L1036.09 628.887 L1037.8 626.775 L1039.5 624.673 L1041.18 622.582 L1042.85 620.502 L1044.5 618.433 L1046.13 616.375 L1047.75 614.329 L1049.35 612.295 L1050.94 610.273 L1052.51 608.263 L1054.06 606.265 L1055.6 604.281 L1057.11 602.311 L1058.61 600.355 L1060.09 598.413 L1061.56 596.485 L1063 594.572 L1064.43 592.675 L1065.83 590.793 L1067.22 588.928 L1068.58 587.079 L1069.93 585.247 L1071.26 583.432 L1072.56 581.635 L1073.86 579.833 L1075.16 578.028 L1076.43 576.244 L1077.68 574.48 L1078.9 572.737 L1080.1 571.017 L1081.28 569.319 L1082.43 567.645 L1083.55 565.995 L1084.65 564.369 L1085.72 562.769 L1086.76 561.195 L1087.78 559.649 L1088.77 558.132 L1089.73 556.644 L1090.66 555.186 L1091.56 553.742 L1092.45 552.315 L1093.3 550.925 L1094.12 549.572 L1094.9 548.259 L1095.65 546.989 L1096.35 545.763 L1097.01 544.585 L1097.64 543.443 L1098.23 542.345 L1098.77 541.31 L1099.26 540.344 L1099.58 539.672 L1099.78 539.241 L1099.97 538.834 L1100.14 538.454 L1100.29 538.101 L1100.41 537.781 L1100.52 537.502 L1100.57 537.338 L1100.6 537.24 L1100.6 537.224 L1100.57 537.126 L1100.52 536.963 L1100.41 536.684 L1100.29 536.364 L1100.14 536.011 L1099.97 535.631 L1099.78 535.224 L1099.58 534.792 L1099.26 534.121 L1098.77 533.155 L1098.23 532.12 L1097.64 531.021 L1097.01 529.88 L1096.35 528.702 L1095.65 527.476 L1094.9 526.205 L1094.12 524.893 L1093.3 523.54 L1092.45 522.149 L1091.56 520.722 L1090.66 519.279 L1089.73 517.821 L1088.77 516.333 L1087.78 514.815 L1086.76 513.269 L1085.72 511.696 L1084.65 510.096 L1083.55 508.47 L1082.43 506.819 L1081.28 505.145 L1080.1 503.448 L1078.9 501.727 L1077.68 499.985 L1076.43 498.221 L1075.16 496.436 L1073.86 494.631 L1072.56 492.829 L1071.26 491.033 L1069.93 489.218 L1068.58 487.386 L1067.22 485.537 L1065.83 483.671 L1064.43 481.79 L1063 479.892 L1061.56 477.98 L1060.09 476.052 L1058.61 474.11 L1057.11 472.154 L1055.6 470.183 L1054.06 468.199 L1052.51 466.202 L1050.94 464.192 L1049.35 462.17 L1047.75 460.136 L1046.13 458.09 L1044.5 456.032 L1042.85 453.963 L1041.18 451.882 L1039.5 449.791 L1037.8 447.69 L1036.09 445.577 L1034.36 443.455 L1032.62 441.323 L1030.86 439.182 L1029.09 437.031 L1027.31 434.871 L1025.51 432.702 L1023.7 430.525 L1021.89 428.368 L1020.1 426.233 L1018.3 424.09 L1016.49 421.94 L1013.75 418.704 L1010.05 414.362 L1006.3 409.995 L1002.51 405.603 L998.679 401.19 L994.804 396.755 L990.889 392.302 L986.935 387.83 L982.942 383.342 L978.913 378.839 L974.848 374.321 L970.749 369.792 L966.617 365.251 L962.453 360.701 L958.26 356.143 L954.038 351.579 L949.787 347.008 L945.509 342.434 L941.206 337.855 L936.877 333.275 L932.525 328.694 L928.15 324.113 L923.755 319.533 L919.339 314.957 L914.904 310.384 L910.451 305.816 L905.981 301.254 L901.496 296.7 L896.997 292.155 L892.484 287.619 L887.959 283.094 L883.423 278.581 L878.878 274.082 L874.323 269.597 L869.762 265.127 L865.194 260.674 L860.621 256.239 L856.044 251.823 L851.465 247.427 L846.884 243.053 L842.302 238.701 L837.722 234.372 L833.144 230.068 L828.569 225.791 L823.999 221.54 L819.435 217.318 L814.877 213.124 L810.326 208.96 L805.786 204.828 L801.256 200.729 L796.739 196.665 L792.236 192.635 L787.748 188.643 L783.276 184.689 L778.822 180.773 L774.388 176.898 L769.974 173.065 L765.583 169.275 L761.216 165.529 L756.874 161.829 L753.638 159.09 L751.488 157.275 L749.345 155.473 L747.209 153.683 L745.053 151.882 L742.875 150.07 L740.707 148.271 L738.547 146.487 L736.396 144.716 L734.254 142.96 L732.122 141.218 L730 139.491 L727.888 137.778 L725.786 136.081 L723.695 134.399 L721.615 132.732 L719.546 131.081 L717.488 129.446 L715.442 127.828 L713.408 126.225 L711.386 124.639 L709.376 123.07 L707.378 121.517 L705.394 119.982 L703.424 118.465 L701.468 116.965 L699.526 115.484 L697.598 114.021 L695.685 112.577 L693.788 111.152 L691.906 109.746 L690.041 108.359 L688.192 106.993 L686.36 105.646 L684.545 104.321 L682.748 103.016 L680.946 101.715 L679.141 100.42 L677.357 99.1488 L675.593 97.9007 L673.85 96.6765 L672.13 95.4765 L670.432 94.3014 L668.758 93.1514 L667.108 92.027 L665.482 90.9285 L663.882 89.8569 L662.308 88.8127 L660.762 87.7964 L659.245 86.8087 L657.757 85.8503 L656.299 84.922 L654.855 84.013 L653.428 83.1259 L652.038 82.273 L650.685 81.4554 L649.372 80.6742 L648.102 79.9306 L646.876 79.2262 L645.698 78.5627 L644.556 77.934 L643.458 77.3448 L642.423 76.8055 L641.457 76.3196 L640.785 75.996 L640.354 75.7931 L639.947 75.6075 L639.567 75.4403 L639.214 75.2911 L638.894 75.1632 L638.615 75.0602 L638.451 75.0071 L638.353 74.9793 L638.337 74.9793 L638.239 75.0071 L638.076 75.0602 L637.797 75.1632 L637.477 75.2911 L637.124 75.4403 L636.744 75.6075 L636.337 75.7931 L635.905 75.996 L635.234 76.3196 L634.268 76.8055 L633.233 77.3448 L632.134 77.934 L630.993 78.5627 L629.815 79.2262 L628.589 79.9306 L627.318 80.6742 L626.006 81.4554 L624.653 82.273 L623.262 83.1259 L621.835 84.013 L620.392 84.922 L618.934 85.8503 L617.446 86.8087 L615.928 87.7964 L614.382 88.8127 L612.809 89.8569 L611.209 90.9285 L609.583 92.027 L607.932 93.1514 L606.258 94.3014 L604.561 95.4765 L602.84 96.6765 L601.098 97.9007 L599.334 99.1488 L597.549 100.42 L595.744 101.715 L593.942 103.016 L592.146 104.321 L590.331 105.646 L588.499 106.993 L586.65 108.359 L584.784 109.746 L582.903 111.152 L581.005 112.577 L579.093 114.021 L577.165 115.484 L575.223 116.965 L573.267 118.465 L571.296 119.982 L569.312 121.517 L567.315 123.07 L565.305 124.639 L563.283 126.225 L561.249 127.828 L559.203 129.446 L557.145 131.081 L555.076 132.732 L552.995 134.399 L550.904 136.081 L548.802 137.778 L546.69 139.491 L544.568 141.218 L542.436 142.96 L540.295 144.716 L538.144 146.487 L535.984 148.271 L533.815 150.07 L531.638 151.882 L529.481 153.683 L527.346 155.473 L525.203 157.275 L523.053 159.09 L519.817 161.829 L515.475 165.529 L511.108 169.275 L506.716 173.065 L502.303 176.898 L497.868 180.773 L493.415 184.689 L488.943 188.643 L484.455 192.635 L479.952 196.665 L475.434 200.729 L470.905 204.828 L466.364 208.96 L461.814 213.124 L457.256 217.318 L452.692 221.54 L448.121 225.791 L443.547 230.068 L438.968 234.372 L434.388 238.701 L429.807 243.053 L425.226 247.427 L420.646 251.823 L416.07 256.239 L411.497 260.674 L406.929 265.127 L402.367 269.597 L397.813 274.082 L393.268 278.581 L388.732 283.094 L384.207 287.619 L379.694 292.155 L375.195 296.7 L370.709 301.254 L366.24 305.816 L361.787 310.384 L357.352 314.957 L352.936 319.533 L348.54 324.113 L344.166 328.694 L339.814 333.275 L335.485 337.855 L331.181 342.434 L326.904 347.008 L322.653 351.579 L318.431 356.143 L314.237 360.701 L310.073 365.251 L305.941 369.792 L301.842 374.321 L297.778 378.839 L293.748 383.342 L289.756 387.83 L285.802 392.302 L281.886 396.755 L278.011 401.19 L274.178 405.603 L270.388 409.995 L266.642 414.362 L262.942 418.704 L260.203 421.94 L258.388 424.09 L256.586 426.233 L254.796 428.368 L252.995 430.525 L251.183 432.702 L249.384 434.871 L247.6 437.031 L245.829 439.182 L244.073 441.323 L242.331 443.455 L240.604 445.577 L238.891 447.69 L237.194 449.791 L235.512 451.882 L233.845 453.963 L232.194 456.032 L230.559 458.09 L228.941 460.136 L227.338 462.17 L225.752 464.192 L224.183 466.202 L222.63 468.199 L221.095 470.183 L219.578 472.154 L218.078 474.11 L216.597 476.052 L215.134 477.98 L213.69 479.892 L212.265 481.79 L210.859 483.671 L209.472 485.537 L208.106 487.386 L206.759 489.218 L205.434 491.033 L204.129 492.829 L202.828 494.631 L201.533 496.436 L200.262 498.221 L199.014 499.985 L197.789 501.727 L196.59 503.448 L195.414 505.145 L194.264 506.819 L193.14 508.47 L192.042 510.096 L190.97 511.696 L189.926 513.269 L188.909 514.815 L187.922 516.333 L186.963 517.821 L186.035 519.279 L185.126 520.722 L184.239 522.149 L183.386 523.54 L182.568 524.893 L181.787 526.205 L181.044 527.476 L180.339 528.702 L179.676 529.88 L179.047 531.021 L178.458 532.12 L177.919 533.155 L177.433 534.121 L177.109 534.792 L176.906 535.224 L176.72 535.631 L176.553 536.011 L176.404 536.364 L176.276 536.684 L176.173 536.963 L176.12 537.126 L176.092 537.224 L176.092 537.24 L176.092 537.24  Z" fill="#ff0000" fill-rule="evenodd" fill-opacity="0.7"/>
<polyline clip-path="url(#clip892)" style="stroke:#000000; stroke-linecap:round; stroke-linejoin:round; stroke-width:4; stroke-opacity:0.7; fill:none" points="176.092,537.24 176.12,537.338 176.173,537.502 176.276,537.781 176.404,538.101 176.553,538.454 176.72,538.834 176.906,539.241 177.109,539.672 177.433,540.344 177.919,541.31 178.458,542.345 179.047,543.443 179.676,544.585 180.339,545.763 181.044,546.989 181.787,548.259 182.568,549.572 183.386,550.925 184.239,552.315 185.126,553.742 186.035,555.186 186.963,556.644 187.922,558.132 188.909,559.649 189.926,561.195 190.97,562.769 192.042,564.369 193.14,565.995 194.264,567.645 195.414,569.319 196.59,571.017 197.789,572.737 199.014,574.48 200.262,576.244 201.533,578.028 202.828,579.833 204.129,581.635 205.434,583.432 206.759,585.247 208.106,587.079 209.472,588.928 210.859,590.793 212.265,592.675 213.69,594.572 215.134,596.485 216.597,598.413 218.078,600.355 219.578,602.311 221.095,604.281 222.63,606.265 224.183,608.263 225.752,610.273 227.338,612.295 228.941,614.329 230.559,616.375 232.194,618.433 233.845,620.502 235.512,622.582 237.194,624.673 238.891,626.775 240.604,628.887 242.331,631.009 244.073,633.141 245.829,635.283 247.6,637.434 249.384,639.594 251.183,641.762 252.995,643.94 254.796,646.096 256.586,648.232 258.388,650.375 260.203,652.525 262.942,655.761 266.642,660.103 270.388,664.47 274.178,668.861 278.011,673.275 281.886,677.709 285.802,682.163 289.756,686.635 293.748,691.123 297.778,695.626 301.842,700.143 305.941,704.673 310.073,709.213 314.237,713.764 318.431,718.322 322.653,722.886 326.904,727.456 331.181,732.031 335.485,736.609 339.814,741.19 344.166,745.771 348.54,750.352 352.936,754.931 357.352,759.508 361.787,764.081 366.24,768.649 370.709,773.21 375.195,777.765 379.694,782.31 384.207,786.846 388.732,791.371 393.268,795.884 397.813,800.383 402.367,804.868 406.929,809.338 411.497,813.791 416.07,818.226 420.646,822.642 425.226,827.037 429.807,831.412 434.388,835.764 438.968,840.093 443.547,844.396 448.121,848.674 452.692,852.925 457.256,857.147 461.814,861.341 466.364,865.504 470.905,869.637 475.434,873.735 479.952,877.8 484.455,881.829 488.943,885.822 493.415,889.776 497.868,893.691 502.303,897.566 506.716,901.4 511.108,905.19 515.475,908.935 519.817,912.635 523.053,915.375 525.203,917.189 527.346,918.992 529.481,920.781 531.638,922.583 533.815,924.395 535.984,926.193 538.144,927.978 540.295,929.749 542.436,931.505 544.568,933.247 546.69,934.974 548.802,936.686 550.904,938.384 552.995,940.066 555.076,941.733 557.145,943.383 559.203,945.018 561.249,946.637 563.283,948.239 565.305,949.825 567.315,951.395 569.312,952.947 571.296,954.482 573.267,956 575.223,957.499 577.165,958.981 579.093,960.443 581.005,961.888 582.903,963.313 584.784,964.719 586.65,966.105 588.499,967.472 590.331,968.818 592.146,970.144 593.942,971.449 595.744,972.75 597.549,974.044 599.334,975.316 601.098,976.564 602.84,977.788 604.561,978.988 606.258,980.163 607.932,981.313 609.583,982.438 611.209,983.536 612.809,984.608 614.382,985.652 615.928,986.668 617.446,987.656 618.934,988.614 620.392,989.543 621.835,990.452 623.262,991.339 624.653,992.192 626.006,993.009 627.318,993.79 628.589,994.534 629.815,995.238 630.993,995.902 632.134,996.531 633.233,997.12 634.268,997.659 635.234,998.145 635.905,998.469 636.337,998.672 636.744,998.857 637.124,999.024 637.477,999.174 637.797,999.301 638.076,999.404 638.239,999.458 638.337,999.485 638.353,999.485 638.451,999.458 638.615,999.404 638.894,999.301 639.214,999.174 639.567,999.024 639.947,998.857 640.354,998.672 640.785,998.469 641.457,998.145 642.423,997.659 643.458,997.12 644.556,996.531 645.698,995.902 646.876,995.238 648.102,994.534 649.372,993.79 650.685,993.009 652.038,992.192 653.428,991.339 654.855,990.452 656.299,989.543 657.757,988.614 659.245,987.656 660.762,986.668 662.308,985.652 663.882,984.608 665.482,983.536 667.108,982.438 668.758,981.313 670.432,980.163 672.13,978.988 673.85,977.788 675.593,976.564 677.357,975.316 679.141,974.044 680.946,972.75 682.748,971.449 684.545,970.144 686.36,968.818 688.192,967.472 690.041,966.105 691.906,964.719 693.788,963.313 695.685,961.888 697.598,960.443 699.526,958.981 701.468,957.499 703.424,956 705.394,954.482 707.378,952.947 709.376,951.395 711.386,949.825 713.408,948.239 715.442,946.637 717.488,945.018 719.546,943.383 721.615,941.733 723.695,940.066 725.786,938.384 727.888,936.686 730,934.974 732.122,933.247 734.254,931.505 736.396,929.749 738.547,927.978 740.707,926.193 742.875,924.395 745.053,922.583 747.209,920.781 749.345,918.992 751.488,917.189 753.638,915.375 756.874,912.635 761.216,908.935 765.583,905.19 769.974,901.4 774.388,897.566 778.822,893.691 783.276,889.776 787.748,885.822 792.236,881.829 796.739,877.8 801.256,873.735 805.786,869.637 810.326,865.504 814.877,861.341 819.435,857.147 823.999,852.925 828.569,848.674 833.144,844.396 837.722,840.093 842.302,835.764 846.884,831.412 851.465,827.037 856.044,822.642 860.621,818.226 865.194,813.791 869.762,809.338 874.323,804.868 878.878,800.383 883.423,795.884 887.959,791.371 892.484,786.846 896.997,782.31 901.496,777.765 905.981,773.21 910.451,768.649 914.904,764.081 919.339,759.508 923.755,754.931 928.15,750.352 932.525,745.771 936.877,741.19 941.206,736.609 945.509,732.031 949.787,727.456 954.038,722.886 958.26,718.322 962.453,713.764 966.617,709.213 970.749,704.673 974.848,700.143 978.913,695.626 982.942,691.123 986.935,686.635 990.889,682.163 994.804,677.709 998.679,673.275 1002.51,668.861 1006.3,664.47 1010.05,660.103 1013.75,655.761 1016.49,652.525 1018.3,650.375 1020.1,648.232 1021.89,646.096 1023.7,643.94 1025.51,641.762 1027.31,639.594 1029.09,637.434 1030.86,635.283 1032.62,633.141 1034.36,631.009 1036.09,628.887 1037.8,626.775 1039.5,624.673 1041.18,622.582 1042.85,620.502 1044.5,618.433 1046.13,616.375 1047.75,614.329 1049.35,612.295 1050.94,610.273 1052.51,608.263 1054.06,606.265 1055.6,604.281 1057.11,602.311 1058.61,600.355 1060.09,598.413 1061.56,596.485 1063,594.572 1064.43,592.675 1065.83,590.793 1067.22,588.928 1068.58,587.079 1069.93,585.247 1071.26,583.432 1072.56,581.635 1073.86,579.833 1075.16,578.028 1076.43,576.244 1077.68,574.48 1078.9,572.737 1080.1,571.017 1081.28,569.319 1082.43,567.645 1083.55,565.995 1084.65,564.369 1085.72,562.769 1086.76,561.195 1087.78,559.649 1088.77,558.132 1089.73,556.644 1090.66,555.186 1091.56,553.742 1092.45,552.315 1093.3,550.925 1094.12,549.572 1094.9,548.259 1095.65,546.989 1096.35,545.763 1097.01,544.585 1097.64,543.443 1098.23,542.345 1098.77,541.31 1099.26,540.344 1099.58,539.672 1099.78,539.241 1099.97,538.834 1100.14,538.454 1100.29,538.101 1100.41,537.781 1100.52,537.502 1100.57,537.338 1100.6,537.24 1100.6,537.224 1100.57,537.126 1100.52,536.963 1100.41,536.684 1100.29,536.364 1100.14,536.011 1099.97,535.631 1099.78,535.224 1099.58,534.792 1099.26,534.121 1098.77,533.155 1098.23,532.12 1097.64,531.021 1097.01,529.88 1096.35,528.702 1095.65,527.476 1094.9,526.205 1094.12,524.893 1093.3,523.54 1092.45,522.149 1091.56,520.722 1090.66,519.279 1089.73,517.821 1088.77,516.333 1087.78,514.815 1086.76,513.269 1085.72,511.696 1084.65,510.096 1083.55,508.47 1082.43,506.819 1081.28,505.145 1080.1,503.448 1078.9,501.727 1077.68,499.985 1076.43,498.221 1075.16,496.436 1073.86,494.631 1072.56,492.829 1071.26,491.033 1069.93,489.218 1068.58,487.386 1067.22,485.537 1065.83,483.671 1064.43,481.79 1063,479.892 1061.56,477.98 1060.09,476.052 1058.61,474.11 1057.11,472.154 1055.6,470.183 1054.06,468.199 1052.51,466.202 1050.94,464.192 1049.35,462.17 1047.75,460.136 1046.13,458.09 1044.5,456.032 1042.85,453.963 1041.18,451.882 1039.5,449.791 1037.8,447.69 1036.09,445.577 1034.36,443.455 1032.62,441.323 1030.86,439.182 1029.09,437.031 1027.31,434.871 1025.51,432.702 1023.7,430.525 1021.89,428.368 1020.1,426.233 1018.3,424.09 1016.49,421.94 1013.75,418.704 1010.05,414.362 1006.3,409.995 1002.51,405.603 998.679,401.19 994.804,396.755 990.889,392.302 986.935,387.83 982.942,383.342 978.913,378.839 974.848,374.321 970.749,369.792 966.617,365.251 962.453,360.701 958.26,356.143 954.038,351.579 949.787,347.008 945.509,342.434 941.206,337.855 936.877,333.275 932.525,328.694 928.15,324.113 923.755,319.533 919.339,314.957 914.904,310.384 910.451,305.816 905.981,301.254 901.496,296.7 896.997,292.155 892.484,287.619 887.959,283.094 883.423,278.581 878.878,274.082 874.323,269.597 869.762,265.127 865.194,260.674 860.621,256.239 856.044,251.823 851.465,247.427 846.884,243.053 842.302,238.701 837.722,234.372 833.144,230.068 828.569,225.791 823.999,221.54 819.435,217.318 814.877,213.124 810.326,208.96 805.786,204.828 801.256,200.729 796.739,196.665 792.236,192.635 787.748,188.643 783.276,184.689 778.822,180.773 774.388,176.898 769.974,173.065 765.583,169.275 761.216,165.529 756.874,161.829 753.638,159.09 751.488,157.275 749.345,155.473 747.209,153.683 745.053,151.882 742.875,150.07 740.707,148.271 738.547,146.487 736.396,144.716 734.254,142.96 732.122,141.218 730,139.491 727.888,137.778 725.786,136.081 723.695,134.399 721.615,132.732 719.546,131.081 717.488,129.446 715.442,127.828 713.408,126.225 711.386,124.639 709.376,123.07 707.378,121.517 705.394,119.982 703.424,118.465 701.468,116.965 699.526,115.484 697.598,114.021 695.685,112.577 693.788,111.152 691.906,109.746 690.041,108.359 688.192,106.993 686.36,105.646 684.545,104.321 682.748,103.016 680.946,101.715 679.141,100.42 677.357,99.1488 675.593,97.9007 673.85,96.6765 672.13,95.4765 670.432,94.3014 668.758,93.1514 667.108,92.027 665.482,90.9285 663.882,89.8569 662.308,88.8127 660.762,87.7964 659.245,86.8087 657.757,85.8503 656.299,84.922 654.855,84.013 653.428,83.1259 652.038,82.273 650.685,81.4554 649.372,80.6742 648.102,79.9306 646.876,79.2262 645.698,78.5627 644.556,77.934 643.458,77.3448 642.423,76.8055 641.457,76.3196 640.785,75.996 640.354,75.7931 639.947,75.6075 639.567,75.4403 639.214,75.2911 638.894,75.1632 638.615,75.0602 638.451,75.0071 638.353,74.9793 638.337,74.9793 638.239,75.0071 638.076,75.0602 637.797,75.1632 637.477,75.2911 637.124,75.4403 636.744,75.6075 636.337,75.7931 635.905,75.996 635.234,76.3196 634.268,76.8055 633.233,77.3448 632.134,77.934 630.993,78.5627 629.815,79.2262 628.589,79.9306 627.318,80.6742 626.006,81.4554 624.653,82.273 623.262,83.1259 621.835,84.013 620.392,84.922 618.934,85.8503 617.446,86.8087 615.928,87.7964 614.382,88.8127 612.809,89.8569 611.209,90.9285 609.583,92.027 607.932,93.1514 606.258,94.3014 604.561,95.4765 602.84,96.6765 601.098,97.9007 599.334,99.1488 597.549,100.42 595.744,101.715 593.942,103.016 592.146,104.321 590.331,105.646 588.499,106.993 586.65,108.359 584.784,109.746 582.903,111.152 581.005,112.577 579.093,114.021 577.165,115.484 575.223,116.965 573.267,118.465 571.296,119.982 569.312,121.517 567.315,123.07 565.305,124.639 563.283,126.225 561.249,127.828 559.203,129.446 557.145,131.081 555.076,132.732 552.995,134.399 550.904,136.081 548.802,137.778 546.69,139.491 544.568,141.218 542.436,142.96 540.295,144.716 538.144,146.487 535.984,148.271 533.815,150.07 531.638,151.882 529.481,153.683 527.346,155.473 525.203,157.275 523.053,159.09 519.817,161.829 515.475,165.529 511.108,169.275 506.716,173.065 502.303,176.898 497.868,180.773 493.415,184.689 488.943,188.643 484.455,192.635 479.952,196.665 475.434,200.729 470.905,204.828 466.364,208.96 461.814,213.124 457.256,217.318 452.692,221.54 448.121,225.791 443.547,230.068 438.968,234.372 434.388,238.701 429.807,243.053 425.226,247.427 420.646,251.823 416.07,256.239 411.497,260.674 406.929,265.127 402.367,269.597 397.813,274.082 393.268,278.581 388.732,283.094 384.207,287.619 379.694,292.155 375.195,296.7 370.709,301.254 366.24,305.816 361.787,310.384 357.352,314.957 352.936,319.533 348.54,324.113 344.166,328.694 339.814,333.275 335.485,337.855 331.181,342.434 326.904,347.008 322.653,351.579 318.431,356.143 314.237,360.701 310.073,365.251 305.941,369.792 301.842,374.321 297.778,378.839 293.748,383.342 289.756,387.83 285.802,392.302 281.886,396.755 278.011,401.19 274.178,405.603 270.388,409.995 266.642,414.362 262.942,418.704 260.203,421.94 258.388,424.09 256.586,426.233 254.796,428.368 252.995,430.525 251.183,432.702 249.384,434.871 247.6,437.031 245.829,439.182 244.073,441.323 242.331,443.455 240.604,445.577 238.891,447.69 237.194,449.791 235.512,451.882 233.845,453.963 232.194,456.032 230.559,458.09 228.941,460.136 227.338,462.17 225.752,464.192 224.183,466.202 222.63,468.199 221.095,470.183 219.578,472.154 218.078,474.11 216.597,476.052 215.134,477.98 213.69,479.892 212.265,481.79 210.859,483.671 209.472,485.537 208.106,487.386 206.759,489.218 205.434,491.033 204.129,492.829 202.828,494.631 201.533,496.436 200.262,498.221 199.014,499.985 197.789,501.727 196.59,503.448 195.414,505.145 194.264,506.819 193.14,508.47 192.042,510.096 190.97,511.696 189.926,513.269 188.909,514.815 187.922,516.333 186.963,517.821 186.035,519.279 185.126,520.722 184.239,522.149 183.386,523.54 182.568,524.893 181.787,526.205 181.044,527.476 180.339,528.702 179.676,529.88 179.047,531.021 178.458,532.12 177.919,533.155 177.433,534.121 177.109,534.792 176.906,535.224 176.72,535.631 176.553,536.011 176.404,536.364 176.276,536.684 176.173,536.963 176.12,537.126 176.092,537.224 176.092,537.24 "/>
</svg>
