<?xml version="1.0" encoding="utf-8"?>
<svg xmlns="http://www.w3.org/2000/svg" xmlns:xlink="http://www.w3.org/1999/xlink" width="600" height="400" viewBox="0 0 2400 1600">
<defs>
  <clipPath id="clip060">
    <rect x="0" y="0" width="2400" height="1600"/>
  </clipPath>
</defs>
<path clip-path="url(#clip060)" d="M0 1600 L2400 1600 L2400 0 L0 0  Z" fill="#ffffff" fill-rule="evenodd" fill-opacity="1"/>
<defs>
  <clipPath id="clip061">
    <rect x="480" y="0" width="1681" height="1600"/>
  </clipPath>
</defs>
<path clip-path="url(#clip060)" d="M147.478 1486.45 L2352.76 1486.45 L2352.76 47.2441 L147.478 47.2441  Z" fill="#ffffff" fill-rule="evenodd" fill-opacity="1"/>
<defs>
  <clipPath id="clip062">
    <rect x="147" y="47" width="2206" height="1440"/>
  </clipPath>
</defs>
<polyline clip-path="url(#clip062)" style="stroke:#000000; stroke-linecap:round; stroke-linejoin:round; stroke-width:2; stroke-opacity:0.1; fill:none" points="294.065,1486.45 294.065,47.2441 "/>
<polyline clip-path="url(#clip062)" style="stroke:#000000; stroke-linecap:round; stroke-linejoin:round; stroke-width:2; stroke-opacity:0.1; fill:none" points="885.227,1486.45 885.227,47.2441 "/>
<polyline clip-path="url(#clip062)" style="stroke:#000000; stroke-linecap:round; stroke-linejoin:round; stroke-width:2; stroke-opacity:0.1; fill:none" points="1476.39,1486.45 1476.39,47.2441 "/>
<polyline clip-path="url(#clip062)" style="stroke:#000000; stroke-linecap:round; stroke-linejoin:round; stroke-width:2; stroke-opacity:0.1; fill:none" points="2067.55,1486.45 2067.55,47.2441 "/>
<polyline clip-path="url(#clip062)" style="stroke:#000000; stroke-linecap:round; stroke-linejoin:round; stroke-width:2; stroke-opacity:0.1; fill:none" points="147.478,1315.62 2352.76,1315.62 "/>
<polyline clip-path="url(#clip062)" style="stroke:#000000; stroke-linecap:round; stroke-linejoin:round; stroke-width:2; stroke-opacity:0.1; fill:none" points="147.478,942.768 2352.76,942.768 "/>
<polyline clip-path="url(#clip062)" style="stroke:#000000; stroke-linecap:round; stroke-linejoin:round; stroke-width:2; stroke-opacity:0.1; fill:none" points="147.478,569.912 2352.76,569.912 "/>
<polyline clip-path="url(#clip062)" style="stroke:#000000; stroke-linecap:round; stroke-linejoin:round; stroke-width:2; stroke-opacity:0.1; fill:none" points="147.478,197.056 2352.76,197.056 "/>
<polyline clip-path="url(#clip060)" style="stroke:#000000; stroke-linecap:round; stroke-linejoin:round; stroke-width:4; stroke-opacity:1; fill:none" points="147.478,1486.45 2352.76,1486.45 "/>
<polyline clip-path="url(#clip060)" style="stroke:#000000; stroke-linecap:round; stroke-linejoin:round; stroke-width:4; stroke-opacity:1; fill:none" points="294.065,1486.45 294.065,1467.55 "/>
<polyline clip-path="url(#clip060)" style="stroke:#000000; stroke-linecap:round; stroke-linejoin:round; stroke-width:4; stroke-opacity:1; fill:none" points="885.227,1486.45 885.227,1467.55 "/>
<polyline clip-path="url(#clip060)" style="stroke:#000000; stroke-linecap:round; stroke-linejoin:round; stroke-width:4; stroke-opacity:1; fill:none" points="1476.39,1486.45 1476.39,1467.55 "/>
<polyline clip-path="url(#clip060)" style="stroke:#000000; stroke-linecap:round; stroke-linejoin:round; stroke-width:4; stroke-opacity:1; fill:none" points="2067.55,1486.45 2067.55,1467.55 "/>
<path clip-path="url(#clip060)" d="M264.007 1532.02 L293.683 1532.02 L293.683 1535.95 L264.007 1535.95 L264.007 1532.02 Z" fill="#000000" fill-rule="nonzero" fill-opacity="1" /><path clip-path="url(#clip060)" d="M307.803 1544.91 L324.123 1544.91 L324.123 1548.85 L302.178 1548.85 L302.178 1544.91 Q304.84 1542.16 309.424 1537.53 Q314.03 1532.88 315.211 1531.53 Q317.456 1529.01 318.336 1527.27 Q319.239 1525.51 319.239 1523.82 Q319.239 1521.07 317.294 1519.33 Q315.373 1517.6 312.271 1517.6 Q310.072 1517.6 307.618 1518.36 Q305.188 1519.13 302.41 1520.68 L302.41 1515.95 Q305.234 1514.82 307.688 1514.24 Q310.141 1513.66 312.178 1513.66 Q317.549 1513.66 320.743 1516.35 Q323.938 1519.03 323.938 1523.52 Q323.938 1525.65 323.127 1527.57 Q322.34 1529.47 320.234 1532.07 Q319.655 1532.74 316.553 1535.95 Q313.452 1539.15 307.803 1544.91 Z" fill="#000000" fill-rule="nonzero" fill-opacity="1" /><path clip-path="url(#clip060)" d="M854.984 1532.02 L884.66 1532.02 L884.66 1535.95 L854.984 1535.95 L854.984 1532.02 Z" fill="#000000" fill-rule="nonzero" fill-opacity="1" /><path clip-path="url(#clip060)" d="M895.563 1544.91 L903.202 1544.91 L903.202 1518.55 L894.892 1520.21 L894.892 1515.95 L903.155 1514.29 L907.831 1514.29 L907.831 1544.91 L915.47 1544.91 L915.47 1548.85 L895.563 1548.85 L895.563 1544.91 Z" fill="#000000" fill-rule="nonzero" fill-opacity="1" /><path clip-path="url(#clip060)" d="M1476.39 1517.37 Q1472.78 1517.37 1470.95 1520.93 Q1469.14 1524.47 1469.14 1531.6 Q1469.14 1538.71 1470.95 1542.27 Q1472.78 1545.82 1476.39 1545.82 Q1480.02 1545.82 1481.83 1542.27 Q1483.66 1538.71 1483.66 1531.6 Q1483.66 1524.47 1481.83 1520.93 Q1480.02 1517.37 1476.39 1517.37 M1476.39 1513.66 Q1482.2 1513.66 1485.26 1518.27 Q1488.33 1522.85 1488.33 1531.6 Q1488.33 1540.33 1485.26 1544.94 Q1482.2 1549.52 1476.39 1549.52 Q1470.58 1549.52 1467.5 1544.94 Q1464.45 1540.33 1464.45 1531.6 Q1464.45 1522.85 1467.5 1518.27 Q1470.58 1513.66 1476.39 1513.66 Z" fill="#000000" fill-rule="nonzero" fill-opacity="1" /><path clip-path="url(#clip060)" d="M2057.93 1544.91 L2065.57 1544.91 L2065.57 1518.55 L2057.26 1520.21 L2057.26 1515.95 L2065.53 1514.29 L2070.2 1514.29 L2070.2 1544.91 L2077.84 1544.91 L2077.84 1548.85 L2057.93 1548.85 L2057.93 1544.91 Z" fill="#000000" fill-rule="nonzero" fill-opacity="1" /><polyline clip-path="url(#clip060)" style="stroke:#000000; stroke-linecap:round; stroke-linejoin:round; stroke-width:4; stroke-opacity:1; fill:none" points="147.478,1486.45 147.478,47.2441 "/>
<polyline clip-path="url(#clip060)" style="stroke:#000000; stroke-linecap:round; stroke-linejoin:round; stroke-width:4; stroke-opacity:1; fill:none" points="147.478,1315.62 166.376,1315.62 "/>
<polyline clip-path="url(#clip060)" style="stroke:#000000; stroke-linecap:round; stroke-linejoin:round; stroke-width:4; stroke-opacity:1; fill:none" points="147.478,942.768 166.376,942.768 "/>
<polyline clip-path="url(#clip060)" style="stroke:#000000; stroke-linecap:round; stroke-linejoin:round; stroke-width:4; stroke-opacity:1; fill:none" points="147.478,569.912 166.376,569.912 "/>
<polyline clip-path="url(#clip060)" style="stroke:#000000; stroke-linecap:round; stroke-linejoin:round; stroke-width:4; stroke-opacity:1; fill:none" points="147.478,197.056 166.376,197.056 "/>
<path clip-path="url(#clip060)" d="M50.9921 1316.07 L80.6679 1316.07 L80.6679 1320.01 L50.9921 1320.01 L50.9921 1316.07 Z" fill="#000000" fill-rule="nonzero" fill-opacity="1" /><path clip-path="url(#clip060)" d="M91.5706 1328.97 L99.2095 1328.97 L99.2095 1302.6 L90.8993 1304.27 L90.8993 1300.01 L99.1632 1298.34 L103.839 1298.34 L103.839 1328.97 L111.478 1328.97 L111.478 1332.9 L91.5706 1332.9 L91.5706 1328.97 Z" fill="#000000" fill-rule="nonzero" fill-opacity="1" /><path clip-path="url(#clip060)" d="M99.5335 928.566 Q95.9224 928.566 94.0937 932.131 Q92.2882 935.673 92.2882 942.802 Q92.2882 949.909 94.0937 953.474 Q95.9224 957.015 99.5335 957.015 Q103.168 957.015 104.973 953.474 Q106.802 949.909 106.802 942.802 Q106.802 935.673 104.973 932.131 Q103.168 928.566 99.5335 928.566 M99.5335 924.863 Q105.344 924.863 108.399 929.469 Q111.478 934.052 111.478 942.802 Q111.478 951.529 108.399 956.136 Q105.344 960.719 99.5335 960.719 Q93.7234 960.719 90.6447 956.136 Q87.5892 951.529 87.5892 942.802 Q87.5892 934.052 90.6447 929.469 Q93.7234 924.863 99.5335 924.863 Z" fill="#000000" fill-rule="nonzero" fill-opacity="1" /><path clip-path="url(#clip060)" d="M91.5706 583.256 L99.2095 583.256 L99.2095 556.891 L90.8993 558.557 L90.8993 554.298 L99.1632 552.632 L103.839 552.632 L103.839 583.256 L111.478 583.256 L111.478 587.192 L91.5706 587.192 L91.5706 583.256 Z" fill="#000000" fill-rule="nonzero" fill-opacity="1" /><path clip-path="url(#clip060)" d="M95.1586 210.4 L111.478 210.4 L111.478 214.336 L89.5336 214.336 L89.5336 210.4 Q92.1956 207.646 96.7789 203.016 Q101.385 198.363 102.566 197.021 Q104.811 194.498 105.691 192.762 Q106.594 191.002 106.594 189.313 Q106.594 186.558 104.649 184.822 Q102.728 183.086 99.6261 183.086 Q97.4271 183.086 94.9734 183.85 Q92.5428 184.614 89.7651 186.164 L89.7651 181.442 Q92.5891 180.308 95.0428 179.729 Q97.4965 179.151 99.5335 179.151 Q104.904 179.151 108.098 181.836 Q111.293 184.521 111.293 189.012 Q111.293 191.141 110.483 193.063 Q109.696 194.961 107.589 197.553 Q107.01 198.225 103.909 201.442 Q100.807 204.637 95.1586 210.4 Z" fill="#000000" fill-rule="nonzero" fill-opacity="1" /><circle clip-path="url(#clip062)" cx="1928.35" cy="1105" r="14.4" fill="#009af9" fill-rule="evenodd" fill-opacity="0.5" stroke="#000000" stroke-opacity="0.5" stroke-width="3.2"/>
<circle clip-path="url(#clip062)" cx="2155.42" cy="560.993" r="14.4" fill="#009af9" fill-rule="evenodd" fill-opacity="0.5" stroke="#000000" stroke-opacity="0.5" stroke-width="3.2"/>
<circle clip-path="url(#clip062)" cx="410.187" cy="848.702" r="14.4" fill="#009af9" fill-rule="evenodd" fill-opacity="0.5" stroke="#000000" stroke-opacity="0.5" stroke-width="3.2"/>
<circle clip-path="url(#clip062)" cx="1475.91" cy="923.607" r="14.4" fill="#009af9" fill-rule="evenodd" fill-opacity="0.5" stroke="#000000" stroke-opacity="0.5" stroke-width="3.2"/>
<circle clip-path="url(#clip062)" cx="209.891" cy="962.572" r="14.4" fill="#009af9" fill-rule="evenodd" fill-opacity="0.5" stroke="#000000" stroke-opacity="0.5" stroke-width="3.2"/>
<circle clip-path="url(#clip062)" cx="2028.83" cy="915.299" r="14.4" fill="#009af9" fill-rule="evenodd" fill-opacity="0.5" stroke="#000000" stroke-opacity="0.5" stroke-width="3.2"/>
<circle clip-path="url(#clip062)" cx="1426.93" cy="630.082" r="14.4" fill="#009af9" fill-rule="evenodd" fill-opacity="0.5" stroke="#000000" stroke-opacity="0.5" stroke-width="3.2"/>
<circle clip-path="url(#clip062)" cx="779.898" cy="911.751" r="14.4" fill="#009af9" fill-rule="evenodd" fill-opacity="0.5" stroke="#000000" stroke-opacity="0.5" stroke-width="3.2"/>
<circle clip-path="url(#clip062)" cx="918.285" cy="636.268" r="14.4" fill="#009af9" fill-rule="evenodd" fill-opacity="0.5" stroke="#000000" stroke-opacity="0.5" stroke-width="3.2"/>
<circle clip-path="url(#clip062)" cx="1317.79" cy="972.751" r="14.4" fill="#009af9" fill-rule="evenodd" fill-opacity="0.5" stroke="#000000" stroke-opacity="0.5" stroke-width="3.2"/>
<circle clip-path="url(#clip062)" cx="2290.34" cy="1076.01" r="14.4" fill="#009af9" fill-rule="evenodd" fill-opacity="0.5" stroke="#000000" stroke-opacity="0.5" stroke-width="3.2"/>
<circle clip-path="url(#clip062)" cx="1953.92" cy="1428.7" r="14.4" fill="#009af9" fill-rule="evenodd" fill-opacity="0.5" stroke="#000000" stroke-opacity="0.5" stroke-width="3.2"/>
<circle clip-path="url(#clip062)" cx="1977.03" cy="1005.32" r="14.4" fill="#009af9" fill-rule="evenodd" fill-opacity="0.5" stroke="#000000" stroke-opacity="0.5" stroke-width="3.2"/>
<circle clip-path="url(#clip062)" cx="1704.82" cy="158.683" r="14.4" fill="#009af9" fill-rule="evenodd" fill-opacity="0.5" stroke="#000000" stroke-opacity="0.5" stroke-width="3.2"/>
<circle clip-path="url(#clip062)" cx="924.193" cy="1191.73" r="14.4" fill="#009af9" fill-rule="evenodd" fill-opacity="0.5" stroke="#000000" stroke-opacity="0.5" stroke-width="3.2"/>
<circle clip-path="url(#clip062)" cx="946.76" cy="974.886" r="14.4" fill="#009af9" fill-rule="evenodd" fill-opacity="0.5" stroke="#000000" stroke-opacity="0.5" stroke-width="3.2"/>
<circle clip-path="url(#clip062)" cx="1698.12" cy="877.819" r="14.4" fill="#009af9" fill-rule="evenodd" fill-opacity="0.5" stroke="#000000" stroke-opacity="0.5" stroke-width="3.2"/>
<circle clip-path="url(#clip062)" cx="2244.01" cy="1445.72" r="14.4" fill="#009af9" fill-rule="evenodd" fill-opacity="0.5" stroke="#000000" stroke-opacity="0.5" stroke-width="3.2"/>
<circle clip-path="url(#clip062)" cx="1893.4" cy="978.682" r="14.4" fill="#009af9" fill-rule="evenodd" fill-opacity="0.5" stroke="#000000" stroke-opacity="0.5" stroke-width="3.2"/>
<circle clip-path="url(#clip062)" cx="1368.68" cy="551.638" r="14.4" fill="#009af9" fill-rule="evenodd" fill-opacity="0.5" stroke="#000000" stroke-opacity="0.5" stroke-width="3.2"/>
<circle clip-path="url(#clip062)" cx="1557.43" cy="995.167" r="14.4" fill="#009af9" fill-rule="evenodd" fill-opacity="0.5" stroke="#000000" stroke-opacity="0.5" stroke-width="3.2"/>
<circle clip-path="url(#clip062)" cx="1405.27" cy="807.279" r="14.4" fill="#009af9" fill-rule="evenodd" fill-opacity="0.5" stroke="#000000" stroke-opacity="0.5" stroke-width="3.2"/>
<circle clip-path="url(#clip062)" cx="1191.18" cy="697.718" r="14.4" fill="#009af9" fill-rule="evenodd" fill-opacity="0.5" stroke="#000000" stroke-opacity="0.5" stroke-width="3.2"/>
<circle clip-path="url(#clip062)" cx="1416.48" cy="988.905" r="14.4" fill="#009af9" fill-rule="evenodd" fill-opacity="0.5" stroke="#000000" stroke-opacity="0.5" stroke-width="3.2"/>
<circle clip-path="url(#clip062)" cx="1777.81" cy="590.721" r="14.4" fill="#009af9" fill-rule="evenodd" fill-opacity="0.5" stroke="#000000" stroke-opacity="0.5" stroke-width="3.2"/>
<circle clip-path="url(#clip062)" cx="1967.58" cy="868.691" r="14.4" fill="#009af9" fill-rule="evenodd" fill-opacity="0.5" stroke="#000000" stroke-opacity="0.5" stroke-width="3.2"/>
<circle clip-path="url(#clip062)" cx="1602.51" cy="1220.38" r="14.4" fill="#009af9" fill-rule="evenodd" fill-opacity="0.5" stroke="#000000" stroke-opacity="0.5" stroke-width="3.2"/>
<circle clip-path="url(#clip062)" cx="705.754" cy="87.9763" r="14.4" fill="#009af9" fill-rule="evenodd" fill-opacity="0.5" stroke="#000000" stroke-opacity="0.5" stroke-width="3.2"/>
<circle clip-path="url(#clip062)" cx="1649.14" cy="1223.3" r="14.4" fill="#009af9" fill-rule="evenodd" fill-opacity="0.5" stroke="#000000" stroke-opacity="0.5" stroke-width="3.2"/>
<circle clip-path="url(#clip062)" cx="1574.88" cy="1205.79" r="14.4" fill="#009af9" fill-rule="evenodd" fill-opacity="0.5" stroke="#000000" stroke-opacity="0.5" stroke-width="3.2"/>
<path clip-path="url(#clip062)" d="M209.891 962.572 L924.193 1191.73 L1953.92 1428.7 L2244.01 1445.72 L2290.34 1076.01 L2155.42 560.993 L1704.82 158.683 L705.754 87.9763 L209.891 962.572 L209.891 962.572  Z" fill="#e26f46" fill-rule="evenodd" fill-opacity="0.2"/>
<polyline clip-path="url(#clip062)" style="stroke:#000000; stroke-linecap:round; stroke-linejoin:round; stroke-width:4; stroke-opacity:0.2; fill:none" points="209.891,962.572 924.193,1191.73 1953.92,1428.7 2244.01,1445.72 2290.34,1076.01 2155.42,560.993 1704.82,158.683 705.754,87.9763 209.891,962.572 "/>
</svg>
