<?xml version="1.0" encoding="utf-8"?>
<svg xmlns="http://www.w3.org/2000/svg" xmlns:xlink="http://www.w3.org/1999/xlink" width="600" height="400" viewBox="0 0 2400 1600">
<defs>
  <clipPath id="clip360">
    <rect x="0" y="0" width="2400" height="1600"/>
  </clipPath>
</defs>
<path clip-path="url(#clip360)" d="M0 1600 L2400 1600 L2400 0 L0 0  Z" fill="#ffffff" fill-rule="evenodd" fill-opacity="1"/>
<defs>
  <clipPath id="clip361">
    <rect x="480" y="0" width="1681" height="1600"/>
  </clipPath>
</defs>
<path clip-path="url(#clip360)" d="M147.478 1486.45 L2352.76 1486.45 L2352.76 47.2441 L147.478 47.2441  Z" fill="#ffffff" fill-rule="evenodd" fill-opacity="1"/>
<defs>
  <clipPath id="clip362">
    <rect x="147" y="47" width="2206" height="1440"/>
  </clipPath>
</defs>
<polyline clip-path="url(#clip362)" style="stroke:#000000; stroke-linecap:round; stroke-linejoin:round; stroke-width:2; stroke-opacity:0.1; fill:none" points="354.168,1486.45 354.168,47.2441 "/>
<polyline clip-path="url(#clip362)" style="stroke:#000000; stroke-linecap:round; stroke-linejoin:round; stroke-width:2; stroke-opacity:0.1; fill:none" points="938.118,1486.45 938.118,47.2441 "/>
<polyline clip-path="url(#clip362)" style="stroke:#000000; stroke-linecap:round; stroke-linejoin:round; stroke-width:2; stroke-opacity:0.1; fill:none" points="1522.07,1486.45 1522.07,47.2441 "/>
<polyline clip-path="url(#clip362)" style="stroke:#000000; stroke-linecap:round; stroke-linejoin:round; stroke-width:2; stroke-opacity:0.1; fill:none" points="2106.02,1486.45 2106.02,47.2441 "/>
<polyline clip-path="url(#clip362)" style="stroke:#000000; stroke-linecap:round; stroke-linejoin:round; stroke-width:2; stroke-opacity:0.1; fill:none" points="147.478,1434.07 2352.76,1434.07 "/>
<polyline clip-path="url(#clip362)" style="stroke:#000000; stroke-linecap:round; stroke-linejoin:round; stroke-width:2; stroke-opacity:0.1; fill:none" points="147.478,1106.25 2352.76,1106.25 "/>
<polyline clip-path="url(#clip362)" style="stroke:#000000; stroke-linecap:round; stroke-linejoin:round; stroke-width:2; stroke-opacity:0.1; fill:none" points="147.478,778.427 2352.76,778.427 "/>
<polyline clip-path="url(#clip362)" style="stroke:#000000; stroke-linecap:round; stroke-linejoin:round; stroke-width:2; stroke-opacity:0.1; fill:none" points="147.478,450.604 2352.76,450.604 "/>
<polyline clip-path="url(#clip362)" style="stroke:#000000; stroke-linecap:round; stroke-linejoin:round; stroke-width:2; stroke-opacity:0.1; fill:none" points="147.478,122.78 2352.76,122.78 "/>
<polyline clip-path="url(#clip360)" style="stroke:#000000; stroke-linecap:round; stroke-linejoin:round; stroke-width:4; stroke-opacity:1; fill:none" points="147.478,1486.45 2352.76,1486.45 "/>
<polyline clip-path="url(#clip360)" style="stroke:#000000; stroke-linecap:round; stroke-linejoin:round; stroke-width:4; stroke-opacity:1; fill:none" points="354.168,1486.45 354.168,1467.55 "/>
<polyline clip-path="url(#clip360)" style="stroke:#000000; stroke-linecap:round; stroke-linejoin:round; stroke-width:4; stroke-opacity:1; fill:none" points="938.118,1486.45 938.118,1467.55 "/>
<polyline clip-path="url(#clip360)" style="stroke:#000000; stroke-linecap:round; stroke-linejoin:round; stroke-width:4; stroke-opacity:1; fill:none" points="1522.07,1486.45 1522.07,1467.55 "/>
<polyline clip-path="url(#clip360)" style="stroke:#000000; stroke-linecap:round; stroke-linejoin:round; stroke-width:4; stroke-opacity:1; fill:none" points="2106.02,1486.45 2106.02,1467.55 "/>
<path clip-path="url(#clip360)" d="M323.925 1532.02 L353.6 1532.02 L353.6 1535.95 L323.925 1535.95 L323.925 1532.02 Z" fill="#000000" fill-rule="nonzero" fill-opacity="1" /><path clip-path="url(#clip360)" d="M364.503 1544.91 L372.142 1544.91 L372.142 1518.55 L363.832 1520.21 L363.832 1515.95 L372.096 1514.29 L376.772 1514.29 L376.772 1544.91 L384.41 1544.91 L384.41 1548.85 L364.503 1548.85 L364.503 1544.91 Z" fill="#000000" fill-rule="nonzero" fill-opacity="1" /><path clip-path="url(#clip360)" d="M938.118 1517.37 Q934.506 1517.37 932.678 1520.93 Q930.872 1524.47 930.872 1531.6 Q930.872 1538.71 932.678 1542.27 Q934.506 1545.82 938.118 1545.82 Q941.752 1545.82 943.557 1542.27 Q945.386 1538.71 945.386 1531.6 Q945.386 1524.47 943.557 1520.93 Q941.752 1517.37 938.118 1517.37 M938.118 1513.66 Q943.928 1513.66 946.983 1518.27 Q950.062 1522.85 950.062 1531.6 Q950.062 1540.33 946.983 1544.94 Q943.928 1549.52 938.118 1549.52 Q932.307 1549.52 929.229 1544.94 Q926.173 1540.33 926.173 1531.6 Q926.173 1522.85 929.229 1518.27 Q932.307 1513.66 938.118 1513.66 Z" fill="#000000" fill-rule="nonzero" fill-opacity="1" /><path clip-path="url(#clip360)" d="M1512.45 1544.91 L1520.09 1544.91 L1520.09 1518.55 L1511.78 1520.21 L1511.78 1515.95 L1520.04 1514.29 L1524.72 1514.29 L1524.72 1544.91 L1532.36 1544.91 L1532.36 1548.85 L1512.45 1548.85 L1512.45 1544.91 Z" fill="#000000" fill-rule="nonzero" fill-opacity="1" /><path clip-path="url(#clip360)" d="M2100.67 1544.91 L2116.99 1544.91 L2116.99 1548.85 L2095.05 1548.85 L2095.05 1544.91 Q2097.71 1542.16 2102.29 1537.53 Q2106.9 1532.88 2108.08 1531.53 Q2110.32 1529.01 2111.2 1527.27 Q2112.11 1525.51 2112.11 1523.82 Q2112.11 1521.07 2110.16 1519.33 Q2108.24 1517.6 2105.14 1517.6 Q2102.94 1517.6 2100.49 1518.36 Q2098.05 1519.13 2095.28 1520.68 L2095.28 1515.95 Q2098.1 1514.82 2100.55 1514.24 Q2103.01 1513.66 2105.05 1513.66 Q2110.42 1513.66 2113.61 1516.35 Q2116.8 1519.03 2116.8 1523.52 Q2116.8 1525.65 2115.99 1527.57 Q2115.21 1529.47 2113.1 1532.07 Q2112.52 1532.74 2109.42 1535.95 Q2106.32 1539.15 2100.67 1544.91 Z" fill="#000000" fill-rule="nonzero" fill-opacity="1" /><polyline clip-path="url(#clip360)" style="stroke:#000000; stroke-linecap:round; stroke-linejoin:round; stroke-width:4; stroke-opacity:1; fill:none" points="147.478,1486.45 147.478,47.2441 "/>
<polyline clip-path="url(#clip360)" style="stroke:#000000; stroke-linecap:round; stroke-linejoin:round; stroke-width:4; stroke-opacity:1; fill:none" points="147.478,1434.07 166.376,1434.07 "/>
<polyline clip-path="url(#clip360)" style="stroke:#000000; stroke-linecap:round; stroke-linejoin:round; stroke-width:4; stroke-opacity:1; fill:none" points="147.478,1106.25 166.376,1106.25 "/>
<polyline clip-path="url(#clip360)" style="stroke:#000000; stroke-linecap:round; stroke-linejoin:round; stroke-width:4; stroke-opacity:1; fill:none" points="147.478,778.427 166.376,778.427 "/>
<polyline clip-path="url(#clip360)" style="stroke:#000000; stroke-linecap:round; stroke-linejoin:round; stroke-width:4; stroke-opacity:1; fill:none" points="147.478,450.604 166.376,450.604 "/>
<polyline clip-path="url(#clip360)" style="stroke:#000000; stroke-linecap:round; stroke-linejoin:round; stroke-width:4; stroke-opacity:1; fill:none" points="147.478,122.78 166.376,122.78 "/>
<path clip-path="url(#clip360)" d="M51.3625 1434.53 L81.0383 1434.53 L81.0383 1438.46 L51.3625 1438.46 L51.3625 1434.53 Z" fill="#000000" fill-rule="nonzero" fill-opacity="1" /><path clip-path="url(#clip360)" d="M95.1586 1447.42 L111.478 1447.42 L111.478 1451.35 L89.5336 1451.35 L89.5336 1447.42 Q92.1956 1444.66 96.7789 1440.03 Q101.385 1435.38 102.566 1434.04 Q104.811 1431.52 105.691 1429.78 Q106.594 1428.02 106.594 1426.33 Q106.594 1423.58 104.649 1421.84 Q102.728 1420.1 99.6261 1420.1 Q97.4271 1420.1 94.9734 1420.87 Q92.5428 1421.63 89.7651 1423.18 L89.7651 1418.46 Q92.5891 1417.33 95.0428 1416.75 Q97.4965 1416.17 99.5335 1416.17 Q104.904 1416.17 108.098 1418.85 Q111.293 1421.54 111.293 1426.03 Q111.293 1428.16 110.483 1430.08 Q109.696 1431.98 107.589 1434.57 Q107.01 1435.24 103.909 1438.46 Q100.807 1441.65 95.1586 1447.42 Z" fill="#000000" fill-rule="nonzero" fill-opacity="1" /><path clip-path="url(#clip360)" d="M50.9921 1106.7 L80.6679 1106.7 L80.6679 1110.64 L50.9921 1110.64 L50.9921 1106.7 Z" fill="#000000" fill-rule="nonzero" fill-opacity="1" /><path clip-path="url(#clip360)" d="M91.5706 1119.6 L99.2095 1119.6 L99.2095 1093.23 L90.8993 1094.9 L90.8993 1090.64 L99.1632 1088.97 L103.839 1088.97 L103.839 1119.6 L111.478 1119.6 L111.478 1123.53 L91.5706 1123.53 L91.5706 1119.6 Z" fill="#000000" fill-rule="nonzero" fill-opacity="1" /><path clip-path="url(#clip360)" d="M99.5335 764.226 Q95.9224 764.226 94.0937 767.791 Q92.2882 771.332 92.2882 778.462 Q92.2882 785.568 94.0937 789.133 Q95.9224 792.675 99.5335 792.675 Q103.168 792.675 104.973 789.133 Q106.802 785.568 106.802 778.462 Q106.802 771.332 104.973 767.791 Q103.168 764.226 99.5335 764.226 M99.5335 760.522 Q105.344 760.522 108.399 765.128 Q111.478 769.712 111.478 778.462 Q111.478 787.189 108.399 791.795 Q105.344 796.378 99.5335 796.378 Q93.7234 796.378 90.6447 791.795 Q87.5892 787.189 87.5892 778.462 Q87.5892 769.712 90.6447 765.128 Q93.7234 760.522 99.5335 760.522 Z" fill="#000000" fill-rule="nonzero" fill-opacity="1" /><path clip-path="url(#clip360)" d="M91.5706 463.949 L99.2095 463.949 L99.2095 437.583 L90.8993 439.25 L90.8993 434.99 L99.1632 433.324 L103.839 433.324 L103.839 463.949 L111.478 463.949 L111.478 467.884 L91.5706 467.884 L91.5706 463.949 Z" fill="#000000" fill-rule="nonzero" fill-opacity="1" /><path clip-path="url(#clip360)" d="M95.1586 136.125 L111.478 136.125 L111.478 140.06 L89.5336 140.06 L89.5336 136.125 Q92.1956 133.371 96.7789 128.741 Q101.385 124.088 102.566 122.746 Q104.811 120.222 105.691 118.486 Q106.594 116.727 106.594 115.037 Q106.594 112.283 104.649 110.547 Q102.728 108.81 99.6261 108.81 Q97.4271 108.81 94.9734 109.574 Q92.5428 110.338 89.7651 111.889 L89.7651 107.167 Q92.5891 106.033 95.0428 105.454 Q97.4965 104.875 99.5335 104.875 Q104.904 104.875 108.098 107.561 Q111.293 110.246 111.293 114.736 Q111.293 116.866 110.483 118.787 Q109.696 120.685 107.589 123.278 Q107.01 123.949 103.909 127.167 Q100.807 130.361 95.1586 136.125 Z" fill="#000000" fill-rule="nonzero" fill-opacity="1" /><circle clip-path="url(#clip362)" cx="331.935" cy="1053.75" r="14.4" fill="#009af9" fill-rule="evenodd" fill-opacity="0.5" stroke="#000000" stroke-opacity="0.5" stroke-width="3.2"/>
<circle clip-path="url(#clip362)" cx="933.061" cy="686.885" r="14.4" fill="#009af9" fill-rule="evenodd" fill-opacity="0.5" stroke="#000000" stroke-opacity="0.5" stroke-width="3.2"/>
<circle clip-path="url(#clip362)" cx="1128" cy="815.852" r="14.4" fill="#009af9" fill-rule="evenodd" fill-opacity="0.5" stroke="#000000" stroke-opacity="0.5" stroke-width="3.2"/>
<circle clip-path="url(#clip362)" cx="406.316" cy="1312.09" r="14.4" fill="#009af9" fill-rule="evenodd" fill-opacity="0.5" stroke="#000000" stroke-opacity="0.5" stroke-width="3.2"/>
<circle clip-path="url(#clip362)" cx="760.219" cy="98.5439" r="14.4" fill="#009af9" fill-rule="evenodd" fill-opacity="0.5" stroke="#000000" stroke-opacity="0.5" stroke-width="3.2"/>
<circle clip-path="url(#clip362)" cx="741.434" cy="449.807" r="14.4" fill="#009af9" fill-rule="evenodd" fill-opacity="0.5" stroke="#000000" stroke-opacity="0.5" stroke-width="3.2"/>
<circle clip-path="url(#clip362)" cx="1697.67" cy="576.559" r="14.4" fill="#009af9" fill-rule="evenodd" fill-opacity="0.5" stroke="#000000" stroke-opacity="0.5" stroke-width="3.2"/>
<circle clip-path="url(#clip362)" cx="1179.81" cy="863.056" r="14.4" fill="#009af9" fill-rule="evenodd" fill-opacity="0.5" stroke="#000000" stroke-opacity="0.5" stroke-width="3.2"/>
<circle clip-path="url(#clip362)" cx="2290.34" cy="843.523" r="14.4" fill="#009af9" fill-rule="evenodd" fill-opacity="0.5" stroke="#000000" stroke-opacity="0.5" stroke-width="3.2"/>
<circle clip-path="url(#clip362)" cx="746.029" cy="800.148" r="14.4" fill="#009af9" fill-rule="evenodd" fill-opacity="0.5" stroke="#000000" stroke-opacity="0.5" stroke-width="3.2"/>
<circle clip-path="url(#clip362)" cx="829.935" cy="87.9763" r="14.4" fill="#009af9" fill-rule="evenodd" fill-opacity="0.5" stroke="#000000" stroke-opacity="0.5" stroke-width="3.2"/>
<circle clip-path="url(#clip362)" cx="531.173" cy="630.085" r="14.4" fill="#009af9" fill-rule="evenodd" fill-opacity="0.5" stroke="#000000" stroke-opacity="0.5" stroke-width="3.2"/>
<circle clip-path="url(#clip362)" cx="635.785" cy="886.364" r="14.4" fill="#009af9" fill-rule="evenodd" fill-opacity="0.5" stroke="#000000" stroke-opacity="0.5" stroke-width="3.2"/>
<circle clip-path="url(#clip362)" cx="1571.15" cy="640.597" r="14.4" fill="#009af9" fill-rule="evenodd" fill-opacity="0.5" stroke="#000000" stroke-opacity="0.5" stroke-width="3.2"/>
<circle clip-path="url(#clip362)" cx="540.472" cy="1375.3" r="14.4" fill="#009af9" fill-rule="evenodd" fill-opacity="0.5" stroke="#000000" stroke-opacity="0.5" stroke-width="3.2"/>
<circle clip-path="url(#clip362)" cx="1577.09" cy="657.972" r="14.4" fill="#009af9" fill-rule="evenodd" fill-opacity="0.5" stroke="#000000" stroke-opacity="0.5" stroke-width="3.2"/>
<circle clip-path="url(#clip362)" cx="1115.9" cy="990.826" r="14.4" fill="#009af9" fill-rule="evenodd" fill-opacity="0.5" stroke="#000000" stroke-opacity="0.5" stroke-width="3.2"/>
<circle clip-path="url(#clip362)" cx="1247.78" cy="523.143" r="14.4" fill="#009af9" fill-rule="evenodd" fill-opacity="0.5" stroke="#000000" stroke-opacity="0.5" stroke-width="3.2"/>
<circle clip-path="url(#clip362)" cx="557.893" cy="652.158" r="14.4" fill="#009af9" fill-rule="evenodd" fill-opacity="0.5" stroke="#000000" stroke-opacity="0.5" stroke-width="3.2"/>
<circle clip-path="url(#clip362)" cx="472.859" cy="1356.85" r="14.4" fill="#009af9" fill-rule="evenodd" fill-opacity="0.5" stroke="#000000" stroke-opacity="0.5" stroke-width="3.2"/>
<circle clip-path="url(#clip362)" cx="1300.67" cy="731.231" r="14.4" fill="#009af9" fill-rule="evenodd" fill-opacity="0.5" stroke="#000000" stroke-opacity="0.5" stroke-width="3.2"/>
<circle clip-path="url(#clip362)" cx="1312.57" cy="448.127" r="14.4" fill="#009af9" fill-rule="evenodd" fill-opacity="0.5" stroke="#000000" stroke-opacity="0.5" stroke-width="3.2"/>
<circle clip-path="url(#clip362)" cx="209.891" cy="1445.72" r="14.4" fill="#009af9" fill-rule="evenodd" fill-opacity="0.5" stroke="#000000" stroke-opacity="0.5" stroke-width="3.2"/>
<circle clip-path="url(#clip362)" cx="950.634" cy="595.885" r="14.4" fill="#009af9" fill-rule="evenodd" fill-opacity="0.5" stroke="#000000" stroke-opacity="0.5" stroke-width="3.2"/>
<circle clip-path="url(#clip362)" cx="1712.63" cy="1222.83" r="14.4" fill="#009af9" fill-rule="evenodd" fill-opacity="0.5" stroke="#000000" stroke-opacity="0.5" stroke-width="3.2"/>
<circle clip-path="url(#clip362)" cx="322.168" cy="277.258" r="14.4" fill="#009af9" fill-rule="evenodd" fill-opacity="0.5" stroke="#000000" stroke-opacity="0.5" stroke-width="3.2"/>
<circle clip-path="url(#clip362)" cx="1314.96" cy="817.548" r="14.4" fill="#009af9" fill-rule="evenodd" fill-opacity="0.5" stroke="#000000" stroke-opacity="0.5" stroke-width="3.2"/>
<circle clip-path="url(#clip362)" cx="519.174" cy="871.142" r="14.4" fill="#009af9" fill-rule="evenodd" fill-opacity="0.5" stroke="#000000" stroke-opacity="0.5" stroke-width="3.2"/>
<circle clip-path="url(#clip362)" cx="1458.03" cy="1069.43" r="14.4" fill="#009af9" fill-rule="evenodd" fill-opacity="0.5" stroke="#000000" stroke-opacity="0.5" stroke-width="3.2"/>
<circle clip-path="url(#clip362)" cx="886.361" cy="1138.85" r="14.4" fill="#009af9" fill-rule="evenodd" fill-opacity="0.5" stroke="#000000" stroke-opacity="0.5" stroke-width="3.2"/>
<path clip-path="url(#clip362)" d="M209.891 1445.72 L1712.63 1222.83 L2290.34 843.523 L829.935 87.9763 L760.219 98.5439 L322.168 277.258 L209.891 1445.72 L209.891 1445.72  Z" fill="#e26f46" fill-rule="evenodd" fill-opacity="0.2"/>
<polyline clip-path="url(#clip362)" style="stroke:#000000; stroke-linecap:round; stroke-linejoin:round; stroke-width:4; stroke-opacity:0.2; fill:none" points="209.891,1445.72 1712.63,1222.83 2290.34,843.523 829.935,87.9763 760.219,98.5439 322.168,277.258 209.891,1445.72 "/>
</svg>
