<?xml version="1.0" encoding="utf-8"?>
<svg xmlns="http://www.w3.org/2000/svg" xmlns:xlink="http://www.w3.org/1999/xlink" width="600" height="400" viewBox="0 0 2400 1600">
<defs>
  <clipPath id="clip570">
    <rect x="0" y="0" width="2400" height="1600"/>
  </clipPath>
</defs>
<path clip-path="url(#clip570)" d="M0 1600 L2400 1600 L2400 0 L0 0  Z" fill="#ffffff" fill-rule="evenodd" fill-opacity="1"/>
<defs>
  <clipPath id="clip571">
    <rect x="480" y="0" width="1681" height="1600"/>
  </clipPath>
</defs>
<path clip-path="url(#clip570)" d="M155.765 1486.45 L2352.76 1486.45 L2352.76 47.2441 L155.765 47.2441  Z" fill="#ffffff" fill-rule="evenodd" fill-opacity="1"/>
<defs>
  <clipPath id="clip572">
    <rect x="155" y="47" width="2198" height="1440"/>
  </clipPath>
</defs>
<polyline clip-path="url(#clip572)" style="stroke:#000000; stroke-linecap:round; stroke-linejoin:round; stroke-width:2; stroke-opacity:0.1; fill:none" points="449.086,1486.45 449.086,47.2441 "/>
<polyline clip-path="url(#clip572)" style="stroke:#000000; stroke-linecap:round; stroke-linejoin:round; stroke-width:2; stroke-opacity:0.1; fill:none" points="1007.11,1486.45 1007.11,47.2441 "/>
<polyline clip-path="url(#clip572)" style="stroke:#000000; stroke-linecap:round; stroke-linejoin:round; stroke-width:2; stroke-opacity:0.1; fill:none" points="1565.14,1486.45 1565.14,47.2441 "/>
<polyline clip-path="url(#clip572)" style="stroke:#000000; stroke-linecap:round; stroke-linejoin:round; stroke-width:2; stroke-opacity:0.1; fill:none" points="2123.17,1486.45 2123.17,47.2441 "/>
<polyline clip-path="url(#clip572)" style="stroke:#000000; stroke-linecap:round; stroke-linejoin:round; stroke-width:2; stroke-opacity:0.1; fill:none" points="155.765,1211.29 2352.76,1211.29 "/>
<polyline clip-path="url(#clip572)" style="stroke:#000000; stroke-linecap:round; stroke-linejoin:round; stroke-width:2; stroke-opacity:0.1; fill:none" points="155.765,932.271 2352.76,932.271 "/>
<polyline clip-path="url(#clip572)" style="stroke:#000000; stroke-linecap:round; stroke-linejoin:round; stroke-width:2; stroke-opacity:0.1; fill:none" points="155.765,653.258 2352.76,653.258 "/>
<polyline clip-path="url(#clip572)" style="stroke:#000000; stroke-linecap:round; stroke-linejoin:round; stroke-width:2; stroke-opacity:0.1; fill:none" points="155.765,374.244 2352.76,374.244 "/>
<polyline clip-path="url(#clip572)" style="stroke:#000000; stroke-linecap:round; stroke-linejoin:round; stroke-width:2; stroke-opacity:0.1; fill:none" points="155.765,95.2302 2352.76,95.2302 "/>
<polyline clip-path="url(#clip570)" style="stroke:#000000; stroke-linecap:round; stroke-linejoin:round; stroke-width:4; stroke-opacity:1; fill:none" points="155.765,1486.45 2352.76,1486.45 "/>
<polyline clip-path="url(#clip570)" style="stroke:#000000; stroke-linecap:round; stroke-linejoin:round; stroke-width:4; stroke-opacity:1; fill:none" points="449.086,1486.45 449.086,1467.55 "/>
<polyline clip-path="url(#clip570)" style="stroke:#000000; stroke-linecap:round; stroke-linejoin:round; stroke-width:4; stroke-opacity:1; fill:none" points="1007.11,1486.45 1007.11,1467.55 "/>
<polyline clip-path="url(#clip570)" style="stroke:#000000; stroke-linecap:round; stroke-linejoin:round; stroke-width:4; stroke-opacity:1; fill:none" points="1565.14,1486.45 1565.14,1467.55 "/>
<polyline clip-path="url(#clip570)" style="stroke:#000000; stroke-linecap:round; stroke-linejoin:round; stroke-width:4; stroke-opacity:1; fill:none" points="2123.17,1486.45 2123.17,1467.55 "/>
<path clip-path="url(#clip570)" d="M449.086 1517.37 Q445.475 1517.37 443.647 1520.93 Q441.841 1524.47 441.841 1531.6 Q441.841 1538.71 443.647 1542.27 Q445.475 1545.82 449.086 1545.82 Q452.721 1545.82 454.526 1542.27 Q456.355 1538.71 456.355 1531.6 Q456.355 1524.47 454.526 1520.93 Q452.721 1517.37 449.086 1517.37 M449.086 1513.66 Q454.897 1513.66 457.952 1518.27 Q461.031 1522.85 461.031 1531.6 Q461.031 1540.33 457.952 1544.94 Q454.897 1549.52 449.086 1549.52 Q443.276 1549.52 440.198 1544.94 Q437.142 1540.33 437.142 1531.6 Q437.142 1522.85 440.198 1518.27 Q443.276 1513.66 449.086 1513.66 Z" fill="#000000" fill-rule="nonzero" fill-opacity="1" /><path clip-path="url(#clip570)" d="M997.496 1544.91 L1005.13 1544.91 L1005.13 1518.55 L996.825 1520.21 L996.825 1515.95 L1005.09 1514.29 L1009.76 1514.29 L1009.76 1544.91 L1017.4 1544.91 L1017.4 1548.85 L997.496 1548.85 L997.496 1544.91 Z" fill="#000000" fill-rule="nonzero" fill-opacity="1" /><path clip-path="url(#clip570)" d="M1559.79 1544.91 L1576.11 1544.91 L1576.11 1548.85 L1554.17 1548.85 L1554.17 1544.91 Q1556.83 1542.16 1561.41 1537.53 Q1566.02 1532.88 1567.2 1531.53 Q1569.45 1529.01 1570.33 1527.27 Q1571.23 1525.51 1571.23 1523.82 Q1571.23 1521.07 1569.28 1519.33 Q1567.36 1517.6 1564.26 1517.6 Q1562.06 1517.6 1559.61 1518.36 Q1557.18 1519.13 1554.4 1520.68 L1554.4 1515.95 Q1557.22 1514.82 1559.68 1514.24 Q1562.13 1513.66 1564.17 1513.66 Q1569.54 1513.66 1572.73 1516.35 Q1575.93 1519.03 1575.93 1523.52 Q1575.93 1525.65 1575.12 1527.57 Q1574.33 1529.47 1572.22 1532.07 Q1571.65 1532.74 1568.54 1535.95 Q1565.44 1539.15 1559.79 1544.91 Z" fill="#000000" fill-rule="nonzero" fill-opacity="1" /><path clip-path="url(#clip570)" d="M2127.42 1530.21 Q2130.77 1530.93 2132.65 1533.2 Q2134.55 1535.47 2134.55 1538.8 Q2134.55 1543.92 2131.03 1546.72 Q2127.51 1549.52 2121.03 1549.52 Q2118.85 1549.52 2116.54 1549.08 Q2114.25 1548.66 2111.79 1547.81 L2111.79 1543.29 Q2113.74 1544.43 2116.05 1545.01 Q2118.37 1545.58 2120.89 1545.58 Q2125.29 1545.58 2127.58 1543.85 Q2129.89 1542.11 2129.89 1538.8 Q2129.89 1535.75 2127.74 1534.03 Q2125.61 1532.3 2121.79 1532.3 L2117.76 1532.3 L2117.76 1528.45 L2121.98 1528.45 Q2125.43 1528.45 2127.25 1527.09 Q2129.08 1525.7 2129.08 1523.11 Q2129.08 1520.45 2127.18 1519.03 Q2125.31 1517.6 2121.79 1517.6 Q2119.87 1517.6 2117.67 1518.01 Q2115.47 1518.43 2112.83 1519.31 L2112.83 1515.14 Q2115.5 1514.4 2117.81 1514.03 Q2120.15 1513.66 2122.21 1513.66 Q2127.53 1513.66 2130.63 1516.09 Q2133.74 1518.5 2133.74 1522.62 Q2133.74 1525.49 2132.09 1527.48 Q2130.45 1529.45 2127.42 1530.21 Z" fill="#000000" fill-rule="nonzero" fill-opacity="1" /><polyline clip-path="url(#clip570)" style="stroke:#000000; stroke-linecap:round; stroke-linejoin:round; stroke-width:4; stroke-opacity:1; fill:none" points="155.765,1486.45 155.765,47.2441 "/>
<polyline clip-path="url(#clip570)" style="stroke:#000000; stroke-linecap:round; stroke-linejoin:round; stroke-width:4; stroke-opacity:1; fill:none" points="155.765,1211.29 174.663,1211.29 "/>
<polyline clip-path="url(#clip570)" style="stroke:#000000; stroke-linecap:round; stroke-linejoin:round; stroke-width:4; stroke-opacity:1; fill:none" points="155.765,932.271 174.663,932.271 "/>
<polyline clip-path="url(#clip570)" style="stroke:#000000; stroke-linecap:round; stroke-linejoin:round; stroke-width:4; stroke-opacity:1; fill:none" points="155.765,653.258 174.663,653.258 "/>
<polyline clip-path="url(#clip570)" style="stroke:#000000; stroke-linecap:round; stroke-linejoin:round; stroke-width:4; stroke-opacity:1; fill:none" points="155.765,374.244 174.663,374.244 "/>
<polyline clip-path="url(#clip570)" style="stroke:#000000; stroke-linecap:round; stroke-linejoin:round; stroke-width:4; stroke-opacity:1; fill:none" points="155.765,95.2302 174.663,95.2302 "/>
<path clip-path="url(#clip570)" d="M63.5847 1197.08 Q59.9736 1197.08 58.1449 1200.65 Q56.3393 1204.19 56.3393 1211.32 Q56.3393 1218.43 58.1449 1221.99 Q59.9736 1225.53 63.5847 1225.53 Q67.2189 1225.53 69.0244 1221.99 Q70.8531 1218.43 70.8531 1211.32 Q70.8531 1204.19 69.0244 1200.65 Q67.2189 1197.08 63.5847 1197.08 M63.5847 1193.38 Q69.3948 1193.38 72.4503 1197.99 Q75.529 1202.57 75.529 1211.32 Q75.529 1220.05 72.4503 1224.65 Q69.3948 1229.24 63.5847 1229.24 Q57.7745 1229.24 54.6958 1224.65 Q51.6403 1220.05 51.6403 1211.32 Q51.6403 1202.57 54.6958 1197.99 Q57.7745 1193.38 63.5847 1193.38 Z" fill="#000000" fill-rule="nonzero" fill-opacity="1" /><path clip-path="url(#clip570)" d="M83.7466 1222.69 L88.6308 1222.69 L88.6308 1228.57 L83.7466 1228.57 L83.7466 1222.69 Z" fill="#000000" fill-rule="nonzero" fill-opacity="1" /><path clip-path="url(#clip570)" d="M98.8622 1194.01 L117.219 1194.01 L117.219 1197.94 L103.145 1197.94 L103.145 1206.41 Q104.163 1206.07 105.182 1205.9 Q106.2 1205.72 107.219 1205.72 Q113.006 1205.72 116.385 1208.89 Q119.765 1212.06 119.765 1217.48 Q119.765 1223.06 116.293 1226.16 Q112.82 1229.24 106.501 1229.24 Q104.325 1229.24 102.057 1228.87 Q99.8113 1228.5 97.4039 1227.75 L97.4039 1223.06 Q99.4872 1224.19 101.709 1224.75 Q103.932 1225.3 106.408 1225.3 Q110.413 1225.3 112.751 1223.19 Q115.089 1221.09 115.089 1217.48 Q115.089 1213.87 112.751 1211.76 Q110.413 1209.65 106.408 1209.65 Q104.534 1209.65 102.659 1210.07 Q100.807 1210.49 98.8622 1211.37 L98.8622 1194.01 Z" fill="#000000" fill-rule="nonzero" fill-opacity="1" /><path clip-path="url(#clip570)" d="M53.3995 945.616 L61.0384 945.616 L61.0384 919.251 L52.7282 920.917 L52.7282 916.658 L60.9921 914.991 L65.668 914.991 L65.668 945.616 L73.3068 945.616 L73.3068 949.551 L53.3995 949.551 L53.3995 945.616 Z" fill="#000000" fill-rule="nonzero" fill-opacity="1" /><path clip-path="url(#clip570)" d="M82.7512 943.672 L87.6354 943.672 L87.6354 949.551 L82.7512 949.551 L82.7512 943.672 Z" fill="#000000" fill-rule="nonzero" fill-opacity="1" /><path clip-path="url(#clip570)" d="M107.821 918.07 Q104.209 918.07 102.381 921.635 Q100.575 925.176 100.575 932.306 Q100.575 939.412 102.381 942.977 Q104.209 946.519 107.821 946.519 Q111.455 946.519 113.26 942.977 Q115.089 939.412 115.089 932.306 Q115.089 925.176 113.26 921.635 Q111.455 918.07 107.821 918.07 M107.821 914.366 Q113.631 914.366 116.686 918.973 Q119.765 923.556 119.765 932.306 Q119.765 941.033 116.686 945.639 Q113.631 950.223 107.821 950.223 Q102.01 950.223 98.9317 945.639 Q95.8761 941.033 95.8761 932.306 Q95.8761 923.556 98.9317 918.973 Q102.01 914.366 107.821 914.366 Z" fill="#000000" fill-rule="nonzero" fill-opacity="1" /><path clip-path="url(#clip570)" d="M54.3949 666.602 L62.0337 666.602 L62.0337 640.237 L53.7236 641.904 L53.7236 637.644 L61.9874 635.978 L66.6633 635.978 L66.6633 666.602 L74.3022 666.602 L74.3022 670.538 L54.3949 670.538 L54.3949 666.602 Z" fill="#000000" fill-rule="nonzero" fill-opacity="1" /><path clip-path="url(#clip570)" d="M83.7466 664.658 L88.6308 664.658 L88.6308 670.538 L83.7466 670.538 L83.7466 664.658 Z" fill="#000000" fill-rule="nonzero" fill-opacity="1" /><path clip-path="url(#clip570)" d="M98.8622 635.978 L117.219 635.978 L117.219 639.913 L103.145 639.913 L103.145 648.385 Q104.163 648.038 105.182 647.876 Q106.2 647.691 107.219 647.691 Q113.006 647.691 116.385 650.862 Q119.765 654.033 119.765 659.45 Q119.765 665.028 116.293 668.13 Q112.82 671.209 106.501 671.209 Q104.325 671.209 102.057 670.839 Q99.8113 670.468 97.4039 669.727 L97.4039 665.028 Q99.4872 666.163 101.709 666.718 Q103.932 667.274 106.408 667.274 Q110.413 667.274 112.751 665.167 Q115.089 663.061 115.089 659.45 Q115.089 655.839 112.751 653.732 Q110.413 651.626 106.408 651.626 Q104.534 651.626 102.659 652.042 Q100.807 652.459 98.8622 653.339 L98.8622 635.978 Z" fill="#000000" fill-rule="nonzero" fill-opacity="1" /><path clip-path="url(#clip570)" d="M56.6171 387.589 L72.9365 387.589 L72.9365 391.524 L50.9921 391.524 L50.9921 387.589 Q53.6541 384.834 58.2375 380.205 Q62.8439 375.552 64.0245 374.209 Q66.2698 371.686 67.1494 369.95 Q68.0522 368.191 68.0522 366.501 Q68.0522 363.746 66.1078 362.01 Q64.1865 360.274 61.0847 360.274 Q58.8856 360.274 56.4319 361.038 Q54.0014 361.802 51.2236 363.353 L51.2236 358.631 Q54.0477 357.496 56.5014 356.918 Q58.955 356.339 60.9921 356.339 Q66.3624 356.339 69.5568 359.024 Q72.7513 361.709 72.7513 366.2 Q72.7513 368.33 71.9411 370.251 Q71.1541 372.149 69.0476 374.742 Q68.4689 375.413 65.367 378.63 Q62.2652 381.825 56.6171 387.589 Z" fill="#000000" fill-rule="nonzero" fill-opacity="1" /><path clip-path="url(#clip570)" d="M82.7512 385.644 L87.6354 385.644 L87.6354 391.524 L82.7512 391.524 L82.7512 385.644 Z" fill="#000000" fill-rule="nonzero" fill-opacity="1" /><path clip-path="url(#clip570)" d="M107.821 360.043 Q104.209 360.043 102.381 363.607 Q100.575 367.149 100.575 374.279 Q100.575 381.385 102.381 384.95 Q104.209 388.492 107.821 388.492 Q111.455 388.492 113.26 384.95 Q115.089 381.385 115.089 374.279 Q115.089 367.149 113.26 363.607 Q111.455 360.043 107.821 360.043 M107.821 356.339 Q113.631 356.339 116.686 360.945 Q119.765 365.529 119.765 374.279 Q119.765 383.005 116.686 387.612 Q113.631 392.195 107.821 392.195 Q102.01 392.195 98.9317 387.612 Q95.8761 383.005 95.8761 374.279 Q95.8761 365.529 98.9317 360.945 Q102.01 356.339 107.821 356.339 Z" fill="#000000" fill-rule="nonzero" fill-opacity="1" /><path clip-path="url(#clip570)" d="M57.6125 108.575 L73.9318 108.575 L73.9318 112.51 L51.9875 112.51 L51.9875 108.575 Q54.6495 105.82 59.2328 101.191 Q63.8393 96.5381 65.0198 95.1955 Q67.2652 92.6723 68.1448 90.9362 Q69.0476 89.177 69.0476 87.4872 Q69.0476 84.7326 67.1032 82.9965 Q65.1819 81.2604 62.08 81.2604 Q59.881 81.2604 57.4273 82.0242 Q54.9967 82.7881 52.219 84.339 L52.219 79.6168 Q55.043 78.4826 57.4967 77.9039 Q59.9504 77.3252 61.9874 77.3252 Q67.3578 77.3252 70.5522 80.0104 Q73.7466 82.6955 73.7466 87.1863 Q73.7466 89.3159 72.9365 91.2372 Q72.1494 93.1353 70.0429 95.7279 Q69.4642 96.3992 66.3624 99.6167 Q63.2606 102.811 57.6125 108.575 Z" fill="#000000" fill-rule="nonzero" fill-opacity="1" /><path clip-path="url(#clip570)" d="M83.7466 106.631 L88.6308 106.631 L88.6308 112.51 L83.7466 112.51 L83.7466 106.631 Z" fill="#000000" fill-rule="nonzero" fill-opacity="1" /><path clip-path="url(#clip570)" d="M98.8622 77.9502 L117.219 77.9502 L117.219 81.8854 L103.145 81.8854 L103.145 90.3575 Q104.163 90.0103 105.182 89.8483 Q106.2 89.6631 107.219 89.6631 Q113.006 89.6631 116.385 92.8344 Q119.765 96.0056 119.765 101.422 Q119.765 107.001 116.293 110.103 Q112.82 113.181 106.501 113.181 Q104.325 113.181 102.057 112.811 Q99.8113 112.441 97.4039 111.7 L97.4039 107.001 Q99.4872 108.135 101.709 108.691 Q103.932 109.246 106.408 109.246 Q110.413 109.246 112.751 107.14 Q115.089 105.033 115.089 101.422 Q115.089 97.8112 112.751 95.7047 Q110.413 93.5983 106.408 93.5983 Q104.534 93.5983 102.659 94.0149 Q100.807 94.4316 98.8622 95.3112 L98.8622 77.9502 Z" fill="#000000" fill-rule="nonzero" fill-opacity="1" /><path clip-path="url(#clip572)" d="M217.944 941.958 L219.845 961.308 L223.643 980.587 L229.328 999.751 L236.887 1018.75 L246.302 1037.54 L257.549 1056.08 L270.602 1074.32 L285.43 1092.22 L301.996 1109.73 L320.26 1126.82 L340.18 1143.44 L361.706 1159.55 L384.787 1175.11 L409.367 1190.08 L435.388 1204.44 L462.785 1218.13 L491.494 1231.14 L521.445 1243.43 L552.566 1254.98 L584.783 1265.74 L618.016 1275.7 L652.187 1284.83 L687.213 1293.11 L740.93 1304.24 L815.13 1315.49 L891.179 1323.06 L968.344 1326.86 L1045.88 1326.86 L1123.05 1323.06 L1199.1 1315.49 L1273.3 1304.24 L1327.01 1293.11 L1362.04 1284.83 L1396.21 1275.7 L1429.45 1265.74 L1461.66 1254.98 L1492.78 1243.43 L1522.73 1231.14 L1551.44 1218.13 L1578.84 1204.44 L1604.86 1190.08 L1629.44 1175.11 L1652.52 1159.55 L1674.05 1143.44 L1693.97 1126.82 L1712.23 1109.73 L1728.8 1092.22 L1743.63 1074.32 L1756.68 1056.08 L1767.93 1037.54 L1777.34 1018.75 L1784.9 999.751 L1790.58 980.587 L1794.38 961.308 L1796.28 941.958 L1796.28 922.585 L1794.38 903.235 L1790.58 883.955 L1784.9 864.792 L1777.34 845.791 L1767.93 826.999 L1756.68 808.46 L1743.63 790.219 L1728.8 772.321 L1712.23 754.808 L1693.97 737.723 L1674.05 721.106 L1652.52 704.998 L1629.44 689.437 L1604.86 674.461 L1578.84 660.107 L1551.44 646.408 L1522.73 633.398 L1492.78 621.108 L1461.66 609.567 L1429.45 598.804 L1396.21 588.845 L1362.04 579.712 L1327.01 571.429 L1273.3 560.304 L1199.1 549.05 L1123.05 541.486 L1045.88 537.686 L968.344 537.686 L891.179 541.486 L815.13 549.05 L740.93 560.304 L687.213 571.429 L652.187 579.712 L618.016 588.845 L584.783 598.804 L552.566 609.567 L521.445 621.108 L491.494 633.398 L462.785 646.408 L435.388 660.107 L409.367 674.461 L384.787 689.437 L361.706 704.998 L340.18 721.106 L320.26 737.723 L301.996 754.808 L285.43 772.321 L270.602 790.219 L257.549 808.46 L246.302 826.999 L236.887 845.791 L229.328 864.792 L223.643 883.955 L219.845 903.235 L217.944 922.585 L217.944 941.958 L217.944 941.958  Z" fill="#009af9" fill-rule="evenodd" fill-opacity="0.4"/>
<polyline clip-path="url(#clip572)" style="stroke:#000000; stroke-linecap:round; stroke-linejoin:round; stroke-width:4; stroke-opacity:0.4; fill:none" points="217.944,941.958 219.845,961.308 223.643,980.587 229.328,999.751 236.887,1018.75 246.302,1037.54 257.549,1056.08 270.602,1074.32 285.43,1092.22 301.996,1109.73 320.26,1126.82 340.18,1143.44 361.706,1159.55 384.787,1175.11 409.367,1190.08 435.388,1204.44 462.785,1218.13 491.494,1231.14 521.445,1243.43 552.566,1254.98 584.783,1265.74 618.016,1275.7 652.187,1284.83 687.213,1293.11 740.93,1304.24 815.13,1315.49 891.179,1323.06 968.344,1326.86 1045.88,1326.86 1123.05,1323.06 1199.1,1315.49 1273.3,1304.24 1327.01,1293.11 1362.04,1284.83 1396.21,1275.7 1429.45,1265.74 1461.66,1254.98 1492.78,1243.43 1522.73,1231.14 1551.44,1218.13 1578.84,1204.44 1604.86,1190.08 1629.44,1175.11 1652.52,1159.55 1674.05,1143.44 1693.97,1126.82 1712.23,1109.73 1728.8,1092.22 1743.63,1074.32 1756.68,1056.08 1767.93,1037.54 1777.34,1018.75 1784.9,999.751 1790.58,980.587 1794.38,961.308 1796.28,941.958 1796.28,922.585 1794.38,903.235 1790.58,883.955 1784.9,864.792 1777.34,845.791 1767.93,826.999 1756.68,808.46 1743.63,790.219 1728.8,772.321 1712.23,754.808 1693.97,737.723 1674.05,721.106 1652.52,704.998 1629.44,689.437 1604.86,674.461 1578.84,660.107 1551.44,646.408 1522.73,633.398 1492.78,621.108 1461.66,609.567 1429.45,598.804 1396.21,588.845 1362.04,579.712 1327.01,571.429 1273.3,560.304 1199.1,549.05 1123.05,541.486 1045.88,537.686 968.344,537.686 891.179,541.486 815.13,549.05 740.93,560.304 687.213,571.429 652.187,579.712 618.016,588.845 584.783,598.804 552.566,609.567 521.445,621.108 491.494,633.398 462.785,646.408 435.388,660.107 409.367,674.461 384.787,689.437 361.706,704.998 340.18,721.106 320.26,737.723 301.996,754.808 285.43,772.321 270.602,790.219 257.549,808.46 246.302,826.999 236.887,845.791 229.328,864.792 223.643,883.955 219.845,903.235 217.944,922.585 217.944,941.958 "/>
<path clip-path="url(#clip572)" d="M1844.15 1099.68 L2290.58 653.258 L1844.15 206.836 L1397.73 653.258 L1844.15 1099.68 L1844.15 1099.68  Z" fill="#e26f46" fill-rule="evenodd" fill-opacity="0.4"/>
<polyline clip-path="url(#clip572)" style="stroke:#000000; stroke-linecap:round; stroke-linejoin:round; stroke-width:4; stroke-opacity:0.4; fill:none" points="1844.15,1099.68 2290.58,653.258 1844.15,206.836 1397.73,653.258 1844.15,1099.68 "/>
<path clip-path="url(#clip572)" d="M1397.73 653.258 L1772.63 1028.15 L1777.34 1018.75 L1784.9 999.751 L1790.58 980.587 L1794.38 961.308 L1796.28 941.958 L1796.28 922.585 L1794.38 903.235 L1790.58 883.955 L1784.9 864.792 L1777.34 845.791 L1767.93 826.999 L1756.68 808.46 L1743.63 790.219 L1728.8 772.321 L1712.23 754.808 L1693.97 737.723 L1674.05 721.106 L1652.52 704.998 L1629.44 689.437 L1604.86 674.461 L1578.84 660.107 L1551.44 646.408 L1522.73 633.398 L1492.78 621.108 L1461.66 609.567 L1446.49 604.499 L1397.73 653.258 L1397.73 653.258  Z" fill="#000000" fill-rule="evenodd" fill-opacity="0.4"/>
<polyline clip-path="url(#clip572)" style="stroke:#000000; stroke-linecap:round; stroke-linejoin:round; stroke-width:4; stroke-opacity:0.4; fill:none" points="1397.73,653.258 1772.63,1028.15 1777.34,1018.75 1784.9,999.751 1790.58,980.587 1794.38,961.308 1796.28,941.958 1796.28,922.585 1794.38,903.235 1790.58,883.955 1784.9,864.792 1777.34,845.791 1767.93,826.999 1756.68,808.46 1743.63,790.219 1728.8,772.321 1712.23,754.808 1693.97,737.723 1674.05,721.106 1652.52,704.998 1629.44,689.437 1604.86,674.461 1578.84,660.107 1551.44,646.408 1522.73,633.398 1492.78,621.108 1461.66,609.567 1446.49,604.499 1397.73,653.258 "/>
</svg>
