<?xml version="1.0" encoding="utf-8"?>
<svg xmlns="http://www.w3.org/2000/svg" xmlns:xlink="http://www.w3.org/1999/xlink" width="600" height="400" viewBox="0 0 2400 1600">
<defs>
  <clipPath id="clip930">
    <rect x="0" y="0" width="2400" height="1600"/>
  </clipPath>
</defs>
<path clip-path="url(#clip930)" d="M0 1600 L2400 1600 L2400 0 L0 0  Z" fill="#ffffff" fill-rule="evenodd" fill-opacity="1"/>
<defs>
  <clipPath id="clip931">
    <rect x="480" y="0" width="1681" height="1600"/>
  </clipPath>
</defs>
<path clip-path="url(#clip930)" d="M147.478 1486.45 L2352.76 1486.45 L2352.76 47.2441 L147.478 47.2441  Z" fill="#ffffff" fill-rule="evenodd" fill-opacity="1"/>
<defs>
  <clipPath id="clip932">
    <rect x="147" y="47" width="2206" height="1440"/>
  </clipPath>
</defs>
<polyline clip-path="url(#clip932)" style="stroke:#000000; stroke-linecap:round; stroke-linejoin:round; stroke-width:2; stroke-opacity:0.1; fill:none" points="436.052,1486.45 436.052,47.2441 "/>
<polyline clip-path="url(#clip932)" style="stroke:#000000; stroke-linecap:round; stroke-linejoin:round; stroke-width:2; stroke-opacity:0.1; fill:none" points="1053.68,1486.45 1053.68,47.2441 "/>
<polyline clip-path="url(#clip932)" style="stroke:#000000; stroke-linecap:round; stroke-linejoin:round; stroke-width:2; stroke-opacity:0.1; fill:none" points="1671.3,1486.45 1671.3,47.2441 "/>
<polyline clip-path="url(#clip932)" style="stroke:#000000; stroke-linecap:round; stroke-linejoin:round; stroke-width:2; stroke-opacity:0.1; fill:none" points="2288.93,1486.45 2288.93,47.2441 "/>
<polyline clip-path="url(#clip932)" style="stroke:#000000; stroke-linecap:round; stroke-linejoin:round; stroke-width:2; stroke-opacity:0.1; fill:none" points="147.478,1275.49 2352.76,1275.49 "/>
<polyline clip-path="url(#clip932)" style="stroke:#000000; stroke-linecap:round; stroke-linejoin:round; stroke-width:2; stroke-opacity:0.1; fill:none" points="147.478,1003.91 2352.76,1003.91 "/>
<polyline clip-path="url(#clip932)" style="stroke:#000000; stroke-linecap:round; stroke-linejoin:round; stroke-width:2; stroke-opacity:0.1; fill:none" points="147.478,732.327 2352.76,732.327 "/>
<polyline clip-path="url(#clip932)" style="stroke:#000000; stroke-linecap:round; stroke-linejoin:round; stroke-width:2; stroke-opacity:0.1; fill:none" points="147.478,460.747 2352.76,460.747 "/>
<polyline clip-path="url(#clip932)" style="stroke:#000000; stroke-linecap:round; stroke-linejoin:round; stroke-width:2; stroke-opacity:0.1; fill:none" points="147.478,189.166 2352.76,189.166 "/>
<polyline clip-path="url(#clip930)" style="stroke:#000000; stroke-linecap:round; stroke-linejoin:round; stroke-width:4; stroke-opacity:1; fill:none" points="147.478,1486.45 2352.76,1486.45 "/>
<polyline clip-path="url(#clip930)" style="stroke:#000000; stroke-linecap:round; stroke-linejoin:round; stroke-width:4; stroke-opacity:1; fill:none" points="436.052,1486.45 436.052,1467.55 "/>
<polyline clip-path="url(#clip930)" style="stroke:#000000; stroke-linecap:round; stroke-linejoin:round; stroke-width:4; stroke-opacity:1; fill:none" points="1053.68,1486.45 1053.68,1467.55 "/>
<polyline clip-path="url(#clip930)" style="stroke:#000000; stroke-linecap:round; stroke-linejoin:round; stroke-width:4; stroke-opacity:1; fill:none" points="1671.3,1486.45 1671.3,1467.55 "/>
<polyline clip-path="url(#clip930)" style="stroke:#000000; stroke-linecap:round; stroke-linejoin:round; stroke-width:4; stroke-opacity:1; fill:none" points="2288.93,1486.45 2288.93,1467.55 "/>
<path clip-path="url(#clip930)" d="M405.809 1532.02 L435.485 1532.02 L435.485 1535.95 L405.809 1535.95 L405.809 1532.02 Z" fill="#000000" fill-rule="nonzero" fill-opacity="1" /><path clip-path="url(#clip930)" d="M446.388 1544.91 L454.027 1544.91 L454.027 1518.55 L445.716 1520.21 L445.716 1515.95 L453.98 1514.29 L458.656 1514.29 L458.656 1544.91 L466.295 1544.91 L466.295 1548.85 L446.388 1548.85 L446.388 1544.91 Z" fill="#000000" fill-rule="nonzero" fill-opacity="1" /><path clip-path="url(#clip930)" d="M1053.68 1517.37 Q1050.07 1517.37 1048.24 1520.93 Q1046.43 1524.47 1046.43 1531.6 Q1046.43 1538.71 1048.24 1542.27 Q1050.07 1545.82 1053.68 1545.82 Q1057.31 1545.82 1059.12 1542.27 Q1060.95 1538.71 1060.95 1531.6 Q1060.95 1524.47 1059.12 1520.93 Q1057.31 1517.37 1053.68 1517.37 M1053.68 1513.66 Q1059.49 1513.66 1062.54 1518.27 Q1065.62 1522.85 1065.62 1531.6 Q1065.62 1540.33 1062.54 1544.94 Q1059.49 1549.52 1053.68 1549.52 Q1047.87 1549.52 1044.79 1544.94 Q1041.73 1540.33 1041.73 1531.6 Q1041.73 1522.85 1044.79 1518.27 Q1047.87 1513.66 1053.68 1513.66 Z" fill="#000000" fill-rule="nonzero" fill-opacity="1" /><path clip-path="url(#clip930)" d="M1661.68 1544.91 L1669.32 1544.91 L1669.32 1518.55 L1661.01 1520.21 L1661.01 1515.95 L1669.28 1514.29 L1673.95 1514.29 L1673.95 1544.91 L1681.59 1544.91 L1681.59 1548.85 L1661.68 1548.85 L1661.68 1544.91 Z" fill="#000000" fill-rule="nonzero" fill-opacity="1" /><path clip-path="url(#clip930)" d="M2283.58 1544.91 L2299.9 1544.91 L2299.9 1548.85 L2277.95 1548.85 L2277.95 1544.91 Q2280.62 1542.16 2285.2 1537.53 Q2289.81 1532.88 2290.99 1531.53 Q2293.23 1529.01 2294.11 1527.27 Q2295.01 1525.51 2295.01 1523.82 Q2295.01 1521.07 2293.07 1519.33 Q2291.15 1517.6 2288.05 1517.6 Q2285.85 1517.6 2283.39 1518.36 Q2280.96 1519.13 2278.19 1520.68 L2278.19 1515.95 Q2281.01 1514.82 2283.46 1514.24 Q2285.92 1513.66 2287.95 1513.66 Q2293.33 1513.66 2296.52 1516.35 Q2299.71 1519.03 2299.71 1523.52 Q2299.71 1525.65 2298.9 1527.57 Q2298.12 1529.47 2296.01 1532.07 Q2295.43 1532.74 2292.33 1535.95 Q2289.23 1539.15 2283.58 1544.91 Z" fill="#000000" fill-rule="nonzero" fill-opacity="1" /><polyline clip-path="url(#clip930)" style="stroke:#000000; stroke-linecap:round; stroke-linejoin:round; stroke-width:4; stroke-opacity:1; fill:none" points="147.478,1486.45 147.478,47.2441 "/>
<polyline clip-path="url(#clip930)" style="stroke:#000000; stroke-linecap:round; stroke-linejoin:round; stroke-width:4; stroke-opacity:1; fill:none" points="147.478,1275.49 166.376,1275.49 "/>
<polyline clip-path="url(#clip930)" style="stroke:#000000; stroke-linecap:round; stroke-linejoin:round; stroke-width:4; stroke-opacity:1; fill:none" points="147.478,1003.91 166.376,1003.91 "/>
<polyline clip-path="url(#clip930)" style="stroke:#000000; stroke-linecap:round; stroke-linejoin:round; stroke-width:4; stroke-opacity:1; fill:none" points="147.478,732.327 166.376,732.327 "/>
<polyline clip-path="url(#clip930)" style="stroke:#000000; stroke-linecap:round; stroke-linejoin:round; stroke-width:4; stroke-opacity:1; fill:none" points="147.478,460.747 166.376,460.747 "/>
<polyline clip-path="url(#clip930)" style="stroke:#000000; stroke-linecap:round; stroke-linejoin:round; stroke-width:4; stroke-opacity:1; fill:none" points="147.478,189.166 166.376,189.166 "/>
<path clip-path="url(#clip930)" d="M51.3625 1275.94 L81.0383 1275.94 L81.0383 1279.88 L51.3625 1279.88 L51.3625 1275.94 Z" fill="#000000" fill-rule="nonzero" fill-opacity="1" /><path clip-path="url(#clip930)" d="M95.1586 1288.83 L111.478 1288.83 L111.478 1292.77 L89.5336 1292.77 L89.5336 1288.83 Q92.1956 1286.08 96.7789 1281.45 Q101.385 1276.8 102.566 1275.45 Q104.811 1272.93 105.691 1271.19 Q106.594 1269.44 106.594 1267.75 Q106.594 1264.99 104.649 1263.25 Q102.728 1261.52 99.6261 1261.52 Q97.4271 1261.52 94.9734 1262.28 Q92.5428 1263.05 89.7651 1264.6 L89.7651 1259.88 Q92.5891 1258.74 95.0428 1258.16 Q97.4965 1257.58 99.5335 1257.58 Q104.904 1257.58 108.098 1260.27 Q111.293 1262.95 111.293 1267.44 Q111.293 1269.57 110.483 1271.5 Q109.696 1273.39 107.589 1275.99 Q107.01 1276.66 103.909 1279.88 Q100.807 1283.07 95.1586 1288.83 Z" fill="#000000" fill-rule="nonzero" fill-opacity="1" /><path clip-path="url(#clip930)" d="M50.9921 1004.36 L80.6679 1004.36 L80.6679 1008.29 L50.9921 1008.29 L50.9921 1004.36 Z" fill="#000000" fill-rule="nonzero" fill-opacity="1" /><path clip-path="url(#clip930)" d="M91.5706 1017.25 L99.2095 1017.25 L99.2095 990.887 L90.8993 992.554 L90.8993 988.295 L99.1632 986.628 L103.839 986.628 L103.839 1017.25 L111.478 1017.25 L111.478 1021.19 L91.5706 1021.19 L91.5706 1017.25 Z" fill="#000000" fill-rule="nonzero" fill-opacity="1" /><path clip-path="url(#clip930)" d="M99.5335 718.126 Q95.9224 718.126 94.0937 721.691 Q92.2882 725.233 92.2882 732.362 Q92.2882 739.469 94.0937 743.033 Q95.9224 746.575 99.5335 746.575 Q103.168 746.575 104.973 743.033 Q106.802 739.469 106.802 732.362 Q106.802 725.233 104.973 721.691 Q103.168 718.126 99.5335 718.126 M99.5335 714.422 Q105.344 714.422 108.399 719.029 Q111.478 723.612 111.478 732.362 Q111.478 741.089 108.399 745.695 Q105.344 750.279 99.5335 750.279 Q93.7234 750.279 90.6447 745.695 Q87.5892 741.089 87.5892 732.362 Q87.5892 723.612 90.6447 719.029 Q93.7234 714.422 99.5335 714.422 Z" fill="#000000" fill-rule="nonzero" fill-opacity="1" /><path clip-path="url(#clip930)" d="M91.5706 474.092 L99.2095 474.092 L99.2095 447.726 L90.8993 449.393 L90.8993 445.133 L99.1632 443.467 L103.839 443.467 L103.839 474.092 L111.478 474.092 L111.478 478.027 L91.5706 478.027 L91.5706 474.092 Z" fill="#000000" fill-rule="nonzero" fill-opacity="1" /><path clip-path="url(#clip930)" d="M95.1586 202.511 L111.478 202.511 L111.478 206.446 L89.5336 206.446 L89.5336 202.511 Q92.1956 199.756 96.7789 195.127 Q101.385 190.474 102.566 189.131 Q104.811 186.608 105.691 184.872 Q106.594 183.113 106.594 181.423 Q106.594 178.669 104.649 176.932 Q102.728 175.196 99.6261 175.196 Q97.4271 175.196 94.9734 175.96 Q92.5428 176.724 89.7651 178.275 L89.7651 173.553 Q92.5891 172.419 95.0428 171.84 Q97.4965 171.261 99.5335 171.261 Q104.904 171.261 108.098 173.946 Q111.293 176.631 111.293 181.122 Q111.293 183.252 110.483 185.173 Q109.696 187.071 107.589 189.664 Q107.01 190.335 103.909 193.553 Q100.807 196.747 95.1586 202.511 Z" fill="#000000" fill-rule="nonzero" fill-opacity="1" /><circle clip-path="url(#clip932)" cx="336.276" cy="862.506" r="14.4" fill="#009af9" fill-rule="evenodd" fill-opacity="0.5" stroke="#000000" stroke-opacity="0.5" stroke-width="3.2"/>
<circle clip-path="url(#clip932)" cx="544.043" cy="824.98" r="14.4" fill="#009af9" fill-rule="evenodd" fill-opacity="0.5" stroke="#000000" stroke-opacity="0.5" stroke-width="3.2"/>
<circle clip-path="url(#clip932)" cx="1208.56" cy="811.778" r="14.4" fill="#009af9" fill-rule="evenodd" fill-opacity="0.5" stroke="#000000" stroke-opacity="0.5" stroke-width="3.2"/>
<circle clip-path="url(#clip932)" cx="757.339" cy="514.492" r="14.4" fill="#009af9" fill-rule="evenodd" fill-opacity="0.5" stroke="#000000" stroke-opacity="0.5" stroke-width="3.2"/>
<circle clip-path="url(#clip932)" cx="1104.15" cy="1062.9" r="14.4" fill="#009af9" fill-rule="evenodd" fill-opacity="0.5" stroke="#000000" stroke-opacity="0.5" stroke-width="3.2"/>
<circle clip-path="url(#clip932)" cx="2132.83" cy="184.955" r="14.4" fill="#009af9" fill-rule="evenodd" fill-opacity="0.5" stroke="#000000" stroke-opacity="0.5" stroke-width="3.2"/>
<circle clip-path="url(#clip932)" cx="884.415" cy="949.969" r="14.4" fill="#009af9" fill-rule="evenodd" fill-opacity="0.5" stroke="#000000" stroke-opacity="0.5" stroke-width="3.2"/>
<circle clip-path="url(#clip932)" cx="1101" cy="753.05" r="14.4" fill="#009af9" fill-rule="evenodd" fill-opacity="0.5" stroke="#000000" stroke-opacity="0.5" stroke-width="3.2"/>
<circle clip-path="url(#clip932)" cx="859.143" cy="715.266" r="14.4" fill="#009af9" fill-rule="evenodd" fill-opacity="0.5" stroke="#000000" stroke-opacity="0.5" stroke-width="3.2"/>
<circle clip-path="url(#clip932)" cx="415.317" cy="915.948" r="14.4" fill="#009af9" fill-rule="evenodd" fill-opacity="0.5" stroke="#000000" stroke-opacity="0.5" stroke-width="3.2"/>
<circle clip-path="url(#clip932)" cx="1570.87" cy="292.972" r="14.4" fill="#009af9" fill-rule="evenodd" fill-opacity="0.5" stroke="#000000" stroke-opacity="0.5" stroke-width="3.2"/>
<circle clip-path="url(#clip932)" cx="1086.16" cy="889.026" r="14.4" fill="#009af9" fill-rule="evenodd" fill-opacity="0.5" stroke="#000000" stroke-opacity="0.5" stroke-width="3.2"/>
<circle clip-path="url(#clip932)" cx="1010.18" cy="270.564" r="14.4" fill="#009af9" fill-rule="evenodd" fill-opacity="0.5" stroke="#000000" stroke-opacity="0.5" stroke-width="3.2"/>
<circle clip-path="url(#clip932)" cx="1406.53" cy="945.9" r="14.4" fill="#009af9" fill-rule="evenodd" fill-opacity="0.5" stroke="#000000" stroke-opacity="0.5" stroke-width="3.2"/>
<circle clip-path="url(#clip932)" cx="826.314" cy="932.165" r="14.4" fill="#009af9" fill-rule="evenodd" fill-opacity="0.5" stroke="#000000" stroke-opacity="0.5" stroke-width="3.2"/>
<circle clip-path="url(#clip932)" cx="209.891" cy="1445.72" r="14.4" fill="#009af9" fill-rule="evenodd" fill-opacity="0.5" stroke="#000000" stroke-opacity="0.5" stroke-width="3.2"/>
<circle clip-path="url(#clip932)" cx="558.845" cy="877.186" r="14.4" fill="#009af9" fill-rule="evenodd" fill-opacity="0.5" stroke="#000000" stroke-opacity="0.5" stroke-width="3.2"/>
<circle clip-path="url(#clip932)" cx="325.661" cy="530.742" r="14.4" fill="#009af9" fill-rule="evenodd" fill-opacity="0.5" stroke="#000000" stroke-opacity="0.5" stroke-width="3.2"/>
<circle clip-path="url(#clip932)" cx="1528.73" cy="1004.53" r="14.4" fill="#009af9" fill-rule="evenodd" fill-opacity="0.5" stroke="#000000" stroke-opacity="0.5" stroke-width="3.2"/>
<circle clip-path="url(#clip932)" cx="2290.34" cy="1075.08" r="14.4" fill="#009af9" fill-rule="evenodd" fill-opacity="0.5" stroke="#000000" stroke-opacity="0.5" stroke-width="3.2"/>
<circle clip-path="url(#clip932)" cx="912.711" cy="634.758" r="14.4" fill="#009af9" fill-rule="evenodd" fill-opacity="0.5" stroke="#000000" stroke-opacity="0.5" stroke-width="3.2"/>
<circle clip-path="url(#clip932)" cx="1016.64" cy="623.456" r="14.4" fill="#009af9" fill-rule="evenodd" fill-opacity="0.5" stroke="#000000" stroke-opacity="0.5" stroke-width="3.2"/>
<circle clip-path="url(#clip932)" cx="604.564" cy="87.9763" r="14.4" fill="#009af9" fill-rule="evenodd" fill-opacity="0.5" stroke="#000000" stroke-opacity="0.5" stroke-width="3.2"/>
<circle clip-path="url(#clip932)" cx="1222.48" cy="281.061" r="14.4" fill="#009af9" fill-rule="evenodd" fill-opacity="0.5" stroke="#000000" stroke-opacity="0.5" stroke-width="3.2"/>
<circle clip-path="url(#clip932)" cx="1686.83" cy="982.001" r="14.4" fill="#009af9" fill-rule="evenodd" fill-opacity="0.5" stroke="#000000" stroke-opacity="0.5" stroke-width="3.2"/>
<circle clip-path="url(#clip932)" cx="947.235" cy="726.472" r="14.4" fill="#009af9" fill-rule="evenodd" fill-opacity="0.5" stroke="#000000" stroke-opacity="0.5" stroke-width="3.2"/>
<circle clip-path="url(#clip932)" cx="898.19" cy="841.885" r="14.4" fill="#009af9" fill-rule="evenodd" fill-opacity="0.5" stroke="#000000" stroke-opacity="0.5" stroke-width="3.2"/>
<circle clip-path="url(#clip932)" cx="495.094" cy="552.58" r="14.4" fill="#009af9" fill-rule="evenodd" fill-opacity="0.5" stroke="#000000" stroke-opacity="0.5" stroke-width="3.2"/>
<circle clip-path="url(#clip932)" cx="1032.24" cy="918.74" r="14.4" fill="#009af9" fill-rule="evenodd" fill-opacity="0.5" stroke="#000000" stroke-opacity="0.5" stroke-width="3.2"/>
<circle clip-path="url(#clip932)" cx="1425.31" cy="825.674" r="14.4" fill="#009af9" fill-rule="evenodd" fill-opacity="0.5" stroke="#000000" stroke-opacity="0.5" stroke-width="3.2"/>
<path clip-path="url(#clip932)" d="M209.891 1445.72 L2290.34 1075.08 L2132.83 184.955 L604.564 87.9763 L325.661 530.742 L209.891 1445.72 L209.891 1445.72  Z" fill="#e26f46" fill-rule="evenodd" fill-opacity="0.2"/>
<polyline clip-path="url(#clip932)" style="stroke:#000000; stroke-linecap:round; stroke-linejoin:round; stroke-width:4; stroke-opacity:0.2; fill:none" points="209.891,1445.72 2290.34,1075.08 2132.83,184.955 604.564,87.9763 325.661,530.742 209.891,1445.72 "/>
</svg>
