<?xml version="1.0" encoding="utf-8"?>
<svg xmlns="http://www.w3.org/2000/svg" xmlns:xlink="http://www.w3.org/1999/xlink" width="300" height="300" viewBox="0 0 1200 1200">
<defs>
  <clipPath id="clip630">
    <rect x="0" y="0" width="1200" height="1200"/>
  </clipPath>
</defs>
<path clip-path="url(#clip630)" d="M0 1200 L1200 1200 L1200 0 L0 0  Z" fill="#ffffff" fill-rule="evenodd" fill-opacity="1"/>
<defs>
  <clipPath id="clip631">
    <rect x="240" y="120" width="841" height="841"/>
  </clipPath>
</defs>
<path clip-path="url(#clip630)" d="M148.357 1027.22 L1128.33 1027.22 L1128.33 47.2441 L148.357 47.2441  Z" fill="#ffffff" fill-rule="evenodd" fill-opacity="1"/>
<defs>
  <clipPath id="clip632">
    <rect x="148" y="47" width="981" height="981"/>
  </clipPath>
</defs>
<polyline clip-path="url(#clip632)" style="stroke:#000000; stroke-linecap:round; stroke-linejoin:round; stroke-width:2; stroke-opacity:0.1; fill:none" points="176.092,1027.22 176.092,47.2441 "/>
<polyline clip-path="url(#clip632)" style="stroke:#000000; stroke-linecap:round; stroke-linejoin:round; stroke-width:2; stroke-opacity:0.1; fill:none" points="638.345,1027.22 638.345,47.2441 "/>
<polyline clip-path="url(#clip632)" style="stroke:#000000; stroke-linecap:round; stroke-linejoin:round; stroke-width:2; stroke-opacity:0.1; fill:none" points="1100.6,1027.22 1100.6,47.2441 "/>
<polyline clip-path="url(#clip632)" style="stroke:#000000; stroke-linecap:round; stroke-linejoin:round; stroke-width:2; stroke-opacity:0.1; fill:none" points="148.357,537.232 1128.33,537.232 "/>
<polyline clip-path="url(#clip632)" style="stroke:#000000; stroke-linecap:round; stroke-linejoin:round; stroke-width:2; stroke-opacity:0.1; fill:none" points="148.357,74.9793 1128.33,74.9793 "/>
<polyline clip-path="url(#clip630)" style="stroke:#000000; stroke-linecap:round; stroke-linejoin:round; stroke-width:4; stroke-opacity:1; fill:none" points="148.357,1027.22 1128.33,1027.22 "/>
<polyline clip-path="url(#clip630)" style="stroke:#000000; stroke-linecap:round; stroke-linejoin:round; stroke-width:4; stroke-opacity:1; fill:none" points="176.092,1027.22 176.092,1008.32 "/>
<polyline clip-path="url(#clip630)" style="stroke:#000000; stroke-linecap:round; stroke-linejoin:round; stroke-width:4; stroke-opacity:1; fill:none" points="638.345,1027.22 638.345,1008.32 "/>
<polyline clip-path="url(#clip630)" style="stroke:#000000; stroke-linecap:round; stroke-linejoin:round; stroke-width:4; stroke-opacity:1; fill:none" points="1100.6,1027.22 1100.6,1008.32 "/>
<g clip-path="url(#clip630)">
<text style="fill:#000000; fill-opacity:1; font-family:Times New Roman,TimesNewRoman,Times,Baskerville,Georgia,serif; font-size:98px; text-anchor:middle;" transform="rotate(0, 176.092, 1118.21)" x="176.092" y="1118.21">−1</text>
</g>
<g clip-path="url(#clip630)">
<text style="fill:#000000; fill-opacity:1; font-family:Times New Roman,TimesNewRoman,Times,Baskerville,Georgia,serif; font-size:98px; text-anchor:middle;" transform="rotate(0, 638.345, 1118.21)" x="638.345" y="1118.21">0</text>
</g>
<g clip-path="url(#clip630)">
<text style="fill:#000000; fill-opacity:1; font-family:Times New Roman,TimesNewRoman,Times,Baskerville,Georgia,serif; font-size:98px; text-anchor:middle;" transform="rotate(0, 1100.6, 1118.21)" x="1100.6" y="1118.21">1</text>
</g>
<polyline clip-path="url(#clip630)" style="stroke:#000000; stroke-linecap:round; stroke-linejoin:round; stroke-width:4; stroke-opacity:1; fill:none" points="148.357,1027.22 148.357,47.2441 "/>
<polyline clip-path="url(#clip630)" style="stroke:#000000; stroke-linecap:round; stroke-linejoin:round; stroke-width:4; stroke-opacity:1; fill:none" points="148.357,537.232 166.358,537.232 "/>
<polyline clip-path="url(#clip630)" style="stroke:#000000; stroke-linecap:round; stroke-linejoin:round; stroke-width:4; stroke-opacity:1; fill:none" points="148.357,74.9793 166.358,74.9793 "/>
<g clip-path="url(#clip630)">
<text style="fill:#000000; fill-opacity:1; font-family:Times New Roman,TimesNewRoman,Times,Baskerville,Georgia,serif; font-size:98px; text-anchor:middle;" transform="rotate(0, 105.886, 569.732)" x="105.886" y="569.732">0</text>
</g>
<g clip-path="url(#clip630)">
<text style="fill:#000000; fill-opacity:1; font-family:Times New Roman,TimesNewRoman,Times,Baskerville,Georgia,serif; font-size:98px; text-anchor:middle;" transform="rotate(0, 105.886, 107.479)" x="105.886" y="107.479">1</text>
</g>
<path clip-path="url(#clip632)" d="M176.092 547.053 L176.1 554.93 L176.111 560.267 L176.126 565.325 L176.147 570.184 L176.174 574.818 L176.207 579.271 L176.247 583.656 L176.295 587.984 L176.35 592.194 L176.413 596.298 L176.483 600.309 L176.561 604.239 L176.647 608.091 L176.741 611.875 L176.845 615.666 L176.96 619.466 L177.084 623.207 L177.218 626.893 L177.361 630.527 L177.514 634.114 L177.676 637.654 L177.848 641.152 L178.03 644.609 L178.222 648.03 L178.425 651.412 L178.637 654.76 L178.86 658.073 L179.093 661.354 L179.337 664.603 L179.591 667.823 L179.861 671.075 L180.148 674.359 L180.447 677.614 L180.758 680.84 L181.08 684.039 L181.414 687.211 L181.76 690.356 L182.119 693.477 L182.489 696.573 L182.872 699.645 L183.268 702.693 L183.675 705.718 L184.095 708.721 L184.528 711.702 L184.973 714.661 L185.431 717.599 L185.902 720.518 L186.386 723.417 L186.883 726.295 L187.392 729.154 L187.915 731.994 L188.45 734.814 L188.999 737.616 L189.561 740.398 L190.136 743.162 L190.724 745.908 L191.325 748.636 L191.94 751.347 L192.568 754.039 L193.21 756.714 L193.865 759.372 L194.533 762.013 L195.229 764.689 L195.952 767.398 L196.691 770.09 L197.444 772.764 L198.212 775.42 L198.995 778.058 L199.792 780.679 L200.605 783.283 L201.432 785.87 L202.274 788.439 L203.132 790.991 L204.004 793.527 L204.891 796.046 L205.794 798.548 L206.712 801.033 L207.644 803.501 L208.592 805.954 L209.556 808.39 L210.534 810.809 L211.528 813.213 L212.537 815.6 L213.561 817.971 L214.601 820.325 L215.656 822.664 L216.726 824.986 L217.812 827.292 L218.913 829.582 L220.029 831.857 L221.161 834.115 L222.309 836.357 L223.471 838.584 L224.65 840.794 L225.844 842.99 L227.054 845.17 L228.28 847.335 L229.521 849.484 L230.777 851.617 L232.05 853.734 L233.337 855.836 L234.641 857.921 L235.96 859.991 L237.294 862.046 L238.644 864.084 L240.01 866.107 L241.392 868.114 L242.789 870.106 L244.201 872.082 L245.629 874.042 L247.073 875.986 L248.533 877.915 L250.008 879.828 L251.499 881.726 L253.005 883.608 L254.527 885.474 L256.065 887.325 L257.618 889.16 L259.187 890.979 L260.772 892.782 L262.372 894.57 L263.988 896.343 L265.619 898.1 L267.266 899.841 L268.929 901.566 L270.608 903.276 L272.302 904.97 L274.012 906.648 L275.737 908.311 L277.478 909.958 L279.235 911.59 L281.007 913.206 L282.795 914.806 L284.599 916.391 L286.418 917.96 L288.253 919.513 L290.104 921.051 L291.97 922.573 L293.852 924.079 L295.749 925.57 L297.663 927.045 L299.591 928.504 L301.536 929.948 L303.496 931.377 L305.472 932.789 L307.463 934.186 L309.471 935.567 L311.493 936.933 L313.532 938.283 L315.586 939.618 L317.656 940.937 L319.742 942.24 L321.844 943.528 L323.961 944.8 L326.094 946.057 L328.243 947.298 L330.407 948.524 L332.588 949.734 L334.783 950.928 L336.994 952.106 L339.22 953.269 L341.463 954.416 L343.721 955.548 L345.995 956.665 L348.285 957.766 L350.592 958.852 L352.914 959.922 L355.253 960.977 L357.607 962.016 L359.978 963.041 L362.365 964.05 L364.768 965.044 L367.188 966.022 L369.624 966.985 L372.076 967.933 L374.545 968.866 L377.03 969.784 L379.532 970.686 L382.051 971.574 L384.586 972.446 L387.139 973.303 L389.708 974.146 L392.295 974.973 L394.898 975.786 L397.519 976.583 L400.158 977.366 L402.814 978.134 L405.488 978.887 L408.179 979.625 L410.889 980.349 L413.565 981.044 L416.206 981.713 L418.863 982.368 L421.539 983.009 L424.231 983.637 L426.941 984.252 L429.669 984.854 L432.415 985.442 L435.18 986.017 L437.962 986.579 L440.763 987.127 L443.584 987.663 L446.423 988.185 L449.282 988.695 L452.161 989.192 L455.06 989.676 L457.978 990.146 L460.916 990.604 L463.876 991.05 L466.856 991.482 L469.859 991.902 L472.885 992.31 L475.933 992.705 L479.005 993.088 L482.101 993.459 L485.221 993.817 L488.367 994.164 L491.539 994.498 L494.738 994.82 L497.964 995.131 L501.219 995.429 L504.503 995.716 L507.755 995.986 L510.974 996.241 L514.224 996.484 L517.504 996.718 L520.818 996.941 L524.165 997.153 L527.548 997.355 L530.968 997.547 L534.426 997.73 L537.924 997.902 L541.464 998.064 L545.05 998.217 L548.685 998.36 L552.371 998.493 L556.111 998.618 L559.911 998.733 L563.703 998.837 L567.486 998.931 L571.339 999.017 L575.268 999.095 L579.28 999.165 L583.384 999.227 L587.593 999.282 L591.922 999.33 L596.307 999.37 L600.76 999.403 L605.394 999.43 L610.253 999.452 L615.31 999.467 L620.648 999.477 L628.524 999.485 L648.166 999.485 L656.043 999.477 L661.38 999.467 L666.438 999.452 L671.297 999.43 L675.931 999.403 L680.384 999.37 L684.769 999.33 L689.097 999.282 L693.307 999.227 L697.411 999.165 L701.422 999.095 L705.352 999.017 L709.204 998.931 L712.988 998.837 L716.779 998.733 L720.579 998.618 L724.32 998.493 L728.006 998.36 L731.64 998.217 L735.226 998.064 L738.767 997.902 L742.265 997.73 L745.722 997.547 L749.143 997.355 L752.525 997.153 L755.873 996.941 L759.186 996.718 L762.467 996.484 L765.716 996.241 L768.936 995.986 L772.188 995.716 L775.472 995.429 L778.727 995.131 L781.953 994.82 L785.152 994.498 L788.324 994.164 L791.469 993.817 L794.59 993.459 L797.686 993.088 L800.758 992.705 L803.806 992.31 L806.831 991.902 L809.834 991.482 L812.815 991.05 L815.774 990.604 L818.712 990.146 L821.631 989.676 L824.53 989.192 L827.408 988.695 L830.267 988.185 L833.107 987.663 L835.927 987.127 L838.729 986.579 L841.511 986.017 L844.275 985.442 L847.021 984.854 L849.749 984.252 L852.46 983.637 L855.152 983.009 L857.827 982.368 L860.485 981.713 L863.126 981.044 L865.802 980.349 L868.511 979.625 L871.203 978.887 L873.877 978.134 L876.533 977.366 L879.171 976.583 L881.792 975.786 L884.396 974.973 L886.983 974.146 L889.552 973.303 L892.104 972.446 L894.64 971.574 L897.159 970.686 L899.66 969.784 L902.146 968.866 L904.614 967.933 L907.067 966.985 L909.503 966.022 L911.922 965.044 L914.326 964.05 L916.713 963.041 L919.083 962.016 L921.438 960.977 L923.777 959.922 L926.099 958.852 L928.405 957.766 L930.695 956.665 L932.97 955.548 L935.228 954.416 L937.47 953.269 L939.697 952.106 L941.907 950.928 L944.103 949.734 L946.283 948.524 L948.448 947.298 L950.597 946.057 L952.73 944.8 L954.847 943.528 L956.949 942.24 L959.034 940.937 L961.104 939.618 L963.159 938.283 L965.197 936.933 L967.22 935.567 L969.227 934.186 L971.219 932.789 L973.195 931.377 L975.155 929.948 L977.099 928.504 L979.028 927.045 L980.941 925.57 L982.839 924.079 L984.721 922.573 L986.587 921.051 L988.438 919.513 L990.273 917.96 L992.092 916.391 L993.895 914.806 L995.683 913.206 L997.456 911.59 L999.212 909.958 L1000.95 908.311 L1002.68 906.648 L1004.39 904.97 L1006.08 903.276 L1007.76 901.566 L1009.42 899.841 L1011.07 898.1 L1012.7 896.343 L1014.32 894.57 L1015.92 892.782 L1017.5 890.979 L1019.07 889.16 L1020.63 887.325 L1022.16 885.474 L1023.69 883.608 L1025.19 881.726 L1026.68 879.828 L1028.16 877.915 L1029.62 875.986 L1031.06 874.042 L1032.49 872.082 L1033.9 870.106 L1035.3 868.114 L1036.68 866.107 L1038.05 864.084 L1039.4 862.046 L1040.73 859.991 L1042.05 857.921 L1043.35 855.836 L1044.64 853.734 L1045.91 851.617 L1047.17 849.484 L1048.41 847.335 L1049.64 845.17 L1050.85 842.99 L1052.04 840.794 L1053.22 838.584 L1054.38 836.357 L1055.53 834.115 L1056.66 831.857 L1057.78 829.582 L1058.88 827.292 L1059.96 824.986 L1061.03 822.664 L1062.09 820.325 L1063.13 817.971 L1064.15 815.6 L1065.16 813.213 L1066.16 810.809 L1067.14 808.39 L1068.1 805.954 L1069.05 803.501 L1069.98 801.033 L1070.9 798.548 L1071.8 796.046 L1072.69 793.527 L1073.56 790.991 L1074.42 788.439 L1075.26 785.87 L1076.09 783.283 L1076.9 780.679 L1077.7 778.058 L1078.48 775.42 L1079.25 772.764 L1080 770.09 L1080.74 767.398 L1081.46 764.689 L1082.16 762.013 L1082.83 759.372 L1083.48 756.714 L1084.12 754.039 L1084.75 751.347 L1085.37 748.636 L1085.97 745.908 L1086.55 743.162 L1087.13 740.398 L1087.69 737.616 L1088.24 734.814 L1088.78 731.994 L1089.3 729.154 L1089.81 726.295 L1090.3 723.417 L1090.79 720.518 L1091.26 717.599 L1091.72 714.661 L1092.16 711.702 L1092.6 708.721 L1093.02 705.718 L1093.42 702.693 L1093.82 699.645 L1094.2 696.573 L1094.57 693.477 L1094.93 690.356 L1095.28 687.211 L1095.61 684.039 L1095.93 680.84 L1096.24 677.614 L1096.54 674.359 L1096.83 671.075 L1097.1 667.823 L1097.35 664.603 L1097.6 661.354 L1097.83 658.073 L1098.05 654.76 L1098.27 651.412 L1098.47 648.03 L1098.66 644.609 L1098.84 641.152 L1099.01 637.654 L1099.18 634.114 L1099.33 630.527 L1099.47 626.893 L1099.61 623.207 L1099.73 619.466 L1099.85 615.666 L1099.95 611.875 L1100.04 608.091 L1100.13 604.239 L1100.21 600.309 L1100.28 596.298 L1100.34 592.194 L1100.4 587.984 L1100.44 583.656 L1100.48 579.271 L1100.52 574.818 L1100.54 570.184 L1100.56 565.325 L1100.58 560.267 L1100.59 554.93 L1100.6 547.053 L1100.6 527.411 L1100.59 519.535 L1100.58 514.197 L1100.56 509.14 L1100.54 504.281 L1100.52 499.647 L1100.48 495.194 L1100.44 490.809 L1100.4 486.48 L1100.34 482.271 L1100.28 478.167 L1100.21 474.155 L1100.13 470.226 L1100.04 466.373 L1099.95 462.59 L1099.85 458.798 L1099.73 454.998 L1099.61 451.258 L1099.47 447.572 L1099.33 443.937 L1099.18 440.351 L1099.01 436.811 L1098.84 433.313 L1098.66 429.855 L1098.47 426.435 L1098.27 423.052 L1098.05 419.705 L1097.83 416.391 L1097.6 413.111 L1097.35 409.861 L1097.1 406.642 L1096.83 403.39 L1096.54 400.106 L1096.24 396.851 L1095.93 393.625 L1095.61 390.426 L1095.28 387.254 L1094.93 384.108 L1094.57 380.988 L1094.2 377.892 L1093.82 374.82 L1093.42 371.772 L1093.02 368.746 L1092.6 365.743 L1092.16 362.763 L1091.72 359.803 L1091.26 356.865 L1090.79 353.947 L1090.3 351.048 L1089.81 348.169 L1089.3 345.31 L1088.78 342.471 L1088.24 339.65 L1087.69 336.849 L1087.13 334.067 L1086.55 331.302 L1085.97 328.556 L1085.37 325.828 L1084.75 323.118 L1084.12 320.426 L1083.48 317.75 L1082.83 315.093 L1082.16 312.452 L1081.46 309.776 L1080.74 307.066 L1080 304.375 L1079.25 301.701 L1078.48 299.045 L1077.7 296.406 L1076.9 293.785 L1076.09 291.182 L1075.26 288.595 L1074.42 286.026 L1073.56 283.473 L1072.69 280.938 L1071.8 278.419 L1070.9 275.917 L1069.98 273.432 L1069.05 270.963 L1068.1 268.511 L1067.14 266.075 L1066.16 263.655 L1065.16 261.252 L1064.15 258.865 L1063.13 256.494 L1062.09 254.14 L1061.03 251.801 L1059.96 249.479 L1058.88 247.173 L1057.78 244.882 L1056.66 242.608 L1055.53 240.35 L1054.38 238.107 L1053.22 235.881 L1052.04 233.67 L1050.85 231.475 L1049.64 229.294 L1048.41 227.13 L1047.17 224.981 L1045.91 222.848 L1044.64 220.731 L1043.35 218.629 L1042.05 216.543 L1040.73 214.473 L1039.4 212.419 L1038.05 210.38 L1036.68 208.358 L1035.3 206.35 L1033.9 204.359 L1032.49 202.383 L1031.06 200.423 L1029.62 198.478 L1028.16 196.55 L1026.68 194.636 L1025.19 192.739 L1023.69 190.857 L1022.16 188.991 L1020.63 187.14 L1019.07 185.305 L1017.5 183.486 L1015.92 181.682 L1014.32 179.894 L1012.7 178.122 L1011.07 176.365 L1009.42 174.624 L1007.76 172.899 L1006.08 171.189 L1004.39 169.495 L1002.68 167.816 L1000.95 166.153 L999.212 164.506 L997.456 162.875 L995.683 161.259 L993.895 159.659 L992.092 158.074 L990.273 156.505 L988.438 154.952 L986.587 153.414 L984.721 151.892 L982.839 150.386 L980.941 148.895 L979.028 147.42 L977.099 145.96 L975.155 144.516 L973.195 143.088 L971.219 141.676 L969.227 140.279 L967.22 138.897 L965.197 137.531 L963.159 136.181 L961.104 134.847 L959.034 133.528 L956.949 132.224 L954.847 130.937 L952.73 129.664 L950.597 128.408 L948.448 127.167 L946.283 125.941 L944.103 124.731 L941.907 123.537 L939.697 122.358 L937.47 121.196 L935.228 120.048 L932.97 118.916 L930.695 117.8 L928.405 116.699 L926.099 115.613 L923.777 114.543 L921.438 113.488 L919.083 112.448 L916.713 111.424 L914.326 110.415 L911.922 109.421 L909.503 108.443 L907.067 107.479 L904.614 106.531 L902.146 105.599 L899.66 104.681 L897.159 103.778 L894.64 102.891 L892.104 102.019 L889.552 101.161 L886.983 100.319 L884.396 99.4915 L881.792 98.6791 L879.171 97.8815 L876.533 97.0988 L873.877 96.3309 L871.203 95.5778 L868.511 94.8395 L865.802 94.1158 L863.126 93.4203 L860.485 92.7519 L857.827 92.0969 L855.152 91.4553 L852.46 90.8272 L849.749 90.2124 L847.021 89.611 L844.275 89.0228 L841.511 88.4478 L838.729 87.886 L835.927 87.3374 L833.107 86.8018 L830.267 86.2792 L827.408 85.7696 L824.53 85.273 L821.631 84.7892 L818.712 84.3183 L815.774 83.8604 L812.815 83.4151 L809.834 82.9825 L806.831 82.5624 L803.806 82.1547 L800.758 81.7594 L797.686 81.3765 L794.59 81.0059 L791.469 80.6475 L788.324 80.3011 L785.152 79.9669 L781.953 79.6445 L778.727 79.3341 L775.472 79.0354 L772.188 78.7484 L768.936 78.4783 L765.716 78.2239 L762.467 77.9802 L759.186 77.747 L755.873 77.5241 L752.525 77.3116 L749.143 77.1094 L745.722 76.9172 L742.265 76.7351 L738.767 76.563 L735.226 76.4007 L731.64 76.2481 L728.006 76.105 L724.32 75.9714 L720.579 75.847 L716.779 75.7319 L712.988 75.6277 L709.204 75.5337 L705.352 75.4479 L701.422 75.3699 L697.411 75.2998 L693.307 75.2373 L689.097 75.1822 L684.769 75.1344 L680.384 75.0943 L675.931 75.0612 L671.297 75.0342 L666.438 75.013 L661.38 74.9976 L656.043 74.9873 L648.166 74.9793 L628.524 74.9793 L620.648 74.9873 L615.31 74.9976 L610.253 75.013 L605.394 75.0342 L600.76 75.0612 L596.307 75.0943 L591.922 75.1344 L587.593 75.1822 L583.384 75.2373 L579.28 75.2998 L575.268 75.3699 L571.339 75.4479 L567.486 75.5337 L563.703 75.6277 L559.911 75.7319 L556.111 75.847 L552.371 75.9714 L548.685 76.105 L545.05 76.2481 L541.464 76.4007 L537.924 76.563 L534.426 76.7351 L530.968 76.9172 L527.548 77.1094 L524.165 77.3116 L520.818 77.5241 L517.504 77.747 L514.224 77.9802 L510.974 78.2239 L507.755 78.4783 L504.503 78.7484 L501.219 79.0354 L497.964 79.3341 L494.738 79.6445 L491.539 79.9669 L488.367 80.3011 L485.221 80.6475 L482.101 81.0059 L479.005 81.3765 L475.933 81.7594 L472.885 82.1547 L469.859 82.5624 L466.856 82.9825 L463.876 83.4151 L460.916 83.8604 L457.978 84.3183 L455.06 84.7892 L452.161 85.273 L449.282 85.7696 L446.423 86.2792 L443.584 86.8018 L440.763 87.3374 L437.962 87.886 L435.18 88.4478 L432.415 89.0228 L429.669 89.611 L426.941 90.2124 L424.231 90.8272 L421.539 91.4553 L418.863 92.0969 L416.206 92.7519 L413.565 93.4203 L410.889 94.1158 L408.179 94.8395 L405.488 95.5778 L402.814 96.3309 L400.158 97.0988 L397.519 97.8815 L394.898 98.6791 L392.295 99.4915 L389.708 100.319 L387.139 101.161 L384.586 102.019 L382.051 102.891 L379.532 103.778 L377.03 104.681 L374.545 105.599 L372.076 106.531 L369.624 107.479 L367.188 108.443 L364.768 109.421 L362.365 110.415 L359.978 111.424 L357.607 112.448 L355.253 113.488 L352.914 114.543 L350.592 115.613 L348.285 116.699 L345.995 117.8 L343.721 118.916 L341.463 120.048 L339.22 121.196 L336.994 122.358 L334.783 123.537 L332.588 124.731 L330.407 125.941 L328.243 127.167 L326.094 128.408 L323.961 129.664 L321.844 130.937 L319.742 132.224 L317.656 133.528 L315.586 134.847 L313.532 136.181 L311.493 137.531 L309.471 138.897 L307.463 140.279 L305.472 141.676 L303.496 143.088 L301.536 144.516 L299.591 145.96 L297.663 147.42 L295.749 148.895 L293.852 150.386 L291.97 151.892 L290.104 153.414 L288.253 154.952 L286.418 156.505 L284.599 158.074 L282.795 159.659 L281.007 161.259 L279.235 162.875 L277.478 164.506 L275.737 166.153 L274.012 167.816 L272.302 169.495 L270.608 171.189 L268.929 172.899 L267.266 174.624 L265.619 176.365 L263.988 178.122 L262.372 179.894 L260.772 181.682 L259.187 183.486 L257.618 185.305 L256.065 187.14 L254.527 188.991 L253.005 190.857 L251.499 192.739 L250.008 194.636 L248.533 196.55 L247.073 198.478 L245.629 200.423 L244.201 202.383 L242.789 204.359 L241.392 206.35 L240.01 208.358 L238.644 210.38 L237.294 212.419 L235.96 214.473 L234.641 216.543 L233.337 218.629 L232.05 220.731 L230.777 222.848 L229.521 224.981 L228.28 227.13 L227.054 229.294 L225.844 231.475 L224.65 233.67 L223.471 235.881 L222.309 238.107 L221.161 240.35 L220.029 242.608 L218.913 244.882 L217.812 247.173 L216.726 249.479 L215.656 251.801 L214.601 254.14 L213.561 256.494 L212.537 258.865 L211.528 261.252 L210.534 263.655 L209.556 266.075 L208.592 268.511 L207.644 270.963 L206.712 273.432 L205.794 275.917 L204.891 278.419 L204.004 280.938 L203.132 283.473 L202.274 286.026 L201.432 288.595 L200.605 291.182 L199.792 293.785 L198.995 296.406 L198.212 299.045 L197.444 301.701 L196.691 304.375 L195.952 307.066 L195.229 309.776 L194.533 312.452 L193.865 315.093 L193.21 317.75 L192.568 320.426 L191.94 323.118 L191.325 325.828 L190.724 328.556 L190.136 331.302 L189.561 334.067 L188.999 336.849 L188.45 339.65 L187.915 342.471 L187.392 345.31 L186.883 348.169 L186.386 351.048 L185.902 353.947 L185.431 356.865 L184.973 359.803 L184.528 362.763 L184.095 365.743 L183.675 368.746 L183.268 371.772 L182.872 374.82 L182.489 377.892 L182.119 380.988 L181.76 384.108 L181.414 387.254 L181.08 390.426 L180.758 393.625 L180.447 396.851 L180.148 400.106 L179.861 403.39 L179.591 406.642 L179.337 409.861 L179.093 413.111 L178.86 416.391 L178.637 419.705 L178.425 423.052 L178.222 426.435 L178.03 429.855 L177.848 433.313 L177.676 436.811 L177.514 440.351 L177.361 443.937 L177.218 447.572 L177.084 451.258 L176.96 454.998 L176.845 458.798 L176.741 462.59 L176.647 466.373 L176.561 470.226 L176.483 474.155 L176.413 478.167 L176.35 482.271 L176.295 486.48 L176.247 490.809 L176.207 495.194 L176.174 499.647 L176.147 504.281 L176.126 509.14 L176.111 514.197 L176.1 519.535 L176.092 527.411 L176.092 547.053 L176.092 547.053  Z" fill="#0000ff" fill-rule="evenodd" fill-opacity="0.7"/>
<polyline clip-path="url(#clip632)" style="stroke:#000000; stroke-linecap:round; stroke-linejoin:round; stroke-width:4; stroke-opacity:0.7; fill:none" points="176.092,547.053 176.1,554.93 176.111,560.267 176.126,565.325 176.147,570.184 176.174,574.818 176.207,579.271 176.247,583.656 176.295,587.984 176.35,592.194 176.413,596.298 176.483,600.309 176.561,604.239 176.647,608.091 176.741,611.875 176.845,615.666 176.96,619.466 177.084,623.207 177.218,626.893 177.361,630.527 177.514,634.114 177.676,637.654 177.848,641.152 178.03,644.609 178.222,648.03 178.425,651.412 178.637,654.76 178.86,658.073 179.093,661.354 179.337,664.603 179.591,667.823 179.861,671.075 180.148,674.359 180.447,677.614 180.758,680.84 181.08,684.039 181.414,687.211 181.76,690.356 182.119,693.477 182.489,696.573 182.872,699.645 183.268,702.693 183.675,705.718 184.095,708.721 184.528,711.702 184.973,714.661 185.431,717.599 185.902,720.518 186.386,723.417 186.883,726.295 187.392,729.154 187.915,731.994 188.45,734.814 188.999,737.616 189.561,740.398 190.136,743.162 190.724,745.908 191.325,748.636 191.94,751.347 192.568,754.039 193.21,756.714 193.865,759.372 194.533,762.013 195.229,764.689 195.952,767.398 196.691,770.09 197.444,772.764 198.212,775.42 198.995,778.058 199.792,780.679 200.605,783.283 201.432,785.87 202.274,788.439 203.132,790.991 204.004,793.527 204.891,796.046 205.794,798.548 206.712,801.033 207.644,803.501 208.592,805.954 209.556,808.39 210.534,810.809 211.528,813.213 212.537,815.6 213.561,817.971 214.601,820.325 215.656,822.664 216.726,824.986 217.812,827.292 218.913,829.582 220.029,831.857 221.161,834.115 222.309,836.357 223.471,838.584 224.65,840.794 225.844,842.99 227.054,845.17 228.28,847.335 229.521,849.484 230.777,851.617 232.05,853.734 233.337,855.836 234.641,857.921 235.96,859.991 237.294,862.046 238.644,864.084 240.01,866.107 241.392,868.114 242.789,870.106 244.201,872.082 245.629,874.042 247.073,875.986 248.533,877.915 250.008,879.828 251.499,881.726 253.005,883.608 254.527,885.474 256.065,887.325 257.618,889.16 259.187,890.979 260.772,892.782 262.372,894.57 263.988,896.343 265.619,898.1 267.266,899.841 268.929,901.566 270.608,903.276 272.302,904.97 274.012,906.648 275.737,908.311 277.478,909.958 279.235,911.59 281.007,913.206 282.795,914.806 284.599,916.391 286.418,917.96 288.253,919.513 290.104,921.051 291.97,922.573 293.852,924.079 295.749,925.57 297.663,927.045 299.591,928.504 301.536,929.948 303.496,931.377 305.472,932.789 307.463,934.186 309.471,935.567 311.493,936.933 313.532,938.283 315.586,939.618 317.656,940.937 319.742,942.24 321.844,943.528 323.961,944.8 326.094,946.057 328.243,947.298 330.407,948.524 332.588,949.734 334.783,950.928 336.994,952.106 339.22,953.269 341.463,954.416 343.721,955.548 345.995,956.665 348.285,957.766 350.592,958.852 352.914,959.922 355.253,960.977 357.607,962.016 359.978,963.041 362.365,964.05 364.768,965.044 367.188,966.022 369.624,966.985 372.076,967.933 374.545,968.866 377.03,969.784 379.532,970.686 382.051,971.574 384.586,972.446 387.139,973.303 389.708,974.146 392.295,974.973 394.898,975.786 397.519,976.583 400.158,977.366 402.814,978.134 405.488,978.887 408.179,979.625 410.889,980.349 413.565,981.044 416.206,981.713 418.863,982.368 421.539,983.009 424.231,983.637 426.941,984.252 429.669,984.854 432.415,985.442 435.18,986.017 437.962,986.579 440.763,987.127 443.584,987.663 446.423,988.185 449.282,988.695 452.161,989.192 455.06,989.676 457.978,990.146 460.916,990.604 463.876,991.05 466.856,991.482 469.859,991.902 472.885,992.31 475.933,992.705 479.005,993.088 482.101,993.459 485.221,993.817 488.367,994.164 491.539,994.498 494.738,994.82 497.964,995.131 501.219,995.429 504.503,995.716 507.755,995.986 510.974,996.241 514.224,996.484 517.504,996.718 520.818,996.941 524.165,997.153 527.548,997.355 530.968,997.547 534.426,997.73 537.924,997.902 541.464,998.064 545.05,998.217 548.685,998.36 552.371,998.493 556.111,998.618 559.911,998.733 563.703,998.837 567.486,998.931 571.339,999.017 575.268,999.095 579.28,999.165 583.384,999.227 587.593,999.282 591.922,999.33 596.307,999.37 600.76,999.403 605.394,999.43 610.253,999.452 615.31,999.467 620.648,999.477 628.524,999.485 648.166,999.485 656.043,999.477 661.38,999.467 666.438,999.452 671.297,999.43 675.931,999.403 680.384,999.37 684.769,999.33 689.097,999.282 693.307,999.227 697.411,999.165 701.422,999.095 705.352,999.017 709.204,998.931 712.988,998.837 716.779,998.733 720.579,998.618 724.32,998.493 728.006,998.36 731.64,998.217 735.226,998.064 738.767,997.902 742.265,997.73 745.722,997.547 749.143,997.355 752.525,997.153 755.873,996.941 759.186,996.718 762.467,996.484 765.716,996.241 768.936,995.986 772.188,995.716 775.472,995.429 778.727,995.131 781.953,994.82 785.152,994.498 788.324,994.164 791.469,993.817 794.59,993.459 797.686,993.088 800.758,992.705 803.806,992.31 806.831,991.902 809.834,991.482 812.815,991.05 815.774,990.604 818.712,990.146 821.631,989.676 824.53,989.192 827.408,988.695 830.267,988.185 833.107,987.663 835.927,987.127 838.729,986.579 841.511,986.017 844.275,985.442 847.021,984.854 849.749,984.252 852.46,983.637 855.152,983.009 857.827,982.368 860.485,981.713 863.126,981.044 865.802,980.349 868.511,979.625 871.203,978.887 873.877,978.134 876.533,977.366 879.171,976.583 881.792,975.786 884.396,974.973 886.983,974.146 889.552,973.303 892.104,972.446 894.64,971.574 897.159,970.686 899.66,969.784 902.146,968.866 904.614,967.933 907.067,966.985 909.503,966.022 911.922,965.044 914.326,964.05 916.713,963.041 919.083,962.016 921.438,960.977 923.777,959.922 926.099,958.852 928.405,957.766 930.695,956.665 932.97,955.548 935.228,954.416 937.47,953.269 939.697,952.106 941.907,950.928 944.103,949.734 946.283,948.524 948.448,947.298 950.597,946.057 952.73,944.8 954.847,943.528 956.949,942.24 959.034,940.937 961.104,939.618 963.159,938.283 965.197,936.933 967.22,935.567 969.227,934.186 971.219,932.789 973.195,931.377 975.155,929.948 977.099,928.504 979.028,927.045 980.941,925.57 982.839,924.079 984.721,922.573 986.587,921.051 988.438,919.513 990.273,917.96 992.092,916.391 993.895,914.806 995.683,913.206 997.456,911.59 999.212,909.958 1000.95,908.311 1002.68,906.648 1004.39,904.97 1006.08,903.276 1007.76,901.566 1009.42,899.841 1011.07,898.1 1012.7,896.343 1014.32,894.57 1015.92,892.782 1017.5,890.979 1019.07,889.16 1020.63,887.325 1022.16,885.474 1023.69,883.608 1025.19,881.726 1026.68,879.828 1028.16,877.915 1029.62,875.986 1031.06,874.042 1032.49,872.082 1033.9,870.106 1035.3,868.114 1036.68,866.107 1038.05,864.084 1039.4,862.046 1040.73,859.991 1042.05,857.921 1043.35,855.836 1044.64,853.734 1045.91,851.617 1047.17,849.484 1048.41,847.335 1049.64,845.17 1050.85,842.99 1052.04,840.794 1053.22,838.584 1054.38,836.357 1055.53,834.115 1056.66,831.857 1057.78,829.582 1058.88,827.292 1059.96,824.986 1061.03,822.664 1062.09,820.325 1063.13,817.971 1064.15,815.6 1065.16,813.213 1066.16,810.809 1067.14,808.39 1068.1,805.954 1069.05,803.501 1069.98,801.033 1070.9,798.548 1071.8,796.046 1072.69,793.527 1073.56,790.991 1074.42,788.439 1075.26,785.87 1076.09,783.283 1076.9,780.679 1077.7,778.058 1078.48,775.42 1079.25,772.764 1080,770.09 1080.74,767.398 1081.46,764.689 1082.16,762.013 1082.83,759.372 1083.48,756.714 1084.12,754.039 1084.75,751.347 1085.37,748.636 1085.97,745.908 1086.55,743.162 1087.13,740.398 1087.69,737.616 1088.24,734.814 1088.78,731.994 1089.3,729.154 1089.81,726.295 1090.3,723.417 1090.79,720.518 1091.26,717.599 1091.72,714.661 1092.16,711.702 1092.6,708.721 1093.02,705.718 1093.42,702.693 1093.82,699.645 1094.2,696.573 1094.57,693.477 1094.93,690.356 1095.28,687.211 1095.61,684.039 1095.93,680.84 1096.24,677.614 1096.54,674.359 1096.83,671.075 1097.1,667.823 1097.35,664.603 1097.6,661.354 1097.83,658.073 1098.05,654.76 1098.27,651.412 1098.47,648.03 1098.66,644.609 1098.84,641.152 1099.01,637.654 1099.18,634.114 1099.33,630.527 1099.47,626.893 1099.61,623.207 1099.73,619.466 1099.85,615.666 1099.95,611.875 1100.04,608.091 1100.13,604.239 1100.21,600.309 1100.28,596.298 1100.34,592.194 1100.4,587.984 1100.44,583.656 1100.48,579.271 1100.52,574.818 1100.54,570.184 1100.56,565.325 1100.58,560.267 1100.59,554.93 1100.6,547.053 1100.6,527.411 1100.59,519.535 1100.58,514.197 1100.56,509.14 1100.54,504.281 1100.52,499.647 1100.48,495.194 1100.44,490.809 1100.4,486.48 1100.34,482.271 1100.28,478.167 1100.21,474.155 1100.13,470.226 1100.04,466.373 1099.95,462.59 1099.85,458.798 1099.73,454.998 1099.61,451.258 1099.47,447.572 1099.33,443.937 1099.18,440.351 1099.01,436.811 1098.84,433.313 1098.66,429.855 1098.47,426.435 1098.27,423.052 1098.05,419.705 1097.83,416.391 1097.6,413.111 1097.35,409.861 1097.1,406.642 1096.83,403.39 1096.54,400.106 1096.24,396.851 1095.93,393.625 1095.61,390.426 1095.28,387.254 1094.93,384.108 1094.57,380.988 1094.2,377.892 1093.82,374.82 1093.42,371.772 1093.02,368.746 1092.6,365.743 1092.16,362.763 1091.72,359.803 1091.26,356.865 1090.79,353.947 1090.3,351.048 1089.81,348.169 1089.3,345.31 1088.78,342.471 1088.24,339.65 1087.69,336.849 1087.13,334.067 1086.55,331.302 1085.97,328.556 1085.37,325.828 1084.75,323.118 1084.12,320.426 1083.48,317.75 1082.83,315.093 1082.16,312.452 1081.46,309.776 1080.74,307.066 1080,304.375 1079.25,301.701 1078.48,299.045 1077.7,296.406 1076.9,293.785 1076.09,291.182 1075.26,288.595 1074.42,286.026 1073.56,283.473 1072.69,280.938 1071.8,278.419 1070.9,275.917 1069.98,273.432 1069.05,270.963 1068.1,268.511 1067.14,266.075 1066.16,263.655 1065.16,261.252 1064.15,258.865 1063.13,256.494 1062.09,254.14 1061.03,251.801 1059.96,249.479 1058.88,247.173 1057.78,244.882 1056.66,242.608 1055.53,240.35 1054.38,238.107 1053.22,235.881 1052.04,233.67 1050.85,231.475 1049.64,229.294 1048.41,227.13 1047.17,224.981 1045.91,222.848 1044.64,220.731 1043.35,218.629 1042.05,216.543 1040.73,214.473 1039.4,212.419 1038.05,210.38 1036.68,208.358 1035.3,206.35 1033.9,204.359 1032.49,202.383 1031.06,200.423 1029.62,198.478 1028.16,196.55 1026.68,194.636 1025.19,192.739 1023.69,190.857 1022.16,188.991 1020.63,187.14 1019.07,185.305 1017.5,183.486 1015.92,181.682 1014.32,179.894 1012.7,178.122 1011.07,176.365 1009.42,174.624 1007.76,172.899 1006.08,171.189 1004.39,169.495 1002.68,167.816 1000.95,166.153 999.212,164.506 997.456,162.875 995.683,161.259 993.895,159.659 992.092,158.074 990.273,156.505 988.438,154.952 986.587,153.414 984.721,151.892 982.839,150.386 980.941,148.895 979.028,147.42 977.099,145.96 975.155,144.516 973.195,143.088 971.219,141.676 969.227,140.279 967.22,138.897 965.197,137.531 963.159,136.181 961.104,134.847 959.034,133.528 956.949,132.224 954.847,130.937 952.73,129.664 950.597,128.408 948.448,127.167 946.283,125.941 944.103,124.731 941.907,123.537 939.697,122.358 937.47,121.196 935.228,120.048 932.97,118.916 930.695,117.8 928.405,116.699 926.099,115.613 923.777,114.543 921.438,113.488 919.083,112.448 916.713,111.424 914.326,110.415 911.922,109.421 909.503,108.443 907.067,107.479 904.614,106.531 902.146,105.599 899.66,104.681 897.159,103.778 894.64,102.891 892.104,102.019 889.552,101.161 886.983,100.319 884.396,99.4915 881.792,98.6791 879.171,97.8815 876.533,97.0988 873.877,96.3309 871.203,95.5778 868.511,94.8395 865.802,94.1158 863.126,93.4203 860.485,92.7519 857.827,92.0969 855.152,91.4553 852.46,90.8272 849.749,90.2124 847.021,89.611 844.275,89.0228 841.511,88.4478 838.729,87.886 835.927,87.3374 833.107,86.8018 830.267,86.2792 827.408,85.7696 824.53,85.273 821.631,84.7892 818.712,84.3183 815.774,83.8604 812.815,83.4151 809.834,82.9825 806.831,82.5624 803.806,82.1547 800.758,81.7594 797.686,81.3765 794.59,81.0059 791.469,80.6475 788.324,80.3011 785.152,79.9669 781.953,79.6445 778.727,79.3341 775.472,79.0354 772.188,78.7484 768.936,78.4783 765.716,78.2239 762.467,77.9802 759.186,77.747 755.873,77.5241 752.525,77.3116 749.143,77.1094 745.722,76.9172 742.265,76.7351 738.767,76.563 735.226,76.4007 731.64,76.2481 728.006,76.105 724.32,75.9714 720.579,75.847 716.779,75.7319 712.988,75.6277 709.204,75.5337 705.352,75.4479 701.422,75.3699 697.411,75.2998 693.307,75.2373 689.097,75.1822 684.769,75.1344 680.384,75.0943 675.931,75.0612 671.297,75.0342 666.438,75.013 661.38,74.9976 656.043,74.9873 648.166,74.9793 628.524,74.9793 620.648,74.9873 615.31,74.9976 610.253,75.013 605.394,75.0342 600.76,75.0612 596.307,75.0943 591.922,75.1344 587.593,75.1822 583.384,75.2373 579.28,75.2998 575.268,75.3699 571.339,75.4479 567.486,75.5337 563.703,75.6277 559.911,75.7319 556.111,75.847 552.371,75.9714 548.685,76.105 545.05,76.2481 541.464,76.4007 537.924,76.563 534.426,76.7351 530.968,76.9172 527.548,77.1094 524.165,77.3116 520.818,77.5241 517.504,77.747 514.224,77.9802 510.974,78.2239 507.755,78.4783 504.503,78.7484 501.219,79.0354 497.964,79.3341 494.738,79.6445 491.539,79.9669 488.367,80.3011 485.221,80.6475 482.101,81.0059 479.005,81.3765 475.933,81.7594 472.885,82.1547 469.859,82.5624 466.856,82.9825 463.876,83.4151 460.916,83.8604 457.978,84.3183 455.06,84.7892 452.161,85.273 449.282,85.7696 446.423,86.2792 443.584,86.8018 440.763,87.3374 437.962,87.886 435.18,88.4478 432.415,89.0228 429.669,89.611 426.941,90.2124 424.231,90.8272 421.539,91.4553 418.863,92.0969 416.206,92.7519 413.565,93.4203 410.889,94.1158 408.179,94.8395 405.488,95.5778 402.814,96.3309 400.158,97.0988 397.519,97.8815 394.898,98.6791 392.295,99.4915 389.708,100.319 387.139,101.161 384.586,102.019 382.051,102.891 379.532,103.778 377.03,104.681 374.545,105.599 372.076,106.531 369.624,107.479 367.188,108.443 364.768,109.421 362.365,110.415 359.978,111.424 357.607,112.448 355.253,113.488 352.914,114.543 350.592,115.613 348.285,116.699 345.995,117.8 343.721,118.916 341.463,120.048 339.22,121.196 336.994,122.358 334.783,123.537 332.588,124.731 330.407,125.941 328.243,127.167 326.094,128.408 323.961,129.664 321.844,130.937 319.742,132.224 317.656,133.528 315.586,134.847 313.532,136.181 311.493,137.531 309.471,138.897 307.463,140.279 305.472,141.676 303.496,143.088 301.536,144.516 299.591,145.96 297.663,147.42 295.749,148.895 293.852,150.386 291.97,151.892 290.104,153.414 288.253,154.952 286.418,156.505 284.599,158.074 282.795,159.659 281.007,161.259 279.235,162.875 277.478,164.506 275.737,166.153 274.012,167.816 272.302,169.495 270.608,171.189 268.929,172.899 267.266,174.624 265.619,176.365 263.988,178.122 262.372,179.894 260.772,181.682 259.187,183.486 257.618,185.305 256.065,187.14 254.527,188.991 253.005,190.857 251.499,192.739 250.008,194.636 248.533,196.55 247.073,198.478 245.629,200.423 244.201,202.383 242.789,204.359 241.392,206.35 240.01,208.358 238.644,210.38 237.294,212.419 235.96,214.473 234.641,216.543 233.337,218.629 232.05,220.731 230.777,222.848 229.521,224.981 228.28,227.13 227.054,229.294 225.844,231.475 224.65,233.67 223.471,235.881 222.309,238.107 221.161,240.35 220.029,242.608 218.913,244.882 217.812,247.173 216.726,249.479 215.656,251.801 214.601,254.14 213.561,256.494 212.537,258.865 211.528,261.252 210.534,263.655 209.556,266.075 208.592,268.511 207.644,270.963 206.712,273.432 205.794,275.917 204.891,278.419 204.004,280.938 203.132,283.473 202.274,286.026 201.432,288.595 200.605,291.182 199.792,293.785 198.995,296.406 198.212,299.045 197.444,301.701 196.691,304.375 195.952,307.066 195.229,309.776 194.533,312.452 193.865,315.093 193.21,317.75 192.568,320.426 191.94,323.118 191.325,325.828 190.724,328.556 190.136,331.302 189.561,334.067 188.999,336.849 188.45,339.65 187.915,342.471 187.392,345.31 186.883,348.169 186.386,351.048 185.902,353.947 185.431,356.865 184.973,359.803 184.528,362.763 184.095,365.743 183.675,368.746 183.268,371.772 182.872,374.82 182.489,377.892 182.119,380.988 181.76,384.108 181.414,387.254 181.08,390.426 180.758,393.625 180.447,396.851 180.148,400.106 179.861,403.39 179.591,406.642 179.337,409.861 179.093,413.111 178.86,416.391 178.637,419.705 178.425,423.052 178.222,426.435 178.03,429.855 177.848,433.313 177.676,436.811 177.514,440.351 177.361,443.937 177.218,447.572 177.084,451.258 176.96,454.998 176.845,458.798 176.741,462.59 176.647,466.373 176.561,470.226 176.483,474.155 176.413,478.167 176.35,482.271 176.295,486.48 176.247,490.809 176.207,495.194 176.174,499.647 176.147,504.281 176.126,509.14 176.111,514.197 176.1,519.535 176.092,527.411 176.092,547.053 "/>
</svg>
