<?xml version="1.0" encoding="utf-8"?>
<svg xmlns="http://www.w3.org/2000/svg" xmlns:xlink="http://www.w3.org/1999/xlink" width="600" height="400" viewBox="0 0 2400 1600">
<defs>
  <clipPath id="clip530">
    <rect x="0" y="0" width="2400" height="1600"/>
  </clipPath>
</defs>
<path clip-path="url(#clip530)" d="M0 1600 L2400 1600 L2400 0 L0 0  Z" fill="#ffffff" fill-rule="evenodd" fill-opacity="1"/>
<defs>
  <clipPath id="clip531">
    <rect x="480" y="0" width="1681" height="1600"/>
  </clipPath>
</defs>
<path clip-path="url(#clip530)" d="M193.936 1486.45 L2352.76 1486.45 L2352.76 47.2441 L193.936 47.2441  Z" fill="#ffffff" fill-rule="evenodd" fill-opacity="1"/>
<defs>
  <clipPath id="clip532">
    <rect x="193" y="47" width="2160" height="1440"/>
  </clipPath>
</defs>
<polyline clip-path="url(#clip532)" style="stroke:#000000; stroke-linecap:round; stroke-linejoin:round; stroke-width:2; stroke-opacity:0.1; fill:none" points="543.21,1486.45 543.21,47.2441 "/>
<polyline clip-path="url(#clip532)" style="stroke:#000000; stroke-linecap:round; stroke-linejoin:round; stroke-width:2; stroke-opacity:0.1; fill:none" points="1004.83,1486.45 1004.83,47.2441 "/>
<polyline clip-path="url(#clip532)" style="stroke:#000000; stroke-linecap:round; stroke-linejoin:round; stroke-width:2; stroke-opacity:0.1; fill:none" points="1466.45,1486.45 1466.45,47.2441 "/>
<polyline clip-path="url(#clip532)" style="stroke:#000000; stroke-linecap:round; stroke-linejoin:round; stroke-width:2; stroke-opacity:0.1; fill:none" points="1928.07,1486.45 1928.07,47.2441 "/>
<polyline clip-path="url(#clip532)" style="stroke:#000000; stroke-linecap:round; stroke-linejoin:round; stroke-width:2; stroke-opacity:0.1; fill:none" points="193.936,1279.65 2352.76,1279.65 "/>
<polyline clip-path="url(#clip532)" style="stroke:#000000; stroke-linecap:round; stroke-linejoin:round; stroke-width:2; stroke-opacity:0.1; fill:none" points="193.936,1061.66 2352.76,1061.66 "/>
<polyline clip-path="url(#clip532)" style="stroke:#000000; stroke-linecap:round; stroke-linejoin:round; stroke-width:2; stroke-opacity:0.1; fill:none" points="193.936,843.662 2352.76,843.662 "/>
<polyline clip-path="url(#clip532)" style="stroke:#000000; stroke-linecap:round; stroke-linejoin:round; stroke-width:2; stroke-opacity:0.1; fill:none" points="193.936,625.669 2352.76,625.669 "/>
<polyline clip-path="url(#clip532)" style="stroke:#000000; stroke-linecap:round; stroke-linejoin:round; stroke-width:2; stroke-opacity:0.1; fill:none" points="193.936,407.677 2352.76,407.677 "/>
<polyline clip-path="url(#clip532)" style="stroke:#000000; stroke-linecap:round; stroke-linejoin:round; stroke-width:2; stroke-opacity:0.1; fill:none" points="193.936,189.684 2352.76,189.684 "/>
<polyline clip-path="url(#clip530)" style="stroke:#000000; stroke-linecap:round; stroke-linejoin:round; stroke-width:4; stroke-opacity:1; fill:none" points="193.936,1486.45 2352.76,1486.45 "/>
<polyline clip-path="url(#clip530)" style="stroke:#000000; stroke-linecap:round; stroke-linejoin:round; stroke-width:4; stroke-opacity:1; fill:none" points="543.21,1486.45 543.21,1467.55 "/>
<polyline clip-path="url(#clip530)" style="stroke:#000000; stroke-linecap:round; stroke-linejoin:round; stroke-width:4; stroke-opacity:1; fill:none" points="1004.83,1486.45 1004.83,1467.55 "/>
<polyline clip-path="url(#clip530)" style="stroke:#000000; stroke-linecap:round; stroke-linejoin:round; stroke-width:4; stroke-opacity:1; fill:none" points="1466.45,1486.45 1466.45,1467.55 "/>
<polyline clip-path="url(#clip530)" style="stroke:#000000; stroke-linecap:round; stroke-linejoin:round; stroke-width:4; stroke-opacity:1; fill:none" points="1928.07,1486.45 1928.07,1467.55 "/>
<path clip-path="url(#clip530)" d="M513.153 1532.02 L542.828 1532.02 L542.828 1535.95 L513.153 1535.95 L513.153 1532.02 Z" fill="#000000" fill-rule="nonzero" fill-opacity="1" /><path clip-path="url(#clip530)" d="M556.949 1544.91 L573.268 1544.91 L573.268 1548.85 L551.324 1548.85 L551.324 1544.91 Q553.986 1542.16 558.569 1537.53 Q563.176 1532.88 564.356 1531.53 Q566.601 1529.01 567.481 1527.27 Q568.384 1525.51 568.384 1523.82 Q568.384 1521.07 566.439 1519.33 Q564.518 1517.6 561.416 1517.6 Q559.217 1517.6 556.764 1518.36 Q554.333 1519.13 551.555 1520.68 L551.555 1515.95 Q554.379 1514.82 556.833 1514.24 Q559.287 1513.66 561.324 1513.66 Q566.694 1513.66 569.889 1516.35 Q573.083 1519.03 573.083 1523.52 Q573.083 1525.65 572.273 1527.57 Q571.486 1529.47 569.379 1532.07 Q568.801 1532.74 565.699 1535.95 Q562.597 1539.15 556.949 1544.91 Z" fill="#000000" fill-rule="nonzero" fill-opacity="1" /><path clip-path="url(#clip530)" d="M974.589 1532.02 L1004.26 1532.02 L1004.26 1535.95 L974.589 1535.95 L974.589 1532.02 Z" fill="#000000" fill-rule="nonzero" fill-opacity="1" /><path clip-path="url(#clip530)" d="M1015.17 1544.91 L1022.81 1544.91 L1022.81 1518.55 L1014.5 1520.21 L1014.5 1515.95 L1022.76 1514.29 L1027.44 1514.29 L1027.44 1544.91 L1035.07 1544.91 L1035.07 1548.85 L1015.17 1548.85 L1015.17 1544.91 Z" fill="#000000" fill-rule="nonzero" fill-opacity="1" /><path clip-path="url(#clip530)" d="M1466.45 1517.37 Q1462.84 1517.37 1461.01 1520.93 Q1459.21 1524.47 1459.21 1531.6 Q1459.21 1538.71 1461.01 1542.27 Q1462.84 1545.82 1466.45 1545.82 Q1470.09 1545.82 1471.89 1542.27 Q1473.72 1538.71 1473.72 1531.6 Q1473.72 1524.47 1471.89 1520.93 Q1470.09 1517.37 1466.45 1517.37 M1466.45 1513.66 Q1472.26 1513.66 1475.32 1518.27 Q1478.4 1522.85 1478.4 1531.6 Q1478.4 1540.33 1475.32 1544.94 Q1472.26 1549.52 1466.45 1549.52 Q1460.64 1549.52 1457.56 1544.94 Q1454.51 1540.33 1454.51 1531.6 Q1454.51 1522.85 1457.56 1518.27 Q1460.64 1513.66 1466.45 1513.66 Z" fill="#000000" fill-rule="nonzero" fill-opacity="1" /><path clip-path="url(#clip530)" d="M1918.46 1544.91 L1926.09 1544.91 L1926.09 1518.55 L1917.78 1520.21 L1917.78 1515.95 L1926.05 1514.29 L1930.72 1514.29 L1930.72 1544.91 L1938.36 1544.91 L1938.36 1548.85 L1918.46 1548.85 L1918.46 1544.91 Z" fill="#000000" fill-rule="nonzero" fill-opacity="1" /><polyline clip-path="url(#clip530)" style="stroke:#000000; stroke-linecap:round; stroke-linejoin:round; stroke-width:4; stroke-opacity:1; fill:none" points="193.936,1486.45 193.936,47.2441 "/>
<polyline clip-path="url(#clip530)" style="stroke:#000000; stroke-linecap:round; stroke-linejoin:round; stroke-width:4; stroke-opacity:1; fill:none" points="193.936,1279.65 212.834,1279.65 "/>
<polyline clip-path="url(#clip530)" style="stroke:#000000; stroke-linecap:round; stroke-linejoin:round; stroke-width:4; stroke-opacity:1; fill:none" points="193.936,1061.66 212.834,1061.66 "/>
<polyline clip-path="url(#clip530)" style="stroke:#000000; stroke-linecap:round; stroke-linejoin:round; stroke-width:4; stroke-opacity:1; fill:none" points="193.936,843.662 212.834,843.662 "/>
<polyline clip-path="url(#clip530)" style="stroke:#000000; stroke-linecap:round; stroke-linejoin:round; stroke-width:4; stroke-opacity:1; fill:none" points="193.936,625.669 212.834,625.669 "/>
<polyline clip-path="url(#clip530)" style="stroke:#000000; stroke-linecap:round; stroke-linejoin:round; stroke-width:4; stroke-opacity:1; fill:none" points="193.936,407.677 212.834,407.677 "/>
<polyline clip-path="url(#clip530)" style="stroke:#000000; stroke-linecap:round; stroke-linejoin:round; stroke-width:4; stroke-opacity:1; fill:none" points="193.936,189.684 212.834,189.684 "/>
<path clip-path="url(#clip530)" d="M50.9921 1280.1 L80.6679 1280.1 L80.6679 1284.03 L50.9921 1284.03 L50.9921 1280.1 Z" fill="#000000" fill-rule="nonzero" fill-opacity="1" /><path clip-path="url(#clip530)" d="M91.5706 1292.99 L99.2095 1292.99 L99.2095 1266.63 L90.8993 1268.29 L90.8993 1264.03 L99.1632 1262.37 L103.839 1262.37 L103.839 1292.99 L111.478 1292.99 L111.478 1296.93 L91.5706 1296.93 L91.5706 1292.99 Z" fill="#000000" fill-rule="nonzero" fill-opacity="1" /><path clip-path="url(#clip530)" d="M120.922 1291.05 L125.807 1291.05 L125.807 1296.93 L120.922 1296.93 L120.922 1291.05 Z" fill="#000000" fill-rule="nonzero" fill-opacity="1" /><path clip-path="url(#clip530)" d="M145.992 1265.45 Q142.381 1265.45 140.552 1269.01 Q138.746 1272.55 138.746 1279.68 Q138.746 1286.79 140.552 1290.35 Q142.381 1293.9 145.992 1293.9 Q149.626 1293.9 151.431 1290.35 Q153.26 1286.79 153.26 1279.68 Q153.26 1272.55 151.431 1269.01 Q149.626 1265.45 145.992 1265.45 M145.992 1261.74 Q151.802 1261.74 154.857 1266.35 Q157.936 1270.93 157.936 1279.68 Q157.936 1288.41 154.857 1293.02 Q151.802 1297.6 145.992 1297.6 Q140.181 1297.6 137.103 1293.02 Q134.047 1288.41 134.047 1279.68 Q134.047 1270.93 137.103 1266.35 Q140.181 1261.74 145.992 1261.74 Z" fill="#000000" fill-rule="nonzero" fill-opacity="1" /><path clip-path="url(#clip530)" d="M51.9875 1062.11 L81.6633 1062.11 L81.6633 1066.04 L51.9875 1066.04 L51.9875 1062.11 Z" fill="#000000" fill-rule="nonzero" fill-opacity="1" /><path clip-path="url(#clip530)" d="M101.756 1047.45 Q98.1447 1047.45 96.316 1051.02 Q94.5104 1054.56 94.5104 1061.69 Q94.5104 1068.8 96.316 1072.36 Q98.1447 1075.9 101.756 1075.9 Q105.39 1075.9 107.196 1072.36 Q109.024 1068.8 109.024 1061.69 Q109.024 1054.56 107.196 1051.02 Q105.39 1047.45 101.756 1047.45 M101.756 1043.75 Q107.566 1043.75 110.621 1048.36 Q113.7 1052.94 113.7 1061.69 Q113.7 1070.42 110.621 1075.02 Q107.566 1079.61 101.756 1079.61 Q95.9456 1079.61 92.8669 1075.02 Q89.8114 1070.42 89.8114 1061.69 Q89.8114 1052.94 92.8669 1048.36 Q95.9456 1043.75 101.756 1043.75 Z" fill="#000000" fill-rule="nonzero" fill-opacity="1" /><path clip-path="url(#clip530)" d="M121.918 1073.06 L126.802 1073.06 L126.802 1078.94 L121.918 1078.94 L121.918 1073.06 Z" fill="#000000" fill-rule="nonzero" fill-opacity="1" /><path clip-path="url(#clip530)" d="M137.033 1044.38 L155.39 1044.38 L155.39 1048.31 L141.316 1048.31 L141.316 1056.78 Q142.334 1056.44 143.353 1056.27 Q144.371 1056.09 145.39 1056.09 Q151.177 1056.09 154.556 1059.26 Q157.936 1062.43 157.936 1067.85 Q157.936 1073.43 154.464 1076.53 Q150.992 1079.61 144.672 1079.61 Q142.496 1079.61 140.228 1079.24 Q137.982 1078.87 135.575 1078.13 L135.575 1073.43 Q137.658 1074.56 139.881 1075.12 Q142.103 1075.67 144.58 1075.67 Q148.584 1075.67 150.922 1073.56 Q153.26 1071.46 153.26 1067.85 Q153.26 1064.24 150.922 1062.13 Q148.584 1060.02 144.58 1060.02 Q142.705 1060.02 140.83 1060.44 Q138.978 1060.86 137.033 1061.74 L137.033 1044.38 Z" fill="#000000" fill-rule="nonzero" fill-opacity="1" /><path clip-path="url(#clip530)" d="M100.76 829.461 Q97.1493 829.461 95.3206 833.026 Q93.515 836.567 93.515 843.697 Q93.515 850.803 95.3206 854.368 Q97.1493 857.91 100.76 857.91 Q104.395 857.91 106.2 854.368 Q108.029 850.803 108.029 843.697 Q108.029 836.567 106.2 833.026 Q104.395 829.461 100.76 829.461 M100.76 825.757 Q106.571 825.757 109.626 830.364 Q112.705 834.947 112.705 843.697 Q112.705 852.424 109.626 857.03 Q106.571 861.614 100.76 861.614 Q94.9502 861.614 91.8715 857.03 Q88.816 852.424 88.816 843.697 Q88.816 834.947 91.8715 830.364 Q94.9502 825.757 100.76 825.757 Z" fill="#000000" fill-rule="nonzero" fill-opacity="1" /><path clip-path="url(#clip530)" d="M120.922 855.063 L125.807 855.063 L125.807 860.942 L120.922 860.942 L120.922 855.063 Z" fill="#000000" fill-rule="nonzero" fill-opacity="1" /><path clip-path="url(#clip530)" d="M145.992 829.461 Q142.381 829.461 140.552 833.026 Q138.746 836.567 138.746 843.697 Q138.746 850.803 140.552 854.368 Q142.381 857.91 145.992 857.91 Q149.626 857.91 151.431 854.368 Q153.26 850.803 153.26 843.697 Q153.26 836.567 151.431 833.026 Q149.626 829.461 145.992 829.461 M145.992 825.757 Q151.802 825.757 154.857 830.364 Q157.936 834.947 157.936 843.697 Q157.936 852.424 154.857 857.03 Q151.802 861.614 145.992 861.614 Q140.181 861.614 137.103 857.03 Q134.047 852.424 134.047 843.697 Q134.047 834.947 137.103 830.364 Q140.181 825.757 145.992 825.757 Z" fill="#000000" fill-rule="nonzero" fill-opacity="1" /><path clip-path="url(#clip530)" d="M101.756 611.468 Q98.1447 611.468 96.316 615.033 Q94.5104 618.575 94.5104 625.704 Q94.5104 632.811 96.316 636.375 Q98.1447 639.917 101.756 639.917 Q105.39 639.917 107.196 636.375 Q109.024 632.811 109.024 625.704 Q109.024 618.575 107.196 615.033 Q105.39 611.468 101.756 611.468 M101.756 607.764 Q107.566 607.764 110.621 612.371 Q113.7 616.954 113.7 625.704 Q113.7 634.431 110.621 639.037 Q107.566 643.621 101.756 643.621 Q95.9456 643.621 92.8669 639.037 Q89.8114 634.431 89.8114 625.704 Q89.8114 616.954 92.8669 612.371 Q95.9456 607.764 101.756 607.764 Z" fill="#000000" fill-rule="nonzero" fill-opacity="1" /><path clip-path="url(#clip530)" d="M121.918 637.07 L126.802 637.07 L126.802 642.949 L121.918 642.949 L121.918 637.07 Z" fill="#000000" fill-rule="nonzero" fill-opacity="1" /><path clip-path="url(#clip530)" d="M137.033 608.389 L155.39 608.389 L155.39 612.325 L141.316 612.325 L141.316 620.797 Q142.334 620.45 143.353 620.288 Q144.371 620.102 145.39 620.102 Q151.177 620.102 154.556 623.274 Q157.936 626.445 157.936 631.862 Q157.936 637.44 154.464 640.542 Q150.992 643.621 144.672 643.621 Q142.496 643.621 140.228 643.25 Q137.982 642.88 135.575 642.139 L135.575 637.44 Q137.658 638.574 139.881 639.13 Q142.103 639.686 144.58 639.686 Q148.584 639.686 150.922 637.579 Q153.26 635.473 153.26 631.862 Q153.26 628.25 150.922 626.144 Q148.584 624.037 144.58 624.037 Q142.705 624.037 140.83 624.454 Q138.978 624.871 137.033 625.75 L137.033 608.389 Z" fill="#000000" fill-rule="nonzero" fill-opacity="1" /><path clip-path="url(#clip530)" d="M91.5706 421.021 L99.2095 421.021 L99.2095 394.656 L90.8993 396.322 L90.8993 392.063 L99.1632 390.397 L103.839 390.397 L103.839 421.021 L111.478 421.021 L111.478 424.957 L91.5706 424.957 L91.5706 421.021 Z" fill="#000000" fill-rule="nonzero" fill-opacity="1" /><path clip-path="url(#clip530)" d="M120.922 419.077 L125.807 419.077 L125.807 424.957 L120.922 424.957 L120.922 419.077 Z" fill="#000000" fill-rule="nonzero" fill-opacity="1" /><path clip-path="url(#clip530)" d="M145.992 393.475 Q142.381 393.475 140.552 397.04 Q138.746 400.582 138.746 407.711 Q138.746 414.818 140.552 418.382 Q142.381 421.924 145.992 421.924 Q149.626 421.924 151.431 418.382 Q153.26 414.818 153.26 407.711 Q153.26 400.582 151.431 397.04 Q149.626 393.475 145.992 393.475 M145.992 389.772 Q151.802 389.772 154.857 394.378 Q157.936 398.961 157.936 407.711 Q157.936 416.438 154.857 421.045 Q151.802 425.628 145.992 425.628 Q140.181 425.628 137.103 421.045 Q134.047 416.438 134.047 407.711 Q134.047 398.961 137.103 394.378 Q140.181 389.772 145.992 389.772 Z" fill="#000000" fill-rule="nonzero" fill-opacity="1" /><path clip-path="url(#clip530)" d="M92.566 203.028 L100.205 203.028 L100.205 176.663 L91.8947 178.33 L91.8947 174.07 L100.159 172.404 L104.834 172.404 L104.834 203.028 L112.473 203.028 L112.473 206.964 L92.566 206.964 L92.566 203.028 Z" fill="#000000" fill-rule="nonzero" fill-opacity="1" /><path clip-path="url(#clip530)" d="M121.918 201.084 L126.802 201.084 L126.802 206.964 L121.918 206.964 L121.918 201.084 Z" fill="#000000" fill-rule="nonzero" fill-opacity="1" /><path clip-path="url(#clip530)" d="M137.033 172.404 L155.39 172.404 L155.39 176.339 L141.316 176.339 L141.316 184.811 Q142.334 184.464 143.353 184.302 Q144.371 184.117 145.39 184.117 Q151.177 184.117 154.556 187.288 Q157.936 190.459 157.936 195.876 Q157.936 201.454 154.464 204.556 Q150.992 207.635 144.672 207.635 Q142.496 207.635 140.228 207.265 Q137.982 206.894 135.575 206.153 L135.575 201.454 Q137.658 202.589 139.881 203.144 Q142.103 203.7 144.58 203.7 Q148.584 203.7 150.922 201.593 Q153.26 199.487 153.26 195.876 Q153.26 192.265 150.922 190.158 Q148.584 188.052 144.58 188.052 Q142.705 188.052 140.83 188.468 Q138.978 188.885 137.033 189.765 L137.033 172.404 Z" fill="#000000" fill-rule="nonzero" fill-opacity="1" /><circle clip-path="url(#clip532)" cx="1246.46" cy="662.765" r="14.4" fill="#009af9" fill-rule="evenodd" fill-opacity="0.5" stroke="#000000" stroke-opacity="0.5" stroke-width="3.2"/>
<circle clip-path="url(#clip532)" cx="2125.68" cy="1039.11" r="14.4" fill="#009af9" fill-rule="evenodd" fill-opacity="0.5" stroke="#000000" stroke-opacity="0.5" stroke-width="3.2"/>
<circle clip-path="url(#clip532)" cx="905.683" cy="520.638" r="14.4" fill="#009af9" fill-rule="evenodd" fill-opacity="0.5" stroke="#000000" stroke-opacity="0.5" stroke-width="3.2"/>
<circle clip-path="url(#clip532)" cx="1102.8" cy="1056.33" r="14.4" fill="#009af9" fill-rule="evenodd" fill-opacity="0.5" stroke="#000000" stroke-opacity="0.5" stroke-width="3.2"/>
<circle clip-path="url(#clip532)" cx="1261.31" cy="1388.2" r="14.4" fill="#009af9" fill-rule="evenodd" fill-opacity="0.5" stroke="#000000" stroke-opacity="0.5" stroke-width="3.2"/>
<circle clip-path="url(#clip532)" cx="1129" cy="1123.49" r="14.4" fill="#009af9" fill-rule="evenodd" fill-opacity="0.5" stroke="#000000" stroke-opacity="0.5" stroke-width="3.2"/>
<circle clip-path="url(#clip532)" cx="2291.66" cy="954.268" r="14.4" fill="#009af9" fill-rule="evenodd" fill-opacity="0.5" stroke="#000000" stroke-opacity="0.5" stroke-width="3.2"/>
<circle clip-path="url(#clip532)" cx="1545.85" cy="1394.59" r="14.4" fill="#009af9" fill-rule="evenodd" fill-opacity="0.5" stroke="#000000" stroke-opacity="0.5" stroke-width="3.2"/>
<circle clip-path="url(#clip532)" cx="629.946" cy="721.457" r="14.4" fill="#009af9" fill-rule="evenodd" fill-opacity="0.5" stroke="#000000" stroke-opacity="0.5" stroke-width="3.2"/>
<circle clip-path="url(#clip532)" cx="1715.32" cy="474.25" r="14.4" fill="#009af9" fill-rule="evenodd" fill-opacity="0.5" stroke="#000000" stroke-opacity="0.5" stroke-width="3.2"/>
<circle clip-path="url(#clip532)" cx="1672.21" cy="303.504" r="14.4" fill="#009af9" fill-rule="evenodd" fill-opacity="0.5" stroke="#000000" stroke-opacity="0.5" stroke-width="3.2"/>
<circle clip-path="url(#clip532)" cx="1268.17" cy="858.465" r="14.4" fill="#009af9" fill-rule="evenodd" fill-opacity="0.5" stroke="#000000" stroke-opacity="0.5" stroke-width="3.2"/>
<circle clip-path="url(#clip532)" cx="1800.37" cy="480.558" r="14.4" fill="#009af9" fill-rule="evenodd" fill-opacity="0.5" stroke="#000000" stroke-opacity="0.5" stroke-width="3.2"/>
<circle clip-path="url(#clip532)" cx="1624.47" cy="830.46" r="14.4" fill="#009af9" fill-rule="evenodd" fill-opacity="0.5" stroke="#000000" stroke-opacity="0.5" stroke-width="3.2"/>
<circle clip-path="url(#clip532)" cx="1845.92" cy="1022.26" r="14.4" fill="#009af9" fill-rule="evenodd" fill-opacity="0.5" stroke="#000000" stroke-opacity="0.5" stroke-width="3.2"/>
<circle clip-path="url(#clip532)" cx="1700" cy="1445.72" r="14.4" fill="#009af9" fill-rule="evenodd" fill-opacity="0.5" stroke="#000000" stroke-opacity="0.5" stroke-width="3.2"/>
<circle clip-path="url(#clip532)" cx="1290.58" cy="869.384" r="14.4" fill="#009af9" fill-rule="evenodd" fill-opacity="0.5" stroke="#000000" stroke-opacity="0.5" stroke-width="3.2"/>
<circle clip-path="url(#clip532)" cx="1658.39" cy="1105.56" r="14.4" fill="#009af9" fill-rule="evenodd" fill-opacity="0.5" stroke="#000000" stroke-opacity="0.5" stroke-width="3.2"/>
<circle clip-path="url(#clip532)" cx="1344.16" cy="1115.6" r="14.4" fill="#009af9" fill-rule="evenodd" fill-opacity="0.5" stroke="#000000" stroke-opacity="0.5" stroke-width="3.2"/>
<circle clip-path="url(#clip532)" cx="1604.5" cy="493.509" r="14.4" fill="#009af9" fill-rule="evenodd" fill-opacity="0.5" stroke="#000000" stroke-opacity="0.5" stroke-width="3.2"/>
<circle clip-path="url(#clip532)" cx="1450.3" cy="593.533" r="14.4" fill="#009af9" fill-rule="evenodd" fill-opacity="0.5" stroke="#000000" stroke-opacity="0.5" stroke-width="3.2"/>
<circle clip-path="url(#clip532)" cx="1293.46" cy="286.597" r="14.4" fill="#009af9" fill-rule="evenodd" fill-opacity="0.5" stroke="#000000" stroke-opacity="0.5" stroke-width="3.2"/>
<circle clip-path="url(#clip532)" cx="258.981" cy="535.146" r="14.4" fill="#009af9" fill-rule="evenodd" fill-opacity="0.5" stroke="#000000" stroke-opacity="0.5" stroke-width="3.2"/>
<circle clip-path="url(#clip532)" cx="255.035" cy="841.444" r="14.4" fill="#009af9" fill-rule="evenodd" fill-opacity="0.5" stroke="#000000" stroke-opacity="0.5" stroke-width="3.2"/>
<circle clip-path="url(#clip532)" cx="1411.06" cy="1111.65" r="14.4" fill="#009af9" fill-rule="evenodd" fill-opacity="0.5" stroke="#000000" stroke-opacity="0.5" stroke-width="3.2"/>
<circle clip-path="url(#clip532)" cx="1636.87" cy="87.9763" r="14.4" fill="#009af9" fill-rule="evenodd" fill-opacity="0.5" stroke="#000000" stroke-opacity="0.5" stroke-width="3.2"/>
<circle clip-path="url(#clip532)" cx="1037.72" cy="1104.27" r="14.4" fill="#009af9" fill-rule="evenodd" fill-opacity="0.5" stroke="#000000" stroke-opacity="0.5" stroke-width="3.2"/>
<circle clip-path="url(#clip532)" cx="743.588" cy="622.607" r="14.4" fill="#009af9" fill-rule="evenodd" fill-opacity="0.5" stroke="#000000" stroke-opacity="0.5" stroke-width="3.2"/>
<circle clip-path="url(#clip532)" cx="1791.27" cy="617.057" r="14.4" fill="#009af9" fill-rule="evenodd" fill-opacity="0.5" stroke="#000000" stroke-opacity="0.5" stroke-width="3.2"/>
<circle clip-path="url(#clip532)" cx="1352.44" cy="137.017" r="14.4" fill="#009af9" fill-rule="evenodd" fill-opacity="0.5" stroke="#000000" stroke-opacity="0.5" stroke-width="3.2"/>
<path clip-path="url(#clip532)" d="M255.035 841.444 L1261.31 1388.2 L1700 1445.72 L2291.66 954.268 L1636.87 87.9763 L1352.44 137.017 L258.981 535.146 L255.035 841.444 L255.035 841.444  Z" fill="#e26f46" fill-rule="evenodd" fill-opacity="0.2"/>
<polyline clip-path="url(#clip532)" style="stroke:#000000; stroke-linecap:round; stroke-linejoin:round; stroke-width:4; stroke-opacity:0.2; fill:none" points="255.035,841.444 1261.31,1388.2 1700,1445.72 2291.66,954.268 1636.87,87.9763 1352.44,137.017 258.981,535.146 255.035,841.444 "/>
</svg>
