<?xml version="1.0" encoding="utf-8"?>
<svg xmlns="http://www.w3.org/2000/svg" xmlns:xlink="http://www.w3.org/1999/xlink" width="600" height="400" viewBox="0 0 2400 1600">
<defs>
  <clipPath id="clip200">
    <rect x="0" y="0" width="2400" height="1600"/>
  </clipPath>
</defs>
<path clip-path="url(#clip200)" d="M0 1600 L2400 1600 L2400 0 L0 0  Z" fill="#ffffff" fill-rule="evenodd" fill-opacity="1"/>
<defs>
  <clipPath id="clip201">
    <rect x="480" y="0" width="1681" height="1600"/>
  </clipPath>
</defs>
<path clip-path="url(#clip200)" d="M147.478 1486.45 L2352.76 1486.45 L2352.76 47.2441 L147.478 47.2441  Z" fill="#ffffff" fill-rule="evenodd" fill-opacity="1"/>
<defs>
  <clipPath id="clip202">
    <rect x="147" y="47" width="2206" height="1440"/>
  </clipPath>
</defs>
<polyline clip-path="url(#clip202)" style="stroke:#000000; stroke-linecap:round; stroke-linejoin:round; stroke-width:2; stroke-opacity:0.1; fill:none" points="303.671,1486.45 303.671,47.2441 "/>
<polyline clip-path="url(#clip202)" style="stroke:#000000; stroke-linecap:round; stroke-linejoin:round; stroke-width:2; stroke-opacity:0.1; fill:none" points="745.435,1486.45 745.435,47.2441 "/>
<polyline clip-path="url(#clip202)" style="stroke:#000000; stroke-linecap:round; stroke-linejoin:round; stroke-width:2; stroke-opacity:0.1; fill:none" points="1187.2,1486.45 1187.2,47.2441 "/>
<polyline clip-path="url(#clip202)" style="stroke:#000000; stroke-linecap:round; stroke-linejoin:round; stroke-width:2; stroke-opacity:0.1; fill:none" points="1628.96,1486.45 1628.96,47.2441 "/>
<polyline clip-path="url(#clip202)" style="stroke:#000000; stroke-linecap:round; stroke-linejoin:round; stroke-width:2; stroke-opacity:0.1; fill:none" points="2070.73,1486.45 2070.73,47.2441 "/>
<polyline clip-path="url(#clip202)" style="stroke:#000000; stroke-linecap:round; stroke-linejoin:round; stroke-width:2; stroke-opacity:0.1; fill:none" points="147.478,1257.12 2352.76,1257.12 "/>
<polyline clip-path="url(#clip202)" style="stroke:#000000; stroke-linecap:round; stroke-linejoin:round; stroke-width:2; stroke-opacity:0.1; fill:none" points="147.478,941.44 2352.76,941.44 "/>
<polyline clip-path="url(#clip202)" style="stroke:#000000; stroke-linecap:round; stroke-linejoin:round; stroke-width:2; stroke-opacity:0.1; fill:none" points="147.478,625.758 2352.76,625.758 "/>
<polyline clip-path="url(#clip202)" style="stroke:#000000; stroke-linecap:round; stroke-linejoin:round; stroke-width:2; stroke-opacity:0.1; fill:none" points="147.478,310.075 2352.76,310.075 "/>
<polyline clip-path="url(#clip200)" style="stroke:#000000; stroke-linecap:round; stroke-linejoin:round; stroke-width:4; stroke-opacity:1; fill:none" points="147.478,1486.45 2352.76,1486.45 "/>
<polyline clip-path="url(#clip200)" style="stroke:#000000; stroke-linecap:round; stroke-linejoin:round; stroke-width:4; stroke-opacity:1; fill:none" points="303.671,1486.45 303.671,1467.55 "/>
<polyline clip-path="url(#clip200)" style="stroke:#000000; stroke-linecap:round; stroke-linejoin:round; stroke-width:4; stroke-opacity:1; fill:none" points="745.435,1486.45 745.435,1467.55 "/>
<polyline clip-path="url(#clip200)" style="stroke:#000000; stroke-linecap:round; stroke-linejoin:round; stroke-width:4; stroke-opacity:1; fill:none" points="1187.2,1486.45 1187.2,1467.55 "/>
<polyline clip-path="url(#clip200)" style="stroke:#000000; stroke-linecap:round; stroke-linejoin:round; stroke-width:4; stroke-opacity:1; fill:none" points="1628.96,1486.45 1628.96,1467.55 "/>
<polyline clip-path="url(#clip200)" style="stroke:#000000; stroke-linecap:round; stroke-linejoin:round; stroke-width:4; stroke-opacity:1; fill:none" points="2070.73,1486.45 2070.73,1467.55 "/>
<path clip-path="url(#clip200)" d="M273.613 1532.02 L303.289 1532.02 L303.289 1535.95 L273.613 1535.95 L273.613 1532.02 Z" fill="#000000" fill-rule="nonzero" fill-opacity="1" /><path clip-path="url(#clip200)" d="M317.409 1544.91 L333.729 1544.91 L333.729 1548.85 L311.784 1548.85 L311.784 1544.91 Q314.446 1542.16 319.03 1537.53 Q323.636 1532.88 324.817 1531.53 Q327.062 1529.01 327.942 1527.27 Q328.844 1525.51 328.844 1523.82 Q328.844 1521.07 326.9 1519.33 Q324.979 1517.6 321.877 1517.6 Q319.678 1517.6 317.224 1518.36 Q314.793 1519.13 312.016 1520.68 L312.016 1515.95 Q314.84 1514.82 317.293 1514.24 Q319.747 1513.66 321.784 1513.66 Q327.155 1513.66 330.349 1516.35 Q333.543 1519.03 333.543 1523.52 Q333.543 1525.65 332.733 1527.57 Q331.946 1529.47 329.84 1532.07 Q329.261 1532.74 326.159 1535.95 Q323.057 1539.15 317.409 1544.91 Z" fill="#000000" fill-rule="nonzero" fill-opacity="1" /><path clip-path="url(#clip200)" d="M715.192 1532.02 L744.868 1532.02 L744.868 1535.95 L715.192 1535.95 L715.192 1532.02 Z" fill="#000000" fill-rule="nonzero" fill-opacity="1" /><path clip-path="url(#clip200)" d="M755.771 1544.91 L763.409 1544.91 L763.409 1518.55 L755.099 1520.21 L755.099 1515.95 L763.363 1514.29 L768.039 1514.29 L768.039 1544.91 L775.678 1544.91 L775.678 1548.85 L755.771 1548.85 L755.771 1544.91 Z" fill="#000000" fill-rule="nonzero" fill-opacity="1" /><path clip-path="url(#clip200)" d="M1187.2 1517.37 Q1183.59 1517.37 1181.76 1520.93 Q1179.95 1524.47 1179.95 1531.6 Q1179.95 1538.71 1181.76 1542.27 Q1183.59 1545.82 1187.2 1545.82 Q1190.83 1545.82 1192.64 1542.27 Q1194.47 1538.71 1194.47 1531.6 Q1194.47 1524.47 1192.64 1520.93 Q1190.83 1517.37 1187.2 1517.37 M1187.2 1513.66 Q1193.01 1513.66 1196.06 1518.27 Q1199.14 1522.85 1199.14 1531.6 Q1199.14 1540.33 1196.06 1544.94 Q1193.01 1549.52 1187.2 1549.52 Q1181.39 1549.52 1178.31 1544.94 Q1175.25 1540.33 1175.25 1531.6 Q1175.25 1522.85 1178.31 1518.27 Q1181.39 1513.66 1187.2 1513.66 Z" fill="#000000" fill-rule="nonzero" fill-opacity="1" /><path clip-path="url(#clip200)" d="M1619.35 1544.91 L1626.98 1544.91 L1626.98 1518.55 L1618.67 1520.21 L1618.67 1515.95 L1626.94 1514.29 L1631.61 1514.29 L1631.61 1544.91 L1639.25 1544.91 L1639.25 1548.85 L1619.35 1548.85 L1619.35 1544.91 Z" fill="#000000" fill-rule="nonzero" fill-opacity="1" /><path clip-path="url(#clip200)" d="M2065.38 1544.91 L2081.7 1544.91 L2081.7 1548.85 L2059.76 1548.85 L2059.76 1544.91 Q2062.42 1542.16 2067 1537.53 Q2071.61 1532.88 2072.79 1531.53 Q2075.03 1529.01 2075.91 1527.27 Q2076.82 1525.51 2076.82 1523.82 Q2076.82 1521.07 2074.87 1519.33 Q2072.95 1517.6 2069.85 1517.6 Q2067.65 1517.6 2065.2 1518.36 Q2062.76 1519.13 2059.99 1520.68 L2059.99 1515.95 Q2062.81 1514.82 2065.26 1514.24 Q2067.72 1513.66 2069.76 1513.66 Q2075.13 1513.66 2078.32 1516.35 Q2081.51 1519.03 2081.51 1523.52 Q2081.51 1525.65 2080.7 1527.57 Q2079.92 1529.47 2077.81 1532.07 Q2077.23 1532.74 2074.13 1535.95 Q2071.03 1539.15 2065.38 1544.91 Z" fill="#000000" fill-rule="nonzero" fill-opacity="1" /><polyline clip-path="url(#clip200)" style="stroke:#000000; stroke-linecap:round; stroke-linejoin:round; stroke-width:4; stroke-opacity:1; fill:none" points="147.478,1486.45 147.478,47.2441 "/>
<polyline clip-path="url(#clip200)" style="stroke:#000000; stroke-linecap:round; stroke-linejoin:round; stroke-width:4; stroke-opacity:1; fill:none" points="147.478,1257.12 166.376,1257.12 "/>
<polyline clip-path="url(#clip200)" style="stroke:#000000; stroke-linecap:round; stroke-linejoin:round; stroke-width:4; stroke-opacity:1; fill:none" points="147.478,941.44 166.376,941.44 "/>
<polyline clip-path="url(#clip200)" style="stroke:#000000; stroke-linecap:round; stroke-linejoin:round; stroke-width:4; stroke-opacity:1; fill:none" points="147.478,625.758 166.376,625.758 "/>
<polyline clip-path="url(#clip200)" style="stroke:#000000; stroke-linecap:round; stroke-linejoin:round; stroke-width:4; stroke-opacity:1; fill:none" points="147.478,310.075 166.376,310.075 "/>
<path clip-path="url(#clip200)" d="M51.3625 1257.57 L81.0383 1257.57 L81.0383 1261.51 L51.3625 1261.51 L51.3625 1257.57 Z" fill="#000000" fill-rule="nonzero" fill-opacity="1" /><path clip-path="url(#clip200)" d="M95.1586 1270.47 L111.478 1270.47 L111.478 1274.4 L89.5336 1274.4 L89.5336 1270.47 Q92.1956 1267.71 96.7789 1263.08 Q101.385 1258.43 102.566 1257.09 Q104.811 1254.56 105.691 1252.83 Q106.594 1251.07 106.594 1249.38 Q106.594 1246.62 104.649 1244.89 Q102.728 1243.15 99.6261 1243.15 Q97.4271 1243.15 94.9734 1243.92 Q92.5428 1244.68 89.7651 1246.23 L89.7651 1241.51 Q92.5891 1240.37 95.0428 1239.8 Q97.4965 1239.22 99.5335 1239.22 Q104.904 1239.22 108.098 1241.9 Q111.293 1244.59 111.293 1249.08 Q111.293 1251.21 110.483 1253.13 Q109.696 1255.03 107.589 1257.62 Q107.01 1258.29 103.909 1261.51 Q100.807 1264.7 95.1586 1270.47 Z" fill="#000000" fill-rule="nonzero" fill-opacity="1" /><path clip-path="url(#clip200)" d="M50.9921 941.891 L80.6679 941.891 L80.6679 945.827 L50.9921 945.827 L50.9921 941.891 Z" fill="#000000" fill-rule="nonzero" fill-opacity="1" /><path clip-path="url(#clip200)" d="M91.5706 954.785 L99.2095 954.785 L99.2095 928.419 L90.8993 930.086 L90.8993 925.827 L99.1632 924.16 L103.839 924.16 L103.839 954.785 L111.478 954.785 L111.478 958.72 L91.5706 958.72 L91.5706 954.785 Z" fill="#000000" fill-rule="nonzero" fill-opacity="1" /><path clip-path="url(#clip200)" d="M99.5335 611.556 Q95.9224 611.556 94.0937 615.121 Q92.2882 618.663 92.2882 625.792 Q92.2882 632.899 94.0937 636.463 Q95.9224 640.005 99.5335 640.005 Q103.168 640.005 104.973 636.463 Q106.802 632.899 106.802 625.792 Q106.802 618.663 104.973 615.121 Q103.168 611.556 99.5335 611.556 M99.5335 607.853 Q105.344 607.853 108.399 612.459 Q111.478 617.042 111.478 625.792 Q111.478 634.519 108.399 639.125 Q105.344 643.709 99.5335 643.709 Q93.7234 643.709 90.6447 639.125 Q87.5892 634.519 87.5892 625.792 Q87.5892 617.042 90.6447 612.459 Q93.7234 607.853 99.5335 607.853 Z" fill="#000000" fill-rule="nonzero" fill-opacity="1" /><path clip-path="url(#clip200)" d="M91.5706 323.42 L99.2095 323.42 L99.2095 297.054 L90.8993 298.721 L90.8993 294.462 L99.1632 292.795 L103.839 292.795 L103.839 323.42 L111.478 323.42 L111.478 327.355 L91.5706 327.355 L91.5706 323.42 Z" fill="#000000" fill-rule="nonzero" fill-opacity="1" /><circle clip-path="url(#clip202)" cx="826.509" cy="1301.77" r="14.4" fill="#009af9" fill-rule="evenodd" fill-opacity="0.5" stroke="#000000" stroke-opacity="0.5" stroke-width="3.2"/>
<circle clip-path="url(#clip202)" cx="1329.23" cy="949.577" r="14.4" fill="#009af9" fill-rule="evenodd" fill-opacity="0.5" stroke="#000000" stroke-opacity="0.5" stroke-width="3.2"/>
<circle clip-path="url(#clip202)" cx="856.255" cy="676.487" r="14.4" fill="#009af9" fill-rule="evenodd" fill-opacity="0.5" stroke="#000000" stroke-opacity="0.5" stroke-width="3.2"/>
<circle clip-path="url(#clip202)" cx="1119.42" cy="680.13" r="14.4" fill="#009af9" fill-rule="evenodd" fill-opacity="0.5" stroke="#000000" stroke-opacity="0.5" stroke-width="3.2"/>
<circle clip-path="url(#clip202)" cx="775.815" cy="594.365" r="14.4" fill="#009af9" fill-rule="evenodd" fill-opacity="0.5" stroke="#000000" stroke-opacity="0.5" stroke-width="3.2"/>
<circle clip-path="url(#clip202)" cx="483.304" cy="495.945" r="14.4" fill="#009af9" fill-rule="evenodd" fill-opacity="0.5" stroke="#000000" stroke-opacity="0.5" stroke-width="3.2"/>
<circle clip-path="url(#clip202)" cx="665.549" cy="705.657" r="14.4" fill="#009af9" fill-rule="evenodd" fill-opacity="0.5" stroke="#000000" stroke-opacity="0.5" stroke-width="3.2"/>
<circle clip-path="url(#clip202)" cx="1010.45" cy="374.164" r="14.4" fill="#009af9" fill-rule="evenodd" fill-opacity="0.5" stroke="#000000" stroke-opacity="0.5" stroke-width="3.2"/>
<circle clip-path="url(#clip202)" cx="914.108" cy="982.755" r="14.4" fill="#009af9" fill-rule="evenodd" fill-opacity="0.5" stroke="#000000" stroke-opacity="0.5" stroke-width="3.2"/>
<circle clip-path="url(#clip202)" cx="1035.62" cy="965.207" r="14.4" fill="#009af9" fill-rule="evenodd" fill-opacity="0.5" stroke="#000000" stroke-opacity="0.5" stroke-width="3.2"/>
<circle clip-path="url(#clip202)" cx="815.777" cy="1445.72" r="14.4" fill="#009af9" fill-rule="evenodd" fill-opacity="0.5" stroke="#000000" stroke-opacity="0.5" stroke-width="3.2"/>
<circle clip-path="url(#clip202)" cx="1407.59" cy="523.03" r="14.4" fill="#009af9" fill-rule="evenodd" fill-opacity="0.5" stroke="#000000" stroke-opacity="0.5" stroke-width="3.2"/>
<circle clip-path="url(#clip202)" cx="1067.33" cy="617.822" r="14.4" fill="#009af9" fill-rule="evenodd" fill-opacity="0.5" stroke="#000000" stroke-opacity="0.5" stroke-width="3.2"/>
<circle clip-path="url(#clip202)" cx="2148.25" cy="583.026" r="14.4" fill="#009af9" fill-rule="evenodd" fill-opacity="0.5" stroke="#000000" stroke-opacity="0.5" stroke-width="3.2"/>
<circle clip-path="url(#clip202)" cx="865.643" cy="649.709" r="14.4" fill="#009af9" fill-rule="evenodd" fill-opacity="0.5" stroke="#000000" stroke-opacity="0.5" stroke-width="3.2"/>
<circle clip-path="url(#clip202)" cx="2290.34" cy="374.093" r="14.4" fill="#009af9" fill-rule="evenodd" fill-opacity="0.5" stroke="#000000" stroke-opacity="0.5" stroke-width="3.2"/>
<circle clip-path="url(#clip202)" cx="1282.31" cy="786.301" r="14.4" fill="#009af9" fill-rule="evenodd" fill-opacity="0.5" stroke="#000000" stroke-opacity="0.5" stroke-width="3.2"/>
<circle clip-path="url(#clip202)" cx="2171.59" cy="402.965" r="14.4" fill="#009af9" fill-rule="evenodd" fill-opacity="0.5" stroke="#000000" stroke-opacity="0.5" stroke-width="3.2"/>
<circle clip-path="url(#clip202)" cx="1130.6" cy="772.727" r="14.4" fill="#009af9" fill-rule="evenodd" fill-opacity="0.5" stroke="#000000" stroke-opacity="0.5" stroke-width="3.2"/>
<circle clip-path="url(#clip202)" cx="1990.39" cy="351.266" r="14.4" fill="#009af9" fill-rule="evenodd" fill-opacity="0.5" stroke="#000000" stroke-opacity="0.5" stroke-width="3.2"/>
<circle clip-path="url(#clip202)" cx="765.028" cy="814.986" r="14.4" fill="#009af9" fill-rule="evenodd" fill-opacity="0.5" stroke="#000000" stroke-opacity="0.5" stroke-width="3.2"/>
<circle clip-path="url(#clip202)" cx="924.564" cy="216.713" r="14.4" fill="#009af9" fill-rule="evenodd" fill-opacity="0.5" stroke="#000000" stroke-opacity="0.5" stroke-width="3.2"/>
<circle clip-path="url(#clip202)" cx="1444.84" cy="365.026" r="14.4" fill="#009af9" fill-rule="evenodd" fill-opacity="0.5" stroke="#000000" stroke-opacity="0.5" stroke-width="3.2"/>
<circle clip-path="url(#clip202)" cx="859.824" cy="788.216" r="14.4" fill="#009af9" fill-rule="evenodd" fill-opacity="0.5" stroke="#000000" stroke-opacity="0.5" stroke-width="3.2"/>
<circle clip-path="url(#clip202)" cx="1646.65" cy="606.432" r="14.4" fill="#009af9" fill-rule="evenodd" fill-opacity="0.5" stroke="#000000" stroke-opacity="0.5" stroke-width="3.2"/>
<circle clip-path="url(#clip202)" cx="1879.51" cy="629.133" r="14.4" fill="#009af9" fill-rule="evenodd" fill-opacity="0.5" stroke="#000000" stroke-opacity="0.5" stroke-width="3.2"/>
<circle clip-path="url(#clip202)" cx="209.891" cy="802.982" r="14.4" fill="#009af9" fill-rule="evenodd" fill-opacity="0.5" stroke="#000000" stroke-opacity="0.5" stroke-width="3.2"/>
<circle clip-path="url(#clip202)" cx="1551.01" cy="577.601" r="14.4" fill="#009af9" fill-rule="evenodd" fill-opacity="0.5" stroke="#000000" stroke-opacity="0.5" stroke-width="3.2"/>
<circle clip-path="url(#clip202)" cx="1683.14" cy="87.9763" r="14.4" fill="#009af9" fill-rule="evenodd" fill-opacity="0.5" stroke="#000000" stroke-opacity="0.5" stroke-width="3.2"/>
<circle clip-path="url(#clip202)" cx="877.662" cy="704.438" r="14.4" fill="#009af9" fill-rule="evenodd" fill-opacity="0.5" stroke="#000000" stroke-opacity="0.5" stroke-width="3.2"/>
<path clip-path="url(#clip202)" d="M209.891 802.982 L815.777 1445.72 L2148.25 583.026 L2290.34 374.093 L1683.14 87.9763 L924.564 216.713 L483.304 495.945 L209.891 802.982 L209.891 802.982  Z" fill="#e26f46" fill-rule="evenodd" fill-opacity="0.2"/>
<polyline clip-path="url(#clip202)" style="stroke:#000000; stroke-linecap:round; stroke-linejoin:round; stroke-width:4; stroke-opacity:0.2; fill:none" points="209.891,802.982 815.777,1445.72 2148.25,583.026 2290.34,374.093 1683.14,87.9763 924.564,216.713 483.304,495.945 209.891,802.982 "/>
</svg>
