<?xml version="1.0" encoding="utf-8"?>
<svg xmlns="http://www.w3.org/2000/svg" xmlns:xlink="http://www.w3.org/1999/xlink" width="600" height="400" viewBox="0 0 2400 1600">
<defs>
  <clipPath id="clip100">
    <rect x="0" y="0" width="2400" height="1600"/>
  </clipPath>
</defs>
<path clip-path="url(#clip100)" d="M0 1600 L2400 1600 L2400 0 L0 0  Z" fill="#ffffff" fill-rule="evenodd" fill-opacity="1"/>
<defs>
  <clipPath id="clip101">
    <rect x="147" y="47" width="2206" height="1440"/>
  </clipPath>
</defs>
<path clip-path="url(#clip100)" d="M147.478 1486.45 L2352.76 1486.45 L2352.76 47.2441 L147.478 47.2441  Z" fill="#ffffff" fill-rule="evenodd" fill-opacity="1"/>
<polyline clip-path="url(#clip101)" style="stroke:#000000; stroke-linecap:round; stroke-linejoin:round; stroke-width:2; stroke-opacity:0.1; fill:none" points="368.023,1486.45 368.023,47.2441 "/>
<polyline clip-path="url(#clip101)" style="stroke:#000000; stroke-linecap:round; stroke-linejoin:round; stroke-width:2; stroke-opacity:0.1; fill:none" points="908.332,1486.45 908.332,47.2441 "/>
<polyline clip-path="url(#clip101)" style="stroke:#000000; stroke-linecap:round; stroke-linejoin:round; stroke-width:2; stroke-opacity:0.1; fill:none" points="1448.64,1486.45 1448.64,47.2441 "/>
<polyline clip-path="url(#clip101)" style="stroke:#000000; stroke-linecap:round; stroke-linejoin:round; stroke-width:2; stroke-opacity:0.1; fill:none" points="1988.95,1486.45 1988.95,47.2441 "/>
<polyline clip-path="url(#clip101)" style="stroke:#000000; stroke-linecap:round; stroke-linejoin:round; stroke-width:2; stroke-opacity:0.1; fill:none" points="147.478,1391.37 2352.76,1391.37 "/>
<polyline clip-path="url(#clip101)" style="stroke:#000000; stroke-linecap:round; stroke-linejoin:round; stroke-width:2; stroke-opacity:0.1; fill:none" points="147.478,1118.08 2352.76,1118.08 "/>
<polyline clip-path="url(#clip101)" style="stroke:#000000; stroke-linecap:round; stroke-linejoin:round; stroke-width:2; stroke-opacity:0.1; fill:none" points="147.478,844.795 2352.76,844.795 "/>
<polyline clip-path="url(#clip101)" style="stroke:#000000; stroke-linecap:round; stroke-linejoin:round; stroke-width:2; stroke-opacity:0.1; fill:none" points="147.478,571.51 2352.76,571.51 "/>
<polyline clip-path="url(#clip101)" style="stroke:#000000; stroke-linecap:round; stroke-linejoin:round; stroke-width:2; stroke-opacity:0.1; fill:none" points="147.478,298.225 2352.76,298.225 "/>
<polyline clip-path="url(#clip100)" style="stroke:#000000; stroke-linecap:round; stroke-linejoin:round; stroke-width:4; stroke-opacity:1; fill:none" points="147.478,1486.45 2352.76,1486.45 "/>
<polyline clip-path="url(#clip100)" style="stroke:#000000; stroke-linecap:round; stroke-linejoin:round; stroke-width:4; stroke-opacity:1; fill:none" points="368.023,1486.45 368.023,1467.55 "/>
<polyline clip-path="url(#clip100)" style="stroke:#000000; stroke-linecap:round; stroke-linejoin:round; stroke-width:4; stroke-opacity:1; fill:none" points="908.332,1486.45 908.332,1467.55 "/>
<polyline clip-path="url(#clip100)" style="stroke:#000000; stroke-linecap:round; stroke-linejoin:round; stroke-width:4; stroke-opacity:1; fill:none" points="1448.64,1486.45 1448.64,1467.55 "/>
<polyline clip-path="url(#clip100)" style="stroke:#000000; stroke-linecap:round; stroke-linejoin:round; stroke-width:4; stroke-opacity:1; fill:none" points="1988.95,1486.45 1988.95,1467.55 "/>
<path clip-path="url(#clip100)" d="M337.965 1532.02 L367.641 1532.02 L367.641 1535.95 L337.965 1535.95 L337.965 1532.02 Z" fill="#000000" fill-rule="nonzero" fill-opacity="1" /><path clip-path="url(#clip100)" d="M381.761 1544.91 L398.08 1544.91 L398.08 1548.85 L376.136 1548.85 L376.136 1544.91 Q378.798 1542.16 383.381 1537.53 Q387.988 1532.88 389.168 1531.53 Q391.414 1529.01 392.293 1527.27 Q393.196 1525.51 393.196 1523.82 Q393.196 1521.07 391.252 1519.33 Q389.33 1517.6 386.229 1517.6 Q384.029 1517.6 381.576 1518.36 Q379.145 1519.13 376.367 1520.68 L376.367 1515.95 Q379.192 1514.82 381.645 1514.24 Q384.099 1513.66 386.136 1513.66 Q391.506 1513.66 394.701 1516.35 Q397.895 1519.03 397.895 1523.52 Q397.895 1525.65 397.085 1527.57 Q396.298 1529.47 394.191 1532.07 Q393.613 1532.74 390.511 1535.95 Q387.409 1539.15 381.761 1544.91 Z" fill="#000000" fill-rule="nonzero" fill-opacity="1" /><path clip-path="url(#clip100)" d="M878.089 1532.02 L907.765 1532.02 L907.765 1535.95 L878.089 1535.95 L878.089 1532.02 Z" fill="#000000" fill-rule="nonzero" fill-opacity="1" /><path clip-path="url(#clip100)" d="M918.668 1544.91 L926.307 1544.91 L926.307 1518.55 L917.997 1520.21 L917.997 1515.95 L926.26 1514.29 L930.936 1514.29 L930.936 1544.91 L938.575 1544.91 L938.575 1548.85 L918.668 1548.85 L918.668 1544.91 Z" fill="#000000" fill-rule="nonzero" fill-opacity="1" /><path clip-path="url(#clip100)" d="M1448.64 1517.37 Q1445.03 1517.37 1443.2 1520.93 Q1441.4 1524.47 1441.4 1531.6 Q1441.4 1538.71 1443.2 1542.27 Q1445.03 1545.82 1448.64 1545.82 Q1452.28 1545.82 1454.08 1542.27 Q1455.91 1538.71 1455.91 1531.6 Q1455.91 1524.47 1454.08 1520.93 Q1452.28 1517.37 1448.64 1517.37 M1448.64 1513.66 Q1454.45 1513.66 1457.51 1518.27 Q1460.59 1522.85 1460.59 1531.6 Q1460.59 1540.33 1457.51 1544.94 Q1454.45 1549.52 1448.64 1549.52 Q1442.83 1549.52 1439.75 1544.94 Q1436.7 1540.33 1436.7 1531.6 Q1436.7 1522.85 1439.75 1518.27 Q1442.83 1513.66 1448.64 1513.66 Z" fill="#000000" fill-rule="nonzero" fill-opacity="1" /><path clip-path="url(#clip100)" d="M1979.33 1544.91 L1986.97 1544.91 L1986.97 1518.55 L1978.66 1520.21 L1978.66 1515.95 L1986.93 1514.29 L1991.6 1514.29 L1991.6 1544.91 L1999.24 1544.91 L1999.24 1548.85 L1979.33 1548.85 L1979.33 1544.91 Z" fill="#000000" fill-rule="nonzero" fill-opacity="1" /><polyline clip-path="url(#clip100)" style="stroke:#000000; stroke-linecap:round; stroke-linejoin:round; stroke-width:4; stroke-opacity:1; fill:none" points="147.478,1486.45 147.478,47.2441 "/>
<polyline clip-path="url(#clip100)" style="stroke:#000000; stroke-linecap:round; stroke-linejoin:round; stroke-width:4; stroke-opacity:1; fill:none" points="147.478,1391.37 166.376,1391.37 "/>
<polyline clip-path="url(#clip100)" style="stroke:#000000; stroke-linecap:round; stroke-linejoin:round; stroke-width:4; stroke-opacity:1; fill:none" points="147.478,1118.08 166.376,1118.08 "/>
<polyline clip-path="url(#clip100)" style="stroke:#000000; stroke-linecap:round; stroke-linejoin:round; stroke-width:4; stroke-opacity:1; fill:none" points="147.478,844.795 166.376,844.795 "/>
<polyline clip-path="url(#clip100)" style="stroke:#000000; stroke-linecap:round; stroke-linejoin:round; stroke-width:4; stroke-opacity:1; fill:none" points="147.478,571.51 166.376,571.51 "/>
<polyline clip-path="url(#clip100)" style="stroke:#000000; stroke-linecap:round; stroke-linejoin:round; stroke-width:4; stroke-opacity:1; fill:none" points="147.478,298.225 166.376,298.225 "/>
<path clip-path="url(#clip100)" d="M51.3625 1391.82 L81.0383 1391.82 L81.0383 1395.75 L51.3625 1395.75 L51.3625 1391.82 Z" fill="#000000" fill-rule="nonzero" fill-opacity="1" /><path clip-path="url(#clip100)" d="M95.1586 1404.71 L111.478 1404.71 L111.478 1408.65 L89.5336 1408.65 L89.5336 1404.71 Q92.1956 1401.96 96.7789 1397.33 Q101.385 1392.67 102.566 1391.33 Q104.811 1388.81 105.691 1387.07 Q106.594 1385.31 106.594 1383.62 Q106.594 1380.87 104.649 1379.13 Q102.728 1377.4 99.6261 1377.4 Q97.4271 1377.4 94.9734 1378.16 Q92.5428 1378.92 89.7651 1380.47 L89.7651 1375.75 Q92.5891 1374.62 95.0428 1374.04 Q97.4965 1373.46 99.5335 1373.46 Q104.904 1373.46 108.098 1376.15 Q111.293 1378.83 111.293 1383.32 Q111.293 1385.45 110.483 1387.37 Q109.696 1389.27 107.589 1391.86 Q107.01 1392.53 103.909 1395.75 Q100.807 1398.95 95.1586 1404.71 Z" fill="#000000" fill-rule="nonzero" fill-opacity="1" /><path clip-path="url(#clip100)" d="M50.9921 1118.53 L80.6679 1118.53 L80.6679 1122.47 L50.9921 1122.47 L50.9921 1118.53 Z" fill="#000000" fill-rule="nonzero" fill-opacity="1" /><path clip-path="url(#clip100)" d="M91.5706 1131.43 L99.2095 1131.43 L99.2095 1105.06 L90.8993 1106.73 L90.8993 1102.47 L99.1632 1100.8 L103.839 1100.8 L103.839 1131.43 L111.478 1131.43 L111.478 1135.36 L91.5706 1135.36 L91.5706 1131.43 Z" fill="#000000" fill-rule="nonzero" fill-opacity="1" /><path clip-path="url(#clip100)" d="M99.5335 830.594 Q95.9224 830.594 94.0937 834.159 Q92.2882 837.7 92.2882 844.83 Q92.2882 851.936 94.0937 855.501 Q95.9224 859.043 99.5335 859.043 Q103.168 859.043 104.973 855.501 Q106.802 851.936 106.802 844.83 Q106.802 837.7 104.973 834.159 Q103.168 830.594 99.5335 830.594 M99.5335 826.89 Q105.344 826.89 108.399 831.497 Q111.478 836.08 111.478 844.83 Q111.478 853.557 108.399 858.163 Q105.344 862.746 99.5335 862.746 Q93.7234 862.746 90.6447 858.163 Q87.5892 853.557 87.5892 844.83 Q87.5892 836.08 90.6447 831.497 Q93.7234 826.89 99.5335 826.89 Z" fill="#000000" fill-rule="nonzero" fill-opacity="1" /><path clip-path="url(#clip100)" d="M91.5706 584.855 L99.2095 584.855 L99.2095 558.489 L90.8993 560.156 L90.8993 555.897 L99.1632 554.23 L103.839 554.23 L103.839 584.855 L111.478 584.855 L111.478 588.79 L91.5706 588.79 L91.5706 584.855 Z" fill="#000000" fill-rule="nonzero" fill-opacity="1" /><path clip-path="url(#clip100)" d="M95.1586 311.57 L111.478 311.57 L111.478 315.505 L89.5336 315.505 L89.5336 311.57 Q92.1956 308.815 96.7789 304.186 Q101.385 299.533 102.566 298.19 Q104.811 295.667 105.691 293.931 Q106.594 292.172 106.594 290.482 Q106.594 287.728 104.649 285.991 Q102.728 284.255 99.6261 284.255 Q97.4271 284.255 94.9734 285.019 Q92.5428 285.783 89.7651 287.334 L89.7651 282.612 Q92.5891 281.478 95.0428 280.899 Q97.4965 280.32 99.5335 280.32 Q104.904 280.32 108.098 283.005 Q111.293 285.691 111.293 290.181 Q111.293 292.311 110.483 294.232 Q109.696 296.13 107.589 298.723 Q107.01 299.394 103.909 302.612 Q100.807 305.806 95.1586 311.57 Z" fill="#000000" fill-rule="nonzero" fill-opacity="1" /><circle clip-path="url(#clip101)" cx="1030.22" cy="1121.96" r="14.4" fill="#009af9" fill-rule="evenodd" fill-opacity="0.5" stroke="#000000" stroke-opacity="0.5" stroke-width="3.2"/>
<circle clip-path="url(#clip101)" cx="1414.95" cy="423.375" r="14.4" fill="#009af9" fill-rule="evenodd" fill-opacity="0.5" stroke="#000000" stroke-opacity="0.5" stroke-width="3.2"/>
<circle clip-path="url(#clip101)" cx="868.951" cy="501.278" r="14.4" fill="#009af9" fill-rule="evenodd" fill-opacity="0.5" stroke="#000000" stroke-opacity="0.5" stroke-width="3.2"/>
<circle clip-path="url(#clip101)" cx="1690.84" cy="1099.74" r="14.4" fill="#009af9" fill-rule="evenodd" fill-opacity="0.5" stroke="#000000" stroke-opacity="0.5" stroke-width="3.2"/>
<circle clip-path="url(#clip101)" cx="1511.98" cy="633.295" r="14.4" fill="#009af9" fill-rule="evenodd" fill-opacity="0.5" stroke="#000000" stroke-opacity="0.5" stroke-width="3.2"/>
<circle clip-path="url(#clip101)" cx="1561.01" cy="943.577" r="14.4" fill="#009af9" fill-rule="evenodd" fill-opacity="0.5" stroke="#000000" stroke-opacity="0.5" stroke-width="3.2"/>
<circle clip-path="url(#clip101)" cx="2124.78" cy="87.9763" r="14.4" fill="#009af9" fill-rule="evenodd" fill-opacity="0.5" stroke="#000000" stroke-opacity="0.5" stroke-width="3.2"/>
<circle clip-path="url(#clip101)" cx="2079.99" cy="686.159" r="14.4" fill="#009af9" fill-rule="evenodd" fill-opacity="0.5" stroke="#000000" stroke-opacity="0.5" stroke-width="3.2"/>
<circle clip-path="url(#clip101)" cx="1440.61" cy="778.27" r="14.4" fill="#009af9" fill-rule="evenodd" fill-opacity="0.5" stroke="#000000" stroke-opacity="0.5" stroke-width="3.2"/>
<circle clip-path="url(#clip101)" cx="1593.51" cy="934.308" r="14.4" fill="#009af9" fill-rule="evenodd" fill-opacity="0.5" stroke="#000000" stroke-opacity="0.5" stroke-width="3.2"/>
<circle clip-path="url(#clip101)" cx="1753.19" cy="846.432" r="14.4" fill="#009af9" fill-rule="evenodd" fill-opacity="0.5" stroke="#000000" stroke-opacity="0.5" stroke-width="3.2"/>
<circle clip-path="url(#clip101)" cx="2290.34" cy="992.052" r="14.4" fill="#009af9" fill-rule="evenodd" fill-opacity="0.5" stroke="#000000" stroke-opacity="0.5" stroke-width="3.2"/>
<circle clip-path="url(#clip101)" cx="2140.08" cy="738.63" r="14.4" fill="#009af9" fill-rule="evenodd" fill-opacity="0.5" stroke="#000000" stroke-opacity="0.5" stroke-width="3.2"/>
<circle clip-path="url(#clip101)" cx="1034.24" cy="821.637" r="14.4" fill="#009af9" fill-rule="evenodd" fill-opacity="0.5" stroke="#000000" stroke-opacity="0.5" stroke-width="3.2"/>
<circle clip-path="url(#clip101)" cx="1633.26" cy="778.568" r="14.4" fill="#009af9" fill-rule="evenodd" fill-opacity="0.5" stroke="#000000" stroke-opacity="0.5" stroke-width="3.2"/>
<circle clip-path="url(#clip101)" cx="1768.85" cy="618.271" r="14.4" fill="#009af9" fill-rule="evenodd" fill-opacity="0.5" stroke="#000000" stroke-opacity="0.5" stroke-width="3.2"/>
<circle clip-path="url(#clip101)" cx="1483.35" cy="809.562" r="14.4" fill="#009af9" fill-rule="evenodd" fill-opacity="0.5" stroke="#000000" stroke-opacity="0.5" stroke-width="3.2"/>
<circle clip-path="url(#clip101)" cx="853.142" cy="564.429" r="14.4" fill="#009af9" fill-rule="evenodd" fill-opacity="0.5" stroke="#000000" stroke-opacity="0.5" stroke-width="3.2"/>
<circle clip-path="url(#clip101)" cx="1063.64" cy="467.986" r="14.4" fill="#009af9" fill-rule="evenodd" fill-opacity="0.5" stroke="#000000" stroke-opacity="0.5" stroke-width="3.2"/>
<circle clip-path="url(#clip101)" cx="1708.1" cy="1080.87" r="14.4" fill="#009af9" fill-rule="evenodd" fill-opacity="0.5" stroke="#000000" stroke-opacity="0.5" stroke-width="3.2"/>
<circle clip-path="url(#clip101)" cx="1671.32" cy="1066.47" r="14.4" fill="#009af9" fill-rule="evenodd" fill-opacity="0.5" stroke="#000000" stroke-opacity="0.5" stroke-width="3.2"/>
<circle clip-path="url(#clip101)" cx="1683.04" cy="1445.72" r="14.4" fill="#009af9" fill-rule="evenodd" fill-opacity="0.5" stroke="#000000" stroke-opacity="0.5" stroke-width="3.2"/>
<circle clip-path="url(#clip101)" cx="1717.97" cy="691.863" r="14.4" fill="#009af9" fill-rule="evenodd" fill-opacity="0.5" stroke="#000000" stroke-opacity="0.5" stroke-width="3.2"/>
<circle clip-path="url(#clip101)" cx="209.891" cy="1279.84" r="14.4" fill="#009af9" fill-rule="evenodd" fill-opacity="0.5" stroke="#000000" stroke-opacity="0.5" stroke-width="3.2"/>
<circle clip-path="url(#clip101)" cx="1833.18" cy="636.577" r="14.4" fill="#009af9" fill-rule="evenodd" fill-opacity="0.5" stroke="#000000" stroke-opacity="0.5" stroke-width="3.2"/>
<circle clip-path="url(#clip101)" cx="1418.94" cy="1158.55" r="14.4" fill="#009af9" fill-rule="evenodd" fill-opacity="0.5" stroke="#000000" stroke-opacity="0.5" stroke-width="3.2"/>
<circle clip-path="url(#clip101)" cx="532.427" cy="512.728" r="14.4" fill="#009af9" fill-rule="evenodd" fill-opacity="0.5" stroke="#000000" stroke-opacity="0.5" stroke-width="3.2"/>
<circle clip-path="url(#clip101)" cx="1280.97" cy="898.598" r="14.4" fill="#009af9" fill-rule="evenodd" fill-opacity="0.5" stroke="#000000" stroke-opacity="0.5" stroke-width="3.2"/>
<circle clip-path="url(#clip101)" cx="1012.76" cy="1046.99" r="14.4" fill="#009af9" fill-rule="evenodd" fill-opacity="0.5" stroke="#000000" stroke-opacity="0.5" stroke-width="3.2"/>
<circle clip-path="url(#clip101)" cx="1912.09" cy="768.015" r="14.4" fill="#009af9" fill-rule="evenodd" fill-opacity="0.5" stroke="#000000" stroke-opacity="0.5" stroke-width="3.2"/>
<path clip-path="url(#clip101)" d="M209.891 1279.84 L1683.04 1445.72 L2290.34 992.052 L2124.78 87.9763 L532.427 512.728 L209.891 1279.84 L209.891 1279.84  Z" fill="#e26f46" fill-rule="evenodd" fill-opacity="0.2"/>
<polyline clip-path="url(#clip101)" style="stroke:#000000; stroke-linecap:round; stroke-linejoin:round; stroke-width:4; stroke-opacity:0.2; fill:none" points="209.891,1279.84 1683.04,1445.72 2290.34,992.052 2124.78,87.9763 532.427,512.728 209.891,1279.84 "/>
</svg>
