<?xml version="1.0" encoding="utf-8"?>
<svg xmlns="http://www.w3.org/2000/svg" xmlns:xlink="http://www.w3.org/1999/xlink" width="600" height="400" viewBox="0 0 2400 1600">
<defs>
  <clipPath id="clip730">
    <rect x="0" y="0" width="2400" height="1600"/>
  </clipPath>
</defs>
<path clip-path="url(#clip730)" d="M0 1600 L2400 1600 L2400 0 L0 0  Z" fill="#ffffff" fill-rule="evenodd" fill-opacity="1"/>
<defs>
  <clipPath id="clip731">
    <rect x="480" y="0" width="1681" height="1600"/>
  </clipPath>
</defs>
<path clip-path="url(#clip730)" d="M147.478 1486.45 L2352.76 1486.45 L2352.76 47.2441 L147.478 47.2441  Z" fill="#ffffff" fill-rule="evenodd" fill-opacity="1"/>
<defs>
  <clipPath id="clip732">
    <rect x="147" y="47" width="2206" height="1440"/>
  </clipPath>
</defs>
<polyline clip-path="url(#clip732)" style="stroke:#000000; stroke-linecap:round; stroke-linejoin:round; stroke-width:2; stroke-opacity:0.1; fill:none" points="480.814,1486.45 480.814,47.2441 "/>
<polyline clip-path="url(#clip732)" style="stroke:#000000; stroke-linecap:round; stroke-linejoin:round; stroke-width:2; stroke-opacity:0.1; fill:none" points="908.032,1486.45 908.032,47.2441 "/>
<polyline clip-path="url(#clip732)" style="stroke:#000000; stroke-linecap:round; stroke-linejoin:round; stroke-width:2; stroke-opacity:0.1; fill:none" points="1335.25,1486.45 1335.25,47.2441 "/>
<polyline clip-path="url(#clip732)" style="stroke:#000000; stroke-linecap:round; stroke-linejoin:round; stroke-width:2; stroke-opacity:0.1; fill:none" points="1762.47,1486.45 1762.47,47.2441 "/>
<polyline clip-path="url(#clip732)" style="stroke:#000000; stroke-linecap:round; stroke-linejoin:round; stroke-width:2; stroke-opacity:0.1; fill:none" points="2189.69,1486.45 2189.69,47.2441 "/>
<polyline clip-path="url(#clip732)" style="stroke:#000000; stroke-linecap:round; stroke-linejoin:round; stroke-width:2; stroke-opacity:0.1; fill:none" points="147.478,1393.16 2352.76,1393.16 "/>
<polyline clip-path="url(#clip732)" style="stroke:#000000; stroke-linecap:round; stroke-linejoin:round; stroke-width:2; stroke-opacity:0.1; fill:none" points="147.478,1030 2352.76,1030 "/>
<polyline clip-path="url(#clip732)" style="stroke:#000000; stroke-linecap:round; stroke-linejoin:round; stroke-width:2; stroke-opacity:0.1; fill:none" points="147.478,666.833 2352.76,666.833 "/>
<polyline clip-path="url(#clip732)" style="stroke:#000000; stroke-linecap:round; stroke-linejoin:round; stroke-width:2; stroke-opacity:0.1; fill:none" points="147.478,303.67 2352.76,303.67 "/>
<polyline clip-path="url(#clip730)" style="stroke:#000000; stroke-linecap:round; stroke-linejoin:round; stroke-width:4; stroke-opacity:1; fill:none" points="147.478,1486.45 2352.76,1486.45 "/>
<polyline clip-path="url(#clip730)" style="stroke:#000000; stroke-linecap:round; stroke-linejoin:round; stroke-width:4; stroke-opacity:1; fill:none" points="480.814,1486.45 480.814,1467.55 "/>
<polyline clip-path="url(#clip730)" style="stroke:#000000; stroke-linecap:round; stroke-linejoin:round; stroke-width:4; stroke-opacity:1; fill:none" points="908.032,1486.45 908.032,1467.55 "/>
<polyline clip-path="url(#clip730)" style="stroke:#000000; stroke-linecap:round; stroke-linejoin:round; stroke-width:4; stroke-opacity:1; fill:none" points="1335.25,1486.45 1335.25,1467.55 "/>
<polyline clip-path="url(#clip730)" style="stroke:#000000; stroke-linecap:round; stroke-linejoin:round; stroke-width:4; stroke-opacity:1; fill:none" points="1762.47,1486.45 1762.47,1467.55 "/>
<polyline clip-path="url(#clip730)" style="stroke:#000000; stroke-linecap:round; stroke-linejoin:round; stroke-width:4; stroke-opacity:1; fill:none" points="2189.69,1486.45 2189.69,1467.55 "/>
<path clip-path="url(#clip730)" d="M450.756 1532.02 L480.432 1532.02 L480.432 1535.95 L450.756 1535.95 L450.756 1532.02 Z" fill="#000000" fill-rule="nonzero" fill-opacity="1" /><path clip-path="url(#clip730)" d="M494.552 1544.91 L510.872 1544.91 L510.872 1548.85 L488.927 1548.85 L488.927 1544.91 Q491.589 1542.16 496.173 1537.53 Q500.779 1532.88 501.96 1531.53 Q504.205 1529.01 505.085 1527.27 Q505.987 1525.51 505.987 1523.82 Q505.987 1521.07 504.043 1519.33 Q502.122 1517.6 499.02 1517.6 Q496.821 1517.6 494.367 1518.36 Q491.937 1519.13 489.159 1520.68 L489.159 1515.95 Q491.983 1514.82 494.437 1514.24 Q496.89 1513.66 498.927 1513.66 Q504.298 1513.66 507.492 1516.35 Q510.686 1519.03 510.686 1523.52 Q510.686 1525.65 509.876 1527.57 Q509.089 1529.47 506.983 1532.07 Q506.404 1532.74 503.302 1535.95 Q500.2 1539.15 494.552 1544.91 Z" fill="#000000" fill-rule="nonzero" fill-opacity="1" /><path clip-path="url(#clip730)" d="M877.789 1532.02 L907.465 1532.02 L907.465 1535.95 L877.789 1535.95 L877.789 1532.02 Z" fill="#000000" fill-rule="nonzero" fill-opacity="1" /><path clip-path="url(#clip730)" d="M918.368 1544.91 L926.007 1544.91 L926.007 1518.55 L917.696 1520.21 L917.696 1515.95 L925.96 1514.29 L930.636 1514.29 L930.636 1544.91 L938.275 1544.91 L938.275 1548.85 L918.368 1548.85 L918.368 1544.91 Z" fill="#000000" fill-rule="nonzero" fill-opacity="1" /><path clip-path="url(#clip730)" d="M1335.25 1517.37 Q1331.64 1517.37 1329.81 1520.93 Q1328.01 1524.47 1328.01 1531.6 Q1328.01 1538.71 1329.81 1542.27 Q1331.64 1545.82 1335.25 1545.82 Q1338.88 1545.82 1340.69 1542.27 Q1342.52 1538.71 1342.52 1531.6 Q1342.52 1524.47 1340.69 1520.93 Q1338.88 1517.37 1335.25 1517.37 M1335.25 1513.66 Q1341.06 1513.66 1344.12 1518.27 Q1347.19 1522.85 1347.19 1531.6 Q1347.19 1540.33 1344.12 1544.94 Q1341.06 1549.52 1335.25 1549.52 Q1329.44 1549.52 1326.36 1544.94 Q1323.31 1540.33 1323.31 1531.6 Q1323.31 1522.85 1326.36 1518.27 Q1329.44 1513.66 1335.25 1513.66 Z" fill="#000000" fill-rule="nonzero" fill-opacity="1" /><path clip-path="url(#clip730)" d="M1752.85 1544.91 L1760.49 1544.91 L1760.49 1518.55 L1752.18 1520.21 L1752.18 1515.95 L1760.44 1514.29 L1765.12 1514.29 L1765.12 1544.91 L1772.76 1544.91 L1772.76 1548.85 L1752.85 1548.85 L1752.85 1544.91 Z" fill="#000000" fill-rule="nonzero" fill-opacity="1" /><path clip-path="url(#clip730)" d="M2184.34 1544.91 L2200.66 1544.91 L2200.66 1548.85 L2178.71 1548.85 L2178.71 1544.91 Q2181.38 1542.16 2185.96 1537.53 Q2190.57 1532.88 2191.75 1531.53 Q2193.99 1529.01 2194.87 1527.27 Q2195.77 1525.51 2195.77 1523.82 Q2195.77 1521.07 2193.83 1519.33 Q2191.91 1517.6 2188.81 1517.6 Q2186.61 1517.6 2184.15 1518.36 Q2181.72 1519.13 2178.95 1520.68 L2178.95 1515.95 Q2181.77 1514.82 2184.22 1514.24 Q2186.68 1513.66 2188.71 1513.66 Q2194.09 1513.66 2197.28 1516.35 Q2200.47 1519.03 2200.47 1523.52 Q2200.47 1525.65 2199.66 1527.57 Q2198.88 1529.47 2196.77 1532.07 Q2196.19 1532.74 2193.09 1535.95 Q2189.99 1539.15 2184.34 1544.91 Z" fill="#000000" fill-rule="nonzero" fill-opacity="1" /><polyline clip-path="url(#clip730)" style="stroke:#000000; stroke-linecap:round; stroke-linejoin:round; stroke-width:4; stroke-opacity:1; fill:none" points="147.478,1486.45 147.478,47.2441 "/>
<polyline clip-path="url(#clip730)" style="stroke:#000000; stroke-linecap:round; stroke-linejoin:round; stroke-width:4; stroke-opacity:1; fill:none" points="147.478,1393.16 166.376,1393.16 "/>
<polyline clip-path="url(#clip730)" style="stroke:#000000; stroke-linecap:round; stroke-linejoin:round; stroke-width:4; stroke-opacity:1; fill:none" points="147.478,1030 166.376,1030 "/>
<polyline clip-path="url(#clip730)" style="stroke:#000000; stroke-linecap:round; stroke-linejoin:round; stroke-width:4; stroke-opacity:1; fill:none" points="147.478,666.833 166.376,666.833 "/>
<polyline clip-path="url(#clip730)" style="stroke:#000000; stroke-linecap:round; stroke-linejoin:round; stroke-width:4; stroke-opacity:1; fill:none" points="147.478,303.67 166.376,303.67 "/>
<path clip-path="url(#clip730)" d="M51.3625 1393.61 L81.0383 1393.61 L81.0383 1397.55 L51.3625 1397.55 L51.3625 1393.61 Z" fill="#000000" fill-rule="nonzero" fill-opacity="1" /><path clip-path="url(#clip730)" d="M95.1586 1406.5 L111.478 1406.5 L111.478 1410.44 L89.5336 1410.44 L89.5336 1406.5 Q92.1956 1403.75 96.7789 1399.12 Q101.385 1394.47 102.566 1393.12 Q104.811 1390.6 105.691 1388.86 Q106.594 1387.11 106.594 1385.42 Q106.594 1382.66 104.649 1380.93 Q102.728 1379.19 99.6261 1379.19 Q97.4271 1379.19 94.9734 1379.95 Q92.5428 1380.72 89.7651 1382.27 L89.7651 1377.55 Q92.5891 1376.41 95.0428 1375.83 Q97.4965 1375.25 99.5335 1375.25 Q104.904 1375.25 108.098 1377.94 Q111.293 1380.62 111.293 1385.11 Q111.293 1387.24 110.483 1389.17 Q109.696 1391.06 107.589 1393.66 Q107.01 1394.33 103.909 1397.55 Q100.807 1400.74 95.1586 1406.5 Z" fill="#000000" fill-rule="nonzero" fill-opacity="1" /><path clip-path="url(#clip730)" d="M50.9921 1030.45 L80.6679 1030.45 L80.6679 1034.38 L50.9921 1034.38 L50.9921 1030.45 Z" fill="#000000" fill-rule="nonzero" fill-opacity="1" /><path clip-path="url(#clip730)" d="M91.5706 1043.34 L99.2095 1043.34 L99.2095 1016.97 L90.8993 1018.64 L90.8993 1014.38 L99.1632 1012.72 L103.839 1012.72 L103.839 1043.34 L111.478 1043.34 L111.478 1047.28 L91.5706 1047.28 L91.5706 1043.34 Z" fill="#000000" fill-rule="nonzero" fill-opacity="1" /><path clip-path="url(#clip730)" d="M99.5335 652.631 Q95.9224 652.631 94.0937 656.196 Q92.2882 659.738 92.2882 666.867 Q92.2882 673.974 94.0937 677.539 Q95.9224 681.08 99.5335 681.08 Q103.168 681.08 104.973 677.539 Q106.802 673.974 106.802 666.867 Q106.802 659.738 104.973 656.196 Q103.168 652.631 99.5335 652.631 M99.5335 648.928 Q105.344 648.928 108.399 653.534 Q111.478 658.117 111.478 666.867 Q111.478 675.594 108.399 680.201 Q105.344 684.784 99.5335 684.784 Q93.7234 684.784 90.6447 680.201 Q87.5892 675.594 87.5892 666.867 Q87.5892 658.117 90.6447 653.534 Q93.7234 648.928 99.5335 648.928 Z" fill="#000000" fill-rule="nonzero" fill-opacity="1" /><path clip-path="url(#clip730)" d="M91.5706 317.014 L99.2095 317.014 L99.2095 290.649 L90.8993 292.316 L90.8993 288.056 L99.1632 286.39 L103.839 286.39 L103.839 317.014 L111.478 317.014 L111.478 320.95 L91.5706 320.95 L91.5706 317.014 Z" fill="#000000" fill-rule="nonzero" fill-opacity="1" /><circle clip-path="url(#clip732)" cx="908.957" cy="1445.72" r="14.4" fill="#009af9" fill-rule="evenodd" fill-opacity="0.5" stroke="#000000" stroke-opacity="0.5" stroke-width="3.2"/>
<circle clip-path="url(#clip732)" cx="1195.92" cy="761.222" r="14.4" fill="#009af9" fill-rule="evenodd" fill-opacity="0.5" stroke="#000000" stroke-opacity="0.5" stroke-width="3.2"/>
<circle clip-path="url(#clip732)" cx="1392.92" cy="1039.9" r="14.4" fill="#009af9" fill-rule="evenodd" fill-opacity="0.5" stroke="#000000" stroke-opacity="0.5" stroke-width="3.2"/>
<circle clip-path="url(#clip732)" cx="960.081" cy="1049.14" r="14.4" fill="#009af9" fill-rule="evenodd" fill-opacity="0.5" stroke="#000000" stroke-opacity="0.5" stroke-width="3.2"/>
<circle clip-path="url(#clip732)" cx="807.239" cy="828.993" r="14.4" fill="#009af9" fill-rule="evenodd" fill-opacity="0.5" stroke="#000000" stroke-opacity="0.5" stroke-width="3.2"/>
<circle clip-path="url(#clip732)" cx="1920.92" cy="1090.51" r="14.4" fill="#009af9" fill-rule="evenodd" fill-opacity="0.5" stroke="#000000" stroke-opacity="0.5" stroke-width="3.2"/>
<circle clip-path="url(#clip732)" cx="1541.88" cy="196.196" r="14.4" fill="#009af9" fill-rule="evenodd" fill-opacity="0.5" stroke="#000000" stroke-opacity="0.5" stroke-width="3.2"/>
<circle clip-path="url(#clip732)" cx="2290.34" cy="523.366" r="14.4" fill="#009af9" fill-rule="evenodd" fill-opacity="0.5" stroke="#000000" stroke-opacity="0.5" stroke-width="3.2"/>
<circle clip-path="url(#clip732)" cx="1089.56" cy="1093.63" r="14.4" fill="#009af9" fill-rule="evenodd" fill-opacity="0.5" stroke="#000000" stroke-opacity="0.5" stroke-width="3.2"/>
<circle clip-path="url(#clip732)" cx="1281.03" cy="568.373" r="14.4" fill="#009af9" fill-rule="evenodd" fill-opacity="0.5" stroke="#000000" stroke-opacity="0.5" stroke-width="3.2"/>
<circle clip-path="url(#clip732)" cx="1010.53" cy="287.651" r="14.4" fill="#009af9" fill-rule="evenodd" fill-opacity="0.5" stroke="#000000" stroke-opacity="0.5" stroke-width="3.2"/>
<circle clip-path="url(#clip732)" cx="2178.16" cy="507.45" r="14.4" fill="#009af9" fill-rule="evenodd" fill-opacity="0.5" stroke="#000000" stroke-opacity="0.5" stroke-width="3.2"/>
<circle clip-path="url(#clip732)" cx="841.651" cy="1377.15" r="14.4" fill="#009af9" fill-rule="evenodd" fill-opacity="0.5" stroke="#000000" stroke-opacity="0.5" stroke-width="3.2"/>
<circle clip-path="url(#clip732)" cx="650.271" cy="344.674" r="14.4" fill="#009af9" fill-rule="evenodd" fill-opacity="0.5" stroke="#000000" stroke-opacity="0.5" stroke-width="3.2"/>
<circle clip-path="url(#clip732)" cx="1543.01" cy="1262.38" r="14.4" fill="#009af9" fill-rule="evenodd" fill-opacity="0.5" stroke="#000000" stroke-opacity="0.5" stroke-width="3.2"/>
<circle clip-path="url(#clip732)" cx="953.296" cy="354.826" r="14.4" fill="#009af9" fill-rule="evenodd" fill-opacity="0.5" stroke="#000000" stroke-opacity="0.5" stroke-width="3.2"/>
<circle clip-path="url(#clip732)" cx="1635.17" cy="406.261" r="14.4" fill="#009af9" fill-rule="evenodd" fill-opacity="0.5" stroke="#000000" stroke-opacity="0.5" stroke-width="3.2"/>
<circle clip-path="url(#clip732)" cx="782.337" cy="264.509" r="14.4" fill="#009af9" fill-rule="evenodd" fill-opacity="0.5" stroke="#000000" stroke-opacity="0.5" stroke-width="3.2"/>
<circle clip-path="url(#clip732)" cx="209.891" cy="872.148" r="14.4" fill="#009af9" fill-rule="evenodd" fill-opacity="0.5" stroke="#000000" stroke-opacity="0.5" stroke-width="3.2"/>
<circle clip-path="url(#clip732)" cx="1200.37" cy="196.778" r="14.4" fill="#009af9" fill-rule="evenodd" fill-opacity="0.5" stroke="#000000" stroke-opacity="0.5" stroke-width="3.2"/>
<circle clip-path="url(#clip732)" cx="1411.04" cy="655.35" r="14.4" fill="#009af9" fill-rule="evenodd" fill-opacity="0.5" stroke="#000000" stroke-opacity="0.5" stroke-width="3.2"/>
<circle clip-path="url(#clip732)" cx="1016.71" cy="1047.38" r="14.4" fill="#009af9" fill-rule="evenodd" fill-opacity="0.5" stroke="#000000" stroke-opacity="0.5" stroke-width="3.2"/>
<circle clip-path="url(#clip732)" cx="1643.93" cy="803.526" r="14.4" fill="#009af9" fill-rule="evenodd" fill-opacity="0.5" stroke="#000000" stroke-opacity="0.5" stroke-width="3.2"/>
<circle clip-path="url(#clip732)" cx="1443.96" cy="1063.25" r="14.4" fill="#009af9" fill-rule="evenodd" fill-opacity="0.5" stroke="#000000" stroke-opacity="0.5" stroke-width="3.2"/>
<circle clip-path="url(#clip732)" cx="1705.12" cy="722.275" r="14.4" fill="#009af9" fill-rule="evenodd" fill-opacity="0.5" stroke="#000000" stroke-opacity="0.5" stroke-width="3.2"/>
<circle clip-path="url(#clip732)" cx="1013.41" cy="87.9763" r="14.4" fill="#009af9" fill-rule="evenodd" fill-opacity="0.5" stroke="#000000" stroke-opacity="0.5" stroke-width="3.2"/>
<circle clip-path="url(#clip732)" cx="1664.88" cy="252.984" r="14.4" fill="#009af9" fill-rule="evenodd" fill-opacity="0.5" stroke="#000000" stroke-opacity="0.5" stroke-width="3.2"/>
<circle clip-path="url(#clip732)" cx="2018.28" cy="457.949" r="14.4" fill="#009af9" fill-rule="evenodd" fill-opacity="0.5" stroke="#000000" stroke-opacity="0.5" stroke-width="3.2"/>
<circle clip-path="url(#clip732)" cx="1155.14" cy="480.08" r="14.4" fill="#009af9" fill-rule="evenodd" fill-opacity="0.5" stroke="#000000" stroke-opacity="0.5" stroke-width="3.2"/>
<circle clip-path="url(#clip732)" cx="610.201" cy="431.594" r="14.4" fill="#009af9" fill-rule="evenodd" fill-opacity="0.5" stroke="#000000" stroke-opacity="0.5" stroke-width="3.2"/>
<path clip-path="url(#clip732)" d="M209.891 872.148 L908.957 1445.72 L1543.01 1262.38 L1920.92 1090.51 L2290.34 523.366 L1541.88 196.196 L1013.41 87.9763 L650.271 344.674 L209.891 872.148 L209.891 872.148  Z" fill="#e26f46" fill-rule="evenodd" fill-opacity="0.2"/>
<polyline clip-path="url(#clip732)" style="stroke:#000000; stroke-linecap:round; stroke-linejoin:round; stroke-width:4; stroke-opacity:0.2; fill:none" points="209.891,872.148 908.957,1445.72 1543.01,1262.38 1920.92,1090.51 2290.34,523.366 1541.88,196.196 1013.41,87.9763 650.271,344.674 209.891,872.148 "/>
</svg>
