<?xml version="1.0" encoding="utf-8"?>
<svg xmlns="http://www.w3.org/2000/svg" xmlns:xlink="http://www.w3.org/1999/xlink" width="600" height="400" viewBox="0 0 2400 1600">
<defs>
  <clipPath id="clip830">
    <rect x="0" y="0" width="2400" height="1600"/>
  </clipPath>
</defs>
<path clip-path="url(#clip830)" d="M0 1600 L2400 1600 L2400 0 L0 0  Z" fill="#ffffff" fill-rule="evenodd" fill-opacity="1"/>
<defs>
  <clipPath id="clip831">
    <rect x="480" y="0" width="1681" height="1600"/>
  </clipPath>
</defs>
<path clip-path="url(#clip830)" d="M147.478 1486.45 L2352.76 1486.45 L2352.76 47.2441 L147.478 47.2441  Z" fill="#ffffff" fill-rule="evenodd" fill-opacity="1"/>
<defs>
  <clipPath id="clip832">
    <rect x="147" y="47" width="2206" height="1440"/>
  </clipPath>
</defs>
<polyline clip-path="url(#clip832)" style="stroke:#000000; stroke-linecap:round; stroke-linejoin:round; stroke-width:2; stroke-opacity:0.1; fill:none" points="254.607,1486.45 254.607,47.2441 "/>
<polyline clip-path="url(#clip832)" style="stroke:#000000; stroke-linecap:round; stroke-linejoin:round; stroke-width:2; stroke-opacity:0.1; fill:none" points="810.916,1486.45 810.916,47.2441 "/>
<polyline clip-path="url(#clip832)" style="stroke:#000000; stroke-linecap:round; stroke-linejoin:round; stroke-width:2; stroke-opacity:0.1; fill:none" points="1367.23,1486.45 1367.23,47.2441 "/>
<polyline clip-path="url(#clip832)" style="stroke:#000000; stroke-linecap:round; stroke-linejoin:round; stroke-width:2; stroke-opacity:0.1; fill:none" points="1923.53,1486.45 1923.53,47.2441 "/>
<polyline clip-path="url(#clip830)" style="stroke:#000000; stroke-linecap:round; stroke-linejoin:round; stroke-width:4; stroke-opacity:1; fill:none" points="147.478,1486.45 2352.76,1486.45 "/>
<polyline clip-path="url(#clip830)" style="stroke:#000000; stroke-linecap:round; stroke-linejoin:round; stroke-width:4; stroke-opacity:1; fill:none" points="254.607,1486.45 254.607,1467.55 "/>
<polyline clip-path="url(#clip830)" style="stroke:#000000; stroke-linecap:round; stroke-linejoin:round; stroke-width:4; stroke-opacity:1; fill:none" points="810.916,1486.45 810.916,1467.55 "/>
<polyline clip-path="url(#clip830)" style="stroke:#000000; stroke-linecap:round; stroke-linejoin:round; stroke-width:4; stroke-opacity:1; fill:none" points="1367.23,1486.45 1367.23,1467.55 "/>
<polyline clip-path="url(#clip830)" style="stroke:#000000; stroke-linecap:round; stroke-linejoin:round; stroke-width:4; stroke-opacity:1; fill:none" points="1923.53,1486.45 1923.53,1467.55 "/>
<path clip-path="url(#clip830)" d="M224.364 1532.02 L254.04 1532.02 L254.04 1535.95 L224.364 1535.95 L224.364 1532.02 Z" fill="#000000" fill-rule="nonzero" fill-opacity="1" /><path clip-path="url(#clip830)" d="M264.943 1544.91 L272.581 1544.91 L272.581 1518.55 L264.271 1520.21 L264.271 1515.95 L272.535 1514.29 L277.211 1514.29 L277.211 1544.91 L284.85 1544.91 L284.85 1548.85 L264.943 1548.85 L264.943 1544.91 Z" fill="#000000" fill-rule="nonzero" fill-opacity="1" /><path clip-path="url(#clip830)" d="M810.916 1517.37 Q807.305 1517.37 805.476 1520.93 Q803.671 1524.47 803.671 1531.6 Q803.671 1538.71 805.476 1542.27 Q807.305 1545.82 810.916 1545.82 Q814.55 1545.82 816.356 1542.27 Q818.185 1538.71 818.185 1531.6 Q818.185 1524.47 816.356 1520.93 Q814.55 1517.37 810.916 1517.37 M810.916 1513.66 Q816.726 1513.66 819.782 1518.27 Q822.861 1522.85 822.861 1531.6 Q822.861 1540.33 819.782 1544.94 Q816.726 1549.52 810.916 1549.52 Q805.106 1549.52 802.027 1544.94 Q798.972 1540.33 798.972 1531.6 Q798.972 1522.85 802.027 1518.27 Q805.106 1513.66 810.916 1513.66 Z" fill="#000000" fill-rule="nonzero" fill-opacity="1" /><path clip-path="url(#clip830)" d="M1357.61 1544.91 L1365.25 1544.91 L1365.25 1518.55 L1356.94 1520.21 L1356.94 1515.95 L1365.2 1514.29 L1369.88 1514.29 L1369.88 1544.91 L1377.51 1544.91 L1377.51 1548.85 L1357.61 1548.85 L1357.61 1544.91 Z" fill="#000000" fill-rule="nonzero" fill-opacity="1" /><path clip-path="url(#clip830)" d="M1918.19 1544.91 L1934.51 1544.91 L1934.51 1548.85 L1912.56 1548.85 L1912.56 1544.91 Q1915.22 1542.16 1919.81 1537.53 Q1924.41 1532.88 1925.59 1531.53 Q1927.84 1529.01 1928.72 1527.27 Q1929.62 1525.51 1929.62 1523.82 Q1929.62 1521.07 1927.68 1519.33 Q1925.76 1517.6 1922.65 1517.6 Q1920.46 1517.6 1918 1518.36 Q1915.57 1519.13 1912.79 1520.68 L1912.79 1515.95 Q1915.62 1514.82 1918.07 1514.24 Q1920.53 1513.66 1922.56 1513.66 Q1927.93 1513.66 1931.13 1516.35 Q1934.32 1519.03 1934.32 1523.52 Q1934.32 1525.65 1933.51 1527.57 Q1932.72 1529.47 1930.62 1532.07 Q1930.04 1532.74 1926.94 1535.95 Q1923.84 1539.15 1918.19 1544.91 Z" fill="#000000" fill-rule="nonzero" fill-opacity="1" /><polyline clip-path="url(#clip832)" style="stroke:#000000; stroke-linecap:round; stroke-linejoin:round; stroke-width:2; stroke-opacity:0.1; fill:none" points="147.478,1174.43 2352.76,1174.43 "/>
<polyline clip-path="url(#clip832)" style="stroke:#000000; stroke-linecap:round; stroke-linejoin:round; stroke-width:2; stroke-opacity:0.1; fill:none" points="147.478,805.798 2352.76,805.798 "/>
<polyline clip-path="url(#clip832)" style="stroke:#000000; stroke-linecap:round; stroke-linejoin:round; stroke-width:2; stroke-opacity:0.1; fill:none" points="147.478,437.162 2352.76,437.162 "/>
<polyline clip-path="url(#clip832)" style="stroke:#000000; stroke-linecap:round; stroke-linejoin:round; stroke-width:2; stroke-opacity:0.1; fill:none" points="147.478,68.5266 2352.76,68.5266 "/>
<polyline clip-path="url(#clip830)" style="stroke:#000000; stroke-linecap:round; stroke-linejoin:round; stroke-width:4; stroke-opacity:1; fill:none" points="147.478,1486.45 147.478,47.2441 "/>
<polyline clip-path="url(#clip830)" style="stroke:#000000; stroke-linecap:round; stroke-linejoin:round; stroke-width:4; stroke-opacity:1; fill:none" points="147.478,1174.43 166.376,1174.43 "/>
<polyline clip-path="url(#clip830)" style="stroke:#000000; stroke-linecap:round; stroke-linejoin:round; stroke-width:4; stroke-opacity:1; fill:none" points="147.478,805.798 166.376,805.798 "/>
<polyline clip-path="url(#clip830)" style="stroke:#000000; stroke-linecap:round; stroke-linejoin:round; stroke-width:4; stroke-opacity:1; fill:none" points="147.478,437.162 166.376,437.162 "/>
<polyline clip-path="url(#clip830)" style="stroke:#000000; stroke-linecap:round; stroke-linejoin:round; stroke-width:4; stroke-opacity:1; fill:none" points="147.478,68.5266 166.376,68.5266 "/>
<path clip-path="url(#clip830)" d="M50.9921 1174.89 L80.6679 1174.89 L80.6679 1178.82 L50.9921 1178.82 L50.9921 1174.89 Z" fill="#000000" fill-rule="nonzero" fill-opacity="1" /><path clip-path="url(#clip830)" d="M91.5706 1187.78 L99.2095 1187.78 L99.2095 1161.41 L90.8993 1163.08 L90.8993 1158.82 L99.1632 1157.15 L103.839 1157.15 L103.839 1187.78 L111.478 1187.78 L111.478 1191.71 L91.5706 1191.71 L91.5706 1187.78 Z" fill="#000000" fill-rule="nonzero" fill-opacity="1" /><path clip-path="url(#clip830)" d="M99.5335 791.597 Q95.9224 791.597 94.0937 795.162 Q92.2882 798.703 92.2882 805.833 Q92.2882 812.939 94.0937 816.504 Q95.9224 820.046 99.5335 820.046 Q103.168 820.046 104.973 816.504 Q106.802 812.939 106.802 805.833 Q106.802 798.703 104.973 795.162 Q103.168 791.597 99.5335 791.597 M99.5335 787.893 Q105.344 787.893 108.399 792.5 Q111.478 797.083 111.478 805.833 Q111.478 814.56 108.399 819.166 Q105.344 823.749 99.5335 823.749 Q93.7234 823.749 90.6447 819.166 Q87.5892 814.56 87.5892 805.833 Q87.5892 797.083 90.6447 792.5 Q93.7234 787.893 99.5335 787.893 Z" fill="#000000" fill-rule="nonzero" fill-opacity="1" /><path clip-path="url(#clip830)" d="M91.5706 450.507 L99.2095 450.507 L99.2095 424.142 L90.8993 425.808 L90.8993 421.549 L99.1632 419.882 L103.839 419.882 L103.839 450.507 L111.478 450.507 L111.478 454.442 L91.5706 454.442 L91.5706 450.507 Z" fill="#000000" fill-rule="nonzero" fill-opacity="1" /><path clip-path="url(#clip830)" d="M95.1586 81.8714 L111.478 81.8714 L111.478 85.8066 L89.5336 85.8066 L89.5336 81.8714 Q92.1956 79.1168 96.7789 74.4872 Q101.385 69.8344 102.566 68.4919 Q104.811 65.9687 105.691 64.2326 Q106.594 62.4734 106.594 60.7836 Q106.594 58.0289 104.649 56.2928 Q102.728 54.5567 99.6261 54.5567 Q97.4271 54.5567 94.9734 55.3206 Q92.5428 56.0845 89.7651 57.6354 L89.7651 52.9132 Q92.5891 51.779 95.0428 51.2003 Q97.4965 50.6216 99.5335 50.6216 Q104.904 50.6216 108.098 53.3067 Q111.293 55.9919 111.293 60.4826 Q111.293 62.6123 110.483 64.5335 Q109.696 66.4317 107.589 69.0243 Q107.01 69.6955 103.909 72.9131 Q100.807 76.1076 95.1586 81.8714 Z" fill="#000000" fill-rule="nonzero" fill-opacity="1" /><circle clip-path="url(#clip832)" cx="884.092" cy="763.736" r="14.4" fill="#009af9" fill-rule="evenodd" fill-opacity="0.5" stroke="#000000" stroke-opacity="0.5" stroke-width="3.2"/>
<circle clip-path="url(#clip832)" cx="448.049" cy="1445.72" r="14.4" fill="#009af9" fill-rule="evenodd" fill-opacity="0.5" stroke="#000000" stroke-opacity="0.5" stroke-width="3.2"/>
<circle clip-path="url(#clip832)" cx="1403.25" cy="509.627" r="14.4" fill="#009af9" fill-rule="evenodd" fill-opacity="0.5" stroke="#000000" stroke-opacity="0.5" stroke-width="3.2"/>
<circle clip-path="url(#clip832)" cx="2290.34" cy="704.438" r="14.4" fill="#009af9" fill-rule="evenodd" fill-opacity="0.5" stroke="#000000" stroke-opacity="0.5" stroke-width="3.2"/>
<circle clip-path="url(#clip832)" cx="668.181" cy="898.552" r="14.4" fill="#009af9" fill-rule="evenodd" fill-opacity="0.5" stroke="#000000" stroke-opacity="0.5" stroke-width="3.2"/>
<circle clip-path="url(#clip832)" cx="853.553" cy="822.723" r="14.4" fill="#009af9" fill-rule="evenodd" fill-opacity="0.5" stroke="#000000" stroke-opacity="0.5" stroke-width="3.2"/>
<circle clip-path="url(#clip832)" cx="1015.77" cy="763.896" r="14.4" fill="#009af9" fill-rule="evenodd" fill-opacity="0.5" stroke="#000000" stroke-opacity="0.5" stroke-width="3.2"/>
<circle clip-path="url(#clip832)" cx="1299.54" cy="1142.12" r="14.4" fill="#009af9" fill-rule="evenodd" fill-opacity="0.5" stroke="#000000" stroke-opacity="0.5" stroke-width="3.2"/>
<circle clip-path="url(#clip832)" cx="209.891" cy="372.218" r="14.4" fill="#009af9" fill-rule="evenodd" fill-opacity="0.5" stroke="#000000" stroke-opacity="0.5" stroke-width="3.2"/>
<circle clip-path="url(#clip832)" cx="1268.8" cy="1325.42" r="14.4" fill="#009af9" fill-rule="evenodd" fill-opacity="0.5" stroke="#000000" stroke-opacity="0.5" stroke-width="3.2"/>
<circle clip-path="url(#clip832)" cx="570.846" cy="662.282" r="14.4" fill="#009af9" fill-rule="evenodd" fill-opacity="0.5" stroke="#000000" stroke-opacity="0.5" stroke-width="3.2"/>
<circle clip-path="url(#clip832)" cx="1495.73" cy="1139.95" r="14.4" fill="#009af9" fill-rule="evenodd" fill-opacity="0.5" stroke="#000000" stroke-opacity="0.5" stroke-width="3.2"/>
<circle clip-path="url(#clip832)" cx="1550.61" cy="1161.87" r="14.4" fill="#009af9" fill-rule="evenodd" fill-opacity="0.5" stroke="#000000" stroke-opacity="0.5" stroke-width="3.2"/>
<circle clip-path="url(#clip832)" cx="669.383" cy="1213.55" r="14.4" fill="#009af9" fill-rule="evenodd" fill-opacity="0.5" stroke="#000000" stroke-opacity="0.5" stroke-width="3.2"/>
<circle clip-path="url(#clip832)" cx="1172.69" cy="361.585" r="14.4" fill="#009af9" fill-rule="evenodd" fill-opacity="0.5" stroke="#000000" stroke-opacity="0.5" stroke-width="3.2"/>
<circle clip-path="url(#clip832)" cx="703.435" cy="87.9763" r="14.4" fill="#009af9" fill-rule="evenodd" fill-opacity="0.5" stroke="#000000" stroke-opacity="0.5" stroke-width="3.2"/>
<circle clip-path="url(#clip832)" cx="425.938" cy="872.969" r="14.4" fill="#009af9" fill-rule="evenodd" fill-opacity="0.5" stroke="#000000" stroke-opacity="0.5" stroke-width="3.2"/>
<circle clip-path="url(#clip832)" cx="890.8" cy="713.01" r="14.4" fill="#009af9" fill-rule="evenodd" fill-opacity="0.5" stroke="#000000" stroke-opacity="0.5" stroke-width="3.2"/>
<circle clip-path="url(#clip832)" cx="1421.99" cy="635.941" r="14.4" fill="#009af9" fill-rule="evenodd" fill-opacity="0.5" stroke="#000000" stroke-opacity="0.5" stroke-width="3.2"/>
<circle clip-path="url(#clip832)" cx="635.624" cy="995.697" r="14.4" fill="#009af9" fill-rule="evenodd" fill-opacity="0.5" stroke="#000000" stroke-opacity="0.5" stroke-width="3.2"/>
<circle clip-path="url(#clip832)" cx="1592.79" cy="982.192" r="14.4" fill="#009af9" fill-rule="evenodd" fill-opacity="0.5" stroke="#000000" stroke-opacity="0.5" stroke-width="3.2"/>
<circle clip-path="url(#clip832)" cx="741.225" cy="1070.62" r="14.4" fill="#009af9" fill-rule="evenodd" fill-opacity="0.5" stroke="#000000" stroke-opacity="0.5" stroke-width="3.2"/>
<circle clip-path="url(#clip832)" cx="262.651" cy="1036.58" r="14.4" fill="#009af9" fill-rule="evenodd" fill-opacity="0.5" stroke="#000000" stroke-opacity="0.5" stroke-width="3.2"/>
<circle clip-path="url(#clip832)" cx="315.813" cy="459.574" r="14.4" fill="#009af9" fill-rule="evenodd" fill-opacity="0.5" stroke="#000000" stroke-opacity="0.5" stroke-width="3.2"/>
<circle clip-path="url(#clip832)" cx="860.711" cy="908.337" r="14.4" fill="#009af9" fill-rule="evenodd" fill-opacity="0.5" stroke="#000000" stroke-opacity="0.5" stroke-width="3.2"/>
<circle clip-path="url(#clip832)" cx="1190.79" cy="1428.55" r="14.4" fill="#009af9" fill-rule="evenodd" fill-opacity="0.5" stroke="#000000" stroke-opacity="0.5" stroke-width="3.2"/>
<circle clip-path="url(#clip832)" cx="828.464" cy="847.205" r="14.4" fill="#009af9" fill-rule="evenodd" fill-opacity="0.5" stroke="#000000" stroke-opacity="0.5" stroke-width="3.2"/>
<circle clip-path="url(#clip832)" cx="1150.42" cy="610.758" r="14.4" fill="#009af9" fill-rule="evenodd" fill-opacity="0.5" stroke="#000000" stroke-opacity="0.5" stroke-width="3.2"/>
<circle clip-path="url(#clip832)" cx="719.424" cy="1078.12" r="14.4" fill="#009af9" fill-rule="evenodd" fill-opacity="0.5" stroke="#000000" stroke-opacity="0.5" stroke-width="3.2"/>
<circle clip-path="url(#clip832)" cx="328.286" cy="348.482" r="14.4" fill="#009af9" fill-rule="evenodd" fill-opacity="0.5" stroke="#000000" stroke-opacity="0.5" stroke-width="3.2"/>
<path clip-path="url(#clip832)" d="M209.891 372.218 L262.651 1036.58 L448.049 1445.72 L1190.79 1428.55 L2290.34 704.438 L703.435 87.9763 L209.891 372.218 L209.891 372.218  Z" fill="#e26f46" fill-rule="evenodd" fill-opacity="0.2"/>
<polyline clip-path="url(#clip832)" style="stroke:#000000; stroke-linecap:round; stroke-linejoin:round; stroke-width:4; stroke-opacity:0.2; fill:none" points="209.891,372.218 262.651,1036.58 448.049,1445.72 1190.79,1428.55 2290.34,704.438 703.435,87.9763 209.891,372.218 "/>
</svg>
