<?xml version="1.0" encoding="utf-8"?>
<svg xmlns="http://www.w3.org/2000/svg" xmlns:xlink="http://www.w3.org/1999/xlink" width="600" height="400" viewBox="0 0 2400 1600">
<defs>
  <clipPath id="clip230">
    <rect x="0" y="0" width="2400" height="1600"/>
  </clipPath>
</defs>
<path clip-path="url(#clip230)" d="M0 1600 L2400 1600 L2400 0 L0 0  Z" fill="#ffffff" fill-rule="evenodd" fill-opacity="1"/>
<defs>
  <clipPath id="clip231">
    <rect x="480" y="0" width="1681" height="1600"/>
  </clipPath>
</defs>
<path clip-path="url(#clip230)" d="M147.478 1486.45 L2352.76 1486.45 L2352.76 47.2441 L147.478 47.2441  Z" fill="#ffffff" fill-rule="evenodd" fill-opacity="1"/>
<defs>
  <clipPath id="clip232">
    <rect x="147" y="47" width="2206" height="1440"/>
  </clipPath>
</defs>
<polyline clip-path="url(#clip232)" style="stroke:#000000; stroke-linecap:round; stroke-linejoin:round; stroke-width:2; stroke-opacity:0.1; fill:none" points="543.624,1486.45 543.624,47.2441 "/>
<polyline clip-path="url(#clip232)" style="stroke:#000000; stroke-linecap:round; stroke-linejoin:round; stroke-width:2; stroke-opacity:0.1; fill:none" points="1046.85,1486.45 1046.85,47.2441 "/>
<polyline clip-path="url(#clip232)" style="stroke:#000000; stroke-linecap:round; stroke-linejoin:round; stroke-width:2; stroke-opacity:0.1; fill:none" points="1550.07,1486.45 1550.07,47.2441 "/>
<polyline clip-path="url(#clip232)" style="stroke:#000000; stroke-linecap:round; stroke-linejoin:round; stroke-width:2; stroke-opacity:0.1; fill:none" points="2053.3,1486.45 2053.3,47.2441 "/>
<polyline clip-path="url(#clip232)" style="stroke:#000000; stroke-linecap:round; stroke-linejoin:round; stroke-width:2; stroke-opacity:0.1; fill:none" points="147.478,1364.75 2352.76,1364.75 "/>
<polyline clip-path="url(#clip232)" style="stroke:#000000; stroke-linecap:round; stroke-linejoin:round; stroke-width:2; stroke-opacity:0.1; fill:none" points="147.478,991.907 2352.76,991.907 "/>
<polyline clip-path="url(#clip232)" style="stroke:#000000; stroke-linecap:round; stroke-linejoin:round; stroke-width:2; stroke-opacity:0.1; fill:none" points="147.478,619.063 2352.76,619.063 "/>
<polyline clip-path="url(#clip232)" style="stroke:#000000; stroke-linecap:round; stroke-linejoin:round; stroke-width:2; stroke-opacity:0.1; fill:none" points="147.478,246.219 2352.76,246.219 "/>
<polyline clip-path="url(#clip230)" style="stroke:#000000; stroke-linecap:round; stroke-linejoin:round; stroke-width:4; stroke-opacity:1; fill:none" points="147.478,1486.45 2352.76,1486.45 "/>
<polyline clip-path="url(#clip230)" style="stroke:#000000; stroke-linecap:round; stroke-linejoin:round; stroke-width:4; stroke-opacity:1; fill:none" points="543.624,1486.45 543.624,1467.55 "/>
<polyline clip-path="url(#clip230)" style="stroke:#000000; stroke-linecap:round; stroke-linejoin:round; stroke-width:4; stroke-opacity:1; fill:none" points="1046.85,1486.45 1046.85,1467.55 "/>
<polyline clip-path="url(#clip230)" style="stroke:#000000; stroke-linecap:round; stroke-linejoin:round; stroke-width:4; stroke-opacity:1; fill:none" points="1550.07,1486.45 1550.07,1467.55 "/>
<polyline clip-path="url(#clip230)" style="stroke:#000000; stroke-linecap:round; stroke-linejoin:round; stroke-width:4; stroke-opacity:1; fill:none" points="2053.3,1486.45 2053.3,1467.55 "/>
<path clip-path="url(#clip230)" d="M513.382 1532.02 L543.057 1532.02 L543.057 1535.95 L513.382 1535.95 L513.382 1532.02 Z" fill="#000000" fill-rule="nonzero" fill-opacity="1" /><path clip-path="url(#clip230)" d="M553.96 1544.91 L561.599 1544.91 L561.599 1518.55 L553.289 1520.21 L553.289 1515.95 L561.553 1514.29 L566.228 1514.29 L566.228 1544.91 L573.867 1544.91 L573.867 1548.85 L553.96 1548.85 L553.96 1544.91 Z" fill="#000000" fill-rule="nonzero" fill-opacity="1" /><path clip-path="url(#clip230)" d="M1046.85 1517.37 Q1043.24 1517.37 1041.41 1520.93 Q1039.6 1524.47 1039.6 1531.6 Q1039.6 1538.71 1041.41 1542.27 Q1043.24 1545.82 1046.85 1545.82 Q1050.48 1545.82 1052.29 1542.27 Q1054.12 1538.71 1054.12 1531.6 Q1054.12 1524.47 1052.29 1520.93 Q1050.48 1517.37 1046.85 1517.37 M1046.85 1513.66 Q1052.66 1513.66 1055.71 1518.27 Q1058.79 1522.85 1058.79 1531.6 Q1058.79 1540.33 1055.71 1544.94 Q1052.66 1549.52 1046.85 1549.52 Q1041.04 1549.52 1037.96 1544.94 Q1034.9 1540.33 1034.9 1531.6 Q1034.9 1522.85 1037.96 1518.27 Q1041.04 1513.66 1046.85 1513.66 Z" fill="#000000" fill-rule="nonzero" fill-opacity="1" /><path clip-path="url(#clip230)" d="M1540.45 1544.91 L1548.09 1544.91 L1548.09 1518.55 L1539.78 1520.21 L1539.78 1515.95 L1548.05 1514.29 L1552.72 1514.29 L1552.72 1544.91 L1560.36 1544.91 L1560.36 1548.85 L1540.45 1548.85 L1540.45 1544.91 Z" fill="#000000" fill-rule="nonzero" fill-opacity="1" /><path clip-path="url(#clip230)" d="M2047.95 1544.91 L2064.27 1544.91 L2064.27 1548.85 L2042.32 1548.85 L2042.32 1544.91 Q2044.99 1542.16 2049.57 1537.53 Q2054.18 1532.88 2055.36 1531.53 Q2057.6 1529.01 2058.48 1527.27 Q2059.38 1525.51 2059.38 1523.82 Q2059.38 1521.07 2057.44 1519.33 Q2055.52 1517.6 2052.42 1517.6 Q2050.22 1517.6 2047.76 1518.36 Q2045.33 1519.13 2042.56 1520.68 L2042.56 1515.95 Q2045.38 1514.82 2047.83 1514.24 Q2050.29 1513.66 2052.32 1513.66 Q2057.69 1513.66 2060.89 1516.35 Q2064.08 1519.03 2064.08 1523.52 Q2064.08 1525.65 2063.27 1527.57 Q2062.49 1529.47 2060.38 1532.07 Q2059.8 1532.74 2056.7 1535.95 Q2053.6 1539.15 2047.95 1544.91 Z" fill="#000000" fill-rule="nonzero" fill-opacity="1" /><polyline clip-path="url(#clip230)" style="stroke:#000000; stroke-linecap:round; stroke-linejoin:round; stroke-width:4; stroke-opacity:1; fill:none" points="147.478,1486.45 147.478,47.2441 "/>
<polyline clip-path="url(#clip230)" style="stroke:#000000; stroke-linecap:round; stroke-linejoin:round; stroke-width:4; stroke-opacity:1; fill:none" points="147.478,1364.75 166.376,1364.75 "/>
<polyline clip-path="url(#clip230)" style="stroke:#000000; stroke-linecap:round; stroke-linejoin:round; stroke-width:4; stroke-opacity:1; fill:none" points="147.478,991.907 166.376,991.907 "/>
<polyline clip-path="url(#clip230)" style="stroke:#000000; stroke-linecap:round; stroke-linejoin:round; stroke-width:4; stroke-opacity:1; fill:none" points="147.478,619.063 166.376,619.063 "/>
<polyline clip-path="url(#clip230)" style="stroke:#000000; stroke-linecap:round; stroke-linejoin:round; stroke-width:4; stroke-opacity:1; fill:none" points="147.478,246.219 166.376,246.219 "/>
<path clip-path="url(#clip230)" d="M51.3625 1365.2 L81.0383 1365.2 L81.0383 1369.14 L51.3625 1369.14 L51.3625 1365.2 Z" fill="#000000" fill-rule="nonzero" fill-opacity="1" /><path clip-path="url(#clip230)" d="M95.1586 1378.1 L111.478 1378.1 L111.478 1382.03 L89.5336 1382.03 L89.5336 1378.1 Q92.1956 1375.34 96.7789 1370.71 Q101.385 1366.06 102.566 1364.72 Q104.811 1362.19 105.691 1360.46 Q106.594 1358.7 106.594 1357.01 Q106.594 1354.25 104.649 1352.52 Q102.728 1350.78 99.6261 1350.78 Q97.4271 1350.78 94.9734 1351.55 Q92.5428 1352.31 89.7651 1353.86 L89.7651 1349.14 Q92.5891 1348 95.0428 1347.43 Q97.4965 1346.85 99.5335 1346.85 Q104.904 1346.85 108.098 1349.53 Q111.293 1352.22 111.293 1356.71 Q111.293 1358.84 110.483 1360.76 Q109.696 1362.66 107.589 1365.25 Q107.01 1365.92 103.909 1369.14 Q100.807 1372.33 95.1586 1378.1 Z" fill="#000000" fill-rule="nonzero" fill-opacity="1" /><path clip-path="url(#clip230)" d="M50.9921 992.359 L80.6679 992.359 L80.6679 996.294 L50.9921 996.294 L50.9921 992.359 Z" fill="#000000" fill-rule="nonzero" fill-opacity="1" /><path clip-path="url(#clip230)" d="M91.5706 1005.25 L99.2095 1005.25 L99.2095 978.887 L90.8993 980.553 L90.8993 976.294 L99.1632 974.627 L103.839 974.627 L103.839 1005.25 L111.478 1005.25 L111.478 1009.19 L91.5706 1009.19 L91.5706 1005.25 Z" fill="#000000" fill-rule="nonzero" fill-opacity="1" /><path clip-path="url(#clip230)" d="M99.5335 604.862 Q95.9224 604.862 94.0937 608.427 Q92.2882 611.968 92.2882 619.098 Q92.2882 626.204 94.0937 629.769 Q95.9224 633.311 99.5335 633.311 Q103.168 633.311 104.973 629.769 Q106.802 626.204 106.802 619.098 Q106.802 611.968 104.973 608.427 Q103.168 604.862 99.5335 604.862 M99.5335 601.158 Q105.344 601.158 108.399 605.765 Q111.478 610.348 111.478 619.098 Q111.478 627.825 108.399 632.431 Q105.344 637.015 99.5335 637.015 Q93.7234 637.015 90.6447 632.431 Q87.5892 627.825 87.5892 619.098 Q87.5892 610.348 90.6447 605.765 Q93.7234 601.158 99.5335 601.158 Z" fill="#000000" fill-rule="nonzero" fill-opacity="1" /><path clip-path="url(#clip230)" d="M91.5706 259.564 L99.2095 259.564 L99.2095 233.198 L90.8993 234.865 L90.8993 230.606 L99.1632 228.939 L103.839 228.939 L103.839 259.564 L111.478 259.564 L111.478 263.499 L91.5706 263.499 L91.5706 259.564 Z" fill="#000000" fill-rule="nonzero" fill-opacity="1" /><circle clip-path="url(#clip232)" cx="748.812" cy="1121.93" r="14.4" fill="#009af9" fill-rule="evenodd" fill-opacity="0.5" stroke="#000000" stroke-opacity="0.5" stroke-width="3.2"/>
<circle clip-path="url(#clip232)" cx="628.275" cy="953.778" r="14.4" fill="#009af9" fill-rule="evenodd" fill-opacity="0.5" stroke="#000000" stroke-opacity="0.5" stroke-width="3.2"/>
<circle clip-path="url(#clip232)" cx="1184" cy="654.089" r="14.4" fill="#009af9" fill-rule="evenodd" fill-opacity="0.5" stroke="#000000" stroke-opacity="0.5" stroke-width="3.2"/>
<circle clip-path="url(#clip232)" cx="473.071" cy="620.364" r="14.4" fill="#009af9" fill-rule="evenodd" fill-opacity="0.5" stroke="#000000" stroke-opacity="0.5" stroke-width="3.2"/>
<circle clip-path="url(#clip232)" cx="1070.14" cy="689.178" r="14.4" fill="#009af9" fill-rule="evenodd" fill-opacity="0.5" stroke="#000000" stroke-opacity="0.5" stroke-width="3.2"/>
<circle clip-path="url(#clip232)" cx="405.122" cy="585.687" r="14.4" fill="#009af9" fill-rule="evenodd" fill-opacity="0.5" stroke="#000000" stroke-opacity="0.5" stroke-width="3.2"/>
<circle clip-path="url(#clip232)" cx="388.416" cy="380.843" r="14.4" fill="#009af9" fill-rule="evenodd" fill-opacity="0.5" stroke="#000000" stroke-opacity="0.5" stroke-width="3.2"/>
<circle clip-path="url(#clip232)" cx="1019.21" cy="817.067" r="14.4" fill="#009af9" fill-rule="evenodd" fill-opacity="0.5" stroke="#000000" stroke-opacity="0.5" stroke-width="3.2"/>
<circle clip-path="url(#clip232)" cx="2290.34" cy="717.598" r="14.4" fill="#009af9" fill-rule="evenodd" fill-opacity="0.5" stroke="#000000" stroke-opacity="0.5" stroke-width="3.2"/>
<circle clip-path="url(#clip232)" cx="1206.07" cy="604.613" r="14.4" fill="#009af9" fill-rule="evenodd" fill-opacity="0.5" stroke="#000000" stroke-opacity="0.5" stroke-width="3.2"/>
<circle clip-path="url(#clip232)" cx="776.363" cy="574.021" r="14.4" fill="#009af9" fill-rule="evenodd" fill-opacity="0.5" stroke="#000000" stroke-opacity="0.5" stroke-width="3.2"/>
<circle clip-path="url(#clip232)" cx="1044.09" cy="980.985" r="14.4" fill="#009af9" fill-rule="evenodd" fill-opacity="0.5" stroke="#000000" stroke-opacity="0.5" stroke-width="3.2"/>
<circle clip-path="url(#clip232)" cx="1344.73" cy="237.694" r="14.4" fill="#009af9" fill-rule="evenodd" fill-opacity="0.5" stroke="#000000" stroke-opacity="0.5" stroke-width="3.2"/>
<circle clip-path="url(#clip232)" cx="703.341" cy="842.264" r="14.4" fill="#009af9" fill-rule="evenodd" fill-opacity="0.5" stroke="#000000" stroke-opacity="0.5" stroke-width="3.2"/>
<circle clip-path="url(#clip232)" cx="1295.64" cy="803.82" r="14.4" fill="#009af9" fill-rule="evenodd" fill-opacity="0.5" stroke="#000000" stroke-opacity="0.5" stroke-width="3.2"/>
<circle clip-path="url(#clip232)" cx="1113.89" cy="1196.11" r="14.4" fill="#009af9" fill-rule="evenodd" fill-opacity="0.5" stroke="#000000" stroke-opacity="0.5" stroke-width="3.2"/>
<circle clip-path="url(#clip232)" cx="963.816" cy="385.522" r="14.4" fill="#009af9" fill-rule="evenodd" fill-opacity="0.5" stroke="#000000" stroke-opacity="0.5" stroke-width="3.2"/>
<circle clip-path="url(#clip232)" cx="597.363" cy="394.491" r="14.4" fill="#009af9" fill-rule="evenodd" fill-opacity="0.5" stroke="#000000" stroke-opacity="0.5" stroke-width="3.2"/>
<circle clip-path="url(#clip232)" cx="1309.01" cy="1445.72" r="14.4" fill="#009af9" fill-rule="evenodd" fill-opacity="0.5" stroke="#000000" stroke-opacity="0.5" stroke-width="3.2"/>
<circle clip-path="url(#clip232)" cx="1011.64" cy="715.174" r="14.4" fill="#009af9" fill-rule="evenodd" fill-opacity="0.5" stroke="#000000" stroke-opacity="0.5" stroke-width="3.2"/>
<circle clip-path="url(#clip232)" cx="419.894" cy="160.952" r="14.4" fill="#009af9" fill-rule="evenodd" fill-opacity="0.5" stroke="#000000" stroke-opacity="0.5" stroke-width="3.2"/>
<circle clip-path="url(#clip232)" cx="209.891" cy="1123.77" r="14.4" fill="#009af9" fill-rule="evenodd" fill-opacity="0.5" stroke="#000000" stroke-opacity="0.5" stroke-width="3.2"/>
<circle clip-path="url(#clip232)" cx="1346.09" cy="781.088" r="14.4" fill="#009af9" fill-rule="evenodd" fill-opacity="0.5" stroke="#000000" stroke-opacity="0.5" stroke-width="3.2"/>
<circle clip-path="url(#clip232)" cx="1619.96" cy="87.9763" r="14.4" fill="#009af9" fill-rule="evenodd" fill-opacity="0.5" stroke="#000000" stroke-opacity="0.5" stroke-width="3.2"/>
<circle clip-path="url(#clip232)" cx="853.744" cy="988.459" r="14.4" fill="#009af9" fill-rule="evenodd" fill-opacity="0.5" stroke="#000000" stroke-opacity="0.5" stroke-width="3.2"/>
<circle clip-path="url(#clip232)" cx="365.607" cy="395.391" r="14.4" fill="#009af9" fill-rule="evenodd" fill-opacity="0.5" stroke="#000000" stroke-opacity="0.5" stroke-width="3.2"/>
<circle clip-path="url(#clip232)" cx="1437.49" cy="1169.3" r="14.4" fill="#009af9" fill-rule="evenodd" fill-opacity="0.5" stroke="#000000" stroke-opacity="0.5" stroke-width="3.2"/>
<circle clip-path="url(#clip232)" cx="1211.01" cy="359.909" r="14.4" fill="#009af9" fill-rule="evenodd" fill-opacity="0.5" stroke="#000000" stroke-opacity="0.5" stroke-width="3.2"/>
<circle clip-path="url(#clip232)" cx="1343.9" cy="449.703" r="14.4" fill="#009af9" fill-rule="evenodd" fill-opacity="0.5" stroke="#000000" stroke-opacity="0.5" stroke-width="3.2"/>
<circle clip-path="url(#clip232)" cx="1311.08" cy="461.781" r="14.4" fill="#009af9" fill-rule="evenodd" fill-opacity="0.5" stroke="#000000" stroke-opacity="0.5" stroke-width="3.2"/>
<path clip-path="url(#clip232)" d="M209.891 1123.77 L1309.01 1445.72 L2290.34 717.598 L1619.96 87.9763 L419.894 160.952 L365.607 395.391 L209.891 1123.77 L209.891 1123.77  Z" fill="#e26f46" fill-rule="evenodd" fill-opacity="0.2"/>
<polyline clip-path="url(#clip232)" style="stroke:#000000; stroke-linecap:round; stroke-linejoin:round; stroke-width:4; stroke-opacity:0.2; fill:none" points="209.891,1123.77 1309.01,1445.72 2290.34,717.598 1619.96,87.9763 419.894,160.952 365.607,395.391 209.891,1123.77 "/>
</svg>
