<?xml version="1.0" encoding="utf-8"?>
<svg xmlns="http://www.w3.org/2000/svg" xmlns:xlink="http://www.w3.org/1999/xlink" width="600" height="400" viewBox="0 0 2400 1600">
<defs>
  <clipPath id="clip560">
    <rect x="0" y="0" width="2400" height="1600"/>
  </clipPath>
</defs>
<path clip-path="url(#clip560)" d="M0 1600 L2400 1600 L2400 0 L0 0  Z" fill="#ffffff" fill-rule="evenodd" fill-opacity="1"/>
<defs>
  <clipPath id="clip561">
    <rect x="480" y="0" width="1681" height="1600"/>
  </clipPath>
</defs>
<path clip-path="url(#clip560)" d="M147.478 1486.45 L2352.76 1486.45 L2352.76 47.2441 L147.478 47.2441  Z" fill="#ffffff" fill-rule="evenodd" fill-opacity="1"/>
<defs>
  <clipPath id="clip562">
    <rect x="147" y="47" width="2206" height="1440"/>
  </clipPath>
</defs>
<polyline clip-path="url(#clip562)" style="stroke:#000000; stroke-linecap:round; stroke-linejoin:round; stroke-width:2; stroke-opacity:0.1; fill:none" points="310.046,1486.45 310.046,47.2441 "/>
<polyline clip-path="url(#clip562)" style="stroke:#000000; stroke-linecap:round; stroke-linejoin:round; stroke-width:2; stroke-opacity:0.1; fill:none" points="604.65,1486.45 604.65,47.2441 "/>
<polyline clip-path="url(#clip562)" style="stroke:#000000; stroke-linecap:round; stroke-linejoin:round; stroke-width:2; stroke-opacity:0.1; fill:none" points="899.254,1486.45 899.254,47.2441 "/>
<polyline clip-path="url(#clip562)" style="stroke:#000000; stroke-linecap:round; stroke-linejoin:round; stroke-width:2; stroke-opacity:0.1; fill:none" points="1193.86,1486.45 1193.86,47.2441 "/>
<polyline clip-path="url(#clip562)" style="stroke:#000000; stroke-linecap:round; stroke-linejoin:round; stroke-width:2; stroke-opacity:0.1; fill:none" points="1488.46,1486.45 1488.46,47.2441 "/>
<polyline clip-path="url(#clip562)" style="stroke:#000000; stroke-linecap:round; stroke-linejoin:round; stroke-width:2; stroke-opacity:0.1; fill:none" points="1783.07,1486.45 1783.07,47.2441 "/>
<polyline clip-path="url(#clip562)" style="stroke:#000000; stroke-linecap:round; stroke-linejoin:round; stroke-width:2; stroke-opacity:0.1; fill:none" points="2077.67,1486.45 2077.67,47.2441 "/>
<polyline clip-path="url(#clip562)" style="stroke:#000000; stroke-linecap:round; stroke-linejoin:round; stroke-width:2; stroke-opacity:0.1; fill:none" points="147.478,1321.57 2352.76,1321.57 "/>
<polyline clip-path="url(#clip562)" style="stroke:#000000; stroke-linecap:round; stroke-linejoin:round; stroke-width:2; stroke-opacity:0.1; fill:none" points="147.478,950.89 2352.76,950.89 "/>
<polyline clip-path="url(#clip562)" style="stroke:#000000; stroke-linecap:round; stroke-linejoin:round; stroke-width:2; stroke-opacity:0.1; fill:none" points="147.478,580.214 2352.76,580.214 "/>
<polyline clip-path="url(#clip562)" style="stroke:#000000; stroke-linecap:round; stroke-linejoin:round; stroke-width:2; stroke-opacity:0.1; fill:none" points="147.478,209.538 2352.76,209.538 "/>
<polyline clip-path="url(#clip560)" style="stroke:#000000; stroke-linecap:round; stroke-linejoin:round; stroke-width:4; stroke-opacity:1; fill:none" points="147.478,1486.45 2352.76,1486.45 "/>
<polyline clip-path="url(#clip560)" style="stroke:#000000; stroke-linecap:round; stroke-linejoin:round; stroke-width:4; stroke-opacity:1; fill:none" points="310.046,1486.45 310.046,1467.55 "/>
<polyline clip-path="url(#clip560)" style="stroke:#000000; stroke-linecap:round; stroke-linejoin:round; stroke-width:4; stroke-opacity:1; fill:none" points="604.65,1486.45 604.65,1467.55 "/>
<polyline clip-path="url(#clip560)" style="stroke:#000000; stroke-linecap:round; stroke-linejoin:round; stroke-width:4; stroke-opacity:1; fill:none" points="899.254,1486.45 899.254,1467.55 "/>
<polyline clip-path="url(#clip560)" style="stroke:#000000; stroke-linecap:round; stroke-linejoin:round; stroke-width:4; stroke-opacity:1; fill:none" points="1193.86,1486.45 1193.86,1467.55 "/>
<polyline clip-path="url(#clip560)" style="stroke:#000000; stroke-linecap:round; stroke-linejoin:round; stroke-width:4; stroke-opacity:1; fill:none" points="1488.46,1486.45 1488.46,1467.55 "/>
<polyline clip-path="url(#clip560)" style="stroke:#000000; stroke-linecap:round; stroke-linejoin:round; stroke-width:4; stroke-opacity:1; fill:none" points="1783.07,1486.45 1783.07,1467.55 "/>
<polyline clip-path="url(#clip560)" style="stroke:#000000; stroke-linecap:round; stroke-linejoin:round; stroke-width:4; stroke-opacity:1; fill:none" points="2077.67,1486.45 2077.67,1467.55 "/>
<path clip-path="url(#clip560)" d="M257.072 1532.02 L286.748 1532.02 L286.748 1535.95 L257.072 1535.95 L257.072 1532.02 Z" fill="#000000" fill-rule="nonzero" fill-opacity="1" /><path clip-path="url(#clip560)" d="M297.651 1544.91 L305.289 1544.91 L305.289 1518.55 L296.979 1520.21 L296.979 1515.95 L305.243 1514.29 L309.919 1514.29 L309.919 1544.91 L317.558 1544.91 L317.558 1548.85 L297.651 1548.85 L297.651 1544.91 Z" fill="#000000" fill-rule="nonzero" fill-opacity="1" /><path clip-path="url(#clip560)" d="M327.002 1542.97 L331.886 1542.97 L331.886 1548.85 L327.002 1548.85 L327.002 1542.97 Z" fill="#000000" fill-rule="nonzero" fill-opacity="1" /><path clip-path="url(#clip560)" d="M342.118 1514.29 L360.474 1514.29 L360.474 1518.22 L346.4 1518.22 L346.4 1526.7 Q347.419 1526.35 348.437 1526.19 Q349.456 1526 350.474 1526 Q356.261 1526 359.641 1529.17 Q363.021 1532.34 363.021 1537.76 Q363.021 1543.34 359.548 1546.44 Q356.076 1549.52 349.757 1549.52 Q347.581 1549.52 345.312 1549.15 Q343.067 1548.78 340.66 1548.04 L340.66 1543.34 Q342.743 1544.47 344.965 1545.03 Q347.187 1545.58 349.664 1545.58 Q353.669 1545.58 356.007 1543.48 Q358.345 1541.37 358.345 1537.76 Q358.345 1534.15 356.007 1532.04 Q353.669 1529.94 349.664 1529.94 Q347.789 1529.94 345.914 1530.35 Q344.062 1530.77 342.118 1531.65 L342.118 1514.29 Z" fill="#000000" fill-rule="nonzero" fill-opacity="1" /><path clip-path="url(#clip560)" d="M551.178 1532.02 L580.854 1532.02 L580.854 1535.95 L551.178 1535.95 L551.178 1532.02 Z" fill="#000000" fill-rule="nonzero" fill-opacity="1" /><path clip-path="url(#clip560)" d="M591.757 1544.91 L599.396 1544.91 L599.396 1518.55 L591.086 1520.21 L591.086 1515.95 L599.349 1514.29 L604.025 1514.29 L604.025 1544.91 L611.664 1544.91 L611.664 1548.85 L591.757 1548.85 L591.757 1544.91 Z" fill="#000000" fill-rule="nonzero" fill-opacity="1" /><path clip-path="url(#clip560)" d="M621.109 1542.97 L625.993 1542.97 L625.993 1548.85 L621.109 1548.85 L621.109 1542.97 Z" fill="#000000" fill-rule="nonzero" fill-opacity="1" /><path clip-path="url(#clip560)" d="M646.178 1517.37 Q642.567 1517.37 640.738 1520.93 Q638.933 1524.47 638.933 1531.6 Q638.933 1538.71 640.738 1542.27 Q642.567 1545.82 646.178 1545.82 Q649.812 1545.82 651.618 1542.27 Q653.446 1538.71 653.446 1531.6 Q653.446 1524.47 651.618 1520.93 Q649.812 1517.37 646.178 1517.37 M646.178 1513.66 Q651.988 1513.66 655.044 1518.27 Q658.122 1522.85 658.122 1531.6 Q658.122 1540.33 655.044 1544.94 Q651.988 1549.52 646.178 1549.52 Q640.368 1549.52 637.289 1544.94 Q634.233 1540.33 634.233 1531.6 Q634.233 1522.85 637.289 1518.27 Q640.368 1513.66 646.178 1513.66 Z" fill="#000000" fill-rule="nonzero" fill-opacity="1" /><path clip-path="url(#clip560)" d="M846.28 1532.02 L875.956 1532.02 L875.956 1535.95 L846.28 1535.95 L846.28 1532.02 Z" fill="#000000" fill-rule="nonzero" fill-opacity="1" /><path clip-path="url(#clip560)" d="M896.048 1517.37 Q892.437 1517.37 890.609 1520.93 Q888.803 1524.47 888.803 1531.6 Q888.803 1538.71 890.609 1542.27 Q892.437 1545.82 896.048 1545.82 Q899.683 1545.82 901.488 1542.27 Q903.317 1538.71 903.317 1531.6 Q903.317 1524.47 901.488 1520.93 Q899.683 1517.37 896.048 1517.37 M896.048 1513.66 Q901.858 1513.66 904.914 1518.27 Q907.993 1522.85 907.993 1531.6 Q907.993 1540.33 904.914 1544.94 Q901.858 1549.52 896.048 1549.52 Q890.238 1549.52 887.159 1544.94 Q884.104 1540.33 884.104 1531.6 Q884.104 1522.85 887.159 1518.27 Q890.238 1513.66 896.048 1513.66 Z" fill="#000000" fill-rule="nonzero" fill-opacity="1" /><path clip-path="url(#clip560)" d="M916.21 1542.97 L921.094 1542.97 L921.094 1548.85 L916.21 1548.85 L916.21 1542.97 Z" fill="#000000" fill-rule="nonzero" fill-opacity="1" /><path clip-path="url(#clip560)" d="M931.326 1514.29 L949.682 1514.29 L949.682 1518.22 L935.608 1518.22 L935.608 1526.7 Q936.627 1526.35 937.645 1526.19 Q938.664 1526 939.682 1526 Q945.469 1526 948.849 1529.17 Q952.229 1532.34 952.229 1537.76 Q952.229 1543.34 948.756 1546.44 Q945.284 1549.52 938.965 1549.52 Q936.789 1549.52 934.52 1549.15 Q932.275 1548.78 929.868 1548.04 L929.868 1543.34 Q931.951 1544.47 934.173 1545.03 Q936.395 1545.58 938.872 1545.58 Q942.877 1545.58 945.215 1543.48 Q947.553 1541.37 947.553 1537.76 Q947.553 1534.15 945.215 1532.04 Q942.877 1529.94 938.872 1529.94 Q936.997 1529.94 935.122 1530.35 Q933.27 1530.77 931.326 1531.65 L931.326 1514.29 Z" fill="#000000" fill-rule="nonzero" fill-opacity="1" /><path clip-path="url(#clip560)" d="M1171.24 1517.37 Q1167.63 1517.37 1165.8 1520.93 Q1164 1524.47 1164 1531.6 Q1164 1538.71 1165.8 1542.27 Q1167.63 1545.82 1171.24 1545.82 Q1174.88 1545.82 1176.68 1542.27 Q1178.51 1538.71 1178.51 1531.6 Q1178.51 1524.47 1176.68 1520.93 Q1174.88 1517.37 1171.24 1517.37 M1171.24 1513.66 Q1177.05 1513.66 1180.11 1518.27 Q1183.19 1522.85 1183.19 1531.6 Q1183.19 1540.33 1180.11 1544.94 Q1177.05 1549.52 1171.24 1549.52 Q1165.43 1549.52 1162.35 1544.94 Q1159.3 1540.33 1159.3 1531.6 Q1159.3 1522.85 1162.35 1518.27 Q1165.43 1513.66 1171.24 1513.66 Z" fill="#000000" fill-rule="nonzero" fill-opacity="1" /><path clip-path="url(#clip560)" d="M1191.4 1542.97 L1196.29 1542.97 L1196.29 1548.85 L1191.4 1548.85 L1191.4 1542.97 Z" fill="#000000" fill-rule="nonzero" fill-opacity="1" /><path clip-path="url(#clip560)" d="M1216.47 1517.37 Q1212.86 1517.37 1211.03 1520.93 Q1209.23 1524.47 1209.23 1531.6 Q1209.23 1538.71 1211.03 1542.27 Q1212.86 1545.82 1216.47 1545.82 Q1220.11 1545.82 1221.91 1542.27 Q1223.74 1538.71 1223.74 1531.6 Q1223.74 1524.47 1221.91 1520.93 Q1220.11 1517.37 1216.47 1517.37 M1216.47 1513.66 Q1222.28 1513.66 1225.34 1518.27 Q1228.42 1522.85 1228.42 1531.6 Q1228.42 1540.33 1225.34 1544.94 Q1222.28 1549.52 1216.47 1549.52 Q1210.66 1549.52 1207.59 1544.94 Q1204.53 1540.33 1204.53 1531.6 Q1204.53 1522.85 1207.59 1518.27 Q1210.66 1513.66 1216.47 1513.66 Z" fill="#000000" fill-rule="nonzero" fill-opacity="1" /><path clip-path="url(#clip560)" d="M1466.34 1517.37 Q1462.73 1517.37 1460.9 1520.93 Q1459.1 1524.47 1459.1 1531.6 Q1459.1 1538.71 1460.9 1542.27 Q1462.73 1545.82 1466.34 1545.82 Q1469.98 1545.82 1471.78 1542.27 Q1473.61 1538.71 1473.61 1531.6 Q1473.61 1524.47 1471.78 1520.93 Q1469.98 1517.37 1466.34 1517.37 M1466.34 1513.66 Q1472.15 1513.66 1475.21 1518.27 Q1478.29 1522.85 1478.29 1531.6 Q1478.29 1540.33 1475.21 1544.94 Q1472.15 1549.52 1466.34 1549.52 Q1460.53 1549.52 1457.46 1544.94 Q1454.4 1540.33 1454.4 1531.6 Q1454.4 1522.85 1457.46 1518.27 Q1460.53 1513.66 1466.34 1513.66 Z" fill="#000000" fill-rule="nonzero" fill-opacity="1" /><path clip-path="url(#clip560)" d="M1486.51 1542.97 L1491.39 1542.97 L1491.39 1548.85 L1486.51 1548.85 L1486.51 1542.97 Z" fill="#000000" fill-rule="nonzero" fill-opacity="1" /><path clip-path="url(#clip560)" d="M1501.62 1514.29 L1519.98 1514.29 L1519.98 1518.22 L1505.9 1518.22 L1505.9 1526.7 Q1506.92 1526.35 1507.94 1526.19 Q1508.96 1526 1509.98 1526 Q1515.77 1526 1519.15 1529.17 Q1522.52 1532.34 1522.52 1537.76 Q1522.52 1543.34 1519.05 1546.44 Q1515.58 1549.52 1509.26 1549.52 Q1507.08 1549.52 1504.82 1549.15 Q1502.57 1548.78 1500.16 1548.04 L1500.16 1543.34 Q1502.25 1544.47 1504.47 1545.03 Q1506.69 1545.58 1509.17 1545.58 Q1513.17 1545.58 1515.51 1543.48 Q1517.85 1541.37 1517.85 1537.76 Q1517.85 1534.15 1515.51 1532.04 Q1513.17 1529.94 1509.17 1529.94 Q1507.29 1529.94 1505.42 1530.35 Q1503.57 1530.77 1501.62 1531.65 L1501.62 1514.29 Z" fill="#000000" fill-rule="nonzero" fill-opacity="1" /><path clip-path="url(#clip560)" d="M1750.22 1544.91 L1757.86 1544.91 L1757.86 1518.55 L1749.55 1520.21 L1749.55 1515.95 L1757.81 1514.29 L1762.49 1514.29 L1762.49 1544.91 L1770.13 1544.91 L1770.13 1548.85 L1750.22 1548.85 L1750.22 1544.91 Z" fill="#000000" fill-rule="nonzero" fill-opacity="1" /><path clip-path="url(#clip560)" d="M1779.57 1542.97 L1784.46 1542.97 L1784.46 1548.85 L1779.57 1548.85 L1779.57 1542.97 Z" fill="#000000" fill-rule="nonzero" fill-opacity="1" /><path clip-path="url(#clip560)" d="M1804.64 1517.37 Q1801.03 1517.37 1799.2 1520.93 Q1797.4 1524.47 1797.4 1531.6 Q1797.4 1538.71 1799.2 1542.27 Q1801.03 1545.82 1804.64 1545.82 Q1808.27 1545.82 1810.08 1542.27 Q1811.91 1538.71 1811.91 1531.6 Q1811.91 1524.47 1810.08 1520.93 Q1808.27 1517.37 1804.64 1517.37 M1804.64 1513.66 Q1810.45 1513.66 1813.51 1518.27 Q1816.58 1522.85 1816.58 1531.6 Q1816.58 1540.33 1813.51 1544.94 Q1810.45 1549.52 1804.64 1549.52 Q1798.83 1549.52 1795.75 1544.94 Q1792.7 1540.33 1792.7 1531.6 Q1792.7 1522.85 1795.75 1518.27 Q1798.83 1513.66 1804.64 1513.66 Z" fill="#000000" fill-rule="nonzero" fill-opacity="1" /><path clip-path="url(#clip560)" d="M2045.32 1544.91 L2052.96 1544.91 L2052.96 1518.55 L2044.65 1520.21 L2044.65 1515.95 L2052.91 1514.29 L2057.59 1514.29 L2057.59 1544.91 L2065.23 1544.91 L2065.23 1548.85 L2045.32 1548.85 L2045.32 1544.91 Z" fill="#000000" fill-rule="nonzero" fill-opacity="1" /><path clip-path="url(#clip560)" d="M2074.67 1542.97 L2079.56 1542.97 L2079.56 1548.85 L2074.67 1548.85 L2074.67 1542.97 Z" fill="#000000" fill-rule="nonzero" fill-opacity="1" /><path clip-path="url(#clip560)" d="M2089.79 1514.29 L2108.14 1514.29 L2108.14 1518.22 L2094.07 1518.22 L2094.07 1526.7 Q2095.09 1526.35 2096.11 1526.19 Q2097.13 1526 2098.14 1526 Q2103.93 1526 2107.31 1529.17 Q2110.69 1532.34 2110.69 1537.76 Q2110.69 1543.34 2107.22 1546.44 Q2103.75 1549.52 2097.43 1549.52 Q2095.25 1549.52 2092.98 1549.15 Q2090.74 1548.78 2088.33 1548.04 L2088.33 1543.34 Q2090.41 1544.47 2092.64 1545.03 Q2094.86 1545.58 2097.33 1545.58 Q2101.34 1545.58 2103.68 1543.48 Q2106.02 1541.37 2106.02 1537.76 Q2106.02 1534.15 2103.68 1532.04 Q2101.34 1529.94 2097.33 1529.94 Q2095.46 1529.94 2093.58 1530.35 Q2091.73 1530.77 2089.79 1531.65 L2089.79 1514.29 Z" fill="#000000" fill-rule="nonzero" fill-opacity="1" /><polyline clip-path="url(#clip560)" style="stroke:#000000; stroke-linecap:round; stroke-linejoin:round; stroke-width:4; stroke-opacity:1; fill:none" points="147.478,1486.45 147.478,47.2441 "/>
<polyline clip-path="url(#clip560)" style="stroke:#000000; stroke-linecap:round; stroke-linejoin:round; stroke-width:4; stroke-opacity:1; fill:none" points="147.478,1321.57 166.376,1321.57 "/>
<polyline clip-path="url(#clip560)" style="stroke:#000000; stroke-linecap:round; stroke-linejoin:round; stroke-width:4; stroke-opacity:1; fill:none" points="147.478,950.89 166.376,950.89 "/>
<polyline clip-path="url(#clip560)" style="stroke:#000000; stroke-linecap:round; stroke-linejoin:round; stroke-width:4; stroke-opacity:1; fill:none" points="147.478,580.214 166.376,580.214 "/>
<polyline clip-path="url(#clip560)" style="stroke:#000000; stroke-linecap:round; stroke-linejoin:round; stroke-width:4; stroke-opacity:1; fill:none" points="147.478,209.538 166.376,209.538 "/>
<path clip-path="url(#clip560)" d="M51.3625 1322.02 L81.0383 1322.02 L81.0383 1325.95 L51.3625 1325.95 L51.3625 1322.02 Z" fill="#000000" fill-rule="nonzero" fill-opacity="1" /><path clip-path="url(#clip560)" d="M95.1586 1334.91 L111.478 1334.91 L111.478 1338.85 L89.5336 1338.85 L89.5336 1334.91 Q92.1956 1332.16 96.7789 1327.53 Q101.385 1322.87 102.566 1321.53 Q104.811 1319.01 105.691 1317.27 Q106.594 1315.51 106.594 1313.82 Q106.594 1311.07 104.649 1309.33 Q102.728 1307.6 99.6261 1307.6 Q97.4271 1307.6 94.9734 1308.36 Q92.5428 1309.12 89.7651 1310.67 L89.7651 1305.95 Q92.5891 1304.82 95.0428 1304.24 Q97.4965 1303.66 99.5335 1303.66 Q104.904 1303.66 108.098 1306.35 Q111.293 1309.03 111.293 1313.52 Q111.293 1315.65 110.483 1317.57 Q109.696 1319.47 107.589 1322.06 Q107.01 1322.73 103.909 1325.95 Q100.807 1329.15 95.1586 1334.91 Z" fill="#000000" fill-rule="nonzero" fill-opacity="1" /><path clip-path="url(#clip560)" d="M50.9921 951.341 L80.6679 951.341 L80.6679 955.276 L50.9921 955.276 L50.9921 951.341 Z" fill="#000000" fill-rule="nonzero" fill-opacity="1" /><path clip-path="url(#clip560)" d="M91.5706 964.235 L99.2095 964.235 L99.2095 937.869 L90.8993 939.536 L90.8993 935.276 L99.1632 933.61 L103.839 933.61 L103.839 964.235 L111.478 964.235 L111.478 968.17 L91.5706 968.17 L91.5706 964.235 Z" fill="#000000" fill-rule="nonzero" fill-opacity="1" /><path clip-path="url(#clip560)" d="M99.5335 566.013 Q95.9224 566.013 94.0937 569.577 Q92.2882 573.119 92.2882 580.249 Q92.2882 587.355 94.0937 590.92 Q95.9224 594.461 99.5335 594.461 Q103.168 594.461 104.973 590.92 Q106.802 587.355 106.802 580.249 Q106.802 573.119 104.973 569.577 Q103.168 566.013 99.5335 566.013 M99.5335 562.309 Q105.344 562.309 108.399 566.915 Q111.478 571.499 111.478 580.249 Q111.478 588.975 108.399 593.582 Q105.344 598.165 99.5335 598.165 Q93.7234 598.165 90.6447 593.582 Q87.5892 588.975 87.5892 580.249 Q87.5892 571.499 90.6447 566.915 Q93.7234 562.309 99.5335 562.309 Z" fill="#000000" fill-rule="nonzero" fill-opacity="1" /><path clip-path="url(#clip560)" d="M91.5706 222.883 L99.2095 222.883 L99.2095 196.517 L90.8993 198.184 L90.8993 193.925 L99.1632 192.258 L103.839 192.258 L103.839 222.883 L111.478 222.883 L111.478 226.818 L91.5706 226.818 L91.5706 222.883 Z" fill="#000000" fill-rule="nonzero" fill-opacity="1" /><circle clip-path="url(#clip562)" cx="1016.54" cy="375.266" r="14.4" fill="#009af9" fill-rule="evenodd" fill-opacity="0.5" stroke="#000000" stroke-opacity="0.5" stroke-width="3.2"/>
<circle clip-path="url(#clip562)" cx="1903.28" cy="466.061" r="14.4" fill="#009af9" fill-rule="evenodd" fill-opacity="0.5" stroke="#000000" stroke-opacity="0.5" stroke-width="3.2"/>
<circle clip-path="url(#clip562)" cx="2119.57" cy="1445.72" r="14.4" fill="#009af9" fill-rule="evenodd" fill-opacity="0.5" stroke="#000000" stroke-opacity="0.5" stroke-width="3.2"/>
<circle clip-path="url(#clip562)" cx="2044.9" cy="378.173" r="14.4" fill="#009af9" fill-rule="evenodd" fill-opacity="0.5" stroke="#000000" stroke-opacity="0.5" stroke-width="3.2"/>
<circle clip-path="url(#clip562)" cx="1480" cy="1026.18" r="14.4" fill="#009af9" fill-rule="evenodd" fill-opacity="0.5" stroke="#000000" stroke-opacity="0.5" stroke-width="3.2"/>
<circle clip-path="url(#clip562)" cx="1890.8" cy="814.61" r="14.4" fill="#009af9" fill-rule="evenodd" fill-opacity="0.5" stroke="#000000" stroke-opacity="0.5" stroke-width="3.2"/>
<circle clip-path="url(#clip562)" cx="329.365" cy="413.406" r="14.4" fill="#009af9" fill-rule="evenodd" fill-opacity="0.5" stroke="#000000" stroke-opacity="0.5" stroke-width="3.2"/>
<circle clip-path="url(#clip562)" cx="1054.77" cy="666.935" r="14.4" fill="#009af9" fill-rule="evenodd" fill-opacity="0.5" stroke="#000000" stroke-opacity="0.5" stroke-width="3.2"/>
<circle clip-path="url(#clip562)" cx="1513.13" cy="809.685" r="14.4" fill="#009af9" fill-rule="evenodd" fill-opacity="0.5" stroke="#000000" stroke-opacity="0.5" stroke-width="3.2"/>
<circle clip-path="url(#clip562)" cx="449.446" cy="388.436" r="14.4" fill="#009af9" fill-rule="evenodd" fill-opacity="0.5" stroke="#000000" stroke-opacity="0.5" stroke-width="3.2"/>
<circle clip-path="url(#clip562)" cx="1558.21" cy="866.729" r="14.4" fill="#009af9" fill-rule="evenodd" fill-opacity="0.5" stroke="#000000" stroke-opacity="0.5" stroke-width="3.2"/>
<circle clip-path="url(#clip562)" cx="1140.34" cy="964.145" r="14.4" fill="#009af9" fill-rule="evenodd" fill-opacity="0.5" stroke="#000000" stroke-opacity="0.5" stroke-width="3.2"/>
<circle clip-path="url(#clip562)" cx="1169.11" cy="1081.63" r="14.4" fill="#009af9" fill-rule="evenodd" fill-opacity="0.5" stroke="#000000" stroke-opacity="0.5" stroke-width="3.2"/>
<circle clip-path="url(#clip562)" cx="2290.34" cy="904.87" r="14.4" fill="#009af9" fill-rule="evenodd" fill-opacity="0.5" stroke="#000000" stroke-opacity="0.5" stroke-width="3.2"/>
<circle clip-path="url(#clip562)" cx="1147.08" cy="299.572" r="14.4" fill="#009af9" fill-rule="evenodd" fill-opacity="0.5" stroke="#000000" stroke-opacity="0.5" stroke-width="3.2"/>
<circle clip-path="url(#clip562)" cx="1491.4" cy="549.735" r="14.4" fill="#009af9" fill-rule="evenodd" fill-opacity="0.5" stroke="#000000" stroke-opacity="0.5" stroke-width="3.2"/>
<circle clip-path="url(#clip562)" cx="1271.75" cy="643.662" r="14.4" fill="#009af9" fill-rule="evenodd" fill-opacity="0.5" stroke="#000000" stroke-opacity="0.5" stroke-width="3.2"/>
<circle clip-path="url(#clip562)" cx="1891.27" cy="239.6" r="14.4" fill="#009af9" fill-rule="evenodd" fill-opacity="0.5" stroke="#000000" stroke-opacity="0.5" stroke-width="3.2"/>
<circle clip-path="url(#clip562)" cx="1144.97" cy="1024.06" r="14.4" fill="#009af9" fill-rule="evenodd" fill-opacity="0.5" stroke="#000000" stroke-opacity="0.5" stroke-width="3.2"/>
<circle clip-path="url(#clip562)" cx="1750.9" cy="255.604" r="14.4" fill="#009af9" fill-rule="evenodd" fill-opacity="0.5" stroke="#000000" stroke-opacity="0.5" stroke-width="3.2"/>
<circle clip-path="url(#clip562)" cx="352.276" cy="391.203" r="14.4" fill="#009af9" fill-rule="evenodd" fill-opacity="0.5" stroke="#000000" stroke-opacity="0.5" stroke-width="3.2"/>
<circle clip-path="url(#clip562)" cx="1989.37" cy="440.301" r="14.4" fill="#009af9" fill-rule="evenodd" fill-opacity="0.5" stroke="#000000" stroke-opacity="0.5" stroke-width="3.2"/>
<circle clip-path="url(#clip562)" cx="1488.6" cy="87.9763" r="14.4" fill="#009af9" fill-rule="evenodd" fill-opacity="0.5" stroke="#000000" stroke-opacity="0.5" stroke-width="3.2"/>
<circle clip-path="url(#clip562)" cx="546.762" cy="907.754" r="14.4" fill="#009af9" fill-rule="evenodd" fill-opacity="0.5" stroke="#000000" stroke-opacity="0.5" stroke-width="3.2"/>
<circle clip-path="url(#clip562)" cx="209.891" cy="962.867" r="14.4" fill="#009af9" fill-rule="evenodd" fill-opacity="0.5" stroke="#000000" stroke-opacity="0.5" stroke-width="3.2"/>
<circle clip-path="url(#clip562)" cx="1067.31" cy="508.647" r="14.4" fill="#009af9" fill-rule="evenodd" fill-opacity="0.5" stroke="#000000" stroke-opacity="0.5" stroke-width="3.2"/>
<circle clip-path="url(#clip562)" cx="1486.38" cy="400.827" r="14.4" fill="#009af9" fill-rule="evenodd" fill-opacity="0.5" stroke="#000000" stroke-opacity="0.5" stroke-width="3.2"/>
<circle clip-path="url(#clip562)" cx="868.542" cy="422.839" r="14.4" fill="#009af9" fill-rule="evenodd" fill-opacity="0.5" stroke="#000000" stroke-opacity="0.5" stroke-width="3.2"/>
<circle clip-path="url(#clip562)" cx="933.902" cy="169.755" r="14.4" fill="#009af9" fill-rule="evenodd" fill-opacity="0.5" stroke="#000000" stroke-opacity="0.5" stroke-width="3.2"/>
<circle clip-path="url(#clip562)" cx="857.926" cy="812.834" r="14.4" fill="#009af9" fill-rule="evenodd" fill-opacity="0.5" stroke="#000000" stroke-opacity="0.5" stroke-width="3.2"/>
<path clip-path="url(#clip562)" d="M209.891 962.867 L2119.57 1445.72 L2290.34 904.87 L2044.9 378.173 L1891.27 239.6 L1488.6 87.9763 L933.902 169.755 L352.276 391.203 L329.365 413.406 L209.891 962.867 L209.891 962.867  Z" fill="#e26f46" fill-rule="evenodd" fill-opacity="0.2"/>
<polyline clip-path="url(#clip562)" style="stroke:#000000; stroke-linecap:round; stroke-linejoin:round; stroke-width:4; stroke-opacity:0.2; fill:none" points="209.891,962.867 2119.57,1445.72 2290.34,904.87 2044.9,378.173 1891.27,239.6 1488.6,87.9763 933.902,169.755 352.276,391.203 329.365,413.406 209.891,962.867 "/>
</svg>
