<?xml version="1.0" encoding="utf-8"?>
<svg xmlns="http://www.w3.org/2000/svg" xmlns:xlink="http://www.w3.org/1999/xlink" width="600" height="400" viewBox="0 0 2400 1600">
<defs>
  <clipPath id="clip600">
    <rect x="0" y="0" width="2400" height="1600"/>
  </clipPath>
</defs>
<path clip-path="url(#clip600)" d="M0 1600 L2400 1600 L2400 0 L0 0  Z" fill="#ffffff" fill-rule="evenodd" fill-opacity="1"/>
<defs>
  <clipPath id="clip601">
    <rect x="480" y="0" width="1681" height="1600"/>
  </clipPath>
</defs>
<path clip-path="url(#clip600)" d="M147.478 1486.45 L2352.76 1486.45 L2352.76 47.2441 L147.478 47.2441  Z" fill="#ffffff" fill-rule="evenodd" fill-opacity="1"/>
<defs>
  <clipPath id="clip602">
    <rect x="147" y="47" width="2206" height="1440"/>
  </clipPath>
</defs>
<polyline clip-path="url(#clip602)" style="stroke:#000000; stroke-linecap:round; stroke-linejoin:round; stroke-width:2; stroke-opacity:0.1; fill:none" points="175.462,1486.45 175.462,47.2441 "/>
<polyline clip-path="url(#clip602)" style="stroke:#000000; stroke-linecap:round; stroke-linejoin:round; stroke-width:2; stroke-opacity:0.1; fill:none" points="553.162,1486.45 553.162,47.2441 "/>
<polyline clip-path="url(#clip602)" style="stroke:#000000; stroke-linecap:round; stroke-linejoin:round; stroke-width:2; stroke-opacity:0.1; fill:none" points="930.862,1486.45 930.862,47.2441 "/>
<polyline clip-path="url(#clip602)" style="stroke:#000000; stroke-linecap:round; stroke-linejoin:round; stroke-width:2; stroke-opacity:0.1; fill:none" points="1308.56,1486.45 1308.56,47.2441 "/>
<polyline clip-path="url(#clip602)" style="stroke:#000000; stroke-linecap:round; stroke-linejoin:round; stroke-width:2; stroke-opacity:0.1; fill:none" points="1686.26,1486.45 1686.26,47.2441 "/>
<polyline clip-path="url(#clip602)" style="stroke:#000000; stroke-linecap:round; stroke-linejoin:round; stroke-width:2; stroke-opacity:0.1; fill:none" points="2063.96,1486.45 2063.96,47.2441 "/>
<polyline clip-path="url(#clip602)" style="stroke:#000000; stroke-linecap:round; stroke-linejoin:round; stroke-width:2; stroke-opacity:0.1; fill:none" points="147.478,1238.65 2352.76,1238.65 "/>
<polyline clip-path="url(#clip602)" style="stroke:#000000; stroke-linecap:round; stroke-linejoin:round; stroke-width:2; stroke-opacity:0.1; fill:none" points="147.478,844.441 2352.76,844.441 "/>
<polyline clip-path="url(#clip602)" style="stroke:#000000; stroke-linecap:round; stroke-linejoin:round; stroke-width:2; stroke-opacity:0.1; fill:none" points="147.478,450.227 2352.76,450.227 "/>
<polyline clip-path="url(#clip602)" style="stroke:#000000; stroke-linecap:round; stroke-linejoin:round; stroke-width:2; stroke-opacity:0.1; fill:none" points="147.478,56.0138 2352.76,56.0138 "/>
<polyline clip-path="url(#clip600)" style="stroke:#000000; stroke-linecap:round; stroke-linejoin:round; stroke-width:4; stroke-opacity:1; fill:none" points="147.478,1486.45 2352.76,1486.45 "/>
<polyline clip-path="url(#clip600)" style="stroke:#000000; stroke-linecap:round; stroke-linejoin:round; stroke-width:4; stroke-opacity:1; fill:none" points="175.462,1486.45 175.462,1467.55 "/>
<polyline clip-path="url(#clip600)" style="stroke:#000000; stroke-linecap:round; stroke-linejoin:round; stroke-width:4; stroke-opacity:1; fill:none" points="553.162,1486.45 553.162,1467.55 "/>
<polyline clip-path="url(#clip600)" style="stroke:#000000; stroke-linecap:round; stroke-linejoin:round; stroke-width:4; stroke-opacity:1; fill:none" points="930.862,1486.45 930.862,1467.55 "/>
<polyline clip-path="url(#clip600)" style="stroke:#000000; stroke-linecap:round; stroke-linejoin:round; stroke-width:4; stroke-opacity:1; fill:none" points="1308.56,1486.45 1308.56,1467.55 "/>
<polyline clip-path="url(#clip600)" style="stroke:#000000; stroke-linecap:round; stroke-linejoin:round; stroke-width:4; stroke-opacity:1; fill:none" points="1686.26,1486.45 1686.26,1467.55 "/>
<polyline clip-path="url(#clip600)" style="stroke:#000000; stroke-linecap:round; stroke-linejoin:round; stroke-width:4; stroke-opacity:1; fill:none" points="2063.96,1486.45 2063.96,1467.55 "/>
<path clip-path="url(#clip600)" d="M144.93 1532.02 L174.606 1532.02 L174.606 1535.95 L144.93 1535.95 L144.93 1532.02 Z" fill="#000000" fill-rule="nonzero" fill-opacity="1" /><path clip-path="url(#clip600)" d="M198.865 1530.21 Q202.221 1530.93 204.096 1533.2 Q205.995 1535.47 205.995 1538.8 Q205.995 1543.92 202.476 1546.72 Q198.958 1549.52 192.476 1549.52 Q190.3 1549.52 187.985 1549.08 Q185.694 1548.66 183.24 1547.81 L183.24 1543.29 Q185.184 1544.43 187.499 1545.01 Q189.814 1545.58 192.337 1545.58 Q196.735 1545.58 199.027 1543.85 Q201.342 1542.11 201.342 1538.8 Q201.342 1535.75 199.189 1534.03 Q197.059 1532.3 193.24 1532.3 L189.212 1532.3 L189.212 1528.45 L193.425 1528.45 Q196.874 1528.45 198.703 1527.09 Q200.532 1525.7 200.532 1523.11 Q200.532 1520.45 198.633 1519.03 Q196.758 1517.6 193.24 1517.6 Q191.319 1517.6 189.12 1518.01 Q186.921 1518.43 184.282 1519.31 L184.282 1515.14 Q186.944 1514.4 189.259 1514.03 Q191.596 1513.66 193.657 1513.66 Q198.981 1513.66 202.083 1516.09 Q205.184 1518.5 205.184 1522.62 Q205.184 1525.49 203.541 1527.48 Q201.897 1529.45 198.865 1530.21 Z" fill="#000000" fill-rule="nonzero" fill-opacity="1" /><path clip-path="url(#clip600)" d="M523.104 1532.02 L552.78 1532.02 L552.78 1535.95 L523.104 1535.95 L523.104 1532.02 Z" fill="#000000" fill-rule="nonzero" fill-opacity="1" /><path clip-path="url(#clip600)" d="M566.9 1544.91 L583.22 1544.91 L583.22 1548.85 L561.275 1548.85 L561.275 1544.91 Q563.937 1542.16 568.521 1537.53 Q573.127 1532.88 574.308 1531.53 Q576.553 1529.01 577.433 1527.27 Q578.335 1525.51 578.335 1523.82 Q578.335 1521.07 576.391 1519.33 Q574.47 1517.6 571.368 1517.6 Q569.169 1517.6 566.715 1518.36 Q564.285 1519.13 561.507 1520.68 L561.507 1515.95 Q564.331 1514.82 566.785 1514.24 Q569.238 1513.66 571.275 1513.66 Q576.646 1513.66 579.84 1516.35 Q583.034 1519.03 583.034 1523.52 Q583.034 1525.65 582.224 1527.57 Q581.437 1529.47 579.331 1532.07 Q578.752 1532.74 575.65 1535.95 Q572.548 1539.15 566.9 1544.91 Z" fill="#000000" fill-rule="nonzero" fill-opacity="1" /><path clip-path="url(#clip600)" d="M900.619 1532.02 L930.295 1532.02 L930.295 1535.95 L900.619 1535.95 L900.619 1532.02 Z" fill="#000000" fill-rule="nonzero" fill-opacity="1" /><path clip-path="url(#clip600)" d="M941.197 1544.91 L948.836 1544.91 L948.836 1518.55 L940.526 1520.21 L940.526 1515.95 L948.79 1514.29 L953.466 1514.29 L953.466 1544.91 L961.105 1544.91 L961.105 1548.85 L941.197 1548.85 L941.197 1544.91 Z" fill="#000000" fill-rule="nonzero" fill-opacity="1" /><path clip-path="url(#clip600)" d="M1308.56 1517.37 Q1304.95 1517.37 1303.12 1520.93 Q1301.32 1524.47 1301.32 1531.6 Q1301.32 1538.71 1303.12 1542.27 Q1304.95 1545.82 1308.56 1545.82 Q1312.2 1545.82 1314 1542.27 Q1315.83 1538.71 1315.83 1531.6 Q1315.83 1524.47 1314 1520.93 Q1312.2 1517.37 1308.56 1517.37 M1308.56 1513.66 Q1314.37 1513.66 1317.43 1518.27 Q1320.51 1522.85 1320.51 1531.6 Q1320.51 1540.33 1317.43 1544.94 Q1314.37 1549.52 1308.56 1549.52 Q1302.75 1549.52 1299.67 1544.94 Q1296.62 1540.33 1296.62 1531.6 Q1296.62 1522.85 1299.67 1518.27 Q1302.75 1513.66 1308.56 1513.66 Z" fill="#000000" fill-rule="nonzero" fill-opacity="1" /><path clip-path="url(#clip600)" d="M1676.64 1544.91 L1684.28 1544.91 L1684.28 1518.55 L1675.97 1520.21 L1675.97 1515.95 L1684.24 1514.29 L1688.91 1514.29 L1688.91 1544.91 L1696.55 1544.91 L1696.55 1548.85 L1676.64 1548.85 L1676.64 1544.91 Z" fill="#000000" fill-rule="nonzero" fill-opacity="1" /><path clip-path="url(#clip600)" d="M2058.61 1544.91 L2074.93 1544.91 L2074.93 1548.85 L2052.99 1548.85 L2052.99 1544.91 Q2055.65 1542.16 2060.23 1537.53 Q2064.84 1532.88 2066.02 1531.53 Q2068.27 1529.01 2069.15 1527.27 Q2070.05 1525.51 2070.05 1523.82 Q2070.05 1521.07 2068.1 1519.33 Q2066.18 1517.6 2063.08 1517.6 Q2060.88 1517.6 2058.43 1518.36 Q2056 1519.13 2053.22 1520.68 L2053.22 1515.95 Q2056.04 1514.82 2058.5 1514.24 Q2060.95 1513.66 2062.99 1513.66 Q2068.36 1513.66 2071.55 1516.35 Q2074.75 1519.03 2074.75 1523.52 Q2074.75 1525.65 2073.94 1527.57 Q2073.15 1529.47 2071.04 1532.07 Q2070.47 1532.74 2067.36 1535.95 Q2064.26 1539.15 2058.61 1544.91 Z" fill="#000000" fill-rule="nonzero" fill-opacity="1" /><polyline clip-path="url(#clip600)" style="stroke:#000000; stroke-linecap:round; stroke-linejoin:round; stroke-width:4; stroke-opacity:1; fill:none" points="147.478,1486.45 147.478,47.2441 "/>
<polyline clip-path="url(#clip600)" style="stroke:#000000; stroke-linecap:round; stroke-linejoin:round; stroke-width:4; stroke-opacity:1; fill:none" points="147.478,1238.65 166.376,1238.65 "/>
<polyline clip-path="url(#clip600)" style="stroke:#000000; stroke-linecap:round; stroke-linejoin:round; stroke-width:4; stroke-opacity:1; fill:none" points="147.478,844.441 166.376,844.441 "/>
<polyline clip-path="url(#clip600)" style="stroke:#000000; stroke-linecap:round; stroke-linejoin:round; stroke-width:4; stroke-opacity:1; fill:none" points="147.478,450.227 166.376,450.227 "/>
<polyline clip-path="url(#clip600)" style="stroke:#000000; stroke-linecap:round; stroke-linejoin:round; stroke-width:4; stroke-opacity:1; fill:none" points="147.478,56.0138 166.376,56.0138 "/>
<path clip-path="url(#clip600)" d="M50.9921 1239.11 L80.6679 1239.11 L80.6679 1243.04 L50.9921 1243.04 L50.9921 1239.11 Z" fill="#000000" fill-rule="nonzero" fill-opacity="1" /><path clip-path="url(#clip600)" d="M91.5706 1252 L99.2095 1252 L99.2095 1225.63 L90.8993 1227.3 L90.8993 1223.04 L99.1632 1221.37 L103.839 1221.37 L103.839 1252 L111.478 1252 L111.478 1255.93 L91.5706 1255.93 L91.5706 1252 Z" fill="#000000" fill-rule="nonzero" fill-opacity="1" /><path clip-path="url(#clip600)" d="M99.5335 830.24 Q95.9224 830.24 94.0937 833.804 Q92.2882 837.346 92.2882 844.476 Q92.2882 851.582 94.0937 855.147 Q95.9224 858.689 99.5335 858.689 Q103.168 858.689 104.973 855.147 Q106.802 851.582 106.802 844.476 Q106.802 837.346 104.973 833.804 Q103.168 830.24 99.5335 830.24 M99.5335 826.536 Q105.344 826.536 108.399 831.142 Q111.478 835.726 111.478 844.476 Q111.478 853.202 108.399 857.809 Q105.344 862.392 99.5335 862.392 Q93.7234 862.392 90.6447 857.809 Q87.5892 853.202 87.5892 844.476 Q87.5892 835.726 90.6447 831.142 Q93.7234 826.536 99.5335 826.536 Z" fill="#000000" fill-rule="nonzero" fill-opacity="1" /><path clip-path="url(#clip600)" d="M91.5706 463.572 L99.2095 463.572 L99.2095 437.207 L90.8993 438.873 L90.8993 434.614 L99.1632 432.947 L103.839 432.947 L103.839 463.572 L111.478 463.572 L111.478 467.507 L91.5706 467.507 L91.5706 463.572 Z" fill="#000000" fill-rule="nonzero" fill-opacity="1" /><path clip-path="url(#clip600)" d="M95.1586 69.3586 L111.478 69.3586 L111.478 73.2938 L89.5336 73.2938 L89.5336 69.3586 Q92.1956 66.604 96.7789 61.9744 Q101.385 57.3217 102.566 55.9791 Q104.811 53.4559 105.691 51.7198 Q106.594 49.9606 106.594 48.2708 Q106.594 45.5162 104.649 43.7801 Q102.728 42.044 99.6261 42.044 Q97.4271 42.044 94.9734 42.8078 Q92.5428 43.5717 89.7651 45.1226 L89.7651 40.4005 Q92.5891 39.2662 95.0428 38.6875 Q97.4965 38.1088 99.5335 38.1088 Q104.904 38.1088 108.098 40.794 Q111.293 43.4791 111.293 47.9699 Q111.293 50.0995 110.483 52.0208 Q109.696 53.9189 107.589 56.5115 Q107.01 57.1828 103.909 60.4003 Q100.807 63.5948 95.1586 69.3586 Z" fill="#000000" fill-rule="nonzero" fill-opacity="1" /><circle clip-path="url(#clip602)" cx="867.789" cy="1118.91" r="14.4" fill="#009af9" fill-rule="evenodd" fill-opacity="0.5" stroke="#000000" stroke-opacity="0.5" stroke-width="3.2"/>
<circle clip-path="url(#clip602)" cx="1073.23" cy="1296.44" r="14.4" fill="#009af9" fill-rule="evenodd" fill-opacity="0.5" stroke="#000000" stroke-opacity="0.5" stroke-width="3.2"/>
<circle clip-path="url(#clip602)" cx="1063.8" cy="542.895" r="14.4" fill="#009af9" fill-rule="evenodd" fill-opacity="0.5" stroke="#000000" stroke-opacity="0.5" stroke-width="3.2"/>
<circle clip-path="url(#clip602)" cx="1089.62" cy="1209.33" r="14.4" fill="#009af9" fill-rule="evenodd" fill-opacity="0.5" stroke="#000000" stroke-opacity="0.5" stroke-width="3.2"/>
<circle clip-path="url(#clip602)" cx="1129.4" cy="242.228" r="14.4" fill="#009af9" fill-rule="evenodd" fill-opacity="0.5" stroke="#000000" stroke-opacity="0.5" stroke-width="3.2"/>
<circle clip-path="url(#clip602)" cx="893.41" cy="1207.91" r="14.4" fill="#009af9" fill-rule="evenodd" fill-opacity="0.5" stroke="#000000" stroke-opacity="0.5" stroke-width="3.2"/>
<circle clip-path="url(#clip602)" cx="1239.11" cy="507.457" r="14.4" fill="#009af9" fill-rule="evenodd" fill-opacity="0.5" stroke="#000000" stroke-opacity="0.5" stroke-width="3.2"/>
<circle clip-path="url(#clip602)" cx="1264.31" cy="871.226" r="14.4" fill="#009af9" fill-rule="evenodd" fill-opacity="0.5" stroke="#000000" stroke-opacity="0.5" stroke-width="3.2"/>
<circle clip-path="url(#clip602)" cx="1081.04" cy="757.236" r="14.4" fill="#009af9" fill-rule="evenodd" fill-opacity="0.5" stroke="#000000" stroke-opacity="0.5" stroke-width="3.2"/>
<circle clip-path="url(#clip602)" cx="922.793" cy="136.427" r="14.4" fill="#009af9" fill-rule="evenodd" fill-opacity="0.5" stroke="#000000" stroke-opacity="0.5" stroke-width="3.2"/>
<circle clip-path="url(#clip602)" cx="1328.14" cy="899.074" r="14.4" fill="#009af9" fill-rule="evenodd" fill-opacity="0.5" stroke="#000000" stroke-opacity="0.5" stroke-width="3.2"/>
<circle clip-path="url(#clip602)" cx="2290.34" cy="87.9763" r="14.4" fill="#009af9" fill-rule="evenodd" fill-opacity="0.5" stroke="#000000" stroke-opacity="0.5" stroke-width="3.2"/>
<circle clip-path="url(#clip602)" cx="1036.32" cy="292.5" r="14.4" fill="#009af9" fill-rule="evenodd" fill-opacity="0.5" stroke="#000000" stroke-opacity="0.5" stroke-width="3.2"/>
<circle clip-path="url(#clip602)" cx="1241.18" cy="901.163" r="14.4" fill="#009af9" fill-rule="evenodd" fill-opacity="0.5" stroke="#000000" stroke-opacity="0.5" stroke-width="3.2"/>
<circle clip-path="url(#clip602)" cx="1105.17" cy="633.096" r="14.4" fill="#009af9" fill-rule="evenodd" fill-opacity="0.5" stroke="#000000" stroke-opacity="0.5" stroke-width="3.2"/>
<circle clip-path="url(#clip602)" cx="1201.21" cy="1210.65" r="14.4" fill="#009af9" fill-rule="evenodd" fill-opacity="0.5" stroke="#000000" stroke-opacity="0.5" stroke-width="3.2"/>
<circle clip-path="url(#clip602)" cx="1262.41" cy="1445.72" r="14.4" fill="#009af9" fill-rule="evenodd" fill-opacity="0.5" stroke="#000000" stroke-opacity="0.5" stroke-width="3.2"/>
<circle clip-path="url(#clip602)" cx="556.323" cy="488.672" r="14.4" fill="#009af9" fill-rule="evenodd" fill-opacity="0.5" stroke="#000000" stroke-opacity="0.5" stroke-width="3.2"/>
<circle clip-path="url(#clip602)" cx="1849.75" cy="1162.03" r="14.4" fill="#009af9" fill-rule="evenodd" fill-opacity="0.5" stroke="#000000" stroke-opacity="0.5" stroke-width="3.2"/>
<circle clip-path="url(#clip602)" cx="1327.67" cy="994.775" r="14.4" fill="#009af9" fill-rule="evenodd" fill-opacity="0.5" stroke="#000000" stroke-opacity="0.5" stroke-width="3.2"/>
<circle clip-path="url(#clip602)" cx="1446.93" cy="884.497" r="14.4" fill="#009af9" fill-rule="evenodd" fill-opacity="0.5" stroke="#000000" stroke-opacity="0.5" stroke-width="3.2"/>
<circle clip-path="url(#clip602)" cx="830.331" cy="1325.41" r="14.4" fill="#009af9" fill-rule="evenodd" fill-opacity="0.5" stroke="#000000" stroke-opacity="0.5" stroke-width="3.2"/>
<circle clip-path="url(#clip602)" cx="1298.63" cy="885.314" r="14.4" fill="#009af9" fill-rule="evenodd" fill-opacity="0.5" stroke="#000000" stroke-opacity="0.5" stroke-width="3.2"/>
<circle clip-path="url(#clip602)" cx="209.891" cy="1367.19" r="14.4" fill="#009af9" fill-rule="evenodd" fill-opacity="0.5" stroke="#000000" stroke-opacity="0.5" stroke-width="3.2"/>
<circle clip-path="url(#clip602)" cx="1558.07" cy="483.267" r="14.4" fill="#009af9" fill-rule="evenodd" fill-opacity="0.5" stroke="#000000" stroke-opacity="0.5" stroke-width="3.2"/>
<circle clip-path="url(#clip602)" cx="1259.43" cy="719.455" r="14.4" fill="#009af9" fill-rule="evenodd" fill-opacity="0.5" stroke="#000000" stroke-opacity="0.5" stroke-width="3.2"/>
<circle clip-path="url(#clip602)" cx="934.748" cy="893.823" r="14.4" fill="#009af9" fill-rule="evenodd" fill-opacity="0.5" stroke="#000000" stroke-opacity="0.5" stroke-width="3.2"/>
<circle clip-path="url(#clip602)" cx="1126.3" cy="854.022" r="14.4" fill="#009af9" fill-rule="evenodd" fill-opacity="0.5" stroke="#000000" stroke-opacity="0.5" stroke-width="3.2"/>
<circle clip-path="url(#clip602)" cx="1285.22" cy="844.551" r="14.4" fill="#009af9" fill-rule="evenodd" fill-opacity="0.5" stroke="#000000" stroke-opacity="0.5" stroke-width="3.2"/>
<circle clip-path="url(#clip602)" cx="1694.43" cy="1245.02" r="14.4" fill="#009af9" fill-rule="evenodd" fill-opacity="0.5" stroke="#000000" stroke-opacity="0.5" stroke-width="3.2"/>
<path clip-path="url(#clip602)" d="M209.891 1367.19 L1262.41 1445.72 L1694.43 1245.02 L1849.75 1162.03 L2290.34 87.9763 L922.793 136.427 L556.323 488.672 L209.891 1367.19 L209.891 1367.19  Z" fill="#e26f46" fill-rule="evenodd" fill-opacity="0.2"/>
<polyline clip-path="url(#clip602)" style="stroke:#000000; stroke-linecap:round; stroke-linejoin:round; stroke-width:4; stroke-opacity:0.2; fill:none" points="209.891,1367.19 1262.41,1445.72 1694.43,1245.02 1849.75,1162.03 2290.34,87.9763 922.793,136.427 556.323,488.672 209.891,1367.19 "/>
</svg>
