<?xml version="1.0" encoding="utf-8"?>
<svg xmlns="http://www.w3.org/2000/svg" xmlns:xlink="http://www.w3.org/1999/xlink" width="600" height="400" viewBox="0 0 2400 1600">
<defs>
  <clipPath id="clip630">
    <rect x="0" y="0" width="2400" height="1600"/>
  </clipPath>
</defs>
<path clip-path="url(#clip630)" d="M0 1600 L2400 1600 L2400 0 L0 0  Z" fill="#ffffff" fill-rule="evenodd" fill-opacity="1"/>
<defs>
  <clipPath id="clip631">
    <rect x="147" y="47" width="2206" height="1440"/>
  </clipPath>
</defs>
<path clip-path="url(#clip630)" d="M147.478 1486.45 L2352.76 1486.45 L2352.76 47.2441 L147.478 47.2441  Z" fill="#ffffff" fill-rule="evenodd" fill-opacity="1"/>
<polyline clip-path="url(#clip631)" style="stroke:#000000; stroke-linecap:round; stroke-linejoin:round; stroke-width:2; stroke-opacity:0.1; fill:none" points="641.701,1486.45 641.701,47.2441 "/>
<polyline clip-path="url(#clip631)" style="stroke:#000000; stroke-linecap:round; stroke-linejoin:round; stroke-width:2; stroke-opacity:0.1; fill:none" points="1140.11,1486.45 1140.11,47.2441 "/>
<polyline clip-path="url(#clip631)" style="stroke:#000000; stroke-linecap:round; stroke-linejoin:round; stroke-width:2; stroke-opacity:0.1; fill:none" points="1638.53,1486.45 1638.53,47.2441 "/>
<polyline clip-path="url(#clip631)" style="stroke:#000000; stroke-linecap:round; stroke-linejoin:round; stroke-width:2; stroke-opacity:0.1; fill:none" points="2136.94,1486.45 2136.94,47.2441 "/>
<polyline clip-path="url(#clip631)" style="stroke:#000000; stroke-linecap:round; stroke-linejoin:round; stroke-width:2; stroke-opacity:0.1; fill:none" points="147.478,1449.38 2352.76,1449.38 "/>
<polyline clip-path="url(#clip631)" style="stroke:#000000; stroke-linecap:round; stroke-linejoin:round; stroke-width:2; stroke-opacity:0.1; fill:none" points="147.478,1131.17 2352.76,1131.17 "/>
<polyline clip-path="url(#clip631)" style="stroke:#000000; stroke-linecap:round; stroke-linejoin:round; stroke-width:2; stroke-opacity:0.1; fill:none" points="147.478,812.957 2352.76,812.957 "/>
<polyline clip-path="url(#clip631)" style="stroke:#000000; stroke-linecap:round; stroke-linejoin:round; stroke-width:2; stroke-opacity:0.1; fill:none" points="147.478,494.748 2352.76,494.748 "/>
<polyline clip-path="url(#clip631)" style="stroke:#000000; stroke-linecap:round; stroke-linejoin:round; stroke-width:2; stroke-opacity:0.1; fill:none" points="147.478,176.538 2352.76,176.538 "/>
<polyline clip-path="url(#clip630)" style="stroke:#000000; stroke-linecap:round; stroke-linejoin:round; stroke-width:4; stroke-opacity:1; fill:none" points="147.478,1486.45 2352.76,1486.45 "/>
<polyline clip-path="url(#clip630)" style="stroke:#000000; stroke-linecap:round; stroke-linejoin:round; stroke-width:4; stroke-opacity:1; fill:none" points="641.701,1486.45 641.701,1467.55 "/>
<polyline clip-path="url(#clip630)" style="stroke:#000000; stroke-linecap:round; stroke-linejoin:round; stroke-width:4; stroke-opacity:1; fill:none" points="1140.11,1486.45 1140.11,1467.55 "/>
<polyline clip-path="url(#clip630)" style="stroke:#000000; stroke-linecap:round; stroke-linejoin:round; stroke-width:4; stroke-opacity:1; fill:none" points="1638.53,1486.45 1638.53,1467.55 "/>
<polyline clip-path="url(#clip630)" style="stroke:#000000; stroke-linecap:round; stroke-linejoin:round; stroke-width:4; stroke-opacity:1; fill:none" points="2136.94,1486.45 2136.94,1467.55 "/>
<path clip-path="url(#clip630)" d="M611.458 1532.02 L641.134 1532.02 L641.134 1535.95 L611.458 1535.95 L611.458 1532.02 Z" fill="#000000" fill-rule="nonzero" fill-opacity="1" /><path clip-path="url(#clip630)" d="M652.037 1544.91 L659.676 1544.91 L659.676 1518.55 L651.365 1520.21 L651.365 1515.95 L659.629 1514.29 L664.305 1514.29 L664.305 1544.91 L671.944 1544.91 L671.944 1548.85 L652.037 1548.85 L652.037 1544.91 Z" fill="#000000" fill-rule="nonzero" fill-opacity="1" /><path clip-path="url(#clip630)" d="M1140.11 1517.37 Q1136.5 1517.37 1134.67 1520.93 Q1132.87 1524.47 1132.87 1531.6 Q1132.87 1538.71 1134.67 1542.27 Q1136.5 1545.82 1140.11 1545.82 Q1143.75 1545.82 1145.55 1542.27 Q1147.38 1538.71 1147.38 1531.6 Q1147.38 1524.47 1145.55 1520.93 Q1143.75 1517.37 1140.11 1517.37 M1140.11 1513.66 Q1145.92 1513.66 1148.98 1518.27 Q1152.06 1522.85 1152.06 1531.6 Q1152.06 1540.33 1148.98 1544.94 Q1145.92 1549.52 1140.11 1549.52 Q1134.3 1549.52 1131.23 1544.94 Q1128.17 1540.33 1128.17 1531.6 Q1128.17 1522.85 1131.23 1518.27 Q1134.3 1513.66 1140.11 1513.66 Z" fill="#000000" fill-rule="nonzero" fill-opacity="1" /><path clip-path="url(#clip630)" d="M1628.91 1544.91 L1636.55 1544.91 L1636.55 1518.55 L1628.24 1520.21 L1628.24 1515.95 L1636.5 1514.29 L1641.18 1514.29 L1641.18 1544.91 L1648.82 1544.91 L1648.82 1548.85 L1628.91 1548.85 L1628.91 1544.91 Z" fill="#000000" fill-rule="nonzero" fill-opacity="1" /><path clip-path="url(#clip630)" d="M2131.59 1544.91 L2147.91 1544.91 L2147.91 1548.85 L2125.97 1548.85 L2125.97 1544.91 Q2128.63 1542.16 2133.21 1537.53 Q2137.82 1532.88 2139 1531.53 Q2141.25 1529.01 2142.13 1527.27 Q2143.03 1525.51 2143.03 1523.82 Q2143.03 1521.07 2141.09 1519.33 Q2139.16 1517.6 2136.06 1517.6 Q2133.86 1517.6 2131.41 1518.36 Q2128.98 1519.13 2126.2 1520.68 L2126.2 1515.95 Q2129.03 1514.82 2131.48 1514.24 Q2133.93 1513.66 2135.97 1513.66 Q2141.34 1513.66 2144.53 1516.35 Q2147.73 1519.03 2147.73 1523.52 Q2147.73 1525.65 2146.92 1527.57 Q2146.13 1529.47 2144.02 1532.07 Q2143.45 1532.74 2140.34 1535.95 Q2137.24 1539.15 2131.59 1544.91 Z" fill="#000000" fill-rule="nonzero" fill-opacity="1" /><polyline clip-path="url(#clip630)" style="stroke:#000000; stroke-linecap:round; stroke-linejoin:round; stroke-width:4; stroke-opacity:1; fill:none" points="147.478,1486.45 147.478,47.2441 "/>
<polyline clip-path="url(#clip630)" style="stroke:#000000; stroke-linecap:round; stroke-linejoin:round; stroke-width:4; stroke-opacity:1; fill:none" points="147.478,1449.38 166.376,1449.38 "/>
<polyline clip-path="url(#clip630)" style="stroke:#000000; stroke-linecap:round; stroke-linejoin:round; stroke-width:4; stroke-opacity:1; fill:none" points="147.478,1131.17 166.376,1131.17 "/>
<polyline clip-path="url(#clip630)" style="stroke:#000000; stroke-linecap:round; stroke-linejoin:round; stroke-width:4; stroke-opacity:1; fill:none" points="147.478,812.957 166.376,812.957 "/>
<polyline clip-path="url(#clip630)" style="stroke:#000000; stroke-linecap:round; stroke-linejoin:round; stroke-width:4; stroke-opacity:1; fill:none" points="147.478,494.748 166.376,494.748 "/>
<polyline clip-path="url(#clip630)" style="stroke:#000000; stroke-linecap:round; stroke-linejoin:round; stroke-width:4; stroke-opacity:1; fill:none" points="147.478,176.538 166.376,176.538 "/>
<path clip-path="url(#clip630)" d="M51.3625 1449.83 L81.0383 1449.83 L81.0383 1453.76 L51.3625 1453.76 L51.3625 1449.83 Z" fill="#000000" fill-rule="nonzero" fill-opacity="1" /><path clip-path="url(#clip630)" d="M95.1586 1462.72 L111.478 1462.72 L111.478 1466.66 L89.5336 1466.66 L89.5336 1462.72 Q92.1956 1459.97 96.7789 1455.34 Q101.385 1450.68 102.566 1449.34 Q104.811 1446.82 105.691 1445.08 Q106.594 1443.32 106.594 1441.63 Q106.594 1438.88 104.649 1437.14 Q102.728 1435.41 99.6261 1435.41 Q97.4271 1435.41 94.9734 1436.17 Q92.5428 1436.93 89.7651 1438.48 L89.7651 1433.76 Q92.5891 1432.63 95.0428 1432.05 Q97.4965 1431.47 99.5335 1431.47 Q104.904 1431.47 108.098 1434.16 Q111.293 1436.84 111.293 1441.33 Q111.293 1443.46 110.483 1445.38 Q109.696 1447.28 107.589 1449.87 Q107.01 1450.55 103.909 1453.76 Q100.807 1456.96 95.1586 1462.72 Z" fill="#000000" fill-rule="nonzero" fill-opacity="1" /><path clip-path="url(#clip630)" d="M50.9921 1131.62 L80.6679 1131.62 L80.6679 1135.55 L50.9921 1135.55 L50.9921 1131.62 Z" fill="#000000" fill-rule="nonzero" fill-opacity="1" /><path clip-path="url(#clip630)" d="M91.5706 1144.51 L99.2095 1144.51 L99.2095 1118.15 L90.8993 1119.81 L90.8993 1115.55 L99.1632 1113.89 L103.839 1113.89 L103.839 1144.51 L111.478 1144.51 L111.478 1148.45 L91.5706 1148.45 L91.5706 1144.51 Z" fill="#000000" fill-rule="nonzero" fill-opacity="1" /><path clip-path="url(#clip630)" d="M99.5335 798.756 Q95.9224 798.756 94.0937 802.321 Q92.2882 805.862 92.2882 812.992 Q92.2882 820.098 94.0937 823.663 Q95.9224 827.205 99.5335 827.205 Q103.168 827.205 104.973 823.663 Q106.802 820.098 106.802 812.992 Q106.802 805.862 104.973 802.321 Q103.168 798.756 99.5335 798.756 M99.5335 795.052 Q105.344 795.052 108.399 799.659 Q111.478 804.242 111.478 812.992 Q111.478 821.719 108.399 826.325 Q105.344 830.909 99.5335 830.909 Q93.7234 830.909 90.6447 826.325 Q87.5892 821.719 87.5892 812.992 Q87.5892 804.242 90.6447 799.659 Q93.7234 795.052 99.5335 795.052 Z" fill="#000000" fill-rule="nonzero" fill-opacity="1" /><path clip-path="url(#clip630)" d="M91.5706 508.093 L99.2095 508.093 L99.2095 481.727 L90.8993 483.394 L90.8993 479.135 L99.1632 477.468 L103.839 477.468 L103.839 508.093 L111.478 508.093 L111.478 512.028 L91.5706 512.028 L91.5706 508.093 Z" fill="#000000" fill-rule="nonzero" fill-opacity="1" /><path clip-path="url(#clip630)" d="M95.1586 189.883 L111.478 189.883 L111.478 193.818 L89.5336 193.818 L89.5336 189.883 Q92.1956 187.129 96.7789 182.499 Q101.385 177.846 102.566 176.504 Q104.811 173.981 105.691 172.245 Q106.594 170.485 106.594 168.795 Q106.594 166.041 104.649 164.305 Q102.728 162.569 99.6261 162.569 Q97.4271 162.569 94.9734 163.333 Q92.5428 164.096 89.7651 165.647 L89.7651 160.925 Q92.5891 159.791 95.0428 159.212 Q97.4965 158.633 99.5335 158.633 Q104.904 158.633 108.098 161.319 Q111.293 164.004 111.293 168.495 Q111.293 170.624 110.483 172.545 Q109.696 174.444 107.589 177.036 Q107.01 177.707 103.909 180.925 Q100.807 184.119 95.1586 189.883 Z" fill="#000000" fill-rule="nonzero" fill-opacity="1" /><circle clip-path="url(#clip631)" cx="1029.36" cy="889.701" r="14.4" fill="#009af9" fill-rule="evenodd" fill-opacity="0.5" stroke="#000000" stroke-opacity="0.5" stroke-width="3.2"/>
<circle clip-path="url(#clip631)" cx="1006.31" cy="664.986" r="14.4" fill="#009af9" fill-rule="evenodd" fill-opacity="0.5" stroke="#000000" stroke-opacity="0.5" stroke-width="3.2"/>
<circle clip-path="url(#clip631)" cx="661.675" cy="1184.12" r="14.4" fill="#009af9" fill-rule="evenodd" fill-opacity="0.5" stroke="#000000" stroke-opacity="0.5" stroke-width="3.2"/>
<circle clip-path="url(#clip631)" cx="739.764" cy="1159.23" r="14.4" fill="#009af9" fill-rule="evenodd" fill-opacity="0.5" stroke="#000000" stroke-opacity="0.5" stroke-width="3.2"/>
<circle clip-path="url(#clip631)" cx="2290.34" cy="472.273" r="14.4" fill="#009af9" fill-rule="evenodd" fill-opacity="0.5" stroke="#000000" stroke-opacity="0.5" stroke-width="3.2"/>
<circle clip-path="url(#clip631)" cx="662.122" cy="653.969" r="14.4" fill="#009af9" fill-rule="evenodd" fill-opacity="0.5" stroke="#000000" stroke-opacity="0.5" stroke-width="3.2"/>
<circle clip-path="url(#clip631)" cx="677.112" cy="1022.65" r="14.4" fill="#009af9" fill-rule="evenodd" fill-opacity="0.5" stroke="#000000" stroke-opacity="0.5" stroke-width="3.2"/>
<circle clip-path="url(#clip631)" cx="1218.93" cy="1206.14" r="14.4" fill="#009af9" fill-rule="evenodd" fill-opacity="0.5" stroke="#000000" stroke-opacity="0.5" stroke-width="3.2"/>
<circle clip-path="url(#clip631)" cx="854.286" cy="594.802" r="14.4" fill="#009af9" fill-rule="evenodd" fill-opacity="0.5" stroke="#000000" stroke-opacity="0.5" stroke-width="3.2"/>
<circle clip-path="url(#clip631)" cx="1757.06" cy="1445.72" r="14.4" fill="#009af9" fill-rule="evenodd" fill-opacity="0.5" stroke="#000000" stroke-opacity="0.5" stroke-width="3.2"/>
<circle clip-path="url(#clip631)" cx="962.782" cy="523.378" r="14.4" fill="#009af9" fill-rule="evenodd" fill-opacity="0.5" stroke="#000000" stroke-opacity="0.5" stroke-width="3.2"/>
<circle clip-path="url(#clip631)" cx="1083.88" cy="466.255" r="14.4" fill="#009af9" fill-rule="evenodd" fill-opacity="0.5" stroke="#000000" stroke-opacity="0.5" stroke-width="3.2"/>
<circle clip-path="url(#clip631)" cx="209.891" cy="159.214" r="14.4" fill="#009af9" fill-rule="evenodd" fill-opacity="0.5" stroke="#000000" stroke-opacity="0.5" stroke-width="3.2"/>
<circle clip-path="url(#clip631)" cx="1269.98" cy="713.79" r="14.4" fill="#009af9" fill-rule="evenodd" fill-opacity="0.5" stroke="#000000" stroke-opacity="0.5" stroke-width="3.2"/>
<circle clip-path="url(#clip631)" cx="1283.4" cy="824.425" r="14.4" fill="#009af9" fill-rule="evenodd" fill-opacity="0.5" stroke="#000000" stroke-opacity="0.5" stroke-width="3.2"/>
<circle clip-path="url(#clip631)" cx="752.351" cy="1241.82" r="14.4" fill="#009af9" fill-rule="evenodd" fill-opacity="0.5" stroke="#000000" stroke-opacity="0.5" stroke-width="3.2"/>
<circle clip-path="url(#clip631)" cx="1416.11" cy="1234.27" r="14.4" fill="#009af9" fill-rule="evenodd" fill-opacity="0.5" stroke="#000000" stroke-opacity="0.5" stroke-width="3.2"/>
<circle clip-path="url(#clip631)" cx="1163.27" cy="1058" r="14.4" fill="#009af9" fill-rule="evenodd" fill-opacity="0.5" stroke="#000000" stroke-opacity="0.5" stroke-width="3.2"/>
<circle clip-path="url(#clip631)" cx="1632.27" cy="87.9763" r="14.4" fill="#009af9" fill-rule="evenodd" fill-opacity="0.5" stroke="#000000" stroke-opacity="0.5" stroke-width="3.2"/>
<circle clip-path="url(#clip631)" cx="1832.97" cy="663.696" r="14.4" fill="#009af9" fill-rule="evenodd" fill-opacity="0.5" stroke="#000000" stroke-opacity="0.5" stroke-width="3.2"/>
<circle clip-path="url(#clip631)" cx="421.18" cy="793.115" r="14.4" fill="#009af9" fill-rule="evenodd" fill-opacity="0.5" stroke="#000000" stroke-opacity="0.5" stroke-width="3.2"/>
<circle clip-path="url(#clip631)" cx="503.621" cy="1126.51" r="14.4" fill="#009af9" fill-rule="evenodd" fill-opacity="0.5" stroke="#000000" stroke-opacity="0.5" stroke-width="3.2"/>
<circle clip-path="url(#clip631)" cx="1273.01" cy="809.77" r="14.4" fill="#009af9" fill-rule="evenodd" fill-opacity="0.5" stroke="#000000" stroke-opacity="0.5" stroke-width="3.2"/>
<circle clip-path="url(#clip631)" cx="1197.52" cy="698.608" r="14.4" fill="#009af9" fill-rule="evenodd" fill-opacity="0.5" stroke="#000000" stroke-opacity="0.5" stroke-width="3.2"/>
<circle clip-path="url(#clip631)" cx="982.313" cy="399.366" r="14.4" fill="#009af9" fill-rule="evenodd" fill-opacity="0.5" stroke="#000000" stroke-opacity="0.5" stroke-width="3.2"/>
<circle clip-path="url(#clip631)" cx="1148.84" cy="1309.95" r="14.4" fill="#009af9" fill-rule="evenodd" fill-opacity="0.5" stroke="#000000" stroke-opacity="0.5" stroke-width="3.2"/>
<circle clip-path="url(#clip631)" cx="940.2" cy="268.594" r="14.4" fill="#009af9" fill-rule="evenodd" fill-opacity="0.5" stroke="#000000" stroke-opacity="0.5" stroke-width="3.2"/>
<circle clip-path="url(#clip631)" cx="1254.21" cy="1344.12" r="14.4" fill="#009af9" fill-rule="evenodd" fill-opacity="0.5" stroke="#000000" stroke-opacity="0.5" stroke-width="3.2"/>
<circle clip-path="url(#clip631)" cx="393.111" cy="636.484" r="14.4" fill="#009af9" fill-rule="evenodd" fill-opacity="0.5" stroke="#000000" stroke-opacity="0.5" stroke-width="3.2"/>
<circle clip-path="url(#clip631)" cx="925.33" cy="735.136" r="14.4" fill="#009af9" fill-rule="evenodd" fill-opacity="0.5" stroke="#000000" stroke-opacity="0.5" stroke-width="3.2"/>
<path clip-path="url(#clip631)" d="M209.891 159.214 L503.621 1126.51 L752.351 1241.82 L1254.21 1344.12 L1757.06 1445.72 L2290.34 472.273 L1632.27 87.9763 L209.891 159.214 L209.891 159.214  Z" fill="#e26f46" fill-rule="evenodd" fill-opacity="0.2"/>
<polyline clip-path="url(#clip631)" style="stroke:#000000; stroke-linecap:round; stroke-linejoin:round; stroke-width:4; stroke-opacity:0.2; fill:none" points="209.891,159.214 503.621,1126.51 752.351,1241.82 1254.21,1344.12 1757.06,1445.72 2290.34,472.273 1632.27,87.9763 209.891,159.214 "/>
</svg>
