<?xml version="1.0" encoding="utf-8"?>
<svg xmlns="http://www.w3.org/2000/svg" xmlns:xlink="http://www.w3.org/1999/xlink" width="600" height="400" viewBox="0 0 2400 1600">
<defs>
  <clipPath id="clip750">
    <rect x="0" y="0" width="2400" height="1600"/>
  </clipPath>
</defs>
<path clip-path="url(#clip750)" d="M0 1600 L2400 1600 L2400 0 L0 0  Z" fill="#ffffff" fill-rule="evenodd" fill-opacity="1"/>
<defs>
  <clipPath id="clip751">
    <rect x="193" y="47" width="2160" height="1440"/>
  </clipPath>
</defs>
<path clip-path="url(#clip750)" d="M193.936 1486.45 L2352.76 1486.45 L2352.76 47.2441 L193.936 47.2441  Z" fill="#ffffff" fill-rule="evenodd" fill-opacity="1"/>
<polyline clip-path="url(#clip751)" style="stroke:#000000; stroke-linecap:round; stroke-linejoin:round; stroke-width:2; stroke-opacity:0.1; fill:none" points="300.893,1486.45 300.893,47.2441 "/>
<polyline clip-path="url(#clip751)" style="stroke:#000000; stroke-linecap:round; stroke-linejoin:round; stroke-width:2; stroke-opacity:0.1; fill:none" points="812.054,1486.45 812.054,47.2441 "/>
<polyline clip-path="url(#clip751)" style="stroke:#000000; stroke-linecap:round; stroke-linejoin:round; stroke-width:2; stroke-opacity:0.1; fill:none" points="1323.21,1486.45 1323.21,47.2441 "/>
<polyline clip-path="url(#clip751)" style="stroke:#000000; stroke-linecap:round; stroke-linejoin:round; stroke-width:2; stroke-opacity:0.1; fill:none" points="1834.38,1486.45 1834.38,47.2441 "/>
<polyline clip-path="url(#clip751)" style="stroke:#000000; stroke-linecap:round; stroke-linejoin:round; stroke-width:2; stroke-opacity:0.1; fill:none" points="2345.54,1486.45 2345.54,47.2441 "/>
<polyline clip-path="url(#clip751)" style="stroke:#000000; stroke-linecap:round; stroke-linejoin:round; stroke-width:2; stroke-opacity:0.1; fill:none" points="193.936,1354.48 2352.76,1354.48 "/>
<polyline clip-path="url(#clip751)" style="stroke:#000000; stroke-linecap:round; stroke-linejoin:round; stroke-width:2; stroke-opacity:0.1; fill:none" points="193.936,1137.71 2352.76,1137.71 "/>
<polyline clip-path="url(#clip751)" style="stroke:#000000; stroke-linecap:round; stroke-linejoin:round; stroke-width:2; stroke-opacity:0.1; fill:none" points="193.936,920.93 2352.76,920.93 "/>
<polyline clip-path="url(#clip751)" style="stroke:#000000; stroke-linecap:round; stroke-linejoin:round; stroke-width:2; stroke-opacity:0.1; fill:none" points="193.936,704.154 2352.76,704.154 "/>
<polyline clip-path="url(#clip751)" style="stroke:#000000; stroke-linecap:round; stroke-linejoin:round; stroke-width:2; stroke-opacity:0.1; fill:none" points="193.936,487.377 2352.76,487.377 "/>
<polyline clip-path="url(#clip751)" style="stroke:#000000; stroke-linecap:round; stroke-linejoin:round; stroke-width:2; stroke-opacity:0.1; fill:none" points="193.936,270.601 2352.76,270.601 "/>
<polyline clip-path="url(#clip751)" style="stroke:#000000; stroke-linecap:round; stroke-linejoin:round; stroke-width:2; stroke-opacity:0.1; fill:none" points="193.936,53.8243 2352.76,53.8243 "/>
<polyline clip-path="url(#clip750)" style="stroke:#000000; stroke-linecap:round; stroke-linejoin:round; stroke-width:4; stroke-opacity:1; fill:none" points="193.936,1486.45 2352.76,1486.45 "/>
<polyline clip-path="url(#clip750)" style="stroke:#000000; stroke-linecap:round; stroke-linejoin:round; stroke-width:4; stroke-opacity:1; fill:none" points="300.893,1486.45 300.893,1467.55 "/>
<polyline clip-path="url(#clip750)" style="stroke:#000000; stroke-linecap:round; stroke-linejoin:round; stroke-width:4; stroke-opacity:1; fill:none" points="812.054,1486.45 812.054,1467.55 "/>
<polyline clip-path="url(#clip750)" style="stroke:#000000; stroke-linecap:round; stroke-linejoin:round; stroke-width:4; stroke-opacity:1; fill:none" points="1323.21,1486.45 1323.21,1467.55 "/>
<polyline clip-path="url(#clip750)" style="stroke:#000000; stroke-linecap:round; stroke-linejoin:round; stroke-width:4; stroke-opacity:1; fill:none" points="1834.38,1486.45 1834.38,1467.55 "/>
<polyline clip-path="url(#clip750)" style="stroke:#000000; stroke-linecap:round; stroke-linejoin:round; stroke-width:4; stroke-opacity:1; fill:none" points="2345.54,1486.45 2345.54,1467.55 "/>
<path clip-path="url(#clip750)" d="M270.835 1532.02 L300.511 1532.02 L300.511 1535.95 L270.835 1535.95 L270.835 1532.02 Z" fill="#000000" fill-rule="nonzero" fill-opacity="1" /><path clip-path="url(#clip750)" d="M314.631 1544.91 L330.951 1544.91 L330.951 1548.85 L309.006 1548.85 L309.006 1544.91 Q311.668 1542.16 316.252 1537.53 Q320.858 1532.88 322.039 1531.53 Q324.284 1529.01 325.164 1527.27 Q326.066 1525.51 326.066 1523.82 Q326.066 1521.07 324.122 1519.33 Q322.201 1517.6 319.099 1517.6 Q316.9 1517.6 314.446 1518.36 Q312.016 1519.13 309.238 1520.68 L309.238 1515.95 Q312.062 1514.82 314.515 1514.24 Q316.969 1513.66 319.006 1513.66 Q324.377 1513.66 327.571 1516.35 Q330.765 1519.03 330.765 1523.52 Q330.765 1525.65 329.955 1527.57 Q329.168 1529.47 327.062 1532.07 Q326.483 1532.74 323.381 1535.95 Q320.279 1539.15 314.631 1544.91 Z" fill="#000000" fill-rule="nonzero" fill-opacity="1" /><path clip-path="url(#clip750)" d="M781.811 1532.02 L811.487 1532.02 L811.487 1535.95 L781.811 1535.95 L781.811 1532.02 Z" fill="#000000" fill-rule="nonzero" fill-opacity="1" /><path clip-path="url(#clip750)" d="M822.389 1544.91 L830.028 1544.91 L830.028 1518.55 L821.718 1520.21 L821.718 1515.95 L829.982 1514.29 L834.658 1514.29 L834.658 1544.91 L842.297 1544.91 L842.297 1548.85 L822.389 1548.85 L822.389 1544.91 Z" fill="#000000" fill-rule="nonzero" fill-opacity="1" /><path clip-path="url(#clip750)" d="M1323.21 1517.37 Q1319.6 1517.37 1317.77 1520.93 Q1315.97 1524.47 1315.97 1531.6 Q1315.97 1538.71 1317.77 1542.27 Q1319.6 1545.82 1323.21 1545.82 Q1326.85 1545.82 1328.65 1542.27 Q1330.48 1538.71 1330.48 1531.6 Q1330.48 1524.47 1328.65 1520.93 Q1326.85 1517.37 1323.21 1517.37 M1323.21 1513.66 Q1329.02 1513.66 1332.08 1518.27 Q1335.16 1522.85 1335.16 1531.6 Q1335.16 1540.33 1332.08 1544.94 Q1329.02 1549.52 1323.21 1549.52 Q1317.4 1549.52 1314.33 1544.94 Q1311.27 1540.33 1311.27 1531.6 Q1311.27 1522.85 1314.33 1518.27 Q1317.4 1513.66 1323.21 1513.66 Z" fill="#000000" fill-rule="nonzero" fill-opacity="1" /><path clip-path="url(#clip750)" d="M1824.76 1544.91 L1832.4 1544.91 L1832.4 1518.55 L1824.09 1520.21 L1824.09 1515.95 L1832.35 1514.29 L1837.03 1514.29 L1837.03 1544.91 L1844.66 1544.91 L1844.66 1548.85 L1824.76 1548.85 L1824.76 1544.91 Z" fill="#000000" fill-rule="nonzero" fill-opacity="1" /><path clip-path="url(#clip750)" d="M2340.19 1544.91 L2356.51 1544.91 L2356.51 1548.85 L2334.56 1548.85 L2334.56 1544.91 Q2337.23 1542.16 2341.81 1537.53 Q2346.42 1532.88 2347.6 1531.53 Q2349.84 1529.01 2350.72 1527.27 Q2351.62 1525.51 2351.62 1523.82 Q2351.62 1521.07 2349.68 1519.33 Q2347.76 1517.6 2344.66 1517.6 Q2342.46 1517.6 2340 1518.36 Q2337.57 1519.13 2334.8 1520.68 L2334.8 1515.95 Q2337.62 1514.82 2340.07 1514.24 Q2342.53 1513.66 2344.56 1513.66 Q2349.93 1513.66 2353.13 1516.35 Q2356.32 1519.03 2356.32 1523.52 Q2356.32 1525.65 2355.51 1527.57 Q2354.73 1529.47 2352.62 1532.07 Q2352.04 1532.74 2348.94 1535.95 Q2345.84 1539.15 2340.19 1544.91 Z" fill="#000000" fill-rule="nonzero" fill-opacity="1" /><polyline clip-path="url(#clip750)" style="stroke:#000000; stroke-linecap:round; stroke-linejoin:round; stroke-width:4; stroke-opacity:1; fill:none" points="193.936,1486.45 193.936,47.2441 "/>
<polyline clip-path="url(#clip750)" style="stroke:#000000; stroke-linecap:round; stroke-linejoin:round; stroke-width:4; stroke-opacity:1; fill:none" points="193.936,1354.48 212.834,1354.48 "/>
<polyline clip-path="url(#clip750)" style="stroke:#000000; stroke-linecap:round; stroke-linejoin:round; stroke-width:4; stroke-opacity:1; fill:none" points="193.936,1137.71 212.834,1137.71 "/>
<polyline clip-path="url(#clip750)" style="stroke:#000000; stroke-linecap:round; stroke-linejoin:round; stroke-width:4; stroke-opacity:1; fill:none" points="193.936,920.93 212.834,920.93 "/>
<polyline clip-path="url(#clip750)" style="stroke:#000000; stroke-linecap:round; stroke-linejoin:round; stroke-width:4; stroke-opacity:1; fill:none" points="193.936,704.154 212.834,704.154 "/>
<polyline clip-path="url(#clip750)" style="stroke:#000000; stroke-linecap:round; stroke-linejoin:round; stroke-width:4; stroke-opacity:1; fill:none" points="193.936,487.377 212.834,487.377 "/>
<polyline clip-path="url(#clip750)" style="stroke:#000000; stroke-linecap:round; stroke-linejoin:round; stroke-width:4; stroke-opacity:1; fill:none" points="193.936,270.601 212.834,270.601 "/>
<polyline clip-path="url(#clip750)" style="stroke:#000000; stroke-linecap:round; stroke-linejoin:round; stroke-width:4; stroke-opacity:1; fill:none" points="193.936,53.8243 212.834,53.8243 "/>
<path clip-path="url(#clip750)" d="M51.9875 1354.93 L81.6633 1354.93 L81.6633 1358.87 L51.9875 1358.87 L51.9875 1354.93 Z" fill="#000000" fill-rule="nonzero" fill-opacity="1" /><path clip-path="url(#clip750)" d="M92.566 1367.83 L100.205 1367.83 L100.205 1341.46 L91.8947 1343.13 L91.8947 1338.87 L100.159 1337.2 L104.834 1337.2 L104.834 1367.83 L112.473 1367.83 L112.473 1371.76 L92.566 1371.76 L92.566 1367.83 Z" fill="#000000" fill-rule="nonzero" fill-opacity="1" /><path clip-path="url(#clip750)" d="M121.918 1365.88 L126.802 1365.88 L126.802 1371.76 L121.918 1371.76 L121.918 1365.88 Z" fill="#000000" fill-rule="nonzero" fill-opacity="1" /><path clip-path="url(#clip750)" d="M137.033 1337.2 L155.39 1337.2 L155.39 1341.14 L141.316 1341.14 L141.316 1349.61 Q142.334 1349.26 143.353 1349.1 Q144.371 1348.92 145.39 1348.92 Q151.177 1348.92 154.556 1352.09 Q157.936 1355.26 157.936 1360.67 Q157.936 1366.25 154.464 1369.36 Q150.992 1372.43 144.672 1372.43 Q142.496 1372.43 140.228 1372.06 Q137.982 1371.69 135.575 1370.95 L135.575 1366.25 Q137.658 1367.39 139.881 1367.94 Q142.103 1368.5 144.58 1368.5 Q148.584 1368.5 150.922 1366.39 Q153.26 1364.29 153.26 1360.67 Q153.26 1357.06 150.922 1354.96 Q148.584 1352.85 144.58 1352.85 Q142.705 1352.85 140.83 1353.27 Q138.978 1353.68 137.033 1354.56 L137.033 1337.2 Z" fill="#000000" fill-rule="nonzero" fill-opacity="1" /><path clip-path="url(#clip750)" d="M50.9921 1138.16 L80.6679 1138.16 L80.6679 1142.09 L50.9921 1142.09 L50.9921 1138.16 Z" fill="#000000" fill-rule="nonzero" fill-opacity="1" /><path clip-path="url(#clip750)" d="M91.5706 1151.05 L99.2095 1151.05 L99.2095 1124.69 L90.8993 1126.35 L90.8993 1122.09 L99.1632 1120.43 L103.839 1120.43 L103.839 1151.05 L111.478 1151.05 L111.478 1154.99 L91.5706 1154.99 L91.5706 1151.05 Z" fill="#000000" fill-rule="nonzero" fill-opacity="1" /><path clip-path="url(#clip750)" d="M120.922 1149.11 L125.807 1149.11 L125.807 1154.99 L120.922 1154.99 L120.922 1149.11 Z" fill="#000000" fill-rule="nonzero" fill-opacity="1" /><path clip-path="url(#clip750)" d="M145.992 1123.51 Q142.381 1123.51 140.552 1127.07 Q138.746 1130.61 138.746 1137.74 Q138.746 1144.85 140.552 1148.41 Q142.381 1151.95 145.992 1151.95 Q149.626 1151.95 151.431 1148.41 Q153.26 1144.85 153.26 1137.74 Q153.26 1130.61 151.431 1127.07 Q149.626 1123.51 145.992 1123.51 M145.992 1119.8 Q151.802 1119.8 154.857 1124.41 Q157.936 1128.99 157.936 1137.74 Q157.936 1146.47 154.857 1151.07 Q151.802 1155.66 145.992 1155.66 Q140.181 1155.66 137.103 1151.07 Q134.047 1146.47 134.047 1137.74 Q134.047 1128.99 137.103 1124.41 Q140.181 1119.8 145.992 1119.8 Z" fill="#000000" fill-rule="nonzero" fill-opacity="1" /><path clip-path="url(#clip750)" d="M51.9875 921.381 L81.6633 921.381 L81.6633 925.317 L51.9875 925.317 L51.9875 921.381 Z" fill="#000000" fill-rule="nonzero" fill-opacity="1" /><path clip-path="url(#clip750)" d="M101.756 906.729 Q98.1447 906.729 96.316 910.293 Q94.5104 913.835 94.5104 920.965 Q94.5104 928.071 96.316 931.636 Q98.1447 935.178 101.756 935.178 Q105.39 935.178 107.196 931.636 Q109.024 928.071 109.024 920.965 Q109.024 913.835 107.196 910.293 Q105.39 906.729 101.756 906.729 M101.756 903.025 Q107.566 903.025 110.621 907.631 Q113.7 912.215 113.7 920.965 Q113.7 929.692 110.621 934.298 Q107.566 938.881 101.756 938.881 Q95.9456 938.881 92.8669 934.298 Q89.8114 929.692 89.8114 920.965 Q89.8114 912.215 92.8669 907.631 Q95.9456 903.025 101.756 903.025 Z" fill="#000000" fill-rule="nonzero" fill-opacity="1" /><path clip-path="url(#clip750)" d="M121.918 932.33 L126.802 932.33 L126.802 938.21 L121.918 938.21 L121.918 932.33 Z" fill="#000000" fill-rule="nonzero" fill-opacity="1" /><path clip-path="url(#clip750)" d="M137.033 903.65 L155.39 903.65 L155.39 907.585 L141.316 907.585 L141.316 916.057 Q142.334 915.71 143.353 915.548 Q144.371 915.363 145.39 915.363 Q151.177 915.363 154.556 918.534 Q157.936 921.705 157.936 927.122 Q157.936 932.701 154.464 935.803 Q150.992 938.881 144.672 938.881 Q142.496 938.881 140.228 938.511 Q137.982 938.141 135.575 937.4 L135.575 932.701 Q137.658 933.835 139.881 934.391 Q142.103 934.946 144.58 934.946 Q148.584 934.946 150.922 932.84 Q153.26 930.733 153.26 927.122 Q153.26 923.511 150.922 921.405 Q148.584 919.298 144.58 919.298 Q142.705 919.298 140.83 919.715 Q138.978 920.131 137.033 921.011 L137.033 903.65 Z" fill="#000000" fill-rule="nonzero" fill-opacity="1" /><path clip-path="url(#clip750)" d="M100.76 689.952 Q97.1493 689.952 95.3206 693.517 Q93.515 697.059 93.515 704.188 Q93.515 711.295 95.3206 714.86 Q97.1493 718.401 100.76 718.401 Q104.395 718.401 106.2 714.86 Q108.029 711.295 108.029 704.188 Q108.029 697.059 106.2 693.517 Q104.395 689.952 100.76 689.952 M100.76 686.249 Q106.571 686.249 109.626 690.855 Q112.705 695.438 112.705 704.188 Q112.705 712.915 109.626 717.522 Q106.571 722.105 100.76 722.105 Q94.9502 722.105 91.8715 717.522 Q88.816 712.915 88.816 704.188 Q88.816 695.438 91.8715 690.855 Q94.9502 686.249 100.76 686.249 Z" fill="#000000" fill-rule="nonzero" fill-opacity="1" /><path clip-path="url(#clip750)" d="M120.922 715.554 L125.807 715.554 L125.807 721.434 L120.922 721.434 L120.922 715.554 Z" fill="#000000" fill-rule="nonzero" fill-opacity="1" /><path clip-path="url(#clip750)" d="M145.992 689.952 Q142.381 689.952 140.552 693.517 Q138.746 697.059 138.746 704.188 Q138.746 711.295 140.552 714.86 Q142.381 718.401 145.992 718.401 Q149.626 718.401 151.431 714.86 Q153.26 711.295 153.26 704.188 Q153.26 697.059 151.431 693.517 Q149.626 689.952 145.992 689.952 M145.992 686.249 Q151.802 686.249 154.857 690.855 Q157.936 695.438 157.936 704.188 Q157.936 712.915 154.857 717.522 Q151.802 722.105 145.992 722.105 Q140.181 722.105 137.103 717.522 Q134.047 712.915 134.047 704.188 Q134.047 695.438 137.103 690.855 Q140.181 686.249 145.992 686.249 Z" fill="#000000" fill-rule="nonzero" fill-opacity="1" /><path clip-path="url(#clip750)" d="M101.756 473.176 Q98.1447 473.176 96.316 476.741 Q94.5104 480.282 94.5104 487.412 Q94.5104 494.518 96.316 498.083 Q98.1447 501.625 101.756 501.625 Q105.39 501.625 107.196 498.083 Q109.024 494.518 109.024 487.412 Q109.024 480.282 107.196 476.741 Q105.39 473.176 101.756 473.176 M101.756 469.472 Q107.566 469.472 110.621 474.079 Q113.7 478.662 113.7 487.412 Q113.7 496.139 110.621 500.745 Q107.566 505.328 101.756 505.328 Q95.9456 505.328 92.8669 500.745 Q89.8114 496.139 89.8114 487.412 Q89.8114 478.662 92.8669 474.079 Q95.9456 469.472 101.756 469.472 Z" fill="#000000" fill-rule="nonzero" fill-opacity="1" /><path clip-path="url(#clip750)" d="M121.918 498.778 L126.802 498.778 L126.802 504.657 L121.918 504.657 L121.918 498.778 Z" fill="#000000" fill-rule="nonzero" fill-opacity="1" /><path clip-path="url(#clip750)" d="M137.033 470.097 L155.39 470.097 L155.39 474.032 L141.316 474.032 L141.316 482.504 Q142.334 482.157 143.353 481.995 Q144.371 481.81 145.39 481.81 Q151.177 481.81 154.556 484.981 Q157.936 488.153 157.936 493.569 Q157.936 499.148 154.464 502.25 Q150.992 505.328 144.672 505.328 Q142.496 505.328 140.228 504.958 Q137.982 504.588 135.575 503.847 L135.575 499.148 Q137.658 500.282 139.881 500.838 Q142.103 501.393 144.58 501.393 Q148.584 501.393 150.922 499.287 Q153.26 497.18 153.26 493.569 Q153.26 489.958 150.922 487.852 Q148.584 485.745 144.58 485.745 Q142.705 485.745 140.83 486.162 Q138.978 486.579 137.033 487.458 L137.033 470.097 Z" fill="#000000" fill-rule="nonzero" fill-opacity="1" /><path clip-path="url(#clip750)" d="M91.5706 283.946 L99.2095 283.946 L99.2095 257.58 L90.8993 259.247 L90.8993 254.987 L99.1632 253.321 L103.839 253.321 L103.839 283.946 L111.478 283.946 L111.478 287.881 L91.5706 287.881 L91.5706 283.946 Z" fill="#000000" fill-rule="nonzero" fill-opacity="1" /><path clip-path="url(#clip750)" d="M120.922 282.001 L125.807 282.001 L125.807 287.881 L120.922 287.881 L120.922 282.001 Z" fill="#000000" fill-rule="nonzero" fill-opacity="1" /><path clip-path="url(#clip750)" d="M145.992 256.399 Q142.381 256.399 140.552 259.964 Q138.746 263.506 138.746 270.635 Q138.746 277.742 140.552 281.307 Q142.381 284.848 145.992 284.848 Q149.626 284.848 151.431 281.307 Q153.26 277.742 153.26 270.635 Q153.26 263.506 151.431 259.964 Q149.626 256.399 145.992 256.399 M145.992 252.696 Q151.802 252.696 154.857 257.302 Q157.936 261.885 157.936 270.635 Q157.936 279.362 154.857 283.969 Q151.802 288.552 145.992 288.552 Q140.181 288.552 137.103 283.969 Q134.047 279.362 134.047 270.635 Q134.047 261.885 137.103 257.302 Q140.181 252.696 145.992 252.696 Z" fill="#000000" fill-rule="nonzero" fill-opacity="1" /><path clip-path="url(#clip750)" d="M92.566 67.1691 L100.205 67.1691 L100.205 40.8035 L91.8947 42.4702 L91.8947 38.211 L100.159 36.5443 L104.834 36.5443 L104.834 67.1691 L112.473 67.1691 L112.473 71.1043 L92.566 71.1043 L92.566 67.1691 Z" fill="#000000" fill-rule="nonzero" fill-opacity="1" /><path clip-path="url(#clip750)" d="M121.918 65.2247 L126.802 65.2247 L126.802 71.1043 L121.918 71.1043 L121.918 65.2247 Z" fill="#000000" fill-rule="nonzero" fill-opacity="1" /><path clip-path="url(#clip750)" d="M137.033 36.5443 L155.39 36.5443 L155.39 40.4795 L141.316 40.4795 L141.316 48.9517 Q142.334 48.6044 143.353 48.4424 Q144.371 48.2572 145.39 48.2572 Q151.177 48.2572 154.556 51.4285 Q157.936 54.5998 157.936 60.0164 Q157.936 65.5951 154.464 68.6969 Q150.992 71.7756 144.672 71.7756 Q142.496 71.7756 140.228 71.4052 Q137.982 71.0349 135.575 70.2941 L135.575 65.5951 Q137.658 66.7293 139.881 67.2849 Q142.103 67.8404 144.58 67.8404 Q148.584 67.8404 150.922 65.734 Q153.26 63.6275 153.26 60.0164 Q153.26 56.4053 150.922 54.2988 Q148.584 52.1924 144.58 52.1924 Q142.705 52.1924 140.83 52.609 Q138.978 53.0257 137.033 53.9053 L137.033 36.5443 Z" fill="#000000" fill-rule="nonzero" fill-opacity="1" /><circle clip-path="url(#clip751)" cx="1939.55" cy="134.804" r="14.4" fill="#009af9" fill-rule="evenodd" fill-opacity="0.5" stroke="#000000" stroke-opacity="0.5" stroke-width="3.2"/>
<circle clip-path="url(#clip751)" cx="1569.58" cy="904.643" r="14.4" fill="#009af9" fill-rule="evenodd" fill-opacity="0.5" stroke="#000000" stroke-opacity="0.5" stroke-width="3.2"/>
<circle clip-path="url(#clip751)" cx="1406.98" cy="860.294" r="14.4" fill="#009af9" fill-rule="evenodd" fill-opacity="0.5" stroke="#000000" stroke-opacity="0.5" stroke-width="3.2"/>
<circle clip-path="url(#clip751)" cx="255.035" cy="367.111" r="14.4" fill="#009af9" fill-rule="evenodd" fill-opacity="0.5" stroke="#000000" stroke-opacity="0.5" stroke-width="3.2"/>
<circle clip-path="url(#clip751)" cx="1811.04" cy="134.652" r="14.4" fill="#009af9" fill-rule="evenodd" fill-opacity="0.5" stroke="#000000" stroke-opacity="0.5" stroke-width="3.2"/>
<circle clip-path="url(#clip751)" cx="892.236" cy="1060.1" r="14.4" fill="#009af9" fill-rule="evenodd" fill-opacity="0.5" stroke="#000000" stroke-opacity="0.5" stroke-width="3.2"/>
<circle clip-path="url(#clip751)" cx="2124.67" cy="519.61" r="14.4" fill="#009af9" fill-rule="evenodd" fill-opacity="0.5" stroke="#000000" stroke-opacity="0.5" stroke-width="3.2"/>
<circle clip-path="url(#clip751)" cx="1492.96" cy="1388.78" r="14.4" fill="#009af9" fill-rule="evenodd" fill-opacity="0.5" stroke="#000000" stroke-opacity="0.5" stroke-width="3.2"/>
<circle clip-path="url(#clip751)" cx="2291.66" cy="763.389" r="14.4" fill="#009af9" fill-rule="evenodd" fill-opacity="0.5" stroke="#000000" stroke-opacity="0.5" stroke-width="3.2"/>
<circle clip-path="url(#clip751)" cx="1955.99" cy="87.9763" r="14.4" fill="#009af9" fill-rule="evenodd" fill-opacity="0.5" stroke="#000000" stroke-opacity="0.5" stroke-width="3.2"/>
<circle clip-path="url(#clip751)" cx="1126.9" cy="414.909" r="14.4" fill="#009af9" fill-rule="evenodd" fill-opacity="0.5" stroke="#000000" stroke-opacity="0.5" stroke-width="3.2"/>
<circle clip-path="url(#clip751)" cx="1750.33" cy="446.349" r="14.4" fill="#009af9" fill-rule="evenodd" fill-opacity="0.5" stroke="#000000" stroke-opacity="0.5" stroke-width="3.2"/>
<circle clip-path="url(#clip751)" cx="1873.78" cy="838.951" r="14.4" fill="#009af9" fill-rule="evenodd" fill-opacity="0.5" stroke="#000000" stroke-opacity="0.5" stroke-width="3.2"/>
<circle clip-path="url(#clip751)" cx="1724.07" cy="940.573" r="14.4" fill="#009af9" fill-rule="evenodd" fill-opacity="0.5" stroke="#000000" stroke-opacity="0.5" stroke-width="3.2"/>
<circle clip-path="url(#clip751)" cx="1996.06" cy="198.904" r="14.4" fill="#009af9" fill-rule="evenodd" fill-opacity="0.5" stroke="#000000" stroke-opacity="0.5" stroke-width="3.2"/>
<circle clip-path="url(#clip751)" cx="803.254" cy="235.253" r="14.4" fill="#009af9" fill-rule="evenodd" fill-opacity="0.5" stroke="#000000" stroke-opacity="0.5" stroke-width="3.2"/>
<circle clip-path="url(#clip751)" cx="745.585" cy="1110.59" r="14.4" fill="#009af9" fill-rule="evenodd" fill-opacity="0.5" stroke="#000000" stroke-opacity="0.5" stroke-width="3.2"/>
<circle clip-path="url(#clip751)" cx="1693.28" cy="410.536" r="14.4" fill="#009af9" fill-rule="evenodd" fill-opacity="0.5" stroke="#000000" stroke-opacity="0.5" stroke-width="3.2"/>
<circle clip-path="url(#clip751)" cx="1906.77" cy="957.71" r="14.4" fill="#009af9" fill-rule="evenodd" fill-opacity="0.5" stroke="#000000" stroke-opacity="0.5" stroke-width="3.2"/>
<circle clip-path="url(#clip751)" cx="1989.04" cy="1445.72" r="14.4" fill="#009af9" fill-rule="evenodd" fill-opacity="0.5" stroke="#000000" stroke-opacity="0.5" stroke-width="3.2"/>
<circle clip-path="url(#clip751)" cx="1935.76" cy="172.015" r="14.4" fill="#009af9" fill-rule="evenodd" fill-opacity="0.5" stroke="#000000" stroke-opacity="0.5" stroke-width="3.2"/>
<circle clip-path="url(#clip751)" cx="1712.17" cy="569.264" r="14.4" fill="#009af9" fill-rule="evenodd" fill-opacity="0.5" stroke="#000000" stroke-opacity="0.5" stroke-width="3.2"/>
<circle clip-path="url(#clip751)" cx="1038.92" cy="626.539" r="14.4" fill="#009af9" fill-rule="evenodd" fill-opacity="0.5" stroke="#000000" stroke-opacity="0.5" stroke-width="3.2"/>
<circle clip-path="url(#clip751)" cx="1602.23" cy="737.977" r="14.4" fill="#009af9" fill-rule="evenodd" fill-opacity="0.5" stroke="#000000" stroke-opacity="0.5" stroke-width="3.2"/>
<circle clip-path="url(#clip751)" cx="1454.98" cy="972.875" r="14.4" fill="#009af9" fill-rule="evenodd" fill-opacity="0.5" stroke="#000000" stroke-opacity="0.5" stroke-width="3.2"/>
<circle clip-path="url(#clip751)" cx="1936.35" cy="353.812" r="14.4" fill="#009af9" fill-rule="evenodd" fill-opacity="0.5" stroke="#000000" stroke-opacity="0.5" stroke-width="3.2"/>
<circle clip-path="url(#clip751)" cx="1095.68" cy="506.115" r="14.4" fill="#009af9" fill-rule="evenodd" fill-opacity="0.5" stroke="#000000" stroke-opacity="0.5" stroke-width="3.2"/>
<circle clip-path="url(#clip751)" cx="1168.18" cy="778.057" r="14.4" fill="#009af9" fill-rule="evenodd" fill-opacity="0.5" stroke="#000000" stroke-opacity="0.5" stroke-width="3.2"/>
<circle clip-path="url(#clip751)" cx="1218.41" cy="796.805" r="14.4" fill="#009af9" fill-rule="evenodd" fill-opacity="0.5" stroke="#000000" stroke-opacity="0.5" stroke-width="3.2"/>
<circle clip-path="url(#clip751)" cx="931.494" cy="885.282" r="14.4" fill="#009af9" fill-rule="evenodd" fill-opacity="0.5" stroke="#000000" stroke-opacity="0.5" stroke-width="3.2"/>
<path clip-path="url(#clip751)" d="M255.035 367.111 L745.585 1110.59 L1492.96 1388.78 L1989.04 1445.72 L2291.66 763.389 L1955.99 87.9763 L803.254 235.253 L255.035 367.111 L255.035 367.111  Z" fill="#e26f46" fill-rule="evenodd" fill-opacity="0.2"/>
<polyline clip-path="url(#clip751)" style="stroke:#000000; stroke-linecap:round; stroke-linejoin:round; stroke-width:4; stroke-opacity:0.2; fill:none" points="255.035,367.111 745.585,1110.59 1492.96,1388.78 1989.04,1445.72 2291.66,763.389 1955.99,87.9763 803.254,235.253 255.035,367.111 "/>
</svg>
