<?xml version="1.0" encoding="utf-8"?>
<svg xmlns="http://www.w3.org/2000/svg" xmlns:xlink="http://www.w3.org/1999/xlink" width="600" height="400" viewBox="0 0 2400 1600">
<defs>
  <clipPath id="clip910">
    <rect x="0" y="0" width="2400" height="1600"/>
  </clipPath>
</defs>
<path clip-path="url(#clip910)" d="M0 1600 L2400 1600 L2400 0 L0 0  Z" fill="#ffffff" fill-rule="evenodd" fill-opacity="1"/>
<defs>
  <clipPath id="clip911">
    <rect x="480" y="0" width="1681" height="1600"/>
  </clipPath>
</defs>
<path clip-path="url(#clip910)" d="M147.478 1486.45 L1152.76 1486.45 L1152.76 47.2441 L147.478 47.2441  Z" fill="#ffffff" fill-rule="evenodd" fill-opacity="1"/>
<defs>
  <clipPath id="clip912">
    <rect x="147" y="47" width="1006" height="1440"/>
  </clipPath>
</defs>
<polyline clip-path="url(#clip912)" style="stroke:#000000; stroke-linecap:round; stroke-linejoin:round; stroke-width:2; stroke-opacity:0.1; fill:none" points="175.929,1486.45 175.929,47.2441 "/>
<polyline clip-path="url(#clip912)" style="stroke:#000000; stroke-linecap:round; stroke-linejoin:round; stroke-width:2; stroke-opacity:0.1; fill:none" points="453.702,1486.45 453.702,47.2441 "/>
<polyline clip-path="url(#clip912)" style="stroke:#000000; stroke-linecap:round; stroke-linejoin:round; stroke-width:2; stroke-opacity:0.1; fill:none" points="731.475,1486.45 731.475,47.2441 "/>
<polyline clip-path="url(#clip912)" style="stroke:#000000; stroke-linecap:round; stroke-linejoin:round; stroke-width:2; stroke-opacity:0.1; fill:none" points="1009.25,1486.45 1009.25,47.2441 "/>
<polyline clip-path="url(#clip912)" style="stroke:#000000; stroke-linecap:round; stroke-linejoin:round; stroke-width:2; stroke-opacity:0.1; fill:none" points="147.478,1403.75 1152.76,1403.75 "/>
<polyline clip-path="url(#clip912)" style="stroke:#000000; stroke-linecap:round; stroke-linejoin:round; stroke-width:2; stroke-opacity:0.1; fill:none" points="147.478,1125.98 1152.76,1125.98 "/>
<polyline clip-path="url(#clip912)" style="stroke:#000000; stroke-linecap:round; stroke-linejoin:round; stroke-width:2; stroke-opacity:0.1; fill:none" points="147.478,848.204 1152.76,848.204 "/>
<polyline clip-path="url(#clip912)" style="stroke:#000000; stroke-linecap:round; stroke-linejoin:round; stroke-width:2; stroke-opacity:0.1; fill:none" points="147.478,570.431 1152.76,570.431 "/>
<polyline clip-path="url(#clip912)" style="stroke:#000000; stroke-linecap:round; stroke-linejoin:round; stroke-width:2; stroke-opacity:0.1; fill:none" points="147.478,292.658 1152.76,292.658 "/>
<polyline clip-path="url(#clip910)" style="stroke:#000000; stroke-linecap:round; stroke-linejoin:round; stroke-width:4; stroke-opacity:1; fill:none" points="147.478,1486.45 1152.76,1486.45 "/>
<polyline clip-path="url(#clip910)" style="stroke:#000000; stroke-linecap:round; stroke-linejoin:round; stroke-width:4; stroke-opacity:1; fill:none" points="175.929,1486.45 175.929,1467.55 "/>
<polyline clip-path="url(#clip910)" style="stroke:#000000; stroke-linecap:round; stroke-linejoin:round; stroke-width:4; stroke-opacity:1; fill:none" points="453.702,1486.45 453.702,1467.55 "/>
<polyline clip-path="url(#clip910)" style="stroke:#000000; stroke-linecap:round; stroke-linejoin:round; stroke-width:4; stroke-opacity:1; fill:none" points="731.475,1486.45 731.475,1467.55 "/>
<polyline clip-path="url(#clip910)" style="stroke:#000000; stroke-linecap:round; stroke-linejoin:round; stroke-width:4; stroke-opacity:1; fill:none" points="1009.25,1486.45 1009.25,1467.55 "/>
<path clip-path="url(#clip910)" d="M145.686 1532.02 L175.362 1532.02 L175.362 1535.95 L145.686 1535.95 L145.686 1532.02 Z" fill="#000000" fill-rule="nonzero" fill-opacity="1" /><path clip-path="url(#clip910)" d="M186.265 1544.91 L193.904 1544.91 L193.904 1518.55 L185.593 1520.21 L185.593 1515.95 L193.857 1514.29 L198.533 1514.29 L198.533 1544.91 L206.172 1544.91 L206.172 1548.85 L186.265 1548.85 L186.265 1544.91 Z" fill="#000000" fill-rule="nonzero" fill-opacity="1" /><path clip-path="url(#clip910)" d="M453.702 1517.37 Q450.091 1517.37 448.262 1520.93 Q446.457 1524.47 446.457 1531.6 Q446.457 1538.71 448.262 1542.27 Q450.091 1545.82 453.702 1545.82 Q457.336 1545.82 459.142 1542.27 Q460.97 1538.71 460.97 1531.6 Q460.97 1524.47 459.142 1520.93 Q457.336 1517.37 453.702 1517.37 M453.702 1513.66 Q459.512 1513.66 462.568 1518.27 Q465.646 1522.85 465.646 1531.6 Q465.646 1540.33 462.568 1544.94 Q459.512 1549.52 453.702 1549.52 Q447.892 1549.52 444.813 1544.94 Q441.758 1540.33 441.758 1531.6 Q441.758 1522.85 444.813 1518.27 Q447.892 1513.66 453.702 1513.66 Z" fill="#000000" fill-rule="nonzero" fill-opacity="1" /><path clip-path="url(#clip910)" d="M721.857 1544.91 L729.496 1544.91 L729.496 1518.55 L721.185 1520.21 L721.185 1515.95 L729.449 1514.29 L734.125 1514.29 L734.125 1544.91 L741.764 1544.91 L741.764 1548.85 L721.857 1548.85 L721.857 1544.91 Z" fill="#000000" fill-rule="nonzero" fill-opacity="1" /><path clip-path="url(#clip910)" d="M1003.9 1544.91 L1020.22 1544.91 L1020.22 1548.85 L998.275 1548.85 L998.275 1544.91 Q1000.94 1542.16 1005.52 1537.53 Q1010.13 1532.88 1011.31 1531.53 Q1013.55 1529.01 1014.43 1527.27 Q1015.34 1525.51 1015.34 1523.82 Q1015.34 1521.07 1013.39 1519.33 Q1011.47 1517.6 1008.37 1517.6 Q1006.17 1517.6 1003.72 1518.36 Q1001.28 1519.13 998.507 1520.68 L998.507 1515.95 Q1001.33 1514.82 1003.78 1514.24 Q1006.24 1513.66 1008.28 1513.66 Q1013.65 1513.66 1016.84 1516.35 Q1020.03 1519.03 1020.03 1523.52 Q1020.03 1525.65 1019.22 1527.57 Q1018.44 1529.47 1016.33 1532.07 Q1015.75 1532.74 1012.65 1535.95 Q1009.55 1539.15 1003.9 1544.91 Z" fill="#000000" fill-rule="nonzero" fill-opacity="1" /><polyline clip-path="url(#clip910)" style="stroke:#000000; stroke-linecap:round; stroke-linejoin:round; stroke-width:4; stroke-opacity:1; fill:none" points="147.478,1486.45 147.478,47.2441 "/>
<polyline clip-path="url(#clip910)" style="stroke:#000000; stroke-linecap:round; stroke-linejoin:round; stroke-width:4; stroke-opacity:1; fill:none" points="147.478,1403.75 166.376,1403.75 "/>
<polyline clip-path="url(#clip910)" style="stroke:#000000; stroke-linecap:round; stroke-linejoin:round; stroke-width:4; stroke-opacity:1; fill:none" points="147.478,1125.98 166.376,1125.98 "/>
<polyline clip-path="url(#clip910)" style="stroke:#000000; stroke-linecap:round; stroke-linejoin:round; stroke-width:4; stroke-opacity:1; fill:none" points="147.478,848.204 166.376,848.204 "/>
<polyline clip-path="url(#clip910)" style="stroke:#000000; stroke-linecap:round; stroke-linejoin:round; stroke-width:4; stroke-opacity:1; fill:none" points="147.478,570.431 166.376,570.431 "/>
<polyline clip-path="url(#clip910)" style="stroke:#000000; stroke-linecap:round; stroke-linejoin:round; stroke-width:4; stroke-opacity:1; fill:none" points="147.478,292.658 166.376,292.658 "/>
<path clip-path="url(#clip910)" d="M51.3625 1404.2 L81.0383 1404.2 L81.0383 1408.14 L51.3625 1408.14 L51.3625 1404.2 Z" fill="#000000" fill-rule="nonzero" fill-opacity="1" /><path clip-path="url(#clip910)" d="M95.1586 1417.09 L111.478 1417.09 L111.478 1421.03 L89.5336 1421.03 L89.5336 1417.09 Q92.1956 1414.34 96.7789 1409.71 Q101.385 1405.06 102.566 1403.71 Q104.811 1401.19 105.691 1399.46 Q106.594 1397.7 106.594 1396.01 Q106.594 1393.25 104.649 1391.52 Q102.728 1389.78 99.6261 1389.78 Q97.4271 1389.78 94.9734 1390.54 Q92.5428 1391.31 89.7651 1392.86 L89.7651 1388.14 Q92.5891 1387 95.0428 1386.42 Q97.4965 1385.84 99.5335 1385.84 Q104.904 1385.84 108.098 1388.53 Q111.293 1391.21 111.293 1395.71 Q111.293 1397.83 110.483 1399.76 Q109.696 1401.65 107.589 1404.25 Q107.01 1404.92 103.909 1408.14 Q100.807 1411.33 95.1586 1417.09 Z" fill="#000000" fill-rule="nonzero" fill-opacity="1" /><path clip-path="url(#clip910)" d="M50.9921 1126.43 L80.6679 1126.43 L80.6679 1130.36 L50.9921 1130.36 L50.9921 1126.43 Z" fill="#000000" fill-rule="nonzero" fill-opacity="1" /><path clip-path="url(#clip910)" d="M91.5706 1139.32 L99.2095 1139.32 L99.2095 1112.96 L90.8993 1114.62 L90.8993 1110.36 L99.1632 1108.7 L103.839 1108.7 L103.839 1139.32 L111.478 1139.32 L111.478 1143.26 L91.5706 1143.26 L91.5706 1139.32 Z" fill="#000000" fill-rule="nonzero" fill-opacity="1" /><path clip-path="url(#clip910)" d="M99.5335 834.002 Q95.9224 834.002 94.0937 837.567 Q92.2882 841.109 92.2882 848.238 Q92.2882 855.345 94.0937 858.91 Q95.9224 862.451 99.5335 862.451 Q103.168 862.451 104.973 858.91 Q106.802 855.345 106.802 848.238 Q106.802 841.109 104.973 837.567 Q103.168 834.002 99.5335 834.002 M99.5335 830.299 Q105.344 830.299 108.399 834.905 Q111.478 839.489 111.478 848.238 Q111.478 856.965 108.399 861.572 Q105.344 866.155 99.5335 866.155 Q93.7234 866.155 90.6447 861.572 Q87.5892 856.965 87.5892 848.238 Q87.5892 839.489 90.6447 834.905 Q93.7234 830.299 99.5335 830.299 Z" fill="#000000" fill-rule="nonzero" fill-opacity="1" /><path clip-path="url(#clip910)" d="M91.5706 583.776 L99.2095 583.776 L99.2095 557.41 L90.8993 559.077 L90.8993 554.818 L99.1632 553.151 L103.839 553.151 L103.839 583.776 L111.478 583.776 L111.478 587.711 L91.5706 587.711 L91.5706 583.776 Z" fill="#000000" fill-rule="nonzero" fill-opacity="1" /><path clip-path="url(#clip910)" d="M95.1586 306.003 L111.478 306.003 L111.478 309.938 L89.5336 309.938 L89.5336 306.003 Q92.1956 303.248 96.7789 298.619 Q101.385 293.966 102.566 292.624 Q104.811 290.1 105.691 288.364 Q106.594 286.605 106.594 284.915 Q106.594 282.161 104.649 280.425 Q102.728 278.688 99.6261 278.688 Q97.4271 278.688 94.9734 279.452 Q92.5428 280.216 89.7651 281.767 L89.7651 277.045 Q92.5891 275.911 95.0428 275.332 Q97.4965 274.753 99.5335 274.753 Q104.904 274.753 108.098 277.438 Q111.293 280.124 111.293 284.614 Q111.293 286.744 110.483 288.665 Q109.696 290.563 107.589 293.156 Q107.01 293.827 103.909 297.045 Q100.807 300.239 95.1586 306.003 Z" fill="#000000" fill-rule="nonzero" fill-opacity="1" /><path clip-path="url(#clip912)" d="M175.929 857.847 L176.598 877.111 L177.935 896.305 L179.936 915.383 L182.597 934.299 L185.911 953.008 L189.869 971.464 L194.464 989.624 L199.683 1007.44 L205.514 1024.88 L211.943 1041.89 L218.954 1058.43 L226.531 1074.47 L234.655 1089.96 L243.307 1104.87 L252.465 1119.16 L262.109 1132.8 L272.214 1145.75 L282.756 1157.98 L293.71 1169.47 L305.049 1180.19 L316.747 1190.1 L328.775 1199.19 L341.103 1207.44 L353.703 1214.82 L366.543 1221.32 L379.594 1226.92 L392.823 1231.6 L406.199 1235.37 L419.689 1238.2 L433.262 1240.09 L446.883 1241.03 L460.521 1241.03 L474.142 1240.09 L487.715 1238.2 L501.205 1235.37 L514.581 1231.6 L527.81 1226.92 L540.86 1221.32 L553.701 1214.82 L566.301 1207.44 L578.629 1199.19 L590.657 1190.1 L602.354 1180.19 L613.694 1169.47 L624.648 1157.98 L635.19 1145.75 L645.295 1132.8 L654.939 1119.16 L664.097 1104.87 L672.749 1089.96 L680.873 1074.47 L688.45 1058.43 L695.461 1041.89 L701.89 1024.88 L707.721 1007.44 L712.94 989.624 L717.534 971.464 L721.493 953.008 L724.807 934.299 L727.468 915.383 L729.469 896.305 L730.805 877.111 L731.475 857.847 L731.475 838.56 L730.805 819.297 L729.469 800.103 L727.468 781.025 L724.807 762.108 L721.493 743.399 L717.534 724.943 L712.94 706.784 L707.721 688.965 L701.89 671.53 L695.461 654.52 L688.45 637.977 L680.873 621.941 L672.749 606.45 L664.097 591.541 L654.939 577.25 L645.295 563.612 L635.19 550.66 L624.648 538.424 L613.694 526.935 L602.354 516.22 L590.657 506.305 L578.629 497.213 L566.301 488.967 L553.701 481.586 L540.86 475.088 L527.81 469.49 L514.581 464.803 L501.205 461.041 L487.715 458.211 L474.142 456.32 L460.521 455.374 L446.883 455.374 L433.262 456.32 L419.689 458.211 L406.199 461.041 L392.823 464.803 L379.594 469.49 L366.543 475.088 L353.703 481.586 L341.103 488.967 L328.775 497.213 L316.747 506.305 L305.049 516.22 L293.71 526.935 L282.756 538.424 L272.214 550.66 L262.109 563.612 L252.465 577.25 L243.307 591.541 L234.655 606.45 L226.531 621.941 L218.954 637.977 L211.943 654.52 L205.514 671.53 L199.683 688.965 L194.464 706.784 L189.869 724.943 L185.911 743.399 L182.597 762.108 L179.936 781.025 L177.935 800.103 L176.598 819.297 L175.929 838.56 L175.929 857.847 L175.929 857.847  Z" fill="#009af9" fill-rule="evenodd" fill-opacity="0.5"/>
<polyline clip-path="url(#clip912)" style="stroke:#000000; stroke-linecap:round; stroke-linejoin:round; stroke-width:4; stroke-opacity:0.5; fill:none" points="175.929,857.847 176.598,877.111 177.935,896.305 179.936,915.383 182.597,934.299 185.911,953.008 189.869,971.464 194.464,989.624 199.683,1007.44 205.514,1024.88 211.943,1041.89 218.954,1058.43 226.531,1074.47 234.655,1089.96 243.307,1104.87 252.465,1119.16 262.109,1132.8 272.214,1145.75 282.756,1157.98 293.71,1169.47 305.049,1180.19 316.747,1190.1 328.775,1199.19 341.103,1207.44 353.703,1214.82 366.543,1221.32 379.594,1226.92 392.823,1231.6 406.199,1235.37 419.689,1238.2 433.262,1240.09 446.883,1241.03 460.521,1241.03 474.142,1240.09 487.715,1238.2 501.205,1235.37 514.581,1231.6 527.81,1226.92 540.86,1221.32 553.701,1214.82 566.301,1207.44 578.629,1199.19 590.657,1190.1 602.354,1180.19 613.694,1169.47 624.648,1157.98 635.19,1145.75 645.295,1132.8 654.939,1119.16 664.097,1104.87 672.749,1089.96 680.873,1074.47 688.45,1058.43 695.461,1041.89 701.89,1024.88 707.721,1007.44 712.94,989.624 717.534,971.464 721.493,953.008 724.807,934.299 727.468,915.383 729.469,896.305 730.805,877.111 731.475,857.847 731.475,838.56 730.805,819.297 729.469,800.103 727.468,781.025 724.807,762.108 721.493,743.399 717.534,724.943 712.94,706.784 707.721,688.965 701.89,671.53 695.461,654.52 688.45,637.977 680.873,621.941 672.749,606.45 664.097,591.541 654.939,577.25 645.295,563.612 635.19,550.66 624.648,538.424 613.694,526.935 602.354,516.22 590.657,506.305 578.629,497.213 566.301,488.967 553.701,481.586 540.86,475.088 527.81,469.49 514.581,464.803 501.205,461.041 487.715,458.211 474.142,456.32 460.521,455.374 446.883,455.374 433.262,456.32 419.689,458.211 406.199,461.041 392.823,464.803 379.594,469.49 366.543,475.088 353.703,481.586 341.103,488.967 328.775,497.213 316.747,506.305 305.049,516.22 293.71,526.935 282.756,538.424 272.214,550.66 262.109,563.612 252.465,577.25 243.307,591.541 234.655,606.45 226.531,621.941 218.954,637.977 211.943,654.52 205.514,671.53 199.683,688.965 194.464,706.784 189.869,724.943 185.911,743.399 182.597,762.108 179.936,781.025 177.935,800.103 176.598,819.297 175.929,838.56 175.929,857.847 "/>
<path clip-path="url(#clip912)" d="M338.645 577.25 L339.591 590.871 L341.481 604.444 L344.311 617.934 L348.074 631.31 L352.76 644.539 L358.359 657.589 L364.857 670.43 L372.237 683.03 L380.484 695.358 L389.575 707.386 L399.491 719.084 L410.206 730.423 L421.695 741.377 L433.931 751.919 L446.883 762.024 L460.521 771.668 L474.811 780.826 L489.72 789.478 L505.212 797.602 L521.248 805.179 L537.791 812.19 L554.801 818.619 L572.236 824.45 L590.055 829.669 L608.214 834.264 L626.67 838.222 L645.379 841.536 L664.295 844.197 L683.374 846.198 L702.568 847.535 L721.831 848.204 L741.118 848.204 L760.382 847.535 L779.576 846.198 L798.654 844.197 L817.57 841.536 L836.279 838.222 L854.735 834.264 L872.895 829.669 L890.714 824.45 L908.149 818.619 L925.158 812.19 L941.701 805.179 L957.738 797.602 L973.229 789.478 L988.138 780.826 L1002.43 771.668 L1016.07 762.024 L1029.02 751.919 L1041.25 741.377 L1052.74 730.423 L1063.46 719.084 L1073.37 707.386 L1082.47 695.358 L1090.71 683.03 L1098.09 670.43 L1104.59 657.589 L1110.19 644.539 L1114.88 631.31 L1118.64 617.934 L1121.47 604.444 L1123.36 590.871 L1124.3 577.25 L1124.3 563.612 L1123.36 549.991 L1121.47 536.418 L1118.64 522.928 L1114.88 509.552 L1110.19 496.323 L1104.59 483.273 L1098.09 470.432 L1090.71 457.832 L1082.47 445.504 L1073.37 433.476 L1063.46 421.778 L1052.74 410.439 L1041.25 399.485 L1029.02 388.943 L1016.07 378.838 L1002.43 369.194 L988.138 360.036 L973.229 351.384 L957.738 343.26 L941.701 335.683 L925.158 328.672 L908.149 322.243 L890.714 316.412 L872.895 311.193 L854.735 306.598 L836.279 302.64 L817.57 299.326 L798.654 296.665 L779.576 294.664 L760.382 293.327 L741.118 292.658 L721.831 292.658 L702.568 293.327 L683.374 294.664 L664.295 296.665 L645.379 299.326 L626.67 302.64 L608.214 306.598 L590.055 311.193 L572.236 316.412 L554.801 322.243 L537.791 328.672 L521.248 335.683 L505.212 343.26 L489.72 351.384 L474.811 360.036 L460.521 369.194 L446.883 378.838 L433.931 388.943 L421.695 399.485 L410.206 410.439 L399.491 421.778 L389.575 433.476 L380.484 445.504 L372.237 457.832 L364.857 470.432 L358.359 483.273 L352.76 496.323 L348.074 509.552 L344.311 522.928 L341.481 536.418 L339.591 549.991 L338.645 563.612 L338.645 577.25 L338.645 577.25  Z" fill="#e26f46" fill-rule="evenodd" fill-opacity="0.5"/>
<polyline clip-path="url(#clip912)" style="stroke:#000000; stroke-linecap:round; stroke-linejoin:round; stroke-width:4; stroke-opacity:0.5; fill:none" points="338.645,577.25 339.591,590.871 341.481,604.444 344.311,617.934 348.074,631.31 352.76,644.539 358.359,657.589 364.857,670.43 372.237,683.03 380.484,695.358 389.575,707.386 399.491,719.084 410.206,730.423 421.695,741.377 433.931,751.919 446.883,762.024 460.521,771.668 474.811,780.826 489.72,789.478 505.212,797.602 521.248,805.179 537.791,812.19 554.801,818.619 572.236,824.45 590.055,829.669 608.214,834.264 626.67,838.222 645.379,841.536 664.295,844.197 683.374,846.198 702.568,847.535 721.831,848.204 741.118,848.204 760.382,847.535 779.576,846.198 798.654,844.197 817.57,841.536 836.279,838.222 854.735,834.264 872.895,829.669 890.714,824.45 908.149,818.619 925.158,812.19 941.701,805.179 957.738,797.602 973.229,789.478 988.138,780.826 1002.43,771.668 1016.07,762.024 1029.02,751.919 1041.25,741.377 1052.74,730.423 1063.46,719.084 1073.37,707.386 1082.47,695.358 1090.71,683.03 1098.09,670.43 1104.59,657.589 1110.19,644.539 1114.88,631.31 1118.64,617.934 1121.47,604.444 1123.36,590.871 1124.3,577.25 1124.3,563.612 1123.36,549.991 1121.47,536.418 1118.64,522.928 1114.88,509.552 1110.19,496.323 1104.59,483.273 1098.09,470.432 1090.71,457.832 1082.47,445.504 1073.37,433.476 1063.46,421.778 1052.74,410.439 1041.25,399.485 1029.02,388.943 1016.07,378.838 1002.43,369.194 988.138,360.036 973.229,351.384 957.738,343.26 941.701,335.683 925.158,328.672 908.149,322.243 890.714,316.412 872.895,311.193 854.735,306.598 836.279,302.64 817.57,299.326 798.654,296.665 779.576,294.664 760.382,293.327 741.118,292.658 721.831,292.658 702.568,293.327 683.374,294.664 664.295,296.665 645.379,299.326 626.67,302.64 608.214,306.598 590.055,311.193 572.236,316.412 554.801,322.243 537.791,328.672 521.248,335.683 505.212,343.26 489.72,351.384 474.811,360.036 460.521,369.194 446.883,378.838 433.931,388.943 421.695,399.485 410.206,410.439 399.491,421.778 389.575,433.476 380.484,445.504 372.237,457.832 364.857,470.432 358.359,483.273 352.76,496.323 348.074,509.552 344.311,522.928 341.481,536.418 339.591,549.991 338.645,563.612 338.645,577.25 "/>
<path clip-path="url(#clip912)" d="M731.475 455.374 L338.645 455.374 L338.645 848.204 L731.475 848.204 L731.475 455.374 L731.475 455.374  Z" fill="#3da44d" fill-rule="evenodd" fill-opacity="0.4"/>
<polyline clip-path="url(#clip912)" style="stroke:#000000; stroke-linecap:round; stroke-linejoin:round; stroke-width:4; stroke-opacity:0.4; fill:none" points="731.475,455.374 338.645,455.374 338.645,848.204 731.475,848.204 731.475,455.374 "/>
<path clip-path="url(#clip910)" d="M1347.48 1486.45 L2352.76 1486.45 L2352.76 47.2441 L1347.48 47.2441  Z" fill="#ffffff" fill-rule="evenodd" fill-opacity="1"/>
<defs>
  <clipPath id="clip913">
    <rect x="1347" y="47" width="1006" height="1440"/>
  </clipPath>
</defs>
<polyline clip-path="url(#clip913)" style="stroke:#000000; stroke-linecap:round; stroke-linejoin:round; stroke-width:2; stroke-opacity:0.1; fill:none" points="1375.93,1486.45 1375.93,47.2441 "/>
<polyline clip-path="url(#clip913)" style="stroke:#000000; stroke-linecap:round; stroke-linejoin:round; stroke-width:2; stroke-opacity:0.1; fill:none" points="1653.7,1486.45 1653.7,47.2441 "/>
<polyline clip-path="url(#clip913)" style="stroke:#000000; stroke-linecap:round; stroke-linejoin:round; stroke-width:2; stroke-opacity:0.1; fill:none" points="1931.47,1486.45 1931.47,47.2441 "/>
<polyline clip-path="url(#clip913)" style="stroke:#000000; stroke-linecap:round; stroke-linejoin:round; stroke-width:2; stroke-opacity:0.1; fill:none" points="2209.25,1486.45 2209.25,47.2441 "/>
<polyline clip-path="url(#clip913)" style="stroke:#000000; stroke-linecap:round; stroke-linejoin:round; stroke-width:2; stroke-opacity:0.1; fill:none" points="1347.48,1403.75 2352.76,1403.75 "/>
<polyline clip-path="url(#clip913)" style="stroke:#000000; stroke-linecap:round; stroke-linejoin:round; stroke-width:2; stroke-opacity:0.1; fill:none" points="1347.48,1125.98 2352.76,1125.98 "/>
<polyline clip-path="url(#clip913)" style="stroke:#000000; stroke-linecap:round; stroke-linejoin:round; stroke-width:2; stroke-opacity:0.1; fill:none" points="1347.48,848.204 2352.76,848.204 "/>
<polyline clip-path="url(#clip913)" style="stroke:#000000; stroke-linecap:round; stroke-linejoin:round; stroke-width:2; stroke-opacity:0.1; fill:none" points="1347.48,570.431 2352.76,570.431 "/>
<polyline clip-path="url(#clip913)" style="stroke:#000000; stroke-linecap:round; stroke-linejoin:round; stroke-width:2; stroke-opacity:0.1; fill:none" points="1347.48,292.658 2352.76,292.658 "/>
<polyline clip-path="url(#clip910)" style="stroke:#000000; stroke-linecap:round; stroke-linejoin:round; stroke-width:4; stroke-opacity:1; fill:none" points="1347.48,1486.45 2352.76,1486.45 "/>
<polyline clip-path="url(#clip910)" style="stroke:#000000; stroke-linecap:round; stroke-linejoin:round; stroke-width:4; stroke-opacity:1; fill:none" points="1375.93,1486.45 1375.93,1467.55 "/>
<polyline clip-path="url(#clip910)" style="stroke:#000000; stroke-linecap:round; stroke-linejoin:round; stroke-width:4; stroke-opacity:1; fill:none" points="1653.7,1486.45 1653.7,1467.55 "/>
<polyline clip-path="url(#clip910)" style="stroke:#000000; stroke-linecap:round; stroke-linejoin:round; stroke-width:4; stroke-opacity:1; fill:none" points="1931.47,1486.45 1931.47,1467.55 "/>
<polyline clip-path="url(#clip910)" style="stroke:#000000; stroke-linecap:round; stroke-linejoin:round; stroke-width:4; stroke-opacity:1; fill:none" points="2209.25,1486.45 2209.25,1467.55 "/>
<path clip-path="url(#clip910)" d="M1345.69 1532.02 L1375.36 1532.02 L1375.36 1535.95 L1345.69 1535.95 L1345.69 1532.02 Z" fill="#000000" fill-rule="nonzero" fill-opacity="1" /><path clip-path="url(#clip910)" d="M1386.26 1544.91 L1393.9 1544.91 L1393.9 1518.55 L1385.59 1520.21 L1385.59 1515.95 L1393.86 1514.29 L1398.53 1514.29 L1398.53 1544.91 L1406.17 1544.91 L1406.17 1548.85 L1386.26 1548.85 L1386.26 1544.91 Z" fill="#000000" fill-rule="nonzero" fill-opacity="1" /><path clip-path="url(#clip910)" d="M1653.7 1517.37 Q1650.09 1517.37 1648.26 1520.93 Q1646.46 1524.47 1646.46 1531.6 Q1646.46 1538.71 1648.26 1542.27 Q1650.09 1545.82 1653.7 1545.82 Q1657.34 1545.82 1659.14 1542.27 Q1660.97 1538.71 1660.97 1531.6 Q1660.97 1524.47 1659.14 1520.93 Q1657.34 1517.37 1653.7 1517.37 M1653.7 1513.66 Q1659.51 1513.66 1662.57 1518.27 Q1665.65 1522.85 1665.65 1531.6 Q1665.65 1540.33 1662.57 1544.94 Q1659.51 1549.52 1653.7 1549.52 Q1647.89 1549.52 1644.81 1544.94 Q1641.76 1540.33 1641.76 1531.6 Q1641.76 1522.85 1644.81 1518.27 Q1647.89 1513.66 1653.7 1513.66 Z" fill="#000000" fill-rule="nonzero" fill-opacity="1" /><path clip-path="url(#clip910)" d="M1921.86 1544.91 L1929.5 1544.91 L1929.5 1518.55 L1921.19 1520.21 L1921.19 1515.95 L1929.45 1514.29 L1934.13 1514.29 L1934.13 1544.91 L1941.76 1544.91 L1941.76 1548.85 L1921.86 1548.85 L1921.86 1544.91 Z" fill="#000000" fill-rule="nonzero" fill-opacity="1" /><path clip-path="url(#clip910)" d="M2203.9 1544.91 L2220.22 1544.91 L2220.22 1548.85 L2198.28 1548.85 L2198.28 1544.91 Q2200.94 1542.16 2205.52 1537.53 Q2210.13 1532.88 2211.31 1531.53 Q2213.55 1529.01 2214.43 1527.27 Q2215.34 1525.51 2215.34 1523.82 Q2215.34 1521.07 2213.39 1519.33 Q2211.47 1517.6 2208.37 1517.6 Q2206.17 1517.6 2203.72 1518.36 Q2201.28 1519.13 2198.51 1520.68 L2198.51 1515.95 Q2201.33 1514.82 2203.78 1514.24 Q2206.24 1513.66 2208.28 1513.66 Q2213.65 1513.66 2216.84 1516.35 Q2220.03 1519.03 2220.03 1523.52 Q2220.03 1525.65 2219.22 1527.57 Q2218.44 1529.47 2216.33 1532.07 Q2215.75 1532.74 2212.65 1535.95 Q2209.55 1539.15 2203.9 1544.91 Z" fill="#000000" fill-rule="nonzero" fill-opacity="1" /><polyline clip-path="url(#clip910)" style="stroke:#000000; stroke-linecap:round; stroke-linejoin:round; stroke-width:4; stroke-opacity:1; fill:none" points="1347.48,1486.45 1347.48,47.2441 "/>
<polyline clip-path="url(#clip910)" style="stroke:#000000; stroke-linecap:round; stroke-linejoin:round; stroke-width:4; stroke-opacity:1; fill:none" points="1347.48,1403.75 1366.38,1403.75 "/>
<polyline clip-path="url(#clip910)" style="stroke:#000000; stroke-linecap:round; stroke-linejoin:round; stroke-width:4; stroke-opacity:1; fill:none" points="1347.48,1125.98 1366.38,1125.98 "/>
<polyline clip-path="url(#clip910)" style="stroke:#000000; stroke-linecap:round; stroke-linejoin:round; stroke-width:4; stroke-opacity:1; fill:none" points="1347.48,848.204 1366.38,848.204 "/>
<polyline clip-path="url(#clip910)" style="stroke:#000000; stroke-linecap:round; stroke-linejoin:round; stroke-width:4; stroke-opacity:1; fill:none" points="1347.48,570.431 1366.38,570.431 "/>
<polyline clip-path="url(#clip910)" style="stroke:#000000; stroke-linecap:round; stroke-linejoin:round; stroke-width:4; stroke-opacity:1; fill:none" points="1347.48,292.658 1366.38,292.658 "/>
<path clip-path="url(#clip910)" d="M1251.36 1404.2 L1281.04 1404.2 L1281.04 1408.14 L1251.36 1408.14 L1251.36 1404.2 Z" fill="#000000" fill-rule="nonzero" fill-opacity="1" /><path clip-path="url(#clip910)" d="M1295.16 1417.09 L1311.48 1417.09 L1311.48 1421.03 L1289.53 1421.03 L1289.53 1417.09 Q1292.2 1414.34 1296.78 1409.71 Q1301.39 1405.06 1302.57 1403.71 Q1304.81 1401.19 1305.69 1399.46 Q1306.59 1397.7 1306.59 1396.01 Q1306.59 1393.25 1304.65 1391.52 Q1302.73 1389.78 1299.63 1389.78 Q1297.43 1389.78 1294.97 1390.54 Q1292.54 1391.31 1289.77 1392.86 L1289.77 1388.14 Q1292.59 1387 1295.04 1386.42 Q1297.5 1385.84 1299.53 1385.84 Q1304.9 1385.84 1308.1 1388.53 Q1311.29 1391.21 1311.29 1395.71 Q1311.29 1397.83 1310.48 1399.76 Q1309.7 1401.65 1307.59 1404.25 Q1307.01 1404.92 1303.91 1408.14 Q1300.81 1411.33 1295.16 1417.09 Z" fill="#000000" fill-rule="nonzero" fill-opacity="1" /><path clip-path="url(#clip910)" d="M1250.99 1126.43 L1280.67 1126.43 L1280.67 1130.36 L1250.99 1130.36 L1250.99 1126.43 Z" fill="#000000" fill-rule="nonzero" fill-opacity="1" /><path clip-path="url(#clip910)" d="M1291.57 1139.32 L1299.21 1139.32 L1299.21 1112.96 L1290.9 1114.62 L1290.9 1110.36 L1299.16 1108.7 L1303.84 1108.7 L1303.84 1139.32 L1311.48 1139.32 L1311.48 1143.26 L1291.57 1143.26 L1291.57 1139.32 Z" fill="#000000" fill-rule="nonzero" fill-opacity="1" /><path clip-path="url(#clip910)" d="M1299.53 834.002 Q1295.92 834.002 1294.09 837.567 Q1292.29 841.109 1292.29 848.238 Q1292.29 855.345 1294.09 858.91 Q1295.92 862.451 1299.53 862.451 Q1303.17 862.451 1304.97 858.91 Q1306.8 855.345 1306.8 848.238 Q1306.8 841.109 1304.97 837.567 Q1303.17 834.002 1299.53 834.002 M1299.53 830.299 Q1305.34 830.299 1308.4 834.905 Q1311.48 839.489 1311.48 848.238 Q1311.48 856.965 1308.4 861.572 Q1305.34 866.155 1299.53 866.155 Q1293.72 866.155 1290.64 861.572 Q1287.59 856.965 1287.59 848.238 Q1287.59 839.489 1290.64 834.905 Q1293.72 830.299 1299.53 830.299 Z" fill="#000000" fill-rule="nonzero" fill-opacity="1" /><path clip-path="url(#clip910)" d="M1291.57 583.776 L1299.21 583.776 L1299.21 557.41 L1290.9 559.077 L1290.9 554.818 L1299.16 553.151 L1303.84 553.151 L1303.84 583.776 L1311.48 583.776 L1311.48 587.711 L1291.57 587.711 L1291.57 583.776 Z" fill="#000000" fill-rule="nonzero" fill-opacity="1" /><path clip-path="url(#clip910)" d="M1295.16 306.003 L1311.48 306.003 L1311.48 309.938 L1289.53 309.938 L1289.53 306.003 Q1292.2 303.248 1296.78 298.619 Q1301.39 293.966 1302.57 292.624 Q1304.81 290.1 1305.69 288.364 Q1306.59 286.605 1306.59 284.915 Q1306.59 282.161 1304.65 280.425 Q1302.73 278.688 1299.63 278.688 Q1297.43 278.688 1294.97 279.452 Q1292.54 280.216 1289.77 281.767 L1289.77 277.045 Q1292.59 275.911 1295.04 275.332 Q1297.5 274.753 1299.53 274.753 Q1304.9 274.753 1308.1 277.438 Q1311.29 280.124 1311.29 284.614 Q1311.29 286.744 1310.48 288.665 Q1309.7 290.563 1307.59 293.156 Q1307.01 293.827 1303.91 297.045 Q1300.81 300.239 1295.16 306.003 Z" fill="#000000" fill-rule="nonzero" fill-opacity="1" /><path clip-path="url(#clip913)" d="M1375.93 857.847 L1376.6 877.111 L1377.94 896.305 L1379.94 915.383 L1382.6 934.299 L1385.91 953.008 L1389.87 971.464 L1394.46 989.624 L1399.68 1007.44 L1405.51 1024.88 L1411.94 1041.89 L1418.95 1058.43 L1426.53 1074.47 L1434.65 1089.96 L1443.31 1104.87 L1452.47 1119.16 L1462.11 1132.8 L1472.21 1145.75 L1482.76 1157.98 L1493.71 1169.47 L1505.05 1180.19 L1516.75 1190.1 L1528.77 1199.19 L1541.1 1207.44 L1553.7 1214.82 L1566.54 1221.32 L1579.59 1226.92 L1592.82 1231.6 L1606.2 1235.37 L1619.69 1238.2 L1633.26 1240.09 L1646.88 1241.03 L1660.52 1241.03 L1674.14 1240.09 L1687.71 1238.2 L1701.2 1235.37 L1714.58 1231.6 L1727.81 1226.92 L1740.86 1221.32 L1753.7 1214.82 L1766.3 1207.44 L1778.63 1199.19 L1790.66 1190.1 L1802.35 1180.19 L1813.69 1169.47 L1824.65 1157.98 L1835.19 1145.75 L1845.3 1132.8 L1854.94 1119.16 L1864.1 1104.87 L1872.75 1089.96 L1880.87 1074.47 L1888.45 1058.43 L1895.46 1041.89 L1901.89 1024.88 L1907.72 1007.44 L1912.94 989.624 L1917.53 971.464 L1921.49 953.008 L1924.81 934.299 L1927.47 915.383 L1929.47 896.305 L1930.81 877.111 L1931.47 857.847 L1931.47 838.56 L1930.81 819.297 L1929.47 800.103 L1927.47 781.025 L1924.81 762.108 L1921.49 743.399 L1917.53 724.943 L1912.94 706.784 L1907.72 688.965 L1901.89 671.53 L1895.46 654.52 L1888.45 637.977 L1880.87 621.941 L1872.75 606.45 L1864.1 591.541 L1854.94 577.25 L1845.3 563.612 L1835.19 550.66 L1824.65 538.424 L1813.69 526.935 L1802.35 516.22 L1790.66 506.305 L1778.63 497.213 L1766.3 488.967 L1753.7 481.586 L1740.86 475.088 L1727.81 469.49 L1714.58 464.803 L1701.2 461.041 L1687.71 458.211 L1674.14 456.32 L1660.52 455.374 L1646.88 455.374 L1633.26 456.32 L1619.69 458.211 L1606.2 461.041 L1592.82 464.803 L1579.59 469.49 L1566.54 475.088 L1553.7 481.586 L1541.1 488.967 L1528.77 497.213 L1516.75 506.305 L1505.05 516.22 L1493.71 526.935 L1482.76 538.424 L1472.21 550.66 L1462.11 563.612 L1452.47 577.25 L1443.31 591.541 L1434.65 606.45 L1426.53 621.941 L1418.95 637.977 L1411.94 654.52 L1405.51 671.53 L1399.68 688.965 L1394.46 706.784 L1389.87 724.943 L1385.91 743.399 L1382.6 762.108 L1379.94 781.025 L1377.94 800.103 L1376.6 819.297 L1375.93 838.56 L1375.93 857.847 L1375.93 857.847  Z" fill="#009af9" fill-rule="evenodd" fill-opacity="0.5"/>
<polyline clip-path="url(#clip913)" style="stroke:#000000; stroke-linecap:round; stroke-linejoin:round; stroke-width:4; stroke-opacity:0.5; fill:none" points="1375.93,857.847 1376.6,877.111 1377.94,896.305 1379.94,915.383 1382.6,934.299 1385.91,953.008 1389.87,971.464 1394.46,989.624 1399.68,1007.44 1405.51,1024.88 1411.94,1041.89 1418.95,1058.43 1426.53,1074.47 1434.65,1089.96 1443.31,1104.87 1452.47,1119.16 1462.11,1132.8 1472.21,1145.75 1482.76,1157.98 1493.71,1169.47 1505.05,1180.19 1516.75,1190.1 1528.77,1199.19 1541.1,1207.44 1553.7,1214.82 1566.54,1221.32 1579.59,1226.92 1592.82,1231.6 1606.2,1235.37 1619.69,1238.2 1633.26,1240.09 1646.88,1241.03 1660.52,1241.03 1674.14,1240.09 1687.71,1238.2 1701.2,1235.37 1714.58,1231.6 1727.81,1226.92 1740.86,1221.32 1753.7,1214.82 1766.3,1207.44 1778.63,1199.19 1790.66,1190.1 1802.35,1180.19 1813.69,1169.47 1824.65,1157.98 1835.19,1145.75 1845.3,1132.8 1854.94,1119.16 1864.1,1104.87 1872.75,1089.96 1880.87,1074.47 1888.45,1058.43 1895.46,1041.89 1901.89,1024.88 1907.72,1007.44 1912.94,989.624 1917.53,971.464 1921.49,953.008 1924.81,934.299 1927.47,915.383 1929.47,896.305 1930.81,877.111 1931.47,857.847 1931.47,838.56 1930.81,819.297 1929.47,800.103 1927.47,781.025 1924.81,762.108 1921.49,743.399 1917.53,724.943 1912.94,706.784 1907.72,688.965 1901.89,671.53 1895.46,654.52 1888.45,637.977 1880.87,621.941 1872.75,606.45 1864.1,591.541 1854.94,577.25 1845.3,563.612 1835.19,550.66 1824.65,538.424 1813.69,526.935 1802.35,516.22 1790.66,506.305 1778.63,497.213 1766.3,488.967 1753.7,481.586 1740.86,475.088 1727.81,469.49 1714.58,464.803 1701.2,461.041 1687.71,458.211 1674.14,456.32 1660.52,455.374 1646.88,455.374 1633.26,456.32 1619.69,458.211 1606.2,461.041 1592.82,464.803 1579.59,469.49 1566.54,475.088 1553.7,481.586 1541.1,488.967 1528.77,497.213 1516.75,506.305 1505.05,516.22 1493.71,526.935 1482.76,538.424 1472.21,550.66 1462.11,563.612 1452.47,577.25 1443.31,591.541 1434.65,606.45 1426.53,621.941 1418.95,637.977 1411.94,654.52 1405.51,671.53 1399.68,688.965 1394.46,706.784 1389.87,724.943 1385.91,743.399 1382.6,762.108 1379.94,781.025 1377.94,800.103 1376.6,819.297 1375.93,838.56 1375.93,857.847 "/>
<path clip-path="url(#clip913)" d="M1538.64 577.25 L1539.59 590.871 L1541.48 604.444 L1544.31 617.934 L1548.07 631.31 L1552.76 644.539 L1558.36 657.589 L1564.86 670.43 L1572.24 683.03 L1580.48 695.358 L1589.58 707.386 L1599.49 719.084 L1610.21 730.423 L1621.7 741.377 L1633.93 751.919 L1646.88 762.024 L1660.52 771.668 L1674.81 780.826 L1689.72 789.478 L1705.21 797.602 L1721.25 805.179 L1737.79 812.19 L1754.8 818.619 L1772.24 824.45 L1790.05 829.669 L1808.21 834.264 L1826.67 838.222 L1845.38 841.536 L1864.3 844.197 L1883.37 846.198 L1902.57 847.535 L1921.83 848.204 L1941.12 848.204 L1960.38 847.535 L1979.58 846.198 L1998.65 844.197 L2017.57 841.536 L2036.28 838.222 L2054.74 834.264 L2072.89 829.669 L2090.71 824.45 L2108.15 818.619 L2125.16 812.19 L2141.7 805.179 L2157.74 797.602 L2173.23 789.478 L2188.14 780.826 L2202.43 771.668 L2216.07 762.024 L2229.02 751.919 L2241.25 741.377 L2252.74 730.423 L2263.46 719.084 L2273.37 707.386 L2282.47 695.358 L2290.71 683.03 L2298.09 670.43 L2304.59 657.589 L2310.19 644.539 L2314.88 631.31 L2318.64 617.934 L2321.47 604.444 L2323.36 590.871 L2324.3 577.25 L2324.3 563.612 L2323.36 549.991 L2321.47 536.418 L2318.64 522.928 L2314.88 509.552 L2310.19 496.323 L2304.59 483.273 L2298.09 470.432 L2290.71 457.832 L2282.47 445.504 L2273.37 433.476 L2263.46 421.778 L2252.74 410.439 L2241.25 399.485 L2229.02 388.943 L2216.07 378.838 L2202.43 369.194 L2188.14 360.036 L2173.23 351.384 L2157.74 343.26 L2141.7 335.683 L2125.16 328.672 L2108.15 322.243 L2090.71 316.412 L2072.89 311.193 L2054.74 306.598 L2036.28 302.64 L2017.57 299.326 L1998.65 296.665 L1979.58 294.664 L1960.38 293.327 L1941.12 292.658 L1921.83 292.658 L1902.57 293.327 L1883.37 294.664 L1864.3 296.665 L1845.38 299.326 L1826.67 302.64 L1808.21 306.598 L1790.05 311.193 L1772.24 316.412 L1754.8 322.243 L1737.79 328.672 L1721.25 335.683 L1705.21 343.26 L1689.72 351.384 L1674.81 360.036 L1660.52 369.194 L1646.88 378.838 L1633.93 388.943 L1621.7 399.485 L1610.21 410.439 L1599.49 421.778 L1589.58 433.476 L1580.48 445.504 L1572.24 457.832 L1564.86 470.432 L1558.36 483.273 L1552.76 496.323 L1548.07 509.552 L1544.31 522.928 L1541.48 536.418 L1539.59 549.991 L1538.64 563.612 L1538.64 577.25 L1538.64 577.25  Z" fill="#e26f46" fill-rule="evenodd" fill-opacity="0.5"/>
<polyline clip-path="url(#clip913)" style="stroke:#000000; stroke-linecap:round; stroke-linejoin:round; stroke-width:4; stroke-opacity:0.5; fill:none" points="1538.64,577.25 1539.59,590.871 1541.48,604.444 1544.31,617.934 1548.07,631.31 1552.76,644.539 1558.36,657.589 1564.86,670.43 1572.24,683.03 1580.48,695.358 1589.58,707.386 1599.49,719.084 1610.21,730.423 1621.7,741.377 1633.93,751.919 1646.88,762.024 1660.52,771.668 1674.81,780.826 1689.72,789.478 1705.21,797.602 1721.25,805.179 1737.79,812.19 1754.8,818.619 1772.24,824.45 1790.05,829.669 1808.21,834.264 1826.67,838.222 1845.38,841.536 1864.3,844.197 1883.37,846.198 1902.57,847.535 1921.83,848.204 1941.12,848.204 1960.38,847.535 1979.58,846.198 1998.65,844.197 2017.57,841.536 2036.28,838.222 2054.74,834.264 2072.89,829.669 2090.71,824.45 2108.15,818.619 2125.16,812.19 2141.7,805.179 2157.74,797.602 2173.23,789.478 2188.14,780.826 2202.43,771.668 2216.07,762.024 2229.02,751.919 2241.25,741.377 2252.74,730.423 2263.46,719.084 2273.37,707.386 2282.47,695.358 2290.71,683.03 2298.09,670.43 2304.59,657.589 2310.19,644.539 2314.88,631.31 2318.64,617.934 2321.47,604.444 2323.36,590.871 2324.3,577.25 2324.3,563.612 2323.36,549.991 2321.47,536.418 2318.64,522.928 2314.88,509.552 2310.19,496.323 2304.59,483.273 2298.09,470.432 2290.71,457.832 2282.47,445.504 2273.37,433.476 2263.46,421.778 2252.74,410.439 2241.25,399.485 2229.02,388.943 2216.07,378.838 2202.43,369.194 2188.14,360.036 2173.23,351.384 2157.74,343.26 2141.7,335.683 2125.16,328.672 2108.15,322.243 2090.71,316.412 2072.89,311.193 2054.74,306.598 2036.28,302.64 2017.57,299.326 1998.65,296.665 1979.58,294.664 1960.38,293.327 1941.12,292.658 1921.83,292.658 1902.57,293.327 1883.37,294.664 1864.3,296.665 1845.38,299.326 1826.67,302.64 1808.21,306.598 1790.05,311.193 1772.24,316.412 1754.8,322.243 1737.79,328.672 1721.25,335.683 1705.21,343.26 1689.72,351.384 1674.81,360.036 1660.52,369.194 1646.88,378.838 1633.93,388.943 1621.7,399.485 1610.21,410.439 1599.49,421.778 1589.58,433.476 1580.48,445.504 1572.24,457.832 1564.86,470.432 1558.36,483.273 1552.76,496.323 1548.07,509.552 1544.31,522.928 1541.48,536.418 1539.59,549.991 1538.64,563.612 1538.64,577.25 "/>
<path clip-path="url(#clip913)" d="M1538.64 658.718 L1728.13 848.204 L1931.47 848.204 L1931.47 644.86 L1741.99 455.374 L1565.42 455.374 L1538.64 482.144 L1538.64 658.718 L1538.64 658.718  Z" fill="#3da44d" fill-rule="evenodd" fill-opacity="0.4"/>
<polyline clip-path="url(#clip913)" style="stroke:#000000; stroke-linecap:round; stroke-linejoin:round; stroke-width:4; stroke-opacity:0.4; fill:none" points="1538.64,658.718 1728.13,848.204 1931.47,848.204 1931.47,644.86 1741.99,455.374 1565.42,455.374 1538.64,482.144 1538.64,658.718 "/>
</svg>
