<?xml version="1.0" encoding="utf-8"?>
<svg xmlns="http://www.w3.org/2000/svg" xmlns:xlink="http://www.w3.org/1999/xlink" width="600" height="400" viewBox="0 0 2400 1600">
<defs>
  <clipPath id="clip370">
    <rect x="0" y="0" width="2400" height="1600"/>
  </clipPath>
</defs>
<path clip-path="url(#clip370)" d="M0 1600 L2400 1600 L2400 0 L0 0  Z" fill="#ffffff" fill-rule="evenodd" fill-opacity="1"/>
<defs>
  <clipPath id="clip371">
    <rect x="480" y="0" width="1681" height="1600"/>
  </clipPath>
</defs>
<path clip-path="url(#clip370)" d="M147.478 1486.45 L2352.76 1486.45 L2352.76 47.2441 L147.478 47.2441  Z" fill="#ffffff" fill-rule="evenodd" fill-opacity="1"/>
<defs>
  <clipPath id="clip372">
    <rect x="147" y="47" width="2206" height="1440"/>
  </clipPath>
</defs>
<polyline clip-path="url(#clip372)" style="stroke:#000000; stroke-linecap:round; stroke-linejoin:round; stroke-width:2; stroke-opacity:0.1; fill:none" points="263.268,1486.45 263.268,47.2441 "/>
<polyline clip-path="url(#clip372)" style="stroke:#000000; stroke-linecap:round; stroke-linejoin:round; stroke-width:2; stroke-opacity:0.1; fill:none" points="941.46,1486.45 941.46,47.2441 "/>
<polyline clip-path="url(#clip372)" style="stroke:#000000; stroke-linecap:round; stroke-linejoin:round; stroke-width:2; stroke-opacity:0.1; fill:none" points="1619.65,1486.45 1619.65,47.2441 "/>
<polyline clip-path="url(#clip372)" style="stroke:#000000; stroke-linecap:round; stroke-linejoin:round; stroke-width:2; stroke-opacity:0.1; fill:none" points="2297.84,1486.45 2297.84,47.2441 "/>
<polyline clip-path="url(#clip372)" style="stroke:#000000; stroke-linecap:round; stroke-linejoin:round; stroke-width:2; stroke-opacity:0.1; fill:none" points="147.478,1192.36 2352.76,1192.36 "/>
<polyline clip-path="url(#clip372)" style="stroke:#000000; stroke-linecap:round; stroke-linejoin:round; stroke-width:2; stroke-opacity:0.1; fill:none" points="147.478,843.319 2352.76,843.319 "/>
<polyline clip-path="url(#clip372)" style="stroke:#000000; stroke-linecap:round; stroke-linejoin:round; stroke-width:2; stroke-opacity:0.1; fill:none" points="147.478,494.279 2352.76,494.279 "/>
<polyline clip-path="url(#clip372)" style="stroke:#000000; stroke-linecap:round; stroke-linejoin:round; stroke-width:2; stroke-opacity:0.1; fill:none" points="147.478,145.238 2352.76,145.238 "/>
<polyline clip-path="url(#clip370)" style="stroke:#000000; stroke-linecap:round; stroke-linejoin:round; stroke-width:4; stroke-opacity:1; fill:none" points="147.478,1486.45 2352.76,1486.45 "/>
<polyline clip-path="url(#clip370)" style="stroke:#000000; stroke-linecap:round; stroke-linejoin:round; stroke-width:4; stroke-opacity:1; fill:none" points="263.268,1486.45 263.268,1467.55 "/>
<polyline clip-path="url(#clip370)" style="stroke:#000000; stroke-linecap:round; stroke-linejoin:round; stroke-width:4; stroke-opacity:1; fill:none" points="941.46,1486.45 941.46,1467.55 "/>
<polyline clip-path="url(#clip370)" style="stroke:#000000; stroke-linecap:round; stroke-linejoin:round; stroke-width:4; stroke-opacity:1; fill:none" points="1619.65,1486.45 1619.65,1467.55 "/>
<polyline clip-path="url(#clip370)" style="stroke:#000000; stroke-linecap:round; stroke-linejoin:round; stroke-width:4; stroke-opacity:1; fill:none" points="2297.84,1486.45 2297.84,1467.55 "/>
<path clip-path="url(#clip370)" d="M233.026 1532.02 L262.701 1532.02 L262.701 1535.95 L233.026 1535.95 L233.026 1532.02 Z" fill="#000000" fill-rule="nonzero" fill-opacity="1" /><path clip-path="url(#clip370)" d="M273.604 1544.91 L281.243 1544.91 L281.243 1518.55 L272.933 1520.21 L272.933 1515.95 L281.197 1514.29 L285.872 1514.29 L285.872 1544.91 L293.511 1544.91 L293.511 1548.85 L273.604 1548.85 L273.604 1544.91 Z" fill="#000000" fill-rule="nonzero" fill-opacity="1" /><path clip-path="url(#clip370)" d="M941.46 1517.37 Q937.849 1517.37 936.02 1520.93 Q934.215 1524.47 934.215 1531.6 Q934.215 1538.71 936.02 1542.27 Q937.849 1545.82 941.46 1545.82 Q945.094 1545.82 946.9 1542.27 Q948.729 1538.71 948.729 1531.6 Q948.729 1524.47 946.9 1520.93 Q945.094 1517.37 941.46 1517.37 M941.46 1513.66 Q947.27 1513.66 950.326 1518.27 Q953.405 1522.85 953.405 1531.6 Q953.405 1540.33 950.326 1544.94 Q947.27 1549.52 941.46 1549.52 Q935.65 1549.52 932.571 1544.94 Q929.516 1540.33 929.516 1531.6 Q929.516 1522.85 932.571 1518.27 Q935.65 1513.66 941.46 1513.66 Z" fill="#000000" fill-rule="nonzero" fill-opacity="1" /><path clip-path="url(#clip370)" d="M1610.03 1544.91 L1617.67 1544.91 L1617.67 1518.55 L1609.36 1520.21 L1609.36 1515.95 L1617.63 1514.29 L1622.3 1514.29 L1622.3 1544.91 L1629.94 1544.91 L1629.94 1548.85 L1610.03 1548.85 L1610.03 1544.91 Z" fill="#000000" fill-rule="nonzero" fill-opacity="1" /><path clip-path="url(#clip370)" d="M2292.5 1544.91 L2308.82 1544.91 L2308.82 1548.85 L2286.87 1548.85 L2286.87 1544.91 Q2289.53 1542.16 2294.12 1537.53 Q2298.72 1532.88 2299.9 1531.53 Q2302.15 1529.01 2303.03 1527.27 Q2303.93 1525.51 2303.93 1523.82 Q2303.93 1521.07 2301.99 1519.33 Q2300.07 1517.6 2296.96 1517.6 Q2294.76 1517.6 2292.31 1518.36 Q2289.88 1519.13 2287.1 1520.68 L2287.1 1515.95 Q2289.93 1514.82 2292.38 1514.24 Q2294.83 1513.66 2296.87 1513.66 Q2302.24 1513.66 2305.44 1516.35 Q2308.63 1519.03 2308.63 1523.52 Q2308.63 1525.65 2307.82 1527.57 Q2307.03 1529.47 2304.93 1532.07 Q2304.35 1532.74 2301.25 1535.95 Q2298.14 1539.15 2292.5 1544.91 Z" fill="#000000" fill-rule="nonzero" fill-opacity="1" /><polyline clip-path="url(#clip370)" style="stroke:#000000; stroke-linecap:round; stroke-linejoin:round; stroke-width:4; stroke-opacity:1; fill:none" points="147.478,1486.45 147.478,47.2441 "/>
<polyline clip-path="url(#clip370)" style="stroke:#000000; stroke-linecap:round; stroke-linejoin:round; stroke-width:4; stroke-opacity:1; fill:none" points="147.478,1192.36 166.376,1192.36 "/>
<polyline clip-path="url(#clip370)" style="stroke:#000000; stroke-linecap:round; stroke-linejoin:round; stroke-width:4; stroke-opacity:1; fill:none" points="147.478,843.319 166.376,843.319 "/>
<polyline clip-path="url(#clip370)" style="stroke:#000000; stroke-linecap:round; stroke-linejoin:round; stroke-width:4; stroke-opacity:1; fill:none" points="147.478,494.279 166.376,494.279 "/>
<polyline clip-path="url(#clip370)" style="stroke:#000000; stroke-linecap:round; stroke-linejoin:round; stroke-width:4; stroke-opacity:1; fill:none" points="147.478,145.238 166.376,145.238 "/>
<path clip-path="url(#clip370)" d="M50.9921 1192.81 L80.6679 1192.81 L80.6679 1196.75 L50.9921 1196.75 L50.9921 1192.81 Z" fill="#000000" fill-rule="nonzero" fill-opacity="1" /><path clip-path="url(#clip370)" d="M91.5706 1205.7 L99.2095 1205.7 L99.2095 1179.34 L90.8993 1181.01 L90.8993 1176.75 L99.1632 1175.08 L103.839 1175.08 L103.839 1205.7 L111.478 1205.7 L111.478 1209.64 L91.5706 1209.64 L91.5706 1205.7 Z" fill="#000000" fill-rule="nonzero" fill-opacity="1" /><path clip-path="url(#clip370)" d="M99.5335 829.118 Q95.9224 829.118 94.0937 832.682 Q92.2882 836.224 92.2882 843.354 Q92.2882 850.46 94.0937 854.025 Q95.9224 857.567 99.5335 857.567 Q103.168 857.567 104.973 854.025 Q106.802 850.46 106.802 843.354 Q106.802 836.224 104.973 832.682 Q103.168 829.118 99.5335 829.118 M99.5335 825.414 Q105.344 825.414 108.399 830.02 Q111.478 834.604 111.478 843.354 Q111.478 852.08 108.399 856.687 Q105.344 861.27 99.5335 861.27 Q93.7234 861.27 90.6447 856.687 Q87.5892 852.08 87.5892 843.354 Q87.5892 834.604 90.6447 830.02 Q93.7234 825.414 99.5335 825.414 Z" fill="#000000" fill-rule="nonzero" fill-opacity="1" /><path clip-path="url(#clip370)" d="M91.5706 507.623 L99.2095 507.623 L99.2095 481.258 L90.8993 482.924 L90.8993 478.665 L99.1632 476.999 L103.839 476.999 L103.839 507.623 L111.478 507.623 L111.478 511.559 L91.5706 511.559 L91.5706 507.623 Z" fill="#000000" fill-rule="nonzero" fill-opacity="1" /><path clip-path="url(#clip370)" d="M95.1586 158.583 L111.478 158.583 L111.478 162.518 L89.5336 162.518 L89.5336 158.583 Q92.1956 155.828 96.7789 151.199 Q101.385 146.546 102.566 145.203 Q104.811 142.68 105.691 140.944 Q106.594 139.185 106.594 137.495 Q106.594 134.741 104.649 133.004 Q102.728 131.268 99.6261 131.268 Q97.4271 131.268 94.9734 132.032 Q92.5428 132.796 89.7651 134.347 L89.7651 129.625 Q92.5891 128.491 95.0428 127.912 Q97.4965 127.333 99.5335 127.333 Q104.904 127.333 108.098 130.018 Q111.293 132.703 111.293 137.194 Q111.293 139.324 110.483 141.245 Q109.696 143.143 107.589 145.736 Q107.01 146.407 103.909 149.625 Q100.807 152.819 95.1586 158.583 Z" fill="#000000" fill-rule="nonzero" fill-opacity="1" /><circle clip-path="url(#clip372)" cx="600.604" cy="1306.76" r="14.4" fill="#009af9" fill-rule="evenodd" fill-opacity="0.5" stroke="#000000" stroke-opacity="0.5" stroke-width="3.2"/>
<circle clip-path="url(#clip372)" cx="1384.56" cy="87.9763" r="14.4" fill="#009af9" fill-rule="evenodd" fill-opacity="0.5" stroke="#000000" stroke-opacity="0.5" stroke-width="3.2"/>
<circle clip-path="url(#clip372)" cx="1142.07" cy="1085.97" r="14.4" fill="#009af9" fill-rule="evenodd" fill-opacity="0.5" stroke="#000000" stroke-opacity="0.5" stroke-width="3.2"/>
<circle clip-path="url(#clip372)" cx="1245.7" cy="1026.9" r="14.4" fill="#009af9" fill-rule="evenodd" fill-opacity="0.5" stroke="#000000" stroke-opacity="0.5" stroke-width="3.2"/>
<circle clip-path="url(#clip372)" cx="836.215" cy="969.296" r="14.4" fill="#009af9" fill-rule="evenodd" fill-opacity="0.5" stroke="#000000" stroke-opacity="0.5" stroke-width="3.2"/>
<circle clip-path="url(#clip372)" cx="1859.74" cy="605.94" r="14.4" fill="#009af9" fill-rule="evenodd" fill-opacity="0.5" stroke="#000000" stroke-opacity="0.5" stroke-width="3.2"/>
<circle clip-path="url(#clip372)" cx="513.883" cy="687.314" r="14.4" fill="#009af9" fill-rule="evenodd" fill-opacity="0.5" stroke="#000000" stroke-opacity="0.5" stroke-width="3.2"/>
<circle clip-path="url(#clip372)" cx="1329.13" cy="965.375" r="14.4" fill="#009af9" fill-rule="evenodd" fill-opacity="0.5" stroke="#000000" stroke-opacity="0.5" stroke-width="3.2"/>
<circle clip-path="url(#clip372)" cx="1606.71" cy="531.001" r="14.4" fill="#009af9" fill-rule="evenodd" fill-opacity="0.5" stroke="#000000" stroke-opacity="0.5" stroke-width="3.2"/>
<circle clip-path="url(#clip372)" cx="1187.2" cy="762.366" r="14.4" fill="#009af9" fill-rule="evenodd" fill-opacity="0.5" stroke="#000000" stroke-opacity="0.5" stroke-width="3.2"/>
<circle clip-path="url(#clip372)" cx="758.275" cy="172.286" r="14.4" fill="#009af9" fill-rule="evenodd" fill-opacity="0.5" stroke="#000000" stroke-opacity="0.5" stroke-width="3.2"/>
<circle clip-path="url(#clip372)" cx="510.228" cy="535.893" r="14.4" fill="#009af9" fill-rule="evenodd" fill-opacity="0.5" stroke="#000000" stroke-opacity="0.5" stroke-width="3.2"/>
<circle clip-path="url(#clip372)" cx="2002.19" cy="348.724" r="14.4" fill="#009af9" fill-rule="evenodd" fill-opacity="0.5" stroke="#000000" stroke-opacity="0.5" stroke-width="3.2"/>
<circle clip-path="url(#clip372)" cx="900.907" cy="566.952" r="14.4" fill="#009af9" fill-rule="evenodd" fill-opacity="0.5" stroke="#000000" stroke-opacity="0.5" stroke-width="3.2"/>
<circle clip-path="url(#clip372)" cx="1691.83" cy="838.536" r="14.4" fill="#009af9" fill-rule="evenodd" fill-opacity="0.5" stroke="#000000" stroke-opacity="0.5" stroke-width="3.2"/>
<circle clip-path="url(#clip372)" cx="1558.21" cy="1127.13" r="14.4" fill="#009af9" fill-rule="evenodd" fill-opacity="0.5" stroke="#000000" stroke-opacity="0.5" stroke-width="3.2"/>
<circle clip-path="url(#clip372)" cx="1326.16" cy="1122.06" r="14.4" fill="#009af9" fill-rule="evenodd" fill-opacity="0.5" stroke="#000000" stroke-opacity="0.5" stroke-width="3.2"/>
<circle clip-path="url(#clip372)" cx="494.816" cy="954.384" r="14.4" fill="#009af9" fill-rule="evenodd" fill-opacity="0.5" stroke="#000000" stroke-opacity="0.5" stroke-width="3.2"/>
<circle clip-path="url(#clip372)" cx="598.524" cy="589.423" r="14.4" fill="#009af9" fill-rule="evenodd" fill-opacity="0.5" stroke="#000000" stroke-opacity="0.5" stroke-width="3.2"/>
<circle clip-path="url(#clip372)" cx="1823.05" cy="918.893" r="14.4" fill="#009af9" fill-rule="evenodd" fill-opacity="0.5" stroke="#000000" stroke-opacity="0.5" stroke-width="3.2"/>
<circle clip-path="url(#clip372)" cx="209.891" cy="1445.72" r="14.4" fill="#009af9" fill-rule="evenodd" fill-opacity="0.5" stroke="#000000" stroke-opacity="0.5" stroke-width="3.2"/>
<circle clip-path="url(#clip372)" cx="644.269" cy="881.306" r="14.4" fill="#009af9" fill-rule="evenodd" fill-opacity="0.5" stroke="#000000" stroke-opacity="0.5" stroke-width="3.2"/>
<circle clip-path="url(#clip372)" cx="294.836" cy="1133.51" r="14.4" fill="#009af9" fill-rule="evenodd" fill-opacity="0.5" stroke="#000000" stroke-opacity="0.5" stroke-width="3.2"/>
<circle clip-path="url(#clip372)" cx="2290.34" cy="580.424" r="14.4" fill="#009af9" fill-rule="evenodd" fill-opacity="0.5" stroke="#000000" stroke-opacity="0.5" stroke-width="3.2"/>
<circle clip-path="url(#clip372)" cx="1167.34" cy="145.638" r="14.4" fill="#009af9" fill-rule="evenodd" fill-opacity="0.5" stroke="#000000" stroke-opacity="0.5" stroke-width="3.2"/>
<circle clip-path="url(#clip372)" cx="831.542" cy="1099.57" r="14.4" fill="#009af9" fill-rule="evenodd" fill-opacity="0.5" stroke="#000000" stroke-opacity="0.5" stroke-width="3.2"/>
<circle clip-path="url(#clip372)" cx="1151.76" cy="1024.67" r="14.4" fill="#009af9" fill-rule="evenodd" fill-opacity="0.5" stroke="#000000" stroke-opacity="0.5" stroke-width="3.2"/>
<circle clip-path="url(#clip372)" cx="361.6" cy="686.395" r="14.4" fill="#009af9" fill-rule="evenodd" fill-opacity="0.5" stroke="#000000" stroke-opacity="0.5" stroke-width="3.2"/>
<circle clip-path="url(#clip372)" cx="1343.01" cy="510.053" r="14.4" fill="#009af9" fill-rule="evenodd" fill-opacity="0.5" stroke="#000000" stroke-opacity="0.5" stroke-width="3.2"/>
<circle clip-path="url(#clip372)" cx="278.767" cy="1154.79" r="14.4" fill="#009af9" fill-rule="evenodd" fill-opacity="0.5" stroke="#000000" stroke-opacity="0.5" stroke-width="3.2"/>
<path clip-path="url(#clip372)" d="M209.891 1445.72 L1558.21 1127.13 L2290.34 580.424 L2002.19 348.724 L1384.56 87.9763 L758.275 172.286 L361.6 686.395 L209.891 1445.72 L209.891 1445.72  Z" fill="#e26f46" fill-rule="evenodd" fill-opacity="0.2"/>
<polyline clip-path="url(#clip372)" style="stroke:#000000; stroke-linecap:round; stroke-linejoin:round; stroke-width:4; stroke-opacity:0.2; fill:none" points="209.891,1445.72 1558.21,1127.13 2290.34,580.424 2002.19,348.724 1384.56,87.9763 758.275,172.286 361.6,686.395 209.891,1445.72 "/>
</svg>
