<?xml version="1.0" encoding="utf-8"?>
<svg xmlns="http://www.w3.org/2000/svg" xmlns:xlink="http://www.w3.org/1999/xlink" width="600" height="400" viewBox="0 0 2400 1600">
<defs>
  <clipPath id="clip060">
    <rect x="0" y="0" width="2400" height="1600"/>
  </clipPath>
</defs>
<path clip-path="url(#clip060)" d="M0 1600 L2400 1600 L2400 0 L0 0  Z" fill="#ffffff" fill-rule="evenodd" fill-opacity="1"/>
<defs>
  <clipPath id="clip061">
    <rect x="480" y="0" width="1681" height="1600"/>
  </clipPath>
</defs>
<path clip-path="url(#clip060)" d="M147.478 1486.45 L2352.76 1486.45 L2352.76 47.2441 L147.478 47.2441  Z" fill="#ffffff" fill-rule="evenodd" fill-opacity="1"/>
<defs>
  <clipPath id="clip062">
    <rect x="147" y="47" width="2206" height="1440"/>
  </clipPath>
</defs>
<polyline clip-path="url(#clip062)" style="stroke:#000000; stroke-linecap:round; stroke-linejoin:round; stroke-width:2; stroke-opacity:0.1; fill:none" points="308.382,1486.45 308.382,47.2441 "/>
<polyline clip-path="url(#clip062)" style="stroke:#000000; stroke-linecap:round; stroke-linejoin:round; stroke-width:2; stroke-opacity:0.1; fill:none" points="888.666,1486.45 888.666,47.2441 "/>
<polyline clip-path="url(#clip062)" style="stroke:#000000; stroke-linecap:round; stroke-linejoin:round; stroke-width:2; stroke-opacity:0.1; fill:none" points="1468.95,1486.45 1468.95,47.2441 "/>
<polyline clip-path="url(#clip062)" style="stroke:#000000; stroke-linecap:round; stroke-linejoin:round; stroke-width:2; stroke-opacity:0.1; fill:none" points="2049.23,1486.45 2049.23,47.2441 "/>
<polyline clip-path="url(#clip060)" style="stroke:#000000; stroke-linecap:round; stroke-linejoin:round; stroke-width:4; stroke-opacity:1; fill:none" points="147.478,1486.45 2352.76,1486.45 "/>
<polyline clip-path="url(#clip060)" style="stroke:#000000; stroke-linecap:round; stroke-linejoin:round; stroke-width:4; stroke-opacity:1; fill:none" points="308.382,1486.45 308.382,1467.55 "/>
<polyline clip-path="url(#clip060)" style="stroke:#000000; stroke-linecap:round; stroke-linejoin:round; stroke-width:4; stroke-opacity:1; fill:none" points="888.666,1486.45 888.666,1467.55 "/>
<polyline clip-path="url(#clip060)" style="stroke:#000000; stroke-linecap:round; stroke-linejoin:round; stroke-width:4; stroke-opacity:1; fill:none" points="1468.95,1486.45 1468.95,1467.55 "/>
<polyline clip-path="url(#clip060)" style="stroke:#000000; stroke-linecap:round; stroke-linejoin:round; stroke-width:4; stroke-opacity:1; fill:none" points="2049.23,1486.45 2049.23,1467.55 "/>
<path clip-path="url(#clip060)" d="M278.324 1532.02 L308 1532.02 L308 1535.95 L278.324 1535.95 L278.324 1532.02 Z" fill="#000000" fill-rule="nonzero" fill-opacity="1" /><path clip-path="url(#clip060)" d="M322.12 1544.91 L338.439 1544.91 L338.439 1548.85 L316.495 1548.85 L316.495 1544.91 Q319.157 1542.16 323.74 1537.53 Q328.347 1532.88 329.527 1531.53 Q331.773 1529.01 332.652 1527.27 Q333.555 1525.51 333.555 1523.82 Q333.555 1521.07 331.611 1519.33 Q329.689 1517.6 326.588 1517.6 Q324.389 1517.6 321.935 1518.36 Q319.504 1519.13 316.727 1520.68 L316.727 1515.95 Q319.551 1514.82 322.004 1514.24 Q324.458 1513.66 326.495 1513.66 Q331.865 1513.66 335.06 1516.35 Q338.254 1519.03 338.254 1523.52 Q338.254 1525.65 337.444 1527.57 Q336.657 1529.47 334.551 1532.07 Q333.972 1532.74 330.87 1535.95 Q327.768 1539.15 322.12 1544.91 Z" fill="#000000" fill-rule="nonzero" fill-opacity="1" /><path clip-path="url(#clip060)" d="M858.423 1532.02 L888.099 1532.02 L888.099 1535.95 L858.423 1535.95 L858.423 1532.02 Z" fill="#000000" fill-rule="nonzero" fill-opacity="1" /><path clip-path="url(#clip060)" d="M899.002 1544.91 L906.641 1544.91 L906.641 1518.55 L898.33 1520.21 L898.33 1515.95 L906.594 1514.29 L911.27 1514.29 L911.27 1544.91 L918.909 1544.91 L918.909 1548.85 L899.002 1548.85 L899.002 1544.91 Z" fill="#000000" fill-rule="nonzero" fill-opacity="1" /><path clip-path="url(#clip060)" d="M1468.95 1517.37 Q1465.34 1517.37 1463.51 1520.93 Q1461.71 1524.47 1461.71 1531.6 Q1461.71 1538.71 1463.51 1542.27 Q1465.34 1545.82 1468.95 1545.82 Q1472.58 1545.82 1474.39 1542.27 Q1476.22 1538.71 1476.22 1531.6 Q1476.22 1524.47 1474.39 1520.93 Q1472.58 1517.37 1468.95 1517.37 M1468.95 1513.66 Q1474.76 1513.66 1477.82 1518.27 Q1480.89 1522.85 1480.89 1531.6 Q1480.89 1540.33 1477.82 1544.94 Q1474.76 1549.52 1468.95 1549.52 Q1463.14 1549.52 1460.06 1544.94 Q1457.01 1540.33 1457.01 1531.6 Q1457.01 1522.85 1460.06 1518.27 Q1463.14 1513.66 1468.95 1513.66 Z" fill="#000000" fill-rule="nonzero" fill-opacity="1" /><path clip-path="url(#clip060)" d="M2039.62 1544.91 L2047.26 1544.91 L2047.26 1518.55 L2038.95 1520.21 L2038.95 1515.95 L2047.21 1514.29 L2051.89 1514.29 L2051.89 1544.91 L2059.52 1544.91 L2059.52 1548.85 L2039.62 1548.85 L2039.62 1544.91 Z" fill="#000000" fill-rule="nonzero" fill-opacity="1" /><polyline clip-path="url(#clip062)" style="stroke:#000000; stroke-linecap:round; stroke-linejoin:round; stroke-width:2; stroke-opacity:0.1; fill:none" points="147.478,1404.34 2352.76,1404.34 "/>
<polyline clip-path="url(#clip062)" style="stroke:#000000; stroke-linecap:round; stroke-linejoin:round; stroke-width:2; stroke-opacity:0.1; fill:none" points="147.478,1083.8 2352.76,1083.8 "/>
<polyline clip-path="url(#clip062)" style="stroke:#000000; stroke-linecap:round; stroke-linejoin:round; stroke-width:2; stroke-opacity:0.1; fill:none" points="147.478,763.261 2352.76,763.261 "/>
<polyline clip-path="url(#clip062)" style="stroke:#000000; stroke-linecap:round; stroke-linejoin:round; stroke-width:2; stroke-opacity:0.1; fill:none" points="147.478,442.723 2352.76,442.723 "/>
<polyline clip-path="url(#clip062)" style="stroke:#000000; stroke-linecap:round; stroke-linejoin:round; stroke-width:2; stroke-opacity:0.1; fill:none" points="147.478,122.185 2352.76,122.185 "/>
<polyline clip-path="url(#clip060)" style="stroke:#000000; stroke-linecap:round; stroke-linejoin:round; stroke-width:4; stroke-opacity:1; fill:none" points="147.478,1486.45 147.478,47.2441 "/>
<polyline clip-path="url(#clip060)" style="stroke:#000000; stroke-linecap:round; stroke-linejoin:round; stroke-width:4; stroke-opacity:1; fill:none" points="147.478,1404.34 166.376,1404.34 "/>
<polyline clip-path="url(#clip060)" style="stroke:#000000; stroke-linecap:round; stroke-linejoin:round; stroke-width:4; stroke-opacity:1; fill:none" points="147.478,1083.8 166.376,1083.8 "/>
<polyline clip-path="url(#clip060)" style="stroke:#000000; stroke-linecap:round; stroke-linejoin:round; stroke-width:4; stroke-opacity:1; fill:none" points="147.478,763.261 166.376,763.261 "/>
<polyline clip-path="url(#clip060)" style="stroke:#000000; stroke-linecap:round; stroke-linejoin:round; stroke-width:4; stroke-opacity:1; fill:none" points="147.478,442.723 166.376,442.723 "/>
<polyline clip-path="url(#clip060)" style="stroke:#000000; stroke-linecap:round; stroke-linejoin:round; stroke-width:4; stroke-opacity:1; fill:none" points="147.478,122.185 166.376,122.185 "/>
<path clip-path="url(#clip060)" d="M51.3625 1404.79 L81.0383 1404.79 L81.0383 1408.72 L51.3625 1408.72 L51.3625 1404.79 Z" fill="#000000" fill-rule="nonzero" fill-opacity="1" /><path clip-path="url(#clip060)" d="M95.1586 1417.68 L111.478 1417.68 L111.478 1421.62 L89.5336 1421.62 L89.5336 1417.68 Q92.1956 1414.93 96.7789 1410.3 Q101.385 1405.64 102.566 1404.3 Q104.811 1401.78 105.691 1400.04 Q106.594 1398.28 106.594 1396.59 Q106.594 1393.84 104.649 1392.1 Q102.728 1390.37 99.6261 1390.37 Q97.4271 1390.37 94.9734 1391.13 Q92.5428 1391.89 89.7651 1393.45 L89.7651 1388.72 Q92.5891 1387.59 95.0428 1387.01 Q97.4965 1386.43 99.5335 1386.43 Q104.904 1386.43 108.098 1389.12 Q111.293 1391.8 111.293 1396.29 Q111.293 1398.42 110.483 1400.34 Q109.696 1402.24 107.589 1404.83 Q107.01 1405.51 103.909 1408.72 Q100.807 1411.92 95.1586 1417.68 Z" fill="#000000" fill-rule="nonzero" fill-opacity="1" /><path clip-path="url(#clip060)" d="M50.9921 1084.25 L80.6679 1084.25 L80.6679 1088.19 L50.9921 1088.19 L50.9921 1084.25 Z" fill="#000000" fill-rule="nonzero" fill-opacity="1" /><path clip-path="url(#clip060)" d="M91.5706 1097.14 L99.2095 1097.14 L99.2095 1070.78 L90.8993 1072.44 L90.8993 1068.19 L99.1632 1066.52 L103.839 1066.52 L103.839 1097.14 L111.478 1097.14 L111.478 1101.08 L91.5706 1101.08 L91.5706 1097.14 Z" fill="#000000" fill-rule="nonzero" fill-opacity="1" /><path clip-path="url(#clip060)" d="M99.5335 749.06 Q95.9224 749.06 94.0937 752.624 Q92.2882 756.166 92.2882 763.296 Q92.2882 770.402 94.0937 773.967 Q95.9224 777.509 99.5335 777.509 Q103.168 777.509 104.973 773.967 Q106.802 770.402 106.802 763.296 Q106.802 756.166 104.973 752.624 Q103.168 749.06 99.5335 749.06 M99.5335 745.356 Q105.344 745.356 108.399 749.962 Q111.478 754.546 111.478 763.296 Q111.478 772.023 108.399 776.629 Q105.344 781.212 99.5335 781.212 Q93.7234 781.212 90.6447 776.629 Q87.5892 772.023 87.5892 763.296 Q87.5892 754.546 90.6447 749.962 Q93.7234 745.356 99.5335 745.356 Z" fill="#000000" fill-rule="nonzero" fill-opacity="1" /><path clip-path="url(#clip060)" d="M91.5706 456.068 L99.2095 456.068 L99.2095 429.702 L90.8993 431.369 L90.8993 427.11 L99.1632 425.443 L103.839 425.443 L103.839 456.068 L111.478 456.068 L111.478 460.003 L91.5706 460.003 L91.5706 456.068 Z" fill="#000000" fill-rule="nonzero" fill-opacity="1" /><path clip-path="url(#clip060)" d="M95.1586 135.53 L111.478 135.53 L111.478 139.465 L89.5336 139.465 L89.5336 135.53 Q92.1956 132.775 96.7789 128.146 Q101.385 123.493 102.566 122.15 Q104.811 119.627 105.691 117.891 Q106.594 116.132 106.594 114.442 Q106.594 111.687 104.649 109.951 Q102.728 108.215 99.6261 108.215 Q97.4271 108.215 94.9734 108.979 Q92.5428 109.743 89.7651 111.294 L89.7651 106.572 Q92.5891 105.437 95.0428 104.859 Q97.4965 104.28 99.5335 104.28 Q104.904 104.28 108.098 106.965 Q111.293 109.65 111.293 114.141 Q111.293 116.271 110.483 118.192 Q109.696 120.09 107.589 122.683 Q107.01 123.354 103.909 126.572 Q100.807 129.766 95.1586 135.53 Z" fill="#000000" fill-rule="nonzero" fill-opacity="1" /><circle clip-path="url(#clip062)" cx="1901.2" cy="536.496" r="14.4" fill="#009af9" fill-rule="evenodd" fill-opacity="0.5" stroke="#000000" stroke-opacity="0.5" stroke-width="3.2"/>
<circle clip-path="url(#clip062)" cx="1574.69" cy="787.568" r="14.4" fill="#009af9" fill-rule="evenodd" fill-opacity="0.5" stroke="#000000" stroke-opacity="0.5" stroke-width="3.2"/>
<circle clip-path="url(#clip062)" cx="816.538" cy="526.032" r="14.4" fill="#009af9" fill-rule="evenodd" fill-opacity="0.5" stroke="#000000" stroke-opacity="0.5" stroke-width="3.2"/>
<circle clip-path="url(#clip062)" cx="1821.95" cy="1249.29" r="14.4" fill="#009af9" fill-rule="evenodd" fill-opacity="0.5" stroke="#000000" stroke-opacity="0.5" stroke-width="3.2"/>
<circle clip-path="url(#clip062)" cx="2256.62" cy="1006.23" r="14.4" fill="#009af9" fill-rule="evenodd" fill-opacity="0.5" stroke="#000000" stroke-opacity="0.5" stroke-width="3.2"/>
<circle clip-path="url(#clip062)" cx="1393.23" cy="1193.21" r="14.4" fill="#009af9" fill-rule="evenodd" fill-opacity="0.5" stroke="#000000" stroke-opacity="0.5" stroke-width="3.2"/>
<circle clip-path="url(#clip062)" cx="1984.62" cy="1398.02" r="14.4" fill="#009af9" fill-rule="evenodd" fill-opacity="0.5" stroke="#000000" stroke-opacity="0.5" stroke-width="3.2"/>
<circle clip-path="url(#clip062)" cx="1782.93" cy="1445.72" r="14.4" fill="#009af9" fill-rule="evenodd" fill-opacity="0.5" stroke="#000000" stroke-opacity="0.5" stroke-width="3.2"/>
<circle clip-path="url(#clip062)" cx="2080.11" cy="134.447" r="14.4" fill="#009af9" fill-rule="evenodd" fill-opacity="0.5" stroke="#000000" stroke-opacity="0.5" stroke-width="3.2"/>
<circle clip-path="url(#clip062)" cx="1896.87" cy="745.836" r="14.4" fill="#009af9" fill-rule="evenodd" fill-opacity="0.5" stroke="#000000" stroke-opacity="0.5" stroke-width="3.2"/>
<circle clip-path="url(#clip062)" cx="1647.64" cy="117.831" r="14.4" fill="#009af9" fill-rule="evenodd" fill-opacity="0.5" stroke="#000000" stroke-opacity="0.5" stroke-width="3.2"/>
<circle clip-path="url(#clip062)" cx="1345.4" cy="396.87" r="14.4" fill="#009af9" fill-rule="evenodd" fill-opacity="0.5" stroke="#000000" stroke-opacity="0.5" stroke-width="3.2"/>
<circle clip-path="url(#clip062)" cx="1314.43" cy="1062.03" r="14.4" fill="#009af9" fill-rule="evenodd" fill-opacity="0.5" stroke="#000000" stroke-opacity="0.5" stroke-width="3.2"/>
<circle clip-path="url(#clip062)" cx="2054.09" cy="299.638" r="14.4" fill="#009af9" fill-rule="evenodd" fill-opacity="0.5" stroke="#000000" stroke-opacity="0.5" stroke-width="3.2"/>
<circle clip-path="url(#clip062)" cx="1403.67" cy="717.299" r="14.4" fill="#009af9" fill-rule="evenodd" fill-opacity="0.5" stroke="#000000" stroke-opacity="0.5" stroke-width="3.2"/>
<circle clip-path="url(#clip062)" cx="1593.56" cy="848.374" r="14.4" fill="#009af9" fill-rule="evenodd" fill-opacity="0.5" stroke="#000000" stroke-opacity="0.5" stroke-width="3.2"/>
<circle clip-path="url(#clip062)" cx="1866.57" cy="1008.36" r="14.4" fill="#009af9" fill-rule="evenodd" fill-opacity="0.5" stroke="#000000" stroke-opacity="0.5" stroke-width="3.2"/>
<circle clip-path="url(#clip062)" cx="687.941" cy="278.647" r="14.4" fill="#009af9" fill-rule="evenodd" fill-opacity="0.5" stroke="#000000" stroke-opacity="0.5" stroke-width="3.2"/>
<circle clip-path="url(#clip062)" cx="822.224" cy="481.969" r="14.4" fill="#009af9" fill-rule="evenodd" fill-opacity="0.5" stroke="#000000" stroke-opacity="0.5" stroke-width="3.2"/>
<circle clip-path="url(#clip062)" cx="1854.48" cy="1040.9" r="14.4" fill="#009af9" fill-rule="evenodd" fill-opacity="0.5" stroke="#000000" stroke-opacity="0.5" stroke-width="3.2"/>
<circle clip-path="url(#clip062)" cx="963.545" cy="700.646" r="14.4" fill="#009af9" fill-rule="evenodd" fill-opacity="0.5" stroke="#000000" stroke-opacity="0.5" stroke-width="3.2"/>
<circle clip-path="url(#clip062)" cx="209.891" cy="87.9763" r="14.4" fill="#009af9" fill-rule="evenodd" fill-opacity="0.5" stroke="#000000" stroke-opacity="0.5" stroke-width="3.2"/>
<circle clip-path="url(#clip062)" cx="1733.67" cy="965.379" r="14.4" fill="#009af9" fill-rule="evenodd" fill-opacity="0.5" stroke="#000000" stroke-opacity="0.5" stroke-width="3.2"/>
<circle clip-path="url(#clip062)" cx="698.219" cy="818.636" r="14.4" fill="#009af9" fill-rule="evenodd" fill-opacity="0.5" stroke="#000000" stroke-opacity="0.5" stroke-width="3.2"/>
<circle clip-path="url(#clip062)" cx="2290.34" cy="191.968" r="14.4" fill="#009af9" fill-rule="evenodd" fill-opacity="0.5" stroke="#000000" stroke-opacity="0.5" stroke-width="3.2"/>
<circle clip-path="url(#clip062)" cx="2179.07" cy="784.949" r="14.4" fill="#009af9" fill-rule="evenodd" fill-opacity="0.5" stroke="#000000" stroke-opacity="0.5" stroke-width="3.2"/>
<circle clip-path="url(#clip062)" cx="1722.44" cy="519.605" r="14.4" fill="#009af9" fill-rule="evenodd" fill-opacity="0.5" stroke="#000000" stroke-opacity="0.5" stroke-width="3.2"/>
<circle clip-path="url(#clip062)" cx="1864.12" cy="600.523" r="14.4" fill="#009af9" fill-rule="evenodd" fill-opacity="0.5" stroke="#000000" stroke-opacity="0.5" stroke-width="3.2"/>
<circle clip-path="url(#clip062)" cx="1508.27" cy="672.329" r="14.4" fill="#009af9" fill-rule="evenodd" fill-opacity="0.5" stroke="#000000" stroke-opacity="0.5" stroke-width="3.2"/>
<circle clip-path="url(#clip062)" cx="1233.04" cy="971.938" r="14.4" fill="#009af9" fill-rule="evenodd" fill-opacity="0.5" stroke="#000000" stroke-opacity="0.5" stroke-width="3.2"/>
<path clip-path="url(#clip062)" d="M209.891 87.9763 L698.219 818.636 L1782.93 1445.72 L1984.62 1398.02 L2256.62 1006.23 L2290.34 191.968 L2080.11 134.447 L1647.64 117.831 L209.891 87.9763 L209.891 87.9763  Z" fill="#e26f46" fill-rule="evenodd" fill-opacity="0.2"/>
<polyline clip-path="url(#clip062)" style="stroke:#000000; stroke-linecap:round; stroke-linejoin:round; stroke-width:4; stroke-opacity:0.2; fill:none" points="209.891,87.9763 698.219,818.636 1782.93,1445.72 1984.62,1398.02 2256.62,1006.23 2290.34,191.968 2080.11,134.447 1647.64,117.831 209.891,87.9763 "/>
</svg>
