<?xml version="1.0" encoding="utf-8"?>
<svg xmlns="http://www.w3.org/2000/svg" xmlns:xlink="http://www.w3.org/1999/xlink" width="600" height="400" viewBox="0 0 2400 1600">
<defs>
  <clipPath id="clip110">
    <rect x="0" y="0" width="2400" height="1600"/>
  </clipPath>
</defs>
<path clip-path="url(#clip110)" d="M0 1600 L2400 1600 L2400 0 L0 0  Z" fill="#ffffff" fill-rule="evenodd" fill-opacity="1"/>
<defs>
  <clipPath id="clip111">
    <rect x="147" y="47" width="2206" height="1440"/>
  </clipPath>
</defs>
<path clip-path="url(#clip110)" d="M147.478 1486.45 L2352.76 1486.45 L2352.76 47.2441 L147.478 47.2441  Z" fill="#ffffff" fill-rule="evenodd" fill-opacity="1"/>
<polyline clip-path="url(#clip111)" style="stroke:#000000; stroke-linecap:round; stroke-linejoin:round; stroke-width:2; stroke-opacity:0.1; fill:none" points="422.571,1486.45 422.571,47.2441 "/>
<polyline clip-path="url(#clip111)" style="stroke:#000000; stroke-linecap:round; stroke-linejoin:round; stroke-width:2; stroke-opacity:0.1; fill:none" points="995.385,1486.45 995.385,47.2441 "/>
<polyline clip-path="url(#clip111)" style="stroke:#000000; stroke-linecap:round; stroke-linejoin:round; stroke-width:2; stroke-opacity:0.1; fill:none" points="1568.2,1486.45 1568.2,47.2441 "/>
<polyline clip-path="url(#clip111)" style="stroke:#000000; stroke-linecap:round; stroke-linejoin:round; stroke-width:2; stroke-opacity:0.1; fill:none" points="2141.02,1486.45 2141.02,47.2441 "/>
<polyline clip-path="url(#clip111)" style="stroke:#000000; stroke-linecap:round; stroke-linejoin:round; stroke-width:2; stroke-opacity:0.1; fill:none" points="147.478,1287.95 2352.76,1287.95 "/>
<polyline clip-path="url(#clip111)" style="stroke:#000000; stroke-linecap:round; stroke-linejoin:round; stroke-width:2; stroke-opacity:0.1; fill:none" points="147.478,994.803 2352.76,994.803 "/>
<polyline clip-path="url(#clip111)" style="stroke:#000000; stroke-linecap:round; stroke-linejoin:round; stroke-width:2; stroke-opacity:0.1; fill:none" points="147.478,701.659 2352.76,701.659 "/>
<polyline clip-path="url(#clip111)" style="stroke:#000000; stroke-linecap:round; stroke-linejoin:round; stroke-width:2; stroke-opacity:0.1; fill:none" points="147.478,408.515 2352.76,408.515 "/>
<polyline clip-path="url(#clip111)" style="stroke:#000000; stroke-linecap:round; stroke-linejoin:round; stroke-width:2; stroke-opacity:0.1; fill:none" points="147.478,115.371 2352.76,115.371 "/>
<polyline clip-path="url(#clip110)" style="stroke:#000000; stroke-linecap:round; stroke-linejoin:round; stroke-width:4; stroke-opacity:1; fill:none" points="147.478,1486.45 2352.76,1486.45 "/>
<polyline clip-path="url(#clip110)" style="stroke:#000000; stroke-linecap:round; stroke-linejoin:round; stroke-width:4; stroke-opacity:1; fill:none" points="422.571,1486.45 422.571,1467.55 "/>
<polyline clip-path="url(#clip110)" style="stroke:#000000; stroke-linecap:round; stroke-linejoin:round; stroke-width:4; stroke-opacity:1; fill:none" points="995.385,1486.45 995.385,1467.55 "/>
<polyline clip-path="url(#clip110)" style="stroke:#000000; stroke-linecap:round; stroke-linejoin:round; stroke-width:4; stroke-opacity:1; fill:none" points="1568.2,1486.45 1568.2,1467.55 "/>
<polyline clip-path="url(#clip110)" style="stroke:#000000; stroke-linecap:round; stroke-linejoin:round; stroke-width:4; stroke-opacity:1; fill:none" points="2141.02,1486.45 2141.02,1467.55 "/>
<path clip-path="url(#clip110)" d="M392.328 1532.02 L422.003 1532.02 L422.003 1535.95 L392.328 1535.95 L392.328 1532.02 Z" fill="#000000" fill-rule="nonzero" fill-opacity="1" /><path clip-path="url(#clip110)" d="M432.906 1544.91 L440.545 1544.91 L440.545 1518.55 L432.235 1520.21 L432.235 1515.95 L440.499 1514.29 L445.175 1514.29 L445.175 1544.91 L452.813 1544.91 L452.813 1548.85 L432.906 1548.85 L432.906 1544.91 Z" fill="#000000" fill-rule="nonzero" fill-opacity="1" /><path clip-path="url(#clip110)" d="M995.385 1517.37 Q991.774 1517.37 989.946 1520.93 Q988.14 1524.47 988.14 1531.6 Q988.14 1538.71 989.946 1542.27 Q991.774 1545.82 995.385 1545.82 Q999.02 1545.82 1000.83 1542.27 Q1002.65 1538.71 1002.65 1531.6 Q1002.65 1524.47 1000.83 1520.93 Q999.02 1517.37 995.385 1517.37 M995.385 1513.66 Q1001.2 1513.66 1004.25 1518.27 Q1007.33 1522.85 1007.33 1531.6 Q1007.33 1540.33 1004.25 1544.94 Q1001.2 1549.52 995.385 1549.52 Q989.575 1549.52 986.497 1544.94 Q983.441 1540.33 983.441 1531.6 Q983.441 1522.85 986.497 1518.27 Q989.575 1513.66 995.385 1513.66 Z" fill="#000000" fill-rule="nonzero" fill-opacity="1" /><path clip-path="url(#clip110)" d="M1558.58 1544.91 L1566.22 1544.91 L1566.22 1518.55 L1557.91 1520.21 L1557.91 1515.95 L1566.18 1514.29 L1570.85 1514.29 L1570.85 1544.91 L1578.49 1544.91 L1578.49 1548.85 L1558.58 1548.85 L1558.58 1544.91 Z" fill="#000000" fill-rule="nonzero" fill-opacity="1" /><path clip-path="url(#clip110)" d="M2135.67 1544.91 L2151.99 1544.91 L2151.99 1548.85 L2130.04 1548.85 L2130.04 1544.91 Q2132.71 1542.16 2137.29 1537.53 Q2141.9 1532.88 2143.08 1531.53 Q2145.32 1529.01 2146.2 1527.27 Q2147.1 1525.51 2147.1 1523.82 Q2147.1 1521.07 2145.16 1519.33 Q2143.24 1517.6 2140.14 1517.6 Q2137.94 1517.6 2135.48 1518.36 Q2133.05 1519.13 2130.27 1520.68 L2130.27 1515.95 Q2133.1 1514.82 2135.55 1514.24 Q2138.01 1513.66 2140.04 1513.66 Q2145.41 1513.66 2148.61 1516.35 Q2151.8 1519.03 2151.8 1523.52 Q2151.8 1525.65 2150.99 1527.57 Q2150.21 1529.47 2148.1 1532.07 Q2147.52 1532.74 2144.42 1535.95 Q2141.32 1539.15 2135.67 1544.91 Z" fill="#000000" fill-rule="nonzero" fill-opacity="1" /><polyline clip-path="url(#clip110)" style="stroke:#000000; stroke-linecap:round; stroke-linejoin:round; stroke-width:4; stroke-opacity:1; fill:none" points="147.478,1486.45 147.478,47.2441 "/>
<polyline clip-path="url(#clip110)" style="stroke:#000000; stroke-linecap:round; stroke-linejoin:round; stroke-width:4; stroke-opacity:1; fill:none" points="147.478,1287.95 166.376,1287.95 "/>
<polyline clip-path="url(#clip110)" style="stroke:#000000; stroke-linecap:round; stroke-linejoin:round; stroke-width:4; stroke-opacity:1; fill:none" points="147.478,994.803 166.376,994.803 "/>
<polyline clip-path="url(#clip110)" style="stroke:#000000; stroke-linecap:round; stroke-linejoin:round; stroke-width:4; stroke-opacity:1; fill:none" points="147.478,701.659 166.376,701.659 "/>
<polyline clip-path="url(#clip110)" style="stroke:#000000; stroke-linecap:round; stroke-linejoin:round; stroke-width:4; stroke-opacity:1; fill:none" points="147.478,408.515 166.376,408.515 "/>
<polyline clip-path="url(#clip110)" style="stroke:#000000; stroke-linecap:round; stroke-linejoin:round; stroke-width:4; stroke-opacity:1; fill:none" points="147.478,115.371 166.376,115.371 "/>
<path clip-path="url(#clip110)" d="M51.3625 1288.4 L81.0383 1288.4 L81.0383 1292.33 L51.3625 1292.33 L51.3625 1288.4 Z" fill="#000000" fill-rule="nonzero" fill-opacity="1" /><path clip-path="url(#clip110)" d="M95.1586 1301.29 L111.478 1301.29 L111.478 1305.23 L89.5336 1305.23 L89.5336 1301.29 Q92.1956 1298.54 96.7789 1293.91 Q101.385 1289.26 102.566 1287.91 Q104.811 1285.39 105.691 1283.65 Q106.594 1281.89 106.594 1280.2 Q106.594 1277.45 104.649 1275.71 Q102.728 1273.98 99.6261 1273.98 Q97.4271 1273.98 94.9734 1274.74 Q92.5428 1275.51 89.7651 1277.06 L89.7651 1272.33 Q92.5891 1271.2 95.0428 1270.62 Q97.4965 1270.04 99.5335 1270.04 Q104.904 1270.04 108.098 1272.73 Q111.293 1275.41 111.293 1279.9 Q111.293 1282.03 110.483 1283.95 Q109.696 1285.85 107.589 1288.45 Q107.01 1289.12 103.909 1292.33 Q100.807 1295.53 95.1586 1301.29 Z" fill="#000000" fill-rule="nonzero" fill-opacity="1" /><path clip-path="url(#clip110)" d="M50.9921 995.255 L80.6679 995.255 L80.6679 999.19 L50.9921 999.19 L50.9921 995.255 Z" fill="#000000" fill-rule="nonzero" fill-opacity="1" /><path clip-path="url(#clip110)" d="M91.5706 1008.15 L99.2095 1008.15 L99.2095 981.783 L90.8993 983.449 L90.8993 979.19 L99.1632 977.523 L103.839 977.523 L103.839 1008.15 L111.478 1008.15 L111.478 1012.08 L91.5706 1012.08 L91.5706 1008.15 Z" fill="#000000" fill-rule="nonzero" fill-opacity="1" /><path clip-path="url(#clip110)" d="M99.5335 687.458 Q95.9224 687.458 94.0937 691.023 Q92.2882 694.564 92.2882 701.694 Q92.2882 708.8 94.0937 712.365 Q95.9224 715.907 99.5335 715.907 Q103.168 715.907 104.973 712.365 Q106.802 708.8 106.802 701.694 Q106.802 694.564 104.973 691.023 Q103.168 687.458 99.5335 687.458 M99.5335 683.754 Q105.344 683.754 108.399 688.361 Q111.478 692.944 111.478 701.694 Q111.478 710.421 108.399 715.027 Q105.344 719.611 99.5335 719.611 Q93.7234 719.611 90.6447 715.027 Q87.5892 710.421 87.5892 701.694 Q87.5892 692.944 90.6447 688.361 Q93.7234 683.754 99.5335 683.754 Z" fill="#000000" fill-rule="nonzero" fill-opacity="1" /><path clip-path="url(#clip110)" d="M91.5706 421.86 L99.2095 421.86 L99.2095 395.494 L90.8993 397.161 L90.8993 392.902 L99.1632 391.235 L103.839 391.235 L103.839 421.86 L111.478 421.86 L111.478 425.795 L91.5706 425.795 L91.5706 421.86 Z" fill="#000000" fill-rule="nonzero" fill-opacity="1" /><path clip-path="url(#clip110)" d="M95.1586 128.716 L111.478 128.716 L111.478 132.651 L89.5336 132.651 L89.5336 128.716 Q92.1956 125.961 96.7789 121.332 Q101.385 116.679 102.566 115.336 Q104.811 112.813 105.691 111.077 Q106.594 109.318 106.594 107.628 Q106.594 104.873 104.649 103.137 Q102.728 101.401 99.6261 101.401 Q97.4271 101.401 94.9734 102.165 Q92.5428 102.929 89.7651 104.48 L89.7651 99.7576 Q92.5891 98.6234 95.0428 98.0447 Q97.4965 97.466 99.5335 97.466 Q104.904 97.466 108.098 100.151 Q111.293 102.836 111.293 107.327 Q111.293 109.457 110.483 111.378 Q109.696 113.276 107.589 115.869 Q107.01 116.54 103.909 119.758 Q100.807 122.952 95.1586 128.716 Z" fill="#000000" fill-rule="nonzero" fill-opacity="1" /><circle clip-path="url(#clip111)" cx="1601.4" cy="392.575" r="14.4" fill="#009af9" fill-rule="evenodd" fill-opacity="0.5" stroke="#000000" stroke-opacity="0.5" stroke-width="3.2"/>
<circle clip-path="url(#clip111)" cx="852.759" cy="1375.81" r="14.4" fill="#009af9" fill-rule="evenodd" fill-opacity="0.5" stroke="#000000" stroke-opacity="0.5" stroke-width="3.2"/>
<circle clip-path="url(#clip111)" cx="1734.62" cy="772.168" r="14.4" fill="#009af9" fill-rule="evenodd" fill-opacity="0.5" stroke="#000000" stroke-opacity="0.5" stroke-width="3.2"/>
<circle clip-path="url(#clip111)" cx="1822.95" cy="704.466" r="14.4" fill="#009af9" fill-rule="evenodd" fill-opacity="0.5" stroke="#000000" stroke-opacity="0.5" stroke-width="3.2"/>
<circle clip-path="url(#clip111)" cx="2290.34" cy="629.497" r="14.4" fill="#009af9" fill-rule="evenodd" fill-opacity="0.5" stroke="#000000" stroke-opacity="0.5" stroke-width="3.2"/>
<circle clip-path="url(#clip111)" cx="1076.27" cy="822.894" r="14.4" fill="#009af9" fill-rule="evenodd" fill-opacity="0.5" stroke="#000000" stroke-opacity="0.5" stroke-width="3.2"/>
<circle clip-path="url(#clip111)" cx="1297.78" cy="585.56" r="14.4" fill="#009af9" fill-rule="evenodd" fill-opacity="0.5" stroke="#000000" stroke-opacity="0.5" stroke-width="3.2"/>
<circle clip-path="url(#clip111)" cx="465.053" cy="1445.72" r="14.4" fill="#009af9" fill-rule="evenodd" fill-opacity="0.5" stroke="#000000" stroke-opacity="0.5" stroke-width="3.2"/>
<circle clip-path="url(#clip111)" cx="1277.75" cy="690.21" r="14.4" fill="#009af9" fill-rule="evenodd" fill-opacity="0.5" stroke="#000000" stroke-opacity="0.5" stroke-width="3.2"/>
<circle clip-path="url(#clip111)" cx="419.991" cy="1082.56" r="14.4" fill="#009af9" fill-rule="evenodd" fill-opacity="0.5" stroke="#000000" stroke-opacity="0.5" stroke-width="3.2"/>
<circle clip-path="url(#clip111)" cx="1401.02" cy="558.428" r="14.4" fill="#009af9" fill-rule="evenodd" fill-opacity="0.5" stroke="#000000" stroke-opacity="0.5" stroke-width="3.2"/>
<circle clip-path="url(#clip111)" cx="499.359" cy="1193.42" r="14.4" fill="#009af9" fill-rule="evenodd" fill-opacity="0.5" stroke="#000000" stroke-opacity="0.5" stroke-width="3.2"/>
<circle clip-path="url(#clip111)" cx="1364.8" cy="1145.4" r="14.4" fill="#009af9" fill-rule="evenodd" fill-opacity="0.5" stroke="#000000" stroke-opacity="0.5" stroke-width="3.2"/>
<circle clip-path="url(#clip111)" cx="1506.16" cy="150.798" r="14.4" fill="#009af9" fill-rule="evenodd" fill-opacity="0.5" stroke="#000000" stroke-opacity="0.5" stroke-width="3.2"/>
<circle clip-path="url(#clip111)" cx="400.027" cy="1092.99" r="14.4" fill="#009af9" fill-rule="evenodd" fill-opacity="0.5" stroke="#000000" stroke-opacity="0.5" stroke-width="3.2"/>
<circle clip-path="url(#clip111)" cx="1555.59" cy="783.632" r="14.4" fill="#009af9" fill-rule="evenodd" fill-opacity="0.5" stroke="#000000" stroke-opacity="0.5" stroke-width="3.2"/>
<circle clip-path="url(#clip111)" cx="1378.64" cy="768.053" r="14.4" fill="#009af9" fill-rule="evenodd" fill-opacity="0.5" stroke="#000000" stroke-opacity="0.5" stroke-width="3.2"/>
<circle clip-path="url(#clip111)" cx="1274.5" cy="1180.07" r="14.4" fill="#009af9" fill-rule="evenodd" fill-opacity="0.5" stroke="#000000" stroke-opacity="0.5" stroke-width="3.2"/>
<circle clip-path="url(#clip111)" cx="675.486" cy="1108.85" r="14.4" fill="#009af9" fill-rule="evenodd" fill-opacity="0.5" stroke="#000000" stroke-opacity="0.5" stroke-width="3.2"/>
<circle clip-path="url(#clip111)" cx="1135.04" cy="87.9763" r="14.4" fill="#009af9" fill-rule="evenodd" fill-opacity="0.5" stroke="#000000" stroke-opacity="0.5" stroke-width="3.2"/>
<circle clip-path="url(#clip111)" cx="408.441" cy="1198.25" r="14.4" fill="#009af9" fill-rule="evenodd" fill-opacity="0.5" stroke="#000000" stroke-opacity="0.5" stroke-width="3.2"/>
<circle clip-path="url(#clip111)" cx="1497.65" cy="746.718" r="14.4" fill="#009af9" fill-rule="evenodd" fill-opacity="0.5" stroke="#000000" stroke-opacity="0.5" stroke-width="3.2"/>
<circle clip-path="url(#clip111)" cx="209.891" cy="817.825" r="14.4" fill="#009af9" fill-rule="evenodd" fill-opacity="0.5" stroke="#000000" stroke-opacity="0.5" stroke-width="3.2"/>
<circle clip-path="url(#clip111)" cx="465.413" cy="883.486" r="14.4" fill="#009af9" fill-rule="evenodd" fill-opacity="0.5" stroke="#000000" stroke-opacity="0.5" stroke-width="3.2"/>
<circle clip-path="url(#clip111)" cx="1906.02" cy="601.409" r="14.4" fill="#009af9" fill-rule="evenodd" fill-opacity="0.5" stroke="#000000" stroke-opacity="0.5" stroke-width="3.2"/>
<circle clip-path="url(#clip111)" cx="1979.86" cy="623.589" r="14.4" fill="#009af9" fill-rule="evenodd" fill-opacity="0.5" stroke="#000000" stroke-opacity="0.5" stroke-width="3.2"/>
<circle clip-path="url(#clip111)" cx="626.544" cy="712.424" r="14.4" fill="#009af9" fill-rule="evenodd" fill-opacity="0.5" stroke="#000000" stroke-opacity="0.5" stroke-width="3.2"/>
<circle clip-path="url(#clip111)" cx="1271.18" cy="828.038" r="14.4" fill="#009af9" fill-rule="evenodd" fill-opacity="0.5" stroke="#000000" stroke-opacity="0.5" stroke-width="3.2"/>
<circle clip-path="url(#clip111)" cx="1267.49" cy="643.53" r="14.4" fill="#009af9" fill-rule="evenodd" fill-opacity="0.5" stroke="#000000" stroke-opacity="0.5" stroke-width="3.2"/>
<circle clip-path="url(#clip111)" cx="1334.61" cy="871.921" r="14.4" fill="#009af9" fill-rule="evenodd" fill-opacity="0.5" stroke="#000000" stroke-opacity="0.5" stroke-width="3.2"/>
<path clip-path="url(#clip111)" d="M209.891 817.825 L465.053 1445.72 L852.759 1375.81 L1364.8 1145.4 L2290.34 629.497 L1506.16 150.798 L1135.04 87.9763 L209.891 817.825 L209.891 817.825  Z" fill="#e26f46" fill-rule="evenodd" fill-opacity="0.2"/>
<polyline clip-path="url(#clip111)" style="stroke:#000000; stroke-linecap:round; stroke-linejoin:round; stroke-width:4; stroke-opacity:0.2; fill:none" points="209.891,817.825 465.053,1445.72 852.759,1375.81 1364.8,1145.4 2290.34,629.497 1506.16,150.798 1135.04,87.9763 209.891,817.825 "/>
</svg>
