<?xml version="1.0" encoding="utf-8"?>
<svg xmlns="http://www.w3.org/2000/svg" xmlns:xlink="http://www.w3.org/1999/xlink" width="600" height="400" viewBox="0 0 2400 1600">
<defs>
  <clipPath id="clip150">
    <rect x="0" y="0" width="2400" height="1600"/>
  </clipPath>
</defs>
<path clip-path="url(#clip150)" d="M0 1600 L2400 1600 L2400 0 L0 0  Z" fill="#ffffff" fill-rule="evenodd" fill-opacity="1"/>
<defs>
  <clipPath id="clip151">
    <rect x="147" y="47" width="2206" height="1440"/>
  </clipPath>
</defs>
<path clip-path="url(#clip150)" d="M147.478 1486.45 L2352.76 1486.45 L2352.76 47.2441 L147.478 47.2441  Z" fill="#ffffff" fill-rule="evenodd" fill-opacity="1"/>
<polyline clip-path="url(#clip151)" style="stroke:#000000; stroke-linecap:round; stroke-linejoin:round; stroke-width:2; stroke-opacity:0.1; fill:none" points="167.998,1486.45 167.998,47.2441 "/>
<polyline clip-path="url(#clip151)" style="stroke:#000000; stroke-linecap:round; stroke-linejoin:round; stroke-width:2; stroke-opacity:0.1; fill:none" points="621.236,1486.45 621.236,47.2441 "/>
<polyline clip-path="url(#clip151)" style="stroke:#000000; stroke-linecap:round; stroke-linejoin:round; stroke-width:2; stroke-opacity:0.1; fill:none" points="1074.47,1486.45 1074.47,47.2441 "/>
<polyline clip-path="url(#clip151)" style="stroke:#000000; stroke-linecap:round; stroke-linejoin:round; stroke-width:2; stroke-opacity:0.1; fill:none" points="1527.71,1486.45 1527.71,47.2441 "/>
<polyline clip-path="url(#clip151)" style="stroke:#000000; stroke-linecap:round; stroke-linejoin:round; stroke-width:2; stroke-opacity:0.1; fill:none" points="1980.95,1486.45 1980.95,47.2441 "/>
<polyline clip-path="url(#clip151)" style="stroke:#000000; stroke-linecap:round; stroke-linejoin:round; stroke-width:2; stroke-opacity:0.1; fill:none" points="147.478,1358.51 2352.76,1358.51 "/>
<polyline clip-path="url(#clip151)" style="stroke:#000000; stroke-linecap:round; stroke-linejoin:round; stroke-width:2; stroke-opacity:0.1; fill:none" points="147.478,1077.9 2352.76,1077.9 "/>
<polyline clip-path="url(#clip151)" style="stroke:#000000; stroke-linecap:round; stroke-linejoin:round; stroke-width:2; stroke-opacity:0.1; fill:none" points="147.478,797.282 2352.76,797.282 "/>
<polyline clip-path="url(#clip151)" style="stroke:#000000; stroke-linecap:round; stroke-linejoin:round; stroke-width:2; stroke-opacity:0.1; fill:none" points="147.478,516.67 2352.76,516.67 "/>
<polyline clip-path="url(#clip151)" style="stroke:#000000; stroke-linecap:round; stroke-linejoin:round; stroke-width:2; stroke-opacity:0.1; fill:none" points="147.478,236.057 2352.76,236.057 "/>
<polyline clip-path="url(#clip150)" style="stroke:#000000; stroke-linecap:round; stroke-linejoin:round; stroke-width:4; stroke-opacity:1; fill:none" points="147.478,1486.45 2352.76,1486.45 "/>
<polyline clip-path="url(#clip150)" style="stroke:#000000; stroke-linecap:round; stroke-linejoin:round; stroke-width:4; stroke-opacity:1; fill:none" points="167.998,1486.45 167.998,1467.55 "/>
<polyline clip-path="url(#clip150)" style="stroke:#000000; stroke-linecap:round; stroke-linejoin:round; stroke-width:4; stroke-opacity:1; fill:none" points="621.236,1486.45 621.236,1467.55 "/>
<polyline clip-path="url(#clip150)" style="stroke:#000000; stroke-linecap:round; stroke-linejoin:round; stroke-width:4; stroke-opacity:1; fill:none" points="1074.47,1486.45 1074.47,1467.55 "/>
<polyline clip-path="url(#clip150)" style="stroke:#000000; stroke-linecap:round; stroke-linejoin:round; stroke-width:4; stroke-opacity:1; fill:none" points="1527.71,1486.45 1527.71,1467.55 "/>
<polyline clip-path="url(#clip150)" style="stroke:#000000; stroke-linecap:round; stroke-linejoin:round; stroke-width:4; stroke-opacity:1; fill:none" points="1980.95,1486.45 1980.95,1467.55 "/>
<path clip-path="url(#clip150)" d="M137.94 1532.02 L167.616 1532.02 L167.616 1535.95 L137.94 1535.95 L137.94 1532.02 Z" fill="#000000" fill-rule="nonzero" fill-opacity="1" /><path clip-path="url(#clip150)" d="M181.736 1544.91 L198.056 1544.91 L198.056 1548.85 L176.112 1548.85 L176.112 1544.91 Q178.774 1542.16 183.357 1537.53 Q187.963 1532.88 189.144 1531.53 Q191.389 1529.01 192.269 1527.27 Q193.172 1525.51 193.172 1523.82 Q193.172 1521.07 191.227 1519.33 Q189.306 1517.6 186.204 1517.6 Q184.005 1517.6 181.551 1518.36 Q179.121 1519.13 176.343 1520.68 L176.343 1515.95 Q179.167 1514.82 181.621 1514.24 Q184.074 1513.66 186.111 1513.66 Q191.482 1513.66 194.676 1516.35 Q197.871 1519.03 197.871 1523.52 Q197.871 1525.65 197.06 1527.57 Q196.273 1529.47 194.167 1532.07 Q193.588 1532.74 190.486 1535.95 Q187.385 1539.15 181.736 1544.91 Z" fill="#000000" fill-rule="nonzero" fill-opacity="1" /><path clip-path="url(#clip150)" d="M590.993 1532.02 L620.669 1532.02 L620.669 1535.95 L590.993 1535.95 L590.993 1532.02 Z" fill="#000000" fill-rule="nonzero" fill-opacity="1" /><path clip-path="url(#clip150)" d="M631.571 1544.91 L639.21 1544.91 L639.21 1518.55 L630.9 1520.21 L630.9 1515.95 L639.164 1514.29 L643.84 1514.29 L643.84 1544.91 L651.479 1544.91 L651.479 1548.85 L631.571 1548.85 L631.571 1544.91 Z" fill="#000000" fill-rule="nonzero" fill-opacity="1" /><path clip-path="url(#clip150)" d="M1074.47 1517.37 Q1070.86 1517.37 1069.03 1520.93 Q1067.23 1524.47 1067.23 1531.6 Q1067.23 1538.71 1069.03 1542.27 Q1070.86 1545.82 1074.47 1545.82 Q1078.11 1545.82 1079.91 1542.27 Q1081.74 1538.71 1081.74 1531.6 Q1081.74 1524.47 1079.91 1520.93 Q1078.11 1517.37 1074.47 1517.37 M1074.47 1513.66 Q1080.28 1513.66 1083.34 1518.27 Q1086.42 1522.85 1086.42 1531.6 Q1086.42 1540.33 1083.34 1544.94 Q1080.28 1549.52 1074.47 1549.52 Q1068.66 1549.52 1065.58 1544.94 Q1062.53 1540.33 1062.53 1531.6 Q1062.53 1522.85 1065.58 1518.27 Q1068.66 1513.66 1074.47 1513.66 Z" fill="#000000" fill-rule="nonzero" fill-opacity="1" /><path clip-path="url(#clip150)" d="M1518.09 1544.91 L1525.73 1544.91 L1525.73 1518.55 L1517.42 1520.21 L1517.42 1515.95 L1525.69 1514.29 L1530.36 1514.29 L1530.36 1544.91 L1538 1544.91 L1538 1548.85 L1518.09 1548.85 L1518.09 1544.91 Z" fill="#000000" fill-rule="nonzero" fill-opacity="1" /><path clip-path="url(#clip150)" d="M1975.6 1544.91 L1991.92 1544.91 L1991.92 1548.85 L1969.98 1548.85 L1969.98 1544.91 Q1972.64 1542.16 1977.22 1537.53 Q1981.83 1532.88 1983.01 1531.53 Q1985.25 1529.01 1986.13 1527.27 Q1987.04 1525.51 1987.04 1523.82 Q1987.04 1521.07 1985.09 1519.33 Q1983.17 1517.6 1980.07 1517.6 Q1977.87 1517.6 1975.42 1518.36 Q1972.99 1519.13 1970.21 1520.68 L1970.21 1515.95 Q1973.03 1514.82 1975.49 1514.24 Q1977.94 1513.66 1979.98 1513.66 Q1985.35 1513.66 1988.54 1516.35 Q1991.74 1519.03 1991.74 1523.52 Q1991.74 1525.65 1990.93 1527.57 Q1990.14 1529.47 1988.03 1532.07 Q1987.45 1532.74 1984.35 1535.95 Q1981.25 1539.15 1975.6 1544.91 Z" fill="#000000" fill-rule="nonzero" fill-opacity="1" /><polyline clip-path="url(#clip150)" style="stroke:#000000; stroke-linecap:round; stroke-linejoin:round; stroke-width:4; stroke-opacity:1; fill:none" points="147.478,1486.45 147.478,47.2441 "/>
<polyline clip-path="url(#clip150)" style="stroke:#000000; stroke-linecap:round; stroke-linejoin:round; stroke-width:4; stroke-opacity:1; fill:none" points="147.478,1358.51 166.376,1358.51 "/>
<polyline clip-path="url(#clip150)" style="stroke:#000000; stroke-linecap:round; stroke-linejoin:round; stroke-width:4; stroke-opacity:1; fill:none" points="147.478,1077.9 166.376,1077.9 "/>
<polyline clip-path="url(#clip150)" style="stroke:#000000; stroke-linecap:round; stroke-linejoin:round; stroke-width:4; stroke-opacity:1; fill:none" points="147.478,797.282 166.376,797.282 "/>
<polyline clip-path="url(#clip150)" style="stroke:#000000; stroke-linecap:round; stroke-linejoin:round; stroke-width:4; stroke-opacity:1; fill:none" points="147.478,516.67 166.376,516.67 "/>
<polyline clip-path="url(#clip150)" style="stroke:#000000; stroke-linecap:round; stroke-linejoin:round; stroke-width:4; stroke-opacity:1; fill:none" points="147.478,236.057 166.376,236.057 "/>
<path clip-path="url(#clip150)" d="M51.3625 1358.96 L81.0383 1358.96 L81.0383 1362.89 L51.3625 1362.89 L51.3625 1358.96 Z" fill="#000000" fill-rule="nonzero" fill-opacity="1" /><path clip-path="url(#clip150)" d="M95.1586 1371.85 L111.478 1371.85 L111.478 1375.79 L89.5336 1375.79 L89.5336 1371.85 Q92.1956 1369.1 96.7789 1364.47 Q101.385 1359.82 102.566 1358.47 Q104.811 1355.95 105.691 1354.21 Q106.594 1352.45 106.594 1350.77 Q106.594 1348.01 104.649 1346.27 Q102.728 1344.54 99.6261 1344.54 Q97.4271 1344.54 94.9734 1345.3 Q92.5428 1346.07 89.7651 1347.62 L89.7651 1342.89 Q92.5891 1341.76 95.0428 1341.18 Q97.4965 1340.6 99.5335 1340.6 Q104.904 1340.6 108.098 1343.29 Q111.293 1345.97 111.293 1350.46 Q111.293 1352.59 110.483 1354.52 Q109.696 1356.41 107.589 1359.01 Q107.01 1359.68 103.909 1362.89 Q100.807 1366.09 95.1586 1371.85 Z" fill="#000000" fill-rule="nonzero" fill-opacity="1" /><path clip-path="url(#clip150)" d="M50.9921 1078.35 L80.6679 1078.35 L80.6679 1082.28 L50.9921 1082.28 L50.9921 1078.35 Z" fill="#000000" fill-rule="nonzero" fill-opacity="1" /><path clip-path="url(#clip150)" d="M91.5706 1091.24 L99.2095 1091.24 L99.2095 1064.87 L90.8993 1066.54 L90.8993 1062.28 L99.1632 1060.62 L103.839 1060.62 L103.839 1091.24 L111.478 1091.24 L111.478 1095.18 L91.5706 1095.18 L91.5706 1091.24 Z" fill="#000000" fill-rule="nonzero" fill-opacity="1" /><path clip-path="url(#clip150)" d="M99.5335 783.081 Q95.9224 783.081 94.0937 786.646 Q92.2882 790.188 92.2882 797.317 Q92.2882 804.424 94.0937 807.988 Q95.9224 811.53 99.5335 811.53 Q103.168 811.53 104.973 807.988 Q106.802 804.424 106.802 797.317 Q106.802 790.188 104.973 786.646 Q103.168 783.081 99.5335 783.081 M99.5335 779.377 Q105.344 779.377 108.399 783.984 Q111.478 788.567 111.478 797.317 Q111.478 806.044 108.399 810.65 Q105.344 815.234 99.5335 815.234 Q93.7234 815.234 90.6447 810.65 Q87.5892 806.044 87.5892 797.317 Q87.5892 788.567 90.6447 783.984 Q93.7234 779.377 99.5335 779.377 Z" fill="#000000" fill-rule="nonzero" fill-opacity="1" /><path clip-path="url(#clip150)" d="M91.5706 530.014 L99.2095 530.014 L99.2095 503.649 L90.8993 505.315 L90.8993 501.056 L99.1632 499.39 L103.839 499.39 L103.839 530.014 L111.478 530.014 L111.478 533.95 L91.5706 533.95 L91.5706 530.014 Z" fill="#000000" fill-rule="nonzero" fill-opacity="1" /><path clip-path="url(#clip150)" d="M95.1586 249.402 L111.478 249.402 L111.478 253.337 L89.5336 253.337 L89.5336 249.402 Q92.1956 246.647 96.7789 242.017 Q101.385 237.365 102.566 236.022 Q104.811 233.499 105.691 231.763 Q106.594 230.003 106.594 228.314 Q106.594 225.559 104.649 223.823 Q102.728 222.087 99.6261 222.087 Q97.4271 222.087 94.9734 222.851 Q92.5428 223.615 89.7651 225.166 L89.7651 220.443 Q92.5891 219.309 95.0428 218.73 Q97.4965 218.152 99.5335 218.152 Q104.904 218.152 108.098 220.837 Q111.293 223.522 111.293 228.013 Q111.293 230.142 110.483 232.064 Q109.696 233.962 107.589 236.554 Q107.01 237.226 103.909 240.443 Q100.807 243.638 95.1586 249.402 Z" fill="#000000" fill-rule="nonzero" fill-opacity="1" /><circle clip-path="url(#clip151)" cx="209.891" cy="1445.72" r="14.4" fill="#009af9" fill-rule="evenodd" fill-opacity="0.5" stroke="#000000" stroke-opacity="0.5" stroke-width="3.2"/>
<circle clip-path="url(#clip151)" cx="1417.42" cy="1024.22" r="14.4" fill="#009af9" fill-rule="evenodd" fill-opacity="0.5" stroke="#000000" stroke-opacity="0.5" stroke-width="3.2"/>
<circle clip-path="url(#clip151)" cx="1280.38" cy="1182.04" r="14.4" fill="#009af9" fill-rule="evenodd" fill-opacity="0.5" stroke="#000000" stroke-opacity="0.5" stroke-width="3.2"/>
<circle clip-path="url(#clip151)" cx="896.391" cy="999.451" r="14.4" fill="#009af9" fill-rule="evenodd" fill-opacity="0.5" stroke="#000000" stroke-opacity="0.5" stroke-width="3.2"/>
<circle clip-path="url(#clip151)" cx="1250.22" cy="755.241" r="14.4" fill="#009af9" fill-rule="evenodd" fill-opacity="0.5" stroke="#000000" stroke-opacity="0.5" stroke-width="3.2"/>
<circle clip-path="url(#clip151)" cx="704.24" cy="622.535" r="14.4" fill="#009af9" fill-rule="evenodd" fill-opacity="0.5" stroke="#000000" stroke-opacity="0.5" stroke-width="3.2"/>
<circle clip-path="url(#clip151)" cx="569.572" cy="421.022" r="14.4" fill="#009af9" fill-rule="evenodd" fill-opacity="0.5" stroke="#000000" stroke-opacity="0.5" stroke-width="3.2"/>
<circle clip-path="url(#clip151)" cx="839.064" cy="664.945" r="14.4" fill="#009af9" fill-rule="evenodd" fill-opacity="0.5" stroke="#000000" stroke-opacity="0.5" stroke-width="3.2"/>
<circle clip-path="url(#clip151)" cx="976.847" cy="1266" r="14.4" fill="#009af9" fill-rule="evenodd" fill-opacity="0.5" stroke="#000000" stroke-opacity="0.5" stroke-width="3.2"/>
<circle clip-path="url(#clip151)" cx="1153.45" cy="87.9763" r="14.4" fill="#009af9" fill-rule="evenodd" fill-opacity="0.5" stroke="#000000" stroke-opacity="0.5" stroke-width="3.2"/>
<circle clip-path="url(#clip151)" cx="1264.9" cy="1089.87" r="14.4" fill="#009af9" fill-rule="evenodd" fill-opacity="0.5" stroke="#000000" stroke-opacity="0.5" stroke-width="3.2"/>
<circle clip-path="url(#clip151)" cx="672.567" cy="683.925" r="14.4" fill="#009af9" fill-rule="evenodd" fill-opacity="0.5" stroke="#000000" stroke-opacity="0.5" stroke-width="3.2"/>
<circle clip-path="url(#clip151)" cx="1543.7" cy="706.679" r="14.4" fill="#009af9" fill-rule="evenodd" fill-opacity="0.5" stroke="#000000" stroke-opacity="0.5" stroke-width="3.2"/>
<circle clip-path="url(#clip151)" cx="1601.49" cy="579.154" r="14.4" fill="#009af9" fill-rule="evenodd" fill-opacity="0.5" stroke="#000000" stroke-opacity="0.5" stroke-width="3.2"/>
<circle clip-path="url(#clip151)" cx="1152.99" cy="1060.29" r="14.4" fill="#009af9" fill-rule="evenodd" fill-opacity="0.5" stroke="#000000" stroke-opacity="0.5" stroke-width="3.2"/>
<circle clip-path="url(#clip151)" cx="1917.73" cy="847.269" r="14.4" fill="#009af9" fill-rule="evenodd" fill-opacity="0.5" stroke="#000000" stroke-opacity="0.5" stroke-width="3.2"/>
<circle clip-path="url(#clip151)" cx="1583.46" cy="812.591" r="14.4" fill="#009af9" fill-rule="evenodd" fill-opacity="0.5" stroke="#000000" stroke-opacity="0.5" stroke-width="3.2"/>
<circle clip-path="url(#clip151)" cx="2290.34" cy="1252.95" r="14.4" fill="#009af9" fill-rule="evenodd" fill-opacity="0.5" stroke="#000000" stroke-opacity="0.5" stroke-width="3.2"/>
<circle clip-path="url(#clip151)" cx="1725.21" cy="807.006" r="14.4" fill="#009af9" fill-rule="evenodd" fill-opacity="0.5" stroke="#000000" stroke-opacity="0.5" stroke-width="3.2"/>
<circle clip-path="url(#clip151)" cx="919.906" cy="770.612" r="14.4" fill="#009af9" fill-rule="evenodd" fill-opacity="0.5" stroke="#000000" stroke-opacity="0.5" stroke-width="3.2"/>
<circle clip-path="url(#clip151)" cx="865.693" cy="1003.78" r="14.4" fill="#009af9" fill-rule="evenodd" fill-opacity="0.5" stroke="#000000" stroke-opacity="0.5" stroke-width="3.2"/>
<circle clip-path="url(#clip151)" cx="1301.21" cy="619.379" r="14.4" fill="#009af9" fill-rule="evenodd" fill-opacity="0.5" stroke="#000000" stroke-opacity="0.5" stroke-width="3.2"/>
<circle clip-path="url(#clip151)" cx="568.751" cy="701.491" r="14.4" fill="#009af9" fill-rule="evenodd" fill-opacity="0.5" stroke="#000000" stroke-opacity="0.5" stroke-width="3.2"/>
<circle clip-path="url(#clip151)" cx="942.551" cy="599.645" r="14.4" fill="#009af9" fill-rule="evenodd" fill-opacity="0.5" stroke="#000000" stroke-opacity="0.5" stroke-width="3.2"/>
<circle clip-path="url(#clip151)" cx="568.966" cy="919.959" r="14.4" fill="#009af9" fill-rule="evenodd" fill-opacity="0.5" stroke="#000000" stroke-opacity="0.5" stroke-width="3.2"/>
<circle clip-path="url(#clip151)" cx="1559.98" cy="616.425" r="14.4" fill="#009af9" fill-rule="evenodd" fill-opacity="0.5" stroke="#000000" stroke-opacity="0.5" stroke-width="3.2"/>
<circle clip-path="url(#clip151)" cx="905.433" cy="1072.33" r="14.4" fill="#009af9" fill-rule="evenodd" fill-opacity="0.5" stroke="#000000" stroke-opacity="0.5" stroke-width="3.2"/>
<circle clip-path="url(#clip151)" cx="1486.57" cy="336.681" r="14.4" fill="#009af9" fill-rule="evenodd" fill-opacity="0.5" stroke="#000000" stroke-opacity="0.5" stroke-width="3.2"/>
<circle clip-path="url(#clip151)" cx="557.133" cy="521.91" r="14.4" fill="#009af9" fill-rule="evenodd" fill-opacity="0.5" stroke="#000000" stroke-opacity="0.5" stroke-width="3.2"/>
<circle clip-path="url(#clip151)" cx="561.827" cy="604.325" r="14.4" fill="#009af9" fill-rule="evenodd" fill-opacity="0.5" stroke="#000000" stroke-opacity="0.5" stroke-width="3.2"/>
<path clip-path="url(#clip151)" d="M209.891 1445.72 L2290.34 1252.95 L1486.57 336.681 L1153.45 87.9763 L569.572 421.022 L209.891 1445.72 L209.891 1445.72  Z" fill="#e26f46" fill-rule="evenodd" fill-opacity="0.2"/>
<polyline clip-path="url(#clip151)" style="stroke:#000000; stroke-linecap:round; stroke-linejoin:round; stroke-width:4; stroke-opacity:0.2; fill:none" points="209.891,1445.72 2290.34,1252.95 1486.57,336.681 1153.45,87.9763 569.572,421.022 209.891,1445.72 "/>
</svg>
