<?xml version="1.0" encoding="utf-8"?>
<svg xmlns="http://www.w3.org/2000/svg" xmlns:xlink="http://www.w3.org/1999/xlink" width="600" height="400" viewBox="0 0 2400 1600">
<defs>
  <clipPath id="clip870">
    <rect x="0" y="0" width="2400" height="1600"/>
  </clipPath>
</defs>
<path clip-path="url(#clip870)" d="M0 1600 L2400 1600 L2400 0 L0 0  Z" fill="#ffffff" fill-rule="evenodd" fill-opacity="1"/>
<defs>
  <clipPath id="clip871">
    <rect x="147" y="47" width="2206" height="1440"/>
  </clipPath>
</defs>
<path clip-path="url(#clip870)" d="M147.478 1486.45 L2352.76 1486.45 L2352.76 47.2441 L147.478 47.2441  Z" fill="#ffffff" fill-rule="evenodd" fill-opacity="1"/>
<polyline clip-path="url(#clip871)" style="stroke:#000000; stroke-linecap:round; stroke-linejoin:round; stroke-width:2; stroke-opacity:0.1; fill:none" points="550.624,1486.45 550.624,47.2441 "/>
<polyline clip-path="url(#clip871)" style="stroke:#000000; stroke-linecap:round; stroke-linejoin:round; stroke-width:2; stroke-opacity:0.1; fill:none" points="1001.19,1486.45 1001.19,47.2441 "/>
<polyline clip-path="url(#clip871)" style="stroke:#000000; stroke-linecap:round; stroke-linejoin:round; stroke-width:2; stroke-opacity:0.1; fill:none" points="1451.76,1486.45 1451.76,47.2441 "/>
<polyline clip-path="url(#clip871)" style="stroke:#000000; stroke-linecap:round; stroke-linejoin:round; stroke-width:2; stroke-opacity:0.1; fill:none" points="1902.33,1486.45 1902.33,47.2441 "/>
<polyline clip-path="url(#clip871)" style="stroke:#000000; stroke-linecap:round; stroke-linejoin:round; stroke-width:2; stroke-opacity:0.1; fill:none" points="147.478,1167.58 2352.76,1167.58 "/>
<polyline clip-path="url(#clip871)" style="stroke:#000000; stroke-linecap:round; stroke-linejoin:round; stroke-width:2; stroke-opacity:0.1; fill:none" points="147.478,842.208 2352.76,842.208 "/>
<polyline clip-path="url(#clip871)" style="stroke:#000000; stroke-linecap:round; stroke-linejoin:round; stroke-width:2; stroke-opacity:0.1; fill:none" points="147.478,516.84 2352.76,516.84 "/>
<polyline clip-path="url(#clip871)" style="stroke:#000000; stroke-linecap:round; stroke-linejoin:round; stroke-width:2; stroke-opacity:0.1; fill:none" points="147.478,191.471 2352.76,191.471 "/>
<polyline clip-path="url(#clip870)" style="stroke:#000000; stroke-linecap:round; stroke-linejoin:round; stroke-width:4; stroke-opacity:1; fill:none" points="147.478,1486.45 2352.76,1486.45 "/>
<polyline clip-path="url(#clip870)" style="stroke:#000000; stroke-linecap:round; stroke-linejoin:round; stroke-width:4; stroke-opacity:1; fill:none" points="550.624,1486.45 550.624,1467.55 "/>
<polyline clip-path="url(#clip870)" style="stroke:#000000; stroke-linecap:round; stroke-linejoin:round; stroke-width:4; stroke-opacity:1; fill:none" points="1001.19,1486.45 1001.19,1467.55 "/>
<polyline clip-path="url(#clip870)" style="stroke:#000000; stroke-linecap:round; stroke-linejoin:round; stroke-width:4; stroke-opacity:1; fill:none" points="1451.76,1486.45 1451.76,1467.55 "/>
<polyline clip-path="url(#clip870)" style="stroke:#000000; stroke-linecap:round; stroke-linejoin:round; stroke-width:4; stroke-opacity:1; fill:none" points="1902.33,1486.45 1902.33,1467.55 "/>
<path clip-path="url(#clip870)" d="M520.566 1532.02 L550.242 1532.02 L550.242 1535.95 L520.566 1535.95 L520.566 1532.02 Z" fill="#000000" fill-rule="nonzero" fill-opacity="1" /><path clip-path="url(#clip870)" d="M564.362 1544.91 L580.681 1544.91 L580.681 1548.85 L558.737 1548.85 L558.737 1544.91 Q561.399 1542.16 565.982 1537.53 Q570.589 1532.88 571.769 1531.53 Q574.015 1529.01 574.894 1527.27 Q575.797 1525.51 575.797 1523.82 Q575.797 1521.07 573.853 1519.33 Q571.931 1517.6 568.83 1517.6 Q566.631 1517.6 564.177 1518.36 Q561.746 1519.13 558.969 1520.68 L558.969 1515.95 Q561.793 1514.82 564.246 1514.24 Q566.7 1513.66 568.737 1513.66 Q574.107 1513.66 577.302 1516.35 Q580.496 1519.03 580.496 1523.52 Q580.496 1525.65 579.686 1527.57 Q578.899 1529.47 576.793 1532.07 Q576.214 1532.74 573.112 1535.95 Q570.01 1539.15 564.362 1544.91 Z" fill="#000000" fill-rule="nonzero" fill-opacity="1" /><path clip-path="url(#clip870)" d="M970.95 1532.02 L1000.63 1532.02 L1000.63 1535.95 L970.95 1535.95 L970.95 1532.02 Z" fill="#000000" fill-rule="nonzero" fill-opacity="1" /><path clip-path="url(#clip870)" d="M1011.53 1544.91 L1019.17 1544.91 L1019.17 1518.55 L1010.86 1520.21 L1010.86 1515.95 L1019.12 1514.29 L1023.8 1514.29 L1023.8 1544.91 L1031.44 1544.91 L1031.44 1548.85 L1011.53 1548.85 L1011.53 1544.91 Z" fill="#000000" fill-rule="nonzero" fill-opacity="1" /><path clip-path="url(#clip870)" d="M1451.76 1517.37 Q1448.15 1517.37 1446.32 1520.93 Q1444.52 1524.47 1444.52 1531.6 Q1444.52 1538.71 1446.32 1542.27 Q1448.15 1545.82 1451.76 1545.82 Q1455.4 1545.82 1457.2 1542.27 Q1459.03 1538.71 1459.03 1531.6 Q1459.03 1524.47 1457.2 1520.93 Q1455.4 1517.37 1451.76 1517.37 M1451.76 1513.66 Q1457.57 1513.66 1460.63 1518.27 Q1463.71 1522.85 1463.71 1531.6 Q1463.71 1540.33 1460.63 1544.94 Q1457.57 1549.52 1451.76 1549.52 Q1445.95 1549.52 1442.87 1544.94 Q1439.82 1540.33 1439.82 1531.6 Q1439.82 1522.85 1442.87 1518.27 Q1445.95 1513.66 1451.76 1513.66 Z" fill="#000000" fill-rule="nonzero" fill-opacity="1" /><path clip-path="url(#clip870)" d="M1892.71 1544.91 L1900.35 1544.91 L1900.35 1518.55 L1892.04 1520.21 L1892.04 1515.95 L1900.31 1514.29 L1904.98 1514.29 L1904.98 1544.91 L1912.62 1544.91 L1912.62 1548.85 L1892.71 1548.85 L1892.71 1544.91 Z" fill="#000000" fill-rule="nonzero" fill-opacity="1" /><polyline clip-path="url(#clip870)" style="stroke:#000000; stroke-linecap:round; stroke-linejoin:round; stroke-width:4; stroke-opacity:1; fill:none" points="147.478,1486.45 147.478,47.2441 "/>
<polyline clip-path="url(#clip870)" style="stroke:#000000; stroke-linecap:round; stroke-linejoin:round; stroke-width:4; stroke-opacity:1; fill:none" points="147.478,1167.58 166.376,1167.58 "/>
<polyline clip-path="url(#clip870)" style="stroke:#000000; stroke-linecap:round; stroke-linejoin:round; stroke-width:4; stroke-opacity:1; fill:none" points="147.478,842.208 166.376,842.208 "/>
<polyline clip-path="url(#clip870)" style="stroke:#000000; stroke-linecap:round; stroke-linejoin:round; stroke-width:4; stroke-opacity:1; fill:none" points="147.478,516.84 166.376,516.84 "/>
<polyline clip-path="url(#clip870)" style="stroke:#000000; stroke-linecap:round; stroke-linejoin:round; stroke-width:4; stroke-opacity:1; fill:none" points="147.478,191.471 166.376,191.471 "/>
<path clip-path="url(#clip870)" d="M50.9921 1168.03 L80.6679 1168.03 L80.6679 1171.96 L50.9921 1171.96 L50.9921 1168.03 Z" fill="#000000" fill-rule="nonzero" fill-opacity="1" /><path clip-path="url(#clip870)" d="M91.5706 1180.92 L99.2095 1180.92 L99.2095 1154.56 L90.8993 1156.22 L90.8993 1151.96 L99.1632 1150.3 L103.839 1150.3 L103.839 1180.92 L111.478 1180.92 L111.478 1184.86 L91.5706 1184.86 L91.5706 1180.92 Z" fill="#000000" fill-rule="nonzero" fill-opacity="1" /><path clip-path="url(#clip870)" d="M99.5335 828.006 Q95.9224 828.006 94.0937 831.571 Q92.2882 835.113 92.2882 842.243 Q92.2882 849.349 94.0937 852.914 Q95.9224 856.455 99.5335 856.455 Q103.168 856.455 104.973 852.914 Q106.802 849.349 106.802 842.243 Q106.802 835.113 104.973 831.571 Q103.168 828.006 99.5335 828.006 M99.5335 824.303 Q105.344 824.303 108.399 828.909 Q111.478 833.493 111.478 842.243 Q111.478 850.969 108.399 855.576 Q105.344 860.159 99.5335 860.159 Q93.7234 860.159 90.6447 855.576 Q87.5892 850.969 87.5892 842.243 Q87.5892 833.493 90.6447 828.909 Q93.7234 824.303 99.5335 824.303 Z" fill="#000000" fill-rule="nonzero" fill-opacity="1" /><path clip-path="url(#clip870)" d="M91.5706 530.184 L99.2095 530.184 L99.2095 503.819 L90.8993 505.485 L90.8993 501.226 L99.1632 499.56 L103.839 499.56 L103.839 530.184 L111.478 530.184 L111.478 534.12 L91.5706 534.12 L91.5706 530.184 Z" fill="#000000" fill-rule="nonzero" fill-opacity="1" /><path clip-path="url(#clip870)" d="M95.1586 204.816 L111.478 204.816 L111.478 208.751 L89.5336 208.751 L89.5336 204.816 Q92.1956 202.062 96.7789 197.432 Q101.385 192.779 102.566 191.437 Q104.811 188.913 105.691 187.177 Q106.594 185.418 106.594 183.728 Q106.594 180.974 104.649 179.238 Q102.728 177.502 99.6261 177.502 Q97.4271 177.502 94.9734 178.265 Q92.5428 179.029 89.7651 180.58 L89.7651 175.858 Q92.5891 174.724 95.0428 174.145 Q97.4965 173.566 99.5335 173.566 Q104.904 173.566 108.098 176.252 Q111.293 178.937 111.293 183.427 Q111.293 185.557 110.483 187.478 Q109.696 189.376 107.589 191.969 Q107.01 192.64 103.909 195.858 Q100.807 199.052 95.1586 204.816 Z" fill="#000000" fill-rule="nonzero" fill-opacity="1" /><circle clip-path="url(#clip871)" cx="2290.34" cy="761.514" r="14.4" fill="#009af9" fill-rule="evenodd" fill-opacity="0.5" stroke="#000000" stroke-opacity="0.5" stroke-width="3.2"/>
<circle clip-path="url(#clip871)" cx="2163.55" cy="958.276" r="14.4" fill="#009af9" fill-rule="evenodd" fill-opacity="0.5" stroke="#000000" stroke-opacity="0.5" stroke-width="3.2"/>
<circle clip-path="url(#clip871)" cx="1096.59" cy="1091.32" r="14.4" fill="#009af9" fill-rule="evenodd" fill-opacity="0.5" stroke="#000000" stroke-opacity="0.5" stroke-width="3.2"/>
<circle clip-path="url(#clip871)" cx="2128.94" cy="488.788" r="14.4" fill="#009af9" fill-rule="evenodd" fill-opacity="0.5" stroke="#000000" stroke-opacity="0.5" stroke-width="3.2"/>
<circle clip-path="url(#clip871)" cx="1291.49" cy="836.505" r="14.4" fill="#009af9" fill-rule="evenodd" fill-opacity="0.5" stroke="#000000" stroke-opacity="0.5" stroke-width="3.2"/>
<circle clip-path="url(#clip871)" cx="1336.47" cy="1445.72" r="14.4" fill="#009af9" fill-rule="evenodd" fill-opacity="0.5" stroke="#000000" stroke-opacity="0.5" stroke-width="3.2"/>
<circle clip-path="url(#clip871)" cx="1854.36" cy="268.685" r="14.4" fill="#009af9" fill-rule="evenodd" fill-opacity="0.5" stroke="#000000" stroke-opacity="0.5" stroke-width="3.2"/>
<circle clip-path="url(#clip871)" cx="1019.78" cy="850.922" r="14.4" fill="#009af9" fill-rule="evenodd" fill-opacity="0.5" stroke="#000000" stroke-opacity="0.5" stroke-width="3.2"/>
<circle clip-path="url(#clip871)" cx="2031.15" cy="460.97" r="14.4" fill="#009af9" fill-rule="evenodd" fill-opacity="0.5" stroke="#000000" stroke-opacity="0.5" stroke-width="3.2"/>
<circle clip-path="url(#clip871)" cx="1534" cy="570.942" r="14.4" fill="#009af9" fill-rule="evenodd" fill-opacity="0.5" stroke="#000000" stroke-opacity="0.5" stroke-width="3.2"/>
<circle clip-path="url(#clip871)" cx="2230.42" cy="445.421" r="14.4" fill="#009af9" fill-rule="evenodd" fill-opacity="0.5" stroke="#000000" stroke-opacity="0.5" stroke-width="3.2"/>
<circle clip-path="url(#clip871)" cx="1097.97" cy="445.149" r="14.4" fill="#009af9" fill-rule="evenodd" fill-opacity="0.5" stroke="#000000" stroke-opacity="0.5" stroke-width="3.2"/>
<circle clip-path="url(#clip871)" cx="1150.02" cy="641.671" r="14.4" fill="#009af9" fill-rule="evenodd" fill-opacity="0.5" stroke="#000000" stroke-opacity="0.5" stroke-width="3.2"/>
<circle clip-path="url(#clip871)" cx="1632.54" cy="471.906" r="14.4" fill="#009af9" fill-rule="evenodd" fill-opacity="0.5" stroke="#000000" stroke-opacity="0.5" stroke-width="3.2"/>
<circle clip-path="url(#clip871)" cx="1096.83" cy="386.508" r="14.4" fill="#009af9" fill-rule="evenodd" fill-opacity="0.5" stroke="#000000" stroke-opacity="0.5" stroke-width="3.2"/>
<circle clip-path="url(#clip871)" cx="1016.66" cy="217.822" r="14.4" fill="#009af9" fill-rule="evenodd" fill-opacity="0.5" stroke="#000000" stroke-opacity="0.5" stroke-width="3.2"/>
<circle clip-path="url(#clip871)" cx="1334.65" cy="697.139" r="14.4" fill="#009af9" fill-rule="evenodd" fill-opacity="0.5" stroke="#000000" stroke-opacity="0.5" stroke-width="3.2"/>
<circle clip-path="url(#clip871)" cx="1462.95" cy="243.358" r="14.4" fill="#009af9" fill-rule="evenodd" fill-opacity="0.5" stroke="#000000" stroke-opacity="0.5" stroke-width="3.2"/>
<circle clip-path="url(#clip871)" cx="1451.69" cy="1131.03" r="14.4" fill="#009af9" fill-rule="evenodd" fill-opacity="0.5" stroke="#000000" stroke-opacity="0.5" stroke-width="3.2"/>
<circle clip-path="url(#clip871)" cx="2114.19" cy="857.686" r="14.4" fill="#009af9" fill-rule="evenodd" fill-opacity="0.5" stroke="#000000" stroke-opacity="0.5" stroke-width="3.2"/>
<circle clip-path="url(#clip871)" cx="1380.89" cy="109.478" r="14.4" fill="#009af9" fill-rule="evenodd" fill-opacity="0.5" stroke="#000000" stroke-opacity="0.5" stroke-width="3.2"/>
<circle clip-path="url(#clip871)" cx="1696.4" cy="824.948" r="14.4" fill="#009af9" fill-rule="evenodd" fill-opacity="0.5" stroke="#000000" stroke-opacity="0.5" stroke-width="3.2"/>
<circle clip-path="url(#clip871)" cx="1996.2" cy="1087.41" r="14.4" fill="#009af9" fill-rule="evenodd" fill-opacity="0.5" stroke="#000000" stroke-opacity="0.5" stroke-width="3.2"/>
<circle clip-path="url(#clip871)" cx="725.677" cy="87.9763" r="14.4" fill="#009af9" fill-rule="evenodd" fill-opacity="0.5" stroke="#000000" stroke-opacity="0.5" stroke-width="3.2"/>
<circle clip-path="url(#clip871)" cx="1071.71" cy="1271.11" r="14.4" fill="#009af9" fill-rule="evenodd" fill-opacity="0.5" stroke="#000000" stroke-opacity="0.5" stroke-width="3.2"/>
<circle clip-path="url(#clip871)" cx="1190.94" cy="479.496" r="14.4" fill="#009af9" fill-rule="evenodd" fill-opacity="0.5" stroke="#000000" stroke-opacity="0.5" stroke-width="3.2"/>
<circle clip-path="url(#clip871)" cx="1520.99" cy="999.806" r="14.4" fill="#009af9" fill-rule="evenodd" fill-opacity="0.5" stroke="#000000" stroke-opacity="0.5" stroke-width="3.2"/>
<circle clip-path="url(#clip871)" cx="1044.92" cy="715.742" r="14.4" fill="#009af9" fill-rule="evenodd" fill-opacity="0.5" stroke="#000000" stroke-opacity="0.5" stroke-width="3.2"/>
<circle clip-path="url(#clip871)" cx="1557.4" cy="839.325" r="14.4" fill="#009af9" fill-rule="evenodd" fill-opacity="0.5" stroke="#000000" stroke-opacity="0.5" stroke-width="3.2"/>
<circle clip-path="url(#clip871)" cx="209.891" cy="909.177" r="14.4" fill="#009af9" fill-rule="evenodd" fill-opacity="0.5" stroke="#000000" stroke-opacity="0.5" stroke-width="3.2"/>
<path clip-path="url(#clip871)" d="M209.891 909.177 L1336.47 1445.72 L1996.2 1087.41 L2163.55 958.276 L2290.34 761.514 L2230.42 445.421 L1854.36 268.685 L1380.89 109.478 L725.677 87.9763 L209.891 909.177 L209.891 909.177  Z" fill="#e26f46" fill-rule="evenodd" fill-opacity="0.2"/>
<polyline clip-path="url(#clip871)" style="stroke:#000000; stroke-linecap:round; stroke-linejoin:round; stroke-width:4; stroke-opacity:0.2; fill:none" points="209.891,909.177 1336.47,1445.72 1996.2,1087.41 2163.55,958.276 2290.34,761.514 2230.42,445.421 1854.36,268.685 1380.89,109.478 725.677,87.9763 209.891,909.177 "/>
</svg>
