<?xml version="1.0" encoding="utf-8"?>
<svg xmlns="http://www.w3.org/2000/svg" xmlns:xlink="http://www.w3.org/1999/xlink" width="600" height="400" viewBox="0 0 2400 1600">
<defs>
  <clipPath id="clip250">
    <rect x="0" y="0" width="2400" height="1600"/>
  </clipPath>
</defs>
<path clip-path="url(#clip250)" d="M0 1600 L2400 1600 L2400 0 L0 0  Z" fill="#ffffff" fill-rule="evenodd" fill-opacity="1"/>
<defs>
  <clipPath id="clip251">
    <rect x="480" y="0" width="1681" height="1600"/>
  </clipPath>
</defs>
<path clip-path="url(#clip250)" d="M193.936 1486.45 L2352.76 1486.45 L2352.76 47.2441 L193.936 47.2441  Z" fill="#ffffff" fill-rule="evenodd" fill-opacity="1"/>
<defs>
  <clipPath id="clip252">
    <rect x="193" y="47" width="2160" height="1440"/>
  </clipPath>
</defs>
<polyline clip-path="url(#clip252)" style="stroke:#000000; stroke-linecap:round; stroke-linejoin:round; stroke-width:2; stroke-opacity:0.1; fill:none" points="392.576,1486.45 392.576,47.2441 "/>
<polyline clip-path="url(#clip252)" style="stroke:#000000; stroke-linecap:round; stroke-linejoin:round; stroke-width:2; stroke-opacity:0.1; fill:none" points="855.213,1486.45 855.213,47.2441 "/>
<polyline clip-path="url(#clip252)" style="stroke:#000000; stroke-linecap:round; stroke-linejoin:round; stroke-width:2; stroke-opacity:0.1; fill:none" points="1317.85,1486.45 1317.85,47.2441 "/>
<polyline clip-path="url(#clip252)" style="stroke:#000000; stroke-linecap:round; stroke-linejoin:round; stroke-width:2; stroke-opacity:0.1; fill:none" points="1780.49,1486.45 1780.49,47.2441 "/>
<polyline clip-path="url(#clip252)" style="stroke:#000000; stroke-linecap:round; stroke-linejoin:round; stroke-width:2; stroke-opacity:0.1; fill:none" points="2243.12,1486.45 2243.12,47.2441 "/>
<polyline clip-path="url(#clip252)" style="stroke:#000000; stroke-linecap:round; stroke-linejoin:round; stroke-width:2; stroke-opacity:0.1; fill:none" points="193.936,1271.38 2352.76,1271.38 "/>
<polyline clip-path="url(#clip252)" style="stroke:#000000; stroke-linecap:round; stroke-linejoin:round; stroke-width:2; stroke-opacity:0.1; fill:none" points="193.936,1038.01 2352.76,1038.01 "/>
<polyline clip-path="url(#clip252)" style="stroke:#000000; stroke-linecap:round; stroke-linejoin:round; stroke-width:2; stroke-opacity:0.1; fill:none" points="193.936,804.629 2352.76,804.629 "/>
<polyline clip-path="url(#clip252)" style="stroke:#000000; stroke-linecap:round; stroke-linejoin:round; stroke-width:2; stroke-opacity:0.1; fill:none" points="193.936,571.252 2352.76,571.252 "/>
<polyline clip-path="url(#clip252)" style="stroke:#000000; stroke-linecap:round; stroke-linejoin:round; stroke-width:2; stroke-opacity:0.1; fill:none" points="193.936,337.875 2352.76,337.875 "/>
<polyline clip-path="url(#clip252)" style="stroke:#000000; stroke-linecap:round; stroke-linejoin:round; stroke-width:2; stroke-opacity:0.1; fill:none" points="193.936,104.498 2352.76,104.498 "/>
<polyline clip-path="url(#clip250)" style="stroke:#000000; stroke-linecap:round; stroke-linejoin:round; stroke-width:4; stroke-opacity:1; fill:none" points="193.936,1486.45 2352.76,1486.45 "/>
<polyline clip-path="url(#clip250)" style="stroke:#000000; stroke-linecap:round; stroke-linejoin:round; stroke-width:4; stroke-opacity:1; fill:none" points="392.576,1486.45 392.576,1467.55 "/>
<polyline clip-path="url(#clip250)" style="stroke:#000000; stroke-linecap:round; stroke-linejoin:round; stroke-width:4; stroke-opacity:1; fill:none" points="855.213,1486.45 855.213,1467.55 "/>
<polyline clip-path="url(#clip250)" style="stroke:#000000; stroke-linecap:round; stroke-linejoin:round; stroke-width:4; stroke-opacity:1; fill:none" points="1317.85,1486.45 1317.85,1467.55 "/>
<polyline clip-path="url(#clip250)" style="stroke:#000000; stroke-linecap:round; stroke-linejoin:round; stroke-width:4; stroke-opacity:1; fill:none" points="1780.49,1486.45 1780.49,1467.55 "/>
<polyline clip-path="url(#clip250)" style="stroke:#000000; stroke-linecap:round; stroke-linejoin:round; stroke-width:4; stroke-opacity:1; fill:none" points="2243.12,1486.45 2243.12,1467.55 "/>
<path clip-path="url(#clip250)" d="M362.518 1532.02 L392.194 1532.02 L392.194 1535.95 L362.518 1535.95 L362.518 1532.02 Z" fill="#000000" fill-rule="nonzero" fill-opacity="1" /><path clip-path="url(#clip250)" d="M406.314 1544.91 L422.633 1544.91 L422.633 1548.85 L400.689 1548.85 L400.689 1544.91 Q403.351 1542.16 407.934 1537.53 Q412.541 1532.88 413.721 1531.53 Q415.967 1529.01 416.846 1527.27 Q417.749 1525.51 417.749 1523.82 Q417.749 1521.07 415.805 1519.33 Q413.883 1517.6 410.782 1517.6 Q408.583 1517.6 406.129 1518.36 Q403.698 1519.13 400.921 1520.68 L400.921 1515.95 Q403.745 1514.82 406.198 1514.24 Q408.652 1513.66 410.689 1513.66 Q416.059 1513.66 419.254 1516.35 Q422.448 1519.03 422.448 1523.52 Q422.448 1525.65 421.638 1527.57 Q420.851 1529.47 418.745 1532.07 Q418.166 1532.74 415.064 1535.95 Q411.962 1539.15 406.314 1544.91 Z" fill="#000000" fill-rule="nonzero" fill-opacity="1" /><path clip-path="url(#clip250)" d="M824.97 1532.02 L854.646 1532.02 L854.646 1535.95 L824.97 1535.95 L824.97 1532.02 Z" fill="#000000" fill-rule="nonzero" fill-opacity="1" /><path clip-path="url(#clip250)" d="M865.548 1544.91 L873.187 1544.91 L873.187 1518.55 L864.877 1520.21 L864.877 1515.95 L873.141 1514.29 L877.817 1514.29 L877.817 1544.91 L885.456 1544.91 L885.456 1548.85 L865.548 1548.85 L865.548 1544.91 Z" fill="#000000" fill-rule="nonzero" fill-opacity="1" /><path clip-path="url(#clip250)" d="M1317.85 1517.37 Q1314.24 1517.37 1312.41 1520.93 Q1310.6 1524.47 1310.6 1531.6 Q1310.6 1538.71 1312.41 1542.27 Q1314.24 1545.82 1317.85 1545.82 Q1321.48 1545.82 1323.29 1542.27 Q1325.12 1538.71 1325.12 1531.6 Q1325.12 1524.47 1323.29 1520.93 Q1321.48 1517.37 1317.85 1517.37 M1317.85 1513.66 Q1323.66 1513.66 1326.72 1518.27 Q1329.79 1522.85 1329.79 1531.6 Q1329.79 1540.33 1326.72 1544.94 Q1323.66 1549.52 1317.85 1549.52 Q1312.04 1549.52 1308.96 1544.94 Q1305.91 1540.33 1305.91 1531.6 Q1305.91 1522.85 1308.96 1518.27 Q1312.04 1513.66 1317.85 1513.66 Z" fill="#000000" fill-rule="nonzero" fill-opacity="1" /><path clip-path="url(#clip250)" d="M1770.87 1544.91 L1778.51 1544.91 L1778.51 1518.55 L1770.2 1520.21 L1770.2 1515.95 L1778.46 1514.29 L1783.14 1514.29 L1783.14 1544.91 L1790.78 1544.91 L1790.78 1548.85 L1770.87 1548.85 L1770.87 1544.91 Z" fill="#000000" fill-rule="nonzero" fill-opacity="1" /><path clip-path="url(#clip250)" d="M2237.78 1544.91 L2254.1 1544.91 L2254.1 1548.85 L2232.15 1548.85 L2232.15 1544.91 Q2234.81 1542.16 2239.4 1537.53 Q2244 1532.88 2245.18 1531.53 Q2247.43 1529.01 2248.31 1527.27 Q2249.21 1525.51 2249.21 1523.82 Q2249.21 1521.07 2247.27 1519.33 Q2245.35 1517.6 2242.24 1517.6 Q2240.05 1517.6 2237.59 1518.36 Q2235.16 1519.13 2232.38 1520.68 L2232.38 1515.95 Q2235.21 1514.82 2237.66 1514.24 Q2240.11 1513.66 2242.15 1513.66 Q2247.52 1513.66 2250.72 1516.35 Q2253.91 1519.03 2253.91 1523.52 Q2253.91 1525.65 2253.1 1527.57 Q2252.31 1529.47 2250.21 1532.07 Q2249.63 1532.74 2246.53 1535.95 Q2243.42 1539.15 2237.78 1544.91 Z" fill="#000000" fill-rule="nonzero" fill-opacity="1" /><polyline clip-path="url(#clip250)" style="stroke:#000000; stroke-linecap:round; stroke-linejoin:round; stroke-width:4; stroke-opacity:1; fill:none" points="193.936,1486.45 193.936,47.2441 "/>
<polyline clip-path="url(#clip250)" style="stroke:#000000; stroke-linecap:round; stroke-linejoin:round; stroke-width:4; stroke-opacity:1; fill:none" points="193.936,1271.38 212.834,1271.38 "/>
<polyline clip-path="url(#clip250)" style="stroke:#000000; stroke-linecap:round; stroke-linejoin:round; stroke-width:4; stroke-opacity:1; fill:none" points="193.936,1038.01 212.834,1038.01 "/>
<polyline clip-path="url(#clip250)" style="stroke:#000000; stroke-linecap:round; stroke-linejoin:round; stroke-width:4; stroke-opacity:1; fill:none" points="193.936,804.629 212.834,804.629 "/>
<polyline clip-path="url(#clip250)" style="stroke:#000000; stroke-linecap:round; stroke-linejoin:round; stroke-width:4; stroke-opacity:1; fill:none" points="193.936,571.252 212.834,571.252 "/>
<polyline clip-path="url(#clip250)" style="stroke:#000000; stroke-linecap:round; stroke-linejoin:round; stroke-width:4; stroke-opacity:1; fill:none" points="193.936,337.875 212.834,337.875 "/>
<polyline clip-path="url(#clip250)" style="stroke:#000000; stroke-linecap:round; stroke-linejoin:round; stroke-width:4; stroke-opacity:1; fill:none" points="193.936,104.498 212.834,104.498 "/>
<path clip-path="url(#clip250)" d="M51.9875 1271.83 L81.6633 1271.83 L81.6633 1275.77 L51.9875 1275.77 L51.9875 1271.83 Z" fill="#000000" fill-rule="nonzero" fill-opacity="1" /><path clip-path="url(#clip250)" d="M92.566 1284.73 L100.205 1284.73 L100.205 1258.36 L91.8947 1260.03 L91.8947 1255.77 L100.159 1254.1 L104.834 1254.1 L104.834 1284.73 L112.473 1284.73 L112.473 1288.66 L92.566 1288.66 L92.566 1284.73 Z" fill="#000000" fill-rule="nonzero" fill-opacity="1" /><path clip-path="url(#clip250)" d="M121.918 1282.78 L126.802 1282.78 L126.802 1288.66 L121.918 1288.66 L121.918 1282.78 Z" fill="#000000" fill-rule="nonzero" fill-opacity="1" /><path clip-path="url(#clip250)" d="M137.033 1254.1 L155.39 1254.1 L155.39 1258.04 L141.316 1258.04 L141.316 1266.51 Q142.334 1266.16 143.353 1266 Q144.371 1265.82 145.39 1265.82 Q151.177 1265.82 154.556 1268.99 Q157.936 1272.16 157.936 1277.58 Q157.936 1283.15 154.464 1286.26 Q150.992 1289.33 144.672 1289.33 Q142.496 1289.33 140.228 1288.96 Q137.982 1288.59 135.575 1287.85 L135.575 1283.15 Q137.658 1284.29 139.881 1284.84 Q142.103 1285.4 144.58 1285.4 Q148.584 1285.4 150.922 1283.29 Q153.26 1281.19 153.26 1277.58 Q153.26 1273.96 150.922 1271.86 Q148.584 1269.75 144.58 1269.75 Q142.705 1269.75 140.83 1270.17 Q138.978 1270.58 137.033 1271.46 L137.033 1254.1 Z" fill="#000000" fill-rule="nonzero" fill-opacity="1" /><path clip-path="url(#clip250)" d="M50.9921 1038.46 L80.6679 1038.46 L80.6679 1042.39 L50.9921 1042.39 L50.9921 1038.46 Z" fill="#000000" fill-rule="nonzero" fill-opacity="1" /><path clip-path="url(#clip250)" d="M91.5706 1051.35 L99.2095 1051.35 L99.2095 1024.99 L90.8993 1026.65 L90.8993 1022.39 L99.1632 1020.73 L103.839 1020.73 L103.839 1051.35 L111.478 1051.35 L111.478 1055.29 L91.5706 1055.29 L91.5706 1051.35 Z" fill="#000000" fill-rule="nonzero" fill-opacity="1" /><path clip-path="url(#clip250)" d="M120.922 1049.41 L125.807 1049.41 L125.807 1055.29 L120.922 1055.29 L120.922 1049.41 Z" fill="#000000" fill-rule="nonzero" fill-opacity="1" /><path clip-path="url(#clip250)" d="M145.992 1023.8 Q142.381 1023.8 140.552 1027.37 Q138.746 1030.91 138.746 1038.04 Q138.746 1045.15 140.552 1048.71 Q142.381 1052.25 145.992 1052.25 Q149.626 1052.25 151.431 1048.71 Q153.26 1045.15 153.26 1038.04 Q153.26 1030.91 151.431 1027.37 Q149.626 1023.8 145.992 1023.8 M145.992 1020.1 Q151.802 1020.1 154.857 1024.71 Q157.936 1029.29 157.936 1038.04 Q157.936 1046.77 154.857 1051.37 Q151.802 1055.96 145.992 1055.96 Q140.181 1055.96 137.103 1051.37 Q134.047 1046.77 134.047 1038.04 Q134.047 1029.29 137.103 1024.71 Q140.181 1020.1 145.992 1020.1 Z" fill="#000000" fill-rule="nonzero" fill-opacity="1" /><path clip-path="url(#clip250)" d="M51.9875 805.081 L81.6633 805.081 L81.6633 809.016 L51.9875 809.016 L51.9875 805.081 Z" fill="#000000" fill-rule="nonzero" fill-opacity="1" /><path clip-path="url(#clip250)" d="M101.756 790.428 Q98.1447 790.428 96.316 793.993 Q94.5104 797.534 94.5104 804.664 Q94.5104 811.77 96.316 815.335 Q98.1447 818.877 101.756 818.877 Q105.39 818.877 107.196 815.335 Q109.024 811.77 109.024 804.664 Q109.024 797.534 107.196 793.993 Q105.39 790.428 101.756 790.428 M101.756 786.724 Q107.566 786.724 110.621 791.331 Q113.7 795.914 113.7 804.664 Q113.7 813.391 110.621 817.997 Q107.566 822.58 101.756 822.58 Q95.9456 822.58 92.8669 817.997 Q89.8114 813.391 89.8114 804.664 Q89.8114 795.914 92.8669 791.331 Q95.9456 786.724 101.756 786.724 Z" fill="#000000" fill-rule="nonzero" fill-opacity="1" /><path clip-path="url(#clip250)" d="M121.918 816.03 L126.802 816.03 L126.802 821.909 L121.918 821.909 L121.918 816.03 Z" fill="#000000" fill-rule="nonzero" fill-opacity="1" /><path clip-path="url(#clip250)" d="M137.033 787.349 L155.39 787.349 L155.39 791.284 L141.316 791.284 L141.316 799.756 Q142.334 799.409 143.353 799.247 Q144.371 799.062 145.39 799.062 Q151.177 799.062 154.556 802.233 Q157.936 805.405 157.936 810.821 Q157.936 816.4 154.464 819.502 Q150.992 822.58 144.672 822.58 Q142.496 822.58 140.228 822.21 Q137.982 821.84 135.575 821.099 L135.575 816.4 Q137.658 817.534 139.881 818.09 Q142.103 818.645 144.58 818.645 Q148.584 818.645 150.922 816.539 Q153.26 814.432 153.26 810.821 Q153.26 807.21 150.922 805.104 Q148.584 802.997 144.58 802.997 Q142.705 802.997 140.83 803.414 Q138.978 803.831 137.033 804.71 L137.033 787.349 Z" fill="#000000" fill-rule="nonzero" fill-opacity="1" /><path clip-path="url(#clip250)" d="M100.76 557.051 Q97.1493 557.051 95.3206 560.615 Q93.515 564.157 93.515 571.287 Q93.515 578.393 95.3206 581.958 Q97.1493 585.5 100.76 585.5 Q104.395 585.5 106.2 581.958 Q108.029 578.393 108.029 571.287 Q108.029 564.157 106.2 560.615 Q104.395 557.051 100.76 557.051 M100.76 553.347 Q106.571 553.347 109.626 557.953 Q112.705 562.537 112.705 571.287 Q112.705 580.014 109.626 584.62 Q106.571 589.203 100.76 589.203 Q94.9502 589.203 91.8715 584.62 Q88.816 580.014 88.816 571.287 Q88.816 562.537 91.8715 557.953 Q94.9502 553.347 100.76 553.347 Z" fill="#000000" fill-rule="nonzero" fill-opacity="1" /><path clip-path="url(#clip250)" d="M120.922 582.652 L125.807 582.652 L125.807 588.532 L120.922 588.532 L120.922 582.652 Z" fill="#000000" fill-rule="nonzero" fill-opacity="1" /><path clip-path="url(#clip250)" d="M145.992 557.051 Q142.381 557.051 140.552 560.615 Q138.746 564.157 138.746 571.287 Q138.746 578.393 140.552 581.958 Q142.381 585.5 145.992 585.5 Q149.626 585.5 151.431 581.958 Q153.26 578.393 153.26 571.287 Q153.26 564.157 151.431 560.615 Q149.626 557.051 145.992 557.051 M145.992 553.347 Q151.802 553.347 154.857 557.953 Q157.936 562.537 157.936 571.287 Q157.936 580.014 154.857 584.62 Q151.802 589.203 145.992 589.203 Q140.181 589.203 137.103 584.62 Q134.047 580.014 134.047 571.287 Q134.047 562.537 137.103 557.953 Q140.181 553.347 145.992 553.347 Z" fill="#000000" fill-rule="nonzero" fill-opacity="1" /><path clip-path="url(#clip250)" d="M101.756 323.674 Q98.1447 323.674 96.316 327.238 Q94.5104 330.78 94.5104 337.91 Q94.5104 345.016 96.316 348.581 Q98.1447 352.122 101.756 352.122 Q105.39 352.122 107.196 348.581 Q109.024 345.016 109.024 337.91 Q109.024 330.78 107.196 327.238 Q105.39 323.674 101.756 323.674 M101.756 319.97 Q107.566 319.97 110.621 324.576 Q113.7 329.16 113.7 337.91 Q113.7 346.636 110.621 351.243 Q107.566 355.826 101.756 355.826 Q95.9456 355.826 92.8669 351.243 Q89.8114 346.636 89.8114 337.91 Q89.8114 329.16 92.8669 324.576 Q95.9456 319.97 101.756 319.97 Z" fill="#000000" fill-rule="nonzero" fill-opacity="1" /><path clip-path="url(#clip250)" d="M121.918 349.275 L126.802 349.275 L126.802 355.155 L121.918 355.155 L121.918 349.275 Z" fill="#000000" fill-rule="nonzero" fill-opacity="1" /><path clip-path="url(#clip250)" d="M137.033 320.595 L155.39 320.595 L155.39 324.53 L141.316 324.53 L141.316 333.002 Q142.334 332.655 143.353 332.493 Q144.371 332.308 145.39 332.308 Q151.177 332.308 154.556 335.479 Q157.936 338.65 157.936 344.067 Q157.936 349.646 154.464 352.747 Q150.992 355.826 144.672 355.826 Q142.496 355.826 140.228 355.456 Q137.982 355.085 135.575 354.345 L135.575 349.646 Q137.658 350.78 139.881 351.335 Q142.103 351.891 144.58 351.891 Q148.584 351.891 150.922 349.785 Q153.26 347.678 153.26 344.067 Q153.26 340.456 150.922 338.349 Q148.584 336.243 144.58 336.243 Q142.705 336.243 140.83 336.66 Q138.978 337.076 137.033 337.956 L137.033 320.595 Z" fill="#000000" fill-rule="nonzero" fill-opacity="1" /><path clip-path="url(#clip250)" d="M91.5706 117.843 L99.2095 117.843 L99.2095 91.4769 L90.8993 93.1436 L90.8993 88.8844 L99.1632 87.2177 L103.839 87.2177 L103.839 117.843 L111.478 117.843 L111.478 121.778 L91.5706 121.778 L91.5706 117.843 Z" fill="#000000" fill-rule="nonzero" fill-opacity="1" /><path clip-path="url(#clip250)" d="M120.922 115.898 L125.807 115.898 L125.807 121.778 L120.922 121.778 L120.922 115.898 Z" fill="#000000" fill-rule="nonzero" fill-opacity="1" /><path clip-path="url(#clip250)" d="M145.992 90.2964 Q142.381 90.2964 140.552 93.8612 Q138.746 97.4028 138.746 104.532 Q138.746 111.639 140.552 115.204 Q142.381 118.745 145.992 118.745 Q149.626 118.745 151.431 115.204 Q153.26 111.639 153.26 104.532 Q153.26 97.4028 151.431 93.8612 Q149.626 90.2964 145.992 90.2964 M145.992 86.5927 Q151.802 86.5927 154.857 91.1992 Q157.936 95.7825 157.936 104.532 Q157.936 113.259 154.857 117.866 Q151.802 122.449 145.992 122.449 Q140.181 122.449 137.103 117.866 Q134.047 113.259 134.047 104.532 Q134.047 95.7825 137.103 91.1992 Q140.181 86.5927 145.992 86.5927 Z" fill="#000000" fill-rule="nonzero" fill-opacity="1" /><circle clip-path="url(#clip252)" cx="1772.64" cy="447.733" r="14.4" fill="#009af9" fill-rule="evenodd" fill-opacity="0.5" stroke="#000000" stroke-opacity="0.5" stroke-width="3.2"/>
<circle clip-path="url(#clip252)" cx="1716.49" cy="357.444" r="14.4" fill="#009af9" fill-rule="evenodd" fill-opacity="0.5" stroke="#000000" stroke-opacity="0.5" stroke-width="3.2"/>
<circle clip-path="url(#clip252)" cx="1291.69" cy="412.323" r="14.4" fill="#009af9" fill-rule="evenodd" fill-opacity="0.5" stroke="#000000" stroke-opacity="0.5" stroke-width="3.2"/>
<circle clip-path="url(#clip252)" cx="2291.66" cy="859.354" r="14.4" fill="#009af9" fill-rule="evenodd" fill-opacity="0.5" stroke="#000000" stroke-opacity="0.5" stroke-width="3.2"/>
<circle clip-path="url(#clip252)" cx="1471.93" cy="87.9763" r="14.4" fill="#009af9" fill-rule="evenodd" fill-opacity="0.5" stroke="#000000" stroke-opacity="0.5" stroke-width="3.2"/>
<circle clip-path="url(#clip252)" cx="1640.14" cy="752.269" r="14.4" fill="#009af9" fill-rule="evenodd" fill-opacity="0.5" stroke="#000000" stroke-opacity="0.5" stroke-width="3.2"/>
<circle clip-path="url(#clip252)" cx="1619.3" cy="659.697" r="14.4" fill="#009af9" fill-rule="evenodd" fill-opacity="0.5" stroke="#000000" stroke-opacity="0.5" stroke-width="3.2"/>
<circle clip-path="url(#clip252)" cx="255.035" cy="813.281" r="14.4" fill="#009af9" fill-rule="evenodd" fill-opacity="0.5" stroke="#000000" stroke-opacity="0.5" stroke-width="3.2"/>
<circle clip-path="url(#clip252)" cx="1347.83" cy="345.137" r="14.4" fill="#009af9" fill-rule="evenodd" fill-opacity="0.5" stroke="#000000" stroke-opacity="0.5" stroke-width="3.2"/>
<circle clip-path="url(#clip252)" cx="1939.79" cy="112.671" r="14.4" fill="#009af9" fill-rule="evenodd" fill-opacity="0.5" stroke="#000000" stroke-opacity="0.5" stroke-width="3.2"/>
<circle clip-path="url(#clip252)" cx="1312.45" cy="318.112" r="14.4" fill="#009af9" fill-rule="evenodd" fill-opacity="0.5" stroke="#000000" stroke-opacity="0.5" stroke-width="3.2"/>
<circle clip-path="url(#clip252)" cx="724.859" cy="1016.37" r="14.4" fill="#009af9" fill-rule="evenodd" fill-opacity="0.5" stroke="#000000" stroke-opacity="0.5" stroke-width="3.2"/>
<circle clip-path="url(#clip252)" cx="502.461" cy="1071.14" r="14.4" fill="#009af9" fill-rule="evenodd" fill-opacity="0.5" stroke="#000000" stroke-opacity="0.5" stroke-width="3.2"/>
<circle clip-path="url(#clip252)" cx="1705.48" cy="1139" r="14.4" fill="#009af9" fill-rule="evenodd" fill-opacity="0.5" stroke="#000000" stroke-opacity="0.5" stroke-width="3.2"/>
<circle clip-path="url(#clip252)" cx="1669.93" cy="153.647" r="14.4" fill="#009af9" fill-rule="evenodd" fill-opacity="0.5" stroke="#000000" stroke-opacity="0.5" stroke-width="3.2"/>
<circle clip-path="url(#clip252)" cx="1084.6" cy="519.441" r="14.4" fill="#009af9" fill-rule="evenodd" fill-opacity="0.5" stroke="#000000" stroke-opacity="0.5" stroke-width="3.2"/>
<circle clip-path="url(#clip252)" cx="1097.77" cy="377.916" r="14.4" fill="#009af9" fill-rule="evenodd" fill-opacity="0.5" stroke="#000000" stroke-opacity="0.5" stroke-width="3.2"/>
<circle clip-path="url(#clip252)" cx="1382.51" cy="529.269" r="14.4" fill="#009af9" fill-rule="evenodd" fill-opacity="0.5" stroke="#000000" stroke-opacity="0.5" stroke-width="3.2"/>
<circle clip-path="url(#clip252)" cx="2142.73" cy="1223.17" r="14.4" fill="#009af9" fill-rule="evenodd" fill-opacity="0.5" stroke="#000000" stroke-opacity="0.5" stroke-width="3.2"/>
<circle clip-path="url(#clip252)" cx="1465.01" cy="381.505" r="14.4" fill="#009af9" fill-rule="evenodd" fill-opacity="0.5" stroke="#000000" stroke-opacity="0.5" stroke-width="3.2"/>
<circle clip-path="url(#clip252)" cx="1650.09" cy="282.671" r="14.4" fill="#009af9" fill-rule="evenodd" fill-opacity="0.5" stroke="#000000" stroke-opacity="0.5" stroke-width="3.2"/>
<circle clip-path="url(#clip252)" cx="1284.43" cy="534.6" r="14.4" fill="#009af9" fill-rule="evenodd" fill-opacity="0.5" stroke="#000000" stroke-opacity="0.5" stroke-width="3.2"/>
<circle clip-path="url(#clip252)" cx="1791.55" cy="932.113" r="14.4" fill="#009af9" fill-rule="evenodd" fill-opacity="0.5" stroke="#000000" stroke-opacity="0.5" stroke-width="3.2"/>
<circle clip-path="url(#clip252)" cx="1524.49" cy="1313.98" r="14.4" fill="#009af9" fill-rule="evenodd" fill-opacity="0.5" stroke="#000000" stroke-opacity="0.5" stroke-width="3.2"/>
<circle clip-path="url(#clip252)" cx="1757.65" cy="848.994" r="14.4" fill="#009af9" fill-rule="evenodd" fill-opacity="0.5" stroke="#000000" stroke-opacity="0.5" stroke-width="3.2"/>
<circle clip-path="url(#clip252)" cx="1974.91" cy="1317.66" r="14.4" fill="#009af9" fill-rule="evenodd" fill-opacity="0.5" stroke="#000000" stroke-opacity="0.5" stroke-width="3.2"/>
<circle clip-path="url(#clip252)" cx="1153.7" cy="892.703" r="14.4" fill="#009af9" fill-rule="evenodd" fill-opacity="0.5" stroke="#000000" stroke-opacity="0.5" stroke-width="3.2"/>
<circle clip-path="url(#clip252)" cx="1417.22" cy="422.501" r="14.4" fill="#009af9" fill-rule="evenodd" fill-opacity="0.5" stroke="#000000" stroke-opacity="0.5" stroke-width="3.2"/>
<circle clip-path="url(#clip252)" cx="1064.8" cy="881.052" r="14.4" fill="#009af9" fill-rule="evenodd" fill-opacity="0.5" stroke="#000000" stroke-opacity="0.5" stroke-width="3.2"/>
<circle clip-path="url(#clip252)" cx="1346.65" cy="1445.72" r="14.4" fill="#009af9" fill-rule="evenodd" fill-opacity="0.5" stroke="#000000" stroke-opacity="0.5" stroke-width="3.2"/>
<path clip-path="url(#clip252)" d="M255.035 813.281 L502.461 1071.14 L1346.65 1445.72 L1974.91 1317.66 L2142.73 1223.17 L2291.66 859.354 L1939.79 112.671 L1471.93 87.9763 L255.035 813.281 L255.035 813.281  Z" fill="#e26f46" fill-rule="evenodd" fill-opacity="0.2"/>
<polyline clip-path="url(#clip252)" style="stroke:#000000; stroke-linecap:round; stroke-linejoin:round; stroke-width:4; stroke-opacity:0.2; fill:none" points="255.035,813.281 502.461,1071.14 1346.65,1445.72 1974.91,1317.66 2142.73,1223.17 2291.66,859.354 1939.79,112.671 1471.93,87.9763 255.035,813.281 "/>
</svg>
