<?xml version="1.0" encoding="utf-8"?>
<svg xmlns="http://www.w3.org/2000/svg" xmlns:xlink="http://www.w3.org/1999/xlink" width="600" height="400" viewBox="0 0 2400 1600">
<defs>
  <clipPath id="clip190">
    <rect x="0" y="0" width="2400" height="1600"/>
  </clipPath>
</defs>
<path clip-path="url(#clip190)" d="M0 1600 L2400 1600 L2400 0 L0 0  Z" fill="#ffffff" fill-rule="evenodd" fill-opacity="1"/>
<defs>
  <clipPath id="clip191">
    <rect x="480" y="0" width="1681" height="1600"/>
  </clipPath>
</defs>
<path clip-path="url(#clip190)" d="M193.936 1486.45 L2352.76 1486.45 L2352.76 47.2441 L193.936 47.2441  Z" fill="#ffffff" fill-rule="evenodd" fill-opacity="1"/>
<defs>
  <clipPath id="clip192">
    <rect x="193" y="47" width="2160" height="1440"/>
  </clipPath>
</defs>
<polyline clip-path="url(#clip192)" style="stroke:#000000; stroke-linecap:round; stroke-linejoin:round; stroke-width:2; stroke-opacity:0.1; fill:none" points="265.288,1486.45 265.288,47.2441 "/>
<polyline clip-path="url(#clip192)" style="stroke:#000000; stroke-linecap:round; stroke-linejoin:round; stroke-width:2; stroke-opacity:0.1; fill:none" points="607.692,1486.45 607.692,47.2441 "/>
<polyline clip-path="url(#clip192)" style="stroke:#000000; stroke-linecap:round; stroke-linejoin:round; stroke-width:2; stroke-opacity:0.1; fill:none" points="950.096,1486.45 950.096,47.2441 "/>
<polyline clip-path="url(#clip192)" style="stroke:#000000; stroke-linecap:round; stroke-linejoin:round; stroke-width:2; stroke-opacity:0.1; fill:none" points="1292.5,1486.45 1292.5,47.2441 "/>
<polyline clip-path="url(#clip192)" style="stroke:#000000; stroke-linecap:round; stroke-linejoin:round; stroke-width:2; stroke-opacity:0.1; fill:none" points="1634.9,1486.45 1634.9,47.2441 "/>
<polyline clip-path="url(#clip192)" style="stroke:#000000; stroke-linecap:round; stroke-linejoin:round; stroke-width:2; stroke-opacity:0.1; fill:none" points="1977.31,1486.45 1977.31,47.2441 "/>
<polyline clip-path="url(#clip192)" style="stroke:#000000; stroke-linecap:round; stroke-linejoin:round; stroke-width:2; stroke-opacity:0.1; fill:none" points="2319.71,1486.45 2319.71,47.2441 "/>
<polyline clip-path="url(#clip192)" style="stroke:#000000; stroke-linecap:round; stroke-linejoin:round; stroke-width:2; stroke-opacity:0.1; fill:none" points="193.936,1373.1 2352.76,1373.1 "/>
<polyline clip-path="url(#clip192)" style="stroke:#000000; stroke-linecap:round; stroke-linejoin:round; stroke-width:2; stroke-opacity:0.1; fill:none" points="193.936,1150.4 2352.76,1150.4 "/>
<polyline clip-path="url(#clip192)" style="stroke:#000000; stroke-linecap:round; stroke-linejoin:round; stroke-width:2; stroke-opacity:0.1; fill:none" points="193.936,927.688 2352.76,927.688 "/>
<polyline clip-path="url(#clip192)" style="stroke:#000000; stroke-linecap:round; stroke-linejoin:round; stroke-width:2; stroke-opacity:0.1; fill:none" points="193.936,704.98 2352.76,704.98 "/>
<polyline clip-path="url(#clip192)" style="stroke:#000000; stroke-linecap:round; stroke-linejoin:round; stroke-width:2; stroke-opacity:0.1; fill:none" points="193.936,482.272 2352.76,482.272 "/>
<polyline clip-path="url(#clip192)" style="stroke:#000000; stroke-linecap:round; stroke-linejoin:round; stroke-width:2; stroke-opacity:0.1; fill:none" points="193.936,259.564 2352.76,259.564 "/>
<polyline clip-path="url(#clip190)" style="stroke:#000000; stroke-linecap:round; stroke-linejoin:round; stroke-width:4; stroke-opacity:1; fill:none" points="193.936,1486.45 2352.76,1486.45 "/>
<polyline clip-path="url(#clip190)" style="stroke:#000000; stroke-linecap:round; stroke-linejoin:round; stroke-width:4; stroke-opacity:1; fill:none" points="265.288,1486.45 265.288,1467.55 "/>
<polyline clip-path="url(#clip190)" style="stroke:#000000; stroke-linecap:round; stroke-linejoin:round; stroke-width:4; stroke-opacity:1; fill:none" points="607.692,1486.45 607.692,1467.55 "/>
<polyline clip-path="url(#clip190)" style="stroke:#000000; stroke-linecap:round; stroke-linejoin:round; stroke-width:4; stroke-opacity:1; fill:none" points="950.096,1486.45 950.096,1467.55 "/>
<polyline clip-path="url(#clip190)" style="stroke:#000000; stroke-linecap:round; stroke-linejoin:round; stroke-width:4; stroke-opacity:1; fill:none" points="1292.5,1486.45 1292.5,1467.55 "/>
<polyline clip-path="url(#clip190)" style="stroke:#000000; stroke-linecap:round; stroke-linejoin:round; stroke-width:4; stroke-opacity:1; fill:none" points="1634.9,1486.45 1634.9,1467.55 "/>
<polyline clip-path="url(#clip190)" style="stroke:#000000; stroke-linecap:round; stroke-linejoin:round; stroke-width:4; stroke-opacity:1; fill:none" points="1977.31,1486.45 1977.31,1467.55 "/>
<polyline clip-path="url(#clip190)" style="stroke:#000000; stroke-linecap:round; stroke-linejoin:round; stroke-width:4; stroke-opacity:1; fill:none" points="2319.71,1486.45 2319.71,1467.55 "/>
<path clip-path="url(#clip190)" d="M212.314 1532.02 L241.989 1532.02 L241.989 1535.95 L212.314 1535.95 L212.314 1532.02 Z" fill="#000000" fill-rule="nonzero" fill-opacity="1" /><path clip-path="url(#clip190)" d="M252.892 1544.91 L260.531 1544.91 L260.531 1518.55 L252.221 1520.21 L252.221 1515.95 L260.485 1514.29 L265.16 1514.29 L265.16 1544.91 L272.799 1544.91 L272.799 1548.85 L252.892 1548.85 L252.892 1544.91 Z" fill="#000000" fill-rule="nonzero" fill-opacity="1" /><path clip-path="url(#clip190)" d="M282.244 1542.97 L287.128 1542.97 L287.128 1548.85 L282.244 1548.85 L282.244 1542.97 Z" fill="#000000" fill-rule="nonzero" fill-opacity="1" /><path clip-path="url(#clip190)" d="M297.359 1514.29 L315.716 1514.29 L315.716 1518.22 L301.642 1518.22 L301.642 1526.7 Q302.66 1526.35 303.679 1526.19 Q304.697 1526 305.716 1526 Q311.503 1526 314.882 1529.17 Q318.262 1532.34 318.262 1537.76 Q318.262 1543.34 314.79 1546.44 Q311.318 1549.52 304.998 1549.52 Q302.822 1549.52 300.554 1549.15 Q298.308 1548.78 295.901 1548.04 L295.901 1543.34 Q297.984 1544.47 300.207 1545.03 Q302.429 1545.58 304.906 1545.58 Q308.91 1545.58 311.248 1543.48 Q313.586 1541.37 313.586 1537.76 Q313.586 1534.15 311.248 1532.04 Q308.91 1529.94 304.906 1529.94 Q303.031 1529.94 301.156 1530.35 Q299.304 1530.77 297.359 1531.65 L297.359 1514.29 Z" fill="#000000" fill-rule="nonzero" fill-opacity="1" /><path clip-path="url(#clip190)" d="M554.22 1532.02 L583.896 1532.02 L583.896 1535.95 L554.22 1535.95 L554.22 1532.02 Z" fill="#000000" fill-rule="nonzero" fill-opacity="1" /><path clip-path="url(#clip190)" d="M594.798 1544.91 L602.437 1544.91 L602.437 1518.55 L594.127 1520.21 L594.127 1515.95 L602.391 1514.29 L607.067 1514.29 L607.067 1544.91 L614.706 1544.91 L614.706 1548.85 L594.798 1548.85 L594.798 1544.91 Z" fill="#000000" fill-rule="nonzero" fill-opacity="1" /><path clip-path="url(#clip190)" d="M624.15 1542.97 L629.034 1542.97 L629.034 1548.85 L624.15 1548.85 L624.15 1542.97 Z" fill="#000000" fill-rule="nonzero" fill-opacity="1" /><path clip-path="url(#clip190)" d="M649.219 1517.37 Q645.608 1517.37 643.78 1520.93 Q641.974 1524.47 641.974 1531.6 Q641.974 1538.71 643.78 1542.27 Q645.608 1545.82 649.219 1545.82 Q652.854 1545.82 654.659 1542.27 Q656.488 1538.71 656.488 1531.6 Q656.488 1524.47 654.659 1520.93 Q652.854 1517.37 649.219 1517.37 M649.219 1513.66 Q655.029 1513.66 658.085 1518.27 Q661.164 1522.85 661.164 1531.6 Q661.164 1540.33 658.085 1544.94 Q655.029 1549.52 649.219 1549.52 Q643.409 1549.52 640.33 1544.94 Q637.275 1540.33 637.275 1531.6 Q637.275 1522.85 640.33 1518.27 Q643.409 1513.66 649.219 1513.66 Z" fill="#000000" fill-rule="nonzero" fill-opacity="1" /><path clip-path="url(#clip190)" d="M897.121 1532.02 L926.797 1532.02 L926.797 1535.95 L897.121 1535.95 L897.121 1532.02 Z" fill="#000000" fill-rule="nonzero" fill-opacity="1" /><path clip-path="url(#clip190)" d="M946.89 1517.37 Q943.279 1517.37 941.45 1520.93 Q939.644 1524.47 939.644 1531.6 Q939.644 1538.71 941.45 1542.27 Q943.279 1545.82 946.89 1545.82 Q950.524 1545.82 952.329 1542.27 Q954.158 1538.71 954.158 1531.6 Q954.158 1524.47 952.329 1520.93 Q950.524 1517.37 946.89 1517.37 M946.89 1513.66 Q952.7 1513.66 955.755 1518.27 Q958.834 1522.85 958.834 1531.6 Q958.834 1540.33 955.755 1544.94 Q952.7 1549.52 946.89 1549.52 Q941.08 1549.52 938.001 1544.94 Q934.945 1540.33 934.945 1531.6 Q934.945 1522.85 938.001 1518.27 Q941.08 1513.66 946.89 1513.66 Z" fill="#000000" fill-rule="nonzero" fill-opacity="1" /><path clip-path="url(#clip190)" d="M967.052 1542.97 L971.936 1542.97 L971.936 1548.85 L967.052 1548.85 L967.052 1542.97 Z" fill="#000000" fill-rule="nonzero" fill-opacity="1" /><path clip-path="url(#clip190)" d="M982.167 1514.29 L1000.52 1514.29 L1000.52 1518.22 L986.45 1518.22 L986.45 1526.7 Q987.468 1526.35 988.487 1526.19 Q989.505 1526 990.524 1526 Q996.311 1526 999.69 1529.17 Q1003.07 1532.34 1003.07 1537.76 Q1003.07 1543.34 999.598 1546.44 Q996.126 1549.52 989.806 1549.52 Q987.63 1549.52 985.362 1549.15 Q983.116 1548.78 980.709 1548.04 L980.709 1543.34 Q982.792 1544.47 985.014 1545.03 Q987.237 1545.58 989.714 1545.58 Q993.718 1545.58 996.056 1543.48 Q998.394 1541.37 998.394 1537.76 Q998.394 1534.15 996.056 1532.04 Q993.718 1529.94 989.714 1529.94 Q987.839 1529.94 985.964 1530.35 Q984.112 1530.77 982.167 1531.65 L982.167 1514.29 Z" fill="#000000" fill-rule="nonzero" fill-opacity="1" /><path clip-path="url(#clip190)" d="M1269.88 1517.37 Q1266.27 1517.37 1264.44 1520.93 Q1262.64 1524.47 1262.64 1531.6 Q1262.64 1538.71 1264.44 1542.27 Q1266.27 1545.82 1269.88 1545.82 Q1273.52 1545.82 1275.32 1542.27 Q1277.15 1538.71 1277.15 1531.6 Q1277.15 1524.47 1275.32 1520.93 Q1273.52 1517.37 1269.88 1517.37 M1269.88 1513.66 Q1275.69 1513.66 1278.75 1518.27 Q1281.83 1522.85 1281.83 1531.6 Q1281.83 1540.33 1278.75 1544.94 Q1275.69 1549.52 1269.88 1549.52 Q1264.07 1549.52 1261 1544.94 Q1257.94 1540.33 1257.94 1531.6 Q1257.94 1522.85 1261 1518.27 Q1264.07 1513.66 1269.88 1513.66 Z" fill="#000000" fill-rule="nonzero" fill-opacity="1" /><path clip-path="url(#clip190)" d="M1290.05 1542.97 L1294.93 1542.97 L1294.93 1548.85 L1290.05 1548.85 L1290.05 1542.97 Z" fill="#000000" fill-rule="nonzero" fill-opacity="1" /><path clip-path="url(#clip190)" d="M1315.12 1517.37 Q1311.5 1517.37 1309.68 1520.93 Q1307.87 1524.47 1307.87 1531.6 Q1307.87 1538.71 1309.68 1542.27 Q1311.5 1545.82 1315.12 1545.82 Q1318.75 1545.82 1320.56 1542.27 Q1322.38 1538.71 1322.38 1531.6 Q1322.38 1524.47 1320.56 1520.93 Q1318.75 1517.37 1315.12 1517.37 M1315.12 1513.66 Q1320.93 1513.66 1323.98 1518.27 Q1327.06 1522.85 1327.06 1531.6 Q1327.06 1540.33 1323.98 1544.94 Q1320.93 1549.52 1315.12 1549.52 Q1309.31 1549.52 1306.23 1544.94 Q1303.17 1540.33 1303.17 1531.6 Q1303.17 1522.85 1306.23 1518.27 Q1309.31 1513.66 1315.12 1513.66 Z" fill="#000000" fill-rule="nonzero" fill-opacity="1" /><path clip-path="url(#clip190)" d="M1612.79 1517.37 Q1609.17 1517.37 1607.35 1520.93 Q1605.54 1524.47 1605.54 1531.6 Q1605.54 1538.71 1607.35 1542.27 Q1609.17 1545.82 1612.79 1545.82 Q1616.42 1545.82 1618.23 1542.27 Q1620.05 1538.71 1620.05 1531.6 Q1620.05 1524.47 1618.23 1520.93 Q1616.42 1517.37 1612.79 1517.37 M1612.79 1513.66 Q1618.6 1513.66 1621.65 1518.27 Q1624.73 1522.85 1624.73 1531.6 Q1624.73 1540.33 1621.65 1544.94 Q1618.6 1549.52 1612.79 1549.52 Q1606.98 1549.52 1603.9 1544.94 Q1600.84 1540.33 1600.84 1531.6 Q1600.84 1522.85 1603.9 1518.27 Q1606.98 1513.66 1612.79 1513.66 Z" fill="#000000" fill-rule="nonzero" fill-opacity="1" /><path clip-path="url(#clip190)" d="M1632.95 1542.97 L1637.83 1542.97 L1637.83 1548.85 L1632.95 1548.85 L1632.95 1542.97 Z" fill="#000000" fill-rule="nonzero" fill-opacity="1" /><path clip-path="url(#clip190)" d="M1648.06 1514.29 L1666.42 1514.29 L1666.42 1518.22 L1652.35 1518.22 L1652.35 1526.7 Q1653.36 1526.35 1654.38 1526.19 Q1655.4 1526 1656.42 1526 Q1662.21 1526 1665.59 1529.17 Q1668.97 1532.34 1668.97 1537.76 Q1668.97 1543.34 1665.49 1546.44 Q1662.02 1549.52 1655.7 1549.52 Q1653.53 1549.52 1651.26 1549.15 Q1649.01 1548.78 1646.6 1548.04 L1646.6 1543.34 Q1648.69 1544.47 1650.91 1545.03 Q1653.13 1545.58 1655.61 1545.58 Q1659.61 1545.58 1661.95 1543.48 Q1664.29 1541.37 1664.29 1537.76 Q1664.29 1534.15 1661.95 1532.04 Q1659.61 1529.94 1655.61 1529.94 Q1653.73 1529.94 1651.86 1530.35 Q1650.01 1530.77 1648.06 1531.65 L1648.06 1514.29 Z" fill="#000000" fill-rule="nonzero" fill-opacity="1" /><path clip-path="url(#clip190)" d="M1944.46 1544.91 L1952.1 1544.91 L1952.1 1518.55 L1943.79 1520.21 L1943.79 1515.95 L1952.05 1514.29 L1956.73 1514.29 L1956.73 1544.91 L1964.37 1544.91 L1964.37 1548.85 L1944.46 1548.85 L1944.46 1544.91 Z" fill="#000000" fill-rule="nonzero" fill-opacity="1" /><path clip-path="url(#clip190)" d="M1973.81 1542.97 L1978.7 1542.97 L1978.7 1548.85 L1973.81 1548.85 L1973.81 1542.97 Z" fill="#000000" fill-rule="nonzero" fill-opacity="1" /><path clip-path="url(#clip190)" d="M1998.88 1517.37 Q1995.27 1517.37 1993.44 1520.93 Q1991.64 1524.47 1991.64 1531.6 Q1991.64 1538.71 1993.44 1542.27 Q1995.27 1545.82 1998.88 1545.82 Q2002.52 1545.82 2004.32 1542.27 Q2006.15 1538.71 2006.15 1531.6 Q2006.15 1524.47 2004.32 1520.93 Q2002.52 1517.37 1998.88 1517.37 M1998.88 1513.66 Q2004.69 1513.66 2007.75 1518.27 Q2010.83 1522.85 2010.83 1531.6 Q2010.83 1540.33 2007.75 1544.94 Q2004.69 1549.52 1998.88 1549.52 Q1993.07 1549.52 1989.99 1544.94 Q1986.94 1540.33 1986.94 1531.6 Q1986.94 1522.85 1989.99 1518.27 Q1993.07 1513.66 1998.88 1513.66 Z" fill="#000000" fill-rule="nonzero" fill-opacity="1" /><path clip-path="url(#clip190)" d="M2287.36 1544.91 L2295 1544.91 L2295 1518.55 L2286.69 1520.21 L2286.69 1515.95 L2294.95 1514.29 L2299.63 1514.29 L2299.63 1544.91 L2307.27 1544.91 L2307.27 1548.85 L2287.36 1548.85 L2287.36 1544.91 Z" fill="#000000" fill-rule="nonzero" fill-opacity="1" /><path clip-path="url(#clip190)" d="M2316.71 1542.97 L2321.6 1542.97 L2321.6 1548.85 L2316.71 1548.85 L2316.71 1542.97 Z" fill="#000000" fill-rule="nonzero" fill-opacity="1" /><path clip-path="url(#clip190)" d="M2331.83 1514.29 L2350.19 1514.29 L2350.19 1518.22 L2336.11 1518.22 L2336.11 1526.7 Q2337.13 1526.35 2338.15 1526.19 Q2339.17 1526 2340.19 1526 Q2345.97 1526 2349.35 1529.17 Q2352.73 1532.34 2352.73 1537.76 Q2352.73 1543.34 2349.26 1546.44 Q2345.79 1549.52 2339.47 1549.52 Q2337.29 1549.52 2335.02 1549.15 Q2332.78 1548.78 2330.37 1548.04 L2330.37 1543.34 Q2332.45 1544.47 2334.68 1545.03 Q2336.9 1545.58 2339.38 1545.58 Q2343.38 1545.58 2345.72 1543.48 Q2348.06 1541.37 2348.06 1537.76 Q2348.06 1534.15 2345.72 1532.04 Q2343.38 1529.94 2339.38 1529.94 Q2337.5 1529.94 2335.63 1530.35 Q2333.77 1530.77 2331.83 1531.65 L2331.83 1514.29 Z" fill="#000000" fill-rule="nonzero" fill-opacity="1" /><polyline clip-path="url(#clip190)" style="stroke:#000000; stroke-linecap:round; stroke-linejoin:round; stroke-width:4; stroke-opacity:1; fill:none" points="193.936,1486.45 193.936,47.2441 "/>
<polyline clip-path="url(#clip190)" style="stroke:#000000; stroke-linecap:round; stroke-linejoin:round; stroke-width:4; stroke-opacity:1; fill:none" points="193.936,1373.1 212.834,1373.1 "/>
<polyline clip-path="url(#clip190)" style="stroke:#000000; stroke-linecap:round; stroke-linejoin:round; stroke-width:4; stroke-opacity:1; fill:none" points="193.936,1150.4 212.834,1150.4 "/>
<polyline clip-path="url(#clip190)" style="stroke:#000000; stroke-linecap:round; stroke-linejoin:round; stroke-width:4; stroke-opacity:1; fill:none" points="193.936,927.688 212.834,927.688 "/>
<polyline clip-path="url(#clip190)" style="stroke:#000000; stroke-linecap:round; stroke-linejoin:round; stroke-width:4; stroke-opacity:1; fill:none" points="193.936,704.98 212.834,704.98 "/>
<polyline clip-path="url(#clip190)" style="stroke:#000000; stroke-linecap:round; stroke-linejoin:round; stroke-width:4; stroke-opacity:1; fill:none" points="193.936,482.272 212.834,482.272 "/>
<polyline clip-path="url(#clip190)" style="stroke:#000000; stroke-linecap:round; stroke-linejoin:round; stroke-width:4; stroke-opacity:1; fill:none" points="193.936,259.564 212.834,259.564 "/>
<path clip-path="url(#clip190)" d="M51.9875 1373.56 L81.6633 1373.56 L81.6633 1377.49 L51.9875 1377.49 L51.9875 1373.56 Z" fill="#000000" fill-rule="nonzero" fill-opacity="1" /><path clip-path="url(#clip190)" d="M92.566 1386.45 L100.205 1386.45 L100.205 1360.08 L91.8947 1361.75 L91.8947 1357.49 L100.159 1355.82 L104.834 1355.82 L104.834 1386.45 L112.473 1386.45 L112.473 1390.38 L92.566 1390.38 L92.566 1386.45 Z" fill="#000000" fill-rule="nonzero" fill-opacity="1" /><path clip-path="url(#clip190)" d="M121.918 1384.5 L126.802 1384.5 L126.802 1390.38 L121.918 1390.38 L121.918 1384.5 Z" fill="#000000" fill-rule="nonzero" fill-opacity="1" /><path clip-path="url(#clip190)" d="M137.033 1355.82 L155.39 1355.82 L155.39 1359.76 L141.316 1359.76 L141.316 1368.23 Q142.334 1367.88 143.353 1367.72 Q144.371 1367.54 145.39 1367.54 Q151.177 1367.54 154.556 1370.71 Q157.936 1373.88 157.936 1379.3 Q157.936 1384.88 154.464 1387.98 Q150.992 1391.06 144.672 1391.06 Q142.496 1391.06 140.228 1390.69 Q137.982 1390.31 135.575 1389.57 L135.575 1384.88 Q137.658 1386.01 139.881 1386.56 Q142.103 1387.12 144.58 1387.12 Q148.584 1387.12 150.922 1385.01 Q153.26 1382.91 153.26 1379.3 Q153.26 1375.69 150.922 1373.58 Q148.584 1371.47 144.58 1371.47 Q142.705 1371.47 140.83 1371.89 Q138.978 1372.31 137.033 1373.19 L137.033 1355.82 Z" fill="#000000" fill-rule="nonzero" fill-opacity="1" /><path clip-path="url(#clip190)" d="M50.9921 1150.85 L80.6679 1150.85 L80.6679 1154.78 L50.9921 1154.78 L50.9921 1150.85 Z" fill="#000000" fill-rule="nonzero" fill-opacity="1" /><path clip-path="url(#clip190)" d="M91.5706 1163.74 L99.2095 1163.74 L99.2095 1137.38 L90.8993 1139.04 L90.8993 1134.78 L99.1632 1133.12 L103.839 1133.12 L103.839 1163.74 L111.478 1163.74 L111.478 1167.68 L91.5706 1167.68 L91.5706 1163.74 Z" fill="#000000" fill-rule="nonzero" fill-opacity="1" /><path clip-path="url(#clip190)" d="M120.922 1161.8 L125.807 1161.8 L125.807 1167.68 L120.922 1167.68 L120.922 1161.8 Z" fill="#000000" fill-rule="nonzero" fill-opacity="1" /><path clip-path="url(#clip190)" d="M145.992 1136.19 Q142.381 1136.19 140.552 1139.76 Q138.746 1143.3 138.746 1150.43 Q138.746 1157.54 140.552 1161.1 Q142.381 1164.64 145.992 1164.64 Q149.626 1164.64 151.431 1161.1 Q153.26 1157.54 153.26 1150.43 Q153.26 1143.3 151.431 1139.76 Q149.626 1136.19 145.992 1136.19 M145.992 1132.49 Q151.802 1132.49 154.857 1137.1 Q157.936 1141.68 157.936 1150.43 Q157.936 1159.16 154.857 1163.76 Q151.802 1168.35 145.992 1168.35 Q140.181 1168.35 137.103 1163.76 Q134.047 1159.16 134.047 1150.43 Q134.047 1141.68 137.103 1137.1 Q140.181 1132.49 145.992 1132.49 Z" fill="#000000" fill-rule="nonzero" fill-opacity="1" /><path clip-path="url(#clip190)" d="M51.9875 928.139 L81.6633 928.139 L81.6633 932.075 L51.9875 932.075 L51.9875 928.139 Z" fill="#000000" fill-rule="nonzero" fill-opacity="1" /><path clip-path="url(#clip190)" d="M101.756 913.487 Q98.1447 913.487 96.316 917.052 Q94.5104 920.593 94.5104 927.723 Q94.5104 934.829 96.316 938.394 Q98.1447 941.936 101.756 941.936 Q105.39 941.936 107.196 938.394 Q109.024 934.829 109.024 927.723 Q109.024 920.593 107.196 917.052 Q105.39 913.487 101.756 913.487 M101.756 909.783 Q107.566 909.783 110.621 914.39 Q113.7 918.973 113.7 927.723 Q113.7 936.45 110.621 941.056 Q107.566 945.639 101.756 945.639 Q95.9456 945.639 92.8669 941.056 Q89.8114 936.45 89.8114 927.723 Q89.8114 918.973 92.8669 914.39 Q95.9456 909.783 101.756 909.783 Z" fill="#000000" fill-rule="nonzero" fill-opacity="1" /><path clip-path="url(#clip190)" d="M121.918 939.088 L126.802 939.088 L126.802 944.968 L121.918 944.968 L121.918 939.088 Z" fill="#000000" fill-rule="nonzero" fill-opacity="1" /><path clip-path="url(#clip190)" d="M137.033 910.408 L155.39 910.408 L155.39 914.343 L141.316 914.343 L141.316 922.815 Q142.334 922.468 143.353 922.306 Q144.371 922.121 145.39 922.121 Q151.177 922.121 154.556 925.292 Q157.936 928.464 157.936 933.88 Q157.936 939.459 154.464 942.561 Q150.992 945.639 144.672 945.639 Q142.496 945.639 140.228 945.269 Q137.982 944.899 135.575 944.158 L135.575 939.459 Q137.658 940.593 139.881 941.149 Q142.103 941.704 144.58 941.704 Q148.584 941.704 150.922 939.598 Q153.26 937.491 153.26 933.88 Q153.26 930.269 150.922 928.163 Q148.584 926.056 144.58 926.056 Q142.705 926.056 140.83 926.473 Q138.978 926.889 137.033 927.769 L137.033 910.408 Z" fill="#000000" fill-rule="nonzero" fill-opacity="1" /><path clip-path="url(#clip190)" d="M100.76 690.779 Q97.1493 690.779 95.3206 694.343 Q93.515 697.885 93.515 705.015 Q93.515 712.121 95.3206 715.686 Q97.1493 719.228 100.76 719.228 Q104.395 719.228 106.2 715.686 Q108.029 712.121 108.029 705.015 Q108.029 697.885 106.2 694.343 Q104.395 690.779 100.76 690.779 M100.76 687.075 Q106.571 687.075 109.626 691.681 Q112.705 696.265 112.705 705.015 Q112.705 713.741 109.626 718.348 Q106.571 722.931 100.76 722.931 Q94.9502 722.931 91.8715 718.348 Q88.816 713.741 88.816 705.015 Q88.816 696.265 91.8715 691.681 Q94.9502 687.075 100.76 687.075 Z" fill="#000000" fill-rule="nonzero" fill-opacity="1" /><path clip-path="url(#clip190)" d="M120.922 716.38 L125.807 716.38 L125.807 722.26 L120.922 722.26 L120.922 716.38 Z" fill="#000000" fill-rule="nonzero" fill-opacity="1" /><path clip-path="url(#clip190)" d="M145.992 690.779 Q142.381 690.779 140.552 694.343 Q138.746 697.885 138.746 705.015 Q138.746 712.121 140.552 715.686 Q142.381 719.228 145.992 719.228 Q149.626 719.228 151.431 715.686 Q153.26 712.121 153.26 705.015 Q153.26 697.885 151.431 694.343 Q149.626 690.779 145.992 690.779 M145.992 687.075 Q151.802 687.075 154.857 691.681 Q157.936 696.265 157.936 705.015 Q157.936 713.741 154.857 718.348 Q151.802 722.931 145.992 722.931 Q140.181 722.931 137.103 718.348 Q134.047 713.741 134.047 705.015 Q134.047 696.265 137.103 691.681 Q140.181 687.075 145.992 687.075 Z" fill="#000000" fill-rule="nonzero" fill-opacity="1" /><path clip-path="url(#clip190)" d="M101.756 468.07 Q98.1447 468.07 96.316 471.635 Q94.5104 475.177 94.5104 482.306 Q94.5104 489.413 96.316 492.978 Q98.1447 496.519 101.756 496.519 Q105.39 496.519 107.196 492.978 Q109.024 489.413 109.024 482.306 Q109.024 475.177 107.196 471.635 Q105.39 468.07 101.756 468.07 M101.756 464.367 Q107.566 464.367 110.621 468.973 Q113.7 473.557 113.7 482.306 Q113.7 491.033 110.621 495.64 Q107.566 500.223 101.756 500.223 Q95.9456 500.223 92.8669 495.64 Q89.8114 491.033 89.8114 482.306 Q89.8114 473.557 92.8669 468.973 Q95.9456 464.367 101.756 464.367 Z" fill="#000000" fill-rule="nonzero" fill-opacity="1" /><path clip-path="url(#clip190)" d="M121.918 493.672 L126.802 493.672 L126.802 499.552 L121.918 499.552 L121.918 493.672 Z" fill="#000000" fill-rule="nonzero" fill-opacity="1" /><path clip-path="url(#clip190)" d="M137.033 464.992 L155.39 464.992 L155.39 468.927 L141.316 468.927 L141.316 477.399 Q142.334 477.052 143.353 476.89 Q144.371 476.705 145.39 476.705 Q151.177 476.705 154.556 479.876 Q157.936 483.047 157.936 488.464 Q157.936 494.043 154.464 497.144 Q150.992 500.223 144.672 500.223 Q142.496 500.223 140.228 499.853 Q137.982 499.482 135.575 498.742 L135.575 494.043 Q137.658 495.177 139.881 495.732 Q142.103 496.288 144.58 496.288 Q148.584 496.288 150.922 494.181 Q153.26 492.075 153.26 488.464 Q153.26 484.853 150.922 482.746 Q148.584 480.64 144.58 480.64 Q142.705 480.64 140.83 481.056 Q138.978 481.473 137.033 482.353 L137.033 464.992 Z" fill="#000000" fill-rule="nonzero" fill-opacity="1" /><path clip-path="url(#clip190)" d="M91.5706 272.908 L99.2095 272.908 L99.2095 246.543 L90.8993 248.209 L90.8993 243.95 L99.1632 242.284 L103.839 242.284 L103.839 272.908 L111.478 272.908 L111.478 276.844 L91.5706 276.844 L91.5706 272.908 Z" fill="#000000" fill-rule="nonzero" fill-opacity="1" /><path clip-path="url(#clip190)" d="M120.922 270.964 L125.807 270.964 L125.807 276.844 L120.922 276.844 L120.922 270.964 Z" fill="#000000" fill-rule="nonzero" fill-opacity="1" /><path clip-path="url(#clip190)" d="M145.992 245.362 Q142.381 245.362 140.552 248.927 Q138.746 252.469 138.746 259.598 Q138.746 266.705 140.552 270.27 Q142.381 273.811 145.992 273.811 Q149.626 273.811 151.431 270.27 Q153.26 266.705 153.26 259.598 Q153.26 252.469 151.431 248.927 Q149.626 245.362 145.992 245.362 M145.992 241.659 Q151.802 241.659 154.857 246.265 Q157.936 250.848 157.936 259.598 Q157.936 268.325 154.857 272.932 Q151.802 277.515 145.992 277.515 Q140.181 277.515 137.103 272.932 Q134.047 268.325 134.047 259.598 Q134.047 250.848 137.103 246.265 Q140.181 241.659 145.992 241.659 Z" fill="#000000" fill-rule="nonzero" fill-opacity="1" /><circle clip-path="url(#clip192)" cx="894.093" cy="780.104" r="14.4" fill="#009af9" fill-rule="evenodd" fill-opacity="0.5" stroke="#000000" stroke-opacity="0.5" stroke-width="3.2"/>
<circle clip-path="url(#clip192)" cx="837.061" cy="239.498" r="14.4" fill="#009af9" fill-rule="evenodd" fill-opacity="0.5" stroke="#000000" stroke-opacity="0.5" stroke-width="3.2"/>
<circle clip-path="url(#clip192)" cx="1822.85" cy="1445.72" r="14.4" fill="#009af9" fill-rule="evenodd" fill-opacity="0.5" stroke="#000000" stroke-opacity="0.5" stroke-width="3.2"/>
<circle clip-path="url(#clip192)" cx="880.604" cy="1125.21" r="14.4" fill="#009af9" fill-rule="evenodd" fill-opacity="0.5" stroke="#000000" stroke-opacity="0.5" stroke-width="3.2"/>
<circle clip-path="url(#clip192)" cx="459.43" cy="526.156" r="14.4" fill="#009af9" fill-rule="evenodd" fill-opacity="0.5" stroke="#000000" stroke-opacity="0.5" stroke-width="3.2"/>
<circle clip-path="url(#clip192)" cx="677.601" cy="1124.83" r="14.4" fill="#009af9" fill-rule="evenodd" fill-opacity="0.5" stroke="#000000" stroke-opacity="0.5" stroke-width="3.2"/>
<circle clip-path="url(#clip192)" cx="848.361" cy="1277.49" r="14.4" fill="#009af9" fill-rule="evenodd" fill-opacity="0.5" stroke="#000000" stroke-opacity="0.5" stroke-width="3.2"/>
<circle clip-path="url(#clip192)" cx="1362.9" cy="871.593" r="14.4" fill="#009af9" fill-rule="evenodd" fill-opacity="0.5" stroke="#000000" stroke-opacity="0.5" stroke-width="3.2"/>
<circle clip-path="url(#clip192)" cx="696.906" cy="576.668" r="14.4" fill="#009af9" fill-rule="evenodd" fill-opacity="0.5" stroke="#000000" stroke-opacity="0.5" stroke-width="3.2"/>
<circle clip-path="url(#clip192)" cx="581.332" cy="579.051" r="14.4" fill="#009af9" fill-rule="evenodd" fill-opacity="0.5" stroke="#000000" stroke-opacity="0.5" stroke-width="3.2"/>
<circle clip-path="url(#clip192)" cx="522.895" cy="635.432" r="14.4" fill="#009af9" fill-rule="evenodd" fill-opacity="0.5" stroke="#000000" stroke-opacity="0.5" stroke-width="3.2"/>
<circle clip-path="url(#clip192)" cx="2150.49" cy="1021.3" r="14.4" fill="#009af9" fill-rule="evenodd" fill-opacity="0.5" stroke="#000000" stroke-opacity="0.5" stroke-width="3.2"/>
<circle clip-path="url(#clip192)" cx="812.322" cy="122.672" r="14.4" fill="#009af9" fill-rule="evenodd" fill-opacity="0.5" stroke="#000000" stroke-opacity="0.5" stroke-width="3.2"/>
<circle clip-path="url(#clip192)" cx="255.035" cy="835.036" r="14.4" fill="#009af9" fill-rule="evenodd" fill-opacity="0.5" stroke="#000000" stroke-opacity="0.5" stroke-width="3.2"/>
<circle clip-path="url(#clip192)" cx="2291.66" cy="1305" r="14.4" fill="#009af9" fill-rule="evenodd" fill-opacity="0.5" stroke="#000000" stroke-opacity="0.5" stroke-width="3.2"/>
<circle clip-path="url(#clip192)" cx="1977.12" cy="1289.75" r="14.4" fill="#009af9" fill-rule="evenodd" fill-opacity="0.5" stroke="#000000" stroke-opacity="0.5" stroke-width="3.2"/>
<circle clip-path="url(#clip192)" cx="1723.01" cy="603.585" r="14.4" fill="#009af9" fill-rule="evenodd" fill-opacity="0.5" stroke="#000000" stroke-opacity="0.5" stroke-width="3.2"/>
<circle clip-path="url(#clip192)" cx="526.776" cy="553.853" r="14.4" fill="#009af9" fill-rule="evenodd" fill-opacity="0.5" stroke="#000000" stroke-opacity="0.5" stroke-width="3.2"/>
<circle clip-path="url(#clip192)" cx="2028.27" cy="172.255" r="14.4" fill="#009af9" fill-rule="evenodd" fill-opacity="0.5" stroke="#000000" stroke-opacity="0.5" stroke-width="3.2"/>
<circle clip-path="url(#clip192)" cx="1090.71" cy="272.326" r="14.4" fill="#009af9" fill-rule="evenodd" fill-opacity="0.5" stroke="#000000" stroke-opacity="0.5" stroke-width="3.2"/>
<circle clip-path="url(#clip192)" cx="1656.97" cy="781.092" r="14.4" fill="#009af9" fill-rule="evenodd" fill-opacity="0.5" stroke="#000000" stroke-opacity="0.5" stroke-width="3.2"/>
<circle clip-path="url(#clip192)" cx="1091.42" cy="472.263" r="14.4" fill="#009af9" fill-rule="evenodd" fill-opacity="0.5" stroke="#000000" stroke-opacity="0.5" stroke-width="3.2"/>
<circle clip-path="url(#clip192)" cx="2008.41" cy="841.357" r="14.4" fill="#009af9" fill-rule="evenodd" fill-opacity="0.5" stroke="#000000" stroke-opacity="0.5" stroke-width="3.2"/>
<circle clip-path="url(#clip192)" cx="387.751" cy="429.694" r="14.4" fill="#009af9" fill-rule="evenodd" fill-opacity="0.5" stroke="#000000" stroke-opacity="0.5" stroke-width="3.2"/>
<circle clip-path="url(#clip192)" cx="2247.09" cy="401.685" r="14.4" fill="#009af9" fill-rule="evenodd" fill-opacity="0.5" stroke="#000000" stroke-opacity="0.5" stroke-width="3.2"/>
<circle clip-path="url(#clip192)" cx="628.515" cy="1103.51" r="14.4" fill="#009af9" fill-rule="evenodd" fill-opacity="0.5" stroke="#000000" stroke-opacity="0.5" stroke-width="3.2"/>
<circle clip-path="url(#clip192)" cx="1399.41" cy="1361.9" r="14.4" fill="#009af9" fill-rule="evenodd" fill-opacity="0.5" stroke="#000000" stroke-opacity="0.5" stroke-width="3.2"/>
<circle clip-path="url(#clip192)" cx="1938.36" cy="87.9763" r="14.4" fill="#009af9" fill-rule="evenodd" fill-opacity="0.5" stroke="#000000" stroke-opacity="0.5" stroke-width="3.2"/>
<circle clip-path="url(#clip192)" cx="1768.77" cy="1149.16" r="14.4" fill="#009af9" fill-rule="evenodd" fill-opacity="0.5" stroke="#000000" stroke-opacity="0.5" stroke-width="3.2"/>
<circle clip-path="url(#clip192)" cx="1639.99" cy="97.9407" r="14.4" fill="#009af9" fill-rule="evenodd" fill-opacity="0.5" stroke="#000000" stroke-opacity="0.5" stroke-width="3.2"/>
<path clip-path="url(#clip192)" d="M255.035 835.036 L848.361 1277.49 L1822.85 1445.72 L2291.66 1305 L2247.09 401.685 L2028.27 172.255 L1938.36 87.9763 L812.322 122.672 L387.751 429.694 L255.035 835.036 L255.035 835.036  Z" fill="#e26f46" fill-rule="evenodd" fill-opacity="0.2"/>
<polyline clip-path="url(#clip192)" style="stroke:#000000; stroke-linecap:round; stroke-linejoin:round; stroke-width:4; stroke-opacity:0.2; fill:none" points="255.035,835.036 848.361,1277.49 1822.85,1445.72 2291.66,1305 2247.09,401.685 2028.27,172.255 1938.36,87.9763 812.322,122.672 387.751,429.694 255.035,835.036 "/>
</svg>
