<?xml version="1.0" encoding="utf-8"?>
<svg xmlns="http://www.w3.org/2000/svg" xmlns:xlink="http://www.w3.org/1999/xlink" width="600" height="400" viewBox="0 0 2400 1600">
<defs>
  <clipPath id="clip000">
    <rect x="0" y="0" width="2400" height="1600"/>
  </clipPath>
</defs>
<path clip-path="url(#clip000)" d="M0 1600 L2400 1600 L2400 0 L0 0  Z" fill="#ffffff" fill-rule="evenodd" fill-opacity="1"/>
<defs>
  <clipPath id="clip001">
    <rect x="147" y="47" width="2206" height="1440"/>
  </clipPath>
</defs>
<path clip-path="url(#clip000)" d="M147.478 1486.45 L2352.76 1486.45 L2352.76 47.2441 L147.478 47.2441  Z" fill="#ffffff" fill-rule="evenodd" fill-opacity="1"/>
<polyline clip-path="url(#clip001)" style="stroke:#000000; stroke-linecap:round; stroke-linejoin:round; stroke-width:2; stroke-opacity:0.1; fill:none" points="496.603,1486.45 496.603,47.2441 "/>
<polyline clip-path="url(#clip001)" style="stroke:#000000; stroke-linecap:round; stroke-linejoin:round; stroke-width:2; stroke-opacity:0.1; fill:none" points="904.513,1486.45 904.513,47.2441 "/>
<polyline clip-path="url(#clip001)" style="stroke:#000000; stroke-linecap:round; stroke-linejoin:round; stroke-width:2; stroke-opacity:0.1; fill:none" points="1312.42,1486.45 1312.42,47.2441 "/>
<polyline clip-path="url(#clip001)" style="stroke:#000000; stroke-linecap:round; stroke-linejoin:round; stroke-width:2; stroke-opacity:0.1; fill:none" points="1720.33,1486.45 1720.33,47.2441 "/>
<polyline clip-path="url(#clip001)" style="stroke:#000000; stroke-linecap:round; stroke-linejoin:round; stroke-width:2; stroke-opacity:0.1; fill:none" points="2128.24,1486.45 2128.24,47.2441 "/>
<polyline clip-path="url(#clip001)" style="stroke:#000000; stroke-linecap:round; stroke-linejoin:round; stroke-width:2; stroke-opacity:0.1; fill:none" points="147.478,1354.76 2352.76,1354.76 "/>
<polyline clip-path="url(#clip001)" style="stroke:#000000; stroke-linecap:round; stroke-linejoin:round; stroke-width:2; stroke-opacity:0.1; fill:none" points="147.478,1040.13 2352.76,1040.13 "/>
<polyline clip-path="url(#clip001)" style="stroke:#000000; stroke-linecap:round; stroke-linejoin:round; stroke-width:2; stroke-opacity:0.1; fill:none" points="147.478,725.491 2352.76,725.491 "/>
<polyline clip-path="url(#clip001)" style="stroke:#000000; stroke-linecap:round; stroke-linejoin:round; stroke-width:2; stroke-opacity:0.1; fill:none" points="147.478,410.855 2352.76,410.855 "/>
<polyline clip-path="url(#clip001)" style="stroke:#000000; stroke-linecap:round; stroke-linejoin:round; stroke-width:2; stroke-opacity:0.1; fill:none" points="147.478,96.2196 2352.76,96.2196 "/>
<polyline clip-path="url(#clip000)" style="stroke:#000000; stroke-linecap:round; stroke-linejoin:round; stroke-width:4; stroke-opacity:1; fill:none" points="147.478,1486.45 2352.76,1486.45 "/>
<polyline clip-path="url(#clip000)" style="stroke:#000000; stroke-linecap:round; stroke-linejoin:round; stroke-width:4; stroke-opacity:1; fill:none" points="496.603,1486.45 496.603,1467.55 "/>
<polyline clip-path="url(#clip000)" style="stroke:#000000; stroke-linecap:round; stroke-linejoin:round; stroke-width:4; stroke-opacity:1; fill:none" points="904.513,1486.45 904.513,1467.55 "/>
<polyline clip-path="url(#clip000)" style="stroke:#000000; stroke-linecap:round; stroke-linejoin:round; stroke-width:4; stroke-opacity:1; fill:none" points="1312.42,1486.45 1312.42,1467.55 "/>
<polyline clip-path="url(#clip000)" style="stroke:#000000; stroke-linecap:round; stroke-linejoin:round; stroke-width:4; stroke-opacity:1; fill:none" points="1720.33,1486.45 1720.33,1467.55 "/>
<polyline clip-path="url(#clip000)" style="stroke:#000000; stroke-linecap:round; stroke-linejoin:round; stroke-width:4; stroke-opacity:1; fill:none" points="2128.24,1486.45 2128.24,1467.55 "/>
<path clip-path="url(#clip000)" d="M443.629 1532.02 L473.304 1532.02 L473.304 1535.95 L443.629 1535.95 L443.629 1532.02 Z" fill="#000000" fill-rule="nonzero" fill-opacity="1" /><path clip-path="url(#clip000)" d="M493.397 1517.37 Q489.786 1517.37 487.957 1520.93 Q486.152 1524.47 486.152 1531.6 Q486.152 1538.71 487.957 1542.27 Q489.786 1545.82 493.397 1545.82 Q497.031 1545.82 498.837 1542.27 Q500.665 1538.71 500.665 1531.6 Q500.665 1524.47 498.837 1520.93 Q497.031 1517.37 493.397 1517.37 M493.397 1513.66 Q499.207 1513.66 502.263 1518.27 Q505.341 1522.85 505.341 1531.6 Q505.341 1540.33 502.263 1544.94 Q499.207 1549.52 493.397 1549.52 Q487.587 1549.52 484.508 1544.94 Q481.453 1540.33 481.453 1531.6 Q481.453 1522.85 484.508 1518.27 Q487.587 1513.66 493.397 1513.66 Z" fill="#000000" fill-rule="nonzero" fill-opacity="1" /><path clip-path="url(#clip000)" d="M513.559 1542.97 L518.443 1542.97 L518.443 1548.85 L513.559 1548.85 L513.559 1542.97 Z" fill="#000000" fill-rule="nonzero" fill-opacity="1" /><path clip-path="url(#clip000)" d="M528.675 1514.29 L547.031 1514.29 L547.031 1518.22 L532.957 1518.22 L532.957 1526.7 Q533.975 1526.35 534.994 1526.19 Q536.012 1526 537.031 1526 Q542.818 1526 546.198 1529.17 Q549.577 1532.34 549.577 1537.76 Q549.577 1543.34 546.105 1546.44 Q542.633 1549.52 536.313 1549.52 Q534.137 1549.52 531.869 1549.15 Q529.624 1548.78 527.216 1548.04 L527.216 1543.34 Q529.3 1544.47 531.522 1545.03 Q533.744 1545.58 536.221 1545.58 Q540.225 1545.58 542.563 1543.48 Q544.901 1541.37 544.901 1537.76 Q544.901 1534.15 542.563 1532.04 Q540.225 1529.94 536.221 1529.94 Q534.346 1529.94 532.471 1530.35 Q530.619 1530.77 528.675 1531.65 L528.675 1514.29 Z" fill="#000000" fill-rule="nonzero" fill-opacity="1" /><path clip-path="url(#clip000)" d="M881.897 1517.37 Q878.286 1517.37 876.457 1520.93 Q874.652 1524.47 874.652 1531.6 Q874.652 1538.71 876.457 1542.27 Q878.286 1545.82 881.897 1545.82 Q885.531 1545.82 887.337 1542.27 Q889.166 1538.71 889.166 1531.6 Q889.166 1524.47 887.337 1520.93 Q885.531 1517.37 881.897 1517.37 M881.897 1513.66 Q887.707 1513.66 890.763 1518.27 Q893.841 1522.85 893.841 1531.6 Q893.841 1540.33 890.763 1544.94 Q887.707 1549.52 881.897 1549.52 Q876.087 1549.52 873.008 1544.94 Q869.953 1540.33 869.953 1531.6 Q869.953 1522.85 873.008 1518.27 Q876.087 1513.66 881.897 1513.66 Z" fill="#000000" fill-rule="nonzero" fill-opacity="1" /><path clip-path="url(#clip000)" d="M902.059 1542.97 L906.943 1542.97 L906.943 1548.85 L902.059 1548.85 L902.059 1542.97 Z" fill="#000000" fill-rule="nonzero" fill-opacity="1" /><path clip-path="url(#clip000)" d="M927.128 1517.37 Q923.517 1517.37 921.689 1520.93 Q919.883 1524.47 919.883 1531.6 Q919.883 1538.71 921.689 1542.27 Q923.517 1545.82 927.128 1545.82 Q930.763 1545.82 932.568 1542.27 Q934.397 1538.71 934.397 1531.6 Q934.397 1524.47 932.568 1520.93 Q930.763 1517.37 927.128 1517.37 M927.128 1513.66 Q932.938 1513.66 935.994 1518.27 Q939.073 1522.85 939.073 1531.6 Q939.073 1540.33 935.994 1544.94 Q932.938 1549.52 927.128 1549.52 Q921.318 1549.52 918.239 1544.94 Q915.184 1540.33 915.184 1531.6 Q915.184 1522.85 918.239 1518.27 Q921.318 1513.66 927.128 1513.66 Z" fill="#000000" fill-rule="nonzero" fill-opacity="1" /><path clip-path="url(#clip000)" d="M1290.3 1517.37 Q1286.69 1517.37 1284.86 1520.93 Q1283.06 1524.47 1283.06 1531.6 Q1283.06 1538.71 1284.86 1542.27 Q1286.69 1545.82 1290.3 1545.82 Q1293.94 1545.82 1295.74 1542.27 Q1297.57 1538.71 1297.57 1531.6 Q1297.57 1524.47 1295.74 1520.93 Q1293.94 1517.37 1290.3 1517.37 M1290.3 1513.66 Q1296.11 1513.66 1299.17 1518.27 Q1302.25 1522.85 1302.25 1531.6 Q1302.25 1540.33 1299.17 1544.94 Q1296.11 1549.52 1290.3 1549.52 Q1284.49 1549.52 1281.42 1544.94 Q1278.36 1540.33 1278.36 1531.6 Q1278.36 1522.85 1281.42 1518.27 Q1284.49 1513.66 1290.3 1513.66 Z" fill="#000000" fill-rule="nonzero" fill-opacity="1" /><path clip-path="url(#clip000)" d="M1310.47 1542.97 L1315.35 1542.97 L1315.35 1548.85 L1310.47 1548.85 L1310.47 1542.97 Z" fill="#000000" fill-rule="nonzero" fill-opacity="1" /><path clip-path="url(#clip000)" d="M1325.58 1514.29 L1343.94 1514.29 L1343.94 1518.22 L1329.86 1518.22 L1329.86 1526.7 Q1330.88 1526.35 1331.9 1526.19 Q1332.92 1526 1333.94 1526 Q1339.73 1526 1343.11 1529.17 Q1346.48 1532.34 1346.48 1537.76 Q1346.48 1543.34 1343.01 1546.44 Q1339.54 1549.52 1333.22 1549.52 Q1331.05 1549.52 1328.78 1549.15 Q1326.53 1548.78 1324.12 1548.04 L1324.12 1543.34 Q1326.21 1544.47 1328.43 1545.03 Q1330.65 1545.58 1333.13 1545.58 Q1337.13 1545.58 1339.47 1543.48 Q1341.81 1541.37 1341.81 1537.76 Q1341.81 1534.15 1339.47 1532.04 Q1337.13 1529.94 1333.13 1529.94 Q1331.25 1529.94 1329.38 1530.35 Q1327.53 1530.77 1325.58 1531.65 L1325.58 1514.29 Z" fill="#000000" fill-rule="nonzero" fill-opacity="1" /><path clip-path="url(#clip000)" d="M1687.49 1544.91 L1695.12 1544.91 L1695.12 1518.55 L1686.81 1520.21 L1686.81 1515.95 L1695.08 1514.29 L1699.75 1514.29 L1699.75 1544.91 L1707.39 1544.91 L1707.39 1548.85 L1687.49 1548.85 L1687.49 1544.91 Z" fill="#000000" fill-rule="nonzero" fill-opacity="1" /><path clip-path="url(#clip000)" d="M1716.84 1542.97 L1721.72 1542.97 L1721.72 1548.85 L1716.84 1548.85 L1716.84 1542.97 Z" fill="#000000" fill-rule="nonzero" fill-opacity="1" /><path clip-path="url(#clip000)" d="M1741.91 1517.37 Q1738.3 1517.37 1736.47 1520.93 Q1734.66 1524.47 1734.66 1531.6 Q1734.66 1538.71 1736.47 1542.27 Q1738.3 1545.82 1741.91 1545.82 Q1745.54 1545.82 1747.35 1542.27 Q1749.17 1538.71 1749.17 1531.6 Q1749.17 1524.47 1747.35 1520.93 Q1745.54 1517.37 1741.91 1517.37 M1741.91 1513.66 Q1747.72 1513.66 1750.77 1518.27 Q1753.85 1522.85 1753.85 1531.6 Q1753.85 1540.33 1750.77 1544.94 Q1747.72 1549.52 1741.91 1549.52 Q1736.1 1549.52 1733.02 1544.94 Q1729.96 1540.33 1729.96 1531.6 Q1729.96 1522.85 1733.02 1518.27 Q1736.1 1513.66 1741.91 1513.66 Z" fill="#000000" fill-rule="nonzero" fill-opacity="1" /><path clip-path="url(#clip000)" d="M2095.89 1544.91 L2103.53 1544.91 L2103.53 1518.55 L2095.22 1520.21 L2095.22 1515.95 L2103.49 1514.29 L2108.16 1514.29 L2108.16 1544.91 L2115.8 1544.91 L2115.8 1548.85 L2095.89 1548.85 L2095.89 1544.91 Z" fill="#000000" fill-rule="nonzero" fill-opacity="1" /><path clip-path="url(#clip000)" d="M2125.24 1542.97 L2130.13 1542.97 L2130.13 1548.85 L2125.24 1548.85 L2125.24 1542.97 Z" fill="#000000" fill-rule="nonzero" fill-opacity="1" /><path clip-path="url(#clip000)" d="M2140.36 1514.29 L2158.72 1514.29 L2158.72 1518.22 L2144.64 1518.22 L2144.64 1526.7 Q2145.66 1526.35 2146.68 1526.19 Q2147.7 1526 2148.72 1526 Q2154.5 1526 2157.88 1529.17 Q2161.26 1532.34 2161.26 1537.76 Q2161.26 1543.34 2157.79 1546.44 Q2154.32 1549.52 2148 1549.52 Q2145.82 1549.52 2143.55 1549.15 Q2141.31 1548.78 2138.9 1548.04 L2138.9 1543.34 Q2140.99 1544.47 2143.21 1545.03 Q2145.43 1545.58 2147.91 1545.58 Q2151.91 1545.58 2154.25 1543.48 Q2156.59 1541.37 2156.59 1537.76 Q2156.59 1534.15 2154.25 1532.04 Q2151.91 1529.94 2147.91 1529.94 Q2146.03 1529.94 2144.16 1530.35 Q2142.3 1530.77 2140.36 1531.65 L2140.36 1514.29 Z" fill="#000000" fill-rule="nonzero" fill-opacity="1" /><polyline clip-path="url(#clip000)" style="stroke:#000000; stroke-linecap:round; stroke-linejoin:round; stroke-width:4; stroke-opacity:1; fill:none" points="147.478,1486.45 147.478,47.2441 "/>
<polyline clip-path="url(#clip000)" style="stroke:#000000; stroke-linecap:round; stroke-linejoin:round; stroke-width:4; stroke-opacity:1; fill:none" points="147.478,1354.76 166.376,1354.76 "/>
<polyline clip-path="url(#clip000)" style="stroke:#000000; stroke-linecap:round; stroke-linejoin:round; stroke-width:4; stroke-opacity:1; fill:none" points="147.478,1040.13 166.376,1040.13 "/>
<polyline clip-path="url(#clip000)" style="stroke:#000000; stroke-linecap:round; stroke-linejoin:round; stroke-width:4; stroke-opacity:1; fill:none" points="147.478,725.491 166.376,725.491 "/>
<polyline clip-path="url(#clip000)" style="stroke:#000000; stroke-linecap:round; stroke-linejoin:round; stroke-width:4; stroke-opacity:1; fill:none" points="147.478,410.855 166.376,410.855 "/>
<polyline clip-path="url(#clip000)" style="stroke:#000000; stroke-linecap:round; stroke-linejoin:round; stroke-width:4; stroke-opacity:1; fill:none" points="147.478,96.2196 166.376,96.2196 "/>
<path clip-path="url(#clip000)" d="M51.3625 1355.21 L81.0383 1355.21 L81.0383 1359.15 L51.3625 1359.15 L51.3625 1355.21 Z" fill="#000000" fill-rule="nonzero" fill-opacity="1" /><path clip-path="url(#clip000)" d="M95.1586 1368.11 L111.478 1368.11 L111.478 1372.04 L89.5336 1372.04 L89.5336 1368.11 Q92.1956 1365.35 96.7789 1360.72 Q101.385 1356.07 102.566 1354.73 Q104.811 1352.2 105.691 1350.47 Q106.594 1348.71 106.594 1347.02 Q106.594 1344.26 104.649 1342.53 Q102.728 1340.79 99.6261 1340.79 Q97.4271 1340.79 94.9734 1341.56 Q92.5428 1342.32 89.7651 1343.87 L89.7651 1339.15 Q92.5891 1338.01 95.0428 1337.44 Q97.4965 1336.86 99.5335 1336.86 Q104.904 1336.86 108.098 1339.54 Q111.293 1342.23 111.293 1346.72 Q111.293 1348.85 110.483 1350.77 Q109.696 1352.67 107.589 1355.26 Q107.01 1355.93 103.909 1359.15 Q100.807 1362.34 95.1586 1368.11 Z" fill="#000000" fill-rule="nonzero" fill-opacity="1" /><path clip-path="url(#clip000)" d="M50.9921 1040.58 L80.6679 1040.58 L80.6679 1044.51 L50.9921 1044.51 L50.9921 1040.58 Z" fill="#000000" fill-rule="nonzero" fill-opacity="1" /><path clip-path="url(#clip000)" d="M91.5706 1053.47 L99.2095 1053.47 L99.2095 1027.11 L90.8993 1028.77 L90.8993 1024.51 L99.1632 1022.85 L103.839 1022.85 L103.839 1053.47 L111.478 1053.47 L111.478 1057.41 L91.5706 1057.41 L91.5706 1053.47 Z" fill="#000000" fill-rule="nonzero" fill-opacity="1" /><path clip-path="url(#clip000)" d="M99.5335 711.29 Q95.9224 711.29 94.0937 714.854 Q92.2882 718.396 92.2882 725.526 Q92.2882 732.632 94.0937 736.197 Q95.9224 739.739 99.5335 739.739 Q103.168 739.739 104.973 736.197 Q106.802 732.632 106.802 725.526 Q106.802 718.396 104.973 714.854 Q103.168 711.29 99.5335 711.29 M99.5335 707.586 Q105.344 707.586 108.399 712.192 Q111.478 716.776 111.478 725.526 Q111.478 734.252 108.399 738.859 Q105.344 743.442 99.5335 743.442 Q93.7234 743.442 90.6447 738.859 Q87.5892 734.252 87.5892 725.526 Q87.5892 716.776 90.6447 712.192 Q93.7234 707.586 99.5335 707.586 Z" fill="#000000" fill-rule="nonzero" fill-opacity="1" /><path clip-path="url(#clip000)" d="M91.5706 424.2 L99.2095 424.2 L99.2095 397.834 L90.8993 399.501 L90.8993 395.242 L99.1632 393.575 L103.839 393.575 L103.839 424.2 L111.478 424.2 L111.478 428.135 L91.5706 428.135 L91.5706 424.2 Z" fill="#000000" fill-rule="nonzero" fill-opacity="1" /><path clip-path="url(#clip000)" d="M95.1586 109.564 L111.478 109.564 L111.478 113.5 L89.5336 113.5 L89.5336 109.564 Q92.1956 106.81 96.7789 102.18 Q101.385 97.5275 102.566 96.1849 Q104.811 93.6618 105.691 91.9257 Q106.594 90.1664 106.594 88.4766 Q106.594 85.722 104.649 83.9859 Q102.728 82.2498 99.6261 82.2498 Q97.4271 82.2498 94.9734 83.0137 Q92.5428 83.7776 89.7651 85.3285 L89.7651 80.6063 Q92.5891 79.472 95.0428 78.8933 Q97.4965 78.3146 99.5335 78.3146 Q104.904 78.3146 108.098 80.9998 Q111.293 83.685 111.293 88.1757 Q111.293 90.3053 110.483 92.2266 Q109.696 94.1247 107.589 96.7173 Q107.01 97.3886 103.909 100.606 Q100.807 103.801 95.1586 109.564 Z" fill="#000000" fill-rule="nonzero" fill-opacity="1" /><circle clip-path="url(#clip001)" cx="328.762" cy="925.346" r="14.4" fill="#009af9" fill-rule="evenodd" fill-opacity="0.5" stroke="#000000" stroke-opacity="0.5" stroke-width="3.2"/>
<circle clip-path="url(#clip001)" cx="1731.48" cy="391.729" r="14.4" fill="#009af9" fill-rule="evenodd" fill-opacity="0.5" stroke="#000000" stroke-opacity="0.5" stroke-width="3.2"/>
<circle clip-path="url(#clip001)" cx="1644.08" cy="193.478" r="14.4" fill="#009af9" fill-rule="evenodd" fill-opacity="0.5" stroke="#000000" stroke-opacity="0.5" stroke-width="3.2"/>
<circle clip-path="url(#clip001)" cx="1625.69" cy="422.39" r="14.4" fill="#009af9" fill-rule="evenodd" fill-opacity="0.5" stroke="#000000" stroke-opacity="0.5" stroke-width="3.2"/>
<circle clip-path="url(#clip001)" cx="540.992" cy="870.571" r="14.4" fill="#009af9" fill-rule="evenodd" fill-opacity="0.5" stroke="#000000" stroke-opacity="0.5" stroke-width="3.2"/>
<circle clip-path="url(#clip001)" cx="656.952" cy="480.544" r="14.4" fill="#009af9" fill-rule="evenodd" fill-opacity="0.5" stroke="#000000" stroke-opacity="0.5" stroke-width="3.2"/>
<circle clip-path="url(#clip001)" cx="1724.67" cy="994.339" r="14.4" fill="#009af9" fill-rule="evenodd" fill-opacity="0.5" stroke="#000000" stroke-opacity="0.5" stroke-width="3.2"/>
<circle clip-path="url(#clip001)" cx="884.387" cy="823.202" r="14.4" fill="#009af9" fill-rule="evenodd" fill-opacity="0.5" stroke="#000000" stroke-opacity="0.5" stroke-width="3.2"/>
<circle clip-path="url(#clip001)" cx="541.297" cy="644.38" r="14.4" fill="#009af9" fill-rule="evenodd" fill-opacity="0.5" stroke="#000000" stroke-opacity="0.5" stroke-width="3.2"/>
<circle clip-path="url(#clip001)" cx="1440.77" cy="1445.72" r="14.4" fill="#009af9" fill-rule="evenodd" fill-opacity="0.5" stroke="#000000" stroke-opacity="0.5" stroke-width="3.2"/>
<circle clip-path="url(#clip001)" cx="482.315" cy="954.984" r="14.4" fill="#009af9" fill-rule="evenodd" fill-opacity="0.5" stroke="#000000" stroke-opacity="0.5" stroke-width="3.2"/>
<circle clip-path="url(#clip001)" cx="1871.88" cy="275.226" r="14.4" fill="#009af9" fill-rule="evenodd" fill-opacity="0.5" stroke="#000000" stroke-opacity="0.5" stroke-width="3.2"/>
<circle clip-path="url(#clip001)" cx="209.891" cy="561.536" r="14.4" fill="#009af9" fill-rule="evenodd" fill-opacity="0.5" stroke="#000000" stroke-opacity="0.5" stroke-width="3.2"/>
<circle clip-path="url(#clip001)" cx="790.821" cy="313.225" r="14.4" fill="#009af9" fill-rule="evenodd" fill-opacity="0.5" stroke="#000000" stroke-opacity="0.5" stroke-width="3.2"/>
<circle clip-path="url(#clip001)" cx="837.357" cy="87.9763" r="14.4" fill="#009af9" fill-rule="evenodd" fill-opacity="0.5" stroke="#000000" stroke-opacity="0.5" stroke-width="3.2"/>
<circle clip-path="url(#clip001)" cx="451.939" cy="453.543" r="14.4" fill="#009af9" fill-rule="evenodd" fill-opacity="0.5" stroke="#000000" stroke-opacity="0.5" stroke-width="3.2"/>
<circle clip-path="url(#clip001)" cx="1385.31" cy="728.321" r="14.4" fill="#009af9" fill-rule="evenodd" fill-opacity="0.5" stroke="#000000" stroke-opacity="0.5" stroke-width="3.2"/>
<circle clip-path="url(#clip001)" cx="2290.34" cy="655.161" r="14.4" fill="#009af9" fill-rule="evenodd" fill-opacity="0.5" stroke="#000000" stroke-opacity="0.5" stroke-width="3.2"/>
<circle clip-path="url(#clip001)" cx="533.372" cy="779.26" r="14.4" fill="#009af9" fill-rule="evenodd" fill-opacity="0.5" stroke="#000000" stroke-opacity="0.5" stroke-width="3.2"/>
<circle clip-path="url(#clip001)" cx="1197.37" cy="1055.15" r="14.4" fill="#009af9" fill-rule="evenodd" fill-opacity="0.5" stroke="#000000" stroke-opacity="0.5" stroke-width="3.2"/>
<circle clip-path="url(#clip001)" cx="630.605" cy="690.236" r="14.4" fill="#009af9" fill-rule="evenodd" fill-opacity="0.5" stroke="#000000" stroke-opacity="0.5" stroke-width="3.2"/>
<circle clip-path="url(#clip001)" cx="1944.27" cy="737.741" r="14.4" fill="#009af9" fill-rule="evenodd" fill-opacity="0.5" stroke="#000000" stroke-opacity="0.5" stroke-width="3.2"/>
<circle clip-path="url(#clip001)" cx="538.9" cy="759.961" r="14.4" fill="#009af9" fill-rule="evenodd" fill-opacity="0.5" stroke="#000000" stroke-opacity="0.5" stroke-width="3.2"/>
<circle clip-path="url(#clip001)" cx="871.172" cy="929.242" r="14.4" fill="#009af9" fill-rule="evenodd" fill-opacity="0.5" stroke="#000000" stroke-opacity="0.5" stroke-width="3.2"/>
<circle clip-path="url(#clip001)" cx="935.929" cy="459.2" r="14.4" fill="#009af9" fill-rule="evenodd" fill-opacity="0.5" stroke="#000000" stroke-opacity="0.5" stroke-width="3.2"/>
<circle clip-path="url(#clip001)" cx="743.124" cy="1159.25" r="14.4" fill="#009af9" fill-rule="evenodd" fill-opacity="0.5" stroke="#000000" stroke-opacity="0.5" stroke-width="3.2"/>
<circle clip-path="url(#clip001)" cx="697.55" cy="933.818" r="14.4" fill="#009af9" fill-rule="evenodd" fill-opacity="0.5" stroke="#000000" stroke-opacity="0.5" stroke-width="3.2"/>
<circle clip-path="url(#clip001)" cx="1431.43" cy="537.854" r="14.4" fill="#009af9" fill-rule="evenodd" fill-opacity="0.5" stroke="#000000" stroke-opacity="0.5" stroke-width="3.2"/>
<circle clip-path="url(#clip001)" cx="1406.77" cy="667.034" r="14.4" fill="#009af9" fill-rule="evenodd" fill-opacity="0.5" stroke="#000000" stroke-opacity="0.5" stroke-width="3.2"/>
<circle clip-path="url(#clip001)" cx="466.422" cy="499.133" r="14.4" fill="#009af9" fill-rule="evenodd" fill-opacity="0.5" stroke="#000000" stroke-opacity="0.5" stroke-width="3.2"/>
<path clip-path="url(#clip001)" d="M209.891 561.536 L328.762 925.346 L743.124 1159.25 L1440.77 1445.72 L2290.34 655.161 L1871.88 275.226 L1644.08 193.478 L837.357 87.9763 L209.891 561.536 L209.891 561.536  Z" fill="#e26f46" fill-rule="evenodd" fill-opacity="0.2"/>
<polyline clip-path="url(#clip001)" style="stroke:#000000; stroke-linecap:round; stroke-linejoin:round; stroke-width:4; stroke-opacity:0.2; fill:none" points="209.891,561.536 328.762,925.346 743.124,1159.25 1440.77,1445.72 2290.34,655.161 1871.88,275.226 1644.08,193.478 837.357,87.9763 209.891,561.536 "/>
</svg>
