<?xml version="1.0" encoding="utf-8"?>
<svg xmlns="http://www.w3.org/2000/svg" xmlns:xlink="http://www.w3.org/1999/xlink" width="600" height="400" viewBox="0 0 2400 1600">
<defs>
  <clipPath id="clip570">
    <rect x="0" y="0" width="2400" height="1600"/>
  </clipPath>
</defs>
<path clip-path="url(#clip570)" d="M0 1600 L2400 1600 L2400 0 L0 0  Z" fill="#ffffff" fill-rule="evenodd" fill-opacity="1"/>
<defs>
  <clipPath id="clip571">
    <rect x="147" y="47" width="2206" height="1440"/>
  </clipPath>
</defs>
<path clip-path="url(#clip570)" d="M147.478 1486.45 L2352.76 1486.45 L2352.76 47.2441 L147.478 47.2441  Z" fill="#ffffff" fill-rule="evenodd" fill-opacity="1"/>
<polyline clip-path="url(#clip571)" style="stroke:#000000; stroke-linecap:round; stroke-linejoin:round; stroke-width:2; stroke-opacity:0.1; fill:none" points="240.48,1486.45 240.48,47.2441 "/>
<polyline clip-path="url(#clip571)" style="stroke:#000000; stroke-linecap:round; stroke-linejoin:round; stroke-width:2; stroke-opacity:0.1; fill:none" points="783.182,1486.45 783.182,47.2441 "/>
<polyline clip-path="url(#clip571)" style="stroke:#000000; stroke-linecap:round; stroke-linejoin:round; stroke-width:2; stroke-opacity:0.1; fill:none" points="1325.88,1486.45 1325.88,47.2441 "/>
<polyline clip-path="url(#clip571)" style="stroke:#000000; stroke-linecap:round; stroke-linejoin:round; stroke-width:2; stroke-opacity:0.1; fill:none" points="1868.59,1486.45 1868.59,47.2441 "/>
<polyline clip-path="url(#clip571)" style="stroke:#000000; stroke-linecap:round; stroke-linejoin:round; stroke-width:2; stroke-opacity:0.1; fill:none" points="147.478,1427.98 2352.76,1427.98 "/>
<polyline clip-path="url(#clip571)" style="stroke:#000000; stroke-linecap:round; stroke-linejoin:round; stroke-width:2; stroke-opacity:0.1; fill:none" points="147.478,1185.98 2352.76,1185.98 "/>
<polyline clip-path="url(#clip571)" style="stroke:#000000; stroke-linecap:round; stroke-linejoin:round; stroke-width:2; stroke-opacity:0.1; fill:none" points="147.478,943.98 2352.76,943.98 "/>
<polyline clip-path="url(#clip571)" style="stroke:#000000; stroke-linecap:round; stroke-linejoin:round; stroke-width:2; stroke-opacity:0.1; fill:none" points="147.478,701.982 2352.76,701.982 "/>
<polyline clip-path="url(#clip571)" style="stroke:#000000; stroke-linecap:round; stroke-linejoin:round; stroke-width:2; stroke-opacity:0.1; fill:none" points="147.478,459.984 2352.76,459.984 "/>
<polyline clip-path="url(#clip571)" style="stroke:#000000; stroke-linecap:round; stroke-linejoin:round; stroke-width:2; stroke-opacity:0.1; fill:none" points="147.478,217.986 2352.76,217.986 "/>
<polyline clip-path="url(#clip570)" style="stroke:#000000; stroke-linecap:round; stroke-linejoin:round; stroke-width:4; stroke-opacity:1; fill:none" points="147.478,1486.45 2352.76,1486.45 "/>
<polyline clip-path="url(#clip570)" style="stroke:#000000; stroke-linecap:round; stroke-linejoin:round; stroke-width:4; stroke-opacity:1; fill:none" points="240.48,1486.45 240.48,1467.55 "/>
<polyline clip-path="url(#clip570)" style="stroke:#000000; stroke-linecap:round; stroke-linejoin:round; stroke-width:4; stroke-opacity:1; fill:none" points="783.182,1486.45 783.182,1467.55 "/>
<polyline clip-path="url(#clip570)" style="stroke:#000000; stroke-linecap:round; stroke-linejoin:round; stroke-width:4; stroke-opacity:1; fill:none" points="1325.88,1486.45 1325.88,1467.55 "/>
<polyline clip-path="url(#clip570)" style="stroke:#000000; stroke-linecap:round; stroke-linejoin:round; stroke-width:4; stroke-opacity:1; fill:none" points="1868.59,1486.45 1868.59,1467.55 "/>
<path clip-path="url(#clip570)" d="M210.422 1532.02 L240.098 1532.02 L240.098 1535.95 L210.422 1535.95 L210.422 1532.02 Z" fill="#000000" fill-rule="nonzero" fill-opacity="1" /><path clip-path="url(#clip570)" d="M254.218 1544.91 L270.538 1544.91 L270.538 1548.85 L248.593 1548.85 L248.593 1544.91 Q251.255 1542.16 255.839 1537.53 Q260.445 1532.88 261.626 1531.53 Q263.871 1529.01 264.751 1527.27 Q265.653 1525.51 265.653 1523.82 Q265.653 1521.07 263.709 1519.33 Q261.788 1517.6 258.686 1517.6 Q256.487 1517.6 254.033 1518.36 Q251.603 1519.13 248.825 1520.68 L248.825 1515.95 Q251.649 1514.82 254.103 1514.24 Q256.556 1513.66 258.593 1513.66 Q263.964 1513.66 267.158 1516.35 Q270.353 1519.03 270.353 1523.52 Q270.353 1525.65 269.542 1527.57 Q268.755 1529.47 266.649 1532.07 Q266.07 1532.74 262.968 1535.95 Q259.866 1539.15 254.218 1544.91 Z" fill="#000000" fill-rule="nonzero" fill-opacity="1" /><path clip-path="url(#clip570)" d="M752.939 1532.02 L782.615 1532.02 L782.615 1535.95 L752.939 1535.95 L752.939 1532.02 Z" fill="#000000" fill-rule="nonzero" fill-opacity="1" /><path clip-path="url(#clip570)" d="M793.518 1544.91 L801.156 1544.91 L801.156 1518.55 L792.846 1520.21 L792.846 1515.95 L801.11 1514.29 L805.786 1514.29 L805.786 1544.91 L813.425 1544.91 L813.425 1548.85 L793.518 1548.85 L793.518 1544.91 Z" fill="#000000" fill-rule="nonzero" fill-opacity="1" /><path clip-path="url(#clip570)" d="M1325.88 1517.37 Q1322.27 1517.37 1320.44 1520.93 Q1318.64 1524.47 1318.64 1531.6 Q1318.64 1538.71 1320.44 1542.27 Q1322.27 1545.82 1325.88 1545.82 Q1329.52 1545.82 1331.32 1542.27 Q1333.15 1538.71 1333.15 1531.6 Q1333.15 1524.47 1331.32 1520.93 Q1329.52 1517.37 1325.88 1517.37 M1325.88 1513.66 Q1331.69 1513.66 1334.75 1518.27 Q1337.83 1522.85 1337.83 1531.6 Q1337.83 1540.33 1334.75 1544.94 Q1331.69 1549.52 1325.88 1549.52 Q1320.07 1549.52 1317 1544.94 Q1313.94 1540.33 1313.94 1531.6 Q1313.94 1522.85 1317 1518.27 Q1320.07 1513.66 1325.88 1513.66 Z" fill="#000000" fill-rule="nonzero" fill-opacity="1" /><path clip-path="url(#clip570)" d="M1858.97 1544.91 L1866.61 1544.91 L1866.61 1518.55 L1858.3 1520.21 L1858.3 1515.95 L1866.56 1514.29 L1871.24 1514.29 L1871.24 1544.91 L1878.88 1544.91 L1878.88 1548.85 L1858.97 1548.85 L1858.97 1544.91 Z" fill="#000000" fill-rule="nonzero" fill-opacity="1" /><polyline clip-path="url(#clip570)" style="stroke:#000000; stroke-linecap:round; stroke-linejoin:round; stroke-width:4; stroke-opacity:1; fill:none" points="147.478,1486.45 147.478,47.2441 "/>
<polyline clip-path="url(#clip570)" style="stroke:#000000; stroke-linecap:round; stroke-linejoin:round; stroke-width:4; stroke-opacity:1; fill:none" points="147.478,1427.98 166.376,1427.98 "/>
<polyline clip-path="url(#clip570)" style="stroke:#000000; stroke-linecap:round; stroke-linejoin:round; stroke-width:4; stroke-opacity:1; fill:none" points="147.478,1185.98 166.376,1185.98 "/>
<polyline clip-path="url(#clip570)" style="stroke:#000000; stroke-linecap:round; stroke-linejoin:round; stroke-width:4; stroke-opacity:1; fill:none" points="147.478,943.98 166.376,943.98 "/>
<polyline clip-path="url(#clip570)" style="stroke:#000000; stroke-linecap:round; stroke-linejoin:round; stroke-width:4; stroke-opacity:1; fill:none" points="147.478,701.982 166.376,701.982 "/>
<polyline clip-path="url(#clip570)" style="stroke:#000000; stroke-linecap:round; stroke-linejoin:round; stroke-width:4; stroke-opacity:1; fill:none" points="147.478,459.984 166.376,459.984 "/>
<polyline clip-path="url(#clip570)" style="stroke:#000000; stroke-linecap:round; stroke-linejoin:round; stroke-width:4; stroke-opacity:1; fill:none" points="147.478,217.986 166.376,217.986 "/>
<path clip-path="url(#clip570)" d="M51.3625 1428.43 L81.0383 1428.43 L81.0383 1432.36 L51.3625 1432.36 L51.3625 1428.43 Z" fill="#000000" fill-rule="nonzero" fill-opacity="1" /><path clip-path="url(#clip570)" d="M95.1586 1441.32 L111.478 1441.32 L111.478 1445.26 L89.5336 1445.26 L89.5336 1441.32 Q92.1956 1438.57 96.7789 1433.94 Q101.385 1429.28 102.566 1427.94 Q104.811 1425.42 105.691 1423.68 Q106.594 1421.92 106.594 1420.23 Q106.594 1417.48 104.649 1415.74 Q102.728 1414.01 99.6261 1414.01 Q97.4271 1414.01 94.9734 1414.77 Q92.5428 1415.53 89.7651 1417.08 L89.7651 1412.36 Q92.5891 1411.23 95.0428 1410.65 Q97.4965 1410.07 99.5335 1410.07 Q104.904 1410.07 108.098 1412.76 Q111.293 1415.44 111.293 1419.93 Q111.293 1422.06 110.483 1423.98 Q109.696 1425.88 107.589 1428.47 Q107.01 1429.14 103.909 1432.36 Q100.807 1435.56 95.1586 1441.32 Z" fill="#000000" fill-rule="nonzero" fill-opacity="1" /><path clip-path="url(#clip570)" d="M50.9921 1186.43 L80.6679 1186.43 L80.6679 1190.36 L50.9921 1190.36 L50.9921 1186.43 Z" fill="#000000" fill-rule="nonzero" fill-opacity="1" /><path clip-path="url(#clip570)" d="M91.5706 1199.32 L99.2095 1199.32 L99.2095 1172.96 L90.8993 1174.62 L90.8993 1170.36 L99.1632 1168.7 L103.839 1168.7 L103.839 1199.32 L111.478 1199.32 L111.478 1203.26 L91.5706 1203.26 L91.5706 1199.32 Z" fill="#000000" fill-rule="nonzero" fill-opacity="1" /><path clip-path="url(#clip570)" d="M99.5335 929.778 Q95.9224 929.778 94.0937 933.343 Q92.2882 936.885 92.2882 944.014 Q92.2882 951.121 94.0937 954.686 Q95.9224 958.227 99.5335 958.227 Q103.168 958.227 104.973 954.686 Q106.802 951.121 106.802 944.014 Q106.802 936.885 104.973 933.343 Q103.168 929.778 99.5335 929.778 M99.5335 926.075 Q105.344 926.075 108.399 930.681 Q111.478 935.264 111.478 944.014 Q111.478 952.741 108.399 957.348 Q105.344 961.931 99.5335 961.931 Q93.7234 961.931 90.6447 957.348 Q87.5892 952.741 87.5892 944.014 Q87.5892 935.264 90.6447 930.681 Q93.7234 926.075 99.5335 926.075 Z" fill="#000000" fill-rule="nonzero" fill-opacity="1" /><path clip-path="url(#clip570)" d="M91.5706 715.327 L99.2095 715.327 L99.2095 688.961 L90.8993 690.628 L90.8993 686.368 L99.1632 684.702 L103.839 684.702 L103.839 715.327 L111.478 715.327 L111.478 719.262 L91.5706 719.262 L91.5706 715.327 Z" fill="#000000" fill-rule="nonzero" fill-opacity="1" /><path clip-path="url(#clip570)" d="M95.1586 473.329 L111.478 473.329 L111.478 477.264 L89.5336 477.264 L89.5336 473.329 Q92.1956 470.574 96.7789 465.944 Q101.385 461.292 102.566 459.949 Q104.811 457.426 105.691 455.69 Q106.594 453.931 106.594 452.241 Q106.594 449.486 104.649 447.75 Q102.728 446.014 99.6261 446.014 Q97.4271 446.014 94.9734 446.778 Q92.5428 447.542 89.7651 449.093 L89.7651 444.37 Q92.5891 443.236 95.0428 442.657 Q97.4965 442.079 99.5335 442.079 Q104.904 442.079 108.098 444.764 Q111.293 447.449 111.293 451.94 Q111.293 454.069 110.483 455.991 Q109.696 457.889 107.589 460.481 Q107.01 461.153 103.909 464.37 Q100.807 467.565 95.1586 473.329 Z" fill="#000000" fill-rule="nonzero" fill-opacity="1" /><path clip-path="url(#clip570)" d="M104.348 216.632 Q107.705 217.349 109.58 219.618 Q111.478 221.886 111.478 225.22 Q111.478 230.335 107.959 233.136 Q104.441 235.937 97.9595 235.937 Q95.7836 235.937 93.4688 235.497 Q91.1771 235.081 88.7234 234.224 L88.7234 229.71 Q90.6678 230.845 92.9826 231.423 Q95.2974 232.002 97.8206 232.002 Q102.219 232.002 104.51 230.266 Q106.825 228.53 106.825 225.22 Q106.825 222.164 104.672 220.451 Q102.543 218.715 98.7234 218.715 L94.6956 218.715 L94.6956 214.872 L98.9085 214.872 Q102.358 214.872 104.186 213.507 Q106.015 212.118 106.015 209.525 Q106.015 206.863 104.117 205.451 Q102.242 204.016 98.7234 204.016 Q96.8021 204.016 94.603 204.433 Q92.4039 204.849 89.7651 205.729 L89.7651 201.562 Q92.4271 200.822 94.7419 200.451 Q97.0798 200.081 99.14 200.081 Q104.464 200.081 107.566 202.511 Q110.668 204.919 110.668 209.039 Q110.668 211.909 109.024 213.9 Q107.381 215.868 104.348 216.632 Z" fill="#000000" fill-rule="nonzero" fill-opacity="1" /><circle clip-path="url(#clip571)" cx="2290.34" cy="799.007" r="14.4" fill="#009af9" fill-rule="evenodd" fill-opacity="0.5" stroke="#000000" stroke-opacity="0.5" stroke-width="3.2"/>
<circle clip-path="url(#clip571)" cx="1307.48" cy="792.191" r="14.4" fill="#009af9" fill-rule="evenodd" fill-opacity="0.5" stroke="#000000" stroke-opacity="0.5" stroke-width="3.2"/>
<circle clip-path="url(#clip571)" cx="393.504" cy="912.609" r="14.4" fill="#009af9" fill-rule="evenodd" fill-opacity="0.5" stroke="#000000" stroke-opacity="0.5" stroke-width="3.2"/>
<circle clip-path="url(#clip571)" cx="2042.28" cy="767.066" r="14.4" fill="#009af9" fill-rule="evenodd" fill-opacity="0.5" stroke="#000000" stroke-opacity="0.5" stroke-width="3.2"/>
<circle clip-path="url(#clip571)" cx="1318.02" cy="1340.87" r="14.4" fill="#009af9" fill-rule="evenodd" fill-opacity="0.5" stroke="#000000" stroke-opacity="0.5" stroke-width="3.2"/>
<circle clip-path="url(#clip571)" cx="742.256" cy="686.201" r="14.4" fill="#009af9" fill-rule="evenodd" fill-opacity="0.5" stroke="#000000" stroke-opacity="0.5" stroke-width="3.2"/>
<circle clip-path="url(#clip571)" cx="1101.15" cy="1445.72" r="14.4" fill="#009af9" fill-rule="evenodd" fill-opacity="0.5" stroke="#000000" stroke-opacity="0.5" stroke-width="3.2"/>
<circle clip-path="url(#clip571)" cx="2069.82" cy="87.9763" r="14.4" fill="#009af9" fill-rule="evenodd" fill-opacity="0.5" stroke="#000000" stroke-opacity="0.5" stroke-width="3.2"/>
<circle clip-path="url(#clip571)" cx="1274.48" cy="680.855" r="14.4" fill="#009af9" fill-rule="evenodd" fill-opacity="0.5" stroke="#000000" stroke-opacity="0.5" stroke-width="3.2"/>
<circle clip-path="url(#clip571)" cx="921.971" cy="709.626" r="14.4" fill="#009af9" fill-rule="evenodd" fill-opacity="0.5" stroke="#000000" stroke-opacity="0.5" stroke-width="3.2"/>
<circle clip-path="url(#clip571)" cx="1553.77" cy="619.103" r="14.4" fill="#009af9" fill-rule="evenodd" fill-opacity="0.5" stroke="#000000" stroke-opacity="0.5" stroke-width="3.2"/>
<circle clip-path="url(#clip571)" cx="709.901" cy="658.85" r="14.4" fill="#009af9" fill-rule="evenodd" fill-opacity="0.5" stroke="#000000" stroke-opacity="0.5" stroke-width="3.2"/>
<circle clip-path="url(#clip571)" cx="1386.71" cy="1135.05" r="14.4" fill="#009af9" fill-rule="evenodd" fill-opacity="0.5" stroke="#000000" stroke-opacity="0.5" stroke-width="3.2"/>
<circle clip-path="url(#clip571)" cx="319.781" cy="601.285" r="14.4" fill="#009af9" fill-rule="evenodd" fill-opacity="0.5" stroke="#000000" stroke-opacity="0.5" stroke-width="3.2"/>
<circle clip-path="url(#clip571)" cx="571.42" cy="898.157" r="14.4" fill="#009af9" fill-rule="evenodd" fill-opacity="0.5" stroke="#000000" stroke-opacity="0.5" stroke-width="3.2"/>
<circle clip-path="url(#clip571)" cx="1878.61" cy="1165.62" r="14.4" fill="#009af9" fill-rule="evenodd" fill-opacity="0.5" stroke="#000000" stroke-opacity="0.5" stroke-width="3.2"/>
<circle clip-path="url(#clip571)" cx="1309.32" cy="987.859" r="14.4" fill="#009af9" fill-rule="evenodd" fill-opacity="0.5" stroke="#000000" stroke-opacity="0.5" stroke-width="3.2"/>
<circle clip-path="url(#clip571)" cx="1724.11" cy="1080.75" r="14.4" fill="#009af9" fill-rule="evenodd" fill-opacity="0.5" stroke="#000000" stroke-opacity="0.5" stroke-width="3.2"/>
<circle clip-path="url(#clip571)" cx="2256.05" cy="1127.5" r="14.4" fill="#009af9" fill-rule="evenodd" fill-opacity="0.5" stroke="#000000" stroke-opacity="0.5" stroke-width="3.2"/>
<circle clip-path="url(#clip571)" cx="209.891" cy="460.299" r="14.4" fill="#009af9" fill-rule="evenodd" fill-opacity="0.5" stroke="#000000" stroke-opacity="0.5" stroke-width="3.2"/>
<circle clip-path="url(#clip571)" cx="1373.68" cy="972.994" r="14.4" fill="#009af9" fill-rule="evenodd" fill-opacity="0.5" stroke="#000000" stroke-opacity="0.5" stroke-width="3.2"/>
<circle clip-path="url(#clip571)" cx="528.378" cy="872.192" r="14.4" fill="#009af9" fill-rule="evenodd" fill-opacity="0.5" stroke="#000000" stroke-opacity="0.5" stroke-width="3.2"/>
<circle clip-path="url(#clip571)" cx="1101.33" cy="946.052" r="14.4" fill="#009af9" fill-rule="evenodd" fill-opacity="0.5" stroke="#000000" stroke-opacity="0.5" stroke-width="3.2"/>
<circle clip-path="url(#clip571)" cx="972.287" cy="852.035" r="14.4" fill="#009af9" fill-rule="evenodd" fill-opacity="0.5" stroke="#000000" stroke-opacity="0.5" stroke-width="3.2"/>
<circle clip-path="url(#clip571)" cx="1827.04" cy="739.296" r="14.4" fill="#009af9" fill-rule="evenodd" fill-opacity="0.5" stroke="#000000" stroke-opacity="0.5" stroke-width="3.2"/>
<circle clip-path="url(#clip571)" cx="1555.06" cy="998.132" r="14.4" fill="#009af9" fill-rule="evenodd" fill-opacity="0.5" stroke="#000000" stroke-opacity="0.5" stroke-width="3.2"/>
<circle clip-path="url(#clip571)" cx="725.06" cy="843.116" r="14.4" fill="#009af9" fill-rule="evenodd" fill-opacity="0.5" stroke="#000000" stroke-opacity="0.5" stroke-width="3.2"/>
<circle clip-path="url(#clip571)" cx="1851.13" cy="957.871" r="14.4" fill="#009af9" fill-rule="evenodd" fill-opacity="0.5" stroke="#000000" stroke-opacity="0.5" stroke-width="3.2"/>
<circle clip-path="url(#clip571)" cx="1015.93" cy="1374.3" r="14.4" fill="#009af9" fill-rule="evenodd" fill-opacity="0.5" stroke="#000000" stroke-opacity="0.5" stroke-width="3.2"/>
<circle clip-path="url(#clip571)" cx="1530.98" cy="892.166" r="14.4" fill="#009af9" fill-rule="evenodd" fill-opacity="0.5" stroke="#000000" stroke-opacity="0.5" stroke-width="3.2"/>
<path clip-path="url(#clip571)" d="M209.891 460.299 L393.504 912.609 L1101.15 1445.72 L2256.05 1127.5 L2290.34 799.007 L2069.82 87.9763 L209.891 460.299 L209.891 460.299  Z" fill="#e26f46" fill-rule="evenodd" fill-opacity="0.2"/>
<polyline clip-path="url(#clip571)" style="stroke:#000000; stroke-linecap:round; stroke-linejoin:round; stroke-width:4; stroke-opacity:0.2; fill:none" points="209.891,460.299 393.504,912.609 1101.15,1445.72 2256.05,1127.5 2290.34,799.007 2069.82,87.9763 209.891,460.299 "/>
</svg>
