<?xml version="1.0" encoding="utf-8"?>
<svg xmlns="http://www.w3.org/2000/svg" xmlns:xlink="http://www.w3.org/1999/xlink" width="600" height="400" viewBox="0 0 2400 1600">
<defs>
  <clipPath id="clip370">
    <rect x="0" y="0" width="2400" height="1600"/>
  </clipPath>
</defs>
<path clip-path="url(#clip370)" d="M0 1600 L2400 1600 L2400 0 L0 0  Z" fill="#ffffff" fill-rule="evenodd" fill-opacity="1"/>
<defs>
  <clipPath id="clip371">
    <rect x="147" y="47" width="2206" height="1440"/>
  </clipPath>
</defs>
<path clip-path="url(#clip370)" d="M147.478 1486.45 L2352.76 1486.45 L2352.76 47.2441 L147.478 47.2441  Z" fill="#ffffff" fill-rule="evenodd" fill-opacity="1"/>
<polyline clip-path="url(#clip371)" style="stroke:#000000; stroke-linecap:round; stroke-linejoin:round; stroke-width:2; stroke-opacity:0.1; fill:none" points="279.214,1486.45 279.214,47.2441 "/>
<polyline clip-path="url(#clip371)" style="stroke:#000000; stroke-linecap:round; stroke-linejoin:round; stroke-width:2; stroke-opacity:0.1; fill:none" points="675.051,1486.45 675.051,47.2441 "/>
<polyline clip-path="url(#clip371)" style="stroke:#000000; stroke-linecap:round; stroke-linejoin:round; stroke-width:2; stroke-opacity:0.1; fill:none" points="1070.89,1486.45 1070.89,47.2441 "/>
<polyline clip-path="url(#clip371)" style="stroke:#000000; stroke-linecap:round; stroke-linejoin:round; stroke-width:2; stroke-opacity:0.1; fill:none" points="1466.72,1486.45 1466.72,47.2441 "/>
<polyline clip-path="url(#clip371)" style="stroke:#000000; stroke-linecap:round; stroke-linejoin:round; stroke-width:2; stroke-opacity:0.1; fill:none" points="1862.56,1486.45 1862.56,47.2441 "/>
<polyline clip-path="url(#clip371)" style="stroke:#000000; stroke-linecap:round; stroke-linejoin:round; stroke-width:2; stroke-opacity:0.1; fill:none" points="2258.4,1486.45 2258.4,47.2441 "/>
<polyline clip-path="url(#clip371)" style="stroke:#000000; stroke-linecap:round; stroke-linejoin:round; stroke-width:2; stroke-opacity:0.1; fill:none" points="147.478,1383.12 2352.76,1383.12 "/>
<polyline clip-path="url(#clip371)" style="stroke:#000000; stroke-linecap:round; stroke-linejoin:round; stroke-width:2; stroke-opacity:0.1; fill:none" points="147.478,1069.94 2352.76,1069.94 "/>
<polyline clip-path="url(#clip371)" style="stroke:#000000; stroke-linecap:round; stroke-linejoin:round; stroke-width:2; stroke-opacity:0.1; fill:none" points="147.478,756.746 2352.76,756.746 "/>
<polyline clip-path="url(#clip371)" style="stroke:#000000; stroke-linecap:round; stroke-linejoin:round; stroke-width:2; stroke-opacity:0.1; fill:none" points="147.478,443.557 2352.76,443.557 "/>
<polyline clip-path="url(#clip371)" style="stroke:#000000; stroke-linecap:round; stroke-linejoin:round; stroke-width:2; stroke-opacity:0.1; fill:none" points="147.478,130.368 2352.76,130.368 "/>
<polyline clip-path="url(#clip370)" style="stroke:#000000; stroke-linecap:round; stroke-linejoin:round; stroke-width:4; stroke-opacity:1; fill:none" points="147.478,1486.45 2352.76,1486.45 "/>
<polyline clip-path="url(#clip370)" style="stroke:#000000; stroke-linecap:round; stroke-linejoin:round; stroke-width:4; stroke-opacity:1; fill:none" points="279.214,1486.45 279.214,1467.55 "/>
<polyline clip-path="url(#clip370)" style="stroke:#000000; stroke-linecap:round; stroke-linejoin:round; stroke-width:4; stroke-opacity:1; fill:none" points="675.051,1486.45 675.051,1467.55 "/>
<polyline clip-path="url(#clip370)" style="stroke:#000000; stroke-linecap:round; stroke-linejoin:round; stroke-width:4; stroke-opacity:1; fill:none" points="1070.89,1486.45 1070.89,1467.55 "/>
<polyline clip-path="url(#clip370)" style="stroke:#000000; stroke-linecap:round; stroke-linejoin:round; stroke-width:4; stroke-opacity:1; fill:none" points="1466.72,1486.45 1466.72,1467.55 "/>
<polyline clip-path="url(#clip370)" style="stroke:#000000; stroke-linecap:round; stroke-linejoin:round; stroke-width:4; stroke-opacity:1; fill:none" points="1862.56,1486.45 1862.56,1467.55 "/>
<polyline clip-path="url(#clip370)" style="stroke:#000000; stroke-linecap:round; stroke-linejoin:round; stroke-width:4; stroke-opacity:1; fill:none" points="2258.4,1486.45 2258.4,1467.55 "/>
<path clip-path="url(#clip370)" d="M249.156 1532.02 L278.832 1532.02 L278.832 1535.95 L249.156 1535.95 L249.156 1532.02 Z" fill="#000000" fill-rule="nonzero" fill-opacity="1" /><path clip-path="url(#clip370)" d="M292.952 1544.91 L309.271 1544.91 L309.271 1548.85 L287.327 1548.85 L287.327 1544.91 Q289.989 1542.16 294.572 1537.53 Q299.179 1532.88 300.359 1531.53 Q302.605 1529.01 303.484 1527.27 Q304.387 1525.51 304.387 1523.82 Q304.387 1521.07 302.443 1519.33 Q300.522 1517.6 297.42 1517.6 Q295.221 1517.6 292.767 1518.36 Q290.336 1519.13 287.559 1520.68 L287.559 1515.95 Q290.383 1514.82 292.836 1514.24 Q295.29 1513.66 297.327 1513.66 Q302.697 1513.66 305.892 1516.35 Q309.086 1519.03 309.086 1523.52 Q309.086 1525.65 308.276 1527.57 Q307.489 1529.47 305.383 1532.07 Q304.804 1532.74 301.702 1535.95 Q298.6 1539.15 292.952 1544.91 Z" fill="#000000" fill-rule="nonzero" fill-opacity="1" /><path clip-path="url(#clip370)" d="M644.808 1532.02 L674.483 1532.02 L674.483 1535.95 L644.808 1535.95 L644.808 1532.02 Z" fill="#000000" fill-rule="nonzero" fill-opacity="1" /><path clip-path="url(#clip370)" d="M685.386 1544.91 L693.025 1544.91 L693.025 1518.55 L684.715 1520.21 L684.715 1515.95 L692.979 1514.29 L697.655 1514.29 L697.655 1544.91 L705.293 1544.91 L705.293 1548.85 L685.386 1548.85 L685.386 1544.91 Z" fill="#000000" fill-rule="nonzero" fill-opacity="1" /><path clip-path="url(#clip370)" d="M1070.89 1517.37 Q1067.28 1517.37 1065.45 1520.93 Q1063.64 1524.47 1063.64 1531.6 Q1063.64 1538.71 1065.45 1542.27 Q1067.28 1545.82 1070.89 1545.82 Q1074.52 1545.82 1076.33 1542.27 Q1078.16 1538.71 1078.16 1531.6 Q1078.16 1524.47 1076.33 1520.93 Q1074.52 1517.37 1070.89 1517.37 M1070.89 1513.66 Q1076.7 1513.66 1079.75 1518.27 Q1082.83 1522.85 1082.83 1531.6 Q1082.83 1540.33 1079.75 1544.94 Q1076.7 1549.52 1070.89 1549.52 Q1065.08 1549.52 1062 1544.94 Q1058.94 1540.33 1058.94 1531.6 Q1058.94 1522.85 1062 1518.27 Q1065.08 1513.66 1070.89 1513.66 Z" fill="#000000" fill-rule="nonzero" fill-opacity="1" /><path clip-path="url(#clip370)" d="M1457.11 1544.91 L1464.74 1544.91 L1464.74 1518.55 L1456.43 1520.21 L1456.43 1515.95 L1464.7 1514.29 L1469.37 1514.29 L1469.37 1544.91 L1477.01 1544.91 L1477.01 1548.85 L1457.11 1548.85 L1457.11 1544.91 Z" fill="#000000" fill-rule="nonzero" fill-opacity="1" /><path clip-path="url(#clip370)" d="M1857.21 1544.91 L1873.53 1544.91 L1873.53 1548.85 L1851.59 1548.85 L1851.59 1544.91 Q1854.25 1542.16 1858.83 1537.53 Q1863.44 1532.88 1864.62 1531.53 Q1866.87 1529.01 1867.75 1527.27 Q1868.65 1525.51 1868.65 1523.82 Q1868.65 1521.07 1866.7 1519.33 Q1864.78 1517.6 1861.68 1517.6 Q1859.48 1517.6 1857.03 1518.36 Q1854.6 1519.13 1851.82 1520.68 L1851.82 1515.95 Q1854.64 1514.82 1857.1 1514.24 Q1859.55 1513.66 1861.59 1513.66 Q1866.96 1513.66 1870.15 1516.35 Q1873.35 1519.03 1873.35 1523.52 Q1873.35 1525.65 1872.54 1527.57 Q1871.75 1529.47 1869.64 1532.07 Q1869.07 1532.74 1865.96 1535.95 Q1862.86 1539.15 1857.21 1544.91 Z" fill="#000000" fill-rule="nonzero" fill-opacity="1" /><path clip-path="url(#clip370)" d="M2262.65 1530.21 Q2266 1530.93 2267.88 1533.2 Q2269.77 1535.47 2269.77 1538.8 Q2269.77 1543.92 2266.26 1546.72 Q2262.74 1549.52 2256.26 1549.52 Q2254.08 1549.52 2251.77 1549.08 Q2249.47 1548.66 2247.02 1547.81 L2247.02 1543.29 Q2248.96 1544.43 2251.28 1545.01 Q2253.59 1545.58 2256.12 1545.58 Q2260.52 1545.58 2262.81 1543.85 Q2265.12 1542.11 2265.12 1538.8 Q2265.12 1535.75 2262.97 1534.03 Q2260.84 1532.3 2257.02 1532.3 L2252.99 1532.3 L2252.99 1528.45 L2257.21 1528.45 Q2260.65 1528.45 2262.48 1527.09 Q2264.31 1525.7 2264.31 1523.11 Q2264.31 1520.45 2262.41 1519.03 Q2260.54 1517.6 2257.02 1517.6 Q2255.1 1517.6 2252.9 1518.01 Q2250.7 1518.43 2248.06 1519.31 L2248.06 1515.14 Q2250.72 1514.4 2253.04 1514.03 Q2255.38 1513.66 2257.44 1513.66 Q2262.76 1513.66 2265.86 1516.09 Q2268.96 1518.5 2268.96 1522.62 Q2268.96 1525.49 2267.32 1527.48 Q2265.68 1529.45 2262.65 1530.21 Z" fill="#000000" fill-rule="nonzero" fill-opacity="1" /><polyline clip-path="url(#clip370)" style="stroke:#000000; stroke-linecap:round; stroke-linejoin:round; stroke-width:4; stroke-opacity:1; fill:none" points="147.478,1486.45 147.478,47.2441 "/>
<polyline clip-path="url(#clip370)" style="stroke:#000000; stroke-linecap:round; stroke-linejoin:round; stroke-width:4; stroke-opacity:1; fill:none" points="147.478,1383.12 166.376,1383.12 "/>
<polyline clip-path="url(#clip370)" style="stroke:#000000; stroke-linecap:round; stroke-linejoin:round; stroke-width:4; stroke-opacity:1; fill:none" points="147.478,1069.94 166.376,1069.94 "/>
<polyline clip-path="url(#clip370)" style="stroke:#000000; stroke-linecap:round; stroke-linejoin:round; stroke-width:4; stroke-opacity:1; fill:none" points="147.478,756.746 166.376,756.746 "/>
<polyline clip-path="url(#clip370)" style="stroke:#000000; stroke-linecap:round; stroke-linejoin:round; stroke-width:4; stroke-opacity:1; fill:none" points="147.478,443.557 166.376,443.557 "/>
<polyline clip-path="url(#clip370)" style="stroke:#000000; stroke-linecap:round; stroke-linejoin:round; stroke-width:4; stroke-opacity:1; fill:none" points="147.478,130.368 166.376,130.368 "/>
<path clip-path="url(#clip370)" d="M51.3625 1383.58 L81.0383 1383.58 L81.0383 1387.51 L51.3625 1387.51 L51.3625 1383.58 Z" fill="#000000" fill-rule="nonzero" fill-opacity="1" /><path clip-path="url(#clip370)" d="M95.1586 1396.47 L111.478 1396.47 L111.478 1400.4 L89.5336 1400.4 L89.5336 1396.47 Q92.1956 1393.71 96.7789 1389.09 Q101.385 1384.43 102.566 1383.09 Q104.811 1380.57 105.691 1378.83 Q106.594 1377.07 106.594 1375.38 Q106.594 1372.63 104.649 1370.89 Q102.728 1369.15 99.6261 1369.15 Q97.4271 1369.15 94.9734 1369.92 Q92.5428 1370.68 89.7651 1372.23 L89.7651 1367.51 Q92.5891 1366.38 95.0428 1365.8 Q97.4965 1365.22 99.5335 1365.22 Q104.904 1365.22 108.098 1367.9 Q111.293 1370.59 111.293 1375.08 Q111.293 1377.21 110.483 1379.13 Q109.696 1381.03 107.589 1383.62 Q107.01 1384.29 103.909 1387.51 Q100.807 1390.71 95.1586 1396.47 Z" fill="#000000" fill-rule="nonzero" fill-opacity="1" /><path clip-path="url(#clip370)" d="M50.9921 1070.39 L80.6679 1070.39 L80.6679 1074.32 L50.9921 1074.32 L50.9921 1070.39 Z" fill="#000000" fill-rule="nonzero" fill-opacity="1" /><path clip-path="url(#clip370)" d="M91.5706 1083.28 L99.2095 1083.28 L99.2095 1056.91 L90.8993 1058.58 L90.8993 1054.32 L99.1632 1052.66 L103.839 1052.66 L103.839 1083.28 L111.478 1083.28 L111.478 1087.22 L91.5706 1087.22 L91.5706 1083.28 Z" fill="#000000" fill-rule="nonzero" fill-opacity="1" /><path clip-path="url(#clip370)" d="M99.5335 742.545 Q95.9224 742.545 94.0937 746.11 Q92.2882 749.651 92.2882 756.781 Q92.2882 763.887 94.0937 767.452 Q95.9224 770.994 99.5335 770.994 Q103.168 770.994 104.973 767.452 Q106.802 763.887 106.802 756.781 Q106.802 749.651 104.973 746.11 Q103.168 742.545 99.5335 742.545 M99.5335 738.841 Q105.344 738.841 108.399 743.448 Q111.478 748.031 111.478 756.781 Q111.478 765.508 108.399 770.114 Q105.344 774.697 99.5335 774.697 Q93.7234 774.697 90.6447 770.114 Q87.5892 765.508 87.5892 756.781 Q87.5892 748.031 90.6447 743.448 Q93.7234 738.841 99.5335 738.841 Z" fill="#000000" fill-rule="nonzero" fill-opacity="1" /><path clip-path="url(#clip370)" d="M91.5706 456.902 L99.2095 456.902 L99.2095 430.536 L90.8993 432.203 L90.8993 427.944 L99.1632 426.277 L103.839 426.277 L103.839 456.902 L111.478 456.902 L111.478 460.837 L91.5706 460.837 L91.5706 456.902 Z" fill="#000000" fill-rule="nonzero" fill-opacity="1" /><path clip-path="url(#clip370)" d="M95.1586 143.713 L111.478 143.713 L111.478 147.648 L89.5336 147.648 L89.5336 143.713 Q92.1956 140.958 96.7789 136.328 Q101.385 131.676 102.566 130.333 Q104.811 127.81 105.691 126.074 Q106.594 124.315 106.594 122.625 Q106.594 119.87 104.649 118.134 Q102.728 116.398 99.6261 116.398 Q97.4271 116.398 94.9734 117.162 Q92.5428 117.926 89.7651 119.477 L89.7651 114.754 Q92.5891 113.62 95.0428 113.041 Q97.4965 112.463 99.5335 112.463 Q104.904 112.463 108.098 115.148 Q111.293 117.833 111.293 122.324 Q111.293 124.453 110.483 126.375 Q109.696 128.273 107.589 130.865 Q107.01 131.537 103.909 134.754 Q100.807 137.949 95.1586 143.713 Z" fill="#000000" fill-rule="nonzero" fill-opacity="1" /><circle clip-path="url(#clip371)" cx="651.787" cy="753.979" r="14.4" fill="#009af9" fill-rule="evenodd" fill-opacity="0.5" stroke="#000000" stroke-opacity="0.5" stroke-width="3.2"/>
<circle clip-path="url(#clip371)" cx="1420.65" cy="682.094" r="14.4" fill="#009af9" fill-rule="evenodd" fill-opacity="0.5" stroke="#000000" stroke-opacity="0.5" stroke-width="3.2"/>
<circle clip-path="url(#clip371)" cx="1578.9" cy="364.49" r="14.4" fill="#009af9" fill-rule="evenodd" fill-opacity="0.5" stroke="#000000" stroke-opacity="0.5" stroke-width="3.2"/>
<circle clip-path="url(#clip371)" cx="667.48" cy="585.97" r="14.4" fill="#009af9" fill-rule="evenodd" fill-opacity="0.5" stroke="#000000" stroke-opacity="0.5" stroke-width="3.2"/>
<circle clip-path="url(#clip371)" cx="1647.27" cy="1138.65" r="14.4" fill="#009af9" fill-rule="evenodd" fill-opacity="0.5" stroke="#000000" stroke-opacity="0.5" stroke-width="3.2"/>
<circle clip-path="url(#clip371)" cx="646.801" cy="736.578" r="14.4" fill="#009af9" fill-rule="evenodd" fill-opacity="0.5" stroke="#000000" stroke-opacity="0.5" stroke-width="3.2"/>
<circle clip-path="url(#clip371)" cx="2027.16" cy="382.141" r="14.4" fill="#009af9" fill-rule="evenodd" fill-opacity="0.5" stroke="#000000" stroke-opacity="0.5" stroke-width="3.2"/>
<circle clip-path="url(#clip371)" cx="1333.82" cy="895.026" r="14.4" fill="#009af9" fill-rule="evenodd" fill-opacity="0.5" stroke="#000000" stroke-opacity="0.5" stroke-width="3.2"/>
<circle clip-path="url(#clip371)" cx="2290.34" cy="970.32" r="14.4" fill="#009af9" fill-rule="evenodd" fill-opacity="0.5" stroke="#000000" stroke-opacity="0.5" stroke-width="3.2"/>
<circle clip-path="url(#clip371)" cx="1236.49" cy="546.845" r="14.4" fill="#009af9" fill-rule="evenodd" fill-opacity="0.5" stroke="#000000" stroke-opacity="0.5" stroke-width="3.2"/>
<circle clip-path="url(#clip371)" cx="209.891" cy="510.734" r="14.4" fill="#009af9" fill-rule="evenodd" fill-opacity="0.5" stroke="#000000" stroke-opacity="0.5" stroke-width="3.2"/>
<circle clip-path="url(#clip371)" cx="608.345" cy="87.9763" r="14.4" fill="#009af9" fill-rule="evenodd" fill-opacity="0.5" stroke="#000000" stroke-opacity="0.5" stroke-width="3.2"/>
<circle clip-path="url(#clip371)" cx="1164.52" cy="703.514" r="14.4" fill="#009af9" fill-rule="evenodd" fill-opacity="0.5" stroke="#000000" stroke-opacity="0.5" stroke-width="3.2"/>
<circle clip-path="url(#clip371)" cx="793.254" cy="1445.72" r="14.4" fill="#009af9" fill-rule="evenodd" fill-opacity="0.5" stroke="#000000" stroke-opacity="0.5" stroke-width="3.2"/>
<circle clip-path="url(#clip371)" cx="691.583" cy="687.556" r="14.4" fill="#009af9" fill-rule="evenodd" fill-opacity="0.5" stroke="#000000" stroke-opacity="0.5" stroke-width="3.2"/>
<circle clip-path="url(#clip371)" cx="983.234" cy="673.847" r="14.4" fill="#009af9" fill-rule="evenodd" fill-opacity="0.5" stroke="#000000" stroke-opacity="0.5" stroke-width="3.2"/>
<circle clip-path="url(#clip371)" cx="1131.72" cy="1007.02" r="14.4" fill="#009af9" fill-rule="evenodd" fill-opacity="0.5" stroke="#000000" stroke-opacity="0.5" stroke-width="3.2"/>
<circle clip-path="url(#clip371)" cx="1483.92" cy="746.552" r="14.4" fill="#009af9" fill-rule="evenodd" fill-opacity="0.5" stroke="#000000" stroke-opacity="0.5" stroke-width="3.2"/>
<circle clip-path="url(#clip371)" cx="1342.5" cy="203.084" r="14.4" fill="#009af9" fill-rule="evenodd" fill-opacity="0.5" stroke="#000000" stroke-opacity="0.5" stroke-width="3.2"/>
<circle clip-path="url(#clip371)" cx="607.129" cy="718.224" r="14.4" fill="#009af9" fill-rule="evenodd" fill-opacity="0.5" stroke="#000000" stroke-opacity="0.5" stroke-width="3.2"/>
<circle clip-path="url(#clip371)" cx="938.839" cy="885.443" r="14.4" fill="#009af9" fill-rule="evenodd" fill-opacity="0.5" stroke="#000000" stroke-opacity="0.5" stroke-width="3.2"/>
<circle clip-path="url(#clip371)" cx="1340.29" cy="925.54" r="14.4" fill="#009af9" fill-rule="evenodd" fill-opacity="0.5" stroke="#000000" stroke-opacity="0.5" stroke-width="3.2"/>
<circle clip-path="url(#clip371)" cx="319.274" cy="744.548" r="14.4" fill="#009af9" fill-rule="evenodd" fill-opacity="0.5" stroke="#000000" stroke-opacity="0.5" stroke-width="3.2"/>
<circle clip-path="url(#clip371)" cx="976.905" cy="769.786" r="14.4" fill="#009af9" fill-rule="evenodd" fill-opacity="0.5" stroke="#000000" stroke-opacity="0.5" stroke-width="3.2"/>
<circle clip-path="url(#clip371)" cx="1019.38" cy="807.495" r="14.4" fill="#009af9" fill-rule="evenodd" fill-opacity="0.5" stroke="#000000" stroke-opacity="0.5" stroke-width="3.2"/>
<circle clip-path="url(#clip371)" cx="1539.74" cy="618.546" r="14.4" fill="#009af9" fill-rule="evenodd" fill-opacity="0.5" stroke="#000000" stroke-opacity="0.5" stroke-width="3.2"/>
<circle clip-path="url(#clip371)" cx="1060.49" cy="841.567" r="14.4" fill="#009af9" fill-rule="evenodd" fill-opacity="0.5" stroke="#000000" stroke-opacity="0.5" stroke-width="3.2"/>
<circle clip-path="url(#clip371)" cx="1824.91" cy="718.635" r="14.4" fill="#009af9" fill-rule="evenodd" fill-opacity="0.5" stroke="#000000" stroke-opacity="0.5" stroke-width="3.2"/>
<circle clip-path="url(#clip371)" cx="995.702" cy="537.651" r="14.4" fill="#009af9" fill-rule="evenodd" fill-opacity="0.5" stroke="#000000" stroke-opacity="0.5" stroke-width="3.2"/>
<circle clip-path="url(#clip371)" cx="1004.53" cy="466.712" r="14.4" fill="#009af9" fill-rule="evenodd" fill-opacity="0.5" stroke="#000000" stroke-opacity="0.5" stroke-width="3.2"/>
<path clip-path="url(#clip371)" d="M209.891 510.734 L319.274 744.548 L793.254 1445.72 L2290.34 970.32 L2027.16 382.141 L1342.5 203.084 L608.345 87.9763 L209.891 510.734 L209.891 510.734  Z" fill="#e26f46" fill-rule="evenodd" fill-opacity="0.2"/>
<polyline clip-path="url(#clip371)" style="stroke:#000000; stroke-linecap:round; stroke-linejoin:round; stroke-width:4; stroke-opacity:0.2; fill:none" points="209.891,510.734 319.274,744.548 793.254,1445.72 2290.34,970.32 2027.16,382.141 1342.5,203.084 608.345,87.9763 209.891,510.734 "/>
</svg>
