<?xml version="1.0" encoding="utf-8"?>
<svg xmlns="http://www.w3.org/2000/svg" xmlns:xlink="http://www.w3.org/1999/xlink" width="600" height="400" viewBox="0 0 2400 1600">
<defs>
  <clipPath id="clip560">
    <rect x="0" y="0" width="2400" height="1600"/>
  </clipPath>
</defs>
<path clip-path="url(#clip560)" d="M0 1600 L2400 1600 L2400 0 L0 0  Z" fill="#ffffff" fill-rule="evenodd" fill-opacity="1"/>
<defs>
  <clipPath id="clip561">
    <rect x="480" y="0" width="1681" height="1600"/>
  </clipPath>
</defs>
<path clip-path="url(#clip560)" d="M193.936 1486.45 L2352.76 1486.45 L2352.76 47.2441 L193.936 47.2441  Z" fill="#ffffff" fill-rule="evenodd" fill-opacity="1"/>
<defs>
  <clipPath id="clip562">
    <rect x="193" y="47" width="2160" height="1440"/>
  </clipPath>
</defs>
<polyline clip-path="url(#clip562)" style="stroke:#000000; stroke-linecap:round; stroke-linejoin:round; stroke-width:2; stroke-opacity:0.1; fill:none" points="346.258,1486.45 346.258,47.2441 "/>
<polyline clip-path="url(#clip562)" style="stroke:#000000; stroke-linecap:round; stroke-linejoin:round; stroke-width:2; stroke-opacity:0.1; fill:none" points="849.983,1486.45 849.983,47.2441 "/>
<polyline clip-path="url(#clip562)" style="stroke:#000000; stroke-linecap:round; stroke-linejoin:round; stroke-width:2; stroke-opacity:0.1; fill:none" points="1353.71,1486.45 1353.71,47.2441 "/>
<polyline clip-path="url(#clip562)" style="stroke:#000000; stroke-linecap:round; stroke-linejoin:round; stroke-width:2; stroke-opacity:0.1; fill:none" points="1857.43,1486.45 1857.43,47.2441 "/>
<polyline clip-path="url(#clip562)" style="stroke:#000000; stroke-linecap:round; stroke-linejoin:round; stroke-width:2; stroke-opacity:0.1; fill:none" points="193.936,1353.08 2352.76,1353.08 "/>
<polyline clip-path="url(#clip562)" style="stroke:#000000; stroke-linecap:round; stroke-linejoin:round; stroke-width:2; stroke-opacity:0.1; fill:none" points="193.936,1151.75 2352.76,1151.75 "/>
<polyline clip-path="url(#clip562)" style="stroke:#000000; stroke-linecap:round; stroke-linejoin:round; stroke-width:2; stroke-opacity:0.1; fill:none" points="193.936,950.425 2352.76,950.425 "/>
<polyline clip-path="url(#clip562)" style="stroke:#000000; stroke-linecap:round; stroke-linejoin:round; stroke-width:2; stroke-opacity:0.1; fill:none" points="193.936,749.1 2352.76,749.1 "/>
<polyline clip-path="url(#clip562)" style="stroke:#000000; stroke-linecap:round; stroke-linejoin:round; stroke-width:2; stroke-opacity:0.1; fill:none" points="193.936,547.774 2352.76,547.774 "/>
<polyline clip-path="url(#clip562)" style="stroke:#000000; stroke-linecap:round; stroke-linejoin:round; stroke-width:2; stroke-opacity:0.1; fill:none" points="193.936,346.448 2352.76,346.448 "/>
<polyline clip-path="url(#clip562)" style="stroke:#000000; stroke-linecap:round; stroke-linejoin:round; stroke-width:2; stroke-opacity:0.1; fill:none" points="193.936,145.122 2352.76,145.122 "/>
<polyline clip-path="url(#clip560)" style="stroke:#000000; stroke-linecap:round; stroke-linejoin:round; stroke-width:4; stroke-opacity:1; fill:none" points="193.936,1486.45 2352.76,1486.45 "/>
<polyline clip-path="url(#clip560)" style="stroke:#000000; stroke-linecap:round; stroke-linejoin:round; stroke-width:4; stroke-opacity:1; fill:none" points="346.258,1486.45 346.258,1467.55 "/>
<polyline clip-path="url(#clip560)" style="stroke:#000000; stroke-linecap:round; stroke-linejoin:round; stroke-width:4; stroke-opacity:1; fill:none" points="849.983,1486.45 849.983,1467.55 "/>
<polyline clip-path="url(#clip560)" style="stroke:#000000; stroke-linecap:round; stroke-linejoin:round; stroke-width:4; stroke-opacity:1; fill:none" points="1353.71,1486.45 1353.71,1467.55 "/>
<polyline clip-path="url(#clip560)" style="stroke:#000000; stroke-linecap:round; stroke-linejoin:round; stroke-width:4; stroke-opacity:1; fill:none" points="1857.43,1486.45 1857.43,1467.55 "/>
<path clip-path="url(#clip560)" d="M316.2 1532.02 L345.876 1532.02 L345.876 1535.95 L316.2 1535.95 L316.2 1532.02 Z" fill="#000000" fill-rule="nonzero" fill-opacity="1" /><path clip-path="url(#clip560)" d="M359.997 1544.91 L376.316 1544.91 L376.316 1548.85 L354.372 1548.85 L354.372 1544.91 Q357.034 1542.16 361.617 1537.53 Q366.223 1532.88 367.404 1531.53 Q369.649 1529.01 370.529 1527.27 Q371.432 1525.51 371.432 1523.82 Q371.432 1521.07 369.487 1519.33 Q367.566 1517.6 364.464 1517.6 Q362.265 1517.6 359.811 1518.36 Q357.381 1519.13 354.603 1520.68 L354.603 1515.95 Q357.427 1514.82 359.881 1514.24 Q362.334 1513.66 364.371 1513.66 Q369.742 1513.66 372.936 1516.35 Q376.131 1519.03 376.131 1523.52 Q376.131 1525.65 375.321 1527.57 Q374.533 1529.47 372.427 1532.07 Q371.848 1532.74 368.746 1535.95 Q365.645 1539.15 359.997 1544.91 Z" fill="#000000" fill-rule="nonzero" fill-opacity="1" /><path clip-path="url(#clip560)" d="M819.74 1532.02 L849.416 1532.02 L849.416 1535.95 L819.74 1535.95 L819.74 1532.02 Z" fill="#000000" fill-rule="nonzero" fill-opacity="1" /><path clip-path="url(#clip560)" d="M860.319 1544.91 L867.958 1544.91 L867.958 1518.55 L859.647 1520.21 L859.647 1515.95 L867.911 1514.29 L872.587 1514.29 L872.587 1544.91 L880.226 1544.91 L880.226 1548.85 L860.319 1548.85 L860.319 1544.91 Z" fill="#000000" fill-rule="nonzero" fill-opacity="1" /><path clip-path="url(#clip560)" d="M1353.71 1517.37 Q1350.1 1517.37 1348.27 1520.93 Q1346.46 1524.47 1346.46 1531.6 Q1346.46 1538.71 1348.27 1542.27 Q1350.1 1545.82 1353.71 1545.82 Q1357.34 1545.82 1359.15 1542.27 Q1360.98 1538.71 1360.98 1531.6 Q1360.98 1524.47 1359.15 1520.93 Q1357.34 1517.37 1353.71 1517.37 M1353.71 1513.66 Q1359.52 1513.66 1362.57 1518.27 Q1365.65 1522.85 1365.65 1531.6 Q1365.65 1540.33 1362.57 1544.94 Q1359.52 1549.52 1353.71 1549.52 Q1347.9 1549.52 1344.82 1544.94 Q1341.76 1540.33 1341.76 1531.6 Q1341.76 1522.85 1344.82 1518.27 Q1347.9 1513.66 1353.71 1513.66 Z" fill="#000000" fill-rule="nonzero" fill-opacity="1" /><path clip-path="url(#clip560)" d="M1847.82 1544.91 L1855.45 1544.91 L1855.45 1518.55 L1847.14 1520.21 L1847.14 1515.95 L1855.41 1514.29 L1860.08 1514.29 L1860.08 1544.91 L1867.72 1544.91 L1867.72 1548.85 L1847.82 1548.85 L1847.82 1544.91 Z" fill="#000000" fill-rule="nonzero" fill-opacity="1" /><polyline clip-path="url(#clip560)" style="stroke:#000000; stroke-linecap:round; stroke-linejoin:round; stroke-width:4; stroke-opacity:1; fill:none" points="193.936,1486.45 193.936,47.2441 "/>
<polyline clip-path="url(#clip560)" style="stroke:#000000; stroke-linecap:round; stroke-linejoin:round; stroke-width:4; stroke-opacity:1; fill:none" points="193.936,1353.08 212.834,1353.08 "/>
<polyline clip-path="url(#clip560)" style="stroke:#000000; stroke-linecap:round; stroke-linejoin:round; stroke-width:4; stroke-opacity:1; fill:none" points="193.936,1151.75 212.834,1151.75 "/>
<polyline clip-path="url(#clip560)" style="stroke:#000000; stroke-linecap:round; stroke-linejoin:round; stroke-width:4; stroke-opacity:1; fill:none" points="193.936,950.425 212.834,950.425 "/>
<polyline clip-path="url(#clip560)" style="stroke:#000000; stroke-linecap:round; stroke-linejoin:round; stroke-width:4; stroke-opacity:1; fill:none" points="193.936,749.1 212.834,749.1 "/>
<polyline clip-path="url(#clip560)" style="stroke:#000000; stroke-linecap:round; stroke-linejoin:round; stroke-width:4; stroke-opacity:1; fill:none" points="193.936,547.774 212.834,547.774 "/>
<polyline clip-path="url(#clip560)" style="stroke:#000000; stroke-linecap:round; stroke-linejoin:round; stroke-width:4; stroke-opacity:1; fill:none" points="193.936,346.448 212.834,346.448 "/>
<polyline clip-path="url(#clip560)" style="stroke:#000000; stroke-linecap:round; stroke-linejoin:round; stroke-width:4; stroke-opacity:1; fill:none" points="193.936,145.122 212.834,145.122 "/>
<path clip-path="url(#clip560)" d="M51.9875 1353.53 L81.6633 1353.53 L81.6633 1357.46 L51.9875 1357.46 L51.9875 1353.53 Z" fill="#000000" fill-rule="nonzero" fill-opacity="1" /><path clip-path="url(#clip560)" d="M92.566 1366.42 L100.205 1366.42 L100.205 1340.06 L91.8947 1341.72 L91.8947 1337.46 L100.159 1335.8 L104.834 1335.8 L104.834 1366.42 L112.473 1366.42 L112.473 1370.36 L92.566 1370.36 L92.566 1366.42 Z" fill="#000000" fill-rule="nonzero" fill-opacity="1" /><path clip-path="url(#clip560)" d="M121.918 1364.48 L126.802 1364.48 L126.802 1370.36 L121.918 1370.36 L121.918 1364.48 Z" fill="#000000" fill-rule="nonzero" fill-opacity="1" /><path clip-path="url(#clip560)" d="M137.033 1335.8 L155.39 1335.8 L155.39 1339.73 L141.316 1339.73 L141.316 1348.2 Q142.334 1347.86 143.353 1347.7 Q144.371 1347.51 145.39 1347.51 Q151.177 1347.51 154.556 1350.68 Q157.936 1353.85 157.936 1359.27 Q157.936 1364.85 154.464 1367.95 Q150.992 1371.03 144.672 1371.03 Q142.496 1371.03 140.228 1370.66 Q137.982 1370.29 135.575 1369.55 L135.575 1364.85 Q137.658 1365.98 139.881 1366.54 Q142.103 1367.09 144.58 1367.09 Q148.584 1367.09 150.922 1364.99 Q153.26 1362.88 153.26 1359.27 Q153.26 1355.66 150.922 1353.55 Q148.584 1351.45 144.58 1351.45 Q142.705 1351.45 140.83 1351.86 Q138.978 1352.28 137.033 1353.16 L137.033 1335.8 Z" fill="#000000" fill-rule="nonzero" fill-opacity="1" /><path clip-path="url(#clip560)" d="M50.9921 1152.2 L80.6679 1152.2 L80.6679 1156.14 L50.9921 1156.14 L50.9921 1152.2 Z" fill="#000000" fill-rule="nonzero" fill-opacity="1" /><path clip-path="url(#clip560)" d="M91.5706 1165.1 L99.2095 1165.1 L99.2095 1138.73 L90.8993 1140.4 L90.8993 1136.14 L99.1632 1134.47 L103.839 1134.47 L103.839 1165.1 L111.478 1165.1 L111.478 1169.03 L91.5706 1169.03 L91.5706 1165.1 Z" fill="#000000" fill-rule="nonzero" fill-opacity="1" /><path clip-path="url(#clip560)" d="M120.922 1163.15 L125.807 1163.15 L125.807 1169.03 L120.922 1169.03 L120.922 1163.15 Z" fill="#000000" fill-rule="nonzero" fill-opacity="1" /><path clip-path="url(#clip560)" d="M145.992 1137.55 Q142.381 1137.55 140.552 1141.11 Q138.746 1144.66 138.746 1151.79 Q138.746 1158.89 140.552 1162.46 Q142.381 1166 145.992 1166 Q149.626 1166 151.431 1162.46 Q153.26 1158.89 153.26 1151.79 Q153.26 1144.66 151.431 1141.11 Q149.626 1137.55 145.992 1137.55 M145.992 1133.85 Q151.802 1133.85 154.857 1138.45 Q157.936 1143.04 157.936 1151.79 Q157.936 1160.51 154.857 1165.12 Q151.802 1169.7 145.992 1169.7 Q140.181 1169.7 137.103 1165.12 Q134.047 1160.51 134.047 1151.79 Q134.047 1143.04 137.103 1138.45 Q140.181 1133.85 145.992 1133.85 Z" fill="#000000" fill-rule="nonzero" fill-opacity="1" /><path clip-path="url(#clip560)" d="M51.9875 950.877 L81.6633 950.877 L81.6633 954.812 L51.9875 954.812 L51.9875 950.877 Z" fill="#000000" fill-rule="nonzero" fill-opacity="1" /><path clip-path="url(#clip560)" d="M101.756 936.224 Q98.1447 936.224 96.316 939.789 Q94.5104 943.331 94.5104 950.46 Q94.5104 957.567 96.316 961.131 Q98.1447 964.673 101.756 964.673 Q105.39 964.673 107.196 961.131 Q109.024 957.567 109.024 950.46 Q109.024 943.331 107.196 939.789 Q105.39 936.224 101.756 936.224 M101.756 932.52 Q107.566 932.52 110.621 937.127 Q113.7 941.71 113.7 950.46 Q113.7 959.187 110.621 963.793 Q107.566 968.377 101.756 968.377 Q95.9456 968.377 92.8669 963.793 Q89.8114 959.187 89.8114 950.46 Q89.8114 941.71 92.8669 937.127 Q95.9456 932.52 101.756 932.52 Z" fill="#000000" fill-rule="nonzero" fill-opacity="1" /><path clip-path="url(#clip560)" d="M121.918 961.826 L126.802 961.826 L126.802 967.705 L121.918 967.705 L121.918 961.826 Z" fill="#000000" fill-rule="nonzero" fill-opacity="1" /><path clip-path="url(#clip560)" d="M137.033 933.145 L155.39 933.145 L155.39 937.081 L141.316 937.081 L141.316 945.553 Q142.334 945.206 143.353 945.044 Q144.371 944.858 145.39 944.858 Q151.177 944.858 154.556 948.03 Q157.936 951.201 157.936 956.618 Q157.936 962.196 154.464 965.298 Q150.992 968.377 144.672 968.377 Q142.496 968.377 140.228 968.006 Q137.982 967.636 135.575 966.895 L135.575 962.196 Q137.658 963.331 139.881 963.886 Q142.103 964.442 144.58 964.442 Q148.584 964.442 150.922 962.335 Q153.26 960.229 153.26 956.618 Q153.26 953.007 150.922 950.9 Q148.584 948.794 144.58 948.794 Q142.705 948.794 140.83 949.21 Q138.978 949.627 137.033 950.507 L137.033 933.145 Z" fill="#000000" fill-rule="nonzero" fill-opacity="1" /><path clip-path="url(#clip560)" d="M100.76 734.898 Q97.1493 734.898 95.3206 738.463 Q93.515 742.005 93.515 749.134 Q93.515 756.241 95.3206 759.806 Q97.1493 763.347 100.76 763.347 Q104.395 763.347 106.2 759.806 Q108.029 756.241 108.029 749.134 Q108.029 742.005 106.2 738.463 Q104.395 734.898 100.76 734.898 M100.76 731.195 Q106.571 731.195 109.626 735.801 Q112.705 740.384 112.705 749.134 Q112.705 757.861 109.626 762.468 Q106.571 767.051 100.76 767.051 Q94.9502 767.051 91.8715 762.468 Q88.816 757.861 88.816 749.134 Q88.816 740.384 91.8715 735.801 Q94.9502 731.195 100.76 731.195 Z" fill="#000000" fill-rule="nonzero" fill-opacity="1" /><path clip-path="url(#clip560)" d="M120.922 760.5 L125.807 760.5 L125.807 766.38 L120.922 766.38 L120.922 760.5 Z" fill="#000000" fill-rule="nonzero" fill-opacity="1" /><path clip-path="url(#clip560)" d="M145.992 734.898 Q142.381 734.898 140.552 738.463 Q138.746 742.005 138.746 749.134 Q138.746 756.241 140.552 759.806 Q142.381 763.347 145.992 763.347 Q149.626 763.347 151.431 759.806 Q153.26 756.241 153.26 749.134 Q153.26 742.005 151.431 738.463 Q149.626 734.898 145.992 734.898 M145.992 731.195 Q151.802 731.195 154.857 735.801 Q157.936 740.384 157.936 749.134 Q157.936 757.861 154.857 762.468 Q151.802 767.051 145.992 767.051 Q140.181 767.051 137.103 762.468 Q134.047 757.861 134.047 749.134 Q134.047 740.384 137.103 735.801 Q140.181 731.195 145.992 731.195 Z" fill="#000000" fill-rule="nonzero" fill-opacity="1" /><path clip-path="url(#clip560)" d="M101.756 533.573 Q98.1447 533.573 96.316 537.137 Q94.5104 540.679 94.5104 547.809 Q94.5104 554.915 96.316 558.48 Q98.1447 562.021 101.756 562.021 Q105.39 562.021 107.196 558.48 Q109.024 554.915 109.024 547.809 Q109.024 540.679 107.196 537.137 Q105.39 533.573 101.756 533.573 M101.756 529.869 Q107.566 529.869 110.621 534.475 Q113.7 539.059 113.7 547.809 Q113.7 556.535 110.621 561.142 Q107.566 565.725 101.756 565.725 Q95.9456 565.725 92.8669 561.142 Q89.8114 556.535 89.8114 547.809 Q89.8114 539.059 92.8669 534.475 Q95.9456 529.869 101.756 529.869 Z" fill="#000000" fill-rule="nonzero" fill-opacity="1" /><path clip-path="url(#clip560)" d="M121.918 559.174 L126.802 559.174 L126.802 565.054 L121.918 565.054 L121.918 559.174 Z" fill="#000000" fill-rule="nonzero" fill-opacity="1" /><path clip-path="url(#clip560)" d="M137.033 530.494 L155.39 530.494 L155.39 534.429 L141.316 534.429 L141.316 542.901 Q142.334 542.554 143.353 542.392 Q144.371 542.207 145.39 542.207 Q151.177 542.207 154.556 545.378 Q157.936 548.549 157.936 553.966 Q157.936 559.545 154.464 562.646 Q150.992 565.725 144.672 565.725 Q142.496 565.725 140.228 565.355 Q137.982 564.984 135.575 564.244 L135.575 559.545 Q137.658 560.679 139.881 561.234 Q142.103 561.79 144.58 561.79 Q148.584 561.79 150.922 559.684 Q153.26 557.577 153.26 553.966 Q153.26 550.355 150.922 548.248 Q148.584 546.142 144.58 546.142 Q142.705 546.142 140.83 546.559 Q138.978 546.975 137.033 547.855 L137.033 530.494 Z" fill="#000000" fill-rule="nonzero" fill-opacity="1" /><path clip-path="url(#clip560)" d="M91.5706 359.793 L99.2095 359.793 L99.2095 333.427 L90.8993 335.094 L90.8993 330.835 L99.1632 329.168 L103.839 329.168 L103.839 359.793 L111.478 359.793 L111.478 363.728 L91.5706 363.728 L91.5706 359.793 Z" fill="#000000" fill-rule="nonzero" fill-opacity="1" /><path clip-path="url(#clip560)" d="M120.922 357.848 L125.807 357.848 L125.807 363.728 L120.922 363.728 L120.922 357.848 Z" fill="#000000" fill-rule="nonzero" fill-opacity="1" /><path clip-path="url(#clip560)" d="M145.992 332.247 Q142.381 332.247 140.552 335.812 Q138.746 339.353 138.746 346.483 Q138.746 353.589 140.552 357.154 Q142.381 360.696 145.992 360.696 Q149.626 360.696 151.431 357.154 Q153.26 353.589 153.26 346.483 Q153.26 339.353 151.431 335.812 Q149.626 332.247 145.992 332.247 M145.992 328.543 Q151.802 328.543 154.857 333.15 Q157.936 337.733 157.936 346.483 Q157.936 355.21 154.857 359.816 Q151.802 364.399 145.992 364.399 Q140.181 364.399 137.103 359.816 Q134.047 355.21 134.047 346.483 Q134.047 337.733 137.103 333.15 Q140.181 328.543 145.992 328.543 Z" fill="#000000" fill-rule="nonzero" fill-opacity="1" /><path clip-path="url(#clip560)" d="M92.566 158.467 L100.205 158.467 L100.205 132.101 L91.8947 133.768 L91.8947 129.509 L100.159 127.842 L104.834 127.842 L104.834 158.467 L112.473 158.467 L112.473 162.402 L92.566 162.402 L92.566 158.467 Z" fill="#000000" fill-rule="nonzero" fill-opacity="1" /><path clip-path="url(#clip560)" d="M121.918 156.523 L126.802 156.523 L126.802 162.402 L121.918 162.402 L121.918 156.523 Z" fill="#000000" fill-rule="nonzero" fill-opacity="1" /><path clip-path="url(#clip560)" d="M137.033 127.842 L155.39 127.842 L155.39 131.777 L141.316 131.777 L141.316 140.25 Q142.334 139.902 143.353 139.74 Q144.371 139.555 145.39 139.555 Q151.177 139.555 154.556 142.726 Q157.936 145.898 157.936 151.314 Q157.936 156.893 154.464 159.995 Q150.992 163.074 144.672 163.074 Q142.496 163.074 140.228 162.703 Q137.982 162.333 135.575 161.592 L135.575 156.893 Q137.658 158.027 139.881 158.583 Q142.103 159.138 144.58 159.138 Q148.584 159.138 150.922 157.032 Q153.26 154.925 153.26 151.314 Q153.26 147.703 150.922 145.597 Q148.584 143.49 144.58 143.49 Q142.705 143.49 140.83 143.907 Q138.978 144.324 137.033 145.203 L137.033 127.842 Z" fill="#000000" fill-rule="nonzero" fill-opacity="1" /><circle clip-path="url(#clip562)" cx="1069.53" cy="1230.31" r="14.4" fill="#009af9" fill-rule="evenodd" fill-opacity="0.5" stroke="#000000" stroke-opacity="0.5" stroke-width="3.2"/>
<circle clip-path="url(#clip562)" cx="1887.11" cy="339.41" r="14.4" fill="#009af9" fill-rule="evenodd" fill-opacity="0.5" stroke="#000000" stroke-opacity="0.5" stroke-width="3.2"/>
<circle clip-path="url(#clip562)" cx="255.035" cy="654.649" r="14.4" fill="#009af9" fill-rule="evenodd" fill-opacity="0.5" stroke="#000000" stroke-opacity="0.5" stroke-width="3.2"/>
<circle clip-path="url(#clip562)" cx="860.878" cy="165.115" r="14.4" fill="#009af9" fill-rule="evenodd" fill-opacity="0.5" stroke="#000000" stroke-opacity="0.5" stroke-width="3.2"/>
<circle clip-path="url(#clip562)" cx="1749.45" cy="805.7" r="14.4" fill="#009af9" fill-rule="evenodd" fill-opacity="0.5" stroke="#000000" stroke-opacity="0.5" stroke-width="3.2"/>
<circle clip-path="url(#clip562)" cx="476.29" cy="1080.95" r="14.4" fill="#009af9" fill-rule="evenodd" fill-opacity="0.5" stroke="#000000" stroke-opacity="0.5" stroke-width="3.2"/>
<circle clip-path="url(#clip562)" cx="2291.66" cy="1191.29" r="14.4" fill="#009af9" fill-rule="evenodd" fill-opacity="0.5" stroke="#000000" stroke-opacity="0.5" stroke-width="3.2"/>
<circle clip-path="url(#clip562)" cx="877.918" cy="87.9763" r="14.4" fill="#009af9" fill-rule="evenodd" fill-opacity="0.5" stroke="#000000" stroke-opacity="0.5" stroke-width="3.2"/>
<circle clip-path="url(#clip562)" cx="1003.21" cy="569.918" r="14.4" fill="#009af9" fill-rule="evenodd" fill-opacity="0.5" stroke="#000000" stroke-opacity="0.5" stroke-width="3.2"/>
<circle clip-path="url(#clip562)" cx="2083.95" cy="1097.82" r="14.4" fill="#009af9" fill-rule="evenodd" fill-opacity="0.5" stroke="#000000" stroke-opacity="0.5" stroke-width="3.2"/>
<circle clip-path="url(#clip562)" cx="459.875" cy="575.503" r="14.4" fill="#009af9" fill-rule="evenodd" fill-opacity="0.5" stroke="#000000" stroke-opacity="0.5" stroke-width="3.2"/>
<circle clip-path="url(#clip562)" cx="522.518" cy="1392.67" r="14.4" fill="#009af9" fill-rule="evenodd" fill-opacity="0.5" stroke="#000000" stroke-opacity="0.5" stroke-width="3.2"/>
<circle clip-path="url(#clip562)" cx="880.842" cy="873.094" r="14.4" fill="#009af9" fill-rule="evenodd" fill-opacity="0.5" stroke="#000000" stroke-opacity="0.5" stroke-width="3.2"/>
<circle clip-path="url(#clip562)" cx="1500.24" cy="874.213" r="14.4" fill="#009af9" fill-rule="evenodd" fill-opacity="0.5" stroke="#000000" stroke-opacity="0.5" stroke-width="3.2"/>
<circle clip-path="url(#clip562)" cx="1042.24" cy="454.277" r="14.4" fill="#009af9" fill-rule="evenodd" fill-opacity="0.5" stroke="#000000" stroke-opacity="0.5" stroke-width="3.2"/>
<circle clip-path="url(#clip562)" cx="1639.36" cy="866.823" r="14.4" fill="#009af9" fill-rule="evenodd" fill-opacity="0.5" stroke="#000000" stroke-opacity="0.5" stroke-width="3.2"/>
<circle clip-path="url(#clip562)" cx="1674.85" cy="694.862" r="14.4" fill="#009af9" fill-rule="evenodd" fill-opacity="0.5" stroke="#000000" stroke-opacity="0.5" stroke-width="3.2"/>
<circle clip-path="url(#clip562)" cx="1863.77" cy="544.76" r="14.4" fill="#009af9" fill-rule="evenodd" fill-opacity="0.5" stroke="#000000" stroke-opacity="0.5" stroke-width="3.2"/>
<circle clip-path="url(#clip562)" cx="1147.39" cy="709.469" r="14.4" fill="#009af9" fill-rule="evenodd" fill-opacity="0.5" stroke="#000000" stroke-opacity="0.5" stroke-width="3.2"/>
<circle clip-path="url(#clip562)" cx="1357.65" cy="631.682" r="14.4" fill="#009af9" fill-rule="evenodd" fill-opacity="0.5" stroke="#000000" stroke-opacity="0.5" stroke-width="3.2"/>
<circle clip-path="url(#clip562)" cx="712.894" cy="447.363" r="14.4" fill="#009af9" fill-rule="evenodd" fill-opacity="0.5" stroke="#000000" stroke-opacity="0.5" stroke-width="3.2"/>
<circle clip-path="url(#clip562)" cx="1279.22" cy="1395.35" r="14.4" fill="#009af9" fill-rule="evenodd" fill-opacity="0.5" stroke="#000000" stroke-opacity="0.5" stroke-width="3.2"/>
<circle clip-path="url(#clip562)" cx="359.441" cy="388.76" r="14.4" fill="#009af9" fill-rule="evenodd" fill-opacity="0.5" stroke="#000000" stroke-opacity="0.5" stroke-width="3.2"/>
<circle clip-path="url(#clip562)" cx="1638.79" cy="864.914" r="14.4" fill="#009af9" fill-rule="evenodd" fill-opacity="0.5" stroke="#000000" stroke-opacity="0.5" stroke-width="3.2"/>
<circle clip-path="url(#clip562)" cx="1461.1" cy="1036.74" r="14.4" fill="#009af9" fill-rule="evenodd" fill-opacity="0.5" stroke="#000000" stroke-opacity="0.5" stroke-width="3.2"/>
<circle clip-path="url(#clip562)" cx="1954.6" cy="956.53" r="14.4" fill="#009af9" fill-rule="evenodd" fill-opacity="0.5" stroke="#000000" stroke-opacity="0.5" stroke-width="3.2"/>
<circle clip-path="url(#clip562)" cx="1891.5" cy="388.023" r="14.4" fill="#009af9" fill-rule="evenodd" fill-opacity="0.5" stroke="#000000" stroke-opacity="0.5" stroke-width="3.2"/>
<circle clip-path="url(#clip562)" cx="650.002" cy="1445.72" r="14.4" fill="#009af9" fill-rule="evenodd" fill-opacity="0.5" stroke="#000000" stroke-opacity="0.5" stroke-width="3.2"/>
<circle clip-path="url(#clip562)" cx="1519.77" cy="936.863" r="14.4" fill="#009af9" fill-rule="evenodd" fill-opacity="0.5" stroke="#000000" stroke-opacity="0.5" stroke-width="3.2"/>
<circle clip-path="url(#clip562)" cx="1269.09" cy="104.218" r="14.4" fill="#009af9" fill-rule="evenodd" fill-opacity="0.5" stroke="#000000" stroke-opacity="0.5" stroke-width="3.2"/>
<path clip-path="url(#clip562)" d="M255.035 654.649 L522.518 1392.67 L650.002 1445.72 L1279.22 1395.35 L2291.66 1191.29 L1887.11 339.41 L1269.09 104.218 L877.918 87.9763 L359.441 388.76 L255.035 654.649 L255.035 654.649  Z" fill="#e26f46" fill-rule="evenodd" fill-opacity="0.2"/>
<polyline clip-path="url(#clip562)" style="stroke:#000000; stroke-linecap:round; stroke-linejoin:round; stroke-width:4; stroke-opacity:0.2; fill:none" points="255.035,654.649 522.518,1392.67 650.002,1445.72 1279.22,1395.35 2291.66,1191.29 1887.11,339.41 1269.09,104.218 877.918,87.9763 359.441,388.76 255.035,654.649 "/>
</svg>
