<?xml version="1.0" encoding="utf-8"?>
<svg xmlns="http://www.w3.org/2000/svg" xmlns:xlink="http://www.w3.org/1999/xlink" width="600" height="400" viewBox="0 0 2400 1600">
<defs>
  <clipPath id="clip400">
    <rect x="0" y="0" width="2400" height="1600"/>
  </clipPath>
</defs>
<path clip-path="url(#clip400)" d="M0 1600 L2400 1600 L2400 0 L0 0  Z" fill="#ffffff" fill-rule="evenodd" fill-opacity="1"/>
<defs>
  <clipPath id="clip401">
    <rect x="480" y="0" width="1681" height="1600"/>
  </clipPath>
</defs>
<path clip-path="url(#clip400)" d="M147.478 1486.45 L2352.76 1486.45 L2352.76 47.2441 L147.478 47.2441  Z" fill="#ffffff" fill-rule="evenodd" fill-opacity="1"/>
<defs>
  <clipPath id="clip402">
    <rect x="147" y="47" width="2206" height="1440"/>
  </clipPath>
</defs>
<polyline clip-path="url(#clip402)" style="stroke:#000000; stroke-linecap:round; stroke-linejoin:round; stroke-width:2; stroke-opacity:0.1; fill:none" points="302.849,1486.45 302.849,47.2441 "/>
<polyline clip-path="url(#clip402)" style="stroke:#000000; stroke-linecap:round; stroke-linejoin:round; stroke-width:2; stroke-opacity:0.1; fill:none" points="835.26,1486.45 835.26,47.2441 "/>
<polyline clip-path="url(#clip402)" style="stroke:#000000; stroke-linecap:round; stroke-linejoin:round; stroke-width:2; stroke-opacity:0.1; fill:none" points="1367.67,1486.45 1367.67,47.2441 "/>
<polyline clip-path="url(#clip402)" style="stroke:#000000; stroke-linecap:round; stroke-linejoin:round; stroke-width:2; stroke-opacity:0.1; fill:none" points="1900.08,1486.45 1900.08,47.2441 "/>
<polyline clip-path="url(#clip402)" style="stroke:#000000; stroke-linecap:round; stroke-linejoin:round; stroke-width:2; stroke-opacity:0.1; fill:none" points="147.478,1229.87 2352.76,1229.87 "/>
<polyline clip-path="url(#clip402)" style="stroke:#000000; stroke-linecap:round; stroke-linejoin:round; stroke-width:2; stroke-opacity:0.1; fill:none" points="147.478,950.19 2352.76,950.19 "/>
<polyline clip-path="url(#clip402)" style="stroke:#000000; stroke-linecap:round; stroke-linejoin:round; stroke-width:2; stroke-opacity:0.1; fill:none" points="147.478,670.507 2352.76,670.507 "/>
<polyline clip-path="url(#clip402)" style="stroke:#000000; stroke-linecap:round; stroke-linejoin:round; stroke-width:2; stroke-opacity:0.1; fill:none" points="147.478,390.824 2352.76,390.824 "/>
<polyline clip-path="url(#clip402)" style="stroke:#000000; stroke-linecap:round; stroke-linejoin:round; stroke-width:2; stroke-opacity:0.1; fill:none" points="147.478,111.141 2352.76,111.141 "/>
<polyline clip-path="url(#clip400)" style="stroke:#000000; stroke-linecap:round; stroke-linejoin:round; stroke-width:4; stroke-opacity:1; fill:none" points="147.478,1486.45 2352.76,1486.45 "/>
<polyline clip-path="url(#clip400)" style="stroke:#000000; stroke-linecap:round; stroke-linejoin:round; stroke-width:4; stroke-opacity:1; fill:none" points="302.849,1486.45 302.849,1467.55 "/>
<polyline clip-path="url(#clip400)" style="stroke:#000000; stroke-linecap:round; stroke-linejoin:round; stroke-width:4; stroke-opacity:1; fill:none" points="835.26,1486.45 835.26,1467.55 "/>
<polyline clip-path="url(#clip400)" style="stroke:#000000; stroke-linecap:round; stroke-linejoin:round; stroke-width:4; stroke-opacity:1; fill:none" points="1367.67,1486.45 1367.67,1467.55 "/>
<polyline clip-path="url(#clip400)" style="stroke:#000000; stroke-linecap:round; stroke-linejoin:round; stroke-width:4; stroke-opacity:1; fill:none" points="1900.08,1486.45 1900.08,1467.55 "/>
<path clip-path="url(#clip400)" d="M272.791 1532.02 L302.467 1532.02 L302.467 1535.95 L272.791 1535.95 L272.791 1532.02 Z" fill="#000000" fill-rule="nonzero" fill-opacity="1" /><path clip-path="url(#clip400)" d="M316.587 1544.91 L332.906 1544.91 L332.906 1548.85 L310.962 1548.85 L310.962 1544.91 Q313.624 1542.16 318.207 1537.53 Q322.814 1532.88 323.994 1531.53 Q326.24 1529.01 327.119 1527.27 Q328.022 1525.51 328.022 1523.82 Q328.022 1521.07 326.078 1519.33 Q324.156 1517.6 321.054 1517.6 Q318.855 1517.6 316.402 1518.36 Q313.971 1519.13 311.193 1520.68 L311.193 1515.95 Q314.017 1514.82 316.471 1514.24 Q318.925 1513.66 320.962 1513.66 Q326.332 1513.66 329.527 1516.35 Q332.721 1519.03 332.721 1523.52 Q332.721 1525.65 331.911 1527.57 Q331.124 1529.47 329.017 1532.07 Q328.439 1532.74 325.337 1535.95 Q322.235 1539.15 316.587 1544.91 Z" fill="#000000" fill-rule="nonzero" fill-opacity="1" /><path clip-path="url(#clip400)" d="M805.018 1532.02 L834.693 1532.02 L834.693 1535.95 L805.018 1535.95 L805.018 1532.02 Z" fill="#000000" fill-rule="nonzero" fill-opacity="1" /><path clip-path="url(#clip400)" d="M845.596 1544.91 L853.235 1544.91 L853.235 1518.55 L844.925 1520.21 L844.925 1515.95 L853.189 1514.29 L857.864 1514.29 L857.864 1544.91 L865.503 1544.91 L865.503 1548.85 L845.596 1548.85 L845.596 1544.91 Z" fill="#000000" fill-rule="nonzero" fill-opacity="1" /><path clip-path="url(#clip400)" d="M1367.67 1517.37 Q1364.06 1517.37 1362.23 1520.93 Q1360.43 1524.47 1360.43 1531.6 Q1360.43 1538.71 1362.23 1542.27 Q1364.06 1545.82 1367.67 1545.82 Q1371.31 1545.82 1373.11 1542.27 Q1374.94 1538.71 1374.94 1531.6 Q1374.94 1524.47 1373.11 1520.93 Q1371.31 1517.37 1367.67 1517.37 M1367.67 1513.66 Q1373.48 1513.66 1376.54 1518.27 Q1379.62 1522.85 1379.62 1531.6 Q1379.62 1540.33 1376.54 1544.94 Q1373.48 1549.52 1367.67 1549.52 Q1361.86 1549.52 1358.78 1544.94 Q1355.73 1540.33 1355.73 1531.6 Q1355.73 1522.85 1358.78 1518.27 Q1361.86 1513.66 1367.67 1513.66 Z" fill="#000000" fill-rule="nonzero" fill-opacity="1" /><path clip-path="url(#clip400)" d="M1890.47 1544.91 L1898.1 1544.91 L1898.1 1518.55 L1889.79 1520.21 L1889.79 1515.95 L1898.06 1514.29 L1902.73 1514.29 L1902.73 1544.91 L1910.37 1544.91 L1910.37 1548.85 L1890.47 1548.85 L1890.47 1544.91 Z" fill="#000000" fill-rule="nonzero" fill-opacity="1" /><polyline clip-path="url(#clip400)" style="stroke:#000000; stroke-linecap:round; stroke-linejoin:round; stroke-width:4; stroke-opacity:1; fill:none" points="147.478,1486.45 147.478,47.2441 "/>
<polyline clip-path="url(#clip400)" style="stroke:#000000; stroke-linecap:round; stroke-linejoin:round; stroke-width:4; stroke-opacity:1; fill:none" points="147.478,1229.87 166.376,1229.87 "/>
<polyline clip-path="url(#clip400)" style="stroke:#000000; stroke-linecap:round; stroke-linejoin:round; stroke-width:4; stroke-opacity:1; fill:none" points="147.478,950.19 166.376,950.19 "/>
<polyline clip-path="url(#clip400)" style="stroke:#000000; stroke-linecap:round; stroke-linejoin:round; stroke-width:4; stroke-opacity:1; fill:none" points="147.478,670.507 166.376,670.507 "/>
<polyline clip-path="url(#clip400)" style="stroke:#000000; stroke-linecap:round; stroke-linejoin:round; stroke-width:4; stroke-opacity:1; fill:none" points="147.478,390.824 166.376,390.824 "/>
<polyline clip-path="url(#clip400)" style="stroke:#000000; stroke-linecap:round; stroke-linejoin:round; stroke-width:4; stroke-opacity:1; fill:none" points="147.478,111.141 166.376,111.141 "/>
<path clip-path="url(#clip400)" d="M51.3625 1230.32 L81.0383 1230.32 L81.0383 1234.26 L51.3625 1234.26 L51.3625 1230.32 Z" fill="#000000" fill-rule="nonzero" fill-opacity="1" /><path clip-path="url(#clip400)" d="M95.1586 1243.22 L111.478 1243.22 L111.478 1247.15 L89.5336 1247.15 L89.5336 1243.22 Q92.1956 1240.46 96.7789 1235.83 Q101.385 1231.18 102.566 1229.84 Q104.811 1227.31 105.691 1225.58 Q106.594 1223.82 106.594 1222.13 Q106.594 1219.37 104.649 1217.64 Q102.728 1215.9 99.6261 1215.9 Q97.4271 1215.9 94.9734 1216.67 Q92.5428 1217.43 89.7651 1218.98 L89.7651 1214.26 Q92.5891 1213.12 95.0428 1212.55 Q97.4965 1211.97 99.5335 1211.97 Q104.904 1211.97 108.098 1214.65 Q111.293 1217.34 111.293 1221.83 Q111.293 1223.96 110.483 1225.88 Q109.696 1227.78 107.589 1230.37 Q107.01 1231.04 103.909 1234.26 Q100.807 1237.45 95.1586 1243.22 Z" fill="#000000" fill-rule="nonzero" fill-opacity="1" /><path clip-path="url(#clip400)" d="M50.9921 950.641 L80.6679 950.641 L80.6679 954.576 L50.9921 954.576 L50.9921 950.641 Z" fill="#000000" fill-rule="nonzero" fill-opacity="1" /><path clip-path="url(#clip400)" d="M91.5706 963.534 L99.2095 963.534 L99.2095 937.169 L90.8993 938.836 L90.8993 934.576 L99.1632 932.91 L103.839 932.91 L103.839 963.534 L111.478 963.534 L111.478 967.47 L91.5706 967.47 L91.5706 963.534 Z" fill="#000000" fill-rule="nonzero" fill-opacity="1" /><path clip-path="url(#clip400)" d="M99.5335 656.306 Q95.9224 656.306 94.0937 659.87 Q92.2882 663.412 92.2882 670.542 Q92.2882 677.648 94.0937 681.213 Q95.9224 684.754 99.5335 684.754 Q103.168 684.754 104.973 681.213 Q106.802 677.648 106.802 670.542 Q106.802 663.412 104.973 659.87 Q103.168 656.306 99.5335 656.306 M99.5335 652.602 Q105.344 652.602 108.399 657.208 Q111.478 661.792 111.478 670.542 Q111.478 679.268 108.399 683.875 Q105.344 688.458 99.5335 688.458 Q93.7234 688.458 90.6447 683.875 Q87.5892 679.268 87.5892 670.542 Q87.5892 661.792 90.6447 657.208 Q93.7234 652.602 99.5335 652.602 Z" fill="#000000" fill-rule="nonzero" fill-opacity="1" /><path clip-path="url(#clip400)" d="M91.5706 404.169 L99.2095 404.169 L99.2095 377.803 L90.8993 379.47 L90.8993 375.211 L99.1632 373.544 L103.839 373.544 L103.839 404.169 L111.478 404.169 L111.478 408.104 L91.5706 408.104 L91.5706 404.169 Z" fill="#000000" fill-rule="nonzero" fill-opacity="1" /><path clip-path="url(#clip400)" d="M95.1586 124.486 L111.478 124.486 L111.478 128.421 L89.5336 128.421 L89.5336 124.486 Q92.1956 121.731 96.7789 117.102 Q101.385 112.449 102.566 111.106 Q104.811 108.583 105.691 106.847 Q106.594 105.088 106.594 103.398 Q106.594 100.644 104.649 98.9074 Q102.728 97.1713 99.6261 97.1713 Q97.4271 97.1713 94.9734 97.9352 Q92.5428 98.6991 89.7651 100.25 L89.7651 95.5278 Q92.5891 94.3936 95.0428 93.8149 Q97.4965 93.2362 99.5335 93.2362 Q104.904 93.2362 108.098 95.9213 Q111.293 98.6065 111.293 103.097 Q111.293 105.227 110.483 107.148 Q109.696 109.046 107.589 111.639 Q107.01 112.31 103.909 115.528 Q100.807 118.722 95.1586 124.486 Z" fill="#000000" fill-rule="nonzero" fill-opacity="1" /><circle clip-path="url(#clip402)" cx="1204.51" cy="491.65" r="14.4" fill="#009af9" fill-rule="evenodd" fill-opacity="0.5" stroke="#000000" stroke-opacity="0.5" stroke-width="3.2"/>
<circle clip-path="url(#clip402)" cx="627.092" cy="839.178" r="14.4" fill="#009af9" fill-rule="evenodd" fill-opacity="0.5" stroke="#000000" stroke-opacity="0.5" stroke-width="3.2"/>
<circle clip-path="url(#clip402)" cx="1165.64" cy="87.9763" r="14.4" fill="#009af9" fill-rule="evenodd" fill-opacity="0.5" stroke="#000000" stroke-opacity="0.5" stroke-width="3.2"/>
<circle clip-path="url(#clip402)" cx="1542.37" cy="518.644" r="14.4" fill="#009af9" fill-rule="evenodd" fill-opacity="0.5" stroke="#000000" stroke-opacity="0.5" stroke-width="3.2"/>
<circle clip-path="url(#clip402)" cx="1474.64" cy="1445.72" r="14.4" fill="#009af9" fill-rule="evenodd" fill-opacity="0.5" stroke="#000000" stroke-opacity="0.5" stroke-width="3.2"/>
<circle clip-path="url(#clip402)" cx="1282.09" cy="456.535" r="14.4" fill="#009af9" fill-rule="evenodd" fill-opacity="0.5" stroke="#000000" stroke-opacity="0.5" stroke-width="3.2"/>
<circle clip-path="url(#clip402)" cx="1173.78" cy="854.166" r="14.4" fill="#009af9" fill-rule="evenodd" fill-opacity="0.5" stroke="#000000" stroke-opacity="0.5" stroke-width="3.2"/>
<circle clip-path="url(#clip402)" cx="1616.38" cy="164.838" r="14.4" fill="#009af9" fill-rule="evenodd" fill-opacity="0.5" stroke="#000000" stroke-opacity="0.5" stroke-width="3.2"/>
<circle clip-path="url(#clip402)" cx="1289.26" cy="908.519" r="14.4" fill="#009af9" fill-rule="evenodd" fill-opacity="0.5" stroke="#000000" stroke-opacity="0.5" stroke-width="3.2"/>
<circle clip-path="url(#clip402)" cx="1406.65" cy="684.869" r="14.4" fill="#009af9" fill-rule="evenodd" fill-opacity="0.5" stroke="#000000" stroke-opacity="0.5" stroke-width="3.2"/>
<circle clip-path="url(#clip402)" cx="1519.31" cy="1053.3" r="14.4" fill="#009af9" fill-rule="evenodd" fill-opacity="0.5" stroke="#000000" stroke-opacity="0.5" stroke-width="3.2"/>
<circle clip-path="url(#clip402)" cx="1478.36" cy="632.79" r="14.4" fill="#009af9" fill-rule="evenodd" fill-opacity="0.5" stroke="#000000" stroke-opacity="0.5" stroke-width="3.2"/>
<circle clip-path="url(#clip402)" cx="1664.16" cy="450.486" r="14.4" fill="#009af9" fill-rule="evenodd" fill-opacity="0.5" stroke="#000000" stroke-opacity="0.5" stroke-width="3.2"/>
<circle clip-path="url(#clip402)" cx="373.831" cy="778.02" r="14.4" fill="#009af9" fill-rule="evenodd" fill-opacity="0.5" stroke="#000000" stroke-opacity="0.5" stroke-width="3.2"/>
<circle clip-path="url(#clip402)" cx="2290.34" cy="1227.02" r="14.4" fill="#009af9" fill-rule="evenodd" fill-opacity="0.5" stroke="#000000" stroke-opacity="0.5" stroke-width="3.2"/>
<circle clip-path="url(#clip402)" cx="1932.5" cy="609.508" r="14.4" fill="#009af9" fill-rule="evenodd" fill-opacity="0.5" stroke="#000000" stroke-opacity="0.5" stroke-width="3.2"/>
<circle clip-path="url(#clip402)" cx="209.891" cy="236.99" r="14.4" fill="#009af9" fill-rule="evenodd" fill-opacity="0.5" stroke="#000000" stroke-opacity="0.5" stroke-width="3.2"/>
<circle clip-path="url(#clip402)" cx="1116.51" cy="960.39" r="14.4" fill="#009af9" fill-rule="evenodd" fill-opacity="0.5" stroke="#000000" stroke-opacity="0.5" stroke-width="3.2"/>
<circle clip-path="url(#clip402)" cx="455.114" cy="1011.07" r="14.4" fill="#009af9" fill-rule="evenodd" fill-opacity="0.5" stroke="#000000" stroke-opacity="0.5" stroke-width="3.2"/>
<circle clip-path="url(#clip402)" cx="1722.03" cy="980.424" r="14.4" fill="#009af9" fill-rule="evenodd" fill-opacity="0.5" stroke="#000000" stroke-opacity="0.5" stroke-width="3.2"/>
<circle clip-path="url(#clip402)" cx="729.98" cy="723.876" r="14.4" fill="#009af9" fill-rule="evenodd" fill-opacity="0.5" stroke="#000000" stroke-opacity="0.5" stroke-width="3.2"/>
<circle clip-path="url(#clip402)" cx="897.372" cy="1145.02" r="14.4" fill="#009af9" fill-rule="evenodd" fill-opacity="0.5" stroke="#000000" stroke-opacity="0.5" stroke-width="3.2"/>
<circle clip-path="url(#clip402)" cx="838.934" cy="503.502" r="14.4" fill="#009af9" fill-rule="evenodd" fill-opacity="0.5" stroke="#000000" stroke-opacity="0.5" stroke-width="3.2"/>
<circle clip-path="url(#clip402)" cx="1310.76" cy="524.446" r="14.4" fill="#009af9" fill-rule="evenodd" fill-opacity="0.5" stroke="#000000" stroke-opacity="0.5" stroke-width="3.2"/>
<circle clip-path="url(#clip402)" cx="1920.43" cy="499.551" r="14.4" fill="#009af9" fill-rule="evenodd" fill-opacity="0.5" stroke="#000000" stroke-opacity="0.5" stroke-width="3.2"/>
<circle clip-path="url(#clip402)" cx="1578.93" cy="962.357" r="14.4" fill="#009af9" fill-rule="evenodd" fill-opacity="0.5" stroke="#000000" stroke-opacity="0.5" stroke-width="3.2"/>
<circle clip-path="url(#clip402)" cx="1576.71" cy="561.658" r="14.4" fill="#009af9" fill-rule="evenodd" fill-opacity="0.5" stroke="#000000" stroke-opacity="0.5" stroke-width="3.2"/>
<circle clip-path="url(#clip402)" cx="1413.51" cy="708.921" r="14.4" fill="#009af9" fill-rule="evenodd" fill-opacity="0.5" stroke="#000000" stroke-opacity="0.5" stroke-width="3.2"/>
<circle clip-path="url(#clip402)" cx="680.034" cy="965.556" r="14.4" fill="#009af9" fill-rule="evenodd" fill-opacity="0.5" stroke="#000000" stroke-opacity="0.5" stroke-width="3.2"/>
<circle clip-path="url(#clip402)" cx="543.261" cy="603.375" r="14.4" fill="#009af9" fill-rule="evenodd" fill-opacity="0.5" stroke="#000000" stroke-opacity="0.5" stroke-width="3.2"/>
<path clip-path="url(#clip402)" d="M209.891 236.99 L373.831 778.02 L455.114 1011.07 L1474.64 1445.72 L2290.34 1227.02 L1920.43 499.551 L1616.38 164.838 L1165.64 87.9763 L209.891 236.99 L209.891 236.99  Z" fill="#e26f46" fill-rule="evenodd" fill-opacity="0.2"/>
<polyline clip-path="url(#clip402)" style="stroke:#000000; stroke-linecap:round; stroke-linejoin:round; stroke-width:4; stroke-opacity:0.2; fill:none" points="209.891,236.99 373.831,778.02 455.114,1011.07 1474.64,1445.72 2290.34,1227.02 1920.43,499.551 1616.38,164.838 1165.64,87.9763 209.891,236.99 "/>
</svg>
