<?xml version="1.0" encoding="utf-8"?>
<svg xmlns="http://www.w3.org/2000/svg" xmlns:xlink="http://www.w3.org/1999/xlink" width="600" height="400" viewBox="0 0 2400 1600">
<defs>
  <clipPath id="clip560">
    <rect x="0" y="0" width="2400" height="1600"/>
  </clipPath>
</defs>
<path clip-path="url(#clip560)" d="M0 1600 L2400 1600 L2400 0 L0 0  Z" fill="#ffffff" fill-rule="evenodd" fill-opacity="1"/>
<defs>
  <clipPath id="clip561">
    <rect x="480" y="0" width="1681" height="1600"/>
  </clipPath>
</defs>
<path clip-path="url(#clip560)" d="M193.936 1486.45 L2352.76 1486.45 L2352.76 47.2441 L193.936 47.2441  Z" fill="#ffffff" fill-rule="evenodd" fill-opacity="1"/>
<defs>
  <clipPath id="clip562">
    <rect x="193" y="47" width="2160" height="1440"/>
  </clipPath>
</defs>
<polyline clip-path="url(#clip562)" style="stroke:#000000; stroke-linecap:round; stroke-linejoin:round; stroke-width:2; stroke-opacity:0.1; fill:none" points="598.92,1486.45 598.92,47.2441 "/>
<polyline clip-path="url(#clip562)" style="stroke:#000000; stroke-linecap:round; stroke-linejoin:round; stroke-width:2; stroke-opacity:0.1; fill:none" points="1036.75,1486.45 1036.75,47.2441 "/>
<polyline clip-path="url(#clip562)" style="stroke:#000000; stroke-linecap:round; stroke-linejoin:round; stroke-width:2; stroke-opacity:0.1; fill:none" points="1474.58,1486.45 1474.58,47.2441 "/>
<polyline clip-path="url(#clip562)" style="stroke:#000000; stroke-linecap:round; stroke-linejoin:round; stroke-width:2; stroke-opacity:0.1; fill:none" points="1912.41,1486.45 1912.41,47.2441 "/>
<polyline clip-path="url(#clip562)" style="stroke:#000000; stroke-linecap:round; stroke-linejoin:round; stroke-width:2; stroke-opacity:0.1; fill:none" points="2350.24,1486.45 2350.24,47.2441 "/>
<polyline clip-path="url(#clip562)" style="stroke:#000000; stroke-linecap:round; stroke-linejoin:round; stroke-width:2; stroke-opacity:0.1; fill:none" points="193.936,1316.27 2352.76,1316.27 "/>
<polyline clip-path="url(#clip562)" style="stroke:#000000; stroke-linecap:round; stroke-linejoin:round; stroke-width:2; stroke-opacity:0.1; fill:none" points="193.936,1083.17 2352.76,1083.17 "/>
<polyline clip-path="url(#clip562)" style="stroke:#000000; stroke-linecap:round; stroke-linejoin:round; stroke-width:2; stroke-opacity:0.1; fill:none" points="193.936,850.071 2352.76,850.071 "/>
<polyline clip-path="url(#clip562)" style="stroke:#000000; stroke-linecap:round; stroke-linejoin:round; stroke-width:2; stroke-opacity:0.1; fill:none" points="193.936,616.972 2352.76,616.972 "/>
<polyline clip-path="url(#clip562)" style="stroke:#000000; stroke-linecap:round; stroke-linejoin:round; stroke-width:2; stroke-opacity:0.1; fill:none" points="193.936,383.873 2352.76,383.873 "/>
<polyline clip-path="url(#clip562)" style="stroke:#000000; stroke-linecap:round; stroke-linejoin:round; stroke-width:2; stroke-opacity:0.1; fill:none" points="193.936,150.774 2352.76,150.774 "/>
<polyline clip-path="url(#clip560)" style="stroke:#000000; stroke-linecap:round; stroke-linejoin:round; stroke-width:4; stroke-opacity:1; fill:none" points="193.936,1486.45 2352.76,1486.45 "/>
<polyline clip-path="url(#clip560)" style="stroke:#000000; stroke-linecap:round; stroke-linejoin:round; stroke-width:4; stroke-opacity:1; fill:none" points="598.92,1486.45 598.92,1467.55 "/>
<polyline clip-path="url(#clip560)" style="stroke:#000000; stroke-linecap:round; stroke-linejoin:round; stroke-width:4; stroke-opacity:1; fill:none" points="1036.75,1486.45 1036.75,1467.55 "/>
<polyline clip-path="url(#clip560)" style="stroke:#000000; stroke-linecap:round; stroke-linejoin:round; stroke-width:4; stroke-opacity:1; fill:none" points="1474.58,1486.45 1474.58,1467.55 "/>
<polyline clip-path="url(#clip560)" style="stroke:#000000; stroke-linecap:round; stroke-linejoin:round; stroke-width:4; stroke-opacity:1; fill:none" points="1912.41,1486.45 1912.41,1467.55 "/>
<polyline clip-path="url(#clip560)" style="stroke:#000000; stroke-linecap:round; stroke-linejoin:round; stroke-width:4; stroke-opacity:1; fill:none" points="2350.24,1486.45 2350.24,1467.55 "/>
<path clip-path="url(#clip560)" d="M568.677 1532.02 L598.353 1532.02 L598.353 1535.95 L568.677 1535.95 L568.677 1532.02 Z" fill="#000000" fill-rule="nonzero" fill-opacity="1" /><path clip-path="url(#clip560)" d="M609.255 1544.91 L616.894 1544.91 L616.894 1518.55 L608.584 1520.21 L608.584 1515.95 L616.848 1514.29 L621.524 1514.29 L621.524 1544.91 L629.163 1544.91 L629.163 1548.85 L609.255 1548.85 L609.255 1544.91 Z" fill="#000000" fill-rule="nonzero" fill-opacity="1" /><path clip-path="url(#clip560)" d="M1036.75 1517.37 Q1033.14 1517.37 1031.31 1520.93 Q1029.5 1524.47 1029.5 1531.6 Q1029.5 1538.71 1031.31 1542.27 Q1033.14 1545.82 1036.75 1545.82 Q1040.38 1545.82 1042.19 1542.27 Q1044.02 1538.71 1044.02 1531.6 Q1044.02 1524.47 1042.19 1520.93 Q1040.38 1517.37 1036.75 1517.37 M1036.75 1513.66 Q1042.56 1513.66 1045.61 1518.27 Q1048.69 1522.85 1048.69 1531.6 Q1048.69 1540.33 1045.61 1544.94 Q1042.56 1549.52 1036.75 1549.52 Q1030.94 1549.52 1027.86 1544.94 Q1024.8 1540.33 1024.8 1531.6 Q1024.8 1522.85 1027.86 1518.27 Q1030.94 1513.66 1036.75 1513.66 Z" fill="#000000" fill-rule="nonzero" fill-opacity="1" /><path clip-path="url(#clip560)" d="M1464.96 1544.91 L1472.6 1544.91 L1472.6 1518.55 L1464.29 1520.21 L1464.29 1515.95 L1472.55 1514.29 L1477.23 1514.29 L1477.23 1544.91 L1484.87 1544.91 L1484.87 1548.85 L1464.96 1548.85 L1464.96 1544.91 Z" fill="#000000" fill-rule="nonzero" fill-opacity="1" /><path clip-path="url(#clip560)" d="M1907.06 1544.91 L1923.38 1544.91 L1923.38 1548.85 L1901.44 1548.85 L1901.44 1544.91 Q1904.1 1542.16 1908.68 1537.53 Q1913.29 1532.88 1914.47 1531.53 Q1916.71 1529.01 1917.59 1527.27 Q1918.5 1525.51 1918.5 1523.82 Q1918.5 1521.07 1916.55 1519.33 Q1914.63 1517.6 1911.53 1517.6 Q1909.33 1517.6 1906.88 1518.36 Q1904.44 1519.13 1901.67 1520.68 L1901.67 1515.95 Q1904.49 1514.82 1906.94 1514.24 Q1909.4 1513.66 1911.44 1513.66 Q1916.81 1513.66 1920 1516.35 Q1923.19 1519.03 1923.19 1523.52 Q1923.19 1525.65 1922.38 1527.57 Q1921.6 1529.47 1919.49 1532.07 Q1918.91 1532.74 1915.81 1535.95 Q1912.71 1539.15 1907.06 1544.91 Z" fill="#000000" fill-rule="nonzero" fill-opacity="1" /><path clip-path="url(#clip560)" d="M2354.48 1530.21 Q2357.84 1530.93 2359.72 1533.2 Q2361.61 1535.47 2361.61 1538.8 Q2361.61 1543.92 2358.1 1546.72 Q2354.58 1549.52 2348.1 1549.52 Q2345.92 1549.52 2343.6 1549.08 Q2341.31 1548.66 2338.86 1547.81 L2338.86 1543.29 Q2340.8 1544.43 2343.12 1545.01 Q2345.43 1545.58 2347.96 1545.58 Q2352.35 1545.58 2354.65 1543.85 Q2356.96 1542.11 2356.96 1538.8 Q2356.96 1535.75 2354.81 1534.03 Q2352.68 1532.3 2348.86 1532.3 L2344.83 1532.3 L2344.83 1528.45 L2349.04 1528.45 Q2352.49 1528.45 2354.32 1527.09 Q2356.15 1525.7 2356.15 1523.11 Q2356.15 1520.45 2354.25 1519.03 Q2352.38 1517.6 2348.86 1517.6 Q2346.94 1517.6 2344.74 1518.01 Q2342.54 1518.43 2339.9 1519.31 L2339.9 1515.14 Q2342.56 1514.4 2344.88 1514.03 Q2347.22 1513.66 2349.28 1513.66 Q2354.6 1513.66 2357.7 1516.09 Q2360.8 1518.5 2360.8 1522.62 Q2360.8 1525.49 2359.16 1527.48 Q2357.52 1529.45 2354.48 1530.21 Z" fill="#000000" fill-rule="nonzero" fill-opacity="1" /><polyline clip-path="url(#clip560)" style="stroke:#000000; stroke-linecap:round; stroke-linejoin:round; stroke-width:4; stroke-opacity:1; fill:none" points="193.936,1486.45 193.936,47.2441 "/>
<polyline clip-path="url(#clip560)" style="stroke:#000000; stroke-linecap:round; stroke-linejoin:round; stroke-width:4; stroke-opacity:1; fill:none" points="193.936,1316.27 212.834,1316.27 "/>
<polyline clip-path="url(#clip560)" style="stroke:#000000; stroke-linecap:round; stroke-linejoin:round; stroke-width:4; stroke-opacity:1; fill:none" points="193.936,1083.17 212.834,1083.17 "/>
<polyline clip-path="url(#clip560)" style="stroke:#000000; stroke-linecap:round; stroke-linejoin:round; stroke-width:4; stroke-opacity:1; fill:none" points="193.936,850.071 212.834,850.071 "/>
<polyline clip-path="url(#clip560)" style="stroke:#000000; stroke-linecap:round; stroke-linejoin:round; stroke-width:4; stroke-opacity:1; fill:none" points="193.936,616.972 212.834,616.972 "/>
<polyline clip-path="url(#clip560)" style="stroke:#000000; stroke-linecap:round; stroke-linejoin:round; stroke-width:4; stroke-opacity:1; fill:none" points="193.936,383.873 212.834,383.873 "/>
<polyline clip-path="url(#clip560)" style="stroke:#000000; stroke-linecap:round; stroke-linejoin:round; stroke-width:4; stroke-opacity:1; fill:none" points="193.936,150.774 212.834,150.774 "/>
<path clip-path="url(#clip560)" d="M51.9875 1316.72 L81.6633 1316.72 L81.6633 1320.66 L51.9875 1320.66 L51.9875 1316.72 Z" fill="#000000" fill-rule="nonzero" fill-opacity="1" /><path clip-path="url(#clip560)" d="M92.566 1329.61 L100.205 1329.61 L100.205 1303.25 L91.8947 1304.91 L91.8947 1300.66 L100.159 1298.99 L104.834 1298.99 L104.834 1329.61 L112.473 1329.61 L112.473 1333.55 L92.566 1333.55 L92.566 1329.61 Z" fill="#000000" fill-rule="nonzero" fill-opacity="1" /><path clip-path="url(#clip560)" d="M121.918 1327.67 L126.802 1327.67 L126.802 1333.55 L121.918 1333.55 L121.918 1327.67 Z" fill="#000000" fill-rule="nonzero" fill-opacity="1" /><path clip-path="url(#clip560)" d="M137.033 1298.99 L155.39 1298.99 L155.39 1302.92 L141.316 1302.92 L141.316 1311.4 Q142.334 1311.05 143.353 1310.89 Q144.371 1310.7 145.39 1310.7 Q151.177 1310.7 154.556 1313.87 Q157.936 1317.04 157.936 1322.46 Q157.936 1328.04 154.464 1331.14 Q150.992 1334.22 144.672 1334.22 Q142.496 1334.22 140.228 1333.85 Q137.982 1333.48 135.575 1332.74 L135.575 1328.04 Q137.658 1329.17 139.881 1329.73 Q142.103 1330.29 144.58 1330.29 Q148.584 1330.29 150.922 1328.18 Q153.26 1326.07 153.26 1322.46 Q153.26 1318.85 150.922 1316.74 Q148.584 1314.64 144.58 1314.64 Q142.705 1314.64 140.83 1315.05 Q138.978 1315.47 137.033 1316.35 L137.033 1298.99 Z" fill="#000000" fill-rule="nonzero" fill-opacity="1" /><path clip-path="url(#clip560)" d="M50.9921 1083.62 L80.6679 1083.62 L80.6679 1087.56 L50.9921 1087.56 L50.9921 1083.62 Z" fill="#000000" fill-rule="nonzero" fill-opacity="1" /><path clip-path="url(#clip560)" d="M91.5706 1096.51 L99.2095 1096.51 L99.2095 1070.15 L90.8993 1071.82 L90.8993 1067.56 L99.1632 1065.89 L103.839 1065.89 L103.839 1096.51 L111.478 1096.51 L111.478 1100.45 L91.5706 1100.45 L91.5706 1096.51 Z" fill="#000000" fill-rule="nonzero" fill-opacity="1" /><path clip-path="url(#clip560)" d="M120.922 1094.57 L125.807 1094.57 L125.807 1100.45 L120.922 1100.45 L120.922 1094.57 Z" fill="#000000" fill-rule="nonzero" fill-opacity="1" /><path clip-path="url(#clip560)" d="M145.992 1068.97 Q142.381 1068.97 140.552 1072.53 Q138.746 1076.08 138.746 1083.2 Q138.746 1090.31 140.552 1093.88 Q142.381 1097.42 145.992 1097.42 Q149.626 1097.42 151.431 1093.88 Q153.26 1090.31 153.26 1083.2 Q153.26 1076.08 151.431 1072.53 Q149.626 1068.97 145.992 1068.97 M145.992 1065.26 Q151.802 1065.26 154.857 1069.87 Q157.936 1074.45 157.936 1083.2 Q157.936 1091.93 154.857 1096.54 Q151.802 1101.12 145.992 1101.12 Q140.181 1101.12 137.103 1096.54 Q134.047 1091.93 134.047 1083.2 Q134.047 1074.45 137.103 1069.87 Q140.181 1065.26 145.992 1065.26 Z" fill="#000000" fill-rule="nonzero" fill-opacity="1" /><path clip-path="url(#clip560)" d="M51.9875 850.522 L81.6633 850.522 L81.6633 854.458 L51.9875 854.458 L51.9875 850.522 Z" fill="#000000" fill-rule="nonzero" fill-opacity="1" /><path clip-path="url(#clip560)" d="M101.756 835.87 Q98.1447 835.87 96.316 839.434 Q94.5104 842.976 94.5104 850.106 Q94.5104 857.212 96.316 860.777 Q98.1447 864.319 101.756 864.319 Q105.39 864.319 107.196 860.777 Q109.024 857.212 109.024 850.106 Q109.024 842.976 107.196 839.434 Q105.39 835.87 101.756 835.87 M101.756 832.166 Q107.566 832.166 110.621 836.772 Q113.7 841.356 113.7 850.106 Q113.7 858.832 110.621 863.439 Q107.566 868.022 101.756 868.022 Q95.9456 868.022 92.8669 863.439 Q89.8114 858.832 89.8114 850.106 Q89.8114 841.356 92.8669 836.772 Q95.9456 832.166 101.756 832.166 Z" fill="#000000" fill-rule="nonzero" fill-opacity="1" /><path clip-path="url(#clip560)" d="M121.918 861.471 L126.802 861.471 L126.802 867.351 L121.918 867.351 L121.918 861.471 Z" fill="#000000" fill-rule="nonzero" fill-opacity="1" /><path clip-path="url(#clip560)" d="M137.033 832.791 L155.39 832.791 L155.39 836.726 L141.316 836.726 L141.316 845.198 Q142.334 844.851 143.353 844.689 Q144.371 844.504 145.39 844.504 Q151.177 844.504 154.556 847.675 Q157.936 850.846 157.936 856.263 Q157.936 861.842 154.464 864.944 Q150.992 868.022 144.672 868.022 Q142.496 868.022 140.228 867.652 Q137.982 867.282 135.575 866.541 L135.575 861.842 Q137.658 862.976 139.881 863.532 Q142.103 864.087 144.58 864.087 Q148.584 864.087 150.922 861.981 Q153.26 859.874 153.26 856.263 Q153.26 852.652 150.922 850.545 Q148.584 848.439 144.58 848.439 Q142.705 848.439 140.83 848.856 Q138.978 849.272 137.033 850.152 L137.033 832.791 Z" fill="#000000" fill-rule="nonzero" fill-opacity="1" /><path clip-path="url(#clip560)" d="M100.76 602.771 Q97.1493 602.771 95.3206 606.335 Q93.515 609.877 93.515 617.007 Q93.515 624.113 95.3206 627.678 Q97.1493 631.22 100.76 631.22 Q104.395 631.22 106.2 627.678 Q108.029 624.113 108.029 617.007 Q108.029 609.877 106.2 606.335 Q104.395 602.771 100.76 602.771 M100.76 599.067 Q106.571 599.067 109.626 603.673 Q112.705 608.257 112.705 617.007 Q112.705 625.733 109.626 630.34 Q106.571 634.923 100.76 634.923 Q94.9502 634.923 91.8715 630.34 Q88.816 625.733 88.816 617.007 Q88.816 608.257 91.8715 603.673 Q94.9502 599.067 100.76 599.067 Z" fill="#000000" fill-rule="nonzero" fill-opacity="1" /><path clip-path="url(#clip560)" d="M120.922 628.372 L125.807 628.372 L125.807 634.252 L120.922 634.252 L120.922 628.372 Z" fill="#000000" fill-rule="nonzero" fill-opacity="1" /><path clip-path="url(#clip560)" d="M145.992 602.771 Q142.381 602.771 140.552 606.335 Q138.746 609.877 138.746 617.007 Q138.746 624.113 140.552 627.678 Q142.381 631.22 145.992 631.22 Q149.626 631.22 151.431 627.678 Q153.26 624.113 153.26 617.007 Q153.26 609.877 151.431 606.335 Q149.626 602.771 145.992 602.771 M145.992 599.067 Q151.802 599.067 154.857 603.673 Q157.936 608.257 157.936 617.007 Q157.936 625.733 154.857 630.34 Q151.802 634.923 145.992 634.923 Q140.181 634.923 137.103 630.34 Q134.047 625.733 134.047 617.007 Q134.047 608.257 137.103 603.673 Q140.181 599.067 145.992 599.067 Z" fill="#000000" fill-rule="nonzero" fill-opacity="1" /><path clip-path="url(#clip560)" d="M101.756 369.672 Q98.1447 369.672 96.316 373.236 Q94.5104 376.778 94.5104 383.908 Q94.5104 391.014 96.316 394.579 Q98.1447 398.121 101.756 398.121 Q105.39 398.121 107.196 394.579 Q109.024 391.014 109.024 383.908 Q109.024 376.778 107.196 373.236 Q105.39 369.672 101.756 369.672 M101.756 365.968 Q107.566 365.968 110.621 370.574 Q113.7 375.158 113.7 383.908 Q113.7 392.634 110.621 397.241 Q107.566 401.824 101.756 401.824 Q95.9456 401.824 92.8669 397.241 Q89.8114 392.634 89.8114 383.908 Q89.8114 375.158 92.8669 370.574 Q95.9456 365.968 101.756 365.968 Z" fill="#000000" fill-rule="nonzero" fill-opacity="1" /><path clip-path="url(#clip560)" d="M121.918 395.273 L126.802 395.273 L126.802 401.153 L121.918 401.153 L121.918 395.273 Z" fill="#000000" fill-rule="nonzero" fill-opacity="1" /><path clip-path="url(#clip560)" d="M137.033 366.593 L155.39 366.593 L155.39 370.528 L141.316 370.528 L141.316 379 Q142.334 378.653 143.353 378.491 Q144.371 378.306 145.39 378.306 Q151.177 378.306 154.556 381.477 Q157.936 384.648 157.936 390.065 Q157.936 395.644 154.464 398.746 Q150.992 401.824 144.672 401.824 Q142.496 401.824 140.228 401.454 Q137.982 401.084 135.575 400.343 L135.575 395.644 Q137.658 396.778 139.881 397.334 Q142.103 397.889 144.58 397.889 Q148.584 397.889 150.922 395.783 Q153.26 393.676 153.26 390.065 Q153.26 386.454 150.922 384.348 Q148.584 382.241 144.58 382.241 Q142.705 382.241 140.83 382.658 Q138.978 383.074 137.033 383.954 L137.033 366.593 Z" fill="#000000" fill-rule="nonzero" fill-opacity="1" /><path clip-path="url(#clip560)" d="M91.5706 164.119 L99.2095 164.119 L99.2095 137.753 L90.8993 139.42 L90.8993 135.161 L99.1632 133.494 L103.839 133.494 L103.839 164.119 L111.478 164.119 L111.478 168.054 L91.5706 168.054 L91.5706 164.119 Z" fill="#000000" fill-rule="nonzero" fill-opacity="1" /><path clip-path="url(#clip560)" d="M120.922 162.174 L125.807 162.174 L125.807 168.054 L120.922 168.054 L120.922 162.174 Z" fill="#000000" fill-rule="nonzero" fill-opacity="1" /><path clip-path="url(#clip560)" d="M145.992 136.573 Q142.381 136.573 140.552 140.137 Q138.746 143.679 138.746 150.809 Q138.746 157.915 140.552 161.48 Q142.381 165.022 145.992 165.022 Q149.626 165.022 151.431 161.48 Q153.26 157.915 153.26 150.809 Q153.26 143.679 151.431 140.137 Q149.626 136.573 145.992 136.573 M145.992 132.869 Q151.802 132.869 154.857 137.475 Q157.936 142.059 157.936 150.809 Q157.936 159.535 154.857 164.142 Q151.802 168.725 145.992 168.725 Q140.181 168.725 137.103 164.142 Q134.047 159.535 134.047 150.809 Q134.047 142.059 137.103 137.475 Q140.181 132.869 145.992 132.869 Z" fill="#000000" fill-rule="nonzero" fill-opacity="1" /><circle clip-path="url(#clip562)" cx="592.039" cy="1420.67" r="14.4" fill="#009af9" fill-rule="evenodd" fill-opacity="0.5" stroke="#000000" stroke-opacity="0.5" stroke-width="3.2"/>
<circle clip-path="url(#clip562)" cx="1329.09" cy="594.982" r="14.4" fill="#009af9" fill-rule="evenodd" fill-opacity="0.5" stroke="#000000" stroke-opacity="0.5" stroke-width="3.2"/>
<circle clip-path="url(#clip562)" cx="1587.13" cy="602.868" r="14.4" fill="#009af9" fill-rule="evenodd" fill-opacity="0.5" stroke="#000000" stroke-opacity="0.5" stroke-width="3.2"/>
<circle clip-path="url(#clip562)" cx="2291.66" cy="313.451" r="14.4" fill="#009af9" fill-rule="evenodd" fill-opacity="0.5" stroke="#000000" stroke-opacity="0.5" stroke-width="3.2"/>
<circle clip-path="url(#clip562)" cx="1001.2" cy="1155.45" r="14.4" fill="#009af9" fill-rule="evenodd" fill-opacity="0.5" stroke="#000000" stroke-opacity="0.5" stroke-width="3.2"/>
<circle clip-path="url(#clip562)" cx="1466.8" cy="583.666" r="14.4" fill="#009af9" fill-rule="evenodd" fill-opacity="0.5" stroke="#000000" stroke-opacity="0.5" stroke-width="3.2"/>
<circle clip-path="url(#clip562)" cx="546.299" cy="87.9763" r="14.4" fill="#009af9" fill-rule="evenodd" fill-opacity="0.5" stroke="#000000" stroke-opacity="0.5" stroke-width="3.2"/>
<circle clip-path="url(#clip562)" cx="814.732" cy="1445.72" r="14.4" fill="#009af9" fill-rule="evenodd" fill-opacity="0.5" stroke="#000000" stroke-opacity="0.5" stroke-width="3.2"/>
<circle clip-path="url(#clip562)" cx="1036.05" cy="141.977" r="14.4" fill="#009af9" fill-rule="evenodd" fill-opacity="0.5" stroke="#000000" stroke-opacity="0.5" stroke-width="3.2"/>
<circle clip-path="url(#clip562)" cx="734.108" cy="102.574" r="14.4" fill="#009af9" fill-rule="evenodd" fill-opacity="0.5" stroke="#000000" stroke-opacity="0.5" stroke-width="3.2"/>
<circle clip-path="url(#clip562)" cx="255.035" cy="1372.8" r="14.4" fill="#009af9" fill-rule="evenodd" fill-opacity="0.5" stroke="#000000" stroke-opacity="0.5" stroke-width="3.2"/>
<circle clip-path="url(#clip562)" cx="1822.99" cy="162.471" r="14.4" fill="#009af9" fill-rule="evenodd" fill-opacity="0.5" stroke="#000000" stroke-opacity="0.5" stroke-width="3.2"/>
<circle clip-path="url(#clip562)" cx="1614.82" cy="859.695" r="14.4" fill="#009af9" fill-rule="evenodd" fill-opacity="0.5" stroke="#000000" stroke-opacity="0.5" stroke-width="3.2"/>
<circle clip-path="url(#clip562)" cx="1295.1" cy="701.371" r="14.4" fill="#009af9" fill-rule="evenodd" fill-opacity="0.5" stroke="#000000" stroke-opacity="0.5" stroke-width="3.2"/>
<circle clip-path="url(#clip562)" cx="1547.9" cy="509.329" r="14.4" fill="#009af9" fill-rule="evenodd" fill-opacity="0.5" stroke="#000000" stroke-opacity="0.5" stroke-width="3.2"/>
<circle clip-path="url(#clip562)" cx="1187.01" cy="271.49" r="14.4" fill="#009af9" fill-rule="evenodd" fill-opacity="0.5" stroke="#000000" stroke-opacity="0.5" stroke-width="3.2"/>
<circle clip-path="url(#clip562)" cx="600.555" cy="676.245" r="14.4" fill="#009af9" fill-rule="evenodd" fill-opacity="0.5" stroke="#000000" stroke-opacity="0.5" stroke-width="3.2"/>
<circle clip-path="url(#clip562)" cx="1862.57" cy="297.906" r="14.4" fill="#009af9" fill-rule="evenodd" fill-opacity="0.5" stroke="#000000" stroke-opacity="0.5" stroke-width="3.2"/>
<circle clip-path="url(#clip562)" cx="994.321" cy="205.367" r="14.4" fill="#009af9" fill-rule="evenodd" fill-opacity="0.5" stroke="#000000" stroke-opacity="0.5" stroke-width="3.2"/>
<circle clip-path="url(#clip562)" cx="336.207" cy="520.019" r="14.4" fill="#009af9" fill-rule="evenodd" fill-opacity="0.5" stroke="#000000" stroke-opacity="0.5" stroke-width="3.2"/>
<circle clip-path="url(#clip562)" cx="1316.28" cy="502.283" r="14.4" fill="#009af9" fill-rule="evenodd" fill-opacity="0.5" stroke="#000000" stroke-opacity="0.5" stroke-width="3.2"/>
<circle clip-path="url(#clip562)" cx="1327.79" cy="453.186" r="14.4" fill="#009af9" fill-rule="evenodd" fill-opacity="0.5" stroke="#000000" stroke-opacity="0.5" stroke-width="3.2"/>
<circle clip-path="url(#clip562)" cx="1687.59" cy="651.154" r="14.4" fill="#009af9" fill-rule="evenodd" fill-opacity="0.5" stroke="#000000" stroke-opacity="0.5" stroke-width="3.2"/>
<circle clip-path="url(#clip562)" cx="1024.37" cy="788.856" r="14.4" fill="#009af9" fill-rule="evenodd" fill-opacity="0.5" stroke="#000000" stroke-opacity="0.5" stroke-width="3.2"/>
<circle clip-path="url(#clip562)" cx="415.1" cy="476.92" r="14.4" fill="#009af9" fill-rule="evenodd" fill-opacity="0.5" stroke="#000000" stroke-opacity="0.5" stroke-width="3.2"/>
<circle clip-path="url(#clip562)" cx="1393.03" cy="1179.88" r="14.4" fill="#009af9" fill-rule="evenodd" fill-opacity="0.5" stroke="#000000" stroke-opacity="0.5" stroke-width="3.2"/>
<circle clip-path="url(#clip562)" cx="1021.51" cy="713.144" r="14.4" fill="#009af9" fill-rule="evenodd" fill-opacity="0.5" stroke="#000000" stroke-opacity="0.5" stroke-width="3.2"/>
<circle clip-path="url(#clip562)" cx="591.71" cy="109.389" r="14.4" fill="#009af9" fill-rule="evenodd" fill-opacity="0.5" stroke="#000000" stroke-opacity="0.5" stroke-width="3.2"/>
<circle clip-path="url(#clip562)" cx="1197.1" cy="316.946" r="14.4" fill="#009af9" fill-rule="evenodd" fill-opacity="0.5" stroke="#000000" stroke-opacity="0.5" stroke-width="3.2"/>
<circle clip-path="url(#clip562)" cx="1402.25" cy="989.121" r="14.4" fill="#009af9" fill-rule="evenodd" fill-opacity="0.5" stroke="#000000" stroke-opacity="0.5" stroke-width="3.2"/>
<path clip-path="url(#clip562)" d="M255.035 1372.8 L592.039 1420.67 L814.732 1445.72 L1393.03 1179.88 L2291.66 313.451 L1822.99 162.471 L546.299 87.9763 L336.207 520.019 L255.035 1372.8 L255.035 1372.8  Z" fill="#e26f46" fill-rule="evenodd" fill-opacity="0.2"/>
<polyline clip-path="url(#clip562)" style="stroke:#000000; stroke-linecap:round; stroke-linejoin:round; stroke-width:4; stroke-opacity:0.2; fill:none" points="255.035,1372.8 592.039,1420.67 814.732,1445.72 1393.03,1179.88 2291.66,313.451 1822.99,162.471 546.299,87.9763 336.207,520.019 255.035,1372.8 "/>
</svg>
