<?xml version="1.0" encoding="utf-8"?>
<svg xmlns="http://www.w3.org/2000/svg" xmlns:xlink="http://www.w3.org/1999/xlink" width="600" height="400" viewBox="0 0 2400 1600">
<defs>
  <clipPath id="clip480">
    <rect x="0" y="0" width="2400" height="1600"/>
  </clipPath>
</defs>
<path clip-path="url(#clip480)" d="M0 1600 L2400 1600 L2400 0 L0 0  Z" fill="#ffffff" fill-rule="evenodd" fill-opacity="1"/>
<defs>
  <clipPath id="clip481">
    <rect x="480" y="0" width="1681" height="1600"/>
  </clipPath>
</defs>
<path clip-path="url(#clip480)" d="M147.478 1486.45 L2352.76 1486.45 L2352.76 47.2441 L147.478 47.2441  Z" fill="#ffffff" fill-rule="evenodd" fill-opacity="1"/>
<defs>
  <clipPath id="clip482">
    <rect x="147" y="47" width="2206" height="1440"/>
  </clipPath>
</defs>
<polyline clip-path="url(#clip482)" style="stroke:#000000; stroke-linecap:round; stroke-linejoin:round; stroke-width:2; stroke-opacity:0.1; fill:none" points="286.961,1486.45 286.961,47.2441 "/>
<polyline clip-path="url(#clip482)" style="stroke:#000000; stroke-linecap:round; stroke-linejoin:round; stroke-width:2; stroke-opacity:0.1; fill:none" points="769.764,1486.45 769.764,47.2441 "/>
<polyline clip-path="url(#clip482)" style="stroke:#000000; stroke-linecap:round; stroke-linejoin:round; stroke-width:2; stroke-opacity:0.1; fill:none" points="1252.57,1486.45 1252.57,47.2441 "/>
<polyline clip-path="url(#clip482)" style="stroke:#000000; stroke-linecap:round; stroke-linejoin:round; stroke-width:2; stroke-opacity:0.1; fill:none" points="1735.37,1486.45 1735.37,47.2441 "/>
<polyline clip-path="url(#clip482)" style="stroke:#000000; stroke-linecap:round; stroke-linejoin:round; stroke-width:2; stroke-opacity:0.1; fill:none" points="2218.17,1486.45 2218.17,47.2441 "/>
<polyline clip-path="url(#clip482)" style="stroke:#000000; stroke-linecap:round; stroke-linejoin:round; stroke-width:2; stroke-opacity:0.1; fill:none" points="147.478,1481.55 2352.76,1481.55 "/>
<polyline clip-path="url(#clip482)" style="stroke:#000000; stroke-linecap:round; stroke-linejoin:round; stroke-width:2; stroke-opacity:0.1; fill:none" points="147.478,1181.28 2352.76,1181.28 "/>
<polyline clip-path="url(#clip482)" style="stroke:#000000; stroke-linecap:round; stroke-linejoin:round; stroke-width:2; stroke-opacity:0.1; fill:none" points="147.478,881.006 2352.76,881.006 "/>
<polyline clip-path="url(#clip482)" style="stroke:#000000; stroke-linecap:round; stroke-linejoin:round; stroke-width:2; stroke-opacity:0.1; fill:none" points="147.478,580.734 2352.76,580.734 "/>
<polyline clip-path="url(#clip482)" style="stroke:#000000; stroke-linecap:round; stroke-linejoin:round; stroke-width:2; stroke-opacity:0.1; fill:none" points="147.478,280.463 2352.76,280.463 "/>
<polyline clip-path="url(#clip480)" style="stroke:#000000; stroke-linecap:round; stroke-linejoin:round; stroke-width:4; stroke-opacity:1; fill:none" points="147.478,1486.45 2352.76,1486.45 "/>
<polyline clip-path="url(#clip480)" style="stroke:#000000; stroke-linecap:round; stroke-linejoin:round; stroke-width:4; stroke-opacity:1; fill:none" points="286.961,1486.45 286.961,1467.55 "/>
<polyline clip-path="url(#clip480)" style="stroke:#000000; stroke-linecap:round; stroke-linejoin:round; stroke-width:4; stroke-opacity:1; fill:none" points="769.764,1486.45 769.764,1467.55 "/>
<polyline clip-path="url(#clip480)" style="stroke:#000000; stroke-linecap:round; stroke-linejoin:round; stroke-width:4; stroke-opacity:1; fill:none" points="1252.57,1486.45 1252.57,1467.55 "/>
<polyline clip-path="url(#clip480)" style="stroke:#000000; stroke-linecap:round; stroke-linejoin:round; stroke-width:4; stroke-opacity:1; fill:none" points="1735.37,1486.45 1735.37,1467.55 "/>
<polyline clip-path="url(#clip480)" style="stroke:#000000; stroke-linecap:round; stroke-linejoin:round; stroke-width:4; stroke-opacity:1; fill:none" points="2218.17,1486.45 2218.17,1467.55 "/>
<path clip-path="url(#clip480)" d="M256.904 1532.02 L286.579 1532.02 L286.579 1535.95 L256.904 1535.95 L256.904 1532.02 Z" fill="#000000" fill-rule="nonzero" fill-opacity="1" /><path clip-path="url(#clip480)" d="M300.7 1544.91 L317.019 1544.91 L317.019 1548.85 L295.075 1548.85 L295.075 1544.91 Q297.737 1542.16 302.32 1537.53 Q306.926 1532.88 308.107 1531.53 Q310.352 1529.01 311.232 1527.27 Q312.135 1525.51 312.135 1523.82 Q312.135 1521.07 310.19 1519.33 Q308.269 1517.6 305.167 1517.6 Q302.968 1517.6 300.514 1518.36 Q298.084 1519.13 295.306 1520.68 L295.306 1515.95 Q298.13 1514.82 300.584 1514.24 Q303.038 1513.66 305.075 1513.66 Q310.445 1513.66 313.639 1516.35 Q316.834 1519.03 316.834 1523.52 Q316.834 1525.65 316.024 1527.57 Q315.237 1529.47 313.13 1532.07 Q312.551 1532.74 309.45 1535.95 Q306.348 1539.15 300.7 1544.91 Z" fill="#000000" fill-rule="nonzero" fill-opacity="1" /><path clip-path="url(#clip480)" d="M739.521 1532.02 L769.197 1532.02 L769.197 1535.95 L739.521 1535.95 L739.521 1532.02 Z" fill="#000000" fill-rule="nonzero" fill-opacity="1" /><path clip-path="url(#clip480)" d="M780.099 1544.91 L787.738 1544.91 L787.738 1518.55 L779.428 1520.21 L779.428 1515.95 L787.692 1514.29 L792.368 1514.29 L792.368 1544.91 L800.007 1544.91 L800.007 1548.85 L780.099 1548.85 L780.099 1544.91 Z" fill="#000000" fill-rule="nonzero" fill-opacity="1" /><path clip-path="url(#clip480)" d="M1252.57 1517.37 Q1248.96 1517.37 1247.13 1520.93 Q1245.32 1524.47 1245.32 1531.6 Q1245.32 1538.71 1247.13 1542.27 Q1248.96 1545.82 1252.57 1545.82 Q1256.2 1545.82 1258.01 1542.27 Q1259.83 1538.71 1259.83 1531.6 Q1259.83 1524.47 1258.01 1520.93 Q1256.2 1517.37 1252.57 1517.37 M1252.57 1513.66 Q1258.38 1513.66 1261.43 1518.27 Q1264.51 1522.85 1264.51 1531.6 Q1264.51 1540.33 1261.43 1544.94 Q1258.38 1549.52 1252.57 1549.52 Q1246.76 1549.52 1243.68 1544.94 Q1240.62 1540.33 1240.62 1531.6 Q1240.62 1522.85 1243.68 1518.27 Q1246.76 1513.66 1252.57 1513.66 Z" fill="#000000" fill-rule="nonzero" fill-opacity="1" /><path clip-path="url(#clip480)" d="M1725.75 1544.91 L1733.39 1544.91 L1733.39 1518.55 L1725.08 1520.21 L1725.08 1515.95 L1733.34 1514.29 L1738.02 1514.29 L1738.02 1544.91 L1745.66 1544.91 L1745.66 1548.85 L1725.75 1548.85 L1725.75 1544.91 Z" fill="#000000" fill-rule="nonzero" fill-opacity="1" /><path clip-path="url(#clip480)" d="M2212.82 1544.91 L2229.14 1544.91 L2229.14 1548.85 L2207.2 1548.85 L2207.2 1544.91 Q2209.86 1542.16 2214.44 1537.53 Q2219.05 1532.88 2220.23 1531.53 Q2222.48 1529.01 2223.36 1527.27 Q2224.26 1525.51 2224.26 1523.82 Q2224.26 1521.07 2222.32 1519.33 Q2220.39 1517.6 2217.29 1517.6 Q2215.09 1517.6 2212.64 1518.36 Q2210.21 1519.13 2207.43 1520.68 L2207.43 1515.95 Q2210.26 1514.82 2212.71 1514.24 Q2215.16 1513.66 2217.2 1513.66 Q2222.57 1513.66 2225.76 1516.35 Q2228.96 1519.03 2228.96 1523.52 Q2228.96 1525.65 2228.15 1527.57 Q2227.36 1529.47 2225.25 1532.07 Q2224.68 1532.74 2221.57 1535.95 Q2218.47 1539.15 2212.82 1544.91 Z" fill="#000000" fill-rule="nonzero" fill-opacity="1" /><polyline clip-path="url(#clip480)" style="stroke:#000000; stroke-linecap:round; stroke-linejoin:round; stroke-width:4; stroke-opacity:1; fill:none" points="147.478,1486.45 147.478,47.2441 "/>
<polyline clip-path="url(#clip480)" style="stroke:#000000; stroke-linecap:round; stroke-linejoin:round; stroke-width:4; stroke-opacity:1; fill:none" points="147.478,1481.55 166.376,1481.55 "/>
<polyline clip-path="url(#clip480)" style="stroke:#000000; stroke-linecap:round; stroke-linejoin:round; stroke-width:4; stroke-opacity:1; fill:none" points="147.478,1181.28 166.376,1181.28 "/>
<polyline clip-path="url(#clip480)" style="stroke:#000000; stroke-linecap:round; stroke-linejoin:round; stroke-width:4; stroke-opacity:1; fill:none" points="147.478,881.006 166.376,881.006 "/>
<polyline clip-path="url(#clip480)" style="stroke:#000000; stroke-linecap:round; stroke-linejoin:round; stroke-width:4; stroke-opacity:1; fill:none" points="147.478,580.734 166.376,580.734 "/>
<polyline clip-path="url(#clip480)" style="stroke:#000000; stroke-linecap:round; stroke-linejoin:round; stroke-width:4; stroke-opacity:1; fill:none" points="147.478,280.463 166.376,280.463 "/>
<path clip-path="url(#clip480)" d="M51.3625 1482 L81.0383 1482 L81.0383 1485.94 L51.3625 1485.94 L51.3625 1482 Z" fill="#000000" fill-rule="nonzero" fill-opacity="1" /><path clip-path="url(#clip480)" d="M95.1586 1494.89 L111.478 1494.89 L111.478 1498.83 L89.5336 1498.83 L89.5336 1494.89 Q92.1956 1492.14 96.7789 1487.51 Q101.385 1482.86 102.566 1481.51 Q104.811 1478.99 105.691 1477.26 Q106.594 1475.5 106.594 1473.81 Q106.594 1471.05 104.649 1469.32 Q102.728 1467.58 99.6261 1467.58 Q97.4271 1467.58 94.9734 1468.34 Q92.5428 1469.11 89.7651 1470.66 L89.7651 1465.94 Q92.5891 1464.8 95.0428 1464.22 Q97.4965 1463.64 99.5335 1463.64 Q104.904 1463.64 108.098 1466.33 Q111.293 1469.01 111.293 1473.51 Q111.293 1475.64 110.483 1477.56 Q109.696 1479.45 107.589 1482.05 Q107.01 1482.72 103.909 1485.94 Q100.807 1489.13 95.1586 1494.89 Z" fill="#000000" fill-rule="nonzero" fill-opacity="1" /><path clip-path="url(#clip480)" d="M50.9921 1181.73 L80.6679 1181.73 L80.6679 1185.66 L50.9921 1185.66 L50.9921 1181.73 Z" fill="#000000" fill-rule="nonzero" fill-opacity="1" /><path clip-path="url(#clip480)" d="M91.5706 1194.62 L99.2095 1194.62 L99.2095 1168.26 L90.8993 1169.92 L90.8993 1165.66 L99.1632 1164 L103.839 1164 L103.839 1194.62 L111.478 1194.62 L111.478 1198.56 L91.5706 1198.56 L91.5706 1194.62 Z" fill="#000000" fill-rule="nonzero" fill-opacity="1" /><path clip-path="url(#clip480)" d="M99.5335 866.805 Q95.9224 866.805 94.0937 870.37 Q92.2882 873.911 92.2882 881.041 Q92.2882 888.147 94.0937 891.712 Q95.9224 895.254 99.5335 895.254 Q103.168 895.254 104.973 891.712 Q106.802 888.147 106.802 881.041 Q106.802 873.911 104.973 870.37 Q103.168 866.805 99.5335 866.805 M99.5335 863.101 Q105.344 863.101 108.399 867.708 Q111.478 872.291 111.478 881.041 Q111.478 889.768 108.399 894.374 Q105.344 898.957 99.5335 898.957 Q93.7234 898.957 90.6447 894.374 Q87.5892 889.768 87.5892 881.041 Q87.5892 872.291 90.6447 867.708 Q93.7234 863.101 99.5335 863.101 Z" fill="#000000" fill-rule="nonzero" fill-opacity="1" /><path clip-path="url(#clip480)" d="M91.5706 594.079 L99.2095 594.079 L99.2095 567.714 L90.8993 569.38 L90.8993 565.121 L99.1632 563.454 L103.839 563.454 L103.839 594.079 L111.478 594.079 L111.478 598.014 L91.5706 598.014 L91.5706 594.079 Z" fill="#000000" fill-rule="nonzero" fill-opacity="1" /><path clip-path="url(#clip480)" d="M95.1586 293.807 L111.478 293.807 L111.478 297.743 L89.5336 297.743 L89.5336 293.807 Q92.1956 291.053 96.7789 286.423 Q101.385 281.77 102.566 280.428 Q104.811 277.905 105.691 276.169 Q106.594 274.409 106.594 272.72 Q106.594 269.965 104.649 268.229 Q102.728 266.493 99.6261 266.493 Q97.4271 266.493 94.9734 267.257 Q92.5428 268.021 89.7651 269.571 L89.7651 264.849 Q92.5891 263.715 95.0428 263.136 Q97.4965 262.558 99.5335 262.558 Q104.904 262.558 108.098 265.243 Q111.293 267.928 111.293 272.419 Q111.293 274.548 110.483 276.47 Q109.696 278.368 107.589 280.96 Q107.01 281.632 103.909 284.849 Q100.807 288.044 95.1586 293.807 Z" fill="#000000" fill-rule="nonzero" fill-opacity="1" /><circle clip-path="url(#clip482)" cx="1382.28" cy="1171.05" r="14.4" fill="#009af9" fill-rule="evenodd" fill-opacity="0.5" stroke="#000000" stroke-opacity="0.5" stroke-width="3.2"/>
<circle clip-path="url(#clip482)" cx="1677.95" cy="780.641" r="14.4" fill="#009af9" fill-rule="evenodd" fill-opacity="0.5" stroke="#000000" stroke-opacity="0.5" stroke-width="3.2"/>
<circle clip-path="url(#clip482)" cx="2160.33" cy="495.268" r="14.4" fill="#009af9" fill-rule="evenodd" fill-opacity="0.5" stroke="#000000" stroke-opacity="0.5" stroke-width="3.2"/>
<circle clip-path="url(#clip482)" cx="1587.25" cy="1122.7" r="14.4" fill="#009af9" fill-rule="evenodd" fill-opacity="0.5" stroke="#000000" stroke-opacity="0.5" stroke-width="3.2"/>
<circle clip-path="url(#clip482)" cx="992.831" cy="400.101" r="14.4" fill="#009af9" fill-rule="evenodd" fill-opacity="0.5" stroke="#000000" stroke-opacity="0.5" stroke-width="3.2"/>
<circle clip-path="url(#clip482)" cx="1547.08" cy="1445.72" r="14.4" fill="#009af9" fill-rule="evenodd" fill-opacity="0.5" stroke="#000000" stroke-opacity="0.5" stroke-width="3.2"/>
<circle clip-path="url(#clip482)" cx="1535.14" cy="864.844" r="14.4" fill="#009af9" fill-rule="evenodd" fill-opacity="0.5" stroke="#000000" stroke-opacity="0.5" stroke-width="3.2"/>
<circle clip-path="url(#clip482)" cx="975.296" cy="864.583" r="14.4" fill="#009af9" fill-rule="evenodd" fill-opacity="0.5" stroke="#000000" stroke-opacity="0.5" stroke-width="3.2"/>
<circle clip-path="url(#clip482)" cx="716.191" cy="536.6" r="14.4" fill="#009af9" fill-rule="evenodd" fill-opacity="0.5" stroke="#000000" stroke-opacity="0.5" stroke-width="3.2"/>
<circle clip-path="url(#clip482)" cx="1041.6" cy="1128.61" r="14.4" fill="#009af9" fill-rule="evenodd" fill-opacity="0.5" stroke="#000000" stroke-opacity="0.5" stroke-width="3.2"/>
<circle clip-path="url(#clip482)" cx="1022.23" cy="985.963" r="14.4" fill="#009af9" fill-rule="evenodd" fill-opacity="0.5" stroke="#000000" stroke-opacity="0.5" stroke-width="3.2"/>
<circle clip-path="url(#clip482)" cx="2290.34" cy="1040.08" r="14.4" fill="#009af9" fill-rule="evenodd" fill-opacity="0.5" stroke="#000000" stroke-opacity="0.5" stroke-width="3.2"/>
<circle clip-path="url(#clip482)" cx="1313.29" cy="876.332" r="14.4" fill="#009af9" fill-rule="evenodd" fill-opacity="0.5" stroke="#000000" stroke-opacity="0.5" stroke-width="3.2"/>
<circle clip-path="url(#clip482)" cx="1555.49" cy="830.097" r="14.4" fill="#009af9" fill-rule="evenodd" fill-opacity="0.5" stroke="#000000" stroke-opacity="0.5" stroke-width="3.2"/>
<circle clip-path="url(#clip482)" cx="1635.88" cy="714.442" r="14.4" fill="#009af9" fill-rule="evenodd" fill-opacity="0.5" stroke="#000000" stroke-opacity="0.5" stroke-width="3.2"/>
<circle clip-path="url(#clip482)" cx="1536.7" cy="564.095" r="14.4" fill="#009af9" fill-rule="evenodd" fill-opacity="0.5" stroke="#000000" stroke-opacity="0.5" stroke-width="3.2"/>
<circle clip-path="url(#clip482)" cx="1700.86" cy="1154.57" r="14.4" fill="#009af9" fill-rule="evenodd" fill-opacity="0.5" stroke="#000000" stroke-opacity="0.5" stroke-width="3.2"/>
<circle clip-path="url(#clip482)" cx="1813.8" cy="106.71" r="14.4" fill="#009af9" fill-rule="evenodd" fill-opacity="0.5" stroke="#000000" stroke-opacity="0.5" stroke-width="3.2"/>
<circle clip-path="url(#clip482)" cx="1195.22" cy="748.725" r="14.4" fill="#009af9" fill-rule="evenodd" fill-opacity="0.5" stroke="#000000" stroke-opacity="0.5" stroke-width="3.2"/>
<circle clip-path="url(#clip482)" cx="768.684" cy="87.9763" r="14.4" fill="#009af9" fill-rule="evenodd" fill-opacity="0.5" stroke="#000000" stroke-opacity="0.5" stroke-width="3.2"/>
<circle clip-path="url(#clip482)" cx="1125.66" cy="1279.32" r="14.4" fill="#009af9" fill-rule="evenodd" fill-opacity="0.5" stroke="#000000" stroke-opacity="0.5" stroke-width="3.2"/>
<circle clip-path="url(#clip482)" cx="806.191" cy="812.43" r="14.4" fill="#009af9" fill-rule="evenodd" fill-opacity="0.5" stroke="#000000" stroke-opacity="0.5" stroke-width="3.2"/>
<circle clip-path="url(#clip482)" cx="781.162" cy="890.627" r="14.4" fill="#009af9" fill-rule="evenodd" fill-opacity="0.5" stroke="#000000" stroke-opacity="0.5" stroke-width="3.2"/>
<circle clip-path="url(#clip482)" cx="1886.99" cy="808.775" r="14.4" fill="#009af9" fill-rule="evenodd" fill-opacity="0.5" stroke="#000000" stroke-opacity="0.5" stroke-width="3.2"/>
<circle clip-path="url(#clip482)" cx="678.892" cy="557.552" r="14.4" fill="#009af9" fill-rule="evenodd" fill-opacity="0.5" stroke="#000000" stroke-opacity="0.5" stroke-width="3.2"/>
<circle clip-path="url(#clip482)" cx="209.891" cy="1251.49" r="14.4" fill="#009af9" fill-rule="evenodd" fill-opacity="0.5" stroke="#000000" stroke-opacity="0.5" stroke-width="3.2"/>
<circle clip-path="url(#clip482)" cx="1943.37" cy="1170.52" r="14.4" fill="#009af9" fill-rule="evenodd" fill-opacity="0.5" stroke="#000000" stroke-opacity="0.5" stroke-width="3.2"/>
<circle clip-path="url(#clip482)" cx="673.533" cy="1263.45" r="14.4" fill="#009af9" fill-rule="evenodd" fill-opacity="0.5" stroke="#000000" stroke-opacity="0.5" stroke-width="3.2"/>
<circle clip-path="url(#clip482)" cx="903.074" cy="815.125" r="14.4" fill="#009af9" fill-rule="evenodd" fill-opacity="0.5" stroke="#000000" stroke-opacity="0.5" stroke-width="3.2"/>
<circle clip-path="url(#clip482)" cx="1382.49" cy="804.362" r="14.4" fill="#009af9" fill-rule="evenodd" fill-opacity="0.5" stroke="#000000" stroke-opacity="0.5" stroke-width="3.2"/>
<path clip-path="url(#clip482)" d="M209.891 1251.49 L1547.08 1445.72 L2290.34 1040.08 L2160.33 495.268 L1813.8 106.71 L768.684 87.9763 L209.891 1251.49 L209.891 1251.49  Z" fill="#e26f46" fill-rule="evenodd" fill-opacity="0.2"/>
<polyline clip-path="url(#clip482)" style="stroke:#000000; stroke-linecap:round; stroke-linejoin:round; stroke-width:4; stroke-opacity:0.2; fill:none" points="209.891,1251.49 1547.08,1445.72 2290.34,1040.08 2160.33,495.268 1813.8,106.71 768.684,87.9763 209.891,1251.49 "/>
</svg>
