<?xml version="1.0" encoding="utf-8"?>
<svg xmlns="http://www.w3.org/2000/svg" xmlns:xlink="http://www.w3.org/1999/xlink" width="600" height="400" viewBox="0 0 2400 1600">
<defs>
  <clipPath id="clip860">
    <rect x="0" y="0" width="2400" height="1600"/>
  </clipPath>
</defs>
<path clip-path="url(#clip860)" d="M0 1600 L2400 1600 L2400 0 L0 0  Z" fill="#ffffff" fill-rule="evenodd" fill-opacity="1"/>
<defs>
  <clipPath id="clip861">
    <rect x="193" y="47" width="2160" height="1440"/>
  </clipPath>
</defs>
<path clip-path="url(#clip860)" d="M193.936 1486.45 L2352.76 1486.45 L2352.76 47.2441 L193.936 47.2441  Z" fill="#ffffff" fill-rule="evenodd" fill-opacity="1"/>
<polyline clip-path="url(#clip861)" style="stroke:#000000; stroke-linecap:round; stroke-linejoin:round; stroke-width:2; stroke-opacity:0.1; fill:none" points="229.532,1486.45 229.532,47.2441 "/>
<polyline clip-path="url(#clip861)" style="stroke:#000000; stroke-linecap:round; stroke-linejoin:round; stroke-width:2; stroke-opacity:0.1; fill:none" points="819.973,1486.45 819.973,47.2441 "/>
<polyline clip-path="url(#clip861)" style="stroke:#000000; stroke-linecap:round; stroke-linejoin:round; stroke-width:2; stroke-opacity:0.1; fill:none" points="1410.41,1486.45 1410.41,47.2441 "/>
<polyline clip-path="url(#clip861)" style="stroke:#000000; stroke-linecap:round; stroke-linejoin:round; stroke-width:2; stroke-opacity:0.1; fill:none" points="2000.86,1486.45 2000.86,47.2441 "/>
<polyline clip-path="url(#clip861)" style="stroke:#000000; stroke-linecap:round; stroke-linejoin:round; stroke-width:2; stroke-opacity:0.1; fill:none" points="193.936,1296.85 2352.76,1296.85 "/>
<polyline clip-path="url(#clip861)" style="stroke:#000000; stroke-linecap:round; stroke-linejoin:round; stroke-width:2; stroke-opacity:0.1; fill:none" points="193.936,1057.54 2352.76,1057.54 "/>
<polyline clip-path="url(#clip861)" style="stroke:#000000; stroke-linecap:round; stroke-linejoin:round; stroke-width:2; stroke-opacity:0.1; fill:none" points="193.936,818.218 2352.76,818.218 "/>
<polyline clip-path="url(#clip861)" style="stroke:#000000; stroke-linecap:round; stroke-linejoin:round; stroke-width:2; stroke-opacity:0.1; fill:none" points="193.936,578.901 2352.76,578.901 "/>
<polyline clip-path="url(#clip861)" style="stroke:#000000; stroke-linecap:round; stroke-linejoin:round; stroke-width:2; stroke-opacity:0.1; fill:none" points="193.936,339.583 2352.76,339.583 "/>
<polyline clip-path="url(#clip861)" style="stroke:#000000; stroke-linecap:round; stroke-linejoin:round; stroke-width:2; stroke-opacity:0.1; fill:none" points="193.936,100.265 2352.76,100.265 "/>
<polyline clip-path="url(#clip860)" style="stroke:#000000; stroke-linecap:round; stroke-linejoin:round; stroke-width:4; stroke-opacity:1; fill:none" points="193.936,1486.45 2352.76,1486.45 "/>
<polyline clip-path="url(#clip860)" style="stroke:#000000; stroke-linecap:round; stroke-linejoin:round; stroke-width:4; stroke-opacity:1; fill:none" points="229.532,1486.45 229.532,1467.55 "/>
<polyline clip-path="url(#clip860)" style="stroke:#000000; stroke-linecap:round; stroke-linejoin:round; stroke-width:4; stroke-opacity:1; fill:none" points="819.973,1486.45 819.973,1467.55 "/>
<polyline clip-path="url(#clip860)" style="stroke:#000000; stroke-linecap:round; stroke-linejoin:round; stroke-width:4; stroke-opacity:1; fill:none" points="1410.41,1486.45 1410.41,1467.55 "/>
<polyline clip-path="url(#clip860)" style="stroke:#000000; stroke-linecap:round; stroke-linejoin:round; stroke-width:4; stroke-opacity:1; fill:none" points="2000.86,1486.45 2000.86,1467.55 "/>
<path clip-path="url(#clip860)" d="M199.474 1532.02 L229.15 1532.02 L229.15 1535.95 L199.474 1535.95 L199.474 1532.02 Z" fill="#000000" fill-rule="nonzero" fill-opacity="1" /><path clip-path="url(#clip860)" d="M243.27 1544.91 L259.59 1544.91 L259.59 1548.85 L237.645 1548.85 L237.645 1544.91 Q240.308 1542.16 244.891 1537.53 Q249.497 1532.88 250.678 1531.53 Q252.923 1529.01 253.803 1527.27 Q254.706 1525.51 254.706 1523.82 Q254.706 1521.07 252.761 1519.33 Q250.84 1517.6 247.738 1517.6 Q245.539 1517.6 243.085 1518.36 Q240.655 1519.13 237.877 1520.68 L237.877 1515.95 Q240.701 1514.82 243.155 1514.24 Q245.608 1513.66 247.645 1513.66 Q253.016 1513.66 256.21 1516.35 Q259.405 1519.03 259.405 1523.52 Q259.405 1525.65 258.594 1527.57 Q257.807 1529.47 255.701 1532.07 Q255.122 1532.74 252.02 1535.95 Q248.919 1539.15 243.27 1544.91 Z" fill="#000000" fill-rule="nonzero" fill-opacity="1" /><path clip-path="url(#clip860)" d="M789.73 1532.02 L819.406 1532.02 L819.406 1535.95 L789.73 1535.95 L789.73 1532.02 Z" fill="#000000" fill-rule="nonzero" fill-opacity="1" /><path clip-path="url(#clip860)" d="M830.309 1544.91 L837.948 1544.91 L837.948 1518.55 L829.637 1520.21 L829.637 1515.95 L837.901 1514.29 L842.577 1514.29 L842.577 1544.91 L850.216 1544.91 L850.216 1548.85 L830.309 1548.85 L830.309 1544.91 Z" fill="#000000" fill-rule="nonzero" fill-opacity="1" /><path clip-path="url(#clip860)" d="M1410.41 1517.37 Q1406.8 1517.37 1404.97 1520.93 Q1403.17 1524.47 1403.17 1531.6 Q1403.17 1538.71 1404.97 1542.27 Q1406.8 1545.82 1410.41 1545.82 Q1414.05 1545.82 1415.85 1542.27 Q1417.68 1538.71 1417.68 1531.6 Q1417.68 1524.47 1415.85 1520.93 Q1414.05 1517.37 1410.41 1517.37 M1410.41 1513.66 Q1416.22 1513.66 1419.28 1518.27 Q1422.36 1522.85 1422.36 1531.6 Q1422.36 1540.33 1419.28 1544.94 Q1416.22 1549.52 1410.41 1549.52 Q1404.6 1549.52 1401.53 1544.94 Q1398.47 1540.33 1398.47 1531.6 Q1398.47 1522.85 1401.53 1518.27 Q1404.6 1513.66 1410.41 1513.66 Z" fill="#000000" fill-rule="nonzero" fill-opacity="1" /><path clip-path="url(#clip860)" d="M1991.24 1544.91 L1998.88 1544.91 L1998.88 1518.55 L1990.57 1520.21 L1990.57 1515.95 L1998.83 1514.29 L2003.51 1514.29 L2003.51 1544.91 L2011.14 1544.91 L2011.14 1548.85 L1991.24 1548.85 L1991.24 1544.91 Z" fill="#000000" fill-rule="nonzero" fill-opacity="1" /><polyline clip-path="url(#clip860)" style="stroke:#000000; stroke-linecap:round; stroke-linejoin:round; stroke-width:4; stroke-opacity:1; fill:none" points="193.936,1486.45 193.936,47.2441 "/>
<polyline clip-path="url(#clip860)" style="stroke:#000000; stroke-linecap:round; stroke-linejoin:round; stroke-width:4; stroke-opacity:1; fill:none" points="193.936,1296.85 212.834,1296.85 "/>
<polyline clip-path="url(#clip860)" style="stroke:#000000; stroke-linecap:round; stroke-linejoin:round; stroke-width:4; stroke-opacity:1; fill:none" points="193.936,1057.54 212.834,1057.54 "/>
<polyline clip-path="url(#clip860)" style="stroke:#000000; stroke-linecap:round; stroke-linejoin:round; stroke-width:4; stroke-opacity:1; fill:none" points="193.936,818.218 212.834,818.218 "/>
<polyline clip-path="url(#clip860)" style="stroke:#000000; stroke-linecap:round; stroke-linejoin:round; stroke-width:4; stroke-opacity:1; fill:none" points="193.936,578.901 212.834,578.901 "/>
<polyline clip-path="url(#clip860)" style="stroke:#000000; stroke-linecap:round; stroke-linejoin:round; stroke-width:4; stroke-opacity:1; fill:none" points="193.936,339.583 212.834,339.583 "/>
<polyline clip-path="url(#clip860)" style="stroke:#000000; stroke-linecap:round; stroke-linejoin:round; stroke-width:4; stroke-opacity:1; fill:none" points="193.936,100.265 212.834,100.265 "/>
<path clip-path="url(#clip860)" d="M50.9921 1297.31 L80.6679 1297.31 L80.6679 1301.24 L50.9921 1301.24 L50.9921 1297.31 Z" fill="#000000" fill-rule="nonzero" fill-opacity="1" /><path clip-path="url(#clip860)" d="M91.5706 1310.2 L99.2095 1310.2 L99.2095 1283.83 L90.8993 1285.5 L90.8993 1281.24 L99.1632 1279.57 L103.839 1279.57 L103.839 1310.2 L111.478 1310.2 L111.478 1314.13 L91.5706 1314.13 L91.5706 1310.2 Z" fill="#000000" fill-rule="nonzero" fill-opacity="1" /><path clip-path="url(#clip860)" d="M120.922 1308.25 L125.807 1308.25 L125.807 1314.13 L120.922 1314.13 L120.922 1308.25 Z" fill="#000000" fill-rule="nonzero" fill-opacity="1" /><path clip-path="url(#clip860)" d="M145.992 1282.65 Q142.381 1282.65 140.552 1286.22 Q138.746 1289.76 138.746 1296.89 Q138.746 1303.99 140.552 1307.56 Q142.381 1311.1 145.992 1311.1 Q149.626 1311.1 151.431 1307.56 Q153.26 1303.99 153.26 1296.89 Q153.26 1289.76 151.431 1286.22 Q149.626 1282.65 145.992 1282.65 M145.992 1278.95 Q151.802 1278.95 154.857 1283.56 Q157.936 1288.14 157.936 1296.89 Q157.936 1305.62 154.857 1310.22 Q151.802 1314.81 145.992 1314.81 Q140.181 1314.81 137.103 1310.22 Q134.047 1305.62 134.047 1296.89 Q134.047 1288.14 137.103 1283.56 Q140.181 1278.95 145.992 1278.95 Z" fill="#000000" fill-rule="nonzero" fill-opacity="1" /><path clip-path="url(#clip860)" d="M51.9875 1057.99 L81.6633 1057.99 L81.6633 1061.92 L51.9875 1061.92 L51.9875 1057.99 Z" fill="#000000" fill-rule="nonzero" fill-opacity="1" /><path clip-path="url(#clip860)" d="M101.756 1043.33 Q98.1447 1043.33 96.316 1046.9 Q94.5104 1050.44 94.5104 1057.57 Q94.5104 1064.68 96.316 1068.24 Q98.1447 1071.78 101.756 1071.78 Q105.39 1071.78 107.196 1068.24 Q109.024 1064.68 109.024 1057.57 Q109.024 1050.44 107.196 1046.9 Q105.39 1043.33 101.756 1043.33 M101.756 1039.63 Q107.566 1039.63 110.621 1044.24 Q113.7 1048.82 113.7 1057.57 Q113.7 1066.3 110.621 1070.9 Q107.566 1075.49 101.756 1075.49 Q95.9456 1075.49 92.8669 1070.9 Q89.8114 1066.3 89.8114 1057.57 Q89.8114 1048.82 92.8669 1044.24 Q95.9456 1039.63 101.756 1039.63 Z" fill="#000000" fill-rule="nonzero" fill-opacity="1" /><path clip-path="url(#clip860)" d="M121.918 1068.94 L126.802 1068.94 L126.802 1074.82 L121.918 1074.82 L121.918 1068.94 Z" fill="#000000" fill-rule="nonzero" fill-opacity="1" /><path clip-path="url(#clip860)" d="M137.033 1040.26 L155.39 1040.26 L155.39 1044.19 L141.316 1044.19 L141.316 1052.66 Q142.334 1052.32 143.353 1052.15 Q144.371 1051.97 145.39 1051.97 Q151.177 1051.97 154.556 1055.14 Q157.936 1058.31 157.936 1063.73 Q157.936 1069.31 154.464 1072.41 Q150.992 1075.49 144.672 1075.49 Q142.496 1075.49 140.228 1075.12 Q137.982 1074.75 135.575 1074.01 L135.575 1069.31 Q137.658 1070.44 139.881 1071 Q142.103 1071.55 144.58 1071.55 Q148.584 1071.55 150.922 1069.45 Q153.26 1067.34 153.26 1063.73 Q153.26 1060.12 150.922 1058.01 Q148.584 1055.9 144.58 1055.9 Q142.705 1055.9 140.83 1056.32 Q138.978 1056.74 137.033 1057.62 L137.033 1040.26 Z" fill="#000000" fill-rule="nonzero" fill-opacity="1" /><path clip-path="url(#clip860)" d="M100.76 804.017 Q97.1493 804.017 95.3206 807.582 Q93.515 811.123 93.515 818.253 Q93.515 825.359 95.3206 828.924 Q97.1493 832.466 100.76 832.466 Q104.395 832.466 106.2 828.924 Q108.029 825.359 108.029 818.253 Q108.029 811.123 106.2 807.582 Q104.395 804.017 100.76 804.017 M100.76 800.313 Q106.571 800.313 109.626 804.92 Q112.705 809.503 112.705 818.253 Q112.705 826.98 109.626 831.586 Q106.571 836.17 100.76 836.17 Q94.9502 836.17 91.8715 831.586 Q88.816 826.98 88.816 818.253 Q88.816 809.503 91.8715 804.92 Q94.9502 800.313 100.76 800.313 Z" fill="#000000" fill-rule="nonzero" fill-opacity="1" /><path clip-path="url(#clip860)" d="M120.922 829.619 L125.807 829.619 L125.807 835.498 L120.922 835.498 L120.922 829.619 Z" fill="#000000" fill-rule="nonzero" fill-opacity="1" /><path clip-path="url(#clip860)" d="M145.992 804.017 Q142.381 804.017 140.552 807.582 Q138.746 811.123 138.746 818.253 Q138.746 825.359 140.552 828.924 Q142.381 832.466 145.992 832.466 Q149.626 832.466 151.431 828.924 Q153.26 825.359 153.26 818.253 Q153.26 811.123 151.431 807.582 Q149.626 804.017 145.992 804.017 M145.992 800.313 Q151.802 800.313 154.857 804.92 Q157.936 809.503 157.936 818.253 Q157.936 826.98 154.857 831.586 Q151.802 836.17 145.992 836.17 Q140.181 836.17 137.103 831.586 Q134.047 826.98 134.047 818.253 Q134.047 809.503 137.103 804.92 Q140.181 800.313 145.992 800.313 Z" fill="#000000" fill-rule="nonzero" fill-opacity="1" /><path clip-path="url(#clip860)" d="M101.756 564.699 Q98.1447 564.699 96.316 568.264 Q94.5104 571.806 94.5104 578.935 Q94.5104 586.042 96.316 589.606 Q98.1447 593.148 101.756 593.148 Q105.39 593.148 107.196 589.606 Q109.024 586.042 109.024 578.935 Q109.024 571.806 107.196 568.264 Q105.39 564.699 101.756 564.699 M101.756 560.996 Q107.566 560.996 110.621 565.602 Q113.7 570.185 113.7 578.935 Q113.7 587.662 110.621 592.269 Q107.566 596.852 101.756 596.852 Q95.9456 596.852 92.8669 592.269 Q89.8114 587.662 89.8114 578.935 Q89.8114 570.185 92.8669 565.602 Q95.9456 560.996 101.756 560.996 Z" fill="#000000" fill-rule="nonzero" fill-opacity="1" /><path clip-path="url(#clip860)" d="M121.918 590.301 L126.802 590.301 L126.802 596.181 L121.918 596.181 L121.918 590.301 Z" fill="#000000" fill-rule="nonzero" fill-opacity="1" /><path clip-path="url(#clip860)" d="M137.033 561.621 L155.39 561.621 L155.39 565.556 L141.316 565.556 L141.316 574.028 Q142.334 573.681 143.353 573.519 Q144.371 573.333 145.39 573.333 Q151.177 573.333 154.556 576.505 Q157.936 579.676 157.936 585.093 Q157.936 590.671 154.464 593.773 Q150.992 596.852 144.672 596.852 Q142.496 596.852 140.228 596.481 Q137.982 596.111 135.575 595.37 L135.575 590.671 Q137.658 591.806 139.881 592.361 Q142.103 592.917 144.58 592.917 Q148.584 592.917 150.922 590.81 Q153.26 588.704 153.26 585.093 Q153.26 581.482 150.922 579.375 Q148.584 577.269 144.58 577.269 Q142.705 577.269 140.83 577.685 Q138.978 578.102 137.033 578.982 L137.033 561.621 Z" fill="#000000" fill-rule="nonzero" fill-opacity="1" /><path clip-path="url(#clip860)" d="M91.5706 352.928 L99.2095 352.928 L99.2095 326.562 L90.8993 328.229 L90.8993 323.969 L99.1632 322.303 L103.839 322.303 L103.839 352.928 L111.478 352.928 L111.478 356.863 L91.5706 356.863 L91.5706 352.928 Z" fill="#000000" fill-rule="nonzero" fill-opacity="1" /><path clip-path="url(#clip860)" d="M120.922 350.983 L125.807 350.983 L125.807 356.863 L120.922 356.863 L120.922 350.983 Z" fill="#000000" fill-rule="nonzero" fill-opacity="1" /><path clip-path="url(#clip860)" d="M145.992 325.381 Q142.381 325.381 140.552 328.946 Q138.746 332.488 138.746 339.617 Q138.746 346.724 140.552 350.289 Q142.381 353.83 145.992 353.83 Q149.626 353.83 151.431 350.289 Q153.26 346.724 153.26 339.617 Q153.26 332.488 151.431 328.946 Q149.626 325.381 145.992 325.381 M145.992 321.678 Q151.802 321.678 154.857 326.284 Q157.936 330.868 157.936 339.617 Q157.936 348.344 154.857 352.951 Q151.802 357.534 145.992 357.534 Q140.181 357.534 137.103 352.951 Q134.047 348.344 134.047 339.617 Q134.047 330.868 137.103 326.284 Q140.181 321.678 145.992 321.678 Z" fill="#000000" fill-rule="nonzero" fill-opacity="1" /><path clip-path="url(#clip860)" d="M92.566 113.61 L100.205 113.61 L100.205 87.2442 L91.8947 88.9109 L91.8947 84.6517 L100.159 82.985 L104.834 82.985 L104.834 113.61 L112.473 113.61 L112.473 117.545 L92.566 117.545 L92.566 113.61 Z" fill="#000000" fill-rule="nonzero" fill-opacity="1" /><path clip-path="url(#clip860)" d="M121.918 111.665 L126.802 111.665 L126.802 117.545 L121.918 117.545 L121.918 111.665 Z" fill="#000000" fill-rule="nonzero" fill-opacity="1" /><path clip-path="url(#clip860)" d="M137.033 82.985 L155.39 82.985 L155.39 86.9202 L141.316 86.9202 L141.316 95.3923 Q142.334 95.0451 143.353 94.8831 Q144.371 94.6979 145.39 94.6979 Q151.177 94.6979 154.556 97.8692 Q157.936 101.04 157.936 106.457 Q157.936 112.036 154.464 115.138 Q150.992 118.216 144.672 118.216 Q142.496 118.216 140.228 117.846 Q137.982 117.476 135.575 116.735 L135.575 112.036 Q137.658 113.17 139.881 113.726 Q142.103 114.281 144.58 114.281 Q148.584 114.281 150.922 112.175 Q153.26 110.068 153.26 106.457 Q153.26 102.846 150.922 100.74 Q148.584 98.6331 144.58 98.6331 Q142.705 98.6331 140.83 99.0497 Q138.978 99.4664 137.033 100.346 L137.033 82.985 Z" fill="#000000" fill-rule="nonzero" fill-opacity="1" /><circle clip-path="url(#clip861)" cx="1425.64" cy="561.038" r="14.4" fill="#009af9" fill-rule="evenodd" fill-opacity="0.5" stroke="#000000" stroke-opacity="0.5" stroke-width="3.2"/>
<circle clip-path="url(#clip861)" cx="726.96" cy="925.739" r="14.4" fill="#009af9" fill-rule="evenodd" fill-opacity="0.5" stroke="#000000" stroke-opacity="0.5" stroke-width="3.2"/>
<circle clip-path="url(#clip861)" cx="496.871" cy="1430.24" r="14.4" fill="#009af9" fill-rule="evenodd" fill-opacity="0.5" stroke="#000000" stroke-opacity="0.5" stroke-width="3.2"/>
<circle clip-path="url(#clip861)" cx="2255.32" cy="878.983" r="14.4" fill="#009af9" fill-rule="evenodd" fill-opacity="0.5" stroke="#000000" stroke-opacity="0.5" stroke-width="3.2"/>
<circle clip-path="url(#clip861)" cx="1865.06" cy="1244.19" r="14.4" fill="#009af9" fill-rule="evenodd" fill-opacity="0.5" stroke="#000000" stroke-opacity="0.5" stroke-width="3.2"/>
<circle clip-path="url(#clip861)" cx="1818.67" cy="689.641" r="14.4" fill="#009af9" fill-rule="evenodd" fill-opacity="0.5" stroke="#000000" stroke-opacity="0.5" stroke-width="3.2"/>
<circle clip-path="url(#clip861)" cx="1594.18" cy="1445.72" r="14.4" fill="#009af9" fill-rule="evenodd" fill-opacity="0.5" stroke="#000000" stroke-opacity="0.5" stroke-width="3.2"/>
<circle clip-path="url(#clip861)" cx="1229.14" cy="716.137" r="14.4" fill="#009af9" fill-rule="evenodd" fill-opacity="0.5" stroke="#000000" stroke-opacity="0.5" stroke-width="3.2"/>
<circle clip-path="url(#clip861)" cx="1188.29" cy="560.085" r="14.4" fill="#009af9" fill-rule="evenodd" fill-opacity="0.5" stroke="#000000" stroke-opacity="0.5" stroke-width="3.2"/>
<circle clip-path="url(#clip861)" cx="1128.56" cy="940.903" r="14.4" fill="#009af9" fill-rule="evenodd" fill-opacity="0.5" stroke="#000000" stroke-opacity="0.5" stroke-width="3.2"/>
<circle clip-path="url(#clip861)" cx="1701.41" cy="508.888" r="14.4" fill="#009af9" fill-rule="evenodd" fill-opacity="0.5" stroke="#000000" stroke-opacity="0.5" stroke-width="3.2"/>
<circle clip-path="url(#clip861)" cx="1899.77" cy="699.393" r="14.4" fill="#009af9" fill-rule="evenodd" fill-opacity="0.5" stroke="#000000" stroke-opacity="0.5" stroke-width="3.2"/>
<circle clip-path="url(#clip861)" cx="1782.97" cy="1053.99" r="14.4" fill="#009af9" fill-rule="evenodd" fill-opacity="0.5" stroke="#000000" stroke-opacity="0.5" stroke-width="3.2"/>
<circle clip-path="url(#clip861)" cx="944.09" cy="696.386" r="14.4" fill="#009af9" fill-rule="evenodd" fill-opacity="0.5" stroke="#000000" stroke-opacity="0.5" stroke-width="3.2"/>
<circle clip-path="url(#clip861)" cx="1685.05" cy="1324.74" r="14.4" fill="#009af9" fill-rule="evenodd" fill-opacity="0.5" stroke="#000000" stroke-opacity="0.5" stroke-width="3.2"/>
<circle clip-path="url(#clip861)" cx="381.342" cy="1329.77" r="14.4" fill="#009af9" fill-rule="evenodd" fill-opacity="0.5" stroke="#000000" stroke-opacity="0.5" stroke-width="3.2"/>
<circle clip-path="url(#clip861)" cx="2291.66" cy="857.384" r="14.4" fill="#009af9" fill-rule="evenodd" fill-opacity="0.5" stroke="#000000" stroke-opacity="0.5" stroke-width="3.2"/>
<circle clip-path="url(#clip861)" cx="1766.35" cy="809.399" r="14.4" fill="#009af9" fill-rule="evenodd" fill-opacity="0.5" stroke="#000000" stroke-opacity="0.5" stroke-width="3.2"/>
<circle clip-path="url(#clip861)" cx="357.001" cy="1107.28" r="14.4" fill="#009af9" fill-rule="evenodd" fill-opacity="0.5" stroke="#000000" stroke-opacity="0.5" stroke-width="3.2"/>
<circle clip-path="url(#clip861)" cx="2153.18" cy="430.785" r="14.4" fill="#009af9" fill-rule="evenodd" fill-opacity="0.5" stroke="#000000" stroke-opacity="0.5" stroke-width="3.2"/>
<circle clip-path="url(#clip861)" cx="1285.15" cy="87.9763" r="14.4" fill="#009af9" fill-rule="evenodd" fill-opacity="0.5" stroke="#000000" stroke-opacity="0.5" stroke-width="3.2"/>
<circle clip-path="url(#clip861)" cx="2198.22" cy="1056.09" r="14.4" fill="#009af9" fill-rule="evenodd" fill-opacity="0.5" stroke="#000000" stroke-opacity="0.5" stroke-width="3.2"/>
<circle clip-path="url(#clip861)" cx="1942.11" cy="1361.46" r="14.4" fill="#009af9" fill-rule="evenodd" fill-opacity="0.5" stroke="#000000" stroke-opacity="0.5" stroke-width="3.2"/>
<circle clip-path="url(#clip861)" cx="616.043" cy="806.129" r="14.4" fill="#009af9" fill-rule="evenodd" fill-opacity="0.5" stroke="#000000" stroke-opacity="0.5" stroke-width="3.2"/>
<circle clip-path="url(#clip861)" cx="2170.62" cy="1099.24" r="14.4" fill="#009af9" fill-rule="evenodd" fill-opacity="0.5" stroke="#000000" stroke-opacity="0.5" stroke-width="3.2"/>
<circle clip-path="url(#clip861)" cx="1083.1" cy="243.004" r="14.4" fill="#009af9" fill-rule="evenodd" fill-opacity="0.5" stroke="#000000" stroke-opacity="0.5" stroke-width="3.2"/>
<circle clip-path="url(#clip861)" cx="2019.44" cy="1172.4" r="14.4" fill="#009af9" fill-rule="evenodd" fill-opacity="0.5" stroke="#000000" stroke-opacity="0.5" stroke-width="3.2"/>
<circle clip-path="url(#clip861)" cx="1184.77" cy="1028.61" r="14.4" fill="#009af9" fill-rule="evenodd" fill-opacity="0.5" stroke="#000000" stroke-opacity="0.5" stroke-width="3.2"/>
<circle clip-path="url(#clip861)" cx="255.035" cy="872.305" r="14.4" fill="#009af9" fill-rule="evenodd" fill-opacity="0.5" stroke="#000000" stroke-opacity="0.5" stroke-width="3.2"/>
<circle clip-path="url(#clip861)" cx="1231.17" cy="643.227" r="14.4" fill="#009af9" fill-rule="evenodd" fill-opacity="0.5" stroke="#000000" stroke-opacity="0.5" stroke-width="3.2"/>
<path clip-path="url(#clip861)" d="M255.035 872.305 L381.342 1329.77 L496.871 1430.24 L1594.18 1445.72 L1942.11 1361.46 L2170.62 1099.24 L2198.22 1056.09 L2291.66 857.384 L2153.18 430.785 L1285.15 87.9763 L255.035 872.305 L255.035 872.305  Z" fill="#e26f46" fill-rule="evenodd" fill-opacity="0.2"/>
<polyline clip-path="url(#clip861)" style="stroke:#000000; stroke-linecap:round; stroke-linejoin:round; stroke-width:4; stroke-opacity:0.2; fill:none" points="255.035,872.305 381.342,1329.77 496.871,1430.24 1594.18,1445.72 1942.11,1361.46 2170.62,1099.24 2198.22,1056.09 2291.66,857.384 2153.18,430.785 1285.15,87.9763 255.035,872.305 "/>
</svg>
