<?xml version="1.0" encoding="utf-8"?>
<svg xmlns="http://www.w3.org/2000/svg" xmlns:xlink="http://www.w3.org/1999/xlink" width="600" height="400" viewBox="0 0 2400 1600">
<defs>
  <clipPath id="clip770">
    <rect x="0" y="0" width="2400" height="1600"/>
  </clipPath>
</defs>
<path clip-path="url(#clip770)" d="M0 1600 L2400 1600 L2400 0 L0 0  Z" fill="#ffffff" fill-rule="evenodd" fill-opacity="1"/>
<defs>
  <clipPath id="clip771">
    <rect x="480" y="0" width="1681" height="1600"/>
  </clipPath>
</defs>
<path clip-path="url(#clip770)" d="M147.478 1486.45 L2352.76 1486.45 L2352.76 47.2441 L147.478 47.2441  Z" fill="#ffffff" fill-rule="evenodd" fill-opacity="1"/>
<defs>
  <clipPath id="clip772">
    <rect x="147" y="47" width="2206" height="1440"/>
  </clipPath>
</defs>
<polyline clip-path="url(#clip772)" style="stroke:#000000; stroke-linecap:round; stroke-linejoin:round; stroke-width:2; stroke-opacity:0.1; fill:none" points="649.609,1486.45 649.609,47.2441 "/>
<polyline clip-path="url(#clip772)" style="stroke:#000000; stroke-linecap:round; stroke-linejoin:round; stroke-width:2; stroke-opacity:0.1; fill:none" points="1155.06,1486.45 1155.06,47.2441 "/>
<polyline clip-path="url(#clip772)" style="stroke:#000000; stroke-linecap:round; stroke-linejoin:round; stroke-width:2; stroke-opacity:0.1; fill:none" points="1660.51,1486.45 1660.51,47.2441 "/>
<polyline clip-path="url(#clip772)" style="stroke:#000000; stroke-linecap:round; stroke-linejoin:round; stroke-width:2; stroke-opacity:0.1; fill:none" points="2165.96,1486.45 2165.96,47.2441 "/>
<polyline clip-path="url(#clip772)" style="stroke:#000000; stroke-linecap:round; stroke-linejoin:round; stroke-width:2; stroke-opacity:0.1; fill:none" points="147.478,1472.57 2352.76,1472.57 "/>
<polyline clip-path="url(#clip772)" style="stroke:#000000; stroke-linecap:round; stroke-linejoin:round; stroke-width:2; stroke-opacity:0.1; fill:none" points="147.478,1143.43 2352.76,1143.43 "/>
<polyline clip-path="url(#clip772)" style="stroke:#000000; stroke-linecap:round; stroke-linejoin:round; stroke-width:2; stroke-opacity:0.1; fill:none" points="147.478,814.302 2352.76,814.302 "/>
<polyline clip-path="url(#clip772)" style="stroke:#000000; stroke-linecap:round; stroke-linejoin:round; stroke-width:2; stroke-opacity:0.1; fill:none" points="147.478,485.17 2352.76,485.17 "/>
<polyline clip-path="url(#clip772)" style="stroke:#000000; stroke-linecap:round; stroke-linejoin:round; stroke-width:2; stroke-opacity:0.1; fill:none" points="147.478,156.037 2352.76,156.037 "/>
<polyline clip-path="url(#clip770)" style="stroke:#000000; stroke-linecap:round; stroke-linejoin:round; stroke-width:4; stroke-opacity:1; fill:none" points="147.478,1486.45 2352.76,1486.45 "/>
<polyline clip-path="url(#clip770)" style="stroke:#000000; stroke-linecap:round; stroke-linejoin:round; stroke-width:4; stroke-opacity:1; fill:none" points="649.609,1486.45 649.609,1467.55 "/>
<polyline clip-path="url(#clip770)" style="stroke:#000000; stroke-linecap:round; stroke-linejoin:round; stroke-width:4; stroke-opacity:1; fill:none" points="1155.06,1486.45 1155.06,1467.55 "/>
<polyline clip-path="url(#clip770)" style="stroke:#000000; stroke-linecap:round; stroke-linejoin:round; stroke-width:4; stroke-opacity:1; fill:none" points="1660.51,1486.45 1660.51,1467.55 "/>
<polyline clip-path="url(#clip770)" style="stroke:#000000; stroke-linecap:round; stroke-linejoin:round; stroke-width:4; stroke-opacity:1; fill:none" points="2165.96,1486.45 2165.96,1467.55 "/>
<path clip-path="url(#clip770)" d="M619.366 1532.02 L649.042 1532.02 L649.042 1535.95 L619.366 1535.95 L619.366 1532.02 Z" fill="#000000" fill-rule="nonzero" fill-opacity="1" /><path clip-path="url(#clip770)" d="M659.945 1544.91 L667.583 1544.91 L667.583 1518.55 L659.273 1520.21 L659.273 1515.95 L667.537 1514.29 L672.213 1514.29 L672.213 1544.91 L679.852 1544.91 L679.852 1548.85 L659.945 1548.85 L659.945 1544.91 Z" fill="#000000" fill-rule="nonzero" fill-opacity="1" /><path clip-path="url(#clip770)" d="M1155.06 1517.37 Q1151.45 1517.37 1149.62 1520.93 Q1147.81 1524.47 1147.81 1531.6 Q1147.81 1538.71 1149.62 1542.27 Q1151.45 1545.82 1155.06 1545.82 Q1158.69 1545.82 1160.5 1542.27 Q1162.33 1538.71 1162.33 1531.6 Q1162.33 1524.47 1160.5 1520.93 Q1158.69 1517.37 1155.06 1517.37 M1155.06 1513.66 Q1160.87 1513.66 1163.93 1518.27 Q1167 1522.85 1167 1531.6 Q1167 1540.33 1163.93 1544.94 Q1160.87 1549.52 1155.06 1549.52 Q1149.25 1549.52 1146.17 1544.94 Q1143.12 1540.33 1143.12 1531.6 Q1143.12 1522.85 1146.17 1518.27 Q1149.25 1513.66 1155.06 1513.66 Z" fill="#000000" fill-rule="nonzero" fill-opacity="1" /><path clip-path="url(#clip770)" d="M1650.89 1544.91 L1658.53 1544.91 L1658.53 1518.55 L1650.22 1520.21 L1650.22 1515.95 L1658.48 1514.29 L1663.16 1514.29 L1663.16 1544.91 L1670.8 1544.91 L1670.8 1548.85 L1650.89 1548.85 L1650.89 1544.91 Z" fill="#000000" fill-rule="nonzero" fill-opacity="1" /><path clip-path="url(#clip770)" d="M2160.61 1544.91 L2176.93 1544.91 L2176.93 1548.85 L2154.99 1548.85 L2154.99 1544.91 Q2157.65 1542.16 2162.23 1537.53 Q2166.84 1532.88 2168.02 1531.53 Q2170.27 1529.01 2171.15 1527.27 Q2172.05 1525.51 2172.05 1523.82 Q2172.05 1521.07 2170.1 1519.33 Q2168.18 1517.6 2165.08 1517.6 Q2162.88 1517.6 2160.43 1518.36 Q2158 1519.13 2155.22 1520.68 L2155.22 1515.95 Q2158.04 1514.82 2160.5 1514.24 Q2162.95 1513.66 2164.99 1513.66 Q2170.36 1513.66 2173.55 1516.35 Q2176.75 1519.03 2176.75 1523.52 Q2176.75 1525.65 2175.94 1527.57 Q2175.15 1529.47 2173.04 1532.07 Q2172.46 1532.74 2169.36 1535.95 Q2166.26 1539.15 2160.61 1544.91 Z" fill="#000000" fill-rule="nonzero" fill-opacity="1" /><polyline clip-path="url(#clip770)" style="stroke:#000000; stroke-linecap:round; stroke-linejoin:round; stroke-width:4; stroke-opacity:1; fill:none" points="147.478,1486.45 147.478,47.2441 "/>
<polyline clip-path="url(#clip770)" style="stroke:#000000; stroke-linecap:round; stroke-linejoin:round; stroke-width:4; stroke-opacity:1; fill:none" points="147.478,1472.57 166.376,1472.57 "/>
<polyline clip-path="url(#clip770)" style="stroke:#000000; stroke-linecap:round; stroke-linejoin:round; stroke-width:4; stroke-opacity:1; fill:none" points="147.478,1143.43 166.376,1143.43 "/>
<polyline clip-path="url(#clip770)" style="stroke:#000000; stroke-linecap:round; stroke-linejoin:round; stroke-width:4; stroke-opacity:1; fill:none" points="147.478,814.302 166.376,814.302 "/>
<polyline clip-path="url(#clip770)" style="stroke:#000000; stroke-linecap:round; stroke-linejoin:round; stroke-width:4; stroke-opacity:1; fill:none" points="147.478,485.17 166.376,485.17 "/>
<polyline clip-path="url(#clip770)" style="stroke:#000000; stroke-linecap:round; stroke-linejoin:round; stroke-width:4; stroke-opacity:1; fill:none" points="147.478,156.037 166.376,156.037 "/>
<path clip-path="url(#clip770)" d="M51.3625 1473.02 L81.0383 1473.02 L81.0383 1476.95 L51.3625 1476.95 L51.3625 1473.02 Z" fill="#000000" fill-rule="nonzero" fill-opacity="1" /><path clip-path="url(#clip770)" d="M95.1586 1485.91 L111.478 1485.91 L111.478 1489.85 L89.5336 1489.85 L89.5336 1485.91 Q92.1956 1483.16 96.7789 1478.53 Q101.385 1473.88 102.566 1472.53 Q104.811 1470.01 105.691 1468.27 Q106.594 1466.51 106.594 1464.82 Q106.594 1462.07 104.649 1460.33 Q102.728 1458.6 99.6261 1458.6 Q97.4271 1458.6 94.9734 1459.36 Q92.5428 1460.13 89.7651 1461.68 L89.7651 1456.95 Q92.5891 1455.82 95.0428 1455.24 Q97.4965 1454.66 99.5335 1454.66 Q104.904 1454.66 108.098 1457.35 Q111.293 1460.03 111.293 1464.52 Q111.293 1466.65 110.483 1468.57 Q109.696 1470.47 107.589 1473.07 Q107.01 1473.74 103.909 1476.95 Q100.807 1480.15 95.1586 1485.91 Z" fill="#000000" fill-rule="nonzero" fill-opacity="1" /><path clip-path="url(#clip770)" d="M50.9921 1143.89 L80.6679 1143.89 L80.6679 1147.82 L50.9921 1147.82 L50.9921 1143.89 Z" fill="#000000" fill-rule="nonzero" fill-opacity="1" /><path clip-path="url(#clip770)" d="M91.5706 1156.78 L99.2095 1156.78 L99.2095 1130.41 L90.8993 1132.08 L90.8993 1127.82 L99.1632 1126.15 L103.839 1126.15 L103.839 1156.78 L111.478 1156.78 L111.478 1160.71 L91.5706 1160.71 L91.5706 1156.78 Z" fill="#000000" fill-rule="nonzero" fill-opacity="1" /><path clip-path="url(#clip770)" d="M99.5335 800.101 Q95.9224 800.101 94.0937 803.666 Q92.2882 807.207 92.2882 814.337 Q92.2882 821.443 94.0937 825.008 Q95.9224 828.55 99.5335 828.55 Q103.168 828.55 104.973 825.008 Q106.802 821.443 106.802 814.337 Q106.802 807.207 104.973 803.666 Q103.168 800.101 99.5335 800.101 M99.5335 796.397 Q105.344 796.397 108.399 801.004 Q111.478 805.587 111.478 814.337 Q111.478 823.064 108.399 827.67 Q105.344 832.254 99.5335 832.254 Q93.7234 832.254 90.6447 827.67 Q87.5892 823.064 87.5892 814.337 Q87.5892 805.587 90.6447 801.004 Q93.7234 796.397 99.5335 796.397 Z" fill="#000000" fill-rule="nonzero" fill-opacity="1" /><path clip-path="url(#clip770)" d="M91.5706 498.514 L99.2095 498.514 L99.2095 472.149 L90.8993 473.815 L90.8993 469.556 L99.1632 467.89 L103.839 467.89 L103.839 498.514 L111.478 498.514 L111.478 502.45 L91.5706 502.45 L91.5706 498.514 Z" fill="#000000" fill-rule="nonzero" fill-opacity="1" /><path clip-path="url(#clip770)" d="M95.1586 169.382 L111.478 169.382 L111.478 173.317 L89.5336 173.317 L89.5336 169.382 Q92.1956 166.627 96.7789 161.997 Q101.385 157.345 102.566 156.002 Q104.811 153.479 105.691 151.743 Q106.594 149.984 106.594 148.294 Q106.594 145.539 104.649 143.803 Q102.728 142.067 99.6261 142.067 Q97.4271 142.067 94.9734 142.831 Q92.5428 143.595 89.7651 145.146 L89.7651 140.424 Q92.5891 139.289 95.0428 138.711 Q97.4965 138.132 99.5335 138.132 Q104.904 138.132 108.098 140.817 Q111.293 143.502 111.293 147.993 Q111.293 150.123 110.483 152.044 Q109.696 153.942 107.589 156.535 Q107.01 157.206 103.909 160.423 Q100.807 163.618 95.1586 169.382 Z" fill="#000000" fill-rule="nonzero" fill-opacity="1" /><circle clip-path="url(#clip772)" cx="1694.37" cy="558.165" r="14.4" fill="#009af9" fill-rule="evenodd" fill-opacity="0.5" stroke="#000000" stroke-opacity="0.5" stroke-width="3.2"/>
<circle clip-path="url(#clip772)" cx="1233.94" cy="773.878" r="14.4" fill="#009af9" fill-rule="evenodd" fill-opacity="0.5" stroke="#000000" stroke-opacity="0.5" stroke-width="3.2"/>
<circle clip-path="url(#clip772)" cx="439.314" cy="1103.83" r="14.4" fill="#009af9" fill-rule="evenodd" fill-opacity="0.5" stroke="#000000" stroke-opacity="0.5" stroke-width="3.2"/>
<circle clip-path="url(#clip772)" cx="209.891" cy="144.532" r="14.4" fill="#009af9" fill-rule="evenodd" fill-opacity="0.5" stroke="#000000" stroke-opacity="0.5" stroke-width="3.2"/>
<circle clip-path="url(#clip772)" cx="850.515" cy="967.002" r="14.4" fill="#009af9" fill-rule="evenodd" fill-opacity="0.5" stroke="#000000" stroke-opacity="0.5" stroke-width="3.2"/>
<circle clip-path="url(#clip772)" cx="1363.04" cy="408.878" r="14.4" fill="#009af9" fill-rule="evenodd" fill-opacity="0.5" stroke="#000000" stroke-opacity="0.5" stroke-width="3.2"/>
<circle clip-path="url(#clip772)" cx="1257.47" cy="444.182" r="14.4" fill="#009af9" fill-rule="evenodd" fill-opacity="0.5" stroke="#000000" stroke-opacity="0.5" stroke-width="3.2"/>
<circle clip-path="url(#clip772)" cx="1764.81" cy="87.9763" r="14.4" fill="#009af9" fill-rule="evenodd" fill-opacity="0.5" stroke="#000000" stroke-opacity="0.5" stroke-width="3.2"/>
<circle clip-path="url(#clip772)" cx="1701.14" cy="682.079" r="14.4" fill="#009af9" fill-rule="evenodd" fill-opacity="0.5" stroke="#000000" stroke-opacity="0.5" stroke-width="3.2"/>
<circle clip-path="url(#clip772)" cx="1051.72" cy="1071.48" r="14.4" fill="#009af9" fill-rule="evenodd" fill-opacity="0.5" stroke="#000000" stroke-opacity="0.5" stroke-width="3.2"/>
<circle clip-path="url(#clip772)" cx="1715.36" cy="1445.72" r="14.4" fill="#009af9" fill-rule="evenodd" fill-opacity="0.5" stroke="#000000" stroke-opacity="0.5" stroke-width="3.2"/>
<circle clip-path="url(#clip772)" cx="252.055" cy="672.184" r="14.4" fill="#009af9" fill-rule="evenodd" fill-opacity="0.5" stroke="#000000" stroke-opacity="0.5" stroke-width="3.2"/>
<circle clip-path="url(#clip772)" cx="453.225" cy="762.491" r="14.4" fill="#009af9" fill-rule="evenodd" fill-opacity="0.5" stroke="#000000" stroke-opacity="0.5" stroke-width="3.2"/>
<circle clip-path="url(#clip772)" cx="1619.36" cy="730.988" r="14.4" fill="#009af9" fill-rule="evenodd" fill-opacity="0.5" stroke="#000000" stroke-opacity="0.5" stroke-width="3.2"/>
<circle clip-path="url(#clip772)" cx="832.782" cy="961.051" r="14.4" fill="#009af9" fill-rule="evenodd" fill-opacity="0.5" stroke="#000000" stroke-opacity="0.5" stroke-width="3.2"/>
<circle clip-path="url(#clip772)" cx="1326.36" cy="609.065" r="14.4" fill="#009af9" fill-rule="evenodd" fill-opacity="0.5" stroke="#000000" stroke-opacity="0.5" stroke-width="3.2"/>
<circle clip-path="url(#clip772)" cx="968.272" cy="1104.06" r="14.4" fill="#009af9" fill-rule="evenodd" fill-opacity="0.5" stroke="#000000" stroke-opacity="0.5" stroke-width="3.2"/>
<circle clip-path="url(#clip772)" cx="225.393" cy="577.228" r="14.4" fill="#009af9" fill-rule="evenodd" fill-opacity="0.5" stroke="#000000" stroke-opacity="0.5" stroke-width="3.2"/>
<circle clip-path="url(#clip772)" cx="796.48" cy="935.876" r="14.4" fill="#009af9" fill-rule="evenodd" fill-opacity="0.5" stroke="#000000" stroke-opacity="0.5" stroke-width="3.2"/>
<circle clip-path="url(#clip772)" cx="677.482" cy="1443.15" r="14.4" fill="#009af9" fill-rule="evenodd" fill-opacity="0.5" stroke="#000000" stroke-opacity="0.5" stroke-width="3.2"/>
<circle clip-path="url(#clip772)" cx="1216.38" cy="922.154" r="14.4" fill="#009af9" fill-rule="evenodd" fill-opacity="0.5" stroke="#000000" stroke-opacity="0.5" stroke-width="3.2"/>
<circle clip-path="url(#clip772)" cx="1033.33" cy="674.659" r="14.4" fill="#009af9" fill-rule="evenodd" fill-opacity="0.5" stroke="#000000" stroke-opacity="0.5" stroke-width="3.2"/>
<circle clip-path="url(#clip772)" cx="1764.17" cy="1150.98" r="14.4" fill="#009af9" fill-rule="evenodd" fill-opacity="0.5" stroke="#000000" stroke-opacity="0.5" stroke-width="3.2"/>
<circle clip-path="url(#clip772)" cx="2250.44" cy="408.184" r="14.4" fill="#009af9" fill-rule="evenodd" fill-opacity="0.5" stroke="#000000" stroke-opacity="0.5" stroke-width="3.2"/>
<circle clip-path="url(#clip772)" cx="1013.86" cy="1047.14" r="14.4" fill="#009af9" fill-rule="evenodd" fill-opacity="0.5" stroke="#000000" stroke-opacity="0.5" stroke-width="3.2"/>
<circle clip-path="url(#clip772)" cx="1127.94" cy="1103.59" r="14.4" fill="#009af9" fill-rule="evenodd" fill-opacity="0.5" stroke="#000000" stroke-opacity="0.5" stroke-width="3.2"/>
<circle clip-path="url(#clip772)" cx="2290.34" cy="1200.3" r="14.4" fill="#009af9" fill-rule="evenodd" fill-opacity="0.5" stroke="#000000" stroke-opacity="0.5" stroke-width="3.2"/>
<circle clip-path="url(#clip772)" cx="1601.26" cy="702.103" r="14.4" fill="#009af9" fill-rule="evenodd" fill-opacity="0.5" stroke="#000000" stroke-opacity="0.5" stroke-width="3.2"/>
<circle clip-path="url(#clip772)" cx="1770.05" cy="1230.93" r="14.4" fill="#009af9" fill-rule="evenodd" fill-opacity="0.5" stroke="#000000" stroke-opacity="0.5" stroke-width="3.2"/>
<circle clip-path="url(#clip772)" cx="908.22" cy="437.183" r="14.4" fill="#009af9" fill-rule="evenodd" fill-opacity="0.5" stroke="#000000" stroke-opacity="0.5" stroke-width="3.2"/>
<path clip-path="url(#clip772)" d="M209.891 144.532 L225.393 577.228 L252.055 672.184 L439.314 1103.83 L677.482 1443.15 L1715.36 1445.72 L2290.34 1200.3 L2250.44 408.184 L1764.81 87.9763 L209.891 144.532 L209.891 144.532  Z" fill="#e26f46" fill-rule="evenodd" fill-opacity="0.2"/>
<polyline clip-path="url(#clip772)" style="stroke:#000000; stroke-linecap:round; stroke-linejoin:round; stroke-width:4; stroke-opacity:0.2; fill:none" points="209.891,144.532 225.393,577.228 252.055,672.184 439.314,1103.83 677.482,1443.15 1715.36,1445.72 2290.34,1200.3 2250.44,408.184 1764.81,87.9763 209.891,144.532 "/>
</svg>
