<?xml version="1.0" encoding="utf-8"?>
<svg xmlns="http://www.w3.org/2000/svg" xmlns:xlink="http://www.w3.org/1999/xlink" width="600" height="400" viewBox="0 0 2400 1600">
<defs>
  <clipPath id="clip910">
    <rect x="0" y="0" width="2400" height="1600"/>
  </clipPath>
</defs>
<path clip-path="url(#clip910)" d="M0 1600 L2400 1600 L2400 0 L0 0  Z" fill="#ffffff" fill-rule="evenodd" fill-opacity="1"/>
<defs>
  <clipPath id="clip911">
    <rect x="193" y="47" width="2160" height="1440"/>
  </clipPath>
</defs>
<path clip-path="url(#clip910)" d="M193.936 1486.45 L2352.76 1486.45 L2352.76 47.2441 L193.936 47.2441  Z" fill="#ffffff" fill-rule="evenodd" fill-opacity="1"/>
<polyline clip-path="url(#clip911)" style="stroke:#000000; stroke-linecap:round; stroke-linejoin:round; stroke-width:2; stroke-opacity:0.1; fill:none" points="358.139,1486.45 358.139,47.2441 "/>
<polyline clip-path="url(#clip911)" style="stroke:#000000; stroke-linecap:round; stroke-linejoin:round; stroke-width:2; stroke-opacity:0.1; fill:none" points="789.063,1486.45 789.063,47.2441 "/>
<polyline clip-path="url(#clip911)" style="stroke:#000000; stroke-linecap:round; stroke-linejoin:round; stroke-width:2; stroke-opacity:0.1; fill:none" points="1219.99,1486.45 1219.99,47.2441 "/>
<polyline clip-path="url(#clip911)" style="stroke:#000000; stroke-linecap:round; stroke-linejoin:round; stroke-width:2; stroke-opacity:0.1; fill:none" points="1650.91,1486.45 1650.91,47.2441 "/>
<polyline clip-path="url(#clip911)" style="stroke:#000000; stroke-linecap:round; stroke-linejoin:round; stroke-width:2; stroke-opacity:0.1; fill:none" points="2081.83,1486.45 2081.83,47.2441 "/>
<polyline clip-path="url(#clip911)" style="stroke:#000000; stroke-linecap:round; stroke-linejoin:round; stroke-width:2; stroke-opacity:0.1; fill:none" points="193.936,1338.11 2352.76,1338.11 "/>
<polyline clip-path="url(#clip911)" style="stroke:#000000; stroke-linecap:round; stroke-linejoin:round; stroke-width:2; stroke-opacity:0.1; fill:none" points="193.936,1148.63 2352.76,1148.63 "/>
<polyline clip-path="url(#clip911)" style="stroke:#000000; stroke-linecap:round; stroke-linejoin:round; stroke-width:2; stroke-opacity:0.1; fill:none" points="193.936,959.16 2352.76,959.16 "/>
<polyline clip-path="url(#clip911)" style="stroke:#000000; stroke-linecap:round; stroke-linejoin:round; stroke-width:2; stroke-opacity:0.1; fill:none" points="193.936,769.686 2352.76,769.686 "/>
<polyline clip-path="url(#clip911)" style="stroke:#000000; stroke-linecap:round; stroke-linejoin:round; stroke-width:2; stroke-opacity:0.1; fill:none" points="193.936,580.212 2352.76,580.212 "/>
<polyline clip-path="url(#clip911)" style="stroke:#000000; stroke-linecap:round; stroke-linejoin:round; stroke-width:2; stroke-opacity:0.1; fill:none" points="193.936,390.739 2352.76,390.739 "/>
<polyline clip-path="url(#clip911)" style="stroke:#000000; stroke-linecap:round; stroke-linejoin:round; stroke-width:2; stroke-opacity:0.1; fill:none" points="193.936,201.265 2352.76,201.265 "/>
<polyline clip-path="url(#clip910)" style="stroke:#000000; stroke-linecap:round; stroke-linejoin:round; stroke-width:4; stroke-opacity:1; fill:none" points="193.936,1486.45 2352.76,1486.45 "/>
<polyline clip-path="url(#clip910)" style="stroke:#000000; stroke-linecap:round; stroke-linejoin:round; stroke-width:4; stroke-opacity:1; fill:none" points="358.139,1486.45 358.139,1467.55 "/>
<polyline clip-path="url(#clip910)" style="stroke:#000000; stroke-linecap:round; stroke-linejoin:round; stroke-width:4; stroke-opacity:1; fill:none" points="789.063,1486.45 789.063,1467.55 "/>
<polyline clip-path="url(#clip910)" style="stroke:#000000; stroke-linecap:round; stroke-linejoin:round; stroke-width:4; stroke-opacity:1; fill:none" points="1219.99,1486.45 1219.99,1467.55 "/>
<polyline clip-path="url(#clip910)" style="stroke:#000000; stroke-linecap:round; stroke-linejoin:round; stroke-width:4; stroke-opacity:1; fill:none" points="1650.91,1486.45 1650.91,1467.55 "/>
<polyline clip-path="url(#clip910)" style="stroke:#000000; stroke-linecap:round; stroke-linejoin:round; stroke-width:4; stroke-opacity:1; fill:none" points="2081.83,1486.45 2081.83,1467.55 "/>
<path clip-path="url(#clip910)" d="M327.607 1532.02 L357.283 1532.02 L357.283 1535.95 L327.607 1535.95 L327.607 1532.02 Z" fill="#000000" fill-rule="nonzero" fill-opacity="1" /><path clip-path="url(#clip910)" d="M381.542 1530.21 Q384.898 1530.93 386.773 1533.2 Q388.671 1535.47 388.671 1538.8 Q388.671 1543.92 385.153 1546.72 Q381.634 1549.52 375.153 1549.52 Q372.977 1549.52 370.662 1549.08 Q368.371 1548.66 365.917 1547.81 L365.917 1543.29 Q367.861 1544.43 370.176 1545.01 Q372.491 1545.58 375.014 1545.58 Q379.412 1545.58 381.704 1543.85 Q384.019 1542.11 384.019 1538.8 Q384.019 1535.75 381.866 1534.03 Q379.736 1532.3 375.917 1532.3 L371.889 1532.3 L371.889 1528.45 L376.102 1528.45 Q379.551 1528.45 381.38 1527.09 Q383.209 1525.7 383.209 1523.11 Q383.209 1520.45 381.31 1519.03 Q379.435 1517.6 375.917 1517.6 Q373.996 1517.6 371.797 1518.01 Q369.598 1518.43 366.959 1519.31 L366.959 1515.14 Q369.621 1514.4 371.935 1514.03 Q374.273 1513.66 376.334 1513.66 Q381.658 1513.66 384.759 1516.09 Q387.861 1518.5 387.861 1522.62 Q387.861 1525.49 386.218 1527.48 Q384.574 1529.45 381.542 1530.21 Z" fill="#000000" fill-rule="nonzero" fill-opacity="1" /><path clip-path="url(#clip910)" d="M759.005 1532.02 L788.681 1532.02 L788.681 1535.95 L759.005 1535.95 L759.005 1532.02 Z" fill="#000000" fill-rule="nonzero" fill-opacity="1" /><path clip-path="url(#clip910)" d="M802.801 1544.91 L819.12 1544.91 L819.12 1548.85 L797.176 1548.85 L797.176 1544.91 Q799.838 1542.16 804.421 1537.53 Q809.028 1532.88 810.208 1531.53 Q812.454 1529.01 813.333 1527.27 Q814.236 1525.51 814.236 1523.82 Q814.236 1521.07 812.292 1519.33 Q810.37 1517.6 807.269 1517.6 Q805.069 1517.6 802.616 1518.36 Q800.185 1519.13 797.407 1520.68 L797.407 1515.95 Q800.232 1514.82 802.685 1514.24 Q805.139 1513.66 807.176 1513.66 Q812.546 1513.66 815.741 1516.35 Q818.935 1519.03 818.935 1523.52 Q818.935 1525.65 818.125 1527.57 Q817.338 1529.47 815.231 1532.07 Q814.653 1532.74 811.551 1535.95 Q808.449 1539.15 802.801 1544.91 Z" fill="#000000" fill-rule="nonzero" fill-opacity="1" /><path clip-path="url(#clip910)" d="M1189.74 1532.02 L1219.42 1532.02 L1219.42 1535.95 L1189.74 1535.95 L1189.74 1532.02 Z" fill="#000000" fill-rule="nonzero" fill-opacity="1" /><path clip-path="url(#clip910)" d="M1230.32 1544.91 L1237.96 1544.91 L1237.96 1518.55 L1229.65 1520.21 L1229.65 1515.95 L1237.91 1514.29 L1242.59 1514.29 L1242.59 1544.91 L1250.23 1544.91 L1250.23 1548.85 L1230.32 1548.85 L1230.32 1544.91 Z" fill="#000000" fill-rule="nonzero" fill-opacity="1" /><path clip-path="url(#clip910)" d="M1650.91 1517.37 Q1647.3 1517.37 1645.47 1520.93 Q1643.66 1524.47 1643.66 1531.6 Q1643.66 1538.71 1645.47 1542.27 Q1647.3 1545.82 1650.91 1545.82 Q1654.54 1545.82 1656.35 1542.27 Q1658.18 1538.71 1658.18 1531.6 Q1658.18 1524.47 1656.35 1520.93 Q1654.54 1517.37 1650.91 1517.37 M1650.91 1513.66 Q1656.72 1513.66 1659.78 1518.27 Q1662.85 1522.85 1662.85 1531.6 Q1662.85 1540.33 1659.78 1544.94 Q1656.72 1549.52 1650.91 1549.52 Q1645.1 1549.52 1642.02 1544.94 Q1638.96 1540.33 1638.96 1531.6 Q1638.96 1522.85 1642.02 1518.27 Q1645.1 1513.66 1650.91 1513.66 Z" fill="#000000" fill-rule="nonzero" fill-opacity="1" /><path clip-path="url(#clip910)" d="M2072.21 1544.91 L2079.85 1544.91 L2079.85 1518.55 L2071.54 1520.21 L2071.54 1515.95 L2079.81 1514.29 L2084.48 1514.29 L2084.48 1544.91 L2092.12 1544.91 L2092.12 1548.85 L2072.21 1548.85 L2072.21 1544.91 Z" fill="#000000" fill-rule="nonzero" fill-opacity="1" /><polyline clip-path="url(#clip910)" style="stroke:#000000; stroke-linecap:round; stroke-linejoin:round; stroke-width:4; stroke-opacity:1; fill:none" points="193.936,1486.45 193.936,47.2441 "/>
<polyline clip-path="url(#clip910)" style="stroke:#000000; stroke-linecap:round; stroke-linejoin:round; stroke-width:4; stroke-opacity:1; fill:none" points="193.936,1338.11 212.834,1338.11 "/>
<polyline clip-path="url(#clip910)" style="stroke:#000000; stroke-linecap:round; stroke-linejoin:round; stroke-width:4; stroke-opacity:1; fill:none" points="193.936,1148.63 212.834,1148.63 "/>
<polyline clip-path="url(#clip910)" style="stroke:#000000; stroke-linecap:round; stroke-linejoin:round; stroke-width:4; stroke-opacity:1; fill:none" points="193.936,959.16 212.834,959.16 "/>
<polyline clip-path="url(#clip910)" style="stroke:#000000; stroke-linecap:round; stroke-linejoin:round; stroke-width:4; stroke-opacity:1; fill:none" points="193.936,769.686 212.834,769.686 "/>
<polyline clip-path="url(#clip910)" style="stroke:#000000; stroke-linecap:round; stroke-linejoin:round; stroke-width:4; stroke-opacity:1; fill:none" points="193.936,580.212 212.834,580.212 "/>
<polyline clip-path="url(#clip910)" style="stroke:#000000; stroke-linecap:round; stroke-linejoin:round; stroke-width:4; stroke-opacity:1; fill:none" points="193.936,390.739 212.834,390.739 "/>
<polyline clip-path="url(#clip910)" style="stroke:#000000; stroke-linecap:round; stroke-linejoin:round; stroke-width:4; stroke-opacity:1; fill:none" points="193.936,201.265 212.834,201.265 "/>
<path clip-path="url(#clip910)" d="M51.9875 1338.56 L81.6633 1338.56 L81.6633 1342.49 L51.9875 1342.49 L51.9875 1338.56 Z" fill="#000000" fill-rule="nonzero" fill-opacity="1" /><path clip-path="url(#clip910)" d="M92.566 1351.45 L100.205 1351.45 L100.205 1325.09 L91.8947 1326.75 L91.8947 1322.49 L100.159 1320.83 L104.834 1320.83 L104.834 1351.45 L112.473 1351.45 L112.473 1355.39 L92.566 1355.39 L92.566 1351.45 Z" fill="#000000" fill-rule="nonzero" fill-opacity="1" /><path clip-path="url(#clip910)" d="M121.918 1349.51 L126.802 1349.51 L126.802 1355.39 L121.918 1355.39 L121.918 1349.51 Z" fill="#000000" fill-rule="nonzero" fill-opacity="1" /><path clip-path="url(#clip910)" d="M137.033 1320.83 L155.39 1320.83 L155.39 1324.76 L141.316 1324.76 L141.316 1333.24 Q142.334 1332.89 143.353 1332.73 Q144.371 1332.54 145.39 1332.54 Q151.177 1332.54 154.556 1335.71 Q157.936 1338.88 157.936 1344.3 Q157.936 1349.88 154.464 1352.98 Q150.992 1356.06 144.672 1356.06 Q142.496 1356.06 140.228 1355.69 Q137.982 1355.32 135.575 1354.58 L135.575 1349.88 Q137.658 1351.01 139.881 1351.57 Q142.103 1352.12 144.58 1352.12 Q148.584 1352.12 150.922 1350.02 Q153.26 1347.91 153.26 1344.3 Q153.26 1340.69 150.922 1338.58 Q148.584 1336.48 144.58 1336.48 Q142.705 1336.48 140.83 1336.89 Q138.978 1337.31 137.033 1338.19 L137.033 1320.83 Z" fill="#000000" fill-rule="nonzero" fill-opacity="1" /><path clip-path="url(#clip910)" d="M50.9921 1149.09 L80.6679 1149.09 L80.6679 1153.02 L50.9921 1153.02 L50.9921 1149.09 Z" fill="#000000" fill-rule="nonzero" fill-opacity="1" /><path clip-path="url(#clip910)" d="M91.5706 1161.98 L99.2095 1161.98 L99.2095 1135.61 L90.8993 1137.28 L90.8993 1133.02 L99.1632 1131.35 L103.839 1131.35 L103.839 1161.98 L111.478 1161.98 L111.478 1165.91 L91.5706 1165.91 L91.5706 1161.98 Z" fill="#000000" fill-rule="nonzero" fill-opacity="1" /><path clip-path="url(#clip910)" d="M120.922 1160.03 L125.807 1160.03 L125.807 1165.91 L120.922 1165.91 L120.922 1160.03 Z" fill="#000000" fill-rule="nonzero" fill-opacity="1" /><path clip-path="url(#clip910)" d="M145.992 1134.43 Q142.381 1134.43 140.552 1138 Q138.746 1141.54 138.746 1148.67 Q138.746 1155.78 140.552 1159.34 Q142.381 1162.88 145.992 1162.88 Q149.626 1162.88 151.431 1159.34 Q153.26 1155.78 153.26 1148.67 Q153.26 1141.54 151.431 1138 Q149.626 1134.43 145.992 1134.43 M145.992 1130.73 Q151.802 1130.73 154.857 1135.34 Q157.936 1139.92 157.936 1148.67 Q157.936 1157.4 154.857 1162 Q151.802 1166.59 145.992 1166.59 Q140.181 1166.59 137.103 1162 Q134.047 1157.4 134.047 1148.67 Q134.047 1139.92 137.103 1135.34 Q140.181 1130.73 145.992 1130.73 Z" fill="#000000" fill-rule="nonzero" fill-opacity="1" /><path clip-path="url(#clip910)" d="M51.9875 959.612 L81.6633 959.612 L81.6633 963.547 L51.9875 963.547 L51.9875 959.612 Z" fill="#000000" fill-rule="nonzero" fill-opacity="1" /><path clip-path="url(#clip910)" d="M101.756 944.959 Q98.1447 944.959 96.316 948.524 Q94.5104 952.065 94.5104 959.195 Q94.5104 966.301 96.316 969.866 Q98.1447 973.408 101.756 973.408 Q105.39 973.408 107.196 969.866 Q109.024 966.301 109.024 959.195 Q109.024 952.065 107.196 948.524 Q105.39 944.959 101.756 944.959 M101.756 941.255 Q107.566 941.255 110.621 945.862 Q113.7 950.445 113.7 959.195 Q113.7 967.922 110.621 972.528 Q107.566 977.112 101.756 977.112 Q95.9456 977.112 92.8669 972.528 Q89.8114 967.922 89.8114 959.195 Q89.8114 950.445 92.8669 945.862 Q95.9456 941.255 101.756 941.255 Z" fill="#000000" fill-rule="nonzero" fill-opacity="1" /><path clip-path="url(#clip910)" d="M121.918 970.561 L126.802 970.561 L126.802 976.44 L121.918 976.44 L121.918 970.561 Z" fill="#000000" fill-rule="nonzero" fill-opacity="1" /><path clip-path="url(#clip910)" d="M137.033 941.88 L155.39 941.88 L155.39 945.815 L141.316 945.815 L141.316 954.288 Q142.334 953.94 143.353 953.778 Q144.371 953.593 145.39 953.593 Q151.177 953.593 154.556 956.764 Q157.936 959.936 157.936 965.352 Q157.936 970.931 154.464 974.033 Q150.992 977.112 144.672 977.112 Q142.496 977.112 140.228 976.741 Q137.982 976.371 135.575 975.63 L135.575 970.931 Q137.658 972.065 139.881 972.621 Q142.103 973.176 144.58 973.176 Q148.584 973.176 150.922 971.07 Q153.26 968.963 153.26 965.352 Q153.26 961.741 150.922 959.635 Q148.584 957.528 144.58 957.528 Q142.705 957.528 140.83 957.945 Q138.978 958.362 137.033 959.241 L137.033 941.88 Z" fill="#000000" fill-rule="nonzero" fill-opacity="1" /><path clip-path="url(#clip910)" d="M100.76 755.485 Q97.1493 755.485 95.3206 759.05 Q93.515 762.591 93.515 769.721 Q93.515 776.828 95.3206 780.392 Q97.1493 783.934 100.76 783.934 Q104.395 783.934 106.2 780.392 Q108.029 776.828 108.029 769.721 Q108.029 762.591 106.2 759.05 Q104.395 755.485 100.76 755.485 M100.76 751.781 Q106.571 751.781 109.626 756.388 Q112.705 760.971 112.705 769.721 Q112.705 778.448 109.626 783.054 Q106.571 787.638 100.76 787.638 Q94.9502 787.638 91.8715 783.054 Q88.816 778.448 88.816 769.721 Q88.816 760.971 91.8715 756.388 Q94.9502 751.781 100.76 751.781 Z" fill="#000000" fill-rule="nonzero" fill-opacity="1" /><path clip-path="url(#clip910)" d="M120.922 781.087 L125.807 781.087 L125.807 786.966 L120.922 786.966 L120.922 781.087 Z" fill="#000000" fill-rule="nonzero" fill-opacity="1" /><path clip-path="url(#clip910)" d="M145.992 755.485 Q142.381 755.485 140.552 759.05 Q138.746 762.591 138.746 769.721 Q138.746 776.828 140.552 780.392 Q142.381 783.934 145.992 783.934 Q149.626 783.934 151.431 780.392 Q153.26 776.828 153.26 769.721 Q153.26 762.591 151.431 759.05 Q149.626 755.485 145.992 755.485 M145.992 751.781 Q151.802 751.781 154.857 756.388 Q157.936 760.971 157.936 769.721 Q157.936 778.448 154.857 783.054 Q151.802 787.638 145.992 787.638 Q140.181 787.638 137.103 783.054 Q134.047 778.448 134.047 769.721 Q134.047 760.971 137.103 756.388 Q140.181 751.781 145.992 751.781 Z" fill="#000000" fill-rule="nonzero" fill-opacity="1" /><path clip-path="url(#clip910)" d="M101.756 566.011 Q98.1447 566.011 96.316 569.576 Q94.5104 573.118 94.5104 580.247 Q94.5104 587.354 96.316 590.918 Q98.1447 594.46 101.756 594.46 Q105.39 594.46 107.196 590.918 Q109.024 587.354 109.024 580.247 Q109.024 573.118 107.196 569.576 Q105.39 566.011 101.756 566.011 M101.756 562.307 Q107.566 562.307 110.621 566.914 Q113.7 571.497 113.7 580.247 Q113.7 588.974 110.621 593.58 Q107.566 598.164 101.756 598.164 Q95.9456 598.164 92.8669 593.58 Q89.8114 588.974 89.8114 580.247 Q89.8114 571.497 92.8669 566.914 Q95.9456 562.307 101.756 562.307 Z" fill="#000000" fill-rule="nonzero" fill-opacity="1" /><path clip-path="url(#clip910)" d="M121.918 591.613 L126.802 591.613 L126.802 597.492 L121.918 597.492 L121.918 591.613 Z" fill="#000000" fill-rule="nonzero" fill-opacity="1" /><path clip-path="url(#clip910)" d="M137.033 562.932 L155.39 562.932 L155.39 566.868 L141.316 566.868 L141.316 575.34 Q142.334 574.993 143.353 574.831 Q144.371 574.645 145.39 574.645 Q151.177 574.645 154.556 577.817 Q157.936 580.988 157.936 586.405 Q157.936 591.983 154.464 595.085 Q150.992 598.164 144.672 598.164 Q142.496 598.164 140.228 597.793 Q137.982 597.423 135.575 596.682 L135.575 591.983 Q137.658 593.117 139.881 593.673 Q142.103 594.229 144.58 594.229 Q148.584 594.229 150.922 592.122 Q153.26 590.016 153.26 586.405 Q153.26 582.793 150.922 580.687 Q148.584 578.581 144.58 578.581 Q142.705 578.581 140.83 578.997 Q138.978 579.414 137.033 580.293 L137.033 562.932 Z" fill="#000000" fill-rule="nonzero" fill-opacity="1" /><path clip-path="url(#clip910)" d="M91.5706 404.083 L99.2095 404.083 L99.2095 377.718 L90.8993 379.384 L90.8993 375.125 L99.1632 373.459 L103.839 373.459 L103.839 404.083 L111.478 404.083 L111.478 408.019 L91.5706 408.019 L91.5706 404.083 Z" fill="#000000" fill-rule="nonzero" fill-opacity="1" /><path clip-path="url(#clip910)" d="M120.922 402.139 L125.807 402.139 L125.807 408.019 L120.922 408.019 L120.922 402.139 Z" fill="#000000" fill-rule="nonzero" fill-opacity="1" /><path clip-path="url(#clip910)" d="M145.992 376.537 Q142.381 376.537 140.552 380.102 Q138.746 383.644 138.746 390.773 Q138.746 397.88 140.552 401.445 Q142.381 404.986 145.992 404.986 Q149.626 404.986 151.431 401.445 Q153.26 397.88 153.26 390.773 Q153.26 383.644 151.431 380.102 Q149.626 376.537 145.992 376.537 M145.992 372.834 Q151.802 372.834 154.857 377.44 Q157.936 382.023 157.936 390.773 Q157.936 399.5 154.857 404.107 Q151.802 408.69 145.992 408.69 Q140.181 408.69 137.103 404.107 Q134.047 399.5 134.047 390.773 Q134.047 382.023 137.103 377.44 Q140.181 372.834 145.992 372.834 Z" fill="#000000" fill-rule="nonzero" fill-opacity="1" /><path clip-path="url(#clip910)" d="M92.566 214.609 L100.205 214.609 L100.205 188.244 L91.8947 189.911 L91.8947 185.651 L100.159 183.985 L104.834 183.985 L104.834 214.609 L112.473 214.609 L112.473 218.545 L92.566 218.545 L92.566 214.609 Z" fill="#000000" fill-rule="nonzero" fill-opacity="1" /><path clip-path="url(#clip910)" d="M121.918 212.665 L126.802 212.665 L126.802 218.545 L121.918 218.545 L121.918 212.665 Z" fill="#000000" fill-rule="nonzero" fill-opacity="1" /><path clip-path="url(#clip910)" d="M137.033 183.985 L155.39 183.985 L155.39 187.92 L141.316 187.92 L141.316 196.392 Q142.334 196.045 143.353 195.883 Q144.371 195.698 145.39 195.698 Q151.177 195.698 154.556 198.869 Q157.936 202.04 157.936 207.457 Q157.936 213.035 154.464 216.137 Q150.992 219.216 144.672 219.216 Q142.496 219.216 140.228 218.846 Q137.982 218.475 135.575 217.734 L135.575 213.035 Q137.658 214.17 139.881 214.725 Q142.103 215.281 144.58 215.281 Q148.584 215.281 150.922 213.174 Q153.26 211.068 153.26 207.457 Q153.26 203.846 150.922 201.739 Q148.584 199.633 144.58 199.633 Q142.705 199.633 140.83 200.049 Q138.978 200.466 137.033 201.346 L137.033 183.985 Z" fill="#000000" fill-rule="nonzero" fill-opacity="1" /><circle clip-path="url(#clip911)" cx="1774.15" cy="476.434" r="14.4" fill="#009af9" fill-rule="evenodd" fill-opacity="0.5" stroke="#000000" stroke-opacity="0.5" stroke-width="3.2"/>
<circle clip-path="url(#clip911)" cx="974.526" cy="87.9763" r="14.4" fill="#009af9" fill-rule="evenodd" fill-opacity="0.5" stroke="#000000" stroke-opacity="0.5" stroke-width="3.2"/>
<circle clip-path="url(#clip911)" cx="1789.8" cy="1166.33" r="14.4" fill="#009af9" fill-rule="evenodd" fill-opacity="0.5" stroke="#000000" stroke-opacity="0.5" stroke-width="3.2"/>
<circle clip-path="url(#clip911)" cx="533.16" cy="1211.05" r="14.4" fill="#009af9" fill-rule="evenodd" fill-opacity="0.5" stroke="#000000" stroke-opacity="0.5" stroke-width="3.2"/>
<circle clip-path="url(#clip911)" cx="1647.3" cy="334.272" r="14.4" fill="#009af9" fill-rule="evenodd" fill-opacity="0.5" stroke="#000000" stroke-opacity="0.5" stroke-width="3.2"/>
<circle clip-path="url(#clip911)" cx="2105.68" cy="761.914" r="14.4" fill="#009af9" fill-rule="evenodd" fill-opacity="0.5" stroke="#000000" stroke-opacity="0.5" stroke-width="3.2"/>
<circle clip-path="url(#clip911)" cx="852.69" cy="840.359" r="14.4" fill="#009af9" fill-rule="evenodd" fill-opacity="0.5" stroke="#000000" stroke-opacity="0.5" stroke-width="3.2"/>
<circle clip-path="url(#clip911)" cx="1483.77" cy="390.33" r="14.4" fill="#009af9" fill-rule="evenodd" fill-opacity="0.5" stroke="#000000" stroke-opacity="0.5" stroke-width="3.2"/>
<circle clip-path="url(#clip911)" cx="1560.65" cy="1098.8" r="14.4" fill="#009af9" fill-rule="evenodd" fill-opacity="0.5" stroke="#000000" stroke-opacity="0.5" stroke-width="3.2"/>
<circle clip-path="url(#clip911)" cx="255.035" cy="502.476" r="14.4" fill="#009af9" fill-rule="evenodd" fill-opacity="0.5" stroke="#000000" stroke-opacity="0.5" stroke-width="3.2"/>
<circle clip-path="url(#clip911)" cx="932.066" cy="1096.79" r="14.4" fill="#009af9" fill-rule="evenodd" fill-opacity="0.5" stroke="#000000" stroke-opacity="0.5" stroke-width="3.2"/>
<circle clip-path="url(#clip911)" cx="1288.04" cy="855.281" r="14.4" fill="#009af9" fill-rule="evenodd" fill-opacity="0.5" stroke="#000000" stroke-opacity="0.5" stroke-width="3.2"/>
<circle clip-path="url(#clip911)" cx="2291.66" cy="815.172" r="14.4" fill="#009af9" fill-rule="evenodd" fill-opacity="0.5" stroke="#000000" stroke-opacity="0.5" stroke-width="3.2"/>
<circle clip-path="url(#clip911)" cx="1820.23" cy="461.725" r="14.4" fill="#009af9" fill-rule="evenodd" fill-opacity="0.5" stroke="#000000" stroke-opacity="0.5" stroke-width="3.2"/>
<circle clip-path="url(#clip911)" cx="1228.63" cy="887.233" r="14.4" fill="#009af9" fill-rule="evenodd" fill-opacity="0.5" stroke="#000000" stroke-opacity="0.5" stroke-width="3.2"/>
<circle clip-path="url(#clip911)" cx="1598.59" cy="269.812" r="14.4" fill="#009af9" fill-rule="evenodd" fill-opacity="0.5" stroke="#000000" stroke-opacity="0.5" stroke-width="3.2"/>
<circle clip-path="url(#clip911)" cx="1726.53" cy="1043.1" r="14.4" fill="#009af9" fill-rule="evenodd" fill-opacity="0.5" stroke="#000000" stroke-opacity="0.5" stroke-width="3.2"/>
<circle clip-path="url(#clip911)" cx="1971.08" cy="548.984" r="14.4" fill="#009af9" fill-rule="evenodd" fill-opacity="0.5" stroke="#000000" stroke-opacity="0.5" stroke-width="3.2"/>
<circle clip-path="url(#clip911)" cx="1543.97" cy="293.81" r="14.4" fill="#009af9" fill-rule="evenodd" fill-opacity="0.5" stroke="#000000" stroke-opacity="0.5" stroke-width="3.2"/>
<circle clip-path="url(#clip911)" cx="1523.08" cy="1194.1" r="14.4" fill="#009af9" fill-rule="evenodd" fill-opacity="0.5" stroke="#000000" stroke-opacity="0.5" stroke-width="3.2"/>
<circle clip-path="url(#clip911)" cx="1245.92" cy="438.324" r="14.4" fill="#009af9" fill-rule="evenodd" fill-opacity="0.5" stroke="#000000" stroke-opacity="0.5" stroke-width="3.2"/>
<circle clip-path="url(#clip911)" cx="880.292" cy="972.939" r="14.4" fill="#009af9" fill-rule="evenodd" fill-opacity="0.5" stroke="#000000" stroke-opacity="0.5" stroke-width="3.2"/>
<circle clip-path="url(#clip911)" cx="1608.87" cy="477.217" r="14.4" fill="#009af9" fill-rule="evenodd" fill-opacity="0.5" stroke="#000000" stroke-opacity="0.5" stroke-width="3.2"/>
<circle clip-path="url(#clip911)" cx="847.416" cy="474.608" r="14.4" fill="#009af9" fill-rule="evenodd" fill-opacity="0.5" stroke="#000000" stroke-opacity="0.5" stroke-width="3.2"/>
<circle clip-path="url(#clip911)" cx="1658.93" cy="1445.72" r="14.4" fill="#009af9" fill-rule="evenodd" fill-opacity="0.5" stroke="#000000" stroke-opacity="0.5" stroke-width="3.2"/>
<circle clip-path="url(#clip911)" cx="1839.33" cy="860.222" r="14.4" fill="#009af9" fill-rule="evenodd" fill-opacity="0.5" stroke="#000000" stroke-opacity="0.5" stroke-width="3.2"/>
<circle clip-path="url(#clip911)" cx="1600.38" cy="412.716" r="14.4" fill="#009af9" fill-rule="evenodd" fill-opacity="0.5" stroke="#000000" stroke-opacity="0.5" stroke-width="3.2"/>
<circle clip-path="url(#clip911)" cx="1781.19" cy="516.646" r="14.4" fill="#009af9" fill-rule="evenodd" fill-opacity="0.5" stroke="#000000" stroke-opacity="0.5" stroke-width="3.2"/>
<circle clip-path="url(#clip911)" cx="1954.53" cy="821.667" r="14.4" fill="#009af9" fill-rule="evenodd" fill-opacity="0.5" stroke="#000000" stroke-opacity="0.5" stroke-width="3.2"/>
<circle clip-path="url(#clip911)" cx="1493.76" cy="920.218" r="14.4" fill="#009af9" fill-rule="evenodd" fill-opacity="0.5" stroke="#000000" stroke-opacity="0.5" stroke-width="3.2"/>
<path clip-path="url(#clip911)" d="M255.035 502.476 L533.16 1211.05 L1658.93 1445.72 L2291.66 815.172 L1971.08 548.984 L1598.59 269.812 L974.526 87.9763 L255.035 502.476 L255.035 502.476  Z" fill="#e26f46" fill-rule="evenodd" fill-opacity="0.2"/>
<polyline clip-path="url(#clip911)" style="stroke:#000000; stroke-linecap:round; stroke-linejoin:round; stroke-width:4; stroke-opacity:0.2; fill:none" points="255.035,502.476 533.16,1211.05 1658.93,1445.72 2291.66,815.172 1971.08,548.984 1598.59,269.812 974.526,87.9763 255.035,502.476 "/>
</svg>
