<?xml version="1.0" encoding="utf-8"?>
<svg xmlns="http://www.w3.org/2000/svg" xmlns:xlink="http://www.w3.org/1999/xlink" width="600" height="400" viewBox="0 0 2400 1600">
<defs>
  <clipPath id="clip030">
    <rect x="0" y="0" width="2400" height="1600"/>
  </clipPath>
</defs>
<path clip-path="url(#clip030)" d="M0 1600 L2400 1600 L2400 0 L0 0  Z" fill="#ffffff" fill-rule="evenodd" fill-opacity="1"/>
<defs>
  <clipPath id="clip031">
    <rect x="148" y="47" width="2206" height="1440"/>
  </clipPath>
</defs>
<path clip-path="url(#clip030)" d="M148.057 1486.45 L2352.76 1486.45 L2352.76 47.2441 L148.057 47.2441  Z" fill="#ffffff" fill-rule="evenodd" fill-opacity="1"/>
<polyline clip-path="url(#clip031)" style="stroke:#000000; stroke-linecap:round; stroke-linejoin:round; stroke-width:2; stroke-opacity:0.1; fill:none" points="615.448,1486.45 615.448,47.2441 "/>
<polyline clip-path="url(#clip031)" style="stroke:#000000; stroke-linecap:round; stroke-linejoin:round; stroke-width:2; stroke-opacity:0.1; fill:none" points="1131.07,1486.45 1131.07,47.2441 "/>
<polyline clip-path="url(#clip031)" style="stroke:#000000; stroke-linecap:round; stroke-linejoin:round; stroke-width:2; stroke-opacity:0.1; fill:none" points="1646.68,1486.45 1646.68,47.2441 "/>
<polyline clip-path="url(#clip031)" style="stroke:#000000; stroke-linecap:round; stroke-linejoin:round; stroke-width:2; stroke-opacity:0.1; fill:none" points="2162.3,1486.45 2162.3,47.2441 "/>
<polyline clip-path="url(#clip031)" style="stroke:#000000; stroke-linecap:round; stroke-linejoin:round; stroke-width:2; stroke-opacity:0.1; fill:none" points="148.057,1320.54 2352.76,1320.54 "/>
<polyline clip-path="url(#clip031)" style="stroke:#000000; stroke-linecap:round; stroke-linejoin:round; stroke-width:2; stroke-opacity:0.1; fill:none" points="148.057,1083.63 2352.76,1083.63 "/>
<polyline clip-path="url(#clip031)" style="stroke:#000000; stroke-linecap:round; stroke-linejoin:round; stroke-width:2; stroke-opacity:0.1; fill:none" points="148.057,846.714 2352.76,846.714 "/>
<polyline clip-path="url(#clip031)" style="stroke:#000000; stroke-linecap:round; stroke-linejoin:round; stroke-width:2; stroke-opacity:0.1; fill:none" points="148.057,609.802 2352.76,609.802 "/>
<polyline clip-path="url(#clip031)" style="stroke:#000000; stroke-linecap:round; stroke-linejoin:round; stroke-width:2; stroke-opacity:0.1; fill:none" points="148.057,372.89 2352.76,372.89 "/>
<polyline clip-path="url(#clip031)" style="stroke:#000000; stroke-linecap:round; stroke-linejoin:round; stroke-width:2; stroke-opacity:0.1; fill:none" points="148.057,135.978 2352.76,135.978 "/>
<polyline clip-path="url(#clip030)" style="stroke:#000000; stroke-linecap:round; stroke-linejoin:round; stroke-width:4; stroke-opacity:1; fill:none" points="148.057,1486.45 2352.76,1486.45 "/>
<polyline clip-path="url(#clip030)" style="stroke:#000000; stroke-linecap:round; stroke-linejoin:round; stroke-width:4; stroke-opacity:1; fill:none" points="615.448,1486.45 615.448,1467.55 "/>
<polyline clip-path="url(#clip030)" style="stroke:#000000; stroke-linecap:round; stroke-linejoin:round; stroke-width:4; stroke-opacity:1; fill:none" points="1131.07,1486.45 1131.07,1467.55 "/>
<polyline clip-path="url(#clip030)" style="stroke:#000000; stroke-linecap:round; stroke-linejoin:round; stroke-width:4; stroke-opacity:1; fill:none" points="1646.68,1486.45 1646.68,1467.55 "/>
<polyline clip-path="url(#clip030)" style="stroke:#000000; stroke-linecap:round; stroke-linejoin:round; stroke-width:4; stroke-opacity:1; fill:none" points="2162.3,1486.45 2162.3,1467.55 "/>
<path clip-path="url(#clip030)" d="M585.206 1532.02 L614.881 1532.02 L614.881 1535.95 L585.206 1535.95 L585.206 1532.02 Z" fill="#000000" fill-rule="nonzero" fill-opacity="1" /><path clip-path="url(#clip030)" d="M625.784 1544.91 L633.423 1544.91 L633.423 1518.55 L625.113 1520.21 L625.113 1515.95 L633.377 1514.29 L638.053 1514.29 L638.053 1544.91 L645.691 1544.91 L645.691 1548.85 L625.784 1548.85 L625.784 1544.91 Z" fill="#000000" fill-rule="nonzero" fill-opacity="1" /><path clip-path="url(#clip030)" d="M1131.07 1517.37 Q1127.45 1517.37 1125.63 1520.93 Q1123.82 1524.47 1123.82 1531.6 Q1123.82 1538.71 1125.63 1542.27 Q1127.45 1545.82 1131.07 1545.82 Q1134.7 1545.82 1136.51 1542.27 Q1138.33 1538.71 1138.33 1531.6 Q1138.33 1524.47 1136.51 1520.93 Q1134.7 1517.37 1131.07 1517.37 M1131.07 1513.66 Q1136.88 1513.66 1139.93 1518.27 Q1143.01 1522.85 1143.01 1531.6 Q1143.01 1540.33 1139.93 1544.94 Q1136.88 1549.52 1131.07 1549.52 Q1125.26 1549.52 1122.18 1544.94 Q1119.12 1540.33 1119.12 1531.6 Q1119.12 1522.85 1122.18 1518.27 Q1125.26 1513.66 1131.07 1513.66 Z" fill="#000000" fill-rule="nonzero" fill-opacity="1" /><path clip-path="url(#clip030)" d="M1637.07 1544.91 L1644.7 1544.91 L1644.7 1518.55 L1636.39 1520.21 L1636.39 1515.95 L1644.66 1514.29 L1649.33 1514.29 L1649.33 1544.91 L1656.97 1544.91 L1656.97 1548.85 L1637.07 1548.85 L1637.07 1544.91 Z" fill="#000000" fill-rule="nonzero" fill-opacity="1" /><path clip-path="url(#clip030)" d="M2156.95 1544.91 L2173.27 1544.91 L2173.27 1548.85 L2151.33 1548.85 L2151.33 1544.91 Q2153.99 1542.16 2158.57 1537.53 Q2163.18 1532.88 2164.36 1531.53 Q2166.61 1529.01 2167.49 1527.27 Q2168.39 1525.51 2168.39 1523.82 Q2168.39 1521.07 2166.44 1519.33 Q2164.52 1517.6 2161.42 1517.6 Q2159.22 1517.6 2156.77 1518.36 Q2154.34 1519.13 2151.56 1520.68 L2151.56 1515.95 Q2154.38 1514.82 2156.84 1514.24 Q2159.29 1513.66 2161.33 1513.66 Q2166.7 1513.66 2169.89 1516.35 Q2173.09 1519.03 2173.09 1523.52 Q2173.09 1525.65 2172.28 1527.57 Q2171.49 1529.47 2169.38 1532.07 Q2168.81 1532.74 2165.7 1535.95 Q2162.6 1539.15 2156.95 1544.91 Z" fill="#000000" fill-rule="nonzero" fill-opacity="1" /><polyline clip-path="url(#clip030)" style="stroke:#000000; stroke-linecap:round; stroke-linejoin:round; stroke-width:4; stroke-opacity:1; fill:none" points="148.057,1486.45 148.057,47.2441 "/>
<polyline clip-path="url(#clip030)" style="stroke:#000000; stroke-linecap:round; stroke-linejoin:round; stroke-width:4; stroke-opacity:1; fill:none" points="148.057,1320.54 166.954,1320.54 "/>
<polyline clip-path="url(#clip030)" style="stroke:#000000; stroke-linecap:round; stroke-linejoin:round; stroke-width:4; stroke-opacity:1; fill:none" points="148.057,1083.63 166.954,1083.63 "/>
<polyline clip-path="url(#clip030)" style="stroke:#000000; stroke-linecap:round; stroke-linejoin:round; stroke-width:4; stroke-opacity:1; fill:none" points="148.057,846.714 166.954,846.714 "/>
<polyline clip-path="url(#clip030)" style="stroke:#000000; stroke-linecap:round; stroke-linejoin:round; stroke-width:4; stroke-opacity:1; fill:none" points="148.057,609.802 166.954,609.802 "/>
<polyline clip-path="url(#clip030)" style="stroke:#000000; stroke-linecap:round; stroke-linejoin:round; stroke-width:4; stroke-opacity:1; fill:none" points="148.057,372.89 166.954,372.89 "/>
<polyline clip-path="url(#clip030)" style="stroke:#000000; stroke-linecap:round; stroke-linejoin:round; stroke-width:4; stroke-opacity:1; fill:none" points="148.057,135.978 166.954,135.978 "/>
<path clip-path="url(#clip030)" d="M50.9921 1320.99 L80.6679 1320.99 L80.6679 1324.93 L50.9921 1324.93 L50.9921 1320.99 Z" fill="#000000" fill-rule="nonzero" fill-opacity="1" /><path clip-path="url(#clip030)" d="M104.927 1319.18 Q108.283 1319.9 110.158 1322.17 Q112.057 1324.44 112.057 1327.77 Q112.057 1332.89 108.538 1335.69 Q105.02 1338.49 98.5382 1338.49 Q96.3623 1338.49 94.0475 1338.05 Q91.7558 1337.63 89.3021 1336.78 L89.3021 1332.26 Q91.2465 1333.4 93.5613 1333.98 Q95.8761 1334.55 98.3993 1334.55 Q102.797 1334.55 105.089 1332.82 Q107.404 1331.08 107.404 1327.77 Q107.404 1324.72 105.251 1323 Q103.121 1321.27 99.3021 1321.27 L95.2743 1321.27 L95.2743 1317.43 L99.4872 1317.43 Q102.936 1317.43 104.765 1316.06 Q106.594 1314.67 106.594 1312.08 Q106.594 1309.42 104.696 1308 Q102.821 1306.57 99.3021 1306.57 Q97.3808 1306.57 95.1817 1306.99 Q92.9826 1307.4 90.3438 1308.28 L90.3438 1304.12 Q93.0058 1303.37 95.3206 1303 Q97.6585 1302.63 99.7187 1302.63 Q105.043 1302.63 108.145 1305.06 Q111.246 1307.47 111.246 1311.59 Q111.246 1314.46 109.603 1316.45 Q107.959 1318.42 104.927 1319.18 Z" fill="#000000" fill-rule="nonzero" fill-opacity="1" /><path clip-path="url(#clip030)" d="M51.9412 1084.08 L81.617 1084.08 L81.617 1088.01 L51.9412 1088.01 L51.9412 1084.08 Z" fill="#000000" fill-rule="nonzero" fill-opacity="1" /><path clip-path="url(#clip030)" d="M95.7373 1096.97 L112.057 1096.97 L112.057 1100.91 L90.1123 1100.91 L90.1123 1096.97 Q92.7743 1094.22 97.3576 1089.59 Q101.964 1084.93 103.145 1083.59 Q105.39 1081.07 106.27 1079.33 Q107.172 1077.57 107.172 1075.88 Q107.172 1073.13 105.228 1071.39 Q103.307 1069.66 100.205 1069.66 Q98.0058 1069.66 95.5521 1070.42 Q93.1215 1071.18 90.3438 1072.74 L90.3438 1068.01 Q93.1678 1066.88 95.6215 1066.3 Q98.0752 1065.72 100.112 1065.72 Q105.483 1065.72 108.677 1068.41 Q111.871 1071.09 111.871 1075.58 Q111.871 1077.71 111.061 1079.63 Q110.274 1081.53 108.168 1084.12 Q107.589 1084.8 104.487 1088.01 Q101.385 1091.21 95.7373 1096.97 Z" fill="#000000" fill-rule="nonzero" fill-opacity="1" /><path clip-path="url(#clip030)" d="M51.5708 847.166 L81.2466 847.166 L81.2466 851.101 L51.5708 851.101 L51.5708 847.166 Z" fill="#000000" fill-rule="nonzero" fill-opacity="1" /><path clip-path="url(#clip030)" d="M92.1493 860.059 L99.7882 860.059 L99.7882 833.693 L91.478 835.36 L91.478 831.101 L99.7419 829.434 L104.418 829.434 L104.418 860.059 L112.057 860.059 L112.057 863.994 L92.1493 863.994 L92.1493 860.059 Z" fill="#000000" fill-rule="nonzero" fill-opacity="1" /><path clip-path="url(#clip030)" d="M100.112 595.601 Q96.5011 595.601 94.6724 599.165 Q92.8669 602.707 92.8669 609.837 Q92.8669 616.943 94.6724 620.508 Q96.5011 624.05 100.112 624.05 Q103.746 624.05 105.552 620.508 Q107.381 616.943 107.381 609.837 Q107.381 602.707 105.552 599.165 Q103.746 595.601 100.112 595.601 M100.112 591.897 Q105.922 591.897 108.978 596.503 Q112.057 601.087 112.057 609.837 Q112.057 618.563 108.978 623.17 Q105.922 627.753 100.112 627.753 Q94.3021 627.753 91.2234 623.17 Q88.1679 618.563 88.1679 609.837 Q88.1679 601.087 91.2234 596.503 Q94.3021 591.897 100.112 591.897 Z" fill="#000000" fill-rule="nonzero" fill-opacity="1" /><path clip-path="url(#clip030)" d="M92.1493 386.235 L99.7882 386.235 L99.7882 359.869 L91.478 361.536 L91.478 357.276 L99.7419 355.61 L104.418 355.61 L104.418 386.235 L112.057 386.235 L112.057 390.17 L92.1493 390.17 L92.1493 386.235 Z" fill="#000000" fill-rule="nonzero" fill-opacity="1" /><path clip-path="url(#clip030)" d="M95.7373 149.322 L112.057 149.322 L112.057 153.258 L90.1123 153.258 L90.1123 149.322 Q92.7743 146.568 97.3576 141.938 Q101.964 137.285 103.145 135.943 Q105.39 133.42 106.27 131.684 Q107.172 129.924 107.172 128.235 Q107.172 125.48 105.228 123.744 Q103.307 122.008 100.205 122.008 Q98.0058 122.008 95.5521 122.772 Q93.1215 123.535 90.3438 125.086 L90.3438 120.364 Q93.1678 119.23 95.6215 118.651 Q98.0752 118.073 100.112 118.073 Q105.483 118.073 108.677 120.758 Q111.871 123.443 111.871 127.934 Q111.871 130.063 111.061 131.984 Q110.274 133.883 108.168 136.475 Q107.589 137.147 104.487 140.364 Q101.385 143.559 95.7373 149.322 Z" fill="#000000" fill-rule="nonzero" fill-opacity="1" /><circle clip-path="url(#clip031)" cx="893.417" cy="533.478" r="14.4" fill="#009af9" fill-rule="evenodd" fill-opacity="0.5" stroke="#000000" stroke-opacity="0.5" stroke-width="3.2"/>
<circle clip-path="url(#clip031)" cx="1329.52" cy="684.551" r="14.4" fill="#009af9" fill-rule="evenodd" fill-opacity="0.5" stroke="#000000" stroke-opacity="0.5" stroke-width="3.2"/>
<circle clip-path="url(#clip031)" cx="1022.57" cy="928.66" r="14.4" fill="#009af9" fill-rule="evenodd" fill-opacity="0.5" stroke="#000000" stroke-opacity="0.5" stroke-width="3.2"/>
<circle clip-path="url(#clip031)" cx="1381.84" cy="87.9763" r="14.4" fill="#009af9" fill-rule="evenodd" fill-opacity="0.5" stroke="#000000" stroke-opacity="0.5" stroke-width="3.2"/>
<circle clip-path="url(#clip031)" cx="1010.05" cy="614.795" r="14.4" fill="#009af9" fill-rule="evenodd" fill-opacity="0.5" stroke="#000000" stroke-opacity="0.5" stroke-width="3.2"/>
<circle clip-path="url(#clip031)" cx="1014.05" cy="1445.72" r="14.4" fill="#009af9" fill-rule="evenodd" fill-opacity="0.5" stroke="#000000" stroke-opacity="0.5" stroke-width="3.2"/>
<circle clip-path="url(#clip031)" cx="610.814" cy="492.02" r="14.4" fill="#009af9" fill-rule="evenodd" fill-opacity="0.5" stroke="#000000" stroke-opacity="0.5" stroke-width="3.2"/>
<circle clip-path="url(#clip031)" cx="666.997" cy="808.14" r="14.4" fill="#009af9" fill-rule="evenodd" fill-opacity="0.5" stroke="#000000" stroke-opacity="0.5" stroke-width="3.2"/>
<circle clip-path="url(#clip031)" cx="1230.75" cy="426.834" r="14.4" fill="#009af9" fill-rule="evenodd" fill-opacity="0.5" stroke="#000000" stroke-opacity="0.5" stroke-width="3.2"/>
<circle clip-path="url(#clip031)" cx="1616.02" cy="661.996" r="14.4" fill="#009af9" fill-rule="evenodd" fill-opacity="0.5" stroke="#000000" stroke-opacity="0.5" stroke-width="3.2"/>
<circle clip-path="url(#clip031)" cx="1429.86" cy="706.134" r="14.4" fill="#009af9" fill-rule="evenodd" fill-opacity="0.5" stroke="#000000" stroke-opacity="0.5" stroke-width="3.2"/>
<circle clip-path="url(#clip031)" cx="2001.27" cy="285.83" r="14.4" fill="#009af9" fill-rule="evenodd" fill-opacity="0.5" stroke="#000000" stroke-opacity="0.5" stroke-width="3.2"/>
<circle clip-path="url(#clip031)" cx="1874.2" cy="613.472" r="14.4" fill="#009af9" fill-rule="evenodd" fill-opacity="0.5" stroke="#000000" stroke-opacity="0.5" stroke-width="3.2"/>
<circle clip-path="url(#clip031)" cx="1369.23" cy="207.963" r="14.4" fill="#009af9" fill-rule="evenodd" fill-opacity="0.5" stroke="#000000" stroke-opacity="0.5" stroke-width="3.2"/>
<circle clip-path="url(#clip031)" cx="1069.08" cy="1098.08" r="14.4" fill="#009af9" fill-rule="evenodd" fill-opacity="0.5" stroke="#000000" stroke-opacity="0.5" stroke-width="3.2"/>
<circle clip-path="url(#clip031)" cx="947.318" cy="282.871" r="14.4" fill="#009af9" fill-rule="evenodd" fill-opacity="0.5" stroke="#000000" stroke-opacity="0.5" stroke-width="3.2"/>
<circle clip-path="url(#clip031)" cx="1587.43" cy="353.056" r="14.4" fill="#009af9" fill-rule="evenodd" fill-opacity="0.5" stroke="#000000" stroke-opacity="0.5" stroke-width="3.2"/>
<circle clip-path="url(#clip031)" cx="994.244" cy="534.701" r="14.4" fill="#009af9" fill-rule="evenodd" fill-opacity="0.5" stroke="#000000" stroke-opacity="0.5" stroke-width="3.2"/>
<circle clip-path="url(#clip031)" cx="210.454" cy="682.032" r="14.4" fill="#009af9" fill-rule="evenodd" fill-opacity="0.5" stroke="#000000" stroke-opacity="0.5" stroke-width="3.2"/>
<circle clip-path="url(#clip031)" cx="835.964" cy="533.468" r="14.4" fill="#009af9" fill-rule="evenodd" fill-opacity="0.5" stroke="#000000" stroke-opacity="0.5" stroke-width="3.2"/>
<circle clip-path="url(#clip031)" cx="576.134" cy="832.499" r="14.4" fill="#009af9" fill-rule="evenodd" fill-opacity="0.5" stroke="#000000" stroke-opacity="0.5" stroke-width="3.2"/>
<circle clip-path="url(#clip031)" cx="1231.12" cy="510.95" r="14.4" fill="#009af9" fill-rule="evenodd" fill-opacity="0.5" stroke="#000000" stroke-opacity="0.5" stroke-width="3.2"/>
<circle clip-path="url(#clip031)" cx="1287.87" cy="783.441" r="14.4" fill="#009af9" fill-rule="evenodd" fill-opacity="0.5" stroke="#000000" stroke-opacity="0.5" stroke-width="3.2"/>
<circle clip-path="url(#clip031)" cx="1894.36" cy="623.413" r="14.4" fill="#009af9" fill-rule="evenodd" fill-opacity="0.5" stroke="#000000" stroke-opacity="0.5" stroke-width="3.2"/>
<circle clip-path="url(#clip031)" cx="2290.36" cy="644.376" r="14.4" fill="#009af9" fill-rule="evenodd" fill-opacity="0.5" stroke="#000000" stroke-opacity="0.5" stroke-width="3.2"/>
<circle clip-path="url(#clip031)" cx="1373.32" cy="1053.88" r="14.4" fill="#009af9" fill-rule="evenodd" fill-opacity="0.5" stroke="#000000" stroke-opacity="0.5" stroke-width="3.2"/>
<circle clip-path="url(#clip031)" cx="1497.58" cy="493.309" r="14.4" fill="#009af9" fill-rule="evenodd" fill-opacity="0.5" stroke="#000000" stroke-opacity="0.5" stroke-width="3.2"/>
<circle clip-path="url(#clip031)" cx="1350.97" cy="733.741" r="14.4" fill="#009af9" fill-rule="evenodd" fill-opacity="0.5" stroke="#000000" stroke-opacity="0.5" stroke-width="3.2"/>
<circle clip-path="url(#clip031)" cx="1588.17" cy="728.975" r="14.4" fill="#009af9" fill-rule="evenodd" fill-opacity="0.5" stroke="#000000" stroke-opacity="0.5" stroke-width="3.2"/>
<circle clip-path="url(#clip031)" cx="773.611" cy="379.555" r="14.4" fill="#009af9" fill-rule="evenodd" fill-opacity="0.5" stroke="#000000" stroke-opacity="0.5" stroke-width="3.2"/>
<path clip-path="url(#clip031)" d="M210.454 682.032 L1014.05 1445.72 L2290.36 644.376 L2001.27 285.83 L1381.84 87.9763 L947.318 282.871 L210.454 682.032 L210.454 682.032  Z" fill="#e26f46" fill-rule="evenodd" fill-opacity="0.2"/>
<polyline clip-path="url(#clip031)" style="stroke:#000000; stroke-linecap:round; stroke-linejoin:round; stroke-width:4; stroke-opacity:0.2; fill:none" points="210.454,682.032 1014.05,1445.72 2290.36,644.376 2001.27,285.83 1381.84,87.9763 947.318,282.871 210.454,682.032 "/>
</svg>
