<?xml version="1.0" encoding="utf-8"?>
<svg xmlns="http://www.w3.org/2000/svg" xmlns:xlink="http://www.w3.org/1999/xlink" width="600" height="400" viewBox="0 0 2400 1600">
<defs>
  <clipPath id="clip960">
    <rect x="0" y="0" width="2400" height="1600"/>
  </clipPath>
</defs>
<path clip-path="url(#clip960)" d="M0 1600 L2400 1600 L2400 0 L0 0  Z" fill="#ffffff" fill-rule="evenodd" fill-opacity="1"/>
<defs>
  <clipPath id="clip961">
    <rect x="480" y="0" width="1681" height="1600"/>
  </clipPath>
</defs>
<path clip-path="url(#clip960)" d="M147.478 1486.45 L2352.76 1486.45 L2352.76 47.2441 L147.478 47.2441  Z" fill="#ffffff" fill-rule="evenodd" fill-opacity="1"/>
<defs>
  <clipPath id="clip962">
    <rect x="147" y="47" width="2206" height="1440"/>
  </clipPath>
</defs>
<polyline clip-path="url(#clip962)" style="stroke:#000000; stroke-linecap:round; stroke-linejoin:round; stroke-width:2; stroke-opacity:0.1; fill:none" points="229.76,1486.45 229.76,47.2441 "/>
<polyline clip-path="url(#clip962)" style="stroke:#000000; stroke-linecap:round; stroke-linejoin:round; stroke-width:2; stroke-opacity:0.1; fill:none" points="781.18,1486.45 781.18,47.2441 "/>
<polyline clip-path="url(#clip962)" style="stroke:#000000; stroke-linecap:round; stroke-linejoin:round; stroke-width:2; stroke-opacity:0.1; fill:none" points="1332.6,1486.45 1332.6,47.2441 "/>
<polyline clip-path="url(#clip962)" style="stroke:#000000; stroke-linecap:round; stroke-linejoin:round; stroke-width:2; stroke-opacity:0.1; fill:none" points="1884.02,1486.45 1884.02,47.2441 "/>
<polyline clip-path="url(#clip962)" style="stroke:#000000; stroke-linecap:round; stroke-linejoin:round; stroke-width:2; stroke-opacity:0.1; fill:none" points="147.478,1229.38 2352.76,1229.38 "/>
<polyline clip-path="url(#clip962)" style="stroke:#000000; stroke-linecap:round; stroke-linejoin:round; stroke-width:2; stroke-opacity:0.1; fill:none" points="147.478,935.511 2352.76,935.511 "/>
<polyline clip-path="url(#clip962)" style="stroke:#000000; stroke-linecap:round; stroke-linejoin:round; stroke-width:2; stroke-opacity:0.1; fill:none" points="147.478,641.639 2352.76,641.639 "/>
<polyline clip-path="url(#clip962)" style="stroke:#000000; stroke-linecap:round; stroke-linejoin:round; stroke-width:2; stroke-opacity:0.1; fill:none" points="147.478,347.768 2352.76,347.768 "/>
<polyline clip-path="url(#clip962)" style="stroke:#000000; stroke-linecap:round; stroke-linejoin:round; stroke-width:2; stroke-opacity:0.1; fill:none" points="147.478,53.896 2352.76,53.896 "/>
<polyline clip-path="url(#clip960)" style="stroke:#000000; stroke-linecap:round; stroke-linejoin:round; stroke-width:4; stroke-opacity:1; fill:none" points="147.478,1486.45 2352.76,1486.45 "/>
<polyline clip-path="url(#clip960)" style="stroke:#000000; stroke-linecap:round; stroke-linejoin:round; stroke-width:4; stroke-opacity:1; fill:none" points="229.76,1486.45 229.76,1467.55 "/>
<polyline clip-path="url(#clip960)" style="stroke:#000000; stroke-linecap:round; stroke-linejoin:round; stroke-width:4; stroke-opacity:1; fill:none" points="781.18,1486.45 781.18,1467.55 "/>
<polyline clip-path="url(#clip960)" style="stroke:#000000; stroke-linecap:round; stroke-linejoin:round; stroke-width:4; stroke-opacity:1; fill:none" points="1332.6,1486.45 1332.6,1467.55 "/>
<polyline clip-path="url(#clip960)" style="stroke:#000000; stroke-linecap:round; stroke-linejoin:round; stroke-width:4; stroke-opacity:1; fill:none" points="1884.02,1486.45 1884.02,1467.55 "/>
<path clip-path="url(#clip960)" d="M199.702 1532.02 L229.378 1532.02 L229.378 1535.95 L199.702 1535.95 L199.702 1532.02 Z" fill="#000000" fill-rule="nonzero" fill-opacity="1" /><path clip-path="url(#clip960)" d="M243.498 1544.91 L259.818 1544.91 L259.818 1548.85 L237.873 1548.85 L237.873 1544.91 Q240.535 1542.16 245.119 1537.53 Q249.725 1532.88 250.906 1531.53 Q253.151 1529.01 254.031 1527.27 Q254.933 1525.51 254.933 1523.82 Q254.933 1521.07 252.989 1519.33 Q251.068 1517.6 247.966 1517.6 Q245.767 1517.6 243.313 1518.36 Q240.883 1519.13 238.105 1520.68 L238.105 1515.95 Q240.929 1514.82 243.383 1514.24 Q245.836 1513.66 247.873 1513.66 Q253.244 1513.66 256.438 1516.35 Q259.632 1519.03 259.632 1523.52 Q259.632 1525.65 258.822 1527.57 Q258.035 1529.47 255.929 1532.07 Q255.35 1532.74 252.248 1535.95 Q249.146 1539.15 243.498 1544.91 Z" fill="#000000" fill-rule="nonzero" fill-opacity="1" /><path clip-path="url(#clip960)" d="M750.937 1532.02 L780.613 1532.02 L780.613 1535.95 L750.937 1535.95 L750.937 1532.02 Z" fill="#000000" fill-rule="nonzero" fill-opacity="1" /><path clip-path="url(#clip960)" d="M791.516 1544.91 L799.154 1544.91 L799.154 1518.55 L790.844 1520.21 L790.844 1515.95 L799.108 1514.29 L803.784 1514.29 L803.784 1544.91 L811.423 1544.91 L811.423 1548.85 L791.516 1548.85 L791.516 1544.91 Z" fill="#000000" fill-rule="nonzero" fill-opacity="1" /><path clip-path="url(#clip960)" d="M1332.6 1517.37 Q1328.99 1517.37 1327.16 1520.93 Q1325.35 1524.47 1325.35 1531.6 Q1325.35 1538.71 1327.16 1542.27 Q1328.99 1545.82 1332.6 1545.82 Q1336.23 1545.82 1338.04 1542.27 Q1339.87 1538.71 1339.87 1531.6 Q1339.87 1524.47 1338.04 1520.93 Q1336.23 1517.37 1332.6 1517.37 M1332.6 1513.66 Q1338.41 1513.66 1341.47 1518.27 Q1344.54 1522.85 1344.54 1531.6 Q1344.54 1540.33 1341.47 1544.94 Q1338.41 1549.52 1332.6 1549.52 Q1326.79 1549.52 1323.71 1544.94 Q1320.66 1540.33 1320.66 1531.6 Q1320.66 1522.85 1323.71 1518.27 Q1326.79 1513.66 1332.6 1513.66 Z" fill="#000000" fill-rule="nonzero" fill-opacity="1" /><path clip-path="url(#clip960)" d="M1874.4 1544.91 L1882.04 1544.91 L1882.04 1518.55 L1873.73 1520.21 L1873.73 1515.95 L1881.99 1514.29 L1886.67 1514.29 L1886.67 1544.91 L1894.31 1544.91 L1894.31 1548.85 L1874.4 1548.85 L1874.4 1544.91 Z" fill="#000000" fill-rule="nonzero" fill-opacity="1" /><polyline clip-path="url(#clip960)" style="stroke:#000000; stroke-linecap:round; stroke-linejoin:round; stroke-width:4; stroke-opacity:1; fill:none" points="147.478,1486.45 147.478,47.2441 "/>
<polyline clip-path="url(#clip960)" style="stroke:#000000; stroke-linecap:round; stroke-linejoin:round; stroke-width:4; stroke-opacity:1; fill:none" points="147.478,1229.38 166.376,1229.38 "/>
<polyline clip-path="url(#clip960)" style="stroke:#000000; stroke-linecap:round; stroke-linejoin:round; stroke-width:4; stroke-opacity:1; fill:none" points="147.478,935.511 166.376,935.511 "/>
<polyline clip-path="url(#clip960)" style="stroke:#000000; stroke-linecap:round; stroke-linejoin:round; stroke-width:4; stroke-opacity:1; fill:none" points="147.478,641.639 166.376,641.639 "/>
<polyline clip-path="url(#clip960)" style="stroke:#000000; stroke-linecap:round; stroke-linejoin:round; stroke-width:4; stroke-opacity:1; fill:none" points="147.478,347.768 166.376,347.768 "/>
<polyline clip-path="url(#clip960)" style="stroke:#000000; stroke-linecap:round; stroke-linejoin:round; stroke-width:4; stroke-opacity:1; fill:none" points="147.478,53.896 166.376,53.896 "/>
<path clip-path="url(#clip960)" d="M50.9921 1229.83 L80.6679 1229.83 L80.6679 1233.77 L50.9921 1233.77 L50.9921 1229.83 Z" fill="#000000" fill-rule="nonzero" fill-opacity="1" /><path clip-path="url(#clip960)" d="M91.5706 1242.73 L99.2095 1242.73 L99.2095 1216.36 L90.8993 1218.03 L90.8993 1213.77 L99.1632 1212.1 L103.839 1212.1 L103.839 1242.73 L111.478 1242.73 L111.478 1246.66 L91.5706 1246.66 L91.5706 1242.73 Z" fill="#000000" fill-rule="nonzero" fill-opacity="1" /><path clip-path="url(#clip960)" d="M99.5335 921.31 Q95.9224 921.31 94.0937 924.875 Q92.2882 928.416 92.2882 935.546 Q92.2882 942.652 94.0937 946.217 Q95.9224 949.759 99.5335 949.759 Q103.168 949.759 104.973 946.217 Q106.802 942.652 106.802 935.546 Q106.802 928.416 104.973 924.875 Q103.168 921.31 99.5335 921.31 M99.5335 917.606 Q105.344 917.606 108.399 922.213 Q111.478 926.796 111.478 935.546 Q111.478 944.273 108.399 948.879 Q105.344 953.462 99.5335 953.462 Q93.7234 953.462 90.6447 948.879 Q87.5892 944.273 87.5892 935.546 Q87.5892 926.796 90.6447 922.213 Q93.7234 917.606 99.5335 917.606 Z" fill="#000000" fill-rule="nonzero" fill-opacity="1" /><path clip-path="url(#clip960)" d="M91.5706 654.984 L99.2095 654.984 L99.2095 628.619 L90.8993 630.285 L90.8993 626.026 L99.1632 624.359 L103.839 624.359 L103.839 654.984 L111.478 654.984 L111.478 658.919 L91.5706 658.919 L91.5706 654.984 Z" fill="#000000" fill-rule="nonzero" fill-opacity="1" /><path clip-path="url(#clip960)" d="M95.1586 361.113 L111.478 361.113 L111.478 365.048 L89.5336 365.048 L89.5336 361.113 Q92.1956 358.358 96.7789 353.728 Q101.385 349.076 102.566 347.733 Q104.811 345.21 105.691 343.474 Q106.594 341.714 106.594 340.025 Q106.594 337.27 104.649 335.534 Q102.728 333.798 99.6261 333.798 Q97.4271 333.798 94.9734 334.562 Q92.5428 335.326 89.7651 336.877 L89.7651 332.154 Q92.5891 331.02 95.0428 330.441 Q97.4965 329.863 99.5335 329.863 Q104.904 329.863 108.098 332.548 Q111.293 335.233 111.293 339.724 Q111.293 341.853 110.483 343.775 Q109.696 345.673 107.589 348.265 Q107.01 348.937 103.909 352.154 Q100.807 355.349 95.1586 361.113 Z" fill="#000000" fill-rule="nonzero" fill-opacity="1" /><path clip-path="url(#clip960)" d="M104.348 52.5419 Q107.705 53.2595 109.58 55.528 Q111.478 57.7965 111.478 61.1298 Q111.478 66.2455 107.959 69.0464 Q104.441 71.8473 97.9595 71.8473 Q95.7836 71.8473 93.4688 71.4075 Q91.1771 70.9908 88.7234 70.1344 L88.7234 65.6205 Q90.6678 66.7548 92.9826 67.3335 Q95.2974 67.9122 97.8206 67.9122 Q102.219 67.9122 104.51 66.1761 Q106.825 64.44 106.825 61.1298 Q106.825 58.0743 104.672 56.3613 Q102.543 54.6252 98.7234 54.6252 L94.6956 54.6252 L94.6956 50.7826 L98.9085 50.7826 Q102.358 50.7826 104.186 49.4169 Q106.015 48.028 106.015 45.4354 Q106.015 42.7734 104.117 41.3614 Q102.242 39.9262 98.7234 39.9262 Q96.8021 39.9262 94.603 40.3429 Q92.4039 40.7595 89.7651 41.6392 L89.7651 37.4725 Q92.4271 36.7318 94.7419 36.3614 Q97.0798 35.991 99.14 35.991 Q104.464 35.991 107.566 38.4216 Q110.668 40.829 110.668 44.9493 Q110.668 47.8197 109.024 49.8104 Q107.381 51.778 104.348 52.5419 Z" fill="#000000" fill-rule="nonzero" fill-opacity="1" /><circle clip-path="url(#clip962)" cx="1052.67" cy="1178.86" r="14.4" fill="#009af9" fill-rule="evenodd" fill-opacity="0.5" stroke="#000000" stroke-opacity="0.5" stroke-width="3.2"/>
<circle clip-path="url(#clip962)" cx="1814.37" cy="729.461" r="14.4" fill="#009af9" fill-rule="evenodd" fill-opacity="0.5" stroke="#000000" stroke-opacity="0.5" stroke-width="3.2"/>
<circle clip-path="url(#clip962)" cx="2252.7" cy="995.483" r="14.4" fill="#009af9" fill-rule="evenodd" fill-opacity="0.5" stroke="#000000" stroke-opacity="0.5" stroke-width="3.2"/>
<circle clip-path="url(#clip962)" cx="209.891" cy="1078" r="14.4" fill="#009af9" fill-rule="evenodd" fill-opacity="0.5" stroke="#000000" stroke-opacity="0.5" stroke-width="3.2"/>
<circle clip-path="url(#clip962)" cx="1847.67" cy="1127.41" r="14.4" fill="#009af9" fill-rule="evenodd" fill-opacity="0.5" stroke="#000000" stroke-opacity="0.5" stroke-width="3.2"/>
<circle clip-path="url(#clip962)" cx="1752.42" cy="596.697" r="14.4" fill="#009af9" fill-rule="evenodd" fill-opacity="0.5" stroke="#000000" stroke-opacity="0.5" stroke-width="3.2"/>
<circle clip-path="url(#clip962)" cx="919.212" cy="614.871" r="14.4" fill="#009af9" fill-rule="evenodd" fill-opacity="0.5" stroke="#000000" stroke-opacity="0.5" stroke-width="3.2"/>
<circle clip-path="url(#clip962)" cx="1298.01" cy="1023.94" r="14.4" fill="#009af9" fill-rule="evenodd" fill-opacity="0.5" stroke="#000000" stroke-opacity="0.5" stroke-width="3.2"/>
<circle clip-path="url(#clip962)" cx="1103.28" cy="980.017" r="14.4" fill="#009af9" fill-rule="evenodd" fill-opacity="0.5" stroke="#000000" stroke-opacity="0.5" stroke-width="3.2"/>
<circle clip-path="url(#clip962)" cx="1644.08" cy="587.746" r="14.4" fill="#009af9" fill-rule="evenodd" fill-opacity="0.5" stroke="#000000" stroke-opacity="0.5" stroke-width="3.2"/>
<circle clip-path="url(#clip962)" cx="1898.82" cy="1099.84" r="14.4" fill="#009af9" fill-rule="evenodd" fill-opacity="0.5" stroke="#000000" stroke-opacity="0.5" stroke-width="3.2"/>
<circle clip-path="url(#clip962)" cx="832.91" cy="964.176" r="14.4" fill="#009af9" fill-rule="evenodd" fill-opacity="0.5" stroke="#000000" stroke-opacity="0.5" stroke-width="3.2"/>
<circle clip-path="url(#clip962)" cx="1506.29" cy="1308.8" r="14.4" fill="#009af9" fill-rule="evenodd" fill-opacity="0.5" stroke="#000000" stroke-opacity="0.5" stroke-width="3.2"/>
<circle clip-path="url(#clip962)" cx="800.16" cy="928.257" r="14.4" fill="#009af9" fill-rule="evenodd" fill-opacity="0.5" stroke="#000000" stroke-opacity="0.5" stroke-width="3.2"/>
<circle clip-path="url(#clip962)" cx="1260.21" cy="1220.12" r="14.4" fill="#009af9" fill-rule="evenodd" fill-opacity="0.5" stroke="#000000" stroke-opacity="0.5" stroke-width="3.2"/>
<circle clip-path="url(#clip962)" cx="1433.57" cy="1015.41" r="14.4" fill="#009af9" fill-rule="evenodd" fill-opacity="0.5" stroke="#000000" stroke-opacity="0.5" stroke-width="3.2"/>
<circle clip-path="url(#clip962)" cx="1009.76" cy="763.772" r="14.4" fill="#009af9" fill-rule="evenodd" fill-opacity="0.5" stroke="#000000" stroke-opacity="0.5" stroke-width="3.2"/>
<circle clip-path="url(#clip962)" cx="1431.22" cy="1173.72" r="14.4" fill="#009af9" fill-rule="evenodd" fill-opacity="0.5" stroke="#000000" stroke-opacity="0.5" stroke-width="3.2"/>
<circle clip-path="url(#clip962)" cx="2290.34" cy="809.494" r="14.4" fill="#009af9" fill-rule="evenodd" fill-opacity="0.5" stroke="#000000" stroke-opacity="0.5" stroke-width="3.2"/>
<circle clip-path="url(#clip962)" cx="1575.64" cy="1104.08" r="14.4" fill="#009af9" fill-rule="evenodd" fill-opacity="0.5" stroke="#000000" stroke-opacity="0.5" stroke-width="3.2"/>
<circle clip-path="url(#clip962)" cx="1463.75" cy="930.057" r="14.4" fill="#009af9" fill-rule="evenodd" fill-opacity="0.5" stroke="#000000" stroke-opacity="0.5" stroke-width="3.2"/>
<circle clip-path="url(#clip962)" cx="2260.36" cy="87.9763" r="14.4" fill="#009af9" fill-rule="evenodd" fill-opacity="0.5" stroke="#000000" stroke-opacity="0.5" stroke-width="3.2"/>
<circle clip-path="url(#clip962)" cx="360.171" cy="881.306" r="14.4" fill="#009af9" fill-rule="evenodd" fill-opacity="0.5" stroke="#000000" stroke-opacity="0.5" stroke-width="3.2"/>
<circle clip-path="url(#clip962)" cx="418.473" cy="1445.72" r="14.4" fill="#009af9" fill-rule="evenodd" fill-opacity="0.5" stroke="#000000" stroke-opacity="0.5" stroke-width="3.2"/>
<circle clip-path="url(#clip962)" cx="434.428" cy="1278.61" r="14.4" fill="#009af9" fill-rule="evenodd" fill-opacity="0.5" stroke="#000000" stroke-opacity="0.5" stroke-width="3.2"/>
<circle clip-path="url(#clip962)" cx="1332.47" cy="994.518" r="14.4" fill="#009af9" fill-rule="evenodd" fill-opacity="0.5" stroke="#000000" stroke-opacity="0.5" stroke-width="3.2"/>
<circle clip-path="url(#clip962)" cx="1480.5" cy="769.46" r="14.4" fill="#009af9" fill-rule="evenodd" fill-opacity="0.5" stroke="#000000" stroke-opacity="0.5" stroke-width="3.2"/>
<circle clip-path="url(#clip962)" cx="1726.93" cy="845.403" r="14.4" fill="#009af9" fill-rule="evenodd" fill-opacity="0.5" stroke="#000000" stroke-opacity="0.5" stroke-width="3.2"/>
<circle clip-path="url(#clip962)" cx="2148.38" cy="814.638" r="14.4" fill="#009af9" fill-rule="evenodd" fill-opacity="0.5" stroke="#000000" stroke-opacity="0.5" stroke-width="3.2"/>
<circle clip-path="url(#clip962)" cx="1036.25" cy="1236.67" r="14.4" fill="#009af9" fill-rule="evenodd" fill-opacity="0.5" stroke="#000000" stroke-opacity="0.5" stroke-width="3.2"/>
<path clip-path="url(#clip962)" d="M209.891 1078 L418.473 1445.72 L1506.29 1308.8 L2252.7 995.483 L2290.34 809.494 L2260.36 87.9763 L919.212 614.871 L360.171 881.306 L209.891 1078 L209.891 1078  Z" fill="#e26f46" fill-rule="evenodd" fill-opacity="0.2"/>
<polyline clip-path="url(#clip962)" style="stroke:#000000; stroke-linecap:round; stroke-linejoin:round; stroke-width:4; stroke-opacity:0.2; fill:none" points="209.891,1078 418.473,1445.72 1506.29,1308.8 2252.7,995.483 2290.34,809.494 2260.36,87.9763 919.212,614.871 360.171,881.306 209.891,1078 "/>
</svg>
