<?xml version="1.0" encoding="utf-8"?>
<svg xmlns="http://www.w3.org/2000/svg" xmlns:xlink="http://www.w3.org/1999/xlink" width="600" height="400" viewBox="0 0 2400 1600">
<defs>
  <clipPath id="clip160">
    <rect x="0" y="0" width="2400" height="1600"/>
  </clipPath>
</defs>
<path clip-path="url(#clip160)" d="M0 1600 L2400 1600 L2400 0 L0 0  Z" fill="#ffffff" fill-rule="evenodd" fill-opacity="1"/>
<defs>
  <clipPath id="clip161">
    <rect x="480" y="0" width="1681" height="1600"/>
  </clipPath>
</defs>
<path clip-path="url(#clip160)" d="M147.478 1486.45 L2352.76 1486.45 L2352.76 47.2441 L147.478 47.2441  Z" fill="#ffffff" fill-rule="evenodd" fill-opacity="1"/>
<defs>
  <clipPath id="clip162">
    <rect x="147" y="47" width="2206" height="1440"/>
  </clipPath>
</defs>
<polyline clip-path="url(#clip162)" style="stroke:#000000; stroke-linecap:round; stroke-linejoin:round; stroke-width:2; stroke-opacity:0.1; fill:none" points="227.313,1486.45 227.313,47.2441 "/>
<polyline clip-path="url(#clip162)" style="stroke:#000000; stroke-linecap:round; stroke-linejoin:round; stroke-width:2; stroke-opacity:0.1; fill:none" points="743.176,1486.45 743.176,47.2441 "/>
<polyline clip-path="url(#clip162)" style="stroke:#000000; stroke-linecap:round; stroke-linejoin:round; stroke-width:2; stroke-opacity:0.1; fill:none" points="1259.04,1486.45 1259.04,47.2441 "/>
<polyline clip-path="url(#clip162)" style="stroke:#000000; stroke-linecap:round; stroke-linejoin:round; stroke-width:2; stroke-opacity:0.1; fill:none" points="1774.9,1486.45 1774.9,47.2441 "/>
<polyline clip-path="url(#clip162)" style="stroke:#000000; stroke-linecap:round; stroke-linejoin:round; stroke-width:2; stroke-opacity:0.1; fill:none" points="2290.76,1486.45 2290.76,47.2441 "/>
<polyline clip-path="url(#clip162)" style="stroke:#000000; stroke-linecap:round; stroke-linejoin:round; stroke-width:2; stroke-opacity:0.1; fill:none" points="147.478,1369.68 2352.76,1369.68 "/>
<polyline clip-path="url(#clip162)" style="stroke:#000000; stroke-linecap:round; stroke-linejoin:round; stroke-width:2; stroke-opacity:0.1; fill:none" points="147.478,1000.47 2352.76,1000.47 "/>
<polyline clip-path="url(#clip162)" style="stroke:#000000; stroke-linecap:round; stroke-linejoin:round; stroke-width:2; stroke-opacity:0.1; fill:none" points="147.478,631.273 2352.76,631.273 "/>
<polyline clip-path="url(#clip162)" style="stroke:#000000; stroke-linecap:round; stroke-linejoin:round; stroke-width:2; stroke-opacity:0.1; fill:none" points="147.478,262.071 2352.76,262.071 "/>
<polyline clip-path="url(#clip160)" style="stroke:#000000; stroke-linecap:round; stroke-linejoin:round; stroke-width:4; stroke-opacity:1; fill:none" points="147.478,1486.45 2352.76,1486.45 "/>
<polyline clip-path="url(#clip160)" style="stroke:#000000; stroke-linecap:round; stroke-linejoin:round; stroke-width:4; stroke-opacity:1; fill:none" points="227.313,1486.45 227.313,1467.55 "/>
<polyline clip-path="url(#clip160)" style="stroke:#000000; stroke-linecap:round; stroke-linejoin:round; stroke-width:4; stroke-opacity:1; fill:none" points="743.176,1486.45 743.176,1467.55 "/>
<polyline clip-path="url(#clip160)" style="stroke:#000000; stroke-linecap:round; stroke-linejoin:round; stroke-width:4; stroke-opacity:1; fill:none" points="1259.04,1486.45 1259.04,1467.55 "/>
<polyline clip-path="url(#clip160)" style="stroke:#000000; stroke-linecap:round; stroke-linejoin:round; stroke-width:4; stroke-opacity:1; fill:none" points="1774.9,1486.45 1774.9,1467.55 "/>
<polyline clip-path="url(#clip160)" style="stroke:#000000; stroke-linecap:round; stroke-linejoin:round; stroke-width:4; stroke-opacity:1; fill:none" points="2290.76,1486.45 2290.76,1467.55 "/>
<path clip-path="url(#clip160)" d="M197.255 1532.02 L226.931 1532.02 L226.931 1535.95 L197.255 1535.95 L197.255 1532.02 Z" fill="#000000" fill-rule="nonzero" fill-opacity="1" /><path clip-path="url(#clip160)" d="M241.051 1544.91 L257.37 1544.91 L257.37 1548.85 L235.426 1548.85 L235.426 1544.91 Q238.088 1542.16 242.671 1537.53 Q247.278 1532.88 248.458 1531.53 Q250.704 1529.01 251.583 1527.27 Q252.486 1525.51 252.486 1523.82 Q252.486 1521.07 250.542 1519.33 Q248.62 1517.6 245.519 1517.6 Q243.32 1517.6 240.866 1518.36 Q238.435 1519.13 235.658 1520.68 L235.658 1515.95 Q238.482 1514.82 240.935 1514.24 Q243.389 1513.66 245.426 1513.66 Q250.796 1513.66 253.991 1516.35 Q257.185 1519.03 257.185 1523.52 Q257.185 1525.65 256.375 1527.57 Q255.588 1529.47 253.482 1532.07 Q252.903 1532.74 249.801 1535.95 Q246.699 1539.15 241.051 1544.91 Z" fill="#000000" fill-rule="nonzero" fill-opacity="1" /><path clip-path="url(#clip160)" d="M712.933 1532.02 L742.609 1532.02 L742.609 1535.95 L712.933 1535.95 L712.933 1532.02 Z" fill="#000000" fill-rule="nonzero" fill-opacity="1" /><path clip-path="url(#clip160)" d="M753.511 1544.91 L761.15 1544.91 L761.15 1518.55 L752.84 1520.21 L752.84 1515.95 L761.104 1514.29 L765.78 1514.29 L765.78 1544.91 L773.419 1544.91 L773.419 1548.85 L753.511 1548.85 L753.511 1544.91 Z" fill="#000000" fill-rule="nonzero" fill-opacity="1" /><path clip-path="url(#clip160)" d="M1259.04 1517.37 Q1255.43 1517.37 1253.6 1520.93 Q1251.79 1524.47 1251.79 1531.6 Q1251.79 1538.71 1253.6 1542.27 Q1255.43 1545.82 1259.04 1545.82 Q1262.67 1545.82 1264.48 1542.27 Q1266.31 1538.71 1266.31 1531.6 Q1266.31 1524.47 1264.48 1520.93 Q1262.67 1517.37 1259.04 1517.37 M1259.04 1513.66 Q1264.85 1513.66 1267.9 1518.27 Q1270.98 1522.85 1270.98 1531.6 Q1270.98 1540.33 1267.9 1544.94 Q1264.85 1549.52 1259.04 1549.52 Q1253.23 1549.52 1250.15 1544.94 Q1247.09 1540.33 1247.09 1531.6 Q1247.09 1522.85 1250.15 1518.27 Q1253.23 1513.66 1259.04 1513.66 Z" fill="#000000" fill-rule="nonzero" fill-opacity="1" /><path clip-path="url(#clip160)" d="M1765.28 1544.91 L1772.92 1544.91 L1772.92 1518.55 L1764.61 1520.21 L1764.61 1515.95 L1772.88 1514.29 L1777.55 1514.29 L1777.55 1544.91 L1785.19 1544.91 L1785.19 1548.85 L1765.28 1548.85 L1765.28 1544.91 Z" fill="#000000" fill-rule="nonzero" fill-opacity="1" /><path clip-path="url(#clip160)" d="M2285.42 1544.91 L2301.74 1544.91 L2301.74 1548.85 L2279.79 1548.85 L2279.79 1544.91 Q2282.45 1542.16 2287.04 1537.53 Q2291.64 1532.88 2292.83 1531.53 Q2295.07 1529.01 2295.95 1527.27 Q2296.85 1525.51 2296.85 1523.82 Q2296.85 1521.07 2294.91 1519.33 Q2292.99 1517.6 2289.89 1517.6 Q2287.69 1517.6 2285.23 1518.36 Q2282.8 1519.13 2280.02 1520.68 L2280.02 1515.95 Q2282.85 1514.82 2285.3 1514.24 Q2287.76 1513.66 2289.79 1513.66 Q2295.16 1513.66 2298.36 1516.35 Q2301.55 1519.03 2301.55 1523.52 Q2301.55 1525.65 2300.74 1527.57 Q2299.95 1529.47 2297.85 1532.07 Q2297.27 1532.74 2294.17 1535.95 Q2291.07 1539.15 2285.42 1544.91 Z" fill="#000000" fill-rule="nonzero" fill-opacity="1" /><polyline clip-path="url(#clip160)" style="stroke:#000000; stroke-linecap:round; stroke-linejoin:round; stroke-width:4; stroke-opacity:1; fill:none" points="147.478,1486.45 147.478,47.2441 "/>
<polyline clip-path="url(#clip160)" style="stroke:#000000; stroke-linecap:round; stroke-linejoin:round; stroke-width:4; stroke-opacity:1; fill:none" points="147.478,1369.68 166.376,1369.68 "/>
<polyline clip-path="url(#clip160)" style="stroke:#000000; stroke-linecap:round; stroke-linejoin:round; stroke-width:4; stroke-opacity:1; fill:none" points="147.478,1000.47 166.376,1000.47 "/>
<polyline clip-path="url(#clip160)" style="stroke:#000000; stroke-linecap:round; stroke-linejoin:round; stroke-width:4; stroke-opacity:1; fill:none" points="147.478,631.273 166.376,631.273 "/>
<polyline clip-path="url(#clip160)" style="stroke:#000000; stroke-linecap:round; stroke-linejoin:round; stroke-width:4; stroke-opacity:1; fill:none" points="147.478,262.071 166.376,262.071 "/>
<path clip-path="url(#clip160)" d="M51.3625 1370.13 L81.0383 1370.13 L81.0383 1374.06 L51.3625 1374.06 L51.3625 1370.13 Z" fill="#000000" fill-rule="nonzero" fill-opacity="1" /><path clip-path="url(#clip160)" d="M95.1586 1383.02 L111.478 1383.02 L111.478 1386.96 L89.5336 1386.96 L89.5336 1383.02 Q92.1956 1380.27 96.7789 1375.64 Q101.385 1370.98 102.566 1369.64 Q104.811 1367.12 105.691 1365.38 Q106.594 1363.62 106.594 1361.93 Q106.594 1359.18 104.649 1357.44 Q102.728 1355.71 99.6261 1355.71 Q97.4271 1355.71 94.9734 1356.47 Q92.5428 1357.23 89.7651 1358.78 L89.7651 1354.06 Q92.5891 1352.93 95.0428 1352.35 Q97.4965 1351.77 99.5335 1351.77 Q104.904 1351.77 108.098 1354.46 Q111.293 1357.14 111.293 1361.63 Q111.293 1363.76 110.483 1365.68 Q109.696 1367.58 107.589 1370.17 Q107.01 1370.84 103.909 1374.06 Q100.807 1377.26 95.1586 1383.02 Z" fill="#000000" fill-rule="nonzero" fill-opacity="1" /><path clip-path="url(#clip160)" d="M50.9921 1000.93 L80.6679 1000.93 L80.6679 1004.86 L50.9921 1004.86 L50.9921 1000.93 Z" fill="#000000" fill-rule="nonzero" fill-opacity="1" /><path clip-path="url(#clip160)" d="M91.5706 1013.82 L99.2095 1013.82 L99.2095 987.454 L90.8993 989.12 L90.8993 984.861 L99.1632 983.194 L103.839 983.194 L103.839 1013.82 L111.478 1013.82 L111.478 1017.75 L91.5706 1017.75 L91.5706 1013.82 Z" fill="#000000" fill-rule="nonzero" fill-opacity="1" /><path clip-path="url(#clip160)" d="M99.5335 617.072 Q95.9224 617.072 94.0937 620.636 Q92.2882 624.178 92.2882 631.308 Q92.2882 638.414 94.0937 641.979 Q95.9224 645.521 99.5335 645.521 Q103.168 645.521 104.973 641.979 Q106.802 638.414 106.802 631.308 Q106.802 624.178 104.973 620.636 Q103.168 617.072 99.5335 617.072 M99.5335 613.368 Q105.344 613.368 108.399 617.974 Q111.478 622.558 111.478 631.308 Q111.478 640.034 108.399 644.641 Q105.344 649.224 99.5335 649.224 Q93.7234 649.224 90.6447 644.641 Q87.5892 640.034 87.5892 631.308 Q87.5892 622.558 90.6447 617.974 Q93.7234 613.368 99.5335 613.368 Z" fill="#000000" fill-rule="nonzero" fill-opacity="1" /><path clip-path="url(#clip160)" d="M91.5706 275.416 L99.2095 275.416 L99.2095 249.051 L90.8993 250.717 L90.8993 246.458 L99.1632 244.791 L103.839 244.791 L103.839 275.416 L111.478 275.416 L111.478 279.351 L91.5706 279.351 L91.5706 275.416 Z" fill="#000000" fill-rule="nonzero" fill-opacity="1" /><circle clip-path="url(#clip162)" cx="1162.96" cy="736.325" r="14.4" fill="#009af9" fill-rule="evenodd" fill-opacity="0.5" stroke="#000000" stroke-opacity="0.5" stroke-width="3.2"/>
<circle clip-path="url(#clip162)" cx="1860.14" cy="87.9763" r="14.4" fill="#009af9" fill-rule="evenodd" fill-opacity="0.5" stroke="#000000" stroke-opacity="0.5" stroke-width="3.2"/>
<circle clip-path="url(#clip162)" cx="782.181" cy="572.861" r="14.4" fill="#009af9" fill-rule="evenodd" fill-opacity="0.5" stroke="#000000" stroke-opacity="0.5" stroke-width="3.2"/>
<circle clip-path="url(#clip162)" cx="1638.49" cy="430.451" r="14.4" fill="#009af9" fill-rule="evenodd" fill-opacity="0.5" stroke="#000000" stroke-opacity="0.5" stroke-width="3.2"/>
<circle clip-path="url(#clip162)" cx="732.762" cy="718.324" r="14.4" fill="#009af9" fill-rule="evenodd" fill-opacity="0.5" stroke="#000000" stroke-opacity="0.5" stroke-width="3.2"/>
<circle clip-path="url(#clip162)" cx="744.854" cy="425.055" r="14.4" fill="#009af9" fill-rule="evenodd" fill-opacity="0.5" stroke="#000000" stroke-opacity="0.5" stroke-width="3.2"/>
<circle clip-path="url(#clip162)" cx="388.663" cy="421.395" r="14.4" fill="#009af9" fill-rule="evenodd" fill-opacity="0.5" stroke="#000000" stroke-opacity="0.5" stroke-width="3.2"/>
<circle clip-path="url(#clip162)" cx="1555.75" cy="626.432" r="14.4" fill="#009af9" fill-rule="evenodd" fill-opacity="0.5" stroke="#000000" stroke-opacity="0.5" stroke-width="3.2"/>
<circle clip-path="url(#clip162)" cx="1137.55" cy="559.943" r="14.4" fill="#009af9" fill-rule="evenodd" fill-opacity="0.5" stroke="#000000" stroke-opacity="0.5" stroke-width="3.2"/>
<circle clip-path="url(#clip162)" cx="1360.17" cy="857.628" r="14.4" fill="#009af9" fill-rule="evenodd" fill-opacity="0.5" stroke="#000000" stroke-opacity="0.5" stroke-width="3.2"/>
<circle clip-path="url(#clip162)" cx="1524.97" cy="95.6524" r="14.4" fill="#009af9" fill-rule="evenodd" fill-opacity="0.5" stroke="#000000" stroke-opacity="0.5" stroke-width="3.2"/>
<circle clip-path="url(#clip162)" cx="1171.64" cy="1445.72" r="14.4" fill="#009af9" fill-rule="evenodd" fill-opacity="0.5" stroke="#000000" stroke-opacity="0.5" stroke-width="3.2"/>
<circle clip-path="url(#clip162)" cx="1271.1" cy="796.862" r="14.4" fill="#009af9" fill-rule="evenodd" fill-opacity="0.5" stroke="#000000" stroke-opacity="0.5" stroke-width="3.2"/>
<circle clip-path="url(#clip162)" cx="2290.34" cy="670.876" r="14.4" fill="#009af9" fill-rule="evenodd" fill-opacity="0.5" stroke="#000000" stroke-opacity="0.5" stroke-width="3.2"/>
<circle clip-path="url(#clip162)" cx="1765.68" cy="944.85" r="14.4" fill="#009af9" fill-rule="evenodd" fill-opacity="0.5" stroke="#000000" stroke-opacity="0.5" stroke-width="3.2"/>
<circle clip-path="url(#clip162)" cx="433.011" cy="709.372" r="14.4" fill="#009af9" fill-rule="evenodd" fill-opacity="0.5" stroke="#000000" stroke-opacity="0.5" stroke-width="3.2"/>
<circle clip-path="url(#clip162)" cx="541.853" cy="657.081" r="14.4" fill="#009af9" fill-rule="evenodd" fill-opacity="0.5" stroke="#000000" stroke-opacity="0.5" stroke-width="3.2"/>
<circle clip-path="url(#clip162)" cx="1293.54" cy="703.909" r="14.4" fill="#009af9" fill-rule="evenodd" fill-opacity="0.5" stroke="#000000" stroke-opacity="0.5" stroke-width="3.2"/>
<circle clip-path="url(#clip162)" cx="945.065" cy="1154.31" r="14.4" fill="#009af9" fill-rule="evenodd" fill-opacity="0.5" stroke="#000000" stroke-opacity="0.5" stroke-width="3.2"/>
<circle clip-path="url(#clip162)" cx="660.566" cy="586.691" r="14.4" fill="#009af9" fill-rule="evenodd" fill-opacity="0.5" stroke="#000000" stroke-opacity="0.5" stroke-width="3.2"/>
<circle clip-path="url(#clip162)" cx="1284.35" cy="202.507" r="14.4" fill="#009af9" fill-rule="evenodd" fill-opacity="0.5" stroke="#000000" stroke-opacity="0.5" stroke-width="3.2"/>
<circle clip-path="url(#clip162)" cx="349.038" cy="556.054" r="14.4" fill="#009af9" fill-rule="evenodd" fill-opacity="0.5" stroke="#000000" stroke-opacity="0.5" stroke-width="3.2"/>
<circle clip-path="url(#clip162)" cx="1133.07" cy="932.419" r="14.4" fill="#009af9" fill-rule="evenodd" fill-opacity="0.5" stroke="#000000" stroke-opacity="0.5" stroke-width="3.2"/>
<circle clip-path="url(#clip162)" cx="876.47" cy="806.73" r="14.4" fill="#009af9" fill-rule="evenodd" fill-opacity="0.5" stroke="#000000" stroke-opacity="0.5" stroke-width="3.2"/>
<circle clip-path="url(#clip162)" cx="877.525" cy="806.959" r="14.4" fill="#009af9" fill-rule="evenodd" fill-opacity="0.5" stroke="#000000" stroke-opacity="0.5" stroke-width="3.2"/>
<circle clip-path="url(#clip162)" cx="209.891" cy="687.181" r="14.4" fill="#009af9" fill-rule="evenodd" fill-opacity="0.5" stroke="#000000" stroke-opacity="0.5" stroke-width="3.2"/>
<circle clip-path="url(#clip162)" cx="1251.9" cy="371.594" r="14.4" fill="#009af9" fill-rule="evenodd" fill-opacity="0.5" stroke="#000000" stroke-opacity="0.5" stroke-width="3.2"/>
<circle clip-path="url(#clip162)" cx="889.197" cy="333.711" r="14.4" fill="#009af9" fill-rule="evenodd" fill-opacity="0.5" stroke="#000000" stroke-opacity="0.5" stroke-width="3.2"/>
<circle clip-path="url(#clip162)" cx="1550.3" cy="421.554" r="14.4" fill="#009af9" fill-rule="evenodd" fill-opacity="0.5" stroke="#000000" stroke-opacity="0.5" stroke-width="3.2"/>
<circle clip-path="url(#clip162)" cx="2015.06" cy="283.504" r="14.4" fill="#009af9" fill-rule="evenodd" fill-opacity="0.5" stroke="#000000" stroke-opacity="0.5" stroke-width="3.2"/>
<path clip-path="url(#clip162)" d="M209.891 687.181 L1171.64 1445.72 L2290.34 670.876 L2015.06 283.504 L1860.14 87.9763 L1524.97 95.6524 L388.663 421.395 L209.891 687.181 L209.891 687.181  Z" fill="#e26f46" fill-rule="evenodd" fill-opacity="0.2"/>
<polyline clip-path="url(#clip162)" style="stroke:#000000; stroke-linecap:round; stroke-linejoin:round; stroke-width:4; stroke-opacity:0.2; fill:none" points="209.891,687.181 1171.64,1445.72 2290.34,670.876 2015.06,283.504 1860.14,87.9763 1524.97,95.6524 388.663,421.395 209.891,687.181 "/>
</svg>
