<?xml version="1.0" encoding="utf-8"?>
<svg xmlns="http://www.w3.org/2000/svg" xmlns:xlink="http://www.w3.org/1999/xlink" width="600" height="400" viewBox="0 0 2400 1600">
<defs>
  <clipPath id="clip990">
    <rect x="0" y="0" width="2400" height="1600"/>
  </clipPath>
</defs>
<path clip-path="url(#clip990)" d="M0 1600 L2400 1600 L2400 0 L0 0  Z" fill="#ffffff" fill-rule="evenodd" fill-opacity="1"/>
<defs>
  <clipPath id="clip991">
    <rect x="480" y="0" width="1681" height="1600"/>
  </clipPath>
</defs>
<path clip-path="url(#clip990)" d="M147.478 1486.45 L2352.76 1486.45 L2352.76 47.2441 L147.478 47.2441  Z" fill="#ffffff" fill-rule="evenodd" fill-opacity="1"/>
<defs>
  <clipPath id="clip992">
    <rect x="147" y="47" width="2206" height="1440"/>
  </clipPath>
</defs>
<polyline clip-path="url(#clip992)" style="stroke:#000000; stroke-linecap:round; stroke-linejoin:round; stroke-width:2; stroke-opacity:0.1; fill:none" points="476.922,1486.45 476.922,47.2441 "/>
<polyline clip-path="url(#clip992)" style="stroke:#000000; stroke-linecap:round; stroke-linejoin:round; stroke-width:2; stroke-opacity:0.1; fill:none" points="1064.99,1486.45 1064.99,47.2441 "/>
<polyline clip-path="url(#clip992)" style="stroke:#000000; stroke-linecap:round; stroke-linejoin:round; stroke-width:2; stroke-opacity:0.1; fill:none" points="1653.06,1486.45 1653.06,47.2441 "/>
<polyline clip-path="url(#clip992)" style="stroke:#000000; stroke-linecap:round; stroke-linejoin:round; stroke-width:2; stroke-opacity:0.1; fill:none" points="2241.13,1486.45 2241.13,47.2441 "/>
<polyline clip-path="url(#clip992)" style="stroke:#000000; stroke-linecap:round; stroke-linejoin:round; stroke-width:2; stroke-opacity:0.1; fill:none" points="147.478,1419.3 2352.76,1419.3 "/>
<polyline clip-path="url(#clip992)" style="stroke:#000000; stroke-linecap:round; stroke-linejoin:round; stroke-width:2; stroke-opacity:0.1; fill:none" points="147.478,1125.73 2352.76,1125.73 "/>
<polyline clip-path="url(#clip992)" style="stroke:#000000; stroke-linecap:round; stroke-linejoin:round; stroke-width:2; stroke-opacity:0.1; fill:none" points="147.478,832.161 2352.76,832.161 "/>
<polyline clip-path="url(#clip992)" style="stroke:#000000; stroke-linecap:round; stroke-linejoin:round; stroke-width:2; stroke-opacity:0.1; fill:none" points="147.478,538.592 2352.76,538.592 "/>
<polyline clip-path="url(#clip992)" style="stroke:#000000; stroke-linecap:round; stroke-linejoin:round; stroke-width:2; stroke-opacity:0.1; fill:none" points="147.478,245.023 2352.76,245.023 "/>
<polyline clip-path="url(#clip990)" style="stroke:#000000; stroke-linecap:round; stroke-linejoin:round; stroke-width:4; stroke-opacity:1; fill:none" points="147.478,1486.45 2352.76,1486.45 "/>
<polyline clip-path="url(#clip990)" style="stroke:#000000; stroke-linecap:round; stroke-linejoin:round; stroke-width:4; stroke-opacity:1; fill:none" points="476.922,1486.45 476.922,1467.55 "/>
<polyline clip-path="url(#clip990)" style="stroke:#000000; stroke-linecap:round; stroke-linejoin:round; stroke-width:4; stroke-opacity:1; fill:none" points="1064.99,1486.45 1064.99,1467.55 "/>
<polyline clip-path="url(#clip990)" style="stroke:#000000; stroke-linecap:round; stroke-linejoin:round; stroke-width:4; stroke-opacity:1; fill:none" points="1653.06,1486.45 1653.06,1467.55 "/>
<polyline clip-path="url(#clip990)" style="stroke:#000000; stroke-linecap:round; stroke-linejoin:round; stroke-width:4; stroke-opacity:1; fill:none" points="2241.13,1486.45 2241.13,1467.55 "/>
<path clip-path="url(#clip990)" d="M446.679 1532.02 L476.355 1532.02 L476.355 1535.95 L446.679 1535.95 L446.679 1532.02 Z" fill="#000000" fill-rule="nonzero" fill-opacity="1" /><path clip-path="url(#clip990)" d="M487.258 1544.91 L494.897 1544.91 L494.897 1518.55 L486.587 1520.21 L486.587 1515.95 L494.851 1514.29 L499.526 1514.29 L499.526 1544.91 L507.165 1544.91 L507.165 1548.85 L487.258 1548.85 L487.258 1544.91 Z" fill="#000000" fill-rule="nonzero" fill-opacity="1" /><path clip-path="url(#clip990)" d="M1064.99 1517.37 Q1061.38 1517.37 1059.55 1520.93 Q1057.75 1524.47 1057.75 1531.6 Q1057.75 1538.71 1059.55 1542.27 Q1061.38 1545.82 1064.99 1545.82 Q1068.63 1545.82 1070.43 1542.27 Q1072.26 1538.71 1072.26 1531.6 Q1072.26 1524.47 1070.43 1520.93 Q1068.63 1517.37 1064.99 1517.37 M1064.99 1513.66 Q1070.8 1513.66 1073.86 1518.27 Q1076.94 1522.85 1076.94 1531.6 Q1076.94 1540.33 1073.86 1544.94 Q1070.8 1549.52 1064.99 1549.52 Q1059.18 1549.52 1056.1 1544.94 Q1053.05 1540.33 1053.05 1531.6 Q1053.05 1522.85 1056.1 1518.27 Q1059.18 1513.66 1064.99 1513.66 Z" fill="#000000" fill-rule="nonzero" fill-opacity="1" /><path clip-path="url(#clip990)" d="M1643.44 1544.91 L1651.08 1544.91 L1651.08 1518.55 L1642.77 1520.21 L1642.77 1515.95 L1651.04 1514.29 L1655.71 1514.29 L1655.71 1544.91 L1663.35 1544.91 L1663.35 1548.85 L1643.44 1548.85 L1643.44 1544.91 Z" fill="#000000" fill-rule="nonzero" fill-opacity="1" /><path clip-path="url(#clip990)" d="M2235.79 1544.91 L2252.11 1544.91 L2252.11 1548.85 L2230.16 1548.85 L2230.16 1544.91 Q2232.82 1542.16 2237.41 1537.53 Q2242.01 1532.88 2243.19 1531.53 Q2245.44 1529.01 2246.32 1527.27 Q2247.22 1525.51 2247.22 1523.82 Q2247.22 1521.07 2245.28 1519.33 Q2243.36 1517.6 2240.25 1517.6 Q2238.05 1517.6 2235.6 1518.36 Q2233.17 1519.13 2230.39 1520.68 L2230.39 1515.95 Q2233.22 1514.82 2235.67 1514.24 Q2238.12 1513.66 2240.16 1513.66 Q2245.53 1513.66 2248.73 1516.35 Q2251.92 1519.03 2251.92 1523.52 Q2251.92 1525.65 2251.11 1527.57 Q2250.32 1529.47 2248.22 1532.07 Q2247.64 1532.74 2244.54 1535.95 Q2241.43 1539.15 2235.79 1544.91 Z" fill="#000000" fill-rule="nonzero" fill-opacity="1" /><polyline clip-path="url(#clip990)" style="stroke:#000000; stroke-linecap:round; stroke-linejoin:round; stroke-width:4; stroke-opacity:1; fill:none" points="147.478,1486.45 147.478,47.2441 "/>
<polyline clip-path="url(#clip990)" style="stroke:#000000; stroke-linecap:round; stroke-linejoin:round; stroke-width:4; stroke-opacity:1; fill:none" points="147.478,1419.3 166.376,1419.3 "/>
<polyline clip-path="url(#clip990)" style="stroke:#000000; stroke-linecap:round; stroke-linejoin:round; stroke-width:4; stroke-opacity:1; fill:none" points="147.478,1125.73 166.376,1125.73 "/>
<polyline clip-path="url(#clip990)" style="stroke:#000000; stroke-linecap:round; stroke-linejoin:round; stroke-width:4; stroke-opacity:1; fill:none" points="147.478,832.161 166.376,832.161 "/>
<polyline clip-path="url(#clip990)" style="stroke:#000000; stroke-linecap:round; stroke-linejoin:round; stroke-width:4; stroke-opacity:1; fill:none" points="147.478,538.592 166.376,538.592 "/>
<polyline clip-path="url(#clip990)" style="stroke:#000000; stroke-linecap:round; stroke-linejoin:round; stroke-width:4; stroke-opacity:1; fill:none" points="147.478,245.023 166.376,245.023 "/>
<path clip-path="url(#clip990)" d="M51.3625 1419.75 L81.0383 1419.75 L81.0383 1423.69 L51.3625 1423.69 L51.3625 1419.75 Z" fill="#000000" fill-rule="nonzero" fill-opacity="1" /><path clip-path="url(#clip990)" d="M95.1586 1432.64 L111.478 1432.64 L111.478 1436.58 L89.5336 1436.58 L89.5336 1432.64 Q92.1956 1429.89 96.7789 1425.26 Q101.385 1420.61 102.566 1419.26 Q104.811 1416.74 105.691 1415.01 Q106.594 1413.25 106.594 1411.56 Q106.594 1408.8 104.649 1407.07 Q102.728 1405.33 99.6261 1405.33 Q97.4271 1405.33 94.9734 1406.09 Q92.5428 1406.86 89.7651 1408.41 L89.7651 1403.69 Q92.5891 1402.55 95.0428 1401.97 Q97.4965 1401.39 99.5335 1401.39 Q104.904 1401.39 108.098 1404.08 Q111.293 1406.76 111.293 1411.26 Q111.293 1413.39 110.483 1415.31 Q109.696 1417.2 107.589 1419.8 Q107.01 1420.47 103.909 1423.69 Q100.807 1426.88 95.1586 1432.64 Z" fill="#000000" fill-rule="nonzero" fill-opacity="1" /><path clip-path="url(#clip990)" d="M50.9921 1126.18 L80.6679 1126.18 L80.6679 1130.12 L50.9921 1130.12 L50.9921 1126.18 Z" fill="#000000" fill-rule="nonzero" fill-opacity="1" /><path clip-path="url(#clip990)" d="M91.5706 1139.08 L99.2095 1139.08 L99.2095 1112.71 L90.8993 1114.38 L90.8993 1110.12 L99.1632 1108.45 L103.839 1108.45 L103.839 1139.08 L111.478 1139.08 L111.478 1143.01 L91.5706 1143.01 L91.5706 1139.08 Z" fill="#000000" fill-rule="nonzero" fill-opacity="1" /><path clip-path="url(#clip990)" d="M99.5335 817.96 Q95.9224 817.96 94.0937 821.525 Q92.2882 825.067 92.2882 832.196 Q92.2882 839.303 94.0937 842.867 Q95.9224 846.409 99.5335 846.409 Q103.168 846.409 104.973 842.867 Q106.802 839.303 106.802 832.196 Q106.802 825.067 104.973 821.525 Q103.168 817.96 99.5335 817.96 M99.5335 814.256 Q105.344 814.256 108.399 818.863 Q111.478 823.446 111.478 832.196 Q111.478 840.923 108.399 845.529 Q105.344 850.113 99.5335 850.113 Q93.7234 850.113 90.6447 845.529 Q87.5892 840.923 87.5892 832.196 Q87.5892 823.446 90.6447 818.863 Q93.7234 814.256 99.5335 814.256 Z" fill="#000000" fill-rule="nonzero" fill-opacity="1" /><path clip-path="url(#clip990)" d="M91.5706 551.937 L99.2095 551.937 L99.2095 525.572 L90.8993 527.238 L90.8993 522.979 L99.1632 521.312 L103.839 521.312 L103.839 551.937 L111.478 551.937 L111.478 555.872 L91.5706 555.872 L91.5706 551.937 Z" fill="#000000" fill-rule="nonzero" fill-opacity="1" /><path clip-path="url(#clip990)" d="M95.1586 258.368 L111.478 258.368 L111.478 262.303 L89.5336 262.303 L89.5336 258.368 Q92.1956 255.614 96.7789 250.984 Q101.385 246.331 102.566 244.989 Q104.811 242.465 105.691 240.729 Q106.594 238.97 106.594 237.28 Q106.594 234.526 104.649 232.79 Q102.728 231.053 99.6261 231.053 Q97.4271 231.053 94.9734 231.817 Q92.5428 232.581 89.7651 234.132 L89.7651 229.41 Q92.5891 228.276 95.0428 227.697 Q97.4965 227.118 99.5335 227.118 Q104.904 227.118 108.098 229.803 Q111.293 232.489 111.293 236.979 Q111.293 239.109 110.483 241.03 Q109.696 242.928 107.589 245.521 Q107.01 246.192 103.909 249.41 Q100.807 252.604 95.1586 258.368 Z" fill="#000000" fill-rule="nonzero" fill-opacity="1" /><circle clip-path="url(#clip992)" cx="519.353" cy="1069.41" r="14.4" fill="#009af9" fill-rule="evenodd" fill-opacity="0.5" stroke="#000000" stroke-opacity="0.5" stroke-width="3.2"/>
<circle clip-path="url(#clip992)" cx="380.792" cy="642.765" r="14.4" fill="#009af9" fill-rule="evenodd" fill-opacity="0.5" stroke="#000000" stroke-opacity="0.5" stroke-width="3.2"/>
<circle clip-path="url(#clip992)" cx="791.003" cy="616.03" r="14.4" fill="#009af9" fill-rule="evenodd" fill-opacity="0.5" stroke="#000000" stroke-opacity="0.5" stroke-width="3.2"/>
<circle clip-path="url(#clip992)" cx="938.857" cy="944.039" r="14.4" fill="#009af9" fill-rule="evenodd" fill-opacity="0.5" stroke="#000000" stroke-opacity="0.5" stroke-width="3.2"/>
<circle clip-path="url(#clip992)" cx="209.891" cy="1172.36" r="14.4" fill="#009af9" fill-rule="evenodd" fill-opacity="0.5" stroke="#000000" stroke-opacity="0.5" stroke-width="3.2"/>
<circle clip-path="url(#clip992)" cx="1279.81" cy="901.539" r="14.4" fill="#009af9" fill-rule="evenodd" fill-opacity="0.5" stroke="#000000" stroke-opacity="0.5" stroke-width="3.2"/>
<circle clip-path="url(#clip992)" cx="1509.43" cy="1174.88" r="14.4" fill="#009af9" fill-rule="evenodd" fill-opacity="0.5" stroke="#000000" stroke-opacity="0.5" stroke-width="3.2"/>
<circle clip-path="url(#clip992)" cx="311.244" cy="1075.13" r="14.4" fill="#009af9" fill-rule="evenodd" fill-opacity="0.5" stroke="#000000" stroke-opacity="0.5" stroke-width="3.2"/>
<circle clip-path="url(#clip992)" cx="1592.09" cy="1445.72" r="14.4" fill="#009af9" fill-rule="evenodd" fill-opacity="0.5" stroke="#000000" stroke-opacity="0.5" stroke-width="3.2"/>
<circle clip-path="url(#clip992)" cx="937.086" cy="301.338" r="14.4" fill="#009af9" fill-rule="evenodd" fill-opacity="0.5" stroke="#000000" stroke-opacity="0.5" stroke-width="3.2"/>
<circle clip-path="url(#clip992)" cx="966.491" cy="986.563" r="14.4" fill="#009af9" fill-rule="evenodd" fill-opacity="0.5" stroke="#000000" stroke-opacity="0.5" stroke-width="3.2"/>
<circle clip-path="url(#clip992)" cx="1406.25" cy="967.261" r="14.4" fill="#009af9" fill-rule="evenodd" fill-opacity="0.5" stroke="#000000" stroke-opacity="0.5" stroke-width="3.2"/>
<circle clip-path="url(#clip992)" cx="791.924" cy="376.968" r="14.4" fill="#009af9" fill-rule="evenodd" fill-opacity="0.5" stroke="#000000" stroke-opacity="0.5" stroke-width="3.2"/>
<circle clip-path="url(#clip992)" cx="1230.2" cy="432.616" r="14.4" fill="#009af9" fill-rule="evenodd" fill-opacity="0.5" stroke="#000000" stroke-opacity="0.5" stroke-width="3.2"/>
<circle clip-path="url(#clip992)" cx="1036.25" cy="1092.56" r="14.4" fill="#009af9" fill-rule="evenodd" fill-opacity="0.5" stroke="#000000" stroke-opacity="0.5" stroke-width="3.2"/>
<circle clip-path="url(#clip992)" cx="1426.29" cy="608.912" r="14.4" fill="#009af9" fill-rule="evenodd" fill-opacity="0.5" stroke="#000000" stroke-opacity="0.5" stroke-width="3.2"/>
<circle clip-path="url(#clip992)" cx="1305.92" cy="628.626" r="14.4" fill="#009af9" fill-rule="evenodd" fill-opacity="0.5" stroke="#000000" stroke-opacity="0.5" stroke-width="3.2"/>
<circle clip-path="url(#clip992)" cx="1181.27" cy="577.472" r="14.4" fill="#009af9" fill-rule="evenodd" fill-opacity="0.5" stroke="#000000" stroke-opacity="0.5" stroke-width="3.2"/>
<circle clip-path="url(#clip992)" cx="2041.03" cy="838.642" r="14.4" fill="#009af9" fill-rule="evenodd" fill-opacity="0.5" stroke="#000000" stroke-opacity="0.5" stroke-width="3.2"/>
<circle clip-path="url(#clip992)" cx="247.656" cy="1408.09" r="14.4" fill="#009af9" fill-rule="evenodd" fill-opacity="0.5" stroke="#000000" stroke-opacity="0.5" stroke-width="3.2"/>
<circle clip-path="url(#clip992)" cx="2290.34" cy="491.264" r="14.4" fill="#009af9" fill-rule="evenodd" fill-opacity="0.5" stroke="#000000" stroke-opacity="0.5" stroke-width="3.2"/>
<circle clip-path="url(#clip992)" cx="1353.44" cy="701.945" r="14.4" fill="#009af9" fill-rule="evenodd" fill-opacity="0.5" stroke="#000000" stroke-opacity="0.5" stroke-width="3.2"/>
<circle clip-path="url(#clip992)" cx="1580.7" cy="585.633" r="14.4" fill="#009af9" fill-rule="evenodd" fill-opacity="0.5" stroke="#000000" stroke-opacity="0.5" stroke-width="3.2"/>
<circle clip-path="url(#clip992)" cx="380.441" cy="860.558" r="14.4" fill="#009af9" fill-rule="evenodd" fill-opacity="0.5" stroke="#000000" stroke-opacity="0.5" stroke-width="3.2"/>
<circle clip-path="url(#clip992)" cx="1451.88" cy="1042.32" r="14.4" fill="#009af9" fill-rule="evenodd" fill-opacity="0.5" stroke="#000000" stroke-opacity="0.5" stroke-width="3.2"/>
<circle clip-path="url(#clip992)" cx="1113.44" cy="739.263" r="14.4" fill="#009af9" fill-rule="evenodd" fill-opacity="0.5" stroke="#000000" stroke-opacity="0.5" stroke-width="3.2"/>
<circle clip-path="url(#clip992)" cx="313.946" cy="87.9763" r="14.4" fill="#009af9" fill-rule="evenodd" fill-opacity="0.5" stroke="#000000" stroke-opacity="0.5" stroke-width="3.2"/>
<circle clip-path="url(#clip992)" cx="1099.01" cy="338.24" r="14.4" fill="#009af9" fill-rule="evenodd" fill-opacity="0.5" stroke="#000000" stroke-opacity="0.5" stroke-width="3.2"/>
<circle clip-path="url(#clip992)" cx="1089.31" cy="1054.43" r="14.4" fill="#009af9" fill-rule="evenodd" fill-opacity="0.5" stroke="#000000" stroke-opacity="0.5" stroke-width="3.2"/>
<circle clip-path="url(#clip992)" cx="952.22" cy="1187.26" r="14.4" fill="#009af9" fill-rule="evenodd" fill-opacity="0.5" stroke="#000000" stroke-opacity="0.5" stroke-width="3.2"/>
<path clip-path="url(#clip992)" d="M209.891 1172.36 L247.656 1408.09 L1592.09 1445.72 L2041.03 838.642 L2290.34 491.264 L313.946 87.9763 L209.891 1172.36 L209.891 1172.36  Z" fill="#e26f46" fill-rule="evenodd" fill-opacity="0.2"/>
<polyline clip-path="url(#clip992)" style="stroke:#000000; stroke-linecap:round; stroke-linejoin:round; stroke-width:4; stroke-opacity:0.2; fill:none" points="209.891,1172.36 247.656,1408.09 1592.09,1445.72 2041.03,838.642 2290.34,491.264 313.946,87.9763 209.891,1172.36 "/>
</svg>
