<?xml version="1.0" encoding="utf-8"?>
<svg xmlns="http://www.w3.org/2000/svg" xmlns:xlink="http://www.w3.org/1999/xlink" width="600" height="400" viewBox="0 0 2400 1600">
<defs>
  <clipPath id="clip130">
    <rect x="0" y="0" width="2400" height="1600"/>
  </clipPath>
</defs>
<path clip-path="url(#clip130)" d="M0 1600 L2400 1600 L2400 0 L0 0  Z" fill="#ffffff" fill-rule="evenodd" fill-opacity="1"/>
<defs>
  <clipPath id="clip131">
    <rect x="480" y="0" width="1681" height="1600"/>
  </clipPath>
</defs>
<path clip-path="url(#clip130)" d="M147.478 1486.45 L2352.76 1486.45 L2352.76 47.2441 L147.478 47.2441  Z" fill="#ffffff" fill-rule="evenodd" fill-opacity="1"/>
<defs>
  <clipPath id="clip132">
    <rect x="147" y="47" width="2206" height="1440"/>
  </clipPath>
</defs>
<polyline clip-path="url(#clip132)" style="stroke:#000000; stroke-linecap:round; stroke-linejoin:round; stroke-width:2; stroke-opacity:0.1; fill:none" points="281.41,1486.45 281.41,47.2441 "/>
<polyline clip-path="url(#clip132)" style="stroke:#000000; stroke-linecap:round; stroke-linejoin:round; stroke-width:2; stroke-opacity:0.1; fill:none" points="725.67,1486.45 725.67,47.2441 "/>
<polyline clip-path="url(#clip132)" style="stroke:#000000; stroke-linecap:round; stroke-linejoin:round; stroke-width:2; stroke-opacity:0.1; fill:none" points="1169.93,1486.45 1169.93,47.2441 "/>
<polyline clip-path="url(#clip132)" style="stroke:#000000; stroke-linecap:round; stroke-linejoin:round; stroke-width:2; stroke-opacity:0.1; fill:none" points="1614.19,1486.45 1614.19,47.2441 "/>
<polyline clip-path="url(#clip132)" style="stroke:#000000; stroke-linecap:round; stroke-linejoin:round; stroke-width:2; stroke-opacity:0.1; fill:none" points="2058.45,1486.45 2058.45,47.2441 "/>
<polyline clip-path="url(#clip132)" style="stroke:#000000; stroke-linecap:round; stroke-linejoin:round; stroke-width:2; stroke-opacity:0.1; fill:none" points="147.478,1233.03 2352.76,1233.03 "/>
<polyline clip-path="url(#clip132)" style="stroke:#000000; stroke-linecap:round; stroke-linejoin:round; stroke-width:2; stroke-opacity:0.1; fill:none" points="147.478,855.329 2352.76,855.329 "/>
<polyline clip-path="url(#clip132)" style="stroke:#000000; stroke-linecap:round; stroke-linejoin:round; stroke-width:2; stroke-opacity:0.1; fill:none" points="147.478,477.632 2352.76,477.632 "/>
<polyline clip-path="url(#clip132)" style="stroke:#000000; stroke-linecap:round; stroke-linejoin:round; stroke-width:2; stroke-opacity:0.1; fill:none" points="147.478,99.9352 2352.76,99.9352 "/>
<polyline clip-path="url(#clip130)" style="stroke:#000000; stroke-linecap:round; stroke-linejoin:round; stroke-width:4; stroke-opacity:1; fill:none" points="147.478,1486.45 2352.76,1486.45 "/>
<polyline clip-path="url(#clip130)" style="stroke:#000000; stroke-linecap:round; stroke-linejoin:round; stroke-width:4; stroke-opacity:1; fill:none" points="281.41,1486.45 281.41,1467.55 "/>
<polyline clip-path="url(#clip130)" style="stroke:#000000; stroke-linecap:round; stroke-linejoin:round; stroke-width:4; stroke-opacity:1; fill:none" points="725.67,1486.45 725.67,1467.55 "/>
<polyline clip-path="url(#clip130)" style="stroke:#000000; stroke-linecap:round; stroke-linejoin:round; stroke-width:4; stroke-opacity:1; fill:none" points="1169.93,1486.45 1169.93,1467.55 "/>
<polyline clip-path="url(#clip130)" style="stroke:#000000; stroke-linecap:round; stroke-linejoin:round; stroke-width:4; stroke-opacity:1; fill:none" points="1614.19,1486.45 1614.19,1467.55 "/>
<polyline clip-path="url(#clip130)" style="stroke:#000000; stroke-linecap:round; stroke-linejoin:round; stroke-width:4; stroke-opacity:1; fill:none" points="2058.45,1486.45 2058.45,1467.55 "/>
<path clip-path="url(#clip130)" d="M250.878 1532.02 L280.553 1532.02 L280.553 1535.95 L250.878 1535.95 L250.878 1532.02 Z" fill="#000000" fill-rule="nonzero" fill-opacity="1" /><path clip-path="url(#clip130)" d="M304.812 1530.21 Q308.169 1530.93 310.044 1533.2 Q311.942 1535.47 311.942 1538.8 Q311.942 1543.92 308.424 1546.72 Q304.905 1549.52 298.424 1549.52 Q296.248 1549.52 293.933 1549.08 Q291.641 1548.66 289.188 1547.81 L289.188 1543.29 Q291.132 1544.43 293.447 1545.01 Q295.762 1545.58 298.285 1545.58 Q302.683 1545.58 304.974 1543.85 Q307.289 1542.11 307.289 1538.8 Q307.289 1535.75 305.137 1534.03 Q303.007 1532.3 299.187 1532.3 L295.16 1532.3 L295.16 1528.45 L299.373 1528.45 Q302.822 1528.45 304.65 1527.09 Q306.479 1525.7 306.479 1523.11 Q306.479 1520.45 304.581 1519.03 Q302.706 1517.6 299.187 1517.6 Q297.266 1517.6 295.067 1518.01 Q292.868 1518.43 290.229 1519.31 L290.229 1515.14 Q292.891 1514.4 295.206 1514.03 Q297.544 1513.66 299.604 1513.66 Q304.928 1513.66 308.03 1516.09 Q311.132 1518.5 311.132 1522.62 Q311.132 1525.49 309.488 1527.48 Q307.845 1529.45 304.812 1530.21 Z" fill="#000000" fill-rule="nonzero" fill-opacity="1" /><path clip-path="url(#clip130)" d="M695.612 1532.02 L725.288 1532.02 L725.288 1535.95 L695.612 1535.95 L695.612 1532.02 Z" fill="#000000" fill-rule="nonzero" fill-opacity="1" /><path clip-path="url(#clip130)" d="M739.408 1544.91 L755.727 1544.91 L755.727 1548.85 L733.783 1548.85 L733.783 1544.91 Q736.445 1542.16 741.028 1537.53 Q745.635 1532.88 746.815 1531.53 Q749.061 1529.01 749.94 1527.27 Q750.843 1525.51 750.843 1523.82 Q750.843 1521.07 748.899 1519.33 Q746.977 1517.6 743.876 1517.6 Q741.677 1517.6 739.223 1518.36 Q736.792 1519.13 734.015 1520.68 L734.015 1515.95 Q736.839 1514.82 739.292 1514.24 Q741.746 1513.66 743.783 1513.66 Q749.153 1513.66 752.348 1516.35 Q755.542 1519.03 755.542 1523.52 Q755.542 1525.65 754.732 1527.57 Q753.945 1529.47 751.839 1532.07 Q751.26 1532.74 748.158 1535.95 Q745.056 1539.15 739.408 1544.91 Z" fill="#000000" fill-rule="nonzero" fill-opacity="1" /><path clip-path="url(#clip130)" d="M1139.69 1532.02 L1169.36 1532.02 L1169.36 1535.95 L1139.69 1535.95 L1139.69 1532.02 Z" fill="#000000" fill-rule="nonzero" fill-opacity="1" /><path clip-path="url(#clip130)" d="M1180.27 1544.91 L1187.9 1544.91 L1187.9 1518.55 L1179.59 1520.21 L1179.59 1515.95 L1187.86 1514.29 L1192.53 1514.29 L1192.53 1544.91 L1200.17 1544.91 L1200.17 1548.85 L1180.27 1548.85 L1180.27 1544.91 Z" fill="#000000" fill-rule="nonzero" fill-opacity="1" /><path clip-path="url(#clip130)" d="M1614.19 1517.37 Q1610.58 1517.37 1608.75 1520.93 Q1606.94 1524.47 1606.94 1531.6 Q1606.94 1538.71 1608.75 1542.27 Q1610.58 1545.82 1614.19 1545.82 Q1617.82 1545.82 1619.63 1542.27 Q1621.46 1538.71 1621.46 1531.6 Q1621.46 1524.47 1619.63 1520.93 Q1617.82 1517.37 1614.19 1517.37 M1614.19 1513.66 Q1620 1513.66 1623.06 1518.27 Q1626.13 1522.85 1626.13 1531.6 Q1626.13 1540.33 1623.06 1544.94 Q1620 1549.52 1614.19 1549.52 Q1608.38 1549.52 1605.3 1544.94 Q1602.25 1540.33 1602.25 1531.6 Q1602.25 1522.85 1605.3 1518.27 Q1608.38 1513.66 1614.19 1513.66 Z" fill="#000000" fill-rule="nonzero" fill-opacity="1" /><path clip-path="url(#clip130)" d="M2048.83 1544.91 L2056.47 1544.91 L2056.47 1518.55 L2048.16 1520.21 L2048.16 1515.95 L2056.42 1514.29 L2061.1 1514.29 L2061.1 1544.91 L2068.74 1544.91 L2068.74 1548.85 L2048.83 1548.85 L2048.83 1544.91 Z" fill="#000000" fill-rule="nonzero" fill-opacity="1" /><polyline clip-path="url(#clip130)" style="stroke:#000000; stroke-linecap:round; stroke-linejoin:round; stroke-width:4; stroke-opacity:1; fill:none" points="147.478,1486.45 147.478,47.2441 "/>
<polyline clip-path="url(#clip130)" style="stroke:#000000; stroke-linecap:round; stroke-linejoin:round; stroke-width:4; stroke-opacity:1; fill:none" points="147.478,1233.03 166.376,1233.03 "/>
<polyline clip-path="url(#clip130)" style="stroke:#000000; stroke-linecap:round; stroke-linejoin:round; stroke-width:4; stroke-opacity:1; fill:none" points="147.478,855.329 166.376,855.329 "/>
<polyline clip-path="url(#clip130)" style="stroke:#000000; stroke-linecap:round; stroke-linejoin:round; stroke-width:4; stroke-opacity:1; fill:none" points="147.478,477.632 166.376,477.632 "/>
<polyline clip-path="url(#clip130)" style="stroke:#000000; stroke-linecap:round; stroke-linejoin:round; stroke-width:4; stroke-opacity:1; fill:none" points="147.478,99.9352 166.376,99.9352 "/>
<path clip-path="url(#clip130)" d="M50.9921 1233.48 L80.6679 1233.48 L80.6679 1237.41 L50.9921 1237.41 L50.9921 1233.48 Z" fill="#000000" fill-rule="nonzero" fill-opacity="1" /><path clip-path="url(#clip130)" d="M91.5706 1246.37 L99.2095 1246.37 L99.2095 1220.01 L90.8993 1221.67 L90.8993 1217.41 L99.1632 1215.75 L103.839 1215.75 L103.839 1246.37 L111.478 1246.37 L111.478 1250.31 L91.5706 1250.31 L91.5706 1246.37 Z" fill="#000000" fill-rule="nonzero" fill-opacity="1" /><path clip-path="url(#clip130)" d="M99.5335 841.128 Q95.9224 841.128 94.0937 844.693 Q92.2882 848.235 92.2882 855.364 Q92.2882 862.471 94.0937 866.035 Q95.9224 869.577 99.5335 869.577 Q103.168 869.577 104.973 866.035 Q106.802 862.471 106.802 855.364 Q106.802 848.235 104.973 844.693 Q103.168 841.128 99.5335 841.128 M99.5335 837.424 Q105.344 837.424 108.399 842.031 Q111.478 846.614 111.478 855.364 Q111.478 864.091 108.399 868.697 Q105.344 873.281 99.5335 873.281 Q93.7234 873.281 90.6447 868.697 Q87.5892 864.091 87.5892 855.364 Q87.5892 846.614 90.6447 842.031 Q93.7234 837.424 99.5335 837.424 Z" fill="#000000" fill-rule="nonzero" fill-opacity="1" /><path clip-path="url(#clip130)" d="M91.5706 490.977 L99.2095 490.977 L99.2095 464.612 L90.8993 466.278 L90.8993 462.019 L99.1632 460.352 L103.839 460.352 L103.839 490.977 L111.478 490.977 L111.478 494.912 L91.5706 494.912 L91.5706 490.977 Z" fill="#000000" fill-rule="nonzero" fill-opacity="1" /><path clip-path="url(#clip130)" d="M95.1586 113.28 L111.478 113.28 L111.478 117.215 L89.5336 117.215 L89.5336 113.28 Q92.1956 110.525 96.7789 105.896 Q101.385 101.243 102.566 99.9004 Q104.811 97.3773 105.691 95.6412 Q106.594 93.8819 106.594 92.1921 Q106.594 89.4375 104.649 87.7014 Q102.728 85.9653 99.6261 85.9653 Q97.4271 85.9653 94.9734 86.7292 Q92.5428 87.4931 89.7651 89.044 L89.7651 84.3218 Q92.5891 83.1876 95.0428 82.6089 Q97.4965 82.0302 99.5335 82.0302 Q104.904 82.0302 108.098 84.7153 Q111.293 87.4005 111.293 91.8912 Q111.293 94.0208 110.483 95.9421 Q109.696 97.8403 107.589 100.433 Q107.01 101.104 103.909 104.322 Q100.807 107.516 95.1586 113.28 Z" fill="#000000" fill-rule="nonzero" fill-opacity="1" /><circle clip-path="url(#clip132)" cx="1164.07" cy="1170.84" r="14.4" fill="#009af9" fill-rule="evenodd" fill-opacity="0.5" stroke="#000000" stroke-opacity="0.5" stroke-width="3.2"/>
<circle clip-path="url(#clip132)" cx="1586.72" cy="234.213" r="14.4" fill="#009af9" fill-rule="evenodd" fill-opacity="0.5" stroke="#000000" stroke-opacity="0.5" stroke-width="3.2"/>
<circle clip-path="url(#clip132)" cx="2112.52" cy="959.429" r="14.4" fill="#009af9" fill-rule="evenodd" fill-opacity="0.5" stroke="#000000" stroke-opacity="0.5" stroke-width="3.2"/>
<circle clip-path="url(#clip132)" cx="1828.13" cy="733.849" r="14.4" fill="#009af9" fill-rule="evenodd" fill-opacity="0.5" stroke="#000000" stroke-opacity="0.5" stroke-width="3.2"/>
<circle clip-path="url(#clip132)" cx="1881.95" cy="812.044" r="14.4" fill="#009af9" fill-rule="evenodd" fill-opacity="0.5" stroke="#000000" stroke-opacity="0.5" stroke-width="3.2"/>
<circle clip-path="url(#clip132)" cx="1013.95" cy="1213.97" r="14.4" fill="#009af9" fill-rule="evenodd" fill-opacity="0.5" stroke="#000000" stroke-opacity="0.5" stroke-width="3.2"/>
<circle clip-path="url(#clip132)" cx="1334.69" cy="622.299" r="14.4" fill="#009af9" fill-rule="evenodd" fill-opacity="0.5" stroke="#000000" stroke-opacity="0.5" stroke-width="3.2"/>
<circle clip-path="url(#clip132)" cx="2029.55" cy="852.534" r="14.4" fill="#009af9" fill-rule="evenodd" fill-opacity="0.5" stroke="#000000" stroke-opacity="0.5" stroke-width="3.2"/>
<circle clip-path="url(#clip132)" cx="1612.1" cy="1062.69" r="14.4" fill="#009af9" fill-rule="evenodd" fill-opacity="0.5" stroke="#000000" stroke-opacity="0.5" stroke-width="3.2"/>
<circle clip-path="url(#clip132)" cx="1434.28" cy="778.422" r="14.4" fill="#009af9" fill-rule="evenodd" fill-opacity="0.5" stroke="#000000" stroke-opacity="0.5" stroke-width="3.2"/>
<circle clip-path="url(#clip132)" cx="1361.88" cy="679.097" r="14.4" fill="#009af9" fill-rule="evenodd" fill-opacity="0.5" stroke="#000000" stroke-opacity="0.5" stroke-width="3.2"/>
<circle clip-path="url(#clip132)" cx="1741.23" cy="1091.74" r="14.4" fill="#009af9" fill-rule="evenodd" fill-opacity="0.5" stroke="#000000" stroke-opacity="0.5" stroke-width="3.2"/>
<circle clip-path="url(#clip132)" cx="1659.17" cy="809.261" r="14.4" fill="#009af9" fill-rule="evenodd" fill-opacity="0.5" stroke="#000000" stroke-opacity="0.5" stroke-width="3.2"/>
<circle clip-path="url(#clip132)" cx="209.891" cy="579.223" r="14.4" fill="#009af9" fill-rule="evenodd" fill-opacity="0.5" stroke="#000000" stroke-opacity="0.5" stroke-width="3.2"/>
<circle clip-path="url(#clip132)" cx="1515.25" cy="986.8" r="14.4" fill="#009af9" fill-rule="evenodd" fill-opacity="0.5" stroke="#000000" stroke-opacity="0.5" stroke-width="3.2"/>
<circle clip-path="url(#clip132)" cx="2006.92" cy="493.827" r="14.4" fill="#009af9" fill-rule="evenodd" fill-opacity="0.5" stroke="#000000" stroke-opacity="0.5" stroke-width="3.2"/>
<circle clip-path="url(#clip132)" cx="1377.98" cy="1187.85" r="14.4" fill="#009af9" fill-rule="evenodd" fill-opacity="0.5" stroke="#000000" stroke-opacity="0.5" stroke-width="3.2"/>
<circle clip-path="url(#clip132)" cx="2290.16" cy="1445.72" r="14.4" fill="#009af9" fill-rule="evenodd" fill-opacity="0.5" stroke="#000000" stroke-opacity="0.5" stroke-width="3.2"/>
<circle clip-path="url(#clip132)" cx="2150.65" cy="932.959" r="14.4" fill="#009af9" fill-rule="evenodd" fill-opacity="0.5" stroke="#000000" stroke-opacity="0.5" stroke-width="3.2"/>
<circle clip-path="url(#clip132)" cx="1418.75" cy="553.667" r="14.4" fill="#009af9" fill-rule="evenodd" fill-opacity="0.5" stroke="#000000" stroke-opacity="0.5" stroke-width="3.2"/>
<circle clip-path="url(#clip132)" cx="1717.59" cy="196.316" r="14.4" fill="#009af9" fill-rule="evenodd" fill-opacity="0.5" stroke="#000000" stroke-opacity="0.5" stroke-width="3.2"/>
<circle clip-path="url(#clip132)" cx="1756.83" cy="1030.9" r="14.4" fill="#009af9" fill-rule="evenodd" fill-opacity="0.5" stroke="#000000" stroke-opacity="0.5" stroke-width="3.2"/>
<circle clip-path="url(#clip132)" cx="1737.94" cy="546.013" r="14.4" fill="#009af9" fill-rule="evenodd" fill-opacity="0.5" stroke="#000000" stroke-opacity="0.5" stroke-width="3.2"/>
<circle clip-path="url(#clip132)" cx="2082.21" cy="1047.8" r="14.4" fill="#009af9" fill-rule="evenodd" fill-opacity="0.5" stroke="#000000" stroke-opacity="0.5" stroke-width="3.2"/>
<circle clip-path="url(#clip132)" cx="2290.34" cy="1367.11" r="14.4" fill="#009af9" fill-rule="evenodd" fill-opacity="0.5" stroke="#000000" stroke-opacity="0.5" stroke-width="3.2"/>
<circle clip-path="url(#clip132)" cx="1274.73" cy="1092.6" r="14.4" fill="#009af9" fill-rule="evenodd" fill-opacity="0.5" stroke="#000000" stroke-opacity="0.5" stroke-width="3.2"/>
<circle clip-path="url(#clip132)" cx="2055" cy="894.018" r="14.4" fill="#009af9" fill-rule="evenodd" fill-opacity="0.5" stroke="#000000" stroke-opacity="0.5" stroke-width="3.2"/>
<circle clip-path="url(#clip132)" cx="2289.69" cy="1290.6" r="14.4" fill="#009af9" fill-rule="evenodd" fill-opacity="0.5" stroke="#000000" stroke-opacity="0.5" stroke-width="3.2"/>
<circle clip-path="url(#clip132)" cx="2086.89" cy="1189.81" r="14.4" fill="#009af9" fill-rule="evenodd" fill-opacity="0.5" stroke="#000000" stroke-opacity="0.5" stroke-width="3.2"/>
<circle clip-path="url(#clip132)" cx="1794.63" cy="87.9763" r="14.4" fill="#009af9" fill-rule="evenodd" fill-opacity="0.5" stroke="#000000" stroke-opacity="0.5" stroke-width="3.2"/>
<path clip-path="url(#clip132)" d="M209.891 579.223 L1013.95 1213.97 L2290.16 1445.72 L2290.34 1367.11 L2289.69 1290.6 L2006.92 493.827 L1794.63 87.9763 L209.891 579.223 L209.891 579.223  Z" fill="#e26f46" fill-rule="evenodd" fill-opacity="0.2"/>
<polyline clip-path="url(#clip132)" style="stroke:#000000; stroke-linecap:round; stroke-linejoin:round; stroke-width:4; stroke-opacity:0.2; fill:none" points="209.891,579.223 1013.95,1213.97 2290.16,1445.72 2290.34,1367.11 2289.69,1290.6 2006.92,493.827 1794.63,87.9763 209.891,579.223 "/>
</svg>
