<?xml version="1.0" encoding="utf-8"?>
<svg xmlns="http://www.w3.org/2000/svg" xmlns:xlink="http://www.w3.org/1999/xlink" width="600" height="400" viewBox="0 0 2400 1600">
<defs>
  <clipPath id="clip800">
    <rect x="0" y="0" width="2400" height="1600"/>
  </clipPath>
</defs>
<path clip-path="url(#clip800)" d="M0 1600 L2400 1600 L2400 0 L0 0  Z" fill="#ffffff" fill-rule="evenodd" fill-opacity="1"/>
<defs>
  <clipPath id="clip801">
    <rect x="147" y="47" width="2206" height="1440"/>
  </clipPath>
</defs>
<path clip-path="url(#clip800)" d="M147.478 1486.45 L2352.76 1486.45 L2352.76 47.2441 L147.478 47.2441  Z" fill="#ffffff" fill-rule="evenodd" fill-opacity="1"/>
<polyline clip-path="url(#clip801)" style="stroke:#000000; stroke-linecap:round; stroke-linejoin:round; stroke-width:2; stroke-opacity:0.1; fill:none" points="349.783,1486.45 349.783,47.2441 "/>
<polyline clip-path="url(#clip801)" style="stroke:#000000; stroke-linecap:round; stroke-linejoin:round; stroke-width:2; stroke-opacity:0.1; fill:none" points="932.123,1486.45 932.123,47.2441 "/>
<polyline clip-path="url(#clip801)" style="stroke:#000000; stroke-linecap:round; stroke-linejoin:round; stroke-width:2; stroke-opacity:0.1; fill:none" points="1514.46,1486.45 1514.46,47.2441 "/>
<polyline clip-path="url(#clip801)" style="stroke:#000000; stroke-linecap:round; stroke-linejoin:round; stroke-width:2; stroke-opacity:0.1; fill:none" points="2096.8,1486.45 2096.8,47.2441 "/>
<polyline clip-path="url(#clip801)" style="stroke:#000000; stroke-linecap:round; stroke-linejoin:round; stroke-width:2; stroke-opacity:0.1; fill:none" points="147.478,1464 2352.76,1464 "/>
<polyline clip-path="url(#clip801)" style="stroke:#000000; stroke-linecap:round; stroke-linejoin:round; stroke-width:2; stroke-opacity:0.1; fill:none" points="147.478,1154.07 2352.76,1154.07 "/>
<polyline clip-path="url(#clip801)" style="stroke:#000000; stroke-linecap:round; stroke-linejoin:round; stroke-width:2; stroke-opacity:0.1; fill:none" points="147.478,844.136 2352.76,844.136 "/>
<polyline clip-path="url(#clip801)" style="stroke:#000000; stroke-linecap:round; stroke-linejoin:round; stroke-width:2; stroke-opacity:0.1; fill:none" points="147.478,534.204 2352.76,534.204 "/>
<polyline clip-path="url(#clip801)" style="stroke:#000000; stroke-linecap:round; stroke-linejoin:round; stroke-width:2; stroke-opacity:0.1; fill:none" points="147.478,224.272 2352.76,224.272 "/>
<polyline clip-path="url(#clip800)" style="stroke:#000000; stroke-linecap:round; stroke-linejoin:round; stroke-width:4; stroke-opacity:1; fill:none" points="147.478,1486.45 2352.76,1486.45 "/>
<polyline clip-path="url(#clip800)" style="stroke:#000000; stroke-linecap:round; stroke-linejoin:round; stroke-width:4; stroke-opacity:1; fill:none" points="349.783,1486.45 349.783,1467.55 "/>
<polyline clip-path="url(#clip800)" style="stroke:#000000; stroke-linecap:round; stroke-linejoin:round; stroke-width:4; stroke-opacity:1; fill:none" points="932.123,1486.45 932.123,1467.55 "/>
<polyline clip-path="url(#clip800)" style="stroke:#000000; stroke-linecap:round; stroke-linejoin:round; stroke-width:4; stroke-opacity:1; fill:none" points="1514.46,1486.45 1514.46,1467.55 "/>
<polyline clip-path="url(#clip800)" style="stroke:#000000; stroke-linecap:round; stroke-linejoin:round; stroke-width:4; stroke-opacity:1; fill:none" points="2096.8,1486.45 2096.8,1467.55 "/>
<path clip-path="url(#clip800)" d="M319.54 1532.02 L349.216 1532.02 L349.216 1535.95 L319.54 1535.95 L319.54 1532.02 Z" fill="#000000" fill-rule="nonzero" fill-opacity="1" /><path clip-path="url(#clip800)" d="M360.118 1544.91 L367.757 1544.91 L367.757 1518.55 L359.447 1520.21 L359.447 1515.95 L367.711 1514.29 L372.387 1514.29 L372.387 1544.91 L380.026 1544.91 L380.026 1548.85 L360.118 1548.85 L360.118 1544.91 Z" fill="#000000" fill-rule="nonzero" fill-opacity="1" /><path clip-path="url(#clip800)" d="M932.123 1517.37 Q928.512 1517.37 926.683 1520.93 Q924.878 1524.47 924.878 1531.6 Q924.878 1538.71 926.683 1542.27 Q928.512 1545.82 932.123 1545.82 Q935.757 1545.82 937.563 1542.27 Q939.392 1538.71 939.392 1531.6 Q939.392 1524.47 937.563 1520.93 Q935.757 1517.37 932.123 1517.37 M932.123 1513.66 Q937.933 1513.66 940.989 1518.27 Q944.068 1522.85 944.068 1531.6 Q944.068 1540.33 940.989 1544.94 Q937.933 1549.52 932.123 1549.52 Q926.313 1549.52 923.234 1544.94 Q920.179 1540.33 920.179 1531.6 Q920.179 1522.85 923.234 1518.27 Q926.313 1513.66 932.123 1513.66 Z" fill="#000000" fill-rule="nonzero" fill-opacity="1" /><path clip-path="url(#clip800)" d="M1504.85 1544.91 L1512.48 1544.91 L1512.48 1518.55 L1504.17 1520.21 L1504.17 1515.95 L1512.44 1514.29 L1517.11 1514.29 L1517.11 1544.91 L1524.75 1544.91 L1524.75 1548.85 L1504.85 1548.85 L1504.85 1544.91 Z" fill="#000000" fill-rule="nonzero" fill-opacity="1" /><path clip-path="url(#clip800)" d="M2091.46 1544.91 L2107.78 1544.91 L2107.78 1548.85 L2085.83 1548.85 L2085.83 1544.91 Q2088.49 1542.16 2093.08 1537.53 Q2097.68 1532.88 2098.86 1531.53 Q2101.11 1529.01 2101.99 1527.27 Q2102.89 1525.51 2102.89 1523.82 Q2102.89 1521.07 2100.95 1519.33 Q2099.03 1517.6 2095.92 1517.6 Q2093.73 1517.6 2091.27 1518.36 Q2088.84 1519.13 2086.06 1520.68 L2086.06 1515.95 Q2088.89 1514.82 2091.34 1514.24 Q2093.79 1513.66 2095.83 1513.66 Q2101.2 1513.66 2104.4 1516.35 Q2107.59 1519.03 2107.59 1523.52 Q2107.59 1525.65 2106.78 1527.57 Q2105.99 1529.47 2103.89 1532.07 Q2103.31 1532.74 2100.21 1535.95 Q2097.1 1539.15 2091.46 1544.91 Z" fill="#000000" fill-rule="nonzero" fill-opacity="1" /><polyline clip-path="url(#clip800)" style="stroke:#000000; stroke-linecap:round; stroke-linejoin:round; stroke-width:4; stroke-opacity:1; fill:none" points="147.478,1486.45 147.478,47.2441 "/>
<polyline clip-path="url(#clip800)" style="stroke:#000000; stroke-linecap:round; stroke-linejoin:round; stroke-width:4; stroke-opacity:1; fill:none" points="147.478,1464 166.376,1464 "/>
<polyline clip-path="url(#clip800)" style="stroke:#000000; stroke-linecap:round; stroke-linejoin:round; stroke-width:4; stroke-opacity:1; fill:none" points="147.478,1154.07 166.376,1154.07 "/>
<polyline clip-path="url(#clip800)" style="stroke:#000000; stroke-linecap:round; stroke-linejoin:round; stroke-width:4; stroke-opacity:1; fill:none" points="147.478,844.136 166.376,844.136 "/>
<polyline clip-path="url(#clip800)" style="stroke:#000000; stroke-linecap:round; stroke-linejoin:round; stroke-width:4; stroke-opacity:1; fill:none" points="147.478,534.204 166.376,534.204 "/>
<polyline clip-path="url(#clip800)" style="stroke:#000000; stroke-linecap:round; stroke-linejoin:round; stroke-width:4; stroke-opacity:1; fill:none" points="147.478,224.272 166.376,224.272 "/>
<path clip-path="url(#clip800)" d="M51.3625 1464.45 L81.0383 1464.45 L81.0383 1468.39 L51.3625 1468.39 L51.3625 1464.45 Z" fill="#000000" fill-rule="nonzero" fill-opacity="1" /><path clip-path="url(#clip800)" d="M95.1586 1477.34 L111.478 1477.34 L111.478 1481.28 L89.5336 1481.28 L89.5336 1477.34 Q92.1956 1474.59 96.7789 1469.96 Q101.385 1465.31 102.566 1463.96 Q104.811 1461.44 105.691 1459.71 Q106.594 1457.95 106.594 1456.26 Q106.594 1453.5 104.649 1451.77 Q102.728 1450.03 99.6261 1450.03 Q97.4271 1450.03 94.9734 1450.79 Q92.5428 1451.56 89.7651 1453.11 L89.7651 1448.39 Q92.5891 1447.25 95.0428 1446.67 Q97.4965 1446.09 99.5335 1446.09 Q104.904 1446.09 108.098 1448.78 Q111.293 1451.46 111.293 1455.96 Q111.293 1458.08 110.483 1460.01 Q109.696 1461.9 107.589 1464.5 Q107.01 1465.17 103.909 1468.39 Q100.807 1471.58 95.1586 1477.34 Z" fill="#000000" fill-rule="nonzero" fill-opacity="1" /><path clip-path="url(#clip800)" d="M50.9921 1154.52 L80.6679 1154.52 L80.6679 1158.45 L50.9921 1158.45 L50.9921 1154.52 Z" fill="#000000" fill-rule="nonzero" fill-opacity="1" /><path clip-path="url(#clip800)" d="M91.5706 1167.41 L99.2095 1167.41 L99.2095 1141.05 L90.8993 1142.71 L90.8993 1138.45 L99.1632 1136.79 L103.839 1136.79 L103.839 1167.41 L111.478 1167.41 L111.478 1171.35 L91.5706 1171.35 L91.5706 1167.41 Z" fill="#000000" fill-rule="nonzero" fill-opacity="1" /><path clip-path="url(#clip800)" d="M99.5335 829.934 Q95.9224 829.934 94.0937 833.499 Q92.2882 837.041 92.2882 844.17 Q92.2882 851.277 94.0937 854.841 Q95.9224 858.383 99.5335 858.383 Q103.168 858.383 104.973 854.841 Q106.802 851.277 106.802 844.17 Q106.802 837.041 104.973 833.499 Q103.168 829.934 99.5335 829.934 M99.5335 826.231 Q105.344 826.231 108.399 830.837 Q111.478 835.42 111.478 844.17 Q111.478 852.897 108.399 857.503 Q105.344 862.087 99.5335 862.087 Q93.7234 862.087 90.6447 857.503 Q87.5892 852.897 87.5892 844.17 Q87.5892 835.42 90.6447 830.837 Q93.7234 826.231 99.5335 826.231 Z" fill="#000000" fill-rule="nonzero" fill-opacity="1" /><path clip-path="url(#clip800)" d="M91.5706 547.549 L99.2095 547.549 L99.2095 521.183 L90.8993 522.85 L90.8993 518.59 L99.1632 516.924 L103.839 516.924 L103.839 547.549 L111.478 547.549 L111.478 551.484 L91.5706 551.484 L91.5706 547.549 Z" fill="#000000" fill-rule="nonzero" fill-opacity="1" /><path clip-path="url(#clip800)" d="M95.1586 237.617 L111.478 237.617 L111.478 241.552 L89.5336 241.552 L89.5336 237.617 Q92.1956 234.862 96.7789 230.232 Q101.385 225.58 102.566 224.237 Q104.811 221.714 105.691 219.978 Q106.594 218.219 106.594 216.529 Q106.594 213.774 104.649 212.038 Q102.728 210.302 99.6261 210.302 Q97.4271 210.302 94.9734 211.066 Q92.5428 211.83 89.7651 213.381 L89.7651 208.658 Q92.5891 207.524 95.0428 206.946 Q97.4965 206.367 99.5335 206.367 Q104.904 206.367 108.098 209.052 Q111.293 211.737 111.293 216.228 Q111.293 218.358 110.483 220.279 Q109.696 222.177 107.589 224.77 Q107.01 225.441 103.909 228.658 Q100.807 231.853 95.1586 237.617 Z" fill="#000000" fill-rule="nonzero" fill-opacity="1" /><circle clip-path="url(#clip801)" cx="469.883" cy="1099.61" r="14.4" fill="#009af9" fill-rule="evenodd" fill-opacity="0.5" stroke="#000000" stroke-opacity="0.5" stroke-width="3.2"/>
<circle clip-path="url(#clip801)" cx="1543.76" cy="690.473" r="14.4" fill="#009af9" fill-rule="evenodd" fill-opacity="0.5" stroke="#000000" stroke-opacity="0.5" stroke-width="3.2"/>
<circle clip-path="url(#clip801)" cx="270.191" cy="372.962" r="14.4" fill="#009af9" fill-rule="evenodd" fill-opacity="0.5" stroke="#000000" stroke-opacity="0.5" stroke-width="3.2"/>
<circle clip-path="url(#clip801)" cx="1402.62" cy="755.075" r="14.4" fill="#009af9" fill-rule="evenodd" fill-opacity="0.5" stroke="#000000" stroke-opacity="0.5" stroke-width="3.2"/>
<circle clip-path="url(#clip801)" cx="996.383" cy="668.88" r="14.4" fill="#009af9" fill-rule="evenodd" fill-opacity="0.5" stroke="#000000" stroke-opacity="0.5" stroke-width="3.2"/>
<circle clip-path="url(#clip801)" cx="1876.1" cy="1239.56" r="14.4" fill="#009af9" fill-rule="evenodd" fill-opacity="0.5" stroke="#000000" stroke-opacity="0.5" stroke-width="3.2"/>
<circle clip-path="url(#clip801)" cx="2290.34" cy="497.768" r="14.4" fill="#009af9" fill-rule="evenodd" fill-opacity="0.5" stroke="#000000" stroke-opacity="0.5" stroke-width="3.2"/>
<circle clip-path="url(#clip801)" cx="856.39" cy="947.233" r="14.4" fill="#009af9" fill-rule="evenodd" fill-opacity="0.5" stroke="#000000" stroke-opacity="0.5" stroke-width="3.2"/>
<circle clip-path="url(#clip801)" cx="1046.98" cy="471.206" r="14.4" fill="#009af9" fill-rule="evenodd" fill-opacity="0.5" stroke="#000000" stroke-opacity="0.5" stroke-width="3.2"/>
<circle clip-path="url(#clip801)" cx="603.031" cy="737.528" r="14.4" fill="#009af9" fill-rule="evenodd" fill-opacity="0.5" stroke="#000000" stroke-opacity="0.5" stroke-width="3.2"/>
<circle clip-path="url(#clip801)" cx="209.891" cy="1445.72" r="14.4" fill="#009af9" fill-rule="evenodd" fill-opacity="0.5" stroke="#000000" stroke-opacity="0.5" stroke-width="3.2"/>
<circle clip-path="url(#clip801)" cx="496.528" cy="87.9763" r="14.4" fill="#009af9" fill-rule="evenodd" fill-opacity="0.5" stroke="#000000" stroke-opacity="0.5" stroke-width="3.2"/>
<circle clip-path="url(#clip801)" cx="1430.47" cy="816.229" r="14.4" fill="#009af9" fill-rule="evenodd" fill-opacity="0.5" stroke="#000000" stroke-opacity="0.5" stroke-width="3.2"/>
<circle clip-path="url(#clip801)" cx="1756.74" cy="847.868" r="14.4" fill="#009af9" fill-rule="evenodd" fill-opacity="0.5" stroke="#000000" stroke-opacity="0.5" stroke-width="3.2"/>
<circle clip-path="url(#clip801)" cx="1019.04" cy="1112.14" r="14.4" fill="#009af9" fill-rule="evenodd" fill-opacity="0.5" stroke="#000000" stroke-opacity="0.5" stroke-width="3.2"/>
<circle clip-path="url(#clip801)" cx="1349.51" cy="639.019" r="14.4" fill="#009af9" fill-rule="evenodd" fill-opacity="0.5" stroke="#000000" stroke-opacity="0.5" stroke-width="3.2"/>
<circle clip-path="url(#clip801)" cx="1496.53" cy="89.5739" r="14.4" fill="#009af9" fill-rule="evenodd" fill-opacity="0.5" stroke="#000000" stroke-opacity="0.5" stroke-width="3.2"/>
<circle clip-path="url(#clip801)" cx="1122.63" cy="577.116" r="14.4" fill="#009af9" fill-rule="evenodd" fill-opacity="0.5" stroke="#000000" stroke-opacity="0.5" stroke-width="3.2"/>
<circle clip-path="url(#clip801)" cx="663.73" cy="1015.65" r="14.4" fill="#009af9" fill-rule="evenodd" fill-opacity="0.5" stroke="#000000" stroke-opacity="0.5" stroke-width="3.2"/>
<circle clip-path="url(#clip801)" cx="775.105" cy="758.732" r="14.4" fill="#009af9" fill-rule="evenodd" fill-opacity="0.5" stroke="#000000" stroke-opacity="0.5" stroke-width="3.2"/>
<circle clip-path="url(#clip801)" cx="2037.33" cy="1025.25" r="14.4" fill="#009af9" fill-rule="evenodd" fill-opacity="0.5" stroke="#000000" stroke-opacity="0.5" stroke-width="3.2"/>
<circle clip-path="url(#clip801)" cx="1038.77" cy="304.311" r="14.4" fill="#009af9" fill-rule="evenodd" fill-opacity="0.5" stroke="#000000" stroke-opacity="0.5" stroke-width="3.2"/>
<circle clip-path="url(#clip801)" cx="1045.28" cy="820.167" r="14.4" fill="#009af9" fill-rule="evenodd" fill-opacity="0.5" stroke="#000000" stroke-opacity="0.5" stroke-width="3.2"/>
<circle clip-path="url(#clip801)" cx="1617.08" cy="1221.08" r="14.4" fill="#009af9" fill-rule="evenodd" fill-opacity="0.5" stroke="#000000" stroke-opacity="0.5" stroke-width="3.2"/>
<circle clip-path="url(#clip801)" cx="407.477" cy="759.608" r="14.4" fill="#009af9" fill-rule="evenodd" fill-opacity="0.5" stroke="#000000" stroke-opacity="0.5" stroke-width="3.2"/>
<circle clip-path="url(#clip801)" cx="796.853" cy="795.764" r="14.4" fill="#009af9" fill-rule="evenodd" fill-opacity="0.5" stroke="#000000" stroke-opacity="0.5" stroke-width="3.2"/>
<circle clip-path="url(#clip801)" cx="693.41" cy="980.352" r="14.4" fill="#009af9" fill-rule="evenodd" fill-opacity="0.5" stroke="#000000" stroke-opacity="0.5" stroke-width="3.2"/>
<circle clip-path="url(#clip801)" cx="641.203" cy="575.075" r="14.4" fill="#009af9" fill-rule="evenodd" fill-opacity="0.5" stroke="#000000" stroke-opacity="0.5" stroke-width="3.2"/>
<circle clip-path="url(#clip801)" cx="1329.52" cy="804.674" r="14.4" fill="#009af9" fill-rule="evenodd" fill-opacity="0.5" stroke="#000000" stroke-opacity="0.5" stroke-width="3.2"/>
<circle clip-path="url(#clip801)" cx="231.776" cy="644.278" r="14.4" fill="#009af9" fill-rule="evenodd" fill-opacity="0.5" stroke="#000000" stroke-opacity="0.5" stroke-width="3.2"/>
<path clip-path="url(#clip801)" d="M209.891 1445.72 L1876.1 1239.56 L2037.33 1025.25 L2290.34 497.768 L1496.53 89.5739 L496.528 87.9763 L270.191 372.962 L231.776 644.278 L209.891 1445.72 L209.891 1445.72  Z" fill="#e26f46" fill-rule="evenodd" fill-opacity="0.2"/>
<polyline clip-path="url(#clip801)" style="stroke:#000000; stroke-linecap:round; stroke-linejoin:round; stroke-width:4; stroke-opacity:0.2; fill:none" points="209.891,1445.72 1876.1,1239.56 2037.33,1025.25 2290.34,497.768 1496.53,89.5739 496.528,87.9763 270.191,372.962 231.776,644.278 209.891,1445.72 "/>
</svg>
