<?xml version="1.0" encoding="utf-8"?>
<svg xmlns="http://www.w3.org/2000/svg" xmlns:xlink="http://www.w3.org/1999/xlink" width="600" height="400" viewBox="0 0 2400 1600">
<defs>
  <clipPath id="clip590">
    <rect x="0" y="0" width="2400" height="1600"/>
  </clipPath>
</defs>
<path clip-path="url(#clip590)" d="M0 1600 L2400 1600 L2400 0 L0 0  Z" fill="#ffffff" fill-rule="evenodd" fill-opacity="1"/>
<defs>
  <clipPath id="clip591">
    <rect x="147" y="47" width="2206" height="1440"/>
  </clipPath>
</defs>
<path clip-path="url(#clip590)" d="M147.478 1486.45 L2352.76 1486.45 L2352.76 47.2441 L147.478 47.2441  Z" fill="#ffffff" fill-rule="evenodd" fill-opacity="1"/>
<polyline clip-path="url(#clip591)" style="stroke:#000000; stroke-linecap:round; stroke-linejoin:round; stroke-width:2; stroke-opacity:0.1; fill:none" points="340.343,1486.45 340.343,47.2441 "/>
<polyline clip-path="url(#clip591)" style="stroke:#000000; stroke-linecap:round; stroke-linejoin:round; stroke-width:2; stroke-opacity:0.1; fill:none" points="642.1,1486.45 642.1,47.2441 "/>
<polyline clip-path="url(#clip591)" style="stroke:#000000; stroke-linecap:round; stroke-linejoin:round; stroke-width:2; stroke-opacity:0.1; fill:none" points="943.857,1486.45 943.857,47.2441 "/>
<polyline clip-path="url(#clip591)" style="stroke:#000000; stroke-linecap:round; stroke-linejoin:round; stroke-width:2; stroke-opacity:0.1; fill:none" points="1245.61,1486.45 1245.61,47.2441 "/>
<polyline clip-path="url(#clip591)" style="stroke:#000000; stroke-linecap:round; stroke-linejoin:round; stroke-width:2; stroke-opacity:0.1; fill:none" points="1547.37,1486.45 1547.37,47.2441 "/>
<polyline clip-path="url(#clip591)" style="stroke:#000000; stroke-linecap:round; stroke-linejoin:round; stroke-width:2; stroke-opacity:0.1; fill:none" points="1849.13,1486.45 1849.13,47.2441 "/>
<polyline clip-path="url(#clip591)" style="stroke:#000000; stroke-linecap:round; stroke-linejoin:round; stroke-width:2; stroke-opacity:0.1; fill:none" points="2150.88,1486.45 2150.88,47.2441 "/>
<polyline clip-path="url(#clip591)" style="stroke:#000000; stroke-linecap:round; stroke-linejoin:round; stroke-width:2; stroke-opacity:0.1; fill:none" points="147.478,1342.96 2352.76,1342.96 "/>
<polyline clip-path="url(#clip591)" style="stroke:#000000; stroke-linecap:round; stroke-linejoin:round; stroke-width:2; stroke-opacity:0.1; fill:none" points="147.478,1032.67 2352.76,1032.67 "/>
<polyline clip-path="url(#clip591)" style="stroke:#000000; stroke-linecap:round; stroke-linejoin:round; stroke-width:2; stroke-opacity:0.1; fill:none" points="147.478,722.378 2352.76,722.378 "/>
<polyline clip-path="url(#clip591)" style="stroke:#000000; stroke-linecap:round; stroke-linejoin:round; stroke-width:2; stroke-opacity:0.1; fill:none" points="147.478,412.088 2352.76,412.088 "/>
<polyline clip-path="url(#clip591)" style="stroke:#000000; stroke-linecap:round; stroke-linejoin:round; stroke-width:2; stroke-opacity:0.1; fill:none" points="147.478,101.797 2352.76,101.797 "/>
<polyline clip-path="url(#clip590)" style="stroke:#000000; stroke-linecap:round; stroke-linejoin:round; stroke-width:4; stroke-opacity:1; fill:none" points="147.478,1486.45 2352.76,1486.45 "/>
<polyline clip-path="url(#clip590)" style="stroke:#000000; stroke-linecap:round; stroke-linejoin:round; stroke-width:4; stroke-opacity:1; fill:none" points="340.343,1486.45 340.343,1467.55 "/>
<polyline clip-path="url(#clip590)" style="stroke:#000000; stroke-linecap:round; stroke-linejoin:round; stroke-width:4; stroke-opacity:1; fill:none" points="642.1,1486.45 642.1,1467.55 "/>
<polyline clip-path="url(#clip590)" style="stroke:#000000; stroke-linecap:round; stroke-linejoin:round; stroke-width:4; stroke-opacity:1; fill:none" points="943.857,1486.45 943.857,1467.55 "/>
<polyline clip-path="url(#clip590)" style="stroke:#000000; stroke-linecap:round; stroke-linejoin:round; stroke-width:4; stroke-opacity:1; fill:none" points="1245.61,1486.45 1245.61,1467.55 "/>
<polyline clip-path="url(#clip590)" style="stroke:#000000; stroke-linecap:round; stroke-linejoin:round; stroke-width:4; stroke-opacity:1; fill:none" points="1547.37,1486.45 1547.37,1467.55 "/>
<polyline clip-path="url(#clip590)" style="stroke:#000000; stroke-linecap:round; stroke-linejoin:round; stroke-width:4; stroke-opacity:1; fill:none" points="1849.13,1486.45 1849.13,1467.55 "/>
<polyline clip-path="url(#clip590)" style="stroke:#000000; stroke-linecap:round; stroke-linejoin:round; stroke-width:4; stroke-opacity:1; fill:none" points="2150.88,1486.45 2150.88,1467.55 "/>
<path clip-path="url(#clip590)" d="M287.369 1532.02 L317.045 1532.02 L317.045 1535.95 L287.369 1535.95 L287.369 1532.02 Z" fill="#000000" fill-rule="nonzero" fill-opacity="1" /><path clip-path="url(#clip590)" d="M327.948 1544.91 L335.586 1544.91 L335.586 1518.55 L327.276 1520.21 L327.276 1515.95 L335.54 1514.29 L340.216 1514.29 L340.216 1544.91 L347.855 1544.91 L347.855 1548.85 L327.948 1548.85 L327.948 1544.91 Z" fill="#000000" fill-rule="nonzero" fill-opacity="1" /><path clip-path="url(#clip590)" d="M357.299 1542.97 L362.184 1542.97 L362.184 1548.85 L357.299 1548.85 L357.299 1542.97 Z" fill="#000000" fill-rule="nonzero" fill-opacity="1" /><path clip-path="url(#clip590)" d="M372.415 1514.29 L390.771 1514.29 L390.771 1518.22 L376.697 1518.22 L376.697 1526.7 Q377.716 1526.35 378.734 1526.19 Q379.753 1526 380.771 1526 Q386.558 1526 389.938 1529.17 Q393.318 1532.34 393.318 1537.76 Q393.318 1543.34 389.845 1546.44 Q386.373 1549.52 380.054 1549.52 Q377.878 1549.52 375.609 1549.15 Q373.364 1548.78 370.957 1548.04 L370.957 1543.34 Q373.04 1544.47 375.262 1545.03 Q377.484 1545.58 379.961 1545.58 Q383.966 1545.58 386.304 1543.48 Q388.642 1541.37 388.642 1537.76 Q388.642 1534.15 386.304 1532.04 Q383.966 1529.94 379.961 1529.94 Q378.086 1529.94 376.211 1530.35 Q374.359 1530.77 372.415 1531.65 L372.415 1514.29 Z" fill="#000000" fill-rule="nonzero" fill-opacity="1" /><path clip-path="url(#clip590)" d="M588.628 1532.02 L618.304 1532.02 L618.304 1535.95 L588.628 1535.95 L588.628 1532.02 Z" fill="#000000" fill-rule="nonzero" fill-opacity="1" /><path clip-path="url(#clip590)" d="M629.207 1544.91 L636.845 1544.91 L636.845 1518.55 L628.535 1520.21 L628.535 1515.95 L636.799 1514.29 L641.475 1514.29 L641.475 1544.91 L649.114 1544.91 L649.114 1548.85 L629.207 1548.85 L629.207 1544.91 Z" fill="#000000" fill-rule="nonzero" fill-opacity="1" /><path clip-path="url(#clip590)" d="M658.558 1542.97 L663.443 1542.97 L663.443 1548.85 L658.558 1548.85 L658.558 1542.97 Z" fill="#000000" fill-rule="nonzero" fill-opacity="1" /><path clip-path="url(#clip590)" d="M683.628 1517.37 Q680.016 1517.37 678.188 1520.93 Q676.382 1524.47 676.382 1531.6 Q676.382 1538.71 678.188 1542.27 Q680.016 1545.82 683.628 1545.82 Q687.262 1545.82 689.067 1542.27 Q690.896 1538.71 690.896 1531.6 Q690.896 1524.47 689.067 1520.93 Q687.262 1517.37 683.628 1517.37 M683.628 1513.66 Q689.438 1513.66 692.493 1518.27 Q695.572 1522.85 695.572 1531.6 Q695.572 1540.33 692.493 1544.94 Q689.438 1549.52 683.628 1549.52 Q677.817 1549.52 674.739 1544.94 Q671.683 1540.33 671.683 1531.6 Q671.683 1522.85 674.739 1518.27 Q677.817 1513.66 683.628 1513.66 Z" fill="#000000" fill-rule="nonzero" fill-opacity="1" /><path clip-path="url(#clip590)" d="M890.882 1532.02 L920.558 1532.02 L920.558 1535.95 L890.882 1535.95 L890.882 1532.02 Z" fill="#000000" fill-rule="nonzero" fill-opacity="1" /><path clip-path="url(#clip590)" d="M940.651 1517.37 Q937.04 1517.37 935.211 1520.93 Q933.405 1524.47 933.405 1531.6 Q933.405 1538.71 935.211 1542.27 Q937.04 1545.82 940.651 1545.82 Q944.285 1545.82 946.09 1542.27 Q947.919 1538.71 947.919 1531.6 Q947.919 1524.47 946.09 1520.93 Q944.285 1517.37 940.651 1517.37 M940.651 1513.66 Q946.461 1513.66 949.516 1518.27 Q952.595 1522.85 952.595 1531.6 Q952.595 1540.33 949.516 1544.94 Q946.461 1549.52 940.651 1549.52 Q934.84 1549.52 931.762 1544.94 Q928.706 1540.33 928.706 1531.6 Q928.706 1522.85 931.762 1518.27 Q934.84 1513.66 940.651 1513.66 Z" fill="#000000" fill-rule="nonzero" fill-opacity="1" /><path clip-path="url(#clip590)" d="M960.813 1542.97 L965.697 1542.97 L965.697 1548.85 L960.813 1548.85 L960.813 1542.97 Z" fill="#000000" fill-rule="nonzero" fill-opacity="1" /><path clip-path="url(#clip590)" d="M975.928 1514.29 L994.285 1514.29 L994.285 1518.22 L980.211 1518.22 L980.211 1526.7 Q981.229 1526.35 982.248 1526.19 Q983.266 1526 984.285 1526 Q990.072 1526 993.451 1529.17 Q996.831 1532.34 996.831 1537.76 Q996.831 1543.34 993.359 1546.44 Q989.886 1549.52 983.567 1549.52 Q981.391 1549.52 979.123 1549.15 Q976.877 1548.78 974.47 1548.04 L974.47 1543.34 Q976.553 1544.47 978.775 1545.03 Q980.998 1545.58 983.474 1545.58 Q987.479 1545.58 989.817 1543.48 Q992.155 1541.37 992.155 1537.76 Q992.155 1534.15 989.817 1532.04 Q987.479 1529.94 983.474 1529.94 Q981.6 1529.94 979.725 1530.35 Q977.873 1530.77 975.928 1531.65 L975.928 1514.29 Z" fill="#000000" fill-rule="nonzero" fill-opacity="1" /><path clip-path="url(#clip590)" d="M1223 1517.37 Q1219.39 1517.37 1217.56 1520.93 Q1215.75 1524.47 1215.75 1531.6 Q1215.75 1538.71 1217.56 1542.27 Q1219.39 1545.82 1223 1545.82 Q1226.63 1545.82 1228.44 1542.27 Q1230.27 1538.71 1230.27 1531.6 Q1230.27 1524.47 1228.44 1520.93 Q1226.63 1517.37 1223 1517.37 M1223 1513.66 Q1228.81 1513.66 1231.86 1518.27 Q1234.94 1522.85 1234.94 1531.6 Q1234.94 1540.33 1231.86 1544.94 Q1228.81 1549.52 1223 1549.52 Q1217.19 1549.52 1214.11 1544.94 Q1211.05 1540.33 1211.05 1531.6 Q1211.05 1522.85 1214.11 1518.27 Q1217.19 1513.66 1223 1513.66 Z" fill="#000000" fill-rule="nonzero" fill-opacity="1" /><path clip-path="url(#clip590)" d="M1243.16 1542.97 L1248.04 1542.97 L1248.04 1548.85 L1243.16 1548.85 L1243.16 1542.97 Z" fill="#000000" fill-rule="nonzero" fill-opacity="1" /><path clip-path="url(#clip590)" d="M1268.23 1517.37 Q1264.62 1517.37 1262.79 1520.93 Q1260.98 1524.47 1260.98 1531.6 Q1260.98 1538.71 1262.79 1542.27 Q1264.62 1545.82 1268.23 1545.82 Q1271.86 1545.82 1273.67 1542.27 Q1275.5 1538.71 1275.5 1531.6 Q1275.5 1524.47 1273.67 1520.93 Q1271.86 1517.37 1268.23 1517.37 M1268.23 1513.66 Q1274.04 1513.66 1277.09 1518.27 Q1280.17 1522.85 1280.17 1531.6 Q1280.17 1540.33 1277.09 1544.94 Q1274.04 1549.52 1268.23 1549.52 Q1262.42 1549.52 1259.34 1544.94 Q1256.28 1540.33 1256.28 1531.6 Q1256.28 1522.85 1259.34 1518.27 Q1262.42 1513.66 1268.23 1513.66 Z" fill="#000000" fill-rule="nonzero" fill-opacity="1" /><path clip-path="url(#clip590)" d="M1525.25 1517.37 Q1521.64 1517.37 1519.81 1520.93 Q1518.01 1524.47 1518.01 1531.6 Q1518.01 1538.71 1519.81 1542.27 Q1521.64 1545.82 1525.25 1545.82 Q1528.89 1545.82 1530.69 1542.27 Q1532.52 1538.71 1532.52 1531.6 Q1532.52 1524.47 1530.69 1520.93 Q1528.89 1517.37 1525.25 1517.37 M1525.25 1513.66 Q1531.06 1513.66 1534.12 1518.27 Q1537.2 1522.85 1537.2 1531.6 Q1537.2 1540.33 1534.12 1544.94 Q1531.06 1549.52 1525.25 1549.52 Q1519.44 1549.52 1516.36 1544.94 Q1513.31 1540.33 1513.31 1531.6 Q1513.31 1522.85 1516.36 1518.27 Q1519.44 1513.66 1525.25 1513.66 Z" fill="#000000" fill-rule="nonzero" fill-opacity="1" /><path clip-path="url(#clip590)" d="M1545.41 1542.97 L1550.3 1542.97 L1550.3 1548.85 L1545.41 1548.85 L1545.41 1542.97 Z" fill="#000000" fill-rule="nonzero" fill-opacity="1" /><path clip-path="url(#clip590)" d="M1560.53 1514.29 L1578.89 1514.29 L1578.89 1518.22 L1564.81 1518.22 L1564.81 1526.7 Q1565.83 1526.35 1566.85 1526.19 Q1567.87 1526 1568.89 1526 Q1574.67 1526 1578.05 1529.17 Q1581.43 1532.34 1581.43 1537.76 Q1581.43 1543.34 1577.96 1546.44 Q1574.49 1549.52 1568.17 1549.52 Q1565.99 1549.52 1563.72 1549.15 Q1561.48 1548.78 1559.07 1548.04 L1559.07 1543.34 Q1561.15 1544.47 1563.38 1545.03 Q1565.6 1545.58 1568.08 1545.58 Q1572.08 1545.58 1574.42 1543.48 Q1576.76 1541.37 1576.76 1537.76 Q1576.76 1534.15 1574.42 1532.04 Q1572.08 1529.94 1568.08 1529.94 Q1566.2 1529.94 1564.33 1530.35 Q1562.47 1530.77 1560.53 1531.65 L1560.53 1514.29 Z" fill="#000000" fill-rule="nonzero" fill-opacity="1" /><path clip-path="url(#clip590)" d="M1816.28 1544.91 L1823.92 1544.91 L1823.92 1518.55 L1815.61 1520.21 L1815.61 1515.95 L1823.87 1514.29 L1828.55 1514.29 L1828.55 1544.91 L1836.19 1544.91 L1836.19 1548.85 L1816.28 1548.85 L1816.28 1544.91 Z" fill="#000000" fill-rule="nonzero" fill-opacity="1" /><path clip-path="url(#clip590)" d="M1845.63 1542.97 L1850.52 1542.97 L1850.52 1548.85 L1845.63 1548.85 L1845.63 1542.97 Z" fill="#000000" fill-rule="nonzero" fill-opacity="1" /><path clip-path="url(#clip590)" d="M1870.7 1517.37 Q1867.09 1517.37 1865.26 1520.93 Q1863.46 1524.47 1863.46 1531.6 Q1863.46 1538.71 1865.26 1542.27 Q1867.09 1545.82 1870.7 1545.82 Q1874.33 1545.82 1876.14 1542.27 Q1877.97 1538.71 1877.97 1531.6 Q1877.97 1524.47 1876.14 1520.93 Q1874.33 1517.37 1870.7 1517.37 M1870.7 1513.66 Q1876.51 1513.66 1879.57 1518.27 Q1882.64 1522.85 1882.64 1531.6 Q1882.64 1540.33 1879.57 1544.94 Q1876.51 1549.52 1870.7 1549.52 Q1864.89 1549.52 1861.81 1544.94 Q1858.76 1540.33 1858.76 1531.6 Q1858.76 1522.85 1861.81 1518.27 Q1864.89 1513.66 1870.7 1513.66 Z" fill="#000000" fill-rule="nonzero" fill-opacity="1" /><path clip-path="url(#clip590)" d="M2118.53 1544.91 L2126.17 1544.91 L2126.17 1518.55 L2117.86 1520.21 L2117.86 1515.95 L2126.13 1514.29 L2130.8 1514.29 L2130.8 1544.91 L2138.44 1544.91 L2138.44 1548.85 L2118.53 1548.85 L2118.53 1544.91 Z" fill="#000000" fill-rule="nonzero" fill-opacity="1" /><path clip-path="url(#clip590)" d="M2147.89 1542.97 L2152.77 1542.97 L2152.77 1548.85 L2147.89 1548.85 L2147.89 1542.97 Z" fill="#000000" fill-rule="nonzero" fill-opacity="1" /><path clip-path="url(#clip590)" d="M2163 1514.29 L2181.36 1514.29 L2181.36 1518.22 L2167.28 1518.22 L2167.28 1526.7 Q2168.3 1526.35 2169.32 1526.19 Q2170.34 1526 2171.36 1526 Q2177.14 1526 2180.52 1529.17 Q2183.9 1532.34 2183.9 1537.76 Q2183.9 1543.34 2180.43 1546.44 Q2176.96 1549.52 2170.64 1549.52 Q2168.46 1549.52 2166.2 1549.15 Q2163.95 1548.78 2161.54 1548.04 L2161.54 1543.34 Q2163.63 1544.47 2165.85 1545.03 Q2168.07 1545.58 2170.55 1545.58 Q2174.55 1545.58 2176.89 1543.48 Q2179.23 1541.37 2179.23 1537.76 Q2179.23 1534.15 2176.89 1532.04 Q2174.55 1529.94 2170.55 1529.94 Q2168.67 1529.94 2166.8 1530.35 Q2164.95 1530.77 2163 1531.65 L2163 1514.29 Z" fill="#000000" fill-rule="nonzero" fill-opacity="1" /><polyline clip-path="url(#clip590)" style="stroke:#000000; stroke-linecap:round; stroke-linejoin:round; stroke-width:4; stroke-opacity:1; fill:none" points="147.478,1486.45 147.478,47.2441 "/>
<polyline clip-path="url(#clip590)" style="stroke:#000000; stroke-linecap:round; stroke-linejoin:round; stroke-width:4; stroke-opacity:1; fill:none" points="147.478,1342.96 166.376,1342.96 "/>
<polyline clip-path="url(#clip590)" style="stroke:#000000; stroke-linecap:round; stroke-linejoin:round; stroke-width:4; stroke-opacity:1; fill:none" points="147.478,1032.67 166.376,1032.67 "/>
<polyline clip-path="url(#clip590)" style="stroke:#000000; stroke-linecap:round; stroke-linejoin:round; stroke-width:4; stroke-opacity:1; fill:none" points="147.478,722.378 166.376,722.378 "/>
<polyline clip-path="url(#clip590)" style="stroke:#000000; stroke-linecap:round; stroke-linejoin:round; stroke-width:4; stroke-opacity:1; fill:none" points="147.478,412.088 166.376,412.088 "/>
<polyline clip-path="url(#clip590)" style="stroke:#000000; stroke-linecap:round; stroke-linejoin:round; stroke-width:4; stroke-opacity:1; fill:none" points="147.478,101.797 166.376,101.797 "/>
<path clip-path="url(#clip590)" d="M51.3625 1343.41 L81.0383 1343.41 L81.0383 1347.35 L51.3625 1347.35 L51.3625 1343.41 Z" fill="#000000" fill-rule="nonzero" fill-opacity="1" /><path clip-path="url(#clip590)" d="M95.1586 1356.3 L111.478 1356.3 L111.478 1360.24 L89.5336 1360.24 L89.5336 1356.3 Q92.1956 1353.55 96.7789 1348.92 Q101.385 1344.27 102.566 1342.92 Q104.811 1340.4 105.691 1338.67 Q106.594 1336.91 106.594 1335.22 Q106.594 1332.46 104.649 1330.73 Q102.728 1328.99 99.6261 1328.99 Q97.4271 1328.99 94.9734 1329.75 Q92.5428 1330.52 89.7651 1332.07 L89.7651 1327.35 Q92.5891 1326.21 95.0428 1325.63 Q97.4965 1325.05 99.5335 1325.05 Q104.904 1325.05 108.098 1327.74 Q111.293 1330.42 111.293 1334.92 Q111.293 1337.04 110.483 1338.97 Q109.696 1340.86 107.589 1343.46 Q107.01 1344.13 103.909 1347.35 Q100.807 1350.54 95.1586 1356.3 Z" fill="#000000" fill-rule="nonzero" fill-opacity="1" /><path clip-path="url(#clip590)" d="M50.9921 1033.12 L80.6679 1033.12 L80.6679 1037.06 L50.9921 1037.06 L50.9921 1033.12 Z" fill="#000000" fill-rule="nonzero" fill-opacity="1" /><path clip-path="url(#clip590)" d="M91.5706 1046.01 L99.2095 1046.01 L99.2095 1019.65 L90.8993 1021.31 L90.8993 1017.06 L99.1632 1015.39 L103.839 1015.39 L103.839 1046.01 L111.478 1046.01 L111.478 1049.95 L91.5706 1049.95 L91.5706 1046.01 Z" fill="#000000" fill-rule="nonzero" fill-opacity="1" /><path clip-path="url(#clip590)" d="M99.5335 708.177 Q95.9224 708.177 94.0937 711.742 Q92.2882 715.283 92.2882 722.413 Q92.2882 729.519 94.0937 733.084 Q95.9224 736.626 99.5335 736.626 Q103.168 736.626 104.973 733.084 Q106.802 729.519 106.802 722.413 Q106.802 715.283 104.973 711.742 Q103.168 708.177 99.5335 708.177 M99.5335 704.473 Q105.344 704.473 108.399 709.08 Q111.478 713.663 111.478 722.413 Q111.478 731.14 108.399 735.746 Q105.344 740.329 99.5335 740.329 Q93.7234 740.329 90.6447 735.746 Q87.5892 731.14 87.5892 722.413 Q87.5892 713.663 90.6447 709.08 Q93.7234 704.473 99.5335 704.473 Z" fill="#000000" fill-rule="nonzero" fill-opacity="1" /><path clip-path="url(#clip590)" d="M91.5706 425.432 L99.2095 425.432 L99.2095 399.067 L90.8993 400.733 L90.8993 396.474 L99.1632 394.808 L103.839 394.808 L103.839 425.432 L111.478 425.432 L111.478 429.368 L91.5706 429.368 L91.5706 425.432 Z" fill="#000000" fill-rule="nonzero" fill-opacity="1" /><path clip-path="url(#clip590)" d="M95.1586 115.142 L111.478 115.142 L111.478 119.077 L89.5336 119.077 L89.5336 115.142 Q92.1956 112.387 96.7789 107.758 Q101.385 103.105 102.566 101.762 Q104.811 99.2392 105.691 97.5031 Q106.594 95.7439 106.594 94.054 Q106.594 91.2994 104.649 89.5633 Q102.728 87.8272 99.6261 87.8272 Q97.4271 87.8272 94.9734 88.5911 Q92.5428 89.355 89.7651 90.9059 L89.7651 86.1837 Q92.5891 85.0495 95.0428 84.4708 Q97.4965 83.8921 99.5335 83.8921 Q104.904 83.8921 108.098 86.5772 Q111.293 89.2624 111.293 93.7531 Q111.293 95.8827 110.483 97.804 Q109.696 99.7022 107.589 102.295 Q107.01 102.966 103.909 106.184 Q100.807 109.378 95.1586 115.142 Z" fill="#000000" fill-rule="nonzero" fill-opacity="1" /><circle clip-path="url(#clip591)" cx="1397.59" cy="674.135" r="14.4" fill="#009af9" fill-rule="evenodd" fill-opacity="0.5" stroke="#000000" stroke-opacity="0.5" stroke-width="3.2"/>
<circle clip-path="url(#clip591)" cx="529.909" cy="758.62" r="14.4" fill="#009af9" fill-rule="evenodd" fill-opacity="0.5" stroke="#000000" stroke-opacity="0.5" stroke-width="3.2"/>
<circle clip-path="url(#clip591)" cx="291.256" cy="520.903" r="14.4" fill="#009af9" fill-rule="evenodd" fill-opacity="0.5" stroke="#000000" stroke-opacity="0.5" stroke-width="3.2"/>
<circle clip-path="url(#clip591)" cx="1946.87" cy="524.398" r="14.4" fill="#009af9" fill-rule="evenodd" fill-opacity="0.5" stroke="#000000" stroke-opacity="0.5" stroke-width="3.2"/>
<circle clip-path="url(#clip591)" cx="1665.02" cy="1187.42" r="14.4" fill="#009af9" fill-rule="evenodd" fill-opacity="0.5" stroke="#000000" stroke-opacity="0.5" stroke-width="3.2"/>
<circle clip-path="url(#clip591)" cx="1391.93" cy="633.552" r="14.4" fill="#009af9" fill-rule="evenodd" fill-opacity="0.5" stroke="#000000" stroke-opacity="0.5" stroke-width="3.2"/>
<circle clip-path="url(#clip591)" cx="585.549" cy="480.191" r="14.4" fill="#009af9" fill-rule="evenodd" fill-opacity="0.5" stroke="#000000" stroke-opacity="0.5" stroke-width="3.2"/>
<circle clip-path="url(#clip591)" cx="1470.97" cy="203.431" r="14.4" fill="#009af9" fill-rule="evenodd" fill-opacity="0.5" stroke="#000000" stroke-opacity="0.5" stroke-width="3.2"/>
<circle clip-path="url(#clip591)" cx="2145.28" cy="652.338" r="14.4" fill="#009af9" fill-rule="evenodd" fill-opacity="0.5" stroke="#000000" stroke-opacity="0.5" stroke-width="3.2"/>
<circle clip-path="url(#clip591)" cx="333.92" cy="748.895" r="14.4" fill="#009af9" fill-rule="evenodd" fill-opacity="0.5" stroke="#000000" stroke-opacity="0.5" stroke-width="3.2"/>
<circle clip-path="url(#clip591)" cx="1003.22" cy="1066.85" r="14.4" fill="#009af9" fill-rule="evenodd" fill-opacity="0.5" stroke="#000000" stroke-opacity="0.5" stroke-width="3.2"/>
<circle clip-path="url(#clip591)" cx="209.891" cy="1349.92" r="14.4" fill="#009af9" fill-rule="evenodd" fill-opacity="0.5" stroke="#000000" stroke-opacity="0.5" stroke-width="3.2"/>
<circle clip-path="url(#clip591)" cx="1033.84" cy="709.675" r="14.4" fill="#009af9" fill-rule="evenodd" fill-opacity="0.5" stroke="#000000" stroke-opacity="0.5" stroke-width="3.2"/>
<circle clip-path="url(#clip591)" cx="1222.66" cy="1445.72" r="14.4" fill="#009af9" fill-rule="evenodd" fill-opacity="0.5" stroke="#000000" stroke-opacity="0.5" stroke-width="3.2"/>
<circle clip-path="url(#clip591)" cx="1283.07" cy="794.59" r="14.4" fill="#009af9" fill-rule="evenodd" fill-opacity="0.5" stroke="#000000" stroke-opacity="0.5" stroke-width="3.2"/>
<circle clip-path="url(#clip591)" cx="1268.59" cy="587.608" r="14.4" fill="#009af9" fill-rule="evenodd" fill-opacity="0.5" stroke="#000000" stroke-opacity="0.5" stroke-width="3.2"/>
<circle clip-path="url(#clip591)" cx="684.881" cy="386.291" r="14.4" fill="#009af9" fill-rule="evenodd" fill-opacity="0.5" stroke="#000000" stroke-opacity="0.5" stroke-width="3.2"/>
<circle clip-path="url(#clip591)" cx="1391.29" cy="475.942" r="14.4" fill="#009af9" fill-rule="evenodd" fill-opacity="0.5" stroke="#000000" stroke-opacity="0.5" stroke-width="3.2"/>
<circle clip-path="url(#clip591)" cx="2290.34" cy="355.8" r="14.4" fill="#009af9" fill-rule="evenodd" fill-opacity="0.5" stroke="#000000" stroke-opacity="0.5" stroke-width="3.2"/>
<circle clip-path="url(#clip591)" cx="1402.13" cy="626.273" r="14.4" fill="#009af9" fill-rule="evenodd" fill-opacity="0.5" stroke="#000000" stroke-opacity="0.5" stroke-width="3.2"/>
<circle clip-path="url(#clip591)" cx="1518.66" cy="618.903" r="14.4" fill="#009af9" fill-rule="evenodd" fill-opacity="0.5" stroke="#000000" stroke-opacity="0.5" stroke-width="3.2"/>
<circle clip-path="url(#clip591)" cx="1315.28" cy="742.583" r="14.4" fill="#009af9" fill-rule="evenodd" fill-opacity="0.5" stroke="#000000" stroke-opacity="0.5" stroke-width="3.2"/>
<circle clip-path="url(#clip591)" cx="355.551" cy="300.044" r="14.4" fill="#009af9" fill-rule="evenodd" fill-opacity="0.5" stroke="#000000" stroke-opacity="0.5" stroke-width="3.2"/>
<circle clip-path="url(#clip591)" cx="1813.07" cy="837.509" r="14.4" fill="#009af9" fill-rule="evenodd" fill-opacity="0.5" stroke="#000000" stroke-opacity="0.5" stroke-width="3.2"/>
<circle clip-path="url(#clip591)" cx="1540.54" cy="438.478" r="14.4" fill="#009af9" fill-rule="evenodd" fill-opacity="0.5" stroke="#000000" stroke-opacity="0.5" stroke-width="3.2"/>
<circle clip-path="url(#clip591)" cx="1493.38" cy="855.085" r="14.4" fill="#009af9" fill-rule="evenodd" fill-opacity="0.5" stroke="#000000" stroke-opacity="0.5" stroke-width="3.2"/>
<circle clip-path="url(#clip591)" cx="650.982" cy="87.9763" r="14.4" fill="#009af9" fill-rule="evenodd" fill-opacity="0.5" stroke="#000000" stroke-opacity="0.5" stroke-width="3.2"/>
<circle clip-path="url(#clip591)" cx="1089.79" cy="615.159" r="14.4" fill="#009af9" fill-rule="evenodd" fill-opacity="0.5" stroke="#000000" stroke-opacity="0.5" stroke-width="3.2"/>
<circle clip-path="url(#clip591)" cx="1011.61" cy="601.285" r="14.4" fill="#009af9" fill-rule="evenodd" fill-opacity="0.5" stroke="#000000" stroke-opacity="0.5" stroke-width="3.2"/>
<circle clip-path="url(#clip591)" cx="953.16" cy="782.108" r="14.4" fill="#009af9" fill-rule="evenodd" fill-opacity="0.5" stroke="#000000" stroke-opacity="0.5" stroke-width="3.2"/>
<path clip-path="url(#clip591)" d="M209.891 1349.92 L1222.66 1445.72 L1665.02 1187.42 L2145.28 652.338 L2290.34 355.8 L1470.97 203.431 L650.982 87.9763 L355.551 300.044 L291.256 520.903 L209.891 1349.92 L209.891 1349.92  Z" fill="#e26f46" fill-rule="evenodd" fill-opacity="0.2"/>
<polyline clip-path="url(#clip591)" style="stroke:#000000; stroke-linecap:round; stroke-linejoin:round; stroke-width:4; stroke-opacity:0.2; fill:none" points="209.891,1349.92 1222.66,1445.72 1665.02,1187.42 2145.28,652.338 2290.34,355.8 1470.97,203.431 650.982,87.9763 355.551,300.044 291.256,520.903 209.891,1349.92 "/>
</svg>
