<?xml version="1.0" encoding="utf-8"?>
<svg xmlns="http://www.w3.org/2000/svg" xmlns:xlink="http://www.w3.org/1999/xlink" width="600" height="400" viewBox="0 0 2400 1600">
<defs>
  <clipPath id="clip370">
    <rect x="0" y="0" width="2400" height="1600"/>
  </clipPath>
</defs>
<path clip-path="url(#clip370)" d="M0 1600 L2400 1600 L2400 0 L0 0  Z" fill="#ffffff" fill-rule="evenodd" fill-opacity="1"/>
<defs>
  <clipPath id="clip371">
    <rect x="480" y="0" width="1681" height="1600"/>
  </clipPath>
</defs>
<path clip-path="url(#clip370)" d="M147.478 1486.45 L2352.76 1486.45 L2352.76 47.2441 L147.478 47.2441  Z" fill="#ffffff" fill-rule="evenodd" fill-opacity="1"/>
<defs>
  <clipPath id="clip372">
    <rect x="147" y="47" width="2206" height="1440"/>
  </clipPath>
</defs>
<polyline clip-path="url(#clip372)" style="stroke:#000000; stroke-linecap:round; stroke-linejoin:round; stroke-width:2; stroke-opacity:0.1; fill:none" points="304.28,1486.45 304.28,47.2441 "/>
<polyline clip-path="url(#clip372)" style="stroke:#000000; stroke-linecap:round; stroke-linejoin:round; stroke-width:2; stroke-opacity:0.1; fill:none" points="836.743,1486.45 836.743,47.2441 "/>
<polyline clip-path="url(#clip372)" style="stroke:#000000; stroke-linecap:round; stroke-linejoin:round; stroke-width:2; stroke-opacity:0.1; fill:none" points="1369.21,1486.45 1369.21,47.2441 "/>
<polyline clip-path="url(#clip372)" style="stroke:#000000; stroke-linecap:round; stroke-linejoin:round; stroke-width:2; stroke-opacity:0.1; fill:none" points="1901.67,1486.45 1901.67,47.2441 "/>
<polyline clip-path="url(#clip372)" style="stroke:#000000; stroke-linecap:round; stroke-linejoin:round; stroke-width:2; stroke-opacity:0.1; fill:none" points="147.478,1400.91 2352.76,1400.91 "/>
<polyline clip-path="url(#clip372)" style="stroke:#000000; stroke-linecap:round; stroke-linejoin:round; stroke-width:2; stroke-opacity:0.1; fill:none" points="147.478,1103.82 2352.76,1103.82 "/>
<polyline clip-path="url(#clip372)" style="stroke:#000000; stroke-linecap:round; stroke-linejoin:round; stroke-width:2; stroke-opacity:0.1; fill:none" points="147.478,806.723 2352.76,806.723 "/>
<polyline clip-path="url(#clip372)" style="stroke:#000000; stroke-linecap:round; stroke-linejoin:round; stroke-width:2; stroke-opacity:0.1; fill:none" points="147.478,509.629 2352.76,509.629 "/>
<polyline clip-path="url(#clip372)" style="stroke:#000000; stroke-linecap:round; stroke-linejoin:round; stroke-width:2; stroke-opacity:0.1; fill:none" points="147.478,212.535 2352.76,212.535 "/>
<polyline clip-path="url(#clip370)" style="stroke:#000000; stroke-linecap:round; stroke-linejoin:round; stroke-width:4; stroke-opacity:1; fill:none" points="147.478,1486.45 2352.76,1486.45 "/>
<polyline clip-path="url(#clip370)" style="stroke:#000000; stroke-linecap:round; stroke-linejoin:round; stroke-width:4; stroke-opacity:1; fill:none" points="304.28,1486.45 304.28,1467.55 "/>
<polyline clip-path="url(#clip370)" style="stroke:#000000; stroke-linecap:round; stroke-linejoin:round; stroke-width:4; stroke-opacity:1; fill:none" points="836.743,1486.45 836.743,1467.55 "/>
<polyline clip-path="url(#clip370)" style="stroke:#000000; stroke-linecap:round; stroke-linejoin:round; stroke-width:4; stroke-opacity:1; fill:none" points="1369.21,1486.45 1369.21,1467.55 "/>
<polyline clip-path="url(#clip370)" style="stroke:#000000; stroke-linecap:round; stroke-linejoin:round; stroke-width:4; stroke-opacity:1; fill:none" points="1901.67,1486.45 1901.67,1467.55 "/>
<path clip-path="url(#clip370)" d="M274.222 1532.02 L303.898 1532.02 L303.898 1535.95 L274.222 1535.95 L274.222 1532.02 Z" fill="#000000" fill-rule="nonzero" fill-opacity="1" /><path clip-path="url(#clip370)" d="M318.018 1544.91 L334.338 1544.91 L334.338 1548.85 L312.393 1548.85 L312.393 1544.91 Q315.055 1542.16 319.639 1537.53 Q324.245 1532.88 325.426 1531.53 Q327.671 1529.01 328.551 1527.27 Q329.453 1525.51 329.453 1523.82 Q329.453 1521.07 327.509 1519.33 Q325.588 1517.6 322.486 1517.6 Q320.287 1517.6 317.833 1518.36 Q315.402 1519.13 312.625 1520.68 L312.625 1515.95 Q315.449 1514.82 317.902 1514.24 Q320.356 1513.66 322.393 1513.66 Q327.763 1513.66 330.958 1516.35 Q334.152 1519.03 334.152 1523.52 Q334.152 1525.65 333.342 1527.57 Q332.555 1529.47 330.449 1532.07 Q329.87 1532.74 326.768 1535.95 Q323.666 1539.15 318.018 1544.91 Z" fill="#000000" fill-rule="nonzero" fill-opacity="1" /><path clip-path="url(#clip370)" d="M806.5 1532.02 L836.176 1532.02 L836.176 1535.95 L806.5 1535.95 L806.5 1532.02 Z" fill="#000000" fill-rule="nonzero" fill-opacity="1" /><path clip-path="url(#clip370)" d="M847.078 1544.91 L854.717 1544.91 L854.717 1518.55 L846.407 1520.21 L846.407 1515.95 L854.671 1514.29 L859.347 1514.29 L859.347 1544.91 L866.986 1544.91 L866.986 1548.85 L847.078 1548.85 L847.078 1544.91 Z" fill="#000000" fill-rule="nonzero" fill-opacity="1" /><path clip-path="url(#clip370)" d="M1369.21 1517.37 Q1365.59 1517.37 1363.77 1520.93 Q1361.96 1524.47 1361.96 1531.6 Q1361.96 1538.71 1363.77 1542.27 Q1365.59 1545.82 1369.21 1545.82 Q1372.84 1545.82 1374.65 1542.27 Q1376.47 1538.71 1376.47 1531.6 Q1376.47 1524.47 1374.65 1520.93 Q1372.84 1517.37 1369.21 1517.37 M1369.21 1513.66 Q1375.02 1513.66 1378.07 1518.27 Q1381.15 1522.85 1381.15 1531.6 Q1381.15 1540.33 1378.07 1544.94 Q1375.02 1549.52 1369.21 1549.52 Q1363.4 1549.52 1360.32 1544.94 Q1357.26 1540.33 1357.26 1531.6 Q1357.26 1522.85 1360.32 1518.27 Q1363.4 1513.66 1369.21 1513.66 Z" fill="#000000" fill-rule="nonzero" fill-opacity="1" /><path clip-path="url(#clip370)" d="M1892.05 1544.91 L1899.69 1544.91 L1899.69 1518.55 L1891.38 1520.21 L1891.38 1515.95 L1899.64 1514.29 L1904.32 1514.29 L1904.32 1544.91 L1911.96 1544.91 L1911.96 1548.85 L1892.05 1548.85 L1892.05 1544.91 Z" fill="#000000" fill-rule="nonzero" fill-opacity="1" /><polyline clip-path="url(#clip370)" style="stroke:#000000; stroke-linecap:round; stroke-linejoin:round; stroke-width:4; stroke-opacity:1; fill:none" points="147.478,1486.45 147.478,47.2441 "/>
<polyline clip-path="url(#clip370)" style="stroke:#000000; stroke-linecap:round; stroke-linejoin:round; stroke-width:4; stroke-opacity:1; fill:none" points="147.478,1400.91 166.376,1400.91 "/>
<polyline clip-path="url(#clip370)" style="stroke:#000000; stroke-linecap:round; stroke-linejoin:round; stroke-width:4; stroke-opacity:1; fill:none" points="147.478,1103.82 166.376,1103.82 "/>
<polyline clip-path="url(#clip370)" style="stroke:#000000; stroke-linecap:round; stroke-linejoin:round; stroke-width:4; stroke-opacity:1; fill:none" points="147.478,806.723 166.376,806.723 "/>
<polyline clip-path="url(#clip370)" style="stroke:#000000; stroke-linecap:round; stroke-linejoin:round; stroke-width:4; stroke-opacity:1; fill:none" points="147.478,509.629 166.376,509.629 "/>
<polyline clip-path="url(#clip370)" style="stroke:#000000; stroke-linecap:round; stroke-linejoin:round; stroke-width:4; stroke-opacity:1; fill:none" points="147.478,212.535 166.376,212.535 "/>
<path clip-path="url(#clip370)" d="M51.3625 1401.36 L81.0383 1401.36 L81.0383 1405.3 L51.3625 1405.3 L51.3625 1401.36 Z" fill="#000000" fill-rule="nonzero" fill-opacity="1" /><path clip-path="url(#clip370)" d="M95.1586 1414.26 L111.478 1414.26 L111.478 1418.19 L89.5336 1418.19 L89.5336 1414.26 Q92.1956 1411.5 96.7789 1406.87 Q101.385 1402.22 102.566 1400.88 Q104.811 1398.35 105.691 1396.62 Q106.594 1394.86 106.594 1393.17 Q106.594 1390.41 104.649 1388.68 Q102.728 1386.94 99.6261 1386.94 Q97.4271 1386.94 94.9734 1387.7 Q92.5428 1388.47 89.7651 1390.02 L89.7651 1385.3 Q92.5891 1384.16 95.0428 1383.58 Q97.4965 1383.01 99.5335 1383.01 Q104.904 1383.01 108.098 1385.69 Q111.293 1388.38 111.293 1392.87 Q111.293 1395 110.483 1396.92 Q109.696 1398.82 107.589 1401.41 Q107.01 1402.08 103.909 1405.3 Q100.807 1408.49 95.1586 1414.26 Z" fill="#000000" fill-rule="nonzero" fill-opacity="1" /><path clip-path="url(#clip370)" d="M50.9921 1104.27 L80.6679 1104.27 L80.6679 1108.2 L50.9921 1108.2 L50.9921 1104.27 Z" fill="#000000" fill-rule="nonzero" fill-opacity="1" /><path clip-path="url(#clip370)" d="M91.5706 1117.16 L99.2095 1117.16 L99.2095 1090.8 L90.8993 1092.46 L90.8993 1088.2 L99.1632 1086.54 L103.839 1086.54 L103.839 1117.16 L111.478 1117.16 L111.478 1121.1 L91.5706 1121.1 L91.5706 1117.16 Z" fill="#000000" fill-rule="nonzero" fill-opacity="1" /><path clip-path="url(#clip370)" d="M99.5335 792.521 Q95.9224 792.521 94.0937 796.086 Q92.2882 799.628 92.2882 806.757 Q92.2882 813.864 94.0937 817.429 Q95.9224 820.97 99.5335 820.97 Q103.168 820.97 104.973 817.429 Q106.802 813.864 106.802 806.757 Q106.802 799.628 104.973 796.086 Q103.168 792.521 99.5335 792.521 M99.5335 788.818 Q105.344 788.818 108.399 793.424 Q111.478 798.008 111.478 806.757 Q111.478 815.484 108.399 820.091 Q105.344 824.674 99.5335 824.674 Q93.7234 824.674 90.6447 820.091 Q87.5892 815.484 87.5892 806.757 Q87.5892 798.008 90.6447 793.424 Q93.7234 788.818 99.5335 788.818 Z" fill="#000000" fill-rule="nonzero" fill-opacity="1" /><path clip-path="url(#clip370)" d="M91.5706 522.974 L99.2095 522.974 L99.2095 496.608 L90.8993 498.275 L90.8993 494.015 L99.1632 492.349 L103.839 492.349 L103.839 522.974 L111.478 522.974 L111.478 526.909 L91.5706 526.909 L91.5706 522.974 Z" fill="#000000" fill-rule="nonzero" fill-opacity="1" /><path clip-path="url(#clip370)" d="M95.1586 225.88 L111.478 225.88 L111.478 229.815 L89.5336 229.815 L89.5336 225.88 Q92.1956 223.125 96.7789 218.496 Q101.385 213.843 102.566 212.5 Q104.811 209.977 105.691 208.241 Q106.594 206.482 106.594 204.792 Q106.594 202.037 104.649 200.301 Q102.728 198.565 99.6261 198.565 Q97.4271 198.565 94.9734 199.329 Q92.5428 200.093 89.7651 201.644 L89.7651 196.922 Q92.5891 195.787 95.0428 195.209 Q97.4965 194.63 99.5335 194.63 Q104.904 194.63 108.098 197.315 Q111.293 200 111.293 204.491 Q111.293 206.621 110.483 208.542 Q109.696 210.44 107.589 213.033 Q107.01 213.704 103.909 216.921 Q100.807 220.116 95.1586 225.88 Z" fill="#000000" fill-rule="nonzero" fill-opacity="1" /><circle clip-path="url(#clip372)" cx="975.884" cy="1219.12" r="14.4" fill="#009af9" fill-rule="evenodd" fill-opacity="0.5" stroke="#000000" stroke-opacity="0.5" stroke-width="3.2"/>
<circle clip-path="url(#clip372)" cx="598.86" cy="884.977" r="14.4" fill="#009af9" fill-rule="evenodd" fill-opacity="0.5" stroke="#000000" stroke-opacity="0.5" stroke-width="3.2"/>
<circle clip-path="url(#clip372)" cx="725.434" cy="638.066" r="14.4" fill="#009af9" fill-rule="evenodd" fill-opacity="0.5" stroke="#000000" stroke-opacity="0.5" stroke-width="3.2"/>
<circle clip-path="url(#clip372)" cx="963.418" cy="1070.72" r="14.4" fill="#009af9" fill-rule="evenodd" fill-opacity="0.5" stroke="#000000" stroke-opacity="0.5" stroke-width="3.2"/>
<circle clip-path="url(#clip372)" cx="2290.34" cy="628.806" r="14.4" fill="#009af9" fill-rule="evenodd" fill-opacity="0.5" stroke="#000000" stroke-opacity="0.5" stroke-width="3.2"/>
<circle clip-path="url(#clip372)" cx="1811.12" cy="909.618" r="14.4" fill="#009af9" fill-rule="evenodd" fill-opacity="0.5" stroke="#000000" stroke-opacity="0.5" stroke-width="3.2"/>
<circle clip-path="url(#clip372)" cx="871.616" cy="1012.96" r="14.4" fill="#009af9" fill-rule="evenodd" fill-opacity="0.5" stroke="#000000" stroke-opacity="0.5" stroke-width="3.2"/>
<circle clip-path="url(#clip372)" cx="1697.49" cy="654.754" r="14.4" fill="#009af9" fill-rule="evenodd" fill-opacity="0.5" stroke="#000000" stroke-opacity="0.5" stroke-width="3.2"/>
<circle clip-path="url(#clip372)" cx="1828.06" cy="874.554" r="14.4" fill="#009af9" fill-rule="evenodd" fill-opacity="0.5" stroke="#000000" stroke-opacity="0.5" stroke-width="3.2"/>
<circle clip-path="url(#clip372)" cx="216.964" cy="818.554" r="14.4" fill="#009af9" fill-rule="evenodd" fill-opacity="0.5" stroke="#000000" stroke-opacity="0.5" stroke-width="3.2"/>
<circle clip-path="url(#clip372)" cx="1594.22" cy="357.39" r="14.4" fill="#009af9" fill-rule="evenodd" fill-opacity="0.5" stroke="#000000" stroke-opacity="0.5" stroke-width="3.2"/>
<circle clip-path="url(#clip372)" cx="1342.33" cy="87.9763" r="14.4" fill="#009af9" fill-rule="evenodd" fill-opacity="0.5" stroke="#000000" stroke-opacity="0.5" stroke-width="3.2"/>
<circle clip-path="url(#clip372)" cx="1611.65" cy="500.166" r="14.4" fill="#009af9" fill-rule="evenodd" fill-opacity="0.5" stroke="#000000" stroke-opacity="0.5" stroke-width="3.2"/>
<circle clip-path="url(#clip372)" cx="1747.22" cy="1287.75" r="14.4" fill="#009af9" fill-rule="evenodd" fill-opacity="0.5" stroke="#000000" stroke-opacity="0.5" stroke-width="3.2"/>
<circle clip-path="url(#clip372)" cx="1594.49" cy="1236.06" r="14.4" fill="#009af9" fill-rule="evenodd" fill-opacity="0.5" stroke="#000000" stroke-opacity="0.5" stroke-width="3.2"/>
<circle clip-path="url(#clip372)" cx="1027.8" cy="704.666" r="14.4" fill="#009af9" fill-rule="evenodd" fill-opacity="0.5" stroke="#000000" stroke-opacity="0.5" stroke-width="3.2"/>
<circle clip-path="url(#clip372)" cx="784.465" cy="1190.33" r="14.4" fill="#009af9" fill-rule="evenodd" fill-opacity="0.5" stroke="#000000" stroke-opacity="0.5" stroke-width="3.2"/>
<circle clip-path="url(#clip372)" cx="2028.65" cy="510.243" r="14.4" fill="#009af9" fill-rule="evenodd" fill-opacity="0.5" stroke="#000000" stroke-opacity="0.5" stroke-width="3.2"/>
<circle clip-path="url(#clip372)" cx="2092.29" cy="377.99" r="14.4" fill="#009af9" fill-rule="evenodd" fill-opacity="0.5" stroke="#000000" stroke-opacity="0.5" stroke-width="3.2"/>
<circle clip-path="url(#clip372)" cx="1585.54" cy="444.941" r="14.4" fill="#009af9" fill-rule="evenodd" fill-opacity="0.5" stroke="#000000" stroke-opacity="0.5" stroke-width="3.2"/>
<circle clip-path="url(#clip372)" cx="209.891" cy="340.658" r="14.4" fill="#009af9" fill-rule="evenodd" fill-opacity="0.5" stroke="#000000" stroke-opacity="0.5" stroke-width="3.2"/>
<circle clip-path="url(#clip372)" cx="1261.96" cy="1231.43" r="14.4" fill="#009af9" fill-rule="evenodd" fill-opacity="0.5" stroke="#000000" stroke-opacity="0.5" stroke-width="3.2"/>
<circle clip-path="url(#clip372)" cx="2206.16" cy="602.498" r="14.4" fill="#009af9" fill-rule="evenodd" fill-opacity="0.5" stroke="#000000" stroke-opacity="0.5" stroke-width="3.2"/>
<circle clip-path="url(#clip372)" cx="1757.9" cy="1186.29" r="14.4" fill="#009af9" fill-rule="evenodd" fill-opacity="0.5" stroke="#000000" stroke-opacity="0.5" stroke-width="3.2"/>
<circle clip-path="url(#clip372)" cx="1075.23" cy="1268.43" r="14.4" fill="#009af9" fill-rule="evenodd" fill-opacity="0.5" stroke="#000000" stroke-opacity="0.5" stroke-width="3.2"/>
<circle clip-path="url(#clip372)" cx="1426.51" cy="518.279" r="14.4" fill="#009af9" fill-rule="evenodd" fill-opacity="0.5" stroke="#000000" stroke-opacity="0.5" stroke-width="3.2"/>
<circle clip-path="url(#clip372)" cx="1926.02" cy="1445.72" r="14.4" fill="#009af9" fill-rule="evenodd" fill-opacity="0.5" stroke="#000000" stroke-opacity="0.5" stroke-width="3.2"/>
<circle clip-path="url(#clip372)" cx="711.464" cy="1105.85" r="14.4" fill="#009af9" fill-rule="evenodd" fill-opacity="0.5" stroke="#000000" stroke-opacity="0.5" stroke-width="3.2"/>
<circle clip-path="url(#clip372)" cx="1621.56" cy="770.382" r="14.4" fill="#009af9" fill-rule="evenodd" fill-opacity="0.5" stroke="#000000" stroke-opacity="0.5" stroke-width="3.2"/>
<circle clip-path="url(#clip372)" cx="1898.11" cy="217.033" r="14.4" fill="#009af9" fill-rule="evenodd" fill-opacity="0.5" stroke="#000000" stroke-opacity="0.5" stroke-width="3.2"/>
<path clip-path="url(#clip372)" d="M209.891 340.658 L216.964 818.554 L784.465 1190.33 L1075.23 1268.43 L1926.02 1445.72 L2290.34 628.806 L2092.29 377.99 L1898.11 217.033 L1342.33 87.9763 L209.891 340.658 L209.891 340.658  Z" fill="#e26f46" fill-rule="evenodd" fill-opacity="0.2"/>
<polyline clip-path="url(#clip372)" style="stroke:#000000; stroke-linecap:round; stroke-linejoin:round; stroke-width:4; stroke-opacity:0.2; fill:none" points="209.891,340.658 216.964,818.554 784.465,1190.33 1075.23,1268.43 1926.02,1445.72 2290.34,628.806 2092.29,377.99 1898.11,217.033 1342.33,87.9763 209.891,340.658 "/>
</svg>
