<?xml version="1.0" encoding="utf-8"?>
<svg xmlns="http://www.w3.org/2000/svg" xmlns:xlink="http://www.w3.org/1999/xlink" width="600" height="400" viewBox="0 0 2400 1600">
<defs>
  <clipPath id="clip040">
    <rect x="0" y="0" width="2400" height="1600"/>
  </clipPath>
</defs>
<path clip-path="url(#clip040)" d="M0 1600 L2400 1600 L2400 0 L0 0  Z" fill="#ffffff" fill-rule="evenodd" fill-opacity="1"/>
<defs>
  <clipPath id="clip041">
    <rect x="480" y="0" width="1681" height="1600"/>
  </clipPath>
</defs>
<path clip-path="url(#clip040)" d="M147.478 1486.45 L2352.76 1486.45 L2352.76 47.2441 L147.478 47.2441  Z" fill="#ffffff" fill-rule="evenodd" fill-opacity="1"/>
<defs>
  <clipPath id="clip042">
    <rect x="147" y="47" width="2206" height="1440"/>
  </clipPath>
</defs>
<polyline clip-path="url(#clip042)" style="stroke:#000000; stroke-linecap:round; stroke-linejoin:round; stroke-width:2; stroke-opacity:0.1; fill:none" points="344.802,1486.45 344.802,47.2441 "/>
<polyline clip-path="url(#clip042)" style="stroke:#000000; stroke-linecap:round; stroke-linejoin:round; stroke-width:2; stroke-opacity:0.1; fill:none" points="808.057,1486.45 808.057,47.2441 "/>
<polyline clip-path="url(#clip042)" style="stroke:#000000; stroke-linecap:round; stroke-linejoin:round; stroke-width:2; stroke-opacity:0.1; fill:none" points="1271.31,1486.45 1271.31,47.2441 "/>
<polyline clip-path="url(#clip042)" style="stroke:#000000; stroke-linecap:round; stroke-linejoin:round; stroke-width:2; stroke-opacity:0.1; fill:none" points="1734.57,1486.45 1734.57,47.2441 "/>
<polyline clip-path="url(#clip042)" style="stroke:#000000; stroke-linecap:round; stroke-linejoin:round; stroke-width:2; stroke-opacity:0.1; fill:none" points="2197.82,1486.45 2197.82,47.2441 "/>
<polyline clip-path="url(#clip042)" style="stroke:#000000; stroke-linecap:round; stroke-linejoin:round; stroke-width:2; stroke-opacity:0.1; fill:none" points="147.478,1250.32 2352.76,1250.32 "/>
<polyline clip-path="url(#clip042)" style="stroke:#000000; stroke-linecap:round; stroke-linejoin:round; stroke-width:2; stroke-opacity:0.1; fill:none" points="147.478,872.431 2352.76,872.431 "/>
<polyline clip-path="url(#clip042)" style="stroke:#000000; stroke-linecap:round; stroke-linejoin:round; stroke-width:2; stroke-opacity:0.1; fill:none" points="147.478,494.544 2352.76,494.544 "/>
<polyline clip-path="url(#clip042)" style="stroke:#000000; stroke-linecap:round; stroke-linejoin:round; stroke-width:2; stroke-opacity:0.1; fill:none" points="147.478,116.657 2352.76,116.657 "/>
<polyline clip-path="url(#clip040)" style="stroke:#000000; stroke-linecap:round; stroke-linejoin:round; stroke-width:4; stroke-opacity:1; fill:none" points="147.478,1486.45 2352.76,1486.45 "/>
<polyline clip-path="url(#clip040)" style="stroke:#000000; stroke-linecap:round; stroke-linejoin:round; stroke-width:4; stroke-opacity:1; fill:none" points="344.802,1486.45 344.802,1467.55 "/>
<polyline clip-path="url(#clip040)" style="stroke:#000000; stroke-linecap:round; stroke-linejoin:round; stroke-width:4; stroke-opacity:1; fill:none" points="808.057,1486.45 808.057,1467.55 "/>
<polyline clip-path="url(#clip040)" style="stroke:#000000; stroke-linecap:round; stroke-linejoin:round; stroke-width:4; stroke-opacity:1; fill:none" points="1271.31,1486.45 1271.31,1467.55 "/>
<polyline clip-path="url(#clip040)" style="stroke:#000000; stroke-linecap:round; stroke-linejoin:round; stroke-width:4; stroke-opacity:1; fill:none" points="1734.57,1486.45 1734.57,1467.55 "/>
<polyline clip-path="url(#clip040)" style="stroke:#000000; stroke-linecap:round; stroke-linejoin:round; stroke-width:4; stroke-opacity:1; fill:none" points="2197.82,1486.45 2197.82,1467.55 "/>
<path clip-path="url(#clip040)" d="M314.744 1532.02 L344.42 1532.02 L344.42 1535.95 L314.744 1535.95 L314.744 1532.02 Z" fill="#000000" fill-rule="nonzero" fill-opacity="1" /><path clip-path="url(#clip040)" d="M358.54 1544.91 L374.859 1544.91 L374.859 1548.85 L352.915 1548.85 L352.915 1544.91 Q355.577 1542.16 360.16 1537.53 Q364.767 1532.88 365.947 1531.53 Q368.193 1529.01 369.072 1527.27 Q369.975 1525.51 369.975 1523.82 Q369.975 1521.07 368.031 1519.33 Q366.109 1517.6 363.008 1517.6 Q360.808 1517.6 358.355 1518.36 Q355.924 1519.13 353.147 1520.68 L353.147 1515.95 Q355.971 1514.82 358.424 1514.24 Q360.878 1513.66 362.915 1513.66 Q368.285 1513.66 371.48 1516.35 Q374.674 1519.03 374.674 1523.52 Q374.674 1525.65 373.864 1527.57 Q373.077 1529.47 370.97 1532.07 Q370.392 1532.74 367.29 1535.95 Q364.188 1539.15 358.54 1544.91 Z" fill="#000000" fill-rule="nonzero" fill-opacity="1" /><path clip-path="url(#clip040)" d="M777.814 1532.02 L807.49 1532.02 L807.49 1535.95 L777.814 1535.95 L777.814 1532.02 Z" fill="#000000" fill-rule="nonzero" fill-opacity="1" /><path clip-path="url(#clip040)" d="M818.393 1544.91 L826.032 1544.91 L826.032 1518.55 L817.722 1520.21 L817.722 1515.95 L825.985 1514.29 L830.661 1514.29 L830.661 1544.91 L838.3 1544.91 L838.3 1548.85 L818.393 1548.85 L818.393 1544.91 Z" fill="#000000" fill-rule="nonzero" fill-opacity="1" /><path clip-path="url(#clip040)" d="M1271.31 1517.37 Q1267.7 1517.37 1265.87 1520.93 Q1264.07 1524.47 1264.07 1531.6 Q1264.07 1538.71 1265.87 1542.27 Q1267.7 1545.82 1271.31 1545.82 Q1274.95 1545.82 1276.75 1542.27 Q1278.58 1538.71 1278.58 1531.6 Q1278.58 1524.47 1276.75 1520.93 Q1274.95 1517.37 1271.31 1517.37 M1271.31 1513.66 Q1277.12 1513.66 1280.18 1518.27 Q1283.26 1522.85 1283.26 1531.6 Q1283.26 1540.33 1280.18 1544.94 Q1277.12 1549.52 1271.31 1549.52 Q1265.5 1549.52 1262.42 1544.94 Q1259.37 1540.33 1259.37 1531.6 Q1259.37 1522.85 1262.42 1518.27 Q1265.5 1513.66 1271.31 1513.66 Z" fill="#000000" fill-rule="nonzero" fill-opacity="1" /><path clip-path="url(#clip040)" d="M1724.95 1544.91 L1732.59 1544.91 L1732.59 1518.55 L1724.28 1520.21 L1724.28 1515.95 L1732.54 1514.29 L1737.22 1514.29 L1737.22 1544.91 L1744.86 1544.91 L1744.86 1548.85 L1724.95 1548.85 L1724.95 1544.91 Z" fill="#000000" fill-rule="nonzero" fill-opacity="1" /><path clip-path="url(#clip040)" d="M2192.48 1544.91 L2208.8 1544.91 L2208.8 1548.85 L2186.85 1548.85 L2186.85 1544.91 Q2189.51 1542.16 2194.1 1537.53 Q2198.7 1532.88 2199.88 1531.53 Q2202.13 1529.01 2203.01 1527.27 Q2203.91 1525.51 2203.91 1523.82 Q2203.91 1521.07 2201.97 1519.33 Q2200.05 1517.6 2196.94 1517.6 Q2194.75 1517.6 2192.29 1518.36 Q2189.86 1519.13 2187.08 1520.68 L2187.08 1515.95 Q2189.91 1514.82 2192.36 1514.24 Q2194.81 1513.66 2196.85 1513.66 Q2202.22 1513.66 2205.42 1516.35 Q2208.61 1519.03 2208.61 1523.52 Q2208.61 1525.65 2207.8 1527.57 Q2207.01 1529.47 2204.91 1532.07 Q2204.33 1532.74 2201.23 1535.95 Q2198.13 1539.15 2192.48 1544.91 Z" fill="#000000" fill-rule="nonzero" fill-opacity="1" /><polyline clip-path="url(#clip040)" style="stroke:#000000; stroke-linecap:round; stroke-linejoin:round; stroke-width:4; stroke-opacity:1; fill:none" points="147.478,1486.45 147.478,47.2441 "/>
<polyline clip-path="url(#clip040)" style="stroke:#000000; stroke-linecap:round; stroke-linejoin:round; stroke-width:4; stroke-opacity:1; fill:none" points="147.478,1250.32 166.376,1250.32 "/>
<polyline clip-path="url(#clip040)" style="stroke:#000000; stroke-linecap:round; stroke-linejoin:round; stroke-width:4; stroke-opacity:1; fill:none" points="147.478,872.431 166.376,872.431 "/>
<polyline clip-path="url(#clip040)" style="stroke:#000000; stroke-linecap:round; stroke-linejoin:round; stroke-width:4; stroke-opacity:1; fill:none" points="147.478,494.544 166.376,494.544 "/>
<polyline clip-path="url(#clip040)" style="stroke:#000000; stroke-linecap:round; stroke-linejoin:round; stroke-width:4; stroke-opacity:1; fill:none" points="147.478,116.657 166.376,116.657 "/>
<path clip-path="url(#clip040)" d="M50.9921 1250.77 L80.6679 1250.77 L80.6679 1254.7 L50.9921 1254.7 L50.9921 1250.77 Z" fill="#000000" fill-rule="nonzero" fill-opacity="1" /><path clip-path="url(#clip040)" d="M91.5706 1263.66 L99.2095 1263.66 L99.2095 1237.3 L90.8993 1238.96 L90.8993 1234.7 L99.1632 1233.04 L103.839 1233.04 L103.839 1263.66 L111.478 1263.66 L111.478 1267.6 L91.5706 1267.6 L91.5706 1263.66 Z" fill="#000000" fill-rule="nonzero" fill-opacity="1" /><path clip-path="url(#clip040)" d="M99.5335 858.23 Q95.9224 858.23 94.0937 861.795 Q92.2882 865.336 92.2882 872.466 Q92.2882 879.572 94.0937 883.137 Q95.9224 886.679 99.5335 886.679 Q103.168 886.679 104.973 883.137 Q106.802 879.572 106.802 872.466 Q106.802 865.336 104.973 861.795 Q103.168 858.23 99.5335 858.23 M99.5335 854.526 Q105.344 854.526 108.399 859.133 Q111.478 863.716 111.478 872.466 Q111.478 881.193 108.399 885.799 Q105.344 890.383 99.5335 890.383 Q93.7234 890.383 90.6447 885.799 Q87.5892 881.193 87.5892 872.466 Q87.5892 863.716 90.6447 859.133 Q93.7234 854.526 99.5335 854.526 Z" fill="#000000" fill-rule="nonzero" fill-opacity="1" /><path clip-path="url(#clip040)" d="M91.5706 507.889 L99.2095 507.889 L99.2095 481.524 L90.8993 483.19 L90.8993 478.931 L99.1632 477.264 L103.839 477.264 L103.839 507.889 L111.478 507.889 L111.478 511.824 L91.5706 511.824 L91.5706 507.889 Z" fill="#000000" fill-rule="nonzero" fill-opacity="1" /><path clip-path="url(#clip040)" d="M95.1586 130.002 L111.478 130.002 L111.478 133.937 L89.5336 133.937 L89.5336 130.002 Q92.1956 127.248 96.7789 122.618 Q101.385 117.965 102.566 116.623 Q104.811 114.1 105.691 112.364 Q106.594 110.604 106.594 108.914 Q106.594 106.16 104.649 104.424 Q102.728 102.688 99.6261 102.688 Q97.4271 102.688 94.9734 103.452 Q92.5428 104.215 89.7651 105.766 L89.7651 101.044 Q92.5891 99.9099 95.0428 99.3312 Q97.4965 98.7525 99.5335 98.7525 Q104.904 98.7525 108.098 101.438 Q111.293 104.123 111.293 108.614 Q111.293 110.743 110.483 112.664 Q109.696 114.563 107.589 117.155 Q107.01 117.826 103.909 121.044 Q100.807 124.238 95.1586 130.002 Z" fill="#000000" fill-rule="nonzero" fill-opacity="1" /><circle clip-path="url(#clip042)" cx="1522.62" cy="87.9763" r="14.4" fill="#009af9" fill-rule="evenodd" fill-opacity="0.5" stroke="#000000" stroke-opacity="0.5" stroke-width="3.2"/>
<circle clip-path="url(#clip042)" cx="1954.18" cy="878.799" r="14.4" fill="#009af9" fill-rule="evenodd" fill-opacity="0.5" stroke="#000000" stroke-opacity="0.5" stroke-width="3.2"/>
<circle clip-path="url(#clip042)" cx="917.296" cy="804.904" r="14.4" fill="#009af9" fill-rule="evenodd" fill-opacity="0.5" stroke="#000000" stroke-opacity="0.5" stroke-width="3.2"/>
<circle clip-path="url(#clip042)" cx="1194.43" cy="400.63" r="14.4" fill="#009af9" fill-rule="evenodd" fill-opacity="0.5" stroke="#000000" stroke-opacity="0.5" stroke-width="3.2"/>
<circle clip-path="url(#clip042)" cx="1758.2" cy="742.77" r="14.4" fill="#009af9" fill-rule="evenodd" fill-opacity="0.5" stroke="#000000" stroke-opacity="0.5" stroke-width="3.2"/>
<circle clip-path="url(#clip042)" cx="656.209" cy="1206.44" r="14.4" fill="#009af9" fill-rule="evenodd" fill-opacity="0.5" stroke="#000000" stroke-opacity="0.5" stroke-width="3.2"/>
<circle clip-path="url(#clip042)" cx="1674.56" cy="618.699" r="14.4" fill="#009af9" fill-rule="evenodd" fill-opacity="0.5" stroke="#000000" stroke-opacity="0.5" stroke-width="3.2"/>
<circle clip-path="url(#clip042)" cx="478.741" cy="1096.68" r="14.4" fill="#009af9" fill-rule="evenodd" fill-opacity="0.5" stroke="#000000" stroke-opacity="0.5" stroke-width="3.2"/>
<circle clip-path="url(#clip042)" cx="1712.43" cy="291.845" r="14.4" fill="#009af9" fill-rule="evenodd" fill-opacity="0.5" stroke="#000000" stroke-opacity="0.5" stroke-width="3.2"/>
<circle clip-path="url(#clip042)" cx="858.309" cy="771.592" r="14.4" fill="#009af9" fill-rule="evenodd" fill-opacity="0.5" stroke="#000000" stroke-opacity="0.5" stroke-width="3.2"/>
<circle clip-path="url(#clip042)" cx="1373.6" cy="750.269" r="14.4" fill="#009af9" fill-rule="evenodd" fill-opacity="0.5" stroke="#000000" stroke-opacity="0.5" stroke-width="3.2"/>
<circle clip-path="url(#clip042)" cx="1355.04" cy="848.149" r="14.4" fill="#009af9" fill-rule="evenodd" fill-opacity="0.5" stroke="#000000" stroke-opacity="0.5" stroke-width="3.2"/>
<circle clip-path="url(#clip042)" cx="1210.24" cy="476.749" r="14.4" fill="#009af9" fill-rule="evenodd" fill-opacity="0.5" stroke="#000000" stroke-opacity="0.5" stroke-width="3.2"/>
<circle clip-path="url(#clip042)" cx="1523.62" cy="1300.99" r="14.4" fill="#009af9" fill-rule="evenodd" fill-opacity="0.5" stroke="#000000" stroke-opacity="0.5" stroke-width="3.2"/>
<circle clip-path="url(#clip042)" cx="1918.41" cy="1176.4" r="14.4" fill="#009af9" fill-rule="evenodd" fill-opacity="0.5" stroke="#000000" stroke-opacity="0.5" stroke-width="3.2"/>
<circle clip-path="url(#clip042)" cx="2290.34" cy="1318.56" r="14.4" fill="#009af9" fill-rule="evenodd" fill-opacity="0.5" stroke="#000000" stroke-opacity="0.5" stroke-width="3.2"/>
<circle clip-path="url(#clip042)" cx="1742.12" cy="534.489" r="14.4" fill="#009af9" fill-rule="evenodd" fill-opacity="0.5" stroke="#000000" stroke-opacity="0.5" stroke-width="3.2"/>
<circle clip-path="url(#clip042)" cx="1167.43" cy="372.504" r="14.4" fill="#009af9" fill-rule="evenodd" fill-opacity="0.5" stroke="#000000" stroke-opacity="0.5" stroke-width="3.2"/>
<circle clip-path="url(#clip042)" cx="1731.69" cy="753.122" r="14.4" fill="#009af9" fill-rule="evenodd" fill-opacity="0.5" stroke="#000000" stroke-opacity="0.5" stroke-width="3.2"/>
<circle clip-path="url(#clip042)" cx="899.426" cy="776.337" r="14.4" fill="#009af9" fill-rule="evenodd" fill-opacity="0.5" stroke="#000000" stroke-opacity="0.5" stroke-width="3.2"/>
<circle clip-path="url(#clip042)" cx="209.891" cy="394.198" r="14.4" fill="#009af9" fill-rule="evenodd" fill-opacity="0.5" stroke="#000000" stroke-opacity="0.5" stroke-width="3.2"/>
<circle clip-path="url(#clip042)" cx="694.72" cy="288.65" r="14.4" fill="#009af9" fill-rule="evenodd" fill-opacity="0.5" stroke="#000000" stroke-opacity="0.5" stroke-width="3.2"/>
<circle clip-path="url(#clip042)" cx="1652.72" cy="611.255" r="14.4" fill="#009af9" fill-rule="evenodd" fill-opacity="0.5" stroke="#000000" stroke-opacity="0.5" stroke-width="3.2"/>
<circle clip-path="url(#clip042)" cx="1160.35" cy="792.995" r="14.4" fill="#009af9" fill-rule="evenodd" fill-opacity="0.5" stroke="#000000" stroke-opacity="0.5" stroke-width="3.2"/>
<circle clip-path="url(#clip042)" cx="897.279" cy="517.208" r="14.4" fill="#009af9" fill-rule="evenodd" fill-opacity="0.5" stroke="#000000" stroke-opacity="0.5" stroke-width="3.2"/>
<circle clip-path="url(#clip042)" cx="1276.22" cy="1445.72" r="14.4" fill="#009af9" fill-rule="evenodd" fill-opacity="0.5" stroke="#000000" stroke-opacity="0.5" stroke-width="3.2"/>
<circle clip-path="url(#clip042)" cx="1202" cy="737.692" r="14.4" fill="#009af9" fill-rule="evenodd" fill-opacity="0.5" stroke="#000000" stroke-opacity="0.5" stroke-width="3.2"/>
<circle clip-path="url(#clip042)" cx="1514.71" cy="450.327" r="14.4" fill="#009af9" fill-rule="evenodd" fill-opacity="0.5" stroke="#000000" stroke-opacity="0.5" stroke-width="3.2"/>
<circle clip-path="url(#clip042)" cx="1770.1" cy="519.28" r="14.4" fill="#009af9" fill-rule="evenodd" fill-opacity="0.5" stroke="#000000" stroke-opacity="0.5" stroke-width="3.2"/>
<circle clip-path="url(#clip042)" cx="1597.07" cy="470.881" r="14.4" fill="#009af9" fill-rule="evenodd" fill-opacity="0.5" stroke="#000000" stroke-opacity="0.5" stroke-width="3.2"/>
<path clip-path="url(#clip042)" d="M209.891 394.198 L478.741 1096.68 L656.209 1206.44 L1276.22 1445.72 L2290.34 1318.56 L1712.43 291.845 L1522.62 87.9763 L209.891 394.198 L209.891 394.198  Z" fill="#e26f46" fill-rule="evenodd" fill-opacity="0.2"/>
<polyline clip-path="url(#clip042)" style="stroke:#000000; stroke-linecap:round; stroke-linejoin:round; stroke-width:4; stroke-opacity:0.2; fill:none" points="209.891,394.198 478.741,1096.68 656.209,1206.44 1276.22,1445.72 2290.34,1318.56 1712.43,291.845 1522.62,87.9763 209.891,394.198 "/>
</svg>
