<?xml version="1.0" encoding="utf-8"?>
<svg xmlns="http://www.w3.org/2000/svg" xmlns:xlink="http://www.w3.org/1999/xlink" width="600" height="400" viewBox="0 0 2400 1600">
<defs>
  <clipPath id="clip620">
    <rect x="0" y="0" width="2400" height="1600"/>
  </clipPath>
</defs>
<path clip-path="url(#clip620)" d="M0 1600 L2400 1600 L2400 0 L0 0  Z" fill="#ffffff" fill-rule="evenodd" fill-opacity="1"/>
<defs>
  <clipPath id="clip621">
    <rect x="148" y="47" width="2206" height="1440"/>
  </clipPath>
</defs>
<path clip-path="url(#clip620)" d="M148.057 1486.45 L2352.76 1486.45 L2352.76 47.2441 L148.057 47.2441  Z" fill="#ffffff" fill-rule="evenodd" fill-opacity="1"/>
<polyline clip-path="url(#clip621)" style="stroke:#000000; stroke-linecap:round; stroke-linejoin:round; stroke-width:2; stroke-opacity:0.1; fill:none" points="428.804,1486.45 428.804,47.2441 "/>
<polyline clip-path="url(#clip621)" style="stroke:#000000; stroke-linecap:round; stroke-linejoin:round; stroke-width:2; stroke-opacity:0.1; fill:none" points="862.941,1486.45 862.941,47.2441 "/>
<polyline clip-path="url(#clip621)" style="stroke:#000000; stroke-linecap:round; stroke-linejoin:round; stroke-width:2; stroke-opacity:0.1; fill:none" points="1297.08,1486.45 1297.08,47.2441 "/>
<polyline clip-path="url(#clip621)" style="stroke:#000000; stroke-linecap:round; stroke-linejoin:round; stroke-width:2; stroke-opacity:0.1; fill:none" points="1731.22,1486.45 1731.22,47.2441 "/>
<polyline clip-path="url(#clip621)" style="stroke:#000000; stroke-linecap:round; stroke-linejoin:round; stroke-width:2; stroke-opacity:0.1; fill:none" points="2165.35,1486.45 2165.35,47.2441 "/>
<polyline clip-path="url(#clip621)" style="stroke:#000000; stroke-linecap:round; stroke-linejoin:round; stroke-width:2; stroke-opacity:0.1; fill:none" points="148.057,1463.92 2352.76,1463.92 "/>
<polyline clip-path="url(#clip621)" style="stroke:#000000; stroke-linecap:round; stroke-linejoin:round; stroke-width:2; stroke-opacity:0.1; fill:none" points="148.057,1213.08 2352.76,1213.08 "/>
<polyline clip-path="url(#clip621)" style="stroke:#000000; stroke-linecap:round; stroke-linejoin:round; stroke-width:2; stroke-opacity:0.1; fill:none" points="148.057,962.235 2352.76,962.235 "/>
<polyline clip-path="url(#clip621)" style="stroke:#000000; stroke-linecap:round; stroke-linejoin:round; stroke-width:2; stroke-opacity:0.1; fill:none" points="148.057,711.392 2352.76,711.392 "/>
<polyline clip-path="url(#clip621)" style="stroke:#000000; stroke-linecap:round; stroke-linejoin:round; stroke-width:2; stroke-opacity:0.1; fill:none" points="148.057,460.549 2352.76,460.549 "/>
<polyline clip-path="url(#clip621)" style="stroke:#000000; stroke-linecap:round; stroke-linejoin:round; stroke-width:2; stroke-opacity:0.1; fill:none" points="148.057,209.706 2352.76,209.706 "/>
<polyline clip-path="url(#clip620)" style="stroke:#000000; stroke-linecap:round; stroke-linejoin:round; stroke-width:4; stroke-opacity:1; fill:none" points="148.057,1486.45 2352.76,1486.45 "/>
<polyline clip-path="url(#clip620)" style="stroke:#000000; stroke-linecap:round; stroke-linejoin:round; stroke-width:4; stroke-opacity:1; fill:none" points="428.804,1486.45 428.804,1467.55 "/>
<polyline clip-path="url(#clip620)" style="stroke:#000000; stroke-linecap:round; stroke-linejoin:round; stroke-width:4; stroke-opacity:1; fill:none" points="862.941,1486.45 862.941,1467.55 "/>
<polyline clip-path="url(#clip620)" style="stroke:#000000; stroke-linecap:round; stroke-linejoin:round; stroke-width:4; stroke-opacity:1; fill:none" points="1297.08,1486.45 1297.08,1467.55 "/>
<polyline clip-path="url(#clip620)" style="stroke:#000000; stroke-linecap:round; stroke-linejoin:round; stroke-width:4; stroke-opacity:1; fill:none" points="1731.22,1486.45 1731.22,1467.55 "/>
<polyline clip-path="url(#clip620)" style="stroke:#000000; stroke-linecap:round; stroke-linejoin:round; stroke-width:4; stroke-opacity:1; fill:none" points="2165.35,1486.45 2165.35,1467.55 "/>
<path clip-path="url(#clip620)" d="M398.272 1532.02 L427.947 1532.02 L427.947 1535.95 L398.272 1535.95 L398.272 1532.02 Z" fill="#000000" fill-rule="nonzero" fill-opacity="1" /><path clip-path="url(#clip620)" d="M452.207 1530.21 Q455.563 1530.93 457.438 1533.2 Q459.336 1535.47 459.336 1538.8 Q459.336 1543.92 455.818 1546.72 Q452.299 1549.52 445.818 1549.52 Q443.642 1549.52 441.327 1549.08 Q439.035 1548.66 436.582 1547.81 L436.582 1543.29 Q438.526 1544.43 440.841 1545.01 Q443.156 1545.58 445.679 1545.58 Q450.077 1545.58 452.369 1543.85 Q454.683 1542.11 454.683 1538.8 Q454.683 1535.75 452.531 1534.03 Q450.401 1532.3 446.582 1532.3 L442.554 1532.3 L442.554 1528.45 L446.767 1528.45 Q450.216 1528.45 452.044 1527.09 Q453.873 1525.7 453.873 1523.11 Q453.873 1520.45 451.975 1519.03 Q450.1 1517.6 446.582 1517.6 Q444.66 1517.6 442.461 1518.01 Q440.262 1518.43 437.623 1519.31 L437.623 1515.14 Q440.285 1514.4 442.6 1514.03 Q444.938 1513.66 446.998 1513.66 Q452.322 1513.66 455.424 1516.09 Q458.526 1518.5 458.526 1522.62 Q458.526 1525.49 456.882 1527.48 Q455.239 1529.45 452.207 1530.21 Z" fill="#000000" fill-rule="nonzero" fill-opacity="1" /><path clip-path="url(#clip620)" d="M832.883 1532.02 L862.559 1532.02 L862.559 1535.95 L832.883 1535.95 L832.883 1532.02 Z" fill="#000000" fill-rule="nonzero" fill-opacity="1" /><path clip-path="url(#clip620)" d="M876.679 1544.91 L892.999 1544.91 L892.999 1548.85 L871.055 1548.85 L871.055 1544.91 Q873.717 1542.16 878.3 1537.53 Q882.906 1532.88 884.087 1531.53 Q886.332 1529.01 887.212 1527.27 Q888.115 1525.51 888.115 1523.82 Q888.115 1521.07 886.17 1519.33 Q884.249 1517.6 881.147 1517.6 Q878.948 1517.6 876.494 1518.36 Q874.064 1519.13 871.286 1520.68 L871.286 1515.95 Q874.11 1514.82 876.564 1514.24 Q879.017 1513.66 881.054 1513.66 Q886.425 1513.66 889.619 1516.35 Q892.814 1519.03 892.814 1523.52 Q892.814 1525.65 892.003 1527.57 Q891.216 1529.47 889.11 1532.07 Q888.531 1532.74 885.429 1535.95 Q882.328 1539.15 876.679 1544.91 Z" fill="#000000" fill-rule="nonzero" fill-opacity="1" /><path clip-path="url(#clip620)" d="M1266.84 1532.02 L1296.51 1532.02 L1296.51 1535.95 L1266.84 1535.95 L1266.84 1532.02 Z" fill="#000000" fill-rule="nonzero" fill-opacity="1" /><path clip-path="url(#clip620)" d="M1307.41 1544.91 L1315.05 1544.91 L1315.05 1518.55 L1306.74 1520.21 L1306.74 1515.95 L1315.01 1514.29 L1319.68 1514.29 L1319.68 1544.91 L1327.32 1544.91 L1327.32 1548.85 L1307.41 1548.85 L1307.41 1544.91 Z" fill="#000000" fill-rule="nonzero" fill-opacity="1" /><path clip-path="url(#clip620)" d="M1731.22 1517.37 Q1727.6 1517.37 1725.78 1520.93 Q1723.97 1524.47 1723.97 1531.6 Q1723.97 1538.71 1725.78 1542.27 Q1727.6 1545.82 1731.22 1545.82 Q1734.85 1545.82 1736.66 1542.27 Q1738.48 1538.71 1738.48 1531.6 Q1738.48 1524.47 1736.66 1520.93 Q1734.85 1517.37 1731.22 1517.37 M1731.22 1513.66 Q1737.03 1513.66 1740.08 1518.27 Q1743.16 1522.85 1743.16 1531.6 Q1743.16 1540.33 1740.08 1544.94 Q1737.03 1549.52 1731.22 1549.52 Q1725.41 1549.52 1722.33 1544.94 Q1719.27 1540.33 1719.27 1531.6 Q1719.27 1522.85 1722.33 1518.27 Q1725.41 1513.66 1731.22 1513.66 Z" fill="#000000" fill-rule="nonzero" fill-opacity="1" /><path clip-path="url(#clip620)" d="M2155.74 1544.91 L2163.37 1544.91 L2163.37 1518.55 L2155.06 1520.21 L2155.06 1515.95 L2163.33 1514.29 L2168 1514.29 L2168 1544.91 L2175.64 1544.91 L2175.64 1548.85 L2155.74 1548.85 L2155.74 1544.91 Z" fill="#000000" fill-rule="nonzero" fill-opacity="1" /><polyline clip-path="url(#clip620)" style="stroke:#000000; stroke-linecap:round; stroke-linejoin:round; stroke-width:4; stroke-opacity:1; fill:none" points="148.057,1486.45 148.057,47.2441 "/>
<polyline clip-path="url(#clip620)" style="stroke:#000000; stroke-linecap:round; stroke-linejoin:round; stroke-width:4; stroke-opacity:1; fill:none" points="148.057,1463.92 166.954,1463.92 "/>
<polyline clip-path="url(#clip620)" style="stroke:#000000; stroke-linecap:round; stroke-linejoin:round; stroke-width:4; stroke-opacity:1; fill:none" points="148.057,1213.08 166.954,1213.08 "/>
<polyline clip-path="url(#clip620)" style="stroke:#000000; stroke-linecap:round; stroke-linejoin:round; stroke-width:4; stroke-opacity:1; fill:none" points="148.057,962.235 166.954,962.235 "/>
<polyline clip-path="url(#clip620)" style="stroke:#000000; stroke-linecap:round; stroke-linejoin:round; stroke-width:4; stroke-opacity:1; fill:none" points="148.057,711.392 166.954,711.392 "/>
<polyline clip-path="url(#clip620)" style="stroke:#000000; stroke-linecap:round; stroke-linejoin:round; stroke-width:4; stroke-opacity:1; fill:none" points="148.057,460.549 166.954,460.549 "/>
<polyline clip-path="url(#clip620)" style="stroke:#000000; stroke-linecap:round; stroke-linejoin:round; stroke-width:4; stroke-opacity:1; fill:none" points="148.057,209.706 166.954,209.706 "/>
<path clip-path="url(#clip620)" d="M50.9921 1464.37 L80.6679 1464.37 L80.6679 1468.31 L50.9921 1468.31 L50.9921 1464.37 Z" fill="#000000" fill-rule="nonzero" fill-opacity="1" /><path clip-path="url(#clip620)" d="M104.927 1462.57 Q108.283 1463.28 110.158 1465.55 Q112.057 1467.82 112.057 1471.15 Q112.057 1476.27 108.538 1479.07 Q105.02 1481.87 98.5382 1481.87 Q96.3623 1481.87 94.0475 1481.43 Q91.7558 1481.02 89.3021 1480.16 L89.3021 1475.65 Q91.2465 1476.78 93.5613 1477.36 Q95.8761 1477.94 98.3993 1477.94 Q102.797 1477.94 105.089 1476.2 Q107.404 1474.46 107.404 1471.15 Q107.404 1468.1 105.251 1466.39 Q103.121 1464.65 99.3021 1464.65 L95.2743 1464.65 L95.2743 1460.81 L99.4872 1460.81 Q102.936 1460.81 104.765 1459.44 Q106.594 1458.05 106.594 1455.46 Q106.594 1452.8 104.696 1451.39 Q102.821 1449.95 99.3021 1449.95 Q97.3808 1449.95 95.1817 1450.37 Q92.9826 1450.78 90.3438 1451.66 L90.3438 1447.5 Q93.0058 1446.76 95.3206 1446.39 Q97.6585 1446.02 99.7187 1446.02 Q105.043 1446.02 108.145 1448.45 Q111.246 1450.85 111.246 1454.97 Q111.246 1457.84 109.603 1459.84 Q107.959 1461.8 104.927 1462.57 Z" fill="#000000" fill-rule="nonzero" fill-opacity="1" /><path clip-path="url(#clip620)" d="M51.9412 1213.53 L81.617 1213.53 L81.617 1217.46 L51.9412 1217.46 L51.9412 1213.53 Z" fill="#000000" fill-rule="nonzero" fill-opacity="1" /><path clip-path="url(#clip620)" d="M95.7373 1226.42 L112.057 1226.42 L112.057 1230.36 L90.1123 1230.36 L90.1123 1226.42 Q92.7743 1223.67 97.3576 1219.04 Q101.964 1214.39 103.145 1213.04 Q105.39 1210.52 106.27 1208.78 Q107.172 1207.02 107.172 1205.33 Q107.172 1202.58 105.228 1200.84 Q103.307 1199.11 100.205 1199.11 Q98.0058 1199.11 95.5521 1199.87 Q93.1215 1200.64 90.3438 1202.19 L90.3438 1197.46 Q93.1678 1196.33 95.6215 1195.75 Q98.0752 1195.17 100.112 1195.17 Q105.483 1195.17 108.677 1197.86 Q111.871 1200.54 111.871 1205.03 Q111.871 1207.16 111.061 1209.08 Q110.274 1210.98 108.168 1213.58 Q107.589 1214.25 104.487 1217.46 Q101.385 1220.66 95.7373 1226.42 Z" fill="#000000" fill-rule="nonzero" fill-opacity="1" /><path clip-path="url(#clip620)" d="M51.5708 962.686 L81.2466 962.686 L81.2466 966.621 L51.5708 966.621 L51.5708 962.686 Z" fill="#000000" fill-rule="nonzero" fill-opacity="1" /><path clip-path="url(#clip620)" d="M92.1493 975.58 L99.7882 975.58 L99.7882 949.214 L91.478 950.881 L91.478 946.622 L99.7419 944.955 L104.418 944.955 L104.418 975.58 L112.057 975.58 L112.057 979.515 L92.1493 979.515 L92.1493 975.58 Z" fill="#000000" fill-rule="nonzero" fill-opacity="1" /><path clip-path="url(#clip620)" d="M100.112 697.19 Q96.5011 697.19 94.6724 700.755 Q92.8669 704.297 92.8669 711.426 Q92.8669 718.533 94.6724 722.098 Q96.5011 725.639 100.112 725.639 Q103.746 725.639 105.552 722.098 Q107.381 718.533 107.381 711.426 Q107.381 704.297 105.552 700.755 Q103.746 697.19 100.112 697.19 M100.112 693.487 Q105.922 693.487 108.978 698.093 Q112.057 702.677 112.057 711.426 Q112.057 720.153 108.978 724.76 Q105.922 729.343 100.112 729.343 Q94.3021 729.343 91.2234 724.76 Q88.1679 720.153 88.1679 711.426 Q88.1679 702.677 91.2234 698.093 Q94.3021 693.487 100.112 693.487 Z" fill="#000000" fill-rule="nonzero" fill-opacity="1" /><path clip-path="url(#clip620)" d="M92.1493 473.893 L99.7882 473.893 L99.7882 447.528 L91.478 449.195 L91.478 444.935 L99.7419 443.269 L104.418 443.269 L104.418 473.893 L112.057 473.893 L112.057 477.829 L92.1493 477.829 L92.1493 473.893 Z" fill="#000000" fill-rule="nonzero" fill-opacity="1" /><path clip-path="url(#clip620)" d="M95.7373 223.05 L112.057 223.05 L112.057 226.986 L90.1123 226.986 L90.1123 223.05 Q92.7743 220.296 97.3576 215.666 Q101.964 211.013 103.145 209.671 Q105.39 207.148 106.27 205.412 Q107.172 203.652 107.172 201.963 Q107.172 199.208 105.228 197.472 Q103.307 195.736 100.205 195.736 Q98.0058 195.736 95.5521 196.5 Q93.1215 197.263 90.3438 198.814 L90.3438 194.092 Q93.1678 192.958 95.6215 192.379 Q98.0752 191.801 100.112 191.801 Q105.483 191.801 108.677 194.486 Q111.871 197.171 111.871 201.662 Q111.871 203.791 111.061 205.713 Q110.274 207.611 108.168 210.203 Q107.589 210.875 104.487 214.092 Q101.385 217.287 95.7373 223.05 Z" fill="#000000" fill-rule="nonzero" fill-opacity="1" /><circle clip-path="url(#clip621)" cx="210.454" cy="849.775" r="14.4" fill="#009af9" fill-rule="evenodd" fill-opacity="0.5" stroke="#000000" stroke-opacity="0.5" stroke-width="3.2"/>
<circle clip-path="url(#clip621)" cx="1790.3" cy="787.56" r="14.4" fill="#009af9" fill-rule="evenodd" fill-opacity="0.5" stroke="#000000" stroke-opacity="0.5" stroke-width="3.2"/>
<circle clip-path="url(#clip621)" cx="1486.67" cy="894.358" r="14.4" fill="#009af9" fill-rule="evenodd" fill-opacity="0.5" stroke="#000000" stroke-opacity="0.5" stroke-width="3.2"/>
<circle clip-path="url(#clip621)" cx="2290.36" cy="1176.04" r="14.4" fill="#009af9" fill-rule="evenodd" fill-opacity="0.5" stroke="#000000" stroke-opacity="0.5" stroke-width="3.2"/>
<circle clip-path="url(#clip621)" cx="1958.18" cy="400.606" r="14.4" fill="#009af9" fill-rule="evenodd" fill-opacity="0.5" stroke="#000000" stroke-opacity="0.5" stroke-width="3.2"/>
<circle clip-path="url(#clip621)" cx="2006.52" cy="602.291" r="14.4" fill="#009af9" fill-rule="evenodd" fill-opacity="0.5" stroke="#000000" stroke-opacity="0.5" stroke-width="3.2"/>
<circle clip-path="url(#clip621)" cx="2074.54" cy="490.741" r="14.4" fill="#009af9" fill-rule="evenodd" fill-opacity="0.5" stroke="#000000" stroke-opacity="0.5" stroke-width="3.2"/>
<circle clip-path="url(#clip621)" cx="1758.01" cy="336.053" r="14.4" fill="#009af9" fill-rule="evenodd" fill-opacity="0.5" stroke="#000000" stroke-opacity="0.5" stroke-width="3.2"/>
<circle clip-path="url(#clip621)" cx="1580.53" cy="341.496" r="14.4" fill="#009af9" fill-rule="evenodd" fill-opacity="0.5" stroke="#000000" stroke-opacity="0.5" stroke-width="3.2"/>
<circle clip-path="url(#clip621)" cx="2264.09" cy="801.874" r="14.4" fill="#009af9" fill-rule="evenodd" fill-opacity="0.5" stroke="#000000" stroke-opacity="0.5" stroke-width="3.2"/>
<circle clip-path="url(#clip621)" cx="1444.63" cy="94.7835" r="14.4" fill="#009af9" fill-rule="evenodd" fill-opacity="0.5" stroke="#000000" stroke-opacity="0.5" stroke-width="3.2"/>
<circle clip-path="url(#clip621)" cx="1571.89" cy="590.233" r="14.4" fill="#009af9" fill-rule="evenodd" fill-opacity="0.5" stroke="#000000" stroke-opacity="0.5" stroke-width="3.2"/>
<circle clip-path="url(#clip621)" cx="2045.65" cy="1445.72" r="14.4" fill="#009af9" fill-rule="evenodd" fill-opacity="0.5" stroke="#000000" stroke-opacity="0.5" stroke-width="3.2"/>
<circle clip-path="url(#clip621)" cx="479.478" cy="709.565" r="14.4" fill="#009af9" fill-rule="evenodd" fill-opacity="0.5" stroke="#000000" stroke-opacity="0.5" stroke-width="3.2"/>
<circle clip-path="url(#clip621)" cx="1478.94" cy="569.233" r="14.4" fill="#009af9" fill-rule="evenodd" fill-opacity="0.5" stroke="#000000" stroke-opacity="0.5" stroke-width="3.2"/>
<circle clip-path="url(#clip621)" cx="1558.81" cy="919.802" r="14.4" fill="#009af9" fill-rule="evenodd" fill-opacity="0.5" stroke="#000000" stroke-opacity="0.5" stroke-width="3.2"/>
<circle clip-path="url(#clip621)" cx="1225.99" cy="301.681" r="14.4" fill="#009af9" fill-rule="evenodd" fill-opacity="0.5" stroke="#000000" stroke-opacity="0.5" stroke-width="3.2"/>
<circle clip-path="url(#clip621)" cx="1875.94" cy="653.781" r="14.4" fill="#009af9" fill-rule="evenodd" fill-opacity="0.5" stroke="#000000" stroke-opacity="0.5" stroke-width="3.2"/>
<circle clip-path="url(#clip621)" cx="992.329" cy="787.74" r="14.4" fill="#009af9" fill-rule="evenodd" fill-opacity="0.5" stroke="#000000" stroke-opacity="0.5" stroke-width="3.2"/>
<circle clip-path="url(#clip621)" cx="1651.84" cy="589.079" r="14.4" fill="#009af9" fill-rule="evenodd" fill-opacity="0.5" stroke="#000000" stroke-opacity="0.5" stroke-width="3.2"/>
<circle clip-path="url(#clip621)" cx="1916.87" cy="665.836" r="14.4" fill="#009af9" fill-rule="evenodd" fill-opacity="0.5" stroke="#000000" stroke-opacity="0.5" stroke-width="3.2"/>
<circle clip-path="url(#clip621)" cx="1597.74" cy="827.262" r="14.4" fill="#009af9" fill-rule="evenodd" fill-opacity="0.5" stroke="#000000" stroke-opacity="0.5" stroke-width="3.2"/>
<circle clip-path="url(#clip621)" cx="1905.65" cy="552.608" r="14.4" fill="#009af9" fill-rule="evenodd" fill-opacity="0.5" stroke="#000000" stroke-opacity="0.5" stroke-width="3.2"/>
<circle clip-path="url(#clip621)" cx="2266.05" cy="740.05" r="14.4" fill="#009af9" fill-rule="evenodd" fill-opacity="0.5" stroke="#000000" stroke-opacity="0.5" stroke-width="3.2"/>
<circle clip-path="url(#clip621)" cx="1773.18" cy="615.211" r="14.4" fill="#009af9" fill-rule="evenodd" fill-opacity="0.5" stroke="#000000" stroke-opacity="0.5" stroke-width="3.2"/>
<circle clip-path="url(#clip621)" cx="1387.68" cy="1071.27" r="14.4" fill="#009af9" fill-rule="evenodd" fill-opacity="0.5" stroke="#000000" stroke-opacity="0.5" stroke-width="3.2"/>
<circle clip-path="url(#clip621)" cx="1559.84" cy="1027.36" r="14.4" fill="#009af9" fill-rule="evenodd" fill-opacity="0.5" stroke="#000000" stroke-opacity="0.5" stroke-width="3.2"/>
<circle clip-path="url(#clip621)" cx="912.984" cy="577.203" r="14.4" fill="#009af9" fill-rule="evenodd" fill-opacity="0.5" stroke="#000000" stroke-opacity="0.5" stroke-width="3.2"/>
<circle clip-path="url(#clip621)" cx="1883.45" cy="759.611" r="14.4" fill="#009af9" fill-rule="evenodd" fill-opacity="0.5" stroke="#000000" stroke-opacity="0.5" stroke-width="3.2"/>
<circle clip-path="url(#clip621)" cx="1245.8" cy="87.9763" r="14.4" fill="#009af9" fill-rule="evenodd" fill-opacity="0.5" stroke="#000000" stroke-opacity="0.5" stroke-width="3.2"/>
<path clip-path="url(#clip621)" d="M210.454 849.775 L2045.65 1445.72 L2290.36 1176.04 L2266.05 740.05 L2074.54 490.741 L1958.18 400.606 L1444.63 94.7835 L1245.8 87.9763 L210.454 849.775 L210.454 849.775  Z" fill="#e26f46" fill-rule="evenodd" fill-opacity="0.2"/>
<polyline clip-path="url(#clip621)" style="stroke:#000000; stroke-linecap:round; stroke-linejoin:round; stroke-width:4; stroke-opacity:0.2; fill:none" points="210.454,849.775 2045.65,1445.72 2290.36,1176.04 2266.05,740.05 2074.54,490.741 1958.18,400.606 1444.63,94.7835 1245.8,87.9763 210.454,849.775 "/>
</svg>
