<?xml version="1.0" encoding="utf-8"?>
<svg xmlns="http://www.w3.org/2000/svg" xmlns:xlink="http://www.w3.org/1999/xlink" width="600" height="400" viewBox="0 0 2400 1600">
<defs>
  <clipPath id="clip680">
    <rect x="0" y="0" width="2400" height="1600"/>
  </clipPath>
</defs>
<path clip-path="url(#clip680)" d="M0 1600 L2400 1600 L2400 0 L0 0  Z" fill="#ffffff" fill-rule="evenodd" fill-opacity="1"/>
<defs>
  <clipPath id="clip681">
    <rect x="193" y="47" width="2160" height="1440"/>
  </clipPath>
</defs>
<path clip-path="url(#clip680)" d="M193.936 1486.45 L2352.76 1486.45 L2352.76 47.2441 L193.936 47.2441  Z" fill="#ffffff" fill-rule="evenodd" fill-opacity="1"/>
<polyline clip-path="url(#clip681)" style="stroke:#000000; stroke-linecap:round; stroke-linejoin:round; stroke-width:2; stroke-opacity:0.1; fill:none" points="344.661,1486.45 344.661,47.2441 "/>
<polyline clip-path="url(#clip681)" style="stroke:#000000; stroke-linecap:round; stroke-linejoin:round; stroke-width:2; stroke-opacity:0.1; fill:none" points="804.675,1486.45 804.675,47.2441 "/>
<polyline clip-path="url(#clip681)" style="stroke:#000000; stroke-linecap:round; stroke-linejoin:round; stroke-width:2; stroke-opacity:0.1; fill:none" points="1264.69,1486.45 1264.69,47.2441 "/>
<polyline clip-path="url(#clip681)" style="stroke:#000000; stroke-linecap:round; stroke-linejoin:round; stroke-width:2; stroke-opacity:0.1; fill:none" points="1724.7,1486.45 1724.7,47.2441 "/>
<polyline clip-path="url(#clip681)" style="stroke:#000000; stroke-linecap:round; stroke-linejoin:round; stroke-width:2; stroke-opacity:0.1; fill:none" points="2184.72,1486.45 2184.72,47.2441 "/>
<polyline clip-path="url(#clip681)" style="stroke:#000000; stroke-linecap:round; stroke-linejoin:round; stroke-width:2; stroke-opacity:0.1; fill:none" points="193.936,1303.3 2352.76,1303.3 "/>
<polyline clip-path="url(#clip681)" style="stroke:#000000; stroke-linecap:round; stroke-linejoin:round; stroke-width:2; stroke-opacity:0.1; fill:none" points="193.936,1077.38 2352.76,1077.38 "/>
<polyline clip-path="url(#clip681)" style="stroke:#000000; stroke-linecap:round; stroke-linejoin:round; stroke-width:2; stroke-opacity:0.1; fill:none" points="193.936,851.454 2352.76,851.454 "/>
<polyline clip-path="url(#clip681)" style="stroke:#000000; stroke-linecap:round; stroke-linejoin:round; stroke-width:2; stroke-opacity:0.1; fill:none" points="193.936,625.53 2352.76,625.53 "/>
<polyline clip-path="url(#clip681)" style="stroke:#000000; stroke-linecap:round; stroke-linejoin:round; stroke-width:2; stroke-opacity:0.1; fill:none" points="193.936,399.607 2352.76,399.607 "/>
<polyline clip-path="url(#clip681)" style="stroke:#000000; stroke-linecap:round; stroke-linejoin:round; stroke-width:2; stroke-opacity:0.1; fill:none" points="193.936,173.684 2352.76,173.684 "/>
<polyline clip-path="url(#clip680)" style="stroke:#000000; stroke-linecap:round; stroke-linejoin:round; stroke-width:4; stroke-opacity:1; fill:none" points="193.936,1486.45 2352.76,1486.45 "/>
<polyline clip-path="url(#clip680)" style="stroke:#000000; stroke-linecap:round; stroke-linejoin:round; stroke-width:4; stroke-opacity:1; fill:none" points="344.661,1486.45 344.661,1467.55 "/>
<polyline clip-path="url(#clip680)" style="stroke:#000000; stroke-linecap:round; stroke-linejoin:round; stroke-width:4; stroke-opacity:1; fill:none" points="804.675,1486.45 804.675,1467.55 "/>
<polyline clip-path="url(#clip680)" style="stroke:#000000; stroke-linecap:round; stroke-linejoin:round; stroke-width:4; stroke-opacity:1; fill:none" points="1264.69,1486.45 1264.69,1467.55 "/>
<polyline clip-path="url(#clip680)" style="stroke:#000000; stroke-linecap:round; stroke-linejoin:round; stroke-width:4; stroke-opacity:1; fill:none" points="1724.7,1486.45 1724.7,1467.55 "/>
<polyline clip-path="url(#clip680)" style="stroke:#000000; stroke-linecap:round; stroke-linejoin:round; stroke-width:4; stroke-opacity:1; fill:none" points="2184.72,1486.45 2184.72,1467.55 "/>
<path clip-path="url(#clip680)" d="M314.603 1532.02 L344.279 1532.02 L344.279 1535.95 L314.603 1535.95 L314.603 1532.02 Z" fill="#000000" fill-rule="nonzero" fill-opacity="1" /><path clip-path="url(#clip680)" d="M358.399 1544.91 L374.718 1544.91 L374.718 1548.85 L352.774 1548.85 L352.774 1544.91 Q355.436 1542.16 360.019 1537.53 Q364.626 1532.88 365.806 1531.53 Q368.052 1529.01 368.931 1527.27 Q369.834 1525.51 369.834 1523.82 Q369.834 1521.07 367.89 1519.33 Q365.968 1517.6 362.867 1517.6 Q360.668 1517.6 358.214 1518.36 Q355.783 1519.13 353.006 1520.68 L353.006 1515.95 Q355.83 1514.82 358.283 1514.24 Q360.737 1513.66 362.774 1513.66 Q368.144 1513.66 371.339 1516.35 Q374.533 1519.03 374.533 1523.52 Q374.533 1525.65 373.723 1527.57 Q372.936 1529.47 370.829 1532.07 Q370.251 1532.74 367.149 1535.95 Q364.047 1539.15 358.399 1544.91 Z" fill="#000000" fill-rule="nonzero" fill-opacity="1" /><path clip-path="url(#clip680)" d="M774.432 1532.02 L804.108 1532.02 L804.108 1535.95 L774.432 1535.95 L774.432 1532.02 Z" fill="#000000" fill-rule="nonzero" fill-opacity="1" /><path clip-path="url(#clip680)" d="M815.011 1544.91 L822.65 1544.91 L822.65 1518.55 L814.34 1520.21 L814.34 1515.95 L822.603 1514.29 L827.279 1514.29 L827.279 1544.91 L834.918 1544.91 L834.918 1548.85 L815.011 1548.85 L815.011 1544.91 Z" fill="#000000" fill-rule="nonzero" fill-opacity="1" /><path clip-path="url(#clip680)" d="M1264.69 1517.37 Q1261.08 1517.37 1259.25 1520.93 Q1257.44 1524.47 1257.44 1531.6 Q1257.44 1538.71 1259.25 1542.27 Q1261.08 1545.82 1264.69 1545.82 Q1268.32 1545.82 1270.13 1542.27 Q1271.96 1538.71 1271.96 1531.6 Q1271.96 1524.47 1270.13 1520.93 Q1268.32 1517.37 1264.69 1517.37 M1264.69 1513.66 Q1270.5 1513.66 1273.56 1518.27 Q1276.63 1522.85 1276.63 1531.6 Q1276.63 1540.33 1273.56 1544.94 Q1270.5 1549.52 1264.69 1549.52 Q1258.88 1549.52 1255.8 1544.94 Q1252.75 1540.33 1252.75 1531.6 Q1252.75 1522.85 1255.8 1518.27 Q1258.88 1513.66 1264.69 1513.66 Z" fill="#000000" fill-rule="nonzero" fill-opacity="1" /><path clip-path="url(#clip680)" d="M1715.09 1544.91 L1722.73 1544.91 L1722.73 1518.55 L1714.42 1520.21 L1714.42 1515.95 L1722.68 1514.29 L1727.35 1514.29 L1727.35 1544.91 L1734.99 1544.91 L1734.99 1548.85 L1715.09 1548.85 L1715.09 1544.91 Z" fill="#000000" fill-rule="nonzero" fill-opacity="1" /><path clip-path="url(#clip680)" d="M2179.37 1544.91 L2195.69 1544.91 L2195.69 1548.85 L2173.75 1548.85 L2173.75 1544.91 Q2176.41 1542.16 2180.99 1537.53 Q2185.6 1532.88 2186.78 1531.53 Q2189.02 1529.01 2189.9 1527.27 Q2190.81 1525.51 2190.81 1523.82 Q2190.81 1521.07 2188.86 1519.33 Q2186.94 1517.6 2183.84 1517.6 Q2181.64 1517.6 2179.19 1518.36 Q2176.76 1519.13 2173.98 1520.68 L2173.98 1515.95 Q2176.8 1514.82 2179.26 1514.24 Q2181.71 1513.66 2183.75 1513.66 Q2189.12 1513.66 2192.31 1516.35 Q2195.51 1519.03 2195.51 1523.52 Q2195.51 1525.65 2194.7 1527.57 Q2193.91 1529.47 2191.8 1532.07 Q2191.22 1532.74 2188.12 1535.95 Q2185.02 1539.15 2179.37 1544.91 Z" fill="#000000" fill-rule="nonzero" fill-opacity="1" /><polyline clip-path="url(#clip680)" style="stroke:#000000; stroke-linecap:round; stroke-linejoin:round; stroke-width:4; stroke-opacity:1; fill:none" points="193.936,1486.45 193.936,47.2441 "/>
<polyline clip-path="url(#clip680)" style="stroke:#000000; stroke-linecap:round; stroke-linejoin:round; stroke-width:4; stroke-opacity:1; fill:none" points="193.936,1303.3 212.834,1303.3 "/>
<polyline clip-path="url(#clip680)" style="stroke:#000000; stroke-linecap:round; stroke-linejoin:round; stroke-width:4; stroke-opacity:1; fill:none" points="193.936,1077.38 212.834,1077.38 "/>
<polyline clip-path="url(#clip680)" style="stroke:#000000; stroke-linecap:round; stroke-linejoin:round; stroke-width:4; stroke-opacity:1; fill:none" points="193.936,851.454 212.834,851.454 "/>
<polyline clip-path="url(#clip680)" style="stroke:#000000; stroke-linecap:round; stroke-linejoin:round; stroke-width:4; stroke-opacity:1; fill:none" points="193.936,625.53 212.834,625.53 "/>
<polyline clip-path="url(#clip680)" style="stroke:#000000; stroke-linecap:round; stroke-linejoin:round; stroke-width:4; stroke-opacity:1; fill:none" points="193.936,399.607 212.834,399.607 "/>
<polyline clip-path="url(#clip680)" style="stroke:#000000; stroke-linecap:round; stroke-linejoin:round; stroke-width:4; stroke-opacity:1; fill:none" points="193.936,173.684 212.834,173.684 "/>
<path clip-path="url(#clip680)" d="M50.9921 1303.75 L80.6679 1303.75 L80.6679 1307.69 L50.9921 1307.69 L50.9921 1303.75 Z" fill="#000000" fill-rule="nonzero" fill-opacity="1" /><path clip-path="url(#clip680)" d="M91.5706 1316.65 L99.2095 1316.65 L99.2095 1290.28 L90.8993 1291.95 L90.8993 1287.69 L99.1632 1286.02 L103.839 1286.02 L103.839 1316.65 L111.478 1316.65 L111.478 1320.58 L91.5706 1320.58 L91.5706 1316.65 Z" fill="#000000" fill-rule="nonzero" fill-opacity="1" /><path clip-path="url(#clip680)" d="M120.922 1314.7 L125.807 1314.7 L125.807 1320.58 L120.922 1320.58 L120.922 1314.7 Z" fill="#000000" fill-rule="nonzero" fill-opacity="1" /><path clip-path="url(#clip680)" d="M145.992 1289.1 Q142.381 1289.1 140.552 1292.66 Q138.746 1296.21 138.746 1303.34 Q138.746 1310.44 140.552 1314.01 Q142.381 1317.55 145.992 1317.55 Q149.626 1317.55 151.431 1314.01 Q153.26 1310.44 153.26 1303.34 Q153.26 1296.21 151.431 1292.66 Q149.626 1289.1 145.992 1289.1 M145.992 1285.4 Q151.802 1285.4 154.857 1290 Q157.936 1294.59 157.936 1303.34 Q157.936 1312.06 154.857 1316.67 Q151.802 1321.25 145.992 1321.25 Q140.181 1321.25 137.103 1316.67 Q134.047 1312.06 134.047 1303.34 Q134.047 1294.59 137.103 1290 Q140.181 1285.4 145.992 1285.4 Z" fill="#000000" fill-rule="nonzero" fill-opacity="1" /><path clip-path="url(#clip680)" d="M51.9875 1077.83 L81.6633 1077.83 L81.6633 1081.76 L51.9875 1081.76 L51.9875 1077.83 Z" fill="#000000" fill-rule="nonzero" fill-opacity="1" /><path clip-path="url(#clip680)" d="M101.756 1063.18 Q98.1447 1063.18 96.316 1066.74 Q94.5104 1070.28 94.5104 1077.41 Q94.5104 1084.52 96.316 1088.08 Q98.1447 1091.62 101.756 1091.62 Q105.39 1091.62 107.196 1088.08 Q109.024 1084.52 109.024 1077.41 Q109.024 1070.28 107.196 1066.74 Q105.39 1063.18 101.756 1063.18 M101.756 1059.47 Q107.566 1059.47 110.621 1064.08 Q113.7 1068.66 113.7 1077.41 Q113.7 1086.14 110.621 1090.74 Q107.566 1095.33 101.756 1095.33 Q95.9456 1095.33 92.8669 1090.74 Q89.8114 1086.14 89.8114 1077.41 Q89.8114 1068.66 92.8669 1064.08 Q95.9456 1059.47 101.756 1059.47 Z" fill="#000000" fill-rule="nonzero" fill-opacity="1" /><path clip-path="url(#clip680)" d="M121.918 1088.78 L126.802 1088.78 L126.802 1094.66 L121.918 1094.66 L121.918 1088.78 Z" fill="#000000" fill-rule="nonzero" fill-opacity="1" /><path clip-path="url(#clip680)" d="M137.033 1060.1 L155.39 1060.1 L155.39 1064.03 L141.316 1064.03 L141.316 1072.5 Q142.334 1072.16 143.353 1072 Q144.371 1071.81 145.39 1071.81 Q151.177 1071.81 154.556 1074.98 Q157.936 1078.15 157.936 1083.57 Q157.936 1089.15 154.464 1092.25 Q150.992 1095.33 144.672 1095.33 Q142.496 1095.33 140.228 1094.96 Q137.982 1094.59 135.575 1093.85 L135.575 1089.15 Q137.658 1090.28 139.881 1090.84 Q142.103 1091.39 144.58 1091.39 Q148.584 1091.39 150.922 1089.29 Q153.26 1087.18 153.26 1083.57 Q153.26 1079.96 150.922 1077.85 Q148.584 1075.75 144.58 1075.75 Q142.705 1075.75 140.83 1076.16 Q138.978 1076.58 137.033 1077.46 L137.033 1060.1 Z" fill="#000000" fill-rule="nonzero" fill-opacity="1" /><path clip-path="url(#clip680)" d="M100.76 837.252 Q97.1493 837.252 95.3206 840.817 Q93.515 844.359 93.515 851.488 Q93.515 858.595 95.3206 862.16 Q97.1493 865.701 100.76 865.701 Q104.395 865.701 106.2 862.16 Q108.029 858.595 108.029 851.488 Q108.029 844.359 106.2 840.817 Q104.395 837.252 100.76 837.252 M100.76 833.549 Q106.571 833.549 109.626 838.155 Q112.705 842.738 112.705 851.488 Q112.705 860.215 109.626 864.822 Q106.571 869.405 100.76 869.405 Q94.9502 869.405 91.8715 864.822 Q88.816 860.215 88.816 851.488 Q88.816 842.738 91.8715 838.155 Q94.9502 833.549 100.76 833.549 Z" fill="#000000" fill-rule="nonzero" fill-opacity="1" /><path clip-path="url(#clip680)" d="M120.922 862.854 L125.807 862.854 L125.807 868.734 L120.922 868.734 L120.922 862.854 Z" fill="#000000" fill-rule="nonzero" fill-opacity="1" /><path clip-path="url(#clip680)" d="M145.992 837.252 Q142.381 837.252 140.552 840.817 Q138.746 844.359 138.746 851.488 Q138.746 858.595 140.552 862.16 Q142.381 865.701 145.992 865.701 Q149.626 865.701 151.431 862.16 Q153.26 858.595 153.26 851.488 Q153.26 844.359 151.431 840.817 Q149.626 837.252 145.992 837.252 M145.992 833.549 Q151.802 833.549 154.857 838.155 Q157.936 842.738 157.936 851.488 Q157.936 860.215 154.857 864.822 Q151.802 869.405 145.992 869.405 Q140.181 869.405 137.103 864.822 Q134.047 860.215 134.047 851.488 Q134.047 842.738 137.103 838.155 Q140.181 833.549 145.992 833.549 Z" fill="#000000" fill-rule="nonzero" fill-opacity="1" /><path clip-path="url(#clip680)" d="M101.756 611.329 Q98.1447 611.329 96.316 614.894 Q94.5104 618.435 94.5104 625.565 Q94.5104 632.671 96.316 636.236 Q98.1447 639.778 101.756 639.778 Q105.39 639.778 107.196 636.236 Q109.024 632.671 109.024 625.565 Q109.024 618.435 107.196 614.894 Q105.39 611.329 101.756 611.329 M101.756 607.625 Q107.566 607.625 110.621 612.232 Q113.7 616.815 113.7 625.565 Q113.7 634.292 110.621 638.898 Q107.566 643.482 101.756 643.482 Q95.9456 643.482 92.8669 638.898 Q89.8114 634.292 89.8114 625.565 Q89.8114 616.815 92.8669 612.232 Q95.9456 607.625 101.756 607.625 Z" fill="#000000" fill-rule="nonzero" fill-opacity="1" /><path clip-path="url(#clip680)" d="M121.918 636.931 L126.802 636.931 L126.802 642.81 L121.918 642.81 L121.918 636.931 Z" fill="#000000" fill-rule="nonzero" fill-opacity="1" /><path clip-path="url(#clip680)" d="M137.033 608.25 L155.39 608.25 L155.39 612.185 L141.316 612.185 L141.316 620.658 Q142.334 620.31 143.353 620.148 Q144.371 619.963 145.39 619.963 Q151.177 619.963 154.556 623.135 Q157.936 626.306 157.936 631.722 Q157.936 637.301 154.464 640.403 Q150.992 643.482 144.672 643.482 Q142.496 643.482 140.228 643.111 Q137.982 642.741 135.575 642 L135.575 637.301 Q137.658 638.435 139.881 638.991 Q142.103 639.546 144.58 639.546 Q148.584 639.546 150.922 637.44 Q153.26 635.334 153.26 631.722 Q153.26 628.111 150.922 626.005 Q148.584 623.898 144.58 623.898 Q142.705 623.898 140.83 624.315 Q138.978 624.732 137.033 625.611 L137.033 608.25 Z" fill="#000000" fill-rule="nonzero" fill-opacity="1" /><path clip-path="url(#clip680)" d="M91.5706 412.952 L99.2095 412.952 L99.2095 386.586 L90.8993 388.253 L90.8993 383.994 L99.1632 382.327 L103.839 382.327 L103.839 412.952 L111.478 412.952 L111.478 416.887 L91.5706 416.887 L91.5706 412.952 Z" fill="#000000" fill-rule="nonzero" fill-opacity="1" /><path clip-path="url(#clip680)" d="M120.922 411.007 L125.807 411.007 L125.807 416.887 L120.922 416.887 L120.922 411.007 Z" fill="#000000" fill-rule="nonzero" fill-opacity="1" /><path clip-path="url(#clip680)" d="M145.992 385.406 Q142.381 385.406 140.552 388.97 Q138.746 392.512 138.746 399.642 Q138.746 406.748 140.552 410.313 Q142.381 413.855 145.992 413.855 Q149.626 413.855 151.431 410.313 Q153.26 406.748 153.26 399.642 Q153.26 392.512 151.431 388.97 Q149.626 385.406 145.992 385.406 M145.992 381.702 Q151.802 381.702 154.857 386.308 Q157.936 390.892 157.936 399.642 Q157.936 408.369 154.857 412.975 Q151.802 417.558 145.992 417.558 Q140.181 417.558 137.103 412.975 Q134.047 408.369 134.047 399.642 Q134.047 390.892 137.103 386.308 Q140.181 381.702 145.992 381.702 Z" fill="#000000" fill-rule="nonzero" fill-opacity="1" /><path clip-path="url(#clip680)" d="M92.566 187.029 L100.205 187.029 L100.205 160.663 L91.8947 162.33 L91.8947 158.07 L100.159 156.404 L104.834 156.404 L104.834 187.029 L112.473 187.029 L112.473 190.964 L92.566 190.964 L92.566 187.029 Z" fill="#000000" fill-rule="nonzero" fill-opacity="1" /><path clip-path="url(#clip680)" d="M121.918 185.084 L126.802 185.084 L126.802 190.964 L121.918 190.964 L121.918 185.084 Z" fill="#000000" fill-rule="nonzero" fill-opacity="1" /><path clip-path="url(#clip680)" d="M137.033 156.404 L155.39 156.404 L155.39 160.339 L141.316 160.339 L141.316 168.811 Q142.334 168.464 143.353 168.302 Q144.371 168.117 145.39 168.117 Q151.177 168.117 154.556 171.288 Q157.936 174.459 157.936 179.876 Q157.936 185.454 154.464 188.556 Q150.992 191.635 144.672 191.635 Q142.496 191.635 140.228 191.265 Q137.982 190.894 135.575 190.153 L135.575 185.454 Q137.658 186.589 139.881 187.144 Q142.103 187.7 144.58 187.7 Q148.584 187.7 150.922 185.593 Q153.26 183.487 153.26 179.876 Q153.26 176.265 150.922 174.158 Q148.584 172.052 144.58 172.052 Q142.705 172.052 140.83 172.468 Q138.978 172.885 137.033 173.765 L137.033 156.404 Z" fill="#000000" fill-rule="nonzero" fill-opacity="1" /><circle clip-path="url(#clip681)" cx="1515.7" cy="780.162" r="14.4" fill="#009af9" fill-rule="evenodd" fill-opacity="0.5" stroke="#000000" stroke-opacity="0.5" stroke-width="3.2"/>
<circle clip-path="url(#clip681)" cx="1009.46" cy="1109.67" r="14.4" fill="#009af9" fill-rule="evenodd" fill-opacity="0.5" stroke="#000000" stroke-opacity="0.5" stroke-width="3.2"/>
<circle clip-path="url(#clip681)" cx="986.477" cy="1445.72" r="14.4" fill="#009af9" fill-rule="evenodd" fill-opacity="0.5" stroke="#000000" stroke-opacity="0.5" stroke-width="3.2"/>
<circle clip-path="url(#clip681)" cx="864.686" cy="607.131" r="14.4" fill="#009af9" fill-rule="evenodd" fill-opacity="0.5" stroke="#000000" stroke-opacity="0.5" stroke-width="3.2"/>
<circle clip-path="url(#clip681)" cx="1387.11" cy="1038.12" r="14.4" fill="#009af9" fill-rule="evenodd" fill-opacity="0.5" stroke="#000000" stroke-opacity="0.5" stroke-width="3.2"/>
<circle clip-path="url(#clip681)" cx="1584.8" cy="485.039" r="14.4" fill="#009af9" fill-rule="evenodd" fill-opacity="0.5" stroke="#000000" stroke-opacity="0.5" stroke-width="3.2"/>
<circle clip-path="url(#clip681)" cx="1451.77" cy="1078.08" r="14.4" fill="#009af9" fill-rule="evenodd" fill-opacity="0.5" stroke="#000000" stroke-opacity="0.5" stroke-width="3.2"/>
<circle clip-path="url(#clip681)" cx="1595.59" cy="685.871" r="14.4" fill="#009af9" fill-rule="evenodd" fill-opacity="0.5" stroke="#000000" stroke-opacity="0.5" stroke-width="3.2"/>
<circle clip-path="url(#clip681)" cx="870.622" cy="620.773" r="14.4" fill="#009af9" fill-rule="evenodd" fill-opacity="0.5" stroke="#000000" stroke-opacity="0.5" stroke-width="3.2"/>
<circle clip-path="url(#clip681)" cx="518.131" cy="1145.67" r="14.4" fill="#009af9" fill-rule="evenodd" fill-opacity="0.5" stroke="#000000" stroke-opacity="0.5" stroke-width="3.2"/>
<circle clip-path="url(#clip681)" cx="983.339" cy="756.881" r="14.4" fill="#009af9" fill-rule="evenodd" fill-opacity="0.5" stroke="#000000" stroke-opacity="0.5" stroke-width="3.2"/>
<circle clip-path="url(#clip681)" cx="255.035" cy="564.274" r="14.4" fill="#009af9" fill-rule="evenodd" fill-opacity="0.5" stroke="#000000" stroke-opacity="0.5" stroke-width="3.2"/>
<circle clip-path="url(#clip681)" cx="1863.23" cy="557.877" r="14.4" fill="#009af9" fill-rule="evenodd" fill-opacity="0.5" stroke="#000000" stroke-opacity="0.5" stroke-width="3.2"/>
<circle clip-path="url(#clip681)" cx="1339.38" cy="384.962" r="14.4" fill="#009af9" fill-rule="evenodd" fill-opacity="0.5" stroke="#000000" stroke-opacity="0.5" stroke-width="3.2"/>
<circle clip-path="url(#clip681)" cx="2138.19" cy="1120.58" r="14.4" fill="#009af9" fill-rule="evenodd" fill-opacity="0.5" stroke="#000000" stroke-opacity="0.5" stroke-width="3.2"/>
<circle clip-path="url(#clip681)" cx="1715.74" cy="989.261" r="14.4" fill="#009af9" fill-rule="evenodd" fill-opacity="0.5" stroke="#000000" stroke-opacity="0.5" stroke-width="3.2"/>
<circle clip-path="url(#clip681)" cx="662.631" cy="311.108" r="14.4" fill="#009af9" fill-rule="evenodd" fill-opacity="0.5" stroke="#000000" stroke-opacity="0.5" stroke-width="3.2"/>
<circle clip-path="url(#clip681)" cx="1231.03" cy="1210.98" r="14.4" fill="#009af9" fill-rule="evenodd" fill-opacity="0.5" stroke="#000000" stroke-opacity="0.5" stroke-width="3.2"/>
<circle clip-path="url(#clip681)" cx="1373.07" cy="598.509" r="14.4" fill="#009af9" fill-rule="evenodd" fill-opacity="0.5" stroke="#000000" stroke-opacity="0.5" stroke-width="3.2"/>
<circle clip-path="url(#clip681)" cx="1559.5" cy="523.15" r="14.4" fill="#009af9" fill-rule="evenodd" fill-opacity="0.5" stroke="#000000" stroke-opacity="0.5" stroke-width="3.2"/>
<circle clip-path="url(#clip681)" cx="868.585" cy="700.537" r="14.4" fill="#009af9" fill-rule="evenodd" fill-opacity="0.5" stroke="#000000" stroke-opacity="0.5" stroke-width="3.2"/>
<circle clip-path="url(#clip681)" cx="1504.12" cy="811.965" r="14.4" fill="#009af9" fill-rule="evenodd" fill-opacity="0.5" stroke="#000000" stroke-opacity="0.5" stroke-width="3.2"/>
<circle clip-path="url(#clip681)" cx="1997.58" cy="748.149" r="14.4" fill="#009af9" fill-rule="evenodd" fill-opacity="0.5" stroke="#000000" stroke-opacity="0.5" stroke-width="3.2"/>
<circle clip-path="url(#clip681)" cx="1751.48" cy="275.58" r="14.4" fill="#009af9" fill-rule="evenodd" fill-opacity="0.5" stroke="#000000" stroke-opacity="0.5" stroke-width="3.2"/>
<circle clip-path="url(#clip681)" cx="2291.66" cy="1074.16" r="14.4" fill="#009af9" fill-rule="evenodd" fill-opacity="0.5" stroke="#000000" stroke-opacity="0.5" stroke-width="3.2"/>
<circle clip-path="url(#clip681)" cx="979.289" cy="734.886" r="14.4" fill="#009af9" fill-rule="evenodd" fill-opacity="0.5" stroke="#000000" stroke-opacity="0.5" stroke-width="3.2"/>
<circle clip-path="url(#clip681)" cx="1591.09" cy="753.432" r="14.4" fill="#009af9" fill-rule="evenodd" fill-opacity="0.5" stroke="#000000" stroke-opacity="0.5" stroke-width="3.2"/>
<circle clip-path="url(#clip681)" cx="1212.01" cy="462.163" r="14.4" fill="#009af9" fill-rule="evenodd" fill-opacity="0.5" stroke="#000000" stroke-opacity="0.5" stroke-width="3.2"/>
<circle clip-path="url(#clip681)" cx="1170.02" cy="846.027" r="14.4" fill="#009af9" fill-rule="evenodd" fill-opacity="0.5" stroke="#000000" stroke-opacity="0.5" stroke-width="3.2"/>
<circle clip-path="url(#clip681)" cx="1068.34" cy="87.9763" r="14.4" fill="#009af9" fill-rule="evenodd" fill-opacity="0.5" stroke="#000000" stroke-opacity="0.5" stroke-width="3.2"/>
<path clip-path="url(#clip681)" d="M255.035 564.274 L518.131 1145.67 L986.477 1445.72 L2138.19 1120.58 L2291.66 1074.16 L1751.48 275.58 L1068.34 87.9763 L662.631 311.108 L255.035 564.274 L255.035 564.274  Z" fill="#e26f46" fill-rule="evenodd" fill-opacity="0.2"/>
<polyline clip-path="url(#clip681)" style="stroke:#000000; stroke-linecap:round; stroke-linejoin:round; stroke-width:4; stroke-opacity:0.2; fill:none" points="255.035,564.274 518.131,1145.67 986.477,1445.72 2138.19,1120.58 2291.66,1074.16 1751.48,275.58 1068.34,87.9763 662.631,311.108 255.035,564.274 "/>
</svg>
