<?xml version="1.0" encoding="utf-8"?>
<svg xmlns="http://www.w3.org/2000/svg" xmlns:xlink="http://www.w3.org/1999/xlink" width="600" height="400" viewBox="0 0 2400 1600">
<defs>
  <clipPath id="clip280">
    <rect x="0" y="0" width="2400" height="1600"/>
  </clipPath>
</defs>
<path clip-path="url(#clip280)" d="M0 1600 L2400 1600 L2400 0 L0 0  Z" fill="#ffffff" fill-rule="evenodd" fill-opacity="1"/>
<defs>
  <clipPath id="clip281">
    <rect x="147" y="47" width="2206" height="1440"/>
  </clipPath>
</defs>
<path clip-path="url(#clip280)" d="M147.478 1486.45 L2352.76 1486.45 L2352.76 47.2441 L147.478 47.2441  Z" fill="#ffffff" fill-rule="evenodd" fill-opacity="1"/>
<polyline clip-path="url(#clip281)" style="stroke:#000000; stroke-linecap:round; stroke-linejoin:round; stroke-width:2; stroke-opacity:0.1; fill:none" points="523.488,1486.45 523.488,47.2441 "/>
<polyline clip-path="url(#clip281)" style="stroke:#000000; stroke-linecap:round; stroke-linejoin:round; stroke-width:2; stroke-opacity:0.1; fill:none" points="945.286,1486.45 945.286,47.2441 "/>
<polyline clip-path="url(#clip281)" style="stroke:#000000; stroke-linecap:round; stroke-linejoin:round; stroke-width:2; stroke-opacity:0.1; fill:none" points="1367.08,1486.45 1367.08,47.2441 "/>
<polyline clip-path="url(#clip281)" style="stroke:#000000; stroke-linecap:round; stroke-linejoin:round; stroke-width:2; stroke-opacity:0.1; fill:none" points="1788.88,1486.45 1788.88,47.2441 "/>
<polyline clip-path="url(#clip281)" style="stroke:#000000; stroke-linecap:round; stroke-linejoin:round; stroke-width:2; stroke-opacity:0.1; fill:none" points="2210.68,1486.45 2210.68,47.2441 "/>
<polyline clip-path="url(#clip281)" style="stroke:#000000; stroke-linecap:round; stroke-linejoin:round; stroke-width:2; stroke-opacity:0.1; fill:none" points="147.478,1347.08 2352.76,1347.08 "/>
<polyline clip-path="url(#clip281)" style="stroke:#000000; stroke-linecap:round; stroke-linejoin:round; stroke-width:2; stroke-opacity:0.1; fill:none" points="147.478,1014.34 2352.76,1014.34 "/>
<polyline clip-path="url(#clip281)" style="stroke:#000000; stroke-linecap:round; stroke-linejoin:round; stroke-width:2; stroke-opacity:0.1; fill:none" points="147.478,681.599 2352.76,681.599 "/>
<polyline clip-path="url(#clip281)" style="stroke:#000000; stroke-linecap:round; stroke-linejoin:round; stroke-width:2; stroke-opacity:0.1; fill:none" points="147.478,348.857 2352.76,348.857 "/>
<polyline clip-path="url(#clip280)" style="stroke:#000000; stroke-linecap:round; stroke-linejoin:round; stroke-width:4; stroke-opacity:1; fill:none" points="147.478,1486.45 2352.76,1486.45 "/>
<polyline clip-path="url(#clip280)" style="stroke:#000000; stroke-linecap:round; stroke-linejoin:round; stroke-width:4; stroke-opacity:1; fill:none" points="523.488,1486.45 523.488,1467.55 "/>
<polyline clip-path="url(#clip280)" style="stroke:#000000; stroke-linecap:round; stroke-linejoin:round; stroke-width:4; stroke-opacity:1; fill:none" points="945.286,1486.45 945.286,1467.55 "/>
<polyline clip-path="url(#clip280)" style="stroke:#000000; stroke-linecap:round; stroke-linejoin:round; stroke-width:4; stroke-opacity:1; fill:none" points="1367.08,1486.45 1367.08,1467.55 "/>
<polyline clip-path="url(#clip280)" style="stroke:#000000; stroke-linecap:round; stroke-linejoin:round; stroke-width:4; stroke-opacity:1; fill:none" points="1788.88,1486.45 1788.88,1467.55 "/>
<polyline clip-path="url(#clip280)" style="stroke:#000000; stroke-linecap:round; stroke-linejoin:round; stroke-width:4; stroke-opacity:1; fill:none" points="2210.68,1486.45 2210.68,1467.55 "/>
<path clip-path="url(#clip280)" d="M493.431 1532.02 L523.106 1532.02 L523.106 1535.95 L493.431 1535.95 L493.431 1532.02 Z" fill="#000000" fill-rule="nonzero" fill-opacity="1" /><path clip-path="url(#clip280)" d="M537.227 1544.91 L553.546 1544.91 L553.546 1548.85 L531.602 1548.85 L531.602 1544.91 Q534.264 1542.16 538.847 1537.53 Q543.453 1532.88 544.634 1531.53 Q546.879 1529.01 547.759 1527.27 Q548.662 1525.51 548.662 1523.82 Q548.662 1521.07 546.717 1519.33 Q544.796 1517.6 541.694 1517.6 Q539.495 1517.6 537.041 1518.36 Q534.611 1519.13 531.833 1520.68 L531.833 1515.95 Q534.657 1514.82 537.111 1514.24 Q539.565 1513.66 541.602 1513.66 Q546.972 1513.66 550.166 1516.35 Q553.361 1519.03 553.361 1523.52 Q553.361 1525.65 552.551 1527.57 Q551.764 1529.47 549.657 1532.07 Q549.078 1532.74 545.977 1535.95 Q542.875 1539.15 537.227 1544.91 Z" fill="#000000" fill-rule="nonzero" fill-opacity="1" /><path clip-path="url(#clip280)" d="M915.043 1532.02 L944.719 1532.02 L944.719 1535.95 L915.043 1535.95 L915.043 1532.02 Z" fill="#000000" fill-rule="nonzero" fill-opacity="1" /><path clip-path="url(#clip280)" d="M955.622 1544.91 L963.26 1544.91 L963.26 1518.55 L954.95 1520.21 L954.95 1515.95 L963.214 1514.29 L967.89 1514.29 L967.89 1544.91 L975.529 1544.91 L975.529 1548.85 L955.622 1548.85 L955.622 1544.91 Z" fill="#000000" fill-rule="nonzero" fill-opacity="1" /><path clip-path="url(#clip280)" d="M1367.08 1517.37 Q1363.47 1517.37 1361.64 1520.93 Q1359.84 1524.47 1359.84 1531.6 Q1359.84 1538.71 1361.64 1542.27 Q1363.47 1545.82 1367.08 1545.82 Q1370.72 1545.82 1372.52 1542.27 Q1374.35 1538.71 1374.35 1531.6 Q1374.35 1524.47 1372.52 1520.93 Q1370.72 1517.37 1367.08 1517.37 M1367.08 1513.66 Q1372.89 1513.66 1375.95 1518.27 Q1379.03 1522.85 1379.03 1531.6 Q1379.03 1540.33 1375.95 1544.94 Q1372.89 1549.52 1367.08 1549.52 Q1361.27 1549.52 1358.19 1544.94 Q1355.14 1540.33 1355.14 1531.6 Q1355.14 1522.85 1358.19 1518.27 Q1361.27 1513.66 1367.08 1513.66 Z" fill="#000000" fill-rule="nonzero" fill-opacity="1" /><path clip-path="url(#clip280)" d="M1779.26 1544.91 L1786.9 1544.91 L1786.9 1518.55 L1778.59 1520.21 L1778.59 1515.95 L1786.86 1514.29 L1791.53 1514.29 L1791.53 1544.91 L1799.17 1544.91 L1799.17 1548.85 L1779.26 1548.85 L1779.26 1544.91 Z" fill="#000000" fill-rule="nonzero" fill-opacity="1" /><path clip-path="url(#clip280)" d="M2205.33 1544.91 L2221.65 1544.91 L2221.65 1548.85 L2199.71 1548.85 L2199.71 1544.91 Q2202.37 1542.16 2206.95 1537.53 Q2211.56 1532.88 2212.74 1531.53 Q2214.98 1529.01 2215.86 1527.27 Q2216.77 1525.51 2216.77 1523.82 Q2216.77 1521.07 2214.82 1519.33 Q2212.9 1517.6 2209.8 1517.6 Q2207.6 1517.6 2205.15 1518.36 Q2202.72 1519.13 2199.94 1520.68 L2199.94 1515.95 Q2202.76 1514.82 2205.22 1514.24 Q2207.67 1513.66 2209.71 1513.66 Q2215.08 1513.66 2218.27 1516.35 Q2221.47 1519.03 2221.47 1523.52 Q2221.47 1525.65 2220.66 1527.57 Q2219.87 1529.47 2217.76 1532.07 Q2217.18 1532.74 2214.08 1535.95 Q2210.98 1539.15 2205.33 1544.91 Z" fill="#000000" fill-rule="nonzero" fill-opacity="1" /><polyline clip-path="url(#clip280)" style="stroke:#000000; stroke-linecap:round; stroke-linejoin:round; stroke-width:4; stroke-opacity:1; fill:none" points="147.478,1486.45 147.478,47.2441 "/>
<polyline clip-path="url(#clip280)" style="stroke:#000000; stroke-linecap:round; stroke-linejoin:round; stroke-width:4; stroke-opacity:1; fill:none" points="147.478,1347.08 166.376,1347.08 "/>
<polyline clip-path="url(#clip280)" style="stroke:#000000; stroke-linecap:round; stroke-linejoin:round; stroke-width:4; stroke-opacity:1; fill:none" points="147.478,1014.34 166.376,1014.34 "/>
<polyline clip-path="url(#clip280)" style="stroke:#000000; stroke-linecap:round; stroke-linejoin:round; stroke-width:4; stroke-opacity:1; fill:none" points="147.478,681.599 166.376,681.599 "/>
<polyline clip-path="url(#clip280)" style="stroke:#000000; stroke-linecap:round; stroke-linejoin:round; stroke-width:4; stroke-opacity:1; fill:none" points="147.478,348.857 166.376,348.857 "/>
<path clip-path="url(#clip280)" d="M50.9921 1347.54 L80.6679 1347.54 L80.6679 1351.47 L50.9921 1351.47 L50.9921 1347.54 Z" fill="#000000" fill-rule="nonzero" fill-opacity="1" /><path clip-path="url(#clip280)" d="M91.5706 1360.43 L99.2095 1360.43 L99.2095 1334.06 L90.8993 1335.73 L90.8993 1331.47 L99.1632 1329.8 L103.839 1329.8 L103.839 1360.43 L111.478 1360.43 L111.478 1364.36 L91.5706 1364.36 L91.5706 1360.43 Z" fill="#000000" fill-rule="nonzero" fill-opacity="1" /><path clip-path="url(#clip280)" d="M99.5335 1000.14 Q95.9224 1000.14 94.0937 1003.71 Q92.2882 1007.25 92.2882 1014.38 Q92.2882 1021.48 94.0937 1025.05 Q95.9224 1028.59 99.5335 1028.59 Q103.168 1028.59 104.973 1025.05 Q106.802 1021.48 106.802 1014.38 Q106.802 1007.25 104.973 1003.71 Q103.168 1000.14 99.5335 1000.14 M99.5335 996.437 Q105.344 996.437 108.399 1001.04 Q111.478 1005.63 111.478 1014.38 Q111.478 1023.1 108.399 1027.71 Q105.344 1032.29 99.5335 1032.29 Q93.7234 1032.29 90.6447 1027.71 Q87.5892 1023.1 87.5892 1014.38 Q87.5892 1005.63 90.6447 1001.04 Q93.7234 996.437 99.5335 996.437 Z" fill="#000000" fill-rule="nonzero" fill-opacity="1" /><path clip-path="url(#clip280)" d="M91.5706 694.944 L99.2095 694.944 L99.2095 668.579 L90.8993 670.245 L90.8993 665.986 L99.1632 664.319 L103.839 664.319 L103.839 694.944 L111.478 694.944 L111.478 698.879 L91.5706 698.879 L91.5706 694.944 Z" fill="#000000" fill-rule="nonzero" fill-opacity="1" /><path clip-path="url(#clip280)" d="M95.1586 362.202 L111.478 362.202 L111.478 366.137 L89.5336 366.137 L89.5336 362.202 Q92.1956 359.447 96.7789 354.817 Q101.385 350.165 102.566 348.822 Q104.811 346.299 105.691 344.563 Q106.594 342.804 106.594 341.114 Q106.594 338.359 104.649 336.623 Q102.728 334.887 99.6261 334.887 Q97.4271 334.887 94.9734 335.651 Q92.5428 336.415 89.7651 337.966 L89.7651 333.244 Q92.5891 332.109 95.0428 331.531 Q97.4965 330.952 99.5335 330.952 Q104.904 330.952 108.098 333.637 Q111.293 336.322 111.293 340.813 Q111.293 342.943 110.483 344.864 Q109.696 346.762 107.589 349.355 Q107.01 350.026 103.909 353.243 Q100.807 356.438 95.1586 362.202 Z" fill="#000000" fill-rule="nonzero" fill-opacity="1" /><circle clip-path="url(#clip281)" cx="1272.32" cy="1039.41" r="14.4" fill="#009af9" fill-rule="evenodd" fill-opacity="0.5" stroke="#000000" stroke-opacity="0.5" stroke-width="3.2"/>
<circle clip-path="url(#clip281)" cx="1309.18" cy="1183.06" r="14.4" fill="#009af9" fill-rule="evenodd" fill-opacity="0.5" stroke="#000000" stroke-opacity="0.5" stroke-width="3.2"/>
<circle clip-path="url(#clip281)" cx="1733.3" cy="451.651" r="14.4" fill="#009af9" fill-rule="evenodd" fill-opacity="0.5" stroke="#000000" stroke-opacity="0.5" stroke-width="3.2"/>
<circle clip-path="url(#clip281)" cx="813.779" cy="1161.4" r="14.4" fill="#009af9" fill-rule="evenodd" fill-opacity="0.5" stroke="#000000" stroke-opacity="0.5" stroke-width="3.2"/>
<circle clip-path="url(#clip281)" cx="930.959" cy="1227.43" r="14.4" fill="#009af9" fill-rule="evenodd" fill-opacity="0.5" stroke="#000000" stroke-opacity="0.5" stroke-width="3.2"/>
<circle clip-path="url(#clip281)" cx="1948.56" cy="968.712" r="14.4" fill="#009af9" fill-rule="evenodd" fill-opacity="0.5" stroke="#000000" stroke-opacity="0.5" stroke-width="3.2"/>
<circle clip-path="url(#clip281)" cx="952.821" cy="1064.71" r="14.4" fill="#009af9" fill-rule="evenodd" fill-opacity="0.5" stroke="#000000" stroke-opacity="0.5" stroke-width="3.2"/>
<circle clip-path="url(#clip281)" cx="886.277" cy="1039.38" r="14.4" fill="#009af9" fill-rule="evenodd" fill-opacity="0.5" stroke="#000000" stroke-opacity="0.5" stroke-width="3.2"/>
<circle clip-path="url(#clip281)" cx="1514.38" cy="624.37" r="14.4" fill="#009af9" fill-rule="evenodd" fill-opacity="0.5" stroke="#000000" stroke-opacity="0.5" stroke-width="3.2"/>
<circle clip-path="url(#clip281)" cx="1005.72" cy="957.891" r="14.4" fill="#009af9" fill-rule="evenodd" fill-opacity="0.5" stroke="#000000" stroke-opacity="0.5" stroke-width="3.2"/>
<circle clip-path="url(#clip281)" cx="2167.64" cy="746.517" r="14.4" fill="#009af9" fill-rule="evenodd" fill-opacity="0.5" stroke="#000000" stroke-opacity="0.5" stroke-width="3.2"/>
<circle clip-path="url(#clip281)" cx="1668.05" cy="1315.36" r="14.4" fill="#009af9" fill-rule="evenodd" fill-opacity="0.5" stroke="#000000" stroke-opacity="0.5" stroke-width="3.2"/>
<circle clip-path="url(#clip281)" cx="765.602" cy="777.063" r="14.4" fill="#009af9" fill-rule="evenodd" fill-opacity="0.5" stroke="#000000" stroke-opacity="0.5" stroke-width="3.2"/>
<circle clip-path="url(#clip281)" cx="776.265" cy="548.754" r="14.4" fill="#009af9" fill-rule="evenodd" fill-opacity="0.5" stroke="#000000" stroke-opacity="0.5" stroke-width="3.2"/>
<circle clip-path="url(#clip281)" cx="1650.8" cy="898.174" r="14.4" fill="#009af9" fill-rule="evenodd" fill-opacity="0.5" stroke="#000000" stroke-opacity="0.5" stroke-width="3.2"/>
<circle clip-path="url(#clip281)" cx="1816.59" cy="1445.72" r="14.4" fill="#009af9" fill-rule="evenodd" fill-opacity="0.5" stroke="#000000" stroke-opacity="0.5" stroke-width="3.2"/>
<circle clip-path="url(#clip281)" cx="1333.57" cy="1314.53" r="14.4" fill="#009af9" fill-rule="evenodd" fill-opacity="0.5" stroke="#000000" stroke-opacity="0.5" stroke-width="3.2"/>
<circle clip-path="url(#clip281)" cx="1410.39" cy="1045.54" r="14.4" fill="#009af9" fill-rule="evenodd" fill-opacity="0.5" stroke="#000000" stroke-opacity="0.5" stroke-width="3.2"/>
<circle clip-path="url(#clip281)" cx="1897.58" cy="1110.09" r="14.4" fill="#009af9" fill-rule="evenodd" fill-opacity="0.5" stroke="#000000" stroke-opacity="0.5" stroke-width="3.2"/>
<circle clip-path="url(#clip281)" cx="1720.77" cy="1064.71" r="14.4" fill="#009af9" fill-rule="evenodd" fill-opacity="0.5" stroke="#000000" stroke-opacity="0.5" stroke-width="3.2"/>
<circle clip-path="url(#clip281)" cx="209.891" cy="850.362" r="14.4" fill="#009af9" fill-rule="evenodd" fill-opacity="0.5" stroke="#000000" stroke-opacity="0.5" stroke-width="3.2"/>
<circle clip-path="url(#clip281)" cx="1879.75" cy="1411.14" r="14.4" fill="#009af9" fill-rule="evenodd" fill-opacity="0.5" stroke="#000000" stroke-opacity="0.5" stroke-width="3.2"/>
<circle clip-path="url(#clip281)" cx="1406.06" cy="882.73" r="14.4" fill="#009af9" fill-rule="evenodd" fill-opacity="0.5" stroke="#000000" stroke-opacity="0.5" stroke-width="3.2"/>
<circle clip-path="url(#clip281)" cx="2135.26" cy="1208.88" r="14.4" fill="#009af9" fill-rule="evenodd" fill-opacity="0.5" stroke="#000000" stroke-opacity="0.5" stroke-width="3.2"/>
<circle clip-path="url(#clip281)" cx="2290.34" cy="1007.11" r="14.4" fill="#009af9" fill-rule="evenodd" fill-opacity="0.5" stroke="#000000" stroke-opacity="0.5" stroke-width="3.2"/>
<circle clip-path="url(#clip281)" cx="1918.86" cy="87.9763" r="14.4" fill="#009af9" fill-rule="evenodd" fill-opacity="0.5" stroke="#000000" stroke-opacity="0.5" stroke-width="3.2"/>
<circle clip-path="url(#clip281)" cx="1428.14" cy="1072.01" r="14.4" fill="#009af9" fill-rule="evenodd" fill-opacity="0.5" stroke="#000000" stroke-opacity="0.5" stroke-width="3.2"/>
<circle clip-path="url(#clip281)" cx="1153.58" cy="916.595" r="14.4" fill="#009af9" fill-rule="evenodd" fill-opacity="0.5" stroke="#000000" stroke-opacity="0.5" stroke-width="3.2"/>
<circle clip-path="url(#clip281)" cx="1680.2" cy="607.721" r="14.4" fill="#009af9" fill-rule="evenodd" fill-opacity="0.5" stroke="#000000" stroke-opacity="0.5" stroke-width="3.2"/>
<circle clip-path="url(#clip281)" cx="1233.23" cy="1205.73" r="14.4" fill="#009af9" fill-rule="evenodd" fill-opacity="0.5" stroke="#000000" stroke-opacity="0.5" stroke-width="3.2"/>
<path clip-path="url(#clip281)" d="M209.891 850.362 L930.959 1227.43 L1816.59 1445.72 L1879.75 1411.14 L2135.26 1208.88 L2290.34 1007.11 L1918.86 87.9763 L776.265 548.754 L209.891 850.362 L209.891 850.362  Z" fill="#e26f46" fill-rule="evenodd" fill-opacity="0.2"/>
<polyline clip-path="url(#clip281)" style="stroke:#000000; stroke-linecap:round; stroke-linejoin:round; stroke-width:4; stroke-opacity:0.2; fill:none" points="209.891,850.362 930.959,1227.43 1816.59,1445.72 1879.75,1411.14 2135.26,1208.88 2290.34,1007.11 1918.86,87.9763 776.265,548.754 209.891,850.362 "/>
</svg>
