<?xml version="1.0" encoding="utf-8"?>
<svg xmlns="http://www.w3.org/2000/svg" xmlns:xlink="http://www.w3.org/1999/xlink" width="600" height="400" viewBox="0 0 2400 1600">
<defs>
  <clipPath id="clip700">
    <rect x="0" y="0" width="2400" height="1600"/>
  </clipPath>
</defs>
<path clip-path="url(#clip700)" d="M0 1600 L2400 1600 L2400 0 L0 0  Z" fill="#ffffff" fill-rule="evenodd" fill-opacity="1"/>
<defs>
  <clipPath id="clip701">
    <rect x="480" y="0" width="1681" height="1600"/>
  </clipPath>
</defs>
<path clip-path="url(#clip700)" d="M147.478 1486.45 L2352.76 1486.45 L2352.76 47.2441 L147.478 47.2441  Z" fill="#ffffff" fill-rule="evenodd" fill-opacity="1"/>
<defs>
  <clipPath id="clip702">
    <rect x="147" y="47" width="2206" height="1440"/>
  </clipPath>
</defs>
<polyline clip-path="url(#clip702)" style="stroke:#000000; stroke-linecap:round; stroke-linejoin:round; stroke-width:2; stroke-opacity:0.1; fill:none" points="215.608,1486.45 215.608,47.2441 "/>
<polyline clip-path="url(#clip702)" style="stroke:#000000; stroke-linecap:round; stroke-linejoin:round; stroke-width:2; stroke-opacity:0.1; fill:none" points="832.848,1486.45 832.848,47.2441 "/>
<polyline clip-path="url(#clip702)" style="stroke:#000000; stroke-linecap:round; stroke-linejoin:round; stroke-width:2; stroke-opacity:0.1; fill:none" points="1450.09,1486.45 1450.09,47.2441 "/>
<polyline clip-path="url(#clip702)" style="stroke:#000000; stroke-linecap:round; stroke-linejoin:round; stroke-width:2; stroke-opacity:0.1; fill:none" points="2067.33,1486.45 2067.33,47.2441 "/>
<polyline clip-path="url(#clip700)" style="stroke:#000000; stroke-linecap:round; stroke-linejoin:round; stroke-width:4; stroke-opacity:1; fill:none" points="147.478,1486.45 2352.76,1486.45 "/>
<polyline clip-path="url(#clip700)" style="stroke:#000000; stroke-linecap:round; stroke-linejoin:round; stroke-width:4; stroke-opacity:1; fill:none" points="215.608,1486.45 215.608,1467.55 "/>
<polyline clip-path="url(#clip700)" style="stroke:#000000; stroke-linecap:round; stroke-linejoin:round; stroke-width:4; stroke-opacity:1; fill:none" points="832.848,1486.45 832.848,1467.55 "/>
<polyline clip-path="url(#clip700)" style="stroke:#000000; stroke-linecap:round; stroke-linejoin:round; stroke-width:4; stroke-opacity:1; fill:none" points="1450.09,1486.45 1450.09,1467.55 "/>
<polyline clip-path="url(#clip700)" style="stroke:#000000; stroke-linecap:round; stroke-linejoin:round; stroke-width:4; stroke-opacity:1; fill:none" points="2067.33,1486.45 2067.33,1467.55 "/>
<path clip-path="url(#clip700)" d="M185.551 1532.02 L215.227 1532.02 L215.227 1535.95 L185.551 1535.95 L185.551 1532.02 Z" fill="#000000" fill-rule="nonzero" fill-opacity="1" /><path clip-path="url(#clip700)" d="M229.347 1544.91 L245.666 1544.91 L245.666 1548.85 L223.722 1548.85 L223.722 1544.91 Q226.384 1542.16 230.967 1537.53 Q235.574 1532.88 236.754 1531.53 Q239 1529.01 239.879 1527.27 Q240.782 1525.51 240.782 1523.82 Q240.782 1521.07 238.838 1519.33 Q236.916 1517.6 233.814 1517.6 Q231.615 1517.6 229.162 1518.36 Q226.731 1519.13 223.953 1520.68 L223.953 1515.95 Q226.777 1514.82 229.231 1514.24 Q231.685 1513.66 233.722 1513.66 Q239.092 1513.66 242.287 1516.35 Q245.481 1519.03 245.481 1523.52 Q245.481 1525.65 244.671 1527.57 Q243.884 1529.47 241.777 1532.07 Q241.199 1532.74 238.097 1535.95 Q234.995 1539.15 229.347 1544.91 Z" fill="#000000" fill-rule="nonzero" fill-opacity="1" /><path clip-path="url(#clip700)" d="M802.605 1532.02 L832.281 1532.02 L832.281 1535.95 L802.605 1535.95 L802.605 1532.02 Z" fill="#000000" fill-rule="nonzero" fill-opacity="1" /><path clip-path="url(#clip700)" d="M843.183 1544.91 L850.822 1544.91 L850.822 1518.55 L842.512 1520.21 L842.512 1515.95 L850.776 1514.29 L855.452 1514.29 L855.452 1544.91 L863.091 1544.91 L863.091 1548.85 L843.183 1548.85 L843.183 1544.91 Z" fill="#000000" fill-rule="nonzero" fill-opacity="1" /><path clip-path="url(#clip700)" d="M1450.09 1517.37 Q1446.48 1517.37 1444.65 1520.93 Q1442.84 1524.47 1442.84 1531.6 Q1442.84 1538.71 1444.65 1542.27 Q1446.48 1545.82 1450.09 1545.82 Q1453.72 1545.82 1455.53 1542.27 Q1457.36 1538.71 1457.36 1531.6 Q1457.36 1524.47 1455.53 1520.93 Q1453.72 1517.37 1450.09 1517.37 M1450.09 1513.66 Q1455.9 1513.66 1458.95 1518.27 Q1462.03 1522.85 1462.03 1531.6 Q1462.03 1540.33 1458.95 1544.94 Q1455.9 1549.52 1450.09 1549.52 Q1444.28 1549.52 1441.2 1544.94 Q1438.14 1540.33 1438.14 1531.6 Q1438.14 1522.85 1441.2 1518.27 Q1444.28 1513.66 1450.09 1513.66 Z" fill="#000000" fill-rule="nonzero" fill-opacity="1" /><path clip-path="url(#clip700)" d="M2057.71 1544.91 L2065.35 1544.91 L2065.35 1518.55 L2057.04 1520.21 L2057.04 1515.95 L2065.3 1514.29 L2069.98 1514.29 L2069.98 1544.91 L2077.62 1544.91 L2077.62 1548.85 L2057.71 1548.85 L2057.71 1544.91 Z" fill="#000000" fill-rule="nonzero" fill-opacity="1" /><polyline clip-path="url(#clip702)" style="stroke:#000000; stroke-linecap:round; stroke-linejoin:round; stroke-width:2; stroke-opacity:0.1; fill:none" points="147.478,1206.69 2352.76,1206.69 "/>
<polyline clip-path="url(#clip702)" style="stroke:#000000; stroke-linecap:round; stroke-linejoin:round; stroke-width:2; stroke-opacity:0.1; fill:none" points="147.478,878.865 2352.76,878.865 "/>
<polyline clip-path="url(#clip702)" style="stroke:#000000; stroke-linecap:round; stroke-linejoin:round; stroke-width:2; stroke-opacity:0.1; fill:none" points="147.478,551.045 2352.76,551.045 "/>
<polyline clip-path="url(#clip702)" style="stroke:#000000; stroke-linecap:round; stroke-linejoin:round; stroke-width:2; stroke-opacity:0.1; fill:none" points="147.478,223.226 2352.76,223.226 "/>
<polyline clip-path="url(#clip700)" style="stroke:#000000; stroke-linecap:round; stroke-linejoin:round; stroke-width:4; stroke-opacity:1; fill:none" points="147.478,1486.45 147.478,47.2441 "/>
<polyline clip-path="url(#clip700)" style="stroke:#000000; stroke-linecap:round; stroke-linejoin:round; stroke-width:4; stroke-opacity:1; fill:none" points="147.478,1206.69 166.376,1206.69 "/>
<polyline clip-path="url(#clip700)" style="stroke:#000000; stroke-linecap:round; stroke-linejoin:round; stroke-width:4; stroke-opacity:1; fill:none" points="147.478,878.865 166.376,878.865 "/>
<polyline clip-path="url(#clip700)" style="stroke:#000000; stroke-linecap:round; stroke-linejoin:round; stroke-width:4; stroke-opacity:1; fill:none" points="147.478,551.045 166.376,551.045 "/>
<polyline clip-path="url(#clip700)" style="stroke:#000000; stroke-linecap:round; stroke-linejoin:round; stroke-width:4; stroke-opacity:1; fill:none" points="147.478,223.226 166.376,223.226 "/>
<path clip-path="url(#clip700)" d="M50.9921 1207.14 L80.6679 1207.14 L80.6679 1211.07 L50.9921 1211.07 L50.9921 1207.14 Z" fill="#000000" fill-rule="nonzero" fill-opacity="1" /><path clip-path="url(#clip700)" d="M91.5706 1220.03 L99.2095 1220.03 L99.2095 1193.66 L90.8993 1195.33 L90.8993 1191.07 L99.1632 1189.41 L103.839 1189.41 L103.839 1220.03 L111.478 1220.03 L111.478 1223.97 L91.5706 1223.97 L91.5706 1220.03 Z" fill="#000000" fill-rule="nonzero" fill-opacity="1" /><path clip-path="url(#clip700)" d="M99.5335 864.664 Q95.9224 864.664 94.0937 868.229 Q92.2882 871.771 92.2882 878.9 Q92.2882 886.007 94.0937 889.571 Q95.9224 893.113 99.5335 893.113 Q103.168 893.113 104.973 889.571 Q106.802 886.007 106.802 878.9 Q106.802 871.771 104.973 868.229 Q103.168 864.664 99.5335 864.664 M99.5335 860.96 Q105.344 860.96 108.399 865.567 Q111.478 870.15 111.478 878.9 Q111.478 887.627 108.399 892.233 Q105.344 896.817 99.5335 896.817 Q93.7234 896.817 90.6447 892.233 Q87.5892 887.627 87.5892 878.9 Q87.5892 870.15 90.6447 865.567 Q93.7234 860.96 99.5335 860.96 Z" fill="#000000" fill-rule="nonzero" fill-opacity="1" /><path clip-path="url(#clip700)" d="M91.5706 564.39 L99.2095 564.39 L99.2095 538.025 L90.8993 539.691 L90.8993 535.432 L99.1632 533.765 L103.839 533.765 L103.839 564.39 L111.478 564.39 L111.478 568.325 L91.5706 568.325 L91.5706 564.39 Z" fill="#000000" fill-rule="nonzero" fill-opacity="1" /><path clip-path="url(#clip700)" d="M95.1586 236.57 L111.478 236.57 L111.478 240.506 L89.5336 240.506 L89.5336 236.57 Q92.1956 233.816 96.7789 229.186 Q101.385 224.533 102.566 223.191 Q104.811 220.668 105.691 218.932 Q106.594 217.172 106.594 215.482 Q106.594 212.728 104.649 210.992 Q102.728 209.256 99.6261 209.256 Q97.4271 209.256 94.9734 210.02 Q92.5428 210.783 89.7651 212.334 L89.7651 207.612 Q92.5891 206.478 95.0428 205.899 Q97.4965 205.321 99.5335 205.321 Q104.904 205.321 108.098 208.006 Q111.293 210.691 111.293 215.182 Q111.293 217.311 110.483 219.232 Q109.696 221.131 107.589 223.723 Q107.01 224.394 103.909 227.612 Q100.807 230.806 95.1586 236.57 Z" fill="#000000" fill-rule="nonzero" fill-opacity="1" /><circle clip-path="url(#clip702)" cx="2290.34" cy="852.386" r="14.4" fill="#009af9" fill-rule="evenodd" fill-opacity="0.5" stroke="#000000" stroke-opacity="0.5" stroke-width="3.2"/>
<circle clip-path="url(#clip702)" cx="1561.74" cy="950.081" r="14.4" fill="#009af9" fill-rule="evenodd" fill-opacity="0.5" stroke="#000000" stroke-opacity="0.5" stroke-width="3.2"/>
<circle clip-path="url(#clip702)" cx="2101.47" cy="881.421" r="14.4" fill="#009af9" fill-rule="evenodd" fill-opacity="0.5" stroke="#000000" stroke-opacity="0.5" stroke-width="3.2"/>
<circle clip-path="url(#clip702)" cx="1441.64" cy="1445.72" r="14.4" fill="#009af9" fill-rule="evenodd" fill-opacity="0.5" stroke="#000000" stroke-opacity="0.5" stroke-width="3.2"/>
<circle clip-path="url(#clip702)" cx="992.716" cy="1053.37" r="14.4" fill="#009af9" fill-rule="evenodd" fill-opacity="0.5" stroke="#000000" stroke-opacity="0.5" stroke-width="3.2"/>
<circle clip-path="url(#clip702)" cx="1748.64" cy="733.921" r="14.4" fill="#009af9" fill-rule="evenodd" fill-opacity="0.5" stroke="#000000" stroke-opacity="0.5" stroke-width="3.2"/>
<circle clip-path="url(#clip702)" cx="1325.01" cy="849.299" r="14.4" fill="#009af9" fill-rule="evenodd" fill-opacity="0.5" stroke="#000000" stroke-opacity="0.5" stroke-width="3.2"/>
<circle clip-path="url(#clip702)" cx="1651.42" cy="645.857" r="14.4" fill="#009af9" fill-rule="evenodd" fill-opacity="0.5" stroke="#000000" stroke-opacity="0.5" stroke-width="3.2"/>
<circle clip-path="url(#clip702)" cx="1280.91" cy="988.282" r="14.4" fill="#009af9" fill-rule="evenodd" fill-opacity="0.5" stroke="#000000" stroke-opacity="0.5" stroke-width="3.2"/>
<circle clip-path="url(#clip702)" cx="1396.65" cy="87.9763" r="14.4" fill="#009af9" fill-rule="evenodd" fill-opacity="0.5" stroke="#000000" stroke-opacity="0.5" stroke-width="3.2"/>
<circle clip-path="url(#clip702)" cx="1442.08" cy="1303.08" r="14.4" fill="#009af9" fill-rule="evenodd" fill-opacity="0.5" stroke="#000000" stroke-opacity="0.5" stroke-width="3.2"/>
<circle clip-path="url(#clip702)" cx="2076.16" cy="812.685" r="14.4" fill="#009af9" fill-rule="evenodd" fill-opacity="0.5" stroke="#000000" stroke-opacity="0.5" stroke-width="3.2"/>
<circle clip-path="url(#clip702)" cx="1125.99" cy="628.485" r="14.4" fill="#009af9" fill-rule="evenodd" fill-opacity="0.5" stroke="#000000" stroke-opacity="0.5" stroke-width="3.2"/>
<circle clip-path="url(#clip702)" cx="1015.35" cy="865.588" r="14.4" fill="#009af9" fill-rule="evenodd" fill-opacity="0.5" stroke="#000000" stroke-opacity="0.5" stroke-width="3.2"/>
<circle clip-path="url(#clip702)" cx="2045.38" cy="862.75" r="14.4" fill="#009af9" fill-rule="evenodd" fill-opacity="0.5" stroke="#000000" stroke-opacity="0.5" stroke-width="3.2"/>
<circle clip-path="url(#clip702)" cx="1010.84" cy="1154.06" r="14.4" fill="#009af9" fill-rule="evenodd" fill-opacity="0.5" stroke="#000000" stroke-opacity="0.5" stroke-width="3.2"/>
<circle clip-path="url(#clip702)" cx="1940.33" cy="968.607" r="14.4" fill="#009af9" fill-rule="evenodd" fill-opacity="0.5" stroke="#000000" stroke-opacity="0.5" stroke-width="3.2"/>
<circle clip-path="url(#clip702)" cx="949.182" cy="971.39" r="14.4" fill="#009af9" fill-rule="evenodd" fill-opacity="0.5" stroke="#000000" stroke-opacity="0.5" stroke-width="3.2"/>
<circle clip-path="url(#clip702)" cx="435.938" cy="1198.84" r="14.4" fill="#009af9" fill-rule="evenodd" fill-opacity="0.5" stroke="#000000" stroke-opacity="0.5" stroke-width="3.2"/>
<circle clip-path="url(#clip702)" cx="1005.02" cy="807.157" r="14.4" fill="#009af9" fill-rule="evenodd" fill-opacity="0.5" stroke="#000000" stroke-opacity="0.5" stroke-width="3.2"/>
<circle clip-path="url(#clip702)" cx="1992.14" cy="659.555" r="14.4" fill="#009af9" fill-rule="evenodd" fill-opacity="0.5" stroke="#000000" stroke-opacity="0.5" stroke-width="3.2"/>
<circle clip-path="url(#clip702)" cx="209.891" cy="769.553" r="14.4" fill="#009af9" fill-rule="evenodd" fill-opacity="0.5" stroke="#000000" stroke-opacity="0.5" stroke-width="3.2"/>
<circle clip-path="url(#clip702)" cx="477.757" cy="908.644" r="14.4" fill="#009af9" fill-rule="evenodd" fill-opacity="0.5" stroke="#000000" stroke-opacity="0.5" stroke-width="3.2"/>
<circle clip-path="url(#clip702)" cx="283.655" cy="668.856" r="14.4" fill="#009af9" fill-rule="evenodd" fill-opacity="0.5" stroke="#000000" stroke-opacity="0.5" stroke-width="3.2"/>
<circle clip-path="url(#clip702)" cx="253.685" cy="1047.96" r="14.4" fill="#009af9" fill-rule="evenodd" fill-opacity="0.5" stroke="#000000" stroke-opacity="0.5" stroke-width="3.2"/>
<circle clip-path="url(#clip702)" cx="887.625" cy="1147.64" r="14.4" fill="#009af9" fill-rule="evenodd" fill-opacity="0.5" stroke="#000000" stroke-opacity="0.5" stroke-width="3.2"/>
<circle clip-path="url(#clip702)" cx="1373.92" cy="955.207" r="14.4" fill="#009af9" fill-rule="evenodd" fill-opacity="0.5" stroke="#000000" stroke-opacity="0.5" stroke-width="3.2"/>
<circle clip-path="url(#clip702)" cx="871.479" cy="654.164" r="14.4" fill="#009af9" fill-rule="evenodd" fill-opacity="0.5" stroke="#000000" stroke-opacity="0.5" stroke-width="3.2"/>
<circle clip-path="url(#clip702)" cx="1491.87" cy="464.503" r="14.4" fill="#009af9" fill-rule="evenodd" fill-opacity="0.5" stroke="#000000" stroke-opacity="0.5" stroke-width="3.2"/>
<circle clip-path="url(#clip702)" cx="2248.43" cy="1335.61" r="14.4" fill="#009af9" fill-rule="evenodd" fill-opacity="0.5" stroke="#000000" stroke-opacity="0.5" stroke-width="3.2"/>
<path clip-path="url(#clip702)" d="M209.891 769.553 L253.685 1047.96 L435.938 1198.84 L1441.64 1445.72 L2248.43 1335.61 L2290.34 852.386 L1396.65 87.9763 L283.655 668.856 L209.891 769.553 L209.891 769.553  Z" fill="#e26f46" fill-rule="evenodd" fill-opacity="0.2"/>
<polyline clip-path="url(#clip702)" style="stroke:#000000; stroke-linecap:round; stroke-linejoin:round; stroke-width:4; stroke-opacity:0.2; fill:none" points="209.891,769.553 253.685,1047.96 435.938,1198.84 1441.64,1445.72 2248.43,1335.61 2290.34,852.386 1396.65,87.9763 283.655,668.856 209.891,769.553 "/>
</svg>
