<?xml version="1.0" encoding="utf-8"?>
<svg xmlns="http://www.w3.org/2000/svg" xmlns:xlink="http://www.w3.org/1999/xlink" width="600" height="400" viewBox="0 0 2400 1600">
<defs>
  <clipPath id="clip910">
    <rect x="0" y="0" width="2400" height="1600"/>
  </clipPath>
</defs>
<path clip-path="url(#clip910)" d="M0 1600 L2400 1600 L2400 0 L0 0  Z" fill="#ffffff" fill-rule="evenodd" fill-opacity="1"/>
<defs>
  <clipPath id="clip911">
    <rect x="480" y="0" width="1681" height="1600"/>
  </clipPath>
</defs>
<path clip-path="url(#clip910)" d="M147.478 1486.45 L2352.76 1486.45 L2352.76 47.2441 L147.478 47.2441  Z" fill="#ffffff" fill-rule="evenodd" fill-opacity="1"/>
<defs>
  <clipPath id="clip912">
    <rect x="147" y="47" width="2206" height="1440"/>
  </clipPath>
</defs>
<polyline clip-path="url(#clip912)" style="stroke:#000000; stroke-linecap:round; stroke-linejoin:round; stroke-width:2; stroke-opacity:0.1; fill:none" points="254.299,1486.45 254.299,47.2441 "/>
<polyline clip-path="url(#clip912)" style="stroke:#000000; stroke-linecap:round; stroke-linejoin:round; stroke-width:2; stroke-opacity:0.1; fill:none" points="851.279,1486.45 851.279,47.2441 "/>
<polyline clip-path="url(#clip912)" style="stroke:#000000; stroke-linecap:round; stroke-linejoin:round; stroke-width:2; stroke-opacity:0.1; fill:none" points="1448.26,1486.45 1448.26,47.2441 "/>
<polyline clip-path="url(#clip912)" style="stroke:#000000; stroke-linecap:round; stroke-linejoin:round; stroke-width:2; stroke-opacity:0.1; fill:none" points="2045.24,1486.45 2045.24,47.2441 "/>
<polyline clip-path="url(#clip912)" style="stroke:#000000; stroke-linecap:round; stroke-linejoin:round; stroke-width:2; stroke-opacity:0.1; fill:none" points="147.478,1343.9 2352.76,1343.9 "/>
<polyline clip-path="url(#clip912)" style="stroke:#000000; stroke-linecap:round; stroke-linejoin:round; stroke-width:2; stroke-opacity:0.1; fill:none" points="147.478,1021.13 2352.76,1021.13 "/>
<polyline clip-path="url(#clip912)" style="stroke:#000000; stroke-linecap:round; stroke-linejoin:round; stroke-width:2; stroke-opacity:0.1; fill:none" points="147.478,698.355 2352.76,698.355 "/>
<polyline clip-path="url(#clip912)" style="stroke:#000000; stroke-linecap:round; stroke-linejoin:round; stroke-width:2; stroke-opacity:0.1; fill:none" points="147.478,375.584 2352.76,375.584 "/>
<polyline clip-path="url(#clip912)" style="stroke:#000000; stroke-linecap:round; stroke-linejoin:round; stroke-width:2; stroke-opacity:0.1; fill:none" points="147.478,52.8135 2352.76,52.8135 "/>
<polyline clip-path="url(#clip910)" style="stroke:#000000; stroke-linecap:round; stroke-linejoin:round; stroke-width:4; stroke-opacity:1; fill:none" points="147.478,1486.45 2352.76,1486.45 "/>
<polyline clip-path="url(#clip910)" style="stroke:#000000; stroke-linecap:round; stroke-linejoin:round; stroke-width:4; stroke-opacity:1; fill:none" points="254.299,1486.45 254.299,1467.55 "/>
<polyline clip-path="url(#clip910)" style="stroke:#000000; stroke-linecap:round; stroke-linejoin:round; stroke-width:4; stroke-opacity:1; fill:none" points="851.279,1486.45 851.279,1467.55 "/>
<polyline clip-path="url(#clip910)" style="stroke:#000000; stroke-linecap:round; stroke-linejoin:round; stroke-width:4; stroke-opacity:1; fill:none" points="1448.26,1486.45 1448.26,1467.55 "/>
<polyline clip-path="url(#clip910)" style="stroke:#000000; stroke-linecap:round; stroke-linejoin:round; stroke-width:4; stroke-opacity:1; fill:none" points="2045.24,1486.45 2045.24,1467.55 "/>
<path clip-path="url(#clip910)" d="M224.241 1532.02 L253.917 1532.02 L253.917 1535.95 L224.241 1535.95 L224.241 1532.02 Z" fill="#000000" fill-rule="nonzero" fill-opacity="1" /><path clip-path="url(#clip910)" d="M268.037 1544.91 L284.357 1544.91 L284.357 1548.85 L262.413 1548.85 L262.413 1544.91 Q265.075 1542.16 269.658 1537.53 Q274.264 1532.88 275.445 1531.53 Q277.69 1529.01 278.57 1527.27 Q279.473 1525.51 279.473 1523.82 Q279.473 1521.07 277.528 1519.33 Q275.607 1517.6 272.505 1517.6 Q270.306 1517.6 267.852 1518.36 Q265.422 1519.13 262.644 1520.68 L262.644 1515.95 Q265.468 1514.82 267.922 1514.24 Q270.375 1513.66 272.412 1513.66 Q277.783 1513.66 280.977 1516.35 Q284.172 1519.03 284.172 1523.52 Q284.172 1525.65 283.361 1527.57 Q282.574 1529.47 280.468 1532.07 Q279.889 1532.74 276.787 1535.95 Q273.686 1539.15 268.037 1544.91 Z" fill="#000000" fill-rule="nonzero" fill-opacity="1" /><path clip-path="url(#clip910)" d="M821.036 1532.02 L850.712 1532.02 L850.712 1535.95 L821.036 1535.95 L821.036 1532.02 Z" fill="#000000" fill-rule="nonzero" fill-opacity="1" /><path clip-path="url(#clip910)" d="M861.615 1544.91 L869.254 1544.91 L869.254 1518.55 L860.944 1520.21 L860.944 1515.95 L869.207 1514.29 L873.883 1514.29 L873.883 1544.91 L881.522 1544.91 L881.522 1548.85 L861.615 1548.85 L861.615 1544.91 Z" fill="#000000" fill-rule="nonzero" fill-opacity="1" /><path clip-path="url(#clip910)" d="M1448.26 1517.37 Q1444.65 1517.37 1442.82 1520.93 Q1441.01 1524.47 1441.01 1531.6 Q1441.01 1538.71 1442.82 1542.27 Q1444.65 1545.82 1448.26 1545.82 Q1451.89 1545.82 1453.7 1542.27 Q1455.53 1538.71 1455.53 1531.6 Q1455.53 1524.47 1453.7 1520.93 Q1451.89 1517.37 1448.26 1517.37 M1448.26 1513.66 Q1454.07 1513.66 1457.13 1518.27 Q1460.2 1522.85 1460.2 1531.6 Q1460.2 1540.33 1457.13 1544.94 Q1454.07 1549.52 1448.26 1549.52 Q1442.45 1549.52 1439.37 1544.94 Q1436.31 1540.33 1436.31 1531.6 Q1436.31 1522.85 1439.37 1518.27 Q1442.45 1513.66 1448.26 1513.66 Z" fill="#000000" fill-rule="nonzero" fill-opacity="1" /><path clip-path="url(#clip910)" d="M2035.62 1544.91 L2043.26 1544.91 L2043.26 1518.55 L2034.95 1520.21 L2034.95 1515.95 L2043.21 1514.29 L2047.89 1514.29 L2047.89 1544.91 L2055.53 1544.91 L2055.53 1548.85 L2035.62 1548.85 L2035.62 1544.91 Z" fill="#000000" fill-rule="nonzero" fill-opacity="1" /><polyline clip-path="url(#clip910)" style="stroke:#000000; stroke-linecap:round; stroke-linejoin:round; stroke-width:4; stroke-opacity:1; fill:none" points="147.478,1486.45 147.478,47.2441 "/>
<polyline clip-path="url(#clip910)" style="stroke:#000000; stroke-linecap:round; stroke-linejoin:round; stroke-width:4; stroke-opacity:1; fill:none" points="147.478,1343.9 166.376,1343.9 "/>
<polyline clip-path="url(#clip910)" style="stroke:#000000; stroke-linecap:round; stroke-linejoin:round; stroke-width:4; stroke-opacity:1; fill:none" points="147.478,1021.13 166.376,1021.13 "/>
<polyline clip-path="url(#clip910)" style="stroke:#000000; stroke-linecap:round; stroke-linejoin:round; stroke-width:4; stroke-opacity:1; fill:none" points="147.478,698.355 166.376,698.355 "/>
<polyline clip-path="url(#clip910)" style="stroke:#000000; stroke-linecap:round; stroke-linejoin:round; stroke-width:4; stroke-opacity:1; fill:none" points="147.478,375.584 166.376,375.584 "/>
<polyline clip-path="url(#clip910)" style="stroke:#000000; stroke-linecap:round; stroke-linejoin:round; stroke-width:4; stroke-opacity:1; fill:none" points="147.478,52.8135 166.376,52.8135 "/>
<path clip-path="url(#clip910)" d="M51.3625 1344.35 L81.0383 1344.35 L81.0383 1348.28 L51.3625 1348.28 L51.3625 1344.35 Z" fill="#000000" fill-rule="nonzero" fill-opacity="1" /><path clip-path="url(#clip910)" d="M95.1586 1357.24 L111.478 1357.24 L111.478 1361.18 L89.5336 1361.18 L89.5336 1357.24 Q92.1956 1354.49 96.7789 1349.86 Q101.385 1345.2 102.566 1343.86 Q104.811 1341.34 105.691 1339.6 Q106.594 1337.84 106.594 1336.15 Q106.594 1333.4 104.649 1331.66 Q102.728 1329.93 99.6261 1329.93 Q97.4271 1329.93 94.9734 1330.69 Q92.5428 1331.45 89.7651 1333 L89.7651 1328.28 Q92.5891 1327.15 95.0428 1326.57 Q97.4965 1325.99 99.5335 1325.99 Q104.904 1325.99 108.098 1328.68 Q111.293 1331.36 111.293 1335.85 Q111.293 1337.98 110.483 1339.9 Q109.696 1341.8 107.589 1344.39 Q107.01 1345.06 103.909 1348.28 Q100.807 1351.48 95.1586 1357.24 Z" fill="#000000" fill-rule="nonzero" fill-opacity="1" /><path clip-path="url(#clip910)" d="M50.9921 1021.58 L80.6679 1021.58 L80.6679 1025.51 L50.9921 1025.51 L50.9921 1021.58 Z" fill="#000000" fill-rule="nonzero" fill-opacity="1" /><path clip-path="url(#clip910)" d="M91.5706 1034.47 L99.2095 1034.47 L99.2095 1008.1 L90.8993 1009.77 L90.8993 1005.51 L99.1632 1003.85 L103.839 1003.85 L103.839 1034.47 L111.478 1034.47 L111.478 1038.41 L91.5706 1038.41 L91.5706 1034.47 Z" fill="#000000" fill-rule="nonzero" fill-opacity="1" /><path clip-path="url(#clip910)" d="M99.5335 684.153 Q95.9224 684.153 94.0937 687.718 Q92.2882 691.26 92.2882 698.389 Q92.2882 705.496 94.0937 709.061 Q95.9224 712.602 99.5335 712.602 Q103.168 712.602 104.973 709.061 Q106.802 705.496 106.802 698.389 Q106.802 691.26 104.973 687.718 Q103.168 684.153 99.5335 684.153 M99.5335 680.45 Q105.344 680.45 108.399 685.056 Q111.478 689.639 111.478 698.389 Q111.478 707.116 108.399 711.723 Q105.344 716.306 99.5335 716.306 Q93.7234 716.306 90.6447 711.723 Q87.5892 707.116 87.5892 698.389 Q87.5892 689.639 90.6447 685.056 Q93.7234 680.45 99.5335 680.45 Z" fill="#000000" fill-rule="nonzero" fill-opacity="1" /><path clip-path="url(#clip910)" d="M91.5706 388.929 L99.2095 388.929 L99.2095 362.563 L90.8993 364.23 L90.8993 359.971 L99.1632 358.304 L103.839 358.304 L103.839 388.929 L111.478 388.929 L111.478 392.864 L91.5706 392.864 L91.5706 388.929 Z" fill="#000000" fill-rule="nonzero" fill-opacity="1" /><path clip-path="url(#clip910)" d="M95.1586 66.1583 L111.478 66.1583 L111.478 70.0935 L89.5336 70.0935 L89.5336 66.1583 Q92.1956 63.4037 96.7789 58.7741 Q101.385 54.1214 102.566 52.7788 Q104.811 50.2556 105.691 48.5195 Q106.594 46.7603 106.594 45.0705 Q106.594 42.3159 104.649 40.5798 Q102.728 38.8437 99.6261 38.8437 Q97.4271 38.8437 94.9734 39.6075 Q92.5428 40.3714 89.7651 41.9223 L89.7651 37.2002 Q92.5891 36.0659 95.0428 35.4872 Q97.4965 34.9085 99.5335 34.9085 Q104.904 34.9085 108.098 37.5937 Q111.293 40.2788 111.293 44.7696 Q111.293 46.8992 110.483 48.8205 Q109.696 50.7186 107.589 53.3112 Q107.01 53.9825 103.909 57.2 Q100.807 60.3945 95.1586 66.1583 Z" fill="#000000" fill-rule="nonzero" fill-opacity="1" /><circle clip-path="url(#clip912)" cx="330.114" cy="714.528" r="14.4" fill="#009af9" fill-rule="evenodd" fill-opacity="0.5" stroke="#000000" stroke-opacity="0.5" stroke-width="3.2"/>
<circle clip-path="url(#clip912)" cx="1437.33" cy="1050.13" r="14.4" fill="#009af9" fill-rule="evenodd" fill-opacity="0.5" stroke="#000000" stroke-opacity="0.5" stroke-width="3.2"/>
<circle clip-path="url(#clip912)" cx="889.747" cy="819.426" r="14.4" fill="#009af9" fill-rule="evenodd" fill-opacity="0.5" stroke="#000000" stroke-opacity="0.5" stroke-width="3.2"/>
<circle clip-path="url(#clip912)" cx="2171.83" cy="265.347" r="14.4" fill="#009af9" fill-rule="evenodd" fill-opacity="0.5" stroke="#000000" stroke-opacity="0.5" stroke-width="3.2"/>
<circle clip-path="url(#clip912)" cx="775.743" cy="748.266" r="14.4" fill="#009af9" fill-rule="evenodd" fill-opacity="0.5" stroke="#000000" stroke-opacity="0.5" stroke-width="3.2"/>
<circle clip-path="url(#clip912)" cx="1521.59" cy="528.339" r="14.4" fill="#009af9" fill-rule="evenodd" fill-opacity="0.5" stroke="#000000" stroke-opacity="0.5" stroke-width="3.2"/>
<circle clip-path="url(#clip912)" cx="1485.38" cy="311.519" r="14.4" fill="#009af9" fill-rule="evenodd" fill-opacity="0.5" stroke="#000000" stroke-opacity="0.5" stroke-width="3.2"/>
<circle clip-path="url(#clip912)" cx="2290.34" cy="569.111" r="14.4" fill="#009af9" fill-rule="evenodd" fill-opacity="0.5" stroke="#000000" stroke-opacity="0.5" stroke-width="3.2"/>
<circle clip-path="url(#clip912)" cx="1155.84" cy="1445.72" r="14.4" fill="#009af9" fill-rule="evenodd" fill-opacity="0.5" stroke="#000000" stroke-opacity="0.5" stroke-width="3.2"/>
<circle clip-path="url(#clip912)" cx="1610.72" cy="684.047" r="14.4" fill="#009af9" fill-rule="evenodd" fill-opacity="0.5" stroke="#000000" stroke-opacity="0.5" stroke-width="3.2"/>
<circle clip-path="url(#clip912)" cx="1778.28" cy="769.827" r="14.4" fill="#009af9" fill-rule="evenodd" fill-opacity="0.5" stroke="#000000" stroke-opacity="0.5" stroke-width="3.2"/>
<circle clip-path="url(#clip912)" cx="1248.98" cy="542.91" r="14.4" fill="#009af9" fill-rule="evenodd" fill-opacity="0.5" stroke="#000000" stroke-opacity="0.5" stroke-width="3.2"/>
<circle clip-path="url(#clip912)" cx="1157.41" cy="606.328" r="14.4" fill="#009af9" fill-rule="evenodd" fill-opacity="0.5" stroke="#000000" stroke-opacity="0.5" stroke-width="3.2"/>
<circle clip-path="url(#clip912)" cx="1699.9" cy="473.111" r="14.4" fill="#009af9" fill-rule="evenodd" fill-opacity="0.5" stroke="#000000" stroke-opacity="0.5" stroke-width="3.2"/>
<circle clip-path="url(#clip912)" cx="2009.01" cy="878.014" r="14.4" fill="#009af9" fill-rule="evenodd" fill-opacity="0.5" stroke="#000000" stroke-opacity="0.5" stroke-width="3.2"/>
<circle clip-path="url(#clip912)" cx="1560.13" cy="739.404" r="14.4" fill="#009af9" fill-rule="evenodd" fill-opacity="0.5" stroke="#000000" stroke-opacity="0.5" stroke-width="3.2"/>
<circle clip-path="url(#clip912)" cx="1479.7" cy="87.9763" r="14.4" fill="#009af9" fill-rule="evenodd" fill-opacity="0.5" stroke="#000000" stroke-opacity="0.5" stroke-width="3.2"/>
<circle clip-path="url(#clip912)" cx="1534.12" cy="1114.15" r="14.4" fill="#009af9" fill-rule="evenodd" fill-opacity="0.5" stroke="#000000" stroke-opacity="0.5" stroke-width="3.2"/>
<circle clip-path="url(#clip912)" cx="917.976" cy="385.725" r="14.4" fill="#009af9" fill-rule="evenodd" fill-opacity="0.5" stroke="#000000" stroke-opacity="0.5" stroke-width="3.2"/>
<circle clip-path="url(#clip912)" cx="1211.62" cy="747.714" r="14.4" fill="#009af9" fill-rule="evenodd" fill-opacity="0.5" stroke="#000000" stroke-opacity="0.5" stroke-width="3.2"/>
<circle clip-path="url(#clip912)" cx="1733.49" cy="862.51" r="14.4" fill="#009af9" fill-rule="evenodd" fill-opacity="0.5" stroke="#000000" stroke-opacity="0.5" stroke-width="3.2"/>
<circle clip-path="url(#clip912)" cx="1505.72" cy="863.115" r="14.4" fill="#009af9" fill-rule="evenodd" fill-opacity="0.5" stroke="#000000" stroke-opacity="0.5" stroke-width="3.2"/>
<circle clip-path="url(#clip912)" cx="815.1" cy="189.897" r="14.4" fill="#009af9" fill-rule="evenodd" fill-opacity="0.5" stroke="#000000" stroke-opacity="0.5" stroke-width="3.2"/>
<circle clip-path="url(#clip912)" cx="2112.28" cy="228.998" r="14.4" fill="#009af9" fill-rule="evenodd" fill-opacity="0.5" stroke="#000000" stroke-opacity="0.5" stroke-width="3.2"/>
<circle clip-path="url(#clip912)" cx="1193.73" cy="932.776" r="14.4" fill="#009af9" fill-rule="evenodd" fill-opacity="0.5" stroke="#000000" stroke-opacity="0.5" stroke-width="3.2"/>
<circle clip-path="url(#clip912)" cx="887.21" cy="721.304" r="14.4" fill="#009af9" fill-rule="evenodd" fill-opacity="0.5" stroke="#000000" stroke-opacity="0.5" stroke-width="3.2"/>
<circle clip-path="url(#clip912)" cx="1061.35" cy="769.964" r="14.4" fill="#009af9" fill-rule="evenodd" fill-opacity="0.5" stroke="#000000" stroke-opacity="0.5" stroke-width="3.2"/>
<circle clip-path="url(#clip912)" cx="1474.14" cy="882.915" r="14.4" fill="#009af9" fill-rule="evenodd" fill-opacity="0.5" stroke="#000000" stroke-opacity="0.5" stroke-width="3.2"/>
<circle clip-path="url(#clip912)" cx="768.055" cy="803.105" r="14.4" fill="#009af9" fill-rule="evenodd" fill-opacity="0.5" stroke="#000000" stroke-opacity="0.5" stroke-width="3.2"/>
<circle clip-path="url(#clip912)" cx="209.891" cy="685.211" r="14.4" fill="#009af9" fill-rule="evenodd" fill-opacity="0.5" stroke="#000000" stroke-opacity="0.5" stroke-width="3.2"/>
<path clip-path="url(#clip912)" d="M209.891 685.211 L1155.84 1445.72 L2009.01 878.014 L2290.34 569.111 L2171.83 265.347 L2112.28 228.998 L1479.7 87.9763 L815.1 189.897 L209.891 685.211 L209.891 685.211  Z" fill="#e26f46" fill-rule="evenodd" fill-opacity="0.2"/>
<polyline clip-path="url(#clip912)" style="stroke:#000000; stroke-linecap:round; stroke-linejoin:round; stroke-width:4; stroke-opacity:0.2; fill:none" points="209.891,685.211 1155.84,1445.72 2009.01,878.014 2290.34,569.111 2171.83,265.347 2112.28,228.998 1479.7,87.9763 815.1,189.897 209.891,685.211 "/>
</svg>
