<?xml version="1.0" encoding="utf-8"?>
<svg xmlns="http://www.w3.org/2000/svg" xmlns:xlink="http://www.w3.org/1999/xlink" width="600" height="400" viewBox="0 0 2400 1600">
<defs>
  <clipPath id="clip780">
    <rect x="0" y="0" width="2400" height="1600"/>
  </clipPath>
</defs>
<path clip-path="url(#clip780)" d="M0 1600 L2400 1600 L2400 0 L0 0  Z" fill="#ffffff" fill-rule="evenodd" fill-opacity="1"/>
<defs>
  <clipPath id="clip781">
    <rect x="147" y="47" width="2206" height="1440"/>
  </clipPath>
</defs>
<path clip-path="url(#clip780)" d="M147.478 1486.45 L2352.76 1486.45 L2352.76 47.2441 L147.478 47.2441  Z" fill="#ffffff" fill-rule="evenodd" fill-opacity="1"/>
<polyline clip-path="url(#clip781)" style="stroke:#000000; stroke-linecap:round; stroke-linejoin:round; stroke-width:2; stroke-opacity:0.1; fill:none" points="155.143,1486.45 155.143,47.2441 "/>
<polyline clip-path="url(#clip781)" style="stroke:#000000; stroke-linecap:round; stroke-linejoin:round; stroke-width:2; stroke-opacity:0.1; fill:none" points="702.63,1486.45 702.63,47.2441 "/>
<polyline clip-path="url(#clip781)" style="stroke:#000000; stroke-linecap:round; stroke-linejoin:round; stroke-width:2; stroke-opacity:0.1; fill:none" points="1250.12,1486.45 1250.12,47.2441 "/>
<polyline clip-path="url(#clip781)" style="stroke:#000000; stroke-linecap:round; stroke-linejoin:round; stroke-width:2; stroke-opacity:0.1; fill:none" points="1797.6,1486.45 1797.6,47.2441 "/>
<polyline clip-path="url(#clip781)" style="stroke:#000000; stroke-linecap:round; stroke-linejoin:round; stroke-width:2; stroke-opacity:0.1; fill:none" points="2345.09,1486.45 2345.09,47.2441 "/>
<polyline clip-path="url(#clip781)" style="stroke:#000000; stroke-linecap:round; stroke-linejoin:round; stroke-width:2; stroke-opacity:0.1; fill:none" points="147.478,1314.33 2352.76,1314.33 "/>
<polyline clip-path="url(#clip781)" style="stroke:#000000; stroke-linecap:round; stroke-linejoin:round; stroke-width:2; stroke-opacity:0.1; fill:none" points="147.478,1040.59 2352.76,1040.59 "/>
<polyline clip-path="url(#clip781)" style="stroke:#000000; stroke-linecap:round; stroke-linejoin:round; stroke-width:2; stroke-opacity:0.1; fill:none" points="147.478,766.846 2352.76,766.846 "/>
<polyline clip-path="url(#clip781)" style="stroke:#000000; stroke-linecap:round; stroke-linejoin:round; stroke-width:2; stroke-opacity:0.1; fill:none" points="147.478,493.102 2352.76,493.102 "/>
<polyline clip-path="url(#clip781)" style="stroke:#000000; stroke-linecap:round; stroke-linejoin:round; stroke-width:2; stroke-opacity:0.1; fill:none" points="147.478,219.359 2352.76,219.359 "/>
<polyline clip-path="url(#clip780)" style="stroke:#000000; stroke-linecap:round; stroke-linejoin:round; stroke-width:4; stroke-opacity:1; fill:none" points="147.478,1486.45 2352.76,1486.45 "/>
<polyline clip-path="url(#clip780)" style="stroke:#000000; stroke-linecap:round; stroke-linejoin:round; stroke-width:4; stroke-opacity:1; fill:none" points="155.143,1486.45 155.143,1467.55 "/>
<polyline clip-path="url(#clip780)" style="stroke:#000000; stroke-linecap:round; stroke-linejoin:round; stroke-width:4; stroke-opacity:1; fill:none" points="702.63,1486.45 702.63,1467.55 "/>
<polyline clip-path="url(#clip780)" style="stroke:#000000; stroke-linecap:round; stroke-linejoin:round; stroke-width:4; stroke-opacity:1; fill:none" points="1250.12,1486.45 1250.12,1467.55 "/>
<polyline clip-path="url(#clip780)" style="stroke:#000000; stroke-linecap:round; stroke-linejoin:round; stroke-width:4; stroke-opacity:1; fill:none" points="1797.6,1486.45 1797.6,1467.55 "/>
<polyline clip-path="url(#clip780)" style="stroke:#000000; stroke-linecap:round; stroke-linejoin:round; stroke-width:4; stroke-opacity:1; fill:none" points="2345.09,1486.45 2345.09,1467.55 "/>
<path clip-path="url(#clip780)" d="M124.043 1532.02 L153.719 1532.02 L153.719 1535.95 L124.043 1535.95 L124.043 1532.02 Z" fill="#000000" fill-rule="nonzero" fill-opacity="1" /><path clip-path="url(#clip780)" d="M176.659 1518.36 L164.853 1536.81 L176.659 1536.81 L176.659 1518.36 M175.432 1514.29 L181.312 1514.29 L181.312 1536.81 L186.242 1536.81 L186.242 1540.7 L181.312 1540.7 L181.312 1548.85 L176.659 1548.85 L176.659 1540.7 L161.057 1540.7 L161.057 1536.19 L175.432 1514.29 Z" fill="#000000" fill-rule="nonzero" fill-opacity="1" /><path clip-path="url(#clip780)" d="M672.572 1532.02 L702.248 1532.02 L702.248 1535.95 L672.572 1535.95 L672.572 1532.02 Z" fill="#000000" fill-rule="nonzero" fill-opacity="1" /><path clip-path="url(#clip780)" d="M716.368 1544.91 L732.688 1544.91 L732.688 1548.85 L710.743 1548.85 L710.743 1544.91 Q713.405 1542.16 717.989 1537.53 Q722.595 1532.88 723.776 1531.53 Q726.021 1529.01 726.901 1527.27 Q727.803 1525.51 727.803 1523.82 Q727.803 1521.07 725.859 1519.33 Q723.938 1517.6 720.836 1517.6 Q718.637 1517.6 716.183 1518.36 Q713.752 1519.13 710.975 1520.68 L710.975 1515.95 Q713.799 1514.82 716.252 1514.24 Q718.706 1513.66 720.743 1513.66 Q726.113 1513.66 729.308 1516.35 Q732.502 1519.03 732.502 1523.52 Q732.502 1525.65 731.692 1527.57 Q730.905 1529.47 728.799 1532.07 Q728.22 1532.74 725.118 1535.95 Q722.016 1539.15 716.368 1544.91 Z" fill="#000000" fill-rule="nonzero" fill-opacity="1" /><path clip-path="url(#clip780)" d="M1250.12 1517.37 Q1246.51 1517.37 1244.68 1520.93 Q1242.87 1524.47 1242.87 1531.6 Q1242.87 1538.71 1244.68 1542.27 Q1246.51 1545.82 1250.12 1545.82 Q1253.75 1545.82 1255.56 1542.27 Q1257.39 1538.71 1257.39 1531.6 Q1257.39 1524.47 1255.56 1520.93 Q1253.75 1517.37 1250.12 1517.37 M1250.12 1513.66 Q1255.93 1513.66 1258.98 1518.27 Q1262.06 1522.85 1262.06 1531.6 Q1262.06 1540.33 1258.98 1544.94 Q1255.93 1549.52 1250.12 1549.52 Q1244.31 1549.52 1241.23 1544.94 Q1238.17 1540.33 1238.17 1531.6 Q1238.17 1522.85 1241.23 1518.27 Q1244.31 1513.66 1250.12 1513.66 Z" fill="#000000" fill-rule="nonzero" fill-opacity="1" /><path clip-path="url(#clip780)" d="M1792.26 1544.91 L1808.58 1544.91 L1808.58 1548.85 L1786.63 1548.85 L1786.63 1544.91 Q1789.29 1542.16 1793.88 1537.53 Q1798.48 1532.88 1799.66 1531.53 Q1801.91 1529.01 1802.79 1527.27 Q1803.69 1525.51 1803.69 1523.82 Q1803.69 1521.07 1801.75 1519.33 Q1799.83 1517.6 1796.72 1517.6 Q1794.53 1517.6 1792.07 1518.36 Q1789.64 1519.13 1786.86 1520.68 L1786.86 1515.95 Q1789.69 1514.82 1792.14 1514.24 Q1794.59 1513.66 1796.63 1513.66 Q1802 1513.66 1805.2 1516.35 Q1808.39 1519.03 1808.39 1523.52 Q1808.39 1525.65 1807.58 1527.57 Q1806.79 1529.47 1804.69 1532.07 Q1804.11 1532.74 1801.01 1535.95 Q1797.9 1539.15 1792.26 1544.91 Z" fill="#000000" fill-rule="nonzero" fill-opacity="1" /><path clip-path="url(#clip780)" d="M2348.1 1518.36 L2336.29 1536.81 L2348.1 1536.81 L2348.1 1518.36 M2346.87 1514.29 L2352.75 1514.29 L2352.75 1536.81 L2357.68 1536.81 L2357.68 1540.7 L2352.75 1540.7 L2352.75 1548.85 L2348.1 1548.85 L2348.1 1540.7 L2332.5 1540.7 L2332.5 1536.19 L2346.87 1514.29 Z" fill="#000000" fill-rule="nonzero" fill-opacity="1" /><polyline clip-path="url(#clip780)" style="stroke:#000000; stroke-linecap:round; stroke-linejoin:round; stroke-width:4; stroke-opacity:1; fill:none" points="147.478,1486.45 147.478,47.2441 "/>
<polyline clip-path="url(#clip780)" style="stroke:#000000; stroke-linecap:round; stroke-linejoin:round; stroke-width:4; stroke-opacity:1; fill:none" points="147.478,1314.33 166.376,1314.33 "/>
<polyline clip-path="url(#clip780)" style="stroke:#000000; stroke-linecap:round; stroke-linejoin:round; stroke-width:4; stroke-opacity:1; fill:none" points="147.478,1040.59 166.376,1040.59 "/>
<polyline clip-path="url(#clip780)" style="stroke:#000000; stroke-linecap:round; stroke-linejoin:round; stroke-width:4; stroke-opacity:1; fill:none" points="147.478,766.846 166.376,766.846 "/>
<polyline clip-path="url(#clip780)" style="stroke:#000000; stroke-linecap:round; stroke-linejoin:round; stroke-width:4; stroke-opacity:1; fill:none" points="147.478,493.102 166.376,493.102 "/>
<polyline clip-path="url(#clip780)" style="stroke:#000000; stroke-linecap:round; stroke-linejoin:round; stroke-width:4; stroke-opacity:1; fill:none" points="147.478,219.359 166.376,219.359 "/>
<path clip-path="url(#clip780)" d="M51.3625 1314.78 L81.0383 1314.78 L81.0383 1318.72 L51.3625 1318.72 L51.3625 1314.78 Z" fill="#000000" fill-rule="nonzero" fill-opacity="1" /><path clip-path="url(#clip780)" d="M95.1586 1327.68 L111.478 1327.68 L111.478 1331.61 L89.5336 1331.61 L89.5336 1327.68 Q92.1956 1324.92 96.7789 1320.29 Q101.385 1315.64 102.566 1314.3 Q104.811 1311.78 105.691 1310.04 Q106.594 1308.28 106.594 1306.59 Q106.594 1303.84 104.649 1302.1 Q102.728 1300.36 99.6261 1300.36 Q97.4271 1300.36 94.9734 1301.13 Q92.5428 1301.89 89.7651 1303.44 L89.7651 1298.72 Q92.5891 1297.59 95.0428 1297.01 Q97.4965 1296.43 99.5335 1296.43 Q104.904 1296.43 108.098 1299.11 Q111.293 1301.8 111.293 1306.29 Q111.293 1308.42 110.483 1310.34 Q109.696 1312.24 107.589 1314.83 Q107.01 1315.5 103.909 1318.72 Q100.807 1321.91 95.1586 1327.68 Z" fill="#000000" fill-rule="nonzero" fill-opacity="1" /><path clip-path="url(#clip780)" d="M50.9921 1041.04 L80.6679 1041.04 L80.6679 1044.98 L50.9921 1044.98 L50.9921 1041.04 Z" fill="#000000" fill-rule="nonzero" fill-opacity="1" /><path clip-path="url(#clip780)" d="M91.5706 1053.93 L99.2095 1053.93 L99.2095 1027.57 L90.8993 1029.24 L90.8993 1024.98 L99.1632 1023.31 L103.839 1023.31 L103.839 1053.93 L111.478 1053.93 L111.478 1057.87 L91.5706 1057.87 L91.5706 1053.93 Z" fill="#000000" fill-rule="nonzero" fill-opacity="1" /><path clip-path="url(#clip780)" d="M99.5335 752.645 Q95.9224 752.645 94.0937 756.209 Q92.2882 759.751 92.2882 766.881 Q92.2882 773.987 94.0937 777.552 Q95.9224 781.094 99.5335 781.094 Q103.168 781.094 104.973 777.552 Q106.802 773.987 106.802 766.881 Q106.802 759.751 104.973 756.209 Q103.168 752.645 99.5335 752.645 M99.5335 748.941 Q105.344 748.941 108.399 753.547 Q111.478 758.131 111.478 766.881 Q111.478 775.608 108.399 780.214 Q105.344 784.797 99.5335 784.797 Q93.7234 784.797 90.6447 780.214 Q87.5892 775.608 87.5892 766.881 Q87.5892 758.131 90.6447 753.547 Q93.7234 748.941 99.5335 748.941 Z" fill="#000000" fill-rule="nonzero" fill-opacity="1" /><path clip-path="url(#clip780)" d="M91.5706 506.447 L99.2095 506.447 L99.2095 480.082 L90.8993 481.748 L90.8993 477.489 L99.1632 475.822 L103.839 475.822 L103.839 506.447 L111.478 506.447 L111.478 510.382 L91.5706 510.382 L91.5706 506.447 Z" fill="#000000" fill-rule="nonzero" fill-opacity="1" /><path clip-path="url(#clip780)" d="M95.1586 232.704 L111.478 232.704 L111.478 236.639 L89.5336 236.639 L89.5336 232.704 Q92.1956 229.949 96.7789 225.32 Q101.385 220.667 102.566 219.324 Q104.811 216.801 105.691 215.065 Q106.594 213.306 106.594 211.616 Q106.594 208.861 104.649 207.125 Q102.728 205.389 99.6261 205.389 Q97.4271 205.389 94.9734 206.153 Q92.5428 206.917 89.7651 208.468 L89.7651 203.746 Q92.5891 202.611 95.0428 202.033 Q97.4965 201.454 99.5335 201.454 Q104.904 201.454 108.098 204.139 Q111.293 206.824 111.293 211.315 Q111.293 213.445 110.483 215.366 Q109.696 217.264 107.589 219.857 Q107.01 220.528 103.909 223.745 Q100.807 226.94 95.1586 232.704 Z" fill="#000000" fill-rule="nonzero" fill-opacity="1" /><path clip-path="url(#clip781)" d="M1386.99 499.827 L1388.31 513.21 L1390.93 526.4 L1394.83 539.269 L1399.98 551.693 L1406.32 563.553 L1413.79 574.735 L1422.32 585.131 L1431.83 594.64 L1442.23 603.171 L1453.41 610.643 L1465.27 616.982 L1477.69 622.129 L1490.56 626.032 L1503.75 628.656 L1517.14 629.974 L1530.58 629.974 L1543.97 628.656 L1557.16 626.032 L1570.03 622.129 L1582.45 616.982 L1594.31 610.643 L1605.49 603.171 L1615.89 594.64 L1625.4 585.131 L1633.93 574.735 L1641.4 563.553 L1647.74 551.693 L1652.89 539.269 L1656.79 526.4 L1659.41 513.21 L1660.73 499.827 L1660.73 486.378 L1659.41 472.995 L1656.79 459.805 L1652.89 446.936 L1647.74 434.512 L1641.4 422.651 L1633.93 411.47 L1625.4 401.074 L1615.89 391.565 L1605.49 383.033 L1594.31 375.562 L1582.45 369.223 L1570.03 364.076 L1557.16 360.172 L1543.97 357.549 L1530.58 356.231 L1517.14 356.231 L1503.75 357.549 L1490.56 360.172 L1477.69 364.076 L1465.27 369.223 L1453.41 375.562 L1442.23 383.033 L1431.83 391.565 L1422.32 401.074 L1413.79 411.47 L1406.32 422.651 L1399.98 434.512 L1394.83 446.936 L1390.93 459.805 L1388.31 472.995 L1386.99 486.378 L1386.99 499.827 L1386.99 499.827  Z" fill="#009af9" fill-rule="evenodd" fill-opacity="0.5"/>
<polyline clip-path="url(#clip781)" style="stroke:#000000; stroke-linecap:round; stroke-linejoin:round; stroke-width:4; stroke-opacity:0.5; fill:none" points="1386.99,499.827 1388.31,513.21 1390.93,526.4 1394.83,539.269 1399.98,551.693 1406.32,563.553 1413.79,574.735 1422.32,585.131 1431.83,594.64 1442.23,603.171 1453.41,610.643 1465.27,616.982 1477.69,622.129 1490.56,626.032 1503.75,628.656 1517.14,629.974 1530.58,629.974 1543.97,628.656 1557.16,626.032 1570.03,622.129 1582.45,616.982 1594.31,610.643 1605.49,603.171 1615.89,594.64 1625.4,585.131 1633.93,574.735 1641.4,563.553 1647.74,551.693 1652.89,539.269 1656.79,526.4 1659.41,513.21 1660.73,499.827 1660.73,486.378 1659.41,472.995 1656.79,459.805 1652.89,446.936 1647.74,434.512 1641.4,422.651 1633.93,411.47 1625.4,401.074 1615.89,391.565 1605.49,383.033 1594.31,375.562 1582.45,369.223 1570.03,364.076 1557.16,360.172 1543.97,357.549 1530.58,356.231 1517.14,356.231 1503.75,357.549 1490.56,360.172 1477.69,364.076 1465.27,369.223 1453.41,375.562 1442.23,383.033 1431.83,391.565 1422.32,401.074 1413.79,411.47 1406.32,422.651 1399.98,434.512 1394.83,446.936 1390.93,459.805 1388.31,472.995 1386.99,486.378 1386.99,499.827 "/>
<path clip-path="url(#clip781)" d="M209.891 914.476 L212 935.89 L216.198 956.993 L222.444 977.584 L230.679 997.463 L240.822 1016.44 L252.776 1034.33 L266.426 1050.96 L281.641 1066.18 L298.274 1079.83 L316.165 1091.78 L335.141 1101.93 L355.02 1110.16 L375.611 1116.41 L396.714 1120.6 L418.128 1122.71 L439.645 1122.71 L461.058 1120.6 L482.162 1116.41 L502.752 1110.16 L522.632 1101.93 L541.608 1091.78 L559.499 1079.83 L576.132 1066.18 L591.346 1050.96 L604.997 1034.33 L616.951 1016.44 L627.094 997.463 L635.328 977.584 L641.574 956.993 L645.772 935.89 L647.881 914.476 L647.881 892.959 L645.772 871.546 L641.574 850.442 L635.328 829.852 L627.094 809.972 L616.951 790.996 L604.997 773.105 L591.346 756.472 L576.132 741.258 L559.499 727.607 L541.608 715.653 L522.632 705.51 L502.752 697.276 L482.162 691.03 L461.058 686.832 L439.645 684.723 L418.128 684.723 L396.714 686.832 L375.611 691.03 L355.02 697.276 L335.141 705.51 L316.165 715.653 L298.274 727.607 L281.641 741.258 L266.426 756.472 L252.776 773.105 L240.822 790.996 L230.679 809.972 L222.444 829.852 L216.198 850.442 L212 871.546 L209.891 892.959 L209.891 914.476 L209.891 914.476  Z" fill="#e26f46" fill-rule="evenodd" fill-opacity="0.5"/>
<polyline clip-path="url(#clip781)" style="stroke:#000000; stroke-linecap:round; stroke-linejoin:round; stroke-width:4; stroke-opacity:0.5; fill:none" points="209.891,914.476 212,935.89 216.198,956.993 222.444,977.584 230.679,997.463 240.822,1016.44 252.776,1034.33 266.426,1050.96 281.641,1066.18 298.274,1079.83 316.165,1091.78 335.141,1101.93 355.02,1110.16 375.611,1116.41 396.714,1120.6 418.128,1122.71 439.645,1122.71 461.058,1120.6 482.162,1116.41 502.752,1110.16 522.632,1101.93 541.608,1091.78 559.499,1079.83 576.132,1066.18 591.346,1050.96 604.997,1034.33 616.951,1016.44 627.094,997.463 635.328,977.584 641.574,956.993 645.772,935.89 647.881,914.476 647.881,892.959 645.772,871.546 641.574,850.442 635.328,829.852 627.094,809.972 616.951,790.996 604.997,773.105 591.346,756.472 576.132,741.258 559.499,727.607 541.608,715.653 522.632,705.51 502.752,697.276 482.162,691.03 461.058,686.832 439.645,684.723 418.128,684.723 396.714,686.832 375.611,691.03 355.02,697.276 335.141,705.51 316.165,715.653 298.274,727.607 281.641,741.258 266.426,756.472 252.776,773.105 240.822,790.996 230.679,809.972 222.444,829.852 216.198,850.442 212,871.546 209.891,892.959 209.891,914.476 "/>
<path clip-path="url(#clip781)" d="M209.891 895.666 L209.891 914.476 L212 935.89 L216.198 956.993 L222.444 977.584 L230.679 997.463 L240.822 1016.44 L252.776 1034.33 L266.426 1050.96 L281.641 1066.18 L298.274 1079.83 L316.165 1091.78 L335.141 1101.93 L355.02 1110.16 L375.611 1116.41 L396.714 1120.6 L418.128 1122.71 L434.546 1122.71 L445.852 1122.13 L457.112 1120.96 L468.296 1119.21 L479.376 1116.89 L490.32 1114 L501.101 1110.54 L511.688 1106.53 L524.378 1100.97 L1583.51 616.328 L1590.34 612.839 L1598.39 607.997 L1606.1 602.615 L1613.42 596.716 L1620.31 590.329 L1626.75 583.485 L1632.71 576.215 L1638.15 568.553 L1643.06 560.536 L1647.41 552.201 L1651.17 543.588 L1654.33 534.737 L1656.88 525.69 L1658.8 516.49 L1660.09 507.179 L1660.73 497.802 L1660.73 486.378 L1659.41 472.995 L1656.79 459.805 L1652.89 446.936 L1647.74 434.512 L1641.4 422.651 L1633.93 411.47 L1625.4 401.074 L1615.89 391.565 L1605.49 383.033 L1594.31 375.562 L1582.45 369.223 L1570.03 364.076 L1557.16 360.172 L1543.97 357.549 L1530.58 356.231 L1518.98 356.231 L1509.26 356.925 L1499.6 358.309 L1490.07 360.377 L1485.16 361.817 L367.181 693.594 L360.839 695.483 L349.979 699.352 L337.225 704.665 L322.855 711.934 L309.058 720.238 L295.908 729.533 L283.476 739.768 L271.829 750.889 L261.03 762.835 L251.138 775.542 L242.205 788.941 L234.281 802.959 L227.407 817.522 L221.621 832.55 L216.955 847.963 L213.433 863.676 L211.074 879.606 L209.891 895.666 L209.891 895.666  Z" fill="#3da44d" fill-rule="evenodd" fill-opacity="0.2"/>
<polyline clip-path="url(#clip781)" style="stroke:#000000; stroke-linecap:round; stroke-linejoin:round; stroke-width:4; stroke-opacity:0.2; fill:none" points="209.891,895.666 209.891,914.476 212,935.89 216.198,956.993 222.444,977.584 230.679,997.463 240.822,1016.44 252.776,1034.33 266.426,1050.96 281.641,1066.18 298.274,1079.83 316.165,1091.78 335.141,1101.93 355.02,1110.16 375.611,1116.41 396.714,1120.6 418.128,1122.71 434.546,1122.71 445.852,1122.13 457.112,1120.96 468.296,1119.21 479.376,1116.89 490.32,1114 501.101,1110.54 511.688,1106.53 524.378,1100.97 1583.51,616.328 1590.34,612.839 1598.39,607.997 1606.1,602.615 1613.42,596.716 1620.31,590.329 1626.75,583.485 1632.71,576.215 1638.15,568.553 1643.06,560.536 1647.41,552.201 1651.17,543.588 1654.33,534.737 1656.88,525.69 1658.8,516.49 1660.09,507.179 1660.73,497.802 1660.73,486.378 1659.41,472.995 1656.79,459.805 1652.89,446.936 1647.74,434.512 1641.4,422.651 1633.93,411.47 1625.4,401.074 1615.89,391.565 1605.49,383.033 1594.31,375.562 1582.45,369.223 1570.03,364.076 1557.16,360.172 1543.97,357.549 1530.58,356.231 1518.98,356.231 1509.26,356.925 1499.6,358.309 1490.07,360.377 1485.16,361.817 367.181,693.594 360.839,695.483 349.979,699.352 337.225,704.665 322.855,711.934 309.058,720.238 295.908,729.533 283.476,739.768 271.829,750.889 261.03,762.835 251.138,775.542 242.205,788.941 234.281,802.959 227.407,817.522 221.621,832.55 216.955,847.963 213.433,863.676 211.074,879.606 209.891,895.666 "/>
<path clip-path="url(#clip781)" d="M2290.34 356.231 L209.891 356.231 L209.891 1177.46 L2290.34 1177.46 L2290.34 356.231 L2290.34 356.231  Z" fill="#c271d2" fill-rule="evenodd" fill-opacity="0.2"/>
<polyline clip-path="url(#clip781)" style="stroke:#000000; stroke-linecap:round; stroke-linejoin:round; stroke-width:4; stroke-opacity:0.2; fill:none" points="2290.34,356.231 209.891,356.231 209.891,1177.46 2290.34,1177.46 2290.34,356.231 "/>
<line clip-path="url(#clip781)" x1="1250.12" y1="766.846" x2="1234.12" y2="750.846" style="stroke:#ac8d18; stroke-width:4; stroke-opacity:0.5"/>
<line clip-path="url(#clip781)" x1="1250.12" y1="766.846" x2="1234.12" y2="782.846" style="stroke:#ac8d18; stroke-width:4; stroke-opacity:0.5"/>
<line clip-path="url(#clip781)" x1="1250.12" y1="766.846" x2="1266.12" y2="782.846" style="stroke:#ac8d18; stroke-width:4; stroke-opacity:0.5"/>
<line clip-path="url(#clip781)" x1="1250.12" y1="766.846" x2="1266.12" y2="750.846" style="stroke:#ac8d18; stroke-width:4; stroke-opacity:0.5"/>
</svg>
