<?xml version="1.0" encoding="utf-8"?>
<svg xmlns="http://www.w3.org/2000/svg" xmlns:xlink="http://www.w3.org/1999/xlink" width="600" height="400" viewBox="0 0 2400 1600">
<defs>
  <clipPath id="clip830">
    <rect x="0" y="0" width="2400" height="1600"/>
  </clipPath>
</defs>
<path clip-path="url(#clip830)" d="M0 1600 L2400 1600 L2400 0 L0 0  Z" fill="#ffffff" fill-rule="evenodd" fill-opacity="1"/>
<defs>
  <clipPath id="clip831">
    <rect x="480" y="0" width="1681" height="1600"/>
  </clipPath>
</defs>
<path clip-path="url(#clip830)" d="M147.478 1486.45 L2352.76 1486.45 L2352.76 47.2441 L147.478 47.2441  Z" fill="#ffffff" fill-rule="evenodd" fill-opacity="1"/>
<defs>
  <clipPath id="clip832">
    <rect x="147" y="47" width="2206" height="1440"/>
  </clipPath>
</defs>
<polyline clip-path="url(#clip832)" style="stroke:#000000; stroke-linecap:round; stroke-linejoin:round; stroke-width:2; stroke-opacity:0.1; fill:none" points="520.012,1486.45 520.012,47.2441 "/>
<polyline clip-path="url(#clip832)" style="stroke:#000000; stroke-linecap:round; stroke-linejoin:round; stroke-width:2; stroke-opacity:0.1; fill:none" points="1032.37,1486.45 1032.37,47.2441 "/>
<polyline clip-path="url(#clip832)" style="stroke:#000000; stroke-linecap:round; stroke-linejoin:round; stroke-width:2; stroke-opacity:0.1; fill:none" points="1544.72,1486.45 1544.72,47.2441 "/>
<polyline clip-path="url(#clip832)" style="stroke:#000000; stroke-linecap:round; stroke-linejoin:round; stroke-width:2; stroke-opacity:0.1; fill:none" points="2057.08,1486.45 2057.08,47.2441 "/>
<polyline clip-path="url(#clip832)" style="stroke:#000000; stroke-linecap:round; stroke-linejoin:round; stroke-width:2; stroke-opacity:0.1; fill:none" points="147.478,1304.82 2352.76,1304.82 "/>
<polyline clip-path="url(#clip832)" style="stroke:#000000; stroke-linecap:round; stroke-linejoin:round; stroke-width:2; stroke-opacity:0.1; fill:none" points="147.478,1048.64 2352.76,1048.64 "/>
<polyline clip-path="url(#clip832)" style="stroke:#000000; stroke-linecap:round; stroke-linejoin:round; stroke-width:2; stroke-opacity:0.1; fill:none" points="147.478,792.464 2352.76,792.464 "/>
<polyline clip-path="url(#clip832)" style="stroke:#000000; stroke-linecap:round; stroke-linejoin:round; stroke-width:2; stroke-opacity:0.1; fill:none" points="147.478,536.286 2352.76,536.286 "/>
<polyline clip-path="url(#clip832)" style="stroke:#000000; stroke-linecap:round; stroke-linejoin:round; stroke-width:2; stroke-opacity:0.1; fill:none" points="147.478,280.109 2352.76,280.109 "/>
<polyline clip-path="url(#clip830)" style="stroke:#000000; stroke-linecap:round; stroke-linejoin:round; stroke-width:4; stroke-opacity:1; fill:none" points="147.478,1486.45 2352.76,1486.45 "/>
<polyline clip-path="url(#clip830)" style="stroke:#000000; stroke-linecap:round; stroke-linejoin:round; stroke-width:4; stroke-opacity:1; fill:none" points="520.012,1486.45 520.012,1467.55 "/>
<polyline clip-path="url(#clip830)" style="stroke:#000000; stroke-linecap:round; stroke-linejoin:round; stroke-width:4; stroke-opacity:1; fill:none" points="1032.37,1486.45 1032.37,1467.55 "/>
<polyline clip-path="url(#clip830)" style="stroke:#000000; stroke-linecap:round; stroke-linejoin:round; stroke-width:4; stroke-opacity:1; fill:none" points="1544.72,1486.45 1544.72,1467.55 "/>
<polyline clip-path="url(#clip830)" style="stroke:#000000; stroke-linecap:round; stroke-linejoin:round; stroke-width:4; stroke-opacity:1; fill:none" points="2057.08,1486.45 2057.08,1467.55 "/>
<path clip-path="url(#clip830)" d="M488.912 1532.02 L518.588 1532.02 L518.588 1535.95 L488.912 1535.95 L488.912 1532.02 Z" fill="#000000" fill-rule="nonzero" fill-opacity="1" /><path clip-path="url(#clip830)" d="M541.528 1518.36 L529.722 1536.81 L541.528 1536.81 L541.528 1518.36 M540.301 1514.29 L546.181 1514.29 L546.181 1536.81 L551.111 1536.81 L551.111 1540.7 L546.181 1540.7 L546.181 1548.85 L541.528 1548.85 L541.528 1540.7 L525.926 1540.7 L525.926 1536.19 L540.301 1514.29 Z" fill="#000000" fill-rule="nonzero" fill-opacity="1" /><path clip-path="url(#clip830)" d="M1002.31 1532.02 L1031.98 1532.02 L1031.98 1535.95 L1002.31 1535.95 L1002.31 1532.02 Z" fill="#000000" fill-rule="nonzero" fill-opacity="1" /><path clip-path="url(#clip830)" d="M1046.1 1544.91 L1062.42 1544.91 L1062.42 1548.85 L1040.48 1548.85 L1040.48 1544.91 Q1043.14 1542.16 1047.72 1537.53 Q1052.33 1532.88 1053.51 1531.53 Q1055.76 1529.01 1056.64 1527.27 Q1057.54 1525.51 1057.54 1523.82 Q1057.54 1521.07 1055.6 1519.33 Q1053.67 1517.6 1050.57 1517.6 Q1048.37 1517.6 1045.92 1518.36 Q1043.49 1519.13 1040.71 1520.68 L1040.71 1515.95 Q1043.54 1514.82 1045.99 1514.24 Q1048.44 1513.66 1050.48 1513.66 Q1055.85 1513.66 1059.04 1516.35 Q1062.24 1519.03 1062.24 1523.52 Q1062.24 1525.65 1061.43 1527.57 Q1060.64 1529.47 1058.54 1532.07 Q1057.96 1532.74 1054.85 1535.95 Q1051.75 1539.15 1046.1 1544.91 Z" fill="#000000" fill-rule="nonzero" fill-opacity="1" /><path clip-path="url(#clip830)" d="M1544.72 1517.37 Q1541.11 1517.37 1539.28 1520.93 Q1537.48 1524.47 1537.48 1531.6 Q1537.48 1538.71 1539.28 1542.27 Q1541.11 1545.82 1544.72 1545.82 Q1548.35 1545.82 1550.16 1542.27 Q1551.99 1538.71 1551.99 1531.6 Q1551.99 1524.47 1550.16 1520.93 Q1548.35 1517.37 1544.72 1517.37 M1544.72 1513.66 Q1550.53 1513.66 1553.59 1518.27 Q1556.67 1522.85 1556.67 1531.6 Q1556.67 1540.33 1553.59 1544.94 Q1550.53 1549.52 1544.72 1549.52 Q1538.91 1549.52 1535.83 1544.94 Q1532.78 1540.33 1532.78 1531.6 Q1532.78 1522.85 1535.83 1518.27 Q1538.91 1513.66 1544.72 1513.66 Z" fill="#000000" fill-rule="nonzero" fill-opacity="1" /><path clip-path="url(#clip830)" d="M2051.73 1544.91 L2068.05 1544.91 L2068.05 1548.85 L2046.1 1548.85 L2046.1 1544.91 Q2048.77 1542.16 2053.35 1537.53 Q2057.95 1532.88 2059.14 1531.53 Q2061.38 1529.01 2062.26 1527.27 Q2063.16 1525.51 2063.16 1523.82 Q2063.16 1521.07 2061.22 1519.33 Q2059.3 1517.6 2056.2 1517.6 Q2054 1517.6 2051.54 1518.36 Q2049.11 1519.13 2046.33 1520.68 L2046.33 1515.95 Q2049.16 1514.82 2051.61 1514.24 Q2054.07 1513.66 2056.1 1513.66 Q2061.47 1513.66 2064.67 1516.35 Q2067.86 1519.03 2067.86 1523.52 Q2067.86 1525.65 2067.05 1527.57 Q2066.27 1529.47 2064.16 1532.07 Q2063.58 1532.74 2060.48 1535.95 Q2057.38 1539.15 2051.73 1544.91 Z" fill="#000000" fill-rule="nonzero" fill-opacity="1" /><polyline clip-path="url(#clip830)" style="stroke:#000000; stroke-linecap:round; stroke-linejoin:round; stroke-width:4; stroke-opacity:1; fill:none" points="147.478,1486.45 147.478,47.2441 "/>
<polyline clip-path="url(#clip830)" style="stroke:#000000; stroke-linecap:round; stroke-linejoin:round; stroke-width:4; stroke-opacity:1; fill:none" points="147.478,1304.82 166.376,1304.82 "/>
<polyline clip-path="url(#clip830)" style="stroke:#000000; stroke-linecap:round; stroke-linejoin:round; stroke-width:4; stroke-opacity:1; fill:none" points="147.478,1048.64 166.376,1048.64 "/>
<polyline clip-path="url(#clip830)" style="stroke:#000000; stroke-linecap:round; stroke-linejoin:round; stroke-width:4; stroke-opacity:1; fill:none" points="147.478,792.464 166.376,792.464 "/>
<polyline clip-path="url(#clip830)" style="stroke:#000000; stroke-linecap:round; stroke-linejoin:round; stroke-width:4; stroke-opacity:1; fill:none" points="147.478,536.286 166.376,536.286 "/>
<polyline clip-path="url(#clip830)" style="stroke:#000000; stroke-linecap:round; stroke-linejoin:round; stroke-width:4; stroke-opacity:1; fill:none" points="147.478,280.109 166.376,280.109 "/>
<path clip-path="url(#clip830)" d="M51.3625 1305.27 L81.0383 1305.27 L81.0383 1309.2 L51.3625 1309.2 L51.3625 1305.27 Z" fill="#000000" fill-rule="nonzero" fill-opacity="1" /><path clip-path="url(#clip830)" d="M95.1586 1318.16 L111.478 1318.16 L111.478 1322.1 L89.5336 1322.1 L89.5336 1318.16 Q92.1956 1315.41 96.7789 1310.78 Q101.385 1306.13 102.566 1304.78 Q104.811 1302.26 105.691 1300.52 Q106.594 1298.76 106.594 1297.08 Q106.594 1294.32 104.649 1292.58 Q102.728 1290.85 99.6261 1290.85 Q97.4271 1290.85 94.9734 1291.61 Q92.5428 1292.38 89.7651 1293.93 L89.7651 1289.2 Q92.5891 1288.07 95.0428 1287.49 Q97.4965 1286.91 99.5335 1286.91 Q104.904 1286.91 108.098 1289.6 Q111.293 1292.28 111.293 1296.77 Q111.293 1298.9 110.483 1300.83 Q109.696 1302.72 107.589 1305.32 Q107.01 1305.99 103.909 1309.2 Q100.807 1312.4 95.1586 1318.16 Z" fill="#000000" fill-rule="nonzero" fill-opacity="1" /><path clip-path="url(#clip830)" d="M50.9921 1049.09 L80.6679 1049.09 L80.6679 1053.03 L50.9921 1053.03 L50.9921 1049.09 Z" fill="#000000" fill-rule="nonzero" fill-opacity="1" /><path clip-path="url(#clip830)" d="M91.5706 1061.99 L99.2095 1061.99 L99.2095 1035.62 L90.8993 1037.29 L90.8993 1033.03 L99.1632 1031.36 L103.839 1031.36 L103.839 1061.99 L111.478 1061.99 L111.478 1065.92 L91.5706 1065.92 L91.5706 1061.99 Z" fill="#000000" fill-rule="nonzero" fill-opacity="1" /><path clip-path="url(#clip830)" d="M99.5335 778.262 Q95.9224 778.262 94.0937 781.827 Q92.2882 785.369 92.2882 792.498 Q92.2882 799.605 94.0937 803.17 Q95.9224 806.711 99.5335 806.711 Q103.168 806.711 104.973 803.17 Q106.802 799.605 106.802 792.498 Q106.802 785.369 104.973 781.827 Q103.168 778.262 99.5335 778.262 M99.5335 774.559 Q105.344 774.559 108.399 779.165 Q111.478 783.748 111.478 792.498 Q111.478 801.225 108.399 805.832 Q105.344 810.415 99.5335 810.415 Q93.7234 810.415 90.6447 805.832 Q87.5892 801.225 87.5892 792.498 Q87.5892 783.748 90.6447 779.165 Q93.7234 774.559 99.5335 774.559 Z" fill="#000000" fill-rule="nonzero" fill-opacity="1" /><path clip-path="url(#clip830)" d="M91.5706 549.631 L99.2095 549.631 L99.2095 523.266 L90.8993 524.932 L90.8993 520.673 L99.1632 519.006 L103.839 519.006 L103.839 549.631 L111.478 549.631 L111.478 553.566 L91.5706 553.566 L91.5706 549.631 Z" fill="#000000" fill-rule="nonzero" fill-opacity="1" /><path clip-path="url(#clip830)" d="M95.1586 293.454 L111.478 293.454 L111.478 297.389 L89.5336 297.389 L89.5336 293.454 Q92.1956 290.699 96.7789 286.07 Q101.385 281.417 102.566 280.074 Q104.811 277.551 105.691 275.815 Q106.594 274.056 106.594 272.366 Q106.594 269.612 104.649 267.875 Q102.728 266.139 99.6261 266.139 Q97.4271 266.139 94.9734 266.903 Q92.5428 267.667 89.7651 269.218 L89.7651 264.496 Q92.5891 263.362 95.0428 262.783 Q97.4965 262.204 99.5335 262.204 Q104.904 262.204 108.098 264.889 Q111.293 267.575 111.293 272.065 Q111.293 274.195 110.483 276.116 Q109.696 278.014 107.589 280.607 Q107.01 281.278 103.909 284.496 Q100.807 287.69 95.1586 293.454 Z" fill="#000000" fill-rule="nonzero" fill-opacity="1" /><path clip-path="url(#clip832)" d="M1672.81 542.579 L1674.04 555.104 L1676.5 567.447 L1680.15 579.49 L1684.97 591.117 L1690.9 602.217 L1697.89 612.681 L1705.88 622.409 L1714.78 631.308 L1724.5 639.292 L1734.97 646.284 L1746.07 652.217 L1757.69 657.033 L1769.74 660.686 L1782.08 663.142 L1794.61 664.375 L1807.19 664.375 L1819.72 663.142 L1832.06 660.686 L1844.1 657.033 L1855.73 652.217 L1866.83 646.284 L1877.29 639.292 L1887.02 631.308 L1895.92 622.409 L1903.9 612.681 L1910.9 602.217 L1916.83 591.117 L1921.64 579.49 L1925.3 567.447 L1927.75 555.104 L1928.99 542.579 L1928.99 529.994 L1927.75 517.469 L1925.3 505.126 L1921.64 493.083 L1916.83 481.455 L1910.9 470.356 L1903.9 459.892 L1895.92 450.164 L1887.02 441.265 L1877.29 433.281 L1866.83 426.289 L1855.73 420.356 L1844.1 415.54 L1832.06 411.887 L1819.72 409.431 L1807.19 408.198 L1794.61 408.198 L1782.08 409.431 L1769.74 411.887 L1757.69 415.54 L1746.07 420.356 L1734.97 426.289 L1724.5 433.281 L1714.78 441.265 L1705.88 450.164 L1697.89 459.892 L1690.9 470.356 L1684.97 481.455 L1680.15 493.083 L1676.5 505.126 L1674.04 517.469 L1672.81 529.994 L1672.81 542.579 L1672.81 542.579  Z" fill="#009af9" fill-rule="evenodd" fill-opacity="0.5"/>
<polyline clip-path="url(#clip832)" style="stroke:#000000; stroke-linecap:round; stroke-linejoin:round; stroke-width:4; stroke-opacity:0.5; fill:none" points="1672.81,542.579 1674.04,555.104 1676.5,567.447 1680.15,579.49 1684.97,591.117 1690.9,602.217 1697.89,612.681 1705.88,622.409 1714.78,631.308 1724.5,639.292 1734.97,646.284 1746.07,652.217 1757.69,657.033 1769.74,660.686 1782.08,663.142 1794.61,664.375 1807.19,664.375 1819.72,663.142 1832.06,660.686 1844.1,657.033 1855.73,652.217 1866.83,646.284 1877.29,639.292 1887.02,631.308 1895.92,622.409 1903.9,612.681 1910.9,602.217 1916.83,591.117 1921.64,579.49 1925.3,567.447 1927.75,555.104 1928.99,542.579 1928.99,529.994 1927.75,517.469 1925.3,505.126 1921.64,493.083 1916.83,481.455 1910.9,470.356 1903.9,459.892 1895.92,450.164 1887.02,441.265 1877.29,433.281 1866.83,426.289 1855.73,420.356 1844.1,415.54 1832.06,411.887 1819.72,409.431 1807.19,408.198 1794.61,408.198 1782.08,409.431 1769.74,411.887 1757.69,415.54 1746.07,420.356 1734.97,426.289 1724.5,433.281 1714.78,441.265 1705.88,450.164 1697.89,459.892 1690.9,470.356 1684.97,481.455 1680.15,493.083 1676.5,505.126 1674.04,517.469 1672.81,529.994 1672.81,542.579 "/>
<path clip-path="url(#clip832)" d="M571.247 930.62 L573.221 950.66 L577.149 970.409 L582.995 989.678 L590.7 1008.28 L600.193 1026.04 L611.38 1042.78 L624.154 1058.35 L638.393 1072.59 L653.958 1085.36 L670.701 1096.55 L688.459 1106.04 L707.063 1113.75 L726.332 1119.59 L746.082 1123.52 L766.121 1125.49 L786.257 1125.49 L806.296 1123.52 L826.046 1119.59 L845.315 1113.75 L863.919 1106.04 L881.677 1096.55 L898.42 1085.36 L913.985 1072.59 L928.224 1058.35 L940.998 1042.78 L952.185 1026.04 L961.678 1008.28 L969.383 989.678 L975.229 970.409 L979.157 950.66 L981.131 930.62 L981.131 910.484 L979.157 890.445 L975.229 870.695 L969.383 851.426 L961.678 832.823 L952.185 815.064 L940.998 798.321 L928.224 782.756 L913.985 768.517 L898.42 755.743 L881.677 744.556 L863.919 735.064 L845.315 727.358 L826.046 721.513 L806.296 717.584 L786.257 715.611 L766.121 715.611 L746.082 717.584 L726.332 721.513 L707.063 727.358 L688.459 735.064 L670.701 744.556 L653.958 755.743 L638.393 768.517 L624.154 782.756 L611.38 798.321 L600.193 815.064 L590.7 832.823 L582.995 851.426 L577.149 870.695 L573.221 890.445 L571.247 910.484 L571.247 930.62 L571.247 930.62  Z" fill="#e26f46" fill-rule="evenodd" fill-opacity="0.5"/>
<polyline clip-path="url(#clip832)" style="stroke:#000000; stroke-linecap:round; stroke-linejoin:round; stroke-width:4; stroke-opacity:0.5; fill:none" points="571.247,930.62 573.221,950.66 577.149,970.409 582.995,989.678 590.7,1008.28 600.193,1026.04 611.38,1042.78 624.154,1058.35 638.393,1072.59 653.958,1085.36 670.701,1096.55 688.459,1106.04 707.063,1113.75 726.332,1119.59 746.082,1123.52 766.121,1125.49 786.257,1125.49 806.296,1123.52 826.046,1119.59 845.315,1113.75 863.919,1106.04 881.677,1096.55 898.42,1085.36 913.985,1072.59 928.224,1058.35 940.998,1042.78 952.185,1026.04 961.678,1008.28 969.383,989.678 975.229,970.409 979.157,950.66 981.131,930.62 981.131,910.484 979.157,890.445 975.229,870.695 969.383,851.426 961.678,832.823 952.185,815.064 940.998,798.321 928.224,782.756 913.985,768.517 898.42,755.743 881.677,744.556 863.919,735.064 845.315,727.358 826.046,721.513 806.296,717.584 786.257,715.611 766.121,715.611 746.082,717.584 726.332,721.513 707.063,727.358 688.459,735.064 670.701,744.556 653.958,755.743 638.393,768.517 624.154,782.756 611.38,798.321 600.193,815.064 590.7,832.823 582.995,851.426 577.149,870.695 573.221,890.445 571.247,910.484 571.247,930.62 "/>
<path clip-path="url(#clip832)" d="M571.247 913.017 L571.247 930.62 L573.221 950.66 L577.149 970.409 L582.995 989.678 L590.7 1008.28 L600.193 1026.04 L611.38 1042.78 L624.154 1058.35 L638.393 1072.59 L653.958 1085.36 L670.701 1096.55 L688.459 1106.04 L707.063 1113.75 L726.332 1119.59 L746.082 1123.52 L766.121 1125.49 L781.486 1125.49 L792.066 1124.95 L802.603 1123.85 L813.07 1122.22 L823.438 1120.04 L833.681 1117.34 L843.769 1114.1 L853.678 1110.35 L865.553 1105.14 L1856.72 651.605 L1863.11 648.339 L1870.65 643.809 L1877.86 638.771 L1884.71 633.251 L1891.16 627.274 L1897.19 620.869 L1902.76 614.065 L1907.86 606.895 L1912.45 599.393 L1916.51 591.593 L1920.04 583.532 L1923 575.249 L1925.38 566.783 L1927.18 558.173 L1928.38 549.46 L1928.99 540.684 L1928.99 529.994 L1927.75 517.469 L1925.3 505.126 L1921.64 493.083 L1916.83 481.455 L1910.9 470.356 L1903.9 459.892 L1895.92 450.164 L1887.02 441.265 L1877.29 433.281 L1866.83 426.289 L1855.73 420.356 L1844.1 415.54 L1832.06 411.887 L1819.72 409.431 L1807.19 408.198 L1796.33 408.198 L1787.23 408.847 L1778.2 410.143 L1769.28 412.078 L1764.68 413.426 L718.443 723.913 L712.509 725.68 L702.345 729.3 L690.41 734.273 L676.962 741.075 L664.05 748.847 L651.744 757.545 L640.11 767.124 L629.21 777.531 L619.104 788.71 L609.847 800.602 L601.487 813.141 L594.071 826.26 L587.639 839.888 L582.224 853.952 L577.857 868.375 L574.561 883.08 L572.354 897.988 L571.247 913.017 L571.247 913.017  Z" fill="#3da44d" fill-rule="evenodd" fill-opacity="0.2"/>
<polyline clip-path="url(#clip832)" style="stroke:#000000; stroke-linecap:round; stroke-linejoin:round; stroke-width:4; stroke-opacity:0.2; fill:none" points="571.247,913.017 571.247,930.62 573.221,950.66 577.149,970.409 582.995,989.678 590.7,1008.28 600.193,1026.04 611.38,1042.78 624.154,1058.35 638.393,1072.59 653.958,1085.36 670.701,1096.55 688.459,1106.04 707.063,1113.75 726.332,1119.59 746.082,1123.52 766.121,1125.49 781.486,1125.49 792.066,1124.95 802.603,1123.85 813.07,1122.22 823.438,1120.04 833.681,1117.34 843.769,1114.1 853.678,1110.35 865.553,1105.14 1856.72,651.605 1863.11,648.339 1870.65,643.809 1877.86,638.771 1884.71,633.251 1891.16,627.274 1897.19,620.869 1902.76,614.065 1907.86,606.895 1912.45,599.393 1916.51,591.593 1920.04,583.532 1923,575.249 1925.38,566.783 1927.18,558.173 1928.38,549.46 1928.99,540.684 1928.99,529.994 1927.75,517.469 1925.3,505.126 1921.64,493.083 1916.83,481.455 1910.9,470.356 1903.9,459.892 1895.92,450.164 1887.02,441.265 1877.29,433.281 1866.83,426.289 1855.73,420.356 1844.1,415.54 1832.06,411.887 1819.72,409.431 1807.19,408.198 1796.33,408.198 1787.23,408.847 1778.2,410.143 1769.28,412.078 1764.68,413.426 718.443,723.913 712.509,725.68 702.345,729.3 690.41,734.273 676.962,741.075 664.05,748.847 651.744,757.545 640.11,767.124 629.21,777.531 619.104,788.71 609.847,800.602 601.487,813.141 594.071,826.26 587.639,839.888 582.224,853.952 577.857,868.375 574.561,883.08 572.354,897.988 571.247,913.017 "/>
<path clip-path="url(#clip832)" d="M1928.99 87.9763 L571.247 87.9763 L571.247 1445.72 L1928.99 1445.72 L1928.99 87.9763 L1928.99 87.9763  Z" fill="#c271d2" fill-rule="evenodd" fill-opacity="0.1"/>
<polyline clip-path="url(#clip832)" style="stroke:#000000; stroke-linecap:round; stroke-linejoin:round; stroke-width:4; stroke-opacity:0.1; fill:none" points="1928.99,87.9763 571.247,87.9763 571.247,1445.72 1928.99,1445.72 1928.99,87.9763 "/>
<line clip-path="url(#clip832)" x1="1250.12" y1="766.846" x2="1234.12" y2="750.846" style="stroke:#ac8d18; stroke-width:4; stroke-opacity:0.5"/>
<line clip-path="url(#clip832)" x1="1250.12" y1="766.846" x2="1234.12" y2="782.846" style="stroke:#ac8d18; stroke-width:4; stroke-opacity:0.5"/>
<line clip-path="url(#clip832)" x1="1250.12" y1="766.846" x2="1266.12" y2="782.846" style="stroke:#ac8d18; stroke-width:4; stroke-opacity:0.5"/>
<line clip-path="url(#clip832)" x1="1250.12" y1="766.846" x2="1266.12" y2="750.846" style="stroke:#ac8d18; stroke-width:4; stroke-opacity:0.5"/>
</svg>
