<?xml version="1.0" encoding="utf-8"?>
<svg xmlns="http://www.w3.org/2000/svg" xmlns:xlink="http://www.w3.org/1999/xlink" width="600" height="400" viewBox="0 0 2400 1600">
<defs>
  <clipPath id="clip350">
    <rect x="0" y="0" width="2400" height="1600"/>
  </clipPath>
</defs>
<path clip-path="url(#clip350)" d="M0 1600 L2400 1600 L2400 0 L0 0  Z" fill="#ffffff" fill-rule="evenodd" fill-opacity="1"/>
<defs>
  <clipPath id="clip351">
    <rect x="480" y="0" width="1681" height="1600"/>
  </clipPath>
</defs>
<path clip-path="url(#clip350)" d="M147.478 1486.45 L2352.76 1486.45 L2352.76 47.2441 L147.478 47.2441  Z" fill="#ffffff" fill-rule="evenodd" fill-opacity="1"/>
<defs>
  <clipPath id="clip352">
    <rect x="147" y="47" width="2206" height="1440"/>
  </clipPath>
</defs>
<polyline clip-path="url(#clip352)" style="stroke:#000000; stroke-linecap:round; stroke-linejoin:round; stroke-width:2; stroke-opacity:0.1; fill:none" points="445.684,1486.45 445.684,47.2441 "/>
<polyline clip-path="url(#clip352)" style="stroke:#000000; stroke-linecap:round; stroke-linejoin:round; stroke-width:2; stroke-opacity:0.1; fill:none" points="751.193,1486.45 751.193,47.2441 "/>
<polyline clip-path="url(#clip352)" style="stroke:#000000; stroke-linecap:round; stroke-linejoin:round; stroke-width:2; stroke-opacity:0.1; fill:none" points="1056.7,1486.45 1056.7,47.2441 "/>
<polyline clip-path="url(#clip352)" style="stroke:#000000; stroke-linecap:round; stroke-linejoin:round; stroke-width:2; stroke-opacity:0.1; fill:none" points="1362.21,1486.45 1362.21,47.2441 "/>
<polyline clip-path="url(#clip352)" style="stroke:#000000; stroke-linecap:round; stroke-linejoin:round; stroke-width:2; stroke-opacity:0.1; fill:none" points="1667.72,1486.45 1667.72,47.2441 "/>
<polyline clip-path="url(#clip352)" style="stroke:#000000; stroke-linecap:round; stroke-linejoin:round; stroke-width:2; stroke-opacity:0.1; fill:none" points="1973.23,1486.45 1973.23,47.2441 "/>
<polyline clip-path="url(#clip352)" style="stroke:#000000; stroke-linecap:round; stroke-linejoin:round; stroke-width:2; stroke-opacity:0.1; fill:none" points="2278.74,1486.45 2278.74,47.2441 "/>
<polyline clip-path="url(#clip352)" style="stroke:#000000; stroke-linecap:round; stroke-linejoin:round; stroke-width:2; stroke-opacity:0.1; fill:none" points="147.478,1456.82 2352.76,1456.82 "/>
<polyline clip-path="url(#clip352)" style="stroke:#000000; stroke-linecap:round; stroke-linejoin:round; stroke-width:2; stroke-opacity:0.1; fill:none" points="147.478,1208.19 2352.76,1208.19 "/>
<polyline clip-path="url(#clip352)" style="stroke:#000000; stroke-linecap:round; stroke-linejoin:round; stroke-width:2; stroke-opacity:0.1; fill:none" points="147.478,959.565 2352.76,959.565 "/>
<polyline clip-path="url(#clip352)" style="stroke:#000000; stroke-linecap:round; stroke-linejoin:round; stroke-width:2; stroke-opacity:0.1; fill:none" points="147.478,710.94 2352.76,710.94 "/>
<polyline clip-path="url(#clip352)" style="stroke:#000000; stroke-linecap:round; stroke-linejoin:round; stroke-width:2; stroke-opacity:0.1; fill:none" points="147.478,462.315 2352.76,462.315 "/>
<polyline clip-path="url(#clip352)" style="stroke:#000000; stroke-linecap:round; stroke-linejoin:round; stroke-width:2; stroke-opacity:0.1; fill:none" points="147.478,213.689 2352.76,213.689 "/>
<polyline clip-path="url(#clip350)" style="stroke:#000000; stroke-linecap:round; stroke-linejoin:round; stroke-width:4; stroke-opacity:1; fill:none" points="147.478,1486.45 2352.76,1486.45 "/>
<polyline clip-path="url(#clip350)" style="stroke:#000000; stroke-linecap:round; stroke-linejoin:round; stroke-width:4; stroke-opacity:1; fill:none" points="445.684,1486.45 445.684,1467.55 "/>
<polyline clip-path="url(#clip350)" style="stroke:#000000; stroke-linecap:round; stroke-linejoin:round; stroke-width:4; stroke-opacity:1; fill:none" points="751.193,1486.45 751.193,1467.55 "/>
<polyline clip-path="url(#clip350)" style="stroke:#000000; stroke-linecap:round; stroke-linejoin:round; stroke-width:4; stroke-opacity:1; fill:none" points="1056.7,1486.45 1056.7,1467.55 "/>
<polyline clip-path="url(#clip350)" style="stroke:#000000; stroke-linecap:round; stroke-linejoin:round; stroke-width:4; stroke-opacity:1; fill:none" points="1362.21,1486.45 1362.21,1467.55 "/>
<polyline clip-path="url(#clip350)" style="stroke:#000000; stroke-linecap:round; stroke-linejoin:round; stroke-width:4; stroke-opacity:1; fill:none" points="1667.72,1486.45 1667.72,1467.55 "/>
<polyline clip-path="url(#clip350)" style="stroke:#000000; stroke-linecap:round; stroke-linejoin:round; stroke-width:4; stroke-opacity:1; fill:none" points="1973.23,1486.45 1973.23,1467.55 "/>
<polyline clip-path="url(#clip350)" style="stroke:#000000; stroke-linecap:round; stroke-linejoin:round; stroke-width:4; stroke-opacity:1; fill:none" points="2278.74,1486.45 2278.74,1467.55 "/>
<path clip-path="url(#clip350)" d="M392.71 1532.02 L422.385 1532.02 L422.385 1535.95 L392.71 1535.95 L392.71 1532.02 Z" fill="#000000" fill-rule="nonzero" fill-opacity="1" /><path clip-path="url(#clip350)" d="M433.288 1544.91 L440.927 1544.91 L440.927 1518.55 L432.617 1520.21 L432.617 1515.95 L440.881 1514.29 L445.557 1514.29 L445.557 1544.91 L453.195 1544.91 L453.195 1548.85 L433.288 1548.85 L433.288 1544.91 Z" fill="#000000" fill-rule="nonzero" fill-opacity="1" /><path clip-path="url(#clip350)" d="M462.64 1542.97 L467.524 1542.97 L467.524 1548.85 L462.64 1548.85 L462.64 1542.97 Z" fill="#000000" fill-rule="nonzero" fill-opacity="1" /><path clip-path="url(#clip350)" d="M477.755 1514.29 L496.112 1514.29 L496.112 1518.22 L482.038 1518.22 L482.038 1526.7 Q483.056 1526.35 484.075 1526.19 Q485.093 1526 486.112 1526 Q491.899 1526 495.278 1529.17 Q498.658 1532.34 498.658 1537.76 Q498.658 1543.34 495.186 1546.44 Q491.714 1549.52 485.394 1549.52 Q483.218 1549.52 480.95 1549.15 Q478.704 1548.78 476.297 1548.04 L476.297 1543.34 Q478.38 1544.47 480.603 1545.03 Q482.825 1545.58 485.302 1545.58 Q489.306 1545.58 491.644 1543.48 Q493.982 1541.37 493.982 1537.76 Q493.982 1534.15 491.644 1532.04 Q489.306 1529.94 485.302 1529.94 Q483.427 1529.94 481.552 1530.35 Q479.7 1530.77 477.755 1531.65 L477.755 1514.29 Z" fill="#000000" fill-rule="nonzero" fill-opacity="1" /><path clip-path="url(#clip350)" d="M697.721 1532.02 L727.397 1532.02 L727.397 1535.95 L697.721 1535.95 L697.721 1532.02 Z" fill="#000000" fill-rule="nonzero" fill-opacity="1" /><path clip-path="url(#clip350)" d="M738.299 1544.91 L745.938 1544.91 L745.938 1518.55 L737.628 1520.21 L737.628 1515.95 L745.892 1514.29 L750.568 1514.29 L750.568 1544.91 L758.207 1544.91 L758.207 1548.85 L738.299 1548.85 L738.299 1544.91 Z" fill="#000000" fill-rule="nonzero" fill-opacity="1" /><path clip-path="url(#clip350)" d="M767.651 1542.97 L772.535 1542.97 L772.535 1548.85 L767.651 1548.85 L767.651 1542.97 Z" fill="#000000" fill-rule="nonzero" fill-opacity="1" /><path clip-path="url(#clip350)" d="M792.72 1517.37 Q789.109 1517.37 787.281 1520.93 Q785.475 1524.47 785.475 1531.6 Q785.475 1538.71 787.281 1542.27 Q789.109 1545.82 792.72 1545.82 Q796.355 1545.82 798.16 1542.27 Q799.989 1538.71 799.989 1531.6 Q799.989 1524.47 798.16 1520.93 Q796.355 1517.37 792.72 1517.37 M792.72 1513.66 Q798.531 1513.66 801.586 1518.27 Q804.665 1522.85 804.665 1531.6 Q804.665 1540.33 801.586 1544.94 Q798.531 1549.52 792.72 1549.52 Q786.91 1549.52 783.832 1544.94 Q780.776 1540.33 780.776 1531.6 Q780.776 1522.85 783.832 1518.27 Q786.91 1513.66 792.72 1513.66 Z" fill="#000000" fill-rule="nonzero" fill-opacity="1" /><path clip-path="url(#clip350)" d="M1003.73 1532.02 L1033.4 1532.02 L1033.4 1535.95 L1003.73 1535.95 L1003.73 1532.02 Z" fill="#000000" fill-rule="nonzero" fill-opacity="1" /><path clip-path="url(#clip350)" d="M1053.5 1517.37 Q1049.88 1517.37 1048.06 1520.93 Q1046.25 1524.47 1046.25 1531.6 Q1046.25 1538.71 1048.06 1542.27 Q1049.88 1545.82 1053.5 1545.82 Q1057.13 1545.82 1058.94 1542.27 Q1060.76 1538.71 1060.76 1531.6 Q1060.76 1524.47 1058.94 1520.93 Q1057.13 1517.37 1053.5 1517.37 M1053.5 1513.66 Q1059.31 1513.66 1062.36 1518.27 Q1065.44 1522.85 1065.44 1531.6 Q1065.44 1540.33 1062.36 1544.94 Q1059.31 1549.52 1053.5 1549.52 Q1047.69 1549.52 1044.61 1544.94 Q1041.55 1540.33 1041.55 1531.6 Q1041.55 1522.85 1044.61 1518.27 Q1047.69 1513.66 1053.5 1513.66 Z" fill="#000000" fill-rule="nonzero" fill-opacity="1" /><path clip-path="url(#clip350)" d="M1073.66 1542.97 L1078.54 1542.97 L1078.54 1548.85 L1073.66 1548.85 L1073.66 1542.97 Z" fill="#000000" fill-rule="nonzero" fill-opacity="1" /><path clip-path="url(#clip350)" d="M1088.77 1514.29 L1107.13 1514.29 L1107.13 1518.22 L1093.06 1518.22 L1093.06 1526.7 Q1094.07 1526.35 1095.09 1526.19 Q1096.11 1526 1097.13 1526 Q1102.92 1526 1106.3 1529.17 Q1109.68 1532.34 1109.68 1537.76 Q1109.68 1543.34 1106.2 1546.44 Q1102.73 1549.52 1096.41 1549.52 Q1094.24 1549.52 1091.97 1549.15 Q1089.72 1548.78 1087.32 1548.04 L1087.32 1543.34 Q1089.4 1544.47 1091.62 1545.03 Q1093.84 1545.58 1096.32 1545.58 Q1100.32 1545.58 1102.66 1543.48 Q1105 1541.37 1105 1537.76 Q1105 1534.15 1102.66 1532.04 Q1100.32 1529.94 1096.32 1529.94 Q1094.44 1529.94 1092.57 1530.35 Q1090.72 1530.77 1088.77 1531.65 L1088.77 1514.29 Z" fill="#000000" fill-rule="nonzero" fill-opacity="1" /><path clip-path="url(#clip350)" d="M1339.6 1517.37 Q1335.98 1517.37 1334.16 1520.93 Q1332.35 1524.47 1332.35 1531.6 Q1332.35 1538.71 1334.16 1542.27 Q1335.98 1545.82 1339.6 1545.82 Q1343.23 1545.82 1345.03 1542.27 Q1346.86 1538.71 1346.86 1531.6 Q1346.86 1524.47 1345.03 1520.93 Q1343.23 1517.37 1339.6 1517.37 M1339.6 1513.66 Q1345.41 1513.66 1348.46 1518.27 Q1351.54 1522.85 1351.54 1531.6 Q1351.54 1540.33 1348.46 1544.94 Q1345.41 1549.52 1339.6 1549.52 Q1333.79 1549.52 1330.71 1544.94 Q1327.65 1540.33 1327.65 1531.6 Q1327.65 1522.85 1330.71 1518.27 Q1333.79 1513.66 1339.6 1513.66 Z" fill="#000000" fill-rule="nonzero" fill-opacity="1" /><path clip-path="url(#clip350)" d="M1359.76 1542.97 L1364.64 1542.97 L1364.64 1548.85 L1359.76 1548.85 L1359.76 1542.97 Z" fill="#000000" fill-rule="nonzero" fill-opacity="1" /><path clip-path="url(#clip350)" d="M1384.83 1517.37 Q1381.22 1517.37 1379.39 1520.93 Q1377.58 1524.47 1377.58 1531.6 Q1377.58 1538.71 1379.39 1542.27 Q1381.22 1545.82 1384.83 1545.82 Q1388.46 1545.82 1390.27 1542.27 Q1392.09 1538.71 1392.09 1531.6 Q1392.09 1524.47 1390.27 1520.93 Q1388.46 1517.37 1384.83 1517.37 M1384.83 1513.66 Q1390.64 1513.66 1393.69 1518.27 Q1396.77 1522.85 1396.77 1531.6 Q1396.77 1540.33 1393.69 1544.94 Q1390.64 1549.52 1384.83 1549.52 Q1379.02 1549.52 1375.94 1544.94 Q1372.88 1540.33 1372.88 1531.6 Q1372.88 1522.85 1375.94 1518.27 Q1379.02 1513.66 1384.83 1513.66 Z" fill="#000000" fill-rule="nonzero" fill-opacity="1" /><path clip-path="url(#clip350)" d="M1645.6 1517.37 Q1641.99 1517.37 1640.16 1520.93 Q1638.36 1524.47 1638.36 1531.6 Q1638.36 1538.71 1640.16 1542.27 Q1641.99 1545.82 1645.6 1545.82 Q1649.24 1545.82 1651.04 1542.27 Q1652.87 1538.71 1652.87 1531.6 Q1652.87 1524.47 1651.04 1520.93 Q1649.24 1517.37 1645.6 1517.37 M1645.6 1513.66 Q1651.41 1513.66 1654.47 1518.27 Q1657.55 1522.85 1657.55 1531.6 Q1657.55 1540.33 1654.47 1544.94 Q1651.41 1549.52 1645.6 1549.52 Q1639.79 1549.52 1636.71 1544.94 Q1633.66 1540.33 1633.66 1531.6 Q1633.66 1522.85 1636.71 1518.27 Q1639.79 1513.66 1645.6 1513.66 Z" fill="#000000" fill-rule="nonzero" fill-opacity="1" /><path clip-path="url(#clip350)" d="M1665.76 1542.97 L1670.65 1542.97 L1670.65 1548.85 L1665.76 1548.85 L1665.76 1542.97 Z" fill="#000000" fill-rule="nonzero" fill-opacity="1" /><path clip-path="url(#clip350)" d="M1680.88 1514.29 L1699.24 1514.29 L1699.24 1518.22 L1685.16 1518.22 L1685.16 1526.7 Q1686.18 1526.35 1687.2 1526.19 Q1688.22 1526 1689.24 1526 Q1695.02 1526 1698.4 1529.17 Q1701.78 1532.34 1701.78 1537.76 Q1701.78 1543.34 1698.31 1546.44 Q1694.84 1549.52 1688.52 1549.52 Q1686.34 1549.52 1684.07 1549.15 Q1681.83 1548.78 1679.42 1548.04 L1679.42 1543.34 Q1681.5 1544.47 1683.73 1545.03 Q1685.95 1545.58 1688.43 1545.58 Q1692.43 1545.58 1694.77 1543.48 Q1697.11 1541.37 1697.11 1537.76 Q1697.11 1534.15 1694.77 1532.04 Q1692.43 1529.94 1688.43 1529.94 Q1686.55 1529.94 1684.68 1530.35 Q1682.82 1530.77 1680.88 1531.65 L1680.88 1514.29 Z" fill="#000000" fill-rule="nonzero" fill-opacity="1" /><path clip-path="url(#clip350)" d="M1940.38 1544.91 L1948.02 1544.91 L1948.02 1518.55 L1939.71 1520.21 L1939.71 1515.95 L1947.97 1514.29 L1952.65 1514.29 L1952.65 1544.91 L1960.29 1544.91 L1960.29 1548.85 L1940.38 1548.85 L1940.38 1544.91 Z" fill="#000000" fill-rule="nonzero" fill-opacity="1" /><path clip-path="url(#clip350)" d="M1969.73 1542.97 L1974.62 1542.97 L1974.62 1548.85 L1969.73 1548.85 L1969.73 1542.97 Z" fill="#000000" fill-rule="nonzero" fill-opacity="1" /><path clip-path="url(#clip350)" d="M1994.8 1517.37 Q1991.19 1517.37 1989.36 1520.93 Q1987.56 1524.47 1987.56 1531.6 Q1987.56 1538.71 1989.36 1542.27 Q1991.19 1545.82 1994.8 1545.82 Q1998.44 1545.82 2000.24 1542.27 Q2002.07 1538.71 2002.07 1531.6 Q2002.07 1524.47 2000.24 1520.93 Q1998.44 1517.37 1994.8 1517.37 M1994.8 1513.66 Q2000.61 1513.66 2003.67 1518.27 Q2006.75 1522.85 2006.75 1531.6 Q2006.75 1540.33 2003.67 1544.94 Q2000.61 1549.52 1994.8 1549.52 Q1988.99 1549.52 1985.91 1544.94 Q1982.86 1540.33 1982.86 1531.6 Q1982.86 1522.85 1985.91 1518.27 Q1988.99 1513.66 1994.8 1513.66 Z" fill="#000000" fill-rule="nonzero" fill-opacity="1" /><path clip-path="url(#clip350)" d="M2246.39 1544.91 L2254.03 1544.91 L2254.03 1518.55 L2245.72 1520.21 L2245.72 1515.95 L2253.98 1514.29 L2258.66 1514.29 L2258.66 1544.91 L2266.3 1544.91 L2266.3 1548.85 L2246.39 1548.85 L2246.39 1544.91 Z" fill="#000000" fill-rule="nonzero" fill-opacity="1" /><path clip-path="url(#clip350)" d="M2275.74 1542.97 L2280.62 1542.97 L2280.62 1548.85 L2275.74 1548.85 L2275.74 1542.97 Z" fill="#000000" fill-rule="nonzero" fill-opacity="1" /><path clip-path="url(#clip350)" d="M2290.86 1514.29 L2309.21 1514.29 L2309.21 1518.22 L2295.14 1518.22 L2295.14 1526.7 Q2296.16 1526.35 2297.18 1526.19 Q2298.19 1526 2299.21 1526 Q2305 1526 2308.38 1529.17 Q2311.76 1532.34 2311.76 1537.76 Q2311.76 1543.34 2308.29 1546.44 Q2304.81 1549.52 2298.49 1549.52 Q2296.32 1549.52 2294.05 1549.15 Q2291.8 1548.78 2289.4 1548.04 L2289.4 1543.34 Q2291.48 1544.47 2293.7 1545.03 Q2295.93 1545.58 2298.4 1545.58 Q2302.41 1545.58 2304.74 1543.48 Q2307.08 1541.37 2307.08 1537.76 Q2307.08 1534.15 2304.74 1532.04 Q2302.41 1529.94 2298.4 1529.94 Q2296.53 1529.94 2294.65 1530.35 Q2292.8 1530.77 2290.86 1531.65 L2290.86 1514.29 Z" fill="#000000" fill-rule="nonzero" fill-opacity="1" /><polyline clip-path="url(#clip350)" style="stroke:#000000; stroke-linecap:round; stroke-linejoin:round; stroke-width:4; stroke-opacity:1; fill:none" points="147.478,1486.45 147.478,47.2441 "/>
<polyline clip-path="url(#clip350)" style="stroke:#000000; stroke-linecap:round; stroke-linejoin:round; stroke-width:4; stroke-opacity:1; fill:none" points="147.478,1456.82 166.376,1456.82 "/>
<polyline clip-path="url(#clip350)" style="stroke:#000000; stroke-linecap:round; stroke-linejoin:round; stroke-width:4; stroke-opacity:1; fill:none" points="147.478,1208.19 166.376,1208.19 "/>
<polyline clip-path="url(#clip350)" style="stroke:#000000; stroke-linecap:round; stroke-linejoin:round; stroke-width:4; stroke-opacity:1; fill:none" points="147.478,959.565 166.376,959.565 "/>
<polyline clip-path="url(#clip350)" style="stroke:#000000; stroke-linecap:round; stroke-linejoin:round; stroke-width:4; stroke-opacity:1; fill:none" points="147.478,710.94 166.376,710.94 "/>
<polyline clip-path="url(#clip350)" style="stroke:#000000; stroke-linecap:round; stroke-linejoin:round; stroke-width:4; stroke-opacity:1; fill:none" points="147.478,462.315 166.376,462.315 "/>
<polyline clip-path="url(#clip350)" style="stroke:#000000; stroke-linecap:round; stroke-linejoin:round; stroke-width:4; stroke-opacity:1; fill:none" points="147.478,213.689 166.376,213.689 "/>
<path clip-path="url(#clip350)" d="M51.3625 1457.27 L81.0383 1457.27 L81.0383 1461.2 L51.3625 1461.2 L51.3625 1457.27 Z" fill="#000000" fill-rule="nonzero" fill-opacity="1" /><path clip-path="url(#clip350)" d="M95.1586 1470.16 L111.478 1470.16 L111.478 1474.1 L89.5336 1474.1 L89.5336 1470.16 Q92.1956 1467.41 96.7789 1462.78 Q101.385 1458.12 102.566 1456.78 Q104.811 1454.26 105.691 1452.52 Q106.594 1450.76 106.594 1449.07 Q106.594 1446.32 104.649 1444.58 Q102.728 1442.85 99.6261 1442.85 Q97.4271 1442.85 94.9734 1443.61 Q92.5428 1444.37 89.7651 1445.93 L89.7651 1441.2 Q92.5891 1440.07 95.0428 1439.49 Q97.4965 1438.91 99.5335 1438.91 Q104.904 1438.91 108.098 1441.6 Q111.293 1444.28 111.293 1448.77 Q111.293 1450.9 110.483 1452.82 Q109.696 1454.72 107.589 1457.31 Q107.01 1457.99 103.909 1461.2 Q100.807 1464.4 95.1586 1470.16 Z" fill="#000000" fill-rule="nonzero" fill-opacity="1" /><path clip-path="url(#clip350)" d="M50.9921 1208.64 L80.6679 1208.64 L80.6679 1212.58 L50.9921 1212.58 L50.9921 1208.64 Z" fill="#000000" fill-rule="nonzero" fill-opacity="1" /><path clip-path="url(#clip350)" d="M91.5706 1221.54 L99.2095 1221.54 L99.2095 1195.17 L90.8993 1196.84 L90.8993 1192.58 L99.1632 1190.91 L103.839 1190.91 L103.839 1221.54 L111.478 1221.54 L111.478 1225.47 L91.5706 1225.47 L91.5706 1221.54 Z" fill="#000000" fill-rule="nonzero" fill-opacity="1" /><path clip-path="url(#clip350)" d="M99.5335 945.364 Q95.9224 945.364 94.0937 948.929 Q92.2882 952.47 92.2882 959.6 Q92.2882 966.707 94.0937 970.271 Q95.9224 973.813 99.5335 973.813 Q103.168 973.813 104.973 970.271 Q106.802 966.707 106.802 959.6 Q106.802 952.47 104.973 948.929 Q103.168 945.364 99.5335 945.364 M99.5335 941.66 Q105.344 941.66 108.399 946.267 Q111.478 950.85 111.478 959.6 Q111.478 968.327 108.399 972.933 Q105.344 977.517 99.5335 977.517 Q93.7234 977.517 90.6447 972.933 Q87.5892 968.327 87.5892 959.6 Q87.5892 950.85 90.6447 946.267 Q93.7234 941.66 99.5335 941.66 Z" fill="#000000" fill-rule="nonzero" fill-opacity="1" /><path clip-path="url(#clip350)" d="M91.5706 724.285 L99.2095 724.285 L99.2095 697.919 L90.8993 699.586 L90.8993 695.327 L99.1632 693.66 L103.839 693.66 L103.839 724.285 L111.478 724.285 L111.478 728.22 L91.5706 728.22 L91.5706 724.285 Z" fill="#000000" fill-rule="nonzero" fill-opacity="1" /><path clip-path="url(#clip350)" d="M95.1586 475.659 L111.478 475.659 L111.478 479.595 L89.5336 479.595 L89.5336 475.659 Q92.1956 472.905 96.7789 468.275 Q101.385 463.622 102.566 462.28 Q104.811 459.757 105.691 458.021 Q106.594 456.261 106.594 454.572 Q106.594 451.817 104.649 450.081 Q102.728 448.345 99.6261 448.345 Q97.4271 448.345 94.9734 449.109 Q92.5428 449.872 89.7651 451.423 L89.7651 446.701 Q92.5891 445.567 95.0428 444.988 Q97.4965 444.41 99.5335 444.41 Q104.904 444.41 108.098 447.095 Q111.293 449.78 111.293 454.271 Q111.293 456.4 110.483 458.321 Q109.696 460.22 107.589 462.812 Q107.01 463.483 103.909 466.701 Q100.807 469.895 95.1586 475.659 Z" fill="#000000" fill-rule="nonzero" fill-opacity="1" /><path clip-path="url(#clip350)" d="M104.348 212.335 Q107.705 213.053 109.58 215.321 Q111.478 217.59 111.478 220.923 Q111.478 226.039 107.959 228.839 Q104.441 231.64 97.9595 231.64 Q95.7836 231.64 93.4688 231.201 Q91.1771 230.784 88.7234 229.927 L88.7234 225.414 Q90.6678 226.548 92.9826 227.127 Q95.2974 227.705 97.8206 227.705 Q102.219 227.705 104.51 225.969 Q106.825 224.233 106.825 220.923 Q106.825 217.867 104.672 216.154 Q102.543 214.418 98.7234 214.418 L94.6956 214.418 L94.6956 210.576 L98.9085 210.576 Q102.358 210.576 104.186 209.21 Q106.015 207.821 106.015 205.228 Q106.015 202.566 104.117 201.154 Q102.242 199.719 98.7234 199.719 Q96.8021 199.719 94.603 200.136 Q92.4039 200.553 89.7651 201.432 L89.7651 197.266 Q92.4271 196.525 94.7419 196.154 Q97.0798 195.784 99.14 195.784 Q104.464 195.784 107.566 198.215 Q110.668 200.622 110.668 204.742 Q110.668 207.613 109.024 209.603 Q107.381 211.571 104.348 212.335 Z" fill="#000000" fill-rule="nonzero" fill-opacity="1" /><circle clip-path="url(#clip352)" cx="575.64" cy="1330.15" r="14.4" fill="#009af9" fill-rule="evenodd" fill-opacity="0.5" stroke="#000000" stroke-opacity="0.5" stroke-width="3.2"/>
<circle clip-path="url(#clip352)" cx="2058.42" cy="1247.29" r="14.4" fill="#009af9" fill-rule="evenodd" fill-opacity="0.5" stroke="#000000" stroke-opacity="0.5" stroke-width="3.2"/>
<circle clip-path="url(#clip352)" cx="1243.35" cy="997.414" r="14.4" fill="#009af9" fill-rule="evenodd" fill-opacity="0.5" stroke="#000000" stroke-opacity="0.5" stroke-width="3.2"/>
<circle clip-path="url(#clip352)" cx="1387.64" cy="817.483" r="14.4" fill="#009af9" fill-rule="evenodd" fill-opacity="0.5" stroke="#000000" stroke-opacity="0.5" stroke-width="3.2"/>
<circle clip-path="url(#clip352)" cx="418.18" cy="893.297" r="14.4" fill="#009af9" fill-rule="evenodd" fill-opacity="0.5" stroke="#000000" stroke-opacity="0.5" stroke-width="3.2"/>
<circle clip-path="url(#clip352)" cx="298.833" cy="1094.36" r="14.4" fill="#009af9" fill-rule="evenodd" fill-opacity="0.5" stroke="#000000" stroke-opacity="0.5" stroke-width="3.2"/>
<circle clip-path="url(#clip352)" cx="1678.25" cy="1224.73" r="14.4" fill="#009af9" fill-rule="evenodd" fill-opacity="0.5" stroke="#000000" stroke-opacity="0.5" stroke-width="3.2"/>
<circle clip-path="url(#clip352)" cx="1058.97" cy="1431.45" r="14.4" fill="#009af9" fill-rule="evenodd" fill-opacity="0.5" stroke="#000000" stroke-opacity="0.5" stroke-width="3.2"/>
<circle clip-path="url(#clip352)" cx="1856.26" cy="812.578" r="14.4" fill="#009af9" fill-rule="evenodd" fill-opacity="0.5" stroke="#000000" stroke-opacity="0.5" stroke-width="3.2"/>
<circle clip-path="url(#clip352)" cx="681.837" cy="1239.18" r="14.4" fill="#009af9" fill-rule="evenodd" fill-opacity="0.5" stroke="#000000" stroke-opacity="0.5" stroke-width="3.2"/>
<circle clip-path="url(#clip352)" cx="977.47" cy="675.022" r="14.4" fill="#009af9" fill-rule="evenodd" fill-opacity="0.5" stroke="#000000" stroke-opacity="0.5" stroke-width="3.2"/>
<circle clip-path="url(#clip352)" cx="1774.35" cy="1042.83" r="14.4" fill="#009af9" fill-rule="evenodd" fill-opacity="0.5" stroke="#000000" stroke-opacity="0.5" stroke-width="3.2"/>
<circle clip-path="url(#clip352)" cx="209.891" cy="1197.36" r="14.4" fill="#009af9" fill-rule="evenodd" fill-opacity="0.5" stroke="#000000" stroke-opacity="0.5" stroke-width="3.2"/>
<circle clip-path="url(#clip352)" cx="1815.49" cy="851.112" r="14.4" fill="#009af9" fill-rule="evenodd" fill-opacity="0.5" stroke="#000000" stroke-opacity="0.5" stroke-width="3.2"/>
<circle clip-path="url(#clip352)" cx="1120.22" cy="590.796" r="14.4" fill="#009af9" fill-rule="evenodd" fill-opacity="0.5" stroke="#000000" stroke-opacity="0.5" stroke-width="3.2"/>
<circle clip-path="url(#clip352)" cx="780.511" cy="1128.19" r="14.4" fill="#009af9" fill-rule="evenodd" fill-opacity="0.5" stroke="#000000" stroke-opacity="0.5" stroke-width="3.2"/>
<circle clip-path="url(#clip352)" cx="552.115" cy="737.781" r="14.4" fill="#009af9" fill-rule="evenodd" fill-opacity="0.5" stroke="#000000" stroke-opacity="0.5" stroke-width="3.2"/>
<circle clip-path="url(#clip352)" cx="1679.52" cy="964.535" r="14.4" fill="#009af9" fill-rule="evenodd" fill-opacity="0.5" stroke="#000000" stroke-opacity="0.5" stroke-width="3.2"/>
<circle clip-path="url(#clip352)" cx="1140.7" cy="980.687" r="14.4" fill="#009af9" fill-rule="evenodd" fill-opacity="0.5" stroke="#000000" stroke-opacity="0.5" stroke-width="3.2"/>
<circle clip-path="url(#clip352)" cx="1776.64" cy="1235.17" r="14.4" fill="#009af9" fill-rule="evenodd" fill-opacity="0.5" stroke="#000000" stroke-opacity="0.5" stroke-width="3.2"/>
<circle clip-path="url(#clip352)" cx="1958.31" cy="369.82" r="14.4" fill="#009af9" fill-rule="evenodd" fill-opacity="0.5" stroke="#000000" stroke-opacity="0.5" stroke-width="3.2"/>
<circle clip-path="url(#clip352)" cx="1044.32" cy="87.9763" r="14.4" fill="#009af9" fill-rule="evenodd" fill-opacity="0.5" stroke="#000000" stroke-opacity="0.5" stroke-width="3.2"/>
<circle clip-path="url(#clip352)" cx="986.376" cy="1109.81" r="14.4" fill="#009af9" fill-rule="evenodd" fill-opacity="0.5" stroke="#000000" stroke-opacity="0.5" stroke-width="3.2"/>
<circle clip-path="url(#clip352)" cx="2130.08" cy="1144.4" r="14.4" fill="#009af9" fill-rule="evenodd" fill-opacity="0.5" stroke="#000000" stroke-opacity="0.5" stroke-width="3.2"/>
<circle clip-path="url(#clip352)" cx="2290.34" cy="1015.54" r="14.4" fill="#009af9" fill-rule="evenodd" fill-opacity="0.5" stroke="#000000" stroke-opacity="0.5" stroke-width="3.2"/>
<circle clip-path="url(#clip352)" cx="291.155" cy="994.799" r="14.4" fill="#009af9" fill-rule="evenodd" fill-opacity="0.5" stroke="#000000" stroke-opacity="0.5" stroke-width="3.2"/>
<circle clip-path="url(#clip352)" cx="1797.1" cy="923.172" r="14.4" fill="#009af9" fill-rule="evenodd" fill-opacity="0.5" stroke="#000000" stroke-opacity="0.5" stroke-width="3.2"/>
<circle clip-path="url(#clip352)" cx="1602.03" cy="1144.97" r="14.4" fill="#009af9" fill-rule="evenodd" fill-opacity="0.5" stroke="#000000" stroke-opacity="0.5" stroke-width="3.2"/>
<circle clip-path="url(#clip352)" cx="1713.26" cy="1445.72" r="14.4" fill="#009af9" fill-rule="evenodd" fill-opacity="0.5" stroke="#000000" stroke-opacity="0.5" stroke-width="3.2"/>
<circle clip-path="url(#clip352)" cx="1314.64" cy="1009.53" r="14.4" fill="#009af9" fill-rule="evenodd" fill-opacity="0.5" stroke="#000000" stroke-opacity="0.5" stroke-width="3.2"/>
<path clip-path="url(#clip352)" d="M209.891 1197.36 L575.64 1330.15 L1058.97 1431.45 L1713.26 1445.72 L2058.42 1247.29 L2290.34 1015.54 L1958.31 369.82 L1044.32 87.9763 L291.155 994.799 L209.891 1197.36 L209.891 1197.36  Z" fill="#e26f46" fill-rule="evenodd" fill-opacity="0.2"/>
<polyline clip-path="url(#clip352)" style="stroke:#000000; stroke-linecap:round; stroke-linejoin:round; stroke-width:4; stroke-opacity:0.2; fill:none" points="209.891,1197.36 575.64,1330.15 1058.97,1431.45 1713.26,1445.72 2058.42,1247.29 2290.34,1015.54 1958.31,369.82 1044.32,87.9763 291.155,994.799 209.891,1197.36 "/>
</svg>
