<?xml version="1.0" encoding="utf-8"?>
<svg xmlns="http://www.w3.org/2000/svg" xmlns:xlink="http://www.w3.org/1999/xlink" width="600" height="400" viewBox="0 0 2400 1600">
<defs>
  <clipPath id="clip660">
    <rect x="0" y="0" width="2400" height="1600"/>
  </clipPath>
</defs>
<path clip-path="url(#clip660)" d="M0 1600 L2400 1600 L2400 0 L0 0  Z" fill="#ffffff" fill-rule="evenodd" fill-opacity="1"/>
<defs>
  <clipPath id="clip661">
    <rect x="193" y="47" width="2160" height="1440"/>
  </clipPath>
</defs>
<path clip-path="url(#clip660)" d="M193.936 1486.45 L2352.76 1486.45 L2352.76 47.2441 L193.936 47.2441  Z" fill="#ffffff" fill-rule="evenodd" fill-opacity="1"/>
<polyline clip-path="url(#clip661)" style="stroke:#000000; stroke-linecap:round; stroke-linejoin:round; stroke-width:2; stroke-opacity:0.1; fill:none" points="255.041,1486.45 255.041,47.2441 "/>
<polyline clip-path="url(#clip661)" style="stroke:#000000; stroke-linecap:round; stroke-linejoin:round; stroke-width:2; stroke-opacity:0.1; fill:none" points="594.476,1486.45 594.476,47.2441 "/>
<polyline clip-path="url(#clip661)" style="stroke:#000000; stroke-linecap:round; stroke-linejoin:round; stroke-width:2; stroke-opacity:0.1; fill:none" points="933.911,1486.45 933.911,47.2441 "/>
<polyline clip-path="url(#clip661)" style="stroke:#000000; stroke-linecap:round; stroke-linejoin:round; stroke-width:2; stroke-opacity:0.1; fill:none" points="1273.35,1486.45 1273.35,47.2441 "/>
<polyline clip-path="url(#clip661)" style="stroke:#000000; stroke-linecap:round; stroke-linejoin:round; stroke-width:2; stroke-opacity:0.1; fill:none" points="1612.78,1486.45 1612.78,47.2441 "/>
<polyline clip-path="url(#clip661)" style="stroke:#000000; stroke-linecap:round; stroke-linejoin:round; stroke-width:2; stroke-opacity:0.1; fill:none" points="1952.22,1486.45 1952.22,47.2441 "/>
<polyline clip-path="url(#clip661)" style="stroke:#000000; stroke-linecap:round; stroke-linejoin:round; stroke-width:2; stroke-opacity:0.1; fill:none" points="2291.65,1486.45 2291.65,47.2441 "/>
<polyline clip-path="url(#clip661)" style="stroke:#000000; stroke-linecap:round; stroke-linejoin:round; stroke-width:2; stroke-opacity:0.1; fill:none" points="193.936,1445.72 2352.76,1445.72 "/>
<polyline clip-path="url(#clip661)" style="stroke:#000000; stroke-linecap:round; stroke-linejoin:round; stroke-width:2; stroke-opacity:0.1; fill:none" points="193.936,1106.28 2352.76,1106.28 "/>
<polyline clip-path="url(#clip661)" style="stroke:#000000; stroke-linecap:round; stroke-linejoin:round; stroke-width:2; stroke-opacity:0.1; fill:none" points="193.936,766.846 2352.76,766.846 "/>
<polyline clip-path="url(#clip661)" style="stroke:#000000; stroke-linecap:round; stroke-linejoin:round; stroke-width:2; stroke-opacity:0.1; fill:none" points="193.936,427.411 2352.76,427.411 "/>
<polyline clip-path="url(#clip661)" style="stroke:#000000; stroke-linecap:round; stroke-linejoin:round; stroke-width:2; stroke-opacity:0.1; fill:none" points="193.936,87.9763 2352.76,87.9763 "/>
<polyline clip-path="url(#clip660)" style="stroke:#000000; stroke-linecap:round; stroke-linejoin:round; stroke-width:4; stroke-opacity:1; fill:none" points="193.936,1486.45 2352.76,1486.45 "/>
<polyline clip-path="url(#clip660)" style="stroke:#000000; stroke-linecap:round; stroke-linejoin:round; stroke-width:4; stroke-opacity:1; fill:none" points="255.041,1486.45 255.041,1467.55 "/>
<polyline clip-path="url(#clip660)" style="stroke:#000000; stroke-linecap:round; stroke-linejoin:round; stroke-width:4; stroke-opacity:1; fill:none" points="594.476,1486.45 594.476,1467.55 "/>
<polyline clip-path="url(#clip660)" style="stroke:#000000; stroke-linecap:round; stroke-linejoin:round; stroke-width:4; stroke-opacity:1; fill:none" points="933.911,1486.45 933.911,1467.55 "/>
<polyline clip-path="url(#clip660)" style="stroke:#000000; stroke-linecap:round; stroke-linejoin:round; stroke-width:4; stroke-opacity:1; fill:none" points="1273.35,1486.45 1273.35,1467.55 "/>
<polyline clip-path="url(#clip660)" style="stroke:#000000; stroke-linecap:round; stroke-linejoin:round; stroke-width:4; stroke-opacity:1; fill:none" points="1612.78,1486.45 1612.78,1467.55 "/>
<polyline clip-path="url(#clip660)" style="stroke:#000000; stroke-linecap:round; stroke-linejoin:round; stroke-width:4; stroke-opacity:1; fill:none" points="1952.22,1486.45 1952.22,1467.55 "/>
<polyline clip-path="url(#clip660)" style="stroke:#000000; stroke-linecap:round; stroke-linejoin:round; stroke-width:4; stroke-opacity:1; fill:none" points="2291.65,1486.45 2291.65,1467.55 "/>
<path clip-path="url(#clip660)" d="M202.067 1532.02 L231.743 1532.02 L231.743 1535.95 L202.067 1535.95 L202.067 1532.02 Z" fill="#000000" fill-rule="nonzero" fill-opacity="1" /><path clip-path="url(#clip660)" d="M242.646 1544.91 L250.284 1544.91 L250.284 1518.55 L241.974 1520.21 L241.974 1515.95 L250.238 1514.29 L254.914 1514.29 L254.914 1544.91 L262.553 1544.91 L262.553 1548.85 L242.646 1548.85 L242.646 1544.91 Z" fill="#000000" fill-rule="nonzero" fill-opacity="1" /><path clip-path="url(#clip660)" d="M271.997 1542.97 L276.882 1542.97 L276.882 1548.85 L271.997 1548.85 L271.997 1542.97 Z" fill="#000000" fill-rule="nonzero" fill-opacity="1" /><path clip-path="url(#clip660)" d="M287.113 1514.29 L305.469 1514.29 L305.469 1518.22 L291.395 1518.22 L291.395 1526.7 Q292.414 1526.35 293.432 1526.19 Q294.451 1526 295.469 1526 Q301.256 1526 304.636 1529.17 Q308.016 1532.34 308.016 1537.76 Q308.016 1543.34 304.543 1546.44 Q301.071 1549.52 294.752 1549.52 Q292.576 1549.52 290.307 1549.15 Q288.062 1548.78 285.655 1548.04 L285.655 1543.34 Q287.738 1544.47 289.96 1545.03 Q292.182 1545.58 294.659 1545.58 Q298.664 1545.58 301.002 1543.48 Q303.34 1541.37 303.34 1537.76 Q303.34 1534.15 301.002 1532.04 Q298.664 1529.94 294.659 1529.94 Q292.784 1529.94 290.909 1530.35 Q289.057 1530.77 287.113 1531.65 L287.113 1514.29 Z" fill="#000000" fill-rule="nonzero" fill-opacity="1" /><path clip-path="url(#clip660)" d="M541.004 1532.02 L570.68 1532.02 L570.68 1535.95 L541.004 1535.95 L541.004 1532.02 Z" fill="#000000" fill-rule="nonzero" fill-opacity="1" /><path clip-path="url(#clip660)" d="M581.583 1544.91 L589.222 1544.91 L589.222 1518.55 L580.912 1520.21 L580.912 1515.95 L589.175 1514.29 L593.851 1514.29 L593.851 1544.91 L601.49 1544.91 L601.49 1548.85 L581.583 1548.85 L581.583 1544.91 Z" fill="#000000" fill-rule="nonzero" fill-opacity="1" /><path clip-path="url(#clip660)" d="M610.934 1542.97 L615.819 1542.97 L615.819 1548.85 L610.934 1548.85 L610.934 1542.97 Z" fill="#000000" fill-rule="nonzero" fill-opacity="1" /><path clip-path="url(#clip660)" d="M636.004 1517.37 Q632.393 1517.37 630.564 1520.93 Q628.758 1524.47 628.758 1531.6 Q628.758 1538.71 630.564 1542.27 Q632.393 1545.82 636.004 1545.82 Q639.638 1545.82 641.444 1542.27 Q643.272 1538.71 643.272 1531.6 Q643.272 1524.47 641.444 1520.93 Q639.638 1517.37 636.004 1517.37 M636.004 1513.66 Q641.814 1513.66 644.869 1518.27 Q647.948 1522.85 647.948 1531.6 Q647.948 1540.33 644.869 1544.94 Q641.814 1549.52 636.004 1549.52 Q630.194 1549.52 627.115 1544.94 Q624.059 1540.33 624.059 1531.6 Q624.059 1522.85 627.115 1518.27 Q630.194 1513.66 636.004 1513.66 Z" fill="#000000" fill-rule="nonzero" fill-opacity="1" /><path clip-path="url(#clip660)" d="M880.937 1532.02 L910.613 1532.02 L910.613 1535.95 L880.937 1535.95 L880.937 1532.02 Z" fill="#000000" fill-rule="nonzero" fill-opacity="1" /><path clip-path="url(#clip660)" d="M930.705 1517.37 Q927.094 1517.37 925.265 1520.93 Q923.46 1524.47 923.46 1531.6 Q923.46 1538.71 925.265 1542.27 Q927.094 1545.82 930.705 1545.82 Q934.339 1545.82 936.145 1542.27 Q937.974 1538.71 937.974 1531.6 Q937.974 1524.47 936.145 1520.93 Q934.339 1517.37 930.705 1517.37 M930.705 1513.66 Q936.515 1513.66 939.571 1518.27 Q942.649 1522.85 942.649 1531.6 Q942.649 1540.33 939.571 1544.94 Q936.515 1549.52 930.705 1549.52 Q924.895 1549.52 921.816 1544.94 Q918.761 1540.33 918.761 1531.6 Q918.761 1522.85 921.816 1518.27 Q924.895 1513.66 930.705 1513.66 Z" fill="#000000" fill-rule="nonzero" fill-opacity="1" /><path clip-path="url(#clip660)" d="M950.867 1542.97 L955.751 1542.97 L955.751 1548.85 L950.867 1548.85 L950.867 1542.97 Z" fill="#000000" fill-rule="nonzero" fill-opacity="1" /><path clip-path="url(#clip660)" d="M965.983 1514.29 L984.339 1514.29 L984.339 1518.22 L970.265 1518.22 L970.265 1526.7 Q971.284 1526.35 972.302 1526.19 Q973.321 1526 974.339 1526 Q980.126 1526 983.506 1529.17 Q986.885 1532.34 986.885 1537.76 Q986.885 1543.34 983.413 1546.44 Q979.941 1549.52 973.622 1549.52 Q971.446 1549.52 969.177 1549.15 Q966.932 1548.78 964.524 1548.04 L964.524 1543.34 Q966.608 1544.47 968.83 1545.03 Q971.052 1545.58 973.529 1545.58 Q977.534 1545.58 979.871 1543.48 Q982.209 1541.37 982.209 1537.76 Q982.209 1534.15 979.871 1532.04 Q977.534 1529.94 973.529 1529.94 Q971.654 1529.94 969.779 1530.35 Q967.927 1530.77 965.983 1531.65 L965.983 1514.29 Z" fill="#000000" fill-rule="nonzero" fill-opacity="1" /><path clip-path="url(#clip660)" d="M1250.73 1517.37 Q1247.12 1517.37 1245.29 1520.93 Q1243.49 1524.47 1243.49 1531.6 Q1243.49 1538.71 1245.29 1542.27 Q1247.12 1545.82 1250.73 1545.82 Q1254.36 1545.82 1256.17 1542.27 Q1258 1538.71 1258 1531.6 Q1258 1524.47 1256.17 1520.93 Q1254.36 1517.37 1250.73 1517.37 M1250.73 1513.66 Q1256.54 1513.66 1259.6 1518.27 Q1262.67 1522.85 1262.67 1531.6 Q1262.67 1540.33 1259.6 1544.94 Q1256.54 1549.52 1250.73 1549.52 Q1244.92 1549.52 1241.84 1544.94 Q1238.79 1540.33 1238.79 1531.6 Q1238.79 1522.85 1241.84 1518.27 Q1244.92 1513.66 1250.73 1513.66 Z" fill="#000000" fill-rule="nonzero" fill-opacity="1" /><path clip-path="url(#clip660)" d="M1270.89 1542.97 L1275.78 1542.97 L1275.78 1548.85 L1270.89 1548.85 L1270.89 1542.97 Z" fill="#000000" fill-rule="nonzero" fill-opacity="1" /><path clip-path="url(#clip660)" d="M1295.96 1517.37 Q1292.35 1517.37 1290.52 1520.93 Q1288.72 1524.47 1288.72 1531.6 Q1288.72 1538.71 1290.52 1542.27 Q1292.35 1545.82 1295.96 1545.82 Q1299.6 1545.82 1301.4 1542.27 Q1303.23 1538.71 1303.23 1531.6 Q1303.23 1524.47 1301.4 1520.93 Q1299.6 1517.37 1295.96 1517.37 M1295.96 1513.66 Q1301.77 1513.66 1304.83 1518.27 Q1307.91 1522.85 1307.91 1531.6 Q1307.91 1540.33 1304.83 1544.94 Q1301.77 1549.52 1295.96 1549.52 Q1290.15 1549.52 1287.07 1544.94 Q1284.02 1540.33 1284.02 1531.6 Q1284.02 1522.85 1287.07 1518.27 Q1290.15 1513.66 1295.96 1513.66 Z" fill="#000000" fill-rule="nonzero" fill-opacity="1" /><path clip-path="url(#clip660)" d="M1590.66 1517.37 Q1587.05 1517.37 1585.22 1520.93 Q1583.42 1524.47 1583.42 1531.6 Q1583.42 1538.71 1585.22 1542.27 Q1587.05 1545.82 1590.66 1545.82 Q1594.3 1545.82 1596.1 1542.27 Q1597.93 1538.71 1597.93 1531.6 Q1597.93 1524.47 1596.1 1520.93 Q1594.3 1517.37 1590.66 1517.37 M1590.66 1513.66 Q1596.47 1513.66 1599.53 1518.27 Q1602.61 1522.85 1602.61 1531.6 Q1602.61 1540.33 1599.53 1544.94 Q1596.47 1549.52 1590.66 1549.52 Q1584.85 1549.52 1581.77 1544.94 Q1578.72 1540.33 1578.72 1531.6 Q1578.72 1522.85 1581.77 1518.27 Q1584.85 1513.66 1590.66 1513.66 Z" fill="#000000" fill-rule="nonzero" fill-opacity="1" /><path clip-path="url(#clip660)" d="M1610.82 1542.97 L1615.71 1542.97 L1615.71 1548.85 L1610.82 1548.85 L1610.82 1542.97 Z" fill="#000000" fill-rule="nonzero" fill-opacity="1" /><path clip-path="url(#clip660)" d="M1625.94 1514.29 L1644.3 1514.29 L1644.3 1518.22 L1630.22 1518.22 L1630.22 1526.7 Q1631.24 1526.35 1632.26 1526.19 Q1633.28 1526 1634.3 1526 Q1640.08 1526 1643.46 1529.17 Q1646.84 1532.34 1646.84 1537.76 Q1646.84 1543.34 1643.37 1546.44 Q1639.9 1549.52 1633.58 1549.52 Q1631.4 1549.52 1629.13 1549.15 Q1626.89 1548.78 1624.48 1548.04 L1624.48 1543.34 Q1626.57 1544.47 1628.79 1545.03 Q1631.01 1545.58 1633.49 1545.58 Q1637.49 1545.58 1639.83 1543.48 Q1642.17 1541.37 1642.17 1537.76 Q1642.17 1534.15 1639.83 1532.04 Q1637.49 1529.94 1633.49 1529.94 Q1631.61 1529.94 1629.74 1530.35 Q1627.88 1530.77 1625.94 1531.65 L1625.94 1514.29 Z" fill="#000000" fill-rule="nonzero" fill-opacity="1" /><path clip-path="url(#clip660)" d="M1919.37 1544.91 L1927.01 1544.91 L1927.01 1518.55 L1918.7 1520.21 L1918.7 1515.95 L1926.96 1514.29 L1931.64 1514.29 L1931.64 1544.91 L1939.28 1544.91 L1939.28 1548.85 L1919.37 1548.85 L1919.37 1544.91 Z" fill="#000000" fill-rule="nonzero" fill-opacity="1" /><path clip-path="url(#clip660)" d="M1948.72 1542.97 L1953.6 1542.97 L1953.6 1548.85 L1948.72 1548.85 L1948.72 1542.97 Z" fill="#000000" fill-rule="nonzero" fill-opacity="1" /><path clip-path="url(#clip660)" d="M1973.79 1517.37 Q1970.18 1517.37 1968.35 1520.93 Q1966.54 1524.47 1966.54 1531.6 Q1966.54 1538.71 1968.35 1542.27 Q1970.18 1545.82 1973.79 1545.82 Q1977.42 1545.82 1979.23 1542.27 Q1981.06 1538.71 1981.06 1531.6 Q1981.06 1524.47 1979.23 1520.93 Q1977.42 1517.37 1973.79 1517.37 M1973.79 1513.66 Q1979.6 1513.66 1982.66 1518.27 Q1985.73 1522.85 1985.73 1531.6 Q1985.73 1540.33 1982.66 1544.94 Q1979.6 1549.52 1973.79 1549.52 Q1967.98 1549.52 1964.9 1544.94 Q1961.85 1540.33 1961.85 1531.6 Q1961.85 1522.85 1964.9 1518.27 Q1967.98 1513.66 1973.79 1513.66 Z" fill="#000000" fill-rule="nonzero" fill-opacity="1" /><path clip-path="url(#clip660)" d="M2259.3 1544.91 L2266.94 1544.91 L2266.94 1518.55 L2258.63 1520.21 L2258.63 1515.95 L2266.89 1514.29 L2271.57 1514.29 L2271.57 1544.91 L2279.21 1544.91 L2279.21 1548.85 L2259.3 1548.85 L2259.3 1544.91 Z" fill="#000000" fill-rule="nonzero" fill-opacity="1" /><path clip-path="url(#clip660)" d="M2288.65 1542.97 L2293.54 1542.97 L2293.54 1548.85 L2288.65 1548.85 L2288.65 1542.97 Z" fill="#000000" fill-rule="nonzero" fill-opacity="1" /><path clip-path="url(#clip660)" d="M2303.77 1514.29 L2322.12 1514.29 L2322.12 1518.22 L2308.05 1518.22 L2308.05 1526.7 Q2309.07 1526.35 2310.09 1526.19 Q2311.11 1526 2312.12 1526 Q2317.91 1526 2321.29 1529.17 Q2324.67 1532.34 2324.67 1537.76 Q2324.67 1543.34 2321.2 1546.44 Q2317.73 1549.52 2311.41 1549.52 Q2309.23 1549.52 2306.96 1549.15 Q2304.72 1548.78 2302.31 1548.04 L2302.31 1543.34 Q2304.39 1544.47 2306.62 1545.03 Q2308.84 1545.58 2311.31 1545.58 Q2315.32 1545.58 2317.66 1543.48 Q2320 1541.37 2320 1537.76 Q2320 1534.15 2317.66 1532.04 Q2315.32 1529.94 2311.31 1529.94 Q2309.44 1529.94 2307.56 1530.35 Q2305.71 1530.77 2303.77 1531.65 L2303.77 1514.29 Z" fill="#000000" fill-rule="nonzero" fill-opacity="1" /><polyline clip-path="url(#clip660)" style="stroke:#000000; stroke-linecap:round; stroke-linejoin:round; stroke-width:4; stroke-opacity:1; fill:none" points="193.936,1486.45 193.936,47.2441 "/>
<polyline clip-path="url(#clip660)" style="stroke:#000000; stroke-linecap:round; stroke-linejoin:round; stroke-width:4; stroke-opacity:1; fill:none" points="193.936,1445.72 212.834,1445.72 "/>
<polyline clip-path="url(#clip660)" style="stroke:#000000; stroke-linecap:round; stroke-linejoin:round; stroke-width:4; stroke-opacity:1; fill:none" points="193.936,1106.28 212.834,1106.28 "/>
<polyline clip-path="url(#clip660)" style="stroke:#000000; stroke-linecap:round; stroke-linejoin:round; stroke-width:4; stroke-opacity:1; fill:none" points="193.936,766.846 212.834,766.846 "/>
<polyline clip-path="url(#clip660)" style="stroke:#000000; stroke-linecap:round; stroke-linejoin:round; stroke-width:4; stroke-opacity:1; fill:none" points="193.936,427.411 212.834,427.411 "/>
<polyline clip-path="url(#clip660)" style="stroke:#000000; stroke-linecap:round; stroke-linejoin:round; stroke-width:4; stroke-opacity:1; fill:none" points="193.936,87.9763 212.834,87.9763 "/>
<path clip-path="url(#clip660)" d="M50.9921 1446.17 L80.6679 1446.17 L80.6679 1450.1 L50.9921 1450.1 L50.9921 1446.17 Z" fill="#000000" fill-rule="nonzero" fill-opacity="1" /><path clip-path="url(#clip660)" d="M91.5706 1459.06 L99.2095 1459.06 L99.2095 1432.69 L90.8993 1434.36 L90.8993 1430.1 L99.1632 1428.44 L103.839 1428.44 L103.839 1459.06 L111.478 1459.06 L111.478 1463 L91.5706 1463 L91.5706 1459.06 Z" fill="#000000" fill-rule="nonzero" fill-opacity="1" /><path clip-path="url(#clip660)" d="M120.922 1457.12 L125.807 1457.12 L125.807 1463 L120.922 1463 L120.922 1457.12 Z" fill="#000000" fill-rule="nonzero" fill-opacity="1" /><path clip-path="url(#clip660)" d="M145.992 1431.51 Q142.381 1431.51 140.552 1435.08 Q138.746 1438.62 138.746 1445.75 Q138.746 1452.86 140.552 1456.42 Q142.381 1459.96 145.992 1459.96 Q149.626 1459.96 151.431 1456.42 Q153.26 1452.86 153.26 1445.75 Q153.26 1438.62 151.431 1435.08 Q149.626 1431.51 145.992 1431.51 M145.992 1427.81 Q151.802 1427.81 154.857 1432.42 Q157.936 1437 157.936 1445.75 Q157.936 1454.48 154.857 1459.08 Q151.802 1463.67 145.992 1463.67 Q140.181 1463.67 137.103 1459.08 Q134.047 1454.48 134.047 1445.75 Q134.047 1437 137.103 1432.42 Q140.181 1427.81 145.992 1427.81 Z" fill="#000000" fill-rule="nonzero" fill-opacity="1" /><path clip-path="url(#clip660)" d="M51.9875 1106.73 L81.6633 1106.73 L81.6633 1110.67 L51.9875 1110.67 L51.9875 1106.73 Z" fill="#000000" fill-rule="nonzero" fill-opacity="1" /><path clip-path="url(#clip660)" d="M101.756 1092.08 Q98.1447 1092.08 96.316 1095.64 Q94.5104 1099.19 94.5104 1106.32 Q94.5104 1113.42 96.316 1116.99 Q98.1447 1120.53 101.756 1120.53 Q105.39 1120.53 107.196 1116.99 Q109.024 1113.42 109.024 1106.32 Q109.024 1099.19 107.196 1095.64 Q105.39 1092.08 101.756 1092.08 M101.756 1088.38 Q107.566 1088.38 110.621 1092.98 Q113.7 1097.57 113.7 1106.32 Q113.7 1115.04 110.621 1119.65 Q107.566 1124.23 101.756 1124.23 Q95.9456 1124.23 92.8669 1119.65 Q89.8114 1115.04 89.8114 1106.32 Q89.8114 1097.57 92.8669 1092.98 Q95.9456 1088.38 101.756 1088.38 Z" fill="#000000" fill-rule="nonzero" fill-opacity="1" /><path clip-path="url(#clip660)" d="M121.918 1117.68 L126.802 1117.68 L126.802 1123.56 L121.918 1123.56 L121.918 1117.68 Z" fill="#000000" fill-rule="nonzero" fill-opacity="1" /><path clip-path="url(#clip660)" d="M137.033 1089 L155.39 1089 L155.39 1092.94 L141.316 1092.94 L141.316 1101.41 Q142.334 1101.06 143.353 1100.9 Q144.371 1100.71 145.39 1100.71 Q151.177 1100.71 154.556 1103.89 Q157.936 1107.06 157.936 1112.47 Q157.936 1118.05 154.464 1121.15 Q150.992 1124.23 144.672 1124.23 Q142.496 1124.23 140.228 1123.86 Q137.982 1123.49 135.575 1122.75 L135.575 1118.05 Q137.658 1119.19 139.881 1119.74 Q142.103 1120.3 144.58 1120.3 Q148.584 1120.3 150.922 1118.19 Q153.26 1116.08 153.26 1112.47 Q153.26 1108.86 150.922 1106.76 Q148.584 1104.65 144.58 1104.65 Q142.705 1104.65 140.83 1105.07 Q138.978 1105.48 137.033 1106.36 L137.033 1089 Z" fill="#000000" fill-rule="nonzero" fill-opacity="1" /><path clip-path="url(#clip660)" d="M100.76 752.645 Q97.1493 752.645 95.3206 756.209 Q93.515 759.751 93.515 766.881 Q93.515 773.987 95.3206 777.552 Q97.1493 781.094 100.76 781.094 Q104.395 781.094 106.2 777.552 Q108.029 773.987 108.029 766.881 Q108.029 759.751 106.2 756.209 Q104.395 752.645 100.76 752.645 M100.76 748.941 Q106.571 748.941 109.626 753.547 Q112.705 758.131 112.705 766.881 Q112.705 775.608 109.626 780.214 Q106.571 784.797 100.76 784.797 Q94.9502 784.797 91.8715 780.214 Q88.816 775.608 88.816 766.881 Q88.816 758.131 91.8715 753.547 Q94.9502 748.941 100.76 748.941 Z" fill="#000000" fill-rule="nonzero" fill-opacity="1" /><path clip-path="url(#clip660)" d="M120.922 778.246 L125.807 778.246 L125.807 784.126 L120.922 784.126 L120.922 778.246 Z" fill="#000000" fill-rule="nonzero" fill-opacity="1" /><path clip-path="url(#clip660)" d="M145.992 752.645 Q142.381 752.645 140.552 756.209 Q138.746 759.751 138.746 766.881 Q138.746 773.987 140.552 777.552 Q142.381 781.094 145.992 781.094 Q149.626 781.094 151.431 777.552 Q153.26 773.987 153.26 766.881 Q153.26 759.751 151.431 756.209 Q149.626 752.645 145.992 752.645 M145.992 748.941 Q151.802 748.941 154.857 753.547 Q157.936 758.131 157.936 766.881 Q157.936 775.608 154.857 780.214 Q151.802 784.797 145.992 784.797 Q140.181 784.797 137.103 780.214 Q134.047 775.608 134.047 766.881 Q134.047 758.131 137.103 753.547 Q140.181 748.941 145.992 748.941 Z" fill="#000000" fill-rule="nonzero" fill-opacity="1" /><path clip-path="url(#clip660)" d="M101.756 413.21 Q98.1447 413.21 96.316 416.775 Q94.5104 420.316 94.5104 427.446 Q94.5104 434.552 96.316 438.117 Q98.1447 441.659 101.756 441.659 Q105.39 441.659 107.196 438.117 Q109.024 434.552 109.024 427.446 Q109.024 420.316 107.196 416.775 Q105.39 413.21 101.756 413.21 M101.756 409.506 Q107.566 409.506 110.621 414.113 Q113.7 418.696 113.7 427.446 Q113.7 436.173 110.621 440.779 Q107.566 445.362 101.756 445.362 Q95.9456 445.362 92.8669 440.779 Q89.8114 436.173 89.8114 427.446 Q89.8114 418.696 92.8669 414.113 Q95.9456 409.506 101.756 409.506 Z" fill="#000000" fill-rule="nonzero" fill-opacity="1" /><path clip-path="url(#clip660)" d="M121.918 438.812 L126.802 438.812 L126.802 444.691 L121.918 444.691 L121.918 438.812 Z" fill="#000000" fill-rule="nonzero" fill-opacity="1" /><path clip-path="url(#clip660)" d="M137.033 410.131 L155.39 410.131 L155.39 414.066 L141.316 414.066 L141.316 422.538 Q142.334 422.191 143.353 422.029 Q144.371 421.844 145.39 421.844 Q151.177 421.844 154.556 425.015 Q157.936 428.187 157.936 433.603 Q157.936 439.182 154.464 442.284 Q150.992 445.362 144.672 445.362 Q142.496 445.362 140.228 444.992 Q137.982 444.622 135.575 443.881 L135.575 439.182 Q137.658 440.316 139.881 440.872 Q142.103 441.427 144.58 441.427 Q148.584 441.427 150.922 439.321 Q153.26 437.214 153.26 433.603 Q153.26 429.992 150.922 427.886 Q148.584 425.779 144.58 425.779 Q142.705 425.779 140.83 426.196 Q138.978 426.613 137.033 427.492 L137.033 410.131 Z" fill="#000000" fill-rule="nonzero" fill-opacity="1" /><path clip-path="url(#clip660)" d="M91.5706 101.321 L99.2095 101.321 L99.2095 74.9555 L90.8993 76.6222 L90.8993 72.3629 L99.1632 70.6963 L103.839 70.6963 L103.839 101.321 L111.478 101.321 L111.478 105.256 L91.5706 105.256 L91.5706 101.321 Z" fill="#000000" fill-rule="nonzero" fill-opacity="1" /><path clip-path="url(#clip660)" d="M120.922 99.3767 L125.807 99.3767 L125.807 105.256 L120.922 105.256 L120.922 99.3767 Z" fill="#000000" fill-rule="nonzero" fill-opacity="1" /><path clip-path="url(#clip660)" d="M145.992 73.775 Q142.381 73.775 140.552 77.3398 Q138.746 80.8814 138.746 88.011 Q138.746 95.1174 140.552 98.6822 Q142.381 102.224 145.992 102.224 Q149.626 102.224 151.431 98.6822 Q153.26 95.1174 153.26 88.011 Q153.26 80.8814 151.431 77.3398 Q149.626 73.775 145.992 73.775 M145.992 70.0713 Q151.802 70.0713 154.857 74.6777 Q157.936 79.261 157.936 88.011 Q157.936 96.7378 154.857 101.344 Q151.802 105.928 145.992 105.928 Q140.181 105.928 137.103 101.344 Q134.047 96.7378 134.047 88.011 Q134.047 79.261 137.103 74.6777 Q140.181 70.0713 145.992 70.0713 Z" fill="#000000" fill-rule="nonzero" fill-opacity="1" /><path clip-path="url(#clip661)" d="M594.476 783.511 L596.112 816.802 L599.379 849.972 L604.269 882.942 L610.772 915.632 L618.87 947.964 L628.546 979.859 L639.775 1011.24 L652.53 1042.03 L666.78 1072.17 L682.492 1101.56 L699.628 1130.15 L718.145 1157.86 L738 1184.63 L759.145 1210.4 L781.528 1235.1 L805.097 1258.66 L829.793 1281.05 L855.558 1302.19 L882.329 1322.05 L910.043 1340.56 L938.631 1357.7 L968.026 1373.41 L998.157 1387.66 L1028.95 1400.42 L1060.33 1411.65 L1092.23 1421.32 L1124.56 1429.42 L1157.25 1435.92 L1190.22 1440.81 L1223.39 1444.08 L1256.68 1445.72 L1290.01 1445.72 L1323.3 1444.08 L1356.47 1440.81 L1389.44 1435.92 L1422.13 1429.42 L1454.46 1421.32 L1486.36 1411.65 L1517.74 1400.42 L1548.53 1387.66 L1578.67 1373.41 L1608.06 1357.7 L1636.65 1340.56 L1664.36 1322.05 L1691.13 1302.19 L1716.9 1281.05 L1741.6 1258.66 L1765.16 1235.1 L1787.55 1210.4 L1808.69 1184.63 L1828.55 1157.86 L1847.06 1130.15 L1864.2 1101.56 L1879.91 1072.17 L1894.16 1042.03 L1906.92 1011.24 L1918.15 979.859 L1927.82 947.964 L1935.92 915.632 L1942.42 882.942 L1947.31 849.972 L1950.58 816.802 L1952.22 783.511 L1952.22 750.181 L1950.58 716.89 L1947.31 683.72 L1942.42 650.75 L1935.92 618.06 L1927.82 585.728 L1918.15 553.833 L1906.92 522.451 L1894.16 491.657 L1879.91 461.527 L1864.2 432.132 L1847.06 403.543 L1828.55 375.829 L1808.69 349.058 L1787.55 323.293 L1765.16 298.597 L1741.6 275.028 L1716.9 252.645 L1691.13 231.5 L1664.36 211.645 L1636.65 193.128 L1608.06 175.992 L1578.67 160.28 L1548.53 146.03 L1517.74 133.275 L1486.36 122.046 L1454.46 112.37 L1422.13 104.272 L1389.44 97.7693 L1356.47 92.8787 L1323.3 89.6117 L1290.01 87.9763 L1256.68 87.9763 L1223.39 89.6117 L1190.22 92.8787 L1157.25 97.7693 L1124.56 104.272 L1092.23 112.37 L1060.33 122.046 L1028.95 133.275 L998.157 146.03 L968.026 160.28 L938.631 175.992 L910.043 193.128 L882.329 211.645 L855.558 231.5 L829.793 252.645 L805.097 275.028 L781.528 298.597 L759.145 323.293 L738 349.058 L718.145 375.829 L699.628 403.543 L682.492 432.132 L666.78 461.527 L652.53 491.657 L639.775 522.451 L628.546 553.833 L618.87 585.728 L610.772 618.06 L604.269 650.75 L599.379 683.72 L596.112 716.89 L594.476 750.181 L594.476 783.511 L594.476 783.511  Z" fill="#009af9" fill-rule="evenodd" fill-opacity="0.3"/>
<polyline clip-path="url(#clip661)" style="stroke:#000000; stroke-linecap:round; stroke-linejoin:round; stroke-width:4; stroke-opacity:0.3; fill:none" points="594.476,783.511 596.112,816.802 599.379,849.972 604.269,882.942 610.772,915.632 618.87,947.964 628.546,979.859 639.775,1011.24 652.53,1042.03 666.78,1072.17 682.492,1101.56 699.628,1130.15 718.145,1157.86 738,1184.63 759.145,1210.4 781.528,1235.1 805.097,1258.66 829.793,1281.05 855.558,1302.19 882.329,1322.05 910.043,1340.56 938.631,1357.7 968.026,1373.41 998.157,1387.66 1028.95,1400.42 1060.33,1411.65 1092.23,1421.32 1124.56,1429.42 1157.25,1435.92 1190.22,1440.81 1223.39,1444.08 1256.68,1445.72 1290.01,1445.72 1323.3,1444.08 1356.47,1440.81 1389.44,1435.92 1422.13,1429.42 1454.46,1421.32 1486.36,1411.65 1517.74,1400.42 1548.53,1387.66 1578.67,1373.41 1608.06,1357.7 1636.65,1340.56 1664.36,1322.05 1691.13,1302.19 1716.9,1281.05 1741.6,1258.66 1765.16,1235.1 1787.55,1210.4 1808.69,1184.63 1828.55,1157.86 1847.06,1130.15 1864.2,1101.56 1879.91,1072.17 1894.16,1042.03 1906.92,1011.24 1918.15,979.859 1927.82,947.964 1935.92,915.632 1942.42,882.942 1947.31,849.972 1950.58,816.802 1952.22,783.511 1952.22,750.181 1950.58,716.89 1947.31,683.72 1942.42,650.75 1935.92,618.06 1927.82,585.728 1918.15,553.833 1906.92,522.451 1894.16,491.657 1879.91,461.527 1864.2,432.132 1847.06,403.543 1828.55,375.829 1808.69,349.058 1787.55,323.293 1765.16,298.597 1741.6,275.028 1716.9,252.645 1691.13,231.5 1664.36,211.645 1636.65,193.128 1608.06,175.992 1578.67,160.28 1548.53,146.03 1517.74,133.275 1486.36,122.046 1454.46,112.37 1422.13,104.272 1389.44,97.7693 1356.47,92.8787 1323.3,89.6117 1290.01,87.9763 1256.68,87.9763 1223.39,89.6117 1190.22,92.8787 1157.25,97.7693 1124.56,104.272 1092.23,112.37 1060.33,122.046 1028.95,133.275 998.157,146.03 968.026,160.28 938.631,175.992 910.043,193.128 882.329,211.645 855.558,231.5 829.793,252.645 805.097,275.028 781.528,298.597 759.145,323.293 738,349.058 718.145,375.829 699.628,403.543 682.492,432.132 666.78,461.527 652.53,491.657 639.775,522.451 628.546,553.833 618.87,585.728 610.772,618.06 604.269,650.75 599.379,683.72 596.112,716.89 594.476,750.181 594.476,783.511 "/>
<path clip-path="url(#clip661)" d="M594.476 1445.72 L1952.22 1445.72 L1952.22 485.649 L1554.54 87.9763 L594.476 87.9763 L594.476 1445.72 L594.476 1445.72  Z" fill="#ffa500" fill-rule="evenodd" fill-opacity="0.2"/>
<polyline clip-path="url(#clip661)" style="stroke:#000000; stroke-linecap:round; stroke-linejoin:round; stroke-width:4; stroke-opacity:0.2; fill:none" points="594.476,1445.72 1952.22,1445.72 1952.22,485.649 1554.54,87.9763 594.476,87.9763 594.476,1445.72 "/>
</svg>
