<?xml version="1.0" encoding="utf-8"?>
<svg xmlns="http://www.w3.org/2000/svg" xmlns:xlink="http://www.w3.org/1999/xlink" width="600" height="400" viewBox="0 0 2400 1600">
<defs>
  <clipPath id="clip160">
    <rect x="0" y="0" width="2400" height="1600"/>
  </clipPath>
</defs>
<path clip-path="url(#clip160)" d="M0 1600 L2400 1600 L2400 0 L0 0  Z" fill="#ffffff" fill-rule="evenodd" fill-opacity="1"/>
<defs>
  <clipPath id="clip161">
    <rect x="480" y="0" width="1681" height="1600"/>
  </clipPath>
</defs>
<path clip-path="url(#clip160)" d="M193.936 1486.45 L2352.76 1486.45 L2352.76 47.2441 L193.936 47.2441  Z" fill="#ffffff" fill-rule="evenodd" fill-opacity="1"/>
<defs>
  <clipPath id="clip162">
    <rect x="193" y="47" width="2160" height="1440"/>
  </clipPath>
</defs>
<polyline clip-path="url(#clip162)" style="stroke:#000000; stroke-linecap:round; stroke-linejoin:round; stroke-width:2; stroke-opacity:0.1; fill:none" points="345.833,1486.45 345.833,47.2441 "/>
<polyline clip-path="url(#clip162)" style="stroke:#000000; stroke-linecap:round; stroke-linejoin:round; stroke-width:2; stroke-opacity:0.1; fill:none" points="689.848,1486.45 689.848,47.2441 "/>
<polyline clip-path="url(#clip162)" style="stroke:#000000; stroke-linecap:round; stroke-linejoin:round; stroke-width:2; stroke-opacity:0.1; fill:none" points="1033.86,1486.45 1033.86,47.2441 "/>
<polyline clip-path="url(#clip162)" style="stroke:#000000; stroke-linecap:round; stroke-linejoin:round; stroke-width:2; stroke-opacity:0.1; fill:none" points="1377.88,1486.45 1377.88,47.2441 "/>
<polyline clip-path="url(#clip162)" style="stroke:#000000; stroke-linecap:round; stroke-linejoin:round; stroke-width:2; stroke-opacity:0.1; fill:none" points="1721.89,1486.45 1721.89,47.2441 "/>
<polyline clip-path="url(#clip162)" style="stroke:#000000; stroke-linecap:round; stroke-linejoin:round; stroke-width:2; stroke-opacity:0.1; fill:none" points="2065.91,1486.45 2065.91,47.2441 "/>
<polyline clip-path="url(#clip162)" style="stroke:#000000; stroke-linecap:round; stroke-linejoin:round; stroke-width:2; stroke-opacity:0.1; fill:none" points="193.936,1408.38 2352.76,1408.38 "/>
<polyline clip-path="url(#clip162)" style="stroke:#000000; stroke-linecap:round; stroke-linejoin:round; stroke-width:2; stroke-opacity:0.1; fill:none" points="193.936,1160.76 2352.76,1160.76 "/>
<polyline clip-path="url(#clip162)" style="stroke:#000000; stroke-linecap:round; stroke-linejoin:round; stroke-width:2; stroke-opacity:0.1; fill:none" points="193.936,913.134 2352.76,913.134 "/>
<polyline clip-path="url(#clip162)" style="stroke:#000000; stroke-linecap:round; stroke-linejoin:round; stroke-width:2; stroke-opacity:0.1; fill:none" points="193.936,665.509 2352.76,665.509 "/>
<polyline clip-path="url(#clip162)" style="stroke:#000000; stroke-linecap:round; stroke-linejoin:round; stroke-width:2; stroke-opacity:0.1; fill:none" points="193.936,417.884 2352.76,417.884 "/>
<polyline clip-path="url(#clip162)" style="stroke:#000000; stroke-linecap:round; stroke-linejoin:round; stroke-width:2; stroke-opacity:0.1; fill:none" points="193.936,170.259 2352.76,170.259 "/>
<polyline clip-path="url(#clip160)" style="stroke:#000000; stroke-linecap:round; stroke-linejoin:round; stroke-width:4; stroke-opacity:1; fill:none" points="193.936,1486.45 2352.76,1486.45 "/>
<polyline clip-path="url(#clip160)" style="stroke:#000000; stroke-linecap:round; stroke-linejoin:round; stroke-width:4; stroke-opacity:1; fill:none" points="345.833,1486.45 345.833,1467.55 "/>
<polyline clip-path="url(#clip160)" style="stroke:#000000; stroke-linecap:round; stroke-linejoin:round; stroke-width:4; stroke-opacity:1; fill:none" points="689.848,1486.45 689.848,1467.55 "/>
<polyline clip-path="url(#clip160)" style="stroke:#000000; stroke-linecap:round; stroke-linejoin:round; stroke-width:4; stroke-opacity:1; fill:none" points="1033.86,1486.45 1033.86,1467.55 "/>
<polyline clip-path="url(#clip160)" style="stroke:#000000; stroke-linecap:round; stroke-linejoin:round; stroke-width:4; stroke-opacity:1; fill:none" points="1377.88,1486.45 1377.88,1467.55 "/>
<polyline clip-path="url(#clip160)" style="stroke:#000000; stroke-linecap:round; stroke-linejoin:round; stroke-width:4; stroke-opacity:1; fill:none" points="1721.89,1486.45 1721.89,1467.55 "/>
<polyline clip-path="url(#clip160)" style="stroke:#000000; stroke-linecap:round; stroke-linejoin:round; stroke-width:4; stroke-opacity:1; fill:none" points="2065.91,1486.45 2065.91,1467.55 "/>
<path clip-path="url(#clip160)" d="M292.361 1532.02 L322.037 1532.02 L322.037 1535.95 L292.361 1535.95 L292.361 1532.02 Z" fill="#000000" fill-rule="nonzero" fill-opacity="1" /><path clip-path="url(#clip160)" d="M332.939 1544.91 L340.578 1544.91 L340.578 1518.55 L332.268 1520.21 L332.268 1515.95 L340.532 1514.29 L345.208 1514.29 L345.208 1544.91 L352.847 1544.91 L352.847 1548.85 L332.939 1548.85 L332.939 1544.91 Z" fill="#000000" fill-rule="nonzero" fill-opacity="1" /><path clip-path="url(#clip160)" d="M362.291 1542.97 L367.175 1542.97 L367.175 1548.85 L362.291 1548.85 L362.291 1542.97 Z" fill="#000000" fill-rule="nonzero" fill-opacity="1" /><path clip-path="url(#clip160)" d="M387.36 1517.37 Q383.749 1517.37 381.921 1520.93 Q380.115 1524.47 380.115 1531.6 Q380.115 1538.71 381.921 1542.27 Q383.749 1545.82 387.36 1545.82 Q390.995 1545.82 392.8 1542.27 Q394.629 1538.71 394.629 1531.6 Q394.629 1524.47 392.8 1520.93 Q390.995 1517.37 387.36 1517.37 M387.36 1513.66 Q393.17 1513.66 396.226 1518.27 Q399.305 1522.85 399.305 1531.6 Q399.305 1540.33 396.226 1544.94 Q393.17 1549.52 387.36 1549.52 Q381.55 1549.52 378.471 1544.94 Q375.416 1540.33 375.416 1531.6 Q375.416 1522.85 378.471 1518.27 Q381.55 1513.66 387.36 1513.66 Z" fill="#000000" fill-rule="nonzero" fill-opacity="1" /><path clip-path="url(#clip160)" d="M636.874 1532.02 L666.55 1532.02 L666.55 1535.95 L636.874 1535.95 L636.874 1532.02 Z" fill="#000000" fill-rule="nonzero" fill-opacity="1" /><path clip-path="url(#clip160)" d="M686.642 1517.37 Q683.031 1517.37 681.202 1520.93 Q679.397 1524.47 679.397 1531.6 Q679.397 1538.71 681.202 1542.27 Q683.031 1545.82 686.642 1545.82 Q690.276 1545.82 692.082 1542.27 Q693.911 1538.71 693.911 1531.6 Q693.911 1524.47 692.082 1520.93 Q690.276 1517.37 686.642 1517.37 M686.642 1513.66 Q692.452 1513.66 695.508 1518.27 Q698.586 1522.85 698.586 1531.6 Q698.586 1540.33 695.508 1544.94 Q692.452 1549.52 686.642 1549.52 Q680.832 1549.52 677.753 1544.94 Q674.698 1540.33 674.698 1531.6 Q674.698 1522.85 677.753 1518.27 Q680.832 1513.66 686.642 1513.66 Z" fill="#000000" fill-rule="nonzero" fill-opacity="1" /><path clip-path="url(#clip160)" d="M706.804 1542.97 L711.688 1542.97 L711.688 1548.85 L706.804 1548.85 L706.804 1542.97 Z" fill="#000000" fill-rule="nonzero" fill-opacity="1" /><path clip-path="url(#clip160)" d="M721.92 1514.29 L740.276 1514.29 L740.276 1518.22 L726.202 1518.22 L726.202 1526.7 Q727.221 1526.35 728.239 1526.19 Q729.258 1526 730.276 1526 Q736.063 1526 739.443 1529.17 Q742.822 1532.34 742.822 1537.76 Q742.822 1543.34 739.35 1546.44 Q735.878 1549.52 729.559 1549.52 Q727.383 1549.52 725.114 1549.15 Q722.869 1548.78 720.461 1548.04 L720.461 1543.34 Q722.545 1544.47 724.767 1545.03 Q726.989 1545.58 729.466 1545.58 Q733.471 1545.58 735.808 1543.48 Q738.146 1541.37 738.146 1537.76 Q738.146 1534.15 735.808 1532.04 Q733.471 1529.94 729.466 1529.94 Q727.591 1529.94 725.716 1530.35 Q723.864 1530.77 721.92 1531.65 L721.92 1514.29 Z" fill="#000000" fill-rule="nonzero" fill-opacity="1" /><path clip-path="url(#clip160)" d="M1011.25 1517.37 Q1007.64 1517.37 1005.81 1520.93 Q1004 1524.47 1004 1531.6 Q1004 1538.71 1005.81 1542.27 Q1007.64 1545.82 1011.25 1545.82 Q1014.88 1545.82 1016.69 1542.27 Q1018.52 1538.71 1018.52 1531.6 Q1018.52 1524.47 1016.69 1520.93 Q1014.88 1517.37 1011.25 1517.37 M1011.25 1513.66 Q1017.06 1513.66 1020.11 1518.27 Q1023.19 1522.85 1023.19 1531.6 Q1023.19 1540.33 1020.11 1544.94 Q1017.06 1549.52 1011.25 1549.52 Q1005.44 1549.52 1002.36 1544.94 Q999.303 1540.33 999.303 1531.6 Q999.303 1522.85 1002.36 1518.27 Q1005.44 1513.66 1011.25 1513.66 Z" fill="#000000" fill-rule="nonzero" fill-opacity="1" /><path clip-path="url(#clip160)" d="M1031.41 1542.97 L1036.29 1542.97 L1036.29 1548.85 L1031.41 1548.85 L1031.41 1542.97 Z" fill="#000000" fill-rule="nonzero" fill-opacity="1" /><path clip-path="url(#clip160)" d="M1056.48 1517.37 Q1052.87 1517.37 1051.04 1520.93 Q1049.23 1524.47 1049.23 1531.6 Q1049.23 1538.71 1051.04 1542.27 Q1052.87 1545.82 1056.48 1545.82 Q1060.11 1545.82 1061.92 1542.27 Q1063.75 1538.71 1063.75 1531.6 Q1063.75 1524.47 1061.92 1520.93 Q1060.11 1517.37 1056.48 1517.37 M1056.48 1513.66 Q1062.29 1513.66 1065.34 1518.27 Q1068.42 1522.85 1068.42 1531.6 Q1068.42 1540.33 1065.34 1544.94 Q1062.29 1549.52 1056.48 1549.52 Q1050.67 1549.52 1047.59 1544.94 Q1044.53 1540.33 1044.53 1531.6 Q1044.53 1522.85 1047.59 1518.27 Q1050.67 1513.66 1056.48 1513.66 Z" fill="#000000" fill-rule="nonzero" fill-opacity="1" /><path clip-path="url(#clip160)" d="M1355.76 1517.37 Q1352.15 1517.37 1350.32 1520.93 Q1348.52 1524.47 1348.52 1531.6 Q1348.52 1538.71 1350.32 1542.27 Q1352.15 1545.82 1355.76 1545.82 Q1359.4 1545.82 1361.2 1542.27 Q1363.03 1538.71 1363.03 1531.6 Q1363.03 1524.47 1361.2 1520.93 Q1359.4 1517.37 1355.76 1517.37 M1355.76 1513.66 Q1361.57 1513.66 1364.63 1518.27 Q1367.71 1522.85 1367.71 1531.6 Q1367.71 1540.33 1364.63 1544.94 Q1361.57 1549.52 1355.76 1549.52 Q1349.95 1549.52 1346.87 1544.94 Q1343.82 1540.33 1343.82 1531.6 Q1343.82 1522.85 1346.87 1518.27 Q1349.95 1513.66 1355.76 1513.66 Z" fill="#000000" fill-rule="nonzero" fill-opacity="1" /><path clip-path="url(#clip160)" d="M1375.92 1542.97 L1380.81 1542.97 L1380.81 1548.85 L1375.92 1548.85 L1375.92 1542.97 Z" fill="#000000" fill-rule="nonzero" fill-opacity="1" /><path clip-path="url(#clip160)" d="M1391.04 1514.29 L1409.39 1514.29 L1409.39 1518.22 L1395.32 1518.22 L1395.32 1526.7 Q1396.34 1526.35 1397.36 1526.19 Q1398.38 1526 1399.39 1526 Q1405.18 1526 1408.56 1529.17 Q1411.94 1532.34 1411.94 1537.76 Q1411.94 1543.34 1408.47 1546.44 Q1405 1549.52 1398.68 1549.52 Q1396.5 1549.52 1394.23 1549.15 Q1391.99 1548.78 1389.58 1548.04 L1389.58 1543.34 Q1391.66 1544.47 1393.89 1545.03 Q1396.11 1545.58 1398.58 1545.58 Q1402.59 1545.58 1404.93 1543.48 Q1407.27 1541.37 1407.27 1537.76 Q1407.27 1534.15 1404.93 1532.04 Q1402.59 1529.94 1398.58 1529.94 Q1396.71 1529.94 1394.83 1530.35 Q1392.98 1530.77 1391.04 1531.65 L1391.04 1514.29 Z" fill="#000000" fill-rule="nonzero" fill-opacity="1" /><path clip-path="url(#clip160)" d="M1689.05 1544.91 L1696.69 1544.91 L1696.69 1518.55 L1688.38 1520.21 L1688.38 1515.95 L1696.64 1514.29 L1701.32 1514.29 L1701.32 1544.91 L1708.95 1544.91 L1708.95 1548.85 L1689.05 1548.85 L1689.05 1544.91 Z" fill="#000000" fill-rule="nonzero" fill-opacity="1" /><path clip-path="url(#clip160)" d="M1718.4 1542.97 L1723.28 1542.97 L1723.28 1548.85 L1718.4 1548.85 L1718.4 1542.97 Z" fill="#000000" fill-rule="nonzero" fill-opacity="1" /><path clip-path="url(#clip160)" d="M1743.47 1517.37 Q1739.86 1517.37 1738.03 1520.93 Q1736.22 1524.47 1736.22 1531.6 Q1736.22 1538.71 1738.03 1542.27 Q1739.86 1545.82 1743.47 1545.82 Q1747.1 1545.82 1748.91 1542.27 Q1750.74 1538.71 1750.74 1531.6 Q1750.74 1524.47 1748.91 1520.93 Q1747.1 1517.37 1743.47 1517.37 M1743.47 1513.66 Q1749.28 1513.66 1752.33 1518.27 Q1755.41 1522.85 1755.41 1531.6 Q1755.41 1540.33 1752.33 1544.94 Q1749.28 1549.52 1743.47 1549.52 Q1737.66 1549.52 1734.58 1544.94 Q1731.52 1540.33 1731.52 1531.6 Q1731.52 1522.85 1734.58 1518.27 Q1737.66 1513.66 1743.47 1513.66 Z" fill="#000000" fill-rule="nonzero" fill-opacity="1" /><path clip-path="url(#clip160)" d="M2033.56 1544.91 L2041.2 1544.91 L2041.2 1518.55 L2032.89 1520.21 L2032.89 1515.95 L2041.15 1514.29 L2045.83 1514.29 L2045.83 1544.91 L2053.47 1544.91 L2053.47 1548.85 L2033.56 1548.85 L2033.56 1544.91 Z" fill="#000000" fill-rule="nonzero" fill-opacity="1" /><path clip-path="url(#clip160)" d="M2062.91 1542.97 L2067.8 1542.97 L2067.8 1548.85 L2062.91 1548.85 L2062.91 1542.97 Z" fill="#000000" fill-rule="nonzero" fill-opacity="1" /><path clip-path="url(#clip160)" d="M2078.03 1514.29 L2096.38 1514.29 L2096.38 1518.22 L2082.31 1518.22 L2082.31 1526.7 Q2083.33 1526.35 2084.35 1526.19 Q2085.37 1526 2086.38 1526 Q2092.17 1526 2095.55 1529.17 Q2098.93 1532.34 2098.93 1537.76 Q2098.93 1543.34 2095.46 1546.44 Q2091.99 1549.52 2085.67 1549.52 Q2083.49 1549.52 2081.22 1549.15 Q2078.98 1548.78 2076.57 1548.04 L2076.57 1543.34 Q2078.65 1544.47 2080.87 1545.03 Q2083.1 1545.58 2085.57 1545.58 Q2089.58 1545.58 2091.92 1543.48 Q2094.25 1541.37 2094.25 1537.76 Q2094.25 1534.15 2091.92 1532.04 Q2089.58 1529.94 2085.57 1529.94 Q2083.7 1529.94 2081.82 1530.35 Q2079.97 1530.77 2078.03 1531.65 L2078.03 1514.29 Z" fill="#000000" fill-rule="nonzero" fill-opacity="1" /><polyline clip-path="url(#clip160)" style="stroke:#000000; stroke-linecap:round; stroke-linejoin:round; stroke-width:4; stroke-opacity:1; fill:none" points="193.936,1486.45 193.936,47.2441 "/>
<polyline clip-path="url(#clip160)" style="stroke:#000000; stroke-linecap:round; stroke-linejoin:round; stroke-width:4; stroke-opacity:1; fill:none" points="193.936,1408.38 212.834,1408.38 "/>
<polyline clip-path="url(#clip160)" style="stroke:#000000; stroke-linecap:round; stroke-linejoin:round; stroke-width:4; stroke-opacity:1; fill:none" points="193.936,1160.76 212.834,1160.76 "/>
<polyline clip-path="url(#clip160)" style="stroke:#000000; stroke-linecap:round; stroke-linejoin:round; stroke-width:4; stroke-opacity:1; fill:none" points="193.936,913.134 212.834,913.134 "/>
<polyline clip-path="url(#clip160)" style="stroke:#000000; stroke-linecap:round; stroke-linejoin:round; stroke-width:4; stroke-opacity:1; fill:none" points="193.936,665.509 212.834,665.509 "/>
<polyline clip-path="url(#clip160)" style="stroke:#000000; stroke-linecap:round; stroke-linejoin:round; stroke-width:4; stroke-opacity:1; fill:none" points="193.936,417.884 212.834,417.884 "/>
<polyline clip-path="url(#clip160)" style="stroke:#000000; stroke-linecap:round; stroke-linejoin:round; stroke-width:4; stroke-opacity:1; fill:none" points="193.936,170.259 212.834,170.259 "/>
<path clip-path="url(#clip160)" d="M51.9875 1408.84 L81.6633 1408.84 L81.6633 1412.77 L51.9875 1412.77 L51.9875 1408.84 Z" fill="#000000" fill-rule="nonzero" fill-opacity="1" /><path clip-path="url(#clip160)" d="M92.566 1421.73 L100.205 1421.73 L100.205 1395.36 L91.8947 1397.03 L91.8947 1392.77 L100.159 1391.1 L104.834 1391.1 L104.834 1421.73 L112.473 1421.73 L112.473 1425.66 L92.566 1425.66 L92.566 1421.73 Z" fill="#000000" fill-rule="nonzero" fill-opacity="1" /><path clip-path="url(#clip160)" d="M121.918 1419.78 L126.802 1419.78 L126.802 1425.66 L121.918 1425.66 L121.918 1419.78 Z" fill="#000000" fill-rule="nonzero" fill-opacity="1" /><path clip-path="url(#clip160)" d="M137.033 1391.1 L155.39 1391.1 L155.39 1395.04 L141.316 1395.04 L141.316 1403.51 Q142.334 1403.16 143.353 1403 Q144.371 1402.82 145.39 1402.82 Q151.177 1402.82 154.556 1405.99 Q157.936 1409.16 157.936 1414.58 Q157.936 1420.15 154.464 1423.26 Q150.992 1426.34 144.672 1426.34 Q142.496 1426.34 140.228 1425.97 Q137.982 1425.59 135.575 1424.85 L135.575 1420.15 Q137.658 1421.29 139.881 1421.84 Q142.103 1422.4 144.58 1422.4 Q148.584 1422.4 150.922 1420.29 Q153.26 1418.19 153.26 1414.58 Q153.26 1410.97 150.922 1408.86 Q148.584 1406.75 144.58 1406.75 Q142.705 1406.75 140.83 1407.17 Q138.978 1407.59 137.033 1408.47 L137.033 1391.1 Z" fill="#000000" fill-rule="nonzero" fill-opacity="1" /><path clip-path="url(#clip160)" d="M50.9921 1161.21 L80.6679 1161.21 L80.6679 1165.15 L50.9921 1165.15 L50.9921 1161.21 Z" fill="#000000" fill-rule="nonzero" fill-opacity="1" /><path clip-path="url(#clip160)" d="M91.5706 1174.1 L99.2095 1174.1 L99.2095 1147.74 L90.8993 1149.41 L90.8993 1145.15 L99.1632 1143.48 L103.839 1143.48 L103.839 1174.1 L111.478 1174.1 L111.478 1178.04 L91.5706 1178.04 L91.5706 1174.1 Z" fill="#000000" fill-rule="nonzero" fill-opacity="1" /><path clip-path="url(#clip160)" d="M120.922 1172.16 L125.807 1172.16 L125.807 1178.04 L120.922 1178.04 L120.922 1172.16 Z" fill="#000000" fill-rule="nonzero" fill-opacity="1" /><path clip-path="url(#clip160)" d="M145.992 1146.56 Q142.381 1146.56 140.552 1150.12 Q138.746 1153.66 138.746 1160.79 Q138.746 1167.9 140.552 1171.47 Q142.381 1175.01 145.992 1175.01 Q149.626 1175.01 151.431 1171.47 Q153.26 1167.9 153.26 1160.79 Q153.26 1153.66 151.431 1150.12 Q149.626 1146.56 145.992 1146.56 M145.992 1142.85 Q151.802 1142.85 154.857 1147.46 Q157.936 1152.04 157.936 1160.79 Q157.936 1169.52 154.857 1174.13 Q151.802 1178.71 145.992 1178.71 Q140.181 1178.71 137.103 1174.13 Q134.047 1169.52 134.047 1160.79 Q134.047 1152.04 137.103 1147.46 Q140.181 1142.85 145.992 1142.85 Z" fill="#000000" fill-rule="nonzero" fill-opacity="1" /><path clip-path="url(#clip160)" d="M51.9875 913.586 L81.6633 913.586 L81.6633 917.521 L51.9875 917.521 L51.9875 913.586 Z" fill="#000000" fill-rule="nonzero" fill-opacity="1" /><path clip-path="url(#clip160)" d="M101.756 898.933 Q98.1447 898.933 96.316 902.498 Q94.5104 906.039 94.5104 913.169 Q94.5104 920.275 96.316 923.84 Q98.1447 927.382 101.756 927.382 Q105.39 927.382 107.196 923.84 Q109.024 920.275 109.024 913.169 Q109.024 906.039 107.196 902.498 Q105.39 898.933 101.756 898.933 M101.756 895.229 Q107.566 895.229 110.621 899.836 Q113.7 904.419 113.7 913.169 Q113.7 921.896 110.621 926.502 Q107.566 931.086 101.756 931.086 Q95.9456 931.086 92.8669 926.502 Q89.8114 921.896 89.8114 913.169 Q89.8114 904.419 92.8669 899.836 Q95.9456 895.229 101.756 895.229 Z" fill="#000000" fill-rule="nonzero" fill-opacity="1" /><path clip-path="url(#clip160)" d="M121.918 924.535 L126.802 924.535 L126.802 930.414 L121.918 930.414 L121.918 924.535 Z" fill="#000000" fill-rule="nonzero" fill-opacity="1" /><path clip-path="url(#clip160)" d="M137.033 895.854 L155.39 895.854 L155.39 899.789 L141.316 899.789 L141.316 908.262 Q142.334 907.914 143.353 907.752 Q144.371 907.567 145.39 907.567 Q151.177 907.567 154.556 910.738 Q157.936 913.91 157.936 919.326 Q157.936 924.905 154.464 928.007 Q150.992 931.086 144.672 931.086 Q142.496 931.086 140.228 930.715 Q137.982 930.345 135.575 929.604 L135.575 924.905 Q137.658 926.039 139.881 926.595 Q142.103 927.15 144.58 927.15 Q148.584 927.15 150.922 925.044 Q153.26 922.937 153.26 919.326 Q153.26 915.715 150.922 913.609 Q148.584 911.502 144.58 911.502 Q142.705 911.502 140.83 911.919 Q138.978 912.336 137.033 913.215 L137.033 895.854 Z" fill="#000000" fill-rule="nonzero" fill-opacity="1" /><path clip-path="url(#clip160)" d="M100.76 651.308 Q97.1493 651.308 95.3206 654.873 Q93.515 658.414 93.515 665.544 Q93.515 672.65 95.3206 676.215 Q97.1493 679.757 100.76 679.757 Q104.395 679.757 106.2 676.215 Q108.029 672.65 108.029 665.544 Q108.029 658.414 106.2 654.873 Q104.395 651.308 100.76 651.308 M100.76 647.604 Q106.571 647.604 109.626 652.211 Q112.705 656.794 112.705 665.544 Q112.705 674.271 109.626 678.877 Q106.571 683.461 100.76 683.461 Q94.9502 683.461 91.8715 678.877 Q88.816 674.271 88.816 665.544 Q88.816 656.794 91.8715 652.211 Q94.9502 647.604 100.76 647.604 Z" fill="#000000" fill-rule="nonzero" fill-opacity="1" /><path clip-path="url(#clip160)" d="M120.922 676.91 L125.807 676.91 L125.807 682.789 L120.922 682.789 L120.922 676.91 Z" fill="#000000" fill-rule="nonzero" fill-opacity="1" /><path clip-path="url(#clip160)" d="M145.992 651.308 Q142.381 651.308 140.552 654.873 Q138.746 658.414 138.746 665.544 Q138.746 672.65 140.552 676.215 Q142.381 679.757 145.992 679.757 Q149.626 679.757 151.431 676.215 Q153.26 672.65 153.26 665.544 Q153.26 658.414 151.431 654.873 Q149.626 651.308 145.992 651.308 M145.992 647.604 Q151.802 647.604 154.857 652.211 Q157.936 656.794 157.936 665.544 Q157.936 674.271 154.857 678.877 Q151.802 683.461 145.992 683.461 Q140.181 683.461 137.103 678.877 Q134.047 674.271 134.047 665.544 Q134.047 656.794 137.103 652.211 Q140.181 647.604 145.992 647.604 Z" fill="#000000" fill-rule="nonzero" fill-opacity="1" /><path clip-path="url(#clip160)" d="M101.756 403.683 Q98.1447 403.683 96.316 407.248 Q94.5104 410.789 94.5104 417.919 Q94.5104 425.025 96.316 428.59 Q98.1447 432.132 101.756 432.132 Q105.39 432.132 107.196 428.59 Q109.024 425.025 109.024 417.919 Q109.024 410.789 107.196 407.248 Q105.39 403.683 101.756 403.683 M101.756 399.979 Q107.566 399.979 110.621 404.586 Q113.7 409.169 113.7 417.919 Q113.7 426.646 110.621 431.252 Q107.566 435.836 101.756 435.836 Q95.9456 435.836 92.8669 431.252 Q89.8114 426.646 89.8114 417.919 Q89.8114 409.169 92.8669 404.586 Q95.9456 399.979 101.756 399.979 Z" fill="#000000" fill-rule="nonzero" fill-opacity="1" /><path clip-path="url(#clip160)" d="M121.918 429.285 L126.802 429.285 L126.802 435.164 L121.918 435.164 L121.918 429.285 Z" fill="#000000" fill-rule="nonzero" fill-opacity="1" /><path clip-path="url(#clip160)" d="M137.033 400.604 L155.39 400.604 L155.39 404.539 L141.316 404.539 L141.316 413.012 Q142.334 412.664 143.353 412.502 Q144.371 412.317 145.39 412.317 Q151.177 412.317 154.556 415.488 Q157.936 418.66 157.936 424.076 Q157.936 429.655 154.464 432.757 Q150.992 435.836 144.672 435.836 Q142.496 435.836 140.228 435.465 Q137.982 435.095 135.575 434.354 L135.575 429.655 Q137.658 430.789 139.881 431.345 Q142.103 431.9 144.58 431.9 Q148.584 431.9 150.922 429.794 Q153.26 427.687 153.26 424.076 Q153.26 420.465 150.922 418.359 Q148.584 416.252 144.58 416.252 Q142.705 416.252 140.83 416.669 Q138.978 417.086 137.033 417.965 L137.033 400.604 Z" fill="#000000" fill-rule="nonzero" fill-opacity="1" /><path clip-path="url(#clip160)" d="M91.5706 183.604 L99.2095 183.604 L99.2095 157.238 L90.8993 158.905 L90.8993 154.646 L99.1632 152.979 L103.839 152.979 L103.839 183.604 L111.478 183.604 L111.478 187.539 L91.5706 187.539 L91.5706 183.604 Z" fill="#000000" fill-rule="nonzero" fill-opacity="1" /><path clip-path="url(#clip160)" d="M120.922 181.66 L125.807 181.66 L125.807 187.539 L120.922 187.539 L120.922 181.66 Z" fill="#000000" fill-rule="nonzero" fill-opacity="1" /><path clip-path="url(#clip160)" d="M145.992 156.058 Q142.381 156.058 140.552 159.623 Q138.746 163.164 138.746 170.294 Q138.746 177.4 140.552 180.965 Q142.381 184.507 145.992 184.507 Q149.626 184.507 151.431 180.965 Q153.26 177.4 153.26 170.294 Q153.26 163.164 151.431 159.623 Q149.626 156.058 145.992 156.058 M145.992 152.354 Q151.802 152.354 154.857 156.961 Q157.936 161.544 157.936 170.294 Q157.936 179.021 154.857 183.627 Q151.802 188.211 145.992 188.211 Q140.181 188.211 137.103 183.627 Q134.047 179.021 134.047 170.294 Q134.047 161.544 137.103 156.961 Q140.181 152.354 145.992 152.354 Z" fill="#000000" fill-rule="nonzero" fill-opacity="1" /><circle clip-path="url(#clip162)" cx="602.737" cy="700.038" r="14.4" fill="#009af9" fill-rule="evenodd" fill-opacity="0.5" stroke="#000000" stroke-opacity="0.5" stroke-width="3.2"/>
<circle clip-path="url(#clip162)" cx="2206.92" cy="606.877" r="14.4" fill="#009af9" fill-rule="evenodd" fill-opacity="0.5" stroke="#000000" stroke-opacity="0.5" stroke-width="3.2"/>
<circle clip-path="url(#clip162)" cx="1334.09" cy="768.019" r="14.4" fill="#009af9" fill-rule="evenodd" fill-opacity="0.5" stroke="#000000" stroke-opacity="0.5" stroke-width="3.2"/>
<circle clip-path="url(#clip162)" cx="255.035" cy="1283.83" r="14.4" fill="#009af9" fill-rule="evenodd" fill-opacity="0.5" stroke="#000000" stroke-opacity="0.5" stroke-width="3.2"/>
<circle clip-path="url(#clip162)" cx="921.352" cy="1287.95" r="14.4" fill="#009af9" fill-rule="evenodd" fill-opacity="0.5" stroke="#000000" stroke-opacity="0.5" stroke-width="3.2"/>
<circle clip-path="url(#clip162)" cx="1130.8" cy="945.819" r="14.4" fill="#009af9" fill-rule="evenodd" fill-opacity="0.5" stroke="#000000" stroke-opacity="0.5" stroke-width="3.2"/>
<circle clip-path="url(#clip162)" cx="2291.66" cy="396.994" r="14.4" fill="#009af9" fill-rule="evenodd" fill-opacity="0.5" stroke="#000000" stroke-opacity="0.5" stroke-width="3.2"/>
<circle clip-path="url(#clip162)" cx="1597.88" cy="475.603" r="14.4" fill="#009af9" fill-rule="evenodd" fill-opacity="0.5" stroke="#000000" stroke-opacity="0.5" stroke-width="3.2"/>
<circle clip-path="url(#clip162)" cx="2005.47" cy="357.758" r="14.4" fill="#009af9" fill-rule="evenodd" fill-opacity="0.5" stroke="#000000" stroke-opacity="0.5" stroke-width="3.2"/>
<circle clip-path="url(#clip162)" cx="1111.59" cy="689.587" r="14.4" fill="#009af9" fill-rule="evenodd" fill-opacity="0.5" stroke="#000000" stroke-opacity="0.5" stroke-width="3.2"/>
<circle clip-path="url(#clip162)" cx="1301.44" cy="855.211" r="14.4" fill="#009af9" fill-rule="evenodd" fill-opacity="0.5" stroke="#000000" stroke-opacity="0.5" stroke-width="3.2"/>
<circle clip-path="url(#clip162)" cx="722.234" cy="748.039" r="14.4" fill="#009af9" fill-rule="evenodd" fill-opacity="0.5" stroke="#000000" stroke-opacity="0.5" stroke-width="3.2"/>
<circle clip-path="url(#clip162)" cx="1340.15" cy="758.409" r="14.4" fill="#009af9" fill-rule="evenodd" fill-opacity="0.5" stroke="#000000" stroke-opacity="0.5" stroke-width="3.2"/>
<circle clip-path="url(#clip162)" cx="1468.57" cy="92.5411" r="14.4" fill="#009af9" fill-rule="evenodd" fill-opacity="0.5" stroke="#000000" stroke-opacity="0.5" stroke-width="3.2"/>
<circle clip-path="url(#clip162)" cx="1018.19" cy="973.121" r="14.4" fill="#009af9" fill-rule="evenodd" fill-opacity="0.5" stroke="#000000" stroke-opacity="0.5" stroke-width="3.2"/>
<circle clip-path="url(#clip162)" cx="660.848" cy="396.472" r="14.4" fill="#009af9" fill-rule="evenodd" fill-opacity="0.5" stroke="#000000" stroke-opacity="0.5" stroke-width="3.2"/>
<circle clip-path="url(#clip162)" cx="1278.25" cy="494.492" r="14.4" fill="#009af9" fill-rule="evenodd" fill-opacity="0.5" stroke="#000000" stroke-opacity="0.5" stroke-width="3.2"/>
<circle clip-path="url(#clip162)" cx="2042.9" cy="113.527" r="14.4" fill="#009af9" fill-rule="evenodd" fill-opacity="0.5" stroke="#000000" stroke-opacity="0.5" stroke-width="3.2"/>
<circle clip-path="url(#clip162)" cx="1500.69" cy="1445.72" r="14.4" fill="#009af9" fill-rule="evenodd" fill-opacity="0.5" stroke="#000000" stroke-opacity="0.5" stroke-width="3.2"/>
<circle clip-path="url(#clip162)" cx="1689.19" cy="1225.16" r="14.4" fill="#009af9" fill-rule="evenodd" fill-opacity="0.5" stroke="#000000" stroke-opacity="0.5" stroke-width="3.2"/>
<circle clip-path="url(#clip162)" cx="1318.96" cy="638.227" r="14.4" fill="#009af9" fill-rule="evenodd" fill-opacity="0.5" stroke="#000000" stroke-opacity="0.5" stroke-width="3.2"/>
<circle clip-path="url(#clip162)" cx="2060.69" cy="212.565" r="14.4" fill="#009af9" fill-rule="evenodd" fill-opacity="0.5" stroke="#000000" stroke-opacity="0.5" stroke-width="3.2"/>
<circle clip-path="url(#clip162)" cx="850.731" cy="770.678" r="14.4" fill="#009af9" fill-rule="evenodd" fill-opacity="0.5" stroke="#000000" stroke-opacity="0.5" stroke-width="3.2"/>
<circle clip-path="url(#clip162)" cx="1570.36" cy="649.685" r="14.4" fill="#009af9" fill-rule="evenodd" fill-opacity="0.5" stroke="#000000" stroke-opacity="0.5" stroke-width="3.2"/>
<circle clip-path="url(#clip162)" cx="635.167" cy="852.644" r="14.4" fill="#009af9" fill-rule="evenodd" fill-opacity="0.5" stroke="#000000" stroke-opacity="0.5" stroke-width="3.2"/>
<circle clip-path="url(#clip162)" cx="727.047" cy="87.9763" r="14.4" fill="#009af9" fill-rule="evenodd" fill-opacity="0.5" stroke="#000000" stroke-opacity="0.5" stroke-width="3.2"/>
<circle clip-path="url(#clip162)" cx="1272.15" cy="397.614" r="14.4" fill="#009af9" fill-rule="evenodd" fill-opacity="0.5" stroke="#000000" stroke-opacity="0.5" stroke-width="3.2"/>
<circle clip-path="url(#clip162)" cx="658.279" cy="396.356" r="14.4" fill="#009af9" fill-rule="evenodd" fill-opacity="0.5" stroke="#000000" stroke-opacity="0.5" stroke-width="3.2"/>
<circle clip-path="url(#clip162)" cx="1705.21" cy="998.332" r="14.4" fill="#009af9" fill-rule="evenodd" fill-opacity="0.5" stroke="#000000" stroke-opacity="0.5" stroke-width="3.2"/>
<circle clip-path="url(#clip162)" cx="877.146" cy="1230.04" r="14.4" fill="#009af9" fill-rule="evenodd" fill-opacity="0.5" stroke="#000000" stroke-opacity="0.5" stroke-width="3.2"/>
<path clip-path="url(#clip162)" d="M255.035 1283.83 L1500.69 1445.72 L1689.19 1225.16 L2206.92 606.877 L2291.66 396.994 L2042.9 113.527 L1468.57 92.5411 L727.047 87.9763 L255.035 1283.83 L255.035 1283.83  Z" fill="#e26f46" fill-rule="evenodd" fill-opacity="0.2"/>
<polyline clip-path="url(#clip162)" style="stroke:#000000; stroke-linecap:round; stroke-linejoin:round; stroke-width:4; stroke-opacity:0.2; fill:none" points="255.035,1283.83 1500.69,1445.72 1689.19,1225.16 2206.92,606.877 2291.66,396.994 2042.9,113.527 1468.57,92.5411 727.047,87.9763 255.035,1283.83 "/>
</svg>
