<?xml version="1.0" encoding="utf-8"?>
<svg xmlns="http://www.w3.org/2000/svg" xmlns:xlink="http://www.w3.org/1999/xlink" width="600" height="400" viewBox="0 0 2400 1600">
<defs>
  <clipPath id="clip840">
    <rect x="0" y="0" width="2400" height="1600"/>
  </clipPath>
</defs>
<path clip-path="url(#clip840)" d="M0 1600 L2400 1600 L2400 0 L0 0  Z" fill="#ffffff" fill-rule="evenodd" fill-opacity="1"/>
<defs>
  <clipPath id="clip841">
    <rect x="480" y="0" width="1681" height="1600"/>
  </clipPath>
</defs>
<path clip-path="url(#clip840)" d="M147.478 1486.45 L2352.76 1486.45 L2352.76 47.2441 L147.478 47.2441  Z" fill="#ffffff" fill-rule="evenodd" fill-opacity="1"/>
<defs>
  <clipPath id="clip842">
    <rect x="147" y="47" width="2206" height="1440"/>
  </clipPath>
</defs>
<polyline clip-path="url(#clip842)" style="stroke:#000000; stroke-linecap:round; stroke-linejoin:round; stroke-width:2; stroke-opacity:0.1; fill:none" points="184.437,1486.45 184.437,47.2441 "/>
<polyline clip-path="url(#clip842)" style="stroke:#000000; stroke-linecap:round; stroke-linejoin:round; stroke-width:2; stroke-opacity:0.1; fill:none" points="634.815,1486.45 634.815,47.2441 "/>
<polyline clip-path="url(#clip842)" style="stroke:#000000; stroke-linecap:round; stroke-linejoin:round; stroke-width:2; stroke-opacity:0.1; fill:none" points="1085.19,1486.45 1085.19,47.2441 "/>
<polyline clip-path="url(#clip842)" style="stroke:#000000; stroke-linecap:round; stroke-linejoin:round; stroke-width:2; stroke-opacity:0.1; fill:none" points="1535.57,1486.45 1535.57,47.2441 "/>
<polyline clip-path="url(#clip842)" style="stroke:#000000; stroke-linecap:round; stroke-linejoin:round; stroke-width:2; stroke-opacity:0.1; fill:none" points="1985.95,1486.45 1985.95,47.2441 "/>
<polyline clip-path="url(#clip842)" style="stroke:#000000; stroke-linecap:round; stroke-linejoin:round; stroke-width:2; stroke-opacity:0.1; fill:none" points="147.478,1197.96 2352.76,1197.96 "/>
<polyline clip-path="url(#clip842)" style="stroke:#000000; stroke-linecap:round; stroke-linejoin:round; stroke-width:2; stroke-opacity:0.1; fill:none" points="147.478,892.407 2352.76,892.407 "/>
<polyline clip-path="url(#clip842)" style="stroke:#000000; stroke-linecap:round; stroke-linejoin:round; stroke-width:2; stroke-opacity:0.1; fill:none" points="147.478,586.855 2352.76,586.855 "/>
<polyline clip-path="url(#clip842)" style="stroke:#000000; stroke-linecap:round; stroke-linejoin:round; stroke-width:2; stroke-opacity:0.1; fill:none" points="147.478,281.303 2352.76,281.303 "/>
<polyline clip-path="url(#clip840)" style="stroke:#000000; stroke-linecap:round; stroke-linejoin:round; stroke-width:4; stroke-opacity:1; fill:none" points="147.478,1486.45 2352.76,1486.45 "/>
<polyline clip-path="url(#clip840)" style="stroke:#000000; stroke-linecap:round; stroke-linejoin:round; stroke-width:4; stroke-opacity:1; fill:none" points="184.437,1486.45 184.437,1467.55 "/>
<polyline clip-path="url(#clip840)" style="stroke:#000000; stroke-linecap:round; stroke-linejoin:round; stroke-width:4; stroke-opacity:1; fill:none" points="634.815,1486.45 634.815,1467.55 "/>
<polyline clip-path="url(#clip840)" style="stroke:#000000; stroke-linecap:round; stroke-linejoin:round; stroke-width:4; stroke-opacity:1; fill:none" points="1085.19,1486.45 1085.19,1467.55 "/>
<polyline clip-path="url(#clip840)" style="stroke:#000000; stroke-linecap:round; stroke-linejoin:round; stroke-width:4; stroke-opacity:1; fill:none" points="1535.57,1486.45 1535.57,1467.55 "/>
<polyline clip-path="url(#clip840)" style="stroke:#000000; stroke-linecap:round; stroke-linejoin:round; stroke-width:4; stroke-opacity:1; fill:none" points="1985.95,1486.45 1985.95,1467.55 "/>
<path clip-path="url(#clip840)" d="M153.905 1532.02 L183.581 1532.02 L183.581 1535.95 L153.905 1535.95 L153.905 1532.02 Z" fill="#000000" fill-rule="nonzero" fill-opacity="1" /><path clip-path="url(#clip840)" d="M207.84 1530.21 Q211.196 1530.93 213.071 1533.2 Q214.969 1535.47 214.969 1538.8 Q214.969 1543.92 211.451 1546.72 Q207.932 1549.52 201.451 1549.52 Q199.275 1549.52 196.96 1549.08 Q194.669 1548.66 192.215 1547.81 L192.215 1543.29 Q194.159 1544.43 196.474 1545.01 Q198.789 1545.58 201.312 1545.58 Q205.71 1545.58 208.002 1543.85 Q210.317 1542.11 210.317 1538.8 Q210.317 1535.75 208.164 1534.03 Q206.034 1532.3 202.215 1532.3 L198.187 1532.3 L198.187 1528.45 L202.4 1528.45 Q205.849 1528.45 207.678 1527.09 Q209.507 1525.7 209.507 1523.11 Q209.507 1520.45 207.608 1519.03 Q205.733 1517.6 202.215 1517.6 Q200.294 1517.6 198.095 1518.01 Q195.896 1518.43 193.257 1519.31 L193.257 1515.14 Q195.919 1514.4 198.233 1514.03 Q200.571 1513.66 202.632 1513.66 Q207.956 1513.66 211.057 1516.09 Q214.159 1518.5 214.159 1522.62 Q214.159 1525.49 212.516 1527.48 Q210.872 1529.45 207.84 1530.21 Z" fill="#000000" fill-rule="nonzero" fill-opacity="1" /><path clip-path="url(#clip840)" d="M604.758 1532.02 L634.434 1532.02 L634.434 1535.95 L604.758 1535.95 L604.758 1532.02 Z" fill="#000000" fill-rule="nonzero" fill-opacity="1" /><path clip-path="url(#clip840)" d="M648.554 1544.91 L664.873 1544.91 L664.873 1548.85 L642.929 1548.85 L642.929 1544.91 Q645.591 1542.16 650.174 1537.53 Q654.781 1532.88 655.961 1531.53 Q658.207 1529.01 659.086 1527.27 Q659.989 1525.51 659.989 1523.82 Q659.989 1521.07 658.044 1519.33 Q656.123 1517.6 653.021 1517.6 Q650.822 1517.6 648.369 1518.36 Q645.938 1519.13 643.16 1520.68 L643.16 1515.95 Q645.984 1514.82 648.438 1514.24 Q650.892 1513.66 652.929 1513.66 Q658.299 1513.66 661.494 1516.35 Q664.688 1519.03 664.688 1523.52 Q664.688 1525.65 663.878 1527.57 Q663.091 1529.47 660.984 1532.07 Q660.406 1532.74 657.304 1535.95 Q654.202 1539.15 648.554 1544.91 Z" fill="#000000" fill-rule="nonzero" fill-opacity="1" /><path clip-path="url(#clip840)" d="M1054.95 1532.02 L1084.63 1532.02 L1084.63 1535.95 L1054.95 1535.95 L1054.95 1532.02 Z" fill="#000000" fill-rule="nonzero" fill-opacity="1" /><path clip-path="url(#clip840)" d="M1095.53 1544.91 L1103.17 1544.91 L1103.17 1518.55 L1094.86 1520.21 L1094.86 1515.95 L1103.12 1514.29 L1107.8 1514.29 L1107.8 1544.91 L1115.44 1544.91 L1115.44 1548.85 L1095.53 1548.85 L1095.53 1544.91 Z" fill="#000000" fill-rule="nonzero" fill-opacity="1" /><path clip-path="url(#clip840)" d="M1535.57 1517.37 Q1531.96 1517.37 1530.13 1520.93 Q1528.33 1524.47 1528.33 1531.6 Q1528.33 1538.71 1530.13 1542.27 Q1531.96 1545.82 1535.57 1545.82 Q1539.21 1545.82 1541.01 1542.27 Q1542.84 1538.71 1542.84 1531.6 Q1542.84 1524.47 1541.01 1520.93 Q1539.21 1517.37 1535.57 1517.37 M1535.57 1513.66 Q1541.38 1513.66 1544.44 1518.27 Q1547.52 1522.85 1547.52 1531.6 Q1547.52 1540.33 1544.44 1544.94 Q1541.38 1549.52 1535.57 1549.52 Q1529.76 1549.52 1526.68 1544.94 Q1523.63 1540.33 1523.63 1531.6 Q1523.63 1522.85 1526.68 1518.27 Q1529.76 1513.66 1535.57 1513.66 Z" fill="#000000" fill-rule="nonzero" fill-opacity="1" /><path clip-path="url(#clip840)" d="M1976.33 1544.91 L1983.97 1544.91 L1983.97 1518.55 L1975.66 1520.21 L1975.66 1515.95 L1983.92 1514.29 L1988.6 1514.29 L1988.6 1544.91 L1996.24 1544.91 L1996.24 1548.85 L1976.33 1548.85 L1976.33 1544.91 Z" fill="#000000" fill-rule="nonzero" fill-opacity="1" /><polyline clip-path="url(#clip840)" style="stroke:#000000; stroke-linecap:round; stroke-linejoin:round; stroke-width:4; stroke-opacity:1; fill:none" points="147.478,1486.45 147.478,47.2441 "/>
<polyline clip-path="url(#clip840)" style="stroke:#000000; stroke-linecap:round; stroke-linejoin:round; stroke-width:4; stroke-opacity:1; fill:none" points="147.478,1197.96 166.376,1197.96 "/>
<polyline clip-path="url(#clip840)" style="stroke:#000000; stroke-linecap:round; stroke-linejoin:round; stroke-width:4; stroke-opacity:1; fill:none" points="147.478,892.407 166.376,892.407 "/>
<polyline clip-path="url(#clip840)" style="stroke:#000000; stroke-linecap:round; stroke-linejoin:round; stroke-width:4; stroke-opacity:1; fill:none" points="147.478,586.855 166.376,586.855 "/>
<polyline clip-path="url(#clip840)" style="stroke:#000000; stroke-linecap:round; stroke-linejoin:round; stroke-width:4; stroke-opacity:1; fill:none" points="147.478,281.303 166.376,281.303 "/>
<path clip-path="url(#clip840)" d="M50.9921 1198.41 L80.6679 1198.41 L80.6679 1202.35 L50.9921 1202.35 L50.9921 1198.41 Z" fill="#000000" fill-rule="nonzero" fill-opacity="1" /><path clip-path="url(#clip840)" d="M91.5706 1211.3 L99.2095 1211.3 L99.2095 1184.94 L90.8993 1186.6 L90.8993 1182.35 L99.1632 1180.68 L103.839 1180.68 L103.839 1211.3 L111.478 1211.3 L111.478 1215.24 L91.5706 1215.24 L91.5706 1211.3 Z" fill="#000000" fill-rule="nonzero" fill-opacity="1" /><path clip-path="url(#clip840)" d="M99.5335 878.205 Q95.9224 878.205 94.0937 881.77 Q92.2882 885.312 92.2882 892.441 Q92.2882 899.548 94.0937 903.113 Q95.9224 906.654 99.5335 906.654 Q103.168 906.654 104.973 903.113 Q106.802 899.548 106.802 892.441 Q106.802 885.312 104.973 881.77 Q103.168 878.205 99.5335 878.205 M99.5335 874.502 Q105.344 874.502 108.399 879.108 Q111.478 883.691 111.478 892.441 Q111.478 901.168 108.399 905.775 Q105.344 910.358 99.5335 910.358 Q93.7234 910.358 90.6447 905.775 Q87.5892 901.168 87.5892 892.441 Q87.5892 883.691 90.6447 879.108 Q93.7234 874.502 99.5335 874.502 Z" fill="#000000" fill-rule="nonzero" fill-opacity="1" /><path clip-path="url(#clip840)" d="M91.5706 600.199 L99.2095 600.199 L99.2095 573.834 L90.8993 575.5 L90.8993 571.241 L99.1632 569.575 L103.839 569.575 L103.839 600.199 L111.478 600.199 L111.478 604.135 L91.5706 604.135 L91.5706 600.199 Z" fill="#000000" fill-rule="nonzero" fill-opacity="1" /><path clip-path="url(#clip840)" d="M95.1586 294.647 L111.478 294.647 L111.478 298.583 L89.5336 298.583 L89.5336 294.647 Q92.1956 291.893 96.7789 287.263 Q101.385 282.61 102.566 281.268 Q104.811 278.745 105.691 277.009 Q106.594 275.249 106.594 273.56 Q106.594 270.805 104.649 269.069 Q102.728 267.333 99.6261 267.333 Q97.4271 267.333 94.9734 268.097 Q92.5428 268.86 89.7651 270.411 L89.7651 265.689 Q92.5891 264.555 95.0428 263.976 Q97.4965 263.398 99.5335 263.398 Q104.904 263.398 108.098 266.083 Q111.293 268.768 111.293 273.259 Q111.293 275.388 110.483 277.31 Q109.696 279.208 107.589 281.8 Q107.01 282.472 103.909 285.689 Q100.807 288.884 95.1586 294.647 Z" fill="#000000" fill-rule="nonzero" fill-opacity="1" /><circle clip-path="url(#clip842)" cx="966.484" cy="1038.73" r="14.4" fill="#009af9" fill-rule="evenodd" fill-opacity="0.5" stroke="#000000" stroke-opacity="0.5" stroke-width="3.2"/>
<circle clip-path="url(#clip842)" cx="892.972" cy="479.175" r="14.4" fill="#009af9" fill-rule="evenodd" fill-opacity="0.5" stroke="#000000" stroke-opacity="0.5" stroke-width="3.2"/>
<circle clip-path="url(#clip842)" cx="1478.02" cy="1072.22" r="14.4" fill="#009af9" fill-rule="evenodd" fill-opacity="0.5" stroke="#000000" stroke-opacity="0.5" stroke-width="3.2"/>
<circle clip-path="url(#clip842)" cx="1851.59" cy="500.349" r="14.4" fill="#009af9" fill-rule="evenodd" fill-opacity="0.5" stroke="#000000" stroke-opacity="0.5" stroke-width="3.2"/>
<circle clip-path="url(#clip842)" cx="2290.34" cy="856.257" r="14.4" fill="#009af9" fill-rule="evenodd" fill-opacity="0.5" stroke="#000000" stroke-opacity="0.5" stroke-width="3.2"/>
<circle clip-path="url(#clip842)" cx="1744.63" cy="1302.24" r="14.4" fill="#009af9" fill-rule="evenodd" fill-opacity="0.5" stroke="#000000" stroke-opacity="0.5" stroke-width="3.2"/>
<circle clip-path="url(#clip842)" cx="1745.43" cy="1445.72" r="14.4" fill="#009af9" fill-rule="evenodd" fill-opacity="0.5" stroke="#000000" stroke-opacity="0.5" stroke-width="3.2"/>
<circle clip-path="url(#clip842)" cx="1092.08" cy="1032.6" r="14.4" fill="#009af9" fill-rule="evenodd" fill-opacity="0.5" stroke="#000000" stroke-opacity="0.5" stroke-width="3.2"/>
<circle clip-path="url(#clip842)" cx="1744.71" cy="422.684" r="14.4" fill="#009af9" fill-rule="evenodd" fill-opacity="0.5" stroke="#000000" stroke-opacity="0.5" stroke-width="3.2"/>
<circle clip-path="url(#clip842)" cx="1883.1" cy="87.9763" r="14.4" fill="#009af9" fill-rule="evenodd" fill-opacity="0.5" stroke="#000000" stroke-opacity="0.5" stroke-width="3.2"/>
<circle clip-path="url(#clip842)" cx="1574.96" cy="648.127" r="14.4" fill="#009af9" fill-rule="evenodd" fill-opacity="0.5" stroke="#000000" stroke-opacity="0.5" stroke-width="3.2"/>
<circle clip-path="url(#clip842)" cx="1682.67" cy="668.341" r="14.4" fill="#009af9" fill-rule="evenodd" fill-opacity="0.5" stroke="#000000" stroke-opacity="0.5" stroke-width="3.2"/>
<circle clip-path="url(#clip842)" cx="1421.32" cy="465.925" r="14.4" fill="#009af9" fill-rule="evenodd" fill-opacity="0.5" stroke="#000000" stroke-opacity="0.5" stroke-width="3.2"/>
<circle clip-path="url(#clip842)" cx="626.457" cy="1249.46" r="14.4" fill="#009af9" fill-rule="evenodd" fill-opacity="0.5" stroke="#000000" stroke-opacity="0.5" stroke-width="3.2"/>
<circle clip-path="url(#clip842)" cx="1375.72" cy="1045.57" r="14.4" fill="#009af9" fill-rule="evenodd" fill-opacity="0.5" stroke="#000000" stroke-opacity="0.5" stroke-width="3.2"/>
<circle clip-path="url(#clip842)" cx="1004.21" cy="547.954" r="14.4" fill="#009af9" fill-rule="evenodd" fill-opacity="0.5" stroke="#000000" stroke-opacity="0.5" stroke-width="3.2"/>
<circle clip-path="url(#clip842)" cx="2063.38" cy="537.451" r="14.4" fill="#009af9" fill-rule="evenodd" fill-opacity="0.5" stroke="#000000" stroke-opacity="0.5" stroke-width="3.2"/>
<circle clip-path="url(#clip842)" cx="1837.94" cy="505.647" r="14.4" fill="#009af9" fill-rule="evenodd" fill-opacity="0.5" stroke="#000000" stroke-opacity="0.5" stroke-width="3.2"/>
<circle clip-path="url(#clip842)" cx="1397.15" cy="944.081" r="14.4" fill="#009af9" fill-rule="evenodd" fill-opacity="0.5" stroke="#000000" stroke-opacity="0.5" stroke-width="3.2"/>
<circle clip-path="url(#clip842)" cx="1449.87" cy="807.164" r="14.4" fill="#009af9" fill-rule="evenodd" fill-opacity="0.5" stroke="#000000" stroke-opacity="0.5" stroke-width="3.2"/>
<circle clip-path="url(#clip842)" cx="1611.9" cy="816.247" r="14.4" fill="#009af9" fill-rule="evenodd" fill-opacity="0.5" stroke="#000000" stroke-opacity="0.5" stroke-width="3.2"/>
<circle clip-path="url(#clip842)" cx="2056.69" cy="1013.76" r="14.4" fill="#009af9" fill-rule="evenodd" fill-opacity="0.5" stroke="#000000" stroke-opacity="0.5" stroke-width="3.2"/>
<circle clip-path="url(#clip842)" cx="2217.14" cy="646.758" r="14.4" fill="#009af9" fill-rule="evenodd" fill-opacity="0.5" stroke="#000000" stroke-opacity="0.5" stroke-width="3.2"/>
<circle clip-path="url(#clip842)" cx="209.891" cy="510.699" r="14.4" fill="#009af9" fill-rule="evenodd" fill-opacity="0.5" stroke="#000000" stroke-opacity="0.5" stroke-width="3.2"/>
<circle clip-path="url(#clip842)" cx="1251.78" cy="786.436" r="14.4" fill="#009af9" fill-rule="evenodd" fill-opacity="0.5" stroke="#000000" stroke-opacity="0.5" stroke-width="3.2"/>
<circle clip-path="url(#clip842)" cx="653.529" cy="436.568" r="14.4" fill="#009af9" fill-rule="evenodd" fill-opacity="0.5" stroke="#000000" stroke-opacity="0.5" stroke-width="3.2"/>
<circle clip-path="url(#clip842)" cx="1945.23" cy="1027.12" r="14.4" fill="#009af9" fill-rule="evenodd" fill-opacity="0.5" stroke="#000000" stroke-opacity="0.5" stroke-width="3.2"/>
<circle clip-path="url(#clip842)" cx="839.704" cy="1045.26" r="14.4" fill="#009af9" fill-rule="evenodd" fill-opacity="0.5" stroke="#000000" stroke-opacity="0.5" stroke-width="3.2"/>
<circle clip-path="url(#clip842)" cx="1181.68" cy="90.3989" r="14.4" fill="#009af9" fill-rule="evenodd" fill-opacity="0.5" stroke="#000000" stroke-opacity="0.5" stroke-width="3.2"/>
<circle clip-path="url(#clip842)" cx="1426.97" cy="905.073" r="14.4" fill="#009af9" fill-rule="evenodd" fill-opacity="0.5" stroke="#000000" stroke-opacity="0.5" stroke-width="3.2"/>
<path clip-path="url(#clip842)" d="M209.891 510.699 L626.457 1249.46 L1745.43 1445.72 L2290.34 856.257 L2217.14 646.758 L1883.1 87.9763 L1181.68 90.3989 L209.891 510.699 L209.891 510.699  Z" fill="#e26f46" fill-rule="evenodd" fill-opacity="0.2"/>
<polyline clip-path="url(#clip842)" style="stroke:#000000; stroke-linecap:round; stroke-linejoin:round; stroke-width:4; stroke-opacity:0.2; fill:none" points="209.891,510.699 626.457,1249.46 1745.43,1445.72 2290.34,856.257 2217.14,646.758 1883.1,87.9763 1181.68,90.3989 209.891,510.699 "/>
</svg>
