<?xml version="1.0" encoding="utf-8"?>
<svg xmlns="http://www.w3.org/2000/svg" xmlns:xlink="http://www.w3.org/1999/xlink" width="600" height="400" viewBox="0 0 2400 1600">
<defs>
  <clipPath id="clip570">
    <rect x="0" y="0" width="2400" height="1600"/>
  </clipPath>
</defs>
<path clip-path="url(#clip570)" d="M0 1600 L2400 1600 L2400 0 L0 0  Z" fill="#ffffff" fill-rule="evenodd" fill-opacity="1"/>
<defs>
  <clipPath id="clip571">
    <rect x="480" y="0" width="1681" height="1600"/>
  </clipPath>
</defs>
<path clip-path="url(#clip570)" d="M193.936 1486.45 L2352.76 1486.45 L2352.76 47.2441 L193.936 47.2441  Z" fill="#ffffff" fill-rule="evenodd" fill-opacity="1"/>
<defs>
  <clipPath id="clip572">
    <rect x="193" y="47" width="2160" height="1440"/>
  </clipPath>
</defs>
<polyline clip-path="url(#clip572)" style="stroke:#000000; stroke-linecap:round; stroke-linejoin:round; stroke-width:2; stroke-opacity:0.1; fill:none" points="551.104,1486.45 551.104,47.2441 "/>
<polyline clip-path="url(#clip572)" style="stroke:#000000; stroke-linecap:round; stroke-linejoin:round; stroke-width:2; stroke-opacity:0.1; fill:none" points="1075.5,1486.45 1075.5,47.2441 "/>
<polyline clip-path="url(#clip572)" style="stroke:#000000; stroke-linecap:round; stroke-linejoin:round; stroke-width:2; stroke-opacity:0.1; fill:none" points="1599.89,1486.45 1599.89,47.2441 "/>
<polyline clip-path="url(#clip572)" style="stroke:#000000; stroke-linecap:round; stroke-linejoin:round; stroke-width:2; stroke-opacity:0.1; fill:none" points="2124.29,1486.45 2124.29,47.2441 "/>
<polyline clip-path="url(#clip572)" style="stroke:#000000; stroke-linecap:round; stroke-linejoin:round; stroke-width:2; stroke-opacity:0.1; fill:none" points="193.936,1327.91 2352.76,1327.91 "/>
<polyline clip-path="url(#clip572)" style="stroke:#000000; stroke-linecap:round; stroke-linejoin:round; stroke-width:2; stroke-opacity:0.1; fill:none" points="193.936,1138.74 2352.76,1138.74 "/>
<polyline clip-path="url(#clip572)" style="stroke:#000000; stroke-linecap:round; stroke-linejoin:round; stroke-width:2; stroke-opacity:0.1; fill:none" points="193.936,949.584 2352.76,949.584 "/>
<polyline clip-path="url(#clip572)" style="stroke:#000000; stroke-linecap:round; stroke-linejoin:round; stroke-width:2; stroke-opacity:0.1; fill:none" points="193.936,760.423 2352.76,760.423 "/>
<polyline clip-path="url(#clip572)" style="stroke:#000000; stroke-linecap:round; stroke-linejoin:round; stroke-width:2; stroke-opacity:0.1; fill:none" points="193.936,571.262 2352.76,571.262 "/>
<polyline clip-path="url(#clip572)" style="stroke:#000000; stroke-linecap:round; stroke-linejoin:round; stroke-width:2; stroke-opacity:0.1; fill:none" points="193.936,382.102 2352.76,382.102 "/>
<polyline clip-path="url(#clip572)" style="stroke:#000000; stroke-linecap:round; stroke-linejoin:round; stroke-width:2; stroke-opacity:0.1; fill:none" points="193.936,192.941 2352.76,192.941 "/>
<polyline clip-path="url(#clip570)" style="stroke:#000000; stroke-linecap:round; stroke-linejoin:round; stroke-width:4; stroke-opacity:1; fill:none" points="193.936,1486.45 2352.76,1486.45 "/>
<polyline clip-path="url(#clip570)" style="stroke:#000000; stroke-linecap:round; stroke-linejoin:round; stroke-width:4; stroke-opacity:1; fill:none" points="551.104,1486.45 551.104,1467.55 "/>
<polyline clip-path="url(#clip570)" style="stroke:#000000; stroke-linecap:round; stroke-linejoin:round; stroke-width:4; stroke-opacity:1; fill:none" points="1075.5,1486.45 1075.5,1467.55 "/>
<polyline clip-path="url(#clip570)" style="stroke:#000000; stroke-linecap:round; stroke-linejoin:round; stroke-width:4; stroke-opacity:1; fill:none" points="1599.89,1486.45 1599.89,1467.55 "/>
<polyline clip-path="url(#clip570)" style="stroke:#000000; stroke-linecap:round; stroke-linejoin:round; stroke-width:4; stroke-opacity:1; fill:none" points="2124.29,1486.45 2124.29,1467.55 "/>
<path clip-path="url(#clip570)" d="M520.861 1532.02 L550.537 1532.02 L550.537 1535.95 L520.861 1535.95 L520.861 1532.02 Z" fill="#000000" fill-rule="nonzero" fill-opacity="1" /><path clip-path="url(#clip570)" d="M561.44 1544.91 L569.078 1544.91 L569.078 1518.55 L560.768 1520.21 L560.768 1515.95 L569.032 1514.29 L573.708 1514.29 L573.708 1544.91 L581.347 1544.91 L581.347 1548.85 L561.44 1548.85 L561.44 1544.91 Z" fill="#000000" fill-rule="nonzero" fill-opacity="1" /><path clip-path="url(#clip570)" d="M1075.5 1517.37 Q1071.89 1517.37 1070.06 1520.93 Q1068.25 1524.47 1068.25 1531.6 Q1068.25 1538.71 1070.06 1542.27 Q1071.89 1545.82 1075.5 1545.82 Q1079.13 1545.82 1080.94 1542.27 Q1082.77 1538.71 1082.77 1531.6 Q1082.77 1524.47 1080.94 1520.93 Q1079.13 1517.37 1075.5 1517.37 M1075.5 1513.66 Q1081.31 1513.66 1084.36 1518.27 Q1087.44 1522.85 1087.44 1531.6 Q1087.44 1540.33 1084.36 1544.94 Q1081.31 1549.52 1075.5 1549.52 Q1069.69 1549.52 1066.61 1544.94 Q1063.55 1540.33 1063.55 1531.6 Q1063.55 1522.85 1066.61 1518.27 Q1069.69 1513.66 1075.5 1513.66 Z" fill="#000000" fill-rule="nonzero" fill-opacity="1" /><path clip-path="url(#clip570)" d="M1590.28 1544.91 L1597.91 1544.91 L1597.91 1518.55 L1589.6 1520.21 L1589.6 1515.95 L1597.87 1514.29 L1602.54 1514.29 L1602.54 1544.91 L1610.18 1544.91 L1610.18 1548.85 L1590.28 1548.85 L1590.28 1544.91 Z" fill="#000000" fill-rule="nonzero" fill-opacity="1" /><path clip-path="url(#clip570)" d="M2118.94 1544.91 L2135.26 1544.91 L2135.26 1548.85 L2113.32 1548.85 L2113.32 1544.91 Q2115.98 1542.16 2120.56 1537.53 Q2125.17 1532.88 2126.35 1531.53 Q2128.59 1529.01 2129.47 1527.27 Q2130.38 1525.51 2130.38 1523.82 Q2130.38 1521.07 2128.43 1519.33 Q2126.51 1517.6 2123.41 1517.6 Q2121.21 1517.6 2118.76 1518.36 Q2116.33 1519.13 2113.55 1520.68 L2113.55 1515.95 Q2116.37 1514.82 2118.83 1514.24 Q2121.28 1513.66 2123.32 1513.66 Q2128.69 1513.66 2131.88 1516.35 Q2135.08 1519.03 2135.08 1523.52 Q2135.08 1525.65 2134.27 1527.57 Q2133.48 1529.47 2131.37 1532.07 Q2130.79 1532.74 2127.69 1535.95 Q2124.59 1539.15 2118.94 1544.91 Z" fill="#000000" fill-rule="nonzero" fill-opacity="1" /><polyline clip-path="url(#clip570)" style="stroke:#000000; stroke-linecap:round; stroke-linejoin:round; stroke-width:4; stroke-opacity:1; fill:none" points="193.936,1486.45 193.936,47.2441 "/>
<polyline clip-path="url(#clip570)" style="stroke:#000000; stroke-linecap:round; stroke-linejoin:round; stroke-width:4; stroke-opacity:1; fill:none" points="193.936,1327.91 212.834,1327.91 "/>
<polyline clip-path="url(#clip570)" style="stroke:#000000; stroke-linecap:round; stroke-linejoin:round; stroke-width:4; stroke-opacity:1; fill:none" points="193.936,1138.74 212.834,1138.74 "/>
<polyline clip-path="url(#clip570)" style="stroke:#000000; stroke-linecap:round; stroke-linejoin:round; stroke-width:4; stroke-opacity:1; fill:none" points="193.936,949.584 212.834,949.584 "/>
<polyline clip-path="url(#clip570)" style="stroke:#000000; stroke-linecap:round; stroke-linejoin:round; stroke-width:4; stroke-opacity:1; fill:none" points="193.936,760.423 212.834,760.423 "/>
<polyline clip-path="url(#clip570)" style="stroke:#000000; stroke-linecap:round; stroke-linejoin:round; stroke-width:4; stroke-opacity:1; fill:none" points="193.936,571.262 212.834,571.262 "/>
<polyline clip-path="url(#clip570)" style="stroke:#000000; stroke-linecap:round; stroke-linejoin:round; stroke-width:4; stroke-opacity:1; fill:none" points="193.936,382.102 212.834,382.102 "/>
<polyline clip-path="url(#clip570)" style="stroke:#000000; stroke-linecap:round; stroke-linejoin:round; stroke-width:4; stroke-opacity:1; fill:none" points="193.936,192.941 212.834,192.941 "/>
<path clip-path="url(#clip570)" d="M51.9875 1328.36 L81.6633 1328.36 L81.6633 1332.29 L51.9875 1332.29 L51.9875 1328.36 Z" fill="#000000" fill-rule="nonzero" fill-opacity="1" /><path clip-path="url(#clip570)" d="M92.566 1341.25 L100.205 1341.25 L100.205 1314.88 L91.8947 1316.55 L91.8947 1312.29 L100.159 1310.63 L104.834 1310.63 L104.834 1341.25 L112.473 1341.25 L112.473 1345.19 L92.566 1345.19 L92.566 1341.25 Z" fill="#000000" fill-rule="nonzero" fill-opacity="1" /><path clip-path="url(#clip570)" d="M121.918 1339.31 L126.802 1339.31 L126.802 1345.19 L121.918 1345.19 L121.918 1339.31 Z" fill="#000000" fill-rule="nonzero" fill-opacity="1" /><path clip-path="url(#clip570)" d="M137.033 1310.63 L155.39 1310.63 L155.39 1314.56 L141.316 1314.56 L141.316 1323.03 Q142.334 1322.69 143.353 1322.52 Q144.371 1322.34 145.39 1322.34 Q151.177 1322.34 154.556 1325.51 Q157.936 1328.68 157.936 1334.1 Q157.936 1339.68 154.464 1342.78 Q150.992 1345.86 144.672 1345.86 Q142.496 1345.86 140.228 1345.49 Q137.982 1345.12 135.575 1344.38 L135.575 1339.68 Q137.658 1340.81 139.881 1341.37 Q142.103 1341.92 144.58 1341.92 Q148.584 1341.92 150.922 1339.81 Q153.26 1337.71 153.26 1334.1 Q153.26 1330.49 150.922 1328.38 Q148.584 1326.27 144.58 1326.27 Q142.705 1326.27 140.83 1326.69 Q138.978 1327.11 137.033 1327.99 L137.033 1310.63 Z" fill="#000000" fill-rule="nonzero" fill-opacity="1" /><path clip-path="url(#clip570)" d="M50.9921 1139.2 L80.6679 1139.2 L80.6679 1143.13 L50.9921 1143.13 L50.9921 1139.2 Z" fill="#000000" fill-rule="nonzero" fill-opacity="1" /><path clip-path="url(#clip570)" d="M91.5706 1152.09 L99.2095 1152.09 L99.2095 1125.72 L90.8993 1127.39 L90.8993 1123.13 L99.1632 1121.46 L103.839 1121.46 L103.839 1152.09 L111.478 1152.09 L111.478 1156.02 L91.5706 1156.02 L91.5706 1152.09 Z" fill="#000000" fill-rule="nonzero" fill-opacity="1" /><path clip-path="url(#clip570)" d="M120.922 1150.15 L125.807 1150.15 L125.807 1156.02 L120.922 1156.02 L120.922 1150.15 Z" fill="#000000" fill-rule="nonzero" fill-opacity="1" /><path clip-path="url(#clip570)" d="M145.992 1124.54 Q142.381 1124.54 140.552 1128.11 Q138.746 1131.65 138.746 1138.78 Q138.746 1145.89 140.552 1149.45 Q142.381 1152.99 145.992 1152.99 Q149.626 1152.99 151.431 1149.45 Q153.26 1145.89 153.26 1138.78 Q153.26 1131.65 151.431 1128.11 Q149.626 1124.54 145.992 1124.54 M145.992 1120.84 Q151.802 1120.84 154.857 1125.45 Q157.936 1130.03 157.936 1138.78 Q157.936 1147.51 154.857 1152.11 Q151.802 1156.7 145.992 1156.7 Q140.181 1156.7 137.103 1152.11 Q134.047 1147.51 134.047 1138.78 Q134.047 1130.03 137.103 1125.45 Q140.181 1120.84 145.992 1120.84 Z" fill="#000000" fill-rule="nonzero" fill-opacity="1" /><path clip-path="url(#clip570)" d="M51.9875 950.035 L81.6633 950.035 L81.6633 953.97 L51.9875 953.97 L51.9875 950.035 Z" fill="#000000" fill-rule="nonzero" fill-opacity="1" /><path clip-path="url(#clip570)" d="M101.756 935.383 Q98.1447 935.383 96.316 938.947 Q94.5104 942.489 94.5104 949.619 Q94.5104 956.725 96.316 960.29 Q98.1447 963.831 101.756 963.831 Q105.39 963.831 107.196 960.29 Q109.024 956.725 109.024 949.619 Q109.024 942.489 107.196 938.947 Q105.39 935.383 101.756 935.383 M101.756 931.679 Q107.566 931.679 110.621 936.285 Q113.7 940.869 113.7 949.619 Q113.7 958.345 110.621 962.952 Q107.566 967.535 101.756 967.535 Q95.9456 967.535 92.8669 962.952 Q89.8114 958.345 89.8114 949.619 Q89.8114 940.869 92.8669 936.285 Q95.9456 931.679 101.756 931.679 Z" fill="#000000" fill-rule="nonzero" fill-opacity="1" /><path clip-path="url(#clip570)" d="M121.918 960.984 L126.802 960.984 L126.802 966.864 L121.918 966.864 L121.918 960.984 Z" fill="#000000" fill-rule="nonzero" fill-opacity="1" /><path clip-path="url(#clip570)" d="M137.033 932.304 L155.39 932.304 L155.39 936.239 L141.316 936.239 L141.316 944.711 Q142.334 944.364 143.353 944.202 Q144.371 944.017 145.39 944.017 Q151.177 944.017 154.556 947.188 Q157.936 950.359 157.936 955.776 Q157.936 961.355 154.464 964.456 Q150.992 967.535 144.672 967.535 Q142.496 967.535 140.228 967.165 Q137.982 966.794 135.575 966.054 L135.575 961.355 Q137.658 962.489 139.881 963.044 Q142.103 963.6 144.58 963.6 Q148.584 963.6 150.922 961.494 Q153.26 959.387 153.26 955.776 Q153.26 952.165 150.922 950.058 Q148.584 947.952 144.58 947.952 Q142.705 947.952 140.83 948.369 Q138.978 948.785 137.033 949.665 L137.033 932.304 Z" fill="#000000" fill-rule="nonzero" fill-opacity="1" /><path clip-path="url(#clip570)" d="M100.76 746.222 Q97.1493 746.222 95.3206 749.787 Q93.515 753.328 93.515 760.458 Q93.515 767.564 95.3206 771.129 Q97.1493 774.671 100.76 774.671 Q104.395 774.671 106.2 771.129 Q108.029 767.564 108.029 760.458 Q108.029 753.328 106.2 749.787 Q104.395 746.222 100.76 746.222 M100.76 742.518 Q106.571 742.518 109.626 747.125 Q112.705 751.708 112.705 760.458 Q112.705 769.185 109.626 773.791 Q106.571 778.374 100.76 778.374 Q94.9502 778.374 91.8715 773.791 Q88.816 769.185 88.816 760.458 Q88.816 751.708 91.8715 747.125 Q94.9502 742.518 100.76 742.518 Z" fill="#000000" fill-rule="nonzero" fill-opacity="1" /><path clip-path="url(#clip570)" d="M120.922 771.824 L125.807 771.824 L125.807 777.703 L120.922 777.703 L120.922 771.824 Z" fill="#000000" fill-rule="nonzero" fill-opacity="1" /><path clip-path="url(#clip570)" d="M145.992 746.222 Q142.381 746.222 140.552 749.787 Q138.746 753.328 138.746 760.458 Q138.746 767.564 140.552 771.129 Q142.381 774.671 145.992 774.671 Q149.626 774.671 151.431 771.129 Q153.26 767.564 153.26 760.458 Q153.26 753.328 151.431 749.787 Q149.626 746.222 145.992 746.222 M145.992 742.518 Q151.802 742.518 154.857 747.125 Q157.936 751.708 157.936 760.458 Q157.936 769.185 154.857 773.791 Q151.802 778.374 145.992 778.374 Q140.181 778.374 137.103 773.791 Q134.047 769.185 134.047 760.458 Q134.047 751.708 137.103 747.125 Q140.181 742.518 145.992 742.518 Z" fill="#000000" fill-rule="nonzero" fill-opacity="1" /><path clip-path="url(#clip570)" d="M101.756 557.061 Q98.1447 557.061 96.316 560.626 Q94.5104 564.168 94.5104 571.297 Q94.5104 578.404 96.316 581.968 Q98.1447 585.51 101.756 585.51 Q105.39 585.51 107.196 581.968 Q109.024 578.404 109.024 571.297 Q109.024 564.168 107.196 560.626 Q105.39 557.061 101.756 557.061 M101.756 553.357 Q107.566 553.357 110.621 557.964 Q113.7 562.547 113.7 571.297 Q113.7 580.024 110.621 584.63 Q107.566 589.214 101.756 589.214 Q95.9456 589.214 92.8669 584.63 Q89.8114 580.024 89.8114 571.297 Q89.8114 562.547 92.8669 557.964 Q95.9456 553.357 101.756 553.357 Z" fill="#000000" fill-rule="nonzero" fill-opacity="1" /><path clip-path="url(#clip570)" d="M121.918 582.663 L126.802 582.663 L126.802 588.542 L121.918 588.542 L121.918 582.663 Z" fill="#000000" fill-rule="nonzero" fill-opacity="1" /><path clip-path="url(#clip570)" d="M137.033 553.982 L155.39 553.982 L155.39 557.918 L141.316 557.918 L141.316 566.39 Q142.334 566.043 143.353 565.88 Q144.371 565.695 145.39 565.695 Q151.177 565.695 154.556 568.867 Q157.936 572.038 157.936 577.454 Q157.936 583.033 154.464 586.135 Q150.992 589.214 144.672 589.214 Q142.496 589.214 140.228 588.843 Q137.982 588.473 135.575 587.732 L135.575 583.033 Q137.658 584.167 139.881 584.723 Q142.103 585.279 144.58 585.279 Q148.584 585.279 150.922 583.172 Q153.26 581.066 153.26 577.454 Q153.26 573.843 150.922 571.737 Q148.584 569.63 144.58 569.63 Q142.705 569.63 140.83 570.047 Q138.978 570.464 137.033 571.343 L137.033 553.982 Z" fill="#000000" fill-rule="nonzero" fill-opacity="1" /><path clip-path="url(#clip570)" d="M91.5706 395.447 L99.2095 395.447 L99.2095 369.081 L90.8993 370.748 L90.8993 366.488 L99.1632 364.822 L103.839 364.822 L103.839 395.447 L111.478 395.447 L111.478 399.382 L91.5706 399.382 L91.5706 395.447 Z" fill="#000000" fill-rule="nonzero" fill-opacity="1" /><path clip-path="url(#clip570)" d="M120.922 393.502 L125.807 393.502 L125.807 399.382 L120.922 399.382 L120.922 393.502 Z" fill="#000000" fill-rule="nonzero" fill-opacity="1" /><path clip-path="url(#clip570)" d="M145.992 367.9 Q142.381 367.9 140.552 371.465 Q138.746 375.007 138.746 382.136 Q138.746 389.243 140.552 392.808 Q142.381 396.349 145.992 396.349 Q149.626 396.349 151.431 392.808 Q153.26 389.243 153.26 382.136 Q153.26 375.007 151.431 371.465 Q149.626 367.9 145.992 367.9 M145.992 364.197 Q151.802 364.197 154.857 368.803 Q157.936 373.386 157.936 382.136 Q157.936 390.863 154.857 395.47 Q151.802 400.053 145.992 400.053 Q140.181 400.053 137.103 395.47 Q134.047 390.863 134.047 382.136 Q134.047 373.386 137.103 368.803 Q140.181 364.197 145.992 364.197 Z" fill="#000000" fill-rule="nonzero" fill-opacity="1" /><path clip-path="url(#clip570)" d="M92.566 206.286 L100.205 206.286 L100.205 179.92 L91.8947 181.587 L91.8947 177.328 L100.159 175.661 L104.834 175.661 L104.834 206.286 L112.473 206.286 L112.473 210.221 L92.566 210.221 L92.566 206.286 Z" fill="#000000" fill-rule="nonzero" fill-opacity="1" /><path clip-path="url(#clip570)" d="M121.918 204.341 L126.802 204.341 L126.802 210.221 L121.918 210.221 L121.918 204.341 Z" fill="#000000" fill-rule="nonzero" fill-opacity="1" /><path clip-path="url(#clip570)" d="M137.033 175.661 L155.39 175.661 L155.39 179.596 L141.316 179.596 L141.316 188.068 Q142.334 187.721 143.353 187.559 Q144.371 187.374 145.39 187.374 Q151.177 187.374 154.556 190.545 Q157.936 193.716 157.936 199.133 Q157.936 204.712 154.464 207.814 Q150.992 210.892 144.672 210.892 Q142.496 210.892 140.228 210.522 Q137.982 210.151 135.575 209.411 L135.575 204.712 Q137.658 205.846 139.881 206.402 Q142.103 206.957 144.58 206.957 Q148.584 206.957 150.922 204.851 Q153.26 202.744 153.26 199.133 Q153.26 195.522 150.922 193.415 Q148.584 191.309 144.58 191.309 Q142.705 191.309 140.83 191.726 Q138.978 192.142 137.033 193.022 L137.033 175.661 Z" fill="#000000" fill-rule="nonzero" fill-opacity="1" /><circle clip-path="url(#clip572)" cx="1638.93" cy="228.405" r="14.4" fill="#009af9" fill-rule="evenodd" fill-opacity="0.5" stroke="#000000" stroke-opacity="0.5" stroke-width="3.2"/>
<circle clip-path="url(#clip572)" cx="1399.3" cy="626.942" r="14.4" fill="#009af9" fill-rule="evenodd" fill-opacity="0.5" stroke="#000000" stroke-opacity="0.5" stroke-width="3.2"/>
<circle clip-path="url(#clip572)" cx="852.845" cy="1202.63" r="14.4" fill="#009af9" fill-rule="evenodd" fill-opacity="0.5" stroke="#000000" stroke-opacity="0.5" stroke-width="3.2"/>
<circle clip-path="url(#clip572)" cx="1762.45" cy="1067.35" r="14.4" fill="#009af9" fill-rule="evenodd" fill-opacity="0.5" stroke="#000000" stroke-opacity="0.5" stroke-width="3.2"/>
<circle clip-path="url(#clip572)" cx="1292.46" cy="747.246" r="14.4" fill="#009af9" fill-rule="evenodd" fill-opacity="0.5" stroke="#000000" stroke-opacity="0.5" stroke-width="3.2"/>
<circle clip-path="url(#clip572)" cx="318.121" cy="791.557" r="14.4" fill="#009af9" fill-rule="evenodd" fill-opacity="0.5" stroke="#000000" stroke-opacity="0.5" stroke-width="3.2"/>
<circle clip-path="url(#clip572)" cx="1918.96" cy="1299.73" r="14.4" fill="#009af9" fill-rule="evenodd" fill-opacity="0.5" stroke="#000000" stroke-opacity="0.5" stroke-width="3.2"/>
<circle clip-path="url(#clip572)" cx="1651.19" cy="87.9763" r="14.4" fill="#009af9" fill-rule="evenodd" fill-opacity="0.5" stroke="#000000" stroke-opacity="0.5" stroke-width="3.2"/>
<circle clip-path="url(#clip572)" cx="2291.66" cy="386.202" r="14.4" fill="#009af9" fill-rule="evenodd" fill-opacity="0.5" stroke="#000000" stroke-opacity="0.5" stroke-width="3.2"/>
<circle clip-path="url(#clip572)" cx="743.367" cy="868.163" r="14.4" fill="#009af9" fill-rule="evenodd" fill-opacity="0.5" stroke="#000000" stroke-opacity="0.5" stroke-width="3.2"/>
<circle clip-path="url(#clip572)" cx="586.046" cy="396.341" r="14.4" fill="#009af9" fill-rule="evenodd" fill-opacity="0.5" stroke="#000000" stroke-opacity="0.5" stroke-width="3.2"/>
<circle clip-path="url(#clip572)" cx="1053.14" cy="911.2" r="14.4" fill="#009af9" fill-rule="evenodd" fill-opacity="0.5" stroke="#000000" stroke-opacity="0.5" stroke-width="3.2"/>
<circle clip-path="url(#clip572)" cx="255.035" cy="1445.72" r="14.4" fill="#009af9" fill-rule="evenodd" fill-opacity="0.5" stroke="#000000" stroke-opacity="0.5" stroke-width="3.2"/>
<circle clip-path="url(#clip572)" cx="2133.06" cy="812.484" r="14.4" fill="#009af9" fill-rule="evenodd" fill-opacity="0.5" stroke="#000000" stroke-opacity="0.5" stroke-width="3.2"/>
<circle clip-path="url(#clip572)" cx="609.204" cy="683.704" r="14.4" fill="#009af9" fill-rule="evenodd" fill-opacity="0.5" stroke="#000000" stroke-opacity="0.5" stroke-width="3.2"/>
<circle clip-path="url(#clip572)" cx="1585.12" cy="850.037" r="14.4" fill="#009af9" fill-rule="evenodd" fill-opacity="0.5" stroke="#000000" stroke-opacity="0.5" stroke-width="3.2"/>
<circle clip-path="url(#clip572)" cx="933.083" cy="718.442" r="14.4" fill="#009af9" fill-rule="evenodd" fill-opacity="0.5" stroke="#000000" stroke-opacity="0.5" stroke-width="3.2"/>
<circle clip-path="url(#clip572)" cx="999.939" cy="1025.32" r="14.4" fill="#009af9" fill-rule="evenodd" fill-opacity="0.5" stroke="#000000" stroke-opacity="0.5" stroke-width="3.2"/>
<circle clip-path="url(#clip572)" cx="1300.02" cy="722.97" r="14.4" fill="#009af9" fill-rule="evenodd" fill-opacity="0.5" stroke="#000000" stroke-opacity="0.5" stroke-width="3.2"/>
<circle clip-path="url(#clip572)" cx="1895.95" cy="515.889" r="14.4" fill="#009af9" fill-rule="evenodd" fill-opacity="0.5" stroke="#000000" stroke-opacity="0.5" stroke-width="3.2"/>
<circle clip-path="url(#clip572)" cx="304.478" cy="1008.81" r="14.4" fill="#009af9" fill-rule="evenodd" fill-opacity="0.5" stroke="#000000" stroke-opacity="0.5" stroke-width="3.2"/>
<circle clip-path="url(#clip572)" cx="783.913" cy="542.548" r="14.4" fill="#009af9" fill-rule="evenodd" fill-opacity="0.5" stroke="#000000" stroke-opacity="0.5" stroke-width="3.2"/>
<circle clip-path="url(#clip572)" cx="1044.85" cy="238.737" r="14.4" fill="#009af9" fill-rule="evenodd" fill-opacity="0.5" stroke="#000000" stroke-opacity="0.5" stroke-width="3.2"/>
<circle clip-path="url(#clip572)" cx="1344.17" cy="489.643" r="14.4" fill="#009af9" fill-rule="evenodd" fill-opacity="0.5" stroke="#000000" stroke-opacity="0.5" stroke-width="3.2"/>
<circle clip-path="url(#clip572)" cx="689.946" cy="803.399" r="14.4" fill="#009af9" fill-rule="evenodd" fill-opacity="0.5" stroke="#000000" stroke-opacity="0.5" stroke-width="3.2"/>
<circle clip-path="url(#clip572)" cx="1826.19" cy="223.284" r="14.4" fill="#009af9" fill-rule="evenodd" fill-opacity="0.5" stroke="#000000" stroke-opacity="0.5" stroke-width="3.2"/>
<circle clip-path="url(#clip572)" cx="1017.6" cy="795.233" r="14.4" fill="#009af9" fill-rule="evenodd" fill-opacity="0.5" stroke="#000000" stroke-opacity="0.5" stroke-width="3.2"/>
<circle clip-path="url(#clip572)" cx="742.604" cy="895.605" r="14.4" fill="#009af9" fill-rule="evenodd" fill-opacity="0.5" stroke="#000000" stroke-opacity="0.5" stroke-width="3.2"/>
<circle clip-path="url(#clip572)" cx="1828.66" cy="805.907" r="14.4" fill="#009af9" fill-rule="evenodd" fill-opacity="0.5" stroke="#000000" stroke-opacity="0.5" stroke-width="3.2"/>
<circle clip-path="url(#clip572)" cx="890.982" cy="559.605" r="14.4" fill="#009af9" fill-rule="evenodd" fill-opacity="0.5" stroke="#000000" stroke-opacity="0.5" stroke-width="3.2"/>
<path clip-path="url(#clip572)" d="M255.035 1445.72 L1918.96 1299.73 L2133.06 812.484 L2291.66 386.202 L1651.19 87.9763 L1044.85 238.737 L586.046 396.341 L318.121 791.557 L255.035 1445.72 L255.035 1445.72  Z" fill="#e26f46" fill-rule="evenodd" fill-opacity="0.2"/>
<polyline clip-path="url(#clip572)" style="stroke:#000000; stroke-linecap:round; stroke-linejoin:round; stroke-width:4; stroke-opacity:0.2; fill:none" points="255.035,1445.72 1918.96,1299.73 2133.06,812.484 2291.66,386.202 1651.19,87.9763 1044.85,238.737 586.046,396.341 318.121,791.557 255.035,1445.72 "/>
</svg>
