<?xml version="1.0" encoding="utf-8"?>
<svg xmlns="http://www.w3.org/2000/svg" xmlns:xlink="http://www.w3.org/1999/xlink" width="600" height="400" viewBox="0 0 2400 1600">
<defs>
  <clipPath id="clip970">
    <rect x="0" y="0" width="2400" height="1600"/>
  </clipPath>
</defs>
<path clip-path="url(#clip970)" d="M0 1600 L2400 1600 L2400 0 L0 0  Z" fill="#ffffff" fill-rule="evenodd" fill-opacity="1"/>
<defs>
  <clipPath id="clip971">
    <rect x="480" y="0" width="1681" height="1600"/>
  </clipPath>
</defs>
<path clip-path="url(#clip970)" d="M193.936 1486.45 L2352.76 1486.45 L2352.76 47.2441 L193.936 47.2441  Z" fill="#ffffff" fill-rule="evenodd" fill-opacity="1"/>
<defs>
  <clipPath id="clip972">
    <rect x="193" y="47" width="2160" height="1440"/>
  </clipPath>
</defs>
<polyline clip-path="url(#clip972)" style="stroke:#000000; stroke-linecap:round; stroke-linejoin:round; stroke-width:2; stroke-opacity:0.1; fill:none" points="260.336,1486.45 260.336,47.2441 "/>
<polyline clip-path="url(#clip972)" style="stroke:#000000; stroke-linecap:round; stroke-linejoin:round; stroke-width:2; stroke-opacity:0.1; fill:none" points="785.275,1486.45 785.275,47.2441 "/>
<polyline clip-path="url(#clip972)" style="stroke:#000000; stroke-linecap:round; stroke-linejoin:round; stroke-width:2; stroke-opacity:0.1; fill:none" points="1310.21,1486.45 1310.21,47.2441 "/>
<polyline clip-path="url(#clip972)" style="stroke:#000000; stroke-linecap:round; stroke-linejoin:round; stroke-width:2; stroke-opacity:0.1; fill:none" points="1835.15,1486.45 1835.15,47.2441 "/>
<polyline clip-path="url(#clip972)" style="stroke:#000000; stroke-linecap:round; stroke-linejoin:round; stroke-width:2; stroke-opacity:0.1; fill:none" points="193.936,1337.2 2352.76,1337.2 "/>
<polyline clip-path="url(#clip972)" style="stroke:#000000; stroke-linecap:round; stroke-linejoin:round; stroke-width:2; stroke-opacity:0.1; fill:none" points="193.936,1113.15 2352.76,1113.15 "/>
<polyline clip-path="url(#clip972)" style="stroke:#000000; stroke-linecap:round; stroke-linejoin:round; stroke-width:2; stroke-opacity:0.1; fill:none" points="193.936,889.103 2352.76,889.103 "/>
<polyline clip-path="url(#clip972)" style="stroke:#000000; stroke-linecap:round; stroke-linejoin:round; stroke-width:2; stroke-opacity:0.1; fill:none" points="193.936,665.054 2352.76,665.054 "/>
<polyline clip-path="url(#clip972)" style="stroke:#000000; stroke-linecap:round; stroke-linejoin:round; stroke-width:2; stroke-opacity:0.1; fill:none" points="193.936,441.006 2352.76,441.006 "/>
<polyline clip-path="url(#clip972)" style="stroke:#000000; stroke-linecap:round; stroke-linejoin:round; stroke-width:2; stroke-opacity:0.1; fill:none" points="193.936,216.957 2352.76,216.957 "/>
<polyline clip-path="url(#clip970)" style="stroke:#000000; stroke-linecap:round; stroke-linejoin:round; stroke-width:4; stroke-opacity:1; fill:none" points="193.936,1486.45 2352.76,1486.45 "/>
<polyline clip-path="url(#clip970)" style="stroke:#000000; stroke-linecap:round; stroke-linejoin:round; stroke-width:4; stroke-opacity:1; fill:none" points="260.336,1486.45 260.336,1467.55 "/>
<polyline clip-path="url(#clip970)" style="stroke:#000000; stroke-linecap:round; stroke-linejoin:round; stroke-width:4; stroke-opacity:1; fill:none" points="785.275,1486.45 785.275,1467.55 "/>
<polyline clip-path="url(#clip970)" style="stroke:#000000; stroke-linecap:round; stroke-linejoin:round; stroke-width:4; stroke-opacity:1; fill:none" points="1310.21,1486.45 1310.21,1467.55 "/>
<polyline clip-path="url(#clip970)" style="stroke:#000000; stroke-linecap:round; stroke-linejoin:round; stroke-width:4; stroke-opacity:1; fill:none" points="1835.15,1486.45 1835.15,1467.55 "/>
<path clip-path="url(#clip970)" d="M230.279 1532.02 L259.954 1532.02 L259.954 1535.95 L230.279 1535.95 L230.279 1532.02 Z" fill="#000000" fill-rule="nonzero" fill-opacity="1" /><path clip-path="url(#clip970)" d="M274.075 1544.91 L290.394 1544.91 L290.394 1548.85 L268.45 1548.85 L268.45 1544.91 Q271.112 1542.16 275.695 1537.53 Q280.302 1532.88 281.482 1531.53 Q283.728 1529.01 284.607 1527.27 Q285.51 1525.51 285.51 1523.82 Q285.51 1521.07 283.565 1519.33 Q281.644 1517.6 278.542 1517.6 Q276.343 1517.6 273.89 1518.36 Q271.459 1519.13 268.681 1520.68 L268.681 1515.95 Q271.505 1514.82 273.959 1514.24 Q276.413 1513.66 278.45 1513.66 Q283.82 1513.66 287.015 1516.35 Q290.209 1519.03 290.209 1523.52 Q290.209 1525.65 289.399 1527.57 Q288.612 1529.47 286.505 1532.07 Q285.927 1532.74 282.825 1535.95 Q279.723 1539.15 274.075 1544.91 Z" fill="#000000" fill-rule="nonzero" fill-opacity="1" /><path clip-path="url(#clip970)" d="M755.032 1532.02 L784.708 1532.02 L784.708 1535.95 L755.032 1535.95 L755.032 1532.02 Z" fill="#000000" fill-rule="nonzero" fill-opacity="1" /><path clip-path="url(#clip970)" d="M795.611 1544.91 L803.25 1544.91 L803.25 1518.55 L794.94 1520.21 L794.94 1515.95 L803.203 1514.29 L807.879 1514.29 L807.879 1544.91 L815.518 1544.91 L815.518 1548.85 L795.611 1548.85 L795.611 1544.91 Z" fill="#000000" fill-rule="nonzero" fill-opacity="1" /><path clip-path="url(#clip970)" d="M1310.21 1517.37 Q1306.6 1517.37 1304.77 1520.93 Q1302.97 1524.47 1302.97 1531.6 Q1302.97 1538.71 1304.77 1542.27 Q1306.6 1545.82 1310.21 1545.82 Q1313.85 1545.82 1315.65 1542.27 Q1317.48 1538.71 1317.48 1531.6 Q1317.48 1524.47 1315.65 1520.93 Q1313.85 1517.37 1310.21 1517.37 M1310.21 1513.66 Q1316.02 1513.66 1319.08 1518.27 Q1322.16 1522.85 1322.16 1531.6 Q1322.16 1540.33 1319.08 1544.94 Q1316.02 1549.52 1310.21 1549.52 Q1304.4 1549.52 1301.33 1544.94 Q1298.27 1540.33 1298.27 1531.6 Q1298.27 1522.85 1301.33 1518.27 Q1304.4 1513.66 1310.21 1513.66 Z" fill="#000000" fill-rule="nonzero" fill-opacity="1" /><path clip-path="url(#clip970)" d="M1825.54 1544.91 L1833.17 1544.91 L1833.17 1518.55 L1824.86 1520.21 L1824.86 1515.95 L1833.13 1514.29 L1837.8 1514.29 L1837.8 1544.91 L1845.44 1544.91 L1845.44 1548.85 L1825.54 1548.85 L1825.54 1544.91 Z" fill="#000000" fill-rule="nonzero" fill-opacity="1" /><polyline clip-path="url(#clip970)" style="stroke:#000000; stroke-linecap:round; stroke-linejoin:round; stroke-width:4; stroke-opacity:1; fill:none" points="193.936,1486.45 193.936,47.2441 "/>
<polyline clip-path="url(#clip970)" style="stroke:#000000; stroke-linecap:round; stroke-linejoin:round; stroke-width:4; stroke-opacity:1; fill:none" points="193.936,1337.2 212.834,1337.2 "/>
<polyline clip-path="url(#clip970)" style="stroke:#000000; stroke-linecap:round; stroke-linejoin:round; stroke-width:4; stroke-opacity:1; fill:none" points="193.936,1113.15 212.834,1113.15 "/>
<polyline clip-path="url(#clip970)" style="stroke:#000000; stroke-linecap:round; stroke-linejoin:round; stroke-width:4; stroke-opacity:1; fill:none" points="193.936,889.103 212.834,889.103 "/>
<polyline clip-path="url(#clip970)" style="stroke:#000000; stroke-linecap:round; stroke-linejoin:round; stroke-width:4; stroke-opacity:1; fill:none" points="193.936,665.054 212.834,665.054 "/>
<polyline clip-path="url(#clip970)" style="stroke:#000000; stroke-linecap:round; stroke-linejoin:round; stroke-width:4; stroke-opacity:1; fill:none" points="193.936,441.006 212.834,441.006 "/>
<polyline clip-path="url(#clip970)" style="stroke:#000000; stroke-linecap:round; stroke-linejoin:round; stroke-width:4; stroke-opacity:1; fill:none" points="193.936,216.957 212.834,216.957 "/>
<path clip-path="url(#clip970)" d="M51.9875 1337.65 L81.6633 1337.65 L81.6633 1341.59 L51.9875 1341.59 L51.9875 1337.65 Z" fill="#000000" fill-rule="nonzero" fill-opacity="1" /><path clip-path="url(#clip970)" d="M92.566 1350.55 L100.205 1350.55 L100.205 1324.18 L91.8947 1325.85 L91.8947 1321.59 L100.159 1319.92 L104.834 1319.92 L104.834 1350.55 L112.473 1350.55 L112.473 1354.48 L92.566 1354.48 L92.566 1350.55 Z" fill="#000000" fill-rule="nonzero" fill-opacity="1" /><path clip-path="url(#clip970)" d="M121.918 1348.6 L126.802 1348.6 L126.802 1354.48 L121.918 1354.48 L121.918 1348.6 Z" fill="#000000" fill-rule="nonzero" fill-opacity="1" /><path clip-path="url(#clip970)" d="M137.033 1319.92 L155.39 1319.92 L155.39 1323.86 L141.316 1323.86 L141.316 1332.33 Q142.334 1331.98 143.353 1331.82 Q144.371 1331.63 145.39 1331.63 Q151.177 1331.63 154.556 1334.8 Q157.936 1337.98 157.936 1343.39 Q157.936 1348.97 154.464 1352.07 Q150.992 1355.15 144.672 1355.15 Q142.496 1355.15 140.228 1354.78 Q137.982 1354.41 135.575 1353.67 L135.575 1348.97 Q137.658 1350.11 139.881 1350.66 Q142.103 1351.22 144.58 1351.22 Q148.584 1351.22 150.922 1349.11 Q153.26 1347 153.26 1343.39 Q153.26 1339.78 150.922 1337.68 Q148.584 1335.57 144.58 1335.57 Q142.705 1335.57 140.83 1335.99 Q138.978 1336.4 137.033 1337.28 L137.033 1319.92 Z" fill="#000000" fill-rule="nonzero" fill-opacity="1" /><path clip-path="url(#clip970)" d="M50.9921 1113.6 L80.6679 1113.6 L80.6679 1117.54 L50.9921 1117.54 L50.9921 1113.6 Z" fill="#000000" fill-rule="nonzero" fill-opacity="1" /><path clip-path="url(#clip970)" d="M91.5706 1126.5 L99.2095 1126.5 L99.2095 1100.13 L90.8993 1101.8 L90.8993 1097.54 L99.1632 1095.87 L103.839 1095.87 L103.839 1126.5 L111.478 1126.5 L111.478 1130.43 L91.5706 1130.43 L91.5706 1126.5 Z" fill="#000000" fill-rule="nonzero" fill-opacity="1" /><path clip-path="url(#clip970)" d="M120.922 1124.55 L125.807 1124.55 L125.807 1130.43 L120.922 1130.43 L120.922 1124.55 Z" fill="#000000" fill-rule="nonzero" fill-opacity="1" /><path clip-path="url(#clip970)" d="M145.992 1098.95 Q142.381 1098.95 140.552 1102.52 Q138.746 1106.06 138.746 1113.19 Q138.746 1120.29 140.552 1123.86 Q142.381 1127.4 145.992 1127.4 Q149.626 1127.4 151.431 1123.86 Q153.26 1120.29 153.26 1113.19 Q153.26 1106.06 151.431 1102.52 Q149.626 1098.95 145.992 1098.95 M145.992 1095.25 Q151.802 1095.25 154.857 1099.85 Q157.936 1104.44 157.936 1113.19 Q157.936 1121.91 154.857 1126.52 Q151.802 1131.1 145.992 1131.1 Q140.181 1131.1 137.103 1126.52 Q134.047 1121.91 134.047 1113.19 Q134.047 1104.44 137.103 1099.85 Q140.181 1095.25 145.992 1095.25 Z" fill="#000000" fill-rule="nonzero" fill-opacity="1" /><path clip-path="url(#clip970)" d="M51.9875 889.555 L81.6633 889.555 L81.6633 893.49 L51.9875 893.49 L51.9875 889.555 Z" fill="#000000" fill-rule="nonzero" fill-opacity="1" /><path clip-path="url(#clip970)" d="M101.756 874.902 Q98.1447 874.902 96.316 878.467 Q94.5104 882.008 94.5104 889.138 Q94.5104 896.244 96.316 899.809 Q98.1447 903.351 101.756 903.351 Q105.39 903.351 107.196 899.809 Q109.024 896.244 109.024 889.138 Q109.024 882.008 107.196 878.467 Q105.39 874.902 101.756 874.902 M101.756 871.198 Q107.566 871.198 110.621 875.805 Q113.7 880.388 113.7 889.138 Q113.7 897.865 110.621 902.471 Q107.566 907.054 101.756 907.054 Q95.9456 907.054 92.8669 902.471 Q89.8114 897.865 89.8114 889.138 Q89.8114 880.388 92.8669 875.805 Q95.9456 871.198 101.756 871.198 Z" fill="#000000" fill-rule="nonzero" fill-opacity="1" /><path clip-path="url(#clip970)" d="M121.918 900.504 L126.802 900.504 L126.802 906.383 L121.918 906.383 L121.918 900.504 Z" fill="#000000" fill-rule="nonzero" fill-opacity="1" /><path clip-path="url(#clip970)" d="M137.033 871.823 L155.39 871.823 L155.39 875.758 L141.316 875.758 L141.316 884.231 Q142.334 883.883 143.353 883.721 Q144.371 883.536 145.39 883.536 Q151.177 883.536 154.556 886.707 Q157.936 889.879 157.936 895.295 Q157.936 900.874 154.464 903.976 Q150.992 907.054 144.672 907.054 Q142.496 907.054 140.228 906.684 Q137.982 906.314 135.575 905.573 L135.575 900.874 Q137.658 902.008 139.881 902.564 Q142.103 903.119 144.58 903.119 Q148.584 903.119 150.922 901.013 Q153.26 898.906 153.26 895.295 Q153.26 891.684 150.922 889.578 Q148.584 887.471 144.58 887.471 Q142.705 887.471 140.83 887.888 Q138.978 888.305 137.033 889.184 L137.033 871.823 Z" fill="#000000" fill-rule="nonzero" fill-opacity="1" /><path clip-path="url(#clip970)" d="M100.76 650.853 Q97.1493 650.853 95.3206 654.418 Q93.515 657.96 93.515 665.089 Q93.515 672.196 95.3206 675.76 Q97.1493 679.302 100.76 679.302 Q104.395 679.302 106.2 675.76 Q108.029 672.196 108.029 665.089 Q108.029 657.96 106.2 654.418 Q104.395 650.853 100.76 650.853 M100.76 647.149 Q106.571 647.149 109.626 651.756 Q112.705 656.339 112.705 665.089 Q112.705 673.816 109.626 678.422 Q106.571 683.006 100.76 683.006 Q94.9502 683.006 91.8715 678.422 Q88.816 673.816 88.816 665.089 Q88.816 656.339 91.8715 651.756 Q94.9502 647.149 100.76 647.149 Z" fill="#000000" fill-rule="nonzero" fill-opacity="1" /><path clip-path="url(#clip970)" d="M120.922 676.455 L125.807 676.455 L125.807 682.334 L120.922 682.334 L120.922 676.455 Z" fill="#000000" fill-rule="nonzero" fill-opacity="1" /><path clip-path="url(#clip970)" d="M145.992 650.853 Q142.381 650.853 140.552 654.418 Q138.746 657.96 138.746 665.089 Q138.746 672.196 140.552 675.76 Q142.381 679.302 145.992 679.302 Q149.626 679.302 151.431 675.76 Q153.26 672.196 153.26 665.089 Q153.26 657.96 151.431 654.418 Q149.626 650.853 145.992 650.853 M145.992 647.149 Q151.802 647.149 154.857 651.756 Q157.936 656.339 157.936 665.089 Q157.936 673.816 154.857 678.422 Q151.802 683.006 145.992 683.006 Q140.181 683.006 137.103 678.422 Q134.047 673.816 134.047 665.089 Q134.047 656.339 137.103 651.756 Q140.181 647.149 145.992 647.149 Z" fill="#000000" fill-rule="nonzero" fill-opacity="1" /><path clip-path="url(#clip970)" d="M101.756 426.804 Q98.1447 426.804 96.316 430.369 Q94.5104 433.911 94.5104 441.04 Q94.5104 448.147 96.316 451.712 Q98.1447 455.253 101.756 455.253 Q105.39 455.253 107.196 451.712 Q109.024 448.147 109.024 441.04 Q109.024 433.911 107.196 430.369 Q105.39 426.804 101.756 426.804 M101.756 423.101 Q107.566 423.101 110.621 427.707 Q113.7 432.291 113.7 441.04 Q113.7 449.767 110.621 454.374 Q107.566 458.957 101.756 458.957 Q95.9456 458.957 92.8669 454.374 Q89.8114 449.767 89.8114 441.04 Q89.8114 432.291 92.8669 427.707 Q95.9456 423.101 101.756 423.101 Z" fill="#000000" fill-rule="nonzero" fill-opacity="1" /><path clip-path="url(#clip970)" d="M121.918 452.406 L126.802 452.406 L126.802 458.286 L121.918 458.286 L121.918 452.406 Z" fill="#000000" fill-rule="nonzero" fill-opacity="1" /><path clip-path="url(#clip970)" d="M137.033 423.726 L155.39 423.726 L155.39 427.661 L141.316 427.661 L141.316 436.133 Q142.334 435.786 143.353 435.624 Q144.371 435.439 145.39 435.439 Q151.177 435.439 154.556 438.61 Q157.936 441.781 157.936 447.198 Q157.936 452.777 154.464 455.878 Q150.992 458.957 144.672 458.957 Q142.496 458.957 140.228 458.587 Q137.982 458.216 135.575 457.476 L135.575 452.777 Q137.658 453.911 139.881 454.466 Q142.103 455.022 144.58 455.022 Q148.584 455.022 150.922 452.915 Q153.26 450.809 153.26 447.198 Q153.26 443.587 150.922 441.48 Q148.584 439.374 144.58 439.374 Q142.705 439.374 140.83 439.79 Q138.978 440.207 137.033 441.087 L137.033 423.726 Z" fill="#000000" fill-rule="nonzero" fill-opacity="1" /><path clip-path="url(#clip970)" d="M91.5706 230.302 L99.2095 230.302 L99.2095 203.936 L90.8993 205.603 L90.8993 201.344 L99.1632 199.677 L103.839 199.677 L103.839 230.302 L111.478 230.302 L111.478 234.237 L91.5706 234.237 L91.5706 230.302 Z" fill="#000000" fill-rule="nonzero" fill-opacity="1" /><path clip-path="url(#clip970)" d="M120.922 228.357 L125.807 228.357 L125.807 234.237 L120.922 234.237 L120.922 228.357 Z" fill="#000000" fill-rule="nonzero" fill-opacity="1" /><path clip-path="url(#clip970)" d="M145.992 202.756 Q142.381 202.756 140.552 206.321 Q138.746 209.862 138.746 216.992 Q138.746 224.098 140.552 227.663 Q142.381 231.205 145.992 231.205 Q149.626 231.205 151.431 227.663 Q153.26 224.098 153.26 216.992 Q153.26 209.862 151.431 206.321 Q149.626 202.756 145.992 202.756 M145.992 199.052 Q151.802 199.052 154.857 203.659 Q157.936 208.242 157.936 216.992 Q157.936 225.719 154.857 230.325 Q151.802 234.908 145.992 234.908 Q140.181 234.908 137.103 230.325 Q134.047 225.719 134.047 216.992 Q134.047 208.242 137.103 203.659 Q140.181 199.052 145.992 199.052 Z" fill="#000000" fill-rule="nonzero" fill-opacity="1" /><circle clip-path="url(#clip972)" cx="1623.44" cy="935.38" r="14.4" fill="#009af9" fill-rule="evenodd" fill-opacity="0.5" stroke="#000000" stroke-opacity="0.5" stroke-width="3.2"/>
<circle clip-path="url(#clip972)" cx="1581.49" cy="680.627" r="14.4" fill="#009af9" fill-rule="evenodd" fill-opacity="0.5" stroke="#000000" stroke-opacity="0.5" stroke-width="3.2"/>
<circle clip-path="url(#clip972)" cx="1719.38" cy="365.526" r="14.4" fill="#009af9" fill-rule="evenodd" fill-opacity="0.5" stroke="#000000" stroke-opacity="0.5" stroke-width="3.2"/>
<circle clip-path="url(#clip972)" cx="766.15" cy="592.022" r="14.4" fill="#009af9" fill-rule="evenodd" fill-opacity="0.5" stroke="#000000" stroke-opacity="0.5" stroke-width="3.2"/>
<circle clip-path="url(#clip972)" cx="1339.85" cy="986.417" r="14.4" fill="#009af9" fill-rule="evenodd" fill-opacity="0.5" stroke="#000000" stroke-opacity="0.5" stroke-width="3.2"/>
<circle clip-path="url(#clip972)" cx="1531.32" cy="411.764" r="14.4" fill="#009af9" fill-rule="evenodd" fill-opacity="0.5" stroke="#000000" stroke-opacity="0.5" stroke-width="3.2"/>
<circle clip-path="url(#clip972)" cx="1742.31" cy="436.221" r="14.4" fill="#009af9" fill-rule="evenodd" fill-opacity="0.5" stroke="#000000" stroke-opacity="0.5" stroke-width="3.2"/>
<circle clip-path="url(#clip972)" cx="1723.26" cy="596.586" r="14.4" fill="#009af9" fill-rule="evenodd" fill-opacity="0.5" stroke="#000000" stroke-opacity="0.5" stroke-width="3.2"/>
<circle clip-path="url(#clip972)" cx="1775.12" cy="359.894" r="14.4" fill="#009af9" fill-rule="evenodd" fill-opacity="0.5" stroke="#000000" stroke-opacity="0.5" stroke-width="3.2"/>
<circle clip-path="url(#clip972)" cx="1097.32" cy="1220.44" r="14.4" fill="#009af9" fill-rule="evenodd" fill-opacity="0.5" stroke="#000000" stroke-opacity="0.5" stroke-width="3.2"/>
<circle clip-path="url(#clip972)" cx="1805.07" cy="1181.96" r="14.4" fill="#009af9" fill-rule="evenodd" fill-opacity="0.5" stroke="#000000" stroke-opacity="0.5" stroke-width="3.2"/>
<circle clip-path="url(#clip972)" cx="1425.63" cy="1445.72" r="14.4" fill="#009af9" fill-rule="evenodd" fill-opacity="0.5" stroke="#000000" stroke-opacity="0.5" stroke-width="3.2"/>
<circle clip-path="url(#clip972)" cx="1242.24" cy="229.818" r="14.4" fill="#009af9" fill-rule="evenodd" fill-opacity="0.5" stroke="#000000" stroke-opacity="0.5" stroke-width="3.2"/>
<circle clip-path="url(#clip972)" cx="1974.37" cy="768.189" r="14.4" fill="#009af9" fill-rule="evenodd" fill-opacity="0.5" stroke="#000000" stroke-opacity="0.5" stroke-width="3.2"/>
<circle clip-path="url(#clip972)" cx="1782.81" cy="99.0411" r="14.4" fill="#009af9" fill-rule="evenodd" fill-opacity="0.5" stroke="#000000" stroke-opacity="0.5" stroke-width="3.2"/>
<circle clip-path="url(#clip972)" cx="894.543" cy="1204.8" r="14.4" fill="#009af9" fill-rule="evenodd" fill-opacity="0.5" stroke="#000000" stroke-opacity="0.5" stroke-width="3.2"/>
<circle clip-path="url(#clip972)" cx="1564.82" cy="221.861" r="14.4" fill="#009af9" fill-rule="evenodd" fill-opacity="0.5" stroke="#000000" stroke-opacity="0.5" stroke-width="3.2"/>
<circle clip-path="url(#clip972)" cx="928.349" cy="518.35" r="14.4" fill="#009af9" fill-rule="evenodd" fill-opacity="0.5" stroke="#000000" stroke-opacity="0.5" stroke-width="3.2"/>
<circle clip-path="url(#clip972)" cx="2031.02" cy="244.984" r="14.4" fill="#009af9" fill-rule="evenodd" fill-opacity="0.5" stroke="#000000" stroke-opacity="0.5" stroke-width="3.2"/>
<circle clip-path="url(#clip972)" cx="1696.29" cy="993.741" r="14.4" fill="#009af9" fill-rule="evenodd" fill-opacity="0.5" stroke="#000000" stroke-opacity="0.5" stroke-width="3.2"/>
<circle clip-path="url(#clip972)" cx="1644.59" cy="269.236" r="14.4" fill="#009af9" fill-rule="evenodd" fill-opacity="0.5" stroke="#000000" stroke-opacity="0.5" stroke-width="3.2"/>
<circle clip-path="url(#clip972)" cx="1096.49" cy="552.687" r="14.4" fill="#009af9" fill-rule="evenodd" fill-opacity="0.5" stroke="#000000" stroke-opacity="0.5" stroke-width="3.2"/>
<circle clip-path="url(#clip972)" cx="2291.66" cy="281.391" r="14.4" fill="#009af9" fill-rule="evenodd" fill-opacity="0.5" stroke="#000000" stroke-opacity="0.5" stroke-width="3.2"/>
<circle clip-path="url(#clip972)" cx="820.747" cy="191.762" r="14.4" fill="#009af9" fill-rule="evenodd" fill-opacity="0.5" stroke="#000000" stroke-opacity="0.5" stroke-width="3.2"/>
<circle clip-path="url(#clip972)" cx="1085.63" cy="87.9763" r="14.4" fill="#009af9" fill-rule="evenodd" fill-opacity="0.5" stroke="#000000" stroke-opacity="0.5" stroke-width="3.2"/>
<circle clip-path="url(#clip972)" cx="255.035" cy="347.237" r="14.4" fill="#009af9" fill-rule="evenodd" fill-opacity="0.5" stroke="#000000" stroke-opacity="0.5" stroke-width="3.2"/>
<circle clip-path="url(#clip972)" cx="766.744" cy="210.069" r="14.4" fill="#009af9" fill-rule="evenodd" fill-opacity="0.5" stroke="#000000" stroke-opacity="0.5" stroke-width="3.2"/>
<circle clip-path="url(#clip972)" cx="786.996" cy="811.483" r="14.4" fill="#009af9" fill-rule="evenodd" fill-opacity="0.5" stroke="#000000" stroke-opacity="0.5" stroke-width="3.2"/>
<circle clip-path="url(#clip972)" cx="2069.22" cy="844.409" r="14.4" fill="#009af9" fill-rule="evenodd" fill-opacity="0.5" stroke="#000000" stroke-opacity="0.5" stroke-width="3.2"/>
<circle clip-path="url(#clip972)" cx="1327.4" cy="569.142" r="14.4" fill="#009af9" fill-rule="evenodd" fill-opacity="0.5" stroke="#000000" stroke-opacity="0.5" stroke-width="3.2"/>
<path clip-path="url(#clip972)" d="M255.035 347.237 L894.543 1204.8 L1425.63 1445.72 L1805.07 1181.96 L2069.22 844.409 L2291.66 281.391 L1782.81 99.0411 L1085.63 87.9763 L255.035 347.237 L255.035 347.237  Z" fill="#e26f46" fill-rule="evenodd" fill-opacity="0.2"/>
<polyline clip-path="url(#clip972)" style="stroke:#000000; stroke-linecap:round; stroke-linejoin:round; stroke-width:4; stroke-opacity:0.2; fill:none" points="255.035,347.237 894.543,1204.8 1425.63,1445.72 1805.07,1181.96 2069.22,844.409 2291.66,281.391 1782.81,99.0411 1085.63,87.9763 255.035,347.237 "/>
</svg>
