<?xml version="1.0" encoding="utf-8"?>
<svg xmlns="http://www.w3.org/2000/svg" xmlns:xlink="http://www.w3.org/1999/xlink" width="600" height="400" viewBox="0 0 2400 1600">
<defs>
  <clipPath id="clip220">
    <rect x="0" y="0" width="2400" height="1600"/>
  </clipPath>
</defs>
<path clip-path="url(#clip220)" d="M0 1600 L2400 1600 L2400 0 L0 0  Z" fill="#ffffff" fill-rule="evenodd" fill-opacity="1"/>
<defs>
  <clipPath id="clip221">
    <rect x="147" y="47" width="2206" height="1440"/>
  </clipPath>
</defs>
<path clip-path="url(#clip220)" d="M147.478 1486.45 L2352.76 1486.45 L2352.76 47.2441 L147.478 47.2441  Z" fill="#ffffff" fill-rule="evenodd" fill-opacity="1"/>
<polyline clip-path="url(#clip221)" style="stroke:#000000; stroke-linecap:round; stroke-linejoin:round; stroke-width:2; stroke-opacity:0.1; fill:none" points="150.304,1486.45 150.304,47.2441 "/>
<polyline clip-path="url(#clip221)" style="stroke:#000000; stroke-linecap:round; stroke-linejoin:round; stroke-width:2; stroke-opacity:0.1; fill:none" points="511.404,1486.45 511.404,47.2441 "/>
<polyline clip-path="url(#clip221)" style="stroke:#000000; stroke-linecap:round; stroke-linejoin:round; stroke-width:2; stroke-opacity:0.1; fill:none" points="872.505,1486.45 872.505,47.2441 "/>
<polyline clip-path="url(#clip221)" style="stroke:#000000; stroke-linecap:round; stroke-linejoin:round; stroke-width:2; stroke-opacity:0.1; fill:none" points="1233.61,1486.45 1233.61,47.2441 "/>
<polyline clip-path="url(#clip221)" style="stroke:#000000; stroke-linecap:round; stroke-linejoin:round; stroke-width:2; stroke-opacity:0.1; fill:none" points="1594.71,1486.45 1594.71,47.2441 "/>
<polyline clip-path="url(#clip221)" style="stroke:#000000; stroke-linecap:round; stroke-linejoin:round; stroke-width:2; stroke-opacity:0.1; fill:none" points="1955.81,1486.45 1955.81,47.2441 "/>
<polyline clip-path="url(#clip221)" style="stroke:#000000; stroke-linecap:round; stroke-linejoin:round; stroke-width:2; stroke-opacity:0.1; fill:none" points="2316.91,1486.45 2316.91,47.2441 "/>
<polyline clip-path="url(#clip221)" style="stroke:#000000; stroke-linecap:round; stroke-linejoin:round; stroke-width:2; stroke-opacity:0.1; fill:none" points="147.478,1315.03 2352.76,1315.03 "/>
<polyline clip-path="url(#clip221)" style="stroke:#000000; stroke-linecap:round; stroke-linejoin:round; stroke-width:2; stroke-opacity:0.1; fill:none" points="147.478,947.143 2352.76,947.143 "/>
<polyline clip-path="url(#clip221)" style="stroke:#000000; stroke-linecap:round; stroke-linejoin:round; stroke-width:2; stroke-opacity:0.1; fill:none" points="147.478,579.259 2352.76,579.259 "/>
<polyline clip-path="url(#clip221)" style="stroke:#000000; stroke-linecap:round; stroke-linejoin:round; stroke-width:2; stroke-opacity:0.1; fill:none" points="147.478,211.374 2352.76,211.374 "/>
<polyline clip-path="url(#clip220)" style="stroke:#000000; stroke-linecap:round; stroke-linejoin:round; stroke-width:4; stroke-opacity:1; fill:none" points="147.478,1486.45 2352.76,1486.45 "/>
<polyline clip-path="url(#clip220)" style="stroke:#000000; stroke-linecap:round; stroke-linejoin:round; stroke-width:4; stroke-opacity:1; fill:none" points="150.304,1486.45 150.304,1467.55 "/>
<polyline clip-path="url(#clip220)" style="stroke:#000000; stroke-linecap:round; stroke-linejoin:round; stroke-width:4; stroke-opacity:1; fill:none" points="511.404,1486.45 511.404,1467.55 "/>
<polyline clip-path="url(#clip220)" style="stroke:#000000; stroke-linecap:round; stroke-linejoin:round; stroke-width:4; stroke-opacity:1; fill:none" points="872.505,1486.45 872.505,1467.55 "/>
<polyline clip-path="url(#clip220)" style="stroke:#000000; stroke-linecap:round; stroke-linejoin:round; stroke-width:4; stroke-opacity:1; fill:none" points="1233.61,1486.45 1233.61,1467.55 "/>
<polyline clip-path="url(#clip220)" style="stroke:#000000; stroke-linecap:round; stroke-linejoin:round; stroke-width:4; stroke-opacity:1; fill:none" points="1594.71,1486.45 1594.71,1467.55 "/>
<polyline clip-path="url(#clip220)" style="stroke:#000000; stroke-linecap:round; stroke-linejoin:round; stroke-width:4; stroke-opacity:1; fill:none" points="1955.81,1486.45 1955.81,1467.55 "/>
<polyline clip-path="url(#clip220)" style="stroke:#000000; stroke-linecap:round; stroke-linejoin:round; stroke-width:4; stroke-opacity:1; fill:none" points="2316.91,1486.45 2316.91,1467.55 "/>
<path clip-path="url(#clip220)" d="M97.3297 1532.02 L127.005 1532.02 L127.005 1535.95 L97.3297 1535.95 L97.3297 1532.02 Z" fill="#000000" fill-rule="nonzero" fill-opacity="1" /><path clip-path="url(#clip220)" d="M137.908 1544.91 L145.547 1544.91 L145.547 1518.55 L137.237 1520.21 L137.237 1515.95 L145.501 1514.29 L150.177 1514.29 L150.177 1544.91 L157.816 1544.91 L157.816 1548.85 L137.908 1548.85 L137.908 1544.91 Z" fill="#000000" fill-rule="nonzero" fill-opacity="1" /><path clip-path="url(#clip220)" d="M167.26 1542.97 L172.144 1542.97 L172.144 1548.85 L167.26 1548.85 L167.26 1542.97 Z" fill="#000000" fill-rule="nonzero" fill-opacity="1" /><path clip-path="url(#clip220)" d="M182.376 1514.29 L200.732 1514.29 L200.732 1518.22 L186.658 1518.22 L186.658 1526.7 Q187.676 1526.35 188.695 1526.19 Q189.713 1526 190.732 1526 Q196.519 1526 199.899 1529.17 Q203.278 1532.34 203.278 1537.76 Q203.278 1543.34 199.806 1546.44 Q196.334 1549.52 190.014 1549.52 Q187.838 1549.52 185.57 1549.15 Q183.325 1548.78 180.917 1548.04 L180.917 1543.34 Q183.001 1544.47 185.223 1545.03 Q187.445 1545.58 189.922 1545.58 Q193.926 1545.58 196.264 1543.48 Q198.602 1541.37 198.602 1537.76 Q198.602 1534.15 196.264 1532.04 Q193.926 1529.94 189.922 1529.94 Q188.047 1529.94 186.172 1530.35 Q184.32 1530.77 182.376 1531.65 L182.376 1514.29 Z" fill="#000000" fill-rule="nonzero" fill-opacity="1" /><path clip-path="url(#clip220)" d="M457.932 1532.02 L487.608 1532.02 L487.608 1535.95 L457.932 1535.95 L457.932 1532.02 Z" fill="#000000" fill-rule="nonzero" fill-opacity="1" /><path clip-path="url(#clip220)" d="M498.511 1544.91 L506.15 1544.91 L506.15 1518.55 L497.84 1520.21 L497.84 1515.95 L506.103 1514.29 L510.779 1514.29 L510.779 1544.91 L518.418 1544.91 L518.418 1548.85 L498.511 1548.85 L498.511 1544.91 Z" fill="#000000" fill-rule="nonzero" fill-opacity="1" /><path clip-path="url(#clip220)" d="M527.863 1542.97 L532.747 1542.97 L532.747 1548.85 L527.863 1548.85 L527.863 1542.97 Z" fill="#000000" fill-rule="nonzero" fill-opacity="1" /><path clip-path="url(#clip220)" d="M552.932 1517.37 Q549.321 1517.37 547.492 1520.93 Q545.687 1524.47 545.687 1531.6 Q545.687 1538.71 547.492 1542.27 Q549.321 1545.82 552.932 1545.82 Q556.566 1545.82 558.372 1542.27 Q560.2 1538.71 560.2 1531.6 Q560.2 1524.47 558.372 1520.93 Q556.566 1517.37 552.932 1517.37 M552.932 1513.66 Q558.742 1513.66 561.798 1518.27 Q564.876 1522.85 564.876 1531.6 Q564.876 1540.33 561.798 1544.94 Q558.742 1549.52 552.932 1549.52 Q547.122 1549.52 544.043 1544.94 Q540.988 1540.33 540.988 1531.6 Q540.988 1522.85 544.043 1518.27 Q547.122 1513.66 552.932 1513.66 Z" fill="#000000" fill-rule="nonzero" fill-opacity="1" /><path clip-path="url(#clip220)" d="M819.531 1532.02 L849.206 1532.02 L849.206 1535.95 L819.531 1535.95 L819.531 1532.02 Z" fill="#000000" fill-rule="nonzero" fill-opacity="1" /><path clip-path="url(#clip220)" d="M869.299 1517.37 Q865.688 1517.37 863.859 1520.93 Q862.053 1524.47 862.053 1531.6 Q862.053 1538.71 863.859 1542.27 Q865.688 1545.82 869.299 1545.82 Q872.933 1545.82 874.739 1542.27 Q876.567 1538.71 876.567 1531.6 Q876.567 1524.47 874.739 1520.93 Q872.933 1517.37 869.299 1517.37 M869.299 1513.66 Q875.109 1513.66 878.165 1518.27 Q881.243 1522.85 881.243 1531.6 Q881.243 1540.33 878.165 1544.94 Q875.109 1549.52 869.299 1549.52 Q863.489 1549.52 860.41 1544.94 Q857.354 1540.33 857.354 1531.6 Q857.354 1522.85 860.41 1518.27 Q863.489 1513.66 869.299 1513.66 Z" fill="#000000" fill-rule="nonzero" fill-opacity="1" /><path clip-path="url(#clip220)" d="M889.461 1542.97 L894.345 1542.97 L894.345 1548.85 L889.461 1548.85 L889.461 1542.97 Z" fill="#000000" fill-rule="nonzero" fill-opacity="1" /><path clip-path="url(#clip220)" d="M904.576 1514.29 L922.933 1514.29 L922.933 1518.22 L908.859 1518.22 L908.859 1526.7 Q909.877 1526.35 910.896 1526.19 Q911.914 1526 912.933 1526 Q918.72 1526 922.099 1529.17 Q925.479 1532.34 925.479 1537.76 Q925.479 1543.34 922.007 1546.44 Q918.535 1549.52 912.215 1549.52 Q910.039 1549.52 907.771 1549.15 Q905.525 1548.78 903.118 1548.04 L903.118 1543.34 Q905.201 1544.47 907.424 1545.03 Q909.646 1545.58 912.123 1545.58 Q916.127 1545.58 918.465 1543.48 Q920.803 1541.37 920.803 1537.76 Q920.803 1534.15 918.465 1532.04 Q916.127 1529.94 912.123 1529.94 Q910.248 1529.94 908.373 1530.35 Q906.521 1530.77 904.576 1531.65 L904.576 1514.29 Z" fill="#000000" fill-rule="nonzero" fill-opacity="1" /><path clip-path="url(#clip220)" d="M1210.99 1517.37 Q1207.38 1517.37 1205.55 1520.93 Q1203.74 1524.47 1203.74 1531.6 Q1203.74 1538.71 1205.55 1542.27 Q1207.38 1545.82 1210.99 1545.82 Q1214.62 1545.82 1216.43 1542.27 Q1218.26 1538.71 1218.26 1531.6 Q1218.26 1524.47 1216.43 1520.93 Q1214.62 1517.37 1210.99 1517.37 M1210.99 1513.66 Q1216.8 1513.66 1219.86 1518.27 Q1222.93 1522.85 1222.93 1531.6 Q1222.93 1540.33 1219.86 1544.94 Q1216.8 1549.52 1210.99 1549.52 Q1205.18 1549.52 1202.1 1544.94 Q1199.05 1540.33 1199.05 1531.6 Q1199.05 1522.85 1202.1 1518.27 Q1205.18 1513.66 1210.99 1513.66 Z" fill="#000000" fill-rule="nonzero" fill-opacity="1" /><path clip-path="url(#clip220)" d="M1231.15 1542.97 L1236.04 1542.97 L1236.04 1548.85 L1231.15 1548.85 L1231.15 1542.97 Z" fill="#000000" fill-rule="nonzero" fill-opacity="1" /><path clip-path="url(#clip220)" d="M1256.22 1517.37 Q1252.61 1517.37 1250.78 1520.93 Q1248.98 1524.47 1248.98 1531.6 Q1248.98 1538.71 1250.78 1542.27 Q1252.61 1545.82 1256.22 1545.82 Q1259.86 1545.82 1261.66 1542.27 Q1263.49 1538.71 1263.49 1531.6 Q1263.49 1524.47 1261.66 1520.93 Q1259.86 1517.37 1256.22 1517.37 M1256.22 1513.66 Q1262.03 1513.66 1265.09 1518.27 Q1268.17 1522.85 1268.17 1531.6 Q1268.17 1540.33 1265.09 1544.94 Q1262.03 1549.52 1256.22 1549.52 Q1250.41 1549.52 1247.33 1544.94 Q1244.28 1540.33 1244.28 1531.6 Q1244.28 1522.85 1247.33 1518.27 Q1250.41 1513.66 1256.22 1513.66 Z" fill="#000000" fill-rule="nonzero" fill-opacity="1" /><path clip-path="url(#clip220)" d="M1572.59 1517.37 Q1568.98 1517.37 1567.15 1520.93 Q1565.34 1524.47 1565.34 1531.6 Q1565.34 1538.71 1567.15 1542.27 Q1568.98 1545.82 1572.59 1545.82 Q1576.22 1545.82 1578.03 1542.27 Q1579.86 1538.71 1579.86 1531.6 Q1579.86 1524.47 1578.03 1520.93 Q1576.22 1517.37 1572.59 1517.37 M1572.59 1513.66 Q1578.4 1513.66 1581.45 1518.27 Q1584.53 1522.85 1584.53 1531.6 Q1584.53 1540.33 1581.45 1544.94 Q1578.4 1549.52 1572.59 1549.52 Q1566.78 1549.52 1563.7 1544.94 Q1560.64 1540.33 1560.64 1531.6 Q1560.64 1522.85 1563.7 1518.27 Q1566.78 1513.66 1572.59 1513.66 Z" fill="#000000" fill-rule="nonzero" fill-opacity="1" /><path clip-path="url(#clip220)" d="M1592.75 1542.97 L1597.63 1542.97 L1597.63 1548.85 L1592.75 1548.85 L1592.75 1542.97 Z" fill="#000000" fill-rule="nonzero" fill-opacity="1" /><path clip-path="url(#clip220)" d="M1607.87 1514.29 L1626.22 1514.29 L1626.22 1518.22 L1612.15 1518.22 L1612.15 1526.7 Q1613.17 1526.35 1614.18 1526.19 Q1615.2 1526 1616.22 1526 Q1622.01 1526 1625.39 1529.17 Q1628.77 1532.34 1628.77 1537.76 Q1628.77 1543.34 1625.3 1546.44 Q1621.82 1549.52 1615.5 1549.52 Q1613.33 1549.52 1611.06 1549.15 Q1608.81 1548.78 1606.41 1548.04 L1606.41 1543.34 Q1608.49 1544.47 1610.71 1545.03 Q1612.93 1545.58 1615.41 1545.58 Q1619.42 1545.58 1621.75 1543.48 Q1624.09 1541.37 1624.09 1537.76 Q1624.09 1534.15 1621.75 1532.04 Q1619.42 1529.94 1615.41 1529.94 Q1613.54 1529.94 1611.66 1530.35 Q1609.81 1530.77 1607.87 1531.65 L1607.87 1514.29 Z" fill="#000000" fill-rule="nonzero" fill-opacity="1" /><path clip-path="url(#clip220)" d="M1922.96 1544.91 L1930.6 1544.91 L1930.6 1518.55 L1922.29 1520.21 L1922.29 1515.95 L1930.55 1514.29 L1935.23 1514.29 L1935.23 1544.91 L1942.87 1544.91 L1942.87 1548.85 L1922.96 1548.85 L1922.96 1544.91 Z" fill="#000000" fill-rule="nonzero" fill-opacity="1" /><path clip-path="url(#clip220)" d="M1952.31 1542.97 L1957.19 1542.97 L1957.19 1548.85 L1952.31 1548.85 L1952.31 1542.97 Z" fill="#000000" fill-rule="nonzero" fill-opacity="1" /><path clip-path="url(#clip220)" d="M1977.38 1517.37 Q1973.77 1517.37 1971.94 1520.93 Q1970.13 1524.47 1970.13 1531.6 Q1970.13 1538.71 1971.94 1542.27 Q1973.77 1545.82 1977.38 1545.82 Q1981.01 1545.82 1982.82 1542.27 Q1984.65 1538.71 1984.65 1531.6 Q1984.65 1524.47 1982.82 1520.93 Q1981.01 1517.37 1977.38 1517.37 M1977.38 1513.66 Q1983.19 1513.66 1986.25 1518.27 Q1989.32 1522.85 1989.32 1531.6 Q1989.32 1540.33 1986.25 1544.94 Q1983.19 1549.52 1977.38 1549.52 Q1971.57 1549.52 1968.49 1544.94 Q1965.44 1540.33 1965.44 1531.6 Q1965.44 1522.85 1968.49 1518.27 Q1971.57 1513.66 1977.38 1513.66 Z" fill="#000000" fill-rule="nonzero" fill-opacity="1" /><path clip-path="url(#clip220)" d="M2284.56 1544.91 L2292.2 1544.91 L2292.2 1518.55 L2283.89 1520.21 L2283.89 1515.95 L2292.15 1514.29 L2296.83 1514.29 L2296.83 1544.91 L2304.46 1544.91 L2304.46 1548.85 L2284.56 1548.85 L2284.56 1544.91 Z" fill="#000000" fill-rule="nonzero" fill-opacity="1" /><path clip-path="url(#clip220)" d="M2313.91 1542.97 L2318.79 1542.97 L2318.79 1548.85 L2313.91 1548.85 L2313.91 1542.97 Z" fill="#000000" fill-rule="nonzero" fill-opacity="1" /><path clip-path="url(#clip220)" d="M2329.02 1514.29 L2347.38 1514.29 L2347.38 1518.22 L2333.31 1518.22 L2333.31 1526.7 Q2334.33 1526.35 2335.34 1526.19 Q2336.36 1526 2337.38 1526 Q2343.17 1526 2346.55 1529.17 Q2349.93 1532.34 2349.93 1537.76 Q2349.93 1543.34 2346.45 1546.44 Q2342.98 1549.52 2336.66 1549.52 Q2334.49 1549.52 2332.22 1549.15 Q2329.97 1548.78 2327.57 1548.04 L2327.57 1543.34 Q2329.65 1544.47 2331.87 1545.03 Q2334.09 1545.58 2336.57 1545.58 Q2340.58 1545.58 2342.91 1543.48 Q2345.25 1541.37 2345.25 1537.76 Q2345.25 1534.15 2342.91 1532.04 Q2340.58 1529.94 2336.57 1529.94 Q2334.7 1529.94 2332.82 1530.35 Q2330.97 1530.77 2329.02 1531.65 L2329.02 1514.29 Z" fill="#000000" fill-rule="nonzero" fill-opacity="1" /><polyline clip-path="url(#clip220)" style="stroke:#000000; stroke-linecap:round; stroke-linejoin:round; stroke-width:4; stroke-opacity:1; fill:none" points="147.478,1486.45 147.478,47.2441 "/>
<polyline clip-path="url(#clip220)" style="stroke:#000000; stroke-linecap:round; stroke-linejoin:round; stroke-width:4; stroke-opacity:1; fill:none" points="147.478,1315.03 166.376,1315.03 "/>
<polyline clip-path="url(#clip220)" style="stroke:#000000; stroke-linecap:round; stroke-linejoin:round; stroke-width:4; stroke-opacity:1; fill:none" points="147.478,947.143 166.376,947.143 "/>
<polyline clip-path="url(#clip220)" style="stroke:#000000; stroke-linecap:round; stroke-linejoin:round; stroke-width:4; stroke-opacity:1; fill:none" points="147.478,579.259 166.376,579.259 "/>
<polyline clip-path="url(#clip220)" style="stroke:#000000; stroke-linecap:round; stroke-linejoin:round; stroke-width:4; stroke-opacity:1; fill:none" points="147.478,211.374 166.376,211.374 "/>
<path clip-path="url(#clip220)" d="M50.9921 1315.48 L80.6679 1315.48 L80.6679 1319.41 L50.9921 1319.41 L50.9921 1315.48 Z" fill="#000000" fill-rule="nonzero" fill-opacity="1" /><path clip-path="url(#clip220)" d="M91.5706 1328.37 L99.2095 1328.37 L99.2095 1302.01 L90.8993 1303.67 L90.8993 1299.41 L99.1632 1297.75 L103.839 1297.75 L103.839 1328.37 L111.478 1328.37 L111.478 1332.31 L91.5706 1332.31 L91.5706 1328.37 Z" fill="#000000" fill-rule="nonzero" fill-opacity="1" /><path clip-path="url(#clip220)" d="M99.5335 932.942 Q95.9224 932.942 94.0937 936.507 Q92.2882 940.048 92.2882 947.178 Q92.2882 954.284 94.0937 957.849 Q95.9224 961.391 99.5335 961.391 Q103.168 961.391 104.973 957.849 Q106.802 954.284 106.802 947.178 Q106.802 940.048 104.973 936.507 Q103.168 932.942 99.5335 932.942 M99.5335 929.238 Q105.344 929.238 108.399 933.845 Q111.478 938.428 111.478 947.178 Q111.478 955.905 108.399 960.511 Q105.344 965.095 99.5335 965.095 Q93.7234 965.095 90.6447 960.511 Q87.5892 955.905 87.5892 947.178 Q87.5892 938.428 90.6447 933.845 Q93.7234 929.238 99.5335 929.238 Z" fill="#000000" fill-rule="nonzero" fill-opacity="1" /><path clip-path="url(#clip220)" d="M91.5706 592.603 L99.2095 592.603 L99.2095 566.238 L90.8993 567.905 L90.8993 563.645 L99.1632 561.979 L103.839 561.979 L103.839 592.603 L111.478 592.603 L111.478 596.539 L91.5706 596.539 L91.5706 592.603 Z" fill="#000000" fill-rule="nonzero" fill-opacity="1" /><path clip-path="url(#clip220)" d="M95.1586 224.719 L111.478 224.719 L111.478 228.654 L89.5336 228.654 L89.5336 224.719 Q92.1956 221.964 96.7789 217.335 Q101.385 212.682 102.566 211.339 Q104.811 208.816 105.691 207.08 Q106.594 205.321 106.594 203.631 Q106.594 200.876 104.649 199.14 Q102.728 197.404 99.6261 197.404 Q97.4271 197.404 94.9734 198.168 Q92.5428 198.932 89.7651 200.483 L89.7651 195.761 Q92.5891 194.626 95.0428 194.048 Q97.4965 193.469 99.5335 193.469 Q104.904 193.469 108.098 196.154 Q111.293 198.839 111.293 203.33 Q111.293 205.46 110.483 207.381 Q109.696 209.279 107.589 211.872 Q107.01 212.543 103.909 215.761 Q100.807 218.955 95.1586 224.719 Z" fill="#000000" fill-rule="nonzero" fill-opacity="1" /><circle clip-path="url(#clip221)" cx="660.945" cy="724.966" r="14.4" fill="#009af9" fill-rule="evenodd" fill-opacity="0.5" stroke="#000000" stroke-opacity="0.5" stroke-width="3.2"/>
<circle clip-path="url(#clip221)" cx="497.371" cy="798.168" r="14.4" fill="#009af9" fill-rule="evenodd" fill-opacity="0.5" stroke="#000000" stroke-opacity="0.5" stroke-width="3.2"/>
<circle clip-path="url(#clip221)" cx="686.066" cy="970.9" r="14.4" fill="#009af9" fill-rule="evenodd" fill-opacity="0.5" stroke="#000000" stroke-opacity="0.5" stroke-width="3.2"/>
<circle clip-path="url(#clip221)" cx="1065.97" cy="87.9763" r="14.4" fill="#009af9" fill-rule="evenodd" fill-opacity="0.5" stroke="#000000" stroke-opacity="0.5" stroke-width="3.2"/>
<circle clip-path="url(#clip221)" cx="1431.24" cy="1430.62" r="14.4" fill="#009af9" fill-rule="evenodd" fill-opacity="0.5" stroke="#000000" stroke-opacity="0.5" stroke-width="3.2"/>
<circle clip-path="url(#clip221)" cx="994.636" cy="1002.31" r="14.4" fill="#009af9" fill-rule="evenodd" fill-opacity="0.5" stroke="#000000" stroke-opacity="0.5" stroke-width="3.2"/>
<circle clip-path="url(#clip221)" cx="1688.2" cy="1209.01" r="14.4" fill="#009af9" fill-rule="evenodd" fill-opacity="0.5" stroke="#000000" stroke-opacity="0.5" stroke-width="3.2"/>
<circle clip-path="url(#clip221)" cx="2290.34" cy="628.14" r="14.4" fill="#009af9" fill-rule="evenodd" fill-opacity="0.5" stroke="#000000" stroke-opacity="0.5" stroke-width="3.2"/>
<circle clip-path="url(#clip221)" cx="1692.07" cy="1254.64" r="14.4" fill="#009af9" fill-rule="evenodd" fill-opacity="0.5" stroke="#000000" stroke-opacity="0.5" stroke-width="3.2"/>
<circle clip-path="url(#clip221)" cx="1930.85" cy="1001.03" r="14.4" fill="#009af9" fill-rule="evenodd" fill-opacity="0.5" stroke="#000000" stroke-opacity="0.5" stroke-width="3.2"/>
<circle clip-path="url(#clip221)" cx="1291.2" cy="783.962" r="14.4" fill="#009af9" fill-rule="evenodd" fill-opacity="0.5" stroke="#000000" stroke-opacity="0.5" stroke-width="3.2"/>
<circle clip-path="url(#clip221)" cx="1044.37" cy="379.668" r="14.4" fill="#009af9" fill-rule="evenodd" fill-opacity="0.5" stroke="#000000" stroke-opacity="0.5" stroke-width="3.2"/>
<circle clip-path="url(#clip221)" cx="1910.41" cy="487.962" r="14.4" fill="#009af9" fill-rule="evenodd" fill-opacity="0.5" stroke="#000000" stroke-opacity="0.5" stroke-width="3.2"/>
<circle clip-path="url(#clip221)" cx="1350.57" cy="357.946" r="14.4" fill="#009af9" fill-rule="evenodd" fill-opacity="0.5" stroke="#000000" stroke-opacity="0.5" stroke-width="3.2"/>
<circle clip-path="url(#clip221)" cx="1413.09" cy="593.42" r="14.4" fill="#009af9" fill-rule="evenodd" fill-opacity="0.5" stroke="#000000" stroke-opacity="0.5" stroke-width="3.2"/>
<circle clip-path="url(#clip221)" cx="356.765" cy="727.088" r="14.4" fill="#009af9" fill-rule="evenodd" fill-opacity="0.5" stroke="#000000" stroke-opacity="0.5" stroke-width="3.2"/>
<circle clip-path="url(#clip221)" cx="1584.21" cy="956.862" r="14.4" fill="#009af9" fill-rule="evenodd" fill-opacity="0.5" stroke="#000000" stroke-opacity="0.5" stroke-width="3.2"/>
<circle clip-path="url(#clip221)" cx="805.053" cy="413.975" r="14.4" fill="#009af9" fill-rule="evenodd" fill-opacity="0.5" stroke="#000000" stroke-opacity="0.5" stroke-width="3.2"/>
<circle clip-path="url(#clip221)" cx="418.439" cy="1188.63" r="14.4" fill="#009af9" fill-rule="evenodd" fill-opacity="0.5" stroke="#000000" stroke-opacity="0.5" stroke-width="3.2"/>
<circle clip-path="url(#clip221)" cx="1765.56" cy="1041.22" r="14.4" fill="#009af9" fill-rule="evenodd" fill-opacity="0.5" stroke="#000000" stroke-opacity="0.5" stroke-width="3.2"/>
<circle clip-path="url(#clip221)" cx="842.331" cy="904.086" r="14.4" fill="#009af9" fill-rule="evenodd" fill-opacity="0.5" stroke="#000000" stroke-opacity="0.5" stroke-width="3.2"/>
<circle clip-path="url(#clip221)" cx="274.037" cy="570.819" r="14.4" fill="#009af9" fill-rule="evenodd" fill-opacity="0.5" stroke="#000000" stroke-opacity="0.5" stroke-width="3.2"/>
<circle clip-path="url(#clip221)" cx="1150.49" cy="1421.87" r="14.4" fill="#009af9" fill-rule="evenodd" fill-opacity="0.5" stroke="#000000" stroke-opacity="0.5" stroke-width="3.2"/>
<circle clip-path="url(#clip221)" cx="443.106" cy="717.362" r="14.4" fill="#009af9" fill-rule="evenodd" fill-opacity="0.5" stroke="#000000" stroke-opacity="0.5" stroke-width="3.2"/>
<circle clip-path="url(#clip221)" cx="1521.62" cy="528.192" r="14.4" fill="#009af9" fill-rule="evenodd" fill-opacity="0.5" stroke="#000000" stroke-opacity="0.5" stroke-width="3.2"/>
<circle clip-path="url(#clip221)" cx="1997.54" cy="374.491" r="14.4" fill="#009af9" fill-rule="evenodd" fill-opacity="0.5" stroke="#000000" stroke-opacity="0.5" stroke-width="3.2"/>
<circle clip-path="url(#clip221)" cx="209.891" cy="1249.81" r="14.4" fill="#009af9" fill-rule="evenodd" fill-opacity="0.5" stroke="#000000" stroke-opacity="0.5" stroke-width="3.2"/>
<circle clip-path="url(#clip221)" cx="892.414" cy="1272.92" r="14.4" fill="#009af9" fill-rule="evenodd" fill-opacity="0.5" stroke="#000000" stroke-opacity="0.5" stroke-width="3.2"/>
<circle clip-path="url(#clip221)" cx="1030.65" cy="1445.72" r="14.4" fill="#009af9" fill-rule="evenodd" fill-opacity="0.5" stroke="#000000" stroke-opacity="0.5" stroke-width="3.2"/>
<circle clip-path="url(#clip221)" cx="1860.53" cy="710.596" r="14.4" fill="#009af9" fill-rule="evenodd" fill-opacity="0.5" stroke="#000000" stroke-opacity="0.5" stroke-width="3.2"/>
<path clip-path="url(#clip221)" d="M209.891 1249.81 L1030.65 1445.72 L1431.24 1430.62 L1692.07 1254.64 L2290.34 628.14 L1997.54 374.491 L1065.97 87.9763 L274.037 570.819 L209.891 1249.81 L209.891 1249.81  Z" fill="#e26f46" fill-rule="evenodd" fill-opacity="0.2"/>
<polyline clip-path="url(#clip221)" style="stroke:#000000; stroke-linecap:round; stroke-linejoin:round; stroke-width:4; stroke-opacity:0.2; fill:none" points="209.891,1249.81 1030.65,1445.72 1431.24,1430.62 1692.07,1254.64 2290.34,628.14 1997.54,374.491 1065.97,87.9763 274.037,570.819 209.891,1249.81 "/>
</svg>
