<?xml version="1.0" encoding="utf-8"?>
<svg xmlns="http://www.w3.org/2000/svg" xmlns:xlink="http://www.w3.org/1999/xlink" width="600" height="400" viewBox="0 0 2400 1600">
<defs>
  <clipPath id="clip260">
    <rect x="0" y="0" width="2400" height="1600"/>
  </clipPath>
</defs>
<path clip-path="url(#clip260)" d="M0 1600 L2400 1600 L2400 0 L0 0  Z" fill="#ffffff" fill-rule="evenodd" fill-opacity="1"/>
<defs>
  <clipPath id="clip261">
    <rect x="148" y="47" width="2206" height="1440"/>
  </clipPath>
</defs>
<path clip-path="url(#clip260)" d="M148.057 1486.45 L2352.76 1486.45 L2352.76 47.2441 L148.057 47.2441  Z" fill="#ffffff" fill-rule="evenodd" fill-opacity="1"/>
<polyline clip-path="url(#clip261)" style="stroke:#000000; stroke-linecap:round; stroke-linejoin:round; stroke-width:2; stroke-opacity:0.1; fill:none" points="480.629,1486.45 480.629,47.2441 "/>
<polyline clip-path="url(#clip261)" style="stroke:#000000; stroke-linecap:round; stroke-linejoin:round; stroke-width:2; stroke-opacity:0.1; fill:none" points="1082.5,1486.45 1082.5,47.2441 "/>
<polyline clip-path="url(#clip261)" style="stroke:#000000; stroke-linecap:round; stroke-linejoin:round; stroke-width:2; stroke-opacity:0.1; fill:none" points="1684.37,1486.45 1684.37,47.2441 "/>
<polyline clip-path="url(#clip261)" style="stroke:#000000; stroke-linecap:round; stroke-linejoin:round; stroke-width:2; stroke-opacity:0.1; fill:none" points="2286.24,1486.45 2286.24,47.2441 "/>
<polyline clip-path="url(#clip261)" style="stroke:#000000; stroke-linecap:round; stroke-linejoin:round; stroke-width:2; stroke-opacity:0.1; fill:none" points="148.057,1343.85 2352.76,1343.85 "/>
<polyline clip-path="url(#clip261)" style="stroke:#000000; stroke-linecap:round; stroke-linejoin:round; stroke-width:2; stroke-opacity:0.1; fill:none" points="148.057,1094.09 2352.76,1094.09 "/>
<polyline clip-path="url(#clip261)" style="stroke:#000000; stroke-linecap:round; stroke-linejoin:round; stroke-width:2; stroke-opacity:0.1; fill:none" points="148.057,844.333 2352.76,844.333 "/>
<polyline clip-path="url(#clip261)" style="stroke:#000000; stroke-linecap:round; stroke-linejoin:round; stroke-width:2; stroke-opacity:0.1; fill:none" points="148.057,594.573 2352.76,594.573 "/>
<polyline clip-path="url(#clip261)" style="stroke:#000000; stroke-linecap:round; stroke-linejoin:round; stroke-width:2; stroke-opacity:0.1; fill:none" points="148.057,344.814 2352.76,344.814 "/>
<polyline clip-path="url(#clip261)" style="stroke:#000000; stroke-linecap:round; stroke-linejoin:round; stroke-width:2; stroke-opacity:0.1; fill:none" points="148.057,95.0543 2352.76,95.0543 "/>
<polyline clip-path="url(#clip260)" style="stroke:#000000; stroke-linecap:round; stroke-linejoin:round; stroke-width:4; stroke-opacity:1; fill:none" points="148.057,1486.45 2352.76,1486.45 "/>
<polyline clip-path="url(#clip260)" style="stroke:#000000; stroke-linecap:round; stroke-linejoin:round; stroke-width:4; stroke-opacity:1; fill:none" points="480.629,1486.45 480.629,1467.55 "/>
<polyline clip-path="url(#clip260)" style="stroke:#000000; stroke-linecap:round; stroke-linejoin:round; stroke-width:4; stroke-opacity:1; fill:none" points="1082.5,1486.45 1082.5,1467.55 "/>
<polyline clip-path="url(#clip260)" style="stroke:#000000; stroke-linecap:round; stroke-linejoin:round; stroke-width:4; stroke-opacity:1; fill:none" points="1684.37,1486.45 1684.37,1467.55 "/>
<polyline clip-path="url(#clip260)" style="stroke:#000000; stroke-linecap:round; stroke-linejoin:round; stroke-width:4; stroke-opacity:1; fill:none" points="2286.24,1486.45 2286.24,1467.55 "/>
<path clip-path="url(#clip260)" d="M450.386 1532.02 L480.062 1532.02 L480.062 1535.95 L450.386 1535.95 L450.386 1532.02 Z" fill="#000000" fill-rule="nonzero" fill-opacity="1" /><path clip-path="url(#clip260)" d="M490.965 1544.91 L498.604 1544.91 L498.604 1518.55 L490.293 1520.21 L490.293 1515.95 L498.557 1514.29 L503.233 1514.29 L503.233 1544.91 L510.872 1544.91 L510.872 1548.85 L490.965 1548.85 L490.965 1544.91 Z" fill="#000000" fill-rule="nonzero" fill-opacity="1" /><path clip-path="url(#clip260)" d="M1082.5 1517.37 Q1078.89 1517.37 1077.06 1520.93 Q1075.25 1524.47 1075.25 1531.6 Q1075.25 1538.71 1077.06 1542.27 Q1078.89 1545.82 1082.5 1545.82 Q1086.13 1545.82 1087.94 1542.27 Q1089.77 1538.71 1089.77 1531.6 Q1089.77 1524.47 1087.94 1520.93 Q1086.13 1517.37 1082.5 1517.37 M1082.5 1513.66 Q1088.31 1513.66 1091.36 1518.27 Q1094.44 1522.85 1094.44 1531.6 Q1094.44 1540.33 1091.36 1544.94 Q1088.31 1549.52 1082.5 1549.52 Q1076.69 1549.52 1073.61 1544.94 Q1070.55 1540.33 1070.55 1531.6 Q1070.55 1522.85 1073.61 1518.27 Q1076.69 1513.66 1082.5 1513.66 Z" fill="#000000" fill-rule="nonzero" fill-opacity="1" /><path clip-path="url(#clip260)" d="M1674.75 1544.91 L1682.39 1544.91 L1682.39 1518.55 L1674.08 1520.21 L1674.08 1515.95 L1682.34 1514.29 L1687.02 1514.29 L1687.02 1544.91 L1694.66 1544.91 L1694.66 1548.85 L1674.75 1548.85 L1674.75 1544.91 Z" fill="#000000" fill-rule="nonzero" fill-opacity="1" /><path clip-path="url(#clip260)" d="M2280.89 1544.91 L2297.21 1544.91 L2297.21 1548.85 L2275.27 1548.85 L2275.27 1544.91 Q2277.93 1542.16 2282.51 1537.53 Q2287.12 1532.88 2288.3 1531.53 Q2290.54 1529.01 2291.42 1527.27 Q2292.33 1525.51 2292.33 1523.82 Q2292.33 1521.07 2290.38 1519.33 Q2288.46 1517.6 2285.36 1517.6 Q2283.16 1517.6 2280.71 1518.36 Q2278.28 1519.13 2275.5 1520.68 L2275.5 1515.95 Q2278.32 1514.82 2280.78 1514.24 Q2283.23 1513.66 2285.27 1513.66 Q2290.64 1513.66 2293.83 1516.35 Q2297.03 1519.03 2297.03 1523.52 Q2297.03 1525.65 2296.21 1527.57 Q2295.43 1529.47 2293.32 1532.07 Q2292.74 1532.74 2289.64 1535.95 Q2286.54 1539.15 2280.89 1544.91 Z" fill="#000000" fill-rule="nonzero" fill-opacity="1" /><polyline clip-path="url(#clip260)" style="stroke:#000000; stroke-linecap:round; stroke-linejoin:round; stroke-width:4; stroke-opacity:1; fill:none" points="148.057,1486.45 148.057,47.2441 "/>
<polyline clip-path="url(#clip260)" style="stroke:#000000; stroke-linecap:round; stroke-linejoin:round; stroke-width:4; stroke-opacity:1; fill:none" points="148.057,1343.85 166.954,1343.85 "/>
<polyline clip-path="url(#clip260)" style="stroke:#000000; stroke-linecap:round; stroke-linejoin:round; stroke-width:4; stroke-opacity:1; fill:none" points="148.057,1094.09 166.954,1094.09 "/>
<polyline clip-path="url(#clip260)" style="stroke:#000000; stroke-linecap:round; stroke-linejoin:round; stroke-width:4; stroke-opacity:1; fill:none" points="148.057,844.333 166.954,844.333 "/>
<polyline clip-path="url(#clip260)" style="stroke:#000000; stroke-linecap:round; stroke-linejoin:round; stroke-width:4; stroke-opacity:1; fill:none" points="148.057,594.573 166.954,594.573 "/>
<polyline clip-path="url(#clip260)" style="stroke:#000000; stroke-linecap:round; stroke-linejoin:round; stroke-width:4; stroke-opacity:1; fill:none" points="148.057,344.814 166.954,344.814 "/>
<polyline clip-path="url(#clip260)" style="stroke:#000000; stroke-linecap:round; stroke-linejoin:round; stroke-width:4; stroke-opacity:1; fill:none" points="148.057,95.0543 166.954,95.0543 "/>
<path clip-path="url(#clip260)" d="M50.9921 1344.3 L80.6679 1344.3 L80.6679 1348.24 L50.9921 1348.24 L50.9921 1344.3 Z" fill="#000000" fill-rule="nonzero" fill-opacity="1" /><path clip-path="url(#clip260)" d="M104.927 1342.5 Q108.283 1343.22 110.158 1345.48 Q112.057 1347.75 112.057 1351.09 Q112.057 1356.2 108.538 1359 Q105.02 1361.8 98.5382 1361.8 Q96.3623 1361.8 94.0475 1361.36 Q91.7558 1360.95 89.3021 1360.09 L89.3021 1355.58 Q91.2465 1356.71 93.5613 1357.29 Q95.8761 1357.87 98.3993 1357.87 Q102.797 1357.87 105.089 1356.13 Q107.404 1354.4 107.404 1351.09 Q107.404 1348.03 105.251 1346.32 Q103.121 1344.58 99.3021 1344.58 L95.2743 1344.58 L95.2743 1340.74 L99.4872 1340.74 Q102.936 1340.74 104.765 1339.37 Q106.594 1337.98 106.594 1335.39 Q106.594 1332.73 104.696 1331.32 Q102.821 1329.88 99.3021 1329.88 Q97.3808 1329.88 95.1817 1330.3 Q92.9826 1330.72 90.3438 1331.59 L90.3438 1327.43 Q93.0058 1326.69 95.3206 1326.32 Q97.6585 1325.95 99.7187 1325.95 Q105.043 1325.95 108.145 1328.38 Q111.246 1330.78 111.246 1334.9 Q111.246 1337.78 109.603 1339.77 Q107.959 1341.73 104.927 1342.5 Z" fill="#000000" fill-rule="nonzero" fill-opacity="1" /><path clip-path="url(#clip260)" d="M51.9412 1094.54 L81.617 1094.54 L81.617 1098.48 L51.9412 1098.48 L51.9412 1094.54 Z" fill="#000000" fill-rule="nonzero" fill-opacity="1" /><path clip-path="url(#clip260)" d="M95.7373 1107.44 L112.057 1107.44 L112.057 1111.37 L90.1123 1111.37 L90.1123 1107.44 Q92.7743 1104.68 97.3576 1100.05 Q101.964 1095.4 103.145 1094.06 Q105.39 1091.53 106.27 1089.8 Q107.172 1088.04 107.172 1086.35 Q107.172 1083.59 105.228 1081.86 Q103.307 1080.12 100.205 1080.12 Q98.0058 1080.12 95.5521 1080.89 Q93.1215 1081.65 90.3438 1083.2 L90.3438 1078.48 Q93.1678 1077.34 95.6215 1076.77 Q98.0752 1076.19 100.112 1076.19 Q105.483 1076.19 108.677 1078.87 Q111.871 1081.56 111.871 1086.05 Q111.871 1088.18 111.061 1090.1 Q110.274 1092 108.168 1094.59 Q107.589 1095.26 104.487 1098.48 Q101.385 1101.67 95.7373 1107.44 Z" fill="#000000" fill-rule="nonzero" fill-opacity="1" /><path clip-path="url(#clip260)" d="M51.5708 844.784 L81.2466 844.784 L81.2466 848.719 L51.5708 848.719 L51.5708 844.784 Z" fill="#000000" fill-rule="nonzero" fill-opacity="1" /><path clip-path="url(#clip260)" d="M92.1493 857.678 L99.7882 857.678 L99.7882 831.312 L91.478 832.979 L91.478 828.719 L99.7419 827.053 L104.418 827.053 L104.418 857.678 L112.057 857.678 L112.057 861.613 L92.1493 861.613 L92.1493 857.678 Z" fill="#000000" fill-rule="nonzero" fill-opacity="1" /><path clip-path="url(#clip260)" d="M100.112 580.372 Q96.5011 580.372 94.6724 583.937 Q92.8669 587.478 92.8669 594.608 Q92.8669 601.714 94.6724 605.279 Q96.5011 608.821 100.112 608.821 Q103.746 608.821 105.552 605.279 Q107.381 601.714 107.381 594.608 Q107.381 587.478 105.552 583.937 Q103.746 580.372 100.112 580.372 M100.112 576.668 Q105.922 576.668 108.978 581.275 Q112.057 585.858 112.057 594.608 Q112.057 603.335 108.978 607.941 Q105.922 612.525 100.112 612.525 Q94.3021 612.525 91.2234 607.941 Q88.1679 603.335 88.1679 594.608 Q88.1679 585.858 91.2234 581.275 Q94.3021 576.668 100.112 576.668 Z" fill="#000000" fill-rule="nonzero" fill-opacity="1" /><path clip-path="url(#clip260)" d="M92.1493 358.159 L99.7882 358.159 L99.7882 331.793 L91.478 333.46 L91.478 329.2 L99.7419 327.534 L104.418 327.534 L104.418 358.159 L112.057 358.159 L112.057 362.094 L92.1493 362.094 L92.1493 358.159 Z" fill="#000000" fill-rule="nonzero" fill-opacity="1" /><path clip-path="url(#clip260)" d="M95.7373 108.399 L112.057 108.399 L112.057 112.334 L90.1123 112.334 L90.1123 108.399 Q92.7743 105.645 97.3576 101.015 Q101.964 96.3622 103.145 95.0196 Q105.39 92.4965 106.27 90.7604 Q107.172 89.0011 107.172 87.3113 Q107.172 84.5567 105.228 82.8206 Q103.307 81.0845 100.205 81.0845 Q98.0058 81.0845 95.5521 81.8484 Q93.1215 82.6123 90.3438 84.1632 L90.3438 79.441 Q93.1678 78.3067 95.6215 77.728 Q98.0752 77.1493 100.112 77.1493 Q105.483 77.1493 108.677 79.8345 Q111.871 82.5197 111.871 87.0104 Q111.871 89.14 111.061 91.0613 Q110.274 92.9594 108.168 95.552 Q107.589 96.2233 104.487 99.4409 Q101.385 102.635 95.7373 108.399 Z" fill="#000000" fill-rule="nonzero" fill-opacity="1" /><circle clip-path="url(#clip261)" cx="210.454" cy="678.713" r="14.4" fill="#009af9" fill-rule="evenodd" fill-opacity="0.5" stroke="#000000" stroke-opacity="0.5" stroke-width="3.2"/>
<circle clip-path="url(#clip261)" cx="1331.36" cy="226.268" r="14.4" fill="#009af9" fill-rule="evenodd" fill-opacity="0.5" stroke="#000000" stroke-opacity="0.5" stroke-width="3.2"/>
<circle clip-path="url(#clip261)" cx="1737.08" cy="1248.97" r="14.4" fill="#009af9" fill-rule="evenodd" fill-opacity="0.5" stroke="#000000" stroke-opacity="0.5" stroke-width="3.2"/>
<circle clip-path="url(#clip261)" cx="2290.36" cy="984.972" r="14.4" fill="#009af9" fill-rule="evenodd" fill-opacity="0.5" stroke="#000000" stroke-opacity="0.5" stroke-width="3.2"/>
<circle clip-path="url(#clip261)" cx="1375.45" cy="549.243" r="14.4" fill="#009af9" fill-rule="evenodd" fill-opacity="0.5" stroke="#000000" stroke-opacity="0.5" stroke-width="3.2"/>
<circle clip-path="url(#clip261)" cx="1008.89" cy="487.117" r="14.4" fill="#009af9" fill-rule="evenodd" fill-opacity="0.5" stroke="#000000" stroke-opacity="0.5" stroke-width="3.2"/>
<circle clip-path="url(#clip261)" cx="1227.76" cy="707.347" r="14.4" fill="#009af9" fill-rule="evenodd" fill-opacity="0.5" stroke="#000000" stroke-opacity="0.5" stroke-width="3.2"/>
<circle clip-path="url(#clip261)" cx="1397.87" cy="87.9763" r="14.4" fill="#009af9" fill-rule="evenodd" fill-opacity="0.5" stroke="#000000" stroke-opacity="0.5" stroke-width="3.2"/>
<circle clip-path="url(#clip261)" cx="623.543" cy="380.318" r="14.4" fill="#009af9" fill-rule="evenodd" fill-opacity="0.5" stroke="#000000" stroke-opacity="0.5" stroke-width="3.2"/>
<circle clip-path="url(#clip261)" cx="550.97" cy="507.382" r="14.4" fill="#009af9" fill-rule="evenodd" fill-opacity="0.5" stroke="#000000" stroke-opacity="0.5" stroke-width="3.2"/>
<circle clip-path="url(#clip261)" cx="496.742" cy="506.986" r="14.4" fill="#009af9" fill-rule="evenodd" fill-opacity="0.5" stroke="#000000" stroke-opacity="0.5" stroke-width="3.2"/>
<circle clip-path="url(#clip261)" cx="1583.78" cy="759.79" r="14.4" fill="#009af9" fill-rule="evenodd" fill-opacity="0.5" stroke="#000000" stroke-opacity="0.5" stroke-width="3.2"/>
<circle clip-path="url(#clip261)" cx="1151" cy="963.592" r="14.4" fill="#009af9" fill-rule="evenodd" fill-opacity="0.5" stroke="#000000" stroke-opacity="0.5" stroke-width="3.2"/>
<circle clip-path="url(#clip261)" cx="1264.5" cy="1445.72" r="14.4" fill="#009af9" fill-rule="evenodd" fill-opacity="0.5" stroke="#000000" stroke-opacity="0.5" stroke-width="3.2"/>
<circle clip-path="url(#clip261)" cx="887.735" cy="726.799" r="14.4" fill="#009af9" fill-rule="evenodd" fill-opacity="0.5" stroke="#000000" stroke-opacity="0.5" stroke-width="3.2"/>
<circle clip-path="url(#clip261)" cx="589.914" cy="1204.42" r="14.4" fill="#009af9" fill-rule="evenodd" fill-opacity="0.5" stroke="#000000" stroke-opacity="0.5" stroke-width="3.2"/>
<circle clip-path="url(#clip261)" cx="1332.7" cy="499.026" r="14.4" fill="#009af9" fill-rule="evenodd" fill-opacity="0.5" stroke="#000000" stroke-opacity="0.5" stroke-width="3.2"/>
<circle clip-path="url(#clip261)" cx="1644.97" cy="570.836" r="14.4" fill="#009af9" fill-rule="evenodd" fill-opacity="0.5" stroke="#000000" stroke-opacity="0.5" stroke-width="3.2"/>
<circle clip-path="url(#clip261)" cx="1737.18" cy="389.423" r="14.4" fill="#009af9" fill-rule="evenodd" fill-opacity="0.5" stroke="#000000" stroke-opacity="0.5" stroke-width="3.2"/>
<circle clip-path="url(#clip261)" cx="310.351" cy="1121.85" r="14.4" fill="#009af9" fill-rule="evenodd" fill-opacity="0.5" stroke="#000000" stroke-opacity="0.5" stroke-width="3.2"/>
<circle clip-path="url(#clip261)" cx="1499.16" cy="254.085" r="14.4" fill="#009af9" fill-rule="evenodd" fill-opacity="0.5" stroke="#000000" stroke-opacity="0.5" stroke-width="3.2"/>
<circle clip-path="url(#clip261)" cx="623.118" cy="598.886" r="14.4" fill="#009af9" fill-rule="evenodd" fill-opacity="0.5" stroke="#000000" stroke-opacity="0.5" stroke-width="3.2"/>
<circle clip-path="url(#clip261)" cx="285.033" cy="636.8" r="14.4" fill="#009af9" fill-rule="evenodd" fill-opacity="0.5" stroke="#000000" stroke-opacity="0.5" stroke-width="3.2"/>
<circle clip-path="url(#clip261)" cx="2190.07" cy="179.598" r="14.4" fill="#009af9" fill-rule="evenodd" fill-opacity="0.5" stroke="#000000" stroke-opacity="0.5" stroke-width="3.2"/>
<circle clip-path="url(#clip261)" cx="566.556" cy="595.397" r="14.4" fill="#009af9" fill-rule="evenodd" fill-opacity="0.5" stroke="#000000" stroke-opacity="0.5" stroke-width="3.2"/>
<circle clip-path="url(#clip261)" cx="1865.74" cy="759.711" r="14.4" fill="#009af9" fill-rule="evenodd" fill-opacity="0.5" stroke="#000000" stroke-opacity="0.5" stroke-width="3.2"/>
<circle clip-path="url(#clip261)" cx="1212" cy="508.884" r="14.4" fill="#009af9" fill-rule="evenodd" fill-opacity="0.5" stroke="#000000" stroke-opacity="0.5" stroke-width="3.2"/>
<circle clip-path="url(#clip261)" cx="1217.26" cy="752.988" r="14.4" fill="#009af9" fill-rule="evenodd" fill-opacity="0.5" stroke="#000000" stroke-opacity="0.5" stroke-width="3.2"/>
<circle clip-path="url(#clip261)" cx="535.606" cy="379.838" r="14.4" fill="#009af9" fill-rule="evenodd" fill-opacity="0.5" stroke="#000000" stroke-opacity="0.5" stroke-width="3.2"/>
<circle clip-path="url(#clip261)" cx="500.282" cy="212.762" r="14.4" fill="#009af9" fill-rule="evenodd" fill-opacity="0.5" stroke="#000000" stroke-opacity="0.5" stroke-width="3.2"/>
<path clip-path="url(#clip261)" d="M210.454 678.713 L310.351 1121.85 L1264.5 1445.72 L1737.08 1248.97 L2290.36 984.972 L2190.07 179.598 L1397.87 87.9763 L500.282 212.762 L210.454 678.713 L210.454 678.713  Z" fill="#e26f46" fill-rule="evenodd" fill-opacity="0.2"/>
<polyline clip-path="url(#clip261)" style="stroke:#000000; stroke-linecap:round; stroke-linejoin:round; stroke-width:4; stroke-opacity:0.2; fill:none" points="210.454,678.713 310.351,1121.85 1264.5,1445.72 1737.08,1248.97 2290.36,984.972 2190.07,179.598 1397.87,87.9763 500.282,212.762 210.454,678.713 "/>
</svg>
