<?xml version="1.0" encoding="utf-8"?>
<svg xmlns="http://www.w3.org/2000/svg" xmlns:xlink="http://www.w3.org/1999/xlink" width="600" height="400" viewBox="0 0 2400 1600">
<defs>
  <clipPath id="clip320">
    <rect x="0" y="0" width="2400" height="1600"/>
  </clipPath>
</defs>
<path clip-path="url(#clip320)" d="M0 1600 L2400 1600 L2400 0 L0 0  Z" fill="#ffffff" fill-rule="evenodd" fill-opacity="1"/>
<defs>
  <clipPath id="clip321">
    <rect x="480" y="0" width="1681" height="1600"/>
  </clipPath>
</defs>
<path clip-path="url(#clip320)" d="M147.478 1486.45 L2352.76 1486.45 L2352.76 47.2441 L147.478 47.2441  Z" fill="#ffffff" fill-rule="evenodd" fill-opacity="1"/>
<defs>
  <clipPath id="clip322">
    <rect x="147" y="47" width="2206" height="1440"/>
  </clipPath>
</defs>
<polyline clip-path="url(#clip322)" style="stroke:#000000; stroke-linecap:round; stroke-linejoin:round; stroke-width:2; stroke-opacity:0.1; fill:none" points="450.532,1486.45 450.532,47.2441 "/>
<polyline clip-path="url(#clip322)" style="stroke:#000000; stroke-linecap:round; stroke-linejoin:round; stroke-width:2; stroke-opacity:0.1; fill:none" points="849.514,1486.45 849.514,47.2441 "/>
<polyline clip-path="url(#clip322)" style="stroke:#000000; stroke-linecap:round; stroke-linejoin:round; stroke-width:2; stroke-opacity:0.1; fill:none" points="1248.5,1486.45 1248.5,47.2441 "/>
<polyline clip-path="url(#clip322)" style="stroke:#000000; stroke-linecap:round; stroke-linejoin:round; stroke-width:2; stroke-opacity:0.1; fill:none" points="1647.48,1486.45 1647.48,47.2441 "/>
<polyline clip-path="url(#clip322)" style="stroke:#000000; stroke-linecap:round; stroke-linejoin:round; stroke-width:2; stroke-opacity:0.1; fill:none" points="2046.46,1486.45 2046.46,47.2441 "/>
<polyline clip-path="url(#clip322)" style="stroke:#000000; stroke-linecap:round; stroke-linejoin:round; stroke-width:2; stroke-opacity:0.1; fill:none" points="147.478,1456.36 2352.76,1456.36 "/>
<polyline clip-path="url(#clip322)" style="stroke:#000000; stroke-linecap:round; stroke-linejoin:round; stroke-width:2; stroke-opacity:0.1; fill:none" points="147.478,1089.68 2352.76,1089.68 "/>
<polyline clip-path="url(#clip322)" style="stroke:#000000; stroke-linecap:round; stroke-linejoin:round; stroke-width:2; stroke-opacity:0.1; fill:none" points="147.478,723.001 2352.76,723.001 "/>
<polyline clip-path="url(#clip322)" style="stroke:#000000; stroke-linecap:round; stroke-linejoin:round; stroke-width:2; stroke-opacity:0.1; fill:none" points="147.478,356.322 2352.76,356.322 "/>
<polyline clip-path="url(#clip320)" style="stroke:#000000; stroke-linecap:round; stroke-linejoin:round; stroke-width:4; stroke-opacity:1; fill:none" points="147.478,1486.45 2352.76,1486.45 "/>
<polyline clip-path="url(#clip320)" style="stroke:#000000; stroke-linecap:round; stroke-linejoin:round; stroke-width:4; stroke-opacity:1; fill:none" points="450.532,1486.45 450.532,1467.55 "/>
<polyline clip-path="url(#clip320)" style="stroke:#000000; stroke-linecap:round; stroke-linejoin:round; stroke-width:4; stroke-opacity:1; fill:none" points="849.514,1486.45 849.514,1467.55 "/>
<polyline clip-path="url(#clip320)" style="stroke:#000000; stroke-linecap:round; stroke-linejoin:round; stroke-width:4; stroke-opacity:1; fill:none" points="1248.5,1486.45 1248.5,1467.55 "/>
<polyline clip-path="url(#clip320)" style="stroke:#000000; stroke-linecap:round; stroke-linejoin:round; stroke-width:4; stroke-opacity:1; fill:none" points="1647.48,1486.45 1647.48,1467.55 "/>
<polyline clip-path="url(#clip320)" style="stroke:#000000; stroke-linecap:round; stroke-linejoin:round; stroke-width:4; stroke-opacity:1; fill:none" points="2046.46,1486.45 2046.46,1467.55 "/>
<path clip-path="url(#clip320)" d="M397.06 1532.02 L426.736 1532.02 L426.736 1535.95 L397.06 1535.95 L397.06 1532.02 Z" fill="#000000" fill-rule="nonzero" fill-opacity="1" /><path clip-path="url(#clip320)" d="M437.638 1544.91 L445.277 1544.91 L445.277 1518.55 L436.967 1520.21 L436.967 1515.95 L445.231 1514.29 L449.907 1514.29 L449.907 1544.91 L457.546 1544.91 L457.546 1548.85 L437.638 1548.85 L437.638 1544.91 Z" fill="#000000" fill-rule="nonzero" fill-opacity="1" /><path clip-path="url(#clip320)" d="M466.99 1542.97 L471.874 1542.97 L471.874 1548.85 L466.99 1548.85 L466.99 1542.97 Z" fill="#000000" fill-rule="nonzero" fill-opacity="1" /><path clip-path="url(#clip320)" d="M492.059 1517.37 Q488.448 1517.37 486.62 1520.93 Q484.814 1524.47 484.814 1531.6 Q484.814 1538.71 486.62 1542.27 Q488.448 1545.82 492.059 1545.82 Q495.694 1545.82 497.499 1542.27 Q499.328 1538.71 499.328 1531.6 Q499.328 1524.47 497.499 1520.93 Q495.694 1517.37 492.059 1517.37 M492.059 1513.66 Q497.87 1513.66 500.925 1518.27 Q504.004 1522.85 504.004 1531.6 Q504.004 1540.33 500.925 1544.94 Q497.87 1549.52 492.059 1549.52 Q486.249 1549.52 483.171 1544.94 Q480.115 1540.33 480.115 1531.6 Q480.115 1522.85 483.171 1518.27 Q486.249 1513.66 492.059 1513.66 Z" fill="#000000" fill-rule="nonzero" fill-opacity="1" /><path clip-path="url(#clip320)" d="M796.54 1532.02 L826.216 1532.02 L826.216 1535.95 L796.54 1535.95 L796.54 1532.02 Z" fill="#000000" fill-rule="nonzero" fill-opacity="1" /><path clip-path="url(#clip320)" d="M846.308 1517.37 Q842.697 1517.37 840.868 1520.93 Q839.063 1524.47 839.063 1531.6 Q839.063 1538.71 840.868 1542.27 Q842.697 1545.82 846.308 1545.82 Q849.942 1545.82 851.748 1542.27 Q853.577 1538.71 853.577 1531.6 Q853.577 1524.47 851.748 1520.93 Q849.942 1517.37 846.308 1517.37 M846.308 1513.66 Q852.118 1513.66 855.174 1518.27 Q858.253 1522.85 858.253 1531.6 Q858.253 1540.33 855.174 1544.94 Q852.118 1549.52 846.308 1549.52 Q840.498 1549.52 837.419 1544.94 Q834.364 1540.33 834.364 1531.6 Q834.364 1522.85 837.419 1518.27 Q840.498 1513.66 846.308 1513.66 Z" fill="#000000" fill-rule="nonzero" fill-opacity="1" /><path clip-path="url(#clip320)" d="M866.47 1542.97 L871.354 1542.97 L871.354 1548.85 L866.47 1548.85 L866.47 1542.97 Z" fill="#000000" fill-rule="nonzero" fill-opacity="1" /><path clip-path="url(#clip320)" d="M881.586 1514.29 L899.942 1514.29 L899.942 1518.22 L885.868 1518.22 L885.868 1526.7 Q886.887 1526.35 887.905 1526.19 Q888.924 1526 889.942 1526 Q895.729 1526 899.109 1529.17 Q902.488 1532.34 902.488 1537.76 Q902.488 1543.34 899.016 1546.44 Q895.544 1549.52 889.225 1549.52 Q887.049 1549.52 884.78 1549.15 Q882.535 1548.78 880.127 1548.04 L880.127 1543.34 Q882.211 1544.47 884.433 1545.03 Q886.655 1545.58 889.132 1545.58 Q893.137 1545.58 895.475 1543.48 Q897.813 1541.37 897.813 1537.76 Q897.813 1534.15 895.475 1532.04 Q893.137 1529.94 889.132 1529.94 Q887.257 1529.94 885.382 1530.35 Q883.53 1530.77 881.586 1531.65 L881.586 1514.29 Z" fill="#000000" fill-rule="nonzero" fill-opacity="1" /><path clip-path="url(#clip320)" d="M1225.88 1517.37 Q1222.27 1517.37 1220.44 1520.93 Q1218.64 1524.47 1218.64 1531.6 Q1218.64 1538.71 1220.44 1542.27 Q1222.27 1545.82 1225.88 1545.82 Q1229.52 1545.82 1231.32 1542.27 Q1233.15 1538.71 1233.15 1531.6 Q1233.15 1524.47 1231.32 1520.93 Q1229.52 1517.37 1225.88 1517.37 M1225.88 1513.66 Q1231.69 1513.66 1234.75 1518.27 Q1237.83 1522.85 1237.83 1531.6 Q1237.83 1540.33 1234.75 1544.94 Q1231.69 1549.52 1225.88 1549.52 Q1220.07 1549.52 1216.99 1544.94 Q1213.94 1540.33 1213.94 1531.6 Q1213.94 1522.85 1216.99 1518.27 Q1220.07 1513.66 1225.88 1513.66 Z" fill="#000000" fill-rule="nonzero" fill-opacity="1" /><path clip-path="url(#clip320)" d="M1246.04 1542.97 L1250.93 1542.97 L1250.93 1548.85 L1246.04 1548.85 L1246.04 1542.97 Z" fill="#000000" fill-rule="nonzero" fill-opacity="1" /><path clip-path="url(#clip320)" d="M1271.11 1517.37 Q1267.5 1517.37 1265.67 1520.93 Q1263.87 1524.47 1263.87 1531.6 Q1263.87 1538.71 1265.67 1542.27 Q1267.5 1545.82 1271.11 1545.82 Q1274.75 1545.82 1276.55 1542.27 Q1278.38 1538.71 1278.38 1531.6 Q1278.38 1524.47 1276.55 1520.93 Q1274.75 1517.37 1271.11 1517.37 M1271.11 1513.66 Q1276.92 1513.66 1279.98 1518.27 Q1283.06 1522.85 1283.06 1531.6 Q1283.06 1540.33 1279.98 1544.94 Q1276.92 1549.52 1271.11 1549.52 Q1265.3 1549.52 1262.22 1544.94 Q1259.17 1540.33 1259.17 1531.6 Q1259.17 1522.85 1262.22 1518.27 Q1265.3 1513.66 1271.11 1513.66 Z" fill="#000000" fill-rule="nonzero" fill-opacity="1" /><path clip-path="url(#clip320)" d="M1625.36 1517.37 Q1621.75 1517.37 1619.92 1520.93 Q1618.12 1524.47 1618.12 1531.6 Q1618.12 1538.71 1619.92 1542.27 Q1621.75 1545.82 1625.36 1545.82 Q1629 1545.82 1630.8 1542.27 Q1632.63 1538.71 1632.63 1531.6 Q1632.63 1524.47 1630.8 1520.93 Q1629 1517.37 1625.36 1517.37 M1625.36 1513.66 Q1631.17 1513.66 1634.23 1518.27 Q1637.31 1522.85 1637.31 1531.6 Q1637.31 1540.33 1634.23 1544.94 Q1631.17 1549.52 1625.36 1549.52 Q1619.55 1549.52 1616.47 1544.94 Q1613.42 1540.33 1613.42 1531.6 Q1613.42 1522.85 1616.47 1518.27 Q1619.55 1513.66 1625.36 1513.66 Z" fill="#000000" fill-rule="nonzero" fill-opacity="1" /><path clip-path="url(#clip320)" d="M1645.52 1542.97 L1650.41 1542.97 L1650.41 1548.85 L1645.52 1548.85 L1645.52 1542.97 Z" fill="#000000" fill-rule="nonzero" fill-opacity="1" /><path clip-path="url(#clip320)" d="M1660.64 1514.29 L1678.99 1514.29 L1678.99 1518.22 L1664.92 1518.22 L1664.92 1526.7 Q1665.94 1526.35 1666.96 1526.19 Q1667.98 1526 1668.99 1526 Q1674.78 1526 1678.16 1529.17 Q1681.54 1532.34 1681.54 1537.76 Q1681.54 1543.34 1678.07 1546.44 Q1674.6 1549.52 1668.28 1549.52 Q1666.1 1549.52 1663.83 1549.15 Q1661.59 1548.78 1659.18 1548.04 L1659.18 1543.34 Q1661.26 1544.47 1663.49 1545.03 Q1665.71 1545.58 1668.18 1545.58 Q1672.19 1545.58 1674.53 1543.48 Q1676.87 1541.37 1676.87 1537.76 Q1676.87 1534.15 1674.53 1532.04 Q1672.19 1529.94 1668.18 1529.94 Q1666.31 1529.94 1664.43 1530.35 Q1662.58 1530.77 1660.64 1531.65 L1660.64 1514.29 Z" fill="#000000" fill-rule="nonzero" fill-opacity="1" /><path clip-path="url(#clip320)" d="M2013.61 1544.91 L2021.25 1544.91 L2021.25 1518.55 L2012.94 1520.21 L2012.94 1515.95 L2021.21 1514.29 L2025.88 1514.29 L2025.88 1544.91 L2033.52 1544.91 L2033.52 1548.85 L2013.61 1548.85 L2013.61 1544.91 Z" fill="#000000" fill-rule="nonzero" fill-opacity="1" /><path clip-path="url(#clip320)" d="M2042.97 1542.97 L2047.85 1542.97 L2047.85 1548.85 L2042.97 1548.85 L2042.97 1542.97 Z" fill="#000000" fill-rule="nonzero" fill-opacity="1" /><path clip-path="url(#clip320)" d="M2068.04 1517.37 Q2064.42 1517.37 2062.6 1520.93 Q2060.79 1524.47 2060.79 1531.6 Q2060.79 1538.71 2062.6 1542.27 Q2064.42 1545.82 2068.04 1545.82 Q2071.67 1545.82 2073.47 1542.27 Q2075.3 1538.71 2075.3 1531.6 Q2075.3 1524.47 2073.47 1520.93 Q2071.67 1517.37 2068.04 1517.37 M2068.04 1513.66 Q2073.85 1513.66 2076.9 1518.27 Q2079.98 1522.85 2079.98 1531.6 Q2079.98 1540.33 2076.9 1544.94 Q2073.85 1549.52 2068.04 1549.52 Q2062.22 1549.52 2059.15 1544.94 Q2056.09 1540.33 2056.09 1531.6 Q2056.09 1522.85 2059.15 1518.27 Q2062.22 1513.66 2068.04 1513.66 Z" fill="#000000" fill-rule="nonzero" fill-opacity="1" /><polyline clip-path="url(#clip320)" style="stroke:#000000; stroke-linecap:round; stroke-linejoin:round; stroke-width:4; stroke-opacity:1; fill:none" points="147.478,1486.45 147.478,47.2441 "/>
<polyline clip-path="url(#clip320)" style="stroke:#000000; stroke-linecap:round; stroke-linejoin:round; stroke-width:4; stroke-opacity:1; fill:none" points="147.478,1456.36 166.376,1456.36 "/>
<polyline clip-path="url(#clip320)" style="stroke:#000000; stroke-linecap:round; stroke-linejoin:round; stroke-width:4; stroke-opacity:1; fill:none" points="147.478,1089.68 166.376,1089.68 "/>
<polyline clip-path="url(#clip320)" style="stroke:#000000; stroke-linecap:round; stroke-linejoin:round; stroke-width:4; stroke-opacity:1; fill:none" points="147.478,723.001 166.376,723.001 "/>
<polyline clip-path="url(#clip320)" style="stroke:#000000; stroke-linecap:round; stroke-linejoin:round; stroke-width:4; stroke-opacity:1; fill:none" points="147.478,356.322 166.376,356.322 "/>
<path clip-path="url(#clip320)" d="M51.3625 1456.81 L81.0383 1456.81 L81.0383 1460.75 L51.3625 1460.75 L51.3625 1456.81 Z" fill="#000000" fill-rule="nonzero" fill-opacity="1" /><path clip-path="url(#clip320)" d="M95.1586 1469.7 L111.478 1469.7 L111.478 1473.64 L89.5336 1473.64 L89.5336 1469.7 Q92.1956 1466.95 96.7789 1462.32 Q101.385 1457.67 102.566 1456.32 Q104.811 1453.8 105.691 1452.07 Q106.594 1450.31 106.594 1448.62 Q106.594 1445.86 104.649 1444.13 Q102.728 1442.39 99.6261 1442.39 Q97.4271 1442.39 94.9734 1443.15 Q92.5428 1443.92 89.7651 1445.47 L89.7651 1440.75 Q92.5891 1439.61 95.0428 1439.03 Q97.4965 1438.45 99.5335 1438.45 Q104.904 1438.45 108.098 1441.14 Q111.293 1443.82 111.293 1448.32 Q111.293 1450.45 110.483 1452.37 Q109.696 1454.26 107.589 1456.86 Q107.01 1457.53 103.909 1460.75 Q100.807 1463.94 95.1586 1469.7 Z" fill="#000000" fill-rule="nonzero" fill-opacity="1" /><path clip-path="url(#clip320)" d="M50.9921 1090.13 L80.6679 1090.13 L80.6679 1094.07 L50.9921 1094.07 L50.9921 1090.13 Z" fill="#000000" fill-rule="nonzero" fill-opacity="1" /><path clip-path="url(#clip320)" d="M91.5706 1103.03 L99.2095 1103.03 L99.2095 1076.66 L90.8993 1078.33 L90.8993 1074.07 L99.1632 1072.4 L103.839 1072.4 L103.839 1103.03 L111.478 1103.03 L111.478 1106.96 L91.5706 1106.96 L91.5706 1103.03 Z" fill="#000000" fill-rule="nonzero" fill-opacity="1" /><path clip-path="url(#clip320)" d="M99.5335 708.8 Q95.9224 708.8 94.0937 712.365 Q92.2882 715.907 92.2882 723.036 Q92.2882 730.143 94.0937 733.707 Q95.9224 737.249 99.5335 737.249 Q103.168 737.249 104.973 733.707 Q106.802 730.143 106.802 723.036 Q106.802 715.907 104.973 712.365 Q103.168 708.8 99.5335 708.8 M99.5335 705.096 Q105.344 705.096 108.399 709.703 Q111.478 714.286 111.478 723.036 Q111.478 731.763 108.399 736.369 Q105.344 740.953 99.5335 740.953 Q93.7234 740.953 90.6447 736.369 Q87.5892 731.763 87.5892 723.036 Q87.5892 714.286 90.6447 709.703 Q93.7234 705.096 99.5335 705.096 Z" fill="#000000" fill-rule="nonzero" fill-opacity="1" /><path clip-path="url(#clip320)" d="M91.5706 369.667 L99.2095 369.667 L99.2095 343.302 L90.8993 344.968 L90.8993 340.709 L99.1632 339.042 L103.839 339.042 L103.839 369.667 L111.478 369.667 L111.478 373.602 L91.5706 373.602 L91.5706 369.667 Z" fill="#000000" fill-rule="nonzero" fill-opacity="1" /><circle clip-path="url(#clip322)" cx="1787.6" cy="1445.72" r="14.4" fill="#009af9" fill-rule="evenodd" fill-opacity="0.5" stroke="#000000" stroke-opacity="0.5" stroke-width="3.2"/>
<circle clip-path="url(#clip322)" cx="1268.81" cy="1137.58" r="14.4" fill="#009af9" fill-rule="evenodd" fill-opacity="0.5" stroke="#000000" stroke-opacity="0.5" stroke-width="3.2"/>
<circle clip-path="url(#clip322)" cx="1344.32" cy="87.9763" r="14.4" fill="#009af9" fill-rule="evenodd" fill-opacity="0.5" stroke="#000000" stroke-opacity="0.5" stroke-width="3.2"/>
<circle clip-path="url(#clip322)" cx="2117.98" cy="1109.64" r="14.4" fill="#009af9" fill-rule="evenodd" fill-opacity="0.5" stroke="#000000" stroke-opacity="0.5" stroke-width="3.2"/>
<circle clip-path="url(#clip322)" cx="936.239" cy="934.352" r="14.4" fill="#009af9" fill-rule="evenodd" fill-opacity="0.5" stroke="#000000" stroke-opacity="0.5" stroke-width="3.2"/>
<circle clip-path="url(#clip322)" cx="310.048" cy="963.182" r="14.4" fill="#009af9" fill-rule="evenodd" fill-opacity="0.5" stroke="#000000" stroke-opacity="0.5" stroke-width="3.2"/>
<circle clip-path="url(#clip322)" cx="1370.72" cy="1325.37" r="14.4" fill="#009af9" fill-rule="evenodd" fill-opacity="0.5" stroke="#000000" stroke-opacity="0.5" stroke-width="3.2"/>
<circle clip-path="url(#clip322)" cx="1975.83" cy="1002.14" r="14.4" fill="#009af9" fill-rule="evenodd" fill-opacity="0.5" stroke="#000000" stroke-opacity="0.5" stroke-width="3.2"/>
<circle clip-path="url(#clip322)" cx="836.14" cy="634.28" r="14.4" fill="#009af9" fill-rule="evenodd" fill-opacity="0.5" stroke="#000000" stroke-opacity="0.5" stroke-width="3.2"/>
<circle clip-path="url(#clip322)" cx="1478.47" cy="1275.71" r="14.4" fill="#009af9" fill-rule="evenodd" fill-opacity="0.5" stroke="#000000" stroke-opacity="0.5" stroke-width="3.2"/>
<circle clip-path="url(#clip322)" cx="1028.27" cy="851.951" r="14.4" fill="#009af9" fill-rule="evenodd" fill-opacity="0.5" stroke="#000000" stroke-opacity="0.5" stroke-width="3.2"/>
<circle clip-path="url(#clip322)" cx="209.891" cy="829.875" r="14.4" fill="#009af9" fill-rule="evenodd" fill-opacity="0.5" stroke="#000000" stroke-opacity="0.5" stroke-width="3.2"/>
<circle clip-path="url(#clip322)" cx="1626.63" cy="476.983" r="14.4" fill="#009af9" fill-rule="evenodd" fill-opacity="0.5" stroke="#000000" stroke-opacity="0.5" stroke-width="3.2"/>
<circle clip-path="url(#clip322)" cx="1473.77" cy="781.188" r="14.4" fill="#009af9" fill-rule="evenodd" fill-opacity="0.5" stroke="#000000" stroke-opacity="0.5" stroke-width="3.2"/>
<circle clip-path="url(#clip322)" cx="2123.04" cy="812.638" r="14.4" fill="#009af9" fill-rule="evenodd" fill-opacity="0.5" stroke="#000000" stroke-opacity="0.5" stroke-width="3.2"/>
<circle clip-path="url(#clip322)" cx="2290.34" cy="481.61" r="14.4" fill="#009af9" fill-rule="evenodd" fill-opacity="0.5" stroke="#000000" stroke-opacity="0.5" stroke-width="3.2"/>
<circle clip-path="url(#clip322)" cx="1337.89" cy="663.392" r="14.4" fill="#009af9" fill-rule="evenodd" fill-opacity="0.5" stroke="#000000" stroke-opacity="0.5" stroke-width="3.2"/>
<circle clip-path="url(#clip322)" cx="1021.67" cy="306.162" r="14.4" fill="#009af9" fill-rule="evenodd" fill-opacity="0.5" stroke="#000000" stroke-opacity="0.5" stroke-width="3.2"/>
<circle clip-path="url(#clip322)" cx="1845.15" cy="876.369" r="14.4" fill="#009af9" fill-rule="evenodd" fill-opacity="0.5" stroke="#000000" stroke-opacity="0.5" stroke-width="3.2"/>
<circle clip-path="url(#clip322)" cx="875.501" cy="581.657" r="14.4" fill="#009af9" fill-rule="evenodd" fill-opacity="0.5" stroke="#000000" stroke-opacity="0.5" stroke-width="3.2"/>
<circle clip-path="url(#clip322)" cx="1630.35" cy="753.986" r="14.4" fill="#009af9" fill-rule="evenodd" fill-opacity="0.5" stroke="#000000" stroke-opacity="0.5" stroke-width="3.2"/>
<circle clip-path="url(#clip322)" cx="1344.46" cy="869.937" r="14.4" fill="#009af9" fill-rule="evenodd" fill-opacity="0.5" stroke="#000000" stroke-opacity="0.5" stroke-width="3.2"/>
<circle clip-path="url(#clip322)" cx="2249.11" cy="259.377" r="14.4" fill="#009af9" fill-rule="evenodd" fill-opacity="0.5" stroke="#000000" stroke-opacity="0.5" stroke-width="3.2"/>
<circle clip-path="url(#clip322)" cx="1472.79" cy="431.655" r="14.4" fill="#009af9" fill-rule="evenodd" fill-opacity="0.5" stroke="#000000" stroke-opacity="0.5" stroke-width="3.2"/>
<circle clip-path="url(#clip322)" cx="1096.37" cy="557.69" r="14.4" fill="#009af9" fill-rule="evenodd" fill-opacity="0.5" stroke="#000000" stroke-opacity="0.5" stroke-width="3.2"/>
<circle clip-path="url(#clip322)" cx="1741.12" cy="1359.08" r="14.4" fill="#009af9" fill-rule="evenodd" fill-opacity="0.5" stroke="#000000" stroke-opacity="0.5" stroke-width="3.2"/>
<circle clip-path="url(#clip322)" cx="1096.51" cy="1415.67" r="14.4" fill="#009af9" fill-rule="evenodd" fill-opacity="0.5" stroke="#000000" stroke-opacity="0.5" stroke-width="3.2"/>
<circle clip-path="url(#clip322)" cx="893.58" cy="578.4" r="14.4" fill="#009af9" fill-rule="evenodd" fill-opacity="0.5" stroke="#000000" stroke-opacity="0.5" stroke-width="3.2"/>
<circle clip-path="url(#clip322)" cx="1459.69" cy="845.551" r="14.4" fill="#009af9" fill-rule="evenodd" fill-opacity="0.5" stroke="#000000" stroke-opacity="0.5" stroke-width="3.2"/>
<circle clip-path="url(#clip322)" cx="1348.57" cy="657.751" r="14.4" fill="#009af9" fill-rule="evenodd" fill-opacity="0.5" stroke="#000000" stroke-opacity="0.5" stroke-width="3.2"/>
<path clip-path="url(#clip322)" d="M209.891 829.875 L310.048 963.182 L1096.51 1415.67 L1787.6 1445.72 L2117.98 1109.64 L2290.34 481.61 L2249.11 259.377 L1344.32 87.9763 L209.891 829.875 L209.891 829.875  Z" fill="#e26f46" fill-rule="evenodd" fill-opacity="0.2"/>
<polyline clip-path="url(#clip322)" style="stroke:#000000; stroke-linecap:round; stroke-linejoin:round; stroke-width:4; stroke-opacity:0.2; fill:none" points="209.891,829.875 310.048,963.182 1096.51,1415.67 1787.6,1445.72 2117.98,1109.64 2290.34,481.61 2249.11,259.377 1344.32,87.9763 209.891,829.875 "/>
</svg>
