<?xml version="1.0" encoding="utf-8"?>
<svg xmlns="http://www.w3.org/2000/svg" xmlns:xlink="http://www.w3.org/1999/xlink" width="600" height="400" viewBox="0 0 2400 1600">
<defs>
  <clipPath id="clip320">
    <rect x="0" y="0" width="2400" height="1600"/>
  </clipPath>
</defs>
<path clip-path="url(#clip320)" d="M0 1600 L2400 1600 L2400 0 L0 0  Z" fill="#ffffff" fill-rule="evenodd" fill-opacity="1"/>
<defs>
  <clipPath id="clip321">
    <rect x="480" y="0" width="1681" height="1600"/>
  </clipPath>
</defs>
<path clip-path="url(#clip320)" d="M147.478 1486.45 L2352.76 1486.45 L2352.76 47.2441 L147.478 47.2441  Z" fill="#ffffff" fill-rule="evenodd" fill-opacity="1"/>
<defs>
  <clipPath id="clip322">
    <rect x="147" y="47" width="2206" height="1440"/>
  </clipPath>
</defs>
<polyline clip-path="url(#clip322)" style="stroke:#000000; stroke-linecap:round; stroke-linejoin:round; stroke-width:2; stroke-opacity:0.1; fill:none" points="372.022,1486.45 372.022,47.2441 "/>
<polyline clip-path="url(#clip322)" style="stroke:#000000; stroke-linecap:round; stroke-linejoin:round; stroke-width:2; stroke-opacity:0.1; fill:none" points="680.831,1486.45 680.831,47.2441 "/>
<polyline clip-path="url(#clip322)" style="stroke:#000000; stroke-linecap:round; stroke-linejoin:round; stroke-width:2; stroke-opacity:0.1; fill:none" points="989.639,1486.45 989.639,47.2441 "/>
<polyline clip-path="url(#clip322)" style="stroke:#000000; stroke-linecap:round; stroke-linejoin:round; stroke-width:2; stroke-opacity:0.1; fill:none" points="1298.45,1486.45 1298.45,47.2441 "/>
<polyline clip-path="url(#clip322)" style="stroke:#000000; stroke-linecap:round; stroke-linejoin:round; stroke-width:2; stroke-opacity:0.1; fill:none" points="1607.26,1486.45 1607.26,47.2441 "/>
<polyline clip-path="url(#clip322)" style="stroke:#000000; stroke-linecap:round; stroke-linejoin:round; stroke-width:2; stroke-opacity:0.1; fill:none" points="1916.06,1486.45 1916.06,47.2441 "/>
<polyline clip-path="url(#clip322)" style="stroke:#000000; stroke-linecap:round; stroke-linejoin:round; stroke-width:2; stroke-opacity:0.1; fill:none" points="2224.87,1486.45 2224.87,47.2441 "/>
<polyline clip-path="url(#clip322)" style="stroke:#000000; stroke-linecap:round; stroke-linejoin:round; stroke-width:2; stroke-opacity:0.1; fill:none" points="147.478,1318.39 2352.76,1318.39 "/>
<polyline clip-path="url(#clip322)" style="stroke:#000000; stroke-linecap:round; stroke-linejoin:round; stroke-width:2; stroke-opacity:0.1; fill:none" points="147.478,1015.56 2352.76,1015.56 "/>
<polyline clip-path="url(#clip322)" style="stroke:#000000; stroke-linecap:round; stroke-linejoin:round; stroke-width:2; stroke-opacity:0.1; fill:none" points="147.478,712.735 2352.76,712.735 "/>
<polyline clip-path="url(#clip322)" style="stroke:#000000; stroke-linecap:round; stroke-linejoin:round; stroke-width:2; stroke-opacity:0.1; fill:none" points="147.478,409.909 2352.76,409.909 "/>
<polyline clip-path="url(#clip322)" style="stroke:#000000; stroke-linecap:round; stroke-linejoin:round; stroke-width:2; stroke-opacity:0.1; fill:none" points="147.478,107.083 2352.76,107.083 "/>
<polyline clip-path="url(#clip320)" style="stroke:#000000; stroke-linecap:round; stroke-linejoin:round; stroke-width:4; stroke-opacity:1; fill:none" points="147.478,1486.45 2352.76,1486.45 "/>
<polyline clip-path="url(#clip320)" style="stroke:#000000; stroke-linecap:round; stroke-linejoin:round; stroke-width:4; stroke-opacity:1; fill:none" points="372.022,1486.45 372.022,1467.55 "/>
<polyline clip-path="url(#clip320)" style="stroke:#000000; stroke-linecap:round; stroke-linejoin:round; stroke-width:4; stroke-opacity:1; fill:none" points="680.831,1486.45 680.831,1467.55 "/>
<polyline clip-path="url(#clip320)" style="stroke:#000000; stroke-linecap:round; stroke-linejoin:round; stroke-width:4; stroke-opacity:1; fill:none" points="989.639,1486.45 989.639,1467.55 "/>
<polyline clip-path="url(#clip320)" style="stroke:#000000; stroke-linecap:round; stroke-linejoin:round; stroke-width:4; stroke-opacity:1; fill:none" points="1298.45,1486.45 1298.45,1467.55 "/>
<polyline clip-path="url(#clip320)" style="stroke:#000000; stroke-linecap:round; stroke-linejoin:round; stroke-width:4; stroke-opacity:1; fill:none" points="1607.26,1486.45 1607.26,1467.55 "/>
<polyline clip-path="url(#clip320)" style="stroke:#000000; stroke-linecap:round; stroke-linejoin:round; stroke-width:4; stroke-opacity:1; fill:none" points="1916.06,1486.45 1916.06,1467.55 "/>
<polyline clip-path="url(#clip320)" style="stroke:#000000; stroke-linecap:round; stroke-linejoin:round; stroke-width:4; stroke-opacity:1; fill:none" points="2224.87,1486.45 2224.87,1467.55 "/>
<path clip-path="url(#clip320)" d="M319.048 1532.02 L348.724 1532.02 L348.724 1535.95 L319.048 1535.95 L319.048 1532.02 Z" fill="#000000" fill-rule="nonzero" fill-opacity="1" /><path clip-path="url(#clip320)" d="M359.626 1544.91 L367.265 1544.91 L367.265 1518.55 L358.955 1520.21 L358.955 1515.95 L367.219 1514.29 L371.895 1514.29 L371.895 1544.91 L379.534 1544.91 L379.534 1548.85 L359.626 1548.85 L359.626 1544.91 Z" fill="#000000" fill-rule="nonzero" fill-opacity="1" /><path clip-path="url(#clip320)" d="M388.978 1542.97 L393.862 1542.97 L393.862 1548.85 L388.978 1548.85 L388.978 1542.97 Z" fill="#000000" fill-rule="nonzero" fill-opacity="1" /><path clip-path="url(#clip320)" d="M404.094 1514.29 L422.45 1514.29 L422.45 1518.22 L408.376 1518.22 L408.376 1526.7 Q409.395 1526.35 410.413 1526.19 Q411.432 1526 412.45 1526 Q418.237 1526 421.617 1529.17 Q424.996 1532.34 424.996 1537.76 Q424.996 1543.34 421.524 1546.44 Q418.052 1549.52 411.733 1549.52 Q409.557 1549.52 407.288 1549.15 Q405.043 1548.78 402.635 1548.04 L402.635 1543.34 Q404.719 1544.47 406.941 1545.03 Q409.163 1545.58 411.64 1545.58 Q415.645 1545.58 417.983 1543.48 Q420.321 1541.37 420.321 1537.76 Q420.321 1534.15 417.983 1532.04 Q415.645 1529.94 411.64 1529.94 Q409.765 1529.94 407.89 1530.35 Q406.038 1530.77 404.094 1531.65 L404.094 1514.29 Z" fill="#000000" fill-rule="nonzero" fill-opacity="1" /><path clip-path="url(#clip320)" d="M627.359 1532.02 L657.035 1532.02 L657.035 1535.95 L627.359 1535.95 L627.359 1532.02 Z" fill="#000000" fill-rule="nonzero" fill-opacity="1" /><path clip-path="url(#clip320)" d="M667.937 1544.91 L675.576 1544.91 L675.576 1518.55 L667.266 1520.21 L667.266 1515.95 L675.53 1514.29 L680.206 1514.29 L680.206 1544.91 L687.845 1544.91 L687.845 1548.85 L667.937 1548.85 L667.937 1544.91 Z" fill="#000000" fill-rule="nonzero" fill-opacity="1" /><path clip-path="url(#clip320)" d="M697.289 1542.97 L702.173 1542.97 L702.173 1548.85 L697.289 1548.85 L697.289 1542.97 Z" fill="#000000" fill-rule="nonzero" fill-opacity="1" /><path clip-path="url(#clip320)" d="M722.358 1517.37 Q718.747 1517.37 716.918 1520.93 Q715.113 1524.47 715.113 1531.6 Q715.113 1538.71 716.918 1542.27 Q718.747 1545.82 722.358 1545.82 Q725.993 1545.82 727.798 1542.27 Q729.627 1538.71 729.627 1531.6 Q729.627 1524.47 727.798 1520.93 Q725.993 1517.37 722.358 1517.37 M722.358 1513.66 Q728.168 1513.66 731.224 1518.27 Q734.303 1522.85 734.303 1531.6 Q734.303 1540.33 731.224 1544.94 Q728.168 1549.52 722.358 1549.52 Q716.548 1549.52 713.469 1544.94 Q710.414 1540.33 710.414 1531.6 Q710.414 1522.85 713.469 1518.27 Q716.548 1513.66 722.358 1513.66 Z" fill="#000000" fill-rule="nonzero" fill-opacity="1" /><path clip-path="url(#clip320)" d="M936.665 1532.02 L966.341 1532.02 L966.341 1535.95 L936.665 1535.95 L936.665 1532.02 Z" fill="#000000" fill-rule="nonzero" fill-opacity="1" /><path clip-path="url(#clip320)" d="M986.433 1517.37 Q982.822 1517.37 980.993 1520.93 Q979.188 1524.47 979.188 1531.6 Q979.188 1538.71 980.993 1542.27 Q982.822 1545.82 986.433 1545.82 Q990.067 1545.82 991.873 1542.27 Q993.702 1538.71 993.702 1531.6 Q993.702 1524.47 991.873 1520.93 Q990.067 1517.37 986.433 1517.37 M986.433 1513.66 Q992.243 1513.66 995.299 1518.27 Q998.378 1522.85 998.378 1531.6 Q998.378 1540.33 995.299 1544.94 Q992.243 1549.52 986.433 1549.52 Q980.623 1549.52 977.544 1544.94 Q974.489 1540.33 974.489 1531.6 Q974.489 1522.85 977.544 1518.27 Q980.623 1513.66 986.433 1513.66 Z" fill="#000000" fill-rule="nonzero" fill-opacity="1" /><path clip-path="url(#clip320)" d="M1006.6 1542.97 L1011.48 1542.97 L1011.48 1548.85 L1006.6 1548.85 L1006.6 1542.97 Z" fill="#000000" fill-rule="nonzero" fill-opacity="1" /><path clip-path="url(#clip320)" d="M1021.71 1514.29 L1040.07 1514.29 L1040.07 1518.22 L1025.99 1518.22 L1025.99 1526.7 Q1027.01 1526.35 1028.03 1526.19 Q1029.05 1526 1030.07 1526 Q1035.85 1526 1039.23 1529.17 Q1042.61 1532.34 1042.61 1537.76 Q1042.61 1543.34 1039.14 1546.44 Q1035.67 1549.52 1029.35 1549.52 Q1027.17 1549.52 1024.91 1549.15 Q1022.66 1548.78 1020.25 1548.04 L1020.25 1543.34 Q1022.34 1544.47 1024.56 1545.03 Q1026.78 1545.58 1029.26 1545.58 Q1033.26 1545.58 1035.6 1543.48 Q1037.94 1541.37 1037.94 1537.76 Q1037.94 1534.15 1035.6 1532.04 Q1033.26 1529.94 1029.26 1529.94 Q1027.38 1529.94 1025.51 1530.35 Q1023.66 1530.77 1021.71 1531.65 L1021.71 1514.29 Z" fill="#000000" fill-rule="nonzero" fill-opacity="1" /><path clip-path="url(#clip320)" d="M1275.83 1517.37 Q1272.22 1517.37 1270.39 1520.93 Q1268.59 1524.47 1268.59 1531.6 Q1268.59 1538.71 1270.39 1542.27 Q1272.22 1545.82 1275.83 1545.82 Q1279.47 1545.82 1281.27 1542.27 Q1283.1 1538.71 1283.1 1531.6 Q1283.1 1524.47 1281.27 1520.93 Q1279.47 1517.37 1275.83 1517.37 M1275.83 1513.66 Q1281.64 1513.66 1284.7 1518.27 Q1287.78 1522.85 1287.78 1531.6 Q1287.78 1540.33 1284.7 1544.94 Q1281.64 1549.52 1275.83 1549.52 Q1270.02 1549.52 1266.94 1544.94 Q1263.89 1540.33 1263.89 1531.6 Q1263.89 1522.85 1266.94 1518.27 Q1270.02 1513.66 1275.83 1513.66 Z" fill="#000000" fill-rule="nonzero" fill-opacity="1" /><path clip-path="url(#clip320)" d="M1295.99 1542.97 L1300.88 1542.97 L1300.88 1548.85 L1295.99 1548.85 L1295.99 1542.97 Z" fill="#000000" fill-rule="nonzero" fill-opacity="1" /><path clip-path="url(#clip320)" d="M1321.06 1517.37 Q1317.45 1517.37 1315.62 1520.93 Q1313.82 1524.47 1313.82 1531.6 Q1313.82 1538.71 1315.62 1542.27 Q1317.45 1545.82 1321.06 1545.82 Q1324.7 1545.82 1326.5 1542.27 Q1328.33 1538.71 1328.33 1531.6 Q1328.33 1524.47 1326.5 1520.93 Q1324.7 1517.37 1321.06 1517.37 M1321.06 1513.66 Q1326.87 1513.66 1329.93 1518.27 Q1333.01 1522.85 1333.01 1531.6 Q1333.01 1540.33 1329.93 1544.94 Q1326.87 1549.52 1321.06 1549.52 Q1315.25 1549.52 1312.17 1544.94 Q1309.12 1540.33 1309.12 1531.6 Q1309.12 1522.85 1312.17 1518.27 Q1315.25 1513.66 1321.06 1513.66 Z" fill="#000000" fill-rule="nonzero" fill-opacity="1" /><path clip-path="url(#clip320)" d="M1585.14 1517.37 Q1581.53 1517.37 1579.7 1520.93 Q1577.89 1524.47 1577.89 1531.6 Q1577.89 1538.71 1579.7 1542.27 Q1581.53 1545.82 1585.14 1545.82 Q1588.77 1545.82 1590.58 1542.27 Q1592.41 1538.71 1592.41 1531.6 Q1592.41 1524.47 1590.58 1520.93 Q1588.77 1517.37 1585.14 1517.37 M1585.14 1513.66 Q1590.95 1513.66 1594 1518.27 Q1597.08 1522.85 1597.08 1531.6 Q1597.08 1540.33 1594 1544.94 Q1590.95 1549.52 1585.14 1549.52 Q1579.33 1549.52 1576.25 1544.94 Q1573.19 1540.33 1573.19 1531.6 Q1573.19 1522.85 1576.25 1518.27 Q1579.33 1513.66 1585.14 1513.66 Z" fill="#000000" fill-rule="nonzero" fill-opacity="1" /><path clip-path="url(#clip320)" d="M1605.3 1542.97 L1610.18 1542.97 L1610.18 1548.85 L1605.3 1548.85 L1605.3 1542.97 Z" fill="#000000" fill-rule="nonzero" fill-opacity="1" /><path clip-path="url(#clip320)" d="M1620.42 1514.29 L1638.77 1514.29 L1638.77 1518.22 L1624.7 1518.22 L1624.7 1526.7 Q1625.72 1526.35 1626.74 1526.19 Q1627.75 1526 1628.77 1526 Q1634.56 1526 1637.94 1529.17 Q1641.32 1532.34 1641.32 1537.76 Q1641.32 1543.34 1637.85 1546.44 Q1634.37 1549.52 1628.05 1549.52 Q1625.88 1549.52 1623.61 1549.15 Q1621.36 1548.78 1618.96 1548.04 L1618.96 1543.34 Q1621.04 1544.47 1623.26 1545.03 Q1625.49 1545.58 1627.96 1545.58 Q1631.97 1545.58 1634.3 1543.48 Q1636.64 1541.37 1636.64 1537.76 Q1636.64 1534.15 1634.3 1532.04 Q1631.97 1529.94 1627.96 1529.94 Q1626.09 1529.94 1624.21 1530.35 Q1622.36 1530.77 1620.42 1531.65 L1620.42 1514.29 Z" fill="#000000" fill-rule="nonzero" fill-opacity="1" /><path clip-path="url(#clip320)" d="M1883.22 1544.91 L1890.86 1544.91 L1890.86 1518.55 L1882.55 1520.21 L1882.55 1515.95 L1890.81 1514.29 L1895.49 1514.29 L1895.49 1544.91 L1903.12 1544.91 L1903.12 1548.85 L1883.22 1548.85 L1883.22 1544.91 Z" fill="#000000" fill-rule="nonzero" fill-opacity="1" /><path clip-path="url(#clip320)" d="M1912.57 1542.97 L1917.45 1542.97 L1917.45 1548.85 L1912.57 1548.85 L1912.57 1542.97 Z" fill="#000000" fill-rule="nonzero" fill-opacity="1" /><path clip-path="url(#clip320)" d="M1937.64 1517.37 Q1934.03 1517.37 1932.2 1520.93 Q1930.39 1524.47 1930.39 1531.6 Q1930.39 1538.71 1932.2 1542.27 Q1934.03 1545.82 1937.64 1545.82 Q1941.27 1545.82 1943.08 1542.27 Q1944.91 1538.71 1944.91 1531.6 Q1944.91 1524.47 1943.08 1520.93 Q1941.27 1517.37 1937.64 1517.37 M1937.64 1513.66 Q1943.45 1513.66 1946.5 1518.27 Q1949.58 1522.85 1949.58 1531.6 Q1949.58 1540.33 1946.5 1544.94 Q1943.45 1549.52 1937.64 1549.52 Q1931.83 1549.52 1928.75 1544.94 Q1925.69 1540.33 1925.69 1531.6 Q1925.69 1522.85 1928.75 1518.27 Q1931.83 1513.66 1937.64 1513.66 Z" fill="#000000" fill-rule="nonzero" fill-opacity="1" /><path clip-path="url(#clip320)" d="M2192.52 1544.91 L2200.16 1544.91 L2200.16 1518.55 L2191.85 1520.21 L2191.85 1515.95 L2200.12 1514.29 L2204.79 1514.29 L2204.79 1544.91 L2212.43 1544.91 L2212.43 1548.85 L2192.52 1548.85 L2192.52 1544.91 Z" fill="#000000" fill-rule="nonzero" fill-opacity="1" /><path clip-path="url(#clip320)" d="M2221.88 1542.97 L2226.76 1542.97 L2226.76 1548.85 L2221.88 1548.85 L2221.88 1542.97 Z" fill="#000000" fill-rule="nonzero" fill-opacity="1" /><path clip-path="url(#clip320)" d="M2236.99 1514.29 L2255.35 1514.29 L2255.35 1518.22 L2241.27 1518.22 L2241.27 1526.7 Q2242.29 1526.35 2243.31 1526.19 Q2244.33 1526 2245.35 1526 Q2251.13 1526 2254.51 1529.17 Q2257.89 1532.34 2257.89 1537.76 Q2257.89 1543.34 2254.42 1546.44 Q2250.95 1549.52 2244.63 1549.52 Q2242.45 1549.52 2240.19 1549.15 Q2237.94 1548.78 2235.53 1548.04 L2235.53 1543.34 Q2237.62 1544.47 2239.84 1545.03 Q2242.06 1545.58 2244.54 1545.58 Q2248.54 1545.58 2250.88 1543.48 Q2253.22 1541.37 2253.22 1537.76 Q2253.22 1534.15 2250.88 1532.04 Q2248.54 1529.94 2244.54 1529.94 Q2242.66 1529.94 2240.79 1530.35 Q2238.94 1530.77 2236.99 1531.65 L2236.99 1514.29 Z" fill="#000000" fill-rule="nonzero" fill-opacity="1" /><polyline clip-path="url(#clip320)" style="stroke:#000000; stroke-linecap:round; stroke-linejoin:round; stroke-width:4; stroke-opacity:1; fill:none" points="147.478,1486.45 147.478,47.2441 "/>
<polyline clip-path="url(#clip320)" style="stroke:#000000; stroke-linecap:round; stroke-linejoin:round; stroke-width:4; stroke-opacity:1; fill:none" points="147.478,1318.39 166.376,1318.39 "/>
<polyline clip-path="url(#clip320)" style="stroke:#000000; stroke-linecap:round; stroke-linejoin:round; stroke-width:4; stroke-opacity:1; fill:none" points="147.478,1015.56 166.376,1015.56 "/>
<polyline clip-path="url(#clip320)" style="stroke:#000000; stroke-linecap:round; stroke-linejoin:round; stroke-width:4; stroke-opacity:1; fill:none" points="147.478,712.735 166.376,712.735 "/>
<polyline clip-path="url(#clip320)" style="stroke:#000000; stroke-linecap:round; stroke-linejoin:round; stroke-width:4; stroke-opacity:1; fill:none" points="147.478,409.909 166.376,409.909 "/>
<polyline clip-path="url(#clip320)" style="stroke:#000000; stroke-linecap:round; stroke-linejoin:round; stroke-width:4; stroke-opacity:1; fill:none" points="147.478,107.083 166.376,107.083 "/>
<path clip-path="url(#clip320)" d="M51.3625 1318.84 L81.0383 1318.84 L81.0383 1322.77 L51.3625 1322.77 L51.3625 1318.84 Z" fill="#000000" fill-rule="nonzero" fill-opacity="1" /><path clip-path="url(#clip320)" d="M95.1586 1331.73 L111.478 1331.73 L111.478 1335.67 L89.5336 1335.67 L89.5336 1331.73 Q92.1956 1328.98 96.7789 1324.35 Q101.385 1319.7 102.566 1318.35 Q104.811 1315.83 105.691 1314.09 Q106.594 1312.33 106.594 1310.64 Q106.594 1307.89 104.649 1306.15 Q102.728 1304.42 99.6261 1304.42 Q97.4271 1304.42 94.9734 1305.18 Q92.5428 1305.95 89.7651 1307.5 L89.7651 1302.77 Q92.5891 1301.64 95.0428 1301.06 Q97.4965 1300.48 99.5335 1300.48 Q104.904 1300.48 108.098 1303.17 Q111.293 1305.85 111.293 1310.34 Q111.293 1312.47 110.483 1314.39 Q109.696 1316.29 107.589 1318.89 Q107.01 1319.56 103.909 1322.77 Q100.807 1325.97 95.1586 1331.73 Z" fill="#000000" fill-rule="nonzero" fill-opacity="1" /><path clip-path="url(#clip320)" d="M50.9921 1016.01 L80.6679 1016.01 L80.6679 1019.95 L50.9921 1019.95 L50.9921 1016.01 Z" fill="#000000" fill-rule="nonzero" fill-opacity="1" /><path clip-path="url(#clip320)" d="M91.5706 1028.91 L99.2095 1028.91 L99.2095 1002.54 L90.8993 1004.21 L90.8993 999.948 L99.1632 998.281 L103.839 998.281 L103.839 1028.91 L111.478 1028.91 L111.478 1032.84 L91.5706 1032.84 L91.5706 1028.91 Z" fill="#000000" fill-rule="nonzero" fill-opacity="1" /><path clip-path="url(#clip320)" d="M99.5335 698.534 Q95.9224 698.534 94.0937 702.099 Q92.2882 705.64 92.2882 712.77 Q92.2882 719.876 94.0937 723.441 Q95.9224 726.983 99.5335 726.983 Q103.168 726.983 104.973 723.441 Q106.802 719.876 106.802 712.77 Q106.802 705.64 104.973 702.099 Q103.168 698.534 99.5335 698.534 M99.5335 694.83 Q105.344 694.83 108.399 699.437 Q111.478 704.02 111.478 712.77 Q111.478 721.497 108.399 726.103 Q105.344 730.687 99.5335 730.687 Q93.7234 730.687 90.6447 726.103 Q87.5892 721.497 87.5892 712.77 Q87.5892 704.02 90.6447 699.437 Q93.7234 694.83 99.5335 694.83 Z" fill="#000000" fill-rule="nonzero" fill-opacity="1" /><path clip-path="url(#clip320)" d="M91.5706 423.254 L99.2095 423.254 L99.2095 396.888 L90.8993 398.555 L90.8993 394.296 L99.1632 392.629 L103.839 392.629 L103.839 423.254 L111.478 423.254 L111.478 427.189 L91.5706 427.189 L91.5706 423.254 Z" fill="#000000" fill-rule="nonzero" fill-opacity="1" /><path clip-path="url(#clip320)" d="M95.1586 120.428 L111.478 120.428 L111.478 124.363 L89.5336 124.363 L89.5336 120.428 Q92.1956 117.673 96.7789 113.044 Q101.385 108.391 102.566 107.048 Q104.811 104.525 105.691 102.789 Q106.594 101.03 106.594 99.3401 Q106.594 96.5855 104.649 94.8494 Q102.728 93.1133 99.6261 93.1133 Q97.4271 93.1133 94.9734 93.8772 Q92.5428 94.6411 89.7651 96.192 L89.7651 91.4698 Q92.5891 90.3355 95.0428 89.7568 Q97.4965 89.1781 99.5335 89.1781 Q104.904 89.1781 108.098 91.8633 Q111.293 94.5485 111.293 99.0392 Q111.293 101.169 110.483 103.09 Q109.696 104.988 107.589 107.581 Q107.01 108.252 103.909 111.47 Q100.807 114.664 95.1586 120.428 Z" fill="#000000" fill-rule="nonzero" fill-opacity="1" /><circle clip-path="url(#clip322)" cx="1600.63" cy="1039.35" r="14.4" fill="#009af9" fill-rule="evenodd" fill-opacity="0.5" stroke="#000000" stroke-opacity="0.5" stroke-width="3.2"/>
<circle clip-path="url(#clip322)" cx="1728.9" cy="407.819" r="14.4" fill="#009af9" fill-rule="evenodd" fill-opacity="0.5" stroke="#000000" stroke-opacity="0.5" stroke-width="3.2"/>
<circle clip-path="url(#clip322)" cx="1204.35" cy="893.14" r="14.4" fill="#009af9" fill-rule="evenodd" fill-opacity="0.5" stroke="#000000" stroke-opacity="0.5" stroke-width="3.2"/>
<circle clip-path="url(#clip322)" cx="1194.91" cy="1000.57" r="14.4" fill="#009af9" fill-rule="evenodd" fill-opacity="0.5" stroke="#000000" stroke-opacity="0.5" stroke-width="3.2"/>
<circle clip-path="url(#clip322)" cx="1922.34" cy="660.909" r="14.4" fill="#009af9" fill-rule="evenodd" fill-opacity="0.5" stroke="#000000" stroke-opacity="0.5" stroke-width="3.2"/>
<circle clip-path="url(#clip322)" cx="1162.51" cy="615.459" r="14.4" fill="#009af9" fill-rule="evenodd" fill-opacity="0.5" stroke="#000000" stroke-opacity="0.5" stroke-width="3.2"/>
<circle clip-path="url(#clip322)" cx="209.891" cy="801.26" r="14.4" fill="#009af9" fill-rule="evenodd" fill-opacity="0.5" stroke="#000000" stroke-opacity="0.5" stroke-width="3.2"/>
<circle clip-path="url(#clip322)" cx="1776.47" cy="1236.4" r="14.4" fill="#009af9" fill-rule="evenodd" fill-opacity="0.5" stroke="#000000" stroke-opacity="0.5" stroke-width="3.2"/>
<circle clip-path="url(#clip322)" cx="1478.1" cy="663.097" r="14.4" fill="#009af9" fill-rule="evenodd" fill-opacity="0.5" stroke="#000000" stroke-opacity="0.5" stroke-width="3.2"/>
<circle clip-path="url(#clip322)" cx="704.884" cy="936.556" r="14.4" fill="#009af9" fill-rule="evenodd" fill-opacity="0.5" stroke="#000000" stroke-opacity="0.5" stroke-width="3.2"/>
<circle clip-path="url(#clip322)" cx="1916.12" cy="568.881" r="14.4" fill="#009af9" fill-rule="evenodd" fill-opacity="0.5" stroke="#000000" stroke-opacity="0.5" stroke-width="3.2"/>
<circle clip-path="url(#clip322)" cx="1162.29" cy="233.917" r="14.4" fill="#009af9" fill-rule="evenodd" fill-opacity="0.5" stroke="#000000" stroke-opacity="0.5" stroke-width="3.2"/>
<circle clip-path="url(#clip322)" cx="1842.47" cy="87.9763" r="14.4" fill="#009af9" fill-rule="evenodd" fill-opacity="0.5" stroke="#000000" stroke-opacity="0.5" stroke-width="3.2"/>
<circle clip-path="url(#clip322)" cx="956.812" cy="795.809" r="14.4" fill="#009af9" fill-rule="evenodd" fill-opacity="0.5" stroke="#000000" stroke-opacity="0.5" stroke-width="3.2"/>
<circle clip-path="url(#clip322)" cx="1527.63" cy="833.505" r="14.4" fill="#009af9" fill-rule="evenodd" fill-opacity="0.5" stroke="#000000" stroke-opacity="0.5" stroke-width="3.2"/>
<circle clip-path="url(#clip322)" cx="326.262" cy="623.624" r="14.4" fill="#009af9" fill-rule="evenodd" fill-opacity="0.5" stroke="#000000" stroke-opacity="0.5" stroke-width="3.2"/>
<circle clip-path="url(#clip322)" cx="789.849" cy="874.011" r="14.4" fill="#009af9" fill-rule="evenodd" fill-opacity="0.5" stroke="#000000" stroke-opacity="0.5" stroke-width="3.2"/>
<circle clip-path="url(#clip322)" cx="927.495" cy="977.969" r="14.4" fill="#009af9" fill-rule="evenodd" fill-opacity="0.5" stroke="#000000" stroke-opacity="0.5" stroke-width="3.2"/>
<circle clip-path="url(#clip322)" cx="1325.81" cy="607.44" r="14.4" fill="#009af9" fill-rule="evenodd" fill-opacity="0.5" stroke="#000000" stroke-opacity="0.5" stroke-width="3.2"/>
<circle clip-path="url(#clip322)" cx="839.863" cy="630.073" r="14.4" fill="#009af9" fill-rule="evenodd" fill-opacity="0.5" stroke="#000000" stroke-opacity="0.5" stroke-width="3.2"/>
<circle clip-path="url(#clip322)" cx="867.221" cy="120.865" r="14.4" fill="#009af9" fill-rule="evenodd" fill-opacity="0.5" stroke="#000000" stroke-opacity="0.5" stroke-width="3.2"/>
<circle clip-path="url(#clip322)" cx="1105.23" cy="621.21" r="14.4" fill="#009af9" fill-rule="evenodd" fill-opacity="0.5" stroke="#000000" stroke-opacity="0.5" stroke-width="3.2"/>
<circle clip-path="url(#clip322)" cx="611.062" cy="1445.72" r="14.4" fill="#009af9" fill-rule="evenodd" fill-opacity="0.5" stroke="#000000" stroke-opacity="0.5" stroke-width="3.2"/>
<circle clip-path="url(#clip322)" cx="1801.88" cy="469.387" r="14.4" fill="#009af9" fill-rule="evenodd" fill-opacity="0.5" stroke="#000000" stroke-opacity="0.5" stroke-width="3.2"/>
<circle clip-path="url(#clip322)" cx="885.271" cy="1157.09" r="14.4" fill="#009af9" fill-rule="evenodd" fill-opacity="0.5" stroke="#000000" stroke-opacity="0.5" stroke-width="3.2"/>
<circle clip-path="url(#clip322)" cx="1305.2" cy="768.528" r="14.4" fill="#009af9" fill-rule="evenodd" fill-opacity="0.5" stroke="#000000" stroke-opacity="0.5" stroke-width="3.2"/>
<circle clip-path="url(#clip322)" cx="1218.93" cy="1184.99" r="14.4" fill="#009af9" fill-rule="evenodd" fill-opacity="0.5" stroke="#000000" stroke-opacity="0.5" stroke-width="3.2"/>
<circle clip-path="url(#clip322)" cx="928.22" cy="653.72" r="14.4" fill="#009af9" fill-rule="evenodd" fill-opacity="0.5" stroke="#000000" stroke-opacity="0.5" stroke-width="3.2"/>
<circle clip-path="url(#clip322)" cx="2290.34" cy="726.771" r="14.4" fill="#009af9" fill-rule="evenodd" fill-opacity="0.5" stroke="#000000" stroke-opacity="0.5" stroke-width="3.2"/>
<circle clip-path="url(#clip322)" cx="1483.97" cy="461.06" r="14.4" fill="#009af9" fill-rule="evenodd" fill-opacity="0.5" stroke="#000000" stroke-opacity="0.5" stroke-width="3.2"/>
<path clip-path="url(#clip322)" d="M209.891 801.26 L611.062 1445.72 L1776.47 1236.4 L2290.34 726.771 L1842.47 87.9763 L867.221 120.865 L326.262 623.624 L209.891 801.26 L209.891 801.26  Z" fill="#e26f46" fill-rule="evenodd" fill-opacity="0.2"/>
<polyline clip-path="url(#clip322)" style="stroke:#000000; stroke-linecap:round; stroke-linejoin:round; stroke-width:4; stroke-opacity:0.2; fill:none" points="209.891,801.26 611.062,1445.72 1776.47,1236.4 2290.34,726.771 1842.47,87.9763 867.221,120.865 326.262,623.624 209.891,801.26 "/>
</svg>
