<?xml version="1.0" encoding="utf-8"?>
<svg xmlns="http://www.w3.org/2000/svg" xmlns:xlink="http://www.w3.org/1999/xlink" width="600" height="400" viewBox="0 0 2400 1600">
<defs>
  <clipPath id="clip940">
    <rect x="0" y="0" width="2400" height="1600"/>
  </clipPath>
</defs>
<path clip-path="url(#clip940)" d="M0 1600 L2400 1600 L2400 0 L0 0  Z" fill="#ffffff" fill-rule="evenodd" fill-opacity="1"/>
<defs>
  <clipPath id="clip941">
    <rect x="480" y="0" width="1681" height="1600"/>
  </clipPath>
</defs>
<path clip-path="url(#clip940)" d="M147.478 1486.45 L2352.76 1486.45 L2352.76 47.2441 L147.478 47.2441  Z" fill="#ffffff" fill-rule="evenodd" fill-opacity="1"/>
<defs>
  <clipPath id="clip942">
    <rect x="147" y="47" width="2206" height="1440"/>
  </clipPath>
</defs>
<polyline clip-path="url(#clip942)" style="stroke:#000000; stroke-linecap:round; stroke-linejoin:round; stroke-width:2; stroke-opacity:0.1; fill:none" points="453.525,1486.45 453.525,47.2441 "/>
<polyline clip-path="url(#clip942)" style="stroke:#000000; stroke-linecap:round; stroke-linejoin:round; stroke-width:2; stroke-opacity:0.1; fill:none" points="959.589,1486.45 959.589,47.2441 "/>
<polyline clip-path="url(#clip942)" style="stroke:#000000; stroke-linecap:round; stroke-linejoin:round; stroke-width:2; stroke-opacity:0.1; fill:none" points="1465.65,1486.45 1465.65,47.2441 "/>
<polyline clip-path="url(#clip942)" style="stroke:#000000; stroke-linecap:round; stroke-linejoin:round; stroke-width:2; stroke-opacity:0.1; fill:none" points="1971.72,1486.45 1971.72,47.2441 "/>
<polyline clip-path="url(#clip942)" style="stroke:#000000; stroke-linecap:round; stroke-linejoin:round; stroke-width:2; stroke-opacity:0.1; fill:none" points="147.478,1478.18 2352.76,1478.18 "/>
<polyline clip-path="url(#clip942)" style="stroke:#000000; stroke-linecap:round; stroke-linejoin:round; stroke-width:2; stroke-opacity:0.1; fill:none" points="147.478,1127.22 2352.76,1127.22 "/>
<polyline clip-path="url(#clip942)" style="stroke:#000000; stroke-linecap:round; stroke-linejoin:round; stroke-width:2; stroke-opacity:0.1; fill:none" points="147.478,776.254 2352.76,776.254 "/>
<polyline clip-path="url(#clip942)" style="stroke:#000000; stroke-linecap:round; stroke-linejoin:round; stroke-width:2; stroke-opacity:0.1; fill:none" points="147.478,425.289 2352.76,425.289 "/>
<polyline clip-path="url(#clip942)" style="stroke:#000000; stroke-linecap:round; stroke-linejoin:round; stroke-width:2; stroke-opacity:0.1; fill:none" points="147.478,74.3233 2352.76,74.3233 "/>
<polyline clip-path="url(#clip940)" style="stroke:#000000; stroke-linecap:round; stroke-linejoin:round; stroke-width:4; stroke-opacity:1; fill:none" points="147.478,1486.45 2352.76,1486.45 "/>
<polyline clip-path="url(#clip940)" style="stroke:#000000; stroke-linecap:round; stroke-linejoin:round; stroke-width:4; stroke-opacity:1; fill:none" points="453.525,1486.45 453.525,1467.55 "/>
<polyline clip-path="url(#clip940)" style="stroke:#000000; stroke-linecap:round; stroke-linejoin:round; stroke-width:4; stroke-opacity:1; fill:none" points="959.589,1486.45 959.589,1467.55 "/>
<polyline clip-path="url(#clip940)" style="stroke:#000000; stroke-linecap:round; stroke-linejoin:round; stroke-width:4; stroke-opacity:1; fill:none" points="1465.65,1486.45 1465.65,1467.55 "/>
<polyline clip-path="url(#clip940)" style="stroke:#000000; stroke-linecap:round; stroke-linejoin:round; stroke-width:4; stroke-opacity:1; fill:none" points="1971.72,1486.45 1971.72,1467.55 "/>
<path clip-path="url(#clip940)" d="M423.283 1532.02 L452.958 1532.02 L452.958 1535.95 L423.283 1535.95 L423.283 1532.02 Z" fill="#000000" fill-rule="nonzero" fill-opacity="1" /><path clip-path="url(#clip940)" d="M463.861 1544.91 L471.5 1544.91 L471.5 1518.55 L463.19 1520.21 L463.19 1515.95 L471.454 1514.29 L476.13 1514.29 L476.13 1544.91 L483.768 1544.91 L483.768 1548.85 L463.861 1548.85 L463.861 1544.91 Z" fill="#000000" fill-rule="nonzero" fill-opacity="1" /><path clip-path="url(#clip940)" d="M959.589 1517.37 Q955.978 1517.37 954.149 1520.93 Q952.344 1524.47 952.344 1531.6 Q952.344 1538.71 954.149 1542.27 Q955.978 1545.82 959.589 1545.82 Q963.223 1545.82 965.029 1542.27 Q966.857 1538.71 966.857 1531.6 Q966.857 1524.47 965.029 1520.93 Q963.223 1517.37 959.589 1517.37 M959.589 1513.66 Q965.399 1513.66 968.455 1518.27 Q971.533 1522.85 971.533 1531.6 Q971.533 1540.33 968.455 1544.94 Q965.399 1549.52 959.589 1549.52 Q953.779 1549.52 950.7 1544.94 Q947.644 1540.33 947.644 1531.6 Q947.644 1522.85 950.7 1518.27 Q953.779 1513.66 959.589 1513.66 Z" fill="#000000" fill-rule="nonzero" fill-opacity="1" /><path clip-path="url(#clip940)" d="M1456.03 1544.91 L1463.67 1544.91 L1463.67 1518.55 L1455.36 1520.21 L1455.36 1515.95 L1463.63 1514.29 L1468.3 1514.29 L1468.3 1544.91 L1475.94 1544.91 L1475.94 1548.85 L1456.03 1548.85 L1456.03 1544.91 Z" fill="#000000" fill-rule="nonzero" fill-opacity="1" /><path clip-path="url(#clip940)" d="M1966.37 1544.91 L1982.69 1544.91 L1982.69 1548.85 L1960.74 1548.85 L1960.74 1544.91 Q1963.41 1542.16 1967.99 1537.53 Q1972.6 1532.88 1973.78 1531.53 Q1976.02 1529.01 1976.9 1527.27 Q1977.8 1525.51 1977.8 1523.82 Q1977.8 1521.07 1975.86 1519.33 Q1973.94 1517.6 1970.84 1517.6 Q1968.64 1517.6 1966.18 1518.36 Q1963.75 1519.13 1960.97 1520.68 L1960.97 1515.95 Q1963.8 1514.82 1966.25 1514.24 Q1968.71 1513.66 1970.74 1513.66 Q1976.11 1513.66 1979.31 1516.35 Q1982.5 1519.03 1982.5 1523.52 Q1982.5 1525.65 1981.69 1527.57 Q1980.91 1529.47 1978.8 1532.07 Q1978.22 1532.74 1975.12 1535.95 Q1972.02 1539.15 1966.37 1544.91 Z" fill="#000000" fill-rule="nonzero" fill-opacity="1" /><polyline clip-path="url(#clip940)" style="stroke:#000000; stroke-linecap:round; stroke-linejoin:round; stroke-width:4; stroke-opacity:1; fill:none" points="147.478,1486.45 147.478,47.2441 "/>
<polyline clip-path="url(#clip940)" style="stroke:#000000; stroke-linecap:round; stroke-linejoin:round; stroke-width:4; stroke-opacity:1; fill:none" points="147.478,1478.18 166.376,1478.18 "/>
<polyline clip-path="url(#clip940)" style="stroke:#000000; stroke-linecap:round; stroke-linejoin:round; stroke-width:4; stroke-opacity:1; fill:none" points="147.478,1127.22 166.376,1127.22 "/>
<polyline clip-path="url(#clip940)" style="stroke:#000000; stroke-linecap:round; stroke-linejoin:round; stroke-width:4; stroke-opacity:1; fill:none" points="147.478,776.254 166.376,776.254 "/>
<polyline clip-path="url(#clip940)" style="stroke:#000000; stroke-linecap:round; stroke-linejoin:round; stroke-width:4; stroke-opacity:1; fill:none" points="147.478,425.289 166.376,425.289 "/>
<polyline clip-path="url(#clip940)" style="stroke:#000000; stroke-linecap:round; stroke-linejoin:round; stroke-width:4; stroke-opacity:1; fill:none" points="147.478,74.3233 166.376,74.3233 "/>
<path clip-path="url(#clip940)" d="M51.3625 1478.64 L81.0383 1478.64 L81.0383 1482.57 L51.3625 1482.57 L51.3625 1478.64 Z" fill="#000000" fill-rule="nonzero" fill-opacity="1" /><path clip-path="url(#clip940)" d="M95.1586 1491.53 L111.478 1491.53 L111.478 1495.46 L89.5336 1495.46 L89.5336 1491.53 Q92.1956 1488.77 96.7789 1484.15 Q101.385 1479.49 102.566 1478.15 Q104.811 1475.63 105.691 1473.89 Q106.594 1472.13 106.594 1470.44 Q106.594 1467.69 104.649 1465.95 Q102.728 1464.21 99.6261 1464.21 Q97.4271 1464.21 94.9734 1464.98 Q92.5428 1465.74 89.7651 1467.29 L89.7651 1462.57 Q92.5891 1461.44 95.0428 1460.86 Q97.4965 1460.28 99.5335 1460.28 Q104.904 1460.28 108.098 1462.96 Q111.293 1465.65 111.293 1470.14 Q111.293 1472.27 110.483 1474.19 Q109.696 1476.09 107.589 1478.68 Q107.01 1479.35 103.909 1482.57 Q100.807 1485.77 95.1586 1491.53 Z" fill="#000000" fill-rule="nonzero" fill-opacity="1" /><path clip-path="url(#clip940)" d="M50.9921 1127.67 L80.6679 1127.67 L80.6679 1131.61 L50.9921 1131.61 L50.9921 1127.67 Z" fill="#000000" fill-rule="nonzero" fill-opacity="1" /><path clip-path="url(#clip940)" d="M91.5706 1140.56 L99.2095 1140.56 L99.2095 1114.2 L90.8993 1115.87 L90.8993 1111.61 L99.1632 1109.94 L103.839 1109.94 L103.839 1140.56 L111.478 1140.56 L111.478 1144.5 L91.5706 1144.5 L91.5706 1140.56 Z" fill="#000000" fill-rule="nonzero" fill-opacity="1" /><path clip-path="url(#clip940)" d="M99.5335 762.053 Q95.9224 762.053 94.0937 765.617 Q92.2882 769.159 92.2882 776.289 Q92.2882 783.395 94.0937 786.96 Q95.9224 790.502 99.5335 790.502 Q103.168 790.502 104.973 786.96 Q106.802 783.395 106.802 776.289 Q106.802 769.159 104.973 765.617 Q103.168 762.053 99.5335 762.053 M99.5335 758.349 Q105.344 758.349 108.399 762.955 Q111.478 767.539 111.478 776.289 Q111.478 785.016 108.399 789.622 Q105.344 794.205 99.5335 794.205 Q93.7234 794.205 90.6447 789.622 Q87.5892 785.016 87.5892 776.289 Q87.5892 767.539 90.6447 762.955 Q93.7234 758.349 99.5335 758.349 Z" fill="#000000" fill-rule="nonzero" fill-opacity="1" /><path clip-path="url(#clip940)" d="M91.5706 438.633 L99.2095 438.633 L99.2095 412.268 L90.8993 413.935 L90.8993 409.675 L99.1632 408.009 L103.839 408.009 L103.839 438.633 L111.478 438.633 L111.478 442.569 L91.5706 442.569 L91.5706 438.633 Z" fill="#000000" fill-rule="nonzero" fill-opacity="1" /><path clip-path="url(#clip940)" d="M95.1586 87.6681 L111.478 87.6681 L111.478 91.6033 L89.5336 91.6033 L89.5336 87.6681 Q92.1956 84.9135 96.7789 80.2839 Q101.385 75.6311 102.566 74.2886 Q104.811 71.7654 105.691 70.0293 Q106.594 68.2701 106.594 66.5803 Q106.594 63.8256 104.649 62.0895 Q102.728 60.3534 99.6261 60.3534 Q97.4271 60.3534 94.9734 61.1173 Q92.5428 61.8812 89.7651 63.4321 L89.7651 58.7099 Q92.5891 57.5757 95.0428 56.997 Q97.4965 56.4183 99.5335 56.4183 Q104.904 56.4183 108.098 59.1034 Q111.293 61.7886 111.293 66.2793 Q111.293 68.409 110.483 70.3302 Q109.696 72.2284 107.589 74.821 Q107.01 75.4923 103.909 78.7098 Q100.807 81.9043 95.1586 87.6681 Z" fill="#000000" fill-rule="nonzero" fill-opacity="1" /><circle clip-path="url(#clip942)" cx="879.457" cy="895.146" r="14.4" fill="#009af9" fill-rule="evenodd" fill-opacity="0.5" stroke="#000000" stroke-opacity="0.5" stroke-width="3.2"/>
<circle clip-path="url(#clip942)" cx="2290.34" cy="1192.55" r="14.4" fill="#009af9" fill-rule="evenodd" fill-opacity="0.5" stroke="#000000" stroke-opacity="0.5" stroke-width="3.2"/>
<circle clip-path="url(#clip942)" cx="1717.68" cy="430.053" r="14.4" fill="#009af9" fill-rule="evenodd" fill-opacity="0.5" stroke="#000000" stroke-opacity="0.5" stroke-width="3.2"/>
<circle clip-path="url(#clip942)" cx="510.686" cy="1441.63" r="14.4" fill="#009af9" fill-rule="evenodd" fill-opacity="0.5" stroke="#000000" stroke-opacity="0.5" stroke-width="3.2"/>
<circle clip-path="url(#clip942)" cx="917.577" cy="946.836" r="14.4" fill="#009af9" fill-rule="evenodd" fill-opacity="0.5" stroke="#000000" stroke-opacity="0.5" stroke-width="3.2"/>
<circle clip-path="url(#clip942)" cx="1118.79" cy="1445.72" r="14.4" fill="#009af9" fill-rule="evenodd" fill-opacity="0.5" stroke="#000000" stroke-opacity="0.5" stroke-width="3.2"/>
<circle clip-path="url(#clip942)" cx="209.891" cy="679.532" r="14.4" fill="#009af9" fill-rule="evenodd" fill-opacity="0.5" stroke="#000000" stroke-opacity="0.5" stroke-width="3.2"/>
<circle clip-path="url(#clip942)" cx="983.29" cy="1238.79" r="14.4" fill="#009af9" fill-rule="evenodd" fill-opacity="0.5" stroke="#000000" stroke-opacity="0.5" stroke-width="3.2"/>
<circle clip-path="url(#clip942)" cx="1817.98" cy="388.737" r="14.4" fill="#009af9" fill-rule="evenodd" fill-opacity="0.5" stroke="#000000" stroke-opacity="0.5" stroke-width="3.2"/>
<circle clip-path="url(#clip942)" cx="299.247" cy="593.033" r="14.4" fill="#009af9" fill-rule="evenodd" fill-opacity="0.5" stroke="#000000" stroke-opacity="0.5" stroke-width="3.2"/>
<circle clip-path="url(#clip942)" cx="1762.81" cy="457.941" r="14.4" fill="#009af9" fill-rule="evenodd" fill-opacity="0.5" stroke="#000000" stroke-opacity="0.5" stroke-width="3.2"/>
<circle clip-path="url(#clip942)" cx="1241.56" cy="668.714" r="14.4" fill="#009af9" fill-rule="evenodd" fill-opacity="0.5" stroke="#000000" stroke-opacity="0.5" stroke-width="3.2"/>
<circle clip-path="url(#clip942)" cx="892.019" cy="87.9763" r="14.4" fill="#009af9" fill-rule="evenodd" fill-opacity="0.5" stroke="#000000" stroke-opacity="0.5" stroke-width="3.2"/>
<circle clip-path="url(#clip942)" cx="877.875" cy="892.733" r="14.4" fill="#009af9" fill-rule="evenodd" fill-opacity="0.5" stroke="#000000" stroke-opacity="0.5" stroke-width="3.2"/>
<circle clip-path="url(#clip942)" cx="1805.16" cy="1100.16" r="14.4" fill="#009af9" fill-rule="evenodd" fill-opacity="0.5" stroke="#000000" stroke-opacity="0.5" stroke-width="3.2"/>
<circle clip-path="url(#clip942)" cx="1924.18" cy="1025.94" r="14.4" fill="#009af9" fill-rule="evenodd" fill-opacity="0.5" stroke="#000000" stroke-opacity="0.5" stroke-width="3.2"/>
<circle clip-path="url(#clip942)" cx="736.549" cy="258.748" r="14.4" fill="#009af9" fill-rule="evenodd" fill-opacity="0.5" stroke="#000000" stroke-opacity="0.5" stroke-width="3.2"/>
<circle clip-path="url(#clip942)" cx="592.41" cy="604.53" r="14.4" fill="#009af9" fill-rule="evenodd" fill-opacity="0.5" stroke="#000000" stroke-opacity="0.5" stroke-width="3.2"/>
<circle clip-path="url(#clip942)" cx="926.85" cy="1438.1" r="14.4" fill="#009af9" fill-rule="evenodd" fill-opacity="0.5" stroke="#000000" stroke-opacity="0.5" stroke-width="3.2"/>
<circle clip-path="url(#clip942)" cx="1085.17" cy="864.385" r="14.4" fill="#009af9" fill-rule="evenodd" fill-opacity="0.5" stroke="#000000" stroke-opacity="0.5" stroke-width="3.2"/>
<circle clip-path="url(#clip942)" cx="477.568" cy="423.081" r="14.4" fill="#009af9" fill-rule="evenodd" fill-opacity="0.5" stroke="#000000" stroke-opacity="0.5" stroke-width="3.2"/>
<circle clip-path="url(#clip942)" cx="1647.6" cy="898.951" r="14.4" fill="#009af9" fill-rule="evenodd" fill-opacity="0.5" stroke="#000000" stroke-opacity="0.5" stroke-width="3.2"/>
<circle clip-path="url(#clip942)" cx="808.645" cy="425.259" r="14.4" fill="#009af9" fill-rule="evenodd" fill-opacity="0.5" stroke="#000000" stroke-opacity="0.5" stroke-width="3.2"/>
<circle clip-path="url(#clip942)" cx="769.534" cy="269.193" r="14.4" fill="#009af9" fill-rule="evenodd" fill-opacity="0.5" stroke="#000000" stroke-opacity="0.5" stroke-width="3.2"/>
<circle clip-path="url(#clip942)" cx="1499.35" cy="621.456" r="14.4" fill="#009af9" fill-rule="evenodd" fill-opacity="0.5" stroke="#000000" stroke-opacity="0.5" stroke-width="3.2"/>
<circle clip-path="url(#clip942)" cx="1140.95" cy="257.481" r="14.4" fill="#009af9" fill-rule="evenodd" fill-opacity="0.5" stroke="#000000" stroke-opacity="0.5" stroke-width="3.2"/>
<circle clip-path="url(#clip942)" cx="867.539" cy="982.477" r="14.4" fill="#009af9" fill-rule="evenodd" fill-opacity="0.5" stroke="#000000" stroke-opacity="0.5" stroke-width="3.2"/>
<circle clip-path="url(#clip942)" cx="733.222" cy="488.375" r="14.4" fill="#009af9" fill-rule="evenodd" fill-opacity="0.5" stroke="#000000" stroke-opacity="0.5" stroke-width="3.2"/>
<circle clip-path="url(#clip942)" cx="626.365" cy="375.016" r="14.4" fill="#009af9" fill-rule="evenodd" fill-opacity="0.5" stroke="#000000" stroke-opacity="0.5" stroke-width="3.2"/>
<circle clip-path="url(#clip942)" cx="1000.27" cy="324.625" r="14.4" fill="#009af9" fill-rule="evenodd" fill-opacity="0.5" stroke="#000000" stroke-opacity="0.5" stroke-width="3.2"/>
<path clip-path="url(#clip942)" d="M209.891 679.532 L510.686 1441.63 L1118.79 1445.72 L2290.34 1192.55 L1817.98 388.737 L892.019 87.9763 L477.568 423.081 L299.247 593.033 L209.891 679.532 L209.891 679.532  Z" fill="#e26f46" fill-rule="evenodd" fill-opacity="0.2"/>
<polyline clip-path="url(#clip942)" style="stroke:#000000; stroke-linecap:round; stroke-linejoin:round; stroke-width:4; stroke-opacity:0.2; fill:none" points="209.891,679.532 510.686,1441.63 1118.79,1445.72 2290.34,1192.55 1817.98,388.737 892.019,87.9763 477.568,423.081 299.247,593.033 209.891,679.532 "/>
</svg>
