<?xml version="1.0" encoding="utf-8"?>
<svg xmlns="http://www.w3.org/2000/svg" xmlns:xlink="http://www.w3.org/1999/xlink" width="600" height="400" viewBox="0 0 2400 1600">
<defs>
  <clipPath id="clip640">
    <rect x="0" y="0" width="2400" height="1600"/>
  </clipPath>
</defs>
<path clip-path="url(#clip640)" d="M0 1600 L2400 1600 L2400 0 L0 0  Z" fill="#ffffff" fill-rule="evenodd" fill-opacity="1"/>
<defs>
  <clipPath id="clip641">
    <rect x="480" y="0" width="1681" height="1600"/>
  </clipPath>
</defs>
<path clip-path="url(#clip640)" d="M193.936 1486.45 L2352.76 1486.45 L2352.76 47.2441 L193.936 47.2441  Z" fill="#ffffff" fill-rule="evenodd" fill-opacity="1"/>
<defs>
  <clipPath id="clip642">
    <rect x="193" y="47" width="2160" height="1440"/>
  </clipPath>
</defs>
<polyline clip-path="url(#clip642)" style="stroke:#000000; stroke-linecap:round; stroke-linejoin:round; stroke-width:2; stroke-opacity:0.1; fill:none" points="506.575,1486.45 506.575,47.2441 "/>
<polyline clip-path="url(#clip642)" style="stroke:#000000; stroke-linecap:round; stroke-linejoin:round; stroke-width:2; stroke-opacity:0.1; fill:none" points="1074.27,1486.45 1074.27,47.2441 "/>
<polyline clip-path="url(#clip642)" style="stroke:#000000; stroke-linecap:round; stroke-linejoin:round; stroke-width:2; stroke-opacity:0.1; fill:none" points="1641.97,1486.45 1641.97,47.2441 "/>
<polyline clip-path="url(#clip642)" style="stroke:#000000; stroke-linecap:round; stroke-linejoin:round; stroke-width:2; stroke-opacity:0.1; fill:none" points="2209.67,1486.45 2209.67,47.2441 "/>
<polyline clip-path="url(#clip642)" style="stroke:#000000; stroke-linecap:round; stroke-linejoin:round; stroke-width:2; stroke-opacity:0.1; fill:none" points="193.936,1296.66 2352.76,1296.66 "/>
<polyline clip-path="url(#clip642)" style="stroke:#000000; stroke-linecap:round; stroke-linejoin:round; stroke-width:2; stroke-opacity:0.1; fill:none" points="193.936,1092.95 2352.76,1092.95 "/>
<polyline clip-path="url(#clip642)" style="stroke:#000000; stroke-linecap:round; stroke-linejoin:round; stroke-width:2; stroke-opacity:0.1; fill:none" points="193.936,889.241 2352.76,889.241 "/>
<polyline clip-path="url(#clip642)" style="stroke:#000000; stroke-linecap:round; stroke-linejoin:round; stroke-width:2; stroke-opacity:0.1; fill:none" points="193.936,685.531 2352.76,685.531 "/>
<polyline clip-path="url(#clip642)" style="stroke:#000000; stroke-linecap:round; stroke-linejoin:round; stroke-width:2; stroke-opacity:0.1; fill:none" points="193.936,481.821 2352.76,481.821 "/>
<polyline clip-path="url(#clip642)" style="stroke:#000000; stroke-linecap:round; stroke-linejoin:round; stroke-width:2; stroke-opacity:0.1; fill:none" points="193.936,278.111 2352.76,278.111 "/>
<polyline clip-path="url(#clip642)" style="stroke:#000000; stroke-linecap:round; stroke-linejoin:round; stroke-width:2; stroke-opacity:0.1; fill:none" points="193.936,74.4008 2352.76,74.4008 "/>
<polyline clip-path="url(#clip640)" style="stroke:#000000; stroke-linecap:round; stroke-linejoin:round; stroke-width:4; stroke-opacity:1; fill:none" points="193.936,1486.45 2352.76,1486.45 "/>
<polyline clip-path="url(#clip640)" style="stroke:#000000; stroke-linecap:round; stroke-linejoin:round; stroke-width:4; stroke-opacity:1; fill:none" points="506.575,1486.45 506.575,1467.55 "/>
<polyline clip-path="url(#clip640)" style="stroke:#000000; stroke-linecap:round; stroke-linejoin:round; stroke-width:4; stroke-opacity:1; fill:none" points="1074.27,1486.45 1074.27,1467.55 "/>
<polyline clip-path="url(#clip640)" style="stroke:#000000; stroke-linecap:round; stroke-linejoin:round; stroke-width:4; stroke-opacity:1; fill:none" points="1641.97,1486.45 1641.97,1467.55 "/>
<polyline clip-path="url(#clip640)" style="stroke:#000000; stroke-linecap:round; stroke-linejoin:round; stroke-width:4; stroke-opacity:1; fill:none" points="2209.67,1486.45 2209.67,1467.55 "/>
<path clip-path="url(#clip640)" d="M476.517 1532.02 L506.193 1532.02 L506.193 1535.95 L476.517 1535.95 L476.517 1532.02 Z" fill="#000000" fill-rule="nonzero" fill-opacity="1" /><path clip-path="url(#clip640)" d="M520.313 1544.91 L536.633 1544.91 L536.633 1548.85 L514.688 1548.85 L514.688 1544.91 Q517.35 1542.16 521.934 1537.53 Q526.54 1532.88 527.721 1531.53 Q529.966 1529.01 530.846 1527.27 Q531.748 1525.51 531.748 1523.82 Q531.748 1521.07 529.804 1519.33 Q527.883 1517.6 524.781 1517.6 Q522.582 1517.6 520.128 1518.36 Q517.698 1519.13 514.92 1520.68 L514.92 1515.95 Q517.744 1514.82 520.198 1514.24 Q522.651 1513.66 524.688 1513.66 Q530.059 1513.66 533.253 1516.35 Q536.447 1519.03 536.447 1523.52 Q536.447 1525.65 535.637 1527.57 Q534.85 1529.47 532.744 1532.07 Q532.165 1532.74 529.063 1535.95 Q525.961 1539.15 520.313 1544.91 Z" fill="#000000" fill-rule="nonzero" fill-opacity="1" /><path clip-path="url(#clip640)" d="M1044.03 1532.02 L1073.71 1532.02 L1073.71 1535.95 L1044.03 1535.95 L1044.03 1532.02 Z" fill="#000000" fill-rule="nonzero" fill-opacity="1" /><path clip-path="url(#clip640)" d="M1084.61 1544.91 L1092.25 1544.91 L1092.25 1518.55 L1083.94 1520.21 L1083.94 1515.95 L1092.2 1514.29 L1096.88 1514.29 L1096.88 1544.91 L1104.52 1544.91 L1104.52 1548.85 L1084.61 1548.85 L1084.61 1544.91 Z" fill="#000000" fill-rule="nonzero" fill-opacity="1" /><path clip-path="url(#clip640)" d="M1641.97 1517.37 Q1638.36 1517.37 1636.53 1520.93 Q1634.73 1524.47 1634.73 1531.6 Q1634.73 1538.71 1636.53 1542.27 Q1638.36 1545.82 1641.97 1545.82 Q1645.61 1545.82 1647.41 1542.27 Q1649.24 1538.71 1649.24 1531.6 Q1649.24 1524.47 1647.41 1520.93 Q1645.61 1517.37 1641.97 1517.37 M1641.97 1513.66 Q1647.78 1513.66 1650.84 1518.27 Q1653.92 1522.85 1653.92 1531.6 Q1653.92 1540.33 1650.84 1544.94 Q1647.78 1549.52 1641.97 1549.52 Q1636.16 1549.52 1633.08 1544.94 Q1630.03 1540.33 1630.03 1531.6 Q1630.03 1522.85 1633.08 1518.27 Q1636.16 1513.66 1641.97 1513.66 Z" fill="#000000" fill-rule="nonzero" fill-opacity="1" /><path clip-path="url(#clip640)" d="M2200.05 1544.91 L2207.69 1544.91 L2207.69 1518.55 L2199.38 1520.21 L2199.38 1515.95 L2207.64 1514.29 L2212.32 1514.29 L2212.32 1544.91 L2219.96 1544.91 L2219.96 1548.85 L2200.05 1548.85 L2200.05 1544.91 Z" fill="#000000" fill-rule="nonzero" fill-opacity="1" /><polyline clip-path="url(#clip640)" style="stroke:#000000; stroke-linecap:round; stroke-linejoin:round; stroke-width:4; stroke-opacity:1; fill:none" points="193.936,1486.45 193.936,47.2441 "/>
<polyline clip-path="url(#clip640)" style="stroke:#000000; stroke-linecap:round; stroke-linejoin:round; stroke-width:4; stroke-opacity:1; fill:none" points="193.936,1296.66 212.834,1296.66 "/>
<polyline clip-path="url(#clip640)" style="stroke:#000000; stroke-linecap:round; stroke-linejoin:round; stroke-width:4; stroke-opacity:1; fill:none" points="193.936,1092.95 212.834,1092.95 "/>
<polyline clip-path="url(#clip640)" style="stroke:#000000; stroke-linecap:round; stroke-linejoin:round; stroke-width:4; stroke-opacity:1; fill:none" points="193.936,889.241 212.834,889.241 "/>
<polyline clip-path="url(#clip640)" style="stroke:#000000; stroke-linecap:round; stroke-linejoin:round; stroke-width:4; stroke-opacity:1; fill:none" points="193.936,685.531 212.834,685.531 "/>
<polyline clip-path="url(#clip640)" style="stroke:#000000; stroke-linecap:round; stroke-linejoin:round; stroke-width:4; stroke-opacity:1; fill:none" points="193.936,481.821 212.834,481.821 "/>
<polyline clip-path="url(#clip640)" style="stroke:#000000; stroke-linecap:round; stroke-linejoin:round; stroke-width:4; stroke-opacity:1; fill:none" points="193.936,278.111 212.834,278.111 "/>
<polyline clip-path="url(#clip640)" style="stroke:#000000; stroke-linecap:round; stroke-linejoin:round; stroke-width:4; stroke-opacity:1; fill:none" points="193.936,74.4008 212.834,74.4008 "/>
<path clip-path="url(#clip640)" d="M51.9875 1297.11 L81.6633 1297.11 L81.6633 1301.05 L51.9875 1301.05 L51.9875 1297.11 Z" fill="#000000" fill-rule="nonzero" fill-opacity="1" /><path clip-path="url(#clip640)" d="M92.566 1310.01 L100.205 1310.01 L100.205 1283.64 L91.8947 1285.31 L91.8947 1281.05 L100.159 1279.38 L104.834 1279.38 L104.834 1310.01 L112.473 1310.01 L112.473 1313.94 L92.566 1313.94 L92.566 1310.01 Z" fill="#000000" fill-rule="nonzero" fill-opacity="1" /><path clip-path="url(#clip640)" d="M121.918 1308.06 L126.802 1308.06 L126.802 1313.94 L121.918 1313.94 L121.918 1308.06 Z" fill="#000000" fill-rule="nonzero" fill-opacity="1" /><path clip-path="url(#clip640)" d="M137.033 1279.38 L155.39 1279.38 L155.39 1283.32 L141.316 1283.32 L141.316 1291.79 Q142.334 1291.44 143.353 1291.28 Q144.371 1291.09 145.39 1291.09 Q151.177 1291.09 154.556 1294.26 Q157.936 1297.44 157.936 1302.85 Q157.936 1308.43 154.464 1311.53 Q150.992 1314.61 144.672 1314.61 Q142.496 1314.61 140.228 1314.24 Q137.982 1313.87 135.575 1313.13 L135.575 1308.43 Q137.658 1309.57 139.881 1310.12 Q142.103 1310.68 144.58 1310.68 Q148.584 1310.68 150.922 1308.57 Q153.26 1306.46 153.26 1302.85 Q153.26 1299.24 150.922 1297.13 Q148.584 1295.03 144.58 1295.03 Q142.705 1295.03 140.83 1295.45 Q138.978 1295.86 137.033 1296.74 L137.033 1279.38 Z" fill="#000000" fill-rule="nonzero" fill-opacity="1" /><path clip-path="url(#clip640)" d="M50.9921 1093.4 L80.6679 1093.4 L80.6679 1097.34 L50.9921 1097.34 L50.9921 1093.4 Z" fill="#000000" fill-rule="nonzero" fill-opacity="1" /><path clip-path="url(#clip640)" d="M91.5706 1106.3 L99.2095 1106.3 L99.2095 1079.93 L90.8993 1081.6 L90.8993 1077.34 L99.1632 1075.67 L103.839 1075.67 L103.839 1106.3 L111.478 1106.3 L111.478 1110.23 L91.5706 1110.23 L91.5706 1106.3 Z" fill="#000000" fill-rule="nonzero" fill-opacity="1" /><path clip-path="url(#clip640)" d="M120.922 1104.35 L125.807 1104.35 L125.807 1110.23 L120.922 1110.23 L120.922 1104.35 Z" fill="#000000" fill-rule="nonzero" fill-opacity="1" /><path clip-path="url(#clip640)" d="M145.992 1078.75 Q142.381 1078.75 140.552 1082.31 Q138.746 1085.86 138.746 1092.99 Q138.746 1100.09 140.552 1103.66 Q142.381 1107.2 145.992 1107.2 Q149.626 1107.2 151.431 1103.66 Q153.26 1100.09 153.26 1092.99 Q153.26 1085.86 151.431 1082.31 Q149.626 1078.75 145.992 1078.75 M145.992 1075.05 Q151.802 1075.05 154.857 1079.65 Q157.936 1084.24 157.936 1092.99 Q157.936 1101.71 154.857 1106.32 Q151.802 1110.9 145.992 1110.9 Q140.181 1110.9 137.103 1106.32 Q134.047 1101.71 134.047 1092.99 Q134.047 1084.24 137.103 1079.65 Q140.181 1075.05 145.992 1075.05 Z" fill="#000000" fill-rule="nonzero" fill-opacity="1" /><path clip-path="url(#clip640)" d="M51.9875 889.692 L81.6633 889.692 L81.6633 893.627 L51.9875 893.627 L51.9875 889.692 Z" fill="#000000" fill-rule="nonzero" fill-opacity="1" /><path clip-path="url(#clip640)" d="M101.756 875.039 Q98.1447 875.039 96.316 878.604 Q94.5104 882.146 94.5104 889.275 Q94.5104 896.382 96.316 899.946 Q98.1447 903.488 101.756 903.488 Q105.39 903.488 107.196 899.946 Q109.024 896.382 109.024 889.275 Q109.024 882.146 107.196 878.604 Q105.39 875.039 101.756 875.039 M101.756 871.336 Q107.566 871.336 110.621 875.942 Q113.7 880.525 113.7 889.275 Q113.7 898.002 110.621 902.609 Q107.566 907.192 101.756 907.192 Q95.9456 907.192 92.8669 902.609 Q89.8114 898.002 89.8114 889.275 Q89.8114 880.525 92.8669 875.942 Q95.9456 871.336 101.756 871.336 Z" fill="#000000" fill-rule="nonzero" fill-opacity="1" /><path clip-path="url(#clip640)" d="M121.918 900.641 L126.802 900.641 L126.802 906.521 L121.918 906.521 L121.918 900.641 Z" fill="#000000" fill-rule="nonzero" fill-opacity="1" /><path clip-path="url(#clip640)" d="M137.033 871.961 L155.39 871.961 L155.39 875.896 L141.316 875.896 L141.316 884.368 Q142.334 884.021 143.353 883.859 Q144.371 883.673 145.39 883.673 Q151.177 883.673 154.556 886.845 Q157.936 890.016 157.936 895.433 Q157.936 901.011 154.464 904.113 Q150.992 907.192 144.672 907.192 Q142.496 907.192 140.228 906.821 Q137.982 906.451 135.575 905.71 L135.575 901.011 Q137.658 902.146 139.881 902.701 Q142.103 903.257 144.58 903.257 Q148.584 903.257 150.922 901.15 Q153.26 899.044 153.26 895.433 Q153.26 891.822 150.922 889.715 Q148.584 887.609 144.58 887.609 Q142.705 887.609 140.83 888.025 Q138.978 888.442 137.033 889.322 L137.033 871.961 Z" fill="#000000" fill-rule="nonzero" fill-opacity="1" /><path clip-path="url(#clip640)" d="M100.76 671.329 Q97.1493 671.329 95.3206 674.894 Q93.515 678.436 93.515 685.565 Q93.515 692.672 95.3206 696.237 Q97.1493 699.778 100.76 699.778 Q104.395 699.778 106.2 696.237 Q108.029 692.672 108.029 685.565 Q108.029 678.436 106.2 674.894 Q104.395 671.329 100.76 671.329 M100.76 667.626 Q106.571 667.626 109.626 672.232 Q112.705 676.815 112.705 685.565 Q112.705 694.292 109.626 698.899 Q106.571 703.482 100.76 703.482 Q94.9502 703.482 91.8715 698.899 Q88.816 694.292 88.816 685.565 Q88.816 676.815 91.8715 672.232 Q94.9502 667.626 100.76 667.626 Z" fill="#000000" fill-rule="nonzero" fill-opacity="1" /><path clip-path="url(#clip640)" d="M120.922 696.931 L125.807 696.931 L125.807 702.811 L120.922 702.811 L120.922 696.931 Z" fill="#000000" fill-rule="nonzero" fill-opacity="1" /><path clip-path="url(#clip640)" d="M145.992 671.329 Q142.381 671.329 140.552 674.894 Q138.746 678.436 138.746 685.565 Q138.746 692.672 140.552 696.237 Q142.381 699.778 145.992 699.778 Q149.626 699.778 151.431 696.237 Q153.26 692.672 153.26 685.565 Q153.26 678.436 151.431 674.894 Q149.626 671.329 145.992 671.329 M145.992 667.626 Q151.802 667.626 154.857 672.232 Q157.936 676.815 157.936 685.565 Q157.936 694.292 154.857 698.899 Q151.802 703.482 145.992 703.482 Q140.181 703.482 137.103 698.899 Q134.047 694.292 134.047 685.565 Q134.047 676.815 137.103 672.232 Q140.181 667.626 145.992 667.626 Z" fill="#000000" fill-rule="nonzero" fill-opacity="1" /><path clip-path="url(#clip640)" d="M101.756 467.619 Q98.1447 467.619 96.316 471.184 Q94.5104 474.726 94.5104 481.855 Q94.5104 488.962 96.316 492.527 Q98.1447 496.068 101.756 496.068 Q105.39 496.068 107.196 492.527 Q109.024 488.962 109.024 481.855 Q109.024 474.726 107.196 471.184 Q105.39 467.619 101.756 467.619 M101.756 463.916 Q107.566 463.916 110.621 468.522 Q113.7 473.105 113.7 481.855 Q113.7 490.582 110.621 495.189 Q107.566 499.772 101.756 499.772 Q95.9456 499.772 92.8669 495.189 Q89.8114 490.582 89.8114 481.855 Q89.8114 473.105 92.8669 468.522 Q95.9456 463.916 101.756 463.916 Z" fill="#000000" fill-rule="nonzero" fill-opacity="1" /><path clip-path="url(#clip640)" d="M121.918 493.221 L126.802 493.221 L126.802 499.101 L121.918 499.101 L121.918 493.221 Z" fill="#000000" fill-rule="nonzero" fill-opacity="1" /><path clip-path="url(#clip640)" d="M137.033 464.541 L155.39 464.541 L155.39 468.476 L141.316 468.476 L141.316 476.948 Q142.334 476.601 143.353 476.439 Q144.371 476.254 145.39 476.254 Q151.177 476.254 154.556 479.425 Q157.936 482.596 157.936 488.013 Q157.936 493.591 154.464 496.693 Q150.992 499.772 144.672 499.772 Q142.496 499.772 140.228 499.402 Q137.982 499.031 135.575 498.29 L135.575 493.591 Q137.658 494.726 139.881 495.281 Q142.103 495.837 144.58 495.837 Q148.584 495.837 150.922 493.73 Q153.26 491.624 153.26 488.013 Q153.26 484.402 150.922 482.295 Q148.584 480.189 144.58 480.189 Q142.705 480.189 140.83 480.605 Q138.978 481.022 137.033 481.902 L137.033 464.541 Z" fill="#000000" fill-rule="nonzero" fill-opacity="1" /><path clip-path="url(#clip640)" d="M91.5706 291.456 L99.2095 291.456 L99.2095 265.09 L90.8993 266.757 L90.8993 262.497 L99.1632 260.831 L103.839 260.831 L103.839 291.456 L111.478 291.456 L111.478 295.391 L91.5706 295.391 L91.5706 291.456 Z" fill="#000000" fill-rule="nonzero" fill-opacity="1" /><path clip-path="url(#clip640)" d="M120.922 289.511 L125.807 289.511 L125.807 295.391 L120.922 295.391 L120.922 289.511 Z" fill="#000000" fill-rule="nonzero" fill-opacity="1" /><path clip-path="url(#clip640)" d="M145.992 263.909 Q142.381 263.909 140.552 267.474 Q138.746 271.016 138.746 278.145 Q138.746 285.252 140.552 288.817 Q142.381 292.358 145.992 292.358 Q149.626 292.358 151.431 288.817 Q153.26 285.252 153.26 278.145 Q153.26 271.016 151.431 267.474 Q149.626 263.909 145.992 263.909 M145.992 260.206 Q151.802 260.206 154.857 264.812 Q157.936 269.396 157.936 278.145 Q157.936 286.872 154.857 291.479 Q151.802 296.062 145.992 296.062 Q140.181 296.062 137.103 291.479 Q134.047 286.872 134.047 278.145 Q134.047 269.396 137.103 264.812 Q140.181 260.206 145.992 260.206 Z" fill="#000000" fill-rule="nonzero" fill-opacity="1" /><path clip-path="url(#clip640)" d="M92.566 87.7456 L100.205 87.7456 L100.205 61.38 L91.8947 63.0467 L91.8947 58.7875 L100.159 57.1208 L104.834 57.1208 L104.834 87.7456 L112.473 87.7456 L112.473 91.6808 L92.566 91.6808 L92.566 87.7456 Z" fill="#000000" fill-rule="nonzero" fill-opacity="1" /><path clip-path="url(#clip640)" d="M121.918 85.8012 L126.802 85.8012 L126.802 91.6808 L121.918 91.6808 L121.918 85.8012 Z" fill="#000000" fill-rule="nonzero" fill-opacity="1" /><path clip-path="url(#clip640)" d="M137.033 57.1208 L155.39 57.1208 L155.39 61.056 L141.316 61.056 L141.316 69.5282 Q142.334 69.1809 143.353 69.0189 Q144.371 68.8337 145.39 68.8337 Q151.177 68.8337 154.556 72.005 Q157.936 75.1763 157.936 80.5929 Q157.936 86.1716 154.464 89.2734 Q150.992 92.3521 144.672 92.3521 Q142.496 92.3521 140.228 91.9817 Q137.982 91.6114 135.575 90.8706 L135.575 86.1716 Q137.658 87.3058 139.881 87.8614 Q142.103 88.4169 144.58 88.4169 Q148.584 88.4169 150.922 86.3105 Q153.26 84.204 153.26 80.5929 Q153.26 76.9818 150.922 74.8753 Q148.584 72.7689 144.58 72.7689 Q142.705 72.7689 140.83 73.1855 Q138.978 73.6022 137.033 74.4818 L137.033 57.1208 Z" fill="#000000" fill-rule="nonzero" fill-opacity="1" /><circle clip-path="url(#clip642)" cx="652.625" cy="254.368" r="14.4" fill="#009af9" fill-rule="evenodd" fill-opacity="0.5" stroke="#000000" stroke-opacity="0.5" stroke-width="3.2"/>
<circle clip-path="url(#clip642)" cx="2146.45" cy="969.08" r="14.4" fill="#009af9" fill-rule="evenodd" fill-opacity="0.5" stroke="#000000" stroke-opacity="0.5" stroke-width="3.2"/>
<circle clip-path="url(#clip642)" cx="1214.88" cy="745.591" r="14.4" fill="#009af9" fill-rule="evenodd" fill-opacity="0.5" stroke="#000000" stroke-opacity="0.5" stroke-width="3.2"/>
<circle clip-path="url(#clip642)" cx="1313.57" cy="561.716" r="14.4" fill="#009af9" fill-rule="evenodd" fill-opacity="0.5" stroke="#000000" stroke-opacity="0.5" stroke-width="3.2"/>
<circle clip-path="url(#clip642)" cx="1936.46" cy="158.461" r="14.4" fill="#009af9" fill-rule="evenodd" fill-opacity="0.5" stroke="#000000" stroke-opacity="0.5" stroke-width="3.2"/>
<circle clip-path="url(#clip642)" cx="1317.16" cy="405.653" r="14.4" fill="#009af9" fill-rule="evenodd" fill-opacity="0.5" stroke="#000000" stroke-opacity="0.5" stroke-width="3.2"/>
<circle clip-path="url(#clip642)" cx="2257.49" cy="689.36" r="14.4" fill="#009af9" fill-rule="evenodd" fill-opacity="0.5" stroke="#000000" stroke-opacity="0.5" stroke-width="3.2"/>
<circle clip-path="url(#clip642)" cx="1520.08" cy="1092.18" r="14.4" fill="#009af9" fill-rule="evenodd" fill-opacity="0.5" stroke="#000000" stroke-opacity="0.5" stroke-width="3.2"/>
<circle clip-path="url(#clip642)" cx="1425.62" cy="651.252" r="14.4" fill="#009af9" fill-rule="evenodd" fill-opacity="0.5" stroke="#000000" stroke-opacity="0.5" stroke-width="3.2"/>
<circle clip-path="url(#clip642)" cx="1074.25" cy="620.566" r="14.4" fill="#009af9" fill-rule="evenodd" fill-opacity="0.5" stroke="#000000" stroke-opacity="0.5" stroke-width="3.2"/>
<circle clip-path="url(#clip642)" cx="2291.66" cy="186.888" r="14.4" fill="#009af9" fill-rule="evenodd" fill-opacity="0.5" stroke="#000000" stroke-opacity="0.5" stroke-width="3.2"/>
<circle clip-path="url(#clip642)" cx="2141.28" cy="852.817" r="14.4" fill="#009af9" fill-rule="evenodd" fill-opacity="0.5" stroke="#000000" stroke-opacity="0.5" stroke-width="3.2"/>
<circle clip-path="url(#clip642)" cx="2213.9" cy="157.97" r="14.4" fill="#009af9" fill-rule="evenodd" fill-opacity="0.5" stroke="#000000" stroke-opacity="0.5" stroke-width="3.2"/>
<circle clip-path="url(#clip642)" cx="1927.26" cy="598.923" r="14.4" fill="#009af9" fill-rule="evenodd" fill-opacity="0.5" stroke="#000000" stroke-opacity="0.5" stroke-width="3.2"/>
<circle clip-path="url(#clip642)" cx="1148.06" cy="787.849" r="14.4" fill="#009af9" fill-rule="evenodd" fill-opacity="0.5" stroke="#000000" stroke-opacity="0.5" stroke-width="3.2"/>
<circle clip-path="url(#clip642)" cx="1887.47" cy="923.34" r="14.4" fill="#009af9" fill-rule="evenodd" fill-opacity="0.5" stroke="#000000" stroke-opacity="0.5" stroke-width="3.2"/>
<circle clip-path="url(#clip642)" cx="1766.13" cy="491.151" r="14.4" fill="#009af9" fill-rule="evenodd" fill-opacity="0.5" stroke="#000000" stroke-opacity="0.5" stroke-width="3.2"/>
<circle clip-path="url(#clip642)" cx="1608.91" cy="373.168" r="14.4" fill="#009af9" fill-rule="evenodd" fill-opacity="0.5" stroke="#000000" stroke-opacity="0.5" stroke-width="3.2"/>
<circle clip-path="url(#clip642)" cx="1236.96" cy="1090.21" r="14.4" fill="#009af9" fill-rule="evenodd" fill-opacity="0.5" stroke="#000000" stroke-opacity="0.5" stroke-width="3.2"/>
<circle clip-path="url(#clip642)" cx="1575.84" cy="873.321" r="14.4" fill="#009af9" fill-rule="evenodd" fill-opacity="0.5" stroke="#000000" stroke-opacity="0.5" stroke-width="3.2"/>
<circle clip-path="url(#clip642)" cx="1521.93" cy="873.581" r="14.4" fill="#009af9" fill-rule="evenodd" fill-opacity="0.5" stroke="#000000" stroke-opacity="0.5" stroke-width="3.2"/>
<circle clip-path="url(#clip642)" cx="1271.14" cy="1237.93" r="14.4" fill="#009af9" fill-rule="evenodd" fill-opacity="0.5" stroke="#000000" stroke-opacity="0.5" stroke-width="3.2"/>
<circle clip-path="url(#clip642)" cx="1638.1" cy="694.942" r="14.4" fill="#009af9" fill-rule="evenodd" fill-opacity="0.5" stroke="#000000" stroke-opacity="0.5" stroke-width="3.2"/>
<circle clip-path="url(#clip642)" cx="2205.46" cy="1445.72" r="14.4" fill="#009af9" fill-rule="evenodd" fill-opacity="0.5" stroke="#000000" stroke-opacity="0.5" stroke-width="3.2"/>
<circle clip-path="url(#clip642)" cx="255.035" cy="1052.3" r="14.4" fill="#009af9" fill-rule="evenodd" fill-opacity="0.5" stroke="#000000" stroke-opacity="0.5" stroke-width="3.2"/>
<circle clip-path="url(#clip642)" cx="1872.1" cy="87.9763" r="14.4" fill="#009af9" fill-rule="evenodd" fill-opacity="0.5" stroke="#000000" stroke-opacity="0.5" stroke-width="3.2"/>
<circle clip-path="url(#clip642)" cx="1117.91" cy="439.471" r="14.4" fill="#009af9" fill-rule="evenodd" fill-opacity="0.5" stroke="#000000" stroke-opacity="0.5" stroke-width="3.2"/>
<circle clip-path="url(#clip642)" cx="1199.26" cy="512.778" r="14.4" fill="#009af9" fill-rule="evenodd" fill-opacity="0.5" stroke="#000000" stroke-opacity="0.5" stroke-width="3.2"/>
<circle clip-path="url(#clip642)" cx="1587.66" cy="1120.51" r="14.4" fill="#009af9" fill-rule="evenodd" fill-opacity="0.5" stroke="#000000" stroke-opacity="0.5" stroke-width="3.2"/>
<circle clip-path="url(#clip642)" cx="1163.5" cy="436.252" r="14.4" fill="#009af9" fill-rule="evenodd" fill-opacity="0.5" stroke="#000000" stroke-opacity="0.5" stroke-width="3.2"/>
<path clip-path="url(#clip642)" d="M255.035 1052.3 L2205.46 1445.72 L2257.49 689.36 L2291.66 186.888 L2213.9 157.97 L1872.1 87.9763 L652.625 254.368 L255.035 1052.3 L255.035 1052.3  Z" fill="#e26f46" fill-rule="evenodd" fill-opacity="0.2"/>
<polyline clip-path="url(#clip642)" style="stroke:#000000; stroke-linecap:round; stroke-linejoin:round; stroke-width:4; stroke-opacity:0.2; fill:none" points="255.035,1052.3 2205.46,1445.72 2257.49,689.36 2291.66,186.888 2213.9,157.97 1872.1,87.9763 652.625,254.368 255.035,1052.3 "/>
</svg>
