<?xml version="1.0" encoding="utf-8"?>
<svg xmlns="http://www.w3.org/2000/svg" xmlns:xlink="http://www.w3.org/1999/xlink" width="600" height="400" viewBox="0 0 2400 1600">
<defs>
  <clipPath id="clip190">
    <rect x="0" y="0" width="2400" height="1600"/>
  </clipPath>
</defs>
<path clip-path="url(#clip190)" d="M0 1600 L2400 1600 L2400 0 L0 0  Z" fill="#ffffff" fill-rule="evenodd" fill-opacity="1"/>
<defs>
  <clipPath id="clip191">
    <rect x="480" y="0" width="1681" height="1600"/>
  </clipPath>
</defs>
<path clip-path="url(#clip190)" d="M147.478 1486.45 L2352.76 1486.45 L2352.76 47.2441 L147.478 47.2441  Z" fill="#ffffff" fill-rule="evenodd" fill-opacity="1"/>
<defs>
  <clipPath id="clip192">
    <rect x="147" y="47" width="2206" height="1440"/>
  </clipPath>
</defs>
<polyline clip-path="url(#clip192)" style="stroke:#000000; stroke-linecap:round; stroke-linejoin:round; stroke-width:2; stroke-opacity:0.1; fill:none" points="415.494,1486.45 415.494,47.2441 "/>
<polyline clip-path="url(#clip192)" style="stroke:#000000; stroke-linecap:round; stroke-linejoin:round; stroke-width:2; stroke-opacity:0.1; fill:none" points="932.232,1486.45 932.232,47.2441 "/>
<polyline clip-path="url(#clip192)" style="stroke:#000000; stroke-linecap:round; stroke-linejoin:round; stroke-width:2; stroke-opacity:0.1; fill:none" points="1448.97,1486.45 1448.97,47.2441 "/>
<polyline clip-path="url(#clip192)" style="stroke:#000000; stroke-linecap:round; stroke-linejoin:round; stroke-width:2; stroke-opacity:0.1; fill:none" points="1965.71,1486.45 1965.71,47.2441 "/>
<polyline clip-path="url(#clip192)" style="stroke:#000000; stroke-linecap:round; stroke-linejoin:round; stroke-width:2; stroke-opacity:0.1; fill:none" points="147.478,1482.22 2352.76,1482.22 "/>
<polyline clip-path="url(#clip192)" style="stroke:#000000; stroke-linecap:round; stroke-linejoin:round; stroke-width:2; stroke-opacity:0.1; fill:none" points="147.478,1137.33 2352.76,1137.33 "/>
<polyline clip-path="url(#clip192)" style="stroke:#000000; stroke-linecap:round; stroke-linejoin:round; stroke-width:2; stroke-opacity:0.1; fill:none" points="147.478,792.433 2352.76,792.433 "/>
<polyline clip-path="url(#clip192)" style="stroke:#000000; stroke-linecap:round; stroke-linejoin:round; stroke-width:2; stroke-opacity:0.1; fill:none" points="147.478,447.536 2352.76,447.536 "/>
<polyline clip-path="url(#clip192)" style="stroke:#000000; stroke-linecap:round; stroke-linejoin:round; stroke-width:2; stroke-opacity:0.1; fill:none" points="147.478,102.64 2352.76,102.64 "/>
<polyline clip-path="url(#clip190)" style="stroke:#000000; stroke-linecap:round; stroke-linejoin:round; stroke-width:4; stroke-opacity:1; fill:none" points="147.478,1486.45 2352.76,1486.45 "/>
<polyline clip-path="url(#clip190)" style="stroke:#000000; stroke-linecap:round; stroke-linejoin:round; stroke-width:4; stroke-opacity:1; fill:none" points="415.494,1486.45 415.494,1467.55 "/>
<polyline clip-path="url(#clip190)" style="stroke:#000000; stroke-linecap:round; stroke-linejoin:round; stroke-width:4; stroke-opacity:1; fill:none" points="932.232,1486.45 932.232,1467.55 "/>
<polyline clip-path="url(#clip190)" style="stroke:#000000; stroke-linecap:round; stroke-linejoin:round; stroke-width:4; stroke-opacity:1; fill:none" points="1448.97,1486.45 1448.97,1467.55 "/>
<polyline clip-path="url(#clip190)" style="stroke:#000000; stroke-linecap:round; stroke-linejoin:round; stroke-width:4; stroke-opacity:1; fill:none" points="1965.71,1486.45 1965.71,1467.55 "/>
<path clip-path="url(#clip190)" d="M385.436 1532.02 L415.112 1532.02 L415.112 1535.95 L385.436 1535.95 L385.436 1532.02 Z" fill="#000000" fill-rule="nonzero" fill-opacity="1" /><path clip-path="url(#clip190)" d="M429.232 1544.91 L445.552 1544.91 L445.552 1548.85 L423.607 1548.85 L423.607 1544.91 Q426.269 1542.16 430.853 1537.53 Q435.459 1532.88 436.64 1531.53 Q438.885 1529.01 439.765 1527.27 Q440.667 1525.51 440.667 1523.82 Q440.667 1521.07 438.723 1519.33 Q436.802 1517.6 433.7 1517.6 Q431.501 1517.6 429.047 1518.36 Q426.616 1519.13 423.839 1520.68 L423.839 1515.95 Q426.663 1514.82 429.116 1514.24 Q431.57 1513.66 433.607 1513.66 Q438.978 1513.66 442.172 1516.35 Q445.366 1519.03 445.366 1523.52 Q445.366 1525.65 444.556 1527.57 Q443.769 1529.47 441.663 1532.07 Q441.084 1532.74 437.982 1535.95 Q434.88 1539.15 429.232 1544.91 Z" fill="#000000" fill-rule="nonzero" fill-opacity="1" /><path clip-path="url(#clip190)" d="M901.989 1532.02 L931.665 1532.02 L931.665 1535.95 L901.989 1535.95 L901.989 1532.02 Z" fill="#000000" fill-rule="nonzero" fill-opacity="1" /><path clip-path="url(#clip190)" d="M942.568 1544.91 L950.207 1544.91 L950.207 1518.55 L941.896 1520.21 L941.896 1515.95 L950.16 1514.29 L954.836 1514.29 L954.836 1544.91 L962.475 1544.91 L962.475 1548.85 L942.568 1548.85 L942.568 1544.91 Z" fill="#000000" fill-rule="nonzero" fill-opacity="1" /><path clip-path="url(#clip190)" d="M1448.97 1517.37 Q1445.36 1517.37 1443.53 1520.93 Q1441.73 1524.47 1441.73 1531.6 Q1441.73 1538.71 1443.53 1542.27 Q1445.36 1545.82 1448.97 1545.82 Q1452.6 1545.82 1454.41 1542.27 Q1456.24 1538.71 1456.24 1531.6 Q1456.24 1524.47 1454.41 1520.93 Q1452.6 1517.37 1448.97 1517.37 M1448.97 1513.66 Q1454.78 1513.66 1457.84 1518.27 Q1460.91 1522.85 1460.91 1531.6 Q1460.91 1540.33 1457.84 1544.94 Q1454.78 1549.52 1448.97 1549.52 Q1443.16 1549.52 1440.08 1544.94 Q1437.03 1540.33 1437.03 1531.6 Q1437.03 1522.85 1440.08 1518.27 Q1443.16 1513.66 1448.97 1513.66 Z" fill="#000000" fill-rule="nonzero" fill-opacity="1" /><path clip-path="url(#clip190)" d="M1956.09 1544.91 L1963.73 1544.91 L1963.73 1518.55 L1955.42 1520.21 L1955.42 1515.95 L1963.68 1514.29 L1968.36 1514.29 L1968.36 1544.91 L1976 1544.91 L1976 1548.85 L1956.09 1548.85 L1956.09 1544.91 Z" fill="#000000" fill-rule="nonzero" fill-opacity="1" /><polyline clip-path="url(#clip190)" style="stroke:#000000; stroke-linecap:round; stroke-linejoin:round; stroke-width:4; stroke-opacity:1; fill:none" points="147.478,1486.45 147.478,47.2441 "/>
<polyline clip-path="url(#clip190)" style="stroke:#000000; stroke-linecap:round; stroke-linejoin:round; stroke-width:4; stroke-opacity:1; fill:none" points="147.478,1482.22 166.376,1482.22 "/>
<polyline clip-path="url(#clip190)" style="stroke:#000000; stroke-linecap:round; stroke-linejoin:round; stroke-width:4; stroke-opacity:1; fill:none" points="147.478,1137.33 166.376,1137.33 "/>
<polyline clip-path="url(#clip190)" style="stroke:#000000; stroke-linecap:round; stroke-linejoin:round; stroke-width:4; stroke-opacity:1; fill:none" points="147.478,792.433 166.376,792.433 "/>
<polyline clip-path="url(#clip190)" style="stroke:#000000; stroke-linecap:round; stroke-linejoin:round; stroke-width:4; stroke-opacity:1; fill:none" points="147.478,447.536 166.376,447.536 "/>
<polyline clip-path="url(#clip190)" style="stroke:#000000; stroke-linecap:round; stroke-linejoin:round; stroke-width:4; stroke-opacity:1; fill:none" points="147.478,102.64 166.376,102.64 "/>
<path clip-path="url(#clip190)" d="M51.3625 1482.68 L81.0383 1482.68 L81.0383 1486.61 L51.3625 1486.61 L51.3625 1482.68 Z" fill="#000000" fill-rule="nonzero" fill-opacity="1" /><path clip-path="url(#clip190)" d="M95.1586 1495.57 L111.478 1495.57 L111.478 1499.5 L89.5336 1499.5 L89.5336 1495.57 Q92.1956 1492.82 96.7789 1488.19 Q101.385 1483.53 102.566 1482.19 Q104.811 1479.67 105.691 1477.93 Q106.594 1476.17 106.594 1474.48 Q106.594 1471.73 104.649 1469.99 Q102.728 1468.26 99.6261 1468.26 Q97.4271 1468.26 94.9734 1469.02 Q92.5428 1469.78 89.7651 1471.33 L89.7651 1466.61 Q92.5891 1465.48 95.0428 1464.9 Q97.4965 1464.32 99.5335 1464.32 Q104.904 1464.32 108.098 1467.01 Q111.293 1469.69 111.293 1474.18 Q111.293 1476.31 110.483 1478.23 Q109.696 1480.13 107.589 1482.72 Q107.01 1483.39 103.909 1486.61 Q100.807 1489.81 95.1586 1495.57 Z" fill="#000000" fill-rule="nonzero" fill-opacity="1" /><path clip-path="url(#clip190)" d="M50.9921 1137.78 L80.6679 1137.78 L80.6679 1141.72 L50.9921 1141.72 L50.9921 1137.78 Z" fill="#000000" fill-rule="nonzero" fill-opacity="1" /><path clip-path="url(#clip190)" d="M91.5706 1150.67 L99.2095 1150.67 L99.2095 1124.31 L90.8993 1125.97 L90.8993 1121.72 L99.1632 1120.05 L103.839 1120.05 L103.839 1150.67 L111.478 1150.67 L111.478 1154.61 L91.5706 1154.61 L91.5706 1150.67 Z" fill="#000000" fill-rule="nonzero" fill-opacity="1" /><path clip-path="url(#clip190)" d="M99.5335 778.231 Q95.9224 778.231 94.0937 781.796 Q92.2882 785.338 92.2882 792.467 Q92.2882 799.574 94.0937 803.139 Q95.9224 806.68 99.5335 806.68 Q103.168 806.68 104.973 803.139 Q106.802 799.574 106.802 792.467 Q106.802 785.338 104.973 781.796 Q103.168 778.231 99.5335 778.231 M99.5335 774.528 Q105.344 774.528 108.399 779.134 Q111.478 783.717 111.478 792.467 Q111.478 801.194 108.399 805.801 Q105.344 810.384 99.5335 810.384 Q93.7234 810.384 90.6447 805.801 Q87.5892 801.194 87.5892 792.467 Q87.5892 783.717 90.6447 779.134 Q93.7234 774.528 99.5335 774.528 Z" fill="#000000" fill-rule="nonzero" fill-opacity="1" /><path clip-path="url(#clip190)" d="M91.5706 460.881 L99.2095 460.881 L99.2095 434.516 L90.8993 436.182 L90.8993 431.923 L99.1632 430.256 L103.839 430.256 L103.839 460.881 L111.478 460.881 L111.478 464.816 L91.5706 464.816 L91.5706 460.881 Z" fill="#000000" fill-rule="nonzero" fill-opacity="1" /><path clip-path="url(#clip190)" d="M95.1586 115.985 L111.478 115.985 L111.478 119.92 L89.5336 119.92 L89.5336 115.985 Q92.1956 113.23 96.7789 108.601 Q101.385 103.948 102.566 102.605 Q104.811 100.082 105.691 98.3463 Q106.594 96.587 106.594 94.8972 Q106.594 92.1426 104.649 90.4065 Q102.728 88.6704 99.6261 88.6704 Q97.4271 88.6704 94.9734 89.4343 Q92.5428 90.1981 89.7651 91.7491 L89.7651 87.0269 Q92.5891 85.8926 95.0428 85.3139 Q97.4965 84.7352 99.5335 84.7352 Q104.904 84.7352 108.098 87.4204 Q111.293 90.1056 111.293 94.5963 Q111.293 96.7259 110.483 98.6472 Q109.696 100.545 107.589 103.138 Q107.01 103.809 103.909 107.027 Q100.807 110.221 95.1586 115.985 Z" fill="#000000" fill-rule="nonzero" fill-opacity="1" /><circle clip-path="url(#clip192)" cx="1464.99" cy="744.012" r="14.4" fill="#009af9" fill-rule="evenodd" fill-opacity="0.5" stroke="#000000" stroke-opacity="0.5" stroke-width="3.2"/>
<circle clip-path="url(#clip192)" cx="1758.98" cy="740.835" r="14.4" fill="#009af9" fill-rule="evenodd" fill-opacity="0.5" stroke="#000000" stroke-opacity="0.5" stroke-width="3.2"/>
<circle clip-path="url(#clip192)" cx="1607.95" cy="761.278" r="14.4" fill="#009af9" fill-rule="evenodd" fill-opacity="0.5" stroke="#000000" stroke-opacity="0.5" stroke-width="3.2"/>
<circle clip-path="url(#clip192)" cx="2171.11" cy="674.057" r="14.4" fill="#009af9" fill-rule="evenodd" fill-opacity="0.5" stroke="#000000" stroke-opacity="0.5" stroke-width="3.2"/>
<circle clip-path="url(#clip192)" cx="948.967" cy="1414.77" r="14.4" fill="#009af9" fill-rule="evenodd" fill-opacity="0.5" stroke="#000000" stroke-opacity="0.5" stroke-width="3.2"/>
<circle clip-path="url(#clip192)" cx="1217.33" cy="256.277" r="14.4" fill="#009af9" fill-rule="evenodd" fill-opacity="0.5" stroke="#000000" stroke-opacity="0.5" stroke-width="3.2"/>
<circle clip-path="url(#clip192)" cx="1716.3" cy="362.384" r="14.4" fill="#009af9" fill-rule="evenodd" fill-opacity="0.5" stroke="#000000" stroke-opacity="0.5" stroke-width="3.2"/>
<circle clip-path="url(#clip192)" cx="1911.24" cy="738.466" r="14.4" fill="#009af9" fill-rule="evenodd" fill-opacity="0.5" stroke="#000000" stroke-opacity="0.5" stroke-width="3.2"/>
<circle clip-path="url(#clip192)" cx="1617.45" cy="695.673" r="14.4" fill="#009af9" fill-rule="evenodd" fill-opacity="0.5" stroke="#000000" stroke-opacity="0.5" stroke-width="3.2"/>
<circle clip-path="url(#clip192)" cx="1722.9" cy="624.558" r="14.4" fill="#009af9" fill-rule="evenodd" fill-opacity="0.5" stroke="#000000" stroke-opacity="0.5" stroke-width="3.2"/>
<circle clip-path="url(#clip192)" cx="1497.57" cy="731.331" r="14.4" fill="#009af9" fill-rule="evenodd" fill-opacity="0.5" stroke="#000000" stroke-opacity="0.5" stroke-width="3.2"/>
<circle clip-path="url(#clip192)" cx="1542.9" cy="1185.03" r="14.4" fill="#009af9" fill-rule="evenodd" fill-opacity="0.5" stroke="#000000" stroke-opacity="0.5" stroke-width="3.2"/>
<circle clip-path="url(#clip192)" cx="2029.66" cy="821.854" r="14.4" fill="#009af9" fill-rule="evenodd" fill-opacity="0.5" stroke="#000000" stroke-opacity="0.5" stroke-width="3.2"/>
<circle clip-path="url(#clip192)" cx="1440.23" cy="1175.42" r="14.4" fill="#009af9" fill-rule="evenodd" fill-opacity="0.5" stroke="#000000" stroke-opacity="0.5" stroke-width="3.2"/>
<circle clip-path="url(#clip192)" cx="2100.27" cy="718.914" r="14.4" fill="#009af9" fill-rule="evenodd" fill-opacity="0.5" stroke="#000000" stroke-opacity="0.5" stroke-width="3.2"/>
<circle clip-path="url(#clip192)" cx="1625.46" cy="1079.47" r="14.4" fill="#009af9" fill-rule="evenodd" fill-opacity="0.5" stroke="#000000" stroke-opacity="0.5" stroke-width="3.2"/>
<circle clip-path="url(#clip192)" cx="813.708" cy="660.141" r="14.4" fill="#009af9" fill-rule="evenodd" fill-opacity="0.5" stroke="#000000" stroke-opacity="0.5" stroke-width="3.2"/>
<circle clip-path="url(#clip192)" cx="1805.97" cy="111.887" r="14.4" fill="#009af9" fill-rule="evenodd" fill-opacity="0.5" stroke="#000000" stroke-opacity="0.5" stroke-width="3.2"/>
<circle clip-path="url(#clip192)" cx="1132.95" cy="961.479" r="14.4" fill="#009af9" fill-rule="evenodd" fill-opacity="0.5" stroke="#000000" stroke-opacity="0.5" stroke-width="3.2"/>
<circle clip-path="url(#clip192)" cx="2131.41" cy="1199.79" r="14.4" fill="#009af9" fill-rule="evenodd" fill-opacity="0.5" stroke="#000000" stroke-opacity="0.5" stroke-width="3.2"/>
<circle clip-path="url(#clip192)" cx="1141.87" cy="841.676" r="14.4" fill="#009af9" fill-rule="evenodd" fill-opacity="0.5" stroke="#000000" stroke-opacity="0.5" stroke-width="3.2"/>
<circle clip-path="url(#clip192)" cx="2290.34" cy="692.521" r="14.4" fill="#009af9" fill-rule="evenodd" fill-opacity="0.5" stroke="#000000" stroke-opacity="0.5" stroke-width="3.2"/>
<circle clip-path="url(#clip192)" cx="588.281" cy="318.126" r="14.4" fill="#009af9" fill-rule="evenodd" fill-opacity="0.5" stroke="#000000" stroke-opacity="0.5" stroke-width="3.2"/>
<circle clip-path="url(#clip192)" cx="915.76" cy="1177.47" r="14.4" fill="#009af9" fill-rule="evenodd" fill-opacity="0.5" stroke="#000000" stroke-opacity="0.5" stroke-width="3.2"/>
<circle clip-path="url(#clip192)" cx="1151.25" cy="87.9763" r="14.4" fill="#009af9" fill-rule="evenodd" fill-opacity="0.5" stroke="#000000" stroke-opacity="0.5" stroke-width="3.2"/>
<circle clip-path="url(#clip192)" cx="209.891" cy="1123.63" r="14.4" fill="#009af9" fill-rule="evenodd" fill-opacity="0.5" stroke="#000000" stroke-opacity="0.5" stroke-width="3.2"/>
<circle clip-path="url(#clip192)" cx="1181.1" cy="1445.72" r="14.4" fill="#009af9" fill-rule="evenodd" fill-opacity="0.5" stroke="#000000" stroke-opacity="0.5" stroke-width="3.2"/>
<circle clip-path="url(#clip192)" cx="1644.03" cy="1018.2" r="14.4" fill="#009af9" fill-rule="evenodd" fill-opacity="0.5" stroke="#000000" stroke-opacity="0.5" stroke-width="3.2"/>
<circle clip-path="url(#clip192)" cx="1856.71" cy="767.555" r="14.4" fill="#009af9" fill-rule="evenodd" fill-opacity="0.5" stroke="#000000" stroke-opacity="0.5" stroke-width="3.2"/>
<circle clip-path="url(#clip192)" cx="1214.93" cy="170.808" r="14.4" fill="#009af9" fill-rule="evenodd" fill-opacity="0.5" stroke="#000000" stroke-opacity="0.5" stroke-width="3.2"/>
<path clip-path="url(#clip192)" d="M209.891 1123.63 L948.967 1414.77 L1181.1 1445.72 L2131.41 1199.79 L2290.34 692.521 L1805.97 111.887 L1151.25 87.9763 L588.281 318.126 L209.891 1123.63 L209.891 1123.63  Z" fill="#e26f46" fill-rule="evenodd" fill-opacity="0.2"/>
<polyline clip-path="url(#clip192)" style="stroke:#000000; stroke-linecap:round; stroke-linejoin:round; stroke-width:4; stroke-opacity:0.2; fill:none" points="209.891,1123.63 948.967,1414.77 1181.1,1445.72 2131.41,1199.79 2290.34,692.521 1805.97,111.887 1151.25,87.9763 588.281,318.126 209.891,1123.63 "/>
</svg>
