<?xml version="1.0" encoding="utf-8"?>
<svg xmlns="http://www.w3.org/2000/svg" xmlns:xlink="http://www.w3.org/1999/xlink" width="600" height="400" viewBox="0 0 2400 1600">
<defs>
  <clipPath id="clip850">
    <rect x="0" y="0" width="2400" height="1600"/>
  </clipPath>
</defs>
<path clip-path="url(#clip850)" d="M0 1600 L2400 1600 L2400 0 L0 0  Z" fill="#ffffff" fill-rule="evenodd" fill-opacity="1"/>
<defs>
  <clipPath id="clip851">
    <rect x="480" y="0" width="1681" height="1600"/>
  </clipPath>
</defs>
<path clip-path="url(#clip850)" d="M147.478 1486.45 L2352.76 1486.45 L2352.76 47.2441 L147.478 47.2441  Z" fill="#ffffff" fill-rule="evenodd" fill-opacity="1"/>
<defs>
  <clipPath id="clip852">
    <rect x="147" y="47" width="2206" height="1440"/>
  </clipPath>
</defs>
<polyline clip-path="url(#clip852)" style="stroke:#000000; stroke-linecap:round; stroke-linejoin:round; stroke-width:2; stroke-opacity:0.1; fill:none" points="522.824,1486.45 522.824,47.2441 "/>
<polyline clip-path="url(#clip852)" style="stroke:#000000; stroke-linecap:round; stroke-linejoin:round; stroke-width:2; stroke-opacity:0.1; fill:none" points="1064.71,1486.45 1064.71,47.2441 "/>
<polyline clip-path="url(#clip852)" style="stroke:#000000; stroke-linecap:round; stroke-linejoin:round; stroke-width:2; stroke-opacity:0.1; fill:none" points="1606.6,1486.45 1606.6,47.2441 "/>
<polyline clip-path="url(#clip852)" style="stroke:#000000; stroke-linecap:round; stroke-linejoin:round; stroke-width:2; stroke-opacity:0.1; fill:none" points="2148.49,1486.45 2148.49,47.2441 "/>
<polyline clip-path="url(#clip852)" style="stroke:#000000; stroke-linecap:round; stroke-linejoin:round; stroke-width:2; stroke-opacity:0.1; fill:none" points="147.478,1340.16 2352.76,1340.16 "/>
<polyline clip-path="url(#clip852)" style="stroke:#000000; stroke-linecap:round; stroke-linejoin:round; stroke-width:2; stroke-opacity:0.1; fill:none" points="147.478,1083.88 2352.76,1083.88 "/>
<polyline clip-path="url(#clip852)" style="stroke:#000000; stroke-linecap:round; stroke-linejoin:round; stroke-width:2; stroke-opacity:0.1; fill:none" points="147.478,827.607 2352.76,827.607 "/>
<polyline clip-path="url(#clip852)" style="stroke:#000000; stroke-linecap:round; stroke-linejoin:round; stroke-width:2; stroke-opacity:0.1; fill:none" points="147.478,571.332 2352.76,571.332 "/>
<polyline clip-path="url(#clip852)" style="stroke:#000000; stroke-linecap:round; stroke-linejoin:round; stroke-width:2; stroke-opacity:0.1; fill:none" points="147.478,315.056 2352.76,315.056 "/>
<polyline clip-path="url(#clip852)" style="stroke:#000000; stroke-linecap:round; stroke-linejoin:round; stroke-width:2; stroke-opacity:0.1; fill:none" points="147.478,58.7809 2352.76,58.7809 "/>
<polyline clip-path="url(#clip850)" style="stroke:#000000; stroke-linecap:round; stroke-linejoin:round; stroke-width:4; stroke-opacity:1; fill:none" points="147.478,1486.45 2352.76,1486.45 "/>
<polyline clip-path="url(#clip850)" style="stroke:#000000; stroke-linecap:round; stroke-linejoin:round; stroke-width:4; stroke-opacity:1; fill:none" points="522.824,1486.45 522.824,1467.55 "/>
<polyline clip-path="url(#clip850)" style="stroke:#000000; stroke-linecap:round; stroke-linejoin:round; stroke-width:4; stroke-opacity:1; fill:none" points="1064.71,1486.45 1064.71,1467.55 "/>
<polyline clip-path="url(#clip850)" style="stroke:#000000; stroke-linecap:round; stroke-linejoin:round; stroke-width:4; stroke-opacity:1; fill:none" points="1606.6,1486.45 1606.6,1467.55 "/>
<polyline clip-path="url(#clip850)" style="stroke:#000000; stroke-linecap:round; stroke-linejoin:round; stroke-width:4; stroke-opacity:1; fill:none" points="2148.49,1486.45 2148.49,1467.55 "/>
<path clip-path="url(#clip850)" d="M492.582 1532.02 L522.257 1532.02 L522.257 1535.95 L492.582 1535.95 L492.582 1532.02 Z" fill="#000000" fill-rule="nonzero" fill-opacity="1" /><path clip-path="url(#clip850)" d="M533.16 1544.91 L540.799 1544.91 L540.799 1518.55 L532.489 1520.21 L532.489 1515.95 L540.753 1514.29 L545.428 1514.29 L545.428 1544.91 L553.067 1544.91 L553.067 1548.85 L533.16 1548.85 L533.16 1544.91 Z" fill="#000000" fill-rule="nonzero" fill-opacity="1" /><path clip-path="url(#clip850)" d="M1064.71 1517.37 Q1061.1 1517.37 1059.27 1520.93 Q1057.47 1524.47 1057.47 1531.6 Q1057.47 1538.71 1059.27 1542.27 Q1061.1 1545.82 1064.71 1545.82 Q1068.35 1545.82 1070.15 1542.27 Q1071.98 1538.71 1071.98 1531.6 Q1071.98 1524.47 1070.15 1520.93 Q1068.35 1517.37 1064.71 1517.37 M1064.71 1513.66 Q1070.52 1513.66 1073.58 1518.27 Q1076.66 1522.85 1076.66 1531.6 Q1076.66 1540.33 1073.58 1544.94 Q1070.52 1549.52 1064.71 1549.52 Q1058.9 1549.52 1055.83 1544.94 Q1052.77 1540.33 1052.77 1531.6 Q1052.77 1522.85 1055.83 1518.27 Q1058.9 1513.66 1064.71 1513.66 Z" fill="#000000" fill-rule="nonzero" fill-opacity="1" /><path clip-path="url(#clip850)" d="M1596.99 1544.91 L1604.62 1544.91 L1604.62 1518.55 L1596.31 1520.21 L1596.31 1515.95 L1604.58 1514.29 L1609.25 1514.29 L1609.25 1544.91 L1616.89 1544.91 L1616.89 1548.85 L1596.99 1548.85 L1596.99 1544.91 Z" fill="#000000" fill-rule="nonzero" fill-opacity="1" /><path clip-path="url(#clip850)" d="M2143.15 1544.91 L2159.47 1544.91 L2159.47 1548.85 L2137.52 1548.85 L2137.52 1544.91 Q2140.18 1542.16 2144.77 1537.53 Q2149.37 1532.88 2150.55 1531.53 Q2152.8 1529.01 2153.68 1527.27 Q2154.58 1525.51 2154.58 1523.82 Q2154.58 1521.07 2152.64 1519.33 Q2150.72 1517.6 2147.61 1517.6 Q2145.41 1517.6 2142.96 1518.36 Q2140.53 1519.13 2137.75 1520.68 L2137.75 1515.95 Q2140.58 1514.82 2143.03 1514.24 Q2145.48 1513.66 2147.52 1513.66 Q2152.89 1513.66 2156.09 1516.35 Q2159.28 1519.03 2159.28 1523.52 Q2159.28 1525.65 2158.47 1527.57 Q2157.68 1529.47 2155.58 1532.07 Q2155 1532.74 2151.9 1535.95 Q2148.79 1539.15 2143.15 1544.91 Z" fill="#000000" fill-rule="nonzero" fill-opacity="1" /><polyline clip-path="url(#clip850)" style="stroke:#000000; stroke-linecap:round; stroke-linejoin:round; stroke-width:4; stroke-opacity:1; fill:none" points="147.478,1486.45 147.478,47.2441 "/>
<polyline clip-path="url(#clip850)" style="stroke:#000000; stroke-linecap:round; stroke-linejoin:round; stroke-width:4; stroke-opacity:1; fill:none" points="147.478,1340.16 166.376,1340.16 "/>
<polyline clip-path="url(#clip850)" style="stroke:#000000; stroke-linecap:round; stroke-linejoin:round; stroke-width:4; stroke-opacity:1; fill:none" points="147.478,1083.88 166.376,1083.88 "/>
<polyline clip-path="url(#clip850)" style="stroke:#000000; stroke-linecap:round; stroke-linejoin:round; stroke-width:4; stroke-opacity:1; fill:none" points="147.478,827.607 166.376,827.607 "/>
<polyline clip-path="url(#clip850)" style="stroke:#000000; stroke-linecap:round; stroke-linejoin:round; stroke-width:4; stroke-opacity:1; fill:none" points="147.478,571.332 166.376,571.332 "/>
<polyline clip-path="url(#clip850)" style="stroke:#000000; stroke-linecap:round; stroke-linejoin:round; stroke-width:4; stroke-opacity:1; fill:none" points="147.478,315.056 166.376,315.056 "/>
<polyline clip-path="url(#clip850)" style="stroke:#000000; stroke-linecap:round; stroke-linejoin:round; stroke-width:4; stroke-opacity:1; fill:none" points="147.478,58.7809 166.376,58.7809 "/>
<path clip-path="url(#clip850)" d="M51.3625 1340.61 L81.0383 1340.61 L81.0383 1344.54 L51.3625 1344.54 L51.3625 1340.61 Z" fill="#000000" fill-rule="nonzero" fill-opacity="1" /><path clip-path="url(#clip850)" d="M95.1586 1353.5 L111.478 1353.5 L111.478 1357.44 L89.5336 1357.44 L89.5336 1353.5 Q92.1956 1350.75 96.7789 1346.12 Q101.385 1341.47 102.566 1340.12 Q104.811 1337.6 105.691 1335.86 Q106.594 1334.1 106.594 1332.42 Q106.594 1329.66 104.649 1327.92 Q102.728 1326.19 99.6261 1326.19 Q97.4271 1326.19 94.9734 1326.95 Q92.5428 1327.72 89.7651 1329.27 L89.7651 1324.54 Q92.5891 1323.41 95.0428 1322.83 Q97.4965 1322.25 99.5335 1322.25 Q104.904 1322.25 108.098 1324.94 Q111.293 1327.62 111.293 1332.11 Q111.293 1334.24 110.483 1336.16 Q109.696 1338.06 107.589 1340.66 Q107.01 1341.33 103.909 1344.54 Q100.807 1347.74 95.1586 1353.5 Z" fill="#000000" fill-rule="nonzero" fill-opacity="1" /><path clip-path="url(#clip850)" d="M50.9921 1084.33 L80.6679 1084.33 L80.6679 1088.27 L50.9921 1088.27 L50.9921 1084.33 Z" fill="#000000" fill-rule="nonzero" fill-opacity="1" /><path clip-path="url(#clip850)" d="M91.5706 1097.23 L99.2095 1097.23 L99.2095 1070.86 L90.8993 1072.53 L90.8993 1068.27 L99.1632 1066.6 L103.839 1066.6 L103.839 1097.23 L111.478 1097.23 L111.478 1101.16 L91.5706 1101.16 L91.5706 1097.23 Z" fill="#000000" fill-rule="nonzero" fill-opacity="1" /><path clip-path="url(#clip850)" d="M99.5335 813.406 Q95.9224 813.406 94.0937 816.971 Q92.2882 820.512 92.2882 827.642 Q92.2882 834.748 94.0937 838.313 Q95.9224 841.855 99.5335 841.855 Q103.168 841.855 104.973 838.313 Q106.802 834.748 106.802 827.642 Q106.802 820.512 104.973 816.971 Q103.168 813.406 99.5335 813.406 M99.5335 809.702 Q105.344 809.702 108.399 814.309 Q111.478 818.892 111.478 827.642 Q111.478 836.369 108.399 840.975 Q105.344 845.558 99.5335 845.558 Q93.7234 845.558 90.6447 840.975 Q87.5892 836.369 87.5892 827.642 Q87.5892 818.892 90.6447 814.309 Q93.7234 809.702 99.5335 809.702 Z" fill="#000000" fill-rule="nonzero" fill-opacity="1" /><path clip-path="url(#clip850)" d="M91.5706 584.677 L99.2095 584.677 L99.2095 558.311 L90.8993 559.978 L90.8993 555.718 L99.1632 554.052 L103.839 554.052 L103.839 584.677 L111.478 584.677 L111.478 588.612 L91.5706 588.612 L91.5706 584.677 Z" fill="#000000" fill-rule="nonzero" fill-opacity="1" /><path clip-path="url(#clip850)" d="M95.1586 328.401 L111.478 328.401 L111.478 332.336 L89.5336 332.336 L89.5336 328.401 Q92.1956 325.647 96.7789 321.017 Q101.385 316.364 102.566 315.022 Q104.811 312.498 105.691 310.762 Q106.594 309.003 106.594 307.313 Q106.594 304.559 104.649 302.823 Q102.728 301.086 99.6261 301.086 Q97.4271 301.086 94.9734 301.85 Q92.5428 302.614 89.7651 304.165 L89.7651 299.443 Q92.5891 298.309 95.0428 297.73 Q97.4965 297.151 99.5335 297.151 Q104.904 297.151 108.098 299.836 Q111.293 302.522 111.293 307.012 Q111.293 309.142 110.483 311.063 Q109.696 312.961 107.589 315.554 Q107.01 316.225 103.909 319.443 Q100.807 322.637 95.1586 328.401 Z" fill="#000000" fill-rule="nonzero" fill-opacity="1" /><path clip-path="url(#clip850)" d="M104.348 57.4267 Q107.705 58.1443 109.58 60.4128 Q111.478 62.6813 111.478 66.0146 Q111.478 71.1303 107.959 73.9312 Q104.441 76.7321 97.9595 76.7321 Q95.7836 76.7321 93.4688 76.2923 Q91.1771 75.8757 88.7234 75.0192 L88.7234 70.5053 Q90.6678 71.6396 92.9826 72.2183 Q95.2974 72.797 97.8206 72.797 Q102.219 72.797 104.51 71.0609 Q106.825 69.3248 106.825 66.0146 Q106.825 62.9591 104.672 61.2461 Q102.543 59.51 98.7234 59.51 L94.6956 59.51 L94.6956 55.6674 L98.9085 55.6674 Q102.358 55.6674 104.186 54.3017 Q106.015 52.9128 106.015 50.3202 Q106.015 47.6582 104.117 46.2462 Q102.242 44.811 98.7234 44.811 Q96.8021 44.811 94.603 45.2277 Q92.4039 45.6443 89.7651 46.524 L89.7651 42.3573 Q92.4271 41.6166 94.7419 41.2462 Q97.0798 40.8759 99.14 40.8759 Q104.464 40.8759 107.566 43.3064 Q110.668 45.7138 110.668 49.8341 Q110.668 52.7045 109.024 54.6952 Q107.381 56.6628 104.348 57.4267 Z" fill="#000000" fill-rule="nonzero" fill-opacity="1" /><circle clip-path="url(#clip852)" cx="209.891" cy="1074.26" r="14.4" fill="#009af9" fill-rule="evenodd" fill-opacity="0.5" stroke="#000000" stroke-opacity="0.5" stroke-width="3.2"/>
<circle clip-path="url(#clip852)" cx="2290.34" cy="1046.94" r="14.4" fill="#009af9" fill-rule="evenodd" fill-opacity="0.5" stroke="#000000" stroke-opacity="0.5" stroke-width="3.2"/>
<circle clip-path="url(#clip852)" cx="1091.25" cy="571.235" r="14.4" fill="#009af9" fill-rule="evenodd" fill-opacity="0.5" stroke="#000000" stroke-opacity="0.5" stroke-width="3.2"/>
<circle clip-path="url(#clip852)" cx="721.789" cy="724.537" r="14.4" fill="#009af9" fill-rule="evenodd" fill-opacity="0.5" stroke="#000000" stroke-opacity="0.5" stroke-width="3.2"/>
<circle clip-path="url(#clip852)" cx="905.844" cy="546.198" r="14.4" fill="#009af9" fill-rule="evenodd" fill-opacity="0.5" stroke="#000000" stroke-opacity="0.5" stroke-width="3.2"/>
<circle clip-path="url(#clip852)" cx="1100.14" cy="1018.98" r="14.4" fill="#009af9" fill-rule="evenodd" fill-opacity="0.5" stroke="#000000" stroke-opacity="0.5" stroke-width="3.2"/>
<circle clip-path="url(#clip852)" cx="843.838" cy="826.104" r="14.4" fill="#009af9" fill-rule="evenodd" fill-opacity="0.5" stroke="#000000" stroke-opacity="0.5" stroke-width="3.2"/>
<circle clip-path="url(#clip852)" cx="390.855" cy="796.342" r="14.4" fill="#009af9" fill-rule="evenodd" fill-opacity="0.5" stroke="#000000" stroke-opacity="0.5" stroke-width="3.2"/>
<circle clip-path="url(#clip852)" cx="680.707" cy="1216.67" r="14.4" fill="#009af9" fill-rule="evenodd" fill-opacity="0.5" stroke="#000000" stroke-opacity="0.5" stroke-width="3.2"/>
<circle clip-path="url(#clip852)" cx="1447.08" cy="1004.54" r="14.4" fill="#009af9" fill-rule="evenodd" fill-opacity="0.5" stroke="#000000" stroke-opacity="0.5" stroke-width="3.2"/>
<circle clip-path="url(#clip852)" cx="1587.95" cy="507.753" r="14.4" fill="#009af9" fill-rule="evenodd" fill-opacity="0.5" stroke="#000000" stroke-opacity="0.5" stroke-width="3.2"/>
<circle clip-path="url(#clip852)" cx="943.347" cy="738.815" r="14.4" fill="#009af9" fill-rule="evenodd" fill-opacity="0.5" stroke="#000000" stroke-opacity="0.5" stroke-width="3.2"/>
<circle clip-path="url(#clip852)" cx="1731.97" cy="880.876" r="14.4" fill="#009af9" fill-rule="evenodd" fill-opacity="0.5" stroke="#000000" stroke-opacity="0.5" stroke-width="3.2"/>
<circle clip-path="url(#clip852)" cx="1511.92" cy="1309.33" r="14.4" fill="#009af9" fill-rule="evenodd" fill-opacity="0.5" stroke="#000000" stroke-opacity="0.5" stroke-width="3.2"/>
<circle clip-path="url(#clip852)" cx="944.053" cy="798.805" r="14.4" fill="#009af9" fill-rule="evenodd" fill-opacity="0.5" stroke="#000000" stroke-opacity="0.5" stroke-width="3.2"/>
<circle clip-path="url(#clip852)" cx="1915.53" cy="736.814" r="14.4" fill="#009af9" fill-rule="evenodd" fill-opacity="0.5" stroke="#000000" stroke-opacity="0.5" stroke-width="3.2"/>
<circle clip-path="url(#clip852)" cx="1155.27" cy="739.54" r="14.4" fill="#009af9" fill-rule="evenodd" fill-opacity="0.5" stroke="#000000" stroke-opacity="0.5" stroke-width="3.2"/>
<circle clip-path="url(#clip852)" cx="1650.89" cy="739.077" r="14.4" fill="#009af9" fill-rule="evenodd" fill-opacity="0.5" stroke="#000000" stroke-opacity="0.5" stroke-width="3.2"/>
<circle clip-path="url(#clip852)" cx="699.491" cy="705.045" r="14.4" fill="#009af9" fill-rule="evenodd" fill-opacity="0.5" stroke="#000000" stroke-opacity="0.5" stroke-width="3.2"/>
<circle clip-path="url(#clip852)" cx="510.376" cy="87.9763" r="14.4" fill="#009af9" fill-rule="evenodd" fill-opacity="0.5" stroke="#000000" stroke-opacity="0.5" stroke-width="3.2"/>
<circle clip-path="url(#clip852)" cx="1703.37" cy="492.119" r="14.4" fill="#009af9" fill-rule="evenodd" fill-opacity="0.5" stroke="#000000" stroke-opacity="0.5" stroke-width="3.2"/>
<circle clip-path="url(#clip852)" cx="1979.53" cy="1445.72" r="14.4" fill="#009af9" fill-rule="evenodd" fill-opacity="0.5" stroke="#000000" stroke-opacity="0.5" stroke-width="3.2"/>
<circle clip-path="url(#clip852)" cx="844.427" cy="1114.29" r="14.4" fill="#009af9" fill-rule="evenodd" fill-opacity="0.5" stroke="#000000" stroke-opacity="0.5" stroke-width="3.2"/>
<circle clip-path="url(#clip852)" cx="1952.02" cy="768.511" r="14.4" fill="#009af9" fill-rule="evenodd" fill-opacity="0.5" stroke="#000000" stroke-opacity="0.5" stroke-width="3.2"/>
<circle clip-path="url(#clip852)" cx="805.073" cy="740.391" r="14.4" fill="#009af9" fill-rule="evenodd" fill-opacity="0.5" stroke="#000000" stroke-opacity="0.5" stroke-width="3.2"/>
<circle clip-path="url(#clip852)" cx="1427.53" cy="1079.62" r="14.4" fill="#009af9" fill-rule="evenodd" fill-opacity="0.5" stroke="#000000" stroke-opacity="0.5" stroke-width="3.2"/>
<circle clip-path="url(#clip852)" cx="960.116" cy="1028.45" r="14.4" fill="#009af9" fill-rule="evenodd" fill-opacity="0.5" stroke="#000000" stroke-opacity="0.5" stroke-width="3.2"/>
<circle clip-path="url(#clip852)" cx="1038.56" cy="980.199" r="14.4" fill="#009af9" fill-rule="evenodd" fill-opacity="0.5" stroke="#000000" stroke-opacity="0.5" stroke-width="3.2"/>
<circle clip-path="url(#clip852)" cx="1815.87" cy="753.411" r="14.4" fill="#009af9" fill-rule="evenodd" fill-opacity="0.5" stroke="#000000" stroke-opacity="0.5" stroke-width="3.2"/>
<circle clip-path="url(#clip852)" cx="1318.72" cy="163.433" r="14.4" fill="#009af9" fill-rule="evenodd" fill-opacity="0.5" stroke="#000000" stroke-opacity="0.5" stroke-width="3.2"/>
<path clip-path="url(#clip852)" d="M209.891 1074.26 L680.707 1216.67 L1979.53 1445.72 L2290.34 1046.94 L1703.37 492.119 L1318.72 163.433 L510.376 87.9763 L209.891 1074.26 L209.891 1074.26  Z" fill="#e26f46" fill-rule="evenodd" fill-opacity="0.2"/>
<polyline clip-path="url(#clip852)" style="stroke:#000000; stroke-linecap:round; stroke-linejoin:round; stroke-width:4; stroke-opacity:0.2; fill:none" points="209.891,1074.26 680.707,1216.67 1979.53,1445.72 2290.34,1046.94 1703.37,492.119 1318.72,163.433 510.376,87.9763 209.891,1074.26 "/>
</svg>
