<?xml version="1.0" encoding="utf-8"?>
<svg xmlns="http://www.w3.org/2000/svg" xmlns:xlink="http://www.w3.org/1999/xlink" width="600" height="400" viewBox="0 0 2400 1600">
<defs>
  <clipPath id="clip280">
    <rect x="0" y="0" width="2400" height="1600"/>
  </clipPath>
</defs>
<path clip-path="url(#clip280)" d="M0 1600 L2400 1600 L2400 0 L0 0  Z" fill="#ffffff" fill-rule="evenodd" fill-opacity="1"/>
<defs>
  <clipPath id="clip281">
    <rect x="480" y="0" width="1681" height="1600"/>
  </clipPath>
</defs>
<path clip-path="url(#clip280)" d="M147.478 1486.45 L2352.76 1486.45 L2352.76 47.2441 L147.478 47.2441  Z" fill="#ffffff" fill-rule="evenodd" fill-opacity="1"/>
<defs>
  <clipPath id="clip282">
    <rect x="147" y="47" width="2206" height="1440"/>
  </clipPath>
</defs>
<polyline clip-path="url(#clip282)" style="stroke:#000000; stroke-linecap:round; stroke-linejoin:round; stroke-width:2; stroke-opacity:0.1; fill:none" points="216.611,1486.45 216.611,47.2441 "/>
<polyline clip-path="url(#clip282)" style="stroke:#000000; stroke-linecap:round; stroke-linejoin:round; stroke-width:2; stroke-opacity:0.1; fill:none" points="752.873,1486.45 752.873,47.2441 "/>
<polyline clip-path="url(#clip282)" style="stroke:#000000; stroke-linecap:round; stroke-linejoin:round; stroke-width:2; stroke-opacity:0.1; fill:none" points="1289.13,1486.45 1289.13,47.2441 "/>
<polyline clip-path="url(#clip282)" style="stroke:#000000; stroke-linecap:round; stroke-linejoin:round; stroke-width:2; stroke-opacity:0.1; fill:none" points="1825.4,1486.45 1825.4,47.2441 "/>
<polyline clip-path="url(#clip282)" style="stroke:#000000; stroke-linecap:round; stroke-linejoin:round; stroke-width:2; stroke-opacity:0.1; fill:none" points="147.478,1441.13 2352.76,1441.13 "/>
<polyline clip-path="url(#clip282)" style="stroke:#000000; stroke-linecap:round; stroke-linejoin:round; stroke-width:2; stroke-opacity:0.1; fill:none" points="147.478,1064.77 2352.76,1064.77 "/>
<polyline clip-path="url(#clip282)" style="stroke:#000000; stroke-linecap:round; stroke-linejoin:round; stroke-width:2; stroke-opacity:0.1; fill:none" points="147.478,688.422 2352.76,688.422 "/>
<polyline clip-path="url(#clip282)" style="stroke:#000000; stroke-linecap:round; stroke-linejoin:round; stroke-width:2; stroke-opacity:0.1; fill:none" points="147.478,312.07 2352.76,312.07 "/>
<polyline clip-path="url(#clip280)" style="stroke:#000000; stroke-linecap:round; stroke-linejoin:round; stroke-width:4; stroke-opacity:1; fill:none" points="147.478,1486.45 2352.76,1486.45 "/>
<polyline clip-path="url(#clip280)" style="stroke:#000000; stroke-linecap:round; stroke-linejoin:round; stroke-width:4; stroke-opacity:1; fill:none" points="216.611,1486.45 216.611,1467.55 "/>
<polyline clip-path="url(#clip280)" style="stroke:#000000; stroke-linecap:round; stroke-linejoin:round; stroke-width:4; stroke-opacity:1; fill:none" points="752.873,1486.45 752.873,1467.55 "/>
<polyline clip-path="url(#clip280)" style="stroke:#000000; stroke-linecap:round; stroke-linejoin:round; stroke-width:4; stroke-opacity:1; fill:none" points="1289.13,1486.45 1289.13,1467.55 "/>
<polyline clip-path="url(#clip280)" style="stroke:#000000; stroke-linecap:round; stroke-linejoin:round; stroke-width:4; stroke-opacity:1; fill:none" points="1825.4,1486.45 1825.4,1467.55 "/>
<path clip-path="url(#clip280)" d="M186.554 1532.02 L216.229 1532.02 L216.229 1535.95 L186.554 1535.95 L186.554 1532.02 Z" fill="#000000" fill-rule="nonzero" fill-opacity="1" /><path clip-path="url(#clip280)" d="M230.35 1544.91 L246.669 1544.91 L246.669 1548.85 L224.725 1548.85 L224.725 1544.91 Q227.387 1542.16 231.97 1537.53 Q236.576 1532.88 237.757 1531.53 Q240.002 1529.01 240.882 1527.27 Q241.785 1525.51 241.785 1523.82 Q241.785 1521.07 239.84 1519.33 Q237.919 1517.6 234.817 1517.6 Q232.618 1517.6 230.164 1518.36 Q227.734 1519.13 224.956 1520.68 L224.956 1515.95 Q227.78 1514.82 230.234 1514.24 Q232.688 1513.66 234.725 1513.66 Q240.095 1513.66 243.289 1516.35 Q246.484 1519.03 246.484 1523.52 Q246.484 1525.65 245.674 1527.57 Q244.887 1529.47 242.78 1532.07 Q242.201 1532.74 239.1 1535.95 Q235.998 1539.15 230.35 1544.91 Z" fill="#000000" fill-rule="nonzero" fill-opacity="1" /><path clip-path="url(#clip280)" d="M722.63 1532.02 L752.306 1532.02 L752.306 1535.95 L722.63 1535.95 L722.63 1532.02 Z" fill="#000000" fill-rule="nonzero" fill-opacity="1" /><path clip-path="url(#clip280)" d="M763.208 1544.91 L770.847 1544.91 L770.847 1518.55 L762.537 1520.21 L762.537 1515.95 L770.801 1514.29 L775.477 1514.29 L775.477 1544.91 L783.116 1544.91 L783.116 1548.85 L763.208 1548.85 L763.208 1544.91 Z" fill="#000000" fill-rule="nonzero" fill-opacity="1" /><path clip-path="url(#clip280)" d="M1289.13 1517.37 Q1285.52 1517.37 1283.69 1520.93 Q1281.89 1524.47 1281.89 1531.6 Q1281.89 1538.71 1283.69 1542.27 Q1285.52 1545.82 1289.13 1545.82 Q1292.77 1545.82 1294.57 1542.27 Q1296.4 1538.71 1296.4 1531.6 Q1296.4 1524.47 1294.57 1520.93 Q1292.77 1517.37 1289.13 1517.37 M1289.13 1513.66 Q1294.94 1513.66 1298 1518.27 Q1301.08 1522.85 1301.08 1531.6 Q1301.08 1540.33 1298 1544.94 Q1294.94 1549.52 1289.13 1549.52 Q1283.32 1549.52 1280.25 1544.94 Q1277.19 1540.33 1277.19 1531.6 Q1277.19 1522.85 1280.25 1518.27 Q1283.32 1513.66 1289.13 1513.66 Z" fill="#000000" fill-rule="nonzero" fill-opacity="1" /><path clip-path="url(#clip280)" d="M1815.78 1544.91 L1823.42 1544.91 L1823.42 1518.55 L1815.11 1520.21 L1815.11 1515.95 L1823.37 1514.29 L1828.05 1514.29 L1828.05 1544.91 L1835.69 1544.91 L1835.69 1548.85 L1815.78 1548.85 L1815.78 1544.91 Z" fill="#000000" fill-rule="nonzero" fill-opacity="1" /><polyline clip-path="url(#clip280)" style="stroke:#000000; stroke-linecap:round; stroke-linejoin:round; stroke-width:4; stroke-opacity:1; fill:none" points="147.478,1486.45 147.478,47.2441 "/>
<polyline clip-path="url(#clip280)" style="stroke:#000000; stroke-linecap:round; stroke-linejoin:round; stroke-width:4; stroke-opacity:1; fill:none" points="147.478,1441.13 166.376,1441.13 "/>
<polyline clip-path="url(#clip280)" style="stroke:#000000; stroke-linecap:round; stroke-linejoin:round; stroke-width:4; stroke-opacity:1; fill:none" points="147.478,1064.77 166.376,1064.77 "/>
<polyline clip-path="url(#clip280)" style="stroke:#000000; stroke-linecap:round; stroke-linejoin:round; stroke-width:4; stroke-opacity:1; fill:none" points="147.478,688.422 166.376,688.422 "/>
<polyline clip-path="url(#clip280)" style="stroke:#000000; stroke-linecap:round; stroke-linejoin:round; stroke-width:4; stroke-opacity:1; fill:none" points="147.478,312.07 166.376,312.07 "/>
<path clip-path="url(#clip280)" d="M51.3625 1441.58 L81.0383 1441.58 L81.0383 1445.51 L51.3625 1445.51 L51.3625 1441.58 Z" fill="#000000" fill-rule="nonzero" fill-opacity="1" /><path clip-path="url(#clip280)" d="M95.1586 1454.47 L111.478 1454.47 L111.478 1458.41 L89.5336 1458.41 L89.5336 1454.47 Q92.1956 1451.72 96.7789 1447.09 Q101.385 1442.43 102.566 1441.09 Q104.811 1438.57 105.691 1436.83 Q106.594 1435.07 106.594 1433.38 Q106.594 1430.63 104.649 1428.89 Q102.728 1427.16 99.6261 1427.16 Q97.4271 1427.16 94.9734 1427.92 Q92.5428 1428.68 89.7651 1430.23 L89.7651 1425.51 Q92.5891 1424.38 95.0428 1423.8 Q97.4965 1423.22 99.5335 1423.22 Q104.904 1423.22 108.098 1425.91 Q111.293 1428.59 111.293 1433.08 Q111.293 1435.21 110.483 1437.13 Q109.696 1439.03 107.589 1441.62 Q107.01 1442.29 103.909 1445.51 Q100.807 1448.71 95.1586 1454.47 Z" fill="#000000" fill-rule="nonzero" fill-opacity="1" /><path clip-path="url(#clip280)" d="M50.9921 1065.22 L80.6679 1065.22 L80.6679 1069.16 L50.9921 1069.16 L50.9921 1065.22 Z" fill="#000000" fill-rule="nonzero" fill-opacity="1" /><path clip-path="url(#clip280)" d="M91.5706 1078.12 L99.2095 1078.12 L99.2095 1051.75 L90.8993 1053.42 L90.8993 1049.16 L99.1632 1047.49 L103.839 1047.49 L103.839 1078.12 L111.478 1078.12 L111.478 1082.05 L91.5706 1082.05 L91.5706 1078.12 Z" fill="#000000" fill-rule="nonzero" fill-opacity="1" /><path clip-path="url(#clip280)" d="M99.5335 674.221 Q95.9224 674.221 94.0937 677.785 Q92.2882 681.327 92.2882 688.457 Q92.2882 695.563 94.0937 699.128 Q95.9224 702.67 99.5335 702.67 Q103.168 702.67 104.973 699.128 Q106.802 695.563 106.802 688.457 Q106.802 681.327 104.973 677.785 Q103.168 674.221 99.5335 674.221 M99.5335 670.517 Q105.344 670.517 108.399 675.123 Q111.478 679.707 111.478 688.457 Q111.478 697.183 108.399 701.79 Q105.344 706.373 99.5335 706.373 Q93.7234 706.373 90.6447 701.79 Q87.5892 697.183 87.5892 688.457 Q87.5892 679.707 90.6447 675.123 Q93.7234 670.517 99.5335 670.517 Z" fill="#000000" fill-rule="nonzero" fill-opacity="1" /><path clip-path="url(#clip280)" d="M91.5706 325.415 L99.2095 325.415 L99.2095 299.05 L90.8993 300.716 L90.8993 296.457 L99.1632 294.79 L103.839 294.79 L103.839 325.415 L111.478 325.415 L111.478 329.35 L91.5706 329.35 L91.5706 325.415 Z" fill="#000000" fill-rule="nonzero" fill-opacity="1" /><circle clip-path="url(#clip282)" cx="963.865" cy="776.303" r="14.4" fill="#009af9" fill-rule="evenodd" fill-opacity="0.5" stroke="#000000" stroke-opacity="0.5" stroke-width="3.2"/>
<circle clip-path="url(#clip282)" cx="1137.97" cy="1052.44" r="14.4" fill="#009af9" fill-rule="evenodd" fill-opacity="0.5" stroke="#000000" stroke-opacity="0.5" stroke-width="3.2"/>
<circle clip-path="url(#clip282)" cx="838.424" cy="1067.27" r="14.4" fill="#009af9" fill-rule="evenodd" fill-opacity="0.5" stroke="#000000" stroke-opacity="0.5" stroke-width="3.2"/>
<circle clip-path="url(#clip282)" cx="788.216" cy="1113.51" r="14.4" fill="#009af9" fill-rule="evenodd" fill-opacity="0.5" stroke="#000000" stroke-opacity="0.5" stroke-width="3.2"/>
<circle clip-path="url(#clip282)" cx="1105.5" cy="755.94" r="14.4" fill="#009af9" fill-rule="evenodd" fill-opacity="0.5" stroke="#000000" stroke-opacity="0.5" stroke-width="3.2"/>
<circle clip-path="url(#clip282)" cx="681.353" cy="561.86" r="14.4" fill="#009af9" fill-rule="evenodd" fill-opacity="0.5" stroke="#000000" stroke-opacity="0.5" stroke-width="3.2"/>
<circle clip-path="url(#clip282)" cx="1864.52" cy="485.514" r="14.4" fill="#009af9" fill-rule="evenodd" fill-opacity="0.5" stroke="#000000" stroke-opacity="0.5" stroke-width="3.2"/>
<circle clip-path="url(#clip282)" cx="1360.3" cy="765.329" r="14.4" fill="#009af9" fill-rule="evenodd" fill-opacity="0.5" stroke="#000000" stroke-opacity="0.5" stroke-width="3.2"/>
<circle clip-path="url(#clip282)" cx="852.763" cy="149.359" r="14.4" fill="#009af9" fill-rule="evenodd" fill-opacity="0.5" stroke="#000000" stroke-opacity="0.5" stroke-width="3.2"/>
<circle clip-path="url(#clip282)" cx="1951.31" cy="833.951" r="14.4" fill="#009af9" fill-rule="evenodd" fill-opacity="0.5" stroke="#000000" stroke-opacity="0.5" stroke-width="3.2"/>
<circle clip-path="url(#clip282)" cx="848.551" cy="757.669" r="14.4" fill="#009af9" fill-rule="evenodd" fill-opacity="0.5" stroke="#000000" stroke-opacity="0.5" stroke-width="3.2"/>
<circle clip-path="url(#clip282)" cx="2250.59" cy="476.509" r="14.4" fill="#009af9" fill-rule="evenodd" fill-opacity="0.5" stroke="#000000" stroke-opacity="0.5" stroke-width="3.2"/>
<circle clip-path="url(#clip282)" cx="494.357" cy="758.283" r="14.4" fill="#009af9" fill-rule="evenodd" fill-opacity="0.5" stroke="#000000" stroke-opacity="0.5" stroke-width="3.2"/>
<circle clip-path="url(#clip282)" cx="2290.34" cy="1048.86" r="14.4" fill="#009af9" fill-rule="evenodd" fill-opacity="0.5" stroke="#000000" stroke-opacity="0.5" stroke-width="3.2"/>
<circle clip-path="url(#clip282)" cx="892.188" cy="284.572" r="14.4" fill="#009af9" fill-rule="evenodd" fill-opacity="0.5" stroke="#000000" stroke-opacity="0.5" stroke-width="3.2"/>
<circle clip-path="url(#clip282)" cx="1479.42" cy="356.329" r="14.4" fill="#009af9" fill-rule="evenodd" fill-opacity="0.5" stroke="#000000" stroke-opacity="0.5" stroke-width="3.2"/>
<circle clip-path="url(#clip282)" cx="494.427" cy="743.525" r="14.4" fill="#009af9" fill-rule="evenodd" fill-opacity="0.5" stroke="#000000" stroke-opacity="0.5" stroke-width="3.2"/>
<circle clip-path="url(#clip282)" cx="209.891" cy="968.683" r="14.4" fill="#009af9" fill-rule="evenodd" fill-opacity="0.5" stroke="#000000" stroke-opacity="0.5" stroke-width="3.2"/>
<circle clip-path="url(#clip282)" cx="1215.55" cy="338.17" r="14.4" fill="#009af9" fill-rule="evenodd" fill-opacity="0.5" stroke="#000000" stroke-opacity="0.5" stroke-width="3.2"/>
<circle clip-path="url(#clip282)" cx="703.551" cy="246.354" r="14.4" fill="#009af9" fill-rule="evenodd" fill-opacity="0.5" stroke="#000000" stroke-opacity="0.5" stroke-width="3.2"/>
<circle clip-path="url(#clip282)" cx="1059.32" cy="815.912" r="14.4" fill="#009af9" fill-rule="evenodd" fill-opacity="0.5" stroke="#000000" stroke-opacity="0.5" stroke-width="3.2"/>
<circle clip-path="url(#clip282)" cx="1535.78" cy="87.9763" r="14.4" fill="#009af9" fill-rule="evenodd" fill-opacity="0.5" stroke="#000000" stroke-opacity="0.5" stroke-width="3.2"/>
<circle clip-path="url(#clip282)" cx="1540.14" cy="170.124" r="14.4" fill="#009af9" fill-rule="evenodd" fill-opacity="0.5" stroke="#000000" stroke-opacity="0.5" stroke-width="3.2"/>
<circle clip-path="url(#clip282)" cx="889.742" cy="282.954" r="14.4" fill="#009af9" fill-rule="evenodd" fill-opacity="0.5" stroke="#000000" stroke-opacity="0.5" stroke-width="3.2"/>
<circle clip-path="url(#clip282)" cx="1531.83" cy="559.244" r="14.4" fill="#009af9" fill-rule="evenodd" fill-opacity="0.5" stroke="#000000" stroke-opacity="0.5" stroke-width="3.2"/>
<circle clip-path="url(#clip282)" cx="1984.81" cy="939.835" r="14.4" fill="#009af9" fill-rule="evenodd" fill-opacity="0.5" stroke="#000000" stroke-opacity="0.5" stroke-width="3.2"/>
<circle clip-path="url(#clip282)" cx="2016.03" cy="774.369" r="14.4" fill="#009af9" fill-rule="evenodd" fill-opacity="0.5" stroke="#000000" stroke-opacity="0.5" stroke-width="3.2"/>
<circle clip-path="url(#clip282)" cx="1587.46" cy="940.729" r="14.4" fill="#009af9" fill-rule="evenodd" fill-opacity="0.5" stroke="#000000" stroke-opacity="0.5" stroke-width="3.2"/>
<circle clip-path="url(#clip282)" cx="1392.13" cy="580.138" r="14.4" fill="#009af9" fill-rule="evenodd" fill-opacity="0.5" stroke="#000000" stroke-opacity="0.5" stroke-width="3.2"/>
<circle clip-path="url(#clip282)" cx="1219.85" cy="1445.72" r="14.4" fill="#009af9" fill-rule="evenodd" fill-opacity="0.5" stroke="#000000" stroke-opacity="0.5" stroke-width="3.2"/>
<path clip-path="url(#clip282)" d="M209.891 968.683 L1219.85 1445.72 L2290.34 1048.86 L2250.59 476.509 L1535.78 87.9763 L852.763 149.359 L703.551 246.354 L209.891 968.683 L209.891 968.683  Z" fill="#e26f46" fill-rule="evenodd" fill-opacity="0.2"/>
<polyline clip-path="url(#clip282)" style="stroke:#000000; stroke-linecap:round; stroke-linejoin:round; stroke-width:4; stroke-opacity:0.2; fill:none" points="209.891,968.683 1219.85,1445.72 2290.34,1048.86 2250.59,476.509 1535.78,87.9763 852.763,149.359 703.551,246.354 209.891,968.683 "/>
</svg>
