<?xml version="1.0" encoding="utf-8"?>
<svg xmlns="http://www.w3.org/2000/svg" xmlns:xlink="http://www.w3.org/1999/xlink" width="600" height="400" viewBox="0 0 2400 1600">
<defs>
  <clipPath id="clip520">
    <rect x="0" y="0" width="2400" height="1600"/>
  </clipPath>
</defs>
<path clip-path="url(#clip520)" d="M0 1600 L2400 1600 L2400 0 L0 0  Z" fill="#ffffff" fill-rule="evenodd" fill-opacity="1"/>
<defs>
  <clipPath id="clip521">
    <rect x="480" y="0" width="1681" height="1600"/>
  </clipPath>
</defs>
<path clip-path="url(#clip520)" d="M148.057 1486.45 L2352.76 1486.45 L2352.76 47.2441 L148.057 47.2441  Z" fill="#ffffff" fill-rule="evenodd" fill-opacity="1"/>
<defs>
  <clipPath id="clip522">
    <rect x="148" y="47" width="2206" height="1440"/>
  </clipPath>
</defs>
<polyline clip-path="url(#clip522)" style="stroke:#000000; stroke-linecap:round; stroke-linejoin:round; stroke-width:2; stroke-opacity:0.1; fill:none" points="454.587,1486.45 454.587,47.2441 "/>
<polyline clip-path="url(#clip522)" style="stroke:#000000; stroke-linecap:round; stroke-linejoin:round; stroke-width:2; stroke-opacity:0.1; fill:none" points="972.429,1486.45 972.429,47.2441 "/>
<polyline clip-path="url(#clip522)" style="stroke:#000000; stroke-linecap:round; stroke-linejoin:round; stroke-width:2; stroke-opacity:0.1; fill:none" points="1490.27,1486.45 1490.27,47.2441 "/>
<polyline clip-path="url(#clip522)" style="stroke:#000000; stroke-linecap:round; stroke-linejoin:round; stroke-width:2; stroke-opacity:0.1; fill:none" points="2008.11,1486.45 2008.11,47.2441 "/>
<polyline clip-path="url(#clip520)" style="stroke:#000000; stroke-linecap:round; stroke-linejoin:round; stroke-width:4; stroke-opacity:1; fill:none" points="148.057,1486.45 2352.76,1486.45 "/>
<polyline clip-path="url(#clip520)" style="stroke:#000000; stroke-linecap:round; stroke-linejoin:round; stroke-width:4; stroke-opacity:1; fill:none" points="454.587,1486.45 454.587,1467.55 "/>
<polyline clip-path="url(#clip520)" style="stroke:#000000; stroke-linecap:round; stroke-linejoin:round; stroke-width:4; stroke-opacity:1; fill:none" points="972.429,1486.45 972.429,1467.55 "/>
<polyline clip-path="url(#clip520)" style="stroke:#000000; stroke-linecap:round; stroke-linejoin:round; stroke-width:4; stroke-opacity:1; fill:none" points="1490.27,1486.45 1490.27,1467.55 "/>
<polyline clip-path="url(#clip520)" style="stroke:#000000; stroke-linecap:round; stroke-linejoin:round; stroke-width:4; stroke-opacity:1; fill:none" points="2008.11,1486.45 2008.11,1467.55 "/>
<path clip-path="url(#clip520)" d="M424.529 1532.02 L454.205 1532.02 L454.205 1535.95 L424.529 1535.95 L424.529 1532.02 Z" fill="#000000" fill-rule="nonzero" fill-opacity="1" /><path clip-path="url(#clip520)" d="M468.325 1544.91 L484.644 1544.91 L484.644 1548.85 L462.7 1548.85 L462.7 1544.91 Q465.362 1542.16 469.945 1537.53 Q474.552 1532.88 475.732 1531.53 Q477.978 1529.01 478.857 1527.27 Q479.76 1525.51 479.76 1523.82 Q479.76 1521.07 477.816 1519.33 Q475.894 1517.6 472.793 1517.6 Q470.594 1517.6 468.14 1518.36 Q465.709 1519.13 462.932 1520.68 L462.932 1515.95 Q465.756 1514.82 468.209 1514.24 Q470.663 1513.66 472.7 1513.66 Q478.07 1513.66 481.265 1516.35 Q484.459 1519.03 484.459 1523.52 Q484.459 1525.65 483.649 1527.57 Q482.862 1529.47 480.756 1532.07 Q480.177 1532.74 477.075 1535.95 Q473.973 1539.15 468.325 1544.91 Z" fill="#000000" fill-rule="nonzero" fill-opacity="1" /><path clip-path="url(#clip520)" d="M942.187 1532.02 L971.862 1532.02 L971.862 1535.95 L942.187 1535.95 L942.187 1532.02 Z" fill="#000000" fill-rule="nonzero" fill-opacity="1" /><path clip-path="url(#clip520)" d="M982.765 1544.91 L990.404 1544.91 L990.404 1518.55 L982.094 1520.21 L982.094 1515.95 L990.358 1514.29 L995.033 1514.29 L995.033 1544.91 L1002.67 1544.91 L1002.67 1548.85 L982.765 1548.85 L982.765 1544.91 Z" fill="#000000" fill-rule="nonzero" fill-opacity="1" /><path clip-path="url(#clip520)" d="M1490.27 1517.37 Q1486.66 1517.37 1484.83 1520.93 Q1483.03 1524.47 1483.03 1531.6 Q1483.03 1538.71 1484.83 1542.27 Q1486.66 1545.82 1490.27 1545.82 Q1493.91 1545.82 1495.71 1542.27 Q1497.54 1538.71 1497.54 1531.6 Q1497.54 1524.47 1495.71 1520.93 Q1493.91 1517.37 1490.27 1517.37 M1490.27 1513.66 Q1496.08 1513.66 1499.14 1518.27 Q1502.22 1522.85 1502.22 1531.6 Q1502.22 1540.33 1499.14 1544.94 Q1496.08 1549.52 1490.27 1549.52 Q1484.46 1549.52 1481.38 1544.94 Q1478.33 1540.33 1478.33 1531.6 Q1478.33 1522.85 1481.38 1518.27 Q1484.46 1513.66 1490.27 1513.66 Z" fill="#000000" fill-rule="nonzero" fill-opacity="1" /><path clip-path="url(#clip520)" d="M1998.5 1544.91 L2006.14 1544.91 L2006.14 1518.55 L1997.83 1520.21 L1997.83 1515.95 L2006.09 1514.29 L2010.77 1514.29 L2010.77 1544.91 L2018.4 1544.91 L2018.4 1548.85 L1998.5 1548.85 L1998.5 1544.91 Z" fill="#000000" fill-rule="nonzero" fill-opacity="1" /><polyline clip-path="url(#clip522)" style="stroke:#000000; stroke-linecap:round; stroke-linejoin:round; stroke-width:2; stroke-opacity:0.1; fill:none" points="148.057,1414.11 2352.76,1414.11 "/>
<polyline clip-path="url(#clip522)" style="stroke:#000000; stroke-linecap:round; stroke-linejoin:round; stroke-width:2; stroke-opacity:0.1; fill:none" points="148.057,1123.17 2352.76,1123.17 "/>
<polyline clip-path="url(#clip522)" style="stroke:#000000; stroke-linecap:round; stroke-linejoin:round; stroke-width:2; stroke-opacity:0.1; fill:none" points="148.057,832.237 2352.76,832.237 "/>
<polyline clip-path="url(#clip522)" style="stroke:#000000; stroke-linecap:round; stroke-linejoin:round; stroke-width:2; stroke-opacity:0.1; fill:none" points="148.057,541.302 2352.76,541.302 "/>
<polyline clip-path="url(#clip522)" style="stroke:#000000; stroke-linecap:round; stroke-linejoin:round; stroke-width:2; stroke-opacity:0.1; fill:none" points="148.057,250.368 2352.76,250.368 "/>
<polyline clip-path="url(#clip520)" style="stroke:#000000; stroke-linecap:round; stroke-linejoin:round; stroke-width:4; stroke-opacity:1; fill:none" points="148.057,1486.45 148.057,47.2441 "/>
<polyline clip-path="url(#clip520)" style="stroke:#000000; stroke-linecap:round; stroke-linejoin:round; stroke-width:4; stroke-opacity:1; fill:none" points="148.057,1414.11 166.954,1414.11 "/>
<polyline clip-path="url(#clip520)" style="stroke:#000000; stroke-linecap:round; stroke-linejoin:round; stroke-width:4; stroke-opacity:1; fill:none" points="148.057,1123.17 166.954,1123.17 "/>
<polyline clip-path="url(#clip520)" style="stroke:#000000; stroke-linecap:round; stroke-linejoin:round; stroke-width:4; stroke-opacity:1; fill:none" points="148.057,832.237 166.954,832.237 "/>
<polyline clip-path="url(#clip520)" style="stroke:#000000; stroke-linecap:round; stroke-linejoin:round; stroke-width:4; stroke-opacity:1; fill:none" points="148.057,541.302 166.954,541.302 "/>
<polyline clip-path="url(#clip520)" style="stroke:#000000; stroke-linecap:round; stroke-linejoin:round; stroke-width:4; stroke-opacity:1; fill:none" points="148.057,250.368 166.954,250.368 "/>
<path clip-path="url(#clip520)" d="M50.9921 1414.56 L80.6679 1414.56 L80.6679 1418.49 L50.9921 1418.49 L50.9921 1414.56 Z" fill="#000000" fill-rule="nonzero" fill-opacity="1" /><path clip-path="url(#clip520)" d="M104.927 1412.75 Q108.283 1413.47 110.158 1415.74 Q112.057 1418.01 112.057 1421.34 Q112.057 1426.46 108.538 1429.26 Q105.02 1432.06 98.5382 1432.06 Q96.3623 1432.06 94.0475 1431.62 Q91.7558 1431.2 89.3021 1430.34 L89.3021 1425.83 Q91.2465 1426.96 93.5613 1427.54 Q95.8761 1428.12 98.3993 1428.12 Q102.797 1428.12 105.089 1426.39 Q107.404 1424.65 107.404 1421.34 Q107.404 1418.28 105.251 1416.57 Q103.121 1414.83 99.3021 1414.83 L95.2743 1414.83 L95.2743 1410.99 L99.4872 1410.99 Q102.936 1410.99 104.765 1409.63 Q106.594 1408.24 106.594 1405.65 Q106.594 1402.98 104.696 1401.57 Q102.821 1400.14 99.3021 1400.14 Q97.3808 1400.14 95.1817 1400.55 Q92.9826 1400.97 90.3438 1401.85 L90.3438 1397.68 Q93.0058 1396.94 95.3206 1396.57 Q97.6585 1396.2 99.7187 1396.2 Q105.043 1396.2 108.145 1398.63 Q111.246 1401.04 111.246 1405.16 Q111.246 1408.03 109.603 1410.02 Q107.959 1411.99 104.927 1412.75 Z" fill="#000000" fill-rule="nonzero" fill-opacity="1" /><path clip-path="url(#clip520)" d="M51.9412 1123.62 L81.617 1123.62 L81.617 1127.56 L51.9412 1127.56 L51.9412 1123.62 Z" fill="#000000" fill-rule="nonzero" fill-opacity="1" /><path clip-path="url(#clip520)" d="M95.7373 1136.52 L112.057 1136.52 L112.057 1140.45 L90.1123 1140.45 L90.1123 1136.52 Q92.7743 1133.76 97.3576 1129.13 Q101.964 1124.48 103.145 1123.14 Q105.39 1120.61 106.27 1118.88 Q107.172 1117.12 107.172 1115.43 Q107.172 1112.67 105.228 1110.94 Q103.307 1109.2 100.205 1109.2 Q98.0058 1109.2 95.5521 1109.97 Q93.1215 1110.73 90.3438 1112.28 L90.3438 1107.56 Q93.1678 1106.42 95.6215 1105.84 Q98.0752 1105.27 100.112 1105.27 Q105.483 1105.27 108.677 1107.95 Q111.871 1110.64 111.871 1115.13 Q111.871 1117.26 111.061 1119.18 Q110.274 1121.08 108.168 1123.67 Q107.589 1124.34 104.487 1127.56 Q101.385 1130.75 95.7373 1136.52 Z" fill="#000000" fill-rule="nonzero" fill-opacity="1" /><path clip-path="url(#clip520)" d="M51.5708 832.688 L81.2466 832.688 L81.2466 836.623 L51.5708 836.623 L51.5708 832.688 Z" fill="#000000" fill-rule="nonzero" fill-opacity="1" /><path clip-path="url(#clip520)" d="M92.1493 845.581 L99.7882 845.581 L99.7882 819.216 L91.478 820.883 L91.478 816.623 L99.7419 814.957 L104.418 814.957 L104.418 845.581 L112.057 845.581 L112.057 849.517 L92.1493 849.517 L92.1493 845.581 Z" fill="#000000" fill-rule="nonzero" fill-opacity="1" /><path clip-path="url(#clip520)" d="M100.112 527.101 Q96.5011 527.101 94.6724 530.666 Q92.8669 534.207 92.8669 541.337 Q92.8669 548.443 94.6724 552.008 Q96.5011 555.55 100.112 555.55 Q103.746 555.55 105.552 552.008 Q107.381 548.443 107.381 541.337 Q107.381 534.207 105.552 530.666 Q103.746 527.101 100.112 527.101 M100.112 523.397 Q105.922 523.397 108.978 528.004 Q112.057 532.587 112.057 541.337 Q112.057 550.064 108.978 554.67 Q105.922 559.253 100.112 559.253 Q94.3021 559.253 91.2234 554.67 Q88.1679 550.064 88.1679 541.337 Q88.1679 532.587 91.2234 528.004 Q94.3021 523.397 100.112 523.397 Z" fill="#000000" fill-rule="nonzero" fill-opacity="1" /><path clip-path="url(#clip520)" d="M92.1493 263.712 L99.7882 263.712 L99.7882 237.347 L91.478 239.013 L91.478 234.754 L99.7419 233.088 L104.418 233.088 L104.418 263.712 L112.057 263.712 L112.057 267.648 L92.1493 267.648 L92.1493 263.712 Z" fill="#000000" fill-rule="nonzero" fill-opacity="1" /><circle clip-path="url(#clip522)" cx="1328.57" cy="120.255" r="14.4" fill="#009af9" fill-rule="evenodd" fill-opacity="0.5" stroke="#000000" stroke-opacity="0.5" stroke-width="3.2"/>
<circle clip-path="url(#clip522)" cx="1397.81" cy="513.94" r="14.4" fill="#009af9" fill-rule="evenodd" fill-opacity="0.5" stroke="#000000" stroke-opacity="0.5" stroke-width="3.2"/>
<circle clip-path="url(#clip522)" cx="1739.53" cy="613.905" r="14.4" fill="#009af9" fill-rule="evenodd" fill-opacity="0.5" stroke="#000000" stroke-opacity="0.5" stroke-width="3.2"/>
<circle clip-path="url(#clip522)" cx="777.663" cy="533.584" r="14.4" fill="#009af9" fill-rule="evenodd" fill-opacity="0.5" stroke="#000000" stroke-opacity="0.5" stroke-width="3.2"/>
<circle clip-path="url(#clip522)" cx="2251.96" cy="617.405" r="14.4" fill="#009af9" fill-rule="evenodd" fill-opacity="0.5" stroke="#000000" stroke-opacity="0.5" stroke-width="3.2"/>
<circle clip-path="url(#clip522)" cx="1639.54" cy="211.786" r="14.4" fill="#009af9" fill-rule="evenodd" fill-opacity="0.5" stroke="#000000" stroke-opacity="0.5" stroke-width="3.2"/>
<circle clip-path="url(#clip522)" cx="554.919" cy="824.571" r="14.4" fill="#009af9" fill-rule="evenodd" fill-opacity="0.5" stroke="#000000" stroke-opacity="0.5" stroke-width="3.2"/>
<circle clip-path="url(#clip522)" cx="1490.93" cy="169.039" r="14.4" fill="#009af9" fill-rule="evenodd" fill-opacity="0.5" stroke="#000000" stroke-opacity="0.5" stroke-width="3.2"/>
<circle clip-path="url(#clip522)" cx="1987.61" cy="849.628" r="14.4" fill="#009af9" fill-rule="evenodd" fill-opacity="0.5" stroke="#000000" stroke-opacity="0.5" stroke-width="3.2"/>
<circle clip-path="url(#clip522)" cx="1859.67" cy="439.814" r="14.4" fill="#009af9" fill-rule="evenodd" fill-opacity="0.5" stroke="#000000" stroke-opacity="0.5" stroke-width="3.2"/>
<circle clip-path="url(#clip522)" cx="1879.93" cy="369.343" r="14.4" fill="#009af9" fill-rule="evenodd" fill-opacity="0.5" stroke="#000000" stroke-opacity="0.5" stroke-width="3.2"/>
<circle clip-path="url(#clip522)" cx="986.28" cy="944.711" r="14.4" fill="#009af9" fill-rule="evenodd" fill-opacity="0.5" stroke="#000000" stroke-opacity="0.5" stroke-width="3.2"/>
<circle clip-path="url(#clip522)" cx="1053.25" cy="355.719" r="14.4" fill="#009af9" fill-rule="evenodd" fill-opacity="0.5" stroke="#000000" stroke-opacity="0.5" stroke-width="3.2"/>
<circle clip-path="url(#clip522)" cx="1942.75" cy="888.187" r="14.4" fill="#009af9" fill-rule="evenodd" fill-opacity="0.5" stroke="#000000" stroke-opacity="0.5" stroke-width="3.2"/>
<circle clip-path="url(#clip522)" cx="1972.78" cy="427.888" r="14.4" fill="#009af9" fill-rule="evenodd" fill-opacity="0.5" stroke="#000000" stroke-opacity="0.5" stroke-width="3.2"/>
<circle clip-path="url(#clip522)" cx="923.839" cy="505.896" r="14.4" fill="#009af9" fill-rule="evenodd" fill-opacity="0.5" stroke="#000000" stroke-opacity="0.5" stroke-width="3.2"/>
<circle clip-path="url(#clip522)" cx="2290.36" cy="191.356" r="14.4" fill="#009af9" fill-rule="evenodd" fill-opacity="0.5" stroke="#000000" stroke-opacity="0.5" stroke-width="3.2"/>
<circle clip-path="url(#clip522)" cx="1814.52" cy="313.216" r="14.4" fill="#009af9" fill-rule="evenodd" fill-opacity="0.5" stroke="#000000" stroke-opacity="0.5" stroke-width="3.2"/>
<circle clip-path="url(#clip522)" cx="1563.22" cy="266.762" r="14.4" fill="#009af9" fill-rule="evenodd" fill-opacity="0.5" stroke="#000000" stroke-opacity="0.5" stroke-width="3.2"/>
<circle clip-path="url(#clip522)" cx="210.454" cy="723.175" r="14.4" fill="#009af9" fill-rule="evenodd" fill-opacity="0.5" stroke="#000000" stroke-opacity="0.5" stroke-width="3.2"/>
<circle clip-path="url(#clip522)" cx="1853.77" cy="743.69" r="14.4" fill="#009af9" fill-rule="evenodd" fill-opacity="0.5" stroke="#000000" stroke-opacity="0.5" stroke-width="3.2"/>
<circle clip-path="url(#clip522)" cx="1021.67" cy="612.16" r="14.4" fill="#009af9" fill-rule="evenodd" fill-opacity="0.5" stroke="#000000" stroke-opacity="0.5" stroke-width="3.2"/>
<circle clip-path="url(#clip522)" cx="868.607" cy="553.216" r="14.4" fill="#009af9" fill-rule="evenodd" fill-opacity="0.5" stroke="#000000" stroke-opacity="0.5" stroke-width="3.2"/>
<circle clip-path="url(#clip522)" cx="1024.03" cy="336.051" r="14.4" fill="#009af9" fill-rule="evenodd" fill-opacity="0.5" stroke="#000000" stroke-opacity="0.5" stroke-width="3.2"/>
<circle clip-path="url(#clip522)" cx="1929.17" cy="1005.14" r="14.4" fill="#009af9" fill-rule="evenodd" fill-opacity="0.5" stroke="#000000" stroke-opacity="0.5" stroke-width="3.2"/>
<circle clip-path="url(#clip522)" cx="1082.35" cy="577.573" r="14.4" fill="#009af9" fill-rule="evenodd" fill-opacity="0.5" stroke="#000000" stroke-opacity="0.5" stroke-width="3.2"/>
<circle clip-path="url(#clip522)" cx="1422.86" cy="242.947" r="14.4" fill="#009af9" fill-rule="evenodd" fill-opacity="0.5" stroke="#000000" stroke-opacity="0.5" stroke-width="3.2"/>
<circle clip-path="url(#clip522)" cx="900.275" cy="87.9763" r="14.4" fill="#009af9" fill-rule="evenodd" fill-opacity="0.5" stroke="#000000" stroke-opacity="0.5" stroke-width="3.2"/>
<circle clip-path="url(#clip522)" cx="1572.85" cy="1043.26" r="14.4" fill="#009af9" fill-rule="evenodd" fill-opacity="0.5" stroke="#000000" stroke-opacity="0.5" stroke-width="3.2"/>
<circle clip-path="url(#clip522)" cx="1168.26" cy="1445.72" r="14.4" fill="#009af9" fill-rule="evenodd" fill-opacity="0.5" stroke="#000000" stroke-opacity="0.5" stroke-width="3.2"/>
<path clip-path="url(#clip522)" d="M210.454 723.175 L1168.26 1445.72 L1929.17 1005.14 L2251.96 617.405 L2290.36 191.356 L900.275 87.9763 L210.454 723.175 L210.454 723.175  Z" fill="#e26f46" fill-rule="evenodd" fill-opacity="0.2"/>
<polyline clip-path="url(#clip522)" style="stroke:#000000; stroke-linecap:round; stroke-linejoin:round; stroke-width:4; stroke-opacity:0.2; fill:none" points="210.454,723.175 1168.26,1445.72 1929.17,1005.14 2251.96,617.405 2290.36,191.356 900.275,87.9763 210.454,723.175 "/>
</svg>
