<?xml version="1.0" encoding="utf-8"?>
<svg xmlns="http://www.w3.org/2000/svg" xmlns:xlink="http://www.w3.org/1999/xlink" width="600" height="400" viewBox="0 0 2400 1600">
<defs>
  <clipPath id="clip310">
    <rect x="0" y="0" width="2400" height="1600"/>
  </clipPath>
</defs>
<path clip-path="url(#clip310)" d="M0 1600 L2400 1600 L2400 0 L0 0  Z" fill="#ffffff" fill-rule="evenodd" fill-opacity="1"/>
<defs>
  <clipPath id="clip311">
    <rect x="480" y="0" width="1681" height="1600"/>
  </clipPath>
</defs>
<path clip-path="url(#clip310)" d="M147.478 1486.45 L2352.76 1486.45 L2352.76 47.2441 L147.478 47.2441  Z" fill="#ffffff" fill-rule="evenodd" fill-opacity="1"/>
<defs>
  <clipPath id="clip312">
    <rect x="147" y="47" width="2206" height="1440"/>
  </clipPath>
</defs>
<polyline clip-path="url(#clip312)" style="stroke:#000000; stroke-linecap:round; stroke-linejoin:round; stroke-width:2; stroke-opacity:0.1; fill:none" points="529.239,1486.45 529.239,47.2441 "/>
<polyline clip-path="url(#clip312)" style="stroke:#000000; stroke-linecap:round; stroke-linejoin:round; stroke-width:2; stroke-opacity:0.1; fill:none" points="1088.1,1486.45 1088.1,47.2441 "/>
<polyline clip-path="url(#clip312)" style="stroke:#000000; stroke-linecap:round; stroke-linejoin:round; stroke-width:2; stroke-opacity:0.1; fill:none" points="1646.96,1486.45 1646.96,47.2441 "/>
<polyline clip-path="url(#clip312)" style="stroke:#000000; stroke-linecap:round; stroke-linejoin:round; stroke-width:2; stroke-opacity:0.1; fill:none" points="2205.82,1486.45 2205.82,47.2441 "/>
<polyline clip-path="url(#clip312)" style="stroke:#000000; stroke-linecap:round; stroke-linejoin:round; stroke-width:2; stroke-opacity:0.1; fill:none" points="147.478,1455.56 2352.76,1455.56 "/>
<polyline clip-path="url(#clip312)" style="stroke:#000000; stroke-linecap:round; stroke-linejoin:round; stroke-width:2; stroke-opacity:0.1; fill:none" points="147.478,1080.8 2352.76,1080.8 "/>
<polyline clip-path="url(#clip312)" style="stroke:#000000; stroke-linecap:round; stroke-linejoin:round; stroke-width:2; stroke-opacity:0.1; fill:none" points="147.478,706.029 2352.76,706.029 "/>
<polyline clip-path="url(#clip312)" style="stroke:#000000; stroke-linecap:round; stroke-linejoin:round; stroke-width:2; stroke-opacity:0.1; fill:none" points="147.478,331.263 2352.76,331.263 "/>
<polyline clip-path="url(#clip310)" style="stroke:#000000; stroke-linecap:round; stroke-linejoin:round; stroke-width:4; stroke-opacity:1; fill:none" points="147.478,1486.45 2352.76,1486.45 "/>
<polyline clip-path="url(#clip310)" style="stroke:#000000; stroke-linecap:round; stroke-linejoin:round; stroke-width:4; stroke-opacity:1; fill:none" points="529.239,1486.45 529.239,1467.55 "/>
<polyline clip-path="url(#clip310)" style="stroke:#000000; stroke-linecap:round; stroke-linejoin:round; stroke-width:4; stroke-opacity:1; fill:none" points="1088.1,1486.45 1088.1,1467.55 "/>
<polyline clip-path="url(#clip310)" style="stroke:#000000; stroke-linecap:round; stroke-linejoin:round; stroke-width:4; stroke-opacity:1; fill:none" points="1646.96,1486.45 1646.96,1467.55 "/>
<polyline clip-path="url(#clip310)" style="stroke:#000000; stroke-linecap:round; stroke-linejoin:round; stroke-width:4; stroke-opacity:1; fill:none" points="2205.82,1486.45 2205.82,1467.55 "/>
<path clip-path="url(#clip310)" d="M498.996 1532.02 L528.672 1532.02 L528.672 1535.95 L498.996 1535.95 L498.996 1532.02 Z" fill="#000000" fill-rule="nonzero" fill-opacity="1" /><path clip-path="url(#clip310)" d="M539.575 1544.91 L547.214 1544.91 L547.214 1518.55 L538.904 1520.21 L538.904 1515.95 L547.167 1514.29 L551.843 1514.29 L551.843 1544.91 L559.482 1544.91 L559.482 1548.85 L539.575 1548.85 L539.575 1544.91 Z" fill="#000000" fill-rule="nonzero" fill-opacity="1" /><path clip-path="url(#clip310)" d="M1088.1 1517.37 Q1084.49 1517.37 1082.66 1520.93 Q1080.85 1524.47 1080.85 1531.6 Q1080.85 1538.71 1082.66 1542.27 Q1084.49 1545.82 1088.1 1545.82 Q1091.73 1545.82 1093.54 1542.27 Q1095.37 1538.71 1095.37 1531.6 Q1095.37 1524.47 1093.54 1520.93 Q1091.73 1517.37 1088.1 1517.37 M1088.1 1513.66 Q1093.91 1513.66 1096.97 1518.27 Q1100.04 1522.85 1100.04 1531.6 Q1100.04 1540.33 1096.97 1544.94 Q1093.91 1549.52 1088.1 1549.52 Q1082.29 1549.52 1079.21 1544.94 Q1076.16 1540.33 1076.16 1531.6 Q1076.16 1522.85 1079.21 1518.27 Q1082.29 1513.66 1088.1 1513.66 Z" fill="#000000" fill-rule="nonzero" fill-opacity="1" /><path clip-path="url(#clip310)" d="M1637.34 1544.91 L1644.98 1544.91 L1644.98 1518.55 L1636.67 1520.21 L1636.67 1515.95 L1644.94 1514.29 L1649.61 1514.29 L1649.61 1544.91 L1657.25 1544.91 L1657.25 1548.85 L1637.34 1548.85 L1637.34 1544.91 Z" fill="#000000" fill-rule="nonzero" fill-opacity="1" /><path clip-path="url(#clip310)" d="M2200.47 1544.91 L2216.79 1544.91 L2216.79 1548.85 L2194.85 1548.85 L2194.85 1544.91 Q2197.51 1542.16 2202.09 1537.53 Q2206.7 1532.88 2207.88 1531.53 Q2210.13 1529.01 2211.01 1527.27 Q2211.91 1525.51 2211.91 1523.82 Q2211.91 1521.07 2209.97 1519.33 Q2208.04 1517.6 2204.94 1517.6 Q2202.74 1517.6 2200.29 1518.36 Q2197.86 1519.13 2195.08 1520.68 L2195.08 1515.95 Q2197.9 1514.82 2200.36 1514.24 Q2202.81 1513.66 2204.85 1513.66 Q2210.22 1513.66 2213.41 1516.35 Q2216.61 1519.03 2216.61 1523.52 Q2216.61 1525.65 2215.8 1527.57 Q2215.01 1529.47 2212.9 1532.07 Q2212.33 1532.74 2209.22 1535.95 Q2206.12 1539.15 2200.47 1544.91 Z" fill="#000000" fill-rule="nonzero" fill-opacity="1" /><polyline clip-path="url(#clip310)" style="stroke:#000000; stroke-linecap:round; stroke-linejoin:round; stroke-width:4; stroke-opacity:1; fill:none" points="147.478,1486.45 147.478,47.2441 "/>
<polyline clip-path="url(#clip310)" style="stroke:#000000; stroke-linecap:round; stroke-linejoin:round; stroke-width:4; stroke-opacity:1; fill:none" points="147.478,1455.56 166.376,1455.56 "/>
<polyline clip-path="url(#clip310)" style="stroke:#000000; stroke-linecap:round; stroke-linejoin:round; stroke-width:4; stroke-opacity:1; fill:none" points="147.478,1080.8 166.376,1080.8 "/>
<polyline clip-path="url(#clip310)" style="stroke:#000000; stroke-linecap:round; stroke-linejoin:round; stroke-width:4; stroke-opacity:1; fill:none" points="147.478,706.029 166.376,706.029 "/>
<polyline clip-path="url(#clip310)" style="stroke:#000000; stroke-linecap:round; stroke-linejoin:round; stroke-width:4; stroke-opacity:1; fill:none" points="147.478,331.263 166.376,331.263 "/>
<path clip-path="url(#clip310)" d="M51.3625 1456.01 L81.0383 1456.01 L81.0383 1459.95 L51.3625 1459.95 L51.3625 1456.01 Z" fill="#000000" fill-rule="nonzero" fill-opacity="1" /><path clip-path="url(#clip310)" d="M95.1586 1468.91 L111.478 1468.91 L111.478 1472.84 L89.5336 1472.84 L89.5336 1468.91 Q92.1956 1466.15 96.7789 1461.52 Q101.385 1456.87 102.566 1455.53 Q104.811 1453 105.691 1451.27 Q106.594 1449.51 106.594 1447.82 Q106.594 1445.06 104.649 1443.33 Q102.728 1441.59 99.6261 1441.59 Q97.4271 1441.59 94.9734 1442.36 Q92.5428 1443.12 89.7651 1444.67 L89.7651 1439.95 Q92.5891 1438.81 95.0428 1438.24 Q97.4965 1437.66 99.5335 1437.66 Q104.904 1437.66 108.098 1440.34 Q111.293 1443.03 111.293 1447.52 Q111.293 1449.65 110.483 1451.57 Q109.696 1453.47 107.589 1456.06 Q107.01 1456.73 103.909 1459.95 Q100.807 1463.14 95.1586 1468.91 Z" fill="#000000" fill-rule="nonzero" fill-opacity="1" /><path clip-path="url(#clip310)" d="M50.9921 1081.25 L80.6679 1081.25 L80.6679 1085.18 L50.9921 1085.18 L50.9921 1081.25 Z" fill="#000000" fill-rule="nonzero" fill-opacity="1" /><path clip-path="url(#clip310)" d="M91.5706 1094.14 L99.2095 1094.14 L99.2095 1067.77 L90.8993 1069.44 L90.8993 1065.18 L99.1632 1063.52 L103.839 1063.52 L103.839 1094.14 L111.478 1094.14 L111.478 1098.08 L91.5706 1098.08 L91.5706 1094.14 Z" fill="#000000" fill-rule="nonzero" fill-opacity="1" /><path clip-path="url(#clip310)" d="M99.5335 691.828 Q95.9224 691.828 94.0937 695.392 Q92.2882 698.934 92.2882 706.064 Q92.2882 713.17 94.0937 716.735 Q95.9224 720.277 99.5335 720.277 Q103.168 720.277 104.973 716.735 Q106.802 713.17 106.802 706.064 Q106.802 698.934 104.973 695.392 Q103.168 691.828 99.5335 691.828 M99.5335 688.124 Q105.344 688.124 108.399 692.73 Q111.478 697.314 111.478 706.064 Q111.478 714.79 108.399 719.397 Q105.344 723.98 99.5335 723.98 Q93.7234 723.98 90.6447 719.397 Q87.5892 714.79 87.5892 706.064 Q87.5892 697.314 90.6447 692.73 Q93.7234 688.124 99.5335 688.124 Z" fill="#000000" fill-rule="nonzero" fill-opacity="1" /><path clip-path="url(#clip310)" d="M91.5706 344.607 L99.2095 344.607 L99.2095 318.242 L90.8993 319.908 L90.8993 315.649 L99.1632 313.983 L103.839 313.983 L103.839 344.607 L111.478 344.607 L111.478 348.543 L91.5706 348.543 L91.5706 344.607 Z" fill="#000000" fill-rule="nonzero" fill-opacity="1" /><circle clip-path="url(#clip312)" cx="328.075" cy="1445.72" r="14.4" fill="#009af9" fill-rule="evenodd" fill-opacity="0.5" stroke="#000000" stroke-opacity="0.5" stroke-width="3.2"/>
<circle clip-path="url(#clip312)" cx="873.462" cy="1002.06" r="14.4" fill="#009af9" fill-rule="evenodd" fill-opacity="0.5" stroke="#000000" stroke-opacity="0.5" stroke-width="3.2"/>
<circle clip-path="url(#clip312)" cx="232.901" cy="393.992" r="14.4" fill="#009af9" fill-rule="evenodd" fill-opacity="0.5" stroke="#000000" stroke-opacity="0.5" stroke-width="3.2"/>
<circle clip-path="url(#clip312)" cx="1871.76" cy="425.255" r="14.4" fill="#009af9" fill-rule="evenodd" fill-opacity="0.5" stroke="#000000" stroke-opacity="0.5" stroke-width="3.2"/>
<circle clip-path="url(#clip312)" cx="336.626" cy="898.774" r="14.4" fill="#009af9" fill-rule="evenodd" fill-opacity="0.5" stroke="#000000" stroke-opacity="0.5" stroke-width="3.2"/>
<circle clip-path="url(#clip312)" cx="994.16" cy="640.723" r="14.4" fill="#009af9" fill-rule="evenodd" fill-opacity="0.5" stroke="#000000" stroke-opacity="0.5" stroke-width="3.2"/>
<circle clip-path="url(#clip312)" cx="1568.31" cy="800.52" r="14.4" fill="#009af9" fill-rule="evenodd" fill-opacity="0.5" stroke="#000000" stroke-opacity="0.5" stroke-width="3.2"/>
<circle clip-path="url(#clip312)" cx="916.727" cy="87.9763" r="14.4" fill="#009af9" fill-rule="evenodd" fill-opacity="0.5" stroke="#000000" stroke-opacity="0.5" stroke-width="3.2"/>
<circle clip-path="url(#clip312)" cx="209.891" cy="235.784" r="14.4" fill="#009af9" fill-rule="evenodd" fill-opacity="0.5" stroke="#000000" stroke-opacity="0.5" stroke-width="3.2"/>
<circle clip-path="url(#clip312)" cx="1769.52" cy="596.208" r="14.4" fill="#009af9" fill-rule="evenodd" fill-opacity="0.5" stroke="#000000" stroke-opacity="0.5" stroke-width="3.2"/>
<circle clip-path="url(#clip312)" cx="2290.34" cy="597.655" r="14.4" fill="#009af9" fill-rule="evenodd" fill-opacity="0.5" stroke="#000000" stroke-opacity="0.5" stroke-width="3.2"/>
<circle clip-path="url(#clip312)" cx="1171.26" cy="403.913" r="14.4" fill="#009af9" fill-rule="evenodd" fill-opacity="0.5" stroke="#000000" stroke-opacity="0.5" stroke-width="3.2"/>
<circle clip-path="url(#clip312)" cx="514.617" cy="727.908" r="14.4" fill="#009af9" fill-rule="evenodd" fill-opacity="0.5" stroke="#000000" stroke-opacity="0.5" stroke-width="3.2"/>
<circle clip-path="url(#clip312)" cx="1061.31" cy="331.499" r="14.4" fill="#009af9" fill-rule="evenodd" fill-opacity="0.5" stroke="#000000" stroke-opacity="0.5" stroke-width="3.2"/>
<circle clip-path="url(#clip312)" cx="1133.69" cy="247.89" r="14.4" fill="#009af9" fill-rule="evenodd" fill-opacity="0.5" stroke="#000000" stroke-opacity="0.5" stroke-width="3.2"/>
<circle clip-path="url(#clip312)" cx="755.324" cy="1103.87" r="14.4" fill="#009af9" fill-rule="evenodd" fill-opacity="0.5" stroke="#000000" stroke-opacity="0.5" stroke-width="3.2"/>
<circle clip-path="url(#clip312)" cx="733.779" cy="398.376" r="14.4" fill="#009af9" fill-rule="evenodd" fill-opacity="0.5" stroke="#000000" stroke-opacity="0.5" stroke-width="3.2"/>
<circle clip-path="url(#clip312)" cx="2028.88" cy="763.31" r="14.4" fill="#009af9" fill-rule="evenodd" fill-opacity="0.5" stroke="#000000" stroke-opacity="0.5" stroke-width="3.2"/>
<circle clip-path="url(#clip312)" cx="1342.01" cy="495.694" r="14.4" fill="#009af9" fill-rule="evenodd" fill-opacity="0.5" stroke="#000000" stroke-opacity="0.5" stroke-width="3.2"/>
<circle clip-path="url(#clip312)" cx="966.806" cy="943.998" r="14.4" fill="#009af9" fill-rule="evenodd" fill-opacity="0.5" stroke="#000000" stroke-opacity="0.5" stroke-width="3.2"/>
<circle clip-path="url(#clip312)" cx="2029.12" cy="451.937" r="14.4" fill="#009af9" fill-rule="evenodd" fill-opacity="0.5" stroke="#000000" stroke-opacity="0.5" stroke-width="3.2"/>
<circle clip-path="url(#clip312)" cx="509.512" cy="778.436" r="14.4" fill="#009af9" fill-rule="evenodd" fill-opacity="0.5" stroke="#000000" stroke-opacity="0.5" stroke-width="3.2"/>
<circle clip-path="url(#clip312)" cx="427.967" cy="770.789" r="14.4" fill="#009af9" fill-rule="evenodd" fill-opacity="0.5" stroke="#000000" stroke-opacity="0.5" stroke-width="3.2"/>
<circle clip-path="url(#clip312)" cx="1099.8" cy="234.972" r="14.4" fill="#009af9" fill-rule="evenodd" fill-opacity="0.5" stroke="#000000" stroke-opacity="0.5" stroke-width="3.2"/>
<circle clip-path="url(#clip312)" cx="1674.76" cy="839.896" r="14.4" fill="#009af9" fill-rule="evenodd" fill-opacity="0.5" stroke="#000000" stroke-opacity="0.5" stroke-width="3.2"/>
<circle clip-path="url(#clip312)" cx="1365.42" cy="1444.24" r="14.4" fill="#009af9" fill-rule="evenodd" fill-opacity="0.5" stroke="#000000" stroke-opacity="0.5" stroke-width="3.2"/>
<circle clip-path="url(#clip312)" cx="1568.8" cy="970.979" r="14.4" fill="#009af9" fill-rule="evenodd" fill-opacity="0.5" stroke="#000000" stroke-opacity="0.5" stroke-width="3.2"/>
<circle clip-path="url(#clip312)" cx="1703.6" cy="788.459" r="14.4" fill="#009af9" fill-rule="evenodd" fill-opacity="0.5" stroke="#000000" stroke-opacity="0.5" stroke-width="3.2"/>
<circle clip-path="url(#clip312)" cx="1108.57" cy="327.135" r="14.4" fill="#009af9" fill-rule="evenodd" fill-opacity="0.5" stroke="#000000" stroke-opacity="0.5" stroke-width="3.2"/>
<circle clip-path="url(#clip312)" cx="1499.98" cy="226.687" r="14.4" fill="#009af9" fill-rule="evenodd" fill-opacity="0.5" stroke="#000000" stroke-opacity="0.5" stroke-width="3.2"/>
<path clip-path="url(#clip312)" d="M209.891 235.784 L328.075 1445.72 L1365.42 1444.24 L2290.34 597.655 L2029.12 451.937 L1499.98 226.687 L916.727 87.9763 L209.891 235.784 L209.891 235.784  Z" fill="#e26f46" fill-rule="evenodd" fill-opacity="0.2"/>
<polyline clip-path="url(#clip312)" style="stroke:#000000; stroke-linecap:round; stroke-linejoin:round; stroke-width:4; stroke-opacity:0.2; fill:none" points="209.891,235.784 328.075,1445.72 1365.42,1444.24 2290.34,597.655 2029.12,451.937 1499.98,226.687 916.727,87.9763 209.891,235.784 "/>
</svg>
