<?xml version="1.0" encoding="utf-8"?>
<svg xmlns="http://www.w3.org/2000/svg" xmlns:xlink="http://www.w3.org/1999/xlink" width="600" height="400" viewBox="0 0 2400 1600">
<defs>
  <clipPath id="clip810">
    <rect x="0" y="0" width="2400" height="1600"/>
  </clipPath>
</defs>
<path clip-path="url(#clip810)" d="M0 1600 L2400 1600 L2400 0 L0 0  Z" fill="#ffffff" fill-rule="evenodd" fill-opacity="1"/>
<defs>
  <clipPath id="clip811">
    <rect x="480" y="0" width="1681" height="1600"/>
  </clipPath>
</defs>
<path clip-path="url(#clip810)" d="M147.478 1486.45 L2352.76 1486.45 L2352.76 47.2441 L147.478 47.2441  Z" fill="#ffffff" fill-rule="evenodd" fill-opacity="1"/>
<defs>
  <clipPath id="clip812">
    <rect x="147" y="47" width="2206" height="1440"/>
  </clipPath>
</defs>
<polyline clip-path="url(#clip812)" style="stroke:#000000; stroke-linecap:round; stroke-linejoin:round; stroke-width:2; stroke-opacity:0.1; fill:none" points="452.876,1486.45 452.876,47.2441 "/>
<polyline clip-path="url(#clip812)" style="stroke:#000000; stroke-linecap:round; stroke-linejoin:round; stroke-width:2; stroke-opacity:0.1; fill:none" points="776.943,1486.45 776.943,47.2441 "/>
<polyline clip-path="url(#clip812)" style="stroke:#000000; stroke-linecap:round; stroke-linejoin:round; stroke-width:2; stroke-opacity:0.1; fill:none" points="1101.01,1486.45 1101.01,47.2441 "/>
<polyline clip-path="url(#clip812)" style="stroke:#000000; stroke-linecap:round; stroke-linejoin:round; stroke-width:2; stroke-opacity:0.1; fill:none" points="1425.08,1486.45 1425.08,47.2441 "/>
<polyline clip-path="url(#clip812)" style="stroke:#000000; stroke-linecap:round; stroke-linejoin:round; stroke-width:2; stroke-opacity:0.1; fill:none" points="1749.14,1486.45 1749.14,47.2441 "/>
<polyline clip-path="url(#clip812)" style="stroke:#000000; stroke-linecap:round; stroke-linejoin:round; stroke-width:2; stroke-opacity:0.1; fill:none" points="2073.21,1486.45 2073.21,47.2441 "/>
<polyline clip-path="url(#clip812)" style="stroke:#000000; stroke-linecap:round; stroke-linejoin:round; stroke-width:2; stroke-opacity:0.1; fill:none" points="147.478,1133.29 2352.76,1133.29 "/>
<polyline clip-path="url(#clip812)" style="stroke:#000000; stroke-linecap:round; stroke-linejoin:round; stroke-width:2; stroke-opacity:0.1; fill:none" points="147.478,777.238 2352.76,777.238 "/>
<polyline clip-path="url(#clip812)" style="stroke:#000000; stroke-linecap:round; stroke-linejoin:round; stroke-width:2; stroke-opacity:0.1; fill:none" points="147.478,421.188 2352.76,421.188 "/>
<polyline clip-path="url(#clip812)" style="stroke:#000000; stroke-linecap:round; stroke-linejoin:round; stroke-width:2; stroke-opacity:0.1; fill:none" points="147.478,65.1369 2352.76,65.1369 "/>
<polyline clip-path="url(#clip810)" style="stroke:#000000; stroke-linecap:round; stroke-linejoin:round; stroke-width:4; stroke-opacity:1; fill:none" points="147.478,1486.45 2352.76,1486.45 "/>
<polyline clip-path="url(#clip810)" style="stroke:#000000; stroke-linecap:round; stroke-linejoin:round; stroke-width:4; stroke-opacity:1; fill:none" points="452.876,1486.45 452.876,1467.55 "/>
<polyline clip-path="url(#clip810)" style="stroke:#000000; stroke-linecap:round; stroke-linejoin:round; stroke-width:4; stroke-opacity:1; fill:none" points="776.943,1486.45 776.943,1467.55 "/>
<polyline clip-path="url(#clip810)" style="stroke:#000000; stroke-linecap:round; stroke-linejoin:round; stroke-width:4; stroke-opacity:1; fill:none" points="1101.01,1486.45 1101.01,1467.55 "/>
<polyline clip-path="url(#clip810)" style="stroke:#000000; stroke-linecap:round; stroke-linejoin:round; stroke-width:4; stroke-opacity:1; fill:none" points="1425.08,1486.45 1425.08,1467.55 "/>
<polyline clip-path="url(#clip810)" style="stroke:#000000; stroke-linecap:round; stroke-linejoin:round; stroke-width:4; stroke-opacity:1; fill:none" points="1749.14,1486.45 1749.14,1467.55 "/>
<polyline clip-path="url(#clip810)" style="stroke:#000000; stroke-linecap:round; stroke-linejoin:round; stroke-width:4; stroke-opacity:1; fill:none" points="2073.21,1486.45 2073.21,1467.55 "/>
<path clip-path="url(#clip810)" d="M399.902 1532.02 L429.578 1532.02 L429.578 1535.95 L399.902 1535.95 L399.902 1532.02 Z" fill="#000000" fill-rule="nonzero" fill-opacity="1" /><path clip-path="url(#clip810)" d="M440.48 1544.91 L448.119 1544.91 L448.119 1518.55 L439.809 1520.21 L439.809 1515.95 L448.073 1514.29 L452.749 1514.29 L452.749 1544.91 L460.388 1544.91 L460.388 1548.85 L440.48 1548.85 L440.48 1544.91 Z" fill="#000000" fill-rule="nonzero" fill-opacity="1" /><path clip-path="url(#clip810)" d="M469.832 1542.97 L474.716 1542.97 L474.716 1548.85 L469.832 1548.85 L469.832 1542.97 Z" fill="#000000" fill-rule="nonzero" fill-opacity="1" /><path clip-path="url(#clip810)" d="M484.948 1514.29 L503.304 1514.29 L503.304 1518.22 L489.23 1518.22 L489.23 1526.7 Q490.249 1526.35 491.267 1526.19 Q492.286 1526 493.304 1526 Q499.091 1526 502.471 1529.17 Q505.85 1532.34 505.85 1537.76 Q505.85 1543.34 502.378 1546.44 Q498.906 1549.52 492.586 1549.52 Q490.411 1549.52 488.142 1549.15 Q485.897 1548.78 483.489 1548.04 L483.489 1543.34 Q485.573 1544.47 487.795 1545.03 Q490.017 1545.58 492.494 1545.58 Q496.498 1545.58 498.836 1543.48 Q501.174 1541.37 501.174 1537.76 Q501.174 1534.15 498.836 1532.04 Q496.498 1529.94 492.494 1529.94 Q490.619 1529.94 488.744 1530.35 Q486.892 1530.77 484.948 1531.65 L484.948 1514.29 Z" fill="#000000" fill-rule="nonzero" fill-opacity="1" /><path clip-path="url(#clip810)" d="M723.471 1532.02 L753.146 1532.02 L753.146 1535.95 L723.471 1535.95 L723.471 1532.02 Z" fill="#000000" fill-rule="nonzero" fill-opacity="1" /><path clip-path="url(#clip810)" d="M764.049 1544.91 L771.688 1544.91 L771.688 1518.55 L763.378 1520.21 L763.378 1515.95 L771.642 1514.29 L776.318 1514.29 L776.318 1544.91 L783.957 1544.91 L783.957 1548.85 L764.049 1548.85 L764.049 1544.91 Z" fill="#000000" fill-rule="nonzero" fill-opacity="1" /><path clip-path="url(#clip810)" d="M793.401 1542.97 L798.285 1542.97 L798.285 1548.85 L793.401 1548.85 L793.401 1542.97 Z" fill="#000000" fill-rule="nonzero" fill-opacity="1" /><path clip-path="url(#clip810)" d="M818.47 1517.37 Q814.859 1517.37 813.03 1520.93 Q811.225 1524.47 811.225 1531.6 Q811.225 1538.71 813.03 1542.27 Q814.859 1545.82 818.47 1545.82 Q822.104 1545.82 823.91 1542.27 Q825.739 1538.71 825.739 1531.6 Q825.739 1524.47 823.91 1520.93 Q822.104 1517.37 818.47 1517.37 M818.47 1513.66 Q824.28 1513.66 827.336 1518.27 Q830.415 1522.85 830.415 1531.6 Q830.415 1540.33 827.336 1544.94 Q824.28 1549.52 818.47 1549.52 Q812.66 1549.52 809.581 1544.94 Q806.526 1540.33 806.526 1531.6 Q806.526 1522.85 809.581 1518.27 Q812.66 1513.66 818.47 1513.66 Z" fill="#000000" fill-rule="nonzero" fill-opacity="1" /><path clip-path="url(#clip810)" d="M1048.04 1532.02 L1077.71 1532.02 L1077.71 1535.95 L1048.04 1535.95 L1048.04 1532.02 Z" fill="#000000" fill-rule="nonzero" fill-opacity="1" /><path clip-path="url(#clip810)" d="M1097.8 1517.37 Q1094.19 1517.37 1092.36 1520.93 Q1090.56 1524.47 1090.56 1531.6 Q1090.56 1538.71 1092.36 1542.27 Q1094.19 1545.82 1097.8 1545.82 Q1101.44 1545.82 1103.24 1542.27 Q1105.07 1538.71 1105.07 1531.6 Q1105.07 1524.47 1103.24 1520.93 Q1101.44 1517.37 1097.8 1517.37 M1097.8 1513.66 Q1103.61 1513.66 1106.67 1518.27 Q1109.75 1522.85 1109.75 1531.6 Q1109.75 1540.33 1106.67 1544.94 Q1103.61 1549.52 1097.8 1549.52 Q1091.99 1549.52 1088.91 1544.94 Q1085.86 1540.33 1085.86 1531.6 Q1085.86 1522.85 1088.91 1518.27 Q1091.99 1513.66 1097.8 1513.66 Z" fill="#000000" fill-rule="nonzero" fill-opacity="1" /><path clip-path="url(#clip810)" d="M1117.97 1542.97 L1122.85 1542.97 L1122.85 1548.85 L1117.97 1548.85 L1117.97 1542.97 Z" fill="#000000" fill-rule="nonzero" fill-opacity="1" /><path clip-path="url(#clip810)" d="M1133.08 1514.29 L1151.44 1514.29 L1151.44 1518.22 L1137.36 1518.22 L1137.36 1526.7 Q1138.38 1526.35 1139.4 1526.19 Q1140.42 1526 1141.44 1526 Q1147.22 1526 1150.6 1529.17 Q1153.98 1532.34 1153.98 1537.76 Q1153.98 1543.34 1150.51 1546.44 Q1147.04 1549.52 1140.72 1549.52 Q1138.54 1549.52 1136.28 1549.15 Q1134.03 1548.78 1131.62 1548.04 L1131.62 1543.34 Q1133.71 1544.47 1135.93 1545.03 Q1138.15 1545.58 1140.63 1545.58 Q1144.63 1545.58 1146.97 1543.48 Q1149.31 1541.37 1149.31 1537.76 Q1149.31 1534.15 1146.97 1532.04 Q1144.63 1529.94 1140.63 1529.94 Q1138.75 1529.94 1136.88 1530.35 Q1135.03 1530.77 1133.08 1531.65 L1133.08 1514.29 Z" fill="#000000" fill-rule="nonzero" fill-opacity="1" /><path clip-path="url(#clip810)" d="M1402.46 1517.37 Q1398.85 1517.37 1397.02 1520.93 Q1395.21 1524.47 1395.21 1531.6 Q1395.21 1538.71 1397.02 1542.27 Q1398.85 1545.82 1402.46 1545.82 Q1406.09 1545.82 1407.9 1542.27 Q1409.73 1538.71 1409.73 1531.6 Q1409.73 1524.47 1407.9 1520.93 Q1406.09 1517.37 1402.46 1517.37 M1402.46 1513.66 Q1408.27 1513.66 1411.33 1518.27 Q1414.4 1522.85 1414.4 1531.6 Q1414.4 1540.33 1411.33 1544.94 Q1408.27 1549.52 1402.46 1549.52 Q1396.65 1549.52 1393.57 1544.94 Q1390.52 1540.33 1390.52 1531.6 Q1390.52 1522.85 1393.57 1518.27 Q1396.65 1513.66 1402.46 1513.66 Z" fill="#000000" fill-rule="nonzero" fill-opacity="1" /><path clip-path="url(#clip810)" d="M1422.62 1542.97 L1427.51 1542.97 L1427.51 1548.85 L1422.62 1548.85 L1422.62 1542.97 Z" fill="#000000" fill-rule="nonzero" fill-opacity="1" /><path clip-path="url(#clip810)" d="M1447.69 1517.37 Q1444.08 1517.37 1442.25 1520.93 Q1440.45 1524.47 1440.45 1531.6 Q1440.45 1538.71 1442.25 1542.27 Q1444.08 1545.82 1447.69 1545.82 Q1451.33 1545.82 1453.13 1542.27 Q1454.96 1538.71 1454.96 1531.6 Q1454.96 1524.47 1453.13 1520.93 Q1451.33 1517.37 1447.69 1517.37 M1447.69 1513.66 Q1453.5 1513.66 1456.56 1518.27 Q1459.64 1522.85 1459.64 1531.6 Q1459.64 1540.33 1456.56 1544.94 Q1453.5 1549.52 1447.69 1549.52 Q1441.88 1549.52 1438.8 1544.94 Q1435.75 1540.33 1435.75 1531.6 Q1435.75 1522.85 1438.8 1518.27 Q1441.88 1513.66 1447.69 1513.66 Z" fill="#000000" fill-rule="nonzero" fill-opacity="1" /><path clip-path="url(#clip810)" d="M1727.02 1517.37 Q1723.41 1517.37 1721.58 1520.93 Q1719.78 1524.47 1719.78 1531.6 Q1719.78 1538.71 1721.58 1542.27 Q1723.41 1545.82 1727.02 1545.82 Q1730.66 1545.82 1732.46 1542.27 Q1734.29 1538.71 1734.29 1531.6 Q1734.29 1524.47 1732.46 1520.93 Q1730.66 1517.37 1727.02 1517.37 M1727.02 1513.66 Q1732.83 1513.66 1735.89 1518.27 Q1738.97 1522.85 1738.97 1531.6 Q1738.97 1540.33 1735.89 1544.94 Q1732.83 1549.52 1727.02 1549.52 Q1721.21 1549.52 1718.14 1544.94 Q1715.08 1540.33 1715.08 1531.6 Q1715.08 1522.85 1718.14 1518.27 Q1721.21 1513.66 1727.02 1513.66 Z" fill="#000000" fill-rule="nonzero" fill-opacity="1" /><path clip-path="url(#clip810)" d="M1747.19 1542.97 L1752.07 1542.97 L1752.07 1548.85 L1747.19 1548.85 L1747.19 1542.97 Z" fill="#000000" fill-rule="nonzero" fill-opacity="1" /><path clip-path="url(#clip810)" d="M1762.3 1514.29 L1780.66 1514.29 L1780.66 1518.22 L1766.58 1518.22 L1766.58 1526.7 Q1767.6 1526.35 1768.62 1526.19 Q1769.64 1526 1770.66 1526 Q1776.45 1526 1779.83 1529.17 Q1783.2 1532.34 1783.2 1537.76 Q1783.2 1543.34 1779.73 1546.44 Q1776.26 1549.52 1769.94 1549.52 Q1767.77 1549.52 1765.5 1549.15 Q1763.25 1548.78 1760.84 1548.04 L1760.84 1543.34 Q1762.93 1544.47 1765.15 1545.03 Q1767.37 1545.58 1769.85 1545.58 Q1773.85 1545.58 1776.19 1543.48 Q1778.53 1541.37 1778.53 1537.76 Q1778.53 1534.15 1776.19 1532.04 Q1773.85 1529.94 1769.85 1529.94 Q1767.97 1529.94 1766.1 1530.35 Q1764.25 1530.77 1762.3 1531.65 L1762.3 1514.29 Z" fill="#000000" fill-rule="nonzero" fill-opacity="1" /><path clip-path="url(#clip810)" d="M2040.36 1544.91 L2048 1544.91 L2048 1518.55 L2039.69 1520.21 L2039.69 1515.95 L2047.95 1514.29 L2052.63 1514.29 L2052.63 1544.91 L2060.27 1544.91 L2060.27 1548.85 L2040.36 1548.85 L2040.36 1544.91 Z" fill="#000000" fill-rule="nonzero" fill-opacity="1" /><path clip-path="url(#clip810)" d="M2069.71 1542.97 L2074.6 1542.97 L2074.6 1548.85 L2069.71 1548.85 L2069.71 1542.97 Z" fill="#000000" fill-rule="nonzero" fill-opacity="1" /><path clip-path="url(#clip810)" d="M2094.78 1517.37 Q2091.17 1517.37 2089.34 1520.93 Q2087.54 1524.47 2087.54 1531.6 Q2087.54 1538.71 2089.34 1542.27 Q2091.17 1545.82 2094.78 1545.82 Q2098.42 1545.82 2100.22 1542.27 Q2102.05 1538.71 2102.05 1531.6 Q2102.05 1524.47 2100.22 1520.93 Q2098.42 1517.37 2094.78 1517.37 M2094.78 1513.66 Q2100.59 1513.66 2103.65 1518.27 Q2106.73 1522.85 2106.73 1531.6 Q2106.73 1540.33 2103.65 1544.94 Q2100.59 1549.52 2094.78 1549.52 Q2088.97 1549.52 2085.89 1544.94 Q2082.84 1540.33 2082.84 1531.6 Q2082.84 1522.85 2085.89 1518.27 Q2088.97 1513.66 2094.78 1513.66 Z" fill="#000000" fill-rule="nonzero" fill-opacity="1" /><polyline clip-path="url(#clip810)" style="stroke:#000000; stroke-linecap:round; stroke-linejoin:round; stroke-width:4; stroke-opacity:1; fill:none" points="147.478,1486.45 147.478,47.2441 "/>
<polyline clip-path="url(#clip810)" style="stroke:#000000; stroke-linecap:round; stroke-linejoin:round; stroke-width:4; stroke-opacity:1; fill:none" points="147.478,1133.29 166.376,1133.29 "/>
<polyline clip-path="url(#clip810)" style="stroke:#000000; stroke-linecap:round; stroke-linejoin:round; stroke-width:4; stroke-opacity:1; fill:none" points="147.478,777.238 166.376,777.238 "/>
<polyline clip-path="url(#clip810)" style="stroke:#000000; stroke-linecap:round; stroke-linejoin:round; stroke-width:4; stroke-opacity:1; fill:none" points="147.478,421.188 166.376,421.188 "/>
<polyline clip-path="url(#clip810)" style="stroke:#000000; stroke-linecap:round; stroke-linejoin:round; stroke-width:4; stroke-opacity:1; fill:none" points="147.478,65.1369 166.376,65.1369 "/>
<path clip-path="url(#clip810)" d="M50.9921 1133.74 L80.6679 1133.74 L80.6679 1137.68 L50.9921 1137.68 L50.9921 1133.74 Z" fill="#000000" fill-rule="nonzero" fill-opacity="1" /><path clip-path="url(#clip810)" d="M91.5706 1146.63 L99.2095 1146.63 L99.2095 1120.27 L90.8993 1121.93 L90.8993 1117.68 L99.1632 1116.01 L103.839 1116.01 L103.839 1146.63 L111.478 1146.63 L111.478 1150.57 L91.5706 1150.57 L91.5706 1146.63 Z" fill="#000000" fill-rule="nonzero" fill-opacity="1" /><path clip-path="url(#clip810)" d="M99.5335 763.037 Q95.9224 763.037 94.0937 766.602 Q92.2882 770.143 92.2882 777.273 Q92.2882 784.379 94.0937 787.944 Q95.9224 791.486 99.5335 791.486 Q103.168 791.486 104.973 787.944 Q106.802 784.379 106.802 777.273 Q106.802 770.143 104.973 766.602 Q103.168 763.037 99.5335 763.037 M99.5335 759.333 Q105.344 759.333 108.399 763.94 Q111.478 768.523 111.478 777.273 Q111.478 786 108.399 790.606 Q105.344 795.189 99.5335 795.189 Q93.7234 795.189 90.6447 790.606 Q87.5892 786 87.5892 777.273 Q87.5892 768.523 90.6447 763.94 Q93.7234 759.333 99.5335 759.333 Z" fill="#000000" fill-rule="nonzero" fill-opacity="1" /><path clip-path="url(#clip810)" d="M91.5706 434.532 L99.2095 434.532 L99.2095 408.167 L90.8993 409.833 L90.8993 405.574 L99.1632 403.908 L103.839 403.908 L103.839 434.532 L111.478 434.532 L111.478 438.468 L91.5706 438.468 L91.5706 434.532 Z" fill="#000000" fill-rule="nonzero" fill-opacity="1" /><path clip-path="url(#clip810)" d="M95.1586 78.4817 L111.478 78.4817 L111.478 82.4169 L89.5336 82.4169 L89.5336 78.4817 Q92.1956 75.7271 96.7789 71.0975 Q101.385 66.4448 102.566 65.1022 Q104.811 62.579 105.691 60.8429 Q106.594 59.0837 106.594 57.3939 Q106.594 54.6393 104.649 52.9032 Q102.728 51.1671 99.6261 51.1671 Q97.4271 51.1671 94.9734 51.9309 Q92.5428 52.6948 89.7651 54.2457 L89.7651 49.5236 Q92.5891 48.3893 95.0428 47.8106 Q97.4965 47.2319 99.5335 47.2319 Q104.904 47.2319 108.098 49.9171 Q111.293 52.6022 111.293 57.093 Q111.293 59.2226 110.483 61.1439 Q109.696 63.042 107.589 65.6346 Q107.01 66.3059 103.909 69.5234 Q100.807 72.7179 95.1586 78.4817 Z" fill="#000000" fill-rule="nonzero" fill-opacity="1" /><circle clip-path="url(#clip812)" cx="1308.11" cy="522.96" r="14.4" fill="#009af9" fill-rule="evenodd" fill-opacity="0.5" stroke="#000000" stroke-opacity="0.5" stroke-width="3.2"/>
<circle clip-path="url(#clip812)" cx="1648.07" cy="598.336" r="14.4" fill="#009af9" fill-rule="evenodd" fill-opacity="0.5" stroke="#000000" stroke-opacity="0.5" stroke-width="3.2"/>
<circle clip-path="url(#clip812)" cx="493.176" cy="642.3" r="14.4" fill="#009af9" fill-rule="evenodd" fill-opacity="0.5" stroke="#000000" stroke-opacity="0.5" stroke-width="3.2"/>
<circle clip-path="url(#clip812)" cx="1332.16" cy="1139.55" r="14.4" fill="#009af9" fill-rule="evenodd" fill-opacity="0.5" stroke="#000000" stroke-opacity="0.5" stroke-width="3.2"/>
<circle clip-path="url(#clip812)" cx="1751.56" cy="1005.69" r="14.4" fill="#009af9" fill-rule="evenodd" fill-opacity="0.5" stroke="#000000" stroke-opacity="0.5" stroke-width="3.2"/>
<circle clip-path="url(#clip812)" cx="1678.96" cy="1445.72" r="14.4" fill="#009af9" fill-rule="evenodd" fill-opacity="0.5" stroke="#000000" stroke-opacity="0.5" stroke-width="3.2"/>
<circle clip-path="url(#clip812)" cx="1237.56" cy="1393.23" r="14.4" fill="#009af9" fill-rule="evenodd" fill-opacity="0.5" stroke="#000000" stroke-opacity="0.5" stroke-width="3.2"/>
<circle clip-path="url(#clip812)" cx="962.382" cy="538.681" r="14.4" fill="#009af9" fill-rule="evenodd" fill-opacity="0.5" stroke="#000000" stroke-opacity="0.5" stroke-width="3.2"/>
<circle clip-path="url(#clip812)" cx="349.741" cy="778.119" r="14.4" fill="#009af9" fill-rule="evenodd" fill-opacity="0.5" stroke="#000000" stroke-opacity="0.5" stroke-width="3.2"/>
<circle clip-path="url(#clip812)" cx="2290.34" cy="716.033" r="14.4" fill="#009af9" fill-rule="evenodd" fill-opacity="0.5" stroke="#000000" stroke-opacity="0.5" stroke-width="3.2"/>
<circle clip-path="url(#clip812)" cx="1097.27" cy="360.098" r="14.4" fill="#009af9" fill-rule="evenodd" fill-opacity="0.5" stroke="#000000" stroke-opacity="0.5" stroke-width="3.2"/>
<circle clip-path="url(#clip812)" cx="1316.5" cy="307.611" r="14.4" fill="#009af9" fill-rule="evenodd" fill-opacity="0.5" stroke="#000000" stroke-opacity="0.5" stroke-width="3.2"/>
<circle clip-path="url(#clip812)" cx="498.15" cy="681.616" r="14.4" fill="#009af9" fill-rule="evenodd" fill-opacity="0.5" stroke="#000000" stroke-opacity="0.5" stroke-width="3.2"/>
<circle clip-path="url(#clip812)" cx="744.082" cy="405.305" r="14.4" fill="#009af9" fill-rule="evenodd" fill-opacity="0.5" stroke="#000000" stroke-opacity="0.5" stroke-width="3.2"/>
<circle clip-path="url(#clip812)" cx="2254.51" cy="754.095" r="14.4" fill="#009af9" fill-rule="evenodd" fill-opacity="0.5" stroke="#000000" stroke-opacity="0.5" stroke-width="3.2"/>
<circle clip-path="url(#clip812)" cx="1931.16" cy="826.747" r="14.4" fill="#009af9" fill-rule="evenodd" fill-opacity="0.5" stroke="#000000" stroke-opacity="0.5" stroke-width="3.2"/>
<circle clip-path="url(#clip812)" cx="2253.01" cy="641.236" r="14.4" fill="#009af9" fill-rule="evenodd" fill-opacity="0.5" stroke="#000000" stroke-opacity="0.5" stroke-width="3.2"/>
<circle clip-path="url(#clip812)" cx="1697.58" cy="1372.54" r="14.4" fill="#009af9" fill-rule="evenodd" fill-opacity="0.5" stroke="#000000" stroke-opacity="0.5" stroke-width="3.2"/>
<circle clip-path="url(#clip812)" cx="1219.73" cy="967.014" r="14.4" fill="#009af9" fill-rule="evenodd" fill-opacity="0.5" stroke="#000000" stroke-opacity="0.5" stroke-width="3.2"/>
<circle clip-path="url(#clip812)" cx="1129.25" cy="1152.85" r="14.4" fill="#009af9" fill-rule="evenodd" fill-opacity="0.5" stroke="#000000" stroke-opacity="0.5" stroke-width="3.2"/>
<circle clip-path="url(#clip812)" cx="1361.04" cy="1053.11" r="14.4" fill="#009af9" fill-rule="evenodd" fill-opacity="0.5" stroke="#000000" stroke-opacity="0.5" stroke-width="3.2"/>
<circle clip-path="url(#clip812)" cx="209.891" cy="1038.13" r="14.4" fill="#009af9" fill-rule="evenodd" fill-opacity="0.5" stroke="#000000" stroke-opacity="0.5" stroke-width="3.2"/>
<circle clip-path="url(#clip812)" cx="886.492" cy="901.699" r="14.4" fill="#009af9" fill-rule="evenodd" fill-opacity="0.5" stroke="#000000" stroke-opacity="0.5" stroke-width="3.2"/>
<circle clip-path="url(#clip812)" cx="1787.8" cy="643.472" r="14.4" fill="#009af9" fill-rule="evenodd" fill-opacity="0.5" stroke="#000000" stroke-opacity="0.5" stroke-width="3.2"/>
<circle clip-path="url(#clip812)" cx="1461.05" cy="760.171" r="14.4" fill="#009af9" fill-rule="evenodd" fill-opacity="0.5" stroke="#000000" stroke-opacity="0.5" stroke-width="3.2"/>
<circle clip-path="url(#clip812)" cx="943.52" cy="440.446" r="14.4" fill="#009af9" fill-rule="evenodd" fill-opacity="0.5" stroke="#000000" stroke-opacity="0.5" stroke-width="3.2"/>
<circle clip-path="url(#clip812)" cx="1194.04" cy="87.9763" r="14.4" fill="#009af9" fill-rule="evenodd" fill-opacity="0.5" stroke="#000000" stroke-opacity="0.5" stroke-width="3.2"/>
<circle clip-path="url(#clip812)" cx="1656.62" cy="1104.63" r="14.4" fill="#009af9" fill-rule="evenodd" fill-opacity="0.5" stroke="#000000" stroke-opacity="0.5" stroke-width="3.2"/>
<circle clip-path="url(#clip812)" cx="1539.83" cy="886.934" r="14.4" fill="#009af9" fill-rule="evenodd" fill-opacity="0.5" stroke="#000000" stroke-opacity="0.5" stroke-width="3.2"/>
<circle clip-path="url(#clip812)" cx="1494.32" cy="812.615" r="14.4" fill="#009af9" fill-rule="evenodd" fill-opacity="0.5" stroke="#000000" stroke-opacity="0.5" stroke-width="3.2"/>
<path clip-path="url(#clip812)" d="M209.891 1038.13 L1237.56 1393.23 L1678.96 1445.72 L2290.34 716.033 L2253.01 641.236 L1194.04 87.9763 L744.082 405.305 L493.176 642.3 L349.741 778.119 L209.891 1038.13 L209.891 1038.13  Z" fill="#e26f46" fill-rule="evenodd" fill-opacity="0.2"/>
<polyline clip-path="url(#clip812)" style="stroke:#000000; stroke-linecap:round; stroke-linejoin:round; stroke-width:4; stroke-opacity:0.2; fill:none" points="209.891,1038.13 1237.56,1393.23 1678.96,1445.72 2290.34,716.033 2253.01,641.236 1194.04,87.9763 744.082,405.305 493.176,642.3 349.741,778.119 209.891,1038.13 "/>
</svg>
