<?xml version="1.0" encoding="utf-8"?>
<svg xmlns="http://www.w3.org/2000/svg" xmlns:xlink="http://www.w3.org/1999/xlink" width="600" height="400" viewBox="0 0 2400 1600">
<defs>
  <clipPath id="clip000">
    <rect x="0" y="0" width="2400" height="1600"/>
  </clipPath>
</defs>
<path clip-path="url(#clip000)" d="M0 1600 L2400 1600 L2400 0 L0 0  Z" fill="#ffffff" fill-rule="evenodd" fill-opacity="1"/>
<defs>
  <clipPath id="clip001">
    <rect x="147" y="47" width="2206" height="1440"/>
  </clipPath>
</defs>
<path clip-path="url(#clip000)" d="M147.478 1486.45 L2352.76 1486.45 L2352.76 47.2441 L147.478 47.2441  Z" fill="#ffffff" fill-rule="evenodd" fill-opacity="1"/>
<polyline clip-path="url(#clip001)" style="stroke:#000000; stroke-linecap:round; stroke-linejoin:round; stroke-width:2; stroke-opacity:0.1; fill:none" points="278.317,1486.45 278.317,47.2441 "/>
<polyline clip-path="url(#clip001)" style="stroke:#000000; stroke-linecap:round; stroke-linejoin:round; stroke-width:2; stroke-opacity:0.1; fill:none" points="750.18,1486.45 750.18,47.2441 "/>
<polyline clip-path="url(#clip001)" style="stroke:#000000; stroke-linecap:round; stroke-linejoin:round; stroke-width:2; stroke-opacity:0.1; fill:none" points="1222.04,1486.45 1222.04,47.2441 "/>
<polyline clip-path="url(#clip001)" style="stroke:#000000; stroke-linecap:round; stroke-linejoin:round; stroke-width:2; stroke-opacity:0.1; fill:none" points="1693.91,1486.45 1693.91,47.2441 "/>
<polyline clip-path="url(#clip001)" style="stroke:#000000; stroke-linecap:round; stroke-linejoin:round; stroke-width:2; stroke-opacity:0.1; fill:none" points="2165.77,1486.45 2165.77,47.2441 "/>
<polyline clip-path="url(#clip001)" style="stroke:#000000; stroke-linecap:round; stroke-linejoin:round; stroke-width:2; stroke-opacity:0.1; fill:none" points="147.478,1323.27 2352.76,1323.27 "/>
<polyline clip-path="url(#clip001)" style="stroke:#000000; stroke-linecap:round; stroke-linejoin:round; stroke-width:2; stroke-opacity:0.1; fill:none" points="147.478,931.412 2352.76,931.412 "/>
<polyline clip-path="url(#clip001)" style="stroke:#000000; stroke-linecap:round; stroke-linejoin:round; stroke-width:2; stroke-opacity:0.1; fill:none" points="147.478,539.557 2352.76,539.557 "/>
<polyline clip-path="url(#clip001)" style="stroke:#000000; stroke-linecap:round; stroke-linejoin:round; stroke-width:2; stroke-opacity:0.1; fill:none" points="147.478,147.701 2352.76,147.701 "/>
<polyline clip-path="url(#clip000)" style="stroke:#000000; stroke-linecap:round; stroke-linejoin:round; stroke-width:4; stroke-opacity:1; fill:none" points="147.478,1486.45 2352.76,1486.45 "/>
<polyline clip-path="url(#clip000)" style="stroke:#000000; stroke-linecap:round; stroke-linejoin:round; stroke-width:4; stroke-opacity:1; fill:none" points="278.317,1486.45 278.317,1467.55 "/>
<polyline clip-path="url(#clip000)" style="stroke:#000000; stroke-linecap:round; stroke-linejoin:round; stroke-width:4; stroke-opacity:1; fill:none" points="750.18,1486.45 750.18,1467.55 "/>
<polyline clip-path="url(#clip000)" style="stroke:#000000; stroke-linecap:round; stroke-linejoin:round; stroke-width:4; stroke-opacity:1; fill:none" points="1222.04,1486.45 1222.04,1467.55 "/>
<polyline clip-path="url(#clip000)" style="stroke:#000000; stroke-linecap:round; stroke-linejoin:round; stroke-width:4; stroke-opacity:1; fill:none" points="1693.91,1486.45 1693.91,1467.55 "/>
<polyline clip-path="url(#clip000)" style="stroke:#000000; stroke-linecap:round; stroke-linejoin:round; stroke-width:4; stroke-opacity:1; fill:none" points="2165.77,1486.45 2165.77,1467.55 "/>
<path clip-path="url(#clip000)" d="M248.259 1532.02 L277.935 1532.02 L277.935 1535.95 L248.259 1535.95 L248.259 1532.02 Z" fill="#000000" fill-rule="nonzero" fill-opacity="1" /><path clip-path="url(#clip000)" d="M292.055 1544.91 L308.375 1544.91 L308.375 1548.85 L286.43 1548.85 L286.43 1544.91 Q289.093 1542.16 293.676 1537.53 Q298.282 1532.88 299.463 1531.53 Q301.708 1529.01 302.588 1527.27 Q303.491 1525.51 303.491 1523.82 Q303.491 1521.07 301.546 1519.33 Q299.625 1517.6 296.523 1517.6 Q294.324 1517.6 291.87 1518.36 Q289.44 1519.13 286.662 1520.68 L286.662 1515.95 Q289.486 1514.82 291.94 1514.24 Q294.393 1513.66 296.43 1513.66 Q301.801 1513.66 304.995 1516.35 Q308.19 1519.03 308.19 1523.52 Q308.19 1525.65 307.379 1527.57 Q306.592 1529.47 304.486 1532.07 Q303.907 1532.74 300.805 1535.95 Q297.704 1539.15 292.055 1544.91 Z" fill="#000000" fill-rule="nonzero" fill-opacity="1" /><path clip-path="url(#clip000)" d="M719.937 1532.02 L749.613 1532.02 L749.613 1535.95 L719.937 1535.95 L719.937 1532.02 Z" fill="#000000" fill-rule="nonzero" fill-opacity="1" /><path clip-path="url(#clip000)" d="M760.515 1544.91 L768.154 1544.91 L768.154 1518.55 L759.844 1520.21 L759.844 1515.95 L768.108 1514.29 L772.784 1514.29 L772.784 1544.91 L780.423 1544.91 L780.423 1548.85 L760.515 1548.85 L760.515 1544.91 Z" fill="#000000" fill-rule="nonzero" fill-opacity="1" /><path clip-path="url(#clip000)" d="M1222.04 1517.37 Q1218.43 1517.37 1216.6 1520.93 Q1214.8 1524.47 1214.8 1531.6 Q1214.8 1538.71 1216.6 1542.27 Q1218.43 1545.82 1222.04 1545.82 Q1225.68 1545.82 1227.48 1542.27 Q1229.31 1538.71 1229.31 1531.6 Q1229.31 1524.47 1227.48 1520.93 Q1225.68 1517.37 1222.04 1517.37 M1222.04 1513.66 Q1227.85 1513.66 1230.91 1518.27 Q1233.99 1522.85 1233.99 1531.6 Q1233.99 1540.33 1230.91 1544.94 Q1227.85 1549.52 1222.04 1549.52 Q1216.23 1549.52 1213.15 1544.94 Q1210.1 1540.33 1210.1 1531.6 Q1210.1 1522.85 1213.15 1518.27 Q1216.23 1513.66 1222.04 1513.66 Z" fill="#000000" fill-rule="nonzero" fill-opacity="1" /><path clip-path="url(#clip000)" d="M1684.29 1544.91 L1691.93 1544.91 L1691.93 1518.55 L1683.62 1520.21 L1683.62 1515.95 L1691.88 1514.29 L1696.56 1514.29 L1696.56 1544.91 L1704.19 1544.91 L1704.19 1548.85 L1684.29 1548.85 L1684.29 1544.91 Z" fill="#000000" fill-rule="nonzero" fill-opacity="1" /><path clip-path="url(#clip000)" d="M2160.42 1544.91 L2176.74 1544.91 L2176.74 1548.85 L2154.8 1548.85 L2154.8 1544.91 Q2157.46 1542.16 2162.04 1537.53 Q2166.65 1532.88 2167.83 1531.53 Q2170.07 1529.01 2170.95 1527.27 Q2171.86 1525.51 2171.86 1523.82 Q2171.86 1521.07 2169.91 1519.33 Q2167.99 1517.6 2164.89 1517.6 Q2162.69 1517.6 2160.24 1518.36 Q2157.8 1519.13 2155.03 1520.68 L2155.03 1515.95 Q2157.85 1514.82 2160.3 1514.24 Q2162.76 1513.66 2164.8 1513.66 Q2170.17 1513.66 2173.36 1516.35 Q2176.55 1519.03 2176.55 1523.52 Q2176.55 1525.65 2175.74 1527.57 Q2174.96 1529.47 2172.85 1532.07 Q2172.27 1532.74 2169.17 1535.95 Q2166.07 1539.15 2160.42 1544.91 Z" fill="#000000" fill-rule="nonzero" fill-opacity="1" /><polyline clip-path="url(#clip000)" style="stroke:#000000; stroke-linecap:round; stroke-linejoin:round; stroke-width:4; stroke-opacity:1; fill:none" points="147.478,1486.45 147.478,47.2441 "/>
<polyline clip-path="url(#clip000)" style="stroke:#000000; stroke-linecap:round; stroke-linejoin:round; stroke-width:4; stroke-opacity:1; fill:none" points="147.478,1323.27 166.376,1323.27 "/>
<polyline clip-path="url(#clip000)" style="stroke:#000000; stroke-linecap:round; stroke-linejoin:round; stroke-width:4; stroke-opacity:1; fill:none" points="147.478,931.412 166.376,931.412 "/>
<polyline clip-path="url(#clip000)" style="stroke:#000000; stroke-linecap:round; stroke-linejoin:round; stroke-width:4; stroke-opacity:1; fill:none" points="147.478,539.557 166.376,539.557 "/>
<polyline clip-path="url(#clip000)" style="stroke:#000000; stroke-linecap:round; stroke-linejoin:round; stroke-width:4; stroke-opacity:1; fill:none" points="147.478,147.701 166.376,147.701 "/>
<path clip-path="url(#clip000)" d="M50.9921 1323.72 L80.6679 1323.72 L80.6679 1327.65 L50.9921 1327.65 L50.9921 1323.72 Z" fill="#000000" fill-rule="nonzero" fill-opacity="1" /><path clip-path="url(#clip000)" d="M91.5706 1336.61 L99.2095 1336.61 L99.2095 1310.25 L90.8993 1311.91 L90.8993 1307.65 L99.1632 1305.99 L103.839 1305.99 L103.839 1336.61 L111.478 1336.61 L111.478 1340.55 L91.5706 1340.55 L91.5706 1336.61 Z" fill="#000000" fill-rule="nonzero" fill-opacity="1" /><path clip-path="url(#clip000)" d="M99.5335 917.211 Q95.9224 917.211 94.0937 920.775 Q92.2882 924.317 92.2882 931.447 Q92.2882 938.553 94.0937 942.118 Q95.9224 945.66 99.5335 945.66 Q103.168 945.66 104.973 942.118 Q106.802 938.553 106.802 931.447 Q106.802 924.317 104.973 920.775 Q103.168 917.211 99.5335 917.211 M99.5335 913.507 Q105.344 913.507 108.399 918.113 Q111.478 922.697 111.478 931.447 Q111.478 940.174 108.399 944.78 Q105.344 949.363 99.5335 949.363 Q93.7234 949.363 90.6447 944.78 Q87.5892 940.174 87.5892 931.447 Q87.5892 922.697 90.6447 918.113 Q93.7234 913.507 99.5335 913.507 Z" fill="#000000" fill-rule="nonzero" fill-opacity="1" /><path clip-path="url(#clip000)" d="M91.5706 552.901 L99.2095 552.901 L99.2095 526.536 L90.8993 528.203 L90.8993 523.943 L99.1632 522.277 L103.839 522.277 L103.839 552.901 L111.478 552.901 L111.478 556.837 L91.5706 556.837 L91.5706 552.901 Z" fill="#000000" fill-rule="nonzero" fill-opacity="1" /><path clip-path="url(#clip000)" d="M95.1586 161.046 L111.478 161.046 L111.478 164.981 L89.5336 164.981 L89.5336 161.046 Q92.1956 158.292 96.7789 153.662 Q101.385 149.009 102.566 147.667 Q104.811 145.143 105.691 143.407 Q106.594 141.648 106.594 139.958 Q106.594 137.204 104.649 135.468 Q102.728 133.731 99.6261 133.731 Q97.4271 133.731 94.9734 134.495 Q92.5428 135.259 89.7651 136.81 L89.7651 132.088 Q92.5891 130.954 95.0428 130.375 Q97.4965 129.796 99.5335 129.796 Q104.904 129.796 108.098 132.481 Q111.293 135.167 111.293 139.657 Q111.293 141.787 110.483 143.708 Q109.696 145.606 107.589 148.199 Q107.01 148.87 103.909 152.088 Q100.807 155.282 95.1586 161.046 Z" fill="#000000" fill-rule="nonzero" fill-opacity="1" /><circle clip-path="url(#clip001)" cx="1358.3" cy="183.887" r="14.4" fill="#009af9" fill-rule="evenodd" fill-opacity="0.5" stroke="#000000" stroke-opacity="0.5" stroke-width="3.2"/>
<circle clip-path="url(#clip001)" cx="754.798" cy="1445.72" r="14.4" fill="#009af9" fill-rule="evenodd" fill-opacity="0.5" stroke="#000000" stroke-opacity="0.5" stroke-width="3.2"/>
<circle clip-path="url(#clip001)" cx="209.891" cy="933.547" r="14.4" fill="#009af9" fill-rule="evenodd" fill-opacity="0.5" stroke="#000000" stroke-opacity="0.5" stroke-width="3.2"/>
<circle clip-path="url(#clip001)" cx="756.029" cy="842.695" r="14.4" fill="#009af9" fill-rule="evenodd" fill-opacity="0.5" stroke="#000000" stroke-opacity="0.5" stroke-width="3.2"/>
<circle clip-path="url(#clip001)" cx="947.784" cy="854.843" r="14.4" fill="#009af9" fill-rule="evenodd" fill-opacity="0.5" stroke="#000000" stroke-opacity="0.5" stroke-width="3.2"/>
<circle clip-path="url(#clip001)" cx="1840.56" cy="1296.32" r="14.4" fill="#009af9" fill-rule="evenodd" fill-opacity="0.5" stroke="#000000" stroke-opacity="0.5" stroke-width="3.2"/>
<circle clip-path="url(#clip001)" cx="1053.74" cy="1110.14" r="14.4" fill="#009af9" fill-rule="evenodd" fill-opacity="0.5" stroke="#000000" stroke-opacity="0.5" stroke-width="3.2"/>
<circle clip-path="url(#clip001)" cx="374.927" cy="591.122" r="14.4" fill="#009af9" fill-rule="evenodd" fill-opacity="0.5" stroke="#000000" stroke-opacity="0.5" stroke-width="3.2"/>
<circle clip-path="url(#clip001)" cx="1330.35" cy="1000.61" r="14.4" fill="#009af9" fill-rule="evenodd" fill-opacity="0.5" stroke="#000000" stroke-opacity="0.5" stroke-width="3.2"/>
<circle clip-path="url(#clip001)" cx="868.427" cy="817.367" r="14.4" fill="#009af9" fill-rule="evenodd" fill-opacity="0.5" stroke="#000000" stroke-opacity="0.5" stroke-width="3.2"/>
<circle clip-path="url(#clip001)" cx="2145.93" cy="539.964" r="14.4" fill="#009af9" fill-rule="evenodd" fill-opacity="0.5" stroke="#000000" stroke-opacity="0.5" stroke-width="3.2"/>
<circle clip-path="url(#clip001)" cx="1152.68" cy="182.603" r="14.4" fill="#009af9" fill-rule="evenodd" fill-opacity="0.5" stroke="#000000" stroke-opacity="0.5" stroke-width="3.2"/>
<circle clip-path="url(#clip001)" cx="1039.96" cy="697.981" r="14.4" fill="#009af9" fill-rule="evenodd" fill-opacity="0.5" stroke="#000000" stroke-opacity="0.5" stroke-width="3.2"/>
<circle clip-path="url(#clip001)" cx="991.839" cy="1054.96" r="14.4" fill="#009af9" fill-rule="evenodd" fill-opacity="0.5" stroke="#000000" stroke-opacity="0.5" stroke-width="3.2"/>
<circle clip-path="url(#clip001)" cx="1102.14" cy="1140.44" r="14.4" fill="#009af9" fill-rule="evenodd" fill-opacity="0.5" stroke="#000000" stroke-opacity="0.5" stroke-width="3.2"/>
<circle clip-path="url(#clip001)" cx="1228.28" cy="409.116" r="14.4" fill="#009af9" fill-rule="evenodd" fill-opacity="0.5" stroke="#000000" stroke-opacity="0.5" stroke-width="3.2"/>
<circle clip-path="url(#clip001)" cx="1136.45" cy="872.27" r="14.4" fill="#009af9" fill-rule="evenodd" fill-opacity="0.5" stroke="#000000" stroke-opacity="0.5" stroke-width="3.2"/>
<circle clip-path="url(#clip001)" cx="1826.98" cy="820.343" r="14.4" fill="#009af9" fill-rule="evenodd" fill-opacity="0.5" stroke="#000000" stroke-opacity="0.5" stroke-width="3.2"/>
<circle clip-path="url(#clip001)" cx="1360.66" cy="87.9763" r="14.4" fill="#009af9" fill-rule="evenodd" fill-opacity="0.5" stroke="#000000" stroke-opacity="0.5" stroke-width="3.2"/>
<circle clip-path="url(#clip001)" cx="1250.53" cy="888.416" r="14.4" fill="#009af9" fill-rule="evenodd" fill-opacity="0.5" stroke="#000000" stroke-opacity="0.5" stroke-width="3.2"/>
<circle clip-path="url(#clip001)" cx="603.63" cy="1378.86" r="14.4" fill="#009af9" fill-rule="evenodd" fill-opacity="0.5" stroke="#000000" stroke-opacity="0.5" stroke-width="3.2"/>
<circle clip-path="url(#clip001)" cx="2290.34" cy="508.976" r="14.4" fill="#009af9" fill-rule="evenodd" fill-opacity="0.5" stroke="#000000" stroke-opacity="0.5" stroke-width="3.2"/>
<circle clip-path="url(#clip001)" cx="345.427" cy="1026.45" r="14.4" fill="#009af9" fill-rule="evenodd" fill-opacity="0.5" stroke="#000000" stroke-opacity="0.5" stroke-width="3.2"/>
<circle clip-path="url(#clip001)" cx="1215.81" cy="1071.34" r="14.4" fill="#009af9" fill-rule="evenodd" fill-opacity="0.5" stroke="#000000" stroke-opacity="0.5" stroke-width="3.2"/>
<circle clip-path="url(#clip001)" cx="911.706" cy="293.838" r="14.4" fill="#009af9" fill-rule="evenodd" fill-opacity="0.5" stroke="#000000" stroke-opacity="0.5" stroke-width="3.2"/>
<circle clip-path="url(#clip001)" cx="1082.08" cy="1266.59" r="14.4" fill="#009af9" fill-rule="evenodd" fill-opacity="0.5" stroke="#000000" stroke-opacity="0.5" stroke-width="3.2"/>
<circle clip-path="url(#clip001)" cx="1848.49" cy="1337.07" r="14.4" fill="#009af9" fill-rule="evenodd" fill-opacity="0.5" stroke="#000000" stroke-opacity="0.5" stroke-width="3.2"/>
<circle clip-path="url(#clip001)" cx="1468.8" cy="673.999" r="14.4" fill="#009af9" fill-rule="evenodd" fill-opacity="0.5" stroke="#000000" stroke-opacity="0.5" stroke-width="3.2"/>
<circle clip-path="url(#clip001)" cx="1002.15" cy="827.096" r="14.4" fill="#009af9" fill-rule="evenodd" fill-opacity="0.5" stroke="#000000" stroke-opacity="0.5" stroke-width="3.2"/>
<circle clip-path="url(#clip001)" cx="1038.29" cy="632.366" r="14.4" fill="#009af9" fill-rule="evenodd" fill-opacity="0.5" stroke="#000000" stroke-opacity="0.5" stroke-width="3.2"/>
<path clip-path="url(#clip001)" d="M209.891 933.547 L603.63 1378.86 L754.798 1445.72 L1848.49 1337.07 L2290.34 508.976 L1360.66 87.9763 L1152.68 182.603 L911.706 293.838 L374.927 591.122 L209.891 933.547 L209.891 933.547  Z" fill="#e26f46" fill-rule="evenodd" fill-opacity="0.2"/>
<polyline clip-path="url(#clip001)" style="stroke:#000000; stroke-linecap:round; stroke-linejoin:round; stroke-width:4; stroke-opacity:0.2; fill:none" points="209.891,933.547 603.63,1378.86 754.798,1445.72 1848.49,1337.07 2290.34,508.976 1360.66,87.9763 1152.68,182.603 911.706,293.838 374.927,591.122 209.891,933.547 "/>
</svg>
