<?xml version="1.0" encoding="utf-8"?>
<svg xmlns="http://www.w3.org/2000/svg" xmlns:xlink="http://www.w3.org/1999/xlink" width="600" height="400" viewBox="0 0 2400 1600">
<defs>
  <clipPath id="clip550">
    <rect x="0" y="0" width="2400" height="1600"/>
  </clipPath>
</defs>
<path clip-path="url(#clip550)" d="M0 1600 L2400 1600 L2400 0 L0 0  Z" fill="#ffffff" fill-rule="evenodd" fill-opacity="1"/>
<defs>
  <clipPath id="clip551">
    <rect x="147" y="47" width="2206" height="1440"/>
  </clipPath>
</defs>
<path clip-path="url(#clip550)" d="M147.478 1486.45 L2352.76 1486.45 L2352.76 47.2441 L147.478 47.2441  Z" fill="#ffffff" fill-rule="evenodd" fill-opacity="1"/>
<polyline clip-path="url(#clip551)" style="stroke:#000000; stroke-linecap:round; stroke-linejoin:round; stroke-width:2; stroke-opacity:0.1; fill:none" points="199.192,1486.45 199.192,47.2441 "/>
<polyline clip-path="url(#clip551)" style="stroke:#000000; stroke-linecap:round; stroke-linejoin:round; stroke-width:2; stroke-opacity:0.1; fill:none" points="561.676,1486.45 561.676,47.2441 "/>
<polyline clip-path="url(#clip551)" style="stroke:#000000; stroke-linecap:round; stroke-linejoin:round; stroke-width:2; stroke-opacity:0.1; fill:none" points="924.16,1486.45 924.16,47.2441 "/>
<polyline clip-path="url(#clip551)" style="stroke:#000000; stroke-linecap:round; stroke-linejoin:round; stroke-width:2; stroke-opacity:0.1; fill:none" points="1286.64,1486.45 1286.64,47.2441 "/>
<polyline clip-path="url(#clip551)" style="stroke:#000000; stroke-linecap:round; stroke-linejoin:round; stroke-width:2; stroke-opacity:0.1; fill:none" points="1649.13,1486.45 1649.13,47.2441 "/>
<polyline clip-path="url(#clip551)" style="stroke:#000000; stroke-linecap:round; stroke-linejoin:round; stroke-width:2; stroke-opacity:0.1; fill:none" points="2011.61,1486.45 2011.61,47.2441 "/>
<polyline clip-path="url(#clip551)" style="stroke:#000000; stroke-linecap:round; stroke-linejoin:round; stroke-width:2; stroke-opacity:0.1; fill:none" points="147.478,1258.98 2352.76,1258.98 "/>
<polyline clip-path="url(#clip551)" style="stroke:#000000; stroke-linecap:round; stroke-linejoin:round; stroke-width:2; stroke-opacity:0.1; fill:none" points="147.478,986.286 2352.76,986.286 "/>
<polyline clip-path="url(#clip551)" style="stroke:#000000; stroke-linecap:round; stroke-linejoin:round; stroke-width:2; stroke-opacity:0.1; fill:none" points="147.478,713.596 2352.76,713.596 "/>
<polyline clip-path="url(#clip551)" style="stroke:#000000; stroke-linecap:round; stroke-linejoin:round; stroke-width:2; stroke-opacity:0.1; fill:none" points="147.478,440.906 2352.76,440.906 "/>
<polyline clip-path="url(#clip551)" style="stroke:#000000; stroke-linecap:round; stroke-linejoin:round; stroke-width:2; stroke-opacity:0.1; fill:none" points="147.478,168.215 2352.76,168.215 "/>
<polyline clip-path="url(#clip550)" style="stroke:#000000; stroke-linecap:round; stroke-linejoin:round; stroke-width:4; stroke-opacity:1; fill:none" points="147.478,1486.45 2352.76,1486.45 "/>
<polyline clip-path="url(#clip550)" style="stroke:#000000; stroke-linecap:round; stroke-linejoin:round; stroke-width:4; stroke-opacity:1; fill:none" points="199.192,1486.45 199.192,1467.55 "/>
<polyline clip-path="url(#clip550)" style="stroke:#000000; stroke-linecap:round; stroke-linejoin:round; stroke-width:4; stroke-opacity:1; fill:none" points="561.676,1486.45 561.676,1467.55 "/>
<polyline clip-path="url(#clip550)" style="stroke:#000000; stroke-linecap:round; stroke-linejoin:round; stroke-width:4; stroke-opacity:1; fill:none" points="924.16,1486.45 924.16,1467.55 "/>
<polyline clip-path="url(#clip550)" style="stroke:#000000; stroke-linecap:round; stroke-linejoin:round; stroke-width:4; stroke-opacity:1; fill:none" points="1286.64,1486.45 1286.64,1467.55 "/>
<polyline clip-path="url(#clip550)" style="stroke:#000000; stroke-linecap:round; stroke-linejoin:round; stroke-width:4; stroke-opacity:1; fill:none" points="1649.13,1486.45 1649.13,1467.55 "/>
<polyline clip-path="url(#clip550)" style="stroke:#000000; stroke-linecap:round; stroke-linejoin:round; stroke-width:4; stroke-opacity:1; fill:none" points="2011.61,1486.45 2011.61,1467.55 "/>
<path clip-path="url(#clip550)" d="M168.66 1532.02 L198.335 1532.02 L198.335 1535.95 L168.66 1535.95 L168.66 1532.02 Z" fill="#000000" fill-rule="nonzero" fill-opacity="1" /><path clip-path="url(#clip550)" d="M222.595 1530.21 Q225.951 1530.93 227.826 1533.2 Q229.724 1535.47 229.724 1538.8 Q229.724 1543.92 226.206 1546.72 Q222.687 1549.52 216.206 1549.52 Q214.03 1549.52 211.715 1549.08 Q209.423 1548.66 206.97 1547.81 L206.97 1543.29 Q208.914 1544.43 211.229 1545.01 Q213.544 1545.58 216.067 1545.58 Q220.465 1545.58 222.757 1543.85 Q225.071 1542.11 225.071 1538.8 Q225.071 1535.75 222.919 1534.03 Q220.789 1532.3 216.97 1532.3 L212.942 1532.3 L212.942 1528.45 L217.155 1528.45 Q220.604 1528.45 222.432 1527.09 Q224.261 1525.7 224.261 1523.11 Q224.261 1520.45 222.363 1519.03 Q220.488 1517.6 216.97 1517.6 Q215.048 1517.6 212.849 1518.01 Q210.65 1518.43 208.011 1519.31 L208.011 1515.14 Q210.673 1514.4 212.988 1514.03 Q215.326 1513.66 217.386 1513.66 Q222.71 1513.66 225.812 1516.09 Q228.914 1518.5 228.914 1522.62 Q228.914 1525.49 227.27 1527.48 Q225.627 1529.45 222.595 1530.21 Z" fill="#000000" fill-rule="nonzero" fill-opacity="1" /><path clip-path="url(#clip550)" d="M531.618 1532.02 L561.294 1532.02 L561.294 1535.95 L531.618 1535.95 L531.618 1532.02 Z" fill="#000000" fill-rule="nonzero" fill-opacity="1" /><path clip-path="url(#clip550)" d="M575.414 1544.91 L591.734 1544.91 L591.734 1548.85 L569.789 1548.85 L569.789 1544.91 Q572.451 1542.16 577.035 1537.53 Q581.641 1532.88 582.822 1531.53 Q585.067 1529.01 585.947 1527.27 Q586.85 1525.51 586.85 1523.82 Q586.85 1521.07 584.905 1519.33 Q582.984 1517.6 579.882 1517.6 Q577.683 1517.6 575.229 1518.36 Q572.799 1519.13 570.021 1520.68 L570.021 1515.95 Q572.845 1514.82 575.299 1514.24 Q577.752 1513.66 579.789 1513.66 Q585.16 1513.66 588.354 1516.35 Q591.549 1519.03 591.549 1523.52 Q591.549 1525.65 590.738 1527.57 Q589.951 1529.47 587.845 1532.07 Q587.266 1532.74 584.164 1535.95 Q581.063 1539.15 575.414 1544.91 Z" fill="#000000" fill-rule="nonzero" fill-opacity="1" /><path clip-path="url(#clip550)" d="M893.917 1532.02 L923.593 1532.02 L923.593 1535.95 L893.917 1535.95 L893.917 1532.02 Z" fill="#000000" fill-rule="nonzero" fill-opacity="1" /><path clip-path="url(#clip550)" d="M934.496 1544.91 L942.135 1544.91 L942.135 1518.55 L933.825 1520.21 L933.825 1515.95 L942.088 1514.29 L946.764 1514.29 L946.764 1544.91 L954.403 1544.91 L954.403 1548.85 L934.496 1548.85 L934.496 1544.91 Z" fill="#000000" fill-rule="nonzero" fill-opacity="1" /><path clip-path="url(#clip550)" d="M1286.64 1517.37 Q1283.03 1517.37 1281.2 1520.93 Q1279.4 1524.47 1279.4 1531.6 Q1279.4 1538.71 1281.2 1542.27 Q1283.03 1545.82 1286.64 1545.82 Q1290.28 1545.82 1292.08 1542.27 Q1293.91 1538.71 1293.91 1531.6 Q1293.91 1524.47 1292.08 1520.93 Q1290.28 1517.37 1286.64 1517.37 M1286.64 1513.66 Q1292.45 1513.66 1295.51 1518.27 Q1298.59 1522.85 1298.59 1531.6 Q1298.59 1540.33 1295.51 1544.94 Q1292.45 1549.52 1286.64 1549.52 Q1280.83 1549.52 1277.76 1544.94 Q1274.7 1540.33 1274.7 1531.6 Q1274.7 1522.85 1277.76 1518.27 Q1280.83 1513.66 1286.64 1513.66 Z" fill="#000000" fill-rule="nonzero" fill-opacity="1" /><path clip-path="url(#clip550)" d="M1639.51 1544.91 L1647.15 1544.91 L1647.15 1518.55 L1638.84 1520.21 L1638.84 1515.95 L1647.1 1514.29 L1651.78 1514.29 L1651.78 1544.91 L1659.42 1544.91 L1659.42 1548.85 L1639.51 1548.85 L1639.51 1544.91 Z" fill="#000000" fill-rule="nonzero" fill-opacity="1" /><path clip-path="url(#clip550)" d="M2006.27 1544.91 L2022.58 1544.91 L2022.58 1548.85 L2000.64 1548.85 L2000.64 1544.91 Q2003.3 1542.16 2007.89 1537.53 Q2012.49 1532.88 2013.67 1531.53 Q2015.92 1529.01 2016.8 1527.27 Q2017.7 1525.51 2017.7 1523.82 Q2017.7 1521.07 2015.76 1519.33 Q2013.84 1517.6 2010.73 1517.6 Q2008.53 1517.6 2006.08 1518.36 Q2003.65 1519.13 2000.87 1520.68 L2000.87 1515.95 Q2003.7 1514.82 2006.15 1514.24 Q2008.6 1513.66 2010.64 1513.66 Q2016.01 1513.66 2019.21 1516.35 Q2022.4 1519.03 2022.4 1523.52 Q2022.4 1525.65 2021.59 1527.57 Q2020.8 1529.47 2018.7 1532.07 Q2018.12 1532.74 2015.02 1535.95 Q2011.91 1539.15 2006.27 1544.91 Z" fill="#000000" fill-rule="nonzero" fill-opacity="1" /><polyline clip-path="url(#clip550)" style="stroke:#000000; stroke-linecap:round; stroke-linejoin:round; stroke-width:4; stroke-opacity:1; fill:none" points="147.478,1486.45 147.478,47.2441 "/>
<polyline clip-path="url(#clip550)" style="stroke:#000000; stroke-linecap:round; stroke-linejoin:round; stroke-width:4; stroke-opacity:1; fill:none" points="147.478,1258.98 166.376,1258.98 "/>
<polyline clip-path="url(#clip550)" style="stroke:#000000; stroke-linecap:round; stroke-linejoin:round; stroke-width:4; stroke-opacity:1; fill:none" points="147.478,986.286 166.376,986.286 "/>
<polyline clip-path="url(#clip550)" style="stroke:#000000; stroke-linecap:round; stroke-linejoin:round; stroke-width:4; stroke-opacity:1; fill:none" points="147.478,713.596 166.376,713.596 "/>
<polyline clip-path="url(#clip550)" style="stroke:#000000; stroke-linecap:round; stroke-linejoin:round; stroke-width:4; stroke-opacity:1; fill:none" points="147.478,440.906 166.376,440.906 "/>
<polyline clip-path="url(#clip550)" style="stroke:#000000; stroke-linecap:round; stroke-linejoin:round; stroke-width:4; stroke-opacity:1; fill:none" points="147.478,168.215 166.376,168.215 "/>
<path clip-path="url(#clip550)" d="M51.3625 1259.43 L81.0383 1259.43 L81.0383 1263.36 L51.3625 1263.36 L51.3625 1259.43 Z" fill="#000000" fill-rule="nonzero" fill-opacity="1" /><path clip-path="url(#clip550)" d="M95.1586 1272.32 L111.478 1272.32 L111.478 1276.26 L89.5336 1276.26 L89.5336 1272.32 Q92.1956 1269.57 96.7789 1264.94 Q101.385 1260.28 102.566 1258.94 Q104.811 1256.42 105.691 1254.68 Q106.594 1252.92 106.594 1251.23 Q106.594 1248.48 104.649 1246.74 Q102.728 1245.01 99.6261 1245.01 Q97.4271 1245.01 94.9734 1245.77 Q92.5428 1246.53 89.7651 1248.09 L89.7651 1243.36 Q92.5891 1242.23 95.0428 1241.65 Q97.4965 1241.07 99.5335 1241.07 Q104.904 1241.07 108.098 1243.76 Q111.293 1246.44 111.293 1250.93 Q111.293 1253.06 110.483 1254.98 Q109.696 1256.88 107.589 1259.47 Q107.01 1260.15 103.909 1263.36 Q100.807 1266.56 95.1586 1272.32 Z" fill="#000000" fill-rule="nonzero" fill-opacity="1" /><path clip-path="url(#clip550)" d="M50.9921 986.737 L80.6679 986.737 L80.6679 990.673 L50.9921 990.673 L50.9921 986.737 Z" fill="#000000" fill-rule="nonzero" fill-opacity="1" /><path clip-path="url(#clip550)" d="M91.5706 999.631 L99.2095 999.631 L99.2095 973.265 L90.8993 974.932 L90.8993 970.673 L99.1632 969.006 L103.839 969.006 L103.839 999.631 L111.478 999.631 L111.478 1003.57 L91.5706 1003.57 L91.5706 999.631 Z" fill="#000000" fill-rule="nonzero" fill-opacity="1" /><path clip-path="url(#clip550)" d="M99.5335 699.394 Q95.9224 699.394 94.0937 702.959 Q92.2882 706.501 92.2882 713.63 Q92.2882 720.737 94.0937 724.302 Q95.9224 727.843 99.5335 727.843 Q103.168 727.843 104.973 724.302 Q106.802 720.737 106.802 713.63 Q106.802 706.501 104.973 702.959 Q103.168 699.394 99.5335 699.394 M99.5335 695.691 Q105.344 695.691 108.399 700.297 Q111.478 704.881 111.478 713.63 Q111.478 722.357 108.399 726.964 Q105.344 731.547 99.5335 731.547 Q93.7234 731.547 90.6447 726.964 Q87.5892 722.357 87.5892 713.63 Q87.5892 704.881 90.6447 700.297 Q93.7234 695.691 99.5335 695.691 Z" fill="#000000" fill-rule="nonzero" fill-opacity="1" /><path clip-path="url(#clip550)" d="M91.5706 454.25 L99.2095 454.25 L99.2095 427.885 L90.8993 429.551 L90.8993 425.292 L99.1632 423.626 L103.839 423.626 L103.839 454.25 L111.478 454.25 L111.478 458.186 L91.5706 458.186 L91.5706 454.25 Z" fill="#000000" fill-rule="nonzero" fill-opacity="1" /><path clip-path="url(#clip550)" d="M95.1586 181.56 L111.478 181.56 L111.478 185.495 L89.5336 185.495 L89.5336 181.56 Q92.1956 178.805 96.7789 174.176 Q101.385 169.523 102.566 168.181 Q104.811 165.657 105.691 163.921 Q106.594 162.162 106.594 160.472 Q106.594 157.718 104.649 155.982 Q102.728 154.245 99.6261 154.245 Q97.4271 154.245 94.9734 155.009 Q92.5428 155.773 89.7651 157.324 L89.7651 152.602 Q92.5891 151.468 95.0428 150.889 Q97.4965 150.31 99.5335 150.31 Q104.904 150.31 108.098 152.995 Q111.293 155.681 111.293 160.171 Q111.293 162.301 110.483 164.222 Q109.696 166.12 107.589 168.713 Q107.01 169.384 103.909 172.602 Q100.807 175.796 95.1586 181.56 Z" fill="#000000" fill-rule="nonzero" fill-opacity="1" /><circle clip-path="url(#clip551)" cx="1178.61" cy="763.801" r="14.4" fill="#009af9" fill-rule="evenodd" fill-opacity="0.5" stroke="#000000" stroke-opacity="0.5" stroke-width="3.2"/>
<circle clip-path="url(#clip551)" cx="1202.99" cy="655.624" r="14.4" fill="#009af9" fill-rule="evenodd" fill-opacity="0.5" stroke="#000000" stroke-opacity="0.5" stroke-width="3.2"/>
<circle clip-path="url(#clip551)" cx="1081.1" cy="763.913" r="14.4" fill="#009af9" fill-rule="evenodd" fill-opacity="0.5" stroke="#000000" stroke-opacity="0.5" stroke-width="3.2"/>
<circle clip-path="url(#clip551)" cx="1248.19" cy="834.957" r="14.4" fill="#009af9" fill-rule="evenodd" fill-opacity="0.5" stroke="#000000" stroke-opacity="0.5" stroke-width="3.2"/>
<circle clip-path="url(#clip551)" cx="1146.4" cy="529.369" r="14.4" fill="#009af9" fill-rule="evenodd" fill-opacity="0.5" stroke="#000000" stroke-opacity="0.5" stroke-width="3.2"/>
<circle clip-path="url(#clip551)" cx="1749.78" cy="820.917" r="14.4" fill="#009af9" fill-rule="evenodd" fill-opacity="0.5" stroke="#000000" stroke-opacity="0.5" stroke-width="3.2"/>
<circle clip-path="url(#clip551)" cx="1426.47" cy="558.312" r="14.4" fill="#009af9" fill-rule="evenodd" fill-opacity="0.5" stroke="#000000" stroke-opacity="0.5" stroke-width="3.2"/>
<circle clip-path="url(#clip551)" cx="2290.34" cy="1130.16" r="14.4" fill="#009af9" fill-rule="evenodd" fill-opacity="0.5" stroke="#000000" stroke-opacity="0.5" stroke-width="3.2"/>
<circle clip-path="url(#clip551)" cx="1259.65" cy="445.953" r="14.4" fill="#009af9" fill-rule="evenodd" fill-opacity="0.5" stroke="#000000" stroke-opacity="0.5" stroke-width="3.2"/>
<circle clip-path="url(#clip551)" cx="1281" cy="616.513" r="14.4" fill="#009af9" fill-rule="evenodd" fill-opacity="0.5" stroke="#000000" stroke-opacity="0.5" stroke-width="3.2"/>
<circle clip-path="url(#clip551)" cx="1128.51" cy="485.314" r="14.4" fill="#009af9" fill-rule="evenodd" fill-opacity="0.5" stroke="#000000" stroke-opacity="0.5" stroke-width="3.2"/>
<circle clip-path="url(#clip551)" cx="1079.83" cy="617.289" r="14.4" fill="#009af9" fill-rule="evenodd" fill-opacity="0.5" stroke="#000000" stroke-opacity="0.5" stroke-width="3.2"/>
<circle clip-path="url(#clip551)" cx="766.656" cy="817.601" r="14.4" fill="#009af9" fill-rule="evenodd" fill-opacity="0.5" stroke="#000000" stroke-opacity="0.5" stroke-width="3.2"/>
<circle clip-path="url(#clip551)" cx="826.549" cy="304.527" r="14.4" fill="#009af9" fill-rule="evenodd" fill-opacity="0.5" stroke="#000000" stroke-opacity="0.5" stroke-width="3.2"/>
<circle clip-path="url(#clip551)" cx="1534.11" cy="458.275" r="14.4" fill="#009af9" fill-rule="evenodd" fill-opacity="0.5" stroke="#000000" stroke-opacity="0.5" stroke-width="3.2"/>
<circle clip-path="url(#clip551)" cx="1030.49" cy="758.71" r="14.4" fill="#009af9" fill-rule="evenodd" fill-opacity="0.5" stroke="#000000" stroke-opacity="0.5" stroke-width="3.2"/>
<circle clip-path="url(#clip551)" cx="1119.62" cy="755.684" r="14.4" fill="#009af9" fill-rule="evenodd" fill-opacity="0.5" stroke="#000000" stroke-opacity="0.5" stroke-width="3.2"/>
<circle clip-path="url(#clip551)" cx="1334" cy="586.801" r="14.4" fill="#009af9" fill-rule="evenodd" fill-opacity="0.5" stroke="#000000" stroke-opacity="0.5" stroke-width="3.2"/>
<circle clip-path="url(#clip551)" cx="209.891" cy="713.027" r="14.4" fill="#009af9" fill-rule="evenodd" fill-opacity="0.5" stroke="#000000" stroke-opacity="0.5" stroke-width="3.2"/>
<circle clip-path="url(#clip551)" cx="1125.35" cy="780.592" r="14.4" fill="#009af9" fill-rule="evenodd" fill-opacity="0.5" stroke="#000000" stroke-opacity="0.5" stroke-width="3.2"/>
<circle clip-path="url(#clip551)" cx="1134.07" cy="87.9763" r="14.4" fill="#009af9" fill-rule="evenodd" fill-opacity="0.5" stroke="#000000" stroke-opacity="0.5" stroke-width="3.2"/>
<circle clip-path="url(#clip551)" cx="1681.89" cy="850.787" r="14.4" fill="#009af9" fill-rule="evenodd" fill-opacity="0.5" stroke="#000000" stroke-opacity="0.5" stroke-width="3.2"/>
<circle clip-path="url(#clip551)" cx="816.296" cy="603.793" r="14.4" fill="#009af9" fill-rule="evenodd" fill-opacity="0.5" stroke="#000000" stroke-opacity="0.5" stroke-width="3.2"/>
<circle clip-path="url(#clip551)" cx="258.863" cy="706.441" r="14.4" fill="#009af9" fill-rule="evenodd" fill-opacity="0.5" stroke="#000000" stroke-opacity="0.5" stroke-width="3.2"/>
<circle clip-path="url(#clip551)" cx="1442.91" cy="1445.72" r="14.4" fill="#009af9" fill-rule="evenodd" fill-opacity="0.5" stroke="#000000" stroke-opacity="0.5" stroke-width="3.2"/>
<circle clip-path="url(#clip551)" cx="928.523" cy="864.901" r="14.4" fill="#009af9" fill-rule="evenodd" fill-opacity="0.5" stroke="#000000" stroke-opacity="0.5" stroke-width="3.2"/>
<circle clip-path="url(#clip551)" cx="1587.48" cy="367.679" r="14.4" fill="#009af9" fill-rule="evenodd" fill-opacity="0.5" stroke="#000000" stroke-opacity="0.5" stroke-width="3.2"/>
<circle clip-path="url(#clip551)" cx="1006.47" cy="512.536" r="14.4" fill="#009af9" fill-rule="evenodd" fill-opacity="0.5" stroke="#000000" stroke-opacity="0.5" stroke-width="3.2"/>
<circle clip-path="url(#clip551)" cx="1238.4" cy="999.859" r="14.4" fill="#009af9" fill-rule="evenodd" fill-opacity="0.5" stroke="#000000" stroke-opacity="0.5" stroke-width="3.2"/>
<circle clip-path="url(#clip551)" cx="725.549" cy="881.951" r="14.4" fill="#009af9" fill-rule="evenodd" fill-opacity="0.5" stroke="#000000" stroke-opacity="0.5" stroke-width="3.2"/>
<path clip-path="url(#clip551)" d="M209.891 713.027 L1442.91 1445.72 L2290.34 1130.16 L1587.48 367.679 L1134.07 87.9763 L209.891 713.027 L209.891 713.027  Z" fill="#e26f46" fill-rule="evenodd" fill-opacity="0.2"/>
<polyline clip-path="url(#clip551)" style="stroke:#000000; stroke-linecap:round; stroke-linejoin:round; stroke-width:4; stroke-opacity:0.2; fill:none" points="209.891,713.027 1442.91,1445.72 2290.34,1130.16 1587.48,367.679 1134.07,87.9763 209.891,713.027 "/>
</svg>
