<?xml version="1.0" encoding="utf-8"?>
<svg xmlns="http://www.w3.org/2000/svg" xmlns:xlink="http://www.w3.org/1999/xlink" width="600" height="400" viewBox="0 0 2400 1600">
<defs>
  <clipPath id="clip800">
    <rect x="0" y="0" width="2400" height="1600"/>
  </clipPath>
</defs>
<path clip-path="url(#clip800)" d="M0 1600 L2400 1600 L2400 0 L0 0  Z" fill="#ffffff" fill-rule="evenodd" fill-opacity="1"/>
<defs>
  <clipPath id="clip801">
    <rect x="480" y="0" width="1681" height="1600"/>
  </clipPath>
</defs>
<path clip-path="url(#clip800)" d="M147.478 1486.45 L2352.76 1486.45 L2352.76 47.2441 L147.478 47.2441  Z" fill="#ffffff" fill-rule="evenodd" fill-opacity="1"/>
<defs>
  <clipPath id="clip802">
    <rect x="147" y="47" width="2206" height="1440"/>
  </clipPath>
</defs>
<polyline clip-path="url(#clip802)" style="stroke:#000000; stroke-linecap:round; stroke-linejoin:round; stroke-width:2; stroke-opacity:0.1; fill:none" points="187.483,1486.45 187.483,47.2441 "/>
<polyline clip-path="url(#clip802)" style="stroke:#000000; stroke-linecap:round; stroke-linejoin:round; stroke-width:2; stroke-opacity:0.1; fill:none" points="840.285,1486.45 840.285,47.2441 "/>
<polyline clip-path="url(#clip802)" style="stroke:#000000; stroke-linecap:round; stroke-linejoin:round; stroke-width:2; stroke-opacity:0.1; fill:none" points="1493.09,1486.45 1493.09,47.2441 "/>
<polyline clip-path="url(#clip802)" style="stroke:#000000; stroke-linecap:round; stroke-linejoin:round; stroke-width:2; stroke-opacity:0.1; fill:none" points="2145.89,1486.45 2145.89,47.2441 "/>
<polyline clip-path="url(#clip802)" style="stroke:#000000; stroke-linecap:round; stroke-linejoin:round; stroke-width:2; stroke-opacity:0.1; fill:none" points="147.478,1413.07 2352.76,1413.07 "/>
<polyline clip-path="url(#clip802)" style="stroke:#000000; stroke-linecap:round; stroke-linejoin:round; stroke-width:2; stroke-opacity:0.1; fill:none" points="147.478,1073.44 2352.76,1073.44 "/>
<polyline clip-path="url(#clip802)" style="stroke:#000000; stroke-linecap:round; stroke-linejoin:round; stroke-width:2; stroke-opacity:0.1; fill:none" points="147.478,733.804 2352.76,733.804 "/>
<polyline clip-path="url(#clip802)" style="stroke:#000000; stroke-linecap:round; stroke-linejoin:round; stroke-width:2; stroke-opacity:0.1; fill:none" points="147.478,394.169 2352.76,394.169 "/>
<polyline clip-path="url(#clip802)" style="stroke:#000000; stroke-linecap:round; stroke-linejoin:round; stroke-width:2; stroke-opacity:0.1; fill:none" points="147.478,54.5348 2352.76,54.5348 "/>
<polyline clip-path="url(#clip800)" style="stroke:#000000; stroke-linecap:round; stroke-linejoin:round; stroke-width:4; stroke-opacity:1; fill:none" points="147.478,1486.45 2352.76,1486.45 "/>
<polyline clip-path="url(#clip800)" style="stroke:#000000; stroke-linecap:round; stroke-linejoin:round; stroke-width:4; stroke-opacity:1; fill:none" points="187.483,1486.45 187.483,1467.55 "/>
<polyline clip-path="url(#clip800)" style="stroke:#000000; stroke-linecap:round; stroke-linejoin:round; stroke-width:4; stroke-opacity:1; fill:none" points="840.285,1486.45 840.285,1467.55 "/>
<polyline clip-path="url(#clip800)" style="stroke:#000000; stroke-linecap:round; stroke-linejoin:round; stroke-width:4; stroke-opacity:1; fill:none" points="1493.09,1486.45 1493.09,1467.55 "/>
<polyline clip-path="url(#clip800)" style="stroke:#000000; stroke-linecap:round; stroke-linejoin:round; stroke-width:4; stroke-opacity:1; fill:none" points="2145.89,1486.45 2145.89,1467.55 "/>
<path clip-path="url(#clip800)" d="M157.425 1532.02 L187.101 1532.02 L187.101 1535.95 L157.425 1535.95 L157.425 1532.02 Z" fill="#000000" fill-rule="nonzero" fill-opacity="1" /><path clip-path="url(#clip800)" d="M201.221 1544.91 L217.54 1544.91 L217.54 1548.85 L195.596 1548.85 L195.596 1544.91 Q198.258 1542.16 202.841 1537.53 Q207.448 1532.88 208.628 1531.53 Q210.874 1529.01 211.753 1527.27 Q212.656 1525.51 212.656 1523.82 Q212.656 1521.07 210.712 1519.33 Q208.79 1517.6 205.689 1517.6 Q203.489 1517.6 201.036 1518.36 Q198.605 1519.13 195.827 1520.68 L195.827 1515.95 Q198.652 1514.82 201.105 1514.24 Q203.559 1513.66 205.596 1513.66 Q210.966 1513.66 214.161 1516.35 Q217.355 1519.03 217.355 1523.52 Q217.355 1525.65 216.545 1527.57 Q215.758 1529.47 213.651 1532.07 Q213.073 1532.74 209.971 1535.95 Q206.869 1539.15 201.221 1544.91 Z" fill="#000000" fill-rule="nonzero" fill-opacity="1" /><path clip-path="url(#clip800)" d="M810.042 1532.02 L839.718 1532.02 L839.718 1535.95 L810.042 1535.95 L810.042 1532.02 Z" fill="#000000" fill-rule="nonzero" fill-opacity="1" /><path clip-path="url(#clip800)" d="M850.621 1544.91 L858.26 1544.91 L858.26 1518.55 L849.949 1520.21 L849.949 1515.95 L858.213 1514.29 L862.889 1514.29 L862.889 1544.91 L870.528 1544.91 L870.528 1548.85 L850.621 1548.85 L850.621 1544.91 Z" fill="#000000" fill-rule="nonzero" fill-opacity="1" /><path clip-path="url(#clip800)" d="M1493.09 1517.37 Q1489.48 1517.37 1487.65 1520.93 Q1485.84 1524.47 1485.84 1531.6 Q1485.84 1538.71 1487.65 1542.27 Q1489.48 1545.82 1493.09 1545.82 Q1496.72 1545.82 1498.53 1542.27 Q1500.36 1538.71 1500.36 1531.6 Q1500.36 1524.47 1498.53 1520.93 Q1496.72 1517.37 1493.09 1517.37 M1493.09 1513.66 Q1498.9 1513.66 1501.95 1518.27 Q1505.03 1522.85 1505.03 1531.6 Q1505.03 1540.33 1501.95 1544.94 Q1498.9 1549.52 1493.09 1549.52 Q1487.28 1549.52 1484.2 1544.94 Q1481.14 1540.33 1481.14 1531.6 Q1481.14 1522.85 1484.2 1518.27 Q1487.28 1513.66 1493.09 1513.66 Z" fill="#000000" fill-rule="nonzero" fill-opacity="1" /><path clip-path="url(#clip800)" d="M2136.27 1544.91 L2143.91 1544.91 L2143.91 1518.55 L2135.6 1520.21 L2135.6 1515.95 L2143.86 1514.29 L2148.54 1514.29 L2148.54 1544.91 L2156.18 1544.91 L2156.18 1548.85 L2136.27 1548.85 L2136.27 1544.91 Z" fill="#000000" fill-rule="nonzero" fill-opacity="1" /><polyline clip-path="url(#clip800)" style="stroke:#000000; stroke-linecap:round; stroke-linejoin:round; stroke-width:4; stroke-opacity:1; fill:none" points="147.478,1486.45 147.478,47.2441 "/>
<polyline clip-path="url(#clip800)" style="stroke:#000000; stroke-linecap:round; stroke-linejoin:round; stroke-width:4; stroke-opacity:1; fill:none" points="147.478,1413.07 166.376,1413.07 "/>
<polyline clip-path="url(#clip800)" style="stroke:#000000; stroke-linecap:round; stroke-linejoin:round; stroke-width:4; stroke-opacity:1; fill:none" points="147.478,1073.44 166.376,1073.44 "/>
<polyline clip-path="url(#clip800)" style="stroke:#000000; stroke-linecap:round; stroke-linejoin:round; stroke-width:4; stroke-opacity:1; fill:none" points="147.478,733.804 166.376,733.804 "/>
<polyline clip-path="url(#clip800)" style="stroke:#000000; stroke-linecap:round; stroke-linejoin:round; stroke-width:4; stroke-opacity:1; fill:none" points="147.478,394.169 166.376,394.169 "/>
<polyline clip-path="url(#clip800)" style="stroke:#000000; stroke-linecap:round; stroke-linejoin:round; stroke-width:4; stroke-opacity:1; fill:none" points="147.478,54.5348 166.376,54.5348 "/>
<path clip-path="url(#clip800)" d="M51.3625 1413.52 L81.0383 1413.52 L81.0383 1417.46 L51.3625 1417.46 L51.3625 1413.52 Z" fill="#000000" fill-rule="nonzero" fill-opacity="1" /><path clip-path="url(#clip800)" d="M95.1586 1426.42 L111.478 1426.42 L111.478 1430.35 L89.5336 1430.35 L89.5336 1426.42 Q92.1956 1423.66 96.7789 1419.03 Q101.385 1414.38 102.566 1413.04 Q104.811 1410.51 105.691 1408.78 Q106.594 1407.02 106.594 1405.33 Q106.594 1402.58 104.649 1400.84 Q102.728 1399.1 99.6261 1399.1 Q97.4271 1399.1 94.9734 1399.87 Q92.5428 1400.63 89.7651 1402.18 L89.7651 1397.46 Q92.5891 1396.33 95.0428 1395.75 Q97.4965 1395.17 99.5335 1395.17 Q104.904 1395.17 108.098 1397.85 Q111.293 1400.54 111.293 1405.03 Q111.293 1407.16 110.483 1409.08 Q109.696 1410.98 107.589 1413.57 Q107.01 1414.24 103.909 1417.46 Q100.807 1420.65 95.1586 1426.42 Z" fill="#000000" fill-rule="nonzero" fill-opacity="1" /><path clip-path="url(#clip800)" d="M50.9921 1073.89 L80.6679 1073.89 L80.6679 1077.82 L50.9921 1077.82 L50.9921 1073.89 Z" fill="#000000" fill-rule="nonzero" fill-opacity="1" /><path clip-path="url(#clip800)" d="M91.5706 1086.78 L99.2095 1086.78 L99.2095 1060.42 L90.8993 1062.08 L90.8993 1057.82 L99.1632 1056.16 L103.839 1056.16 L103.839 1086.78 L111.478 1086.78 L111.478 1090.72 L91.5706 1090.72 L91.5706 1086.78 Z" fill="#000000" fill-rule="nonzero" fill-opacity="1" /><path clip-path="url(#clip800)" d="M99.5335 719.602 Q95.9224 719.602 94.0937 723.167 Q92.2882 726.709 92.2882 733.838 Q92.2882 740.945 94.0937 744.51 Q95.9224 748.051 99.5335 748.051 Q103.168 748.051 104.973 744.51 Q106.802 740.945 106.802 733.838 Q106.802 726.709 104.973 723.167 Q103.168 719.602 99.5335 719.602 M99.5335 715.899 Q105.344 715.899 108.399 720.505 Q111.478 725.088 111.478 733.838 Q111.478 742.565 108.399 747.172 Q105.344 751.755 99.5335 751.755 Q93.7234 751.755 90.6447 747.172 Q87.5892 742.565 87.5892 733.838 Q87.5892 725.088 90.6447 720.505 Q93.7234 715.899 99.5335 715.899 Z" fill="#000000" fill-rule="nonzero" fill-opacity="1" /><path clip-path="url(#clip800)" d="M91.5706 407.514 L99.2095 407.514 L99.2095 381.148 L90.8993 382.815 L90.8993 378.556 L99.1632 376.889 L103.839 376.889 L103.839 407.514 L111.478 407.514 L111.478 411.449 L91.5706 411.449 L91.5706 407.514 Z" fill="#000000" fill-rule="nonzero" fill-opacity="1" /><path clip-path="url(#clip800)" d="M95.1586 67.8796 L111.478 67.8796 L111.478 71.8148 L89.5336 71.8148 L89.5336 67.8796 Q92.1956 65.125 96.7789 60.4954 Q101.385 55.8426 102.566 54.5001 Q104.811 51.9769 105.691 50.2408 Q106.594 48.4816 106.594 46.7918 Q106.594 44.0372 104.649 42.3011 Q102.728 40.565 99.6261 40.565 Q97.4271 40.565 94.9734 41.3288 Q92.5428 42.0927 89.7651 43.6436 L89.7651 38.9214 Q92.5891 37.7872 95.0428 37.2085 Q97.4965 36.6298 99.5335 36.6298 Q104.904 36.6298 108.098 39.315 Q111.293 42.0001 111.293 46.4908 Q111.293 48.6205 110.483 50.5417 Q109.696 52.4399 107.589 55.0325 Q107.01 55.7038 103.909 58.9213 Q100.807 62.1158 95.1586 67.8796 Z" fill="#000000" fill-rule="nonzero" fill-opacity="1" /><circle clip-path="url(#clip802)" cx="1137.09" cy="918.806" r="14.4" fill="#009af9" fill-rule="evenodd" fill-opacity="0.5" stroke="#000000" stroke-opacity="0.5" stroke-width="3.2"/>
<circle clip-path="url(#clip802)" cx="2290.34" cy="749.378" r="14.4" fill="#009af9" fill-rule="evenodd" fill-opacity="0.5" stroke="#000000" stroke-opacity="0.5" stroke-width="3.2"/>
<circle clip-path="url(#clip802)" cx="381.217" cy="668.662" r="14.4" fill="#009af9" fill-rule="evenodd" fill-opacity="0.5" stroke="#000000" stroke-opacity="0.5" stroke-width="3.2"/>
<circle clip-path="url(#clip802)" cx="705.916" cy="119.458" r="14.4" fill="#009af9" fill-rule="evenodd" fill-opacity="0.5" stroke="#000000" stroke-opacity="0.5" stroke-width="3.2"/>
<circle clip-path="url(#clip802)" cx="1799.72" cy="527.194" r="14.4" fill="#009af9" fill-rule="evenodd" fill-opacity="0.5" stroke="#000000" stroke-opacity="0.5" stroke-width="3.2"/>
<circle clip-path="url(#clip802)" cx="785.328" cy="640.791" r="14.4" fill="#009af9" fill-rule="evenodd" fill-opacity="0.5" stroke="#000000" stroke-opacity="0.5" stroke-width="3.2"/>
<circle clip-path="url(#clip802)" cx="1214.19" cy="546.143" r="14.4" fill="#009af9" fill-rule="evenodd" fill-opacity="0.5" stroke="#000000" stroke-opacity="0.5" stroke-width="3.2"/>
<circle clip-path="url(#clip802)" cx="1992.93" cy="1062.87" r="14.4" fill="#009af9" fill-rule="evenodd" fill-opacity="0.5" stroke="#000000" stroke-opacity="0.5" stroke-width="3.2"/>
<circle clip-path="url(#clip802)" cx="1902.15" cy="681.34" r="14.4" fill="#009af9" fill-rule="evenodd" fill-opacity="0.5" stroke="#000000" stroke-opacity="0.5" stroke-width="3.2"/>
<circle clip-path="url(#clip802)" cx="1972.97" cy="975.244" r="14.4" fill="#009af9" fill-rule="evenodd" fill-opacity="0.5" stroke="#000000" stroke-opacity="0.5" stroke-width="3.2"/>
<circle clip-path="url(#clip802)" cx="1397.97" cy="746.716" r="14.4" fill="#009af9" fill-rule="evenodd" fill-opacity="0.5" stroke="#000000" stroke-opacity="0.5" stroke-width="3.2"/>
<circle clip-path="url(#clip802)" cx="2221.62" cy="545.621" r="14.4" fill="#009af9" fill-rule="evenodd" fill-opacity="0.5" stroke="#000000" stroke-opacity="0.5" stroke-width="3.2"/>
<circle clip-path="url(#clip802)" cx="502.354" cy="1244.64" r="14.4" fill="#009af9" fill-rule="evenodd" fill-opacity="0.5" stroke="#000000" stroke-opacity="0.5" stroke-width="3.2"/>
<circle clip-path="url(#clip802)" cx="645.214" cy="953.379" r="14.4" fill="#009af9" fill-rule="evenodd" fill-opacity="0.5" stroke="#000000" stroke-opacity="0.5" stroke-width="3.2"/>
<circle clip-path="url(#clip802)" cx="2202.33" cy="1169.46" r="14.4" fill="#009af9" fill-rule="evenodd" fill-opacity="0.5" stroke="#000000" stroke-opacity="0.5" stroke-width="3.2"/>
<circle clip-path="url(#clip802)" cx="1664.63" cy="686.105" r="14.4" fill="#009af9" fill-rule="evenodd" fill-opacity="0.5" stroke="#000000" stroke-opacity="0.5" stroke-width="3.2"/>
<circle clip-path="url(#clip802)" cx="1143.77" cy="800.647" r="14.4" fill="#009af9" fill-rule="evenodd" fill-opacity="0.5" stroke="#000000" stroke-opacity="0.5" stroke-width="3.2"/>
<circle clip-path="url(#clip802)" cx="544.618" cy="1194.6" r="14.4" fill="#009af9" fill-rule="evenodd" fill-opacity="0.5" stroke="#000000" stroke-opacity="0.5" stroke-width="3.2"/>
<circle clip-path="url(#clip802)" cx="933.76" cy="87.9763" r="14.4" fill="#009af9" fill-rule="evenodd" fill-opacity="0.5" stroke="#000000" stroke-opacity="0.5" stroke-width="3.2"/>
<circle clip-path="url(#clip802)" cx="1523.33" cy="242.961" r="14.4" fill="#009af9" fill-rule="evenodd" fill-opacity="0.5" stroke="#000000" stroke-opacity="0.5" stroke-width="3.2"/>
<circle clip-path="url(#clip802)" cx="1363.67" cy="908.719" r="14.4" fill="#009af9" fill-rule="evenodd" fill-opacity="0.5" stroke="#000000" stroke-opacity="0.5" stroke-width="3.2"/>
<circle clip-path="url(#clip802)" cx="1533.12" cy="1445.72" r="14.4" fill="#009af9" fill-rule="evenodd" fill-opacity="0.5" stroke="#000000" stroke-opacity="0.5" stroke-width="3.2"/>
<circle clip-path="url(#clip802)" cx="1069.69" cy="853.77" r="14.4" fill="#009af9" fill-rule="evenodd" fill-opacity="0.5" stroke="#000000" stroke-opacity="0.5" stroke-width="3.2"/>
<circle clip-path="url(#clip802)" cx="913.266" cy="898.546" r="14.4" fill="#009af9" fill-rule="evenodd" fill-opacity="0.5" stroke="#000000" stroke-opacity="0.5" stroke-width="3.2"/>
<circle clip-path="url(#clip802)" cx="1251.11" cy="1089.93" r="14.4" fill="#009af9" fill-rule="evenodd" fill-opacity="0.5" stroke="#000000" stroke-opacity="0.5" stroke-width="3.2"/>
<circle clip-path="url(#clip802)" cx="1331.44" cy="745.132" r="14.4" fill="#009af9" fill-rule="evenodd" fill-opacity="0.5" stroke="#000000" stroke-opacity="0.5" stroke-width="3.2"/>
<circle clip-path="url(#clip802)" cx="1985.38" cy="1091.91" r="14.4" fill="#009af9" fill-rule="evenodd" fill-opacity="0.5" stroke="#000000" stroke-opacity="0.5" stroke-width="3.2"/>
<circle clip-path="url(#clip802)" cx="209.891" cy="1039.36" r="14.4" fill="#009af9" fill-rule="evenodd" fill-opacity="0.5" stroke="#000000" stroke-opacity="0.5" stroke-width="3.2"/>
<circle clip-path="url(#clip802)" cx="1406.37" cy="516.099" r="14.4" fill="#009af9" fill-rule="evenodd" fill-opacity="0.5" stroke="#000000" stroke-opacity="0.5" stroke-width="3.2"/>
<circle clip-path="url(#clip802)" cx="1646.32" cy="526.378" r="14.4" fill="#009af9" fill-rule="evenodd" fill-opacity="0.5" stroke="#000000" stroke-opacity="0.5" stroke-width="3.2"/>
<path clip-path="url(#clip802)" d="M209.891 1039.36 L502.354 1244.64 L1533.12 1445.72 L2202.33 1169.46 L2290.34 749.378 L2221.62 545.621 L1523.33 242.961 L933.76 87.9763 L705.916 119.458 L381.217 668.662 L209.891 1039.36 L209.891 1039.36  Z" fill="#e26f46" fill-rule="evenodd" fill-opacity="0.2"/>
<polyline clip-path="url(#clip802)" style="stroke:#000000; stroke-linecap:round; stroke-linejoin:round; stroke-width:4; stroke-opacity:0.2; fill:none" points="209.891,1039.36 502.354,1244.64 1533.12,1445.72 2202.33,1169.46 2290.34,749.378 2221.62,545.621 1523.33,242.961 933.76,87.9763 705.916,119.458 381.217,668.662 209.891,1039.36 "/>
</svg>
