<?xml version="1.0" encoding="utf-8"?>
<svg xmlns="http://www.w3.org/2000/svg" xmlns:xlink="http://www.w3.org/1999/xlink" width="600" height="400" viewBox="0 0 2400 1600">
<defs>
  <clipPath id="clip800">
    <rect x="0" y="0" width="2400" height="1600"/>
  </clipPath>
</defs>
<path clip-path="url(#clip800)" d="M0 1600 L2400 1600 L2400 0 L0 0  Z" fill="#ffffff" fill-rule="evenodd" fill-opacity="1"/>
<defs>
  <clipPath id="clip801">
    <rect x="480" y="0" width="1681" height="1600"/>
  </clipPath>
</defs>
<path clip-path="url(#clip800)" d="M147.478 1486.45 L2352.76 1486.45 L2352.76 47.2441 L147.478 47.2441  Z" fill="#ffffff" fill-rule="evenodd" fill-opacity="1"/>
<defs>
  <clipPath id="clip802">
    <rect x="147" y="47" width="2206" height="1440"/>
  </clipPath>
</defs>
<polyline clip-path="url(#clip802)" style="stroke:#000000; stroke-linecap:round; stroke-linejoin:round; stroke-width:2; stroke-opacity:0.1; fill:none" points="357.988,1486.45 357.988,47.2441 "/>
<polyline clip-path="url(#clip802)" style="stroke:#000000; stroke-linecap:round; stroke-linejoin:round; stroke-width:2; stroke-opacity:0.1; fill:none" points="815.338,1486.45 815.338,47.2441 "/>
<polyline clip-path="url(#clip802)" style="stroke:#000000; stroke-linecap:round; stroke-linejoin:round; stroke-width:2; stroke-opacity:0.1; fill:none" points="1272.69,1486.45 1272.69,47.2441 "/>
<polyline clip-path="url(#clip802)" style="stroke:#000000; stroke-linecap:round; stroke-linejoin:round; stroke-width:2; stroke-opacity:0.1; fill:none" points="1730.04,1486.45 1730.04,47.2441 "/>
<polyline clip-path="url(#clip802)" style="stroke:#000000; stroke-linecap:round; stroke-linejoin:round; stroke-width:2; stroke-opacity:0.1; fill:none" points="2187.39,1486.45 2187.39,47.2441 "/>
<polyline clip-path="url(#clip802)" style="stroke:#000000; stroke-linecap:round; stroke-linejoin:round; stroke-width:2; stroke-opacity:0.1; fill:none" points="147.478,1298.97 2352.76,1298.97 "/>
<polyline clip-path="url(#clip802)" style="stroke:#000000; stroke-linecap:round; stroke-linejoin:round; stroke-width:2; stroke-opacity:0.1; fill:none" points="147.478,1036.77 2352.76,1036.77 "/>
<polyline clip-path="url(#clip802)" style="stroke:#000000; stroke-linecap:round; stroke-linejoin:round; stroke-width:2; stroke-opacity:0.1; fill:none" points="147.478,774.573 2352.76,774.573 "/>
<polyline clip-path="url(#clip802)" style="stroke:#000000; stroke-linecap:round; stroke-linejoin:round; stroke-width:2; stroke-opacity:0.1; fill:none" points="147.478,512.373 2352.76,512.373 "/>
<polyline clip-path="url(#clip802)" style="stroke:#000000; stroke-linecap:round; stroke-linejoin:round; stroke-width:2; stroke-opacity:0.1; fill:none" points="147.478,250.174 2352.76,250.174 "/>
<polyline clip-path="url(#clip800)" style="stroke:#000000; stroke-linecap:round; stroke-linejoin:round; stroke-width:4; stroke-opacity:1; fill:none" points="147.478,1486.45 2352.76,1486.45 "/>
<polyline clip-path="url(#clip800)" style="stroke:#000000; stroke-linecap:round; stroke-linejoin:round; stroke-width:4; stroke-opacity:1; fill:none" points="357.988,1486.45 357.988,1467.55 "/>
<polyline clip-path="url(#clip800)" style="stroke:#000000; stroke-linecap:round; stroke-linejoin:round; stroke-width:4; stroke-opacity:1; fill:none" points="815.338,1486.45 815.338,1467.55 "/>
<polyline clip-path="url(#clip800)" style="stroke:#000000; stroke-linecap:round; stroke-linejoin:round; stroke-width:4; stroke-opacity:1; fill:none" points="1272.69,1486.45 1272.69,1467.55 "/>
<polyline clip-path="url(#clip800)" style="stroke:#000000; stroke-linecap:round; stroke-linejoin:round; stroke-width:4; stroke-opacity:1; fill:none" points="1730.04,1486.45 1730.04,1467.55 "/>
<polyline clip-path="url(#clip800)" style="stroke:#000000; stroke-linecap:round; stroke-linejoin:round; stroke-width:4; stroke-opacity:1; fill:none" points="2187.39,1486.45 2187.39,1467.55 "/>
<path clip-path="url(#clip800)" d="M327.93 1532.02 L357.606 1532.02 L357.606 1535.95 L327.93 1535.95 L327.93 1532.02 Z" fill="#000000" fill-rule="nonzero" fill-opacity="1" /><path clip-path="url(#clip800)" d="M371.726 1544.91 L388.046 1544.91 L388.046 1548.85 L366.101 1548.85 L366.101 1544.91 Q368.763 1542.16 373.347 1537.53 Q377.953 1532.88 379.134 1531.53 Q381.379 1529.01 382.259 1527.27 Q383.161 1525.51 383.161 1523.82 Q383.161 1521.07 381.217 1519.33 Q379.296 1517.6 376.194 1517.6 Q373.995 1517.6 371.541 1518.36 Q369.11 1519.13 366.333 1520.68 L366.333 1515.95 Q369.157 1514.82 371.61 1514.24 Q374.064 1513.66 376.101 1513.66 Q381.471 1513.66 384.666 1516.35 Q387.86 1519.03 387.86 1523.52 Q387.86 1525.65 387.05 1527.57 Q386.263 1529.47 384.157 1532.07 Q383.578 1532.74 380.476 1535.95 Q377.374 1539.15 371.726 1544.91 Z" fill="#000000" fill-rule="nonzero" fill-opacity="1" /><path clip-path="url(#clip800)" d="M785.095 1532.02 L814.771 1532.02 L814.771 1535.95 L785.095 1535.95 L785.095 1532.02 Z" fill="#000000" fill-rule="nonzero" fill-opacity="1" /><path clip-path="url(#clip800)" d="M825.673 1544.91 L833.312 1544.91 L833.312 1518.55 L825.002 1520.21 L825.002 1515.95 L833.266 1514.29 L837.942 1514.29 L837.942 1544.91 L845.581 1544.91 L845.581 1548.85 L825.673 1548.85 L825.673 1544.91 Z" fill="#000000" fill-rule="nonzero" fill-opacity="1" /><path clip-path="url(#clip800)" d="M1272.69 1517.37 Q1269.08 1517.37 1267.25 1520.93 Q1265.44 1524.47 1265.44 1531.6 Q1265.44 1538.71 1267.25 1542.27 Q1269.08 1545.82 1272.69 1545.82 Q1276.32 1545.82 1278.13 1542.27 Q1279.96 1538.71 1279.96 1531.6 Q1279.96 1524.47 1278.13 1520.93 Q1276.32 1517.37 1272.69 1517.37 M1272.69 1513.66 Q1278.5 1513.66 1281.55 1518.27 Q1284.63 1522.85 1284.63 1531.6 Q1284.63 1540.33 1281.55 1544.94 Q1278.5 1549.52 1272.69 1549.52 Q1266.88 1549.52 1263.8 1544.94 Q1260.74 1540.33 1260.74 1531.6 Q1260.74 1522.85 1263.8 1518.27 Q1266.88 1513.66 1272.69 1513.66 Z" fill="#000000" fill-rule="nonzero" fill-opacity="1" /><path clip-path="url(#clip800)" d="M1720.42 1544.91 L1728.06 1544.91 L1728.06 1518.55 L1719.75 1520.21 L1719.75 1515.95 L1728.01 1514.29 L1732.69 1514.29 L1732.69 1544.91 L1740.33 1544.91 L1740.33 1548.85 L1720.42 1548.85 L1720.42 1544.91 Z" fill="#000000" fill-rule="nonzero" fill-opacity="1" /><path clip-path="url(#clip800)" d="M2182.04 1544.91 L2198.36 1544.91 L2198.36 1548.85 L2176.42 1548.85 L2176.42 1544.91 Q2179.08 1542.16 2183.66 1537.53 Q2188.27 1532.88 2189.45 1531.53 Q2191.69 1529.01 2192.57 1527.27 Q2193.48 1525.51 2193.48 1523.82 Q2193.48 1521.07 2191.53 1519.33 Q2189.61 1517.6 2186.51 1517.6 Q2184.31 1517.6 2181.86 1518.36 Q2179.42 1519.13 2176.65 1520.68 L2176.65 1515.95 Q2179.47 1514.82 2181.92 1514.24 Q2184.38 1513.66 2186.42 1513.66 Q2191.79 1513.66 2194.98 1516.35 Q2198.17 1519.03 2198.17 1523.52 Q2198.17 1525.65 2197.36 1527.57 Q2196.58 1529.47 2194.47 1532.07 Q2193.89 1532.74 2190.79 1535.95 Q2187.69 1539.15 2182.04 1544.91 Z" fill="#000000" fill-rule="nonzero" fill-opacity="1" /><polyline clip-path="url(#clip800)" style="stroke:#000000; stroke-linecap:round; stroke-linejoin:round; stroke-width:4; stroke-opacity:1; fill:none" points="147.478,1486.45 147.478,47.2441 "/>
<polyline clip-path="url(#clip800)" style="stroke:#000000; stroke-linecap:round; stroke-linejoin:round; stroke-width:4; stroke-opacity:1; fill:none" points="147.478,1298.97 166.376,1298.97 "/>
<polyline clip-path="url(#clip800)" style="stroke:#000000; stroke-linecap:round; stroke-linejoin:round; stroke-width:4; stroke-opacity:1; fill:none" points="147.478,1036.77 166.376,1036.77 "/>
<polyline clip-path="url(#clip800)" style="stroke:#000000; stroke-linecap:round; stroke-linejoin:round; stroke-width:4; stroke-opacity:1; fill:none" points="147.478,774.573 166.376,774.573 "/>
<polyline clip-path="url(#clip800)" style="stroke:#000000; stroke-linecap:round; stroke-linejoin:round; stroke-width:4; stroke-opacity:1; fill:none" points="147.478,512.373 166.376,512.373 "/>
<polyline clip-path="url(#clip800)" style="stroke:#000000; stroke-linecap:round; stroke-linejoin:round; stroke-width:4; stroke-opacity:1; fill:none" points="147.478,250.174 166.376,250.174 "/>
<path clip-path="url(#clip800)" d="M51.3625 1299.42 L81.0383 1299.42 L81.0383 1303.36 L51.3625 1303.36 L51.3625 1299.42 Z" fill="#000000" fill-rule="nonzero" fill-opacity="1" /><path clip-path="url(#clip800)" d="M95.1586 1312.32 L111.478 1312.32 L111.478 1316.25 L89.5336 1316.25 L89.5336 1312.32 Q92.1956 1309.56 96.7789 1304.93 Q101.385 1300.28 102.566 1298.94 Q104.811 1296.42 105.691 1294.68 Q106.594 1292.92 106.594 1291.23 Q106.594 1288.48 104.649 1286.74 Q102.728 1285 99.6261 1285 Q97.4271 1285 94.9734 1285.77 Q92.5428 1286.53 89.7651 1288.08 L89.7651 1283.36 Q92.5891 1282.23 95.0428 1281.65 Q97.4965 1281.07 99.5335 1281.07 Q104.904 1281.07 108.098 1283.75 Q111.293 1286.44 111.293 1290.93 Q111.293 1293.06 110.483 1294.98 Q109.696 1296.88 107.589 1299.47 Q107.01 1300.14 103.909 1303.36 Q100.807 1306.55 95.1586 1312.32 Z" fill="#000000" fill-rule="nonzero" fill-opacity="1" /><path clip-path="url(#clip800)" d="M50.9921 1037.22 L80.6679 1037.22 L80.6679 1041.16 L50.9921 1041.16 L50.9921 1037.22 Z" fill="#000000" fill-rule="nonzero" fill-opacity="1" /><path clip-path="url(#clip800)" d="M91.5706 1050.12 L99.2095 1050.12 L99.2095 1023.75 L90.8993 1025.42 L90.8993 1021.16 L99.1632 1019.49 L103.839 1019.49 L103.839 1050.12 L111.478 1050.12 L111.478 1054.05 L91.5706 1054.05 L91.5706 1050.12 Z" fill="#000000" fill-rule="nonzero" fill-opacity="1" /><path clip-path="url(#clip800)" d="M99.5335 760.372 Q95.9224 760.372 94.0937 763.937 Q92.2882 767.478 92.2882 774.608 Q92.2882 781.715 94.0937 785.279 Q95.9224 788.821 99.5335 788.821 Q103.168 788.821 104.973 785.279 Q106.802 781.715 106.802 774.608 Q106.802 767.478 104.973 763.937 Q103.168 760.372 99.5335 760.372 M99.5335 756.668 Q105.344 756.668 108.399 761.275 Q111.478 765.858 111.478 774.608 Q111.478 783.335 108.399 787.941 Q105.344 792.525 99.5335 792.525 Q93.7234 792.525 90.6447 787.941 Q87.5892 783.335 87.5892 774.608 Q87.5892 765.858 90.6447 761.275 Q93.7234 756.668 99.5335 756.668 Z" fill="#000000" fill-rule="nonzero" fill-opacity="1" /><path clip-path="url(#clip800)" d="M91.5706 525.718 L99.2095 525.718 L99.2095 499.353 L90.8993 501.019 L90.8993 496.76 L99.1632 495.093 L103.839 495.093 L103.839 525.718 L111.478 525.718 L111.478 529.653 L91.5706 529.653 L91.5706 525.718 Z" fill="#000000" fill-rule="nonzero" fill-opacity="1" /><path clip-path="url(#clip800)" d="M95.1586 263.518 L111.478 263.518 L111.478 267.454 L89.5336 267.454 L89.5336 263.518 Q92.1956 260.764 96.7789 256.134 Q101.385 251.481 102.566 250.139 Q104.811 247.616 105.691 245.88 Q106.594 244.12 106.594 242.431 Q106.594 239.676 104.649 237.94 Q102.728 236.204 99.6261 236.204 Q97.4271 236.204 94.9734 236.968 Q92.5428 237.731 89.7651 239.282 L89.7651 234.56 Q92.5891 233.426 95.0428 232.847 Q97.4965 232.269 99.5335 232.269 Q104.904 232.269 108.098 234.954 Q111.293 237.639 111.293 242.13 Q111.293 244.259 110.483 246.18 Q109.696 248.079 107.589 250.671 Q107.01 251.342 103.909 254.56 Q100.807 257.755 95.1586 263.518 Z" fill="#000000" fill-rule="nonzero" fill-opacity="1" /><circle clip-path="url(#clip802)" cx="2290.34" cy="906.91" r="14.4" fill="#009af9" fill-rule="evenodd" fill-opacity="0.5" stroke="#000000" stroke-opacity="0.5" stroke-width="3.2"/>
<circle clip-path="url(#clip802)" cx="1298.94" cy="573.668" r="14.4" fill="#009af9" fill-rule="evenodd" fill-opacity="0.5" stroke="#000000" stroke-opacity="0.5" stroke-width="3.2"/>
<circle clip-path="url(#clip802)" cx="670.502" cy="372.869" r="14.4" fill="#009af9" fill-rule="evenodd" fill-opacity="0.5" stroke="#000000" stroke-opacity="0.5" stroke-width="3.2"/>
<circle clip-path="url(#clip802)" cx="734.126" cy="370.32" r="14.4" fill="#009af9" fill-rule="evenodd" fill-opacity="0.5" stroke="#000000" stroke-opacity="0.5" stroke-width="3.2"/>
<circle clip-path="url(#clip802)" cx="1225.95" cy="790.753" r="14.4" fill="#009af9" fill-rule="evenodd" fill-opacity="0.5" stroke="#000000" stroke-opacity="0.5" stroke-width="3.2"/>
<circle clip-path="url(#clip802)" cx="1145.62" cy="342.778" r="14.4" fill="#009af9" fill-rule="evenodd" fill-opacity="0.5" stroke="#000000" stroke-opacity="0.5" stroke-width="3.2"/>
<circle clip-path="url(#clip802)" cx="1934.42" cy="1228.56" r="14.4" fill="#009af9" fill-rule="evenodd" fill-opacity="0.5" stroke="#000000" stroke-opacity="0.5" stroke-width="3.2"/>
<circle clip-path="url(#clip802)" cx="862.444" cy="438.567" r="14.4" fill="#009af9" fill-rule="evenodd" fill-opacity="0.5" stroke="#000000" stroke-opacity="0.5" stroke-width="3.2"/>
<circle clip-path="url(#clip802)" cx="1853.12" cy="777.696" r="14.4" fill="#009af9" fill-rule="evenodd" fill-opacity="0.5" stroke="#000000" stroke-opacity="0.5" stroke-width="3.2"/>
<circle clip-path="url(#clip802)" cx="1834.38" cy="850.662" r="14.4" fill="#009af9" fill-rule="evenodd" fill-opacity="0.5" stroke="#000000" stroke-opacity="0.5" stroke-width="3.2"/>
<circle clip-path="url(#clip802)" cx="1875.44" cy="911.467" r="14.4" fill="#009af9" fill-rule="evenodd" fill-opacity="0.5" stroke="#000000" stroke-opacity="0.5" stroke-width="3.2"/>
<circle clip-path="url(#clip802)" cx="1514.3" cy="553.484" r="14.4" fill="#009af9" fill-rule="evenodd" fill-opacity="0.5" stroke="#000000" stroke-opacity="0.5" stroke-width="3.2"/>
<circle clip-path="url(#clip802)" cx="1719.95" cy="685.211" r="14.4" fill="#009af9" fill-rule="evenodd" fill-opacity="0.5" stroke="#000000" stroke-opacity="0.5" stroke-width="3.2"/>
<circle clip-path="url(#clip802)" cx="209.891" cy="751.882" r="14.4" fill="#009af9" fill-rule="evenodd" fill-opacity="0.5" stroke="#000000" stroke-opacity="0.5" stroke-width="3.2"/>
<circle clip-path="url(#clip802)" cx="1099.55" cy="1253.79" r="14.4" fill="#009af9" fill-rule="evenodd" fill-opacity="0.5" stroke="#000000" stroke-opacity="0.5" stroke-width="3.2"/>
<circle clip-path="url(#clip802)" cx="1347.21" cy="1067.93" r="14.4" fill="#009af9" fill-rule="evenodd" fill-opacity="0.5" stroke="#000000" stroke-opacity="0.5" stroke-width="3.2"/>
<circle clip-path="url(#clip802)" cx="1364.77" cy="1267.76" r="14.4" fill="#009af9" fill-rule="evenodd" fill-opacity="0.5" stroke="#000000" stroke-opacity="0.5" stroke-width="3.2"/>
<circle clip-path="url(#clip802)" cx="1729.18" cy="525.408" r="14.4" fill="#009af9" fill-rule="evenodd" fill-opacity="0.5" stroke="#000000" stroke-opacity="0.5" stroke-width="3.2"/>
<circle clip-path="url(#clip802)" cx="1463.46" cy="87.9763" r="14.4" fill="#009af9" fill-rule="evenodd" fill-opacity="0.5" stroke="#000000" stroke-opacity="0.5" stroke-width="3.2"/>
<circle clip-path="url(#clip802)" cx="1554.97" cy="1044.27" r="14.4" fill="#009af9" fill-rule="evenodd" fill-opacity="0.5" stroke="#000000" stroke-opacity="0.5" stroke-width="3.2"/>
<circle clip-path="url(#clip802)" cx="1628.67" cy="875.877" r="14.4" fill="#009af9" fill-rule="evenodd" fill-opacity="0.5" stroke="#000000" stroke-opacity="0.5" stroke-width="3.2"/>
<circle clip-path="url(#clip802)" cx="849.618" cy="702.96" r="14.4" fill="#009af9" fill-rule="evenodd" fill-opacity="0.5" stroke="#000000" stroke-opacity="0.5" stroke-width="3.2"/>
<circle clip-path="url(#clip802)" cx="1424" cy="1445.72" r="14.4" fill="#009af9" fill-rule="evenodd" fill-opacity="0.5" stroke="#000000" stroke-opacity="0.5" stroke-width="3.2"/>
<circle clip-path="url(#clip802)" cx="409.947" cy="913.782" r="14.4" fill="#009af9" fill-rule="evenodd" fill-opacity="0.5" stroke="#000000" stroke-opacity="0.5" stroke-width="3.2"/>
<circle clip-path="url(#clip802)" cx="1102.49" cy="825.938" r="14.4" fill="#009af9" fill-rule="evenodd" fill-opacity="0.5" stroke="#000000" stroke-opacity="0.5" stroke-width="3.2"/>
<circle clip-path="url(#clip802)" cx="1433.16" cy="942.301" r="14.4" fill="#009af9" fill-rule="evenodd" fill-opacity="0.5" stroke="#000000" stroke-opacity="0.5" stroke-width="3.2"/>
<circle clip-path="url(#clip802)" cx="1284.16" cy="939.207" r="14.4" fill="#009af9" fill-rule="evenodd" fill-opacity="0.5" stroke="#000000" stroke-opacity="0.5" stroke-width="3.2"/>
<circle clip-path="url(#clip802)" cx="1322.11" cy="1072.16" r="14.4" fill="#009af9" fill-rule="evenodd" fill-opacity="0.5" stroke="#000000" stroke-opacity="0.5" stroke-width="3.2"/>
<circle clip-path="url(#clip802)" cx="968.635" cy="730.004" r="14.4" fill="#009af9" fill-rule="evenodd" fill-opacity="0.5" stroke="#000000" stroke-opacity="0.5" stroke-width="3.2"/>
<circle clip-path="url(#clip802)" cx="1103.94" cy="1189.7" r="14.4" fill="#009af9" fill-rule="evenodd" fill-opacity="0.5" stroke="#000000" stroke-opacity="0.5" stroke-width="3.2"/>
<path clip-path="url(#clip802)" d="M209.891 751.882 L409.947 913.782 L1424 1445.72 L1934.42 1228.56 L2290.34 906.91 L1463.46 87.9763 L670.502 372.869 L209.891 751.882 L209.891 751.882  Z" fill="#e26f46" fill-rule="evenodd" fill-opacity="0.2"/>
<polyline clip-path="url(#clip802)" style="stroke:#000000; stroke-linecap:round; stroke-linejoin:round; stroke-width:4; stroke-opacity:0.2; fill:none" points="209.891,751.882 409.947,913.782 1424,1445.72 1934.42,1228.56 2290.34,906.91 1463.46,87.9763 670.502,372.869 209.891,751.882 "/>
</svg>
