<?xml version="1.0" encoding="utf-8"?>
<svg xmlns="http://www.w3.org/2000/svg" xmlns:xlink="http://www.w3.org/1999/xlink" width="600" height="400" viewBox="0 0 2400 1600">
<defs>
  <clipPath id="clip980">
    <rect x="0" y="0" width="2400" height="1600"/>
  </clipPath>
</defs>
<path clip-path="url(#clip980)" d="M0 1600 L2400 1600 L2400 0 L0 0  Z" fill="#ffffff" fill-rule="evenodd" fill-opacity="1"/>
<defs>
  <clipPath id="clip981">
    <rect x="147" y="47" width="2206" height="1440"/>
  </clipPath>
</defs>
<path clip-path="url(#clip980)" d="M147.478 1486.45 L2352.76 1486.45 L2352.76 47.2441 L147.478 47.2441  Z" fill="#ffffff" fill-rule="evenodd" fill-opacity="1"/>
<polyline clip-path="url(#clip981)" style="stroke:#000000; stroke-linecap:round; stroke-linejoin:round; stroke-width:2; stroke-opacity:0.1; fill:none" points="285.447,1486.45 285.447,47.2441 "/>
<polyline clip-path="url(#clip981)" style="stroke:#000000; stroke-linecap:round; stroke-linejoin:round; stroke-width:2; stroke-opacity:0.1; fill:none" points="738.57,1486.45 738.57,47.2441 "/>
<polyline clip-path="url(#clip981)" style="stroke:#000000; stroke-linecap:round; stroke-linejoin:round; stroke-width:2; stroke-opacity:0.1; fill:none" points="1191.69,1486.45 1191.69,47.2441 "/>
<polyline clip-path="url(#clip981)" style="stroke:#000000; stroke-linecap:round; stroke-linejoin:round; stroke-width:2; stroke-opacity:0.1; fill:none" points="1644.82,1486.45 1644.82,47.2441 "/>
<polyline clip-path="url(#clip981)" style="stroke:#000000; stroke-linecap:round; stroke-linejoin:round; stroke-width:2; stroke-opacity:0.1; fill:none" points="2097.94,1486.45 2097.94,47.2441 "/>
<polyline clip-path="url(#clip981)" style="stroke:#000000; stroke-linecap:round; stroke-linejoin:round; stroke-width:2; stroke-opacity:0.1; fill:none" points="147.478,1459.64 2352.76,1459.64 "/>
<polyline clip-path="url(#clip981)" style="stroke:#000000; stroke-linecap:round; stroke-linejoin:round; stroke-width:2; stroke-opacity:0.1; fill:none" points="147.478,1087.48 2352.76,1087.48 "/>
<polyline clip-path="url(#clip981)" style="stroke:#000000; stroke-linecap:round; stroke-linejoin:round; stroke-width:2; stroke-opacity:0.1; fill:none" points="147.478,715.324 2352.76,715.324 "/>
<polyline clip-path="url(#clip981)" style="stroke:#000000; stroke-linecap:round; stroke-linejoin:round; stroke-width:2; stroke-opacity:0.1; fill:none" points="147.478,343.166 2352.76,343.166 "/>
<polyline clip-path="url(#clip980)" style="stroke:#000000; stroke-linecap:round; stroke-linejoin:round; stroke-width:4; stroke-opacity:1; fill:none" points="147.478,1486.45 2352.76,1486.45 "/>
<polyline clip-path="url(#clip980)" style="stroke:#000000; stroke-linecap:round; stroke-linejoin:round; stroke-width:4; stroke-opacity:1; fill:none" points="285.447,1486.45 285.447,1467.55 "/>
<polyline clip-path="url(#clip980)" style="stroke:#000000; stroke-linecap:round; stroke-linejoin:round; stroke-width:4; stroke-opacity:1; fill:none" points="738.57,1486.45 738.57,1467.55 "/>
<polyline clip-path="url(#clip980)" style="stroke:#000000; stroke-linecap:round; stroke-linejoin:round; stroke-width:4; stroke-opacity:1; fill:none" points="1191.69,1486.45 1191.69,1467.55 "/>
<polyline clip-path="url(#clip980)" style="stroke:#000000; stroke-linecap:round; stroke-linejoin:round; stroke-width:4; stroke-opacity:1; fill:none" points="1644.82,1486.45 1644.82,1467.55 "/>
<polyline clip-path="url(#clip980)" style="stroke:#000000; stroke-linecap:round; stroke-linejoin:round; stroke-width:4; stroke-opacity:1; fill:none" points="2097.94,1486.45 2097.94,1467.55 "/>
<path clip-path="url(#clip980)" d="M255.389 1532.02 L285.065 1532.02 L285.065 1535.95 L255.389 1535.95 L255.389 1532.02 Z" fill="#000000" fill-rule="nonzero" fill-opacity="1" /><path clip-path="url(#clip980)" d="M299.185 1544.91 L315.504 1544.91 L315.504 1548.85 L293.56 1548.85 L293.56 1544.91 Q296.222 1542.16 300.805 1537.53 Q305.412 1532.88 306.592 1531.53 Q308.838 1529.01 309.717 1527.27 Q310.62 1525.51 310.62 1523.82 Q310.62 1521.07 308.676 1519.33 Q306.754 1517.6 303.653 1517.6 Q301.453 1517.6 299 1518.36 Q296.569 1519.13 293.791 1520.68 L293.791 1515.95 Q296.616 1514.82 299.069 1514.24 Q301.523 1513.66 303.56 1513.66 Q308.93 1513.66 312.125 1516.35 Q315.319 1519.03 315.319 1523.52 Q315.319 1525.65 314.509 1527.57 Q313.722 1529.47 311.615 1532.07 Q311.037 1532.74 307.935 1535.95 Q304.833 1539.15 299.185 1544.91 Z" fill="#000000" fill-rule="nonzero" fill-opacity="1" /><path clip-path="url(#clip980)" d="M708.328 1532.02 L738.003 1532.02 L738.003 1535.95 L708.328 1535.95 L708.328 1532.02 Z" fill="#000000" fill-rule="nonzero" fill-opacity="1" /><path clip-path="url(#clip980)" d="M748.906 1544.91 L756.545 1544.91 L756.545 1518.55 L748.235 1520.21 L748.235 1515.95 L756.499 1514.29 L761.175 1514.29 L761.175 1544.91 L768.813 1544.91 L768.813 1548.85 L748.906 1548.85 L748.906 1544.91 Z" fill="#000000" fill-rule="nonzero" fill-opacity="1" /><path clip-path="url(#clip980)" d="M1191.69 1517.37 Q1188.08 1517.37 1186.25 1520.93 Q1184.45 1524.47 1184.45 1531.6 Q1184.45 1538.71 1186.25 1542.27 Q1188.08 1545.82 1191.69 1545.82 Q1195.33 1545.82 1197.13 1542.27 Q1198.96 1538.71 1198.96 1531.6 Q1198.96 1524.47 1197.13 1520.93 Q1195.33 1517.37 1191.69 1517.37 M1191.69 1513.66 Q1197.5 1513.66 1200.56 1518.27 Q1203.64 1522.85 1203.64 1531.6 Q1203.64 1540.33 1200.56 1544.94 Q1197.5 1549.52 1191.69 1549.52 Q1185.88 1549.52 1182.81 1544.94 Q1179.75 1540.33 1179.75 1531.6 Q1179.75 1522.85 1182.81 1518.27 Q1185.88 1513.66 1191.69 1513.66 Z" fill="#000000" fill-rule="nonzero" fill-opacity="1" /><path clip-path="url(#clip980)" d="M1635.2 1544.91 L1642.84 1544.91 L1642.84 1518.55 L1634.53 1520.21 L1634.53 1515.95 L1642.79 1514.29 L1647.47 1514.29 L1647.47 1544.91 L1655.11 1544.91 L1655.11 1548.85 L1635.2 1548.85 L1635.2 1544.91 Z" fill="#000000" fill-rule="nonzero" fill-opacity="1" /><path clip-path="url(#clip980)" d="M2092.59 1544.91 L2108.91 1544.91 L2108.91 1548.85 L2086.97 1548.85 L2086.97 1544.91 Q2089.63 1542.16 2094.22 1537.53 Q2098.82 1532.88 2100 1531.53 Q2102.25 1529.01 2103.13 1527.27 Q2104.03 1525.51 2104.03 1523.82 Q2104.03 1521.07 2102.09 1519.33 Q2100.16 1517.6 2097.06 1517.6 Q2094.86 1517.6 2092.41 1518.36 Q2089.98 1519.13 2087.2 1520.68 L2087.2 1515.95 Q2090.03 1514.82 2092.48 1514.24 Q2094.93 1513.66 2096.97 1513.66 Q2102.34 1513.66 2105.53 1516.35 Q2108.73 1519.03 2108.73 1523.52 Q2108.73 1525.65 2107.92 1527.57 Q2107.13 1529.47 2105.03 1532.07 Q2104.45 1532.74 2101.34 1535.95 Q2098.24 1539.15 2092.59 1544.91 Z" fill="#000000" fill-rule="nonzero" fill-opacity="1" /><polyline clip-path="url(#clip980)" style="stroke:#000000; stroke-linecap:round; stroke-linejoin:round; stroke-width:4; stroke-opacity:1; fill:none" points="147.478,1486.45 147.478,47.2441 "/>
<polyline clip-path="url(#clip980)" style="stroke:#000000; stroke-linecap:round; stroke-linejoin:round; stroke-width:4; stroke-opacity:1; fill:none" points="147.478,1459.64 166.376,1459.64 "/>
<polyline clip-path="url(#clip980)" style="stroke:#000000; stroke-linecap:round; stroke-linejoin:round; stroke-width:4; stroke-opacity:1; fill:none" points="147.478,1087.48 166.376,1087.48 "/>
<polyline clip-path="url(#clip980)" style="stroke:#000000; stroke-linecap:round; stroke-linejoin:round; stroke-width:4; stroke-opacity:1; fill:none" points="147.478,715.324 166.376,715.324 "/>
<polyline clip-path="url(#clip980)" style="stroke:#000000; stroke-linecap:round; stroke-linejoin:round; stroke-width:4; stroke-opacity:1; fill:none" points="147.478,343.166 166.376,343.166 "/>
<path clip-path="url(#clip980)" d="M51.3625 1460.09 L81.0383 1460.09 L81.0383 1464.03 L51.3625 1464.03 L51.3625 1460.09 Z" fill="#000000" fill-rule="nonzero" fill-opacity="1" /><path clip-path="url(#clip980)" d="M95.1586 1472.98 L111.478 1472.98 L111.478 1476.92 L89.5336 1476.92 L89.5336 1472.98 Q92.1956 1470.23 96.7789 1465.6 Q101.385 1460.95 102.566 1459.6 Q104.811 1457.08 105.691 1455.35 Q106.594 1453.59 106.594 1451.9 Q106.594 1449.14 104.649 1447.41 Q102.728 1445.67 99.6261 1445.67 Q97.4271 1445.67 94.9734 1446.43 Q92.5428 1447.2 89.7651 1448.75 L89.7651 1444.03 Q92.5891 1442.89 95.0428 1442.31 Q97.4965 1441.73 99.5335 1441.73 Q104.904 1441.73 108.098 1444.42 Q111.293 1447.1 111.293 1451.6 Q111.293 1453.73 110.483 1455.65 Q109.696 1457.54 107.589 1460.14 Q107.01 1460.81 103.909 1464.03 Q100.807 1467.22 95.1586 1472.98 Z" fill="#000000" fill-rule="nonzero" fill-opacity="1" /><path clip-path="url(#clip980)" d="M50.9921 1087.93 L80.6679 1087.93 L80.6679 1091.87 L50.9921 1091.87 L50.9921 1087.93 Z" fill="#000000" fill-rule="nonzero" fill-opacity="1" /><path clip-path="url(#clip980)" d="M91.5706 1100.83 L99.2095 1100.83 L99.2095 1074.46 L90.8993 1076.13 L90.8993 1071.87 L99.1632 1070.2 L103.839 1070.2 L103.839 1100.83 L111.478 1100.83 L111.478 1104.76 L91.5706 1104.76 L91.5706 1100.83 Z" fill="#000000" fill-rule="nonzero" fill-opacity="1" /><path clip-path="url(#clip980)" d="M99.5335 701.122 Q95.9224 701.122 94.0937 704.687 Q92.2882 708.229 92.2882 715.358 Q92.2882 722.465 94.0937 726.03 Q95.9224 729.571 99.5335 729.571 Q103.168 729.571 104.973 726.03 Q106.802 722.465 106.802 715.358 Q106.802 708.229 104.973 704.687 Q103.168 701.122 99.5335 701.122 M99.5335 697.419 Q105.344 697.419 108.399 702.025 Q111.478 706.609 111.478 715.358 Q111.478 724.085 108.399 728.692 Q105.344 733.275 99.5335 733.275 Q93.7234 733.275 90.6447 728.692 Q87.5892 724.085 87.5892 715.358 Q87.5892 706.609 90.6447 702.025 Q93.7234 697.419 99.5335 697.419 Z" fill="#000000" fill-rule="nonzero" fill-opacity="1" /><path clip-path="url(#clip980)" d="M91.5706 356.511 L99.2095 356.511 L99.2095 330.145 L90.8993 331.812 L90.8993 327.553 L99.1632 325.886 L103.839 325.886 L103.839 356.511 L111.478 356.511 L111.478 360.446 L91.5706 360.446 L91.5706 356.511 Z" fill="#000000" fill-rule="nonzero" fill-opacity="1" /><circle clip-path="url(#clip981)" cx="1133.52" cy="1156.84" r="14.4" fill="#009af9" fill-rule="evenodd" fill-opacity="0.5" stroke="#000000" stroke-opacity="0.5" stroke-width="3.2"/>
<circle clip-path="url(#clip981)" cx="1918.35" cy="931.045" r="14.4" fill="#009af9" fill-rule="evenodd" fill-opacity="0.5" stroke="#000000" stroke-opacity="0.5" stroke-width="3.2"/>
<circle clip-path="url(#clip981)" cx="1776.66" cy="1423.28" r="14.4" fill="#009af9" fill-rule="evenodd" fill-opacity="0.5" stroke="#000000" stroke-opacity="0.5" stroke-width="3.2"/>
<circle clip-path="url(#clip981)" cx="877.492" cy="1209.66" r="14.4" fill="#009af9" fill-rule="evenodd" fill-opacity="0.5" stroke="#000000" stroke-opacity="0.5" stroke-width="3.2"/>
<circle clip-path="url(#clip981)" cx="2290.34" cy="726.162" r="14.4" fill="#009af9" fill-rule="evenodd" fill-opacity="0.5" stroke="#000000" stroke-opacity="0.5" stroke-width="3.2"/>
<circle clip-path="url(#clip981)" cx="715.229" cy="505.818" r="14.4" fill="#009af9" fill-rule="evenodd" fill-opacity="0.5" stroke="#000000" stroke-opacity="0.5" stroke-width="3.2"/>
<circle clip-path="url(#clip981)" cx="1605.93" cy="499.749" r="14.4" fill="#009af9" fill-rule="evenodd" fill-opacity="0.5" stroke="#000000" stroke-opacity="0.5" stroke-width="3.2"/>
<circle clip-path="url(#clip981)" cx="1048.29" cy="671.072" r="14.4" fill="#009af9" fill-rule="evenodd" fill-opacity="0.5" stroke="#000000" stroke-opacity="0.5" stroke-width="3.2"/>
<circle clip-path="url(#clip981)" cx="973.757" cy="1056.44" r="14.4" fill="#009af9" fill-rule="evenodd" fill-opacity="0.5" stroke="#000000" stroke-opacity="0.5" stroke-width="3.2"/>
<circle clip-path="url(#clip981)" cx="1154.38" cy="87.9763" r="14.4" fill="#009af9" fill-rule="evenodd" fill-opacity="0.5" stroke="#000000" stroke-opacity="0.5" stroke-width="3.2"/>
<circle clip-path="url(#clip981)" cx="2267.69" cy="486.413" r="14.4" fill="#009af9" fill-rule="evenodd" fill-opacity="0.5" stroke="#000000" stroke-opacity="0.5" stroke-width="3.2"/>
<circle clip-path="url(#clip981)" cx="1384.46" cy="1445.72" r="14.4" fill="#009af9" fill-rule="evenodd" fill-opacity="0.5" stroke="#000000" stroke-opacity="0.5" stroke-width="3.2"/>
<circle clip-path="url(#clip981)" cx="1164.4" cy="797.085" r="14.4" fill="#009af9" fill-rule="evenodd" fill-opacity="0.5" stroke="#000000" stroke-opacity="0.5" stroke-width="3.2"/>
<circle clip-path="url(#clip981)" cx="529.411" cy="526.389" r="14.4" fill="#009af9" fill-rule="evenodd" fill-opacity="0.5" stroke="#000000" stroke-opacity="0.5" stroke-width="3.2"/>
<circle clip-path="url(#clip981)" cx="1588.03" cy="256.509" r="14.4" fill="#009af9" fill-rule="evenodd" fill-opacity="0.5" stroke="#000000" stroke-opacity="0.5" stroke-width="3.2"/>
<circle clip-path="url(#clip981)" cx="740.123" cy="970.601" r="14.4" fill="#009af9" fill-rule="evenodd" fill-opacity="0.5" stroke="#000000" stroke-opacity="0.5" stroke-width="3.2"/>
<circle clip-path="url(#clip981)" cx="1189.46" cy="958.11" r="14.4" fill="#009af9" fill-rule="evenodd" fill-opacity="0.5" stroke="#000000" stroke-opacity="0.5" stroke-width="3.2"/>
<circle clip-path="url(#clip981)" cx="1427.21" cy="760.863" r="14.4" fill="#009af9" fill-rule="evenodd" fill-opacity="0.5" stroke="#000000" stroke-opacity="0.5" stroke-width="3.2"/>
<circle clip-path="url(#clip981)" cx="654.684" cy="367.042" r="14.4" fill="#009af9" fill-rule="evenodd" fill-opacity="0.5" stroke="#000000" stroke-opacity="0.5" stroke-width="3.2"/>
<circle clip-path="url(#clip981)" cx="1305.9" cy="419.537" r="14.4" fill="#009af9" fill-rule="evenodd" fill-opacity="0.5" stroke="#000000" stroke-opacity="0.5" stroke-width="3.2"/>
<circle clip-path="url(#clip981)" cx="2176.84" cy="786.656" r="14.4" fill="#009af9" fill-rule="evenodd" fill-opacity="0.5" stroke="#000000" stroke-opacity="0.5" stroke-width="3.2"/>
<circle clip-path="url(#clip981)" cx="695.659" cy="730.463" r="14.4" fill="#009af9" fill-rule="evenodd" fill-opacity="0.5" stroke="#000000" stroke-opacity="0.5" stroke-width="3.2"/>
<circle clip-path="url(#clip981)" cx="1559.03" cy="638.971" r="14.4" fill="#009af9" fill-rule="evenodd" fill-opacity="0.5" stroke="#000000" stroke-opacity="0.5" stroke-width="3.2"/>
<circle clip-path="url(#clip981)" cx="374.662" cy="1066.84" r="14.4" fill="#009af9" fill-rule="evenodd" fill-opacity="0.5" stroke="#000000" stroke-opacity="0.5" stroke-width="3.2"/>
<circle clip-path="url(#clip981)" cx="1289.42" cy="855.61" r="14.4" fill="#009af9" fill-rule="evenodd" fill-opacity="0.5" stroke="#000000" stroke-opacity="0.5" stroke-width="3.2"/>
<circle clip-path="url(#clip981)" cx="752.308" cy="198.348" r="14.4" fill="#009af9" fill-rule="evenodd" fill-opacity="0.5" stroke="#000000" stroke-opacity="0.5" stroke-width="3.2"/>
<circle clip-path="url(#clip981)" cx="209.891" cy="395.192" r="14.4" fill="#009af9" fill-rule="evenodd" fill-opacity="0.5" stroke="#000000" stroke-opacity="0.5" stroke-width="3.2"/>
<circle clip-path="url(#clip981)" cx="1016.06" cy="525.983" r="14.4" fill="#009af9" fill-rule="evenodd" fill-opacity="0.5" stroke="#000000" stroke-opacity="0.5" stroke-width="3.2"/>
<circle clip-path="url(#clip981)" cx="950.871" cy="614.361" r="14.4" fill="#009af9" fill-rule="evenodd" fill-opacity="0.5" stroke="#000000" stroke-opacity="0.5" stroke-width="3.2"/>
<circle clip-path="url(#clip981)" cx="1165.05" cy="1197.43" r="14.4" fill="#009af9" fill-rule="evenodd" fill-opacity="0.5" stroke="#000000" stroke-opacity="0.5" stroke-width="3.2"/>
<path clip-path="url(#clip981)" d="M209.891 395.192 L374.662 1066.84 L1384.46 1445.72 L1776.66 1423.28 L2290.34 726.162 L2267.69 486.413 L1154.38 87.9763 L752.308 198.348 L209.891 395.192 L209.891 395.192  Z" fill="#e26f46" fill-rule="evenodd" fill-opacity="0.2"/>
<polyline clip-path="url(#clip981)" style="stroke:#000000; stroke-linecap:round; stroke-linejoin:round; stroke-width:4; stroke-opacity:0.2; fill:none" points="209.891,395.192 374.662,1066.84 1384.46,1445.72 1776.66,1423.28 2290.34,726.162 2267.69,486.413 1154.38,87.9763 752.308,198.348 209.891,395.192 "/>
</svg>
