<?xml version="1.0" encoding="utf-8"?>
<svg xmlns="http://www.w3.org/2000/svg" xmlns:xlink="http://www.w3.org/1999/xlink" width="600" height="400" viewBox="0 0 2400 1600">
<defs>
  <clipPath id="clip570">
    <rect x="0" y="0" width="2400" height="1600"/>
  </clipPath>
</defs>
<path clip-path="url(#clip570)" d="M0 1600 L2400 1600 L2400 0 L0 0  Z" fill="#ffffff" fill-rule="evenodd" fill-opacity="1"/>
<defs>
  <clipPath id="clip571">
    <rect x="480" y="0" width="1681" height="1600"/>
  </clipPath>
</defs>
<path clip-path="url(#clip570)" d="M193.936 1486.45 L2352.76 1486.45 L2352.76 47.2441 L193.936 47.2441  Z" fill="#ffffff" fill-rule="evenodd" fill-opacity="1"/>
<defs>
  <clipPath id="clip572">
    <rect x="193" y="47" width="2160" height="1440"/>
  </clipPath>
</defs>
<polyline clip-path="url(#clip572)" style="stroke:#000000; stroke-linecap:round; stroke-linejoin:round; stroke-width:2; stroke-opacity:0.1; fill:none" points="635.07,1486.45 635.07,47.2441 "/>
<polyline clip-path="url(#clip572)" style="stroke:#000000; stroke-linecap:round; stroke-linejoin:round; stroke-width:2; stroke-opacity:0.1; fill:none" points="1177.82,1486.45 1177.82,47.2441 "/>
<polyline clip-path="url(#clip572)" style="stroke:#000000; stroke-linecap:round; stroke-linejoin:round; stroke-width:2; stroke-opacity:0.1; fill:none" points="1720.58,1486.45 1720.58,47.2441 "/>
<polyline clip-path="url(#clip572)" style="stroke:#000000; stroke-linecap:round; stroke-linejoin:round; stroke-width:2; stroke-opacity:0.1; fill:none" points="2263.33,1486.45 2263.33,47.2441 "/>
<polyline clip-path="url(#clip572)" style="stroke:#000000; stroke-linecap:round; stroke-linejoin:round; stroke-width:2; stroke-opacity:0.1; fill:none" points="193.936,1378.07 2352.76,1378.07 "/>
<polyline clip-path="url(#clip572)" style="stroke:#000000; stroke-linecap:round; stroke-linejoin:round; stroke-width:2; stroke-opacity:0.1; fill:none" points="193.936,1128.32 2352.76,1128.32 "/>
<polyline clip-path="url(#clip572)" style="stroke:#000000; stroke-linecap:round; stroke-linejoin:round; stroke-width:2; stroke-opacity:0.1; fill:none" points="193.936,878.572 2352.76,878.572 "/>
<polyline clip-path="url(#clip572)" style="stroke:#000000; stroke-linecap:round; stroke-linejoin:round; stroke-width:2; stroke-opacity:0.1; fill:none" points="193.936,628.821 2352.76,628.821 "/>
<polyline clip-path="url(#clip572)" style="stroke:#000000; stroke-linecap:round; stroke-linejoin:round; stroke-width:2; stroke-opacity:0.1; fill:none" points="193.936,379.07 2352.76,379.07 "/>
<polyline clip-path="url(#clip572)" style="stroke:#000000; stroke-linecap:round; stroke-linejoin:round; stroke-width:2; stroke-opacity:0.1; fill:none" points="193.936,129.319 2352.76,129.319 "/>
<polyline clip-path="url(#clip570)" style="stroke:#000000; stroke-linecap:round; stroke-linejoin:round; stroke-width:4; stroke-opacity:1; fill:none" points="193.936,1486.45 2352.76,1486.45 "/>
<polyline clip-path="url(#clip570)" style="stroke:#000000; stroke-linecap:round; stroke-linejoin:round; stroke-width:4; stroke-opacity:1; fill:none" points="635.07,1486.45 635.07,1467.55 "/>
<polyline clip-path="url(#clip570)" style="stroke:#000000; stroke-linecap:round; stroke-linejoin:round; stroke-width:4; stroke-opacity:1; fill:none" points="1177.82,1486.45 1177.82,1467.55 "/>
<polyline clip-path="url(#clip570)" style="stroke:#000000; stroke-linecap:round; stroke-linejoin:round; stroke-width:4; stroke-opacity:1; fill:none" points="1720.58,1486.45 1720.58,1467.55 "/>
<polyline clip-path="url(#clip570)" style="stroke:#000000; stroke-linecap:round; stroke-linejoin:round; stroke-width:4; stroke-opacity:1; fill:none" points="2263.33,1486.45 2263.33,1467.55 "/>
<path clip-path="url(#clip570)" d="M604.827 1532.02 L634.503 1532.02 L634.503 1535.95 L604.827 1535.95 L604.827 1532.02 Z" fill="#000000" fill-rule="nonzero" fill-opacity="1" /><path clip-path="url(#clip570)" d="M645.406 1544.91 L653.045 1544.91 L653.045 1518.55 L644.734 1520.21 L644.734 1515.95 L652.998 1514.29 L657.674 1514.29 L657.674 1544.91 L665.313 1544.91 L665.313 1548.85 L645.406 1548.85 L645.406 1544.91 Z" fill="#000000" fill-rule="nonzero" fill-opacity="1" /><path clip-path="url(#clip570)" d="M1177.82 1517.37 Q1174.21 1517.37 1172.38 1520.93 Q1170.58 1524.47 1170.58 1531.6 Q1170.58 1538.71 1172.38 1542.27 Q1174.21 1545.82 1177.82 1545.82 Q1181.46 1545.82 1183.26 1542.27 Q1185.09 1538.71 1185.09 1531.6 Q1185.09 1524.47 1183.26 1520.93 Q1181.46 1517.37 1177.82 1517.37 M1177.82 1513.66 Q1183.63 1513.66 1186.69 1518.27 Q1189.77 1522.85 1189.77 1531.6 Q1189.77 1540.33 1186.69 1544.94 Q1183.63 1549.52 1177.82 1549.52 Q1172.01 1549.52 1168.94 1544.94 Q1165.88 1540.33 1165.88 1531.6 Q1165.88 1522.85 1168.94 1518.27 Q1172.01 1513.66 1177.82 1513.66 Z" fill="#000000" fill-rule="nonzero" fill-opacity="1" /><path clip-path="url(#clip570)" d="M1710.96 1544.91 L1718.6 1544.91 L1718.6 1518.55 L1710.29 1520.21 L1710.29 1515.95 L1718.55 1514.29 L1723.23 1514.29 L1723.23 1544.91 L1730.87 1544.91 L1730.87 1548.85 L1710.96 1548.85 L1710.96 1544.91 Z" fill="#000000" fill-rule="nonzero" fill-opacity="1" /><path clip-path="url(#clip570)" d="M2257.98 1544.91 L2274.3 1544.91 L2274.3 1548.85 L2252.36 1548.85 L2252.36 1544.91 Q2255.02 1542.16 2259.6 1537.53 Q2264.21 1532.88 2265.39 1531.53 Q2267.64 1529.01 2268.52 1527.27 Q2269.42 1525.51 2269.42 1523.82 Q2269.42 1521.07 2267.48 1519.33 Q2265.55 1517.6 2262.45 1517.6 Q2260.25 1517.6 2257.8 1518.36 Q2255.37 1519.13 2252.59 1520.68 L2252.59 1515.95 Q2255.41 1514.82 2257.87 1514.24 Q2260.32 1513.66 2262.36 1513.66 Q2267.73 1513.66 2270.92 1516.35 Q2274.12 1519.03 2274.12 1523.52 Q2274.12 1525.65 2273.31 1527.57 Q2272.52 1529.47 2270.41 1532.07 Q2269.84 1532.74 2266.73 1535.95 Q2263.63 1539.15 2257.98 1544.91 Z" fill="#000000" fill-rule="nonzero" fill-opacity="1" /><polyline clip-path="url(#clip570)" style="stroke:#000000; stroke-linecap:round; stroke-linejoin:round; stroke-width:4; stroke-opacity:1; fill:none" points="193.936,1486.45 193.936,47.2441 "/>
<polyline clip-path="url(#clip570)" style="stroke:#000000; stroke-linecap:round; stroke-linejoin:round; stroke-width:4; stroke-opacity:1; fill:none" points="193.936,1378.07 212.834,1378.07 "/>
<polyline clip-path="url(#clip570)" style="stroke:#000000; stroke-linecap:round; stroke-linejoin:round; stroke-width:4; stroke-opacity:1; fill:none" points="193.936,1128.32 212.834,1128.32 "/>
<polyline clip-path="url(#clip570)" style="stroke:#000000; stroke-linecap:round; stroke-linejoin:round; stroke-width:4; stroke-opacity:1; fill:none" points="193.936,878.572 212.834,878.572 "/>
<polyline clip-path="url(#clip570)" style="stroke:#000000; stroke-linecap:round; stroke-linejoin:round; stroke-width:4; stroke-opacity:1; fill:none" points="193.936,628.821 212.834,628.821 "/>
<polyline clip-path="url(#clip570)" style="stroke:#000000; stroke-linecap:round; stroke-linejoin:round; stroke-width:4; stroke-opacity:1; fill:none" points="193.936,379.07 212.834,379.07 "/>
<polyline clip-path="url(#clip570)" style="stroke:#000000; stroke-linecap:round; stroke-linejoin:round; stroke-width:4; stroke-opacity:1; fill:none" points="193.936,129.319 212.834,129.319 "/>
<path clip-path="url(#clip570)" d="M50.9921 1378.53 L80.6679 1378.53 L80.6679 1382.46 L50.9921 1382.46 L50.9921 1378.53 Z" fill="#000000" fill-rule="nonzero" fill-opacity="1" /><path clip-path="url(#clip570)" d="M91.5706 1391.42 L99.2095 1391.42 L99.2095 1365.05 L90.8993 1366.72 L90.8993 1362.46 L99.1632 1360.79 L103.839 1360.79 L103.839 1391.42 L111.478 1391.42 L111.478 1395.35 L91.5706 1395.35 L91.5706 1391.42 Z" fill="#000000" fill-rule="nonzero" fill-opacity="1" /><path clip-path="url(#clip570)" d="M120.922 1389.47 L125.807 1389.47 L125.807 1395.35 L120.922 1395.35 L120.922 1389.47 Z" fill="#000000" fill-rule="nonzero" fill-opacity="1" /><path clip-path="url(#clip570)" d="M145.992 1363.87 Q142.381 1363.87 140.552 1367.44 Q138.746 1370.98 138.746 1378.11 Q138.746 1385.21 140.552 1388.78 Q142.381 1392.32 145.992 1392.32 Q149.626 1392.32 151.431 1388.78 Q153.26 1385.21 153.26 1378.11 Q153.26 1370.98 151.431 1367.44 Q149.626 1363.87 145.992 1363.87 M145.992 1360.17 Q151.802 1360.17 154.857 1364.78 Q157.936 1369.36 157.936 1378.11 Q157.936 1386.84 154.857 1391.44 Q151.802 1396.03 145.992 1396.03 Q140.181 1396.03 137.103 1391.44 Q134.047 1386.84 134.047 1378.11 Q134.047 1369.36 137.103 1364.78 Q140.181 1360.17 145.992 1360.17 Z" fill="#000000" fill-rule="nonzero" fill-opacity="1" /><path clip-path="url(#clip570)" d="M51.9875 1128.77 L81.6633 1128.77 L81.6633 1132.71 L51.9875 1132.71 L51.9875 1128.77 Z" fill="#000000" fill-rule="nonzero" fill-opacity="1" /><path clip-path="url(#clip570)" d="M101.756 1114.12 Q98.1447 1114.12 96.316 1117.69 Q94.5104 1121.23 94.5104 1128.36 Q94.5104 1135.46 96.316 1139.03 Q98.1447 1142.57 101.756 1142.57 Q105.39 1142.57 107.196 1139.03 Q109.024 1135.46 109.024 1128.36 Q109.024 1121.23 107.196 1117.69 Q105.39 1114.12 101.756 1114.12 M101.756 1110.42 Q107.566 1110.42 110.621 1115.02 Q113.7 1119.61 113.7 1128.36 Q113.7 1137.08 110.621 1141.69 Q107.566 1146.27 101.756 1146.27 Q95.9456 1146.27 92.8669 1141.69 Q89.8114 1137.08 89.8114 1128.36 Q89.8114 1119.61 92.8669 1115.02 Q95.9456 1110.42 101.756 1110.42 Z" fill="#000000" fill-rule="nonzero" fill-opacity="1" /><path clip-path="url(#clip570)" d="M121.918 1139.72 L126.802 1139.72 L126.802 1145.6 L121.918 1145.6 L121.918 1139.72 Z" fill="#000000" fill-rule="nonzero" fill-opacity="1" /><path clip-path="url(#clip570)" d="M137.033 1111.04 L155.39 1111.04 L155.39 1114.98 L141.316 1114.98 L141.316 1123.45 Q142.334 1123.1 143.353 1122.94 Q144.371 1122.76 145.39 1122.76 Q151.177 1122.76 154.556 1125.93 Q157.936 1129.1 157.936 1134.52 Q157.936 1140.09 154.464 1143.2 Q150.992 1146.27 144.672 1146.27 Q142.496 1146.27 140.228 1145.9 Q137.982 1145.53 135.575 1144.79 L135.575 1140.09 Q137.658 1141.23 139.881 1141.78 Q142.103 1142.34 144.58 1142.34 Q148.584 1142.34 150.922 1140.23 Q153.26 1138.13 153.26 1134.52 Q153.26 1130.9 150.922 1128.8 Q148.584 1126.69 144.58 1126.69 Q142.705 1126.69 140.83 1127.11 Q138.978 1127.52 137.033 1128.4 L137.033 1111.04 Z" fill="#000000" fill-rule="nonzero" fill-opacity="1" /><path clip-path="url(#clip570)" d="M100.76 864.371 Q97.1493 864.371 95.3206 867.935 Q93.515 871.477 93.515 878.607 Q93.515 885.713 95.3206 889.278 Q97.1493 892.82 100.76 892.82 Q104.395 892.82 106.2 889.278 Q108.029 885.713 108.029 878.607 Q108.029 871.477 106.2 867.935 Q104.395 864.371 100.76 864.371 M100.76 860.667 Q106.571 860.667 109.626 865.273 Q112.705 869.857 112.705 878.607 Q112.705 887.334 109.626 891.94 Q106.571 896.523 100.76 896.523 Q94.9502 896.523 91.8715 891.94 Q88.816 887.334 88.816 878.607 Q88.816 869.857 91.8715 865.273 Q94.9502 860.667 100.76 860.667 Z" fill="#000000" fill-rule="nonzero" fill-opacity="1" /><path clip-path="url(#clip570)" d="M120.922 889.972 L125.807 889.972 L125.807 895.852 L120.922 895.852 L120.922 889.972 Z" fill="#000000" fill-rule="nonzero" fill-opacity="1" /><path clip-path="url(#clip570)" d="M145.992 864.371 Q142.381 864.371 140.552 867.935 Q138.746 871.477 138.746 878.607 Q138.746 885.713 140.552 889.278 Q142.381 892.82 145.992 892.82 Q149.626 892.82 151.431 889.278 Q153.26 885.713 153.26 878.607 Q153.26 871.477 151.431 867.935 Q149.626 864.371 145.992 864.371 M145.992 860.667 Q151.802 860.667 154.857 865.273 Q157.936 869.857 157.936 878.607 Q157.936 887.334 154.857 891.94 Q151.802 896.523 145.992 896.523 Q140.181 896.523 137.103 891.94 Q134.047 887.334 134.047 878.607 Q134.047 869.857 137.103 865.273 Q140.181 860.667 145.992 860.667 Z" fill="#000000" fill-rule="nonzero" fill-opacity="1" /><path clip-path="url(#clip570)" d="M101.756 614.62 Q98.1447 614.62 96.316 618.185 Q94.5104 621.726 94.5104 628.856 Q94.5104 635.962 96.316 639.527 Q98.1447 643.069 101.756 643.069 Q105.39 643.069 107.196 639.527 Q109.024 635.962 109.024 628.856 Q109.024 621.726 107.196 618.185 Q105.39 614.62 101.756 614.62 M101.756 610.916 Q107.566 610.916 110.621 615.523 Q113.7 620.106 113.7 628.856 Q113.7 637.583 110.621 642.189 Q107.566 646.772 101.756 646.772 Q95.9456 646.772 92.8669 642.189 Q89.8114 637.583 89.8114 628.856 Q89.8114 620.106 92.8669 615.523 Q95.9456 610.916 101.756 610.916 Z" fill="#000000" fill-rule="nonzero" fill-opacity="1" /><path clip-path="url(#clip570)" d="M121.918 640.222 L126.802 640.222 L126.802 646.101 L121.918 646.101 L121.918 640.222 Z" fill="#000000" fill-rule="nonzero" fill-opacity="1" /><path clip-path="url(#clip570)" d="M137.033 611.541 L155.39 611.541 L155.39 615.476 L141.316 615.476 L141.316 623.948 Q142.334 623.601 143.353 623.439 Q144.371 623.254 145.39 623.254 Q151.177 623.254 154.556 626.425 Q157.936 629.597 157.936 635.013 Q157.936 640.592 154.464 643.694 Q150.992 646.772 144.672 646.772 Q142.496 646.772 140.228 646.402 Q137.982 646.032 135.575 645.291 L135.575 640.592 Q137.658 641.726 139.881 642.282 Q142.103 642.837 144.58 642.837 Q148.584 642.837 150.922 640.731 Q153.26 638.624 153.26 635.013 Q153.26 631.402 150.922 629.296 Q148.584 627.189 144.58 627.189 Q142.705 627.189 140.83 627.606 Q138.978 628.022 137.033 628.902 L137.033 611.541 Z" fill="#000000" fill-rule="nonzero" fill-opacity="1" /><path clip-path="url(#clip570)" d="M91.5706 392.415 L99.2095 392.415 L99.2095 366.049 L90.8993 367.716 L90.8993 363.457 L99.1632 361.79 L103.839 361.79 L103.839 392.415 L111.478 392.415 L111.478 396.35 L91.5706 396.35 L91.5706 392.415 Z" fill="#000000" fill-rule="nonzero" fill-opacity="1" /><path clip-path="url(#clip570)" d="M120.922 390.471 L125.807 390.471 L125.807 396.35 L120.922 396.35 L120.922 390.471 Z" fill="#000000" fill-rule="nonzero" fill-opacity="1" /><path clip-path="url(#clip570)" d="M145.992 364.869 Q142.381 364.869 140.552 368.434 Q138.746 371.975 138.746 379.105 Q138.746 386.211 140.552 389.776 Q142.381 393.318 145.992 393.318 Q149.626 393.318 151.431 389.776 Q153.26 386.211 153.26 379.105 Q153.26 371.975 151.431 368.434 Q149.626 364.869 145.992 364.869 M145.992 361.165 Q151.802 361.165 154.857 365.772 Q157.936 370.355 157.936 379.105 Q157.936 387.832 154.857 392.438 Q151.802 397.021 145.992 397.021 Q140.181 397.021 137.103 392.438 Q134.047 387.832 134.047 379.105 Q134.047 370.355 137.103 365.772 Q140.181 361.165 145.992 361.165 Z" fill="#000000" fill-rule="nonzero" fill-opacity="1" /><path clip-path="url(#clip570)" d="M92.566 142.664 L100.205 142.664 L100.205 116.299 L91.8947 117.965 L91.8947 113.706 L100.159 112.039 L104.834 112.039 L104.834 142.664 L112.473 142.664 L112.473 146.599 L92.566 146.599 L92.566 142.664 Z" fill="#000000" fill-rule="nonzero" fill-opacity="1" /><path clip-path="url(#clip570)" d="M121.918 140.72 L126.802 140.72 L126.802 146.599 L121.918 146.599 L121.918 140.72 Z" fill="#000000" fill-rule="nonzero" fill-opacity="1" /><path clip-path="url(#clip570)" d="M137.033 112.039 L155.39 112.039 L155.39 115.974 L141.316 115.974 L141.316 124.447 Q142.334 124.099 143.353 123.937 Q144.371 123.752 145.39 123.752 Q151.177 123.752 154.556 126.923 Q157.936 130.095 157.936 135.511 Q157.936 141.09 154.464 144.192 Q150.992 147.271 144.672 147.271 Q142.496 147.271 140.228 146.9 Q137.982 146.53 135.575 145.789 L135.575 141.09 Q137.658 142.224 139.881 142.78 Q142.103 143.335 144.58 143.335 Q148.584 143.335 150.922 141.229 Q153.26 139.122 153.26 135.511 Q153.26 131.9 150.922 129.794 Q148.584 127.687 144.58 127.687 Q142.705 127.687 140.83 128.104 Q138.978 128.521 137.033 129.4 L137.033 112.039 Z" fill="#000000" fill-rule="nonzero" fill-opacity="1" /><circle clip-path="url(#clip572)" cx="519.597" cy="897.082" r="14.4" fill="#009af9" fill-rule="evenodd" fill-opacity="0.5" stroke="#000000" stroke-opacity="0.5" stroke-width="3.2"/>
<circle clip-path="url(#clip572)" cx="700.685" cy="861.319" r="14.4" fill="#009af9" fill-rule="evenodd" fill-opacity="0.5" stroke="#000000" stroke-opacity="0.5" stroke-width="3.2"/>
<circle clip-path="url(#clip572)" cx="558.588" cy="1177.11" r="14.4" fill="#009af9" fill-rule="evenodd" fill-opacity="0.5" stroke="#000000" stroke-opacity="0.5" stroke-width="3.2"/>
<circle clip-path="url(#clip572)" cx="2013.05" cy="210.703" r="14.4" fill="#009af9" fill-rule="evenodd" fill-opacity="0.5" stroke="#000000" stroke-opacity="0.5" stroke-width="3.2"/>
<circle clip-path="url(#clip572)" cx="1390.92" cy="610.994" r="14.4" fill="#009af9" fill-rule="evenodd" fill-opacity="0.5" stroke="#000000" stroke-opacity="0.5" stroke-width="3.2"/>
<circle clip-path="url(#clip572)" cx="1997.48" cy="644.663" r="14.4" fill="#009af9" fill-rule="evenodd" fill-opacity="0.5" stroke="#000000" stroke-opacity="0.5" stroke-width="3.2"/>
<circle clip-path="url(#clip572)" cx="1579.46" cy="1428.66" r="14.4" fill="#009af9" fill-rule="evenodd" fill-opacity="0.5" stroke="#000000" stroke-opacity="0.5" stroke-width="3.2"/>
<circle clip-path="url(#clip572)" cx="1243.86" cy="1006.06" r="14.4" fill="#009af9" fill-rule="evenodd" fill-opacity="0.5" stroke="#000000" stroke-opacity="0.5" stroke-width="3.2"/>
<circle clip-path="url(#clip572)" cx="702.816" cy="774.443" r="14.4" fill="#009af9" fill-rule="evenodd" fill-opacity="0.5" stroke="#000000" stroke-opacity="0.5" stroke-width="3.2"/>
<circle clip-path="url(#clip572)" cx="928.128" cy="102.17" r="14.4" fill="#009af9" fill-rule="evenodd" fill-opacity="0.5" stroke="#000000" stroke-opacity="0.5" stroke-width="3.2"/>
<circle clip-path="url(#clip572)" cx="902.624" cy="87.9763" r="14.4" fill="#009af9" fill-rule="evenodd" fill-opacity="0.5" stroke="#000000" stroke-opacity="0.5" stroke-width="3.2"/>
<circle clip-path="url(#clip572)" cx="1322.34" cy="783.69" r="14.4" fill="#009af9" fill-rule="evenodd" fill-opacity="0.5" stroke="#000000" stroke-opacity="0.5" stroke-width="3.2"/>
<circle clip-path="url(#clip572)" cx="1248.25" cy="1176.41" r="14.4" fill="#009af9" fill-rule="evenodd" fill-opacity="0.5" stroke="#000000" stroke-opacity="0.5" stroke-width="3.2"/>
<circle clip-path="url(#clip572)" cx="657.285" cy="545.331" r="14.4" fill="#009af9" fill-rule="evenodd" fill-opacity="0.5" stroke="#000000" stroke-opacity="0.5" stroke-width="3.2"/>
<circle clip-path="url(#clip572)" cx="815.993" cy="178.591" r="14.4" fill="#009af9" fill-rule="evenodd" fill-opacity="0.5" stroke="#000000" stroke-opacity="0.5" stroke-width="3.2"/>
<circle clip-path="url(#clip572)" cx="2291.66" cy="393.928" r="14.4" fill="#009af9" fill-rule="evenodd" fill-opacity="0.5" stroke="#000000" stroke-opacity="0.5" stroke-width="3.2"/>
<circle clip-path="url(#clip572)" cx="1406.62" cy="322.589" r="14.4" fill="#009af9" fill-rule="evenodd" fill-opacity="0.5" stroke="#000000" stroke-opacity="0.5" stroke-width="3.2"/>
<circle clip-path="url(#clip572)" cx="255.035" cy="329.451" r="14.4" fill="#009af9" fill-rule="evenodd" fill-opacity="0.5" stroke="#000000" stroke-opacity="0.5" stroke-width="3.2"/>
<circle clip-path="url(#clip572)" cx="1467.63" cy="126.138" r="14.4" fill="#009af9" fill-rule="evenodd" fill-opacity="0.5" stroke="#000000" stroke-opacity="0.5" stroke-width="3.2"/>
<circle clip-path="url(#clip572)" cx="1567.64" cy="827.087" r="14.4" fill="#009af9" fill-rule="evenodd" fill-opacity="0.5" stroke="#000000" stroke-opacity="0.5" stroke-width="3.2"/>
<circle clip-path="url(#clip572)" cx="509.079" cy="143.694" r="14.4" fill="#009af9" fill-rule="evenodd" fill-opacity="0.5" stroke="#000000" stroke-opacity="0.5" stroke-width="3.2"/>
<circle clip-path="url(#clip572)" cx="608.722" cy="1124.7" r="14.4" fill="#009af9" fill-rule="evenodd" fill-opacity="0.5" stroke="#000000" stroke-opacity="0.5" stroke-width="3.2"/>
<circle clip-path="url(#clip572)" cx="2146.44" cy="361.181" r="14.4" fill="#009af9" fill-rule="evenodd" fill-opacity="0.5" stroke="#000000" stroke-opacity="0.5" stroke-width="3.2"/>
<circle clip-path="url(#clip572)" cx="1167.23" cy="1445.72" r="14.4" fill="#009af9" fill-rule="evenodd" fill-opacity="0.5" stroke="#000000" stroke-opacity="0.5" stroke-width="3.2"/>
<circle clip-path="url(#clip572)" cx="1604.29" cy="500.262" r="14.4" fill="#009af9" fill-rule="evenodd" fill-opacity="0.5" stroke="#000000" stroke-opacity="0.5" stroke-width="3.2"/>
<circle clip-path="url(#clip572)" cx="1050.5" cy="846.094" r="14.4" fill="#009af9" fill-rule="evenodd" fill-opacity="0.5" stroke="#000000" stroke-opacity="0.5" stroke-width="3.2"/>
<circle clip-path="url(#clip572)" cx="2011.16" cy="1425.73" r="14.4" fill="#009af9" fill-rule="evenodd" fill-opacity="0.5" stroke="#000000" stroke-opacity="0.5" stroke-width="3.2"/>
<circle clip-path="url(#clip572)" cx="1005.91" cy="1090.42" r="14.4" fill="#009af9" fill-rule="evenodd" fill-opacity="0.5" stroke="#000000" stroke-opacity="0.5" stroke-width="3.2"/>
<circle clip-path="url(#clip572)" cx="1397.58" cy="847.117" r="14.4" fill="#009af9" fill-rule="evenodd" fill-opacity="0.5" stroke="#000000" stroke-opacity="0.5" stroke-width="3.2"/>
<circle clip-path="url(#clip572)" cx="1225.41" cy="751.4" r="14.4" fill="#009af9" fill-rule="evenodd" fill-opacity="0.5" stroke="#000000" stroke-opacity="0.5" stroke-width="3.2"/>
<path clip-path="url(#clip572)" d="M255.035 329.451 L558.588 1177.11 L1167.23 1445.72 L2011.16 1425.73 L2291.66 393.928 L2013.05 210.703 L1467.63 126.138 L902.624 87.9763 L509.079 143.694 L255.035 329.451 L255.035 329.451  Z" fill="#e26f46" fill-rule="evenodd" fill-opacity="0.2"/>
<polyline clip-path="url(#clip572)" style="stroke:#000000; stroke-linecap:round; stroke-linejoin:round; stroke-width:4; stroke-opacity:0.2; fill:none" points="255.035,329.451 558.588,1177.11 1167.23,1445.72 2011.16,1425.73 2291.66,393.928 2013.05,210.703 1467.63,126.138 902.624,87.9763 509.079,143.694 255.035,329.451 "/>
</svg>
