<?xml version="1.0" encoding="utf-8"?>
<svg xmlns="http://www.w3.org/2000/svg" xmlns:xlink="http://www.w3.org/1999/xlink" width="600" height="400" viewBox="0 0 2400 1600">
<defs>
  <clipPath id="clip720">
    <rect x="0" y="0" width="2400" height="1600"/>
  </clipPath>
</defs>
<path clip-path="url(#clip720)" d="M0 1600 L2400 1600 L2400 0 L0 0  Z" fill="#ffffff" fill-rule="evenodd" fill-opacity="1"/>
<defs>
  <clipPath id="clip721">
    <rect x="480" y="0" width="1681" height="1600"/>
  </clipPath>
</defs>
<path clip-path="url(#clip720)" d="M147.478 1486.45 L2352.76 1486.45 L2352.76 47.2441 L147.478 47.2441  Z" fill="#ffffff" fill-rule="evenodd" fill-opacity="1"/>
<defs>
  <clipPath id="clip722">
    <rect x="147" y="47" width="2206" height="1440"/>
  </clipPath>
</defs>
<polyline clip-path="url(#clip722)" style="stroke:#000000; stroke-linecap:round; stroke-linejoin:round; stroke-width:2; stroke-opacity:0.1; fill:none" points="551.916,1486.45 551.916,47.2441 "/>
<polyline clip-path="url(#clip722)" style="stroke:#000000; stroke-linecap:round; stroke-linejoin:round; stroke-width:2; stroke-opacity:0.1; fill:none" points="1131.67,1486.45 1131.67,47.2441 "/>
<polyline clip-path="url(#clip722)" style="stroke:#000000; stroke-linecap:round; stroke-linejoin:round; stroke-width:2; stroke-opacity:0.1; fill:none" points="1711.43,1486.45 1711.43,47.2441 "/>
<polyline clip-path="url(#clip722)" style="stroke:#000000; stroke-linecap:round; stroke-linejoin:round; stroke-width:2; stroke-opacity:0.1; fill:none" points="2291.19,1486.45 2291.19,47.2441 "/>
<polyline clip-path="url(#clip722)" style="stroke:#000000; stroke-linecap:round; stroke-linejoin:round; stroke-width:2; stroke-opacity:0.1; fill:none" points="147.478,1315.99 2352.76,1315.99 "/>
<polyline clip-path="url(#clip722)" style="stroke:#000000; stroke-linecap:round; stroke-linejoin:round; stroke-width:2; stroke-opacity:0.1; fill:none" points="147.478,1002.73 2352.76,1002.73 "/>
<polyline clip-path="url(#clip722)" style="stroke:#000000; stroke-linecap:round; stroke-linejoin:round; stroke-width:2; stroke-opacity:0.1; fill:none" points="147.478,689.475 2352.76,689.475 "/>
<polyline clip-path="url(#clip722)" style="stroke:#000000; stroke-linecap:round; stroke-linejoin:round; stroke-width:2; stroke-opacity:0.1; fill:none" points="147.478,376.218 2352.76,376.218 "/>
<polyline clip-path="url(#clip722)" style="stroke:#000000; stroke-linecap:round; stroke-linejoin:round; stroke-width:2; stroke-opacity:0.1; fill:none" points="147.478,62.9622 2352.76,62.9622 "/>
<polyline clip-path="url(#clip720)" style="stroke:#000000; stroke-linecap:round; stroke-linejoin:round; stroke-width:4; stroke-opacity:1; fill:none" points="147.478,1486.45 2352.76,1486.45 "/>
<polyline clip-path="url(#clip720)" style="stroke:#000000; stroke-linecap:round; stroke-linejoin:round; stroke-width:4; stroke-opacity:1; fill:none" points="551.916,1486.45 551.916,1467.55 "/>
<polyline clip-path="url(#clip720)" style="stroke:#000000; stroke-linecap:round; stroke-linejoin:round; stroke-width:4; stroke-opacity:1; fill:none" points="1131.67,1486.45 1131.67,1467.55 "/>
<polyline clip-path="url(#clip720)" style="stroke:#000000; stroke-linecap:round; stroke-linejoin:round; stroke-width:4; stroke-opacity:1; fill:none" points="1711.43,1486.45 1711.43,1467.55 "/>
<polyline clip-path="url(#clip720)" style="stroke:#000000; stroke-linecap:round; stroke-linejoin:round; stroke-width:4; stroke-opacity:1; fill:none" points="2291.19,1486.45 2291.19,1467.55 "/>
<path clip-path="url(#clip720)" d="M521.674 1532.02 L551.349 1532.02 L551.349 1535.95 L521.674 1535.95 L521.674 1532.02 Z" fill="#000000" fill-rule="nonzero" fill-opacity="1" /><path clip-path="url(#clip720)" d="M562.252 1544.91 L569.891 1544.91 L569.891 1518.55 L561.581 1520.21 L561.581 1515.95 L569.845 1514.29 L574.521 1514.29 L574.521 1544.91 L582.159 1544.91 L582.159 1548.85 L562.252 1548.85 L562.252 1544.91 Z" fill="#000000" fill-rule="nonzero" fill-opacity="1" /><path clip-path="url(#clip720)" d="M1131.67 1517.37 Q1128.06 1517.37 1126.23 1520.93 Q1124.43 1524.47 1124.43 1531.6 Q1124.43 1538.71 1126.23 1542.27 Q1128.06 1545.82 1131.67 1545.82 Q1135.31 1545.82 1137.11 1542.27 Q1138.94 1538.71 1138.94 1531.6 Q1138.94 1524.47 1137.11 1520.93 Q1135.31 1517.37 1131.67 1517.37 M1131.67 1513.66 Q1137.48 1513.66 1140.54 1518.27 Q1143.62 1522.85 1143.62 1531.6 Q1143.62 1540.33 1140.54 1544.94 Q1137.48 1549.52 1131.67 1549.52 Q1125.86 1549.52 1122.78 1544.94 Q1119.73 1540.33 1119.73 1531.6 Q1119.73 1522.85 1122.78 1518.27 Q1125.86 1513.66 1131.67 1513.66 Z" fill="#000000" fill-rule="nonzero" fill-opacity="1" /><path clip-path="url(#clip720)" d="M1701.81 1544.91 L1709.45 1544.91 L1709.45 1518.55 L1701.14 1520.21 L1701.14 1515.95 L1709.4 1514.29 L1714.08 1514.29 L1714.08 1544.91 L1721.72 1544.91 L1721.72 1548.85 L1701.81 1548.85 L1701.81 1544.91 Z" fill="#000000" fill-rule="nonzero" fill-opacity="1" /><path clip-path="url(#clip720)" d="M2285.84 1544.91 L2302.16 1544.91 L2302.16 1548.85 L2280.21 1548.85 L2280.21 1544.91 Q2282.88 1542.16 2287.46 1537.53 Q2292.07 1532.88 2293.25 1531.53 Q2295.49 1529.01 2296.37 1527.27 Q2297.27 1525.51 2297.27 1523.82 Q2297.27 1521.07 2295.33 1519.33 Q2293.41 1517.6 2290.31 1517.6 Q2288.11 1517.6 2285.65 1518.36 Q2283.22 1519.13 2280.44 1520.68 L2280.44 1515.95 Q2283.27 1514.82 2285.72 1514.24 Q2288.18 1513.66 2290.21 1513.66 Q2295.58 1513.66 2298.78 1516.35 Q2301.97 1519.03 2301.97 1523.52 Q2301.97 1525.65 2301.16 1527.57 Q2300.38 1529.47 2298.27 1532.07 Q2297.69 1532.74 2294.59 1535.95 Q2291.49 1539.15 2285.84 1544.91 Z" fill="#000000" fill-rule="nonzero" fill-opacity="1" /><polyline clip-path="url(#clip720)" style="stroke:#000000; stroke-linecap:round; stroke-linejoin:round; stroke-width:4; stroke-opacity:1; fill:none" points="147.478,1486.45 147.478,47.2441 "/>
<polyline clip-path="url(#clip720)" style="stroke:#000000; stroke-linecap:round; stroke-linejoin:round; stroke-width:4; stroke-opacity:1; fill:none" points="147.478,1315.99 166.376,1315.99 "/>
<polyline clip-path="url(#clip720)" style="stroke:#000000; stroke-linecap:round; stroke-linejoin:round; stroke-width:4; stroke-opacity:1; fill:none" points="147.478,1002.73 166.376,1002.73 "/>
<polyline clip-path="url(#clip720)" style="stroke:#000000; stroke-linecap:round; stroke-linejoin:round; stroke-width:4; stroke-opacity:1; fill:none" points="147.478,689.475 166.376,689.475 "/>
<polyline clip-path="url(#clip720)" style="stroke:#000000; stroke-linecap:round; stroke-linejoin:round; stroke-width:4; stroke-opacity:1; fill:none" points="147.478,376.218 166.376,376.218 "/>
<polyline clip-path="url(#clip720)" style="stroke:#000000; stroke-linecap:round; stroke-linejoin:round; stroke-width:4; stroke-opacity:1; fill:none" points="147.478,62.9622 166.376,62.9622 "/>
<path clip-path="url(#clip720)" d="M51.3625 1316.44 L81.0383 1316.44 L81.0383 1320.37 L51.3625 1320.37 L51.3625 1316.44 Z" fill="#000000" fill-rule="nonzero" fill-opacity="1" /><path clip-path="url(#clip720)" d="M95.1586 1329.33 L111.478 1329.33 L111.478 1333.27 L89.5336 1333.27 L89.5336 1329.33 Q92.1956 1326.58 96.7789 1321.95 Q101.385 1317.29 102.566 1315.95 Q104.811 1313.43 105.691 1311.69 Q106.594 1309.93 106.594 1308.24 Q106.594 1305.49 104.649 1303.75 Q102.728 1302.02 99.6261 1302.02 Q97.4271 1302.02 94.9734 1302.78 Q92.5428 1303.54 89.7651 1305.1 L89.7651 1300.37 Q92.5891 1299.24 95.0428 1298.66 Q97.4965 1298.08 99.5335 1298.08 Q104.904 1298.08 108.098 1300.77 Q111.293 1303.45 111.293 1307.94 Q111.293 1310.07 110.483 1311.99 Q109.696 1313.89 107.589 1316.48 Q107.01 1317.16 103.909 1320.37 Q100.807 1323.57 95.1586 1329.33 Z" fill="#000000" fill-rule="nonzero" fill-opacity="1" /><path clip-path="url(#clip720)" d="M50.9921 1003.18 L80.6679 1003.18 L80.6679 1007.12 L50.9921 1007.12 L50.9921 1003.18 Z" fill="#000000" fill-rule="nonzero" fill-opacity="1" /><path clip-path="url(#clip720)" d="M91.5706 1016.08 L99.2095 1016.08 L99.2095 989.71 L90.8993 991.377 L90.8993 987.117 L99.1632 985.451 L103.839 985.451 L103.839 1016.08 L111.478 1016.08 L111.478 1020.01 L91.5706 1020.01 L91.5706 1016.08 Z" fill="#000000" fill-rule="nonzero" fill-opacity="1" /><path clip-path="url(#clip720)" d="M99.5335 675.273 Q95.9224 675.273 94.0937 678.838 Q92.2882 682.38 92.2882 689.509 Q92.2882 696.616 94.0937 700.18 Q95.9224 703.722 99.5335 703.722 Q103.168 703.722 104.973 700.18 Q106.802 696.616 106.802 689.509 Q106.802 682.38 104.973 678.838 Q103.168 675.273 99.5335 675.273 M99.5335 671.57 Q105.344 671.57 108.399 676.176 Q111.478 680.759 111.478 689.509 Q111.478 698.236 108.399 702.843 Q105.344 707.426 99.5335 707.426 Q93.7234 707.426 90.6447 702.843 Q87.5892 698.236 87.5892 689.509 Q87.5892 680.759 90.6447 676.176 Q93.7234 671.57 99.5335 671.57 Z" fill="#000000" fill-rule="nonzero" fill-opacity="1" /><path clip-path="url(#clip720)" d="M91.5706 389.563 L99.2095 389.563 L99.2095 363.198 L90.8993 364.864 L90.8993 360.605 L99.1632 358.938 L103.839 358.938 L103.839 389.563 L111.478 389.563 L111.478 393.498 L91.5706 393.498 L91.5706 389.563 Z" fill="#000000" fill-rule="nonzero" fill-opacity="1" /><path clip-path="url(#clip720)" d="M95.1586 76.307 L111.478 76.307 L111.478 80.2422 L89.5336 80.2422 L89.5336 76.307 Q92.1956 73.5524 96.7789 68.9228 Q101.385 64.2701 102.566 62.9275 Q104.811 60.4043 105.691 58.6682 Q106.594 56.909 106.594 55.2192 Q106.594 52.4646 104.649 50.7285 Q102.728 48.9924 99.6261 48.9924 Q97.4271 48.9924 94.9734 49.7562 Q92.5428 50.5201 89.7651 52.071 L89.7651 47.3489 Q92.5891 46.2146 95.0428 45.6359 Q97.4965 45.0572 99.5335 45.0572 Q104.904 45.0572 108.098 47.7424 Q111.293 50.4275 111.293 54.9183 Q111.293 57.0479 110.483 58.9692 Q109.696 60.8673 107.589 63.4599 Q107.01 64.1312 103.909 67.3487 Q100.807 70.5432 95.1586 76.307 Z" fill="#000000" fill-rule="nonzero" fill-opacity="1" /><circle clip-path="url(#clip722)" cx="516.63" cy="1445.56" r="14.4" fill="#009af9" fill-rule="evenodd" fill-opacity="0.5" stroke="#000000" stroke-opacity="0.5" stroke-width="3.2"/>
<circle clip-path="url(#clip722)" cx="1062.49" cy="452.88" r="14.4" fill="#009af9" fill-rule="evenodd" fill-opacity="0.5" stroke="#000000" stroke-opacity="0.5" stroke-width="3.2"/>
<circle clip-path="url(#clip722)" cx="631.078" cy="1232.76" r="14.4" fill="#009af9" fill-rule="evenodd" fill-opacity="0.5" stroke="#000000" stroke-opacity="0.5" stroke-width="3.2"/>
<circle clip-path="url(#clip722)" cx="2117.35" cy="312.957" r="14.4" fill="#009af9" fill-rule="evenodd" fill-opacity="0.5" stroke="#000000" stroke-opacity="0.5" stroke-width="3.2"/>
<circle clip-path="url(#clip722)" cx="392.721" cy="391.062" r="14.4" fill="#009af9" fill-rule="evenodd" fill-opacity="0.5" stroke="#000000" stroke-opacity="0.5" stroke-width="3.2"/>
<circle clip-path="url(#clip722)" cx="968.131" cy="529.589" r="14.4" fill="#009af9" fill-rule="evenodd" fill-opacity="0.5" stroke="#000000" stroke-opacity="0.5" stroke-width="3.2"/>
<circle clip-path="url(#clip722)" cx="1884.98" cy="987.308" r="14.4" fill="#009af9" fill-rule="evenodd" fill-opacity="0.5" stroke="#000000" stroke-opacity="0.5" stroke-width="3.2"/>
<circle clip-path="url(#clip722)" cx="757.057" cy="999.768" r="14.4" fill="#009af9" fill-rule="evenodd" fill-opacity="0.5" stroke="#000000" stroke-opacity="0.5" stroke-width="3.2"/>
<circle clip-path="url(#clip722)" cx="1789.59" cy="857.073" r="14.4" fill="#009af9" fill-rule="evenodd" fill-opacity="0.5" stroke="#000000" stroke-opacity="0.5" stroke-width="3.2"/>
<circle clip-path="url(#clip722)" cx="1496.82" cy="717.141" r="14.4" fill="#009af9" fill-rule="evenodd" fill-opacity="0.5" stroke="#000000" stroke-opacity="0.5" stroke-width="3.2"/>
<circle clip-path="url(#clip722)" cx="670.867" cy="744.253" r="14.4" fill="#009af9" fill-rule="evenodd" fill-opacity="0.5" stroke="#000000" stroke-opacity="0.5" stroke-width="3.2"/>
<circle clip-path="url(#clip722)" cx="416.343" cy="87.9763" r="14.4" fill="#009af9" fill-rule="evenodd" fill-opacity="0.5" stroke="#000000" stroke-opacity="0.5" stroke-width="3.2"/>
<circle clip-path="url(#clip722)" cx="1090.18" cy="764.963" r="14.4" fill="#009af9" fill-rule="evenodd" fill-opacity="0.5" stroke="#000000" stroke-opacity="0.5" stroke-width="3.2"/>
<circle clip-path="url(#clip722)" cx="1151.57" cy="231.813" r="14.4" fill="#009af9" fill-rule="evenodd" fill-opacity="0.5" stroke="#000000" stroke-opacity="0.5" stroke-width="3.2"/>
<circle clip-path="url(#clip722)" cx="209.891" cy="912.504" r="14.4" fill="#009af9" fill-rule="evenodd" fill-opacity="0.5" stroke="#000000" stroke-opacity="0.5" stroke-width="3.2"/>
<circle clip-path="url(#clip722)" cx="1738.86" cy="669.888" r="14.4" fill="#009af9" fill-rule="evenodd" fill-opacity="0.5" stroke="#000000" stroke-opacity="0.5" stroke-width="3.2"/>
<circle clip-path="url(#clip722)" cx="1035.18" cy="556.445" r="14.4" fill="#009af9" fill-rule="evenodd" fill-opacity="0.5" stroke="#000000" stroke-opacity="0.5" stroke-width="3.2"/>
<circle clip-path="url(#clip722)" cx="889.987" cy="410.574" r="14.4" fill="#009af9" fill-rule="evenodd" fill-opacity="0.5" stroke="#000000" stroke-opacity="0.5" stroke-width="3.2"/>
<circle clip-path="url(#clip722)" cx="712.368" cy="606.989" r="14.4" fill="#009af9" fill-rule="evenodd" fill-opacity="0.5" stroke="#000000" stroke-opacity="0.5" stroke-width="3.2"/>
<circle clip-path="url(#clip722)" cx="2104.94" cy="1019.59" r="14.4" fill="#009af9" fill-rule="evenodd" fill-opacity="0.5" stroke="#000000" stroke-opacity="0.5" stroke-width="3.2"/>
<circle clip-path="url(#clip722)" cx="1231.6" cy="587.309" r="14.4" fill="#009af9" fill-rule="evenodd" fill-opacity="0.5" stroke="#000000" stroke-opacity="0.5" stroke-width="3.2"/>
<circle clip-path="url(#clip722)" cx="1671.66" cy="832.395" r="14.4" fill="#009af9" fill-rule="evenodd" fill-opacity="0.5" stroke="#000000" stroke-opacity="0.5" stroke-width="3.2"/>
<circle clip-path="url(#clip722)" cx="1787.44" cy="1288.05" r="14.4" fill="#009af9" fill-rule="evenodd" fill-opacity="0.5" stroke="#000000" stroke-opacity="0.5" stroke-width="3.2"/>
<circle clip-path="url(#clip722)" cx="935.034" cy="1052.61" r="14.4" fill="#009af9" fill-rule="evenodd" fill-opacity="0.5" stroke="#000000" stroke-opacity="0.5" stroke-width="3.2"/>
<circle clip-path="url(#clip722)" cx="567.255" cy="1445.72" r="14.4" fill="#009af9" fill-rule="evenodd" fill-opacity="0.5" stroke="#000000" stroke-opacity="0.5" stroke-width="3.2"/>
<circle clip-path="url(#clip722)" cx="2290.34" cy="530.641" r="14.4" fill="#009af9" fill-rule="evenodd" fill-opacity="0.5" stroke="#000000" stroke-opacity="0.5" stroke-width="3.2"/>
<circle clip-path="url(#clip722)" cx="1307.95" cy="333.836" r="14.4" fill="#009af9" fill-rule="evenodd" fill-opacity="0.5" stroke="#000000" stroke-opacity="0.5" stroke-width="3.2"/>
<circle clip-path="url(#clip722)" cx="2056.13" cy="1291.41" r="14.4" fill="#009af9" fill-rule="evenodd" fill-opacity="0.5" stroke="#000000" stroke-opacity="0.5" stroke-width="3.2"/>
<circle clip-path="url(#clip722)" cx="1276.07" cy="687.452" r="14.4" fill="#009af9" fill-rule="evenodd" fill-opacity="0.5" stroke="#000000" stroke-opacity="0.5" stroke-width="3.2"/>
<circle clip-path="url(#clip722)" cx="918.197" cy="850.969" r="14.4" fill="#009af9" fill-rule="evenodd" fill-opacity="0.5" stroke="#000000" stroke-opacity="0.5" stroke-width="3.2"/>
<path clip-path="url(#clip722)" d="M209.891 912.504 L516.63 1445.56 L567.255 1445.72 L2056.13 1291.41 L2290.34 530.641 L2117.35 312.957 L416.343 87.9763 L209.891 912.504 L209.891 912.504  Z" fill="#e26f46" fill-rule="evenodd" fill-opacity="0.2"/>
<polyline clip-path="url(#clip722)" style="stroke:#000000; stroke-linecap:round; stroke-linejoin:round; stroke-width:4; stroke-opacity:0.2; fill:none" points="209.891,912.504 516.63,1445.56 567.255,1445.72 2056.13,1291.41 2290.34,530.641 2117.35,312.957 416.343,87.9763 209.891,912.504 "/>
</svg>
