<?xml version="1.0" encoding="utf-8"?>
<svg xmlns="http://www.w3.org/2000/svg" xmlns:xlink="http://www.w3.org/1999/xlink" width="600" height="400" viewBox="0 0 2400 1600">
<defs>
  <clipPath id="clip240">
    <rect x="0" y="0" width="2400" height="1600"/>
  </clipPath>
</defs>
<path clip-path="url(#clip240)" d="M0 1600 L2400 1600 L2400 0 L0 0  Z" fill="#ffffff" fill-rule="evenodd" fill-opacity="1"/>
<defs>
  <clipPath id="clip241">
    <rect x="148" y="47" width="2206" height="1440"/>
  </clipPath>
</defs>
<path clip-path="url(#clip240)" d="M148.057 1486.45 L2352.76 1486.45 L2352.76 47.2441 L148.057 47.2441  Z" fill="#ffffff" fill-rule="evenodd" fill-opacity="1"/>
<polyline clip-path="url(#clip241)" style="stroke:#000000; stroke-linecap:round; stroke-linejoin:round; stroke-width:2; stroke-opacity:0.1; fill:none" points="339.757,1486.45 339.757,47.2441 "/>
<polyline clip-path="url(#clip241)" style="stroke:#000000; stroke-linecap:round; stroke-linejoin:round; stroke-width:2; stroke-opacity:0.1; fill:none" points="889.804,1486.45 889.804,47.2441 "/>
<polyline clip-path="url(#clip241)" style="stroke:#000000; stroke-linecap:round; stroke-linejoin:round; stroke-width:2; stroke-opacity:0.1; fill:none" points="1439.85,1486.45 1439.85,47.2441 "/>
<polyline clip-path="url(#clip241)" style="stroke:#000000; stroke-linecap:round; stroke-linejoin:round; stroke-width:2; stroke-opacity:0.1; fill:none" points="1989.9,1486.45 1989.9,47.2441 "/>
<polyline clip-path="url(#clip241)" style="stroke:#000000; stroke-linecap:round; stroke-linejoin:round; stroke-width:2; stroke-opacity:0.1; fill:none" points="148.057,1483.05 2352.76,1483.05 "/>
<polyline clip-path="url(#clip241)" style="stroke:#000000; stroke-linecap:round; stroke-linejoin:round; stroke-width:2; stroke-opacity:0.1; fill:none" points="148.057,1210.99 2352.76,1210.99 "/>
<polyline clip-path="url(#clip241)" style="stroke:#000000; stroke-linecap:round; stroke-linejoin:round; stroke-width:2; stroke-opacity:0.1; fill:none" points="148.057,938.931 2352.76,938.931 "/>
<polyline clip-path="url(#clip241)" style="stroke:#000000; stroke-linecap:round; stroke-linejoin:round; stroke-width:2; stroke-opacity:0.1; fill:none" points="148.057,666.873 2352.76,666.873 "/>
<polyline clip-path="url(#clip241)" style="stroke:#000000; stroke-linecap:round; stroke-linejoin:round; stroke-width:2; stroke-opacity:0.1; fill:none" points="148.057,394.816 2352.76,394.816 "/>
<polyline clip-path="url(#clip241)" style="stroke:#000000; stroke-linecap:round; stroke-linejoin:round; stroke-width:2; stroke-opacity:0.1; fill:none" points="148.057,122.758 2352.76,122.758 "/>
<polyline clip-path="url(#clip240)" style="stroke:#000000; stroke-linecap:round; stroke-linejoin:round; stroke-width:4; stroke-opacity:1; fill:none" points="148.057,1486.45 2352.76,1486.45 "/>
<polyline clip-path="url(#clip240)" style="stroke:#000000; stroke-linecap:round; stroke-linejoin:round; stroke-width:4; stroke-opacity:1; fill:none" points="339.757,1486.45 339.757,1467.55 "/>
<polyline clip-path="url(#clip240)" style="stroke:#000000; stroke-linecap:round; stroke-linejoin:round; stroke-width:4; stroke-opacity:1; fill:none" points="889.804,1486.45 889.804,1467.55 "/>
<polyline clip-path="url(#clip240)" style="stroke:#000000; stroke-linecap:round; stroke-linejoin:round; stroke-width:4; stroke-opacity:1; fill:none" points="1439.85,1486.45 1439.85,1467.55 "/>
<polyline clip-path="url(#clip240)" style="stroke:#000000; stroke-linecap:round; stroke-linejoin:round; stroke-width:4; stroke-opacity:1; fill:none" points="1989.9,1486.45 1989.9,1467.55 "/>
<path clip-path="url(#clip240)" d="M309.699 1532.02 L339.375 1532.02 L339.375 1535.95 L309.699 1535.95 L309.699 1532.02 Z" fill="#000000" fill-rule="nonzero" fill-opacity="1" /><path clip-path="url(#clip240)" d="M353.495 1544.91 L369.815 1544.91 L369.815 1548.85 L347.87 1548.85 L347.87 1544.91 Q350.532 1542.16 355.116 1537.53 Q359.722 1532.88 360.903 1531.53 Q363.148 1529.01 364.028 1527.27 Q364.93 1525.51 364.93 1523.82 Q364.93 1521.07 362.986 1519.33 Q361.065 1517.6 357.963 1517.6 Q355.764 1517.6 353.31 1518.36 Q350.88 1519.13 348.102 1520.68 L348.102 1515.95 Q350.926 1514.82 353.379 1514.24 Q355.833 1513.66 357.87 1513.66 Q363.241 1513.66 366.435 1516.35 Q369.629 1519.03 369.629 1523.52 Q369.629 1525.65 368.819 1527.57 Q368.032 1529.47 365.926 1532.07 Q365.347 1532.74 362.245 1535.95 Q359.143 1539.15 353.495 1544.91 Z" fill="#000000" fill-rule="nonzero" fill-opacity="1" /><path clip-path="url(#clip240)" d="M859.561 1532.02 L889.237 1532.02 L889.237 1535.95 L859.561 1535.95 L859.561 1532.02 Z" fill="#000000" fill-rule="nonzero" fill-opacity="1" /><path clip-path="url(#clip240)" d="M900.139 1544.91 L907.778 1544.91 L907.778 1518.55 L899.468 1520.21 L899.468 1515.95 L907.732 1514.29 L912.408 1514.29 L912.408 1544.91 L920.047 1544.91 L920.047 1548.85 L900.139 1548.85 L900.139 1544.91 Z" fill="#000000" fill-rule="nonzero" fill-opacity="1" /><path clip-path="url(#clip240)" d="M1439.85 1517.37 Q1436.24 1517.37 1434.41 1520.93 Q1432.61 1524.47 1432.61 1531.6 Q1432.61 1538.71 1434.41 1542.27 Q1436.24 1545.82 1439.85 1545.82 Q1443.48 1545.82 1445.29 1542.27 Q1447.12 1538.71 1447.12 1531.6 Q1447.12 1524.47 1445.29 1520.93 Q1443.48 1517.37 1439.85 1517.37 M1439.85 1513.66 Q1445.66 1513.66 1448.72 1518.27 Q1451.79 1522.85 1451.79 1531.6 Q1451.79 1540.33 1448.72 1544.94 Q1445.66 1549.52 1439.85 1549.52 Q1434.04 1549.52 1430.96 1544.94 Q1427.91 1540.33 1427.91 1531.6 Q1427.91 1522.85 1430.96 1518.27 Q1434.04 1513.66 1439.85 1513.66 Z" fill="#000000" fill-rule="nonzero" fill-opacity="1" /><path clip-path="url(#clip240)" d="M1980.28 1544.91 L1987.92 1544.91 L1987.92 1518.55 L1979.61 1520.21 L1979.61 1515.95 L1987.87 1514.29 L1992.55 1514.29 L1992.55 1544.91 L2000.19 1544.91 L2000.19 1548.85 L1980.28 1548.85 L1980.28 1544.91 Z" fill="#000000" fill-rule="nonzero" fill-opacity="1" /><polyline clip-path="url(#clip240)" style="stroke:#000000; stroke-linecap:round; stroke-linejoin:round; stroke-width:4; stroke-opacity:1; fill:none" points="148.057,1486.45 148.057,47.2441 "/>
<polyline clip-path="url(#clip240)" style="stroke:#000000; stroke-linecap:round; stroke-linejoin:round; stroke-width:4; stroke-opacity:1; fill:none" points="148.057,1483.05 166.954,1483.05 "/>
<polyline clip-path="url(#clip240)" style="stroke:#000000; stroke-linecap:round; stroke-linejoin:round; stroke-width:4; stroke-opacity:1; fill:none" points="148.057,1210.99 166.954,1210.99 "/>
<polyline clip-path="url(#clip240)" style="stroke:#000000; stroke-linecap:round; stroke-linejoin:round; stroke-width:4; stroke-opacity:1; fill:none" points="148.057,938.931 166.954,938.931 "/>
<polyline clip-path="url(#clip240)" style="stroke:#000000; stroke-linecap:round; stroke-linejoin:round; stroke-width:4; stroke-opacity:1; fill:none" points="148.057,666.873 166.954,666.873 "/>
<polyline clip-path="url(#clip240)" style="stroke:#000000; stroke-linecap:round; stroke-linejoin:round; stroke-width:4; stroke-opacity:1; fill:none" points="148.057,394.816 166.954,394.816 "/>
<polyline clip-path="url(#clip240)" style="stroke:#000000; stroke-linecap:round; stroke-linejoin:round; stroke-width:4; stroke-opacity:1; fill:none" points="148.057,122.758 166.954,122.758 "/>
<path clip-path="url(#clip240)" d="M50.9921 1483.5 L80.6679 1483.5 L80.6679 1487.43 L50.9921 1487.43 L50.9921 1483.5 Z" fill="#000000" fill-rule="nonzero" fill-opacity="1" /><path clip-path="url(#clip240)" d="M104.927 1481.69 Q108.283 1482.41 110.158 1484.68 Q112.057 1486.95 112.057 1490.28 Q112.057 1495.39 108.538 1498.2 Q105.02 1501 98.5382 1501 Q96.3623 1501 94.0475 1500.56 Q91.7558 1500.14 89.3021 1499.28 L89.3021 1494.77 Q91.2465 1495.9 93.5613 1496.48 Q95.8761 1497.06 98.3993 1497.06 Q102.797 1497.06 105.089 1495.33 Q107.404 1493.59 107.404 1490.28 Q107.404 1487.22 105.251 1485.51 Q103.121 1483.77 99.3021 1483.77 L95.2743 1483.77 L95.2743 1479.93 L99.4872 1479.93 Q102.936 1479.93 104.765 1478.57 Q106.594 1477.18 106.594 1474.58 Q106.594 1471.92 104.696 1470.51 Q102.821 1469.08 99.3021 1469.08 Q97.3808 1469.08 95.1817 1469.49 Q92.9826 1469.91 90.3438 1470.79 L90.3438 1466.62 Q93.0058 1465.88 95.3206 1465.51 Q97.6585 1465.14 99.7187 1465.14 Q105.043 1465.14 108.145 1467.57 Q111.246 1469.98 111.246 1474.1 Q111.246 1476.97 109.603 1478.96 Q107.959 1480.93 104.927 1481.69 Z" fill="#000000" fill-rule="nonzero" fill-opacity="1" /><path clip-path="url(#clip240)" d="M51.9412 1211.44 L81.617 1211.44 L81.617 1215.37 L51.9412 1215.37 L51.9412 1211.44 Z" fill="#000000" fill-rule="nonzero" fill-opacity="1" /><path clip-path="url(#clip240)" d="M95.7373 1224.33 L112.057 1224.33 L112.057 1228.27 L90.1123 1228.27 L90.1123 1224.33 Q92.7743 1221.58 97.3576 1216.95 Q101.964 1212.3 103.145 1210.95 Q105.39 1208.43 106.27 1206.69 Q107.172 1204.93 107.172 1203.25 Q107.172 1200.49 105.228 1198.75 Q103.307 1197.02 100.205 1197.02 Q98.0058 1197.02 95.5521 1197.78 Q93.1215 1198.55 90.3438 1200.1 L90.3438 1195.37 Q93.1678 1194.24 95.6215 1193.66 Q98.0752 1193.08 100.112 1193.08 Q105.483 1193.08 108.677 1195.77 Q111.871 1198.45 111.871 1202.94 Q111.871 1205.07 111.061 1207 Q110.274 1208.89 108.168 1211.49 Q107.589 1212.16 104.487 1215.37 Q101.385 1218.57 95.7373 1224.33 Z" fill="#000000" fill-rule="nonzero" fill-opacity="1" /><path clip-path="url(#clip240)" d="M51.5708 939.382 L81.2466 939.382 L81.2466 943.317 L51.5708 943.317 L51.5708 939.382 Z" fill="#000000" fill-rule="nonzero" fill-opacity="1" /><path clip-path="url(#clip240)" d="M92.1493 952.276 L99.7882 952.276 L99.7882 925.91 L91.478 927.577 L91.478 923.317 L99.7419 921.651 L104.418 921.651 L104.418 952.276 L112.057 952.276 L112.057 956.211 L92.1493 956.211 L92.1493 952.276 Z" fill="#000000" fill-rule="nonzero" fill-opacity="1" /><path clip-path="url(#clip240)" d="M100.112 652.672 Q96.5011 652.672 94.6724 656.237 Q92.8669 659.778 92.8669 666.908 Q92.8669 674.014 94.6724 677.579 Q96.5011 681.121 100.112 681.121 Q103.746 681.121 105.552 677.579 Q107.381 674.014 107.381 666.908 Q107.381 659.778 105.552 656.237 Q103.746 652.672 100.112 652.672 M100.112 648.968 Q105.922 648.968 108.978 653.575 Q112.057 658.158 112.057 666.908 Q112.057 675.635 108.978 680.241 Q105.922 684.825 100.112 684.825 Q94.3021 684.825 91.2234 680.241 Q88.1679 675.635 88.1679 666.908 Q88.1679 658.158 91.2234 653.575 Q94.3021 648.968 100.112 648.968 Z" fill="#000000" fill-rule="nonzero" fill-opacity="1" /><path clip-path="url(#clip240)" d="M92.1493 408.161 L99.7882 408.161 L99.7882 381.795 L91.478 383.462 L91.478 379.202 L99.7419 377.536 L104.418 377.536 L104.418 408.161 L112.057 408.161 L112.057 412.096 L92.1493 412.096 L92.1493 408.161 Z" fill="#000000" fill-rule="nonzero" fill-opacity="1" /><path clip-path="url(#clip240)" d="M95.7373 136.103 L112.057 136.103 L112.057 140.038 L90.1123 140.038 L90.1123 136.103 Q92.7743 133.349 97.3576 128.719 Q101.964 124.066 103.145 122.724 Q105.39 120.201 106.27 118.464 Q107.172 116.705 107.172 115.015 Q107.172 112.261 105.228 110.525 Q103.307 108.789 100.205 108.789 Q98.0058 108.789 95.5521 109.552 Q93.1215 110.316 90.3438 111.867 L90.3438 107.145 Q93.1678 106.011 95.6215 105.432 Q98.0752 104.853 100.112 104.853 Q105.483 104.853 108.677 107.539 Q111.871 110.224 111.871 114.714 Q111.871 116.844 111.061 118.765 Q110.274 120.664 108.168 123.256 Q107.589 123.927 104.487 127.145 Q101.385 130.339 95.7373 136.103 Z" fill="#000000" fill-rule="nonzero" fill-opacity="1" /><circle clip-path="url(#clip241)" cx="1857.46" cy="316.004" r="14.4" fill="#009af9" fill-rule="evenodd" fill-opacity="0.5" stroke="#000000" stroke-opacity="0.5" stroke-width="3.2"/>
<circle clip-path="url(#clip241)" cx="210.454" cy="608.588" r="14.4" fill="#009af9" fill-rule="evenodd" fill-opacity="0.5" stroke="#000000" stroke-opacity="0.5" stroke-width="3.2"/>
<circle clip-path="url(#clip241)" cx="1410.48" cy="1090.26" r="14.4" fill="#009af9" fill-rule="evenodd" fill-opacity="0.5" stroke="#000000" stroke-opacity="0.5" stroke-width="3.2"/>
<circle clip-path="url(#clip241)" cx="1531.52" cy="571.829" r="14.4" fill="#009af9" fill-rule="evenodd" fill-opacity="0.5" stroke="#000000" stroke-opacity="0.5" stroke-width="3.2"/>
<circle clip-path="url(#clip241)" cx="1694.72" cy="1445.72" r="14.4" fill="#009af9" fill-rule="evenodd" fill-opacity="0.5" stroke="#000000" stroke-opacity="0.5" stroke-width="3.2"/>
<circle clip-path="url(#clip241)" cx="510.786" cy="646.598" r="14.4" fill="#009af9" fill-rule="evenodd" fill-opacity="0.5" stroke="#000000" stroke-opacity="0.5" stroke-width="3.2"/>
<circle clip-path="url(#clip241)" cx="1875.93" cy="560.482" r="14.4" fill="#009af9" fill-rule="evenodd" fill-opacity="0.5" stroke="#000000" stroke-opacity="0.5" stroke-width="3.2"/>
<circle clip-path="url(#clip241)" cx="1540.05" cy="113.186" r="14.4" fill="#009af9" fill-rule="evenodd" fill-opacity="0.5" stroke="#000000" stroke-opacity="0.5" stroke-width="3.2"/>
<circle clip-path="url(#clip241)" cx="1279.39" cy="704.068" r="14.4" fill="#009af9" fill-rule="evenodd" fill-opacity="0.5" stroke="#000000" stroke-opacity="0.5" stroke-width="3.2"/>
<circle clip-path="url(#clip241)" cx="1453.06" cy="285.216" r="14.4" fill="#009af9" fill-rule="evenodd" fill-opacity="0.5" stroke="#000000" stroke-opacity="0.5" stroke-width="3.2"/>
<circle clip-path="url(#clip241)" cx="936.906" cy="708.805" r="14.4" fill="#009af9" fill-rule="evenodd" fill-opacity="0.5" stroke="#000000" stroke-opacity="0.5" stroke-width="3.2"/>
<circle clip-path="url(#clip241)" cx="385.52" cy="636.966" r="14.4" fill="#009af9" fill-rule="evenodd" fill-opacity="0.5" stroke="#000000" stroke-opacity="0.5" stroke-width="3.2"/>
<circle clip-path="url(#clip241)" cx="1229.28" cy="904.673" r="14.4" fill="#009af9" fill-rule="evenodd" fill-opacity="0.5" stroke="#000000" stroke-opacity="0.5" stroke-width="3.2"/>
<circle clip-path="url(#clip241)" cx="1336.26" cy="582.501" r="14.4" fill="#009af9" fill-rule="evenodd" fill-opacity="0.5" stroke="#000000" stroke-opacity="0.5" stroke-width="3.2"/>
<circle clip-path="url(#clip241)" cx="2112.38" cy="527.789" r="14.4" fill="#009af9" fill-rule="evenodd" fill-opacity="0.5" stroke="#000000" stroke-opacity="0.5" stroke-width="3.2"/>
<circle clip-path="url(#clip241)" cx="1134.51" cy="505.567" r="14.4" fill="#009af9" fill-rule="evenodd" fill-opacity="0.5" stroke="#000000" stroke-opacity="0.5" stroke-width="3.2"/>
<circle clip-path="url(#clip241)" cx="1349.33" cy="699.257" r="14.4" fill="#009af9" fill-rule="evenodd" fill-opacity="0.5" stroke="#000000" stroke-opacity="0.5" stroke-width="3.2"/>
<circle clip-path="url(#clip241)" cx="1991.07" cy="1234.48" r="14.4" fill="#009af9" fill-rule="evenodd" fill-opacity="0.5" stroke="#000000" stroke-opacity="0.5" stroke-width="3.2"/>
<circle clip-path="url(#clip241)" cx="1290.91" cy="891.178" r="14.4" fill="#009af9" fill-rule="evenodd" fill-opacity="0.5" stroke="#000000" stroke-opacity="0.5" stroke-width="3.2"/>
<circle clip-path="url(#clip241)" cx="1439.2" cy="487.28" r="14.4" fill="#009af9" fill-rule="evenodd" fill-opacity="0.5" stroke="#000000" stroke-opacity="0.5" stroke-width="3.2"/>
<circle clip-path="url(#clip241)" cx="2174.36" cy="825.732" r="14.4" fill="#009af9" fill-rule="evenodd" fill-opacity="0.5" stroke="#000000" stroke-opacity="0.5" stroke-width="3.2"/>
<circle clip-path="url(#clip241)" cx="2059.41" cy="628.97" r="14.4" fill="#009af9" fill-rule="evenodd" fill-opacity="0.5" stroke="#000000" stroke-opacity="0.5" stroke-width="3.2"/>
<circle clip-path="url(#clip241)" cx="886.616" cy="564.529" r="14.4" fill="#009af9" fill-rule="evenodd" fill-opacity="0.5" stroke="#000000" stroke-opacity="0.5" stroke-width="3.2"/>
<circle clip-path="url(#clip241)" cx="1854.15" cy="451.629" r="14.4" fill="#009af9" fill-rule="evenodd" fill-opacity="0.5" stroke="#000000" stroke-opacity="0.5" stroke-width="3.2"/>
<circle clip-path="url(#clip241)" cx="2290.36" cy="756.864" r="14.4" fill="#009af9" fill-rule="evenodd" fill-opacity="0.5" stroke="#000000" stroke-opacity="0.5" stroke-width="3.2"/>
<circle clip-path="url(#clip241)" cx="2246.19" cy="87.9763" r="14.4" fill="#009af9" fill-rule="evenodd" fill-opacity="0.5" stroke="#000000" stroke-opacity="0.5" stroke-width="3.2"/>
<circle clip-path="url(#clip241)" cx="1172.58" cy="623.52" r="14.4" fill="#009af9" fill-rule="evenodd" fill-opacity="0.5" stroke="#000000" stroke-opacity="0.5" stroke-width="3.2"/>
<circle clip-path="url(#clip241)" cx="1391.78" cy="843.248" r="14.4" fill="#009af9" fill-rule="evenodd" fill-opacity="0.5" stroke="#000000" stroke-opacity="0.5" stroke-width="3.2"/>
<circle clip-path="url(#clip241)" cx="1127.49" cy="360.686" r="14.4" fill="#009af9" fill-rule="evenodd" fill-opacity="0.5" stroke="#000000" stroke-opacity="0.5" stroke-width="3.2"/>
<circle clip-path="url(#clip241)" cx="472.995" cy="747.187" r="14.4" fill="#009af9" fill-rule="evenodd" fill-opacity="0.5" stroke="#000000" stroke-opacity="0.5" stroke-width="3.2"/>
<path clip-path="url(#clip241)" d="M210.454 608.588 L1694.72 1445.72 L1991.07 1234.48 L2290.36 756.864 L2246.19 87.9763 L1540.05 113.186 L210.454 608.588 L210.454 608.588  Z" fill="#e26f46" fill-rule="evenodd" fill-opacity="0.2"/>
<polyline clip-path="url(#clip241)" style="stroke:#000000; stroke-linecap:round; stroke-linejoin:round; stroke-width:4; stroke-opacity:0.2; fill:none" points="210.454,608.588 1694.72,1445.72 1991.07,1234.48 2290.36,756.864 2246.19,87.9763 1540.05,113.186 210.454,608.588 "/>
</svg>
