<?xml version="1.0" encoding="utf-8"?>
<svg xmlns="http://www.w3.org/2000/svg" xmlns:xlink="http://www.w3.org/1999/xlink" width="600" height="400" viewBox="0 0 2400 1600">
<defs>
  <clipPath id="clip560">
    <rect x="0" y="0" width="2400" height="1600"/>
  </clipPath>
</defs>
<path clip-path="url(#clip560)" d="M0 1600 L2400 1600 L2400 0 L0 0  Z" fill="#ffffff" fill-rule="evenodd" fill-opacity="1"/>
<defs>
  <clipPath id="clip561">
    <rect x="480" y="0" width="1681" height="1600"/>
  </clipPath>
</defs>
<path clip-path="url(#clip560)" d="M193.936 1486.45 L2352.76 1486.45 L2352.76 47.2441 L193.936 47.2441  Z" fill="#ffffff" fill-rule="evenodd" fill-opacity="1"/>
<defs>
  <clipPath id="clip562">
    <rect x="193" y="47" width="2160" height="1440"/>
  </clipPath>
</defs>
<polyline clip-path="url(#clip562)" style="stroke:#000000; stroke-linecap:round; stroke-linejoin:round; stroke-width:2; stroke-opacity:0.1; fill:none" points="404.074,1486.45 404.074,47.2441 "/>
<polyline clip-path="url(#clip562)" style="stroke:#000000; stroke-linecap:round; stroke-linejoin:round; stroke-width:2; stroke-opacity:0.1; fill:none" points="886.542,1486.45 886.542,47.2441 "/>
<polyline clip-path="url(#clip562)" style="stroke:#000000; stroke-linecap:round; stroke-linejoin:round; stroke-width:2; stroke-opacity:0.1; fill:none" points="1369.01,1486.45 1369.01,47.2441 "/>
<polyline clip-path="url(#clip562)" style="stroke:#000000; stroke-linecap:round; stroke-linejoin:round; stroke-width:2; stroke-opacity:0.1; fill:none" points="1851.48,1486.45 1851.48,47.2441 "/>
<polyline clip-path="url(#clip562)" style="stroke:#000000; stroke-linecap:round; stroke-linejoin:round; stroke-width:2; stroke-opacity:0.1; fill:none" points="2333.94,1486.45 2333.94,47.2441 "/>
<polyline clip-path="url(#clip560)" style="stroke:#000000; stroke-linecap:round; stroke-linejoin:round; stroke-width:4; stroke-opacity:1; fill:none" points="193.936,1486.45 2352.76,1486.45 "/>
<polyline clip-path="url(#clip560)" style="stroke:#000000; stroke-linecap:round; stroke-linejoin:round; stroke-width:4; stroke-opacity:1; fill:none" points="404.074,1486.45 404.074,1467.55 "/>
<polyline clip-path="url(#clip560)" style="stroke:#000000; stroke-linecap:round; stroke-linejoin:round; stroke-width:4; stroke-opacity:1; fill:none" points="886.542,1486.45 886.542,1467.55 "/>
<polyline clip-path="url(#clip560)" style="stroke:#000000; stroke-linecap:round; stroke-linejoin:round; stroke-width:4; stroke-opacity:1; fill:none" points="1369.01,1486.45 1369.01,1467.55 "/>
<polyline clip-path="url(#clip560)" style="stroke:#000000; stroke-linecap:round; stroke-linejoin:round; stroke-width:4; stroke-opacity:1; fill:none" points="1851.48,1486.45 1851.48,1467.55 "/>
<polyline clip-path="url(#clip560)" style="stroke:#000000; stroke-linecap:round; stroke-linejoin:round; stroke-width:4; stroke-opacity:1; fill:none" points="2333.94,1486.45 2333.94,1467.55 "/>
<path clip-path="url(#clip560)" d="M374.016 1532.02 L403.692 1532.02 L403.692 1535.95 L374.016 1535.95 L374.016 1532.02 Z" fill="#000000" fill-rule="nonzero" fill-opacity="1" /><path clip-path="url(#clip560)" d="M417.812 1544.91 L434.132 1544.91 L434.132 1548.85 L412.187 1548.85 L412.187 1544.91 Q414.849 1542.16 419.433 1537.53 Q424.039 1532.88 425.22 1531.53 Q427.465 1529.01 428.345 1527.27 Q429.247 1525.51 429.247 1523.82 Q429.247 1521.07 427.303 1519.33 Q425.382 1517.6 422.28 1517.6 Q420.081 1517.6 417.627 1518.36 Q415.197 1519.13 412.419 1520.68 L412.419 1515.95 Q415.243 1514.82 417.697 1514.24 Q420.15 1513.66 422.187 1513.66 Q427.558 1513.66 430.752 1516.35 Q433.946 1519.03 433.946 1523.52 Q433.946 1525.65 433.136 1527.57 Q432.349 1529.47 430.243 1532.07 Q429.664 1532.74 426.562 1535.95 Q423.46 1539.15 417.812 1544.91 Z" fill="#000000" fill-rule="nonzero" fill-opacity="1" /><path clip-path="url(#clip560)" d="M856.299 1532.02 L885.975 1532.02 L885.975 1535.95 L856.299 1535.95 L856.299 1532.02 Z" fill="#000000" fill-rule="nonzero" fill-opacity="1" /><path clip-path="url(#clip560)" d="M896.877 1544.91 L904.516 1544.91 L904.516 1518.55 L896.206 1520.21 L896.206 1515.95 L904.47 1514.29 L909.146 1514.29 L909.146 1544.91 L916.785 1544.91 L916.785 1548.85 L896.877 1548.85 L896.877 1544.91 Z" fill="#000000" fill-rule="nonzero" fill-opacity="1" /><path clip-path="url(#clip560)" d="M1369.01 1517.37 Q1365.4 1517.37 1363.57 1520.93 Q1361.76 1524.47 1361.76 1531.6 Q1361.76 1538.71 1363.57 1542.27 Q1365.4 1545.82 1369.01 1545.82 Q1372.64 1545.82 1374.45 1542.27 Q1376.28 1538.71 1376.28 1531.6 Q1376.28 1524.47 1374.45 1520.93 Q1372.64 1517.37 1369.01 1517.37 M1369.01 1513.66 Q1374.82 1513.66 1377.88 1518.27 Q1380.95 1522.85 1380.95 1531.6 Q1380.95 1540.33 1377.88 1544.94 Q1374.82 1549.52 1369.01 1549.52 Q1363.2 1549.52 1360.12 1544.94 Q1357.07 1540.33 1357.07 1531.6 Q1357.07 1522.85 1360.12 1518.27 Q1363.2 1513.66 1369.01 1513.66 Z" fill="#000000" fill-rule="nonzero" fill-opacity="1" /><path clip-path="url(#clip560)" d="M1841.86 1544.91 L1849.5 1544.91 L1849.5 1518.55 L1841.19 1520.21 L1841.19 1515.95 L1849.45 1514.29 L1854.13 1514.29 L1854.13 1544.91 L1861.77 1544.91 L1861.77 1548.85 L1841.86 1548.85 L1841.86 1544.91 Z" fill="#000000" fill-rule="nonzero" fill-opacity="1" /><path clip-path="url(#clip560)" d="M2328.6 1544.91 L2344.92 1544.91 L2344.92 1548.85 L2322.97 1548.85 L2322.97 1544.91 Q2325.63 1542.16 2330.22 1537.53 Q2334.82 1532.88 2336.01 1531.53 Q2338.25 1529.01 2339.13 1527.27 Q2340.03 1525.51 2340.03 1523.82 Q2340.03 1521.07 2338.09 1519.33 Q2336.17 1517.6 2333.07 1517.6 Q2330.87 1517.6 2328.41 1518.36 Q2325.98 1519.13 2323.2 1520.68 L2323.2 1515.95 Q2326.03 1514.82 2328.48 1514.24 Q2330.94 1513.66 2332.97 1513.66 Q2338.34 1513.66 2341.54 1516.35 Q2344.73 1519.03 2344.73 1523.52 Q2344.73 1525.65 2343.92 1527.57 Q2343.13 1529.47 2341.03 1532.07 Q2340.45 1532.74 2337.35 1535.95 Q2334.25 1539.15 2328.6 1544.91 Z" fill="#000000" fill-rule="nonzero" fill-opacity="1" /><polyline clip-path="url(#clip562)" style="stroke:#000000; stroke-linecap:round; stroke-linejoin:round; stroke-width:2; stroke-opacity:0.1; fill:none" points="193.936,1392.71 2352.76,1392.71 "/>
<polyline clip-path="url(#clip562)" style="stroke:#000000; stroke-linecap:round; stroke-linejoin:round; stroke-width:2; stroke-opacity:0.1; fill:none" points="193.936,1196.69 2352.76,1196.69 "/>
<polyline clip-path="url(#clip562)" style="stroke:#000000; stroke-linecap:round; stroke-linejoin:round; stroke-width:2; stroke-opacity:0.1; fill:none" points="193.936,1000.67 2352.76,1000.67 "/>
<polyline clip-path="url(#clip562)" style="stroke:#000000; stroke-linecap:round; stroke-linejoin:round; stroke-width:2; stroke-opacity:0.1; fill:none" points="193.936,804.66 2352.76,804.66 "/>
<polyline clip-path="url(#clip562)" style="stroke:#000000; stroke-linecap:round; stroke-linejoin:round; stroke-width:2; stroke-opacity:0.1; fill:none" points="193.936,608.645 2352.76,608.645 "/>
<polyline clip-path="url(#clip562)" style="stroke:#000000; stroke-linecap:round; stroke-linejoin:round; stroke-width:2; stroke-opacity:0.1; fill:none" points="193.936,412.63 2352.76,412.63 "/>
<polyline clip-path="url(#clip562)" style="stroke:#000000; stroke-linecap:round; stroke-linejoin:round; stroke-width:2; stroke-opacity:0.1; fill:none" points="193.936,216.614 2352.76,216.614 "/>
<polyline clip-path="url(#clip560)" style="stroke:#000000; stroke-linecap:round; stroke-linejoin:round; stroke-width:4; stroke-opacity:1; fill:none" points="193.936,1486.45 193.936,47.2441 "/>
<polyline clip-path="url(#clip560)" style="stroke:#000000; stroke-linecap:round; stroke-linejoin:round; stroke-width:4; stroke-opacity:1; fill:none" points="193.936,1392.71 212.834,1392.71 "/>
<polyline clip-path="url(#clip560)" style="stroke:#000000; stroke-linecap:round; stroke-linejoin:round; stroke-width:4; stroke-opacity:1; fill:none" points="193.936,1196.69 212.834,1196.69 "/>
<polyline clip-path="url(#clip560)" style="stroke:#000000; stroke-linecap:round; stroke-linejoin:round; stroke-width:4; stroke-opacity:1; fill:none" points="193.936,1000.67 212.834,1000.67 "/>
<polyline clip-path="url(#clip560)" style="stroke:#000000; stroke-linecap:round; stroke-linejoin:round; stroke-width:4; stroke-opacity:1; fill:none" points="193.936,804.66 212.834,804.66 "/>
<polyline clip-path="url(#clip560)" style="stroke:#000000; stroke-linecap:round; stroke-linejoin:round; stroke-width:4; stroke-opacity:1; fill:none" points="193.936,608.645 212.834,608.645 "/>
<polyline clip-path="url(#clip560)" style="stroke:#000000; stroke-linecap:round; stroke-linejoin:round; stroke-width:4; stroke-opacity:1; fill:none" points="193.936,412.63 212.834,412.63 "/>
<polyline clip-path="url(#clip560)" style="stroke:#000000; stroke-linecap:round; stroke-linejoin:round; stroke-width:4; stroke-opacity:1; fill:none" points="193.936,216.614 212.834,216.614 "/>
<path clip-path="url(#clip560)" d="M51.9875 1393.16 L81.6633 1393.16 L81.6633 1397.09 L51.9875 1397.09 L51.9875 1393.16 Z" fill="#000000" fill-rule="nonzero" fill-opacity="1" /><path clip-path="url(#clip560)" d="M92.566 1406.05 L100.205 1406.05 L100.205 1379.68 L91.8947 1381.35 L91.8947 1377.09 L100.159 1375.43 L104.834 1375.43 L104.834 1406.05 L112.473 1406.05 L112.473 1409.99 L92.566 1409.99 L92.566 1406.05 Z" fill="#000000" fill-rule="nonzero" fill-opacity="1" /><path clip-path="url(#clip560)" d="M121.918 1404.11 L126.802 1404.11 L126.802 1409.99 L121.918 1409.99 L121.918 1404.11 Z" fill="#000000" fill-rule="nonzero" fill-opacity="1" /><path clip-path="url(#clip560)" d="M137.033 1375.43 L155.39 1375.43 L155.39 1379.36 L141.316 1379.36 L141.316 1387.83 Q142.334 1387.49 143.353 1387.32 Q144.371 1387.14 145.39 1387.14 Q151.177 1387.14 154.556 1390.31 Q157.936 1393.48 157.936 1398.9 Q157.936 1404.48 154.464 1407.58 Q150.992 1410.66 144.672 1410.66 Q142.496 1410.66 140.228 1410.29 Q137.982 1409.92 135.575 1409.18 L135.575 1404.48 Q137.658 1405.61 139.881 1406.17 Q142.103 1406.72 144.58 1406.72 Q148.584 1406.72 150.922 1404.61 Q153.26 1402.51 153.26 1398.9 Q153.26 1395.29 150.922 1393.18 Q148.584 1391.07 144.58 1391.07 Q142.705 1391.07 140.83 1391.49 Q138.978 1391.91 137.033 1392.79 L137.033 1375.43 Z" fill="#000000" fill-rule="nonzero" fill-opacity="1" /><path clip-path="url(#clip560)" d="M50.9921 1197.14 L80.6679 1197.14 L80.6679 1201.08 L50.9921 1201.08 L50.9921 1197.14 Z" fill="#000000" fill-rule="nonzero" fill-opacity="1" /><path clip-path="url(#clip560)" d="M91.5706 1210.03 L99.2095 1210.03 L99.2095 1183.67 L90.8993 1185.34 L90.8993 1181.08 L99.1632 1179.41 L103.839 1179.41 L103.839 1210.03 L111.478 1210.03 L111.478 1213.97 L91.5706 1213.97 L91.5706 1210.03 Z" fill="#000000" fill-rule="nonzero" fill-opacity="1" /><path clip-path="url(#clip560)" d="M120.922 1208.09 L125.807 1208.09 L125.807 1213.97 L120.922 1213.97 L120.922 1208.09 Z" fill="#000000" fill-rule="nonzero" fill-opacity="1" /><path clip-path="url(#clip560)" d="M145.992 1182.49 Q142.381 1182.49 140.552 1186.05 Q138.746 1189.6 138.746 1196.72 Q138.746 1203.83 140.552 1207.4 Q142.381 1210.94 145.992 1210.94 Q149.626 1210.94 151.431 1207.4 Q153.26 1203.83 153.26 1196.72 Q153.26 1189.6 151.431 1186.05 Q149.626 1182.49 145.992 1182.49 M145.992 1178.79 Q151.802 1178.79 154.857 1183.39 Q157.936 1187.97 157.936 1196.72 Q157.936 1205.45 154.857 1210.06 Q151.802 1214.64 145.992 1214.64 Q140.181 1214.64 137.103 1210.06 Q134.047 1205.45 134.047 1196.72 Q134.047 1187.97 137.103 1183.39 Q140.181 1178.79 145.992 1178.79 Z" fill="#000000" fill-rule="nonzero" fill-opacity="1" /><path clip-path="url(#clip560)" d="M51.9875 1001.13 L81.6633 1001.13 L81.6633 1005.06 L51.9875 1005.06 L51.9875 1001.13 Z" fill="#000000" fill-rule="nonzero" fill-opacity="1" /><path clip-path="url(#clip560)" d="M101.756 986.474 Q98.1447 986.474 96.316 990.038 Q94.5104 993.58 94.5104 1000.71 Q94.5104 1007.82 96.316 1011.38 Q98.1447 1014.92 101.756 1014.92 Q105.39 1014.92 107.196 1011.38 Q109.024 1007.82 109.024 1000.71 Q109.024 993.58 107.196 990.038 Q105.39 986.474 101.756 986.474 M101.756 982.77 Q107.566 982.77 110.621 987.376 Q113.7 991.96 113.7 1000.71 Q113.7 1009.44 110.621 1014.04 Q107.566 1018.63 101.756 1018.63 Q95.9456 1018.63 92.8669 1014.04 Q89.8114 1009.44 89.8114 1000.71 Q89.8114 991.96 92.8669 987.376 Q95.9456 982.77 101.756 982.77 Z" fill="#000000" fill-rule="nonzero" fill-opacity="1" /><path clip-path="url(#clip560)" d="M121.918 1012.08 L126.802 1012.08 L126.802 1017.95 L121.918 1017.95 L121.918 1012.08 Z" fill="#000000" fill-rule="nonzero" fill-opacity="1" /><path clip-path="url(#clip560)" d="M137.033 983.395 L155.39 983.395 L155.39 987.33 L141.316 987.33 L141.316 995.802 Q142.334 995.455 143.353 995.293 Q144.371 995.108 145.39 995.108 Q151.177 995.108 154.556 998.279 Q157.936 1001.45 157.936 1006.87 Q157.936 1012.45 154.464 1015.55 Q150.992 1018.63 144.672 1018.63 Q142.496 1018.63 140.228 1018.26 Q137.982 1017.89 135.575 1017.14 L135.575 1012.45 Q137.658 1013.58 139.881 1014.14 Q142.103 1014.69 144.58 1014.69 Q148.584 1014.69 150.922 1012.58 Q153.26 1010.48 153.26 1006.87 Q153.26 1003.26 150.922 1001.15 Q148.584 999.043 144.58 999.043 Q142.705 999.043 140.83 999.46 Q138.978 999.876 137.033 1000.76 L137.033 983.395 Z" fill="#000000" fill-rule="nonzero" fill-opacity="1" /><path clip-path="url(#clip560)" d="M100.76 790.459 Q97.1493 790.459 95.3206 794.023 Q93.515 797.565 93.515 804.695 Q93.515 811.801 95.3206 815.366 Q97.1493 818.907 100.76 818.907 Q104.395 818.907 106.2 815.366 Q108.029 811.801 108.029 804.695 Q108.029 797.565 106.2 794.023 Q104.395 790.459 100.76 790.459 M100.76 786.755 Q106.571 786.755 109.626 791.361 Q112.705 795.945 112.705 804.695 Q112.705 813.421 109.626 818.028 Q106.571 822.611 100.76 822.611 Q94.9502 822.611 91.8715 818.028 Q88.816 813.421 88.816 804.695 Q88.816 795.945 91.8715 791.361 Q94.9502 786.755 100.76 786.755 Z" fill="#000000" fill-rule="nonzero" fill-opacity="1" /><path clip-path="url(#clip560)" d="M120.922 816.06 L125.807 816.06 L125.807 821.94 L120.922 821.94 L120.922 816.06 Z" fill="#000000" fill-rule="nonzero" fill-opacity="1" /><path clip-path="url(#clip560)" d="M145.992 790.459 Q142.381 790.459 140.552 794.023 Q138.746 797.565 138.746 804.695 Q138.746 811.801 140.552 815.366 Q142.381 818.907 145.992 818.907 Q149.626 818.907 151.431 815.366 Q153.26 811.801 153.26 804.695 Q153.26 797.565 151.431 794.023 Q149.626 790.459 145.992 790.459 M145.992 786.755 Q151.802 786.755 154.857 791.361 Q157.936 795.945 157.936 804.695 Q157.936 813.421 154.857 818.028 Q151.802 822.611 145.992 822.611 Q140.181 822.611 137.103 818.028 Q134.047 813.421 134.047 804.695 Q134.047 795.945 137.103 791.361 Q140.181 786.755 145.992 786.755 Z" fill="#000000" fill-rule="nonzero" fill-opacity="1" /><path clip-path="url(#clip560)" d="M101.756 594.443 Q98.1447 594.443 96.316 598.008 Q94.5104 601.55 94.5104 608.679 Q94.5104 615.786 96.316 619.351 Q98.1447 622.892 101.756 622.892 Q105.39 622.892 107.196 619.351 Q109.024 615.786 109.024 608.679 Q109.024 601.55 107.196 598.008 Q105.39 594.443 101.756 594.443 M101.756 590.74 Q107.566 590.74 110.621 595.346 Q113.7 599.929 113.7 608.679 Q113.7 617.406 110.621 622.013 Q107.566 626.596 101.756 626.596 Q95.9456 626.596 92.8669 622.013 Q89.8114 617.406 89.8114 608.679 Q89.8114 599.929 92.8669 595.346 Q95.9456 590.74 101.756 590.74 Z" fill="#000000" fill-rule="nonzero" fill-opacity="1" /><path clip-path="url(#clip560)" d="M121.918 620.045 L126.802 620.045 L126.802 625.925 L121.918 625.925 L121.918 620.045 Z" fill="#000000" fill-rule="nonzero" fill-opacity="1" /><path clip-path="url(#clip560)" d="M137.033 591.365 L155.39 591.365 L155.39 595.3 L141.316 595.3 L141.316 603.772 Q142.334 603.425 143.353 603.263 Q144.371 603.078 145.39 603.078 Q151.177 603.078 154.556 606.249 Q157.936 609.42 157.936 614.837 Q157.936 620.415 154.464 623.517 Q150.992 626.596 144.672 626.596 Q142.496 626.596 140.228 626.226 Q137.982 625.855 135.575 625.115 L135.575 620.415 Q137.658 621.55 139.881 622.105 Q142.103 622.661 144.58 622.661 Q148.584 622.661 150.922 620.554 Q153.26 618.448 153.26 614.837 Q153.26 611.226 150.922 609.119 Q148.584 607.013 144.58 607.013 Q142.705 607.013 140.83 607.429 Q138.978 607.846 137.033 608.726 L137.033 591.365 Z" fill="#000000" fill-rule="nonzero" fill-opacity="1" /><path clip-path="url(#clip560)" d="M91.5706 425.974 L99.2095 425.974 L99.2095 399.609 L90.8993 401.275 L90.8993 397.016 L99.1632 395.35 L103.839 395.35 L103.839 425.974 L111.478 425.974 L111.478 429.91 L91.5706 429.91 L91.5706 425.974 Z" fill="#000000" fill-rule="nonzero" fill-opacity="1" /><path clip-path="url(#clip560)" d="M120.922 424.03 L125.807 424.03 L125.807 429.91 L120.922 429.91 L120.922 424.03 Z" fill="#000000" fill-rule="nonzero" fill-opacity="1" /><path clip-path="url(#clip560)" d="M145.992 398.428 Q142.381 398.428 140.552 401.993 Q138.746 405.535 138.746 412.664 Q138.746 419.771 140.552 423.336 Q142.381 426.877 145.992 426.877 Q149.626 426.877 151.431 423.336 Q153.26 419.771 153.26 412.664 Q153.26 405.535 151.431 401.993 Q149.626 398.428 145.992 398.428 M145.992 394.725 Q151.802 394.725 154.857 399.331 Q157.936 403.914 157.936 412.664 Q157.936 421.391 154.857 425.998 Q151.802 430.581 145.992 430.581 Q140.181 430.581 137.103 425.998 Q134.047 421.391 134.047 412.664 Q134.047 403.914 137.103 399.331 Q140.181 394.725 145.992 394.725 Z" fill="#000000" fill-rule="nonzero" fill-opacity="1" /><path clip-path="url(#clip560)" d="M92.566 229.959 L100.205 229.959 L100.205 203.594 L91.8947 205.26 L91.8947 201.001 L100.159 199.334 L104.834 199.334 L104.834 229.959 L112.473 229.959 L112.473 233.894 L92.566 233.894 L92.566 229.959 Z" fill="#000000" fill-rule="nonzero" fill-opacity="1" /><path clip-path="url(#clip560)" d="M121.918 228.015 L126.802 228.015 L126.802 233.894 L121.918 233.894 L121.918 228.015 Z" fill="#000000" fill-rule="nonzero" fill-opacity="1" /><path clip-path="url(#clip560)" d="M137.033 199.334 L155.39 199.334 L155.39 203.27 L141.316 203.27 L141.316 211.742 Q142.334 211.395 143.353 211.233 Q144.371 211.047 145.39 211.047 Q151.177 211.047 154.556 214.219 Q157.936 217.39 157.936 222.807 Q157.936 228.385 154.464 231.487 Q150.992 234.566 144.672 234.566 Q142.496 234.566 140.228 234.195 Q137.982 233.825 135.575 233.084 L135.575 228.385 Q137.658 229.519 139.881 230.075 Q142.103 230.631 144.58 230.631 Q148.584 230.631 150.922 228.524 Q153.26 226.418 153.26 222.807 Q153.26 219.195 150.922 217.089 Q148.584 214.983 144.58 214.983 Q142.705 214.983 140.83 215.399 Q138.978 215.816 137.033 216.695 L137.033 199.334 Z" fill="#000000" fill-rule="nonzero" fill-opacity="1" /><circle clip-path="url(#clip562)" cx="682.006" cy="366.495" r="14.4" fill="#009af9" fill-rule="evenodd" fill-opacity="0.5" stroke="#000000" stroke-opacity="0.5" stroke-width="3.2"/>
<circle clip-path="url(#clip562)" cx="1433.63" cy="760.724" r="14.4" fill="#009af9" fill-rule="evenodd" fill-opacity="0.5" stroke="#000000" stroke-opacity="0.5" stroke-width="3.2"/>
<circle clip-path="url(#clip562)" cx="739.381" cy="1404.82" r="14.4" fill="#009af9" fill-rule="evenodd" fill-opacity="0.5" stroke="#000000" stroke-opacity="0.5" stroke-width="3.2"/>
<circle clip-path="url(#clip562)" cx="272.698" cy="1242.47" r="14.4" fill="#009af9" fill-rule="evenodd" fill-opacity="0.5" stroke="#000000" stroke-opacity="0.5" stroke-width="3.2"/>
<circle clip-path="url(#clip562)" cx="608.701" cy="410.675" r="14.4" fill="#009af9" fill-rule="evenodd" fill-opacity="0.5" stroke="#000000" stroke-opacity="0.5" stroke-width="3.2"/>
<circle clip-path="url(#clip562)" cx="1239.59" cy="87.9763" r="14.4" fill="#009af9" fill-rule="evenodd" fill-opacity="0.5" stroke="#000000" stroke-opacity="0.5" stroke-width="3.2"/>
<circle clip-path="url(#clip562)" cx="623.119" cy="314.769" r="14.4" fill="#009af9" fill-rule="evenodd" fill-opacity="0.5" stroke="#000000" stroke-opacity="0.5" stroke-width="3.2"/>
<circle clip-path="url(#clip562)" cx="1718.33" cy="656.348" r="14.4" fill="#009af9" fill-rule="evenodd" fill-opacity="0.5" stroke="#000000" stroke-opacity="0.5" stroke-width="3.2"/>
<circle clip-path="url(#clip562)" cx="1197.11" cy="1000.65" r="14.4" fill="#009af9" fill-rule="evenodd" fill-opacity="0.5" stroke="#000000" stroke-opacity="0.5" stroke-width="3.2"/>
<circle clip-path="url(#clip562)" cx="1776.1" cy="1012.33" r="14.4" fill="#009af9" fill-rule="evenodd" fill-opacity="0.5" stroke="#000000" stroke-opacity="0.5" stroke-width="3.2"/>
<circle clip-path="url(#clip562)" cx="990.706" cy="1255.7" r="14.4" fill="#009af9" fill-rule="evenodd" fill-opacity="0.5" stroke="#000000" stroke-opacity="0.5" stroke-width="3.2"/>
<circle clip-path="url(#clip562)" cx="669.927" cy="407.005" r="14.4" fill="#009af9" fill-rule="evenodd" fill-opacity="0.5" stroke="#000000" stroke-opacity="0.5" stroke-width="3.2"/>
<circle clip-path="url(#clip562)" cx="983.492" cy="1120.97" r="14.4" fill="#009af9" fill-rule="evenodd" fill-opacity="0.5" stroke="#000000" stroke-opacity="0.5" stroke-width="3.2"/>
<circle clip-path="url(#clip562)" cx="1435.83" cy="460.928" r="14.4" fill="#009af9" fill-rule="evenodd" fill-opacity="0.5" stroke="#000000" stroke-opacity="0.5" stroke-width="3.2"/>
<circle clip-path="url(#clip562)" cx="1008.14" cy="1445.72" r="14.4" fill="#009af9" fill-rule="evenodd" fill-opacity="0.5" stroke="#000000" stroke-opacity="0.5" stroke-width="3.2"/>
<circle clip-path="url(#clip562)" cx="812.752" cy="1000.29" r="14.4" fill="#009af9" fill-rule="evenodd" fill-opacity="0.5" stroke="#000000" stroke-opacity="0.5" stroke-width="3.2"/>
<circle clip-path="url(#clip562)" cx="964.541" cy="969.913" r="14.4" fill="#009af9" fill-rule="evenodd" fill-opacity="0.5" stroke="#000000" stroke-opacity="0.5" stroke-width="3.2"/>
<circle clip-path="url(#clip562)" cx="1896.19" cy="357.503" r="14.4" fill="#009af9" fill-rule="evenodd" fill-opacity="0.5" stroke="#000000" stroke-opacity="0.5" stroke-width="3.2"/>
<circle clip-path="url(#clip562)" cx="2291.66" cy="538.223" r="14.4" fill="#009af9" fill-rule="evenodd" fill-opacity="0.5" stroke="#000000" stroke-opacity="0.5" stroke-width="3.2"/>
<circle clip-path="url(#clip562)" cx="1585.38" cy="1093.58" r="14.4" fill="#009af9" fill-rule="evenodd" fill-opacity="0.5" stroke="#000000" stroke-opacity="0.5" stroke-width="3.2"/>
<circle clip-path="url(#clip562)" cx="806.906" cy="629.066" r="14.4" fill="#009af9" fill-rule="evenodd" fill-opacity="0.5" stroke="#000000" stroke-opacity="0.5" stroke-width="3.2"/>
<circle clip-path="url(#clip562)" cx="255.035" cy="1243.24" r="14.4" fill="#009af9" fill-rule="evenodd" fill-opacity="0.5" stroke="#000000" stroke-opacity="0.5" stroke-width="3.2"/>
<circle clip-path="url(#clip562)" cx="620.953" cy="1211.76" r="14.4" fill="#009af9" fill-rule="evenodd" fill-opacity="0.5" stroke="#000000" stroke-opacity="0.5" stroke-width="3.2"/>
<circle clip-path="url(#clip562)" cx="1066.85" cy="776.124" r="14.4" fill="#009af9" fill-rule="evenodd" fill-opacity="0.5" stroke="#000000" stroke-opacity="0.5" stroke-width="3.2"/>
<circle clip-path="url(#clip562)" cx="1274.31" cy="347.732" r="14.4" fill="#009af9" fill-rule="evenodd" fill-opacity="0.5" stroke="#000000" stroke-opacity="0.5" stroke-width="3.2"/>
<circle clip-path="url(#clip562)" cx="1970.47" cy="459.027" r="14.4" fill="#009af9" fill-rule="evenodd" fill-opacity="0.5" stroke="#000000" stroke-opacity="0.5" stroke-width="3.2"/>
<circle clip-path="url(#clip562)" cx="824.743" cy="885.318" r="14.4" fill="#009af9" fill-rule="evenodd" fill-opacity="0.5" stroke="#000000" stroke-opacity="0.5" stroke-width="3.2"/>
<circle clip-path="url(#clip562)" cx="1384.77" cy="684.295" r="14.4" fill="#009af9" fill-rule="evenodd" fill-opacity="0.5" stroke="#000000" stroke-opacity="0.5" stroke-width="3.2"/>
<circle clip-path="url(#clip562)" cx="846.668" cy="543.541" r="14.4" fill="#009af9" fill-rule="evenodd" fill-opacity="0.5" stroke="#000000" stroke-opacity="0.5" stroke-width="3.2"/>
<circle clip-path="url(#clip562)" cx="1736.85" cy="515.617" r="14.4" fill="#009af9" fill-rule="evenodd" fill-opacity="0.5" stroke="#000000" stroke-opacity="0.5" stroke-width="3.2"/>
<path clip-path="url(#clip562)" d="M255.035 1243.24 L739.381 1404.82 L1008.14 1445.72 L1776.1 1012.33 L2291.66 538.223 L1896.19 357.503 L1239.59 87.9763 L623.119 314.769 L255.035 1243.24 L255.035 1243.24  Z" fill="#e26f46" fill-rule="evenodd" fill-opacity="0.2"/>
<polyline clip-path="url(#clip562)" style="stroke:#000000; stroke-linecap:round; stroke-linejoin:round; stroke-width:4; stroke-opacity:0.2; fill:none" points="255.035,1243.24 739.381,1404.82 1008.14,1445.72 1776.1,1012.33 2291.66,538.223 1896.19,357.503 1239.59,87.9763 623.119,314.769 255.035,1243.24 "/>
</svg>
