<?xml version="1.0" encoding="utf-8"?>
<svg xmlns="http://www.w3.org/2000/svg" xmlns:xlink="http://www.w3.org/1999/xlink" width="600" height="400" viewBox="0 0 2400 1600">
<defs>
  <clipPath id="clip300">
    <rect x="0" y="0" width="2400" height="1600"/>
  </clipPath>
</defs>
<path clip-path="url(#clip300)" d="M0 1600 L2400 1600 L2400 0 L0 0  Z" fill="#ffffff" fill-rule="evenodd" fill-opacity="1"/>
<defs>
  <clipPath id="clip301">
    <rect x="480" y="0" width="1681" height="1600"/>
  </clipPath>
</defs>
<path clip-path="url(#clip300)" d="M148.057 1486.45 L2352.76 1486.45 L2352.76 47.2441 L148.057 47.2441  Z" fill="#ffffff" fill-rule="evenodd" fill-opacity="1"/>
<defs>
  <clipPath id="clip302">
    <rect x="148" y="47" width="2206" height="1440"/>
  </clipPath>
</defs>
<polyline clip-path="url(#clip302)" style="stroke:#000000; stroke-linecap:round; stroke-linejoin:round; stroke-width:2; stroke-opacity:0.1; fill:none" points="585.132,1486.45 585.132,47.2441 "/>
<polyline clip-path="url(#clip302)" style="stroke:#000000; stroke-linecap:round; stroke-linejoin:round; stroke-width:2; stroke-opacity:0.1; fill:none" points="1078.37,1486.45 1078.37,47.2441 "/>
<polyline clip-path="url(#clip302)" style="stroke:#000000; stroke-linecap:round; stroke-linejoin:round; stroke-width:2; stroke-opacity:0.1; fill:none" points="1571.61,1486.45 1571.61,47.2441 "/>
<polyline clip-path="url(#clip302)" style="stroke:#000000; stroke-linecap:round; stroke-linejoin:round; stroke-width:2; stroke-opacity:0.1; fill:none" points="2064.84,1486.45 2064.84,47.2441 "/>
<polyline clip-path="url(#clip302)" style="stroke:#000000; stroke-linecap:round; stroke-linejoin:round; stroke-width:2; stroke-opacity:0.1; fill:none" points="148.057,1381.9 2352.76,1381.9 "/>
<polyline clip-path="url(#clip302)" style="stroke:#000000; stroke-linecap:round; stroke-linejoin:round; stroke-width:2; stroke-opacity:0.1; fill:none" points="148.057,1169.44 2352.76,1169.44 "/>
<polyline clip-path="url(#clip302)" style="stroke:#000000; stroke-linecap:round; stroke-linejoin:round; stroke-width:2; stroke-opacity:0.1; fill:none" points="148.057,956.985 2352.76,956.985 "/>
<polyline clip-path="url(#clip302)" style="stroke:#000000; stroke-linecap:round; stroke-linejoin:round; stroke-width:2; stroke-opacity:0.1; fill:none" points="148.057,744.529 2352.76,744.529 "/>
<polyline clip-path="url(#clip302)" style="stroke:#000000; stroke-linecap:round; stroke-linejoin:round; stroke-width:2; stroke-opacity:0.1; fill:none" points="148.057,532.073 2352.76,532.073 "/>
<polyline clip-path="url(#clip302)" style="stroke:#000000; stroke-linecap:round; stroke-linejoin:round; stroke-width:2; stroke-opacity:0.1; fill:none" points="148.057,319.617 2352.76,319.617 "/>
<polyline clip-path="url(#clip302)" style="stroke:#000000; stroke-linecap:round; stroke-linejoin:round; stroke-width:2; stroke-opacity:0.1; fill:none" points="148.057,107.161 2352.76,107.161 "/>
<polyline clip-path="url(#clip300)" style="stroke:#000000; stroke-linecap:round; stroke-linejoin:round; stroke-width:4; stroke-opacity:1; fill:none" points="148.057,1486.45 2352.76,1486.45 "/>
<polyline clip-path="url(#clip300)" style="stroke:#000000; stroke-linecap:round; stroke-linejoin:round; stroke-width:4; stroke-opacity:1; fill:none" points="585.132,1486.45 585.132,1467.55 "/>
<polyline clip-path="url(#clip300)" style="stroke:#000000; stroke-linecap:round; stroke-linejoin:round; stroke-width:4; stroke-opacity:1; fill:none" points="1078.37,1486.45 1078.37,1467.55 "/>
<polyline clip-path="url(#clip300)" style="stroke:#000000; stroke-linecap:round; stroke-linejoin:round; stroke-width:4; stroke-opacity:1; fill:none" points="1571.61,1486.45 1571.61,1467.55 "/>
<polyline clip-path="url(#clip300)" style="stroke:#000000; stroke-linecap:round; stroke-linejoin:round; stroke-width:4; stroke-opacity:1; fill:none" points="2064.84,1486.45 2064.84,1467.55 "/>
<path clip-path="url(#clip300)" d="M554.889 1532.02 L584.565 1532.02 L584.565 1535.95 L554.889 1535.95 L554.889 1532.02 Z" fill="#000000" fill-rule="nonzero" fill-opacity="1" /><path clip-path="url(#clip300)" d="M595.467 1544.91 L603.106 1544.91 L603.106 1518.55 L594.796 1520.21 L594.796 1515.95 L603.06 1514.29 L607.736 1514.29 L607.736 1544.91 L615.375 1544.91 L615.375 1548.85 L595.467 1548.85 L595.467 1544.91 Z" fill="#000000" fill-rule="nonzero" fill-opacity="1" /><path clip-path="url(#clip300)" d="M1078.37 1517.37 Q1074.76 1517.37 1072.93 1520.93 Q1071.12 1524.47 1071.12 1531.6 Q1071.12 1538.71 1072.93 1542.27 Q1074.76 1545.82 1078.37 1545.82 Q1082 1545.82 1083.81 1542.27 Q1085.64 1538.71 1085.64 1531.6 Q1085.64 1524.47 1083.81 1520.93 Q1082 1517.37 1078.37 1517.37 M1078.37 1513.66 Q1084.18 1513.66 1087.23 1518.27 Q1090.31 1522.85 1090.31 1531.6 Q1090.31 1540.33 1087.23 1544.94 Q1084.18 1549.52 1078.37 1549.52 Q1072.56 1549.52 1069.48 1544.94 Q1066.42 1540.33 1066.42 1531.6 Q1066.42 1522.85 1069.48 1518.27 Q1072.56 1513.66 1078.37 1513.66 Z" fill="#000000" fill-rule="nonzero" fill-opacity="1" /><path clip-path="url(#clip300)" d="M1561.99 1544.91 L1569.63 1544.91 L1569.63 1518.55 L1561.32 1520.21 L1561.32 1515.95 L1569.58 1514.29 L1574.26 1514.29 L1574.26 1544.91 L1581.89 1544.91 L1581.89 1548.85 L1561.99 1548.85 L1561.99 1544.91 Z" fill="#000000" fill-rule="nonzero" fill-opacity="1" /><path clip-path="url(#clip300)" d="M2059.49 1544.91 L2075.81 1544.91 L2075.81 1548.85 L2053.87 1548.85 L2053.87 1544.91 Q2056.53 1542.16 2061.12 1537.53 Q2065.72 1532.88 2066.9 1531.53 Q2069.15 1529.01 2070.03 1527.27 Q2070.93 1525.51 2070.93 1523.82 Q2070.93 1521.07 2068.99 1519.33 Q2067.06 1517.6 2063.96 1517.6 Q2061.76 1517.6 2059.31 1518.36 Q2056.88 1519.13 2054.1 1520.68 L2054.1 1515.95 Q2056.93 1514.82 2059.38 1514.24 Q2061.83 1513.66 2063.87 1513.66 Q2069.24 1513.66 2072.43 1516.35 Q2075.63 1519.03 2075.63 1523.52 Q2075.63 1525.65 2074.82 1527.57 Q2074.03 1529.47 2071.93 1532.07 Q2071.35 1532.74 2068.24 1535.95 Q2065.14 1539.15 2059.49 1544.91 Z" fill="#000000" fill-rule="nonzero" fill-opacity="1" /><polyline clip-path="url(#clip300)" style="stroke:#000000; stroke-linecap:round; stroke-linejoin:round; stroke-width:4; stroke-opacity:1; fill:none" points="148.057,1486.45 148.057,47.2441 "/>
<polyline clip-path="url(#clip300)" style="stroke:#000000; stroke-linecap:round; stroke-linejoin:round; stroke-width:4; stroke-opacity:1; fill:none" points="148.057,1381.9 166.954,1381.9 "/>
<polyline clip-path="url(#clip300)" style="stroke:#000000; stroke-linecap:round; stroke-linejoin:round; stroke-width:4; stroke-opacity:1; fill:none" points="148.057,1169.44 166.954,1169.44 "/>
<polyline clip-path="url(#clip300)" style="stroke:#000000; stroke-linecap:round; stroke-linejoin:round; stroke-width:4; stroke-opacity:1; fill:none" points="148.057,956.985 166.954,956.985 "/>
<polyline clip-path="url(#clip300)" style="stroke:#000000; stroke-linecap:round; stroke-linejoin:round; stroke-width:4; stroke-opacity:1; fill:none" points="148.057,744.529 166.954,744.529 "/>
<polyline clip-path="url(#clip300)" style="stroke:#000000; stroke-linecap:round; stroke-linejoin:round; stroke-width:4; stroke-opacity:1; fill:none" points="148.057,532.073 166.954,532.073 "/>
<polyline clip-path="url(#clip300)" style="stroke:#000000; stroke-linecap:round; stroke-linejoin:round; stroke-width:4; stroke-opacity:1; fill:none" points="148.057,319.617 166.954,319.617 "/>
<polyline clip-path="url(#clip300)" style="stroke:#000000; stroke-linecap:round; stroke-linejoin:round; stroke-width:4; stroke-opacity:1; fill:none" points="148.057,107.161 166.954,107.161 "/>
<path clip-path="url(#clip300)" d="M50.9921 1382.35 L80.6679 1382.35 L80.6679 1386.28 L50.9921 1386.28 L50.9921 1382.35 Z" fill="#000000" fill-rule="nonzero" fill-opacity="1" /><path clip-path="url(#clip300)" d="M104.927 1380.54 Q108.283 1381.26 110.158 1383.53 Q112.057 1385.8 112.057 1389.13 Q112.057 1394.25 108.538 1397.05 Q105.02 1399.85 98.5382 1399.85 Q96.3623 1399.85 94.0475 1399.41 Q91.7558 1398.99 89.3021 1398.14 L89.3021 1393.62 Q91.2465 1394.76 93.5613 1395.33 Q95.8761 1395.91 98.3993 1395.91 Q102.797 1395.91 105.089 1394.18 Q107.404 1392.44 107.404 1389.13 Q107.404 1386.08 105.251 1384.36 Q103.121 1382.63 99.3021 1382.63 L95.2743 1382.63 L95.2743 1378.78 L99.4872 1378.78 Q102.936 1378.78 104.765 1377.42 Q106.594 1376.03 106.594 1373.44 Q106.594 1370.77 104.696 1369.36 Q102.821 1367.93 99.3021 1367.93 Q97.3808 1367.93 95.1817 1368.34 Q92.9826 1368.76 90.3438 1369.64 L90.3438 1365.47 Q93.0058 1364.73 95.3206 1364.36 Q97.6585 1363.99 99.7187 1363.99 Q105.043 1363.99 108.145 1366.42 Q111.246 1368.83 111.246 1372.95 Q111.246 1375.82 109.603 1377.81 Q107.959 1379.78 104.927 1380.54 Z" fill="#000000" fill-rule="nonzero" fill-opacity="1" /><path clip-path="url(#clip300)" d="M51.9412 1169.89 L81.617 1169.89 L81.617 1173.83 L51.9412 1173.83 L51.9412 1169.89 Z" fill="#000000" fill-rule="nonzero" fill-opacity="1" /><path clip-path="url(#clip300)" d="M95.7373 1182.79 L112.057 1182.79 L112.057 1186.72 L90.1123 1186.72 L90.1123 1182.79 Q92.7743 1180.03 97.3576 1175.4 Q101.964 1170.75 103.145 1169.41 Q105.39 1166.88 106.27 1165.15 Q107.172 1163.39 107.172 1161.7 Q107.172 1158.94 105.228 1157.21 Q103.307 1155.47 100.205 1155.47 Q98.0058 1155.47 95.5521 1156.23 Q93.1215 1157 90.3438 1158.55 L90.3438 1153.83 Q93.1678 1152.69 95.6215 1152.11 Q98.0752 1151.54 100.112 1151.54 Q105.483 1151.54 108.677 1154.22 Q111.871 1156.91 111.871 1161.4 Q111.871 1163.53 111.061 1165.45 Q110.274 1167.35 108.168 1169.94 Q107.589 1170.61 104.487 1173.83 Q101.385 1177.02 95.7373 1182.79 Z" fill="#000000" fill-rule="nonzero" fill-opacity="1" /><path clip-path="url(#clip300)" d="M51.5708 957.436 L81.2466 957.436 L81.2466 961.371 L51.5708 961.371 L51.5708 957.436 Z" fill="#000000" fill-rule="nonzero" fill-opacity="1" /><path clip-path="url(#clip300)" d="M92.1493 970.33 L99.7882 970.33 L99.7882 943.964 L91.478 945.631 L91.478 941.372 L99.7419 939.705 L104.418 939.705 L104.418 970.33 L112.057 970.33 L112.057 974.265 L92.1493 974.265 L92.1493 970.33 Z" fill="#000000" fill-rule="nonzero" fill-opacity="1" /><path clip-path="url(#clip300)" d="M100.112 730.328 Q96.5011 730.328 94.6724 733.892 Q92.8669 737.434 92.8669 744.564 Q92.8669 751.67 94.6724 755.235 Q96.5011 758.776 100.112 758.776 Q103.746 758.776 105.552 755.235 Q107.381 751.67 107.381 744.564 Q107.381 737.434 105.552 733.892 Q103.746 730.328 100.112 730.328 M100.112 726.624 Q105.922 726.624 108.978 731.23 Q112.057 735.814 112.057 744.564 Q112.057 753.29 108.978 757.897 Q105.922 762.48 100.112 762.48 Q94.3021 762.48 91.2234 757.897 Q88.1679 753.29 88.1679 744.564 Q88.1679 735.814 91.2234 731.23 Q94.3021 726.624 100.112 726.624 Z" fill="#000000" fill-rule="nonzero" fill-opacity="1" /><path clip-path="url(#clip300)" d="M92.1493 545.418 L99.7882 545.418 L99.7882 519.052 L91.478 520.719 L91.478 516.46 L99.7419 514.793 L104.418 514.793 L104.418 545.418 L112.057 545.418 L112.057 549.353 L92.1493 549.353 L92.1493 545.418 Z" fill="#000000" fill-rule="nonzero" fill-opacity="1" /><path clip-path="url(#clip300)" d="M95.7373 332.962 L112.057 332.962 L112.057 336.897 L90.1123 336.897 L90.1123 332.962 Q92.7743 330.207 97.3576 325.577 Q101.964 320.925 103.145 319.582 Q105.39 317.059 106.27 315.323 Q107.172 313.564 107.172 311.874 Q107.172 309.119 105.228 307.383 Q103.307 305.647 100.205 305.647 Q98.0058 305.647 95.5521 306.411 Q93.1215 307.175 90.3438 308.726 L90.3438 304.004 Q93.1678 302.869 95.6215 302.291 Q98.0752 301.712 100.112 301.712 Q105.483 301.712 108.677 304.397 Q111.871 307.082 111.871 311.573 Q111.871 313.703 111.061 315.624 Q110.274 317.522 108.168 320.115 Q107.589 320.786 104.487 324.003 Q101.385 327.198 95.7373 332.962 Z" fill="#000000" fill-rule="nonzero" fill-opacity="1" /><path clip-path="url(#clip300)" d="M104.927 105.807 Q108.283 106.524 110.158 108.793 Q112.057 111.061 112.057 114.395 Q112.057 119.51 108.538 122.311 Q105.02 125.112 98.5382 125.112 Q96.3623 125.112 94.0475 124.672 Q91.7558 124.256 89.3021 123.399 L89.3021 118.885 Q91.2465 120.02 93.5613 120.598 Q95.8761 121.177 98.3993 121.177 Q102.797 121.177 105.089 119.441 Q107.404 117.705 107.404 114.395 Q107.404 111.339 105.251 109.626 Q103.121 107.89 99.3021 107.89 L95.2743 107.89 L95.2743 104.047 L99.4872 104.047 Q102.936 104.047 104.765 102.682 Q106.594 101.293 106.594 98.7003 Q106.594 96.0383 104.696 94.6262 Q102.821 93.1911 99.3021 93.1911 Q97.3808 93.1911 95.1817 93.6077 Q92.9826 94.0244 90.3438 94.904 L90.3438 90.7374 Q93.0058 89.9966 95.3206 89.6263 Q97.6585 89.2559 99.7187 89.2559 Q105.043 89.2559 108.145 91.6864 Q111.246 94.0938 111.246 98.2142 Q111.246 101.085 109.603 103.075 Q107.959 105.043 104.927 105.807 Z" fill="#000000" fill-rule="nonzero" fill-opacity="1" /><circle clip-path="url(#clip302)" cx="1347.65" cy="861.863" r="14.4" fill="#009af9" fill-rule="evenodd" fill-opacity="0.5" stroke="#000000" stroke-opacity="0.5" stroke-width="3.2"/>
<circle clip-path="url(#clip302)" cx="2290.36" cy="1194.11" r="14.4" fill="#009af9" fill-rule="evenodd" fill-opacity="0.5" stroke="#000000" stroke-opacity="0.5" stroke-width="3.2"/>
<circle clip-path="url(#clip302)" cx="901.675" cy="797.328" r="14.4" fill="#009af9" fill-rule="evenodd" fill-opacity="0.5" stroke="#000000" stroke-opacity="0.5" stroke-width="3.2"/>
<circle clip-path="url(#clip302)" cx="853.75" cy="933.459" r="14.4" fill="#009af9" fill-rule="evenodd" fill-opacity="0.5" stroke="#000000" stroke-opacity="0.5" stroke-width="3.2"/>
<circle clip-path="url(#clip302)" cx="786.643" cy="688.235" r="14.4" fill="#009af9" fill-rule="evenodd" fill-opacity="0.5" stroke="#000000" stroke-opacity="0.5" stroke-width="3.2"/>
<circle clip-path="url(#clip302)" cx="315.405" cy="1445.72" r="14.4" fill="#009af9" fill-rule="evenodd" fill-opacity="0.5" stroke="#000000" stroke-opacity="0.5" stroke-width="3.2"/>
<circle clip-path="url(#clip302)" cx="398.841" cy="621.492" r="14.4" fill="#009af9" fill-rule="evenodd" fill-opacity="0.5" stroke="#000000" stroke-opacity="0.5" stroke-width="3.2"/>
<circle clip-path="url(#clip302)" cx="828.696" cy="622.65" r="14.4" fill="#009af9" fill-rule="evenodd" fill-opacity="0.5" stroke="#000000" stroke-opacity="0.5" stroke-width="3.2"/>
<circle clip-path="url(#clip302)" cx="1225.12" cy="551.722" r="14.4" fill="#009af9" fill-rule="evenodd" fill-opacity="0.5" stroke="#000000" stroke-opacity="0.5" stroke-width="3.2"/>
<circle clip-path="url(#clip302)" cx="373.096" cy="934.174" r="14.4" fill="#009af9" fill-rule="evenodd" fill-opacity="0.5" stroke="#000000" stroke-opacity="0.5" stroke-width="3.2"/>
<circle clip-path="url(#clip302)" cx="210.454" cy="900.384" r="14.4" fill="#009af9" fill-rule="evenodd" fill-opacity="0.5" stroke="#000000" stroke-opacity="0.5" stroke-width="3.2"/>
<circle clip-path="url(#clip302)" cx="1443.17" cy="708.634" r="14.4" fill="#009af9" fill-rule="evenodd" fill-opacity="0.5" stroke="#000000" stroke-opacity="0.5" stroke-width="3.2"/>
<circle clip-path="url(#clip302)" cx="1448" cy="817.559" r="14.4" fill="#009af9" fill-rule="evenodd" fill-opacity="0.5" stroke="#000000" stroke-opacity="0.5" stroke-width="3.2"/>
<circle clip-path="url(#clip302)" cx="2084.03" cy="87.9763" r="14.4" fill="#009af9" fill-rule="evenodd" fill-opacity="0.5" stroke="#000000" stroke-opacity="0.5" stroke-width="3.2"/>
<circle clip-path="url(#clip302)" cx="603.789" cy="615.183" r="14.4" fill="#009af9" fill-rule="evenodd" fill-opacity="0.5" stroke="#000000" stroke-opacity="0.5" stroke-width="3.2"/>
<circle clip-path="url(#clip302)" cx="1753.25" cy="1022.93" r="14.4" fill="#009af9" fill-rule="evenodd" fill-opacity="0.5" stroke="#000000" stroke-opacity="0.5" stroke-width="3.2"/>
<circle clip-path="url(#clip302)" cx="1062.6" cy="648.602" r="14.4" fill="#009af9" fill-rule="evenodd" fill-opacity="0.5" stroke="#000000" stroke-opacity="0.5" stroke-width="3.2"/>
<circle clip-path="url(#clip302)" cx="1062.27" cy="527.77" r="14.4" fill="#009af9" fill-rule="evenodd" fill-opacity="0.5" stroke="#000000" stroke-opacity="0.5" stroke-width="3.2"/>
<circle clip-path="url(#clip302)" cx="838.686" cy="677.809" r="14.4" fill="#009af9" fill-rule="evenodd" fill-opacity="0.5" stroke="#000000" stroke-opacity="0.5" stroke-width="3.2"/>
<circle clip-path="url(#clip302)" cx="2238.63" cy="670.275" r="14.4" fill="#009af9" fill-rule="evenodd" fill-opacity="0.5" stroke="#000000" stroke-opacity="0.5" stroke-width="3.2"/>
<circle clip-path="url(#clip302)" cx="472.343" cy="359.945" r="14.4" fill="#009af9" fill-rule="evenodd" fill-opacity="0.5" stroke="#000000" stroke-opacity="0.5" stroke-width="3.2"/>
<circle clip-path="url(#clip302)" cx="820.89" cy="714.726" r="14.4" fill="#009af9" fill-rule="evenodd" fill-opacity="0.5" stroke="#000000" stroke-opacity="0.5" stroke-width="3.2"/>
<circle clip-path="url(#clip302)" cx="575.918" cy="450.452" r="14.4" fill="#009af9" fill-rule="evenodd" fill-opacity="0.5" stroke="#000000" stroke-opacity="0.5" stroke-width="3.2"/>
<circle clip-path="url(#clip302)" cx="1148.54" cy="1003.37" r="14.4" fill="#009af9" fill-rule="evenodd" fill-opacity="0.5" stroke="#000000" stroke-opacity="0.5" stroke-width="3.2"/>
<circle clip-path="url(#clip302)" cx="1429.55" cy="1247.38" r="14.4" fill="#009af9" fill-rule="evenodd" fill-opacity="0.5" stroke="#000000" stroke-opacity="0.5" stroke-width="3.2"/>
<circle clip-path="url(#clip302)" cx="586.426" cy="899.655" r="14.4" fill="#009af9" fill-rule="evenodd" fill-opacity="0.5" stroke="#000000" stroke-opacity="0.5" stroke-width="3.2"/>
<circle clip-path="url(#clip302)" cx="756.678" cy="1301.44" r="14.4" fill="#009af9" fill-rule="evenodd" fill-opacity="0.5" stroke="#000000" stroke-opacity="0.5" stroke-width="3.2"/>
<circle clip-path="url(#clip302)" cx="1736.06" cy="810.201" r="14.4" fill="#009af9" fill-rule="evenodd" fill-opacity="0.5" stroke="#000000" stroke-opacity="0.5" stroke-width="3.2"/>
<circle clip-path="url(#clip302)" cx="1091.73" cy="948.543" r="14.4" fill="#009af9" fill-rule="evenodd" fill-opacity="0.5" stroke="#000000" stroke-opacity="0.5" stroke-width="3.2"/>
<circle clip-path="url(#clip302)" cx="1048.12" cy="481.69" r="14.4" fill="#009af9" fill-rule="evenodd" fill-opacity="0.5" stroke="#000000" stroke-opacity="0.5" stroke-width="3.2"/>
<path clip-path="url(#clip302)" d="M210.454 900.384 L315.405 1445.72 L2290.36 1194.11 L2238.63 670.275 L2084.03 87.9763 L472.343 359.945 L210.454 900.384 L210.454 900.384  Z" fill="#e26f46" fill-rule="evenodd" fill-opacity="0.2"/>
<polyline clip-path="url(#clip302)" style="stroke:#000000; stroke-linecap:round; stroke-linejoin:round; stroke-width:4; stroke-opacity:0.2; fill:none" points="210.454,900.384 315.405,1445.72 2290.36,1194.11 2238.63,670.275 2084.03,87.9763 472.343,359.945 210.454,900.384 "/>
</svg>
