<?xml version="1.0" encoding="utf-8"?>
<svg xmlns="http://www.w3.org/2000/svg" xmlns:xlink="http://www.w3.org/1999/xlink" width="600" height="400" viewBox="0 0 2400 1600">
<defs>
  <clipPath id="clip810">
    <rect x="0" y="0" width="2400" height="1600"/>
  </clipPath>
</defs>
<path clip-path="url(#clip810)" d="M0 1600 L2400 1600 L2400 0 L0 0  Z" fill="#ffffff" fill-rule="evenodd" fill-opacity="1"/>
<defs>
  <clipPath id="clip811">
    <rect x="147" y="47" width="2206" height="1440"/>
  </clipPath>
</defs>
<path clip-path="url(#clip810)" d="M147.478 1486.45 L2352.76 1486.45 L2352.76 47.2441 L147.478 47.2441  Z" fill="#ffffff" fill-rule="evenodd" fill-opacity="1"/>
<polyline clip-path="url(#clip811)" style="stroke:#000000; stroke-linecap:round; stroke-linejoin:round; stroke-width:2; stroke-opacity:0.1; fill:none" points="388.1,1486.45 388.1,47.2441 "/>
<polyline clip-path="url(#clip811)" style="stroke:#000000; stroke-linecap:round; stroke-linejoin:round; stroke-width:2; stroke-opacity:0.1; fill:none" points="901.64,1486.45 901.64,47.2441 "/>
<polyline clip-path="url(#clip811)" style="stroke:#000000; stroke-linecap:round; stroke-linejoin:round; stroke-width:2; stroke-opacity:0.1; fill:none" points="1415.18,1486.45 1415.18,47.2441 "/>
<polyline clip-path="url(#clip811)" style="stroke:#000000; stroke-linecap:round; stroke-linejoin:round; stroke-width:2; stroke-opacity:0.1; fill:none" points="1928.72,1486.45 1928.72,47.2441 "/>
<polyline clip-path="url(#clip811)" style="stroke:#000000; stroke-linecap:round; stroke-linejoin:round; stroke-width:2; stroke-opacity:0.1; fill:none" points="147.478,1203.25 2352.76,1203.25 "/>
<polyline clip-path="url(#clip811)" style="stroke:#000000; stroke-linecap:round; stroke-linejoin:round; stroke-width:2; stroke-opacity:0.1; fill:none" points="147.478,830.484 2352.76,830.484 "/>
<polyline clip-path="url(#clip811)" style="stroke:#000000; stroke-linecap:round; stroke-linejoin:round; stroke-width:2; stroke-opacity:0.1; fill:none" points="147.478,457.717 2352.76,457.717 "/>
<polyline clip-path="url(#clip811)" style="stroke:#000000; stroke-linecap:round; stroke-linejoin:round; stroke-width:2; stroke-opacity:0.1; fill:none" points="147.478,84.9507 2352.76,84.9507 "/>
<polyline clip-path="url(#clip810)" style="stroke:#000000; stroke-linecap:round; stroke-linejoin:round; stroke-width:4; stroke-opacity:1; fill:none" points="147.478,1486.45 2352.76,1486.45 "/>
<polyline clip-path="url(#clip810)" style="stroke:#000000; stroke-linecap:round; stroke-linejoin:round; stroke-width:4; stroke-opacity:1; fill:none" points="388.1,1486.45 388.1,1467.55 "/>
<polyline clip-path="url(#clip810)" style="stroke:#000000; stroke-linecap:round; stroke-linejoin:round; stroke-width:4; stroke-opacity:1; fill:none" points="901.64,1486.45 901.64,1467.55 "/>
<polyline clip-path="url(#clip810)" style="stroke:#000000; stroke-linecap:round; stroke-linejoin:round; stroke-width:4; stroke-opacity:1; fill:none" points="1415.18,1486.45 1415.18,1467.55 "/>
<polyline clip-path="url(#clip810)" style="stroke:#000000; stroke-linecap:round; stroke-linejoin:round; stroke-width:4; stroke-opacity:1; fill:none" points="1928.72,1486.45 1928.72,1467.55 "/>
<path clip-path="url(#clip810)" d="M358.043 1532.02 L387.718 1532.02 L387.718 1535.95 L358.043 1535.95 L358.043 1532.02 Z" fill="#000000" fill-rule="nonzero" fill-opacity="1" /><path clip-path="url(#clip810)" d="M401.839 1544.91 L418.158 1544.91 L418.158 1548.85 L396.214 1548.85 L396.214 1544.91 Q398.876 1542.16 403.459 1537.53 Q408.066 1532.88 409.246 1531.53 Q411.492 1529.01 412.371 1527.27 Q413.274 1525.51 413.274 1523.82 Q413.274 1521.07 411.329 1519.33 Q409.408 1517.6 406.306 1517.6 Q404.107 1517.6 401.654 1518.36 Q399.223 1519.13 396.445 1520.68 L396.445 1515.95 Q399.269 1514.82 401.723 1514.24 Q404.177 1513.66 406.214 1513.66 Q411.584 1513.66 414.779 1516.35 Q417.973 1519.03 417.973 1523.52 Q417.973 1525.65 417.163 1527.57 Q416.376 1529.47 414.269 1532.07 Q413.691 1532.74 410.589 1535.95 Q407.487 1539.15 401.839 1544.91 Z" fill="#000000" fill-rule="nonzero" fill-opacity="1" /><path clip-path="url(#clip810)" d="M871.398 1532.02 L901.073 1532.02 L901.073 1535.95 L871.398 1535.95 L871.398 1532.02 Z" fill="#000000" fill-rule="nonzero" fill-opacity="1" /><path clip-path="url(#clip810)" d="M911.976 1544.91 L919.615 1544.91 L919.615 1518.55 L911.305 1520.21 L911.305 1515.95 L919.569 1514.29 L924.244 1514.29 L924.244 1544.91 L931.883 1544.91 L931.883 1548.85 L911.976 1548.85 L911.976 1544.91 Z" fill="#000000" fill-rule="nonzero" fill-opacity="1" /><path clip-path="url(#clip810)" d="M1415.18 1517.37 Q1411.57 1517.37 1409.74 1520.93 Q1407.94 1524.47 1407.94 1531.6 Q1407.94 1538.71 1409.74 1542.27 Q1411.57 1545.82 1415.18 1545.82 Q1418.81 1545.82 1420.62 1542.27 Q1422.45 1538.71 1422.45 1531.6 Q1422.45 1524.47 1420.62 1520.93 Q1418.81 1517.37 1415.18 1517.37 M1415.18 1513.66 Q1420.99 1513.66 1424.05 1518.27 Q1427.12 1522.85 1427.12 1531.6 Q1427.12 1540.33 1424.05 1544.94 Q1420.99 1549.52 1415.18 1549.52 Q1409.37 1549.52 1406.29 1544.94 Q1403.24 1540.33 1403.24 1531.6 Q1403.24 1522.85 1406.29 1518.27 Q1409.37 1513.66 1415.18 1513.66 Z" fill="#000000" fill-rule="nonzero" fill-opacity="1" /><path clip-path="url(#clip810)" d="M1919.1 1544.91 L1926.74 1544.91 L1926.74 1518.55 L1918.43 1520.21 L1918.43 1515.95 L1926.69 1514.29 L1931.37 1514.29 L1931.37 1544.91 L1939.01 1544.91 L1939.01 1548.85 L1919.1 1548.85 L1919.1 1544.91 Z" fill="#000000" fill-rule="nonzero" fill-opacity="1" /><polyline clip-path="url(#clip810)" style="stroke:#000000; stroke-linecap:round; stroke-linejoin:round; stroke-width:4; stroke-opacity:1; fill:none" points="147.478,1486.45 147.478,47.2441 "/>
<polyline clip-path="url(#clip810)" style="stroke:#000000; stroke-linecap:round; stroke-linejoin:round; stroke-width:4; stroke-opacity:1; fill:none" points="147.478,1203.25 166.376,1203.25 "/>
<polyline clip-path="url(#clip810)" style="stroke:#000000; stroke-linecap:round; stroke-linejoin:round; stroke-width:4; stroke-opacity:1; fill:none" points="147.478,830.484 166.376,830.484 "/>
<polyline clip-path="url(#clip810)" style="stroke:#000000; stroke-linecap:round; stroke-linejoin:round; stroke-width:4; stroke-opacity:1; fill:none" points="147.478,457.717 166.376,457.717 "/>
<polyline clip-path="url(#clip810)" style="stroke:#000000; stroke-linecap:round; stroke-linejoin:round; stroke-width:4; stroke-opacity:1; fill:none" points="147.478,84.9507 166.376,84.9507 "/>
<path clip-path="url(#clip810)" d="M50.9921 1203.7 L80.6679 1203.7 L80.6679 1207.64 L50.9921 1207.64 L50.9921 1203.7 Z" fill="#000000" fill-rule="nonzero" fill-opacity="1" /><path clip-path="url(#clip810)" d="M91.5706 1216.6 L99.2095 1216.6 L99.2095 1190.23 L90.8993 1191.9 L90.8993 1187.64 L99.1632 1185.97 L103.839 1185.97 L103.839 1216.6 L111.478 1216.6 L111.478 1220.53 L91.5706 1220.53 L91.5706 1216.6 Z" fill="#000000" fill-rule="nonzero" fill-opacity="1" /><path clip-path="url(#clip810)" d="M99.5335 816.283 Q95.9224 816.283 94.0937 819.847 Q92.2882 823.389 92.2882 830.519 Q92.2882 837.625 94.0937 841.19 Q95.9224 844.732 99.5335 844.732 Q103.168 844.732 104.973 841.19 Q106.802 837.625 106.802 830.519 Q106.802 823.389 104.973 819.847 Q103.168 816.283 99.5335 816.283 M99.5335 812.579 Q105.344 812.579 108.399 817.185 Q111.478 821.769 111.478 830.519 Q111.478 839.246 108.399 843.852 Q105.344 848.435 99.5335 848.435 Q93.7234 848.435 90.6447 843.852 Q87.5892 839.246 87.5892 830.519 Q87.5892 821.769 90.6447 817.185 Q93.7234 812.579 99.5335 812.579 Z" fill="#000000" fill-rule="nonzero" fill-opacity="1" /><path clip-path="url(#clip810)" d="M91.5706 471.062 L99.2095 471.062 L99.2095 444.697 L90.8993 446.363 L90.8993 442.104 L99.1632 440.437 L103.839 440.437 L103.839 471.062 L111.478 471.062 L111.478 474.997 L91.5706 474.997 L91.5706 471.062 Z" fill="#000000" fill-rule="nonzero" fill-opacity="1" /><path clip-path="url(#clip810)" d="M95.1586 98.2956 L111.478 98.2956 L111.478 102.231 L89.5336 102.231 L89.5336 98.2956 Q92.1956 95.5409 96.7789 90.9113 Q101.385 86.2586 102.566 84.916 Q104.811 82.3929 105.691 80.6568 Q106.594 78.8975 106.594 77.2077 Q106.594 74.4531 104.649 72.717 Q102.728 70.9809 99.6261 70.9809 Q97.4271 70.9809 94.9734 71.7448 Q92.5428 72.5087 89.7651 74.0596 L89.7651 69.3374 Q92.5891 68.2031 95.0428 67.6244 Q97.4965 67.0457 99.5335 67.0457 Q104.904 67.0457 108.098 69.7309 Q111.293 72.4161 111.293 76.9068 Q111.293 79.0364 110.483 80.9577 Q109.696 82.8558 107.589 85.4484 Q107.01 86.1197 103.909 89.3373 Q100.807 92.5317 95.1586 98.2956 Z" fill="#000000" fill-rule="nonzero" fill-opacity="1" /><circle clip-path="url(#clip811)" cx="2062.74" cy="641.7" r="14.4" fill="#009af9" fill-rule="evenodd" fill-opacity="0.5" stroke="#000000" stroke-opacity="0.5" stroke-width="3.2"/>
<circle clip-path="url(#clip811)" cx="2201.49" cy="689.642" r="14.4" fill="#009af9" fill-rule="evenodd" fill-opacity="0.5" stroke="#000000" stroke-opacity="0.5" stroke-width="3.2"/>
<circle clip-path="url(#clip811)" cx="1908.44" cy="1173.23" r="14.4" fill="#009af9" fill-rule="evenodd" fill-opacity="0.5" stroke="#000000" stroke-opacity="0.5" stroke-width="3.2"/>
<circle clip-path="url(#clip811)" cx="320.486" cy="1231.44" r="14.4" fill="#009af9" fill-rule="evenodd" fill-opacity="0.5" stroke="#000000" stroke-opacity="0.5" stroke-width="3.2"/>
<circle clip-path="url(#clip811)" cx="2093.21" cy="748.356" r="14.4" fill="#009af9" fill-rule="evenodd" fill-opacity="0.5" stroke="#000000" stroke-opacity="0.5" stroke-width="3.2"/>
<circle clip-path="url(#clip811)" cx="1279.8" cy="1023.66" r="14.4" fill="#009af9" fill-rule="evenodd" fill-opacity="0.5" stroke="#000000" stroke-opacity="0.5" stroke-width="3.2"/>
<circle clip-path="url(#clip811)" cx="1569.09" cy="564.943" r="14.4" fill="#009af9" fill-rule="evenodd" fill-opacity="0.5" stroke="#000000" stroke-opacity="0.5" stroke-width="3.2"/>
<circle clip-path="url(#clip811)" cx="1884.73" cy="1243.1" r="14.4" fill="#009af9" fill-rule="evenodd" fill-opacity="0.5" stroke="#000000" stroke-opacity="0.5" stroke-width="3.2"/>
<circle clip-path="url(#clip811)" cx="1622.64" cy="432.518" r="14.4" fill="#009af9" fill-rule="evenodd" fill-opacity="0.5" stroke="#000000" stroke-opacity="0.5" stroke-width="3.2"/>
<circle clip-path="url(#clip811)" cx="2103.85" cy="819.755" r="14.4" fill="#009af9" fill-rule="evenodd" fill-opacity="0.5" stroke="#000000" stroke-opacity="0.5" stroke-width="3.2"/>
<circle clip-path="url(#clip811)" cx="1352.6" cy="539.046" r="14.4" fill="#009af9" fill-rule="evenodd" fill-opacity="0.5" stroke="#000000" stroke-opacity="0.5" stroke-width="3.2"/>
<circle clip-path="url(#clip811)" cx="478.296" cy="1055.69" r="14.4" fill="#009af9" fill-rule="evenodd" fill-opacity="0.5" stroke="#000000" stroke-opacity="0.5" stroke-width="3.2"/>
<circle clip-path="url(#clip811)" cx="1394.66" cy="87.9763" r="14.4" fill="#009af9" fill-rule="evenodd" fill-opacity="0.5" stroke="#000000" stroke-opacity="0.5" stroke-width="3.2"/>
<circle clip-path="url(#clip811)" cx="1235.11" cy="1265.92" r="14.4" fill="#009af9" fill-rule="evenodd" fill-opacity="0.5" stroke="#000000" stroke-opacity="0.5" stroke-width="3.2"/>
<circle clip-path="url(#clip811)" cx="866.891" cy="198.028" r="14.4" fill="#009af9" fill-rule="evenodd" fill-opacity="0.5" stroke="#000000" stroke-opacity="0.5" stroke-width="3.2"/>
<circle clip-path="url(#clip811)" cx="1224.53" cy="1372.72" r="14.4" fill="#009af9" fill-rule="evenodd" fill-opacity="0.5" stroke="#000000" stroke-opacity="0.5" stroke-width="3.2"/>
<circle clip-path="url(#clip811)" cx="1851.48" cy="1054.83" r="14.4" fill="#009af9" fill-rule="evenodd" fill-opacity="0.5" stroke="#000000" stroke-opacity="0.5" stroke-width="3.2"/>
<circle clip-path="url(#clip811)" cx="1662.23" cy="919.559" r="14.4" fill="#009af9" fill-rule="evenodd" fill-opacity="0.5" stroke="#000000" stroke-opacity="0.5" stroke-width="3.2"/>
<circle clip-path="url(#clip811)" cx="1866.81" cy="1253.63" r="14.4" fill="#009af9" fill-rule="evenodd" fill-opacity="0.5" stroke="#000000" stroke-opacity="0.5" stroke-width="3.2"/>
<circle clip-path="url(#clip811)" cx="310.741" cy="541.681" r="14.4" fill="#009af9" fill-rule="evenodd" fill-opacity="0.5" stroke="#000000" stroke-opacity="0.5" stroke-width="3.2"/>
<circle clip-path="url(#clip811)" cx="667.792" cy="1445.72" r="14.4" fill="#009af9" fill-rule="evenodd" fill-opacity="0.5" stroke="#000000" stroke-opacity="0.5" stroke-width="3.2"/>
<circle clip-path="url(#clip811)" cx="1521.99" cy="473.461" r="14.4" fill="#009af9" fill-rule="evenodd" fill-opacity="0.5" stroke="#000000" stroke-opacity="0.5" stroke-width="3.2"/>
<circle clip-path="url(#clip811)" cx="1514.75" cy="743.139" r="14.4" fill="#009af9" fill-rule="evenodd" fill-opacity="0.5" stroke="#000000" stroke-opacity="0.5" stroke-width="3.2"/>
<circle clip-path="url(#clip811)" cx="1735.7" cy="156.444" r="14.4" fill="#009af9" fill-rule="evenodd" fill-opacity="0.5" stroke="#000000" stroke-opacity="0.5" stroke-width="3.2"/>
<circle clip-path="url(#clip811)" cx="1815.95" cy="667.219" r="14.4" fill="#009af9" fill-rule="evenodd" fill-opacity="0.5" stroke="#000000" stroke-opacity="0.5" stroke-width="3.2"/>
<circle clip-path="url(#clip811)" cx="1317.62" cy="362.077" r="14.4" fill="#009af9" fill-rule="evenodd" fill-opacity="0.5" stroke="#000000" stroke-opacity="0.5" stroke-width="3.2"/>
<circle clip-path="url(#clip811)" cx="209.891" cy="716.455" r="14.4" fill="#009af9" fill-rule="evenodd" fill-opacity="0.5" stroke="#000000" stroke-opacity="0.5" stroke-width="3.2"/>
<circle clip-path="url(#clip811)" cx="1896.65" cy="1399.92" r="14.4" fill="#009af9" fill-rule="evenodd" fill-opacity="0.5" stroke="#000000" stroke-opacity="0.5" stroke-width="3.2"/>
<circle clip-path="url(#clip811)" cx="2290.34" cy="889.229" r="14.4" fill="#009af9" fill-rule="evenodd" fill-opacity="0.5" stroke="#000000" stroke-opacity="0.5" stroke-width="3.2"/>
<circle clip-path="url(#clip811)" cx="1199.67" cy="1278.77" r="14.4" fill="#009af9" fill-rule="evenodd" fill-opacity="0.5" stroke="#000000" stroke-opacity="0.5" stroke-width="3.2"/>
<path clip-path="url(#clip811)" d="M209.891 716.455 L320.486 1231.44 L667.792 1445.72 L1896.65 1399.92 L2290.34 889.229 L2201.49 689.642 L1735.7 156.444 L1394.66 87.9763 L866.891 198.028 L310.741 541.681 L209.891 716.455 L209.891 716.455  Z" fill="#e26f46" fill-rule="evenodd" fill-opacity="0.2"/>
<polyline clip-path="url(#clip811)" style="stroke:#000000; stroke-linecap:round; stroke-linejoin:round; stroke-width:4; stroke-opacity:0.2; fill:none" points="209.891,716.455 320.486,1231.44 667.792,1445.72 1896.65,1399.92 2290.34,889.229 2201.49,689.642 1735.7,156.444 1394.66,87.9763 866.891,198.028 310.741,541.681 209.891,716.455 "/>
</svg>
