<?xml version="1.0" encoding="utf-8"?>
<svg xmlns="http://www.w3.org/2000/svg" xmlns:xlink="http://www.w3.org/1999/xlink" width="600" height="400" viewBox="0 0 2400 1600">
<defs>
  <clipPath id="clip200">
    <rect x="0" y="0" width="2400" height="1600"/>
  </clipPath>
</defs>
<path clip-path="url(#clip200)" d="M0 1600 L2400 1600 L2400 0 L0 0  Z" fill="#ffffff" fill-rule="evenodd" fill-opacity="1"/>
<defs>
  <clipPath id="clip201">
    <rect x="480" y="0" width="1681" height="1600"/>
  </clipPath>
</defs>
<path clip-path="url(#clip200)" d="M147.478 1486.45 L2352.76 1486.45 L2352.76 47.2441 L147.478 47.2441  Z" fill="#ffffff" fill-rule="evenodd" fill-opacity="1"/>
<defs>
  <clipPath id="clip202">
    <rect x="147" y="47" width="2206" height="1440"/>
  </clipPath>
</defs>
<polyline clip-path="url(#clip202)" style="stroke:#000000; stroke-linecap:round; stroke-linejoin:round; stroke-width:2; stroke-opacity:0.1; fill:none" points="478.642,1486.45 478.642,47.2441 "/>
<polyline clip-path="url(#clip202)" style="stroke:#000000; stroke-linecap:round; stroke-linejoin:round; stroke-width:2; stroke-opacity:0.1; fill:none" points="912.994,1486.45 912.994,47.2441 "/>
<polyline clip-path="url(#clip202)" style="stroke:#000000; stroke-linecap:round; stroke-linejoin:round; stroke-width:2; stroke-opacity:0.1; fill:none" points="1347.35,1486.45 1347.35,47.2441 "/>
<polyline clip-path="url(#clip202)" style="stroke:#000000; stroke-linecap:round; stroke-linejoin:round; stroke-width:2; stroke-opacity:0.1; fill:none" points="1781.7,1486.45 1781.7,47.2441 "/>
<polyline clip-path="url(#clip202)" style="stroke:#000000; stroke-linecap:round; stroke-linejoin:round; stroke-width:2; stroke-opacity:0.1; fill:none" points="2216.05,1486.45 2216.05,47.2441 "/>
<polyline clip-path="url(#clip202)" style="stroke:#000000; stroke-linecap:round; stroke-linejoin:round; stroke-width:2; stroke-opacity:0.1; fill:none" points="147.478,1421.97 2352.76,1421.97 "/>
<polyline clip-path="url(#clip202)" style="stroke:#000000; stroke-linecap:round; stroke-linejoin:round; stroke-width:2; stroke-opacity:0.1; fill:none" points="147.478,1034.79 2352.76,1034.79 "/>
<polyline clip-path="url(#clip202)" style="stroke:#000000; stroke-linecap:round; stroke-linejoin:round; stroke-width:2; stroke-opacity:0.1; fill:none" points="147.478,647.615 2352.76,647.615 "/>
<polyline clip-path="url(#clip202)" style="stroke:#000000; stroke-linecap:round; stroke-linejoin:round; stroke-width:2; stroke-opacity:0.1; fill:none" points="147.478,260.435 2352.76,260.435 "/>
<polyline clip-path="url(#clip200)" style="stroke:#000000; stroke-linecap:round; stroke-linejoin:round; stroke-width:4; stroke-opacity:1; fill:none" points="147.478,1486.45 2352.76,1486.45 "/>
<polyline clip-path="url(#clip200)" style="stroke:#000000; stroke-linecap:round; stroke-linejoin:round; stroke-width:4; stroke-opacity:1; fill:none" points="478.642,1486.45 478.642,1467.55 "/>
<polyline clip-path="url(#clip200)" style="stroke:#000000; stroke-linecap:round; stroke-linejoin:round; stroke-width:4; stroke-opacity:1; fill:none" points="912.994,1486.45 912.994,1467.55 "/>
<polyline clip-path="url(#clip200)" style="stroke:#000000; stroke-linecap:round; stroke-linejoin:round; stroke-width:4; stroke-opacity:1; fill:none" points="1347.35,1486.45 1347.35,1467.55 "/>
<polyline clip-path="url(#clip200)" style="stroke:#000000; stroke-linecap:round; stroke-linejoin:round; stroke-width:4; stroke-opacity:1; fill:none" points="1781.7,1486.45 1781.7,1467.55 "/>
<polyline clip-path="url(#clip200)" style="stroke:#000000; stroke-linecap:round; stroke-linejoin:round; stroke-width:4; stroke-opacity:1; fill:none" points="2216.05,1486.45 2216.05,1467.55 "/>
<path clip-path="url(#clip200)" d="M448.584 1532.02 L478.26 1532.02 L478.26 1535.95 L448.584 1535.95 L448.584 1532.02 Z" fill="#000000" fill-rule="nonzero" fill-opacity="1" /><path clip-path="url(#clip200)" d="M492.38 1544.91 L508.699 1544.91 L508.699 1548.85 L486.755 1548.85 L486.755 1544.91 Q489.417 1542.16 494 1537.53 Q498.607 1532.88 499.788 1531.53 Q502.033 1529.01 502.912 1527.27 Q503.815 1525.51 503.815 1523.82 Q503.815 1521.07 501.871 1519.33 Q499.95 1517.6 496.848 1517.6 Q494.649 1517.6 492.195 1518.36 Q489.764 1519.13 486.987 1520.68 L486.987 1515.95 Q489.811 1514.82 492.264 1514.24 Q494.718 1513.66 496.755 1513.66 Q502.125 1513.66 505.32 1516.35 Q508.514 1519.03 508.514 1523.52 Q508.514 1525.65 507.704 1527.57 Q506.917 1529.47 504.811 1532.07 Q504.232 1532.74 501.13 1535.95 Q498.028 1539.15 492.38 1544.91 Z" fill="#000000" fill-rule="nonzero" fill-opacity="1" /><path clip-path="url(#clip200)" d="M882.751 1532.02 L912.426 1532.02 L912.426 1535.95 L882.751 1535.95 L882.751 1532.02 Z" fill="#000000" fill-rule="nonzero" fill-opacity="1" /><path clip-path="url(#clip200)" d="M923.329 1544.91 L930.968 1544.91 L930.968 1518.55 L922.658 1520.21 L922.658 1515.95 L930.922 1514.29 L935.598 1514.29 L935.598 1544.91 L943.236 1544.91 L943.236 1548.85 L923.329 1548.85 L923.329 1544.91 Z" fill="#000000" fill-rule="nonzero" fill-opacity="1" /><path clip-path="url(#clip200)" d="M1347.35 1517.37 Q1343.73 1517.37 1341.91 1520.93 Q1340.1 1524.47 1340.1 1531.6 Q1340.1 1538.71 1341.91 1542.27 Q1343.73 1545.82 1347.35 1545.82 Q1350.98 1545.82 1352.79 1542.27 Q1354.61 1538.71 1354.61 1531.6 Q1354.61 1524.47 1352.79 1520.93 Q1350.98 1517.37 1347.35 1517.37 M1347.35 1513.66 Q1353.16 1513.66 1356.21 1518.27 Q1359.29 1522.85 1359.29 1531.6 Q1359.29 1540.33 1356.21 1544.94 Q1353.16 1549.52 1347.35 1549.52 Q1341.54 1549.52 1338.46 1544.94 Q1335.4 1540.33 1335.4 1531.6 Q1335.4 1522.85 1338.46 1518.27 Q1341.54 1513.66 1347.35 1513.66 Z" fill="#000000" fill-rule="nonzero" fill-opacity="1" /><path clip-path="url(#clip200)" d="M1772.08 1544.91 L1779.72 1544.91 L1779.72 1518.55 L1771.41 1520.21 L1771.41 1515.95 L1779.67 1514.29 L1784.35 1514.29 L1784.35 1544.91 L1791.99 1544.91 L1791.99 1548.85 L1772.08 1548.85 L1772.08 1544.91 Z" fill="#000000" fill-rule="nonzero" fill-opacity="1" /><path clip-path="url(#clip200)" d="M2210.7 1544.91 L2227.02 1544.91 L2227.02 1548.85 L2205.08 1548.85 L2205.08 1544.91 Q2207.74 1542.16 2212.32 1537.53 Q2216.93 1532.88 2218.11 1531.53 Q2220.35 1529.01 2221.23 1527.27 Q2222.14 1525.51 2222.14 1523.82 Q2222.14 1521.07 2220.19 1519.33 Q2218.27 1517.6 2215.17 1517.6 Q2212.97 1517.6 2210.52 1518.36 Q2208.09 1519.13 2205.31 1520.68 L2205.31 1515.95 Q2208.13 1514.82 2210.59 1514.24 Q2213.04 1513.66 2215.08 1513.66 Q2220.45 1513.66 2223.64 1516.35 Q2226.84 1519.03 2226.84 1523.52 Q2226.84 1525.65 2226.03 1527.57 Q2225.24 1529.47 2223.13 1532.07 Q2222.55 1532.74 2219.45 1535.95 Q2216.35 1539.15 2210.7 1544.91 Z" fill="#000000" fill-rule="nonzero" fill-opacity="1" /><polyline clip-path="url(#clip200)" style="stroke:#000000; stroke-linecap:round; stroke-linejoin:round; stroke-width:4; stroke-opacity:1; fill:none" points="147.478,1486.45 147.478,47.2441 "/>
<polyline clip-path="url(#clip200)" style="stroke:#000000; stroke-linecap:round; stroke-linejoin:round; stroke-width:4; stroke-opacity:1; fill:none" points="147.478,1421.97 166.376,1421.97 "/>
<polyline clip-path="url(#clip200)" style="stroke:#000000; stroke-linecap:round; stroke-linejoin:round; stroke-width:4; stroke-opacity:1; fill:none" points="147.478,1034.79 166.376,1034.79 "/>
<polyline clip-path="url(#clip200)" style="stroke:#000000; stroke-linecap:round; stroke-linejoin:round; stroke-width:4; stroke-opacity:1; fill:none" points="147.478,647.615 166.376,647.615 "/>
<polyline clip-path="url(#clip200)" style="stroke:#000000; stroke-linecap:round; stroke-linejoin:round; stroke-width:4; stroke-opacity:1; fill:none" points="147.478,260.435 166.376,260.435 "/>
<path clip-path="url(#clip200)" d="M51.3625 1422.42 L81.0383 1422.42 L81.0383 1426.36 L51.3625 1426.36 L51.3625 1422.42 Z" fill="#000000" fill-rule="nonzero" fill-opacity="1" /><path clip-path="url(#clip200)" d="M95.1586 1435.32 L111.478 1435.32 L111.478 1439.25 L89.5336 1439.25 L89.5336 1435.32 Q92.1956 1432.56 96.7789 1427.93 Q101.385 1423.28 102.566 1421.94 Q104.811 1419.41 105.691 1417.68 Q106.594 1415.92 106.594 1414.23 Q106.594 1411.48 104.649 1409.74 Q102.728 1408 99.6261 1408 Q97.4271 1408 94.9734 1408.77 Q92.5428 1409.53 89.7651 1411.08 L89.7651 1406.36 Q92.5891 1405.23 95.0428 1404.65 Q97.4965 1404.07 99.5335 1404.07 Q104.904 1404.07 108.098 1406.75 Q111.293 1409.44 111.293 1413.93 Q111.293 1416.06 110.483 1417.98 Q109.696 1419.88 107.589 1422.47 Q107.01 1423.14 103.909 1426.36 Q100.807 1429.55 95.1586 1435.32 Z" fill="#000000" fill-rule="nonzero" fill-opacity="1" /><path clip-path="url(#clip200)" d="M50.9921 1035.25 L80.6679 1035.25 L80.6679 1039.18 L50.9921 1039.18 L50.9921 1035.25 Z" fill="#000000" fill-rule="nonzero" fill-opacity="1" /><path clip-path="url(#clip200)" d="M91.5706 1048.14 L99.2095 1048.14 L99.2095 1021.77 L90.8993 1023.44 L90.8993 1019.18 L99.1632 1017.51 L103.839 1017.51 L103.839 1048.14 L111.478 1048.14 L111.478 1052.07 L91.5706 1052.07 L91.5706 1048.14 Z" fill="#000000" fill-rule="nonzero" fill-opacity="1" /><path clip-path="url(#clip200)" d="M99.5335 633.413 Q95.9224 633.413 94.0937 636.978 Q92.2882 640.52 92.2882 647.649 Q92.2882 654.756 94.0937 658.321 Q95.9224 661.862 99.5335 661.862 Q103.168 661.862 104.973 658.321 Q106.802 654.756 106.802 647.649 Q106.802 640.52 104.973 636.978 Q103.168 633.413 99.5335 633.413 M99.5335 629.71 Q105.344 629.71 108.399 634.316 Q111.478 638.899 111.478 647.649 Q111.478 656.376 108.399 660.983 Q105.344 665.566 99.5335 665.566 Q93.7234 665.566 90.6447 660.983 Q87.5892 656.376 87.5892 647.649 Q87.5892 638.899 90.6447 634.316 Q93.7234 629.71 99.5335 629.71 Z" fill="#000000" fill-rule="nonzero" fill-opacity="1" /><path clip-path="url(#clip200)" d="M91.5706 273.78 L99.2095 273.78 L99.2095 247.415 L90.8993 249.081 L90.8993 244.822 L99.1632 243.155 L103.839 243.155 L103.839 273.78 L111.478 273.78 L111.478 277.715 L91.5706 277.715 L91.5706 273.78 Z" fill="#000000" fill-rule="nonzero" fill-opacity="1" /><circle clip-path="url(#clip202)" cx="1432.25" cy="113.44" r="14.4" fill="#009af9" fill-rule="evenodd" fill-opacity="0.5" stroke="#000000" stroke-opacity="0.5" stroke-width="3.2"/>
<circle clip-path="url(#clip202)" cx="1912.36" cy="586.067" r="14.4" fill="#009af9" fill-rule="evenodd" fill-opacity="0.5" stroke="#000000" stroke-opacity="0.5" stroke-width="3.2"/>
<circle clip-path="url(#clip202)" cx="2212.71" cy="1131.65" r="14.4" fill="#009af9" fill-rule="evenodd" fill-opacity="0.5" stroke="#000000" stroke-opacity="0.5" stroke-width="3.2"/>
<circle clip-path="url(#clip202)" cx="290.137" cy="734.792" r="14.4" fill="#009af9" fill-rule="evenodd" fill-opacity="0.5" stroke="#000000" stroke-opacity="0.5" stroke-width="3.2"/>
<circle clip-path="url(#clip202)" cx="1037.28" cy="179.184" r="14.4" fill="#009af9" fill-rule="evenodd" fill-opacity="0.5" stroke="#000000" stroke-opacity="0.5" stroke-width="3.2"/>
<circle clip-path="url(#clip202)" cx="2290.34" cy="351.863" r="14.4" fill="#009af9" fill-rule="evenodd" fill-opacity="0.5" stroke="#000000" stroke-opacity="0.5" stroke-width="3.2"/>
<circle clip-path="url(#clip202)" cx="862.916" cy="616.461" r="14.4" fill="#009af9" fill-rule="evenodd" fill-opacity="0.5" stroke="#000000" stroke-opacity="0.5" stroke-width="3.2"/>
<circle clip-path="url(#clip202)" cx="1230.28" cy="645.749" r="14.4" fill="#009af9" fill-rule="evenodd" fill-opacity="0.5" stroke="#000000" stroke-opacity="0.5" stroke-width="3.2"/>
<circle clip-path="url(#clip202)" cx="1724.9" cy="791.119" r="14.4" fill="#009af9" fill-rule="evenodd" fill-opacity="0.5" stroke="#000000" stroke-opacity="0.5" stroke-width="3.2"/>
<circle clip-path="url(#clip202)" cx="1866.74" cy="87.9763" r="14.4" fill="#009af9" fill-rule="evenodd" fill-opacity="0.5" stroke="#000000" stroke-opacity="0.5" stroke-width="3.2"/>
<circle clip-path="url(#clip202)" cx="561.784" cy="1445.72" r="14.4" fill="#009af9" fill-rule="evenodd" fill-opacity="0.5" stroke="#000000" stroke-opacity="0.5" stroke-width="3.2"/>
<circle clip-path="url(#clip202)" cx="1201.16" cy="306.533" r="14.4" fill="#009af9" fill-rule="evenodd" fill-opacity="0.5" stroke="#000000" stroke-opacity="0.5" stroke-width="3.2"/>
<circle clip-path="url(#clip202)" cx="1321.71" cy="790.144" r="14.4" fill="#009af9" fill-rule="evenodd" fill-opacity="0.5" stroke="#000000" stroke-opacity="0.5" stroke-width="3.2"/>
<circle clip-path="url(#clip202)" cx="1241.63" cy="777.816" r="14.4" fill="#009af9" fill-rule="evenodd" fill-opacity="0.5" stroke="#000000" stroke-opacity="0.5" stroke-width="3.2"/>
<circle clip-path="url(#clip202)" cx="1366.6" cy="399.019" r="14.4" fill="#009af9" fill-rule="evenodd" fill-opacity="0.5" stroke="#000000" stroke-opacity="0.5" stroke-width="3.2"/>
<circle clip-path="url(#clip202)" cx="1049.25" cy="550.228" r="14.4" fill="#009af9" fill-rule="evenodd" fill-opacity="0.5" stroke="#000000" stroke-opacity="0.5" stroke-width="3.2"/>
<circle clip-path="url(#clip202)" cx="1037.76" cy="749.651" r="14.4" fill="#009af9" fill-rule="evenodd" fill-opacity="0.5" stroke="#000000" stroke-opacity="0.5" stroke-width="3.2"/>
<circle clip-path="url(#clip202)" cx="1975.35" cy="851.066" r="14.4" fill="#009af9" fill-rule="evenodd" fill-opacity="0.5" stroke="#000000" stroke-opacity="0.5" stroke-width="3.2"/>
<circle clip-path="url(#clip202)" cx="1351.17" cy="560.7" r="14.4" fill="#009af9" fill-rule="evenodd" fill-opacity="0.5" stroke="#000000" stroke-opacity="0.5" stroke-width="3.2"/>
<circle clip-path="url(#clip202)" cx="1502.41" cy="1215.76" r="14.4" fill="#009af9" fill-rule="evenodd" fill-opacity="0.5" stroke="#000000" stroke-opacity="0.5" stroke-width="3.2"/>
<circle clip-path="url(#clip202)" cx="1171.92" cy="1266.78" r="14.4" fill="#009af9" fill-rule="evenodd" fill-opacity="0.5" stroke="#000000" stroke-opacity="0.5" stroke-width="3.2"/>
<circle clip-path="url(#clip202)" cx="814.876" cy="321.891" r="14.4" fill="#009af9" fill-rule="evenodd" fill-opacity="0.5" stroke="#000000" stroke-opacity="0.5" stroke-width="3.2"/>
<circle clip-path="url(#clip202)" cx="1859.65" cy="708.329" r="14.4" fill="#009af9" fill-rule="evenodd" fill-opacity="0.5" stroke="#000000" stroke-opacity="0.5" stroke-width="3.2"/>
<circle clip-path="url(#clip202)" cx="717.53" cy="522.753" r="14.4" fill="#009af9" fill-rule="evenodd" fill-opacity="0.5" stroke="#000000" stroke-opacity="0.5" stroke-width="3.2"/>
<circle clip-path="url(#clip202)" cx="1139.09" cy="439.633" r="14.4" fill="#009af9" fill-rule="evenodd" fill-opacity="0.5" stroke="#000000" stroke-opacity="0.5" stroke-width="3.2"/>
<circle clip-path="url(#clip202)" cx="209.891" cy="1233.17" r="14.4" fill="#009af9" fill-rule="evenodd" fill-opacity="0.5" stroke="#000000" stroke-opacity="0.5" stroke-width="3.2"/>
<circle clip-path="url(#clip202)" cx="1591.32" cy="431.791" r="14.4" fill="#009af9" fill-rule="evenodd" fill-opacity="0.5" stroke="#000000" stroke-opacity="0.5" stroke-width="3.2"/>
<circle clip-path="url(#clip202)" cx="1257.18" cy="198.039" r="14.4" fill="#009af9" fill-rule="evenodd" fill-opacity="0.5" stroke="#000000" stroke-opacity="0.5" stroke-width="3.2"/>
<circle clip-path="url(#clip202)" cx="1363.4" cy="888.698" r="14.4" fill="#009af9" fill-rule="evenodd" fill-opacity="0.5" stroke="#000000" stroke-opacity="0.5" stroke-width="3.2"/>
<circle clip-path="url(#clip202)" cx="1033.32" cy="433.331" r="14.4" fill="#009af9" fill-rule="evenodd" fill-opacity="0.5" stroke="#000000" stroke-opacity="0.5" stroke-width="3.2"/>
<path clip-path="url(#clip202)" d="M209.891 1233.17 L561.784 1445.72 L2212.71 1131.65 L2290.34 351.863 L1866.74 87.9763 L1432.25 113.44 L1037.28 179.184 L814.876 321.891 L290.137 734.792 L209.891 1233.17 L209.891 1233.17  Z" fill="#e26f46" fill-rule="evenodd" fill-opacity="0.2"/>
<polyline clip-path="url(#clip202)" style="stroke:#000000; stroke-linecap:round; stroke-linejoin:round; stroke-width:4; stroke-opacity:0.2; fill:none" points="209.891,1233.17 561.784,1445.72 2212.71,1131.65 2290.34,351.863 1866.74,87.9763 1432.25,113.44 1037.28,179.184 814.876,321.891 290.137,734.792 209.891,1233.17 "/>
</svg>
