<?xml version="1.0" encoding="utf-8"?>
<svg xmlns="http://www.w3.org/2000/svg" xmlns:xlink="http://www.w3.org/1999/xlink" width="600" height="400" viewBox="0 0 2400 1600">
<defs>
  <clipPath id="clip970">
    <rect x="0" y="0" width="2400" height="1600"/>
  </clipPath>
</defs>
<path clip-path="url(#clip970)" d="M0 1600 L2400 1600 L2400 0 L0 0  Z" fill="#ffffff" fill-rule="evenodd" fill-opacity="1"/>
<defs>
  <clipPath id="clip971">
    <rect x="480" y="0" width="1681" height="1600"/>
  </clipPath>
</defs>
<path clip-path="url(#clip970)" d="M193.936 1486.45 L2352.76 1486.45 L2352.76 47.2441 L193.936 47.2441  Z" fill="#ffffff" fill-rule="evenodd" fill-opacity="1"/>
<defs>
  <clipPath id="clip972">
    <rect x="193" y="47" width="2160" height="1440"/>
  </clipPath>
</defs>
<polyline clip-path="url(#clip972)" style="stroke:#000000; stroke-linecap:round; stroke-linejoin:round; stroke-width:2; stroke-opacity:0.1; fill:none" points="462.45,1486.45 462.45,47.2441 "/>
<polyline clip-path="url(#clip972)" style="stroke:#000000; stroke-linecap:round; stroke-linejoin:round; stroke-width:2; stroke-opacity:0.1; fill:none" points="873.282,1486.45 873.282,47.2441 "/>
<polyline clip-path="url(#clip972)" style="stroke:#000000; stroke-linecap:round; stroke-linejoin:round; stroke-width:2; stroke-opacity:0.1; fill:none" points="1284.11,1486.45 1284.11,47.2441 "/>
<polyline clip-path="url(#clip972)" style="stroke:#000000; stroke-linecap:round; stroke-linejoin:round; stroke-width:2; stroke-opacity:0.1; fill:none" points="1694.94,1486.45 1694.94,47.2441 "/>
<polyline clip-path="url(#clip972)" style="stroke:#000000; stroke-linecap:round; stroke-linejoin:round; stroke-width:2; stroke-opacity:0.1; fill:none" points="2105.78,1486.45 2105.78,47.2441 "/>
<polyline clip-path="url(#clip972)" style="stroke:#000000; stroke-linecap:round; stroke-linejoin:round; stroke-width:2; stroke-opacity:0.1; fill:none" points="193.936,1417.9 2352.76,1417.9 "/>
<polyline clip-path="url(#clip972)" style="stroke:#000000; stroke-linecap:round; stroke-linejoin:round; stroke-width:2; stroke-opacity:0.1; fill:none" points="193.936,1214.35 2352.76,1214.35 "/>
<polyline clip-path="url(#clip972)" style="stroke:#000000; stroke-linecap:round; stroke-linejoin:round; stroke-width:2; stroke-opacity:0.1; fill:none" points="193.936,1010.81 2352.76,1010.81 "/>
<polyline clip-path="url(#clip972)" style="stroke:#000000; stroke-linecap:round; stroke-linejoin:round; stroke-width:2; stroke-opacity:0.1; fill:none" points="193.936,807.265 2352.76,807.265 "/>
<polyline clip-path="url(#clip972)" style="stroke:#000000; stroke-linecap:round; stroke-linejoin:round; stroke-width:2; stroke-opacity:0.1; fill:none" points="193.936,603.721 2352.76,603.721 "/>
<polyline clip-path="url(#clip972)" style="stroke:#000000; stroke-linecap:round; stroke-linejoin:round; stroke-width:2; stroke-opacity:0.1; fill:none" points="193.936,400.178 2352.76,400.178 "/>
<polyline clip-path="url(#clip972)" style="stroke:#000000; stroke-linecap:round; stroke-linejoin:round; stroke-width:2; stroke-opacity:0.1; fill:none" points="193.936,196.634 2352.76,196.634 "/>
<polyline clip-path="url(#clip970)" style="stroke:#000000; stroke-linecap:round; stroke-linejoin:round; stroke-width:4; stroke-opacity:1; fill:none" points="193.936,1486.45 2352.76,1486.45 "/>
<polyline clip-path="url(#clip970)" style="stroke:#000000; stroke-linecap:round; stroke-linejoin:round; stroke-width:4; stroke-opacity:1; fill:none" points="462.45,1486.45 462.45,1467.55 "/>
<polyline clip-path="url(#clip970)" style="stroke:#000000; stroke-linecap:round; stroke-linejoin:round; stroke-width:4; stroke-opacity:1; fill:none" points="873.282,1486.45 873.282,1467.55 "/>
<polyline clip-path="url(#clip970)" style="stroke:#000000; stroke-linecap:round; stroke-linejoin:round; stroke-width:4; stroke-opacity:1; fill:none" points="1284.11,1486.45 1284.11,1467.55 "/>
<polyline clip-path="url(#clip970)" style="stroke:#000000; stroke-linecap:round; stroke-linejoin:round; stroke-width:4; stroke-opacity:1; fill:none" points="1694.94,1486.45 1694.94,1467.55 "/>
<polyline clip-path="url(#clip970)" style="stroke:#000000; stroke-linecap:round; stroke-linejoin:round; stroke-width:4; stroke-opacity:1; fill:none" points="2105.78,1486.45 2105.78,1467.55 "/>
<path clip-path="url(#clip970)" d="M432.207 1532.02 L461.883 1532.02 L461.883 1535.95 L432.207 1535.95 L432.207 1532.02 Z" fill="#000000" fill-rule="nonzero" fill-opacity="1" /><path clip-path="url(#clip970)" d="M472.786 1544.91 L480.425 1544.91 L480.425 1518.55 L472.115 1520.21 L472.115 1515.95 L480.379 1514.29 L485.054 1514.29 L485.054 1544.91 L492.693 1544.91 L492.693 1548.85 L472.786 1548.85 L472.786 1544.91 Z" fill="#000000" fill-rule="nonzero" fill-opacity="1" /><path clip-path="url(#clip970)" d="M873.282 1517.37 Q869.671 1517.37 867.842 1520.93 Q866.036 1524.47 866.036 1531.6 Q866.036 1538.71 867.842 1542.27 Q869.671 1545.82 873.282 1545.82 Q876.916 1545.82 878.721 1542.27 Q880.55 1538.71 880.55 1531.6 Q880.55 1524.47 878.721 1520.93 Q876.916 1517.37 873.282 1517.37 M873.282 1513.66 Q879.092 1513.66 882.147 1518.27 Q885.226 1522.85 885.226 1531.6 Q885.226 1540.33 882.147 1544.94 Q879.092 1549.52 873.282 1549.52 Q867.472 1549.52 864.393 1544.94 Q861.337 1540.33 861.337 1531.6 Q861.337 1522.85 864.393 1518.27 Q867.472 1513.66 873.282 1513.66 Z" fill="#000000" fill-rule="nonzero" fill-opacity="1" /><path clip-path="url(#clip970)" d="M1274.49 1544.91 L1282.13 1544.91 L1282.13 1518.55 L1273.82 1520.21 L1273.82 1515.95 L1282.09 1514.29 L1286.76 1514.29 L1286.76 1544.91 L1294.4 1544.91 L1294.4 1548.85 L1274.49 1548.85 L1274.49 1544.91 Z" fill="#000000" fill-rule="nonzero" fill-opacity="1" /><path clip-path="url(#clip970)" d="M1689.6 1544.91 L1705.92 1544.91 L1705.92 1548.85 L1683.97 1548.85 L1683.97 1544.91 Q1686.63 1542.16 1691.22 1537.53 Q1695.82 1532.88 1697 1531.53 Q1699.25 1529.01 1700.13 1527.27 Q1701.03 1525.51 1701.03 1523.82 Q1701.03 1521.07 1699.09 1519.33 Q1697.17 1517.6 1694.06 1517.6 Q1691.87 1517.6 1689.41 1518.36 Q1686.98 1519.13 1684.2 1520.68 L1684.2 1515.95 Q1687.03 1514.82 1689.48 1514.24 Q1691.93 1513.66 1693.97 1513.66 Q1699.34 1513.66 1702.54 1516.35 Q1705.73 1519.03 1705.73 1523.52 Q1705.73 1525.65 1704.92 1527.57 Q1704.13 1529.47 1702.03 1532.07 Q1701.45 1532.74 1698.35 1535.95 Q1695.25 1539.15 1689.6 1544.91 Z" fill="#000000" fill-rule="nonzero" fill-opacity="1" /><path clip-path="url(#clip970)" d="M2110.02 1530.21 Q2113.38 1530.93 2115.25 1533.2 Q2117.15 1535.47 2117.15 1538.8 Q2117.15 1543.92 2113.63 1546.72 Q2110.12 1549.52 2103.63 1549.52 Q2101.46 1549.52 2099.14 1549.08 Q2096.85 1548.66 2094.4 1547.81 L2094.4 1543.29 Q2096.34 1544.43 2098.66 1545.01 Q2100.97 1545.58 2103.5 1545.58 Q2107.89 1545.58 2110.19 1543.85 Q2112.5 1542.11 2112.5 1538.8 Q2112.5 1535.75 2110.35 1534.03 Q2108.22 1532.3 2104.4 1532.3 L2100.37 1532.3 L2100.37 1528.45 L2104.58 1528.45 Q2108.03 1528.45 2109.86 1527.09 Q2111.69 1525.7 2111.69 1523.11 Q2111.69 1520.45 2109.79 1519.03 Q2107.92 1517.6 2104.4 1517.6 Q2102.48 1517.6 2100.28 1518.01 Q2098.08 1518.43 2095.44 1519.31 L2095.44 1515.14 Q2098.1 1514.4 2100.42 1514.03 Q2102.75 1513.66 2104.81 1513.66 Q2110.14 1513.66 2113.24 1516.09 Q2116.34 1518.5 2116.34 1522.62 Q2116.34 1525.49 2114.7 1527.48 Q2113.06 1529.45 2110.02 1530.21 Z" fill="#000000" fill-rule="nonzero" fill-opacity="1" /><polyline clip-path="url(#clip970)" style="stroke:#000000; stroke-linecap:round; stroke-linejoin:round; stroke-width:4; stroke-opacity:1; fill:none" points="193.936,1486.45 193.936,47.2441 "/>
<polyline clip-path="url(#clip970)" style="stroke:#000000; stroke-linecap:round; stroke-linejoin:round; stroke-width:4; stroke-opacity:1; fill:none" points="193.936,1417.9 212.834,1417.9 "/>
<polyline clip-path="url(#clip970)" style="stroke:#000000; stroke-linecap:round; stroke-linejoin:round; stroke-width:4; stroke-opacity:1; fill:none" points="193.936,1214.35 212.834,1214.35 "/>
<polyline clip-path="url(#clip970)" style="stroke:#000000; stroke-linecap:round; stroke-linejoin:round; stroke-width:4; stroke-opacity:1; fill:none" points="193.936,1010.81 212.834,1010.81 "/>
<polyline clip-path="url(#clip970)" style="stroke:#000000; stroke-linecap:round; stroke-linejoin:round; stroke-width:4; stroke-opacity:1; fill:none" points="193.936,807.265 212.834,807.265 "/>
<polyline clip-path="url(#clip970)" style="stroke:#000000; stroke-linecap:round; stroke-linejoin:round; stroke-width:4; stroke-opacity:1; fill:none" points="193.936,603.721 212.834,603.721 "/>
<polyline clip-path="url(#clip970)" style="stroke:#000000; stroke-linecap:round; stroke-linejoin:round; stroke-width:4; stroke-opacity:1; fill:none" points="193.936,400.178 212.834,400.178 "/>
<polyline clip-path="url(#clip970)" style="stroke:#000000; stroke-linecap:round; stroke-linejoin:round; stroke-width:4; stroke-opacity:1; fill:none" points="193.936,196.634 212.834,196.634 "/>
<path clip-path="url(#clip970)" d="M51.9875 1418.35 L81.6633 1418.35 L81.6633 1422.28 L51.9875 1422.28 L51.9875 1418.35 Z" fill="#000000" fill-rule="nonzero" fill-opacity="1" /><path clip-path="url(#clip970)" d="M92.566 1431.24 L100.205 1431.24 L100.205 1404.88 L91.8947 1406.54 L91.8947 1402.28 L100.159 1400.62 L104.834 1400.62 L104.834 1431.24 L112.473 1431.24 L112.473 1435.18 L92.566 1435.18 L92.566 1431.24 Z" fill="#000000" fill-rule="nonzero" fill-opacity="1" /><path clip-path="url(#clip970)" d="M121.918 1429.3 L126.802 1429.3 L126.802 1435.18 L121.918 1435.18 L121.918 1429.3 Z" fill="#000000" fill-rule="nonzero" fill-opacity="1" /><path clip-path="url(#clip970)" d="M137.033 1400.62 L155.39 1400.62 L155.39 1404.55 L141.316 1404.55 L141.316 1413.02 Q142.334 1412.68 143.353 1412.51 Q144.371 1412.33 145.39 1412.33 Q151.177 1412.33 154.556 1415.5 Q157.936 1418.67 157.936 1424.09 Q157.936 1429.67 154.464 1432.77 Q150.992 1435.85 144.672 1435.85 Q142.496 1435.85 140.228 1435.48 Q137.982 1435.11 135.575 1434.37 L135.575 1429.67 Q137.658 1430.8 139.881 1431.36 Q142.103 1431.91 144.58 1431.91 Q148.584 1431.91 150.922 1429.81 Q153.26 1427.7 153.26 1424.09 Q153.26 1420.48 150.922 1418.37 Q148.584 1416.26 144.58 1416.26 Q142.705 1416.26 140.83 1416.68 Q138.978 1417.1 137.033 1417.98 L137.033 1400.62 Z" fill="#000000" fill-rule="nonzero" fill-opacity="1" /><path clip-path="url(#clip970)" d="M50.9921 1214.8 L80.6679 1214.8 L80.6679 1218.74 L50.9921 1218.74 L50.9921 1214.8 Z" fill="#000000" fill-rule="nonzero" fill-opacity="1" /><path clip-path="url(#clip970)" d="M91.5706 1227.7 L99.2095 1227.7 L99.2095 1201.33 L90.8993 1203 L90.8993 1198.74 L99.1632 1197.07 L103.839 1197.07 L103.839 1227.7 L111.478 1227.7 L111.478 1231.63 L91.5706 1231.63 L91.5706 1227.7 Z" fill="#000000" fill-rule="nonzero" fill-opacity="1" /><path clip-path="url(#clip970)" d="M120.922 1225.75 L125.807 1225.75 L125.807 1231.63 L120.922 1231.63 L120.922 1225.75 Z" fill="#000000" fill-rule="nonzero" fill-opacity="1" /><path clip-path="url(#clip970)" d="M145.992 1200.15 Q142.381 1200.15 140.552 1203.72 Q138.746 1207.26 138.746 1214.39 Q138.746 1221.49 140.552 1225.06 Q142.381 1228.6 145.992 1228.6 Q149.626 1228.6 151.431 1225.06 Q153.26 1221.49 153.26 1214.39 Q153.26 1207.26 151.431 1203.72 Q149.626 1200.15 145.992 1200.15 M145.992 1196.45 Q151.802 1196.45 154.857 1201.05 Q157.936 1205.64 157.936 1214.39 Q157.936 1223.11 154.857 1227.72 Q151.802 1232.3 145.992 1232.3 Q140.181 1232.3 137.103 1227.72 Q134.047 1223.11 134.047 1214.39 Q134.047 1205.64 137.103 1201.05 Q140.181 1196.45 145.992 1196.45 Z" fill="#000000" fill-rule="nonzero" fill-opacity="1" /><path clip-path="url(#clip970)" d="M51.9875 1011.26 L81.6633 1011.26 L81.6633 1015.2 L51.9875 1015.2 L51.9875 1011.26 Z" fill="#000000" fill-rule="nonzero" fill-opacity="1" /><path clip-path="url(#clip970)" d="M101.756 996.607 Q98.1447 996.607 96.316 1000.17 Q94.5104 1003.71 94.5104 1010.84 Q94.5104 1017.95 96.316 1021.51 Q98.1447 1025.06 101.756 1025.06 Q105.39 1025.06 107.196 1021.51 Q109.024 1017.95 109.024 1010.84 Q109.024 1003.71 107.196 1000.17 Q105.39 996.607 101.756 996.607 M101.756 992.904 Q107.566 992.904 110.621 997.51 Q113.7 1002.09 113.7 1010.84 Q113.7 1019.57 110.621 1024.18 Q107.566 1028.76 101.756 1028.76 Q95.9456 1028.76 92.8669 1024.18 Q89.8114 1019.57 89.8114 1010.84 Q89.8114 1002.09 92.8669 997.51 Q95.9456 992.904 101.756 992.904 Z" fill="#000000" fill-rule="nonzero" fill-opacity="1" /><path clip-path="url(#clip970)" d="M121.918 1022.21 L126.802 1022.21 L126.802 1028.09 L121.918 1028.09 L121.918 1022.21 Z" fill="#000000" fill-rule="nonzero" fill-opacity="1" /><path clip-path="url(#clip970)" d="M137.033 993.529 L155.39 993.529 L155.39 997.464 L141.316 997.464 L141.316 1005.94 Q142.334 1005.59 143.353 1005.43 Q144.371 1005.24 145.39 1005.24 Q151.177 1005.24 154.556 1008.41 Q157.936 1011.58 157.936 1017 Q157.936 1022.58 154.464 1025.68 Q150.992 1028.76 144.672 1028.76 Q142.496 1028.76 140.228 1028.39 Q137.982 1028.02 135.575 1027.28 L135.575 1022.58 Q137.658 1023.71 139.881 1024.27 Q142.103 1024.82 144.58 1024.82 Q148.584 1024.82 150.922 1022.72 Q153.26 1020.61 153.26 1017 Q153.26 1013.39 150.922 1011.28 Q148.584 1009.18 144.58 1009.18 Q142.705 1009.18 140.83 1009.59 Q138.978 1010.01 137.033 1010.89 L137.033 993.529 Z" fill="#000000" fill-rule="nonzero" fill-opacity="1" /><path clip-path="url(#clip970)" d="M100.76 793.064 Q97.1493 793.064 95.3206 796.628 Q93.515 800.17 93.515 807.3 Q93.515 814.406 95.3206 817.971 Q97.1493 821.513 100.76 821.513 Q104.395 821.513 106.2 817.971 Q108.029 814.406 108.029 807.3 Q108.029 800.17 106.2 796.628 Q104.395 793.064 100.76 793.064 M100.76 789.36 Q106.571 789.36 109.626 793.966 Q112.705 798.55 112.705 807.3 Q112.705 816.027 109.626 820.633 Q106.571 825.216 100.76 825.216 Q94.9502 825.216 91.8715 820.633 Q88.816 816.027 88.816 807.3 Q88.816 798.55 91.8715 793.966 Q94.9502 789.36 100.76 789.36 Z" fill="#000000" fill-rule="nonzero" fill-opacity="1" /><path clip-path="url(#clip970)" d="M120.922 818.665 L125.807 818.665 L125.807 824.545 L120.922 824.545 L120.922 818.665 Z" fill="#000000" fill-rule="nonzero" fill-opacity="1" /><path clip-path="url(#clip970)" d="M145.992 793.064 Q142.381 793.064 140.552 796.628 Q138.746 800.17 138.746 807.3 Q138.746 814.406 140.552 817.971 Q142.381 821.513 145.992 821.513 Q149.626 821.513 151.431 817.971 Q153.26 814.406 153.26 807.3 Q153.26 800.17 151.431 796.628 Q149.626 793.064 145.992 793.064 M145.992 789.36 Q151.802 789.36 154.857 793.966 Q157.936 798.55 157.936 807.3 Q157.936 816.027 154.857 820.633 Q151.802 825.216 145.992 825.216 Q140.181 825.216 137.103 820.633 Q134.047 816.027 134.047 807.3 Q134.047 798.55 137.103 793.966 Q140.181 789.36 145.992 789.36 Z" fill="#000000" fill-rule="nonzero" fill-opacity="1" /><path clip-path="url(#clip970)" d="M101.756 589.52 Q98.1447 589.52 96.316 593.085 Q94.5104 596.626 94.5104 603.756 Q94.5104 610.862 96.316 614.427 Q98.1447 617.969 101.756 617.969 Q105.39 617.969 107.196 614.427 Q109.024 610.862 109.024 603.756 Q109.024 596.626 107.196 593.085 Q105.39 589.52 101.756 589.52 M101.756 585.816 Q107.566 585.816 110.621 590.423 Q113.7 595.006 113.7 603.756 Q113.7 612.483 110.621 617.089 Q107.566 621.673 101.756 621.673 Q95.9456 621.673 92.8669 617.089 Q89.8114 612.483 89.8114 603.756 Q89.8114 595.006 92.8669 590.423 Q95.9456 585.816 101.756 585.816 Z" fill="#000000" fill-rule="nonzero" fill-opacity="1" /><path clip-path="url(#clip970)" d="M121.918 615.122 L126.802 615.122 L126.802 621.001 L121.918 621.001 L121.918 615.122 Z" fill="#000000" fill-rule="nonzero" fill-opacity="1" /><path clip-path="url(#clip970)" d="M137.033 586.441 L155.39 586.441 L155.39 590.376 L141.316 590.376 L141.316 598.849 Q142.334 598.501 143.353 598.339 Q144.371 598.154 145.39 598.154 Q151.177 598.154 154.556 601.325 Q157.936 604.497 157.936 609.913 Q157.936 615.492 154.464 618.594 Q150.992 621.673 144.672 621.673 Q142.496 621.673 140.228 621.302 Q137.982 620.932 135.575 620.191 L135.575 615.492 Q137.658 616.626 139.881 617.182 Q142.103 617.737 144.58 617.737 Q148.584 617.737 150.922 615.631 Q153.26 613.525 153.26 609.913 Q153.26 606.302 150.922 604.196 Q148.584 602.089 144.58 602.089 Q142.705 602.089 140.83 602.506 Q138.978 602.923 137.033 603.802 L137.033 586.441 Z" fill="#000000" fill-rule="nonzero" fill-opacity="1" /><path clip-path="url(#clip970)" d="M91.5706 413.522 L99.2095 413.522 L99.2095 387.157 L90.8993 388.824 L90.8993 384.564 L99.1632 382.898 L103.839 382.898 L103.839 413.522 L111.478 413.522 L111.478 417.458 L91.5706 417.458 L91.5706 413.522 Z" fill="#000000" fill-rule="nonzero" fill-opacity="1" /><path clip-path="url(#clip970)" d="M120.922 411.578 L125.807 411.578 L125.807 417.458 L120.922 417.458 L120.922 411.578 Z" fill="#000000" fill-rule="nonzero" fill-opacity="1" /><path clip-path="url(#clip970)" d="M145.992 385.976 Q142.381 385.976 140.552 389.541 Q138.746 393.083 138.746 400.212 Q138.746 407.319 140.552 410.884 Q142.381 414.425 145.992 414.425 Q149.626 414.425 151.431 410.884 Q153.26 407.319 153.26 400.212 Q153.26 393.083 151.431 389.541 Q149.626 385.976 145.992 385.976 M145.992 382.273 Q151.802 382.273 154.857 386.879 Q157.936 391.462 157.936 400.212 Q157.936 408.939 154.857 413.546 Q151.802 418.129 145.992 418.129 Q140.181 418.129 137.103 413.546 Q134.047 408.939 134.047 400.212 Q134.047 391.462 137.103 386.879 Q140.181 382.273 145.992 382.273 Z" fill="#000000" fill-rule="nonzero" fill-opacity="1" /><path clip-path="url(#clip970)" d="M92.566 209.979 L100.205 209.979 L100.205 183.613 L91.8947 185.28 L91.8947 181.021 L100.159 179.354 L104.834 179.354 L104.834 209.979 L112.473 209.979 L112.473 213.914 L92.566 213.914 L92.566 209.979 Z" fill="#000000" fill-rule="nonzero" fill-opacity="1" /><path clip-path="url(#clip970)" d="M121.918 208.034 L126.802 208.034 L126.802 213.914 L121.918 213.914 L121.918 208.034 Z" fill="#000000" fill-rule="nonzero" fill-opacity="1" /><path clip-path="url(#clip970)" d="M137.033 179.354 L155.39 179.354 L155.39 183.289 L141.316 183.289 L141.316 191.761 Q142.334 191.414 143.353 191.252 Q144.371 191.067 145.39 191.067 Q151.177 191.067 154.556 194.238 Q157.936 197.409 157.936 202.826 Q157.936 208.405 154.464 211.507 Q150.992 214.585 144.672 214.585 Q142.496 214.585 140.228 214.215 Q137.982 213.845 135.575 213.104 L135.575 208.405 Q137.658 209.539 139.881 210.095 Q142.103 210.65 144.58 210.65 Q148.584 210.65 150.922 208.544 Q153.26 206.437 153.26 202.826 Q153.26 199.215 150.922 197.108 Q148.584 195.002 144.58 195.002 Q142.705 195.002 140.83 195.419 Q138.978 195.835 137.033 196.715 L137.033 179.354 Z" fill="#000000" fill-rule="nonzero" fill-opacity="1" /><circle clip-path="url(#clip972)" cx="550.576" cy="1443.95" r="14.4" fill="#009af9" fill-rule="evenodd" fill-opacity="0.5" stroke="#000000" stroke-opacity="0.5" stroke-width="3.2"/>
<circle clip-path="url(#clip972)" cx="949.576" cy="618.028" r="14.4" fill="#009af9" fill-rule="evenodd" fill-opacity="0.5" stroke="#000000" stroke-opacity="0.5" stroke-width="3.2"/>
<circle clip-path="url(#clip972)" cx="1029.09" cy="1398.72" r="14.4" fill="#009af9" fill-rule="evenodd" fill-opacity="0.5" stroke="#000000" stroke-opacity="0.5" stroke-width="3.2"/>
<circle clip-path="url(#clip972)" cx="255.035" cy="454.831" r="14.4" fill="#009af9" fill-rule="evenodd" fill-opacity="0.5" stroke="#000000" stroke-opacity="0.5" stroke-width="3.2"/>
<circle clip-path="url(#clip972)" cx="984.558" cy="1108.3" r="14.4" fill="#009af9" fill-rule="evenodd" fill-opacity="0.5" stroke="#000000" stroke-opacity="0.5" stroke-width="3.2"/>
<circle clip-path="url(#clip972)" cx="791.402" cy="774.23" r="14.4" fill="#009af9" fill-rule="evenodd" fill-opacity="0.5" stroke="#000000" stroke-opacity="0.5" stroke-width="3.2"/>
<circle clip-path="url(#clip972)" cx="1101.56" cy="561.135" r="14.4" fill="#009af9" fill-rule="evenodd" fill-opacity="0.5" stroke="#000000" stroke-opacity="0.5" stroke-width="3.2"/>
<circle clip-path="url(#clip972)" cx="606.268" cy="1356.24" r="14.4" fill="#009af9" fill-rule="evenodd" fill-opacity="0.5" stroke="#000000" stroke-opacity="0.5" stroke-width="3.2"/>
<circle clip-path="url(#clip972)" cx="961.97" cy="1445.72" r="14.4" fill="#009af9" fill-rule="evenodd" fill-opacity="0.5" stroke="#000000" stroke-opacity="0.5" stroke-width="3.2"/>
<circle clip-path="url(#clip972)" cx="1349.73" cy="382.083" r="14.4" fill="#009af9" fill-rule="evenodd" fill-opacity="0.5" stroke="#000000" stroke-opacity="0.5" stroke-width="3.2"/>
<circle clip-path="url(#clip972)" cx="1527.28" cy="298.761" r="14.4" fill="#009af9" fill-rule="evenodd" fill-opacity="0.5" stroke="#000000" stroke-opacity="0.5" stroke-width="3.2"/>
<circle clip-path="url(#clip972)" cx="454.159" cy="605.422" r="14.4" fill="#009af9" fill-rule="evenodd" fill-opacity="0.5" stroke="#000000" stroke-opacity="0.5" stroke-width="3.2"/>
<circle clip-path="url(#clip972)" cx="755.887" cy="994.621" r="14.4" fill="#009af9" fill-rule="evenodd" fill-opacity="0.5" stroke="#000000" stroke-opacity="0.5" stroke-width="3.2"/>
<circle clip-path="url(#clip972)" cx="893.584" cy="1301.36" r="14.4" fill="#009af9" fill-rule="evenodd" fill-opacity="0.5" stroke="#000000" stroke-opacity="0.5" stroke-width="3.2"/>
<circle clip-path="url(#clip972)" cx="1742.64" cy="802.608" r="14.4" fill="#009af9" fill-rule="evenodd" fill-opacity="0.5" stroke="#000000" stroke-opacity="0.5" stroke-width="3.2"/>
<circle clip-path="url(#clip972)" cx="758.8" cy="810.22" r="14.4" fill="#009af9" fill-rule="evenodd" fill-opacity="0.5" stroke="#000000" stroke-opacity="0.5" stroke-width="3.2"/>
<circle clip-path="url(#clip972)" cx="833.101" cy="214.895" r="14.4" fill="#009af9" fill-rule="evenodd" fill-opacity="0.5" stroke="#000000" stroke-opacity="0.5" stroke-width="3.2"/>
<circle clip-path="url(#clip972)" cx="836.413" cy="299.096" r="14.4" fill="#009af9" fill-rule="evenodd" fill-opacity="0.5" stroke="#000000" stroke-opacity="0.5" stroke-width="3.2"/>
<circle clip-path="url(#clip972)" cx="886.441" cy="750.38" r="14.4" fill="#009af9" fill-rule="evenodd" fill-opacity="0.5" stroke="#000000" stroke-opacity="0.5" stroke-width="3.2"/>
<circle clip-path="url(#clip972)" cx="880.301" cy="973.255" r="14.4" fill="#009af9" fill-rule="evenodd" fill-opacity="0.5" stroke="#000000" stroke-opacity="0.5" stroke-width="3.2"/>
<circle clip-path="url(#clip972)" cx="574.368" cy="533.885" r="14.4" fill="#009af9" fill-rule="evenodd" fill-opacity="0.5" stroke="#000000" stroke-opacity="0.5" stroke-width="3.2"/>
<circle clip-path="url(#clip972)" cx="2291.66" cy="987.463" r="14.4" fill="#009af9" fill-rule="evenodd" fill-opacity="0.5" stroke="#000000" stroke-opacity="0.5" stroke-width="3.2"/>
<circle clip-path="url(#clip972)" cx="884.159" cy="1178.06" r="14.4" fill="#009af9" fill-rule="evenodd" fill-opacity="0.5" stroke="#000000" stroke-opacity="0.5" stroke-width="3.2"/>
<circle clip-path="url(#clip972)" cx="1040.28" cy="87.9763" r="14.4" fill="#009af9" fill-rule="evenodd" fill-opacity="0.5" stroke="#000000" stroke-opacity="0.5" stroke-width="3.2"/>
<circle clip-path="url(#clip972)" cx="300.742" cy="821.562" r="14.4" fill="#009af9" fill-rule="evenodd" fill-opacity="0.5" stroke="#000000" stroke-opacity="0.5" stroke-width="3.2"/>
<circle clip-path="url(#clip972)" cx="552.159" cy="672.373" r="14.4" fill="#009af9" fill-rule="evenodd" fill-opacity="0.5" stroke="#000000" stroke-opacity="0.5" stroke-width="3.2"/>
<circle clip-path="url(#clip972)" cx="1038.63" cy="122.28" r="14.4" fill="#009af9" fill-rule="evenodd" fill-opacity="0.5" stroke="#000000" stroke-opacity="0.5" stroke-width="3.2"/>
<circle clip-path="url(#clip972)" cx="442.284" cy="1293.95" r="14.4" fill="#009af9" fill-rule="evenodd" fill-opacity="0.5" stroke="#000000" stroke-opacity="0.5" stroke-width="3.2"/>
<circle clip-path="url(#clip972)" cx="1056.89" cy="685.099" r="14.4" fill="#009af9" fill-rule="evenodd" fill-opacity="0.5" stroke="#000000" stroke-opacity="0.5" stroke-width="3.2"/>
<circle clip-path="url(#clip972)" cx="1233.48" cy="1337.47" r="14.4" fill="#009af9" fill-rule="evenodd" fill-opacity="0.5" stroke="#000000" stroke-opacity="0.5" stroke-width="3.2"/>
<path clip-path="url(#clip972)" d="M255.035 454.831 L300.742 821.562 L442.284 1293.95 L550.576 1443.95 L961.97 1445.72 L2291.66 987.463 L1527.28 298.761 L1040.28 87.9763 L255.035 454.831 L255.035 454.831  Z" fill="#e26f46" fill-rule="evenodd" fill-opacity="0.2"/>
<polyline clip-path="url(#clip972)" style="stroke:#000000; stroke-linecap:round; stroke-linejoin:round; stroke-width:4; stroke-opacity:0.2; fill:none" points="255.035,454.831 300.742,821.562 442.284,1293.95 550.576,1443.95 961.97,1445.72 2291.66,987.463 1527.28,298.761 1040.28,87.9763 255.035,454.831 "/>
</svg>
