<?xml version="1.0" encoding="utf-8"?>
<svg xmlns="http://www.w3.org/2000/svg" xmlns:xlink="http://www.w3.org/1999/xlink" width="600" height="400" viewBox="0 0 2400 1600">
<defs>
  <clipPath id="clip320">
    <rect x="0" y="0" width="2400" height="1600"/>
  </clipPath>
</defs>
<path clip-path="url(#clip320)" d="M0 1600 L2400 1600 L2400 0 L0 0  Z" fill="#ffffff" fill-rule="evenodd" fill-opacity="1"/>
<defs>
  <clipPath id="clip321">
    <rect x="480" y="0" width="1681" height="1600"/>
  </clipPath>
</defs>
<path clip-path="url(#clip320)" d="M148.057 1486.45 L2352.76 1486.45 L2352.76 47.2441 L148.057 47.2441  Z" fill="#ffffff" fill-rule="evenodd" fill-opacity="1"/>
<defs>
  <clipPath id="clip322">
    <rect x="148" y="47" width="2206" height="1440"/>
  </clipPath>
</defs>
<polyline clip-path="url(#clip322)" style="stroke:#000000; stroke-linecap:round; stroke-linejoin:round; stroke-width:2; stroke-opacity:0.1; fill:none" points="409.548,1486.45 409.548,47.2441 "/>
<polyline clip-path="url(#clip322)" style="stroke:#000000; stroke-linecap:round; stroke-linejoin:round; stroke-width:2; stroke-opacity:0.1; fill:none" points="854.771,1486.45 854.771,47.2441 "/>
<polyline clip-path="url(#clip322)" style="stroke:#000000; stroke-linecap:round; stroke-linejoin:round; stroke-width:2; stroke-opacity:0.1; fill:none" points="1299.99,1486.45 1299.99,47.2441 "/>
<polyline clip-path="url(#clip322)" style="stroke:#000000; stroke-linecap:round; stroke-linejoin:round; stroke-width:2; stroke-opacity:0.1; fill:none" points="1745.22,1486.45 1745.22,47.2441 "/>
<polyline clip-path="url(#clip322)" style="stroke:#000000; stroke-linecap:round; stroke-linejoin:round; stroke-width:2; stroke-opacity:0.1; fill:none" points="2190.44,1486.45 2190.44,47.2441 "/>
<polyline clip-path="url(#clip322)" style="stroke:#000000; stroke-linecap:round; stroke-linejoin:round; stroke-width:2; stroke-opacity:0.1; fill:none" points="148.057,1460.75 2352.76,1460.75 "/>
<polyline clip-path="url(#clip322)" style="stroke:#000000; stroke-linecap:round; stroke-linejoin:round; stroke-width:2; stroke-opacity:0.1; fill:none" points="148.057,1208.85 2352.76,1208.85 "/>
<polyline clip-path="url(#clip322)" style="stroke:#000000; stroke-linecap:round; stroke-linejoin:round; stroke-width:2; stroke-opacity:0.1; fill:none" points="148.057,956.944 2352.76,956.944 "/>
<polyline clip-path="url(#clip322)" style="stroke:#000000; stroke-linecap:round; stroke-linejoin:round; stroke-width:2; stroke-opacity:0.1; fill:none" points="148.057,705.041 2352.76,705.041 "/>
<polyline clip-path="url(#clip322)" style="stroke:#000000; stroke-linecap:round; stroke-linejoin:round; stroke-width:2; stroke-opacity:0.1; fill:none" points="148.057,453.138 2352.76,453.138 "/>
<polyline clip-path="url(#clip322)" style="stroke:#000000; stroke-linecap:round; stroke-linejoin:round; stroke-width:2; stroke-opacity:0.1; fill:none" points="148.057,201.235 2352.76,201.235 "/>
<polyline clip-path="url(#clip320)" style="stroke:#000000; stroke-linecap:round; stroke-linejoin:round; stroke-width:4; stroke-opacity:1; fill:none" points="148.057,1486.45 2352.76,1486.45 "/>
<polyline clip-path="url(#clip320)" style="stroke:#000000; stroke-linecap:round; stroke-linejoin:round; stroke-width:4; stroke-opacity:1; fill:none" points="409.548,1486.45 409.548,1467.55 "/>
<polyline clip-path="url(#clip320)" style="stroke:#000000; stroke-linecap:round; stroke-linejoin:round; stroke-width:4; stroke-opacity:1; fill:none" points="854.771,1486.45 854.771,1467.55 "/>
<polyline clip-path="url(#clip320)" style="stroke:#000000; stroke-linecap:round; stroke-linejoin:round; stroke-width:4; stroke-opacity:1; fill:none" points="1299.99,1486.45 1299.99,1467.55 "/>
<polyline clip-path="url(#clip320)" style="stroke:#000000; stroke-linecap:round; stroke-linejoin:round; stroke-width:4; stroke-opacity:1; fill:none" points="1745.22,1486.45 1745.22,1467.55 "/>
<polyline clip-path="url(#clip320)" style="stroke:#000000; stroke-linecap:round; stroke-linejoin:round; stroke-width:4; stroke-opacity:1; fill:none" points="2190.44,1486.45 2190.44,1467.55 "/>
<path clip-path="url(#clip320)" d="M379.49 1532.02 L409.166 1532.02 L409.166 1535.95 L379.49 1535.95 L379.49 1532.02 Z" fill="#000000" fill-rule="nonzero" fill-opacity="1" /><path clip-path="url(#clip320)" d="M423.286 1544.91 L439.606 1544.91 L439.606 1548.85 L417.661 1548.85 L417.661 1544.91 Q420.323 1542.16 424.907 1537.53 Q429.513 1532.88 430.694 1531.53 Q432.939 1529.01 433.819 1527.27 Q434.722 1525.51 434.722 1523.82 Q434.722 1521.07 432.777 1519.33 Q430.856 1517.6 427.754 1517.6 Q425.555 1517.6 423.101 1518.36 Q420.671 1519.13 417.893 1520.68 L417.893 1515.95 Q420.717 1514.82 423.171 1514.24 Q425.624 1513.66 427.661 1513.66 Q433.032 1513.66 436.226 1516.35 Q439.421 1519.03 439.421 1523.52 Q439.421 1525.65 438.61 1527.57 Q437.823 1529.47 435.717 1532.07 Q435.138 1532.74 432.036 1535.95 Q428.935 1539.15 423.286 1544.91 Z" fill="#000000" fill-rule="nonzero" fill-opacity="1" /><path clip-path="url(#clip320)" d="M824.528 1532.02 L854.204 1532.02 L854.204 1535.95 L824.528 1535.95 L824.528 1532.02 Z" fill="#000000" fill-rule="nonzero" fill-opacity="1" /><path clip-path="url(#clip320)" d="M865.107 1544.91 L872.745 1544.91 L872.745 1518.55 L864.435 1520.21 L864.435 1515.95 L872.699 1514.29 L877.375 1514.29 L877.375 1544.91 L885.014 1544.91 L885.014 1548.85 L865.107 1548.85 L865.107 1544.91 Z" fill="#000000" fill-rule="nonzero" fill-opacity="1" /><path clip-path="url(#clip320)" d="M1299.99 1517.37 Q1296.38 1517.37 1294.55 1520.93 Q1292.75 1524.47 1292.75 1531.6 Q1292.75 1538.71 1294.55 1542.27 Q1296.38 1545.82 1299.99 1545.82 Q1303.63 1545.82 1305.43 1542.27 Q1307.26 1538.71 1307.26 1531.6 Q1307.26 1524.47 1305.43 1520.93 Q1303.63 1517.37 1299.99 1517.37 M1299.99 1513.66 Q1305.8 1513.66 1308.86 1518.27 Q1311.94 1522.85 1311.94 1531.6 Q1311.94 1540.33 1308.86 1544.94 Q1305.8 1549.52 1299.99 1549.52 Q1294.18 1549.52 1291.11 1544.94 Q1288.05 1540.33 1288.05 1531.6 Q1288.05 1522.85 1291.11 1518.27 Q1294.18 1513.66 1299.99 1513.66 Z" fill="#000000" fill-rule="nonzero" fill-opacity="1" /><path clip-path="url(#clip320)" d="M1735.6 1544.91 L1743.24 1544.91 L1743.24 1518.55 L1734.93 1520.21 L1734.93 1515.95 L1743.19 1514.29 L1747.87 1514.29 L1747.87 1544.91 L1755.51 1544.91 L1755.51 1548.85 L1735.6 1548.85 L1735.6 1544.91 Z" fill="#000000" fill-rule="nonzero" fill-opacity="1" /><path clip-path="url(#clip320)" d="M2185.09 1544.91 L2201.41 1544.91 L2201.41 1548.85 L2179.47 1548.85 L2179.47 1544.91 Q2182.13 1542.16 2186.71 1537.53 Q2191.32 1532.88 2192.5 1531.53 Q2194.75 1529.01 2195.62 1527.27 Q2196.53 1525.51 2196.53 1523.82 Q2196.53 1521.07 2194.58 1519.33 Q2192.66 1517.6 2189.56 1517.6 Q2187.36 1517.6 2184.91 1518.36 Q2182.48 1519.13 2179.7 1520.68 L2179.7 1515.95 Q2182.52 1514.82 2184.98 1514.24 Q2187.43 1513.66 2189.47 1513.66 Q2194.84 1513.66 2198.03 1516.35 Q2201.23 1519.03 2201.23 1523.52 Q2201.23 1525.65 2200.42 1527.57 Q2199.63 1529.47 2197.52 1532.07 Q2196.94 1532.74 2193.84 1535.95 Q2190.74 1539.15 2185.09 1544.91 Z" fill="#000000" fill-rule="nonzero" fill-opacity="1" /><polyline clip-path="url(#clip320)" style="stroke:#000000; stroke-linecap:round; stroke-linejoin:round; stroke-width:4; stroke-opacity:1; fill:none" points="148.057,1486.45 148.057,47.2441 "/>
<polyline clip-path="url(#clip320)" style="stroke:#000000; stroke-linecap:round; stroke-linejoin:round; stroke-width:4; stroke-opacity:1; fill:none" points="148.057,1460.75 166.954,1460.75 "/>
<polyline clip-path="url(#clip320)" style="stroke:#000000; stroke-linecap:round; stroke-linejoin:round; stroke-width:4; stroke-opacity:1; fill:none" points="148.057,1208.85 166.954,1208.85 "/>
<polyline clip-path="url(#clip320)" style="stroke:#000000; stroke-linecap:round; stroke-linejoin:round; stroke-width:4; stroke-opacity:1; fill:none" points="148.057,956.944 166.954,956.944 "/>
<polyline clip-path="url(#clip320)" style="stroke:#000000; stroke-linecap:round; stroke-linejoin:round; stroke-width:4; stroke-opacity:1; fill:none" points="148.057,705.041 166.954,705.041 "/>
<polyline clip-path="url(#clip320)" style="stroke:#000000; stroke-linecap:round; stroke-linejoin:round; stroke-width:4; stroke-opacity:1; fill:none" points="148.057,453.138 166.954,453.138 "/>
<polyline clip-path="url(#clip320)" style="stroke:#000000; stroke-linecap:round; stroke-linejoin:round; stroke-width:4; stroke-opacity:1; fill:none" points="148.057,201.235 166.954,201.235 "/>
<path clip-path="url(#clip320)" d="M50.9921 1461.2 L80.6679 1461.2 L80.6679 1465.14 L50.9921 1465.14 L50.9921 1461.2 Z" fill="#000000" fill-rule="nonzero" fill-opacity="1" /><path clip-path="url(#clip320)" d="M104.927 1459.39 Q108.283 1460.11 110.158 1462.38 Q112.057 1464.65 112.057 1467.98 Q112.057 1473.1 108.538 1475.9 Q105.02 1478.7 98.5382 1478.7 Q96.3623 1478.7 94.0475 1478.26 Q91.7558 1477.84 89.3021 1476.99 L89.3021 1472.47 Q91.2465 1473.61 93.5613 1474.19 Q95.8761 1474.77 98.3993 1474.77 Q102.797 1474.77 105.089 1473.03 Q107.404 1471.29 107.404 1467.98 Q107.404 1464.93 105.251 1463.21 Q103.121 1461.48 99.3021 1461.48 L95.2743 1461.48 L95.2743 1457.64 L99.4872 1457.64 Q102.936 1457.64 104.765 1456.27 Q106.594 1454.88 106.594 1452.29 Q106.594 1449.63 104.696 1448.21 Q102.821 1446.78 99.3021 1446.78 Q97.3808 1446.78 95.1817 1447.2 Q92.9826 1447.61 90.3438 1448.49 L90.3438 1444.33 Q93.0058 1443.58 95.3206 1443.21 Q97.6585 1442.84 99.7187 1442.84 Q105.043 1442.84 108.145 1445.27 Q111.246 1447.68 111.246 1451.8 Q111.246 1454.67 109.603 1456.66 Q107.959 1458.63 104.927 1459.39 Z" fill="#000000" fill-rule="nonzero" fill-opacity="1" /><path clip-path="url(#clip320)" d="M51.9412 1209.3 L81.617 1209.3 L81.617 1213.23 L51.9412 1213.23 L51.9412 1209.3 Z" fill="#000000" fill-rule="nonzero" fill-opacity="1" /><path clip-path="url(#clip320)" d="M95.7373 1222.19 L112.057 1222.19 L112.057 1226.13 L90.1123 1226.13 L90.1123 1222.19 Q92.7743 1219.44 97.3576 1214.81 Q101.964 1210.15 103.145 1208.81 Q105.39 1206.29 106.27 1204.55 Q107.172 1202.79 107.172 1201.1 Q107.172 1198.35 105.228 1196.61 Q103.307 1194.88 100.205 1194.88 Q98.0058 1194.88 95.5521 1195.64 Q93.1215 1196.4 90.3438 1197.96 L90.3438 1193.23 Q93.1678 1192.1 95.6215 1191.52 Q98.0752 1190.94 100.112 1190.94 Q105.483 1190.94 108.677 1193.63 Q111.871 1196.31 111.871 1200.8 Q111.871 1202.93 111.061 1204.85 Q110.274 1206.75 108.168 1209.34 Q107.589 1210.02 104.487 1213.23 Q101.385 1216.43 95.7373 1222.19 Z" fill="#000000" fill-rule="nonzero" fill-opacity="1" /><path clip-path="url(#clip320)" d="M51.5708 957.395 L81.2466 957.395 L81.2466 961.33 L51.5708 961.33 L51.5708 957.395 Z" fill="#000000" fill-rule="nonzero" fill-opacity="1" /><path clip-path="url(#clip320)" d="M92.1493 970.288 L99.7882 970.288 L99.7882 943.923 L91.478 945.589 L91.478 941.33 L99.7419 939.664 L104.418 939.664 L104.418 970.288 L112.057 970.288 L112.057 974.224 L92.1493 974.224 L92.1493 970.288 Z" fill="#000000" fill-rule="nonzero" fill-opacity="1" /><path clip-path="url(#clip320)" d="M100.112 690.84 Q96.5011 690.84 94.6724 694.404 Q92.8669 697.946 92.8669 705.076 Q92.8669 712.182 94.6724 715.747 Q96.5011 719.288 100.112 719.288 Q103.746 719.288 105.552 715.747 Q107.381 712.182 107.381 705.076 Q107.381 697.946 105.552 694.404 Q103.746 690.84 100.112 690.84 M100.112 687.136 Q105.922 687.136 108.978 691.742 Q112.057 696.326 112.057 705.076 Q112.057 713.802 108.978 718.409 Q105.922 722.992 100.112 722.992 Q94.3021 722.992 91.2234 718.409 Q88.1679 713.802 88.1679 705.076 Q88.1679 696.326 91.2234 691.742 Q94.3021 687.136 100.112 687.136 Z" fill="#000000" fill-rule="nonzero" fill-opacity="1" /><path clip-path="url(#clip320)" d="M92.1493 466.483 L99.7882 466.483 L99.7882 440.117 L91.478 441.784 L91.478 437.525 L99.7419 435.858 L104.418 435.858 L104.418 466.483 L112.057 466.483 L112.057 470.418 L92.1493 470.418 L92.1493 466.483 Z" fill="#000000" fill-rule="nonzero" fill-opacity="1" /><path clip-path="url(#clip320)" d="M95.7373 214.58 L112.057 214.58 L112.057 218.515 L90.1123 218.515 L90.1123 214.58 Q92.7743 211.826 97.3576 207.196 Q101.964 202.543 103.145 201.201 Q105.39 198.678 106.27 196.941 Q107.172 195.182 107.172 193.492 Q107.172 190.738 105.228 189.002 Q103.307 187.266 100.205 187.266 Q98.0058 187.266 95.5521 188.029 Q93.1215 188.793 90.3438 190.344 L90.3438 185.622 Q93.1678 184.488 95.6215 183.909 Q98.0752 183.33 100.112 183.33 Q105.483 183.33 108.677 186.016 Q111.871 188.701 111.871 193.192 Q111.871 195.321 111.061 197.242 Q110.274 199.141 108.168 201.733 Q107.589 202.404 104.487 205.622 Q101.385 208.816 95.7373 214.58 Z" fill="#000000" fill-rule="nonzero" fill-opacity="1" /><circle clip-path="url(#clip322)" cx="1739.11" cy="473.482" r="14.4" fill="#009af9" fill-rule="evenodd" fill-opacity="0.5" stroke="#000000" stroke-opacity="0.5" stroke-width="3.2"/>
<circle clip-path="url(#clip322)" cx="1117.83" cy="1106.46" r="14.4" fill="#009af9" fill-rule="evenodd" fill-opacity="0.5" stroke="#000000" stroke-opacity="0.5" stroke-width="3.2"/>
<circle clip-path="url(#clip322)" cx="1443.11" cy="517.172" r="14.4" fill="#009af9" fill-rule="evenodd" fill-opacity="0.5" stroke="#000000" stroke-opacity="0.5" stroke-width="3.2"/>
<circle clip-path="url(#clip322)" cx="1001.91" cy="1445.72" r="14.4" fill="#009af9" fill-rule="evenodd" fill-opacity="0.5" stroke="#000000" stroke-opacity="0.5" stroke-width="3.2"/>
<circle clip-path="url(#clip322)" cx="996.416" cy="87.9763" r="14.4" fill="#009af9" fill-rule="evenodd" fill-opacity="0.5" stroke="#000000" stroke-opacity="0.5" stroke-width="3.2"/>
<circle clip-path="url(#clip322)" cx="1711.76" cy="728.932" r="14.4" fill="#009af9" fill-rule="evenodd" fill-opacity="0.5" stroke="#000000" stroke-opacity="0.5" stroke-width="3.2"/>
<circle clip-path="url(#clip322)" cx="844.796" cy="597.439" r="14.4" fill="#009af9" fill-rule="evenodd" fill-opacity="0.5" stroke="#000000" stroke-opacity="0.5" stroke-width="3.2"/>
<circle clip-path="url(#clip322)" cx="1692.42" cy="1043.04" r="14.4" fill="#009af9" fill-rule="evenodd" fill-opacity="0.5" stroke="#000000" stroke-opacity="0.5" stroke-width="3.2"/>
<circle clip-path="url(#clip322)" cx="1768.32" cy="1296.9" r="14.4" fill="#009af9" fill-rule="evenodd" fill-opacity="0.5" stroke="#000000" stroke-opacity="0.5" stroke-width="3.2"/>
<circle clip-path="url(#clip322)" cx="1098.16" cy="714.772" r="14.4" fill="#009af9" fill-rule="evenodd" fill-opacity="0.5" stroke="#000000" stroke-opacity="0.5" stroke-width="3.2"/>
<circle clip-path="url(#clip322)" cx="1247.61" cy="596.71" r="14.4" fill="#009af9" fill-rule="evenodd" fill-opacity="0.5" stroke="#000000" stroke-opacity="0.5" stroke-width="3.2"/>
<circle clip-path="url(#clip322)" cx="1126.47" cy="672.691" r="14.4" fill="#009af9" fill-rule="evenodd" fill-opacity="0.5" stroke="#000000" stroke-opacity="0.5" stroke-width="3.2"/>
<circle clip-path="url(#clip322)" cx="1433.95" cy="730.418" r="14.4" fill="#009af9" fill-rule="evenodd" fill-opacity="0.5" stroke="#000000" stroke-opacity="0.5" stroke-width="3.2"/>
<circle clip-path="url(#clip322)" cx="1312.76" cy="451.212" r="14.4" fill="#009af9" fill-rule="evenodd" fill-opacity="0.5" stroke="#000000" stroke-opacity="0.5" stroke-width="3.2"/>
<circle clip-path="url(#clip322)" cx="2040.59" cy="698.068" r="14.4" fill="#009af9" fill-rule="evenodd" fill-opacity="0.5" stroke="#000000" stroke-opacity="0.5" stroke-width="3.2"/>
<circle clip-path="url(#clip322)" cx="1636.55" cy="802.875" r="14.4" fill="#009af9" fill-rule="evenodd" fill-opacity="0.5" stroke="#000000" stroke-opacity="0.5" stroke-width="3.2"/>
<circle clip-path="url(#clip322)" cx="2290.36" cy="631.424" r="14.4" fill="#009af9" fill-rule="evenodd" fill-opacity="0.5" stroke="#000000" stroke-opacity="0.5" stroke-width="3.2"/>
<circle clip-path="url(#clip322)" cx="210.454" cy="1088.82" r="14.4" fill="#009af9" fill-rule="evenodd" fill-opacity="0.5" stroke="#000000" stroke-opacity="0.5" stroke-width="3.2"/>
<circle clip-path="url(#clip322)" cx="1178.29" cy="794.54" r="14.4" fill="#009af9" fill-rule="evenodd" fill-opacity="0.5" stroke="#000000" stroke-opacity="0.5" stroke-width="3.2"/>
<circle clip-path="url(#clip322)" cx="1056.63" cy="937.611" r="14.4" fill="#009af9" fill-rule="evenodd" fill-opacity="0.5" stroke="#000000" stroke-opacity="0.5" stroke-width="3.2"/>
<circle clip-path="url(#clip322)" cx="1365.25" cy="893.154" r="14.4" fill="#009af9" fill-rule="evenodd" fill-opacity="0.5" stroke="#000000" stroke-opacity="0.5" stroke-width="3.2"/>
<circle clip-path="url(#clip322)" cx="1612" cy="752.707" r="14.4" fill="#009af9" fill-rule="evenodd" fill-opacity="0.5" stroke="#000000" stroke-opacity="0.5" stroke-width="3.2"/>
<circle clip-path="url(#clip322)" cx="1041.4" cy="699.623" r="14.4" fill="#009af9" fill-rule="evenodd" fill-opacity="0.5" stroke="#000000" stroke-opacity="0.5" stroke-width="3.2"/>
<circle clip-path="url(#clip322)" cx="1780.05" cy="985.087" r="14.4" fill="#009af9" fill-rule="evenodd" fill-opacity="0.5" stroke="#000000" stroke-opacity="0.5" stroke-width="3.2"/>
<circle clip-path="url(#clip322)" cx="1043.53" cy="1167.21" r="14.4" fill="#009af9" fill-rule="evenodd" fill-opacity="0.5" stroke="#000000" stroke-opacity="0.5" stroke-width="3.2"/>
<circle clip-path="url(#clip322)" cx="1265.77" cy="594.065" r="14.4" fill="#009af9" fill-rule="evenodd" fill-opacity="0.5" stroke="#000000" stroke-opacity="0.5" stroke-width="3.2"/>
<circle clip-path="url(#clip322)" cx="280.44" cy="787.636" r="14.4" fill="#009af9" fill-rule="evenodd" fill-opacity="0.5" stroke="#000000" stroke-opacity="0.5" stroke-width="3.2"/>
<circle clip-path="url(#clip322)" cx="1115.71" cy="467.982" r="14.4" fill="#009af9" fill-rule="evenodd" fill-opacity="0.5" stroke="#000000" stroke-opacity="0.5" stroke-width="3.2"/>
<circle clip-path="url(#clip322)" cx="946.5" cy="565.037" r="14.4" fill="#009af9" fill-rule="evenodd" fill-opacity="0.5" stroke="#000000" stroke-opacity="0.5" stroke-width="3.2"/>
<circle clip-path="url(#clip322)" cx="1563.83" cy="659.884" r="14.4" fill="#009af9" fill-rule="evenodd" fill-opacity="0.5" stroke="#000000" stroke-opacity="0.5" stroke-width="3.2"/>
<path clip-path="url(#clip322)" d="M210.454 1088.82 L1001.91 1445.72 L1768.32 1296.9 L2290.36 631.424 L996.416 87.9763 L280.44 787.636 L210.454 1088.82 L210.454 1088.82  Z" fill="#e26f46" fill-rule="evenodd" fill-opacity="0.2"/>
<polyline clip-path="url(#clip322)" style="stroke:#000000; stroke-linecap:round; stroke-linejoin:round; stroke-width:4; stroke-opacity:0.2; fill:none" points="210.454,1088.82 1001.91,1445.72 1768.32,1296.9 2290.36,631.424 996.416,87.9763 280.44,787.636 210.454,1088.82 "/>
</svg>
