<?xml version="1.0" encoding="utf-8"?>
<svg xmlns="http://www.w3.org/2000/svg" xmlns:xlink="http://www.w3.org/1999/xlink" width="600" height="400" viewBox="0 0 2400 1600">
<defs>
  <clipPath id="clip280">
    <rect x="0" y="0" width="2400" height="1600"/>
  </clipPath>
</defs>
<path clip-path="url(#clip280)" d="M0 1600 L2400 1600 L2400 0 L0 0  Z" fill="#ffffff" fill-rule="evenodd" fill-opacity="1"/>
<defs>
  <clipPath id="clip281">
    <rect x="480" y="0" width="1681" height="1600"/>
  </clipPath>
</defs>
<path clip-path="url(#clip280)" d="M147.478 1486.45 L2352.76 1486.45 L2352.76 47.2441 L147.478 47.2441  Z" fill="#ffffff" fill-rule="evenodd" fill-opacity="1"/>
<defs>
  <clipPath id="clip282">
    <rect x="147" y="47" width="2206" height="1440"/>
  </clipPath>
</defs>
<polyline clip-path="url(#clip282)" style="stroke:#000000; stroke-linecap:round; stroke-linejoin:round; stroke-width:2; stroke-opacity:0.1; fill:none" points="366.095,1486.45 366.095,47.2441 "/>
<polyline clip-path="url(#clip282)" style="stroke:#000000; stroke-linecap:round; stroke-linejoin:round; stroke-width:2; stroke-opacity:0.1; fill:none" points="838.586,1486.45 838.586,47.2441 "/>
<polyline clip-path="url(#clip282)" style="stroke:#000000; stroke-linecap:round; stroke-linejoin:round; stroke-width:2; stroke-opacity:0.1; fill:none" points="1311.08,1486.45 1311.08,47.2441 "/>
<polyline clip-path="url(#clip282)" style="stroke:#000000; stroke-linecap:round; stroke-linejoin:round; stroke-width:2; stroke-opacity:0.1; fill:none" points="1783.57,1486.45 1783.57,47.2441 "/>
<polyline clip-path="url(#clip282)" style="stroke:#000000; stroke-linecap:round; stroke-linejoin:round; stroke-width:2; stroke-opacity:0.1; fill:none" points="2256.06,1486.45 2256.06,47.2441 "/>
<polyline clip-path="url(#clip282)" style="stroke:#000000; stroke-linecap:round; stroke-linejoin:round; stroke-width:2; stroke-opacity:0.1; fill:none" points="147.478,1458.9 2352.76,1458.9 "/>
<polyline clip-path="url(#clip282)" style="stroke:#000000; stroke-linecap:round; stroke-linejoin:round; stroke-width:2; stroke-opacity:0.1; fill:none" points="147.478,1087.97 2352.76,1087.97 "/>
<polyline clip-path="url(#clip282)" style="stroke:#000000; stroke-linecap:round; stroke-linejoin:round; stroke-width:2; stroke-opacity:0.1; fill:none" points="147.478,717.045 2352.76,717.045 "/>
<polyline clip-path="url(#clip282)" style="stroke:#000000; stroke-linecap:round; stroke-linejoin:round; stroke-width:2; stroke-opacity:0.1; fill:none" points="147.478,346.116 2352.76,346.116 "/>
<polyline clip-path="url(#clip280)" style="stroke:#000000; stroke-linecap:round; stroke-linejoin:round; stroke-width:4; stroke-opacity:1; fill:none" points="147.478,1486.45 2352.76,1486.45 "/>
<polyline clip-path="url(#clip280)" style="stroke:#000000; stroke-linecap:round; stroke-linejoin:round; stroke-width:4; stroke-opacity:1; fill:none" points="366.095,1486.45 366.095,1467.55 "/>
<polyline clip-path="url(#clip280)" style="stroke:#000000; stroke-linecap:round; stroke-linejoin:round; stroke-width:4; stroke-opacity:1; fill:none" points="838.586,1486.45 838.586,1467.55 "/>
<polyline clip-path="url(#clip280)" style="stroke:#000000; stroke-linecap:round; stroke-linejoin:round; stroke-width:4; stroke-opacity:1; fill:none" points="1311.08,1486.45 1311.08,1467.55 "/>
<polyline clip-path="url(#clip280)" style="stroke:#000000; stroke-linecap:round; stroke-linejoin:round; stroke-width:4; stroke-opacity:1; fill:none" points="1783.57,1486.45 1783.57,1467.55 "/>
<polyline clip-path="url(#clip280)" style="stroke:#000000; stroke-linecap:round; stroke-linejoin:round; stroke-width:4; stroke-opacity:1; fill:none" points="2256.06,1486.45 2256.06,1467.55 "/>
<path clip-path="url(#clip280)" d="M336.038 1532.02 L365.713 1532.02 L365.713 1535.95 L336.038 1535.95 L336.038 1532.02 Z" fill="#000000" fill-rule="nonzero" fill-opacity="1" /><path clip-path="url(#clip280)" d="M379.834 1544.91 L396.153 1544.91 L396.153 1548.85 L374.209 1548.85 L374.209 1544.91 Q376.871 1542.16 381.454 1537.53 Q386.061 1532.88 387.241 1531.53 Q389.486 1529.01 390.366 1527.27 Q391.269 1525.51 391.269 1523.82 Q391.269 1521.07 389.324 1519.33 Q387.403 1517.6 384.301 1517.6 Q382.102 1517.6 379.649 1518.36 Q377.218 1519.13 374.44 1520.68 L374.44 1515.95 Q377.264 1514.82 379.718 1514.24 Q382.172 1513.66 384.209 1513.66 Q389.579 1513.66 392.774 1516.35 Q395.968 1519.03 395.968 1523.52 Q395.968 1525.65 395.158 1527.57 Q394.371 1529.47 392.264 1532.07 Q391.686 1532.74 388.584 1535.95 Q385.482 1539.15 379.834 1544.91 Z" fill="#000000" fill-rule="nonzero" fill-opacity="1" /><path clip-path="url(#clip280)" d="M808.343 1532.02 L838.019 1532.02 L838.019 1535.95 L808.343 1535.95 L808.343 1532.02 Z" fill="#000000" fill-rule="nonzero" fill-opacity="1" /><path clip-path="url(#clip280)" d="M848.922 1544.91 L856.561 1544.91 L856.561 1518.55 L848.25 1520.21 L848.25 1515.95 L856.514 1514.29 L861.19 1514.29 L861.19 1544.91 L868.829 1544.91 L868.829 1548.85 L848.922 1548.85 L848.922 1544.91 Z" fill="#000000" fill-rule="nonzero" fill-opacity="1" /><path clip-path="url(#clip280)" d="M1311.08 1517.37 Q1307.47 1517.37 1305.64 1520.93 Q1303.83 1524.47 1303.83 1531.6 Q1303.83 1538.71 1305.64 1542.27 Q1307.47 1545.82 1311.08 1545.82 Q1314.71 1545.82 1316.52 1542.27 Q1318.35 1538.71 1318.35 1531.6 Q1318.35 1524.47 1316.52 1520.93 Q1314.71 1517.37 1311.08 1517.37 M1311.08 1513.66 Q1316.89 1513.66 1319.94 1518.27 Q1323.02 1522.85 1323.02 1531.6 Q1323.02 1540.33 1319.94 1544.94 Q1316.89 1549.52 1311.08 1549.52 Q1305.27 1549.52 1302.19 1544.94 Q1299.13 1540.33 1299.13 1531.6 Q1299.13 1522.85 1302.19 1518.27 Q1305.27 1513.66 1311.08 1513.66 Z" fill="#000000" fill-rule="nonzero" fill-opacity="1" /><path clip-path="url(#clip280)" d="M1773.95 1544.91 L1781.59 1544.91 L1781.59 1518.55 L1773.28 1520.21 L1773.28 1515.95 L1781.54 1514.29 L1786.22 1514.29 L1786.22 1544.91 L1793.86 1544.91 L1793.86 1548.85 L1773.95 1548.85 L1773.95 1544.91 Z" fill="#000000" fill-rule="nonzero" fill-opacity="1" /><path clip-path="url(#clip280)" d="M2250.71 1544.91 L2267.03 1544.91 L2267.03 1548.85 L2245.09 1548.85 L2245.09 1544.91 Q2247.75 1542.16 2252.33 1537.53 Q2256.94 1532.88 2258.12 1531.53 Q2260.36 1529.01 2261.24 1527.27 Q2262.15 1525.51 2262.15 1523.82 Q2262.15 1521.07 2260.2 1519.33 Q2258.28 1517.6 2255.18 1517.6 Q2252.98 1517.6 2250.53 1518.36 Q2248.1 1519.13 2245.32 1520.68 L2245.32 1515.95 Q2248.14 1514.82 2250.6 1514.24 Q2253.05 1513.66 2255.09 1513.66 Q2260.46 1513.66 2263.65 1516.35 Q2266.85 1519.03 2266.85 1523.52 Q2266.85 1525.65 2266.04 1527.57 Q2265.25 1529.47 2263.14 1532.07 Q2262.56 1532.74 2259.46 1535.95 Q2256.36 1539.15 2250.71 1544.91 Z" fill="#000000" fill-rule="nonzero" fill-opacity="1" /><polyline clip-path="url(#clip280)" style="stroke:#000000; stroke-linecap:round; stroke-linejoin:round; stroke-width:4; stroke-opacity:1; fill:none" points="147.478,1486.45 147.478,47.2441 "/>
<polyline clip-path="url(#clip280)" style="stroke:#000000; stroke-linecap:round; stroke-linejoin:round; stroke-width:4; stroke-opacity:1; fill:none" points="147.478,1458.9 166.376,1458.9 "/>
<polyline clip-path="url(#clip280)" style="stroke:#000000; stroke-linecap:round; stroke-linejoin:round; stroke-width:4; stroke-opacity:1; fill:none" points="147.478,1087.97 166.376,1087.97 "/>
<polyline clip-path="url(#clip280)" style="stroke:#000000; stroke-linecap:round; stroke-linejoin:round; stroke-width:4; stroke-opacity:1; fill:none" points="147.478,717.045 166.376,717.045 "/>
<polyline clip-path="url(#clip280)" style="stroke:#000000; stroke-linecap:round; stroke-linejoin:round; stroke-width:4; stroke-opacity:1; fill:none" points="147.478,346.116 166.376,346.116 "/>
<path clip-path="url(#clip280)" d="M51.3625 1459.35 L81.0383 1459.35 L81.0383 1463.29 L51.3625 1463.29 L51.3625 1459.35 Z" fill="#000000" fill-rule="nonzero" fill-opacity="1" /><path clip-path="url(#clip280)" d="M95.1586 1472.25 L111.478 1472.25 L111.478 1476.18 L89.5336 1476.18 L89.5336 1472.25 Q92.1956 1469.49 96.7789 1464.86 Q101.385 1460.21 102.566 1458.87 Q104.811 1456.35 105.691 1454.61 Q106.594 1452.85 106.594 1451.16 Q106.594 1448.41 104.649 1446.67 Q102.728 1444.93 99.6261 1444.93 Q97.4271 1444.93 94.9734 1445.7 Q92.5428 1446.46 89.7651 1448.01 L89.7651 1443.29 Q92.5891 1442.16 95.0428 1441.58 Q97.4965 1441 99.5335 1441 Q104.904 1441 108.098 1443.68 Q111.293 1446.37 111.293 1450.86 Q111.293 1452.99 110.483 1454.91 Q109.696 1456.81 107.589 1459.4 Q107.01 1460.07 103.909 1463.29 Q100.807 1466.48 95.1586 1472.25 Z" fill="#000000" fill-rule="nonzero" fill-opacity="1" /><path clip-path="url(#clip280)" d="M50.9921 1088.43 L80.6679 1088.43 L80.6679 1092.36 L50.9921 1092.36 L50.9921 1088.43 Z" fill="#000000" fill-rule="nonzero" fill-opacity="1" /><path clip-path="url(#clip280)" d="M91.5706 1101.32 L99.2095 1101.32 L99.2095 1074.95 L90.8993 1076.62 L90.8993 1072.36 L99.1632 1070.69 L103.839 1070.69 L103.839 1101.32 L111.478 1101.32 L111.478 1105.25 L91.5706 1105.25 L91.5706 1101.32 Z" fill="#000000" fill-rule="nonzero" fill-opacity="1" /><path clip-path="url(#clip280)" d="M99.5335 702.844 Q95.9224 702.844 94.0937 706.408 Q92.2882 709.95 92.2882 717.08 Q92.2882 724.186 94.0937 727.751 Q95.9224 731.292 99.5335 731.292 Q103.168 731.292 104.973 727.751 Q106.802 724.186 106.802 717.08 Q106.802 709.95 104.973 706.408 Q103.168 702.844 99.5335 702.844 M99.5335 699.14 Q105.344 699.14 108.399 703.746 Q111.478 708.33 111.478 717.08 Q111.478 725.806 108.399 730.413 Q105.344 734.996 99.5335 734.996 Q93.7234 734.996 90.6447 730.413 Q87.5892 725.806 87.5892 717.08 Q87.5892 708.33 90.6447 703.746 Q93.7234 699.14 99.5335 699.14 Z" fill="#000000" fill-rule="nonzero" fill-opacity="1" /><path clip-path="url(#clip280)" d="M91.5706 359.46 L99.2095 359.46 L99.2095 333.095 L90.8993 334.762 L90.8993 330.502 L99.1632 328.836 L103.839 328.836 L103.839 359.46 L111.478 359.46 L111.478 363.396 L91.5706 363.396 L91.5706 359.46 Z" fill="#000000" fill-rule="nonzero" fill-opacity="1" /><circle clip-path="url(#clip282)" cx="1804.49" cy="392.116" r="14.4" fill="#009af9" fill-rule="evenodd" fill-opacity="0.5" stroke="#000000" stroke-opacity="0.5" stroke-width="3.2"/>
<circle clip-path="url(#clip282)" cx="367.019" cy="507.442" r="14.4" fill="#009af9" fill-rule="evenodd" fill-opacity="0.5" stroke="#000000" stroke-opacity="0.5" stroke-width="3.2"/>
<circle clip-path="url(#clip282)" cx="1845.35" cy="427.55" r="14.4" fill="#009af9" fill-rule="evenodd" fill-opacity="0.5" stroke="#000000" stroke-opacity="0.5" stroke-width="3.2"/>
<circle clip-path="url(#clip282)" cx="976.485" cy="996.626" r="14.4" fill="#009af9" fill-rule="evenodd" fill-opacity="0.5" stroke="#000000" stroke-opacity="0.5" stroke-width="3.2"/>
<circle clip-path="url(#clip282)" cx="919.101" cy="842.366" r="14.4" fill="#009af9" fill-rule="evenodd" fill-opacity="0.5" stroke="#000000" stroke-opacity="0.5" stroke-width="3.2"/>
<circle clip-path="url(#clip282)" cx="1617.38" cy="1445.72" r="14.4" fill="#009af9" fill-rule="evenodd" fill-opacity="0.5" stroke="#000000" stroke-opacity="0.5" stroke-width="3.2"/>
<circle clip-path="url(#clip282)" cx="1385.28" cy="380.626" r="14.4" fill="#009af9" fill-rule="evenodd" fill-opacity="0.5" stroke="#000000" stroke-opacity="0.5" stroke-width="3.2"/>
<circle clip-path="url(#clip282)" cx="1042.8" cy="821.462" r="14.4" fill="#009af9" fill-rule="evenodd" fill-opacity="0.5" stroke="#000000" stroke-opacity="0.5" stroke-width="3.2"/>
<circle clip-path="url(#clip282)" cx="1609.79" cy="317.505" r="14.4" fill="#009af9" fill-rule="evenodd" fill-opacity="0.5" stroke="#000000" stroke-opacity="0.5" stroke-width="3.2"/>
<circle clip-path="url(#clip282)" cx="796.778" cy="398.074" r="14.4" fill="#009af9" fill-rule="evenodd" fill-opacity="0.5" stroke="#000000" stroke-opacity="0.5" stroke-width="3.2"/>
<circle clip-path="url(#clip282)" cx="1498.51" cy="87.9763" r="14.4" fill="#009af9" fill-rule="evenodd" fill-opacity="0.5" stroke="#000000" stroke-opacity="0.5" stroke-width="3.2"/>
<circle clip-path="url(#clip282)" cx="668.476" cy="1084.35" r="14.4" fill="#009af9" fill-rule="evenodd" fill-opacity="0.5" stroke="#000000" stroke-opacity="0.5" stroke-width="3.2"/>
<circle clip-path="url(#clip282)" cx="1236.63" cy="266.887" r="14.4" fill="#009af9" fill-rule="evenodd" fill-opacity="0.5" stroke="#000000" stroke-opacity="0.5" stroke-width="3.2"/>
<circle clip-path="url(#clip282)" cx="2290.34" cy="899.222" r="14.4" fill="#009af9" fill-rule="evenodd" fill-opacity="0.5" stroke="#000000" stroke-opacity="0.5" stroke-width="3.2"/>
<circle clip-path="url(#clip282)" cx="1902.94" cy="829.21" r="14.4" fill="#009af9" fill-rule="evenodd" fill-opacity="0.5" stroke="#000000" stroke-opacity="0.5" stroke-width="3.2"/>
<circle clip-path="url(#clip282)" cx="1753.75" cy="507.544" r="14.4" fill="#009af9" fill-rule="evenodd" fill-opacity="0.5" stroke="#000000" stroke-opacity="0.5" stroke-width="3.2"/>
<circle clip-path="url(#clip282)" cx="1068.59" cy="787.833" r="14.4" fill="#009af9" fill-rule="evenodd" fill-opacity="0.5" stroke="#000000" stroke-opacity="0.5" stroke-width="3.2"/>
<circle clip-path="url(#clip282)" cx="1160.93" cy="813.656" r="14.4" fill="#009af9" fill-rule="evenodd" fill-opacity="0.5" stroke="#000000" stroke-opacity="0.5" stroke-width="3.2"/>
<circle clip-path="url(#clip282)" cx="2226.63" cy="513.182" r="14.4" fill="#009af9" fill-rule="evenodd" fill-opacity="0.5" stroke="#000000" stroke-opacity="0.5" stroke-width="3.2"/>
<circle clip-path="url(#clip282)" cx="1510.32" cy="850.786" r="14.4" fill="#009af9" fill-rule="evenodd" fill-opacity="0.5" stroke="#000000" stroke-opacity="0.5" stroke-width="3.2"/>
<circle clip-path="url(#clip282)" cx="876.494" cy="1005.24" r="14.4" fill="#009af9" fill-rule="evenodd" fill-opacity="0.5" stroke="#000000" stroke-opacity="0.5" stroke-width="3.2"/>
<circle clip-path="url(#clip282)" cx="1758.45" cy="1001.15" r="14.4" fill="#009af9" fill-rule="evenodd" fill-opacity="0.5" stroke="#000000" stroke-opacity="0.5" stroke-width="3.2"/>
<circle clip-path="url(#clip282)" cx="1715.15" cy="754.528" r="14.4" fill="#009af9" fill-rule="evenodd" fill-opacity="0.5" stroke="#000000" stroke-opacity="0.5" stroke-width="3.2"/>
<circle clip-path="url(#clip282)" cx="1142.43" cy="811.379" r="14.4" fill="#009af9" fill-rule="evenodd" fill-opacity="0.5" stroke="#000000" stroke-opacity="0.5" stroke-width="3.2"/>
<circle clip-path="url(#clip282)" cx="1703.47" cy="1135.35" r="14.4" fill="#009af9" fill-rule="evenodd" fill-opacity="0.5" stroke="#000000" stroke-opacity="0.5" stroke-width="3.2"/>
<circle clip-path="url(#clip282)" cx="209.891" cy="932.787" r="14.4" fill="#009af9" fill-rule="evenodd" fill-opacity="0.5" stroke="#000000" stroke-opacity="0.5" stroke-width="3.2"/>
<circle clip-path="url(#clip282)" cx="1535.87" cy="436.718" r="14.4" fill="#009af9" fill-rule="evenodd" fill-opacity="0.5" stroke="#000000" stroke-opacity="0.5" stroke-width="3.2"/>
<circle clip-path="url(#clip282)" cx="1802.99" cy="524.185" r="14.4" fill="#009af9" fill-rule="evenodd" fill-opacity="0.5" stroke="#000000" stroke-opacity="0.5" stroke-width="3.2"/>
<circle clip-path="url(#clip282)" cx="911.083" cy="354.117" r="14.4" fill="#009af9" fill-rule="evenodd" fill-opacity="0.5" stroke="#000000" stroke-opacity="0.5" stroke-width="3.2"/>
<circle clip-path="url(#clip282)" cx="830.991" cy="310.349" r="14.4" fill="#009af9" fill-rule="evenodd" fill-opacity="0.5" stroke="#000000" stroke-opacity="0.5" stroke-width="3.2"/>
<path clip-path="url(#clip282)" d="M209.891 932.787 L1617.38 1445.72 L2290.34 899.222 L2226.63 513.182 L1498.51 87.9763 L830.991 310.349 L367.019 507.442 L209.891 932.787 L209.891 932.787  Z" fill="#e26f46" fill-rule="evenodd" fill-opacity="0.2"/>
<polyline clip-path="url(#clip282)" style="stroke:#000000; stroke-linecap:round; stroke-linejoin:round; stroke-width:4; stroke-opacity:0.2; fill:none" points="209.891,932.787 1617.38,1445.72 2290.34,899.222 2226.63,513.182 1498.51,87.9763 830.991,310.349 367.019,507.442 209.891,932.787 "/>
</svg>
