<?xml version="1.0" encoding="utf-8"?>
<svg xmlns="http://www.w3.org/2000/svg" xmlns:xlink="http://www.w3.org/1999/xlink" width="600" height="400" viewBox="0 0 2400 1600">
<defs>
  <clipPath id="clip090">
    <rect x="0" y="0" width="2400" height="1600"/>
  </clipPath>
</defs>
<path clip-path="url(#clip090)" d="M0 1600 L2400 1600 L2400 0 L0 0  Z" fill="#ffffff" fill-rule="evenodd" fill-opacity="1"/>
<defs>
  <clipPath id="clip091">
    <rect x="193" y="47" width="2160" height="1440"/>
  </clipPath>
</defs>
<path clip-path="url(#clip090)" d="M193.936 1486.45 L2352.76 1486.45 L2352.76 47.2441 L193.936 47.2441  Z" fill="#ffffff" fill-rule="evenodd" fill-opacity="1"/>
<polyline clip-path="url(#clip091)" style="stroke:#000000; stroke-linecap:round; stroke-linejoin:round; stroke-width:2; stroke-opacity:0.1; fill:none" points="431.221,1486.45 431.221,47.2441 "/>
<polyline clip-path="url(#clip091)" style="stroke:#000000; stroke-linecap:round; stroke-linejoin:round; stroke-width:2; stroke-opacity:0.1; fill:none" points="825.536,1486.45 825.536,47.2441 "/>
<polyline clip-path="url(#clip091)" style="stroke:#000000; stroke-linecap:round; stroke-linejoin:round; stroke-width:2; stroke-opacity:0.1; fill:none" points="1219.85,1486.45 1219.85,47.2441 "/>
<polyline clip-path="url(#clip091)" style="stroke:#000000; stroke-linecap:round; stroke-linejoin:round; stroke-width:2; stroke-opacity:0.1; fill:none" points="1614.17,1486.45 1614.17,47.2441 "/>
<polyline clip-path="url(#clip091)" style="stroke:#000000; stroke-linecap:round; stroke-linejoin:round; stroke-width:2; stroke-opacity:0.1; fill:none" points="2008.48,1486.45 2008.48,47.2441 "/>
<polyline clip-path="url(#clip091)" style="stroke:#000000; stroke-linecap:round; stroke-linejoin:round; stroke-width:2; stroke-opacity:0.1; fill:none" points="193.936,1347.69 2352.76,1347.69 "/>
<polyline clip-path="url(#clip091)" style="stroke:#000000; stroke-linecap:round; stroke-linejoin:round; stroke-width:2; stroke-opacity:0.1; fill:none" points="193.936,1153.58 2352.76,1153.58 "/>
<polyline clip-path="url(#clip091)" style="stroke:#000000; stroke-linecap:round; stroke-linejoin:round; stroke-width:2; stroke-opacity:0.1; fill:none" points="193.936,959.47 2352.76,959.47 "/>
<polyline clip-path="url(#clip091)" style="stroke:#000000; stroke-linecap:round; stroke-linejoin:round; stroke-width:2; stroke-opacity:0.1; fill:none" points="193.936,765.357 2352.76,765.357 "/>
<polyline clip-path="url(#clip091)" style="stroke:#000000; stroke-linecap:round; stroke-linejoin:round; stroke-width:2; stroke-opacity:0.1; fill:none" points="193.936,571.245 2352.76,571.245 "/>
<polyline clip-path="url(#clip091)" style="stroke:#000000; stroke-linecap:round; stroke-linejoin:round; stroke-width:2; stroke-opacity:0.1; fill:none" points="193.936,377.133 2352.76,377.133 "/>
<polyline clip-path="url(#clip091)" style="stroke:#000000; stroke-linecap:round; stroke-linejoin:round; stroke-width:2; stroke-opacity:0.1; fill:none" points="193.936,183.021 2352.76,183.021 "/>
<polyline clip-path="url(#clip090)" style="stroke:#000000; stroke-linecap:round; stroke-linejoin:round; stroke-width:4; stroke-opacity:1; fill:none" points="193.936,1486.45 2352.76,1486.45 "/>
<polyline clip-path="url(#clip090)" style="stroke:#000000; stroke-linecap:round; stroke-linejoin:round; stroke-width:4; stroke-opacity:1; fill:none" points="431.221,1486.45 431.221,1467.55 "/>
<polyline clip-path="url(#clip090)" style="stroke:#000000; stroke-linecap:round; stroke-linejoin:round; stroke-width:4; stroke-opacity:1; fill:none" points="825.536,1486.45 825.536,1467.55 "/>
<polyline clip-path="url(#clip090)" style="stroke:#000000; stroke-linecap:round; stroke-linejoin:round; stroke-width:4; stroke-opacity:1; fill:none" points="1219.85,1486.45 1219.85,1467.55 "/>
<polyline clip-path="url(#clip090)" style="stroke:#000000; stroke-linecap:round; stroke-linejoin:round; stroke-width:4; stroke-opacity:1; fill:none" points="1614.17,1486.45 1614.17,1467.55 "/>
<polyline clip-path="url(#clip090)" style="stroke:#000000; stroke-linecap:round; stroke-linejoin:round; stroke-width:4; stroke-opacity:1; fill:none" points="2008.48,1486.45 2008.48,1467.55 "/>
<path clip-path="url(#clip090)" d="M401.164 1532.02 L430.839 1532.02 L430.839 1535.95 L401.164 1535.95 L401.164 1532.02 Z" fill="#000000" fill-rule="nonzero" fill-opacity="1" /><path clip-path="url(#clip090)" d="M444.96 1544.91 L461.279 1544.91 L461.279 1548.85 L439.335 1548.85 L439.335 1544.91 Q441.997 1542.16 446.58 1537.53 Q451.187 1532.88 452.367 1531.53 Q454.612 1529.01 455.492 1527.27 Q456.395 1525.51 456.395 1523.82 Q456.395 1521.07 454.45 1519.33 Q452.529 1517.6 449.427 1517.6 Q447.228 1517.6 444.775 1518.36 Q442.344 1519.13 439.566 1520.68 L439.566 1515.95 Q442.39 1514.82 444.844 1514.24 Q447.298 1513.66 449.335 1513.66 Q454.705 1513.66 457.899 1516.35 Q461.094 1519.03 461.094 1523.52 Q461.094 1525.65 460.284 1527.57 Q459.497 1529.47 457.39 1532.07 Q456.812 1532.74 453.71 1535.95 Q450.608 1539.15 444.96 1544.91 Z" fill="#000000" fill-rule="nonzero" fill-opacity="1" /><path clip-path="url(#clip090)" d="M795.293 1532.02 L824.969 1532.02 L824.969 1535.95 L795.293 1535.95 L795.293 1532.02 Z" fill="#000000" fill-rule="nonzero" fill-opacity="1" /><path clip-path="url(#clip090)" d="M835.872 1544.91 L843.51 1544.91 L843.51 1518.55 L835.2 1520.21 L835.2 1515.95 L843.464 1514.29 L848.14 1514.29 L848.14 1544.91 L855.779 1544.91 L855.779 1548.85 L835.872 1548.85 L835.872 1544.91 Z" fill="#000000" fill-rule="nonzero" fill-opacity="1" /><path clip-path="url(#clip090)" d="M1219.85 1517.37 Q1216.24 1517.37 1214.41 1520.93 Q1212.61 1524.47 1212.61 1531.6 Q1212.61 1538.71 1214.41 1542.27 Q1216.24 1545.82 1219.85 1545.82 Q1223.48 1545.82 1225.29 1542.27 Q1227.12 1538.71 1227.12 1531.6 Q1227.12 1524.47 1225.29 1520.93 Q1223.48 1517.37 1219.85 1517.37 M1219.85 1513.66 Q1225.66 1513.66 1228.72 1518.27 Q1231.79 1522.85 1231.79 1531.6 Q1231.79 1540.33 1228.72 1544.94 Q1225.66 1549.52 1219.85 1549.52 Q1214.04 1549.52 1210.96 1544.94 Q1207.91 1540.33 1207.91 1531.6 Q1207.91 1522.85 1210.96 1518.27 Q1214.04 1513.66 1219.85 1513.66 Z" fill="#000000" fill-rule="nonzero" fill-opacity="1" /><path clip-path="url(#clip090)" d="M1604.55 1544.91 L1612.19 1544.91 L1612.19 1518.55 L1603.88 1520.21 L1603.88 1515.95 L1612.14 1514.29 L1616.82 1514.29 L1616.82 1544.91 L1624.45 1544.91 L1624.45 1548.85 L1604.55 1548.85 L1604.55 1544.91 Z" fill="#000000" fill-rule="nonzero" fill-opacity="1" /><path clip-path="url(#clip090)" d="M2003.13 1544.91 L2019.45 1544.91 L2019.45 1548.85 L1997.51 1548.85 L1997.51 1544.91 Q2000.17 1542.16 2004.75 1537.53 Q2009.36 1532.88 2010.54 1531.53 Q2012.79 1529.01 2013.66 1527.27 Q2014.57 1525.51 2014.57 1523.82 Q2014.57 1521.07 2012.62 1519.33 Q2010.7 1517.6 2007.6 1517.6 Q2005.4 1517.6 2002.95 1518.36 Q2000.52 1519.13 1997.74 1520.68 L1997.74 1515.95 Q2000.56 1514.82 2003.02 1514.24 Q2005.47 1513.66 2007.51 1513.66 Q2012.88 1513.66 2016.07 1516.35 Q2019.27 1519.03 2019.27 1523.52 Q2019.27 1525.65 2018.46 1527.57 Q2017.67 1529.47 2015.56 1532.07 Q2014.98 1532.74 2011.88 1535.95 Q2008.78 1539.15 2003.13 1544.91 Z" fill="#000000" fill-rule="nonzero" fill-opacity="1" /><polyline clip-path="url(#clip090)" style="stroke:#000000; stroke-linecap:round; stroke-linejoin:round; stroke-width:4; stroke-opacity:1; fill:none" points="193.936,1486.45 193.936,47.2441 "/>
<polyline clip-path="url(#clip090)" style="stroke:#000000; stroke-linecap:round; stroke-linejoin:round; stroke-width:4; stroke-opacity:1; fill:none" points="193.936,1347.69 212.834,1347.69 "/>
<polyline clip-path="url(#clip090)" style="stroke:#000000; stroke-linecap:round; stroke-linejoin:round; stroke-width:4; stroke-opacity:1; fill:none" points="193.936,1153.58 212.834,1153.58 "/>
<polyline clip-path="url(#clip090)" style="stroke:#000000; stroke-linecap:round; stroke-linejoin:round; stroke-width:4; stroke-opacity:1; fill:none" points="193.936,959.47 212.834,959.47 "/>
<polyline clip-path="url(#clip090)" style="stroke:#000000; stroke-linecap:round; stroke-linejoin:round; stroke-width:4; stroke-opacity:1; fill:none" points="193.936,765.357 212.834,765.357 "/>
<polyline clip-path="url(#clip090)" style="stroke:#000000; stroke-linecap:round; stroke-linejoin:round; stroke-width:4; stroke-opacity:1; fill:none" points="193.936,571.245 212.834,571.245 "/>
<polyline clip-path="url(#clip090)" style="stroke:#000000; stroke-linecap:round; stroke-linejoin:round; stroke-width:4; stroke-opacity:1; fill:none" points="193.936,377.133 212.834,377.133 "/>
<polyline clip-path="url(#clip090)" style="stroke:#000000; stroke-linecap:round; stroke-linejoin:round; stroke-width:4; stroke-opacity:1; fill:none" points="193.936,183.021 212.834,183.021 "/>
<path clip-path="url(#clip090)" d="M51.9875 1348.15 L81.6633 1348.15 L81.6633 1352.08 L51.9875 1352.08 L51.9875 1348.15 Z" fill="#000000" fill-rule="nonzero" fill-opacity="1" /><path clip-path="url(#clip090)" d="M92.566 1361.04 L100.205 1361.04 L100.205 1334.67 L91.8947 1336.34 L91.8947 1332.08 L100.159 1330.41 L104.834 1330.41 L104.834 1361.04 L112.473 1361.04 L112.473 1364.97 L92.566 1364.97 L92.566 1361.04 Z" fill="#000000" fill-rule="nonzero" fill-opacity="1" /><path clip-path="url(#clip090)" d="M121.918 1359.09 L126.802 1359.09 L126.802 1364.97 L121.918 1364.97 L121.918 1359.09 Z" fill="#000000" fill-rule="nonzero" fill-opacity="1" /><path clip-path="url(#clip090)" d="M137.033 1330.41 L155.39 1330.41 L155.39 1334.35 L141.316 1334.35 L141.316 1342.82 Q142.334 1342.47 143.353 1342.31 Q144.371 1342.13 145.39 1342.13 Q151.177 1342.13 154.556 1345.3 Q157.936 1348.47 157.936 1353.89 Q157.936 1359.46 154.464 1362.57 Q150.992 1365.65 144.672 1365.65 Q142.496 1365.65 140.228 1365.27 Q137.982 1364.9 135.575 1364.16 L135.575 1359.46 Q137.658 1360.6 139.881 1361.15 Q142.103 1361.71 144.58 1361.71 Q148.584 1361.71 150.922 1359.6 Q153.26 1357.5 153.26 1353.89 Q153.26 1350.27 150.922 1348.17 Q148.584 1346.06 144.58 1346.06 Q142.705 1346.06 140.83 1346.48 Q138.978 1346.9 137.033 1347.77 L137.033 1330.41 Z" fill="#000000" fill-rule="nonzero" fill-opacity="1" /><path clip-path="url(#clip090)" d="M50.9921 1154.03 L80.6679 1154.03 L80.6679 1157.97 L50.9921 1157.97 L50.9921 1154.03 Z" fill="#000000" fill-rule="nonzero" fill-opacity="1" /><path clip-path="url(#clip090)" d="M91.5706 1166.93 L99.2095 1166.93 L99.2095 1140.56 L90.8993 1142.23 L90.8993 1137.97 L99.1632 1136.3 L103.839 1136.3 L103.839 1166.93 L111.478 1166.93 L111.478 1170.86 L91.5706 1170.86 L91.5706 1166.93 Z" fill="#000000" fill-rule="nonzero" fill-opacity="1" /><path clip-path="url(#clip090)" d="M120.922 1164.98 L125.807 1164.98 L125.807 1170.86 L120.922 1170.86 L120.922 1164.98 Z" fill="#000000" fill-rule="nonzero" fill-opacity="1" /><path clip-path="url(#clip090)" d="M145.992 1139.38 Q142.381 1139.38 140.552 1142.95 Q138.746 1146.49 138.746 1153.62 Q138.746 1160.72 140.552 1164.29 Q142.381 1167.83 145.992 1167.83 Q149.626 1167.83 151.431 1164.29 Q153.26 1160.72 153.26 1153.62 Q153.26 1146.49 151.431 1142.95 Q149.626 1139.38 145.992 1139.38 M145.992 1135.68 Q151.802 1135.68 154.857 1140.28 Q157.936 1144.87 157.936 1153.62 Q157.936 1162.34 154.857 1166.95 Q151.802 1171.53 145.992 1171.53 Q140.181 1171.53 137.103 1166.95 Q134.047 1162.34 134.047 1153.62 Q134.047 1144.87 137.103 1140.28 Q140.181 1135.68 145.992 1135.68 Z" fill="#000000" fill-rule="nonzero" fill-opacity="1" /><path clip-path="url(#clip090)" d="M51.9875 959.921 L81.6633 959.921 L81.6633 963.856 L51.9875 963.856 L51.9875 959.921 Z" fill="#000000" fill-rule="nonzero" fill-opacity="1" /><path clip-path="url(#clip090)" d="M101.756 945.268 Q98.1447 945.268 96.316 948.833 Q94.5104 952.375 94.5104 959.504 Q94.5104 966.611 96.316 970.175 Q98.1447 973.717 101.756 973.717 Q105.39 973.717 107.196 970.175 Q109.024 966.611 109.024 959.504 Q109.024 952.375 107.196 948.833 Q105.39 945.268 101.756 945.268 M101.756 941.565 Q107.566 941.565 110.621 946.171 Q113.7 950.754 113.7 959.504 Q113.7 968.231 110.621 972.837 Q107.566 977.421 101.756 977.421 Q95.9456 977.421 92.8669 972.837 Q89.8114 968.231 89.8114 959.504 Q89.8114 950.754 92.8669 946.171 Q95.9456 941.565 101.756 941.565 Z" fill="#000000" fill-rule="nonzero" fill-opacity="1" /><path clip-path="url(#clip090)" d="M121.918 970.87 L126.802 970.87 L126.802 976.75 L121.918 976.75 L121.918 970.87 Z" fill="#000000" fill-rule="nonzero" fill-opacity="1" /><path clip-path="url(#clip090)" d="M137.033 942.19 L155.39 942.19 L155.39 946.125 L141.316 946.125 L141.316 954.597 Q142.334 954.25 143.353 954.088 Q144.371 953.902 145.39 953.902 Q151.177 953.902 154.556 957.074 Q157.936 960.245 157.936 965.662 Q157.936 971.24 154.464 974.342 Q150.992 977.421 144.672 977.421 Q142.496 977.421 140.228 977.05 Q137.982 976.68 135.575 975.939 L135.575 971.24 Q137.658 972.375 139.881 972.93 Q142.103 973.486 144.58 973.486 Q148.584 973.486 150.922 971.379 Q153.26 969.273 153.26 965.662 Q153.26 962.051 150.922 959.944 Q148.584 957.838 144.58 957.838 Q142.705 957.838 140.83 958.254 Q138.978 958.671 137.033 959.551 L137.033 942.19 Z" fill="#000000" fill-rule="nonzero" fill-opacity="1" /><path clip-path="url(#clip090)" d="M100.76 751.156 Q97.1493 751.156 95.3206 754.721 Q93.515 758.262 93.515 765.392 Q93.515 772.498 95.3206 776.063 Q97.1493 779.605 100.76 779.605 Q104.395 779.605 106.2 776.063 Q108.029 772.498 108.029 765.392 Q108.029 758.262 106.2 754.721 Q104.395 751.156 100.76 751.156 M100.76 747.452 Q106.571 747.452 109.626 752.059 Q112.705 756.642 112.705 765.392 Q112.705 774.119 109.626 778.725 Q106.571 783.309 100.76 783.309 Q94.9502 783.309 91.8715 778.725 Q88.816 774.119 88.816 765.392 Q88.816 756.642 91.8715 752.059 Q94.9502 747.452 100.76 747.452 Z" fill="#000000" fill-rule="nonzero" fill-opacity="1" /><path clip-path="url(#clip090)" d="M120.922 776.758 L125.807 776.758 L125.807 782.637 L120.922 782.637 L120.922 776.758 Z" fill="#000000" fill-rule="nonzero" fill-opacity="1" /><path clip-path="url(#clip090)" d="M145.992 751.156 Q142.381 751.156 140.552 754.721 Q138.746 758.262 138.746 765.392 Q138.746 772.498 140.552 776.063 Q142.381 779.605 145.992 779.605 Q149.626 779.605 151.431 776.063 Q153.26 772.498 153.26 765.392 Q153.26 758.262 151.431 754.721 Q149.626 751.156 145.992 751.156 M145.992 747.452 Q151.802 747.452 154.857 752.059 Q157.936 756.642 157.936 765.392 Q157.936 774.119 154.857 778.725 Q151.802 783.309 145.992 783.309 Q140.181 783.309 137.103 778.725 Q134.047 774.119 134.047 765.392 Q134.047 756.642 137.103 752.059 Q140.181 747.452 145.992 747.452 Z" fill="#000000" fill-rule="nonzero" fill-opacity="1" /><path clip-path="url(#clip090)" d="M101.756 557.044 Q98.1447 557.044 96.316 560.609 Q94.5104 564.15 94.5104 571.28 Q94.5104 578.386 96.316 581.951 Q98.1447 585.493 101.756 585.493 Q105.39 585.493 107.196 581.951 Q109.024 578.386 109.024 571.28 Q109.024 564.15 107.196 560.609 Q105.39 557.044 101.756 557.044 M101.756 553.34 Q107.566 553.34 110.621 557.947 Q113.7 562.53 113.7 571.28 Q113.7 580.007 110.621 584.613 Q107.566 589.196 101.756 589.196 Q95.9456 589.196 92.8669 584.613 Q89.8114 580.007 89.8114 571.28 Q89.8114 562.53 92.8669 557.947 Q95.9456 553.34 101.756 553.34 Z" fill="#000000" fill-rule="nonzero" fill-opacity="1" /><path clip-path="url(#clip090)" d="M121.918 582.646 L126.802 582.646 L126.802 588.525 L121.918 588.525 L121.918 582.646 Z" fill="#000000" fill-rule="nonzero" fill-opacity="1" /><path clip-path="url(#clip090)" d="M137.033 553.965 L155.39 553.965 L155.39 557.9 L141.316 557.9 L141.316 566.373 Q142.334 566.025 143.353 565.863 Q144.371 565.678 145.39 565.678 Q151.177 565.678 154.556 568.849 Q157.936 572.021 157.936 577.437 Q157.936 583.016 154.464 586.118 Q150.992 589.196 144.672 589.196 Q142.496 589.196 140.228 588.826 Q137.982 588.456 135.575 587.715 L135.575 583.016 Q137.658 584.15 139.881 584.706 Q142.103 585.261 144.58 585.261 Q148.584 585.261 150.922 583.155 Q153.26 581.048 153.26 577.437 Q153.26 573.826 150.922 571.72 Q148.584 569.613 144.58 569.613 Q142.705 569.613 140.83 570.03 Q138.978 570.447 137.033 571.326 L137.033 553.965 Z" fill="#000000" fill-rule="nonzero" fill-opacity="1" /><path clip-path="url(#clip090)" d="M91.5706 390.478 L99.2095 390.478 L99.2095 364.112 L90.8993 365.779 L90.8993 361.52 L99.1632 359.853 L103.839 359.853 L103.839 390.478 L111.478 390.478 L111.478 394.413 L91.5706 394.413 L91.5706 390.478 Z" fill="#000000" fill-rule="nonzero" fill-opacity="1" /><path clip-path="url(#clip090)" d="M120.922 388.533 L125.807 388.533 L125.807 394.413 L120.922 394.413 L120.922 388.533 Z" fill="#000000" fill-rule="nonzero" fill-opacity="1" /><path clip-path="url(#clip090)" d="M145.992 362.932 Q142.381 362.932 140.552 366.496 Q138.746 370.038 138.746 377.168 Q138.746 384.274 140.552 387.839 Q142.381 391.381 145.992 391.381 Q149.626 391.381 151.431 387.839 Q153.26 384.274 153.26 377.168 Q153.26 370.038 151.431 366.496 Q149.626 362.932 145.992 362.932 M145.992 359.228 Q151.802 359.228 154.857 363.834 Q157.936 368.418 157.936 377.168 Q157.936 385.895 154.857 390.501 Q151.802 395.084 145.992 395.084 Q140.181 395.084 137.103 390.501 Q134.047 385.895 134.047 377.168 Q134.047 368.418 137.103 363.834 Q140.181 359.228 145.992 359.228 Z" fill="#000000" fill-rule="nonzero" fill-opacity="1" /><path clip-path="url(#clip090)" d="M92.566 196.366 L100.205 196.366 L100.205 170 L91.8947 171.667 L91.8947 167.407 L100.159 165.741 L104.834 165.741 L104.834 196.366 L112.473 196.366 L112.473 200.301 L92.566 200.301 L92.566 196.366 Z" fill="#000000" fill-rule="nonzero" fill-opacity="1" /><path clip-path="url(#clip090)" d="M121.918 194.421 L126.802 194.421 L126.802 200.301 L121.918 200.301 L121.918 194.421 Z" fill="#000000" fill-rule="nonzero" fill-opacity="1" /><path clip-path="url(#clip090)" d="M137.033 165.741 L155.39 165.741 L155.39 169.676 L141.316 169.676 L141.316 178.148 Q142.334 177.801 143.353 177.639 Q144.371 177.454 145.39 177.454 Q151.177 177.454 154.556 180.625 Q157.936 183.796 157.936 189.213 Q157.936 194.792 154.464 197.893 Q150.992 200.972 144.672 200.972 Q142.496 200.972 140.228 200.602 Q137.982 200.231 135.575 199.491 L135.575 194.792 Q137.658 195.926 139.881 196.481 Q142.103 197.037 144.58 197.037 Q148.584 197.037 150.922 194.93 Q153.26 192.824 153.26 189.213 Q153.26 185.602 150.922 183.495 Q148.584 181.389 144.58 181.389 Q142.705 181.389 140.83 181.806 Q138.978 182.222 137.033 183.102 L137.033 165.741 Z" fill="#000000" fill-rule="nonzero" fill-opacity="1" /><circle clip-path="url(#clip091)" cx="1905.07" cy="455.058" r="14.4" fill="#009af9" fill-rule="evenodd" fill-opacity="0.5" stroke="#000000" stroke-opacity="0.5" stroke-width="3.2"/>
<circle clip-path="url(#clip091)" cx="1025.15" cy="544.984" r="14.4" fill="#009af9" fill-rule="evenodd" fill-opacity="0.5" stroke="#000000" stroke-opacity="0.5" stroke-width="3.2"/>
<circle clip-path="url(#clip091)" cx="929.635" cy="404.898" r="14.4" fill="#009af9" fill-rule="evenodd" fill-opacity="0.5" stroke="#000000" stroke-opacity="0.5" stroke-width="3.2"/>
<circle clip-path="url(#clip091)" cx="1060.1" cy="200.766" r="14.4" fill="#009af9" fill-rule="evenodd" fill-opacity="0.5" stroke="#000000" stroke-opacity="0.5" stroke-width="3.2"/>
<circle clip-path="url(#clip091)" cx="812.445" cy="425.373" r="14.4" fill="#009af9" fill-rule="evenodd" fill-opacity="0.5" stroke="#000000" stroke-opacity="0.5" stroke-width="3.2"/>
<circle clip-path="url(#clip091)" cx="1130.31" cy="1167.95" r="14.4" fill="#009af9" fill-rule="evenodd" fill-opacity="0.5" stroke="#000000" stroke-opacity="0.5" stroke-width="3.2"/>
<circle clip-path="url(#clip091)" cx="1338.98" cy="286.779" r="14.4" fill="#009af9" fill-rule="evenodd" fill-opacity="0.5" stroke="#000000" stroke-opacity="0.5" stroke-width="3.2"/>
<circle clip-path="url(#clip091)" cx="2291.66" cy="773.729" r="14.4" fill="#009af9" fill-rule="evenodd" fill-opacity="0.5" stroke="#000000" stroke-opacity="0.5" stroke-width="3.2"/>
<circle clip-path="url(#clip091)" cx="1097.58" cy="789.178" r="14.4" fill="#009af9" fill-rule="evenodd" fill-opacity="0.5" stroke="#000000" stroke-opacity="0.5" stroke-width="3.2"/>
<circle clip-path="url(#clip091)" cx="1105.36" cy="1059.4" r="14.4" fill="#009af9" fill-rule="evenodd" fill-opacity="0.5" stroke="#000000" stroke-opacity="0.5" stroke-width="3.2"/>
<circle clip-path="url(#clip091)" cx="1668.87" cy="326.889" r="14.4" fill="#009af9" fill-rule="evenodd" fill-opacity="0.5" stroke="#000000" stroke-opacity="0.5" stroke-width="3.2"/>
<circle clip-path="url(#clip091)" cx="1188.41" cy="93.2581" r="14.4" fill="#009af9" fill-rule="evenodd" fill-opacity="0.5" stroke="#000000" stroke-opacity="0.5" stroke-width="3.2"/>
<circle clip-path="url(#clip091)" cx="626.764" cy="1296.29" r="14.4" fill="#009af9" fill-rule="evenodd" fill-opacity="0.5" stroke="#000000" stroke-opacity="0.5" stroke-width="3.2"/>
<circle clip-path="url(#clip091)" cx="1433.23" cy="1233.63" r="14.4" fill="#009af9" fill-rule="evenodd" fill-opacity="0.5" stroke="#000000" stroke-opacity="0.5" stroke-width="3.2"/>
<circle clip-path="url(#clip091)" cx="661.442" cy="855.726" r="14.4" fill="#009af9" fill-rule="evenodd" fill-opacity="0.5" stroke="#000000" stroke-opacity="0.5" stroke-width="3.2"/>
<circle clip-path="url(#clip091)" cx="1441.8" cy="1445.72" r="14.4" fill="#009af9" fill-rule="evenodd" fill-opacity="0.5" stroke="#000000" stroke-opacity="0.5" stroke-width="3.2"/>
<circle clip-path="url(#clip091)" cx="1333.19" cy="375.714" r="14.4" fill="#009af9" fill-rule="evenodd" fill-opacity="0.5" stroke="#000000" stroke-opacity="0.5" stroke-width="3.2"/>
<circle clip-path="url(#clip091)" cx="935.066" cy="721.475" r="14.4" fill="#009af9" fill-rule="evenodd" fill-opacity="0.5" stroke="#000000" stroke-opacity="0.5" stroke-width="3.2"/>
<circle clip-path="url(#clip091)" cx="913.783" cy="265.193" r="14.4" fill="#009af9" fill-rule="evenodd" fill-opacity="0.5" stroke="#000000" stroke-opacity="0.5" stroke-width="3.2"/>
<circle clip-path="url(#clip091)" cx="1254.62" cy="613.066" r="14.4" fill="#009af9" fill-rule="evenodd" fill-opacity="0.5" stroke="#000000" stroke-opacity="0.5" stroke-width="3.2"/>
<circle clip-path="url(#clip091)" cx="275.669" cy="656.742" r="14.4" fill="#009af9" fill-rule="evenodd" fill-opacity="0.5" stroke="#000000" stroke-opacity="0.5" stroke-width="3.2"/>
<circle clip-path="url(#clip091)" cx="255.035" cy="566.6" r="14.4" fill="#009af9" fill-rule="evenodd" fill-opacity="0.5" stroke="#000000" stroke-opacity="0.5" stroke-width="3.2"/>
<circle clip-path="url(#clip091)" cx="1144.22" cy="814.648" r="14.4" fill="#009af9" fill-rule="evenodd" fill-opacity="0.5" stroke="#000000" stroke-opacity="0.5" stroke-width="3.2"/>
<circle clip-path="url(#clip091)" cx="840.674" cy="987.914" r="14.4" fill="#009af9" fill-rule="evenodd" fill-opacity="0.5" stroke="#000000" stroke-opacity="0.5" stroke-width="3.2"/>
<circle clip-path="url(#clip091)" cx="1313.8" cy="144.681" r="14.4" fill="#009af9" fill-rule="evenodd" fill-opacity="0.5" stroke="#000000" stroke-opacity="0.5" stroke-width="3.2"/>
<circle clip-path="url(#clip091)" cx="1216.22" cy="607.278" r="14.4" fill="#009af9" fill-rule="evenodd" fill-opacity="0.5" stroke="#000000" stroke-opacity="0.5" stroke-width="3.2"/>
<circle clip-path="url(#clip091)" cx="1052.12" cy="229.203" r="14.4" fill="#009af9" fill-rule="evenodd" fill-opacity="0.5" stroke="#000000" stroke-opacity="0.5" stroke-width="3.2"/>
<circle clip-path="url(#clip091)" cx="1463.84" cy="87.9763" r="14.4" fill="#009af9" fill-rule="evenodd" fill-opacity="0.5" stroke="#000000" stroke-opacity="0.5" stroke-width="3.2"/>
<circle clip-path="url(#clip091)" cx="1503.22" cy="976.847" r="14.4" fill="#009af9" fill-rule="evenodd" fill-opacity="0.5" stroke="#000000" stroke-opacity="0.5" stroke-width="3.2"/>
<circle clip-path="url(#clip091)" cx="2233.07" cy="880.49" r="14.4" fill="#009af9" fill-rule="evenodd" fill-opacity="0.5" stroke="#000000" stroke-opacity="0.5" stroke-width="3.2"/>
<path clip-path="url(#clip091)" d="M255.035 566.6 L275.669 656.742 L626.764 1296.29 L1441.8 1445.72 L2233.07 880.49 L2291.66 773.729 L1463.84 87.9763 L1188.41 93.2581 L255.035 566.6 L255.035 566.6  Z" fill="#e26f46" fill-rule="evenodd" fill-opacity="0.2"/>
<polyline clip-path="url(#clip091)" style="stroke:#000000; stroke-linecap:round; stroke-linejoin:round; stroke-width:4; stroke-opacity:0.2; fill:none" points="255.035,566.6 275.669,656.742 626.764,1296.29 1441.8,1445.72 2233.07,880.49 2291.66,773.729 1463.84,87.9763 1188.41,93.2581 255.035,566.6 "/>
</svg>
