<?xml version="1.0" encoding="utf-8"?>
<svg xmlns="http://www.w3.org/2000/svg" xmlns:xlink="http://www.w3.org/1999/xlink" width="600" height="400" viewBox="0 0 2400 1600">
<defs>
  <clipPath id="clip780">
    <rect x="0" y="0" width="2400" height="1600"/>
  </clipPath>
</defs>
<path clip-path="url(#clip780)" d="M0 1600 L2400 1600 L2400 0 L0 0  Z" fill="#ffffff" fill-rule="evenodd" fill-opacity="1"/>
<defs>
  <clipPath id="clip781">
    <rect x="147" y="47" width="2206" height="1440"/>
  </clipPath>
</defs>
<path clip-path="url(#clip780)" d="M147.478 1486.45 L2352.76 1486.45 L2352.76 47.2441 L147.478 47.2441  Z" fill="#ffffff" fill-rule="evenodd" fill-opacity="1"/>
<polyline clip-path="url(#clip781)" style="stroke:#000000; stroke-linecap:round; stroke-linejoin:round; stroke-width:2; stroke-opacity:0.1; fill:none" points="355.542,1486.45 355.542,47.2441 "/>
<polyline clip-path="url(#clip781)" style="stroke:#000000; stroke-linecap:round; stroke-linejoin:round; stroke-width:2; stroke-opacity:0.1; fill:none" points="802.294,1486.45 802.294,47.2441 "/>
<polyline clip-path="url(#clip781)" style="stroke:#000000; stroke-linecap:round; stroke-linejoin:round; stroke-width:2; stroke-opacity:0.1; fill:none" points="1249.05,1486.45 1249.05,47.2441 "/>
<polyline clip-path="url(#clip781)" style="stroke:#000000; stroke-linecap:round; stroke-linejoin:round; stroke-width:2; stroke-opacity:0.1; fill:none" points="1695.8,1486.45 1695.8,47.2441 "/>
<polyline clip-path="url(#clip781)" style="stroke:#000000; stroke-linecap:round; stroke-linejoin:round; stroke-width:2; stroke-opacity:0.1; fill:none" points="2142.55,1486.45 2142.55,47.2441 "/>
<polyline clip-path="url(#clip781)" style="stroke:#000000; stroke-linecap:round; stroke-linejoin:round; stroke-width:2; stroke-opacity:0.1; fill:none" points="147.478,1333.87 2352.76,1333.87 "/>
<polyline clip-path="url(#clip781)" style="stroke:#000000; stroke-linecap:round; stroke-linejoin:round; stroke-width:2; stroke-opacity:0.1; fill:none" points="147.478,1020.16 2352.76,1020.16 "/>
<polyline clip-path="url(#clip781)" style="stroke:#000000; stroke-linecap:round; stroke-linejoin:round; stroke-width:2; stroke-opacity:0.1; fill:none" points="147.478,706.446 2352.76,706.446 "/>
<polyline clip-path="url(#clip781)" style="stroke:#000000; stroke-linecap:round; stroke-linejoin:round; stroke-width:2; stroke-opacity:0.1; fill:none" points="147.478,392.735 2352.76,392.735 "/>
<polyline clip-path="url(#clip781)" style="stroke:#000000; stroke-linecap:round; stroke-linejoin:round; stroke-width:2; stroke-opacity:0.1; fill:none" points="147.478,79.0239 2352.76,79.0239 "/>
<polyline clip-path="url(#clip780)" style="stroke:#000000; stroke-linecap:round; stroke-linejoin:round; stroke-width:4; stroke-opacity:1; fill:none" points="147.478,1486.45 2352.76,1486.45 "/>
<polyline clip-path="url(#clip780)" style="stroke:#000000; stroke-linecap:round; stroke-linejoin:round; stroke-width:4; stroke-opacity:1; fill:none" points="355.542,1486.45 355.542,1467.55 "/>
<polyline clip-path="url(#clip780)" style="stroke:#000000; stroke-linecap:round; stroke-linejoin:round; stroke-width:4; stroke-opacity:1; fill:none" points="802.294,1486.45 802.294,1467.55 "/>
<polyline clip-path="url(#clip780)" style="stroke:#000000; stroke-linecap:round; stroke-linejoin:round; stroke-width:4; stroke-opacity:1; fill:none" points="1249.05,1486.45 1249.05,1467.55 "/>
<polyline clip-path="url(#clip780)" style="stroke:#000000; stroke-linecap:round; stroke-linejoin:round; stroke-width:4; stroke-opacity:1; fill:none" points="1695.8,1486.45 1695.8,1467.55 "/>
<polyline clip-path="url(#clip780)" style="stroke:#000000; stroke-linecap:round; stroke-linejoin:round; stroke-width:4; stroke-opacity:1; fill:none" points="2142.55,1486.45 2142.55,1467.55 "/>
<path clip-path="url(#clip780)" d="M325.485 1532.02 L355.16 1532.02 L355.16 1535.95 L325.485 1535.95 L325.485 1532.02 Z" fill="#000000" fill-rule="nonzero" fill-opacity="1" /><path clip-path="url(#clip780)" d="M369.281 1544.91 L385.6 1544.91 L385.6 1548.85 L363.656 1548.85 L363.656 1544.91 Q366.318 1542.16 370.901 1537.53 Q375.507 1532.88 376.688 1531.53 Q378.933 1529.01 379.813 1527.27 Q380.716 1525.51 380.716 1523.82 Q380.716 1521.07 378.771 1519.33 Q376.85 1517.6 373.748 1517.6 Q371.549 1517.6 369.095 1518.36 Q366.665 1519.13 363.887 1520.68 L363.887 1515.95 Q366.711 1514.82 369.165 1514.24 Q371.619 1513.66 373.656 1513.66 Q379.026 1513.66 382.22 1516.35 Q385.415 1519.03 385.415 1523.52 Q385.415 1525.65 384.605 1527.57 Q383.818 1529.47 381.711 1532.07 Q381.132 1532.74 378.031 1535.95 Q374.929 1539.15 369.281 1544.91 Z" fill="#000000" fill-rule="nonzero" fill-opacity="1" /><path clip-path="url(#clip780)" d="M772.051 1532.02 L801.727 1532.02 L801.727 1535.95 L772.051 1535.95 L772.051 1532.02 Z" fill="#000000" fill-rule="nonzero" fill-opacity="1" /><path clip-path="url(#clip780)" d="M812.63 1544.91 L820.269 1544.91 L820.269 1518.55 L811.959 1520.21 L811.959 1515.95 L820.222 1514.29 L824.898 1514.29 L824.898 1544.91 L832.537 1544.91 L832.537 1548.85 L812.63 1548.85 L812.63 1544.91 Z" fill="#000000" fill-rule="nonzero" fill-opacity="1" /><path clip-path="url(#clip780)" d="M1249.05 1517.37 Q1245.44 1517.37 1243.61 1520.93 Q1241.8 1524.47 1241.8 1531.6 Q1241.8 1538.71 1243.61 1542.27 Q1245.44 1545.82 1249.05 1545.82 Q1252.68 1545.82 1254.49 1542.27 Q1256.31 1538.71 1256.31 1531.6 Q1256.31 1524.47 1254.49 1520.93 Q1252.68 1517.37 1249.05 1517.37 M1249.05 1513.66 Q1254.86 1513.66 1257.91 1518.27 Q1260.99 1522.85 1260.99 1531.6 Q1260.99 1540.33 1257.91 1544.94 Q1254.86 1549.52 1249.05 1549.52 Q1243.24 1549.52 1240.16 1544.94 Q1237.1 1540.33 1237.1 1531.6 Q1237.1 1522.85 1240.16 1518.27 Q1243.24 1513.66 1249.05 1513.66 Z" fill="#000000" fill-rule="nonzero" fill-opacity="1" /><path clip-path="url(#clip780)" d="M1686.18 1544.91 L1693.82 1544.91 L1693.82 1518.55 L1685.51 1520.21 L1685.51 1515.95 L1693.77 1514.29 L1698.45 1514.29 L1698.45 1544.91 L1706.09 1544.91 L1706.09 1548.85 L1686.18 1548.85 L1686.18 1544.91 Z" fill="#000000" fill-rule="nonzero" fill-opacity="1" /><path clip-path="url(#clip780)" d="M2137.2 1544.91 L2153.52 1544.91 L2153.52 1548.85 L2131.58 1548.85 L2131.58 1544.91 Q2134.24 1542.16 2138.82 1537.53 Q2143.43 1532.88 2144.61 1531.53 Q2146.86 1529.01 2147.74 1527.27 Q2148.64 1525.51 2148.64 1523.82 Q2148.64 1521.07 2146.69 1519.33 Q2144.77 1517.6 2141.67 1517.6 Q2139.47 1517.6 2137.02 1518.36 Q2134.59 1519.13 2131.81 1520.68 L2131.81 1515.95 Q2134.63 1514.82 2137.09 1514.24 Q2139.54 1513.66 2141.58 1513.66 Q2146.95 1513.66 2150.14 1516.35 Q2153.34 1519.03 2153.34 1523.52 Q2153.34 1525.65 2152.53 1527.57 Q2151.74 1529.47 2149.63 1532.07 Q2149.06 1532.74 2145.95 1535.95 Q2142.85 1539.15 2137.2 1544.91 Z" fill="#000000" fill-rule="nonzero" fill-opacity="1" /><polyline clip-path="url(#clip780)" style="stroke:#000000; stroke-linecap:round; stroke-linejoin:round; stroke-width:4; stroke-opacity:1; fill:none" points="147.478,1486.45 147.478,47.2441 "/>
<polyline clip-path="url(#clip780)" style="stroke:#000000; stroke-linecap:round; stroke-linejoin:round; stroke-width:4; stroke-opacity:1; fill:none" points="147.478,1333.87 166.376,1333.87 "/>
<polyline clip-path="url(#clip780)" style="stroke:#000000; stroke-linecap:round; stroke-linejoin:round; stroke-width:4; stroke-opacity:1; fill:none" points="147.478,1020.16 166.376,1020.16 "/>
<polyline clip-path="url(#clip780)" style="stroke:#000000; stroke-linecap:round; stroke-linejoin:round; stroke-width:4; stroke-opacity:1; fill:none" points="147.478,706.446 166.376,706.446 "/>
<polyline clip-path="url(#clip780)" style="stroke:#000000; stroke-linecap:round; stroke-linejoin:round; stroke-width:4; stroke-opacity:1; fill:none" points="147.478,392.735 166.376,392.735 "/>
<polyline clip-path="url(#clip780)" style="stroke:#000000; stroke-linecap:round; stroke-linejoin:round; stroke-width:4; stroke-opacity:1; fill:none" points="147.478,79.0239 166.376,79.0239 "/>
<path clip-path="url(#clip780)" d="M51.3625 1334.32 L81.0383 1334.32 L81.0383 1338.25 L51.3625 1338.25 L51.3625 1334.32 Z" fill="#000000" fill-rule="nonzero" fill-opacity="1" /><path clip-path="url(#clip780)" d="M95.1586 1347.21 L111.478 1347.21 L111.478 1351.15 L89.5336 1351.15 L89.5336 1347.21 Q92.1956 1344.46 96.7789 1339.83 Q101.385 1335.18 102.566 1333.83 Q104.811 1331.31 105.691 1329.57 Q106.594 1327.82 106.594 1326.13 Q106.594 1323.37 104.649 1321.63 Q102.728 1319.9 99.6261 1319.9 Q97.4271 1319.9 94.9734 1320.66 Q92.5428 1321.43 89.7651 1322.98 L89.7651 1318.25 Q92.5891 1317.12 95.0428 1316.54 Q97.4965 1315.96 99.5335 1315.96 Q104.904 1315.96 108.098 1318.65 Q111.293 1321.33 111.293 1325.82 Q111.293 1327.95 110.483 1329.88 Q109.696 1331.77 107.589 1334.37 Q107.01 1335.04 103.909 1338.25 Q100.807 1341.45 95.1586 1347.21 Z" fill="#000000" fill-rule="nonzero" fill-opacity="1" /><path clip-path="url(#clip780)" d="M50.9921 1020.61 L80.6679 1020.61 L80.6679 1024.54 L50.9921 1024.54 L50.9921 1020.61 Z" fill="#000000" fill-rule="nonzero" fill-opacity="1" /><path clip-path="url(#clip780)" d="M91.5706 1033.5 L99.2095 1033.5 L99.2095 1007.14 L90.8993 1008.8 L90.8993 1004.54 L99.1632 1002.88 L103.839 1002.88 L103.839 1033.5 L111.478 1033.5 L111.478 1037.44 L91.5706 1037.44 L91.5706 1033.5 Z" fill="#000000" fill-rule="nonzero" fill-opacity="1" /><path clip-path="url(#clip780)" d="M99.5335 692.245 Q95.9224 692.245 94.0937 695.81 Q92.2882 699.351 92.2882 706.481 Q92.2882 713.587 94.0937 717.152 Q95.9224 720.694 99.5335 720.694 Q103.168 720.694 104.973 717.152 Q106.802 713.587 106.802 706.481 Q106.802 699.351 104.973 695.81 Q103.168 692.245 99.5335 692.245 M99.5335 688.541 Q105.344 688.541 108.399 693.148 Q111.478 697.731 111.478 706.481 Q111.478 715.208 108.399 719.814 Q105.344 724.397 99.5335 724.397 Q93.7234 724.397 90.6447 719.814 Q87.5892 715.208 87.5892 706.481 Q87.5892 697.731 90.6447 693.148 Q93.7234 688.541 99.5335 688.541 Z" fill="#000000" fill-rule="nonzero" fill-opacity="1" /><path clip-path="url(#clip780)" d="M91.5706 406.08 L99.2095 406.08 L99.2095 379.714 L90.8993 381.381 L90.8993 377.122 L99.1632 375.455 L103.839 375.455 L103.839 406.08 L111.478 406.08 L111.478 410.015 L91.5706 410.015 L91.5706 406.08 Z" fill="#000000" fill-rule="nonzero" fill-opacity="1" /><path clip-path="url(#clip780)" d="M95.1586 92.3687 L111.478 92.3687 L111.478 96.3039 L89.5336 96.3039 L89.5336 92.3687 Q92.1956 89.6141 96.7789 84.9845 Q101.385 80.3317 102.566 78.9891 Q104.811 76.466 105.691 74.7299 Q106.594 72.9707 106.594 71.2809 Q106.594 68.5262 104.649 66.7901 Q102.728 65.054 99.6261 65.054 Q97.4271 65.054 94.9734 65.8179 Q92.5428 66.5818 89.7651 68.1327 L89.7651 63.4105 Q92.5891 62.2763 95.0428 61.6976 Q97.4965 61.1189 99.5335 61.1189 Q104.904 61.1189 108.098 63.804 Q111.293 66.4892 111.293 70.9799 Q111.293 73.1096 110.483 75.0308 Q109.696 76.929 107.589 79.5216 Q107.01 80.1928 103.909 83.4104 Q100.807 86.6048 95.1586 92.3687 Z" fill="#000000" fill-rule="nonzero" fill-opacity="1" /><circle clip-path="url(#clip781)" cx="2290.34" cy="902.306" r="14.4" fill="#009af9" fill-rule="evenodd" fill-opacity="0.5" stroke="#000000" stroke-opacity="0.5" stroke-width="3.2"/>
<circle clip-path="url(#clip781)" cx="1748.67" cy="341.471" r="14.4" fill="#009af9" fill-rule="evenodd" fill-opacity="0.5" stroke="#000000" stroke-opacity="0.5" stroke-width="3.2"/>
<circle clip-path="url(#clip781)" cx="1676.73" cy="961.642" r="14.4" fill="#009af9" fill-rule="evenodd" fill-opacity="0.5" stroke="#000000" stroke-opacity="0.5" stroke-width="3.2"/>
<circle clip-path="url(#clip781)" cx="1385.73" cy="401.552" r="14.4" fill="#009af9" fill-rule="evenodd" fill-opacity="0.5" stroke="#000000" stroke-opacity="0.5" stroke-width="3.2"/>
<circle clip-path="url(#clip781)" cx="1329.96" cy="226.155" r="14.4" fill="#009af9" fill-rule="evenodd" fill-opacity="0.5" stroke="#000000" stroke-opacity="0.5" stroke-width="3.2"/>
<circle clip-path="url(#clip781)" cx="519.835" cy="761.046" r="14.4" fill="#009af9" fill-rule="evenodd" fill-opacity="0.5" stroke="#000000" stroke-opacity="0.5" stroke-width="3.2"/>
<circle clip-path="url(#clip781)" cx="475.36" cy="420.516" r="14.4" fill="#009af9" fill-rule="evenodd" fill-opacity="0.5" stroke="#000000" stroke-opacity="0.5" stroke-width="3.2"/>
<circle clip-path="url(#clip781)" cx="1462.28" cy="92.525" r="14.4" fill="#009af9" fill-rule="evenodd" fill-opacity="0.5" stroke="#000000" stroke-opacity="0.5" stroke-width="3.2"/>
<circle clip-path="url(#clip781)" cx="1029.38" cy="559.289" r="14.4" fill="#009af9" fill-rule="evenodd" fill-opacity="0.5" stroke="#000000" stroke-opacity="0.5" stroke-width="3.2"/>
<circle clip-path="url(#clip781)" cx="1529.92" cy="147.467" r="14.4" fill="#009af9" fill-rule="evenodd" fill-opacity="0.5" stroke="#000000" stroke-opacity="0.5" stroke-width="3.2"/>
<circle clip-path="url(#clip781)" cx="502.758" cy="87.9763" r="14.4" fill="#009af9" fill-rule="evenodd" fill-opacity="0.5" stroke="#000000" stroke-opacity="0.5" stroke-width="3.2"/>
<circle clip-path="url(#clip781)" cx="1295.68" cy="967.242" r="14.4" fill="#009af9" fill-rule="evenodd" fill-opacity="0.5" stroke="#000000" stroke-opacity="0.5" stroke-width="3.2"/>
<circle clip-path="url(#clip781)" cx="1090.85" cy="1165.51" r="14.4" fill="#009af9" fill-rule="evenodd" fill-opacity="0.5" stroke="#000000" stroke-opacity="0.5" stroke-width="3.2"/>
<circle clip-path="url(#clip781)" cx="939.721" cy="883.297" r="14.4" fill="#009af9" fill-rule="evenodd" fill-opacity="0.5" stroke="#000000" stroke-opacity="0.5" stroke-width="3.2"/>
<circle clip-path="url(#clip781)" cx="1232.18" cy="944.23" r="14.4" fill="#009af9" fill-rule="evenodd" fill-opacity="0.5" stroke="#000000" stroke-opacity="0.5" stroke-width="3.2"/>
<circle clip-path="url(#clip781)" cx="1248.41" cy="564.759" r="14.4" fill="#009af9" fill-rule="evenodd" fill-opacity="0.5" stroke="#000000" stroke-opacity="0.5" stroke-width="3.2"/>
<circle clip-path="url(#clip781)" cx="1086.17" cy="989.69" r="14.4" fill="#009af9" fill-rule="evenodd" fill-opacity="0.5" stroke="#000000" stroke-opacity="0.5" stroke-width="3.2"/>
<circle clip-path="url(#clip781)" cx="1509.02" cy="280.295" r="14.4" fill="#009af9" fill-rule="evenodd" fill-opacity="0.5" stroke="#000000" stroke-opacity="0.5" stroke-width="3.2"/>
<circle clip-path="url(#clip781)" cx="209.891" cy="590.238" r="14.4" fill="#009af9" fill-rule="evenodd" fill-opacity="0.5" stroke="#000000" stroke-opacity="0.5" stroke-width="3.2"/>
<circle clip-path="url(#clip781)" cx="1015.1" cy="963.719" r="14.4" fill="#009af9" fill-rule="evenodd" fill-opacity="0.5" stroke="#000000" stroke-opacity="0.5" stroke-width="3.2"/>
<circle clip-path="url(#clip781)" cx="974.187" cy="585.422" r="14.4" fill="#009af9" fill-rule="evenodd" fill-opacity="0.5" stroke="#000000" stroke-opacity="0.5" stroke-width="3.2"/>
<circle clip-path="url(#clip781)" cx="1540.05" cy="971.715" r="14.4" fill="#009af9" fill-rule="evenodd" fill-opacity="0.5" stroke="#000000" stroke-opacity="0.5" stroke-width="3.2"/>
<circle clip-path="url(#clip781)" cx="1239.1" cy="178.255" r="14.4" fill="#009af9" fill-rule="evenodd" fill-opacity="0.5" stroke="#000000" stroke-opacity="0.5" stroke-width="3.2"/>
<circle clip-path="url(#clip781)" cx="881.932" cy="827.279" r="14.4" fill="#009af9" fill-rule="evenodd" fill-opacity="0.5" stroke="#000000" stroke-opacity="0.5" stroke-width="3.2"/>
<circle clip-path="url(#clip781)" cx="1404.65" cy="940.663" r="14.4" fill="#009af9" fill-rule="evenodd" fill-opacity="0.5" stroke="#000000" stroke-opacity="0.5" stroke-width="3.2"/>
<circle clip-path="url(#clip781)" cx="1095.22" cy="881.907" r="14.4" fill="#009af9" fill-rule="evenodd" fill-opacity="0.5" stroke="#000000" stroke-opacity="0.5" stroke-width="3.2"/>
<circle clip-path="url(#clip781)" cx="1714.2" cy="858.932" r="14.4" fill="#009af9" fill-rule="evenodd" fill-opacity="0.5" stroke="#000000" stroke-opacity="0.5" stroke-width="3.2"/>
<circle clip-path="url(#clip781)" cx="1025.84" cy="987.432" r="14.4" fill="#009af9" fill-rule="evenodd" fill-opacity="0.5" stroke="#000000" stroke-opacity="0.5" stroke-width="3.2"/>
<circle clip-path="url(#clip781)" cx="1478.78" cy="971.975" r="14.4" fill="#009af9" fill-rule="evenodd" fill-opacity="0.5" stroke="#000000" stroke-opacity="0.5" stroke-width="3.2"/>
<circle clip-path="url(#clip781)" cx="1539.02" cy="1445.72" r="14.4" fill="#009af9" fill-rule="evenodd" fill-opacity="0.5" stroke="#000000" stroke-opacity="0.5" stroke-width="3.2"/>
<path clip-path="url(#clip781)" d="M209.891 590.238 L1090.85 1165.51 L1539.02 1445.72 L2290.34 902.306 L1748.67 341.471 L1529.92 147.467 L1462.28 92.525 L502.758 87.9763 L209.891 590.238 L209.891 590.238  Z" fill="#e26f46" fill-rule="evenodd" fill-opacity="0.2"/>
<polyline clip-path="url(#clip781)" style="stroke:#000000; stroke-linecap:round; stroke-linejoin:round; stroke-width:4; stroke-opacity:0.2; fill:none" points="209.891,590.238 1090.85,1165.51 1539.02,1445.72 2290.34,902.306 1748.67,341.471 1529.92,147.467 1462.28,92.525 502.758,87.9763 209.891,590.238 "/>
</svg>
