<?xml version="1.0" encoding="utf-8"?>
<svg xmlns="http://www.w3.org/2000/svg" xmlns:xlink="http://www.w3.org/1999/xlink" width="600" height="400" viewBox="0 0 2400 1600">
<defs>
  <clipPath id="clip110">
    <rect x="0" y="0" width="2400" height="1600"/>
  </clipPath>
</defs>
<path clip-path="url(#clip110)" d="M0 1600 L2400 1600 L2400 0 L0 0  Z" fill="#ffffff" fill-rule="evenodd" fill-opacity="1"/>
<defs>
  <clipPath id="clip111">
    <rect x="147" y="47" width="2206" height="1440"/>
  </clipPath>
</defs>
<path clip-path="url(#clip110)" d="M147.478 1486.45 L2352.76 1486.45 L2352.76 47.2441 L147.478 47.2441  Z" fill="#ffffff" fill-rule="evenodd" fill-opacity="1"/>
<polyline clip-path="url(#clip111)" style="stroke:#000000; stroke-linecap:round; stroke-linejoin:round; stroke-width:2; stroke-opacity:0.1; fill:none" points="160.604,1486.45 160.604,47.2441 "/>
<polyline clip-path="url(#clip111)" style="stroke:#000000; stroke-linecap:round; stroke-linejoin:round; stroke-width:2; stroke-opacity:0.1; fill:none" points="690.407,1486.45 690.407,47.2441 "/>
<polyline clip-path="url(#clip111)" style="stroke:#000000; stroke-linecap:round; stroke-linejoin:round; stroke-width:2; stroke-opacity:0.1; fill:none" points="1220.21,1486.45 1220.21,47.2441 "/>
<polyline clip-path="url(#clip111)" style="stroke:#000000; stroke-linecap:round; stroke-linejoin:round; stroke-width:2; stroke-opacity:0.1; fill:none" points="1750.01,1486.45 1750.01,47.2441 "/>
<polyline clip-path="url(#clip111)" style="stroke:#000000; stroke-linecap:round; stroke-linejoin:round; stroke-width:2; stroke-opacity:0.1; fill:none" points="2279.81,1486.45 2279.81,47.2441 "/>
<polyline clip-path="url(#clip111)" style="stroke:#000000; stroke-linecap:round; stroke-linejoin:round; stroke-width:2; stroke-opacity:0.1; fill:none" points="147.478,1325.44 2352.76,1325.44 "/>
<polyline clip-path="url(#clip111)" style="stroke:#000000; stroke-linecap:round; stroke-linejoin:round; stroke-width:2; stroke-opacity:0.1; fill:none" points="147.478,951.615 2352.76,951.615 "/>
<polyline clip-path="url(#clip111)" style="stroke:#000000; stroke-linecap:round; stroke-linejoin:round; stroke-width:2; stroke-opacity:0.1; fill:none" points="147.478,577.792 2352.76,577.792 "/>
<polyline clip-path="url(#clip111)" style="stroke:#000000; stroke-linecap:round; stroke-linejoin:round; stroke-width:2; stroke-opacity:0.1; fill:none" points="147.478,203.969 2352.76,203.969 "/>
<polyline clip-path="url(#clip110)" style="stroke:#000000; stroke-linecap:round; stroke-linejoin:round; stroke-width:4; stroke-opacity:1; fill:none" points="147.478,1486.45 2352.76,1486.45 "/>
<polyline clip-path="url(#clip110)" style="stroke:#000000; stroke-linecap:round; stroke-linejoin:round; stroke-width:4; stroke-opacity:1; fill:none" points="160.604,1486.45 160.604,1467.55 "/>
<polyline clip-path="url(#clip110)" style="stroke:#000000; stroke-linecap:round; stroke-linejoin:round; stroke-width:4; stroke-opacity:1; fill:none" points="690.407,1486.45 690.407,1467.55 "/>
<polyline clip-path="url(#clip110)" style="stroke:#000000; stroke-linecap:round; stroke-linejoin:round; stroke-width:4; stroke-opacity:1; fill:none" points="1220.21,1486.45 1220.21,1467.55 "/>
<polyline clip-path="url(#clip110)" style="stroke:#000000; stroke-linecap:round; stroke-linejoin:round; stroke-width:4; stroke-opacity:1; fill:none" points="1750.01,1486.45 1750.01,1467.55 "/>
<polyline clip-path="url(#clip110)" style="stroke:#000000; stroke-linecap:round; stroke-linejoin:round; stroke-width:4; stroke-opacity:1; fill:none" points="2279.81,1486.45 2279.81,1467.55 "/>
<path clip-path="url(#clip110)" d="M130.547 1532.02 L160.223 1532.02 L160.223 1535.95 L130.547 1535.95 L130.547 1532.02 Z" fill="#000000" fill-rule="nonzero" fill-opacity="1" /><path clip-path="url(#clip110)" d="M174.343 1544.91 L190.662 1544.91 L190.662 1548.85 L168.718 1548.85 L168.718 1544.91 Q171.38 1542.16 175.963 1537.53 Q180.57 1532.88 181.75 1531.53 Q183.996 1529.01 184.875 1527.27 Q185.778 1525.51 185.778 1523.82 Q185.778 1521.07 183.834 1519.33 Q181.912 1517.6 178.81 1517.6 Q176.611 1517.6 174.158 1518.36 Q171.727 1519.13 168.949 1520.68 L168.949 1515.95 Q171.773 1514.82 174.227 1514.24 Q176.681 1513.66 178.718 1513.66 Q184.088 1513.66 187.283 1516.35 Q190.477 1519.03 190.477 1523.52 Q190.477 1525.65 189.667 1527.57 Q188.88 1529.47 186.773 1532.07 Q186.195 1532.74 183.093 1535.95 Q179.991 1539.15 174.343 1544.91 Z" fill="#000000" fill-rule="nonzero" fill-opacity="1" /><path clip-path="url(#clip110)" d="M660.164 1532.02 L689.839 1532.02 L689.839 1535.95 L660.164 1535.95 L660.164 1532.02 Z" fill="#000000" fill-rule="nonzero" fill-opacity="1" /><path clip-path="url(#clip110)" d="M700.742 1544.91 L708.381 1544.91 L708.381 1518.55 L700.071 1520.21 L700.071 1515.95 L708.335 1514.29 L713.011 1514.29 L713.011 1544.91 L720.649 1544.91 L720.649 1548.85 L700.742 1548.85 L700.742 1544.91 Z" fill="#000000" fill-rule="nonzero" fill-opacity="1" /><path clip-path="url(#clip110)" d="M1220.21 1517.37 Q1216.6 1517.37 1214.77 1520.93 Q1212.96 1524.47 1212.96 1531.6 Q1212.96 1538.71 1214.77 1542.27 Q1216.6 1545.82 1220.21 1545.82 Q1223.84 1545.82 1225.65 1542.27 Q1227.48 1538.71 1227.48 1531.6 Q1227.48 1524.47 1225.65 1520.93 Q1223.84 1517.37 1220.21 1517.37 M1220.21 1513.66 Q1226.02 1513.66 1229.07 1518.27 Q1232.15 1522.85 1232.15 1531.6 Q1232.15 1540.33 1229.07 1544.94 Q1226.02 1549.52 1220.21 1549.52 Q1214.4 1549.52 1211.32 1544.94 Q1208.26 1540.33 1208.26 1531.6 Q1208.26 1522.85 1211.32 1518.27 Q1214.4 1513.66 1220.21 1513.66 Z" fill="#000000" fill-rule="nonzero" fill-opacity="1" /><path clip-path="url(#clip110)" d="M1740.39 1544.91 L1748.03 1544.91 L1748.03 1518.55 L1739.72 1520.21 L1739.72 1515.95 L1747.99 1514.29 L1752.66 1514.29 L1752.66 1544.91 L1760.3 1544.91 L1760.3 1548.85 L1740.39 1548.85 L1740.39 1544.91 Z" fill="#000000" fill-rule="nonzero" fill-opacity="1" /><path clip-path="url(#clip110)" d="M2274.47 1544.91 L2290.78 1544.91 L2290.78 1548.85 L2268.84 1548.85 L2268.84 1544.91 Q2271.5 1542.16 2276.09 1537.53 Q2280.69 1532.88 2281.87 1531.53 Q2284.12 1529.01 2285 1527.27 Q2285.9 1525.51 2285.9 1523.82 Q2285.9 1521.07 2283.96 1519.33 Q2282.04 1517.6 2278.93 1517.6 Q2276.73 1517.6 2274.28 1518.36 Q2271.85 1519.13 2269.07 1520.68 L2269.07 1515.95 Q2271.9 1514.82 2274.35 1514.24 Q2276.8 1513.66 2278.84 1513.66 Q2284.21 1513.66 2287.41 1516.35 Q2290.6 1519.03 2290.6 1523.52 Q2290.6 1525.65 2289.79 1527.57 Q2289 1529.47 2286.9 1532.07 Q2286.32 1532.74 2283.22 1535.95 Q2280.11 1539.15 2274.47 1544.91 Z" fill="#000000" fill-rule="nonzero" fill-opacity="1" /><polyline clip-path="url(#clip110)" style="stroke:#000000; stroke-linecap:round; stroke-linejoin:round; stroke-width:4; stroke-opacity:1; fill:none" points="147.478,1486.45 147.478,47.2441 "/>
<polyline clip-path="url(#clip110)" style="stroke:#000000; stroke-linecap:round; stroke-linejoin:round; stroke-width:4; stroke-opacity:1; fill:none" points="147.478,1325.44 166.376,1325.44 "/>
<polyline clip-path="url(#clip110)" style="stroke:#000000; stroke-linecap:round; stroke-linejoin:round; stroke-width:4; stroke-opacity:1; fill:none" points="147.478,951.615 166.376,951.615 "/>
<polyline clip-path="url(#clip110)" style="stroke:#000000; stroke-linecap:round; stroke-linejoin:round; stroke-width:4; stroke-opacity:1; fill:none" points="147.478,577.792 166.376,577.792 "/>
<polyline clip-path="url(#clip110)" style="stroke:#000000; stroke-linecap:round; stroke-linejoin:round; stroke-width:4; stroke-opacity:1; fill:none" points="147.478,203.969 166.376,203.969 "/>
<path clip-path="url(#clip110)" d="M51.3625 1325.89 L81.0383 1325.89 L81.0383 1329.82 L51.3625 1329.82 L51.3625 1325.89 Z" fill="#000000" fill-rule="nonzero" fill-opacity="1" /><path clip-path="url(#clip110)" d="M95.1586 1338.78 L111.478 1338.78 L111.478 1342.72 L89.5336 1342.72 L89.5336 1338.78 Q92.1956 1336.03 96.7789 1331.4 Q101.385 1326.75 102.566 1325.4 Q104.811 1322.88 105.691 1321.14 Q106.594 1319.38 106.594 1317.69 Q106.594 1314.94 104.649 1313.2 Q102.728 1311.47 99.6261 1311.47 Q97.4271 1311.47 94.9734 1312.23 Q92.5428 1313 89.7651 1314.55 L89.7651 1309.82 Q92.5891 1308.69 95.0428 1308.11 Q97.4965 1307.53 99.5335 1307.53 Q104.904 1307.53 108.098 1310.22 Q111.293 1312.9 111.293 1317.39 Q111.293 1319.52 110.483 1321.44 Q109.696 1323.34 107.589 1325.94 Q107.01 1326.61 103.909 1329.82 Q100.807 1333.02 95.1586 1338.78 Z" fill="#000000" fill-rule="nonzero" fill-opacity="1" /><path clip-path="url(#clip110)" d="M50.9921 952.066 L80.6679 952.066 L80.6679 956.001 L50.9921 956.001 L50.9921 952.066 Z" fill="#000000" fill-rule="nonzero" fill-opacity="1" /><path clip-path="url(#clip110)" d="M91.5706 964.96 L99.2095 964.96 L99.2095 938.594 L90.8993 940.261 L90.8993 936.002 L99.1632 934.335 L103.839 934.335 L103.839 964.96 L111.478 964.96 L111.478 968.895 L91.5706 968.895 L91.5706 964.96 Z" fill="#000000" fill-rule="nonzero" fill-opacity="1" /><path clip-path="url(#clip110)" d="M99.5335 563.591 Q95.9224 563.591 94.0937 567.155 Q92.2882 570.697 92.2882 577.827 Q92.2882 584.933 94.0937 588.498 Q95.9224 592.039 99.5335 592.039 Q103.168 592.039 104.973 588.498 Q106.802 584.933 106.802 577.827 Q106.802 570.697 104.973 567.155 Q103.168 563.591 99.5335 563.591 M99.5335 559.887 Q105.344 559.887 108.399 564.493 Q111.478 569.077 111.478 577.827 Q111.478 586.553 108.399 591.16 Q105.344 595.743 99.5335 595.743 Q93.7234 595.743 90.6447 591.16 Q87.5892 586.553 87.5892 577.827 Q87.5892 569.077 90.6447 564.493 Q93.7234 559.887 99.5335 559.887 Z" fill="#000000" fill-rule="nonzero" fill-opacity="1" /><path clip-path="url(#clip110)" d="M91.5706 217.314 L99.2095 217.314 L99.2095 190.948 L90.8993 192.615 L90.8993 188.355 L99.1632 186.689 L103.839 186.689 L103.839 217.314 L111.478 217.314 L111.478 221.249 L91.5706 221.249 L91.5706 217.314 Z" fill="#000000" fill-rule="nonzero" fill-opacity="1" /><circle clip-path="url(#clip111)" cx="511.032" cy="493.487" r="14.4" fill="#009af9" fill-rule="evenodd" fill-opacity="0.5" stroke="#000000" stroke-opacity="0.5" stroke-width="3.2"/>
<circle clip-path="url(#clip111)" cx="1393.98" cy="376.951" r="14.4" fill="#009af9" fill-rule="evenodd" fill-opacity="0.5" stroke="#000000" stroke-opacity="0.5" stroke-width="3.2"/>
<circle clip-path="url(#clip111)" cx="1599.73" cy="432.375" r="14.4" fill="#009af9" fill-rule="evenodd" fill-opacity="0.5" stroke="#000000" stroke-opacity="0.5" stroke-width="3.2"/>
<circle clip-path="url(#clip111)" cx="1276.43" cy="635.379" r="14.4" fill="#009af9" fill-rule="evenodd" fill-opacity="0.5" stroke="#000000" stroke-opacity="0.5" stroke-width="3.2"/>
<circle clip-path="url(#clip111)" cx="944.754" cy="413.439" r="14.4" fill="#009af9" fill-rule="evenodd" fill-opacity="0.5" stroke="#000000" stroke-opacity="0.5" stroke-width="3.2"/>
<circle clip-path="url(#clip111)" cx="1515.05" cy="694.123" r="14.4" fill="#009af9" fill-rule="evenodd" fill-opacity="0.5" stroke="#000000" stroke-opacity="0.5" stroke-width="3.2"/>
<circle clip-path="url(#clip111)" cx="1260.44" cy="545.164" r="14.4" fill="#009af9" fill-rule="evenodd" fill-opacity="0.5" stroke="#000000" stroke-opacity="0.5" stroke-width="3.2"/>
<circle clip-path="url(#clip111)" cx="560.817" cy="689.534" r="14.4" fill="#009af9" fill-rule="evenodd" fill-opacity="0.5" stroke="#000000" stroke-opacity="0.5" stroke-width="3.2"/>
<circle clip-path="url(#clip111)" cx="892.976" cy="618.263" r="14.4" fill="#009af9" fill-rule="evenodd" fill-opacity="0.5" stroke="#000000" stroke-opacity="0.5" stroke-width="3.2"/>
<circle clip-path="url(#clip111)" cx="1146.56" cy="598.798" r="14.4" fill="#009af9" fill-rule="evenodd" fill-opacity="0.5" stroke="#000000" stroke-opacity="0.5" stroke-width="3.2"/>
<circle clip-path="url(#clip111)" cx="1453.15" cy="850.519" r="14.4" fill="#009af9" fill-rule="evenodd" fill-opacity="0.5" stroke="#000000" stroke-opacity="0.5" stroke-width="3.2"/>
<circle clip-path="url(#clip111)" cx="2290.34" cy="1445.72" r="14.4" fill="#009af9" fill-rule="evenodd" fill-opacity="0.5" stroke="#000000" stroke-opacity="0.5" stroke-width="3.2"/>
<circle clip-path="url(#clip111)" cx="2059.34" cy="217.029" r="14.4" fill="#009af9" fill-rule="evenodd" fill-opacity="0.5" stroke="#000000" stroke-opacity="0.5" stroke-width="3.2"/>
<circle clip-path="url(#clip111)" cx="1767.05" cy="782.647" r="14.4" fill="#009af9" fill-rule="evenodd" fill-opacity="0.5" stroke="#000000" stroke-opacity="0.5" stroke-width="3.2"/>
<circle clip-path="url(#clip111)" cx="642.801" cy="442.805" r="14.4" fill="#009af9" fill-rule="evenodd" fill-opacity="0.5" stroke="#000000" stroke-opacity="0.5" stroke-width="3.2"/>
<circle clip-path="url(#clip111)" cx="1371.49" cy="900.176" r="14.4" fill="#009af9" fill-rule="evenodd" fill-opacity="0.5" stroke="#000000" stroke-opacity="0.5" stroke-width="3.2"/>
<circle clip-path="url(#clip111)" cx="564.014" cy="1385.15" r="14.4" fill="#009af9" fill-rule="evenodd" fill-opacity="0.5" stroke="#000000" stroke-opacity="0.5" stroke-width="3.2"/>
<circle clip-path="url(#clip111)" cx="745.468" cy="87.9763" r="14.4" fill="#009af9" fill-rule="evenodd" fill-opacity="0.5" stroke="#000000" stroke-opacity="0.5" stroke-width="3.2"/>
<circle clip-path="url(#clip111)" cx="1076.45" cy="714.394" r="14.4" fill="#009af9" fill-rule="evenodd" fill-opacity="0.5" stroke="#000000" stroke-opacity="0.5" stroke-width="3.2"/>
<circle clip-path="url(#clip111)" cx="654.497" cy="827.267" r="14.4" fill="#009af9" fill-rule="evenodd" fill-opacity="0.5" stroke="#000000" stroke-opacity="0.5" stroke-width="3.2"/>
<circle clip-path="url(#clip111)" cx="1002.49" cy="1148.52" r="14.4" fill="#009af9" fill-rule="evenodd" fill-opacity="0.5" stroke="#000000" stroke-opacity="0.5" stroke-width="3.2"/>
<circle clip-path="url(#clip111)" cx="1505.06" cy="1210.46" r="14.4" fill="#009af9" fill-rule="evenodd" fill-opacity="0.5" stroke="#000000" stroke-opacity="0.5" stroke-width="3.2"/>
<circle clip-path="url(#clip111)" cx="921.715" cy="1213.96" r="14.4" fill="#009af9" fill-rule="evenodd" fill-opacity="0.5" stroke="#000000" stroke-opacity="0.5" stroke-width="3.2"/>
<circle clip-path="url(#clip111)" cx="1674.16" cy="456.599" r="14.4" fill="#009af9" fill-rule="evenodd" fill-opacity="0.5" stroke="#000000" stroke-opacity="0.5" stroke-width="3.2"/>
<circle clip-path="url(#clip111)" cx="268.658" cy="1279.34" r="14.4" fill="#009af9" fill-rule="evenodd" fill-opacity="0.5" stroke="#000000" stroke-opacity="0.5" stroke-width="3.2"/>
<circle clip-path="url(#clip111)" cx="908.141" cy="123.726" r="14.4" fill="#009af9" fill-rule="evenodd" fill-opacity="0.5" stroke="#000000" stroke-opacity="0.5" stroke-width="3.2"/>
<circle clip-path="url(#clip111)" cx="1496.7" cy="243.537" r="14.4" fill="#009af9" fill-rule="evenodd" fill-opacity="0.5" stroke="#000000" stroke-opacity="0.5" stroke-width="3.2"/>
<circle clip-path="url(#clip111)" cx="209.891" cy="375.112" r="14.4" fill="#009af9" fill-rule="evenodd" fill-opacity="0.5" stroke="#000000" stroke-opacity="0.5" stroke-width="3.2"/>
<circle clip-path="url(#clip111)" cx="1287.54" cy="356.358" r="14.4" fill="#009af9" fill-rule="evenodd" fill-opacity="0.5" stroke="#000000" stroke-opacity="0.5" stroke-width="3.2"/>
<circle clip-path="url(#clip111)" cx="591.721" cy="717.085" r="14.4" fill="#009af9" fill-rule="evenodd" fill-opacity="0.5" stroke="#000000" stroke-opacity="0.5" stroke-width="3.2"/>
<path clip-path="url(#clip111)" d="M209.891 375.112 L268.658 1279.34 L564.014 1385.15 L2290.34 1445.72 L2059.34 217.029 L745.468 87.9763 L209.891 375.112 L209.891 375.112  Z" fill="#e26f46" fill-rule="evenodd" fill-opacity="0.2"/>
<polyline clip-path="url(#clip111)" style="stroke:#000000; stroke-linecap:round; stroke-linejoin:round; stroke-width:4; stroke-opacity:0.2; fill:none" points="209.891,375.112 268.658,1279.34 564.014,1385.15 2290.34,1445.72 2059.34,217.029 745.468,87.9763 209.891,375.112 "/>
</svg>
