<?xml version="1.0" encoding="utf-8"?>
<svg xmlns="http://www.w3.org/2000/svg" xmlns:xlink="http://www.w3.org/1999/xlink" width="600" height="400" viewBox="0 0 2400 1600">
<defs>
  <clipPath id="clip520">
    <rect x="0" y="0" width="2400" height="1600"/>
  </clipPath>
</defs>
<path clip-path="url(#clip520)" d="M0 1600 L2400 1600 L2400 0 L0 0  Z" fill="#ffffff" fill-rule="evenodd" fill-opacity="1"/>
<defs>
  <clipPath id="clip521">
    <rect x="480" y="0" width="1681" height="1600"/>
  </clipPath>
</defs>
<path clip-path="url(#clip520)" d="M147.478 1486.45 L2352.76 1486.45 L2352.76 47.2441 L147.478 47.2441  Z" fill="#ffffff" fill-rule="evenodd" fill-opacity="1"/>
<defs>
  <clipPath id="clip522">
    <rect x="147" y="47" width="2206" height="1440"/>
  </clipPath>
</defs>
<polyline clip-path="url(#clip522)" style="stroke:#000000; stroke-linecap:round; stroke-linejoin:round; stroke-width:2; stroke-opacity:0.1; fill:none" points="378.519,1486.45 378.519,47.2441 "/>
<polyline clip-path="url(#clip522)" style="stroke:#000000; stroke-linecap:round; stroke-linejoin:round; stroke-width:2; stroke-opacity:0.1; fill:none" points="1009.96,1486.45 1009.96,47.2441 "/>
<polyline clip-path="url(#clip522)" style="stroke:#000000; stroke-linecap:round; stroke-linejoin:round; stroke-width:2; stroke-opacity:0.1; fill:none" points="1641.4,1486.45 1641.4,47.2441 "/>
<polyline clip-path="url(#clip522)" style="stroke:#000000; stroke-linecap:round; stroke-linejoin:round; stroke-width:2; stroke-opacity:0.1; fill:none" points="2272.84,1486.45 2272.84,47.2441 "/>
<polyline clip-path="url(#clip522)" style="stroke:#000000; stroke-linecap:round; stroke-linejoin:round; stroke-width:2; stroke-opacity:0.1; fill:none" points="147.478,1326.34 2352.76,1326.34 "/>
<polyline clip-path="url(#clip522)" style="stroke:#000000; stroke-linecap:round; stroke-linejoin:round; stroke-width:2; stroke-opacity:0.1; fill:none" points="147.478,1000.04 2352.76,1000.04 "/>
<polyline clip-path="url(#clip522)" style="stroke:#000000; stroke-linecap:round; stroke-linejoin:round; stroke-width:2; stroke-opacity:0.1; fill:none" points="147.478,673.748 2352.76,673.748 "/>
<polyline clip-path="url(#clip522)" style="stroke:#000000; stroke-linecap:round; stroke-linejoin:round; stroke-width:2; stroke-opacity:0.1; fill:none" points="147.478,347.453 2352.76,347.453 "/>
<polyline clip-path="url(#clip520)" style="stroke:#000000; stroke-linecap:round; stroke-linejoin:round; stroke-width:4; stroke-opacity:1; fill:none" points="147.478,1486.45 2352.76,1486.45 "/>
<polyline clip-path="url(#clip520)" style="stroke:#000000; stroke-linecap:round; stroke-linejoin:round; stroke-width:4; stroke-opacity:1; fill:none" points="378.519,1486.45 378.519,1467.55 "/>
<polyline clip-path="url(#clip520)" style="stroke:#000000; stroke-linecap:round; stroke-linejoin:round; stroke-width:4; stroke-opacity:1; fill:none" points="1009.96,1486.45 1009.96,1467.55 "/>
<polyline clip-path="url(#clip520)" style="stroke:#000000; stroke-linecap:round; stroke-linejoin:round; stroke-width:4; stroke-opacity:1; fill:none" points="1641.4,1486.45 1641.4,1467.55 "/>
<polyline clip-path="url(#clip520)" style="stroke:#000000; stroke-linecap:round; stroke-linejoin:round; stroke-width:4; stroke-opacity:1; fill:none" points="2272.84,1486.45 2272.84,1467.55 "/>
<path clip-path="url(#clip520)" d="M348.276 1532.02 L377.952 1532.02 L377.952 1535.95 L348.276 1535.95 L348.276 1532.02 Z" fill="#000000" fill-rule="nonzero" fill-opacity="1" /><path clip-path="url(#clip520)" d="M388.855 1544.91 L396.493 1544.91 L396.493 1518.55 L388.183 1520.21 L388.183 1515.95 L396.447 1514.29 L401.123 1514.29 L401.123 1544.91 L408.762 1544.91 L408.762 1548.85 L388.855 1548.85 L388.855 1544.91 Z" fill="#000000" fill-rule="nonzero" fill-opacity="1" /><path clip-path="url(#clip520)" d="M1009.96 1517.37 Q1006.35 1517.37 1004.52 1520.93 Q1002.72 1524.47 1002.72 1531.6 Q1002.72 1538.71 1004.52 1542.27 Q1006.35 1545.82 1009.96 1545.82 Q1013.6 1545.82 1015.4 1542.27 Q1017.23 1538.71 1017.23 1531.6 Q1017.23 1524.47 1015.4 1520.93 Q1013.6 1517.37 1009.96 1517.37 M1009.96 1513.66 Q1015.77 1513.66 1018.83 1518.27 Q1021.91 1522.85 1021.91 1531.6 Q1021.91 1540.33 1018.83 1544.94 Q1015.77 1549.52 1009.96 1549.52 Q1004.15 1549.52 1001.07 1544.94 Q998.016 1540.33 998.016 1531.6 Q998.016 1522.85 1001.07 1518.27 Q1004.15 1513.66 1009.96 1513.66 Z" fill="#000000" fill-rule="nonzero" fill-opacity="1" /><path clip-path="url(#clip520)" d="M1631.78 1544.91 L1639.42 1544.91 L1639.42 1518.55 L1631.11 1520.21 L1631.11 1515.95 L1639.38 1514.29 L1644.05 1514.29 L1644.05 1544.91 L1651.69 1544.91 L1651.69 1548.85 L1631.78 1548.85 L1631.78 1544.91 Z" fill="#000000" fill-rule="nonzero" fill-opacity="1" /><path clip-path="url(#clip520)" d="M2267.5 1544.91 L2283.82 1544.91 L2283.82 1548.85 L2261.87 1548.85 L2261.87 1544.91 Q2264.53 1542.16 2269.12 1537.53 Q2273.72 1532.88 2274.9 1531.53 Q2277.15 1529.01 2278.03 1527.27 Q2278.93 1525.51 2278.93 1523.82 Q2278.93 1521.07 2276.99 1519.33 Q2275.07 1517.6 2271.96 1517.6 Q2269.77 1517.6 2267.31 1518.36 Q2264.88 1519.13 2262.1 1520.68 L2262.1 1515.95 Q2264.93 1514.82 2267.38 1514.24 Q2269.84 1513.66 2271.87 1513.66 Q2277.24 1513.66 2280.44 1516.35 Q2283.63 1519.03 2283.63 1523.52 Q2283.63 1525.65 2282.82 1527.57 Q2282.03 1529.47 2279.93 1532.07 Q2279.35 1532.74 2276.25 1535.95 Q2273.15 1539.15 2267.5 1544.91 Z" fill="#000000" fill-rule="nonzero" fill-opacity="1" /><polyline clip-path="url(#clip520)" style="stroke:#000000; stroke-linecap:round; stroke-linejoin:round; stroke-width:4; stroke-opacity:1; fill:none" points="147.478,1486.45 147.478,47.2441 "/>
<polyline clip-path="url(#clip520)" style="stroke:#000000; stroke-linecap:round; stroke-linejoin:round; stroke-width:4; stroke-opacity:1; fill:none" points="147.478,1326.34 166.376,1326.34 "/>
<polyline clip-path="url(#clip520)" style="stroke:#000000; stroke-linecap:round; stroke-linejoin:round; stroke-width:4; stroke-opacity:1; fill:none" points="147.478,1000.04 166.376,1000.04 "/>
<polyline clip-path="url(#clip520)" style="stroke:#000000; stroke-linecap:round; stroke-linejoin:round; stroke-width:4; stroke-opacity:1; fill:none" points="147.478,673.748 166.376,673.748 "/>
<polyline clip-path="url(#clip520)" style="stroke:#000000; stroke-linecap:round; stroke-linejoin:round; stroke-width:4; stroke-opacity:1; fill:none" points="147.478,347.453 166.376,347.453 "/>
<path clip-path="url(#clip520)" d="M51.3625 1326.79 L81.0383 1326.79 L81.0383 1330.72 L51.3625 1330.72 L51.3625 1326.79 Z" fill="#000000" fill-rule="nonzero" fill-opacity="1" /><path clip-path="url(#clip520)" d="M95.1586 1339.68 L111.478 1339.68 L111.478 1343.62 L89.5336 1343.62 L89.5336 1339.68 Q92.1956 1336.93 96.7789 1332.3 Q101.385 1327.65 102.566 1326.3 Q104.811 1323.78 105.691 1322.04 Q106.594 1320.29 106.594 1318.6 Q106.594 1315.84 104.649 1314.1 Q102.728 1312.37 99.6261 1312.37 Q97.4271 1312.37 94.9734 1313.13 Q92.5428 1313.9 89.7651 1315.45 L89.7651 1310.73 Q92.5891 1309.59 95.0428 1309.01 Q97.4965 1308.43 99.5335 1308.43 Q104.904 1308.43 108.098 1311.12 Q111.293 1313.8 111.293 1318.29 Q111.293 1320.42 110.483 1322.35 Q109.696 1324.24 107.589 1326.84 Q107.01 1327.51 103.909 1330.72 Q100.807 1333.92 95.1586 1339.68 Z" fill="#000000" fill-rule="nonzero" fill-opacity="1" /><path clip-path="url(#clip520)" d="M50.9921 1000.49 L80.6679 1000.49 L80.6679 1004.43 L50.9921 1004.43 L50.9921 1000.49 Z" fill="#000000" fill-rule="nonzero" fill-opacity="1" /><path clip-path="url(#clip520)" d="M91.5706 1013.39 L99.2095 1013.39 L99.2095 987.022 L90.8993 988.689 L90.8993 984.43 L99.1632 982.763 L103.839 982.763 L103.839 1013.39 L111.478 1013.39 L111.478 1017.32 L91.5706 1017.32 L91.5706 1013.39 Z" fill="#000000" fill-rule="nonzero" fill-opacity="1" /><path clip-path="url(#clip520)" d="M99.5335 659.547 Q95.9224 659.547 94.0937 663.111 Q92.2882 666.653 92.2882 673.783 Q92.2882 680.889 94.0937 684.454 Q95.9224 687.996 99.5335 687.996 Q103.168 687.996 104.973 684.454 Q106.802 680.889 106.802 673.783 Q106.802 666.653 104.973 663.111 Q103.168 659.547 99.5335 659.547 M99.5335 655.843 Q105.344 655.843 108.399 660.449 Q111.478 665.033 111.478 673.783 Q111.478 682.51 108.399 687.116 Q105.344 691.699 99.5335 691.699 Q93.7234 691.699 90.6447 687.116 Q87.5892 682.51 87.5892 673.783 Q87.5892 665.033 90.6447 660.449 Q93.7234 655.843 99.5335 655.843 Z" fill="#000000" fill-rule="nonzero" fill-opacity="1" /><path clip-path="url(#clip520)" d="M91.5706 360.798 L99.2095 360.798 L99.2095 334.432 L90.8993 336.099 L90.8993 331.839 L99.1632 330.173 L103.839 330.173 L103.839 360.798 L111.478 360.798 L111.478 364.733 L91.5706 364.733 L91.5706 360.798 Z" fill="#000000" fill-rule="nonzero" fill-opacity="1" /><circle clip-path="url(#clip522)" cx="236.893" cy="745.524" r="14.4" fill="#009af9" fill-rule="evenodd" fill-opacity="0.5" stroke="#000000" stroke-opacity="0.5" stroke-width="3.2"/>
<circle clip-path="url(#clip522)" cx="994.141" cy="496.544" r="14.4" fill="#009af9" fill-rule="evenodd" fill-opacity="0.5" stroke="#000000" stroke-opacity="0.5" stroke-width="3.2"/>
<circle clip-path="url(#clip522)" cx="999.376" cy="606.918" r="14.4" fill="#009af9" fill-rule="evenodd" fill-opacity="0.5" stroke="#000000" stroke-opacity="0.5" stroke-width="3.2"/>
<circle clip-path="url(#clip522)" cx="1383.78" cy="623.944" r="14.4" fill="#009af9" fill-rule="evenodd" fill-opacity="0.5" stroke="#000000" stroke-opacity="0.5" stroke-width="3.2"/>
<circle clip-path="url(#clip522)" cx="1517.03" cy="503.593" r="14.4" fill="#009af9" fill-rule="evenodd" fill-opacity="0.5" stroke="#000000" stroke-opacity="0.5" stroke-width="3.2"/>
<circle clip-path="url(#clip522)" cx="797.37" cy="578.253" r="14.4" fill="#009af9" fill-rule="evenodd" fill-opacity="0.5" stroke="#000000" stroke-opacity="0.5" stroke-width="3.2"/>
<circle clip-path="url(#clip522)" cx="1250.49" cy="349.191" r="14.4" fill="#009af9" fill-rule="evenodd" fill-opacity="0.5" stroke="#000000" stroke-opacity="0.5" stroke-width="3.2"/>
<circle clip-path="url(#clip522)" cx="916.285" cy="835.116" r="14.4" fill="#009af9" fill-rule="evenodd" fill-opacity="0.5" stroke="#000000" stroke-opacity="0.5" stroke-width="3.2"/>
<circle clip-path="url(#clip522)" cx="1193.22" cy="1009.42" r="14.4" fill="#009af9" fill-rule="evenodd" fill-opacity="0.5" stroke="#000000" stroke-opacity="0.5" stroke-width="3.2"/>
<circle clip-path="url(#clip522)" cx="611.418" cy="1177.16" r="14.4" fill="#009af9" fill-rule="evenodd" fill-opacity="0.5" stroke="#000000" stroke-opacity="0.5" stroke-width="3.2"/>
<circle clip-path="url(#clip522)" cx="2035.31" cy="87.9763" r="14.4" fill="#009af9" fill-rule="evenodd" fill-opacity="0.5" stroke="#000000" stroke-opacity="0.5" stroke-width="3.2"/>
<circle clip-path="url(#clip522)" cx="1845.37" cy="639.368" r="14.4" fill="#009af9" fill-rule="evenodd" fill-opacity="0.5" stroke="#000000" stroke-opacity="0.5" stroke-width="3.2"/>
<circle clip-path="url(#clip522)" cx="1538.57" cy="907.387" r="14.4" fill="#009af9" fill-rule="evenodd" fill-opacity="0.5" stroke="#000000" stroke-opacity="0.5" stroke-width="3.2"/>
<circle clip-path="url(#clip522)" cx="2236.66" cy="1175.83" r="14.4" fill="#009af9" fill-rule="evenodd" fill-opacity="0.5" stroke="#000000" stroke-opacity="0.5" stroke-width="3.2"/>
<circle clip-path="url(#clip522)" cx="1560.44" cy="1025.28" r="14.4" fill="#009af9" fill-rule="evenodd" fill-opacity="0.5" stroke="#000000" stroke-opacity="0.5" stroke-width="3.2"/>
<circle clip-path="url(#clip522)" cx="744.624" cy="767.241" r="14.4" fill="#009af9" fill-rule="evenodd" fill-opacity="0.5" stroke="#000000" stroke-opacity="0.5" stroke-width="3.2"/>
<circle clip-path="url(#clip522)" cx="1577.26" cy="377.929" r="14.4" fill="#009af9" fill-rule="evenodd" fill-opacity="0.5" stroke="#000000" stroke-opacity="0.5" stroke-width="3.2"/>
<circle clip-path="url(#clip522)" cx="1023.06" cy="833.861" r="14.4" fill="#009af9" fill-rule="evenodd" fill-opacity="0.5" stroke="#000000" stroke-opacity="0.5" stroke-width="3.2"/>
<circle clip-path="url(#clip522)" cx="1630.6" cy="650.438" r="14.4" fill="#009af9" fill-rule="evenodd" fill-opacity="0.5" stroke="#000000" stroke-opacity="0.5" stroke-width="3.2"/>
<circle clip-path="url(#clip522)" cx="2288.24" cy="1445.72" r="14.4" fill="#009af9" fill-rule="evenodd" fill-opacity="0.5" stroke="#000000" stroke-opacity="0.5" stroke-width="3.2"/>
<circle clip-path="url(#clip522)" cx="1847.61" cy="947.668" r="14.4" fill="#009af9" fill-rule="evenodd" fill-opacity="0.5" stroke="#000000" stroke-opacity="0.5" stroke-width="3.2"/>
<circle clip-path="url(#clip522)" cx="718.808" cy="768.641" r="14.4" fill="#009af9" fill-rule="evenodd" fill-opacity="0.5" stroke="#000000" stroke-opacity="0.5" stroke-width="3.2"/>
<circle clip-path="url(#clip522)" cx="2290.34" cy="792.419" r="14.4" fill="#009af9" fill-rule="evenodd" fill-opacity="0.5" stroke="#000000" stroke-opacity="0.5" stroke-width="3.2"/>
<circle clip-path="url(#clip522)" cx="209.891" cy="590.18" r="14.4" fill="#009af9" fill-rule="evenodd" fill-opacity="0.5" stroke="#000000" stroke-opacity="0.5" stroke-width="3.2"/>
<circle clip-path="url(#clip522)" cx="2031.31" cy="126.73" r="14.4" fill="#009af9" fill-rule="evenodd" fill-opacity="0.5" stroke="#000000" stroke-opacity="0.5" stroke-width="3.2"/>
<circle clip-path="url(#clip522)" cx="1515.37" cy="832.563" r="14.4" fill="#009af9" fill-rule="evenodd" fill-opacity="0.5" stroke="#000000" stroke-opacity="0.5" stroke-width="3.2"/>
<circle clip-path="url(#clip522)" cx="691.826" cy="677.073" r="14.4" fill="#009af9" fill-rule="evenodd" fill-opacity="0.5" stroke="#000000" stroke-opacity="0.5" stroke-width="3.2"/>
<circle clip-path="url(#clip522)" cx="1578.54" cy="765.229" r="14.4" fill="#009af9" fill-rule="evenodd" fill-opacity="0.5" stroke="#000000" stroke-opacity="0.5" stroke-width="3.2"/>
<circle clip-path="url(#clip522)" cx="1477.61" cy="772.446" r="14.4" fill="#009af9" fill-rule="evenodd" fill-opacity="0.5" stroke="#000000" stroke-opacity="0.5" stroke-width="3.2"/>
<circle clip-path="url(#clip522)" cx="403.154" cy="701.64" r="14.4" fill="#009af9" fill-rule="evenodd" fill-opacity="0.5" stroke="#000000" stroke-opacity="0.5" stroke-width="3.2"/>
<path clip-path="url(#clip522)" d="M209.891 590.18 L236.893 745.524 L611.418 1177.16 L2288.24 1445.72 L2290.34 792.419 L2035.31 87.9763 L209.891 590.18 L209.891 590.18  Z" fill="#e26f46" fill-rule="evenodd" fill-opacity="0.2"/>
<polyline clip-path="url(#clip522)" style="stroke:#000000; stroke-linecap:round; stroke-linejoin:round; stroke-width:4; stroke-opacity:0.2; fill:none" points="209.891,590.18 236.893,745.524 611.418,1177.16 2288.24,1445.72 2290.34,792.419 2035.31,87.9763 209.891,590.18 "/>
</svg>
