<?xml version="1.0" encoding="utf-8"?>
<svg xmlns="http://www.w3.org/2000/svg" xmlns:xlink="http://www.w3.org/1999/xlink" width="600" height="400" viewBox="0 0 2400 1600">
<defs>
  <clipPath id="clip500">
    <rect x="0" y="0" width="2400" height="1600"/>
  </clipPath>
</defs>
<path clip-path="url(#clip500)" d="M0 1600 L2400 1600 L2400 0 L0 0  Z" fill="#ffffff" fill-rule="evenodd" fill-opacity="1"/>
<defs>
  <clipPath id="clip501">
    <rect x="480" y="0" width="1681" height="1600"/>
  </clipPath>
</defs>
<path clip-path="url(#clip500)" d="M147.478 1486.45 L2352.76 1486.45 L2352.76 47.2441 L147.478 47.2441  Z" fill="#ffffff" fill-rule="evenodd" fill-opacity="1"/>
<defs>
  <clipPath id="clip502">
    <rect x="147" y="47" width="2206" height="1440"/>
  </clipPath>
</defs>
<polyline clip-path="url(#clip502)" style="stroke:#000000; stroke-linecap:round; stroke-linejoin:round; stroke-width:2; stroke-opacity:0.1; fill:none" points="222.838,1486.45 222.838,47.2441 "/>
<polyline clip-path="url(#clip502)" style="stroke:#000000; stroke-linecap:round; stroke-linejoin:round; stroke-width:2; stroke-opacity:0.1; fill:none" points="751.082,1486.45 751.082,47.2441 "/>
<polyline clip-path="url(#clip502)" style="stroke:#000000; stroke-linecap:round; stroke-linejoin:round; stroke-width:2; stroke-opacity:0.1; fill:none" points="1279.33,1486.45 1279.33,47.2441 "/>
<polyline clip-path="url(#clip502)" style="stroke:#000000; stroke-linecap:round; stroke-linejoin:round; stroke-width:2; stroke-opacity:0.1; fill:none" points="1807.57,1486.45 1807.57,47.2441 "/>
<polyline clip-path="url(#clip502)" style="stroke:#000000; stroke-linecap:round; stroke-linejoin:round; stroke-width:2; stroke-opacity:0.1; fill:none" points="2335.81,1486.45 2335.81,47.2441 "/>
<polyline clip-path="url(#clip500)" style="stroke:#000000; stroke-linecap:round; stroke-linejoin:round; stroke-width:4; stroke-opacity:1; fill:none" points="147.478,1486.45 2352.76,1486.45 "/>
<polyline clip-path="url(#clip500)" style="stroke:#000000; stroke-linecap:round; stroke-linejoin:round; stroke-width:4; stroke-opacity:1; fill:none" points="222.838,1486.45 222.838,1467.55 "/>
<polyline clip-path="url(#clip500)" style="stroke:#000000; stroke-linecap:round; stroke-linejoin:round; stroke-width:4; stroke-opacity:1; fill:none" points="751.082,1486.45 751.082,1467.55 "/>
<polyline clip-path="url(#clip500)" style="stroke:#000000; stroke-linecap:round; stroke-linejoin:round; stroke-width:4; stroke-opacity:1; fill:none" points="1279.33,1486.45 1279.33,1467.55 "/>
<polyline clip-path="url(#clip500)" style="stroke:#000000; stroke-linecap:round; stroke-linejoin:round; stroke-width:4; stroke-opacity:1; fill:none" points="1807.57,1486.45 1807.57,1467.55 "/>
<polyline clip-path="url(#clip500)" style="stroke:#000000; stroke-linecap:round; stroke-linejoin:round; stroke-width:4; stroke-opacity:1; fill:none" points="2335.81,1486.45 2335.81,1467.55 "/>
<path clip-path="url(#clip500)" d="M192.781 1532.02 L222.456 1532.02 L222.456 1535.95 L192.781 1535.95 L192.781 1532.02 Z" fill="#000000" fill-rule="nonzero" fill-opacity="1" /><path clip-path="url(#clip500)" d="M236.577 1544.91 L252.896 1544.91 L252.896 1548.85 L230.952 1548.85 L230.952 1544.91 Q233.614 1542.16 238.197 1537.53 Q242.803 1532.88 243.984 1531.53 Q246.229 1529.01 247.109 1527.27 Q248.012 1525.51 248.012 1523.82 Q248.012 1521.07 246.067 1519.33 Q244.146 1517.6 241.044 1517.6 Q238.845 1517.6 236.391 1518.36 Q233.961 1519.13 231.183 1520.68 L231.183 1515.95 Q234.007 1514.82 236.461 1514.24 Q238.915 1513.66 240.952 1513.66 Q246.322 1513.66 249.516 1516.35 Q252.711 1519.03 252.711 1523.52 Q252.711 1525.65 251.901 1527.57 Q251.114 1529.47 249.007 1532.07 Q248.428 1532.74 245.327 1535.95 Q242.225 1539.15 236.577 1544.91 Z" fill="#000000" fill-rule="nonzero" fill-opacity="1" /><path clip-path="url(#clip500)" d="M720.839 1532.02 L750.515 1532.02 L750.515 1535.95 L720.839 1535.95 L720.839 1532.02 Z" fill="#000000" fill-rule="nonzero" fill-opacity="1" /><path clip-path="url(#clip500)" d="M761.418 1544.91 L769.057 1544.91 L769.057 1518.55 L760.747 1520.21 L760.747 1515.95 L769.01 1514.29 L773.686 1514.29 L773.686 1544.91 L781.325 1544.91 L781.325 1548.85 L761.418 1548.85 L761.418 1544.91 Z" fill="#000000" fill-rule="nonzero" fill-opacity="1" /><path clip-path="url(#clip500)" d="M1279.33 1517.37 Q1275.72 1517.37 1273.89 1520.93 Q1272.08 1524.47 1272.08 1531.6 Q1272.08 1538.71 1273.89 1542.27 Q1275.72 1545.82 1279.33 1545.82 Q1282.96 1545.82 1284.77 1542.27 Q1286.59 1538.71 1286.59 1531.6 Q1286.59 1524.47 1284.77 1520.93 Q1282.96 1517.37 1279.33 1517.37 M1279.33 1513.66 Q1285.14 1513.66 1288.19 1518.27 Q1291.27 1522.85 1291.27 1531.6 Q1291.27 1540.33 1288.19 1544.94 Q1285.14 1549.52 1279.33 1549.52 Q1273.52 1549.52 1270.44 1544.94 Q1267.38 1540.33 1267.38 1531.6 Q1267.38 1522.85 1270.44 1518.27 Q1273.52 1513.66 1279.33 1513.66 Z" fill="#000000" fill-rule="nonzero" fill-opacity="1" /><path clip-path="url(#clip500)" d="M1797.95 1544.91 L1805.59 1544.91 L1805.59 1518.55 L1797.28 1520.21 L1797.28 1515.95 L1805.54 1514.29 L1810.22 1514.29 L1810.22 1544.91 L1817.86 1544.91 L1817.86 1548.85 L1797.95 1548.85 L1797.95 1544.91 Z" fill="#000000" fill-rule="nonzero" fill-opacity="1" /><path clip-path="url(#clip500)" d="M2330.47 1544.91 L2346.79 1544.91 L2346.79 1548.85 L2324.84 1548.85 L2324.84 1544.91 Q2327.5 1542.16 2332.09 1537.53 Q2336.69 1532.88 2337.87 1531.53 Q2340.12 1529.01 2341 1527.27 Q2341.9 1525.51 2341.9 1523.82 Q2341.9 1521.07 2339.96 1519.33 Q2338.04 1517.6 2334.93 1517.6 Q2332.74 1517.6 2330.28 1518.36 Q2327.85 1519.13 2325.07 1520.68 L2325.07 1515.95 Q2327.9 1514.82 2330.35 1514.24 Q2332.81 1513.66 2334.84 1513.66 Q2340.21 1513.66 2343.41 1516.35 Q2346.6 1519.03 2346.6 1523.52 Q2346.6 1525.65 2345.79 1527.57 Q2345 1529.47 2342.9 1532.07 Q2342.32 1532.74 2339.22 1535.95 Q2336.12 1539.15 2330.47 1544.91 Z" fill="#000000" fill-rule="nonzero" fill-opacity="1" /><polyline clip-path="url(#clip502)" style="stroke:#000000; stroke-linecap:round; stroke-linejoin:round; stroke-width:2; stroke-opacity:0.1; fill:none" points="147.478,1376.64 2352.76,1376.64 "/>
<polyline clip-path="url(#clip502)" style="stroke:#000000; stroke-linecap:round; stroke-linejoin:round; stroke-width:2; stroke-opacity:0.1; fill:none" points="147.478,960.948 2352.76,960.948 "/>
<polyline clip-path="url(#clip502)" style="stroke:#000000; stroke-linecap:round; stroke-linejoin:round; stroke-width:2; stroke-opacity:0.1; fill:none" points="147.478,545.261 2352.76,545.261 "/>
<polyline clip-path="url(#clip502)" style="stroke:#000000; stroke-linecap:round; stroke-linejoin:round; stroke-width:2; stroke-opacity:0.1; fill:none" points="147.478,129.574 2352.76,129.574 "/>
<polyline clip-path="url(#clip500)" style="stroke:#000000; stroke-linecap:round; stroke-linejoin:round; stroke-width:4; stroke-opacity:1; fill:none" points="147.478,1486.45 147.478,47.2441 "/>
<polyline clip-path="url(#clip500)" style="stroke:#000000; stroke-linecap:round; stroke-linejoin:round; stroke-width:4; stroke-opacity:1; fill:none" points="147.478,1376.64 166.376,1376.64 "/>
<polyline clip-path="url(#clip500)" style="stroke:#000000; stroke-linecap:round; stroke-linejoin:round; stroke-width:4; stroke-opacity:1; fill:none" points="147.478,960.948 166.376,960.948 "/>
<polyline clip-path="url(#clip500)" style="stroke:#000000; stroke-linecap:round; stroke-linejoin:round; stroke-width:4; stroke-opacity:1; fill:none" points="147.478,545.261 166.376,545.261 "/>
<polyline clip-path="url(#clip500)" style="stroke:#000000; stroke-linecap:round; stroke-linejoin:round; stroke-width:4; stroke-opacity:1; fill:none" points="147.478,129.574 166.376,129.574 "/>
<path clip-path="url(#clip500)" d="M50.9921 1377.09 L80.6679 1377.09 L80.6679 1381.02 L50.9921 1381.02 L50.9921 1377.09 Z" fill="#000000" fill-rule="nonzero" fill-opacity="1" /><path clip-path="url(#clip500)" d="M91.5706 1389.98 L99.2095 1389.98 L99.2095 1363.61 L90.8993 1365.28 L90.8993 1361.02 L99.1632 1359.36 L103.839 1359.36 L103.839 1389.98 L111.478 1389.98 L111.478 1393.92 L91.5706 1393.92 L91.5706 1389.98 Z" fill="#000000" fill-rule="nonzero" fill-opacity="1" /><path clip-path="url(#clip500)" d="M99.5335 946.747 Q95.9224 946.747 94.0937 950.312 Q92.2882 953.853 92.2882 960.983 Q92.2882 968.089 94.0937 971.654 Q95.9224 975.196 99.5335 975.196 Q103.168 975.196 104.973 971.654 Q106.802 968.089 106.802 960.983 Q106.802 953.853 104.973 950.312 Q103.168 946.747 99.5335 946.747 M99.5335 943.043 Q105.344 943.043 108.399 947.65 Q111.478 952.233 111.478 960.983 Q111.478 969.71 108.399 974.316 Q105.344 978.899 99.5335 978.899 Q93.7234 978.899 90.6447 974.316 Q87.5892 969.71 87.5892 960.983 Q87.5892 952.233 90.6447 947.65 Q93.7234 943.043 99.5335 943.043 Z" fill="#000000" fill-rule="nonzero" fill-opacity="1" /><path clip-path="url(#clip500)" d="M91.5706 558.606 L99.2095 558.606 L99.2095 532.24 L90.8993 533.907 L90.8993 529.648 L99.1632 527.981 L103.839 527.981 L103.839 558.606 L111.478 558.606 L111.478 562.541 L91.5706 562.541 L91.5706 558.606 Z" fill="#000000" fill-rule="nonzero" fill-opacity="1" /><path clip-path="url(#clip500)" d="M95.1586 142.919 L111.478 142.919 L111.478 146.854 L89.5336 146.854 L89.5336 142.919 Q92.1956 140.164 96.7789 135.534 Q101.385 130.882 102.566 129.539 Q104.811 127.016 105.691 125.28 Q106.594 123.521 106.594 121.831 Q106.594 119.076 104.649 117.34 Q102.728 115.604 99.6261 115.604 Q97.4271 115.604 94.9734 116.368 Q92.5428 117.132 89.7651 118.683 L89.7651 113.96 Q92.5891 112.826 95.0428 112.248 Q97.4965 111.669 99.5335 111.669 Q104.904 111.669 108.098 114.354 Q111.293 117.039 111.293 121.53 Q111.293 123.659 110.483 125.581 Q109.696 127.479 107.589 130.071 Q107.01 130.743 103.909 133.96 Q100.807 137.155 95.1586 142.919 Z" fill="#000000" fill-rule="nonzero" fill-opacity="1" /><circle clip-path="url(#clip502)" cx="1441.67" cy="986.283" r="14.4" fill="#009af9" fill-rule="evenodd" fill-opacity="0.5" stroke="#000000" stroke-opacity="0.5" stroke-width="3.2"/>
<circle clip-path="url(#clip502)" cx="1534.6" cy="927.317" r="14.4" fill="#009af9" fill-rule="evenodd" fill-opacity="0.5" stroke="#000000" stroke-opacity="0.5" stroke-width="3.2"/>
<circle clip-path="url(#clip502)" cx="672.4" cy="1158.16" r="14.4" fill="#009af9" fill-rule="evenodd" fill-opacity="0.5" stroke="#000000" stroke-opacity="0.5" stroke-width="3.2"/>
<circle clip-path="url(#clip502)" cx="1201.51" cy="410.897" r="14.4" fill="#009af9" fill-rule="evenodd" fill-opacity="0.5" stroke="#000000" stroke-opacity="0.5" stroke-width="3.2"/>
<circle clip-path="url(#clip502)" cx="1005.93" cy="953.017" r="14.4" fill="#009af9" fill-rule="evenodd" fill-opacity="0.5" stroke="#000000" stroke-opacity="0.5" stroke-width="3.2"/>
<circle clip-path="url(#clip502)" cx="739.228" cy="831.771" r="14.4" fill="#009af9" fill-rule="evenodd" fill-opacity="0.5" stroke="#000000" stroke-opacity="0.5" stroke-width="3.2"/>
<circle clip-path="url(#clip502)" cx="1282.18" cy="1114.58" r="14.4" fill="#009af9" fill-rule="evenodd" fill-opacity="0.5" stroke="#000000" stroke-opacity="0.5" stroke-width="3.2"/>
<circle clip-path="url(#clip502)" cx="1391.23" cy="412.15" r="14.4" fill="#009af9" fill-rule="evenodd" fill-opacity="0.5" stroke="#000000" stroke-opacity="0.5" stroke-width="3.2"/>
<circle clip-path="url(#clip502)" cx="913.507" cy="1210.3" r="14.4" fill="#009af9" fill-rule="evenodd" fill-opacity="0.5" stroke="#000000" stroke-opacity="0.5" stroke-width="3.2"/>
<circle clip-path="url(#clip502)" cx="285.585" cy="846.363" r="14.4" fill="#009af9" fill-rule="evenodd" fill-opacity="0.5" stroke="#000000" stroke-opacity="0.5" stroke-width="3.2"/>
<circle clip-path="url(#clip502)" cx="922.966" cy="1082.47" r="14.4" fill="#009af9" fill-rule="evenodd" fill-opacity="0.5" stroke="#000000" stroke-opacity="0.5" stroke-width="3.2"/>
<circle clip-path="url(#clip502)" cx="2290.34" cy="353.485" r="14.4" fill="#009af9" fill-rule="evenodd" fill-opacity="0.5" stroke="#000000" stroke-opacity="0.5" stroke-width="3.2"/>
<circle clip-path="url(#clip502)" cx="1771.2" cy="566.473" r="14.4" fill="#009af9" fill-rule="evenodd" fill-opacity="0.5" stroke="#000000" stroke-opacity="0.5" stroke-width="3.2"/>
<circle clip-path="url(#clip502)" cx="1546.27" cy="616.596" r="14.4" fill="#009af9" fill-rule="evenodd" fill-opacity="0.5" stroke="#000000" stroke-opacity="0.5" stroke-width="3.2"/>
<circle clip-path="url(#clip502)" cx="564.771" cy="634.458" r="14.4" fill="#009af9" fill-rule="evenodd" fill-opacity="0.5" stroke="#000000" stroke-opacity="0.5" stroke-width="3.2"/>
<circle clip-path="url(#clip502)" cx="1645.83" cy="87.9763" r="14.4" fill="#009af9" fill-rule="evenodd" fill-opacity="0.5" stroke="#000000" stroke-opacity="0.5" stroke-width="3.2"/>
<circle clip-path="url(#clip502)" cx="2267.31" cy="1210.22" r="14.4" fill="#009af9" fill-rule="evenodd" fill-opacity="0.5" stroke="#000000" stroke-opacity="0.5" stroke-width="3.2"/>
<circle clip-path="url(#clip502)" cx="2156.18" cy="1074.97" r="14.4" fill="#009af9" fill-rule="evenodd" fill-opacity="0.5" stroke="#000000" stroke-opacity="0.5" stroke-width="3.2"/>
<circle clip-path="url(#clip502)" cx="2192.41" cy="243.38" r="14.4" fill="#009af9" fill-rule="evenodd" fill-opacity="0.5" stroke="#000000" stroke-opacity="0.5" stroke-width="3.2"/>
<circle clip-path="url(#clip502)" cx="209.891" cy="1445.72" r="14.4" fill="#009af9" fill-rule="evenodd" fill-opacity="0.5" stroke="#000000" stroke-opacity="0.5" stroke-width="3.2"/>
<circle clip-path="url(#clip502)" cx="1334" cy="1169.52" r="14.4" fill="#009af9" fill-rule="evenodd" fill-opacity="0.5" stroke="#000000" stroke-opacity="0.5" stroke-width="3.2"/>
<circle clip-path="url(#clip502)" cx="2104.4" cy="1326.74" r="14.4" fill="#009af9" fill-rule="evenodd" fill-opacity="0.5" stroke="#000000" stroke-opacity="0.5" stroke-width="3.2"/>
<circle clip-path="url(#clip502)" cx="1294.22" cy="705.226" r="14.4" fill="#009af9" fill-rule="evenodd" fill-opacity="0.5" stroke="#000000" stroke-opacity="0.5" stroke-width="3.2"/>
<circle clip-path="url(#clip502)" cx="1316.36" cy="979.979" r="14.4" fill="#009af9" fill-rule="evenodd" fill-opacity="0.5" stroke="#000000" stroke-opacity="0.5" stroke-width="3.2"/>
<circle clip-path="url(#clip502)" cx="904.515" cy="1101.81" r="14.4" fill="#009af9" fill-rule="evenodd" fill-opacity="0.5" stroke="#000000" stroke-opacity="0.5" stroke-width="3.2"/>
<circle clip-path="url(#clip502)" cx="1401.95" cy="746.051" r="14.4" fill="#009af9" fill-rule="evenodd" fill-opacity="0.5" stroke="#000000" stroke-opacity="0.5" stroke-width="3.2"/>
<circle clip-path="url(#clip502)" cx="981.97" cy="680.65" r="14.4" fill="#009af9" fill-rule="evenodd" fill-opacity="0.5" stroke="#000000" stroke-opacity="0.5" stroke-width="3.2"/>
<circle clip-path="url(#clip502)" cx="1186.04" cy="385.141" r="14.4" fill="#009af9" fill-rule="evenodd" fill-opacity="0.5" stroke="#000000" stroke-opacity="0.5" stroke-width="3.2"/>
<circle clip-path="url(#clip502)" cx="1386.57" cy="159.871" r="14.4" fill="#009af9" fill-rule="evenodd" fill-opacity="0.5" stroke="#000000" stroke-opacity="0.5" stroke-width="3.2"/>
<circle clip-path="url(#clip502)" cx="2150.36" cy="1304.88" r="14.4" fill="#009af9" fill-rule="evenodd" fill-opacity="0.5" stroke="#000000" stroke-opacity="0.5" stroke-width="3.2"/>
<path clip-path="url(#clip502)" d="M209.891 1445.72 L2104.4 1326.74 L2150.36 1304.88 L2267.31 1210.22 L2290.34 353.485 L2192.41 243.38 L1645.83 87.9763 L1386.57 159.871 L564.771 634.458 L285.585 846.363 L209.891 1445.72 L209.891 1445.72  Z" fill="#e26f46" fill-rule="evenodd" fill-opacity="0.2"/>
<polyline clip-path="url(#clip502)" style="stroke:#000000; stroke-linecap:round; stroke-linejoin:round; stroke-width:4; stroke-opacity:0.2; fill:none" points="209.891,1445.72 2104.4,1326.74 2150.36,1304.88 2267.31,1210.22 2290.34,353.485 2192.41,243.38 1645.83,87.9763 1386.57,159.871 564.771,634.458 285.585,846.363 209.891,1445.72 "/>
</svg>
