<?xml version="1.0" encoding="utf-8"?>
<svg xmlns="http://www.w3.org/2000/svg" xmlns:xlink="http://www.w3.org/1999/xlink" width="600" height="400" viewBox="0 0 2400 1600">
<defs>
  <clipPath id="clip070">
    <rect x="0" y="0" width="2400" height="1600"/>
  </clipPath>
</defs>
<path clip-path="url(#clip070)" d="M0 1600 L2400 1600 L2400 0 L0 0  Z" fill="#ffffff" fill-rule="evenodd" fill-opacity="1"/>
<defs>
  <clipPath id="clip071">
    <rect x="480" y="0" width="1681" height="1600"/>
  </clipPath>
</defs>
<path clip-path="url(#clip070)" d="M147.478 1486.45 L2352.76 1486.45 L2352.76 47.2441 L147.478 47.2441  Z" fill="#ffffff" fill-rule="evenodd" fill-opacity="1"/>
<defs>
  <clipPath id="clip072">
    <rect x="147" y="47" width="2206" height="1440"/>
  </clipPath>
</defs>
<polyline clip-path="url(#clip072)" style="stroke:#000000; stroke-linecap:round; stroke-linejoin:round; stroke-width:2; stroke-opacity:0.1; fill:none" points="228.872,1486.45 228.872,47.2441 "/>
<polyline clip-path="url(#clip072)" style="stroke:#000000; stroke-linecap:round; stroke-linejoin:round; stroke-width:2; stroke-opacity:0.1; fill:none" points="828.512,1486.45 828.512,47.2441 "/>
<polyline clip-path="url(#clip072)" style="stroke:#000000; stroke-linecap:round; stroke-linejoin:round; stroke-width:2; stroke-opacity:0.1; fill:none" points="1428.15,1486.45 1428.15,47.2441 "/>
<polyline clip-path="url(#clip072)" style="stroke:#000000; stroke-linecap:round; stroke-linejoin:round; stroke-width:2; stroke-opacity:0.1; fill:none" points="2027.79,1486.45 2027.79,47.2441 "/>
<polyline clip-path="url(#clip072)" style="stroke:#000000; stroke-linecap:round; stroke-linejoin:round; stroke-width:2; stroke-opacity:0.1; fill:none" points="147.478,1323.92 2352.76,1323.92 "/>
<polyline clip-path="url(#clip072)" style="stroke:#000000; stroke-linecap:round; stroke-linejoin:round; stroke-width:2; stroke-opacity:0.1; fill:none" points="147.478,992.123 2352.76,992.123 "/>
<polyline clip-path="url(#clip072)" style="stroke:#000000; stroke-linecap:round; stroke-linejoin:round; stroke-width:2; stroke-opacity:0.1; fill:none" points="147.478,660.322 2352.76,660.322 "/>
<polyline clip-path="url(#clip072)" style="stroke:#000000; stroke-linecap:round; stroke-linejoin:round; stroke-width:2; stroke-opacity:0.1; fill:none" points="147.478,328.522 2352.76,328.522 "/>
<polyline clip-path="url(#clip070)" style="stroke:#000000; stroke-linecap:round; stroke-linejoin:round; stroke-width:4; stroke-opacity:1; fill:none" points="147.478,1486.45 2352.76,1486.45 "/>
<polyline clip-path="url(#clip070)" style="stroke:#000000; stroke-linecap:round; stroke-linejoin:round; stroke-width:4; stroke-opacity:1; fill:none" points="228.872,1486.45 228.872,1467.55 "/>
<polyline clip-path="url(#clip070)" style="stroke:#000000; stroke-linecap:round; stroke-linejoin:round; stroke-width:4; stroke-opacity:1; fill:none" points="828.512,1486.45 828.512,1467.55 "/>
<polyline clip-path="url(#clip070)" style="stroke:#000000; stroke-linecap:round; stroke-linejoin:round; stroke-width:4; stroke-opacity:1; fill:none" points="1428.15,1486.45 1428.15,1467.55 "/>
<polyline clip-path="url(#clip070)" style="stroke:#000000; stroke-linecap:round; stroke-linejoin:round; stroke-width:4; stroke-opacity:1; fill:none" points="2027.79,1486.45 2027.79,1467.55 "/>
<path clip-path="url(#clip070)" d="M198.814 1532.02 L228.49 1532.02 L228.49 1535.95 L198.814 1535.95 L198.814 1532.02 Z" fill="#000000" fill-rule="nonzero" fill-opacity="1" /><path clip-path="url(#clip070)" d="M242.61 1544.91 L258.93 1544.91 L258.93 1548.85 L236.985 1548.85 L236.985 1544.91 Q239.647 1542.16 244.231 1537.53 Q248.837 1532.88 250.018 1531.53 Q252.263 1529.01 253.143 1527.27 Q254.045 1525.51 254.045 1523.82 Q254.045 1521.07 252.101 1519.33 Q250.18 1517.6 247.078 1517.6 Q244.879 1517.6 242.425 1518.36 Q239.994 1519.13 237.217 1520.68 L237.217 1515.95 Q240.041 1514.82 242.494 1514.24 Q244.948 1513.66 246.985 1513.66 Q252.356 1513.66 255.55 1516.35 Q258.744 1519.03 258.744 1523.52 Q258.744 1525.65 257.934 1527.57 Q257.147 1529.47 255.041 1532.07 Q254.462 1532.74 251.36 1535.95 Q248.258 1539.15 242.61 1544.91 Z" fill="#000000" fill-rule="nonzero" fill-opacity="1" /><path clip-path="url(#clip070)" d="M798.269 1532.02 L827.945 1532.02 L827.945 1535.95 L798.269 1535.95 L798.269 1532.02 Z" fill="#000000" fill-rule="nonzero" fill-opacity="1" /><path clip-path="url(#clip070)" d="M838.848 1544.91 L846.487 1544.91 L846.487 1518.55 L838.176 1520.21 L838.176 1515.95 L846.44 1514.29 L851.116 1514.29 L851.116 1544.91 L858.755 1544.91 L858.755 1548.85 L838.848 1548.85 L838.848 1544.91 Z" fill="#000000" fill-rule="nonzero" fill-opacity="1" /><path clip-path="url(#clip070)" d="M1428.15 1517.37 Q1424.54 1517.37 1422.71 1520.93 Q1420.91 1524.47 1420.91 1531.6 Q1420.91 1538.71 1422.71 1542.27 Q1424.54 1545.82 1428.15 1545.82 Q1431.79 1545.82 1433.59 1542.27 Q1435.42 1538.71 1435.42 1531.6 Q1435.42 1524.47 1433.59 1520.93 Q1431.79 1517.37 1428.15 1517.37 M1428.15 1513.66 Q1433.96 1513.66 1437.02 1518.27 Q1440.1 1522.85 1440.1 1531.6 Q1440.1 1540.33 1437.02 1544.94 Q1433.96 1549.52 1428.15 1549.52 Q1422.34 1549.52 1419.26 1544.94 Q1416.21 1540.33 1416.21 1531.6 Q1416.21 1522.85 1419.26 1518.27 Q1422.34 1513.66 1428.15 1513.66 Z" fill="#000000" fill-rule="nonzero" fill-opacity="1" /><path clip-path="url(#clip070)" d="M2018.17 1544.91 L2025.81 1544.91 L2025.81 1518.55 L2017.5 1520.21 L2017.5 1515.95 L2025.77 1514.29 L2030.44 1514.29 L2030.44 1544.91 L2038.08 1544.91 L2038.08 1548.85 L2018.17 1548.85 L2018.17 1544.91 Z" fill="#000000" fill-rule="nonzero" fill-opacity="1" /><polyline clip-path="url(#clip070)" style="stroke:#000000; stroke-linecap:round; stroke-linejoin:round; stroke-width:4; stroke-opacity:1; fill:none" points="147.478,1486.45 147.478,47.2441 "/>
<polyline clip-path="url(#clip070)" style="stroke:#000000; stroke-linecap:round; stroke-linejoin:round; stroke-width:4; stroke-opacity:1; fill:none" points="147.478,1323.92 166.376,1323.92 "/>
<polyline clip-path="url(#clip070)" style="stroke:#000000; stroke-linecap:round; stroke-linejoin:round; stroke-width:4; stroke-opacity:1; fill:none" points="147.478,992.123 166.376,992.123 "/>
<polyline clip-path="url(#clip070)" style="stroke:#000000; stroke-linecap:round; stroke-linejoin:round; stroke-width:4; stroke-opacity:1; fill:none" points="147.478,660.322 166.376,660.322 "/>
<polyline clip-path="url(#clip070)" style="stroke:#000000; stroke-linecap:round; stroke-linejoin:round; stroke-width:4; stroke-opacity:1; fill:none" points="147.478,328.522 166.376,328.522 "/>
<path clip-path="url(#clip070)" d="M51.3625 1324.38 L81.0383 1324.38 L81.0383 1328.31 L51.3625 1328.31 L51.3625 1324.38 Z" fill="#000000" fill-rule="nonzero" fill-opacity="1" /><path clip-path="url(#clip070)" d="M95.1586 1337.27 L111.478 1337.27 L111.478 1341.2 L89.5336 1341.2 L89.5336 1337.27 Q92.1956 1334.51 96.7789 1329.88 Q101.385 1325.23 102.566 1323.89 Q104.811 1321.37 105.691 1319.63 Q106.594 1317.87 106.594 1316.18 Q106.594 1313.43 104.649 1311.69 Q102.728 1309.95 99.6261 1309.95 Q97.4271 1309.95 94.9734 1310.72 Q92.5428 1311.48 89.7651 1313.03 L89.7651 1308.31 Q92.5891 1307.18 95.0428 1306.6 Q97.4965 1306.02 99.5335 1306.02 Q104.904 1306.02 108.098 1308.7 Q111.293 1311.39 111.293 1315.88 Q111.293 1318.01 110.483 1319.93 Q109.696 1321.83 107.589 1324.42 Q107.01 1325.09 103.909 1328.31 Q100.807 1331.5 95.1586 1337.27 Z" fill="#000000" fill-rule="nonzero" fill-opacity="1" /><path clip-path="url(#clip070)" d="M50.9921 992.575 L80.6679 992.575 L80.6679 996.51 L50.9921 996.51 L50.9921 992.575 Z" fill="#000000" fill-rule="nonzero" fill-opacity="1" /><path clip-path="url(#clip070)" d="M91.5706 1005.47 L99.2095 1005.47 L99.2095 979.102 L90.8993 980.769 L90.8993 976.51 L99.1632 974.843 L103.839 974.843 L103.839 1005.47 L111.478 1005.47 L111.478 1009.4 L91.5706 1009.4 L91.5706 1005.47 Z" fill="#000000" fill-rule="nonzero" fill-opacity="1" /><path clip-path="url(#clip070)" d="M99.5335 646.121 Q95.9224 646.121 94.0937 649.686 Q92.2882 653.228 92.2882 660.357 Q92.2882 667.464 94.0937 671.028 Q95.9224 674.57 99.5335 674.57 Q103.168 674.57 104.973 671.028 Q106.802 667.464 106.802 660.357 Q106.802 653.228 104.973 649.686 Q103.168 646.121 99.5335 646.121 M99.5335 642.417 Q105.344 642.417 108.399 647.024 Q111.478 651.607 111.478 660.357 Q111.478 669.084 108.399 673.69 Q105.344 678.274 99.5335 678.274 Q93.7234 678.274 90.6447 673.69 Q87.5892 669.084 87.5892 660.357 Q87.5892 651.607 90.6447 647.024 Q93.7234 642.417 99.5335 642.417 Z" fill="#000000" fill-rule="nonzero" fill-opacity="1" /><path clip-path="url(#clip070)" d="M91.5706 341.867 L99.2095 341.867 L99.2095 315.501 L90.8993 317.168 L90.8993 312.908 L99.1632 311.242 L103.839 311.242 L103.839 341.867 L111.478 341.867 L111.478 345.802 L91.5706 345.802 L91.5706 341.867 Z" fill="#000000" fill-rule="nonzero" fill-opacity="1" /><circle clip-path="url(#clip072)" cx="1837.68" cy="756.439" r="14.4" fill="#009af9" fill-rule="evenodd" fill-opacity="0.5" stroke="#000000" stroke-opacity="0.5" stroke-width="3.2"/>
<circle clip-path="url(#clip072)" cx="1496.5" cy="849.114" r="14.4" fill="#009af9" fill-rule="evenodd" fill-opacity="0.5" stroke="#000000" stroke-opacity="0.5" stroke-width="3.2"/>
<circle clip-path="url(#clip072)" cx="1133.28" cy="1255.29" r="14.4" fill="#009af9" fill-rule="evenodd" fill-opacity="0.5" stroke="#000000" stroke-opacity="0.5" stroke-width="3.2"/>
<circle clip-path="url(#clip072)" cx="1354.17" cy="739.585" r="14.4" fill="#009af9" fill-rule="evenodd" fill-opacity="0.5" stroke="#000000" stroke-opacity="0.5" stroke-width="3.2"/>
<circle clip-path="url(#clip072)" cx="1082.61" cy="871.672" r="14.4" fill="#009af9" fill-rule="evenodd" fill-opacity="0.5" stroke="#000000" stroke-opacity="0.5" stroke-width="3.2"/>
<circle clip-path="url(#clip072)" cx="1009.65" cy="584.683" r="14.4" fill="#009af9" fill-rule="evenodd" fill-opacity="0.5" stroke="#000000" stroke-opacity="0.5" stroke-width="3.2"/>
<circle clip-path="url(#clip072)" cx="877.224" cy="1032.4" r="14.4" fill="#009af9" fill-rule="evenodd" fill-opacity="0.5" stroke="#000000" stroke-opacity="0.5" stroke-width="3.2"/>
<circle clip-path="url(#clip072)" cx="1159.34" cy="637.28" r="14.4" fill="#009af9" fill-rule="evenodd" fill-opacity="0.5" stroke="#000000" stroke-opacity="0.5" stroke-width="3.2"/>
<circle clip-path="url(#clip072)" cx="400.809" cy="380.47" r="14.4" fill="#009af9" fill-rule="evenodd" fill-opacity="0.5" stroke="#000000" stroke-opacity="0.5" stroke-width="3.2"/>
<circle clip-path="url(#clip072)" cx="1406.78" cy="806.381" r="14.4" fill="#009af9" fill-rule="evenodd" fill-opacity="0.5" stroke="#000000" stroke-opacity="0.5" stroke-width="3.2"/>
<circle clip-path="url(#clip072)" cx="1336.06" cy="760.209" r="14.4" fill="#009af9" fill-rule="evenodd" fill-opacity="0.5" stroke="#000000" stroke-opacity="0.5" stroke-width="3.2"/>
<circle clip-path="url(#clip072)" cx="609.114" cy="998.162" r="14.4" fill="#009af9" fill-rule="evenodd" fill-opacity="0.5" stroke="#000000" stroke-opacity="0.5" stroke-width="3.2"/>
<circle clip-path="url(#clip072)" cx="669.699" cy="879.425" r="14.4" fill="#009af9" fill-rule="evenodd" fill-opacity="0.5" stroke="#000000" stroke-opacity="0.5" stroke-width="3.2"/>
<circle clip-path="url(#clip072)" cx="750.063" cy="711.054" r="14.4" fill="#009af9" fill-rule="evenodd" fill-opacity="0.5" stroke="#000000" stroke-opacity="0.5" stroke-width="3.2"/>
<circle clip-path="url(#clip072)" cx="1076.21" cy="1445.72" r="14.4" fill="#009af9" fill-rule="evenodd" fill-opacity="0.5" stroke="#000000" stroke-opacity="0.5" stroke-width="3.2"/>
<circle clip-path="url(#clip072)" cx="1070.01" cy="759.053" r="14.4" fill="#009af9" fill-rule="evenodd" fill-opacity="0.5" stroke="#000000" stroke-opacity="0.5" stroke-width="3.2"/>
<circle clip-path="url(#clip072)" cx="967.601" cy="838.696" r="14.4" fill="#009af9" fill-rule="evenodd" fill-opacity="0.5" stroke="#000000" stroke-opacity="0.5" stroke-width="3.2"/>
<circle clip-path="url(#clip072)" cx="1279.83" cy="769.268" r="14.4" fill="#009af9" fill-rule="evenodd" fill-opacity="0.5" stroke="#000000" stroke-opacity="0.5" stroke-width="3.2"/>
<circle clip-path="url(#clip072)" cx="1615.22" cy="1194.75" r="14.4" fill="#009af9" fill-rule="evenodd" fill-opacity="0.5" stroke="#000000" stroke-opacity="0.5" stroke-width="3.2"/>
<circle clip-path="url(#clip072)" cx="1472.29" cy="813.326" r="14.4" fill="#009af9" fill-rule="evenodd" fill-opacity="0.5" stroke="#000000" stroke-opacity="0.5" stroke-width="3.2"/>
<circle clip-path="url(#clip072)" cx="2290.34" cy="631.283" r="14.4" fill="#009af9" fill-rule="evenodd" fill-opacity="0.5" stroke="#000000" stroke-opacity="0.5" stroke-width="3.2"/>
<circle clip-path="url(#clip072)" cx="660.001" cy="897.583" r="14.4" fill="#009af9" fill-rule="evenodd" fill-opacity="0.5" stroke="#000000" stroke-opacity="0.5" stroke-width="3.2"/>
<circle clip-path="url(#clip072)" cx="1897.86" cy="1188.27" r="14.4" fill="#009af9" fill-rule="evenodd" fill-opacity="0.5" stroke="#000000" stroke-opacity="0.5" stroke-width="3.2"/>
<circle clip-path="url(#clip072)" cx="209.891" cy="366.934" r="14.4" fill="#009af9" fill-rule="evenodd" fill-opacity="0.5" stroke="#000000" stroke-opacity="0.5" stroke-width="3.2"/>
<circle clip-path="url(#clip072)" cx="1424.63" cy="642.564" r="14.4" fill="#009af9" fill-rule="evenodd" fill-opacity="0.5" stroke="#000000" stroke-opacity="0.5" stroke-width="3.2"/>
<circle clip-path="url(#clip072)" cx="781.385" cy="880.807" r="14.4" fill="#009af9" fill-rule="evenodd" fill-opacity="0.5" stroke="#000000" stroke-opacity="0.5" stroke-width="3.2"/>
<circle clip-path="url(#clip072)" cx="1434.58" cy="662.325" r="14.4" fill="#009af9" fill-rule="evenodd" fill-opacity="0.5" stroke="#000000" stroke-opacity="0.5" stroke-width="3.2"/>
<circle clip-path="url(#clip072)" cx="1555.37" cy="426.638" r="14.4" fill="#009af9" fill-rule="evenodd" fill-opacity="0.5" stroke="#000000" stroke-opacity="0.5" stroke-width="3.2"/>
<circle clip-path="url(#clip072)" cx="639.529" cy="354.916" r="14.4" fill="#009af9" fill-rule="evenodd" fill-opacity="0.5" stroke="#000000" stroke-opacity="0.5" stroke-width="3.2"/>
<circle clip-path="url(#clip072)" cx="1101.96" cy="87.9763" r="14.4" fill="#009af9" fill-rule="evenodd" fill-opacity="0.5" stroke="#000000" stroke-opacity="0.5" stroke-width="3.2"/>
<path clip-path="url(#clip072)" d="M209.891 366.934 L609.114 998.162 L1076.21 1445.72 L1897.86 1188.27 L2290.34 631.283 L1101.96 87.9763 L209.891 366.934 L209.891 366.934  Z" fill="#e26f46" fill-rule="evenodd" fill-opacity="0.2"/>
<polyline clip-path="url(#clip072)" style="stroke:#000000; stroke-linecap:round; stroke-linejoin:round; stroke-width:4; stroke-opacity:0.2; fill:none" points="209.891,366.934 609.114,998.162 1076.21,1445.72 1897.86,1188.27 2290.34,631.283 1101.96,87.9763 209.891,366.934 "/>
</svg>
