<?xml version="1.0" encoding="utf-8"?>
<svg xmlns="http://www.w3.org/2000/svg" xmlns:xlink="http://www.w3.org/1999/xlink" width="600" height="400" viewBox="0 0 2400 1600">
<defs>
  <clipPath id="clip690">
    <rect x="0" y="0" width="2400" height="1600"/>
  </clipPath>
</defs>
<path clip-path="url(#clip690)" d="M0 1600 L2400 1600 L2400 0 L0 0  Z" fill="#ffffff" fill-rule="evenodd" fill-opacity="1"/>
<defs>
  <clipPath id="clip691">
    <rect x="148" y="47" width="2206" height="1440"/>
  </clipPath>
</defs>
<path clip-path="url(#clip690)" d="M148.057 1486.45 L2352.76 1486.45 L2352.76 47.2441 L148.057 47.2441  Z" fill="#ffffff" fill-rule="evenodd" fill-opacity="1"/>
<polyline clip-path="url(#clip691)" style="stroke:#000000; stroke-linecap:round; stroke-linejoin:round; stroke-width:2; stroke-opacity:0.1; fill:none" points="327.684,1486.45 327.684,47.2441 "/>
<polyline clip-path="url(#clip691)" style="stroke:#000000; stroke-linecap:round; stroke-linejoin:round; stroke-width:2; stroke-opacity:0.1; fill:none" points="774.006,1486.45 774.006,47.2441 "/>
<polyline clip-path="url(#clip691)" style="stroke:#000000; stroke-linecap:round; stroke-linejoin:round; stroke-width:2; stroke-opacity:0.1; fill:none" points="1220.33,1486.45 1220.33,47.2441 "/>
<polyline clip-path="url(#clip691)" style="stroke:#000000; stroke-linecap:round; stroke-linejoin:round; stroke-width:2; stroke-opacity:0.1; fill:none" points="1666.65,1486.45 1666.65,47.2441 "/>
<polyline clip-path="url(#clip691)" style="stroke:#000000; stroke-linecap:round; stroke-linejoin:round; stroke-width:2; stroke-opacity:0.1; fill:none" points="2112.97,1486.45 2112.97,47.2441 "/>
<polyline clip-path="url(#clip691)" style="stroke:#000000; stroke-linecap:round; stroke-linejoin:round; stroke-width:2; stroke-opacity:0.1; fill:none" points="148.057,1453.69 2352.76,1453.69 "/>
<polyline clip-path="url(#clip691)" style="stroke:#000000; stroke-linecap:round; stroke-linejoin:round; stroke-width:2; stroke-opacity:0.1; fill:none" points="148.057,1196.07 2352.76,1196.07 "/>
<polyline clip-path="url(#clip691)" style="stroke:#000000; stroke-linecap:round; stroke-linejoin:round; stroke-width:2; stroke-opacity:0.1; fill:none" points="148.057,938.442 2352.76,938.442 "/>
<polyline clip-path="url(#clip691)" style="stroke:#000000; stroke-linecap:round; stroke-linejoin:round; stroke-width:2; stroke-opacity:0.1; fill:none" points="148.057,680.818 2352.76,680.818 "/>
<polyline clip-path="url(#clip691)" style="stroke:#000000; stroke-linecap:round; stroke-linejoin:round; stroke-width:2; stroke-opacity:0.1; fill:none" points="148.057,423.194 2352.76,423.194 "/>
<polyline clip-path="url(#clip691)" style="stroke:#000000; stroke-linecap:round; stroke-linejoin:round; stroke-width:2; stroke-opacity:0.1; fill:none" points="148.057,165.571 2352.76,165.571 "/>
<polyline clip-path="url(#clip690)" style="stroke:#000000; stroke-linecap:round; stroke-linejoin:round; stroke-width:4; stroke-opacity:1; fill:none" points="148.057,1486.45 2352.76,1486.45 "/>
<polyline clip-path="url(#clip690)" style="stroke:#000000; stroke-linecap:round; stroke-linejoin:round; stroke-width:4; stroke-opacity:1; fill:none" points="327.684,1486.45 327.684,1467.55 "/>
<polyline clip-path="url(#clip690)" style="stroke:#000000; stroke-linecap:round; stroke-linejoin:round; stroke-width:4; stroke-opacity:1; fill:none" points="774.006,1486.45 774.006,1467.55 "/>
<polyline clip-path="url(#clip690)" style="stroke:#000000; stroke-linecap:round; stroke-linejoin:round; stroke-width:4; stroke-opacity:1; fill:none" points="1220.33,1486.45 1220.33,1467.55 "/>
<polyline clip-path="url(#clip690)" style="stroke:#000000; stroke-linecap:round; stroke-linejoin:round; stroke-width:4; stroke-opacity:1; fill:none" points="1666.65,1486.45 1666.65,1467.55 "/>
<polyline clip-path="url(#clip690)" style="stroke:#000000; stroke-linecap:round; stroke-linejoin:round; stroke-width:4; stroke-opacity:1; fill:none" points="2112.97,1486.45 2112.97,1467.55 "/>
<path clip-path="url(#clip690)" d="M297.626 1532.02 L327.302 1532.02 L327.302 1535.95 L297.626 1535.95 L297.626 1532.02 Z" fill="#000000" fill-rule="nonzero" fill-opacity="1" /><path clip-path="url(#clip690)" d="M341.422 1544.91 L357.742 1544.91 L357.742 1548.85 L335.797 1548.85 L335.797 1544.91 Q338.459 1542.16 343.043 1537.53 Q347.649 1532.88 348.83 1531.53 Q351.075 1529.01 351.955 1527.27 Q352.857 1525.51 352.857 1523.82 Q352.857 1521.07 350.913 1519.33 Q348.992 1517.6 345.89 1517.6 Q343.691 1517.6 341.237 1518.36 Q338.807 1519.13 336.029 1520.68 L336.029 1515.95 Q338.853 1514.82 341.307 1514.24 Q343.76 1513.66 345.797 1513.66 Q351.168 1513.66 354.362 1516.35 Q357.556 1519.03 357.556 1523.52 Q357.556 1525.65 356.746 1527.57 Q355.959 1529.47 353.853 1532.07 Q353.274 1532.74 350.172 1535.95 Q347.07 1539.15 341.422 1544.91 Z" fill="#000000" fill-rule="nonzero" fill-opacity="1" /><path clip-path="url(#clip690)" d="M743.763 1532.02 L773.439 1532.02 L773.439 1535.95 L743.763 1535.95 L743.763 1532.02 Z" fill="#000000" fill-rule="nonzero" fill-opacity="1" /><path clip-path="url(#clip690)" d="M784.342 1544.91 L791.981 1544.91 L791.981 1518.55 L783.67 1520.21 L783.67 1515.95 L791.934 1514.29 L796.61 1514.29 L796.61 1544.91 L804.249 1544.91 L804.249 1548.85 L784.342 1548.85 L784.342 1544.91 Z" fill="#000000" fill-rule="nonzero" fill-opacity="1" /><path clip-path="url(#clip690)" d="M1220.33 1517.37 Q1216.72 1517.37 1214.89 1520.93 Q1213.08 1524.47 1213.08 1531.6 Q1213.08 1538.71 1214.89 1542.27 Q1216.72 1545.82 1220.33 1545.82 Q1223.96 1545.82 1225.77 1542.27 Q1227.6 1538.71 1227.6 1531.6 Q1227.6 1524.47 1225.77 1520.93 Q1223.96 1517.37 1220.33 1517.37 M1220.33 1513.66 Q1226.14 1513.66 1229.19 1518.27 Q1232.27 1522.85 1232.27 1531.6 Q1232.27 1540.33 1229.19 1544.94 Q1226.14 1549.52 1220.33 1549.52 Q1214.52 1549.52 1211.44 1544.94 Q1208.38 1540.33 1208.38 1531.6 Q1208.38 1522.85 1211.44 1518.27 Q1214.52 1513.66 1220.33 1513.66 Z" fill="#000000" fill-rule="nonzero" fill-opacity="1" /><path clip-path="url(#clip690)" d="M1657.03 1544.91 L1664.67 1544.91 L1664.67 1518.55 L1656.36 1520.21 L1656.36 1515.95 L1664.63 1514.29 L1669.3 1514.29 L1669.3 1544.91 L1676.94 1544.91 L1676.94 1548.85 L1657.03 1548.85 L1657.03 1544.91 Z" fill="#000000" fill-rule="nonzero" fill-opacity="1" /><path clip-path="url(#clip690)" d="M2107.63 1544.91 L2123.94 1544.91 L2123.94 1548.85 L2102 1548.85 L2102 1544.91 Q2104.66 1542.16 2109.25 1537.53 Q2113.85 1532.88 2115.03 1531.53 Q2117.28 1529.01 2118.16 1527.27 Q2119.06 1525.51 2119.06 1523.82 Q2119.06 1521.07 2117.12 1519.33 Q2115.19 1517.6 2112.09 1517.6 Q2109.89 1517.6 2107.44 1518.36 Q2105.01 1519.13 2102.23 1520.68 L2102.23 1515.95 Q2105.06 1514.82 2107.51 1514.24 Q2109.96 1513.66 2112 1513.66 Q2117.37 1513.66 2120.57 1516.35 Q2123.76 1519.03 2123.76 1523.52 Q2123.76 1525.65 2122.95 1527.57 Q2122.16 1529.47 2120.06 1532.07 Q2119.48 1532.74 2116.38 1535.95 Q2113.27 1539.15 2107.63 1544.91 Z" fill="#000000" fill-rule="nonzero" fill-opacity="1" /><polyline clip-path="url(#clip690)" style="stroke:#000000; stroke-linecap:round; stroke-linejoin:round; stroke-width:4; stroke-opacity:1; fill:none" points="148.057,1486.45 148.057,47.2441 "/>
<polyline clip-path="url(#clip690)" style="stroke:#000000; stroke-linecap:round; stroke-linejoin:round; stroke-width:4; stroke-opacity:1; fill:none" points="148.057,1453.69 166.954,1453.69 "/>
<polyline clip-path="url(#clip690)" style="stroke:#000000; stroke-linecap:round; stroke-linejoin:round; stroke-width:4; stroke-opacity:1; fill:none" points="148.057,1196.07 166.954,1196.07 "/>
<polyline clip-path="url(#clip690)" style="stroke:#000000; stroke-linecap:round; stroke-linejoin:round; stroke-width:4; stroke-opacity:1; fill:none" points="148.057,938.442 166.954,938.442 "/>
<polyline clip-path="url(#clip690)" style="stroke:#000000; stroke-linecap:round; stroke-linejoin:round; stroke-width:4; stroke-opacity:1; fill:none" points="148.057,680.818 166.954,680.818 "/>
<polyline clip-path="url(#clip690)" style="stroke:#000000; stroke-linecap:round; stroke-linejoin:round; stroke-width:4; stroke-opacity:1; fill:none" points="148.057,423.194 166.954,423.194 "/>
<polyline clip-path="url(#clip690)" style="stroke:#000000; stroke-linecap:round; stroke-linejoin:round; stroke-width:4; stroke-opacity:1; fill:none" points="148.057,165.571 166.954,165.571 "/>
<path clip-path="url(#clip690)" d="M50.9921 1454.14 L80.6679 1454.14 L80.6679 1458.08 L50.9921 1458.08 L50.9921 1454.14 Z" fill="#000000" fill-rule="nonzero" fill-opacity="1" /><path clip-path="url(#clip690)" d="M104.927 1452.34 Q108.283 1453.05 110.158 1455.32 Q112.057 1457.59 112.057 1460.92 Q112.057 1466.04 108.538 1468.84 Q105.02 1471.64 98.5382 1471.64 Q96.3623 1471.64 94.0475 1471.2 Q91.7558 1470.78 89.3021 1469.93 L89.3021 1465.41 Q91.2465 1466.55 93.5613 1467.13 Q95.8761 1467.71 98.3993 1467.71 Q102.797 1467.71 105.089 1465.97 Q107.404 1464.23 107.404 1460.92 Q107.404 1457.87 105.251 1456.16 Q103.121 1454.42 99.3021 1454.42 L95.2743 1454.42 L95.2743 1450.58 L99.4872 1450.58 Q102.936 1450.58 104.765 1449.21 Q106.594 1447.82 106.594 1445.23 Q106.594 1442.57 104.696 1441.16 Q102.821 1439.72 99.3021 1439.72 Q97.3808 1439.72 95.1817 1440.14 Q92.9826 1440.55 90.3438 1441.43 L90.3438 1437.27 Q93.0058 1436.53 95.3206 1436.16 Q97.6585 1435.79 99.7187 1435.79 Q105.043 1435.79 108.145 1438.22 Q111.246 1440.62 111.246 1444.74 Q111.246 1447.61 109.603 1449.6 Q107.959 1451.57 104.927 1452.34 Z" fill="#000000" fill-rule="nonzero" fill-opacity="1" /><path clip-path="url(#clip690)" d="M51.9412 1196.52 L81.617 1196.52 L81.617 1200.45 L51.9412 1200.45 L51.9412 1196.52 Z" fill="#000000" fill-rule="nonzero" fill-opacity="1" /><path clip-path="url(#clip690)" d="M95.7373 1209.41 L112.057 1209.41 L112.057 1213.35 L90.1123 1213.35 L90.1123 1209.41 Q92.7743 1206.66 97.3576 1202.03 Q101.964 1197.37 103.145 1196.03 Q105.39 1193.51 106.27 1191.77 Q107.172 1190.01 107.172 1188.32 Q107.172 1185.57 105.228 1183.83 Q103.307 1182.1 100.205 1182.1 Q98.0058 1182.1 95.5521 1182.86 Q93.1215 1183.62 90.3438 1185.18 L90.3438 1180.45 Q93.1678 1179.32 95.6215 1178.74 Q98.0752 1178.16 100.112 1178.16 Q105.483 1178.16 108.677 1180.85 Q111.871 1183.53 111.871 1188.02 Q111.871 1190.15 111.061 1192.07 Q110.274 1193.97 108.168 1196.56 Q107.589 1197.24 104.487 1200.45 Q101.385 1203.65 95.7373 1209.41 Z" fill="#000000" fill-rule="nonzero" fill-opacity="1" /><path clip-path="url(#clip690)" d="M51.5708 938.894 L81.2466 938.894 L81.2466 942.829 L51.5708 942.829 L51.5708 938.894 Z" fill="#000000" fill-rule="nonzero" fill-opacity="1" /><path clip-path="url(#clip690)" d="M92.1493 951.787 L99.7882 951.787 L99.7882 925.422 L91.478 927.088 L91.478 922.829 L99.7419 921.162 L104.418 921.162 L104.418 951.787 L112.057 951.787 L112.057 955.722 L92.1493 955.722 L92.1493 951.787 Z" fill="#000000" fill-rule="nonzero" fill-opacity="1" /><path clip-path="url(#clip690)" d="M100.112 666.617 Q96.5011 666.617 94.6724 670.182 Q92.8669 673.724 92.8669 680.853 Q92.8669 687.96 94.6724 691.524 Q96.5011 695.066 100.112 695.066 Q103.746 695.066 105.552 691.524 Q107.381 687.96 107.381 680.853 Q107.381 673.724 105.552 670.182 Q103.746 666.617 100.112 666.617 M100.112 662.913 Q105.922 662.913 108.978 667.52 Q112.057 672.103 112.057 680.853 Q112.057 689.58 108.978 694.186 Q105.922 698.77 100.112 698.77 Q94.3021 698.77 91.2234 694.186 Q88.1679 689.58 88.1679 680.853 Q88.1679 672.103 91.2234 667.52 Q94.3021 662.913 100.112 662.913 Z" fill="#000000" fill-rule="nonzero" fill-opacity="1" /><path clip-path="url(#clip690)" d="M92.1493 436.539 L99.7882 436.539 L99.7882 410.174 L91.478 411.84 L91.478 407.581 L99.7419 405.914 L104.418 405.914 L104.418 436.539 L112.057 436.539 L112.057 440.474 L92.1493 440.474 L92.1493 436.539 Z" fill="#000000" fill-rule="nonzero" fill-opacity="1" /><path clip-path="url(#clip690)" d="M95.7373 178.915 L112.057 178.915 L112.057 182.851 L90.1123 182.851 L90.1123 178.915 Q92.7743 176.161 97.3576 171.531 Q101.964 166.878 103.145 165.536 Q105.39 163.013 106.27 161.277 Q107.172 159.517 107.172 157.828 Q107.172 155.073 105.228 153.337 Q103.307 151.601 100.205 151.601 Q98.0058 151.601 95.5521 152.365 Q93.1215 153.129 90.3438 154.679 L90.3438 149.957 Q93.1678 148.823 95.6215 148.244 Q98.0752 147.666 100.112 147.666 Q105.483 147.666 108.677 150.351 Q111.871 153.036 111.871 157.527 Q111.871 159.656 111.061 161.578 Q110.274 163.476 108.168 166.068 Q107.589 166.74 104.487 169.957 Q101.385 173.152 95.7373 178.915 Z" fill="#000000" fill-rule="nonzero" fill-opacity="1" /><circle clip-path="url(#clip691)" cx="1329.41" cy="998.887" r="14.4" fill="#009af9" fill-rule="evenodd" fill-opacity="0.5" stroke="#000000" stroke-opacity="0.5" stroke-width="3.2"/>
<circle clip-path="url(#clip691)" cx="935.227" cy="661.726" r="14.4" fill="#009af9" fill-rule="evenodd" fill-opacity="0.5" stroke="#000000" stroke-opacity="0.5" stroke-width="3.2"/>
<circle clip-path="url(#clip691)" cx="903.92" cy="665.121" r="14.4" fill="#009af9" fill-rule="evenodd" fill-opacity="0.5" stroke="#000000" stroke-opacity="0.5" stroke-width="3.2"/>
<circle clip-path="url(#clip691)" cx="669.206" cy="775.368" r="14.4" fill="#009af9" fill-rule="evenodd" fill-opacity="0.5" stroke="#000000" stroke-opacity="0.5" stroke-width="3.2"/>
<circle clip-path="url(#clip691)" cx="1173.02" cy="649.639" r="14.4" fill="#009af9" fill-rule="evenodd" fill-opacity="0.5" stroke="#000000" stroke-opacity="0.5" stroke-width="3.2"/>
<circle clip-path="url(#clip691)" cx="1177.6" cy="705.829" r="14.4" fill="#009af9" fill-rule="evenodd" fill-opacity="0.5" stroke="#000000" stroke-opacity="0.5" stroke-width="3.2"/>
<circle clip-path="url(#clip691)" cx="1750.34" cy="764.739" r="14.4" fill="#009af9" fill-rule="evenodd" fill-opacity="0.5" stroke="#000000" stroke-opacity="0.5" stroke-width="3.2"/>
<circle clip-path="url(#clip691)" cx="1216.68" cy="889.673" r="14.4" fill="#009af9" fill-rule="evenodd" fill-opacity="0.5" stroke="#000000" stroke-opacity="0.5" stroke-width="3.2"/>
<circle clip-path="url(#clip691)" cx="1117.72" cy="762.609" r="14.4" fill="#009af9" fill-rule="evenodd" fill-opacity="0.5" stroke="#000000" stroke-opacity="0.5" stroke-width="3.2"/>
<circle clip-path="url(#clip691)" cx="210.454" cy="1445.72" r="14.4" fill="#009af9" fill-rule="evenodd" fill-opacity="0.5" stroke="#000000" stroke-opacity="0.5" stroke-width="3.2"/>
<circle clip-path="url(#clip691)" cx="627.831" cy="613.573" r="14.4" fill="#009af9" fill-rule="evenodd" fill-opacity="0.5" stroke="#000000" stroke-opacity="0.5" stroke-width="3.2"/>
<circle clip-path="url(#clip691)" cx="1684.22" cy="469.202" r="14.4" fill="#009af9" fill-rule="evenodd" fill-opacity="0.5" stroke="#000000" stroke-opacity="0.5" stroke-width="3.2"/>
<circle clip-path="url(#clip691)" cx="1704.02" cy="831.481" r="14.4" fill="#009af9" fill-rule="evenodd" fill-opacity="0.5" stroke="#000000" stroke-opacity="0.5" stroke-width="3.2"/>
<circle clip-path="url(#clip691)" cx="879.617" cy="1010.88" r="14.4" fill="#009af9" fill-rule="evenodd" fill-opacity="0.5" stroke="#000000" stroke-opacity="0.5" stroke-width="3.2"/>
<circle clip-path="url(#clip691)" cx="1177.63" cy="358.282" r="14.4" fill="#009af9" fill-rule="evenodd" fill-opacity="0.5" stroke="#000000" stroke-opacity="0.5" stroke-width="3.2"/>
<circle clip-path="url(#clip691)" cx="510.237" cy="477.357" r="14.4" fill="#009af9" fill-rule="evenodd" fill-opacity="0.5" stroke="#000000" stroke-opacity="0.5" stroke-width="3.2"/>
<circle clip-path="url(#clip691)" cx="412.608" cy="721.594" r="14.4" fill="#009af9" fill-rule="evenodd" fill-opacity="0.5" stroke="#000000" stroke-opacity="0.5" stroke-width="3.2"/>
<circle clip-path="url(#clip691)" cx="961.84" cy="639.945" r="14.4" fill="#009af9" fill-rule="evenodd" fill-opacity="0.5" stroke="#000000" stroke-opacity="0.5" stroke-width="3.2"/>
<circle clip-path="url(#clip691)" cx="1058.89" cy="818.42" r="14.4" fill="#009af9" fill-rule="evenodd" fill-opacity="0.5" stroke="#000000" stroke-opacity="0.5" stroke-width="3.2"/>
<circle clip-path="url(#clip691)" cx="1108.47" cy="838.862" r="14.4" fill="#009af9" fill-rule="evenodd" fill-opacity="0.5" stroke="#000000" stroke-opacity="0.5" stroke-width="3.2"/>
<circle clip-path="url(#clip691)" cx="799.672" cy="980.132" r="14.4" fill="#009af9" fill-rule="evenodd" fill-opacity="0.5" stroke="#000000" stroke-opacity="0.5" stroke-width="3.2"/>
<circle clip-path="url(#clip691)" cx="885.435" cy="561.406" r="14.4" fill="#009af9" fill-rule="evenodd" fill-opacity="0.5" stroke="#000000" stroke-opacity="0.5" stroke-width="3.2"/>
<circle clip-path="url(#clip691)" cx="1327.41" cy="810.986" r="14.4" fill="#009af9" fill-rule="evenodd" fill-opacity="0.5" stroke="#000000" stroke-opacity="0.5" stroke-width="3.2"/>
<circle clip-path="url(#clip691)" cx="1410.39" cy="500.267" r="14.4" fill="#009af9" fill-rule="evenodd" fill-opacity="0.5" stroke="#000000" stroke-opacity="0.5" stroke-width="3.2"/>
<circle clip-path="url(#clip691)" cx="906.098" cy="725.007" r="14.4" fill="#009af9" fill-rule="evenodd" fill-opacity="0.5" stroke="#000000" stroke-opacity="0.5" stroke-width="3.2"/>
<circle clip-path="url(#clip691)" cx="2290.36" cy="87.9763" r="14.4" fill="#009af9" fill-rule="evenodd" fill-opacity="0.5" stroke="#000000" stroke-opacity="0.5" stroke-width="3.2"/>
<circle clip-path="url(#clip691)" cx="616.269" cy="1042.61" r="14.4" fill="#009af9" fill-rule="evenodd" fill-opacity="0.5" stroke="#000000" stroke-opacity="0.5" stroke-width="3.2"/>
<circle clip-path="url(#clip691)" cx="1109.22" cy="303.444" r="14.4" fill="#009af9" fill-rule="evenodd" fill-opacity="0.5" stroke="#000000" stroke-opacity="0.5" stroke-width="3.2"/>
<circle clip-path="url(#clip691)" cx="1148.98" cy="1011.22" r="14.4" fill="#009af9" fill-rule="evenodd" fill-opacity="0.5" stroke="#000000" stroke-opacity="0.5" stroke-width="3.2"/>
<circle clip-path="url(#clip691)" cx="1250.23" cy="777.565" r="14.4" fill="#009af9" fill-rule="evenodd" fill-opacity="0.5" stroke="#000000" stroke-opacity="0.5" stroke-width="3.2"/>
<path clip-path="url(#clip691)" d="M210.454 1445.72 L1329.41 998.887 L1704.02 831.481 L2290.36 87.9763 L1109.22 303.444 L510.237 477.357 L412.608 721.594 L210.454 1445.72 L210.454 1445.72  Z" fill="#e26f46" fill-rule="evenodd" fill-opacity="0.2"/>
<polyline clip-path="url(#clip691)" style="stroke:#000000; stroke-linecap:round; stroke-linejoin:round; stroke-width:4; stroke-opacity:0.2; fill:none" points="210.454,1445.72 1329.41,998.887 1704.02,831.481 2290.36,87.9763 1109.22,303.444 510.237,477.357 412.608,721.594 210.454,1445.72 "/>
</svg>
