<?xml version="1.0" encoding="utf-8"?>
<svg xmlns="http://www.w3.org/2000/svg" xmlns:xlink="http://www.w3.org/1999/xlink" width="600" height="400" viewBox="0 0 2400 1600">
<defs>
  <clipPath id="clip690">
    <rect x="0" y="0" width="2400" height="1600"/>
  </clipPath>
</defs>
<path clip-path="url(#clip690)" d="M0 1600 L2400 1600 L2400 0 L0 0  Z" fill="#ffffff" fill-rule="evenodd" fill-opacity="1"/>
<defs>
  <clipPath id="clip691">
    <rect x="147" y="47" width="2206" height="1440"/>
  </clipPath>
</defs>
<path clip-path="url(#clip690)" d="M147.478 1486.45 L2352.76 1486.45 L2352.76 47.2441 L147.478 47.2441  Z" fill="#ffffff" fill-rule="evenodd" fill-opacity="1"/>
<polyline clip-path="url(#clip691)" style="stroke:#000000; stroke-linecap:round; stroke-linejoin:round; stroke-width:2; stroke-opacity:0.1; fill:none" points="286.355,1486.45 286.355,47.2441 "/>
<polyline clip-path="url(#clip691)" style="stroke:#000000; stroke-linecap:round; stroke-linejoin:round; stroke-width:2; stroke-opacity:0.1; fill:none" points="772.473,1486.45 772.473,47.2441 "/>
<polyline clip-path="url(#clip691)" style="stroke:#000000; stroke-linecap:round; stroke-linejoin:round; stroke-width:2; stroke-opacity:0.1; fill:none" points="1258.59,1486.45 1258.59,47.2441 "/>
<polyline clip-path="url(#clip691)" style="stroke:#000000; stroke-linecap:round; stroke-linejoin:round; stroke-width:2; stroke-opacity:0.1; fill:none" points="1744.71,1486.45 1744.71,47.2441 "/>
<polyline clip-path="url(#clip691)" style="stroke:#000000; stroke-linecap:round; stroke-linejoin:round; stroke-width:2; stroke-opacity:0.1; fill:none" points="2230.83,1486.45 2230.83,47.2441 "/>
<polyline clip-path="url(#clip691)" style="stroke:#000000; stroke-linecap:round; stroke-linejoin:round; stroke-width:2; stroke-opacity:0.1; fill:none" points="147.478,1243.87 2352.76,1243.87 "/>
<polyline clip-path="url(#clip691)" style="stroke:#000000; stroke-linecap:round; stroke-linejoin:round; stroke-width:2; stroke-opacity:0.1; fill:none" points="147.478,907.443 2352.76,907.443 "/>
<polyline clip-path="url(#clip691)" style="stroke:#000000; stroke-linecap:round; stroke-linejoin:round; stroke-width:2; stroke-opacity:0.1; fill:none" points="147.478,571.013 2352.76,571.013 "/>
<polyline clip-path="url(#clip691)" style="stroke:#000000; stroke-linecap:round; stroke-linejoin:round; stroke-width:2; stroke-opacity:0.1; fill:none" points="147.478,234.583 2352.76,234.583 "/>
<polyline clip-path="url(#clip690)" style="stroke:#000000; stroke-linecap:round; stroke-linejoin:round; stroke-width:4; stroke-opacity:1; fill:none" points="147.478,1486.45 2352.76,1486.45 "/>
<polyline clip-path="url(#clip690)" style="stroke:#000000; stroke-linecap:round; stroke-linejoin:round; stroke-width:4; stroke-opacity:1; fill:none" points="286.355,1486.45 286.355,1467.55 "/>
<polyline clip-path="url(#clip690)" style="stroke:#000000; stroke-linecap:round; stroke-linejoin:round; stroke-width:4; stroke-opacity:1; fill:none" points="772.473,1486.45 772.473,1467.55 "/>
<polyline clip-path="url(#clip690)" style="stroke:#000000; stroke-linecap:round; stroke-linejoin:round; stroke-width:4; stroke-opacity:1; fill:none" points="1258.59,1486.45 1258.59,1467.55 "/>
<polyline clip-path="url(#clip690)" style="stroke:#000000; stroke-linecap:round; stroke-linejoin:round; stroke-width:4; stroke-opacity:1; fill:none" points="1744.71,1486.45 1744.71,1467.55 "/>
<polyline clip-path="url(#clip690)" style="stroke:#000000; stroke-linecap:round; stroke-linejoin:round; stroke-width:4; stroke-opacity:1; fill:none" points="2230.83,1486.45 2230.83,1467.55 "/>
<path clip-path="url(#clip690)" d="M256.297 1532.02 L285.973 1532.02 L285.973 1535.95 L256.297 1535.95 L256.297 1532.02 Z" fill="#000000" fill-rule="nonzero" fill-opacity="1" /><path clip-path="url(#clip690)" d="M300.093 1544.91 L316.412 1544.91 L316.412 1548.85 L294.468 1548.85 L294.468 1544.91 Q297.13 1542.16 301.713 1537.53 Q306.32 1532.88 307.5 1531.53 Q309.746 1529.01 310.625 1527.27 Q311.528 1525.51 311.528 1523.82 Q311.528 1521.07 309.584 1519.33 Q307.662 1517.6 304.561 1517.6 Q302.362 1517.6 299.908 1518.36 Q297.477 1519.13 294.7 1520.68 L294.7 1515.95 Q297.524 1514.82 299.977 1514.24 Q302.431 1513.66 304.468 1513.66 Q309.838 1513.66 313.033 1516.35 Q316.227 1519.03 316.227 1523.52 Q316.227 1525.65 315.417 1527.57 Q314.63 1529.47 312.524 1532.07 Q311.945 1532.74 308.843 1535.95 Q305.741 1539.15 300.093 1544.91 Z" fill="#000000" fill-rule="nonzero" fill-opacity="1" /><path clip-path="url(#clip690)" d="M742.23 1532.02 L771.906 1532.02 L771.906 1535.95 L742.23 1535.95 L742.23 1532.02 Z" fill="#000000" fill-rule="nonzero" fill-opacity="1" /><path clip-path="url(#clip690)" d="M782.808 1544.91 L790.447 1544.91 L790.447 1518.55 L782.137 1520.21 L782.137 1515.95 L790.401 1514.29 L795.077 1514.29 L795.077 1544.91 L802.716 1544.91 L802.716 1548.85 L782.808 1548.85 L782.808 1544.91 Z" fill="#000000" fill-rule="nonzero" fill-opacity="1" /><path clip-path="url(#clip690)" d="M1258.59 1517.37 Q1254.98 1517.37 1253.15 1520.93 Q1251.35 1524.47 1251.35 1531.6 Q1251.35 1538.71 1253.15 1542.27 Q1254.98 1545.82 1258.59 1545.82 Q1262.22 1545.82 1264.03 1542.27 Q1265.86 1538.71 1265.86 1531.6 Q1265.86 1524.47 1264.03 1520.93 Q1262.22 1517.37 1258.59 1517.37 M1258.59 1513.66 Q1264.4 1513.66 1267.46 1518.27 Q1270.54 1522.85 1270.54 1531.6 Q1270.54 1540.33 1267.46 1544.94 Q1264.4 1549.52 1258.59 1549.52 Q1252.78 1549.52 1249.7 1544.94 Q1246.65 1540.33 1246.65 1531.6 Q1246.65 1522.85 1249.7 1518.27 Q1252.78 1513.66 1258.59 1513.66 Z" fill="#000000" fill-rule="nonzero" fill-opacity="1" /><path clip-path="url(#clip690)" d="M1735.09 1544.91 L1742.73 1544.91 L1742.73 1518.55 L1734.42 1520.21 L1734.42 1515.95 L1742.68 1514.29 L1747.36 1514.29 L1747.36 1544.91 L1755 1544.91 L1755 1548.85 L1735.09 1548.85 L1735.09 1544.91 Z" fill="#000000" fill-rule="nonzero" fill-opacity="1" /><path clip-path="url(#clip690)" d="M2225.48 1544.91 L2241.8 1544.91 L2241.8 1548.85 L2219.85 1548.85 L2219.85 1544.91 Q2222.52 1542.16 2227.1 1537.53 Q2231.71 1532.88 2232.89 1531.53 Q2235.13 1529.01 2236.01 1527.27 Q2236.91 1525.51 2236.91 1523.82 Q2236.91 1521.07 2234.97 1519.33 Q2233.05 1517.6 2229.95 1517.6 Q2227.75 1517.6 2225.29 1518.36 Q2222.86 1519.13 2220.09 1520.68 L2220.09 1515.95 Q2222.91 1514.82 2225.36 1514.24 Q2227.82 1513.66 2229.85 1513.66 Q2235.22 1513.66 2238.42 1516.35 Q2241.61 1519.03 2241.61 1523.52 Q2241.61 1525.65 2240.8 1527.57 Q2240.02 1529.47 2237.91 1532.07 Q2237.33 1532.74 2234.23 1535.95 Q2231.13 1539.15 2225.48 1544.91 Z" fill="#000000" fill-rule="nonzero" fill-opacity="1" /><polyline clip-path="url(#clip690)" style="stroke:#000000; stroke-linecap:round; stroke-linejoin:round; stroke-width:4; stroke-opacity:1; fill:none" points="147.478,1486.45 147.478,47.2441 "/>
<polyline clip-path="url(#clip690)" style="stroke:#000000; stroke-linecap:round; stroke-linejoin:round; stroke-width:4; stroke-opacity:1; fill:none" points="147.478,1243.87 166.376,1243.87 "/>
<polyline clip-path="url(#clip690)" style="stroke:#000000; stroke-linecap:round; stroke-linejoin:round; stroke-width:4; stroke-opacity:1; fill:none" points="147.478,907.443 166.376,907.443 "/>
<polyline clip-path="url(#clip690)" style="stroke:#000000; stroke-linecap:round; stroke-linejoin:round; stroke-width:4; stroke-opacity:1; fill:none" points="147.478,571.013 166.376,571.013 "/>
<polyline clip-path="url(#clip690)" style="stroke:#000000; stroke-linecap:round; stroke-linejoin:round; stroke-width:4; stroke-opacity:1; fill:none" points="147.478,234.583 166.376,234.583 "/>
<path clip-path="url(#clip690)" d="M50.9921 1244.32 L80.6679 1244.32 L80.6679 1248.26 L50.9921 1248.26 L50.9921 1244.32 Z" fill="#000000" fill-rule="nonzero" fill-opacity="1" /><path clip-path="url(#clip690)" d="M91.5706 1257.22 L99.2095 1257.22 L99.2095 1230.85 L90.8993 1232.52 L90.8993 1228.26 L99.1632 1226.59 L103.839 1226.59 L103.839 1257.22 L111.478 1257.22 L111.478 1261.15 L91.5706 1261.15 L91.5706 1257.22 Z" fill="#000000" fill-rule="nonzero" fill-opacity="1" /><path clip-path="url(#clip690)" d="M99.5335 893.242 Q95.9224 893.242 94.0937 896.806 Q92.2882 900.348 92.2882 907.478 Q92.2882 914.584 94.0937 918.149 Q95.9224 921.69 99.5335 921.69 Q103.168 921.69 104.973 918.149 Q106.802 914.584 106.802 907.478 Q106.802 900.348 104.973 896.806 Q103.168 893.242 99.5335 893.242 M99.5335 889.538 Q105.344 889.538 108.399 894.144 Q111.478 898.728 111.478 907.478 Q111.478 916.204 108.399 920.811 Q105.344 925.394 99.5335 925.394 Q93.7234 925.394 90.6447 920.811 Q87.5892 916.204 87.5892 907.478 Q87.5892 898.728 90.6447 894.144 Q93.7234 889.538 99.5335 889.538 Z" fill="#000000" fill-rule="nonzero" fill-opacity="1" /><path clip-path="url(#clip690)" d="M91.5706 584.358 L99.2095 584.358 L99.2095 557.992 L90.8993 559.659 L90.8993 555.4 L99.1632 553.733 L103.839 553.733 L103.839 584.358 L111.478 584.358 L111.478 588.293 L91.5706 588.293 L91.5706 584.358 Z" fill="#000000" fill-rule="nonzero" fill-opacity="1" /><path clip-path="url(#clip690)" d="M95.1586 247.928 L111.478 247.928 L111.478 251.863 L89.5336 251.863 L89.5336 247.928 Q92.1956 245.173 96.7789 240.544 Q101.385 235.891 102.566 234.548 Q104.811 232.025 105.691 230.289 Q106.594 228.53 106.594 226.84 Q106.594 224.086 104.649 222.349 Q102.728 220.613 99.6261 220.613 Q97.4271 220.613 94.9734 221.377 Q92.5428 222.141 89.7651 223.692 L89.7651 218.97 Q92.5891 217.836 95.0428 217.257 Q97.4965 216.678 99.5335 216.678 Q104.904 216.678 108.098 219.363 Q111.293 222.049 111.293 226.539 Q111.293 228.669 110.483 230.59 Q109.696 232.488 107.589 235.081 Q107.01 235.752 103.909 238.97 Q100.807 242.164 95.1586 247.928 Z" fill="#000000" fill-rule="nonzero" fill-opacity="1" /><circle clip-path="url(#clip691)" cx="1223.68" cy="1150.51" r="14.4" fill="#009af9" fill-rule="evenodd" fill-opacity="0.5" stroke="#000000" stroke-opacity="0.5" stroke-width="3.2"/>
<circle clip-path="url(#clip691)" cx="1688.29" cy="853.298" r="14.4" fill="#009af9" fill-rule="evenodd" fill-opacity="0.5" stroke="#000000" stroke-opacity="0.5" stroke-width="3.2"/>
<circle clip-path="url(#clip691)" cx="1672.88" cy="1070.45" r="14.4" fill="#009af9" fill-rule="evenodd" fill-opacity="0.5" stroke="#000000" stroke-opacity="0.5" stroke-width="3.2"/>
<circle clip-path="url(#clip691)" cx="1730.77" cy="695.187" r="14.4" fill="#009af9" fill-rule="evenodd" fill-opacity="0.5" stroke="#000000" stroke-opacity="0.5" stroke-width="3.2"/>
<circle clip-path="url(#clip691)" cx="209.891" cy="1179.22" r="14.4" fill="#009af9" fill-rule="evenodd" fill-opacity="0.5" stroke="#000000" stroke-opacity="0.5" stroke-width="3.2"/>
<circle clip-path="url(#clip691)" cx="1368.55" cy="345.108" r="14.4" fill="#009af9" fill-rule="evenodd" fill-opacity="0.5" stroke="#000000" stroke-opacity="0.5" stroke-width="3.2"/>
<circle clip-path="url(#clip691)" cx="967.484" cy="1106.75" r="14.4" fill="#009af9" fill-rule="evenodd" fill-opacity="0.5" stroke="#000000" stroke-opacity="0.5" stroke-width="3.2"/>
<circle clip-path="url(#clip691)" cx="767.835" cy="1445.72" r="14.4" fill="#009af9" fill-rule="evenodd" fill-opacity="0.5" stroke="#000000" stroke-opacity="0.5" stroke-width="3.2"/>
<circle clip-path="url(#clip691)" cx="1127.44" cy="1314.77" r="14.4" fill="#009af9" fill-rule="evenodd" fill-opacity="0.5" stroke="#000000" stroke-opacity="0.5" stroke-width="3.2"/>
<circle clip-path="url(#clip691)" cx="687.366" cy="678.229" r="14.4" fill="#009af9" fill-rule="evenodd" fill-opacity="0.5" stroke="#000000" stroke-opacity="0.5" stroke-width="3.2"/>
<circle clip-path="url(#clip691)" cx="1000.2" cy="795.279" r="14.4" fill="#009af9" fill-rule="evenodd" fill-opacity="0.5" stroke="#000000" stroke-opacity="0.5" stroke-width="3.2"/>
<circle clip-path="url(#clip691)" cx="933.808" cy="719.771" r="14.4" fill="#009af9" fill-rule="evenodd" fill-opacity="0.5" stroke="#000000" stroke-opacity="0.5" stroke-width="3.2"/>
<circle clip-path="url(#clip691)" cx="760.644" cy="845.595" r="14.4" fill="#009af9" fill-rule="evenodd" fill-opacity="0.5" stroke="#000000" stroke-opacity="0.5" stroke-width="3.2"/>
<circle clip-path="url(#clip691)" cx="1570.91" cy="1160.03" r="14.4" fill="#009af9" fill-rule="evenodd" fill-opacity="0.5" stroke="#000000" stroke-opacity="0.5" stroke-width="3.2"/>
<circle clip-path="url(#clip691)" cx="954.888" cy="702.816" r="14.4" fill="#009af9" fill-rule="evenodd" fill-opacity="0.5" stroke="#000000" stroke-opacity="0.5" stroke-width="3.2"/>
<circle clip-path="url(#clip691)" cx="1236.74" cy="846.183" r="14.4" fill="#009af9" fill-rule="evenodd" fill-opacity="0.5" stroke="#000000" stroke-opacity="0.5" stroke-width="3.2"/>
<circle clip-path="url(#clip691)" cx="2290.34" cy="943.18" r="14.4" fill="#009af9" fill-rule="evenodd" fill-opacity="0.5" stroke="#000000" stroke-opacity="0.5" stroke-width="3.2"/>
<circle clip-path="url(#clip691)" cx="1493.01" cy="225.385" r="14.4" fill="#009af9" fill-rule="evenodd" fill-opacity="0.5" stroke="#000000" stroke-opacity="0.5" stroke-width="3.2"/>
<circle clip-path="url(#clip691)" cx="1620.07" cy="1205.19" r="14.4" fill="#009af9" fill-rule="evenodd" fill-opacity="0.5" stroke="#000000" stroke-opacity="0.5" stroke-width="3.2"/>
<circle clip-path="url(#clip691)" cx="1929.14" cy="1338.39" r="14.4" fill="#009af9" fill-rule="evenodd" fill-opacity="0.5" stroke="#000000" stroke-opacity="0.5" stroke-width="3.2"/>
<circle clip-path="url(#clip691)" cx="913.976" cy="1019.84" r="14.4" fill="#009af9" fill-rule="evenodd" fill-opacity="0.5" stroke="#000000" stroke-opacity="0.5" stroke-width="3.2"/>
<circle clip-path="url(#clip691)" cx="1533.54" cy="87.9763" r="14.4" fill="#009af9" fill-rule="evenodd" fill-opacity="0.5" stroke="#000000" stroke-opacity="0.5" stroke-width="3.2"/>
<circle clip-path="url(#clip691)" cx="288.967" cy="375.094" r="14.4" fill="#009af9" fill-rule="evenodd" fill-opacity="0.5" stroke="#000000" stroke-opacity="0.5" stroke-width="3.2"/>
<circle clip-path="url(#clip691)" cx="1325.88" cy="1304.94" r="14.4" fill="#009af9" fill-rule="evenodd" fill-opacity="0.5" stroke="#000000" stroke-opacity="0.5" stroke-width="3.2"/>
<circle clip-path="url(#clip691)" cx="2083.22" cy="306.157" r="14.4" fill="#009af9" fill-rule="evenodd" fill-opacity="0.5" stroke="#000000" stroke-opacity="0.5" stroke-width="3.2"/>
<circle clip-path="url(#clip691)" cx="1696.84" cy="968.232" r="14.4" fill="#009af9" fill-rule="evenodd" fill-opacity="0.5" stroke="#000000" stroke-opacity="0.5" stroke-width="3.2"/>
<circle clip-path="url(#clip691)" cx="2140.43" cy="667.848" r="14.4" fill="#009af9" fill-rule="evenodd" fill-opacity="0.5" stroke="#000000" stroke-opacity="0.5" stroke-width="3.2"/>
<circle clip-path="url(#clip691)" cx="1093.43" cy="699.127" r="14.4" fill="#009af9" fill-rule="evenodd" fill-opacity="0.5" stroke="#000000" stroke-opacity="0.5" stroke-width="3.2"/>
<circle clip-path="url(#clip691)" cx="1434.3" cy="1050.57" r="14.4" fill="#009af9" fill-rule="evenodd" fill-opacity="0.5" stroke="#000000" stroke-opacity="0.5" stroke-width="3.2"/>
<circle clip-path="url(#clip691)" cx="1036.07" cy="621.209" r="14.4" fill="#009af9" fill-rule="evenodd" fill-opacity="0.5" stroke="#000000" stroke-opacity="0.5" stroke-width="3.2"/>
<path clip-path="url(#clip691)" d="M209.891 1179.22 L767.835 1445.72 L1929.14 1338.39 L2290.34 943.18 L2083.22 306.157 L1533.54 87.9763 L288.967 375.094 L209.891 1179.22 L209.891 1179.22  Z" fill="#e26f46" fill-rule="evenodd" fill-opacity="0.2"/>
<polyline clip-path="url(#clip691)" style="stroke:#000000; stroke-linecap:round; stroke-linejoin:round; stroke-width:4; stroke-opacity:0.2; fill:none" points="209.891,1179.22 767.835,1445.72 1929.14,1338.39 2290.34,943.18 2083.22,306.157 1533.54,87.9763 288.967,375.094 209.891,1179.22 "/>
</svg>
