<?xml version="1.0" encoding="utf-8"?>
<svg xmlns="http://www.w3.org/2000/svg" xmlns:xlink="http://www.w3.org/1999/xlink" width="600" height="400" viewBox="0 0 2400 1600">
<defs>
  <clipPath id="clip840">
    <rect x="0" y="0" width="2400" height="1600"/>
  </clipPath>
</defs>
<path clip-path="url(#clip840)" d="M0 1600 L2400 1600 L2400 0 L0 0  Z" fill="#ffffff" fill-rule="evenodd" fill-opacity="1"/>
<defs>
  <clipPath id="clip841">
    <rect x="147" y="47" width="2206" height="1440"/>
  </clipPath>
</defs>
<path clip-path="url(#clip840)" d="M147.478 1486.45 L2352.76 1486.45 L2352.76 47.2441 L147.478 47.2441  Z" fill="#ffffff" fill-rule="evenodd" fill-opacity="1"/>
<polyline clip-path="url(#clip841)" style="stroke:#000000; stroke-linecap:round; stroke-linejoin:round; stroke-width:2; stroke-opacity:0.1; fill:none" points="439.606,1486.45 439.606,47.2441 "/>
<polyline clip-path="url(#clip841)" style="stroke:#000000; stroke-linecap:round; stroke-linejoin:round; stroke-width:2; stroke-opacity:0.1; fill:none" points="879.679,1486.45 879.679,47.2441 "/>
<polyline clip-path="url(#clip841)" style="stroke:#000000; stroke-linecap:round; stroke-linejoin:round; stroke-width:2; stroke-opacity:0.1; fill:none" points="1319.75,1486.45 1319.75,47.2441 "/>
<polyline clip-path="url(#clip841)" style="stroke:#000000; stroke-linecap:round; stroke-linejoin:round; stroke-width:2; stroke-opacity:0.1; fill:none" points="1759.83,1486.45 1759.83,47.2441 "/>
<polyline clip-path="url(#clip841)" style="stroke:#000000; stroke-linecap:round; stroke-linejoin:round; stroke-width:2; stroke-opacity:0.1; fill:none" points="2199.9,1486.45 2199.9,47.2441 "/>
<polyline clip-path="url(#clip841)" style="stroke:#000000; stroke-linecap:round; stroke-linejoin:round; stroke-width:2; stroke-opacity:0.1; fill:none" points="147.478,1213.47 2352.76,1213.47 "/>
<polyline clip-path="url(#clip841)" style="stroke:#000000; stroke-linecap:round; stroke-linejoin:round; stroke-width:2; stroke-opacity:0.1; fill:none" points="147.478,898.244 2352.76,898.244 "/>
<polyline clip-path="url(#clip841)" style="stroke:#000000; stroke-linecap:round; stroke-linejoin:round; stroke-width:2; stroke-opacity:0.1; fill:none" points="147.478,583.021 2352.76,583.021 "/>
<polyline clip-path="url(#clip841)" style="stroke:#000000; stroke-linecap:round; stroke-linejoin:round; stroke-width:2; stroke-opacity:0.1; fill:none" points="147.478,267.798 2352.76,267.798 "/>
<polyline clip-path="url(#clip840)" style="stroke:#000000; stroke-linecap:round; stroke-linejoin:round; stroke-width:4; stroke-opacity:1; fill:none" points="147.478,1486.45 2352.76,1486.45 "/>
<polyline clip-path="url(#clip840)" style="stroke:#000000; stroke-linecap:round; stroke-linejoin:round; stroke-width:4; stroke-opacity:1; fill:none" points="439.606,1486.45 439.606,1467.55 "/>
<polyline clip-path="url(#clip840)" style="stroke:#000000; stroke-linecap:round; stroke-linejoin:round; stroke-width:4; stroke-opacity:1; fill:none" points="879.679,1486.45 879.679,1467.55 "/>
<polyline clip-path="url(#clip840)" style="stroke:#000000; stroke-linecap:round; stroke-linejoin:round; stroke-width:4; stroke-opacity:1; fill:none" points="1319.75,1486.45 1319.75,1467.55 "/>
<polyline clip-path="url(#clip840)" style="stroke:#000000; stroke-linecap:round; stroke-linejoin:round; stroke-width:4; stroke-opacity:1; fill:none" points="1759.83,1486.45 1759.83,1467.55 "/>
<polyline clip-path="url(#clip840)" style="stroke:#000000; stroke-linecap:round; stroke-linejoin:round; stroke-width:4; stroke-opacity:1; fill:none" points="2199.9,1486.45 2199.9,1467.55 "/>
<path clip-path="url(#clip840)" d="M409.549 1532.02 L439.224 1532.02 L439.224 1535.95 L409.549 1535.95 L409.549 1532.02 Z" fill="#000000" fill-rule="nonzero" fill-opacity="1" /><path clip-path="url(#clip840)" d="M453.345 1544.91 L469.664 1544.91 L469.664 1548.85 L447.72 1548.85 L447.72 1544.91 Q450.382 1542.16 454.965 1537.53 Q459.571 1532.88 460.752 1531.53 Q462.997 1529.01 463.877 1527.27 Q464.78 1525.51 464.78 1523.82 Q464.78 1521.07 462.835 1519.33 Q460.914 1517.6 457.812 1517.6 Q455.613 1517.6 453.159 1518.36 Q450.729 1519.13 447.951 1520.68 L447.951 1515.95 Q450.775 1514.82 453.229 1514.24 Q455.683 1513.66 457.72 1513.66 Q463.09 1513.66 466.284 1516.35 Q469.479 1519.03 469.479 1523.52 Q469.479 1525.65 468.669 1527.57 Q467.882 1529.47 465.775 1532.07 Q465.196 1532.74 462.095 1535.95 Q458.993 1539.15 453.345 1544.91 Z" fill="#000000" fill-rule="nonzero" fill-opacity="1" /><path clip-path="url(#clip840)" d="M849.437 1532.02 L879.112 1532.02 L879.112 1535.95 L849.437 1535.95 L849.437 1532.02 Z" fill="#000000" fill-rule="nonzero" fill-opacity="1" /><path clip-path="url(#clip840)" d="M890.015 1544.91 L897.654 1544.91 L897.654 1518.55 L889.344 1520.21 L889.344 1515.95 L897.608 1514.29 L902.283 1514.29 L902.283 1544.91 L909.922 1544.91 L909.922 1548.85 L890.015 1548.85 L890.015 1544.91 Z" fill="#000000" fill-rule="nonzero" fill-opacity="1" /><path clip-path="url(#clip840)" d="M1319.75 1517.37 Q1316.14 1517.37 1314.31 1520.93 Q1312.51 1524.47 1312.51 1531.6 Q1312.51 1538.71 1314.31 1542.27 Q1316.14 1545.82 1319.75 1545.82 Q1323.39 1545.82 1325.19 1542.27 Q1327.02 1538.71 1327.02 1531.6 Q1327.02 1524.47 1325.19 1520.93 Q1323.39 1517.37 1319.75 1517.37 M1319.75 1513.66 Q1325.56 1513.66 1328.62 1518.27 Q1331.7 1522.85 1331.7 1531.6 Q1331.7 1540.33 1328.62 1544.94 Q1325.56 1549.52 1319.75 1549.52 Q1313.94 1549.52 1310.86 1544.94 Q1307.81 1540.33 1307.81 1531.6 Q1307.81 1522.85 1310.86 1518.27 Q1313.94 1513.66 1319.75 1513.66 Z" fill="#000000" fill-rule="nonzero" fill-opacity="1" /><path clip-path="url(#clip840)" d="M1750.21 1544.91 L1757.85 1544.91 L1757.85 1518.55 L1749.54 1520.21 L1749.54 1515.95 L1757.8 1514.29 L1762.48 1514.29 L1762.48 1544.91 L1770.11 1544.91 L1770.11 1548.85 L1750.21 1548.85 L1750.21 1544.91 Z" fill="#000000" fill-rule="nonzero" fill-opacity="1" /><path clip-path="url(#clip840)" d="M2194.55 1544.91 L2210.87 1544.91 L2210.87 1548.85 L2188.93 1548.85 L2188.93 1544.91 Q2191.59 1542.16 2196.17 1537.53 Q2200.78 1532.88 2201.96 1531.53 Q2204.2 1529.01 2205.08 1527.27 Q2205.99 1525.51 2205.99 1523.82 Q2205.99 1521.07 2204.04 1519.33 Q2202.12 1517.6 2199.02 1517.6 Q2196.82 1517.6 2194.37 1518.36 Q2191.94 1519.13 2189.16 1520.68 L2189.16 1515.95 Q2191.98 1514.82 2194.44 1514.24 Q2196.89 1513.66 2198.93 1513.66 Q2204.3 1513.66 2207.49 1516.35 Q2210.69 1519.03 2210.69 1523.52 Q2210.69 1525.65 2209.88 1527.57 Q2209.09 1529.47 2206.98 1532.07 Q2206.4 1532.74 2203.3 1535.95 Q2200.2 1539.15 2194.55 1544.91 Z" fill="#000000" fill-rule="nonzero" fill-opacity="1" /><polyline clip-path="url(#clip840)" style="stroke:#000000; stroke-linecap:round; stroke-linejoin:round; stroke-width:4; stroke-opacity:1; fill:none" points="147.478,1486.45 147.478,47.2441 "/>
<polyline clip-path="url(#clip840)" style="stroke:#000000; stroke-linecap:round; stroke-linejoin:round; stroke-width:4; stroke-opacity:1; fill:none" points="147.478,1213.47 166.376,1213.47 "/>
<polyline clip-path="url(#clip840)" style="stroke:#000000; stroke-linecap:round; stroke-linejoin:round; stroke-width:4; stroke-opacity:1; fill:none" points="147.478,898.244 166.376,898.244 "/>
<polyline clip-path="url(#clip840)" style="stroke:#000000; stroke-linecap:round; stroke-linejoin:round; stroke-width:4; stroke-opacity:1; fill:none" points="147.478,583.021 166.376,583.021 "/>
<polyline clip-path="url(#clip840)" style="stroke:#000000; stroke-linecap:round; stroke-linejoin:round; stroke-width:4; stroke-opacity:1; fill:none" points="147.478,267.798 166.376,267.798 "/>
<path clip-path="url(#clip840)" d="M50.9921 1213.92 L80.6679 1213.92 L80.6679 1217.85 L50.9921 1217.85 L50.9921 1213.92 Z" fill="#000000" fill-rule="nonzero" fill-opacity="1" /><path clip-path="url(#clip840)" d="M91.5706 1226.81 L99.2095 1226.81 L99.2095 1200.45 L90.8993 1202.11 L90.8993 1197.85 L99.1632 1196.19 L103.839 1196.19 L103.839 1226.81 L111.478 1226.81 L111.478 1230.75 L91.5706 1230.75 L91.5706 1226.81 Z" fill="#000000" fill-rule="nonzero" fill-opacity="1" /><path clip-path="url(#clip840)" d="M99.5335 884.042 Q95.9224 884.042 94.0937 887.607 Q92.2882 891.149 92.2882 898.278 Q92.2882 905.385 94.0937 908.95 Q95.9224 912.491 99.5335 912.491 Q103.168 912.491 104.973 908.95 Q106.802 905.385 106.802 898.278 Q106.802 891.149 104.973 887.607 Q103.168 884.042 99.5335 884.042 M99.5335 880.339 Q105.344 880.339 108.399 884.945 Q111.478 889.528 111.478 898.278 Q111.478 907.005 108.399 911.612 Q105.344 916.195 99.5335 916.195 Q93.7234 916.195 90.6447 911.612 Q87.5892 907.005 87.5892 898.278 Q87.5892 889.528 90.6447 884.945 Q93.7234 880.339 99.5335 880.339 Z" fill="#000000" fill-rule="nonzero" fill-opacity="1" /><path clip-path="url(#clip840)" d="M91.5706 596.366 L99.2095 596.366 L99.2095 570 L90.8993 571.667 L90.8993 567.408 L99.1632 565.741 L103.839 565.741 L103.839 596.366 L111.478 596.366 L111.478 600.301 L91.5706 600.301 L91.5706 596.366 Z" fill="#000000" fill-rule="nonzero" fill-opacity="1" /><path clip-path="url(#clip840)" d="M95.1586 281.143 L111.478 281.143 L111.478 285.078 L89.5336 285.078 L89.5336 281.143 Q92.1956 278.388 96.7789 273.759 Q101.385 269.106 102.566 267.764 Q104.811 265.24 105.691 263.504 Q106.594 261.745 106.594 260.055 Q106.594 257.301 104.649 255.565 Q102.728 253.828 99.6261 253.828 Q97.4271 253.828 94.9734 254.592 Q92.5428 255.356 89.7651 256.907 L89.7651 252.185 Q92.5891 251.051 95.0428 250.472 Q97.4965 249.893 99.5335 249.893 Q104.904 249.893 108.098 252.578 Q111.293 255.264 111.293 259.754 Q111.293 261.884 110.483 263.805 Q109.696 265.703 107.589 268.296 Q107.01 268.967 103.909 272.185 Q100.807 275.379 95.1586 281.143 Z" fill="#000000" fill-rule="nonzero" fill-opacity="1" /><circle clip-path="url(#clip841)" cx="1416.64" cy="710.429" r="14.4" fill="#009af9" fill-rule="evenodd" fill-opacity="0.5" stroke="#000000" stroke-opacity="0.5" stroke-width="3.2"/>
<circle clip-path="url(#clip841)" cx="1368.97" cy="978.985" r="14.4" fill="#009af9" fill-rule="evenodd" fill-opacity="0.5" stroke="#000000" stroke-opacity="0.5" stroke-width="3.2"/>
<circle clip-path="url(#clip841)" cx="595.733" cy="942.581" r="14.4" fill="#009af9" fill-rule="evenodd" fill-opacity="0.5" stroke="#000000" stroke-opacity="0.5" stroke-width="3.2"/>
<circle clip-path="url(#clip841)" cx="1591.8" cy="87.9763" r="14.4" fill="#009af9" fill-rule="evenodd" fill-opacity="0.5" stroke="#000000" stroke-opacity="0.5" stroke-width="3.2"/>
<circle clip-path="url(#clip841)" cx="1405.3" cy="901.539" r="14.4" fill="#009af9" fill-rule="evenodd" fill-opacity="0.5" stroke="#000000" stroke-opacity="0.5" stroke-width="3.2"/>
<circle clip-path="url(#clip841)" cx="1890.65" cy="634.539" r="14.4" fill="#009af9" fill-rule="evenodd" fill-opacity="0.5" stroke="#000000" stroke-opacity="0.5" stroke-width="3.2"/>
<circle clip-path="url(#clip841)" cx="1127.32" cy="691.472" r="14.4" fill="#009af9" fill-rule="evenodd" fill-opacity="0.5" stroke="#000000" stroke-opacity="0.5" stroke-width="3.2"/>
<circle clip-path="url(#clip841)" cx="1346.97" cy="1160.45" r="14.4" fill="#009af9" fill-rule="evenodd" fill-opacity="0.5" stroke="#000000" stroke-opacity="0.5" stroke-width="3.2"/>
<circle clip-path="url(#clip841)" cx="1467.21" cy="879.773" r="14.4" fill="#009af9" fill-rule="evenodd" fill-opacity="0.5" stroke="#000000" stroke-opacity="0.5" stroke-width="3.2"/>
<circle clip-path="url(#clip841)" cx="630.819" cy="1350.07" r="14.4" fill="#009af9" fill-rule="evenodd" fill-opacity="0.5" stroke="#000000" stroke-opacity="0.5" stroke-width="3.2"/>
<circle clip-path="url(#clip841)" cx="1148.55" cy="908.418" r="14.4" fill="#009af9" fill-rule="evenodd" fill-opacity="0.5" stroke="#000000" stroke-opacity="0.5" stroke-width="3.2"/>
<circle clip-path="url(#clip841)" cx="1863.51" cy="781.344" r="14.4" fill="#009af9" fill-rule="evenodd" fill-opacity="0.5" stroke="#000000" stroke-opacity="0.5" stroke-width="3.2"/>
<circle clip-path="url(#clip841)" cx="209.891" cy="676.782" r="14.4" fill="#009af9" fill-rule="evenodd" fill-opacity="0.5" stroke="#000000" stroke-opacity="0.5" stroke-width="3.2"/>
<circle clip-path="url(#clip841)" cx="256.729" cy="1035.58" r="14.4" fill="#009af9" fill-rule="evenodd" fill-opacity="0.5" stroke="#000000" stroke-opacity="0.5" stroke-width="3.2"/>
<circle clip-path="url(#clip841)" cx="739.002" cy="1445.72" r="14.4" fill="#009af9" fill-rule="evenodd" fill-opacity="0.5" stroke="#000000" stroke-opacity="0.5" stroke-width="3.2"/>
<circle clip-path="url(#clip841)" cx="2178.86" cy="1139.11" r="14.4" fill="#009af9" fill-rule="evenodd" fill-opacity="0.5" stroke="#000000" stroke-opacity="0.5" stroke-width="3.2"/>
<circle clip-path="url(#clip841)" cx="1127.05" cy="877.03" r="14.4" fill="#009af9" fill-rule="evenodd" fill-opacity="0.5" stroke="#000000" stroke-opacity="0.5" stroke-width="3.2"/>
<circle clip-path="url(#clip841)" cx="2290.34" cy="935.071" r="14.4" fill="#009af9" fill-rule="evenodd" fill-opacity="0.5" stroke="#000000" stroke-opacity="0.5" stroke-width="3.2"/>
<circle clip-path="url(#clip841)" cx="956.309" cy="934.893" r="14.4" fill="#009af9" fill-rule="evenodd" fill-opacity="0.5" stroke="#000000" stroke-opacity="0.5" stroke-width="3.2"/>
<circle clip-path="url(#clip841)" cx="1287.68" cy="666.376" r="14.4" fill="#009af9" fill-rule="evenodd" fill-opacity="0.5" stroke="#000000" stroke-opacity="0.5" stroke-width="3.2"/>
<circle clip-path="url(#clip841)" cx="1970.03" cy="494.837" r="14.4" fill="#009af9" fill-rule="evenodd" fill-opacity="0.5" stroke="#000000" stroke-opacity="0.5" stroke-width="3.2"/>
<circle clip-path="url(#clip841)" cx="1197.41" cy="1087.48" r="14.4" fill="#009af9" fill-rule="evenodd" fill-opacity="0.5" stroke="#000000" stroke-opacity="0.5" stroke-width="3.2"/>
<circle clip-path="url(#clip841)" cx="242.856" cy="856.91" r="14.4" fill="#009af9" fill-rule="evenodd" fill-opacity="0.5" stroke="#000000" stroke-opacity="0.5" stroke-width="3.2"/>
<circle clip-path="url(#clip841)" cx="1622.05" cy="913.754" r="14.4" fill="#009af9" fill-rule="evenodd" fill-opacity="0.5" stroke="#000000" stroke-opacity="0.5" stroke-width="3.2"/>
<circle clip-path="url(#clip841)" cx="873.758" cy="807.838" r="14.4" fill="#009af9" fill-rule="evenodd" fill-opacity="0.5" stroke="#000000" stroke-opacity="0.5" stroke-width="3.2"/>
<circle clip-path="url(#clip841)" cx="798.567" cy="778.168" r="14.4" fill="#009af9" fill-rule="evenodd" fill-opacity="0.5" stroke="#000000" stroke-opacity="0.5" stroke-width="3.2"/>
<circle clip-path="url(#clip841)" cx="1754.46" cy="888.923" r="14.4" fill="#009af9" fill-rule="evenodd" fill-opacity="0.5" stroke="#000000" stroke-opacity="0.5" stroke-width="3.2"/>
<circle clip-path="url(#clip841)" cx="1416.25" cy="1201.28" r="14.4" fill="#009af9" fill-rule="evenodd" fill-opacity="0.5" stroke="#000000" stroke-opacity="0.5" stroke-width="3.2"/>
<circle clip-path="url(#clip841)" cx="891.857" cy="777.858" r="14.4" fill="#009af9" fill-rule="evenodd" fill-opacity="0.5" stroke="#000000" stroke-opacity="0.5" stroke-width="3.2"/>
<circle clip-path="url(#clip841)" cx="762.001" cy="826.813" r="14.4" fill="#009af9" fill-rule="evenodd" fill-opacity="0.5" stroke="#000000" stroke-opacity="0.5" stroke-width="3.2"/>
<path clip-path="url(#clip841)" d="M209.891 676.782 L256.729 1035.58 L739.002 1445.72 L2178.86 1139.11 L2290.34 935.071 L1970.03 494.837 L1591.8 87.9763 L209.891 676.782 L209.891 676.782  Z" fill="#e26f46" fill-rule="evenodd" fill-opacity="0.2"/>
<polyline clip-path="url(#clip841)" style="stroke:#000000; stroke-linecap:round; stroke-linejoin:round; stroke-width:4; stroke-opacity:0.2; fill:none" points="209.891,676.782 256.729,1035.58 739.002,1445.72 2178.86,1139.11 2290.34,935.071 1970.03,494.837 1591.8,87.9763 209.891,676.782 "/>
</svg>
