<?xml version="1.0" encoding="utf-8"?>
<svg xmlns="http://www.w3.org/2000/svg" xmlns:xlink="http://www.w3.org/1999/xlink" width="600" height="400" viewBox="0 0 2400 1600">
<defs>
  <clipPath id="clip360">
    <rect x="0" y="0" width="2400" height="1600"/>
  </clipPath>
</defs>
<path clip-path="url(#clip360)" d="M0 1600 L2400 1600 L2400 0 L0 0  Z" fill="#ffffff" fill-rule="evenodd" fill-opacity="1"/>
<defs>
  <clipPath id="clip361">
    <rect x="147" y="47" width="2206" height="1440"/>
  </clipPath>
</defs>
<path clip-path="url(#clip360)" d="M147.478 1486.45 L2352.76 1486.45 L2352.76 47.2441 L147.478 47.2441  Z" fill="#ffffff" fill-rule="evenodd" fill-opacity="1"/>
<polyline clip-path="url(#clip361)" style="stroke:#000000; stroke-linecap:round; stroke-linejoin:round; stroke-width:2; stroke-opacity:0.1; fill:none" points="257.726,1486.45 257.726,47.2441 "/>
<polyline clip-path="url(#clip361)" style="stroke:#000000; stroke-linecap:round; stroke-linejoin:round; stroke-width:2; stroke-opacity:0.1; fill:none" points="820.578,1486.45 820.578,47.2441 "/>
<polyline clip-path="url(#clip361)" style="stroke:#000000; stroke-linecap:round; stroke-linejoin:round; stroke-width:2; stroke-opacity:0.1; fill:none" points="1383.43,1486.45 1383.43,47.2441 "/>
<polyline clip-path="url(#clip361)" style="stroke:#000000; stroke-linecap:round; stroke-linejoin:round; stroke-width:2; stroke-opacity:0.1; fill:none" points="1946.28,1486.45 1946.28,47.2441 "/>
<polyline clip-path="url(#clip361)" style="stroke:#000000; stroke-linecap:round; stroke-linejoin:round; stroke-width:2; stroke-opacity:0.1; fill:none" points="147.478,1334.77 2352.76,1334.77 "/>
<polyline clip-path="url(#clip361)" style="stroke:#000000; stroke-linecap:round; stroke-linejoin:round; stroke-width:2; stroke-opacity:0.1; fill:none" points="147.478,1042.12 2352.76,1042.12 "/>
<polyline clip-path="url(#clip361)" style="stroke:#000000; stroke-linecap:round; stroke-linejoin:round; stroke-width:2; stroke-opacity:0.1; fill:none" points="147.478,749.467 2352.76,749.467 "/>
<polyline clip-path="url(#clip361)" style="stroke:#000000; stroke-linecap:round; stroke-linejoin:round; stroke-width:2; stroke-opacity:0.1; fill:none" points="147.478,456.814 2352.76,456.814 "/>
<polyline clip-path="url(#clip361)" style="stroke:#000000; stroke-linecap:round; stroke-linejoin:round; stroke-width:2; stroke-opacity:0.1; fill:none" points="147.478,164.161 2352.76,164.161 "/>
<polyline clip-path="url(#clip360)" style="stroke:#000000; stroke-linecap:round; stroke-linejoin:round; stroke-width:4; stroke-opacity:1; fill:none" points="147.478,1486.45 2352.76,1486.45 "/>
<polyline clip-path="url(#clip360)" style="stroke:#000000; stroke-linecap:round; stroke-linejoin:round; stroke-width:4; stroke-opacity:1; fill:none" points="257.726,1486.45 257.726,1467.55 "/>
<polyline clip-path="url(#clip360)" style="stroke:#000000; stroke-linecap:round; stroke-linejoin:round; stroke-width:4; stroke-opacity:1; fill:none" points="820.578,1486.45 820.578,1467.55 "/>
<polyline clip-path="url(#clip360)" style="stroke:#000000; stroke-linecap:round; stroke-linejoin:round; stroke-width:4; stroke-opacity:1; fill:none" points="1383.43,1486.45 1383.43,1467.55 "/>
<polyline clip-path="url(#clip360)" style="stroke:#000000; stroke-linecap:round; stroke-linejoin:round; stroke-width:4; stroke-opacity:1; fill:none" points="1946.28,1486.45 1946.28,1467.55 "/>
<path clip-path="url(#clip360)" d="M227.668 1532.02 L257.344 1532.02 L257.344 1535.95 L227.668 1535.95 L227.668 1532.02 Z" fill="#000000" fill-rule="nonzero" fill-opacity="1" /><path clip-path="url(#clip360)" d="M271.464 1544.91 L287.784 1544.91 L287.784 1548.85 L265.839 1548.85 L265.839 1544.91 Q268.501 1542.16 273.085 1537.53 Q277.691 1532.88 278.872 1531.53 Q281.117 1529.01 281.997 1527.27 Q282.899 1525.51 282.899 1523.82 Q282.899 1521.07 280.955 1519.33 Q279.034 1517.6 275.932 1517.6 Q273.733 1517.6 271.279 1518.36 Q268.849 1519.13 266.071 1520.68 L266.071 1515.95 Q268.895 1514.82 271.349 1514.24 Q273.802 1513.66 275.839 1513.66 Q281.21 1513.66 284.404 1516.35 Q287.598 1519.03 287.598 1523.52 Q287.598 1525.65 286.788 1527.57 Q286.001 1529.47 283.895 1532.07 Q283.316 1532.74 280.214 1535.95 Q277.112 1539.15 271.464 1544.91 Z" fill="#000000" fill-rule="nonzero" fill-opacity="1" /><path clip-path="url(#clip360)" d="M790.335 1532.02 L820.01 1532.02 L820.01 1535.95 L790.335 1535.95 L790.335 1532.02 Z" fill="#000000" fill-rule="nonzero" fill-opacity="1" /><path clip-path="url(#clip360)" d="M830.913 1544.91 L838.552 1544.91 L838.552 1518.55 L830.242 1520.21 L830.242 1515.95 L838.506 1514.29 L843.182 1514.29 L843.182 1544.91 L850.82 1544.91 L850.82 1548.85 L830.913 1548.85 L830.913 1544.91 Z" fill="#000000" fill-rule="nonzero" fill-opacity="1" /><path clip-path="url(#clip360)" d="M1383.43 1517.37 Q1379.82 1517.37 1377.99 1520.93 Q1376.18 1524.47 1376.18 1531.6 Q1376.18 1538.71 1377.99 1542.27 Q1379.82 1545.82 1383.43 1545.82 Q1387.06 1545.82 1388.87 1542.27 Q1390.7 1538.71 1390.7 1531.6 Q1390.7 1524.47 1388.87 1520.93 Q1387.06 1517.37 1383.43 1517.37 M1383.43 1513.66 Q1389.24 1513.66 1392.29 1518.27 Q1395.37 1522.85 1395.37 1531.6 Q1395.37 1540.33 1392.29 1544.94 Q1389.24 1549.52 1383.43 1549.52 Q1377.62 1549.52 1374.54 1544.94 Q1371.48 1540.33 1371.48 1531.6 Q1371.48 1522.85 1374.54 1518.27 Q1377.62 1513.66 1383.43 1513.66 Z" fill="#000000" fill-rule="nonzero" fill-opacity="1" /><path clip-path="url(#clip360)" d="M1936.66 1544.91 L1944.3 1544.91 L1944.3 1518.55 L1935.99 1520.21 L1935.99 1515.95 L1944.26 1514.29 L1948.93 1514.29 L1948.93 1544.91 L1956.57 1544.91 L1956.57 1548.85 L1936.66 1548.85 L1936.66 1544.91 Z" fill="#000000" fill-rule="nonzero" fill-opacity="1" /><polyline clip-path="url(#clip360)" style="stroke:#000000; stroke-linecap:round; stroke-linejoin:round; stroke-width:4; stroke-opacity:1; fill:none" points="147.478,1486.45 147.478,47.2441 "/>
<polyline clip-path="url(#clip360)" style="stroke:#000000; stroke-linecap:round; stroke-linejoin:round; stroke-width:4; stroke-opacity:1; fill:none" points="147.478,1334.77 166.376,1334.77 "/>
<polyline clip-path="url(#clip360)" style="stroke:#000000; stroke-linecap:round; stroke-linejoin:round; stroke-width:4; stroke-opacity:1; fill:none" points="147.478,1042.12 166.376,1042.12 "/>
<polyline clip-path="url(#clip360)" style="stroke:#000000; stroke-linecap:round; stroke-linejoin:round; stroke-width:4; stroke-opacity:1; fill:none" points="147.478,749.467 166.376,749.467 "/>
<polyline clip-path="url(#clip360)" style="stroke:#000000; stroke-linecap:round; stroke-linejoin:round; stroke-width:4; stroke-opacity:1; fill:none" points="147.478,456.814 166.376,456.814 "/>
<polyline clip-path="url(#clip360)" style="stroke:#000000; stroke-linecap:round; stroke-linejoin:round; stroke-width:4; stroke-opacity:1; fill:none" points="147.478,164.161 166.376,164.161 "/>
<path clip-path="url(#clip360)" d="M51.3625 1335.22 L81.0383 1335.22 L81.0383 1339.16 L51.3625 1339.16 L51.3625 1335.22 Z" fill="#000000" fill-rule="nonzero" fill-opacity="1" /><path clip-path="url(#clip360)" d="M95.1586 1348.12 L111.478 1348.12 L111.478 1352.05 L89.5336 1352.05 L89.5336 1348.12 Q92.1956 1345.36 96.7789 1340.73 Q101.385 1336.08 102.566 1334.74 Q104.811 1332.22 105.691 1330.48 Q106.594 1328.72 106.594 1327.03 Q106.594 1324.28 104.649 1322.54 Q102.728 1320.8 99.6261 1320.8 Q97.4271 1320.8 94.9734 1321.57 Q92.5428 1322.33 89.7651 1323.88 L89.7651 1319.16 Q92.5891 1318.03 95.0428 1317.45 Q97.4965 1316.87 99.5335 1316.87 Q104.904 1316.87 108.098 1319.55 Q111.293 1322.24 111.293 1326.73 Q111.293 1328.86 110.483 1330.78 Q109.696 1332.68 107.589 1335.27 Q107.01 1335.94 103.909 1339.16 Q100.807 1342.35 95.1586 1348.12 Z" fill="#000000" fill-rule="nonzero" fill-opacity="1" /><path clip-path="url(#clip360)" d="M50.9921 1042.57 L80.6679 1042.57 L80.6679 1046.51 L50.9921 1046.51 L50.9921 1042.57 Z" fill="#000000" fill-rule="nonzero" fill-opacity="1" /><path clip-path="url(#clip360)" d="M91.5706 1055.46 L99.2095 1055.46 L99.2095 1029.1 L90.8993 1030.77 L90.8993 1026.51 L99.1632 1024.84 L103.839 1024.84 L103.839 1055.46 L111.478 1055.46 L111.478 1059.4 L91.5706 1059.4 L91.5706 1055.46 Z" fill="#000000" fill-rule="nonzero" fill-opacity="1" /><path clip-path="url(#clip360)" d="M99.5335 735.266 Q95.9224 735.266 94.0937 738.83 Q92.2882 742.372 92.2882 749.502 Q92.2882 756.608 94.0937 760.173 Q95.9224 763.715 99.5335 763.715 Q103.168 763.715 104.973 760.173 Q106.802 756.608 106.802 749.502 Q106.802 742.372 104.973 738.83 Q103.168 735.266 99.5335 735.266 M99.5335 731.562 Q105.344 731.562 108.399 736.168 Q111.478 740.752 111.478 749.502 Q111.478 758.228 108.399 762.835 Q105.344 767.418 99.5335 767.418 Q93.7234 767.418 90.6447 762.835 Q87.5892 758.228 87.5892 749.502 Q87.5892 740.752 90.6447 736.168 Q93.7234 731.562 99.5335 731.562 Z" fill="#000000" fill-rule="nonzero" fill-opacity="1" /><path clip-path="url(#clip360)" d="M91.5706 470.159 L99.2095 470.159 L99.2095 443.793 L90.8993 445.46 L90.8993 441.201 L99.1632 439.534 L103.839 439.534 L103.839 470.159 L111.478 470.159 L111.478 474.094 L91.5706 474.094 L91.5706 470.159 Z" fill="#000000" fill-rule="nonzero" fill-opacity="1" /><path clip-path="url(#clip360)" d="M95.1586 177.506 L111.478 177.506 L111.478 181.441 L89.5336 181.441 L89.5336 177.506 Q92.1956 174.751 96.7789 170.122 Q101.385 165.469 102.566 164.126 Q104.811 161.603 105.691 159.867 Q106.594 158.108 106.594 156.418 Q106.594 153.663 104.649 151.927 Q102.728 150.191 99.6261 150.191 Q97.4271 150.191 94.9734 150.955 Q92.5428 151.719 89.7651 153.27 L89.7651 148.548 Q92.5891 147.413 95.0428 146.835 Q97.4965 146.256 99.5335 146.256 Q104.904 146.256 108.098 148.941 Q111.293 151.626 111.293 156.117 Q111.293 158.247 110.483 160.168 Q109.696 162.066 107.589 164.659 Q107.01 165.33 103.909 168.547 Q100.807 171.742 95.1586 177.506 Z" fill="#000000" fill-rule="nonzero" fill-opacity="1" /><circle clip-path="url(#clip361)" cx="2290.34" cy="360.48" r="14.4" fill="#009af9" fill-rule="evenodd" fill-opacity="0.5" stroke="#000000" stroke-opacity="0.5" stroke-width="3.2"/>
<circle clip-path="url(#clip361)" cx="1445.03" cy="738.459" r="14.4" fill="#009af9" fill-rule="evenodd" fill-opacity="0.5" stroke="#000000" stroke-opacity="0.5" stroke-width="3.2"/>
<circle clip-path="url(#clip361)" cx="1009.36" cy="852.503" r="14.4" fill="#009af9" fill-rule="evenodd" fill-opacity="0.5" stroke="#000000" stroke-opacity="0.5" stroke-width="3.2"/>
<circle clip-path="url(#clip361)" cx="1202.41" cy="1445.72" r="14.4" fill="#009af9" fill-rule="evenodd" fill-opacity="0.5" stroke="#000000" stroke-opacity="0.5" stroke-width="3.2"/>
<circle clip-path="url(#clip361)" cx="374.211" cy="890.3" r="14.4" fill="#009af9" fill-rule="evenodd" fill-opacity="0.5" stroke="#000000" stroke-opacity="0.5" stroke-width="3.2"/>
<circle clip-path="url(#clip361)" cx="2009.38" cy="1016.62" r="14.4" fill="#009af9" fill-rule="evenodd" fill-opacity="0.5" stroke="#000000" stroke-opacity="0.5" stroke-width="3.2"/>
<circle clip-path="url(#clip361)" cx="1708.56" cy="508.838" r="14.4" fill="#009af9" fill-rule="evenodd" fill-opacity="0.5" stroke="#000000" stroke-opacity="0.5" stroke-width="3.2"/>
<circle clip-path="url(#clip361)" cx="877.748" cy="599.885" r="14.4" fill="#009af9" fill-rule="evenodd" fill-opacity="0.5" stroke="#000000" stroke-opacity="0.5" stroke-width="3.2"/>
<circle clip-path="url(#clip361)" cx="1738.39" cy="768.469" r="14.4" fill="#009af9" fill-rule="evenodd" fill-opacity="0.5" stroke="#000000" stroke-opacity="0.5" stroke-width="3.2"/>
<circle clip-path="url(#clip361)" cx="209.891" cy="1296.5" r="14.4" fill="#009af9" fill-rule="evenodd" fill-opacity="0.5" stroke="#000000" stroke-opacity="0.5" stroke-width="3.2"/>
<circle clip-path="url(#clip361)" cx="988.206" cy="747.491" r="14.4" fill="#009af9" fill-rule="evenodd" fill-opacity="0.5" stroke="#000000" stroke-opacity="0.5" stroke-width="3.2"/>
<circle clip-path="url(#clip361)" cx="1993.2" cy="1270.73" r="14.4" fill="#009af9" fill-rule="evenodd" fill-opacity="0.5" stroke="#000000" stroke-opacity="0.5" stroke-width="3.2"/>
<circle clip-path="url(#clip361)" cx="1917.98" cy="831.543" r="14.4" fill="#009af9" fill-rule="evenodd" fill-opacity="0.5" stroke="#000000" stroke-opacity="0.5" stroke-width="3.2"/>
<circle clip-path="url(#clip361)" cx="1711.63" cy="450.67" r="14.4" fill="#009af9" fill-rule="evenodd" fill-opacity="0.5" stroke="#000000" stroke-opacity="0.5" stroke-width="3.2"/>
<circle clip-path="url(#clip361)" cx="1281.5" cy="87.9763" r="14.4" fill="#009af9" fill-rule="evenodd" fill-opacity="0.5" stroke="#000000" stroke-opacity="0.5" stroke-width="3.2"/>
<circle clip-path="url(#clip361)" cx="1412.12" cy="149.758" r="14.4" fill="#009af9" fill-rule="evenodd" fill-opacity="0.5" stroke="#000000" stroke-opacity="0.5" stroke-width="3.2"/>
<circle clip-path="url(#clip361)" cx="1013.81" cy="391.217" r="14.4" fill="#009af9" fill-rule="evenodd" fill-opacity="0.5" stroke="#000000" stroke-opacity="0.5" stroke-width="3.2"/>
<circle clip-path="url(#clip361)" cx="1484.43" cy="936.485" r="14.4" fill="#009af9" fill-rule="evenodd" fill-opacity="0.5" stroke="#000000" stroke-opacity="0.5" stroke-width="3.2"/>
<circle clip-path="url(#clip361)" cx="1372.89" cy="765.004" r="14.4" fill="#009af9" fill-rule="evenodd" fill-opacity="0.5" stroke="#000000" stroke-opacity="0.5" stroke-width="3.2"/>
<circle clip-path="url(#clip361)" cx="1877.03" cy="803.454" r="14.4" fill="#009af9" fill-rule="evenodd" fill-opacity="0.5" stroke="#000000" stroke-opacity="0.5" stroke-width="3.2"/>
<circle clip-path="url(#clip361)" cx="1078.69" cy="871.423" r="14.4" fill="#009af9" fill-rule="evenodd" fill-opacity="0.5" stroke="#000000" stroke-opacity="0.5" stroke-width="3.2"/>
<circle clip-path="url(#clip361)" cx="732.377" cy="581.831" r="14.4" fill="#009af9" fill-rule="evenodd" fill-opacity="0.5" stroke="#000000" stroke-opacity="0.5" stroke-width="3.2"/>
<circle clip-path="url(#clip361)" cx="1760.53" cy="1001.93" r="14.4" fill="#009af9" fill-rule="evenodd" fill-opacity="0.5" stroke="#000000" stroke-opacity="0.5" stroke-width="3.2"/>
<circle clip-path="url(#clip361)" cx="522.293" cy="823.245" r="14.4" fill="#009af9" fill-rule="evenodd" fill-opacity="0.5" stroke="#000000" stroke-opacity="0.5" stroke-width="3.2"/>
<circle clip-path="url(#clip361)" cx="1537.49" cy="581.061" r="14.4" fill="#009af9" fill-rule="evenodd" fill-opacity="0.5" stroke="#000000" stroke-opacity="0.5" stroke-width="3.2"/>
<circle clip-path="url(#clip361)" cx="1592.29" cy="1270.28" r="14.4" fill="#009af9" fill-rule="evenodd" fill-opacity="0.5" stroke="#000000" stroke-opacity="0.5" stroke-width="3.2"/>
<circle clip-path="url(#clip361)" cx="1969.25" cy="1275.74" r="14.4" fill="#009af9" fill-rule="evenodd" fill-opacity="0.5" stroke="#000000" stroke-opacity="0.5" stroke-width="3.2"/>
<circle clip-path="url(#clip361)" cx="1294.18" cy="634.114" r="14.4" fill="#009af9" fill-rule="evenodd" fill-opacity="0.5" stroke="#000000" stroke-opacity="0.5" stroke-width="3.2"/>
<circle clip-path="url(#clip361)" cx="1731.23" cy="1248.93" r="14.4" fill="#009af9" fill-rule="evenodd" fill-opacity="0.5" stroke="#000000" stroke-opacity="0.5" stroke-width="3.2"/>
<circle clip-path="url(#clip361)" cx="1098.21" cy="161.741" r="14.4" fill="#009af9" fill-rule="evenodd" fill-opacity="0.5" stroke="#000000" stroke-opacity="0.5" stroke-width="3.2"/>
<path clip-path="url(#clip361)" d="M209.891 1296.5 L1202.41 1445.72 L1993.2 1270.73 L2290.34 360.48 L1281.5 87.9763 L1098.21 161.741 L374.211 890.3 L209.891 1296.5 L209.891 1296.5  Z" fill="#e26f46" fill-rule="evenodd" fill-opacity="0.2"/>
<polyline clip-path="url(#clip361)" style="stroke:#000000; stroke-linecap:round; stroke-linejoin:round; stroke-width:4; stroke-opacity:0.2; fill:none" points="209.891,1296.5 1202.41,1445.72 1993.2,1270.73 2290.34,360.48 1281.5,87.9763 1098.21,161.741 374.211,890.3 209.891,1296.5 "/>
</svg>
