<?xml version="1.0" encoding="utf-8"?>
<svg xmlns="http://www.w3.org/2000/svg" xmlns:xlink="http://www.w3.org/1999/xlink" width="600" height="400" viewBox="0 0 2400 1600">
<defs>
  <clipPath id="clip500">
    <rect x="0" y="0" width="2400" height="1600"/>
  </clipPath>
</defs>
<path clip-path="url(#clip500)" d="M0 1600 L2400 1600 L2400 0 L0 0  Z" fill="#ffffff" fill-rule="evenodd" fill-opacity="1"/>
<defs>
  <clipPath id="clip501">
    <rect x="480" y="0" width="1681" height="1600"/>
  </clipPath>
</defs>
<path clip-path="url(#clip500)" d="M147.478 1486.45 L2352.76 1486.45 L2352.76 47.2441 L147.478 47.2441  Z" fill="#ffffff" fill-rule="evenodd" fill-opacity="1"/>
<defs>
  <clipPath id="clip502">
    <rect x="147" y="47" width="2206" height="1440"/>
  </clipPath>
</defs>
<polyline clip-path="url(#clip502)" style="stroke:#000000; stroke-linecap:round; stroke-linejoin:round; stroke-width:2; stroke-opacity:0.1; fill:none" points="151.927,1486.45 151.927,47.2441 "/>
<polyline clip-path="url(#clip502)" style="stroke:#000000; stroke-linecap:round; stroke-linejoin:round; stroke-width:2; stroke-opacity:0.1; fill:none" points="716.524,1486.45 716.524,47.2441 "/>
<polyline clip-path="url(#clip502)" style="stroke:#000000; stroke-linecap:round; stroke-linejoin:round; stroke-width:2; stroke-opacity:0.1; fill:none" points="1281.12,1486.45 1281.12,47.2441 "/>
<polyline clip-path="url(#clip502)" style="stroke:#000000; stroke-linecap:round; stroke-linejoin:round; stroke-width:2; stroke-opacity:0.1; fill:none" points="1845.72,1486.45 1845.72,47.2441 "/>
<polyline clip-path="url(#clip502)" style="stroke:#000000; stroke-linecap:round; stroke-linejoin:round; stroke-width:2; stroke-opacity:0.1; fill:none" points="147.478,1293.54 2352.76,1293.54 "/>
<polyline clip-path="url(#clip502)" style="stroke:#000000; stroke-linecap:round; stroke-linejoin:round; stroke-width:2; stroke-opacity:0.1; fill:none" points="147.478,1034.79 2352.76,1034.79 "/>
<polyline clip-path="url(#clip502)" style="stroke:#000000; stroke-linecap:round; stroke-linejoin:round; stroke-width:2; stroke-opacity:0.1; fill:none" points="147.478,776.035 2352.76,776.035 "/>
<polyline clip-path="url(#clip502)" style="stroke:#000000; stroke-linecap:round; stroke-linejoin:round; stroke-width:2; stroke-opacity:0.1; fill:none" points="147.478,517.28 2352.76,517.28 "/>
<polyline clip-path="url(#clip502)" style="stroke:#000000; stroke-linecap:round; stroke-linejoin:round; stroke-width:2; stroke-opacity:0.1; fill:none" points="147.478,258.525 2352.76,258.525 "/>
<polyline clip-path="url(#clip500)" style="stroke:#000000; stroke-linecap:round; stroke-linejoin:round; stroke-width:4; stroke-opacity:1; fill:none" points="147.478,1486.45 2352.76,1486.45 "/>
<polyline clip-path="url(#clip500)" style="stroke:#000000; stroke-linecap:round; stroke-linejoin:round; stroke-width:4; stroke-opacity:1; fill:none" points="151.927,1486.45 151.927,1467.55 "/>
<polyline clip-path="url(#clip500)" style="stroke:#000000; stroke-linecap:round; stroke-linejoin:round; stroke-width:4; stroke-opacity:1; fill:none" points="716.524,1486.45 716.524,1467.55 "/>
<polyline clip-path="url(#clip500)" style="stroke:#000000; stroke-linecap:round; stroke-linejoin:round; stroke-width:4; stroke-opacity:1; fill:none" points="1281.12,1486.45 1281.12,1467.55 "/>
<polyline clip-path="url(#clip500)" style="stroke:#000000; stroke-linecap:round; stroke-linejoin:round; stroke-width:4; stroke-opacity:1; fill:none" points="1845.72,1486.45 1845.72,1467.55 "/>
<path clip-path="url(#clip500)" d="M121.869 1532.02 L151.545 1532.02 L151.545 1535.95 L121.869 1535.95 L121.869 1532.02 Z" fill="#000000" fill-rule="nonzero" fill-opacity="1" /><path clip-path="url(#clip500)" d="M165.665 1544.91 L181.985 1544.91 L181.985 1548.85 L160.04 1548.85 L160.04 1544.91 Q162.702 1542.16 167.286 1537.53 Q171.892 1532.88 173.073 1531.53 Q175.318 1529.01 176.198 1527.27 Q177.1 1525.51 177.1 1523.82 Q177.1 1521.07 175.156 1519.33 Q173.235 1517.6 170.133 1517.6 Q167.934 1517.6 165.48 1518.36 Q163.05 1519.13 160.272 1520.68 L160.272 1515.95 Q163.096 1514.82 165.549 1514.24 Q168.003 1513.66 170.04 1513.66 Q175.411 1513.66 178.605 1516.35 Q181.799 1519.03 181.799 1523.52 Q181.799 1525.65 180.989 1527.57 Q180.202 1529.47 178.096 1532.07 Q177.517 1532.74 174.415 1535.95 Q171.313 1539.15 165.665 1544.91 Z" fill="#000000" fill-rule="nonzero" fill-opacity="1" /><path clip-path="url(#clip500)" d="M686.281 1532.02 L715.957 1532.02 L715.957 1535.95 L686.281 1535.95 L686.281 1532.02 Z" fill="#000000" fill-rule="nonzero" fill-opacity="1" /><path clip-path="url(#clip500)" d="M726.859 1544.91 L734.498 1544.91 L734.498 1518.55 L726.188 1520.21 L726.188 1515.95 L734.452 1514.29 L739.128 1514.29 L739.128 1544.91 L746.767 1544.91 L746.767 1548.85 L726.859 1548.85 L726.859 1544.91 Z" fill="#000000" fill-rule="nonzero" fill-opacity="1" /><path clip-path="url(#clip500)" d="M1281.12 1517.37 Q1277.51 1517.37 1275.68 1520.93 Q1273.88 1524.47 1273.88 1531.6 Q1273.88 1538.71 1275.68 1542.27 Q1277.51 1545.82 1281.12 1545.82 Q1284.75 1545.82 1286.56 1542.27 Q1288.39 1538.71 1288.39 1531.6 Q1288.39 1524.47 1286.56 1520.93 Q1284.75 1517.37 1281.12 1517.37 M1281.12 1513.66 Q1286.93 1513.66 1289.99 1518.27 Q1293.06 1522.85 1293.06 1531.6 Q1293.06 1540.33 1289.99 1544.94 Q1286.93 1549.52 1281.12 1549.52 Q1275.31 1549.52 1272.23 1544.94 Q1269.18 1540.33 1269.18 1531.6 Q1269.18 1522.85 1272.23 1518.27 Q1275.31 1513.66 1281.12 1513.66 Z" fill="#000000" fill-rule="nonzero" fill-opacity="1" /><path clip-path="url(#clip500)" d="M1836.1 1544.91 L1843.74 1544.91 L1843.74 1518.55 L1835.43 1520.21 L1835.43 1515.95 L1843.69 1514.29 L1848.37 1514.29 L1848.37 1544.91 L1856.01 1544.91 L1856.01 1548.85 L1836.1 1548.85 L1836.1 1544.91 Z" fill="#000000" fill-rule="nonzero" fill-opacity="1" /><polyline clip-path="url(#clip500)" style="stroke:#000000; stroke-linecap:round; stroke-linejoin:round; stroke-width:4; stroke-opacity:1; fill:none" points="147.478,1486.45 147.478,47.2441 "/>
<polyline clip-path="url(#clip500)" style="stroke:#000000; stroke-linecap:round; stroke-linejoin:round; stroke-width:4; stroke-opacity:1; fill:none" points="147.478,1293.54 166.376,1293.54 "/>
<polyline clip-path="url(#clip500)" style="stroke:#000000; stroke-linecap:round; stroke-linejoin:round; stroke-width:4; stroke-opacity:1; fill:none" points="147.478,1034.79 166.376,1034.79 "/>
<polyline clip-path="url(#clip500)" style="stroke:#000000; stroke-linecap:round; stroke-linejoin:round; stroke-width:4; stroke-opacity:1; fill:none" points="147.478,776.035 166.376,776.035 "/>
<polyline clip-path="url(#clip500)" style="stroke:#000000; stroke-linecap:round; stroke-linejoin:round; stroke-width:4; stroke-opacity:1; fill:none" points="147.478,517.28 166.376,517.28 "/>
<polyline clip-path="url(#clip500)" style="stroke:#000000; stroke-linecap:round; stroke-linejoin:round; stroke-width:4; stroke-opacity:1; fill:none" points="147.478,258.525 166.376,258.525 "/>
<path clip-path="url(#clip500)" d="M51.3625 1294 L81.0383 1294 L81.0383 1297.93 L51.3625 1297.93 L51.3625 1294 Z" fill="#000000" fill-rule="nonzero" fill-opacity="1" /><path clip-path="url(#clip500)" d="M95.1586 1306.89 L111.478 1306.89 L111.478 1310.82 L89.5336 1310.82 L89.5336 1306.89 Q92.1956 1304.13 96.7789 1299.51 Q101.385 1294.85 102.566 1293.51 Q104.811 1290.99 105.691 1289.25 Q106.594 1287.49 106.594 1285.8 Q106.594 1283.05 104.649 1281.31 Q102.728 1279.57 99.6261 1279.57 Q97.4271 1279.57 94.9734 1280.34 Q92.5428 1281.1 89.7651 1282.65 L89.7651 1277.93 Q92.5891 1276.8 95.0428 1276.22 Q97.4965 1275.64 99.5335 1275.64 Q104.904 1275.64 108.098 1278.32 Q111.293 1281.01 111.293 1285.5 Q111.293 1287.63 110.483 1289.55 Q109.696 1291.45 107.589 1294.04 Q107.01 1294.71 103.909 1297.93 Q100.807 1301.13 95.1586 1306.89 Z" fill="#000000" fill-rule="nonzero" fill-opacity="1" /><path clip-path="url(#clip500)" d="M50.9921 1035.24 L80.6679 1035.24 L80.6679 1039.18 L50.9921 1039.18 L50.9921 1035.24 Z" fill="#000000" fill-rule="nonzero" fill-opacity="1" /><path clip-path="url(#clip500)" d="M91.5706 1048.13 L99.2095 1048.13 L99.2095 1021.77 L90.8993 1023.44 L90.8993 1019.18 L99.1632 1017.51 L103.839 1017.51 L103.839 1048.13 L111.478 1048.13 L111.478 1052.07 L91.5706 1052.07 L91.5706 1048.13 Z" fill="#000000" fill-rule="nonzero" fill-opacity="1" /><path clip-path="url(#clip500)" d="M99.5335 761.834 Q95.9224 761.834 94.0937 765.399 Q92.2882 768.94 92.2882 776.07 Q92.2882 783.176 94.0937 786.741 Q95.9224 790.283 99.5335 790.283 Q103.168 790.283 104.973 786.741 Q106.802 783.176 106.802 776.07 Q106.802 768.94 104.973 765.399 Q103.168 761.834 99.5335 761.834 M99.5335 758.13 Q105.344 758.13 108.399 762.737 Q111.478 767.32 111.478 776.07 Q111.478 784.797 108.399 789.403 Q105.344 793.986 99.5335 793.986 Q93.7234 793.986 90.6447 789.403 Q87.5892 784.797 87.5892 776.07 Q87.5892 767.32 90.6447 762.737 Q93.7234 758.13 99.5335 758.13 Z" fill="#000000" fill-rule="nonzero" fill-opacity="1" /><path clip-path="url(#clip500)" d="M91.5706 530.625 L99.2095 530.625 L99.2095 504.259 L90.8993 505.926 L90.8993 501.667 L99.1632 500 L103.839 500 L103.839 530.625 L111.478 530.625 L111.478 534.56 L91.5706 534.56 L91.5706 530.625 Z" fill="#000000" fill-rule="nonzero" fill-opacity="1" /><path clip-path="url(#clip500)" d="M95.1586 271.87 L111.478 271.87 L111.478 275.805 L89.5336 275.805 L89.5336 271.87 Q92.1956 269.116 96.7789 264.486 Q101.385 259.833 102.566 258.491 Q104.811 255.968 105.691 254.231 Q106.594 252.472 106.594 250.782 Q106.594 248.028 104.649 246.292 Q102.728 244.556 99.6261 244.556 Q97.4271 244.556 94.9734 245.319 Q92.5428 246.083 89.7651 247.634 L89.7651 242.912 Q92.5891 241.778 95.0428 241.199 Q97.4965 240.62 99.5335 240.62 Q104.904 240.62 108.098 243.306 Q111.293 245.991 111.293 250.481 Q111.293 252.611 110.483 254.532 Q109.696 256.431 107.589 259.023 Q107.01 259.694 103.909 262.912 Q100.807 266.106 95.1586 271.87 Z" fill="#000000" fill-rule="nonzero" fill-opacity="1" /><circle clip-path="url(#clip502)" cx="230.779" cy="508.245" r="14.4" fill="#009af9" fill-rule="evenodd" fill-opacity="0.5" stroke="#000000" stroke-opacity="0.5" stroke-width="3.2"/>
<circle clip-path="url(#clip502)" cx="1358.88" cy="1211.34" r="14.4" fill="#009af9" fill-rule="evenodd" fill-opacity="0.5" stroke="#000000" stroke-opacity="0.5" stroke-width="3.2"/>
<circle clip-path="url(#clip502)" cx="1561.22" cy="684.931" r="14.4" fill="#009af9" fill-rule="evenodd" fill-opacity="0.5" stroke="#000000" stroke-opacity="0.5" stroke-width="3.2"/>
<circle clip-path="url(#clip502)" cx="1337.03" cy="400.301" r="14.4" fill="#009af9" fill-rule="evenodd" fill-opacity="0.5" stroke="#000000" stroke-opacity="0.5" stroke-width="3.2"/>
<circle clip-path="url(#clip502)" cx="2290.34" cy="876.974" r="14.4" fill="#009af9" fill-rule="evenodd" fill-opacity="0.5" stroke="#000000" stroke-opacity="0.5" stroke-width="3.2"/>
<circle clip-path="url(#clip502)" cx="1378.49" cy="575.295" r="14.4" fill="#009af9" fill-rule="evenodd" fill-opacity="0.5" stroke="#000000" stroke-opacity="0.5" stroke-width="3.2"/>
<circle clip-path="url(#clip502)" cx="846.853" cy="744.004" r="14.4" fill="#009af9" fill-rule="evenodd" fill-opacity="0.5" stroke="#000000" stroke-opacity="0.5" stroke-width="3.2"/>
<circle clip-path="url(#clip502)" cx="1399.72" cy="1445.72" r="14.4" fill="#009af9" fill-rule="evenodd" fill-opacity="0.5" stroke="#000000" stroke-opacity="0.5" stroke-width="3.2"/>
<circle clip-path="url(#clip502)" cx="675.452" cy="886.569" r="14.4" fill="#009af9" fill-rule="evenodd" fill-opacity="0.5" stroke="#000000" stroke-opacity="0.5" stroke-width="3.2"/>
<circle clip-path="url(#clip502)" cx="1210.97" cy="522.814" r="14.4" fill="#009af9" fill-rule="evenodd" fill-opacity="0.5" stroke="#000000" stroke-opacity="0.5" stroke-width="3.2"/>
<circle clip-path="url(#clip502)" cx="1700.36" cy="618.655" r="14.4" fill="#009af9" fill-rule="evenodd" fill-opacity="0.5" stroke="#000000" stroke-opacity="0.5" stroke-width="3.2"/>
<circle clip-path="url(#clip502)" cx="1104.54" cy="87.9763" r="14.4" fill="#009af9" fill-rule="evenodd" fill-opacity="0.5" stroke="#000000" stroke-opacity="0.5" stroke-width="3.2"/>
<circle clip-path="url(#clip502)" cx="473.136" cy="815.857" r="14.4" fill="#009af9" fill-rule="evenodd" fill-opacity="0.5" stroke="#000000" stroke-opacity="0.5" stroke-width="3.2"/>
<circle clip-path="url(#clip502)" cx="551.743" cy="816.539" r="14.4" fill="#009af9" fill-rule="evenodd" fill-opacity="0.5" stroke="#000000" stroke-opacity="0.5" stroke-width="3.2"/>
<circle clip-path="url(#clip502)" cx="1349.01" cy="631" r="14.4" fill="#009af9" fill-rule="evenodd" fill-opacity="0.5" stroke="#000000" stroke-opacity="0.5" stroke-width="3.2"/>
<circle clip-path="url(#clip502)" cx="386.713" cy="1006.73" r="14.4" fill="#009af9" fill-rule="evenodd" fill-opacity="0.5" stroke="#000000" stroke-opacity="0.5" stroke-width="3.2"/>
<circle clip-path="url(#clip502)" cx="1653.23" cy="889.377" r="14.4" fill="#009af9" fill-rule="evenodd" fill-opacity="0.5" stroke="#000000" stroke-opacity="0.5" stroke-width="3.2"/>
<circle clip-path="url(#clip502)" cx="974.093" cy="700.016" r="14.4" fill="#009af9" fill-rule="evenodd" fill-opacity="0.5" stroke="#000000" stroke-opacity="0.5" stroke-width="3.2"/>
<circle clip-path="url(#clip502)" cx="1599.53" cy="959.682" r="14.4" fill="#009af9" fill-rule="evenodd" fill-opacity="0.5" stroke="#000000" stroke-opacity="0.5" stroke-width="3.2"/>
<circle clip-path="url(#clip502)" cx="825.534" cy="525.646" r="14.4" fill="#009af9" fill-rule="evenodd" fill-opacity="0.5" stroke="#000000" stroke-opacity="0.5" stroke-width="3.2"/>
<circle clip-path="url(#clip502)" cx="1586.67" cy="912.263" r="14.4" fill="#009af9" fill-rule="evenodd" fill-opacity="0.5" stroke="#000000" stroke-opacity="0.5" stroke-width="3.2"/>
<circle clip-path="url(#clip502)" cx="1228.51" cy="559.24" r="14.4" fill="#009af9" fill-rule="evenodd" fill-opacity="0.5" stroke="#000000" stroke-opacity="0.5" stroke-width="3.2"/>
<circle clip-path="url(#clip502)" cx="897.714" cy="957.03" r="14.4" fill="#009af9" fill-rule="evenodd" fill-opacity="0.5" stroke="#000000" stroke-opacity="0.5" stroke-width="3.2"/>
<circle clip-path="url(#clip502)" cx="209.891" cy="786.215" r="14.4" fill="#009af9" fill-rule="evenodd" fill-opacity="0.5" stroke="#000000" stroke-opacity="0.5" stroke-width="3.2"/>
<circle clip-path="url(#clip502)" cx="1893.88" cy="778.234" r="14.4" fill="#009af9" fill-rule="evenodd" fill-opacity="0.5" stroke="#000000" stroke-opacity="0.5" stroke-width="3.2"/>
<circle clip-path="url(#clip502)" cx="1347.56" cy="519.691" r="14.4" fill="#009af9" fill-rule="evenodd" fill-opacity="0.5" stroke="#000000" stroke-opacity="0.5" stroke-width="3.2"/>
<circle clip-path="url(#clip502)" cx="705.522" cy="851.675" r="14.4" fill="#009af9" fill-rule="evenodd" fill-opacity="0.5" stroke="#000000" stroke-opacity="0.5" stroke-width="3.2"/>
<circle clip-path="url(#clip502)" cx="491.179" cy="390.67" r="14.4" fill="#009af9" fill-rule="evenodd" fill-opacity="0.5" stroke="#000000" stroke-opacity="0.5" stroke-width="3.2"/>
<circle clip-path="url(#clip502)" cx="1176.93" cy="793.441" r="14.4" fill="#009af9" fill-rule="evenodd" fill-opacity="0.5" stroke="#000000" stroke-opacity="0.5" stroke-width="3.2"/>
<circle clip-path="url(#clip502)" cx="380.067" cy="1089.07" r="14.4" fill="#009af9" fill-rule="evenodd" fill-opacity="0.5" stroke="#000000" stroke-opacity="0.5" stroke-width="3.2"/>
<path clip-path="url(#clip502)" d="M209.891 786.215 L380.067 1089.07 L1399.72 1445.72 L2290.34 876.974 L1104.54 87.9763 L230.779 508.245 L209.891 786.215 L209.891 786.215  Z" fill="#e26f46" fill-rule="evenodd" fill-opacity="0.2"/>
<polyline clip-path="url(#clip502)" style="stroke:#000000; stroke-linecap:round; stroke-linejoin:round; stroke-width:4; stroke-opacity:0.2; fill:none" points="209.891,786.215 380.067,1089.07 1399.72,1445.72 2290.34,876.974 1104.54,87.9763 230.779,508.245 209.891,786.215 "/>
</svg>
