<?xml version="1.0" encoding="utf-8"?>
<svg xmlns="http://www.w3.org/2000/svg" xmlns:xlink="http://www.w3.org/1999/xlink" width="600" height="400" viewBox="0 0 2400 1600">
<defs>
  <clipPath id="clip400">
    <rect x="0" y="0" width="2400" height="1600"/>
  </clipPath>
</defs>
<path clip-path="url(#clip400)" d="M0 1600 L2400 1600 L2400 0 L0 0  Z" fill="#ffffff" fill-rule="evenodd" fill-opacity="1"/>
<defs>
  <clipPath id="clip401">
    <rect x="147" y="47" width="2206" height="1440"/>
  </clipPath>
</defs>
<path clip-path="url(#clip400)" d="M147.478 1486.45 L2352.76 1486.45 L2352.76 47.2441 L147.478 47.2441  Z" fill="#ffffff" fill-rule="evenodd" fill-opacity="1"/>
<polyline clip-path="url(#clip401)" style="stroke:#000000; stroke-linecap:round; stroke-linejoin:round; stroke-width:2; stroke-opacity:0.1; fill:none" points="264.264,1486.45 264.264,47.2441 "/>
<polyline clip-path="url(#clip401)" style="stroke:#000000; stroke-linecap:round; stroke-linejoin:round; stroke-width:2; stroke-opacity:0.1; fill:none" points="578.913,1486.45 578.913,47.2441 "/>
<polyline clip-path="url(#clip401)" style="stroke:#000000; stroke-linecap:round; stroke-linejoin:round; stroke-width:2; stroke-opacity:0.1; fill:none" points="893.562,1486.45 893.562,47.2441 "/>
<polyline clip-path="url(#clip401)" style="stroke:#000000; stroke-linecap:round; stroke-linejoin:round; stroke-width:2; stroke-opacity:0.1; fill:none" points="1208.21,1486.45 1208.21,47.2441 "/>
<polyline clip-path="url(#clip401)" style="stroke:#000000; stroke-linecap:round; stroke-linejoin:round; stroke-width:2; stroke-opacity:0.1; fill:none" points="1522.86,1486.45 1522.86,47.2441 "/>
<polyline clip-path="url(#clip401)" style="stroke:#000000; stroke-linecap:round; stroke-linejoin:round; stroke-width:2; stroke-opacity:0.1; fill:none" points="1837.51,1486.45 1837.51,47.2441 "/>
<polyline clip-path="url(#clip401)" style="stroke:#000000; stroke-linecap:round; stroke-linejoin:round; stroke-width:2; stroke-opacity:0.1; fill:none" points="2152.16,1486.45 2152.16,47.2441 "/>
<polyline clip-path="url(#clip401)" style="stroke:#000000; stroke-linecap:round; stroke-linejoin:round; stroke-width:2; stroke-opacity:0.1; fill:none" points="147.478,1196.85 2352.76,1196.85 "/>
<polyline clip-path="url(#clip401)" style="stroke:#000000; stroke-linecap:round; stroke-linejoin:round; stroke-width:2; stroke-opacity:0.1; fill:none" points="147.478,888.153 2352.76,888.153 "/>
<polyline clip-path="url(#clip401)" style="stroke:#000000; stroke-linecap:round; stroke-linejoin:round; stroke-width:2; stroke-opacity:0.1; fill:none" points="147.478,579.457 2352.76,579.457 "/>
<polyline clip-path="url(#clip401)" style="stroke:#000000; stroke-linecap:round; stroke-linejoin:round; stroke-width:2; stroke-opacity:0.1; fill:none" points="147.478,270.761 2352.76,270.761 "/>
<polyline clip-path="url(#clip400)" style="stroke:#000000; stroke-linecap:round; stroke-linejoin:round; stroke-width:4; stroke-opacity:1; fill:none" points="147.478,1486.45 2352.76,1486.45 "/>
<polyline clip-path="url(#clip400)" style="stroke:#000000; stroke-linecap:round; stroke-linejoin:round; stroke-width:4; stroke-opacity:1; fill:none" points="264.264,1486.45 264.264,1467.55 "/>
<polyline clip-path="url(#clip400)" style="stroke:#000000; stroke-linecap:round; stroke-linejoin:round; stroke-width:4; stroke-opacity:1; fill:none" points="578.913,1486.45 578.913,1467.55 "/>
<polyline clip-path="url(#clip400)" style="stroke:#000000; stroke-linecap:round; stroke-linejoin:round; stroke-width:4; stroke-opacity:1; fill:none" points="893.562,1486.45 893.562,1467.55 "/>
<polyline clip-path="url(#clip400)" style="stroke:#000000; stroke-linecap:round; stroke-linejoin:round; stroke-width:4; stroke-opacity:1; fill:none" points="1208.21,1486.45 1208.21,1467.55 "/>
<polyline clip-path="url(#clip400)" style="stroke:#000000; stroke-linecap:round; stroke-linejoin:round; stroke-width:4; stroke-opacity:1; fill:none" points="1522.86,1486.45 1522.86,1467.55 "/>
<polyline clip-path="url(#clip400)" style="stroke:#000000; stroke-linecap:round; stroke-linejoin:round; stroke-width:4; stroke-opacity:1; fill:none" points="1837.51,1486.45 1837.51,1467.55 "/>
<polyline clip-path="url(#clip400)" style="stroke:#000000; stroke-linecap:round; stroke-linejoin:round; stroke-width:4; stroke-opacity:1; fill:none" points="2152.16,1486.45 2152.16,1467.55 "/>
<path clip-path="url(#clip400)" d="M233.732 1532.02 L263.407 1532.02 L263.407 1535.95 L233.732 1535.95 L233.732 1532.02 Z" fill="#000000" fill-rule="nonzero" fill-opacity="1" /><path clip-path="url(#clip400)" d="M287.666 1530.21 Q291.023 1530.93 292.898 1533.2 Q294.796 1535.47 294.796 1538.8 Q294.796 1543.92 291.278 1546.72 Q287.759 1549.52 281.278 1549.52 Q279.102 1549.52 276.787 1549.08 Q274.495 1548.66 272.042 1547.81 L272.042 1543.29 Q273.986 1544.43 276.301 1545.01 Q278.616 1545.58 281.139 1545.58 Q285.537 1545.58 287.828 1543.85 Q290.143 1542.11 290.143 1538.8 Q290.143 1535.75 287.991 1534.03 Q285.861 1532.3 282.041 1532.3 L278.014 1532.3 L278.014 1528.45 L282.227 1528.45 Q285.676 1528.45 287.504 1527.09 Q289.333 1525.7 289.333 1523.11 Q289.333 1520.45 287.435 1519.03 Q285.56 1517.6 282.041 1517.6 Q280.12 1517.6 277.921 1518.01 Q275.722 1518.43 273.083 1519.31 L273.083 1515.14 Q275.745 1514.4 278.06 1514.03 Q280.398 1513.66 282.458 1513.66 Q287.782 1513.66 290.884 1516.09 Q293.986 1518.5 293.986 1522.62 Q293.986 1525.49 292.342 1527.48 Q290.699 1529.45 287.666 1530.21 Z" fill="#000000" fill-rule="nonzero" fill-opacity="1" /><path clip-path="url(#clip400)" d="M548.855 1532.02 L578.531 1532.02 L578.531 1535.95 L548.855 1535.95 L548.855 1532.02 Z" fill="#000000" fill-rule="nonzero" fill-opacity="1" /><path clip-path="url(#clip400)" d="M592.651 1544.91 L608.97 1544.91 L608.97 1548.85 L587.026 1548.85 L587.026 1544.91 Q589.688 1542.16 594.271 1537.53 Q598.878 1532.88 600.058 1531.53 Q602.304 1529.01 603.183 1527.27 Q604.086 1525.51 604.086 1523.82 Q604.086 1521.07 602.142 1519.33 Q600.221 1517.6 597.119 1517.6 Q594.92 1517.6 592.466 1518.36 Q590.035 1519.13 587.258 1520.68 L587.258 1515.95 Q590.082 1514.82 592.535 1514.24 Q594.989 1513.66 597.026 1513.66 Q602.396 1513.66 605.591 1516.35 Q608.785 1519.03 608.785 1523.52 Q608.785 1525.65 607.975 1527.57 Q607.188 1529.47 605.082 1532.07 Q604.503 1532.74 601.401 1535.95 Q598.299 1539.15 592.651 1544.91 Z" fill="#000000" fill-rule="nonzero" fill-opacity="1" /><path clip-path="url(#clip400)" d="M863.319 1532.02 L892.995 1532.02 L892.995 1535.95 L863.319 1535.95 L863.319 1532.02 Z" fill="#000000" fill-rule="nonzero" fill-opacity="1" /><path clip-path="url(#clip400)" d="M903.897 1544.91 L911.536 1544.91 L911.536 1518.55 L903.226 1520.21 L903.226 1515.95 L911.49 1514.29 L916.166 1514.29 L916.166 1544.91 L923.805 1544.91 L923.805 1548.85 L903.897 1548.85 L903.897 1544.91 Z" fill="#000000" fill-rule="nonzero" fill-opacity="1" /><path clip-path="url(#clip400)" d="M1208.21 1517.37 Q1204.6 1517.37 1202.77 1520.93 Q1200.97 1524.47 1200.97 1531.6 Q1200.97 1538.71 1202.77 1542.27 Q1204.6 1545.82 1208.21 1545.82 Q1211.84 1545.82 1213.65 1542.27 Q1215.48 1538.71 1215.48 1531.6 Q1215.48 1524.47 1213.65 1520.93 Q1211.84 1517.37 1208.21 1517.37 M1208.21 1513.66 Q1214.02 1513.66 1217.08 1518.27 Q1220.16 1522.85 1220.16 1531.6 Q1220.16 1540.33 1217.08 1544.94 Q1214.02 1549.52 1208.21 1549.52 Q1202.4 1549.52 1199.32 1544.94 Q1196.27 1540.33 1196.27 1531.6 Q1196.27 1522.85 1199.32 1518.27 Q1202.4 1513.66 1208.21 1513.66 Z" fill="#000000" fill-rule="nonzero" fill-opacity="1" /><path clip-path="url(#clip400)" d="M1513.24 1544.91 L1520.88 1544.91 L1520.88 1518.55 L1512.57 1520.21 L1512.57 1515.95 L1520.83 1514.29 L1525.51 1514.29 L1525.51 1544.91 L1533.15 1544.91 L1533.15 1548.85 L1513.24 1548.85 L1513.24 1544.91 Z" fill="#000000" fill-rule="nonzero" fill-opacity="1" /><path clip-path="url(#clip400)" d="M1832.16 1544.91 L1848.48 1544.91 L1848.48 1548.85 L1826.54 1548.85 L1826.54 1544.91 Q1829.2 1542.16 1833.78 1537.53 Q1838.39 1532.88 1839.57 1531.53 Q1841.81 1529.01 1842.69 1527.27 Q1843.6 1525.51 1843.6 1523.82 Q1843.6 1521.07 1841.65 1519.33 Q1839.73 1517.6 1836.63 1517.6 Q1834.43 1517.6 1831.98 1518.36 Q1829.55 1519.13 1826.77 1520.68 L1826.77 1515.95 Q1829.59 1514.82 1832.05 1514.24 Q1834.5 1513.66 1836.54 1513.66 Q1841.91 1513.66 1845.1 1516.35 Q1848.3 1519.03 1848.3 1523.52 Q1848.3 1525.65 1847.49 1527.57 Q1846.7 1529.47 1844.59 1532.07 Q1844.01 1532.74 1840.91 1535.95 Q1837.81 1539.15 1832.16 1544.91 Z" fill="#000000" fill-rule="nonzero" fill-opacity="1" /><path clip-path="url(#clip400)" d="M2156.41 1530.21 Q2159.76 1530.93 2161.64 1533.2 Q2163.53 1535.47 2163.53 1538.8 Q2163.53 1543.92 2160.02 1546.72 Q2156.5 1549.52 2150.02 1549.52 Q2147.84 1549.52 2145.53 1549.08 Q2143.23 1548.66 2140.78 1547.81 L2140.78 1543.29 Q2142.72 1544.43 2145.04 1545.01 Q2147.35 1545.58 2149.88 1545.58 Q2154.28 1545.58 2156.57 1543.85 Q2158.88 1542.11 2158.88 1538.8 Q2158.88 1535.75 2156.73 1534.03 Q2154.6 1532.3 2150.78 1532.3 L2146.75 1532.3 L2146.75 1528.45 L2150.97 1528.45 Q2154.41 1528.45 2156.24 1527.09 Q2158.07 1525.7 2158.07 1523.11 Q2158.07 1520.45 2156.17 1519.03 Q2154.3 1517.6 2150.78 1517.6 Q2148.86 1517.6 2146.66 1518.01 Q2144.46 1518.43 2141.82 1519.31 L2141.82 1515.14 Q2144.48 1514.4 2146.8 1514.03 Q2149.14 1513.66 2151.2 1513.66 Q2156.52 1513.66 2159.62 1516.09 Q2162.72 1518.5 2162.72 1522.62 Q2162.72 1525.49 2161.08 1527.48 Q2159.44 1529.45 2156.41 1530.21 Z" fill="#000000" fill-rule="nonzero" fill-opacity="1" /><polyline clip-path="url(#clip400)" style="stroke:#000000; stroke-linecap:round; stroke-linejoin:round; stroke-width:4; stroke-opacity:1; fill:none" points="147.478,1486.45 147.478,47.2441 "/>
<polyline clip-path="url(#clip400)" style="stroke:#000000; stroke-linecap:round; stroke-linejoin:round; stroke-width:4; stroke-opacity:1; fill:none" points="147.478,1196.85 166.376,1196.85 "/>
<polyline clip-path="url(#clip400)" style="stroke:#000000; stroke-linecap:round; stroke-linejoin:round; stroke-width:4; stroke-opacity:1; fill:none" points="147.478,888.153 166.376,888.153 "/>
<polyline clip-path="url(#clip400)" style="stroke:#000000; stroke-linecap:round; stroke-linejoin:round; stroke-width:4; stroke-opacity:1; fill:none" points="147.478,579.457 166.376,579.457 "/>
<polyline clip-path="url(#clip400)" style="stroke:#000000; stroke-linecap:round; stroke-linejoin:round; stroke-width:4; stroke-opacity:1; fill:none" points="147.478,270.761 166.376,270.761 "/>
<path clip-path="url(#clip400)" d="M50.9921 1197.3 L80.6679 1197.3 L80.6679 1201.24 L50.9921 1201.24 L50.9921 1197.3 Z" fill="#000000" fill-rule="nonzero" fill-opacity="1" /><path clip-path="url(#clip400)" d="M91.5706 1210.19 L99.2095 1210.19 L99.2095 1183.83 L90.8993 1185.49 L90.8993 1181.24 L99.1632 1179.57 L103.839 1179.57 L103.839 1210.19 L111.478 1210.19 L111.478 1214.13 L91.5706 1214.13 L91.5706 1210.19 Z" fill="#000000" fill-rule="nonzero" fill-opacity="1" /><path clip-path="url(#clip400)" d="M99.5335 873.952 Q95.9224 873.952 94.0937 877.516 Q92.2882 881.058 92.2882 888.188 Q92.2882 895.294 94.0937 898.859 Q95.9224 902.401 99.5335 902.401 Q103.168 902.401 104.973 898.859 Q106.802 895.294 106.802 888.188 Q106.802 881.058 104.973 877.516 Q103.168 873.952 99.5335 873.952 M99.5335 870.248 Q105.344 870.248 108.399 874.854 Q111.478 879.438 111.478 888.188 Q111.478 896.914 108.399 901.521 Q105.344 906.104 99.5335 906.104 Q93.7234 906.104 90.6447 901.521 Q87.5892 896.914 87.5892 888.188 Q87.5892 879.438 90.6447 874.854 Q93.7234 870.248 99.5335 870.248 Z" fill="#000000" fill-rule="nonzero" fill-opacity="1" /><path clip-path="url(#clip400)" d="M91.5706 592.802 L99.2095 592.802 L99.2095 566.436 L90.8993 568.103 L90.8993 563.844 L99.1632 562.177 L103.839 562.177 L103.839 592.802 L111.478 592.802 L111.478 596.737 L91.5706 596.737 L91.5706 592.802 Z" fill="#000000" fill-rule="nonzero" fill-opacity="1" /><path clip-path="url(#clip400)" d="M95.1586 284.106 L111.478 284.106 L111.478 288.041 L89.5336 288.041 L89.5336 284.106 Q92.1956 281.351 96.7789 276.722 Q101.385 272.069 102.566 270.726 Q104.811 268.203 105.691 266.467 Q106.594 264.708 106.594 263.018 Q106.594 260.264 104.649 258.527 Q102.728 256.791 99.6261 256.791 Q97.4271 256.791 94.9734 257.555 Q92.5428 258.319 89.7651 259.87 L89.7651 255.148 Q92.5891 254.014 95.0428 253.435 Q97.4965 252.856 99.5335 252.856 Q104.904 252.856 108.098 255.541 Q111.293 258.227 111.293 262.717 Q111.293 264.847 110.483 266.768 Q109.696 268.666 107.589 271.259 Q107.01 271.93 103.909 275.148 Q100.807 278.342 95.1586 284.106 Z" fill="#000000" fill-rule="nonzero" fill-opacity="1" /><circle clip-path="url(#clip401)" cx="1079.42" cy="271.451" r="14.4" fill="#009af9" fill-rule="evenodd" fill-opacity="0.5" stroke="#000000" stroke-opacity="0.5" stroke-width="3.2"/>
<circle clip-path="url(#clip401)" cx="1225.35" cy="762.483" r="14.4" fill="#009af9" fill-rule="evenodd" fill-opacity="0.5" stroke="#000000" stroke-opacity="0.5" stroke-width="3.2"/>
<circle clip-path="url(#clip401)" cx="957.313" cy="1027.47" r="14.4" fill="#009af9" fill-rule="evenodd" fill-opacity="0.5" stroke="#000000" stroke-opacity="0.5" stroke-width="3.2"/>
<circle clip-path="url(#clip401)" cx="1352.44" cy="906.905" r="14.4" fill="#009af9" fill-rule="evenodd" fill-opacity="0.5" stroke="#000000" stroke-opacity="0.5" stroke-width="3.2"/>
<circle clip-path="url(#clip401)" cx="1729.16" cy="87.9763" r="14.4" fill="#009af9" fill-rule="evenodd" fill-opacity="0.5" stroke="#000000" stroke-opacity="0.5" stroke-width="3.2"/>
<circle clip-path="url(#clip401)" cx="1323.12" cy="1134.36" r="14.4" fill="#009af9" fill-rule="evenodd" fill-opacity="0.5" stroke="#000000" stroke-opacity="0.5" stroke-width="3.2"/>
<circle clip-path="url(#clip401)" cx="753.914" cy="164.644" r="14.4" fill="#009af9" fill-rule="evenodd" fill-opacity="0.5" stroke="#000000" stroke-opacity="0.5" stroke-width="3.2"/>
<circle clip-path="url(#clip401)" cx="1708.49" cy="204.928" r="14.4" fill="#009af9" fill-rule="evenodd" fill-opacity="0.5" stroke="#000000" stroke-opacity="0.5" stroke-width="3.2"/>
<circle clip-path="url(#clip401)" cx="2290.34" cy="1065.65" r="14.4" fill="#009af9" fill-rule="evenodd" fill-opacity="0.5" stroke="#000000" stroke-opacity="0.5" stroke-width="3.2"/>
<circle clip-path="url(#clip401)" cx="868.625" cy="1163.08" r="14.4" fill="#009af9" fill-rule="evenodd" fill-opacity="0.5" stroke="#000000" stroke-opacity="0.5" stroke-width="3.2"/>
<circle clip-path="url(#clip401)" cx="689.526" cy="533.672" r="14.4" fill="#009af9" fill-rule="evenodd" fill-opacity="0.5" stroke="#000000" stroke-opacity="0.5" stroke-width="3.2"/>
<circle clip-path="url(#clip401)" cx="209.891" cy="1301.13" r="14.4" fill="#009af9" fill-rule="evenodd" fill-opacity="0.5" stroke="#000000" stroke-opacity="0.5" stroke-width="3.2"/>
<circle clip-path="url(#clip401)" cx="1532.6" cy="681.632" r="14.4" fill="#009af9" fill-rule="evenodd" fill-opacity="0.5" stroke="#000000" stroke-opacity="0.5" stroke-width="3.2"/>
<circle clip-path="url(#clip401)" cx="1233.65" cy="545.834" r="14.4" fill="#009af9" fill-rule="evenodd" fill-opacity="0.5" stroke="#000000" stroke-opacity="0.5" stroke-width="3.2"/>
<circle clip-path="url(#clip401)" cx="1772.44" cy="1093.65" r="14.4" fill="#009af9" fill-rule="evenodd" fill-opacity="0.5" stroke="#000000" stroke-opacity="0.5" stroke-width="3.2"/>
<circle clip-path="url(#clip401)" cx="1283.22" cy="1278.46" r="14.4" fill="#009af9" fill-rule="evenodd" fill-opacity="0.5" stroke="#000000" stroke-opacity="0.5" stroke-width="3.2"/>
<circle clip-path="url(#clip401)" cx="718.594" cy="1082.24" r="14.4" fill="#009af9" fill-rule="evenodd" fill-opacity="0.5" stroke="#000000" stroke-opacity="0.5" stroke-width="3.2"/>
<circle clip-path="url(#clip401)" cx="1308.37" cy="956.634" r="14.4" fill="#009af9" fill-rule="evenodd" fill-opacity="0.5" stroke="#000000" stroke-opacity="0.5" stroke-width="3.2"/>
<circle clip-path="url(#clip401)" cx="1064.84" cy="937.924" r="14.4" fill="#009af9" fill-rule="evenodd" fill-opacity="0.5" stroke="#000000" stroke-opacity="0.5" stroke-width="3.2"/>
<circle clip-path="url(#clip401)" cx="795.637" cy="270.447" r="14.4" fill="#009af9" fill-rule="evenodd" fill-opacity="0.5" stroke="#000000" stroke-opacity="0.5" stroke-width="3.2"/>
<circle clip-path="url(#clip401)" cx="1522.57" cy="847.064" r="14.4" fill="#009af9" fill-rule="evenodd" fill-opacity="0.5" stroke="#000000" stroke-opacity="0.5" stroke-width="3.2"/>
<circle clip-path="url(#clip401)" cx="1255.23" cy="780.183" r="14.4" fill="#009af9" fill-rule="evenodd" fill-opacity="0.5" stroke="#000000" stroke-opacity="0.5" stroke-width="3.2"/>
<circle clip-path="url(#clip401)" cx="1610.51" cy="818.37" r="14.4" fill="#009af9" fill-rule="evenodd" fill-opacity="0.5" stroke="#000000" stroke-opacity="0.5" stroke-width="3.2"/>
<circle clip-path="url(#clip401)" cx="1292.4" cy="1445.72" r="14.4" fill="#009af9" fill-rule="evenodd" fill-opacity="0.5" stroke="#000000" stroke-opacity="0.5" stroke-width="3.2"/>
<circle clip-path="url(#clip401)" cx="1319.81" cy="1240.55" r="14.4" fill="#009af9" fill-rule="evenodd" fill-opacity="0.5" stroke="#000000" stroke-opacity="0.5" stroke-width="3.2"/>
<circle clip-path="url(#clip401)" cx="1069.46" cy="804.035" r="14.4" fill="#009af9" fill-rule="evenodd" fill-opacity="0.5" stroke="#000000" stroke-opacity="0.5" stroke-width="3.2"/>
<circle clip-path="url(#clip401)" cx="1344.42" cy="716.43" r="14.4" fill="#009af9" fill-rule="evenodd" fill-opacity="0.5" stroke="#000000" stroke-opacity="0.5" stroke-width="3.2"/>
<circle clip-path="url(#clip401)" cx="746.962" cy="1072.15" r="14.4" fill="#009af9" fill-rule="evenodd" fill-opacity="0.5" stroke="#000000" stroke-opacity="0.5" stroke-width="3.2"/>
<circle clip-path="url(#clip401)" cx="1272.29" cy="605.591" r="14.4" fill="#009af9" fill-rule="evenodd" fill-opacity="0.5" stroke="#000000" stroke-opacity="0.5" stroke-width="3.2"/>
<circle clip-path="url(#clip401)" cx="1144" cy="862.214" r="14.4" fill="#009af9" fill-rule="evenodd" fill-opacity="0.5" stroke="#000000" stroke-opacity="0.5" stroke-width="3.2"/>
<path clip-path="url(#clip401)" d="M209.891 1301.13 L1292.4 1445.72 L2290.34 1065.65 L1729.16 87.9763 L753.914 164.644 L209.891 1301.13 L209.891 1301.13  Z" fill="#e26f46" fill-rule="evenodd" fill-opacity="0.2"/>
<polyline clip-path="url(#clip401)" style="stroke:#000000; stroke-linecap:round; stroke-linejoin:round; stroke-width:4; stroke-opacity:0.2; fill:none" points="209.891,1301.13 1292.4,1445.72 2290.34,1065.65 1729.16,87.9763 753.914,164.644 209.891,1301.13 "/>
</svg>
