<?xml version="1.0" encoding="utf-8"?>
<svg xmlns="http://www.w3.org/2000/svg" xmlns:xlink="http://www.w3.org/1999/xlink" width="600" height="400" viewBox="0 0 2400 1600">
<defs>
  <clipPath id="clip760">
    <rect x="0" y="0" width="2400" height="1600"/>
  </clipPath>
</defs>
<path clip-path="url(#clip760)" d="M0 1600 L2400 1600 L2400 0 L0 0  Z" fill="#ffffff" fill-rule="evenodd" fill-opacity="1"/>
<defs>
  <clipPath id="clip761">
    <rect x="147" y="47" width="2206" height="1440"/>
  </clipPath>
</defs>
<path clip-path="url(#clip760)" d="M147.478 1486.45 L2352.76 1486.45 L2352.76 47.2441 L147.478 47.2441  Z" fill="#ffffff" fill-rule="evenodd" fill-opacity="1"/>
<polyline clip-path="url(#clip761)" style="stroke:#000000; stroke-linecap:round; stroke-linejoin:round; stroke-width:2; stroke-opacity:0.1; fill:none" points="213.578,1486.45 213.578,47.2441 "/>
<polyline clip-path="url(#clip761)" style="stroke:#000000; stroke-linecap:round; stroke-linejoin:round; stroke-width:2; stroke-opacity:0.1; fill:none" points="711.062,1486.45 711.062,47.2441 "/>
<polyline clip-path="url(#clip761)" style="stroke:#000000; stroke-linecap:round; stroke-linejoin:round; stroke-width:2; stroke-opacity:0.1; fill:none" points="1208.54,1486.45 1208.54,47.2441 "/>
<polyline clip-path="url(#clip761)" style="stroke:#000000; stroke-linecap:round; stroke-linejoin:round; stroke-width:2; stroke-opacity:0.1; fill:none" points="1706.03,1486.45 1706.03,47.2441 "/>
<polyline clip-path="url(#clip761)" style="stroke:#000000; stroke-linecap:round; stroke-linejoin:round; stroke-width:2; stroke-opacity:0.1; fill:none" points="2203.51,1486.45 2203.51,47.2441 "/>
<polyline clip-path="url(#clip761)" style="stroke:#000000; stroke-linecap:round; stroke-linejoin:round; stroke-width:2; stroke-opacity:0.1; fill:none" points="147.478,1445.72 2352.76,1445.72 "/>
<polyline clip-path="url(#clip761)" style="stroke:#000000; stroke-linecap:round; stroke-linejoin:round; stroke-width:2; stroke-opacity:0.1; fill:none" points="147.478,1106.28 2352.76,1106.28 "/>
<polyline clip-path="url(#clip761)" style="stroke:#000000; stroke-linecap:round; stroke-linejoin:round; stroke-width:2; stroke-opacity:0.1; fill:none" points="147.478,766.846 2352.76,766.846 "/>
<polyline clip-path="url(#clip761)" style="stroke:#000000; stroke-linecap:round; stroke-linejoin:round; stroke-width:2; stroke-opacity:0.1; fill:none" points="147.478,427.411 2352.76,427.411 "/>
<polyline clip-path="url(#clip761)" style="stroke:#000000; stroke-linecap:round; stroke-linejoin:round; stroke-width:2; stroke-opacity:0.1; fill:none" points="147.478,87.9763 2352.76,87.9763 "/>
<polyline clip-path="url(#clip760)" style="stroke:#000000; stroke-linecap:round; stroke-linejoin:round; stroke-width:4; stroke-opacity:1; fill:none" points="147.478,1486.45 2352.76,1486.45 "/>
<polyline clip-path="url(#clip760)" style="stroke:#000000; stroke-linecap:round; stroke-linejoin:round; stroke-width:4; stroke-opacity:1; fill:none" points="213.578,1486.45 213.578,1467.55 "/>
<polyline clip-path="url(#clip760)" style="stroke:#000000; stroke-linecap:round; stroke-linejoin:round; stroke-width:4; stroke-opacity:1; fill:none" points="711.062,1486.45 711.062,1467.55 "/>
<polyline clip-path="url(#clip760)" style="stroke:#000000; stroke-linecap:round; stroke-linejoin:round; stroke-width:4; stroke-opacity:1; fill:none" points="1208.54,1486.45 1208.54,1467.55 "/>
<polyline clip-path="url(#clip760)" style="stroke:#000000; stroke-linecap:round; stroke-linejoin:round; stroke-width:4; stroke-opacity:1; fill:none" points="1706.03,1486.45 1706.03,1467.55 "/>
<polyline clip-path="url(#clip760)" style="stroke:#000000; stroke-linecap:round; stroke-linejoin:round; stroke-width:4; stroke-opacity:1; fill:none" points="2203.51,1486.45 2203.51,1467.55 "/>
<path clip-path="url(#clip760)" d="M183.521 1532.02 L213.197 1532.02 L213.197 1535.95 L183.521 1535.95 L183.521 1532.02 Z" fill="#000000" fill-rule="nonzero" fill-opacity="1" /><path clip-path="url(#clip760)" d="M227.317 1544.91 L243.636 1544.91 L243.636 1548.85 L221.692 1548.85 L221.692 1544.91 Q224.354 1542.16 228.937 1537.53 Q233.544 1532.88 234.724 1531.53 Q236.97 1529.01 237.849 1527.27 Q238.752 1525.51 238.752 1523.82 Q238.752 1521.07 236.808 1519.33 Q234.886 1517.6 231.784 1517.6 Q229.585 1517.6 227.132 1518.36 Q224.701 1519.13 221.923 1520.68 L221.923 1515.95 Q224.747 1514.82 227.201 1514.24 Q229.655 1513.66 231.692 1513.66 Q237.062 1513.66 240.257 1516.35 Q243.451 1519.03 243.451 1523.52 Q243.451 1525.65 242.641 1527.57 Q241.854 1529.47 239.747 1532.07 Q239.169 1532.74 236.067 1535.95 Q232.965 1539.15 227.317 1544.91 Z" fill="#000000" fill-rule="nonzero" fill-opacity="1" /><path clip-path="url(#clip760)" d="M680.819 1532.02 L710.494 1532.02 L710.494 1535.95 L680.819 1535.95 L680.819 1532.02 Z" fill="#000000" fill-rule="nonzero" fill-opacity="1" /><path clip-path="url(#clip760)" d="M721.397 1544.91 L729.036 1544.91 L729.036 1518.55 L720.726 1520.21 L720.726 1515.95 L728.99 1514.29 L733.666 1514.29 L733.666 1544.91 L741.305 1544.91 L741.305 1548.85 L721.397 1548.85 L721.397 1544.91 Z" fill="#000000" fill-rule="nonzero" fill-opacity="1" /><path clip-path="url(#clip760)" d="M1208.54 1517.37 Q1204.93 1517.37 1203.1 1520.93 Q1201.3 1524.47 1201.3 1531.6 Q1201.3 1538.71 1203.1 1542.27 Q1204.93 1545.82 1208.54 1545.82 Q1212.18 1545.82 1213.98 1542.27 Q1215.81 1538.71 1215.81 1531.6 Q1215.81 1524.47 1213.98 1520.93 Q1212.18 1517.37 1208.54 1517.37 M1208.54 1513.66 Q1214.35 1513.66 1217.41 1518.27 Q1220.49 1522.85 1220.49 1531.6 Q1220.49 1540.33 1217.41 1544.94 Q1214.35 1549.52 1208.54 1549.52 Q1202.73 1549.52 1199.66 1544.94 Q1196.6 1540.33 1196.6 1531.6 Q1196.6 1522.85 1199.66 1518.27 Q1202.73 1513.66 1208.54 1513.66 Z" fill="#000000" fill-rule="nonzero" fill-opacity="1" /><path clip-path="url(#clip760)" d="M1696.41 1544.91 L1704.05 1544.91 L1704.05 1518.55 L1695.74 1520.21 L1695.74 1515.95 L1704 1514.29 L1708.68 1514.29 L1708.68 1544.91 L1716.32 1544.91 L1716.32 1548.85 L1696.41 1548.85 L1696.41 1544.91 Z" fill="#000000" fill-rule="nonzero" fill-opacity="1" /><path clip-path="url(#clip760)" d="M2198.16 1544.91 L2214.48 1544.91 L2214.48 1548.85 L2192.54 1548.85 L2192.54 1544.91 Q2195.2 1542.16 2199.78 1537.53 Q2204.39 1532.88 2205.57 1531.53 Q2207.82 1529.01 2208.7 1527.27 Q2209.6 1525.51 2209.6 1523.82 Q2209.6 1521.07 2207.65 1519.33 Q2205.73 1517.6 2202.63 1517.6 Q2200.43 1517.6 2197.98 1518.36 Q2195.55 1519.13 2192.77 1520.68 L2192.77 1515.95 Q2195.59 1514.82 2198.05 1514.24 Q2200.5 1513.66 2202.54 1513.66 Q2207.91 1513.66 2211.1 1516.35 Q2214.3 1519.03 2214.3 1523.52 Q2214.3 1525.65 2213.49 1527.57 Q2212.7 1529.47 2210.59 1532.07 Q2210.02 1532.74 2206.91 1535.95 Q2203.81 1539.15 2198.16 1544.91 Z" fill="#000000" fill-rule="nonzero" fill-opacity="1" /><polyline clip-path="url(#clip760)" style="stroke:#000000; stroke-linecap:round; stroke-linejoin:round; stroke-width:4; stroke-opacity:1; fill:none" points="147.478,1486.45 147.478,47.2441 "/>
<polyline clip-path="url(#clip760)" style="stroke:#000000; stroke-linecap:round; stroke-linejoin:round; stroke-width:4; stroke-opacity:1; fill:none" points="147.478,1445.72 166.376,1445.72 "/>
<polyline clip-path="url(#clip760)" style="stroke:#000000; stroke-linecap:round; stroke-linejoin:round; stroke-width:4; stroke-opacity:1; fill:none" points="147.478,1106.28 166.376,1106.28 "/>
<polyline clip-path="url(#clip760)" style="stroke:#000000; stroke-linecap:round; stroke-linejoin:round; stroke-width:4; stroke-opacity:1; fill:none" points="147.478,766.846 166.376,766.846 "/>
<polyline clip-path="url(#clip760)" style="stroke:#000000; stroke-linecap:round; stroke-linejoin:round; stroke-width:4; stroke-opacity:1; fill:none" points="147.478,427.411 166.376,427.411 "/>
<polyline clip-path="url(#clip760)" style="stroke:#000000; stroke-linecap:round; stroke-linejoin:round; stroke-width:4; stroke-opacity:1; fill:none" points="147.478,87.9763 166.376,87.9763 "/>
<path clip-path="url(#clip760)" d="M51.3625 1446.17 L81.0383 1446.17 L81.0383 1450.1 L51.3625 1450.1 L51.3625 1446.17 Z" fill="#000000" fill-rule="nonzero" fill-opacity="1" /><path clip-path="url(#clip760)" d="M95.1586 1459.06 L111.478 1459.06 L111.478 1463 L89.5336 1463 L89.5336 1459.06 Q92.1956 1456.31 96.7789 1451.68 Q101.385 1447.02 102.566 1445.68 Q104.811 1443.16 105.691 1441.42 Q106.594 1439.66 106.594 1437.97 Q106.594 1435.22 104.649 1433.48 Q102.728 1431.75 99.6261 1431.75 Q97.4271 1431.75 94.9734 1432.51 Q92.5428 1433.27 89.7651 1434.82 L89.7651 1430.1 Q92.5891 1428.97 95.0428 1428.39 Q97.4965 1427.81 99.5335 1427.81 Q104.904 1427.81 108.098 1430.5 Q111.293 1433.18 111.293 1437.67 Q111.293 1439.8 110.483 1441.72 Q109.696 1443.62 107.589 1446.21 Q107.01 1446.88 103.909 1450.1 Q100.807 1453.3 95.1586 1459.06 Z" fill="#000000" fill-rule="nonzero" fill-opacity="1" /><path clip-path="url(#clip760)" d="M50.9921 1106.73 L80.6679 1106.73 L80.6679 1110.67 L50.9921 1110.67 L50.9921 1106.73 Z" fill="#000000" fill-rule="nonzero" fill-opacity="1" /><path clip-path="url(#clip760)" d="M91.5706 1119.63 L99.2095 1119.63 L99.2095 1093.26 L90.8993 1094.93 L90.8993 1090.67 L99.1632 1089 L103.839 1089 L103.839 1119.63 L111.478 1119.63 L111.478 1123.56 L91.5706 1123.56 L91.5706 1119.63 Z" fill="#000000" fill-rule="nonzero" fill-opacity="1" /><path clip-path="url(#clip760)" d="M99.5335 752.645 Q95.9224 752.645 94.0937 756.209 Q92.2882 759.751 92.2882 766.881 Q92.2882 773.987 94.0937 777.552 Q95.9224 781.094 99.5335 781.094 Q103.168 781.094 104.973 777.552 Q106.802 773.987 106.802 766.881 Q106.802 759.751 104.973 756.209 Q103.168 752.645 99.5335 752.645 M99.5335 748.941 Q105.344 748.941 108.399 753.547 Q111.478 758.131 111.478 766.881 Q111.478 775.608 108.399 780.214 Q105.344 784.797 99.5335 784.797 Q93.7234 784.797 90.6447 780.214 Q87.5892 775.608 87.5892 766.881 Q87.5892 758.131 90.6447 753.547 Q93.7234 748.941 99.5335 748.941 Z" fill="#000000" fill-rule="nonzero" fill-opacity="1" /><path clip-path="url(#clip760)" d="M91.5706 440.756 L99.2095 440.756 L99.2095 414.39 L90.8993 416.057 L90.8993 411.798 L99.1632 410.131 L103.839 410.131 L103.839 440.756 L111.478 440.756 L111.478 444.691 L91.5706 444.691 L91.5706 440.756 Z" fill="#000000" fill-rule="nonzero" fill-opacity="1" /><path clip-path="url(#clip760)" d="M95.1586 101.321 L111.478 101.321 L111.478 105.256 L89.5336 105.256 L89.5336 101.321 Q92.1956 98.5665 96.7789 93.9369 Q101.385 89.2841 102.566 87.9416 Q104.811 85.4184 105.691 83.6823 Q106.594 81.9231 106.594 80.2333 Q106.594 77.4786 104.649 75.7425 Q102.728 74.0064 99.6261 74.0064 Q97.4271 74.0064 94.9734 74.7703 Q92.5428 75.5342 89.7651 77.0851 L89.7651 72.3629 Q92.5891 71.2287 95.0428 70.65 Q97.4965 70.0713 99.5335 70.0713 Q104.904 70.0713 108.098 72.7565 Q111.293 75.4416 111.293 79.9323 Q111.293 82.062 110.483 83.9832 Q109.696 85.8814 107.589 88.474 Q107.01 89.1453 103.909 92.3628 Q100.807 95.5573 95.1586 101.321 Z" fill="#000000" fill-rule="nonzero" fill-opacity="1" /><path clip-path="url(#clip761)" d="M711.062 1445.72 L1208.54 1106.28 L711.062 766.846 L213.578 1106.28 L711.062 1445.72 L711.062 1445.72  Z" fill="#009af9" fill-rule="evenodd" fill-opacity="0.1"/>
<polyline clip-path="url(#clip761)" style="stroke:#000000; stroke-linecap:round; stroke-linejoin:round; stroke-width:4; stroke-opacity:0.5; fill:none" points="711.062,1445.72 1208.54,1106.28 711.062,766.846 213.578,1106.28 711.062,1445.72 "/>
<path clip-path="url(#clip761)" d="M1208.54 460.843 L1227.66 526.421 L1265.16 588.194 L1319.61 643.788 L1388.9 691.067 L1470.38 728.214 L1560.92 753.802 L1657.03 766.846 L1755.03 766.846 L1851.14 753.802 L1941.67 728.214 L2023.15 691.067 L2092.45 643.788 L2146.89 588.194 L2184.39 526.421 L2203.51 460.843 L2203.51 393.98 L2184.39 328.402 L2146.89 266.628 L2092.45 211.034 L2023.15 163.755 L1941.67 126.608 L1851.14 101.021 L1755.03 87.9763 L1657.03 87.9763 L1560.92 101.021 L1470.38 126.608 L1388.9 163.755 L1319.61 211.034 L1265.16 266.628 L1227.66 328.402 L1208.54 393.98 L1208.54 460.843 L1208.54 460.843  Z" fill="#e26f46" fill-rule="evenodd" fill-opacity="0.1"/>
<polyline clip-path="url(#clip761)" style="stroke:#000000; stroke-linecap:round; stroke-linejoin:round; stroke-width:4; stroke-opacity:0.5; fill:none" points="1208.54,460.843 1227.66,526.421 1265.16,588.194 1319.61,643.788 1388.9,691.067 1470.38,728.214 1560.92,753.802 1657.03,766.846 1755.03,766.846 1851.14,753.802 1941.67,728.214 2023.15,691.067 2092.45,643.788 2146.89,588.194 2184.39,526.421 2203.51,460.843 2203.51,393.98 2184.39,328.402 2146.89,266.628 2092.45,211.034 2023.15,163.755 1941.67,126.608 1851.14,101.021 1755.03,87.9763 1657.03,87.9763 1560.92,101.021 1470.38,126.608 1388.9,163.755 1319.61,211.034 1265.16,266.628 1227.66,328.402 1208.54,393.98 1208.54,460.843 "/>
<path clip-path="url(#clip761)" d="M1706.03 427.411 L711.062 427.411 L711.062 1106.28 L1706.03 1106.28 L1706.03 427.411 L1706.03 427.411  Z" fill="#3da44d" fill-rule="evenodd" fill-opacity="0.1"/>
<polyline clip-path="url(#clip761)" style="stroke:#000000; stroke-linecap:round; stroke-linejoin:round; stroke-width:4; stroke-opacity:0.5; fill:none" points="1706.03,427.411 711.062,427.411 711.062,1106.28 1706.03,1106.28 1706.03,427.411 "/>
<path clip-path="url(#clip761)" d="M2203.51 87.9763 L1208.54 87.9763 L1208.54 766.846 L2203.51 766.846 L2203.51 87.9763 L2203.51 87.9763  Z" fill="#c271d2" fill-rule="evenodd" fill-opacity="0.1"/>
<polyline clip-path="url(#clip761)" style="stroke:#000000; stroke-linecap:round; stroke-linejoin:round; stroke-width:4; stroke-opacity:0.5; fill:none" points="2203.51,87.9763 1208.54,87.9763 1208.54,766.846 2203.51,766.846 2203.51,87.9763 "/>
<circle clip-path="url(#clip761)" cx="1208.54" cy="1106.28" r="14.4" fill="#ac8d18" fill-rule="evenodd" fill-opacity="0.5" stroke="#000000" stroke-opacity="0.5" stroke-width="3.2"/>
<circle clip-path="url(#clip761)" cx="213.578" cy="1106.28" r="14.4" fill="#00a9ad" fill-rule="evenodd" fill-opacity="0.5" stroke="#000000" stroke-opacity="0.5" stroke-width="3.2"/>
<circle clip-path="url(#clip761)" cx="2057.8" cy="187.394" r="14.4" fill="#ed5d92" fill-rule="evenodd" fill-opacity="0.5" stroke="#000000" stroke-opacity="0.5" stroke-width="3.2"/>
<circle clip-path="url(#clip761)" cx="2203.51" cy="427.411" r="14.4" fill="#c68125" fill-rule="evenodd" fill-opacity="0.5" stroke="#000000" stroke-opacity="0.5" stroke-width="3.2"/>
<circle clip-path="url(#clip761)" cx="1706.03" cy="427.411" r="14.4" fill="#00a98d" fill-rule="evenodd" fill-opacity="0.5" stroke="#000000" stroke-opacity="0.5" stroke-width="3.2"/>
<circle clip-path="url(#clip761)" cx="711.062" cy="427.411" r="14.4" fill="#8e971d" fill-rule="evenodd" fill-opacity="0.5" stroke="#000000" stroke-opacity="0.5" stroke-width="3.2"/>
<circle clip-path="url(#clip761)" cx="711.062" cy="766.846" r="14.4" fill="#00a8cb" fill-rule="evenodd" fill-opacity="0.5" stroke="#000000" stroke-opacity="0.5" stroke-width="3.2"/>
<circle clip-path="url(#clip761)" cx="2203.51" cy="87.9763" r="14.4" fill="#9b7fe8" fill-rule="evenodd" fill-opacity="0.5" stroke="#000000" stroke-opacity="0.5" stroke-width="3.2"/>
<path clip-path="url(#clip760)" d="M1228.42 1091.15 L1235.87 1091.15 L1245.19 1126.56 L1254.47 1091.15 L1263.26 1091.15 L1272.57 1126.56 L1281.85 1091.15 L1289.3 1091.15 L1277.44 1136.52 L1268.64 1136.52 L1258.88 1099.33 L1249.08 1136.52 L1240.29 1136.52 L1228.42 1091.15 Z" fill="#000000" fill-rule="nonzero" fill-opacity="1" /><path clip-path="url(#clip760)" d="M1303.08 1129.63 L1316.45 1129.63 L1316.45 1083.49 L1301.9 1086.41 L1301.9 1078.96 L1316.36 1076.04 L1324.55 1076.04 L1324.55 1129.63 L1337.92 1129.63 L1337.92 1136.52 L1303.08 1136.52 L1303.08 1129.63 Z" fill="#000000" fill-rule="nonzero" fill-opacity="1" /><path clip-path="url(#clip760)" d="M233.777 1091.15 L241.231 1091.15 L250.548 1126.56 L259.824 1091.15 L268.615 1091.15 L277.932 1126.56 L287.208 1091.15 L294.662 1091.15 L282.793 1136.52 L274.003 1136.52 L264.24 1099.33 L254.437 1136.52 L245.646 1136.52 L233.777 1091.15 Z" fill="#000000" fill-rule="nonzero" fill-opacity="1" /><path clip-path="url(#clip760)" d="M314.066 1129.63 L342.625 1129.63 L342.625 1136.52 L304.222 1136.52 L304.222 1129.63 Q308.881 1124.81 316.902 1116.71 Q324.963 1108.57 327.029 1106.22 Q330.958 1101.8 332.498 1098.77 Q334.077 1095.69 334.077 1092.73 Q334.077 1087.91 330.675 1084.87 Q327.312 1081.83 321.884 1081.83 Q318.036 1081.83 313.742 1083.17 Q309.488 1084.51 304.627 1087.22 L304.627 1078.96 Q309.569 1076.97 313.863 1075.96 Q318.157 1074.95 321.722 1074.95 Q331.12 1074.95 336.711 1079.65 Q342.301 1084.35 342.301 1092.2 Q342.301 1095.93 340.883 1099.29 Q339.506 1102.61 335.819 1107.15 Q334.807 1108.33 329.378 1113.96 Q323.95 1119.55 314.066 1129.63 Z" fill="#000000" fill-rule="nonzero" fill-opacity="1" /><path clip-path="url(#clip760)" d="M2077.17 172.264 L2084.62 172.264 L2093.94 207.669 L2103.22 172.264 L2112.01 172.264 L2121.32 207.669 L2130.6 172.264 L2138.05 172.264 L2126.19 217.634 L2117.4 217.634 L2107.63 180.447 L2097.83 217.634 L2089.04 217.634 L2077.17 172.264 Z" fill="#000000" fill-rule="nonzero" fill-opacity="1" /><path clip-path="url(#clip760)" d="M2175.2 185.025 Q2181.08 186.28 2184.36 190.25 Q2187.68 194.22 2187.68 200.054 Q2187.68 209.006 2181.52 213.908 Q2175.36 218.809 2164.02 218.809 Q2160.21 218.809 2156.16 218.04 Q2152.15 217.31 2147.86 215.812 L2147.86 207.912 Q2151.26 209.897 2155.31 210.91 Q2159.36 211.923 2163.78 211.923 Q2171.47 211.923 2175.49 208.884 Q2179.54 205.846 2179.54 200.054 Q2179.54 194.706 2175.77 191.709 Q2172.04 188.67 2165.36 188.67 L2158.31 188.67 L2158.31 181.946 L2165.68 181.946 Q2171.72 181.946 2174.92 179.556 Q2178.12 177.125 2178.12 172.588 Q2178.12 167.93 2174.8 165.459 Q2171.52 162.947 2165.36 162.947 Q2162 162.947 2158.15 163.676 Q2154.3 164.406 2149.68 165.945 L2149.68 158.653 Q2154.34 157.357 2158.39 156.709 Q2162.48 156.061 2166.09 156.061 Q2175.4 156.061 2180.83 160.314 Q2186.26 164.527 2186.26 171.738 Q2186.26 176.761 2183.38 180.245 Q2180.51 183.688 2175.2 185.025 Z" fill="#000000" fill-rule="nonzero" fill-opacity="1" /><path clip-path="url(#clip760)" d="M2221.89 412.281 L2229.34 412.281 L2238.66 447.686 L2247.93 412.281 L2256.72 412.281 L2266.04 447.686 L2275.32 412.281 L2282.77 412.281 L2270.9 457.651 L2262.11 457.651 L2252.35 420.464 L2242.55 457.651 L2233.76 457.651 L2221.89 412.281 Z" fill="#000000" fill-rule="nonzero" fill-opacity="1" /><path clip-path="url(#clip760)" d="M2317.61 404.301 L2296.95 436.586 L2317.61 436.586 L2317.61 404.301 M2315.46 397.171 L2325.75 397.171 L2325.75 436.586 L2334.38 436.586 L2334.38 443.392 L2325.75 443.392 L2325.75 457.651 L2317.61 457.651 L2317.61 443.392 L2290.31 443.392 L2290.31 435.493 L2315.46 397.171 Z" fill="#000000" fill-rule="nonzero" fill-opacity="1" /><path clip-path="url(#clip760)" d="M1725.7 412.281 L1733.15 412.281 L1742.47 447.686 L1751.75 412.281 L1760.54 412.281 L1769.85 447.686 L1779.13 412.281 L1786.58 412.281 L1774.72 457.651 L1765.93 457.651 L1756.16 420.464 L1746.36 457.651 L1737.57 457.651 L1725.7 412.281 Z" fill="#000000" fill-rule="nonzero" fill-opacity="1" /><path clip-path="url(#clip760)" d="M1799.02 397.171 L1831.14 397.171 L1831.14 404.058 L1806.52 404.058 L1806.52 418.884 Q1808.3 418.276 1810.08 417.993 Q1811.86 417.669 1813.64 417.669 Q1823.77 417.669 1829.69 423.218 Q1835.6 428.768 1835.6 438.247 Q1835.6 448.01 1829.52 453.438 Q1823.45 458.826 1812.39 458.826 Q1808.58 458.826 1804.61 458.178 Q1800.68 457.53 1796.47 456.233 L1796.47 448.01 Q1800.11 449.995 1804 450.967 Q1807.89 451.939 1812.23 451.939 Q1819.24 451.939 1823.33 448.253 Q1827.42 444.567 1827.42 438.247 Q1827.42 431.928 1823.33 428.242 Q1819.24 424.555 1812.23 424.555 Q1808.95 424.555 1805.66 425.284 Q1802.42 426.014 1799.02 427.553 L1799.02 397.171 Z" fill="#000000" fill-rule="nonzero" fill-opacity="1" /><path clip-path="url(#clip760)" d="M729.721 412.281 L737.175 412.281 L746.492 447.686 L755.768 412.281 L764.559 412.281 L773.876 447.686 L783.152 412.281 L790.606 412.281 L778.737 457.651 L769.946 457.651 L760.184 420.464 L750.38 457.651 L741.59 457.651 L729.721 412.281 Z" fill="#000000" fill-rule="nonzero" fill-opacity="1" /><path clip-path="url(#clip760)" d="M821.474 424.15 Q815.965 424.15 812.724 427.917 Q809.524 431.685 809.524 438.247 Q809.524 444.769 812.724 448.577 Q815.965 452.344 821.474 452.344 Q826.983 452.344 830.183 448.577 Q833.424 444.769 833.424 438.247 Q833.424 431.685 830.183 427.917 Q826.983 424.15 821.474 424.15 M837.718 398.508 L837.718 405.962 Q834.639 404.503 831.48 403.734 Q828.36 402.964 825.282 402.964 Q817.18 402.964 812.886 408.433 Q808.632 413.901 808.025 424.96 Q810.415 421.436 814.02 419.573 Q817.625 417.669 821.96 417.669 Q831.074 417.669 836.341 423.218 Q841.647 428.728 841.647 438.247 Q841.647 447.564 836.138 453.195 Q830.629 458.826 821.474 458.826 Q810.982 458.826 805.432 450.805 Q799.883 442.744 799.883 427.472 Q799.883 413.132 806.688 404.625 Q813.494 396.077 824.958 396.077 Q828.036 396.077 831.155 396.685 Q834.315 397.293 837.718 398.508 Z" fill="#000000" fill-rule="nonzero" fill-opacity="1" /><path clip-path="url(#clip760)" d="M730.653 751.716 L738.106 751.716 L747.423 787.121 L756.7 751.716 L765.49 751.716 L774.807 787.121 L784.084 751.716 L791.538 751.716 L779.668 797.086 L770.878 797.086 L761.115 759.899 L751.312 797.086 L742.522 797.086 L730.653 751.716 Z" fill="#000000" fill-rule="nonzero" fill-opacity="1" /><path clip-path="url(#clip760)" d="M801.827 736.606 L840.716 736.606 L840.716 740.09 L818.76 797.086 L810.212 797.086 L830.872 743.493 L801.827 743.493 L801.827 736.606 Z" fill="#000000" fill-rule="nonzero" fill-opacity="1" /><path clip-path="url(#clip760)" d="M2222.39 72.8461 L2229.85 72.8461 L2239.16 108.251 L2248.44 72.8461 L2257.23 72.8461 L2266.55 108.251 L2275.82 72.8461 L2283.28 72.8461 L2271.41 118.216 L2262.62 118.216 L2252.86 81.029 L2243.05 118.216 L2234.26 118.216 L2222.39 72.8461 Z" fill="#000000" fill-rule="nonzero" fill-opacity="1" /><path clip-path="url(#clip760)" d="M2313.13 89.4954 Q2307.3 89.4954 2303.94 92.6146 Q2300.62 95.7338 2300.62 101.202 Q2300.62 106.671 2303.94 109.79 Q2307.3 112.91 2313.13 112.91 Q2318.97 112.91 2322.33 109.79 Q2325.69 106.631 2325.69 101.202 Q2325.69 95.7338 2322.33 92.6146 Q2319.01 89.4954 2313.13 89.4954 M2304.95 86.0116 Q2299.68 84.7153 2296.73 81.11 Q2293.81 77.5047 2293.81 72.3195 Q2293.81 65.0684 2298.96 60.8555 Q2304.14 56.6425 2313.13 56.6425 Q2322.17 56.6425 2327.31 60.8555 Q2332.46 65.0684 2332.46 72.3195 Q2332.46 77.5047 2329.5 81.11 Q2326.58 84.7153 2321.36 86.0116 Q2327.27 87.3889 2330.55 91.3993 Q2333.87 95.4097 2333.87 101.202 Q2333.87 109.993 2328.49 114.692 Q2323.14 119.391 2313.13 119.391 Q2303.13 119.391 2297.74 114.692 Q2292.39 109.993 2292.39 101.202 Q2292.39 95.4097 2295.71 91.3993 Q2299.04 87.3889 2304.95 86.0116 M2301.95 73.0892 Q2301.95 77.7883 2304.87 80.4213 Q2307.83 83.0544 2313.13 83.0544 Q2318.4 83.0544 2321.36 80.4213 Q2324.35 77.7883 2324.35 73.0892 Q2324.35 68.3902 2321.36 65.7571 Q2318.4 63.124 2313.13 63.124 Q2307.83 63.124 2304.87 65.7571 Q2301.95 68.3902 2301.95 73.0892 Z" fill="#000000" fill-rule="nonzero" fill-opacity="1" /></svg>
