<?xml version="1.0" encoding="utf-8"?>
<svg xmlns="http://www.w3.org/2000/svg" xmlns:xlink="http://www.w3.org/1999/xlink" width="600" height="400" viewBox="0 0 2400 1600">
<defs>
  <clipPath id="clip070">
    <rect x="0" y="0" width="2400" height="1600"/>
  </clipPath>
</defs>
<path clip-path="url(#clip070)" d="M0 1600 L2400 1600 L2400 0 L0 0  Z" fill="#ffffff" fill-rule="evenodd" fill-opacity="1"/>
<defs>
  <clipPath id="clip071">
    <rect x="480" y="0" width="1681" height="1600"/>
  </clipPath>
</defs>
<path clip-path="url(#clip070)" d="M193.936 1486.45 L2352.76 1486.45 L2352.76 47.2441 L193.936 47.2441  Z" fill="#ffffff" fill-rule="evenodd" fill-opacity="1"/>
<defs>
  <clipPath id="clip072">
    <rect x="193" y="47" width="2160" height="1440"/>
  </clipPath>
</defs>
<polyline clip-path="url(#clip072)" style="stroke:#000000; stroke-linecap:round; stroke-linejoin:round; stroke-width:2; stroke-opacity:0.1; fill:none" points="247.862,1486.45 247.862,47.2441 "/>
<polyline clip-path="url(#clip072)" style="stroke:#000000; stroke-linecap:round; stroke-linejoin:round; stroke-width:2; stroke-opacity:0.1; fill:none" points="600.82,1486.45 600.82,47.2441 "/>
<polyline clip-path="url(#clip072)" style="stroke:#000000; stroke-linecap:round; stroke-linejoin:round; stroke-width:2; stroke-opacity:0.1; fill:none" points="953.778,1486.45 953.778,47.2441 "/>
<polyline clip-path="url(#clip072)" style="stroke:#000000; stroke-linecap:round; stroke-linejoin:round; stroke-width:2; stroke-opacity:0.1; fill:none" points="1306.74,1486.45 1306.74,47.2441 "/>
<polyline clip-path="url(#clip072)" style="stroke:#000000; stroke-linecap:round; stroke-linejoin:round; stroke-width:2; stroke-opacity:0.1; fill:none" points="1659.69,1486.45 1659.69,47.2441 "/>
<polyline clip-path="url(#clip072)" style="stroke:#000000; stroke-linecap:round; stroke-linejoin:round; stroke-width:2; stroke-opacity:0.1; fill:none" points="2012.65,1486.45 2012.65,47.2441 "/>
<polyline clip-path="url(#clip072)" style="stroke:#000000; stroke-linecap:round; stroke-linejoin:round; stroke-width:2; stroke-opacity:0.1; fill:none" points="193.936,1414.37 2352.76,1414.37 "/>
<polyline clip-path="url(#clip072)" style="stroke:#000000; stroke-linecap:round; stroke-linejoin:round; stroke-width:2; stroke-opacity:0.1; fill:none" points="193.936,1171.74 2352.76,1171.74 "/>
<polyline clip-path="url(#clip072)" style="stroke:#000000; stroke-linecap:round; stroke-linejoin:round; stroke-width:2; stroke-opacity:0.1; fill:none" points="193.936,929.1 2352.76,929.1 "/>
<polyline clip-path="url(#clip072)" style="stroke:#000000; stroke-linecap:round; stroke-linejoin:round; stroke-width:2; stroke-opacity:0.1; fill:none" points="193.936,686.464 2352.76,686.464 "/>
<polyline clip-path="url(#clip072)" style="stroke:#000000; stroke-linecap:round; stroke-linejoin:round; stroke-width:2; stroke-opacity:0.1; fill:none" points="193.936,443.829 2352.76,443.829 "/>
<polyline clip-path="url(#clip072)" style="stroke:#000000; stroke-linecap:round; stroke-linejoin:round; stroke-width:2; stroke-opacity:0.1; fill:none" points="193.936,201.193 2352.76,201.193 "/>
<polyline clip-path="url(#clip070)" style="stroke:#000000; stroke-linecap:round; stroke-linejoin:round; stroke-width:4; stroke-opacity:1; fill:none" points="193.936,1486.45 2352.76,1486.45 "/>
<polyline clip-path="url(#clip070)" style="stroke:#000000; stroke-linecap:round; stroke-linejoin:round; stroke-width:4; stroke-opacity:1; fill:none" points="247.862,1486.45 247.862,1467.55 "/>
<polyline clip-path="url(#clip070)" style="stroke:#000000; stroke-linecap:round; stroke-linejoin:round; stroke-width:4; stroke-opacity:1; fill:none" points="600.82,1486.45 600.82,1467.55 "/>
<polyline clip-path="url(#clip070)" style="stroke:#000000; stroke-linecap:round; stroke-linejoin:round; stroke-width:4; stroke-opacity:1; fill:none" points="953.778,1486.45 953.778,1467.55 "/>
<polyline clip-path="url(#clip070)" style="stroke:#000000; stroke-linecap:round; stroke-linejoin:round; stroke-width:4; stroke-opacity:1; fill:none" points="1306.74,1486.45 1306.74,1467.55 "/>
<polyline clip-path="url(#clip070)" style="stroke:#000000; stroke-linecap:round; stroke-linejoin:round; stroke-width:4; stroke-opacity:1; fill:none" points="1659.69,1486.45 1659.69,1467.55 "/>
<polyline clip-path="url(#clip070)" style="stroke:#000000; stroke-linecap:round; stroke-linejoin:round; stroke-width:4; stroke-opacity:1; fill:none" points="2012.65,1486.45 2012.65,1467.55 "/>
<path clip-path="url(#clip070)" d="M217.33 1532.02 L247.005 1532.02 L247.005 1535.95 L217.33 1535.95 L217.33 1532.02 Z" fill="#000000" fill-rule="nonzero" fill-opacity="1" /><path clip-path="url(#clip070)" d="M271.265 1530.21 Q274.621 1530.93 276.496 1533.2 Q278.394 1535.47 278.394 1538.8 Q278.394 1543.92 274.876 1546.72 Q271.357 1549.52 264.876 1549.52 Q262.7 1549.52 260.385 1549.08 Q258.093 1548.66 255.64 1547.81 L255.64 1543.29 Q257.584 1544.43 259.899 1545.01 Q262.214 1545.58 264.737 1545.58 Q269.135 1545.58 271.427 1543.85 Q273.741 1542.11 273.741 1538.8 Q273.741 1535.75 271.589 1534.03 Q269.459 1532.3 265.64 1532.3 L261.612 1532.3 L261.612 1528.45 L265.825 1528.45 Q269.274 1528.45 271.103 1527.09 Q272.931 1525.7 272.931 1523.11 Q272.931 1520.45 271.033 1519.03 Q269.158 1517.6 265.64 1517.6 Q263.718 1517.6 261.519 1518.01 Q259.32 1518.43 256.681 1519.31 L256.681 1515.14 Q259.343 1514.4 261.658 1514.03 Q263.996 1513.66 266.056 1513.66 Q271.38 1513.66 274.482 1516.09 Q277.584 1518.5 277.584 1522.62 Q277.584 1525.49 275.94 1527.48 Q274.297 1529.45 271.265 1530.21 Z" fill="#000000" fill-rule="nonzero" fill-opacity="1" /><path clip-path="url(#clip070)" d="M570.762 1532.02 L600.438 1532.02 L600.438 1535.95 L570.762 1535.95 L570.762 1532.02 Z" fill="#000000" fill-rule="nonzero" fill-opacity="1" /><path clip-path="url(#clip070)" d="M614.559 1544.91 L630.878 1544.91 L630.878 1548.85 L608.934 1548.85 L608.934 1544.91 Q611.596 1542.16 616.179 1537.53 Q620.785 1532.88 621.966 1531.53 Q624.211 1529.01 625.091 1527.27 Q625.994 1525.51 625.994 1523.82 Q625.994 1521.07 624.049 1519.33 Q622.128 1517.6 619.026 1517.6 Q616.827 1517.6 614.373 1518.36 Q611.943 1519.13 609.165 1520.68 L609.165 1515.95 Q611.989 1514.82 614.443 1514.24 Q616.896 1513.66 618.933 1513.66 Q624.304 1513.66 627.498 1516.35 Q630.693 1519.03 630.693 1523.52 Q630.693 1525.65 629.882 1527.57 Q629.095 1529.47 626.989 1532.07 Q626.41 1532.74 623.308 1535.95 Q620.207 1539.15 614.559 1544.91 Z" fill="#000000" fill-rule="nonzero" fill-opacity="1" /><path clip-path="url(#clip070)" d="M923.535 1532.02 L953.211 1532.02 L953.211 1535.95 L923.535 1535.95 L923.535 1532.02 Z" fill="#000000" fill-rule="nonzero" fill-opacity="1" /><path clip-path="url(#clip070)" d="M964.114 1544.91 L971.753 1544.91 L971.753 1518.55 L963.443 1520.21 L963.443 1515.95 L971.707 1514.29 L976.382 1514.29 L976.382 1544.91 L984.021 1544.91 L984.021 1548.85 L964.114 1548.85 L964.114 1544.91 Z" fill="#000000" fill-rule="nonzero" fill-opacity="1" /><path clip-path="url(#clip070)" d="M1306.74 1517.37 Q1303.13 1517.37 1301.3 1520.93 Q1299.49 1524.47 1299.49 1531.6 Q1299.49 1538.71 1301.3 1542.27 Q1303.13 1545.82 1306.74 1545.82 Q1310.37 1545.82 1312.18 1542.27 Q1314.01 1538.71 1314.01 1531.6 Q1314.01 1524.47 1312.18 1520.93 Q1310.37 1517.37 1306.74 1517.37 M1306.74 1513.66 Q1312.55 1513.66 1315.6 1518.27 Q1318.68 1522.85 1318.68 1531.6 Q1318.68 1540.33 1315.6 1544.94 Q1312.55 1549.52 1306.74 1549.52 Q1300.93 1549.52 1297.85 1544.94 Q1294.79 1540.33 1294.79 1531.6 Q1294.79 1522.85 1297.85 1518.27 Q1300.93 1513.66 1306.74 1513.66 Z" fill="#000000" fill-rule="nonzero" fill-opacity="1" /><path clip-path="url(#clip070)" d="M1650.08 1544.91 L1657.72 1544.91 L1657.72 1518.55 L1649.41 1520.21 L1649.41 1515.95 L1657.67 1514.29 L1662.35 1514.29 L1662.35 1544.91 L1669.98 1544.91 L1669.98 1548.85 L1650.08 1548.85 L1650.08 1544.91 Z" fill="#000000" fill-rule="nonzero" fill-opacity="1" /><path clip-path="url(#clip070)" d="M2007.31 1544.91 L2023.63 1544.91 L2023.63 1548.85 L2001.68 1548.85 L2001.68 1544.91 Q2004.34 1542.16 2008.93 1537.53 Q2013.53 1532.88 2014.71 1531.53 Q2016.96 1529.01 2017.84 1527.27 Q2018.74 1525.51 2018.74 1523.82 Q2018.74 1521.07 2016.8 1519.33 Q2014.88 1517.6 2011.77 1517.6 Q2009.57 1517.6 2007.12 1518.36 Q2004.69 1519.13 2001.91 1520.68 L2001.91 1515.95 Q2004.74 1514.82 2007.19 1514.24 Q2009.64 1513.66 2011.68 1513.66 Q2017.05 1513.66 2020.25 1516.35 Q2023.44 1519.03 2023.44 1523.52 Q2023.44 1525.65 2022.63 1527.57 Q2021.84 1529.47 2019.74 1532.07 Q2019.16 1532.74 2016.06 1535.95 Q2012.95 1539.15 2007.31 1544.91 Z" fill="#000000" fill-rule="nonzero" fill-opacity="1" /><polyline clip-path="url(#clip070)" style="stroke:#000000; stroke-linecap:round; stroke-linejoin:round; stroke-width:4; stroke-opacity:1; fill:none" points="193.936,1486.45 193.936,47.2441 "/>
<polyline clip-path="url(#clip070)" style="stroke:#000000; stroke-linecap:round; stroke-linejoin:round; stroke-width:4; stroke-opacity:1; fill:none" points="193.936,1414.37 212.834,1414.37 "/>
<polyline clip-path="url(#clip070)" style="stroke:#000000; stroke-linecap:round; stroke-linejoin:round; stroke-width:4; stroke-opacity:1; fill:none" points="193.936,1171.74 212.834,1171.74 "/>
<polyline clip-path="url(#clip070)" style="stroke:#000000; stroke-linecap:round; stroke-linejoin:round; stroke-width:4; stroke-opacity:1; fill:none" points="193.936,929.1 212.834,929.1 "/>
<polyline clip-path="url(#clip070)" style="stroke:#000000; stroke-linecap:round; stroke-linejoin:round; stroke-width:4; stroke-opacity:1; fill:none" points="193.936,686.464 212.834,686.464 "/>
<polyline clip-path="url(#clip070)" style="stroke:#000000; stroke-linecap:round; stroke-linejoin:round; stroke-width:4; stroke-opacity:1; fill:none" points="193.936,443.829 212.834,443.829 "/>
<polyline clip-path="url(#clip070)" style="stroke:#000000; stroke-linecap:round; stroke-linejoin:round; stroke-width:4; stroke-opacity:1; fill:none" points="193.936,201.193 212.834,201.193 "/>
<path clip-path="url(#clip070)" d="M51.9875 1414.82 L81.6633 1414.82 L81.6633 1418.76 L51.9875 1418.76 L51.9875 1414.82 Z" fill="#000000" fill-rule="nonzero" fill-opacity="1" /><path clip-path="url(#clip070)" d="M92.566 1427.72 L100.205 1427.72 L100.205 1401.35 L91.8947 1403.02 L91.8947 1398.76 L100.159 1397.09 L104.834 1397.09 L104.834 1427.72 L112.473 1427.72 L112.473 1431.65 L92.566 1431.65 L92.566 1427.72 Z" fill="#000000" fill-rule="nonzero" fill-opacity="1" /><path clip-path="url(#clip070)" d="M121.918 1425.77 L126.802 1425.77 L126.802 1431.65 L121.918 1431.65 L121.918 1425.77 Z" fill="#000000" fill-rule="nonzero" fill-opacity="1" /><path clip-path="url(#clip070)" d="M137.033 1397.09 L155.39 1397.09 L155.39 1401.03 L141.316 1401.03 L141.316 1409.5 Q142.334 1409.15 143.353 1408.99 Q144.371 1408.8 145.39 1408.8 Q151.177 1408.8 154.556 1411.98 Q157.936 1415.15 157.936 1420.56 Q157.936 1426.14 154.464 1429.24 Q150.992 1432.32 144.672 1432.32 Q142.496 1432.32 140.228 1431.95 Q137.982 1431.58 135.575 1430.84 L135.575 1426.14 Q137.658 1427.28 139.881 1427.83 Q142.103 1428.39 144.58 1428.39 Q148.584 1428.39 150.922 1426.28 Q153.26 1424.17 153.26 1420.56 Q153.26 1416.95 150.922 1414.85 Q148.584 1412.74 144.58 1412.74 Q142.705 1412.74 140.83 1413.16 Q138.978 1413.57 137.033 1414.45 L137.033 1397.09 Z" fill="#000000" fill-rule="nonzero" fill-opacity="1" /><path clip-path="url(#clip070)" d="M50.9921 1172.19 L80.6679 1172.19 L80.6679 1176.12 L50.9921 1176.12 L50.9921 1172.19 Z" fill="#000000" fill-rule="nonzero" fill-opacity="1" /><path clip-path="url(#clip070)" d="M91.5706 1185.08 L99.2095 1185.08 L99.2095 1158.71 L90.8993 1160.38 L90.8993 1156.12 L99.1632 1154.46 L103.839 1154.46 L103.839 1185.08 L111.478 1185.08 L111.478 1189.02 L91.5706 1189.02 L91.5706 1185.08 Z" fill="#000000" fill-rule="nonzero" fill-opacity="1" /><path clip-path="url(#clip070)" d="M120.922 1183.14 L125.807 1183.14 L125.807 1189.02 L120.922 1189.02 L120.922 1183.14 Z" fill="#000000" fill-rule="nonzero" fill-opacity="1" /><path clip-path="url(#clip070)" d="M145.992 1157.53 Q142.381 1157.53 140.552 1161.1 Q138.746 1164.64 138.746 1171.77 Q138.746 1178.88 140.552 1182.44 Q142.381 1185.98 145.992 1185.98 Q149.626 1185.98 151.431 1182.44 Q153.26 1178.88 153.26 1171.77 Q153.26 1164.64 151.431 1161.1 Q149.626 1157.53 145.992 1157.53 M145.992 1153.83 Q151.802 1153.83 154.857 1158.44 Q157.936 1163.02 157.936 1171.77 Q157.936 1180.5 154.857 1185.1 Q151.802 1189.69 145.992 1189.69 Q140.181 1189.69 137.103 1185.1 Q134.047 1180.5 134.047 1171.77 Q134.047 1163.02 137.103 1158.44 Q140.181 1153.83 145.992 1153.83 Z" fill="#000000" fill-rule="nonzero" fill-opacity="1" /><path clip-path="url(#clip070)" d="M51.9875 929.551 L81.6633 929.551 L81.6633 933.486 L51.9875 933.486 L51.9875 929.551 Z" fill="#000000" fill-rule="nonzero" fill-opacity="1" /><path clip-path="url(#clip070)" d="M101.756 914.899 Q98.1447 914.899 96.316 918.463 Q94.5104 922.005 94.5104 929.135 Q94.5104 936.241 96.316 939.806 Q98.1447 943.348 101.756 943.348 Q105.39 943.348 107.196 939.806 Q109.024 936.241 109.024 929.135 Q109.024 922.005 107.196 918.463 Q105.39 914.899 101.756 914.899 M101.756 911.195 Q107.566 911.195 110.621 915.801 Q113.7 920.385 113.7 929.135 Q113.7 937.861 110.621 942.468 Q107.566 947.051 101.756 947.051 Q95.9456 947.051 92.8669 942.468 Q89.8114 937.861 89.8114 929.135 Q89.8114 920.385 92.8669 915.801 Q95.9456 911.195 101.756 911.195 Z" fill="#000000" fill-rule="nonzero" fill-opacity="1" /><path clip-path="url(#clip070)" d="M121.918 940.5 L126.802 940.5 L126.802 946.38 L121.918 946.38 L121.918 940.5 Z" fill="#000000" fill-rule="nonzero" fill-opacity="1" /><path clip-path="url(#clip070)" d="M137.033 911.82 L155.39 911.82 L155.39 915.755 L141.316 915.755 L141.316 924.227 Q142.334 923.88 143.353 923.718 Q144.371 923.533 145.39 923.533 Q151.177 923.533 154.556 926.704 Q157.936 929.875 157.936 935.292 Q157.936 940.871 154.464 943.973 Q150.992 947.051 144.672 947.051 Q142.496 947.051 140.228 946.681 Q137.982 946.31 135.575 945.57 L135.575 940.871 Q137.658 942.005 139.881 942.56 Q142.103 943.116 144.58 943.116 Q148.584 943.116 150.922 941.01 Q153.26 938.903 153.26 935.292 Q153.26 931.681 150.922 929.574 Q148.584 927.468 144.58 927.468 Q142.705 927.468 140.83 927.885 Q138.978 928.301 137.033 929.181 L137.033 911.82 Z" fill="#000000" fill-rule="nonzero" fill-opacity="1" /><path clip-path="url(#clip070)" d="M100.76 672.263 Q97.1493 672.263 95.3206 675.828 Q93.515 679.369 93.515 686.499 Q93.515 693.606 95.3206 697.17 Q97.1493 700.712 100.76 700.712 Q104.395 700.712 106.2 697.17 Q108.029 693.606 108.029 686.499 Q108.029 679.369 106.2 675.828 Q104.395 672.263 100.76 672.263 M100.76 668.559 Q106.571 668.559 109.626 673.166 Q112.705 677.749 112.705 686.499 Q112.705 695.226 109.626 699.832 Q106.571 704.416 100.76 704.416 Q94.9502 704.416 91.8715 699.832 Q88.816 695.226 88.816 686.499 Q88.816 677.749 91.8715 673.166 Q94.9502 668.559 100.76 668.559 Z" fill="#000000" fill-rule="nonzero" fill-opacity="1" /><path clip-path="url(#clip070)" d="M120.922 697.865 L125.807 697.865 L125.807 703.744 L120.922 703.744 L120.922 697.865 Z" fill="#000000" fill-rule="nonzero" fill-opacity="1" /><path clip-path="url(#clip070)" d="M145.992 672.263 Q142.381 672.263 140.552 675.828 Q138.746 679.369 138.746 686.499 Q138.746 693.606 140.552 697.17 Q142.381 700.712 145.992 700.712 Q149.626 700.712 151.431 697.17 Q153.26 693.606 153.26 686.499 Q153.26 679.369 151.431 675.828 Q149.626 672.263 145.992 672.263 M145.992 668.559 Q151.802 668.559 154.857 673.166 Q157.936 677.749 157.936 686.499 Q157.936 695.226 154.857 699.832 Q151.802 704.416 145.992 704.416 Q140.181 704.416 137.103 699.832 Q134.047 695.226 134.047 686.499 Q134.047 677.749 137.103 673.166 Q140.181 668.559 145.992 668.559 Z" fill="#000000" fill-rule="nonzero" fill-opacity="1" /><path clip-path="url(#clip070)" d="M101.756 429.628 Q98.1447 429.628 96.316 433.192 Q94.5104 436.734 94.5104 443.864 Q94.5104 450.97 96.316 454.535 Q98.1447 458.076 101.756 458.076 Q105.39 458.076 107.196 454.535 Q109.024 450.97 109.024 443.864 Q109.024 436.734 107.196 433.192 Q105.39 429.628 101.756 429.628 M101.756 425.924 Q107.566 425.924 110.621 430.53 Q113.7 435.114 113.7 443.864 Q113.7 452.59 110.621 457.197 Q107.566 461.78 101.756 461.78 Q95.9456 461.78 92.8669 457.197 Q89.8114 452.59 89.8114 443.864 Q89.8114 435.114 92.8669 430.53 Q95.9456 425.924 101.756 425.924 Z" fill="#000000" fill-rule="nonzero" fill-opacity="1" /><path clip-path="url(#clip070)" d="M121.918 455.229 L126.802 455.229 L126.802 461.109 L121.918 461.109 L121.918 455.229 Z" fill="#000000" fill-rule="nonzero" fill-opacity="1" /><path clip-path="url(#clip070)" d="M137.033 426.549 L155.39 426.549 L155.39 430.484 L141.316 430.484 L141.316 438.956 Q142.334 438.609 143.353 438.447 Q144.371 438.262 145.39 438.262 Q151.177 438.262 154.556 441.433 Q157.936 444.604 157.936 450.021 Q157.936 455.6 154.464 458.701 Q150.992 461.78 144.672 461.78 Q142.496 461.78 140.228 461.41 Q137.982 461.039 135.575 460.299 L135.575 455.6 Q137.658 456.734 139.881 457.289 Q142.103 457.845 144.58 457.845 Q148.584 457.845 150.922 455.738 Q153.26 453.632 153.26 450.021 Q153.26 446.41 150.922 444.303 Q148.584 442.197 144.58 442.197 Q142.705 442.197 140.83 442.614 Q138.978 443.03 137.033 443.91 L137.033 426.549 Z" fill="#000000" fill-rule="nonzero" fill-opacity="1" /><path clip-path="url(#clip070)" d="M91.5706 214.538 L99.2095 214.538 L99.2095 188.173 L90.8993 189.839 L90.8993 185.58 L99.1632 183.913 L103.839 183.913 L103.839 214.538 L111.478 214.538 L111.478 218.473 L91.5706 218.473 L91.5706 214.538 Z" fill="#000000" fill-rule="nonzero" fill-opacity="1" /><path clip-path="url(#clip070)" d="M120.922 212.594 L125.807 212.594 L125.807 218.473 L120.922 218.473 L120.922 212.594 Z" fill="#000000" fill-rule="nonzero" fill-opacity="1" /><path clip-path="url(#clip070)" d="M145.992 186.992 Q142.381 186.992 140.552 190.557 Q138.746 194.098 138.746 201.228 Q138.746 208.334 140.552 211.899 Q142.381 215.441 145.992 215.441 Q149.626 215.441 151.431 211.899 Q153.26 208.334 153.26 201.228 Q153.26 194.098 151.431 190.557 Q149.626 186.992 145.992 186.992 M145.992 183.288 Q151.802 183.288 154.857 187.895 Q157.936 192.478 157.936 201.228 Q157.936 209.955 154.857 214.561 Q151.802 219.145 145.992 219.145 Q140.181 219.145 137.103 214.561 Q134.047 209.955 134.047 201.228 Q134.047 192.478 137.103 187.895 Q140.181 183.288 145.992 183.288 Z" fill="#000000" fill-rule="nonzero" fill-opacity="1" /><circle clip-path="url(#clip072)" cx="900.693" cy="231.784" r="14.4" fill="#009af9" fill-rule="evenodd" fill-opacity="0.5" stroke="#000000" stroke-opacity="0.5" stroke-width="3.2"/>
<circle clip-path="url(#clip072)" cx="1179.24" cy="1245.87" r="14.4" fill="#009af9" fill-rule="evenodd" fill-opacity="0.5" stroke="#000000" stroke-opacity="0.5" stroke-width="3.2"/>
<circle clip-path="url(#clip072)" cx="625.923" cy="645.669" r="14.4" fill="#009af9" fill-rule="evenodd" fill-opacity="0.5" stroke="#000000" stroke-opacity="0.5" stroke-width="3.2"/>
<circle clip-path="url(#clip072)" cx="1342.24" cy="936.533" r="14.4" fill="#009af9" fill-rule="evenodd" fill-opacity="0.5" stroke="#000000" stroke-opacity="0.5" stroke-width="3.2"/>
<circle clip-path="url(#clip072)" cx="1341.59" cy="953.684" r="14.4" fill="#009af9" fill-rule="evenodd" fill-opacity="0.5" stroke="#000000" stroke-opacity="0.5" stroke-width="3.2"/>
<circle clip-path="url(#clip072)" cx="1381.92" cy="593.345" r="14.4" fill="#009af9" fill-rule="evenodd" fill-opacity="0.5" stroke="#000000" stroke-opacity="0.5" stroke-width="3.2"/>
<circle clip-path="url(#clip072)" cx="1189.31" cy="838.529" r="14.4" fill="#009af9" fill-rule="evenodd" fill-opacity="0.5" stroke="#000000" stroke-opacity="0.5" stroke-width="3.2"/>
<circle clip-path="url(#clip072)" cx="1354.52" cy="122.909" r="14.4" fill="#009af9" fill-rule="evenodd" fill-opacity="0.5" stroke="#000000" stroke-opacity="0.5" stroke-width="3.2"/>
<circle clip-path="url(#clip072)" cx="1886.59" cy="708.166" r="14.4" fill="#009af9" fill-rule="evenodd" fill-opacity="0.5" stroke="#000000" stroke-opacity="0.5" stroke-width="3.2"/>
<circle clip-path="url(#clip072)" cx="1695.56" cy="908.266" r="14.4" fill="#009af9" fill-rule="evenodd" fill-opacity="0.5" stroke="#000000" stroke-opacity="0.5" stroke-width="3.2"/>
<circle clip-path="url(#clip072)" cx="1059.47" cy="608.995" r="14.4" fill="#009af9" fill-rule="evenodd" fill-opacity="0.5" stroke="#000000" stroke-opacity="0.5" stroke-width="3.2"/>
<circle clip-path="url(#clip072)" cx="864.533" cy="652.395" r="14.4" fill="#009af9" fill-rule="evenodd" fill-opacity="0.5" stroke="#000000" stroke-opacity="0.5" stroke-width="3.2"/>
<circle clip-path="url(#clip072)" cx="2291.66" cy="526.744" r="14.4" fill="#009af9" fill-rule="evenodd" fill-opacity="0.5" stroke="#000000" stroke-opacity="0.5" stroke-width="3.2"/>
<circle clip-path="url(#clip072)" cx="1462.2" cy="463.521" r="14.4" fill="#009af9" fill-rule="evenodd" fill-opacity="0.5" stroke="#000000" stroke-opacity="0.5" stroke-width="3.2"/>
<circle clip-path="url(#clip072)" cx="742.04" cy="1083.84" r="14.4" fill="#009af9" fill-rule="evenodd" fill-opacity="0.5" stroke="#000000" stroke-opacity="0.5" stroke-width="3.2"/>
<circle clip-path="url(#clip072)" cx="1426.7" cy="87.9763" r="14.4" fill="#009af9" fill-rule="evenodd" fill-opacity="0.5" stroke="#000000" stroke-opacity="0.5" stroke-width="3.2"/>
<circle clip-path="url(#clip072)" cx="1267.06" cy="872.323" r="14.4" fill="#009af9" fill-rule="evenodd" fill-opacity="0.5" stroke="#000000" stroke-opacity="0.5" stroke-width="3.2"/>
<circle clip-path="url(#clip072)" cx="1642.79" cy="278.72" r="14.4" fill="#009af9" fill-rule="evenodd" fill-opacity="0.5" stroke="#000000" stroke-opacity="0.5" stroke-width="3.2"/>
<circle clip-path="url(#clip072)" cx="1875.2" cy="456.398" r="14.4" fill="#009af9" fill-rule="evenodd" fill-opacity="0.5" stroke="#000000" stroke-opacity="0.5" stroke-width="3.2"/>
<circle clip-path="url(#clip072)" cx="1163.95" cy="1445.72" r="14.4" fill="#009af9" fill-rule="evenodd" fill-opacity="0.5" stroke="#000000" stroke-opacity="0.5" stroke-width="3.2"/>
<circle clip-path="url(#clip072)" cx="963.075" cy="471.304" r="14.4" fill="#009af9" fill-rule="evenodd" fill-opacity="0.5" stroke="#000000" stroke-opacity="0.5" stroke-width="3.2"/>
<circle clip-path="url(#clip072)" cx="1526.23" cy="423.216" r="14.4" fill="#009af9" fill-rule="evenodd" fill-opacity="0.5" stroke="#000000" stroke-opacity="0.5" stroke-width="3.2"/>
<circle clip-path="url(#clip072)" cx="255.035" cy="441.653" r="14.4" fill="#009af9" fill-rule="evenodd" fill-opacity="0.5" stroke="#000000" stroke-opacity="0.5" stroke-width="3.2"/>
<circle clip-path="url(#clip072)" cx="788.817" cy="815.843" r="14.4" fill="#009af9" fill-rule="evenodd" fill-opacity="0.5" stroke="#000000" stroke-opacity="0.5" stroke-width="3.2"/>
<circle clip-path="url(#clip072)" cx="625.236" cy="1114" r="14.4" fill="#009af9" fill-rule="evenodd" fill-opacity="0.5" stroke="#000000" stroke-opacity="0.5" stroke-width="3.2"/>
<circle clip-path="url(#clip072)" cx="1329.03" cy="908.578" r="14.4" fill="#009af9" fill-rule="evenodd" fill-opacity="0.5" stroke="#000000" stroke-opacity="0.5" stroke-width="3.2"/>
<circle clip-path="url(#clip072)" cx="1596.14" cy="467.167" r="14.4" fill="#009af9" fill-rule="evenodd" fill-opacity="0.5" stroke="#000000" stroke-opacity="0.5" stroke-width="3.2"/>
<circle clip-path="url(#clip072)" cx="1158.43" cy="760.293" r="14.4" fill="#009af9" fill-rule="evenodd" fill-opacity="0.5" stroke="#000000" stroke-opacity="0.5" stroke-width="3.2"/>
<circle clip-path="url(#clip072)" cx="1643.91" cy="224.74" r="14.4" fill="#009af9" fill-rule="evenodd" fill-opacity="0.5" stroke="#000000" stroke-opacity="0.5" stroke-width="3.2"/>
<circle clip-path="url(#clip072)" cx="1707.39" cy="765.964" r="14.4" fill="#009af9" fill-rule="evenodd" fill-opacity="0.5" stroke="#000000" stroke-opacity="0.5" stroke-width="3.2"/>
<path clip-path="url(#clip072)" d="M255.035 441.653 L625.236 1114 L1163.95 1445.72 L2291.66 526.744 L1426.7 87.9763 L900.693 231.784 L255.035 441.653 L255.035 441.653  Z" fill="#e26f46" fill-rule="evenodd" fill-opacity="0.2"/>
<polyline clip-path="url(#clip072)" style="stroke:#000000; stroke-linecap:round; stroke-linejoin:round; stroke-width:4; stroke-opacity:0.2; fill:none" points="255.035,441.653 625.236,1114 1163.95,1445.72 2291.66,526.744 1426.7,87.9763 900.693,231.784 255.035,441.653 "/>
</svg>
