<?xml version="1.0" encoding="utf-8"?>
<svg xmlns="http://www.w3.org/2000/svg" xmlns:xlink="http://www.w3.org/1999/xlink" width="600" height="400" viewBox="0 0 2400 1600">
<defs>
  <clipPath id="clip660">
    <rect x="0" y="0" width="2400" height="1600"/>
  </clipPath>
</defs>
<path clip-path="url(#clip660)" d="M0 1600 L2400 1600 L2400 0 L0 0  Z" fill="#ffffff" fill-rule="evenodd" fill-opacity="1"/>
<defs>
  <clipPath id="clip661">
    <rect x="480" y="0" width="1681" height="1600"/>
  </clipPath>
</defs>
<path clip-path="url(#clip660)" d="M147.478 1486.45 L2352.76 1486.45 L2352.76 47.2441 L147.478 47.2441  Z" fill="#ffffff" fill-rule="evenodd" fill-opacity="1"/>
<defs>
  <clipPath id="clip662">
    <rect x="147" y="47" width="2206" height="1440"/>
  </clipPath>
</defs>
<polyline clip-path="url(#clip662)" style="stroke:#000000; stroke-linecap:round; stroke-linejoin:round; stroke-width:2; stroke-opacity:0.1; fill:none" points="370.028,1486.45 370.028,47.2441 "/>
<polyline clip-path="url(#clip662)" style="stroke:#000000; stroke-linecap:round; stroke-linejoin:round; stroke-width:2; stroke-opacity:0.1; fill:none" points="653.85,1486.45 653.85,47.2441 "/>
<polyline clip-path="url(#clip662)" style="stroke:#000000; stroke-linecap:round; stroke-linejoin:round; stroke-width:2; stroke-opacity:0.1; fill:none" points="937.671,1486.45 937.671,47.2441 "/>
<polyline clip-path="url(#clip662)" style="stroke:#000000; stroke-linecap:round; stroke-linejoin:round; stroke-width:2; stroke-opacity:0.1; fill:none" points="1221.49,1486.45 1221.49,47.2441 "/>
<polyline clip-path="url(#clip662)" style="stroke:#000000; stroke-linecap:round; stroke-linejoin:round; stroke-width:2; stroke-opacity:0.1; fill:none" points="1505.31,1486.45 1505.31,47.2441 "/>
<polyline clip-path="url(#clip662)" style="stroke:#000000; stroke-linecap:round; stroke-linejoin:round; stroke-width:2; stroke-opacity:0.1; fill:none" points="1789.13,1486.45 1789.13,47.2441 "/>
<polyline clip-path="url(#clip662)" style="stroke:#000000; stroke-linecap:round; stroke-linejoin:round; stroke-width:2; stroke-opacity:0.1; fill:none" points="2072.95,1486.45 2072.95,47.2441 "/>
<polyline clip-path="url(#clip660)" style="stroke:#000000; stroke-linecap:round; stroke-linejoin:round; stroke-width:4; stroke-opacity:1; fill:none" points="147.478,1486.45 2352.76,1486.45 "/>
<polyline clip-path="url(#clip660)" style="stroke:#000000; stroke-linecap:round; stroke-linejoin:round; stroke-width:4; stroke-opacity:1; fill:none" points="370.028,1486.45 370.028,1467.55 "/>
<polyline clip-path="url(#clip660)" style="stroke:#000000; stroke-linecap:round; stroke-linejoin:round; stroke-width:4; stroke-opacity:1; fill:none" points="653.85,1486.45 653.85,1467.55 "/>
<polyline clip-path="url(#clip660)" style="stroke:#000000; stroke-linecap:round; stroke-linejoin:round; stroke-width:4; stroke-opacity:1; fill:none" points="937.671,1486.45 937.671,1467.55 "/>
<polyline clip-path="url(#clip660)" style="stroke:#000000; stroke-linecap:round; stroke-linejoin:round; stroke-width:4; stroke-opacity:1; fill:none" points="1221.49,1486.45 1221.49,1467.55 "/>
<polyline clip-path="url(#clip660)" style="stroke:#000000; stroke-linecap:round; stroke-linejoin:round; stroke-width:4; stroke-opacity:1; fill:none" points="1505.31,1486.45 1505.31,1467.55 "/>
<polyline clip-path="url(#clip660)" style="stroke:#000000; stroke-linecap:round; stroke-linejoin:round; stroke-width:4; stroke-opacity:1; fill:none" points="1789.13,1486.45 1789.13,1467.55 "/>
<polyline clip-path="url(#clip660)" style="stroke:#000000; stroke-linecap:round; stroke-linejoin:round; stroke-width:4; stroke-opacity:1; fill:none" points="2072.95,1486.45 2072.95,1467.55 "/>
<path clip-path="url(#clip660)" d="M317.054 1532.02 L346.73 1532.02 L346.73 1535.95 L317.054 1535.95 L317.054 1532.02 Z" fill="#000000" fill-rule="nonzero" fill-opacity="1" /><path clip-path="url(#clip660)" d="M357.633 1544.91 L365.272 1544.91 L365.272 1518.55 L356.961 1520.21 L356.961 1515.95 L365.225 1514.29 L369.901 1514.29 L369.901 1544.91 L377.54 1544.91 L377.54 1548.85 L357.633 1548.85 L357.633 1544.91 Z" fill="#000000" fill-rule="nonzero" fill-opacity="1" /><path clip-path="url(#clip660)" d="M386.984 1542.97 L391.869 1542.97 L391.869 1548.85 L386.984 1548.85 L386.984 1542.97 Z" fill="#000000" fill-rule="nonzero" fill-opacity="1" /><path clip-path="url(#clip660)" d="M402.1 1514.29 L420.456 1514.29 L420.456 1518.22 L406.382 1518.22 L406.382 1526.7 Q407.401 1526.35 408.419 1526.19 Q409.438 1526 410.456 1526 Q416.243 1526 419.623 1529.17 Q423.003 1532.34 423.003 1537.76 Q423.003 1543.34 419.531 1546.44 Q416.058 1549.52 409.739 1549.52 Q407.563 1549.52 405.294 1549.15 Q403.049 1548.78 400.642 1548.04 L400.642 1543.34 Q402.725 1544.47 404.947 1545.03 Q407.169 1545.58 409.646 1545.58 Q413.651 1545.58 415.989 1543.48 Q418.327 1541.37 418.327 1537.76 Q418.327 1534.15 415.989 1532.04 Q413.651 1529.94 409.646 1529.94 Q407.771 1529.94 405.896 1530.35 Q404.044 1530.77 402.1 1531.65 L402.1 1514.29 Z" fill="#000000" fill-rule="nonzero" fill-opacity="1" /><path clip-path="url(#clip660)" d="M600.378 1532.02 L630.053 1532.02 L630.053 1535.95 L600.378 1535.95 L600.378 1532.02 Z" fill="#000000" fill-rule="nonzero" fill-opacity="1" /><path clip-path="url(#clip660)" d="M640.956 1544.91 L648.595 1544.91 L648.595 1518.55 L640.285 1520.21 L640.285 1515.95 L648.549 1514.29 L653.225 1514.29 L653.225 1544.91 L660.863 1544.91 L660.863 1548.85 L640.956 1548.85 L640.956 1544.91 Z" fill="#000000" fill-rule="nonzero" fill-opacity="1" /><path clip-path="url(#clip660)" d="M670.308 1542.97 L675.192 1542.97 L675.192 1548.85 L670.308 1548.85 L670.308 1542.97 Z" fill="#000000" fill-rule="nonzero" fill-opacity="1" /><path clip-path="url(#clip660)" d="M695.377 1517.37 Q691.766 1517.37 689.937 1520.93 Q688.132 1524.47 688.132 1531.6 Q688.132 1538.71 689.937 1542.27 Q691.766 1545.82 695.377 1545.82 Q699.011 1545.82 700.817 1542.27 Q702.646 1538.71 702.646 1531.6 Q702.646 1524.47 700.817 1520.93 Q699.011 1517.37 695.377 1517.37 M695.377 1513.66 Q701.187 1513.66 704.243 1518.27 Q707.321 1522.85 707.321 1531.6 Q707.321 1540.33 704.243 1544.94 Q701.187 1549.52 695.377 1549.52 Q689.567 1549.52 686.488 1544.94 Q683.433 1540.33 683.433 1531.6 Q683.433 1522.85 686.488 1518.27 Q689.567 1513.66 695.377 1513.66 Z" fill="#000000" fill-rule="nonzero" fill-opacity="1" /><path clip-path="url(#clip660)" d="M884.696 1532.02 L914.372 1532.02 L914.372 1535.95 L884.696 1535.95 L884.696 1532.02 Z" fill="#000000" fill-rule="nonzero" fill-opacity="1" /><path clip-path="url(#clip660)" d="M934.465 1517.37 Q930.854 1517.37 929.025 1520.93 Q927.219 1524.47 927.219 1531.6 Q927.219 1538.71 929.025 1542.27 Q930.854 1545.82 934.465 1545.82 Q938.099 1545.82 939.904 1542.27 Q941.733 1538.71 941.733 1531.6 Q941.733 1524.47 939.904 1520.93 Q938.099 1517.37 934.465 1517.37 M934.465 1513.66 Q940.275 1513.66 943.33 1518.27 Q946.409 1522.85 946.409 1531.6 Q946.409 1540.33 943.33 1544.94 Q940.275 1549.52 934.465 1549.52 Q928.654 1549.52 925.576 1544.94 Q922.52 1540.33 922.52 1531.6 Q922.52 1522.85 925.576 1518.27 Q928.654 1513.66 934.465 1513.66 Z" fill="#000000" fill-rule="nonzero" fill-opacity="1" /><path clip-path="url(#clip660)" d="M954.627 1542.97 L959.511 1542.97 L959.511 1548.85 L954.627 1548.85 L954.627 1542.97 Z" fill="#000000" fill-rule="nonzero" fill-opacity="1" /><path clip-path="url(#clip660)" d="M969.742 1514.29 L988.099 1514.29 L988.099 1518.22 L974.025 1518.22 L974.025 1526.7 Q975.043 1526.35 976.062 1526.19 Q977.08 1526 978.099 1526 Q983.886 1526 987.265 1529.17 Q990.645 1532.34 990.645 1537.76 Q990.645 1543.34 987.173 1546.44 Q983.7 1549.52 977.381 1549.52 Q975.205 1549.52 972.937 1549.15 Q970.691 1548.78 968.284 1548.04 L968.284 1543.34 Q970.367 1544.47 972.589 1545.03 Q974.812 1545.58 977.288 1545.58 Q981.293 1545.58 983.631 1543.48 Q985.969 1541.37 985.969 1537.76 Q985.969 1534.15 983.631 1532.04 Q981.293 1529.94 977.288 1529.94 Q975.413 1529.94 973.538 1530.35 Q971.687 1530.77 969.742 1531.65 L969.742 1514.29 Z" fill="#000000" fill-rule="nonzero" fill-opacity="1" /><path clip-path="url(#clip660)" d="M1198.88 1517.37 Q1195.27 1517.37 1193.44 1520.93 Q1191.63 1524.47 1191.63 1531.6 Q1191.63 1538.71 1193.44 1542.27 Q1195.27 1545.82 1198.88 1545.82 Q1202.51 1545.82 1204.32 1542.27 Q1206.14 1538.71 1206.14 1531.6 Q1206.14 1524.47 1204.32 1520.93 Q1202.51 1517.37 1198.88 1517.37 M1198.88 1513.66 Q1204.69 1513.66 1207.74 1518.27 Q1210.82 1522.85 1210.82 1531.6 Q1210.82 1540.33 1207.74 1544.94 Q1204.69 1549.52 1198.88 1549.52 Q1193.07 1549.52 1189.99 1544.94 Q1186.93 1540.33 1186.93 1531.6 Q1186.93 1522.85 1189.99 1518.27 Q1193.07 1513.66 1198.88 1513.66 Z" fill="#000000" fill-rule="nonzero" fill-opacity="1" /><path clip-path="url(#clip660)" d="M1219.04 1542.97 L1223.92 1542.97 L1223.92 1548.85 L1219.04 1548.85 L1219.04 1542.97 Z" fill="#000000" fill-rule="nonzero" fill-opacity="1" /><path clip-path="url(#clip660)" d="M1244.11 1517.37 Q1240.5 1517.37 1238.67 1520.93 Q1236.86 1524.47 1236.86 1531.6 Q1236.86 1538.71 1238.67 1542.27 Q1240.5 1545.82 1244.11 1545.82 Q1247.74 1545.82 1249.55 1542.27 Q1251.38 1538.71 1251.38 1531.6 Q1251.38 1524.47 1249.55 1520.93 Q1247.74 1517.37 1244.11 1517.37 M1244.11 1513.66 Q1249.92 1513.66 1252.97 1518.27 Q1256.05 1522.85 1256.05 1531.6 Q1256.05 1540.33 1252.97 1544.94 Q1249.92 1549.52 1244.11 1549.52 Q1238.3 1549.52 1235.22 1544.94 Q1232.16 1540.33 1232.16 1531.6 Q1232.16 1522.85 1235.22 1518.27 Q1238.3 1513.66 1244.11 1513.66 Z" fill="#000000" fill-rule="nonzero" fill-opacity="1" /><path clip-path="url(#clip660)" d="M1483.19 1517.37 Q1479.58 1517.37 1477.76 1520.93 Q1475.95 1524.47 1475.95 1531.6 Q1475.95 1538.71 1477.76 1542.27 Q1479.58 1545.82 1483.19 1545.82 Q1486.83 1545.82 1488.63 1542.27 Q1490.46 1538.71 1490.46 1531.6 Q1490.46 1524.47 1488.63 1520.93 Q1486.83 1517.37 1483.19 1517.37 M1483.19 1513.66 Q1489.01 1513.66 1492.06 1518.27 Q1495.14 1522.85 1495.14 1531.6 Q1495.14 1540.33 1492.06 1544.94 Q1489.01 1549.52 1483.19 1549.52 Q1477.38 1549.52 1474.31 1544.94 Q1471.25 1540.33 1471.25 1531.6 Q1471.25 1522.85 1474.31 1518.27 Q1477.38 1513.66 1483.19 1513.66 Z" fill="#000000" fill-rule="nonzero" fill-opacity="1" /><path clip-path="url(#clip660)" d="M1503.36 1542.97 L1508.24 1542.97 L1508.24 1548.85 L1503.36 1548.85 L1503.36 1542.97 Z" fill="#000000" fill-rule="nonzero" fill-opacity="1" /><path clip-path="url(#clip660)" d="M1518.47 1514.29 L1536.83 1514.29 L1536.83 1518.22 L1522.75 1518.22 L1522.75 1526.7 Q1523.77 1526.35 1524.79 1526.19 Q1525.81 1526 1526.83 1526 Q1532.62 1526 1536 1529.17 Q1539.38 1532.34 1539.38 1537.76 Q1539.38 1543.34 1535.9 1546.44 Q1532.43 1549.52 1526.11 1549.52 Q1523.94 1549.52 1521.67 1549.15 Q1519.42 1548.78 1517.01 1548.04 L1517.01 1543.34 Q1519.1 1544.47 1521.32 1545.03 Q1523.54 1545.58 1526.02 1545.58 Q1530.02 1545.58 1532.36 1543.48 Q1534.7 1541.37 1534.7 1537.76 Q1534.7 1534.15 1532.36 1532.04 Q1530.02 1529.94 1526.02 1529.94 Q1524.14 1529.94 1522.27 1530.35 Q1520.42 1530.77 1518.47 1531.65 L1518.47 1514.29 Z" fill="#000000" fill-rule="nonzero" fill-opacity="1" /><path clip-path="url(#clip660)" d="M1756.29 1544.91 L1763.93 1544.91 L1763.93 1518.55 L1755.62 1520.21 L1755.62 1515.95 L1763.88 1514.29 L1768.56 1514.29 L1768.56 1544.91 L1776.19 1544.91 L1776.19 1548.85 L1756.29 1548.85 L1756.29 1544.91 Z" fill="#000000" fill-rule="nonzero" fill-opacity="1" /><path clip-path="url(#clip660)" d="M1785.64 1542.97 L1790.52 1542.97 L1790.52 1548.85 L1785.64 1548.85 L1785.64 1542.97 Z" fill="#000000" fill-rule="nonzero" fill-opacity="1" /><path clip-path="url(#clip660)" d="M1810.71 1517.37 Q1807.1 1517.37 1805.27 1520.93 Q1803.46 1524.47 1803.46 1531.6 Q1803.46 1538.71 1805.27 1542.27 Q1807.1 1545.82 1810.71 1545.82 Q1814.34 1545.82 1816.15 1542.27 Q1817.98 1538.71 1817.98 1531.6 Q1817.98 1524.47 1816.15 1520.93 Q1814.34 1517.37 1810.71 1517.37 M1810.71 1513.66 Q1816.52 1513.66 1819.57 1518.27 Q1822.65 1522.85 1822.65 1531.6 Q1822.65 1540.33 1819.57 1544.94 Q1816.52 1549.52 1810.71 1549.52 Q1804.9 1549.52 1801.82 1544.94 Q1798.76 1540.33 1798.76 1531.6 Q1798.76 1522.85 1801.82 1518.27 Q1804.9 1513.66 1810.71 1513.66 Z" fill="#000000" fill-rule="nonzero" fill-opacity="1" /><path clip-path="url(#clip660)" d="M2040.61 1544.91 L2048.24 1544.91 L2048.24 1518.55 L2039.93 1520.21 L2039.93 1515.95 L2048.2 1514.29 L2052.87 1514.29 L2052.87 1544.91 L2060.51 1544.91 L2060.51 1548.85 L2040.61 1548.85 L2040.61 1544.91 Z" fill="#000000" fill-rule="nonzero" fill-opacity="1" /><path clip-path="url(#clip660)" d="M2069.96 1542.97 L2074.84 1542.97 L2074.84 1548.85 L2069.96 1548.85 L2069.96 1542.97 Z" fill="#000000" fill-rule="nonzero" fill-opacity="1" /><path clip-path="url(#clip660)" d="M2085.07 1514.29 L2103.43 1514.29 L2103.43 1518.22 L2089.36 1518.22 L2089.36 1526.7 Q2090.37 1526.35 2091.39 1526.19 Q2092.41 1526 2093.43 1526 Q2099.22 1526 2102.6 1529.17 Q2105.98 1532.34 2105.98 1537.76 Q2105.98 1543.34 2102.5 1546.44 Q2099.03 1549.52 2092.71 1549.52 Q2090.54 1549.52 2088.27 1549.15 Q2086.02 1548.78 2083.61 1548.04 L2083.61 1543.34 Q2085.7 1544.47 2087.92 1545.03 Q2090.14 1545.58 2092.62 1545.58 Q2096.62 1545.58 2098.96 1543.48 Q2101.3 1541.37 2101.3 1537.76 Q2101.3 1534.15 2098.96 1532.04 Q2096.62 1529.94 2092.62 1529.94 Q2090.74 1529.94 2088.87 1530.35 Q2087.02 1530.77 2085.07 1531.65 L2085.07 1514.29 Z" fill="#000000" fill-rule="nonzero" fill-opacity="1" /><polyline clip-path="url(#clip662)" style="stroke:#000000; stroke-linecap:round; stroke-linejoin:round; stroke-width:2; stroke-opacity:0.1; fill:none" points="147.478,1163.43 2352.76,1163.43 "/>
<polyline clip-path="url(#clip662)" style="stroke:#000000; stroke-linecap:round; stroke-linejoin:round; stroke-width:2; stroke-opacity:0.1; fill:none" points="147.478,814.873 2352.76,814.873 "/>
<polyline clip-path="url(#clip662)" style="stroke:#000000; stroke-linecap:round; stroke-linejoin:round; stroke-width:2; stroke-opacity:0.1; fill:none" points="147.478,466.315 2352.76,466.315 "/>
<polyline clip-path="url(#clip662)" style="stroke:#000000; stroke-linecap:round; stroke-linejoin:round; stroke-width:2; stroke-opacity:0.1; fill:none" points="147.478,117.756 2352.76,117.756 "/>
<polyline clip-path="url(#clip660)" style="stroke:#000000; stroke-linecap:round; stroke-linejoin:round; stroke-width:4; stroke-opacity:1; fill:none" points="147.478,1486.45 147.478,47.2441 "/>
<polyline clip-path="url(#clip660)" style="stroke:#000000; stroke-linecap:round; stroke-linejoin:round; stroke-width:4; stroke-opacity:1; fill:none" points="147.478,1163.43 166.376,1163.43 "/>
<polyline clip-path="url(#clip660)" style="stroke:#000000; stroke-linecap:round; stroke-linejoin:round; stroke-width:4; stroke-opacity:1; fill:none" points="147.478,814.873 166.376,814.873 "/>
<polyline clip-path="url(#clip660)" style="stroke:#000000; stroke-linecap:round; stroke-linejoin:round; stroke-width:4; stroke-opacity:1; fill:none" points="147.478,466.315 166.376,466.315 "/>
<polyline clip-path="url(#clip660)" style="stroke:#000000; stroke-linecap:round; stroke-linejoin:round; stroke-width:4; stroke-opacity:1; fill:none" points="147.478,117.756 166.376,117.756 "/>
<path clip-path="url(#clip660)" d="M50.9921 1163.88 L80.6679 1163.88 L80.6679 1167.82 L50.9921 1167.82 L50.9921 1163.88 Z" fill="#000000" fill-rule="nonzero" fill-opacity="1" /><path clip-path="url(#clip660)" d="M91.5706 1176.78 L99.2095 1176.78 L99.2095 1150.41 L90.8993 1152.08 L90.8993 1147.82 L99.1632 1146.15 L103.839 1146.15 L103.839 1176.78 L111.478 1176.78 L111.478 1180.71 L91.5706 1180.71 L91.5706 1176.78 Z" fill="#000000" fill-rule="nonzero" fill-opacity="1" /><path clip-path="url(#clip660)" d="M99.5335 800.672 Q95.9224 800.672 94.0937 804.237 Q92.2882 807.778 92.2882 814.908 Q92.2882 822.014 94.0937 825.579 Q95.9224 829.121 99.5335 829.121 Q103.168 829.121 104.973 825.579 Q106.802 822.014 106.802 814.908 Q106.802 807.778 104.973 804.237 Q103.168 800.672 99.5335 800.672 M99.5335 796.968 Q105.344 796.968 108.399 801.575 Q111.478 806.158 111.478 814.908 Q111.478 823.635 108.399 828.241 Q105.344 832.825 99.5335 832.825 Q93.7234 832.825 90.6447 828.241 Q87.5892 823.635 87.5892 814.908 Q87.5892 806.158 90.6447 801.575 Q93.7234 796.968 99.5335 796.968 Z" fill="#000000" fill-rule="nonzero" fill-opacity="1" /><path clip-path="url(#clip660)" d="M91.5706 479.66 L99.2095 479.66 L99.2095 453.294 L90.8993 454.961 L90.8993 450.701 L99.1632 449.035 L103.839 449.035 L103.839 479.66 L111.478 479.66 L111.478 483.595 L91.5706 483.595 L91.5706 479.66 Z" fill="#000000" fill-rule="nonzero" fill-opacity="1" /><path clip-path="url(#clip660)" d="M95.1586 131.101 L111.478 131.101 L111.478 135.036 L89.5336 135.036 L89.5336 131.101 Q92.1956 128.346 96.7789 123.717 Q101.385 119.064 102.566 117.721 Q104.811 115.198 105.691 113.462 Q106.594 111.703 106.594 110.013 Q106.594 107.258 104.649 105.522 Q102.728 103.786 99.6261 103.786 Q97.4271 103.786 94.9734 104.55 Q92.5428 105.314 89.7651 106.865 L89.7651 102.143 Q92.5891 101.008 95.0428 100.43 Q97.4965 99.8511 99.5335 99.8511 Q104.904 99.8511 108.098 102.536 Q111.293 105.221 111.293 109.712 Q111.293 111.842 110.483 113.763 Q109.696 115.661 107.589 118.254 Q107.01 118.925 103.909 122.143 Q100.807 125.337 95.1586 131.101 Z" fill="#000000" fill-rule="nonzero" fill-opacity="1" /><circle clip-path="url(#clip662)" cx="935.31" cy="558.626" r="14.4" fill="#009af9" fill-rule="evenodd" fill-opacity="0.5" stroke="#000000" stroke-opacity="0.5" stroke-width="3.2"/>
<circle clip-path="url(#clip662)" cx="566.945" cy="644.525" r="14.4" fill="#009af9" fill-rule="evenodd" fill-opacity="0.5" stroke="#000000" stroke-opacity="0.5" stroke-width="3.2"/>
<circle clip-path="url(#clip662)" cx="1253.83" cy="1129.09" r="14.4" fill="#009af9" fill-rule="evenodd" fill-opacity="0.5" stroke="#000000" stroke-opacity="0.5" stroke-width="3.2"/>
<circle clip-path="url(#clip662)" cx="1865.94" cy="1262.6" r="14.4" fill="#009af9" fill-rule="evenodd" fill-opacity="0.5" stroke="#000000" stroke-opacity="0.5" stroke-width="3.2"/>
<circle clip-path="url(#clip662)" cx="1485.15" cy="873.949" r="14.4" fill="#009af9" fill-rule="evenodd" fill-opacity="0.5" stroke="#000000" stroke-opacity="0.5" stroke-width="3.2"/>
<circle clip-path="url(#clip662)" cx="1660.64" cy="1363.78" r="14.4" fill="#009af9" fill-rule="evenodd" fill-opacity="0.5" stroke="#000000" stroke-opacity="0.5" stroke-width="3.2"/>
<circle clip-path="url(#clip662)" cx="1885.62" cy="553.218" r="14.4" fill="#009af9" fill-rule="evenodd" fill-opacity="0.5" stroke="#000000" stroke-opacity="0.5" stroke-width="3.2"/>
<circle clip-path="url(#clip662)" cx="1404.01" cy="1292.47" r="14.4" fill="#009af9" fill-rule="evenodd" fill-opacity="0.5" stroke="#000000" stroke-opacity="0.5" stroke-width="3.2"/>
<circle clip-path="url(#clip662)" cx="767.593" cy="132.451" r="14.4" fill="#009af9" fill-rule="evenodd" fill-opacity="0.5" stroke="#000000" stroke-opacity="0.5" stroke-width="3.2"/>
<circle clip-path="url(#clip662)" cx="2086.46" cy="604.848" r="14.4" fill="#009af9" fill-rule="evenodd" fill-opacity="0.5" stroke="#000000" stroke-opacity="0.5" stroke-width="3.2"/>
<circle clip-path="url(#clip662)" cx="538.553" cy="946.328" r="14.4" fill="#009af9" fill-rule="evenodd" fill-opacity="0.5" stroke="#000000" stroke-opacity="0.5" stroke-width="3.2"/>
<circle clip-path="url(#clip662)" cx="1021.46" cy="1329.6" r="14.4" fill="#009af9" fill-rule="evenodd" fill-opacity="0.5" stroke="#000000" stroke-opacity="0.5" stroke-width="3.2"/>
<circle clip-path="url(#clip662)" cx="1873.41" cy="343.977" r="14.4" fill="#009af9" fill-rule="evenodd" fill-opacity="0.5" stroke="#000000" stroke-opacity="0.5" stroke-width="3.2"/>
<circle clip-path="url(#clip662)" cx="1512.38" cy="973.806" r="14.4" fill="#009af9" fill-rule="evenodd" fill-opacity="0.5" stroke="#000000" stroke-opacity="0.5" stroke-width="3.2"/>
<circle clip-path="url(#clip662)" cx="985.687" cy="869.972" r="14.4" fill="#009af9" fill-rule="evenodd" fill-opacity="0.5" stroke="#000000" stroke-opacity="0.5" stroke-width="3.2"/>
<circle clip-path="url(#clip662)" cx="209.891" cy="1142.7" r="14.4" fill="#009af9" fill-rule="evenodd" fill-opacity="0.5" stroke="#000000" stroke-opacity="0.5" stroke-width="3.2"/>
<circle clip-path="url(#clip662)" cx="1105.89" cy="1257.47" r="14.4" fill="#009af9" fill-rule="evenodd" fill-opacity="0.5" stroke="#000000" stroke-opacity="0.5" stroke-width="3.2"/>
<circle clip-path="url(#clip662)" cx="344.369" cy="87.9763" r="14.4" fill="#009af9" fill-rule="evenodd" fill-opacity="0.5" stroke="#000000" stroke-opacity="0.5" stroke-width="3.2"/>
<circle clip-path="url(#clip662)" cx="1595.33" cy="1445.72" r="14.4" fill="#009af9" fill-rule="evenodd" fill-opacity="0.5" stroke="#000000" stroke-opacity="0.5" stroke-width="3.2"/>
<circle clip-path="url(#clip662)" cx="888.761" cy="884.727" r="14.4" fill="#009af9" fill-rule="evenodd" fill-opacity="0.5" stroke="#000000" stroke-opacity="0.5" stroke-width="3.2"/>
<circle clip-path="url(#clip662)" cx="1724" cy="301.517" r="14.4" fill="#009af9" fill-rule="evenodd" fill-opacity="0.5" stroke="#000000" stroke-opacity="0.5" stroke-width="3.2"/>
<circle clip-path="url(#clip662)" cx="1770.63" cy="752.976" r="14.4" fill="#009af9" fill-rule="evenodd" fill-opacity="0.5" stroke="#000000" stroke-opacity="0.5" stroke-width="3.2"/>
<circle clip-path="url(#clip662)" cx="1839.18" cy="1086.15" r="14.4" fill="#009af9" fill-rule="evenodd" fill-opacity="0.5" stroke="#000000" stroke-opacity="0.5" stroke-width="3.2"/>
<circle clip-path="url(#clip662)" cx="916.496" cy="1046.22" r="14.4" fill="#009af9" fill-rule="evenodd" fill-opacity="0.5" stroke="#000000" stroke-opacity="0.5" stroke-width="3.2"/>
<circle clip-path="url(#clip662)" cx="1092.69" cy="1159.46" r="14.4" fill="#009af9" fill-rule="evenodd" fill-opacity="0.5" stroke="#000000" stroke-opacity="0.5" stroke-width="3.2"/>
<circle clip-path="url(#clip662)" cx="936.677" cy="825.36" r="14.4" fill="#009af9" fill-rule="evenodd" fill-opacity="0.5" stroke="#000000" stroke-opacity="0.5" stroke-width="3.2"/>
<circle clip-path="url(#clip662)" cx="1363.05" cy="708.672" r="14.4" fill="#009af9" fill-rule="evenodd" fill-opacity="0.5" stroke="#000000" stroke-opacity="0.5" stroke-width="3.2"/>
<circle clip-path="url(#clip662)" cx="409.908" cy="470.749" r="14.4" fill="#009af9" fill-rule="evenodd" fill-opacity="0.5" stroke="#000000" stroke-opacity="0.5" stroke-width="3.2"/>
<circle clip-path="url(#clip662)" cx="1966.09" cy="882.937" r="14.4" fill="#009af9" fill-rule="evenodd" fill-opacity="0.5" stroke="#000000" stroke-opacity="0.5" stroke-width="3.2"/>
<circle clip-path="url(#clip662)" cx="2290.34" cy="464.586" r="14.4" fill="#009af9" fill-rule="evenodd" fill-opacity="0.5" stroke="#000000" stroke-opacity="0.5" stroke-width="3.2"/>
<path clip-path="url(#clip662)" d="M209.891 1142.7 L1021.46 1329.6 L1595.33 1445.72 L1865.94 1262.6 L2290.34 464.586 L1873.41 343.977 L1724 301.517 L767.593 132.451 L344.369 87.9763 L209.891 1142.7 L209.891 1142.7  Z" fill="#e26f46" fill-rule="evenodd" fill-opacity="0.2"/>
<polyline clip-path="url(#clip662)" style="stroke:#000000; stroke-linecap:round; stroke-linejoin:round; stroke-width:4; stroke-opacity:0.2; fill:none" points="209.891,1142.7 1021.46,1329.6 1595.33,1445.72 1865.94,1262.6 2290.34,464.586 1873.41,343.977 1724,301.517 767.593,132.451 344.369,87.9763 209.891,1142.7 "/>
</svg>
