<?xml version="1.0" encoding="utf-8"?>
<svg xmlns="http://www.w3.org/2000/svg" xmlns:xlink="http://www.w3.org/1999/xlink" width="600" height="400" viewBox="0 0 2400 1600">
<defs>
  <clipPath id="clip710">
    <rect x="0" y="0" width="2400" height="1600"/>
  </clipPath>
</defs>
<path clip-path="url(#clip710)" d="M0 1600 L2400 1600 L2400 0 L0 0  Z" fill="#ffffff" fill-rule="evenodd" fill-opacity="1"/>
<defs>
  <clipPath id="clip711">
    <rect x="480" y="0" width="1681" height="1600"/>
  </clipPath>
</defs>
<path clip-path="url(#clip710)" d="M147.478 1486.45 L2352.76 1486.45 L2352.76 47.2441 L147.478 47.2441  Z" fill="#ffffff" fill-rule="evenodd" fill-opacity="1"/>
<defs>
  <clipPath id="clip712">
    <rect x="147" y="47" width="2206" height="1440"/>
  </clipPath>
</defs>
<polyline clip-path="url(#clip712)" style="stroke:#000000; stroke-linecap:round; stroke-linejoin:round; stroke-width:2; stroke-opacity:0.1; fill:none" points="173.575,1486.45 173.575,47.2441 "/>
<polyline clip-path="url(#clip712)" style="stroke:#000000; stroke-linecap:round; stroke-linejoin:round; stroke-width:2; stroke-opacity:0.1; fill:none" points="571.247,1486.45 571.247,47.2441 "/>
<polyline clip-path="url(#clip712)" style="stroke:#000000; stroke-linecap:round; stroke-linejoin:round; stroke-width:2; stroke-opacity:0.1; fill:none" points="968.92,1486.45 968.92,47.2441 "/>
<polyline clip-path="url(#clip712)" style="stroke:#000000; stroke-linecap:round; stroke-linejoin:round; stroke-width:2; stroke-opacity:0.1; fill:none" points="1366.59,1486.45 1366.59,47.2441 "/>
<polyline clip-path="url(#clip712)" style="stroke:#000000; stroke-linecap:round; stroke-linejoin:round; stroke-width:2; stroke-opacity:0.1; fill:none" points="1764.27,1486.45 1764.27,47.2441 "/>
<polyline clip-path="url(#clip712)" style="stroke:#000000; stroke-linecap:round; stroke-linejoin:round; stroke-width:2; stroke-opacity:0.1; fill:none" points="2161.94,1486.45 2161.94,47.2441 "/>
<polyline clip-path="url(#clip712)" style="stroke:#000000; stroke-linecap:round; stroke-linejoin:round; stroke-width:2; stroke-opacity:0.1; fill:none" points="147.478,1280.99 2352.76,1280.99 "/>
<polyline clip-path="url(#clip712)" style="stroke:#000000; stroke-linecap:round; stroke-linejoin:round; stroke-width:2; stroke-opacity:0.1; fill:none" points="147.478,883.322 2352.76,883.322 "/>
<polyline clip-path="url(#clip712)" style="stroke:#000000; stroke-linecap:round; stroke-linejoin:round; stroke-width:2; stroke-opacity:0.1; fill:none" points="147.478,485.649 2352.76,485.649 "/>
<polyline clip-path="url(#clip712)" style="stroke:#000000; stroke-linecap:round; stroke-linejoin:round; stroke-width:2; stroke-opacity:0.1; fill:none" points="147.478,87.9763 2352.76,87.9763 "/>
<polyline clip-path="url(#clip710)" style="stroke:#000000; stroke-linecap:round; stroke-linejoin:round; stroke-width:4; stroke-opacity:1; fill:none" points="147.478,1486.45 2352.76,1486.45 "/>
<polyline clip-path="url(#clip710)" style="stroke:#000000; stroke-linecap:round; stroke-linejoin:round; stroke-width:4; stroke-opacity:1; fill:none" points="173.575,1486.45 173.575,1467.55 "/>
<polyline clip-path="url(#clip710)" style="stroke:#000000; stroke-linecap:round; stroke-linejoin:round; stroke-width:4; stroke-opacity:1; fill:none" points="571.247,1486.45 571.247,1467.55 "/>
<polyline clip-path="url(#clip710)" style="stroke:#000000; stroke-linecap:round; stroke-linejoin:round; stroke-width:4; stroke-opacity:1; fill:none" points="968.92,1486.45 968.92,1467.55 "/>
<polyline clip-path="url(#clip710)" style="stroke:#000000; stroke-linecap:round; stroke-linejoin:round; stroke-width:4; stroke-opacity:1; fill:none" points="1366.59,1486.45 1366.59,1467.55 "/>
<polyline clip-path="url(#clip710)" style="stroke:#000000; stroke-linecap:round; stroke-linejoin:round; stroke-width:4; stroke-opacity:1; fill:none" points="1764.27,1486.45 1764.27,1467.55 "/>
<polyline clip-path="url(#clip710)" style="stroke:#000000; stroke-linecap:round; stroke-linejoin:round; stroke-width:4; stroke-opacity:1; fill:none" points="2161.94,1486.45 2161.94,1467.55 "/>
<path clip-path="url(#clip710)" d="M143.517 1532.02 L173.193 1532.02 L173.193 1535.95 L143.517 1535.95 L143.517 1532.02 Z" fill="#000000" fill-rule="nonzero" fill-opacity="1" /><path clip-path="url(#clip710)" d="M187.313 1544.91 L203.632 1544.91 L203.632 1548.85 L181.688 1548.85 L181.688 1544.91 Q184.35 1542.16 188.933 1537.53 Q193.54 1532.88 194.72 1531.53 Q196.966 1529.01 197.845 1527.27 Q198.748 1525.51 198.748 1523.82 Q198.748 1521.07 196.804 1519.33 Q194.882 1517.6 191.78 1517.6 Q189.581 1517.6 187.128 1518.36 Q184.697 1519.13 181.919 1520.68 L181.919 1515.95 Q184.743 1514.82 187.197 1514.24 Q189.651 1513.66 191.688 1513.66 Q197.058 1513.66 200.253 1516.35 Q203.447 1519.03 203.447 1523.52 Q203.447 1525.65 202.637 1527.57 Q201.85 1529.47 199.743 1532.07 Q199.165 1532.74 196.063 1535.95 Q192.961 1539.15 187.313 1544.91 Z" fill="#000000" fill-rule="nonzero" fill-opacity="1" /><path clip-path="url(#clip710)" d="M541.004 1532.02 L570.68 1532.02 L570.68 1535.95 L541.004 1535.95 L541.004 1532.02 Z" fill="#000000" fill-rule="nonzero" fill-opacity="1" /><path clip-path="url(#clip710)" d="M581.583 1544.91 L589.222 1544.91 L589.222 1518.55 L580.912 1520.21 L580.912 1515.95 L589.175 1514.29 L593.851 1514.29 L593.851 1544.91 L601.49 1544.91 L601.49 1548.85 L581.583 1548.85 L581.583 1544.91 Z" fill="#000000" fill-rule="nonzero" fill-opacity="1" /><path clip-path="url(#clip710)" d="M968.92 1517.37 Q965.309 1517.37 963.48 1520.93 Q961.675 1524.47 961.675 1531.6 Q961.675 1538.71 963.48 1542.27 Q965.309 1545.82 968.92 1545.82 Q972.554 1545.82 974.36 1542.27 Q976.188 1538.71 976.188 1531.6 Q976.188 1524.47 974.36 1520.93 Q972.554 1517.37 968.92 1517.37 M968.92 1513.66 Q974.73 1513.66 977.786 1518.27 Q980.864 1522.85 980.864 1531.6 Q980.864 1540.33 977.786 1544.94 Q974.73 1549.52 968.92 1549.52 Q963.11 1549.52 960.031 1544.94 Q956.975 1540.33 956.975 1531.6 Q956.975 1522.85 960.031 1518.27 Q963.11 1513.66 968.92 1513.66 Z" fill="#000000" fill-rule="nonzero" fill-opacity="1" /><path clip-path="url(#clip710)" d="M1356.97 1544.91 L1364.61 1544.91 L1364.61 1518.55 L1356.3 1520.21 L1356.3 1515.95 L1364.57 1514.29 L1369.24 1514.29 L1369.24 1544.91 L1376.88 1544.91 L1376.88 1548.85 L1356.97 1548.85 L1356.97 1544.91 Z" fill="#000000" fill-rule="nonzero" fill-opacity="1" /><path clip-path="url(#clip710)" d="M1758.92 1544.91 L1775.24 1544.91 L1775.24 1548.85 L1753.29 1548.85 L1753.29 1544.91 Q1755.96 1542.16 1760.54 1537.53 Q1765.14 1532.88 1766.33 1531.53 Q1768.57 1529.01 1769.45 1527.27 Q1770.35 1525.51 1770.35 1523.82 Q1770.35 1521.07 1768.41 1519.33 Q1766.49 1517.6 1763.39 1517.6 Q1761.19 1517.6 1758.73 1518.36 Q1756.3 1519.13 1753.52 1520.68 L1753.52 1515.95 Q1756.35 1514.82 1758.8 1514.24 Q1761.26 1513.66 1763.29 1513.66 Q1768.66 1513.66 1771.86 1516.35 Q1775.05 1519.03 1775.05 1523.52 Q1775.05 1525.65 1774.24 1527.57 Q1773.45 1529.47 1771.35 1532.07 Q1770.77 1532.74 1767.67 1535.95 Q1764.57 1539.15 1758.92 1544.91 Z" fill="#000000" fill-rule="nonzero" fill-opacity="1" /><path clip-path="url(#clip710)" d="M2166.19 1530.21 Q2169.54 1530.93 2171.42 1533.2 Q2173.32 1535.47 2173.32 1538.8 Q2173.32 1543.92 2169.8 1546.72 Q2166.28 1549.52 2159.8 1549.52 Q2157.62 1549.52 2155.31 1549.08 Q2153.01 1548.66 2150.56 1547.81 L2150.56 1543.29 Q2152.51 1544.43 2154.82 1545.01 Q2157.13 1545.58 2159.66 1545.58 Q2164.06 1545.58 2166.35 1543.85 Q2168.66 1542.11 2168.66 1538.8 Q2168.66 1535.75 2166.51 1534.03 Q2164.38 1532.3 2160.56 1532.3 L2156.53 1532.3 L2156.53 1528.45 L2160.75 1528.45 Q2164.19 1528.45 2166.02 1527.09 Q2167.85 1525.7 2167.85 1523.11 Q2167.85 1520.45 2165.95 1519.03 Q2164.08 1517.6 2160.56 1517.6 Q2158.64 1517.6 2156.44 1518.01 Q2154.24 1518.43 2151.6 1519.31 L2151.6 1515.14 Q2154.26 1514.4 2156.58 1514.03 Q2158.92 1513.66 2160.98 1513.66 Q2166.3 1513.66 2169.4 1516.09 Q2172.5 1518.5 2172.5 1522.62 Q2172.5 1525.49 2170.86 1527.48 Q2169.22 1529.45 2166.19 1530.21 Z" fill="#000000" fill-rule="nonzero" fill-opacity="1" /><polyline clip-path="url(#clip710)" style="stroke:#000000; stroke-linecap:round; stroke-linejoin:round; stroke-width:4; stroke-opacity:1; fill:none" points="147.478,1486.45 147.478,47.2441 "/>
<polyline clip-path="url(#clip710)" style="stroke:#000000; stroke-linecap:round; stroke-linejoin:round; stroke-width:4; stroke-opacity:1; fill:none" points="147.478,1280.99 166.376,1280.99 "/>
<polyline clip-path="url(#clip710)" style="stroke:#000000; stroke-linecap:round; stroke-linejoin:round; stroke-width:4; stroke-opacity:1; fill:none" points="147.478,883.322 166.376,883.322 "/>
<polyline clip-path="url(#clip710)" style="stroke:#000000; stroke-linecap:round; stroke-linejoin:round; stroke-width:4; stroke-opacity:1; fill:none" points="147.478,485.649 166.376,485.649 "/>
<polyline clip-path="url(#clip710)" style="stroke:#000000; stroke-linecap:round; stroke-linejoin:round; stroke-width:4; stroke-opacity:1; fill:none" points="147.478,87.9763 166.376,87.9763 "/>
<path clip-path="url(#clip710)" d="M50.9921 1281.45 L80.6679 1281.45 L80.6679 1285.38 L50.9921 1285.38 L50.9921 1281.45 Z" fill="#000000" fill-rule="nonzero" fill-opacity="1" /><path clip-path="url(#clip710)" d="M91.5706 1294.34 L99.2095 1294.34 L99.2095 1267.97 L90.8993 1269.64 L90.8993 1265.38 L99.1632 1263.71 L103.839 1263.71 L103.839 1294.34 L111.478 1294.34 L111.478 1298.27 L91.5706 1298.27 L91.5706 1294.34 Z" fill="#000000" fill-rule="nonzero" fill-opacity="1" /><path clip-path="url(#clip710)" d="M99.5335 869.12 Q95.9224 869.12 94.0937 872.685 Q92.2882 876.227 92.2882 883.356 Q92.2882 890.463 94.0937 894.028 Q95.9224 897.569 99.5335 897.569 Q103.168 897.569 104.973 894.028 Q106.802 890.463 106.802 883.356 Q106.802 876.227 104.973 872.685 Q103.168 869.12 99.5335 869.12 M99.5335 865.417 Q105.344 865.417 108.399 870.023 Q111.478 874.606 111.478 883.356 Q111.478 892.083 108.399 896.69 Q105.344 901.273 99.5335 901.273 Q93.7234 901.273 90.6447 896.69 Q87.5892 892.083 87.5892 883.356 Q87.5892 874.606 90.6447 870.023 Q93.7234 865.417 99.5335 865.417 Z" fill="#000000" fill-rule="nonzero" fill-opacity="1" /><path clip-path="url(#clip710)" d="M91.5706 498.994 L99.2095 498.994 L99.2095 472.628 L90.8993 474.295 L90.8993 470.036 L99.1632 468.369 L103.839 468.369 L103.839 498.994 L111.478 498.994 L111.478 502.929 L91.5706 502.929 L91.5706 498.994 Z" fill="#000000" fill-rule="nonzero" fill-opacity="1" /><path clip-path="url(#clip710)" d="M95.1586 101.321 L111.478 101.321 L111.478 105.256 L89.5336 105.256 L89.5336 101.321 Q92.1956 98.5665 96.7789 93.9369 Q101.385 89.2841 102.566 87.9416 Q104.811 85.4184 105.691 83.6823 Q106.594 81.9231 106.594 80.2333 Q106.594 77.4786 104.649 75.7425 Q102.728 74.0064 99.6261 74.0064 Q97.4271 74.0064 94.9734 74.7703 Q92.5428 75.5342 89.7651 77.0851 L89.7651 72.3629 Q92.5891 71.2287 95.0428 70.65 Q97.4965 70.0713 99.5335 70.0713 Q104.904 70.0713 108.098 72.7565 Q111.293 75.4416 111.293 79.9323 Q111.293 82.062 110.483 83.9832 Q109.696 85.8814 107.589 88.474 Q107.01 89.1453 103.909 92.3628 Q100.807 95.5573 95.1586 101.321 Z" fill="#000000" fill-rule="nonzero" fill-opacity="1" /><path clip-path="url(#clip712)" d="M571.247 897.128 L572.205 924.706 L574.119 952.185 L576.984 979.499 L580.793 1006.58 L585.537 1033.36 L591.205 1059.79 L597.782 1085.79 L605.254 1111.3 L613.602 1136.26 L622.806 1160.61 L632.843 1184.29 L643.691 1207.25 L655.322 1229.43 L667.708 1250.77 L680.82 1271.23 L694.626 1290.76 L709.093 1309.3 L724.185 1326.82 L739.868 1343.26 L756.102 1358.61 L772.849 1372.8 L790.068 1385.82 L807.718 1397.62 L825.756 1408.19 L844.14 1417.49 L862.824 1425.51 L881.763 1432.22 L900.913 1437.6 L920.226 1441.65 L939.656 1444.36 L959.158 1445.72 L978.682 1445.72 L998.183 1444.36 L1017.61 1441.65 L1036.93 1437.6 L1056.08 1432.22 L1075.02 1425.51 L1093.7 1417.49 L1112.08 1408.19 L1130.12 1397.62 L1147.77 1385.82 L1164.99 1372.8 L1181.74 1358.61 L1197.97 1343.26 L1213.65 1326.82 L1228.75 1309.3 L1243.21 1290.76 L1257.02 1271.23 L1270.13 1250.77 L1282.52 1229.43 L1294.15 1207.25 L1305 1184.29 L1315.03 1160.61 L1324.24 1136.26 L1332.59 1111.3 L1340.06 1085.79 L1346.64 1059.79 L1352.3 1033.36 L1357.05 1006.58 L1360.86 979.499 L1363.72 952.185 L1365.63 924.706 L1366.59 897.128 L1366.59 869.516 L1365.63 841.937 L1363.72 814.458 L1360.86 787.145 L1357.05 760.063 L1352.3 733.279 L1346.64 706.856 L1340.06 680.858 L1332.59 655.348 L1324.24 630.387 L1315.03 606.035 L1305 582.351 L1294.15 559.393 L1282.52 537.215 L1270.13 515.87 L1257.02 495.411 L1243.21 475.887 L1228.75 457.344 L1213.65 439.827 L1197.97 423.378 L1181.74 408.038 L1164.99 393.842 L1147.77 380.826 L1130.12 369.021 L1112.08 358.454 L1093.7 349.152 L1075.02 341.136 L1056.08 334.427 L1036.93 329.04 L1017.61 324.989 L998.183 322.282 L978.682 320.928 L959.158 320.928 L939.656 322.282 L920.226 324.989 L900.913 329.04 L881.763 334.427 L862.824 341.136 L844.14 349.152 L825.756 358.454 L807.718 369.021 L790.068 380.826 L772.849 393.842 L756.102 408.038 L739.868 423.378 L724.185 439.827 L709.093 457.344 L694.626 475.887 L680.82 495.411 L667.708 515.87 L655.322 537.215 L643.691 559.393 L632.843 582.351 L622.806 606.035 L613.602 630.387 L605.254 655.348 L597.782 680.858 L591.205 706.856 L585.537 733.279 L580.793 760.063 L576.984 787.145 L574.119 814.458 L572.205 841.937 L571.247 869.516 L571.247 897.128 L571.247 897.128  Z" fill="#009af9" fill-rule="evenodd" fill-opacity="0.5"/>
<polyline clip-path="url(#clip712)" style="stroke:#000000; stroke-linecap:round; stroke-linejoin:round; stroke-width:4; stroke-opacity:0.5; fill:none" points="571.247,897.128 572.205,924.706 574.119,952.185 576.984,979.499 580.793,1006.58 585.537,1033.36 591.205,1059.79 597.782,1085.79 605.254,1111.3 613.602,1136.26 622.806,1160.61 632.843,1184.29 643.691,1207.25 655.322,1229.43 667.708,1250.77 680.82,1271.23 694.626,1290.76 709.093,1309.3 724.185,1326.82 739.868,1343.26 756.102,1358.61 772.849,1372.8 790.068,1385.82 807.718,1397.62 825.756,1408.19 844.14,1417.49 862.824,1425.51 881.763,1432.22 900.913,1437.6 920.226,1441.65 939.656,1444.36 959.158,1445.72 978.682,1445.72 998.183,1444.36 1017.61,1441.65 1036.93,1437.6 1056.08,1432.22 1075.02,1425.51 1093.7,1417.49 1112.08,1408.19 1130.12,1397.62 1147.77,1385.82 1164.99,1372.8 1181.74,1358.61 1197.97,1343.26 1213.65,1326.82 1228.75,1309.3 1243.21,1290.76 1257.02,1271.23 1270.13,1250.77 1282.52,1229.43 1294.15,1207.25 1305,1184.29 1315.03,1160.61 1324.24,1136.26 1332.59,1111.3 1340.06,1085.79 1346.64,1059.79 1352.3,1033.36 1357.05,1006.58 1360.86,979.499 1363.72,952.185 1365.63,924.706 1366.59,897.128 1366.59,869.516 1365.63,841.937 1363.72,814.458 1360.86,787.145 1357.05,760.063 1352.3,733.279 1346.64,706.856 1340.06,680.858 1332.59,655.348 1324.24,630.387 1315.03,606.035 1305,582.351 1294.15,559.393 1282.52,537.215 1270.13,515.87 1257.02,495.411 1243.21,475.887 1228.75,457.344 1213.65,439.827 1197.97,423.378 1181.74,408.038 1164.99,393.842 1147.77,380.826 1130.12,369.021 1112.08,358.454 1093.7,349.152 1075.02,341.136 1056.08,334.427 1036.93,329.04 1017.61,324.989 998.183,322.282 978.682,320.928 959.158,320.928 939.656,322.282 920.226,324.989 900.913,329.04 881.763,334.427 862.824,341.136 844.14,349.152 825.756,358.454 807.718,369.021 790.068,380.826 772.849,393.842 756.102,408.038 739.868,423.378 724.185,439.827 709.093,457.344 694.626,475.887 680.82,495.411 667.708,515.87 655.322,537.215 643.691,559.393 632.843,582.351 622.806,606.035 613.602,630.387 605.254,655.348 597.782,680.858 591.205,706.856 585.537,733.279 580.793,760.063 576.984,787.145 574.119,814.458 572.205,841.937 571.247,869.516 571.247,897.128 "/>
<path clip-path="url(#clip712)" d="M804.198 495.411 L805.553 514.912 L808.26 534.343 L812.311 553.656 L817.698 572.806 L824.407 591.745 L832.423 610.429 L841.725 628.812 L852.291 646.851 L864.097 664.501 L877.113 681.72 L891.309 698.467 L906.649 714.701 L923.098 730.383 L940.614 745.476 L959.158 759.943 L978.682 773.749 L999.141 786.861 L1020.49 799.247 L1042.66 810.878 L1065.62 821.725 L1089.31 831.763 L1113.66 840.967 L1138.62 849.315 L1164.13 856.786 L1190.13 863.364 L1216.55 869.032 L1243.33 873.776 L1270.42 877.585 L1297.73 880.45 L1325.21 882.364 L1352.79 883.322 L1380.4 883.322 L1407.98 882.364 L1435.46 880.45 L1462.77 877.585 L1489.85 873.776 L1516.64 869.032 L1543.06 863.364 L1569.06 856.786 L1594.57 849.315 L1619.53 840.967 L1643.88 831.763 L1667.56 821.725 L1690.52 810.878 L1712.7 799.247 L1734.04 786.861 L1754.5 773.749 L1774.03 759.943 L1792.57 745.476 L1810.09 730.383 L1826.54 714.701 L1841.88 698.467 L1856.07 681.72 L1869.09 664.501 L1880.89 646.851 L1891.46 628.812 L1900.76 610.429 L1908.78 591.745 L1915.49 572.806 L1920.87 553.656 L1924.93 534.343 L1927.63 514.912 L1928.99 495.411 L1928.99 475.887 L1927.63 456.386 L1924.93 436.955 L1920.87 417.642 L1915.49 398.492 L1908.78 379.553 L1900.76 360.869 L1891.46 342.485 L1880.89 324.447 L1869.09 306.797 L1856.07 289.578 L1841.88 272.831 L1826.54 256.597 L1810.09 240.914 L1792.57 225.822 L1774.03 211.355 L1754.5 197.549 L1734.04 184.437 L1712.7 172.051 L1690.52 160.42 L1667.56 149.573 L1643.88 139.535 L1619.53 130.331 L1594.57 121.983 L1569.06 114.511 L1543.06 107.934 L1516.64 102.266 L1489.85 97.522 L1462.77 93.7129 L1435.46 90.8481 L1407.98 88.9343 L1380.4 87.9763 L1352.79 87.9763 L1325.21 88.9343 L1297.73 90.8481 L1270.42 93.7129 L1243.33 97.522 L1216.55 102.266 L1190.13 107.934 L1164.13 114.511 L1138.62 121.983 L1113.66 130.331 L1089.31 139.535 L1065.62 149.573 L1042.66 160.42 L1020.49 172.051 L999.141 184.437 L978.682 197.549 L959.158 211.355 L940.614 225.822 L923.098 240.914 L906.649 256.597 L891.309 272.831 L877.113 289.578 L864.097 306.797 L852.291 324.447 L841.725 342.485 L832.423 360.869 L824.407 379.553 L817.698 398.492 L812.311 417.642 L808.26 436.955 L805.553 456.386 L804.198 475.887 L804.198 495.411 L804.198 495.411  Z" fill="#e26f46" fill-rule="evenodd" fill-opacity="0.5"/>
<polyline clip-path="url(#clip712)" style="stroke:#000000; stroke-linecap:round; stroke-linejoin:round; stroke-width:4; stroke-opacity:0.5; fill:none" points="804.198,495.411 805.553,514.912 808.26,534.343 812.311,553.656 817.698,572.806 824.407,591.745 832.423,610.429 841.725,628.812 852.291,646.851 864.097,664.501 877.113,681.72 891.309,698.467 906.649,714.701 923.098,730.383 940.614,745.476 959.158,759.943 978.682,773.749 999.141,786.861 1020.49,799.247 1042.66,810.878 1065.62,821.725 1089.31,831.763 1113.66,840.967 1138.62,849.315 1164.13,856.786 1190.13,863.364 1216.55,869.032 1243.33,873.776 1270.42,877.585 1297.73,880.45 1325.21,882.364 1352.79,883.322 1380.4,883.322 1407.98,882.364 1435.46,880.45 1462.77,877.585 1489.85,873.776 1516.64,869.032 1543.06,863.364 1569.06,856.786 1594.57,849.315 1619.53,840.967 1643.88,831.763 1667.56,821.725 1690.52,810.878 1712.7,799.247 1734.04,786.861 1754.5,773.749 1774.03,759.943 1792.57,745.476 1810.09,730.383 1826.54,714.701 1841.88,698.467 1856.07,681.72 1869.09,664.501 1880.89,646.851 1891.46,628.812 1900.76,610.429 1908.78,591.745 1915.49,572.806 1920.87,553.656 1924.93,534.343 1927.63,514.912 1928.99,495.411 1928.99,475.887 1927.63,456.386 1924.93,436.955 1920.87,417.642 1915.49,398.492 1908.78,379.553 1900.76,360.869 1891.46,342.485 1880.89,324.447 1869.09,306.797 1856.07,289.578 1841.88,272.831 1826.54,256.597 1810.09,240.914 1792.57,225.822 1774.03,211.355 1754.5,197.549 1734.04,184.437 1712.7,172.051 1690.52,160.42 1667.56,149.573 1643.88,139.535 1619.53,130.331 1594.57,121.983 1569.06,114.511 1543.06,107.934 1516.64,102.266 1489.85,97.522 1462.77,93.7129 1435.46,90.8481 1407.98,88.9343 1380.4,87.9763 1352.79,87.9763 1325.21,88.9343 1297.73,90.8481 1270.42,93.7129 1243.33,97.522 1216.55,102.266 1190.13,107.934 1164.13,114.511 1138.62,121.983 1113.66,130.331 1089.31,139.535 1065.62,149.573 1042.66,160.42 1020.49,172.051 999.141,184.437 978.682,197.549 959.158,211.355 940.614,225.822 923.098,240.914 906.649,256.597 891.309,272.831 877.113,289.578 864.097,306.797 852.291,324.447 841.725,342.485 832.423,360.869 824.407,379.553 817.698,398.492 812.311,417.642 808.26,436.955 805.553,456.386 804.198,475.887 804.198,495.411 "/>
</svg>
