<?xml version="1.0" encoding="utf-8"?>
<svg xmlns="http://www.w3.org/2000/svg" xmlns:xlink="http://www.w3.org/1999/xlink" width="600" height="400" viewBox="0 0 2400 1600">
<defs>
  <clipPath id="clip690">
    <rect x="0" y="0" width="2400" height="1600"/>
  </clipPath>
</defs>
<path clip-path="url(#clip690)" d="M0 1600 L2400 1600 L2400 0 L0 0  Z" fill="#ffffff" fill-rule="evenodd" fill-opacity="1"/>
<defs>
  <clipPath id="clip691">
    <rect x="480" y="0" width="1681" height="1600"/>
  </clipPath>
</defs>
<path clip-path="url(#clip690)" d="M147.478 1486.45 L2352.76 1486.45 L2352.76 47.2441 L147.478 47.2441  Z" fill="#ffffff" fill-rule="evenodd" fill-opacity="1"/>
<defs>
  <clipPath id="clip692">
    <rect x="147" y="47" width="2206" height="1440"/>
  </clipPath>
</defs>
<polyline clip-path="url(#clip692)" style="stroke:#000000; stroke-linecap:round; stroke-linejoin:round; stroke-width:2; stroke-opacity:0.1; fill:none" points="426.792,1486.45 426.792,47.2441 "/>
<polyline clip-path="url(#clip692)" style="stroke:#000000; stroke-linecap:round; stroke-linejoin:round; stroke-width:2; stroke-opacity:0.1; fill:none" points="778.245,1486.45 778.245,47.2441 "/>
<polyline clip-path="url(#clip692)" style="stroke:#000000; stroke-linecap:round; stroke-linejoin:round; stroke-width:2; stroke-opacity:0.1; fill:none" points="1129.7,1486.45 1129.7,47.2441 "/>
<polyline clip-path="url(#clip692)" style="stroke:#000000; stroke-linecap:round; stroke-linejoin:round; stroke-width:2; stroke-opacity:0.1; fill:none" points="1481.15,1486.45 1481.15,47.2441 "/>
<polyline clip-path="url(#clip692)" style="stroke:#000000; stroke-linecap:round; stroke-linejoin:round; stroke-width:2; stroke-opacity:0.1; fill:none" points="1832.61,1486.45 1832.61,47.2441 "/>
<polyline clip-path="url(#clip692)" style="stroke:#000000; stroke-linecap:round; stroke-linejoin:round; stroke-width:2; stroke-opacity:0.1; fill:none" points="2184.06,1486.45 2184.06,47.2441 "/>
<polyline clip-path="url(#clip692)" style="stroke:#000000; stroke-linecap:round; stroke-linejoin:round; stroke-width:2; stroke-opacity:0.1; fill:none" points="147.478,1216.28 2352.76,1216.28 "/>
<polyline clip-path="url(#clip692)" style="stroke:#000000; stroke-linecap:round; stroke-linejoin:round; stroke-width:2; stroke-opacity:0.1; fill:none" points="147.478,848.104 2352.76,848.104 "/>
<polyline clip-path="url(#clip692)" style="stroke:#000000; stroke-linecap:round; stroke-linejoin:round; stroke-width:2; stroke-opacity:0.1; fill:none" points="147.478,479.927 2352.76,479.927 "/>
<polyline clip-path="url(#clip692)" style="stroke:#000000; stroke-linecap:round; stroke-linejoin:round; stroke-width:2; stroke-opacity:0.1; fill:none" points="147.478,111.751 2352.76,111.751 "/>
<polyline clip-path="url(#clip690)" style="stroke:#000000; stroke-linecap:round; stroke-linejoin:round; stroke-width:4; stroke-opacity:1; fill:none" points="147.478,1486.45 2352.76,1486.45 "/>
<polyline clip-path="url(#clip690)" style="stroke:#000000; stroke-linecap:round; stroke-linejoin:round; stroke-width:4; stroke-opacity:1; fill:none" points="426.792,1486.45 426.792,1467.55 "/>
<polyline clip-path="url(#clip690)" style="stroke:#000000; stroke-linecap:round; stroke-linejoin:round; stroke-width:4; stroke-opacity:1; fill:none" points="778.245,1486.45 778.245,1467.55 "/>
<polyline clip-path="url(#clip690)" style="stroke:#000000; stroke-linecap:round; stroke-linejoin:round; stroke-width:4; stroke-opacity:1; fill:none" points="1129.7,1486.45 1129.7,1467.55 "/>
<polyline clip-path="url(#clip690)" style="stroke:#000000; stroke-linecap:round; stroke-linejoin:round; stroke-width:4; stroke-opacity:1; fill:none" points="1481.15,1486.45 1481.15,1467.55 "/>
<polyline clip-path="url(#clip690)" style="stroke:#000000; stroke-linecap:round; stroke-linejoin:round; stroke-width:4; stroke-opacity:1; fill:none" points="1832.61,1486.45 1832.61,1467.55 "/>
<polyline clip-path="url(#clip690)" style="stroke:#000000; stroke-linecap:round; stroke-linejoin:round; stroke-width:4; stroke-opacity:1; fill:none" points="2184.06,1486.45 2184.06,1467.55 "/>
<path clip-path="url(#clip690)" d="M373.817 1532.02 L403.493 1532.02 L403.493 1535.95 L373.817 1535.95 L373.817 1532.02 Z" fill="#000000" fill-rule="nonzero" fill-opacity="1" /><path clip-path="url(#clip690)" d="M414.396 1544.91 L422.035 1544.91 L422.035 1518.55 L413.724 1520.21 L413.724 1515.95 L421.988 1514.29 L426.664 1514.29 L426.664 1544.91 L434.303 1544.91 L434.303 1548.85 L414.396 1548.85 L414.396 1544.91 Z" fill="#000000" fill-rule="nonzero" fill-opacity="1" /><path clip-path="url(#clip690)" d="M443.747 1542.97 L448.632 1542.97 L448.632 1548.85 L443.747 1548.85 L443.747 1542.97 Z" fill="#000000" fill-rule="nonzero" fill-opacity="1" /><path clip-path="url(#clip690)" d="M458.863 1514.29 L477.22 1514.29 L477.22 1518.22 L463.146 1518.22 L463.146 1526.7 Q464.164 1526.35 465.183 1526.19 Q466.201 1526 467.22 1526 Q473.007 1526 476.386 1529.17 Q479.766 1532.34 479.766 1537.76 Q479.766 1543.34 476.294 1546.44 Q472.821 1549.52 466.502 1549.52 Q464.326 1549.52 462.058 1549.15 Q459.812 1548.78 457.405 1548.04 L457.405 1543.34 Q459.488 1544.47 461.71 1545.03 Q463.933 1545.58 466.409 1545.58 Q470.414 1545.58 472.752 1543.48 Q475.09 1541.37 475.09 1537.76 Q475.09 1534.15 472.752 1532.04 Q470.414 1529.94 466.409 1529.94 Q464.534 1529.94 462.659 1530.35 Q460.808 1530.77 458.863 1531.65 L458.863 1514.29 Z" fill="#000000" fill-rule="nonzero" fill-opacity="1" /><path clip-path="url(#clip690)" d="M724.773 1532.02 L754.449 1532.02 L754.449 1535.95 L724.773 1535.95 L724.773 1532.02 Z" fill="#000000" fill-rule="nonzero" fill-opacity="1" /><path clip-path="url(#clip690)" d="M765.352 1544.91 L772.991 1544.91 L772.991 1518.55 L764.681 1520.21 L764.681 1515.95 L772.944 1514.29 L777.62 1514.29 L777.62 1544.91 L785.259 1544.91 L785.259 1548.85 L765.352 1548.85 L765.352 1544.91 Z" fill="#000000" fill-rule="nonzero" fill-opacity="1" /><path clip-path="url(#clip690)" d="M794.704 1542.97 L799.588 1542.97 L799.588 1548.85 L794.704 1548.85 L794.704 1542.97 Z" fill="#000000" fill-rule="nonzero" fill-opacity="1" /><path clip-path="url(#clip690)" d="M819.773 1517.37 Q816.162 1517.37 814.333 1520.93 Q812.528 1524.47 812.528 1531.6 Q812.528 1538.71 814.333 1542.27 Q816.162 1545.82 819.773 1545.82 Q823.407 1545.82 825.213 1542.27 Q827.041 1538.71 827.041 1531.6 Q827.041 1524.47 825.213 1520.93 Q823.407 1517.37 819.773 1517.37 M819.773 1513.66 Q825.583 1513.66 828.639 1518.27 Q831.717 1522.85 831.717 1531.6 Q831.717 1540.33 828.639 1544.94 Q825.583 1549.52 819.773 1549.52 Q813.963 1549.52 810.884 1544.94 Q807.829 1540.33 807.829 1531.6 Q807.829 1522.85 810.884 1518.27 Q813.963 1513.66 819.773 1513.66 Z" fill="#000000" fill-rule="nonzero" fill-opacity="1" /><path clip-path="url(#clip690)" d="M1076.72 1532.02 L1106.4 1532.02 L1106.4 1535.95 L1076.72 1535.95 L1076.72 1532.02 Z" fill="#000000" fill-rule="nonzero" fill-opacity="1" /><path clip-path="url(#clip690)" d="M1126.49 1517.37 Q1122.88 1517.37 1121.05 1520.93 Q1119.25 1524.47 1119.25 1531.6 Q1119.25 1538.71 1121.05 1542.27 Q1122.88 1545.82 1126.49 1545.82 Q1130.13 1545.82 1131.93 1542.27 Q1133.76 1538.71 1133.76 1531.6 Q1133.76 1524.47 1131.93 1520.93 Q1130.13 1517.37 1126.49 1517.37 M1126.49 1513.66 Q1132.3 1513.66 1135.36 1518.27 Q1138.44 1522.85 1138.44 1531.6 Q1138.44 1540.33 1135.36 1544.94 Q1132.3 1549.52 1126.49 1549.52 Q1120.68 1549.52 1117.6 1544.94 Q1114.55 1540.33 1114.55 1531.6 Q1114.55 1522.85 1117.6 1518.27 Q1120.68 1513.66 1126.49 1513.66 Z" fill="#000000" fill-rule="nonzero" fill-opacity="1" /><path clip-path="url(#clip690)" d="M1146.66 1542.97 L1151.54 1542.97 L1151.54 1548.85 L1146.66 1548.85 L1146.66 1542.97 Z" fill="#000000" fill-rule="nonzero" fill-opacity="1" /><path clip-path="url(#clip690)" d="M1161.77 1514.29 L1180.13 1514.29 L1180.13 1518.22 L1166.05 1518.22 L1166.05 1526.7 Q1167.07 1526.35 1168.09 1526.19 Q1169.11 1526 1170.13 1526 Q1175.91 1526 1179.29 1529.17 Q1182.67 1532.34 1182.67 1537.76 Q1182.67 1543.34 1179.2 1546.44 Q1175.73 1549.52 1169.41 1549.52 Q1167.23 1549.52 1164.97 1549.15 Q1162.72 1548.78 1160.31 1548.04 L1160.31 1543.34 Q1162.4 1544.47 1164.62 1545.03 Q1166.84 1545.58 1169.32 1545.58 Q1173.32 1545.58 1175.66 1543.48 Q1178 1541.37 1178 1537.76 Q1178 1534.15 1175.66 1532.04 Q1173.32 1529.94 1169.32 1529.94 Q1167.44 1529.94 1165.57 1530.35 Q1163.72 1530.77 1161.77 1531.65 L1161.77 1514.29 Z" fill="#000000" fill-rule="nonzero" fill-opacity="1" /><path clip-path="url(#clip690)" d="M1458.54 1517.37 Q1454.93 1517.37 1453.1 1520.93 Q1451.29 1524.47 1451.29 1531.6 Q1451.29 1538.71 1453.1 1542.27 Q1454.93 1545.82 1458.54 1545.82 Q1462.17 1545.82 1463.98 1542.27 Q1465.81 1538.71 1465.81 1531.6 Q1465.81 1524.47 1463.98 1520.93 Q1462.17 1517.37 1458.54 1517.37 M1458.54 1513.66 Q1464.35 1513.66 1467.4 1518.27 Q1470.48 1522.85 1470.48 1531.6 Q1470.48 1540.33 1467.4 1544.94 Q1464.35 1549.52 1458.54 1549.52 Q1452.73 1549.52 1449.65 1544.94 Q1446.59 1540.33 1446.59 1531.6 Q1446.59 1522.85 1449.65 1518.27 Q1452.73 1513.66 1458.54 1513.66 Z" fill="#000000" fill-rule="nonzero" fill-opacity="1" /><path clip-path="url(#clip690)" d="M1478.7 1542.97 L1483.58 1542.97 L1483.58 1548.85 L1478.7 1548.85 L1478.7 1542.97 Z" fill="#000000" fill-rule="nonzero" fill-opacity="1" /><path clip-path="url(#clip690)" d="M1503.77 1517.37 Q1500.16 1517.37 1498.33 1520.93 Q1496.52 1524.47 1496.52 1531.6 Q1496.52 1538.71 1498.33 1542.27 Q1500.16 1545.82 1503.77 1545.82 Q1507.4 1545.82 1509.21 1542.27 Q1511.04 1538.71 1511.04 1531.6 Q1511.04 1524.47 1509.21 1520.93 Q1507.4 1517.37 1503.77 1517.37 M1503.77 1513.66 Q1509.58 1513.66 1512.63 1518.27 Q1515.71 1522.85 1515.71 1531.6 Q1515.71 1540.33 1512.63 1544.94 Q1509.58 1549.52 1503.77 1549.52 Q1497.96 1549.52 1494.88 1544.94 Q1491.82 1540.33 1491.82 1531.6 Q1491.82 1522.85 1494.88 1518.27 Q1497.96 1513.66 1503.77 1513.66 Z" fill="#000000" fill-rule="nonzero" fill-opacity="1" /><path clip-path="url(#clip690)" d="M1810.49 1517.37 Q1806.88 1517.37 1805.05 1520.93 Q1803.24 1524.47 1803.24 1531.6 Q1803.24 1538.71 1805.05 1542.27 Q1806.88 1545.82 1810.49 1545.82 Q1814.12 1545.82 1815.93 1542.27 Q1817.76 1538.71 1817.76 1531.6 Q1817.76 1524.47 1815.93 1520.93 Q1814.12 1517.37 1810.49 1517.37 M1810.49 1513.66 Q1816.3 1513.66 1819.35 1518.27 Q1822.43 1522.85 1822.43 1531.6 Q1822.43 1540.33 1819.35 1544.94 Q1816.3 1549.52 1810.49 1549.52 Q1804.68 1549.52 1801.6 1544.94 Q1798.54 1540.33 1798.54 1531.6 Q1798.54 1522.85 1801.6 1518.27 Q1804.68 1513.66 1810.49 1513.66 Z" fill="#000000" fill-rule="nonzero" fill-opacity="1" /><path clip-path="url(#clip690)" d="M1830.65 1542.97 L1835.53 1542.97 L1835.53 1548.85 L1830.65 1548.85 L1830.65 1542.97 Z" fill="#000000" fill-rule="nonzero" fill-opacity="1" /><path clip-path="url(#clip690)" d="M1845.77 1514.29 L1864.12 1514.29 L1864.12 1518.22 L1850.05 1518.22 L1850.05 1526.7 Q1851.07 1526.35 1852.09 1526.19 Q1853.1 1526 1854.12 1526 Q1859.91 1526 1863.29 1529.17 Q1866.67 1532.34 1866.67 1537.76 Q1866.67 1543.34 1863.2 1546.44 Q1859.72 1549.52 1853.41 1549.52 Q1851.23 1549.52 1848.96 1549.15 Q1846.72 1548.78 1844.31 1548.04 L1844.31 1543.34 Q1846.39 1544.47 1848.61 1545.03 Q1850.84 1545.58 1853.31 1545.58 Q1857.32 1545.58 1859.66 1543.48 Q1861.99 1541.37 1861.99 1537.76 Q1861.99 1534.15 1859.66 1532.04 Q1857.32 1529.94 1853.31 1529.94 Q1851.44 1529.94 1849.56 1530.35 Q1847.71 1530.77 1845.77 1531.65 L1845.77 1514.29 Z" fill="#000000" fill-rule="nonzero" fill-opacity="1" /><path clip-path="url(#clip690)" d="M2151.21 1544.91 L2158.85 1544.91 L2158.85 1518.55 L2150.54 1520.21 L2150.54 1515.95 L2158.81 1514.29 L2163.48 1514.29 L2163.48 1544.91 L2171.12 1544.91 L2171.12 1548.85 L2151.21 1548.85 L2151.21 1544.91 Z" fill="#000000" fill-rule="nonzero" fill-opacity="1" /><path clip-path="url(#clip690)" d="M2180.57 1542.97 L2185.45 1542.97 L2185.45 1548.85 L2180.57 1548.85 L2180.57 1542.97 Z" fill="#000000" fill-rule="nonzero" fill-opacity="1" /><path clip-path="url(#clip690)" d="M2205.63 1517.37 Q2202.02 1517.37 2200.19 1520.93 Q2198.39 1524.47 2198.39 1531.6 Q2198.39 1538.71 2200.19 1542.27 Q2202.02 1545.82 2205.63 1545.82 Q2209.27 1545.82 2211.07 1542.27 Q2212.9 1538.71 2212.9 1531.6 Q2212.9 1524.47 2211.07 1520.93 Q2209.27 1517.37 2205.63 1517.37 M2205.63 1513.66 Q2211.44 1513.66 2214.5 1518.27 Q2217.58 1522.85 2217.58 1531.6 Q2217.58 1540.33 2214.5 1544.94 Q2211.44 1549.52 2205.63 1549.52 Q2199.82 1549.52 2196.75 1544.94 Q2193.69 1540.33 2193.69 1531.6 Q2193.69 1522.85 2196.75 1518.27 Q2199.82 1513.66 2205.63 1513.66 Z" fill="#000000" fill-rule="nonzero" fill-opacity="1" /><polyline clip-path="url(#clip690)" style="stroke:#000000; stroke-linecap:round; stroke-linejoin:round; stroke-width:4; stroke-opacity:1; fill:none" points="147.478,1486.45 147.478,47.2441 "/>
<polyline clip-path="url(#clip690)" style="stroke:#000000; stroke-linecap:round; stroke-linejoin:round; stroke-width:4; stroke-opacity:1; fill:none" points="147.478,1216.28 166.376,1216.28 "/>
<polyline clip-path="url(#clip690)" style="stroke:#000000; stroke-linecap:round; stroke-linejoin:round; stroke-width:4; stroke-opacity:1; fill:none" points="147.478,848.104 166.376,848.104 "/>
<polyline clip-path="url(#clip690)" style="stroke:#000000; stroke-linecap:round; stroke-linejoin:round; stroke-width:4; stroke-opacity:1; fill:none" points="147.478,479.927 166.376,479.927 "/>
<polyline clip-path="url(#clip690)" style="stroke:#000000; stroke-linecap:round; stroke-linejoin:round; stroke-width:4; stroke-opacity:1; fill:none" points="147.478,111.751 166.376,111.751 "/>
<path clip-path="url(#clip690)" d="M50.9921 1216.73 L80.6679 1216.73 L80.6679 1220.67 L50.9921 1220.67 L50.9921 1216.73 Z" fill="#000000" fill-rule="nonzero" fill-opacity="1" /><path clip-path="url(#clip690)" d="M91.5706 1229.63 L99.2095 1229.63 L99.2095 1203.26 L90.8993 1204.93 L90.8993 1200.67 L99.1632 1199 L103.839 1199 L103.839 1229.63 L111.478 1229.63 L111.478 1233.56 L91.5706 1233.56 L91.5706 1229.63 Z" fill="#000000" fill-rule="nonzero" fill-opacity="1" /><path clip-path="url(#clip690)" d="M99.5335 833.902 Q95.9224 833.902 94.0937 837.467 Q92.2882 841.009 92.2882 848.139 Q92.2882 855.245 94.0937 858.81 Q95.9224 862.351 99.5335 862.351 Q103.168 862.351 104.973 858.81 Q106.802 855.245 106.802 848.139 Q106.802 841.009 104.973 837.467 Q103.168 833.902 99.5335 833.902 M99.5335 830.199 Q105.344 830.199 108.399 834.805 Q111.478 839.389 111.478 848.139 Q111.478 856.865 108.399 861.472 Q105.344 866.055 99.5335 866.055 Q93.7234 866.055 90.6447 861.472 Q87.5892 856.865 87.5892 848.139 Q87.5892 839.389 90.6447 834.805 Q93.7234 830.199 99.5335 830.199 Z" fill="#000000" fill-rule="nonzero" fill-opacity="1" /><path clip-path="url(#clip690)" d="M91.5706 493.272 L99.2095 493.272 L99.2095 466.907 L90.8993 468.573 L90.8993 464.314 L99.1632 462.647 L103.839 462.647 L103.839 493.272 L111.478 493.272 L111.478 497.207 L91.5706 497.207 L91.5706 493.272 Z" fill="#000000" fill-rule="nonzero" fill-opacity="1" /><path clip-path="url(#clip690)" d="M95.1586 125.096 L111.478 125.096 L111.478 129.031 L89.5336 129.031 L89.5336 125.096 Q92.1956 122.341 96.7789 117.712 Q101.385 113.059 102.566 111.716 Q104.811 109.193 105.691 107.457 Q106.594 105.698 106.594 104.008 Q106.594 101.253 104.649 99.5173 Q102.728 97.7812 99.6261 97.7812 Q97.4271 97.7812 94.9734 98.5451 Q92.5428 99.3089 89.7651 100.86 L89.7651 96.1377 Q92.5891 95.0034 95.0428 94.4247 Q97.4965 93.846 99.5335 93.846 Q104.904 93.846 108.098 96.5312 Q111.293 99.2163 111.293 103.707 Q111.293 105.837 110.483 107.758 Q109.696 109.656 107.589 112.249 Q107.01 112.92 103.909 116.138 Q100.807 119.332 95.1586 125.096 Z" fill="#000000" fill-rule="nonzero" fill-opacity="1" /><circle clip-path="url(#clip692)" cx="1017.69" cy="876.89" r="14.4" fill="#009af9" fill-rule="evenodd" fill-opacity="0.5" stroke="#000000" stroke-opacity="0.5" stroke-width="3.2"/>
<circle clip-path="url(#clip692)" cx="871.441" cy="870.184" r="14.4" fill="#009af9" fill-rule="evenodd" fill-opacity="0.5" stroke="#000000" stroke-opacity="0.5" stroke-width="3.2"/>
<circle clip-path="url(#clip692)" cx="1669.34" cy="837.562" r="14.4" fill="#009af9" fill-rule="evenodd" fill-opacity="0.5" stroke="#000000" stroke-opacity="0.5" stroke-width="3.2"/>
<circle clip-path="url(#clip692)" cx="1118.42" cy="1240.48" r="14.4" fill="#009af9" fill-rule="evenodd" fill-opacity="0.5" stroke="#000000" stroke-opacity="0.5" stroke-width="3.2"/>
<circle clip-path="url(#clip692)" cx="631.862" cy="1445.72" r="14.4" fill="#009af9" fill-rule="evenodd" fill-opacity="0.5" stroke="#000000" stroke-opacity="0.5" stroke-width="3.2"/>
<circle clip-path="url(#clip692)" cx="1723.01" cy="919.481" r="14.4" fill="#009af9" fill-rule="evenodd" fill-opacity="0.5" stroke="#000000" stroke-opacity="0.5" stroke-width="3.2"/>
<circle clip-path="url(#clip692)" cx="341.624" cy="1145.71" r="14.4" fill="#009af9" fill-rule="evenodd" fill-opacity="0.5" stroke="#000000" stroke-opacity="0.5" stroke-width="3.2"/>
<circle clip-path="url(#clip692)" cx="1411.57" cy="610.017" r="14.4" fill="#009af9" fill-rule="evenodd" fill-opacity="0.5" stroke="#000000" stroke-opacity="0.5" stroke-width="3.2"/>
<circle clip-path="url(#clip692)" cx="789.356" cy="807.887" r="14.4" fill="#009af9" fill-rule="evenodd" fill-opacity="0.5" stroke="#000000" stroke-opacity="0.5" stroke-width="3.2"/>
<circle clip-path="url(#clip692)" cx="595.016" cy="468.159" r="14.4" fill="#009af9" fill-rule="evenodd" fill-opacity="0.5" stroke="#000000" stroke-opacity="0.5" stroke-width="3.2"/>
<circle clip-path="url(#clip692)" cx="1645.15" cy="666.156" r="14.4" fill="#009af9" fill-rule="evenodd" fill-opacity="0.5" stroke="#000000" stroke-opacity="0.5" stroke-width="3.2"/>
<circle clip-path="url(#clip692)" cx="1777.2" cy="939.771" r="14.4" fill="#009af9" fill-rule="evenodd" fill-opacity="0.5" stroke="#000000" stroke-opacity="0.5" stroke-width="3.2"/>
<circle clip-path="url(#clip692)" cx="1403.18" cy="445.097" r="14.4" fill="#009af9" fill-rule="evenodd" fill-opacity="0.5" stroke="#000000" stroke-opacity="0.5" stroke-width="3.2"/>
<circle clip-path="url(#clip692)" cx="926.865" cy="764.114" r="14.4" fill="#009af9" fill-rule="evenodd" fill-opacity="0.5" stroke="#000000" stroke-opacity="0.5" stroke-width="3.2"/>
<circle clip-path="url(#clip692)" cx="934.551" cy="1149.08" r="14.4" fill="#009af9" fill-rule="evenodd" fill-opacity="0.5" stroke="#000000" stroke-opacity="0.5" stroke-width="3.2"/>
<circle clip-path="url(#clip692)" cx="2220.02" cy="135.793" r="14.4" fill="#009af9" fill-rule="evenodd" fill-opacity="0.5" stroke="#000000" stroke-opacity="0.5" stroke-width="3.2"/>
<circle clip-path="url(#clip692)" cx="2064.51" cy="87.9763" r="14.4" fill="#009af9" fill-rule="evenodd" fill-opacity="0.5" stroke="#000000" stroke-opacity="0.5" stroke-width="3.2"/>
<circle clip-path="url(#clip692)" cx="1264.17" cy="956.867" r="14.4" fill="#009af9" fill-rule="evenodd" fill-opacity="0.5" stroke="#000000" stroke-opacity="0.5" stroke-width="3.2"/>
<circle clip-path="url(#clip692)" cx="2290.34" cy="700.137" r="14.4" fill="#009af9" fill-rule="evenodd" fill-opacity="0.5" stroke="#000000" stroke-opacity="0.5" stroke-width="3.2"/>
<circle clip-path="url(#clip692)" cx="2180.49" cy="821.911" r="14.4" fill="#009af9" fill-rule="evenodd" fill-opacity="0.5" stroke="#000000" stroke-opacity="0.5" stroke-width="3.2"/>
<circle clip-path="url(#clip692)" cx="474.577" cy="1015.98" r="14.4" fill="#009af9" fill-rule="evenodd" fill-opacity="0.5" stroke="#000000" stroke-opacity="0.5" stroke-width="3.2"/>
<circle clip-path="url(#clip692)" cx="209.891" cy="600.596" r="14.4" fill="#009af9" fill-rule="evenodd" fill-opacity="0.5" stroke="#000000" stroke-opacity="0.5" stroke-width="3.2"/>
<circle clip-path="url(#clip692)" cx="256.71" cy="895.582" r="14.4" fill="#009af9" fill-rule="evenodd" fill-opacity="0.5" stroke="#000000" stroke-opacity="0.5" stroke-width="3.2"/>
<circle clip-path="url(#clip692)" cx="1074.8" cy="629.275" r="14.4" fill="#009af9" fill-rule="evenodd" fill-opacity="0.5" stroke="#000000" stroke-opacity="0.5" stroke-width="3.2"/>
<circle clip-path="url(#clip692)" cx="1117.83" cy="564.712" r="14.4" fill="#009af9" fill-rule="evenodd" fill-opacity="0.5" stroke="#000000" stroke-opacity="0.5" stroke-width="3.2"/>
<circle clip-path="url(#clip692)" cx="533.84" cy="237.579" r="14.4" fill="#009af9" fill-rule="evenodd" fill-opacity="0.5" stroke="#000000" stroke-opacity="0.5" stroke-width="3.2"/>
<circle clip-path="url(#clip692)" cx="1363.83" cy="847.354" r="14.4" fill="#009af9" fill-rule="evenodd" fill-opacity="0.5" stroke="#000000" stroke-opacity="0.5" stroke-width="3.2"/>
<circle clip-path="url(#clip692)" cx="1366.89" cy="1233.09" r="14.4" fill="#009af9" fill-rule="evenodd" fill-opacity="0.5" stroke="#000000" stroke-opacity="0.5" stroke-width="3.2"/>
<circle clip-path="url(#clip692)" cx="1945.48" cy="1074.26" r="14.4" fill="#009af9" fill-rule="evenodd" fill-opacity="0.5" stroke="#000000" stroke-opacity="0.5" stroke-width="3.2"/>
<circle clip-path="url(#clip692)" cx="1193.51" cy="1037.37" r="14.4" fill="#009af9" fill-rule="evenodd" fill-opacity="0.5" stroke="#000000" stroke-opacity="0.5" stroke-width="3.2"/>
<path clip-path="url(#clip692)" d="M209.891 600.596 L256.71 895.582 L341.624 1145.71 L631.862 1445.72 L1945.48 1074.26 L2180.49 821.911 L2290.34 700.137 L2220.02 135.793 L2064.51 87.9763 L533.84 237.579 L209.891 600.596 L209.891 600.596  Z" fill="#e26f46" fill-rule="evenodd" fill-opacity="0.2"/>
<polyline clip-path="url(#clip692)" style="stroke:#000000; stroke-linecap:round; stroke-linejoin:round; stroke-width:4; stroke-opacity:0.2; fill:none" points="209.891,600.596 256.71,895.582 341.624,1145.71 631.862,1445.72 1945.48,1074.26 2180.49,821.911 2290.34,700.137 2220.02,135.793 2064.51,87.9763 533.84,237.579 209.891,600.596 "/>
</svg>
