<?xml version="1.0" encoding="utf-8"?>
<svg xmlns="http://www.w3.org/2000/svg" xmlns:xlink="http://www.w3.org/1999/xlink" width="600" height="400" viewBox="0 0 2400 1600">
<defs>
  <clipPath id="clip470">
    <rect x="0" y="0" width="2400" height="1600"/>
  </clipPath>
</defs>
<path clip-path="url(#clip470)" d="M0 1600 L2400 1600 L2400 0 L0 0  Z" fill="#ffffff" fill-rule="evenodd" fill-opacity="1"/>
<defs>
  <clipPath id="clip471">
    <rect x="148" y="47" width="2206" height="1440"/>
  </clipPath>
</defs>
<path clip-path="url(#clip470)" d="M148.057 1486.45 L2352.76 1486.45 L2352.76 47.2441 L148.057 47.2441  Z" fill="#ffffff" fill-rule="evenodd" fill-opacity="1"/>
<polyline clip-path="url(#clip471)" style="stroke:#000000; stroke-linecap:round; stroke-linejoin:round; stroke-width:2; stroke-opacity:0.1; fill:none" points="516.06,1486.45 516.06,47.2441 "/>
<polyline clip-path="url(#clip471)" style="stroke:#000000; stroke-linecap:round; stroke-linejoin:round; stroke-width:2; stroke-opacity:0.1; fill:none" points="1036.86,1486.45 1036.86,47.2441 "/>
<polyline clip-path="url(#clip471)" style="stroke:#000000; stroke-linecap:round; stroke-linejoin:round; stroke-width:2; stroke-opacity:0.1; fill:none" points="1557.65,1486.45 1557.65,47.2441 "/>
<polyline clip-path="url(#clip471)" style="stroke:#000000; stroke-linecap:round; stroke-linejoin:round; stroke-width:2; stroke-opacity:0.1; fill:none" points="2078.45,1486.45 2078.45,47.2441 "/>
<polyline clip-path="url(#clip471)" style="stroke:#000000; stroke-linecap:round; stroke-linejoin:round; stroke-width:2; stroke-opacity:0.1; fill:none" points="148.057,1454.41 2352.76,1454.41 "/>
<polyline clip-path="url(#clip471)" style="stroke:#000000; stroke-linecap:round; stroke-linejoin:round; stroke-width:2; stroke-opacity:0.1; fill:none" points="148.057,1206.78 2352.76,1206.78 "/>
<polyline clip-path="url(#clip471)" style="stroke:#000000; stroke-linecap:round; stroke-linejoin:round; stroke-width:2; stroke-opacity:0.1; fill:none" points="148.057,959.149 2352.76,959.149 "/>
<polyline clip-path="url(#clip471)" style="stroke:#000000; stroke-linecap:round; stroke-linejoin:round; stroke-width:2; stroke-opacity:0.1; fill:none" points="148.057,711.518 2352.76,711.518 "/>
<polyline clip-path="url(#clip471)" style="stroke:#000000; stroke-linecap:round; stroke-linejoin:round; stroke-width:2; stroke-opacity:0.1; fill:none" points="148.057,463.888 2352.76,463.888 "/>
<polyline clip-path="url(#clip471)" style="stroke:#000000; stroke-linecap:round; stroke-linejoin:round; stroke-width:2; stroke-opacity:0.1; fill:none" points="148.057,216.258 2352.76,216.258 "/>
<polyline clip-path="url(#clip470)" style="stroke:#000000; stroke-linecap:round; stroke-linejoin:round; stroke-width:4; stroke-opacity:1; fill:none" points="148.057,1486.45 2352.76,1486.45 "/>
<polyline clip-path="url(#clip470)" style="stroke:#000000; stroke-linecap:round; stroke-linejoin:round; stroke-width:4; stroke-opacity:1; fill:none" points="516.06,1486.45 516.06,1467.55 "/>
<polyline clip-path="url(#clip470)" style="stroke:#000000; stroke-linecap:round; stroke-linejoin:round; stroke-width:4; stroke-opacity:1; fill:none" points="1036.86,1486.45 1036.86,1467.55 "/>
<polyline clip-path="url(#clip470)" style="stroke:#000000; stroke-linecap:round; stroke-linejoin:round; stroke-width:4; stroke-opacity:1; fill:none" points="1557.65,1486.45 1557.65,1467.55 "/>
<polyline clip-path="url(#clip470)" style="stroke:#000000; stroke-linecap:round; stroke-linejoin:round; stroke-width:4; stroke-opacity:1; fill:none" points="2078.45,1486.45 2078.45,1467.55 "/>
<path clip-path="url(#clip470)" d="M485.817 1532.02 L515.493 1532.02 L515.493 1535.95 L485.817 1535.95 L485.817 1532.02 Z" fill="#000000" fill-rule="nonzero" fill-opacity="1" /><path clip-path="url(#clip470)" d="M526.395 1544.91 L534.034 1544.91 L534.034 1518.55 L525.724 1520.21 L525.724 1515.95 L533.988 1514.29 L538.664 1514.29 L538.664 1544.91 L546.303 1544.91 L546.303 1548.85 L526.395 1548.85 L526.395 1544.91 Z" fill="#000000" fill-rule="nonzero" fill-opacity="1" /><path clip-path="url(#clip470)" d="M1036.86 1517.37 Q1033.25 1517.37 1031.42 1520.93 Q1029.61 1524.47 1029.61 1531.6 Q1029.61 1538.71 1031.42 1542.27 Q1033.25 1545.82 1036.86 1545.82 Q1040.49 1545.82 1042.3 1542.27 Q1044.13 1538.71 1044.13 1531.6 Q1044.13 1524.47 1042.3 1520.93 Q1040.49 1517.37 1036.86 1517.37 M1036.86 1513.66 Q1042.67 1513.66 1045.72 1518.27 Q1048.8 1522.85 1048.8 1531.6 Q1048.8 1540.33 1045.72 1544.94 Q1042.67 1549.52 1036.86 1549.52 Q1031.05 1549.52 1027.97 1544.94 Q1024.91 1540.33 1024.91 1531.6 Q1024.91 1522.85 1027.97 1518.27 Q1031.05 1513.66 1036.86 1513.66 Z" fill="#000000" fill-rule="nonzero" fill-opacity="1" /><path clip-path="url(#clip470)" d="M1548.04 1544.91 L1555.68 1544.91 L1555.68 1518.55 L1547.37 1520.21 L1547.37 1515.95 L1555.63 1514.29 L1560.31 1514.29 L1560.31 1544.91 L1567.94 1544.91 L1567.94 1548.85 L1548.04 1548.85 L1548.04 1544.91 Z" fill="#000000" fill-rule="nonzero" fill-opacity="1" /><path clip-path="url(#clip470)" d="M2073.11 1544.91 L2089.42 1544.91 L2089.42 1548.85 L2067.48 1548.85 L2067.48 1544.91 Q2070.14 1542.16 2074.73 1537.53 Q2079.33 1532.88 2080.51 1531.53 Q2082.76 1529.01 2083.64 1527.27 Q2084.54 1525.51 2084.54 1523.82 Q2084.54 1521.07 2082.6 1519.33 Q2080.67 1517.6 2077.57 1517.6 Q2075.37 1517.6 2072.92 1518.36 Q2070.49 1519.13 2067.71 1520.68 L2067.71 1515.95 Q2070.54 1514.82 2072.99 1514.24 Q2075.44 1513.66 2077.48 1513.66 Q2082.85 1513.66 2086.05 1516.35 Q2089.24 1519.03 2089.24 1523.52 Q2089.24 1525.65 2088.43 1527.57 Q2087.64 1529.47 2085.54 1532.07 Q2084.96 1532.74 2081.86 1535.95 Q2078.75 1539.15 2073.11 1544.91 Z" fill="#000000" fill-rule="nonzero" fill-opacity="1" /><polyline clip-path="url(#clip470)" style="stroke:#000000; stroke-linecap:round; stroke-linejoin:round; stroke-width:4; stroke-opacity:1; fill:none" points="148.057,1486.45 148.057,47.2441 "/>
<polyline clip-path="url(#clip470)" style="stroke:#000000; stroke-linecap:round; stroke-linejoin:round; stroke-width:4; stroke-opacity:1; fill:none" points="148.057,1454.41 166.954,1454.41 "/>
<polyline clip-path="url(#clip470)" style="stroke:#000000; stroke-linecap:round; stroke-linejoin:round; stroke-width:4; stroke-opacity:1; fill:none" points="148.057,1206.78 166.954,1206.78 "/>
<polyline clip-path="url(#clip470)" style="stroke:#000000; stroke-linecap:round; stroke-linejoin:round; stroke-width:4; stroke-opacity:1; fill:none" points="148.057,959.149 166.954,959.149 "/>
<polyline clip-path="url(#clip470)" style="stroke:#000000; stroke-linecap:round; stroke-linejoin:round; stroke-width:4; stroke-opacity:1; fill:none" points="148.057,711.518 166.954,711.518 "/>
<polyline clip-path="url(#clip470)" style="stroke:#000000; stroke-linecap:round; stroke-linejoin:round; stroke-width:4; stroke-opacity:1; fill:none" points="148.057,463.888 166.954,463.888 "/>
<polyline clip-path="url(#clip470)" style="stroke:#000000; stroke-linecap:round; stroke-linejoin:round; stroke-width:4; stroke-opacity:1; fill:none" points="148.057,216.258 166.954,216.258 "/>
<path clip-path="url(#clip470)" d="M50.9921 1454.86 L80.6679 1454.86 L80.6679 1458.8 L50.9921 1458.8 L50.9921 1454.86 Z" fill="#000000" fill-rule="nonzero" fill-opacity="1" /><path clip-path="url(#clip470)" d="M104.927 1453.06 Q108.283 1453.77 110.158 1456.04 Q112.057 1458.31 112.057 1461.64 Q112.057 1466.76 108.538 1469.56 Q105.02 1472.36 98.5382 1472.36 Q96.3623 1472.36 94.0475 1471.92 Q91.7558 1471.5 89.3021 1470.65 L89.3021 1466.13 Q91.2465 1467.27 93.5613 1467.85 Q95.8761 1468.43 98.3993 1468.43 Q102.797 1468.43 105.089 1466.69 Q107.404 1464.95 107.404 1461.64 Q107.404 1458.59 105.251 1456.87 Q103.121 1455.14 99.3021 1455.14 L95.2743 1455.14 L95.2743 1451.3 L99.4872 1451.3 Q102.936 1451.3 104.765 1449.93 Q106.594 1448.54 106.594 1445.95 Q106.594 1443.29 104.696 1441.88 Q102.821 1440.44 99.3021 1440.44 Q97.3808 1440.44 95.1817 1440.86 Q92.9826 1441.27 90.3438 1442.15 L90.3438 1437.99 Q93.0058 1437.25 95.3206 1436.88 Q97.6585 1436.5 99.7187 1436.5 Q105.043 1436.5 108.145 1438.94 Q111.246 1441.34 111.246 1445.46 Q111.246 1448.33 109.603 1450.32 Q107.959 1452.29 104.927 1453.06 Z" fill="#000000" fill-rule="nonzero" fill-opacity="1" /><path clip-path="url(#clip470)" d="M51.9412 1207.23 L81.617 1207.23 L81.617 1211.17 L51.9412 1211.17 L51.9412 1207.23 Z" fill="#000000" fill-rule="nonzero" fill-opacity="1" /><path clip-path="url(#clip470)" d="M95.7373 1220.12 L112.057 1220.12 L112.057 1224.06 L90.1123 1224.06 L90.1123 1220.12 Q92.7743 1217.37 97.3576 1212.74 Q101.964 1208.09 103.145 1206.74 Q105.39 1204.22 106.27 1202.49 Q107.172 1200.73 107.172 1199.04 Q107.172 1196.28 105.228 1194.55 Q103.307 1192.81 100.205 1192.81 Q98.0058 1192.81 95.5521 1193.57 Q93.1215 1194.34 90.3438 1195.89 L90.3438 1191.17 Q93.1678 1190.03 95.6215 1189.45 Q98.0752 1188.87 100.112 1188.87 Q105.483 1188.87 108.677 1191.56 Q111.871 1194.24 111.871 1198.74 Q111.871 1200.86 111.061 1202.79 Q110.274 1204.68 108.168 1207.28 Q107.589 1207.95 104.487 1211.17 Q101.385 1214.36 95.7373 1220.12 Z" fill="#000000" fill-rule="nonzero" fill-opacity="1" /><path clip-path="url(#clip470)" d="M51.5708 959.6 L81.2466 959.6 L81.2466 963.535 L51.5708 963.535 L51.5708 959.6 Z" fill="#000000" fill-rule="nonzero" fill-opacity="1" /><path clip-path="url(#clip470)" d="M92.1493 972.494 L99.7882 972.494 L99.7882 946.128 L91.478 947.795 L91.478 943.535 L99.7419 941.869 L104.418 941.869 L104.418 972.494 L112.057 972.494 L112.057 976.429 L92.1493 976.429 L92.1493 972.494 Z" fill="#000000" fill-rule="nonzero" fill-opacity="1" /><path clip-path="url(#clip470)" d="M100.112 697.317 Q96.5011 697.317 94.6724 700.882 Q92.8669 704.424 92.8669 711.553 Q92.8669 718.66 94.6724 722.224 Q96.5011 725.766 100.112 725.766 Q103.746 725.766 105.552 722.224 Q107.381 718.66 107.381 711.553 Q107.381 704.424 105.552 700.882 Q103.746 697.317 100.112 697.317 M100.112 693.613 Q105.922 693.613 108.978 698.22 Q112.057 702.803 112.057 711.553 Q112.057 720.28 108.978 724.886 Q105.922 729.47 100.112 729.47 Q94.3021 729.47 91.2234 724.886 Q88.1679 720.28 88.1679 711.553 Q88.1679 702.803 91.2234 698.22 Q94.3021 693.613 100.112 693.613 Z" fill="#000000" fill-rule="nonzero" fill-opacity="1" /><path clip-path="url(#clip470)" d="M92.1493 477.233 L99.7882 477.233 L99.7882 450.867 L91.478 452.534 L91.478 448.275 L99.7419 446.608 L104.418 446.608 L104.418 477.233 L112.057 477.233 L112.057 481.168 L92.1493 481.168 L92.1493 477.233 Z" fill="#000000" fill-rule="nonzero" fill-opacity="1" /><path clip-path="url(#clip470)" d="M95.7373 229.602 L112.057 229.602 L112.057 233.538 L90.1123 233.538 L90.1123 229.602 Q92.7743 226.848 97.3576 222.218 Q101.964 217.565 103.145 216.223 Q105.39 213.7 106.27 211.964 Q107.172 210.204 107.172 208.515 Q107.172 205.76 105.228 204.024 Q103.307 202.288 100.205 202.288 Q98.0058 202.288 95.5521 203.052 Q93.1215 203.815 90.3438 205.366 L90.3438 200.644 Q93.1678 199.51 95.6215 198.931 Q98.0752 198.353 100.112 198.353 Q105.483 198.353 108.677 201.038 Q111.871 203.723 111.871 208.214 Q111.871 210.343 111.061 212.264 Q110.274 214.163 108.168 216.755 Q107.589 217.427 104.487 220.644 Q101.385 223.839 95.7373 229.602 Z" fill="#000000" fill-rule="nonzero" fill-opacity="1" /><circle clip-path="url(#clip471)" cx="2290.36" cy="888.183" r="14.4" fill="#009af9" fill-rule="evenodd" fill-opacity="0.5" stroke="#000000" stroke-opacity="0.5" stroke-width="3.2"/>
<circle clip-path="url(#clip471)" cx="210.454" cy="1445.72" r="14.4" fill="#009af9" fill-rule="evenodd" fill-opacity="0.5" stroke="#000000" stroke-opacity="0.5" stroke-width="3.2"/>
<circle clip-path="url(#clip471)" cx="939.187" cy="734.642" r="14.4" fill="#009af9" fill-rule="evenodd" fill-opacity="0.5" stroke="#000000" stroke-opacity="0.5" stroke-width="3.2"/>
<circle clip-path="url(#clip471)" cx="1072.78" cy="525.976" r="14.4" fill="#009af9" fill-rule="evenodd" fill-opacity="0.5" stroke="#000000" stroke-opacity="0.5" stroke-width="3.2"/>
<circle clip-path="url(#clip471)" cx="1423.05" cy="737.664" r="14.4" fill="#009af9" fill-rule="evenodd" fill-opacity="0.5" stroke="#000000" stroke-opacity="0.5" stroke-width="3.2"/>
<circle clip-path="url(#clip471)" cx="1709.83" cy="887.355" r="14.4" fill="#009af9" fill-rule="evenodd" fill-opacity="0.5" stroke="#000000" stroke-opacity="0.5" stroke-width="3.2"/>
<circle clip-path="url(#clip471)" cx="1277.02" cy="856.788" r="14.4" fill="#009af9" fill-rule="evenodd" fill-opacity="0.5" stroke="#000000" stroke-opacity="0.5" stroke-width="3.2"/>
<circle clip-path="url(#clip471)" cx="1318.59" cy="562.679" r="14.4" fill="#009af9" fill-rule="evenodd" fill-opacity="0.5" stroke="#000000" stroke-opacity="0.5" stroke-width="3.2"/>
<circle clip-path="url(#clip471)" cx="1408.24" cy="809.61" r="14.4" fill="#009af9" fill-rule="evenodd" fill-opacity="0.5" stroke="#000000" stroke-opacity="0.5" stroke-width="3.2"/>
<circle clip-path="url(#clip471)" cx="358.316" cy="751.914" r="14.4" fill="#009af9" fill-rule="evenodd" fill-opacity="0.5" stroke="#000000" stroke-opacity="0.5" stroke-width="3.2"/>
<circle clip-path="url(#clip471)" cx="985.193" cy="462.691" r="14.4" fill="#009af9" fill-rule="evenodd" fill-opacity="0.5" stroke="#000000" stroke-opacity="0.5" stroke-width="3.2"/>
<circle clip-path="url(#clip471)" cx="808.714" cy="763.392" r="14.4" fill="#009af9" fill-rule="evenodd" fill-opacity="0.5" stroke="#000000" stroke-opacity="0.5" stroke-width="3.2"/>
<circle clip-path="url(#clip471)" cx="489.232" cy="923.221" r="14.4" fill="#009af9" fill-rule="evenodd" fill-opacity="0.5" stroke="#000000" stroke-opacity="0.5" stroke-width="3.2"/>
<circle clip-path="url(#clip471)" cx="683.443" cy="1255.17" r="14.4" fill="#009af9" fill-rule="evenodd" fill-opacity="0.5" stroke="#000000" stroke-opacity="0.5" stroke-width="3.2"/>
<circle clip-path="url(#clip471)" cx="1222.74" cy="237.553" r="14.4" fill="#009af9" fill-rule="evenodd" fill-opacity="0.5" stroke="#000000" stroke-opacity="0.5" stroke-width="3.2"/>
<circle clip-path="url(#clip471)" cx="798.384" cy="1193.05" r="14.4" fill="#009af9" fill-rule="evenodd" fill-opacity="0.5" stroke="#000000" stroke-opacity="0.5" stroke-width="3.2"/>
<circle clip-path="url(#clip471)" cx="1756.64" cy="957.443" r="14.4" fill="#009af9" fill-rule="evenodd" fill-opacity="0.5" stroke="#000000" stroke-opacity="0.5" stroke-width="3.2"/>
<circle clip-path="url(#clip471)" cx="669.693" cy="470.029" r="14.4" fill="#009af9" fill-rule="evenodd" fill-opacity="0.5" stroke="#000000" stroke-opacity="0.5" stroke-width="3.2"/>
<circle clip-path="url(#clip471)" cx="1489.28" cy="558.25" r="14.4" fill="#009af9" fill-rule="evenodd" fill-opacity="0.5" stroke="#000000" stroke-opacity="0.5" stroke-width="3.2"/>
<circle clip-path="url(#clip471)" cx="787.167" cy="619.561" r="14.4" fill="#009af9" fill-rule="evenodd" fill-opacity="0.5" stroke="#000000" stroke-opacity="0.5" stroke-width="3.2"/>
<circle clip-path="url(#clip471)" cx="1582.89" cy="562.544" r="14.4" fill="#009af9" fill-rule="evenodd" fill-opacity="0.5" stroke="#000000" stroke-opacity="0.5" stroke-width="3.2"/>
<circle clip-path="url(#clip471)" cx="913.742" cy="294.755" r="14.4" fill="#009af9" fill-rule="evenodd" fill-opacity="0.5" stroke="#000000" stroke-opacity="0.5" stroke-width="3.2"/>
<circle clip-path="url(#clip471)" cx="886.557" cy="932.439" r="14.4" fill="#009af9" fill-rule="evenodd" fill-opacity="0.5" stroke="#000000" stroke-opacity="0.5" stroke-width="3.2"/>
<circle clip-path="url(#clip471)" cx="290.482" cy="449.127" r="14.4" fill="#009af9" fill-rule="evenodd" fill-opacity="0.5" stroke="#000000" stroke-opacity="0.5" stroke-width="3.2"/>
<circle clip-path="url(#clip471)" cx="1239.79" cy="87.9763" r="14.4" fill="#009af9" fill-rule="evenodd" fill-opacity="0.5" stroke="#000000" stroke-opacity="0.5" stroke-width="3.2"/>
<circle clip-path="url(#clip471)" cx="1112.73" cy="1009.01" r="14.4" fill="#009af9" fill-rule="evenodd" fill-opacity="0.5" stroke="#000000" stroke-opacity="0.5" stroke-width="3.2"/>
<circle clip-path="url(#clip471)" cx="398.928" cy="1018.44" r="14.4" fill="#009af9" fill-rule="evenodd" fill-opacity="0.5" stroke="#000000" stroke-opacity="0.5" stroke-width="3.2"/>
<circle clip-path="url(#clip471)" cx="1505.95" cy="724.758" r="14.4" fill="#009af9" fill-rule="evenodd" fill-opacity="0.5" stroke="#000000" stroke-opacity="0.5" stroke-width="3.2"/>
<circle clip-path="url(#clip471)" cx="431.975" cy="586.253" r="14.4" fill="#009af9" fill-rule="evenodd" fill-opacity="0.5" stroke="#000000" stroke-opacity="0.5" stroke-width="3.2"/>
<circle clip-path="url(#clip471)" cx="989.485" cy="333.888" r="14.4" fill="#009af9" fill-rule="evenodd" fill-opacity="0.5" stroke="#000000" stroke-opacity="0.5" stroke-width="3.2"/>
<path clip-path="url(#clip471)" d="M210.454 1445.72 L2290.36 888.183 L1239.79 87.9763 L290.482 449.127 L210.454 1445.72 L210.454 1445.72  Z" fill="#e26f46" fill-rule="evenodd" fill-opacity="0.2"/>
<polyline clip-path="url(#clip471)" style="stroke:#000000; stroke-linecap:round; stroke-linejoin:round; stroke-width:4; stroke-opacity:0.2; fill:none" points="210.454,1445.72 2290.36,888.183 1239.79,87.9763 290.482,449.127 210.454,1445.72 "/>
</svg>
