<?xml version="1.0" encoding="utf-8"?>
<svg xmlns="http://www.w3.org/2000/svg" xmlns:xlink="http://www.w3.org/1999/xlink" width="600" height="400" viewBox="0 0 2400 1600">
<defs>
  <clipPath id="clip470">
    <rect x="0" y="0" width="2400" height="1600"/>
  </clipPath>
</defs>
<path clip-path="url(#clip470)" d="M0 1600 L2400 1600 L2400 0 L0 0  Z" fill="#ffffff" fill-rule="evenodd" fill-opacity="1"/>
<defs>
  <clipPath id="clip471">
    <rect x="148" y="47" width="2206" height="1440"/>
  </clipPath>
</defs>
<path clip-path="url(#clip470)" d="M148.057 1486.45 L2352.76 1486.45 L2352.76 47.2441 L148.057 47.2441  Z" fill="#ffffff" fill-rule="evenodd" fill-opacity="1"/>
<polyline clip-path="url(#clip471)" style="stroke:#000000; stroke-linecap:round; stroke-linejoin:round; stroke-width:2; stroke-opacity:0.1; fill:none" points="245.639,1486.45 245.639,47.2441 "/>
<polyline clip-path="url(#clip471)" style="stroke:#000000; stroke-linecap:round; stroke-linejoin:round; stroke-width:2; stroke-opacity:0.1; fill:none" points="765.131,1486.45 765.131,47.2441 "/>
<polyline clip-path="url(#clip471)" style="stroke:#000000; stroke-linecap:round; stroke-linejoin:round; stroke-width:2; stroke-opacity:0.1; fill:none" points="1284.62,1486.45 1284.62,47.2441 "/>
<polyline clip-path="url(#clip471)" style="stroke:#000000; stroke-linecap:round; stroke-linejoin:round; stroke-width:2; stroke-opacity:0.1; fill:none" points="1804.12,1486.45 1804.12,47.2441 "/>
<polyline clip-path="url(#clip471)" style="stroke:#000000; stroke-linecap:round; stroke-linejoin:round; stroke-width:2; stroke-opacity:0.1; fill:none" points="2323.61,1486.45 2323.61,47.2441 "/>
<polyline clip-path="url(#clip471)" style="stroke:#000000; stroke-linecap:round; stroke-linejoin:round; stroke-width:2; stroke-opacity:0.1; fill:none" points="148.057,1343.64 2352.76,1343.64 "/>
<polyline clip-path="url(#clip471)" style="stroke:#000000; stroke-linecap:round; stroke-linejoin:round; stroke-width:2; stroke-opacity:0.1; fill:none" points="148.057,1091.09 2352.76,1091.09 "/>
<polyline clip-path="url(#clip471)" style="stroke:#000000; stroke-linecap:round; stroke-linejoin:round; stroke-width:2; stroke-opacity:0.1; fill:none" points="148.057,838.551 2352.76,838.551 "/>
<polyline clip-path="url(#clip471)" style="stroke:#000000; stroke-linecap:round; stroke-linejoin:round; stroke-width:2; stroke-opacity:0.1; fill:none" points="148.057,586.007 2352.76,586.007 "/>
<polyline clip-path="url(#clip471)" style="stroke:#000000; stroke-linecap:round; stroke-linejoin:round; stroke-width:2; stroke-opacity:0.1; fill:none" points="148.057,333.464 2352.76,333.464 "/>
<polyline clip-path="url(#clip471)" style="stroke:#000000; stroke-linecap:round; stroke-linejoin:round; stroke-width:2; stroke-opacity:0.1; fill:none" points="148.057,80.9201 2352.76,80.9201 "/>
<polyline clip-path="url(#clip470)" style="stroke:#000000; stroke-linecap:round; stroke-linejoin:round; stroke-width:4; stroke-opacity:1; fill:none" points="148.057,1486.45 2352.76,1486.45 "/>
<polyline clip-path="url(#clip470)" style="stroke:#000000; stroke-linecap:round; stroke-linejoin:round; stroke-width:4; stroke-opacity:1; fill:none" points="245.639,1486.45 245.639,1467.55 "/>
<polyline clip-path="url(#clip470)" style="stroke:#000000; stroke-linecap:round; stroke-linejoin:round; stroke-width:4; stroke-opacity:1; fill:none" points="765.131,1486.45 765.131,1467.55 "/>
<polyline clip-path="url(#clip470)" style="stroke:#000000; stroke-linecap:round; stroke-linejoin:round; stroke-width:4; stroke-opacity:1; fill:none" points="1284.62,1486.45 1284.62,1467.55 "/>
<polyline clip-path="url(#clip470)" style="stroke:#000000; stroke-linecap:round; stroke-linejoin:round; stroke-width:4; stroke-opacity:1; fill:none" points="1804.12,1486.45 1804.12,1467.55 "/>
<polyline clip-path="url(#clip470)" style="stroke:#000000; stroke-linecap:round; stroke-linejoin:round; stroke-width:4; stroke-opacity:1; fill:none" points="2323.61,1486.45 2323.61,1467.55 "/>
<path clip-path="url(#clip470)" d="M215.582 1532.02 L245.257 1532.02 L245.257 1535.95 L215.582 1535.95 L215.582 1532.02 Z" fill="#000000" fill-rule="nonzero" fill-opacity="1" /><path clip-path="url(#clip470)" d="M259.378 1544.91 L275.697 1544.91 L275.697 1548.85 L253.753 1548.85 L253.753 1544.91 Q256.415 1542.16 260.998 1537.53 Q265.605 1532.88 266.785 1531.53 Q269.03 1529.01 269.91 1527.27 Q270.813 1525.51 270.813 1523.82 Q270.813 1521.07 268.868 1519.33 Q266.947 1517.6 263.845 1517.6 Q261.646 1517.6 259.193 1518.36 Q256.762 1519.13 253.984 1520.68 L253.984 1515.95 Q256.808 1514.82 259.262 1514.24 Q261.716 1513.66 263.753 1513.66 Q269.123 1513.66 272.318 1516.35 Q275.512 1519.03 275.512 1523.52 Q275.512 1525.65 274.702 1527.57 Q273.915 1529.47 271.808 1532.07 Q271.23 1532.74 268.128 1535.95 Q265.026 1539.15 259.378 1544.91 Z" fill="#000000" fill-rule="nonzero" fill-opacity="1" /><path clip-path="url(#clip470)" d="M734.888 1532.02 L764.564 1532.02 L764.564 1535.95 L734.888 1535.95 L734.888 1532.02 Z" fill="#000000" fill-rule="nonzero" fill-opacity="1" /><path clip-path="url(#clip470)" d="M775.467 1544.91 L783.106 1544.91 L783.106 1518.55 L774.796 1520.21 L774.796 1515.95 L783.059 1514.29 L787.735 1514.29 L787.735 1544.91 L795.374 1544.91 L795.374 1548.85 L775.467 1548.85 L775.467 1544.91 Z" fill="#000000" fill-rule="nonzero" fill-opacity="1" /><path clip-path="url(#clip470)" d="M1284.62 1517.37 Q1281.01 1517.37 1279.18 1520.93 Q1277.38 1524.47 1277.38 1531.6 Q1277.38 1538.71 1279.18 1542.27 Q1281.01 1545.82 1284.62 1545.82 Q1288.26 1545.82 1290.06 1542.27 Q1291.89 1538.71 1291.89 1531.6 Q1291.89 1524.47 1290.06 1520.93 Q1288.26 1517.37 1284.62 1517.37 M1284.62 1513.66 Q1290.43 1513.66 1293.49 1518.27 Q1296.57 1522.85 1296.57 1531.6 Q1296.57 1540.33 1293.49 1544.94 Q1290.43 1549.52 1284.62 1549.52 Q1278.81 1549.52 1275.73 1544.94 Q1272.68 1540.33 1272.68 1531.6 Q1272.68 1522.85 1275.73 1518.27 Q1278.81 1513.66 1284.62 1513.66 Z" fill="#000000" fill-rule="nonzero" fill-opacity="1" /><path clip-path="url(#clip470)" d="M1794.5 1544.91 L1802.14 1544.91 L1802.14 1518.55 L1793.83 1520.21 L1793.83 1515.95 L1802.09 1514.29 L1806.77 1514.29 L1806.77 1544.91 L1814.4 1544.91 L1814.4 1548.85 L1794.5 1548.85 L1794.5 1544.91 Z" fill="#000000" fill-rule="nonzero" fill-opacity="1" /><path clip-path="url(#clip470)" d="M2318.26 1544.91 L2334.58 1544.91 L2334.58 1548.85 L2312.63 1548.85 L2312.63 1544.91 Q2315.3 1542.16 2319.88 1537.53 Q2324.49 1532.88 2325.67 1531.53 Q2327.91 1529.01 2328.79 1527.27 Q2329.7 1525.51 2329.7 1523.82 Q2329.7 1521.07 2327.75 1519.33 Q2325.83 1517.6 2322.73 1517.6 Q2320.53 1517.6 2318.07 1518.36 Q2315.64 1519.13 2312.87 1520.68 L2312.87 1515.95 Q2315.69 1514.82 2318.14 1514.24 Q2320.6 1513.66 2322.63 1513.66 Q2328.01 1513.66 2331.2 1516.35 Q2334.39 1519.03 2334.39 1523.52 Q2334.39 1525.65 2333.58 1527.57 Q2332.8 1529.47 2330.69 1532.07 Q2330.11 1532.74 2327.01 1535.95 Q2323.91 1539.15 2318.26 1544.91 Z" fill="#000000" fill-rule="nonzero" fill-opacity="1" /><polyline clip-path="url(#clip470)" style="stroke:#000000; stroke-linecap:round; stroke-linejoin:round; stroke-width:4; stroke-opacity:1; fill:none" points="148.057,1486.45 148.057,47.2441 "/>
<polyline clip-path="url(#clip470)" style="stroke:#000000; stroke-linecap:round; stroke-linejoin:round; stroke-width:4; stroke-opacity:1; fill:none" points="148.057,1343.64 166.954,1343.64 "/>
<polyline clip-path="url(#clip470)" style="stroke:#000000; stroke-linecap:round; stroke-linejoin:round; stroke-width:4; stroke-opacity:1; fill:none" points="148.057,1091.09 166.954,1091.09 "/>
<polyline clip-path="url(#clip470)" style="stroke:#000000; stroke-linecap:round; stroke-linejoin:round; stroke-width:4; stroke-opacity:1; fill:none" points="148.057,838.551 166.954,838.551 "/>
<polyline clip-path="url(#clip470)" style="stroke:#000000; stroke-linecap:round; stroke-linejoin:round; stroke-width:4; stroke-opacity:1; fill:none" points="148.057,586.007 166.954,586.007 "/>
<polyline clip-path="url(#clip470)" style="stroke:#000000; stroke-linecap:round; stroke-linejoin:round; stroke-width:4; stroke-opacity:1; fill:none" points="148.057,333.464 166.954,333.464 "/>
<polyline clip-path="url(#clip470)" style="stroke:#000000; stroke-linecap:round; stroke-linejoin:round; stroke-width:4; stroke-opacity:1; fill:none" points="148.057,80.9201 166.954,80.9201 "/>
<path clip-path="url(#clip470)" d="M50.9921 1344.09 L80.6679 1344.09 L80.6679 1348.02 L50.9921 1348.02 L50.9921 1344.09 Z" fill="#000000" fill-rule="nonzero" fill-opacity="1" /><path clip-path="url(#clip470)" d="M104.927 1342.28 Q108.283 1343 110.158 1345.27 Q112.057 1347.54 112.057 1350.87 Q112.057 1355.99 108.538 1358.79 Q105.02 1361.59 98.5382 1361.59 Q96.3623 1361.59 94.0475 1361.15 Q91.7558 1360.73 89.3021 1359.88 L89.3021 1355.36 Q91.2465 1356.5 93.5613 1357.08 Q95.8761 1357.65 98.3993 1357.65 Q102.797 1357.65 105.089 1355.92 Q107.404 1354.18 107.404 1350.87 Q107.404 1347.82 105.251 1346.1 Q103.121 1344.37 99.3021 1344.37 L95.2743 1344.37 L95.2743 1340.52 L99.4872 1340.52 Q102.936 1340.52 104.765 1339.16 Q106.594 1337.77 106.594 1335.18 Q106.594 1332.52 104.696 1331.1 Q102.821 1329.67 99.3021 1329.67 Q97.3808 1329.67 95.1817 1330.08 Q92.9826 1330.5 90.3438 1331.38 L90.3438 1327.21 Q93.0058 1326.47 95.3206 1326.1 Q97.6585 1325.73 99.7187 1325.73 Q105.043 1325.73 108.145 1328.16 Q111.246 1330.57 111.246 1334.69 Q111.246 1337.56 109.603 1339.55 Q107.959 1341.52 104.927 1342.28 Z" fill="#000000" fill-rule="nonzero" fill-opacity="1" /><path clip-path="url(#clip470)" d="M51.9412 1091.55 L81.617 1091.55 L81.617 1095.48 L51.9412 1095.48 L51.9412 1091.55 Z" fill="#000000" fill-rule="nonzero" fill-opacity="1" /><path clip-path="url(#clip470)" d="M95.7373 1104.44 L112.057 1104.44 L112.057 1108.37 L90.1123 1108.37 L90.1123 1104.44 Q92.7743 1101.68 97.3576 1097.05 Q101.964 1092.4 103.145 1091.06 Q105.39 1088.54 106.27 1086.8 Q107.172 1085.04 107.172 1083.35 Q107.172 1080.6 105.228 1078.86 Q103.307 1077.12 100.205 1077.12 Q98.0058 1077.12 95.5521 1077.89 Q93.1215 1078.65 90.3438 1080.2 L90.3438 1075.48 Q93.1678 1074.35 95.6215 1073.77 Q98.0752 1073.19 100.112 1073.19 Q105.483 1073.19 108.677 1075.87 Q111.871 1078.56 111.871 1083.05 Q111.871 1085.18 111.061 1087.1 Q110.274 1089 108.168 1091.59 Q107.589 1092.26 104.487 1095.48 Q101.385 1098.68 95.7373 1104.44 Z" fill="#000000" fill-rule="nonzero" fill-opacity="1" /><path clip-path="url(#clip470)" d="M51.5708 839.002 L81.2466 839.002 L81.2466 842.937 L51.5708 842.937 L51.5708 839.002 Z" fill="#000000" fill-rule="nonzero" fill-opacity="1" /><path clip-path="url(#clip470)" d="M92.1493 851.895 L99.7882 851.895 L99.7882 825.53 L91.478 827.197 L91.478 822.937 L99.7419 821.271 L104.418 821.271 L104.418 851.895 L112.057 851.895 L112.057 855.831 L92.1493 855.831 L92.1493 851.895 Z" fill="#000000" fill-rule="nonzero" fill-opacity="1" /><path clip-path="url(#clip470)" d="M100.112 571.806 Q96.5011 571.806 94.6724 575.371 Q92.8669 578.912 92.8669 586.042 Q92.8669 593.148 94.6724 596.713 Q96.5011 600.255 100.112 600.255 Q103.746 600.255 105.552 596.713 Q107.381 593.148 107.381 586.042 Q107.381 578.912 105.552 575.371 Q103.746 571.806 100.112 571.806 M100.112 568.102 Q105.922 568.102 108.978 572.709 Q112.057 577.292 112.057 586.042 Q112.057 594.769 108.978 599.375 Q105.922 603.958 100.112 603.958 Q94.3021 603.958 91.2234 599.375 Q88.1679 594.769 88.1679 586.042 Q88.1679 577.292 91.2234 572.709 Q94.3021 568.102 100.112 568.102 Z" fill="#000000" fill-rule="nonzero" fill-opacity="1" /><path clip-path="url(#clip470)" d="M92.1493 346.808 L99.7882 346.808 L99.7882 320.443 L91.478 322.11 L91.478 317.85 L99.7419 316.184 L104.418 316.184 L104.418 346.808 L112.057 346.808 L112.057 350.744 L92.1493 350.744 L92.1493 346.808 Z" fill="#000000" fill-rule="nonzero" fill-opacity="1" /><path clip-path="url(#clip470)" d="M95.7373 94.2649 L112.057 94.2649 L112.057 98.2001 L90.1123 98.2001 L90.1123 94.2649 Q92.7743 91.5103 97.3576 86.8807 Q101.964 82.228 103.145 80.8854 Q105.39 78.3622 106.27 76.6261 Q107.172 74.8669 107.172 73.1771 Q107.172 70.4225 105.228 68.6864 Q103.307 66.9503 100.205 66.9503 Q98.0058 66.9503 95.5521 67.7142 Q93.1215 68.478 90.3438 70.029 L90.3438 65.3068 Q93.1678 64.1725 95.6215 63.5938 Q98.0752 63.0151 100.112 63.0151 Q105.483 63.0151 108.677 65.7003 Q111.871 68.3854 111.871 72.8762 Q111.871 75.0058 111.061 76.9271 Q110.274 78.8252 108.168 81.4178 Q107.589 82.0891 104.487 85.3067 Q101.385 88.5011 95.7373 94.2649 Z" fill="#000000" fill-rule="nonzero" fill-opacity="1" /><circle clip-path="url(#clip471)" cx="344.994" cy="424.236" r="14.4" fill="#009af9" fill-rule="evenodd" fill-opacity="0.5" stroke="#000000" stroke-opacity="0.5" stroke-width="3.2"/>
<circle clip-path="url(#clip471)" cx="907.664" cy="524.003" r="14.4" fill="#009af9" fill-rule="evenodd" fill-opacity="0.5" stroke="#000000" stroke-opacity="0.5" stroke-width="3.2"/>
<circle clip-path="url(#clip471)" cx="2053.02" cy="1445.72" r="14.4" fill="#009af9" fill-rule="evenodd" fill-opacity="0.5" stroke="#000000" stroke-opacity="0.5" stroke-width="3.2"/>
<circle clip-path="url(#clip471)" cx="2290.36" cy="439.044" r="14.4" fill="#009af9" fill-rule="evenodd" fill-opacity="0.5" stroke="#000000" stroke-opacity="0.5" stroke-width="3.2"/>
<circle clip-path="url(#clip471)" cx="1394.55" cy="293.181" r="14.4" fill="#009af9" fill-rule="evenodd" fill-opacity="0.5" stroke="#000000" stroke-opacity="0.5" stroke-width="3.2"/>
<circle clip-path="url(#clip471)" cx="1213.96" cy="999.864" r="14.4" fill="#009af9" fill-rule="evenodd" fill-opacity="0.5" stroke="#000000" stroke-opacity="0.5" stroke-width="3.2"/>
<circle clip-path="url(#clip471)" cx="1439.59" cy="636.769" r="14.4" fill="#009af9" fill-rule="evenodd" fill-opacity="0.5" stroke="#000000" stroke-opacity="0.5" stroke-width="3.2"/>
<circle clip-path="url(#clip471)" cx="827.066" cy="549.996" r="14.4" fill="#009af9" fill-rule="evenodd" fill-opacity="0.5" stroke="#000000" stroke-opacity="0.5" stroke-width="3.2"/>
<circle clip-path="url(#clip471)" cx="2146.96" cy="453.819" r="14.4" fill="#009af9" fill-rule="evenodd" fill-opacity="0.5" stroke="#000000" stroke-opacity="0.5" stroke-width="3.2"/>
<circle clip-path="url(#clip471)" cx="268.936" cy="557.945" r="14.4" fill="#009af9" fill-rule="evenodd" fill-opacity="0.5" stroke="#000000" stroke-opacity="0.5" stroke-width="3.2"/>
<circle clip-path="url(#clip471)" cx="1837.49" cy="660.748" r="14.4" fill="#009af9" fill-rule="evenodd" fill-opacity="0.5" stroke="#000000" stroke-opacity="0.5" stroke-width="3.2"/>
<circle clip-path="url(#clip471)" cx="1458.69" cy="779.054" r="14.4" fill="#009af9" fill-rule="evenodd" fill-opacity="0.5" stroke="#000000" stroke-opacity="0.5" stroke-width="3.2"/>
<circle clip-path="url(#clip471)" cx="1115.16" cy="87.9763" r="14.4" fill="#009af9" fill-rule="evenodd" fill-opacity="0.5" stroke="#000000" stroke-opacity="0.5" stroke-width="3.2"/>
<circle clip-path="url(#clip471)" cx="1250.59" cy="644.645" r="14.4" fill="#009af9" fill-rule="evenodd" fill-opacity="0.5" stroke="#000000" stroke-opacity="0.5" stroke-width="3.2"/>
<circle clip-path="url(#clip471)" cx="1403.32" cy="463.903" r="14.4" fill="#009af9" fill-rule="evenodd" fill-opacity="0.5" stroke="#000000" stroke-opacity="0.5" stroke-width="3.2"/>
<circle clip-path="url(#clip471)" cx="921.799" cy="483.962" r="14.4" fill="#009af9" fill-rule="evenodd" fill-opacity="0.5" stroke="#000000" stroke-opacity="0.5" stroke-width="3.2"/>
<circle clip-path="url(#clip471)" cx="516.288" cy="561.719" r="14.4" fill="#009af9" fill-rule="evenodd" fill-opacity="0.5" stroke="#000000" stroke-opacity="0.5" stroke-width="3.2"/>
<circle clip-path="url(#clip471)" cx="988.988" cy="692.9" r="14.4" fill="#009af9" fill-rule="evenodd" fill-opacity="0.5" stroke="#000000" stroke-opacity="0.5" stroke-width="3.2"/>
<circle clip-path="url(#clip471)" cx="994.368" cy="445.247" r="14.4" fill="#009af9" fill-rule="evenodd" fill-opacity="0.5" stroke="#000000" stroke-opacity="0.5" stroke-width="3.2"/>
<circle clip-path="url(#clip471)" cx="2233.38" cy="862.344" r="14.4" fill="#009af9" fill-rule="evenodd" fill-opacity="0.5" stroke="#000000" stroke-opacity="0.5" stroke-width="3.2"/>
<circle clip-path="url(#clip471)" cx="210.454" cy="734.536" r="14.4" fill="#009af9" fill-rule="evenodd" fill-opacity="0.5" stroke="#000000" stroke-opacity="0.5" stroke-width="3.2"/>
<circle clip-path="url(#clip471)" cx="1244.85" cy="673.055" r="14.4" fill="#009af9" fill-rule="evenodd" fill-opacity="0.5" stroke="#000000" stroke-opacity="0.5" stroke-width="3.2"/>
<circle clip-path="url(#clip471)" cx="590.994" cy="817.63" r="14.4" fill="#009af9" fill-rule="evenodd" fill-opacity="0.5" stroke="#000000" stroke-opacity="0.5" stroke-width="3.2"/>
<circle clip-path="url(#clip471)" cx="912.104" cy="1033.06" r="14.4" fill="#009af9" fill-rule="evenodd" fill-opacity="0.5" stroke="#000000" stroke-opacity="0.5" stroke-width="3.2"/>
<circle clip-path="url(#clip471)" cx="1436.46" cy="803.038" r="14.4" fill="#009af9" fill-rule="evenodd" fill-opacity="0.5" stroke="#000000" stroke-opacity="0.5" stroke-width="3.2"/>
<circle clip-path="url(#clip471)" cx="1433.39" cy="686.928" r="14.4" fill="#009af9" fill-rule="evenodd" fill-opacity="0.5" stroke="#000000" stroke-opacity="0.5" stroke-width="3.2"/>
<circle clip-path="url(#clip471)" cx="1719.13" cy="323.884" r="14.4" fill="#009af9" fill-rule="evenodd" fill-opacity="0.5" stroke="#000000" stroke-opacity="0.5" stroke-width="3.2"/>
<circle clip-path="url(#clip471)" cx="1824.47" cy="656.307" r="14.4" fill="#009af9" fill-rule="evenodd" fill-opacity="0.5" stroke="#000000" stroke-opacity="0.5" stroke-width="3.2"/>
<circle clip-path="url(#clip471)" cx="1297.37" cy="989.814" r="14.4" fill="#009af9" fill-rule="evenodd" fill-opacity="0.5" stroke="#000000" stroke-opacity="0.5" stroke-width="3.2"/>
<circle clip-path="url(#clip471)" cx="1420.84" cy="503.979" r="14.4" fill="#009af9" fill-rule="evenodd" fill-opacity="0.5" stroke="#000000" stroke-opacity="0.5" stroke-width="3.2"/>
<path clip-path="url(#clip471)" d="M210.454 734.536 L912.104 1033.06 L2053.02 1445.72 L2233.38 862.344 L2290.36 439.044 L1115.16 87.9763 L344.994 424.236 L268.936 557.945 L210.454 734.536 L210.454 734.536  Z" fill="#e26f46" fill-rule="evenodd" fill-opacity="0.2"/>
<polyline clip-path="url(#clip471)" style="stroke:#000000; stroke-linecap:round; stroke-linejoin:round; stroke-width:4; stroke-opacity:0.2; fill:none" points="210.454,734.536 912.104,1033.06 2053.02,1445.72 2233.38,862.344 2290.36,439.044 1115.16,87.9763 344.994,424.236 268.936,557.945 210.454,734.536 "/>
</svg>
