<?xml version="1.0" encoding="utf-8"?>
<svg xmlns="http://www.w3.org/2000/svg" xmlns:xlink="http://www.w3.org/1999/xlink" width="600" height="400" viewBox="0 0 2400 1600">
<defs>
  <clipPath id="clip650">
    <rect x="0" y="0" width="2400" height="1600"/>
  </clipPath>
</defs>
<path clip-path="url(#clip650)" d="M0 1600 L2400 1600 L2400 0 L0 0  Z" fill="#ffffff" fill-rule="evenodd" fill-opacity="1"/>
<defs>
  <clipPath id="clip651">
    <rect x="480" y="0" width="1681" height="1600"/>
  </clipPath>
</defs>
<path clip-path="url(#clip650)" d="M147.478 1486.45 L2352.76 1486.45 L2352.76 47.2441 L147.478 47.2441  Z" fill="#ffffff" fill-rule="evenodd" fill-opacity="1"/>
<defs>
  <clipPath id="clip652">
    <rect x="147" y="47" width="2206" height="1440"/>
  </clipPath>
</defs>
<polyline clip-path="url(#clip652)" style="stroke:#000000; stroke-linecap:round; stroke-linejoin:round; stroke-width:2; stroke-opacity:0.1; fill:none" points="387.702,1486.45 387.702,47.2441 "/>
<polyline clip-path="url(#clip652)" style="stroke:#000000; stroke-linecap:round; stroke-linejoin:round; stroke-width:2; stroke-opacity:0.1; fill:none" points="796.573,1486.45 796.573,47.2441 "/>
<polyline clip-path="url(#clip652)" style="stroke:#000000; stroke-linecap:round; stroke-linejoin:round; stroke-width:2; stroke-opacity:0.1; fill:none" points="1205.44,1486.45 1205.44,47.2441 "/>
<polyline clip-path="url(#clip652)" style="stroke:#000000; stroke-linecap:round; stroke-linejoin:round; stroke-width:2; stroke-opacity:0.1; fill:none" points="1614.31,1486.45 1614.31,47.2441 "/>
<polyline clip-path="url(#clip652)" style="stroke:#000000; stroke-linecap:round; stroke-linejoin:round; stroke-width:2; stroke-opacity:0.1; fill:none" points="2023.18,1486.45 2023.18,47.2441 "/>
<polyline clip-path="url(#clip650)" style="stroke:#000000; stroke-linecap:round; stroke-linejoin:round; stroke-width:4; stroke-opacity:1; fill:none" points="147.478,1486.45 2352.76,1486.45 "/>
<polyline clip-path="url(#clip650)" style="stroke:#000000; stroke-linecap:round; stroke-linejoin:round; stroke-width:4; stroke-opacity:1; fill:none" points="387.702,1486.45 387.702,1467.55 "/>
<polyline clip-path="url(#clip650)" style="stroke:#000000; stroke-linecap:round; stroke-linejoin:round; stroke-width:4; stroke-opacity:1; fill:none" points="796.573,1486.45 796.573,1467.55 "/>
<polyline clip-path="url(#clip650)" style="stroke:#000000; stroke-linecap:round; stroke-linejoin:round; stroke-width:4; stroke-opacity:1; fill:none" points="1205.44,1486.45 1205.44,1467.55 "/>
<polyline clip-path="url(#clip650)" style="stroke:#000000; stroke-linecap:round; stroke-linejoin:round; stroke-width:4; stroke-opacity:1; fill:none" points="1614.31,1486.45 1614.31,1467.55 "/>
<polyline clip-path="url(#clip650)" style="stroke:#000000; stroke-linecap:round; stroke-linejoin:round; stroke-width:4; stroke-opacity:1; fill:none" points="2023.18,1486.45 2023.18,1467.55 "/>
<path clip-path="url(#clip650)" d="M357.644 1532.02 L387.32 1532.02 L387.32 1535.95 L357.644 1535.95 L357.644 1532.02 Z" fill="#000000" fill-rule="nonzero" fill-opacity="1" /><path clip-path="url(#clip650)" d="M401.44 1544.91 L417.76 1544.91 L417.76 1548.85 L395.816 1548.85 L395.816 1544.91 Q398.478 1542.16 403.061 1537.53 Q407.667 1532.88 408.848 1531.53 Q411.093 1529.01 411.973 1527.27 Q412.876 1525.51 412.876 1523.82 Q412.876 1521.07 410.931 1519.33 Q409.01 1517.6 405.908 1517.6 Q403.709 1517.6 401.255 1518.36 Q398.825 1519.13 396.047 1520.68 L396.047 1515.95 Q398.871 1514.82 401.325 1514.24 Q403.778 1513.66 405.815 1513.66 Q411.186 1513.66 414.38 1516.35 Q417.575 1519.03 417.575 1523.52 Q417.575 1525.65 416.764 1527.57 Q415.977 1529.47 413.871 1532.07 Q413.292 1532.74 410.19 1535.95 Q407.089 1539.15 401.44 1544.91 Z" fill="#000000" fill-rule="nonzero" fill-opacity="1" /><path clip-path="url(#clip650)" d="M766.33 1532.02 L796.005 1532.02 L796.005 1535.95 L766.33 1535.95 L766.33 1532.02 Z" fill="#000000" fill-rule="nonzero" fill-opacity="1" /><path clip-path="url(#clip650)" d="M806.908 1544.91 L814.547 1544.91 L814.547 1518.55 L806.237 1520.21 L806.237 1515.95 L814.501 1514.29 L819.177 1514.29 L819.177 1544.91 L826.815 1544.91 L826.815 1548.85 L806.908 1548.85 L806.908 1544.91 Z" fill="#000000" fill-rule="nonzero" fill-opacity="1" /><path clip-path="url(#clip650)" d="M1205.44 1517.37 Q1201.83 1517.37 1200 1520.93 Q1198.2 1524.47 1198.2 1531.6 Q1198.2 1538.71 1200 1542.27 Q1201.83 1545.82 1205.44 1545.82 Q1209.08 1545.82 1210.88 1542.27 Q1212.71 1538.71 1212.71 1531.6 Q1212.71 1524.47 1210.88 1520.93 Q1209.08 1517.37 1205.44 1517.37 M1205.44 1513.66 Q1211.25 1513.66 1214.31 1518.27 Q1217.39 1522.85 1217.39 1531.6 Q1217.39 1540.33 1214.31 1544.94 Q1211.25 1549.52 1205.44 1549.52 Q1199.63 1549.52 1196.55 1544.94 Q1193.5 1540.33 1193.5 1531.6 Q1193.5 1522.85 1196.55 1518.27 Q1199.63 1513.66 1205.44 1513.66 Z" fill="#000000" fill-rule="nonzero" fill-opacity="1" /><path clip-path="url(#clip650)" d="M1604.7 1544.91 L1612.33 1544.91 L1612.33 1518.55 L1604.02 1520.21 L1604.02 1515.95 L1612.29 1514.29 L1616.96 1514.29 L1616.96 1544.91 L1624.6 1544.91 L1624.6 1548.85 L1604.7 1548.85 L1604.7 1544.91 Z" fill="#000000" fill-rule="nonzero" fill-opacity="1" /><path clip-path="url(#clip650)" d="M2017.84 1544.91 L2034.16 1544.91 L2034.16 1548.85 L2012.21 1548.85 L2012.21 1544.91 Q2014.87 1542.16 2019.46 1537.53 Q2024.06 1532.88 2025.24 1531.53 Q2027.49 1529.01 2028.37 1527.27 Q2029.27 1525.51 2029.27 1523.82 Q2029.27 1521.07 2027.33 1519.33 Q2025.41 1517.6 2022.3 1517.6 Q2020.11 1517.6 2017.65 1518.36 Q2015.22 1519.13 2012.44 1520.68 L2012.44 1515.95 Q2015.27 1514.82 2017.72 1514.24 Q2020.17 1513.66 2022.21 1513.66 Q2027.58 1513.66 2030.78 1516.35 Q2033.97 1519.03 2033.97 1523.52 Q2033.97 1525.65 2033.16 1527.57 Q2032.37 1529.47 2030.27 1532.07 Q2029.69 1532.74 2026.59 1535.95 Q2023.48 1539.15 2017.84 1544.91 Z" fill="#000000" fill-rule="nonzero" fill-opacity="1" /><polyline clip-path="url(#clip652)" style="stroke:#000000; stroke-linecap:round; stroke-linejoin:round; stroke-width:2; stroke-opacity:0.1; fill:none" points="147.478,1435.97 2352.76,1435.97 "/>
<polyline clip-path="url(#clip652)" style="stroke:#000000; stroke-linecap:round; stroke-linejoin:round; stroke-width:2; stroke-opacity:0.1; fill:none" points="147.478,1167.88 2352.76,1167.88 "/>
<polyline clip-path="url(#clip652)" style="stroke:#000000; stroke-linecap:round; stroke-linejoin:round; stroke-width:2; stroke-opacity:0.1; fill:none" points="147.478,899.78 2352.76,899.78 "/>
<polyline clip-path="url(#clip652)" style="stroke:#000000; stroke-linecap:round; stroke-linejoin:round; stroke-width:2; stroke-opacity:0.1; fill:none" points="147.478,631.682 2352.76,631.682 "/>
<polyline clip-path="url(#clip652)" style="stroke:#000000; stroke-linecap:round; stroke-linejoin:round; stroke-width:2; stroke-opacity:0.1; fill:none" points="147.478,363.585 2352.76,363.585 "/>
<polyline clip-path="url(#clip652)" style="stroke:#000000; stroke-linecap:round; stroke-linejoin:round; stroke-width:2; stroke-opacity:0.1; fill:none" points="147.478,95.4872 2352.76,95.4872 "/>
<polyline clip-path="url(#clip650)" style="stroke:#000000; stroke-linecap:round; stroke-linejoin:round; stroke-width:4; stroke-opacity:1; fill:none" points="147.478,1486.45 147.478,47.2441 "/>
<polyline clip-path="url(#clip650)" style="stroke:#000000; stroke-linecap:round; stroke-linejoin:round; stroke-width:4; stroke-opacity:1; fill:none" points="147.478,1435.97 166.376,1435.97 "/>
<polyline clip-path="url(#clip650)" style="stroke:#000000; stroke-linecap:round; stroke-linejoin:round; stroke-width:4; stroke-opacity:1; fill:none" points="147.478,1167.88 166.376,1167.88 "/>
<polyline clip-path="url(#clip650)" style="stroke:#000000; stroke-linecap:round; stroke-linejoin:round; stroke-width:4; stroke-opacity:1; fill:none" points="147.478,899.78 166.376,899.78 "/>
<polyline clip-path="url(#clip650)" style="stroke:#000000; stroke-linecap:round; stroke-linejoin:round; stroke-width:4; stroke-opacity:1; fill:none" points="147.478,631.682 166.376,631.682 "/>
<polyline clip-path="url(#clip650)" style="stroke:#000000; stroke-linecap:round; stroke-linejoin:round; stroke-width:4; stroke-opacity:1; fill:none" points="147.478,363.585 166.376,363.585 "/>
<polyline clip-path="url(#clip650)" style="stroke:#000000; stroke-linecap:round; stroke-linejoin:round; stroke-width:4; stroke-opacity:1; fill:none" points="147.478,95.4872 166.376,95.4872 "/>
<path clip-path="url(#clip650)" d="M51.3625 1436.43 L81.0383 1436.43 L81.0383 1440.36 L51.3625 1440.36 L51.3625 1436.43 Z" fill="#000000" fill-rule="nonzero" fill-opacity="1" /><path clip-path="url(#clip650)" d="M95.1586 1449.32 L111.478 1449.32 L111.478 1453.25 L89.5336 1453.25 L89.5336 1449.32 Q92.1956 1446.56 96.7789 1441.94 Q101.385 1437.28 102.566 1435.94 Q104.811 1433.42 105.691 1431.68 Q106.594 1429.92 106.594 1428.23 Q106.594 1425.48 104.649 1423.74 Q102.728 1422 99.6261 1422 Q97.4271 1422 94.9734 1422.77 Q92.5428 1423.53 89.7651 1425.08 L89.7651 1420.36 Q92.5891 1419.23 95.0428 1418.65 Q97.4965 1418.07 99.5335 1418.07 Q104.904 1418.07 108.098 1420.75 Q111.293 1423.44 111.293 1427.93 Q111.293 1430.06 110.483 1431.98 Q109.696 1433.88 107.589 1436.47 Q107.01 1437.14 103.909 1440.36 Q100.807 1443.56 95.1586 1449.32 Z" fill="#000000" fill-rule="nonzero" fill-opacity="1" /><path clip-path="url(#clip650)" d="M50.9921 1168.33 L80.6679 1168.33 L80.6679 1172.26 L50.9921 1172.26 L50.9921 1168.33 Z" fill="#000000" fill-rule="nonzero" fill-opacity="1" /><path clip-path="url(#clip650)" d="M91.5706 1181.22 L99.2095 1181.22 L99.2095 1154.86 L90.8993 1156.52 L90.8993 1152.26 L99.1632 1150.6 L103.839 1150.6 L103.839 1181.22 L111.478 1181.22 L111.478 1185.16 L91.5706 1185.16 L91.5706 1181.22 Z" fill="#000000" fill-rule="nonzero" fill-opacity="1" /><path clip-path="url(#clip650)" d="M99.5335 885.578 Q95.9224 885.578 94.0937 889.143 Q92.2882 892.685 92.2882 899.814 Q92.2882 906.921 94.0937 910.486 Q95.9224 914.027 99.5335 914.027 Q103.168 914.027 104.973 910.486 Q106.802 906.921 106.802 899.814 Q106.802 892.685 104.973 889.143 Q103.168 885.578 99.5335 885.578 M99.5335 881.875 Q105.344 881.875 108.399 886.481 Q111.478 891.064 111.478 899.814 Q111.478 908.541 108.399 913.148 Q105.344 917.731 99.5335 917.731 Q93.7234 917.731 90.6447 913.148 Q87.5892 908.541 87.5892 899.814 Q87.5892 891.064 90.6447 886.481 Q93.7234 881.875 99.5335 881.875 Z" fill="#000000" fill-rule="nonzero" fill-opacity="1" /><path clip-path="url(#clip650)" d="M91.5706 645.027 L99.2095 645.027 L99.2095 618.661 L90.8993 620.328 L90.8993 616.069 L99.1632 614.402 L103.839 614.402 L103.839 645.027 L111.478 645.027 L111.478 648.962 L91.5706 648.962 L91.5706 645.027 Z" fill="#000000" fill-rule="nonzero" fill-opacity="1" /><path clip-path="url(#clip650)" d="M95.1586 376.93 L111.478 376.93 L111.478 380.865 L89.5336 380.865 L89.5336 376.93 Q92.1956 374.175 96.7789 369.545 Q101.385 364.893 102.566 363.55 Q104.811 361.027 105.691 359.291 Q106.594 357.531 106.594 355.842 Q106.594 353.087 104.649 351.351 Q102.728 349.615 99.6261 349.615 Q97.4271 349.615 94.9734 350.379 Q92.5428 351.143 89.7651 352.694 L89.7651 347.971 Q92.5891 346.837 95.0428 346.258 Q97.4965 345.68 99.5335 345.68 Q104.904 345.68 108.098 348.365 Q111.293 351.05 111.293 355.541 Q111.293 357.67 110.483 359.592 Q109.696 361.49 107.589 364.082 Q107.01 364.754 103.909 367.971 Q100.807 371.166 95.1586 376.93 Z" fill="#000000" fill-rule="nonzero" fill-opacity="1" /><path clip-path="url(#clip650)" d="M104.348 94.1331 Q107.705 94.8507 109.58 97.1192 Q111.478 99.3877 111.478 102.721 Q111.478 107.837 107.959 110.638 Q104.441 113.439 97.9595 113.439 Q95.7836 113.439 93.4688 112.999 Q91.1771 112.582 88.7234 111.726 L88.7234 107.212 Q90.6678 108.346 92.9826 108.925 Q95.2974 109.503 97.8206 109.503 Q102.219 109.503 104.51 107.767 Q106.825 106.031 106.825 102.721 Q106.825 99.6654 104.672 97.9525 Q102.543 96.2164 98.7234 96.2164 L94.6956 96.2164 L94.6956 92.3738 L98.9085 92.3738 Q102.358 92.3738 104.186 91.0081 Q106.015 89.6192 106.015 87.0266 Q106.015 84.3646 104.117 82.9526 Q102.242 81.5174 98.7234 81.5174 Q96.8021 81.5174 94.603 81.9341 Q92.4039 82.3507 89.7651 83.2304 L89.7651 79.0637 Q92.4271 78.323 94.7419 77.9526 Q97.0798 77.5822 99.14 77.5822 Q104.464 77.5822 107.566 80.0128 Q110.668 82.4202 110.668 86.5405 Q110.668 89.4109 109.024 91.4016 Q107.381 93.3692 104.348 94.1331 Z" fill="#000000" fill-rule="nonzero" fill-opacity="1" /><circle clip-path="url(#clip652)" cx="434.099" cy="1036.73" r="14.4" fill="#009af9" fill-rule="evenodd" fill-opacity="0.5" stroke="#000000" stroke-opacity="0.5" stroke-width="3.2"/>
<circle clip-path="url(#clip652)" cx="988.093" cy="1031.88" r="14.4" fill="#009af9" fill-rule="evenodd" fill-opacity="0.5" stroke="#000000" stroke-opacity="0.5" stroke-width="3.2"/>
<circle clip-path="url(#clip652)" cx="1512.94" cy="989.877" r="14.4" fill="#009af9" fill-rule="evenodd" fill-opacity="0.5" stroke="#000000" stroke-opacity="0.5" stroke-width="3.2"/>
<circle clip-path="url(#clip652)" cx="1342.69" cy="87.9763" r="14.4" fill="#009af9" fill-rule="evenodd" fill-opacity="0.5" stroke="#000000" stroke-opacity="0.5" stroke-width="3.2"/>
<circle clip-path="url(#clip652)" cx="1424" cy="1129.14" r="14.4" fill="#009af9" fill-rule="evenodd" fill-opacity="0.5" stroke="#000000" stroke-opacity="0.5" stroke-width="3.2"/>
<circle clip-path="url(#clip652)" cx="1141.15" cy="991.959" r="14.4" fill="#009af9" fill-rule="evenodd" fill-opacity="0.5" stroke="#000000" stroke-opacity="0.5" stroke-width="3.2"/>
<circle clip-path="url(#clip652)" cx="941.248" cy="917.468" r="14.4" fill="#009af9" fill-rule="evenodd" fill-opacity="0.5" stroke="#000000" stroke-opacity="0.5" stroke-width="3.2"/>
<circle clip-path="url(#clip652)" cx="1627.43" cy="1076" r="14.4" fill="#009af9" fill-rule="evenodd" fill-opacity="0.5" stroke="#000000" stroke-opacity="0.5" stroke-width="3.2"/>
<circle clip-path="url(#clip652)" cx="1266.31" cy="422.826" r="14.4" fill="#009af9" fill-rule="evenodd" fill-opacity="0.5" stroke="#000000" stroke-opacity="0.5" stroke-width="3.2"/>
<circle clip-path="url(#clip652)" cx="965.806" cy="597.79" r="14.4" fill="#009af9" fill-rule="evenodd" fill-opacity="0.5" stroke="#000000" stroke-opacity="0.5" stroke-width="3.2"/>
<circle clip-path="url(#clip652)" cx="1017.85" cy="501.231" r="14.4" fill="#009af9" fill-rule="evenodd" fill-opacity="0.5" stroke="#000000" stroke-opacity="0.5" stroke-width="3.2"/>
<circle clip-path="url(#clip652)" cx="1692.2" cy="1350.28" r="14.4" fill="#009af9" fill-rule="evenodd" fill-opacity="0.5" stroke="#000000" stroke-opacity="0.5" stroke-width="3.2"/>
<circle clip-path="url(#clip652)" cx="355.074" cy="1445.72" r="14.4" fill="#009af9" fill-rule="evenodd" fill-opacity="0.5" stroke="#000000" stroke-opacity="0.5" stroke-width="3.2"/>
<circle clip-path="url(#clip652)" cx="1521.92" cy="684.516" r="14.4" fill="#009af9" fill-rule="evenodd" fill-opacity="0.5" stroke="#000000" stroke-opacity="0.5" stroke-width="3.2"/>
<circle clip-path="url(#clip652)" cx="1523.13" cy="671.159" r="14.4" fill="#009af9" fill-rule="evenodd" fill-opacity="0.5" stroke="#000000" stroke-opacity="0.5" stroke-width="3.2"/>
<circle clip-path="url(#clip652)" cx="1853.64" cy="1248.7" r="14.4" fill="#009af9" fill-rule="evenodd" fill-opacity="0.5" stroke="#000000" stroke-opacity="0.5" stroke-width="3.2"/>
<circle clip-path="url(#clip652)" cx="1598.18" cy="931.648" r="14.4" fill="#009af9" fill-rule="evenodd" fill-opacity="0.5" stroke="#000000" stroke-opacity="0.5" stroke-width="3.2"/>
<circle clip-path="url(#clip652)" cx="2290.34" cy="790.758" r="14.4" fill="#009af9" fill-rule="evenodd" fill-opacity="0.5" stroke="#000000" stroke-opacity="0.5" stroke-width="3.2"/>
<circle clip-path="url(#clip652)" cx="1700.36" cy="859.6" r="14.4" fill="#009af9" fill-rule="evenodd" fill-opacity="0.5" stroke="#000000" stroke-opacity="0.5" stroke-width="3.2"/>
<circle clip-path="url(#clip652)" cx="539.887" cy="960.269" r="14.4" fill="#009af9" fill-rule="evenodd" fill-opacity="0.5" stroke="#000000" stroke-opacity="0.5" stroke-width="3.2"/>
<circle clip-path="url(#clip652)" cx="544.916" cy="872.932" r="14.4" fill="#009af9" fill-rule="evenodd" fill-opacity="0.5" stroke="#000000" stroke-opacity="0.5" stroke-width="3.2"/>
<circle clip-path="url(#clip652)" cx="1116.41" cy="452.061" r="14.4" fill="#009af9" fill-rule="evenodd" fill-opacity="0.5" stroke="#000000" stroke-opacity="0.5" stroke-width="3.2"/>
<circle clip-path="url(#clip652)" cx="792.258" cy="459.103" r="14.4" fill="#009af9" fill-rule="evenodd" fill-opacity="0.5" stroke="#000000" stroke-opacity="0.5" stroke-width="3.2"/>
<circle clip-path="url(#clip652)" cx="888.268" cy="963.807" r="14.4" fill="#009af9" fill-rule="evenodd" fill-opacity="0.5" stroke="#000000" stroke-opacity="0.5" stroke-width="3.2"/>
<circle clip-path="url(#clip652)" cx="1313.74" cy="910.598" r="14.4" fill="#009af9" fill-rule="evenodd" fill-opacity="0.5" stroke="#000000" stroke-opacity="0.5" stroke-width="3.2"/>
<circle clip-path="url(#clip652)" cx="1173.31" cy="774.888" r="14.4" fill="#009af9" fill-rule="evenodd" fill-opacity="0.5" stroke="#000000" stroke-opacity="0.5" stroke-width="3.2"/>
<circle clip-path="url(#clip652)" cx="209.891" cy="1302.7" r="14.4" fill="#009af9" fill-rule="evenodd" fill-opacity="0.5" stroke="#000000" stroke-opacity="0.5" stroke-width="3.2"/>
<circle clip-path="url(#clip652)" cx="1844.41" cy="480.243" r="14.4" fill="#009af9" fill-rule="evenodd" fill-opacity="0.5" stroke="#000000" stroke-opacity="0.5" stroke-width="3.2"/>
<circle clip-path="url(#clip652)" cx="571.862" cy="1138.89" r="14.4" fill="#009af9" fill-rule="evenodd" fill-opacity="0.5" stroke="#000000" stroke-opacity="0.5" stroke-width="3.2"/>
<circle clip-path="url(#clip652)" cx="1435.14" cy="837.224" r="14.4" fill="#009af9" fill-rule="evenodd" fill-opacity="0.5" stroke="#000000" stroke-opacity="0.5" stroke-width="3.2"/>
<path clip-path="url(#clip652)" d="M209.891 1302.7 L355.074 1445.72 L1692.2 1350.28 L1853.64 1248.7 L2290.34 790.758 L1342.69 87.9763 L792.258 459.103 L209.891 1302.7 L209.891 1302.7  Z" fill="#e26f46" fill-rule="evenodd" fill-opacity="0.2"/>
<polyline clip-path="url(#clip652)" style="stroke:#000000; stroke-linecap:round; stroke-linejoin:round; stroke-width:4; stroke-opacity:0.2; fill:none" points="209.891,1302.7 355.074,1445.72 1692.2,1350.28 1853.64,1248.7 2290.34,790.758 1342.69,87.9763 792.258,459.103 209.891,1302.7 "/>
</svg>
