<?xml version="1.0" encoding="utf-8"?>
<svg xmlns="http://www.w3.org/2000/svg" xmlns:xlink="http://www.w3.org/1999/xlink" width="600" height="400" viewBox="0 0 2400 1600">
<defs>
  <clipPath id="clip400">
    <rect x="0" y="0" width="2400" height="1600"/>
  </clipPath>
</defs>
<path clip-path="url(#clip400)" d="M0 1600 L2400 1600 L2400 0 L0 0  Z" fill="#ffffff" fill-rule="evenodd" fill-opacity="1"/>
<defs>
  <clipPath id="clip401">
    <rect x="480" y="0" width="1681" height="1600"/>
  </clipPath>
</defs>
<path clip-path="url(#clip400)" d="M193.936 1486.45 L2352.76 1486.45 L2352.76 47.2441 L193.936 47.2441  Z" fill="#ffffff" fill-rule="evenodd" fill-opacity="1"/>
<defs>
  <clipPath id="clip402">
    <rect x="193" y="47" width="2160" height="1440"/>
  </clipPath>
</defs>
<polyline clip-path="url(#clip402)" style="stroke:#000000; stroke-linecap:round; stroke-linejoin:round; stroke-width:2; stroke-opacity:0.1; fill:none" points="648.96,1486.45 648.96,47.2441 "/>
<polyline clip-path="url(#clip402)" style="stroke:#000000; stroke-linecap:round; stroke-linejoin:round; stroke-width:2; stroke-opacity:0.1; fill:none" points="1117.06,1486.45 1117.06,47.2441 "/>
<polyline clip-path="url(#clip402)" style="stroke:#000000; stroke-linecap:round; stroke-linejoin:round; stroke-width:2; stroke-opacity:0.1; fill:none" points="1585.17,1486.45 1585.17,47.2441 "/>
<polyline clip-path="url(#clip402)" style="stroke:#000000; stroke-linecap:round; stroke-linejoin:round; stroke-width:2; stroke-opacity:0.1; fill:none" points="2053.27,1486.45 2053.27,47.2441 "/>
<polyline clip-path="url(#clip402)" style="stroke:#000000; stroke-linecap:round; stroke-linejoin:round; stroke-width:2; stroke-opacity:0.1; fill:none" points="193.936,1330.17 2352.76,1330.17 "/>
<polyline clip-path="url(#clip402)" style="stroke:#000000; stroke-linecap:round; stroke-linejoin:round; stroke-width:2; stroke-opacity:0.1; fill:none" points="193.936,1126.46 2352.76,1126.46 "/>
<polyline clip-path="url(#clip402)" style="stroke:#000000; stroke-linecap:round; stroke-linejoin:round; stroke-width:2; stroke-opacity:0.1; fill:none" points="193.936,922.75 2352.76,922.75 "/>
<polyline clip-path="url(#clip402)" style="stroke:#000000; stroke-linecap:round; stroke-linejoin:round; stroke-width:2; stroke-opacity:0.1; fill:none" points="193.936,719.042 2352.76,719.042 "/>
<polyline clip-path="url(#clip402)" style="stroke:#000000; stroke-linecap:round; stroke-linejoin:round; stroke-width:2; stroke-opacity:0.1; fill:none" points="193.936,515.334 2352.76,515.334 "/>
<polyline clip-path="url(#clip402)" style="stroke:#000000; stroke-linecap:round; stroke-linejoin:round; stroke-width:2; stroke-opacity:0.1; fill:none" points="193.936,311.626 2352.76,311.626 "/>
<polyline clip-path="url(#clip402)" style="stroke:#000000; stroke-linecap:round; stroke-linejoin:round; stroke-width:2; stroke-opacity:0.1; fill:none" points="193.936,107.918 2352.76,107.918 "/>
<polyline clip-path="url(#clip400)" style="stroke:#000000; stroke-linecap:round; stroke-linejoin:round; stroke-width:4; stroke-opacity:1; fill:none" points="193.936,1486.45 2352.76,1486.45 "/>
<polyline clip-path="url(#clip400)" style="stroke:#000000; stroke-linecap:round; stroke-linejoin:round; stroke-width:4; stroke-opacity:1; fill:none" points="648.96,1486.45 648.96,1467.55 "/>
<polyline clip-path="url(#clip400)" style="stroke:#000000; stroke-linecap:round; stroke-linejoin:round; stroke-width:4; stroke-opacity:1; fill:none" points="1117.06,1486.45 1117.06,1467.55 "/>
<polyline clip-path="url(#clip400)" style="stroke:#000000; stroke-linecap:round; stroke-linejoin:round; stroke-width:4; stroke-opacity:1; fill:none" points="1585.17,1486.45 1585.17,1467.55 "/>
<polyline clip-path="url(#clip400)" style="stroke:#000000; stroke-linecap:round; stroke-linejoin:round; stroke-width:4; stroke-opacity:1; fill:none" points="2053.27,1486.45 2053.27,1467.55 "/>
<path clip-path="url(#clip400)" d="M618.717 1532.02 L648.392 1532.02 L648.392 1535.95 L618.717 1535.95 L618.717 1532.02 Z" fill="#000000" fill-rule="nonzero" fill-opacity="1" /><path clip-path="url(#clip400)" d="M659.295 1544.91 L666.934 1544.91 L666.934 1518.55 L658.624 1520.21 L658.624 1515.95 L666.888 1514.29 L671.564 1514.29 L671.564 1544.91 L679.202 1544.91 L679.202 1548.85 L659.295 1548.85 L659.295 1544.91 Z" fill="#000000" fill-rule="nonzero" fill-opacity="1" /><path clip-path="url(#clip400)" d="M1117.06 1517.37 Q1113.45 1517.37 1111.62 1520.93 Q1109.82 1524.47 1109.82 1531.6 Q1109.82 1538.71 1111.62 1542.27 Q1113.45 1545.82 1117.06 1545.82 Q1120.7 1545.82 1122.5 1542.27 Q1124.33 1538.71 1124.33 1531.6 Q1124.33 1524.47 1122.5 1520.93 Q1120.7 1517.37 1117.06 1517.37 M1117.06 1513.66 Q1122.87 1513.66 1125.93 1518.27 Q1129.01 1522.85 1129.01 1531.6 Q1129.01 1540.33 1125.93 1544.94 Q1122.87 1549.52 1117.06 1549.52 Q1111.25 1549.52 1108.17 1544.94 Q1105.12 1540.33 1105.12 1531.6 Q1105.12 1522.85 1108.17 1518.27 Q1111.25 1513.66 1117.06 1513.66 Z" fill="#000000" fill-rule="nonzero" fill-opacity="1" /><path clip-path="url(#clip400)" d="M1575.55 1544.91 L1583.19 1544.91 L1583.19 1518.55 L1574.88 1520.21 L1574.88 1515.95 L1583.14 1514.29 L1587.82 1514.29 L1587.82 1544.91 L1595.45 1544.91 L1595.45 1548.85 L1575.55 1548.85 L1575.55 1544.91 Z" fill="#000000" fill-rule="nonzero" fill-opacity="1" /><path clip-path="url(#clip400)" d="M2047.92 1544.91 L2064.24 1544.91 L2064.24 1548.85 L2042.3 1548.85 L2042.3 1544.91 Q2044.96 1542.16 2049.54 1537.53 Q2054.15 1532.88 2055.33 1531.53 Q2057.57 1529.01 2058.45 1527.27 Q2059.36 1525.51 2059.36 1523.82 Q2059.36 1521.07 2057.41 1519.33 Q2055.49 1517.6 2052.39 1517.6 Q2050.19 1517.6 2047.74 1518.36 Q2045.31 1519.13 2042.53 1520.68 L2042.53 1515.95 Q2045.35 1514.82 2047.81 1514.24 Q2050.26 1513.66 2052.3 1513.66 Q2057.67 1513.66 2060.86 1516.35 Q2064.06 1519.03 2064.06 1523.52 Q2064.06 1525.65 2063.25 1527.57 Q2062.46 1529.47 2060.35 1532.07 Q2059.77 1532.74 2056.67 1535.95 Q2053.57 1539.15 2047.92 1544.91 Z" fill="#000000" fill-rule="nonzero" fill-opacity="1" /><polyline clip-path="url(#clip400)" style="stroke:#000000; stroke-linecap:round; stroke-linejoin:round; stroke-width:4; stroke-opacity:1; fill:none" points="193.936,1486.45 193.936,47.2441 "/>
<polyline clip-path="url(#clip400)" style="stroke:#000000; stroke-linecap:round; stroke-linejoin:round; stroke-width:4; stroke-opacity:1; fill:none" points="193.936,1330.17 212.834,1330.17 "/>
<polyline clip-path="url(#clip400)" style="stroke:#000000; stroke-linecap:round; stroke-linejoin:round; stroke-width:4; stroke-opacity:1; fill:none" points="193.936,1126.46 212.834,1126.46 "/>
<polyline clip-path="url(#clip400)" style="stroke:#000000; stroke-linecap:round; stroke-linejoin:round; stroke-width:4; stroke-opacity:1; fill:none" points="193.936,922.75 212.834,922.75 "/>
<polyline clip-path="url(#clip400)" style="stroke:#000000; stroke-linecap:round; stroke-linejoin:round; stroke-width:4; stroke-opacity:1; fill:none" points="193.936,719.042 212.834,719.042 "/>
<polyline clip-path="url(#clip400)" style="stroke:#000000; stroke-linecap:round; stroke-linejoin:round; stroke-width:4; stroke-opacity:1; fill:none" points="193.936,515.334 212.834,515.334 "/>
<polyline clip-path="url(#clip400)" style="stroke:#000000; stroke-linecap:round; stroke-linejoin:round; stroke-width:4; stroke-opacity:1; fill:none" points="193.936,311.626 212.834,311.626 "/>
<polyline clip-path="url(#clip400)" style="stroke:#000000; stroke-linecap:round; stroke-linejoin:round; stroke-width:4; stroke-opacity:1; fill:none" points="193.936,107.918 212.834,107.918 "/>
<path clip-path="url(#clip400)" d="M51.9875 1330.62 L81.6633 1330.62 L81.6633 1334.55 L51.9875 1334.55 L51.9875 1330.62 Z" fill="#000000" fill-rule="nonzero" fill-opacity="1" /><path clip-path="url(#clip400)" d="M92.566 1343.51 L100.205 1343.51 L100.205 1317.14 L91.8947 1318.81 L91.8947 1314.55 L100.159 1312.89 L104.834 1312.89 L104.834 1343.51 L112.473 1343.51 L112.473 1347.45 L92.566 1347.45 L92.566 1343.51 Z" fill="#000000" fill-rule="nonzero" fill-opacity="1" /><path clip-path="url(#clip400)" d="M121.918 1341.57 L126.802 1341.57 L126.802 1347.45 L121.918 1347.45 L121.918 1341.57 Z" fill="#000000" fill-rule="nonzero" fill-opacity="1" /><path clip-path="url(#clip400)" d="M137.033 1312.89 L155.39 1312.89 L155.39 1316.82 L141.316 1316.82 L141.316 1325.29 Q142.334 1324.95 143.353 1324.78 Q144.371 1324.6 145.39 1324.6 Q151.177 1324.6 154.556 1327.77 Q157.936 1330.94 157.936 1336.36 Q157.936 1341.94 154.464 1345.04 Q150.992 1348.12 144.672 1348.12 Q142.496 1348.12 140.228 1347.75 Q137.982 1347.38 135.575 1346.64 L135.575 1341.94 Q137.658 1343.07 139.881 1343.63 Q142.103 1344.18 144.58 1344.18 Q148.584 1344.18 150.922 1342.08 Q153.26 1339.97 153.26 1336.36 Q153.26 1332.75 150.922 1330.64 Q148.584 1328.53 144.58 1328.53 Q142.705 1328.53 140.83 1328.95 Q138.978 1329.37 137.033 1330.25 L137.033 1312.89 Z" fill="#000000" fill-rule="nonzero" fill-opacity="1" /><path clip-path="url(#clip400)" d="M50.9921 1126.91 L80.6679 1126.91 L80.6679 1130.84 L50.9921 1130.84 L50.9921 1126.91 Z" fill="#000000" fill-rule="nonzero" fill-opacity="1" /><path clip-path="url(#clip400)" d="M91.5706 1139.8 L99.2095 1139.8 L99.2095 1113.44 L90.8993 1115.1 L90.8993 1110.84 L99.1632 1109.18 L103.839 1109.18 L103.839 1139.8 L111.478 1139.8 L111.478 1143.74 L91.5706 1143.74 L91.5706 1139.8 Z" fill="#000000" fill-rule="nonzero" fill-opacity="1" /><path clip-path="url(#clip400)" d="M120.922 1137.86 L125.807 1137.86 L125.807 1143.74 L120.922 1143.74 L120.922 1137.86 Z" fill="#000000" fill-rule="nonzero" fill-opacity="1" /><path clip-path="url(#clip400)" d="M145.992 1112.26 Q142.381 1112.26 140.552 1115.82 Q138.746 1119.36 138.746 1126.49 Q138.746 1133.6 140.552 1137.16 Q142.381 1140.71 145.992 1140.71 Q149.626 1140.71 151.431 1137.16 Q153.26 1133.6 153.26 1126.49 Q153.26 1119.36 151.431 1115.82 Q149.626 1112.26 145.992 1112.26 M145.992 1108.55 Q151.802 1108.55 154.857 1113.16 Q157.936 1117.74 157.936 1126.49 Q157.936 1135.22 154.857 1139.83 Q151.802 1144.41 145.992 1144.41 Q140.181 1144.41 137.103 1139.83 Q134.047 1135.22 134.047 1126.49 Q134.047 1117.74 137.103 1113.16 Q140.181 1108.55 145.992 1108.55 Z" fill="#000000" fill-rule="nonzero" fill-opacity="1" /><path clip-path="url(#clip400)" d="M51.9875 923.201 L81.6633 923.201 L81.6633 927.136 L51.9875 927.136 L51.9875 923.201 Z" fill="#000000" fill-rule="nonzero" fill-opacity="1" /><path clip-path="url(#clip400)" d="M101.756 908.548 Q98.1447 908.548 96.316 912.113 Q94.5104 915.655 94.5104 922.784 Q94.5104 929.891 96.316 933.456 Q98.1447 936.997 101.756 936.997 Q105.39 936.997 107.196 933.456 Q109.024 929.891 109.024 922.784 Q109.024 915.655 107.196 912.113 Q105.39 908.548 101.756 908.548 M101.756 904.845 Q107.566 904.845 110.621 909.451 Q113.7 914.034 113.7 922.784 Q113.7 931.511 110.621 936.118 Q107.566 940.701 101.756 940.701 Q95.9456 940.701 92.8669 936.118 Q89.8114 931.511 89.8114 922.784 Q89.8114 914.034 92.8669 909.451 Q95.9456 904.845 101.756 904.845 Z" fill="#000000" fill-rule="nonzero" fill-opacity="1" /><path clip-path="url(#clip400)" d="M121.918 934.15 L126.802 934.15 L126.802 940.03 L121.918 940.03 L121.918 934.15 Z" fill="#000000" fill-rule="nonzero" fill-opacity="1" /><path clip-path="url(#clip400)" d="M137.033 905.47 L155.39 905.47 L155.39 909.405 L141.316 909.405 L141.316 917.877 Q142.334 917.53 143.353 917.368 Q144.371 917.182 145.39 917.182 Q151.177 917.182 154.556 920.354 Q157.936 923.525 157.936 928.942 Q157.936 934.52 154.464 937.622 Q150.992 940.701 144.672 940.701 Q142.496 940.701 140.228 940.331 Q137.982 939.96 135.575 939.219 L135.575 934.52 Q137.658 935.655 139.881 936.21 Q142.103 936.766 144.58 936.766 Q148.584 936.766 150.922 934.659 Q153.26 932.553 153.26 928.942 Q153.26 925.331 150.922 923.224 Q148.584 921.118 144.58 921.118 Q142.705 921.118 140.83 921.534 Q138.978 921.951 137.033 922.831 L137.033 905.47 Z" fill="#000000" fill-rule="nonzero" fill-opacity="1" /><path clip-path="url(#clip400)" d="M100.76 704.84 Q97.1493 704.84 95.3206 708.405 Q93.515 711.947 93.515 719.076 Q93.515 726.183 95.3206 729.748 Q97.1493 733.289 100.76 733.289 Q104.395 733.289 106.2 729.748 Q108.029 726.183 108.029 719.076 Q108.029 711.947 106.2 708.405 Q104.395 704.84 100.76 704.84 M100.76 701.137 Q106.571 701.137 109.626 705.743 Q112.705 710.326 112.705 719.076 Q112.705 727.803 109.626 732.41 Q106.571 736.993 100.76 736.993 Q94.9502 736.993 91.8715 732.41 Q88.816 727.803 88.816 719.076 Q88.816 710.326 91.8715 705.743 Q94.9502 701.137 100.76 701.137 Z" fill="#000000" fill-rule="nonzero" fill-opacity="1" /><path clip-path="url(#clip400)" d="M120.922 730.442 L125.807 730.442 L125.807 736.322 L120.922 736.322 L120.922 730.442 Z" fill="#000000" fill-rule="nonzero" fill-opacity="1" /><path clip-path="url(#clip400)" d="M145.992 704.84 Q142.381 704.84 140.552 708.405 Q138.746 711.947 138.746 719.076 Q138.746 726.183 140.552 729.748 Q142.381 733.289 145.992 733.289 Q149.626 733.289 151.431 729.748 Q153.26 726.183 153.26 719.076 Q153.26 711.947 151.431 708.405 Q149.626 704.84 145.992 704.84 M145.992 701.137 Q151.802 701.137 154.857 705.743 Q157.936 710.326 157.936 719.076 Q157.936 727.803 154.857 732.41 Q151.802 736.993 145.992 736.993 Q140.181 736.993 137.103 732.41 Q134.047 727.803 134.047 719.076 Q134.047 710.326 137.103 705.743 Q140.181 701.137 145.992 701.137 Z" fill="#000000" fill-rule="nonzero" fill-opacity="1" /><path clip-path="url(#clip400)" d="M101.756 501.132 Q98.1447 501.132 96.316 504.697 Q94.5104 508.239 94.5104 515.369 Q94.5104 522.475 96.316 526.04 Q98.1447 529.581 101.756 529.581 Q105.39 529.581 107.196 526.04 Q109.024 522.475 109.024 515.369 Q109.024 508.239 107.196 504.697 Q105.39 501.132 101.756 501.132 M101.756 497.429 Q107.566 497.429 110.621 502.035 Q113.7 506.619 113.7 515.369 Q113.7 524.095 110.621 528.702 Q107.566 533.285 101.756 533.285 Q95.9456 533.285 92.8669 528.702 Q89.8114 524.095 89.8114 515.369 Q89.8114 506.619 92.8669 502.035 Q95.9456 497.429 101.756 497.429 Z" fill="#000000" fill-rule="nonzero" fill-opacity="1" /><path clip-path="url(#clip400)" d="M121.918 526.734 L126.802 526.734 L126.802 532.614 L121.918 532.614 L121.918 526.734 Z" fill="#000000" fill-rule="nonzero" fill-opacity="1" /><path clip-path="url(#clip400)" d="M137.033 498.054 L155.39 498.054 L155.39 501.989 L141.316 501.989 L141.316 510.461 Q142.334 510.114 143.353 509.952 Q144.371 509.767 145.39 509.767 Q151.177 509.767 154.556 512.938 Q157.936 516.109 157.936 521.526 Q157.936 527.105 154.464 530.206 Q150.992 533.285 144.672 533.285 Q142.496 533.285 140.228 532.915 Q137.982 532.544 135.575 531.804 L135.575 527.105 Q137.658 528.239 139.881 528.794 Q142.103 529.35 144.58 529.35 Q148.584 529.35 150.922 527.243 Q153.26 525.137 153.26 521.526 Q153.26 517.915 150.922 515.808 Q148.584 513.702 144.58 513.702 Q142.705 513.702 140.83 514.119 Q138.978 514.535 137.033 515.415 L137.033 498.054 Z" fill="#000000" fill-rule="nonzero" fill-opacity="1" /><path clip-path="url(#clip400)" d="M91.5706 324.971 L99.2095 324.971 L99.2095 298.605 L90.8993 300.272 L90.8993 296.013 L99.1632 294.346 L103.839 294.346 L103.839 324.971 L111.478 324.971 L111.478 328.906 L91.5706 328.906 L91.5706 324.971 Z" fill="#000000" fill-rule="nonzero" fill-opacity="1" /><path clip-path="url(#clip400)" d="M120.922 323.026 L125.807 323.026 L125.807 328.906 L120.922 328.906 L120.922 323.026 Z" fill="#000000" fill-rule="nonzero" fill-opacity="1" /><path clip-path="url(#clip400)" d="M145.992 297.425 Q142.381 297.425 140.552 300.989 Q138.746 304.531 138.746 311.661 Q138.746 318.767 140.552 322.332 Q142.381 325.874 145.992 325.874 Q149.626 325.874 151.431 322.332 Q153.26 318.767 153.26 311.661 Q153.26 304.531 151.431 300.989 Q149.626 297.425 145.992 297.425 M145.992 293.721 Q151.802 293.721 154.857 298.327 Q157.936 302.911 157.936 311.661 Q157.936 320.387 154.857 324.994 Q151.802 329.577 145.992 329.577 Q140.181 329.577 137.103 324.994 Q134.047 320.387 134.047 311.661 Q134.047 302.911 137.103 298.327 Q140.181 293.721 145.992 293.721 Z" fill="#000000" fill-rule="nonzero" fill-opacity="1" /><path clip-path="url(#clip400)" d="M92.566 121.263 L100.205 121.263 L100.205 94.8973 L91.8947 96.5639 L91.8947 92.3047 L100.159 90.638 L104.834 90.638 L104.834 121.263 L112.473 121.263 L112.473 125.198 L92.566 125.198 L92.566 121.263 Z" fill="#000000" fill-rule="nonzero" fill-opacity="1" /><path clip-path="url(#clip400)" d="M121.918 119.318 L126.802 119.318 L126.802 125.198 L121.918 125.198 L121.918 119.318 Z" fill="#000000" fill-rule="nonzero" fill-opacity="1" /><path clip-path="url(#clip400)" d="M137.033 90.638 L155.39 90.638 L155.39 94.5732 L141.316 94.5732 L141.316 103.045 Q142.334 102.698 143.353 102.536 Q144.371 102.351 145.39 102.351 Q151.177 102.351 154.556 105.522 Q157.936 108.693 157.936 114.11 Q157.936 119.689 154.464 122.791 Q150.992 125.869 144.672 125.869 Q142.496 125.869 140.228 125.499 Q137.982 125.129 135.575 124.388 L135.575 119.689 Q137.658 120.823 139.881 121.379 Q142.103 121.934 144.58 121.934 Q148.584 121.934 150.922 119.828 Q153.26 117.721 153.26 114.11 Q153.26 110.499 150.922 108.393 Q148.584 106.286 144.58 106.286 Q142.705 106.286 140.83 106.703 Q138.978 107.119 137.033 107.999 L137.033 90.638 Z" fill="#000000" fill-rule="nonzero" fill-opacity="1" /><circle clip-path="url(#clip402)" cx="946.304" cy="605.252" r="14.4" fill="#009af9" fill-rule="evenodd" fill-opacity="0.5" stroke="#000000" stroke-opacity="0.5" stroke-width="3.2"/>
<circle clip-path="url(#clip402)" cx="705.204" cy="1445.72" r="14.4" fill="#009af9" fill-rule="evenodd" fill-opacity="0.5" stroke="#000000" stroke-opacity="0.5" stroke-width="3.2"/>
<circle clip-path="url(#clip402)" cx="1160.26" cy="778.037" r="14.4" fill="#009af9" fill-rule="evenodd" fill-opacity="0.5" stroke="#000000" stroke-opacity="0.5" stroke-width="3.2"/>
<circle clip-path="url(#clip402)" cx="1173.3" cy="875.61" r="14.4" fill="#009af9" fill-rule="evenodd" fill-opacity="0.5" stroke="#000000" stroke-opacity="0.5" stroke-width="3.2"/>
<circle clip-path="url(#clip402)" cx="286.768" cy="374.991" r="14.4" fill="#009af9" fill-rule="evenodd" fill-opacity="0.5" stroke="#000000" stroke-opacity="0.5" stroke-width="3.2"/>
<circle clip-path="url(#clip402)" cx="1237.3" cy="176.256" r="14.4" fill="#009af9" fill-rule="evenodd" fill-opacity="0.5" stroke="#000000" stroke-opacity="0.5" stroke-width="3.2"/>
<circle clip-path="url(#clip402)" cx="394.981" cy="132.813" r="14.4" fill="#009af9" fill-rule="evenodd" fill-opacity="0.5" stroke="#000000" stroke-opacity="0.5" stroke-width="3.2"/>
<circle clip-path="url(#clip402)" cx="1945.53" cy="87.9763" r="14.4" fill="#009af9" fill-rule="evenodd" fill-opacity="0.5" stroke="#000000" stroke-opacity="0.5" stroke-width="3.2"/>
<circle clip-path="url(#clip402)" cx="1076.82" cy="262.538" r="14.4" fill="#009af9" fill-rule="evenodd" fill-opacity="0.5" stroke="#000000" stroke-opacity="0.5" stroke-width="3.2"/>
<circle clip-path="url(#clip402)" cx="732.273" cy="577.82" r="14.4" fill="#009af9" fill-rule="evenodd" fill-opacity="0.5" stroke="#000000" stroke-opacity="0.5" stroke-width="3.2"/>
<circle clip-path="url(#clip402)" cx="896.245" cy="390.015" r="14.4" fill="#009af9" fill-rule="evenodd" fill-opacity="0.5" stroke="#000000" stroke-opacity="0.5" stroke-width="3.2"/>
<circle clip-path="url(#clip402)" cx="1657.26" cy="407.467" r="14.4" fill="#009af9" fill-rule="evenodd" fill-opacity="0.5" stroke="#000000" stroke-opacity="0.5" stroke-width="3.2"/>
<circle clip-path="url(#clip402)" cx="610.948" cy="775.484" r="14.4" fill="#009af9" fill-rule="evenodd" fill-opacity="0.5" stroke="#000000" stroke-opacity="0.5" stroke-width="3.2"/>
<circle clip-path="url(#clip402)" cx="1026.78" cy="981.431" r="14.4" fill="#009af9" fill-rule="evenodd" fill-opacity="0.5" stroke="#000000" stroke-opacity="0.5" stroke-width="3.2"/>
<circle clip-path="url(#clip402)" cx="1567.78" cy="1401.55" r="14.4" fill="#009af9" fill-rule="evenodd" fill-opacity="0.5" stroke="#000000" stroke-opacity="0.5" stroke-width="3.2"/>
<circle clip-path="url(#clip402)" cx="1522.47" cy="1185.33" r="14.4" fill="#009af9" fill-rule="evenodd" fill-opacity="0.5" stroke="#000000" stroke-opacity="0.5" stroke-width="3.2"/>
<circle clip-path="url(#clip402)" cx="255.035" cy="847.354" r="14.4" fill="#009af9" fill-rule="evenodd" fill-opacity="0.5" stroke="#000000" stroke-opacity="0.5" stroke-width="3.2"/>
<circle clip-path="url(#clip402)" cx="337.529" cy="540.625" r="14.4" fill="#009af9" fill-rule="evenodd" fill-opacity="0.5" stroke="#000000" stroke-opacity="0.5" stroke-width="3.2"/>
<circle clip-path="url(#clip402)" cx="1699.03" cy="1253.07" r="14.4" fill="#009af9" fill-rule="evenodd" fill-opacity="0.5" stroke="#000000" stroke-opacity="0.5" stroke-width="3.2"/>
<circle clip-path="url(#clip402)" cx="599.57" cy="785.978" r="14.4" fill="#009af9" fill-rule="evenodd" fill-opacity="0.5" stroke="#000000" stroke-opacity="0.5" stroke-width="3.2"/>
<circle clip-path="url(#clip402)" cx="859.977" cy="373.459" r="14.4" fill="#009af9" fill-rule="evenodd" fill-opacity="0.5" stroke="#000000" stroke-opacity="0.5" stroke-width="3.2"/>
<circle clip-path="url(#clip402)" cx="1809.4" cy="446.209" r="14.4" fill="#009af9" fill-rule="evenodd" fill-opacity="0.5" stroke="#000000" stroke-opacity="0.5" stroke-width="3.2"/>
<circle clip-path="url(#clip402)" cx="976.481" cy="1414.98" r="14.4" fill="#009af9" fill-rule="evenodd" fill-opacity="0.5" stroke="#000000" stroke-opacity="0.5" stroke-width="3.2"/>
<circle clip-path="url(#clip402)" cx="1083.51" cy="317.552" r="14.4" fill="#009af9" fill-rule="evenodd" fill-opacity="0.5" stroke="#000000" stroke-opacity="0.5" stroke-width="3.2"/>
<circle clip-path="url(#clip402)" cx="1241.38" cy="839.895" r="14.4" fill="#009af9" fill-rule="evenodd" fill-opacity="0.5" stroke="#000000" stroke-opacity="0.5" stroke-width="3.2"/>
<circle clip-path="url(#clip402)" cx="2291.66" cy="796.307" r="14.4" fill="#009af9" fill-rule="evenodd" fill-opacity="0.5" stroke="#000000" stroke-opacity="0.5" stroke-width="3.2"/>
<circle clip-path="url(#clip402)" cx="736.918" cy="196.12" r="14.4" fill="#009af9" fill-rule="evenodd" fill-opacity="0.5" stroke="#000000" stroke-opacity="0.5" stroke-width="3.2"/>
<circle clip-path="url(#clip402)" cx="888.086" cy="490.967" r="14.4" fill="#009af9" fill-rule="evenodd" fill-opacity="0.5" stroke="#000000" stroke-opacity="0.5" stroke-width="3.2"/>
<circle clip-path="url(#clip402)" cx="1982.47" cy="989.998" r="14.4" fill="#009af9" fill-rule="evenodd" fill-opacity="0.5" stroke="#000000" stroke-opacity="0.5" stroke-width="3.2"/>
<circle clip-path="url(#clip402)" cx="1232.41" cy="819.943" r="14.4" fill="#009af9" fill-rule="evenodd" fill-opacity="0.5" stroke="#000000" stroke-opacity="0.5" stroke-width="3.2"/>
<path clip-path="url(#clip402)" d="M255.035 847.354 L705.204 1445.72 L1567.78 1401.55 L2291.66 796.307 L1945.53 87.9763 L394.981 132.813 L286.768 374.991 L255.035 847.354 L255.035 847.354  Z" fill="#e26f46" fill-rule="evenodd" fill-opacity="0.2"/>
<polyline clip-path="url(#clip402)" style="stroke:#000000; stroke-linecap:round; stroke-linejoin:round; stroke-width:4; stroke-opacity:0.2; fill:none" points="255.035,847.354 705.204,1445.72 1567.78,1401.55 2291.66,796.307 1945.53,87.9763 394.981,132.813 286.768,374.991 255.035,847.354 "/>
</svg>
