<?xml version="1.0" encoding="utf-8"?>
<svg xmlns="http://www.w3.org/2000/svg" xmlns:xlink="http://www.w3.org/1999/xlink" width="600" height="400" viewBox="0 0 2400 1600">
<defs>
  <clipPath id="clip810">
    <rect x="0" y="0" width="2400" height="1600"/>
  </clipPath>
</defs>
<path clip-path="url(#clip810)" d="M0 1600 L2400 1600 L2400 0 L0 0  Z" fill="#ffffff" fill-rule="evenodd" fill-opacity="1"/>
<defs>
  <clipPath id="clip811">
    <rect x="480" y="0" width="1681" height="1600"/>
  </clipPath>
</defs>
<path clip-path="url(#clip810)" d="M147.478 1486.45 L2352.76 1486.45 L2352.76 47.2441 L147.478 47.2441  Z" fill="#ffffff" fill-rule="evenodd" fill-opacity="1"/>
<defs>
  <clipPath id="clip812">
    <rect x="147" y="47" width="2206" height="1440"/>
  </clipPath>
</defs>
<polyline clip-path="url(#clip812)" style="stroke:#000000; stroke-linecap:round; stroke-linejoin:round; stroke-width:2; stroke-opacity:0.1; fill:none" points="534.145,1486.45 534.145,47.2441 "/>
<polyline clip-path="url(#clip812)" style="stroke:#000000; stroke-linecap:round; stroke-linejoin:round; stroke-width:2; stroke-opacity:0.1; fill:none" points="967.285,1486.45 967.285,47.2441 "/>
<polyline clip-path="url(#clip812)" style="stroke:#000000; stroke-linecap:round; stroke-linejoin:round; stroke-width:2; stroke-opacity:0.1; fill:none" points="1400.42,1486.45 1400.42,47.2441 "/>
<polyline clip-path="url(#clip812)" style="stroke:#000000; stroke-linecap:round; stroke-linejoin:round; stroke-width:2; stroke-opacity:0.1; fill:none" points="1833.56,1486.45 1833.56,47.2441 "/>
<polyline clip-path="url(#clip812)" style="stroke:#000000; stroke-linecap:round; stroke-linejoin:round; stroke-width:2; stroke-opacity:0.1; fill:none" points="2266.7,1486.45 2266.7,47.2441 "/>
<polyline clip-path="url(#clip810)" style="stroke:#000000; stroke-linecap:round; stroke-linejoin:round; stroke-width:4; stroke-opacity:1; fill:none" points="147.478,1486.45 2352.76,1486.45 "/>
<polyline clip-path="url(#clip810)" style="stroke:#000000; stroke-linecap:round; stroke-linejoin:round; stroke-width:4; stroke-opacity:1; fill:none" points="534.145,1486.45 534.145,1467.55 "/>
<polyline clip-path="url(#clip810)" style="stroke:#000000; stroke-linecap:round; stroke-linejoin:round; stroke-width:4; stroke-opacity:1; fill:none" points="967.285,1486.45 967.285,1467.55 "/>
<polyline clip-path="url(#clip810)" style="stroke:#000000; stroke-linecap:round; stroke-linejoin:round; stroke-width:4; stroke-opacity:1; fill:none" points="1400.42,1486.45 1400.42,1467.55 "/>
<polyline clip-path="url(#clip810)" style="stroke:#000000; stroke-linecap:round; stroke-linejoin:round; stroke-width:4; stroke-opacity:1; fill:none" points="1833.56,1486.45 1833.56,1467.55 "/>
<polyline clip-path="url(#clip810)" style="stroke:#000000; stroke-linecap:round; stroke-linejoin:round; stroke-width:4; stroke-opacity:1; fill:none" points="2266.7,1486.45 2266.7,1467.55 "/>
<path clip-path="url(#clip810)" d="M504.087 1532.02 L533.763 1532.02 L533.763 1535.95 L504.087 1535.95 L504.087 1532.02 Z" fill="#000000" fill-rule="nonzero" fill-opacity="1" /><path clip-path="url(#clip810)" d="M547.883 1544.91 L564.203 1544.91 L564.203 1548.85 L542.258 1548.85 L542.258 1544.91 Q544.92 1542.16 549.504 1537.53 Q554.11 1532.88 555.291 1531.53 Q557.536 1529.01 558.416 1527.27 Q559.319 1525.51 559.319 1523.82 Q559.319 1521.07 557.374 1519.33 Q555.453 1517.6 552.351 1517.6 Q550.152 1517.6 547.698 1518.36 Q545.268 1519.13 542.49 1520.68 L542.49 1515.95 Q545.314 1514.82 547.768 1514.24 Q550.221 1513.66 552.258 1513.66 Q557.629 1513.66 560.823 1516.35 Q564.018 1519.03 564.018 1523.52 Q564.018 1525.65 563.207 1527.57 Q562.42 1529.47 560.314 1532.07 Q559.735 1532.74 556.633 1535.95 Q553.532 1539.15 547.883 1544.91 Z" fill="#000000" fill-rule="nonzero" fill-opacity="1" /><path clip-path="url(#clip810)" d="M937.042 1532.02 L966.717 1532.02 L966.717 1535.95 L937.042 1535.95 L937.042 1532.02 Z" fill="#000000" fill-rule="nonzero" fill-opacity="1" /><path clip-path="url(#clip810)" d="M977.62 1544.91 L985.259 1544.91 L985.259 1518.55 L976.949 1520.21 L976.949 1515.95 L985.213 1514.29 L989.889 1514.29 L989.889 1544.91 L997.527 1544.91 L997.527 1548.85 L977.62 1548.85 L977.62 1544.91 Z" fill="#000000" fill-rule="nonzero" fill-opacity="1" /><path clip-path="url(#clip810)" d="M1400.42 1517.37 Q1396.81 1517.37 1394.98 1520.93 Q1393.18 1524.47 1393.18 1531.6 Q1393.18 1538.71 1394.98 1542.27 Q1396.81 1545.82 1400.42 1545.82 Q1404.06 1545.82 1405.86 1542.27 Q1407.69 1538.71 1407.69 1531.6 Q1407.69 1524.47 1405.86 1520.93 Q1404.06 1517.37 1400.42 1517.37 M1400.42 1513.66 Q1406.23 1513.66 1409.29 1518.27 Q1412.37 1522.85 1412.37 1531.6 Q1412.37 1540.33 1409.29 1544.94 Q1406.23 1549.52 1400.42 1549.52 Q1394.61 1549.52 1391.54 1544.94 Q1388.48 1540.33 1388.48 1531.6 Q1388.48 1522.85 1391.54 1518.27 Q1394.61 1513.66 1400.42 1513.66 Z" fill="#000000" fill-rule="nonzero" fill-opacity="1" /><path clip-path="url(#clip810)" d="M1823.95 1544.91 L1831.58 1544.91 L1831.58 1518.55 L1823.27 1520.21 L1823.27 1515.95 L1831.54 1514.29 L1836.21 1514.29 L1836.21 1544.91 L1843.85 1544.91 L1843.85 1548.85 L1823.95 1548.85 L1823.95 1544.91 Z" fill="#000000" fill-rule="nonzero" fill-opacity="1" /><path clip-path="url(#clip810)" d="M2261.36 1544.91 L2277.68 1544.91 L2277.68 1548.85 L2255.73 1548.85 L2255.73 1544.91 Q2258.39 1542.16 2262.98 1537.53 Q2267.58 1532.88 2268.76 1531.53 Q2271.01 1529.01 2271.89 1527.27 Q2272.79 1525.51 2272.79 1523.82 Q2272.79 1521.07 2270.85 1519.33 Q2268.93 1517.6 2265.82 1517.6 Q2263.62 1517.6 2261.17 1518.36 Q2258.74 1519.13 2255.96 1520.68 L2255.96 1515.95 Q2258.79 1514.82 2261.24 1514.24 Q2263.69 1513.66 2265.73 1513.66 Q2271.1 1513.66 2274.3 1516.35 Q2277.49 1519.03 2277.49 1523.52 Q2277.49 1525.65 2276.68 1527.57 Q2275.89 1529.47 2273.79 1532.07 Q2273.21 1532.74 2270.11 1535.95 Q2267 1539.15 2261.36 1544.91 Z" fill="#000000" fill-rule="nonzero" fill-opacity="1" /><polyline clip-path="url(#clip812)" style="stroke:#000000; stroke-linecap:round; stroke-linejoin:round; stroke-width:2; stroke-opacity:0.1; fill:none" points="147.478,1196.23 2352.76,1196.23 "/>
<polyline clip-path="url(#clip812)" style="stroke:#000000; stroke-linecap:round; stroke-linejoin:round; stroke-width:2; stroke-opacity:0.1; fill:none" points="147.478,888.762 2352.76,888.762 "/>
<polyline clip-path="url(#clip812)" style="stroke:#000000; stroke-linecap:round; stroke-linejoin:round; stroke-width:2; stroke-opacity:0.1; fill:none" points="147.478,581.291 2352.76,581.291 "/>
<polyline clip-path="url(#clip812)" style="stroke:#000000; stroke-linecap:round; stroke-linejoin:round; stroke-width:2; stroke-opacity:0.1; fill:none" points="147.478,273.821 2352.76,273.821 "/>
<polyline clip-path="url(#clip810)" style="stroke:#000000; stroke-linecap:round; stroke-linejoin:round; stroke-width:4; stroke-opacity:1; fill:none" points="147.478,1486.45 147.478,47.2441 "/>
<polyline clip-path="url(#clip810)" style="stroke:#000000; stroke-linecap:round; stroke-linejoin:round; stroke-width:4; stroke-opacity:1; fill:none" points="147.478,1196.23 166.376,1196.23 "/>
<polyline clip-path="url(#clip810)" style="stroke:#000000; stroke-linecap:round; stroke-linejoin:round; stroke-width:4; stroke-opacity:1; fill:none" points="147.478,888.762 166.376,888.762 "/>
<polyline clip-path="url(#clip810)" style="stroke:#000000; stroke-linecap:round; stroke-linejoin:round; stroke-width:4; stroke-opacity:1; fill:none" points="147.478,581.291 166.376,581.291 "/>
<polyline clip-path="url(#clip810)" style="stroke:#000000; stroke-linecap:round; stroke-linejoin:round; stroke-width:4; stroke-opacity:1; fill:none" points="147.478,273.821 166.376,273.821 "/>
<path clip-path="url(#clip810)" d="M50.9921 1196.68 L80.6679 1196.68 L80.6679 1200.62 L50.9921 1200.62 L50.9921 1196.68 Z" fill="#000000" fill-rule="nonzero" fill-opacity="1" /><path clip-path="url(#clip810)" d="M91.5706 1209.58 L99.2095 1209.58 L99.2095 1183.21 L90.8993 1184.88 L90.8993 1180.62 L99.1632 1178.95 L103.839 1178.95 L103.839 1209.58 L111.478 1209.58 L111.478 1213.51 L91.5706 1213.51 L91.5706 1209.58 Z" fill="#000000" fill-rule="nonzero" fill-opacity="1" /><path clip-path="url(#clip810)" d="M99.5335 874.561 Q95.9224 874.561 94.0937 878.126 Q92.2882 881.667 92.2882 888.797 Q92.2882 895.903 94.0937 899.468 Q95.9224 903.01 99.5335 903.01 Q103.168 903.01 104.973 899.468 Q106.802 895.903 106.802 888.797 Q106.802 881.667 104.973 878.126 Q103.168 874.561 99.5335 874.561 M99.5335 870.857 Q105.344 870.857 108.399 875.464 Q111.478 880.047 111.478 888.797 Q111.478 897.524 108.399 902.13 Q105.344 906.713 99.5335 906.713 Q93.7234 906.713 90.6447 902.13 Q87.5892 897.524 87.5892 888.797 Q87.5892 880.047 90.6447 875.464 Q93.7234 870.857 99.5335 870.857 Z" fill="#000000" fill-rule="nonzero" fill-opacity="1" /><path clip-path="url(#clip810)" d="M91.5706 594.636 L99.2095 594.636 L99.2095 568.271 L90.8993 569.937 L90.8993 565.678 L99.1632 564.011 L103.839 564.011 L103.839 594.636 L111.478 594.636 L111.478 598.571 L91.5706 598.571 L91.5706 594.636 Z" fill="#000000" fill-rule="nonzero" fill-opacity="1" /><path clip-path="url(#clip810)" d="M95.1586 287.165 L111.478 287.165 L111.478 291.101 L89.5336 291.101 L89.5336 287.165 Q92.1956 284.411 96.7789 279.781 Q101.385 275.128 102.566 273.786 Q104.811 271.263 105.691 269.527 Q106.594 267.767 106.594 266.078 Q106.594 263.323 104.649 261.587 Q102.728 259.851 99.6261 259.851 Q97.4271 259.851 94.9734 260.615 Q92.5428 261.379 89.7651 262.929 L89.7651 258.207 Q92.5891 257.073 95.0428 256.494 Q97.4965 255.916 99.5335 255.916 Q104.904 255.916 108.098 258.601 Q111.293 261.286 111.293 265.777 Q111.293 267.906 110.483 269.828 Q109.696 271.726 107.589 274.318 Q107.01 274.99 103.909 278.207 Q100.807 281.402 95.1586 287.165 Z" fill="#000000" fill-rule="nonzero" fill-opacity="1" /><circle clip-path="url(#clip812)" cx="1978.08" cy="785.014" r="14.4" fill="#009af9" fill-rule="evenodd" fill-opacity="0.5" stroke="#000000" stroke-opacity="0.5" stroke-width="3.2"/>
<circle clip-path="url(#clip812)" cx="887.68" cy="855.337" r="14.4" fill="#009af9" fill-rule="evenodd" fill-opacity="0.5" stroke="#000000" stroke-opacity="0.5" stroke-width="3.2"/>
<circle clip-path="url(#clip812)" cx="1266.12" cy="87.9763" r="14.4" fill="#009af9" fill-rule="evenodd" fill-opacity="0.5" stroke="#000000" stroke-opacity="0.5" stroke-width="3.2"/>
<circle clip-path="url(#clip812)" cx="209.891" cy="698.371" r="14.4" fill="#009af9" fill-rule="evenodd" fill-opacity="0.5" stroke="#000000" stroke-opacity="0.5" stroke-width="3.2"/>
<circle clip-path="url(#clip812)" cx="1451.03" cy="501.43" r="14.4" fill="#009af9" fill-rule="evenodd" fill-opacity="0.5" stroke="#000000" stroke-opacity="0.5" stroke-width="3.2"/>
<circle clip-path="url(#clip812)" cx="1583.37" cy="905.866" r="14.4" fill="#009af9" fill-rule="evenodd" fill-opacity="0.5" stroke="#000000" stroke-opacity="0.5" stroke-width="3.2"/>
<circle clip-path="url(#clip812)" cx="1053.31" cy="1281.35" r="14.4" fill="#009af9" fill-rule="evenodd" fill-opacity="0.5" stroke="#000000" stroke-opacity="0.5" stroke-width="3.2"/>
<circle clip-path="url(#clip812)" cx="658.189" cy="1000.21" r="14.4" fill="#009af9" fill-rule="evenodd" fill-opacity="0.5" stroke="#000000" stroke-opacity="0.5" stroke-width="3.2"/>
<circle clip-path="url(#clip812)" cx="1556.56" cy="685.18" r="14.4" fill="#009af9" fill-rule="evenodd" fill-opacity="0.5" stroke="#000000" stroke-opacity="0.5" stroke-width="3.2"/>
<circle clip-path="url(#clip812)" cx="1729.7" cy="853.232" r="14.4" fill="#009af9" fill-rule="evenodd" fill-opacity="0.5" stroke="#000000" stroke-opacity="0.5" stroke-width="3.2"/>
<circle clip-path="url(#clip812)" cx="988.775" cy="963.034" r="14.4" fill="#009af9" fill-rule="evenodd" fill-opacity="0.5" stroke="#000000" stroke-opacity="0.5" stroke-width="3.2"/>
<circle clip-path="url(#clip812)" cx="997.901" cy="813.397" r="14.4" fill="#009af9" fill-rule="evenodd" fill-opacity="0.5" stroke="#000000" stroke-opacity="0.5" stroke-width="3.2"/>
<circle clip-path="url(#clip812)" cx="1810.05" cy="903.039" r="14.4" fill="#009af9" fill-rule="evenodd" fill-opacity="0.5" stroke="#000000" stroke-opacity="0.5" stroke-width="3.2"/>
<circle clip-path="url(#clip812)" cx="1223.25" cy="739.428" r="14.4" fill="#009af9" fill-rule="evenodd" fill-opacity="0.5" stroke="#000000" stroke-opacity="0.5" stroke-width="3.2"/>
<circle clip-path="url(#clip812)" cx="1458.76" cy="373.881" r="14.4" fill="#009af9" fill-rule="evenodd" fill-opacity="0.5" stroke="#000000" stroke-opacity="0.5" stroke-width="3.2"/>
<circle clip-path="url(#clip812)" cx="1238.26" cy="1258.18" r="14.4" fill="#009af9" fill-rule="evenodd" fill-opacity="0.5" stroke="#000000" stroke-opacity="0.5" stroke-width="3.2"/>
<circle clip-path="url(#clip812)" cx="2249.42" cy="727.507" r="14.4" fill="#009af9" fill-rule="evenodd" fill-opacity="0.5" stroke="#000000" stroke-opacity="0.5" stroke-width="3.2"/>
<circle clip-path="url(#clip812)" cx="1870.15" cy="589.585" r="14.4" fill="#009af9" fill-rule="evenodd" fill-opacity="0.5" stroke="#000000" stroke-opacity="0.5" stroke-width="3.2"/>
<circle clip-path="url(#clip812)" cx="1311.4" cy="857.68" r="14.4" fill="#009af9" fill-rule="evenodd" fill-opacity="0.5" stroke="#000000" stroke-opacity="0.5" stroke-width="3.2"/>
<circle clip-path="url(#clip812)" cx="2290.34" cy="229.948" r="14.4" fill="#009af9" fill-rule="evenodd" fill-opacity="0.5" stroke="#000000" stroke-opacity="0.5" stroke-width="3.2"/>
<circle clip-path="url(#clip812)" cx="1179.09" cy="848.343" r="14.4" fill="#009af9" fill-rule="evenodd" fill-opacity="0.5" stroke="#000000" stroke-opacity="0.5" stroke-width="3.2"/>
<circle clip-path="url(#clip812)" cx="907.186" cy="1080.98" r="14.4" fill="#009af9" fill-rule="evenodd" fill-opacity="0.5" stroke="#000000" stroke-opacity="0.5" stroke-width="3.2"/>
<circle clip-path="url(#clip812)" cx="1289.83" cy="1353.62" r="14.4" fill="#009af9" fill-rule="evenodd" fill-opacity="0.5" stroke="#000000" stroke-opacity="0.5" stroke-width="3.2"/>
<circle clip-path="url(#clip812)" cx="1399.26" cy="427.923" r="14.4" fill="#009af9" fill-rule="evenodd" fill-opacity="0.5" stroke="#000000" stroke-opacity="0.5" stroke-width="3.2"/>
<circle clip-path="url(#clip812)" cx="1921.84" cy="1126.09" r="14.4" fill="#009af9" fill-rule="evenodd" fill-opacity="0.5" stroke="#000000" stroke-opacity="0.5" stroke-width="3.2"/>
<circle clip-path="url(#clip812)" cx="1594.04" cy="1021.54" r="14.4" fill="#009af9" fill-rule="evenodd" fill-opacity="0.5" stroke="#000000" stroke-opacity="0.5" stroke-width="3.2"/>
<circle clip-path="url(#clip812)" cx="1249.84" cy="1445.72" r="14.4" fill="#009af9" fill-rule="evenodd" fill-opacity="0.5" stroke="#000000" stroke-opacity="0.5" stroke-width="3.2"/>
<circle clip-path="url(#clip812)" cx="539.136" cy="850.013" r="14.4" fill="#009af9" fill-rule="evenodd" fill-opacity="0.5" stroke="#000000" stroke-opacity="0.5" stroke-width="3.2"/>
<circle clip-path="url(#clip812)" cx="2090.47" cy="916.253" r="14.4" fill="#009af9" fill-rule="evenodd" fill-opacity="0.5" stroke="#000000" stroke-opacity="0.5" stroke-width="3.2"/>
<circle clip-path="url(#clip812)" cx="1184.33" cy="787.148" r="14.4" fill="#009af9" fill-rule="evenodd" fill-opacity="0.5" stroke="#000000" stroke-opacity="0.5" stroke-width="3.2"/>
<path clip-path="url(#clip812)" d="M209.891 698.371 L1249.84 1445.72 L1921.84 1126.09 L2249.42 727.507 L2290.34 229.948 L1266.12 87.9763 L209.891 698.371 L209.891 698.371  Z" fill="#e26f46" fill-rule="evenodd" fill-opacity="0.2"/>
<polyline clip-path="url(#clip812)" style="stroke:#000000; stroke-linecap:round; stroke-linejoin:round; stroke-width:4; stroke-opacity:0.2; fill:none" points="209.891,698.371 1249.84,1445.72 1921.84,1126.09 2249.42,727.507 2290.34,229.948 1266.12,87.9763 209.891,698.371 "/>
</svg>
