<?xml version="1.0" encoding="utf-8"?>
<svg xmlns="http://www.w3.org/2000/svg" xmlns:xlink="http://www.w3.org/1999/xlink" width="600" height="400" viewBox="0 0 2400 1600">
<defs>
  <clipPath id="clip650">
    <rect x="0" y="0" width="2400" height="1600"/>
  </clipPath>
</defs>
<path clip-path="url(#clip650)" d="M0 1600 L2400 1600 L2400 0 L0 0  Z" fill="#ffffff" fill-rule="evenodd" fill-opacity="1"/>
<defs>
  <clipPath id="clip651">
    <rect x="480" y="0" width="1681" height="1600"/>
  </clipPath>
</defs>
<path clip-path="url(#clip650)" d="M147.478 1486.45 L2352.76 1486.45 L2352.76 47.2441 L147.478 47.2441  Z" fill="#ffffff" fill-rule="evenodd" fill-opacity="1"/>
<defs>
  <clipPath id="clip652">
    <rect x="147" y="47" width="2206" height="1440"/>
  </clipPath>
</defs>
<polyline clip-path="url(#clip652)" style="stroke:#000000; stroke-linecap:round; stroke-linejoin:round; stroke-width:2; stroke-opacity:0.1; fill:none" points="160.335,1486.45 160.335,47.2441 "/>
<polyline clip-path="url(#clip652)" style="stroke:#000000; stroke-linecap:round; stroke-linejoin:round; stroke-width:2; stroke-opacity:0.1; fill:none" points="582.393,1486.45 582.393,47.2441 "/>
<polyline clip-path="url(#clip652)" style="stroke:#000000; stroke-linecap:round; stroke-linejoin:round; stroke-width:2; stroke-opacity:0.1; fill:none" points="1004.45,1486.45 1004.45,47.2441 "/>
<polyline clip-path="url(#clip652)" style="stroke:#000000; stroke-linecap:round; stroke-linejoin:round; stroke-width:2; stroke-opacity:0.1; fill:none" points="1426.51,1486.45 1426.51,47.2441 "/>
<polyline clip-path="url(#clip652)" style="stroke:#000000; stroke-linecap:round; stroke-linejoin:round; stroke-width:2; stroke-opacity:0.1; fill:none" points="1848.57,1486.45 1848.57,47.2441 "/>
<polyline clip-path="url(#clip652)" style="stroke:#000000; stroke-linecap:round; stroke-linejoin:round; stroke-width:2; stroke-opacity:0.1; fill:none" points="2270.62,1486.45 2270.62,47.2441 "/>
<polyline clip-path="url(#clip652)" style="stroke:#000000; stroke-linecap:round; stroke-linejoin:round; stroke-width:2; stroke-opacity:0.1; fill:none" points="147.478,1404.23 2352.76,1404.23 "/>
<polyline clip-path="url(#clip652)" style="stroke:#000000; stroke-linecap:round; stroke-linejoin:round; stroke-width:2; stroke-opacity:0.1; fill:none" points="147.478,1104.4 2352.76,1104.4 "/>
<polyline clip-path="url(#clip652)" style="stroke:#000000; stroke-linecap:round; stroke-linejoin:round; stroke-width:2; stroke-opacity:0.1; fill:none" points="147.478,804.577 2352.76,804.577 "/>
<polyline clip-path="url(#clip652)" style="stroke:#000000; stroke-linecap:round; stroke-linejoin:round; stroke-width:2; stroke-opacity:0.1; fill:none" points="147.478,504.75 2352.76,504.75 "/>
<polyline clip-path="url(#clip652)" style="stroke:#000000; stroke-linecap:round; stroke-linejoin:round; stroke-width:2; stroke-opacity:0.1; fill:none" points="147.478,204.923 2352.76,204.923 "/>
<polyline clip-path="url(#clip650)" style="stroke:#000000; stroke-linecap:round; stroke-linejoin:round; stroke-width:4; stroke-opacity:1; fill:none" points="147.478,1486.45 2352.76,1486.45 "/>
<polyline clip-path="url(#clip650)" style="stroke:#000000; stroke-linecap:round; stroke-linejoin:round; stroke-width:4; stroke-opacity:1; fill:none" points="160.335,1486.45 160.335,1467.55 "/>
<polyline clip-path="url(#clip650)" style="stroke:#000000; stroke-linecap:round; stroke-linejoin:round; stroke-width:4; stroke-opacity:1; fill:none" points="582.393,1486.45 582.393,1467.55 "/>
<polyline clip-path="url(#clip650)" style="stroke:#000000; stroke-linecap:round; stroke-linejoin:round; stroke-width:4; stroke-opacity:1; fill:none" points="1004.45,1486.45 1004.45,1467.55 "/>
<polyline clip-path="url(#clip650)" style="stroke:#000000; stroke-linecap:round; stroke-linejoin:round; stroke-width:4; stroke-opacity:1; fill:none" points="1426.51,1486.45 1426.51,1467.55 "/>
<polyline clip-path="url(#clip650)" style="stroke:#000000; stroke-linecap:round; stroke-linejoin:round; stroke-width:4; stroke-opacity:1; fill:none" points="1848.57,1486.45 1848.57,1467.55 "/>
<polyline clip-path="url(#clip650)" style="stroke:#000000; stroke-linecap:round; stroke-linejoin:round; stroke-width:4; stroke-opacity:1; fill:none" points="2270.62,1486.45 2270.62,1467.55 "/>
<path clip-path="url(#clip650)" d="M129.803 1532.02 L159.479 1532.02 L159.479 1535.95 L129.803 1535.95 L129.803 1532.02 Z" fill="#000000" fill-rule="nonzero" fill-opacity="1" /><path clip-path="url(#clip650)" d="M183.738 1530.21 Q187.094 1530.93 188.969 1533.2 Q190.867 1535.47 190.867 1538.8 Q190.867 1543.92 187.349 1546.72 Q183.83 1549.52 177.349 1549.52 Q175.173 1549.52 172.858 1549.08 Q170.566 1548.66 168.113 1547.81 L168.113 1543.29 Q170.057 1544.43 172.372 1545.01 Q174.687 1545.58 177.21 1545.58 Q181.608 1545.58 183.9 1543.85 Q186.215 1542.11 186.215 1538.8 Q186.215 1535.75 184.062 1534.03 Q181.932 1532.3 178.113 1532.3 L174.085 1532.3 L174.085 1528.45 L178.298 1528.45 Q181.747 1528.45 183.576 1527.09 Q185.404 1525.7 185.404 1523.11 Q185.404 1520.45 183.506 1519.03 Q181.631 1517.6 178.113 1517.6 Q176.191 1517.6 173.992 1518.01 Q171.793 1518.43 169.154 1519.31 L169.154 1515.14 Q171.816 1514.4 174.131 1514.03 Q176.469 1513.66 178.529 1513.66 Q183.853 1513.66 186.955 1516.09 Q190.057 1518.5 190.057 1522.62 Q190.057 1525.49 188.414 1527.48 Q186.77 1529.45 183.738 1530.21 Z" fill="#000000" fill-rule="nonzero" fill-opacity="1" /><path clip-path="url(#clip650)" d="M552.335 1532.02 L582.011 1532.02 L582.011 1535.95 L552.335 1535.95 L552.335 1532.02 Z" fill="#000000" fill-rule="nonzero" fill-opacity="1" /><path clip-path="url(#clip650)" d="M596.131 1544.91 L612.45 1544.91 L612.45 1548.85 L590.506 1548.85 L590.506 1544.91 Q593.168 1542.16 597.751 1537.53 Q602.358 1532.88 603.538 1531.53 Q605.784 1529.01 606.663 1527.27 Q607.566 1525.51 607.566 1523.82 Q607.566 1521.07 605.622 1519.33 Q603.7 1517.6 600.599 1517.6 Q598.399 1517.6 595.946 1518.36 Q593.515 1519.13 590.737 1520.68 L590.737 1515.95 Q593.562 1514.82 596.015 1514.24 Q598.469 1513.66 600.506 1513.66 Q605.876 1513.66 609.071 1516.35 Q612.265 1519.03 612.265 1523.52 Q612.265 1525.65 611.455 1527.57 Q610.668 1529.47 608.561 1532.07 Q607.983 1532.74 604.881 1535.95 Q601.779 1539.15 596.131 1544.91 Z" fill="#000000" fill-rule="nonzero" fill-opacity="1" /><path clip-path="url(#clip650)" d="M974.207 1532.02 L1003.88 1532.02 L1003.88 1535.95 L974.207 1535.95 L974.207 1532.02 Z" fill="#000000" fill-rule="nonzero" fill-opacity="1" /><path clip-path="url(#clip650)" d="M1014.79 1544.91 L1022.42 1544.91 L1022.42 1518.55 L1014.11 1520.21 L1014.11 1515.95 L1022.38 1514.29 L1027.05 1514.29 L1027.05 1544.91 L1034.69 1544.91 L1034.69 1548.85 L1014.79 1548.85 L1014.79 1544.91 Z" fill="#000000" fill-rule="nonzero" fill-opacity="1" /><path clip-path="url(#clip650)" d="M1426.51 1517.37 Q1422.9 1517.37 1421.07 1520.93 Q1419.26 1524.47 1419.26 1531.6 Q1419.26 1538.71 1421.07 1542.27 Q1422.9 1545.82 1426.51 1545.82 Q1430.14 1545.82 1431.95 1542.27 Q1433.78 1538.71 1433.78 1531.6 Q1433.78 1524.47 1431.95 1520.93 Q1430.14 1517.37 1426.51 1517.37 M1426.51 1513.66 Q1432.32 1513.66 1435.37 1518.27 Q1438.45 1522.85 1438.45 1531.6 Q1438.45 1540.33 1435.37 1544.94 Q1432.32 1549.52 1426.51 1549.52 Q1420.7 1549.52 1417.62 1544.94 Q1414.56 1540.33 1414.56 1531.6 Q1414.56 1522.85 1417.62 1518.27 Q1420.7 1513.66 1426.51 1513.66 Z" fill="#000000" fill-rule="nonzero" fill-opacity="1" /><path clip-path="url(#clip650)" d="M1838.95 1544.91 L1846.59 1544.91 L1846.59 1518.55 L1838.28 1520.21 L1838.28 1515.95 L1846.54 1514.29 L1851.22 1514.29 L1851.22 1544.91 L1858.85 1544.91 L1858.85 1548.85 L1838.95 1548.85 L1838.95 1544.91 Z" fill="#000000" fill-rule="nonzero" fill-opacity="1" /><path clip-path="url(#clip650)" d="M2265.28 1544.91 L2281.59 1544.91 L2281.59 1548.85 L2259.65 1548.85 L2259.65 1544.91 Q2262.31 1542.16 2266.9 1537.53 Q2271.5 1532.88 2272.68 1531.53 Q2274.93 1529.01 2275.81 1527.27 Q2276.71 1525.51 2276.71 1523.82 Q2276.71 1521.07 2274.77 1519.33 Q2272.84 1517.6 2269.74 1517.6 Q2267.54 1517.6 2265.09 1518.36 Q2262.66 1519.13 2259.88 1520.68 L2259.88 1515.95 Q2262.71 1514.82 2265.16 1514.24 Q2267.61 1513.66 2269.65 1513.66 Q2275.02 1513.66 2278.22 1516.35 Q2281.41 1519.03 2281.41 1523.52 Q2281.41 1525.65 2280.6 1527.57 Q2279.81 1529.47 2277.71 1532.07 Q2277.13 1532.74 2274.03 1535.95 Q2270.92 1539.15 2265.28 1544.91 Z" fill="#000000" fill-rule="nonzero" fill-opacity="1" /><polyline clip-path="url(#clip650)" style="stroke:#000000; stroke-linecap:round; stroke-linejoin:round; stroke-width:4; stroke-opacity:1; fill:none" points="147.478,1486.45 147.478,47.2441 "/>
<polyline clip-path="url(#clip650)" style="stroke:#000000; stroke-linecap:round; stroke-linejoin:round; stroke-width:4; stroke-opacity:1; fill:none" points="147.478,1404.23 166.376,1404.23 "/>
<polyline clip-path="url(#clip650)" style="stroke:#000000; stroke-linecap:round; stroke-linejoin:round; stroke-width:4; stroke-opacity:1; fill:none" points="147.478,1104.4 166.376,1104.4 "/>
<polyline clip-path="url(#clip650)" style="stroke:#000000; stroke-linecap:round; stroke-linejoin:round; stroke-width:4; stroke-opacity:1; fill:none" points="147.478,804.577 166.376,804.577 "/>
<polyline clip-path="url(#clip650)" style="stroke:#000000; stroke-linecap:round; stroke-linejoin:round; stroke-width:4; stroke-opacity:1; fill:none" points="147.478,504.75 166.376,504.75 "/>
<polyline clip-path="url(#clip650)" style="stroke:#000000; stroke-linecap:round; stroke-linejoin:round; stroke-width:4; stroke-opacity:1; fill:none" points="147.478,204.923 166.376,204.923 "/>
<path clip-path="url(#clip650)" d="M51.3625 1404.68 L81.0383 1404.68 L81.0383 1408.62 L51.3625 1408.62 L51.3625 1404.68 Z" fill="#000000" fill-rule="nonzero" fill-opacity="1" /><path clip-path="url(#clip650)" d="M95.1586 1417.58 L111.478 1417.58 L111.478 1421.51 L89.5336 1421.51 L89.5336 1417.58 Q92.1956 1414.82 96.7789 1410.19 Q101.385 1405.54 102.566 1404.2 Q104.811 1401.67 105.691 1399.94 Q106.594 1398.18 106.594 1396.49 Q106.594 1393.73 104.649 1392 Q102.728 1390.26 99.6261 1390.26 Q97.4271 1390.26 94.9734 1391.03 Q92.5428 1391.79 89.7651 1393.34 L89.7651 1388.62 Q92.5891 1387.48 95.0428 1386.91 Q97.4965 1386.33 99.5335 1386.33 Q104.904 1386.33 108.098 1389.01 Q111.293 1391.7 111.293 1396.19 Q111.293 1398.32 110.483 1400.24 Q109.696 1402.14 107.589 1404.73 Q107.01 1405.4 103.909 1408.62 Q100.807 1411.81 95.1586 1417.58 Z" fill="#000000" fill-rule="nonzero" fill-opacity="1" /><path clip-path="url(#clip650)" d="M50.9921 1104.86 L80.6679 1104.86 L80.6679 1108.79 L50.9921 1108.79 L50.9921 1104.86 Z" fill="#000000" fill-rule="nonzero" fill-opacity="1" /><path clip-path="url(#clip650)" d="M91.5706 1117.75 L99.2095 1117.75 L99.2095 1091.38 L90.8993 1093.05 L90.8993 1088.79 L99.1632 1087.12 L103.839 1087.12 L103.839 1117.75 L111.478 1117.75 L111.478 1121.68 L91.5706 1121.68 L91.5706 1117.75 Z" fill="#000000" fill-rule="nonzero" fill-opacity="1" /><path clip-path="url(#clip650)" d="M99.5335 790.376 Q95.9224 790.376 94.0937 793.941 Q92.2882 797.482 92.2882 804.612 Q92.2882 811.718 94.0937 815.283 Q95.9224 818.825 99.5335 818.825 Q103.168 818.825 104.973 815.283 Q106.802 811.718 106.802 804.612 Q106.802 797.482 104.973 793.941 Q103.168 790.376 99.5335 790.376 M99.5335 786.672 Q105.344 786.672 108.399 791.279 Q111.478 795.862 111.478 804.612 Q111.478 813.339 108.399 817.945 Q105.344 822.528 99.5335 822.528 Q93.7234 822.528 90.6447 817.945 Q87.5892 813.339 87.5892 804.612 Q87.5892 795.862 90.6447 791.279 Q93.7234 786.672 99.5335 786.672 Z" fill="#000000" fill-rule="nonzero" fill-opacity="1" /><path clip-path="url(#clip650)" d="M91.5706 518.095 L99.2095 518.095 L99.2095 491.729 L90.8993 493.396 L90.8993 489.137 L99.1632 487.47 L103.839 487.47 L103.839 518.095 L111.478 518.095 L111.478 522.03 L91.5706 522.03 L91.5706 518.095 Z" fill="#000000" fill-rule="nonzero" fill-opacity="1" /><path clip-path="url(#clip650)" d="M95.1586 218.267 L111.478 218.267 L111.478 222.203 L89.5336 222.203 L89.5336 218.267 Q92.1956 215.513 96.7789 210.883 Q101.385 206.231 102.566 204.888 Q104.811 202.365 105.691 200.629 Q106.594 198.869 106.594 197.18 Q106.594 194.425 104.649 192.689 Q102.728 190.953 99.6261 190.953 Q97.4271 190.953 94.9734 191.717 Q92.5428 192.481 89.7651 194.032 L89.7651 189.309 Q92.5891 188.175 95.0428 187.596 Q97.4965 187.018 99.5335 187.018 Q104.904 187.018 108.098 189.703 Q111.293 192.388 111.293 196.879 Q111.293 199.008 110.483 200.93 Q109.696 202.828 107.589 205.42 Q107.01 206.092 103.909 209.309 Q100.807 212.504 95.1586 218.267 Z" fill="#000000" fill-rule="nonzero" fill-opacity="1" /><circle clip-path="url(#clip652)" cx="1284.75" cy="1090.43" r="14.4" fill="#009af9" fill-rule="evenodd" fill-opacity="0.5" stroke="#000000" stroke-opacity="0.5" stroke-width="3.2"/>
<circle clip-path="url(#clip652)" cx="1213.99" cy="929.778" r="14.4" fill="#009af9" fill-rule="evenodd" fill-opacity="0.5" stroke="#000000" stroke-opacity="0.5" stroke-width="3.2"/>
<circle clip-path="url(#clip652)" cx="1292.64" cy="515.275" r="14.4" fill="#009af9" fill-rule="evenodd" fill-opacity="0.5" stroke="#000000" stroke-opacity="0.5" stroke-width="3.2"/>
<circle clip-path="url(#clip652)" cx="2290.34" cy="668.675" r="14.4" fill="#009af9" fill-rule="evenodd" fill-opacity="0.5" stroke="#000000" stroke-opacity="0.5" stroke-width="3.2"/>
<circle clip-path="url(#clip652)" cx="209.891" cy="729.866" r="14.4" fill="#009af9" fill-rule="evenodd" fill-opacity="0.5" stroke="#000000" stroke-opacity="0.5" stroke-width="3.2"/>
<circle clip-path="url(#clip652)" cx="705.858" cy="406.006" r="14.4" fill="#009af9" fill-rule="evenodd" fill-opacity="0.5" stroke="#000000" stroke-opacity="0.5" stroke-width="3.2"/>
<circle clip-path="url(#clip652)" cx="1834.25" cy="87.9763" r="14.4" fill="#009af9" fill-rule="evenodd" fill-opacity="0.5" stroke="#000000" stroke-opacity="0.5" stroke-width="3.2"/>
<circle clip-path="url(#clip652)" cx="1158.22" cy="763.122" r="14.4" fill="#009af9" fill-rule="evenodd" fill-opacity="0.5" stroke="#000000" stroke-opacity="0.5" stroke-width="3.2"/>
<circle clip-path="url(#clip652)" cx="1147.84" cy="1155.7" r="14.4" fill="#009af9" fill-rule="evenodd" fill-opacity="0.5" stroke="#000000" stroke-opacity="0.5" stroke-width="3.2"/>
<circle clip-path="url(#clip652)" cx="789.311" cy="1154.92" r="14.4" fill="#009af9" fill-rule="evenodd" fill-opacity="0.5" stroke="#000000" stroke-opacity="0.5" stroke-width="3.2"/>
<circle clip-path="url(#clip652)" cx="1949.03" cy="1349.08" r="14.4" fill="#009af9" fill-rule="evenodd" fill-opacity="0.5" stroke="#000000" stroke-opacity="0.5" stroke-width="3.2"/>
<circle clip-path="url(#clip652)" cx="809.156" cy="1066.98" r="14.4" fill="#009af9" fill-rule="evenodd" fill-opacity="0.5" stroke="#000000" stroke-opacity="0.5" stroke-width="3.2"/>
<circle clip-path="url(#clip652)" cx="621.242" cy="599.998" r="14.4" fill="#009af9" fill-rule="evenodd" fill-opacity="0.5" stroke="#000000" stroke-opacity="0.5" stroke-width="3.2"/>
<circle clip-path="url(#clip652)" cx="1081" cy="356.634" r="14.4" fill="#009af9" fill-rule="evenodd" fill-opacity="0.5" stroke="#000000" stroke-opacity="0.5" stroke-width="3.2"/>
<circle clip-path="url(#clip652)" cx="1476.88" cy="742.081" r="14.4" fill="#009af9" fill-rule="evenodd" fill-opacity="0.5" stroke="#000000" stroke-opacity="0.5" stroke-width="3.2"/>
<circle clip-path="url(#clip652)" cx="1431.75" cy="1073.3" r="14.4" fill="#009af9" fill-rule="evenodd" fill-opacity="0.5" stroke="#000000" stroke-opacity="0.5" stroke-width="3.2"/>
<circle clip-path="url(#clip652)" cx="1356.78" cy="1102.28" r="14.4" fill="#009af9" fill-rule="evenodd" fill-opacity="0.5" stroke="#000000" stroke-opacity="0.5" stroke-width="3.2"/>
<circle clip-path="url(#clip652)" cx="1252.33" cy="939.843" r="14.4" fill="#009af9" fill-rule="evenodd" fill-opacity="0.5" stroke="#000000" stroke-opacity="0.5" stroke-width="3.2"/>
<circle clip-path="url(#clip652)" cx="1039.55" cy="942.172" r="14.4" fill="#009af9" fill-rule="evenodd" fill-opacity="0.5" stroke="#000000" stroke-opacity="0.5" stroke-width="3.2"/>
<circle clip-path="url(#clip652)" cx="1001.87" cy="1059.01" r="14.4" fill="#009af9" fill-rule="evenodd" fill-opacity="0.5" stroke="#000000" stroke-opacity="0.5" stroke-width="3.2"/>
<circle clip-path="url(#clip652)" cx="1812.85" cy="712.719" r="14.4" fill="#009af9" fill-rule="evenodd" fill-opacity="0.5" stroke="#000000" stroke-opacity="0.5" stroke-width="3.2"/>
<circle clip-path="url(#clip652)" cx="1233.62" cy="757.933" r="14.4" fill="#009af9" fill-rule="evenodd" fill-opacity="0.5" stroke="#000000" stroke-opacity="0.5" stroke-width="3.2"/>
<circle clip-path="url(#clip652)" cx="959.656" cy="829.464" r="14.4" fill="#009af9" fill-rule="evenodd" fill-opacity="0.5" stroke="#000000" stroke-opacity="0.5" stroke-width="3.2"/>
<circle clip-path="url(#clip652)" cx="1842.99" cy="1445.72" r="14.4" fill="#009af9" fill-rule="evenodd" fill-opacity="0.5" stroke="#000000" stroke-opacity="0.5" stroke-width="3.2"/>
<circle clip-path="url(#clip652)" cx="1039.44" cy="655.489" r="14.4" fill="#009af9" fill-rule="evenodd" fill-opacity="0.5" stroke="#000000" stroke-opacity="0.5" stroke-width="3.2"/>
<circle clip-path="url(#clip652)" cx="1532.52" cy="1264.77" r="14.4" fill="#009af9" fill-rule="evenodd" fill-opacity="0.5" stroke="#000000" stroke-opacity="0.5" stroke-width="3.2"/>
<circle clip-path="url(#clip652)" cx="2154.24" cy="1251.97" r="14.4" fill="#009af9" fill-rule="evenodd" fill-opacity="0.5" stroke="#000000" stroke-opacity="0.5" stroke-width="3.2"/>
<circle clip-path="url(#clip652)" cx="1096.55" cy="408.508" r="14.4" fill="#009af9" fill-rule="evenodd" fill-opacity="0.5" stroke="#000000" stroke-opacity="0.5" stroke-width="3.2"/>
<circle clip-path="url(#clip652)" cx="1064.7" cy="542.774" r="14.4" fill="#009af9" fill-rule="evenodd" fill-opacity="0.5" stroke="#000000" stroke-opacity="0.5" stroke-width="3.2"/>
<circle clip-path="url(#clip652)" cx="1959.09" cy="1203.09" r="14.4" fill="#009af9" fill-rule="evenodd" fill-opacity="0.5" stroke="#000000" stroke-opacity="0.5" stroke-width="3.2"/>
<path clip-path="url(#clip652)" d="M209.891 729.866 L789.311 1154.92 L1842.99 1445.72 L2154.24 1251.97 L2290.34 668.675 L1834.25 87.9763 L705.858 406.006 L209.891 729.866 L209.891 729.866  Z" fill="#e26f46" fill-rule="evenodd" fill-opacity="0.2"/>
<polyline clip-path="url(#clip652)" style="stroke:#000000; stroke-linecap:round; stroke-linejoin:round; stroke-width:4; stroke-opacity:0.2; fill:none" points="209.891,729.866 789.311,1154.92 1842.99,1445.72 2154.24,1251.97 2290.34,668.675 1834.25,87.9763 705.858,406.006 209.891,729.866 "/>
</svg>
