<?xml version="1.0" encoding="utf-8"?>
<svg xmlns="http://www.w3.org/2000/svg" xmlns:xlink="http://www.w3.org/1999/xlink" width="600" height="400" viewBox="0 0 2400 1600">
<defs>
  <clipPath id="clip640">
    <rect x="0" y="0" width="2400" height="1600"/>
  </clipPath>
</defs>
<path clip-path="url(#clip640)" d="M0 1600 L2400 1600 L2400 0 L0 0  Z" fill="#ffffff" fill-rule="evenodd" fill-opacity="1"/>
<defs>
  <clipPath id="clip641">
    <rect x="480" y="0" width="1681" height="1600"/>
  </clipPath>
</defs>
<path clip-path="url(#clip640)" d="M149.191 1486.45 L2352.76 1486.45 L2352.76 47.2441 L149.191 47.2441  Z" fill="#ffffff" fill-rule="evenodd" fill-opacity="1"/>
<defs>
  <clipPath id="clip642">
    <rect x="149" y="47" width="2205" height="1440"/>
  </clipPath>
</defs>
<polyline clip-path="url(#clip642)" style="stroke:#000000; stroke-linecap:round; stroke-linejoin:round; stroke-width:2; stroke-opacity:0.1; fill:none" points="381.396,1486.45 381.396,47.2441 "/>
<polyline clip-path="url(#clip642)" style="stroke:#000000; stroke-linecap:round; stroke-linejoin:round; stroke-width:2; stroke-opacity:0.1; fill:none" points="1021.09,1486.45 1021.09,47.2441 "/>
<polyline clip-path="url(#clip642)" style="stroke:#000000; stroke-linecap:round; stroke-linejoin:round; stroke-width:2; stroke-opacity:0.1; fill:none" points="1660.78,1486.45 1660.78,47.2441 "/>
<polyline clip-path="url(#clip642)" style="stroke:#000000; stroke-linecap:round; stroke-linejoin:round; stroke-width:2; stroke-opacity:0.1; fill:none" points="2300.48,1486.45 2300.48,47.2441 "/>
<polyline clip-path="url(#clip642)" style="stroke:#000000; stroke-linecap:round; stroke-linejoin:round; stroke-width:2; stroke-opacity:0.1; fill:none" points="149.191,1448.48 2352.76,1448.48 "/>
<polyline clip-path="url(#clip642)" style="stroke:#000000; stroke-linecap:round; stroke-linejoin:round; stroke-width:2; stroke-opacity:0.1; fill:none" points="149.191,1232.86 2352.76,1232.86 "/>
<polyline clip-path="url(#clip642)" style="stroke:#000000; stroke-linecap:round; stroke-linejoin:round; stroke-width:2; stroke-opacity:0.1; fill:none" points="149.191,1017.24 2352.76,1017.24 "/>
<polyline clip-path="url(#clip642)" style="stroke:#000000; stroke-linecap:round; stroke-linejoin:round; stroke-width:2; stroke-opacity:0.1; fill:none" points="149.191,801.627 2352.76,801.627 "/>
<polyline clip-path="url(#clip642)" style="stroke:#000000; stroke-linecap:round; stroke-linejoin:round; stroke-width:2; stroke-opacity:0.1; fill:none" points="149.191,586.009 2352.76,586.009 "/>
<polyline clip-path="url(#clip642)" style="stroke:#000000; stroke-linecap:round; stroke-linejoin:round; stroke-width:2; stroke-opacity:0.1; fill:none" points="149.191,370.392 2352.76,370.392 "/>
<polyline clip-path="url(#clip642)" style="stroke:#000000; stroke-linecap:round; stroke-linejoin:round; stroke-width:2; stroke-opacity:0.1; fill:none" points="149.191,154.774 2352.76,154.774 "/>
<polyline clip-path="url(#clip640)" style="stroke:#000000; stroke-linecap:round; stroke-linejoin:round; stroke-width:4; stroke-opacity:1; fill:none" points="149.191,1486.45 2352.76,1486.45 "/>
<polyline clip-path="url(#clip640)" style="stroke:#000000; stroke-linecap:round; stroke-linejoin:round; stroke-width:4; stroke-opacity:1; fill:none" points="381.396,1486.45 381.396,1467.55 "/>
<polyline clip-path="url(#clip640)" style="stroke:#000000; stroke-linecap:round; stroke-linejoin:round; stroke-width:4; stroke-opacity:1; fill:none" points="1021.09,1486.45 1021.09,1467.55 "/>
<polyline clip-path="url(#clip640)" style="stroke:#000000; stroke-linecap:round; stroke-linejoin:round; stroke-width:4; stroke-opacity:1; fill:none" points="1660.78,1486.45 1660.78,1467.55 "/>
<polyline clip-path="url(#clip640)" style="stroke:#000000; stroke-linecap:round; stroke-linejoin:round; stroke-width:4; stroke-opacity:1; fill:none" points="2300.48,1486.45 2300.48,1467.55 "/>
<path clip-path="url(#clip640)" d="M351.153 1532.02 L380.829 1532.02 L380.829 1535.95 L351.153 1535.95 L351.153 1532.02 Z" fill="#000000" fill-rule="nonzero" fill-opacity="1" /><path clip-path="url(#clip640)" d="M391.732 1544.91 L399.371 1544.91 L399.371 1518.55 L391.061 1520.21 L391.061 1515.95 L399.324 1514.29 L404 1514.29 L404 1544.91 L411.639 1544.91 L411.639 1548.85 L391.732 1548.85 L391.732 1544.91 Z" fill="#000000" fill-rule="nonzero" fill-opacity="1" /><path clip-path="url(#clip640)" d="M1021.09 1517.37 Q1017.48 1517.37 1015.65 1520.93 Q1013.84 1524.47 1013.84 1531.6 Q1013.84 1538.71 1015.65 1542.27 Q1017.48 1545.82 1021.09 1545.82 Q1024.72 1545.82 1026.53 1542.27 Q1028.36 1538.71 1028.36 1531.6 Q1028.36 1524.47 1026.53 1520.93 Q1024.72 1517.37 1021.09 1517.37 M1021.09 1513.66 Q1026.9 1513.66 1029.96 1518.27 Q1033.03 1522.85 1033.03 1531.6 Q1033.03 1540.33 1029.96 1544.94 Q1026.9 1549.52 1021.09 1549.52 Q1015.28 1549.52 1012.2 1544.94 Q1009.15 1540.33 1009.15 1531.6 Q1009.15 1522.85 1012.2 1518.27 Q1015.28 1513.66 1021.09 1513.66 Z" fill="#000000" fill-rule="nonzero" fill-opacity="1" /><path clip-path="url(#clip640)" d="M1651.17 1544.91 L1658.8 1544.91 L1658.8 1518.55 L1650.49 1520.21 L1650.49 1515.95 L1658.76 1514.29 L1663.43 1514.29 L1663.43 1544.91 L1671.07 1544.91 L1671.07 1548.85 L1651.17 1548.85 L1651.17 1544.91 Z" fill="#000000" fill-rule="nonzero" fill-opacity="1" /><path clip-path="url(#clip640)" d="M2295.13 1544.91 L2311.45 1544.91 L2311.45 1548.85 L2289.51 1548.85 L2289.51 1544.91 Q2292.17 1542.16 2296.75 1537.53 Q2301.36 1532.88 2302.54 1531.53 Q2304.78 1529.01 2305.66 1527.27 Q2306.57 1525.51 2306.57 1523.82 Q2306.57 1521.07 2304.62 1519.33 Q2302.7 1517.6 2299.6 1517.6 Q2297.4 1517.6 2294.94 1518.36 Q2292.51 1519.13 2289.74 1520.68 L2289.74 1515.95 Q2292.56 1514.82 2295.01 1514.24 Q2297.47 1513.66 2299.51 1513.66 Q2304.88 1513.66 2308.07 1516.35 Q2311.26 1519.03 2311.26 1523.52 Q2311.26 1525.65 2310.45 1527.57 Q2309.67 1529.47 2307.56 1532.07 Q2306.98 1532.74 2303.88 1535.95 Q2300.78 1539.15 2295.13 1544.91 Z" fill="#000000" fill-rule="nonzero" fill-opacity="1" /><polyline clip-path="url(#clip640)" style="stroke:#000000; stroke-linecap:round; stroke-linejoin:round; stroke-width:4; stroke-opacity:1; fill:none" points="149.191,1486.45 149.191,47.2441 "/>
<polyline clip-path="url(#clip640)" style="stroke:#000000; stroke-linecap:round; stroke-linejoin:round; stroke-width:4; stroke-opacity:1; fill:none" points="149.191,1448.48 168.089,1448.48 "/>
<polyline clip-path="url(#clip640)" style="stroke:#000000; stroke-linecap:round; stroke-linejoin:round; stroke-width:4; stroke-opacity:1; fill:none" points="149.191,1232.86 168.089,1232.86 "/>
<polyline clip-path="url(#clip640)" style="stroke:#000000; stroke-linecap:round; stroke-linejoin:round; stroke-width:4; stroke-opacity:1; fill:none" points="149.191,1017.24 168.089,1017.24 "/>
<polyline clip-path="url(#clip640)" style="stroke:#000000; stroke-linecap:round; stroke-linejoin:round; stroke-width:4; stroke-opacity:1; fill:none" points="149.191,801.627 168.089,801.627 "/>
<polyline clip-path="url(#clip640)" style="stroke:#000000; stroke-linecap:round; stroke-linejoin:round; stroke-width:4; stroke-opacity:1; fill:none" points="149.191,586.009 168.089,586.009 "/>
<polyline clip-path="url(#clip640)" style="stroke:#000000; stroke-linecap:round; stroke-linejoin:round; stroke-width:4; stroke-opacity:1; fill:none" points="149.191,370.392 168.089,370.392 "/>
<polyline clip-path="url(#clip640)" style="stroke:#000000; stroke-linecap:round; stroke-linejoin:round; stroke-width:4; stroke-opacity:1; fill:none" points="149.191,154.774 168.089,154.774 "/>
<path clip-path="url(#clip640)" d="M50.9921 1448.93 L80.6679 1448.93 L80.6679 1452.87 L50.9921 1452.87 L50.9921 1448.93 Z" fill="#000000" fill-rule="nonzero" fill-opacity="1" /><path clip-path="url(#clip640)" d="M103.608 1435.27 L91.8021 1453.72 L103.608 1453.72 L103.608 1435.27 M102.381 1431.2 L108.26 1431.2 L108.26 1453.72 L113.191 1453.72 L113.191 1457.61 L108.26 1457.61 L108.26 1465.76 L103.608 1465.76 L103.608 1457.61 L88.0058 1457.61 L88.0058 1453.1 L102.381 1431.2 Z" fill="#000000" fill-rule="nonzero" fill-opacity="1" /><path clip-path="url(#clip640)" d="M52.1264 1233.31 L81.8021 1233.31 L81.8021 1237.25 L52.1264 1237.25 L52.1264 1233.31 Z" fill="#000000" fill-rule="nonzero" fill-opacity="1" /><path clip-path="url(#clip640)" d="M106.061 1231.51 Q109.418 1232.23 111.293 1234.49 Q113.191 1236.76 113.191 1240.1 Q113.191 1245.21 109.672 1248.01 Q106.154 1250.81 99.6724 1250.81 Q97.4965 1250.81 95.1817 1250.37 Q92.89 1249.96 90.4364 1249.1 L90.4364 1244.59 Q92.3808 1245.72 94.6956 1246.3 Q97.0104 1246.88 99.5335 1246.88 Q103.932 1246.88 106.223 1245.14 Q108.538 1243.41 108.538 1240.1 Q108.538 1237.04 106.385 1235.33 Q104.256 1233.59 100.436 1233.59 L96.4085 1233.59 L96.4085 1229.75 L100.621 1229.75 Q104.071 1229.75 105.899 1228.38 Q107.728 1226.99 107.728 1224.4 Q107.728 1221.74 105.83 1220.33 Q103.955 1218.89 100.436 1218.89 Q98.515 1218.89 96.316 1219.31 Q94.1169 1219.73 91.478 1220.61 L91.478 1216.44 Q94.14 1215.7 96.4548 1215.33 Q98.7928 1214.96 100.853 1214.96 Q106.177 1214.96 109.279 1217.39 Q112.381 1219.8 112.381 1223.92 Q112.381 1226.79 110.737 1228.78 Q109.094 1230.74 106.061 1231.51 Z" fill="#000000" fill-rule="nonzero" fill-opacity="1" /><path clip-path="url(#clip640)" d="M53.0754 1017.7 L82.7512 1017.7 L82.7512 1021.63 L53.0754 1021.63 L53.0754 1017.7 Z" fill="#000000" fill-rule="nonzero" fill-opacity="1" /><path clip-path="url(#clip640)" d="M96.8715 1030.59 L113.191 1030.59 L113.191 1034.52 L91.2465 1034.52 L91.2465 1030.59 Q93.9086 1027.83 98.4919 1023.21 Q103.098 1018.55 104.279 1017.21 Q106.524 1014.69 107.404 1012.95 Q108.307 1011.19 108.307 1009.5 Q108.307 1006.75 106.362 1005.01 Q104.441 1003.27 101.339 1003.27 Q99.14 1003.27 96.6863 1004.04 Q94.2558 1004.8 91.478 1006.35 L91.478 1001.63 Q94.3021 1000.5 96.7558 999.918 Q99.2095 999.34 101.246 999.34 Q106.617 999.34 109.811 1002.02 Q113.006 1004.71 113.006 1009.2 Q113.006 1011.33 112.196 1013.25 Q111.408 1015.15 109.302 1017.74 Q108.723 1018.41 105.621 1021.63 Q102.52 1024.83 96.8715 1030.59 Z" fill="#000000" fill-rule="nonzero" fill-opacity="1" /><path clip-path="url(#clip640)" d="M52.7051 802.078 L82.3808 802.078 L82.3808 806.014 L52.7051 806.014 L52.7051 802.078 Z" fill="#000000" fill-rule="nonzero" fill-opacity="1" /><path clip-path="url(#clip640)" d="M93.2836 814.972 L100.922 814.972 L100.922 788.606 L92.6123 790.273 L92.6123 786.014 L100.876 784.347 L105.552 784.347 L105.552 814.972 L113.191 814.972 L113.191 818.907 L93.2836 818.907 L93.2836 814.972 Z" fill="#000000" fill-rule="nonzero" fill-opacity="1" /><path clip-path="url(#clip640)" d="M101.246 571.808 Q97.6354 571.808 95.8067 575.373 Q94.0012 578.915 94.0012 586.044 Q94.0012 593.151 95.8067 596.715 Q97.6354 600.257 101.246 600.257 Q104.881 600.257 106.686 596.715 Q108.515 593.151 108.515 586.044 Q108.515 578.915 106.686 575.373 Q104.881 571.808 101.246 571.808 M101.246 568.104 Q107.057 568.104 110.112 572.711 Q113.191 577.294 113.191 586.044 Q113.191 594.771 110.112 599.377 Q107.057 603.961 101.246 603.961 Q95.4363 603.961 92.3576 599.377 Q89.3021 594.771 89.3021 586.044 Q89.3021 577.294 92.3576 572.711 Q95.4363 568.104 101.246 568.104 Z" fill="#000000" fill-rule="nonzero" fill-opacity="1" /><path clip-path="url(#clip640)" d="M93.2836 383.737 L100.922 383.737 L100.922 357.371 L92.6123 359.038 L92.6123 354.779 L100.876 353.112 L105.552 353.112 L105.552 383.737 L113.191 383.737 L113.191 387.672 L93.2836 387.672 L93.2836 383.737 Z" fill="#000000" fill-rule="nonzero" fill-opacity="1" /><path clip-path="url(#clip640)" d="M96.8715 168.119 L113.191 168.119 L113.191 172.054 L91.2465 172.054 L91.2465 168.119 Q93.9086 165.365 98.4919 160.735 Q103.098 156.082 104.279 154.74 Q106.524 152.216 107.404 150.48 Q108.307 148.721 108.307 147.031 Q108.307 144.277 106.362 142.541 Q104.441 140.805 101.339 140.805 Q99.14 140.805 96.6863 141.568 Q94.2558 142.332 91.478 143.883 L91.478 139.161 Q94.3021 138.027 96.7558 137.448 Q99.2095 136.869 101.246 136.869 Q106.617 136.869 109.811 139.555 Q113.006 142.24 113.006 146.73 Q113.006 148.86 112.196 150.781 Q111.408 152.679 109.302 155.272 Q108.723 155.943 105.621 159.161 Q102.52 162.355 96.8715 168.119 Z" fill="#000000" fill-rule="nonzero" fill-opacity="1" /><circle clip-path="url(#clip642)" cx="2074.13" cy="526.089" r="14.4" fill="#009af9" fill-rule="evenodd" fill-opacity="0.5" stroke="#000000" stroke-opacity="0.5" stroke-width="3.2"/>
<circle clip-path="url(#clip642)" cx="2190.77" cy="444.411" r="14.4" fill="#009af9" fill-rule="evenodd" fill-opacity="0.5" stroke="#000000" stroke-opacity="0.5" stroke-width="3.2"/>
<circle clip-path="url(#clip642)" cx="2034.65" cy="478.585" r="14.4" fill="#009af9" fill-rule="evenodd" fill-opacity="0.5" stroke="#000000" stroke-opacity="0.5" stroke-width="3.2"/>
<circle clip-path="url(#clip642)" cx="1064.93" cy="424.004" r="14.4" fill="#009af9" fill-rule="evenodd" fill-opacity="0.5" stroke="#000000" stroke-opacity="0.5" stroke-width="3.2"/>
<circle clip-path="url(#clip642)" cx="861.525" cy="242.763" r="14.4" fill="#009af9" fill-rule="evenodd" fill-opacity="0.5" stroke="#000000" stroke-opacity="0.5" stroke-width="3.2"/>
<circle clip-path="url(#clip642)" cx="1987.13" cy="833.926" r="14.4" fill="#009af9" fill-rule="evenodd" fill-opacity="0.5" stroke="#000000" stroke-opacity="0.5" stroke-width="3.2"/>
<circle clip-path="url(#clip642)" cx="480.974" cy="607.675" r="14.4" fill="#009af9" fill-rule="evenodd" fill-opacity="0.5" stroke="#000000" stroke-opacity="0.5" stroke-width="3.2"/>
<circle clip-path="url(#clip642)" cx="446.746" cy="590.754" r="14.4" fill="#009af9" fill-rule="evenodd" fill-opacity="0.5" stroke="#000000" stroke-opacity="0.5" stroke-width="3.2"/>
<circle clip-path="url(#clip642)" cx="1359.45" cy="468.6" r="14.4" fill="#009af9" fill-rule="evenodd" fill-opacity="0.5" stroke="#000000" stroke-opacity="0.5" stroke-width="3.2"/>
<circle clip-path="url(#clip642)" cx="1091.87" cy="543.684" r="14.4" fill="#009af9" fill-rule="evenodd" fill-opacity="0.5" stroke="#000000" stroke-opacity="0.5" stroke-width="3.2"/>
<circle clip-path="url(#clip642)" cx="548.454" cy="498.741" r="14.4" fill="#009af9" fill-rule="evenodd" fill-opacity="0.5" stroke="#000000" stroke-opacity="0.5" stroke-width="3.2"/>
<circle clip-path="url(#clip642)" cx="841.451" cy="484.525" r="14.4" fill="#009af9" fill-rule="evenodd" fill-opacity="0.5" stroke="#000000" stroke-opacity="0.5" stroke-width="3.2"/>
<circle clip-path="url(#clip642)" cx="386.99" cy="1445.72" r="14.4" fill="#009af9" fill-rule="evenodd" fill-opacity="0.5" stroke="#000000" stroke-opacity="0.5" stroke-width="3.2"/>
<circle clip-path="url(#clip642)" cx="657.515" cy="386.948" r="14.4" fill="#009af9" fill-rule="evenodd" fill-opacity="0.5" stroke="#000000" stroke-opacity="0.5" stroke-width="3.2"/>
<circle clip-path="url(#clip642)" cx="1698.87" cy="87.9763" r="14.4" fill="#009af9" fill-rule="evenodd" fill-opacity="0.5" stroke="#000000" stroke-opacity="0.5" stroke-width="3.2"/>
<circle clip-path="url(#clip642)" cx="439.461" cy="702.818" r="14.4" fill="#009af9" fill-rule="evenodd" fill-opacity="0.5" stroke="#000000" stroke-opacity="0.5" stroke-width="3.2"/>
<circle clip-path="url(#clip642)" cx="1520.25" cy="742.622" r="14.4" fill="#009af9" fill-rule="evenodd" fill-opacity="0.5" stroke="#000000" stroke-opacity="0.5" stroke-width="3.2"/>
<circle clip-path="url(#clip642)" cx="405.001" cy="621.918" r="14.4" fill="#009af9" fill-rule="evenodd" fill-opacity="0.5" stroke="#000000" stroke-opacity="0.5" stroke-width="3.2"/>
<circle clip-path="url(#clip642)" cx="2290.39" cy="592.616" r="14.4" fill="#009af9" fill-rule="evenodd" fill-opacity="0.5" stroke="#000000" stroke-opacity="0.5" stroke-width="3.2"/>
<circle clip-path="url(#clip642)" cx="717.633" cy="670.796" r="14.4" fill="#009af9" fill-rule="evenodd" fill-opacity="0.5" stroke="#000000" stroke-opacity="0.5" stroke-width="3.2"/>
<circle clip-path="url(#clip642)" cx="1310.62" cy="527.477" r="14.4" fill="#009af9" fill-rule="evenodd" fill-opacity="0.5" stroke="#000000" stroke-opacity="0.5" stroke-width="3.2"/>
<circle clip-path="url(#clip642)" cx="1768.7" cy="744.171" r="14.4" fill="#009af9" fill-rule="evenodd" fill-opacity="0.5" stroke="#000000" stroke-opacity="0.5" stroke-width="3.2"/>
<circle clip-path="url(#clip642)" cx="1988.32" cy="415.177" r="14.4" fill="#009af9" fill-rule="evenodd" fill-opacity="0.5" stroke="#000000" stroke-opacity="0.5" stroke-width="3.2"/>
<circle clip-path="url(#clip642)" cx="1679.94" cy="743.79" r="14.4" fill="#009af9" fill-rule="evenodd" fill-opacity="0.5" stroke="#000000" stroke-opacity="0.5" stroke-width="3.2"/>
<circle clip-path="url(#clip642)" cx="211.556" cy="656.622" r="14.4" fill="#009af9" fill-rule="evenodd" fill-opacity="0.5" stroke="#000000" stroke-opacity="0.5" stroke-width="3.2"/>
<circle clip-path="url(#clip642)" cx="1219.74" cy="475.218" r="14.4" fill="#009af9" fill-rule="evenodd" fill-opacity="0.5" stroke="#000000" stroke-opacity="0.5" stroke-width="3.2"/>
<circle clip-path="url(#clip642)" cx="385.525" cy="203.894" r="14.4" fill="#009af9" fill-rule="evenodd" fill-opacity="0.5" stroke="#000000" stroke-opacity="0.5" stroke-width="3.2"/>
<circle clip-path="url(#clip642)" cx="485.072" cy="372.286" r="14.4" fill="#009af9" fill-rule="evenodd" fill-opacity="0.5" stroke="#000000" stroke-opacity="0.5" stroke-width="3.2"/>
<circle clip-path="url(#clip642)" cx="226.05" cy="325.289" r="14.4" fill="#009af9" fill-rule="evenodd" fill-opacity="0.5" stroke="#000000" stroke-opacity="0.5" stroke-width="3.2"/>
<circle clip-path="url(#clip642)" cx="1075.95" cy="263.167" r="14.4" fill="#009af9" fill-rule="evenodd" fill-opacity="0.5" stroke="#000000" stroke-opacity="0.5" stroke-width="3.2"/>
<path clip-path="url(#clip642)" d="M211.556 656.622 L386.99 1445.72 L1987.13 833.926 L2290.39 592.616 L2190.77 444.411 L1698.87 87.9763 L385.525 203.894 L226.05 325.289 L211.556 656.622 L211.556 656.622  Z" fill="#e26f46" fill-rule="evenodd" fill-opacity="0.2"/>
<polyline clip-path="url(#clip642)" style="stroke:#000000; stroke-linecap:round; stroke-linejoin:round; stroke-width:4; stroke-opacity:0.2; fill:none" points="211.556,656.622 386.99,1445.72 1987.13,833.926 2290.39,592.616 2190.77,444.411 1698.87,87.9763 385.525,203.894 226.05,325.289 211.556,656.622 "/>
</svg>
