<?xml version="1.0" encoding="utf-8"?>
<svg xmlns="http://www.w3.org/2000/svg" xmlns:xlink="http://www.w3.org/1999/xlink" width="600" height="400" viewBox="0 0 2400 1600">
<defs>
  <clipPath id="clip180">
    <rect x="0" y="0" width="2400" height="1600"/>
  </clipPath>
</defs>
<path clip-path="url(#clip180)" d="M0 1600 L2400 1600 L2400 0 L0 0  Z" fill="#ffffff" fill-rule="evenodd" fill-opacity="1"/>
<defs>
  <clipPath id="clip181">
    <rect x="147" y="47" width="2206" height="1440"/>
  </clipPath>
</defs>
<path clip-path="url(#clip180)" d="M147.478 1486.45 L2352.76 1486.45 L2352.76 47.2441 L147.478 47.2441  Z" fill="#ffffff" fill-rule="evenodd" fill-opacity="1"/>
<polyline clip-path="url(#clip181)" style="stroke:#000000; stroke-linecap:round; stroke-linejoin:round; stroke-width:2; stroke-opacity:0.1; fill:none" points="577.011,1486.45 577.011,47.2441 "/>
<polyline clip-path="url(#clip181)" style="stroke:#000000; stroke-linecap:round; stroke-linejoin:round; stroke-width:2; stroke-opacity:0.1; fill:none" points="1077.56,1486.45 1077.56,47.2441 "/>
<polyline clip-path="url(#clip181)" style="stroke:#000000; stroke-linecap:round; stroke-linejoin:round; stroke-width:2; stroke-opacity:0.1; fill:none" points="1578.1,1486.45 1578.1,47.2441 "/>
<polyline clip-path="url(#clip181)" style="stroke:#000000; stroke-linecap:round; stroke-linejoin:round; stroke-width:2; stroke-opacity:0.1; fill:none" points="2078.64,1486.45 2078.64,47.2441 "/>
<polyline clip-path="url(#clip181)" style="stroke:#000000; stroke-linecap:round; stroke-linejoin:round; stroke-width:2; stroke-opacity:0.1; fill:none" points="147.478,1428.52 2352.76,1428.52 "/>
<polyline clip-path="url(#clip181)" style="stroke:#000000; stroke-linecap:round; stroke-linejoin:round; stroke-width:2; stroke-opacity:0.1; fill:none" points="147.478,1067.19 2352.76,1067.19 "/>
<polyline clip-path="url(#clip181)" style="stroke:#000000; stroke-linecap:round; stroke-linejoin:round; stroke-width:2; stroke-opacity:0.1; fill:none" points="147.478,705.858 2352.76,705.858 "/>
<polyline clip-path="url(#clip181)" style="stroke:#000000; stroke-linecap:round; stroke-linejoin:round; stroke-width:2; stroke-opacity:0.1; fill:none" points="147.478,344.528 2352.76,344.528 "/>
<polyline clip-path="url(#clip180)" style="stroke:#000000; stroke-linecap:round; stroke-linejoin:round; stroke-width:4; stroke-opacity:1; fill:none" points="147.478,1486.45 2352.76,1486.45 "/>
<polyline clip-path="url(#clip180)" style="stroke:#000000; stroke-linecap:round; stroke-linejoin:round; stroke-width:4; stroke-opacity:1; fill:none" points="577.011,1486.45 577.011,1467.55 "/>
<polyline clip-path="url(#clip180)" style="stroke:#000000; stroke-linecap:round; stroke-linejoin:round; stroke-width:4; stroke-opacity:1; fill:none" points="1077.56,1486.45 1077.56,1467.55 "/>
<polyline clip-path="url(#clip180)" style="stroke:#000000; stroke-linecap:round; stroke-linejoin:round; stroke-width:4; stroke-opacity:1; fill:none" points="1578.1,1486.45 1578.1,1467.55 "/>
<polyline clip-path="url(#clip180)" style="stroke:#000000; stroke-linecap:round; stroke-linejoin:round; stroke-width:4; stroke-opacity:1; fill:none" points="2078.64,1486.45 2078.64,1467.55 "/>
<path clip-path="url(#clip180)" d="M546.768 1532.02 L576.443 1532.02 L576.443 1535.95 L546.768 1535.95 L546.768 1532.02 Z" fill="#000000" fill-rule="nonzero" fill-opacity="1" /><path clip-path="url(#clip180)" d="M587.346 1544.91 L594.985 1544.91 L594.985 1518.55 L586.675 1520.21 L586.675 1515.95 L594.939 1514.29 L599.615 1514.29 L599.615 1544.91 L607.253 1544.91 L607.253 1548.85 L587.346 1548.85 L587.346 1544.91 Z" fill="#000000" fill-rule="nonzero" fill-opacity="1" /><path clip-path="url(#clip180)" d="M1077.56 1517.37 Q1073.94 1517.37 1072.12 1520.93 Q1070.31 1524.47 1070.31 1531.6 Q1070.31 1538.71 1072.12 1542.27 Q1073.94 1545.82 1077.56 1545.82 Q1081.19 1545.82 1083 1542.27 Q1084.82 1538.71 1084.82 1531.6 Q1084.82 1524.47 1083 1520.93 Q1081.19 1517.37 1077.56 1517.37 M1077.56 1513.66 Q1083.37 1513.66 1086.42 1518.27 Q1089.5 1522.85 1089.5 1531.6 Q1089.5 1540.33 1086.42 1544.94 Q1083.37 1549.52 1077.56 1549.52 Q1071.75 1549.52 1068.67 1544.94 Q1065.61 1540.33 1065.61 1531.6 Q1065.61 1522.85 1068.67 1518.27 Q1071.75 1513.66 1077.56 1513.66 Z" fill="#000000" fill-rule="nonzero" fill-opacity="1" /><path clip-path="url(#clip180)" d="M1568.48 1544.91 L1576.12 1544.91 L1576.12 1518.55 L1567.81 1520.21 L1567.81 1515.95 L1576.07 1514.29 L1580.75 1514.29 L1580.75 1544.91 L1588.39 1544.91 L1588.39 1548.85 L1568.48 1548.85 L1568.48 1544.91 Z" fill="#000000" fill-rule="nonzero" fill-opacity="1" /><path clip-path="url(#clip180)" d="M2073.3 1544.91 L2089.62 1544.91 L2089.62 1548.85 L2067.67 1548.85 L2067.67 1544.91 Q2070.33 1542.16 2074.92 1537.53 Q2079.52 1532.88 2080.7 1531.53 Q2082.95 1529.01 2083.83 1527.27 Q2084.73 1525.51 2084.73 1523.82 Q2084.73 1521.07 2082.79 1519.33 Q2080.87 1517.6 2077.77 1517.6 Q2075.57 1517.6 2073.11 1518.36 Q2070.68 1519.13 2067.9 1520.68 L2067.9 1515.95 Q2070.73 1514.82 2073.18 1514.24 Q2075.64 1513.66 2077.67 1513.66 Q2083.04 1513.66 2086.24 1516.35 Q2089.43 1519.03 2089.43 1523.52 Q2089.43 1525.65 2088.62 1527.57 Q2087.83 1529.47 2085.73 1532.07 Q2085.15 1532.74 2082.05 1535.95 Q2078.95 1539.15 2073.3 1544.91 Z" fill="#000000" fill-rule="nonzero" fill-opacity="1" /><polyline clip-path="url(#clip180)" style="stroke:#000000; stroke-linecap:round; stroke-linejoin:round; stroke-width:4; stroke-opacity:1; fill:none" points="147.478,1486.45 147.478,47.2441 "/>
<polyline clip-path="url(#clip180)" style="stroke:#000000; stroke-linecap:round; stroke-linejoin:round; stroke-width:4; stroke-opacity:1; fill:none" points="147.478,1428.52 166.376,1428.52 "/>
<polyline clip-path="url(#clip180)" style="stroke:#000000; stroke-linecap:round; stroke-linejoin:round; stroke-width:4; stroke-opacity:1; fill:none" points="147.478,1067.19 166.376,1067.19 "/>
<polyline clip-path="url(#clip180)" style="stroke:#000000; stroke-linecap:round; stroke-linejoin:round; stroke-width:4; stroke-opacity:1; fill:none" points="147.478,705.858 166.376,705.858 "/>
<polyline clip-path="url(#clip180)" style="stroke:#000000; stroke-linecap:round; stroke-linejoin:round; stroke-width:4; stroke-opacity:1; fill:none" points="147.478,344.528 166.376,344.528 "/>
<path clip-path="url(#clip180)" d="M51.3625 1428.97 L81.0383 1428.97 L81.0383 1432.9 L51.3625 1432.9 L51.3625 1428.97 Z" fill="#000000" fill-rule="nonzero" fill-opacity="1" /><path clip-path="url(#clip180)" d="M95.1586 1441.86 L111.478 1441.86 L111.478 1445.8 L89.5336 1445.8 L89.5336 1441.86 Q92.1956 1439.11 96.7789 1434.48 Q101.385 1429.83 102.566 1428.48 Q104.811 1425.96 105.691 1424.22 Q106.594 1422.46 106.594 1420.78 Q106.594 1418.02 104.649 1416.28 Q102.728 1414.55 99.6261 1414.55 Q97.4271 1414.55 94.9734 1415.31 Q92.5428 1416.08 89.7651 1417.63 L89.7651 1412.9 Q92.5891 1411.77 95.0428 1411.19 Q97.4965 1410.61 99.5335 1410.61 Q104.904 1410.61 108.098 1413.3 Q111.293 1415.98 111.293 1420.47 Q111.293 1422.6 110.483 1424.53 Q109.696 1426.42 107.589 1429.02 Q107.01 1429.69 103.909 1432.9 Q100.807 1436.1 95.1586 1441.86 Z" fill="#000000" fill-rule="nonzero" fill-opacity="1" /><path clip-path="url(#clip180)" d="M50.9921 1067.64 L80.6679 1067.64 L80.6679 1071.57 L50.9921 1071.57 L50.9921 1067.64 Z" fill="#000000" fill-rule="nonzero" fill-opacity="1" /><path clip-path="url(#clip180)" d="M91.5706 1080.53 L99.2095 1080.53 L99.2095 1054.17 L90.8993 1055.83 L90.8993 1051.57 L99.1632 1049.91 L103.839 1049.91 L103.839 1080.53 L111.478 1080.53 L111.478 1084.47 L91.5706 1084.47 L91.5706 1080.53 Z" fill="#000000" fill-rule="nonzero" fill-opacity="1" /><path clip-path="url(#clip180)" d="M99.5335 691.657 Q95.9224 691.657 94.0937 695.222 Q92.2882 698.763 92.2882 705.893 Q92.2882 712.999 94.0937 716.564 Q95.9224 720.106 99.5335 720.106 Q103.168 720.106 104.973 716.564 Q106.802 712.999 106.802 705.893 Q106.802 698.763 104.973 695.222 Q103.168 691.657 99.5335 691.657 M99.5335 687.953 Q105.344 687.953 108.399 692.56 Q111.478 697.143 111.478 705.893 Q111.478 714.62 108.399 719.226 Q105.344 723.809 99.5335 723.809 Q93.7234 723.809 90.6447 719.226 Q87.5892 714.62 87.5892 705.893 Q87.5892 697.143 90.6447 692.56 Q93.7234 687.953 99.5335 687.953 Z" fill="#000000" fill-rule="nonzero" fill-opacity="1" /><path clip-path="url(#clip180)" d="M91.5706 357.873 L99.2095 357.873 L99.2095 331.507 L90.8993 333.174 L90.8993 328.915 L99.1632 327.248 L103.839 327.248 L103.839 357.873 L111.478 357.873 L111.478 361.808 L91.5706 361.808 L91.5706 357.873 Z" fill="#000000" fill-rule="nonzero" fill-opacity="1" /><circle clip-path="url(#clip181)" cx="1383.9" cy="876.049" r="14.4" fill="#009af9" fill-rule="evenodd" fill-opacity="0.5" stroke="#000000" stroke-opacity="0.5" stroke-width="3.2"/>
<circle clip-path="url(#clip181)" cx="867.673" cy="1153.92" r="14.4" fill="#009af9" fill-rule="evenodd" fill-opacity="0.5" stroke="#000000" stroke-opacity="0.5" stroke-width="3.2"/>
<circle clip-path="url(#clip181)" cx="993.972" cy="1361.82" r="14.4" fill="#009af9" fill-rule="evenodd" fill-opacity="0.5" stroke="#000000" stroke-opacity="0.5" stroke-width="3.2"/>
<circle clip-path="url(#clip181)" cx="911.129" cy="855.246" r="14.4" fill="#009af9" fill-rule="evenodd" fill-opacity="0.5" stroke="#000000" stroke-opacity="0.5" stroke-width="3.2"/>
<circle clip-path="url(#clip181)" cx="1547.73" cy="364.88" r="14.4" fill="#009af9" fill-rule="evenodd" fill-opacity="0.5" stroke="#000000" stroke-opacity="0.5" stroke-width="3.2"/>
<circle clip-path="url(#clip181)" cx="1464.23" cy="552.301" r="14.4" fill="#009af9" fill-rule="evenodd" fill-opacity="0.5" stroke="#000000" stroke-opacity="0.5" stroke-width="3.2"/>
<circle clip-path="url(#clip181)" cx="1187.13" cy="1179.9" r="14.4" fill="#009af9" fill-rule="evenodd" fill-opacity="0.5" stroke="#000000" stroke-opacity="0.5" stroke-width="3.2"/>
<circle clip-path="url(#clip181)" cx="1660.31" cy="87.9763" r="14.4" fill="#009af9" fill-rule="evenodd" fill-opacity="0.5" stroke="#000000" stroke-opacity="0.5" stroke-width="3.2"/>
<circle clip-path="url(#clip181)" cx="2116.75" cy="1071.98" r="14.4" fill="#009af9" fill-rule="evenodd" fill-opacity="0.5" stroke="#000000" stroke-opacity="0.5" stroke-width="3.2"/>
<circle clip-path="url(#clip181)" cx="2290.34" cy="1009.71" r="14.4" fill="#009af9" fill-rule="evenodd" fill-opacity="0.5" stroke="#000000" stroke-opacity="0.5" stroke-width="3.2"/>
<circle clip-path="url(#clip181)" cx="2032.2" cy="106.745" r="14.4" fill="#009af9" fill-rule="evenodd" fill-opacity="0.5" stroke="#000000" stroke-opacity="0.5" stroke-width="3.2"/>
<circle clip-path="url(#clip181)" cx="209.891" cy="968.292" r="14.4" fill="#009af9" fill-rule="evenodd" fill-opacity="0.5" stroke="#000000" stroke-opacity="0.5" stroke-width="3.2"/>
<circle clip-path="url(#clip181)" cx="637.813" cy="97.7842" r="14.4" fill="#009af9" fill-rule="evenodd" fill-opacity="0.5" stroke="#000000" stroke-opacity="0.5" stroke-width="3.2"/>
<circle clip-path="url(#clip181)" cx="1064.4" cy="336.075" r="14.4" fill="#009af9" fill-rule="evenodd" fill-opacity="0.5" stroke="#000000" stroke-opacity="0.5" stroke-width="3.2"/>
<circle clip-path="url(#clip181)" cx="655.077" cy="821.957" r="14.4" fill="#009af9" fill-rule="evenodd" fill-opacity="0.5" stroke="#000000" stroke-opacity="0.5" stroke-width="3.2"/>
<circle clip-path="url(#clip181)" cx="934.248" cy="564.214" r="14.4" fill="#009af9" fill-rule="evenodd" fill-opacity="0.5" stroke="#000000" stroke-opacity="0.5" stroke-width="3.2"/>
<circle clip-path="url(#clip181)" cx="1390.68" cy="901.204" r="14.4" fill="#009af9" fill-rule="evenodd" fill-opacity="0.5" stroke="#000000" stroke-opacity="0.5" stroke-width="3.2"/>
<circle clip-path="url(#clip181)" cx="1295.72" cy="1041.77" r="14.4" fill="#009af9" fill-rule="evenodd" fill-opacity="0.5" stroke="#000000" stroke-opacity="0.5" stroke-width="3.2"/>
<circle clip-path="url(#clip181)" cx="1373.52" cy="827.005" r="14.4" fill="#009af9" fill-rule="evenodd" fill-opacity="0.5" stroke="#000000" stroke-opacity="0.5" stroke-width="3.2"/>
<circle clip-path="url(#clip181)" cx="544.922" cy="835.513" r="14.4" fill="#009af9" fill-rule="evenodd" fill-opacity="0.5" stroke="#000000" stroke-opacity="0.5" stroke-width="3.2"/>
<circle clip-path="url(#clip181)" cx="994.883" cy="222.46" r="14.4" fill="#009af9" fill-rule="evenodd" fill-opacity="0.5" stroke="#000000" stroke-opacity="0.5" stroke-width="3.2"/>
<circle clip-path="url(#clip181)" cx="1375.67" cy="514.885" r="14.4" fill="#009af9" fill-rule="evenodd" fill-opacity="0.5" stroke="#000000" stroke-opacity="0.5" stroke-width="3.2"/>
<circle clip-path="url(#clip181)" cx="778.341" cy="635.272" r="14.4" fill="#009af9" fill-rule="evenodd" fill-opacity="0.5" stroke="#000000" stroke-opacity="0.5" stroke-width="3.2"/>
<circle clip-path="url(#clip181)" cx="1032.15" cy="974.935" r="14.4" fill="#009af9" fill-rule="evenodd" fill-opacity="0.5" stroke="#000000" stroke-opacity="0.5" stroke-width="3.2"/>
<circle clip-path="url(#clip181)" cx="1294.43" cy="960.644" r="14.4" fill="#009af9" fill-rule="evenodd" fill-opacity="0.5" stroke="#000000" stroke-opacity="0.5" stroke-width="3.2"/>
<circle clip-path="url(#clip181)" cx="969.032" cy="1124.22" r="14.4" fill="#009af9" fill-rule="evenodd" fill-opacity="0.5" stroke="#000000" stroke-opacity="0.5" stroke-width="3.2"/>
<circle clip-path="url(#clip181)" cx="699.049" cy="529.519" r="14.4" fill="#009af9" fill-rule="evenodd" fill-opacity="0.5" stroke="#000000" stroke-opacity="0.5" stroke-width="3.2"/>
<circle clip-path="url(#clip181)" cx="544.417" cy="1445.72" r="14.4" fill="#009af9" fill-rule="evenodd" fill-opacity="0.5" stroke="#000000" stroke-opacity="0.5" stroke-width="3.2"/>
<circle clip-path="url(#clip181)" cx="2125.33" cy="851.04" r="14.4" fill="#009af9" fill-rule="evenodd" fill-opacity="0.5" stroke="#000000" stroke-opacity="0.5" stroke-width="3.2"/>
<circle clip-path="url(#clip181)" cx="1896.8" cy="1405.53" r="14.4" fill="#009af9" fill-rule="evenodd" fill-opacity="0.5" stroke="#000000" stroke-opacity="0.5" stroke-width="3.2"/>
<path clip-path="url(#clip181)" d="M209.891 968.292 L544.417 1445.72 L1896.8 1405.53 L2290.34 1009.71 L2032.2 106.745 L1660.31 87.9763 L637.813 97.7842 L209.891 968.292 L209.891 968.292  Z" fill="#e26f46" fill-rule="evenodd" fill-opacity="0.2"/>
<polyline clip-path="url(#clip181)" style="stroke:#000000; stroke-linecap:round; stroke-linejoin:round; stroke-width:4; stroke-opacity:0.2; fill:none" points="209.891,968.292 544.417,1445.72 1896.8,1405.53 2290.34,1009.71 2032.2,106.745 1660.31,87.9763 637.813,97.7842 209.891,968.292 "/>
</svg>
