<?xml version="1.0" encoding="utf-8"?>
<svg xmlns="http://www.w3.org/2000/svg" xmlns:xlink="http://www.w3.org/1999/xlink" width="600" height="400" viewBox="0 0 2400 1600">
<defs>
  <clipPath id="clip300">
    <rect x="0" y="0" width="2400" height="1600"/>
  </clipPath>
</defs>
<path clip-path="url(#clip300)" d="M0 1600 L2400 1600 L2400 0 L0 0  Z" fill="#ffffff" fill-rule="evenodd" fill-opacity="1"/>
<defs>
  <clipPath id="clip301">
    <rect x="480" y="0" width="1681" height="1600"/>
  </clipPath>
</defs>
<path clip-path="url(#clip300)" d="M147.478 1486.45 L2352.76 1486.45 L2352.76 47.2441 L147.478 47.2441  Z" fill="#ffffff" fill-rule="evenodd" fill-opacity="1"/>
<defs>
  <clipPath id="clip302">
    <rect x="147" y="47" width="2206" height="1440"/>
  </clipPath>
</defs>
<polyline clip-path="url(#clip302)" style="stroke:#000000; stroke-linecap:round; stroke-linejoin:round; stroke-width:2; stroke-opacity:0.1; fill:none" points="334.898,1486.45 334.898,47.2441 "/>
<polyline clip-path="url(#clip302)" style="stroke:#000000; stroke-linecap:round; stroke-linejoin:round; stroke-width:2; stroke-opacity:0.1; fill:none" points="806.876,1486.45 806.876,47.2441 "/>
<polyline clip-path="url(#clip302)" style="stroke:#000000; stroke-linecap:round; stroke-linejoin:round; stroke-width:2; stroke-opacity:0.1; fill:none" points="1278.85,1486.45 1278.85,47.2441 "/>
<polyline clip-path="url(#clip302)" style="stroke:#000000; stroke-linecap:round; stroke-linejoin:round; stroke-width:2; stroke-opacity:0.1; fill:none" points="1750.83,1486.45 1750.83,47.2441 "/>
<polyline clip-path="url(#clip302)" style="stroke:#000000; stroke-linecap:round; stroke-linejoin:round; stroke-width:2; stroke-opacity:0.1; fill:none" points="2222.81,1486.45 2222.81,47.2441 "/>
<polyline clip-path="url(#clip302)" style="stroke:#000000; stroke-linecap:round; stroke-linejoin:round; stroke-width:2; stroke-opacity:0.1; fill:none" points="147.478,1234.44 2352.76,1234.44 "/>
<polyline clip-path="url(#clip302)" style="stroke:#000000; stroke-linecap:round; stroke-linejoin:round; stroke-width:2; stroke-opacity:0.1; fill:none" points="147.478,970.936 2352.76,970.936 "/>
<polyline clip-path="url(#clip302)" style="stroke:#000000; stroke-linecap:round; stroke-linejoin:round; stroke-width:2; stroke-opacity:0.1; fill:none" points="147.478,707.433 2352.76,707.433 "/>
<polyline clip-path="url(#clip302)" style="stroke:#000000; stroke-linecap:round; stroke-linejoin:round; stroke-width:2; stroke-opacity:0.1; fill:none" points="147.478,443.931 2352.76,443.931 "/>
<polyline clip-path="url(#clip302)" style="stroke:#000000; stroke-linecap:round; stroke-linejoin:round; stroke-width:2; stroke-opacity:0.1; fill:none" points="147.478,180.428 2352.76,180.428 "/>
<polyline clip-path="url(#clip300)" style="stroke:#000000; stroke-linecap:round; stroke-linejoin:round; stroke-width:4; stroke-opacity:1; fill:none" points="147.478,1486.45 2352.76,1486.45 "/>
<polyline clip-path="url(#clip300)" style="stroke:#000000; stroke-linecap:round; stroke-linejoin:round; stroke-width:4; stroke-opacity:1; fill:none" points="334.898,1486.45 334.898,1467.55 "/>
<polyline clip-path="url(#clip300)" style="stroke:#000000; stroke-linecap:round; stroke-linejoin:round; stroke-width:4; stroke-opacity:1; fill:none" points="806.876,1486.45 806.876,1467.55 "/>
<polyline clip-path="url(#clip300)" style="stroke:#000000; stroke-linecap:round; stroke-linejoin:round; stroke-width:4; stroke-opacity:1; fill:none" points="1278.85,1486.45 1278.85,1467.55 "/>
<polyline clip-path="url(#clip300)" style="stroke:#000000; stroke-linecap:round; stroke-linejoin:round; stroke-width:4; stroke-opacity:1; fill:none" points="1750.83,1486.45 1750.83,1467.55 "/>
<polyline clip-path="url(#clip300)" style="stroke:#000000; stroke-linecap:round; stroke-linejoin:round; stroke-width:4; stroke-opacity:1; fill:none" points="2222.81,1486.45 2222.81,1467.55 "/>
<path clip-path="url(#clip300)" d="M304.84 1532.02 L334.516 1532.02 L334.516 1535.95 L304.84 1535.95 L304.84 1532.02 Z" fill="#000000" fill-rule="nonzero" fill-opacity="1" /><path clip-path="url(#clip300)" d="M348.636 1544.91 L364.955 1544.91 L364.955 1548.85 L343.011 1548.85 L343.011 1544.91 Q345.673 1542.16 350.256 1537.53 Q354.863 1532.88 356.043 1531.53 Q358.289 1529.01 359.168 1527.27 Q360.071 1525.51 360.071 1523.82 Q360.071 1521.07 358.127 1519.33 Q356.205 1517.6 353.103 1517.6 Q350.904 1517.6 348.451 1518.36 Q346.02 1519.13 343.242 1520.68 L343.242 1515.95 Q346.066 1514.82 348.52 1514.24 Q350.974 1513.66 353.011 1513.66 Q358.381 1513.66 361.576 1516.35 Q364.77 1519.03 364.77 1523.52 Q364.77 1525.65 363.96 1527.57 Q363.173 1529.47 361.066 1532.07 Q360.488 1532.74 357.386 1535.95 Q354.284 1539.15 348.636 1544.91 Z" fill="#000000" fill-rule="nonzero" fill-opacity="1" /><path clip-path="url(#clip300)" d="M776.633 1532.02 L806.309 1532.02 L806.309 1535.95 L776.633 1535.95 L776.633 1532.02 Z" fill="#000000" fill-rule="nonzero" fill-opacity="1" /><path clip-path="url(#clip300)" d="M817.211 1544.91 L824.85 1544.91 L824.85 1518.55 L816.54 1520.21 L816.54 1515.95 L824.804 1514.29 L829.48 1514.29 L829.48 1544.91 L837.119 1544.91 L837.119 1548.85 L817.211 1548.85 L817.211 1544.91 Z" fill="#000000" fill-rule="nonzero" fill-opacity="1" /><path clip-path="url(#clip300)" d="M1278.85 1517.37 Q1275.24 1517.37 1273.41 1520.93 Q1271.61 1524.47 1271.61 1531.6 Q1271.61 1538.71 1273.41 1542.27 Q1275.24 1545.82 1278.85 1545.82 Q1282.49 1545.82 1284.29 1542.27 Q1286.12 1538.71 1286.12 1531.6 Q1286.12 1524.47 1284.29 1520.93 Q1282.49 1517.37 1278.85 1517.37 M1278.85 1513.66 Q1284.66 1513.66 1287.72 1518.27 Q1290.8 1522.85 1290.8 1531.6 Q1290.8 1540.33 1287.72 1544.94 Q1284.66 1549.52 1278.85 1549.52 Q1273.04 1549.52 1269.97 1544.94 Q1266.91 1540.33 1266.91 1531.6 Q1266.91 1522.85 1269.97 1518.27 Q1273.04 1513.66 1278.85 1513.66 Z" fill="#000000" fill-rule="nonzero" fill-opacity="1" /><path clip-path="url(#clip300)" d="M1741.21 1544.91 L1748.85 1544.91 L1748.85 1518.55 L1740.54 1520.21 L1740.54 1515.95 L1748.81 1514.29 L1753.48 1514.29 L1753.48 1544.91 L1761.12 1544.91 L1761.12 1548.85 L1741.21 1548.85 L1741.21 1544.91 Z" fill="#000000" fill-rule="nonzero" fill-opacity="1" /><path clip-path="url(#clip300)" d="M2217.46 1544.91 L2233.78 1544.91 L2233.78 1548.85 L2211.84 1548.85 L2211.84 1544.91 Q2214.5 1542.16 2219.08 1537.53 Q2223.69 1532.88 2224.87 1531.53 Q2227.12 1529.01 2228 1527.27 Q2228.9 1525.51 2228.9 1523.82 Q2228.9 1521.07 2226.95 1519.33 Q2225.03 1517.6 2221.93 1517.6 Q2219.73 1517.6 2217.28 1518.36 Q2214.85 1519.13 2212.07 1520.68 L2212.07 1515.95 Q2214.89 1514.82 2217.35 1514.24 Q2219.8 1513.66 2221.84 1513.66 Q2227.21 1513.66 2230.4 1516.35 Q2233.6 1519.03 2233.6 1523.52 Q2233.6 1525.65 2232.79 1527.57 Q2232 1529.47 2229.89 1532.07 Q2229.32 1532.74 2226.21 1535.95 Q2223.11 1539.15 2217.46 1544.91 Z" fill="#000000" fill-rule="nonzero" fill-opacity="1" /><polyline clip-path="url(#clip300)" style="stroke:#000000; stroke-linecap:round; stroke-linejoin:round; stroke-width:4; stroke-opacity:1; fill:none" points="147.478,1486.45 147.478,47.2441 "/>
<polyline clip-path="url(#clip300)" style="stroke:#000000; stroke-linecap:round; stroke-linejoin:round; stroke-width:4; stroke-opacity:1; fill:none" points="147.478,1234.44 166.376,1234.44 "/>
<polyline clip-path="url(#clip300)" style="stroke:#000000; stroke-linecap:round; stroke-linejoin:round; stroke-width:4; stroke-opacity:1; fill:none" points="147.478,970.936 166.376,970.936 "/>
<polyline clip-path="url(#clip300)" style="stroke:#000000; stroke-linecap:round; stroke-linejoin:round; stroke-width:4; stroke-opacity:1; fill:none" points="147.478,707.433 166.376,707.433 "/>
<polyline clip-path="url(#clip300)" style="stroke:#000000; stroke-linecap:round; stroke-linejoin:round; stroke-width:4; stroke-opacity:1; fill:none" points="147.478,443.931 166.376,443.931 "/>
<polyline clip-path="url(#clip300)" style="stroke:#000000; stroke-linecap:round; stroke-linejoin:round; stroke-width:4; stroke-opacity:1; fill:none" points="147.478,180.428 166.376,180.428 "/>
<path clip-path="url(#clip300)" d="M51.3625 1234.89 L81.0383 1234.89 L81.0383 1238.82 L51.3625 1238.82 L51.3625 1234.89 Z" fill="#000000" fill-rule="nonzero" fill-opacity="1" /><path clip-path="url(#clip300)" d="M95.1586 1247.78 L111.478 1247.78 L111.478 1251.72 L89.5336 1251.72 L89.5336 1247.78 Q92.1956 1245.03 96.7789 1240.4 Q101.385 1235.75 102.566 1234.4 Q104.811 1231.88 105.691 1230.14 Q106.594 1228.38 106.594 1226.7 Q106.594 1223.94 104.649 1222.2 Q102.728 1220.47 99.6261 1220.47 Q97.4271 1220.47 94.9734 1221.23 Q92.5428 1222 89.7651 1223.55 L89.7651 1218.82 Q92.5891 1217.69 95.0428 1217.11 Q97.4965 1216.53 99.5335 1216.53 Q104.904 1216.53 108.098 1219.22 Q111.293 1221.9 111.293 1226.39 Q111.293 1228.52 110.483 1230.45 Q109.696 1232.34 107.589 1234.94 Q107.01 1235.61 103.909 1238.82 Q100.807 1242.02 95.1586 1247.78 Z" fill="#000000" fill-rule="nonzero" fill-opacity="1" /><path clip-path="url(#clip300)" d="M50.9921 971.387 L80.6679 971.387 L80.6679 975.322 L50.9921 975.322 L50.9921 971.387 Z" fill="#000000" fill-rule="nonzero" fill-opacity="1" /><path clip-path="url(#clip300)" d="M91.5706 984.28 L99.2095 984.28 L99.2095 957.915 L90.8993 959.582 L90.8993 955.322 L99.1632 953.656 L103.839 953.656 L103.839 984.28 L111.478 984.28 L111.478 988.216 L91.5706 988.216 L91.5706 984.28 Z" fill="#000000" fill-rule="nonzero" fill-opacity="1" /><path clip-path="url(#clip300)" d="M99.5335 693.232 Q95.9224 693.232 94.0937 696.797 Q92.2882 700.338 92.2882 707.468 Q92.2882 714.574 94.0937 718.139 Q95.9224 721.681 99.5335 721.681 Q103.168 721.681 104.973 718.139 Q106.802 714.574 106.802 707.468 Q106.802 700.338 104.973 696.797 Q103.168 693.232 99.5335 693.232 M99.5335 689.528 Q105.344 689.528 108.399 694.135 Q111.478 698.718 111.478 707.468 Q111.478 716.195 108.399 720.801 Q105.344 725.384 99.5335 725.384 Q93.7234 725.384 90.6447 720.801 Q87.5892 716.195 87.5892 707.468 Q87.5892 698.718 90.6447 694.135 Q93.7234 689.528 99.5335 689.528 Z" fill="#000000" fill-rule="nonzero" fill-opacity="1" /><path clip-path="url(#clip300)" d="M91.5706 457.275 L99.2095 457.275 L99.2095 430.91 L90.8993 432.576 L90.8993 428.317 L99.1632 426.651 L103.839 426.651 L103.839 457.275 L111.478 457.275 L111.478 461.211 L91.5706 461.211 L91.5706 457.275 Z" fill="#000000" fill-rule="nonzero" fill-opacity="1" /><path clip-path="url(#clip300)" d="M95.1586 193.773 L111.478 193.773 L111.478 197.708 L89.5336 197.708 L89.5336 193.773 Q92.1956 191.018 96.7789 186.389 Q101.385 181.736 102.566 180.393 Q104.811 177.87 105.691 176.134 Q106.594 174.375 106.594 172.685 Q106.594 169.93 104.649 168.194 Q102.728 166.458 99.6261 166.458 Q97.4271 166.458 94.9734 167.222 Q92.5428 167.986 89.7651 169.537 L89.7651 164.815 Q92.5891 163.68 95.0428 163.102 Q97.4965 162.523 99.5335 162.523 Q104.904 162.523 108.098 165.208 Q111.293 167.893 111.293 172.384 Q111.293 174.514 110.483 176.435 Q109.696 178.333 107.589 180.926 Q107.01 181.597 103.909 184.815 Q100.807 188.009 95.1586 193.773 Z" fill="#000000" fill-rule="nonzero" fill-opacity="1" /><circle clip-path="url(#clip302)" cx="1572.2" cy="613.001" r="14.4" fill="#009af9" fill-rule="evenodd" fill-opacity="0.5" stroke="#000000" stroke-opacity="0.5" stroke-width="3.2"/>
<circle clip-path="url(#clip302)" cx="2071.16" cy="674.396" r="14.4" fill="#009af9" fill-rule="evenodd" fill-opacity="0.5" stroke="#000000" stroke-opacity="0.5" stroke-width="3.2"/>
<circle clip-path="url(#clip302)" cx="1422.75" cy="484.599" r="14.4" fill="#009af9" fill-rule="evenodd" fill-opacity="0.5" stroke="#000000" stroke-opacity="0.5" stroke-width="3.2"/>
<circle clip-path="url(#clip302)" cx="1252.46" cy="620.985" r="14.4" fill="#009af9" fill-rule="evenodd" fill-opacity="0.5" stroke="#000000" stroke-opacity="0.5" stroke-width="3.2"/>
<circle clip-path="url(#clip302)" cx="1249.37" cy="1120.33" r="14.4" fill="#009af9" fill-rule="evenodd" fill-opacity="0.5" stroke="#000000" stroke-opacity="0.5" stroke-width="3.2"/>
<circle clip-path="url(#clip302)" cx="982.385" cy="984.279" r="14.4" fill="#009af9" fill-rule="evenodd" fill-opacity="0.5" stroke="#000000" stroke-opacity="0.5" stroke-width="3.2"/>
<circle clip-path="url(#clip302)" cx="2037.13" cy="314.437" r="14.4" fill="#009af9" fill-rule="evenodd" fill-opacity="0.5" stroke="#000000" stroke-opacity="0.5" stroke-width="3.2"/>
<circle clip-path="url(#clip302)" cx="1499.47" cy="569.56" r="14.4" fill="#009af9" fill-rule="evenodd" fill-opacity="0.5" stroke="#000000" stroke-opacity="0.5" stroke-width="3.2"/>
<circle clip-path="url(#clip302)" cx="946.978" cy="650.131" r="14.4" fill="#009af9" fill-rule="evenodd" fill-opacity="0.5" stroke="#000000" stroke-opacity="0.5" stroke-width="3.2"/>
<circle clip-path="url(#clip302)" cx="1216.62" cy="314.579" r="14.4" fill="#009af9" fill-rule="evenodd" fill-opacity="0.5" stroke="#000000" stroke-opacity="0.5" stroke-width="3.2"/>
<circle clip-path="url(#clip302)" cx="436.115" cy="671.95" r="14.4" fill="#009af9" fill-rule="evenodd" fill-opacity="0.5" stroke="#000000" stroke-opacity="0.5" stroke-width="3.2"/>
<circle clip-path="url(#clip302)" cx="209.891" cy="1002.81" r="14.4" fill="#009af9" fill-rule="evenodd" fill-opacity="0.5" stroke="#000000" stroke-opacity="0.5" stroke-width="3.2"/>
<circle clip-path="url(#clip302)" cx="1361.81" cy="520.906" r="14.4" fill="#009af9" fill-rule="evenodd" fill-opacity="0.5" stroke="#000000" stroke-opacity="0.5" stroke-width="3.2"/>
<circle clip-path="url(#clip302)" cx="1467.2" cy="87.9763" r="14.4" fill="#009af9" fill-rule="evenodd" fill-opacity="0.5" stroke="#000000" stroke-opacity="0.5" stroke-width="3.2"/>
<circle clip-path="url(#clip302)" cx="435.944" cy="839.666" r="14.4" fill="#009af9" fill-rule="evenodd" fill-opacity="0.5" stroke="#000000" stroke-opacity="0.5" stroke-width="3.2"/>
<circle clip-path="url(#clip302)" cx="1097.96" cy="1031.08" r="14.4" fill="#009af9" fill-rule="evenodd" fill-opacity="0.5" stroke="#000000" stroke-opacity="0.5" stroke-width="3.2"/>
<circle clip-path="url(#clip302)" cx="738.573" cy="527.817" r="14.4" fill="#009af9" fill-rule="evenodd" fill-opacity="0.5" stroke="#000000" stroke-opacity="0.5" stroke-width="3.2"/>
<circle clip-path="url(#clip302)" cx="1534.97" cy="393.607" r="14.4" fill="#009af9" fill-rule="evenodd" fill-opacity="0.5" stroke="#000000" stroke-opacity="0.5" stroke-width="3.2"/>
<circle clip-path="url(#clip302)" cx="1325.77" cy="458.864" r="14.4" fill="#009af9" fill-rule="evenodd" fill-opacity="0.5" stroke="#000000" stroke-opacity="0.5" stroke-width="3.2"/>
<circle clip-path="url(#clip302)" cx="1062.44" cy="414.479" r="14.4" fill="#009af9" fill-rule="evenodd" fill-opacity="0.5" stroke="#000000" stroke-opacity="0.5" stroke-width="3.2"/>
<circle clip-path="url(#clip302)" cx="1251.42" cy="549.198" r="14.4" fill="#009af9" fill-rule="evenodd" fill-opacity="0.5" stroke="#000000" stroke-opacity="0.5" stroke-width="3.2"/>
<circle clip-path="url(#clip302)" cx="2290.34" cy="713.075" r="14.4" fill="#009af9" fill-rule="evenodd" fill-opacity="0.5" stroke="#000000" stroke-opacity="0.5" stroke-width="3.2"/>
<circle clip-path="url(#clip302)" cx="981.141" cy="847.845" r="14.4" fill="#009af9" fill-rule="evenodd" fill-opacity="0.5" stroke="#000000" stroke-opacity="0.5" stroke-width="3.2"/>
<circle clip-path="url(#clip302)" cx="1853" cy="682.789" r="14.4" fill="#009af9" fill-rule="evenodd" fill-opacity="0.5" stroke="#000000" stroke-opacity="0.5" stroke-width="3.2"/>
<circle clip-path="url(#clip302)" cx="1022.87" cy="776.1" r="14.4" fill="#009af9" fill-rule="evenodd" fill-opacity="0.5" stroke="#000000" stroke-opacity="0.5" stroke-width="3.2"/>
<circle clip-path="url(#clip302)" cx="1157.82" cy="717.097" r="14.4" fill="#009af9" fill-rule="evenodd" fill-opacity="0.5" stroke="#000000" stroke-opacity="0.5" stroke-width="3.2"/>
<circle clip-path="url(#clip302)" cx="1100.15" cy="287.065" r="14.4" fill="#009af9" fill-rule="evenodd" fill-opacity="0.5" stroke="#000000" stroke-opacity="0.5" stroke-width="3.2"/>
<circle clip-path="url(#clip302)" cx="1361.84" cy="988.848" r="14.4" fill="#009af9" fill-rule="evenodd" fill-opacity="0.5" stroke="#000000" stroke-opacity="0.5" stroke-width="3.2"/>
<circle clip-path="url(#clip302)" cx="1083.35" cy="1445.72" r="14.4" fill="#009af9" fill-rule="evenodd" fill-opacity="0.5" stroke="#000000" stroke-opacity="0.5" stroke-width="3.2"/>
<circle clip-path="url(#clip302)" cx="1747.58" cy="692.154" r="14.4" fill="#009af9" fill-rule="evenodd" fill-opacity="0.5" stroke="#000000" stroke-opacity="0.5" stroke-width="3.2"/>
<path clip-path="url(#clip302)" d="M209.891 1002.81 L1083.35 1445.72 L2290.34 713.075 L2037.13 314.437 L1467.2 87.9763 L1100.15 287.065 L436.115 671.95 L209.891 1002.81 L209.891 1002.81  Z" fill="#e26f46" fill-rule="evenodd" fill-opacity="0.2"/>
<polyline clip-path="url(#clip302)" style="stroke:#000000; stroke-linecap:round; stroke-linejoin:round; stroke-width:4; stroke-opacity:0.2; fill:none" points="209.891,1002.81 1083.35,1445.72 2290.34,713.075 2037.13,314.437 1467.2,87.9763 1100.15,287.065 436.115,671.95 209.891,1002.81 "/>
</svg>
