<?xml version="1.0" encoding="utf-8"?>
<svg xmlns="http://www.w3.org/2000/svg" xmlns:xlink="http://www.w3.org/1999/xlink" width="600" height="400" viewBox="0 0 2400 1600">
<defs>
  <clipPath id="clip850">
    <rect x="0" y="0" width="2400" height="1600"/>
  </clipPath>
</defs>
<path clip-path="url(#clip850)" d="M0 1600 L2400 1600 L2400 0 L0 0  Z" fill="#ffffff" fill-rule="evenodd" fill-opacity="1"/>
<defs>
  <clipPath id="clip851">
    <rect x="480" y="0" width="1681" height="1600"/>
  </clipPath>
</defs>
<path clip-path="url(#clip850)" d="M148.057 1486.45 L2352.76 1486.45 L2352.76 47.2441 L148.057 47.2441  Z" fill="#ffffff" fill-rule="evenodd" fill-opacity="1"/>
<defs>
  <clipPath id="clip852">
    <rect x="148" y="47" width="2206" height="1440"/>
  </clipPath>
</defs>
<polyline clip-path="url(#clip852)" style="stroke:#000000; stroke-linecap:round; stroke-linejoin:round; stroke-width:2; stroke-opacity:0.1; fill:none" points="163.358,1486.45 163.358,47.2441 "/>
<polyline clip-path="url(#clip852)" style="stroke:#000000; stroke-linecap:round; stroke-linejoin:round; stroke-width:2; stroke-opacity:0.1; fill:none" points="593.407,1486.45 593.407,47.2441 "/>
<polyline clip-path="url(#clip852)" style="stroke:#000000; stroke-linecap:round; stroke-linejoin:round; stroke-width:2; stroke-opacity:0.1; fill:none" points="1023.46,1486.45 1023.46,47.2441 "/>
<polyline clip-path="url(#clip852)" style="stroke:#000000; stroke-linecap:round; stroke-linejoin:round; stroke-width:2; stroke-opacity:0.1; fill:none" points="1453.5,1486.45 1453.5,47.2441 "/>
<polyline clip-path="url(#clip852)" style="stroke:#000000; stroke-linecap:round; stroke-linejoin:round; stroke-width:2; stroke-opacity:0.1; fill:none" points="1883.55,1486.45 1883.55,47.2441 "/>
<polyline clip-path="url(#clip852)" style="stroke:#000000; stroke-linecap:round; stroke-linejoin:round; stroke-width:2; stroke-opacity:0.1; fill:none" points="2313.6,1486.45 2313.6,47.2441 "/>
<polyline clip-path="url(#clip850)" style="stroke:#000000; stroke-linecap:round; stroke-linejoin:round; stroke-width:4; stroke-opacity:1; fill:none" points="148.057,1486.45 2352.76,1486.45 "/>
<polyline clip-path="url(#clip850)" style="stroke:#000000; stroke-linecap:round; stroke-linejoin:round; stroke-width:4; stroke-opacity:1; fill:none" points="163.358,1486.45 163.358,1467.55 "/>
<polyline clip-path="url(#clip850)" style="stroke:#000000; stroke-linecap:round; stroke-linejoin:round; stroke-width:4; stroke-opacity:1; fill:none" points="593.407,1486.45 593.407,1467.55 "/>
<polyline clip-path="url(#clip850)" style="stroke:#000000; stroke-linecap:round; stroke-linejoin:round; stroke-width:4; stroke-opacity:1; fill:none" points="1023.46,1486.45 1023.46,1467.55 "/>
<polyline clip-path="url(#clip850)" style="stroke:#000000; stroke-linecap:round; stroke-linejoin:round; stroke-width:4; stroke-opacity:1; fill:none" points="1453.5,1486.45 1453.5,1467.55 "/>
<polyline clip-path="url(#clip850)" style="stroke:#000000; stroke-linecap:round; stroke-linejoin:round; stroke-width:4; stroke-opacity:1; fill:none" points="1883.55,1486.45 1883.55,1467.55 "/>
<polyline clip-path="url(#clip850)" style="stroke:#000000; stroke-linecap:round; stroke-linejoin:round; stroke-width:4; stroke-opacity:1; fill:none" points="2313.6,1486.45 2313.6,1467.55 "/>
<path clip-path="url(#clip850)" d="M133.301 1532.02 L162.976 1532.02 L162.976 1535.95 L133.301 1535.95 L133.301 1532.02 Z" fill="#000000" fill-rule="nonzero" fill-opacity="1" /><path clip-path="url(#clip850)" d="M177.097 1544.91 L193.416 1544.91 L193.416 1548.85 L171.472 1548.85 L171.472 1544.91 Q174.134 1542.16 178.717 1537.53 Q183.323 1532.88 184.504 1531.53 Q186.749 1529.01 187.629 1527.27 Q188.532 1525.51 188.532 1523.82 Q188.532 1521.07 186.587 1519.33 Q184.666 1517.6 181.564 1517.6 Q179.365 1517.6 176.911 1518.36 Q174.481 1519.13 171.703 1520.68 L171.703 1515.95 Q174.527 1514.82 176.981 1514.24 Q179.435 1513.66 181.472 1513.66 Q186.842 1513.66 190.036 1516.35 Q193.231 1519.03 193.231 1523.52 Q193.231 1525.65 192.421 1527.57 Q191.634 1529.47 189.527 1532.07 Q188.948 1532.74 185.847 1535.95 Q182.745 1539.15 177.097 1544.91 Z" fill="#000000" fill-rule="nonzero" fill-opacity="1" /><path clip-path="url(#clip850)" d="M563.164 1532.02 L592.84 1532.02 L592.84 1535.95 L563.164 1535.95 L563.164 1532.02 Z" fill="#000000" fill-rule="nonzero" fill-opacity="1" /><path clip-path="url(#clip850)" d="M603.743 1544.91 L611.381 1544.91 L611.381 1518.55 L603.071 1520.21 L603.071 1515.95 L611.335 1514.29 L616.011 1514.29 L616.011 1544.91 L623.65 1544.91 L623.65 1548.85 L603.743 1548.85 L603.743 1544.91 Z" fill="#000000" fill-rule="nonzero" fill-opacity="1" /><path clip-path="url(#clip850)" d="M1023.46 1517.37 Q1019.84 1517.37 1018.02 1520.93 Q1016.21 1524.47 1016.21 1531.6 Q1016.21 1538.71 1018.02 1542.27 Q1019.84 1545.82 1023.46 1545.82 Q1027.09 1545.82 1028.9 1542.27 Q1030.72 1538.71 1030.72 1531.6 Q1030.72 1524.47 1028.9 1520.93 Q1027.09 1517.37 1023.46 1517.37 M1023.46 1513.66 Q1029.27 1513.66 1032.32 1518.27 Q1035.4 1522.85 1035.4 1531.6 Q1035.4 1540.33 1032.32 1544.94 Q1029.27 1549.52 1023.46 1549.52 Q1017.65 1549.52 1014.57 1544.94 Q1011.51 1540.33 1011.51 1531.6 Q1011.51 1522.85 1014.57 1518.27 Q1017.65 1513.66 1023.46 1513.66 Z" fill="#000000" fill-rule="nonzero" fill-opacity="1" /><path clip-path="url(#clip850)" d="M1443.89 1544.91 L1451.53 1544.91 L1451.53 1518.55 L1443.22 1520.21 L1443.22 1515.95 L1451.48 1514.29 L1456.16 1514.29 L1456.16 1544.91 L1463.79 1544.91 L1463.79 1548.85 L1443.89 1548.85 L1443.89 1544.91 Z" fill="#000000" fill-rule="nonzero" fill-opacity="1" /><path clip-path="url(#clip850)" d="M1878.21 1544.91 L1894.53 1544.91 L1894.53 1548.85 L1872.58 1548.85 L1872.58 1544.91 Q1875.24 1542.16 1879.83 1537.53 Q1884.43 1532.88 1885.61 1531.53 Q1887.86 1529.01 1888.74 1527.27 Q1889.64 1525.51 1889.64 1523.82 Q1889.64 1521.07 1887.7 1519.33 Q1885.78 1517.6 1882.67 1517.6 Q1880.47 1517.6 1878.02 1518.36 Q1875.59 1519.13 1872.81 1520.68 L1872.81 1515.95 Q1875.64 1514.82 1878.09 1514.24 Q1880.54 1513.66 1882.58 1513.66 Q1887.95 1513.66 1891.15 1516.35 Q1894.34 1519.03 1894.34 1523.52 Q1894.34 1525.65 1893.53 1527.57 Q1892.74 1529.47 1890.64 1532.07 Q1890.06 1532.74 1886.96 1535.95 Q1883.85 1539.15 1878.21 1544.91 Z" fill="#000000" fill-rule="nonzero" fill-opacity="1" /><path clip-path="url(#clip850)" d="M2317.85 1530.21 Q2321.21 1530.93 2323.08 1533.2 Q2324.98 1535.47 2324.98 1538.8 Q2324.98 1543.92 2321.46 1546.72 Q2317.94 1549.52 2311.46 1549.52 Q2309.29 1549.52 2306.97 1549.08 Q2304.68 1548.66 2302.22 1547.81 L2302.22 1543.29 Q2304.17 1544.43 2306.48 1545.01 Q2308.8 1545.58 2311.32 1545.58 Q2315.72 1545.58 2318.01 1543.85 Q2320.33 1542.11 2320.33 1538.8 Q2320.33 1535.75 2318.17 1534.03 Q2316.04 1532.3 2312.22 1532.3 L2308.2 1532.3 L2308.2 1528.45 L2312.41 1528.45 Q2315.86 1528.45 2317.69 1527.09 Q2319.52 1525.7 2319.52 1523.11 Q2319.52 1520.45 2317.62 1519.03 Q2315.74 1517.6 2312.22 1517.6 Q2310.3 1517.6 2308.1 1518.01 Q2305.91 1518.43 2303.27 1519.31 L2303.27 1515.14 Q2305.93 1514.4 2308.24 1514.03 Q2310.58 1513.66 2312.64 1513.66 Q2317.97 1513.66 2321.07 1516.09 Q2324.17 1518.5 2324.17 1522.62 Q2324.17 1525.49 2322.53 1527.48 Q2320.88 1529.45 2317.85 1530.21 Z" fill="#000000" fill-rule="nonzero" fill-opacity="1" /><polyline clip-path="url(#clip852)" style="stroke:#000000; stroke-linecap:round; stroke-linejoin:round; stroke-width:2; stroke-opacity:0.1; fill:none" points="148.057,1478.71 2352.76,1478.71 "/>
<polyline clip-path="url(#clip852)" style="stroke:#000000; stroke-linecap:round; stroke-linejoin:round; stroke-width:2; stroke-opacity:0.1; fill:none" points="148.057,1220.13 2352.76,1220.13 "/>
<polyline clip-path="url(#clip852)" style="stroke:#000000; stroke-linecap:round; stroke-linejoin:round; stroke-width:2; stroke-opacity:0.1; fill:none" points="148.057,961.552 2352.76,961.552 "/>
<polyline clip-path="url(#clip852)" style="stroke:#000000; stroke-linecap:round; stroke-linejoin:round; stroke-width:2; stroke-opacity:0.1; fill:none" points="148.057,702.974 2352.76,702.974 "/>
<polyline clip-path="url(#clip852)" style="stroke:#000000; stroke-linecap:round; stroke-linejoin:round; stroke-width:2; stroke-opacity:0.1; fill:none" points="148.057,444.396 2352.76,444.396 "/>
<polyline clip-path="url(#clip852)" style="stroke:#000000; stroke-linecap:round; stroke-linejoin:round; stroke-width:2; stroke-opacity:0.1; fill:none" points="148.057,185.817 2352.76,185.817 "/>
<polyline clip-path="url(#clip850)" style="stroke:#000000; stroke-linecap:round; stroke-linejoin:round; stroke-width:4; stroke-opacity:1; fill:none" points="148.057,1486.45 148.057,47.2441 "/>
<polyline clip-path="url(#clip850)" style="stroke:#000000; stroke-linecap:round; stroke-linejoin:round; stroke-width:4; stroke-opacity:1; fill:none" points="148.057,1478.71 166.954,1478.71 "/>
<polyline clip-path="url(#clip850)" style="stroke:#000000; stroke-linecap:round; stroke-linejoin:round; stroke-width:4; stroke-opacity:1; fill:none" points="148.057,1220.13 166.954,1220.13 "/>
<polyline clip-path="url(#clip850)" style="stroke:#000000; stroke-linecap:round; stroke-linejoin:round; stroke-width:4; stroke-opacity:1; fill:none" points="148.057,961.552 166.954,961.552 "/>
<polyline clip-path="url(#clip850)" style="stroke:#000000; stroke-linecap:round; stroke-linejoin:round; stroke-width:4; stroke-opacity:1; fill:none" points="148.057,702.974 166.954,702.974 "/>
<polyline clip-path="url(#clip850)" style="stroke:#000000; stroke-linecap:round; stroke-linejoin:round; stroke-width:4; stroke-opacity:1; fill:none" points="148.057,444.396 166.954,444.396 "/>
<polyline clip-path="url(#clip850)" style="stroke:#000000; stroke-linecap:round; stroke-linejoin:round; stroke-width:4; stroke-opacity:1; fill:none" points="148.057,185.817 166.954,185.817 "/>
<path clip-path="url(#clip850)" d="M50.9921 1479.16 L80.6679 1479.16 L80.6679 1483.09 L50.9921 1483.09 L50.9921 1479.16 Z" fill="#000000" fill-rule="nonzero" fill-opacity="1" /><path clip-path="url(#clip850)" d="M104.927 1477.35 Q108.283 1478.07 110.158 1480.34 Q112.057 1482.61 112.057 1485.94 Q112.057 1491.06 108.538 1493.86 Q105.02 1496.66 98.5382 1496.66 Q96.3623 1496.66 94.0475 1496.22 Q91.7558 1495.8 89.3021 1494.95 L89.3021 1490.43 Q91.2465 1491.57 93.5613 1492.15 Q95.8761 1492.72 98.3993 1492.72 Q102.797 1492.72 105.089 1490.99 Q107.404 1489.25 107.404 1485.94 Q107.404 1482.89 105.251 1481.17 Q103.121 1479.44 99.3021 1479.44 L95.2743 1479.44 L95.2743 1475.59 L99.4872 1475.59 Q102.936 1475.59 104.765 1474.23 Q106.594 1472.84 106.594 1470.25 Q106.594 1467.59 104.696 1466.17 Q102.821 1464.74 99.3021 1464.74 Q97.3808 1464.74 95.1817 1465.15 Q92.9826 1465.57 90.3438 1466.45 L90.3438 1462.28 Q93.0058 1461.54 95.3206 1461.17 Q97.6585 1460.8 99.7187 1460.8 Q105.043 1460.8 108.145 1463.23 Q111.246 1465.64 111.246 1469.76 Q111.246 1472.63 109.603 1474.62 Q107.959 1476.59 104.927 1477.35 Z" fill="#000000" fill-rule="nonzero" fill-opacity="1" /><path clip-path="url(#clip850)" d="M51.9412 1220.58 L81.617 1220.58 L81.617 1224.52 L51.9412 1224.52 L51.9412 1220.58 Z" fill="#000000" fill-rule="nonzero" fill-opacity="1" /><path clip-path="url(#clip850)" d="M95.7373 1233.47 L112.057 1233.47 L112.057 1237.41 L90.1123 1237.41 L90.1123 1233.47 Q92.7743 1230.72 97.3576 1226.09 Q101.964 1221.44 103.145 1220.1 Q105.39 1217.57 106.27 1215.84 Q107.172 1214.08 107.172 1212.39 Q107.172 1209.63 105.228 1207.9 Q103.307 1206.16 100.205 1206.16 Q98.0058 1206.16 95.5521 1206.92 Q93.1215 1207.69 90.3438 1209.24 L90.3438 1204.52 Q93.1678 1203.38 95.6215 1202.8 Q98.0752 1202.23 100.112 1202.23 Q105.483 1202.23 108.677 1204.91 Q111.871 1207.6 111.871 1212.09 Q111.871 1214.22 111.061 1216.14 Q110.274 1218.04 108.168 1220.63 Q107.589 1221.3 104.487 1224.52 Q101.385 1227.71 95.7373 1233.47 Z" fill="#000000" fill-rule="nonzero" fill-opacity="1" /><path clip-path="url(#clip850)" d="M51.5708 962.003 L81.2466 962.003 L81.2466 965.938 L51.5708 965.938 L51.5708 962.003 Z" fill="#000000" fill-rule="nonzero" fill-opacity="1" /><path clip-path="url(#clip850)" d="M92.1493 974.897 L99.7882 974.897 L99.7882 948.531 L91.478 950.198 L91.478 945.939 L99.7419 944.272 L104.418 944.272 L104.418 974.897 L112.057 974.897 L112.057 978.832 L92.1493 978.832 L92.1493 974.897 Z" fill="#000000" fill-rule="nonzero" fill-opacity="1" /><path clip-path="url(#clip850)" d="M100.112 688.772 Q96.5011 688.772 94.6724 692.337 Q92.8669 695.879 92.8669 703.008 Q92.8669 710.115 94.6724 713.68 Q96.5011 717.221 100.112 717.221 Q103.746 717.221 105.552 713.68 Q107.381 710.115 107.381 703.008 Q107.381 695.879 105.552 692.337 Q103.746 688.772 100.112 688.772 M100.112 685.069 Q105.922 685.069 108.978 689.675 Q112.057 694.258 112.057 703.008 Q112.057 711.735 108.978 716.342 Q105.922 720.925 100.112 720.925 Q94.3021 720.925 91.2234 716.342 Q88.1679 711.735 88.1679 703.008 Q88.1679 694.258 91.2234 689.675 Q94.3021 685.069 100.112 685.069 Z" fill="#000000" fill-rule="nonzero" fill-opacity="1" /><path clip-path="url(#clip850)" d="M92.1493 457.74 L99.7882 457.74 L99.7882 431.375 L91.478 433.041 L91.478 428.782 L99.7419 427.116 L104.418 427.116 L104.418 457.74 L112.057 457.74 L112.057 461.676 L92.1493 461.676 L92.1493 457.74 Z" fill="#000000" fill-rule="nonzero" fill-opacity="1" /><path clip-path="url(#clip850)" d="M95.7373 199.162 L112.057 199.162 L112.057 203.097 L90.1123 203.097 L90.1123 199.162 Q92.7743 196.408 97.3576 191.778 Q101.964 187.125 103.145 185.783 Q105.39 183.26 106.27 181.523 Q107.172 179.764 107.172 178.074 Q107.172 175.32 105.228 173.584 Q103.307 171.848 100.205 171.848 Q98.0058 171.848 95.5521 172.611 Q93.1215 173.375 90.3438 174.926 L90.3438 170.204 Q93.1678 169.07 95.6215 168.491 Q98.0752 167.912 100.112 167.912 Q105.483 167.912 108.677 170.598 Q111.871 173.283 111.871 177.773 Q111.871 179.903 111.061 181.824 Q110.274 183.723 108.168 186.315 Q107.589 186.986 104.487 190.204 Q101.385 193.398 95.7373 199.162 Z" fill="#000000" fill-rule="nonzero" fill-opacity="1" /><circle clip-path="url(#clip852)" cx="1065.13" cy="752.953" r="14.4" fill="#009af9" fill-rule="evenodd" fill-opacity="0.5" stroke="#000000" stroke-opacity="0.5" stroke-width="3.2"/>
<circle clip-path="url(#clip852)" cx="2290.36" cy="408.323" r="14.4" fill="#009af9" fill-rule="evenodd" fill-opacity="0.5" stroke="#000000" stroke-opacity="0.5" stroke-width="3.2"/>
<circle clip-path="url(#clip852)" cx="809.373" cy="989.409" r="14.4" fill="#009af9" fill-rule="evenodd" fill-opacity="0.5" stroke="#000000" stroke-opacity="0.5" stroke-width="3.2"/>
<circle clip-path="url(#clip852)" cx="459.553" cy="455.213" r="14.4" fill="#009af9" fill-rule="evenodd" fill-opacity="0.5" stroke="#000000" stroke-opacity="0.5" stroke-width="3.2"/>
<circle clip-path="url(#clip852)" cx="1080.44" cy="738.868" r="14.4" fill="#009af9" fill-rule="evenodd" fill-opacity="0.5" stroke="#000000" stroke-opacity="0.5" stroke-width="3.2"/>
<circle clip-path="url(#clip852)" cx="530.24" cy="618.801" r="14.4" fill="#009af9" fill-rule="evenodd" fill-opacity="0.5" stroke="#000000" stroke-opacity="0.5" stroke-width="3.2"/>
<circle clip-path="url(#clip852)" cx="1363.11" cy="932.782" r="14.4" fill="#009af9" fill-rule="evenodd" fill-opacity="0.5" stroke="#000000" stroke-opacity="0.5" stroke-width="3.2"/>
<circle clip-path="url(#clip852)" cx="524.839" cy="598.851" r="14.4" fill="#009af9" fill-rule="evenodd" fill-opacity="0.5" stroke="#000000" stroke-opacity="0.5" stroke-width="3.2"/>
<circle clip-path="url(#clip852)" cx="942.105" cy="344.396" r="14.4" fill="#009af9" fill-rule="evenodd" fill-opacity="0.5" stroke="#000000" stroke-opacity="0.5" stroke-width="3.2"/>
<circle clip-path="url(#clip852)" cx="1704.42" cy="798.456" r="14.4" fill="#009af9" fill-rule="evenodd" fill-opacity="0.5" stroke="#000000" stroke-opacity="0.5" stroke-width="3.2"/>
<circle clip-path="url(#clip852)" cx="1985.84" cy="772.451" r="14.4" fill="#009af9" fill-rule="evenodd" fill-opacity="0.5" stroke="#000000" stroke-opacity="0.5" stroke-width="3.2"/>
<circle clip-path="url(#clip852)" cx="1284.72" cy="705.321" r="14.4" fill="#009af9" fill-rule="evenodd" fill-opacity="0.5" stroke="#000000" stroke-opacity="0.5" stroke-width="3.2"/>
<circle clip-path="url(#clip852)" cx="767.214" cy="1100.22" r="14.4" fill="#009af9" fill-rule="evenodd" fill-opacity="0.5" stroke="#000000" stroke-opacity="0.5" stroke-width="3.2"/>
<circle clip-path="url(#clip852)" cx="965.781" cy="87.9763" r="14.4" fill="#009af9" fill-rule="evenodd" fill-opacity="0.5" stroke="#000000" stroke-opacity="0.5" stroke-width="3.2"/>
<circle clip-path="url(#clip852)" cx="1436.74" cy="417.427" r="14.4" fill="#009af9" fill-rule="evenodd" fill-opacity="0.5" stroke="#000000" stroke-opacity="0.5" stroke-width="3.2"/>
<circle clip-path="url(#clip852)" cx="1105.73" cy="930.026" r="14.4" fill="#009af9" fill-rule="evenodd" fill-opacity="0.5" stroke="#000000" stroke-opacity="0.5" stroke-width="3.2"/>
<circle clip-path="url(#clip852)" cx="1636.21" cy="1021.81" r="14.4" fill="#009af9" fill-rule="evenodd" fill-opacity="0.5" stroke="#000000" stroke-opacity="0.5" stroke-width="3.2"/>
<circle clip-path="url(#clip852)" cx="898.81" cy="1445.72" r="14.4" fill="#009af9" fill-rule="evenodd" fill-opacity="0.5" stroke="#000000" stroke-opacity="0.5" stroke-width="3.2"/>
<circle clip-path="url(#clip852)" cx="1094.82" cy="159.284" r="14.4" fill="#009af9" fill-rule="evenodd" fill-opacity="0.5" stroke="#000000" stroke-opacity="0.5" stroke-width="3.2"/>
<circle clip-path="url(#clip852)" cx="786.955" cy="894.53" r="14.4" fill="#009af9" fill-rule="evenodd" fill-opacity="0.5" stroke="#000000" stroke-opacity="0.5" stroke-width="3.2"/>
<circle clip-path="url(#clip852)" cx="1241.75" cy="834.295" r="14.4" fill="#009af9" fill-rule="evenodd" fill-opacity="0.5" stroke="#000000" stroke-opacity="0.5" stroke-width="3.2"/>
<circle clip-path="url(#clip852)" cx="654.863" cy="285.198" r="14.4" fill="#009af9" fill-rule="evenodd" fill-opacity="0.5" stroke="#000000" stroke-opacity="0.5" stroke-width="3.2"/>
<circle clip-path="url(#clip852)" cx="460.321" cy="1038.47" r="14.4" fill="#009af9" fill-rule="evenodd" fill-opacity="0.5" stroke="#000000" stroke-opacity="0.5" stroke-width="3.2"/>
<circle clip-path="url(#clip852)" cx="385.504" cy="678.091" r="14.4" fill="#009af9" fill-rule="evenodd" fill-opacity="0.5" stroke="#000000" stroke-opacity="0.5" stroke-width="3.2"/>
<circle clip-path="url(#clip852)" cx="210.454" cy="711.398" r="14.4" fill="#009af9" fill-rule="evenodd" fill-opacity="0.5" stroke="#000000" stroke-opacity="0.5" stroke-width="3.2"/>
<circle clip-path="url(#clip852)" cx="422.702" cy="1063.41" r="14.4" fill="#009af9" fill-rule="evenodd" fill-opacity="0.5" stroke="#000000" stroke-opacity="0.5" stroke-width="3.2"/>
<circle clip-path="url(#clip852)" cx="1433.19" cy="539.173" r="14.4" fill="#009af9" fill-rule="evenodd" fill-opacity="0.5" stroke="#000000" stroke-opacity="0.5" stroke-width="3.2"/>
<circle clip-path="url(#clip852)" cx="1117.91" cy="593.267" r="14.4" fill="#009af9" fill-rule="evenodd" fill-opacity="0.5" stroke="#000000" stroke-opacity="0.5" stroke-width="3.2"/>
<circle clip-path="url(#clip852)" cx="1496.73" cy="665.182" r="14.4" fill="#009af9" fill-rule="evenodd" fill-opacity="0.5" stroke="#000000" stroke-opacity="0.5" stroke-width="3.2"/>
<circle clip-path="url(#clip852)" cx="968.602" cy="976.82" r="14.4" fill="#009af9" fill-rule="evenodd" fill-opacity="0.5" stroke="#000000" stroke-opacity="0.5" stroke-width="3.2"/>
<path clip-path="url(#clip852)" d="M210.454 711.398 L422.702 1063.41 L898.81 1445.72 L1636.21 1021.81 L1985.84 772.451 L2290.36 408.323 L965.781 87.9763 L654.863 285.198 L459.553 455.213 L210.454 711.398 L210.454 711.398  Z" fill="#e26f46" fill-rule="evenodd" fill-opacity="0.2"/>
<polyline clip-path="url(#clip852)" style="stroke:#000000; stroke-linecap:round; stroke-linejoin:round; stroke-width:4; stroke-opacity:0.2; fill:none" points="210.454,711.398 422.702,1063.41 898.81,1445.72 1636.21,1021.81 1985.84,772.451 2290.36,408.323 965.781,87.9763 654.863,285.198 459.553,455.213 210.454,711.398 "/>
</svg>
