<?xml version="1.0" encoding="utf-8"?>
<svg xmlns="http://www.w3.org/2000/svg" xmlns:xlink="http://www.w3.org/1999/xlink" width="600" height="400" viewBox="0 0 2400 1600">
<defs>
  <clipPath id="clip650">
    <rect x="0" y="0" width="2400" height="1600"/>
  </clipPath>
</defs>
<path clip-path="url(#clip650)" d="M0 1600 L2400 1600 L2400 0 L0 0  Z" fill="#ffffff" fill-rule="evenodd" fill-opacity="1"/>
<defs>
  <clipPath id="clip651">
    <rect x="147" y="47" width="2206" height="1440"/>
  </clipPath>
</defs>
<path clip-path="url(#clip650)" d="M147.478 1486.45 L2352.76 1486.45 L2352.76 47.2441 L147.478 47.2441  Z" fill="#ffffff" fill-rule="evenodd" fill-opacity="1"/>
<polyline clip-path="url(#clip651)" style="stroke:#000000; stroke-linecap:round; stroke-linejoin:round; stroke-width:2; stroke-opacity:0.1; fill:none" points="454.231,1486.45 454.231,47.2441 "/>
<polyline clip-path="url(#clip651)" style="stroke:#000000; stroke-linecap:round; stroke-linejoin:round; stroke-width:2; stroke-opacity:0.1; fill:none" points="998.696,1486.45 998.696,47.2441 "/>
<polyline clip-path="url(#clip651)" style="stroke:#000000; stroke-linecap:round; stroke-linejoin:round; stroke-width:2; stroke-opacity:0.1; fill:none" points="1543.16,1486.45 1543.16,47.2441 "/>
<polyline clip-path="url(#clip651)" style="stroke:#000000; stroke-linecap:round; stroke-linejoin:round; stroke-width:2; stroke-opacity:0.1; fill:none" points="2087.63,1486.45 2087.63,47.2441 "/>
<polyline clip-path="url(#clip651)" style="stroke:#000000; stroke-linecap:round; stroke-linejoin:round; stroke-width:2; stroke-opacity:0.1; fill:none" points="147.478,1213.04 2352.76,1213.04 "/>
<polyline clip-path="url(#clip651)" style="stroke:#000000; stroke-linecap:round; stroke-linejoin:round; stroke-width:2; stroke-opacity:0.1; fill:none" points="147.478,877.442 2352.76,877.442 "/>
<polyline clip-path="url(#clip651)" style="stroke:#000000; stroke-linecap:round; stroke-linejoin:round; stroke-width:2; stroke-opacity:0.1; fill:none" points="147.478,541.839 2352.76,541.839 "/>
<polyline clip-path="url(#clip651)" style="stroke:#000000; stroke-linecap:round; stroke-linejoin:round; stroke-width:2; stroke-opacity:0.1; fill:none" points="147.478,206.235 2352.76,206.235 "/>
<polyline clip-path="url(#clip650)" style="stroke:#000000; stroke-linecap:round; stroke-linejoin:round; stroke-width:4; stroke-opacity:1; fill:none" points="147.478,1486.45 2352.76,1486.45 "/>
<polyline clip-path="url(#clip650)" style="stroke:#000000; stroke-linecap:round; stroke-linejoin:round; stroke-width:4; stroke-opacity:1; fill:none" points="454.231,1486.45 454.231,1467.55 "/>
<polyline clip-path="url(#clip650)" style="stroke:#000000; stroke-linecap:round; stroke-linejoin:round; stroke-width:4; stroke-opacity:1; fill:none" points="998.696,1486.45 998.696,1467.55 "/>
<polyline clip-path="url(#clip650)" style="stroke:#000000; stroke-linecap:round; stroke-linejoin:round; stroke-width:4; stroke-opacity:1; fill:none" points="1543.16,1486.45 1543.16,1467.55 "/>
<polyline clip-path="url(#clip650)" style="stroke:#000000; stroke-linecap:round; stroke-linejoin:round; stroke-width:4; stroke-opacity:1; fill:none" points="2087.63,1486.45 2087.63,1467.55 "/>
<path clip-path="url(#clip650)" d="M423.988 1532.02 L453.664 1532.02 L453.664 1535.95 L423.988 1535.95 L423.988 1532.02 Z" fill="#000000" fill-rule="nonzero" fill-opacity="1" /><path clip-path="url(#clip650)" d="M464.566 1544.91 L472.205 1544.91 L472.205 1518.55 L463.895 1520.21 L463.895 1515.95 L472.159 1514.29 L476.835 1514.29 L476.835 1544.91 L484.474 1544.91 L484.474 1548.85 L464.566 1548.85 L464.566 1544.91 Z" fill="#000000" fill-rule="nonzero" fill-opacity="1" /><path clip-path="url(#clip650)" d="M998.696 1517.37 Q995.085 1517.37 993.256 1520.93 Q991.45 1524.47 991.45 1531.6 Q991.45 1538.71 993.256 1542.27 Q995.085 1545.82 998.696 1545.82 Q1002.33 1545.82 1004.14 1542.27 Q1005.96 1538.71 1005.96 1531.6 Q1005.96 1524.47 1004.14 1520.93 Q1002.33 1517.37 998.696 1517.37 M998.696 1513.66 Q1004.51 1513.66 1007.56 1518.27 Q1010.64 1522.85 1010.64 1531.6 Q1010.64 1540.33 1007.56 1544.94 Q1004.51 1549.52 998.696 1549.52 Q992.886 1549.52 989.807 1544.94 Q986.751 1540.33 986.751 1531.6 Q986.751 1522.85 989.807 1518.27 Q992.886 1513.66 998.696 1513.66 Z" fill="#000000" fill-rule="nonzero" fill-opacity="1" /><path clip-path="url(#clip650)" d="M1533.54 1544.91 L1541.18 1544.91 L1541.18 1518.55 L1532.87 1520.21 L1532.87 1515.95 L1541.14 1514.29 L1545.81 1514.29 L1545.81 1544.91 L1553.45 1544.91 L1553.45 1548.85 L1533.54 1548.85 L1533.54 1544.91 Z" fill="#000000" fill-rule="nonzero" fill-opacity="1" /><path clip-path="url(#clip650)" d="M2082.28 1544.91 L2098.6 1544.91 L2098.6 1548.85 L2076.65 1548.85 L2076.65 1544.91 Q2079.32 1542.16 2083.9 1537.53 Q2088.51 1532.88 2089.69 1531.53 Q2091.93 1529.01 2092.81 1527.27 Q2093.71 1525.51 2093.71 1523.82 Q2093.71 1521.07 2091.77 1519.33 Q2089.85 1517.6 2086.75 1517.6 Q2084.55 1517.6 2082.09 1518.36 Q2079.66 1519.13 2076.89 1520.68 L2076.89 1515.95 Q2079.71 1514.82 2082.16 1514.24 Q2084.62 1513.66 2086.65 1513.66 Q2092.02 1513.66 2095.22 1516.35 Q2098.41 1519.03 2098.41 1523.52 Q2098.41 1525.65 2097.6 1527.57 Q2096.82 1529.47 2094.71 1532.07 Q2094.13 1532.74 2091.03 1535.95 Q2087.93 1539.15 2082.28 1544.91 Z" fill="#000000" fill-rule="nonzero" fill-opacity="1" /><polyline clip-path="url(#clip650)" style="stroke:#000000; stroke-linecap:round; stroke-linejoin:round; stroke-width:4; stroke-opacity:1; fill:none" points="147.478,1486.45 147.478,47.2441 "/>
<polyline clip-path="url(#clip650)" style="stroke:#000000; stroke-linecap:round; stroke-linejoin:round; stroke-width:4; stroke-opacity:1; fill:none" points="147.478,1213.04 166.376,1213.04 "/>
<polyline clip-path="url(#clip650)" style="stroke:#000000; stroke-linecap:round; stroke-linejoin:round; stroke-width:4; stroke-opacity:1; fill:none" points="147.478,877.442 166.376,877.442 "/>
<polyline clip-path="url(#clip650)" style="stroke:#000000; stroke-linecap:round; stroke-linejoin:round; stroke-width:4; stroke-opacity:1; fill:none" points="147.478,541.839 166.376,541.839 "/>
<polyline clip-path="url(#clip650)" style="stroke:#000000; stroke-linecap:round; stroke-linejoin:round; stroke-width:4; stroke-opacity:1; fill:none" points="147.478,206.235 166.376,206.235 "/>
<path clip-path="url(#clip650)" d="M50.9921 1213.5 L80.6679 1213.5 L80.6679 1217.43 L50.9921 1217.43 L50.9921 1213.5 Z" fill="#000000" fill-rule="nonzero" fill-opacity="1" /><path clip-path="url(#clip650)" d="M91.5706 1226.39 L99.2095 1226.39 L99.2095 1200.02 L90.8993 1201.69 L90.8993 1197.43 L99.1632 1195.76 L103.839 1195.76 L103.839 1226.39 L111.478 1226.39 L111.478 1230.32 L91.5706 1230.32 L91.5706 1226.39 Z" fill="#000000" fill-rule="nonzero" fill-opacity="1" /><path clip-path="url(#clip650)" d="M99.5335 863.24 Q95.9224 863.24 94.0937 866.805 Q92.2882 870.347 92.2882 877.476 Q92.2882 884.583 94.0937 888.148 Q95.9224 891.689 99.5335 891.689 Q103.168 891.689 104.973 888.148 Q106.802 884.583 106.802 877.476 Q106.802 870.347 104.973 866.805 Q103.168 863.24 99.5335 863.24 M99.5335 859.537 Q105.344 859.537 108.399 864.143 Q111.478 868.726 111.478 877.476 Q111.478 886.203 108.399 890.81 Q105.344 895.393 99.5335 895.393 Q93.7234 895.393 90.6447 890.81 Q87.5892 886.203 87.5892 877.476 Q87.5892 868.726 90.6447 864.143 Q93.7234 859.537 99.5335 859.537 Z" fill="#000000" fill-rule="nonzero" fill-opacity="1" /><path clip-path="url(#clip650)" d="M91.5706 555.183 L99.2095 555.183 L99.2095 528.818 L90.8993 530.484 L90.8993 526.225 L99.1632 524.559 L103.839 524.559 L103.839 555.183 L111.478 555.183 L111.478 559.119 L91.5706 559.119 L91.5706 555.183 Z" fill="#000000" fill-rule="nonzero" fill-opacity="1" /><path clip-path="url(#clip650)" d="M95.1586 219.58 L111.478 219.58 L111.478 223.515 L89.5336 223.515 L89.5336 219.58 Q92.1956 216.826 96.7789 212.196 Q101.385 207.543 102.566 206.201 Q104.811 203.677 105.691 201.941 Q106.594 200.182 106.594 198.492 Q106.594 195.738 104.649 194.002 Q102.728 192.266 99.6261 192.266 Q97.4271 192.266 94.9734 193.029 Q92.5428 193.793 89.7651 195.344 L89.7651 190.622 Q92.5891 189.488 95.0428 188.909 Q97.4965 188.33 99.5335 188.33 Q104.904 188.33 108.098 191.016 Q111.293 193.701 111.293 198.191 Q111.293 200.321 110.483 202.242 Q109.696 204.14 107.589 206.733 Q107.01 207.404 103.909 210.622 Q100.807 213.816 95.1586 219.58 Z" fill="#000000" fill-rule="nonzero" fill-opacity="1" /><circle clip-path="url(#clip651)" cx="1409.56" cy="408.597" r="14.4" fill="#009af9" fill-rule="evenodd" fill-opacity="0.5" stroke="#000000" stroke-opacity="0.5" stroke-width="3.2"/>
<circle clip-path="url(#clip651)" cx="2290.34" cy="1009.14" r="14.4" fill="#009af9" fill-rule="evenodd" fill-opacity="0.5" stroke="#000000" stroke-opacity="0.5" stroke-width="3.2"/>
<circle clip-path="url(#clip651)" cx="209.891" cy="942.157" r="14.4" fill="#009af9" fill-rule="evenodd" fill-opacity="0.5" stroke="#000000" stroke-opacity="0.5" stroke-width="3.2"/>
<circle clip-path="url(#clip651)" cx="1321.21" cy="425.137" r="14.4" fill="#009af9" fill-rule="evenodd" fill-opacity="0.5" stroke="#000000" stroke-opacity="0.5" stroke-width="3.2"/>
<circle clip-path="url(#clip651)" cx="680.003" cy="849.679" r="14.4" fill="#009af9" fill-rule="evenodd" fill-opacity="0.5" stroke="#000000" stroke-opacity="0.5" stroke-width="3.2"/>
<circle clip-path="url(#clip651)" cx="1716.75" cy="1288.43" r="14.4" fill="#009af9" fill-rule="evenodd" fill-opacity="0.5" stroke="#000000" stroke-opacity="0.5" stroke-width="3.2"/>
<circle clip-path="url(#clip651)" cx="2066.33" cy="87.9763" r="14.4" fill="#009af9" fill-rule="evenodd" fill-opacity="0.5" stroke="#000000" stroke-opacity="0.5" stroke-width="3.2"/>
<circle clip-path="url(#clip651)" cx="1101.51" cy="923.135" r="14.4" fill="#009af9" fill-rule="evenodd" fill-opacity="0.5" stroke="#000000" stroke-opacity="0.5" stroke-width="3.2"/>
<circle clip-path="url(#clip651)" cx="1400.51" cy="706.182" r="14.4" fill="#009af9" fill-rule="evenodd" fill-opacity="0.5" stroke="#000000" stroke-opacity="0.5" stroke-width="3.2"/>
<circle clip-path="url(#clip651)" cx="1031.45" cy="747.715" r="14.4" fill="#009af9" fill-rule="evenodd" fill-opacity="0.5" stroke="#000000" stroke-opacity="0.5" stroke-width="3.2"/>
<circle clip-path="url(#clip651)" cx="767.837" cy="1445.72" r="14.4" fill="#009af9" fill-rule="evenodd" fill-opacity="0.5" stroke="#000000" stroke-opacity="0.5" stroke-width="3.2"/>
<circle clip-path="url(#clip651)" cx="889.179" cy="406.199" r="14.4" fill="#009af9" fill-rule="evenodd" fill-opacity="0.5" stroke="#000000" stroke-opacity="0.5" stroke-width="3.2"/>
<circle clip-path="url(#clip651)" cx="1146.87" cy="550.583" r="14.4" fill="#009af9" fill-rule="evenodd" fill-opacity="0.5" stroke="#000000" stroke-opacity="0.5" stroke-width="3.2"/>
<circle clip-path="url(#clip651)" cx="1459.45" cy="810.902" r="14.4" fill="#009af9" fill-rule="evenodd" fill-opacity="0.5" stroke="#000000" stroke-opacity="0.5" stroke-width="3.2"/>
<circle clip-path="url(#clip651)" cx="350.203" cy="274.356" r="14.4" fill="#009af9" fill-rule="evenodd" fill-opacity="0.5" stroke="#000000" stroke-opacity="0.5" stroke-width="3.2"/>
<circle clip-path="url(#clip651)" cx="367.314" cy="1065.89" r="14.4" fill="#009af9" fill-rule="evenodd" fill-opacity="0.5" stroke="#000000" stroke-opacity="0.5" stroke-width="3.2"/>
<circle clip-path="url(#clip651)" cx="992.945" cy="1177.53" r="14.4" fill="#009af9" fill-rule="evenodd" fill-opacity="0.5" stroke="#000000" stroke-opacity="0.5" stroke-width="3.2"/>
<circle clip-path="url(#clip651)" cx="1240.64" cy="1094.77" r="14.4" fill="#009af9" fill-rule="evenodd" fill-opacity="0.5" stroke="#000000" stroke-opacity="0.5" stroke-width="3.2"/>
<circle clip-path="url(#clip651)" cx="858.938" cy="807.073" r="14.4" fill="#009af9" fill-rule="evenodd" fill-opacity="0.5" stroke="#000000" stroke-opacity="0.5" stroke-width="3.2"/>
<circle clip-path="url(#clip651)" cx="975.831" cy="674.096" r="14.4" fill="#009af9" fill-rule="evenodd" fill-opacity="0.5" stroke="#000000" stroke-opacity="0.5" stroke-width="3.2"/>
<circle clip-path="url(#clip651)" cx="1313.85" cy="917.871" r="14.4" fill="#009af9" fill-rule="evenodd" fill-opacity="0.5" stroke="#000000" stroke-opacity="0.5" stroke-width="3.2"/>
<circle clip-path="url(#clip651)" cx="849.68" cy="1012.47" r="14.4" fill="#009af9" fill-rule="evenodd" fill-opacity="0.5" stroke="#000000" stroke-opacity="0.5" stroke-width="3.2"/>
<circle clip-path="url(#clip651)" cx="1289.22" cy="922.818" r="14.4" fill="#009af9" fill-rule="evenodd" fill-opacity="0.5" stroke="#000000" stroke-opacity="0.5" stroke-width="3.2"/>
<circle clip-path="url(#clip651)" cx="1572.38" cy="1292.26" r="14.4" fill="#009af9" fill-rule="evenodd" fill-opacity="0.5" stroke="#000000" stroke-opacity="0.5" stroke-width="3.2"/>
<circle clip-path="url(#clip651)" cx="979.816" cy="1038.38" r="14.4" fill="#009af9" fill-rule="evenodd" fill-opacity="0.5" stroke="#000000" stroke-opacity="0.5" stroke-width="3.2"/>
<circle clip-path="url(#clip651)" cx="459.167" cy="682.972" r="14.4" fill="#009af9" fill-rule="evenodd" fill-opacity="0.5" stroke="#000000" stroke-opacity="0.5" stroke-width="3.2"/>
<circle clip-path="url(#clip651)" cx="1494.16" cy="928.4" r="14.4" fill="#009af9" fill-rule="evenodd" fill-opacity="0.5" stroke="#000000" stroke-opacity="0.5" stroke-width="3.2"/>
<circle clip-path="url(#clip651)" cx="870.451" cy="763.528" r="14.4" fill="#009af9" fill-rule="evenodd" fill-opacity="0.5" stroke="#000000" stroke-opacity="0.5" stroke-width="3.2"/>
<circle clip-path="url(#clip651)" cx="229.165" cy="846.43" r="14.4" fill="#009af9" fill-rule="evenodd" fill-opacity="0.5" stroke="#000000" stroke-opacity="0.5" stroke-width="3.2"/>
<circle clip-path="url(#clip651)" cx="2233.73" cy="1259.18" r="14.4" fill="#009af9" fill-rule="evenodd" fill-opacity="0.5" stroke="#000000" stroke-opacity="0.5" stroke-width="3.2"/>
<path clip-path="url(#clip651)" d="M209.891 942.157 L767.837 1445.72 L2233.73 1259.18 L2290.34 1009.14 L2066.33 87.9763 L350.203 274.356 L229.165 846.43 L209.891 942.157 L209.891 942.157  Z" fill="#e26f46" fill-rule="evenodd" fill-opacity="0.2"/>
<polyline clip-path="url(#clip651)" style="stroke:#000000; stroke-linecap:round; stroke-linejoin:round; stroke-width:4; stroke-opacity:0.2; fill:none" points="209.891,942.157 767.837,1445.72 2233.73,1259.18 2290.34,1009.14 2066.33,87.9763 350.203,274.356 229.165,846.43 209.891,942.157 "/>
</svg>
