<?xml version="1.0" encoding="utf-8"?>
<svg xmlns="http://www.w3.org/2000/svg" xmlns:xlink="http://www.w3.org/1999/xlink" width="600" height="400" viewBox="0 0 2400 1600">
<defs>
  <clipPath id="clip520">
    <rect x="0" y="0" width="2400" height="1600"/>
  </clipPath>
</defs>
<path clip-path="url(#clip520)" d="M0 1600 L2400 1600 L2400 0 L0 0  Z" fill="#ffffff" fill-rule="evenodd" fill-opacity="1"/>
<defs>
  <clipPath id="clip521">
    <rect x="480" y="0" width="1681" height="1600"/>
  </clipPath>
</defs>
<path clip-path="url(#clip520)" d="M147.478 1486.45 L2352.76 1486.45 L2352.76 47.2441 L147.478 47.2441  Z" fill="#ffffff" fill-rule="evenodd" fill-opacity="1"/>
<defs>
  <clipPath id="clip522">
    <rect x="147" y="47" width="2206" height="1440"/>
  </clipPath>
</defs>
<polyline clip-path="url(#clip522)" style="stroke:#000000; stroke-linecap:round; stroke-linejoin:round; stroke-width:2; stroke-opacity:0.1; fill:none" points="246.872,1486.45 246.872,47.2441 "/>
<polyline clip-path="url(#clip522)" style="stroke:#000000; stroke-linecap:round; stroke-linejoin:round; stroke-width:2; stroke-opacity:0.1; fill:none" points="778.265,1486.45 778.265,47.2441 "/>
<polyline clip-path="url(#clip522)" style="stroke:#000000; stroke-linecap:round; stroke-linejoin:round; stroke-width:2; stroke-opacity:0.1; fill:none" points="1309.66,1486.45 1309.66,47.2441 "/>
<polyline clip-path="url(#clip522)" style="stroke:#000000; stroke-linecap:round; stroke-linejoin:round; stroke-width:2; stroke-opacity:0.1; fill:none" points="1841.05,1486.45 1841.05,47.2441 "/>
<polyline clip-path="url(#clip522)" style="stroke:#000000; stroke-linecap:round; stroke-linejoin:round; stroke-width:2; stroke-opacity:0.1; fill:none" points="147.478,1354.97 2352.76,1354.97 "/>
<polyline clip-path="url(#clip522)" style="stroke:#000000; stroke-linecap:round; stroke-linejoin:round; stroke-width:2; stroke-opacity:0.1; fill:none" points="147.478,1089.05 2352.76,1089.05 "/>
<polyline clip-path="url(#clip522)" style="stroke:#000000; stroke-linecap:round; stroke-linejoin:round; stroke-width:2; stroke-opacity:0.1; fill:none" points="147.478,823.133 2352.76,823.133 "/>
<polyline clip-path="url(#clip522)" style="stroke:#000000; stroke-linecap:round; stroke-linejoin:round; stroke-width:2; stroke-opacity:0.1; fill:none" points="147.478,557.214 2352.76,557.214 "/>
<polyline clip-path="url(#clip522)" style="stroke:#000000; stroke-linecap:round; stroke-linejoin:round; stroke-width:2; stroke-opacity:0.1; fill:none" points="147.478,291.295 2352.76,291.295 "/>
<polyline clip-path="url(#clip520)" style="stroke:#000000; stroke-linecap:round; stroke-linejoin:round; stroke-width:4; stroke-opacity:1; fill:none" points="147.478,1486.45 2352.76,1486.45 "/>
<polyline clip-path="url(#clip520)" style="stroke:#000000; stroke-linecap:round; stroke-linejoin:round; stroke-width:4; stroke-opacity:1; fill:none" points="246.872,1486.45 246.872,1467.55 "/>
<polyline clip-path="url(#clip520)" style="stroke:#000000; stroke-linecap:round; stroke-linejoin:round; stroke-width:4; stroke-opacity:1; fill:none" points="778.265,1486.45 778.265,1467.55 "/>
<polyline clip-path="url(#clip520)" style="stroke:#000000; stroke-linecap:round; stroke-linejoin:round; stroke-width:4; stroke-opacity:1; fill:none" points="1309.66,1486.45 1309.66,1467.55 "/>
<polyline clip-path="url(#clip520)" style="stroke:#000000; stroke-linecap:round; stroke-linejoin:round; stroke-width:4; stroke-opacity:1; fill:none" points="1841.05,1486.45 1841.05,1467.55 "/>
<path clip-path="url(#clip520)" d="M216.814 1532.02 L246.49 1532.02 L246.49 1535.95 L216.814 1535.95 L216.814 1532.02 Z" fill="#000000" fill-rule="nonzero" fill-opacity="1" /><path clip-path="url(#clip520)" d="M260.61 1544.91 L276.93 1544.91 L276.93 1548.85 L254.985 1548.85 L254.985 1544.91 Q257.647 1542.16 262.231 1537.53 Q266.837 1532.88 268.018 1531.53 Q270.263 1529.01 271.143 1527.27 Q272.045 1525.51 272.045 1523.82 Q272.045 1521.07 270.101 1519.33 Q268.18 1517.6 265.078 1517.6 Q262.879 1517.6 260.425 1518.36 Q257.995 1519.13 255.217 1520.68 L255.217 1515.95 Q258.041 1514.82 260.495 1514.24 Q262.948 1513.66 264.985 1513.66 Q270.356 1513.66 273.55 1516.35 Q276.745 1519.03 276.745 1523.52 Q276.745 1525.65 275.934 1527.57 Q275.147 1529.47 273.041 1532.07 Q272.462 1532.74 269.36 1535.95 Q266.258 1539.15 260.61 1544.91 Z" fill="#000000" fill-rule="nonzero" fill-opacity="1" /><path clip-path="url(#clip520)" d="M748.022 1532.02 L777.697 1532.02 L777.697 1535.95 L748.022 1535.95 L748.022 1532.02 Z" fill="#000000" fill-rule="nonzero" fill-opacity="1" /><path clip-path="url(#clip520)" d="M788.6 1544.91 L796.239 1544.91 L796.239 1518.55 L787.929 1520.21 L787.929 1515.95 L796.193 1514.29 L800.869 1514.29 L800.869 1544.91 L808.508 1544.91 L808.508 1548.85 L788.6 1548.85 L788.6 1544.91 Z" fill="#000000" fill-rule="nonzero" fill-opacity="1" /><path clip-path="url(#clip520)" d="M1309.66 1517.37 Q1306.05 1517.37 1304.22 1520.93 Q1302.41 1524.47 1302.41 1531.6 Q1302.41 1538.71 1304.22 1542.27 Q1306.05 1545.82 1309.66 1545.82 Q1313.29 1545.82 1315.1 1542.27 Q1316.93 1538.71 1316.93 1531.6 Q1316.93 1524.47 1315.1 1520.93 Q1313.29 1517.37 1309.66 1517.37 M1309.66 1513.66 Q1315.47 1513.66 1318.52 1518.27 Q1321.6 1522.85 1321.6 1531.6 Q1321.6 1540.33 1318.52 1544.94 Q1315.47 1549.52 1309.66 1549.52 Q1303.85 1549.52 1300.77 1544.94 Q1297.71 1540.33 1297.71 1531.6 Q1297.71 1522.85 1300.77 1518.27 Q1303.85 1513.66 1309.66 1513.66 Z" fill="#000000" fill-rule="nonzero" fill-opacity="1" /><path clip-path="url(#clip520)" d="M1831.43 1544.91 L1839.07 1544.91 L1839.07 1518.55 L1830.76 1520.21 L1830.76 1515.95 L1839.02 1514.29 L1843.7 1514.29 L1843.7 1544.91 L1851.34 1544.91 L1851.34 1548.85 L1831.43 1548.85 L1831.43 1544.91 Z" fill="#000000" fill-rule="nonzero" fill-opacity="1" /><polyline clip-path="url(#clip520)" style="stroke:#000000; stroke-linecap:round; stroke-linejoin:round; stroke-width:4; stroke-opacity:1; fill:none" points="147.478,1486.45 147.478,47.2441 "/>
<polyline clip-path="url(#clip520)" style="stroke:#000000; stroke-linecap:round; stroke-linejoin:round; stroke-width:4; stroke-opacity:1; fill:none" points="147.478,1354.97 166.376,1354.97 "/>
<polyline clip-path="url(#clip520)" style="stroke:#000000; stroke-linecap:round; stroke-linejoin:round; stroke-width:4; stroke-opacity:1; fill:none" points="147.478,1089.05 166.376,1089.05 "/>
<polyline clip-path="url(#clip520)" style="stroke:#000000; stroke-linecap:round; stroke-linejoin:round; stroke-width:4; stroke-opacity:1; fill:none" points="147.478,823.133 166.376,823.133 "/>
<polyline clip-path="url(#clip520)" style="stroke:#000000; stroke-linecap:round; stroke-linejoin:round; stroke-width:4; stroke-opacity:1; fill:none" points="147.478,557.214 166.376,557.214 "/>
<polyline clip-path="url(#clip520)" style="stroke:#000000; stroke-linecap:round; stroke-linejoin:round; stroke-width:4; stroke-opacity:1; fill:none" points="147.478,291.295 166.376,291.295 "/>
<path clip-path="url(#clip520)" d="M50.9921 1355.42 L80.6679 1355.42 L80.6679 1359.36 L50.9921 1359.36 L50.9921 1355.42 Z" fill="#000000" fill-rule="nonzero" fill-opacity="1" /><path clip-path="url(#clip520)" d="M91.5706 1368.32 L99.2095 1368.32 L99.2095 1341.95 L90.8993 1343.62 L90.8993 1339.36 L99.1632 1337.69 L103.839 1337.69 L103.839 1368.32 L111.478 1368.32 L111.478 1372.25 L91.5706 1372.25 L91.5706 1368.32 Z" fill="#000000" fill-rule="nonzero" fill-opacity="1" /><path clip-path="url(#clip520)" d="M99.5335 1074.85 Q95.9224 1074.85 94.0937 1078.42 Q92.2882 1081.96 92.2882 1089.09 Q92.2882 1096.19 94.0937 1099.76 Q95.9224 1103.3 99.5335 1103.3 Q103.168 1103.3 104.973 1099.76 Q106.802 1096.19 106.802 1089.09 Q106.802 1081.96 104.973 1078.42 Q103.168 1074.85 99.5335 1074.85 M99.5335 1071.15 Q105.344 1071.15 108.399 1075.75 Q111.478 1080.34 111.478 1089.09 Q111.478 1097.81 108.399 1102.42 Q105.344 1107 99.5335 1107 Q93.7234 1107 90.6447 1102.42 Q87.5892 1097.81 87.5892 1089.09 Q87.5892 1080.34 90.6447 1075.75 Q93.7234 1071.15 99.5335 1071.15 Z" fill="#000000" fill-rule="nonzero" fill-opacity="1" /><path clip-path="url(#clip520)" d="M91.5706 836.478 L99.2095 836.478 L99.2095 810.112 L90.8993 811.779 L90.8993 807.52 L99.1632 805.853 L103.839 805.853 L103.839 836.478 L111.478 836.478 L111.478 840.413 L91.5706 840.413 L91.5706 836.478 Z" fill="#000000" fill-rule="nonzero" fill-opacity="1" /><path clip-path="url(#clip520)" d="M95.1586 570.559 L111.478 570.559 L111.478 574.494 L89.5336 574.494 L89.5336 570.559 Q92.1956 567.804 96.7789 563.175 Q101.385 558.522 102.566 557.179 Q104.811 554.656 105.691 552.92 Q106.594 551.161 106.594 549.471 Q106.594 546.716 104.649 544.98 Q102.728 543.244 99.6261 543.244 Q97.4271 543.244 94.9734 544.008 Q92.5428 544.772 89.7651 546.323 L89.7651 541.601 Q92.5891 540.466 95.0428 539.888 Q97.4965 539.309 99.5335 539.309 Q104.904 539.309 108.098 541.994 Q111.293 544.679 111.293 549.17 Q111.293 551.3 110.483 553.221 Q109.696 555.119 107.589 557.712 Q107.01 558.383 103.909 561.6 Q100.807 564.795 95.1586 570.559 Z" fill="#000000" fill-rule="nonzero" fill-opacity="1" /><path clip-path="url(#clip520)" d="M104.348 289.94 Q107.705 290.658 109.58 292.927 Q111.478 295.195 111.478 298.528 Q111.478 303.644 107.959 306.445 Q104.441 309.246 97.9595 309.246 Q95.7836 309.246 93.4688 308.806 Q91.1771 308.389 88.7234 307.533 L88.7234 303.019 Q90.6678 304.153 92.9826 304.732 Q95.2974 305.311 97.8206 305.311 Q102.219 305.311 104.51 303.575 Q106.825 301.839 106.825 298.528 Q106.825 295.473 104.672 293.76 Q102.543 292.024 98.7234 292.024 L94.6956 292.024 L94.6956 288.181 L98.9085 288.181 Q102.358 288.181 104.186 286.815 Q106.015 285.427 106.015 282.834 Q106.015 280.172 104.117 278.76 Q102.242 277.325 98.7234 277.325 Q96.8021 277.325 94.603 277.741 Q92.4039 278.158 89.7651 279.038 L89.7651 274.871 Q92.4271 274.13 94.7419 273.76 Q97.0798 273.39 99.14 273.39 Q104.464 273.39 107.566 275.82 Q110.668 278.228 110.668 282.348 Q110.668 285.218 109.024 287.209 Q107.381 289.177 104.348 289.94 Z" fill="#000000" fill-rule="nonzero" fill-opacity="1" /><circle clip-path="url(#clip522)" cx="1213.58" cy="950.731" r="14.4" fill="#009af9" fill-rule="evenodd" fill-opacity="0.5" stroke="#000000" stroke-opacity="0.5" stroke-width="3.2"/>
<circle clip-path="url(#clip522)" cx="1953.2" cy="1174.4" r="14.4" fill="#009af9" fill-rule="evenodd" fill-opacity="0.5" stroke="#000000" stroke-opacity="0.5" stroke-width="3.2"/>
<circle clip-path="url(#clip522)" cx="1040.07" cy="785.601" r="14.4" fill="#009af9" fill-rule="evenodd" fill-opacity="0.5" stroke="#000000" stroke-opacity="0.5" stroke-width="3.2"/>
<circle clip-path="url(#clip522)" cx="1947.58" cy="1228.02" r="14.4" fill="#009af9" fill-rule="evenodd" fill-opacity="0.5" stroke="#000000" stroke-opacity="0.5" stroke-width="3.2"/>
<circle clip-path="url(#clip522)" cx="2207.05" cy="732.288" r="14.4" fill="#009af9" fill-rule="evenodd" fill-opacity="0.5" stroke="#000000" stroke-opacity="0.5" stroke-width="3.2"/>
<circle clip-path="url(#clip522)" cx="413.624" cy="667.288" r="14.4" fill="#009af9" fill-rule="evenodd" fill-opacity="0.5" stroke="#000000" stroke-opacity="0.5" stroke-width="3.2"/>
<circle clip-path="url(#clip522)" cx="2290.34" cy="1108.31" r="14.4" fill="#009af9" fill-rule="evenodd" fill-opacity="0.5" stroke="#000000" stroke-opacity="0.5" stroke-width="3.2"/>
<circle clip-path="url(#clip522)" cx="1410.02" cy="1352.93" r="14.4" fill="#009af9" fill-rule="evenodd" fill-opacity="0.5" stroke="#000000" stroke-opacity="0.5" stroke-width="3.2"/>
<circle clip-path="url(#clip522)" cx="1609.92" cy="1275.33" r="14.4" fill="#009af9" fill-rule="evenodd" fill-opacity="0.5" stroke="#000000" stroke-opacity="0.5" stroke-width="3.2"/>
<circle clip-path="url(#clip522)" cx="1453.41" cy="1171.59" r="14.4" fill="#009af9" fill-rule="evenodd" fill-opacity="0.5" stroke="#000000" stroke-opacity="0.5" stroke-width="3.2"/>
<circle clip-path="url(#clip522)" cx="939.796" cy="948.571" r="14.4" fill="#009af9" fill-rule="evenodd" fill-opacity="0.5" stroke="#000000" stroke-opacity="0.5" stroke-width="3.2"/>
<circle clip-path="url(#clip522)" cx="2078.24" cy="87.9763" r="14.4" fill="#009af9" fill-rule="evenodd" fill-opacity="0.5" stroke="#000000" stroke-opacity="0.5" stroke-width="3.2"/>
<circle clip-path="url(#clip522)" cx="897.493" cy="276.977" r="14.4" fill="#009af9" fill-rule="evenodd" fill-opacity="0.5" stroke="#000000" stroke-opacity="0.5" stroke-width="3.2"/>
<circle clip-path="url(#clip522)" cx="1584.14" cy="978.395" r="14.4" fill="#009af9" fill-rule="evenodd" fill-opacity="0.5" stroke="#000000" stroke-opacity="0.5" stroke-width="3.2"/>
<circle clip-path="url(#clip522)" cx="2061.56" cy="815.251" r="14.4" fill="#009af9" fill-rule="evenodd" fill-opacity="0.5" stroke="#000000" stroke-opacity="0.5" stroke-width="3.2"/>
<circle clip-path="url(#clip522)" cx="209.891" cy="843.307" r="14.4" fill="#009af9" fill-rule="evenodd" fill-opacity="0.5" stroke="#000000" stroke-opacity="0.5" stroke-width="3.2"/>
<circle clip-path="url(#clip522)" cx="1654.4" cy="685.709" r="14.4" fill="#009af9" fill-rule="evenodd" fill-opacity="0.5" stroke="#000000" stroke-opacity="0.5" stroke-width="3.2"/>
<circle clip-path="url(#clip522)" cx="1073.15" cy="1257.53" r="14.4" fill="#009af9" fill-rule="evenodd" fill-opacity="0.5" stroke="#000000" stroke-opacity="0.5" stroke-width="3.2"/>
<circle clip-path="url(#clip522)" cx="670.062" cy="1445.72" r="14.4" fill="#009af9" fill-rule="evenodd" fill-opacity="0.5" stroke="#000000" stroke-opacity="0.5" stroke-width="3.2"/>
<circle clip-path="url(#clip522)" cx="1306.58" cy="1173.92" r="14.4" fill="#009af9" fill-rule="evenodd" fill-opacity="0.5" stroke="#000000" stroke-opacity="0.5" stroke-width="3.2"/>
<circle clip-path="url(#clip522)" cx="770.401" cy="978.728" r="14.4" fill="#009af9" fill-rule="evenodd" fill-opacity="0.5" stroke="#000000" stroke-opacity="0.5" stroke-width="3.2"/>
<circle clip-path="url(#clip522)" cx="1139.15" cy="1098.66" r="14.4" fill="#009af9" fill-rule="evenodd" fill-opacity="0.5" stroke="#000000" stroke-opacity="0.5" stroke-width="3.2"/>
<circle clip-path="url(#clip522)" cx="1025.29" cy="727.601" r="14.4" fill="#009af9" fill-rule="evenodd" fill-opacity="0.5" stroke="#000000" stroke-opacity="0.5" stroke-width="3.2"/>
<circle clip-path="url(#clip522)" cx="1163.59" cy="1299.02" r="14.4" fill="#009af9" fill-rule="evenodd" fill-opacity="0.5" stroke="#000000" stroke-opacity="0.5" stroke-width="3.2"/>
<circle clip-path="url(#clip522)" cx="708" cy="1020.05" r="14.4" fill="#009af9" fill-rule="evenodd" fill-opacity="0.5" stroke="#000000" stroke-opacity="0.5" stroke-width="3.2"/>
<circle clip-path="url(#clip522)" cx="1467.61" cy="900.749" r="14.4" fill="#009af9" fill-rule="evenodd" fill-opacity="0.5" stroke="#000000" stroke-opacity="0.5" stroke-width="3.2"/>
<circle clip-path="url(#clip522)" cx="1088.7" cy="1079.85" r="14.4" fill="#009af9" fill-rule="evenodd" fill-opacity="0.5" stroke="#000000" stroke-opacity="0.5" stroke-width="3.2"/>
<circle clip-path="url(#clip522)" cx="2034.07" cy="830.346" r="14.4" fill="#009af9" fill-rule="evenodd" fill-opacity="0.5" stroke="#000000" stroke-opacity="0.5" stroke-width="3.2"/>
<circle clip-path="url(#clip522)" cx="1255.32" cy="1053.01" r="14.4" fill="#009af9" fill-rule="evenodd" fill-opacity="0.5" stroke="#000000" stroke-opacity="0.5" stroke-width="3.2"/>
<circle clip-path="url(#clip522)" cx="1952.9" cy="1110.2" r="14.4" fill="#009af9" fill-rule="evenodd" fill-opacity="0.5" stroke="#000000" stroke-opacity="0.5" stroke-width="3.2"/>
<path clip-path="url(#clip522)" d="M209.891 843.307 L670.062 1445.72 L1410.02 1352.93 L1947.58 1228.02 L2290.34 1108.31 L2078.24 87.9763 L897.493 276.977 L413.624 667.288 L209.891 843.307 L209.891 843.307  Z" fill="#e26f46" fill-rule="evenodd" fill-opacity="0.2"/>
<polyline clip-path="url(#clip522)" style="stroke:#000000; stroke-linecap:round; stroke-linejoin:round; stroke-width:4; stroke-opacity:0.2; fill:none" points="209.891,843.307 670.062,1445.72 1410.02,1352.93 1947.58,1228.02 2290.34,1108.31 2078.24,87.9763 897.493,276.977 413.624,667.288 209.891,843.307 "/>
</svg>
