<?xml version="1.0" encoding="utf-8"?>
<svg xmlns="http://www.w3.org/2000/svg" xmlns:xlink="http://www.w3.org/1999/xlink" width="600" height="400" viewBox="0 0 2400 1600">
<defs>
  <clipPath id="clip660">
    <rect x="0" y="0" width="2400" height="1600"/>
  </clipPath>
</defs>
<path clip-path="url(#clip660)" d="M0 1600 L2400 1600 L2400 0 L0 0  Z" fill="#ffffff" fill-rule="evenodd" fill-opacity="1"/>
<defs>
  <clipPath id="clip661">
    <rect x="480" y="0" width="1681" height="1600"/>
  </clipPath>
</defs>
<path clip-path="url(#clip660)" d="M147.478 1486.45 L2352.76 1486.45 L2352.76 47.2441 L147.478 47.2441  Z" fill="#ffffff" fill-rule="evenodd" fill-opacity="1"/>
<defs>
  <clipPath id="clip662">
    <rect x="147" y="47" width="2206" height="1440"/>
  </clipPath>
</defs>
<polyline clip-path="url(#clip662)" style="stroke:#000000; stroke-linecap:round; stroke-linejoin:round; stroke-width:2; stroke-opacity:0.1; fill:none" points="273.806,1486.45 273.806,47.2441 "/>
<polyline clip-path="url(#clip662)" style="stroke:#000000; stroke-linecap:round; stroke-linejoin:round; stroke-width:2; stroke-opacity:0.1; fill:none" points="742.576,1486.45 742.576,47.2441 "/>
<polyline clip-path="url(#clip662)" style="stroke:#000000; stroke-linecap:round; stroke-linejoin:round; stroke-width:2; stroke-opacity:0.1; fill:none" points="1211.35,1486.45 1211.35,47.2441 "/>
<polyline clip-path="url(#clip662)" style="stroke:#000000; stroke-linecap:round; stroke-linejoin:round; stroke-width:2; stroke-opacity:0.1; fill:none" points="1680.12,1486.45 1680.12,47.2441 "/>
<polyline clip-path="url(#clip662)" style="stroke:#000000; stroke-linecap:round; stroke-linejoin:round; stroke-width:2; stroke-opacity:0.1; fill:none" points="2148.89,1486.45 2148.89,47.2441 "/>
<polyline clip-path="url(#clip662)" style="stroke:#000000; stroke-linecap:round; stroke-linejoin:round; stroke-width:2; stroke-opacity:0.1; fill:none" points="147.478,1362.89 2352.76,1362.89 "/>
<polyline clip-path="url(#clip662)" style="stroke:#000000; stroke-linecap:round; stroke-linejoin:round; stroke-width:2; stroke-opacity:0.1; fill:none" points="147.478,1052.71 2352.76,1052.71 "/>
<polyline clip-path="url(#clip662)" style="stroke:#000000; stroke-linecap:round; stroke-linejoin:round; stroke-width:2; stroke-opacity:0.1; fill:none" points="147.478,742.54 2352.76,742.54 "/>
<polyline clip-path="url(#clip662)" style="stroke:#000000; stroke-linecap:round; stroke-linejoin:round; stroke-width:2; stroke-opacity:0.1; fill:none" points="147.478,432.367 2352.76,432.367 "/>
<polyline clip-path="url(#clip662)" style="stroke:#000000; stroke-linecap:round; stroke-linejoin:round; stroke-width:2; stroke-opacity:0.1; fill:none" points="147.478,122.193 2352.76,122.193 "/>
<polyline clip-path="url(#clip660)" style="stroke:#000000; stroke-linecap:round; stroke-linejoin:round; stroke-width:4; stroke-opacity:1; fill:none" points="147.478,1486.45 2352.76,1486.45 "/>
<polyline clip-path="url(#clip660)" style="stroke:#000000; stroke-linecap:round; stroke-linejoin:round; stroke-width:4; stroke-opacity:1; fill:none" points="273.806,1486.45 273.806,1467.55 "/>
<polyline clip-path="url(#clip660)" style="stroke:#000000; stroke-linecap:round; stroke-linejoin:round; stroke-width:4; stroke-opacity:1; fill:none" points="742.576,1486.45 742.576,1467.55 "/>
<polyline clip-path="url(#clip660)" style="stroke:#000000; stroke-linecap:round; stroke-linejoin:round; stroke-width:4; stroke-opacity:1; fill:none" points="1211.35,1486.45 1211.35,1467.55 "/>
<polyline clip-path="url(#clip660)" style="stroke:#000000; stroke-linecap:round; stroke-linejoin:round; stroke-width:4; stroke-opacity:1; fill:none" points="1680.12,1486.45 1680.12,1467.55 "/>
<polyline clip-path="url(#clip660)" style="stroke:#000000; stroke-linecap:round; stroke-linejoin:round; stroke-width:4; stroke-opacity:1; fill:none" points="2148.89,1486.45 2148.89,1467.55 "/>
<path clip-path="url(#clip660)" d="M243.748 1532.02 L273.424 1532.02 L273.424 1535.95 L243.748 1535.95 L243.748 1532.02 Z" fill="#000000" fill-rule="nonzero" fill-opacity="1" /><path clip-path="url(#clip660)" d="M287.544 1544.91 L303.863 1544.91 L303.863 1548.85 L281.919 1548.85 L281.919 1544.91 Q284.581 1542.16 289.164 1537.53 Q293.771 1532.88 294.951 1531.53 Q297.197 1529.01 298.076 1527.27 Q298.979 1525.51 298.979 1523.82 Q298.979 1521.07 297.035 1519.33 Q295.113 1517.6 292.011 1517.6 Q289.812 1517.6 287.359 1518.36 Q284.928 1519.13 282.15 1520.68 L282.15 1515.95 Q284.974 1514.82 287.428 1514.24 Q289.882 1513.66 291.919 1513.66 Q297.289 1513.66 300.484 1516.35 Q303.678 1519.03 303.678 1523.52 Q303.678 1525.65 302.868 1527.57 Q302.081 1529.47 299.974 1532.07 Q299.396 1532.74 296.294 1535.95 Q293.192 1539.15 287.544 1544.91 Z" fill="#000000" fill-rule="nonzero" fill-opacity="1" /><path clip-path="url(#clip660)" d="M712.333 1532.02 L742.009 1532.02 L742.009 1535.95 L712.333 1535.95 L712.333 1532.02 Z" fill="#000000" fill-rule="nonzero" fill-opacity="1" /><path clip-path="url(#clip660)" d="M752.912 1544.91 L760.55 1544.91 L760.55 1518.55 L752.24 1520.21 L752.24 1515.95 L760.504 1514.29 L765.18 1514.29 L765.18 1544.91 L772.819 1544.91 L772.819 1548.85 L752.912 1548.85 L752.912 1544.91 Z" fill="#000000" fill-rule="nonzero" fill-opacity="1" /><path clip-path="url(#clip660)" d="M1211.35 1517.37 Q1207.74 1517.37 1205.91 1520.93 Q1204.1 1524.47 1204.1 1531.6 Q1204.1 1538.71 1205.91 1542.27 Q1207.74 1545.82 1211.35 1545.82 Q1214.98 1545.82 1216.79 1542.27 Q1218.62 1538.71 1218.62 1531.6 Q1218.62 1524.47 1216.79 1520.93 Q1214.98 1517.37 1211.35 1517.37 M1211.35 1513.66 Q1217.16 1513.66 1220.21 1518.27 Q1223.29 1522.85 1223.29 1531.6 Q1223.29 1540.33 1220.21 1544.94 Q1217.16 1549.52 1211.35 1549.52 Q1205.54 1549.52 1202.46 1544.94 Q1199.4 1540.33 1199.4 1531.6 Q1199.4 1522.85 1202.46 1518.27 Q1205.54 1513.66 1211.35 1513.66 Z" fill="#000000" fill-rule="nonzero" fill-opacity="1" /><path clip-path="url(#clip660)" d="M1670.5 1544.91 L1678.14 1544.91 L1678.14 1518.55 L1669.83 1520.21 L1669.83 1515.95 L1678.09 1514.29 L1682.77 1514.29 L1682.77 1544.91 L1690.41 1544.91 L1690.41 1548.85 L1670.5 1548.85 L1670.5 1544.91 Z" fill="#000000" fill-rule="nonzero" fill-opacity="1" /><path clip-path="url(#clip660)" d="M2143.54 1544.91 L2159.86 1544.91 L2159.86 1548.85 L2137.92 1548.85 L2137.92 1544.91 Q2140.58 1542.16 2145.16 1537.53 Q2149.77 1532.88 2150.95 1531.53 Q2153.19 1529.01 2154.07 1527.27 Q2154.98 1525.51 2154.98 1523.82 Q2154.98 1521.07 2153.03 1519.33 Q2151.11 1517.6 2148.01 1517.6 Q2145.81 1517.6 2143.36 1518.36 Q2140.92 1519.13 2138.15 1520.68 L2138.15 1515.95 Q2140.97 1514.82 2143.42 1514.24 Q2145.88 1513.66 2147.92 1513.66 Q2153.29 1513.66 2156.48 1516.35 Q2159.67 1519.03 2159.67 1523.52 Q2159.67 1525.65 2158.86 1527.57 Q2158.08 1529.47 2155.97 1532.07 Q2155.39 1532.74 2152.29 1535.95 Q2149.19 1539.15 2143.54 1544.91 Z" fill="#000000" fill-rule="nonzero" fill-opacity="1" /><polyline clip-path="url(#clip660)" style="stroke:#000000; stroke-linecap:round; stroke-linejoin:round; stroke-width:4; stroke-opacity:1; fill:none" points="147.478,1486.45 147.478,47.2441 "/>
<polyline clip-path="url(#clip660)" style="stroke:#000000; stroke-linecap:round; stroke-linejoin:round; stroke-width:4; stroke-opacity:1; fill:none" points="147.478,1362.89 166.376,1362.89 "/>
<polyline clip-path="url(#clip660)" style="stroke:#000000; stroke-linecap:round; stroke-linejoin:round; stroke-width:4; stroke-opacity:1; fill:none" points="147.478,1052.71 166.376,1052.71 "/>
<polyline clip-path="url(#clip660)" style="stroke:#000000; stroke-linecap:round; stroke-linejoin:round; stroke-width:4; stroke-opacity:1; fill:none" points="147.478,742.54 166.376,742.54 "/>
<polyline clip-path="url(#clip660)" style="stroke:#000000; stroke-linecap:round; stroke-linejoin:round; stroke-width:4; stroke-opacity:1; fill:none" points="147.478,432.367 166.376,432.367 "/>
<polyline clip-path="url(#clip660)" style="stroke:#000000; stroke-linecap:round; stroke-linejoin:round; stroke-width:4; stroke-opacity:1; fill:none" points="147.478,122.193 166.376,122.193 "/>
<path clip-path="url(#clip660)" d="M51.3625 1363.34 L81.0383 1363.34 L81.0383 1367.27 L51.3625 1367.27 L51.3625 1363.34 Z" fill="#000000" fill-rule="nonzero" fill-opacity="1" /><path clip-path="url(#clip660)" d="M95.1586 1376.23 L111.478 1376.23 L111.478 1380.17 L89.5336 1380.17 L89.5336 1376.23 Q92.1956 1373.48 96.7789 1368.85 Q101.385 1364.2 102.566 1362.85 Q104.811 1360.33 105.691 1358.59 Q106.594 1356.83 106.594 1355.14 Q106.594 1352.39 104.649 1350.65 Q102.728 1348.92 99.6261 1348.92 Q97.4271 1348.92 94.9734 1349.68 Q92.5428 1350.45 89.7651 1352 L89.7651 1347.27 Q92.5891 1346.14 95.0428 1345.56 Q97.4965 1344.98 99.5335 1344.98 Q104.904 1344.98 108.098 1347.67 Q111.293 1350.35 111.293 1354.84 Q111.293 1356.97 110.483 1358.89 Q109.696 1360.79 107.589 1363.39 Q107.01 1364.06 103.909 1367.27 Q100.807 1370.47 95.1586 1376.23 Z" fill="#000000" fill-rule="nonzero" fill-opacity="1" /><path clip-path="url(#clip660)" d="M50.9921 1053.17 L80.6679 1053.17 L80.6679 1057.1 L50.9921 1057.1 L50.9921 1053.17 Z" fill="#000000" fill-rule="nonzero" fill-opacity="1" /><path clip-path="url(#clip660)" d="M91.5706 1066.06 L99.2095 1066.06 L99.2095 1039.69 L90.8993 1041.36 L90.8993 1037.1 L99.1632 1035.43 L103.839 1035.43 L103.839 1066.06 L111.478 1066.06 L111.478 1069.99 L91.5706 1069.99 L91.5706 1066.06 Z" fill="#000000" fill-rule="nonzero" fill-opacity="1" /><path clip-path="url(#clip660)" d="M99.5335 728.339 Q95.9224 728.339 94.0937 731.904 Q92.2882 735.445 92.2882 742.575 Q92.2882 749.681 94.0937 753.246 Q95.9224 756.788 99.5335 756.788 Q103.168 756.788 104.973 753.246 Q106.802 749.681 106.802 742.575 Q106.802 735.445 104.973 731.904 Q103.168 728.339 99.5335 728.339 M99.5335 724.635 Q105.344 724.635 108.399 729.242 Q111.478 733.825 111.478 742.575 Q111.478 751.302 108.399 755.908 Q105.344 760.492 99.5335 760.492 Q93.7234 760.492 90.6447 755.908 Q87.5892 751.302 87.5892 742.575 Q87.5892 733.825 90.6447 729.242 Q93.7234 724.635 99.5335 724.635 Z" fill="#000000" fill-rule="nonzero" fill-opacity="1" /><path clip-path="url(#clip660)" d="M91.5706 445.711 L99.2095 445.711 L99.2095 419.346 L90.8993 421.013 L90.8993 416.753 L99.1632 415.087 L103.839 415.087 L103.839 445.711 L111.478 445.711 L111.478 449.647 L91.5706 449.647 L91.5706 445.711 Z" fill="#000000" fill-rule="nonzero" fill-opacity="1" /><path clip-path="url(#clip660)" d="M95.1586 135.538 L111.478 135.538 L111.478 139.473 L89.5336 139.473 L89.5336 135.538 Q92.1956 132.783 96.7789 128.154 Q101.385 123.501 102.566 122.158 Q104.811 119.635 105.691 117.899 Q106.594 116.14 106.594 114.45 Q106.594 111.695 104.649 109.959 Q102.728 108.223 99.6261 108.223 Q97.4271 108.223 94.9734 108.987 Q92.5428 109.751 89.7651 111.302 L89.7651 106.58 Q92.5891 105.445 95.0428 104.867 Q97.4965 104.288 99.5335 104.288 Q104.904 104.288 108.098 106.973 Q111.293 109.658 111.293 114.149 Q111.293 116.279 110.483 118.2 Q109.696 120.098 107.589 122.691 Q107.01 123.362 103.909 126.58 Q100.807 129.774 95.1586 135.538 Z" fill="#000000" fill-rule="nonzero" fill-opacity="1" /><circle clip-path="url(#clip662)" cx="1148.35" cy="889.88" r="14.4" fill="#009af9" fill-rule="evenodd" fill-opacity="0.5" stroke="#000000" stroke-opacity="0.5" stroke-width="3.2"/>
<circle clip-path="url(#clip662)" cx="608.252" cy="1016.15" r="14.4" fill="#009af9" fill-rule="evenodd" fill-opacity="0.5" stroke="#000000" stroke-opacity="0.5" stroke-width="3.2"/>
<circle clip-path="url(#clip662)" cx="1181.31" cy="206.766" r="14.4" fill="#009af9" fill-rule="evenodd" fill-opacity="0.5" stroke="#000000" stroke-opacity="0.5" stroke-width="3.2"/>
<circle clip-path="url(#clip662)" cx="1139.78" cy="598.225" r="14.4" fill="#009af9" fill-rule="evenodd" fill-opacity="0.5" stroke="#000000" stroke-opacity="0.5" stroke-width="3.2"/>
<circle clip-path="url(#clip662)" cx="726.281" cy="87.9763" r="14.4" fill="#009af9" fill-rule="evenodd" fill-opacity="0.5" stroke="#000000" stroke-opacity="0.5" stroke-width="3.2"/>
<circle clip-path="url(#clip662)" cx="1621.49" cy="796.75" r="14.4" fill="#009af9" fill-rule="evenodd" fill-opacity="0.5" stroke="#000000" stroke-opacity="0.5" stroke-width="3.2"/>
<circle clip-path="url(#clip662)" cx="1237.15" cy="520.781" r="14.4" fill="#009af9" fill-rule="evenodd" fill-opacity="0.5" stroke="#000000" stroke-opacity="0.5" stroke-width="3.2"/>
<circle clip-path="url(#clip662)" cx="1717.7" cy="889.421" r="14.4" fill="#009af9" fill-rule="evenodd" fill-opacity="0.5" stroke="#000000" stroke-opacity="0.5" stroke-width="3.2"/>
<circle clip-path="url(#clip662)" cx="1544.57" cy="497.167" r="14.4" fill="#009af9" fill-rule="evenodd" fill-opacity="0.5" stroke="#000000" stroke-opacity="0.5" stroke-width="3.2"/>
<circle clip-path="url(#clip662)" cx="721.823" cy="803.369" r="14.4" fill="#009af9" fill-rule="evenodd" fill-opacity="0.5" stroke="#000000" stroke-opacity="0.5" stroke-width="3.2"/>
<circle clip-path="url(#clip662)" cx="1257.44" cy="777.684" r="14.4" fill="#009af9" fill-rule="evenodd" fill-opacity="0.5" stroke="#000000" stroke-opacity="0.5" stroke-width="3.2"/>
<circle clip-path="url(#clip662)" cx="549.019" cy="306.762" r="14.4" fill="#009af9" fill-rule="evenodd" fill-opacity="0.5" stroke="#000000" stroke-opacity="0.5" stroke-width="3.2"/>
<circle clip-path="url(#clip662)" cx="1173.86" cy="884.266" r="14.4" fill="#009af9" fill-rule="evenodd" fill-opacity="0.5" stroke="#000000" stroke-opacity="0.5" stroke-width="3.2"/>
<circle clip-path="url(#clip662)" cx="2290.34" cy="394.538" r="14.4" fill="#009af9" fill-rule="evenodd" fill-opacity="0.5" stroke="#000000" stroke-opacity="0.5" stroke-width="3.2"/>
<circle clip-path="url(#clip662)" cx="1184.37" cy="804.997" r="14.4" fill="#009af9" fill-rule="evenodd" fill-opacity="0.5" stroke="#000000" stroke-opacity="0.5" stroke-width="3.2"/>
<circle clip-path="url(#clip662)" cx="391.587" cy="1135.81" r="14.4" fill="#009af9" fill-rule="evenodd" fill-opacity="0.5" stroke="#000000" stroke-opacity="0.5" stroke-width="3.2"/>
<circle clip-path="url(#clip662)" cx="1899.04" cy="976.785" r="14.4" fill="#009af9" fill-rule="evenodd" fill-opacity="0.5" stroke="#000000" stroke-opacity="0.5" stroke-width="3.2"/>
<circle clip-path="url(#clip662)" cx="1452.4" cy="550.23" r="14.4" fill="#009af9" fill-rule="evenodd" fill-opacity="0.5" stroke="#000000" stroke-opacity="0.5" stroke-width="3.2"/>
<circle clip-path="url(#clip662)" cx="1141.41" cy="664.713" r="14.4" fill="#009af9" fill-rule="evenodd" fill-opacity="0.5" stroke="#000000" stroke-opacity="0.5" stroke-width="3.2"/>
<circle clip-path="url(#clip662)" cx="1904.73" cy="432.415" r="14.4" fill="#009af9" fill-rule="evenodd" fill-opacity="0.5" stroke="#000000" stroke-opacity="0.5" stroke-width="3.2"/>
<circle clip-path="url(#clip662)" cx="1084.74" cy="916.195" r="14.4" fill="#009af9" fill-rule="evenodd" fill-opacity="0.5" stroke="#000000" stroke-opacity="0.5" stroke-width="3.2"/>
<circle clip-path="url(#clip662)" cx="1555.22" cy="1117.31" r="14.4" fill="#009af9" fill-rule="evenodd" fill-opacity="0.5" stroke="#000000" stroke-opacity="0.5" stroke-width="3.2"/>
<circle clip-path="url(#clip662)" cx="1063.26" cy="866.308" r="14.4" fill="#009af9" fill-rule="evenodd" fill-opacity="0.5" stroke="#000000" stroke-opacity="0.5" stroke-width="3.2"/>
<circle clip-path="url(#clip662)" cx="1485.04" cy="1289.67" r="14.4" fill="#009af9" fill-rule="evenodd" fill-opacity="0.5" stroke="#000000" stroke-opacity="0.5" stroke-width="3.2"/>
<circle clip-path="url(#clip662)" cx="1780.95" cy="1232.1" r="14.4" fill="#009af9" fill-rule="evenodd" fill-opacity="0.5" stroke="#000000" stroke-opacity="0.5" stroke-width="3.2"/>
<circle clip-path="url(#clip662)" cx="1025.68" cy="332.923" r="14.4" fill="#009af9" fill-rule="evenodd" fill-opacity="0.5" stroke="#000000" stroke-opacity="0.5" stroke-width="3.2"/>
<circle clip-path="url(#clip662)" cx="977.073" cy="383.362" r="14.4" fill="#009af9" fill-rule="evenodd" fill-opacity="0.5" stroke="#000000" stroke-opacity="0.5" stroke-width="3.2"/>
<circle clip-path="url(#clip662)" cx="750.231" cy="633.893" r="14.4" fill="#009af9" fill-rule="evenodd" fill-opacity="0.5" stroke="#000000" stroke-opacity="0.5" stroke-width="3.2"/>
<circle clip-path="url(#clip662)" cx="1274.73" cy="896.776" r="14.4" fill="#009af9" fill-rule="evenodd" fill-opacity="0.5" stroke="#000000" stroke-opacity="0.5" stroke-width="3.2"/>
<circle clip-path="url(#clip662)" cx="209.891" cy="1445.72" r="14.4" fill="#009af9" fill-rule="evenodd" fill-opacity="0.5" stroke="#000000" stroke-opacity="0.5" stroke-width="3.2"/>
<path clip-path="url(#clip662)" d="M209.891 1445.72 L1485.04 1289.67 L1780.95 1232.1 L2290.34 394.538 L726.281 87.9763 L549.019 306.762 L209.891 1445.72 L209.891 1445.72  Z" fill="#e26f46" fill-rule="evenodd" fill-opacity="0.2"/>
<polyline clip-path="url(#clip662)" style="stroke:#000000; stroke-linecap:round; stroke-linejoin:round; stroke-width:4; stroke-opacity:0.2; fill:none" points="209.891,1445.72 1485.04,1289.67 1780.95,1232.1 2290.34,394.538 726.281,87.9763 549.019,306.762 209.891,1445.72 "/>
</svg>
