<?xml version="1.0" encoding="utf-8"?>
<svg xmlns="http://www.w3.org/2000/svg" xmlns:xlink="http://www.w3.org/1999/xlink" width="600" height="400" viewBox="0 0 2400 1600">
<defs>
  <clipPath id="clip960">
    <rect x="0" y="0" width="2400" height="1600"/>
  </clipPath>
</defs>
<path clip-path="url(#clip960)" d="M0 1600 L2400 1600 L2400 0 L0 0  Z" fill="#ffffff" fill-rule="evenodd" fill-opacity="1"/>
<defs>
  <clipPath id="clip961">
    <rect x="480" y="0" width="1681" height="1600"/>
  </clipPath>
</defs>
<path clip-path="url(#clip960)" d="M148.057 1486.45 L2352.76 1486.45 L2352.76 47.2441 L148.057 47.2441  Z" fill="#ffffff" fill-rule="evenodd" fill-opacity="1"/>
<defs>
  <clipPath id="clip962">
    <rect x="148" y="47" width="2206" height="1440"/>
  </clipPath>
</defs>
<polyline clip-path="url(#clip962)" style="stroke:#000000; stroke-linecap:round; stroke-linejoin:round; stroke-width:2; stroke-opacity:0.1; fill:none" points="296.737,1486.45 296.737,47.2441 "/>
<polyline clip-path="url(#clip962)" style="stroke:#000000; stroke-linecap:round; stroke-linejoin:round; stroke-width:2; stroke-opacity:0.1; fill:none" points="891.963,1486.45 891.963,47.2441 "/>
<polyline clip-path="url(#clip962)" style="stroke:#000000; stroke-linecap:round; stroke-linejoin:round; stroke-width:2; stroke-opacity:0.1; fill:none" points="1487.19,1486.45 1487.19,47.2441 "/>
<polyline clip-path="url(#clip962)" style="stroke:#000000; stroke-linecap:round; stroke-linejoin:round; stroke-width:2; stroke-opacity:0.1; fill:none" points="2082.41,1486.45 2082.41,47.2441 "/>
<polyline clip-path="url(#clip962)" style="stroke:#000000; stroke-linecap:round; stroke-linejoin:round; stroke-width:2; stroke-opacity:0.1; fill:none" points="148.057,1482.63 2352.76,1482.63 "/>
<polyline clip-path="url(#clip962)" style="stroke:#000000; stroke-linecap:round; stroke-linejoin:round; stroke-width:2; stroke-opacity:0.1; fill:none" points="148.057,1187.47 2352.76,1187.47 "/>
<polyline clip-path="url(#clip962)" style="stroke:#000000; stroke-linecap:round; stroke-linejoin:round; stroke-width:2; stroke-opacity:0.1; fill:none" points="148.057,892.318 2352.76,892.318 "/>
<polyline clip-path="url(#clip962)" style="stroke:#000000; stroke-linecap:round; stroke-linejoin:round; stroke-width:2; stroke-opacity:0.1; fill:none" points="148.057,597.164 2352.76,597.164 "/>
<polyline clip-path="url(#clip962)" style="stroke:#000000; stroke-linecap:round; stroke-linejoin:round; stroke-width:2; stroke-opacity:0.1; fill:none" points="148.057,302.01 2352.76,302.01 "/>
<polyline clip-path="url(#clip960)" style="stroke:#000000; stroke-linecap:round; stroke-linejoin:round; stroke-width:4; stroke-opacity:1; fill:none" points="148.057,1486.45 2352.76,1486.45 "/>
<polyline clip-path="url(#clip960)" style="stroke:#000000; stroke-linecap:round; stroke-linejoin:round; stroke-width:4; stroke-opacity:1; fill:none" points="296.737,1486.45 296.737,1467.55 "/>
<polyline clip-path="url(#clip960)" style="stroke:#000000; stroke-linecap:round; stroke-linejoin:round; stroke-width:4; stroke-opacity:1; fill:none" points="891.963,1486.45 891.963,1467.55 "/>
<polyline clip-path="url(#clip960)" style="stroke:#000000; stroke-linecap:round; stroke-linejoin:round; stroke-width:4; stroke-opacity:1; fill:none" points="1487.19,1486.45 1487.19,1467.55 "/>
<polyline clip-path="url(#clip960)" style="stroke:#000000; stroke-linecap:round; stroke-linejoin:round; stroke-width:4; stroke-opacity:1; fill:none" points="2082.41,1486.45 2082.41,1467.55 "/>
<path clip-path="url(#clip960)" d="M266.679 1532.02 L296.355 1532.02 L296.355 1535.95 L266.679 1535.95 L266.679 1532.02 Z" fill="#000000" fill-rule="nonzero" fill-opacity="1" /><path clip-path="url(#clip960)" d="M310.475 1544.91 L326.794 1544.91 L326.794 1548.85 L304.85 1548.85 L304.85 1544.91 Q307.512 1542.16 312.095 1537.53 Q316.702 1532.88 317.882 1531.53 Q320.128 1529.01 321.007 1527.27 Q321.91 1525.51 321.91 1523.82 Q321.91 1521.07 319.966 1519.33 Q318.045 1517.6 314.943 1517.6 Q312.744 1517.6 310.29 1518.36 Q307.859 1519.13 305.082 1520.68 L305.082 1515.95 Q307.906 1514.82 310.359 1514.24 Q312.813 1513.66 314.85 1513.66 Q320.22 1513.66 323.415 1516.35 Q326.609 1519.03 326.609 1523.52 Q326.609 1525.65 325.799 1527.57 Q325.012 1529.47 322.906 1532.07 Q322.327 1532.74 319.225 1535.95 Q316.123 1539.15 310.475 1544.91 Z" fill="#000000" fill-rule="nonzero" fill-opacity="1" /><path clip-path="url(#clip960)" d="M861.72 1532.02 L891.396 1532.02 L891.396 1535.95 L861.72 1535.95 L861.72 1532.02 Z" fill="#000000" fill-rule="nonzero" fill-opacity="1" /><path clip-path="url(#clip960)" d="M902.298 1544.91 L909.937 1544.91 L909.937 1518.55 L901.627 1520.21 L901.627 1515.95 L909.891 1514.29 L914.567 1514.29 L914.567 1544.91 L922.206 1544.91 L922.206 1548.85 L902.298 1548.85 L902.298 1544.91 Z" fill="#000000" fill-rule="nonzero" fill-opacity="1" /><path clip-path="url(#clip960)" d="M1487.19 1517.37 Q1483.58 1517.37 1481.75 1520.93 Q1479.94 1524.47 1479.94 1531.6 Q1479.94 1538.71 1481.75 1542.27 Q1483.58 1545.82 1487.19 1545.82 Q1490.82 1545.82 1492.63 1542.27 Q1494.46 1538.71 1494.46 1531.6 Q1494.46 1524.47 1492.63 1520.93 Q1490.82 1517.37 1487.19 1517.37 M1487.19 1513.66 Q1493 1513.66 1496.05 1518.27 Q1499.13 1522.85 1499.13 1531.6 Q1499.13 1540.33 1496.05 1544.94 Q1493 1549.52 1487.19 1549.52 Q1481.38 1549.52 1478.3 1544.94 Q1475.24 1540.33 1475.24 1531.6 Q1475.24 1522.85 1478.3 1518.27 Q1481.38 1513.66 1487.19 1513.66 Z" fill="#000000" fill-rule="nonzero" fill-opacity="1" /><path clip-path="url(#clip960)" d="M2072.8 1544.91 L2080.44 1544.91 L2080.44 1518.55 L2072.13 1520.21 L2072.13 1515.95 L2080.39 1514.29 L2085.07 1514.29 L2085.07 1544.91 L2092.7 1544.91 L2092.7 1548.85 L2072.8 1548.85 L2072.8 1544.91 Z" fill="#000000" fill-rule="nonzero" fill-opacity="1" /><polyline clip-path="url(#clip960)" style="stroke:#000000; stroke-linecap:round; stroke-linejoin:round; stroke-width:4; stroke-opacity:1; fill:none" points="148.057,1486.45 148.057,47.2441 "/>
<polyline clip-path="url(#clip960)" style="stroke:#000000; stroke-linecap:round; stroke-linejoin:round; stroke-width:4; stroke-opacity:1; fill:none" points="148.057,1482.63 166.954,1482.63 "/>
<polyline clip-path="url(#clip960)" style="stroke:#000000; stroke-linecap:round; stroke-linejoin:round; stroke-width:4; stroke-opacity:1; fill:none" points="148.057,1187.47 166.954,1187.47 "/>
<polyline clip-path="url(#clip960)" style="stroke:#000000; stroke-linecap:round; stroke-linejoin:round; stroke-width:4; stroke-opacity:1; fill:none" points="148.057,892.318 166.954,892.318 "/>
<polyline clip-path="url(#clip960)" style="stroke:#000000; stroke-linecap:round; stroke-linejoin:round; stroke-width:4; stroke-opacity:1; fill:none" points="148.057,597.164 166.954,597.164 "/>
<polyline clip-path="url(#clip960)" style="stroke:#000000; stroke-linecap:round; stroke-linejoin:round; stroke-width:4; stroke-opacity:1; fill:none" points="148.057,302.01 166.954,302.01 "/>
<path clip-path="url(#clip960)" d="M50.9921 1483.08 L80.6679 1483.08 L80.6679 1487.01 L50.9921 1487.01 L50.9921 1483.08 Z" fill="#000000" fill-rule="nonzero" fill-opacity="1" /><path clip-path="url(#clip960)" d="M104.927 1481.27 Q108.283 1481.99 110.158 1484.26 Q112.057 1486.53 112.057 1489.86 Q112.057 1494.98 108.538 1497.78 Q105.02 1500.58 98.5382 1500.58 Q96.3623 1500.58 94.0475 1500.14 Q91.7558 1499.72 89.3021 1498.86 L89.3021 1494.35 Q91.2465 1495.48 93.5613 1496.06 Q95.8761 1496.64 98.3993 1496.64 Q102.797 1496.64 105.089 1494.91 Q107.404 1493.17 107.404 1489.86 Q107.404 1486.8 105.251 1485.09 Q103.121 1483.36 99.3021 1483.36 L95.2743 1483.36 L95.2743 1479.51 L99.4872 1479.51 Q102.936 1479.51 104.765 1478.15 Q106.594 1476.76 106.594 1474.17 Q106.594 1471.5 104.696 1470.09 Q102.821 1468.66 99.3021 1468.66 Q97.3808 1468.66 95.1817 1469.07 Q92.9826 1469.49 90.3438 1470.37 L90.3438 1466.2 Q93.0058 1465.46 95.3206 1465.09 Q97.6585 1464.72 99.7187 1464.72 Q105.043 1464.72 108.145 1467.15 Q111.246 1469.56 111.246 1473.68 Q111.246 1476.55 109.603 1478.54 Q107.959 1480.51 104.927 1481.27 Z" fill="#000000" fill-rule="nonzero" fill-opacity="1" /><path clip-path="url(#clip960)" d="M51.9412 1187.92 L81.617 1187.92 L81.617 1191.86 L51.9412 1191.86 L51.9412 1187.92 Z" fill="#000000" fill-rule="nonzero" fill-opacity="1" /><path clip-path="url(#clip960)" d="M95.7373 1200.82 L112.057 1200.82 L112.057 1204.75 L90.1123 1204.75 L90.1123 1200.82 Q92.7743 1198.06 97.3576 1193.43 Q101.964 1188.78 103.145 1187.44 Q105.39 1184.91 106.27 1183.18 Q107.172 1181.42 107.172 1179.73 Q107.172 1176.97 105.228 1175.24 Q103.307 1173.5 100.205 1173.5 Q98.0058 1173.5 95.5521 1174.27 Q93.1215 1175.03 90.3438 1176.58 L90.3438 1171.86 Q93.1678 1170.72 95.6215 1170.15 Q98.0752 1169.57 100.112 1169.57 Q105.483 1169.57 108.677 1172.25 Q111.871 1174.94 111.871 1179.43 Q111.871 1181.56 111.061 1183.48 Q110.274 1185.38 108.168 1187.97 Q107.589 1188.64 104.487 1191.86 Q101.385 1195.05 95.7373 1200.82 Z" fill="#000000" fill-rule="nonzero" fill-opacity="1" /><path clip-path="url(#clip960)" d="M51.5708 892.769 L81.2466 892.769 L81.2466 896.705 L51.5708 896.705 L51.5708 892.769 Z" fill="#000000" fill-rule="nonzero" fill-opacity="1" /><path clip-path="url(#clip960)" d="M92.1493 905.663 L99.7882 905.663 L99.7882 879.297 L91.478 880.964 L91.478 876.705 L99.7419 875.038 L104.418 875.038 L104.418 905.663 L112.057 905.663 L112.057 909.598 L92.1493 909.598 L92.1493 905.663 Z" fill="#000000" fill-rule="nonzero" fill-opacity="1" /><path clip-path="url(#clip960)" d="M100.112 582.963 Q96.5011 582.963 94.6724 586.528 Q92.8669 590.069 92.8669 597.199 Q92.8669 604.305 94.6724 607.87 Q96.5011 611.412 100.112 611.412 Q103.746 611.412 105.552 607.87 Q107.381 604.305 107.381 597.199 Q107.381 590.069 105.552 586.528 Q103.746 582.963 100.112 582.963 M100.112 579.259 Q105.922 579.259 108.978 583.866 Q112.057 588.449 112.057 597.199 Q112.057 605.926 108.978 610.532 Q105.922 615.115 100.112 615.115 Q94.3021 615.115 91.2234 610.532 Q88.1679 605.926 88.1679 597.199 Q88.1679 588.449 91.2234 583.866 Q94.3021 579.259 100.112 579.259 Z" fill="#000000" fill-rule="nonzero" fill-opacity="1" /><path clip-path="url(#clip960)" d="M92.1493 315.355 L99.7882 315.355 L99.7882 288.989 L91.478 290.656 L91.478 286.397 L99.7419 284.73 L104.418 284.73 L104.418 315.355 L112.057 315.355 L112.057 319.29 L92.1493 319.29 L92.1493 315.355 Z" fill="#000000" fill-rule="nonzero" fill-opacity="1" /><circle clip-path="url(#clip962)" cx="1107.51" cy="815.059" r="14.4" fill="#009af9" fill-rule="evenodd" fill-opacity="0.5" stroke="#000000" stroke-opacity="0.5" stroke-width="3.2"/>
<circle clip-path="url(#clip962)" cx="2194.69" cy="665.805" r="14.4" fill="#009af9" fill-rule="evenodd" fill-opacity="0.5" stroke="#000000" stroke-opacity="0.5" stroke-width="3.2"/>
<circle clip-path="url(#clip962)" cx="887.083" cy="563.677" r="14.4" fill="#009af9" fill-rule="evenodd" fill-opacity="0.5" stroke="#000000" stroke-opacity="0.5" stroke-width="3.2"/>
<circle clip-path="url(#clip962)" cx="1213.42" cy="336.872" r="14.4" fill="#009af9" fill-rule="evenodd" fill-opacity="0.5" stroke="#000000" stroke-opacity="0.5" stroke-width="3.2"/>
<circle clip-path="url(#clip962)" cx="1738.65" cy="1445.72" r="14.4" fill="#009af9" fill-rule="evenodd" fill-opacity="0.5" stroke="#000000" stroke-opacity="0.5" stroke-width="3.2"/>
<circle clip-path="url(#clip962)" cx="1744.63" cy="600.767" r="14.4" fill="#009af9" fill-rule="evenodd" fill-opacity="0.5" stroke="#000000" stroke-opacity="0.5" stroke-width="3.2"/>
<circle clip-path="url(#clip962)" cx="1461.44" cy="629.486" r="14.4" fill="#009af9" fill-rule="evenodd" fill-opacity="0.5" stroke="#000000" stroke-opacity="0.5" stroke-width="3.2"/>
<circle clip-path="url(#clip962)" cx="710.978" cy="939.217" r="14.4" fill="#009af9" fill-rule="evenodd" fill-opacity="0.5" stroke="#000000" stroke-opacity="0.5" stroke-width="3.2"/>
<circle clip-path="url(#clip962)" cx="1076.94" cy="183.403" r="14.4" fill="#009af9" fill-rule="evenodd" fill-opacity="0.5" stroke="#000000" stroke-opacity="0.5" stroke-width="3.2"/>
<circle clip-path="url(#clip962)" cx="1016.11" cy="1074.03" r="14.4" fill="#009af9" fill-rule="evenodd" fill-opacity="0.5" stroke="#000000" stroke-opacity="0.5" stroke-width="3.2"/>
<circle clip-path="url(#clip962)" cx="1452.04" cy="231.754" r="14.4" fill="#009af9" fill-rule="evenodd" fill-opacity="0.5" stroke="#000000" stroke-opacity="0.5" stroke-width="3.2"/>
<circle clip-path="url(#clip962)" cx="1245.95" cy="606.425" r="14.4" fill="#009af9" fill-rule="evenodd" fill-opacity="0.5" stroke="#000000" stroke-opacity="0.5" stroke-width="3.2"/>
<circle clip-path="url(#clip962)" cx="794.372" cy="576.069" r="14.4" fill="#009af9" fill-rule="evenodd" fill-opacity="0.5" stroke="#000000" stroke-opacity="0.5" stroke-width="3.2"/>
<circle clip-path="url(#clip962)" cx="1832.15" cy="492.536" r="14.4" fill="#009af9" fill-rule="evenodd" fill-opacity="0.5" stroke="#000000" stroke-opacity="0.5" stroke-width="3.2"/>
<circle clip-path="url(#clip962)" cx="2290.36" cy="809.387" r="14.4" fill="#009af9" fill-rule="evenodd" fill-opacity="0.5" stroke="#000000" stroke-opacity="0.5" stroke-width="3.2"/>
<circle clip-path="url(#clip962)" cx="715.05" cy="738.813" r="14.4" fill="#009af9" fill-rule="evenodd" fill-opacity="0.5" stroke="#000000" stroke-opacity="0.5" stroke-width="3.2"/>
<circle clip-path="url(#clip962)" cx="1552.73" cy="447.629" r="14.4" fill="#009af9" fill-rule="evenodd" fill-opacity="0.5" stroke="#000000" stroke-opacity="0.5" stroke-width="3.2"/>
<circle clip-path="url(#clip962)" cx="210.454" cy="293.016" r="14.4" fill="#009af9" fill-rule="evenodd" fill-opacity="0.5" stroke="#000000" stroke-opacity="0.5" stroke-width="3.2"/>
<circle clip-path="url(#clip962)" cx="1465.07" cy="535.533" r="14.4" fill="#009af9" fill-rule="evenodd" fill-opacity="0.5" stroke="#000000" stroke-opacity="0.5" stroke-width="3.2"/>
<circle clip-path="url(#clip962)" cx="1501.37" cy="660.899" r="14.4" fill="#009af9" fill-rule="evenodd" fill-opacity="0.5" stroke="#000000" stroke-opacity="0.5" stroke-width="3.2"/>
<circle clip-path="url(#clip962)" cx="2038.48" cy="691.455" r="14.4" fill="#009af9" fill-rule="evenodd" fill-opacity="0.5" stroke="#000000" stroke-opacity="0.5" stroke-width="3.2"/>
<circle clip-path="url(#clip962)" cx="1573.48" cy="639.978" r="14.4" fill="#009af9" fill-rule="evenodd" fill-opacity="0.5" stroke="#000000" stroke-opacity="0.5" stroke-width="3.2"/>
<circle clip-path="url(#clip962)" cx="433.599" cy="673.792" r="14.4" fill="#009af9" fill-rule="evenodd" fill-opacity="0.5" stroke="#000000" stroke-opacity="0.5" stroke-width="3.2"/>
<circle clip-path="url(#clip962)" cx="1909.03" cy="748.143" r="14.4" fill="#009af9" fill-rule="evenodd" fill-opacity="0.5" stroke="#000000" stroke-opacity="0.5" stroke-width="3.2"/>
<circle clip-path="url(#clip962)" cx="553.866" cy="522.919" r="14.4" fill="#009af9" fill-rule="evenodd" fill-opacity="0.5" stroke="#000000" stroke-opacity="0.5" stroke-width="3.2"/>
<circle clip-path="url(#clip962)" cx="1754.28" cy="239.457" r="14.4" fill="#009af9" fill-rule="evenodd" fill-opacity="0.5" stroke="#000000" stroke-opacity="0.5" stroke-width="3.2"/>
<circle clip-path="url(#clip962)" cx="1059.34" cy="774.627" r="14.4" fill="#009af9" fill-rule="evenodd" fill-opacity="0.5" stroke="#000000" stroke-opacity="0.5" stroke-width="3.2"/>
<circle clip-path="url(#clip962)" cx="1661.49" cy="87.9763" r="14.4" fill="#009af9" fill-rule="evenodd" fill-opacity="0.5" stroke="#000000" stroke-opacity="0.5" stroke-width="3.2"/>
<circle clip-path="url(#clip962)" cx="1068.31" cy="630.419" r="14.4" fill="#009af9" fill-rule="evenodd" fill-opacity="0.5" stroke="#000000" stroke-opacity="0.5" stroke-width="3.2"/>
<circle clip-path="url(#clip962)" cx="636.122" cy="600.515" r="14.4" fill="#009af9" fill-rule="evenodd" fill-opacity="0.5" stroke="#000000" stroke-opacity="0.5" stroke-width="3.2"/>
<path clip-path="url(#clip962)" d="M210.454 293.016 L433.599 673.792 L710.978 939.217 L1738.65 1445.72 L2290.36 809.387 L2194.69 665.805 L1661.49 87.9763 L210.454 293.016 L210.454 293.016  Z" fill="#e26f46" fill-rule="evenodd" fill-opacity="0.2"/>
<polyline clip-path="url(#clip962)" style="stroke:#000000; stroke-linecap:round; stroke-linejoin:round; stroke-width:4; stroke-opacity:0.2; fill:none" points="210.454,293.016 433.599,673.792 710.978,939.217 1738.65,1445.72 2290.36,809.387 2194.69,665.805 1661.49,87.9763 210.454,293.016 "/>
</svg>
