<?xml version="1.0" encoding="utf-8"?>
<svg xmlns="http://www.w3.org/2000/svg" xmlns:xlink="http://www.w3.org/1999/xlink" width="600" height="400" viewBox="0 0 2400 1600">
<defs>
  <clipPath id="clip780">
    <rect x="0" y="0" width="2400" height="1600"/>
  </clipPath>
</defs>
<path clip-path="url(#clip780)" d="M0 1600 L2400 1600 L2400 0 L0 0  Z" fill="#ffffff" fill-rule="evenodd" fill-opacity="1"/>
<defs>
  <clipPath id="clip781">
    <rect x="480" y="0" width="1681" height="1600"/>
  </clipPath>
</defs>
<path clip-path="url(#clip780)" d="M193.936 1486.45 L2352.76 1486.45 L2352.76 47.2441 L193.936 47.2441  Z" fill="#ffffff" fill-rule="evenodd" fill-opacity="1"/>
<defs>
  <clipPath id="clip782">
    <rect x="193" y="47" width="2160" height="1440"/>
  </clipPath>
</defs>
<polyline clip-path="url(#clip782)" style="stroke:#000000; stroke-linecap:round; stroke-linejoin:round; stroke-width:2; stroke-opacity:0.1; fill:none" points="465.505,1486.45 465.505,47.2441 "/>
<polyline clip-path="url(#clip782)" style="stroke:#000000; stroke-linecap:round; stroke-linejoin:round; stroke-width:2; stroke-opacity:0.1; fill:none" points="953.855,1486.45 953.855,47.2441 "/>
<polyline clip-path="url(#clip782)" style="stroke:#000000; stroke-linecap:round; stroke-linejoin:round; stroke-width:2; stroke-opacity:0.1; fill:none" points="1442.2,1486.45 1442.2,47.2441 "/>
<polyline clip-path="url(#clip782)" style="stroke:#000000; stroke-linecap:round; stroke-linejoin:round; stroke-width:2; stroke-opacity:0.1; fill:none" points="1930.55,1486.45 1930.55,47.2441 "/>
<polyline clip-path="url(#clip782)" style="stroke:#000000; stroke-linecap:round; stroke-linejoin:round; stroke-width:2; stroke-opacity:0.1; fill:none" points="193.936,1313.08 2352.76,1313.08 "/>
<polyline clip-path="url(#clip782)" style="stroke:#000000; stroke-linecap:round; stroke-linejoin:round; stroke-width:2; stroke-opacity:0.1; fill:none" points="193.936,1093.67 2352.76,1093.67 "/>
<polyline clip-path="url(#clip782)" style="stroke:#000000; stroke-linecap:round; stroke-linejoin:round; stroke-width:2; stroke-opacity:0.1; fill:none" points="193.936,874.264 2352.76,874.264 "/>
<polyline clip-path="url(#clip782)" style="stroke:#000000; stroke-linecap:round; stroke-linejoin:round; stroke-width:2; stroke-opacity:0.1; fill:none" points="193.936,654.855 2352.76,654.855 "/>
<polyline clip-path="url(#clip782)" style="stroke:#000000; stroke-linecap:round; stroke-linejoin:round; stroke-width:2; stroke-opacity:0.1; fill:none" points="193.936,435.445 2352.76,435.445 "/>
<polyline clip-path="url(#clip782)" style="stroke:#000000; stroke-linecap:round; stroke-linejoin:round; stroke-width:2; stroke-opacity:0.1; fill:none" points="193.936,216.035 2352.76,216.035 "/>
<polyline clip-path="url(#clip780)" style="stroke:#000000; stroke-linecap:round; stroke-linejoin:round; stroke-width:4; stroke-opacity:1; fill:none" points="193.936,1486.45 2352.76,1486.45 "/>
<polyline clip-path="url(#clip780)" style="stroke:#000000; stroke-linecap:round; stroke-linejoin:round; stroke-width:4; stroke-opacity:1; fill:none" points="465.505,1486.45 465.505,1467.55 "/>
<polyline clip-path="url(#clip780)" style="stroke:#000000; stroke-linecap:round; stroke-linejoin:round; stroke-width:4; stroke-opacity:1; fill:none" points="953.855,1486.45 953.855,1467.55 "/>
<polyline clip-path="url(#clip780)" style="stroke:#000000; stroke-linecap:round; stroke-linejoin:round; stroke-width:4; stroke-opacity:1; fill:none" points="1442.2,1486.45 1442.2,1467.55 "/>
<polyline clip-path="url(#clip780)" style="stroke:#000000; stroke-linecap:round; stroke-linejoin:round; stroke-width:4; stroke-opacity:1; fill:none" points="1930.55,1486.45 1930.55,1467.55 "/>
<path clip-path="url(#clip780)" d="M435.447 1532.02 L465.123 1532.02 L465.123 1535.95 L435.447 1535.95 L435.447 1532.02 Z" fill="#000000" fill-rule="nonzero" fill-opacity="1" /><path clip-path="url(#clip780)" d="M479.243 1544.91 L495.563 1544.91 L495.563 1548.85 L473.618 1548.85 L473.618 1544.91 Q476.28 1542.16 480.864 1537.53 Q485.47 1532.88 486.651 1531.53 Q488.896 1529.01 489.776 1527.27 Q490.679 1525.51 490.679 1523.82 Q490.679 1521.07 488.734 1519.33 Q486.813 1517.6 483.711 1517.6 Q481.512 1517.6 479.058 1518.36 Q476.628 1519.13 473.85 1520.68 L473.85 1515.95 Q476.674 1514.82 479.128 1514.24 Q481.581 1513.66 483.618 1513.66 Q488.989 1513.66 492.183 1516.35 Q495.378 1519.03 495.378 1523.52 Q495.378 1525.65 494.567 1527.57 Q493.78 1529.47 491.674 1532.07 Q491.095 1532.74 487.993 1535.95 Q484.892 1539.15 479.243 1544.91 Z" fill="#000000" fill-rule="nonzero" fill-opacity="1" /><path clip-path="url(#clip780)" d="M923.612 1532.02 L953.288 1532.02 L953.288 1535.95 L923.612 1535.95 L923.612 1532.02 Z" fill="#000000" fill-rule="nonzero" fill-opacity="1" /><path clip-path="url(#clip780)" d="M964.19 1544.91 L971.829 1544.91 L971.829 1518.55 L963.519 1520.21 L963.519 1515.95 L971.783 1514.29 L976.459 1514.29 L976.459 1544.91 L984.098 1544.91 L984.098 1548.85 L964.19 1548.85 L964.19 1544.91 Z" fill="#000000" fill-rule="nonzero" fill-opacity="1" /><path clip-path="url(#clip780)" d="M1442.2 1517.37 Q1438.59 1517.37 1436.76 1520.93 Q1434.96 1524.47 1434.96 1531.6 Q1434.96 1538.71 1436.76 1542.27 Q1438.59 1545.82 1442.2 1545.82 Q1445.84 1545.82 1447.64 1542.27 Q1449.47 1538.71 1449.47 1531.6 Q1449.47 1524.47 1447.64 1520.93 Q1445.84 1517.37 1442.2 1517.37 M1442.2 1513.66 Q1448.01 1513.66 1451.07 1518.27 Q1454.15 1522.85 1454.15 1531.6 Q1454.15 1540.33 1451.07 1544.94 Q1448.01 1549.52 1442.2 1549.52 Q1436.39 1549.52 1433.32 1544.94 Q1430.26 1540.33 1430.26 1531.6 Q1430.26 1522.85 1433.32 1518.27 Q1436.39 1513.66 1442.2 1513.66 Z" fill="#000000" fill-rule="nonzero" fill-opacity="1" /><path clip-path="url(#clip780)" d="M1920.94 1544.91 L1928.58 1544.91 L1928.58 1518.55 L1920.26 1520.21 L1920.26 1515.95 L1928.53 1514.29 L1933.2 1514.29 L1933.2 1544.91 L1940.84 1544.91 L1940.84 1548.85 L1920.94 1548.85 L1920.94 1544.91 Z" fill="#000000" fill-rule="nonzero" fill-opacity="1" /><polyline clip-path="url(#clip780)" style="stroke:#000000; stroke-linecap:round; stroke-linejoin:round; stroke-width:4; stroke-opacity:1; fill:none" points="193.936,1486.45 193.936,47.2441 "/>
<polyline clip-path="url(#clip780)" style="stroke:#000000; stroke-linecap:round; stroke-linejoin:round; stroke-width:4; stroke-opacity:1; fill:none" points="193.936,1313.08 212.834,1313.08 "/>
<polyline clip-path="url(#clip780)" style="stroke:#000000; stroke-linecap:round; stroke-linejoin:round; stroke-width:4; stroke-opacity:1; fill:none" points="193.936,1093.67 212.834,1093.67 "/>
<polyline clip-path="url(#clip780)" style="stroke:#000000; stroke-linecap:round; stroke-linejoin:round; stroke-width:4; stroke-opacity:1; fill:none" points="193.936,874.264 212.834,874.264 "/>
<polyline clip-path="url(#clip780)" style="stroke:#000000; stroke-linecap:round; stroke-linejoin:round; stroke-width:4; stroke-opacity:1; fill:none" points="193.936,654.855 212.834,654.855 "/>
<polyline clip-path="url(#clip780)" style="stroke:#000000; stroke-linecap:round; stroke-linejoin:round; stroke-width:4; stroke-opacity:1; fill:none" points="193.936,435.445 212.834,435.445 "/>
<polyline clip-path="url(#clip780)" style="stroke:#000000; stroke-linecap:round; stroke-linejoin:round; stroke-width:4; stroke-opacity:1; fill:none" points="193.936,216.035 212.834,216.035 "/>
<path clip-path="url(#clip780)" d="M50.9921 1313.54 L80.6679 1313.54 L80.6679 1317.47 L50.9921 1317.47 L50.9921 1313.54 Z" fill="#000000" fill-rule="nonzero" fill-opacity="1" /><path clip-path="url(#clip780)" d="M94.7882 1326.43 L111.108 1326.43 L111.108 1330.36 L89.1632 1330.36 L89.1632 1326.43 Q91.8252 1323.67 96.4085 1319.04 Q101.015 1314.39 102.196 1313.05 Q104.441 1310.53 105.321 1308.79 Q106.223 1307.03 106.223 1305.34 Q106.223 1302.59 104.279 1300.85 Q102.358 1299.11 99.2558 1299.11 Q97.0567 1299.11 94.603 1299.88 Q92.1725 1300.64 89.3947 1302.19 L89.3947 1297.47 Q92.2188 1296.34 94.6724 1295.76 Q97.1261 1295.18 99.1632 1295.18 Q104.534 1295.18 107.728 1297.86 Q110.922 1300.55 110.922 1305.04 Q110.922 1307.17 110.112 1309.09 Q109.325 1310.99 107.219 1313.58 Q106.64 1314.25 103.538 1317.47 Q100.436 1320.67 94.7882 1326.43 Z" fill="#000000" fill-rule="nonzero" fill-opacity="1" /><path clip-path="url(#clip780)" d="M120.922 1324.48 L125.807 1324.48 L125.807 1330.36 L120.922 1330.36 L120.922 1324.48 Z" fill="#000000" fill-rule="nonzero" fill-opacity="1" /><path clip-path="url(#clip780)" d="M145.992 1298.88 Q142.381 1298.88 140.552 1302.45 Q138.746 1305.99 138.746 1313.12 Q138.746 1320.23 140.552 1323.79 Q142.381 1327.33 145.992 1327.33 Q149.626 1327.33 151.431 1323.79 Q153.26 1320.23 153.26 1313.12 Q153.26 1305.99 151.431 1302.45 Q149.626 1298.88 145.992 1298.88 M145.992 1295.18 Q151.802 1295.18 154.857 1299.79 Q157.936 1304.37 157.936 1313.12 Q157.936 1321.85 154.857 1326.45 Q151.802 1331.04 145.992 1331.04 Q140.181 1331.04 137.103 1326.45 Q134.047 1321.85 134.047 1313.12 Q134.047 1304.37 137.103 1299.79 Q140.181 1295.18 145.992 1295.18 Z" fill="#000000" fill-rule="nonzero" fill-opacity="1" /><path clip-path="url(#clip780)" d="M51.9875 1094.13 L81.6633 1094.13 L81.6633 1098.06 L51.9875 1098.06 L51.9875 1094.13 Z" fill="#000000" fill-rule="nonzero" fill-opacity="1" /><path clip-path="url(#clip780)" d="M92.566 1107.02 L100.205 1107.02 L100.205 1080.65 L91.8947 1082.32 L91.8947 1078.06 L100.159 1076.39 L104.834 1076.39 L104.834 1107.02 L112.473 1107.02 L112.473 1110.95 L92.566 1110.95 L92.566 1107.02 Z" fill="#000000" fill-rule="nonzero" fill-opacity="1" /><path clip-path="url(#clip780)" d="M121.918 1105.07 L126.802 1105.07 L126.802 1110.95 L121.918 1110.95 L121.918 1105.07 Z" fill="#000000" fill-rule="nonzero" fill-opacity="1" /><path clip-path="url(#clip780)" d="M137.033 1076.39 L155.39 1076.39 L155.39 1080.33 L141.316 1080.33 L141.316 1088.8 Q142.334 1088.45 143.353 1088.29 Q144.371 1088.11 145.39 1088.11 Q151.177 1088.11 154.556 1091.28 Q157.936 1094.45 157.936 1099.87 Q157.936 1105.45 154.464 1108.55 Q150.992 1111.63 144.672 1111.63 Q142.496 1111.63 140.228 1111.26 Q137.982 1110.88 135.575 1110.14 L135.575 1105.45 Q137.658 1106.58 139.881 1107.13 Q142.103 1107.69 144.58 1107.69 Q148.584 1107.69 150.922 1105.58 Q153.26 1103.48 153.26 1099.87 Q153.26 1096.26 150.922 1094.15 Q148.584 1092.04 144.58 1092.04 Q142.705 1092.04 140.83 1092.46 Q138.978 1092.88 137.033 1093.76 L137.033 1076.39 Z" fill="#000000" fill-rule="nonzero" fill-opacity="1" /><path clip-path="url(#clip780)" d="M50.9921 874.716 L80.6679 874.716 L80.6679 878.651 L50.9921 878.651 L50.9921 874.716 Z" fill="#000000" fill-rule="nonzero" fill-opacity="1" /><path clip-path="url(#clip780)" d="M91.5706 887.609 L99.2095 887.609 L99.2095 861.244 L90.8993 862.91 L90.8993 858.651 L99.1632 856.984 L103.839 856.984 L103.839 887.609 L111.478 887.609 L111.478 891.544 L91.5706 891.544 L91.5706 887.609 Z" fill="#000000" fill-rule="nonzero" fill-opacity="1" /><path clip-path="url(#clip780)" d="M120.922 885.665 L125.807 885.665 L125.807 891.544 L120.922 891.544 L120.922 885.665 Z" fill="#000000" fill-rule="nonzero" fill-opacity="1" /><path clip-path="url(#clip780)" d="M145.992 860.063 Q142.381 860.063 140.552 863.628 Q138.746 867.17 138.746 874.299 Q138.746 881.406 140.552 884.97 Q142.381 888.512 145.992 888.512 Q149.626 888.512 151.431 884.97 Q153.26 881.406 153.26 874.299 Q153.26 867.17 151.431 863.628 Q149.626 860.063 145.992 860.063 M145.992 856.359 Q151.802 856.359 154.857 860.966 Q157.936 865.549 157.936 874.299 Q157.936 883.026 154.857 887.632 Q151.802 892.216 145.992 892.216 Q140.181 892.216 137.103 887.632 Q134.047 883.026 134.047 874.299 Q134.047 865.549 137.103 860.966 Q140.181 856.359 145.992 856.359 Z" fill="#000000" fill-rule="nonzero" fill-opacity="1" /><path clip-path="url(#clip780)" d="M51.9875 655.306 L81.6633 655.306 L81.6633 659.241 L51.9875 659.241 L51.9875 655.306 Z" fill="#000000" fill-rule="nonzero" fill-opacity="1" /><path clip-path="url(#clip780)" d="M101.756 640.653 Q98.1447 640.653 96.316 644.218 Q94.5104 647.76 94.5104 654.889 Q94.5104 661.996 96.316 665.561 Q98.1447 669.102 101.756 669.102 Q105.39 669.102 107.196 665.561 Q109.024 661.996 109.024 654.889 Q109.024 647.76 107.196 644.218 Q105.39 640.653 101.756 640.653 M101.756 636.95 Q107.566 636.95 110.621 641.556 Q113.7 646.139 113.7 654.889 Q113.7 663.616 110.621 668.223 Q107.566 672.806 101.756 672.806 Q95.9456 672.806 92.8669 668.223 Q89.8114 663.616 89.8114 654.889 Q89.8114 646.139 92.8669 641.556 Q95.9456 636.95 101.756 636.95 Z" fill="#000000" fill-rule="nonzero" fill-opacity="1" /><path clip-path="url(#clip780)" d="M121.918 666.255 L126.802 666.255 L126.802 672.135 L121.918 672.135 L121.918 666.255 Z" fill="#000000" fill-rule="nonzero" fill-opacity="1" /><path clip-path="url(#clip780)" d="M137.033 637.575 L155.39 637.575 L155.39 641.51 L141.316 641.51 L141.316 649.982 Q142.334 649.635 143.353 649.473 Q144.371 649.288 145.39 649.288 Q151.177 649.288 154.556 652.459 Q157.936 655.63 157.936 661.047 Q157.936 666.625 154.464 669.727 Q150.992 672.806 144.672 672.806 Q142.496 672.806 140.228 672.436 Q137.982 672.065 135.575 671.325 L135.575 666.625 Q137.658 667.76 139.881 668.315 Q142.103 668.871 144.58 668.871 Q148.584 668.871 150.922 666.764 Q153.26 664.658 153.26 661.047 Q153.26 657.436 150.922 655.329 Q148.584 653.223 144.58 653.223 Q142.705 653.223 140.83 653.639 Q138.978 654.056 137.033 654.936 L137.033 637.575 Z" fill="#000000" fill-rule="nonzero" fill-opacity="1" /><path clip-path="url(#clip780)" d="M100.76 421.244 Q97.1493 421.244 95.3206 424.808 Q93.515 428.35 93.515 435.48 Q93.515 442.586 95.3206 446.151 Q97.1493 449.693 100.76 449.693 Q104.395 449.693 106.2 446.151 Q108.029 442.586 108.029 435.48 Q108.029 428.35 106.2 424.808 Q104.395 421.244 100.76 421.244 M100.76 417.54 Q106.571 417.54 109.626 422.146 Q112.705 426.73 112.705 435.48 Q112.705 444.206 109.626 448.813 Q106.571 453.396 100.76 453.396 Q94.9502 453.396 91.8715 448.813 Q88.816 444.206 88.816 435.48 Q88.816 426.73 91.8715 422.146 Q94.9502 417.54 100.76 417.54 Z" fill="#000000" fill-rule="nonzero" fill-opacity="1" /><path clip-path="url(#clip780)" d="M120.922 446.845 L125.807 446.845 L125.807 452.725 L120.922 452.725 L120.922 446.845 Z" fill="#000000" fill-rule="nonzero" fill-opacity="1" /><path clip-path="url(#clip780)" d="M145.992 421.244 Q142.381 421.244 140.552 424.808 Q138.746 428.35 138.746 435.48 Q138.746 442.586 140.552 446.151 Q142.381 449.693 145.992 449.693 Q149.626 449.693 151.431 446.151 Q153.26 442.586 153.26 435.48 Q153.26 428.35 151.431 424.808 Q149.626 421.244 145.992 421.244 M145.992 417.54 Q151.802 417.54 154.857 422.146 Q157.936 426.73 157.936 435.48 Q157.936 444.206 154.857 448.813 Q151.802 453.396 145.992 453.396 Q140.181 453.396 137.103 448.813 Q134.047 444.206 134.047 435.48 Q134.047 426.73 137.103 422.146 Q140.181 417.54 145.992 417.54 Z" fill="#000000" fill-rule="nonzero" fill-opacity="1" /><path clip-path="url(#clip780)" d="M101.756 201.834 Q98.1447 201.834 96.316 205.399 Q94.5104 208.94 94.5104 216.07 Q94.5104 223.176 96.316 226.741 Q98.1447 230.283 101.756 230.283 Q105.39 230.283 107.196 226.741 Q109.024 223.176 109.024 216.07 Q109.024 208.94 107.196 205.399 Q105.39 201.834 101.756 201.834 M101.756 198.13 Q107.566 198.13 110.621 202.737 Q113.7 207.32 113.7 216.07 Q113.7 224.797 110.621 229.403 Q107.566 233.986 101.756 233.986 Q95.9456 233.986 92.8669 229.403 Q89.8114 224.797 89.8114 216.07 Q89.8114 207.32 92.8669 202.737 Q95.9456 198.13 101.756 198.13 Z" fill="#000000" fill-rule="nonzero" fill-opacity="1" /><path clip-path="url(#clip780)" d="M121.918 227.436 L126.802 227.436 L126.802 233.315 L121.918 233.315 L121.918 227.436 Z" fill="#000000" fill-rule="nonzero" fill-opacity="1" /><path clip-path="url(#clip780)" d="M137.033 198.755 L155.39 198.755 L155.39 202.69 L141.316 202.69 L141.316 211.162 Q142.334 210.815 143.353 210.653 Q144.371 210.468 145.39 210.468 Q151.177 210.468 154.556 213.639 Q157.936 216.811 157.936 222.227 Q157.936 227.806 154.464 230.908 Q150.992 233.986 144.672 233.986 Q142.496 233.986 140.228 233.616 Q137.982 233.246 135.575 232.505 L135.575 227.806 Q137.658 228.94 139.881 229.496 Q142.103 230.051 144.58 230.051 Q148.584 230.051 150.922 227.945 Q153.26 225.838 153.26 222.227 Q153.26 218.616 150.922 216.51 Q148.584 214.403 144.58 214.403 Q142.705 214.403 140.83 214.82 Q138.978 215.237 137.033 216.116 L137.033 198.755 Z" fill="#000000" fill-rule="nonzero" fill-opacity="1" /><circle clip-path="url(#clip782)" cx="891.356" cy="433.325" r="14.4" fill="#009af9" fill-rule="evenodd" fill-opacity="0.5" stroke="#000000" stroke-opacity="0.5" stroke-width="3.2"/>
<circle clip-path="url(#clip782)" cx="1196.37" cy="1108.17" r="14.4" fill="#009af9" fill-rule="evenodd" fill-opacity="0.5" stroke="#000000" stroke-opacity="0.5" stroke-width="3.2"/>
<circle clip-path="url(#clip782)" cx="1106.07" cy="962.84" r="14.4" fill="#009af9" fill-rule="evenodd" fill-opacity="0.5" stroke="#000000" stroke-opacity="0.5" stroke-width="3.2"/>
<circle clip-path="url(#clip782)" cx="1909.84" cy="305.085" r="14.4" fill="#009af9" fill-rule="evenodd" fill-opacity="0.5" stroke="#000000" stroke-opacity="0.5" stroke-width="3.2"/>
<circle clip-path="url(#clip782)" cx="1282.45" cy="179.606" r="14.4" fill="#009af9" fill-rule="evenodd" fill-opacity="0.5" stroke="#000000" stroke-opacity="0.5" stroke-width="3.2"/>
<circle clip-path="url(#clip782)" cx="783.398" cy="577.119" r="14.4" fill="#009af9" fill-rule="evenodd" fill-opacity="0.5" stroke="#000000" stroke-opacity="0.5" stroke-width="3.2"/>
<circle clip-path="url(#clip782)" cx="2006.02" cy="951.961" r="14.4" fill="#009af9" fill-rule="evenodd" fill-opacity="0.5" stroke="#000000" stroke-opacity="0.5" stroke-width="3.2"/>
<circle clip-path="url(#clip782)" cx="513.992" cy="844.705" r="14.4" fill="#009af9" fill-rule="evenodd" fill-opacity="0.5" stroke="#000000" stroke-opacity="0.5" stroke-width="3.2"/>
<circle clip-path="url(#clip782)" cx="1640.01" cy="736.739" r="14.4" fill="#009af9" fill-rule="evenodd" fill-opacity="0.5" stroke="#000000" stroke-opacity="0.5" stroke-width="3.2"/>
<circle clip-path="url(#clip782)" cx="1574.33" cy="349.048" r="14.4" fill="#009af9" fill-rule="evenodd" fill-opacity="0.5" stroke="#000000" stroke-opacity="0.5" stroke-width="3.2"/>
<circle clip-path="url(#clip782)" cx="1638.17" cy="474.254" r="14.4" fill="#009af9" fill-rule="evenodd" fill-opacity="0.5" stroke="#000000" stroke-opacity="0.5" stroke-width="3.2"/>
<circle clip-path="url(#clip782)" cx="1435.03" cy="989.595" r="14.4" fill="#009af9" fill-rule="evenodd" fill-opacity="0.5" stroke="#000000" stroke-opacity="0.5" stroke-width="3.2"/>
<circle clip-path="url(#clip782)" cx="1827.04" cy="343.362" r="14.4" fill="#009af9" fill-rule="evenodd" fill-opacity="0.5" stroke="#000000" stroke-opacity="0.5" stroke-width="3.2"/>
<circle clip-path="url(#clip782)" cx="1314.4" cy="835.216" r="14.4" fill="#009af9" fill-rule="evenodd" fill-opacity="0.5" stroke="#000000" stroke-opacity="0.5" stroke-width="3.2"/>
<circle clip-path="url(#clip782)" cx="1165.29" cy="1248.3" r="14.4" fill="#009af9" fill-rule="evenodd" fill-opacity="0.5" stroke="#000000" stroke-opacity="0.5" stroke-width="3.2"/>
<circle clip-path="url(#clip782)" cx="1710.03" cy="301.909" r="14.4" fill="#009af9" fill-rule="evenodd" fill-opacity="0.5" stroke="#000000" stroke-opacity="0.5" stroke-width="3.2"/>
<circle clip-path="url(#clip782)" cx="1623.03" cy="87.9763" r="14.4" fill="#009af9" fill-rule="evenodd" fill-opacity="0.5" stroke="#000000" stroke-opacity="0.5" stroke-width="3.2"/>
<circle clip-path="url(#clip782)" cx="711.511" cy="229.11" r="14.4" fill="#009af9" fill-rule="evenodd" fill-opacity="0.5" stroke="#000000" stroke-opacity="0.5" stroke-width="3.2"/>
<circle clip-path="url(#clip782)" cx="1806.67" cy="654.99" r="14.4" fill="#009af9" fill-rule="evenodd" fill-opacity="0.5" stroke="#000000" stroke-opacity="0.5" stroke-width="3.2"/>
<circle clip-path="url(#clip782)" cx="2249.71" cy="987.738" r="14.4" fill="#009af9" fill-rule="evenodd" fill-opacity="0.5" stroke="#000000" stroke-opacity="0.5" stroke-width="3.2"/>
<circle clip-path="url(#clip782)" cx="1490.73" cy="1445.72" r="14.4" fill="#009af9" fill-rule="evenodd" fill-opacity="0.5" stroke="#000000" stroke-opacity="0.5" stroke-width="3.2"/>
<circle clip-path="url(#clip782)" cx="255.035" cy="288.077" r="14.4" fill="#009af9" fill-rule="evenodd" fill-opacity="0.5" stroke="#000000" stroke-opacity="0.5" stroke-width="3.2"/>
<circle clip-path="url(#clip782)" cx="1215.71" cy="132.887" r="14.4" fill="#009af9" fill-rule="evenodd" fill-opacity="0.5" stroke="#000000" stroke-opacity="0.5" stroke-width="3.2"/>
<circle clip-path="url(#clip782)" cx="905.217" cy="715.605" r="14.4" fill="#009af9" fill-rule="evenodd" fill-opacity="0.5" stroke="#000000" stroke-opacity="0.5" stroke-width="3.2"/>
<circle clip-path="url(#clip782)" cx="1348.07" cy="113.392" r="14.4" fill="#009af9" fill-rule="evenodd" fill-opacity="0.5" stroke="#000000" stroke-opacity="0.5" stroke-width="3.2"/>
<circle clip-path="url(#clip782)" cx="2291.66" cy="584.493" r="14.4" fill="#009af9" fill-rule="evenodd" fill-opacity="0.5" stroke="#000000" stroke-opacity="0.5" stroke-width="3.2"/>
<circle clip-path="url(#clip782)" cx="1350.98" cy="117.173" r="14.4" fill="#009af9" fill-rule="evenodd" fill-opacity="0.5" stroke="#000000" stroke-opacity="0.5" stroke-width="3.2"/>
<circle clip-path="url(#clip782)" cx="330.165" cy="470.572" r="14.4" fill="#009af9" fill-rule="evenodd" fill-opacity="0.5" stroke="#000000" stroke-opacity="0.5" stroke-width="3.2"/>
<circle clip-path="url(#clip782)" cx="1707.46" cy="109.292" r="14.4" fill="#009af9" fill-rule="evenodd" fill-opacity="0.5" stroke="#000000" stroke-opacity="0.5" stroke-width="3.2"/>
<circle clip-path="url(#clip782)" cx="1713.99" cy="594.211" r="14.4" fill="#009af9" fill-rule="evenodd" fill-opacity="0.5" stroke="#000000" stroke-opacity="0.5" stroke-width="3.2"/>
<path clip-path="url(#clip782)" d="M255.035 288.077 L330.165 470.572 L513.992 844.705 L1165.29 1248.3 L1490.73 1445.72 L2249.71 987.738 L2291.66 584.493 L1707.46 109.292 L1623.03 87.9763 L1348.07 113.392 L1215.71 132.887 L255.035 288.077 L255.035 288.077  Z" fill="#e26f46" fill-rule="evenodd" fill-opacity="0.2"/>
<polyline clip-path="url(#clip782)" style="stroke:#000000; stroke-linecap:round; stroke-linejoin:round; stroke-width:4; stroke-opacity:0.2; fill:none" points="255.035,288.077 330.165,470.572 513.992,844.705 1165.29,1248.3 1490.73,1445.72 2249.71,987.738 2291.66,584.493 1707.46,109.292 1623.03,87.9763 1348.07,113.392 1215.71,132.887 255.035,288.077 "/>
</svg>
