<?xml version="1.0" encoding="utf-8"?>
<svg xmlns="http://www.w3.org/2000/svg" xmlns:xlink="http://www.w3.org/1999/xlink" width="600" height="400" viewBox="0 0 2400 1600">
<defs>
  <clipPath id="clip050">
    <rect x="0" y="0" width="2400" height="1600"/>
  </clipPath>
</defs>
<path clip-path="url(#clip050)" d="M0 1600 L2400 1600 L2400 0 L0 0  Z" fill="#ffffff" fill-rule="evenodd" fill-opacity="1"/>
<defs>
  <clipPath id="clip051">
    <rect x="480" y="0" width="1681" height="1600"/>
  </clipPath>
</defs>
<path clip-path="url(#clip050)" d="M147.478 1486.45 L2352.76 1486.45 L2352.76 47.2441 L147.478 47.2441  Z" fill="#ffffff" fill-rule="evenodd" fill-opacity="1"/>
<defs>
  <clipPath id="clip052">
    <rect x="147" y="47" width="2206" height="1440"/>
  </clipPath>
</defs>
<polyline clip-path="url(#clip052)" style="stroke:#000000; stroke-linecap:round; stroke-linejoin:round; stroke-width:2; stroke-opacity:0.1; fill:none" points="277.01,1486.45 277.01,47.2441 "/>
<polyline clip-path="url(#clip052)" style="stroke:#000000; stroke-linecap:round; stroke-linejoin:round; stroke-width:2; stroke-opacity:0.1; fill:none" points="755.39,1486.45 755.39,47.2441 "/>
<polyline clip-path="url(#clip052)" style="stroke:#000000; stroke-linecap:round; stroke-linejoin:round; stroke-width:2; stroke-opacity:0.1; fill:none" points="1233.77,1486.45 1233.77,47.2441 "/>
<polyline clip-path="url(#clip052)" style="stroke:#000000; stroke-linecap:round; stroke-linejoin:round; stroke-width:2; stroke-opacity:0.1; fill:none" points="1712.15,1486.45 1712.15,47.2441 "/>
<polyline clip-path="url(#clip052)" style="stroke:#000000; stroke-linecap:round; stroke-linejoin:round; stroke-width:2; stroke-opacity:0.1; fill:none" points="2190.53,1486.45 2190.53,47.2441 "/>
<polyline clip-path="url(#clip052)" style="stroke:#000000; stroke-linecap:round; stroke-linejoin:round; stroke-width:2; stroke-opacity:0.1; fill:none" points="147.478,1348.19 2352.76,1348.19 "/>
<polyline clip-path="url(#clip052)" style="stroke:#000000; stroke-linecap:round; stroke-linejoin:round; stroke-width:2; stroke-opacity:0.1; fill:none" points="147.478,1032.48 2352.76,1032.48 "/>
<polyline clip-path="url(#clip052)" style="stroke:#000000; stroke-linecap:round; stroke-linejoin:round; stroke-width:2; stroke-opacity:0.1; fill:none" points="147.478,716.778 2352.76,716.778 "/>
<polyline clip-path="url(#clip052)" style="stroke:#000000; stroke-linecap:round; stroke-linejoin:round; stroke-width:2; stroke-opacity:0.1; fill:none" points="147.478,401.072 2352.76,401.072 "/>
<polyline clip-path="url(#clip052)" style="stroke:#000000; stroke-linecap:round; stroke-linejoin:round; stroke-width:2; stroke-opacity:0.1; fill:none" points="147.478,85.3669 2352.76,85.3669 "/>
<polyline clip-path="url(#clip050)" style="stroke:#000000; stroke-linecap:round; stroke-linejoin:round; stroke-width:4; stroke-opacity:1; fill:none" points="147.478,1486.45 2352.76,1486.45 "/>
<polyline clip-path="url(#clip050)" style="stroke:#000000; stroke-linecap:round; stroke-linejoin:round; stroke-width:4; stroke-opacity:1; fill:none" points="277.01,1486.45 277.01,1467.55 "/>
<polyline clip-path="url(#clip050)" style="stroke:#000000; stroke-linecap:round; stroke-linejoin:round; stroke-width:4; stroke-opacity:1; fill:none" points="755.39,1486.45 755.39,1467.55 "/>
<polyline clip-path="url(#clip050)" style="stroke:#000000; stroke-linecap:round; stroke-linejoin:round; stroke-width:4; stroke-opacity:1; fill:none" points="1233.77,1486.45 1233.77,1467.55 "/>
<polyline clip-path="url(#clip050)" style="stroke:#000000; stroke-linecap:round; stroke-linejoin:round; stroke-width:4; stroke-opacity:1; fill:none" points="1712.15,1486.45 1712.15,1467.55 "/>
<polyline clip-path="url(#clip050)" style="stroke:#000000; stroke-linecap:round; stroke-linejoin:round; stroke-width:4; stroke-opacity:1; fill:none" points="2190.53,1486.45 2190.53,1467.55 "/>
<path clip-path="url(#clip050)" d="M246.952 1532.02 L276.628 1532.02 L276.628 1535.95 L246.952 1535.95 L246.952 1532.02 Z" fill="#000000" fill-rule="nonzero" fill-opacity="1" /><path clip-path="url(#clip050)" d="M290.748 1544.91 L307.068 1544.91 L307.068 1548.85 L285.123 1548.85 L285.123 1544.91 Q287.785 1542.16 292.369 1537.53 Q296.975 1532.88 298.156 1531.53 Q300.401 1529.01 301.281 1527.27 Q302.183 1525.51 302.183 1523.82 Q302.183 1521.07 300.239 1519.33 Q298.318 1517.6 295.216 1517.6 Q293.017 1517.6 290.563 1518.36 Q288.132 1519.13 285.355 1520.68 L285.355 1515.95 Q288.179 1514.82 290.632 1514.24 Q293.086 1513.66 295.123 1513.66 Q300.494 1513.66 303.688 1516.35 Q306.882 1519.03 306.882 1523.52 Q306.882 1525.65 306.072 1527.57 Q305.285 1529.47 303.179 1532.07 Q302.6 1532.74 299.498 1535.95 Q296.396 1539.15 290.748 1544.91 Z" fill="#000000" fill-rule="nonzero" fill-opacity="1" /><path clip-path="url(#clip050)" d="M725.147 1532.02 L754.823 1532.02 L754.823 1535.95 L725.147 1535.95 L725.147 1532.02 Z" fill="#000000" fill-rule="nonzero" fill-opacity="1" /><path clip-path="url(#clip050)" d="M765.726 1544.91 L773.365 1544.91 L773.365 1518.55 L765.054 1520.21 L765.054 1515.95 L773.318 1514.29 L777.994 1514.29 L777.994 1544.91 L785.633 1544.91 L785.633 1548.85 L765.726 1548.85 L765.726 1544.91 Z" fill="#000000" fill-rule="nonzero" fill-opacity="1" /><path clip-path="url(#clip050)" d="M1233.77 1517.37 Q1230.16 1517.37 1228.33 1520.93 Q1226.52 1524.47 1226.52 1531.6 Q1226.52 1538.71 1228.33 1542.27 Q1230.16 1545.82 1233.77 1545.82 Q1237.4 1545.82 1239.21 1542.27 Q1241.04 1538.71 1241.04 1531.6 Q1241.04 1524.47 1239.21 1520.93 Q1237.4 1517.37 1233.77 1517.37 M1233.77 1513.66 Q1239.58 1513.66 1242.64 1518.27 Q1245.71 1522.85 1245.71 1531.6 Q1245.71 1540.33 1242.64 1544.94 Q1239.58 1549.52 1233.77 1549.52 Q1227.96 1549.52 1224.88 1544.94 Q1221.83 1540.33 1221.83 1531.6 Q1221.83 1522.85 1224.88 1518.27 Q1227.96 1513.66 1233.77 1513.66 Z" fill="#000000" fill-rule="nonzero" fill-opacity="1" /><path clip-path="url(#clip050)" d="M1702.53 1544.91 L1710.17 1544.91 L1710.17 1518.55 L1701.86 1520.21 L1701.86 1515.95 L1710.13 1514.29 L1714.8 1514.29 L1714.8 1544.91 L1722.44 1544.91 L1722.44 1548.85 L1702.53 1548.85 L1702.53 1544.91 Z" fill="#000000" fill-rule="nonzero" fill-opacity="1" /><path clip-path="url(#clip050)" d="M2185.18 1544.91 L2201.5 1544.91 L2201.5 1548.85 L2179.56 1548.85 L2179.56 1544.91 Q2182.22 1542.16 2186.8 1537.53 Q2191.41 1532.88 2192.59 1531.53 Q2194.84 1529.01 2195.72 1527.27 Q2196.62 1525.51 2196.62 1523.82 Q2196.62 1521.07 2194.67 1519.33 Q2192.75 1517.6 2189.65 1517.6 Q2187.45 1517.6 2185 1518.36 Q2182.57 1519.13 2179.79 1520.68 L2179.79 1515.95 Q2182.61 1514.82 2185.07 1514.24 Q2187.52 1513.66 2189.56 1513.66 Q2194.93 1513.66 2198.12 1516.35 Q2201.32 1519.03 2201.32 1523.52 Q2201.32 1525.65 2200.51 1527.57 Q2199.72 1529.47 2197.61 1532.07 Q2197.04 1532.74 2193.93 1535.95 Q2190.83 1539.15 2185.18 1544.91 Z" fill="#000000" fill-rule="nonzero" fill-opacity="1" /><polyline clip-path="url(#clip050)" style="stroke:#000000; stroke-linecap:round; stroke-linejoin:round; stroke-width:4; stroke-opacity:1; fill:none" points="147.478,1486.45 147.478,47.2441 "/>
<polyline clip-path="url(#clip050)" style="stroke:#000000; stroke-linecap:round; stroke-linejoin:round; stroke-width:4; stroke-opacity:1; fill:none" points="147.478,1348.19 166.376,1348.19 "/>
<polyline clip-path="url(#clip050)" style="stroke:#000000; stroke-linecap:round; stroke-linejoin:round; stroke-width:4; stroke-opacity:1; fill:none" points="147.478,1032.48 166.376,1032.48 "/>
<polyline clip-path="url(#clip050)" style="stroke:#000000; stroke-linecap:round; stroke-linejoin:round; stroke-width:4; stroke-opacity:1; fill:none" points="147.478,716.778 166.376,716.778 "/>
<polyline clip-path="url(#clip050)" style="stroke:#000000; stroke-linecap:round; stroke-linejoin:round; stroke-width:4; stroke-opacity:1; fill:none" points="147.478,401.072 166.376,401.072 "/>
<polyline clip-path="url(#clip050)" style="stroke:#000000; stroke-linecap:round; stroke-linejoin:round; stroke-width:4; stroke-opacity:1; fill:none" points="147.478,85.3669 166.376,85.3669 "/>
<path clip-path="url(#clip050)" d="M51.3625 1348.64 L81.0383 1348.64 L81.0383 1352.58 L51.3625 1352.58 L51.3625 1348.64 Z" fill="#000000" fill-rule="nonzero" fill-opacity="1" /><path clip-path="url(#clip050)" d="M95.1586 1361.53 L111.478 1361.53 L111.478 1365.47 L89.5336 1365.47 L89.5336 1361.53 Q92.1956 1358.78 96.7789 1354.15 Q101.385 1349.5 102.566 1348.15 Q104.811 1345.63 105.691 1343.89 Q106.594 1342.14 106.594 1340.45 Q106.594 1337.69 104.649 1335.96 Q102.728 1334.22 99.6261 1334.22 Q97.4271 1334.22 94.9734 1334.98 Q92.5428 1335.75 89.7651 1337.3 L89.7651 1332.58 Q92.5891 1331.44 95.0428 1330.86 Q97.4965 1330.28 99.5335 1330.28 Q104.904 1330.28 108.098 1332.97 Q111.293 1335.65 111.293 1340.14 Q111.293 1342.27 110.483 1344.2 Q109.696 1346.09 107.589 1348.69 Q107.01 1349.36 103.909 1352.58 Q100.807 1355.77 95.1586 1361.53 Z" fill="#000000" fill-rule="nonzero" fill-opacity="1" /><path clip-path="url(#clip050)" d="M50.9921 1032.93 L80.6679 1032.93 L80.6679 1036.87 L50.9921 1036.87 L50.9921 1032.93 Z" fill="#000000" fill-rule="nonzero" fill-opacity="1" /><path clip-path="url(#clip050)" d="M91.5706 1045.83 L99.2095 1045.83 L99.2095 1019.46 L90.8993 1021.13 L90.8993 1016.87 L99.1632 1015.2 L103.839 1015.2 L103.839 1045.83 L111.478 1045.83 L111.478 1049.76 L91.5706 1049.76 L91.5706 1045.83 Z" fill="#000000" fill-rule="nonzero" fill-opacity="1" /><path clip-path="url(#clip050)" d="M99.5335 702.577 Q95.9224 702.577 94.0937 706.141 Q92.2882 709.683 92.2882 716.813 Q92.2882 723.919 94.0937 727.484 Q95.9224 731.025 99.5335 731.025 Q103.168 731.025 104.973 727.484 Q106.802 723.919 106.802 716.813 Q106.802 709.683 104.973 706.141 Q103.168 702.577 99.5335 702.577 M99.5335 698.873 Q105.344 698.873 108.399 703.479 Q111.478 708.063 111.478 716.813 Q111.478 725.539 108.399 730.146 Q105.344 734.729 99.5335 734.729 Q93.7234 734.729 90.6447 730.146 Q87.5892 725.539 87.5892 716.813 Q87.5892 708.063 90.6447 703.479 Q93.7234 698.873 99.5335 698.873 Z" fill="#000000" fill-rule="nonzero" fill-opacity="1" /><path clip-path="url(#clip050)" d="M91.5706 414.417 L99.2095 414.417 L99.2095 388.052 L90.8993 389.718 L90.8993 385.459 L99.1632 383.792 L103.839 383.792 L103.839 414.417 L111.478 414.417 L111.478 418.352 L91.5706 418.352 L91.5706 414.417 Z" fill="#000000" fill-rule="nonzero" fill-opacity="1" /><path clip-path="url(#clip050)" d="M95.1586 98.7117 L111.478 98.7117 L111.478 102.647 L89.5336 102.647 L89.5336 98.7117 Q92.1956 95.9571 96.7789 91.3275 Q101.385 86.6747 102.566 85.3321 Q104.811 82.809 105.691 81.0729 Q106.594 79.3137 106.594 77.6239 Q106.594 74.8692 104.649 73.1331 Q102.728 71.397 99.6261 71.397 Q97.4271 71.397 94.9734 72.1609 Q92.5428 72.9248 89.7651 74.4757 L89.7651 69.7535 Q92.5891 68.6193 95.0428 68.0406 Q97.4965 67.4619 99.5335 67.4619 Q104.904 67.4619 108.098 70.147 Q111.293 72.8322 111.293 77.3229 Q111.293 79.4525 110.483 81.3738 Q109.696 83.272 107.589 85.8646 Q107.01 86.5358 103.909 89.7534 Q100.807 92.9478 95.1586 98.7117 Z" fill="#000000" fill-rule="nonzero" fill-opacity="1" /><circle clip-path="url(#clip052)" cx="209.891" cy="889.091" r="14.4" fill="#009af9" fill-rule="evenodd" fill-opacity="0.5" stroke="#000000" stroke-opacity="0.5" stroke-width="3.2"/>
<circle clip-path="url(#clip052)" cx="1663.77" cy="841.459" r="14.4" fill="#009af9" fill-rule="evenodd" fill-opacity="0.5" stroke="#000000" stroke-opacity="0.5" stroke-width="3.2"/>
<circle clip-path="url(#clip052)" cx="1922.58" cy="722.222" r="14.4" fill="#009af9" fill-rule="evenodd" fill-opacity="0.5" stroke="#000000" stroke-opacity="0.5" stroke-width="3.2"/>
<circle clip-path="url(#clip052)" cx="1275.71" cy="1115.93" r="14.4" fill="#009af9" fill-rule="evenodd" fill-opacity="0.5" stroke="#000000" stroke-opacity="0.5" stroke-width="3.2"/>
<circle clip-path="url(#clip052)" cx="947.108" cy="793.844" r="14.4" fill="#009af9" fill-rule="evenodd" fill-opacity="0.5" stroke="#000000" stroke-opacity="0.5" stroke-width="3.2"/>
<circle clip-path="url(#clip052)" cx="1296.09" cy="754.839" r="14.4" fill="#009af9" fill-rule="evenodd" fill-opacity="0.5" stroke="#000000" stroke-opacity="0.5" stroke-width="3.2"/>
<circle clip-path="url(#clip052)" cx="1662.55" cy="984.349" r="14.4" fill="#009af9" fill-rule="evenodd" fill-opacity="0.5" stroke="#000000" stroke-opacity="0.5" stroke-width="3.2"/>
<circle clip-path="url(#clip052)" cx="945.602" cy="87.9763" r="14.4" fill="#009af9" fill-rule="evenodd" fill-opacity="0.5" stroke="#000000" stroke-opacity="0.5" stroke-width="3.2"/>
<circle clip-path="url(#clip052)" cx="513.908" cy="754.126" r="14.4" fill="#009af9" fill-rule="evenodd" fill-opacity="0.5" stroke="#000000" stroke-opacity="0.5" stroke-width="3.2"/>
<circle clip-path="url(#clip052)" cx="1116.24" cy="338.289" r="14.4" fill="#009af9" fill-rule="evenodd" fill-opacity="0.5" stroke="#000000" stroke-opacity="0.5" stroke-width="3.2"/>
<circle clip-path="url(#clip052)" cx="1930.92" cy="639.691" r="14.4" fill="#009af9" fill-rule="evenodd" fill-opacity="0.5" stroke="#000000" stroke-opacity="0.5" stroke-width="3.2"/>
<circle clip-path="url(#clip052)" cx="1816.32" cy="897.149" r="14.4" fill="#009af9" fill-rule="evenodd" fill-opacity="0.5" stroke="#000000" stroke-opacity="0.5" stroke-width="3.2"/>
<circle clip-path="url(#clip052)" cx="1391.99" cy="696.439" r="14.4" fill="#009af9" fill-rule="evenodd" fill-opacity="0.5" stroke="#000000" stroke-opacity="0.5" stroke-width="3.2"/>
<circle clip-path="url(#clip052)" cx="1665.36" cy="411.764" r="14.4" fill="#009af9" fill-rule="evenodd" fill-opacity="0.5" stroke="#000000" stroke-opacity="0.5" stroke-width="3.2"/>
<circle clip-path="url(#clip052)" cx="1624.68" cy="186.697" r="14.4" fill="#009af9" fill-rule="evenodd" fill-opacity="0.5" stroke="#000000" stroke-opacity="0.5" stroke-width="3.2"/>
<circle clip-path="url(#clip052)" cx="652.911" cy="355.394" r="14.4" fill="#009af9" fill-rule="evenodd" fill-opacity="0.5" stroke="#000000" stroke-opacity="0.5" stroke-width="3.2"/>
<circle clip-path="url(#clip052)" cx="1934.16" cy="856.905" r="14.4" fill="#009af9" fill-rule="evenodd" fill-opacity="0.5" stroke="#000000" stroke-opacity="0.5" stroke-width="3.2"/>
<circle clip-path="url(#clip052)" cx="1695.1" cy="907.352" r="14.4" fill="#009af9" fill-rule="evenodd" fill-opacity="0.5" stroke="#000000" stroke-opacity="0.5" stroke-width="3.2"/>
<circle clip-path="url(#clip052)" cx="1531.75" cy="1196.25" r="14.4" fill="#009af9" fill-rule="evenodd" fill-opacity="0.5" stroke="#000000" stroke-opacity="0.5" stroke-width="3.2"/>
<circle clip-path="url(#clip052)" cx="1800.43" cy="1084.41" r="14.4" fill="#009af9" fill-rule="evenodd" fill-opacity="0.5" stroke="#000000" stroke-opacity="0.5" stroke-width="3.2"/>
<circle clip-path="url(#clip052)" cx="1655.13" cy="772.054" r="14.4" fill="#009af9" fill-rule="evenodd" fill-opacity="0.5" stroke="#000000" stroke-opacity="0.5" stroke-width="3.2"/>
<circle clip-path="url(#clip052)" cx="1060.28" cy="741.702" r="14.4" fill="#009af9" fill-rule="evenodd" fill-opacity="0.5" stroke="#000000" stroke-opacity="0.5" stroke-width="3.2"/>
<circle clip-path="url(#clip052)" cx="725.166" cy="457.206" r="14.4" fill="#009af9" fill-rule="evenodd" fill-opacity="0.5" stroke="#000000" stroke-opacity="0.5" stroke-width="3.2"/>
<circle clip-path="url(#clip052)" cx="1536.47" cy="568.078" r="14.4" fill="#009af9" fill-rule="evenodd" fill-opacity="0.5" stroke="#000000" stroke-opacity="0.5" stroke-width="3.2"/>
<circle clip-path="url(#clip052)" cx="1842.4" cy="813.727" r="14.4" fill="#009af9" fill-rule="evenodd" fill-opacity="0.5" stroke="#000000" stroke-opacity="0.5" stroke-width="3.2"/>
<circle clip-path="url(#clip052)" cx="2290.34" cy="729.867" r="14.4" fill="#009af9" fill-rule="evenodd" fill-opacity="0.5" stroke="#000000" stroke-opacity="0.5" stroke-width="3.2"/>
<circle clip-path="url(#clip052)" cx="1414.75" cy="1058.72" r="14.4" fill="#009af9" fill-rule="evenodd" fill-opacity="0.5" stroke="#000000" stroke-opacity="0.5" stroke-width="3.2"/>
<circle clip-path="url(#clip052)" cx="414.073" cy="638.739" r="14.4" fill="#009af9" fill-rule="evenodd" fill-opacity="0.5" stroke="#000000" stroke-opacity="0.5" stroke-width="3.2"/>
<circle clip-path="url(#clip052)" cx="942.292" cy="1445.72" r="14.4" fill="#009af9" fill-rule="evenodd" fill-opacity="0.5" stroke="#000000" stroke-opacity="0.5" stroke-width="3.2"/>
<circle clip-path="url(#clip052)" cx="2263.64" cy="428.741" r="14.4" fill="#009af9" fill-rule="evenodd" fill-opacity="0.5" stroke="#000000" stroke-opacity="0.5" stroke-width="3.2"/>
<path clip-path="url(#clip052)" d="M209.891 889.091 L942.292 1445.72 L1800.43 1084.41 L2290.34 729.867 L2263.64 428.741 L1624.68 186.697 L945.602 87.9763 L652.911 355.394 L414.073 638.739 L209.891 889.091 L209.891 889.091  Z" fill="#e26f46" fill-rule="evenodd" fill-opacity="0.2"/>
<polyline clip-path="url(#clip052)" style="stroke:#000000; stroke-linecap:round; stroke-linejoin:round; stroke-width:4; stroke-opacity:0.2; fill:none" points="209.891,889.091 942.292,1445.72 1800.43,1084.41 2290.34,729.867 2263.64,428.741 1624.68,186.697 945.602,87.9763 652.911,355.394 414.073,638.739 209.891,889.091 "/>
</svg>
