<?xml version="1.0" encoding="utf-8"?>
<svg xmlns="http://www.w3.org/2000/svg" xmlns:xlink="http://www.w3.org/1999/xlink" width="600" height="400" viewBox="0 0 2400 1600">
<defs>
  <clipPath id="clip620">
    <rect x="0" y="0" width="2400" height="1600"/>
  </clipPath>
</defs>
<path clip-path="url(#clip620)" d="M0 1600 L2400 1600 L2400 0 L0 0  Z" fill="#ffffff" fill-rule="evenodd" fill-opacity="1"/>
<defs>
  <clipPath id="clip621">
    <rect x="480" y="0" width="1681" height="1600"/>
  </clipPath>
</defs>
<path clip-path="url(#clip620)" d="M147.478 1486.45 L2352.76 1486.45 L2352.76 47.2441 L147.478 47.2441  Z" fill="#ffffff" fill-rule="evenodd" fill-opacity="1"/>
<defs>
  <clipPath id="clip622">
    <rect x="147" y="47" width="2206" height="1440"/>
  </clipPath>
</defs>
<polyline clip-path="url(#clip622)" style="stroke:#000000; stroke-linecap:round; stroke-linejoin:round; stroke-width:2; stroke-opacity:0.1; fill:none" points="234.157,1486.45 234.157,47.2441 "/>
<polyline clip-path="url(#clip622)" style="stroke:#000000; stroke-linecap:round; stroke-linejoin:round; stroke-width:2; stroke-opacity:0.1; fill:none" points="571.687,1486.45 571.687,47.2441 "/>
<polyline clip-path="url(#clip622)" style="stroke:#000000; stroke-linecap:round; stroke-linejoin:round; stroke-width:2; stroke-opacity:0.1; fill:none" points="909.218,1486.45 909.218,47.2441 "/>
<polyline clip-path="url(#clip622)" style="stroke:#000000; stroke-linecap:round; stroke-linejoin:round; stroke-width:2; stroke-opacity:0.1; fill:none" points="1246.75,1486.45 1246.75,47.2441 "/>
<polyline clip-path="url(#clip622)" style="stroke:#000000; stroke-linecap:round; stroke-linejoin:round; stroke-width:2; stroke-opacity:0.1; fill:none" points="1584.28,1486.45 1584.28,47.2441 "/>
<polyline clip-path="url(#clip622)" style="stroke:#000000; stroke-linecap:round; stroke-linejoin:round; stroke-width:2; stroke-opacity:0.1; fill:none" points="1921.81,1486.45 1921.81,47.2441 "/>
<polyline clip-path="url(#clip622)" style="stroke:#000000; stroke-linecap:round; stroke-linejoin:round; stroke-width:2; stroke-opacity:0.1; fill:none" points="2259.34,1486.45 2259.34,47.2441 "/>
<polyline clip-path="url(#clip622)" style="stroke:#000000; stroke-linecap:round; stroke-linejoin:round; stroke-width:2; stroke-opacity:0.1; fill:none" points="147.478,1335.6 2352.76,1335.6 "/>
<polyline clip-path="url(#clip622)" style="stroke:#000000; stroke-linecap:round; stroke-linejoin:round; stroke-width:2; stroke-opacity:0.1; fill:none" points="147.478,984.032 2352.76,984.032 "/>
<polyline clip-path="url(#clip622)" style="stroke:#000000; stroke-linecap:round; stroke-linejoin:round; stroke-width:2; stroke-opacity:0.1; fill:none" points="147.478,632.464 2352.76,632.464 "/>
<polyline clip-path="url(#clip622)" style="stroke:#000000; stroke-linecap:round; stroke-linejoin:round; stroke-width:2; stroke-opacity:0.1; fill:none" points="147.478,280.895 2352.76,280.895 "/>
<polyline clip-path="url(#clip620)" style="stroke:#000000; stroke-linecap:round; stroke-linejoin:round; stroke-width:4; stroke-opacity:1; fill:none" points="147.478,1486.45 2352.76,1486.45 "/>
<polyline clip-path="url(#clip620)" style="stroke:#000000; stroke-linecap:round; stroke-linejoin:round; stroke-width:4; stroke-opacity:1; fill:none" points="234.157,1486.45 234.157,1467.55 "/>
<polyline clip-path="url(#clip620)" style="stroke:#000000; stroke-linecap:round; stroke-linejoin:round; stroke-width:4; stroke-opacity:1; fill:none" points="571.687,1486.45 571.687,1467.55 "/>
<polyline clip-path="url(#clip620)" style="stroke:#000000; stroke-linecap:round; stroke-linejoin:round; stroke-width:4; stroke-opacity:1; fill:none" points="909.218,1486.45 909.218,1467.55 "/>
<polyline clip-path="url(#clip620)" style="stroke:#000000; stroke-linecap:round; stroke-linejoin:round; stroke-width:4; stroke-opacity:1; fill:none" points="1246.75,1486.45 1246.75,1467.55 "/>
<polyline clip-path="url(#clip620)" style="stroke:#000000; stroke-linecap:round; stroke-linejoin:round; stroke-width:4; stroke-opacity:1; fill:none" points="1584.28,1486.45 1584.28,1467.55 "/>
<polyline clip-path="url(#clip620)" style="stroke:#000000; stroke-linecap:round; stroke-linejoin:round; stroke-width:4; stroke-opacity:1; fill:none" points="1921.81,1486.45 1921.81,1467.55 "/>
<polyline clip-path="url(#clip620)" style="stroke:#000000; stroke-linecap:round; stroke-linejoin:round; stroke-width:4; stroke-opacity:1; fill:none" points="2259.34,1486.45 2259.34,1467.55 "/>
<path clip-path="url(#clip620)" d="M181.182 1532.02 L210.858 1532.02 L210.858 1535.95 L181.182 1535.95 L181.182 1532.02 Z" fill="#000000" fill-rule="nonzero" fill-opacity="1" /><path clip-path="url(#clip620)" d="M221.761 1544.91 L229.4 1544.91 L229.4 1518.55 L221.09 1520.21 L221.09 1515.95 L229.354 1514.29 L234.029 1514.29 L234.029 1544.91 L241.668 1544.91 L241.668 1548.85 L221.761 1548.85 L221.761 1544.91 Z" fill="#000000" fill-rule="nonzero" fill-opacity="1" /><path clip-path="url(#clip620)" d="M251.113 1542.97 L255.997 1542.97 L255.997 1548.85 L251.113 1548.85 L251.113 1542.97 Z" fill="#000000" fill-rule="nonzero" fill-opacity="1" /><path clip-path="url(#clip620)" d="M266.228 1514.29 L284.585 1514.29 L284.585 1518.22 L270.511 1518.22 L270.511 1526.7 Q271.529 1526.35 272.548 1526.19 Q273.566 1526 274.585 1526 Q280.372 1526 283.751 1529.17 Q287.131 1532.34 287.131 1537.76 Q287.131 1543.34 283.659 1546.44 Q280.187 1549.52 273.867 1549.52 Q271.691 1549.52 269.423 1549.15 Q267.177 1548.78 264.77 1548.04 L264.77 1543.34 Q266.853 1544.47 269.076 1545.03 Q271.298 1545.58 273.775 1545.58 Q277.779 1545.58 280.117 1543.48 Q282.455 1541.37 282.455 1537.76 Q282.455 1534.15 280.117 1532.04 Q277.779 1529.94 273.775 1529.94 Q271.9 1529.94 270.025 1530.35 Q268.173 1530.77 266.228 1531.65 L266.228 1514.29 Z" fill="#000000" fill-rule="nonzero" fill-opacity="1" /><path clip-path="url(#clip620)" d="M518.215 1532.02 L547.891 1532.02 L547.891 1535.95 L518.215 1535.95 L518.215 1532.02 Z" fill="#000000" fill-rule="nonzero" fill-opacity="1" /><path clip-path="url(#clip620)" d="M558.794 1544.91 L566.433 1544.91 L566.433 1518.55 L558.122 1520.21 L558.122 1515.95 L566.386 1514.29 L571.062 1514.29 L571.062 1544.91 L578.701 1544.91 L578.701 1548.85 L558.794 1548.85 L558.794 1544.91 Z" fill="#000000" fill-rule="nonzero" fill-opacity="1" /><path clip-path="url(#clip620)" d="M588.145 1542.97 L593.03 1542.97 L593.03 1548.85 L588.145 1548.85 L588.145 1542.97 Z" fill="#000000" fill-rule="nonzero" fill-opacity="1" /><path clip-path="url(#clip620)" d="M613.215 1517.37 Q609.604 1517.37 607.775 1520.93 Q605.969 1524.47 605.969 1531.6 Q605.969 1538.71 607.775 1542.27 Q609.604 1545.82 613.215 1545.82 Q616.849 1545.82 618.654 1542.27 Q620.483 1538.71 620.483 1531.6 Q620.483 1524.47 618.654 1520.93 Q616.849 1517.37 613.215 1517.37 M613.215 1513.66 Q619.025 1513.66 622.08 1518.27 Q625.159 1522.85 625.159 1531.6 Q625.159 1540.33 622.08 1544.94 Q619.025 1549.52 613.215 1549.52 Q607.405 1549.52 604.326 1544.94 Q601.27 1540.33 601.27 1531.6 Q601.27 1522.85 604.326 1518.27 Q607.405 1513.66 613.215 1513.66 Z" fill="#000000" fill-rule="nonzero" fill-opacity="1" /><path clip-path="url(#clip620)" d="M856.243 1532.02 L885.919 1532.02 L885.919 1535.95 L856.243 1535.95 L856.243 1532.02 Z" fill="#000000" fill-rule="nonzero" fill-opacity="1" /><path clip-path="url(#clip620)" d="M906.012 1517.37 Q902.4 1517.37 900.572 1520.93 Q898.766 1524.47 898.766 1531.6 Q898.766 1538.71 900.572 1542.27 Q902.4 1545.82 906.012 1545.82 Q909.646 1545.82 911.451 1542.27 Q913.28 1538.71 913.28 1531.6 Q913.28 1524.47 911.451 1520.93 Q909.646 1517.37 906.012 1517.37 M906.012 1513.66 Q911.822 1513.66 914.877 1518.27 Q917.956 1522.85 917.956 1531.6 Q917.956 1540.33 914.877 1544.94 Q911.822 1549.52 906.012 1549.52 Q900.201 1549.52 897.123 1544.94 Q894.067 1540.33 894.067 1531.6 Q894.067 1522.85 897.123 1518.27 Q900.201 1513.66 906.012 1513.66 Z" fill="#000000" fill-rule="nonzero" fill-opacity="1" /><path clip-path="url(#clip620)" d="M926.173 1542.97 L931.058 1542.97 L931.058 1548.85 L926.173 1548.85 L926.173 1542.97 Z" fill="#000000" fill-rule="nonzero" fill-opacity="1" /><path clip-path="url(#clip620)" d="M941.289 1514.29 L959.646 1514.29 L959.646 1518.22 L945.572 1518.22 L945.572 1526.7 Q946.59 1526.35 947.609 1526.19 Q948.627 1526 949.646 1526 Q955.433 1526 958.812 1529.17 Q962.192 1532.34 962.192 1537.76 Q962.192 1543.34 958.72 1546.44 Q955.247 1549.52 948.928 1549.52 Q946.752 1549.52 944.484 1549.15 Q942.238 1548.78 939.831 1548.04 L939.831 1543.34 Q941.914 1544.47 944.136 1545.03 Q946.359 1545.58 948.835 1545.58 Q952.84 1545.58 955.178 1543.48 Q957.516 1541.37 957.516 1537.76 Q957.516 1534.15 955.178 1532.04 Q952.84 1529.94 948.835 1529.94 Q946.96 1529.94 945.085 1530.35 Q943.234 1530.77 941.289 1531.65 L941.289 1514.29 Z" fill="#000000" fill-rule="nonzero" fill-opacity="1" /><path clip-path="url(#clip620)" d="M1224.13 1517.37 Q1220.52 1517.37 1218.69 1520.93 Q1216.89 1524.47 1216.89 1531.6 Q1216.89 1538.71 1218.69 1542.27 Q1220.52 1545.82 1224.13 1545.82 Q1227.77 1545.82 1229.57 1542.27 Q1231.4 1538.71 1231.4 1531.6 Q1231.4 1524.47 1229.57 1520.93 Q1227.77 1517.37 1224.13 1517.37 M1224.13 1513.66 Q1229.94 1513.66 1233 1518.27 Q1236.08 1522.85 1236.08 1531.6 Q1236.08 1540.33 1233 1544.94 Q1229.94 1549.52 1224.13 1549.52 Q1218.32 1549.52 1215.24 1544.94 Q1212.19 1540.33 1212.19 1531.6 Q1212.19 1522.85 1215.24 1518.27 Q1218.32 1513.66 1224.13 1513.66 Z" fill="#000000" fill-rule="nonzero" fill-opacity="1" /><path clip-path="url(#clip620)" d="M1244.29 1542.97 L1249.18 1542.97 L1249.18 1548.85 L1244.29 1548.85 L1244.29 1542.97 Z" fill="#000000" fill-rule="nonzero" fill-opacity="1" /><path clip-path="url(#clip620)" d="M1269.36 1517.37 Q1265.75 1517.37 1263.92 1520.93 Q1262.12 1524.47 1262.12 1531.6 Q1262.12 1538.71 1263.92 1542.27 Q1265.75 1545.82 1269.36 1545.82 Q1273 1545.82 1274.8 1542.27 Q1276.63 1538.71 1276.63 1531.6 Q1276.63 1524.47 1274.8 1520.93 Q1273 1517.37 1269.36 1517.37 M1269.36 1513.66 Q1275.17 1513.66 1278.23 1518.27 Q1281.31 1522.85 1281.31 1531.6 Q1281.31 1540.33 1278.23 1544.94 Q1275.17 1549.52 1269.36 1549.52 Q1263.55 1549.52 1260.47 1544.94 Q1257.42 1540.33 1257.42 1531.6 Q1257.42 1522.85 1260.47 1518.27 Q1263.55 1513.66 1269.36 1513.66 Z" fill="#000000" fill-rule="nonzero" fill-opacity="1" /><path clip-path="url(#clip620)" d="M1562.16 1517.37 Q1558.55 1517.37 1556.72 1520.93 Q1554.92 1524.47 1554.92 1531.6 Q1554.92 1538.71 1556.72 1542.27 Q1558.55 1545.82 1562.16 1545.82 Q1565.79 1545.82 1567.6 1542.27 Q1569.43 1538.71 1569.43 1531.6 Q1569.43 1524.47 1567.6 1520.93 Q1565.79 1517.37 1562.16 1517.37 M1562.16 1513.66 Q1567.97 1513.66 1571.03 1518.27 Q1574.1 1522.85 1574.1 1531.6 Q1574.1 1540.33 1571.03 1544.94 Q1567.97 1549.52 1562.16 1549.52 Q1556.35 1549.52 1553.27 1544.94 Q1550.22 1540.33 1550.22 1531.6 Q1550.22 1522.85 1553.27 1518.27 Q1556.35 1513.66 1562.16 1513.66 Z" fill="#000000" fill-rule="nonzero" fill-opacity="1" /><path clip-path="url(#clip620)" d="M1582.32 1542.97 L1587.21 1542.97 L1587.21 1548.85 L1582.32 1548.85 L1582.32 1542.97 Z" fill="#000000" fill-rule="nonzero" fill-opacity="1" /><path clip-path="url(#clip620)" d="M1597.44 1514.29 L1615.79 1514.29 L1615.79 1518.22 L1601.72 1518.22 L1601.72 1526.7 Q1602.74 1526.35 1603.76 1526.19 Q1604.78 1526 1605.79 1526 Q1611.58 1526 1614.96 1529.17 Q1618.34 1532.34 1618.34 1537.76 Q1618.34 1543.34 1614.87 1546.44 Q1611.4 1549.52 1605.08 1549.52 Q1602.9 1549.52 1600.63 1549.15 Q1598.39 1548.78 1595.98 1548.04 L1595.98 1543.34 Q1598.06 1544.47 1600.29 1545.03 Q1602.51 1545.58 1604.98 1545.58 Q1608.99 1545.58 1611.33 1543.48 Q1613.66 1541.37 1613.66 1537.76 Q1613.66 1534.15 1611.33 1532.04 Q1608.99 1529.94 1604.98 1529.94 Q1603.11 1529.94 1601.23 1530.35 Q1599.38 1530.77 1597.44 1531.65 L1597.44 1514.29 Z" fill="#000000" fill-rule="nonzero" fill-opacity="1" /><path clip-path="url(#clip620)" d="M1888.96 1544.91 L1896.6 1544.91 L1896.6 1518.55 L1888.29 1520.21 L1888.29 1515.95 L1896.55 1514.29 L1901.23 1514.29 L1901.23 1544.91 L1908.87 1544.91 L1908.87 1548.85 L1888.96 1548.85 L1888.96 1544.91 Z" fill="#000000" fill-rule="nonzero" fill-opacity="1" /><path clip-path="url(#clip620)" d="M1918.31 1542.97 L1923.2 1542.97 L1923.2 1548.85 L1918.31 1548.85 L1918.31 1542.97 Z" fill="#000000" fill-rule="nonzero" fill-opacity="1" /><path clip-path="url(#clip620)" d="M1943.38 1517.37 Q1939.77 1517.37 1937.94 1520.93 Q1936.14 1524.47 1936.14 1531.6 Q1936.14 1538.71 1937.94 1542.27 Q1939.77 1545.82 1943.38 1545.82 Q1947.02 1545.82 1948.82 1542.27 Q1950.65 1538.71 1950.65 1531.6 Q1950.65 1524.47 1948.82 1520.93 Q1947.02 1517.37 1943.38 1517.37 M1943.38 1513.66 Q1949.19 1513.66 1952.25 1518.27 Q1955.33 1522.85 1955.33 1531.6 Q1955.33 1540.33 1952.25 1544.94 Q1949.19 1549.52 1943.38 1549.52 Q1937.57 1549.52 1934.49 1544.94 Q1931.44 1540.33 1931.44 1531.6 Q1931.44 1522.85 1934.49 1518.27 Q1937.57 1513.66 1943.38 1513.66 Z" fill="#000000" fill-rule="nonzero" fill-opacity="1" /><path clip-path="url(#clip620)" d="M2226.99 1544.91 L2234.63 1544.91 L2234.63 1518.55 L2226.32 1520.21 L2226.32 1515.95 L2234.58 1514.29 L2239.26 1514.29 L2239.26 1544.91 L2246.9 1544.91 L2246.9 1548.85 L2226.99 1548.85 L2226.99 1544.91 Z" fill="#000000" fill-rule="nonzero" fill-opacity="1" /><path clip-path="url(#clip620)" d="M2256.34 1542.97 L2261.23 1542.97 L2261.23 1548.85 L2256.34 1548.85 L2256.34 1542.97 Z" fill="#000000" fill-rule="nonzero" fill-opacity="1" /><path clip-path="url(#clip620)" d="M2271.46 1514.29 L2289.81 1514.29 L2289.81 1518.22 L2275.74 1518.22 L2275.74 1526.7 Q2276.76 1526.35 2277.78 1526.19 Q2278.8 1526 2279.81 1526 Q2285.6 1526 2288.98 1529.17 Q2292.36 1532.34 2292.36 1537.76 Q2292.36 1543.34 2288.89 1546.44 Q2285.42 1549.52 2279.1 1549.52 Q2276.92 1549.52 2274.65 1549.15 Q2272.41 1548.78 2270 1548.04 L2270 1543.34 Q2272.08 1544.47 2274.3 1545.03 Q2276.53 1545.58 2279 1545.58 Q2283.01 1545.58 2285.35 1543.48 Q2287.68 1541.37 2287.68 1537.76 Q2287.68 1534.15 2285.35 1532.04 Q2283.01 1529.94 2279 1529.94 Q2277.13 1529.94 2275.25 1530.35 Q2273.4 1530.77 2271.46 1531.65 L2271.46 1514.29 Z" fill="#000000" fill-rule="nonzero" fill-opacity="1" /><polyline clip-path="url(#clip620)" style="stroke:#000000; stroke-linecap:round; stroke-linejoin:round; stroke-width:4; stroke-opacity:1; fill:none" points="147.478,1486.45 147.478,47.2441 "/>
<polyline clip-path="url(#clip620)" style="stroke:#000000; stroke-linecap:round; stroke-linejoin:round; stroke-width:4; stroke-opacity:1; fill:none" points="147.478,1335.6 166.376,1335.6 "/>
<polyline clip-path="url(#clip620)" style="stroke:#000000; stroke-linecap:round; stroke-linejoin:round; stroke-width:4; stroke-opacity:1; fill:none" points="147.478,984.032 166.376,984.032 "/>
<polyline clip-path="url(#clip620)" style="stroke:#000000; stroke-linecap:round; stroke-linejoin:round; stroke-width:4; stroke-opacity:1; fill:none" points="147.478,632.464 166.376,632.464 "/>
<polyline clip-path="url(#clip620)" style="stroke:#000000; stroke-linecap:round; stroke-linejoin:round; stroke-width:4; stroke-opacity:1; fill:none" points="147.478,280.895 166.376,280.895 "/>
<path clip-path="url(#clip620)" d="M51.3625 1336.05 L81.0383 1336.05 L81.0383 1339.99 L51.3625 1339.99 L51.3625 1336.05 Z" fill="#000000" fill-rule="nonzero" fill-opacity="1" /><path clip-path="url(#clip620)" d="M95.1586 1348.94 L111.478 1348.94 L111.478 1352.88 L89.5336 1352.88 L89.5336 1348.94 Q92.1956 1346.19 96.7789 1341.56 Q101.385 1336.91 102.566 1335.57 Q104.811 1333.04 105.691 1331.31 Q106.594 1329.55 106.594 1327.86 Q106.594 1325.1 104.649 1323.37 Q102.728 1321.63 99.6261 1321.63 Q97.4271 1321.63 94.9734 1322.39 Q92.5428 1323.16 89.7651 1324.71 L89.7651 1319.99 Q92.5891 1318.85 95.0428 1318.27 Q97.4965 1317.69 99.5335 1317.69 Q104.904 1317.69 108.098 1320.38 Q111.293 1323.07 111.293 1327.56 Q111.293 1329.69 110.483 1331.61 Q109.696 1333.5 107.589 1336.1 Q107.01 1336.77 103.909 1339.99 Q100.807 1343.18 95.1586 1348.94 Z" fill="#000000" fill-rule="nonzero" fill-opacity="1" /><path clip-path="url(#clip620)" d="M50.9921 984.483 L80.6679 984.483 L80.6679 988.418 L50.9921 988.418 L50.9921 984.483 Z" fill="#000000" fill-rule="nonzero" fill-opacity="1" /><path clip-path="url(#clip620)" d="M91.5706 997.377 L99.2095 997.377 L99.2095 971.011 L90.8993 972.678 L90.8993 968.418 L99.1632 966.752 L103.839 966.752 L103.839 997.377 L111.478 997.377 L111.478 1001.31 L91.5706 1001.31 L91.5706 997.377 Z" fill="#000000" fill-rule="nonzero" fill-opacity="1" /><path clip-path="url(#clip620)" d="M99.5335 618.262 Q95.9224 618.262 94.0937 621.827 Q92.2882 625.369 92.2882 632.498 Q92.2882 639.605 94.0937 643.169 Q95.9224 646.711 99.5335 646.711 Q103.168 646.711 104.973 643.169 Q106.802 639.605 106.802 632.498 Q106.802 625.369 104.973 621.827 Q103.168 618.262 99.5335 618.262 M99.5335 614.559 Q105.344 614.559 108.399 619.165 Q111.478 623.748 111.478 632.498 Q111.478 641.225 108.399 645.831 Q105.344 650.415 99.5335 650.415 Q93.7234 650.415 90.6447 645.831 Q87.5892 641.225 87.5892 632.498 Q87.5892 623.748 90.6447 619.165 Q93.7234 614.559 99.5335 614.559 Z" fill="#000000" fill-rule="nonzero" fill-opacity="1" /><path clip-path="url(#clip620)" d="M91.5706 294.24 L99.2095 294.24 L99.2095 267.875 L90.8993 269.541 L90.8993 265.282 L99.1632 263.615 L103.839 263.615 L103.839 294.24 L111.478 294.24 L111.478 298.175 L91.5706 298.175 L91.5706 294.24 Z" fill="#000000" fill-rule="nonzero" fill-opacity="1" /><circle clip-path="url(#clip622)" cx="623.289" cy="909.276" r="14.4" fill="#009af9" fill-rule="evenodd" fill-opacity="0.5" stroke="#000000" stroke-opacity="0.5" stroke-width="3.2"/>
<circle clip-path="url(#clip622)" cx="982.535" cy="585.947" r="14.4" fill="#009af9" fill-rule="evenodd" fill-opacity="0.5" stroke="#000000" stroke-opacity="0.5" stroke-width="3.2"/>
<circle clip-path="url(#clip622)" cx="1461.51" cy="448.979" r="14.4" fill="#009af9" fill-rule="evenodd" fill-opacity="0.5" stroke="#000000" stroke-opacity="0.5" stroke-width="3.2"/>
<circle clip-path="url(#clip622)" cx="1083.9" cy="656.277" r="14.4" fill="#009af9" fill-rule="evenodd" fill-opacity="0.5" stroke="#000000" stroke-opacity="0.5" stroke-width="3.2"/>
<circle clip-path="url(#clip622)" cx="1347.27" cy="1101.76" r="14.4" fill="#009af9" fill-rule="evenodd" fill-opacity="0.5" stroke="#000000" stroke-opacity="0.5" stroke-width="3.2"/>
<circle clip-path="url(#clip622)" cx="1285.14" cy="87.9763" r="14.4" fill="#009af9" fill-rule="evenodd" fill-opacity="0.5" stroke="#000000" stroke-opacity="0.5" stroke-width="3.2"/>
<circle clip-path="url(#clip622)" cx="698.691" cy="350.933" r="14.4" fill="#009af9" fill-rule="evenodd" fill-opacity="0.5" stroke="#000000" stroke-opacity="0.5" stroke-width="3.2"/>
<circle clip-path="url(#clip622)" cx="1237.93" cy="474.11" r="14.4" fill="#009af9" fill-rule="evenodd" fill-opacity="0.5" stroke="#000000" stroke-opacity="0.5" stroke-width="3.2"/>
<circle clip-path="url(#clip622)" cx="1304.38" cy="931.959" r="14.4" fill="#009af9" fill-rule="evenodd" fill-opacity="0.5" stroke="#000000" stroke-opacity="0.5" stroke-width="3.2"/>
<circle clip-path="url(#clip622)" cx="1297.8" cy="761.48" r="14.4" fill="#009af9" fill-rule="evenodd" fill-opacity="0.5" stroke="#000000" stroke-opacity="0.5" stroke-width="3.2"/>
<circle clip-path="url(#clip622)" cx="1463.61" cy="1011.58" r="14.4" fill="#009af9" fill-rule="evenodd" fill-opacity="0.5" stroke="#000000" stroke-opacity="0.5" stroke-width="3.2"/>
<circle clip-path="url(#clip622)" cx="1643.13" cy="1336.11" r="14.4" fill="#009af9" fill-rule="evenodd" fill-opacity="0.5" stroke="#000000" stroke-opacity="0.5" stroke-width="3.2"/>
<circle clip-path="url(#clip622)" cx="914.637" cy="1054.65" r="14.4" fill="#009af9" fill-rule="evenodd" fill-opacity="0.5" stroke="#000000" stroke-opacity="0.5" stroke-width="3.2"/>
<circle clip-path="url(#clip622)" cx="2290.34" cy="1187.99" r="14.4" fill="#009af9" fill-rule="evenodd" fill-opacity="0.5" stroke="#000000" stroke-opacity="0.5" stroke-width="3.2"/>
<circle clip-path="url(#clip622)" cx="1668.01" cy="730.46" r="14.4" fill="#009af9" fill-rule="evenodd" fill-opacity="0.5" stroke="#000000" stroke-opacity="0.5" stroke-width="3.2"/>
<circle clip-path="url(#clip622)" cx="282.014" cy="467.273" r="14.4" fill="#009af9" fill-rule="evenodd" fill-opacity="0.5" stroke="#000000" stroke-opacity="0.5" stroke-width="3.2"/>
<circle clip-path="url(#clip622)" cx="562.093" cy="687.005" r="14.4" fill="#009af9" fill-rule="evenodd" fill-opacity="0.5" stroke="#000000" stroke-opacity="0.5" stroke-width="3.2"/>
<circle clip-path="url(#clip622)" cx="209.891" cy="1445.72" r="14.4" fill="#009af9" fill-rule="evenodd" fill-opacity="0.5" stroke="#000000" stroke-opacity="0.5" stroke-width="3.2"/>
<circle clip-path="url(#clip622)" cx="1491.45" cy="796.628" r="14.4" fill="#009af9" fill-rule="evenodd" fill-opacity="0.5" stroke="#000000" stroke-opacity="0.5" stroke-width="3.2"/>
<circle clip-path="url(#clip622)" cx="1610.61" cy="411.291" r="14.4" fill="#009af9" fill-rule="evenodd" fill-opacity="0.5" stroke="#000000" stroke-opacity="0.5" stroke-width="3.2"/>
<circle clip-path="url(#clip622)" cx="1722.38" cy="816.631" r="14.4" fill="#009af9" fill-rule="evenodd" fill-opacity="0.5" stroke="#000000" stroke-opacity="0.5" stroke-width="3.2"/>
<circle clip-path="url(#clip622)" cx="1499.07" cy="494.879" r="14.4" fill="#009af9" fill-rule="evenodd" fill-opacity="0.5" stroke="#000000" stroke-opacity="0.5" stroke-width="3.2"/>
<circle clip-path="url(#clip622)" cx="1944.31" cy="633.646" r="14.4" fill="#009af9" fill-rule="evenodd" fill-opacity="0.5" stroke="#000000" stroke-opacity="0.5" stroke-width="3.2"/>
<circle clip-path="url(#clip622)" cx="1618.38" cy="773.905" r="14.4" fill="#009af9" fill-rule="evenodd" fill-opacity="0.5" stroke="#000000" stroke-opacity="0.5" stroke-width="3.2"/>
<circle clip-path="url(#clip622)" cx="1489.88" cy="842.035" r="14.4" fill="#009af9" fill-rule="evenodd" fill-opacity="0.5" stroke="#000000" stroke-opacity="0.5" stroke-width="3.2"/>
<circle clip-path="url(#clip622)" cx="1570.25" cy="1391.89" r="14.4" fill="#009af9" fill-rule="evenodd" fill-opacity="0.5" stroke="#000000" stroke-opacity="0.5" stroke-width="3.2"/>
<circle clip-path="url(#clip622)" cx="814.745" cy="641.973" r="14.4" fill="#009af9" fill-rule="evenodd" fill-opacity="0.5" stroke="#000000" stroke-opacity="0.5" stroke-width="3.2"/>
<circle clip-path="url(#clip622)" cx="1351.5" cy="656.629" r="14.4" fill="#009af9" fill-rule="evenodd" fill-opacity="0.5" stroke="#000000" stroke-opacity="0.5" stroke-width="3.2"/>
<circle clip-path="url(#clip622)" cx="907.782" cy="892.127" r="14.4" fill="#009af9" fill-rule="evenodd" fill-opacity="0.5" stroke="#000000" stroke-opacity="0.5" stroke-width="3.2"/>
<circle clip-path="url(#clip622)" cx="890.428" cy="100.973" r="14.4" fill="#009af9" fill-rule="evenodd" fill-opacity="0.5" stroke="#000000" stroke-opacity="0.5" stroke-width="3.2"/>
<path clip-path="url(#clip622)" d="M209.891 1445.72 L1570.25 1391.89 L2290.34 1187.99 L1944.31 633.646 L1285.14 87.9763 L890.428 100.973 L282.014 467.273 L209.891 1445.72 L209.891 1445.72  Z" fill="#e26f46" fill-rule="evenodd" fill-opacity="0.2"/>
<polyline clip-path="url(#clip622)" style="stroke:#000000; stroke-linecap:round; stroke-linejoin:round; stroke-width:4; stroke-opacity:0.2; fill:none" points="209.891,1445.72 1570.25,1391.89 2290.34,1187.99 1944.31,633.646 1285.14,87.9763 890.428,100.973 282.014,467.273 209.891,1445.72 "/>
</svg>
