<?xml version="1.0" encoding="utf-8"?>
<svg xmlns="http://www.w3.org/2000/svg" xmlns:xlink="http://www.w3.org/1999/xlink" width="600" height="400" viewBox="0 0 2400 1600">
<defs>
  <clipPath id="clip050">
    <rect x="0" y="0" width="2400" height="1600"/>
  </clipPath>
</defs>
<path clip-path="url(#clip050)" d="M0 1600 L2400 1600 L2400 0 L0 0  Z" fill="#ffffff" fill-rule="evenodd" fill-opacity="1"/>
<defs>
  <clipPath id="clip051">
    <rect x="480" y="0" width="1681" height="1600"/>
  </clipPath>
</defs>
<path clip-path="url(#clip050)" d="M147.478 1486.45 L2352.76 1486.45 L2352.76 47.2441 L147.478 47.2441  Z" fill="#ffffff" fill-rule="evenodd" fill-opacity="1"/>
<defs>
  <clipPath id="clip052">
    <rect x="147" y="47" width="2206" height="1440"/>
  </clipPath>
</defs>
<polyline clip-path="url(#clip052)" style="stroke:#000000; stroke-linecap:round; stroke-linejoin:round; stroke-width:2; stroke-opacity:0.1; fill:none" points="317.768,1486.45 317.768,47.2441 "/>
<polyline clip-path="url(#clip052)" style="stroke:#000000; stroke-linecap:round; stroke-linejoin:round; stroke-width:2; stroke-opacity:0.1; fill:none" points="784.57,1486.45 784.57,47.2441 "/>
<polyline clip-path="url(#clip052)" style="stroke:#000000; stroke-linecap:round; stroke-linejoin:round; stroke-width:2; stroke-opacity:0.1; fill:none" points="1251.37,1486.45 1251.37,47.2441 "/>
<polyline clip-path="url(#clip052)" style="stroke:#000000; stroke-linecap:round; stroke-linejoin:round; stroke-width:2; stroke-opacity:0.1; fill:none" points="1718.17,1486.45 1718.17,47.2441 "/>
<polyline clip-path="url(#clip052)" style="stroke:#000000; stroke-linecap:round; stroke-linejoin:round; stroke-width:2; stroke-opacity:0.1; fill:none" points="2184.98,1486.45 2184.98,47.2441 "/>
<polyline clip-path="url(#clip052)" style="stroke:#000000; stroke-linecap:round; stroke-linejoin:round; stroke-width:2; stroke-opacity:0.1; fill:none" points="147.478,1257.64 2352.76,1257.64 "/>
<polyline clip-path="url(#clip052)" style="stroke:#000000; stroke-linecap:round; stroke-linejoin:round; stroke-width:2; stroke-opacity:0.1; fill:none" points="147.478,886.124 2352.76,886.124 "/>
<polyline clip-path="url(#clip052)" style="stroke:#000000; stroke-linecap:round; stroke-linejoin:round; stroke-width:2; stroke-opacity:0.1; fill:none" points="147.478,514.612 2352.76,514.612 "/>
<polyline clip-path="url(#clip052)" style="stroke:#000000; stroke-linecap:round; stroke-linejoin:round; stroke-width:2; stroke-opacity:0.1; fill:none" points="147.478,143.1 2352.76,143.1 "/>
<polyline clip-path="url(#clip050)" style="stroke:#000000; stroke-linecap:round; stroke-linejoin:round; stroke-width:4; stroke-opacity:1; fill:none" points="147.478,1486.45 2352.76,1486.45 "/>
<polyline clip-path="url(#clip050)" style="stroke:#000000; stroke-linecap:round; stroke-linejoin:round; stroke-width:4; stroke-opacity:1; fill:none" points="317.768,1486.45 317.768,1467.55 "/>
<polyline clip-path="url(#clip050)" style="stroke:#000000; stroke-linecap:round; stroke-linejoin:round; stroke-width:4; stroke-opacity:1; fill:none" points="784.57,1486.45 784.57,1467.55 "/>
<polyline clip-path="url(#clip050)" style="stroke:#000000; stroke-linecap:round; stroke-linejoin:round; stroke-width:4; stroke-opacity:1; fill:none" points="1251.37,1486.45 1251.37,1467.55 "/>
<polyline clip-path="url(#clip050)" style="stroke:#000000; stroke-linecap:round; stroke-linejoin:round; stroke-width:4; stroke-opacity:1; fill:none" points="1718.17,1486.45 1718.17,1467.55 "/>
<polyline clip-path="url(#clip050)" style="stroke:#000000; stroke-linecap:round; stroke-linejoin:round; stroke-width:4; stroke-opacity:1; fill:none" points="2184.98,1486.45 2184.98,1467.55 "/>
<path clip-path="url(#clip050)" d="M287.71 1532.02 L317.386 1532.02 L317.386 1535.95 L287.71 1535.95 L287.71 1532.02 Z" fill="#000000" fill-rule="nonzero" fill-opacity="1" /><path clip-path="url(#clip050)" d="M331.506 1544.91 L347.825 1544.91 L347.825 1548.85 L325.881 1548.85 L325.881 1544.91 Q328.543 1542.16 333.126 1537.53 Q337.733 1532.88 338.913 1531.53 Q341.159 1529.01 342.038 1527.27 Q342.941 1525.51 342.941 1523.82 Q342.941 1521.07 340.997 1519.33 Q339.075 1517.6 335.973 1517.6 Q333.774 1517.6 331.321 1518.36 Q328.89 1519.13 326.112 1520.68 L326.112 1515.95 Q328.936 1514.82 331.39 1514.24 Q333.844 1513.66 335.881 1513.66 Q341.251 1513.66 344.446 1516.35 Q347.64 1519.03 347.64 1523.52 Q347.64 1525.65 346.83 1527.57 Q346.043 1529.47 343.936 1532.07 Q343.358 1532.74 340.256 1535.95 Q337.154 1539.15 331.506 1544.91 Z" fill="#000000" fill-rule="nonzero" fill-opacity="1" /><path clip-path="url(#clip050)" d="M754.327 1532.02 L784.003 1532.02 L784.003 1535.95 L754.327 1535.95 L754.327 1532.02 Z" fill="#000000" fill-rule="nonzero" fill-opacity="1" /><path clip-path="url(#clip050)" d="M794.905 1544.91 L802.544 1544.91 L802.544 1518.55 L794.234 1520.21 L794.234 1515.95 L802.498 1514.29 L807.174 1514.29 L807.174 1544.91 L814.813 1544.91 L814.813 1548.85 L794.905 1548.85 L794.905 1544.91 Z" fill="#000000" fill-rule="nonzero" fill-opacity="1" /><path clip-path="url(#clip050)" d="M1251.37 1517.37 Q1247.76 1517.37 1245.93 1520.93 Q1244.13 1524.47 1244.13 1531.6 Q1244.13 1538.71 1245.93 1542.27 Q1247.76 1545.82 1251.37 1545.82 Q1255.01 1545.82 1256.81 1542.27 Q1258.64 1538.71 1258.64 1531.6 Q1258.64 1524.47 1256.81 1520.93 Q1255.01 1517.37 1251.37 1517.37 M1251.37 1513.66 Q1257.18 1513.66 1260.24 1518.27 Q1263.32 1522.85 1263.32 1531.6 Q1263.32 1540.33 1260.24 1544.94 Q1257.18 1549.52 1251.37 1549.52 Q1245.56 1549.52 1242.48 1544.94 Q1239.43 1540.33 1239.43 1531.6 Q1239.43 1522.85 1242.48 1518.27 Q1245.56 1513.66 1251.37 1513.66 Z" fill="#000000" fill-rule="nonzero" fill-opacity="1" /><path clip-path="url(#clip050)" d="M1708.56 1544.91 L1716.2 1544.91 L1716.2 1518.55 L1707.88 1520.21 L1707.88 1515.95 L1716.15 1514.29 L1720.82 1514.29 L1720.82 1544.91 L1728.46 1544.91 L1728.46 1548.85 L1708.56 1548.85 L1708.56 1544.91 Z" fill="#000000" fill-rule="nonzero" fill-opacity="1" /><path clip-path="url(#clip050)" d="M2179.63 1544.91 L2195.95 1544.91 L2195.95 1548.85 L2174 1548.85 L2174 1544.91 Q2176.67 1542.16 2181.25 1537.53 Q2185.86 1532.88 2187.04 1531.53 Q2189.28 1529.01 2190.16 1527.27 Q2191.06 1525.51 2191.06 1523.82 Q2191.06 1521.07 2189.12 1519.33 Q2187.2 1517.6 2184.1 1517.6 Q2181.9 1517.6 2179.44 1518.36 Q2177.01 1519.13 2174.24 1520.68 L2174.24 1515.95 Q2177.06 1514.82 2179.51 1514.24 Q2181.97 1513.66 2184 1513.66 Q2189.37 1513.66 2192.57 1516.35 Q2195.76 1519.03 2195.76 1523.52 Q2195.76 1525.65 2194.95 1527.57 Q2194.17 1529.47 2192.06 1532.07 Q2191.48 1532.74 2188.38 1535.95 Q2185.28 1539.15 2179.63 1544.91 Z" fill="#000000" fill-rule="nonzero" fill-opacity="1" /><polyline clip-path="url(#clip050)" style="stroke:#000000; stroke-linecap:round; stroke-linejoin:round; stroke-width:4; stroke-opacity:1; fill:none" points="147.478,1486.45 147.478,47.2441 "/>
<polyline clip-path="url(#clip050)" style="stroke:#000000; stroke-linecap:round; stroke-linejoin:round; stroke-width:4; stroke-opacity:1; fill:none" points="147.478,1257.64 166.376,1257.64 "/>
<polyline clip-path="url(#clip050)" style="stroke:#000000; stroke-linecap:round; stroke-linejoin:round; stroke-width:4; stroke-opacity:1; fill:none" points="147.478,886.124 166.376,886.124 "/>
<polyline clip-path="url(#clip050)" style="stroke:#000000; stroke-linecap:round; stroke-linejoin:round; stroke-width:4; stroke-opacity:1; fill:none" points="147.478,514.612 166.376,514.612 "/>
<polyline clip-path="url(#clip050)" style="stroke:#000000; stroke-linecap:round; stroke-linejoin:round; stroke-width:4; stroke-opacity:1; fill:none" points="147.478,143.1 166.376,143.1 "/>
<path clip-path="url(#clip050)" d="M51.3625 1258.09 L81.0383 1258.09 L81.0383 1262.02 L51.3625 1262.02 L51.3625 1258.09 Z" fill="#000000" fill-rule="nonzero" fill-opacity="1" /><path clip-path="url(#clip050)" d="M95.1586 1270.98 L111.478 1270.98 L111.478 1274.92 L89.5336 1274.92 L89.5336 1270.98 Q92.1956 1268.23 96.7789 1263.6 Q101.385 1258.94 102.566 1257.6 Q104.811 1255.08 105.691 1253.34 Q106.594 1251.58 106.594 1249.89 Q106.594 1247.14 104.649 1245.4 Q102.728 1243.67 99.6261 1243.67 Q97.4271 1243.67 94.9734 1244.43 Q92.5428 1245.19 89.7651 1246.74 L89.7651 1242.02 Q92.5891 1240.89 95.0428 1240.31 Q97.4965 1239.73 99.5335 1239.73 Q104.904 1239.73 108.098 1242.42 Q111.293 1245.1 111.293 1249.59 Q111.293 1251.72 110.483 1253.64 Q109.696 1255.54 107.589 1258.13 Q107.01 1258.8 103.909 1262.02 Q100.807 1265.22 95.1586 1270.98 Z" fill="#000000" fill-rule="nonzero" fill-opacity="1" /><path clip-path="url(#clip050)" d="M50.9921 886.575 L80.6679 886.575 L80.6679 890.51 L50.9921 890.51 L50.9921 886.575 Z" fill="#000000" fill-rule="nonzero" fill-opacity="1" /><path clip-path="url(#clip050)" d="M91.5706 899.468 L99.2095 899.468 L99.2095 873.103 L90.8993 874.769 L90.8993 870.51 L99.1632 868.844 L103.839 868.844 L103.839 899.468 L111.478 899.468 L111.478 903.404 L91.5706 903.404 L91.5706 899.468 Z" fill="#000000" fill-rule="nonzero" fill-opacity="1" /><path clip-path="url(#clip050)" d="M99.5335 500.41 Q95.9224 500.41 94.0937 503.975 Q92.2882 507.517 92.2882 514.646 Q92.2882 521.753 94.0937 525.318 Q95.9224 528.859 99.5335 528.859 Q103.168 528.859 104.973 525.318 Q106.802 521.753 106.802 514.646 Q106.802 507.517 104.973 503.975 Q103.168 500.41 99.5335 500.41 M99.5335 496.707 Q105.344 496.707 108.399 501.313 Q111.478 505.896 111.478 514.646 Q111.478 523.373 108.399 527.98 Q105.344 532.563 99.5335 532.563 Q93.7234 532.563 90.6447 527.98 Q87.5892 523.373 87.5892 514.646 Q87.5892 505.896 90.6447 501.313 Q93.7234 496.707 99.5335 496.707 Z" fill="#000000" fill-rule="nonzero" fill-opacity="1" /><path clip-path="url(#clip050)" d="M91.5706 156.444 L99.2095 156.444 L99.2095 130.079 L90.8993 131.746 L90.8993 127.486 L99.1632 125.82 L103.839 125.82 L103.839 156.444 L111.478 156.444 L111.478 160.38 L91.5706 160.38 L91.5706 156.444 Z" fill="#000000" fill-rule="nonzero" fill-opacity="1" /><circle clip-path="url(#clip052)" cx="1530.36" cy="257.726" r="14.4" fill="#009af9" fill-rule="evenodd" fill-opacity="0.5" stroke="#000000" stroke-opacity="0.5" stroke-width="3.2"/>
<circle clip-path="url(#clip052)" cx="1157.79" cy="851.974" r="14.4" fill="#009af9" fill-rule="evenodd" fill-opacity="0.5" stroke="#000000" stroke-opacity="0.5" stroke-width="3.2"/>
<circle clip-path="url(#clip052)" cx="1312.27" cy="655.993" r="14.4" fill="#009af9" fill-rule="evenodd" fill-opacity="0.5" stroke="#000000" stroke-opacity="0.5" stroke-width="3.2"/>
<circle clip-path="url(#clip052)" cx="1738.25" cy="621.275" r="14.4" fill="#009af9" fill-rule="evenodd" fill-opacity="0.5" stroke="#000000" stroke-opacity="0.5" stroke-width="3.2"/>
<circle clip-path="url(#clip052)" cx="887.421" cy="87.9763" r="14.4" fill="#009af9" fill-rule="evenodd" fill-opacity="0.5" stroke="#000000" stroke-opacity="0.5" stroke-width="3.2"/>
<circle clip-path="url(#clip052)" cx="1122.24" cy="256.212" r="14.4" fill="#009af9" fill-rule="evenodd" fill-opacity="0.5" stroke="#000000" stroke-opacity="0.5" stroke-width="3.2"/>
<circle clip-path="url(#clip052)" cx="1395.78" cy="795.513" r="14.4" fill="#009af9" fill-rule="evenodd" fill-opacity="0.5" stroke="#000000" stroke-opacity="0.5" stroke-width="3.2"/>
<circle clip-path="url(#clip052)" cx="940.363" cy="723.032" r="14.4" fill="#009af9" fill-rule="evenodd" fill-opacity="0.5" stroke="#000000" stroke-opacity="0.5" stroke-width="3.2"/>
<circle clip-path="url(#clip052)" cx="2290.34" cy="184.479" r="14.4" fill="#009af9" fill-rule="evenodd" fill-opacity="0.5" stroke="#000000" stroke-opacity="0.5" stroke-width="3.2"/>
<circle clip-path="url(#clip052)" cx="826.156" cy="214.498" r="14.4" fill="#009af9" fill-rule="evenodd" fill-opacity="0.5" stroke="#000000" stroke-opacity="0.5" stroke-width="3.2"/>
<circle clip-path="url(#clip052)" cx="1258.97" cy="442.11" r="14.4" fill="#009af9" fill-rule="evenodd" fill-opacity="0.5" stroke="#000000" stroke-opacity="0.5" stroke-width="3.2"/>
<circle clip-path="url(#clip052)" cx="432.629" cy="507.833" r="14.4" fill="#009af9" fill-rule="evenodd" fill-opacity="0.5" stroke="#000000" stroke-opacity="0.5" stroke-width="3.2"/>
<circle clip-path="url(#clip052)" cx="1543.74" cy="410.785" r="14.4" fill="#009af9" fill-rule="evenodd" fill-opacity="0.5" stroke="#000000" stroke-opacity="0.5" stroke-width="3.2"/>
<circle clip-path="url(#clip052)" cx="1388.43" cy="1118.21" r="14.4" fill="#009af9" fill-rule="evenodd" fill-opacity="0.5" stroke="#000000" stroke-opacity="0.5" stroke-width="3.2"/>
<circle clip-path="url(#clip052)" cx="1412.03" cy="334.848" r="14.4" fill="#009af9" fill-rule="evenodd" fill-opacity="0.5" stroke="#000000" stroke-opacity="0.5" stroke-width="3.2"/>
<circle clip-path="url(#clip052)" cx="1638.69" cy="269.829" r="14.4" fill="#009af9" fill-rule="evenodd" fill-opacity="0.5" stroke="#000000" stroke-opacity="0.5" stroke-width="3.2"/>
<circle clip-path="url(#clip052)" cx="910.821" cy="709.397" r="14.4" fill="#009af9" fill-rule="evenodd" fill-opacity="0.5" stroke="#000000" stroke-opacity="0.5" stroke-width="3.2"/>
<circle clip-path="url(#clip052)" cx="1930.75" cy="307.067" r="14.4" fill="#009af9" fill-rule="evenodd" fill-opacity="0.5" stroke="#000000" stroke-opacity="0.5" stroke-width="3.2"/>
<circle clip-path="url(#clip052)" cx="1270.23" cy="402.927" r="14.4" fill="#009af9" fill-rule="evenodd" fill-opacity="0.5" stroke="#000000" stroke-opacity="0.5" stroke-width="3.2"/>
<circle clip-path="url(#clip052)" cx="2066.93" cy="437.321" r="14.4" fill="#009af9" fill-rule="evenodd" fill-opacity="0.5" stroke="#000000" stroke-opacity="0.5" stroke-width="3.2"/>
<circle clip-path="url(#clip052)" cx="1157.15" cy="485.867" r="14.4" fill="#009af9" fill-rule="evenodd" fill-opacity="0.5" stroke="#000000" stroke-opacity="0.5" stroke-width="3.2"/>
<circle clip-path="url(#clip052)" cx="1709.89" cy="844.695" r="14.4" fill="#009af9" fill-rule="evenodd" fill-opacity="0.5" stroke="#000000" stroke-opacity="0.5" stroke-width="3.2"/>
<circle clip-path="url(#clip052)" cx="1087.11" cy="1401.45" r="14.4" fill="#009af9" fill-rule="evenodd" fill-opacity="0.5" stroke="#000000" stroke-opacity="0.5" stroke-width="3.2"/>
<circle clip-path="url(#clip052)" cx="1544.78" cy="839.949" r="14.4" fill="#009af9" fill-rule="evenodd" fill-opacity="0.5" stroke="#000000" stroke-opacity="0.5" stroke-width="3.2"/>
<circle clip-path="url(#clip052)" cx="399.523" cy="608.879" r="14.4" fill="#009af9" fill-rule="evenodd" fill-opacity="0.5" stroke="#000000" stroke-opacity="0.5" stroke-width="3.2"/>
<circle clip-path="url(#clip052)" cx="209.891" cy="652.484" r="14.4" fill="#009af9" fill-rule="evenodd" fill-opacity="0.5" stroke="#000000" stroke-opacity="0.5" stroke-width="3.2"/>
<circle clip-path="url(#clip052)" cx="892.849" cy="408.276" r="14.4" fill="#009af9" fill-rule="evenodd" fill-opacity="0.5" stroke="#000000" stroke-opacity="0.5" stroke-width="3.2"/>
<circle clip-path="url(#clip052)" cx="1214.96" cy="566.896" r="14.4" fill="#009af9" fill-rule="evenodd" fill-opacity="0.5" stroke="#000000" stroke-opacity="0.5" stroke-width="3.2"/>
<circle clip-path="url(#clip052)" cx="1777.57" cy="623.762" r="14.4" fill="#009af9" fill-rule="evenodd" fill-opacity="0.5" stroke="#000000" stroke-opacity="0.5" stroke-width="3.2"/>
<circle clip-path="url(#clip052)" cx="2060.41" cy="1445.72" r="14.4" fill="#009af9" fill-rule="evenodd" fill-opacity="0.5" stroke="#000000" stroke-opacity="0.5" stroke-width="3.2"/>
<path clip-path="url(#clip052)" d="M209.891 652.484 L1087.11 1401.45 L2060.41 1445.72 L2290.34 184.479 L887.421 87.9763 L209.891 652.484 L209.891 652.484  Z" fill="#e26f46" fill-rule="evenodd" fill-opacity="0.2"/>
<polyline clip-path="url(#clip052)" style="stroke:#000000; stroke-linecap:round; stroke-linejoin:round; stroke-width:4; stroke-opacity:0.2; fill:none" points="209.891,652.484 1087.11,1401.45 2060.41,1445.72 2290.34,184.479 887.421,87.9763 209.891,652.484 "/>
</svg>
