<?xml version="1.0" encoding="utf-8"?>
<svg xmlns="http://www.w3.org/2000/svg" xmlns:xlink="http://www.w3.org/1999/xlink" width="300" height="300" viewBox="0 0 1200 1200">
<defs>
  <clipPath id="clip730">
    <rect x="0" y="0" width="1200" height="1200"/>
  </clipPath>
</defs>
<path clip-path="url(#clip730)" d="M0 1200 L1200 1200 L1200 0 L0 0  Z" fill="#ffffff" fill-rule="evenodd" fill-opacity="1"/>
<defs>
  <clipPath id="clip731">
    <rect x="240" y="120" width="841" height="841"/>
  </clipPath>
</defs>
<path clip-path="url(#clip730)" d="M148.357 1027.22 L1128.33 1027.22 L1128.33 47.2441 L148.357 47.2441  Z" fill="#ffffff" fill-rule="evenodd" fill-opacity="1"/>
<defs>
  <clipPath id="clip732">
    <rect x="148" y="47" width="981" height="981"/>
  </clipPath>
</defs>
<polyline clip-path="url(#clip732)" style="stroke:#000000; stroke-linecap:round; stroke-linejoin:round; stroke-width:2; stroke-opacity:0.1; fill:none" points="176.092,1027.22 176.092,47.2441 "/>
<polyline clip-path="url(#clip732)" style="stroke:#000000; stroke-linecap:round; stroke-linejoin:round; stroke-width:2; stroke-opacity:0.1; fill:none" points="638.345,1027.22 638.345,47.2441 "/>
<polyline clip-path="url(#clip732)" style="stroke:#000000; stroke-linecap:round; stroke-linejoin:round; stroke-width:2; stroke-opacity:0.1; fill:none" points="1100.6,1027.22 1100.6,47.2441 "/>
<polyline clip-path="url(#clip732)" style="stroke:#000000; stroke-linecap:round; stroke-linejoin:round; stroke-width:2; stroke-opacity:0.1; fill:none" points="148.357,537.232 1128.33,537.232 "/>
<polyline clip-path="url(#clip732)" style="stroke:#000000; stroke-linecap:round; stroke-linejoin:round; stroke-width:2; stroke-opacity:0.1; fill:none" points="148.357,74.9793 1128.33,74.9793 "/>
<polyline clip-path="url(#clip730)" style="stroke:#000000; stroke-linecap:round; stroke-linejoin:round; stroke-width:4; stroke-opacity:1; fill:none" points="148.357,1027.22 1128.33,1027.22 "/>
<polyline clip-path="url(#clip730)" style="stroke:#000000; stroke-linecap:round; stroke-linejoin:round; stroke-width:4; stroke-opacity:1; fill:none" points="176.092,1027.22 176.092,1008.32 "/>
<polyline clip-path="url(#clip730)" style="stroke:#000000; stroke-linecap:round; stroke-linejoin:round; stroke-width:4; stroke-opacity:1; fill:none" points="638.345,1027.22 638.345,1008.32 "/>
<polyline clip-path="url(#clip730)" style="stroke:#000000; stroke-linecap:round; stroke-linejoin:round; stroke-width:4; stroke-opacity:1; fill:none" points="1100.6,1027.22 1100.6,1008.32 "/>
<g clip-path="url(#clip730)">
<text style="fill:#000000; fill-opacity:1; font-family:Times New Roman,TimesNewRoman,Times,Baskerville,Georgia,serif; font-size:98px; text-anchor:middle;" transform="rotate(0, 176.092, 1118.21)" x="176.092" y="1118.21">−1</text>
</g>
<g clip-path="url(#clip730)">
<text style="fill:#000000; fill-opacity:1; font-family:Times New Roman,TimesNewRoman,Times,Baskerville,Georgia,serif; font-size:98px; text-anchor:middle;" transform="rotate(0, 638.345, 1118.21)" x="638.345" y="1118.21">0</text>
</g>
<g clip-path="url(#clip730)">
<text style="fill:#000000; fill-opacity:1; font-family:Times New Roman,TimesNewRoman,Times,Baskerville,Georgia,serif; font-size:98px; text-anchor:middle;" transform="rotate(0, 1100.6, 1118.21)" x="1100.6" y="1118.21">1</text>
</g>
<polyline clip-path="url(#clip730)" style="stroke:#000000; stroke-linecap:round; stroke-linejoin:round; stroke-width:4; stroke-opacity:1; fill:none" points="148.357,1027.22 148.357,47.2441 "/>
<polyline clip-path="url(#clip730)" style="stroke:#000000; stroke-linecap:round; stroke-linejoin:round; stroke-width:4; stroke-opacity:1; fill:none" points="148.357,537.232 166.358,537.232 "/>
<polyline clip-path="url(#clip730)" style="stroke:#000000; stroke-linecap:round; stroke-linejoin:round; stroke-width:4; stroke-opacity:1; fill:none" points="148.357,74.9793 166.358,74.9793 "/>
<g clip-path="url(#clip730)">
<text style="fill:#000000; fill-opacity:1; font-family:Times New Roman,TimesNewRoman,Times,Baskerville,Georgia,serif; font-size:98px; text-anchor:middle;" transform="rotate(0, 105.886, 569.732)" x="105.886" y="569.732">0</text>
</g>
<g clip-path="url(#clip730)">
<text style="fill:#000000; fill-opacity:1; font-family:Times New Roman,TimesNewRoman,Times,Baskerville,Georgia,serif; font-size:98px; text-anchor:middle;" transform="rotate(0, 105.886, 107.479)" x="105.886" y="107.479">1</text>
</g>
<path clip-path="url(#clip732)" d="M176.092 909.931 L176.099 927.476 L176.113 935.539 L176.126 940.187 L176.144 944.258 L176.168 947.881 L176.198 951.122 L176.234 954.052 L176.277 956.583 L176.323 958.798 L176.376 960.862 L176.437 962.794 L176.506 964.61 L176.584 966.324 L176.671 967.942 L176.767 969.476 L176.873 970.937 L176.991 972.33 L177.119 973.656 L177.224 974.605 L177.297 975.223 L177.373 975.827 L177.453 976.418 L177.535 976.995 L177.621 977.56 L177.71 978.112 L177.802 978.652 L177.897 979.181 L177.996 979.698 L178.1 980.21 L178.208 980.715 L178.321 981.21 L178.437 981.694 L178.557 982.168 L178.681 982.632 L178.809 983.086 L178.941 983.53 L179.077 983.966 L179.218 984.392 L179.363 984.809 L179.512 985.217 L179.666 985.617 L179.824 986.009 L179.987 986.392 L180.154 986.767 L180.413 987.319 L180.777 988.023 L181.161 988.698 L181.565 989.344 L181.991 989.963 L182.438 990.555 L182.908 991.12 L183.4 991.661 L183.917 992.177 L184.457 992.67 L185.023 993.14 L185.615 993.587 L186.233 994.012 L186.88 994.417 L187.555 994.801 L188.259 995.165 L188.81 995.423 L189.186 995.591 L189.569 995.754 L189.96 995.912 L190.36 996.066 L190.769 996.215 L191.186 996.36 L191.612 996.5 L192.047 996.637 L192.492 996.769 L192.946 996.897 L193.41 997.021 L193.883 997.141 L194.368 997.257 L194.862 997.369 L195.368 997.478 L195.879 997.581 L196.397 997.68 L196.925 997.776 L197.465 997.868 L198.018 997.957 L198.582 998.043 L199.16 998.125 L199.75 998.204 L200.354 998.28 L200.972 998.353 L201.921 998.458 L203.248 998.587 L204.641 998.704 L206.102 998.811 L207.635 998.907 L209.254 998.994 L210.967 999.071 L212.784 999.14 L214.716 999.201 L216.78 999.255 L218.994 999.301 L221.525 999.343 L224.456 999.38 L227.696 999.41 L231.32 999.434 L235.391 999.452 L240.039 999.465 L248.102 999.478 L265.647 999.485 L1011.04 999.485 L1028.59 999.478 L1036.65 999.465 L1041.3 999.452 L1045.37 999.434 L1048.99 999.41 L1052.23 999.38 L1055.17 999.343 L1057.7 999.301 L1059.91 999.255 L1061.97 999.201 L1063.91 999.14 L1065.72 999.071 L1067.44 998.994 L1069.06 998.907 L1070.59 998.811 L1072.05 998.704 L1073.44 998.587 L1074.77 998.458 L1075.72 998.353 L1076.34 998.28 L1076.94 998.204 L1077.53 998.125 L1078.11 998.043 L1078.67 997.957 L1079.23 997.868 L1079.77 997.776 L1080.29 997.68 L1080.81 997.581 L1081.32 997.478 L1081.83 997.369 L1082.32 997.257 L1082.81 997.141 L1083.28 997.021 L1083.74 996.897 L1084.2 996.769 L1084.64 996.637 L1085.08 996.5 L1085.5 996.36 L1085.92 996.215 L1086.33 996.066 L1086.73 995.912 L1087.12 995.754 L1087.51 995.591 L1087.88 995.423 L1088.43 995.165 L1089.14 994.801 L1089.81 994.417 L1090.46 994.012 L1091.08 993.587 L1091.67 993.14 L1092.23 992.67 L1092.77 992.177 L1093.29 991.661 L1093.78 991.12 L1094.25 990.555 L1094.7 989.963 L1095.13 989.344 L1095.53 988.698 L1095.91 988.023 L1096.28 987.319 L1096.54 986.767 L1096.7 986.392 L1096.87 986.009 L1097.02 985.617 L1097.18 985.217 L1097.33 984.809 L1097.47 984.392 L1097.61 983.966 L1097.75 983.53 L1097.88 983.086 L1098.01 982.632 L1098.13 982.168 L1098.25 981.694 L1098.37 981.21 L1098.48 980.715 L1098.59 980.21 L1098.69 979.698 L1098.79 979.181 L1098.89 978.652 L1098.98 978.112 L1099.07 977.56 L1099.16 976.995 L1099.24 976.418 L1099.32 975.827 L1099.39 975.223 L1099.47 974.605 L1099.57 973.656 L1099.7 972.33 L1099.82 970.937 L1099.92 969.476 L1100.02 967.942 L1100.11 966.324 L1100.18 964.61 L1100.25 962.794 L1100.31 960.862 L1100.37 958.798 L1100.41 956.583 L1100.46 954.052 L1100.49 951.122 L1100.52 947.881 L1100.55 944.258 L1100.56 940.187 L1100.58 935.539 L1100.59 927.476 L1100.6 909.931 L1100.6 164.534 L1100.59 146.989 L1100.58 138.926 L1100.56 134.278 L1100.55 130.207 L1100.52 126.583 L1100.49 123.343 L1100.46 120.412 L1100.41 117.881 L1100.37 115.667 L1100.31 113.603 L1100.25 111.671 L1100.18 109.854 L1100.11 108.141 L1100.02 106.522 L1099.92 104.989 L1099.82 103.528 L1099.7 102.135 L1099.57 100.808 L1099.47 99.8594 L1099.39 99.2414 L1099.32 98.6374 L1099.24 98.0468 L1099.16 97.4694 L1099.07 96.9048 L1098.98 96.3525 L1098.89 95.8122 L1098.79 95.2835 L1098.69 94.7662 L1098.59 94.2547 L1098.48 93.7492 L1098.37 93.2545 L1098.25 92.7704 L1098.13 92.2966 L1098.01 91.8328 L1097.88 91.3787 L1097.75 90.9342 L1097.61 90.4991 L1097.47 90.073 L1097.33 89.6558 L1097.18 89.2473 L1097.02 88.8474 L1096.87 88.4559 L1096.7 88.0726 L1096.54 87.6974 L1096.28 87.1461 L1095.91 86.4415 L1095.53 85.7667 L1095.13 85.1205 L1094.7 84.5019 L1094.25 83.9101 L1093.78 83.3443 L1093.29 82.8036 L1092.77 82.2873 L1092.23 81.7947 L1091.67 81.3251 L1091.08 80.8779 L1090.46 80.4523 L1089.81 80.0479 L1089.14 79.6639 L1088.43 79.2999 L1087.88 79.0414 L1087.51 78.8739 L1087.12 78.711 L1086.73 78.5528 L1086.33 78.399 L1085.92 78.2497 L1085.5 78.1048 L1085.08 77.9642 L1084.64 77.8279 L1084.2 77.6957 L1083.74 77.5677 L1083.28 77.4437 L1082.81 77.3237 L1082.32 77.2077 L1081.83 77.0955 L1081.32 76.9871 L1080.81 76.8834 L1080.29 76.7843 L1079.77 76.6887 L1079.23 76.5965 L1078.67 76.5077 L1078.11 76.4221 L1077.53 76.3397 L1076.94 76.2605 L1076.34 76.1844 L1075.72 76.1114 L1074.77 76.0063 L1073.44 75.8778 L1072.05 75.7604 L1070.59 75.6539 L1069.06 75.5577 L1067.44 75.471 L1065.72 75.3934 L1063.91 75.3243 L1061.97 75.2633 L1059.91 75.2099 L1057.7 75.1636 L1055.17 75.1215 L1052.23 75.0846 L1048.99 75.0547 L1045.37 75.031 L1041.3 75.0129 L1036.65 74.9997 L1028.59 74.9862 L1011.04 74.9793 L265.647 74.9793 L248.102 74.9862 L240.039 74.9997 L235.391 75.0129 L231.32 75.031 L227.696 75.0547 L224.456 75.0846 L221.525 75.1215 L218.994 75.1636 L216.78 75.2099 L214.716 75.2633 L212.784 75.3243 L210.967 75.3934 L209.254 75.471 L207.635 75.5577 L206.102 75.6539 L204.641 75.7604 L203.248 75.8778 L201.921 76.0063 L200.972 76.1114 L200.354 76.1844 L199.75 76.2605 L199.16 76.3397 L198.582 76.4221 L198.018 76.5077 L197.465 76.5965 L196.925 76.6887 L196.397 76.7843 L195.879 76.8834 L195.368 76.9871 L194.862 77.0955 L194.368 77.2077 L193.883 77.3237 L193.41 77.4437 L192.946 77.5677 L192.492 77.6957 L192.047 77.8279 L191.612 77.9642 L191.186 78.1048 L190.769 78.2497 L190.36 78.399 L189.96 78.5528 L189.569 78.711 L189.186 78.8739 L188.81 79.0414 L188.259 79.2999 L187.555 79.6639 L186.88 80.0479 L186.233 80.4523 L185.615 80.8779 L185.023 81.3251 L184.457 81.7947 L183.917 82.2873 L183.4 82.8036 L182.908 83.3443 L182.438 83.9101 L181.991 84.5019 L181.565 85.1205 L181.161 85.7667 L180.777 86.4415 L180.413 87.1461 L180.154 87.6974 L179.987 88.0726 L179.824 88.4559 L179.666 88.8474 L179.512 89.2473 L179.363 89.6558 L179.218 90.073 L179.077 90.4991 L178.941 90.9342 L178.809 91.3787 L178.681 91.8328 L178.557 92.2966 L178.437 92.7704 L178.321 93.2545 L178.208 93.7492 L178.1 94.2547 L177.996 94.7662 L177.897 95.2835 L177.802 95.8122 L177.71 96.3525 L177.621 96.9048 L177.535 97.4694 L177.453 98.0468 L177.373 98.6374 L177.297 99.2414 L177.224 99.8594 L177.119 100.808 L176.991 102.135 L176.873 103.528 L176.767 104.989 L176.671 106.522 L176.584 108.141 L176.506 109.854 L176.437 111.671 L176.376 113.603 L176.323 115.667 L176.277 117.881 L176.234 120.412 L176.198 123.343 L176.168 126.583 L176.144 130.207 L176.126 134.278 L176.113 138.926 L176.099 146.989 L176.092 164.534 L176.092 909.931 L176.092 909.931  Z" fill="#008000" fill-rule="evenodd" fill-opacity="0.7"/>
<polyline clip-path="url(#clip732)" style="stroke:#000000; stroke-linecap:round; stroke-linejoin:round; stroke-width:4; stroke-opacity:0.7; fill:none" points="176.092,909.931 176.099,927.476 176.113,935.539 176.126,940.187 176.144,944.258 176.168,947.881 176.198,951.122 176.234,954.052 176.277,956.583 176.323,958.798 176.376,960.862 176.437,962.794 176.506,964.61 176.584,966.324 176.671,967.942 176.767,969.476 176.873,970.937 176.991,972.33 177.119,973.656 177.224,974.605 177.297,975.223 177.373,975.827 177.453,976.418 177.535,976.995 177.621,977.56 177.71,978.112 177.802,978.652 177.897,979.181 177.996,979.698 178.1,980.21 178.208,980.715 178.321,981.21 178.437,981.694 178.557,982.168 178.681,982.632 178.809,983.086 178.941,983.53 179.077,983.966 179.218,984.392 179.363,984.809 179.512,985.217 179.666,985.617 179.824,986.009 179.987,986.392 180.154,986.767 180.413,987.319 180.777,988.023 181.161,988.698 181.565,989.344 181.991,989.963 182.438,990.555 182.908,991.12 183.4,991.661 183.917,992.177 184.457,992.67 185.023,993.14 185.615,993.587 186.233,994.012 186.88,994.417 187.555,994.801 188.259,995.165 188.81,995.423 189.186,995.591 189.569,995.754 189.96,995.912 190.36,996.066 190.769,996.215 191.186,996.36 191.612,996.5 192.047,996.637 192.492,996.769 192.946,996.897 193.41,997.021 193.883,997.141 194.368,997.257 194.862,997.369 195.368,997.478 195.879,997.581 196.397,997.68 196.925,997.776 197.465,997.868 198.018,997.957 198.582,998.043 199.16,998.125 199.75,998.204 200.354,998.28 200.972,998.353 201.921,998.458 203.248,998.587 204.641,998.704 206.102,998.811 207.635,998.907 209.254,998.994 210.967,999.071 212.784,999.14 214.716,999.201 216.78,999.255 218.994,999.301 221.525,999.343 224.456,999.38 227.696,999.41 231.32,999.434 235.391,999.452 240.039,999.465 248.102,999.478 265.647,999.485 1011.04,999.485 1028.59,999.478 1036.65,999.465 1041.3,999.452 1045.37,999.434 1048.99,999.41 1052.23,999.38 1055.17,999.343 1057.7,999.301 1059.91,999.255 1061.97,999.201 1063.91,999.14 1065.72,999.071 1067.44,998.994 1069.06,998.907 1070.59,998.811 1072.05,998.704 1073.44,998.587 1074.77,998.458 1075.72,998.353 1076.34,998.28 1076.94,998.204 1077.53,998.125 1078.11,998.043 1078.67,997.957 1079.23,997.868 1079.77,997.776 1080.29,997.68 1080.81,997.581 1081.32,997.478 1081.83,997.369 1082.32,997.257 1082.81,997.141 1083.28,997.021 1083.74,996.897 1084.2,996.769 1084.64,996.637 1085.08,996.5 1085.5,996.36 1085.92,996.215 1086.33,996.066 1086.73,995.912 1087.12,995.754 1087.51,995.591 1087.88,995.423 1088.43,995.165 1089.14,994.801 1089.81,994.417 1090.46,994.012 1091.08,993.587 1091.67,993.14 1092.23,992.67 1092.77,992.177 1093.29,991.661 1093.78,991.12 1094.25,990.555 1094.7,989.963 1095.13,989.344 1095.53,988.698 1095.91,988.023 1096.28,987.319 1096.54,986.767 1096.7,986.392 1096.87,986.009 1097.02,985.617 1097.18,985.217 1097.33,984.809 1097.47,984.392 1097.61,983.966 1097.75,983.53 1097.88,983.086 1098.01,982.632 1098.13,982.168 1098.25,981.694 1098.37,981.21 1098.48,980.715 1098.59,980.21 1098.69,979.698 1098.79,979.181 1098.89,978.652 1098.98,978.112 1099.07,977.56 1099.16,976.995 1099.24,976.418 1099.32,975.827 1099.39,975.223 1099.47,974.605 1099.57,973.656 1099.7,972.33 1099.82,970.937 1099.92,969.476 1100.02,967.942 1100.11,966.324 1100.18,964.61 1100.25,962.794 1100.31,960.862 1100.37,958.798 1100.41,956.583 1100.46,954.052 1100.49,951.122 1100.52,947.881 1100.55,944.258 1100.56,940.187 1100.58,935.539 1100.59,927.476 1100.6,909.931 1100.6,164.534 1100.59,146.989 1100.58,138.926 1100.56,134.278 1100.55,130.207 1100.52,126.583 1100.49,123.343 1100.46,120.412 1100.41,117.881 1100.37,115.667 1100.31,113.603 1100.25,111.671 1100.18,109.854 1100.11,108.141 1100.02,106.522 1099.92,104.989 1099.82,103.528 1099.7,102.135 1099.57,100.808 1099.47,99.8594 1099.39,99.2414 1099.32,98.6374 1099.24,98.0468 1099.16,97.4694 1099.07,96.9048 1098.98,96.3525 1098.89,95.8122 1098.79,95.2835 1098.69,94.7662 1098.59,94.2547 1098.48,93.7492 1098.37,93.2545 1098.25,92.7704 1098.13,92.2966 1098.01,91.8328 1097.88,91.3787 1097.75,90.9342 1097.61,90.4991 1097.47,90.073 1097.33,89.6558 1097.18,89.2473 1097.02,88.8474 1096.87,88.4559 1096.7,88.0726 1096.54,87.6974 1096.28,87.1461 1095.91,86.4415 1095.53,85.7667 1095.13,85.1205 1094.7,84.5019 1094.25,83.9101 1093.78,83.3443 1093.29,82.8036 1092.77,82.2873 1092.23,81.7947 1091.67,81.3251 1091.08,80.8779 1090.46,80.4523 1089.81,80.0479 1089.14,79.6639 1088.43,79.2999 1087.88,79.0414 1087.51,78.8739 1087.12,78.711 1086.73,78.5528 1086.33,78.399 1085.92,78.2497 1085.5,78.1048 1085.08,77.9642 1084.64,77.8279 1084.2,77.6957 1083.74,77.5677 1083.28,77.4437 1082.81,77.3237 1082.32,77.2077 1081.83,77.0955 1081.32,76.9871 1080.81,76.8834 1080.29,76.7843 1079.77,76.6887 1079.23,76.5965 1078.67,76.5077 1078.11,76.4221 1077.53,76.3397 1076.94,76.2605 1076.34,76.1844 1075.72,76.1114 1074.77,76.0063 1073.44,75.8778 1072.05,75.7604 1070.59,75.6539 1069.06,75.5577 1067.44,75.471 1065.72,75.3934 1063.91,75.3243 1061.97,75.2633 1059.91,75.2099 1057.7,75.1636 1055.17,75.1215 1052.23,75.0846 1048.99,75.0547 1045.37,75.031 1041.3,75.0129 1036.65,74.9997 1028.59,74.9862 1011.04,74.9793 265.647,74.9793 248.102,74.9862 240.039,74.9997 235.391,75.0129 231.32,75.031 227.696,75.0547 224.456,75.0846 221.525,75.1215 218.994,75.1636 216.78,75.2099 214.716,75.2633 212.784,75.3243 210.967,75.3934 209.254,75.471 207.635,75.5577 206.102,75.6539 204.641,75.7604 203.248,75.8778 201.921,76.0063 200.972,76.1114 200.354,76.1844 199.75,76.2605 199.16,76.3397 198.582,76.4221 198.018,76.5077 197.465,76.5965 196.925,76.6887 196.397,76.7843 195.879,76.8834 195.368,76.9871 194.862,77.0955 194.368,77.2077 193.883,77.3237 193.41,77.4437 192.946,77.5677 192.492,77.6957 192.047,77.8279 191.612,77.9642 191.186,78.1048 190.769,78.2497 190.36,78.399 189.96,78.5528 189.569,78.711 189.186,78.8739 188.81,79.0414 188.259,79.2999 187.555,79.6639 186.88,80.0479 186.233,80.4523 185.615,80.8779 185.023,81.3251 184.457,81.7947 183.917,82.2873 183.4,82.8036 182.908,83.3443 182.438,83.9101 181.991,84.5019 181.565,85.1205 181.161,85.7667 180.777,86.4415 180.413,87.1461 180.154,87.6974 179.987,88.0726 179.824,88.4559 179.666,88.8474 179.512,89.2473 179.363,89.6558 179.218,90.073 179.077,90.4991 178.941,90.9342 178.809,91.3787 178.681,91.8328 178.557,92.2966 178.437,92.7704 178.321,93.2545 178.208,93.7492 178.1,94.2547 177.996,94.7662 177.897,95.2835 177.802,95.8122 177.71,96.3525 177.621,96.9048 177.535,97.4694 177.453,98.0468 177.373,98.6374 177.297,99.2414 177.224,99.8594 177.119,100.808 176.991,102.135 176.873,103.528 176.767,104.989 176.671,106.522 176.584,108.141 176.506,109.854 176.437,111.671 176.376,113.603 176.323,115.667 176.277,117.881 176.234,120.412 176.198,123.343 176.168,126.583 176.144,130.207 176.126,134.278 176.113,138.926 176.099,146.989 176.092,164.534 176.092,909.931 "/>
</svg>
