<?xml version="1.0" encoding="utf-8"?>
<svg xmlns="http://www.w3.org/2000/svg" xmlns:xlink="http://www.w3.org/1999/xlink" width="600" height="400" viewBox="0 0 2400 1600">
<defs>
  <clipPath id="clip250">
    <rect x="0" y="0" width="2400" height="1600"/>
  </clipPath>
</defs>
<path clip-path="url(#clip250)" d="M0 1600 L2400 1600 L2400 0 L0 0  Z" fill="#ffffff" fill-rule="evenodd" fill-opacity="1"/>
<defs>
  <clipPath id="clip251">
    <rect x="480" y="0" width="1681" height="1600"/>
  </clipPath>
</defs>
<path clip-path="url(#clip250)" d="M147.478 1486.45 L2352.76 1486.45 L2352.76 47.2441 L147.478 47.2441  Z" fill="#ffffff" fill-rule="evenodd" fill-opacity="1"/>
<defs>
  <clipPath id="clip252">
    <rect x="147" y="47" width="2206" height="1440"/>
  </clipPath>
</defs>
<polyline clip-path="url(#clip252)" style="stroke:#000000; stroke-linecap:round; stroke-linejoin:round; stroke-width:2; stroke-opacity:0.1; fill:none" points="256.073,1486.45 256.073,47.2441 "/>
<polyline clip-path="url(#clip252)" style="stroke:#000000; stroke-linecap:round; stroke-linejoin:round; stroke-width:2; stroke-opacity:0.1; fill:none" points="716.385,1486.45 716.385,47.2441 "/>
<polyline clip-path="url(#clip252)" style="stroke:#000000; stroke-linecap:round; stroke-linejoin:round; stroke-width:2; stroke-opacity:0.1; fill:none" points="1176.7,1486.45 1176.7,47.2441 "/>
<polyline clip-path="url(#clip252)" style="stroke:#000000; stroke-linecap:round; stroke-linejoin:round; stroke-width:2; stroke-opacity:0.1; fill:none" points="1637.01,1486.45 1637.01,47.2441 "/>
<polyline clip-path="url(#clip252)" style="stroke:#000000; stroke-linecap:round; stroke-linejoin:round; stroke-width:2; stroke-opacity:0.1; fill:none" points="2097.32,1486.45 2097.32,47.2441 "/>
<polyline clip-path="url(#clip252)" style="stroke:#000000; stroke-linecap:round; stroke-linejoin:round; stroke-width:2; stroke-opacity:0.1; fill:none" points="147.478,1324.64 2352.76,1324.64 "/>
<polyline clip-path="url(#clip252)" style="stroke:#000000; stroke-linecap:round; stroke-linejoin:round; stroke-width:2; stroke-opacity:0.1; fill:none" points="147.478,1019.77 2352.76,1019.77 "/>
<polyline clip-path="url(#clip252)" style="stroke:#000000; stroke-linecap:round; stroke-linejoin:round; stroke-width:2; stroke-opacity:0.1; fill:none" points="147.478,714.91 2352.76,714.91 "/>
<polyline clip-path="url(#clip252)" style="stroke:#000000; stroke-linecap:round; stroke-linejoin:round; stroke-width:2; stroke-opacity:0.1; fill:none" points="147.478,410.047 2352.76,410.047 "/>
<polyline clip-path="url(#clip252)" style="stroke:#000000; stroke-linecap:round; stroke-linejoin:round; stroke-width:2; stroke-opacity:0.1; fill:none" points="147.478,105.184 2352.76,105.184 "/>
<polyline clip-path="url(#clip250)" style="stroke:#000000; stroke-linecap:round; stroke-linejoin:round; stroke-width:4; stroke-opacity:1; fill:none" points="147.478,1486.45 2352.76,1486.45 "/>
<polyline clip-path="url(#clip250)" style="stroke:#000000; stroke-linecap:round; stroke-linejoin:round; stroke-width:4; stroke-opacity:1; fill:none" points="256.073,1486.45 256.073,1467.55 "/>
<polyline clip-path="url(#clip250)" style="stroke:#000000; stroke-linecap:round; stroke-linejoin:round; stroke-width:4; stroke-opacity:1; fill:none" points="716.385,1486.45 716.385,1467.55 "/>
<polyline clip-path="url(#clip250)" style="stroke:#000000; stroke-linecap:round; stroke-linejoin:round; stroke-width:4; stroke-opacity:1; fill:none" points="1176.7,1486.45 1176.7,1467.55 "/>
<polyline clip-path="url(#clip250)" style="stroke:#000000; stroke-linecap:round; stroke-linejoin:round; stroke-width:4; stroke-opacity:1; fill:none" points="1637.01,1486.45 1637.01,1467.55 "/>
<polyline clip-path="url(#clip250)" style="stroke:#000000; stroke-linecap:round; stroke-linejoin:round; stroke-width:4; stroke-opacity:1; fill:none" points="2097.32,1486.45 2097.32,1467.55 "/>
<path clip-path="url(#clip250)" d="M226.015 1532.02 L255.691 1532.02 L255.691 1535.95 L226.015 1535.95 L226.015 1532.02 Z" fill="#000000" fill-rule="nonzero" fill-opacity="1" /><path clip-path="url(#clip250)" d="M269.811 1544.91 L286.13 1544.91 L286.13 1548.85 L264.186 1548.85 L264.186 1544.91 Q266.848 1542.16 271.431 1537.53 Q276.038 1532.88 277.218 1531.53 Q279.464 1529.01 280.343 1527.27 Q281.246 1525.51 281.246 1523.82 Q281.246 1521.07 279.302 1519.33 Q277.38 1517.6 274.279 1517.6 Q272.08 1517.6 269.626 1518.36 Q267.195 1519.13 264.418 1520.68 L264.418 1515.95 Q267.242 1514.82 269.695 1514.24 Q272.149 1513.66 274.186 1513.66 Q279.556 1513.66 282.751 1516.35 Q285.945 1519.03 285.945 1523.52 Q285.945 1525.65 285.135 1527.57 Q284.348 1529.47 282.242 1532.07 Q281.663 1532.74 278.561 1535.95 Q275.459 1539.15 269.811 1544.91 Z" fill="#000000" fill-rule="nonzero" fill-opacity="1" /><path clip-path="url(#clip250)" d="M686.142 1532.02 L715.818 1532.02 L715.818 1535.95 L686.142 1535.95 L686.142 1532.02 Z" fill="#000000" fill-rule="nonzero" fill-opacity="1" /><path clip-path="url(#clip250)" d="M726.72 1544.91 L734.359 1544.91 L734.359 1518.55 L726.049 1520.21 L726.049 1515.95 L734.313 1514.29 L738.989 1514.29 L738.989 1544.91 L746.628 1544.91 L746.628 1548.85 L726.72 1548.85 L726.72 1544.91 Z" fill="#000000" fill-rule="nonzero" fill-opacity="1" /><path clip-path="url(#clip250)" d="M1176.7 1517.37 Q1173.09 1517.37 1171.26 1520.93 Q1169.45 1524.47 1169.45 1531.6 Q1169.45 1538.71 1171.26 1542.27 Q1173.09 1545.82 1176.7 1545.82 Q1180.33 1545.82 1182.14 1542.27 Q1183.97 1538.71 1183.97 1531.6 Q1183.97 1524.47 1182.14 1520.93 Q1180.33 1517.37 1176.7 1517.37 M1176.7 1513.66 Q1182.51 1513.66 1185.56 1518.27 Q1188.64 1522.85 1188.64 1531.6 Q1188.64 1540.33 1185.56 1544.94 Q1182.51 1549.52 1176.7 1549.52 Q1170.89 1549.52 1167.81 1544.94 Q1164.75 1540.33 1164.75 1531.6 Q1164.75 1522.85 1167.81 1518.27 Q1170.89 1513.66 1176.7 1513.66 Z" fill="#000000" fill-rule="nonzero" fill-opacity="1" /><path clip-path="url(#clip250)" d="M1627.39 1544.91 L1635.03 1544.91 L1635.03 1518.55 L1626.72 1520.21 L1626.72 1515.95 L1634.98 1514.29 L1639.66 1514.29 L1639.66 1544.91 L1647.3 1544.91 L1647.3 1548.85 L1627.39 1548.85 L1627.39 1544.91 Z" fill="#000000" fill-rule="nonzero" fill-opacity="1" /><path clip-path="url(#clip250)" d="M2091.97 1544.91 L2108.29 1544.91 L2108.29 1548.85 L2086.35 1548.85 L2086.35 1544.91 Q2089.01 1542.16 2093.59 1537.53 Q2098.2 1532.88 2099.38 1531.53 Q2101.63 1529.01 2102.51 1527.27 Q2103.41 1525.51 2103.41 1523.82 Q2103.41 1521.07 2101.46 1519.33 Q2099.54 1517.6 2096.44 1517.6 Q2094.24 1517.6 2091.79 1518.36 Q2089.36 1519.13 2086.58 1520.68 L2086.58 1515.95 Q2089.4 1514.82 2091.86 1514.24 Q2094.31 1513.66 2096.35 1513.66 Q2101.72 1513.66 2104.91 1516.35 Q2108.11 1519.03 2108.11 1523.52 Q2108.11 1525.65 2107.3 1527.57 Q2106.51 1529.47 2104.4 1532.07 Q2103.83 1532.74 2100.72 1535.95 Q2097.62 1539.15 2091.97 1544.91 Z" fill="#000000" fill-rule="nonzero" fill-opacity="1" /><polyline clip-path="url(#clip250)" style="stroke:#000000; stroke-linecap:round; stroke-linejoin:round; stroke-width:4; stroke-opacity:1; fill:none" points="147.478,1486.45 147.478,47.2441 "/>
<polyline clip-path="url(#clip250)" style="stroke:#000000; stroke-linecap:round; stroke-linejoin:round; stroke-width:4; stroke-opacity:1; fill:none" points="147.478,1324.64 166.376,1324.64 "/>
<polyline clip-path="url(#clip250)" style="stroke:#000000; stroke-linecap:round; stroke-linejoin:round; stroke-width:4; stroke-opacity:1; fill:none" points="147.478,1019.77 166.376,1019.77 "/>
<polyline clip-path="url(#clip250)" style="stroke:#000000; stroke-linecap:round; stroke-linejoin:round; stroke-width:4; stroke-opacity:1; fill:none" points="147.478,714.91 166.376,714.91 "/>
<polyline clip-path="url(#clip250)" style="stroke:#000000; stroke-linecap:round; stroke-linejoin:round; stroke-width:4; stroke-opacity:1; fill:none" points="147.478,410.047 166.376,410.047 "/>
<polyline clip-path="url(#clip250)" style="stroke:#000000; stroke-linecap:round; stroke-linejoin:round; stroke-width:4; stroke-opacity:1; fill:none" points="147.478,105.184 166.376,105.184 "/>
<path clip-path="url(#clip250)" d="M51.3625 1325.09 L81.0383 1325.09 L81.0383 1329.02 L51.3625 1329.02 L51.3625 1325.09 Z" fill="#000000" fill-rule="nonzero" fill-opacity="1" /><path clip-path="url(#clip250)" d="M95.1586 1337.98 L111.478 1337.98 L111.478 1341.92 L89.5336 1341.92 L89.5336 1337.98 Q92.1956 1335.23 96.7789 1330.6 Q101.385 1325.94 102.566 1324.6 Q104.811 1322.08 105.691 1320.34 Q106.594 1318.58 106.594 1316.89 Q106.594 1314.14 104.649 1312.4 Q102.728 1310.67 99.6261 1310.67 Q97.4271 1310.67 94.9734 1311.43 Q92.5428 1312.19 89.7651 1313.75 L89.7651 1309.02 Q92.5891 1307.89 95.0428 1307.31 Q97.4965 1306.73 99.5335 1306.73 Q104.904 1306.73 108.098 1309.42 Q111.293 1312.1 111.293 1316.59 Q111.293 1318.72 110.483 1320.64 Q109.696 1322.54 107.589 1325.13 Q107.01 1325.81 103.909 1329.02 Q100.807 1332.22 95.1586 1337.98 Z" fill="#000000" fill-rule="nonzero" fill-opacity="1" /><path clip-path="url(#clip250)" d="M50.9921 1020.22 L80.6679 1020.22 L80.6679 1024.16 L50.9921 1024.16 L50.9921 1020.22 Z" fill="#000000" fill-rule="nonzero" fill-opacity="1" /><path clip-path="url(#clip250)" d="M91.5706 1033.12 L99.2095 1033.12 L99.2095 1006.75 L90.8993 1008.42 L90.8993 1004.16 L99.1632 1002.49 L103.839 1002.49 L103.839 1033.12 L111.478 1033.12 L111.478 1037.05 L91.5706 1037.05 L91.5706 1033.12 Z" fill="#000000" fill-rule="nonzero" fill-opacity="1" /><path clip-path="url(#clip250)" d="M99.5335 700.709 Q95.9224 700.709 94.0937 704.273 Q92.2882 707.815 92.2882 714.945 Q92.2882 722.051 94.0937 725.616 Q95.9224 729.158 99.5335 729.158 Q103.168 729.158 104.973 725.616 Q106.802 722.051 106.802 714.945 Q106.802 707.815 104.973 704.273 Q103.168 700.709 99.5335 700.709 M99.5335 697.005 Q105.344 697.005 108.399 701.611 Q111.478 706.195 111.478 714.945 Q111.478 723.671 108.399 728.278 Q105.344 732.861 99.5335 732.861 Q93.7234 732.861 90.6447 728.278 Q87.5892 723.671 87.5892 714.945 Q87.5892 706.195 90.6447 701.611 Q93.7234 697.005 99.5335 697.005 Z" fill="#000000" fill-rule="nonzero" fill-opacity="1" /><path clip-path="url(#clip250)" d="M91.5706 423.392 L99.2095 423.392 L99.2095 397.026 L90.8993 398.693 L90.8993 394.433 L99.1632 392.767 L103.839 392.767 L103.839 423.392 L111.478 423.392 L111.478 427.327 L91.5706 427.327 L91.5706 423.392 Z" fill="#000000" fill-rule="nonzero" fill-opacity="1" /><path clip-path="url(#clip250)" d="M95.1586 118.528 L111.478 118.528 L111.478 122.464 L89.5336 122.464 L89.5336 118.528 Q92.1956 115.774 96.7789 111.144 Q101.385 106.491 102.566 105.149 Q104.811 102.626 105.691 100.89 Q106.594 99.1303 106.594 97.4405 Q106.594 94.6859 104.649 92.9498 Q102.728 91.2137 99.6261 91.2137 Q97.4271 91.2137 94.9734 91.9776 Q92.5428 92.7415 89.7651 94.2924 L89.7651 89.5702 Q92.5891 88.4359 95.0428 87.8572 Q97.4965 87.2785 99.5335 87.2785 Q104.904 87.2785 108.098 89.9637 Q111.293 92.6489 111.293 97.1396 Q111.293 99.2692 110.483 101.19 Q109.696 103.089 107.589 105.681 Q107.01 106.352 103.909 109.57 Q100.807 112.764 95.1586 118.528 Z" fill="#000000" fill-rule="nonzero" fill-opacity="1" /><circle clip-path="url(#clip252)" cx="1409.76" cy="1169.18" r="14.4" fill="#009af9" fill-rule="evenodd" fill-opacity="0.5" stroke="#000000" stroke-opacity="0.5" stroke-width="3.2"/>
<circle clip-path="url(#clip252)" cx="1319.44" cy="458.34" r="14.4" fill="#009af9" fill-rule="evenodd" fill-opacity="0.5" stroke="#000000" stroke-opacity="0.5" stroke-width="3.2"/>
<circle clip-path="url(#clip252)" cx="2013.77" cy="477.235" r="14.4" fill="#009af9" fill-rule="evenodd" fill-opacity="0.5" stroke="#000000" stroke-opacity="0.5" stroke-width="3.2"/>
<circle clip-path="url(#clip252)" cx="794.648" cy="437.692" r="14.4" fill="#009af9" fill-rule="evenodd" fill-opacity="0.5" stroke="#000000" stroke-opacity="0.5" stroke-width="3.2"/>
<circle clip-path="url(#clip252)" cx="1288.05" cy="707.477" r="14.4" fill="#009af9" fill-rule="evenodd" fill-opacity="0.5" stroke="#000000" stroke-opacity="0.5" stroke-width="3.2"/>
<circle clip-path="url(#clip252)" cx="1417.38" cy="1102.13" r="14.4" fill="#009af9" fill-rule="evenodd" fill-opacity="0.5" stroke="#000000" stroke-opacity="0.5" stroke-width="3.2"/>
<circle clip-path="url(#clip252)" cx="978.009" cy="406.094" r="14.4" fill="#009af9" fill-rule="evenodd" fill-opacity="0.5" stroke="#000000" stroke-opacity="0.5" stroke-width="3.2"/>
<circle clip-path="url(#clip252)" cx="839.205" cy="810.145" r="14.4" fill="#009af9" fill-rule="evenodd" fill-opacity="0.5" stroke="#000000" stroke-opacity="0.5" stroke-width="3.2"/>
<circle clip-path="url(#clip252)" cx="1346.97" cy="682.173" r="14.4" fill="#009af9" fill-rule="evenodd" fill-opacity="0.5" stroke="#000000" stroke-opacity="0.5" stroke-width="3.2"/>
<circle clip-path="url(#clip252)" cx="1936.71" cy="573.974" r="14.4" fill="#009af9" fill-rule="evenodd" fill-opacity="0.5" stroke="#000000" stroke-opacity="0.5" stroke-width="3.2"/>
<circle clip-path="url(#clip252)" cx="364.768" cy="1128.44" r="14.4" fill="#009af9" fill-rule="evenodd" fill-opacity="0.5" stroke="#000000" stroke-opacity="0.5" stroke-width="3.2"/>
<circle clip-path="url(#clip252)" cx="548.604" cy="1445.72" r="14.4" fill="#009af9" fill-rule="evenodd" fill-opacity="0.5" stroke="#000000" stroke-opacity="0.5" stroke-width="3.2"/>
<circle clip-path="url(#clip252)" cx="1053.85" cy="444.921" r="14.4" fill="#009af9" fill-rule="evenodd" fill-opacity="0.5" stroke="#000000" stroke-opacity="0.5" stroke-width="3.2"/>
<circle clip-path="url(#clip252)" cx="1955.32" cy="467.159" r="14.4" fill="#009af9" fill-rule="evenodd" fill-opacity="0.5" stroke="#000000" stroke-opacity="0.5" stroke-width="3.2"/>
<circle clip-path="url(#clip252)" cx="1468.44" cy="199.019" r="14.4" fill="#009af9" fill-rule="evenodd" fill-opacity="0.5" stroke="#000000" stroke-opacity="0.5" stroke-width="3.2"/>
<circle clip-path="url(#clip252)" cx="1025.31" cy="879.702" r="14.4" fill="#009af9" fill-rule="evenodd" fill-opacity="0.5" stroke="#000000" stroke-opacity="0.5" stroke-width="3.2"/>
<circle clip-path="url(#clip252)" cx="1000.63" cy="328.498" r="14.4" fill="#009af9" fill-rule="evenodd" fill-opacity="0.5" stroke="#000000" stroke-opacity="0.5" stroke-width="3.2"/>
<circle clip-path="url(#clip252)" cx="1194.8" cy="684.445" r="14.4" fill="#009af9" fill-rule="evenodd" fill-opacity="0.5" stroke="#000000" stroke-opacity="0.5" stroke-width="3.2"/>
<circle clip-path="url(#clip252)" cx="1145.73" cy="584.208" r="14.4" fill="#009af9" fill-rule="evenodd" fill-opacity="0.5" stroke="#000000" stroke-opacity="0.5" stroke-width="3.2"/>
<circle clip-path="url(#clip252)" cx="1010.11" cy="531.181" r="14.4" fill="#009af9" fill-rule="evenodd" fill-opacity="0.5" stroke="#000000" stroke-opacity="0.5" stroke-width="3.2"/>
<circle clip-path="url(#clip252)" cx="1295.4" cy="1033.41" r="14.4" fill="#009af9" fill-rule="evenodd" fill-opacity="0.5" stroke="#000000" stroke-opacity="0.5" stroke-width="3.2"/>
<circle clip-path="url(#clip252)" cx="1611.66" cy="940.291" r="14.4" fill="#009af9" fill-rule="evenodd" fill-opacity="0.5" stroke="#000000" stroke-opacity="0.5" stroke-width="3.2"/>
<circle clip-path="url(#clip252)" cx="879.193" cy="467.371" r="14.4" fill="#009af9" fill-rule="evenodd" fill-opacity="0.5" stroke="#000000" stroke-opacity="0.5" stroke-width="3.2"/>
<circle clip-path="url(#clip252)" cx="209.891" cy="686.369" r="14.4" fill="#009af9" fill-rule="evenodd" fill-opacity="0.5" stroke="#000000" stroke-opacity="0.5" stroke-width="3.2"/>
<circle clip-path="url(#clip252)" cx="772.787" cy="495.835" r="14.4" fill="#009af9" fill-rule="evenodd" fill-opacity="0.5" stroke="#000000" stroke-opacity="0.5" stroke-width="3.2"/>
<circle clip-path="url(#clip252)" cx="1480.71" cy="1226.78" r="14.4" fill="#009af9" fill-rule="evenodd" fill-opacity="0.5" stroke="#000000" stroke-opacity="0.5" stroke-width="3.2"/>
<circle clip-path="url(#clip252)" cx="993.334" cy="625.232" r="14.4" fill="#009af9" fill-rule="evenodd" fill-opacity="0.5" stroke="#000000" stroke-opacity="0.5" stroke-width="3.2"/>
<circle clip-path="url(#clip252)" cx="2290.34" cy="87.9763" r="14.4" fill="#009af9" fill-rule="evenodd" fill-opacity="0.5" stroke="#000000" stroke-opacity="0.5" stroke-width="3.2"/>
<circle clip-path="url(#clip252)" cx="1553.49" cy="984.854" r="14.4" fill="#009af9" fill-rule="evenodd" fill-opacity="0.5" stroke="#000000" stroke-opacity="0.5" stroke-width="3.2"/>
<circle clip-path="url(#clip252)" cx="1575.83" cy="376.305" r="14.4" fill="#009af9" fill-rule="evenodd" fill-opacity="0.5" stroke="#000000" stroke-opacity="0.5" stroke-width="3.2"/>
<path clip-path="url(#clip252)" d="M209.891 686.369 L364.768 1128.44 L548.604 1445.72 L1480.71 1226.78 L2013.77 477.235 L2290.34 87.9763 L1468.44 199.019 L1000.63 328.498 L209.891 686.369 L209.891 686.369  Z" fill="#e26f46" fill-rule="evenodd" fill-opacity="0.2"/>
<polyline clip-path="url(#clip252)" style="stroke:#000000; stroke-linecap:round; stroke-linejoin:round; stroke-width:4; stroke-opacity:0.2; fill:none" points="209.891,686.369 364.768,1128.44 548.604,1445.72 1480.71,1226.78 2013.77,477.235 2290.34,87.9763 1468.44,199.019 1000.63,328.498 209.891,686.369 "/>
</svg>
