<?xml version="1.0" encoding="utf-8"?>
<svg xmlns="http://www.w3.org/2000/svg" xmlns:xlink="http://www.w3.org/1999/xlink" width="600" height="400" viewBox="0 0 2400 1600">
<defs>
  <clipPath id="clip780">
    <rect x="0" y="0" width="2400" height="1600"/>
  </clipPath>
</defs>
<path clip-path="url(#clip780)" d="M0 1600 L2400 1600 L2400 0 L0 0  Z" fill="#ffffff" fill-rule="evenodd" fill-opacity="1"/>
<defs>
  <clipPath id="clip781">
    <rect x="480" y="0" width="1681" height="1600"/>
  </clipPath>
</defs>
<path clip-path="url(#clip780)" d="M147.478 1486.45 L2352.76 1486.45 L2352.76 47.2441 L147.478 47.2441  Z" fill="#ffffff" fill-rule="evenodd" fill-opacity="1"/>
<defs>
  <clipPath id="clip782">
    <rect x="147" y="47" width="2206" height="1440"/>
  </clipPath>
</defs>
<polyline clip-path="url(#clip782)" style="stroke:#000000; stroke-linecap:round; stroke-linejoin:round; stroke-width:2; stroke-opacity:0.1; fill:none" points="280.841,1486.45 280.841,47.2441 "/>
<polyline clip-path="url(#clip782)" style="stroke:#000000; stroke-linecap:round; stroke-linejoin:round; stroke-width:2; stroke-opacity:0.1; fill:none" points="775.147,1486.45 775.147,47.2441 "/>
<polyline clip-path="url(#clip782)" style="stroke:#000000; stroke-linecap:round; stroke-linejoin:round; stroke-width:2; stroke-opacity:0.1; fill:none" points="1269.45,1486.45 1269.45,47.2441 "/>
<polyline clip-path="url(#clip782)" style="stroke:#000000; stroke-linecap:round; stroke-linejoin:round; stroke-width:2; stroke-opacity:0.1; fill:none" points="1763.76,1486.45 1763.76,47.2441 "/>
<polyline clip-path="url(#clip782)" style="stroke:#000000; stroke-linecap:round; stroke-linejoin:round; stroke-width:2; stroke-opacity:0.1; fill:none" points="2258.06,1486.45 2258.06,47.2441 "/>
<polyline clip-path="url(#clip780)" style="stroke:#000000; stroke-linecap:round; stroke-linejoin:round; stroke-width:4; stroke-opacity:1; fill:none" points="147.478,1486.45 2352.76,1486.45 "/>
<polyline clip-path="url(#clip780)" style="stroke:#000000; stroke-linecap:round; stroke-linejoin:round; stroke-width:4; stroke-opacity:1; fill:none" points="280.841,1486.45 280.841,1467.55 "/>
<polyline clip-path="url(#clip780)" style="stroke:#000000; stroke-linecap:round; stroke-linejoin:round; stroke-width:4; stroke-opacity:1; fill:none" points="775.147,1486.45 775.147,1467.55 "/>
<polyline clip-path="url(#clip780)" style="stroke:#000000; stroke-linecap:round; stroke-linejoin:round; stroke-width:4; stroke-opacity:1; fill:none" points="1269.45,1486.45 1269.45,1467.55 "/>
<polyline clip-path="url(#clip780)" style="stroke:#000000; stroke-linecap:round; stroke-linejoin:round; stroke-width:4; stroke-opacity:1; fill:none" points="1763.76,1486.45 1763.76,1467.55 "/>
<polyline clip-path="url(#clip780)" style="stroke:#000000; stroke-linecap:round; stroke-linejoin:round; stroke-width:4; stroke-opacity:1; fill:none" points="2258.06,1486.45 2258.06,1467.55 "/>
<path clip-path="url(#clip780)" d="M250.784 1532.02 L280.459 1532.02 L280.459 1535.95 L250.784 1535.95 L250.784 1532.02 Z" fill="#000000" fill-rule="nonzero" fill-opacity="1" /><path clip-path="url(#clip780)" d="M294.58 1544.91 L310.899 1544.91 L310.899 1548.85 L288.955 1548.85 L288.955 1544.91 Q291.617 1542.16 296.2 1537.53 Q300.807 1532.88 301.987 1531.53 Q304.232 1529.01 305.112 1527.27 Q306.015 1525.51 306.015 1523.82 Q306.015 1521.07 304.07 1519.33 Q302.149 1517.6 299.047 1517.6 Q296.848 1517.6 294.395 1518.36 Q291.964 1519.13 289.186 1520.68 L289.186 1515.95 Q292.01 1514.82 294.464 1514.24 Q296.918 1513.66 298.955 1513.66 Q304.325 1513.66 307.519 1516.35 Q310.714 1519.03 310.714 1523.52 Q310.714 1525.65 309.904 1527.57 Q309.117 1529.47 307.01 1532.07 Q306.431 1532.74 303.33 1535.95 Q300.228 1539.15 294.58 1544.91 Z" fill="#000000" fill-rule="nonzero" fill-opacity="1" /><path clip-path="url(#clip780)" d="M744.904 1532.02 L774.58 1532.02 L774.58 1535.95 L744.904 1535.95 L744.904 1532.02 Z" fill="#000000" fill-rule="nonzero" fill-opacity="1" /><path clip-path="url(#clip780)" d="M785.482 1544.91 L793.121 1544.91 L793.121 1518.55 L784.811 1520.21 L784.811 1515.95 L793.075 1514.29 L797.751 1514.29 L797.751 1544.91 L805.39 1544.91 L805.39 1548.85 L785.482 1548.85 L785.482 1544.91 Z" fill="#000000" fill-rule="nonzero" fill-opacity="1" /><path clip-path="url(#clip780)" d="M1269.45 1517.37 Q1265.84 1517.37 1264.01 1520.93 Q1262.21 1524.47 1262.21 1531.6 Q1262.21 1538.71 1264.01 1542.27 Q1265.84 1545.82 1269.45 1545.82 Q1273.09 1545.82 1274.89 1542.27 Q1276.72 1538.71 1276.72 1531.6 Q1276.72 1524.47 1274.89 1520.93 Q1273.09 1517.37 1269.45 1517.37 M1269.45 1513.66 Q1275.26 1513.66 1278.32 1518.27 Q1281.4 1522.85 1281.4 1531.6 Q1281.4 1540.33 1278.32 1544.94 Q1275.26 1549.52 1269.45 1549.52 Q1263.64 1549.52 1260.56 1544.94 Q1257.51 1540.33 1257.51 1531.6 Q1257.51 1522.85 1260.56 1518.27 Q1263.64 1513.66 1269.45 1513.66 Z" fill="#000000" fill-rule="nonzero" fill-opacity="1" /><path clip-path="url(#clip780)" d="M1754.14 1544.91 L1761.78 1544.91 L1761.78 1518.55 L1753.47 1520.21 L1753.47 1515.95 L1761.73 1514.29 L1766.41 1514.29 L1766.41 1544.91 L1774.05 1544.91 L1774.05 1548.85 L1754.14 1548.85 L1754.14 1544.91 Z" fill="#000000" fill-rule="nonzero" fill-opacity="1" /><path clip-path="url(#clip780)" d="M2252.72 1544.91 L2269.03 1544.91 L2269.03 1548.85 L2247.09 1548.85 L2247.09 1544.91 Q2249.75 1542.16 2254.34 1537.53 Q2258.94 1532.88 2260.12 1531.53 Q2262.37 1529.01 2263.25 1527.27 Q2264.15 1525.51 2264.15 1523.82 Q2264.15 1521.07 2262.21 1519.33 Q2260.28 1517.6 2257.18 1517.6 Q2254.98 1517.6 2252.53 1518.36 Q2250.1 1519.13 2247.32 1520.68 L2247.32 1515.95 Q2250.15 1514.82 2252.6 1514.24 Q2255.05 1513.66 2257.09 1513.66 Q2262.46 1513.66 2265.66 1516.35 Q2268.85 1519.03 2268.85 1523.52 Q2268.85 1525.65 2268.04 1527.57 Q2267.25 1529.47 2265.15 1532.07 Q2264.57 1532.74 2261.47 1535.95 Q2258.36 1539.15 2252.72 1544.91 Z" fill="#000000" fill-rule="nonzero" fill-opacity="1" /><polyline clip-path="url(#clip782)" style="stroke:#000000; stroke-linecap:round; stroke-linejoin:round; stroke-width:2; stroke-opacity:0.1; fill:none" points="147.478,1354.44 2352.76,1354.44 "/>
<polyline clip-path="url(#clip782)" style="stroke:#000000; stroke-linecap:round; stroke-linejoin:round; stroke-width:2; stroke-opacity:0.1; fill:none" points="147.478,998.515 2352.76,998.515 "/>
<polyline clip-path="url(#clip782)" style="stroke:#000000; stroke-linecap:round; stroke-linejoin:round; stroke-width:2; stroke-opacity:0.1; fill:none" points="147.478,642.584 2352.76,642.584 "/>
<polyline clip-path="url(#clip782)" style="stroke:#000000; stroke-linecap:round; stroke-linejoin:round; stroke-width:2; stroke-opacity:0.1; fill:none" points="147.478,286.654 2352.76,286.654 "/>
<polyline clip-path="url(#clip780)" style="stroke:#000000; stroke-linecap:round; stroke-linejoin:round; stroke-width:4; stroke-opacity:1; fill:none" points="147.478,1486.45 147.478,47.2441 "/>
<polyline clip-path="url(#clip780)" style="stroke:#000000; stroke-linecap:round; stroke-linejoin:round; stroke-width:4; stroke-opacity:1; fill:none" points="147.478,1354.44 166.376,1354.44 "/>
<polyline clip-path="url(#clip780)" style="stroke:#000000; stroke-linecap:round; stroke-linejoin:round; stroke-width:4; stroke-opacity:1; fill:none" points="147.478,998.515 166.376,998.515 "/>
<polyline clip-path="url(#clip780)" style="stroke:#000000; stroke-linecap:round; stroke-linejoin:round; stroke-width:4; stroke-opacity:1; fill:none" points="147.478,642.584 166.376,642.584 "/>
<polyline clip-path="url(#clip780)" style="stroke:#000000; stroke-linecap:round; stroke-linejoin:round; stroke-width:4; stroke-opacity:1; fill:none" points="147.478,286.654 166.376,286.654 "/>
<path clip-path="url(#clip780)" d="M50.9921 1354.9 L80.6679 1354.9 L80.6679 1358.83 L50.9921 1358.83 L50.9921 1354.9 Z" fill="#000000" fill-rule="nonzero" fill-opacity="1" /><path clip-path="url(#clip780)" d="M91.5706 1367.79 L99.2095 1367.79 L99.2095 1341.42 L90.8993 1343.09 L90.8993 1338.83 L99.1632 1337.16 L103.839 1337.16 L103.839 1367.79 L111.478 1367.79 L111.478 1371.72 L91.5706 1371.72 L91.5706 1367.79 Z" fill="#000000" fill-rule="nonzero" fill-opacity="1" /><path clip-path="url(#clip780)" d="M99.5335 984.313 Q95.9224 984.313 94.0937 987.878 Q92.2882 991.42 92.2882 998.549 Q92.2882 1005.66 94.0937 1009.22 Q95.9224 1012.76 99.5335 1012.76 Q103.168 1012.76 104.973 1009.22 Q106.802 1005.66 106.802 998.549 Q106.802 991.42 104.973 987.878 Q103.168 984.313 99.5335 984.313 M99.5335 980.61 Q105.344 980.61 108.399 985.216 Q111.478 989.799 111.478 998.549 Q111.478 1007.28 108.399 1011.88 Q105.344 1016.47 99.5335 1016.47 Q93.7234 1016.47 90.6447 1011.88 Q87.5892 1007.28 87.5892 998.549 Q87.5892 989.799 90.6447 985.216 Q93.7234 980.61 99.5335 980.61 Z" fill="#000000" fill-rule="nonzero" fill-opacity="1" /><path clip-path="url(#clip780)" d="M91.5706 655.929 L99.2095 655.929 L99.2095 629.564 L90.8993 631.23 L90.8993 626.971 L99.1632 625.304 L103.839 625.304 L103.839 655.929 L111.478 655.929 L111.478 659.864 L91.5706 659.864 L91.5706 655.929 Z" fill="#000000" fill-rule="nonzero" fill-opacity="1" /><path clip-path="url(#clip780)" d="M95.1586 299.999 L111.478 299.999 L111.478 303.934 L89.5336 303.934 L89.5336 299.999 Q92.1956 297.244 96.7789 292.615 Q101.385 287.962 102.566 286.619 Q104.811 284.096 105.691 282.36 Q106.594 280.601 106.594 278.911 Q106.594 276.156 104.649 274.42 Q102.728 272.684 99.6261 272.684 Q97.4271 272.684 94.9734 273.448 Q92.5428 274.212 89.7651 275.763 L89.7651 271.041 Q92.5891 269.906 95.0428 269.328 Q97.4965 268.749 99.5335 268.749 Q104.904 268.749 108.098 271.434 Q111.293 274.119 111.293 278.61 Q111.293 280.74 110.483 282.661 Q109.696 284.559 107.589 287.152 Q107.01 287.823 103.909 291.041 Q100.807 294.235 95.1586 299.999 Z" fill="#000000" fill-rule="nonzero" fill-opacity="1" /><circle clip-path="url(#clip782)" cx="895.417" cy="854.495" r="14.4" fill="#009af9" fill-rule="evenodd" fill-opacity="0.5" stroke="#000000" stroke-opacity="0.5" stroke-width="3.2"/>
<circle clip-path="url(#clip782)" cx="1188.26" cy="578.346" r="14.4" fill="#009af9" fill-rule="evenodd" fill-opacity="0.5" stroke="#000000" stroke-opacity="0.5" stroke-width="3.2"/>
<circle clip-path="url(#clip782)" cx="854.31" cy="522.568" r="14.4" fill="#009af9" fill-rule="evenodd" fill-opacity="0.5" stroke="#000000" stroke-opacity="0.5" stroke-width="3.2"/>
<circle clip-path="url(#clip782)" cx="743.027" cy="1148.86" r="14.4" fill="#009af9" fill-rule="evenodd" fill-opacity="0.5" stroke="#000000" stroke-opacity="0.5" stroke-width="3.2"/>
<circle clip-path="url(#clip782)" cx="1796.52" cy="953.723" r="14.4" fill="#009af9" fill-rule="evenodd" fill-opacity="0.5" stroke="#000000" stroke-opacity="0.5" stroke-width="3.2"/>
<circle clip-path="url(#clip782)" cx="895.698" cy="994.137" r="14.4" fill="#009af9" fill-rule="evenodd" fill-opacity="0.5" stroke="#000000" stroke-opacity="0.5" stroke-width="3.2"/>
<circle clip-path="url(#clip782)" cx="1073.94" cy="476.897" r="14.4" fill="#009af9" fill-rule="evenodd" fill-opacity="0.5" stroke="#000000" stroke-opacity="0.5" stroke-width="3.2"/>
<circle clip-path="url(#clip782)" cx="1678.8" cy="1355.8" r="14.4" fill="#009af9" fill-rule="evenodd" fill-opacity="0.5" stroke="#000000" stroke-opacity="0.5" stroke-width="3.2"/>
<circle clip-path="url(#clip782)" cx="1638.17" cy="409.372" r="14.4" fill="#009af9" fill-rule="evenodd" fill-opacity="0.5" stroke="#000000" stroke-opacity="0.5" stroke-width="3.2"/>
<circle clip-path="url(#clip782)" cx="2290.34" cy="1000.14" r="14.4" fill="#009af9" fill-rule="evenodd" fill-opacity="0.5" stroke="#000000" stroke-opacity="0.5" stroke-width="3.2"/>
<circle clip-path="url(#clip782)" cx="735.512" cy="629.572" r="14.4" fill="#009af9" fill-rule="evenodd" fill-opacity="0.5" stroke="#000000" stroke-opacity="0.5" stroke-width="3.2"/>
<circle clip-path="url(#clip782)" cx="1241.57" cy="851.157" r="14.4" fill="#009af9" fill-rule="evenodd" fill-opacity="0.5" stroke="#000000" stroke-opacity="0.5" stroke-width="3.2"/>
<circle clip-path="url(#clip782)" cx="1198.97" cy="768.217" r="14.4" fill="#009af9" fill-rule="evenodd" fill-opacity="0.5" stroke="#000000" stroke-opacity="0.5" stroke-width="3.2"/>
<circle clip-path="url(#clip782)" cx="1518.95" cy="751.201" r="14.4" fill="#009af9" fill-rule="evenodd" fill-opacity="0.5" stroke="#000000" stroke-opacity="0.5" stroke-width="3.2"/>
<circle clip-path="url(#clip782)" cx="209.891" cy="975.111" r="14.4" fill="#009af9" fill-rule="evenodd" fill-opacity="0.5" stroke="#000000" stroke-opacity="0.5" stroke-width="3.2"/>
<circle clip-path="url(#clip782)" cx="1753.12" cy="670.123" r="14.4" fill="#009af9" fill-rule="evenodd" fill-opacity="0.5" stroke="#000000" stroke-opacity="0.5" stroke-width="3.2"/>
<circle clip-path="url(#clip782)" cx="794.651" cy="627.707" r="14.4" fill="#009af9" fill-rule="evenodd" fill-opacity="0.5" stroke="#000000" stroke-opacity="0.5" stroke-width="3.2"/>
<circle clip-path="url(#clip782)" cx="1785.73" cy="1159.61" r="14.4" fill="#009af9" fill-rule="evenodd" fill-opacity="0.5" stroke="#000000" stroke-opacity="0.5" stroke-width="3.2"/>
<circle clip-path="url(#clip782)" cx="1300.82" cy="547.551" r="14.4" fill="#009af9" fill-rule="evenodd" fill-opacity="0.5" stroke="#000000" stroke-opacity="0.5" stroke-width="3.2"/>
<circle clip-path="url(#clip782)" cx="1394.9" cy="1056.44" r="14.4" fill="#009af9" fill-rule="evenodd" fill-opacity="0.5" stroke="#000000" stroke-opacity="0.5" stroke-width="3.2"/>
<circle clip-path="url(#clip782)" cx="602.698" cy="920.241" r="14.4" fill="#009af9" fill-rule="evenodd" fill-opacity="0.5" stroke="#000000" stroke-opacity="0.5" stroke-width="3.2"/>
<circle clip-path="url(#clip782)" cx="1684.84" cy="677.831" r="14.4" fill="#009af9" fill-rule="evenodd" fill-opacity="0.5" stroke="#000000" stroke-opacity="0.5" stroke-width="3.2"/>
<circle clip-path="url(#clip782)" cx="983.692" cy="87.9763" r="14.4" fill="#009af9" fill-rule="evenodd" fill-opacity="0.5" stroke="#000000" stroke-opacity="0.5" stroke-width="3.2"/>
<circle clip-path="url(#clip782)" cx="1437.47" cy="1445.72" r="14.4" fill="#009af9" fill-rule="evenodd" fill-opacity="0.5" stroke="#000000" stroke-opacity="0.5" stroke-width="3.2"/>
<circle clip-path="url(#clip782)" cx="652.708" cy="1181.93" r="14.4" fill="#009af9" fill-rule="evenodd" fill-opacity="0.5" stroke="#000000" stroke-opacity="0.5" stroke-width="3.2"/>
<circle clip-path="url(#clip782)" cx="1047.95" cy="440.552" r="14.4" fill="#009af9" fill-rule="evenodd" fill-opacity="0.5" stroke="#000000" stroke-opacity="0.5" stroke-width="3.2"/>
<circle clip-path="url(#clip782)" cx="2155.31" cy="1007.96" r="14.4" fill="#009af9" fill-rule="evenodd" fill-opacity="0.5" stroke="#000000" stroke-opacity="0.5" stroke-width="3.2"/>
<circle clip-path="url(#clip782)" cx="1624.96" cy="1174.59" r="14.4" fill="#009af9" fill-rule="evenodd" fill-opacity="0.5" stroke="#000000" stroke-opacity="0.5" stroke-width="3.2"/>
<circle clip-path="url(#clip782)" cx="1154.74" cy="1262.54" r="14.4" fill="#009af9" fill-rule="evenodd" fill-opacity="0.5" stroke="#000000" stroke-opacity="0.5" stroke-width="3.2"/>
<circle clip-path="url(#clip782)" cx="1023.14" cy="405.456" r="14.4" fill="#009af9" fill-rule="evenodd" fill-opacity="0.5" stroke="#000000" stroke-opacity="0.5" stroke-width="3.2"/>
<path clip-path="url(#clip782)" d="M209.891 975.111 L652.708 1181.93 L1437.47 1445.72 L1678.8 1355.8 L2290.34 1000.14 L1638.17 409.372 L983.692 87.9763 L209.891 975.111 L209.891 975.111  Z" fill="#e26f46" fill-rule="evenodd" fill-opacity="0.2"/>
<polyline clip-path="url(#clip782)" style="stroke:#000000; stroke-linecap:round; stroke-linejoin:round; stroke-width:4; stroke-opacity:0.2; fill:none" points="209.891,975.111 652.708,1181.93 1437.47,1445.72 1678.8,1355.8 2290.34,1000.14 1638.17,409.372 983.692,87.9763 209.891,975.111 "/>
</svg>
