<?xml version="1.0" encoding="utf-8"?>
<svg xmlns="http://www.w3.org/2000/svg" xmlns:xlink="http://www.w3.org/1999/xlink" width="600" height="400" viewBox="0 0 2400 1600">
<defs>
  <clipPath id="clip860">
    <rect x="0" y="0" width="2400" height="1600"/>
  </clipPath>
</defs>
<path clip-path="url(#clip860)" d="M0 1600 L2400 1600 L2400 0 L0 0  Z" fill="#ffffff" fill-rule="evenodd" fill-opacity="1"/>
<defs>
  <clipPath id="clip861">
    <rect x="480" y="0" width="1681" height="1600"/>
  </clipPath>
</defs>
<path clip-path="url(#clip860)" d="M147.478 1486.45 L2352.76 1486.45 L2352.76 47.2441 L147.478 47.2441  Z" fill="#ffffff" fill-rule="evenodd" fill-opacity="1"/>
<defs>
  <clipPath id="clip862">
    <rect x="147" y="47" width="2206" height="1440"/>
  </clipPath>
</defs>
<polyline clip-path="url(#clip862)" style="stroke:#000000; stroke-linecap:round; stroke-linejoin:round; stroke-width:2; stroke-opacity:0.1; fill:none" points="383.681,1486.45 383.681,47.2441 "/>
<polyline clip-path="url(#clip862)" style="stroke:#000000; stroke-linecap:round; stroke-linejoin:round; stroke-width:2; stroke-opacity:0.1; fill:none" points="824.325,1486.45 824.325,47.2441 "/>
<polyline clip-path="url(#clip862)" style="stroke:#000000; stroke-linecap:round; stroke-linejoin:round; stroke-width:2; stroke-opacity:0.1; fill:none" points="1264.97,1486.45 1264.97,47.2441 "/>
<polyline clip-path="url(#clip862)" style="stroke:#000000; stroke-linecap:round; stroke-linejoin:round; stroke-width:2; stroke-opacity:0.1; fill:none" points="1705.61,1486.45 1705.61,47.2441 "/>
<polyline clip-path="url(#clip862)" style="stroke:#000000; stroke-linecap:round; stroke-linejoin:round; stroke-width:2; stroke-opacity:0.1; fill:none" points="2146.26,1486.45 2146.26,47.2441 "/>
<polyline clip-path="url(#clip862)" style="stroke:#000000; stroke-linecap:round; stroke-linejoin:round; stroke-width:2; stroke-opacity:0.1; fill:none" points="147.478,1410.01 2352.76,1410.01 "/>
<polyline clip-path="url(#clip862)" style="stroke:#000000; stroke-linecap:round; stroke-linejoin:round; stroke-width:2; stroke-opacity:0.1; fill:none" points="147.478,1019.97 2352.76,1019.97 "/>
<polyline clip-path="url(#clip862)" style="stroke:#000000; stroke-linecap:round; stroke-linejoin:round; stroke-width:2; stroke-opacity:0.1; fill:none" points="147.478,629.939 2352.76,629.939 "/>
<polyline clip-path="url(#clip862)" style="stroke:#000000; stroke-linecap:round; stroke-linejoin:round; stroke-width:2; stroke-opacity:0.1; fill:none" points="147.478,239.905 2352.76,239.905 "/>
<polyline clip-path="url(#clip860)" style="stroke:#000000; stroke-linecap:round; stroke-linejoin:round; stroke-width:4; stroke-opacity:1; fill:none" points="147.478,1486.45 2352.76,1486.45 "/>
<polyline clip-path="url(#clip860)" style="stroke:#000000; stroke-linecap:round; stroke-linejoin:round; stroke-width:4; stroke-opacity:1; fill:none" points="383.681,1486.45 383.681,1467.55 "/>
<polyline clip-path="url(#clip860)" style="stroke:#000000; stroke-linecap:round; stroke-linejoin:round; stroke-width:4; stroke-opacity:1; fill:none" points="824.325,1486.45 824.325,1467.55 "/>
<polyline clip-path="url(#clip860)" style="stroke:#000000; stroke-linecap:round; stroke-linejoin:round; stroke-width:4; stroke-opacity:1; fill:none" points="1264.97,1486.45 1264.97,1467.55 "/>
<polyline clip-path="url(#clip860)" style="stroke:#000000; stroke-linecap:round; stroke-linejoin:round; stroke-width:4; stroke-opacity:1; fill:none" points="1705.61,1486.45 1705.61,1467.55 "/>
<polyline clip-path="url(#clip860)" style="stroke:#000000; stroke-linecap:round; stroke-linejoin:round; stroke-width:4; stroke-opacity:1; fill:none" points="2146.26,1486.45 2146.26,1467.55 "/>
<path clip-path="url(#clip860)" d="M353.624 1532.02 L383.299 1532.02 L383.299 1535.95 L353.624 1535.95 L353.624 1532.02 Z" fill="#000000" fill-rule="nonzero" fill-opacity="1" /><path clip-path="url(#clip860)" d="M397.42 1544.91 L413.739 1544.91 L413.739 1548.85 L391.795 1548.85 L391.795 1544.91 Q394.457 1542.16 399.04 1537.53 Q403.646 1532.88 404.827 1531.53 Q407.072 1529.01 407.952 1527.27 Q408.855 1525.51 408.855 1523.82 Q408.855 1521.07 406.91 1519.33 Q404.989 1517.6 401.887 1517.6 Q399.688 1517.6 397.234 1518.36 Q394.804 1519.13 392.026 1520.68 L392.026 1515.95 Q394.85 1514.82 397.304 1514.24 Q399.758 1513.66 401.795 1513.66 Q407.165 1513.66 410.359 1516.35 Q413.554 1519.03 413.554 1523.52 Q413.554 1525.65 412.744 1527.57 Q411.957 1529.47 409.85 1532.07 Q409.271 1532.74 406.17 1535.95 Q403.068 1539.15 397.42 1544.91 Z" fill="#000000" fill-rule="nonzero" fill-opacity="1" /><path clip-path="url(#clip860)" d="M794.083 1532.02 L823.758 1532.02 L823.758 1535.95 L794.083 1535.95 L794.083 1532.02 Z" fill="#000000" fill-rule="nonzero" fill-opacity="1" /><path clip-path="url(#clip860)" d="M834.661 1544.91 L842.3 1544.91 L842.3 1518.55 L833.99 1520.21 L833.99 1515.95 L842.254 1514.29 L846.929 1514.29 L846.929 1544.91 L854.568 1544.91 L854.568 1548.85 L834.661 1548.85 L834.661 1544.91 Z" fill="#000000" fill-rule="nonzero" fill-opacity="1" /><path clip-path="url(#clip860)" d="M1264.97 1517.37 Q1261.36 1517.37 1259.53 1520.93 Q1257.72 1524.47 1257.72 1531.6 Q1257.72 1538.71 1259.53 1542.27 Q1261.36 1545.82 1264.97 1545.82 Q1268.6 1545.82 1270.41 1542.27 Q1272.24 1538.71 1272.24 1531.6 Q1272.24 1524.47 1270.41 1520.93 Q1268.6 1517.37 1264.97 1517.37 M1264.97 1513.66 Q1270.78 1513.66 1273.84 1518.27 Q1276.91 1522.85 1276.91 1531.6 Q1276.91 1540.33 1273.84 1544.94 Q1270.78 1549.52 1264.97 1549.52 Q1259.16 1549.52 1256.08 1544.94 Q1253.03 1540.33 1253.03 1531.6 Q1253.03 1522.85 1256.08 1518.27 Q1259.16 1513.66 1264.97 1513.66 Z" fill="#000000" fill-rule="nonzero" fill-opacity="1" /><path clip-path="url(#clip860)" d="M1696 1544.91 L1703.63 1544.91 L1703.63 1518.55 L1695.32 1520.21 L1695.32 1515.95 L1703.59 1514.29 L1708.26 1514.29 L1708.26 1544.91 L1715.9 1544.91 L1715.9 1548.85 L1696 1548.85 L1696 1544.91 Z" fill="#000000" fill-rule="nonzero" fill-opacity="1" /><path clip-path="url(#clip860)" d="M2140.91 1544.91 L2157.23 1544.91 L2157.23 1548.85 L2135.29 1548.85 L2135.29 1544.91 Q2137.95 1542.16 2142.53 1537.53 Q2147.14 1532.88 2148.32 1531.53 Q2150.56 1529.01 2151.44 1527.27 Q2152.35 1525.51 2152.35 1523.82 Q2152.35 1521.07 2150.4 1519.33 Q2148.48 1517.6 2145.38 1517.6 Q2143.18 1517.6 2140.73 1518.36 Q2138.3 1519.13 2135.52 1520.68 L2135.52 1515.95 Q2138.34 1514.82 2140.8 1514.24 Q2143.25 1513.66 2145.29 1513.66 Q2150.66 1513.66 2153.85 1516.35 Q2157.04 1519.03 2157.04 1523.52 Q2157.04 1525.65 2156.23 1527.57 Q2155.45 1529.47 2153.34 1532.07 Q2152.76 1532.74 2149.66 1535.95 Q2146.56 1539.15 2140.91 1544.91 Z" fill="#000000" fill-rule="nonzero" fill-opacity="1" /><polyline clip-path="url(#clip860)" style="stroke:#000000; stroke-linecap:round; stroke-linejoin:round; stroke-width:4; stroke-opacity:1; fill:none" points="147.478,1486.45 147.478,47.2441 "/>
<polyline clip-path="url(#clip860)" style="stroke:#000000; stroke-linecap:round; stroke-linejoin:round; stroke-width:4; stroke-opacity:1; fill:none" points="147.478,1410.01 166.376,1410.01 "/>
<polyline clip-path="url(#clip860)" style="stroke:#000000; stroke-linecap:round; stroke-linejoin:round; stroke-width:4; stroke-opacity:1; fill:none" points="147.478,1019.97 166.376,1019.97 "/>
<polyline clip-path="url(#clip860)" style="stroke:#000000; stroke-linecap:round; stroke-linejoin:round; stroke-width:4; stroke-opacity:1; fill:none" points="147.478,629.939 166.376,629.939 "/>
<polyline clip-path="url(#clip860)" style="stroke:#000000; stroke-linecap:round; stroke-linejoin:round; stroke-width:4; stroke-opacity:1; fill:none" points="147.478,239.905 166.376,239.905 "/>
<path clip-path="url(#clip860)" d="M51.3625 1410.46 L81.0383 1410.46 L81.0383 1414.4 L51.3625 1414.4 L51.3625 1410.46 Z" fill="#000000" fill-rule="nonzero" fill-opacity="1" /><path clip-path="url(#clip860)" d="M95.1586 1423.35 L111.478 1423.35 L111.478 1427.29 L89.5336 1427.29 L89.5336 1423.35 Q92.1956 1420.6 96.7789 1415.97 Q101.385 1411.32 102.566 1409.97 Q104.811 1407.45 105.691 1405.72 Q106.594 1403.96 106.594 1402.27 Q106.594 1399.51 104.649 1397.78 Q102.728 1396.04 99.6261 1396.04 Q97.4271 1396.04 94.9734 1396.8 Q92.5428 1397.57 89.7651 1399.12 L89.7651 1394.4 Q92.5891 1393.26 95.0428 1392.68 Q97.4965 1392.1 99.5335 1392.1 Q104.904 1392.1 108.098 1394.79 Q111.293 1397.47 111.293 1401.97 Q111.293 1404.09 110.483 1406.02 Q109.696 1407.91 107.589 1410.51 Q107.01 1411.18 103.909 1414.4 Q100.807 1417.59 95.1586 1423.35 Z" fill="#000000" fill-rule="nonzero" fill-opacity="1" /><path clip-path="url(#clip860)" d="M50.9921 1020.43 L80.6679 1020.43 L80.6679 1024.36 L50.9921 1024.36 L50.9921 1020.43 Z" fill="#000000" fill-rule="nonzero" fill-opacity="1" /><path clip-path="url(#clip860)" d="M91.5706 1033.32 L99.2095 1033.32 L99.2095 1006.95 L90.8993 1008.62 L90.8993 1004.36 L99.1632 1002.69 L103.839 1002.69 L103.839 1033.32 L111.478 1033.32 L111.478 1037.25 L91.5706 1037.25 L91.5706 1033.32 Z" fill="#000000" fill-rule="nonzero" fill-opacity="1" /><path clip-path="url(#clip860)" d="M99.5335 615.738 Q95.9224 615.738 94.0937 619.303 Q92.2882 622.845 92.2882 629.974 Q92.2882 637.081 94.0937 640.645 Q95.9224 644.187 99.5335 644.187 Q103.168 644.187 104.973 640.645 Q106.802 637.081 106.802 629.974 Q106.802 622.845 104.973 619.303 Q103.168 615.738 99.5335 615.738 M99.5335 612.034 Q105.344 612.034 108.399 616.641 Q111.478 621.224 111.478 629.974 Q111.478 638.701 108.399 643.307 Q105.344 647.891 99.5335 647.891 Q93.7234 647.891 90.6447 643.307 Q87.5892 638.701 87.5892 629.974 Q87.5892 621.224 90.6447 616.641 Q93.7234 612.034 99.5335 612.034 Z" fill="#000000" fill-rule="nonzero" fill-opacity="1" /><path clip-path="url(#clip860)" d="M91.5706 253.249 L99.2095 253.249 L99.2095 226.884 L90.8993 228.55 L90.8993 224.291 L99.1632 222.625 L103.839 222.625 L103.839 253.249 L111.478 253.249 L111.478 257.185 L91.5706 257.185 L91.5706 253.249 Z" fill="#000000" fill-rule="nonzero" fill-opacity="1" /><circle clip-path="url(#clip862)" cx="2043.37" cy="1372.04" r="14.4" fill="#009af9" fill-rule="evenodd" fill-opacity="0.5" stroke="#000000" stroke-opacity="0.5" stroke-width="3.2"/>
<circle clip-path="url(#clip862)" cx="1292.44" cy="757.709" r="14.4" fill="#009af9" fill-rule="evenodd" fill-opacity="0.5" stroke="#000000" stroke-opacity="0.5" stroke-width="3.2"/>
<circle clip-path="url(#clip862)" cx="1625.95" cy="668.006" r="14.4" fill="#009af9" fill-rule="evenodd" fill-opacity="0.5" stroke="#000000" stroke-opacity="0.5" stroke-width="3.2"/>
<circle clip-path="url(#clip862)" cx="1999.01" cy="791.656" r="14.4" fill="#009af9" fill-rule="evenodd" fill-opacity="0.5" stroke="#000000" stroke-opacity="0.5" stroke-width="3.2"/>
<circle clip-path="url(#clip862)" cx="1586.63" cy="1082.82" r="14.4" fill="#009af9" fill-rule="evenodd" fill-opacity="0.5" stroke="#000000" stroke-opacity="0.5" stroke-width="3.2"/>
<circle clip-path="url(#clip862)" cx="1388.99" cy="916.348" r="14.4" fill="#009af9" fill-rule="evenodd" fill-opacity="0.5" stroke="#000000" stroke-opacity="0.5" stroke-width="3.2"/>
<circle clip-path="url(#clip862)" cx="567.717" cy="546.373" r="14.4" fill="#009af9" fill-rule="evenodd" fill-opacity="0.5" stroke="#000000" stroke-opacity="0.5" stroke-width="3.2"/>
<circle clip-path="url(#clip862)" cx="899.472" cy="1445.72" r="14.4" fill="#009af9" fill-rule="evenodd" fill-opacity="0.5" stroke="#000000" stroke-opacity="0.5" stroke-width="3.2"/>
<circle clip-path="url(#clip862)" cx="790.198" cy="104.933" r="14.4" fill="#009af9" fill-rule="evenodd" fill-opacity="0.5" stroke="#000000" stroke-opacity="0.5" stroke-width="3.2"/>
<circle clip-path="url(#clip862)" cx="1398.1" cy="929.372" r="14.4" fill="#009af9" fill-rule="evenodd" fill-opacity="0.5" stroke="#000000" stroke-opacity="0.5" stroke-width="3.2"/>
<circle clip-path="url(#clip862)" cx="1574.63" cy="372.89" r="14.4" fill="#009af9" fill-rule="evenodd" fill-opacity="0.5" stroke="#000000" stroke-opacity="0.5" stroke-width="3.2"/>
<circle clip-path="url(#clip862)" cx="741.805" cy="498.669" r="14.4" fill="#009af9" fill-rule="evenodd" fill-opacity="0.5" stroke="#000000" stroke-opacity="0.5" stroke-width="3.2"/>
<circle clip-path="url(#clip862)" cx="1387.01" cy="113.723" r="14.4" fill="#009af9" fill-rule="evenodd" fill-opacity="0.5" stroke="#000000" stroke-opacity="0.5" stroke-width="3.2"/>
<circle clip-path="url(#clip862)" cx="1363.83" cy="468.701" r="14.4" fill="#009af9" fill-rule="evenodd" fill-opacity="0.5" stroke="#000000" stroke-opacity="0.5" stroke-width="3.2"/>
<circle clip-path="url(#clip862)" cx="731.173" cy="391.784" r="14.4" fill="#009af9" fill-rule="evenodd" fill-opacity="0.5" stroke="#000000" stroke-opacity="0.5" stroke-width="3.2"/>
<circle clip-path="url(#clip862)" cx="923.558" cy="403.186" r="14.4" fill="#009af9" fill-rule="evenodd" fill-opacity="0.5" stroke="#000000" stroke-opacity="0.5" stroke-width="3.2"/>
<circle clip-path="url(#clip862)" cx="209.891" cy="1147" r="14.4" fill="#009af9" fill-rule="evenodd" fill-opacity="0.5" stroke="#000000" stroke-opacity="0.5" stroke-width="3.2"/>
<circle clip-path="url(#clip862)" cx="1654.56" cy="574.151" r="14.4" fill="#009af9" fill-rule="evenodd" fill-opacity="0.5" stroke="#000000" stroke-opacity="0.5" stroke-width="3.2"/>
<circle clip-path="url(#clip862)" cx="1198.32" cy="987.82" r="14.4" fill="#009af9" fill-rule="evenodd" fill-opacity="0.5" stroke="#000000" stroke-opacity="0.5" stroke-width="3.2"/>
<circle clip-path="url(#clip862)" cx="1129.12" cy="504.794" r="14.4" fill="#009af9" fill-rule="evenodd" fill-opacity="0.5" stroke="#000000" stroke-opacity="0.5" stroke-width="3.2"/>
<circle clip-path="url(#clip862)" cx="2290.34" cy="191.309" r="14.4" fill="#009af9" fill-rule="evenodd" fill-opacity="0.5" stroke="#000000" stroke-opacity="0.5" stroke-width="3.2"/>
<circle clip-path="url(#clip862)" cx="1089.3" cy="946.908" r="14.4" fill="#009af9" fill-rule="evenodd" fill-opacity="0.5" stroke="#000000" stroke-opacity="0.5" stroke-width="3.2"/>
<circle clip-path="url(#clip862)" cx="1681.48" cy="254.255" r="14.4" fill="#009af9" fill-rule="evenodd" fill-opacity="0.5" stroke="#000000" stroke-opacity="0.5" stroke-width="3.2"/>
<circle clip-path="url(#clip862)" cx="1627.74" cy="163.39" r="14.4" fill="#009af9" fill-rule="evenodd" fill-opacity="0.5" stroke="#000000" stroke-opacity="0.5" stroke-width="3.2"/>
<circle clip-path="url(#clip862)" cx="1645.69" cy="756.233" r="14.4" fill="#009af9" fill-rule="evenodd" fill-opacity="0.5" stroke="#000000" stroke-opacity="0.5" stroke-width="3.2"/>
<circle clip-path="url(#clip862)" cx="1637.84" cy="609.294" r="14.4" fill="#009af9" fill-rule="evenodd" fill-opacity="0.5" stroke="#000000" stroke-opacity="0.5" stroke-width="3.2"/>
<circle clip-path="url(#clip862)" cx="1673.76" cy="650.09" r="14.4" fill="#009af9" fill-rule="evenodd" fill-opacity="0.5" stroke="#000000" stroke-opacity="0.5" stroke-width="3.2"/>
<circle clip-path="url(#clip862)" cx="1571.62" cy="938.848" r="14.4" fill="#009af9" fill-rule="evenodd" fill-opacity="0.5" stroke="#000000" stroke-opacity="0.5" stroke-width="3.2"/>
<circle clip-path="url(#clip862)" cx="903.343" cy="838.487" r="14.4" fill="#009af9" fill-rule="evenodd" fill-opacity="0.5" stroke="#000000" stroke-opacity="0.5" stroke-width="3.2"/>
<circle clip-path="url(#clip862)" cx="1779.95" cy="87.9763" r="14.4" fill="#009af9" fill-rule="evenodd" fill-opacity="0.5" stroke="#000000" stroke-opacity="0.5" stroke-width="3.2"/>
<path clip-path="url(#clip862)" d="M209.891 1147 L899.472 1445.72 L2043.37 1372.04 L2290.34 191.309 L1779.95 87.9763 L790.198 104.933 L209.891 1147 L209.891 1147  Z" fill="#e26f46" fill-rule="evenodd" fill-opacity="0.2"/>
<polyline clip-path="url(#clip862)" style="stroke:#000000; stroke-linecap:round; stroke-linejoin:round; stroke-width:4; stroke-opacity:0.2; fill:none" points="209.891,1147 899.472,1445.72 2043.37,1372.04 2290.34,191.309 1779.95,87.9763 790.198,104.933 209.891,1147 "/>
</svg>
