<?xml version="1.0" encoding="utf-8"?>
<svg xmlns="http://www.w3.org/2000/svg" xmlns:xlink="http://www.w3.org/1999/xlink" width="600" height="400" viewBox="0 0 2400 1600">
<defs>
  <clipPath id="clip430">
    <rect x="0" y="0" width="2400" height="1600"/>
  </clipPath>
</defs>
<path clip-path="url(#clip430)" d="M0 1600 L2400 1600 L2400 0 L0 0  Z" fill="#ffffff" fill-rule="evenodd" fill-opacity="1"/>
<defs>
  <clipPath id="clip431">
    <rect x="480" y="0" width="1681" height="1600"/>
  </clipPath>
</defs>
<path clip-path="url(#clip430)" d="M147.478 1486.45 L2352.76 1486.45 L2352.76 47.2441 L147.478 47.2441  Z" fill="#ffffff" fill-rule="evenodd" fill-opacity="1"/>
<defs>
  <clipPath id="clip432">
    <rect x="147" y="47" width="2206" height="1440"/>
  </clipPath>
</defs>
<polyline clip-path="url(#clip432)" style="stroke:#000000; stroke-linecap:round; stroke-linejoin:round; stroke-width:2; stroke-opacity:0.1; fill:none" points="226.478,1486.45 226.478,47.2441 "/>
<polyline clip-path="url(#clip432)" style="stroke:#000000; stroke-linecap:round; stroke-linejoin:round; stroke-width:2; stroke-opacity:0.1; fill:none" points="788.089,1486.45 788.089,47.2441 "/>
<polyline clip-path="url(#clip432)" style="stroke:#000000; stroke-linecap:round; stroke-linejoin:round; stroke-width:2; stroke-opacity:0.1; fill:none" points="1349.7,1486.45 1349.7,47.2441 "/>
<polyline clip-path="url(#clip432)" style="stroke:#000000; stroke-linecap:round; stroke-linejoin:round; stroke-width:2; stroke-opacity:0.1; fill:none" points="1911.31,1486.45 1911.31,47.2441 "/>
<polyline clip-path="url(#clip432)" style="stroke:#000000; stroke-linecap:round; stroke-linejoin:round; stroke-width:2; stroke-opacity:0.1; fill:none" points="147.478,1424.19 2352.76,1424.19 "/>
<polyline clip-path="url(#clip432)" style="stroke:#000000; stroke-linecap:round; stroke-linejoin:round; stroke-width:2; stroke-opacity:0.1; fill:none" points="147.478,1056.1 2352.76,1056.1 "/>
<polyline clip-path="url(#clip432)" style="stroke:#000000; stroke-linecap:round; stroke-linejoin:round; stroke-width:2; stroke-opacity:0.1; fill:none" points="147.478,688.007 2352.76,688.007 "/>
<polyline clip-path="url(#clip432)" style="stroke:#000000; stroke-linecap:round; stroke-linejoin:round; stroke-width:2; stroke-opacity:0.1; fill:none" points="147.478,319.917 2352.76,319.917 "/>
<polyline clip-path="url(#clip430)" style="stroke:#000000; stroke-linecap:round; stroke-linejoin:round; stroke-width:4; stroke-opacity:1; fill:none" points="147.478,1486.45 2352.76,1486.45 "/>
<polyline clip-path="url(#clip430)" style="stroke:#000000; stroke-linecap:round; stroke-linejoin:round; stroke-width:4; stroke-opacity:1; fill:none" points="226.478,1486.45 226.478,1467.55 "/>
<polyline clip-path="url(#clip430)" style="stroke:#000000; stroke-linecap:round; stroke-linejoin:round; stroke-width:4; stroke-opacity:1; fill:none" points="788.089,1486.45 788.089,1467.55 "/>
<polyline clip-path="url(#clip430)" style="stroke:#000000; stroke-linecap:round; stroke-linejoin:round; stroke-width:4; stroke-opacity:1; fill:none" points="1349.7,1486.45 1349.7,1467.55 "/>
<polyline clip-path="url(#clip430)" style="stroke:#000000; stroke-linecap:round; stroke-linejoin:round; stroke-width:4; stroke-opacity:1; fill:none" points="1911.31,1486.45 1911.31,1467.55 "/>
<path clip-path="url(#clip430)" d="M196.421 1532.02 L226.096 1532.02 L226.096 1535.95 L196.421 1535.95 L196.421 1532.02 Z" fill="#000000" fill-rule="nonzero" fill-opacity="1" /><path clip-path="url(#clip430)" d="M240.217 1544.91 L256.536 1544.91 L256.536 1548.85 L234.592 1548.85 L234.592 1544.91 Q237.254 1542.16 241.837 1537.53 Q246.443 1532.88 247.624 1531.53 Q249.869 1529.01 250.749 1527.27 Q251.652 1525.51 251.652 1523.82 Q251.652 1521.07 249.707 1519.33 Q247.786 1517.6 244.684 1517.6 Q242.485 1517.6 240.031 1518.36 Q237.601 1519.13 234.823 1520.68 L234.823 1515.95 Q237.647 1514.82 240.101 1514.24 Q242.555 1513.66 244.592 1513.66 Q249.962 1513.66 253.156 1516.35 Q256.351 1519.03 256.351 1523.52 Q256.351 1525.65 255.541 1527.57 Q254.754 1529.47 252.647 1532.07 Q252.068 1532.74 248.967 1535.95 Q245.865 1539.15 240.217 1544.91 Z" fill="#000000" fill-rule="nonzero" fill-opacity="1" /><path clip-path="url(#clip430)" d="M757.846 1532.02 L787.522 1532.02 L787.522 1535.95 L757.846 1535.95 L757.846 1532.02 Z" fill="#000000" fill-rule="nonzero" fill-opacity="1" /><path clip-path="url(#clip430)" d="M798.424 1544.91 L806.063 1544.91 L806.063 1518.55 L797.753 1520.21 L797.753 1515.95 L806.017 1514.29 L810.693 1514.29 L810.693 1544.91 L818.332 1544.91 L818.332 1548.85 L798.424 1548.85 L798.424 1544.91 Z" fill="#000000" fill-rule="nonzero" fill-opacity="1" /><path clip-path="url(#clip430)" d="M1349.7 1517.37 Q1346.09 1517.37 1344.26 1520.93 Q1342.45 1524.47 1342.45 1531.6 Q1342.45 1538.71 1344.26 1542.27 Q1346.09 1545.82 1349.7 1545.82 Q1353.33 1545.82 1355.14 1542.27 Q1356.97 1538.71 1356.97 1531.6 Q1356.97 1524.47 1355.14 1520.93 Q1353.33 1517.37 1349.7 1517.37 M1349.7 1513.66 Q1355.51 1513.66 1358.57 1518.27 Q1361.64 1522.85 1361.64 1531.6 Q1361.64 1540.33 1358.57 1544.94 Q1355.51 1549.52 1349.7 1549.52 Q1343.89 1549.52 1340.81 1544.94 Q1337.76 1540.33 1337.76 1531.6 Q1337.76 1522.85 1340.81 1518.27 Q1343.89 1513.66 1349.7 1513.66 Z" fill="#000000" fill-rule="nonzero" fill-opacity="1" /><path clip-path="url(#clip430)" d="M1901.69 1544.91 L1909.33 1544.91 L1909.33 1518.55 L1901.02 1520.21 L1901.02 1515.95 L1909.28 1514.29 L1913.96 1514.29 L1913.96 1544.91 L1921.6 1544.91 L1921.6 1548.85 L1901.69 1548.85 L1901.69 1544.91 Z" fill="#000000" fill-rule="nonzero" fill-opacity="1" /><polyline clip-path="url(#clip430)" style="stroke:#000000; stroke-linecap:round; stroke-linejoin:round; stroke-width:4; stroke-opacity:1; fill:none" points="147.478,1486.45 147.478,47.2441 "/>
<polyline clip-path="url(#clip430)" style="stroke:#000000; stroke-linecap:round; stroke-linejoin:round; stroke-width:4; stroke-opacity:1; fill:none" points="147.478,1424.19 166.376,1424.19 "/>
<polyline clip-path="url(#clip430)" style="stroke:#000000; stroke-linecap:round; stroke-linejoin:round; stroke-width:4; stroke-opacity:1; fill:none" points="147.478,1056.1 166.376,1056.1 "/>
<polyline clip-path="url(#clip430)" style="stroke:#000000; stroke-linecap:round; stroke-linejoin:round; stroke-width:4; stroke-opacity:1; fill:none" points="147.478,688.007 166.376,688.007 "/>
<polyline clip-path="url(#clip430)" style="stroke:#000000; stroke-linecap:round; stroke-linejoin:round; stroke-width:4; stroke-opacity:1; fill:none" points="147.478,319.917 166.376,319.917 "/>
<path clip-path="url(#clip430)" d="M51.3625 1424.64 L81.0383 1424.64 L81.0383 1428.58 L51.3625 1428.58 L51.3625 1424.64 Z" fill="#000000" fill-rule="nonzero" fill-opacity="1" /><path clip-path="url(#clip430)" d="M95.1586 1437.53 L111.478 1437.53 L111.478 1441.47 L89.5336 1441.47 L89.5336 1437.53 Q92.1956 1434.78 96.7789 1430.15 Q101.385 1425.5 102.566 1424.15 Q104.811 1421.63 105.691 1419.89 Q106.594 1418.14 106.594 1416.45 Q106.594 1413.69 104.649 1411.95 Q102.728 1410.22 99.6261 1410.22 Q97.4271 1410.22 94.9734 1410.98 Q92.5428 1411.75 89.7651 1413.3 L89.7651 1408.58 Q92.5891 1407.44 95.0428 1406.86 Q97.4965 1406.28 99.5335 1406.28 Q104.904 1406.28 108.098 1408.97 Q111.293 1411.65 111.293 1416.14 Q111.293 1418.27 110.483 1420.2 Q109.696 1422.09 107.589 1424.69 Q107.01 1425.36 103.909 1428.58 Q100.807 1431.77 95.1586 1437.53 Z" fill="#000000" fill-rule="nonzero" fill-opacity="1" /><path clip-path="url(#clip430)" d="M50.9921 1056.55 L80.6679 1056.55 L80.6679 1060.48 L50.9921 1060.48 L50.9921 1056.55 Z" fill="#000000" fill-rule="nonzero" fill-opacity="1" /><path clip-path="url(#clip430)" d="M91.5706 1069.44 L99.2095 1069.44 L99.2095 1043.08 L90.8993 1044.74 L90.8993 1040.48 L99.1632 1038.82 L103.839 1038.82 L103.839 1069.44 L111.478 1069.44 L111.478 1073.38 L91.5706 1073.38 L91.5706 1069.44 Z" fill="#000000" fill-rule="nonzero" fill-opacity="1" /><path clip-path="url(#clip430)" d="M99.5335 673.806 Q95.9224 673.806 94.0937 677.371 Q92.2882 680.913 92.2882 688.042 Q92.2882 695.149 94.0937 698.713 Q95.9224 702.255 99.5335 702.255 Q103.168 702.255 104.973 698.713 Q106.802 695.149 106.802 688.042 Q106.802 680.913 104.973 677.371 Q103.168 673.806 99.5335 673.806 M99.5335 670.102 Q105.344 670.102 108.399 674.709 Q111.478 679.292 111.478 688.042 Q111.478 696.769 108.399 701.375 Q105.344 705.959 99.5335 705.959 Q93.7234 705.959 90.6447 701.375 Q87.5892 696.769 87.5892 688.042 Q87.5892 679.292 90.6447 674.709 Q93.7234 670.102 99.5335 670.102 Z" fill="#000000" fill-rule="nonzero" fill-opacity="1" /><path clip-path="url(#clip430)" d="M91.5706 333.262 L99.2095 333.262 L99.2095 306.896 L90.8993 308.563 L90.8993 304.304 L99.1632 302.637 L103.839 302.637 L103.839 333.262 L111.478 333.262 L111.478 337.197 L91.5706 337.197 L91.5706 333.262 Z" fill="#000000" fill-rule="nonzero" fill-opacity="1" /><circle clip-path="url(#clip432)" cx="2030.07" cy="214.948" r="14.4" fill="#009af9" fill-rule="evenodd" fill-opacity="0.5" stroke="#000000" stroke-opacity="0.5" stroke-width="3.2"/>
<circle clip-path="url(#clip432)" cx="2180.56" cy="1162.54" r="14.4" fill="#009af9" fill-rule="evenodd" fill-opacity="0.5" stroke="#000000" stroke-opacity="0.5" stroke-width="3.2"/>
<circle clip-path="url(#clip432)" cx="232.751" cy="1287.04" r="14.4" fill="#009af9" fill-rule="evenodd" fill-opacity="0.5" stroke="#000000" stroke-opacity="0.5" stroke-width="3.2"/>
<circle clip-path="url(#clip432)" cx="1326.5" cy="1200.37" r="14.4" fill="#009af9" fill-rule="evenodd" fill-opacity="0.5" stroke="#000000" stroke-opacity="0.5" stroke-width="3.2"/>
<circle clip-path="url(#clip432)" cx="1274.65" cy="365.013" r="14.4" fill="#009af9" fill-rule="evenodd" fill-opacity="0.5" stroke="#000000" stroke-opacity="0.5" stroke-width="3.2"/>
<circle clip-path="url(#clip432)" cx="2171.46" cy="391.344" r="14.4" fill="#009af9" fill-rule="evenodd" fill-opacity="0.5" stroke="#000000" stroke-opacity="0.5" stroke-width="3.2"/>
<circle clip-path="url(#clip432)" cx="1324.88" cy="339.418" r="14.4" fill="#009af9" fill-rule="evenodd" fill-opacity="0.5" stroke="#000000" stroke-opacity="0.5" stroke-width="3.2"/>
<circle clip-path="url(#clip432)" cx="885.172" cy="375.909" r="14.4" fill="#009af9" fill-rule="evenodd" fill-opacity="0.5" stroke="#000000" stroke-opacity="0.5" stroke-width="3.2"/>
<circle clip-path="url(#clip432)" cx="2290.34" cy="1245.59" r="14.4" fill="#009af9" fill-rule="evenodd" fill-opacity="0.5" stroke="#000000" stroke-opacity="0.5" stroke-width="3.2"/>
<circle clip-path="url(#clip432)" cx="1231.65" cy="1259.62" r="14.4" fill="#009af9" fill-rule="evenodd" fill-opacity="0.5" stroke="#000000" stroke-opacity="0.5" stroke-width="3.2"/>
<circle clip-path="url(#clip432)" cx="209.891" cy="501.028" r="14.4" fill="#009af9" fill-rule="evenodd" fill-opacity="0.5" stroke="#000000" stroke-opacity="0.5" stroke-width="3.2"/>
<circle clip-path="url(#clip432)" cx="2030.67" cy="1256.31" r="14.4" fill="#009af9" fill-rule="evenodd" fill-opacity="0.5" stroke="#000000" stroke-opacity="0.5" stroke-width="3.2"/>
<circle clip-path="url(#clip432)" cx="975.007" cy="887.285" r="14.4" fill="#009af9" fill-rule="evenodd" fill-opacity="0.5" stroke="#000000" stroke-opacity="0.5" stroke-width="3.2"/>
<circle clip-path="url(#clip432)" cx="1035.68" cy="873.967" r="14.4" fill="#009af9" fill-rule="evenodd" fill-opacity="0.5" stroke="#000000" stroke-opacity="0.5" stroke-width="3.2"/>
<circle clip-path="url(#clip432)" cx="2228.72" cy="232.932" r="14.4" fill="#009af9" fill-rule="evenodd" fill-opacity="0.5" stroke="#000000" stroke-opacity="0.5" stroke-width="3.2"/>
<circle clip-path="url(#clip432)" cx="1117.65" cy="1213.9" r="14.4" fill="#009af9" fill-rule="evenodd" fill-opacity="0.5" stroke="#000000" stroke-opacity="0.5" stroke-width="3.2"/>
<circle clip-path="url(#clip432)" cx="1888.4" cy="423.826" r="14.4" fill="#009af9" fill-rule="evenodd" fill-opacity="0.5" stroke="#000000" stroke-opacity="0.5" stroke-width="3.2"/>
<circle clip-path="url(#clip432)" cx="1588.79" cy="630.266" r="14.4" fill="#009af9" fill-rule="evenodd" fill-opacity="0.5" stroke="#000000" stroke-opacity="0.5" stroke-width="3.2"/>
<circle clip-path="url(#clip432)" cx="1275.48" cy="968.054" r="14.4" fill="#009af9" fill-rule="evenodd" fill-opacity="0.5" stroke="#000000" stroke-opacity="0.5" stroke-width="3.2"/>
<circle clip-path="url(#clip432)" cx="1963.22" cy="852.412" r="14.4" fill="#009af9" fill-rule="evenodd" fill-opacity="0.5" stroke="#000000" stroke-opacity="0.5" stroke-width="3.2"/>
<circle clip-path="url(#clip432)" cx="1137.02" cy="934.651" r="14.4" fill="#009af9" fill-rule="evenodd" fill-opacity="0.5" stroke="#000000" stroke-opacity="0.5" stroke-width="3.2"/>
<circle clip-path="url(#clip432)" cx="727.781" cy="887.233" r="14.4" fill="#009af9" fill-rule="evenodd" fill-opacity="0.5" stroke="#000000" stroke-opacity="0.5" stroke-width="3.2"/>
<circle clip-path="url(#clip432)" cx="905.194" cy="707.786" r="14.4" fill="#009af9" fill-rule="evenodd" fill-opacity="0.5" stroke="#000000" stroke-opacity="0.5" stroke-width="3.2"/>
<circle clip-path="url(#clip432)" cx="1739.96" cy="561.322" r="14.4" fill="#009af9" fill-rule="evenodd" fill-opacity="0.5" stroke="#000000" stroke-opacity="0.5" stroke-width="3.2"/>
<circle clip-path="url(#clip432)" cx="1342.55" cy="87.9763" r="14.4" fill="#009af9" fill-rule="evenodd" fill-opacity="0.5" stroke="#000000" stroke-opacity="0.5" stroke-width="3.2"/>
<circle clip-path="url(#clip432)" cx="1730.09" cy="659.32" r="14.4" fill="#009af9" fill-rule="evenodd" fill-opacity="0.5" stroke="#000000" stroke-opacity="0.5" stroke-width="3.2"/>
<circle clip-path="url(#clip432)" cx="509.305" cy="1445.72" r="14.4" fill="#009af9" fill-rule="evenodd" fill-opacity="0.5" stroke="#000000" stroke-opacity="0.5" stroke-width="3.2"/>
<circle clip-path="url(#clip432)" cx="1717.82" cy="1439.56" r="14.4" fill="#009af9" fill-rule="evenodd" fill-opacity="0.5" stroke="#000000" stroke-opacity="0.5" stroke-width="3.2"/>
<circle clip-path="url(#clip432)" cx="782.836" cy="705.783" r="14.4" fill="#009af9" fill-rule="evenodd" fill-opacity="0.5" stroke="#000000" stroke-opacity="0.5" stroke-width="3.2"/>
<circle clip-path="url(#clip432)" cx="1834.23" cy="559.614" r="14.4" fill="#009af9" fill-rule="evenodd" fill-opacity="0.5" stroke="#000000" stroke-opacity="0.5" stroke-width="3.2"/>
<path clip-path="url(#clip432)" d="M209.891 501.028 L232.751 1287.04 L509.305 1445.72 L1717.82 1439.56 L2290.34 1245.59 L2228.72 232.932 L1342.55 87.9763 L209.891 501.028 L209.891 501.028  Z" fill="#e26f46" fill-rule="evenodd" fill-opacity="0.2"/>
<polyline clip-path="url(#clip432)" style="stroke:#000000; stroke-linecap:round; stroke-linejoin:round; stroke-width:4; stroke-opacity:0.2; fill:none" points="209.891,501.028 232.751,1287.04 509.305,1445.72 1717.82,1439.56 2290.34,1245.59 2228.72,232.932 1342.55,87.9763 209.891,501.028 "/>
</svg>
