<?xml version="1.0" encoding="utf-8"?>
<svg xmlns="http://www.w3.org/2000/svg" xmlns:xlink="http://www.w3.org/1999/xlink" width="600" height="400" viewBox="0 0 2400 1600">
<defs>
  <clipPath id="clip810">
    <rect x="0" y="0" width="2400" height="1600"/>
  </clipPath>
</defs>
<path clip-path="url(#clip810)" d="M0 1600 L2400 1600 L2400 0 L0 0  Z" fill="#ffffff" fill-rule="evenodd" fill-opacity="1"/>
<defs>
  <clipPath id="clip811">
    <rect x="480" y="0" width="1681" height="1600"/>
  </clipPath>
</defs>
<path clip-path="url(#clip810)" d="M147.478 1486.45 L2352.76 1486.45 L2352.76 47.2441 L147.478 47.2441  Z" fill="#ffffff" fill-rule="evenodd" fill-opacity="1"/>
<defs>
  <clipPath id="clip812">
    <rect x="147" y="47" width="2206" height="1440"/>
  </clipPath>
</defs>
<polyline clip-path="url(#clip812)" style="stroke:#000000; stroke-linecap:round; stroke-linejoin:round; stroke-width:2; stroke-opacity:0.1; fill:none" points="263.431,1486.45 263.431,47.2441 "/>
<polyline clip-path="url(#clip812)" style="stroke:#000000; stroke-linecap:round; stroke-linejoin:round; stroke-width:2; stroke-opacity:0.1; fill:none" points="836.701,1486.45 836.701,47.2441 "/>
<polyline clip-path="url(#clip812)" style="stroke:#000000; stroke-linecap:round; stroke-linejoin:round; stroke-width:2; stroke-opacity:0.1; fill:none" points="1409.97,1486.45 1409.97,47.2441 "/>
<polyline clip-path="url(#clip812)" style="stroke:#000000; stroke-linecap:round; stroke-linejoin:round; stroke-width:2; stroke-opacity:0.1; fill:none" points="1983.24,1486.45 1983.24,47.2441 "/>
<polyline clip-path="url(#clip810)" style="stroke:#000000; stroke-linecap:round; stroke-linejoin:round; stroke-width:4; stroke-opacity:1; fill:none" points="147.478,1486.45 2352.76,1486.45 "/>
<polyline clip-path="url(#clip810)" style="stroke:#000000; stroke-linecap:round; stroke-linejoin:round; stroke-width:4; stroke-opacity:1; fill:none" points="263.431,1486.45 263.431,1467.55 "/>
<polyline clip-path="url(#clip810)" style="stroke:#000000; stroke-linecap:round; stroke-linejoin:round; stroke-width:4; stroke-opacity:1; fill:none" points="836.701,1486.45 836.701,1467.55 "/>
<polyline clip-path="url(#clip810)" style="stroke:#000000; stroke-linecap:round; stroke-linejoin:round; stroke-width:4; stroke-opacity:1; fill:none" points="1409.97,1486.45 1409.97,1467.55 "/>
<polyline clip-path="url(#clip810)" style="stroke:#000000; stroke-linecap:round; stroke-linejoin:round; stroke-width:4; stroke-opacity:1; fill:none" points="1983.24,1486.45 1983.24,1467.55 "/>
<path clip-path="url(#clip810)" d="M233.374 1532.02 L263.049 1532.02 L263.049 1535.95 L233.374 1535.95 L233.374 1532.02 Z" fill="#000000" fill-rule="nonzero" fill-opacity="1" /><path clip-path="url(#clip810)" d="M277.17 1544.91 L293.489 1544.91 L293.489 1548.85 L271.545 1548.85 L271.545 1544.91 Q274.207 1542.16 278.79 1537.53 Q283.397 1532.88 284.577 1531.53 Q286.822 1529.01 287.702 1527.27 Q288.605 1525.51 288.605 1523.82 Q288.605 1521.07 286.66 1519.33 Q284.739 1517.6 281.637 1517.6 Q279.438 1517.6 276.985 1518.36 Q274.554 1519.13 271.776 1520.68 L271.776 1515.95 Q274.6 1514.82 277.054 1514.24 Q279.508 1513.66 281.545 1513.66 Q286.915 1513.66 290.109 1516.35 Q293.304 1519.03 293.304 1523.52 Q293.304 1525.65 292.494 1527.57 Q291.707 1529.47 289.6 1532.07 Q289.022 1532.74 285.92 1535.95 Q282.818 1539.15 277.17 1544.91 Z" fill="#000000" fill-rule="nonzero" fill-opacity="1" /><path clip-path="url(#clip810)" d="M806.458 1532.02 L836.134 1532.02 L836.134 1535.95 L806.458 1535.95 L806.458 1532.02 Z" fill="#000000" fill-rule="nonzero" fill-opacity="1" /><path clip-path="url(#clip810)" d="M847.037 1544.91 L854.675 1544.91 L854.675 1518.55 L846.365 1520.21 L846.365 1515.95 L854.629 1514.29 L859.305 1514.29 L859.305 1544.91 L866.944 1544.91 L866.944 1548.85 L847.037 1548.85 L847.037 1544.91 Z" fill="#000000" fill-rule="nonzero" fill-opacity="1" /><path clip-path="url(#clip810)" d="M1409.97 1517.37 Q1406.36 1517.37 1404.53 1520.93 Q1402.73 1524.47 1402.73 1531.6 Q1402.73 1538.71 1404.53 1542.27 Q1406.36 1545.82 1409.97 1545.82 Q1413.6 1545.82 1415.41 1542.27 Q1417.24 1538.71 1417.24 1531.6 Q1417.24 1524.47 1415.41 1520.93 Q1413.6 1517.37 1409.97 1517.37 M1409.97 1513.66 Q1415.78 1513.66 1418.84 1518.27 Q1421.92 1522.85 1421.92 1531.6 Q1421.92 1540.33 1418.84 1544.94 Q1415.78 1549.52 1409.97 1549.52 Q1404.16 1549.52 1401.08 1544.94 Q1398.03 1540.33 1398.03 1531.6 Q1398.03 1522.85 1401.08 1518.27 Q1404.16 1513.66 1409.97 1513.66 Z" fill="#000000" fill-rule="nonzero" fill-opacity="1" /><path clip-path="url(#clip810)" d="M1973.62 1544.91 L1981.26 1544.91 L1981.26 1518.55 L1972.95 1520.21 L1972.95 1515.95 L1981.21 1514.29 L1985.89 1514.29 L1985.89 1544.91 L1993.53 1544.91 L1993.53 1548.85 L1973.62 1548.85 L1973.62 1544.91 Z" fill="#000000" fill-rule="nonzero" fill-opacity="1" /><polyline clip-path="url(#clip812)" style="stroke:#000000; stroke-linecap:round; stroke-linejoin:round; stroke-width:2; stroke-opacity:0.1; fill:none" points="147.478,1478.87 2352.76,1478.87 "/>
<polyline clip-path="url(#clip812)" style="stroke:#000000; stroke-linecap:round; stroke-linejoin:round; stroke-width:2; stroke-opacity:0.1; fill:none" points="147.478,1207.61 2352.76,1207.61 "/>
<polyline clip-path="url(#clip812)" style="stroke:#000000; stroke-linecap:round; stroke-linejoin:round; stroke-width:2; stroke-opacity:0.1; fill:none" points="147.478,936.345 2352.76,936.345 "/>
<polyline clip-path="url(#clip812)" style="stroke:#000000; stroke-linecap:round; stroke-linejoin:round; stroke-width:2; stroke-opacity:0.1; fill:none" points="147.478,665.083 2352.76,665.083 "/>
<polyline clip-path="url(#clip812)" style="stroke:#000000; stroke-linecap:round; stroke-linejoin:round; stroke-width:2; stroke-opacity:0.1; fill:none" points="147.478,393.82 2352.76,393.82 "/>
<polyline clip-path="url(#clip812)" style="stroke:#000000; stroke-linecap:round; stroke-linejoin:round; stroke-width:2; stroke-opacity:0.1; fill:none" points="147.478,122.557 2352.76,122.557 "/>
<polyline clip-path="url(#clip810)" style="stroke:#000000; stroke-linecap:round; stroke-linejoin:round; stroke-width:4; stroke-opacity:1; fill:none" points="147.478,1486.45 147.478,47.2441 "/>
<polyline clip-path="url(#clip810)" style="stroke:#000000; stroke-linecap:round; stroke-linejoin:round; stroke-width:4; stroke-opacity:1; fill:none" points="147.478,1478.87 166.376,1478.87 "/>
<polyline clip-path="url(#clip810)" style="stroke:#000000; stroke-linecap:round; stroke-linejoin:round; stroke-width:4; stroke-opacity:1; fill:none" points="147.478,1207.61 166.376,1207.61 "/>
<polyline clip-path="url(#clip810)" style="stroke:#000000; stroke-linecap:round; stroke-linejoin:round; stroke-width:4; stroke-opacity:1; fill:none" points="147.478,936.345 166.376,936.345 "/>
<polyline clip-path="url(#clip810)" style="stroke:#000000; stroke-linecap:round; stroke-linejoin:round; stroke-width:4; stroke-opacity:1; fill:none" points="147.478,665.083 166.376,665.083 "/>
<polyline clip-path="url(#clip810)" style="stroke:#000000; stroke-linecap:round; stroke-linejoin:round; stroke-width:4; stroke-opacity:1; fill:none" points="147.478,393.82 166.376,393.82 "/>
<polyline clip-path="url(#clip810)" style="stroke:#000000; stroke-linecap:round; stroke-linejoin:round; stroke-width:4; stroke-opacity:1; fill:none" points="147.478,122.557 166.376,122.557 "/>
<path clip-path="url(#clip810)" d="M51.3625 1479.32 L81.0383 1479.32 L81.0383 1483.26 L51.3625 1483.26 L51.3625 1479.32 Z" fill="#000000" fill-rule="nonzero" fill-opacity="1" /><path clip-path="url(#clip810)" d="M95.1586 1492.22 L111.478 1492.22 L111.478 1496.15 L89.5336 1496.15 L89.5336 1492.22 Q92.1956 1489.46 96.7789 1484.83 Q101.385 1480.18 102.566 1478.84 Q104.811 1476.31 105.691 1474.58 Q106.594 1472.82 106.594 1471.13 Q106.594 1468.37 104.649 1466.64 Q102.728 1464.9 99.6261 1464.9 Q97.4271 1464.9 94.9734 1465.66 Q92.5428 1466.43 89.7651 1467.98 L89.7651 1463.26 Q92.5891 1462.12 95.0428 1461.54 Q97.4965 1460.97 99.5335 1460.97 Q104.904 1460.97 108.098 1463.65 Q111.293 1466.34 111.293 1470.83 Q111.293 1472.96 110.483 1474.88 Q109.696 1476.78 107.589 1479.37 Q107.01 1480.04 103.909 1483.26 Q100.807 1486.45 95.1586 1492.22 Z" fill="#000000" fill-rule="nonzero" fill-opacity="1" /><path clip-path="url(#clip810)" d="M50.9921 1208.06 L80.6679 1208.06 L80.6679 1211.99 L50.9921 1211.99 L50.9921 1208.06 Z" fill="#000000" fill-rule="nonzero" fill-opacity="1" /><path clip-path="url(#clip810)" d="M91.5706 1220.95 L99.2095 1220.95 L99.2095 1194.59 L90.8993 1196.25 L90.8993 1191.99 L99.1632 1190.33 L103.839 1190.33 L103.839 1220.95 L111.478 1220.95 L111.478 1224.89 L91.5706 1224.89 L91.5706 1220.95 Z" fill="#000000" fill-rule="nonzero" fill-opacity="1" /><path clip-path="url(#clip810)" d="M99.5335 922.144 Q95.9224 922.144 94.0937 925.709 Q92.2882 929.251 92.2882 936.38 Q92.2882 943.487 94.0937 947.051 Q95.9224 950.593 99.5335 950.593 Q103.168 950.593 104.973 947.051 Q106.802 943.487 106.802 936.38 Q106.802 929.251 104.973 925.709 Q103.168 922.144 99.5335 922.144 M99.5335 918.44 Q105.344 918.44 108.399 923.047 Q111.478 927.63 111.478 936.38 Q111.478 945.107 108.399 949.713 Q105.344 954.297 99.5335 954.297 Q93.7234 954.297 90.6447 949.713 Q87.5892 945.107 87.5892 936.38 Q87.5892 927.63 90.6447 923.047 Q93.7234 918.44 99.5335 918.44 Z" fill="#000000" fill-rule="nonzero" fill-opacity="1" /><path clip-path="url(#clip810)" d="M91.5706 678.427 L99.2095 678.427 L99.2095 652.062 L90.8993 653.729 L90.8993 649.469 L99.1632 647.803 L103.839 647.803 L103.839 678.427 L111.478 678.427 L111.478 682.363 L91.5706 682.363 L91.5706 678.427 Z" fill="#000000" fill-rule="nonzero" fill-opacity="1" /><path clip-path="url(#clip810)" d="M95.1586 407.165 L111.478 407.165 L111.478 411.1 L89.5336 411.1 L89.5336 407.165 Q92.1956 404.41 96.7789 399.78 Q101.385 395.128 102.566 393.785 Q104.811 391.262 105.691 389.526 Q106.594 387.767 106.594 386.077 Q106.594 383.322 104.649 381.586 Q102.728 379.85 99.6261 379.85 Q97.4271 379.85 94.9734 380.614 Q92.5428 381.378 89.7651 382.929 L89.7651 378.207 Q92.5891 377.072 95.0428 376.494 Q97.4965 375.915 99.5335 375.915 Q104.904 375.915 108.098 378.6 Q111.293 381.285 111.293 385.776 Q111.293 387.906 110.483 389.827 Q109.696 391.725 107.589 394.318 Q107.01 394.989 103.909 398.206 Q100.807 401.401 95.1586 407.165 Z" fill="#000000" fill-rule="nonzero" fill-opacity="1" /><path clip-path="url(#clip810)" d="M104.348 121.203 Q107.705 121.921 109.58 124.189 Q111.478 126.458 111.478 129.791 Q111.478 134.907 107.959 137.707 Q104.441 140.508 97.9595 140.508 Q95.7836 140.508 93.4688 140.069 Q91.1771 139.652 88.7234 138.795 L88.7234 134.282 Q90.6678 135.416 92.9826 135.995 Q95.2974 136.573 97.8206 136.573 Q102.219 136.573 104.51 134.837 Q106.825 133.101 106.825 129.791 Q106.825 126.735 104.672 125.022 Q102.543 123.286 98.7234 123.286 L94.6956 123.286 L94.6956 119.444 L98.9085 119.444 Q102.358 119.444 104.186 118.078 Q106.015 116.689 106.015 114.096 Q106.015 111.434 104.117 110.022 Q102.242 108.587 98.7234 108.587 Q96.8021 108.587 94.603 109.004 Q92.4039 109.421 89.7651 110.3 L89.7651 106.134 Q92.4271 105.393 94.7419 105.022 Q97.0798 104.652 99.14 104.652 Q104.464 104.652 107.566 107.083 Q110.668 109.49 110.668 113.61 Q110.668 116.481 109.024 118.471 Q107.381 120.439 104.348 121.203 Z" fill="#000000" fill-rule="nonzero" fill-opacity="1" /><circle clip-path="url(#clip812)" cx="1165.62" cy="425.887" r="14.4" fill="#009af9" fill-rule="evenodd" fill-opacity="0.5" stroke="#000000" stroke-opacity="0.5" stroke-width="3.2"/>
<circle clip-path="url(#clip812)" cx="938.811" cy="1177.98" r="14.4" fill="#009af9" fill-rule="evenodd" fill-opacity="0.5" stroke="#000000" stroke-opacity="0.5" stroke-width="3.2"/>
<circle clip-path="url(#clip812)" cx="1722.9" cy="981.96" r="14.4" fill="#009af9" fill-rule="evenodd" fill-opacity="0.5" stroke="#000000" stroke-opacity="0.5" stroke-width="3.2"/>
<circle clip-path="url(#clip812)" cx="1544.43" cy="763.675" r="14.4" fill="#009af9" fill-rule="evenodd" fill-opacity="0.5" stroke="#000000" stroke-opacity="0.5" stroke-width="3.2"/>
<circle clip-path="url(#clip812)" cx="1050.37" cy="1190.87" r="14.4" fill="#009af9" fill-rule="evenodd" fill-opacity="0.5" stroke="#000000" stroke-opacity="0.5" stroke-width="3.2"/>
<circle clip-path="url(#clip812)" cx="1600.23" cy="1303.17" r="14.4" fill="#009af9" fill-rule="evenodd" fill-opacity="0.5" stroke="#000000" stroke-opacity="0.5" stroke-width="3.2"/>
<circle clip-path="url(#clip812)" cx="1180.02" cy="829.328" r="14.4" fill="#009af9" fill-rule="evenodd" fill-opacity="0.5" stroke="#000000" stroke-opacity="0.5" stroke-width="3.2"/>
<circle clip-path="url(#clip812)" cx="1387.34" cy="1123.15" r="14.4" fill="#009af9" fill-rule="evenodd" fill-opacity="0.5" stroke="#000000" stroke-opacity="0.5" stroke-width="3.2"/>
<circle clip-path="url(#clip812)" cx="1468.61" cy="907.142" r="14.4" fill="#009af9" fill-rule="evenodd" fill-opacity="0.5" stroke="#000000" stroke-opacity="0.5" stroke-width="3.2"/>
<circle clip-path="url(#clip812)" cx="2066.88" cy="657.253" r="14.4" fill="#009af9" fill-rule="evenodd" fill-opacity="0.5" stroke="#000000" stroke-opacity="0.5" stroke-width="3.2"/>
<circle clip-path="url(#clip812)" cx="1114.57" cy="1004.49" r="14.4" fill="#009af9" fill-rule="evenodd" fill-opacity="0.5" stroke="#000000" stroke-opacity="0.5" stroke-width="3.2"/>
<circle clip-path="url(#clip812)" cx="1416.85" cy="920.399" r="14.4" fill="#009af9" fill-rule="evenodd" fill-opacity="0.5" stroke="#000000" stroke-opacity="0.5" stroke-width="3.2"/>
<circle clip-path="url(#clip812)" cx="1763.64" cy="1181.59" r="14.4" fill="#009af9" fill-rule="evenodd" fill-opacity="0.5" stroke="#000000" stroke-opacity="0.5" stroke-width="3.2"/>
<circle clip-path="url(#clip812)" cx="828.04" cy="1386.14" r="14.4" fill="#009af9" fill-rule="evenodd" fill-opacity="0.5" stroke="#000000" stroke-opacity="0.5" stroke-width="3.2"/>
<circle clip-path="url(#clip812)" cx="1082.84" cy="440.574" r="14.4" fill="#009af9" fill-rule="evenodd" fill-opacity="0.5" stroke="#000000" stroke-opacity="0.5" stroke-width="3.2"/>
<circle clip-path="url(#clip812)" cx="1825.28" cy="1055.55" r="14.4" fill="#009af9" fill-rule="evenodd" fill-opacity="0.5" stroke="#000000" stroke-opacity="0.5" stroke-width="3.2"/>
<circle clip-path="url(#clip812)" cx="1789.55" cy="1078.4" r="14.4" fill="#009af9" fill-rule="evenodd" fill-opacity="0.5" stroke="#000000" stroke-opacity="0.5" stroke-width="3.2"/>
<circle clip-path="url(#clip812)" cx="1541.54" cy="1070.17" r="14.4" fill="#009af9" fill-rule="evenodd" fill-opacity="0.5" stroke="#000000" stroke-opacity="0.5" stroke-width="3.2"/>
<circle clip-path="url(#clip812)" cx="2093.56" cy="700.96" r="14.4" fill="#009af9" fill-rule="evenodd" fill-opacity="0.5" stroke="#000000" stroke-opacity="0.5" stroke-width="3.2"/>
<circle clip-path="url(#clip812)" cx="1762.09" cy="87.9763" r="14.4" fill="#009af9" fill-rule="evenodd" fill-opacity="0.5" stroke="#000000" stroke-opacity="0.5" stroke-width="3.2"/>
<circle clip-path="url(#clip812)" cx="1987.33" cy="1445.72" r="14.4" fill="#009af9" fill-rule="evenodd" fill-opacity="0.5" stroke="#000000" stroke-opacity="0.5" stroke-width="3.2"/>
<circle clip-path="url(#clip812)" cx="209.891" cy="666.76" r="14.4" fill="#009af9" fill-rule="evenodd" fill-opacity="0.5" stroke="#000000" stroke-opacity="0.5" stroke-width="3.2"/>
<circle clip-path="url(#clip812)" cx="1953.05" cy="962.016" r="14.4" fill="#009af9" fill-rule="evenodd" fill-opacity="0.5" stroke="#000000" stroke-opacity="0.5" stroke-width="3.2"/>
<circle clip-path="url(#clip812)" cx="1880.31" cy="889.313" r="14.4" fill="#009af9" fill-rule="evenodd" fill-opacity="0.5" stroke="#000000" stroke-opacity="0.5" stroke-width="3.2"/>
<circle clip-path="url(#clip812)" cx="663.939" cy="770.789" r="14.4" fill="#009af9" fill-rule="evenodd" fill-opacity="0.5" stroke="#000000" stroke-opacity="0.5" stroke-width="3.2"/>
<circle clip-path="url(#clip812)" cx="1504.75" cy="1073.39" r="14.4" fill="#009af9" fill-rule="evenodd" fill-opacity="0.5" stroke="#000000" stroke-opacity="0.5" stroke-width="3.2"/>
<circle clip-path="url(#clip812)" cx="2062.61" cy="805.162" r="14.4" fill="#009af9" fill-rule="evenodd" fill-opacity="0.5" stroke="#000000" stroke-opacity="0.5" stroke-width="3.2"/>
<circle clip-path="url(#clip812)" cx="2290.34" cy="1263.31" r="14.4" fill="#009af9" fill-rule="evenodd" fill-opacity="0.5" stroke="#000000" stroke-opacity="0.5" stroke-width="3.2"/>
<circle clip-path="url(#clip812)" cx="884.307" cy="668.386" r="14.4" fill="#009af9" fill-rule="evenodd" fill-opacity="0.5" stroke="#000000" stroke-opacity="0.5" stroke-width="3.2"/>
<circle clip-path="url(#clip812)" cx="797.824" cy="925.771" r="14.4" fill="#009af9" fill-rule="evenodd" fill-opacity="0.5" stroke="#000000" stroke-opacity="0.5" stroke-width="3.2"/>
<path clip-path="url(#clip812)" d="M209.891 666.76 L828.04 1386.14 L1987.33 1445.72 L2290.34 1263.31 L2093.56 700.96 L1762.09 87.9763 L209.891 666.76 L209.891 666.76  Z" fill="#e26f46" fill-rule="evenodd" fill-opacity="0.2"/>
<polyline clip-path="url(#clip812)" style="stroke:#000000; stroke-linecap:round; stroke-linejoin:round; stroke-width:4; stroke-opacity:0.2; fill:none" points="209.891,666.76 828.04,1386.14 1987.33,1445.72 2290.34,1263.31 2093.56,700.96 1762.09,87.9763 209.891,666.76 "/>
</svg>
