<?xml version="1.0" encoding="utf-8"?>
<svg xmlns="http://www.w3.org/2000/svg" xmlns:xlink="http://www.w3.org/1999/xlink" width="600" height="400" viewBox="0 0 2400 1600">
<defs>
  <clipPath id="clip320">
    <rect x="0" y="0" width="2400" height="1600"/>
  </clipPath>
</defs>
<path clip-path="url(#clip320)" d="M0 1600 L2400 1600 L2400 0 L0 0  Z" fill="#ffffff" fill-rule="evenodd" fill-opacity="1"/>
<defs>
  <clipPath id="clip321">
    <rect x="480" y="0" width="1681" height="1600"/>
  </clipPath>
</defs>
<path clip-path="url(#clip320)" d="M147.478 1486.45 L2352.76 1486.45 L2352.76 47.2441 L147.478 47.2441  Z" fill="#ffffff" fill-rule="evenodd" fill-opacity="1"/>
<defs>
  <clipPath id="clip322">
    <rect x="147" y="47" width="2206" height="1440"/>
  </clipPath>
</defs>
<polyline clip-path="url(#clip322)" style="stroke:#000000; stroke-linecap:round; stroke-linejoin:round; stroke-width:2; stroke-opacity:0.1; fill:none" points="287.433,1486.45 287.433,47.2441 "/>
<polyline clip-path="url(#clip322)" style="stroke:#000000; stroke-linecap:round; stroke-linejoin:round; stroke-width:2; stroke-opacity:0.1; fill:none" points="774.284,1486.45 774.284,47.2441 "/>
<polyline clip-path="url(#clip322)" style="stroke:#000000; stroke-linecap:round; stroke-linejoin:round; stroke-width:2; stroke-opacity:0.1; fill:none" points="1261.14,1486.45 1261.14,47.2441 "/>
<polyline clip-path="url(#clip322)" style="stroke:#000000; stroke-linecap:round; stroke-linejoin:round; stroke-width:2; stroke-opacity:0.1; fill:none" points="1747.99,1486.45 1747.99,47.2441 "/>
<polyline clip-path="url(#clip322)" style="stroke:#000000; stroke-linecap:round; stroke-linejoin:round; stroke-width:2; stroke-opacity:0.1; fill:none" points="2234.84,1486.45 2234.84,47.2441 "/>
<polyline clip-path="url(#clip322)" style="stroke:#000000; stroke-linecap:round; stroke-linejoin:round; stroke-width:2; stroke-opacity:0.1; fill:none" points="147.478,1180.7 2352.76,1180.7 "/>
<polyline clip-path="url(#clip322)" style="stroke:#000000; stroke-linecap:round; stroke-linejoin:round; stroke-width:2; stroke-opacity:0.1; fill:none" points="147.478,860.361 2352.76,860.361 "/>
<polyline clip-path="url(#clip322)" style="stroke:#000000; stroke-linecap:round; stroke-linejoin:round; stroke-width:2; stroke-opacity:0.1; fill:none" points="147.478,540.024 2352.76,540.024 "/>
<polyline clip-path="url(#clip322)" style="stroke:#000000; stroke-linecap:round; stroke-linejoin:round; stroke-width:2; stroke-opacity:0.1; fill:none" points="147.478,219.687 2352.76,219.687 "/>
<polyline clip-path="url(#clip320)" style="stroke:#000000; stroke-linecap:round; stroke-linejoin:round; stroke-width:4; stroke-opacity:1; fill:none" points="147.478,1486.45 2352.76,1486.45 "/>
<polyline clip-path="url(#clip320)" style="stroke:#000000; stroke-linecap:round; stroke-linejoin:round; stroke-width:4; stroke-opacity:1; fill:none" points="287.433,1486.45 287.433,1467.55 "/>
<polyline clip-path="url(#clip320)" style="stroke:#000000; stroke-linecap:round; stroke-linejoin:round; stroke-width:4; stroke-opacity:1; fill:none" points="774.284,1486.45 774.284,1467.55 "/>
<polyline clip-path="url(#clip320)" style="stroke:#000000; stroke-linecap:round; stroke-linejoin:round; stroke-width:4; stroke-opacity:1; fill:none" points="1261.14,1486.45 1261.14,1467.55 "/>
<polyline clip-path="url(#clip320)" style="stroke:#000000; stroke-linecap:round; stroke-linejoin:round; stroke-width:4; stroke-opacity:1; fill:none" points="1747.99,1486.45 1747.99,1467.55 "/>
<polyline clip-path="url(#clip320)" style="stroke:#000000; stroke-linecap:round; stroke-linejoin:round; stroke-width:4; stroke-opacity:1; fill:none" points="2234.84,1486.45 2234.84,1467.55 "/>
<path clip-path="url(#clip320)" d="M257.375 1532.02 L287.051 1532.02 L287.051 1535.95 L257.375 1535.95 L257.375 1532.02 Z" fill="#000000" fill-rule="nonzero" fill-opacity="1" /><path clip-path="url(#clip320)" d="M301.171 1544.91 L317.49 1544.91 L317.49 1548.85 L295.546 1548.85 L295.546 1544.91 Q298.208 1542.16 302.791 1537.53 Q307.398 1532.88 308.578 1531.53 Q310.824 1529.01 311.703 1527.27 Q312.606 1525.51 312.606 1523.82 Q312.606 1521.07 310.662 1519.33 Q308.74 1517.6 305.639 1517.6 Q303.44 1517.6 300.986 1518.36 Q298.555 1519.13 295.778 1520.68 L295.778 1515.95 Q298.602 1514.82 301.055 1514.24 Q303.509 1513.66 305.546 1513.66 Q310.916 1513.66 314.111 1516.35 Q317.305 1519.03 317.305 1523.52 Q317.305 1525.65 316.495 1527.57 Q315.708 1529.47 313.602 1532.07 Q313.023 1532.74 309.921 1535.95 Q306.819 1539.15 301.171 1544.91 Z" fill="#000000" fill-rule="nonzero" fill-opacity="1" /><path clip-path="url(#clip320)" d="M744.041 1532.02 L773.717 1532.02 L773.717 1535.95 L744.041 1535.95 L744.041 1532.02 Z" fill="#000000" fill-rule="nonzero" fill-opacity="1" /><path clip-path="url(#clip320)" d="M784.62 1544.91 L792.259 1544.91 L792.259 1518.55 L783.948 1520.21 L783.948 1515.95 L792.212 1514.29 L796.888 1514.29 L796.888 1544.91 L804.527 1544.91 L804.527 1548.85 L784.62 1548.85 L784.62 1544.91 Z" fill="#000000" fill-rule="nonzero" fill-opacity="1" /><path clip-path="url(#clip320)" d="M1261.14 1517.37 Q1257.52 1517.37 1255.7 1520.93 Q1253.89 1524.47 1253.89 1531.6 Q1253.89 1538.71 1255.7 1542.27 Q1257.52 1545.82 1261.14 1545.82 Q1264.77 1545.82 1266.58 1542.27 Q1268.4 1538.71 1268.4 1531.6 Q1268.4 1524.47 1266.58 1520.93 Q1264.77 1517.37 1261.14 1517.37 M1261.14 1513.66 Q1266.95 1513.66 1270 1518.27 Q1273.08 1522.85 1273.08 1531.6 Q1273.08 1540.33 1270 1544.94 Q1266.95 1549.52 1261.14 1549.52 Q1255.33 1549.52 1252.25 1544.94 Q1249.19 1540.33 1249.19 1531.6 Q1249.19 1522.85 1252.25 1518.27 Q1255.33 1513.66 1261.14 1513.66 Z" fill="#000000" fill-rule="nonzero" fill-opacity="1" /><path clip-path="url(#clip320)" d="M1738.37 1544.91 L1746.01 1544.91 L1746.01 1518.55 L1737.7 1520.21 L1737.7 1515.95 L1745.96 1514.29 L1750.64 1514.29 L1750.64 1544.91 L1758.28 1544.91 L1758.28 1548.85 L1738.37 1548.85 L1738.37 1544.91 Z" fill="#000000" fill-rule="nonzero" fill-opacity="1" /><path clip-path="url(#clip320)" d="M2229.49 1544.91 L2245.81 1544.91 L2245.81 1548.85 L2223.87 1548.85 L2223.87 1544.91 Q2226.53 1542.16 2231.11 1537.53 Q2235.72 1532.88 2236.9 1531.53 Q2239.14 1529.01 2240.02 1527.27 Q2240.93 1525.51 2240.93 1523.82 Q2240.93 1521.07 2238.98 1519.33 Q2237.06 1517.6 2233.96 1517.6 Q2231.76 1517.6 2229.31 1518.36 Q2226.88 1519.13 2224.1 1520.68 L2224.1 1515.95 Q2226.92 1514.82 2229.38 1514.24 Q2231.83 1513.66 2233.87 1513.66 Q2239.24 1513.66 2242.43 1516.35 Q2245.63 1519.03 2245.63 1523.52 Q2245.63 1525.65 2244.82 1527.57 Q2244.03 1529.47 2241.92 1532.07 Q2241.34 1532.74 2238.24 1535.95 Q2235.14 1539.15 2229.49 1544.91 Z" fill="#000000" fill-rule="nonzero" fill-opacity="1" /><polyline clip-path="url(#clip320)" style="stroke:#000000; stroke-linecap:round; stroke-linejoin:round; stroke-width:4; stroke-opacity:1; fill:none" points="147.478,1486.45 147.478,47.2441 "/>
<polyline clip-path="url(#clip320)" style="stroke:#000000; stroke-linecap:round; stroke-linejoin:round; stroke-width:4; stroke-opacity:1; fill:none" points="147.478,1180.7 166.376,1180.7 "/>
<polyline clip-path="url(#clip320)" style="stroke:#000000; stroke-linecap:round; stroke-linejoin:round; stroke-width:4; stroke-opacity:1; fill:none" points="147.478,860.361 166.376,860.361 "/>
<polyline clip-path="url(#clip320)" style="stroke:#000000; stroke-linecap:round; stroke-linejoin:round; stroke-width:4; stroke-opacity:1; fill:none" points="147.478,540.024 166.376,540.024 "/>
<polyline clip-path="url(#clip320)" style="stroke:#000000; stroke-linecap:round; stroke-linejoin:round; stroke-width:4; stroke-opacity:1; fill:none" points="147.478,219.687 166.376,219.687 "/>
<path clip-path="url(#clip320)" d="M50.9921 1181.15 L80.6679 1181.15 L80.6679 1185.09 L50.9921 1185.09 L50.9921 1181.15 Z" fill="#000000" fill-rule="nonzero" fill-opacity="1" /><path clip-path="url(#clip320)" d="M91.5706 1194.04 L99.2095 1194.04 L99.2095 1167.68 L90.8993 1169.34 L90.8993 1165.09 L99.1632 1163.42 L103.839 1163.42 L103.839 1194.04 L111.478 1194.04 L111.478 1197.98 L91.5706 1197.98 L91.5706 1194.04 Z" fill="#000000" fill-rule="nonzero" fill-opacity="1" /><path clip-path="url(#clip320)" d="M99.5335 846.16 Q95.9224 846.16 94.0937 849.725 Q92.2882 853.266 92.2882 860.396 Q92.2882 867.502 94.0937 871.067 Q95.9224 874.609 99.5335 874.609 Q103.168 874.609 104.973 871.067 Q106.802 867.502 106.802 860.396 Q106.802 853.266 104.973 849.725 Q103.168 846.16 99.5335 846.16 M99.5335 842.456 Q105.344 842.456 108.399 847.063 Q111.478 851.646 111.478 860.396 Q111.478 869.123 108.399 873.729 Q105.344 878.313 99.5335 878.313 Q93.7234 878.313 90.6447 873.729 Q87.5892 869.123 87.5892 860.396 Q87.5892 851.646 90.6447 847.063 Q93.7234 842.456 99.5335 842.456 Z" fill="#000000" fill-rule="nonzero" fill-opacity="1" /><path clip-path="url(#clip320)" d="M91.5706 553.369 L99.2095 553.369 L99.2095 527.003 L90.8993 528.67 L90.8993 524.411 L99.1632 522.744 L103.839 522.744 L103.839 553.369 L111.478 553.369 L111.478 557.304 L91.5706 557.304 L91.5706 553.369 Z" fill="#000000" fill-rule="nonzero" fill-opacity="1" /><path clip-path="url(#clip320)" d="M95.1586 233.031 L111.478 233.031 L111.478 236.967 L89.5336 236.967 L89.5336 233.031 Q92.1956 230.277 96.7789 225.647 Q101.385 220.994 102.566 219.652 Q104.811 217.129 105.691 215.393 Q106.594 213.633 106.594 211.944 Q106.594 209.189 104.649 207.453 Q102.728 205.717 99.6261 205.717 Q97.4271 205.717 94.9734 206.481 Q92.5428 207.245 89.7651 208.795 L89.7651 204.073 Q92.5891 202.939 95.0428 202.36 Q97.4965 201.782 99.5335 201.782 Q104.904 201.782 108.098 204.467 Q111.293 207.152 111.293 211.643 Q111.293 213.772 110.483 215.694 Q109.696 217.592 107.589 220.184 Q107.01 220.856 103.909 224.073 Q100.807 227.268 95.1586 233.031 Z" fill="#000000" fill-rule="nonzero" fill-opacity="1" /><circle clip-path="url(#clip322)" cx="1826.14" cy="582.603" r="14.4" fill="#009af9" fill-rule="evenodd" fill-opacity="0.5" stroke="#000000" stroke-opacity="0.5" stroke-width="3.2"/>
<circle clip-path="url(#clip322)" cx="2004.08" cy="1140.89" r="14.4" fill="#009af9" fill-rule="evenodd" fill-opacity="0.5" stroke="#000000" stroke-opacity="0.5" stroke-width="3.2"/>
<circle clip-path="url(#clip322)" cx="1092.2" cy="1080.18" r="14.4" fill="#009af9" fill-rule="evenodd" fill-opacity="0.5" stroke="#000000" stroke-opacity="0.5" stroke-width="3.2"/>
<circle clip-path="url(#clip322)" cx="1860.13" cy="1135.99" r="14.4" fill="#009af9" fill-rule="evenodd" fill-opacity="0.5" stroke="#000000" stroke-opacity="0.5" stroke-width="3.2"/>
<circle clip-path="url(#clip322)" cx="209.891" cy="1275.7" r="14.4" fill="#009af9" fill-rule="evenodd" fill-opacity="0.5" stroke="#000000" stroke-opacity="0.5" stroke-width="3.2"/>
<circle clip-path="url(#clip322)" cx="1540.57" cy="645.846" r="14.4" fill="#009af9" fill-rule="evenodd" fill-opacity="0.5" stroke="#000000" stroke-opacity="0.5" stroke-width="3.2"/>
<circle clip-path="url(#clip322)" cx="1565.78" cy="1004" r="14.4" fill="#009af9" fill-rule="evenodd" fill-opacity="0.5" stroke="#000000" stroke-opacity="0.5" stroke-width="3.2"/>
<circle clip-path="url(#clip322)" cx="743.324" cy="1056.33" r="14.4" fill="#009af9" fill-rule="evenodd" fill-opacity="0.5" stroke="#000000" stroke-opacity="0.5" stroke-width="3.2"/>
<circle clip-path="url(#clip322)" cx="2241.5" cy="479.971" r="14.4" fill="#009af9" fill-rule="evenodd" fill-opacity="0.5" stroke="#000000" stroke-opacity="0.5" stroke-width="3.2"/>
<circle clip-path="url(#clip322)" cx="1434.99" cy="337.122" r="14.4" fill="#009af9" fill-rule="evenodd" fill-opacity="0.5" stroke="#000000" stroke-opacity="0.5" stroke-width="3.2"/>
<circle clip-path="url(#clip322)" cx="1254.3" cy="1445.72" r="14.4" fill="#009af9" fill-rule="evenodd" fill-opacity="0.5" stroke="#000000" stroke-opacity="0.5" stroke-width="3.2"/>
<circle clip-path="url(#clip322)" cx="1257.1" cy="1333.77" r="14.4" fill="#009af9" fill-rule="evenodd" fill-opacity="0.5" stroke="#000000" stroke-opacity="0.5" stroke-width="3.2"/>
<circle clip-path="url(#clip322)" cx="890.813" cy="277.259" r="14.4" fill="#009af9" fill-rule="evenodd" fill-opacity="0.5" stroke="#000000" stroke-opacity="0.5" stroke-width="3.2"/>
<circle clip-path="url(#clip322)" cx="1450.32" cy="1272.2" r="14.4" fill="#009af9" fill-rule="evenodd" fill-opacity="0.5" stroke="#000000" stroke-opacity="0.5" stroke-width="3.2"/>
<circle clip-path="url(#clip322)" cx="1255.5" cy="830.051" r="14.4" fill="#009af9" fill-rule="evenodd" fill-opacity="0.5" stroke="#000000" stroke-opacity="0.5" stroke-width="3.2"/>
<circle clip-path="url(#clip322)" cx="1626.17" cy="576.981" r="14.4" fill="#009af9" fill-rule="evenodd" fill-opacity="0.5" stroke="#000000" stroke-opacity="0.5" stroke-width="3.2"/>
<circle clip-path="url(#clip322)" cx="1312.21" cy="1131.14" r="14.4" fill="#009af9" fill-rule="evenodd" fill-opacity="0.5" stroke="#000000" stroke-opacity="0.5" stroke-width="3.2"/>
<circle clip-path="url(#clip322)" cx="1159.37" cy="87.9763" r="14.4" fill="#009af9" fill-rule="evenodd" fill-opacity="0.5" stroke="#000000" stroke-opacity="0.5" stroke-width="3.2"/>
<circle clip-path="url(#clip322)" cx="1964.87" cy="1077.56" r="14.4" fill="#009af9" fill-rule="evenodd" fill-opacity="0.5" stroke="#000000" stroke-opacity="0.5" stroke-width="3.2"/>
<circle clip-path="url(#clip322)" cx="1452.62" cy="1106.68" r="14.4" fill="#009af9" fill-rule="evenodd" fill-opacity="0.5" stroke="#000000" stroke-opacity="0.5" stroke-width="3.2"/>
<circle clip-path="url(#clip322)" cx="1950.64" cy="1003.49" r="14.4" fill="#009af9" fill-rule="evenodd" fill-opacity="0.5" stroke="#000000" stroke-opacity="0.5" stroke-width="3.2"/>
<circle clip-path="url(#clip322)" cx="1582.4" cy="964.326" r="14.4" fill="#009af9" fill-rule="evenodd" fill-opacity="0.5" stroke="#000000" stroke-opacity="0.5" stroke-width="3.2"/>
<circle clip-path="url(#clip322)" cx="1796.17" cy="889.291" r="14.4" fill="#009af9" fill-rule="evenodd" fill-opacity="0.5" stroke="#000000" stroke-opacity="0.5" stroke-width="3.2"/>
<circle clip-path="url(#clip322)" cx="1414.42" cy="1099.84" r="14.4" fill="#009af9" fill-rule="evenodd" fill-opacity="0.5" stroke="#000000" stroke-opacity="0.5" stroke-width="3.2"/>
<circle clip-path="url(#clip322)" cx="1478.1" cy="926.781" r="14.4" fill="#009af9" fill-rule="evenodd" fill-opacity="0.5" stroke="#000000" stroke-opacity="0.5" stroke-width="3.2"/>
<circle clip-path="url(#clip322)" cx="1760.58" cy="545.723" r="14.4" fill="#009af9" fill-rule="evenodd" fill-opacity="0.5" stroke="#000000" stroke-opacity="0.5" stroke-width="3.2"/>
<circle clip-path="url(#clip322)" cx="596.641" cy="783.379" r="14.4" fill="#009af9" fill-rule="evenodd" fill-opacity="0.5" stroke="#000000" stroke-opacity="0.5" stroke-width="3.2"/>
<circle clip-path="url(#clip322)" cx="2290.34" cy="745.582" r="14.4" fill="#009af9" fill-rule="evenodd" fill-opacity="0.5" stroke="#000000" stroke-opacity="0.5" stroke-width="3.2"/>
<circle clip-path="url(#clip322)" cx="862.645" cy="753.574" r="14.4" fill="#009af9" fill-rule="evenodd" fill-opacity="0.5" stroke="#000000" stroke-opacity="0.5" stroke-width="3.2"/>
<circle clip-path="url(#clip322)" cx="1241.2" cy="1024.99" r="14.4" fill="#009af9" fill-rule="evenodd" fill-opacity="0.5" stroke="#000000" stroke-opacity="0.5" stroke-width="3.2"/>
<path clip-path="url(#clip322)" d="M209.891 1275.7 L1254.3 1445.72 L2004.08 1140.89 L2290.34 745.582 L2241.5 479.971 L1159.37 87.9763 L890.813 277.259 L209.891 1275.7 L209.891 1275.7  Z" fill="#e26f46" fill-rule="evenodd" fill-opacity="0.2"/>
<polyline clip-path="url(#clip322)" style="stroke:#000000; stroke-linecap:round; stroke-linejoin:round; stroke-width:4; stroke-opacity:0.2; fill:none" points="209.891,1275.7 1254.3,1445.72 2004.08,1140.89 2290.34,745.582 2241.5,479.971 1159.37,87.9763 890.813,277.259 209.891,1275.7 "/>
</svg>
