<?xml version="1.0" encoding="utf-8"?>
<svg xmlns="http://www.w3.org/2000/svg" xmlns:xlink="http://www.w3.org/1999/xlink" width="600" height="400" viewBox="0 0 2400 1600">
<defs>
  <clipPath id="clip340">
    <rect x="0" y="0" width="2400" height="1600"/>
  </clipPath>
</defs>
<path clip-path="url(#clip340)" d="M0 1600 L2400 1600 L2400 0 L0 0  Z" fill="#ffffff" fill-rule="evenodd" fill-opacity="1"/>
<defs>
  <clipPath id="clip341">
    <rect x="480" y="0" width="1681" height="1600"/>
  </clipPath>
</defs>
<path clip-path="url(#clip340)" d="M147.478 1486.45 L2352.76 1486.45 L2352.76 47.2441 L147.478 47.2441  Z" fill="#ffffff" fill-rule="evenodd" fill-opacity="1"/>
<defs>
  <clipPath id="clip342">
    <rect x="147" y="47" width="2206" height="1440"/>
  </clipPath>
</defs>
<polyline clip-path="url(#clip342)" style="stroke:#000000; stroke-linecap:round; stroke-linejoin:round; stroke-width:2; stroke-opacity:0.1; fill:none" points="499.118,1486.45 499.118,47.2441 "/>
<polyline clip-path="url(#clip342)" style="stroke:#000000; stroke-linecap:round; stroke-linejoin:round; stroke-width:2; stroke-opacity:0.1; fill:none" points="1100.93,1486.45 1100.93,47.2441 "/>
<polyline clip-path="url(#clip342)" style="stroke:#000000; stroke-linecap:round; stroke-linejoin:round; stroke-width:2; stroke-opacity:0.1; fill:none" points="1702.75,1486.45 1702.75,47.2441 "/>
<polyline clip-path="url(#clip342)" style="stroke:#000000; stroke-linecap:round; stroke-linejoin:round; stroke-width:2; stroke-opacity:0.1; fill:none" points="2304.56,1486.45 2304.56,47.2441 "/>
<polyline clip-path="url(#clip340)" style="stroke:#000000; stroke-linecap:round; stroke-linejoin:round; stroke-width:4; stroke-opacity:1; fill:none" points="147.478,1486.45 2352.76,1486.45 "/>
<polyline clip-path="url(#clip340)" style="stroke:#000000; stroke-linecap:round; stroke-linejoin:round; stroke-width:4; stroke-opacity:1; fill:none" points="499.118,1486.45 499.118,1467.55 "/>
<polyline clip-path="url(#clip340)" style="stroke:#000000; stroke-linecap:round; stroke-linejoin:round; stroke-width:4; stroke-opacity:1; fill:none" points="1100.93,1486.45 1100.93,1467.55 "/>
<polyline clip-path="url(#clip340)" style="stroke:#000000; stroke-linecap:round; stroke-linejoin:round; stroke-width:4; stroke-opacity:1; fill:none" points="1702.75,1486.45 1702.75,1467.55 "/>
<polyline clip-path="url(#clip340)" style="stroke:#000000; stroke-linecap:round; stroke-linejoin:round; stroke-width:4; stroke-opacity:1; fill:none" points="2304.56,1486.45 2304.56,1467.55 "/>
<path clip-path="url(#clip340)" d="M468.876 1532.02 L498.551 1532.02 L498.551 1535.95 L468.876 1535.95 L468.876 1532.02 Z" fill="#000000" fill-rule="nonzero" fill-opacity="1" /><path clip-path="url(#clip340)" d="M509.454 1544.91 L517.093 1544.91 L517.093 1518.55 L508.783 1520.21 L508.783 1515.95 L517.047 1514.29 L521.722 1514.29 L521.722 1544.91 L529.361 1544.91 L529.361 1548.85 L509.454 1548.85 L509.454 1544.91 Z" fill="#000000" fill-rule="nonzero" fill-opacity="1" /><path clip-path="url(#clip340)" d="M1100.93 1517.37 Q1097.32 1517.37 1095.49 1520.93 Q1093.69 1524.47 1093.69 1531.6 Q1093.69 1538.71 1095.49 1542.27 Q1097.32 1545.82 1100.93 1545.82 Q1104.57 1545.82 1106.37 1542.27 Q1108.2 1538.71 1108.2 1531.6 Q1108.2 1524.47 1106.37 1520.93 Q1104.57 1517.37 1100.93 1517.37 M1100.93 1513.66 Q1106.74 1513.66 1109.8 1518.27 Q1112.88 1522.85 1112.88 1531.6 Q1112.88 1540.33 1109.8 1544.94 Q1106.74 1549.52 1100.93 1549.52 Q1095.12 1549.52 1092.04 1544.94 Q1088.99 1540.33 1088.99 1531.6 Q1088.99 1522.85 1092.04 1518.27 Q1095.12 1513.66 1100.93 1513.66 Z" fill="#000000" fill-rule="nonzero" fill-opacity="1" /><path clip-path="url(#clip340)" d="M1693.13 1544.91 L1700.77 1544.91 L1700.77 1518.55 L1692.46 1520.21 L1692.46 1515.95 L1700.72 1514.29 L1705.4 1514.29 L1705.4 1544.91 L1713.04 1544.91 L1713.04 1548.85 L1693.13 1548.85 L1693.13 1544.91 Z" fill="#000000" fill-rule="nonzero" fill-opacity="1" /><path clip-path="url(#clip340)" d="M2299.21 1544.91 L2315.53 1544.91 L2315.53 1548.85 L2293.59 1548.85 L2293.59 1544.91 Q2296.25 1542.16 2300.84 1537.53 Q2305.44 1532.88 2306.62 1531.53 Q2308.87 1529.01 2309.75 1527.27 Q2310.65 1525.51 2310.65 1523.82 Q2310.65 1521.07 2308.71 1519.33 Q2306.78 1517.6 2303.68 1517.6 Q2301.48 1517.6 2299.03 1518.36 Q2296.6 1519.13 2293.82 1520.68 L2293.82 1515.95 Q2296.65 1514.82 2299.1 1514.24 Q2301.55 1513.66 2303.59 1513.66 Q2308.96 1513.66 2312.15 1516.35 Q2315.35 1519.03 2315.35 1523.52 Q2315.35 1525.65 2314.54 1527.57 Q2313.75 1529.47 2311.65 1532.07 Q2311.07 1532.74 2307.96 1535.95 Q2304.86 1539.15 2299.21 1544.91 Z" fill="#000000" fill-rule="nonzero" fill-opacity="1" /><polyline clip-path="url(#clip342)" style="stroke:#000000; stroke-linecap:round; stroke-linejoin:round; stroke-width:2; stroke-opacity:0.1; fill:none" points="147.478,1482.36 2352.76,1482.36 "/>
<polyline clip-path="url(#clip342)" style="stroke:#000000; stroke-linecap:round; stroke-linejoin:round; stroke-width:2; stroke-opacity:0.1; fill:none" points="147.478,1184 2352.76,1184 "/>
<polyline clip-path="url(#clip342)" style="stroke:#000000; stroke-linecap:round; stroke-linejoin:round; stroke-width:2; stroke-opacity:0.1; fill:none" points="147.478,885.63 2352.76,885.63 "/>
<polyline clip-path="url(#clip342)" style="stroke:#000000; stroke-linecap:round; stroke-linejoin:round; stroke-width:2; stroke-opacity:0.1; fill:none" points="147.478,587.264 2352.76,587.264 "/>
<polyline clip-path="url(#clip342)" style="stroke:#000000; stroke-linecap:round; stroke-linejoin:round; stroke-width:2; stroke-opacity:0.1; fill:none" points="147.478,288.898 2352.76,288.898 "/>
<polyline clip-path="url(#clip340)" style="stroke:#000000; stroke-linecap:round; stroke-linejoin:round; stroke-width:4; stroke-opacity:1; fill:none" points="147.478,1486.45 147.478,47.2441 "/>
<polyline clip-path="url(#clip340)" style="stroke:#000000; stroke-linecap:round; stroke-linejoin:round; stroke-width:4; stroke-opacity:1; fill:none" points="147.478,1482.36 166.376,1482.36 "/>
<polyline clip-path="url(#clip340)" style="stroke:#000000; stroke-linecap:round; stroke-linejoin:round; stroke-width:4; stroke-opacity:1; fill:none" points="147.478,1184 166.376,1184 "/>
<polyline clip-path="url(#clip340)" style="stroke:#000000; stroke-linecap:round; stroke-linejoin:round; stroke-width:4; stroke-opacity:1; fill:none" points="147.478,885.63 166.376,885.63 "/>
<polyline clip-path="url(#clip340)" style="stroke:#000000; stroke-linecap:round; stroke-linejoin:round; stroke-width:4; stroke-opacity:1; fill:none" points="147.478,587.264 166.376,587.264 "/>
<polyline clip-path="url(#clip340)" style="stroke:#000000; stroke-linecap:round; stroke-linejoin:round; stroke-width:4; stroke-opacity:1; fill:none" points="147.478,288.898 166.376,288.898 "/>
<path clip-path="url(#clip340)" d="M51.3625 1482.81 L81.0383 1482.81 L81.0383 1486.75 L51.3625 1486.75 L51.3625 1482.81 Z" fill="#000000" fill-rule="nonzero" fill-opacity="1" /><path clip-path="url(#clip340)" d="M95.1586 1495.71 L111.478 1495.71 L111.478 1499.64 L89.5336 1499.64 L89.5336 1495.71 Q92.1956 1492.95 96.7789 1488.32 Q101.385 1483.67 102.566 1482.33 Q104.811 1479.8 105.691 1478.07 Q106.594 1476.31 106.594 1474.62 Q106.594 1471.86 104.649 1470.13 Q102.728 1468.39 99.6261 1468.39 Q97.4271 1468.39 94.9734 1469.16 Q92.5428 1469.92 89.7651 1471.47 L89.7651 1466.75 Q92.5891 1465.61 95.0428 1465.04 Q97.4965 1464.46 99.5335 1464.46 Q104.904 1464.46 108.098 1467.14 Q111.293 1469.83 111.293 1474.32 Q111.293 1476.45 110.483 1478.37 Q109.696 1480.27 107.589 1482.86 Q107.01 1483.53 103.909 1486.75 Q100.807 1489.94 95.1586 1495.71 Z" fill="#000000" fill-rule="nonzero" fill-opacity="1" /><path clip-path="url(#clip340)" d="M50.9921 1184.45 L80.6679 1184.45 L80.6679 1188.38 L50.9921 1188.38 L50.9921 1184.45 Z" fill="#000000" fill-rule="nonzero" fill-opacity="1" /><path clip-path="url(#clip340)" d="M91.5706 1197.34 L99.2095 1197.34 L99.2095 1170.98 L90.8993 1172.64 L90.8993 1168.38 L99.1632 1166.72 L103.839 1166.72 L103.839 1197.34 L111.478 1197.34 L111.478 1201.28 L91.5706 1201.28 L91.5706 1197.34 Z" fill="#000000" fill-rule="nonzero" fill-opacity="1" /><path clip-path="url(#clip340)" d="M99.5335 871.429 Q95.9224 871.429 94.0937 874.993 Q92.2882 878.535 92.2882 885.665 Q92.2882 892.771 94.0937 896.336 Q95.9224 899.878 99.5335 899.878 Q103.168 899.878 104.973 896.336 Q106.802 892.771 106.802 885.665 Q106.802 878.535 104.973 874.993 Q103.168 871.429 99.5335 871.429 M99.5335 867.725 Q105.344 867.725 108.399 872.331 Q111.478 876.915 111.478 885.665 Q111.478 894.391 108.399 898.998 Q105.344 903.581 99.5335 903.581 Q93.7234 903.581 90.6447 898.998 Q87.5892 894.391 87.5892 885.665 Q87.5892 876.915 90.6447 872.331 Q93.7234 867.725 99.5335 867.725 Z" fill="#000000" fill-rule="nonzero" fill-opacity="1" /><path clip-path="url(#clip340)" d="M91.5706 600.609 L99.2095 600.609 L99.2095 574.243 L90.8993 575.91 L90.8993 571.65 L99.1632 569.984 L103.839 569.984 L103.839 600.609 L111.478 600.609 L111.478 604.544 L91.5706 604.544 L91.5706 600.609 Z" fill="#000000" fill-rule="nonzero" fill-opacity="1" /><path clip-path="url(#clip340)" d="M95.1586 302.242 L111.478 302.242 L111.478 306.178 L89.5336 306.178 L89.5336 302.242 Q92.1956 299.488 96.7789 294.858 Q101.385 290.206 102.566 288.863 Q104.811 286.34 105.691 284.604 Q106.594 282.844 106.594 281.155 Q106.594 278.4 104.649 276.664 Q102.728 274.928 99.6261 274.928 Q97.4271 274.928 94.9734 275.692 Q92.5428 276.456 89.7651 278.007 L89.7651 273.284 Q92.5891 272.15 95.0428 271.571 Q97.4965 270.993 99.5335 270.993 Q104.904 270.993 108.098 273.678 Q111.293 276.363 111.293 280.854 Q111.293 282.983 110.483 284.905 Q109.696 286.803 107.589 289.395 Q107.01 290.067 103.909 293.284 Q100.807 296.479 95.1586 302.242 Z" fill="#000000" fill-rule="nonzero" fill-opacity="1" /><circle clip-path="url(#clip342)" cx="811.085" cy="1130.05" r="14.4" fill="#009af9" fill-rule="evenodd" fill-opacity="0.5" stroke="#000000" stroke-opacity="0.5" stroke-width="3.2"/>
<circle clip-path="url(#clip342)" cx="1200.5" cy="1129.27" r="14.4" fill="#009af9" fill-rule="evenodd" fill-opacity="0.5" stroke="#000000" stroke-opacity="0.5" stroke-width="3.2"/>
<circle clip-path="url(#clip342)" cx="1529.53" cy="1012.13" r="14.4" fill="#009af9" fill-rule="evenodd" fill-opacity="0.5" stroke="#000000" stroke-opacity="0.5" stroke-width="3.2"/>
<circle clip-path="url(#clip342)" cx="1666.71" cy="710.678" r="14.4" fill="#009af9" fill-rule="evenodd" fill-opacity="0.5" stroke="#000000" stroke-opacity="0.5" stroke-width="3.2"/>
<circle clip-path="url(#clip342)" cx="1117.95" cy="87.9763" r="14.4" fill="#009af9" fill-rule="evenodd" fill-opacity="0.5" stroke="#000000" stroke-opacity="0.5" stroke-width="3.2"/>
<circle clip-path="url(#clip342)" cx="1402.6" cy="908.837" r="14.4" fill="#009af9" fill-rule="evenodd" fill-opacity="0.5" stroke="#000000" stroke-opacity="0.5" stroke-width="3.2"/>
<circle clip-path="url(#clip342)" cx="935.252" cy="1330.18" r="14.4" fill="#009af9" fill-rule="evenodd" fill-opacity="0.5" stroke="#000000" stroke-opacity="0.5" stroke-width="3.2"/>
<circle clip-path="url(#clip342)" cx="656.008" cy="831.202" r="14.4" fill="#009af9" fill-rule="evenodd" fill-opacity="0.5" stroke="#000000" stroke-opacity="0.5" stroke-width="3.2"/>
<circle clip-path="url(#clip342)" cx="2272.67" cy="1133.63" r="14.4" fill="#009af9" fill-rule="evenodd" fill-opacity="0.5" stroke="#000000" stroke-opacity="0.5" stroke-width="3.2"/>
<circle clip-path="url(#clip342)" cx="233.939" cy="511.129" r="14.4" fill="#009af9" fill-rule="evenodd" fill-opacity="0.5" stroke="#000000" stroke-opacity="0.5" stroke-width="3.2"/>
<circle clip-path="url(#clip342)" cx="2290.34" cy="1172.3" r="14.4" fill="#009af9" fill-rule="evenodd" fill-opacity="0.5" stroke="#000000" stroke-opacity="0.5" stroke-width="3.2"/>
<circle clip-path="url(#clip342)" cx="654.36" cy="1104.27" r="14.4" fill="#009af9" fill-rule="evenodd" fill-opacity="0.5" stroke="#000000" stroke-opacity="0.5" stroke-width="3.2"/>
<circle clip-path="url(#clip342)" cx="714.293" cy="375.01" r="14.4" fill="#009af9" fill-rule="evenodd" fill-opacity="0.5" stroke="#000000" stroke-opacity="0.5" stroke-width="3.2"/>
<circle clip-path="url(#clip342)" cx="214.538" cy="924.875" r="14.4" fill="#009af9" fill-rule="evenodd" fill-opacity="0.5" stroke="#000000" stroke-opacity="0.5" stroke-width="3.2"/>
<circle clip-path="url(#clip342)" cx="429.556" cy="554.453" r="14.4" fill="#009af9" fill-rule="evenodd" fill-opacity="0.5" stroke="#000000" stroke-opacity="0.5" stroke-width="3.2"/>
<circle clip-path="url(#clip342)" cx="624.021" cy="263.589" r="14.4" fill="#009af9" fill-rule="evenodd" fill-opacity="0.5" stroke="#000000" stroke-opacity="0.5" stroke-width="3.2"/>
<circle clip-path="url(#clip342)" cx="1103.98" cy="779.451" r="14.4" fill="#009af9" fill-rule="evenodd" fill-opacity="0.5" stroke="#000000" stroke-opacity="0.5" stroke-width="3.2"/>
<circle clip-path="url(#clip342)" cx="1401.39" cy="414.749" r="14.4" fill="#009af9" fill-rule="evenodd" fill-opacity="0.5" stroke="#000000" stroke-opacity="0.5" stroke-width="3.2"/>
<circle clip-path="url(#clip342)" cx="1775.23" cy="525.231" r="14.4" fill="#009af9" fill-rule="evenodd" fill-opacity="0.5" stroke="#000000" stroke-opacity="0.5" stroke-width="3.2"/>
<circle clip-path="url(#clip342)" cx="938.946" cy="1234.78" r="14.4" fill="#009af9" fill-rule="evenodd" fill-opacity="0.5" stroke="#000000" stroke-opacity="0.5" stroke-width="3.2"/>
<circle clip-path="url(#clip342)" cx="363.595" cy="1123.81" r="14.4" fill="#009af9" fill-rule="evenodd" fill-opacity="0.5" stroke="#000000" stroke-opacity="0.5" stroke-width="3.2"/>
<circle clip-path="url(#clip342)" cx="230.593" cy="728.44" r="14.4" fill="#009af9" fill-rule="evenodd" fill-opacity="0.5" stroke="#000000" stroke-opacity="0.5" stroke-width="3.2"/>
<circle clip-path="url(#clip342)" cx="979.005" cy="846.017" r="14.4" fill="#009af9" fill-rule="evenodd" fill-opacity="0.5" stroke="#000000" stroke-opacity="0.5" stroke-width="3.2"/>
<circle clip-path="url(#clip342)" cx="1059.79" cy="943.28" r="14.4" fill="#009af9" fill-rule="evenodd" fill-opacity="0.5" stroke="#000000" stroke-opacity="0.5" stroke-width="3.2"/>
<circle clip-path="url(#clip342)" cx="1143.81" cy="1445.72" r="14.4" fill="#009af9" fill-rule="evenodd" fill-opacity="0.5" stroke="#000000" stroke-opacity="0.5" stroke-width="3.2"/>
<circle clip-path="url(#clip342)" cx="1816.79" cy="552.206" r="14.4" fill="#009af9" fill-rule="evenodd" fill-opacity="0.5" stroke="#000000" stroke-opacity="0.5" stroke-width="3.2"/>
<circle clip-path="url(#clip342)" cx="209.891" cy="833.447" r="14.4" fill="#009af9" fill-rule="evenodd" fill-opacity="0.5" stroke="#000000" stroke-opacity="0.5" stroke-width="3.2"/>
<circle clip-path="url(#clip342)" cx="2151.15" cy="639.284" r="14.4" fill="#009af9" fill-rule="evenodd" fill-opacity="0.5" stroke="#000000" stroke-opacity="0.5" stroke-width="3.2"/>
<circle clip-path="url(#clip342)" cx="2212.55" cy="747.072" r="14.4" fill="#009af9" fill-rule="evenodd" fill-opacity="0.5" stroke="#000000" stroke-opacity="0.5" stroke-width="3.2"/>
<circle clip-path="url(#clip342)" cx="818.994" cy="1311.2" r="14.4" fill="#009af9" fill-rule="evenodd" fill-opacity="0.5" stroke="#000000" stroke-opacity="0.5" stroke-width="3.2"/>
<path clip-path="url(#clip342)" d="M209.891 833.447 L214.538 924.875 L363.595 1123.81 L1143.81 1445.72 L2290.34 1172.3 L2212.55 747.072 L2151.15 639.284 L1117.95 87.9763 L624.021 263.589 L233.939 511.129 L209.891 833.447 L209.891 833.447  Z" fill="#e26f46" fill-rule="evenodd" fill-opacity="0.2"/>
<polyline clip-path="url(#clip342)" style="stroke:#000000; stroke-linecap:round; stroke-linejoin:round; stroke-width:4; stroke-opacity:0.2; fill:none" points="209.891,833.447 214.538,924.875 363.595,1123.81 1143.81,1445.72 2290.34,1172.3 2212.55,747.072 2151.15,639.284 1117.95,87.9763 624.021,263.589 233.939,511.129 209.891,833.447 "/>
</svg>
