<?xml version="1.0" encoding="utf-8"?>
<svg xmlns="http://www.w3.org/2000/svg" xmlns:xlink="http://www.w3.org/1999/xlink" width="600" height="400" viewBox="0 0 2400 1600">
<defs>
  <clipPath id="clip330">
    <rect x="0" y="0" width="2400" height="1600"/>
  </clipPath>
</defs>
<path clip-path="url(#clip330)" d="M0 1600 L2400 1600 L2400 0 L0 0  Z" fill="#ffffff" fill-rule="evenodd" fill-opacity="1"/>
<defs>
  <clipPath id="clip331">
    <rect x="148" y="47" width="2206" height="1440"/>
  </clipPath>
</defs>
<path clip-path="url(#clip330)" d="M148.057 1486.45 L2352.76 1486.45 L2352.76 47.2441 L148.057 47.2441  Z" fill="#ffffff" fill-rule="evenodd" fill-opacity="1"/>
<polyline clip-path="url(#clip331)" style="stroke:#000000; stroke-linecap:round; stroke-linejoin:round; stroke-width:2; stroke-opacity:0.1; fill:none" points="155.192,1486.45 155.192,47.2441 "/>
<polyline clip-path="url(#clip331)" style="stroke:#000000; stroke-linecap:round; stroke-linejoin:round; stroke-width:2; stroke-opacity:0.1; fill:none" points="523.927,1486.45 523.927,47.2441 "/>
<polyline clip-path="url(#clip331)" style="stroke:#000000; stroke-linecap:round; stroke-linejoin:round; stroke-width:2; stroke-opacity:0.1; fill:none" points="892.661,1486.45 892.661,47.2441 "/>
<polyline clip-path="url(#clip331)" style="stroke:#000000; stroke-linecap:round; stroke-linejoin:round; stroke-width:2; stroke-opacity:0.1; fill:none" points="1261.4,1486.45 1261.4,47.2441 "/>
<polyline clip-path="url(#clip331)" style="stroke:#000000; stroke-linecap:round; stroke-linejoin:round; stroke-width:2; stroke-opacity:0.1; fill:none" points="1630.13,1486.45 1630.13,47.2441 "/>
<polyline clip-path="url(#clip331)" style="stroke:#000000; stroke-linecap:round; stroke-linejoin:round; stroke-width:2; stroke-opacity:0.1; fill:none" points="1998.86,1486.45 1998.86,47.2441 "/>
<polyline clip-path="url(#clip331)" style="stroke:#000000; stroke-linecap:round; stroke-linejoin:round; stroke-width:2; stroke-opacity:0.1; fill:none" points="148.057,1439.1 2352.76,1439.1 "/>
<polyline clip-path="url(#clip331)" style="stroke:#000000; stroke-linecap:round; stroke-linejoin:round; stroke-width:2; stroke-opacity:0.1; fill:none" points="148.057,1127.44 2352.76,1127.44 "/>
<polyline clip-path="url(#clip331)" style="stroke:#000000; stroke-linecap:round; stroke-linejoin:round; stroke-width:2; stroke-opacity:0.1; fill:none" points="148.057,815.778 2352.76,815.778 "/>
<polyline clip-path="url(#clip331)" style="stroke:#000000; stroke-linecap:round; stroke-linejoin:round; stroke-width:2; stroke-opacity:0.1; fill:none" points="148.057,504.118 2352.76,504.118 "/>
<polyline clip-path="url(#clip331)" style="stroke:#000000; stroke-linecap:round; stroke-linejoin:round; stroke-width:2; stroke-opacity:0.1; fill:none" points="148.057,192.457 2352.76,192.457 "/>
<polyline clip-path="url(#clip330)" style="stroke:#000000; stroke-linecap:round; stroke-linejoin:round; stroke-width:4; stroke-opacity:1; fill:none" points="148.057,1486.45 2352.76,1486.45 "/>
<polyline clip-path="url(#clip330)" style="stroke:#000000; stroke-linecap:round; stroke-linejoin:round; stroke-width:4; stroke-opacity:1; fill:none" points="155.192,1486.45 155.192,1467.55 "/>
<polyline clip-path="url(#clip330)" style="stroke:#000000; stroke-linecap:round; stroke-linejoin:round; stroke-width:4; stroke-opacity:1; fill:none" points="523.927,1486.45 523.927,1467.55 "/>
<polyline clip-path="url(#clip330)" style="stroke:#000000; stroke-linecap:round; stroke-linejoin:round; stroke-width:4; stroke-opacity:1; fill:none" points="892.661,1486.45 892.661,1467.55 "/>
<polyline clip-path="url(#clip330)" style="stroke:#000000; stroke-linecap:round; stroke-linejoin:round; stroke-width:4; stroke-opacity:1; fill:none" points="1261.4,1486.45 1261.4,1467.55 "/>
<polyline clip-path="url(#clip330)" style="stroke:#000000; stroke-linecap:round; stroke-linejoin:round; stroke-width:4; stroke-opacity:1; fill:none" points="1630.13,1486.45 1630.13,1467.55 "/>
<polyline clip-path="url(#clip330)" style="stroke:#000000; stroke-linecap:round; stroke-linejoin:round; stroke-width:4; stroke-opacity:1; fill:none" points="1998.86,1486.45 1998.86,1467.55 "/>
<path clip-path="url(#clip330)" d="M124.093 1532.02 L153.769 1532.02 L153.769 1535.95 L124.093 1535.95 L124.093 1532.02 Z" fill="#000000" fill-rule="nonzero" fill-opacity="1" /><path clip-path="url(#clip330)" d="M176.708 1518.36 L164.903 1536.81 L176.708 1536.81 L176.708 1518.36 M175.482 1514.29 L181.361 1514.29 L181.361 1536.81 L186.292 1536.81 L186.292 1540.7 L181.361 1540.7 L181.361 1548.85 L176.708 1548.85 L176.708 1540.7 L161.107 1540.7 L161.107 1536.19 L175.482 1514.29 Z" fill="#000000" fill-rule="nonzero" fill-opacity="1" /><path clip-path="url(#clip330)" d="M493.394 1532.02 L523.07 1532.02 L523.07 1535.95 L493.394 1535.95 L493.394 1532.02 Z" fill="#000000" fill-rule="nonzero" fill-opacity="1" /><path clip-path="url(#clip330)" d="M547.329 1530.21 Q550.686 1530.93 552.561 1533.2 Q554.459 1535.47 554.459 1538.8 Q554.459 1543.92 550.94 1546.72 Q547.422 1549.52 540.941 1549.52 Q538.765 1549.52 536.45 1549.08 Q534.158 1548.66 531.704 1547.81 L531.704 1543.29 Q533.649 1544.43 535.964 1545.01 Q538.279 1545.58 540.802 1545.58 Q545.2 1545.58 547.491 1543.85 Q549.806 1542.11 549.806 1538.8 Q549.806 1535.75 547.653 1534.03 Q545.524 1532.3 541.704 1532.3 L537.677 1532.3 L537.677 1528.45 L541.89 1528.45 Q545.339 1528.45 547.167 1527.09 Q548.996 1525.7 548.996 1523.11 Q548.996 1520.45 547.098 1519.03 Q545.223 1517.6 541.704 1517.6 Q539.783 1517.6 537.584 1518.01 Q535.385 1518.43 532.746 1519.31 L532.746 1515.14 Q535.408 1514.4 537.723 1514.03 Q540.061 1513.66 542.121 1513.66 Q547.445 1513.66 550.547 1516.09 Q553.649 1518.5 553.649 1522.62 Q553.649 1525.49 552.005 1527.48 Q550.362 1529.45 547.329 1530.21 Z" fill="#000000" fill-rule="nonzero" fill-opacity="1" /><path clip-path="url(#clip330)" d="M862.603 1532.02 L892.279 1532.02 L892.279 1535.95 L862.603 1535.95 L862.603 1532.02 Z" fill="#000000" fill-rule="nonzero" fill-opacity="1" /><path clip-path="url(#clip330)" d="M906.4 1544.91 L922.719 1544.91 L922.719 1548.85 L900.775 1548.85 L900.775 1544.91 Q903.437 1542.16 908.02 1537.53 Q912.626 1532.88 913.807 1531.53 Q916.052 1529.01 916.932 1527.27 Q917.835 1525.51 917.835 1523.82 Q917.835 1521.07 915.89 1519.33 Q913.969 1517.6 910.867 1517.6 Q908.668 1517.6 906.214 1518.36 Q903.784 1519.13 901.006 1520.68 L901.006 1515.95 Q903.83 1514.82 906.284 1514.24 Q908.737 1513.66 910.774 1513.66 Q916.145 1513.66 919.339 1516.35 Q922.534 1519.03 922.534 1523.52 Q922.534 1525.65 921.723 1527.57 Q920.936 1529.47 918.83 1532.07 Q918.251 1532.74 915.149 1535.95 Q912.048 1539.15 906.4 1544.91 Z" fill="#000000" fill-rule="nonzero" fill-opacity="1" /><path clip-path="url(#clip330)" d="M1231.15 1532.02 L1260.83 1532.02 L1260.83 1535.95 L1231.15 1535.95 L1231.15 1532.02 Z" fill="#000000" fill-rule="nonzero" fill-opacity="1" /><path clip-path="url(#clip330)" d="M1271.73 1544.91 L1279.37 1544.91 L1279.37 1518.55 L1271.06 1520.21 L1271.06 1515.95 L1279.32 1514.29 L1284 1514.29 L1284 1544.91 L1291.64 1544.91 L1291.64 1548.85 L1271.73 1548.85 L1271.73 1544.91 Z" fill="#000000" fill-rule="nonzero" fill-opacity="1" /><path clip-path="url(#clip330)" d="M1630.13 1517.37 Q1626.52 1517.37 1624.69 1520.93 Q1622.88 1524.47 1622.88 1531.6 Q1622.88 1538.71 1624.69 1542.27 Q1626.52 1545.82 1630.13 1545.82 Q1633.76 1545.82 1635.57 1542.27 Q1637.4 1538.71 1637.4 1531.6 Q1637.4 1524.47 1635.57 1520.93 Q1633.76 1517.37 1630.13 1517.37 M1630.13 1513.66 Q1635.94 1513.66 1639 1518.27 Q1642.07 1522.85 1642.07 1531.6 Q1642.07 1540.33 1639 1544.94 Q1635.94 1549.52 1630.13 1549.52 Q1624.32 1549.52 1621.24 1544.94 Q1618.19 1540.33 1618.19 1531.6 Q1618.19 1522.85 1621.24 1518.27 Q1624.32 1513.66 1630.13 1513.66 Z" fill="#000000" fill-rule="nonzero" fill-opacity="1" /><path clip-path="url(#clip330)" d="M1989.25 1544.91 L1996.89 1544.91 L1996.89 1518.55 L1988.58 1520.21 L1988.58 1515.95 L1996.84 1514.29 L2001.51 1514.29 L2001.51 1544.91 L2009.15 1544.91 L2009.15 1548.85 L1989.25 1548.85 L1989.25 1544.91 Z" fill="#000000" fill-rule="nonzero" fill-opacity="1" /><polyline clip-path="url(#clip330)" style="stroke:#000000; stroke-linecap:round; stroke-linejoin:round; stroke-width:4; stroke-opacity:1; fill:none" points="148.057,1486.45 148.057,47.2441 "/>
<polyline clip-path="url(#clip330)" style="stroke:#000000; stroke-linecap:round; stroke-linejoin:round; stroke-width:4; stroke-opacity:1; fill:none" points="148.057,1439.1 166.954,1439.1 "/>
<polyline clip-path="url(#clip330)" style="stroke:#000000; stroke-linecap:round; stroke-linejoin:round; stroke-width:4; stroke-opacity:1; fill:none" points="148.057,1127.44 166.954,1127.44 "/>
<polyline clip-path="url(#clip330)" style="stroke:#000000; stroke-linecap:round; stroke-linejoin:round; stroke-width:4; stroke-opacity:1; fill:none" points="148.057,815.778 166.954,815.778 "/>
<polyline clip-path="url(#clip330)" style="stroke:#000000; stroke-linecap:round; stroke-linejoin:round; stroke-width:4; stroke-opacity:1; fill:none" points="148.057,504.118 166.954,504.118 "/>
<polyline clip-path="url(#clip330)" style="stroke:#000000; stroke-linecap:round; stroke-linejoin:round; stroke-width:4; stroke-opacity:1; fill:none" points="148.057,192.457 166.954,192.457 "/>
<path clip-path="url(#clip330)" d="M50.9921 1439.55 L80.6679 1439.55 L80.6679 1443.49 L50.9921 1443.49 L50.9921 1439.55 Z" fill="#000000" fill-rule="nonzero" fill-opacity="1" /><path clip-path="url(#clip330)" d="M104.927 1437.75 Q108.283 1438.46 110.158 1440.73 Q112.057 1443 112.057 1446.33 Q112.057 1451.45 108.538 1454.25 Q105.02 1457.05 98.5382 1457.05 Q96.3623 1457.05 94.0475 1456.61 Q91.7558 1456.19 89.3021 1455.34 L89.3021 1450.82 Q91.2465 1451.96 93.5613 1452.54 Q95.8761 1453.12 98.3993 1453.12 Q102.797 1453.12 105.089 1451.38 Q107.404 1449.64 107.404 1446.33 Q107.404 1443.28 105.251 1441.56 Q103.121 1439.83 99.3021 1439.83 L95.2743 1439.83 L95.2743 1435.99 L99.4872 1435.99 Q102.936 1435.99 104.765 1434.62 Q106.594 1433.23 106.594 1430.64 Q106.594 1427.98 104.696 1426.56 Q102.821 1425.13 99.3021 1425.13 Q97.3808 1425.13 95.1817 1425.55 Q92.9826 1425.96 90.3438 1426.84 L90.3438 1422.68 Q93.0058 1421.94 95.3206 1421.56 Q97.6585 1421.19 99.7187 1421.19 Q105.043 1421.19 108.145 1423.62 Q111.246 1426.03 111.246 1430.15 Q111.246 1433.02 109.603 1435.01 Q107.959 1436.98 104.927 1437.75 Z" fill="#000000" fill-rule="nonzero" fill-opacity="1" /><path clip-path="url(#clip330)" d="M51.9412 1127.89 L81.617 1127.89 L81.617 1131.83 L51.9412 1131.83 L51.9412 1127.89 Z" fill="#000000" fill-rule="nonzero" fill-opacity="1" /><path clip-path="url(#clip330)" d="M95.7373 1140.78 L112.057 1140.78 L112.057 1144.72 L90.1123 1144.72 L90.1123 1140.78 Q92.7743 1138.03 97.3576 1133.4 Q101.964 1128.75 103.145 1127.4 Q105.39 1124.88 106.27 1123.14 Q107.172 1121.39 107.172 1119.7 Q107.172 1116.94 105.228 1115.21 Q103.307 1113.47 100.205 1113.47 Q98.0058 1113.47 95.5521 1114.23 Q93.1215 1115 90.3438 1116.55 L90.3438 1111.83 Q93.1678 1110.69 95.6215 1110.11 Q98.0752 1109.53 100.112 1109.53 Q105.483 1109.53 108.677 1112.22 Q111.871 1114.9 111.871 1119.39 Q111.871 1121.52 111.061 1123.45 Q110.274 1125.34 108.168 1127.94 Q107.589 1128.61 104.487 1131.83 Q101.385 1135.02 95.7373 1140.78 Z" fill="#000000" fill-rule="nonzero" fill-opacity="1" /><path clip-path="url(#clip330)" d="M51.5708 816.23 L81.2466 816.23 L81.2466 820.165 L51.5708 820.165 L51.5708 816.23 Z" fill="#000000" fill-rule="nonzero" fill-opacity="1" /><path clip-path="url(#clip330)" d="M92.1493 829.123 L99.7882 829.123 L99.7882 802.758 L91.478 804.424 L91.478 800.165 L99.7419 798.498 L104.418 798.498 L104.418 829.123 L112.057 829.123 L112.057 833.058 L92.1493 833.058 L92.1493 829.123 Z" fill="#000000" fill-rule="nonzero" fill-opacity="1" /><path clip-path="url(#clip330)" d="M100.112 489.917 Q96.5011 489.917 94.6724 493.481 Q92.8669 497.023 92.8669 504.153 Q92.8669 511.259 94.6724 514.824 Q96.5011 518.365 100.112 518.365 Q103.746 518.365 105.552 514.824 Q107.381 511.259 107.381 504.153 Q107.381 497.023 105.552 493.481 Q103.746 489.917 100.112 489.917 M100.112 486.213 Q105.922 486.213 108.978 490.819 Q112.057 495.403 112.057 504.153 Q112.057 512.879 108.978 517.486 Q105.922 522.069 100.112 522.069 Q94.3021 522.069 91.2234 517.486 Q88.1679 512.879 88.1679 504.153 Q88.1679 495.403 91.2234 490.819 Q94.3021 486.213 100.112 486.213 Z" fill="#000000" fill-rule="nonzero" fill-opacity="1" /><path clip-path="url(#clip330)" d="M92.1493 205.802 L99.7882 205.802 L99.7882 179.437 L91.478 181.103 L91.478 176.844 L99.7419 175.177 L104.418 175.177 L104.418 205.802 L112.057 205.802 L112.057 209.737 L92.1493 209.737 L92.1493 205.802 Z" fill="#000000" fill-rule="nonzero" fill-opacity="1" /><circle clip-path="url(#clip331)" cx="2250.07" cy="388.517" r="14.4" fill="#009af9" fill-rule="evenodd" fill-opacity="0.5" stroke="#000000" stroke-opacity="0.5" stroke-width="3.2"/>
<circle clip-path="url(#clip331)" cx="2123.1" cy="137.654" r="14.4" fill="#009af9" fill-rule="evenodd" fill-opacity="0.5" stroke="#000000" stroke-opacity="0.5" stroke-width="3.2"/>
<circle clip-path="url(#clip331)" cx="1341.47" cy="632.866" r="14.4" fill="#009af9" fill-rule="evenodd" fill-opacity="0.5" stroke="#000000" stroke-opacity="0.5" stroke-width="3.2"/>
<circle clip-path="url(#clip331)" cx="1273.63" cy="734.754" r="14.4" fill="#009af9" fill-rule="evenodd" fill-opacity="0.5" stroke="#000000" stroke-opacity="0.5" stroke-width="3.2"/>
<circle clip-path="url(#clip331)" cx="1839.22" cy="1445.72" r="14.4" fill="#009af9" fill-rule="evenodd" fill-opacity="0.5" stroke="#000000" stroke-opacity="0.5" stroke-width="3.2"/>
<circle clip-path="url(#clip331)" cx="2118.83" cy="347.313" r="14.4" fill="#009af9" fill-rule="evenodd" fill-opacity="0.5" stroke="#000000" stroke-opacity="0.5" stroke-width="3.2"/>
<circle clip-path="url(#clip331)" cx="1670.68" cy="317.589" r="14.4" fill="#009af9" fill-rule="evenodd" fill-opacity="0.5" stroke="#000000" stroke-opacity="0.5" stroke-width="3.2"/>
<circle clip-path="url(#clip331)" cx="1761.31" cy="1122.66" r="14.4" fill="#009af9" fill-rule="evenodd" fill-opacity="0.5" stroke="#000000" stroke-opacity="0.5" stroke-width="3.2"/>
<circle clip-path="url(#clip331)" cx="1110.73" cy="377.391" r="14.4" fill="#009af9" fill-rule="evenodd" fill-opacity="0.5" stroke="#000000" stroke-opacity="0.5" stroke-width="3.2"/>
<circle clip-path="url(#clip331)" cx="1568.95" cy="371.986" r="14.4" fill="#009af9" fill-rule="evenodd" fill-opacity="0.5" stroke="#000000" stroke-opacity="0.5" stroke-width="3.2"/>
<circle clip-path="url(#clip331)" cx="210.454" cy="774.312" r="14.4" fill="#009af9" fill-rule="evenodd" fill-opacity="0.5" stroke="#000000" stroke-opacity="0.5" stroke-width="3.2"/>
<circle clip-path="url(#clip331)" cx="2029.07" cy="156.663" r="14.4" fill="#009af9" fill-rule="evenodd" fill-opacity="0.5" stroke="#000000" stroke-opacity="0.5" stroke-width="3.2"/>
<circle clip-path="url(#clip331)" cx="1683.46" cy="259.166" r="14.4" fill="#009af9" fill-rule="evenodd" fill-opacity="0.5" stroke="#000000" stroke-opacity="0.5" stroke-width="3.2"/>
<circle clip-path="url(#clip331)" cx="1741.83" cy="108.02" r="14.4" fill="#009af9" fill-rule="evenodd" fill-opacity="0.5" stroke="#000000" stroke-opacity="0.5" stroke-width="3.2"/>
<circle clip-path="url(#clip331)" cx="1979.73" cy="870.517" r="14.4" fill="#009af9" fill-rule="evenodd" fill-opacity="0.5" stroke="#000000" stroke-opacity="0.5" stroke-width="3.2"/>
<circle clip-path="url(#clip331)" cx="1921.98" cy="358.195" r="14.4" fill="#009af9" fill-rule="evenodd" fill-opacity="0.5" stroke="#000000" stroke-opacity="0.5" stroke-width="3.2"/>
<circle clip-path="url(#clip331)" cx="1833.43" cy="295.017" r="14.4" fill="#009af9" fill-rule="evenodd" fill-opacity="0.5" stroke="#000000" stroke-opacity="0.5" stroke-width="3.2"/>
<circle clip-path="url(#clip331)" cx="1762.74" cy="723.578" r="14.4" fill="#009af9" fill-rule="evenodd" fill-opacity="0.5" stroke="#000000" stroke-opacity="0.5" stroke-width="3.2"/>
<circle clip-path="url(#clip331)" cx="1077.23" cy="458.923" r="14.4" fill="#009af9" fill-rule="evenodd" fill-opacity="0.5" stroke="#000000" stroke-opacity="0.5" stroke-width="3.2"/>
<circle clip-path="url(#clip331)" cx="1625.55" cy="365.944" r="14.4" fill="#009af9" fill-rule="evenodd" fill-opacity="0.5" stroke="#000000" stroke-opacity="0.5" stroke-width="3.2"/>
<circle clip-path="url(#clip331)" cx="1703.5" cy="383.1" r="14.4" fill="#009af9" fill-rule="evenodd" fill-opacity="0.5" stroke="#000000" stroke-opacity="0.5" stroke-width="3.2"/>
<circle clip-path="url(#clip331)" cx="1278.48" cy="340.354" r="14.4" fill="#009af9" fill-rule="evenodd" fill-opacity="0.5" stroke="#000000" stroke-opacity="0.5" stroke-width="3.2"/>
<circle clip-path="url(#clip331)" cx="1849.05" cy="280.301" r="14.4" fill="#009af9" fill-rule="evenodd" fill-opacity="0.5" stroke="#000000" stroke-opacity="0.5" stroke-width="3.2"/>
<circle clip-path="url(#clip331)" cx="1209.29" cy="87.9763" r="14.4" fill="#009af9" fill-rule="evenodd" fill-opacity="0.5" stroke="#000000" stroke-opacity="0.5" stroke-width="3.2"/>
<circle clip-path="url(#clip331)" cx="1852.97" cy="464.892" r="14.4" fill="#009af9" fill-rule="evenodd" fill-opacity="0.5" stroke="#000000" stroke-opacity="0.5" stroke-width="3.2"/>
<circle clip-path="url(#clip331)" cx="1040.12" cy="410.877" r="14.4" fill="#009af9" fill-rule="evenodd" fill-opacity="0.5" stroke="#000000" stroke-opacity="0.5" stroke-width="3.2"/>
<circle clip-path="url(#clip331)" cx="1860.98" cy="473.084" r="14.4" fill="#009af9" fill-rule="evenodd" fill-opacity="0.5" stroke="#000000" stroke-opacity="0.5" stroke-width="3.2"/>
<circle clip-path="url(#clip331)" cx="1562.13" cy="800.899" r="14.4" fill="#009af9" fill-rule="evenodd" fill-opacity="0.5" stroke="#000000" stroke-opacity="0.5" stroke-width="3.2"/>
<circle clip-path="url(#clip331)" cx="2290.36" cy="1050.7" r="14.4" fill="#009af9" fill-rule="evenodd" fill-opacity="0.5" stroke="#000000" stroke-opacity="0.5" stroke-width="3.2"/>
<circle clip-path="url(#clip331)" cx="1975.27" cy="627.161" r="14.4" fill="#009af9" fill-rule="evenodd" fill-opacity="0.5" stroke="#000000" stroke-opacity="0.5" stroke-width="3.2"/>
<path clip-path="url(#clip331)" d="M210.454 774.312 L1839.22 1445.72 L2290.36 1050.7 L2250.07 388.517 L2123.1 137.654 L1741.83 108.02 L1209.29 87.9763 L210.454 774.312 L210.454 774.312  Z" fill="#e26f46" fill-rule="evenodd" fill-opacity="0.2"/>
<polyline clip-path="url(#clip331)" style="stroke:#000000; stroke-linecap:round; stroke-linejoin:round; stroke-width:4; stroke-opacity:0.2; fill:none" points="210.454,774.312 1839.22,1445.72 2290.36,1050.7 2250.07,388.517 2123.1,137.654 1741.83,108.02 1209.29,87.9763 210.454,774.312 "/>
</svg>
