<?xml version="1.0" encoding="utf-8"?>
<svg xmlns="http://www.w3.org/2000/svg" xmlns:xlink="http://www.w3.org/1999/xlink" width="600" height="400" viewBox="0 0 2400 1600">
<defs>
  <clipPath id="clip080">
    <rect x="0" y="0" width="2400" height="1600"/>
  </clipPath>
</defs>
<path clip-path="url(#clip080)" d="M0 1600 L2400 1600 L2400 0 L0 0  Z" fill="#ffffff" fill-rule="evenodd" fill-opacity="1"/>
<defs>
  <clipPath id="clip081">
    <rect x="480" y="0" width="1681" height="1600"/>
  </clipPath>
</defs>
<path clip-path="url(#clip080)" d="M147.478 1486.45 L2352.76 1486.45 L2352.76 47.2441 L147.478 47.2441  Z" fill="#ffffff" fill-rule="evenodd" fill-opacity="1"/>
<defs>
  <clipPath id="clip082">
    <rect x="147" y="47" width="2206" height="1440"/>
  </clipPath>
</defs>
<polyline clip-path="url(#clip082)" style="stroke:#000000; stroke-linecap:round; stroke-linejoin:round; stroke-width:2; stroke-opacity:0.1; fill:none" points="390.832,1486.45 390.832,47.2441 "/>
<polyline clip-path="url(#clip082)" style="stroke:#000000; stroke-linecap:round; stroke-linejoin:round; stroke-width:2; stroke-opacity:0.1; fill:none" points="700.844,1486.45 700.844,47.2441 "/>
<polyline clip-path="url(#clip082)" style="stroke:#000000; stroke-linecap:round; stroke-linejoin:round; stroke-width:2; stroke-opacity:0.1; fill:none" points="1010.86,1486.45 1010.86,47.2441 "/>
<polyline clip-path="url(#clip082)" style="stroke:#000000; stroke-linecap:round; stroke-linejoin:round; stroke-width:2; stroke-opacity:0.1; fill:none" points="1320.87,1486.45 1320.87,47.2441 "/>
<polyline clip-path="url(#clip082)" style="stroke:#000000; stroke-linecap:round; stroke-linejoin:round; stroke-width:2; stroke-opacity:0.1; fill:none" points="1630.88,1486.45 1630.88,47.2441 "/>
<polyline clip-path="url(#clip082)" style="stroke:#000000; stroke-linecap:round; stroke-linejoin:round; stroke-width:2; stroke-opacity:0.1; fill:none" points="1940.89,1486.45 1940.89,47.2441 "/>
<polyline clip-path="url(#clip082)" style="stroke:#000000; stroke-linecap:round; stroke-linejoin:round; stroke-width:2; stroke-opacity:0.1; fill:none" points="2250.91,1486.45 2250.91,47.2441 "/>
<polyline clip-path="url(#clip082)" style="stroke:#000000; stroke-linecap:round; stroke-linejoin:round; stroke-width:2; stroke-opacity:0.1; fill:none" points="147.478,1395.91 2352.76,1395.91 "/>
<polyline clip-path="url(#clip082)" style="stroke:#000000; stroke-linecap:round; stroke-linejoin:round; stroke-width:2; stroke-opacity:0.1; fill:none" points="147.478,1040.97 2352.76,1040.97 "/>
<polyline clip-path="url(#clip082)" style="stroke:#000000; stroke-linecap:round; stroke-linejoin:round; stroke-width:2; stroke-opacity:0.1; fill:none" points="147.478,686.037 2352.76,686.037 "/>
<polyline clip-path="url(#clip082)" style="stroke:#000000; stroke-linecap:round; stroke-linejoin:round; stroke-width:2; stroke-opacity:0.1; fill:none" points="147.478,331.099 2352.76,331.099 "/>
<polyline clip-path="url(#clip080)" style="stroke:#000000; stroke-linecap:round; stroke-linejoin:round; stroke-width:4; stroke-opacity:1; fill:none" points="147.478,1486.45 2352.76,1486.45 "/>
<polyline clip-path="url(#clip080)" style="stroke:#000000; stroke-linecap:round; stroke-linejoin:round; stroke-width:4; stroke-opacity:1; fill:none" points="390.832,1486.45 390.832,1467.55 "/>
<polyline clip-path="url(#clip080)" style="stroke:#000000; stroke-linecap:round; stroke-linejoin:round; stroke-width:4; stroke-opacity:1; fill:none" points="700.844,1486.45 700.844,1467.55 "/>
<polyline clip-path="url(#clip080)" style="stroke:#000000; stroke-linecap:round; stroke-linejoin:round; stroke-width:4; stroke-opacity:1; fill:none" points="1010.86,1486.45 1010.86,1467.55 "/>
<polyline clip-path="url(#clip080)" style="stroke:#000000; stroke-linecap:round; stroke-linejoin:round; stroke-width:4; stroke-opacity:1; fill:none" points="1320.87,1486.45 1320.87,1467.55 "/>
<polyline clip-path="url(#clip080)" style="stroke:#000000; stroke-linecap:round; stroke-linejoin:round; stroke-width:4; stroke-opacity:1; fill:none" points="1630.88,1486.45 1630.88,1467.55 "/>
<polyline clip-path="url(#clip080)" style="stroke:#000000; stroke-linecap:round; stroke-linejoin:round; stroke-width:4; stroke-opacity:1; fill:none" points="1940.89,1486.45 1940.89,1467.55 "/>
<polyline clip-path="url(#clip080)" style="stroke:#000000; stroke-linecap:round; stroke-linejoin:round; stroke-width:4; stroke-opacity:1; fill:none" points="2250.91,1486.45 2250.91,1467.55 "/>
<path clip-path="url(#clip080)" d="M337.858 1532.02 L367.533 1532.02 L367.533 1535.95 L337.858 1535.95 L337.858 1532.02 Z" fill="#000000" fill-rule="nonzero" fill-opacity="1" /><path clip-path="url(#clip080)" d="M378.436 1544.91 L386.075 1544.91 L386.075 1518.55 L377.765 1520.21 L377.765 1515.95 L386.029 1514.29 L390.705 1514.29 L390.705 1544.91 L398.343 1544.91 L398.343 1548.85 L378.436 1548.85 L378.436 1544.91 Z" fill="#000000" fill-rule="nonzero" fill-opacity="1" /><path clip-path="url(#clip080)" d="M407.788 1542.97 L412.672 1542.97 L412.672 1548.85 L407.788 1548.85 L407.788 1542.97 Z" fill="#000000" fill-rule="nonzero" fill-opacity="1" /><path clip-path="url(#clip080)" d="M422.904 1514.29 L441.26 1514.29 L441.26 1518.22 L427.186 1518.22 L427.186 1526.7 Q428.204 1526.35 429.223 1526.19 Q430.241 1526 431.26 1526 Q437.047 1526 440.427 1529.17 Q443.806 1532.34 443.806 1537.76 Q443.806 1543.34 440.334 1546.44 Q436.862 1549.52 430.542 1549.52 Q428.366 1549.52 426.098 1549.15 Q423.853 1548.78 421.445 1548.04 L421.445 1543.34 Q423.529 1544.47 425.751 1545.03 Q427.973 1545.58 430.45 1545.58 Q434.454 1545.58 436.792 1543.48 Q439.13 1541.37 439.13 1537.76 Q439.13 1534.15 436.792 1532.04 Q434.454 1529.94 430.45 1529.94 Q428.575 1529.94 426.7 1530.35 Q424.848 1530.77 422.904 1531.65 L422.904 1514.29 Z" fill="#000000" fill-rule="nonzero" fill-opacity="1" /><path clip-path="url(#clip080)" d="M647.372 1532.02 L677.048 1532.02 L677.048 1535.95 L647.372 1535.95 L647.372 1532.02 Z" fill="#000000" fill-rule="nonzero" fill-opacity="1" /><path clip-path="url(#clip080)" d="M687.951 1544.91 L695.59 1544.91 L695.59 1518.55 L687.28 1520.21 L687.28 1515.95 L695.544 1514.29 L700.219 1514.29 L700.219 1544.91 L707.858 1544.91 L707.858 1548.85 L687.951 1548.85 L687.951 1544.91 Z" fill="#000000" fill-rule="nonzero" fill-opacity="1" /><path clip-path="url(#clip080)" d="M717.303 1542.97 L722.187 1542.97 L722.187 1548.85 L717.303 1548.85 L717.303 1542.97 Z" fill="#000000" fill-rule="nonzero" fill-opacity="1" /><path clip-path="url(#clip080)" d="M742.372 1517.37 Q738.761 1517.37 736.932 1520.93 Q735.127 1524.47 735.127 1531.6 Q735.127 1538.71 736.932 1542.27 Q738.761 1545.82 742.372 1545.82 Q746.006 1545.82 747.812 1542.27 Q749.64 1538.71 749.64 1531.6 Q749.64 1524.47 747.812 1520.93 Q746.006 1517.37 742.372 1517.37 M742.372 1513.66 Q748.182 1513.66 751.238 1518.27 Q754.316 1522.85 754.316 1531.6 Q754.316 1540.33 751.238 1544.94 Q748.182 1549.52 742.372 1549.52 Q736.562 1549.52 733.483 1544.94 Q730.428 1540.33 730.428 1531.6 Q730.428 1522.85 733.483 1518.27 Q736.562 1513.66 742.372 1513.66 Z" fill="#000000" fill-rule="nonzero" fill-opacity="1" /><path clip-path="url(#clip080)" d="M957.883 1532.02 L987.558 1532.02 L987.558 1535.95 L957.883 1535.95 L957.883 1532.02 Z" fill="#000000" fill-rule="nonzero" fill-opacity="1" /><path clip-path="url(#clip080)" d="M1007.65 1517.37 Q1004.04 1517.37 1002.21 1520.93 Q1000.41 1524.47 1000.41 1531.6 Q1000.41 1538.71 1002.21 1542.27 Q1004.04 1545.82 1007.65 1545.82 Q1011.29 1545.82 1013.09 1542.27 Q1014.92 1538.71 1014.92 1531.6 Q1014.92 1524.47 1013.09 1520.93 Q1011.29 1517.37 1007.65 1517.37 M1007.65 1513.66 Q1013.46 1513.66 1016.52 1518.27 Q1019.6 1522.85 1019.6 1531.6 Q1019.6 1540.33 1016.52 1544.94 Q1013.46 1549.52 1007.65 1549.52 Q1001.84 1549.52 998.762 1544.94 Q995.707 1540.33 995.707 1531.6 Q995.707 1522.85 998.762 1518.27 Q1001.84 1513.66 1007.65 1513.66 Z" fill="#000000" fill-rule="nonzero" fill-opacity="1" /><path clip-path="url(#clip080)" d="M1027.81 1542.97 L1032.7 1542.97 L1032.7 1548.85 L1027.81 1548.85 L1027.81 1542.97 Z" fill="#000000" fill-rule="nonzero" fill-opacity="1" /><path clip-path="url(#clip080)" d="M1042.93 1514.29 L1061.28 1514.29 L1061.28 1518.22 L1047.21 1518.22 L1047.21 1526.7 Q1048.23 1526.35 1049.25 1526.19 Q1050.27 1526 1051.28 1526 Q1057.07 1526 1060.45 1529.17 Q1063.83 1532.34 1063.83 1537.76 Q1063.83 1543.34 1060.36 1546.44 Q1056.89 1549.52 1050.57 1549.52 Q1048.39 1549.52 1046.12 1549.15 Q1043.88 1548.78 1041.47 1548.04 L1041.47 1543.34 Q1043.55 1544.47 1045.78 1545.03 Q1048 1545.58 1050.47 1545.58 Q1054.48 1545.58 1056.82 1543.48 Q1059.16 1541.37 1059.16 1537.76 Q1059.16 1534.15 1056.82 1532.04 Q1054.48 1529.94 1050.47 1529.94 Q1048.6 1529.94 1046.72 1530.35 Q1044.87 1530.77 1042.93 1531.65 L1042.93 1514.29 Z" fill="#000000" fill-rule="nonzero" fill-opacity="1" /><path clip-path="url(#clip080)" d="M1298.25 1517.37 Q1294.64 1517.37 1292.81 1520.93 Q1291.01 1524.47 1291.01 1531.6 Q1291.01 1538.71 1292.81 1542.27 Q1294.64 1545.82 1298.25 1545.82 Q1301.89 1545.82 1303.69 1542.27 Q1305.52 1538.71 1305.52 1531.6 Q1305.52 1524.47 1303.69 1520.93 Q1301.89 1517.37 1298.25 1517.37 M1298.25 1513.66 Q1304.06 1513.66 1307.12 1518.27 Q1310.2 1522.85 1310.2 1531.6 Q1310.2 1540.33 1307.12 1544.94 Q1304.06 1549.52 1298.25 1549.52 Q1292.44 1549.52 1289.36 1544.94 Q1286.31 1540.33 1286.31 1531.6 Q1286.31 1522.85 1289.36 1518.27 Q1292.44 1513.66 1298.25 1513.66 Z" fill="#000000" fill-rule="nonzero" fill-opacity="1" /><path clip-path="url(#clip080)" d="M1318.42 1542.97 L1323.3 1542.97 L1323.3 1548.85 L1318.42 1548.85 L1318.42 1542.97 Z" fill="#000000" fill-rule="nonzero" fill-opacity="1" /><path clip-path="url(#clip080)" d="M1343.49 1517.37 Q1339.87 1517.37 1338.05 1520.93 Q1336.24 1524.47 1336.24 1531.6 Q1336.24 1538.71 1338.05 1542.27 Q1339.87 1545.82 1343.49 1545.82 Q1347.12 1545.82 1348.92 1542.27 Q1350.75 1538.71 1350.75 1531.6 Q1350.75 1524.47 1348.92 1520.93 Q1347.12 1517.37 1343.49 1517.37 M1343.49 1513.66 Q1349.3 1513.66 1352.35 1518.27 Q1355.43 1522.85 1355.43 1531.6 Q1355.43 1540.33 1352.35 1544.94 Q1349.3 1549.52 1343.49 1549.52 Q1337.67 1549.52 1334.6 1544.94 Q1331.54 1540.33 1331.54 1531.6 Q1331.54 1522.85 1334.6 1518.27 Q1337.67 1513.66 1343.49 1513.66 Z" fill="#000000" fill-rule="nonzero" fill-opacity="1" /><path clip-path="url(#clip080)" d="M1608.76 1517.37 Q1605.15 1517.37 1603.32 1520.93 Q1601.52 1524.47 1601.52 1531.6 Q1601.52 1538.71 1603.32 1542.27 Q1605.15 1545.82 1608.76 1545.82 Q1612.4 1545.82 1614.2 1542.27 Q1616.03 1538.71 1616.03 1531.6 Q1616.03 1524.47 1614.2 1520.93 Q1612.4 1517.37 1608.76 1517.37 M1608.76 1513.66 Q1614.57 1513.66 1617.63 1518.27 Q1620.71 1522.85 1620.71 1531.6 Q1620.71 1540.33 1617.63 1544.94 Q1614.57 1549.52 1608.76 1549.52 Q1602.95 1549.52 1599.88 1544.94 Q1596.82 1540.33 1596.82 1531.6 Q1596.82 1522.85 1599.88 1518.27 Q1602.95 1513.66 1608.76 1513.66 Z" fill="#000000" fill-rule="nonzero" fill-opacity="1" /><path clip-path="url(#clip080)" d="M1628.93 1542.97 L1633.81 1542.97 L1633.81 1548.85 L1628.93 1548.85 L1628.93 1542.97 Z" fill="#000000" fill-rule="nonzero" fill-opacity="1" /><path clip-path="url(#clip080)" d="M1644.04 1514.29 L1662.4 1514.29 L1662.4 1518.22 L1648.32 1518.22 L1648.32 1526.7 Q1649.34 1526.35 1650.36 1526.19 Q1651.38 1526 1652.4 1526 Q1658.18 1526 1661.56 1529.17 Q1664.94 1532.34 1664.94 1537.76 Q1664.94 1543.34 1661.47 1546.44 Q1658 1549.52 1651.68 1549.52 Q1649.5 1549.52 1647.24 1549.15 Q1644.99 1548.78 1642.58 1548.04 L1642.58 1543.34 Q1644.67 1544.47 1646.89 1545.03 Q1649.11 1545.58 1651.59 1545.58 Q1655.59 1545.58 1657.93 1543.48 Q1660.27 1541.37 1660.27 1537.76 Q1660.27 1534.15 1657.93 1532.04 Q1655.59 1529.94 1651.59 1529.94 Q1649.71 1529.94 1647.84 1530.35 Q1645.99 1530.77 1644.04 1531.65 L1644.04 1514.29 Z" fill="#000000" fill-rule="nonzero" fill-opacity="1" /><path clip-path="url(#clip080)" d="M1908.05 1544.91 L1915.69 1544.91 L1915.69 1518.55 L1907.38 1520.21 L1907.38 1515.95 L1915.64 1514.29 L1920.32 1514.29 L1920.32 1544.91 L1927.95 1544.91 L1927.95 1548.85 L1908.05 1548.85 L1908.05 1544.91 Z" fill="#000000" fill-rule="nonzero" fill-opacity="1" /><path clip-path="url(#clip080)" d="M1937.4 1542.97 L1942.28 1542.97 L1942.28 1548.85 L1937.4 1548.85 L1937.4 1542.97 Z" fill="#000000" fill-rule="nonzero" fill-opacity="1" /><path clip-path="url(#clip080)" d="M1962.47 1517.37 Q1958.86 1517.37 1957.03 1520.93 Q1955.22 1524.47 1955.22 1531.6 Q1955.22 1538.71 1957.03 1542.27 Q1958.86 1545.82 1962.47 1545.82 Q1966.1 1545.82 1967.91 1542.27 Q1969.74 1538.71 1969.74 1531.6 Q1969.74 1524.47 1967.91 1520.93 Q1966.1 1517.37 1962.47 1517.37 M1962.47 1513.66 Q1968.28 1513.66 1971.33 1518.27 Q1974.41 1522.85 1974.41 1531.6 Q1974.41 1540.33 1971.33 1544.94 Q1968.28 1549.52 1962.47 1549.52 Q1956.66 1549.52 1953.58 1544.94 Q1950.52 1540.33 1950.52 1531.6 Q1950.52 1522.85 1953.58 1518.27 Q1956.66 1513.66 1962.47 1513.66 Z" fill="#000000" fill-rule="nonzero" fill-opacity="1" /><path clip-path="url(#clip080)" d="M2218.56 1544.91 L2226.2 1544.91 L2226.2 1518.55 L2217.89 1520.21 L2217.89 1515.95 L2226.15 1514.29 L2230.83 1514.29 L2230.83 1544.91 L2238.46 1544.91 L2238.46 1548.85 L2218.56 1548.85 L2218.56 1544.91 Z" fill="#000000" fill-rule="nonzero" fill-opacity="1" /><path clip-path="url(#clip080)" d="M2247.91 1542.97 L2252.79 1542.97 L2252.79 1548.85 L2247.91 1548.85 L2247.91 1542.97 Z" fill="#000000" fill-rule="nonzero" fill-opacity="1" /><path clip-path="url(#clip080)" d="M2263.02 1514.29 L2281.38 1514.29 L2281.38 1518.22 L2267.31 1518.22 L2267.31 1526.7 Q2268.33 1526.35 2269.34 1526.19 Q2270.36 1526 2271.38 1526 Q2277.17 1526 2280.55 1529.17 Q2283.93 1532.34 2283.93 1537.76 Q2283.93 1543.34 2280.46 1546.44 Q2276.98 1549.52 2270.66 1549.52 Q2268.49 1549.52 2266.22 1549.15 Q2263.97 1548.78 2261.57 1548.04 L2261.57 1543.34 Q2263.65 1544.47 2265.87 1545.03 Q2268.09 1545.58 2270.57 1545.58 Q2274.58 1545.58 2276.91 1543.48 Q2279.25 1541.37 2279.25 1537.76 Q2279.25 1534.15 2276.91 1532.04 Q2274.58 1529.94 2270.57 1529.94 Q2268.7 1529.94 2266.82 1530.35 Q2264.97 1530.77 2263.02 1531.65 L2263.02 1514.29 Z" fill="#000000" fill-rule="nonzero" fill-opacity="1" /><polyline clip-path="url(#clip080)" style="stroke:#000000; stroke-linecap:round; stroke-linejoin:round; stroke-width:4; stroke-opacity:1; fill:none" points="147.478,1486.45 147.478,47.2441 "/>
<polyline clip-path="url(#clip080)" style="stroke:#000000; stroke-linecap:round; stroke-linejoin:round; stroke-width:4; stroke-opacity:1; fill:none" points="147.478,1395.91 166.376,1395.91 "/>
<polyline clip-path="url(#clip080)" style="stroke:#000000; stroke-linecap:round; stroke-linejoin:round; stroke-width:4; stroke-opacity:1; fill:none" points="147.478,1040.97 166.376,1040.97 "/>
<polyline clip-path="url(#clip080)" style="stroke:#000000; stroke-linecap:round; stroke-linejoin:round; stroke-width:4; stroke-opacity:1; fill:none" points="147.478,686.037 166.376,686.037 "/>
<polyline clip-path="url(#clip080)" style="stroke:#000000; stroke-linecap:round; stroke-linejoin:round; stroke-width:4; stroke-opacity:1; fill:none" points="147.478,331.099 166.376,331.099 "/>
<path clip-path="url(#clip080)" d="M51.3625 1396.36 L81.0383 1396.36 L81.0383 1400.3 L51.3625 1400.3 L51.3625 1396.36 Z" fill="#000000" fill-rule="nonzero" fill-opacity="1" /><path clip-path="url(#clip080)" d="M95.1586 1409.26 L111.478 1409.26 L111.478 1413.19 L89.5336 1413.19 L89.5336 1409.26 Q92.1956 1406.5 96.7789 1401.87 Q101.385 1397.22 102.566 1395.88 Q104.811 1393.36 105.691 1391.62 Q106.594 1389.86 106.594 1388.17 Q106.594 1385.42 104.649 1383.68 Q102.728 1381.94 99.6261 1381.94 Q97.4271 1381.94 94.9734 1382.71 Q92.5428 1383.47 89.7651 1385.02 L89.7651 1380.3 Q92.5891 1379.17 95.0428 1378.59 Q97.4965 1378.01 99.5335 1378.01 Q104.904 1378.01 108.098 1380.69 Q111.293 1383.38 111.293 1387.87 Q111.293 1390 110.483 1391.92 Q109.696 1393.82 107.589 1396.41 Q107.01 1397.08 103.909 1400.3 Q100.807 1403.49 95.1586 1409.26 Z" fill="#000000" fill-rule="nonzero" fill-opacity="1" /><path clip-path="url(#clip080)" d="M50.9921 1041.43 L80.6679 1041.43 L80.6679 1045.36 L50.9921 1045.36 L50.9921 1041.43 Z" fill="#000000" fill-rule="nonzero" fill-opacity="1" /><path clip-path="url(#clip080)" d="M91.5706 1054.32 L99.2095 1054.32 L99.2095 1027.95 L90.8993 1029.62 L90.8993 1025.36 L99.1632 1023.69 L103.839 1023.69 L103.839 1054.32 L111.478 1054.32 L111.478 1058.25 L91.5706 1058.25 L91.5706 1054.32 Z" fill="#000000" fill-rule="nonzero" fill-opacity="1" /><path clip-path="url(#clip080)" d="M99.5335 671.835 Q95.9224 671.835 94.0937 675.4 Q92.2882 678.942 92.2882 686.071 Q92.2882 693.178 94.0937 696.743 Q95.9224 700.284 99.5335 700.284 Q103.168 700.284 104.973 696.743 Q106.802 693.178 106.802 686.071 Q106.802 678.942 104.973 675.4 Q103.168 671.835 99.5335 671.835 M99.5335 668.132 Q105.344 668.132 108.399 672.738 Q111.478 677.321 111.478 686.071 Q111.478 694.798 108.399 699.405 Q105.344 703.988 99.5335 703.988 Q93.7234 703.988 90.6447 699.405 Q87.5892 694.798 87.5892 686.071 Q87.5892 677.321 90.6447 672.738 Q93.7234 668.132 99.5335 668.132 Z" fill="#000000" fill-rule="nonzero" fill-opacity="1" /><path clip-path="url(#clip080)" d="M91.5706 344.443 L99.2095 344.443 L99.2095 318.078 L90.8993 319.744 L90.8993 315.485 L99.1632 313.819 L103.839 313.819 L103.839 344.443 L111.478 344.443 L111.478 348.379 L91.5706 348.379 L91.5706 344.443 Z" fill="#000000" fill-rule="nonzero" fill-opacity="1" /><circle clip-path="url(#clip082)" cx="364.042" cy="545.93" r="14.4" fill="#009af9" fill-rule="evenodd" fill-opacity="0.5" stroke="#000000" stroke-opacity="0.5" stroke-width="3.2"/>
<circle clip-path="url(#clip082)" cx="877.143" cy="769.423" r="14.4" fill="#009af9" fill-rule="evenodd" fill-opacity="0.5" stroke="#000000" stroke-opacity="0.5" stroke-width="3.2"/>
<circle clip-path="url(#clip082)" cx="1140.89" cy="196.837" r="14.4" fill="#009af9" fill-rule="evenodd" fill-opacity="0.5" stroke="#000000" stroke-opacity="0.5" stroke-width="3.2"/>
<circle clip-path="url(#clip082)" cx="1161.02" cy="956.254" r="14.4" fill="#009af9" fill-rule="evenodd" fill-opacity="0.5" stroke="#000000" stroke-opacity="0.5" stroke-width="3.2"/>
<circle clip-path="url(#clip082)" cx="1387.39" cy="795.777" r="14.4" fill="#009af9" fill-rule="evenodd" fill-opacity="0.5" stroke="#000000" stroke-opacity="0.5" stroke-width="3.2"/>
<circle clip-path="url(#clip082)" cx="640.606" cy="630.255" r="14.4" fill="#009af9" fill-rule="evenodd" fill-opacity="0.5" stroke="#000000" stroke-opacity="0.5" stroke-width="3.2"/>
<circle clip-path="url(#clip082)" cx="350.048" cy="897.26" r="14.4" fill="#009af9" fill-rule="evenodd" fill-opacity="0.5" stroke="#000000" stroke-opacity="0.5" stroke-width="3.2"/>
<circle clip-path="url(#clip082)" cx="1729.15" cy="550.661" r="14.4" fill="#009af9" fill-rule="evenodd" fill-opacity="0.5" stroke="#000000" stroke-opacity="0.5" stroke-width="3.2"/>
<circle clip-path="url(#clip082)" cx="1355.62" cy="762.31" r="14.4" fill="#009af9" fill-rule="evenodd" fill-opacity="0.5" stroke="#000000" stroke-opacity="0.5" stroke-width="3.2"/>
<circle clip-path="url(#clip082)" cx="1555.67" cy="933.808" r="14.4" fill="#009af9" fill-rule="evenodd" fill-opacity="0.5" stroke="#000000" stroke-opacity="0.5" stroke-width="3.2"/>
<circle clip-path="url(#clip082)" cx="649.531" cy="677.153" r="14.4" fill="#009af9" fill-rule="evenodd" fill-opacity="0.5" stroke="#000000" stroke-opacity="0.5" stroke-width="3.2"/>
<circle clip-path="url(#clip082)" cx="209.891" cy="87.9763" r="14.4" fill="#009af9" fill-rule="evenodd" fill-opacity="0.5" stroke="#000000" stroke-opacity="0.5" stroke-width="3.2"/>
<circle clip-path="url(#clip082)" cx="1613.48" cy="545.08" r="14.4" fill="#009af9" fill-rule="evenodd" fill-opacity="0.5" stroke="#000000" stroke-opacity="0.5" stroke-width="3.2"/>
<circle clip-path="url(#clip082)" cx="1832.89" cy="1445.72" r="14.4" fill="#009af9" fill-rule="evenodd" fill-opacity="0.5" stroke="#000000" stroke-opacity="0.5" stroke-width="3.2"/>
<circle clip-path="url(#clip082)" cx="2290.34" cy="747.166" r="14.4" fill="#009af9" fill-rule="evenodd" fill-opacity="0.5" stroke="#000000" stroke-opacity="0.5" stroke-width="3.2"/>
<circle clip-path="url(#clip082)" cx="1890.74" cy="793.934" r="14.4" fill="#009af9" fill-rule="evenodd" fill-opacity="0.5" stroke="#000000" stroke-opacity="0.5" stroke-width="3.2"/>
<circle clip-path="url(#clip082)" cx="688.463" cy="837.307" r="14.4" fill="#009af9" fill-rule="evenodd" fill-opacity="0.5" stroke="#000000" stroke-opacity="0.5" stroke-width="3.2"/>
<circle clip-path="url(#clip082)" cx="1765.75" cy="966.913" r="14.4" fill="#009af9" fill-rule="evenodd" fill-opacity="0.5" stroke="#000000" stroke-opacity="0.5" stroke-width="3.2"/>
<circle clip-path="url(#clip082)" cx="1112.11" cy="918.785" r="14.4" fill="#009af9" fill-rule="evenodd" fill-opacity="0.5" stroke="#000000" stroke-opacity="0.5" stroke-width="3.2"/>
<circle clip-path="url(#clip082)" cx="1019.08" cy="217.386" r="14.4" fill="#009af9" fill-rule="evenodd" fill-opacity="0.5" stroke="#000000" stroke-opacity="0.5" stroke-width="3.2"/>
<circle clip-path="url(#clip082)" cx="1234.88" cy="683.074" r="14.4" fill="#009af9" fill-rule="evenodd" fill-opacity="0.5" stroke="#000000" stroke-opacity="0.5" stroke-width="3.2"/>
<circle clip-path="url(#clip082)" cx="1379.64" cy="992.157" r="14.4" fill="#009af9" fill-rule="evenodd" fill-opacity="0.5" stroke="#000000" stroke-opacity="0.5" stroke-width="3.2"/>
<circle clip-path="url(#clip082)" cx="1325.96" cy="740.056" r="14.4" fill="#009af9" fill-rule="evenodd" fill-opacity="0.5" stroke="#000000" stroke-opacity="0.5" stroke-width="3.2"/>
<circle clip-path="url(#clip082)" cx="1083.89" cy="177.12" r="14.4" fill="#009af9" fill-rule="evenodd" fill-opacity="0.5" stroke="#000000" stroke-opacity="0.5" stroke-width="3.2"/>
<circle clip-path="url(#clip082)" cx="1707.21" cy="402.995" r="14.4" fill="#009af9" fill-rule="evenodd" fill-opacity="0.5" stroke="#000000" stroke-opacity="0.5" stroke-width="3.2"/>
<circle clip-path="url(#clip082)" cx="444.019" cy="1021.99" r="14.4" fill="#009af9" fill-rule="evenodd" fill-opacity="0.5" stroke="#000000" stroke-opacity="0.5" stroke-width="3.2"/>
<circle clip-path="url(#clip082)" cx="512.307" cy="587.223" r="14.4" fill="#009af9" fill-rule="evenodd" fill-opacity="0.5" stroke="#000000" stroke-opacity="0.5" stroke-width="3.2"/>
<circle clip-path="url(#clip082)" cx="1677.85" cy="1222.81" r="14.4" fill="#009af9" fill-rule="evenodd" fill-opacity="0.5" stroke="#000000" stroke-opacity="0.5" stroke-width="3.2"/>
<circle clip-path="url(#clip082)" cx="979.564" cy="786.299" r="14.4" fill="#009af9" fill-rule="evenodd" fill-opacity="0.5" stroke="#000000" stroke-opacity="0.5" stroke-width="3.2"/>
<circle clip-path="url(#clip082)" cx="2069.07" cy="690.426" r="14.4" fill="#009af9" fill-rule="evenodd" fill-opacity="0.5" stroke="#000000" stroke-opacity="0.5" stroke-width="3.2"/>
<path clip-path="url(#clip082)" d="M209.891 87.9763 L350.048 897.26 L444.019 1021.99 L1832.89 1445.72 L2290.34 747.166 L1707.21 402.995 L1140.89 196.837 L1083.89 177.12 L209.891 87.9763 L209.891 87.9763  Z" fill="#e26f46" fill-rule="evenodd" fill-opacity="0.2"/>
<polyline clip-path="url(#clip082)" style="stroke:#000000; stroke-linecap:round; stroke-linejoin:round; stroke-width:4; stroke-opacity:0.2; fill:none" points="209.891,87.9763 350.048,897.26 444.019,1021.99 1832.89,1445.72 2290.34,747.166 1707.21,402.995 1140.89,196.837 1083.89,177.12 209.891,87.9763 "/>
</svg>
