<?xml version="1.0" encoding="utf-8"?>
<svg xmlns="http://www.w3.org/2000/svg" xmlns:xlink="http://www.w3.org/1999/xlink" width="600" height="400" viewBox="0 0 2400 1600">
<defs>
  <clipPath id="clip240">
    <rect x="0" y="0" width="2400" height="1600"/>
  </clipPath>
</defs>
<path clip-path="url(#clip240)" d="M0 1600 L2400 1600 L2400 0 L0 0  Z" fill="#ffffff" fill-rule="evenodd" fill-opacity="1"/>
<defs>
  <clipPath id="clip241">
    <rect x="480" y="0" width="1681" height="1600"/>
  </clipPath>
</defs>
<path clip-path="url(#clip240)" d="M147.478 1486.45 L2352.76 1486.45 L2352.76 47.2441 L147.478 47.2441  Z" fill="#ffffff" fill-rule="evenodd" fill-opacity="1"/>
<defs>
  <clipPath id="clip242">
    <rect x="147" y="47" width="2206" height="1440"/>
  </clipPath>
</defs>
<polyline clip-path="url(#clip242)" style="stroke:#000000; stroke-linecap:round; stroke-linejoin:round; stroke-width:2; stroke-opacity:0.1; fill:none" points="227.319,1486.45 227.319,47.2441 "/>
<polyline clip-path="url(#clip242)" style="stroke:#000000; stroke-linecap:round; stroke-linejoin:round; stroke-width:2; stroke-opacity:0.1; fill:none" points="764.845,1486.45 764.845,47.2441 "/>
<polyline clip-path="url(#clip242)" style="stroke:#000000; stroke-linecap:round; stroke-linejoin:round; stroke-width:2; stroke-opacity:0.1; fill:none" points="1302.37,1486.45 1302.37,47.2441 "/>
<polyline clip-path="url(#clip242)" style="stroke:#000000; stroke-linecap:round; stroke-linejoin:round; stroke-width:2; stroke-opacity:0.1; fill:none" points="1839.9,1486.45 1839.9,47.2441 "/>
<polyline clip-path="url(#clip242)" style="stroke:#000000; stroke-linecap:round; stroke-linejoin:round; stroke-width:2; stroke-opacity:0.1; fill:none" points="147.478,1357.12 2352.76,1357.12 "/>
<polyline clip-path="url(#clip242)" style="stroke:#000000; stroke-linecap:round; stroke-linejoin:round; stroke-width:2; stroke-opacity:0.1; fill:none" points="147.478,1074.75 2352.76,1074.75 "/>
<polyline clip-path="url(#clip242)" style="stroke:#000000; stroke-linecap:round; stroke-linejoin:round; stroke-width:2; stroke-opacity:0.1; fill:none" points="147.478,792.382 2352.76,792.382 "/>
<polyline clip-path="url(#clip242)" style="stroke:#000000; stroke-linecap:round; stroke-linejoin:round; stroke-width:2; stroke-opacity:0.1; fill:none" points="147.478,510.014 2352.76,510.014 "/>
<polyline clip-path="url(#clip242)" style="stroke:#000000; stroke-linecap:round; stroke-linejoin:round; stroke-width:2; stroke-opacity:0.1; fill:none" points="147.478,227.647 2352.76,227.647 "/>
<polyline clip-path="url(#clip240)" style="stroke:#000000; stroke-linecap:round; stroke-linejoin:round; stroke-width:4; stroke-opacity:1; fill:none" points="147.478,1486.45 2352.76,1486.45 "/>
<polyline clip-path="url(#clip240)" style="stroke:#000000; stroke-linecap:round; stroke-linejoin:round; stroke-width:4; stroke-opacity:1; fill:none" points="227.319,1486.45 227.319,1467.55 "/>
<polyline clip-path="url(#clip240)" style="stroke:#000000; stroke-linecap:round; stroke-linejoin:round; stroke-width:4; stroke-opacity:1; fill:none" points="764.845,1486.45 764.845,1467.55 "/>
<polyline clip-path="url(#clip240)" style="stroke:#000000; stroke-linecap:round; stroke-linejoin:round; stroke-width:4; stroke-opacity:1; fill:none" points="1302.37,1486.45 1302.37,1467.55 "/>
<polyline clip-path="url(#clip240)" style="stroke:#000000; stroke-linecap:round; stroke-linejoin:round; stroke-width:4; stroke-opacity:1; fill:none" points="1839.9,1486.45 1839.9,1467.55 "/>
<path clip-path="url(#clip240)" d="M197.261 1532.02 L226.937 1532.02 L226.937 1535.95 L197.261 1535.95 L197.261 1532.02 Z" fill="#000000" fill-rule="nonzero" fill-opacity="1" /><path clip-path="url(#clip240)" d="M241.057 1544.91 L257.377 1544.91 L257.377 1548.85 L235.432 1548.85 L235.432 1544.91 Q238.094 1542.16 242.678 1537.53 Q247.284 1532.88 248.465 1531.53 Q250.71 1529.01 251.59 1527.27 Q252.492 1525.51 252.492 1523.82 Q252.492 1521.07 250.548 1519.33 Q248.627 1517.6 245.525 1517.6 Q243.326 1517.6 240.872 1518.36 Q238.441 1519.13 235.664 1520.68 L235.664 1515.95 Q238.488 1514.82 240.941 1514.24 Q243.395 1513.66 245.432 1513.66 Q250.803 1513.66 253.997 1516.35 Q257.191 1519.03 257.191 1523.52 Q257.191 1525.65 256.381 1527.57 Q255.594 1529.47 253.488 1532.07 Q252.909 1532.74 249.807 1535.95 Q246.705 1539.15 241.057 1544.91 Z" fill="#000000" fill-rule="nonzero" fill-opacity="1" /><path clip-path="url(#clip240)" d="M734.602 1532.02 L764.278 1532.02 L764.278 1535.95 L734.602 1535.95 L734.602 1532.02 Z" fill="#000000" fill-rule="nonzero" fill-opacity="1" /><path clip-path="url(#clip240)" d="M775.181 1544.91 L782.82 1544.91 L782.82 1518.55 L774.509 1520.21 L774.509 1515.95 L782.773 1514.29 L787.449 1514.29 L787.449 1544.91 L795.088 1544.91 L795.088 1548.85 L775.181 1548.85 L775.181 1544.91 Z" fill="#000000" fill-rule="nonzero" fill-opacity="1" /><path clip-path="url(#clip240)" d="M1302.37 1517.37 Q1298.76 1517.37 1296.93 1520.93 Q1295.13 1524.47 1295.13 1531.6 Q1295.13 1538.71 1296.93 1542.27 Q1298.76 1545.82 1302.37 1545.82 Q1306.01 1545.82 1307.81 1542.27 Q1309.64 1538.71 1309.64 1531.6 Q1309.64 1524.47 1307.81 1520.93 Q1306.01 1517.37 1302.37 1517.37 M1302.37 1513.66 Q1308.18 1513.66 1311.24 1518.27 Q1314.32 1522.85 1314.32 1531.6 Q1314.32 1540.33 1311.24 1544.94 Q1308.18 1549.52 1302.37 1549.52 Q1296.56 1549.52 1293.48 1544.94 Q1290.43 1540.33 1290.43 1531.6 Q1290.43 1522.85 1293.48 1518.27 Q1296.56 1513.66 1302.37 1513.66 Z" fill="#000000" fill-rule="nonzero" fill-opacity="1" /><path clip-path="url(#clip240)" d="M1830.28 1544.91 L1837.92 1544.91 L1837.92 1518.55 L1829.61 1520.21 L1829.61 1515.95 L1837.87 1514.29 L1842.55 1514.29 L1842.55 1544.91 L1850.19 1544.91 L1850.19 1548.85 L1830.28 1548.85 L1830.28 1544.91 Z" fill="#000000" fill-rule="nonzero" fill-opacity="1" /><polyline clip-path="url(#clip240)" style="stroke:#000000; stroke-linecap:round; stroke-linejoin:round; stroke-width:4; stroke-opacity:1; fill:none" points="147.478,1486.45 147.478,47.2441 "/>
<polyline clip-path="url(#clip240)" style="stroke:#000000; stroke-linecap:round; stroke-linejoin:round; stroke-width:4; stroke-opacity:1; fill:none" points="147.478,1357.12 166.376,1357.12 "/>
<polyline clip-path="url(#clip240)" style="stroke:#000000; stroke-linecap:round; stroke-linejoin:round; stroke-width:4; stroke-opacity:1; fill:none" points="147.478,1074.75 166.376,1074.75 "/>
<polyline clip-path="url(#clip240)" style="stroke:#000000; stroke-linecap:round; stroke-linejoin:round; stroke-width:4; stroke-opacity:1; fill:none" points="147.478,792.382 166.376,792.382 "/>
<polyline clip-path="url(#clip240)" style="stroke:#000000; stroke-linecap:round; stroke-linejoin:round; stroke-width:4; stroke-opacity:1; fill:none" points="147.478,510.014 166.376,510.014 "/>
<polyline clip-path="url(#clip240)" style="stroke:#000000; stroke-linecap:round; stroke-linejoin:round; stroke-width:4; stroke-opacity:1; fill:none" points="147.478,227.647 166.376,227.647 "/>
<path clip-path="url(#clip240)" d="M51.3625 1357.57 L81.0383 1357.57 L81.0383 1361.5 L51.3625 1361.5 L51.3625 1357.57 Z" fill="#000000" fill-rule="nonzero" fill-opacity="1" /><path clip-path="url(#clip240)" d="M95.1586 1370.46 L111.478 1370.46 L111.478 1374.4 L89.5336 1374.4 L89.5336 1370.46 Q92.1956 1367.71 96.7789 1363.08 Q101.385 1358.42 102.566 1357.08 Q104.811 1354.56 105.691 1352.82 Q106.594 1351.06 106.594 1349.37 Q106.594 1346.62 104.649 1344.88 Q102.728 1343.15 99.6261 1343.15 Q97.4271 1343.15 94.9734 1343.91 Q92.5428 1344.67 89.7651 1346.23 L89.7651 1341.5 Q92.5891 1340.37 95.0428 1339.79 Q97.4965 1339.21 99.5335 1339.21 Q104.904 1339.21 108.098 1341.9 Q111.293 1344.58 111.293 1349.07 Q111.293 1351.2 110.483 1353.12 Q109.696 1355.02 107.589 1357.61 Q107.01 1358.29 103.909 1361.5 Q100.807 1364.7 95.1586 1370.46 Z" fill="#000000" fill-rule="nonzero" fill-opacity="1" /><path clip-path="url(#clip240)" d="M50.9921 1075.2 L80.6679 1075.2 L80.6679 1079.14 L50.9921 1079.14 L50.9921 1075.2 Z" fill="#000000" fill-rule="nonzero" fill-opacity="1" /><path clip-path="url(#clip240)" d="M91.5706 1088.09 L99.2095 1088.09 L99.2095 1061.73 L90.8993 1063.4 L90.8993 1059.14 L99.1632 1057.47 L103.839 1057.47 L103.839 1088.09 L111.478 1088.09 L111.478 1092.03 L91.5706 1092.03 L91.5706 1088.09 Z" fill="#000000" fill-rule="nonzero" fill-opacity="1" /><path clip-path="url(#clip240)" d="M99.5335 778.18 Q95.9224 778.18 94.0937 781.745 Q92.2882 785.287 92.2882 792.416 Q92.2882 799.523 94.0937 803.088 Q95.9224 806.629 99.5335 806.629 Q103.168 806.629 104.973 803.088 Q106.802 799.523 106.802 792.416 Q106.802 785.287 104.973 781.745 Q103.168 778.18 99.5335 778.18 M99.5335 774.477 Q105.344 774.477 108.399 779.083 Q111.478 783.667 111.478 792.416 Q111.478 801.143 108.399 805.75 Q105.344 810.333 99.5335 810.333 Q93.7234 810.333 90.6447 805.75 Q87.5892 801.143 87.5892 792.416 Q87.5892 783.667 90.6447 779.083 Q93.7234 774.477 99.5335 774.477 Z" fill="#000000" fill-rule="nonzero" fill-opacity="1" /><path clip-path="url(#clip240)" d="M91.5706 523.359 L99.2095 523.359 L99.2095 496.993 L90.8993 498.66 L90.8993 494.401 L99.1632 492.734 L103.839 492.734 L103.839 523.359 L111.478 523.359 L111.478 527.294 L91.5706 527.294 L91.5706 523.359 Z" fill="#000000" fill-rule="nonzero" fill-opacity="1" /><path clip-path="url(#clip240)" d="M95.1586 240.992 L111.478 240.992 L111.478 244.927 L89.5336 244.927 L89.5336 240.992 Q92.1956 238.237 96.7789 233.607 Q101.385 228.955 102.566 227.612 Q104.811 225.089 105.691 223.353 Q106.594 221.594 106.594 219.904 Q106.594 217.149 104.649 215.413 Q102.728 213.677 99.6261 213.677 Q97.4271 213.677 94.9734 214.441 Q92.5428 215.205 89.7651 216.756 L89.7651 212.033 Q92.5891 210.899 95.0428 210.32 Q97.4965 209.742 99.5335 209.742 Q104.904 209.742 108.098 212.427 Q111.293 215.112 111.293 219.603 Q111.293 221.732 110.483 223.654 Q109.696 225.552 107.589 228.144 Q107.01 228.816 103.909 232.033 Q100.807 235.228 95.1586 240.992 Z" fill="#000000" fill-rule="nonzero" fill-opacity="1" /><circle clip-path="url(#clip242)" cx="1287.46" cy="303.919" r="14.4" fill="#009af9" fill-rule="evenodd" fill-opacity="0.5" stroke="#000000" stroke-opacity="0.5" stroke-width="3.2"/>
<circle clip-path="url(#clip242)" cx="2050.45" cy="785.283" r="14.4" fill="#009af9" fill-rule="evenodd" fill-opacity="0.5" stroke="#000000" stroke-opacity="0.5" stroke-width="3.2"/>
<circle clip-path="url(#clip242)" cx="1011.61" cy="811.567" r="14.4" fill="#009af9" fill-rule="evenodd" fill-opacity="0.5" stroke="#000000" stroke-opacity="0.5" stroke-width="3.2"/>
<circle clip-path="url(#clip242)" cx="1663.67" cy="276.859" r="14.4" fill="#009af9" fill-rule="evenodd" fill-opacity="0.5" stroke="#000000" stroke-opacity="0.5" stroke-width="3.2"/>
<circle clip-path="url(#clip242)" cx="1783.74" cy="970.793" r="14.4" fill="#009af9" fill-rule="evenodd" fill-opacity="0.5" stroke="#000000" stroke-opacity="0.5" stroke-width="3.2"/>
<circle clip-path="url(#clip242)" cx="1688.85" cy="528.271" r="14.4" fill="#009af9" fill-rule="evenodd" fill-opacity="0.5" stroke="#000000" stroke-opacity="0.5" stroke-width="3.2"/>
<circle clip-path="url(#clip242)" cx="1887.06" cy="542.639" r="14.4" fill="#009af9" fill-rule="evenodd" fill-opacity="0.5" stroke="#000000" stroke-opacity="0.5" stroke-width="3.2"/>
<circle clip-path="url(#clip242)" cx="1574.73" cy="765.295" r="14.4" fill="#009af9" fill-rule="evenodd" fill-opacity="0.5" stroke="#000000" stroke-opacity="0.5" stroke-width="3.2"/>
<circle clip-path="url(#clip242)" cx="1298.8" cy="1445.72" r="14.4" fill="#009af9" fill-rule="evenodd" fill-opacity="0.5" stroke="#000000" stroke-opacity="0.5" stroke-width="3.2"/>
<circle clip-path="url(#clip242)" cx="1422.15" cy="631.226" r="14.4" fill="#009af9" fill-rule="evenodd" fill-opacity="0.5" stroke="#000000" stroke-opacity="0.5" stroke-width="3.2"/>
<circle clip-path="url(#clip242)" cx="2123.67" cy="1051.8" r="14.4" fill="#009af9" fill-rule="evenodd" fill-opacity="0.5" stroke="#000000" stroke-opacity="0.5" stroke-width="3.2"/>
<circle clip-path="url(#clip242)" cx="1592.53" cy="890.828" r="14.4" fill="#009af9" fill-rule="evenodd" fill-opacity="0.5" stroke="#000000" stroke-opacity="0.5" stroke-width="3.2"/>
<circle clip-path="url(#clip242)" cx="1661.52" cy="636.956" r="14.4" fill="#009af9" fill-rule="evenodd" fill-opacity="0.5" stroke="#000000" stroke-opacity="0.5" stroke-width="3.2"/>
<circle clip-path="url(#clip242)" cx="1463.36" cy="423.688" r="14.4" fill="#009af9" fill-rule="evenodd" fill-opacity="0.5" stroke="#000000" stroke-opacity="0.5" stroke-width="3.2"/>
<circle clip-path="url(#clip242)" cx="1144.64" cy="1309.23" r="14.4" fill="#009af9" fill-rule="evenodd" fill-opacity="0.5" stroke="#000000" stroke-opacity="0.5" stroke-width="3.2"/>
<circle clip-path="url(#clip242)" cx="965.035" cy="430.632" r="14.4" fill="#009af9" fill-rule="evenodd" fill-opacity="0.5" stroke="#000000" stroke-opacity="0.5" stroke-width="3.2"/>
<circle clip-path="url(#clip242)" cx="1492.39" cy="1037.36" r="14.4" fill="#009af9" fill-rule="evenodd" fill-opacity="0.5" stroke="#000000" stroke-opacity="0.5" stroke-width="3.2"/>
<circle clip-path="url(#clip242)" cx="2290.34" cy="1232" r="14.4" fill="#009af9" fill-rule="evenodd" fill-opacity="0.5" stroke="#000000" stroke-opacity="0.5" stroke-width="3.2"/>
<circle clip-path="url(#clip242)" cx="1534.88" cy="438.419" r="14.4" fill="#009af9" fill-rule="evenodd" fill-opacity="0.5" stroke="#000000" stroke-opacity="0.5" stroke-width="3.2"/>
<circle clip-path="url(#clip242)" cx="1182.94" cy="1093.52" r="14.4" fill="#009af9" fill-rule="evenodd" fill-opacity="0.5" stroke="#000000" stroke-opacity="0.5" stroke-width="3.2"/>
<circle clip-path="url(#clip242)" cx="209.891" cy="562.837" r="14.4" fill="#009af9" fill-rule="evenodd" fill-opacity="0.5" stroke="#000000" stroke-opacity="0.5" stroke-width="3.2"/>
<circle clip-path="url(#clip242)" cx="1818.55" cy="494.302" r="14.4" fill="#009af9" fill-rule="evenodd" fill-opacity="0.5" stroke="#000000" stroke-opacity="0.5" stroke-width="3.2"/>
<circle clip-path="url(#clip242)" cx="1272.23" cy="1027.44" r="14.4" fill="#009af9" fill-rule="evenodd" fill-opacity="0.5" stroke="#000000" stroke-opacity="0.5" stroke-width="3.2"/>
<circle clip-path="url(#clip242)" cx="1437.76" cy="898.643" r="14.4" fill="#009af9" fill-rule="evenodd" fill-opacity="0.5" stroke="#000000" stroke-opacity="0.5" stroke-width="3.2"/>
<circle clip-path="url(#clip242)" cx="2074.22" cy="838.774" r="14.4" fill="#009af9" fill-rule="evenodd" fill-opacity="0.5" stroke="#000000" stroke-opacity="0.5" stroke-width="3.2"/>
<circle clip-path="url(#clip242)" cx="1116.91" cy="441.349" r="14.4" fill="#009af9" fill-rule="evenodd" fill-opacity="0.5" stroke="#000000" stroke-opacity="0.5" stroke-width="3.2"/>
<circle clip-path="url(#clip242)" cx="1821.17" cy="598.186" r="14.4" fill="#009af9" fill-rule="evenodd" fill-opacity="0.5" stroke="#000000" stroke-opacity="0.5" stroke-width="3.2"/>
<circle clip-path="url(#clip242)" cx="1368.69" cy="395.341" r="14.4" fill="#009af9" fill-rule="evenodd" fill-opacity="0.5" stroke="#000000" stroke-opacity="0.5" stroke-width="3.2"/>
<circle clip-path="url(#clip242)" cx="1046.89" cy="902.303" r="14.4" fill="#009af9" fill-rule="evenodd" fill-opacity="0.5" stroke="#000000" stroke-opacity="0.5" stroke-width="3.2"/>
<circle clip-path="url(#clip242)" cx="1521.53" cy="87.9763" r="14.4" fill="#009af9" fill-rule="evenodd" fill-opacity="0.5" stroke="#000000" stroke-opacity="0.5" stroke-width="3.2"/>
<path clip-path="url(#clip242)" d="M209.891 562.837 L1298.8 1445.72 L2290.34 1232 L2050.45 785.283 L1887.06 542.639 L1521.53 87.9763 L209.891 562.837 L209.891 562.837  Z" fill="#e26f46" fill-rule="evenodd" fill-opacity="0.2"/>
<polyline clip-path="url(#clip242)" style="stroke:#000000; stroke-linecap:round; stroke-linejoin:round; stroke-width:4; stroke-opacity:0.2; fill:none" points="209.891,562.837 1298.8,1445.72 2290.34,1232 2050.45,785.283 1887.06,542.639 1521.53,87.9763 209.891,562.837 "/>
</svg>
