<?xml version="1.0" encoding="utf-8"?>
<svg xmlns="http://www.w3.org/2000/svg" xmlns:xlink="http://www.w3.org/1999/xlink" width="600" height="400" viewBox="0 0 2400 1600">
<defs>
  <clipPath id="clip580">
    <rect x="0" y="0" width="2400" height="1600"/>
  </clipPath>
</defs>
<path clip-path="url(#clip580)" d="M0 1600 L2400 1600 L2400 0 L0 0  Z" fill="#ffffff" fill-rule="evenodd" fill-opacity="1"/>
<defs>
  <clipPath id="clip581">
    <rect x="480" y="0" width="1681" height="1600"/>
  </clipPath>
</defs>
<path clip-path="url(#clip580)" d="M147.478 1486.45 L2352.76 1486.45 L2352.76 47.2441 L147.478 47.2441  Z" fill="#ffffff" fill-rule="evenodd" fill-opacity="1"/>
<defs>
  <clipPath id="clip582">
    <rect x="147" y="47" width="2206" height="1440"/>
  </clipPath>
</defs>
<polyline clip-path="url(#clip582)" style="stroke:#000000; stroke-linecap:round; stroke-linejoin:round; stroke-width:2; stroke-opacity:0.1; fill:none" points="221.997,1486.45 221.997,47.2441 "/>
<polyline clip-path="url(#clip582)" style="stroke:#000000; stroke-linecap:round; stroke-linejoin:round; stroke-width:2; stroke-opacity:0.1; fill:none" points="779.082,1486.45 779.082,47.2441 "/>
<polyline clip-path="url(#clip582)" style="stroke:#000000; stroke-linecap:round; stroke-linejoin:round; stroke-width:2; stroke-opacity:0.1; fill:none" points="1336.17,1486.45 1336.17,47.2441 "/>
<polyline clip-path="url(#clip582)" style="stroke:#000000; stroke-linecap:round; stroke-linejoin:round; stroke-width:2; stroke-opacity:0.1; fill:none" points="1893.25,1486.45 1893.25,47.2441 "/>
<polyline clip-path="url(#clip582)" style="stroke:#000000; stroke-linecap:round; stroke-linejoin:round; stroke-width:2; stroke-opacity:0.1; fill:none" points="147.478,1178.84 2352.76,1178.84 "/>
<polyline clip-path="url(#clip582)" style="stroke:#000000; stroke-linecap:round; stroke-linejoin:round; stroke-width:2; stroke-opacity:0.1; fill:none" points="147.478,813.22 2352.76,813.22 "/>
<polyline clip-path="url(#clip582)" style="stroke:#000000; stroke-linecap:round; stroke-linejoin:round; stroke-width:2; stroke-opacity:0.1; fill:none" points="147.478,447.601 2352.76,447.601 "/>
<polyline clip-path="url(#clip582)" style="stroke:#000000; stroke-linecap:round; stroke-linejoin:round; stroke-width:2; stroke-opacity:0.1; fill:none" points="147.478,81.9806 2352.76,81.9806 "/>
<polyline clip-path="url(#clip580)" style="stroke:#000000; stroke-linecap:round; stroke-linejoin:round; stroke-width:4; stroke-opacity:1; fill:none" points="147.478,1486.45 2352.76,1486.45 "/>
<polyline clip-path="url(#clip580)" style="stroke:#000000; stroke-linecap:round; stroke-linejoin:round; stroke-width:4; stroke-opacity:1; fill:none" points="221.997,1486.45 221.997,1467.55 "/>
<polyline clip-path="url(#clip580)" style="stroke:#000000; stroke-linecap:round; stroke-linejoin:round; stroke-width:4; stroke-opacity:1; fill:none" points="779.082,1486.45 779.082,1467.55 "/>
<polyline clip-path="url(#clip580)" style="stroke:#000000; stroke-linecap:round; stroke-linejoin:round; stroke-width:4; stroke-opacity:1; fill:none" points="1336.17,1486.45 1336.17,1467.55 "/>
<polyline clip-path="url(#clip580)" style="stroke:#000000; stroke-linecap:round; stroke-linejoin:round; stroke-width:4; stroke-opacity:1; fill:none" points="1893.25,1486.45 1893.25,1467.55 "/>
<path clip-path="url(#clip580)" d="M191.939 1532.02 L221.615 1532.02 L221.615 1535.95 L191.939 1535.95 L191.939 1532.02 Z" fill="#000000" fill-rule="nonzero" fill-opacity="1" /><path clip-path="url(#clip580)" d="M235.735 1544.91 L252.055 1544.91 L252.055 1548.85 L230.11 1548.85 L230.11 1544.91 Q232.772 1542.16 237.356 1537.53 Q241.962 1532.88 243.143 1531.53 Q245.388 1529.01 246.268 1527.27 Q247.17 1525.51 247.17 1523.82 Q247.17 1521.07 245.226 1519.33 Q243.305 1517.6 240.203 1517.6 Q238.004 1517.6 235.55 1518.36 Q233.12 1519.13 230.342 1520.68 L230.342 1515.95 Q233.166 1514.82 235.62 1514.24 Q238.073 1513.66 240.11 1513.66 Q245.481 1513.66 248.675 1516.35 Q251.87 1519.03 251.87 1523.52 Q251.87 1525.65 251.059 1527.57 Q250.272 1529.47 248.166 1532.07 Q247.587 1532.74 244.485 1535.95 Q241.383 1539.15 235.735 1544.91 Z" fill="#000000" fill-rule="nonzero" fill-opacity="1" /><path clip-path="url(#clip580)" d="M748.839 1532.02 L778.515 1532.02 L778.515 1535.95 L748.839 1535.95 L748.839 1532.02 Z" fill="#000000" fill-rule="nonzero" fill-opacity="1" /><path clip-path="url(#clip580)" d="M789.418 1544.91 L797.057 1544.91 L797.057 1518.55 L788.746 1520.21 L788.746 1515.95 L797.01 1514.29 L801.686 1514.29 L801.686 1544.91 L809.325 1544.91 L809.325 1548.85 L789.418 1548.85 L789.418 1544.91 Z" fill="#000000" fill-rule="nonzero" fill-opacity="1" /><path clip-path="url(#clip580)" d="M1336.17 1517.37 Q1332.56 1517.37 1330.73 1520.93 Q1328.92 1524.47 1328.92 1531.6 Q1328.92 1538.71 1330.73 1542.27 Q1332.56 1545.82 1336.17 1545.82 Q1339.8 1545.82 1341.61 1542.27 Q1343.44 1538.71 1343.44 1531.6 Q1343.44 1524.47 1341.61 1520.93 Q1339.8 1517.37 1336.17 1517.37 M1336.17 1513.66 Q1341.98 1513.66 1345.03 1518.27 Q1348.11 1522.85 1348.11 1531.6 Q1348.11 1540.33 1345.03 1544.94 Q1341.98 1549.52 1336.17 1549.52 Q1330.36 1549.52 1327.28 1544.94 Q1324.22 1540.33 1324.22 1531.6 Q1324.22 1522.85 1327.28 1518.27 Q1330.36 1513.66 1336.17 1513.66 Z" fill="#000000" fill-rule="nonzero" fill-opacity="1" /><path clip-path="url(#clip580)" d="M1883.63 1544.91 L1891.27 1544.91 L1891.27 1518.55 L1882.96 1520.21 L1882.96 1515.95 L1891.23 1514.29 L1895.9 1514.29 L1895.9 1544.91 L1903.54 1544.91 L1903.54 1548.85 L1883.63 1548.85 L1883.63 1544.91 Z" fill="#000000" fill-rule="nonzero" fill-opacity="1" /><polyline clip-path="url(#clip580)" style="stroke:#000000; stroke-linecap:round; stroke-linejoin:round; stroke-width:4; stroke-opacity:1; fill:none" points="147.478,1486.45 147.478,47.2441 "/>
<polyline clip-path="url(#clip580)" style="stroke:#000000; stroke-linecap:round; stroke-linejoin:round; stroke-width:4; stroke-opacity:1; fill:none" points="147.478,1178.84 166.376,1178.84 "/>
<polyline clip-path="url(#clip580)" style="stroke:#000000; stroke-linecap:round; stroke-linejoin:round; stroke-width:4; stroke-opacity:1; fill:none" points="147.478,813.22 166.376,813.22 "/>
<polyline clip-path="url(#clip580)" style="stroke:#000000; stroke-linecap:round; stroke-linejoin:round; stroke-width:4; stroke-opacity:1; fill:none" points="147.478,447.601 166.376,447.601 "/>
<polyline clip-path="url(#clip580)" style="stroke:#000000; stroke-linecap:round; stroke-linejoin:round; stroke-width:4; stroke-opacity:1; fill:none" points="147.478,81.9806 166.376,81.9806 "/>
<path clip-path="url(#clip580)" d="M50.9921 1179.29 L80.6679 1179.29 L80.6679 1183.23 L50.9921 1183.23 L50.9921 1179.29 Z" fill="#000000" fill-rule="nonzero" fill-opacity="1" /><path clip-path="url(#clip580)" d="M91.5706 1192.19 L99.2095 1192.19 L99.2095 1165.82 L90.8993 1167.49 L90.8993 1163.23 L99.1632 1161.56 L103.839 1161.56 L103.839 1192.19 L111.478 1192.19 L111.478 1196.12 L91.5706 1196.12 L91.5706 1192.19 Z" fill="#000000" fill-rule="nonzero" fill-opacity="1" /><path clip-path="url(#clip580)" d="M99.5335 799.019 Q95.9224 799.019 94.0937 802.584 Q92.2882 806.126 92.2882 813.255 Q92.2882 820.362 94.0937 823.926 Q95.9224 827.468 99.5335 827.468 Q103.168 827.468 104.973 823.926 Q106.802 820.362 106.802 813.255 Q106.802 806.126 104.973 802.584 Q103.168 799.019 99.5335 799.019 M99.5335 795.315 Q105.344 795.315 108.399 799.922 Q111.478 804.505 111.478 813.255 Q111.478 821.982 108.399 826.588 Q105.344 831.172 99.5335 831.172 Q93.7234 831.172 90.6447 826.588 Q87.5892 821.982 87.5892 813.255 Q87.5892 804.505 90.6447 799.922 Q93.7234 795.315 99.5335 795.315 Z" fill="#000000" fill-rule="nonzero" fill-opacity="1" /><path clip-path="url(#clip580)" d="M91.5706 460.945 L99.2095 460.945 L99.2095 434.58 L90.8993 436.246 L90.8993 431.987 L99.1632 430.321 L103.839 430.321 L103.839 460.945 L111.478 460.945 L111.478 464.881 L91.5706 464.881 L91.5706 460.945 Z" fill="#000000" fill-rule="nonzero" fill-opacity="1" /><path clip-path="url(#clip580)" d="M95.1586 95.3254 L111.478 95.3254 L111.478 99.2606 L89.5336 99.2606 L89.5336 95.3254 Q92.1956 92.5708 96.7789 87.9412 Q101.385 83.2885 102.566 81.9459 Q104.811 79.4228 105.691 77.6867 Q106.594 75.9274 106.594 74.2376 Q106.594 71.483 104.649 69.7469 Q102.728 68.0108 99.6261 68.0108 Q97.4271 68.0108 94.9734 68.7747 Q92.5428 69.5385 89.7651 71.0895 L89.7651 66.3673 Q92.5891 65.233 95.0428 64.6543 Q97.4965 64.0756 99.5335 64.0756 Q104.904 64.0756 108.098 66.7608 Q111.293 69.446 111.293 73.9367 Q111.293 76.0663 110.483 77.9876 Q109.696 79.8857 107.589 82.4783 Q107.01 83.1496 103.909 86.3672 Q100.807 89.5616 95.1586 95.3254 Z" fill="#000000" fill-rule="nonzero" fill-opacity="1" /><circle clip-path="url(#clip582)" cx="839.037" cy="607.724" r="14.4" fill="#009af9" fill-rule="evenodd" fill-opacity="0.5" stroke="#000000" stroke-opacity="0.5" stroke-width="3.2"/>
<circle clip-path="url(#clip582)" cx="1578.52" cy="1067.32" r="14.4" fill="#009af9" fill-rule="evenodd" fill-opacity="0.5" stroke="#000000" stroke-opacity="0.5" stroke-width="3.2"/>
<circle clip-path="url(#clip582)" cx="1765.74" cy="692.702" r="14.4" fill="#009af9" fill-rule="evenodd" fill-opacity="0.5" stroke="#000000" stroke-opacity="0.5" stroke-width="3.2"/>
<circle clip-path="url(#clip582)" cx="981.187" cy="921.55" r="14.4" fill="#009af9" fill-rule="evenodd" fill-opacity="0.5" stroke="#000000" stroke-opacity="0.5" stroke-width="3.2"/>
<circle clip-path="url(#clip582)" cx="1264.87" cy="1428.23" r="14.4" fill="#009af9" fill-rule="evenodd" fill-opacity="0.5" stroke="#000000" stroke-opacity="0.5" stroke-width="3.2"/>
<circle clip-path="url(#clip582)" cx="1851.84" cy="594.932" r="14.4" fill="#009af9" fill-rule="evenodd" fill-opacity="0.5" stroke="#000000" stroke-opacity="0.5" stroke-width="3.2"/>
<circle clip-path="url(#clip582)" cx="912.457" cy="535.081" r="14.4" fill="#009af9" fill-rule="evenodd" fill-opacity="0.5" stroke="#000000" stroke-opacity="0.5" stroke-width="3.2"/>
<circle clip-path="url(#clip582)" cx="853.981" cy="355.818" r="14.4" fill="#009af9" fill-rule="evenodd" fill-opacity="0.5" stroke="#000000" stroke-opacity="0.5" stroke-width="3.2"/>
<circle clip-path="url(#clip582)" cx="979.4" cy="1222.31" r="14.4" fill="#009af9" fill-rule="evenodd" fill-opacity="0.5" stroke="#000000" stroke-opacity="0.5" stroke-width="3.2"/>
<circle clip-path="url(#clip582)" cx="883.72" cy="536.935" r="14.4" fill="#009af9" fill-rule="evenodd" fill-opacity="0.5" stroke="#000000" stroke-opacity="0.5" stroke-width="3.2"/>
<circle clip-path="url(#clip582)" cx="459.545" cy="541.236" r="14.4" fill="#009af9" fill-rule="evenodd" fill-opacity="0.5" stroke="#000000" stroke-opacity="0.5" stroke-width="3.2"/>
<circle clip-path="url(#clip582)" cx="1126.66" cy="702.976" r="14.4" fill="#009af9" fill-rule="evenodd" fill-opacity="0.5" stroke="#000000" stroke-opacity="0.5" stroke-width="3.2"/>
<circle clip-path="url(#clip582)" cx="1249.77" cy="1162.6" r="14.4" fill="#009af9" fill-rule="evenodd" fill-opacity="0.5" stroke="#000000" stroke-opacity="0.5" stroke-width="3.2"/>
<circle clip-path="url(#clip582)" cx="1647.33" cy="1257.56" r="14.4" fill="#009af9" fill-rule="evenodd" fill-opacity="0.5" stroke="#000000" stroke-opacity="0.5" stroke-width="3.2"/>
<circle clip-path="url(#clip582)" cx="775.129" cy="1445.72" r="14.4" fill="#009af9" fill-rule="evenodd" fill-opacity="0.5" stroke="#000000" stroke-opacity="0.5" stroke-width="3.2"/>
<circle clip-path="url(#clip582)" cx="1603.67" cy="427.948" r="14.4" fill="#009af9" fill-rule="evenodd" fill-opacity="0.5" stroke="#000000" stroke-opacity="0.5" stroke-width="3.2"/>
<circle clip-path="url(#clip582)" cx="1610.64" cy="988.424" r="14.4" fill="#009af9" fill-rule="evenodd" fill-opacity="0.5" stroke="#000000" stroke-opacity="0.5" stroke-width="3.2"/>
<circle clip-path="url(#clip582)" cx="1379.32" cy="108.944" r="14.4" fill="#009af9" fill-rule="evenodd" fill-opacity="0.5" stroke="#000000" stroke-opacity="0.5" stroke-width="3.2"/>
<circle clip-path="url(#clip582)" cx="930.361" cy="87.9763" r="14.4" fill="#009af9" fill-rule="evenodd" fill-opacity="0.5" stroke="#000000" stroke-opacity="0.5" stroke-width="3.2"/>
<circle clip-path="url(#clip582)" cx="1147.39" cy="843.546" r="14.4" fill="#009af9" fill-rule="evenodd" fill-opacity="0.5" stroke="#000000" stroke-opacity="0.5" stroke-width="3.2"/>
<circle clip-path="url(#clip582)" cx="2290.34" cy="896.636" r="14.4" fill="#009af9" fill-rule="evenodd" fill-opacity="0.5" stroke="#000000" stroke-opacity="0.5" stroke-width="3.2"/>
<circle clip-path="url(#clip582)" cx="1703.99" cy="1020.93" r="14.4" fill="#009af9" fill-rule="evenodd" fill-opacity="0.5" stroke="#000000" stroke-opacity="0.5" stroke-width="3.2"/>
<circle clip-path="url(#clip582)" cx="402.56" cy="344.198" r="14.4" fill="#009af9" fill-rule="evenodd" fill-opacity="0.5" stroke="#000000" stroke-opacity="0.5" stroke-width="3.2"/>
<circle clip-path="url(#clip582)" cx="1872.56" cy="1299.53" r="14.4" fill="#009af9" fill-rule="evenodd" fill-opacity="0.5" stroke="#000000" stroke-opacity="0.5" stroke-width="3.2"/>
<circle clip-path="url(#clip582)" cx="1506.76" cy="377.248" r="14.4" fill="#009af9" fill-rule="evenodd" fill-opacity="0.5" stroke="#000000" stroke-opacity="0.5" stroke-width="3.2"/>
<circle clip-path="url(#clip582)" cx="209.891" cy="951.98" r="14.4" fill="#009af9" fill-rule="evenodd" fill-opacity="0.5" stroke="#000000" stroke-opacity="0.5" stroke-width="3.2"/>
<circle clip-path="url(#clip582)" cx="1135.05" cy="809.387" r="14.4" fill="#009af9" fill-rule="evenodd" fill-opacity="0.5" stroke="#000000" stroke-opacity="0.5" stroke-width="3.2"/>
<circle clip-path="url(#clip582)" cx="1595.78" cy="513.122" r="14.4" fill="#009af9" fill-rule="evenodd" fill-opacity="0.5" stroke="#000000" stroke-opacity="0.5" stroke-width="3.2"/>
<circle clip-path="url(#clip582)" cx="2064.4" cy="746.526" r="14.4" fill="#009af9" fill-rule="evenodd" fill-opacity="0.5" stroke="#000000" stroke-opacity="0.5" stroke-width="3.2"/>
<circle clip-path="url(#clip582)" cx="766.908" cy="1046.53" r="14.4" fill="#009af9" fill-rule="evenodd" fill-opacity="0.5" stroke="#000000" stroke-opacity="0.5" stroke-width="3.2"/>
<path clip-path="url(#clip582)" d="M209.891 951.98 L775.129 1445.72 L1264.87 1428.23 L1872.56 1299.53 L2290.34 896.636 L1379.32 108.944 L930.361 87.9763 L402.56 344.198 L209.891 951.98 L209.891 951.98  Z" fill="#e26f46" fill-rule="evenodd" fill-opacity="0.2"/>
<polyline clip-path="url(#clip582)" style="stroke:#000000; stroke-linecap:round; stroke-linejoin:round; stroke-width:4; stroke-opacity:0.2; fill:none" points="209.891,951.98 775.129,1445.72 1264.87,1428.23 1872.56,1299.53 2290.34,896.636 1379.32,108.944 930.361,87.9763 402.56,344.198 209.891,951.98 "/>
</svg>
