<?xml version="1.0" encoding="utf-8"?>
<svg xmlns="http://www.w3.org/2000/svg" xmlns:xlink="http://www.w3.org/1999/xlink" width="600" height="400" viewBox="0 0 2400 1600">
<defs>
  <clipPath id="clip660">
    <rect x="0" y="0" width="2400" height="1600"/>
  </clipPath>
</defs>
<path clip-path="url(#clip660)" d="M0 1600 L2400 1600 L2400 0 L0 0  Z" fill="#ffffff" fill-rule="evenodd" fill-opacity="1"/>
<defs>
  <clipPath id="clip661">
    <rect x="480" y="0" width="1681" height="1600"/>
  </clipPath>
</defs>
<path clip-path="url(#clip660)" d="M193.936 1486.45 L2352.76 1486.45 L2352.76 47.2441 L193.936 47.2441  Z" fill="#ffffff" fill-rule="evenodd" fill-opacity="1"/>
<defs>
  <clipPath id="clip662">
    <rect x="193" y="47" width="2160" height="1440"/>
  </clipPath>
</defs>
<polyline clip-path="url(#clip662)" style="stroke:#000000; stroke-linecap:round; stroke-linejoin:round; stroke-width:2; stroke-opacity:0.1; fill:none" points="233.046,1486.45 233.046,47.2441 "/>
<polyline clip-path="url(#clip662)" style="stroke:#000000; stroke-linecap:round; stroke-linejoin:round; stroke-width:2; stroke-opacity:0.1; fill:none" points="754.034,1486.45 754.034,47.2441 "/>
<polyline clip-path="url(#clip662)" style="stroke:#000000; stroke-linecap:round; stroke-linejoin:round; stroke-width:2; stroke-opacity:0.1; fill:none" points="1275.02,1486.45 1275.02,47.2441 "/>
<polyline clip-path="url(#clip662)" style="stroke:#000000; stroke-linecap:round; stroke-linejoin:round; stroke-width:2; stroke-opacity:0.1; fill:none" points="1796.01,1486.45 1796.01,47.2441 "/>
<polyline clip-path="url(#clip662)" style="stroke:#000000; stroke-linecap:round; stroke-linejoin:round; stroke-width:2; stroke-opacity:0.1; fill:none" points="2317,1486.45 2317,47.2441 "/>
<polyline clip-path="url(#clip662)" style="stroke:#000000; stroke-linecap:round; stroke-linejoin:round; stroke-width:2; stroke-opacity:0.1; fill:none" points="193.936,1382.27 2352.76,1382.27 "/>
<polyline clip-path="url(#clip662)" style="stroke:#000000; stroke-linecap:round; stroke-linejoin:round; stroke-width:2; stroke-opacity:0.1; fill:none" points="193.936,1167.82 2352.76,1167.82 "/>
<polyline clip-path="url(#clip662)" style="stroke:#000000; stroke-linecap:round; stroke-linejoin:round; stroke-width:2; stroke-opacity:0.1; fill:none" points="193.936,953.376 2352.76,953.376 "/>
<polyline clip-path="url(#clip662)" style="stroke:#000000; stroke-linecap:round; stroke-linejoin:round; stroke-width:2; stroke-opacity:0.1; fill:none" points="193.936,738.93 2352.76,738.93 "/>
<polyline clip-path="url(#clip662)" style="stroke:#000000; stroke-linecap:round; stroke-linejoin:round; stroke-width:2; stroke-opacity:0.1; fill:none" points="193.936,524.484 2352.76,524.484 "/>
<polyline clip-path="url(#clip662)" style="stroke:#000000; stroke-linecap:round; stroke-linejoin:round; stroke-width:2; stroke-opacity:0.1; fill:none" points="193.936,310.037 2352.76,310.037 "/>
<polyline clip-path="url(#clip662)" style="stroke:#000000; stroke-linecap:round; stroke-linejoin:round; stroke-width:2; stroke-opacity:0.1; fill:none" points="193.936,95.5911 2352.76,95.5911 "/>
<polyline clip-path="url(#clip660)" style="stroke:#000000; stroke-linecap:round; stroke-linejoin:round; stroke-width:4; stroke-opacity:1; fill:none" points="193.936,1486.45 2352.76,1486.45 "/>
<polyline clip-path="url(#clip660)" style="stroke:#000000; stroke-linecap:round; stroke-linejoin:round; stroke-width:4; stroke-opacity:1; fill:none" points="233.046,1486.45 233.046,1467.55 "/>
<polyline clip-path="url(#clip660)" style="stroke:#000000; stroke-linecap:round; stroke-linejoin:round; stroke-width:4; stroke-opacity:1; fill:none" points="754.034,1486.45 754.034,1467.55 "/>
<polyline clip-path="url(#clip660)" style="stroke:#000000; stroke-linecap:round; stroke-linejoin:round; stroke-width:4; stroke-opacity:1; fill:none" points="1275.02,1486.45 1275.02,1467.55 "/>
<polyline clip-path="url(#clip660)" style="stroke:#000000; stroke-linecap:round; stroke-linejoin:round; stroke-width:4; stroke-opacity:1; fill:none" points="1796.01,1486.45 1796.01,1467.55 "/>
<polyline clip-path="url(#clip660)" style="stroke:#000000; stroke-linecap:round; stroke-linejoin:round; stroke-width:4; stroke-opacity:1; fill:none" points="2317,1486.45 2317,1467.55 "/>
<path clip-path="url(#clip660)" d="M202.988 1532.02 L232.664 1532.02 L232.664 1535.95 L202.988 1535.95 L202.988 1532.02 Z" fill="#000000" fill-rule="nonzero" fill-opacity="1" /><path clip-path="url(#clip660)" d="M246.784 1544.91 L263.104 1544.91 L263.104 1548.85 L241.159 1548.85 L241.159 1544.91 Q243.821 1542.16 248.405 1537.53 Q253.011 1532.88 254.192 1531.53 Q256.437 1529.01 257.317 1527.27 Q258.219 1525.51 258.219 1523.82 Q258.219 1521.07 256.275 1519.33 Q254.354 1517.6 251.252 1517.6 Q249.053 1517.6 246.599 1518.36 Q244.169 1519.13 241.391 1520.68 L241.391 1515.95 Q244.215 1514.82 246.669 1514.24 Q249.122 1513.66 251.159 1513.66 Q256.53 1513.66 259.724 1516.35 Q262.918 1519.03 262.918 1523.52 Q262.918 1525.65 262.108 1527.57 Q261.321 1529.47 259.215 1532.07 Q258.636 1532.74 255.534 1535.95 Q252.432 1539.15 246.784 1544.91 Z" fill="#000000" fill-rule="nonzero" fill-opacity="1" /><path clip-path="url(#clip660)" d="M723.791 1532.02 L753.467 1532.02 L753.467 1535.95 L723.791 1535.95 L723.791 1532.02 Z" fill="#000000" fill-rule="nonzero" fill-opacity="1" /><path clip-path="url(#clip660)" d="M764.37 1544.91 L772.009 1544.91 L772.009 1518.55 L763.698 1520.21 L763.698 1515.95 L771.962 1514.29 L776.638 1514.29 L776.638 1544.91 L784.277 1544.91 L784.277 1548.85 L764.37 1548.85 L764.37 1544.91 Z" fill="#000000" fill-rule="nonzero" fill-opacity="1" /><path clip-path="url(#clip660)" d="M1275.02 1517.37 Q1271.41 1517.37 1269.58 1520.93 Q1267.78 1524.47 1267.78 1531.6 Q1267.78 1538.71 1269.58 1542.27 Q1271.41 1545.82 1275.02 1545.82 Q1278.66 1545.82 1280.46 1542.27 Q1282.29 1538.71 1282.29 1531.6 Q1282.29 1524.47 1280.46 1520.93 Q1278.66 1517.37 1275.02 1517.37 M1275.02 1513.66 Q1280.83 1513.66 1283.89 1518.27 Q1286.97 1522.85 1286.97 1531.6 Q1286.97 1540.33 1283.89 1544.94 Q1280.83 1549.52 1275.02 1549.52 Q1269.21 1549.52 1266.13 1544.94 Q1263.08 1540.33 1263.08 1531.6 Q1263.08 1522.85 1266.13 1518.27 Q1269.21 1513.66 1275.02 1513.66 Z" fill="#000000" fill-rule="nonzero" fill-opacity="1" /><path clip-path="url(#clip660)" d="M1786.39 1544.91 L1794.03 1544.91 L1794.03 1518.55 L1785.72 1520.21 L1785.72 1515.95 L1793.98 1514.29 L1798.66 1514.29 L1798.66 1544.91 L1806.3 1544.91 L1806.3 1548.85 L1786.39 1548.85 L1786.39 1544.91 Z" fill="#000000" fill-rule="nonzero" fill-opacity="1" /><path clip-path="url(#clip660)" d="M2311.65 1544.91 L2327.97 1544.91 L2327.97 1548.85 L2306.03 1548.85 L2306.03 1544.91 Q2308.69 1542.16 2313.27 1537.53 Q2317.88 1532.88 2319.06 1531.53 Q2321.3 1529.01 2322.18 1527.27 Q2323.09 1525.51 2323.09 1523.82 Q2323.09 1521.07 2321.14 1519.33 Q2319.22 1517.6 2316.12 1517.6 Q2313.92 1517.6 2311.47 1518.36 Q2309.04 1519.13 2306.26 1520.68 L2306.26 1515.95 Q2309.08 1514.82 2311.54 1514.24 Q2313.99 1513.66 2316.03 1513.66 Q2321.4 1513.66 2324.59 1516.35 Q2327.79 1519.03 2327.79 1523.52 Q2327.79 1525.65 2326.98 1527.57 Q2326.19 1529.47 2324.08 1532.07 Q2323.5 1532.74 2320.4 1535.95 Q2317.3 1539.15 2311.65 1544.91 Z" fill="#000000" fill-rule="nonzero" fill-opacity="1" /><polyline clip-path="url(#clip660)" style="stroke:#000000; stroke-linecap:round; stroke-linejoin:round; stroke-width:4; stroke-opacity:1; fill:none" points="193.936,1486.45 193.936,47.2441 "/>
<polyline clip-path="url(#clip660)" style="stroke:#000000; stroke-linecap:round; stroke-linejoin:round; stroke-width:4; stroke-opacity:1; fill:none" points="193.936,1382.27 212.834,1382.27 "/>
<polyline clip-path="url(#clip660)" style="stroke:#000000; stroke-linecap:round; stroke-linejoin:round; stroke-width:4; stroke-opacity:1; fill:none" points="193.936,1167.82 212.834,1167.82 "/>
<polyline clip-path="url(#clip660)" style="stroke:#000000; stroke-linecap:round; stroke-linejoin:round; stroke-width:4; stroke-opacity:1; fill:none" points="193.936,953.376 212.834,953.376 "/>
<polyline clip-path="url(#clip660)" style="stroke:#000000; stroke-linecap:round; stroke-linejoin:round; stroke-width:4; stroke-opacity:1; fill:none" points="193.936,738.93 212.834,738.93 "/>
<polyline clip-path="url(#clip660)" style="stroke:#000000; stroke-linecap:round; stroke-linejoin:round; stroke-width:4; stroke-opacity:1; fill:none" points="193.936,524.484 212.834,524.484 "/>
<polyline clip-path="url(#clip660)" style="stroke:#000000; stroke-linecap:round; stroke-linejoin:round; stroke-width:4; stroke-opacity:1; fill:none" points="193.936,310.037 212.834,310.037 "/>
<polyline clip-path="url(#clip660)" style="stroke:#000000; stroke-linecap:round; stroke-linejoin:round; stroke-width:4; stroke-opacity:1; fill:none" points="193.936,95.5911 212.834,95.5911 "/>
<path clip-path="url(#clip660)" d="M51.9875 1382.72 L81.6633 1382.72 L81.6633 1386.66 L51.9875 1386.66 L51.9875 1382.72 Z" fill="#000000" fill-rule="nonzero" fill-opacity="1" /><path clip-path="url(#clip660)" d="M92.566 1395.61 L100.205 1395.61 L100.205 1369.25 L91.8947 1370.91 L91.8947 1366.66 L100.159 1364.99 L104.834 1364.99 L104.834 1395.61 L112.473 1395.61 L112.473 1399.55 L92.566 1399.55 L92.566 1395.61 Z" fill="#000000" fill-rule="nonzero" fill-opacity="1" /><path clip-path="url(#clip660)" d="M121.918 1393.67 L126.802 1393.67 L126.802 1399.55 L121.918 1399.55 L121.918 1393.67 Z" fill="#000000" fill-rule="nonzero" fill-opacity="1" /><path clip-path="url(#clip660)" d="M137.033 1364.99 L155.39 1364.99 L155.39 1368.92 L141.316 1368.92 L141.316 1377.4 Q142.334 1377.05 143.353 1376.89 Q144.371 1376.7 145.39 1376.7 Q151.177 1376.7 154.556 1379.87 Q157.936 1383.04 157.936 1388.46 Q157.936 1394.04 154.464 1397.14 Q150.992 1400.22 144.672 1400.22 Q142.496 1400.22 140.228 1399.85 Q137.982 1399.48 135.575 1398.74 L135.575 1394.04 Q137.658 1395.17 139.881 1395.73 Q142.103 1396.28 144.58 1396.28 Q148.584 1396.28 150.922 1394.18 Q153.26 1392.07 153.26 1388.46 Q153.26 1384.85 150.922 1382.74 Q148.584 1380.64 144.58 1380.64 Q142.705 1380.64 140.83 1381.05 Q138.978 1381.47 137.033 1382.35 L137.033 1364.99 Z" fill="#000000" fill-rule="nonzero" fill-opacity="1" /><path clip-path="url(#clip660)" d="M50.9921 1168.27 L80.6679 1168.27 L80.6679 1172.21 L50.9921 1172.21 L50.9921 1168.27 Z" fill="#000000" fill-rule="nonzero" fill-opacity="1" /><path clip-path="url(#clip660)" d="M91.5706 1181.17 L99.2095 1181.17 L99.2095 1154.8 L90.8993 1156.47 L90.8993 1152.21 L99.1632 1150.54 L103.839 1150.54 L103.839 1181.17 L111.478 1181.17 L111.478 1185.1 L91.5706 1185.1 L91.5706 1181.17 Z" fill="#000000" fill-rule="nonzero" fill-opacity="1" /><path clip-path="url(#clip660)" d="M120.922 1179.22 L125.807 1179.22 L125.807 1185.1 L120.922 1185.1 L120.922 1179.22 Z" fill="#000000" fill-rule="nonzero" fill-opacity="1" /><path clip-path="url(#clip660)" d="M145.992 1153.62 Q142.381 1153.62 140.552 1157.19 Q138.746 1160.73 138.746 1167.86 Q138.746 1174.96 140.552 1178.53 Q142.381 1182.07 145.992 1182.07 Q149.626 1182.07 151.431 1178.53 Q153.26 1174.96 153.26 1167.86 Q153.26 1160.73 151.431 1157.19 Q149.626 1153.62 145.992 1153.62 M145.992 1149.92 Q151.802 1149.92 154.857 1154.52 Q157.936 1159.11 157.936 1167.86 Q157.936 1176.58 154.857 1181.19 Q151.802 1185.77 145.992 1185.77 Q140.181 1185.77 137.103 1181.19 Q134.047 1176.58 134.047 1167.86 Q134.047 1159.11 137.103 1154.52 Q140.181 1149.92 145.992 1149.92 Z" fill="#000000" fill-rule="nonzero" fill-opacity="1" /><path clip-path="url(#clip660)" d="M51.9875 953.828 L81.6633 953.828 L81.6633 957.763 L51.9875 957.763 L51.9875 953.828 Z" fill="#000000" fill-rule="nonzero" fill-opacity="1" /><path clip-path="url(#clip660)" d="M101.756 939.175 Q98.1447 939.175 96.316 942.74 Q94.5104 946.281 94.5104 953.411 Q94.5104 960.517 96.316 964.082 Q98.1447 967.624 101.756 967.624 Q105.39 967.624 107.196 964.082 Q109.024 960.517 109.024 953.411 Q109.024 946.281 107.196 942.74 Q105.39 939.175 101.756 939.175 M101.756 935.471 Q107.566 935.471 110.621 940.078 Q113.7 944.661 113.7 953.411 Q113.7 962.138 110.621 966.744 Q107.566 971.327 101.756 971.327 Q95.9456 971.327 92.8669 966.744 Q89.8114 962.138 89.8114 953.411 Q89.8114 944.661 92.8669 940.078 Q95.9456 935.471 101.756 935.471 Z" fill="#000000" fill-rule="nonzero" fill-opacity="1" /><path clip-path="url(#clip660)" d="M121.918 964.777 L126.802 964.777 L126.802 970.656 L121.918 970.656 L121.918 964.777 Z" fill="#000000" fill-rule="nonzero" fill-opacity="1" /><path clip-path="url(#clip660)" d="M137.033 936.096 L155.39 936.096 L155.39 940.031 L141.316 940.031 L141.316 948.504 Q142.334 948.156 143.353 947.994 Q144.371 947.809 145.39 947.809 Q151.177 947.809 154.556 950.98 Q157.936 954.152 157.936 959.568 Q157.936 965.147 154.464 968.249 Q150.992 971.327 144.672 971.327 Q142.496 971.327 140.228 970.957 Q137.982 970.587 135.575 969.846 L135.575 965.147 Q137.658 966.281 139.881 966.837 Q142.103 967.392 144.58 967.392 Q148.584 967.392 150.922 965.286 Q153.26 963.179 153.26 959.568 Q153.26 955.957 150.922 953.851 Q148.584 951.744 144.58 951.744 Q142.705 951.744 140.83 952.161 Q138.978 952.578 137.033 953.457 L137.033 936.096 Z" fill="#000000" fill-rule="nonzero" fill-opacity="1" /><path clip-path="url(#clip660)" d="M100.76 724.729 Q97.1493 724.729 95.3206 728.293 Q93.515 731.835 93.515 738.965 Q93.515 746.071 95.3206 749.636 Q97.1493 753.178 100.76 753.178 Q104.395 753.178 106.2 749.636 Q108.029 746.071 108.029 738.965 Q108.029 731.835 106.2 728.293 Q104.395 724.729 100.76 724.729 M100.76 721.025 Q106.571 721.025 109.626 725.631 Q112.705 730.215 112.705 738.965 Q112.705 747.691 109.626 752.298 Q106.571 756.881 100.76 756.881 Q94.9502 756.881 91.8715 752.298 Q88.816 747.691 88.816 738.965 Q88.816 730.215 91.8715 725.631 Q94.9502 721.025 100.76 721.025 Z" fill="#000000" fill-rule="nonzero" fill-opacity="1" /><path clip-path="url(#clip660)" d="M120.922 750.33 L125.807 750.33 L125.807 756.21 L120.922 756.21 L120.922 750.33 Z" fill="#000000" fill-rule="nonzero" fill-opacity="1" /><path clip-path="url(#clip660)" d="M145.992 724.729 Q142.381 724.729 140.552 728.293 Q138.746 731.835 138.746 738.965 Q138.746 746.071 140.552 749.636 Q142.381 753.178 145.992 753.178 Q149.626 753.178 151.431 749.636 Q153.26 746.071 153.26 738.965 Q153.26 731.835 151.431 728.293 Q149.626 724.729 145.992 724.729 M145.992 721.025 Q151.802 721.025 154.857 725.631 Q157.936 730.215 157.936 738.965 Q157.936 747.691 154.857 752.298 Q151.802 756.881 145.992 756.881 Q140.181 756.881 137.103 752.298 Q134.047 747.691 134.047 738.965 Q134.047 730.215 137.103 725.631 Q140.181 721.025 145.992 721.025 Z" fill="#000000" fill-rule="nonzero" fill-opacity="1" /><path clip-path="url(#clip660)" d="M101.756 510.282 Q98.1447 510.282 96.316 513.847 Q94.5104 517.389 94.5104 524.518 Q94.5104 531.625 96.316 535.19 Q98.1447 538.731 101.756 538.731 Q105.39 538.731 107.196 535.19 Q109.024 531.625 109.024 524.518 Q109.024 517.389 107.196 513.847 Q105.39 510.282 101.756 510.282 M101.756 506.579 Q107.566 506.579 110.621 511.185 Q113.7 515.768 113.7 524.518 Q113.7 533.245 110.621 537.852 Q107.566 542.435 101.756 542.435 Q95.9456 542.435 92.8669 537.852 Q89.8114 533.245 89.8114 524.518 Q89.8114 515.768 92.8669 511.185 Q95.9456 506.579 101.756 506.579 Z" fill="#000000" fill-rule="nonzero" fill-opacity="1" /><path clip-path="url(#clip660)" d="M121.918 535.884 L126.802 535.884 L126.802 541.764 L121.918 541.764 L121.918 535.884 Z" fill="#000000" fill-rule="nonzero" fill-opacity="1" /><path clip-path="url(#clip660)" d="M137.033 507.204 L155.39 507.204 L155.39 511.139 L141.316 511.139 L141.316 519.611 Q142.334 519.264 143.353 519.102 Q144.371 518.917 145.39 518.917 Q151.177 518.917 154.556 522.088 Q157.936 525.259 157.936 530.676 Q157.936 536.254 154.464 539.356 Q150.992 542.435 144.672 542.435 Q142.496 542.435 140.228 542.065 Q137.982 541.694 135.575 540.953 L135.575 536.254 Q137.658 537.389 139.881 537.944 Q142.103 538.5 144.58 538.5 Q148.584 538.5 150.922 536.393 Q153.26 534.287 153.26 530.676 Q153.26 527.065 150.922 524.958 Q148.584 522.852 144.58 522.852 Q142.705 522.852 140.83 523.268 Q138.978 523.685 137.033 524.565 L137.033 507.204 Z" fill="#000000" fill-rule="nonzero" fill-opacity="1" /><path clip-path="url(#clip660)" d="M91.5706 323.382 L99.2095 323.382 L99.2095 297.017 L90.8993 298.683 L90.8993 294.424 L99.1632 292.757 L103.839 292.757 L103.839 323.382 L111.478 323.382 L111.478 327.317 L91.5706 327.317 L91.5706 323.382 Z" fill="#000000" fill-rule="nonzero" fill-opacity="1" /><path clip-path="url(#clip660)" d="M120.922 321.438 L125.807 321.438 L125.807 327.317 L120.922 327.317 L120.922 321.438 Z" fill="#000000" fill-rule="nonzero" fill-opacity="1" /><path clip-path="url(#clip660)" d="M145.992 295.836 Q142.381 295.836 140.552 299.401 Q138.746 302.943 138.746 310.072 Q138.746 317.179 140.552 320.743 Q142.381 324.285 145.992 324.285 Q149.626 324.285 151.431 320.743 Q153.26 317.179 153.26 310.072 Q153.26 302.943 151.431 299.401 Q149.626 295.836 145.992 295.836 M145.992 292.132 Q151.802 292.132 154.857 296.739 Q157.936 301.322 157.936 310.072 Q157.936 318.799 154.857 323.405 Q151.802 327.989 145.992 327.989 Q140.181 327.989 137.103 323.405 Q134.047 318.799 134.047 310.072 Q134.047 301.322 137.103 296.739 Q140.181 292.132 145.992 292.132 Z" fill="#000000" fill-rule="nonzero" fill-opacity="1" /><path clip-path="url(#clip660)" d="M92.566 108.936 L100.205 108.936 L100.205 82.5704 L91.8947 84.237 L91.8947 79.9778 L100.159 78.3111 L104.834 78.3111 L104.834 108.936 L112.473 108.936 L112.473 112.871 L92.566 112.871 L92.566 108.936 Z" fill="#000000" fill-rule="nonzero" fill-opacity="1" /><path clip-path="url(#clip660)" d="M121.918 106.992 L126.802 106.992 L126.802 112.871 L121.918 112.871 L121.918 106.992 Z" fill="#000000" fill-rule="nonzero" fill-opacity="1" /><path clip-path="url(#clip660)" d="M137.033 78.3111 L155.39 78.3111 L155.39 82.2463 L141.316 82.2463 L141.316 90.7185 Q142.334 90.3713 143.353 90.2092 Q144.371 90.024 145.39 90.024 Q151.177 90.024 154.556 93.1953 Q157.936 96.3666 157.936 101.783 Q157.936 107.362 154.464 110.464 Q150.992 113.542 144.672 113.542 Q142.496 113.542 140.228 113.172 Q137.982 112.802 135.575 112.061 L135.575 107.362 Q137.658 108.496 139.881 109.052 Q142.103 109.607 144.58 109.607 Q148.584 109.607 150.922 107.501 Q153.26 105.394 153.26 101.783 Q153.26 98.1721 150.922 96.0657 Q148.584 93.9592 144.58 93.9592 Q142.705 93.9592 140.83 94.3759 Q138.978 94.7925 137.033 95.6722 L137.033 78.3111 Z" fill="#000000" fill-rule="nonzero" fill-opacity="1" /><circle clip-path="url(#clip662)" cx="793.381" cy="804.8" r="14.4" fill="#009af9" fill-rule="evenodd" fill-opacity="0.5" stroke="#000000" stroke-opacity="0.5" stroke-width="3.2"/>
<circle clip-path="url(#clip662)" cx="1283.13" cy="883.771" r="14.4" fill="#009af9" fill-rule="evenodd" fill-opacity="0.5" stroke="#000000" stroke-opacity="0.5" stroke-width="3.2"/>
<circle clip-path="url(#clip662)" cx="1787.92" cy="1110.82" r="14.4" fill="#009af9" fill-rule="evenodd" fill-opacity="0.5" stroke="#000000" stroke-opacity="0.5" stroke-width="3.2"/>
<circle clip-path="url(#clip662)" cx="2187.41" cy="122.04" r="14.4" fill="#009af9" fill-rule="evenodd" fill-opacity="0.5" stroke="#000000" stroke-opacity="0.5" stroke-width="3.2"/>
<circle clip-path="url(#clip662)" cx="1445.74" cy="961.929" r="14.4" fill="#009af9" fill-rule="evenodd" fill-opacity="0.5" stroke="#000000" stroke-opacity="0.5" stroke-width="3.2"/>
<circle clip-path="url(#clip662)" cx="1123.67" cy="1099.67" r="14.4" fill="#009af9" fill-rule="evenodd" fill-opacity="0.5" stroke="#000000" stroke-opacity="0.5" stroke-width="3.2"/>
<circle clip-path="url(#clip662)" cx="255.035" cy="1445.72" r="14.4" fill="#009af9" fill-rule="evenodd" fill-opacity="0.5" stroke="#000000" stroke-opacity="0.5" stroke-width="3.2"/>
<circle clip-path="url(#clip662)" cx="1154.66" cy="325.863" r="14.4" fill="#009af9" fill-rule="evenodd" fill-opacity="0.5" stroke="#000000" stroke-opacity="0.5" stroke-width="3.2"/>
<circle clip-path="url(#clip662)" cx="1056.61" cy="1175.1" r="14.4" fill="#009af9" fill-rule="evenodd" fill-opacity="0.5" stroke="#000000" stroke-opacity="0.5" stroke-width="3.2"/>
<circle clip-path="url(#clip662)" cx="764.027" cy="87.9763" r="14.4" fill="#009af9" fill-rule="evenodd" fill-opacity="0.5" stroke="#000000" stroke-opacity="0.5" stroke-width="3.2"/>
<circle clip-path="url(#clip662)" cx="1700.06" cy="563.423" r="14.4" fill="#009af9" fill-rule="evenodd" fill-opacity="0.5" stroke="#000000" stroke-opacity="0.5" stroke-width="3.2"/>
<circle clip-path="url(#clip662)" cx="923.108" cy="713.205" r="14.4" fill="#009af9" fill-rule="evenodd" fill-opacity="0.5" stroke="#000000" stroke-opacity="0.5" stroke-width="3.2"/>
<circle clip-path="url(#clip662)" cx="776.283" cy="486.207" r="14.4" fill="#009af9" fill-rule="evenodd" fill-opacity="0.5" stroke="#000000" stroke-opacity="0.5" stroke-width="3.2"/>
<circle clip-path="url(#clip662)" cx="1495.64" cy="1124.45" r="14.4" fill="#009af9" fill-rule="evenodd" fill-opacity="0.5" stroke="#000000" stroke-opacity="0.5" stroke-width="3.2"/>
<circle clip-path="url(#clip662)" cx="832.477" cy="530.255" r="14.4" fill="#009af9" fill-rule="evenodd" fill-opacity="0.5" stroke="#000000" stroke-opacity="0.5" stroke-width="3.2"/>
<circle clip-path="url(#clip662)" cx="891.994" cy="684.78" r="14.4" fill="#009af9" fill-rule="evenodd" fill-opacity="0.5" stroke="#000000" stroke-opacity="0.5" stroke-width="3.2"/>
<circle clip-path="url(#clip662)" cx="1377.24" cy="550.874" r="14.4" fill="#009af9" fill-rule="evenodd" fill-opacity="0.5" stroke="#000000" stroke-opacity="0.5" stroke-width="3.2"/>
<circle clip-path="url(#clip662)" cx="1863.25" cy="316.62" r="14.4" fill="#009af9" fill-rule="evenodd" fill-opacity="0.5" stroke="#000000" stroke-opacity="0.5" stroke-width="3.2"/>
<circle clip-path="url(#clip662)" cx="1835.22" cy="1001.54" r="14.4" fill="#009af9" fill-rule="evenodd" fill-opacity="0.5" stroke="#000000" stroke-opacity="0.5" stroke-width="3.2"/>
<circle clip-path="url(#clip662)" cx="1530.54" cy="524.997" r="14.4" fill="#009af9" fill-rule="evenodd" fill-opacity="0.5" stroke="#000000" stroke-opacity="0.5" stroke-width="3.2"/>
<circle clip-path="url(#clip662)" cx="1454.51" cy="959.22" r="14.4" fill="#009af9" fill-rule="evenodd" fill-opacity="0.5" stroke="#000000" stroke-opacity="0.5" stroke-width="3.2"/>
<circle clip-path="url(#clip662)" cx="2252.24" cy="478.464" r="14.4" fill="#009af9" fill-rule="evenodd" fill-opacity="0.5" stroke="#000000" stroke-opacity="0.5" stroke-width="3.2"/>
<circle clip-path="url(#clip662)" cx="1050.03" cy="633.148" r="14.4" fill="#009af9" fill-rule="evenodd" fill-opacity="0.5" stroke="#000000" stroke-opacity="0.5" stroke-width="3.2"/>
<circle clip-path="url(#clip662)" cx="1865.16" cy="714.576" r="14.4" fill="#009af9" fill-rule="evenodd" fill-opacity="0.5" stroke="#000000" stroke-opacity="0.5" stroke-width="3.2"/>
<circle clip-path="url(#clip662)" cx="634.591" cy="689.48" r="14.4" fill="#009af9" fill-rule="evenodd" fill-opacity="0.5" stroke="#000000" stroke-opacity="0.5" stroke-width="3.2"/>
<circle clip-path="url(#clip662)" cx="2291.66" cy="807.718" r="14.4" fill="#009af9" fill-rule="evenodd" fill-opacity="0.5" stroke="#000000" stroke-opacity="0.5" stroke-width="3.2"/>
<circle clip-path="url(#clip662)" cx="1344.68" cy="949.752" r="14.4" fill="#009af9" fill-rule="evenodd" fill-opacity="0.5" stroke="#000000" stroke-opacity="0.5" stroke-width="3.2"/>
<circle clip-path="url(#clip662)" cx="799.04" cy="895.293" r="14.4" fill="#009af9" fill-rule="evenodd" fill-opacity="0.5" stroke="#000000" stroke-opacity="0.5" stroke-width="3.2"/>
<circle clip-path="url(#clip662)" cx="1267.51" cy="440.373" r="14.4" fill="#009af9" fill-rule="evenodd" fill-opacity="0.5" stroke="#000000" stroke-opacity="0.5" stroke-width="3.2"/>
<circle clip-path="url(#clip662)" cx="1978.46" cy="1008.75" r="14.4" fill="#009af9" fill-rule="evenodd" fill-opacity="0.5" stroke="#000000" stroke-opacity="0.5" stroke-width="3.2"/>
<path clip-path="url(#clip662)" d="M255.035 1445.72 L1787.92 1110.82 L1978.46 1008.75 L2291.66 807.718 L2252.24 478.464 L2187.41 122.04 L764.027 87.9763 L255.035 1445.72 L255.035 1445.72  Z" fill="#e26f46" fill-rule="evenodd" fill-opacity="0.2"/>
<polyline clip-path="url(#clip662)" style="stroke:#000000; stroke-linecap:round; stroke-linejoin:round; stroke-width:4; stroke-opacity:0.2; fill:none" points="255.035,1445.72 1787.92,1110.82 1978.46,1008.75 2291.66,807.718 2252.24,478.464 2187.41,122.04 764.027,87.9763 255.035,1445.72 "/>
</svg>
