<?xml version="1.0" encoding="utf-8"?>
<svg xmlns="http://www.w3.org/2000/svg" xmlns:xlink="http://www.w3.org/1999/xlink" width="600" height="400" viewBox="0 0 2400 1600">
<defs>
  <clipPath id="clip280">
    <rect x="0" y="0" width="2400" height="1600"/>
  </clipPath>
</defs>
<path clip-path="url(#clip280)" d="M0 1600 L2400 1600 L2400 0 L0 0  Z" fill="#ffffff" fill-rule="evenodd" fill-opacity="1"/>
<defs>
  <clipPath id="clip281">
    <rect x="480" y="0" width="1681" height="1600"/>
  </clipPath>
</defs>
<path clip-path="url(#clip280)" d="M147.478 1486.45 L2352.76 1486.45 L2352.76 47.2441 L147.478 47.2441  Z" fill="#ffffff" fill-rule="evenodd" fill-opacity="1"/>
<defs>
  <clipPath id="clip282">
    <rect x="147" y="47" width="2206" height="1440"/>
  </clipPath>
</defs>
<polyline clip-path="url(#clip282)" style="stroke:#000000; stroke-linecap:round; stroke-linejoin:round; stroke-width:2; stroke-opacity:0.1; fill:none" points="441.012,1486.45 441.012,47.2441 "/>
<polyline clip-path="url(#clip282)" style="stroke:#000000; stroke-linecap:round; stroke-linejoin:round; stroke-width:2; stroke-opacity:0.1; fill:none" points="856.094,1486.45 856.094,47.2441 "/>
<polyline clip-path="url(#clip282)" style="stroke:#000000; stroke-linecap:round; stroke-linejoin:round; stroke-width:2; stroke-opacity:0.1; fill:none" points="1271.18,1486.45 1271.18,47.2441 "/>
<polyline clip-path="url(#clip282)" style="stroke:#000000; stroke-linecap:round; stroke-linejoin:round; stroke-width:2; stroke-opacity:0.1; fill:none" points="1686.26,1486.45 1686.26,47.2441 "/>
<polyline clip-path="url(#clip282)" style="stroke:#000000; stroke-linecap:round; stroke-linejoin:round; stroke-width:2; stroke-opacity:0.1; fill:none" points="2101.34,1486.45 2101.34,47.2441 "/>
<polyline clip-path="url(#clip280)" style="stroke:#000000; stroke-linecap:round; stroke-linejoin:round; stroke-width:4; stroke-opacity:1; fill:none" points="147.478,1486.45 2352.76,1486.45 "/>
<polyline clip-path="url(#clip280)" style="stroke:#000000; stroke-linecap:round; stroke-linejoin:round; stroke-width:4; stroke-opacity:1; fill:none" points="441.012,1486.45 441.012,1467.55 "/>
<polyline clip-path="url(#clip280)" style="stroke:#000000; stroke-linecap:round; stroke-linejoin:round; stroke-width:4; stroke-opacity:1; fill:none" points="856.094,1486.45 856.094,1467.55 "/>
<polyline clip-path="url(#clip280)" style="stroke:#000000; stroke-linecap:round; stroke-linejoin:round; stroke-width:4; stroke-opacity:1; fill:none" points="1271.18,1486.45 1271.18,1467.55 "/>
<polyline clip-path="url(#clip280)" style="stroke:#000000; stroke-linecap:round; stroke-linejoin:round; stroke-width:4; stroke-opacity:1; fill:none" points="1686.26,1486.45 1686.26,1467.55 "/>
<polyline clip-path="url(#clip280)" style="stroke:#000000; stroke-linecap:round; stroke-linejoin:round; stroke-width:4; stroke-opacity:1; fill:none" points="2101.34,1486.45 2101.34,1467.55 "/>
<path clip-path="url(#clip280)" d="M410.954 1532.02 L440.63 1532.02 L440.63 1535.95 L410.954 1535.95 L410.954 1532.02 Z" fill="#000000" fill-rule="nonzero" fill-opacity="1" /><path clip-path="url(#clip280)" d="M454.75 1544.91 L471.07 1544.91 L471.07 1548.85 L449.125 1548.85 L449.125 1544.91 Q451.787 1542.16 456.371 1537.53 Q460.977 1532.88 462.158 1531.53 Q464.403 1529.01 465.283 1527.27 Q466.186 1525.51 466.186 1523.82 Q466.186 1521.07 464.241 1519.33 Q462.32 1517.6 459.218 1517.6 Q457.019 1517.6 454.565 1518.36 Q452.135 1519.13 449.357 1520.68 L449.357 1515.95 Q452.181 1514.82 454.635 1514.24 Q457.088 1513.66 459.125 1513.66 Q464.496 1513.66 467.69 1516.35 Q470.885 1519.03 470.885 1523.52 Q470.885 1525.65 470.074 1527.57 Q469.287 1529.47 467.181 1532.07 Q466.602 1532.74 463.5 1535.95 Q460.399 1539.15 454.75 1544.91 Z" fill="#000000" fill-rule="nonzero" fill-opacity="1" /><path clip-path="url(#clip280)" d="M825.851 1532.02 L855.527 1532.02 L855.527 1535.95 L825.851 1535.95 L825.851 1532.02 Z" fill="#000000" fill-rule="nonzero" fill-opacity="1" /><path clip-path="url(#clip280)" d="M866.43 1544.91 L874.069 1544.91 L874.069 1518.55 L865.759 1520.21 L865.759 1515.95 L874.022 1514.29 L878.698 1514.29 L878.698 1544.91 L886.337 1544.91 L886.337 1548.85 L866.43 1548.85 L866.43 1544.91 Z" fill="#000000" fill-rule="nonzero" fill-opacity="1" /><path clip-path="url(#clip280)" d="M1271.18 1517.37 Q1267.57 1517.37 1265.74 1520.93 Q1263.93 1524.47 1263.93 1531.6 Q1263.93 1538.71 1265.74 1542.27 Q1267.57 1545.82 1271.18 1545.82 Q1274.81 1545.82 1276.62 1542.27 Q1278.45 1538.71 1278.45 1531.6 Q1278.45 1524.47 1276.62 1520.93 Q1274.81 1517.37 1271.18 1517.37 M1271.18 1513.66 Q1276.99 1513.66 1280.04 1518.27 Q1283.12 1522.85 1283.12 1531.6 Q1283.12 1540.33 1280.04 1544.94 Q1276.99 1549.52 1271.18 1549.52 Q1265.37 1549.52 1262.29 1544.94 Q1259.23 1540.33 1259.23 1531.6 Q1259.23 1522.85 1262.29 1518.27 Q1265.37 1513.66 1271.18 1513.66 Z" fill="#000000" fill-rule="nonzero" fill-opacity="1" /><path clip-path="url(#clip280)" d="M1676.64 1544.91 L1684.28 1544.91 L1684.28 1518.55 L1675.97 1520.21 L1675.97 1515.95 L1684.23 1514.29 L1688.91 1514.29 L1688.91 1544.91 L1696.55 1544.91 L1696.55 1548.85 L1676.64 1548.85 L1676.64 1544.91 Z" fill="#000000" fill-rule="nonzero" fill-opacity="1" /><path clip-path="url(#clip280)" d="M2095.99 1544.91 L2112.31 1544.91 L2112.31 1548.85 L2090.37 1548.85 L2090.37 1544.91 Q2093.03 1542.16 2097.61 1537.53 Q2102.22 1532.88 2103.4 1531.53 Q2105.65 1529.01 2106.53 1527.27 Q2107.43 1525.51 2107.43 1523.82 Q2107.43 1521.07 2105.48 1519.33 Q2103.56 1517.6 2100.46 1517.6 Q2098.26 1517.6 2095.81 1518.36 Q2093.38 1519.13 2090.6 1520.68 L2090.6 1515.95 Q2093.42 1514.82 2095.88 1514.24 Q2098.33 1513.66 2100.37 1513.66 Q2105.74 1513.66 2108.93 1516.35 Q2112.13 1519.03 2112.13 1523.52 Q2112.13 1525.65 2111.32 1527.57 Q2110.53 1529.47 2108.42 1532.07 Q2107.85 1532.74 2104.74 1535.95 Q2101.64 1539.15 2095.99 1544.91 Z" fill="#000000" fill-rule="nonzero" fill-opacity="1" /><polyline clip-path="url(#clip282)" style="stroke:#000000; stroke-linecap:round; stroke-linejoin:round; stroke-width:2; stroke-opacity:0.1; fill:none" points="147.478,1280.65 2352.76,1280.65 "/>
<polyline clip-path="url(#clip282)" style="stroke:#000000; stroke-linecap:round; stroke-linejoin:round; stroke-width:2; stroke-opacity:0.1; fill:none" points="147.478,930.467 2352.76,930.467 "/>
<polyline clip-path="url(#clip282)" style="stroke:#000000; stroke-linecap:round; stroke-linejoin:round; stroke-width:2; stroke-opacity:0.1; fill:none" points="147.478,580.288 2352.76,580.288 "/>
<polyline clip-path="url(#clip282)" style="stroke:#000000; stroke-linecap:round; stroke-linejoin:round; stroke-width:2; stroke-opacity:0.1; fill:none" points="147.478,230.109 2352.76,230.109 "/>
<polyline clip-path="url(#clip280)" style="stroke:#000000; stroke-linecap:round; stroke-linejoin:round; stroke-width:4; stroke-opacity:1; fill:none" points="147.478,1486.45 147.478,47.2441 "/>
<polyline clip-path="url(#clip280)" style="stroke:#000000; stroke-linecap:round; stroke-linejoin:round; stroke-width:4; stroke-opacity:1; fill:none" points="147.478,1280.65 166.376,1280.65 "/>
<polyline clip-path="url(#clip280)" style="stroke:#000000; stroke-linecap:round; stroke-linejoin:round; stroke-width:4; stroke-opacity:1; fill:none" points="147.478,930.467 166.376,930.467 "/>
<polyline clip-path="url(#clip280)" style="stroke:#000000; stroke-linecap:round; stroke-linejoin:round; stroke-width:4; stroke-opacity:1; fill:none" points="147.478,580.288 166.376,580.288 "/>
<polyline clip-path="url(#clip280)" style="stroke:#000000; stroke-linecap:round; stroke-linejoin:round; stroke-width:4; stroke-opacity:1; fill:none" points="147.478,230.109 166.376,230.109 "/>
<path clip-path="url(#clip280)" d="M50.9921 1281.1 L80.6679 1281.1 L80.6679 1285.03 L50.9921 1285.03 L50.9921 1281.1 Z" fill="#000000" fill-rule="nonzero" fill-opacity="1" /><path clip-path="url(#clip280)" d="M91.5706 1293.99 L99.2095 1293.99 L99.2095 1267.63 L90.8993 1269.29 L90.8993 1265.03 L99.1632 1263.37 L103.839 1263.37 L103.839 1293.99 L111.478 1293.99 L111.478 1297.93 L91.5706 1297.93 L91.5706 1293.99 Z" fill="#000000" fill-rule="nonzero" fill-opacity="1" /><path clip-path="url(#clip280)" d="M99.5335 916.266 Q95.9224 916.266 94.0937 919.83 Q92.2882 923.372 92.2882 930.502 Q92.2882 937.608 94.0937 941.173 Q95.9224 944.714 99.5335 944.714 Q103.168 944.714 104.973 941.173 Q106.802 937.608 106.802 930.502 Q106.802 923.372 104.973 919.83 Q103.168 916.266 99.5335 916.266 M99.5335 912.562 Q105.344 912.562 108.399 917.168 Q111.478 921.752 111.478 930.502 Q111.478 939.228 108.399 943.835 Q105.344 948.418 99.5335 948.418 Q93.7234 948.418 90.6447 943.835 Q87.5892 939.228 87.5892 930.502 Q87.5892 921.752 90.6447 917.168 Q93.7234 912.562 99.5335 912.562 Z" fill="#000000" fill-rule="nonzero" fill-opacity="1" /><path clip-path="url(#clip280)" d="M91.5706 593.633 L99.2095 593.633 L99.2095 567.267 L90.8993 568.934 L90.8993 564.674 L99.1632 563.008 L103.839 563.008 L103.839 593.633 L111.478 593.633 L111.478 597.568 L91.5706 597.568 L91.5706 593.633 Z" fill="#000000" fill-rule="nonzero" fill-opacity="1" /><path clip-path="url(#clip280)" d="M95.1586 243.453 L111.478 243.453 L111.478 247.389 L89.5336 247.389 L89.5336 243.453 Q92.1956 240.699 96.7789 236.069 Q101.385 231.416 102.566 230.074 Q104.811 227.551 105.691 225.815 Q106.594 224.055 106.594 222.366 Q106.594 219.611 104.649 217.875 Q102.728 216.139 99.6261 216.139 Q97.4271 216.139 94.9734 216.903 Q92.5428 217.666 89.7651 219.217 L89.7651 214.495 Q92.5891 213.361 95.0428 212.782 Q97.4965 212.204 99.5335 212.204 Q104.904 212.204 108.098 214.889 Q111.293 217.574 111.293 222.065 Q111.293 224.194 110.483 226.115 Q109.696 228.014 107.589 230.606 Q107.01 231.277 103.909 234.495 Q100.807 237.689 95.1586 243.453 Z" fill="#000000" fill-rule="nonzero" fill-opacity="1" /><circle clip-path="url(#clip282)" cx="979.707" cy="1089.68" r="14.4" fill="#009af9" fill-rule="evenodd" fill-opacity="0.5" stroke="#000000" stroke-opacity="0.5" stroke-width="3.2"/>
<circle clip-path="url(#clip282)" cx="1107.91" cy="1385.15" r="14.4" fill="#009af9" fill-rule="evenodd" fill-opacity="0.5" stroke="#000000" stroke-opacity="0.5" stroke-width="3.2"/>
<circle clip-path="url(#clip282)" cx="1175.1" cy="972.752" r="14.4" fill="#009af9" fill-rule="evenodd" fill-opacity="0.5" stroke="#000000" stroke-opacity="0.5" stroke-width="3.2"/>
<circle clip-path="url(#clip282)" cx="1714.39" cy="926.203" r="14.4" fill="#009af9" fill-rule="evenodd" fill-opacity="0.5" stroke="#000000" stroke-opacity="0.5" stroke-width="3.2"/>
<circle clip-path="url(#clip282)" cx="2290.34" cy="1232.6" r="14.4" fill="#009af9" fill-rule="evenodd" fill-opacity="0.5" stroke="#000000" stroke-opacity="0.5" stroke-width="3.2"/>
<circle clip-path="url(#clip282)" cx="952.305" cy="674.818" r="14.4" fill="#009af9" fill-rule="evenodd" fill-opacity="0.5" stroke="#000000" stroke-opacity="0.5" stroke-width="3.2"/>
<circle clip-path="url(#clip282)" cx="1211.97" cy="586.075" r="14.4" fill="#009af9" fill-rule="evenodd" fill-opacity="0.5" stroke="#000000" stroke-opacity="0.5" stroke-width="3.2"/>
<circle clip-path="url(#clip282)" cx="1520.6" cy="1445.72" r="14.4" fill="#009af9" fill-rule="evenodd" fill-opacity="0.5" stroke="#000000" stroke-opacity="0.5" stroke-width="3.2"/>
<circle clip-path="url(#clip282)" cx="557.092" cy="705.893" r="14.4" fill="#009af9" fill-rule="evenodd" fill-opacity="0.5" stroke="#000000" stroke-opacity="0.5" stroke-width="3.2"/>
<circle clip-path="url(#clip282)" cx="1109.52" cy="87.9763" r="14.4" fill="#009af9" fill-rule="evenodd" fill-opacity="0.5" stroke="#000000" stroke-opacity="0.5" stroke-width="3.2"/>
<circle clip-path="url(#clip282)" cx="1499.56" cy="533.264" r="14.4" fill="#009af9" fill-rule="evenodd" fill-opacity="0.5" stroke="#000000" stroke-opacity="0.5" stroke-width="3.2"/>
<circle clip-path="url(#clip282)" cx="1379.18" cy="1166.58" r="14.4" fill="#009af9" fill-rule="evenodd" fill-opacity="0.5" stroke="#000000" stroke-opacity="0.5" stroke-width="3.2"/>
<circle clip-path="url(#clip282)" cx="1295.93" cy="1157.65" r="14.4" fill="#009af9" fill-rule="evenodd" fill-opacity="0.5" stroke="#000000" stroke-opacity="0.5" stroke-width="3.2"/>
<circle clip-path="url(#clip282)" cx="1438.63" cy="1429.57" r="14.4" fill="#009af9" fill-rule="evenodd" fill-opacity="0.5" stroke="#000000" stroke-opacity="0.5" stroke-width="3.2"/>
<circle clip-path="url(#clip282)" cx="915.883" cy="964.245" r="14.4" fill="#009af9" fill-rule="evenodd" fill-opacity="0.5" stroke="#000000" stroke-opacity="0.5" stroke-width="3.2"/>
<circle clip-path="url(#clip282)" cx="679.711" cy="775.966" r="14.4" fill="#009af9" fill-rule="evenodd" fill-opacity="0.5" stroke="#000000" stroke-opacity="0.5" stroke-width="3.2"/>
<circle clip-path="url(#clip282)" cx="1401.66" cy="630.593" r="14.4" fill="#009af9" fill-rule="evenodd" fill-opacity="0.5" stroke="#000000" stroke-opacity="0.5" stroke-width="3.2"/>
<circle clip-path="url(#clip282)" cx="1325.85" cy="961.958" r="14.4" fill="#009af9" fill-rule="evenodd" fill-opacity="0.5" stroke="#000000" stroke-opacity="0.5" stroke-width="3.2"/>
<circle clip-path="url(#clip282)" cx="864.763" cy="555.704" r="14.4" fill="#009af9" fill-rule="evenodd" fill-opacity="0.5" stroke="#000000" stroke-opacity="0.5" stroke-width="3.2"/>
<circle clip-path="url(#clip282)" cx="716.64" cy="634.074" r="14.4" fill="#009af9" fill-rule="evenodd" fill-opacity="0.5" stroke="#000000" stroke-opacity="0.5" stroke-width="3.2"/>
<circle clip-path="url(#clip282)" cx="1209.84" cy="869.578" r="14.4" fill="#009af9" fill-rule="evenodd" fill-opacity="0.5" stroke="#000000" stroke-opacity="0.5" stroke-width="3.2"/>
<circle clip-path="url(#clip282)" cx="1041.06" cy="467.675" r="14.4" fill="#009af9" fill-rule="evenodd" fill-opacity="0.5" stroke="#000000" stroke-opacity="0.5" stroke-width="3.2"/>
<circle clip-path="url(#clip282)" cx="935.39" cy="1389" r="14.4" fill="#009af9" fill-rule="evenodd" fill-opacity="0.5" stroke="#000000" stroke-opacity="0.5" stroke-width="3.2"/>
<circle clip-path="url(#clip282)" cx="984.794" cy="829.752" r="14.4" fill="#009af9" fill-rule="evenodd" fill-opacity="0.5" stroke="#000000" stroke-opacity="0.5" stroke-width="3.2"/>
<circle clip-path="url(#clip282)" cx="1123.24" cy="805.268" r="14.4" fill="#009af9" fill-rule="evenodd" fill-opacity="0.5" stroke="#000000" stroke-opacity="0.5" stroke-width="3.2"/>
<circle clip-path="url(#clip282)" cx="1112.16" cy="320.484" r="14.4" fill="#009af9" fill-rule="evenodd" fill-opacity="0.5" stroke="#000000" stroke-opacity="0.5" stroke-width="3.2"/>
<circle clip-path="url(#clip282)" cx="401.936" cy="401.138" r="14.4" fill="#009af9" fill-rule="evenodd" fill-opacity="0.5" stroke="#000000" stroke-opacity="0.5" stroke-width="3.2"/>
<circle clip-path="url(#clip282)" cx="209.891" cy="1344.83" r="14.4" fill="#009af9" fill-rule="evenodd" fill-opacity="0.5" stroke="#000000" stroke-opacity="0.5" stroke-width="3.2"/>
<circle clip-path="url(#clip282)" cx="1877.77" cy="722.078" r="14.4" fill="#009af9" fill-rule="evenodd" fill-opacity="0.5" stroke="#000000" stroke-opacity="0.5" stroke-width="3.2"/>
<circle clip-path="url(#clip282)" cx="1543.7" cy="964.788" r="14.4" fill="#009af9" fill-rule="evenodd" fill-opacity="0.5" stroke="#000000" stroke-opacity="0.5" stroke-width="3.2"/>
<path clip-path="url(#clip282)" d="M209.891 1344.83 L1520.6 1445.72 L2290.34 1232.6 L1877.77 722.078 L1109.52 87.9763 L401.936 401.138 L209.891 1344.83 L209.891 1344.83  Z" fill="#e26f46" fill-rule="evenodd" fill-opacity="0.2"/>
<polyline clip-path="url(#clip282)" style="stroke:#000000; stroke-linecap:round; stroke-linejoin:round; stroke-width:4; stroke-opacity:0.2; fill:none" points="209.891,1344.83 1520.6,1445.72 2290.34,1232.6 1877.77,722.078 1109.52,87.9763 401.936,401.138 209.891,1344.83 "/>
</svg>
