<?xml version="1.0" encoding="utf-8"?>
<svg xmlns="http://www.w3.org/2000/svg" xmlns:xlink="http://www.w3.org/1999/xlink" width="600" height="400" viewBox="0 0 2400 1600">
<defs>
  <clipPath id="clip110">
    <rect x="0" y="0" width="2400" height="1600"/>
  </clipPath>
</defs>
<path clip-path="url(#clip110)" d="M0 1600 L2400 1600 L2400 0 L0 0  Z" fill="#ffffff" fill-rule="evenodd" fill-opacity="1"/>
<defs>
  <clipPath id="clip111">
    <rect x="480" y="0" width="1681" height="1600"/>
  </clipPath>
</defs>
<path clip-path="url(#clip110)" d="M147.478 1486.45 L2352.76 1486.45 L2352.76 47.2441 L147.478 47.2441  Z" fill="#ffffff" fill-rule="evenodd" fill-opacity="1"/>
<defs>
  <clipPath id="clip112">
    <rect x="147" y="47" width="2206" height="1440"/>
  </clipPath>
</defs>
<polyline clip-path="url(#clip112)" style="stroke:#000000; stroke-linecap:round; stroke-linejoin:round; stroke-width:2; stroke-opacity:0.1; fill:none" points="184.734,1486.45 184.734,47.2441 "/>
<polyline clip-path="url(#clip112)" style="stroke:#000000; stroke-linecap:round; stroke-linejoin:round; stroke-width:2; stroke-opacity:0.1; fill:none" points="603.257,1486.45 603.257,47.2441 "/>
<polyline clip-path="url(#clip112)" style="stroke:#000000; stroke-linecap:round; stroke-linejoin:round; stroke-width:2; stroke-opacity:0.1; fill:none" points="1021.78,1486.45 1021.78,47.2441 "/>
<polyline clip-path="url(#clip112)" style="stroke:#000000; stroke-linecap:round; stroke-linejoin:round; stroke-width:2; stroke-opacity:0.1; fill:none" points="1440.3,1486.45 1440.3,47.2441 "/>
<polyline clip-path="url(#clip112)" style="stroke:#000000; stroke-linecap:round; stroke-linejoin:round; stroke-width:2; stroke-opacity:0.1; fill:none" points="1858.83,1486.45 1858.83,47.2441 "/>
<polyline clip-path="url(#clip112)" style="stroke:#000000; stroke-linecap:round; stroke-linejoin:round; stroke-width:2; stroke-opacity:0.1; fill:none" points="2277.35,1486.45 2277.35,47.2441 "/>
<polyline clip-path="url(#clip110)" style="stroke:#000000; stroke-linecap:round; stroke-linejoin:round; stroke-width:4; stroke-opacity:1; fill:none" points="147.478,1486.45 2352.76,1486.45 "/>
<polyline clip-path="url(#clip110)" style="stroke:#000000; stroke-linecap:round; stroke-linejoin:round; stroke-width:4; stroke-opacity:1; fill:none" points="184.734,1486.45 184.734,1467.55 "/>
<polyline clip-path="url(#clip110)" style="stroke:#000000; stroke-linecap:round; stroke-linejoin:round; stroke-width:4; stroke-opacity:1; fill:none" points="603.257,1486.45 603.257,1467.55 "/>
<polyline clip-path="url(#clip110)" style="stroke:#000000; stroke-linecap:round; stroke-linejoin:round; stroke-width:4; stroke-opacity:1; fill:none" points="1021.78,1486.45 1021.78,1467.55 "/>
<polyline clip-path="url(#clip110)" style="stroke:#000000; stroke-linecap:round; stroke-linejoin:round; stroke-width:4; stroke-opacity:1; fill:none" points="1440.3,1486.45 1440.3,1467.55 "/>
<polyline clip-path="url(#clip110)" style="stroke:#000000; stroke-linecap:round; stroke-linejoin:round; stroke-width:4; stroke-opacity:1; fill:none" points="1858.83,1486.45 1858.83,1467.55 "/>
<polyline clip-path="url(#clip110)" style="stroke:#000000; stroke-linecap:round; stroke-linejoin:round; stroke-width:4; stroke-opacity:1; fill:none" points="2277.35,1486.45 2277.35,1467.55 "/>
<path clip-path="url(#clip110)" d="M154.202 1532.02 L183.878 1532.02 L183.878 1535.95 L154.202 1535.95 L154.202 1532.02 Z" fill="#000000" fill-rule="nonzero" fill-opacity="1" /><path clip-path="url(#clip110)" d="M208.137 1530.21 Q211.493 1530.93 213.368 1533.2 Q215.267 1535.47 215.267 1538.8 Q215.267 1543.92 211.748 1546.72 Q208.23 1549.52 201.748 1549.52 Q199.572 1549.52 197.257 1549.08 Q194.966 1548.66 192.512 1547.81 L192.512 1543.29 Q194.456 1544.43 196.771 1545.01 Q199.086 1545.58 201.609 1545.58 Q206.007 1545.58 208.299 1543.85 Q210.614 1542.11 210.614 1538.8 Q210.614 1535.75 208.461 1534.03 Q206.331 1532.3 202.512 1532.3 L198.484 1532.3 L198.484 1528.45 L202.697 1528.45 Q206.146 1528.45 207.975 1527.09 Q209.804 1525.7 209.804 1523.11 Q209.804 1520.45 207.905 1519.03 Q206.03 1517.6 202.512 1517.6 Q200.591 1517.6 198.392 1518.01 Q196.193 1518.43 193.554 1519.31 L193.554 1515.14 Q196.216 1514.4 198.53 1514.03 Q200.868 1513.66 202.929 1513.66 Q208.253 1513.66 211.355 1516.09 Q214.456 1518.5 214.456 1522.62 Q214.456 1525.49 212.813 1527.48 Q211.169 1529.45 208.137 1530.21 Z" fill="#000000" fill-rule="nonzero" fill-opacity="1" /><path clip-path="url(#clip110)" d="M573.199 1532.02 L602.875 1532.02 L602.875 1535.95 L573.199 1535.95 L573.199 1532.02 Z" fill="#000000" fill-rule="nonzero" fill-opacity="1" /><path clip-path="url(#clip110)" d="M616.995 1544.91 L633.315 1544.91 L633.315 1548.85 L611.37 1548.85 L611.37 1544.91 Q614.032 1542.16 618.616 1537.53 Q623.222 1532.88 624.403 1531.53 Q626.648 1529.01 627.528 1527.27 Q628.43 1525.51 628.43 1523.82 Q628.43 1521.07 626.486 1519.33 Q624.565 1517.6 621.463 1517.6 Q619.264 1517.6 616.81 1518.36 Q614.38 1519.13 611.602 1520.68 L611.602 1515.95 Q614.426 1514.82 616.88 1514.24 Q619.333 1513.66 621.37 1513.66 Q626.741 1513.66 629.935 1516.35 Q633.129 1519.03 633.129 1523.52 Q633.129 1525.65 632.319 1527.57 Q631.532 1529.47 629.426 1532.07 Q628.847 1532.74 625.745 1535.95 Q622.643 1539.15 616.995 1544.91 Z" fill="#000000" fill-rule="nonzero" fill-opacity="1" /><path clip-path="url(#clip110)" d="M991.537 1532.02 L1021.21 1532.02 L1021.21 1535.95 L991.537 1535.95 L991.537 1532.02 Z" fill="#000000" fill-rule="nonzero" fill-opacity="1" /><path clip-path="url(#clip110)" d="M1032.12 1544.91 L1039.75 1544.91 L1039.75 1518.55 L1031.44 1520.21 L1031.44 1515.95 L1039.71 1514.29 L1044.38 1514.29 L1044.38 1544.91 L1052.02 1544.91 L1052.02 1548.85 L1032.12 1548.85 L1032.12 1544.91 Z" fill="#000000" fill-rule="nonzero" fill-opacity="1" /><path clip-path="url(#clip110)" d="M1440.3 1517.37 Q1436.69 1517.37 1434.86 1520.93 Q1433.06 1524.47 1433.06 1531.6 Q1433.06 1538.71 1434.86 1542.27 Q1436.69 1545.82 1440.3 1545.82 Q1443.94 1545.82 1445.74 1542.27 Q1447.57 1538.71 1447.57 1531.6 Q1447.57 1524.47 1445.74 1520.93 Q1443.94 1517.37 1440.3 1517.37 M1440.3 1513.66 Q1446.11 1513.66 1449.17 1518.27 Q1452.25 1522.85 1452.25 1531.6 Q1452.25 1540.33 1449.17 1544.94 Q1446.11 1549.52 1440.3 1549.52 Q1434.49 1549.52 1431.41 1544.94 Q1428.36 1540.33 1428.36 1531.6 Q1428.36 1522.85 1431.41 1518.27 Q1434.49 1513.66 1440.3 1513.66 Z" fill="#000000" fill-rule="nonzero" fill-opacity="1" /><path clip-path="url(#clip110)" d="M1849.21 1544.91 L1856.85 1544.91 L1856.85 1518.55 L1848.54 1520.21 L1848.54 1515.95 L1856.8 1514.29 L1861.48 1514.29 L1861.48 1544.91 L1869.11 1544.91 L1869.11 1548.85 L1849.21 1548.85 L1849.21 1544.91 Z" fill="#000000" fill-rule="nonzero" fill-opacity="1" /><path clip-path="url(#clip110)" d="M2272 1544.91 L2288.32 1544.91 L2288.32 1548.85 L2266.38 1548.85 L2266.38 1544.91 Q2269.04 1542.16 2273.62 1537.53 Q2278.23 1532.88 2279.41 1531.53 Q2281.65 1529.01 2282.53 1527.27 Q2283.44 1525.51 2283.44 1523.82 Q2283.44 1521.07 2281.49 1519.33 Q2279.57 1517.6 2276.47 1517.6 Q2274.27 1517.6 2271.82 1518.36 Q2269.38 1519.13 2266.61 1520.68 L2266.61 1515.95 Q2269.43 1514.82 2271.88 1514.24 Q2274.34 1513.66 2276.38 1513.66 Q2281.75 1513.66 2284.94 1516.35 Q2288.13 1519.03 2288.13 1523.52 Q2288.13 1525.65 2287.32 1527.57 Q2286.54 1529.47 2284.43 1532.07 Q2283.85 1532.74 2280.75 1535.95 Q2277.65 1539.15 2272 1544.91 Z" fill="#000000" fill-rule="nonzero" fill-opacity="1" /><polyline clip-path="url(#clip112)" style="stroke:#000000; stroke-linecap:round; stroke-linejoin:round; stroke-width:2; stroke-opacity:0.1; fill:none" points="147.478,1462.61 2352.76,1462.61 "/>
<polyline clip-path="url(#clip112)" style="stroke:#000000; stroke-linecap:round; stroke-linejoin:round; stroke-width:2; stroke-opacity:0.1; fill:none" points="147.478,1142.17 2352.76,1142.17 "/>
<polyline clip-path="url(#clip112)" style="stroke:#000000; stroke-linecap:round; stroke-linejoin:round; stroke-width:2; stroke-opacity:0.1; fill:none" points="147.478,821.73 2352.76,821.73 "/>
<polyline clip-path="url(#clip112)" style="stroke:#000000; stroke-linecap:round; stroke-linejoin:round; stroke-width:2; stroke-opacity:0.1; fill:none" points="147.478,501.291 2352.76,501.291 "/>
<polyline clip-path="url(#clip112)" style="stroke:#000000; stroke-linecap:round; stroke-linejoin:round; stroke-width:2; stroke-opacity:0.1; fill:none" points="147.478,180.852 2352.76,180.852 "/>
<polyline clip-path="url(#clip110)" style="stroke:#000000; stroke-linecap:round; stroke-linejoin:round; stroke-width:4; stroke-opacity:1; fill:none" points="147.478,1486.45 147.478,47.2441 "/>
<polyline clip-path="url(#clip110)" style="stroke:#000000; stroke-linecap:round; stroke-linejoin:round; stroke-width:4; stroke-opacity:1; fill:none" points="147.478,1462.61 166.376,1462.61 "/>
<polyline clip-path="url(#clip110)" style="stroke:#000000; stroke-linecap:round; stroke-linejoin:round; stroke-width:4; stroke-opacity:1; fill:none" points="147.478,1142.17 166.376,1142.17 "/>
<polyline clip-path="url(#clip110)" style="stroke:#000000; stroke-linecap:round; stroke-linejoin:round; stroke-width:4; stroke-opacity:1; fill:none" points="147.478,821.73 166.376,821.73 "/>
<polyline clip-path="url(#clip110)" style="stroke:#000000; stroke-linecap:round; stroke-linejoin:round; stroke-width:4; stroke-opacity:1; fill:none" points="147.478,501.291 166.376,501.291 "/>
<polyline clip-path="url(#clip110)" style="stroke:#000000; stroke-linecap:round; stroke-linejoin:round; stroke-width:4; stroke-opacity:1; fill:none" points="147.478,180.852 166.376,180.852 "/>
<path clip-path="url(#clip110)" d="M51.3625 1463.06 L81.0383 1463.06 L81.0383 1466.99 L51.3625 1466.99 L51.3625 1463.06 Z" fill="#000000" fill-rule="nonzero" fill-opacity="1" /><path clip-path="url(#clip110)" d="M95.1586 1475.95 L111.478 1475.95 L111.478 1479.89 L89.5336 1479.89 L89.5336 1475.95 Q92.1956 1473.2 96.7789 1468.57 Q101.385 1463.92 102.566 1462.57 Q104.811 1460.05 105.691 1458.31 Q106.594 1456.55 106.594 1454.86 Q106.594 1452.11 104.649 1450.37 Q102.728 1448.64 99.6261 1448.64 Q97.4271 1448.64 94.9734 1449.4 Q92.5428 1450.17 89.7651 1451.72 L89.7651 1446.99 Q92.5891 1445.86 95.0428 1445.28 Q97.4965 1444.7 99.5335 1444.7 Q104.904 1444.7 108.098 1447.39 Q111.293 1450.07 111.293 1454.56 Q111.293 1456.69 110.483 1458.61 Q109.696 1460.51 107.589 1463.11 Q107.01 1463.78 103.909 1466.99 Q100.807 1470.19 95.1586 1475.95 Z" fill="#000000" fill-rule="nonzero" fill-opacity="1" /><path clip-path="url(#clip110)" d="M50.9921 1142.62 L80.6679 1142.62 L80.6679 1146.56 L50.9921 1146.56 L50.9921 1142.62 Z" fill="#000000" fill-rule="nonzero" fill-opacity="1" /><path clip-path="url(#clip110)" d="M91.5706 1155.51 L99.2095 1155.51 L99.2095 1129.15 L90.8993 1130.81 L90.8993 1126.56 L99.1632 1124.89 L103.839 1124.89 L103.839 1155.51 L111.478 1155.51 L111.478 1159.45 L91.5706 1159.45 L91.5706 1155.51 Z" fill="#000000" fill-rule="nonzero" fill-opacity="1" /><path clip-path="url(#clip110)" d="M99.5335 807.528 Q95.9224 807.528 94.0937 811.093 Q92.2882 814.635 92.2882 821.765 Q92.2882 828.871 94.0937 832.436 Q95.9224 835.977 99.5335 835.977 Q103.168 835.977 104.973 832.436 Q106.802 828.871 106.802 821.765 Q106.802 814.635 104.973 811.093 Q103.168 807.528 99.5335 807.528 M99.5335 803.825 Q105.344 803.825 108.399 808.431 Q111.478 813.015 111.478 821.765 Q111.478 830.491 108.399 835.098 Q105.344 839.681 99.5335 839.681 Q93.7234 839.681 90.6447 835.098 Q87.5892 830.491 87.5892 821.765 Q87.5892 813.015 90.6447 808.431 Q93.7234 803.825 99.5335 803.825 Z" fill="#000000" fill-rule="nonzero" fill-opacity="1" /><path clip-path="url(#clip110)" d="M91.5706 514.636 L99.2095 514.636 L99.2095 488.27 L90.8993 489.937 L90.8993 485.678 L99.1632 484.011 L103.839 484.011 L103.839 514.636 L111.478 514.636 L111.478 518.571 L91.5706 518.571 L91.5706 514.636 Z" fill="#000000" fill-rule="nonzero" fill-opacity="1" /><path clip-path="url(#clip110)" d="M95.1586 194.197 L111.478 194.197 L111.478 198.132 L89.5336 198.132 L89.5336 194.197 Q92.1956 191.442 96.7789 186.813 Q101.385 182.16 102.566 180.817 Q104.811 178.294 105.691 176.558 Q106.594 174.799 106.594 173.109 Q106.594 170.354 104.649 168.618 Q102.728 166.882 99.6261 166.882 Q97.4271 166.882 94.9734 167.646 Q92.5428 168.41 89.7651 169.961 L89.7651 165.239 Q92.5891 164.104 95.0428 163.526 Q97.4965 162.947 99.5335 162.947 Q104.904 162.947 108.098 165.632 Q111.293 168.317 111.293 172.808 Q111.293 174.938 110.483 176.859 Q109.696 178.757 107.589 181.35 Q107.01 182.021 103.909 185.239 Q100.807 188.433 95.1586 194.197 Z" fill="#000000" fill-rule="nonzero" fill-opacity="1" /><circle clip-path="url(#clip112)" cx="1460.48" cy="543.689" r="14.4" fill="#009af9" fill-rule="evenodd" fill-opacity="0.5" stroke="#000000" stroke-opacity="0.5" stroke-width="3.2"/>
<circle clip-path="url(#clip112)" cx="2290.34" cy="984.447" r="14.4" fill="#009af9" fill-rule="evenodd" fill-opacity="0.5" stroke="#000000" stroke-opacity="0.5" stroke-width="3.2"/>
<circle clip-path="url(#clip112)" cx="1418.93" cy="1445.72" r="14.4" fill="#009af9" fill-rule="evenodd" fill-opacity="0.5" stroke="#000000" stroke-opacity="0.5" stroke-width="3.2"/>
<circle clip-path="url(#clip112)" cx="1506.42" cy="580.395" r="14.4" fill="#009af9" fill-rule="evenodd" fill-opacity="0.5" stroke="#000000" stroke-opacity="0.5" stroke-width="3.2"/>
<circle clip-path="url(#clip112)" cx="992.407" cy="1293.85" r="14.4" fill="#009af9" fill-rule="evenodd" fill-opacity="0.5" stroke="#000000" stroke-opacity="0.5" stroke-width="3.2"/>
<circle clip-path="url(#clip112)" cx="2036.4" cy="645.725" r="14.4" fill="#009af9" fill-rule="evenodd" fill-opacity="0.5" stroke="#000000" stroke-opacity="0.5" stroke-width="3.2"/>
<circle clip-path="url(#clip112)" cx="2222.61" cy="488.798" r="14.4" fill="#009af9" fill-rule="evenodd" fill-opacity="0.5" stroke="#000000" stroke-opacity="0.5" stroke-width="3.2"/>
<circle clip-path="url(#clip112)" cx="2058.57" cy="474.793" r="14.4" fill="#009af9" fill-rule="evenodd" fill-opacity="0.5" stroke="#000000" stroke-opacity="0.5" stroke-width="3.2"/>
<circle clip-path="url(#clip112)" cx="1553.63" cy="87.9763" r="14.4" fill="#009af9" fill-rule="evenodd" fill-opacity="0.5" stroke="#000000" stroke-opacity="0.5" stroke-width="3.2"/>
<circle clip-path="url(#clip112)" cx="484.501" cy="351.164" r="14.4" fill="#009af9" fill-rule="evenodd" fill-opacity="0.5" stroke="#000000" stroke-opacity="0.5" stroke-width="3.2"/>
<circle clip-path="url(#clip112)" cx="1750.58" cy="1037.78" r="14.4" fill="#009af9" fill-rule="evenodd" fill-opacity="0.5" stroke="#000000" stroke-opacity="0.5" stroke-width="3.2"/>
<circle clip-path="url(#clip112)" cx="1290.12" cy="544.699" r="14.4" fill="#009af9" fill-rule="evenodd" fill-opacity="0.5" stroke="#000000" stroke-opacity="0.5" stroke-width="3.2"/>
<circle clip-path="url(#clip112)" cx="1201.68" cy="844.719" r="14.4" fill="#009af9" fill-rule="evenodd" fill-opacity="0.5" stroke="#000000" stroke-opacity="0.5" stroke-width="3.2"/>
<circle clip-path="url(#clip112)" cx="209.891" cy="1308.47" r="14.4" fill="#009af9" fill-rule="evenodd" fill-opacity="0.5" stroke="#000000" stroke-opacity="0.5" stroke-width="3.2"/>
<circle clip-path="url(#clip112)" cx="1489.56" cy="496.795" r="14.4" fill="#009af9" fill-rule="evenodd" fill-opacity="0.5" stroke="#000000" stroke-opacity="0.5" stroke-width="3.2"/>
<circle clip-path="url(#clip112)" cx="1123.42" cy="811.926" r="14.4" fill="#009af9" fill-rule="evenodd" fill-opacity="0.5" stroke="#000000" stroke-opacity="0.5" stroke-width="3.2"/>
<circle clip-path="url(#clip112)" cx="1437.86" cy="1168.18" r="14.4" fill="#009af9" fill-rule="evenodd" fill-opacity="0.5" stroke="#000000" stroke-opacity="0.5" stroke-width="3.2"/>
<circle clip-path="url(#clip112)" cx="1679.98" cy="1153.86" r="14.4" fill="#009af9" fill-rule="evenodd" fill-opacity="0.5" stroke="#000000" stroke-opacity="0.5" stroke-width="3.2"/>
<circle clip-path="url(#clip112)" cx="2042.64" cy="1040.4" r="14.4" fill="#009af9" fill-rule="evenodd" fill-opacity="0.5" stroke="#000000" stroke-opacity="0.5" stroke-width="3.2"/>
<circle clip-path="url(#clip112)" cx="1697.67" cy="743.808" r="14.4" fill="#009af9" fill-rule="evenodd" fill-opacity="0.5" stroke="#000000" stroke-opacity="0.5" stroke-width="3.2"/>
<circle clip-path="url(#clip112)" cx="707.941" cy="1304.85" r="14.4" fill="#009af9" fill-rule="evenodd" fill-opacity="0.5" stroke="#000000" stroke-opacity="0.5" stroke-width="3.2"/>
<circle clip-path="url(#clip112)" cx="1376.21" cy="775.533" r="14.4" fill="#009af9" fill-rule="evenodd" fill-opacity="0.5" stroke="#000000" stroke-opacity="0.5" stroke-width="3.2"/>
<circle clip-path="url(#clip112)" cx="1630.17" cy="378.029" r="14.4" fill="#009af9" fill-rule="evenodd" fill-opacity="0.5" stroke="#000000" stroke-opacity="0.5" stroke-width="3.2"/>
<circle clip-path="url(#clip112)" cx="1218.96" cy="585.515" r="14.4" fill="#009af9" fill-rule="evenodd" fill-opacity="0.5" stroke="#000000" stroke-opacity="0.5" stroke-width="3.2"/>
<circle clip-path="url(#clip112)" cx="1854.01" cy="1058.97" r="14.4" fill="#009af9" fill-rule="evenodd" fill-opacity="0.5" stroke="#000000" stroke-opacity="0.5" stroke-width="3.2"/>
<circle clip-path="url(#clip112)" cx="1922.46" cy="732.244" r="14.4" fill="#009af9" fill-rule="evenodd" fill-opacity="0.5" stroke="#000000" stroke-opacity="0.5" stroke-width="3.2"/>
<circle clip-path="url(#clip112)" cx="1850.22" cy="770.267" r="14.4" fill="#009af9" fill-rule="evenodd" fill-opacity="0.5" stroke="#000000" stroke-opacity="0.5" stroke-width="3.2"/>
<circle clip-path="url(#clip112)" cx="1732.47" cy="704.751" r="14.4" fill="#009af9" fill-rule="evenodd" fill-opacity="0.5" stroke="#000000" stroke-opacity="0.5" stroke-width="3.2"/>
<circle clip-path="url(#clip112)" cx="1415.75" cy="419.724" r="14.4" fill="#009af9" fill-rule="evenodd" fill-opacity="0.5" stroke="#000000" stroke-opacity="0.5" stroke-width="3.2"/>
<circle clip-path="url(#clip112)" cx="1957.2" cy="301.356" r="14.4" fill="#009af9" fill-rule="evenodd" fill-opacity="0.5" stroke="#000000" stroke-opacity="0.5" stroke-width="3.2"/>
<path clip-path="url(#clip112)" d="M209.891 1308.47 L1418.93 1445.72 L2290.34 984.447 L2222.61 488.798 L1957.2 301.356 L1553.63 87.9763 L484.501 351.164 L209.891 1308.47 L209.891 1308.47  Z" fill="#e26f46" fill-rule="evenodd" fill-opacity="0.2"/>
<polyline clip-path="url(#clip112)" style="stroke:#000000; stroke-linecap:round; stroke-linejoin:round; stroke-width:4; stroke-opacity:0.2; fill:none" points="209.891,1308.47 1418.93,1445.72 2290.34,984.447 2222.61,488.798 1957.2,301.356 1553.63,87.9763 484.501,351.164 209.891,1308.47 "/>
</svg>
