<?xml version="1.0" encoding="utf-8"?>
<svg xmlns="http://www.w3.org/2000/svg" xmlns:xlink="http://www.w3.org/1999/xlink" width="600" height="400" viewBox="0 0 2400 1600">
<defs>
  <clipPath id="clip930">
    <rect x="0" y="0" width="2400" height="1600"/>
  </clipPath>
</defs>
<path clip-path="url(#clip930)" d="M0 1600 L2400 1600 L2400 0 L0 0  Z" fill="#ffffff" fill-rule="evenodd" fill-opacity="1"/>
<defs>
  <clipPath id="clip931">
    <rect x="480" y="0" width="1681" height="1600"/>
  </clipPath>
</defs>
<path clip-path="url(#clip930)" d="M193.936 1486.45 L2352.76 1486.45 L2352.76 47.2441 L193.936 47.2441  Z" fill="#ffffff" fill-rule="evenodd" fill-opacity="1"/>
<defs>
  <clipPath id="clip932">
    <rect x="193" y="47" width="2160" height="1440"/>
  </clipPath>
</defs>
<polyline clip-path="url(#clip932)" style="stroke:#000000; stroke-linecap:round; stroke-linejoin:round; stroke-width:2; stroke-opacity:0.1; fill:none" points="322.262,1486.45 322.262,47.2441 "/>
<polyline clip-path="url(#clip932)" style="stroke:#000000; stroke-linecap:round; stroke-linejoin:round; stroke-width:2; stroke-opacity:0.1; fill:none" points="752.164,1486.45 752.164,47.2441 "/>
<polyline clip-path="url(#clip932)" style="stroke:#000000; stroke-linecap:round; stroke-linejoin:round; stroke-width:2; stroke-opacity:0.1; fill:none" points="1182.07,1486.45 1182.07,47.2441 "/>
<polyline clip-path="url(#clip932)" style="stroke:#000000; stroke-linecap:round; stroke-linejoin:round; stroke-width:2; stroke-opacity:0.1; fill:none" points="1611.97,1486.45 1611.97,47.2441 "/>
<polyline clip-path="url(#clip932)" style="stroke:#000000; stroke-linecap:round; stroke-linejoin:round; stroke-width:2; stroke-opacity:0.1; fill:none" points="2041.87,1486.45 2041.87,47.2441 "/>
<polyline clip-path="url(#clip930)" style="stroke:#000000; stroke-linecap:round; stroke-linejoin:round; stroke-width:4; stroke-opacity:1; fill:none" points="193.936,1486.45 2352.76,1486.45 "/>
<polyline clip-path="url(#clip930)" style="stroke:#000000; stroke-linecap:round; stroke-linejoin:round; stroke-width:4; stroke-opacity:1; fill:none" points="322.262,1486.45 322.262,1467.55 "/>
<polyline clip-path="url(#clip930)" style="stroke:#000000; stroke-linecap:round; stroke-linejoin:round; stroke-width:4; stroke-opacity:1; fill:none" points="752.164,1486.45 752.164,1467.55 "/>
<polyline clip-path="url(#clip930)" style="stroke:#000000; stroke-linecap:round; stroke-linejoin:round; stroke-width:4; stroke-opacity:1; fill:none" points="1182.07,1486.45 1182.07,1467.55 "/>
<polyline clip-path="url(#clip930)" style="stroke:#000000; stroke-linecap:round; stroke-linejoin:round; stroke-width:4; stroke-opacity:1; fill:none" points="1611.97,1486.45 1611.97,1467.55 "/>
<polyline clip-path="url(#clip930)" style="stroke:#000000; stroke-linecap:round; stroke-linejoin:round; stroke-width:4; stroke-opacity:1; fill:none" points="2041.87,1486.45 2041.87,1467.55 "/>
<path clip-path="url(#clip930)" d="M292.204 1532.02 L321.88 1532.02 L321.88 1535.95 L292.204 1535.95 L292.204 1532.02 Z" fill="#000000" fill-rule="nonzero" fill-opacity="1" /><path clip-path="url(#clip930)" d="M336 1544.91 L352.319 1544.91 L352.319 1548.85 L330.375 1548.85 L330.375 1544.91 Q333.037 1542.16 337.62 1537.53 Q342.227 1532.88 343.407 1531.53 Q345.653 1529.01 346.532 1527.27 Q347.435 1525.51 347.435 1523.82 Q347.435 1521.07 345.491 1519.33 Q343.569 1517.6 340.468 1517.6 Q338.268 1517.6 335.815 1518.36 Q333.384 1519.13 330.606 1520.68 L330.606 1515.95 Q333.431 1514.82 335.884 1514.24 Q338.338 1513.66 340.375 1513.66 Q345.745 1513.66 348.94 1516.35 Q352.134 1519.03 352.134 1523.52 Q352.134 1525.65 351.324 1527.57 Q350.537 1529.47 348.43 1532.07 Q347.852 1532.74 344.75 1535.95 Q341.648 1539.15 336 1544.91 Z" fill="#000000" fill-rule="nonzero" fill-opacity="1" /><path clip-path="url(#clip930)" d="M721.921 1532.02 L751.597 1532.02 L751.597 1535.95 L721.921 1535.95 L721.921 1532.02 Z" fill="#000000" fill-rule="nonzero" fill-opacity="1" /><path clip-path="url(#clip930)" d="M762.5 1544.91 L770.139 1544.91 L770.139 1518.55 L761.828 1520.21 L761.828 1515.95 L770.092 1514.29 L774.768 1514.29 L774.768 1544.91 L782.407 1544.91 L782.407 1548.85 L762.5 1548.85 L762.5 1544.91 Z" fill="#000000" fill-rule="nonzero" fill-opacity="1" /><path clip-path="url(#clip930)" d="M1182.07 1517.37 Q1178.46 1517.37 1176.63 1520.93 Q1174.82 1524.47 1174.82 1531.6 Q1174.82 1538.71 1176.63 1542.27 Q1178.46 1545.82 1182.07 1545.82 Q1185.7 1545.82 1187.51 1542.27 Q1189.34 1538.71 1189.34 1531.6 Q1189.34 1524.47 1187.51 1520.93 Q1185.7 1517.37 1182.07 1517.37 M1182.07 1513.66 Q1187.88 1513.66 1190.93 1518.27 Q1194.01 1522.85 1194.01 1531.6 Q1194.01 1540.33 1190.93 1544.94 Q1187.88 1549.52 1182.07 1549.52 Q1176.26 1549.52 1173.18 1544.94 Q1170.12 1540.33 1170.12 1531.6 Q1170.12 1522.85 1173.18 1518.27 Q1176.26 1513.66 1182.07 1513.66 Z" fill="#000000" fill-rule="nonzero" fill-opacity="1" /><path clip-path="url(#clip930)" d="M1602.35 1544.91 L1609.99 1544.91 L1609.99 1518.55 L1601.68 1520.21 L1601.68 1515.95 L1609.94 1514.29 L1614.62 1514.29 L1614.62 1544.91 L1622.26 1544.91 L1622.26 1548.85 L1602.35 1548.85 L1602.35 1544.91 Z" fill="#000000" fill-rule="nonzero" fill-opacity="1" /><path clip-path="url(#clip930)" d="M2036.52 1544.91 L2052.84 1544.91 L2052.84 1548.85 L2030.9 1548.85 L2030.9 1544.91 Q2033.56 1542.16 2038.15 1537.53 Q2042.75 1532.88 2043.93 1531.53 Q2046.18 1529.01 2047.06 1527.27 Q2047.96 1525.51 2047.96 1523.82 Q2047.96 1521.07 2046.02 1519.33 Q2044.09 1517.6 2040.99 1517.6 Q2038.79 1517.6 2036.34 1518.36 Q2033.91 1519.13 2031.13 1520.68 L2031.13 1515.95 Q2033.96 1514.82 2036.41 1514.24 Q2038.86 1513.66 2040.9 1513.66 Q2046.27 1513.66 2049.46 1516.35 Q2052.66 1519.03 2052.66 1523.52 Q2052.66 1525.65 2051.85 1527.57 Q2051.06 1529.47 2048.96 1532.07 Q2048.38 1532.74 2045.27 1535.95 Q2042.17 1539.15 2036.52 1544.91 Z" fill="#000000" fill-rule="nonzero" fill-opacity="1" /><polyline clip-path="url(#clip932)" style="stroke:#000000; stroke-linecap:round; stroke-linejoin:round; stroke-width:2; stroke-opacity:0.1; fill:none" points="193.936,1485.2 2352.76,1485.2 "/>
<polyline clip-path="url(#clip932)" style="stroke:#000000; stroke-linecap:round; stroke-linejoin:round; stroke-width:2; stroke-opacity:0.1; fill:none" points="193.936,1244.33 2352.76,1244.33 "/>
<polyline clip-path="url(#clip932)" style="stroke:#000000; stroke-linecap:round; stroke-linejoin:round; stroke-width:2; stroke-opacity:0.1; fill:none" points="193.936,1003.45 2352.76,1003.45 "/>
<polyline clip-path="url(#clip932)" style="stroke:#000000; stroke-linecap:round; stroke-linejoin:round; stroke-width:2; stroke-opacity:0.1; fill:none" points="193.936,762.572 2352.76,762.572 "/>
<polyline clip-path="url(#clip932)" style="stroke:#000000; stroke-linecap:round; stroke-linejoin:round; stroke-width:2; stroke-opacity:0.1; fill:none" points="193.936,521.696 2352.76,521.696 "/>
<polyline clip-path="url(#clip932)" style="stroke:#000000; stroke-linecap:round; stroke-linejoin:round; stroke-width:2; stroke-opacity:0.1; fill:none" points="193.936,280.819 2352.76,280.819 "/>
<polyline clip-path="url(#clip930)" style="stroke:#000000; stroke-linecap:round; stroke-linejoin:round; stroke-width:4; stroke-opacity:1; fill:none" points="193.936,1486.45 193.936,47.2441 "/>
<polyline clip-path="url(#clip930)" style="stroke:#000000; stroke-linecap:round; stroke-linejoin:round; stroke-width:4; stroke-opacity:1; fill:none" points="193.936,1485.2 212.834,1485.2 "/>
<polyline clip-path="url(#clip930)" style="stroke:#000000; stroke-linecap:round; stroke-linejoin:round; stroke-width:4; stroke-opacity:1; fill:none" points="193.936,1244.33 212.834,1244.33 "/>
<polyline clip-path="url(#clip930)" style="stroke:#000000; stroke-linecap:round; stroke-linejoin:round; stroke-width:4; stroke-opacity:1; fill:none" points="193.936,1003.45 212.834,1003.45 "/>
<polyline clip-path="url(#clip930)" style="stroke:#000000; stroke-linecap:round; stroke-linejoin:round; stroke-width:4; stroke-opacity:1; fill:none" points="193.936,762.572 212.834,762.572 "/>
<polyline clip-path="url(#clip930)" style="stroke:#000000; stroke-linecap:round; stroke-linejoin:round; stroke-width:4; stroke-opacity:1; fill:none" points="193.936,521.696 212.834,521.696 "/>
<polyline clip-path="url(#clip930)" style="stroke:#000000; stroke-linecap:round; stroke-linejoin:round; stroke-width:4; stroke-opacity:1; fill:none" points="193.936,280.819 212.834,280.819 "/>
<path clip-path="url(#clip930)" d="M51.9875 1485.65 L81.6633 1485.65 L81.6633 1489.59 L51.9875 1489.59 L51.9875 1485.65 Z" fill="#000000" fill-rule="nonzero" fill-opacity="1" /><path clip-path="url(#clip930)" d="M92.566 1498.55 L100.205 1498.55 L100.205 1472.18 L91.8947 1473.85 L91.8947 1469.59 L100.159 1467.92 L104.834 1467.92 L104.834 1498.55 L112.473 1498.55 L112.473 1502.48 L92.566 1502.48 L92.566 1498.55 Z" fill="#000000" fill-rule="nonzero" fill-opacity="1" /><path clip-path="url(#clip930)" d="M121.918 1496.6 L126.802 1496.6 L126.802 1502.48 L121.918 1502.48 L121.918 1496.6 Z" fill="#000000" fill-rule="nonzero" fill-opacity="1" /><path clip-path="url(#clip930)" d="M137.033 1467.92 L155.39 1467.92 L155.39 1471.86 L141.316 1471.86 L141.316 1480.33 Q142.334 1479.98 143.353 1479.82 Q144.371 1479.63 145.39 1479.63 Q151.177 1479.63 154.556 1482.81 Q157.936 1485.98 157.936 1491.39 Q157.936 1496.97 154.464 1500.07 Q150.992 1503.15 144.672 1503.15 Q142.496 1503.15 140.228 1502.78 Q137.982 1502.41 135.575 1501.67 L135.575 1496.97 Q137.658 1498.11 139.881 1498.66 Q142.103 1499.22 144.58 1499.22 Q148.584 1499.22 150.922 1497.11 Q153.26 1495 153.26 1491.39 Q153.26 1487.78 150.922 1485.68 Q148.584 1483.57 144.58 1483.57 Q142.705 1483.57 140.83 1483.99 Q138.978 1484.4 137.033 1485.28 L137.033 1467.92 Z" fill="#000000" fill-rule="nonzero" fill-opacity="1" /><path clip-path="url(#clip930)" d="M50.9921 1244.78 L80.6679 1244.78 L80.6679 1248.71 L50.9921 1248.71 L50.9921 1244.78 Z" fill="#000000" fill-rule="nonzero" fill-opacity="1" /><path clip-path="url(#clip930)" d="M91.5706 1257.67 L99.2095 1257.67 L99.2095 1231.3 L90.8993 1232.97 L90.8993 1228.71 L99.1632 1227.05 L103.839 1227.05 L103.839 1257.67 L111.478 1257.67 L111.478 1261.61 L91.5706 1261.61 L91.5706 1257.67 Z" fill="#000000" fill-rule="nonzero" fill-opacity="1" /><path clip-path="url(#clip930)" d="M120.922 1255.73 L125.807 1255.73 L125.807 1261.61 L120.922 1261.61 L120.922 1255.73 Z" fill="#000000" fill-rule="nonzero" fill-opacity="1" /><path clip-path="url(#clip930)" d="M145.992 1230.12 Q142.381 1230.12 140.552 1233.69 Q138.746 1237.23 138.746 1244.36 Q138.746 1251.47 140.552 1255.03 Q142.381 1258.57 145.992 1258.57 Q149.626 1258.57 151.431 1255.03 Q153.26 1251.47 153.26 1244.36 Q153.26 1237.23 151.431 1233.69 Q149.626 1230.12 145.992 1230.12 M145.992 1226.42 Q151.802 1226.42 154.857 1231.03 Q157.936 1235.61 157.936 1244.36 Q157.936 1253.09 154.857 1257.69 Q151.802 1262.28 145.992 1262.28 Q140.181 1262.28 137.103 1257.69 Q134.047 1253.09 134.047 1244.36 Q134.047 1235.61 137.103 1231.03 Q140.181 1226.42 145.992 1226.42 Z" fill="#000000" fill-rule="nonzero" fill-opacity="1" /><path clip-path="url(#clip930)" d="M51.9875 1003.9 L81.6633 1003.9 L81.6633 1007.84 L51.9875 1007.84 L51.9875 1003.9 Z" fill="#000000" fill-rule="nonzero" fill-opacity="1" /><path clip-path="url(#clip930)" d="M101.756 989.247 Q98.1447 989.247 96.316 992.812 Q94.5104 996.354 94.5104 1003.48 Q94.5104 1010.59 96.316 1014.15 Q98.1447 1017.7 101.756 1017.7 Q105.39 1017.7 107.196 1014.15 Q109.024 1010.59 109.024 1003.48 Q109.024 996.354 107.196 992.812 Q105.39 989.247 101.756 989.247 M101.756 985.544 Q107.566 985.544 110.621 990.15 Q113.7 994.733 113.7 1003.48 Q113.7 1012.21 110.621 1016.82 Q107.566 1021.4 101.756 1021.4 Q95.9456 1021.4 92.8669 1016.82 Q89.8114 1012.21 89.8114 1003.48 Q89.8114 994.733 92.8669 990.15 Q95.9456 985.544 101.756 985.544 Z" fill="#000000" fill-rule="nonzero" fill-opacity="1" /><path clip-path="url(#clip930)" d="M121.918 1014.85 L126.802 1014.85 L126.802 1020.73 L121.918 1020.73 L121.918 1014.85 Z" fill="#000000" fill-rule="nonzero" fill-opacity="1" /><path clip-path="url(#clip930)" d="M137.033 986.169 L155.39 986.169 L155.39 990.104 L141.316 990.104 L141.316 998.576 Q142.334 998.229 143.353 998.067 Q144.371 997.881 145.39 997.881 Q151.177 997.881 154.556 1001.05 Q157.936 1004.22 157.936 1009.64 Q157.936 1015.22 154.464 1018.32 Q150.992 1021.4 144.672 1021.4 Q142.496 1021.4 140.228 1021.03 Q137.982 1020.66 135.575 1019.92 L135.575 1015.22 Q137.658 1016.35 139.881 1016.91 Q142.103 1017.46 144.58 1017.46 Q148.584 1017.46 150.922 1015.36 Q153.26 1013.25 153.26 1009.64 Q153.26 1006.03 150.922 1003.92 Q148.584 1001.82 144.58 1001.82 Q142.705 1001.82 140.83 1002.23 Q138.978 1002.65 137.033 1003.53 L137.033 986.169 Z" fill="#000000" fill-rule="nonzero" fill-opacity="1" /><path clip-path="url(#clip930)" d="M100.76 748.371 Q97.1493 748.371 95.3206 751.936 Q93.515 755.477 93.515 762.607 Q93.515 769.713 95.3206 773.278 Q97.1493 776.82 100.76 776.82 Q104.395 776.82 106.2 773.278 Q108.029 769.713 108.029 762.607 Q108.029 755.477 106.2 751.936 Q104.395 748.371 100.76 748.371 M100.76 744.667 Q106.571 744.667 109.626 749.274 Q112.705 753.857 112.705 762.607 Q112.705 771.334 109.626 775.94 Q106.571 780.523 100.76 780.523 Q94.9502 780.523 91.8715 775.94 Q88.816 771.334 88.816 762.607 Q88.816 753.857 91.8715 749.274 Q94.9502 744.667 100.76 744.667 Z" fill="#000000" fill-rule="nonzero" fill-opacity="1" /><path clip-path="url(#clip930)" d="M120.922 773.973 L125.807 773.973 L125.807 779.852 L120.922 779.852 L120.922 773.973 Z" fill="#000000" fill-rule="nonzero" fill-opacity="1" /><path clip-path="url(#clip930)" d="M145.992 748.371 Q142.381 748.371 140.552 751.936 Q138.746 755.477 138.746 762.607 Q138.746 769.713 140.552 773.278 Q142.381 776.82 145.992 776.82 Q149.626 776.82 151.431 773.278 Q153.26 769.713 153.26 762.607 Q153.26 755.477 151.431 751.936 Q149.626 748.371 145.992 748.371 M145.992 744.667 Q151.802 744.667 154.857 749.274 Q157.936 753.857 157.936 762.607 Q157.936 771.334 154.857 775.94 Q151.802 780.523 145.992 780.523 Q140.181 780.523 137.103 775.94 Q134.047 771.334 134.047 762.607 Q134.047 753.857 137.103 749.274 Q140.181 744.667 145.992 744.667 Z" fill="#000000" fill-rule="nonzero" fill-opacity="1" /><path clip-path="url(#clip930)" d="M101.756 507.494 Q98.1447 507.494 96.316 511.059 Q94.5104 514.601 94.5104 521.73 Q94.5104 528.837 96.316 532.402 Q98.1447 535.943 101.756 535.943 Q105.39 535.943 107.196 532.402 Q109.024 528.837 109.024 521.73 Q109.024 514.601 107.196 511.059 Q105.39 507.494 101.756 507.494 M101.756 503.791 Q107.566 503.791 110.621 508.397 Q113.7 512.98 113.7 521.73 Q113.7 530.457 110.621 535.064 Q107.566 539.647 101.756 539.647 Q95.9456 539.647 92.8669 535.064 Q89.8114 530.457 89.8114 521.73 Q89.8114 512.98 92.8669 508.397 Q95.9456 503.791 101.756 503.791 Z" fill="#000000" fill-rule="nonzero" fill-opacity="1" /><path clip-path="url(#clip930)" d="M121.918 533.096 L126.802 533.096 L126.802 538.976 L121.918 538.976 L121.918 533.096 Z" fill="#000000" fill-rule="nonzero" fill-opacity="1" /><path clip-path="url(#clip930)" d="M137.033 504.416 L155.39 504.416 L155.39 508.351 L141.316 508.351 L141.316 516.823 Q142.334 516.476 143.353 516.314 Q144.371 516.129 145.39 516.129 Q151.177 516.129 154.556 519.3 Q157.936 522.471 157.936 527.888 Q157.936 533.466 154.464 536.568 Q150.992 539.647 144.672 539.647 Q142.496 539.647 140.228 539.277 Q137.982 538.906 135.575 538.165 L135.575 533.466 Q137.658 534.601 139.881 535.156 Q142.103 535.712 144.58 535.712 Q148.584 535.712 150.922 533.605 Q153.26 531.499 153.26 527.888 Q153.26 524.277 150.922 522.17 Q148.584 520.064 144.58 520.064 Q142.705 520.064 140.83 520.48 Q138.978 520.897 137.033 521.777 L137.033 504.416 Z" fill="#000000" fill-rule="nonzero" fill-opacity="1" /><path clip-path="url(#clip930)" d="M91.5706 294.164 L99.2095 294.164 L99.2095 267.798 L90.8993 269.465 L90.8993 265.206 L99.1632 263.539 L103.839 263.539 L103.839 294.164 L111.478 294.164 L111.478 298.099 L91.5706 298.099 L91.5706 294.164 Z" fill="#000000" fill-rule="nonzero" fill-opacity="1" /><path clip-path="url(#clip930)" d="M120.922 292.22 L125.807 292.22 L125.807 298.099 L120.922 298.099 L120.922 292.22 Z" fill="#000000" fill-rule="nonzero" fill-opacity="1" /><path clip-path="url(#clip930)" d="M145.992 266.618 Q142.381 266.618 140.552 270.183 Q138.746 273.724 138.746 280.854 Q138.746 287.96 140.552 291.525 Q142.381 295.067 145.992 295.067 Q149.626 295.067 151.431 291.525 Q153.26 287.96 153.26 280.854 Q153.26 273.724 151.431 270.183 Q149.626 266.618 145.992 266.618 M145.992 262.914 Q151.802 262.914 154.857 267.521 Q157.936 272.104 157.936 280.854 Q157.936 289.581 154.857 294.187 Q151.802 298.77 145.992 298.77 Q140.181 298.77 137.103 294.187 Q134.047 289.581 134.047 280.854 Q134.047 272.104 137.103 267.521 Q140.181 262.914 145.992 262.914 Z" fill="#000000" fill-rule="nonzero" fill-opacity="1" /><circle clip-path="url(#clip932)" cx="896.915" cy="1366.15" r="14.4" fill="#009af9" fill-rule="evenodd" fill-opacity="0.5" stroke="#000000" stroke-opacity="0.5" stroke-width="3.2"/>
<circle clip-path="url(#clip932)" cx="926.767" cy="829.719" r="14.4" fill="#009af9" fill-rule="evenodd" fill-opacity="0.5" stroke="#000000" stroke-opacity="0.5" stroke-width="3.2"/>
<circle clip-path="url(#clip932)" cx="1267.28" cy="408.624" r="14.4" fill="#009af9" fill-rule="evenodd" fill-opacity="0.5" stroke="#000000" stroke-opacity="0.5" stroke-width="3.2"/>
<circle clip-path="url(#clip932)" cx="1043.19" cy="520.421" r="14.4" fill="#009af9" fill-rule="evenodd" fill-opacity="0.5" stroke="#000000" stroke-opacity="0.5" stroke-width="3.2"/>
<circle clip-path="url(#clip932)" cx="1412.4" cy="601.211" r="14.4" fill="#009af9" fill-rule="evenodd" fill-opacity="0.5" stroke="#000000" stroke-opacity="0.5" stroke-width="3.2"/>
<circle clip-path="url(#clip932)" cx="1343.46" cy="1445.72" r="14.4" fill="#009af9" fill-rule="evenodd" fill-opacity="0.5" stroke="#000000" stroke-opacity="0.5" stroke-width="3.2"/>
<circle clip-path="url(#clip932)" cx="1958.24" cy="345.129" r="14.4" fill="#009af9" fill-rule="evenodd" fill-opacity="0.5" stroke="#000000" stroke-opacity="0.5" stroke-width="3.2"/>
<circle clip-path="url(#clip932)" cx="619.145" cy="409.077" r="14.4" fill="#009af9" fill-rule="evenodd" fill-opacity="0.5" stroke="#000000" stroke-opacity="0.5" stroke-width="3.2"/>
<circle clip-path="url(#clip932)" cx="1796.47" cy="125.642" r="14.4" fill="#009af9" fill-rule="evenodd" fill-opacity="0.5" stroke="#000000" stroke-opacity="0.5" stroke-width="3.2"/>
<circle clip-path="url(#clip932)" cx="1342.68" cy="553.746" r="14.4" fill="#009af9" fill-rule="evenodd" fill-opacity="0.5" stroke="#000000" stroke-opacity="0.5" stroke-width="3.2"/>
<circle clip-path="url(#clip932)" cx="1378.91" cy="1020.34" r="14.4" fill="#009af9" fill-rule="evenodd" fill-opacity="0.5" stroke="#000000" stroke-opacity="0.5" stroke-width="3.2"/>
<circle clip-path="url(#clip932)" cx="819.157" cy="1072.51" r="14.4" fill="#009af9" fill-rule="evenodd" fill-opacity="0.5" stroke="#000000" stroke-opacity="0.5" stroke-width="3.2"/>
<circle clip-path="url(#clip932)" cx="255.035" cy="618.04" r="14.4" fill="#009af9" fill-rule="evenodd" fill-opacity="0.5" stroke="#000000" stroke-opacity="0.5" stroke-width="3.2"/>
<circle clip-path="url(#clip932)" cx="408.483" cy="278.644" r="14.4" fill="#009af9" fill-rule="evenodd" fill-opacity="0.5" stroke="#000000" stroke-opacity="0.5" stroke-width="3.2"/>
<circle clip-path="url(#clip932)" cx="740.923" cy="1261.42" r="14.4" fill="#009af9" fill-rule="evenodd" fill-opacity="0.5" stroke="#000000" stroke-opacity="0.5" stroke-width="3.2"/>
<circle clip-path="url(#clip932)" cx="948.183" cy="719.614" r="14.4" fill="#009af9" fill-rule="evenodd" fill-opacity="0.5" stroke="#000000" stroke-opacity="0.5" stroke-width="3.2"/>
<circle clip-path="url(#clip932)" cx="1202.14" cy="1025.91" r="14.4" fill="#009af9" fill-rule="evenodd" fill-opacity="0.5" stroke="#000000" stroke-opacity="0.5" stroke-width="3.2"/>
<circle clip-path="url(#clip932)" cx="707.3" cy="245.45" r="14.4" fill="#009af9" fill-rule="evenodd" fill-opacity="0.5" stroke="#000000" stroke-opacity="0.5" stroke-width="3.2"/>
<circle clip-path="url(#clip932)" cx="2291.66" cy="942.308" r="14.4" fill="#009af9" fill-rule="evenodd" fill-opacity="0.5" stroke="#000000" stroke-opacity="0.5" stroke-width="3.2"/>
<circle clip-path="url(#clip932)" cx="947.83" cy="278.527" r="14.4" fill="#009af9" fill-rule="evenodd" fill-opacity="0.5" stroke="#000000" stroke-opacity="0.5" stroke-width="3.2"/>
<circle clip-path="url(#clip932)" cx="566.473" cy="846.517" r="14.4" fill="#009af9" fill-rule="evenodd" fill-opacity="0.5" stroke="#000000" stroke-opacity="0.5" stroke-width="3.2"/>
<circle clip-path="url(#clip932)" cx="1730.28" cy="777.677" r="14.4" fill="#009af9" fill-rule="evenodd" fill-opacity="0.5" stroke="#000000" stroke-opacity="0.5" stroke-width="3.2"/>
<circle clip-path="url(#clip932)" cx="1676.67" cy="1004.89" r="14.4" fill="#009af9" fill-rule="evenodd" fill-opacity="0.5" stroke="#000000" stroke-opacity="0.5" stroke-width="3.2"/>
<circle clip-path="url(#clip932)" cx="1331.89" cy="87.9763" r="14.4" fill="#009af9" fill-rule="evenodd" fill-opacity="0.5" stroke="#000000" stroke-opacity="0.5" stroke-width="3.2"/>
<circle clip-path="url(#clip932)" cx="958.488" cy="136.256" r="14.4" fill="#009af9" fill-rule="evenodd" fill-opacity="0.5" stroke="#000000" stroke-opacity="0.5" stroke-width="3.2"/>
<circle clip-path="url(#clip932)" cx="1662.33" cy="279.135" r="14.4" fill="#009af9" fill-rule="evenodd" fill-opacity="0.5" stroke="#000000" stroke-opacity="0.5" stroke-width="3.2"/>
<circle clip-path="url(#clip932)" cx="1501.45" cy="583.414" r="14.4" fill="#009af9" fill-rule="evenodd" fill-opacity="0.5" stroke="#000000" stroke-opacity="0.5" stroke-width="3.2"/>
<circle clip-path="url(#clip932)" cx="933.308" cy="705.422" r="14.4" fill="#009af9" fill-rule="evenodd" fill-opacity="0.5" stroke="#000000" stroke-opacity="0.5" stroke-width="3.2"/>
<circle clip-path="url(#clip932)" cx="338.371" cy="465.274" r="14.4" fill="#009af9" fill-rule="evenodd" fill-opacity="0.5" stroke="#000000" stroke-opacity="0.5" stroke-width="3.2"/>
<circle clip-path="url(#clip932)" cx="686.48" cy="1025.02" r="14.4" fill="#009af9" fill-rule="evenodd" fill-opacity="0.5" stroke="#000000" stroke-opacity="0.5" stroke-width="3.2"/>
<path clip-path="url(#clip932)" d="M255.035 618.04 L740.923 1261.42 L896.915 1366.15 L1343.46 1445.72 L2291.66 942.308 L1958.24 345.129 L1796.47 125.642 L1331.89 87.9763 L958.488 136.256 L408.483 278.644 L255.035 618.04 L255.035 618.04  Z" fill="#e26f46" fill-rule="evenodd" fill-opacity="0.2"/>
<polyline clip-path="url(#clip932)" style="stroke:#000000; stroke-linecap:round; stroke-linejoin:round; stroke-width:4; stroke-opacity:0.2; fill:none" points="255.035,618.04 740.923,1261.42 896.915,1366.15 1343.46,1445.72 2291.66,942.308 1958.24,345.129 1796.47,125.642 1331.89,87.9763 958.488,136.256 408.483,278.644 255.035,618.04 "/>
</svg>
