<?xml version="1.0" encoding="utf-8"?>
<svg xmlns="http://www.w3.org/2000/svg" xmlns:xlink="http://www.w3.org/1999/xlink" width="600" height="400" viewBox="0 0 2400 1600">
<defs>
  <clipPath id="clip090">
    <rect x="0" y="0" width="2400" height="1600"/>
  </clipPath>
</defs>
<path clip-path="url(#clip090)" d="M0 1600 L2400 1600 L2400 0 L0 0  Z" fill="#ffffff" fill-rule="evenodd" fill-opacity="1"/>
<defs>
  <clipPath id="clip091">
    <rect x="480" y="0" width="1681" height="1600"/>
  </clipPath>
</defs>
<path clip-path="url(#clip090)" d="M193.936 1486.45 L2352.76 1486.45 L2352.76 47.2441 L193.936 47.2441  Z" fill="#ffffff" fill-rule="evenodd" fill-opacity="1"/>
<defs>
  <clipPath id="clip092">
    <rect x="193" y="47" width="2160" height="1440"/>
  </clipPath>
</defs>
<polyline clip-path="url(#clip092)" style="stroke:#000000; stroke-linecap:round; stroke-linejoin:round; stroke-width:2; stroke-opacity:0.1; fill:none" points="446.507,1486.45 446.507,47.2441 "/>
<polyline clip-path="url(#clip092)" style="stroke:#000000; stroke-linecap:round; stroke-linejoin:round; stroke-width:2; stroke-opacity:0.1; fill:none" points="736.411,1486.45 736.411,47.2441 "/>
<polyline clip-path="url(#clip092)" style="stroke:#000000; stroke-linecap:round; stroke-linejoin:round; stroke-width:2; stroke-opacity:0.1; fill:none" points="1026.31,1486.45 1026.31,47.2441 "/>
<polyline clip-path="url(#clip092)" style="stroke:#000000; stroke-linecap:round; stroke-linejoin:round; stroke-width:2; stroke-opacity:0.1; fill:none" points="1316.22,1486.45 1316.22,47.2441 "/>
<polyline clip-path="url(#clip092)" style="stroke:#000000; stroke-linecap:round; stroke-linejoin:round; stroke-width:2; stroke-opacity:0.1; fill:none" points="1606.12,1486.45 1606.12,47.2441 "/>
<polyline clip-path="url(#clip092)" style="stroke:#000000; stroke-linecap:round; stroke-linejoin:round; stroke-width:2; stroke-opacity:0.1; fill:none" points="1896.03,1486.45 1896.03,47.2441 "/>
<polyline clip-path="url(#clip092)" style="stroke:#000000; stroke-linecap:round; stroke-linejoin:round; stroke-width:2; stroke-opacity:0.1; fill:none" points="2185.93,1486.45 2185.93,47.2441 "/>
<polyline clip-path="url(#clip090)" style="stroke:#000000; stroke-linecap:round; stroke-linejoin:round; stroke-width:4; stroke-opacity:1; fill:none" points="193.936,1486.45 2352.76,1486.45 "/>
<polyline clip-path="url(#clip090)" style="stroke:#000000; stroke-linecap:round; stroke-linejoin:round; stroke-width:4; stroke-opacity:1; fill:none" points="446.507,1486.45 446.507,1467.55 "/>
<polyline clip-path="url(#clip090)" style="stroke:#000000; stroke-linecap:round; stroke-linejoin:round; stroke-width:4; stroke-opacity:1; fill:none" points="736.411,1486.45 736.411,1467.55 "/>
<polyline clip-path="url(#clip090)" style="stroke:#000000; stroke-linecap:round; stroke-linejoin:round; stroke-width:4; stroke-opacity:1; fill:none" points="1026.31,1486.45 1026.31,1467.55 "/>
<polyline clip-path="url(#clip090)" style="stroke:#000000; stroke-linecap:round; stroke-linejoin:round; stroke-width:4; stroke-opacity:1; fill:none" points="1316.22,1486.45 1316.22,1467.55 "/>
<polyline clip-path="url(#clip090)" style="stroke:#000000; stroke-linecap:round; stroke-linejoin:round; stroke-width:4; stroke-opacity:1; fill:none" points="1606.12,1486.45 1606.12,1467.55 "/>
<polyline clip-path="url(#clip090)" style="stroke:#000000; stroke-linecap:round; stroke-linejoin:round; stroke-width:4; stroke-opacity:1; fill:none" points="1896.03,1486.45 1896.03,1467.55 "/>
<polyline clip-path="url(#clip090)" style="stroke:#000000; stroke-linecap:round; stroke-linejoin:round; stroke-width:4; stroke-opacity:1; fill:none" points="2185.93,1486.45 2185.93,1467.55 "/>
<path clip-path="url(#clip090)" d="M393.533 1532.02 L423.209 1532.02 L423.209 1535.95 L393.533 1535.95 L393.533 1532.02 Z" fill="#000000" fill-rule="nonzero" fill-opacity="1" /><path clip-path="url(#clip090)" d="M434.112 1544.91 L441.75 1544.91 L441.75 1518.55 L433.44 1520.21 L433.44 1515.95 L441.704 1514.29 L446.38 1514.29 L446.38 1544.91 L454.019 1544.91 L454.019 1548.85 L434.112 1548.85 L434.112 1544.91 Z" fill="#000000" fill-rule="nonzero" fill-opacity="1" /><path clip-path="url(#clip090)" d="M463.463 1542.97 L468.347 1542.97 L468.347 1548.85 L463.463 1548.85 L463.463 1542.97 Z" fill="#000000" fill-rule="nonzero" fill-opacity="1" /><path clip-path="url(#clip090)" d="M478.579 1514.29 L496.935 1514.29 L496.935 1518.22 L482.861 1518.22 L482.861 1526.7 Q483.88 1526.35 484.898 1526.19 Q485.917 1526 486.935 1526 Q492.722 1526 496.102 1529.17 Q499.482 1532.34 499.482 1537.76 Q499.482 1543.34 496.009 1546.44 Q492.537 1549.52 486.218 1549.52 Q484.042 1549.52 481.773 1549.15 Q479.528 1548.78 477.121 1548.04 L477.121 1543.34 Q479.204 1544.47 481.426 1545.03 Q483.648 1545.58 486.125 1545.58 Q490.13 1545.58 492.468 1543.48 Q494.806 1541.37 494.806 1537.76 Q494.806 1534.15 492.468 1532.04 Q490.13 1529.94 486.125 1529.94 Q484.25 1529.94 482.375 1530.35 Q480.523 1530.77 478.579 1531.65 L478.579 1514.29 Z" fill="#000000" fill-rule="nonzero" fill-opacity="1" /><path clip-path="url(#clip090)" d="M682.939 1532.02 L712.615 1532.02 L712.615 1535.95 L682.939 1535.95 L682.939 1532.02 Z" fill="#000000" fill-rule="nonzero" fill-opacity="1" /><path clip-path="url(#clip090)" d="M723.518 1544.91 L731.156 1544.91 L731.156 1518.55 L722.846 1520.21 L722.846 1515.95 L731.11 1514.29 L735.786 1514.29 L735.786 1544.91 L743.425 1544.91 L743.425 1548.85 L723.518 1548.85 L723.518 1544.91 Z" fill="#000000" fill-rule="nonzero" fill-opacity="1" /><path clip-path="url(#clip090)" d="M752.869 1542.97 L757.753 1542.97 L757.753 1548.85 L752.869 1548.85 L752.869 1542.97 Z" fill="#000000" fill-rule="nonzero" fill-opacity="1" /><path clip-path="url(#clip090)" d="M777.939 1517.37 Q774.327 1517.37 772.499 1520.93 Q770.693 1524.47 770.693 1531.6 Q770.693 1538.71 772.499 1542.27 Q774.327 1545.82 777.939 1545.82 Q781.573 1545.82 783.378 1542.27 Q785.207 1538.71 785.207 1531.6 Q785.207 1524.47 783.378 1520.93 Q781.573 1517.37 777.939 1517.37 M777.939 1513.66 Q783.749 1513.66 786.804 1518.27 Q789.883 1522.85 789.883 1531.6 Q789.883 1540.33 786.804 1544.94 Q783.749 1549.52 777.939 1549.52 Q772.128 1549.52 769.05 1544.94 Q765.994 1540.33 765.994 1531.6 Q765.994 1522.85 769.05 1518.27 Q772.128 1513.66 777.939 1513.66 Z" fill="#000000" fill-rule="nonzero" fill-opacity="1" /><path clip-path="url(#clip090)" d="M973.34 1532.02 L1003.02 1532.02 L1003.02 1535.95 L973.34 1535.95 L973.34 1532.02 Z" fill="#000000" fill-rule="nonzero" fill-opacity="1" /><path clip-path="url(#clip090)" d="M1023.11 1517.37 Q1019.5 1517.37 1017.67 1520.93 Q1015.86 1524.47 1015.86 1531.6 Q1015.86 1538.71 1017.67 1542.27 Q1019.5 1545.82 1023.11 1545.82 Q1026.74 1545.82 1028.55 1542.27 Q1030.38 1538.71 1030.38 1531.6 Q1030.38 1524.47 1028.55 1520.93 Q1026.74 1517.37 1023.11 1517.37 M1023.11 1513.66 Q1028.92 1513.66 1031.97 1518.27 Q1035.05 1522.85 1035.05 1531.6 Q1035.05 1540.33 1031.97 1544.94 Q1028.92 1549.52 1023.11 1549.52 Q1017.3 1549.52 1014.22 1544.94 Q1011.16 1540.33 1011.16 1531.6 Q1011.16 1522.85 1014.22 1518.27 Q1017.3 1513.66 1023.11 1513.66 Z" fill="#000000" fill-rule="nonzero" fill-opacity="1" /><path clip-path="url(#clip090)" d="M1043.27 1542.97 L1048.15 1542.97 L1048.15 1548.85 L1043.27 1548.85 L1043.27 1542.97 Z" fill="#000000" fill-rule="nonzero" fill-opacity="1" /><path clip-path="url(#clip090)" d="M1058.39 1514.29 L1076.74 1514.29 L1076.74 1518.22 L1062.67 1518.22 L1062.67 1526.7 Q1063.69 1526.35 1064.71 1526.19 Q1065.72 1526 1066.74 1526 Q1072.53 1526 1075.91 1529.17 Q1079.29 1532.34 1079.29 1537.76 Q1079.29 1543.34 1075.82 1546.44 Q1072.34 1549.52 1066.03 1549.52 Q1063.85 1549.52 1061.58 1549.15 Q1059.34 1548.78 1056.93 1548.04 L1056.93 1543.34 Q1059.01 1544.47 1061.23 1545.03 Q1063.46 1545.58 1065.93 1545.58 Q1069.94 1545.58 1072.28 1543.48 Q1074.61 1541.37 1074.61 1537.76 Q1074.61 1534.15 1072.28 1532.04 Q1069.94 1529.94 1065.93 1529.94 Q1064.06 1529.94 1062.18 1530.35 Q1060.33 1530.77 1058.39 1531.65 L1058.39 1514.29 Z" fill="#000000" fill-rule="nonzero" fill-opacity="1" /><path clip-path="url(#clip090)" d="M1293.6 1517.37 Q1289.99 1517.37 1288.16 1520.93 Q1286.36 1524.47 1286.36 1531.6 Q1286.36 1538.71 1288.16 1542.27 Q1289.99 1545.82 1293.6 1545.82 Q1297.24 1545.82 1299.04 1542.27 Q1300.87 1538.71 1300.87 1531.6 Q1300.87 1524.47 1299.04 1520.93 Q1297.24 1517.37 1293.6 1517.37 M1293.6 1513.66 Q1299.41 1513.66 1302.47 1518.27 Q1305.55 1522.85 1305.55 1531.6 Q1305.55 1540.33 1302.47 1544.94 Q1299.41 1549.52 1293.6 1549.52 Q1287.79 1549.52 1284.71 1544.94 Q1281.66 1540.33 1281.66 1531.6 Q1281.66 1522.85 1284.71 1518.27 Q1287.79 1513.66 1293.6 1513.66 Z" fill="#000000" fill-rule="nonzero" fill-opacity="1" /><path clip-path="url(#clip090)" d="M1313.76 1542.97 L1318.65 1542.97 L1318.65 1548.85 L1313.76 1548.85 L1313.76 1542.97 Z" fill="#000000" fill-rule="nonzero" fill-opacity="1" /><path clip-path="url(#clip090)" d="M1338.83 1517.37 Q1335.22 1517.37 1333.39 1520.93 Q1331.59 1524.47 1331.59 1531.6 Q1331.59 1538.71 1333.39 1542.27 Q1335.22 1545.82 1338.83 1545.82 Q1342.47 1545.82 1344.27 1542.27 Q1346.1 1538.71 1346.1 1531.6 Q1346.1 1524.47 1344.27 1520.93 Q1342.47 1517.37 1338.83 1517.37 M1338.83 1513.66 Q1344.64 1513.66 1347.7 1518.27 Q1350.78 1522.85 1350.78 1531.6 Q1350.78 1540.33 1347.7 1544.94 Q1344.64 1549.52 1338.83 1549.52 Q1333.02 1549.52 1329.95 1544.94 Q1326.89 1540.33 1326.89 1531.6 Q1326.89 1522.85 1329.95 1518.27 Q1333.02 1513.66 1338.83 1513.66 Z" fill="#000000" fill-rule="nonzero" fill-opacity="1" /><path clip-path="url(#clip090)" d="M1584 1517.37 Q1580.39 1517.37 1578.56 1520.93 Q1576.76 1524.47 1576.76 1531.6 Q1576.76 1538.71 1578.56 1542.27 Q1580.39 1545.82 1584 1545.82 Q1587.64 1545.82 1589.44 1542.27 Q1591.27 1538.71 1591.27 1531.6 Q1591.27 1524.47 1589.44 1520.93 Q1587.64 1517.37 1584 1517.37 M1584 1513.66 Q1589.81 1513.66 1592.87 1518.27 Q1595.95 1522.85 1595.95 1531.6 Q1595.95 1540.33 1592.87 1544.94 Q1589.81 1549.52 1584 1549.52 Q1578.19 1549.52 1575.12 1544.94 Q1572.06 1540.33 1572.06 1531.6 Q1572.06 1522.85 1575.12 1518.27 Q1578.19 1513.66 1584 1513.66 Z" fill="#000000" fill-rule="nonzero" fill-opacity="1" /><path clip-path="url(#clip090)" d="M1604.17 1542.97 L1609.05 1542.97 L1609.05 1548.85 L1604.17 1548.85 L1604.17 1542.97 Z" fill="#000000" fill-rule="nonzero" fill-opacity="1" /><path clip-path="url(#clip090)" d="M1619.28 1514.29 L1637.64 1514.29 L1637.64 1518.22 L1623.56 1518.22 L1623.56 1526.7 Q1624.58 1526.35 1625.6 1526.19 Q1626.62 1526 1627.64 1526 Q1633.43 1526 1636.8 1529.17 Q1640.18 1532.34 1640.18 1537.76 Q1640.18 1543.34 1636.71 1546.44 Q1633.24 1549.52 1626.92 1549.52 Q1624.74 1549.52 1622.48 1549.15 Q1620.23 1548.78 1617.82 1548.04 L1617.82 1543.34 Q1619.91 1544.47 1622.13 1545.03 Q1624.35 1545.58 1626.83 1545.58 Q1630.83 1545.58 1633.17 1543.48 Q1635.51 1541.37 1635.51 1537.76 Q1635.51 1534.15 1633.17 1532.04 Q1630.83 1529.94 1626.83 1529.94 Q1624.95 1529.94 1623.08 1530.35 Q1621.23 1530.77 1619.28 1531.65 L1619.28 1514.29 Z" fill="#000000" fill-rule="nonzero" fill-opacity="1" /><path clip-path="url(#clip090)" d="M1863.18 1544.91 L1870.82 1544.91 L1870.82 1518.55 L1862.51 1520.21 L1862.51 1515.95 L1870.77 1514.29 L1875.45 1514.29 L1875.45 1544.91 L1883.09 1544.91 L1883.09 1548.85 L1863.18 1548.85 L1863.18 1544.91 Z" fill="#000000" fill-rule="nonzero" fill-opacity="1" /><path clip-path="url(#clip090)" d="M1892.53 1542.97 L1897.41 1542.97 L1897.41 1548.85 L1892.53 1548.85 L1892.53 1542.97 Z" fill="#000000" fill-rule="nonzero" fill-opacity="1" /><path clip-path="url(#clip090)" d="M1917.6 1517.37 Q1913.99 1517.37 1912.16 1520.93 Q1910.35 1524.47 1910.35 1531.6 Q1910.35 1538.71 1912.16 1542.27 Q1913.99 1545.82 1917.6 1545.82 Q1921.23 1545.82 1923.04 1542.27 Q1924.87 1538.71 1924.87 1531.6 Q1924.87 1524.47 1923.04 1520.93 Q1921.23 1517.37 1917.6 1517.37 M1917.6 1513.66 Q1923.41 1513.66 1926.47 1518.27 Q1929.54 1522.85 1929.54 1531.6 Q1929.54 1540.33 1926.47 1544.94 Q1923.41 1549.52 1917.6 1549.52 Q1911.79 1549.52 1908.71 1544.94 Q1905.66 1540.33 1905.66 1531.6 Q1905.66 1522.85 1908.71 1518.27 Q1911.79 1513.66 1917.6 1513.66 Z" fill="#000000" fill-rule="nonzero" fill-opacity="1" /><path clip-path="url(#clip090)" d="M2153.58 1544.91 L2161.22 1544.91 L2161.22 1518.55 L2152.91 1520.21 L2152.91 1515.95 L2161.17 1514.29 L2165.85 1514.29 L2165.85 1544.91 L2173.49 1544.91 L2173.49 1548.85 L2153.58 1548.85 L2153.58 1544.91 Z" fill="#000000" fill-rule="nonzero" fill-opacity="1" /><path clip-path="url(#clip090)" d="M2182.93 1542.97 L2187.82 1542.97 L2187.82 1548.85 L2182.93 1548.85 L2182.93 1542.97 Z" fill="#000000" fill-rule="nonzero" fill-opacity="1" /><path clip-path="url(#clip090)" d="M2198.05 1514.29 L2216.4 1514.29 L2216.4 1518.22 L2202.33 1518.22 L2202.33 1526.7 Q2203.35 1526.35 2204.37 1526.19 Q2205.39 1526 2206.4 1526 Q2212.19 1526 2215.57 1529.17 Q2218.95 1532.34 2218.95 1537.76 Q2218.95 1543.34 2215.48 1546.44 Q2212.01 1549.52 2205.69 1549.52 Q2203.51 1549.52 2201.24 1549.15 Q2199 1548.78 2196.59 1548.04 L2196.59 1543.34 Q2198.67 1544.47 2200.89 1545.03 Q2203.12 1545.58 2205.59 1545.58 Q2209.6 1545.58 2211.94 1543.48 Q2214.27 1541.37 2214.27 1537.76 Q2214.27 1534.15 2211.94 1532.04 Q2209.6 1529.94 2205.59 1529.94 Q2203.72 1529.94 2201.84 1530.35 Q2199.99 1530.77 2198.05 1531.65 L2198.05 1514.29 Z" fill="#000000" fill-rule="nonzero" fill-opacity="1" /><polyline clip-path="url(#clip092)" style="stroke:#000000; stroke-linecap:round; stroke-linejoin:round; stroke-width:2; stroke-opacity:0.1; fill:none" points="193.936,1302.6 2352.76,1302.6 "/>
<polyline clip-path="url(#clip092)" style="stroke:#000000; stroke-linecap:round; stroke-linejoin:round; stroke-width:2; stroke-opacity:0.1; fill:none" points="193.936,1105.23 2352.76,1105.23 "/>
<polyline clip-path="url(#clip092)" style="stroke:#000000; stroke-linecap:round; stroke-linejoin:round; stroke-width:2; stroke-opacity:0.1; fill:none" points="193.936,907.859 2352.76,907.859 "/>
<polyline clip-path="url(#clip092)" style="stroke:#000000; stroke-linecap:round; stroke-linejoin:round; stroke-width:2; stroke-opacity:0.1; fill:none" points="193.936,710.488 2352.76,710.488 "/>
<polyline clip-path="url(#clip092)" style="stroke:#000000; stroke-linecap:round; stroke-linejoin:round; stroke-width:2; stroke-opacity:0.1; fill:none" points="193.936,513.116 2352.76,513.116 "/>
<polyline clip-path="url(#clip092)" style="stroke:#000000; stroke-linecap:round; stroke-linejoin:round; stroke-width:2; stroke-opacity:0.1; fill:none" points="193.936,315.745 2352.76,315.745 "/>
<polyline clip-path="url(#clip092)" style="stroke:#000000; stroke-linecap:round; stroke-linejoin:round; stroke-width:2; stroke-opacity:0.1; fill:none" points="193.936,118.374 2352.76,118.374 "/>
<polyline clip-path="url(#clip090)" style="stroke:#000000; stroke-linecap:round; stroke-linejoin:round; stroke-width:4; stroke-opacity:1; fill:none" points="193.936,1486.45 193.936,47.2441 "/>
<polyline clip-path="url(#clip090)" style="stroke:#000000; stroke-linecap:round; stroke-linejoin:round; stroke-width:4; stroke-opacity:1; fill:none" points="193.936,1302.6 212.834,1302.6 "/>
<polyline clip-path="url(#clip090)" style="stroke:#000000; stroke-linecap:round; stroke-linejoin:round; stroke-width:4; stroke-opacity:1; fill:none" points="193.936,1105.23 212.834,1105.23 "/>
<polyline clip-path="url(#clip090)" style="stroke:#000000; stroke-linecap:round; stroke-linejoin:round; stroke-width:4; stroke-opacity:1; fill:none" points="193.936,907.859 212.834,907.859 "/>
<polyline clip-path="url(#clip090)" style="stroke:#000000; stroke-linecap:round; stroke-linejoin:round; stroke-width:4; stroke-opacity:1; fill:none" points="193.936,710.488 212.834,710.488 "/>
<polyline clip-path="url(#clip090)" style="stroke:#000000; stroke-linecap:round; stroke-linejoin:round; stroke-width:4; stroke-opacity:1; fill:none" points="193.936,513.116 212.834,513.116 "/>
<polyline clip-path="url(#clip090)" style="stroke:#000000; stroke-linecap:round; stroke-linejoin:round; stroke-width:4; stroke-opacity:1; fill:none" points="193.936,315.745 212.834,315.745 "/>
<polyline clip-path="url(#clip090)" style="stroke:#000000; stroke-linecap:round; stroke-linejoin:round; stroke-width:4; stroke-opacity:1; fill:none" points="193.936,118.374 212.834,118.374 "/>
<path clip-path="url(#clip090)" d="M51.9875 1303.05 L81.6633 1303.05 L81.6633 1306.99 L51.9875 1306.99 L51.9875 1303.05 Z" fill="#000000" fill-rule="nonzero" fill-opacity="1" /><path clip-path="url(#clip090)" d="M92.566 1315.95 L100.205 1315.95 L100.205 1289.58 L91.8947 1291.25 L91.8947 1286.99 L100.159 1285.32 L104.834 1285.32 L104.834 1315.95 L112.473 1315.95 L112.473 1319.88 L92.566 1319.88 L92.566 1315.95 Z" fill="#000000" fill-rule="nonzero" fill-opacity="1" /><path clip-path="url(#clip090)" d="M121.918 1314 L126.802 1314 L126.802 1319.88 L121.918 1319.88 L121.918 1314 Z" fill="#000000" fill-rule="nonzero" fill-opacity="1" /><path clip-path="url(#clip090)" d="M137.033 1285.32 L155.39 1285.32 L155.39 1289.26 L141.316 1289.26 L141.316 1297.73 Q142.334 1297.38 143.353 1297.22 Q144.371 1297.03 145.39 1297.03 Q151.177 1297.03 154.556 1300.21 Q157.936 1303.38 157.936 1308.79 Q157.936 1314.37 154.464 1317.47 Q150.992 1320.55 144.672 1320.55 Q142.496 1320.55 140.228 1320.18 Q137.982 1319.81 135.575 1319.07 L135.575 1314.37 Q137.658 1315.51 139.881 1316.06 Q142.103 1316.62 144.58 1316.62 Q148.584 1316.62 150.922 1314.51 Q153.26 1312.41 153.26 1308.79 Q153.26 1305.18 150.922 1303.08 Q148.584 1300.97 144.58 1300.97 Q142.705 1300.97 140.83 1301.39 Q138.978 1301.8 137.033 1302.68 L137.033 1285.32 Z" fill="#000000" fill-rule="nonzero" fill-opacity="1" /><path clip-path="url(#clip090)" d="M50.9921 1105.68 L80.6679 1105.68 L80.6679 1109.62 L50.9921 1109.62 L50.9921 1105.68 Z" fill="#000000" fill-rule="nonzero" fill-opacity="1" /><path clip-path="url(#clip090)" d="M91.5706 1118.58 L99.2095 1118.58 L99.2095 1092.21 L90.8993 1093.88 L90.8993 1089.62 L99.1632 1087.95 L103.839 1087.95 L103.839 1118.58 L111.478 1118.58 L111.478 1122.51 L91.5706 1122.51 L91.5706 1118.58 Z" fill="#000000" fill-rule="nonzero" fill-opacity="1" /><path clip-path="url(#clip090)" d="M120.922 1116.63 L125.807 1116.63 L125.807 1122.51 L120.922 1122.51 L120.922 1116.63 Z" fill="#000000" fill-rule="nonzero" fill-opacity="1" /><path clip-path="url(#clip090)" d="M145.992 1091.03 Q142.381 1091.03 140.552 1094.59 Q138.746 1098.14 138.746 1105.27 Q138.746 1112.37 140.552 1115.94 Q142.381 1119.48 145.992 1119.48 Q149.626 1119.48 151.431 1115.94 Q153.26 1112.37 153.26 1105.27 Q153.26 1098.14 151.431 1094.59 Q149.626 1091.03 145.992 1091.03 M145.992 1087.33 Q151.802 1087.33 154.857 1091.93 Q157.936 1096.52 157.936 1105.27 Q157.936 1113.99 154.857 1118.6 Q151.802 1123.18 145.992 1123.18 Q140.181 1123.18 137.103 1118.6 Q134.047 1113.99 134.047 1105.27 Q134.047 1096.52 137.103 1091.93 Q140.181 1087.33 145.992 1087.33 Z" fill="#000000" fill-rule="nonzero" fill-opacity="1" /><path clip-path="url(#clip090)" d="M51.9875 908.311 L81.6633 908.311 L81.6633 912.246 L51.9875 912.246 L51.9875 908.311 Z" fill="#000000" fill-rule="nonzero" fill-opacity="1" /><path clip-path="url(#clip090)" d="M101.756 893.658 Q98.1447 893.658 96.316 897.223 Q94.5104 900.764 94.5104 907.894 Q94.5104 915 96.316 918.565 Q98.1447 922.107 101.756 922.107 Q105.39 922.107 107.196 918.565 Q109.024 915 109.024 907.894 Q109.024 900.764 107.196 897.223 Q105.39 893.658 101.756 893.658 M101.756 889.954 Q107.566 889.954 110.621 894.561 Q113.7 899.144 113.7 907.894 Q113.7 916.621 110.621 921.227 Q107.566 925.811 101.756 925.811 Q95.9456 925.811 92.8669 921.227 Q89.8114 916.621 89.8114 907.894 Q89.8114 899.144 92.8669 894.561 Q95.9456 889.954 101.756 889.954 Z" fill="#000000" fill-rule="nonzero" fill-opacity="1" /><path clip-path="url(#clip090)" d="M121.918 919.26 L126.802 919.26 L126.802 925.139 L121.918 925.139 L121.918 919.26 Z" fill="#000000" fill-rule="nonzero" fill-opacity="1" /><path clip-path="url(#clip090)" d="M137.033 890.579 L155.39 890.579 L155.39 894.514 L141.316 894.514 L141.316 902.987 Q142.334 902.639 143.353 902.477 Q144.371 902.292 145.39 902.292 Q151.177 902.292 154.556 905.463 Q157.936 908.635 157.936 914.051 Q157.936 919.63 154.464 922.732 Q150.992 925.811 144.672 925.811 Q142.496 925.811 140.228 925.44 Q137.982 925.07 135.575 924.329 L135.575 919.63 Q137.658 920.764 139.881 921.32 Q142.103 921.875 144.58 921.875 Q148.584 921.875 150.922 919.769 Q153.26 917.662 153.26 914.051 Q153.26 910.44 150.922 908.334 Q148.584 906.227 144.58 906.227 Q142.705 906.227 140.83 906.644 Q138.978 907.061 137.033 907.94 L137.033 890.579 Z" fill="#000000" fill-rule="nonzero" fill-opacity="1" /><path clip-path="url(#clip090)" d="M100.76 696.287 Q97.1493 696.287 95.3206 699.851 Q93.515 703.393 93.515 710.523 Q93.515 717.629 95.3206 721.194 Q97.1493 724.735 100.76 724.735 Q104.395 724.735 106.2 721.194 Q108.029 717.629 108.029 710.523 Q108.029 703.393 106.2 699.851 Q104.395 696.287 100.76 696.287 M100.76 692.583 Q106.571 692.583 109.626 697.189 Q112.705 701.773 112.705 710.523 Q112.705 719.249 109.626 723.856 Q106.571 728.439 100.76 728.439 Q94.9502 728.439 91.8715 723.856 Q88.816 719.249 88.816 710.523 Q88.816 701.773 91.8715 697.189 Q94.9502 692.583 100.76 692.583 Z" fill="#000000" fill-rule="nonzero" fill-opacity="1" /><path clip-path="url(#clip090)" d="M120.922 721.888 L125.807 721.888 L125.807 727.768 L120.922 727.768 L120.922 721.888 Z" fill="#000000" fill-rule="nonzero" fill-opacity="1" /><path clip-path="url(#clip090)" d="M145.992 696.287 Q142.381 696.287 140.552 699.851 Q138.746 703.393 138.746 710.523 Q138.746 717.629 140.552 721.194 Q142.381 724.735 145.992 724.735 Q149.626 724.735 151.431 721.194 Q153.26 717.629 153.26 710.523 Q153.26 703.393 151.431 699.851 Q149.626 696.287 145.992 696.287 M145.992 692.583 Q151.802 692.583 154.857 697.189 Q157.936 701.773 157.936 710.523 Q157.936 719.249 154.857 723.856 Q151.802 728.439 145.992 728.439 Q140.181 728.439 137.103 723.856 Q134.047 719.249 134.047 710.523 Q134.047 701.773 137.103 697.189 Q140.181 692.583 145.992 692.583 Z" fill="#000000" fill-rule="nonzero" fill-opacity="1" /><path clip-path="url(#clip090)" d="M101.756 498.915 Q98.1447 498.915 96.316 502.48 Q94.5104 506.022 94.5104 513.151 Q94.5104 520.258 96.316 523.822 Q98.1447 527.364 101.756 527.364 Q105.39 527.364 107.196 523.822 Q109.024 520.258 109.024 513.151 Q109.024 506.022 107.196 502.48 Q105.39 498.915 101.756 498.915 M101.756 495.211 Q107.566 495.211 110.621 499.818 Q113.7 504.401 113.7 513.151 Q113.7 521.878 110.621 526.484 Q107.566 531.068 101.756 531.068 Q95.9456 531.068 92.8669 526.484 Q89.8114 521.878 89.8114 513.151 Q89.8114 504.401 92.8669 499.818 Q95.9456 495.211 101.756 495.211 Z" fill="#000000" fill-rule="nonzero" fill-opacity="1" /><path clip-path="url(#clip090)" d="M121.918 524.517 L126.802 524.517 L126.802 530.396 L121.918 530.396 L121.918 524.517 Z" fill="#000000" fill-rule="nonzero" fill-opacity="1" /><path clip-path="url(#clip090)" d="M137.033 495.836 L155.39 495.836 L155.39 499.772 L141.316 499.772 L141.316 508.244 Q142.334 507.897 143.353 507.735 Q144.371 507.549 145.39 507.549 Q151.177 507.549 154.556 510.721 Q157.936 513.892 157.936 519.309 Q157.936 524.887 154.464 527.989 Q150.992 531.068 144.672 531.068 Q142.496 531.068 140.228 530.697 Q137.982 530.327 135.575 529.586 L135.575 524.887 Q137.658 526.021 139.881 526.577 Q142.103 527.133 144.58 527.133 Q148.584 527.133 150.922 525.026 Q153.26 522.92 153.26 519.309 Q153.26 515.697 150.922 513.591 Q148.584 511.485 144.58 511.485 Q142.705 511.485 140.83 511.901 Q138.978 512.318 137.033 513.197 L137.033 495.836 Z" fill="#000000" fill-rule="nonzero" fill-opacity="1" /><path clip-path="url(#clip090)" d="M91.5706 329.09 L99.2095 329.09 L99.2095 302.724 L90.8993 304.391 L90.8993 300.132 L99.1632 298.465 L103.839 298.465 L103.839 329.09 L111.478 329.09 L111.478 333.025 L91.5706 333.025 L91.5706 329.09 Z" fill="#000000" fill-rule="nonzero" fill-opacity="1" /><path clip-path="url(#clip090)" d="M120.922 327.145 L125.807 327.145 L125.807 333.025 L120.922 333.025 L120.922 327.145 Z" fill="#000000" fill-rule="nonzero" fill-opacity="1" /><path clip-path="url(#clip090)" d="M145.992 301.544 Q142.381 301.544 140.552 305.109 Q138.746 308.65 138.746 315.78 Q138.746 322.886 140.552 326.451 Q142.381 329.993 145.992 329.993 Q149.626 329.993 151.431 326.451 Q153.26 322.886 153.26 315.78 Q153.26 308.65 151.431 305.109 Q149.626 301.544 145.992 301.544 M145.992 297.84 Q151.802 297.84 154.857 302.447 Q157.936 307.03 157.936 315.78 Q157.936 324.507 154.857 329.113 Q151.802 333.696 145.992 333.696 Q140.181 333.696 137.103 329.113 Q134.047 324.507 134.047 315.78 Q134.047 307.03 137.103 302.447 Q140.181 297.84 145.992 297.84 Z" fill="#000000" fill-rule="nonzero" fill-opacity="1" /><path clip-path="url(#clip090)" d="M92.566 131.719 L100.205 131.719 L100.205 105.353 L91.8947 107.02 L91.8947 102.76 L100.159 101.094 L104.834 101.094 L104.834 131.719 L112.473 131.719 L112.473 135.654 L92.566 135.654 L92.566 131.719 Z" fill="#000000" fill-rule="nonzero" fill-opacity="1" /><path clip-path="url(#clip090)" d="M121.918 129.774 L126.802 129.774 L126.802 135.654 L121.918 135.654 L121.918 129.774 Z" fill="#000000" fill-rule="nonzero" fill-opacity="1" /><path clip-path="url(#clip090)" d="M137.033 101.094 L155.39 101.094 L155.39 105.029 L141.316 105.029 L141.316 113.501 Q142.334 113.154 143.353 112.992 Q144.371 112.807 145.39 112.807 Q151.177 112.807 154.556 115.978 Q157.936 119.149 157.936 124.566 Q157.936 130.144 154.464 133.246 Q150.992 136.325 144.672 136.325 Q142.496 136.325 140.228 135.955 Q137.982 135.584 135.575 134.844 L135.575 130.144 Q137.658 131.279 139.881 131.834 Q142.103 132.39 144.58 132.39 Q148.584 132.39 150.922 130.283 Q153.26 128.177 153.26 124.566 Q153.26 120.955 150.922 118.848 Q148.584 116.742 144.58 116.742 Q142.705 116.742 140.83 117.158 Q138.978 117.575 137.033 118.455 L137.033 101.094 Z" fill="#000000" fill-rule="nonzero" fill-opacity="1" /><circle clip-path="url(#clip092)" cx="255.035" cy="458.672" r="14.4" fill="#009af9" fill-rule="evenodd" fill-opacity="0.5" stroke="#000000" stroke-opacity="0.5" stroke-width="3.2"/>
<circle clip-path="url(#clip092)" cx="928.103" cy="801.664" r="14.4" fill="#009af9" fill-rule="evenodd" fill-opacity="0.5" stroke="#000000" stroke-opacity="0.5" stroke-width="3.2"/>
<circle clip-path="url(#clip092)" cx="2210.57" cy="1224.3" r="14.4" fill="#009af9" fill-rule="evenodd" fill-opacity="0.5" stroke="#000000" stroke-opacity="0.5" stroke-width="3.2"/>
<circle clip-path="url(#clip092)" cx="1430.43" cy="562.343" r="14.4" fill="#009af9" fill-rule="evenodd" fill-opacity="0.5" stroke="#000000" stroke-opacity="0.5" stroke-width="3.2"/>
<circle clip-path="url(#clip092)" cx="857.832" cy="1068.47" r="14.4" fill="#009af9" fill-rule="evenodd" fill-opacity="0.5" stroke="#000000" stroke-opacity="0.5" stroke-width="3.2"/>
<circle clip-path="url(#clip092)" cx="1360.3" cy="659.244" r="14.4" fill="#009af9" fill-rule="evenodd" fill-opacity="0.5" stroke="#000000" stroke-opacity="0.5" stroke-width="3.2"/>
<circle clip-path="url(#clip092)" cx="1348.89" cy="922.267" r="14.4" fill="#009af9" fill-rule="evenodd" fill-opacity="0.5" stroke="#000000" stroke-opacity="0.5" stroke-width="3.2"/>
<circle clip-path="url(#clip092)" cx="1130.38" cy="662.707" r="14.4" fill="#009af9" fill-rule="evenodd" fill-opacity="0.5" stroke="#000000" stroke-opacity="0.5" stroke-width="3.2"/>
<circle clip-path="url(#clip092)" cx="1771.17" cy="1001" r="14.4" fill="#009af9" fill-rule="evenodd" fill-opacity="0.5" stroke="#000000" stroke-opacity="0.5" stroke-width="3.2"/>
<circle clip-path="url(#clip092)" cx="1860.69" cy="450.899" r="14.4" fill="#009af9" fill-rule="evenodd" fill-opacity="0.5" stroke="#000000" stroke-opacity="0.5" stroke-width="3.2"/>
<circle clip-path="url(#clip092)" cx="1382.47" cy="875.975" r="14.4" fill="#009af9" fill-rule="evenodd" fill-opacity="0.5" stroke="#000000" stroke-opacity="0.5" stroke-width="3.2"/>
<circle clip-path="url(#clip092)" cx="1380.07" cy="923.596" r="14.4" fill="#009af9" fill-rule="evenodd" fill-opacity="0.5" stroke="#000000" stroke-opacity="0.5" stroke-width="3.2"/>
<circle clip-path="url(#clip092)" cx="556.741" cy="1445.72" r="14.4" fill="#009af9" fill-rule="evenodd" fill-opacity="0.5" stroke="#000000" stroke-opacity="0.5" stroke-width="3.2"/>
<circle clip-path="url(#clip092)" cx="637.133" cy="401.627" r="14.4" fill="#009af9" fill-rule="evenodd" fill-opacity="0.5" stroke="#000000" stroke-opacity="0.5" stroke-width="3.2"/>
<circle clip-path="url(#clip092)" cx="1296.18" cy="741.573" r="14.4" fill="#009af9" fill-rule="evenodd" fill-opacity="0.5" stroke="#000000" stroke-opacity="0.5" stroke-width="3.2"/>
<circle clip-path="url(#clip092)" cx="1287.59" cy="1168.78" r="14.4" fill="#009af9" fill-rule="evenodd" fill-opacity="0.5" stroke="#000000" stroke-opacity="0.5" stroke-width="3.2"/>
<circle clip-path="url(#clip092)" cx="1065.19" cy="636.74" r="14.4" fill="#009af9" fill-rule="evenodd" fill-opacity="0.5" stroke="#000000" stroke-opacity="0.5" stroke-width="3.2"/>
<circle clip-path="url(#clip092)" cx="1354.11" cy="935.614" r="14.4" fill="#009af9" fill-rule="evenodd" fill-opacity="0.5" stroke="#000000" stroke-opacity="0.5" stroke-width="3.2"/>
<circle clip-path="url(#clip092)" cx="671.144" cy="734.415" r="14.4" fill="#009af9" fill-rule="evenodd" fill-opacity="0.5" stroke="#000000" stroke-opacity="0.5" stroke-width="3.2"/>
<circle clip-path="url(#clip092)" cx="875.293" cy="1088.83" r="14.4" fill="#009af9" fill-rule="evenodd" fill-opacity="0.5" stroke="#000000" stroke-opacity="0.5" stroke-width="3.2"/>
<circle clip-path="url(#clip092)" cx="2088" cy="650.477" r="14.4" fill="#009af9" fill-rule="evenodd" fill-opacity="0.5" stroke="#000000" stroke-opacity="0.5" stroke-width="3.2"/>
<circle clip-path="url(#clip092)" cx="1000.16" cy="1220.46" r="14.4" fill="#009af9" fill-rule="evenodd" fill-opacity="0.5" stroke="#000000" stroke-opacity="0.5" stroke-width="3.2"/>
<circle clip-path="url(#clip092)" cx="1253.41" cy="87.9763" r="14.4" fill="#009af9" fill-rule="evenodd" fill-opacity="0.5" stroke="#000000" stroke-opacity="0.5" stroke-width="3.2"/>
<circle clip-path="url(#clip092)" cx="822.309" cy="527.69" r="14.4" fill="#009af9" fill-rule="evenodd" fill-opacity="0.5" stroke="#000000" stroke-opacity="0.5" stroke-width="3.2"/>
<circle clip-path="url(#clip092)" cx="2291.66" cy="787.981" r="14.4" fill="#009af9" fill-rule="evenodd" fill-opacity="0.5" stroke="#000000" stroke-opacity="0.5" stroke-width="3.2"/>
<circle clip-path="url(#clip092)" cx="1377.79" cy="534.824" r="14.4" fill="#009af9" fill-rule="evenodd" fill-opacity="0.5" stroke="#000000" stroke-opacity="0.5" stroke-width="3.2"/>
<circle clip-path="url(#clip092)" cx="2182.83" cy="650.261" r="14.4" fill="#009af9" fill-rule="evenodd" fill-opacity="0.5" stroke="#000000" stroke-opacity="0.5" stroke-width="3.2"/>
<circle clip-path="url(#clip092)" cx="894.669" cy="221.051" r="14.4" fill="#009af9" fill-rule="evenodd" fill-opacity="0.5" stroke="#000000" stroke-opacity="0.5" stroke-width="3.2"/>
<circle clip-path="url(#clip092)" cx="1365.01" cy="648.142" r="14.4" fill="#009af9" fill-rule="evenodd" fill-opacity="0.5" stroke="#000000" stroke-opacity="0.5" stroke-width="3.2"/>
<circle clip-path="url(#clip092)" cx="1142.37" cy="566.607" r="14.4" fill="#009af9" fill-rule="evenodd" fill-opacity="0.5" stroke="#000000" stroke-opacity="0.5" stroke-width="3.2"/>
<path clip-path="url(#clip092)" d="M255.035 458.672 L556.741 1445.72 L2210.57 1224.3 L2291.66 787.981 L2182.83 650.261 L1860.69 450.899 L1253.41 87.9763 L894.669 221.051 L255.035 458.672 L255.035 458.672  Z" fill="#e26f46" fill-rule="evenodd" fill-opacity="0.2"/>
<polyline clip-path="url(#clip092)" style="stroke:#000000; stroke-linecap:round; stroke-linejoin:round; stroke-width:4; stroke-opacity:0.2; fill:none" points="255.035,458.672 556.741,1445.72 2210.57,1224.3 2291.66,787.981 2182.83,650.261 1860.69,450.899 1253.41,87.9763 894.669,221.051 255.035,458.672 "/>
</svg>
