<?xml version="1.0" encoding="utf-8"?>
<svg xmlns="http://www.w3.org/2000/svg" xmlns:xlink="http://www.w3.org/1999/xlink" width="600" height="400" viewBox="0 0 2400 1600">
<defs>
  <clipPath id="clip450">
    <rect x="0" y="0" width="2400" height="1600"/>
  </clipPath>
</defs>
<path clip-path="url(#clip450)" d="M0 1600 L2400 1600 L2400 0 L0 0  Z" fill="#ffffff" fill-rule="evenodd" fill-opacity="1"/>
<defs>
  <clipPath id="clip451">
    <rect x="480" y="0" width="1681" height="1600"/>
  </clipPath>
</defs>
<path clip-path="url(#clip450)" d="M147.478 1486.45 L2352.76 1486.45 L2352.76 47.2441 L147.478 47.2441  Z" fill="#ffffff" fill-rule="evenodd" fill-opacity="1"/>
<defs>
  <clipPath id="clip452">
    <rect x="147" y="47" width="2206" height="1440"/>
  </clipPath>
</defs>
<polyline clip-path="url(#clip452)" style="stroke:#000000; stroke-linecap:round; stroke-linejoin:round; stroke-width:2; stroke-opacity:0.1; fill:none" points="221.644,1486.45 221.644,47.2441 "/>
<polyline clip-path="url(#clip452)" style="stroke:#000000; stroke-linecap:round; stroke-linejoin:round; stroke-width:2; stroke-opacity:0.1; fill:none" points="789.893,1486.45 789.893,47.2441 "/>
<polyline clip-path="url(#clip452)" style="stroke:#000000; stroke-linecap:round; stroke-linejoin:round; stroke-width:2; stroke-opacity:0.1; fill:none" points="1358.14,1486.45 1358.14,47.2441 "/>
<polyline clip-path="url(#clip452)" style="stroke:#000000; stroke-linecap:round; stroke-linejoin:round; stroke-width:2; stroke-opacity:0.1; fill:none" points="1926.39,1486.45 1926.39,47.2441 "/>
<polyline clip-path="url(#clip452)" style="stroke:#000000; stroke-linecap:round; stroke-linejoin:round; stroke-width:2; stroke-opacity:0.1; fill:none" points="147.478,1351.75 2352.76,1351.75 "/>
<polyline clip-path="url(#clip452)" style="stroke:#000000; stroke-linecap:round; stroke-linejoin:round; stroke-width:2; stroke-opacity:0.1; fill:none" points="147.478,1038.76 2352.76,1038.76 "/>
<polyline clip-path="url(#clip452)" style="stroke:#000000; stroke-linecap:round; stroke-linejoin:round; stroke-width:2; stroke-opacity:0.1; fill:none" points="147.478,725.771 2352.76,725.771 "/>
<polyline clip-path="url(#clip452)" style="stroke:#000000; stroke-linecap:round; stroke-linejoin:round; stroke-width:2; stroke-opacity:0.1; fill:none" points="147.478,412.78 2352.76,412.78 "/>
<polyline clip-path="url(#clip452)" style="stroke:#000000; stroke-linecap:round; stroke-linejoin:round; stroke-width:2; stroke-opacity:0.1; fill:none" points="147.478,99.789 2352.76,99.789 "/>
<polyline clip-path="url(#clip450)" style="stroke:#000000; stroke-linecap:round; stroke-linejoin:round; stroke-width:4; stroke-opacity:1; fill:none" points="147.478,1486.45 2352.76,1486.45 "/>
<polyline clip-path="url(#clip450)" style="stroke:#000000; stroke-linecap:round; stroke-linejoin:round; stroke-width:4; stroke-opacity:1; fill:none" points="221.644,1486.45 221.644,1467.55 "/>
<polyline clip-path="url(#clip450)" style="stroke:#000000; stroke-linecap:round; stroke-linejoin:round; stroke-width:4; stroke-opacity:1; fill:none" points="789.893,1486.45 789.893,1467.55 "/>
<polyline clip-path="url(#clip450)" style="stroke:#000000; stroke-linecap:round; stroke-linejoin:round; stroke-width:4; stroke-opacity:1; fill:none" points="1358.14,1486.45 1358.14,1467.55 "/>
<polyline clip-path="url(#clip450)" style="stroke:#000000; stroke-linecap:round; stroke-linejoin:round; stroke-width:4; stroke-opacity:1; fill:none" points="1926.39,1486.45 1926.39,1467.55 "/>
<path clip-path="url(#clip450)" d="M191.586 1532.02 L221.262 1532.02 L221.262 1535.95 L191.586 1535.95 L191.586 1532.02 Z" fill="#000000" fill-rule="nonzero" fill-opacity="1" /><path clip-path="url(#clip450)" d="M235.382 1544.91 L251.702 1544.91 L251.702 1548.85 L229.757 1548.85 L229.757 1544.91 Q232.419 1542.16 237.003 1537.53 Q241.609 1532.88 242.79 1531.53 Q245.035 1529.01 245.915 1527.27 Q246.817 1525.51 246.817 1523.82 Q246.817 1521.07 244.873 1519.33 Q242.952 1517.6 239.85 1517.6 Q237.651 1517.6 235.197 1518.36 Q232.767 1519.13 229.989 1520.68 L229.989 1515.95 Q232.813 1514.82 235.267 1514.24 Q237.72 1513.66 239.757 1513.66 Q245.128 1513.66 248.322 1516.35 Q251.516 1519.03 251.516 1523.52 Q251.516 1525.65 250.706 1527.57 Q249.919 1529.47 247.813 1532.07 Q247.234 1532.74 244.132 1535.95 Q241.03 1539.15 235.382 1544.91 Z" fill="#000000" fill-rule="nonzero" fill-opacity="1" /><path clip-path="url(#clip450)" d="M759.65 1532.02 L789.326 1532.02 L789.326 1535.95 L759.65 1535.95 L759.65 1532.02 Z" fill="#000000" fill-rule="nonzero" fill-opacity="1" /><path clip-path="url(#clip450)" d="M800.229 1544.91 L807.868 1544.91 L807.868 1518.55 L799.558 1520.21 L799.558 1515.95 L807.821 1514.29 L812.497 1514.29 L812.497 1544.91 L820.136 1544.91 L820.136 1548.85 L800.229 1548.85 L800.229 1544.91 Z" fill="#000000" fill-rule="nonzero" fill-opacity="1" /><path clip-path="url(#clip450)" d="M1358.14 1517.37 Q1354.53 1517.37 1352.7 1520.93 Q1350.9 1524.47 1350.9 1531.6 Q1350.9 1538.71 1352.7 1542.27 Q1354.53 1545.82 1358.14 1545.82 Q1361.78 1545.82 1363.58 1542.27 Q1365.41 1538.71 1365.41 1531.6 Q1365.41 1524.47 1363.58 1520.93 Q1361.78 1517.37 1358.14 1517.37 M1358.14 1513.66 Q1363.95 1513.66 1367.01 1518.27 Q1370.09 1522.85 1370.09 1531.6 Q1370.09 1540.33 1367.01 1544.94 Q1363.95 1549.52 1358.14 1549.52 Q1352.33 1549.52 1349.25 1544.94 Q1346.2 1540.33 1346.2 1531.6 Q1346.2 1522.85 1349.25 1518.27 Q1352.33 1513.66 1358.14 1513.66 Z" fill="#000000" fill-rule="nonzero" fill-opacity="1" /><path clip-path="url(#clip450)" d="M1916.77 1544.91 L1924.41 1544.91 L1924.41 1518.55 L1916.1 1520.21 L1916.1 1515.95 L1924.37 1514.29 L1929.04 1514.29 L1929.04 1544.91 L1936.68 1544.91 L1936.68 1548.85 L1916.77 1548.85 L1916.77 1544.91 Z" fill="#000000" fill-rule="nonzero" fill-opacity="1" /><polyline clip-path="url(#clip450)" style="stroke:#000000; stroke-linecap:round; stroke-linejoin:round; stroke-width:4; stroke-opacity:1; fill:none" points="147.478,1486.45 147.478,47.2441 "/>
<polyline clip-path="url(#clip450)" style="stroke:#000000; stroke-linecap:round; stroke-linejoin:round; stroke-width:4; stroke-opacity:1; fill:none" points="147.478,1351.75 166.376,1351.75 "/>
<polyline clip-path="url(#clip450)" style="stroke:#000000; stroke-linecap:round; stroke-linejoin:round; stroke-width:4; stroke-opacity:1; fill:none" points="147.478,1038.76 166.376,1038.76 "/>
<polyline clip-path="url(#clip450)" style="stroke:#000000; stroke-linecap:round; stroke-linejoin:round; stroke-width:4; stroke-opacity:1; fill:none" points="147.478,725.771 166.376,725.771 "/>
<polyline clip-path="url(#clip450)" style="stroke:#000000; stroke-linecap:round; stroke-linejoin:round; stroke-width:4; stroke-opacity:1; fill:none" points="147.478,412.78 166.376,412.78 "/>
<polyline clip-path="url(#clip450)" style="stroke:#000000; stroke-linecap:round; stroke-linejoin:round; stroke-width:4; stroke-opacity:1; fill:none" points="147.478,99.789 166.376,99.789 "/>
<path clip-path="url(#clip450)" d="M51.3625 1352.21 L81.0383 1352.21 L81.0383 1356.14 L51.3625 1356.14 L51.3625 1352.21 Z" fill="#000000" fill-rule="nonzero" fill-opacity="1" /><path clip-path="url(#clip450)" d="M95.1586 1365.1 L111.478 1365.1 L111.478 1369.03 L89.5336 1369.03 L89.5336 1365.1 Q92.1956 1362.34 96.7789 1357.71 Q101.385 1353.06 102.566 1351.72 Q104.811 1349.2 105.691 1347.46 Q106.594 1345.7 106.594 1344.01 Q106.594 1341.26 104.649 1339.52 Q102.728 1337.78 99.6261 1337.78 Q97.4271 1337.78 94.9734 1338.55 Q92.5428 1339.31 89.7651 1340.86 L89.7651 1336.14 Q92.5891 1335.01 95.0428 1334.43 Q97.4965 1333.85 99.5335 1333.85 Q104.904 1333.85 108.098 1336.53 Q111.293 1339.22 111.293 1343.71 Q111.293 1345.84 110.483 1347.76 Q109.696 1349.66 107.589 1352.25 Q107.01 1352.92 103.909 1356.14 Q100.807 1359.33 95.1586 1365.1 Z" fill="#000000" fill-rule="nonzero" fill-opacity="1" /><path clip-path="url(#clip450)" d="M50.9921 1039.21 L80.6679 1039.21 L80.6679 1043.15 L50.9921 1043.15 L50.9921 1039.21 Z" fill="#000000" fill-rule="nonzero" fill-opacity="1" /><path clip-path="url(#clip450)" d="M91.5706 1052.11 L99.2095 1052.11 L99.2095 1025.74 L90.8993 1027.41 L90.8993 1023.15 L99.1632 1021.48 L103.839 1021.48 L103.839 1052.11 L111.478 1052.11 L111.478 1056.04 L91.5706 1056.04 L91.5706 1052.11 Z" fill="#000000" fill-rule="nonzero" fill-opacity="1" /><path clip-path="url(#clip450)" d="M99.5335 711.57 Q95.9224 711.57 94.0937 715.135 Q92.2882 718.677 92.2882 725.806 Q92.2882 732.913 94.0937 736.477 Q95.9224 740.019 99.5335 740.019 Q103.168 740.019 104.973 736.477 Q106.802 732.913 106.802 725.806 Q106.802 718.677 104.973 715.135 Q103.168 711.57 99.5335 711.57 M99.5335 707.866 Q105.344 707.866 108.399 712.473 Q111.478 717.056 111.478 725.806 Q111.478 734.533 108.399 739.139 Q105.344 743.723 99.5335 743.723 Q93.7234 743.723 90.6447 739.139 Q87.5892 734.533 87.5892 725.806 Q87.5892 717.056 90.6447 712.473 Q93.7234 707.866 99.5335 707.866 Z" fill="#000000" fill-rule="nonzero" fill-opacity="1" /><path clip-path="url(#clip450)" d="M91.5706 426.125 L99.2095 426.125 L99.2095 399.759 L90.8993 401.426 L90.8993 397.167 L99.1632 395.5 L103.839 395.5 L103.839 426.125 L111.478 426.125 L111.478 430.06 L91.5706 430.06 L91.5706 426.125 Z" fill="#000000" fill-rule="nonzero" fill-opacity="1" /><path clip-path="url(#clip450)" d="M95.1586 113.134 L111.478 113.134 L111.478 117.069 L89.5336 117.069 L89.5336 113.134 Q92.1956 110.379 96.7789 105.75 Q101.385 101.097 102.566 99.7542 Q104.811 97.2311 105.691 95.495 Q106.594 93.7358 106.594 92.046 Q106.594 89.2913 104.649 87.5552 Q102.728 85.8191 99.6261 85.8191 Q97.4271 85.8191 94.9734 86.583 Q92.5428 87.3469 89.7651 88.8978 L89.7651 84.1756 Q92.5891 83.0414 95.0428 82.4627 Q97.4965 81.884 99.5335 81.884 Q104.904 81.884 108.098 84.5691 Q111.293 87.2543 111.293 91.745 Q111.293 93.8746 110.483 95.7959 Q109.696 97.6941 107.589 100.287 Q107.01 100.958 103.909 104.176 Q100.807 107.37 95.1586 113.134 Z" fill="#000000" fill-rule="nonzero" fill-opacity="1" /><circle clip-path="url(#clip452)" cx="1167.78" cy="259.918" r="14.4" fill="#009af9" fill-rule="evenodd" fill-opacity="0.5" stroke="#000000" stroke-opacity="0.5" stroke-width="3.2"/>
<circle clip-path="url(#clip452)" cx="1503.39" cy="762.595" r="14.4" fill="#009af9" fill-rule="evenodd" fill-opacity="0.5" stroke="#000000" stroke-opacity="0.5" stroke-width="3.2"/>
<circle clip-path="url(#clip452)" cx="1335.34" cy="919.999" r="14.4" fill="#009af9" fill-rule="evenodd" fill-opacity="0.5" stroke="#000000" stroke-opacity="0.5" stroke-width="3.2"/>
<circle clip-path="url(#clip452)" cx="1408.89" cy="558.097" r="14.4" fill="#009af9" fill-rule="evenodd" fill-opacity="0.5" stroke="#000000" stroke-opacity="0.5" stroke-width="3.2"/>
<circle clip-path="url(#clip452)" cx="1172.44" cy="1445.72" r="14.4" fill="#009af9" fill-rule="evenodd" fill-opacity="0.5" stroke="#000000" stroke-opacity="0.5" stroke-width="3.2"/>
<circle clip-path="url(#clip452)" cx="455.295" cy="1414.71" r="14.4" fill="#009af9" fill-rule="evenodd" fill-opacity="0.5" stroke="#000000" stroke-opacity="0.5" stroke-width="3.2"/>
<circle clip-path="url(#clip452)" cx="1104.94" cy="1151.86" r="14.4" fill="#009af9" fill-rule="evenodd" fill-opacity="0.5" stroke="#000000" stroke-opacity="0.5" stroke-width="3.2"/>
<circle clip-path="url(#clip452)" cx="1689.53" cy="739.865" r="14.4" fill="#009af9" fill-rule="evenodd" fill-opacity="0.5" stroke="#000000" stroke-opacity="0.5" stroke-width="3.2"/>
<circle clip-path="url(#clip452)" cx="2290.34" cy="373.583" r="14.4" fill="#009af9" fill-rule="evenodd" fill-opacity="0.5" stroke="#000000" stroke-opacity="0.5" stroke-width="3.2"/>
<circle clip-path="url(#clip452)" cx="209.891" cy="910.317" r="14.4" fill="#009af9" fill-rule="evenodd" fill-opacity="0.5" stroke="#000000" stroke-opacity="0.5" stroke-width="3.2"/>
<circle clip-path="url(#clip452)" cx="1972.19" cy="961.154" r="14.4" fill="#009af9" fill-rule="evenodd" fill-opacity="0.5" stroke="#000000" stroke-opacity="0.5" stroke-width="3.2"/>
<circle clip-path="url(#clip452)" cx="876.027" cy="1233.03" r="14.4" fill="#009af9" fill-rule="evenodd" fill-opacity="0.5" stroke="#000000" stroke-opacity="0.5" stroke-width="3.2"/>
<circle clip-path="url(#clip452)" cx="1946.52" cy="321.796" r="14.4" fill="#009af9" fill-rule="evenodd" fill-opacity="0.5" stroke="#000000" stroke-opacity="0.5" stroke-width="3.2"/>
<circle clip-path="url(#clip452)" cx="800.87" cy="849.173" r="14.4" fill="#009af9" fill-rule="evenodd" fill-opacity="0.5" stroke="#000000" stroke-opacity="0.5" stroke-width="3.2"/>
<circle clip-path="url(#clip452)" cx="980.527" cy="756.466" r="14.4" fill="#009af9" fill-rule="evenodd" fill-opacity="0.5" stroke="#000000" stroke-opacity="0.5" stroke-width="3.2"/>
<circle clip-path="url(#clip452)" cx="2258.21" cy="625.768" r="14.4" fill="#009af9" fill-rule="evenodd" fill-opacity="0.5" stroke="#000000" stroke-opacity="0.5" stroke-width="3.2"/>
<circle clip-path="url(#clip452)" cx="2125.39" cy="885.449" r="14.4" fill="#009af9" fill-rule="evenodd" fill-opacity="0.5" stroke="#000000" stroke-opacity="0.5" stroke-width="3.2"/>
<circle clip-path="url(#clip452)" cx="719.349" cy="770.374" r="14.4" fill="#009af9" fill-rule="evenodd" fill-opacity="0.5" stroke="#000000" stroke-opacity="0.5" stroke-width="3.2"/>
<circle clip-path="url(#clip452)" cx="1872.64" cy="424.655" r="14.4" fill="#009af9" fill-rule="evenodd" fill-opacity="0.5" stroke="#000000" stroke-opacity="0.5" stroke-width="3.2"/>
<circle clip-path="url(#clip452)" cx="1194.48" cy="330.553" r="14.4" fill="#009af9" fill-rule="evenodd" fill-opacity="0.5" stroke="#000000" stroke-opacity="0.5" stroke-width="3.2"/>
<circle clip-path="url(#clip452)" cx="1206.38" cy="454.626" r="14.4" fill="#009af9" fill-rule="evenodd" fill-opacity="0.5" stroke="#000000" stroke-opacity="0.5" stroke-width="3.2"/>
<circle clip-path="url(#clip452)" cx="1369.55" cy="653.737" r="14.4" fill="#009af9" fill-rule="evenodd" fill-opacity="0.5" stroke="#000000" stroke-opacity="0.5" stroke-width="3.2"/>
<circle clip-path="url(#clip452)" cx="1691.99" cy="87.9763" r="14.4" fill="#009af9" fill-rule="evenodd" fill-opacity="0.5" stroke="#000000" stroke-opacity="0.5" stroke-width="3.2"/>
<circle clip-path="url(#clip452)" cx="1687.86" cy="255.798" r="14.4" fill="#009af9" fill-rule="evenodd" fill-opacity="0.5" stroke="#000000" stroke-opacity="0.5" stroke-width="3.2"/>
<circle clip-path="url(#clip452)" cx="1104.66" cy="895.244" r="14.4" fill="#009af9" fill-rule="evenodd" fill-opacity="0.5" stroke="#000000" stroke-opacity="0.5" stroke-width="3.2"/>
<circle clip-path="url(#clip452)" cx="1102.48" cy="899.889" r="14.4" fill="#009af9" fill-rule="evenodd" fill-opacity="0.5" stroke="#000000" stroke-opacity="0.5" stroke-width="3.2"/>
<circle clip-path="url(#clip452)" cx="1668.58" cy="707.482" r="14.4" fill="#009af9" fill-rule="evenodd" fill-opacity="0.5" stroke="#000000" stroke-opacity="0.5" stroke-width="3.2"/>
<circle clip-path="url(#clip452)" cx="783.302" cy="649.058" r="14.4" fill="#009af9" fill-rule="evenodd" fill-opacity="0.5" stroke="#000000" stroke-opacity="0.5" stroke-width="3.2"/>
<circle clip-path="url(#clip452)" cx="2274.71" cy="699.36" r="14.4" fill="#009af9" fill-rule="evenodd" fill-opacity="0.5" stroke="#000000" stroke-opacity="0.5" stroke-width="3.2"/>
<circle clip-path="url(#clip452)" cx="2181.29" cy="685.523" r="14.4" fill="#009af9" fill-rule="evenodd" fill-opacity="0.5" stroke="#000000" stroke-opacity="0.5" stroke-width="3.2"/>
<path clip-path="url(#clip452)" d="M209.891 910.317 L455.295 1414.71 L1172.44 1445.72 L2125.39 885.449 L2274.71 699.36 L2290.34 373.583 L1691.99 87.9763 L1167.78 259.918 L209.891 910.317 L209.891 910.317  Z" fill="#e26f46" fill-rule="evenodd" fill-opacity="0.2"/>
<polyline clip-path="url(#clip452)" style="stroke:#000000; stroke-linecap:round; stroke-linejoin:round; stroke-width:4; stroke-opacity:0.2; fill:none" points="209.891,910.317 455.295,1414.71 1172.44,1445.72 2125.39,885.449 2274.71,699.36 2290.34,373.583 1691.99,87.9763 1167.78,259.918 209.891,910.317 "/>
</svg>
