<?xml version="1.0" encoding="utf-8"?>
<svg xmlns="http://www.w3.org/2000/svg" xmlns:xlink="http://www.w3.org/1999/xlink" width="600" height="400" viewBox="0 0 2400 1600">
<defs>
  <clipPath id="clip890">
    <rect x="0" y="0" width="2400" height="1600"/>
  </clipPath>
</defs>
<path clip-path="url(#clip890)" d="M0 1600 L2400 1600 L2400 0 L0 0  Z" fill="#ffffff" fill-rule="evenodd" fill-opacity="1"/>
<defs>
  <clipPath id="clip891">
    <rect x="480" y="0" width="1681" height="1600"/>
  </clipPath>
</defs>
<path clip-path="url(#clip890)" d="M147.478 1486.45 L2352.76 1486.45 L2352.76 47.2441 L147.478 47.2441  Z" fill="#ffffff" fill-rule="evenodd" fill-opacity="1"/>
<defs>
  <clipPath id="clip892">
    <rect x="147" y="47" width="2206" height="1440"/>
  </clipPath>
</defs>
<polyline clip-path="url(#clip892)" style="stroke:#000000; stroke-linecap:round; stroke-linejoin:round; stroke-width:2; stroke-opacity:0.1; fill:none" points="176.353,1486.45 176.353,47.2441 "/>
<polyline clip-path="url(#clip892)" style="stroke:#000000; stroke-linecap:round; stroke-linejoin:round; stroke-width:2; stroke-opacity:0.1; fill:none" points="536.26,1486.45 536.26,47.2441 "/>
<polyline clip-path="url(#clip892)" style="stroke:#000000; stroke-linecap:round; stroke-linejoin:round; stroke-width:2; stroke-opacity:0.1; fill:none" points="896.167,1486.45 896.167,47.2441 "/>
<polyline clip-path="url(#clip892)" style="stroke:#000000; stroke-linecap:round; stroke-linejoin:round; stroke-width:2; stroke-opacity:0.1; fill:none" points="1256.07,1486.45 1256.07,47.2441 "/>
<polyline clip-path="url(#clip892)" style="stroke:#000000; stroke-linecap:round; stroke-linejoin:round; stroke-width:2; stroke-opacity:0.1; fill:none" points="1615.98,1486.45 1615.98,47.2441 "/>
<polyline clip-path="url(#clip892)" style="stroke:#000000; stroke-linecap:round; stroke-linejoin:round; stroke-width:2; stroke-opacity:0.1; fill:none" points="1975.89,1486.45 1975.89,47.2441 "/>
<polyline clip-path="url(#clip892)" style="stroke:#000000; stroke-linecap:round; stroke-linejoin:round; stroke-width:2; stroke-opacity:0.1; fill:none" points="2335.8,1486.45 2335.8,47.2441 "/>
<polyline clip-path="url(#clip892)" style="stroke:#000000; stroke-linecap:round; stroke-linejoin:round; stroke-width:2; stroke-opacity:0.1; fill:none" points="147.478,1441.96 2352.76,1441.96 "/>
<polyline clip-path="url(#clip892)" style="stroke:#000000; stroke-linecap:round; stroke-linejoin:round; stroke-width:2; stroke-opacity:0.1; fill:none" points="147.478,1113 2352.76,1113 "/>
<polyline clip-path="url(#clip892)" style="stroke:#000000; stroke-linecap:round; stroke-linejoin:round; stroke-width:2; stroke-opacity:0.1; fill:none" points="147.478,784.045 2352.76,784.045 "/>
<polyline clip-path="url(#clip892)" style="stroke:#000000; stroke-linecap:round; stroke-linejoin:round; stroke-width:2; stroke-opacity:0.1; fill:none" points="147.478,455.088 2352.76,455.088 "/>
<polyline clip-path="url(#clip892)" style="stroke:#000000; stroke-linecap:round; stroke-linejoin:round; stroke-width:2; stroke-opacity:0.1; fill:none" points="147.478,126.132 2352.76,126.132 "/>
<polyline clip-path="url(#clip890)" style="stroke:#000000; stroke-linecap:round; stroke-linejoin:round; stroke-width:4; stroke-opacity:1; fill:none" points="147.478,1486.45 2352.76,1486.45 "/>
<polyline clip-path="url(#clip890)" style="stroke:#000000; stroke-linecap:round; stroke-linejoin:round; stroke-width:4; stroke-opacity:1; fill:none" points="176.353,1486.45 176.353,1467.55 "/>
<polyline clip-path="url(#clip890)" style="stroke:#000000; stroke-linecap:round; stroke-linejoin:round; stroke-width:4; stroke-opacity:1; fill:none" points="536.26,1486.45 536.26,1467.55 "/>
<polyline clip-path="url(#clip890)" style="stroke:#000000; stroke-linecap:round; stroke-linejoin:round; stroke-width:4; stroke-opacity:1; fill:none" points="896.167,1486.45 896.167,1467.55 "/>
<polyline clip-path="url(#clip890)" style="stroke:#000000; stroke-linecap:round; stroke-linejoin:round; stroke-width:4; stroke-opacity:1; fill:none" points="1256.07,1486.45 1256.07,1467.55 "/>
<polyline clip-path="url(#clip890)" style="stroke:#000000; stroke-linecap:round; stroke-linejoin:round; stroke-width:4; stroke-opacity:1; fill:none" points="1615.98,1486.45 1615.98,1467.55 "/>
<polyline clip-path="url(#clip890)" style="stroke:#000000; stroke-linecap:round; stroke-linejoin:round; stroke-width:4; stroke-opacity:1; fill:none" points="1975.89,1486.45 1975.89,1467.55 "/>
<polyline clip-path="url(#clip890)" style="stroke:#000000; stroke-linecap:round; stroke-linejoin:round; stroke-width:4; stroke-opacity:1; fill:none" points="2335.8,1486.45 2335.8,1467.55 "/>
<path clip-path="url(#clip890)" d="M123.379 1532.02 L153.055 1532.02 L153.055 1535.95 L123.379 1535.95 L123.379 1532.02 Z" fill="#000000" fill-rule="nonzero" fill-opacity="1" /><path clip-path="url(#clip890)" d="M163.957 1544.91 L171.596 1544.91 L171.596 1518.55 L163.286 1520.21 L163.286 1515.95 L171.55 1514.29 L176.226 1514.29 L176.226 1544.91 L183.865 1544.91 L183.865 1548.85 L163.957 1548.85 L163.957 1544.91 Z" fill="#000000" fill-rule="nonzero" fill-opacity="1" /><path clip-path="url(#clip890)" d="M193.309 1542.97 L198.193 1542.97 L198.193 1548.85 L193.309 1548.85 L193.309 1542.97 Z" fill="#000000" fill-rule="nonzero" fill-opacity="1" /><path clip-path="url(#clip890)" d="M208.425 1514.29 L226.781 1514.29 L226.781 1518.22 L212.707 1518.22 L212.707 1526.7 Q213.725 1526.35 214.744 1526.19 Q215.763 1526 216.781 1526 Q222.568 1526 225.948 1529.17 Q229.327 1532.34 229.327 1537.76 Q229.327 1543.34 225.855 1546.44 Q222.383 1549.52 216.063 1549.52 Q213.888 1549.52 211.619 1549.15 Q209.374 1548.78 206.966 1548.04 L206.966 1543.34 Q209.05 1544.47 211.272 1545.03 Q213.494 1545.58 215.971 1545.58 Q219.975 1545.58 222.313 1543.48 Q224.651 1541.37 224.651 1537.76 Q224.651 1534.15 222.313 1532.04 Q219.975 1529.94 215.971 1529.94 Q214.096 1529.94 212.221 1530.35 Q210.369 1530.77 208.425 1531.65 L208.425 1514.29 Z" fill="#000000" fill-rule="nonzero" fill-opacity="1" /><path clip-path="url(#clip890)" d="M482.788 1532.02 L512.464 1532.02 L512.464 1535.95 L482.788 1535.95 L482.788 1532.02 Z" fill="#000000" fill-rule="nonzero" fill-opacity="1" /><path clip-path="url(#clip890)" d="M523.367 1544.91 L531.006 1544.91 L531.006 1518.55 L522.695 1520.21 L522.695 1515.95 L530.959 1514.29 L535.635 1514.29 L535.635 1544.91 L543.274 1544.91 L543.274 1548.85 L523.367 1548.85 L523.367 1544.91 Z" fill="#000000" fill-rule="nonzero" fill-opacity="1" /><path clip-path="url(#clip890)" d="M552.718 1542.97 L557.603 1542.97 L557.603 1548.85 L552.718 1548.85 L552.718 1542.97 Z" fill="#000000" fill-rule="nonzero" fill-opacity="1" /><path clip-path="url(#clip890)" d="M577.788 1517.37 Q574.177 1517.37 572.348 1520.93 Q570.542 1524.47 570.542 1531.6 Q570.542 1538.71 572.348 1542.27 Q574.177 1545.82 577.788 1545.82 Q581.422 1545.82 583.228 1542.27 Q585.056 1538.71 585.056 1531.6 Q585.056 1524.47 583.228 1520.93 Q581.422 1517.37 577.788 1517.37 M577.788 1513.66 Q583.598 1513.66 586.653 1518.27 Q589.732 1522.85 589.732 1531.6 Q589.732 1540.33 586.653 1544.94 Q583.598 1549.52 577.788 1549.52 Q571.978 1549.52 568.899 1544.94 Q565.843 1540.33 565.843 1531.6 Q565.843 1522.85 568.899 1518.27 Q571.978 1513.66 577.788 1513.66 Z" fill="#000000" fill-rule="nonzero" fill-opacity="1" /><path clip-path="url(#clip890)" d="M843.193 1532.02 L872.869 1532.02 L872.869 1535.95 L843.193 1535.95 L843.193 1532.02 Z" fill="#000000" fill-rule="nonzero" fill-opacity="1" /><path clip-path="url(#clip890)" d="M892.961 1517.37 Q889.35 1517.37 887.522 1520.93 Q885.716 1524.47 885.716 1531.6 Q885.716 1538.71 887.522 1542.27 Q889.35 1545.82 892.961 1545.82 Q896.596 1545.82 898.401 1542.27 Q900.23 1538.71 900.23 1531.6 Q900.23 1524.47 898.401 1520.93 Q896.596 1517.37 892.961 1517.37 M892.961 1513.66 Q898.772 1513.66 901.827 1518.27 Q904.906 1522.85 904.906 1531.6 Q904.906 1540.33 901.827 1544.94 Q898.772 1549.52 892.961 1549.52 Q887.151 1549.52 884.073 1544.94 Q881.017 1540.33 881.017 1531.6 Q881.017 1522.85 884.073 1518.27 Q887.151 1513.66 892.961 1513.66 Z" fill="#000000" fill-rule="nonzero" fill-opacity="1" /><path clip-path="url(#clip890)" d="M913.123 1542.97 L918.008 1542.97 L918.008 1548.85 L913.123 1548.85 L913.123 1542.97 Z" fill="#000000" fill-rule="nonzero" fill-opacity="1" /><path clip-path="url(#clip890)" d="M928.239 1514.29 L946.595 1514.29 L946.595 1518.22 L932.521 1518.22 L932.521 1526.7 Q933.54 1526.35 934.558 1526.19 Q935.577 1526 936.596 1526 Q942.383 1526 945.762 1529.17 Q949.142 1532.34 949.142 1537.76 Q949.142 1543.34 945.67 1546.44 Q942.197 1549.52 935.878 1549.52 Q933.702 1549.52 931.433 1549.15 Q929.188 1548.78 926.781 1548.04 L926.781 1543.34 Q928.864 1544.47 931.086 1545.03 Q933.308 1545.58 935.785 1545.58 Q939.79 1545.58 942.128 1543.48 Q944.466 1541.37 944.466 1537.76 Q944.466 1534.15 942.128 1532.04 Q939.79 1529.94 935.785 1529.94 Q933.91 1529.94 932.035 1530.35 Q930.184 1530.77 928.239 1531.65 L928.239 1514.29 Z" fill="#000000" fill-rule="nonzero" fill-opacity="1" /><path clip-path="url(#clip890)" d="M1233.46 1517.37 Q1229.85 1517.37 1228.02 1520.93 Q1226.21 1524.47 1226.21 1531.6 Q1226.21 1538.71 1228.02 1542.27 Q1229.85 1545.82 1233.46 1545.82 Q1237.09 1545.82 1238.9 1542.27 Q1240.73 1538.71 1240.73 1531.6 Q1240.73 1524.47 1238.9 1520.93 Q1237.09 1517.37 1233.46 1517.37 M1233.46 1513.66 Q1239.27 1513.66 1242.32 1518.27 Q1245.4 1522.85 1245.4 1531.6 Q1245.4 1540.33 1242.32 1544.94 Q1239.27 1549.52 1233.46 1549.52 Q1227.65 1549.52 1224.57 1544.94 Q1221.51 1540.33 1221.51 1531.6 Q1221.51 1522.85 1224.57 1518.27 Q1227.65 1513.66 1233.46 1513.66 Z" fill="#000000" fill-rule="nonzero" fill-opacity="1" /><path clip-path="url(#clip890)" d="M1253.62 1542.97 L1258.51 1542.97 L1258.51 1548.85 L1253.62 1548.85 L1253.62 1542.97 Z" fill="#000000" fill-rule="nonzero" fill-opacity="1" /><path clip-path="url(#clip890)" d="M1278.69 1517.37 Q1275.08 1517.37 1273.25 1520.93 Q1271.45 1524.47 1271.45 1531.6 Q1271.45 1538.71 1273.25 1542.27 Q1275.08 1545.82 1278.69 1545.82 Q1282.32 1545.82 1284.13 1542.27 Q1285.96 1538.71 1285.96 1531.6 Q1285.96 1524.47 1284.13 1520.93 Q1282.32 1517.37 1278.69 1517.37 M1278.69 1513.66 Q1284.5 1513.66 1287.56 1518.27 Q1290.63 1522.85 1290.63 1531.6 Q1290.63 1540.33 1287.56 1544.94 Q1284.5 1549.52 1278.69 1549.52 Q1272.88 1549.52 1269.8 1544.94 Q1266.75 1540.33 1266.75 1531.6 Q1266.75 1522.85 1269.8 1518.27 Q1272.88 1513.66 1278.69 1513.66 Z" fill="#000000" fill-rule="nonzero" fill-opacity="1" /><path clip-path="url(#clip890)" d="M1593.86 1517.37 Q1590.25 1517.37 1588.42 1520.93 Q1586.62 1524.47 1586.62 1531.6 Q1586.62 1538.71 1588.42 1542.27 Q1590.25 1545.82 1593.86 1545.82 Q1597.5 1545.82 1599.3 1542.27 Q1601.13 1538.71 1601.13 1531.6 Q1601.13 1524.47 1599.3 1520.93 Q1597.5 1517.37 1593.86 1517.37 M1593.86 1513.66 Q1599.67 1513.66 1602.73 1518.27 Q1605.81 1522.85 1605.81 1531.6 Q1605.81 1540.33 1602.73 1544.94 Q1599.67 1549.52 1593.86 1549.52 Q1588.05 1549.52 1584.98 1544.94 Q1581.92 1540.33 1581.92 1531.6 Q1581.92 1522.85 1584.98 1518.27 Q1588.05 1513.66 1593.86 1513.66 Z" fill="#000000" fill-rule="nonzero" fill-opacity="1" /><path clip-path="url(#clip890)" d="M1614.03 1542.97 L1618.91 1542.97 L1618.91 1548.85 L1614.03 1548.85 L1614.03 1542.97 Z" fill="#000000" fill-rule="nonzero" fill-opacity="1" /><path clip-path="url(#clip890)" d="M1629.14 1514.29 L1647.5 1514.29 L1647.5 1518.22 L1633.42 1518.22 L1633.42 1526.7 Q1634.44 1526.35 1635.46 1526.19 Q1636.48 1526 1637.5 1526 Q1643.29 1526 1646.66 1529.17 Q1650.04 1532.34 1650.04 1537.76 Q1650.04 1543.34 1646.57 1546.44 Q1643.1 1549.52 1636.78 1549.52 Q1634.6 1549.52 1632.34 1549.15 Q1630.09 1548.78 1627.68 1548.04 L1627.68 1543.34 Q1629.77 1544.47 1631.99 1545.03 Q1634.21 1545.58 1636.69 1545.58 Q1640.69 1545.58 1643.03 1543.48 Q1645.37 1541.37 1645.37 1537.76 Q1645.37 1534.15 1643.03 1532.04 Q1640.69 1529.94 1636.69 1529.94 Q1634.81 1529.94 1632.94 1530.35 Q1631.09 1530.77 1629.14 1531.65 L1629.14 1514.29 Z" fill="#000000" fill-rule="nonzero" fill-opacity="1" /><path clip-path="url(#clip890)" d="M1943.04 1544.91 L1950.68 1544.91 L1950.68 1518.55 L1942.37 1520.21 L1942.37 1515.95 L1950.63 1514.29 L1955.31 1514.29 L1955.31 1544.91 L1962.95 1544.91 L1962.95 1548.85 L1943.04 1548.85 L1943.04 1544.91 Z" fill="#000000" fill-rule="nonzero" fill-opacity="1" /><path clip-path="url(#clip890)" d="M1972.39 1542.97 L1977.28 1542.97 L1977.28 1548.85 L1972.39 1548.85 L1972.39 1542.97 Z" fill="#000000" fill-rule="nonzero" fill-opacity="1" /><path clip-path="url(#clip890)" d="M1997.46 1517.37 Q1993.85 1517.37 1992.02 1520.93 Q1990.22 1524.47 1990.22 1531.6 Q1990.22 1538.71 1992.02 1542.27 Q1993.85 1545.82 1997.46 1545.82 Q2001.1 1545.82 2002.9 1542.27 Q2004.73 1538.71 2004.73 1531.6 Q2004.73 1524.47 2002.9 1520.93 Q2001.1 1517.37 1997.46 1517.37 M1997.46 1513.66 Q2003.27 1513.66 2006.33 1518.27 Q2009.41 1522.85 2009.41 1531.6 Q2009.41 1540.33 2006.33 1544.94 Q2003.27 1549.52 1997.46 1549.52 Q1991.65 1549.52 1988.57 1544.94 Q1985.52 1540.33 1985.52 1531.6 Q1985.52 1522.85 1988.57 1518.27 Q1991.65 1513.66 1997.46 1513.66 Z" fill="#000000" fill-rule="nonzero" fill-opacity="1" /><path clip-path="url(#clip890)" d="M2303.45 1544.91 L2311.09 1544.91 L2311.09 1518.55 L2302.78 1520.21 L2302.78 1515.95 L2311.04 1514.29 L2315.72 1514.29 L2315.72 1544.91 L2323.35 1544.91 L2323.35 1548.85 L2303.45 1548.85 L2303.45 1544.91 Z" fill="#000000" fill-rule="nonzero" fill-opacity="1" /><path clip-path="url(#clip890)" d="M2332.8 1542.97 L2337.68 1542.97 L2337.68 1548.85 L2332.8 1548.85 L2332.8 1542.97 Z" fill="#000000" fill-rule="nonzero" fill-opacity="1" /><path clip-path="url(#clip890)" d="M2347.91 1514.29 L2366.27 1514.29 L2366.27 1518.22 L2352.2 1518.22 L2352.2 1526.7 Q2353.22 1526.35 2354.23 1526.19 Q2355.25 1526 2356.27 1526 Q2362.06 1526 2365.44 1529.17 Q2368.82 1532.34 2368.82 1537.76 Q2368.82 1543.34 2365.34 1546.44 Q2361.87 1549.52 2355.55 1549.52 Q2353.38 1549.52 2351.11 1549.15 Q2348.86 1548.78 2346.46 1548.04 L2346.46 1543.34 Q2348.54 1544.47 2350.76 1545.03 Q2352.98 1545.58 2355.46 1545.58 Q2359.47 1545.58 2361.8 1543.48 Q2364.14 1541.37 2364.14 1537.76 Q2364.14 1534.15 2361.8 1532.04 Q2359.47 1529.94 2355.46 1529.94 Q2353.59 1529.94 2351.71 1530.35 Q2349.86 1530.77 2347.91 1531.65 L2347.91 1514.29 Z" fill="#000000" fill-rule="nonzero" fill-opacity="1" /><polyline clip-path="url(#clip890)" style="stroke:#000000; stroke-linecap:round; stroke-linejoin:round; stroke-width:4; stroke-opacity:1; fill:none" points="147.478,1486.45 147.478,47.2441 "/>
<polyline clip-path="url(#clip890)" style="stroke:#000000; stroke-linecap:round; stroke-linejoin:round; stroke-width:4; stroke-opacity:1; fill:none" points="147.478,1441.96 166.376,1441.96 "/>
<polyline clip-path="url(#clip890)" style="stroke:#000000; stroke-linecap:round; stroke-linejoin:round; stroke-width:4; stroke-opacity:1; fill:none" points="147.478,1113 166.376,1113 "/>
<polyline clip-path="url(#clip890)" style="stroke:#000000; stroke-linecap:round; stroke-linejoin:round; stroke-width:4; stroke-opacity:1; fill:none" points="147.478,784.045 166.376,784.045 "/>
<polyline clip-path="url(#clip890)" style="stroke:#000000; stroke-linecap:round; stroke-linejoin:round; stroke-width:4; stroke-opacity:1; fill:none" points="147.478,455.088 166.376,455.088 "/>
<polyline clip-path="url(#clip890)" style="stroke:#000000; stroke-linecap:round; stroke-linejoin:round; stroke-width:4; stroke-opacity:1; fill:none" points="147.478,126.132 166.376,126.132 "/>
<path clip-path="url(#clip890)" d="M51.3625 1442.41 L81.0383 1442.41 L81.0383 1446.35 L51.3625 1446.35 L51.3625 1442.41 Z" fill="#000000" fill-rule="nonzero" fill-opacity="1" /><path clip-path="url(#clip890)" d="M95.1586 1455.3 L111.478 1455.3 L111.478 1459.24 L89.5336 1459.24 L89.5336 1455.3 Q92.1956 1452.55 96.7789 1447.92 Q101.385 1443.27 102.566 1441.92 Q104.811 1439.4 105.691 1437.66 Q106.594 1435.91 106.594 1434.22 Q106.594 1431.46 104.649 1429.73 Q102.728 1427.99 99.6261 1427.99 Q97.4271 1427.99 94.9734 1428.75 Q92.5428 1429.52 89.7651 1431.07 L89.7651 1426.35 Q92.5891 1425.21 95.0428 1424.63 Q97.4965 1424.05 99.5335 1424.05 Q104.904 1424.05 108.098 1426.74 Q111.293 1429.42 111.293 1433.91 Q111.293 1436.04 110.483 1437.97 Q109.696 1439.86 107.589 1442.46 Q107.01 1443.13 103.909 1446.35 Q100.807 1449.54 95.1586 1455.3 Z" fill="#000000" fill-rule="nonzero" fill-opacity="1" /><path clip-path="url(#clip890)" d="M50.9921 1113.45 L80.6679 1113.45 L80.6679 1117.39 L50.9921 1117.39 L50.9921 1113.45 Z" fill="#000000" fill-rule="nonzero" fill-opacity="1" /><path clip-path="url(#clip890)" d="M91.5706 1126.35 L99.2095 1126.35 L99.2095 1099.98 L90.8993 1101.65 L90.8993 1097.39 L99.1632 1095.72 L103.839 1095.72 L103.839 1126.35 L111.478 1126.35 L111.478 1130.28 L91.5706 1130.28 L91.5706 1126.35 Z" fill="#000000" fill-rule="nonzero" fill-opacity="1" /><path clip-path="url(#clip890)" d="M99.5335 769.844 Q95.9224 769.844 94.0937 773.409 Q92.2882 776.95 92.2882 784.08 Q92.2882 791.186 94.0937 794.751 Q95.9224 798.293 99.5335 798.293 Q103.168 798.293 104.973 794.751 Q106.802 791.186 106.802 784.08 Q106.802 776.95 104.973 773.409 Q103.168 769.844 99.5335 769.844 M99.5335 766.14 Q105.344 766.14 108.399 770.747 Q111.478 775.33 111.478 784.08 Q111.478 792.807 108.399 797.413 Q105.344 801.997 99.5335 801.997 Q93.7234 801.997 90.6447 797.413 Q87.5892 792.807 87.5892 784.08 Q87.5892 775.33 90.6447 770.747 Q93.7234 766.14 99.5335 766.14 Z" fill="#000000" fill-rule="nonzero" fill-opacity="1" /><path clip-path="url(#clip890)" d="M91.5706 468.433 L99.2095 468.433 L99.2095 442.068 L90.8993 443.734 L90.8993 439.475 L99.1632 437.808 L103.839 437.808 L103.839 468.433 L111.478 468.433 L111.478 472.368 L91.5706 472.368 L91.5706 468.433 Z" fill="#000000" fill-rule="nonzero" fill-opacity="1" /><path clip-path="url(#clip890)" d="M95.1586 139.477 L111.478 139.477 L111.478 143.412 L89.5336 143.412 L89.5336 139.477 Q92.1956 136.722 96.7789 132.092 Q101.385 127.44 102.566 126.097 Q104.811 123.574 105.691 121.838 Q106.594 120.078 106.594 118.389 Q106.594 115.634 104.649 113.898 Q102.728 112.162 99.6261 112.162 Q97.4271 112.162 94.9734 112.926 Q92.5428 113.69 89.7651 115.241 L89.7651 110.518 Q92.5891 109.384 95.0428 108.805 Q97.4965 108.227 99.5335 108.227 Q104.904 108.227 108.098 110.912 Q111.293 113.597 111.293 118.088 Q111.293 120.217 110.483 122.139 Q109.696 124.037 107.589 126.629 Q107.01 127.301 103.909 130.518 Q100.807 133.713 95.1586 139.477 Z" fill="#000000" fill-rule="nonzero" fill-opacity="1" /><circle clip-path="url(#clip892)" cx="1560.34" cy="800.435" r="14.4" fill="#009af9" fill-rule="evenodd" fill-opacity="0.5" stroke="#000000" stroke-opacity="0.5" stroke-width="3.2"/>
<circle clip-path="url(#clip892)" cx="1755.77" cy="1078.59" r="14.4" fill="#009af9" fill-rule="evenodd" fill-opacity="0.5" stroke="#000000" stroke-opacity="0.5" stroke-width="3.2"/>
<circle clip-path="url(#clip892)" cx="2121.12" cy="1187.36" r="14.4" fill="#009af9" fill-rule="evenodd" fill-opacity="0.5" stroke="#000000" stroke-opacity="0.5" stroke-width="3.2"/>
<circle clip-path="url(#clip892)" cx="1220.11" cy="452.617" r="14.4" fill="#009af9" fill-rule="evenodd" fill-opacity="0.5" stroke="#000000" stroke-opacity="0.5" stroke-width="3.2"/>
<circle clip-path="url(#clip892)" cx="955.458" cy="1073.31" r="14.4" fill="#009af9" fill-rule="evenodd" fill-opacity="0.5" stroke="#000000" stroke-opacity="0.5" stroke-width="3.2"/>
<circle clip-path="url(#clip892)" cx="1734.28" cy="570.806" r="14.4" fill="#009af9" fill-rule="evenodd" fill-opacity="0.5" stroke="#000000" stroke-opacity="0.5" stroke-width="3.2"/>
<circle clip-path="url(#clip892)" cx="1517.67" cy="1152.86" r="14.4" fill="#009af9" fill-rule="evenodd" fill-opacity="0.5" stroke="#000000" stroke-opacity="0.5" stroke-width="3.2"/>
<circle clip-path="url(#clip892)" cx="2202.51" cy="1001.95" r="14.4" fill="#009af9" fill-rule="evenodd" fill-opacity="0.5" stroke="#000000" stroke-opacity="0.5" stroke-width="3.2"/>
<circle clip-path="url(#clip892)" cx="1517.39" cy="149.899" r="14.4" fill="#009af9" fill-rule="evenodd" fill-opacity="0.5" stroke="#000000" stroke-opacity="0.5" stroke-width="3.2"/>
<circle clip-path="url(#clip892)" cx="949.113" cy="87.9763" r="14.4" fill="#009af9" fill-rule="evenodd" fill-opacity="0.5" stroke="#000000" stroke-opacity="0.5" stroke-width="3.2"/>
<circle clip-path="url(#clip892)" cx="1618.56" cy="832.448" r="14.4" fill="#009af9" fill-rule="evenodd" fill-opacity="0.5" stroke="#000000" stroke-opacity="0.5" stroke-width="3.2"/>
<circle clip-path="url(#clip892)" cx="1666.68" cy="1144.62" r="14.4" fill="#009af9" fill-rule="evenodd" fill-opacity="0.5" stroke="#000000" stroke-opacity="0.5" stroke-width="3.2"/>
<circle clip-path="url(#clip892)" cx="1312.97" cy="430.844" r="14.4" fill="#009af9" fill-rule="evenodd" fill-opacity="0.5" stroke="#000000" stroke-opacity="0.5" stroke-width="3.2"/>
<circle clip-path="url(#clip892)" cx="1583.9" cy="706.366" r="14.4" fill="#009af9" fill-rule="evenodd" fill-opacity="0.5" stroke="#000000" stroke-opacity="0.5" stroke-width="3.2"/>
<circle clip-path="url(#clip892)" cx="552.172" cy="435.877" r="14.4" fill="#009af9" fill-rule="evenodd" fill-opacity="0.5" stroke="#000000" stroke-opacity="0.5" stroke-width="3.2"/>
<circle clip-path="url(#clip892)" cx="1196.19" cy="536.414" r="14.4" fill="#009af9" fill-rule="evenodd" fill-opacity="0.5" stroke="#000000" stroke-opacity="0.5" stroke-width="3.2"/>
<circle clip-path="url(#clip892)" cx="641.739" cy="846.59" r="14.4" fill="#009af9" fill-rule="evenodd" fill-opacity="0.5" stroke="#000000" stroke-opacity="0.5" stroke-width="3.2"/>
<circle clip-path="url(#clip892)" cx="1501.49" cy="579.229" r="14.4" fill="#009af9" fill-rule="evenodd" fill-opacity="0.5" stroke="#000000" stroke-opacity="0.5" stroke-width="3.2"/>
<circle clip-path="url(#clip892)" cx="1630.88" cy="1247.18" r="14.4" fill="#009af9" fill-rule="evenodd" fill-opacity="0.5" stroke="#000000" stroke-opacity="0.5" stroke-width="3.2"/>
<circle clip-path="url(#clip892)" cx="1375.65" cy="135.35" r="14.4" fill="#009af9" fill-rule="evenodd" fill-opacity="0.5" stroke="#000000" stroke-opacity="0.5" stroke-width="3.2"/>
<circle clip-path="url(#clip892)" cx="1123.43" cy="634.962" r="14.4" fill="#009af9" fill-rule="evenodd" fill-opacity="0.5" stroke="#000000" stroke-opacity="0.5" stroke-width="3.2"/>
<circle clip-path="url(#clip892)" cx="622.146" cy="532.347" r="14.4" fill="#009af9" fill-rule="evenodd" fill-opacity="0.5" stroke="#000000" stroke-opacity="0.5" stroke-width="3.2"/>
<circle clip-path="url(#clip892)" cx="1723.26" cy="789.624" r="14.4" fill="#009af9" fill-rule="evenodd" fill-opacity="0.5" stroke="#000000" stroke-opacity="0.5" stroke-width="3.2"/>
<circle clip-path="url(#clip892)" cx="2290.34" cy="1445.72" r="14.4" fill="#009af9" fill-rule="evenodd" fill-opacity="0.5" stroke="#000000" stroke-opacity="0.5" stroke-width="3.2"/>
<circle clip-path="url(#clip892)" cx="252.08" cy="251.088" r="14.4" fill="#009af9" fill-rule="evenodd" fill-opacity="0.5" stroke="#000000" stroke-opacity="0.5" stroke-width="3.2"/>
<circle clip-path="url(#clip892)" cx="450.948" cy="1070.32" r="14.4" fill="#009af9" fill-rule="evenodd" fill-opacity="0.5" stroke="#000000" stroke-opacity="0.5" stroke-width="3.2"/>
<circle clip-path="url(#clip892)" cx="1093.95" cy="1428.49" r="14.4" fill="#009af9" fill-rule="evenodd" fill-opacity="0.5" stroke="#000000" stroke-opacity="0.5" stroke-width="3.2"/>
<circle clip-path="url(#clip892)" cx="920.628" cy="286.624" r="14.4" fill="#009af9" fill-rule="evenodd" fill-opacity="0.5" stroke="#000000" stroke-opacity="0.5" stroke-width="3.2"/>
<circle clip-path="url(#clip892)" cx="1833.98" cy="831.088" r="14.4" fill="#009af9" fill-rule="evenodd" fill-opacity="0.5" stroke="#000000" stroke-opacity="0.5" stroke-width="3.2"/>
<circle clip-path="url(#clip892)" cx="209.891" cy="223.222" r="14.4" fill="#009af9" fill-rule="evenodd" fill-opacity="0.5" stroke="#000000" stroke-opacity="0.5" stroke-width="3.2"/>
<path clip-path="url(#clip892)" d="M209.891 223.222 L450.948 1070.32 L1093.95 1428.49 L2290.34 1445.72 L2202.51 1001.95 L1517.39 149.899 L949.113 87.9763 L209.891 223.222 L209.891 223.222  Z" fill="#e26f46" fill-rule="evenodd" fill-opacity="0.2"/>
<polyline clip-path="url(#clip892)" style="stroke:#000000; stroke-linecap:round; stroke-linejoin:round; stroke-width:4; stroke-opacity:0.2; fill:none" points="209.891,223.222 450.948,1070.32 1093.95,1428.49 2290.34,1445.72 2202.51,1001.95 1517.39,149.899 949.113,87.9763 209.891,223.222 "/>
</svg>
