<?xml version="1.0" encoding="utf-8"?>
<svg xmlns="http://www.w3.org/2000/svg" xmlns:xlink="http://www.w3.org/1999/xlink" width="600" height="400" viewBox="0 0 2400 1600">
<defs>
  <clipPath id="clip350">
    <rect x="0" y="0" width="2400" height="1600"/>
  </clipPath>
</defs>
<path clip-path="url(#clip350)" d="M0 1600 L2400 1600 L2400 0 L0 0  Z" fill="#ffffff" fill-rule="evenodd" fill-opacity="1"/>
<defs>
  <clipPath id="clip351">
    <rect x="480" y="0" width="1681" height="1600"/>
  </clipPath>
</defs>
<path clip-path="url(#clip350)" d="M193.936 1486.45 L2352.76 1486.45 L2352.76 47.2441 L193.936 47.2441  Z" fill="#ffffff" fill-rule="evenodd" fill-opacity="1"/>
<defs>
  <clipPath id="clip352">
    <rect x="193" y="47" width="2160" height="1440"/>
  </clipPath>
</defs>
<polyline clip-path="url(#clip352)" style="stroke:#000000; stroke-linecap:round; stroke-linejoin:round; stroke-width:2; stroke-opacity:0.1; fill:none" points="477.008,1486.45 477.008,47.2441 "/>
<polyline clip-path="url(#clip352)" style="stroke:#000000; stroke-linecap:round; stroke-linejoin:round; stroke-width:2; stroke-opacity:0.1; fill:none" points="836.057,1486.45 836.057,47.2441 "/>
<polyline clip-path="url(#clip352)" style="stroke:#000000; stroke-linecap:round; stroke-linejoin:round; stroke-width:2; stroke-opacity:0.1; fill:none" points="1195.11,1486.45 1195.11,47.2441 "/>
<polyline clip-path="url(#clip352)" style="stroke:#000000; stroke-linecap:round; stroke-linejoin:round; stroke-width:2; stroke-opacity:0.1; fill:none" points="1554.15,1486.45 1554.15,47.2441 "/>
<polyline clip-path="url(#clip352)" style="stroke:#000000; stroke-linecap:round; stroke-linejoin:round; stroke-width:2; stroke-opacity:0.1; fill:none" points="1913.2,1486.45 1913.2,47.2441 "/>
<polyline clip-path="url(#clip352)" style="stroke:#000000; stroke-linecap:round; stroke-linejoin:round; stroke-width:2; stroke-opacity:0.1; fill:none" points="2272.25,1486.45 2272.25,47.2441 "/>
<polyline clip-path="url(#clip352)" style="stroke:#000000; stroke-linecap:round; stroke-linejoin:round; stroke-width:2; stroke-opacity:0.1; fill:none" points="193.936,1362.45 2352.76,1362.45 "/>
<polyline clip-path="url(#clip352)" style="stroke:#000000; stroke-linecap:round; stroke-linejoin:round; stroke-width:2; stroke-opacity:0.1; fill:none" points="193.936,1113.6 2352.76,1113.6 "/>
<polyline clip-path="url(#clip352)" style="stroke:#000000; stroke-linecap:round; stroke-linejoin:round; stroke-width:2; stroke-opacity:0.1; fill:none" points="193.936,864.755 2352.76,864.755 "/>
<polyline clip-path="url(#clip352)" style="stroke:#000000; stroke-linecap:round; stroke-linejoin:round; stroke-width:2; stroke-opacity:0.1; fill:none" points="193.936,615.907 2352.76,615.907 "/>
<polyline clip-path="url(#clip352)" style="stroke:#000000; stroke-linecap:round; stroke-linejoin:round; stroke-width:2; stroke-opacity:0.1; fill:none" points="193.936,367.059 2352.76,367.059 "/>
<polyline clip-path="url(#clip352)" style="stroke:#000000; stroke-linecap:round; stroke-linejoin:round; stroke-width:2; stroke-opacity:0.1; fill:none" points="193.936,118.211 2352.76,118.211 "/>
<polyline clip-path="url(#clip350)" style="stroke:#000000; stroke-linecap:round; stroke-linejoin:round; stroke-width:4; stroke-opacity:1; fill:none" points="193.936,1486.45 2352.76,1486.45 "/>
<polyline clip-path="url(#clip350)" style="stroke:#000000; stroke-linecap:round; stroke-linejoin:round; stroke-width:4; stroke-opacity:1; fill:none" points="477.008,1486.45 477.008,1467.55 "/>
<polyline clip-path="url(#clip350)" style="stroke:#000000; stroke-linecap:round; stroke-linejoin:round; stroke-width:4; stroke-opacity:1; fill:none" points="836.057,1486.45 836.057,1467.55 "/>
<polyline clip-path="url(#clip350)" style="stroke:#000000; stroke-linecap:round; stroke-linejoin:round; stroke-width:4; stroke-opacity:1; fill:none" points="1195.11,1486.45 1195.11,1467.55 "/>
<polyline clip-path="url(#clip350)" style="stroke:#000000; stroke-linecap:round; stroke-linejoin:round; stroke-width:4; stroke-opacity:1; fill:none" points="1554.15,1486.45 1554.15,1467.55 "/>
<polyline clip-path="url(#clip350)" style="stroke:#000000; stroke-linecap:round; stroke-linejoin:round; stroke-width:4; stroke-opacity:1; fill:none" points="1913.2,1486.45 1913.2,1467.55 "/>
<polyline clip-path="url(#clip350)" style="stroke:#000000; stroke-linecap:round; stroke-linejoin:round; stroke-width:4; stroke-opacity:1; fill:none" points="2272.25,1486.45 2272.25,1467.55 "/>
<path clip-path="url(#clip350)" d="M423.536 1532.02 L453.212 1532.02 L453.212 1535.95 L423.536 1535.95 L423.536 1532.02 Z" fill="#000000" fill-rule="nonzero" fill-opacity="1" /><path clip-path="url(#clip350)" d="M464.115 1544.91 L471.754 1544.91 L471.754 1518.55 L463.444 1520.21 L463.444 1515.95 L471.708 1514.29 L476.383 1514.29 L476.383 1544.91 L484.022 1544.91 L484.022 1548.85 L464.115 1548.85 L464.115 1544.91 Z" fill="#000000" fill-rule="nonzero" fill-opacity="1" /><path clip-path="url(#clip350)" d="M493.467 1542.97 L498.351 1542.97 L498.351 1548.85 L493.467 1548.85 L493.467 1542.97 Z" fill="#000000" fill-rule="nonzero" fill-opacity="1" /><path clip-path="url(#clip350)" d="M518.536 1517.37 Q514.925 1517.37 513.096 1520.93 Q511.291 1524.47 511.291 1531.6 Q511.291 1538.71 513.096 1542.27 Q514.925 1545.82 518.536 1545.82 Q522.17 1545.82 523.976 1542.27 Q525.804 1538.71 525.804 1531.6 Q525.804 1524.47 523.976 1520.93 Q522.17 1517.37 518.536 1517.37 M518.536 1513.66 Q524.346 1513.66 527.402 1518.27 Q530.48 1522.85 530.48 1531.6 Q530.48 1540.33 527.402 1544.94 Q524.346 1549.52 518.536 1549.52 Q512.726 1549.52 509.647 1544.94 Q506.592 1540.33 506.592 1531.6 Q506.592 1522.85 509.647 1518.27 Q512.726 1513.66 518.536 1513.66 Z" fill="#000000" fill-rule="nonzero" fill-opacity="1" /><path clip-path="url(#clip350)" d="M783.083 1532.02 L812.758 1532.02 L812.758 1535.95 L783.083 1535.95 L783.083 1532.02 Z" fill="#000000" fill-rule="nonzero" fill-opacity="1" /><path clip-path="url(#clip350)" d="M832.851 1517.37 Q829.24 1517.37 827.411 1520.93 Q825.605 1524.47 825.605 1531.6 Q825.605 1538.71 827.411 1542.27 Q829.24 1545.82 832.851 1545.82 Q836.485 1545.82 838.291 1542.27 Q840.119 1538.71 840.119 1531.6 Q840.119 1524.47 838.291 1520.93 Q836.485 1517.37 832.851 1517.37 M832.851 1513.66 Q838.661 1513.66 841.716 1518.27 Q844.795 1522.85 844.795 1531.6 Q844.795 1540.33 841.716 1544.94 Q838.661 1549.52 832.851 1549.52 Q827.041 1549.52 823.962 1544.94 Q820.906 1540.33 820.906 1531.6 Q820.906 1522.85 823.962 1518.27 Q827.041 1513.66 832.851 1513.66 Z" fill="#000000" fill-rule="nonzero" fill-opacity="1" /><path clip-path="url(#clip350)" d="M853.013 1542.97 L857.897 1542.97 L857.897 1548.85 L853.013 1548.85 L853.013 1542.97 Z" fill="#000000" fill-rule="nonzero" fill-opacity="1" /><path clip-path="url(#clip350)" d="M868.128 1514.29 L886.485 1514.29 L886.485 1518.22 L872.411 1518.22 L872.411 1526.7 Q873.429 1526.35 874.448 1526.19 Q875.466 1526 876.485 1526 Q882.272 1526 885.651 1529.17 Q889.031 1532.34 889.031 1537.76 Q889.031 1543.34 885.559 1546.44 Q882.087 1549.52 875.767 1549.52 Q873.591 1549.52 871.323 1549.15 Q869.077 1548.78 866.67 1548.04 L866.67 1543.34 Q868.753 1544.47 870.976 1545.03 Q873.198 1545.58 875.675 1545.58 Q879.679 1545.58 882.017 1543.48 Q884.355 1541.37 884.355 1537.76 Q884.355 1534.15 882.017 1532.04 Q879.679 1529.94 875.675 1529.94 Q873.8 1529.94 871.925 1530.35 Q870.073 1530.77 868.128 1531.65 L868.128 1514.29 Z" fill="#000000" fill-rule="nonzero" fill-opacity="1" /><path clip-path="url(#clip350)" d="M1172.49 1517.37 Q1168.88 1517.37 1167.05 1520.93 Q1165.24 1524.47 1165.24 1531.6 Q1165.24 1538.71 1167.05 1542.27 Q1168.88 1545.82 1172.49 1545.82 Q1176.12 1545.82 1177.93 1542.27 Q1179.76 1538.71 1179.76 1531.6 Q1179.76 1524.47 1177.93 1520.93 Q1176.12 1517.37 1172.49 1517.37 M1172.49 1513.66 Q1178.3 1513.66 1181.36 1518.27 Q1184.43 1522.85 1184.43 1531.6 Q1184.43 1540.33 1181.36 1544.94 Q1178.3 1549.52 1172.49 1549.52 Q1166.68 1549.52 1163.6 1544.94 Q1160.55 1540.33 1160.55 1531.6 Q1160.55 1522.85 1163.6 1518.27 Q1166.68 1513.66 1172.49 1513.66 Z" fill="#000000" fill-rule="nonzero" fill-opacity="1" /><path clip-path="url(#clip350)" d="M1192.65 1542.97 L1197.54 1542.97 L1197.54 1548.85 L1192.65 1548.85 L1192.65 1542.97 Z" fill="#000000" fill-rule="nonzero" fill-opacity="1" /><path clip-path="url(#clip350)" d="M1217.72 1517.37 Q1214.11 1517.37 1212.28 1520.93 Q1210.48 1524.47 1210.48 1531.6 Q1210.48 1538.71 1212.28 1542.27 Q1214.11 1545.82 1217.72 1545.82 Q1221.35 1545.82 1223.16 1542.27 Q1224.99 1538.71 1224.99 1531.6 Q1224.99 1524.47 1223.16 1520.93 Q1221.35 1517.37 1217.72 1517.37 M1217.72 1513.66 Q1223.53 1513.66 1226.59 1518.27 Q1229.67 1522.85 1229.67 1531.6 Q1229.67 1540.33 1226.59 1544.94 Q1223.53 1549.52 1217.72 1549.52 Q1211.91 1549.52 1208.83 1544.94 Q1205.78 1540.33 1205.78 1531.6 Q1205.78 1522.85 1208.83 1518.27 Q1211.91 1513.66 1217.72 1513.66 Z" fill="#000000" fill-rule="nonzero" fill-opacity="1" /><path clip-path="url(#clip350)" d="M1532.04 1517.37 Q1528.42 1517.37 1526.6 1520.93 Q1524.79 1524.47 1524.79 1531.6 Q1524.79 1538.71 1526.6 1542.27 Q1528.42 1545.82 1532.04 1545.82 Q1535.67 1545.82 1537.48 1542.27 Q1539.3 1538.71 1539.3 1531.6 Q1539.3 1524.47 1537.48 1520.93 Q1535.67 1517.37 1532.04 1517.37 M1532.04 1513.66 Q1537.85 1513.66 1540.9 1518.27 Q1543.98 1522.85 1543.98 1531.6 Q1543.98 1540.33 1540.9 1544.94 Q1537.85 1549.52 1532.04 1549.52 Q1526.23 1549.52 1523.15 1544.94 Q1520.09 1540.33 1520.09 1531.6 Q1520.09 1522.85 1523.15 1518.27 Q1526.23 1513.66 1532.04 1513.66 Z" fill="#000000" fill-rule="nonzero" fill-opacity="1" /><path clip-path="url(#clip350)" d="M1552.2 1542.97 L1557.08 1542.97 L1557.08 1548.85 L1552.2 1548.85 L1552.2 1542.97 Z" fill="#000000" fill-rule="nonzero" fill-opacity="1" /><path clip-path="url(#clip350)" d="M1567.31 1514.29 L1585.67 1514.29 L1585.67 1518.22 L1571.6 1518.22 L1571.6 1526.7 Q1572.61 1526.35 1573.63 1526.19 Q1574.65 1526 1575.67 1526 Q1581.46 1526 1584.84 1529.17 Q1588.22 1532.34 1588.22 1537.76 Q1588.22 1543.34 1584.74 1546.44 Q1581.27 1549.52 1574.95 1549.52 Q1572.78 1549.52 1570.51 1549.15 Q1568.26 1548.78 1565.85 1548.04 L1565.85 1543.34 Q1567.94 1544.47 1570.16 1545.03 Q1572.38 1545.58 1574.86 1545.58 Q1578.86 1545.58 1581.2 1543.48 Q1583.54 1541.37 1583.54 1537.76 Q1583.54 1534.15 1581.2 1532.04 Q1578.86 1529.94 1574.86 1529.94 Q1572.98 1529.94 1571.11 1530.35 Q1569.26 1530.77 1567.31 1531.65 L1567.31 1514.29 Z" fill="#000000" fill-rule="nonzero" fill-opacity="1" /><path clip-path="url(#clip350)" d="M1880.35 1544.91 L1887.99 1544.91 L1887.99 1518.55 L1879.68 1520.21 L1879.68 1515.95 L1887.95 1514.29 L1892.62 1514.29 L1892.62 1544.91 L1900.26 1544.91 L1900.26 1548.85 L1880.35 1548.85 L1880.35 1544.91 Z" fill="#000000" fill-rule="nonzero" fill-opacity="1" /><path clip-path="url(#clip350)" d="M1909.71 1542.97 L1914.59 1542.97 L1914.59 1548.85 L1909.71 1548.85 L1909.71 1542.97 Z" fill="#000000" fill-rule="nonzero" fill-opacity="1" /><path clip-path="url(#clip350)" d="M1934.78 1517.37 Q1931.16 1517.37 1929.34 1520.93 Q1927.53 1524.47 1927.53 1531.6 Q1927.53 1538.71 1929.34 1542.27 Q1931.16 1545.82 1934.78 1545.82 Q1938.41 1545.82 1940.22 1542.27 Q1942.04 1538.71 1942.04 1531.6 Q1942.04 1524.47 1940.22 1520.93 Q1938.41 1517.37 1934.78 1517.37 M1934.78 1513.66 Q1940.59 1513.66 1943.64 1518.27 Q1946.72 1522.85 1946.72 1531.6 Q1946.72 1540.33 1943.64 1544.94 Q1940.59 1549.52 1934.78 1549.52 Q1928.97 1549.52 1925.89 1544.94 Q1922.83 1540.33 1922.83 1531.6 Q1922.83 1522.85 1925.89 1518.27 Q1928.97 1513.66 1934.78 1513.66 Z" fill="#000000" fill-rule="nonzero" fill-opacity="1" /><path clip-path="url(#clip350)" d="M2239.9 1544.91 L2247.54 1544.91 L2247.54 1518.55 L2239.23 1520.21 L2239.23 1515.95 L2247.49 1514.29 L2252.17 1514.29 L2252.17 1544.91 L2259.81 1544.91 L2259.81 1548.85 L2239.9 1548.85 L2239.9 1544.91 Z" fill="#000000" fill-rule="nonzero" fill-opacity="1" /><path clip-path="url(#clip350)" d="M2269.25 1542.97 L2274.14 1542.97 L2274.14 1548.85 L2269.25 1548.85 L2269.25 1542.97 Z" fill="#000000" fill-rule="nonzero" fill-opacity="1" /><path clip-path="url(#clip350)" d="M2284.37 1514.29 L2302.72 1514.29 L2302.72 1518.22 L2288.65 1518.22 L2288.65 1526.7 Q2289.67 1526.35 2290.69 1526.19 Q2291.71 1526 2292.72 1526 Q2298.51 1526 2301.89 1529.17 Q2305.27 1532.34 2305.27 1537.76 Q2305.27 1543.34 2301.8 1546.44 Q2298.33 1549.52 2292.01 1549.52 Q2289.83 1549.52 2287.56 1549.15 Q2285.32 1548.78 2282.91 1548.04 L2282.91 1543.34 Q2284.99 1544.47 2287.22 1545.03 Q2289.44 1545.58 2291.91 1545.58 Q2295.92 1545.58 2298.26 1543.48 Q2300.59 1541.37 2300.59 1537.76 Q2300.59 1534.15 2298.26 1532.04 Q2295.92 1529.94 2291.91 1529.94 Q2290.04 1529.94 2288.16 1530.35 Q2286.31 1530.77 2284.37 1531.65 L2284.37 1514.29 Z" fill="#000000" fill-rule="nonzero" fill-opacity="1" /><polyline clip-path="url(#clip350)" style="stroke:#000000; stroke-linecap:round; stroke-linejoin:round; stroke-width:4; stroke-opacity:1; fill:none" points="193.936,1486.45 193.936,47.2441 "/>
<polyline clip-path="url(#clip350)" style="stroke:#000000; stroke-linecap:round; stroke-linejoin:round; stroke-width:4; stroke-opacity:1; fill:none" points="193.936,1362.45 212.834,1362.45 "/>
<polyline clip-path="url(#clip350)" style="stroke:#000000; stroke-linecap:round; stroke-linejoin:round; stroke-width:4; stroke-opacity:1; fill:none" points="193.936,1113.6 212.834,1113.6 "/>
<polyline clip-path="url(#clip350)" style="stroke:#000000; stroke-linecap:round; stroke-linejoin:round; stroke-width:4; stroke-opacity:1; fill:none" points="193.936,864.755 212.834,864.755 "/>
<polyline clip-path="url(#clip350)" style="stroke:#000000; stroke-linecap:round; stroke-linejoin:round; stroke-width:4; stroke-opacity:1; fill:none" points="193.936,615.907 212.834,615.907 "/>
<polyline clip-path="url(#clip350)" style="stroke:#000000; stroke-linecap:round; stroke-linejoin:round; stroke-width:4; stroke-opacity:1; fill:none" points="193.936,367.059 212.834,367.059 "/>
<polyline clip-path="url(#clip350)" style="stroke:#000000; stroke-linecap:round; stroke-linejoin:round; stroke-width:4; stroke-opacity:1; fill:none" points="193.936,118.211 212.834,118.211 "/>
<path clip-path="url(#clip350)" d="M50.9921 1362.9 L80.6679 1362.9 L80.6679 1366.84 L50.9921 1366.84 L50.9921 1362.9 Z" fill="#000000" fill-rule="nonzero" fill-opacity="1" /><path clip-path="url(#clip350)" d="M91.5706 1375.8 L99.2095 1375.8 L99.2095 1349.43 L90.8993 1351.1 L90.8993 1346.84 L99.1632 1345.17 L103.839 1345.17 L103.839 1375.8 L111.478 1375.8 L111.478 1379.73 L91.5706 1379.73 L91.5706 1375.8 Z" fill="#000000" fill-rule="nonzero" fill-opacity="1" /><path clip-path="url(#clip350)" d="M120.922 1373.85 L125.807 1373.85 L125.807 1379.73 L120.922 1379.73 L120.922 1373.85 Z" fill="#000000" fill-rule="nonzero" fill-opacity="1" /><path clip-path="url(#clip350)" d="M145.992 1348.25 Q142.381 1348.25 140.552 1351.81 Q138.746 1355.36 138.746 1362.49 Q138.746 1369.59 140.552 1373.16 Q142.381 1376.7 145.992 1376.7 Q149.626 1376.7 151.431 1373.16 Q153.26 1369.59 153.26 1362.49 Q153.26 1355.36 151.431 1351.81 Q149.626 1348.25 145.992 1348.25 M145.992 1344.55 Q151.802 1344.55 154.857 1349.15 Q157.936 1353.74 157.936 1362.49 Q157.936 1371.21 154.857 1375.82 Q151.802 1380.4 145.992 1380.4 Q140.181 1380.4 137.103 1375.82 Q134.047 1371.21 134.047 1362.49 Q134.047 1353.74 137.103 1349.15 Q140.181 1344.55 145.992 1344.55 Z" fill="#000000" fill-rule="nonzero" fill-opacity="1" /><path clip-path="url(#clip350)" d="M51.9875 1114.05 L81.6633 1114.05 L81.6633 1117.99 L51.9875 1117.99 L51.9875 1114.05 Z" fill="#000000" fill-rule="nonzero" fill-opacity="1" /><path clip-path="url(#clip350)" d="M101.756 1099.4 Q98.1447 1099.4 96.316 1102.97 Q94.5104 1106.51 94.5104 1113.64 Q94.5104 1120.74 96.316 1124.31 Q98.1447 1127.85 101.756 1127.85 Q105.39 1127.85 107.196 1124.31 Q109.024 1120.74 109.024 1113.64 Q109.024 1106.51 107.196 1102.97 Q105.39 1099.4 101.756 1099.4 M101.756 1095.7 Q107.566 1095.7 110.621 1100.3 Q113.7 1104.89 113.7 1113.64 Q113.7 1122.36 110.621 1126.97 Q107.566 1131.55 101.756 1131.55 Q95.9456 1131.55 92.8669 1126.97 Q89.8114 1122.36 89.8114 1113.64 Q89.8114 1104.89 92.8669 1100.3 Q95.9456 1095.7 101.756 1095.7 Z" fill="#000000" fill-rule="nonzero" fill-opacity="1" /><path clip-path="url(#clip350)" d="M121.918 1125 L126.802 1125 L126.802 1130.88 L121.918 1130.88 L121.918 1125 Z" fill="#000000" fill-rule="nonzero" fill-opacity="1" /><path clip-path="url(#clip350)" d="M137.033 1096.32 L155.39 1096.32 L155.39 1100.26 L141.316 1100.26 L141.316 1108.73 Q142.334 1108.38 143.353 1108.22 Q144.371 1108.04 145.39 1108.04 Q151.177 1108.04 154.556 1111.21 Q157.936 1114.38 157.936 1119.8 Q157.936 1125.37 154.464 1128.48 Q150.992 1131.55 144.672 1131.55 Q142.496 1131.55 140.228 1131.18 Q137.982 1130.81 135.575 1130.07 L135.575 1125.37 Q137.658 1126.51 139.881 1127.06 Q142.103 1127.62 144.58 1127.62 Q148.584 1127.62 150.922 1125.51 Q153.26 1123.41 153.26 1119.8 Q153.26 1116.18 150.922 1114.08 Q148.584 1111.97 144.58 1111.97 Q142.705 1111.97 140.83 1112.39 Q138.978 1112.8 137.033 1113.68 L137.033 1096.32 Z" fill="#000000" fill-rule="nonzero" fill-opacity="1" /><path clip-path="url(#clip350)" d="M100.76 850.554 Q97.1493 850.554 95.3206 854.119 Q93.515 857.66 93.515 864.79 Q93.515 871.896 95.3206 875.461 Q97.1493 879.003 100.76 879.003 Q104.395 879.003 106.2 875.461 Q108.029 871.896 108.029 864.79 Q108.029 857.66 106.2 854.119 Q104.395 850.554 100.76 850.554 M100.76 846.85 Q106.571 846.85 109.626 851.457 Q112.705 856.04 112.705 864.79 Q112.705 873.517 109.626 878.123 Q106.571 882.706 100.76 882.706 Q94.9502 882.706 91.8715 878.123 Q88.816 873.517 88.816 864.79 Q88.816 856.04 91.8715 851.457 Q94.9502 846.85 100.76 846.85 Z" fill="#000000" fill-rule="nonzero" fill-opacity="1" /><path clip-path="url(#clip350)" d="M120.922 876.156 L125.807 876.156 L125.807 882.035 L120.922 882.035 L120.922 876.156 Z" fill="#000000" fill-rule="nonzero" fill-opacity="1" /><path clip-path="url(#clip350)" d="M145.992 850.554 Q142.381 850.554 140.552 854.119 Q138.746 857.66 138.746 864.79 Q138.746 871.896 140.552 875.461 Q142.381 879.003 145.992 879.003 Q149.626 879.003 151.431 875.461 Q153.26 871.896 153.26 864.79 Q153.26 857.66 151.431 854.119 Q149.626 850.554 145.992 850.554 M145.992 846.85 Q151.802 846.85 154.857 851.457 Q157.936 856.04 157.936 864.79 Q157.936 873.517 154.857 878.123 Q151.802 882.706 145.992 882.706 Q140.181 882.706 137.103 878.123 Q134.047 873.517 134.047 864.79 Q134.047 856.04 137.103 851.457 Q140.181 846.85 145.992 846.85 Z" fill="#000000" fill-rule="nonzero" fill-opacity="1" /><path clip-path="url(#clip350)" d="M101.756 601.706 Q98.1447 601.706 96.316 605.271 Q94.5104 608.812 94.5104 615.942 Q94.5104 623.048 96.316 626.613 Q98.1447 630.155 101.756 630.155 Q105.39 630.155 107.196 626.613 Q109.024 623.048 109.024 615.942 Q109.024 608.812 107.196 605.271 Q105.39 601.706 101.756 601.706 M101.756 598.002 Q107.566 598.002 110.621 602.608 Q113.7 607.192 113.7 615.942 Q113.7 624.669 110.621 629.275 Q107.566 633.858 101.756 633.858 Q95.9456 633.858 92.8669 629.275 Q89.8114 624.669 89.8114 615.942 Q89.8114 607.192 92.8669 602.608 Q95.9456 598.002 101.756 598.002 Z" fill="#000000" fill-rule="nonzero" fill-opacity="1" /><path clip-path="url(#clip350)" d="M121.918 627.307 L126.802 627.307 L126.802 633.187 L121.918 633.187 L121.918 627.307 Z" fill="#000000" fill-rule="nonzero" fill-opacity="1" /><path clip-path="url(#clip350)" d="M137.033 598.627 L155.39 598.627 L155.39 602.562 L141.316 602.562 L141.316 611.034 Q142.334 610.687 143.353 610.525 Q144.371 610.34 145.39 610.34 Q151.177 610.34 154.556 613.511 Q157.936 616.682 157.936 622.099 Q157.936 627.678 154.464 630.78 Q150.992 633.858 144.672 633.858 Q142.496 633.858 140.228 633.488 Q137.982 633.118 135.575 632.377 L135.575 627.678 Q137.658 628.812 139.881 629.368 Q142.103 629.923 144.58 629.923 Q148.584 629.923 150.922 627.817 Q153.26 625.71 153.26 622.099 Q153.26 618.488 150.922 616.382 Q148.584 614.275 144.58 614.275 Q142.705 614.275 140.83 614.692 Q138.978 615.108 137.033 615.988 L137.033 598.627 Z" fill="#000000" fill-rule="nonzero" fill-opacity="1" /><path clip-path="url(#clip350)" d="M91.5706 380.404 L99.2095 380.404 L99.2095 354.038 L90.8993 355.705 L90.8993 351.446 L99.1632 349.779 L103.839 349.779 L103.839 380.404 L111.478 380.404 L111.478 384.339 L91.5706 384.339 L91.5706 380.404 Z" fill="#000000" fill-rule="nonzero" fill-opacity="1" /><path clip-path="url(#clip350)" d="M120.922 378.459 L125.807 378.459 L125.807 384.339 L120.922 384.339 L120.922 378.459 Z" fill="#000000" fill-rule="nonzero" fill-opacity="1" /><path clip-path="url(#clip350)" d="M145.992 352.858 Q142.381 352.858 140.552 356.422 Q138.746 359.964 138.746 367.094 Q138.746 374.2 140.552 377.765 Q142.381 381.307 145.992 381.307 Q149.626 381.307 151.431 377.765 Q153.26 374.2 153.26 367.094 Q153.26 359.964 151.431 356.422 Q149.626 352.858 145.992 352.858 M145.992 349.154 Q151.802 349.154 154.857 353.76 Q157.936 358.344 157.936 367.094 Q157.936 375.82 154.857 380.427 Q151.802 385.01 145.992 385.01 Q140.181 385.01 137.103 380.427 Q134.047 375.82 134.047 367.094 Q134.047 358.344 137.103 353.76 Q140.181 349.154 145.992 349.154 Z" fill="#000000" fill-rule="nonzero" fill-opacity="1" /><path clip-path="url(#clip350)" d="M92.566 131.556 L100.205 131.556 L100.205 105.19 L91.8947 106.857 L91.8947 102.598 L100.159 100.931 L104.834 100.931 L104.834 131.556 L112.473 131.556 L112.473 135.491 L92.566 135.491 L92.566 131.556 Z" fill="#000000" fill-rule="nonzero" fill-opacity="1" /><path clip-path="url(#clip350)" d="M121.918 129.611 L126.802 129.611 L126.802 135.491 L121.918 135.491 L121.918 129.611 Z" fill="#000000" fill-rule="nonzero" fill-opacity="1" /><path clip-path="url(#clip350)" d="M137.033 100.931 L155.39 100.931 L155.39 104.866 L141.316 104.866 L141.316 113.338 Q142.334 112.991 143.353 112.829 Q144.371 112.644 145.39 112.644 Q151.177 112.644 154.556 115.815 Q157.936 118.986 157.936 124.403 Q157.936 129.982 154.464 133.083 Q150.992 136.162 144.672 136.162 Q142.496 136.162 140.228 135.792 Q137.982 135.421 135.575 134.681 L135.575 129.982 Q137.658 131.116 139.881 131.671 Q142.103 132.227 144.58 132.227 Q148.584 132.227 150.922 130.121 Q153.26 128.014 153.26 124.403 Q153.26 120.792 150.922 118.685 Q148.584 116.579 144.58 116.579 Q142.705 116.579 140.83 116.996 Q138.978 117.412 137.033 118.292 L137.033 100.931 Z" fill="#000000" fill-rule="nonzero" fill-opacity="1" /><circle clip-path="url(#clip352)" cx="2291.66" cy="1336.61" r="14.4" fill="#009af9" fill-rule="evenodd" fill-opacity="0.5" stroke="#000000" stroke-opacity="0.5" stroke-width="3.2"/>
<circle clip-path="url(#clip352)" cx="553.824" cy="1361.39" r="14.4" fill="#009af9" fill-rule="evenodd" fill-opacity="0.5" stroke="#000000" stroke-opacity="0.5" stroke-width="3.2"/>
<circle clip-path="url(#clip352)" cx="756.421" cy="970.643" r="14.4" fill="#009af9" fill-rule="evenodd" fill-opacity="0.5" stroke="#000000" stroke-opacity="0.5" stroke-width="3.2"/>
<circle clip-path="url(#clip352)" cx="1452.42" cy="713.101" r="14.4" fill="#009af9" fill-rule="evenodd" fill-opacity="0.5" stroke="#000000" stroke-opacity="0.5" stroke-width="3.2"/>
<circle clip-path="url(#clip352)" cx="1364.43" cy="569.756" r="14.4" fill="#009af9" fill-rule="evenodd" fill-opacity="0.5" stroke="#000000" stroke-opacity="0.5" stroke-width="3.2"/>
<circle clip-path="url(#clip352)" cx="1311.14" cy="709.704" r="14.4" fill="#009af9" fill-rule="evenodd" fill-opacity="0.5" stroke="#000000" stroke-opacity="0.5" stroke-width="3.2"/>
<circle clip-path="url(#clip352)" cx="1191.53" cy="966.217" r="14.4" fill="#009af9" fill-rule="evenodd" fill-opacity="0.5" stroke="#000000" stroke-opacity="0.5" stroke-width="3.2"/>
<circle clip-path="url(#clip352)" cx="2095.05" cy="615.002" r="14.4" fill="#009af9" fill-rule="evenodd" fill-opacity="0.5" stroke="#000000" stroke-opacity="0.5" stroke-width="3.2"/>
<circle clip-path="url(#clip352)" cx="1434.17" cy="962.56" r="14.4" fill="#009af9" fill-rule="evenodd" fill-opacity="0.5" stroke="#000000" stroke-opacity="0.5" stroke-width="3.2"/>
<circle clip-path="url(#clip352)" cx="255.035" cy="576.902" r="14.4" fill="#009af9" fill-rule="evenodd" fill-opacity="0.5" stroke="#000000" stroke-opacity="0.5" stroke-width="3.2"/>
<circle clip-path="url(#clip352)" cx="958.736" cy="895.212" r="14.4" fill="#009af9" fill-rule="evenodd" fill-opacity="0.5" stroke="#000000" stroke-opacity="0.5" stroke-width="3.2"/>
<circle clip-path="url(#clip352)" cx="1582.09" cy="235.471" r="14.4" fill="#009af9" fill-rule="evenodd" fill-opacity="0.5" stroke="#000000" stroke-opacity="0.5" stroke-width="3.2"/>
<circle clip-path="url(#clip352)" cx="1792.83" cy="825.843" r="14.4" fill="#009af9" fill-rule="evenodd" fill-opacity="0.5" stroke="#000000" stroke-opacity="0.5" stroke-width="3.2"/>
<circle clip-path="url(#clip352)" cx="1807.96" cy="185.478" r="14.4" fill="#009af9" fill-rule="evenodd" fill-opacity="0.5" stroke="#000000" stroke-opacity="0.5" stroke-width="3.2"/>
<circle clip-path="url(#clip352)" cx="1858.58" cy="87.9763" r="14.4" fill="#009af9" fill-rule="evenodd" fill-opacity="0.5" stroke="#000000" stroke-opacity="0.5" stroke-width="3.2"/>
<circle clip-path="url(#clip352)" cx="804.719" cy="396.143" r="14.4" fill="#009af9" fill-rule="evenodd" fill-opacity="0.5" stroke="#000000" stroke-opacity="0.5" stroke-width="3.2"/>
<circle clip-path="url(#clip352)" cx="812.782" cy="1404.09" r="14.4" fill="#009af9" fill-rule="evenodd" fill-opacity="0.5" stroke="#000000" stroke-opacity="0.5" stroke-width="3.2"/>
<circle clip-path="url(#clip352)" cx="929" cy="1226.48" r="14.4" fill="#009af9" fill-rule="evenodd" fill-opacity="0.5" stroke="#000000" stroke-opacity="0.5" stroke-width="3.2"/>
<circle clip-path="url(#clip352)" cx="1713.04" cy="584.356" r="14.4" fill="#009af9" fill-rule="evenodd" fill-opacity="0.5" stroke="#000000" stroke-opacity="0.5" stroke-width="3.2"/>
<circle clip-path="url(#clip352)" cx="1033.92" cy="1173.29" r="14.4" fill="#009af9" fill-rule="evenodd" fill-opacity="0.5" stroke="#000000" stroke-opacity="0.5" stroke-width="3.2"/>
<circle clip-path="url(#clip352)" cx="1130.94" cy="1435.79" r="14.4" fill="#009af9" fill-rule="evenodd" fill-opacity="0.5" stroke="#000000" stroke-opacity="0.5" stroke-width="3.2"/>
<circle clip-path="url(#clip352)" cx="1895.57" cy="518.286" r="14.4" fill="#009af9" fill-rule="evenodd" fill-opacity="0.5" stroke="#000000" stroke-opacity="0.5" stroke-width="3.2"/>
<circle clip-path="url(#clip352)" cx="963.088" cy="1127.82" r="14.4" fill="#009af9" fill-rule="evenodd" fill-opacity="0.5" stroke="#000000" stroke-opacity="0.5" stroke-width="3.2"/>
<circle clip-path="url(#clip352)" cx="2052.89" cy="982.77" r="14.4" fill="#009af9" fill-rule="evenodd" fill-opacity="0.5" stroke="#000000" stroke-opacity="0.5" stroke-width="3.2"/>
<circle clip-path="url(#clip352)" cx="617.568" cy="1145.24" r="14.4" fill="#009af9" fill-rule="evenodd" fill-opacity="0.5" stroke="#000000" stroke-opacity="0.5" stroke-width="3.2"/>
<circle clip-path="url(#clip352)" cx="465.149" cy="1445.72" r="14.4" fill="#009af9" fill-rule="evenodd" fill-opacity="0.5" stroke="#000000" stroke-opacity="0.5" stroke-width="3.2"/>
<circle clip-path="url(#clip352)" cx="722.408" cy="979.572" r="14.4" fill="#009af9" fill-rule="evenodd" fill-opacity="0.5" stroke="#000000" stroke-opacity="0.5" stroke-width="3.2"/>
<circle clip-path="url(#clip352)" cx="739.9" cy="677.279" r="14.4" fill="#009af9" fill-rule="evenodd" fill-opacity="0.5" stroke="#000000" stroke-opacity="0.5" stroke-width="3.2"/>
<circle clip-path="url(#clip352)" cx="1757.41" cy="715.25" r="14.4" fill="#009af9" fill-rule="evenodd" fill-opacity="0.5" stroke="#000000" stroke-opacity="0.5" stroke-width="3.2"/>
<circle clip-path="url(#clip352)" cx="344.056" cy="421.985" r="14.4" fill="#009af9" fill-rule="evenodd" fill-opacity="0.5" stroke="#000000" stroke-opacity="0.5" stroke-width="3.2"/>
<path clip-path="url(#clip352)" d="M255.035 576.902 L465.149 1445.72 L1130.94 1435.79 L2291.66 1336.61 L2095.05 615.002 L1858.58 87.9763 L344.056 421.985 L255.035 576.902 L255.035 576.902  Z" fill="#e26f46" fill-rule="evenodd" fill-opacity="0.2"/>
<polyline clip-path="url(#clip352)" style="stroke:#000000; stroke-linecap:round; stroke-linejoin:round; stroke-width:4; stroke-opacity:0.2; fill:none" points="255.035,576.902 465.149,1445.72 1130.94,1435.79 2291.66,1336.61 2095.05,615.002 1858.58,87.9763 344.056,421.985 255.035,576.902 "/>
</svg>
