<?xml version="1.0" encoding="utf-8"?>
<svg xmlns="http://www.w3.org/2000/svg" xmlns:xlink="http://www.w3.org/1999/xlink" width="600" height="400" viewBox="0 0 2400 1600">
<defs>
  <clipPath id="clip810">
    <rect x="0" y="0" width="2400" height="1600"/>
  </clipPath>
</defs>
<path clip-path="url(#clip810)" d="M0 1600 L2400 1600 L2400 0 L0 0  Z" fill="#ffffff" fill-rule="evenodd" fill-opacity="1"/>
<defs>
  <clipPath id="clip811">
    <rect x="480" y="0" width="1681" height="1600"/>
  </clipPath>
</defs>
<path clip-path="url(#clip810)" d="M147.478 1486.45 L2352.76 1486.45 L2352.76 47.2441 L147.478 47.2441  Z" fill="#ffffff" fill-rule="evenodd" fill-opacity="1"/>
<defs>
  <clipPath id="clip812">
    <rect x="147" y="47" width="2206" height="1440"/>
  </clipPath>
</defs>
<polyline clip-path="url(#clip812)" style="stroke:#000000; stroke-linecap:round; stroke-linejoin:round; stroke-width:2; stroke-opacity:0.1; fill:none" points="340.182,1486.45 340.182,47.2441 "/>
<polyline clip-path="url(#clip812)" style="stroke:#000000; stroke-linecap:round; stroke-linejoin:round; stroke-width:2; stroke-opacity:0.1; fill:none" points="852.643,1486.45 852.643,47.2441 "/>
<polyline clip-path="url(#clip812)" style="stroke:#000000; stroke-linecap:round; stroke-linejoin:round; stroke-width:2; stroke-opacity:0.1; fill:none" points="1365.1,1486.45 1365.1,47.2441 "/>
<polyline clip-path="url(#clip812)" style="stroke:#000000; stroke-linecap:round; stroke-linejoin:round; stroke-width:2; stroke-opacity:0.1; fill:none" points="1877.57,1486.45 1877.57,47.2441 "/>
<polyline clip-path="url(#clip812)" style="stroke:#000000; stroke-linecap:round; stroke-linejoin:round; stroke-width:2; stroke-opacity:0.1; fill:none" points="147.478,1457.05 2352.76,1457.05 "/>
<polyline clip-path="url(#clip812)" style="stroke:#000000; stroke-linecap:round; stroke-linejoin:round; stroke-width:2; stroke-opacity:0.1; fill:none" points="147.478,1104.76 2352.76,1104.76 "/>
<polyline clip-path="url(#clip812)" style="stroke:#000000; stroke-linecap:round; stroke-linejoin:round; stroke-width:2; stroke-opacity:0.1; fill:none" points="147.478,752.472 2352.76,752.472 "/>
<polyline clip-path="url(#clip812)" style="stroke:#000000; stroke-linecap:round; stroke-linejoin:round; stroke-width:2; stroke-opacity:0.1; fill:none" points="147.478,400.181 2352.76,400.181 "/>
<polyline clip-path="url(#clip812)" style="stroke:#000000; stroke-linecap:round; stroke-linejoin:round; stroke-width:2; stroke-opacity:0.1; fill:none" points="147.478,47.8899 2352.76,47.8899 "/>
<polyline clip-path="url(#clip810)" style="stroke:#000000; stroke-linecap:round; stroke-linejoin:round; stroke-width:4; stroke-opacity:1; fill:none" points="147.478,1486.45 2352.76,1486.45 "/>
<polyline clip-path="url(#clip810)" style="stroke:#000000; stroke-linecap:round; stroke-linejoin:round; stroke-width:4; stroke-opacity:1; fill:none" points="340.182,1486.45 340.182,1467.55 "/>
<polyline clip-path="url(#clip810)" style="stroke:#000000; stroke-linecap:round; stroke-linejoin:round; stroke-width:4; stroke-opacity:1; fill:none" points="852.643,1486.45 852.643,1467.55 "/>
<polyline clip-path="url(#clip810)" style="stroke:#000000; stroke-linecap:round; stroke-linejoin:round; stroke-width:4; stroke-opacity:1; fill:none" points="1365.1,1486.45 1365.1,1467.55 "/>
<polyline clip-path="url(#clip810)" style="stroke:#000000; stroke-linecap:round; stroke-linejoin:round; stroke-width:4; stroke-opacity:1; fill:none" points="1877.57,1486.45 1877.57,1467.55 "/>
<path clip-path="url(#clip810)" d="M310.124 1532.02 L339.8 1532.02 L339.8 1535.95 L310.124 1535.95 L310.124 1532.02 Z" fill="#000000" fill-rule="nonzero" fill-opacity="1" /><path clip-path="url(#clip810)" d="M353.92 1544.91 L370.239 1544.91 L370.239 1548.85 L348.295 1548.85 L348.295 1544.91 Q350.957 1542.16 355.54 1537.53 Q360.147 1532.88 361.327 1531.53 Q363.573 1529.01 364.452 1527.27 Q365.355 1525.51 365.355 1523.82 Q365.355 1521.07 363.411 1519.33 Q361.489 1517.6 358.388 1517.6 Q356.188 1517.6 353.735 1518.36 Q351.304 1519.13 348.526 1520.68 L348.526 1515.95 Q351.351 1514.82 353.804 1514.24 Q356.258 1513.66 358.295 1513.66 Q363.665 1513.66 366.86 1516.35 Q370.054 1519.03 370.054 1523.52 Q370.054 1525.65 369.244 1527.57 Q368.457 1529.47 366.35 1532.07 Q365.772 1532.74 362.67 1535.95 Q359.568 1539.15 353.92 1544.91 Z" fill="#000000" fill-rule="nonzero" fill-opacity="1" /><path clip-path="url(#clip810)" d="M822.4 1532.02 L852.076 1532.02 L852.076 1535.95 L822.4 1535.95 L822.4 1532.02 Z" fill="#000000" fill-rule="nonzero" fill-opacity="1" /><path clip-path="url(#clip810)" d="M862.979 1544.91 L870.618 1544.91 L870.618 1518.55 L862.307 1520.21 L862.307 1515.95 L870.571 1514.29 L875.247 1514.29 L875.247 1544.91 L882.886 1544.91 L882.886 1548.85 L862.979 1548.85 L862.979 1544.91 Z" fill="#000000" fill-rule="nonzero" fill-opacity="1" /><path clip-path="url(#clip810)" d="M1365.1 1517.37 Q1361.49 1517.37 1359.66 1520.93 Q1357.86 1524.47 1357.86 1531.6 Q1357.86 1538.71 1359.66 1542.27 Q1361.49 1545.82 1365.1 1545.82 Q1368.74 1545.82 1370.54 1542.27 Q1372.37 1538.71 1372.37 1531.6 Q1372.37 1524.47 1370.54 1520.93 Q1368.74 1517.37 1365.1 1517.37 M1365.1 1513.66 Q1370.91 1513.66 1373.97 1518.27 Q1377.05 1522.85 1377.05 1531.6 Q1377.05 1540.33 1373.97 1544.94 Q1370.91 1549.52 1365.1 1549.52 Q1359.29 1549.52 1356.22 1544.94 Q1353.16 1540.33 1353.16 1531.6 Q1353.16 1522.85 1356.22 1518.27 Q1359.29 1513.66 1365.1 1513.66 Z" fill="#000000" fill-rule="nonzero" fill-opacity="1" /><path clip-path="url(#clip810)" d="M1867.95 1544.91 L1875.59 1544.91 L1875.59 1518.55 L1867.28 1520.21 L1867.28 1515.95 L1875.54 1514.29 L1880.22 1514.29 L1880.22 1544.91 L1887.86 1544.91 L1887.86 1548.85 L1867.95 1548.85 L1867.95 1544.91 Z" fill="#000000" fill-rule="nonzero" fill-opacity="1" /><polyline clip-path="url(#clip810)" style="stroke:#000000; stroke-linecap:round; stroke-linejoin:round; stroke-width:4; stroke-opacity:1; fill:none" points="147.478,1486.45 147.478,47.2441 "/>
<polyline clip-path="url(#clip810)" style="stroke:#000000; stroke-linecap:round; stroke-linejoin:round; stroke-width:4; stroke-opacity:1; fill:none" points="147.478,1457.05 166.376,1457.05 "/>
<polyline clip-path="url(#clip810)" style="stroke:#000000; stroke-linecap:round; stroke-linejoin:round; stroke-width:4; stroke-opacity:1; fill:none" points="147.478,1104.76 166.376,1104.76 "/>
<polyline clip-path="url(#clip810)" style="stroke:#000000; stroke-linecap:round; stroke-linejoin:round; stroke-width:4; stroke-opacity:1; fill:none" points="147.478,752.472 166.376,752.472 "/>
<polyline clip-path="url(#clip810)" style="stroke:#000000; stroke-linecap:round; stroke-linejoin:round; stroke-width:4; stroke-opacity:1; fill:none" points="147.478,400.181 166.376,400.181 "/>
<polyline clip-path="url(#clip810)" style="stroke:#000000; stroke-linecap:round; stroke-linejoin:round; stroke-width:4; stroke-opacity:1; fill:none" points="147.478,47.8899 166.376,47.8899 "/>
<path clip-path="url(#clip810)" d="M51.3625 1457.5 L81.0383 1457.5 L81.0383 1461.44 L51.3625 1461.44 L51.3625 1457.5 Z" fill="#000000" fill-rule="nonzero" fill-opacity="1" /><path clip-path="url(#clip810)" d="M95.1586 1470.4 L111.478 1470.4 L111.478 1474.33 L89.5336 1474.33 L89.5336 1470.4 Q92.1956 1467.64 96.7789 1463.01 Q101.385 1458.36 102.566 1457.02 Q104.811 1454.5 105.691 1452.76 Q106.594 1451 106.594 1449.31 Q106.594 1446.56 104.649 1444.82 Q102.728 1443.08 99.6261 1443.08 Q97.4271 1443.08 94.9734 1443.85 Q92.5428 1444.61 89.7651 1446.16 L89.7651 1441.44 Q92.5891 1440.31 95.0428 1439.73 Q97.4965 1439.15 99.5335 1439.15 Q104.904 1439.15 108.098 1441.83 Q111.293 1444.52 111.293 1449.01 Q111.293 1451.14 110.483 1453.06 Q109.696 1454.96 107.589 1457.55 Q107.01 1458.22 103.909 1461.44 Q100.807 1464.63 95.1586 1470.4 Z" fill="#000000" fill-rule="nonzero" fill-opacity="1" /><path clip-path="url(#clip810)" d="M50.9921 1105.21 L80.6679 1105.21 L80.6679 1109.15 L50.9921 1109.15 L50.9921 1105.21 Z" fill="#000000" fill-rule="nonzero" fill-opacity="1" /><path clip-path="url(#clip810)" d="M91.5706 1118.11 L99.2095 1118.11 L99.2095 1091.74 L90.8993 1093.41 L90.8993 1089.15 L99.1632 1087.48 L103.839 1087.48 L103.839 1118.11 L111.478 1118.11 L111.478 1122.04 L91.5706 1122.04 L91.5706 1118.11 Z" fill="#000000" fill-rule="nonzero" fill-opacity="1" /><path clip-path="url(#clip810)" d="M99.5335 738.27 Q95.9224 738.27 94.0937 741.835 Q92.2882 745.377 92.2882 752.506 Q92.2882 759.613 94.0937 763.178 Q95.9224 766.719 99.5335 766.719 Q103.168 766.719 104.973 763.178 Q106.802 759.613 106.802 752.506 Q106.802 745.377 104.973 741.835 Q103.168 738.27 99.5335 738.27 M99.5335 734.567 Q105.344 734.567 108.399 739.173 Q111.478 743.756 111.478 752.506 Q111.478 761.233 108.399 765.84 Q105.344 770.423 99.5335 770.423 Q93.7234 770.423 90.6447 765.84 Q87.5892 761.233 87.5892 752.506 Q87.5892 743.756 90.6447 739.173 Q93.7234 734.567 99.5335 734.567 Z" fill="#000000" fill-rule="nonzero" fill-opacity="1" /><path clip-path="url(#clip810)" d="M91.5706 413.526 L99.2095 413.526 L99.2095 387.16 L90.8993 388.827 L90.8993 384.567 L99.1632 382.901 L103.839 382.901 L103.839 413.526 L111.478 413.526 L111.478 417.461 L91.5706 417.461 L91.5706 413.526 Z" fill="#000000" fill-rule="nonzero" fill-opacity="1" /><path clip-path="url(#clip810)" d="M95.1586 61.2347 L111.478 61.2347 L111.478 65.1699 L89.5336 65.1699 L89.5336 61.2347 Q92.1956 58.4801 96.7789 53.8505 Q101.385 49.1977 102.566 47.8552 Q104.811 45.332 105.691 43.5959 Q106.594 41.8367 106.594 40.1469 Q106.594 37.3922 104.649 35.6561 Q102.728 33.92 99.6261 33.92 Q97.4271 33.92 94.9734 34.6839 Q92.5428 35.4478 89.7651 36.9987 L89.7651 32.2765 Q92.5891 31.1423 95.0428 30.5636 Q97.4965 29.9849 99.5335 29.9849 Q104.904 29.9849 108.098 32.67 Q111.293 35.3552 111.293 39.8459 Q111.293 41.9756 110.483 43.8968 Q109.696 45.795 107.589 48.3876 Q107.01 49.0588 103.909 52.2764 Q100.807 55.4709 95.1586 61.2347 Z" fill="#000000" fill-rule="nonzero" fill-opacity="1" /><circle clip-path="url(#clip812)" cx="383.84" cy="987.421" r="14.4" fill="#009af9" fill-rule="evenodd" fill-opacity="0.5" stroke="#000000" stroke-opacity="0.5" stroke-width="3.2"/>
<circle clip-path="url(#clip812)" cx="1165.79" cy="857.843" r="14.4" fill="#009af9" fill-rule="evenodd" fill-opacity="0.5" stroke="#000000" stroke-opacity="0.5" stroke-width="3.2"/>
<circle clip-path="url(#clip812)" cx="1783.77" cy="1445.72" r="14.4" fill="#009af9" fill-rule="evenodd" fill-opacity="0.5" stroke="#000000" stroke-opacity="0.5" stroke-width="3.2"/>
<circle clip-path="url(#clip812)" cx="603.311" cy="1443.63" r="14.4" fill="#009af9" fill-rule="evenodd" fill-opacity="0.5" stroke="#000000" stroke-opacity="0.5" stroke-width="3.2"/>
<circle clip-path="url(#clip812)" cx="1571.82" cy="497.027" r="14.4" fill="#009af9" fill-rule="evenodd" fill-opacity="0.5" stroke="#000000" stroke-opacity="0.5" stroke-width="3.2"/>
<circle clip-path="url(#clip812)" cx="1934.08" cy="1009.67" r="14.4" fill="#009af9" fill-rule="evenodd" fill-opacity="0.5" stroke="#000000" stroke-opacity="0.5" stroke-width="3.2"/>
<circle clip-path="url(#clip812)" cx="1133.25" cy="642.555" r="14.4" fill="#009af9" fill-rule="evenodd" fill-opacity="0.5" stroke="#000000" stroke-opacity="0.5" stroke-width="3.2"/>
<circle clip-path="url(#clip812)" cx="2036.77" cy="700.683" r="14.4" fill="#009af9" fill-rule="evenodd" fill-opacity="0.5" stroke="#000000" stroke-opacity="0.5" stroke-width="3.2"/>
<circle clip-path="url(#clip812)" cx="358.83" cy="87.9763" r="14.4" fill="#009af9" fill-rule="evenodd" fill-opacity="0.5" stroke="#000000" stroke-opacity="0.5" stroke-width="3.2"/>
<circle clip-path="url(#clip812)" cx="1673.87" cy="785.363" r="14.4" fill="#009af9" fill-rule="evenodd" fill-opacity="0.5" stroke="#000000" stroke-opacity="0.5" stroke-width="3.2"/>
<circle clip-path="url(#clip812)" cx="744.047" cy="1237.4" r="14.4" fill="#009af9" fill-rule="evenodd" fill-opacity="0.5" stroke="#000000" stroke-opacity="0.5" stroke-width="3.2"/>
<circle clip-path="url(#clip812)" cx="209.891" cy="747.714" r="14.4" fill="#009af9" fill-rule="evenodd" fill-opacity="0.5" stroke="#000000" stroke-opacity="0.5" stroke-width="3.2"/>
<circle clip-path="url(#clip812)" cx="1274.36" cy="487.898" r="14.4" fill="#009af9" fill-rule="evenodd" fill-opacity="0.5" stroke="#000000" stroke-opacity="0.5" stroke-width="3.2"/>
<circle clip-path="url(#clip812)" cx="1419.84" cy="694.675" r="14.4" fill="#009af9" fill-rule="evenodd" fill-opacity="0.5" stroke="#000000" stroke-opacity="0.5" stroke-width="3.2"/>
<circle clip-path="url(#clip812)" cx="1341.27" cy="726.573" r="14.4" fill="#009af9" fill-rule="evenodd" fill-opacity="0.5" stroke="#000000" stroke-opacity="0.5" stroke-width="3.2"/>
<circle clip-path="url(#clip812)" cx="1687.28" cy="768.501" r="14.4" fill="#009af9" fill-rule="evenodd" fill-opacity="0.5" stroke="#000000" stroke-opacity="0.5" stroke-width="3.2"/>
<circle clip-path="url(#clip812)" cx="1253.86" cy="1241.59" r="14.4" fill="#009af9" fill-rule="evenodd" fill-opacity="0.5" stroke="#000000" stroke-opacity="0.5" stroke-width="3.2"/>
<circle clip-path="url(#clip812)" cx="1523.18" cy="545.452" r="14.4" fill="#009af9" fill-rule="evenodd" fill-opacity="0.5" stroke="#000000" stroke-opacity="0.5" stroke-width="3.2"/>
<circle clip-path="url(#clip812)" cx="1433.83" cy="925.855" r="14.4" fill="#009af9" fill-rule="evenodd" fill-opacity="0.5" stroke="#000000" stroke-opacity="0.5" stroke-width="3.2"/>
<circle clip-path="url(#clip812)" cx="1026.62" cy="1062.99" r="14.4" fill="#009af9" fill-rule="evenodd" fill-opacity="0.5" stroke="#000000" stroke-opacity="0.5" stroke-width="3.2"/>
<circle clip-path="url(#clip812)" cx="1447.82" cy="978.461" r="14.4" fill="#009af9" fill-rule="evenodd" fill-opacity="0.5" stroke="#000000" stroke-opacity="0.5" stroke-width="3.2"/>
<circle clip-path="url(#clip812)" cx="1815.79" cy="866.913" r="14.4" fill="#009af9" fill-rule="evenodd" fill-opacity="0.5" stroke="#000000" stroke-opacity="0.5" stroke-width="3.2"/>
<circle clip-path="url(#clip812)" cx="1803.52" cy="877.998" r="14.4" fill="#009af9" fill-rule="evenodd" fill-opacity="0.5" stroke="#000000" stroke-opacity="0.5" stroke-width="3.2"/>
<circle clip-path="url(#clip812)" cx="1677.93" cy="439.37" r="14.4" fill="#009af9" fill-rule="evenodd" fill-opacity="0.5" stroke="#000000" stroke-opacity="0.5" stroke-width="3.2"/>
<circle clip-path="url(#clip812)" cx="616.811" cy="1137.23" r="14.4" fill="#009af9" fill-rule="evenodd" fill-opacity="0.5" stroke="#000000" stroke-opacity="0.5" stroke-width="3.2"/>
<circle clip-path="url(#clip812)" cx="1825.5" cy="1091.82" r="14.4" fill="#009af9" fill-rule="evenodd" fill-opacity="0.5" stroke="#000000" stroke-opacity="0.5" stroke-width="3.2"/>
<circle clip-path="url(#clip812)" cx="2290.34" cy="201.618" r="14.4" fill="#009af9" fill-rule="evenodd" fill-opacity="0.5" stroke="#000000" stroke-opacity="0.5" stroke-width="3.2"/>
<circle clip-path="url(#clip812)" cx="549.607" cy="619.911" r="14.4" fill="#009af9" fill-rule="evenodd" fill-opacity="0.5" stroke="#000000" stroke-opacity="0.5" stroke-width="3.2"/>
<circle clip-path="url(#clip812)" cx="1535.57" cy="1076.85" r="14.4" fill="#009af9" fill-rule="evenodd" fill-opacity="0.5" stroke="#000000" stroke-opacity="0.5" stroke-width="3.2"/>
<circle clip-path="url(#clip812)" cx="1502.08" cy="950.702" r="14.4" fill="#009af9" fill-rule="evenodd" fill-opacity="0.5" stroke="#000000" stroke-opacity="0.5" stroke-width="3.2"/>
<path clip-path="url(#clip812)" d="M209.891 747.714 L603.311 1443.63 L1783.77 1445.72 L2290.34 201.618 L358.83 87.9763 L209.891 747.714 L209.891 747.714  Z" fill="#e26f46" fill-rule="evenodd" fill-opacity="0.2"/>
<polyline clip-path="url(#clip812)" style="stroke:#000000; stroke-linecap:round; stroke-linejoin:round; stroke-width:4; stroke-opacity:0.2; fill:none" points="209.891,747.714 603.311,1443.63 1783.77,1445.72 2290.34,201.618 358.83,87.9763 209.891,747.714 "/>
</svg>
