<?xml version="1.0" encoding="utf-8"?>
<svg xmlns="http://www.w3.org/2000/svg" xmlns:xlink="http://www.w3.org/1999/xlink" width="600" height="400" viewBox="0 0 2400 1600">
<defs>
  <clipPath id="clip790">
    <rect x="0" y="0" width="2400" height="1600"/>
  </clipPath>
</defs>
<path clip-path="url(#clip790)" d="M0 1600 L2400 1600 L2400 0 L0 0  Z" fill="#ffffff" fill-rule="evenodd" fill-opacity="1"/>
<defs>
  <clipPath id="clip791">
    <rect x="480" y="0" width="1681" height="1600"/>
  </clipPath>
</defs>
<path clip-path="url(#clip790)" d="M193.936 1486.45 L2352.76 1486.45 L2352.76 47.2441 L193.936 47.2441  Z" fill="#ffffff" fill-rule="evenodd" fill-opacity="1"/>
<defs>
  <clipPath id="clip792">
    <rect x="193" y="47" width="2160" height="1440"/>
  </clipPath>
</defs>
<polyline clip-path="url(#clip792)" style="stroke:#000000; stroke-linecap:round; stroke-linejoin:round; stroke-width:2; stroke-opacity:0.1; fill:none" points="423.862,1486.45 423.862,47.2441 "/>
<polyline clip-path="url(#clip792)" style="stroke:#000000; stroke-linecap:round; stroke-linejoin:round; stroke-width:2; stroke-opacity:0.1; fill:none" points="854.581,1486.45 854.581,47.2441 "/>
<polyline clip-path="url(#clip792)" style="stroke:#000000; stroke-linecap:round; stroke-linejoin:round; stroke-width:2; stroke-opacity:0.1; fill:none" points="1285.3,1486.45 1285.3,47.2441 "/>
<polyline clip-path="url(#clip792)" style="stroke:#000000; stroke-linecap:round; stroke-linejoin:round; stroke-width:2; stroke-opacity:0.1; fill:none" points="1716.02,1486.45 1716.02,47.2441 "/>
<polyline clip-path="url(#clip792)" style="stroke:#000000; stroke-linecap:round; stroke-linejoin:round; stroke-width:2; stroke-opacity:0.1; fill:none" points="2146.74,1486.45 2146.74,47.2441 "/>
<polyline clip-path="url(#clip792)" style="stroke:#000000; stroke-linecap:round; stroke-linejoin:round; stroke-width:2; stroke-opacity:0.1; fill:none" points="193.936,1316.71 2352.76,1316.71 "/>
<polyline clip-path="url(#clip792)" style="stroke:#000000; stroke-linecap:round; stroke-linejoin:round; stroke-width:2; stroke-opacity:0.1; fill:none" points="193.936,1114.6 2352.76,1114.6 "/>
<polyline clip-path="url(#clip792)" style="stroke:#000000; stroke-linecap:round; stroke-linejoin:round; stroke-width:2; stroke-opacity:0.1; fill:none" points="193.936,912.495 2352.76,912.495 "/>
<polyline clip-path="url(#clip792)" style="stroke:#000000; stroke-linecap:round; stroke-linejoin:round; stroke-width:2; stroke-opacity:0.1; fill:none" points="193.936,710.389 2352.76,710.389 "/>
<polyline clip-path="url(#clip792)" style="stroke:#000000; stroke-linecap:round; stroke-linejoin:round; stroke-width:2; stroke-opacity:0.1; fill:none" points="193.936,508.283 2352.76,508.283 "/>
<polyline clip-path="url(#clip792)" style="stroke:#000000; stroke-linecap:round; stroke-linejoin:round; stroke-width:2; stroke-opacity:0.1; fill:none" points="193.936,306.177 2352.76,306.177 "/>
<polyline clip-path="url(#clip792)" style="stroke:#000000; stroke-linecap:round; stroke-linejoin:round; stroke-width:2; stroke-opacity:0.1; fill:none" points="193.936,104.071 2352.76,104.071 "/>
<polyline clip-path="url(#clip790)" style="stroke:#000000; stroke-linecap:round; stroke-linejoin:round; stroke-width:4; stroke-opacity:1; fill:none" points="193.936,1486.45 2352.76,1486.45 "/>
<polyline clip-path="url(#clip790)" style="stroke:#000000; stroke-linecap:round; stroke-linejoin:round; stroke-width:4; stroke-opacity:1; fill:none" points="423.862,1486.45 423.862,1467.55 "/>
<polyline clip-path="url(#clip790)" style="stroke:#000000; stroke-linecap:round; stroke-linejoin:round; stroke-width:4; stroke-opacity:1; fill:none" points="854.581,1486.45 854.581,1467.55 "/>
<polyline clip-path="url(#clip790)" style="stroke:#000000; stroke-linecap:round; stroke-linejoin:round; stroke-width:4; stroke-opacity:1; fill:none" points="1285.3,1486.45 1285.3,1467.55 "/>
<polyline clip-path="url(#clip790)" style="stroke:#000000; stroke-linecap:round; stroke-linejoin:round; stroke-width:4; stroke-opacity:1; fill:none" points="1716.02,1486.45 1716.02,1467.55 "/>
<polyline clip-path="url(#clip790)" style="stroke:#000000; stroke-linecap:round; stroke-linejoin:round; stroke-width:4; stroke-opacity:1; fill:none" points="2146.74,1486.45 2146.74,1467.55 "/>
<path clip-path="url(#clip790)" d="M393.804 1532.02 L423.48 1532.02 L423.48 1535.95 L393.804 1535.95 L393.804 1532.02 Z" fill="#000000" fill-rule="nonzero" fill-opacity="1" /><path clip-path="url(#clip790)" d="M437.6 1544.91 L453.92 1544.91 L453.92 1548.85 L431.976 1548.85 L431.976 1544.91 Q434.638 1542.16 439.221 1537.53 Q443.827 1532.88 445.008 1531.53 Q447.253 1529.01 448.133 1527.27 Q449.036 1525.51 449.036 1523.82 Q449.036 1521.07 447.091 1519.33 Q445.17 1517.6 442.068 1517.6 Q439.869 1517.6 437.415 1518.36 Q434.985 1519.13 432.207 1520.68 L432.207 1515.95 Q435.031 1514.82 437.485 1514.24 Q439.938 1513.66 441.975 1513.66 Q447.346 1513.66 450.54 1516.35 Q453.735 1519.03 453.735 1523.52 Q453.735 1525.65 452.924 1527.57 Q452.137 1529.47 450.031 1532.07 Q449.452 1532.74 446.35 1535.95 Q443.249 1539.15 437.6 1544.91 Z" fill="#000000" fill-rule="nonzero" fill-opacity="1" /><path clip-path="url(#clip790)" d="M824.338 1532.02 L854.014 1532.02 L854.014 1535.95 L824.338 1535.95 L824.338 1532.02 Z" fill="#000000" fill-rule="nonzero" fill-opacity="1" /><path clip-path="url(#clip790)" d="M864.917 1544.91 L872.555 1544.91 L872.555 1518.55 L864.245 1520.21 L864.245 1515.95 L872.509 1514.29 L877.185 1514.29 L877.185 1544.91 L884.824 1544.91 L884.824 1548.85 L864.917 1548.85 L864.917 1544.91 Z" fill="#000000" fill-rule="nonzero" fill-opacity="1" /><path clip-path="url(#clip790)" d="M1285.3 1517.37 Q1281.69 1517.37 1279.86 1520.93 Q1278.05 1524.47 1278.05 1531.6 Q1278.05 1538.71 1279.86 1542.27 Q1281.69 1545.82 1285.3 1545.82 Q1288.93 1545.82 1290.74 1542.27 Q1292.57 1538.71 1292.57 1531.6 Q1292.57 1524.47 1290.74 1520.93 Q1288.93 1517.37 1285.3 1517.37 M1285.3 1513.66 Q1291.11 1513.66 1294.17 1518.27 Q1297.24 1522.85 1297.24 1531.6 Q1297.24 1540.33 1294.17 1544.94 Q1291.11 1549.52 1285.3 1549.52 Q1279.49 1549.52 1276.41 1544.94 Q1273.36 1540.33 1273.36 1531.6 Q1273.36 1522.85 1276.41 1518.27 Q1279.49 1513.66 1285.3 1513.66 Z" fill="#000000" fill-rule="nonzero" fill-opacity="1" /><path clip-path="url(#clip790)" d="M1706.4 1544.91 L1714.04 1544.91 L1714.04 1518.55 L1705.73 1520.21 L1705.73 1515.95 L1713.99 1514.29 L1718.67 1514.29 L1718.67 1544.91 L1726.31 1544.91 L1726.31 1548.85 L1706.4 1548.85 L1706.4 1544.91 Z" fill="#000000" fill-rule="nonzero" fill-opacity="1" /><path clip-path="url(#clip790)" d="M2141.39 1544.91 L2157.71 1544.91 L2157.71 1548.85 L2135.77 1548.85 L2135.77 1544.91 Q2138.43 1542.16 2143.01 1537.53 Q2147.62 1532.88 2148.8 1531.53 Q2151.04 1529.01 2151.92 1527.27 Q2152.83 1525.51 2152.83 1523.82 Q2152.83 1521.07 2150.88 1519.33 Q2148.96 1517.6 2145.86 1517.6 Q2143.66 1517.6 2141.21 1518.36 Q2138.77 1519.13 2136 1520.68 L2136 1515.95 Q2138.82 1514.82 2141.27 1514.24 Q2143.73 1513.66 2145.77 1513.66 Q2151.14 1513.66 2154.33 1516.35 Q2157.52 1519.03 2157.52 1523.52 Q2157.52 1525.65 2156.71 1527.57 Q2155.93 1529.47 2153.82 1532.07 Q2153.24 1532.74 2150.14 1535.95 Q2147.04 1539.15 2141.39 1544.91 Z" fill="#000000" fill-rule="nonzero" fill-opacity="1" /><polyline clip-path="url(#clip790)" style="stroke:#000000; stroke-linecap:round; stroke-linejoin:round; stroke-width:4; stroke-opacity:1; fill:none" points="193.936,1486.45 193.936,47.2441 "/>
<polyline clip-path="url(#clip790)" style="stroke:#000000; stroke-linecap:round; stroke-linejoin:round; stroke-width:4; stroke-opacity:1; fill:none" points="193.936,1316.71 212.834,1316.71 "/>
<polyline clip-path="url(#clip790)" style="stroke:#000000; stroke-linecap:round; stroke-linejoin:round; stroke-width:4; stroke-opacity:1; fill:none" points="193.936,1114.6 212.834,1114.6 "/>
<polyline clip-path="url(#clip790)" style="stroke:#000000; stroke-linecap:round; stroke-linejoin:round; stroke-width:4; stroke-opacity:1; fill:none" points="193.936,912.495 212.834,912.495 "/>
<polyline clip-path="url(#clip790)" style="stroke:#000000; stroke-linecap:round; stroke-linejoin:round; stroke-width:4; stroke-opacity:1; fill:none" points="193.936,710.389 212.834,710.389 "/>
<polyline clip-path="url(#clip790)" style="stroke:#000000; stroke-linecap:round; stroke-linejoin:round; stroke-width:4; stroke-opacity:1; fill:none" points="193.936,508.283 212.834,508.283 "/>
<polyline clip-path="url(#clip790)" style="stroke:#000000; stroke-linecap:round; stroke-linejoin:round; stroke-width:4; stroke-opacity:1; fill:none" points="193.936,306.177 212.834,306.177 "/>
<polyline clip-path="url(#clip790)" style="stroke:#000000; stroke-linecap:round; stroke-linejoin:round; stroke-width:4; stroke-opacity:1; fill:none" points="193.936,104.071 212.834,104.071 "/>
<path clip-path="url(#clip790)" d="M51.9875 1317.16 L81.6633 1317.16 L81.6633 1321.09 L51.9875 1321.09 L51.9875 1317.16 Z" fill="#000000" fill-rule="nonzero" fill-opacity="1" /><path clip-path="url(#clip790)" d="M92.566 1330.05 L100.205 1330.05 L100.205 1303.69 L91.8947 1305.35 L91.8947 1301.09 L100.159 1299.43 L104.834 1299.43 L104.834 1330.05 L112.473 1330.05 L112.473 1333.99 L92.566 1333.99 L92.566 1330.05 Z" fill="#000000" fill-rule="nonzero" fill-opacity="1" /><path clip-path="url(#clip790)" d="M121.918 1328.11 L126.802 1328.11 L126.802 1333.99 L121.918 1333.99 L121.918 1328.11 Z" fill="#000000" fill-rule="nonzero" fill-opacity="1" /><path clip-path="url(#clip790)" d="M137.033 1299.43 L155.39 1299.43 L155.39 1303.36 L141.316 1303.36 L141.316 1311.83 Q142.334 1311.49 143.353 1311.32 Q144.371 1311.14 145.39 1311.14 Q151.177 1311.14 154.556 1314.31 Q157.936 1317.48 157.936 1322.9 Q157.936 1328.48 154.464 1331.58 Q150.992 1334.66 144.672 1334.66 Q142.496 1334.66 140.228 1334.29 Q137.982 1333.92 135.575 1333.18 L135.575 1328.48 Q137.658 1329.61 139.881 1330.17 Q142.103 1330.72 144.58 1330.72 Q148.584 1330.72 150.922 1328.62 Q153.26 1326.51 153.26 1322.9 Q153.26 1319.29 150.922 1317.18 Q148.584 1315.07 144.58 1315.07 Q142.705 1315.07 140.83 1315.49 Q138.978 1315.91 137.033 1316.79 L137.033 1299.43 Z" fill="#000000" fill-rule="nonzero" fill-opacity="1" /><path clip-path="url(#clip790)" d="M50.9921 1115.05 L80.6679 1115.05 L80.6679 1118.99 L50.9921 1118.99 L50.9921 1115.05 Z" fill="#000000" fill-rule="nonzero" fill-opacity="1" /><path clip-path="url(#clip790)" d="M91.5706 1127.95 L99.2095 1127.95 L99.2095 1101.58 L90.8993 1103.25 L90.8993 1098.99 L99.1632 1097.32 L103.839 1097.32 L103.839 1127.95 L111.478 1127.95 L111.478 1131.88 L91.5706 1131.88 L91.5706 1127.95 Z" fill="#000000" fill-rule="nonzero" fill-opacity="1" /><path clip-path="url(#clip790)" d="M120.922 1126 L125.807 1126 L125.807 1131.88 L120.922 1131.88 L120.922 1126 Z" fill="#000000" fill-rule="nonzero" fill-opacity="1" /><path clip-path="url(#clip790)" d="M145.992 1100.4 Q142.381 1100.4 140.552 1103.96 Q138.746 1107.51 138.746 1114.64 Q138.746 1121.74 140.552 1125.31 Q142.381 1128.85 145.992 1128.85 Q149.626 1128.85 151.431 1125.31 Q153.26 1121.74 153.26 1114.64 Q153.26 1107.51 151.431 1103.96 Q149.626 1100.4 145.992 1100.4 M145.992 1096.7 Q151.802 1096.7 154.857 1101.3 Q157.936 1105.89 157.936 1114.64 Q157.936 1123.36 154.857 1127.97 Q151.802 1132.55 145.992 1132.55 Q140.181 1132.55 137.103 1127.97 Q134.047 1123.36 134.047 1114.64 Q134.047 1105.89 137.103 1101.3 Q140.181 1096.7 145.992 1096.7 Z" fill="#000000" fill-rule="nonzero" fill-opacity="1" /><path clip-path="url(#clip790)" d="M51.9875 912.946 L81.6633 912.946 L81.6633 916.881 L51.9875 916.881 L51.9875 912.946 Z" fill="#000000" fill-rule="nonzero" fill-opacity="1" /><path clip-path="url(#clip790)" d="M101.756 898.294 Q98.1447 898.294 96.316 901.858 Q94.5104 905.4 94.5104 912.53 Q94.5104 919.636 96.316 923.201 Q98.1447 926.742 101.756 926.742 Q105.39 926.742 107.196 923.201 Q109.024 919.636 109.024 912.53 Q109.024 905.4 107.196 901.858 Q105.39 898.294 101.756 898.294 M101.756 894.59 Q107.566 894.59 110.621 899.196 Q113.7 903.78 113.7 912.53 Q113.7 921.256 110.621 925.863 Q107.566 930.446 101.756 930.446 Q95.9456 930.446 92.8669 925.863 Q89.8114 921.256 89.8114 912.53 Q89.8114 903.78 92.8669 899.196 Q95.9456 894.59 101.756 894.59 Z" fill="#000000" fill-rule="nonzero" fill-opacity="1" /><path clip-path="url(#clip790)" d="M121.918 923.895 L126.802 923.895 L126.802 929.775 L121.918 929.775 L121.918 923.895 Z" fill="#000000" fill-rule="nonzero" fill-opacity="1" /><path clip-path="url(#clip790)" d="M137.033 895.215 L155.39 895.215 L155.39 899.15 L141.316 899.15 L141.316 907.622 Q142.334 907.275 143.353 907.113 Q144.371 906.928 145.39 906.928 Q151.177 906.928 154.556 910.099 Q157.936 913.27 157.936 918.687 Q157.936 924.266 154.464 927.367 Q150.992 930.446 144.672 930.446 Q142.496 930.446 140.228 930.076 Q137.982 929.705 135.575 928.965 L135.575 924.266 Q137.658 925.4 139.881 925.955 Q142.103 926.511 144.58 926.511 Q148.584 926.511 150.922 924.404 Q153.26 922.298 153.26 918.687 Q153.26 915.076 150.922 912.969 Q148.584 910.863 144.58 910.863 Q142.705 910.863 140.83 911.28 Q138.978 911.696 137.033 912.576 L137.033 895.215 Z" fill="#000000" fill-rule="nonzero" fill-opacity="1" /><path clip-path="url(#clip790)" d="M100.76 696.187 Q97.1493 696.187 95.3206 699.752 Q93.515 703.294 93.515 710.424 Q93.515 717.53 95.3206 721.095 Q97.1493 724.636 100.76 724.636 Q104.395 724.636 106.2 721.095 Q108.029 717.53 108.029 710.424 Q108.029 703.294 106.2 699.752 Q104.395 696.187 100.76 696.187 M100.76 692.484 Q106.571 692.484 109.626 697.09 Q112.705 701.674 112.705 710.424 Q112.705 719.15 109.626 723.757 Q106.571 728.34 100.76 728.34 Q94.9502 728.34 91.8715 723.757 Q88.816 719.15 88.816 710.424 Q88.816 701.674 91.8715 697.09 Q94.9502 692.484 100.76 692.484 Z" fill="#000000" fill-rule="nonzero" fill-opacity="1" /><path clip-path="url(#clip790)" d="M120.922 721.789 L125.807 721.789 L125.807 727.669 L120.922 727.669 L120.922 721.789 Z" fill="#000000" fill-rule="nonzero" fill-opacity="1" /><path clip-path="url(#clip790)" d="M145.992 696.187 Q142.381 696.187 140.552 699.752 Q138.746 703.294 138.746 710.424 Q138.746 717.53 140.552 721.095 Q142.381 724.636 145.992 724.636 Q149.626 724.636 151.431 721.095 Q153.26 717.53 153.26 710.424 Q153.26 703.294 151.431 699.752 Q149.626 696.187 145.992 696.187 M145.992 692.484 Q151.802 692.484 154.857 697.09 Q157.936 701.674 157.936 710.424 Q157.936 719.15 154.857 723.757 Q151.802 728.34 145.992 728.34 Q140.181 728.34 137.103 723.757 Q134.047 719.15 134.047 710.424 Q134.047 701.674 137.103 697.09 Q140.181 692.484 145.992 692.484 Z" fill="#000000" fill-rule="nonzero" fill-opacity="1" /><path clip-path="url(#clip790)" d="M101.756 494.081 Q98.1447 494.081 96.316 497.646 Q94.5104 501.188 94.5104 508.317 Q94.5104 515.424 96.316 518.989 Q98.1447 522.53 101.756 522.53 Q105.39 522.53 107.196 518.989 Q109.024 515.424 109.024 508.317 Q109.024 501.188 107.196 497.646 Q105.39 494.081 101.756 494.081 M101.756 490.378 Q107.566 490.378 110.621 494.984 Q113.7 499.568 113.7 508.317 Q113.7 517.044 110.621 521.651 Q107.566 526.234 101.756 526.234 Q95.9456 526.234 92.8669 521.651 Q89.8114 517.044 89.8114 508.317 Q89.8114 499.568 92.8669 494.984 Q95.9456 490.378 101.756 490.378 Z" fill="#000000" fill-rule="nonzero" fill-opacity="1" /><path clip-path="url(#clip790)" d="M121.918 519.683 L126.802 519.683 L126.802 525.563 L121.918 525.563 L121.918 519.683 Z" fill="#000000" fill-rule="nonzero" fill-opacity="1" /><path clip-path="url(#clip790)" d="M137.033 491.003 L155.39 491.003 L155.39 494.938 L141.316 494.938 L141.316 503.41 Q142.334 503.063 143.353 502.901 Q144.371 502.716 145.39 502.716 Q151.177 502.716 154.556 505.887 Q157.936 509.058 157.936 514.475 Q157.936 520.054 154.464 523.155 Q150.992 526.234 144.672 526.234 Q142.496 526.234 140.228 525.864 Q137.982 525.493 135.575 524.753 L135.575 520.054 Q137.658 521.188 139.881 521.743 Q142.103 522.299 144.58 522.299 Q148.584 522.299 150.922 520.192 Q153.26 518.086 153.26 514.475 Q153.26 510.864 150.922 508.757 Q148.584 506.651 144.58 506.651 Q142.705 506.651 140.83 507.068 Q138.978 507.484 137.033 508.364 L137.033 491.003 Z" fill="#000000" fill-rule="nonzero" fill-opacity="1" /><path clip-path="url(#clip790)" d="M91.5706 319.522 L99.2095 319.522 L99.2095 293.156 L90.8993 294.823 L90.8993 290.563 L99.1632 288.897 L103.839 288.897 L103.839 319.522 L111.478 319.522 L111.478 323.457 L91.5706 323.457 L91.5706 319.522 Z" fill="#000000" fill-rule="nonzero" fill-opacity="1" /><path clip-path="url(#clip790)" d="M120.922 317.577 L125.807 317.577 L125.807 323.457 L120.922 323.457 L120.922 317.577 Z" fill="#000000" fill-rule="nonzero" fill-opacity="1" /><path clip-path="url(#clip790)" d="M145.992 291.975 Q142.381 291.975 140.552 295.54 Q138.746 299.082 138.746 306.211 Q138.746 313.318 140.552 316.883 Q142.381 320.424 145.992 320.424 Q149.626 320.424 151.431 316.883 Q153.26 313.318 153.26 306.211 Q153.26 299.082 151.431 295.54 Q149.626 291.975 145.992 291.975 M145.992 288.272 Q151.802 288.272 154.857 292.878 Q157.936 297.462 157.936 306.211 Q157.936 314.938 154.857 319.545 Q151.802 324.128 145.992 324.128 Q140.181 324.128 137.103 319.545 Q134.047 314.938 134.047 306.211 Q134.047 297.462 137.103 292.878 Q140.181 288.272 145.992 288.272 Z" fill="#000000" fill-rule="nonzero" fill-opacity="1" /><path clip-path="url(#clip790)" d="M92.566 117.416 L100.205 117.416 L100.205 91.05 L91.8947 92.7166 L91.8947 88.4574 L100.159 86.7907 L104.834 86.7907 L104.834 117.416 L112.473 117.416 L112.473 121.351 L92.566 121.351 L92.566 117.416 Z" fill="#000000" fill-rule="nonzero" fill-opacity="1" /><path clip-path="url(#clip790)" d="M121.918 115.471 L126.802 115.471 L126.802 121.351 L121.918 121.351 L121.918 115.471 Z" fill="#000000" fill-rule="nonzero" fill-opacity="1" /><path clip-path="url(#clip790)" d="M137.033 86.7907 L155.39 86.7907 L155.39 90.7259 L141.316 90.7259 L141.316 99.1981 Q142.334 98.8508 143.353 98.6888 Q144.371 98.5036 145.39 98.5036 Q151.177 98.5036 154.556 101.675 Q157.936 104.846 157.936 110.263 Q157.936 115.841 154.464 118.943 Q150.992 122.022 144.672 122.022 Q142.496 122.022 140.228 121.652 Q137.982 121.281 135.575 120.541 L135.575 115.841 Q137.658 116.976 139.881 117.531 Q142.103 118.087 144.58 118.087 Q148.584 118.087 150.922 115.98 Q153.26 113.874 153.26 110.263 Q153.26 106.652 150.922 104.545 Q148.584 102.439 144.58 102.439 Q142.705 102.439 140.83 102.855 Q138.978 103.272 137.033 104.152 L137.033 86.7907 Z" fill="#000000" fill-rule="nonzero" fill-opacity="1" /><circle clip-path="url(#clip792)" cx="1655.06" cy="955.191" r="14.4" fill="#009af9" fill-rule="evenodd" fill-opacity="0.5" stroke="#000000" stroke-opacity="0.5" stroke-width="3.2"/>
<circle clip-path="url(#clip792)" cx="1617.99" cy="877.021" r="14.4" fill="#009af9" fill-rule="evenodd" fill-opacity="0.5" stroke="#000000" stroke-opacity="0.5" stroke-width="3.2"/>
<circle clip-path="url(#clip792)" cx="1273" cy="958.455" r="14.4" fill="#009af9" fill-rule="evenodd" fill-opacity="0.5" stroke="#000000" stroke-opacity="0.5" stroke-width="3.2"/>
<circle clip-path="url(#clip792)" cx="396.845" cy="698.239" r="14.4" fill="#009af9" fill-rule="evenodd" fill-opacity="0.5" stroke="#000000" stroke-opacity="0.5" stroke-width="3.2"/>
<circle clip-path="url(#clip792)" cx="1977.81" cy="120.616" r="14.4" fill="#009af9" fill-rule="evenodd" fill-opacity="0.5" stroke="#000000" stroke-opacity="0.5" stroke-width="3.2"/>
<circle clip-path="url(#clip792)" cx="1224.76" cy="1004.46" r="14.4" fill="#009af9" fill-rule="evenodd" fill-opacity="0.5" stroke="#000000" stroke-opacity="0.5" stroke-width="3.2"/>
<circle clip-path="url(#clip792)" cx="1382.55" cy="87.9763" r="14.4" fill="#009af9" fill-rule="evenodd" fill-opacity="0.5" stroke="#000000" stroke-opacity="0.5" stroke-width="3.2"/>
<circle clip-path="url(#clip792)" cx="1459.05" cy="1086.93" r="14.4" fill="#009af9" fill-rule="evenodd" fill-opacity="0.5" stroke="#000000" stroke-opacity="0.5" stroke-width="3.2"/>
<circle clip-path="url(#clip792)" cx="1650.21" cy="1299.08" r="14.4" fill="#009af9" fill-rule="evenodd" fill-opacity="0.5" stroke="#000000" stroke-opacity="0.5" stroke-width="3.2"/>
<circle clip-path="url(#clip792)" cx="973.573" cy="233.814" r="14.4" fill="#009af9" fill-rule="evenodd" fill-opacity="0.5" stroke="#000000" stroke-opacity="0.5" stroke-width="3.2"/>
<circle clip-path="url(#clip792)" cx="1229.21" cy="670.432" r="14.4" fill="#009af9" fill-rule="evenodd" fill-opacity="0.5" stroke="#000000" stroke-opacity="0.5" stroke-width="3.2"/>
<circle clip-path="url(#clip792)" cx="1662.54" cy="529.339" r="14.4" fill="#009af9" fill-rule="evenodd" fill-opacity="0.5" stroke="#000000" stroke-opacity="0.5" stroke-width="3.2"/>
<circle clip-path="url(#clip792)" cx="1063.9" cy="1321.06" r="14.4" fill="#009af9" fill-rule="evenodd" fill-opacity="0.5" stroke="#000000" stroke-opacity="0.5" stroke-width="3.2"/>
<circle clip-path="url(#clip792)" cx="1602.52" cy="1048.74" r="14.4" fill="#009af9" fill-rule="evenodd" fill-opacity="0.5" stroke="#000000" stroke-opacity="0.5" stroke-width="3.2"/>
<circle clip-path="url(#clip792)" cx="1439.12" cy="1083.59" r="14.4" fill="#009af9" fill-rule="evenodd" fill-opacity="0.5" stroke="#000000" stroke-opacity="0.5" stroke-width="3.2"/>
<circle clip-path="url(#clip792)" cx="1549.59" cy="694.038" r="14.4" fill="#009af9" fill-rule="evenodd" fill-opacity="0.5" stroke="#000000" stroke-opacity="0.5" stroke-width="3.2"/>
<circle clip-path="url(#clip792)" cx="883.336" cy="1006.68" r="14.4" fill="#009af9" fill-rule="evenodd" fill-opacity="0.5" stroke="#000000" stroke-opacity="0.5" stroke-width="3.2"/>
<circle clip-path="url(#clip792)" cx="896.217" cy="980.321" r="14.4" fill="#009af9" fill-rule="evenodd" fill-opacity="0.5" stroke="#000000" stroke-opacity="0.5" stroke-width="3.2"/>
<circle clip-path="url(#clip792)" cx="1422.52" cy="890.536" r="14.4" fill="#009af9" fill-rule="evenodd" fill-opacity="0.5" stroke="#000000" stroke-opacity="0.5" stroke-width="3.2"/>
<circle clip-path="url(#clip792)" cx="874.43" cy="563.381" r="14.4" fill="#009af9" fill-rule="evenodd" fill-opacity="0.5" stroke="#000000" stroke-opacity="0.5" stroke-width="3.2"/>
<circle clip-path="url(#clip792)" cx="2099.82" cy="373.904" r="14.4" fill="#009af9" fill-rule="evenodd" fill-opacity="0.5" stroke="#000000" stroke-opacity="0.5" stroke-width="3.2"/>
<circle clip-path="url(#clip792)" cx="1115.06" cy="743.607" r="14.4" fill="#009af9" fill-rule="evenodd" fill-opacity="0.5" stroke="#000000" stroke-opacity="0.5" stroke-width="3.2"/>
<circle clip-path="url(#clip792)" cx="1514.52" cy="535.128" r="14.4" fill="#009af9" fill-rule="evenodd" fill-opacity="0.5" stroke="#000000" stroke-opacity="0.5" stroke-width="3.2"/>
<circle clip-path="url(#clip792)" cx="255.035" cy="1037.8" r="14.4" fill="#009af9" fill-rule="evenodd" fill-opacity="0.5" stroke="#000000" stroke-opacity="0.5" stroke-width="3.2"/>
<circle clip-path="url(#clip792)" cx="845.502" cy="345.574" r="14.4" fill="#009af9" fill-rule="evenodd" fill-opacity="0.5" stroke="#000000" stroke-opacity="0.5" stroke-width="3.2"/>
<circle clip-path="url(#clip792)" cx="1682.66" cy="444.963" r="14.4" fill="#009af9" fill-rule="evenodd" fill-opacity="0.5" stroke="#000000" stroke-opacity="0.5" stroke-width="3.2"/>
<circle clip-path="url(#clip792)" cx="1279.29" cy="608.28" r="14.4" fill="#009af9" fill-rule="evenodd" fill-opacity="0.5" stroke="#000000" stroke-opacity="0.5" stroke-width="3.2"/>
<circle clip-path="url(#clip792)" cx="2291.66" cy="929.609" r="14.4" fill="#009af9" fill-rule="evenodd" fill-opacity="0.5" stroke="#000000" stroke-opacity="0.5" stroke-width="3.2"/>
<circle clip-path="url(#clip792)" cx="923.132" cy="754.327" r="14.4" fill="#009af9" fill-rule="evenodd" fill-opacity="0.5" stroke="#000000" stroke-opacity="0.5" stroke-width="3.2"/>
<circle clip-path="url(#clip792)" cx="1215.14" cy="1445.72" r="14.4" fill="#009af9" fill-rule="evenodd" fill-opacity="0.5" stroke="#000000" stroke-opacity="0.5" stroke-width="3.2"/>
<path clip-path="url(#clip792)" d="M255.035 1037.8 L1215.14 1445.72 L1650.21 1299.08 L2291.66 929.609 L2099.82 373.904 L1977.81 120.616 L1382.55 87.9763 L973.573 233.814 L396.845 698.239 L255.035 1037.8 L255.035 1037.8  Z" fill="#e26f46" fill-rule="evenodd" fill-opacity="0.2"/>
<polyline clip-path="url(#clip792)" style="stroke:#000000; stroke-linecap:round; stroke-linejoin:round; stroke-width:4; stroke-opacity:0.2; fill:none" points="255.035,1037.8 1215.14,1445.72 1650.21,1299.08 2291.66,929.609 2099.82,373.904 1977.81,120.616 1382.55,87.9763 973.573,233.814 396.845,698.239 255.035,1037.8 "/>
</svg>
