<?xml version="1.0" encoding="utf-8"?>
<svg xmlns="http://www.w3.org/2000/svg" xmlns:xlink="http://www.w3.org/1999/xlink" width="600" height="400" viewBox="0 0 2400 1600">
<defs>
  <clipPath id="clip050">
    <rect x="0" y="0" width="2400" height="1600"/>
  </clipPath>
</defs>
<path clip-path="url(#clip050)" d="M0 1600 L2400 1600 L2400 0 L0 0  Z" fill="#ffffff" fill-rule="evenodd" fill-opacity="1"/>
<defs>
  <clipPath id="clip051">
    <rect x="147" y="47" width="2206" height="1440"/>
  </clipPath>
</defs>
<path clip-path="url(#clip050)" d="M147.478 1486.45 L2352.76 1486.45 L2352.76 47.2441 L147.478 47.2441  Z" fill="#ffffff" fill-rule="evenodd" fill-opacity="1"/>
<polyline clip-path="url(#clip051)" style="stroke:#000000; stroke-linecap:round; stroke-linejoin:round; stroke-width:2; stroke-opacity:0.1; fill:none" points="209.6,1486.45 209.6,47.2441 "/>
<polyline clip-path="url(#clip051)" style="stroke:#000000; stroke-linecap:round; stroke-linejoin:round; stroke-width:2; stroke-opacity:0.1; fill:none" points="725.524,1486.45 725.524,47.2441 "/>
<polyline clip-path="url(#clip051)" style="stroke:#000000; stroke-linecap:round; stroke-linejoin:round; stroke-width:2; stroke-opacity:0.1; fill:none" points="1241.45,1486.45 1241.45,47.2441 "/>
<polyline clip-path="url(#clip051)" style="stroke:#000000; stroke-linecap:round; stroke-linejoin:round; stroke-width:2; stroke-opacity:0.1; fill:none" points="1757.37,1486.45 1757.37,47.2441 "/>
<polyline clip-path="url(#clip051)" style="stroke:#000000; stroke-linecap:round; stroke-linejoin:round; stroke-width:2; stroke-opacity:0.1; fill:none" points="2273.3,1486.45 2273.3,47.2441 "/>
<polyline clip-path="url(#clip051)" style="stroke:#000000; stroke-linecap:round; stroke-linejoin:round; stroke-width:2; stroke-opacity:0.1; fill:none" points="147.478,1443.71 2352.76,1443.71 "/>
<polyline clip-path="url(#clip051)" style="stroke:#000000; stroke-linecap:round; stroke-linejoin:round; stroke-width:2; stroke-opacity:0.1; fill:none" points="147.478,1122.07 2352.76,1122.07 "/>
<polyline clip-path="url(#clip051)" style="stroke:#000000; stroke-linecap:round; stroke-linejoin:round; stroke-width:2; stroke-opacity:0.1; fill:none" points="147.478,800.434 2352.76,800.434 "/>
<polyline clip-path="url(#clip051)" style="stroke:#000000; stroke-linecap:round; stroke-linejoin:round; stroke-width:2; stroke-opacity:0.1; fill:none" points="147.478,478.798 2352.76,478.798 "/>
<polyline clip-path="url(#clip051)" style="stroke:#000000; stroke-linecap:round; stroke-linejoin:round; stroke-width:2; stroke-opacity:0.1; fill:none" points="147.478,157.163 2352.76,157.163 "/>
<polyline clip-path="url(#clip050)" style="stroke:#000000; stroke-linecap:round; stroke-linejoin:round; stroke-width:4; stroke-opacity:1; fill:none" points="147.478,1486.45 2352.76,1486.45 "/>
<polyline clip-path="url(#clip050)" style="stroke:#000000; stroke-linecap:round; stroke-linejoin:round; stroke-width:4; stroke-opacity:1; fill:none" points="209.6,1486.45 209.6,1467.55 "/>
<polyline clip-path="url(#clip050)" style="stroke:#000000; stroke-linecap:round; stroke-linejoin:round; stroke-width:4; stroke-opacity:1; fill:none" points="725.524,1486.45 725.524,1467.55 "/>
<polyline clip-path="url(#clip050)" style="stroke:#000000; stroke-linecap:round; stroke-linejoin:round; stroke-width:4; stroke-opacity:1; fill:none" points="1241.45,1486.45 1241.45,1467.55 "/>
<polyline clip-path="url(#clip050)" style="stroke:#000000; stroke-linecap:round; stroke-linejoin:round; stroke-width:4; stroke-opacity:1; fill:none" points="1757.37,1486.45 1757.37,1467.55 "/>
<polyline clip-path="url(#clip050)" style="stroke:#000000; stroke-linecap:round; stroke-linejoin:round; stroke-width:4; stroke-opacity:1; fill:none" points="2273.3,1486.45 2273.3,1467.55 "/>
<path clip-path="url(#clip050)" d="M179.542 1532.02 L209.218 1532.02 L209.218 1535.95 L179.542 1535.95 L179.542 1532.02 Z" fill="#000000" fill-rule="nonzero" fill-opacity="1" /><path clip-path="url(#clip050)" d="M223.338 1544.91 L239.657 1544.91 L239.657 1548.85 L217.713 1548.85 L217.713 1544.91 Q220.375 1542.16 224.958 1537.53 Q229.565 1532.88 230.745 1531.53 Q232.991 1529.01 233.87 1527.27 Q234.773 1525.51 234.773 1523.82 Q234.773 1521.07 232.829 1519.33 Q230.907 1517.6 227.806 1517.6 Q225.606 1517.6 223.153 1518.36 Q220.722 1519.13 217.944 1520.68 L217.944 1515.95 Q220.769 1514.82 223.222 1514.24 Q225.676 1513.66 227.713 1513.66 Q233.083 1513.66 236.278 1516.35 Q239.472 1519.03 239.472 1523.52 Q239.472 1525.65 238.662 1527.57 Q237.875 1529.47 235.768 1532.07 Q235.19 1532.74 232.088 1535.95 Q228.986 1539.15 223.338 1544.91 Z" fill="#000000" fill-rule="nonzero" fill-opacity="1" /><path clip-path="url(#clip050)" d="M695.281 1532.02 L724.957 1532.02 L724.957 1535.95 L695.281 1535.95 L695.281 1532.02 Z" fill="#000000" fill-rule="nonzero" fill-opacity="1" /><path clip-path="url(#clip050)" d="M735.859 1544.91 L743.498 1544.91 L743.498 1518.55 L735.188 1520.21 L735.188 1515.95 L743.452 1514.29 L748.128 1514.29 L748.128 1544.91 L755.767 1544.91 L755.767 1548.85 L735.859 1548.85 L735.859 1544.91 Z" fill="#000000" fill-rule="nonzero" fill-opacity="1" /><path clip-path="url(#clip050)" d="M1241.45 1517.37 Q1237.84 1517.37 1236.01 1520.93 Q1234.2 1524.47 1234.2 1531.6 Q1234.2 1538.71 1236.01 1542.27 Q1237.84 1545.82 1241.45 1545.82 Q1245.08 1545.82 1246.89 1542.27 Q1248.72 1538.71 1248.72 1531.6 Q1248.72 1524.47 1246.89 1520.93 Q1245.08 1517.37 1241.45 1517.37 M1241.45 1513.66 Q1247.26 1513.66 1250.31 1518.27 Q1253.39 1522.85 1253.39 1531.6 Q1253.39 1540.33 1250.31 1544.94 Q1247.26 1549.52 1241.45 1549.52 Q1235.64 1549.52 1232.56 1544.94 Q1229.5 1540.33 1229.5 1531.6 Q1229.5 1522.85 1232.56 1518.27 Q1235.64 1513.66 1241.45 1513.66 Z" fill="#000000" fill-rule="nonzero" fill-opacity="1" /><path clip-path="url(#clip050)" d="M1747.75 1544.91 L1755.39 1544.91 L1755.39 1518.55 L1747.08 1520.21 L1747.08 1515.95 L1755.35 1514.29 L1760.02 1514.29 L1760.02 1544.91 L1767.66 1544.91 L1767.66 1548.85 L1747.75 1548.85 L1747.75 1544.91 Z" fill="#000000" fill-rule="nonzero" fill-opacity="1" /><path clip-path="url(#clip050)" d="M2267.95 1544.91 L2284.27 1544.91 L2284.27 1548.85 L2262.32 1548.85 L2262.32 1544.91 Q2264.99 1542.16 2269.57 1537.53 Q2274.18 1532.88 2275.36 1531.53 Q2277.6 1529.01 2278.48 1527.27 Q2279.38 1525.51 2279.38 1523.82 Q2279.38 1521.07 2277.44 1519.33 Q2275.52 1517.6 2272.42 1517.6 Q2270.22 1517.6 2267.76 1518.36 Q2265.33 1519.13 2262.56 1520.68 L2262.56 1515.95 Q2265.38 1514.82 2267.83 1514.24 Q2270.29 1513.66 2272.32 1513.66 Q2277.69 1513.66 2280.89 1516.35 Q2284.08 1519.03 2284.08 1523.52 Q2284.08 1525.65 2283.27 1527.57 Q2282.49 1529.47 2280.38 1532.07 Q2279.8 1532.74 2276.7 1535.95 Q2273.6 1539.15 2267.95 1544.91 Z" fill="#000000" fill-rule="nonzero" fill-opacity="1" /><polyline clip-path="url(#clip050)" style="stroke:#000000; stroke-linecap:round; stroke-linejoin:round; stroke-width:4; stroke-opacity:1; fill:none" points="147.478,1486.45 147.478,47.2441 "/>
<polyline clip-path="url(#clip050)" style="stroke:#000000; stroke-linecap:round; stroke-linejoin:round; stroke-width:4; stroke-opacity:1; fill:none" points="147.478,1443.71 166.376,1443.71 "/>
<polyline clip-path="url(#clip050)" style="stroke:#000000; stroke-linecap:round; stroke-linejoin:round; stroke-width:4; stroke-opacity:1; fill:none" points="147.478,1122.07 166.376,1122.07 "/>
<polyline clip-path="url(#clip050)" style="stroke:#000000; stroke-linecap:round; stroke-linejoin:round; stroke-width:4; stroke-opacity:1; fill:none" points="147.478,800.434 166.376,800.434 "/>
<polyline clip-path="url(#clip050)" style="stroke:#000000; stroke-linecap:round; stroke-linejoin:round; stroke-width:4; stroke-opacity:1; fill:none" points="147.478,478.798 166.376,478.798 "/>
<polyline clip-path="url(#clip050)" style="stroke:#000000; stroke-linecap:round; stroke-linejoin:round; stroke-width:4; stroke-opacity:1; fill:none" points="147.478,157.163 166.376,157.163 "/>
<path clip-path="url(#clip050)" d="M51.3625 1444.16 L81.0383 1444.16 L81.0383 1448.09 L51.3625 1448.09 L51.3625 1444.16 Z" fill="#000000" fill-rule="nonzero" fill-opacity="1" /><path clip-path="url(#clip050)" d="M95.1586 1457.05 L111.478 1457.05 L111.478 1460.99 L89.5336 1460.99 L89.5336 1457.05 Q92.1956 1454.3 96.7789 1449.67 Q101.385 1445.01 102.566 1443.67 Q104.811 1441.15 105.691 1439.41 Q106.594 1437.65 106.594 1435.96 Q106.594 1433.21 104.649 1431.47 Q102.728 1429.74 99.6261 1429.74 Q97.4271 1429.74 94.9734 1430.5 Q92.5428 1431.26 89.7651 1432.81 L89.7651 1428.09 Q92.5891 1426.96 95.0428 1426.38 Q97.4965 1425.8 99.5335 1425.8 Q104.904 1425.8 108.098 1428.49 Q111.293 1431.17 111.293 1435.66 Q111.293 1437.79 110.483 1439.71 Q109.696 1441.61 107.589 1444.2 Q107.01 1444.87 103.909 1448.09 Q100.807 1451.29 95.1586 1457.05 Z" fill="#000000" fill-rule="nonzero" fill-opacity="1" /><path clip-path="url(#clip050)" d="M50.9921 1122.52 L80.6679 1122.52 L80.6679 1126.46 L50.9921 1126.46 L50.9921 1122.52 Z" fill="#000000" fill-rule="nonzero" fill-opacity="1" /><path clip-path="url(#clip050)" d="M91.5706 1135.41 L99.2095 1135.41 L99.2095 1109.05 L90.8993 1110.72 L90.8993 1106.46 L99.1632 1104.79 L103.839 1104.79 L103.839 1135.41 L111.478 1135.41 L111.478 1139.35 L91.5706 1139.35 L91.5706 1135.41 Z" fill="#000000" fill-rule="nonzero" fill-opacity="1" /><path clip-path="url(#clip050)" d="M99.5335 786.233 Q95.9224 786.233 94.0937 789.798 Q92.2882 793.339 92.2882 800.469 Q92.2882 807.575 94.0937 811.14 Q95.9224 814.682 99.5335 814.682 Q103.168 814.682 104.973 811.14 Q106.802 807.575 106.802 800.469 Q106.802 793.339 104.973 789.798 Q103.168 786.233 99.5335 786.233 M99.5335 782.529 Q105.344 782.529 108.399 787.136 Q111.478 791.719 111.478 800.469 Q111.478 809.196 108.399 813.802 Q105.344 818.386 99.5335 818.386 Q93.7234 818.386 90.6447 813.802 Q87.5892 809.196 87.5892 800.469 Q87.5892 791.719 90.6447 787.136 Q93.7234 782.529 99.5335 782.529 Z" fill="#000000" fill-rule="nonzero" fill-opacity="1" /><path clip-path="url(#clip050)" d="M91.5706 492.143 L99.2095 492.143 L99.2095 465.778 L90.8993 467.444 L90.8993 463.185 L99.1632 461.518 L103.839 461.518 L103.839 492.143 L111.478 492.143 L111.478 496.078 L91.5706 496.078 L91.5706 492.143 Z" fill="#000000" fill-rule="nonzero" fill-opacity="1" /><path clip-path="url(#clip050)" d="M95.1586 170.508 L111.478 170.508 L111.478 174.443 L89.5336 174.443 L89.5336 170.508 Q92.1956 167.753 96.7789 163.123 Q101.385 158.471 102.566 157.128 Q104.811 154.605 105.691 152.869 Q106.594 151.109 106.594 149.42 Q106.594 146.665 104.649 144.929 Q102.728 143.193 99.6261 143.193 Q97.4271 143.193 94.9734 143.957 Q92.5428 144.721 89.7651 146.272 L89.7651 141.549 Q92.5891 140.415 95.0428 139.836 Q97.4965 139.258 99.5335 139.258 Q104.904 139.258 108.098 141.943 Q111.293 144.628 111.293 149.119 Q111.293 151.248 110.483 153.17 Q109.696 155.068 107.589 157.66 Q107.01 158.332 103.909 161.549 Q100.807 164.744 95.1586 170.508 Z" fill="#000000" fill-rule="nonzero" fill-opacity="1" /><circle clip-path="url(#clip051)" cx="1160.96" cy="546.817" r="14.4" fill="#009af9" fill-rule="evenodd" fill-opacity="0.5" stroke="#000000" stroke-opacity="0.5" stroke-width="3.2"/>
<circle clip-path="url(#clip051)" cx="1259.52" cy="188.078" r="14.4" fill="#009af9" fill-rule="evenodd" fill-opacity="0.5" stroke="#000000" stroke-opacity="0.5" stroke-width="3.2"/>
<circle clip-path="url(#clip051)" cx="216.993" cy="1401.69" r="14.4" fill="#009af9" fill-rule="evenodd" fill-opacity="0.5" stroke="#000000" stroke-opacity="0.5" stroke-width="3.2"/>
<circle clip-path="url(#clip051)" cx="1259.05" cy="516.871" r="14.4" fill="#009af9" fill-rule="evenodd" fill-opacity="0.5" stroke="#000000" stroke-opacity="0.5" stroke-width="3.2"/>
<circle clip-path="url(#clip051)" cx="1947.27" cy="1315.02" r="14.4" fill="#009af9" fill-rule="evenodd" fill-opacity="0.5" stroke="#000000" stroke-opacity="0.5" stroke-width="3.2"/>
<circle clip-path="url(#clip051)" cx="748.178" cy="483.631" r="14.4" fill="#009af9" fill-rule="evenodd" fill-opacity="0.5" stroke="#000000" stroke-opacity="0.5" stroke-width="3.2"/>
<circle clip-path="url(#clip051)" cx="1567.68" cy="1434.05" r="14.4" fill="#009af9" fill-rule="evenodd" fill-opacity="0.5" stroke="#000000" stroke-opacity="0.5" stroke-width="3.2"/>
<circle clip-path="url(#clip051)" cx="1058.13" cy="793.388" r="14.4" fill="#009af9" fill-rule="evenodd" fill-opacity="0.5" stroke="#000000" stroke-opacity="0.5" stroke-width="3.2"/>
<circle clip-path="url(#clip051)" cx="2014.29" cy="943.909" r="14.4" fill="#009af9" fill-rule="evenodd" fill-opacity="0.5" stroke="#000000" stroke-opacity="0.5" stroke-width="3.2"/>
<circle clip-path="url(#clip051)" cx="1668.56" cy="883.598" r="14.4" fill="#009af9" fill-rule="evenodd" fill-opacity="0.5" stroke="#000000" stroke-opacity="0.5" stroke-width="3.2"/>
<circle clip-path="url(#clip051)" cx="932.857" cy="535.192" r="14.4" fill="#009af9" fill-rule="evenodd" fill-opacity="0.5" stroke="#000000" stroke-opacity="0.5" stroke-width="3.2"/>
<circle clip-path="url(#clip051)" cx="994.029" cy="515.276" r="14.4" fill="#009af9" fill-rule="evenodd" fill-opacity="0.5" stroke="#000000" stroke-opacity="0.5" stroke-width="3.2"/>
<circle clip-path="url(#clip051)" cx="1245.26" cy="1445.72" r="14.4" fill="#009af9" fill-rule="evenodd" fill-opacity="0.5" stroke="#000000" stroke-opacity="0.5" stroke-width="3.2"/>
<circle clip-path="url(#clip051)" cx="1473.28" cy="595.915" r="14.4" fill="#009af9" fill-rule="evenodd" fill-opacity="0.5" stroke="#000000" stroke-opacity="0.5" stroke-width="3.2"/>
<circle clip-path="url(#clip051)" cx="576.796" cy="921.227" r="14.4" fill="#009af9" fill-rule="evenodd" fill-opacity="0.5" stroke="#000000" stroke-opacity="0.5" stroke-width="3.2"/>
<circle clip-path="url(#clip051)" cx="452.95" cy="925.907" r="14.4" fill="#009af9" fill-rule="evenodd" fill-opacity="0.5" stroke="#000000" stroke-opacity="0.5" stroke-width="3.2"/>
<circle clip-path="url(#clip051)" cx="2059.43" cy="1225.21" r="14.4" fill="#009af9" fill-rule="evenodd" fill-opacity="0.5" stroke="#000000" stroke-opacity="0.5" stroke-width="3.2"/>
<circle clip-path="url(#clip051)" cx="984.458" cy="949.535" r="14.4" fill="#009af9" fill-rule="evenodd" fill-opacity="0.5" stroke="#000000" stroke-opacity="0.5" stroke-width="3.2"/>
<circle clip-path="url(#clip051)" cx="2290.34" cy="804.135" r="14.4" fill="#009af9" fill-rule="evenodd" fill-opacity="0.5" stroke="#000000" stroke-opacity="0.5" stroke-width="3.2"/>
<circle clip-path="url(#clip051)" cx="747.922" cy="755.69" r="14.4" fill="#009af9" fill-rule="evenodd" fill-opacity="0.5" stroke="#000000" stroke-opacity="0.5" stroke-width="3.2"/>
<circle clip-path="url(#clip051)" cx="1733.26" cy="87.9763" r="14.4" fill="#009af9" fill-rule="evenodd" fill-opacity="0.5" stroke="#000000" stroke-opacity="0.5" stroke-width="3.2"/>
<circle clip-path="url(#clip051)" cx="1210.07" cy="1019.79" r="14.4" fill="#009af9" fill-rule="evenodd" fill-opacity="0.5" stroke="#000000" stroke-opacity="0.5" stroke-width="3.2"/>
<circle clip-path="url(#clip051)" cx="810.034" cy="631.197" r="14.4" fill="#009af9" fill-rule="evenodd" fill-opacity="0.5" stroke="#000000" stroke-opacity="0.5" stroke-width="3.2"/>
<circle clip-path="url(#clip051)" cx="645.846" cy="348.202" r="14.4" fill="#009af9" fill-rule="evenodd" fill-opacity="0.5" stroke="#000000" stroke-opacity="0.5" stroke-width="3.2"/>
<circle clip-path="url(#clip051)" cx="646.854" cy="458.84" r="14.4" fill="#009af9" fill-rule="evenodd" fill-opacity="0.5" stroke="#000000" stroke-opacity="0.5" stroke-width="3.2"/>
<circle clip-path="url(#clip051)" cx="209.891" cy="542.85" r="14.4" fill="#009af9" fill-rule="evenodd" fill-opacity="0.5" stroke="#000000" stroke-opacity="0.5" stroke-width="3.2"/>
<circle clip-path="url(#clip051)" cx="1216.32" cy="737.56" r="14.4" fill="#009af9" fill-rule="evenodd" fill-opacity="0.5" stroke="#000000" stroke-opacity="0.5" stroke-width="3.2"/>
<circle clip-path="url(#clip051)" cx="1134.14" cy="283.679" r="14.4" fill="#009af9" fill-rule="evenodd" fill-opacity="0.5" stroke="#000000" stroke-opacity="0.5" stroke-width="3.2"/>
<circle clip-path="url(#clip051)" cx="238.259" cy="407.815" r="14.4" fill="#009af9" fill-rule="evenodd" fill-opacity="0.5" stroke="#000000" stroke-opacity="0.5" stroke-width="3.2"/>
<circle clip-path="url(#clip051)" cx="1019.3" cy="798.883" r="14.4" fill="#009af9" fill-rule="evenodd" fill-opacity="0.5" stroke="#000000" stroke-opacity="0.5" stroke-width="3.2"/>
<path clip-path="url(#clip051)" d="M209.891 542.85 L216.993 1401.69 L1245.26 1445.72 L1567.68 1434.05 L1947.27 1315.02 L2059.43 1225.21 L2290.34 804.135 L1733.26 87.9763 L1259.52 188.078 L238.259 407.815 L209.891 542.85 L209.891 542.85  Z" fill="#e26f46" fill-rule="evenodd" fill-opacity="0.2"/>
<polyline clip-path="url(#clip051)" style="stroke:#000000; stroke-linecap:round; stroke-linejoin:round; stroke-width:4; stroke-opacity:0.2; fill:none" points="209.891,542.85 216.993,1401.69 1245.26,1445.72 1567.68,1434.05 1947.27,1315.02 2059.43,1225.21 2290.34,804.135 1733.26,87.9763 1259.52,188.078 238.259,407.815 209.891,542.85 "/>
</svg>
