<?xml version="1.0" encoding="utf-8"?>
<svg xmlns="http://www.w3.org/2000/svg" xmlns:xlink="http://www.w3.org/1999/xlink" width="600" height="400" viewBox="0 0 2400 1600">
<defs>
  <clipPath id="clip140">
    <rect x="0" y="0" width="2400" height="1600"/>
  </clipPath>
</defs>
<path clip-path="url(#clip140)" d="M0 1600 L2400 1600 L2400 0 L0 0  Z" fill="#ffffff" fill-rule="evenodd" fill-opacity="1"/>
<defs>
  <clipPath id="clip141">
    <rect x="480" y="0" width="1681" height="1600"/>
  </clipPath>
</defs>
<path clip-path="url(#clip140)" d="M147.478 1486.45 L2352.76 1486.45 L2352.76 47.2441 L147.478 47.2441  Z" fill="#ffffff" fill-rule="evenodd" fill-opacity="1"/>
<defs>
  <clipPath id="clip142">
    <rect x="147" y="47" width="2206" height="1440"/>
  </clipPath>
</defs>
<polyline clip-path="url(#clip142)" style="stroke:#000000; stroke-linecap:round; stroke-linejoin:round; stroke-width:2; stroke-opacity:0.1; fill:none" points="315.379,1486.45 315.379,47.2441 "/>
<polyline clip-path="url(#clip142)" style="stroke:#000000; stroke-linecap:round; stroke-linejoin:round; stroke-width:2; stroke-opacity:0.1; fill:none" points="844.995,1486.45 844.995,47.2441 "/>
<polyline clip-path="url(#clip142)" style="stroke:#000000; stroke-linecap:round; stroke-linejoin:round; stroke-width:2; stroke-opacity:0.1; fill:none" points="1374.61,1486.45 1374.61,47.2441 "/>
<polyline clip-path="url(#clip142)" style="stroke:#000000; stroke-linecap:round; stroke-linejoin:round; stroke-width:2; stroke-opacity:0.1; fill:none" points="1904.23,1486.45 1904.23,47.2441 "/>
<polyline clip-path="url(#clip142)" style="stroke:#000000; stroke-linecap:round; stroke-linejoin:round; stroke-width:2; stroke-opacity:0.1; fill:none" points="147.478,1439.9 2352.76,1439.9 "/>
<polyline clip-path="url(#clip142)" style="stroke:#000000; stroke-linecap:round; stroke-linejoin:round; stroke-width:2; stroke-opacity:0.1; fill:none" points="147.478,1096.32 2352.76,1096.32 "/>
<polyline clip-path="url(#clip142)" style="stroke:#000000; stroke-linecap:round; stroke-linejoin:round; stroke-width:2; stroke-opacity:0.1; fill:none" points="147.478,752.732 2352.76,752.732 "/>
<polyline clip-path="url(#clip142)" style="stroke:#000000; stroke-linecap:round; stroke-linejoin:round; stroke-width:2; stroke-opacity:0.1; fill:none" points="147.478,409.147 2352.76,409.147 "/>
<polyline clip-path="url(#clip142)" style="stroke:#000000; stroke-linecap:round; stroke-linejoin:round; stroke-width:2; stroke-opacity:0.1; fill:none" points="147.478,65.5634 2352.76,65.5634 "/>
<polyline clip-path="url(#clip140)" style="stroke:#000000; stroke-linecap:round; stroke-linejoin:round; stroke-width:4; stroke-opacity:1; fill:none" points="147.478,1486.45 2352.76,1486.45 "/>
<polyline clip-path="url(#clip140)" style="stroke:#000000; stroke-linecap:round; stroke-linejoin:round; stroke-width:4; stroke-opacity:1; fill:none" points="315.379,1486.45 315.379,1467.55 "/>
<polyline clip-path="url(#clip140)" style="stroke:#000000; stroke-linecap:round; stroke-linejoin:round; stroke-width:4; stroke-opacity:1; fill:none" points="844.995,1486.45 844.995,1467.55 "/>
<polyline clip-path="url(#clip140)" style="stroke:#000000; stroke-linecap:round; stroke-linejoin:round; stroke-width:4; stroke-opacity:1; fill:none" points="1374.61,1486.45 1374.61,1467.55 "/>
<polyline clip-path="url(#clip140)" style="stroke:#000000; stroke-linecap:round; stroke-linejoin:round; stroke-width:4; stroke-opacity:1; fill:none" points="1904.23,1486.45 1904.23,1467.55 "/>
<path clip-path="url(#clip140)" d="M285.321 1532.02 L314.997 1532.02 L314.997 1535.95 L285.321 1535.95 L285.321 1532.02 Z" fill="#000000" fill-rule="nonzero" fill-opacity="1" /><path clip-path="url(#clip140)" d="M329.117 1544.91 L345.436 1544.91 L345.436 1548.85 L323.492 1548.85 L323.492 1544.91 Q326.154 1542.16 330.737 1537.53 Q335.344 1532.88 336.524 1531.53 Q338.77 1529.01 339.649 1527.27 Q340.552 1525.51 340.552 1523.82 Q340.552 1521.07 338.608 1519.33 Q336.686 1517.6 333.585 1517.6 Q331.386 1517.6 328.932 1518.36 Q326.501 1519.13 323.724 1520.68 L323.724 1515.95 Q326.548 1514.82 329.001 1514.24 Q331.455 1513.66 333.492 1513.66 Q338.862 1513.66 342.057 1516.35 Q345.251 1519.03 345.251 1523.52 Q345.251 1525.65 344.441 1527.57 Q343.654 1529.47 341.548 1532.07 Q340.969 1532.74 337.867 1535.95 Q334.765 1539.15 329.117 1544.91 Z" fill="#000000" fill-rule="nonzero" fill-opacity="1" /><path clip-path="url(#clip140)" d="M814.752 1532.02 L844.428 1532.02 L844.428 1535.95 L814.752 1535.95 L814.752 1532.02 Z" fill="#000000" fill-rule="nonzero" fill-opacity="1" /><path clip-path="url(#clip140)" d="M855.331 1544.91 L862.97 1544.91 L862.97 1518.55 L854.66 1520.21 L854.66 1515.95 L862.923 1514.29 L867.599 1514.29 L867.599 1544.91 L875.238 1544.91 L875.238 1548.85 L855.331 1548.85 L855.331 1544.91 Z" fill="#000000" fill-rule="nonzero" fill-opacity="1" /><path clip-path="url(#clip140)" d="M1374.61 1517.37 Q1371 1517.37 1369.17 1520.93 Q1367.37 1524.47 1367.37 1531.6 Q1367.37 1538.71 1369.17 1542.27 Q1371 1545.82 1374.61 1545.82 Q1378.25 1545.82 1380.05 1542.27 Q1381.88 1538.71 1381.88 1531.6 Q1381.88 1524.47 1380.05 1520.93 Q1378.25 1517.37 1374.61 1517.37 M1374.61 1513.66 Q1380.42 1513.66 1383.48 1518.27 Q1386.56 1522.85 1386.56 1531.6 Q1386.56 1540.33 1383.48 1544.94 Q1380.42 1549.52 1374.61 1549.52 Q1368.8 1549.52 1365.72 1544.94 Q1362.67 1540.33 1362.67 1531.6 Q1362.67 1522.85 1365.72 1518.27 Q1368.8 1513.66 1374.61 1513.66 Z" fill="#000000" fill-rule="nonzero" fill-opacity="1" /><path clip-path="url(#clip140)" d="M1894.61 1544.91 L1902.25 1544.91 L1902.25 1518.55 L1893.94 1520.21 L1893.94 1515.95 L1902.2 1514.29 L1906.88 1514.29 L1906.88 1544.91 L1914.52 1544.91 L1914.52 1548.85 L1894.61 1548.85 L1894.61 1544.91 Z" fill="#000000" fill-rule="nonzero" fill-opacity="1" /><polyline clip-path="url(#clip140)" style="stroke:#000000; stroke-linecap:round; stroke-linejoin:round; stroke-width:4; stroke-opacity:1; fill:none" points="147.478,1486.45 147.478,47.2441 "/>
<polyline clip-path="url(#clip140)" style="stroke:#000000; stroke-linecap:round; stroke-linejoin:round; stroke-width:4; stroke-opacity:1; fill:none" points="147.478,1439.9 166.376,1439.9 "/>
<polyline clip-path="url(#clip140)" style="stroke:#000000; stroke-linecap:round; stroke-linejoin:round; stroke-width:4; stroke-opacity:1; fill:none" points="147.478,1096.32 166.376,1096.32 "/>
<polyline clip-path="url(#clip140)" style="stroke:#000000; stroke-linecap:round; stroke-linejoin:round; stroke-width:4; stroke-opacity:1; fill:none" points="147.478,752.732 166.376,752.732 "/>
<polyline clip-path="url(#clip140)" style="stroke:#000000; stroke-linecap:round; stroke-linejoin:round; stroke-width:4; stroke-opacity:1; fill:none" points="147.478,409.147 166.376,409.147 "/>
<polyline clip-path="url(#clip140)" style="stroke:#000000; stroke-linecap:round; stroke-linejoin:round; stroke-width:4; stroke-opacity:1; fill:none" points="147.478,65.5634 166.376,65.5634 "/>
<path clip-path="url(#clip140)" d="M51.3625 1440.35 L81.0383 1440.35 L81.0383 1444.29 L51.3625 1444.29 L51.3625 1440.35 Z" fill="#000000" fill-rule="nonzero" fill-opacity="1" /><path clip-path="url(#clip140)" d="M95.1586 1453.24 L111.478 1453.24 L111.478 1457.18 L89.5336 1457.18 L89.5336 1453.24 Q92.1956 1450.49 96.7789 1445.86 Q101.385 1441.21 102.566 1439.87 Q104.811 1437.34 105.691 1435.61 Q106.594 1433.85 106.594 1432.16 Q106.594 1429.4 104.649 1427.67 Q102.728 1425.93 99.6261 1425.93 Q97.4271 1425.93 94.9734 1426.69 Q92.5428 1427.46 89.7651 1429.01 L89.7651 1424.29 Q92.5891 1423.15 95.0428 1422.57 Q97.4965 1421.99 99.5335 1421.99 Q104.904 1421.99 108.098 1424.68 Q111.293 1427.37 111.293 1431.86 Q111.293 1433.99 110.483 1435.91 Q109.696 1437.8 107.589 1440.4 Q107.01 1441.07 103.909 1444.29 Q100.807 1447.48 95.1586 1453.24 Z" fill="#000000" fill-rule="nonzero" fill-opacity="1" /><path clip-path="url(#clip140)" d="M50.9921 1096.77 L80.6679 1096.77 L80.6679 1100.7 L50.9921 1100.7 L50.9921 1096.77 Z" fill="#000000" fill-rule="nonzero" fill-opacity="1" /><path clip-path="url(#clip140)" d="M91.5706 1109.66 L99.2095 1109.66 L99.2095 1083.29 L90.8993 1084.96 L90.8993 1080.7 L99.1632 1079.04 L103.839 1079.04 L103.839 1109.66 L111.478 1109.66 L111.478 1113.6 L91.5706 1113.6 L91.5706 1109.66 Z" fill="#000000" fill-rule="nonzero" fill-opacity="1" /><path clip-path="url(#clip140)" d="M99.5335 738.53 Q95.9224 738.53 94.0937 742.095 Q92.2882 745.637 92.2882 752.766 Q92.2882 759.873 94.0937 763.438 Q95.9224 766.979 99.5335 766.979 Q103.168 766.979 104.973 763.438 Q106.802 759.873 106.802 752.766 Q106.802 745.637 104.973 742.095 Q103.168 738.53 99.5335 738.53 M99.5335 734.827 Q105.344 734.827 108.399 739.433 Q111.478 744.016 111.478 752.766 Q111.478 761.493 108.399 766.1 Q105.344 770.683 99.5335 770.683 Q93.7234 770.683 90.6447 766.1 Q87.5892 761.493 87.5892 752.766 Q87.5892 744.016 90.6447 739.433 Q93.7234 734.827 99.5335 734.827 Z" fill="#000000" fill-rule="nonzero" fill-opacity="1" /><path clip-path="url(#clip140)" d="M91.5706 422.492 L99.2095 422.492 L99.2095 396.127 L90.8993 397.793 L90.8993 393.534 L99.1632 391.867 L103.839 391.867 L103.839 422.492 L111.478 422.492 L111.478 426.427 L91.5706 426.427 L91.5706 422.492 Z" fill="#000000" fill-rule="nonzero" fill-opacity="1" /><path clip-path="url(#clip140)" d="M95.1586 78.9082 L111.478 78.9082 L111.478 82.8434 L89.5336 82.8434 L89.5336 78.9082 Q92.1956 76.1536 96.7789 71.524 Q101.385 66.8712 102.566 65.5286 Q104.811 63.0055 105.691 61.2694 Q106.594 59.5102 106.594 57.8204 Q106.594 55.0657 104.649 53.3296 Q102.728 51.5935 99.6261 51.5935 Q97.4271 51.5935 94.9734 52.3574 Q92.5428 53.1213 89.7651 54.6722 L89.7651 49.95 Q92.5891 48.8158 95.0428 48.2371 Q97.4965 47.6584 99.5335 47.6584 Q104.904 47.6584 108.098 50.3435 Q111.293 53.0287 111.293 57.5194 Q111.293 59.649 110.483 61.5703 Q109.696 63.4685 107.589 66.061 Q107.01 66.7323 103.909 69.9499 Q100.807 73.1443 95.1586 78.9082 Z" fill="#000000" fill-rule="nonzero" fill-opacity="1" /><circle clip-path="url(#clip142)" cx="1484.88" cy="592.931" r="14.4" fill="#009af9" fill-rule="evenodd" fill-opacity="0.5" stroke="#000000" stroke-opacity="0.5" stroke-width="3.2"/>
<circle clip-path="url(#clip142)" cx="1235.78" cy="275.445" r="14.4" fill="#009af9" fill-rule="evenodd" fill-opacity="0.5" stroke="#000000" stroke-opacity="0.5" stroke-width="3.2"/>
<circle clip-path="url(#clip142)" cx="1533.48" cy="864.206" r="14.4" fill="#009af9" fill-rule="evenodd" fill-opacity="0.5" stroke="#000000" stroke-opacity="0.5" stroke-width="3.2"/>
<circle clip-path="url(#clip142)" cx="1841.02" cy="804.186" r="14.4" fill="#009af9" fill-rule="evenodd" fill-opacity="0.5" stroke="#000000" stroke-opacity="0.5" stroke-width="3.2"/>
<circle clip-path="url(#clip142)" cx="2290.34" cy="710.37" r="14.4" fill="#009af9" fill-rule="evenodd" fill-opacity="0.5" stroke="#000000" stroke-opacity="0.5" stroke-width="3.2"/>
<circle clip-path="url(#clip142)" cx="1031" cy="1053.27" r="14.4" fill="#009af9" fill-rule="evenodd" fill-opacity="0.5" stroke="#000000" stroke-opacity="0.5" stroke-width="3.2"/>
<circle clip-path="url(#clip142)" cx="209.891" cy="358.391" r="14.4" fill="#009af9" fill-rule="evenodd" fill-opacity="0.5" stroke="#000000" stroke-opacity="0.5" stroke-width="3.2"/>
<circle clip-path="url(#clip142)" cx="1684.91" cy="510.161" r="14.4" fill="#009af9" fill-rule="evenodd" fill-opacity="0.5" stroke="#000000" stroke-opacity="0.5" stroke-width="3.2"/>
<circle clip-path="url(#clip142)" cx="1168.98" cy="1083.4" r="14.4" fill="#009af9" fill-rule="evenodd" fill-opacity="0.5" stroke="#000000" stroke-opacity="0.5" stroke-width="3.2"/>
<circle clip-path="url(#clip142)" cx="1862.85" cy="115.618" r="14.4" fill="#009af9" fill-rule="evenodd" fill-opacity="0.5" stroke="#000000" stroke-opacity="0.5" stroke-width="3.2"/>
<circle clip-path="url(#clip142)" cx="1454.13" cy="914.583" r="14.4" fill="#009af9" fill-rule="evenodd" fill-opacity="0.5" stroke="#000000" stroke-opacity="0.5" stroke-width="3.2"/>
<circle clip-path="url(#clip142)" cx="424.841" cy="405.55" r="14.4" fill="#009af9" fill-rule="evenodd" fill-opacity="0.5" stroke="#000000" stroke-opacity="0.5" stroke-width="3.2"/>
<circle clip-path="url(#clip142)" cx="1057.67" cy="1043.66" r="14.4" fill="#009af9" fill-rule="evenodd" fill-opacity="0.5" stroke="#000000" stroke-opacity="0.5" stroke-width="3.2"/>
<circle clip-path="url(#clip142)" cx="2089.99" cy="892.092" r="14.4" fill="#009af9" fill-rule="evenodd" fill-opacity="0.5" stroke="#000000" stroke-opacity="0.5" stroke-width="3.2"/>
<circle clip-path="url(#clip142)" cx="2053.81" cy="793.237" r="14.4" fill="#009af9" fill-rule="evenodd" fill-opacity="0.5" stroke="#000000" stroke-opacity="0.5" stroke-width="3.2"/>
<circle clip-path="url(#clip142)" cx="1476.35" cy="1331.09" r="14.4" fill="#009af9" fill-rule="evenodd" fill-opacity="0.5" stroke="#000000" stroke-opacity="0.5" stroke-width="3.2"/>
<circle clip-path="url(#clip142)" cx="1072.79" cy="824.779" r="14.4" fill="#009af9" fill-rule="evenodd" fill-opacity="0.5" stroke="#000000" stroke-opacity="0.5" stroke-width="3.2"/>
<circle clip-path="url(#clip142)" cx="1000.6" cy="391.34" r="14.4" fill="#009af9" fill-rule="evenodd" fill-opacity="0.5" stroke="#000000" stroke-opacity="0.5" stroke-width="3.2"/>
<circle clip-path="url(#clip142)" cx="1651.32" cy="462.785" r="14.4" fill="#009af9" fill-rule="evenodd" fill-opacity="0.5" stroke="#000000" stroke-opacity="0.5" stroke-width="3.2"/>
<circle clip-path="url(#clip142)" cx="1852.16" cy="314.08" r="14.4" fill="#009af9" fill-rule="evenodd" fill-opacity="0.5" stroke="#000000" stroke-opacity="0.5" stroke-width="3.2"/>
<circle clip-path="url(#clip142)" cx="1345.04" cy="1078.74" r="14.4" fill="#009af9" fill-rule="evenodd" fill-opacity="0.5" stroke="#000000" stroke-opacity="0.5" stroke-width="3.2"/>
<circle clip-path="url(#clip142)" cx="1795.19" cy="902.706" r="14.4" fill="#009af9" fill-rule="evenodd" fill-opacity="0.5" stroke="#000000" stroke-opacity="0.5" stroke-width="3.2"/>
<circle clip-path="url(#clip142)" cx="1683.46" cy="546.834" r="14.4" fill="#009af9" fill-rule="evenodd" fill-opacity="0.5" stroke="#000000" stroke-opacity="0.5" stroke-width="3.2"/>
<circle clip-path="url(#clip142)" cx="804.23" cy="594.625" r="14.4" fill="#009af9" fill-rule="evenodd" fill-opacity="0.5" stroke="#000000" stroke-opacity="0.5" stroke-width="3.2"/>
<circle clip-path="url(#clip142)" cx="837.9" cy="1445.72" r="14.4" fill="#009af9" fill-rule="evenodd" fill-opacity="0.5" stroke="#000000" stroke-opacity="0.5" stroke-width="3.2"/>
<circle clip-path="url(#clip142)" cx="1078.62" cy="801.009" r="14.4" fill="#009af9" fill-rule="evenodd" fill-opacity="0.5" stroke="#000000" stroke-opacity="0.5" stroke-width="3.2"/>
<circle clip-path="url(#clip142)" cx="2132.13" cy="87.9763" r="14.4" fill="#009af9" fill-rule="evenodd" fill-opacity="0.5" stroke="#000000" stroke-opacity="0.5" stroke-width="3.2"/>
<circle clip-path="url(#clip142)" cx="432.425" cy="763.125" r="14.4" fill="#009af9" fill-rule="evenodd" fill-opacity="0.5" stroke="#000000" stroke-opacity="0.5" stroke-width="3.2"/>
<circle clip-path="url(#clip142)" cx="1357.29" cy="473.751" r="14.4" fill="#009af9" fill-rule="evenodd" fill-opacity="0.5" stroke="#000000" stroke-opacity="0.5" stroke-width="3.2"/>
<circle clip-path="url(#clip142)" cx="855.169" cy="672.559" r="14.4" fill="#009af9" fill-rule="evenodd" fill-opacity="0.5" stroke="#000000" stroke-opacity="0.5" stroke-width="3.2"/>
<path clip-path="url(#clip142)" d="M209.891 358.391 L432.425 763.125 L837.9 1445.72 L1476.35 1331.09 L2089.99 892.092 L2290.34 710.37 L2132.13 87.9763 L1862.85 115.618 L209.891 358.391 L209.891 358.391  Z" fill="#e26f46" fill-rule="evenodd" fill-opacity="0.2"/>
<polyline clip-path="url(#clip142)" style="stroke:#000000; stroke-linecap:round; stroke-linejoin:round; stroke-width:4; stroke-opacity:0.2; fill:none" points="209.891,358.391 432.425,763.125 837.9,1445.72 1476.35,1331.09 2089.99,892.092 2290.34,710.37 2132.13,87.9763 1862.85,115.618 209.891,358.391 "/>
</svg>
