<?xml version="1.0" encoding="utf-8"?>
<svg xmlns="http://www.w3.org/2000/svg" xmlns:xlink="http://www.w3.org/1999/xlink" width="600" height="400" viewBox="0 0 2400 1600">
<defs>
  <clipPath id="clip700">
    <rect x="0" y="0" width="2400" height="1600"/>
  </clipPath>
</defs>
<path clip-path="url(#clip700)" d="M0 1600 L2400 1600 L2400 0 L0 0  Z" fill="#ffffff" fill-rule="evenodd" fill-opacity="1"/>
<defs>
  <clipPath id="clip701">
    <rect x="480" y="0" width="1681" height="1600"/>
  </clipPath>
</defs>
<path clip-path="url(#clip700)" d="M147.478 1486.45 L2352.76 1486.45 L2352.76 47.2441 L147.478 47.2441  Z" fill="#ffffff" fill-rule="evenodd" fill-opacity="1"/>
<defs>
  <clipPath id="clip702">
    <rect x="147" y="47" width="2206" height="1440"/>
  </clipPath>
</defs>
<polyline clip-path="url(#clip702)" style="stroke:#000000; stroke-linecap:round; stroke-linejoin:round; stroke-width:2; stroke-opacity:0.1; fill:none" points="443.944,1486.45 443.944,47.2441 "/>
<polyline clip-path="url(#clip702)" style="stroke:#000000; stroke-linecap:round; stroke-linejoin:round; stroke-width:2; stroke-opacity:0.1; fill:none" points="979.504,1486.45 979.504,47.2441 "/>
<polyline clip-path="url(#clip702)" style="stroke:#000000; stroke-linecap:round; stroke-linejoin:round; stroke-width:2; stroke-opacity:0.1; fill:none" points="1515.06,1486.45 1515.06,47.2441 "/>
<polyline clip-path="url(#clip702)" style="stroke:#000000; stroke-linecap:round; stroke-linejoin:round; stroke-width:2; stroke-opacity:0.1; fill:none" points="2050.62,1486.45 2050.62,47.2441 "/>
<polyline clip-path="url(#clip700)" style="stroke:#000000; stroke-linecap:round; stroke-linejoin:round; stroke-width:4; stroke-opacity:1; fill:none" points="147.478,1486.45 2352.76,1486.45 "/>
<polyline clip-path="url(#clip700)" style="stroke:#000000; stroke-linecap:round; stroke-linejoin:round; stroke-width:4; stroke-opacity:1; fill:none" points="443.944,1486.45 443.944,1467.55 "/>
<polyline clip-path="url(#clip700)" style="stroke:#000000; stroke-linecap:round; stroke-linejoin:round; stroke-width:4; stroke-opacity:1; fill:none" points="979.504,1486.45 979.504,1467.55 "/>
<polyline clip-path="url(#clip700)" style="stroke:#000000; stroke-linecap:round; stroke-linejoin:round; stroke-width:4; stroke-opacity:1; fill:none" points="1515.06,1486.45 1515.06,1467.55 "/>
<polyline clip-path="url(#clip700)" style="stroke:#000000; stroke-linecap:round; stroke-linejoin:round; stroke-width:4; stroke-opacity:1; fill:none" points="2050.62,1486.45 2050.62,1467.55 "/>
<path clip-path="url(#clip700)" d="M413.701 1532.02 L443.377 1532.02 L443.377 1535.95 L413.701 1535.95 L413.701 1532.02 Z" fill="#000000" fill-rule="nonzero" fill-opacity="1" /><path clip-path="url(#clip700)" d="M454.279 1544.91 L461.918 1544.91 L461.918 1518.55 L453.608 1520.21 L453.608 1515.95 L461.872 1514.29 L466.548 1514.29 L466.548 1544.91 L474.187 1544.91 L474.187 1548.85 L454.279 1548.85 L454.279 1544.91 Z" fill="#000000" fill-rule="nonzero" fill-opacity="1" /><path clip-path="url(#clip700)" d="M979.504 1517.37 Q975.893 1517.37 974.064 1520.93 Q972.258 1524.47 972.258 1531.6 Q972.258 1538.71 974.064 1542.27 Q975.893 1545.82 979.504 1545.82 Q983.138 1545.82 984.943 1542.27 Q986.772 1538.71 986.772 1531.6 Q986.772 1524.47 984.943 1520.93 Q983.138 1517.37 979.504 1517.37 M979.504 1513.66 Q985.314 1513.66 988.369 1518.27 Q991.448 1522.85 991.448 1531.6 Q991.448 1540.33 988.369 1544.94 Q985.314 1549.52 979.504 1549.52 Q973.694 1549.52 970.615 1544.94 Q967.559 1540.33 967.559 1531.6 Q967.559 1522.85 970.615 1518.27 Q973.694 1513.66 979.504 1513.66 Z" fill="#000000" fill-rule="nonzero" fill-opacity="1" /><path clip-path="url(#clip700)" d="M1505.45 1544.91 L1513.08 1544.91 L1513.08 1518.55 L1504.77 1520.21 L1504.77 1515.95 L1513.04 1514.29 L1517.71 1514.29 L1517.71 1544.91 L1525.35 1544.91 L1525.35 1548.85 L1505.45 1548.85 L1505.45 1544.91 Z" fill="#000000" fill-rule="nonzero" fill-opacity="1" /><path clip-path="url(#clip700)" d="M2045.28 1544.91 L2061.6 1544.91 L2061.6 1548.85 L2039.65 1548.85 L2039.65 1544.91 Q2042.31 1542.16 2046.9 1537.53 Q2051.5 1532.88 2052.68 1531.53 Q2054.93 1529.01 2055.81 1527.27 Q2056.71 1525.51 2056.71 1523.82 Q2056.71 1521.07 2054.77 1519.33 Q2052.85 1517.6 2049.74 1517.6 Q2047.54 1517.6 2045.09 1518.36 Q2042.66 1519.13 2039.88 1520.68 L2039.88 1515.95 Q2042.71 1514.82 2045.16 1514.24 Q2047.61 1513.66 2049.65 1513.66 Q2055.02 1513.66 2058.22 1516.35 Q2061.41 1519.03 2061.41 1523.52 Q2061.41 1525.65 2060.6 1527.57 Q2059.81 1529.47 2057.71 1532.07 Q2057.13 1532.74 2054.03 1535.95 Q2050.92 1539.15 2045.28 1544.91 Z" fill="#000000" fill-rule="nonzero" fill-opacity="1" /><polyline clip-path="url(#clip702)" style="stroke:#000000; stroke-linecap:round; stroke-linejoin:round; stroke-width:2; stroke-opacity:0.1; fill:none" points="147.478,1359.05 2352.76,1359.05 "/>
<polyline clip-path="url(#clip702)" style="stroke:#000000; stroke-linecap:round; stroke-linejoin:round; stroke-width:2; stroke-opacity:0.1; fill:none" points="147.478,1001.83 2352.76,1001.83 "/>
<polyline clip-path="url(#clip702)" style="stroke:#000000; stroke-linecap:round; stroke-linejoin:round; stroke-width:2; stroke-opacity:0.1; fill:none" points="147.478,644.606 2352.76,644.606 "/>
<polyline clip-path="url(#clip702)" style="stroke:#000000; stroke-linecap:round; stroke-linejoin:round; stroke-width:2; stroke-opacity:0.1; fill:none" points="147.478,287.383 2352.76,287.383 "/>
<polyline clip-path="url(#clip700)" style="stroke:#000000; stroke-linecap:round; stroke-linejoin:round; stroke-width:4; stroke-opacity:1; fill:none" points="147.478,1486.45 147.478,47.2441 "/>
<polyline clip-path="url(#clip700)" style="stroke:#000000; stroke-linecap:round; stroke-linejoin:round; stroke-width:4; stroke-opacity:1; fill:none" points="147.478,1359.05 166.376,1359.05 "/>
<polyline clip-path="url(#clip700)" style="stroke:#000000; stroke-linecap:round; stroke-linejoin:round; stroke-width:4; stroke-opacity:1; fill:none" points="147.478,1001.83 166.376,1001.83 "/>
<polyline clip-path="url(#clip700)" style="stroke:#000000; stroke-linecap:round; stroke-linejoin:round; stroke-width:4; stroke-opacity:1; fill:none" points="147.478,644.606 166.376,644.606 "/>
<polyline clip-path="url(#clip700)" style="stroke:#000000; stroke-linecap:round; stroke-linejoin:round; stroke-width:4; stroke-opacity:1; fill:none" points="147.478,287.383 166.376,287.383 "/>
<path clip-path="url(#clip700)" d="M51.3625 1359.5 L81.0383 1359.5 L81.0383 1363.44 L51.3625 1363.44 L51.3625 1359.5 Z" fill="#000000" fill-rule="nonzero" fill-opacity="1" /><path clip-path="url(#clip700)" d="M95.1586 1372.4 L111.478 1372.4 L111.478 1376.33 L89.5336 1376.33 L89.5336 1372.4 Q92.1956 1369.64 96.7789 1365.01 Q101.385 1360.36 102.566 1359.02 Q104.811 1356.49 105.691 1354.76 Q106.594 1353 106.594 1351.31 Q106.594 1348.55 104.649 1346.82 Q102.728 1345.08 99.6261 1345.08 Q97.4271 1345.08 94.9734 1345.85 Q92.5428 1346.61 89.7651 1348.16 L89.7651 1343.44 Q92.5891 1342.3 95.0428 1341.73 Q97.4965 1341.15 99.5335 1341.15 Q104.904 1341.15 108.098 1343.83 Q111.293 1346.52 111.293 1351.01 Q111.293 1353.14 110.483 1355.06 Q109.696 1356.96 107.589 1359.55 Q107.01 1360.22 103.909 1363.44 Q100.807 1366.63 95.1586 1372.4 Z" fill="#000000" fill-rule="nonzero" fill-opacity="1" /><path clip-path="url(#clip700)" d="M50.9921 1002.28 L80.6679 1002.28 L80.6679 1006.22 L50.9921 1006.22 L50.9921 1002.28 Z" fill="#000000" fill-rule="nonzero" fill-opacity="1" /><path clip-path="url(#clip700)" d="M91.5706 1015.17 L99.2095 1015.17 L99.2095 988.808 L90.8993 990.475 L90.8993 986.216 L99.1632 984.549 L103.839 984.549 L103.839 1015.17 L111.478 1015.17 L111.478 1019.11 L91.5706 1019.11 L91.5706 1015.17 Z" fill="#000000" fill-rule="nonzero" fill-opacity="1" /><path clip-path="url(#clip700)" d="M99.5335 630.405 Q95.9224 630.405 94.0937 633.97 Q92.2882 637.511 92.2882 644.641 Q92.2882 651.747 94.0937 655.312 Q95.9224 658.854 99.5335 658.854 Q103.168 658.854 104.973 655.312 Q106.802 651.747 106.802 644.641 Q106.802 637.511 104.973 633.97 Q103.168 630.405 99.5335 630.405 M99.5335 626.701 Q105.344 626.701 108.399 631.308 Q111.478 635.891 111.478 644.641 Q111.478 653.368 108.399 657.974 Q105.344 662.557 99.5335 662.557 Q93.7234 662.557 90.6447 657.974 Q87.5892 653.368 87.5892 644.641 Q87.5892 635.891 90.6447 631.308 Q93.7234 626.701 99.5335 626.701 Z" fill="#000000" fill-rule="nonzero" fill-opacity="1" /><path clip-path="url(#clip700)" d="M91.5706 300.728 L99.2095 300.728 L99.2095 274.362 L90.8993 276.029 L90.8993 271.77 L99.1632 270.103 L103.839 270.103 L103.839 300.728 L111.478 300.728 L111.478 304.663 L91.5706 304.663 L91.5706 300.728 Z" fill="#000000" fill-rule="nonzero" fill-opacity="1" /><circle clip-path="url(#clip702)" cx="595.253" cy="526.917" r="14.4" fill="#009af9" fill-rule="evenodd" fill-opacity="0.5" stroke="#000000" stroke-opacity="0.5" stroke-width="3.2"/>
<circle clip-path="url(#clip702)" cx="1353.27" cy="476.399" r="14.4" fill="#009af9" fill-rule="evenodd" fill-opacity="0.5" stroke="#000000" stroke-opacity="0.5" stroke-width="3.2"/>
<circle clip-path="url(#clip702)" cx="797.773" cy="861.688" r="14.4" fill="#009af9" fill-rule="evenodd" fill-opacity="0.5" stroke="#000000" stroke-opacity="0.5" stroke-width="3.2"/>
<circle clip-path="url(#clip702)" cx="240.771" cy="421.924" r="14.4" fill="#009af9" fill-rule="evenodd" fill-opacity="0.5" stroke="#000000" stroke-opacity="0.5" stroke-width="3.2"/>
<circle clip-path="url(#clip702)" cx="498.035" cy="1255.89" r="14.4" fill="#009af9" fill-rule="evenodd" fill-opacity="0.5" stroke="#000000" stroke-opacity="0.5" stroke-width="3.2"/>
<circle clip-path="url(#clip702)" cx="1233.89" cy="689.596" r="14.4" fill="#009af9" fill-rule="evenodd" fill-opacity="0.5" stroke="#000000" stroke-opacity="0.5" stroke-width="3.2"/>
<circle clip-path="url(#clip702)" cx="1042.37" cy="921.179" r="14.4" fill="#009af9" fill-rule="evenodd" fill-opacity="0.5" stroke="#000000" stroke-opacity="0.5" stroke-width="3.2"/>
<circle clip-path="url(#clip702)" cx="209.891" cy="1433.3" r="14.4" fill="#009af9" fill-rule="evenodd" fill-opacity="0.5" stroke="#000000" stroke-opacity="0.5" stroke-width="3.2"/>
<circle clip-path="url(#clip702)" cx="1833.35" cy="1445.72" r="14.4" fill="#009af9" fill-rule="evenodd" fill-opacity="0.5" stroke="#000000" stroke-opacity="0.5" stroke-width="3.2"/>
<circle clip-path="url(#clip702)" cx="859.162" cy="771.756" r="14.4" fill="#009af9" fill-rule="evenodd" fill-opacity="0.5" stroke="#000000" stroke-opacity="0.5" stroke-width="3.2"/>
<circle clip-path="url(#clip702)" cx="686.698" cy="819.695" r="14.4" fill="#009af9" fill-rule="evenodd" fill-opacity="0.5" stroke="#000000" stroke-opacity="0.5" stroke-width="3.2"/>
<circle clip-path="url(#clip702)" cx="1821.35" cy="587.48" r="14.4" fill="#009af9" fill-rule="evenodd" fill-opacity="0.5" stroke="#000000" stroke-opacity="0.5" stroke-width="3.2"/>
<circle clip-path="url(#clip702)" cx="872.342" cy="203.421" r="14.4" fill="#009af9" fill-rule="evenodd" fill-opacity="0.5" stroke="#000000" stroke-opacity="0.5" stroke-width="3.2"/>
<circle clip-path="url(#clip702)" cx="738.733" cy="163.929" r="14.4" fill="#009af9" fill-rule="evenodd" fill-opacity="0.5" stroke="#000000" stroke-opacity="0.5" stroke-width="3.2"/>
<circle clip-path="url(#clip702)" cx="1301.83" cy="245.157" r="14.4" fill="#009af9" fill-rule="evenodd" fill-opacity="0.5" stroke="#000000" stroke-opacity="0.5" stroke-width="3.2"/>
<circle clip-path="url(#clip702)" cx="635.371" cy="977.075" r="14.4" fill="#009af9" fill-rule="evenodd" fill-opacity="0.5" stroke="#000000" stroke-opacity="0.5" stroke-width="3.2"/>
<circle clip-path="url(#clip702)" cx="379.006" cy="831.181" r="14.4" fill="#009af9" fill-rule="evenodd" fill-opacity="0.5" stroke="#000000" stroke-opacity="0.5" stroke-width="3.2"/>
<circle clip-path="url(#clip702)" cx="2290.34" cy="981.158" r="14.4" fill="#009af9" fill-rule="evenodd" fill-opacity="0.5" stroke="#000000" stroke-opacity="0.5" stroke-width="3.2"/>
<circle clip-path="url(#clip702)" cx="853.967" cy="206.828" r="14.4" fill="#009af9" fill-rule="evenodd" fill-opacity="0.5" stroke="#000000" stroke-opacity="0.5" stroke-width="3.2"/>
<circle clip-path="url(#clip702)" cx="1050.53" cy="781.211" r="14.4" fill="#009af9" fill-rule="evenodd" fill-opacity="0.5" stroke="#000000" stroke-opacity="0.5" stroke-width="3.2"/>
<circle clip-path="url(#clip702)" cx="560.684" cy="93.3219" r="14.4" fill="#009af9" fill-rule="evenodd" fill-opacity="0.5" stroke="#000000" stroke-opacity="0.5" stroke-width="3.2"/>
<circle clip-path="url(#clip702)" cx="1054.81" cy="611.604" r="14.4" fill="#009af9" fill-rule="evenodd" fill-opacity="0.5" stroke="#000000" stroke-opacity="0.5" stroke-width="3.2"/>
<circle clip-path="url(#clip702)" cx="769.998" cy="855.54" r="14.4" fill="#009af9" fill-rule="evenodd" fill-opacity="0.5" stroke="#000000" stroke-opacity="0.5" stroke-width="3.2"/>
<circle clip-path="url(#clip702)" cx="1215.06" cy="713.851" r="14.4" fill="#009af9" fill-rule="evenodd" fill-opacity="0.5" stroke="#000000" stroke-opacity="0.5" stroke-width="3.2"/>
<circle clip-path="url(#clip702)" cx="1817.18" cy="583.827" r="14.4" fill="#009af9" fill-rule="evenodd" fill-opacity="0.5" stroke="#000000" stroke-opacity="0.5" stroke-width="3.2"/>
<circle clip-path="url(#clip702)" cx="344.758" cy="507.098" r="14.4" fill="#009af9" fill-rule="evenodd" fill-opacity="0.5" stroke="#000000" stroke-opacity="0.5" stroke-width="3.2"/>
<circle clip-path="url(#clip702)" cx="892.713" cy="87.9763" r="14.4" fill="#009af9" fill-rule="evenodd" fill-opacity="0.5" stroke="#000000" stroke-opacity="0.5" stroke-width="3.2"/>
<circle clip-path="url(#clip702)" cx="1040.73" cy="924.646" r="14.4" fill="#009af9" fill-rule="evenodd" fill-opacity="0.5" stroke="#000000" stroke-opacity="0.5" stroke-width="3.2"/>
<circle clip-path="url(#clip702)" cx="1096.1" cy="572.405" r="14.4" fill="#009af9" fill-rule="evenodd" fill-opacity="0.5" stroke="#000000" stroke-opacity="0.5" stroke-width="3.2"/>
<circle clip-path="url(#clip702)" cx="658.658" cy="549.661" r="14.4" fill="#009af9" fill-rule="evenodd" fill-opacity="0.5" stroke="#000000" stroke-opacity="0.5" stroke-width="3.2"/>
<path clip-path="url(#clip702)" d="M209.891 1433.3 L1833.35 1445.72 L2290.34 981.158 L1817.18 583.827 L1301.83 245.157 L892.713 87.9763 L560.684 93.3219 L240.771 421.924 L209.891 1433.3 L209.891 1433.3  Z" fill="#e26f46" fill-rule="evenodd" fill-opacity="0.2"/>
<polyline clip-path="url(#clip702)" style="stroke:#000000; stroke-linecap:round; stroke-linejoin:round; stroke-width:4; stroke-opacity:0.2; fill:none" points="209.891,1433.3 1833.35,1445.72 2290.34,981.158 1817.18,583.827 1301.83,245.157 892.713,87.9763 560.684,93.3219 240.771,421.924 209.891,1433.3 "/>
</svg>
