<?xml version="1.0" encoding="utf-8"?>
<svg xmlns="http://www.w3.org/2000/svg" xmlns:xlink="http://www.w3.org/1999/xlink" width="600" height="400" viewBox="0 0 2400 1600">
<defs>
  <clipPath id="clip310">
    <rect x="0" y="0" width="2400" height="1600"/>
  </clipPath>
</defs>
<path clip-path="url(#clip310)" d="M0 1600 L2400 1600 L2400 0 L0 0  Z" fill="#ffffff" fill-rule="evenodd" fill-opacity="1"/>
<defs>
  <clipPath id="clip311">
    <rect x="147" y="47" width="2206" height="1440"/>
  </clipPath>
</defs>
<path clip-path="url(#clip310)" d="M147.478 1486.45 L2352.76 1486.45 L2352.76 47.2441 L147.478 47.2441  Z" fill="#ffffff" fill-rule="evenodd" fill-opacity="1"/>
<polyline clip-path="url(#clip311)" style="stroke:#000000; stroke-linecap:round; stroke-linejoin:round; stroke-width:2; stroke-opacity:0.1; fill:none" points="479.664,1486.45 479.664,47.2441 "/>
<polyline clip-path="url(#clip311)" style="stroke:#000000; stroke-linecap:round; stroke-linejoin:round; stroke-width:2; stroke-opacity:0.1; fill:none" points="931.315,1486.45 931.315,47.2441 "/>
<polyline clip-path="url(#clip311)" style="stroke:#000000; stroke-linecap:round; stroke-linejoin:round; stroke-width:2; stroke-opacity:0.1; fill:none" points="1382.97,1486.45 1382.97,47.2441 "/>
<polyline clip-path="url(#clip311)" style="stroke:#000000; stroke-linecap:round; stroke-linejoin:round; stroke-width:2; stroke-opacity:0.1; fill:none" points="1834.62,1486.45 1834.62,47.2441 "/>
<polyline clip-path="url(#clip311)" style="stroke:#000000; stroke-linecap:round; stroke-linejoin:round; stroke-width:2; stroke-opacity:0.1; fill:none" points="2286.27,1486.45 2286.27,47.2441 "/>
<polyline clip-path="url(#clip311)" style="stroke:#000000; stroke-linecap:round; stroke-linejoin:round; stroke-width:2; stroke-opacity:0.1; fill:none" points="147.478,1326.81 2352.76,1326.81 "/>
<polyline clip-path="url(#clip311)" style="stroke:#000000; stroke-linecap:round; stroke-linejoin:round; stroke-width:2; stroke-opacity:0.1; fill:none" points="147.478,1031.81 2352.76,1031.81 "/>
<polyline clip-path="url(#clip311)" style="stroke:#000000; stroke-linecap:round; stroke-linejoin:round; stroke-width:2; stroke-opacity:0.1; fill:none" points="147.478,736.811 2352.76,736.811 "/>
<polyline clip-path="url(#clip311)" style="stroke:#000000; stroke-linecap:round; stroke-linejoin:round; stroke-width:2; stroke-opacity:0.1; fill:none" points="147.478,441.809 2352.76,441.809 "/>
<polyline clip-path="url(#clip311)" style="stroke:#000000; stroke-linecap:round; stroke-linejoin:round; stroke-width:2; stroke-opacity:0.1; fill:none" points="147.478,146.808 2352.76,146.808 "/>
<polyline clip-path="url(#clip310)" style="stroke:#000000; stroke-linecap:round; stroke-linejoin:round; stroke-width:4; stroke-opacity:1; fill:none" points="147.478,1486.45 2352.76,1486.45 "/>
<polyline clip-path="url(#clip310)" style="stroke:#000000; stroke-linecap:round; stroke-linejoin:round; stroke-width:4; stroke-opacity:1; fill:none" points="479.664,1486.45 479.664,1467.55 "/>
<polyline clip-path="url(#clip310)" style="stroke:#000000; stroke-linecap:round; stroke-linejoin:round; stroke-width:4; stroke-opacity:1; fill:none" points="931.315,1486.45 931.315,1467.55 "/>
<polyline clip-path="url(#clip310)" style="stroke:#000000; stroke-linecap:round; stroke-linejoin:round; stroke-width:4; stroke-opacity:1; fill:none" points="1382.97,1486.45 1382.97,1467.55 "/>
<polyline clip-path="url(#clip310)" style="stroke:#000000; stroke-linecap:round; stroke-linejoin:round; stroke-width:4; stroke-opacity:1; fill:none" points="1834.62,1486.45 1834.62,1467.55 "/>
<polyline clip-path="url(#clip310)" style="stroke:#000000; stroke-linecap:round; stroke-linejoin:round; stroke-width:4; stroke-opacity:1; fill:none" points="2286.27,1486.45 2286.27,1467.55 "/>
<path clip-path="url(#clip310)" d="M449.607 1532.02 L479.283 1532.02 L479.283 1535.95 L449.607 1535.95 L449.607 1532.02 Z" fill="#000000" fill-rule="nonzero" fill-opacity="1" /><path clip-path="url(#clip310)" d="M493.403 1544.91 L509.722 1544.91 L509.722 1548.85 L487.778 1548.85 L487.778 1544.91 Q490.44 1542.16 495.023 1537.53 Q499.63 1532.88 500.81 1531.53 Q503.056 1529.01 503.935 1527.27 Q504.838 1525.51 504.838 1523.82 Q504.838 1521.07 502.894 1519.33 Q500.972 1517.6 497.87 1517.6 Q495.671 1517.6 493.218 1518.36 Q490.787 1519.13 488.009 1520.68 L488.009 1515.95 Q490.833 1514.82 493.287 1514.24 Q495.741 1513.66 497.778 1513.66 Q503.148 1513.66 506.343 1516.35 Q509.537 1519.03 509.537 1523.52 Q509.537 1525.65 508.727 1527.57 Q507.94 1529.47 505.833 1532.07 Q505.255 1532.74 502.153 1535.95 Q499.051 1539.15 493.403 1544.91 Z" fill="#000000" fill-rule="nonzero" fill-opacity="1" /><path clip-path="url(#clip310)" d="M901.072 1532.02 L930.748 1532.02 L930.748 1535.95 L901.072 1535.95 L901.072 1532.02 Z" fill="#000000" fill-rule="nonzero" fill-opacity="1" /><path clip-path="url(#clip310)" d="M941.651 1544.91 L949.29 1544.91 L949.29 1518.55 L940.98 1520.21 L940.98 1515.95 L949.243 1514.29 L953.919 1514.29 L953.919 1544.91 L961.558 1544.91 L961.558 1548.85 L941.651 1548.85 L941.651 1544.91 Z" fill="#000000" fill-rule="nonzero" fill-opacity="1" /><path clip-path="url(#clip310)" d="M1382.97 1517.37 Q1379.36 1517.37 1377.53 1520.93 Q1375.72 1524.47 1375.72 1531.6 Q1375.72 1538.71 1377.53 1542.27 Q1379.36 1545.82 1382.97 1545.82 Q1386.6 1545.82 1388.41 1542.27 Q1390.23 1538.71 1390.23 1531.6 Q1390.23 1524.47 1388.41 1520.93 Q1386.6 1517.37 1382.97 1517.37 M1382.97 1513.66 Q1388.78 1513.66 1391.83 1518.27 Q1394.91 1522.85 1394.91 1531.6 Q1394.91 1540.33 1391.83 1544.94 Q1388.78 1549.52 1382.97 1549.52 Q1377.16 1549.52 1374.08 1544.94 Q1371.02 1540.33 1371.02 1531.6 Q1371.02 1522.85 1374.08 1518.27 Q1377.16 1513.66 1382.97 1513.66 Z" fill="#000000" fill-rule="nonzero" fill-opacity="1" /><path clip-path="url(#clip310)" d="M1825 1544.91 L1832.64 1544.91 L1832.64 1518.55 L1824.33 1520.21 L1824.33 1515.95 L1832.59 1514.29 L1837.27 1514.29 L1837.27 1544.91 L1844.91 1544.91 L1844.91 1548.85 L1825 1548.85 L1825 1544.91 Z" fill="#000000" fill-rule="nonzero" fill-opacity="1" /><path clip-path="url(#clip310)" d="M2280.92 1544.91 L2297.24 1544.91 L2297.24 1548.85 L2275.3 1548.85 L2275.3 1544.91 Q2277.96 1542.16 2282.54 1537.53 Q2287.15 1532.88 2288.33 1531.53 Q2290.57 1529.01 2291.45 1527.27 Q2292.36 1525.51 2292.36 1523.82 Q2292.36 1521.07 2290.41 1519.33 Q2288.49 1517.6 2285.39 1517.6 Q2283.19 1517.6 2280.74 1518.36 Q2278.3 1519.13 2275.53 1520.68 L2275.53 1515.95 Q2278.35 1514.82 2280.8 1514.24 Q2283.26 1513.66 2285.3 1513.66 Q2290.67 1513.66 2293.86 1516.35 Q2297.05 1519.03 2297.05 1523.52 Q2297.05 1525.65 2296.24 1527.57 Q2295.46 1529.47 2293.35 1532.07 Q2292.77 1532.74 2289.67 1535.95 Q2286.57 1539.15 2280.92 1544.91 Z" fill="#000000" fill-rule="nonzero" fill-opacity="1" /><polyline clip-path="url(#clip310)" style="stroke:#000000; stroke-linecap:round; stroke-linejoin:round; stroke-width:4; stroke-opacity:1; fill:none" points="147.478,1486.45 147.478,47.2441 "/>
<polyline clip-path="url(#clip310)" style="stroke:#000000; stroke-linecap:round; stroke-linejoin:round; stroke-width:4; stroke-opacity:1; fill:none" points="147.478,1326.81 166.376,1326.81 "/>
<polyline clip-path="url(#clip310)" style="stroke:#000000; stroke-linecap:round; stroke-linejoin:round; stroke-width:4; stroke-opacity:1; fill:none" points="147.478,1031.81 166.376,1031.81 "/>
<polyline clip-path="url(#clip310)" style="stroke:#000000; stroke-linecap:round; stroke-linejoin:round; stroke-width:4; stroke-opacity:1; fill:none" points="147.478,736.811 166.376,736.811 "/>
<polyline clip-path="url(#clip310)" style="stroke:#000000; stroke-linecap:round; stroke-linejoin:round; stroke-width:4; stroke-opacity:1; fill:none" points="147.478,441.809 166.376,441.809 "/>
<polyline clip-path="url(#clip310)" style="stroke:#000000; stroke-linecap:round; stroke-linejoin:round; stroke-width:4; stroke-opacity:1; fill:none" points="147.478,146.808 166.376,146.808 "/>
<path clip-path="url(#clip310)" d="M51.3625 1327.27 L81.0383 1327.27 L81.0383 1331.2 L51.3625 1331.2 L51.3625 1327.27 Z" fill="#000000" fill-rule="nonzero" fill-opacity="1" /><path clip-path="url(#clip310)" d="M95.1586 1340.16 L111.478 1340.16 L111.478 1344.09 L89.5336 1344.09 L89.5336 1340.16 Q92.1956 1337.4 96.7789 1332.78 Q101.385 1328.12 102.566 1326.78 Q104.811 1324.26 105.691 1322.52 Q106.594 1320.76 106.594 1319.07 Q106.594 1316.32 104.649 1314.58 Q102.728 1312.84 99.6261 1312.84 Q97.4271 1312.84 94.9734 1313.61 Q92.5428 1314.37 89.7651 1315.92 L89.7651 1311.2 Q92.5891 1310.07 95.0428 1309.49 Q97.4965 1308.91 99.5335 1308.91 Q104.904 1308.91 108.098 1311.59 Q111.293 1314.28 111.293 1318.77 Q111.293 1320.9 110.483 1322.82 Q109.696 1324.72 107.589 1327.31 Q107.01 1327.98 103.909 1331.2 Q100.807 1334.4 95.1586 1340.16 Z" fill="#000000" fill-rule="nonzero" fill-opacity="1" /><path clip-path="url(#clip310)" d="M50.9921 1032.26 L80.6679 1032.26 L80.6679 1036.2 L50.9921 1036.2 L50.9921 1032.26 Z" fill="#000000" fill-rule="nonzero" fill-opacity="1" /><path clip-path="url(#clip310)" d="M91.5706 1045.16 L99.2095 1045.16 L99.2095 1018.79 L90.8993 1020.46 L90.8993 1016.2 L99.1632 1014.53 L103.839 1014.53 L103.839 1045.16 L111.478 1045.16 L111.478 1049.09 L91.5706 1049.09 L91.5706 1045.16 Z" fill="#000000" fill-rule="nonzero" fill-opacity="1" /><path clip-path="url(#clip310)" d="M99.5335 722.61 Q95.9224 722.61 94.0937 726.175 Q92.2882 729.716 92.2882 736.846 Q92.2882 743.952 94.0937 747.517 Q95.9224 751.059 99.5335 751.059 Q103.168 751.059 104.973 747.517 Q106.802 743.952 106.802 736.846 Q106.802 729.716 104.973 726.175 Q103.168 722.61 99.5335 722.61 M99.5335 718.906 Q105.344 718.906 108.399 723.513 Q111.478 728.096 111.478 736.846 Q111.478 745.573 108.399 750.179 Q105.344 754.762 99.5335 754.762 Q93.7234 754.762 90.6447 750.179 Q87.5892 745.573 87.5892 736.846 Q87.5892 728.096 90.6447 723.513 Q93.7234 718.906 99.5335 718.906 Z" fill="#000000" fill-rule="nonzero" fill-opacity="1" /><path clip-path="url(#clip310)" d="M91.5706 455.154 L99.2095 455.154 L99.2095 428.789 L90.8993 430.455 L90.8993 426.196 L99.1632 424.529 L103.839 424.529 L103.839 455.154 L111.478 455.154 L111.478 459.089 L91.5706 459.089 L91.5706 455.154 Z" fill="#000000" fill-rule="nonzero" fill-opacity="1" /><path clip-path="url(#clip310)" d="M95.1586 160.153 L111.478 160.153 L111.478 164.088 L89.5336 164.088 L89.5336 160.153 Q92.1956 157.398 96.7789 152.768 Q101.385 148.116 102.566 146.773 Q104.811 144.25 105.691 142.514 Q106.594 140.754 106.594 139.065 Q106.594 136.31 104.649 134.574 Q102.728 132.838 99.6261 132.838 Q97.4271 132.838 94.9734 133.602 Q92.5428 134.366 89.7651 135.917 L89.7651 131.194 Q92.5891 130.06 95.0428 129.481 Q97.4965 128.903 99.5335 128.903 Q104.904 128.903 108.098 131.588 Q111.293 134.273 111.293 138.764 Q111.293 140.893 110.483 142.815 Q109.696 144.713 107.589 147.305 Q107.01 147.977 103.909 151.194 Q100.807 154.389 95.1586 160.153 Z" fill="#000000" fill-rule="nonzero" fill-opacity="1" /><circle clip-path="url(#clip311)" cx="988.776" cy="564.64" r="14.4" fill="#009af9" fill-rule="evenodd" fill-opacity="0.5" stroke="#000000" stroke-opacity="0.5" stroke-width="3.2"/>
<circle clip-path="url(#clip311)" cx="340.473" cy="855.595" r="14.4" fill="#009af9" fill-rule="evenodd" fill-opacity="0.5" stroke="#000000" stroke-opacity="0.5" stroke-width="3.2"/>
<circle clip-path="url(#clip311)" cx="1007.79" cy="1207.6" r="14.4" fill="#009af9" fill-rule="evenodd" fill-opacity="0.5" stroke="#000000" stroke-opacity="0.5" stroke-width="3.2"/>
<circle clip-path="url(#clip311)" cx="1750.75" cy="544.696" r="14.4" fill="#009af9" fill-rule="evenodd" fill-opacity="0.5" stroke="#000000" stroke-opacity="0.5" stroke-width="3.2"/>
<circle clip-path="url(#clip311)" cx="795.28" cy="771.031" r="14.4" fill="#009af9" fill-rule="evenodd" fill-opacity="0.5" stroke="#000000" stroke-opacity="0.5" stroke-width="3.2"/>
<circle clip-path="url(#clip311)" cx="1546.67" cy="87.9763" r="14.4" fill="#009af9" fill-rule="evenodd" fill-opacity="0.5" stroke="#000000" stroke-opacity="0.5" stroke-width="3.2"/>
<circle clip-path="url(#clip311)" cx="1769.48" cy="574.941" r="14.4" fill="#009af9" fill-rule="evenodd" fill-opacity="0.5" stroke="#000000" stroke-opacity="0.5" stroke-width="3.2"/>
<circle clip-path="url(#clip311)" cx="1125.87" cy="666.498" r="14.4" fill="#009af9" fill-rule="evenodd" fill-opacity="0.5" stroke="#000000" stroke-opacity="0.5" stroke-width="3.2"/>
<circle clip-path="url(#clip311)" cx="1296.76" cy="317.261" r="14.4" fill="#009af9" fill-rule="evenodd" fill-opacity="0.5" stroke="#000000" stroke-opacity="0.5" stroke-width="3.2"/>
<circle clip-path="url(#clip311)" cx="2290.34" cy="835.436" r="14.4" fill="#009af9" fill-rule="evenodd" fill-opacity="0.5" stroke="#000000" stroke-opacity="0.5" stroke-width="3.2"/>
<circle clip-path="url(#clip311)" cx="611.256" cy="645.825" r="14.4" fill="#009af9" fill-rule="evenodd" fill-opacity="0.5" stroke="#000000" stroke-opacity="0.5" stroke-width="3.2"/>
<circle clip-path="url(#clip311)" cx="1168.32" cy="745.773" r="14.4" fill="#009af9" fill-rule="evenodd" fill-opacity="0.5" stroke="#000000" stroke-opacity="0.5" stroke-width="3.2"/>
<circle clip-path="url(#clip311)" cx="1577.3" cy="1445.72" r="14.4" fill="#009af9" fill-rule="evenodd" fill-opacity="0.5" stroke="#000000" stroke-opacity="0.5" stroke-width="3.2"/>
<circle clip-path="url(#clip311)" cx="1133.89" cy="1225.07" r="14.4" fill="#009af9" fill-rule="evenodd" fill-opacity="0.5" stroke="#000000" stroke-opacity="0.5" stroke-width="3.2"/>
<circle clip-path="url(#clip311)" cx="986.072" cy="314.877" r="14.4" fill="#009af9" fill-rule="evenodd" fill-opacity="0.5" stroke="#000000" stroke-opacity="0.5" stroke-width="3.2"/>
<circle clip-path="url(#clip311)" cx="1809.79" cy="839.205" r="14.4" fill="#009af9" fill-rule="evenodd" fill-opacity="0.5" stroke="#000000" stroke-opacity="0.5" stroke-width="3.2"/>
<circle clip-path="url(#clip311)" cx="1948.39" cy="1256.24" r="14.4" fill="#009af9" fill-rule="evenodd" fill-opacity="0.5" stroke="#000000" stroke-opacity="0.5" stroke-width="3.2"/>
<circle clip-path="url(#clip311)" cx="1295.23" cy="492.018" r="14.4" fill="#009af9" fill-rule="evenodd" fill-opacity="0.5" stroke="#000000" stroke-opacity="0.5" stroke-width="3.2"/>
<circle clip-path="url(#clip311)" cx="1579.6" cy="697.171" r="14.4" fill="#009af9" fill-rule="evenodd" fill-opacity="0.5" stroke="#000000" stroke-opacity="0.5" stroke-width="3.2"/>
<circle clip-path="url(#clip311)" cx="1668.75" cy="949.463" r="14.4" fill="#009af9" fill-rule="evenodd" fill-opacity="0.5" stroke="#000000" stroke-opacity="0.5" stroke-width="3.2"/>
<circle clip-path="url(#clip311)" cx="1492.97" cy="663.5" r="14.4" fill="#009af9" fill-rule="evenodd" fill-opacity="0.5" stroke="#000000" stroke-opacity="0.5" stroke-width="3.2"/>
<circle clip-path="url(#clip311)" cx="209.891" cy="976.32" r="14.4" fill="#009af9" fill-rule="evenodd" fill-opacity="0.5" stroke="#000000" stroke-opacity="0.5" stroke-width="3.2"/>
<circle clip-path="url(#clip311)" cx="1152.15" cy="903.054" r="14.4" fill="#009af9" fill-rule="evenodd" fill-opacity="0.5" stroke="#000000" stroke-opacity="0.5" stroke-width="3.2"/>
<circle clip-path="url(#clip311)" cx="1521.24" cy="930.004" r="14.4" fill="#009af9" fill-rule="evenodd" fill-opacity="0.5" stroke="#000000" stroke-opacity="0.5" stroke-width="3.2"/>
<circle clip-path="url(#clip311)" cx="750.123" cy="516.745" r="14.4" fill="#009af9" fill-rule="evenodd" fill-opacity="0.5" stroke="#000000" stroke-opacity="0.5" stroke-width="3.2"/>
<circle clip-path="url(#clip311)" cx="1058.93" cy="932.318" r="14.4" fill="#009af9" fill-rule="evenodd" fill-opacity="0.5" stroke="#000000" stroke-opacity="0.5" stroke-width="3.2"/>
<circle clip-path="url(#clip311)" cx="1098.96" cy="562.172" r="14.4" fill="#009af9" fill-rule="evenodd" fill-opacity="0.5" stroke="#000000" stroke-opacity="0.5" stroke-width="3.2"/>
<circle clip-path="url(#clip311)" cx="1590.69" cy="617.241" r="14.4" fill="#009af9" fill-rule="evenodd" fill-opacity="0.5" stroke="#000000" stroke-opacity="0.5" stroke-width="3.2"/>
<circle clip-path="url(#clip311)" cx="1417.38" cy="464.162" r="14.4" fill="#009af9" fill-rule="evenodd" fill-opacity="0.5" stroke="#000000" stroke-opacity="0.5" stroke-width="3.2"/>
<circle clip-path="url(#clip311)" cx="1510.11" cy="981.346" r="14.4" fill="#009af9" fill-rule="evenodd" fill-opacity="0.5" stroke="#000000" stroke-opacity="0.5" stroke-width="3.2"/>
<path clip-path="url(#clip311)" d="M209.891 976.32 L1577.3 1445.72 L1948.39 1256.24 L2290.34 835.436 L1546.67 87.9763 L986.072 314.877 L340.473 855.595 L209.891 976.32 L209.891 976.32  Z" fill="#e26f46" fill-rule="evenodd" fill-opacity="0.2"/>
<polyline clip-path="url(#clip311)" style="stroke:#000000; stroke-linecap:round; stroke-linejoin:round; stroke-width:4; stroke-opacity:0.2; fill:none" points="209.891,976.32 1577.3,1445.72 1948.39,1256.24 2290.34,835.436 1546.67,87.9763 986.072,314.877 340.473,855.595 209.891,976.32 "/>
</svg>
