<?xml version="1.0" encoding="utf-8"?>
<svg xmlns="http://www.w3.org/2000/svg" xmlns:xlink="http://www.w3.org/1999/xlink" width="600" height="400" viewBox="0 0 2400 1600">
<defs>
  <clipPath id="clip520">
    <rect x="0" y="0" width="2400" height="1600"/>
  </clipPath>
</defs>
<path clip-path="url(#clip520)" d="M0 1600 L2400 1600 L2400 0 L0 0  Z" fill="#ffffff" fill-rule="evenodd" fill-opacity="1"/>
<defs>
  <clipPath id="clip521">
    <rect x="480" y="0" width="1681" height="1600"/>
  </clipPath>
</defs>
<path clip-path="url(#clip520)" d="M147.478 1486.45 L2352.76 1486.45 L2352.76 47.2441 L147.478 47.2441  Z" fill="#ffffff" fill-rule="evenodd" fill-opacity="1"/>
<defs>
  <clipPath id="clip522">
    <rect x="147" y="47" width="2206" height="1440"/>
  </clipPath>
</defs>
<polyline clip-path="url(#clip522)" style="stroke:#000000; stroke-linecap:round; stroke-linejoin:round; stroke-width:2; stroke-opacity:0.1; fill:none" points="387.86,1486.45 387.86,47.2441 "/>
<polyline clip-path="url(#clip522)" style="stroke:#000000; stroke-linecap:round; stroke-linejoin:round; stroke-width:2; stroke-opacity:0.1; fill:none" points="911.619,1486.45 911.619,47.2441 "/>
<polyline clip-path="url(#clip522)" style="stroke:#000000; stroke-linecap:round; stroke-linejoin:round; stroke-width:2; stroke-opacity:0.1; fill:none" points="1435.38,1486.45 1435.38,47.2441 "/>
<polyline clip-path="url(#clip522)" style="stroke:#000000; stroke-linecap:round; stroke-linejoin:round; stroke-width:2; stroke-opacity:0.1; fill:none" points="1959.14,1486.45 1959.14,47.2441 "/>
<polyline clip-path="url(#clip520)" style="stroke:#000000; stroke-linecap:round; stroke-linejoin:round; stroke-width:4; stroke-opacity:1; fill:none" points="147.478,1486.45 2352.76,1486.45 "/>
<polyline clip-path="url(#clip520)" style="stroke:#000000; stroke-linecap:round; stroke-linejoin:round; stroke-width:4; stroke-opacity:1; fill:none" points="387.86,1486.45 387.86,1467.55 "/>
<polyline clip-path="url(#clip520)" style="stroke:#000000; stroke-linecap:round; stroke-linejoin:round; stroke-width:4; stroke-opacity:1; fill:none" points="911.619,1486.45 911.619,1467.55 "/>
<polyline clip-path="url(#clip520)" style="stroke:#000000; stroke-linecap:round; stroke-linejoin:round; stroke-width:4; stroke-opacity:1; fill:none" points="1435.38,1486.45 1435.38,1467.55 "/>
<polyline clip-path="url(#clip520)" style="stroke:#000000; stroke-linecap:round; stroke-linejoin:round; stroke-width:4; stroke-opacity:1; fill:none" points="1959.14,1486.45 1959.14,1467.55 "/>
<path clip-path="url(#clip520)" d="M357.802 1532.02 L387.478 1532.02 L387.478 1535.95 L357.802 1535.95 L357.802 1532.02 Z" fill="#000000" fill-rule="nonzero" fill-opacity="1" /><path clip-path="url(#clip520)" d="M401.598 1544.91 L417.917 1544.91 L417.917 1548.85 L395.973 1548.85 L395.973 1544.91 Q398.635 1542.16 403.218 1537.53 Q407.825 1532.88 409.005 1531.53 Q411.251 1529.01 412.13 1527.27 Q413.033 1525.51 413.033 1523.82 Q413.033 1521.07 411.089 1519.33 Q409.167 1517.6 406.066 1517.6 Q403.867 1517.6 401.413 1518.36 Q398.982 1519.13 396.205 1520.68 L396.205 1515.95 Q399.029 1514.82 401.482 1514.24 Q403.936 1513.66 405.973 1513.66 Q411.343 1513.66 414.538 1516.35 Q417.732 1519.03 417.732 1523.52 Q417.732 1525.65 416.922 1527.57 Q416.135 1529.47 414.029 1532.07 Q413.45 1532.74 410.348 1535.95 Q407.246 1539.15 401.598 1544.91 Z" fill="#000000" fill-rule="nonzero" fill-opacity="1" /><path clip-path="url(#clip520)" d="M881.376 1532.02 L911.052 1532.02 L911.052 1535.95 L881.376 1535.95 L881.376 1532.02 Z" fill="#000000" fill-rule="nonzero" fill-opacity="1" /><path clip-path="url(#clip520)" d="M921.955 1544.91 L929.594 1544.91 L929.594 1518.55 L921.283 1520.21 L921.283 1515.95 L929.547 1514.29 L934.223 1514.29 L934.223 1544.91 L941.862 1544.91 L941.862 1548.85 L921.955 1548.85 L921.955 1544.91 Z" fill="#000000" fill-rule="nonzero" fill-opacity="1" /><path clip-path="url(#clip520)" d="M1435.38 1517.37 Q1431.77 1517.37 1429.94 1520.93 Q1428.13 1524.47 1428.13 1531.6 Q1428.13 1538.71 1429.94 1542.27 Q1431.77 1545.82 1435.38 1545.82 Q1439.01 1545.82 1440.82 1542.27 Q1442.65 1538.71 1442.65 1531.6 Q1442.65 1524.47 1440.82 1520.93 Q1439.01 1517.37 1435.38 1517.37 M1435.38 1513.66 Q1441.19 1513.66 1444.24 1518.27 Q1447.32 1522.85 1447.32 1531.6 Q1447.32 1540.33 1444.24 1544.94 Q1441.19 1549.52 1435.38 1549.52 Q1429.57 1549.52 1426.49 1544.94 Q1423.43 1540.33 1423.43 1531.6 Q1423.43 1522.85 1426.49 1518.27 Q1429.57 1513.66 1435.38 1513.66 Z" fill="#000000" fill-rule="nonzero" fill-opacity="1" /><path clip-path="url(#clip520)" d="M1949.52 1544.91 L1957.16 1544.91 L1957.16 1518.55 L1948.85 1520.21 L1948.85 1515.95 L1957.11 1514.29 L1961.79 1514.29 L1961.79 1544.91 L1969.43 1544.91 L1969.43 1548.85 L1949.52 1548.85 L1949.52 1544.91 Z" fill="#000000" fill-rule="nonzero" fill-opacity="1" /><polyline clip-path="url(#clip522)" style="stroke:#000000; stroke-linecap:round; stroke-linejoin:round; stroke-width:2; stroke-opacity:0.1; fill:none" points="147.478,1462.37 2352.76,1462.37 "/>
<polyline clip-path="url(#clip522)" style="stroke:#000000; stroke-linecap:round; stroke-linejoin:round; stroke-width:2; stroke-opacity:0.1; fill:none" points="147.478,1165.62 2352.76,1165.62 "/>
<polyline clip-path="url(#clip522)" style="stroke:#000000; stroke-linecap:round; stroke-linejoin:round; stroke-width:2; stroke-opacity:0.1; fill:none" points="147.478,868.878 2352.76,868.878 "/>
<polyline clip-path="url(#clip522)" style="stroke:#000000; stroke-linecap:round; stroke-linejoin:round; stroke-width:2; stroke-opacity:0.1; fill:none" points="147.478,572.132 2352.76,572.132 "/>
<polyline clip-path="url(#clip522)" style="stroke:#000000; stroke-linecap:round; stroke-linejoin:round; stroke-width:2; stroke-opacity:0.1; fill:none" points="147.478,275.386 2352.76,275.386 "/>
<polyline clip-path="url(#clip520)" style="stroke:#000000; stroke-linecap:round; stroke-linejoin:round; stroke-width:4; stroke-opacity:1; fill:none" points="147.478,1486.45 147.478,47.2441 "/>
<polyline clip-path="url(#clip520)" style="stroke:#000000; stroke-linecap:round; stroke-linejoin:round; stroke-width:4; stroke-opacity:1; fill:none" points="147.478,1462.37 166.376,1462.37 "/>
<polyline clip-path="url(#clip520)" style="stroke:#000000; stroke-linecap:round; stroke-linejoin:round; stroke-width:4; stroke-opacity:1; fill:none" points="147.478,1165.62 166.376,1165.62 "/>
<polyline clip-path="url(#clip520)" style="stroke:#000000; stroke-linecap:round; stroke-linejoin:round; stroke-width:4; stroke-opacity:1; fill:none" points="147.478,868.878 166.376,868.878 "/>
<polyline clip-path="url(#clip520)" style="stroke:#000000; stroke-linecap:round; stroke-linejoin:round; stroke-width:4; stroke-opacity:1; fill:none" points="147.478,572.132 166.376,572.132 "/>
<polyline clip-path="url(#clip520)" style="stroke:#000000; stroke-linecap:round; stroke-linejoin:round; stroke-width:4; stroke-opacity:1; fill:none" points="147.478,275.386 166.376,275.386 "/>
<path clip-path="url(#clip520)" d="M51.3625 1462.82 L81.0383 1462.82 L81.0383 1466.76 L51.3625 1466.76 L51.3625 1462.82 Z" fill="#000000" fill-rule="nonzero" fill-opacity="1" /><path clip-path="url(#clip520)" d="M95.1586 1475.72 L111.478 1475.72 L111.478 1479.65 L89.5336 1479.65 L89.5336 1475.72 Q92.1956 1472.96 96.7789 1468.33 Q101.385 1463.68 102.566 1462.34 Q104.811 1459.81 105.691 1458.08 Q106.594 1456.32 106.594 1454.63 Q106.594 1451.87 104.649 1450.14 Q102.728 1448.4 99.6261 1448.4 Q97.4271 1448.4 94.9734 1449.16 Q92.5428 1449.93 89.7651 1451.48 L89.7651 1446.76 Q92.5891 1445.62 95.0428 1445.04 Q97.4965 1444.47 99.5335 1444.47 Q104.904 1444.47 108.098 1447.15 Q111.293 1449.84 111.293 1454.33 Q111.293 1456.46 110.483 1458.38 Q109.696 1460.28 107.589 1462.87 Q107.01 1463.54 103.909 1466.76 Q100.807 1469.95 95.1586 1475.72 Z" fill="#000000" fill-rule="nonzero" fill-opacity="1" /><path clip-path="url(#clip520)" d="M50.9921 1166.08 L80.6679 1166.08 L80.6679 1170.01 L50.9921 1170.01 L50.9921 1166.08 Z" fill="#000000" fill-rule="nonzero" fill-opacity="1" /><path clip-path="url(#clip520)" d="M91.5706 1178.97 L99.2095 1178.97 L99.2095 1152.6 L90.8993 1154.27 L90.8993 1150.01 L99.1632 1148.34 L103.839 1148.34 L103.839 1178.97 L111.478 1178.97 L111.478 1182.9 L91.5706 1182.9 L91.5706 1178.97 Z" fill="#000000" fill-rule="nonzero" fill-opacity="1" /><path clip-path="url(#clip520)" d="M99.5335 854.677 Q95.9224 854.677 94.0937 858.242 Q92.2882 861.783 92.2882 868.913 Q92.2882 876.019 94.0937 879.584 Q95.9224 883.126 99.5335 883.126 Q103.168 883.126 104.973 879.584 Q106.802 876.019 106.802 868.913 Q106.802 861.783 104.973 858.242 Q103.168 854.677 99.5335 854.677 M99.5335 850.973 Q105.344 850.973 108.399 855.58 Q111.478 860.163 111.478 868.913 Q111.478 877.64 108.399 882.246 Q105.344 886.829 99.5335 886.829 Q93.7234 886.829 90.6447 882.246 Q87.5892 877.64 87.5892 868.913 Q87.5892 860.163 90.6447 855.58 Q93.7234 850.973 99.5335 850.973 Z" fill="#000000" fill-rule="nonzero" fill-opacity="1" /><path clip-path="url(#clip520)" d="M91.5706 585.477 L99.2095 585.477 L99.2095 559.111 L90.8993 560.778 L90.8993 556.519 L99.1632 554.852 L103.839 554.852 L103.839 585.477 L111.478 585.477 L111.478 589.412 L91.5706 589.412 L91.5706 585.477 Z" fill="#000000" fill-rule="nonzero" fill-opacity="1" /><path clip-path="url(#clip520)" d="M95.1586 288.731 L111.478 288.731 L111.478 292.666 L89.5336 292.666 L89.5336 288.731 Q92.1956 285.976 96.7789 281.347 Q101.385 276.694 102.566 275.351 Q104.811 272.828 105.691 271.092 Q106.594 269.333 106.594 267.643 Q106.594 264.888 104.649 263.152 Q102.728 261.416 99.6261 261.416 Q97.4271 261.416 94.9734 262.18 Q92.5428 262.944 89.7651 264.495 L89.7651 259.773 Q92.5891 258.638 95.0428 258.06 Q97.4965 257.481 99.5335 257.481 Q104.904 257.481 108.098 260.166 Q111.293 262.851 111.293 267.342 Q111.293 269.472 110.483 271.393 Q109.696 273.291 107.589 275.884 Q107.01 276.555 103.909 279.773 Q100.807 282.967 95.1586 288.731 Z" fill="#000000" fill-rule="nonzero" fill-opacity="1" /><circle clip-path="url(#clip522)" cx="1047.05" cy="978.207" r="14.4" fill="#009af9" fill-rule="evenodd" fill-opacity="0.5" stroke="#000000" stroke-opacity="0.5" stroke-width="3.2"/>
<circle clip-path="url(#clip522)" cx="1153.83" cy="624.191" r="14.4" fill="#009af9" fill-rule="evenodd" fill-opacity="0.5" stroke="#000000" stroke-opacity="0.5" stroke-width="3.2"/>
<circle clip-path="url(#clip522)" cx="1448.11" cy="419.458" r="14.4" fill="#009af9" fill-rule="evenodd" fill-opacity="0.5" stroke="#000000" stroke-opacity="0.5" stroke-width="3.2"/>
<circle clip-path="url(#clip522)" cx="209.891" cy="1149.09" r="14.4" fill="#009af9" fill-rule="evenodd" fill-opacity="0.5" stroke="#000000" stroke-opacity="0.5" stroke-width="3.2"/>
<circle clip-path="url(#clip522)" cx="1805.2" cy="422.509" r="14.4" fill="#009af9" fill-rule="evenodd" fill-opacity="0.5" stroke="#000000" stroke-opacity="0.5" stroke-width="3.2"/>
<circle clip-path="url(#clip522)" cx="1784.49" cy="639.095" r="14.4" fill="#009af9" fill-rule="evenodd" fill-opacity="0.5" stroke="#000000" stroke-opacity="0.5" stroke-width="3.2"/>
<circle clip-path="url(#clip522)" cx="1240.44" cy="284.529" r="14.4" fill="#009af9" fill-rule="evenodd" fill-opacity="0.5" stroke="#000000" stroke-opacity="0.5" stroke-width="3.2"/>
<circle clip-path="url(#clip522)" cx="1554.59" cy="87.9763" r="14.4" fill="#009af9" fill-rule="evenodd" fill-opacity="0.5" stroke="#000000" stroke-opacity="0.5" stroke-width="3.2"/>
<circle clip-path="url(#clip522)" cx="2115.04" cy="1227.6" r="14.4" fill="#009af9" fill-rule="evenodd" fill-opacity="0.5" stroke="#000000" stroke-opacity="0.5" stroke-width="3.2"/>
<circle clip-path="url(#clip522)" cx="1739.97" cy="917.197" r="14.4" fill="#009af9" fill-rule="evenodd" fill-opacity="0.5" stroke="#000000" stroke-opacity="0.5" stroke-width="3.2"/>
<circle clip-path="url(#clip522)" cx="2234.43" cy="675.318" r="14.4" fill="#009af9" fill-rule="evenodd" fill-opacity="0.5" stroke="#000000" stroke-opacity="0.5" stroke-width="3.2"/>
<circle clip-path="url(#clip522)" cx="2290.34" cy="1445.72" r="14.4" fill="#009af9" fill-rule="evenodd" fill-opacity="0.5" stroke="#000000" stroke-opacity="0.5" stroke-width="3.2"/>
<circle clip-path="url(#clip522)" cx="1377.12" cy="1357.48" r="14.4" fill="#009af9" fill-rule="evenodd" fill-opacity="0.5" stroke="#000000" stroke-opacity="0.5" stroke-width="3.2"/>
<circle clip-path="url(#clip522)" cx="1046.2" cy="758.369" r="14.4" fill="#009af9" fill-rule="evenodd" fill-opacity="0.5" stroke="#000000" stroke-opacity="0.5" stroke-width="3.2"/>
<circle clip-path="url(#clip522)" cx="1181.74" cy="941.019" r="14.4" fill="#009af9" fill-rule="evenodd" fill-opacity="0.5" stroke="#000000" stroke-opacity="0.5" stroke-width="3.2"/>
<circle clip-path="url(#clip522)" cx="871.415" cy="728.68" r="14.4" fill="#009af9" fill-rule="evenodd" fill-opacity="0.5" stroke="#000000" stroke-opacity="0.5" stroke-width="3.2"/>
<circle clip-path="url(#clip522)" cx="1925.86" cy="1070.71" r="14.4" fill="#009af9" fill-rule="evenodd" fill-opacity="0.5" stroke="#000000" stroke-opacity="0.5" stroke-width="3.2"/>
<circle clip-path="url(#clip522)" cx="2182.58" cy="817.524" r="14.4" fill="#009af9" fill-rule="evenodd" fill-opacity="0.5" stroke="#000000" stroke-opacity="0.5" stroke-width="3.2"/>
<circle clip-path="url(#clip522)" cx="1234.23" cy="804.261" r="14.4" fill="#009af9" fill-rule="evenodd" fill-opacity="0.5" stroke="#000000" stroke-opacity="0.5" stroke-width="3.2"/>
<circle clip-path="url(#clip522)" cx="1568.97" cy="1116.76" r="14.4" fill="#009af9" fill-rule="evenodd" fill-opacity="0.5" stroke="#000000" stroke-opacity="0.5" stroke-width="3.2"/>
<circle clip-path="url(#clip522)" cx="1782.72" cy="803.992" r="14.4" fill="#009af9" fill-rule="evenodd" fill-opacity="0.5" stroke="#000000" stroke-opacity="0.5" stroke-width="3.2"/>
<circle clip-path="url(#clip522)" cx="1719.53" cy="809.588" r="14.4" fill="#009af9" fill-rule="evenodd" fill-opacity="0.5" stroke="#000000" stroke-opacity="0.5" stroke-width="3.2"/>
<circle clip-path="url(#clip522)" cx="1813.13" cy="610.305" r="14.4" fill="#009af9" fill-rule="evenodd" fill-opacity="0.5" stroke="#000000" stroke-opacity="0.5" stroke-width="3.2"/>
<circle clip-path="url(#clip522)" cx="2270.51" cy="1252.25" r="14.4" fill="#009af9" fill-rule="evenodd" fill-opacity="0.5" stroke="#000000" stroke-opacity="0.5" stroke-width="3.2"/>
<circle clip-path="url(#clip522)" cx="1320.98" cy="737.196" r="14.4" fill="#009af9" fill-rule="evenodd" fill-opacity="0.5" stroke="#000000" stroke-opacity="0.5" stroke-width="3.2"/>
<circle clip-path="url(#clip522)" cx="1617.32" cy="826.634" r="14.4" fill="#009af9" fill-rule="evenodd" fill-opacity="0.5" stroke="#000000" stroke-opacity="0.5" stroke-width="3.2"/>
<circle clip-path="url(#clip522)" cx="2177.66" cy="1067.81" r="14.4" fill="#009af9" fill-rule="evenodd" fill-opacity="0.5" stroke="#000000" stroke-opacity="0.5" stroke-width="3.2"/>
<circle clip-path="url(#clip522)" cx="1136.42" cy="786.65" r="14.4" fill="#009af9" fill-rule="evenodd" fill-opacity="0.5" stroke="#000000" stroke-opacity="0.5" stroke-width="3.2"/>
<circle clip-path="url(#clip522)" cx="1352.38" cy="778.521" r="14.4" fill="#009af9" fill-rule="evenodd" fill-opacity="0.5" stroke="#000000" stroke-opacity="0.5" stroke-width="3.2"/>
<circle clip-path="url(#clip522)" cx="1203.11" cy="1273.81" r="14.4" fill="#009af9" fill-rule="evenodd" fill-opacity="0.5" stroke="#000000" stroke-opacity="0.5" stroke-width="3.2"/>
<path clip-path="url(#clip522)" d="M209.891 1149.09 L1377.12 1357.48 L2290.34 1445.72 L2234.43 675.318 L1554.59 87.9763 L1240.44 284.529 L209.891 1149.09 L209.891 1149.09  Z" fill="#e26f46" fill-rule="evenodd" fill-opacity="0.2"/>
<polyline clip-path="url(#clip522)" style="stroke:#000000; stroke-linecap:round; stroke-linejoin:round; stroke-width:4; stroke-opacity:0.2; fill:none" points="209.891,1149.09 1377.12,1357.48 2290.34,1445.72 2234.43,675.318 1554.59,87.9763 1240.44,284.529 209.891,1149.09 "/>
</svg>
