<?xml version="1.0" encoding="utf-8"?>
<svg xmlns="http://www.w3.org/2000/svg" xmlns:xlink="http://www.w3.org/1999/xlink" width="600" height="400" viewBox="0 0 2400 1600">
<defs>
  <clipPath id="clip030">
    <rect x="0" y="0" width="2400" height="1600"/>
  </clipPath>
</defs>
<path clip-path="url(#clip030)" d="M0 1600 L2400 1600 L2400 0 L0 0  Z" fill="#ffffff" fill-rule="evenodd" fill-opacity="1"/>
<defs>
  <clipPath id="clip031">
    <rect x="480" y="0" width="1681" height="1600"/>
  </clipPath>
</defs>
<path clip-path="url(#clip030)" d="M148.057 1486.45 L2352.76 1486.45 L2352.76 47.2441 L148.057 47.2441  Z" fill="#ffffff" fill-rule="evenodd" fill-opacity="1"/>
<defs>
  <clipPath id="clip032">
    <rect x="148" y="47" width="2206" height="1440"/>
  </clipPath>
</defs>
<polyline clip-path="url(#clip032)" style="stroke:#000000; stroke-linecap:round; stroke-linejoin:round; stroke-width:2; stroke-opacity:0.1; fill:none" points="422.164,1486.45 422.164,47.2441 "/>
<polyline clip-path="url(#clip032)" style="stroke:#000000; stroke-linecap:round; stroke-linejoin:round; stroke-width:2; stroke-opacity:0.1; fill:none" points="904.355,1486.45 904.355,47.2441 "/>
<polyline clip-path="url(#clip032)" style="stroke:#000000; stroke-linecap:round; stroke-linejoin:round; stroke-width:2; stroke-opacity:0.1; fill:none" points="1386.55,1486.45 1386.55,47.2441 "/>
<polyline clip-path="url(#clip032)" style="stroke:#000000; stroke-linecap:round; stroke-linejoin:round; stroke-width:2; stroke-opacity:0.1; fill:none" points="1868.74,1486.45 1868.74,47.2441 "/>
<polyline clip-path="url(#clip032)" style="stroke:#000000; stroke-linecap:round; stroke-linejoin:round; stroke-width:2; stroke-opacity:0.1; fill:none" points="2350.93,1486.45 2350.93,47.2441 "/>
<polyline clip-path="url(#clip032)" style="stroke:#000000; stroke-linecap:round; stroke-linejoin:round; stroke-width:2; stroke-opacity:0.1; fill:none" points="148.057,1432.2 2352.76,1432.2 "/>
<polyline clip-path="url(#clip032)" style="stroke:#000000; stroke-linecap:round; stroke-linejoin:round; stroke-width:2; stroke-opacity:0.1; fill:none" points="148.057,1169 2352.76,1169 "/>
<polyline clip-path="url(#clip032)" style="stroke:#000000; stroke-linecap:round; stroke-linejoin:round; stroke-width:2; stroke-opacity:0.1; fill:none" points="148.057,905.794 2352.76,905.794 "/>
<polyline clip-path="url(#clip032)" style="stroke:#000000; stroke-linecap:round; stroke-linejoin:round; stroke-width:2; stroke-opacity:0.1; fill:none" points="148.057,642.59 2352.76,642.59 "/>
<polyline clip-path="url(#clip032)" style="stroke:#000000; stroke-linecap:round; stroke-linejoin:round; stroke-width:2; stroke-opacity:0.1; fill:none" points="148.057,379.386 2352.76,379.386 "/>
<polyline clip-path="url(#clip032)" style="stroke:#000000; stroke-linecap:round; stroke-linejoin:round; stroke-width:2; stroke-opacity:0.1; fill:none" points="148.057,116.182 2352.76,116.182 "/>
<polyline clip-path="url(#clip030)" style="stroke:#000000; stroke-linecap:round; stroke-linejoin:round; stroke-width:4; stroke-opacity:1; fill:none" points="148.057,1486.45 2352.76,1486.45 "/>
<polyline clip-path="url(#clip030)" style="stroke:#000000; stroke-linecap:round; stroke-linejoin:round; stroke-width:4; stroke-opacity:1; fill:none" points="422.164,1486.45 422.164,1467.55 "/>
<polyline clip-path="url(#clip030)" style="stroke:#000000; stroke-linecap:round; stroke-linejoin:round; stroke-width:4; stroke-opacity:1; fill:none" points="904.355,1486.45 904.355,1467.55 "/>
<polyline clip-path="url(#clip030)" style="stroke:#000000; stroke-linecap:round; stroke-linejoin:round; stroke-width:4; stroke-opacity:1; fill:none" points="1386.55,1486.45 1386.55,1467.55 "/>
<polyline clip-path="url(#clip030)" style="stroke:#000000; stroke-linecap:round; stroke-linejoin:round; stroke-width:4; stroke-opacity:1; fill:none" points="1868.74,1486.45 1868.74,1467.55 "/>
<polyline clip-path="url(#clip030)" style="stroke:#000000; stroke-linecap:round; stroke-linejoin:round; stroke-width:4; stroke-opacity:1; fill:none" points="2350.93,1486.45 2350.93,1467.55 "/>
<path clip-path="url(#clip030)" d="M392.107 1532.02 L421.782 1532.02 L421.782 1535.95 L392.107 1535.95 L392.107 1532.02 Z" fill="#000000" fill-rule="nonzero" fill-opacity="1" /><path clip-path="url(#clip030)" d="M435.903 1544.91 L452.222 1544.91 L452.222 1548.85 L430.278 1548.85 L430.278 1544.91 Q432.94 1542.16 437.523 1537.53 Q442.13 1532.88 443.31 1531.53 Q445.555 1529.01 446.435 1527.27 Q447.338 1525.51 447.338 1523.82 Q447.338 1521.07 445.393 1519.33 Q443.472 1517.6 440.37 1517.6 Q438.171 1517.6 435.718 1518.36 Q433.287 1519.13 430.509 1520.68 L430.509 1515.95 Q433.333 1514.82 435.787 1514.24 Q438.241 1513.66 440.278 1513.66 Q445.648 1513.66 448.843 1516.35 Q452.037 1519.03 452.037 1523.52 Q452.037 1525.65 451.227 1527.57 Q450.44 1529.47 448.333 1532.07 Q447.755 1532.74 444.653 1535.95 Q441.551 1539.15 435.903 1544.91 Z" fill="#000000" fill-rule="nonzero" fill-opacity="1" /><path clip-path="url(#clip030)" d="M874.112 1532.02 L903.788 1532.02 L903.788 1535.95 L874.112 1535.95 L874.112 1532.02 Z" fill="#000000" fill-rule="nonzero" fill-opacity="1" /><path clip-path="url(#clip030)" d="M914.691 1544.91 L922.33 1544.91 L922.33 1518.55 L914.019 1520.21 L914.019 1515.95 L922.283 1514.29 L926.959 1514.29 L926.959 1544.91 L934.598 1544.91 L934.598 1548.85 L914.691 1548.85 L914.691 1544.91 Z" fill="#000000" fill-rule="nonzero" fill-opacity="1" /><path clip-path="url(#clip030)" d="M1386.55 1517.37 Q1382.93 1517.37 1381.11 1520.93 Q1379.3 1524.47 1379.3 1531.6 Q1379.3 1538.71 1381.11 1542.27 Q1382.93 1545.82 1386.55 1545.82 Q1390.18 1545.82 1391.99 1542.27 Q1393.81 1538.71 1393.81 1531.6 Q1393.81 1524.47 1391.99 1520.93 Q1390.18 1517.37 1386.55 1517.37 M1386.55 1513.66 Q1392.36 1513.66 1395.41 1518.27 Q1398.49 1522.85 1398.49 1531.6 Q1398.49 1540.33 1395.41 1544.94 Q1392.36 1549.52 1386.55 1549.52 Q1380.74 1549.52 1377.66 1544.94 Q1374.6 1540.33 1374.6 1531.6 Q1374.6 1522.85 1377.66 1518.27 Q1380.74 1513.66 1386.55 1513.66 Z" fill="#000000" fill-rule="nonzero" fill-opacity="1" /><path clip-path="url(#clip030)" d="M1859.12 1544.91 L1866.76 1544.91 L1866.76 1518.55 L1858.45 1520.21 L1858.45 1515.95 L1866.71 1514.29 L1871.39 1514.29 L1871.39 1544.91 L1879.03 1544.91 L1879.03 1548.85 L1859.12 1548.85 L1859.12 1544.91 Z" fill="#000000" fill-rule="nonzero" fill-opacity="1" /><path clip-path="url(#clip030)" d="M2345.58 1544.91 L2361.9 1544.91 L2361.9 1548.85 L2339.96 1548.85 L2339.96 1544.91 Q2342.62 1542.16 2347.2 1537.53 Q2351.81 1532.88 2352.99 1531.53 Q2355.23 1529.01 2356.11 1527.27 Q2357.02 1525.51 2357.02 1523.82 Q2357.02 1521.07 2355.07 1519.33 Q2353.15 1517.6 2350.05 1517.6 Q2347.85 1517.6 2345.39 1518.36 Q2342.96 1519.13 2340.19 1520.68 L2340.19 1515.95 Q2343.01 1514.82 2345.46 1514.24 Q2347.92 1513.66 2349.96 1513.66 Q2355.33 1513.66 2358.52 1516.35 Q2361.71 1519.03 2361.71 1523.52 Q2361.71 1525.65 2360.9 1527.57 Q2360.12 1529.47 2358.01 1532.07 Q2357.43 1532.74 2354.33 1535.95 Q2351.23 1539.15 2345.58 1544.91 Z" fill="#000000" fill-rule="nonzero" fill-opacity="1" /><polyline clip-path="url(#clip030)" style="stroke:#000000; stroke-linecap:round; stroke-linejoin:round; stroke-width:4; stroke-opacity:1; fill:none" points="148.057,1486.45 148.057,47.2441 "/>
<polyline clip-path="url(#clip030)" style="stroke:#000000; stroke-linecap:round; stroke-linejoin:round; stroke-width:4; stroke-opacity:1; fill:none" points="148.057,1432.2 166.954,1432.2 "/>
<polyline clip-path="url(#clip030)" style="stroke:#000000; stroke-linecap:round; stroke-linejoin:round; stroke-width:4; stroke-opacity:1; fill:none" points="148.057,1169 166.954,1169 "/>
<polyline clip-path="url(#clip030)" style="stroke:#000000; stroke-linecap:round; stroke-linejoin:round; stroke-width:4; stroke-opacity:1; fill:none" points="148.057,905.794 166.954,905.794 "/>
<polyline clip-path="url(#clip030)" style="stroke:#000000; stroke-linecap:round; stroke-linejoin:round; stroke-width:4; stroke-opacity:1; fill:none" points="148.057,642.59 166.954,642.59 "/>
<polyline clip-path="url(#clip030)" style="stroke:#000000; stroke-linecap:round; stroke-linejoin:round; stroke-width:4; stroke-opacity:1; fill:none" points="148.057,379.386 166.954,379.386 "/>
<polyline clip-path="url(#clip030)" style="stroke:#000000; stroke-linecap:round; stroke-linejoin:round; stroke-width:4; stroke-opacity:1; fill:none" points="148.057,116.182 166.954,116.182 "/>
<path clip-path="url(#clip030)" d="M50.9921 1432.65 L80.6679 1432.65 L80.6679 1436.59 L50.9921 1436.59 L50.9921 1432.65 Z" fill="#000000" fill-rule="nonzero" fill-opacity="1" /><path clip-path="url(#clip030)" d="M104.927 1430.85 Q108.283 1431.57 110.158 1433.83 Q112.057 1436.1 112.057 1439.44 Q112.057 1444.55 108.538 1447.35 Q105.02 1450.15 98.5382 1450.15 Q96.3623 1450.15 94.0475 1449.71 Q91.7558 1449.3 89.3021 1448.44 L89.3021 1443.93 Q91.2465 1445.06 93.5613 1445.64 Q95.8761 1446.22 98.3993 1446.22 Q102.797 1446.22 105.089 1444.48 Q107.404 1442.75 107.404 1439.44 Q107.404 1436.38 105.251 1434.67 Q103.121 1432.93 99.3021 1432.93 L95.2743 1432.93 L95.2743 1429.09 L99.4872 1429.09 Q102.936 1429.09 104.765 1427.72 Q106.594 1426.33 106.594 1423.74 Q106.594 1421.08 104.696 1419.67 Q102.821 1418.23 99.3021 1418.23 Q97.3808 1418.23 95.1817 1418.65 Q92.9826 1419.07 90.3438 1419.94 L90.3438 1415.78 Q93.0058 1415.04 95.3206 1414.67 Q97.6585 1414.3 99.7187 1414.3 Q105.043 1414.3 108.145 1416.73 Q111.246 1419.13 111.246 1423.25 Q111.246 1426.13 109.603 1428.12 Q107.959 1430.08 104.927 1430.85 Z" fill="#000000" fill-rule="nonzero" fill-opacity="1" /><path clip-path="url(#clip030)" d="M51.9412 1169.45 L81.617 1169.45 L81.617 1173.38 L51.9412 1173.38 L51.9412 1169.45 Z" fill="#000000" fill-rule="nonzero" fill-opacity="1" /><path clip-path="url(#clip030)" d="M95.7373 1182.34 L112.057 1182.34 L112.057 1186.28 L90.1123 1186.28 L90.1123 1182.34 Q92.7743 1179.59 97.3576 1174.96 Q101.964 1170.31 103.145 1168.96 Q105.39 1166.44 106.27 1164.7 Q107.172 1162.94 107.172 1161.25 Q107.172 1158.5 105.228 1156.76 Q103.307 1155.03 100.205 1155.03 Q98.0058 1155.03 95.5521 1155.79 Q93.1215 1156.56 90.3438 1158.11 L90.3438 1153.38 Q93.1678 1152.25 95.6215 1151.67 Q98.0752 1151.09 100.112 1151.09 Q105.483 1151.09 108.677 1153.78 Q111.871 1156.46 111.871 1160.95 Q111.871 1163.08 111.061 1165 Q110.274 1166.9 108.168 1169.5 Q107.589 1170.17 104.487 1173.38 Q101.385 1176.58 95.7373 1182.34 Z" fill="#000000" fill-rule="nonzero" fill-opacity="1" /><path clip-path="url(#clip030)" d="M51.5708 906.245 L81.2466 906.245 L81.2466 910.18 L51.5708 910.18 L51.5708 906.245 Z" fill="#000000" fill-rule="nonzero" fill-opacity="1" /><path clip-path="url(#clip030)" d="M92.1493 919.138 L99.7882 919.138 L99.7882 892.773 L91.478 894.44 L91.478 890.18 L99.7419 888.514 L104.418 888.514 L104.418 919.138 L112.057 919.138 L112.057 923.074 L92.1493 923.074 L92.1493 919.138 Z" fill="#000000" fill-rule="nonzero" fill-opacity="1" /><path clip-path="url(#clip030)" d="M100.112 628.388 Q96.5011 628.388 94.6724 631.953 Q92.8669 635.495 92.8669 642.624 Q92.8669 649.731 94.6724 653.296 Q96.5011 656.837 100.112 656.837 Q103.746 656.837 105.552 653.296 Q107.381 649.731 107.381 642.624 Q107.381 635.495 105.552 631.953 Q103.746 628.388 100.112 628.388 M100.112 624.685 Q105.922 624.685 108.978 629.291 Q112.057 633.874 112.057 642.624 Q112.057 651.351 108.978 655.958 Q105.922 660.541 100.112 660.541 Q94.3021 660.541 91.2234 655.958 Q88.1679 651.351 88.1679 642.624 Q88.1679 633.874 91.2234 629.291 Q94.3021 624.685 100.112 624.685 Z" fill="#000000" fill-rule="nonzero" fill-opacity="1" /><path clip-path="url(#clip030)" d="M92.1493 392.731 L99.7882 392.731 L99.7882 366.365 L91.478 368.032 L91.478 363.772 L99.7419 362.106 L104.418 362.106 L104.418 392.731 L112.057 392.731 L112.057 396.666 L92.1493 396.666 L92.1493 392.731 Z" fill="#000000" fill-rule="nonzero" fill-opacity="1" /><path clip-path="url(#clip030)" d="M95.7373 129.527 L112.057 129.527 L112.057 133.462 L90.1123 133.462 L90.1123 129.527 Q92.7743 126.772 97.3576 122.142 Q101.964 117.49 103.145 116.147 Q105.39 113.624 106.27 111.888 Q107.172 110.129 107.172 108.439 Q107.172 105.684 105.228 103.948 Q103.307 102.212 100.205 102.212 Q98.0058 102.212 95.5521 102.976 Q93.1215 103.74 90.3438 105.291 L90.3438 100.568 Q93.1678 99.4342 95.6215 98.8555 Q98.0752 98.2768 100.112 98.2768 Q105.483 98.2768 108.677 100.962 Q111.871 103.647 111.871 108.138 Q111.871 110.267 111.061 112.189 Q110.274 114.087 108.168 116.679 Q107.589 117.351 104.487 120.568 Q101.385 123.763 95.7373 129.527 Z" fill="#000000" fill-rule="nonzero" fill-opacity="1" /><circle clip-path="url(#clip032)" cx="1252.41" cy="917.594" r="14.4" fill="#009af9" fill-rule="evenodd" fill-opacity="0.5" stroke="#000000" stroke-opacity="0.5" stroke-width="3.2"/>
<circle clip-path="url(#clip032)" cx="1933.24" cy="507.668" r="14.4" fill="#009af9" fill-rule="evenodd" fill-opacity="0.5" stroke="#000000" stroke-opacity="0.5" stroke-width="3.2"/>
<circle clip-path="url(#clip032)" cx="2290.36" cy="692.653" r="14.4" fill="#009af9" fill-rule="evenodd" fill-opacity="0.5" stroke="#000000" stroke-opacity="0.5" stroke-width="3.2"/>
<circle clip-path="url(#clip032)" cx="537.744" cy="676.822" r="14.4" fill="#009af9" fill-rule="evenodd" fill-opacity="0.5" stroke="#000000" stroke-opacity="0.5" stroke-width="3.2"/>
<circle clip-path="url(#clip032)" cx="2053.09" cy="686.244" r="14.4" fill="#009af9" fill-rule="evenodd" fill-opacity="0.5" stroke="#000000" stroke-opacity="0.5" stroke-width="3.2"/>
<circle clip-path="url(#clip032)" cx="1257.68" cy="702.711" r="14.4" fill="#009af9" fill-rule="evenodd" fill-opacity="0.5" stroke="#000000" stroke-opacity="0.5" stroke-width="3.2"/>
<circle clip-path="url(#clip032)" cx="1662.15" cy="891.398" r="14.4" fill="#009af9" fill-rule="evenodd" fill-opacity="0.5" stroke="#000000" stroke-opacity="0.5" stroke-width="3.2"/>
<circle clip-path="url(#clip032)" cx="1183.13" cy="628.247" r="14.4" fill="#009af9" fill-rule="evenodd" fill-opacity="0.5" stroke="#000000" stroke-opacity="0.5" stroke-width="3.2"/>
<circle clip-path="url(#clip032)" cx="854.343" cy="87.9763" r="14.4" fill="#009af9" fill-rule="evenodd" fill-opacity="0.5" stroke="#000000" stroke-opacity="0.5" stroke-width="3.2"/>
<circle clip-path="url(#clip032)" cx="2116.03" cy="736.399" r="14.4" fill="#009af9" fill-rule="evenodd" fill-opacity="0.5" stroke="#000000" stroke-opacity="0.5" stroke-width="3.2"/>
<circle clip-path="url(#clip032)" cx="1181.42" cy="598.291" r="14.4" fill="#009af9" fill-rule="evenodd" fill-opacity="0.5" stroke="#000000" stroke-opacity="0.5" stroke-width="3.2"/>
<circle clip-path="url(#clip032)" cx="1348.93" cy="1445.72" r="14.4" fill="#009af9" fill-rule="evenodd" fill-opacity="0.5" stroke="#000000" stroke-opacity="0.5" stroke-width="3.2"/>
<circle clip-path="url(#clip032)" cx="1804.86" cy="645.91" r="14.4" fill="#009af9" fill-rule="evenodd" fill-opacity="0.5" stroke="#000000" stroke-opacity="0.5" stroke-width="3.2"/>
<circle clip-path="url(#clip032)" cx="1443.2" cy="763.267" r="14.4" fill="#009af9" fill-rule="evenodd" fill-opacity="0.5" stroke="#000000" stroke-opacity="0.5" stroke-width="3.2"/>
<circle clip-path="url(#clip032)" cx="1656.53" cy="1227.89" r="14.4" fill="#009af9" fill-rule="evenodd" fill-opacity="0.5" stroke="#000000" stroke-opacity="0.5" stroke-width="3.2"/>
<circle clip-path="url(#clip032)" cx="1481.1" cy="522.118" r="14.4" fill="#009af9" fill-rule="evenodd" fill-opacity="0.5" stroke="#000000" stroke-opacity="0.5" stroke-width="3.2"/>
<circle clip-path="url(#clip032)" cx="1391.3" cy="719.197" r="14.4" fill="#009af9" fill-rule="evenodd" fill-opacity="0.5" stroke="#000000" stroke-opacity="0.5" stroke-width="3.2"/>
<circle clip-path="url(#clip032)" cx="1083.14" cy="867.883" r="14.4" fill="#009af9" fill-rule="evenodd" fill-opacity="0.5" stroke="#000000" stroke-opacity="0.5" stroke-width="3.2"/>
<circle clip-path="url(#clip032)" cx="849.386" cy="961.324" r="14.4" fill="#009af9" fill-rule="evenodd" fill-opacity="0.5" stroke="#000000" stroke-opacity="0.5" stroke-width="3.2"/>
<circle clip-path="url(#clip032)" cx="1177.69" cy="454.547" r="14.4" fill="#009af9" fill-rule="evenodd" fill-opacity="0.5" stroke="#000000" stroke-opacity="0.5" stroke-width="3.2"/>
<circle clip-path="url(#clip032)" cx="1311.62" cy="193.863" r="14.4" fill="#009af9" fill-rule="evenodd" fill-opacity="0.5" stroke="#000000" stroke-opacity="0.5" stroke-width="3.2"/>
<circle clip-path="url(#clip032)" cx="483.87" cy="744.876" r="14.4" fill="#009af9" fill-rule="evenodd" fill-opacity="0.5" stroke="#000000" stroke-opacity="0.5" stroke-width="3.2"/>
<circle clip-path="url(#clip032)" cx="1352.98" cy="772.745" r="14.4" fill="#009af9" fill-rule="evenodd" fill-opacity="0.5" stroke="#000000" stroke-opacity="0.5" stroke-width="3.2"/>
<circle clip-path="url(#clip032)" cx="1457.43" cy="881.088" r="14.4" fill="#009af9" fill-rule="evenodd" fill-opacity="0.5" stroke="#000000" stroke-opacity="0.5" stroke-width="3.2"/>
<circle clip-path="url(#clip032)" cx="1112.19" cy="622.54" r="14.4" fill="#009af9" fill-rule="evenodd" fill-opacity="0.5" stroke="#000000" stroke-opacity="0.5" stroke-width="3.2"/>
<circle clip-path="url(#clip032)" cx="1293.63" cy="845.244" r="14.4" fill="#009af9" fill-rule="evenodd" fill-opacity="0.5" stroke="#000000" stroke-opacity="0.5" stroke-width="3.2"/>
<circle clip-path="url(#clip032)" cx="1085.85" cy="543.552" r="14.4" fill="#009af9" fill-rule="evenodd" fill-opacity="0.5" stroke="#000000" stroke-opacity="0.5" stroke-width="3.2"/>
<circle clip-path="url(#clip032)" cx="210.454" cy="611.743" r="14.4" fill="#009af9" fill-rule="evenodd" fill-opacity="0.5" stroke="#000000" stroke-opacity="0.5" stroke-width="3.2"/>
<circle clip-path="url(#clip032)" cx="1515.82" cy="540.582" r="14.4" fill="#009af9" fill-rule="evenodd" fill-opacity="0.5" stroke="#000000" stroke-opacity="0.5" stroke-width="3.2"/>
<circle clip-path="url(#clip032)" cx="2033.96" cy="549.8" r="14.4" fill="#009af9" fill-rule="evenodd" fill-opacity="0.5" stroke="#000000" stroke-opacity="0.5" stroke-width="3.2"/>
<path clip-path="url(#clip032)" d="M210.454 611.743 L1348.93 1445.72 L1656.53 1227.89 L2290.36 692.653 L2033.96 549.8 L1311.62 193.863 L854.343 87.9763 L210.454 611.743 L210.454 611.743  Z" fill="#e26f46" fill-rule="evenodd" fill-opacity="0.2"/>
<polyline clip-path="url(#clip032)" style="stroke:#000000; stroke-linecap:round; stroke-linejoin:round; stroke-width:4; stroke-opacity:0.2; fill:none" points="210.454,611.743 1348.93,1445.72 1656.53,1227.89 2290.36,692.653 2033.96,549.8 1311.62,193.863 854.343,87.9763 210.454,611.743 "/>
</svg>
