<?xml version="1.0" encoding="utf-8"?>
<svg xmlns="http://www.w3.org/2000/svg" xmlns:xlink="http://www.w3.org/1999/xlink" width="600" height="400" viewBox="0 0 2400 1600">
<defs>
  <clipPath id="clip040">
    <rect x="0" y="0" width="2400" height="1600"/>
  </clipPath>
</defs>
<path clip-path="url(#clip040)" d="M0 1600 L2400 1600 L2400 0 L0 0  Z" fill="#ffffff" fill-rule="evenodd" fill-opacity="1"/>
<defs>
  <clipPath id="clip041">
    <rect x="480" y="0" width="1681" height="1600"/>
  </clipPath>
</defs>
<path clip-path="url(#clip040)" d="M193.936 1486.45 L2352.76 1486.45 L2352.76 47.2441 L193.936 47.2441  Z" fill="#ffffff" fill-rule="evenodd" fill-opacity="1"/>
<defs>
  <clipPath id="clip042">
    <rect x="193" y="47" width="2160" height="1440"/>
  </clipPath>
</defs>
<polyline clip-path="url(#clip042)" style="stroke:#000000; stroke-linecap:round; stroke-linejoin:round; stroke-width:2; stroke-opacity:0.1; fill:none" points="193.936,1486.45 193.936,47.2441 "/>
<polyline clip-path="url(#clip042)" style="stroke:#000000; stroke-linecap:round; stroke-linejoin:round; stroke-width:2; stroke-opacity:0.1; fill:none" points="733.641,1486.45 733.641,47.2441 "/>
<polyline clip-path="url(#clip042)" style="stroke:#000000; stroke-linecap:round; stroke-linejoin:round; stroke-width:2; stroke-opacity:0.1; fill:none" points="1273.35,1486.45 1273.35,47.2441 "/>
<polyline clip-path="url(#clip042)" style="stroke:#000000; stroke-linecap:round; stroke-linejoin:round; stroke-width:2; stroke-opacity:0.1; fill:none" points="1813.05,1486.45 1813.05,47.2441 "/>
<polyline clip-path="url(#clip042)" style="stroke:#000000; stroke-linecap:round; stroke-linejoin:round; stroke-width:2; stroke-opacity:0.1; fill:none" points="2352.76,1486.45 2352.76,47.2441 "/>
<polyline clip-path="url(#clip042)" style="stroke:#000000; stroke-linecap:round; stroke-linejoin:round; stroke-width:2; stroke-opacity:0.1; fill:none" points="193.936,1486.45 2352.76,1486.45 "/>
<polyline clip-path="url(#clip042)" style="stroke:#000000; stroke-linecap:round; stroke-linejoin:round; stroke-width:2; stroke-opacity:0.1; fill:none" points="193.936,1126.65 2352.76,1126.65 "/>
<polyline clip-path="url(#clip042)" style="stroke:#000000; stroke-linecap:round; stroke-linejoin:round; stroke-width:2; stroke-opacity:0.1; fill:none" points="193.936,766.846 2352.76,766.846 "/>
<polyline clip-path="url(#clip042)" style="stroke:#000000; stroke-linecap:round; stroke-linejoin:round; stroke-width:2; stroke-opacity:0.1; fill:none" points="193.936,407.045 2352.76,407.045 "/>
<polyline clip-path="url(#clip042)" style="stroke:#000000; stroke-linecap:round; stroke-linejoin:round; stroke-width:2; stroke-opacity:0.1; fill:none" points="193.936,47.2441 2352.76,47.2441 "/>
<polyline clip-path="url(#clip040)" style="stroke:#000000; stroke-linecap:round; stroke-linejoin:round; stroke-width:4; stroke-opacity:1; fill:none" points="193.936,1486.45 2352.76,1486.45 "/>
<polyline clip-path="url(#clip040)" style="stroke:#000000; stroke-linecap:round; stroke-linejoin:round; stroke-width:4; stroke-opacity:1; fill:none" points="193.936,1486.45 193.936,1467.55 "/>
<polyline clip-path="url(#clip040)" style="stroke:#000000; stroke-linecap:round; stroke-linejoin:round; stroke-width:4; stroke-opacity:1; fill:none" points="733.641,1486.45 733.641,1467.55 "/>
<polyline clip-path="url(#clip040)" style="stroke:#000000; stroke-linecap:round; stroke-linejoin:round; stroke-width:4; stroke-opacity:1; fill:none" points="1273.35,1486.45 1273.35,1467.55 "/>
<polyline clip-path="url(#clip040)" style="stroke:#000000; stroke-linecap:round; stroke-linejoin:round; stroke-width:4; stroke-opacity:1; fill:none" points="1813.05,1486.45 1813.05,1467.55 "/>
<polyline clip-path="url(#clip040)" style="stroke:#000000; stroke-linecap:round; stroke-linejoin:round; stroke-width:4; stroke-opacity:1; fill:none" points="2352.76,1486.45 2352.76,1467.55 "/>
<path clip-path="url(#clip040)" d="M140.464 1532.02 L170.14 1532.02 L170.14 1535.95 L140.464 1535.95 L140.464 1532.02 Z" fill="#000000" fill-rule="nonzero" fill-opacity="1" /><path clip-path="url(#clip040)" d="M181.043 1544.91 L188.681 1544.91 L188.681 1518.55 L180.371 1520.21 L180.371 1515.95 L188.635 1514.29 L193.311 1514.29 L193.311 1544.91 L200.95 1544.91 L200.95 1548.85 L181.043 1548.85 L181.043 1544.91 Z" fill="#000000" fill-rule="nonzero" fill-opacity="1" /><path clip-path="url(#clip040)" d="M210.394 1542.97 L215.278 1542.97 L215.278 1548.85 L210.394 1548.85 L210.394 1542.97 Z" fill="#000000" fill-rule="nonzero" fill-opacity="1" /><path clip-path="url(#clip040)" d="M235.464 1517.37 Q231.852 1517.37 230.024 1520.93 Q228.218 1524.47 228.218 1531.6 Q228.218 1538.71 230.024 1542.27 Q231.852 1545.82 235.464 1545.82 Q239.098 1545.82 240.903 1542.27 Q242.732 1538.71 242.732 1531.6 Q242.732 1524.47 240.903 1520.93 Q239.098 1517.37 235.464 1517.37 M235.464 1513.66 Q241.274 1513.66 244.329 1518.27 Q247.408 1522.85 247.408 1531.6 Q247.408 1540.33 244.329 1544.94 Q241.274 1549.52 235.464 1549.52 Q229.653 1549.52 226.575 1544.94 Q223.519 1540.33 223.519 1531.6 Q223.519 1522.85 226.575 1518.27 Q229.653 1513.66 235.464 1513.66 Z" fill="#000000" fill-rule="nonzero" fill-opacity="1" /><path clip-path="url(#clip040)" d="M680.667 1532.02 L710.342 1532.02 L710.342 1535.95 L680.667 1535.95 L680.667 1532.02 Z" fill="#000000" fill-rule="nonzero" fill-opacity="1" /><path clip-path="url(#clip040)" d="M730.435 1517.37 Q726.824 1517.37 724.995 1520.93 Q723.19 1524.47 723.19 1531.6 Q723.19 1538.71 724.995 1542.27 Q726.824 1545.82 730.435 1545.82 Q734.069 1545.82 735.875 1542.27 Q737.703 1538.71 737.703 1531.6 Q737.703 1524.47 735.875 1520.93 Q734.069 1517.37 730.435 1517.37 M730.435 1513.66 Q736.245 1513.66 739.301 1518.27 Q742.379 1522.85 742.379 1531.6 Q742.379 1540.33 739.301 1544.94 Q736.245 1549.52 730.435 1549.52 Q724.625 1549.52 721.546 1544.94 Q718.491 1540.33 718.491 1531.6 Q718.491 1522.85 721.546 1518.27 Q724.625 1513.66 730.435 1513.66 Z" fill="#000000" fill-rule="nonzero" fill-opacity="1" /><path clip-path="url(#clip040)" d="M750.597 1542.97 L755.481 1542.97 L755.481 1548.85 L750.597 1548.85 L750.597 1542.97 Z" fill="#000000" fill-rule="nonzero" fill-opacity="1" /><path clip-path="url(#clip040)" d="M765.713 1514.29 L784.069 1514.29 L784.069 1518.22 L769.995 1518.22 L769.995 1526.7 Q771.013 1526.35 772.032 1526.19 Q773.05 1526 774.069 1526 Q779.856 1526 783.236 1529.17 Q786.615 1532.34 786.615 1537.76 Q786.615 1543.34 783.143 1546.44 Q779.671 1549.52 773.351 1549.52 Q771.175 1549.52 768.907 1549.15 Q766.662 1548.78 764.254 1548.04 L764.254 1543.34 Q766.338 1544.47 768.56 1545.03 Q770.782 1545.58 773.259 1545.58 Q777.263 1545.58 779.601 1543.48 Q781.939 1541.37 781.939 1537.76 Q781.939 1534.15 779.601 1532.04 Q777.263 1529.94 773.259 1529.94 Q771.384 1529.94 769.509 1530.35 Q767.657 1530.77 765.713 1531.65 L765.713 1514.29 Z" fill="#000000" fill-rule="nonzero" fill-opacity="1" /><path clip-path="url(#clip040)" d="M1250.73 1517.37 Q1247.12 1517.37 1245.29 1520.93 Q1243.49 1524.47 1243.49 1531.6 Q1243.49 1538.71 1245.29 1542.27 Q1247.12 1545.82 1250.73 1545.82 Q1254.36 1545.82 1256.17 1542.27 Q1258 1538.71 1258 1531.6 Q1258 1524.47 1256.17 1520.93 Q1254.36 1517.37 1250.73 1517.37 M1250.73 1513.66 Q1256.54 1513.66 1259.6 1518.27 Q1262.67 1522.85 1262.67 1531.6 Q1262.67 1540.33 1259.6 1544.94 Q1256.54 1549.52 1250.73 1549.52 Q1244.92 1549.52 1241.84 1544.94 Q1238.79 1540.33 1238.79 1531.6 Q1238.79 1522.85 1241.84 1518.27 Q1244.92 1513.66 1250.73 1513.66 Z" fill="#000000" fill-rule="nonzero" fill-opacity="1" /><path clip-path="url(#clip040)" d="M1270.89 1542.97 L1275.78 1542.97 L1275.78 1548.85 L1270.89 1548.85 L1270.89 1542.97 Z" fill="#000000" fill-rule="nonzero" fill-opacity="1" /><path clip-path="url(#clip040)" d="M1295.96 1517.37 Q1292.35 1517.37 1290.52 1520.93 Q1288.72 1524.47 1288.72 1531.6 Q1288.72 1538.71 1290.52 1542.27 Q1292.35 1545.82 1295.96 1545.82 Q1299.6 1545.82 1301.4 1542.27 Q1303.23 1538.71 1303.23 1531.6 Q1303.23 1524.47 1301.4 1520.93 Q1299.6 1517.37 1295.96 1517.37 M1295.96 1513.66 Q1301.77 1513.66 1304.83 1518.27 Q1307.91 1522.85 1307.91 1531.6 Q1307.91 1540.33 1304.83 1544.94 Q1301.77 1549.52 1295.96 1549.52 Q1290.15 1549.52 1287.07 1544.94 Q1284.02 1540.33 1284.02 1531.6 Q1284.02 1522.85 1287.07 1518.27 Q1290.15 1513.66 1295.96 1513.66 Z" fill="#000000" fill-rule="nonzero" fill-opacity="1" /><path clip-path="url(#clip040)" d="M1790.93 1517.37 Q1787.32 1517.37 1785.49 1520.93 Q1783.69 1524.47 1783.69 1531.6 Q1783.69 1538.71 1785.49 1542.27 Q1787.32 1545.82 1790.93 1545.82 Q1794.57 1545.82 1796.37 1542.27 Q1798.2 1538.71 1798.2 1531.6 Q1798.2 1524.47 1796.37 1520.93 Q1794.57 1517.37 1790.93 1517.37 M1790.93 1513.66 Q1796.74 1513.66 1799.8 1518.27 Q1802.88 1522.85 1802.88 1531.6 Q1802.88 1540.33 1799.8 1544.94 Q1796.74 1549.52 1790.93 1549.52 Q1785.12 1549.52 1782.04 1544.94 Q1778.99 1540.33 1778.99 1531.6 Q1778.99 1522.85 1782.04 1518.27 Q1785.12 1513.66 1790.93 1513.66 Z" fill="#000000" fill-rule="nonzero" fill-opacity="1" /><path clip-path="url(#clip040)" d="M1811.09 1542.97 L1815.98 1542.97 L1815.98 1548.85 L1811.09 1548.85 L1811.09 1542.97 Z" fill="#000000" fill-rule="nonzero" fill-opacity="1" /><path clip-path="url(#clip040)" d="M1826.21 1514.29 L1844.57 1514.29 L1844.57 1518.22 L1830.49 1518.22 L1830.49 1526.7 Q1831.51 1526.35 1832.53 1526.19 Q1833.55 1526 1834.57 1526 Q1840.35 1526 1843.73 1529.17 Q1847.11 1532.34 1847.11 1537.76 Q1847.11 1543.34 1843.64 1546.44 Q1840.17 1549.52 1833.85 1549.52 Q1831.67 1549.52 1829.41 1549.15 Q1827.16 1548.78 1824.75 1548.04 L1824.75 1543.34 Q1826.84 1544.47 1829.06 1545.03 Q1831.28 1545.58 1833.76 1545.58 Q1837.76 1545.58 1840.1 1543.48 Q1842.44 1541.37 1842.44 1537.76 Q1842.44 1534.15 1840.1 1532.04 Q1837.76 1529.94 1833.76 1529.94 Q1831.88 1529.94 1830.01 1530.35 Q1828.16 1530.77 1826.21 1531.65 L1826.21 1514.29 Z" fill="#000000" fill-rule="nonzero" fill-opacity="1" /><path clip-path="url(#clip040)" d="M2319.91 1544.91 L2327.55 1544.91 L2327.55 1518.55 L2319.24 1520.21 L2319.24 1515.95 L2327.5 1514.29 L2332.18 1514.29 L2332.18 1544.91 L2339.82 1544.91 L2339.82 1548.85 L2319.91 1548.85 L2319.91 1544.91 Z" fill="#000000" fill-rule="nonzero" fill-opacity="1" /><path clip-path="url(#clip040)" d="M2349.26 1542.97 L2354.14 1542.97 L2354.14 1548.85 L2349.26 1548.85 L2349.26 1542.97 Z" fill="#000000" fill-rule="nonzero" fill-opacity="1" /><path clip-path="url(#clip040)" d="M2374.33 1517.37 Q2370.72 1517.37 2368.89 1520.93 Q2367.08 1524.47 2367.08 1531.6 Q2367.08 1538.71 2368.89 1542.27 Q2370.72 1545.82 2374.33 1545.82 Q2377.96 1545.82 2379.77 1542.27 Q2381.6 1538.71 2381.6 1531.6 Q2381.6 1524.47 2379.77 1520.93 Q2377.96 1517.37 2374.33 1517.37 M2374.33 1513.66 Q2380.14 1513.66 2383.2 1518.27 Q2386.27 1522.85 2386.27 1531.6 Q2386.27 1540.33 2383.2 1544.94 Q2380.14 1549.52 2374.33 1549.52 Q2368.52 1549.52 2365.44 1544.94 Q2362.39 1540.33 2362.39 1531.6 Q2362.39 1522.85 2365.44 1518.27 Q2368.52 1513.66 2374.33 1513.66 Z" fill="#000000" fill-rule="nonzero" fill-opacity="1" /><polyline clip-path="url(#clip040)" style="stroke:#000000; stroke-linecap:round; stroke-linejoin:round; stroke-width:4; stroke-opacity:1; fill:none" points="193.936,1486.45 193.936,47.2441 "/>
<polyline clip-path="url(#clip040)" style="stroke:#000000; stroke-linecap:round; stroke-linejoin:round; stroke-width:4; stroke-opacity:1; fill:none" points="193.936,1486.45 212.834,1486.45 "/>
<polyline clip-path="url(#clip040)" style="stroke:#000000; stroke-linecap:round; stroke-linejoin:round; stroke-width:4; stroke-opacity:1; fill:none" points="193.936,1126.65 212.834,1126.65 "/>
<polyline clip-path="url(#clip040)" style="stroke:#000000; stroke-linecap:round; stroke-linejoin:round; stroke-width:4; stroke-opacity:1; fill:none" points="193.936,766.846 212.834,766.846 "/>
<polyline clip-path="url(#clip040)" style="stroke:#000000; stroke-linecap:round; stroke-linejoin:round; stroke-width:4; stroke-opacity:1; fill:none" points="193.936,407.045 212.834,407.045 "/>
<polyline clip-path="url(#clip040)" style="stroke:#000000; stroke-linecap:round; stroke-linejoin:round; stroke-width:4; stroke-opacity:1; fill:none" points="193.936,47.2441 212.834,47.2441 "/>
<path clip-path="url(#clip040)" d="M50.9921 1486.9 L80.6679 1486.9 L80.6679 1490.83 L50.9921 1490.83 L50.9921 1486.9 Z" fill="#000000" fill-rule="nonzero" fill-opacity="1" /><path clip-path="url(#clip040)" d="M91.5706 1499.79 L99.2095 1499.79 L99.2095 1473.43 L90.8993 1475.09 L90.8993 1470.83 L99.1632 1469.17 L103.839 1469.17 L103.839 1499.79 L111.478 1499.79 L111.478 1503.73 L91.5706 1503.73 L91.5706 1499.79 Z" fill="#000000" fill-rule="nonzero" fill-opacity="1" /><path clip-path="url(#clip040)" d="M120.922 1497.85 L125.807 1497.85 L125.807 1503.73 L120.922 1503.73 L120.922 1497.85 Z" fill="#000000" fill-rule="nonzero" fill-opacity="1" /><path clip-path="url(#clip040)" d="M145.992 1472.25 Q142.381 1472.25 140.552 1475.81 Q138.746 1479.35 138.746 1486.48 Q138.746 1493.59 140.552 1497.15 Q142.381 1500.7 145.992 1500.7 Q149.626 1500.7 151.431 1497.15 Q153.26 1493.59 153.26 1486.48 Q153.26 1479.35 151.431 1475.81 Q149.626 1472.25 145.992 1472.25 M145.992 1468.54 Q151.802 1468.54 154.857 1473.15 Q157.936 1477.73 157.936 1486.48 Q157.936 1495.21 154.857 1499.82 Q151.802 1504.4 145.992 1504.4 Q140.181 1504.4 137.103 1499.82 Q134.047 1495.21 134.047 1486.48 Q134.047 1477.73 137.103 1473.15 Q140.181 1468.54 145.992 1468.54 Z" fill="#000000" fill-rule="nonzero" fill-opacity="1" /><path clip-path="url(#clip040)" d="M51.9875 1127.1 L81.6633 1127.1 L81.6633 1131.03 L51.9875 1131.03 L51.9875 1127.1 Z" fill="#000000" fill-rule="nonzero" fill-opacity="1" /><path clip-path="url(#clip040)" d="M101.756 1112.45 Q98.1447 1112.45 96.316 1116.01 Q94.5104 1119.55 94.5104 1126.68 Q94.5104 1133.79 96.316 1137.35 Q98.1447 1140.89 101.756 1140.89 Q105.39 1140.89 107.196 1137.35 Q109.024 1133.79 109.024 1126.68 Q109.024 1119.55 107.196 1116.01 Q105.39 1112.45 101.756 1112.45 M101.756 1108.74 Q107.566 1108.74 110.621 1113.35 Q113.7 1117.93 113.7 1126.68 Q113.7 1135.41 110.621 1140.01 Q107.566 1144.6 101.756 1144.6 Q95.9456 1144.6 92.8669 1140.01 Q89.8114 1135.41 89.8114 1126.68 Q89.8114 1117.93 92.8669 1113.35 Q95.9456 1108.74 101.756 1108.74 Z" fill="#000000" fill-rule="nonzero" fill-opacity="1" /><path clip-path="url(#clip040)" d="M121.918 1138.05 L126.802 1138.05 L126.802 1143.93 L121.918 1143.93 L121.918 1138.05 Z" fill="#000000" fill-rule="nonzero" fill-opacity="1" /><path clip-path="url(#clip040)" d="M137.033 1109.37 L155.39 1109.37 L155.39 1113.3 L141.316 1113.3 L141.316 1121.77 Q142.334 1121.43 143.353 1121.27 Q144.371 1121.08 145.39 1121.08 Q151.177 1121.08 154.556 1124.25 Q157.936 1127.42 157.936 1132.84 Q157.936 1138.42 154.464 1141.52 Q150.992 1144.6 144.672 1144.6 Q142.496 1144.6 140.228 1144.23 Q137.982 1143.86 135.575 1143.12 L135.575 1138.42 Q137.658 1139.55 139.881 1140.11 Q142.103 1140.66 144.58 1140.66 Q148.584 1140.66 150.922 1138.56 Q153.26 1136.45 153.26 1132.84 Q153.26 1129.23 150.922 1127.12 Q148.584 1125.01 144.58 1125.01 Q142.705 1125.01 140.83 1125.43 Q138.978 1125.85 137.033 1126.73 L137.033 1109.37 Z" fill="#000000" fill-rule="nonzero" fill-opacity="1" /><path clip-path="url(#clip040)" d="M100.76 752.645 Q97.1493 752.645 95.3206 756.209 Q93.515 759.751 93.515 766.881 Q93.515 773.987 95.3206 777.552 Q97.1493 781.094 100.76 781.094 Q104.395 781.094 106.2 777.552 Q108.029 773.987 108.029 766.881 Q108.029 759.751 106.2 756.209 Q104.395 752.645 100.76 752.645 M100.76 748.941 Q106.571 748.941 109.626 753.547 Q112.705 758.131 112.705 766.881 Q112.705 775.608 109.626 780.214 Q106.571 784.797 100.76 784.797 Q94.9502 784.797 91.8715 780.214 Q88.816 775.608 88.816 766.881 Q88.816 758.131 91.8715 753.547 Q94.9502 748.941 100.76 748.941 Z" fill="#000000" fill-rule="nonzero" fill-opacity="1" /><path clip-path="url(#clip040)" d="M120.922 778.246 L125.807 778.246 L125.807 784.126 L120.922 784.126 L120.922 778.246 Z" fill="#000000" fill-rule="nonzero" fill-opacity="1" /><path clip-path="url(#clip040)" d="M145.992 752.645 Q142.381 752.645 140.552 756.209 Q138.746 759.751 138.746 766.881 Q138.746 773.987 140.552 777.552 Q142.381 781.094 145.992 781.094 Q149.626 781.094 151.431 777.552 Q153.26 773.987 153.26 766.881 Q153.26 759.751 151.431 756.209 Q149.626 752.645 145.992 752.645 M145.992 748.941 Q151.802 748.941 154.857 753.547 Q157.936 758.131 157.936 766.881 Q157.936 775.608 154.857 780.214 Q151.802 784.797 145.992 784.797 Q140.181 784.797 137.103 780.214 Q134.047 775.608 134.047 766.881 Q134.047 758.131 137.103 753.547 Q140.181 748.941 145.992 748.941 Z" fill="#000000" fill-rule="nonzero" fill-opacity="1" /><path clip-path="url(#clip040)" d="M101.756 392.844 Q98.1447 392.844 96.316 396.409 Q94.5104 399.95 94.5104 407.08 Q94.5104 414.186 96.316 417.751 Q98.1447 421.293 101.756 421.293 Q105.39 421.293 107.196 417.751 Q109.024 414.186 109.024 407.08 Q109.024 399.95 107.196 396.409 Q105.39 392.844 101.756 392.844 M101.756 389.14 Q107.566 389.14 110.621 393.746 Q113.7 398.33 113.7 407.08 Q113.7 415.807 110.621 420.413 Q107.566 424.996 101.756 424.996 Q95.9456 424.996 92.8669 420.413 Q89.8114 415.807 89.8114 407.08 Q89.8114 398.33 92.8669 393.746 Q95.9456 389.14 101.756 389.14 Z" fill="#000000" fill-rule="nonzero" fill-opacity="1" /><path clip-path="url(#clip040)" d="M121.918 418.445 L126.802 418.445 L126.802 424.325 L121.918 424.325 L121.918 418.445 Z" fill="#000000" fill-rule="nonzero" fill-opacity="1" /><path clip-path="url(#clip040)" d="M137.033 389.765 L155.39 389.765 L155.39 393.7 L141.316 393.7 L141.316 402.172 Q142.334 401.825 143.353 401.663 Q144.371 401.478 145.39 401.478 Q151.177 401.478 154.556 404.649 Q157.936 407.82 157.936 413.237 Q157.936 418.816 154.464 421.918 Q150.992 424.996 144.672 424.996 Q142.496 424.996 140.228 424.626 Q137.982 424.256 135.575 423.515 L135.575 418.816 Q137.658 419.95 139.881 420.506 Q142.103 421.061 144.58 421.061 Q148.584 421.061 150.922 418.955 Q153.26 416.848 153.26 413.237 Q153.26 409.626 150.922 407.52 Q148.584 405.413 144.58 405.413 Q142.705 405.413 140.83 405.83 Q138.978 406.246 137.033 407.126 L137.033 389.765 Z" fill="#000000" fill-rule="nonzero" fill-opacity="1" /><path clip-path="url(#clip040)" d="M91.5706 60.5889 L99.2095 60.5889 L99.2095 34.2233 L90.8993 35.89 L90.8993 31.6308 L99.1632 29.9641 L103.839 29.9641 L103.839 60.5889 L111.478 60.5889 L111.478 64.5241 L91.5706 64.5241 L91.5706 60.5889 Z" fill="#000000" fill-rule="nonzero" fill-opacity="1" /><path clip-path="url(#clip040)" d="M120.922 58.6445 L125.807 58.6445 L125.807 64.5241 L120.922 64.5241 L120.922 58.6445 Z" fill="#000000" fill-rule="nonzero" fill-opacity="1" /><path clip-path="url(#clip040)" d="M145.992 33.0428 Q142.381 33.0428 140.552 36.6076 Q138.746 40.1492 138.746 47.2788 Q138.746 54.3853 140.552 57.9501 Q142.381 61.4917 145.992 61.4917 Q149.626 61.4917 151.431 57.9501 Q153.26 54.3853 153.26 47.2788 Q153.26 40.1492 151.431 36.6076 Q149.626 33.0428 145.992 33.0428 M145.992 29.3391 Q151.802 29.3391 154.857 33.9456 Q157.936 38.5289 157.936 47.2788 Q157.936 56.0056 154.857 60.6121 Q151.802 65.1954 145.992 65.1954 Q140.181 65.1954 137.103 60.6121 Q134.047 56.0056 134.047 47.2788 Q134.047 38.5289 137.103 33.9456 Q140.181 29.3391 145.992 29.3391 Z" fill="#000000" fill-rule="nonzero" fill-opacity="1" /><path clip-path="url(#clip042)" d="M-1.07922e+06 -719555 L-1.07922e+06 721088 L1.08176e+06 -719555 L-1.07922e+06 -719555 L-1.07922e+06 -719555  Z" fill="#009af9" fill-rule="evenodd" fill-opacity="0.5"/>
<polyline clip-path="url(#clip042)" style="stroke:#000000; stroke-linecap:round; stroke-linejoin:round; stroke-width:4; stroke-opacity:0.5; fill:none" points="-1.07922e+06,-719555 -1.07922e+06,721088 1.08176e+06,-719555 -1.07922e+06,-719555 "/>
<path clip-path="url(#clip042)" d="M1.08176e+06 -719555 L-1.07922e+06 -719555 L1.08176e+06 721088 L1.08176e+06 -719555 L1.08176e+06 -719555  Z" fill="#e26f46" fill-rule="evenodd" fill-opacity="0.5"/>
<polyline clip-path="url(#clip042)" style="stroke:#000000; stroke-linecap:round; stroke-linejoin:round; stroke-width:4; stroke-opacity:0.5; fill:none" points="1.08176e+06,-719555 -1.07922e+06,-719555 1.08176e+06,721088 1.08176e+06,-719555 "/>
<path clip-path="url(#clip042)" d="M-1.07922e+06 -719555 L1273.35 766.846 L1.08176e+06 -719555 L-1.07922e+06 -719555 L-1.07922e+06 -719555  Z" fill="#3da44d" fill-rule="evenodd" fill-opacity="0.5"/>
<polyline clip-path="url(#clip042)" style="stroke:#000000; stroke-linecap:round; stroke-linejoin:round; stroke-width:8; stroke-opacity:0.5; fill:none" stroke-dasharray="32, 20" points="-1.07922e+06,-719555 1273.35,766.846 1.08176e+06,-719555 -1.07922e+06,-719555 "/>
<path clip-path="url(#clip040)" d="M1779.41 302.578 L2280.8 302.578 L2280.8 95.2176 L1779.41 95.2176  Z" fill="#ffffff" fill-rule="evenodd" fill-opacity="1"/>
<polyline clip-path="url(#clip040)" style="stroke:#000000; stroke-linecap:round; stroke-linejoin:round; stroke-width:4; stroke-opacity:1; fill:none" points="1779.41,302.578 2280.8,302.578 2280.8,95.2176 1779.41,95.2176 1779.41,302.578 "/>
<path clip-path="url(#clip040)" d="M1803.39 167.794 L1947.31 167.794 L1947.31 126.322 L1803.39 126.322 L1803.39 167.794  Z" fill="#009af9" fill-rule="evenodd" fill-opacity="0.5"/>
<polyline clip-path="url(#clip040)" style="stroke:#000000; stroke-linecap:round; stroke-linejoin:round; stroke-width:4; stroke-opacity:1; fill:none" points="1803.39,167.794 1947.31,167.794 1947.31,126.322 1803.39,126.322 1803.39,167.794 "/>
<path clip-path="url(#clip040)" d="M1971.3 129.778 L1975.98 129.778 L1975.98 143.944 L1992.97 143.944 L1992.97 129.778 L1997.64 129.778 L1997.64 164.338 L1992.97 164.338 L1992.97 147.879 L1975.98 147.879 L1975.98 164.338 L1971.3 164.338 L1971.3 129.778 Z" fill="#000000" fill-rule="nonzero" fill-opacity="1" /><path clip-path="url(#clip040)" d="M2008.18 160.402 L2015.81 160.402 L2015.81 134.037 L2007.5 135.703 L2007.5 131.444 L2015.77 129.778 L2020.44 129.778 L2020.44 160.402 L2028.08 160.402 L2028.08 164.338 L2008.18 164.338 L2008.18 160.402 Z" fill="#000000" fill-rule="nonzero" fill-opacity="1" /><path clip-path="url(#clip040)" d="M1803.39 219.634 L1947.31 219.634 L1947.31 178.162 L1803.39 178.162 L1803.39 219.634  Z" fill="#e26f46" fill-rule="evenodd" fill-opacity="0.5"/>
<polyline clip-path="url(#clip040)" style="stroke:#000000; stroke-linecap:round; stroke-linejoin:round; stroke-width:4; stroke-opacity:1; fill:none" points="1803.39,219.634 1947.31,219.634 1947.31,178.162 1803.39,178.162 1803.39,219.634 "/>
<path clip-path="url(#clip040)" d="M1971.3 181.618 L1975.98 181.618 L1975.98 195.784 L1992.97 195.784 L1992.97 181.618 L1997.64 181.618 L1997.64 216.178 L1992.97 216.178 L1992.97 199.719 L1975.98 199.719 L1975.98 216.178 L1971.3 216.178 L1971.3 181.618 Z" fill="#000000" fill-rule="nonzero" fill-opacity="1" /><path clip-path="url(#clip040)" d="M2011.39 212.242 L2027.71 212.242 L2027.71 216.178 L2005.77 216.178 L2005.77 212.242 Q2008.43 209.488 2013.01 204.858 Q2017.62 200.205 2018.8 198.863 Q2021.05 196.34 2021.93 194.604 Q2022.83 192.844 2022.83 191.155 Q2022.83 188.4 2020.88 186.664 Q2018.96 184.928 2015.86 184.928 Q2013.66 184.928 2011.21 185.692 Q2008.78 186.455 2006 188.006 L2006 183.284 Q2008.82 182.15 2011.28 181.571 Q2013.73 180.993 2015.77 180.993 Q2021.14 180.993 2024.33 183.678 Q2027.53 186.363 2027.53 190.854 Q2027.53 192.983 2026.72 194.905 Q2025.93 196.803 2023.82 199.395 Q2023.24 200.067 2020.14 203.284 Q2017.04 206.479 2011.39 212.242 Z" fill="#000000" fill-rule="nonzero" fill-opacity="1" /><path clip-path="url(#clip040)" d="M1803.39 271.474 L1947.31 271.474 L1947.31 230.002 L1803.39 230.002 L1803.39 271.474  Z" fill="#3da44d" fill-rule="evenodd" fill-opacity="0.5"/>
<polyline clip-path="url(#clip040)" style="stroke:#000000; stroke-linecap:round; stroke-linejoin:round; stroke-width:8; stroke-opacity:1; fill:none" stroke-dasharray="32, 20" points="1803.39,271.474 1947.31,271.474 1947.31,230.002 1803.39,230.002 1803.39,271.474 "/>
<path clip-path="url(#clip040)" d="M1975.98 237.3 L1975.98 250.286 L1981.86 250.286 Q1985.12 250.286 1986.9 248.596 Q1988.68 246.907 1988.68 243.782 Q1988.68 240.68 1986.9 238.99 Q1985.12 237.3 1981.86 237.3 L1975.98 237.3 M1971.3 233.458 L1981.86 233.458 Q1987.67 233.458 1990.63 236.096 Q1993.62 238.712 1993.62 243.782 Q1993.62 248.897 1990.63 251.513 Q1987.67 254.129 1981.86 254.129 L1975.98 254.129 L1975.98 268.018 L1971.3 268.018 L1971.3 233.458 Z" fill="#000000" fill-rule="nonzero" fill-opacity="1" /><path clip-path="url(#clip040)" d="M2015.33 246.49 L2045 246.49 L2045 250.379 L2015.33 250.379 L2015.33 246.49 M2015.33 255.934 L2045 255.934 L2045 259.869 L2015.33 259.869 L2015.33 255.934 Z" fill="#000000" fill-rule="nonzero" fill-opacity="1" /><path clip-path="url(#clip040)" d="M2069.75 233.458 L2074.43 233.458 L2074.43 247.624 L2091.42 247.624 L2091.42 233.458 L2096.09 233.458 L2096.09 268.018 L2091.42 268.018 L2091.42 251.559 L2074.43 251.559 L2074.43 268.018 L2069.75 268.018 L2069.75 233.458 Z" fill="#000000" fill-rule="nonzero" fill-opacity="1" /><path clip-path="url(#clip040)" d="M2106.62 264.082 L2114.26 264.082 L2114.26 237.717 L2105.95 239.383 L2105.95 235.124 L2114.22 233.458 L2118.89 233.458 L2118.89 264.082 L2126.53 264.082 L2126.53 268.018 L2106.62 268.018 L2106.62 264.082 Z" fill="#000000" fill-rule="nonzero" fill-opacity="1" /><path clip-path="url(#clip040)" d="M2152.09 254.314 Q2152.09 247.462 2154.91 244.013 Q2157.76 240.564 2163.34 240.564 Q2168.89 240.564 2171.72 244.013 Q2174.56 247.462 2174.56 254.314 L2174.56 268.018 L2170.58 268.018 L2170.58 254.893 Q2170.58 249.245 2168.87 246.814 Q2167.16 244.36 2163.34 244.36 Q2159.49 244.36 2157.78 246.814 Q2156.07 249.245 2156.07 254.893 L2156.07 268.018 L2152.09 268.018 L2152.09 254.314 Z" fill="#000000" fill-rule="nonzero" fill-opacity="1" /><path clip-path="url(#clip040)" d="M2200.4 233.458 L2205.07 233.458 L2205.07 247.624 L2222.06 247.624 L2222.06 233.458 L2226.74 233.458 L2226.74 268.018 L2222.06 268.018 L2222.06 251.559 L2205.07 251.559 L2205.07 268.018 L2200.4 268.018 L2200.4 233.458 Z" fill="#000000" fill-rule="nonzero" fill-opacity="1" /><path clip-path="url(#clip040)" d="M2240.49 264.082 L2256.81 264.082 L2256.81 268.018 L2234.86 268.018 L2234.86 264.082 Q2237.53 261.328 2242.11 256.698 Q2246.72 252.045 2247.9 250.703 Q2250.14 248.18 2251.02 246.444 Q2251.92 244.684 2251.92 242.995 Q2251.92 240.24 2249.98 238.504 Q2248.06 236.768 2244.96 236.768 Q2242.76 236.768 2240.3 237.532 Q2237.87 238.295 2235.1 239.846 L2235.1 235.124 Q2237.92 233.99 2240.37 233.411 Q2242.83 232.833 2244.86 232.833 Q2250.23 232.833 2253.43 235.518 Q2256.62 238.203 2256.62 242.694 Q2256.62 244.823 2255.81 246.745 Q2255.03 248.643 2252.92 251.235 Q2252.34 251.907 2249.24 255.124 Q2246.14 258.319 2240.49 264.082 Z" fill="#000000" fill-rule="nonzero" fill-opacity="1" /></svg>
