<?xml version="1.0" encoding="utf-8"?>
<svg xmlns="http://www.w3.org/2000/svg" xmlns:xlink="http://www.w3.org/1999/xlink" width="600" height="400" viewBox="0 0 2400 1600">
<defs>
  <clipPath id="clip070">
    <rect x="0" y="0" width="2400" height="1600"/>
  </clipPath>
</defs>
<path clip-path="url(#clip070)" d="M0 1600 L2400 1600 L2400 0 L0 0  Z" fill="#ffffff" fill-rule="evenodd" fill-opacity="1"/>
<defs>
  <clipPath id="clip071">
    <rect x="480" y="0" width="1681" height="1600"/>
  </clipPath>
</defs>
<path clip-path="url(#clip070)" d="M193.936 1486.45 L2352.76 1486.45 L2352.76 47.2441 L193.936 47.2441  Z" fill="#ffffff" fill-rule="evenodd" fill-opacity="1"/>
<defs>
  <clipPath id="clip072">
    <rect x="193" y="47" width="2160" height="1440"/>
  </clipPath>
</defs>
<polyline clip-path="url(#clip072)" style="stroke:#000000; stroke-linecap:round; stroke-linejoin:round; stroke-width:2; stroke-opacity:0.1; fill:none" points="255.035,1486.45 255.035,47.2441 "/>
<polyline clip-path="url(#clip072)" style="stroke:#000000; stroke-linecap:round; stroke-linejoin:round; stroke-width:2; stroke-opacity:0.1; fill:none" points="764.19,1486.45 764.19,47.2441 "/>
<polyline clip-path="url(#clip072)" style="stroke:#000000; stroke-linecap:round; stroke-linejoin:round; stroke-width:2; stroke-opacity:0.1; fill:none" points="1273.35,1486.45 1273.35,47.2441 "/>
<polyline clip-path="url(#clip072)" style="stroke:#000000; stroke-linecap:round; stroke-linejoin:round; stroke-width:2; stroke-opacity:0.1; fill:none" points="1782.5,1486.45 1782.5,47.2441 "/>
<polyline clip-path="url(#clip072)" style="stroke:#000000; stroke-linecap:round; stroke-linejoin:round; stroke-width:2; stroke-opacity:0.1; fill:none" points="2291.66,1486.45 2291.66,47.2441 "/>
<polyline clip-path="url(#clip072)" style="stroke:#000000; stroke-linecap:round; stroke-linejoin:round; stroke-width:2; stroke-opacity:0.1; fill:none" points="193.936,1444.56 2352.76,1444.56 "/>
<polyline clip-path="url(#clip072)" style="stroke:#000000; stroke-linecap:round; stroke-linejoin:round; stroke-width:2; stroke-opacity:0.1; fill:none" points="193.936,1105.71 2352.76,1105.71 "/>
<polyline clip-path="url(#clip072)" style="stroke:#000000; stroke-linecap:round; stroke-linejoin:round; stroke-width:2; stroke-opacity:0.1; fill:none" points="193.936,766.846 2352.76,766.846 "/>
<polyline clip-path="url(#clip072)" style="stroke:#000000; stroke-linecap:round; stroke-linejoin:round; stroke-width:2; stroke-opacity:0.1; fill:none" points="193.936,427.987 2352.76,427.987 "/>
<polyline clip-path="url(#clip072)" style="stroke:#000000; stroke-linecap:round; stroke-linejoin:round; stroke-width:2; stroke-opacity:0.1; fill:none" points="193.936,89.1271 2352.76,89.1271 "/>
<polyline clip-path="url(#clip070)" style="stroke:#000000; stroke-linecap:round; stroke-linejoin:round; stroke-width:4; stroke-opacity:1; fill:none" points="193.936,1486.45 2352.76,1486.45 "/>
<polyline clip-path="url(#clip070)" style="stroke:#000000; stroke-linecap:round; stroke-linejoin:round; stroke-width:4; stroke-opacity:1; fill:none" points="255.035,1486.45 255.035,1467.55 "/>
<polyline clip-path="url(#clip070)" style="stroke:#000000; stroke-linecap:round; stroke-linejoin:round; stroke-width:4; stroke-opacity:1; fill:none" points="764.19,1486.45 764.19,1467.55 "/>
<polyline clip-path="url(#clip070)" style="stroke:#000000; stroke-linecap:round; stroke-linejoin:round; stroke-width:4; stroke-opacity:1; fill:none" points="1273.35,1486.45 1273.35,1467.55 "/>
<polyline clip-path="url(#clip070)" style="stroke:#000000; stroke-linecap:round; stroke-linejoin:round; stroke-width:4; stroke-opacity:1; fill:none" points="1782.5,1486.45 1782.5,1467.55 "/>
<polyline clip-path="url(#clip070)" style="stroke:#000000; stroke-linecap:round; stroke-linejoin:round; stroke-width:4; stroke-opacity:1; fill:none" points="2291.66,1486.45 2291.66,1467.55 "/>
<path clip-path="url(#clip070)" d="M201.563 1532.02 L231.239 1532.02 L231.239 1535.95 L201.563 1535.95 L201.563 1532.02 Z" fill="#000000" fill-rule="nonzero" fill-opacity="1" /><path clip-path="url(#clip070)" d="M242.141 1544.91 L249.78 1544.91 L249.78 1518.55 L241.47 1520.21 L241.47 1515.95 L249.734 1514.29 L254.41 1514.29 L254.41 1544.91 L262.049 1544.91 L262.049 1548.85 L242.141 1548.85 L242.141 1544.91 Z" fill="#000000" fill-rule="nonzero" fill-opacity="1" /><path clip-path="url(#clip070)" d="M271.493 1542.97 L276.377 1542.97 L276.377 1548.85 L271.493 1548.85 L271.493 1542.97 Z" fill="#000000" fill-rule="nonzero" fill-opacity="1" /><path clip-path="url(#clip070)" d="M296.562 1517.37 Q292.951 1517.37 291.122 1520.93 Q289.317 1524.47 289.317 1531.6 Q289.317 1538.71 291.122 1542.27 Q292.951 1545.82 296.562 1545.82 Q300.196 1545.82 302.002 1542.27 Q303.831 1538.71 303.831 1531.6 Q303.831 1524.47 302.002 1520.93 Q300.196 1517.37 296.562 1517.37 M296.562 1513.66 Q302.372 1513.66 305.428 1518.27 Q308.507 1522.85 308.507 1531.6 Q308.507 1540.33 305.428 1544.94 Q302.372 1549.52 296.562 1549.52 Q290.752 1549.52 287.673 1544.94 Q284.618 1540.33 284.618 1531.6 Q284.618 1522.85 287.673 1518.27 Q290.752 1513.66 296.562 1513.66 Z" fill="#000000" fill-rule="nonzero" fill-opacity="1" /><path clip-path="url(#clip070)" d="M711.216 1532.02 L740.892 1532.02 L740.892 1535.95 L711.216 1535.95 L711.216 1532.02 Z" fill="#000000" fill-rule="nonzero" fill-opacity="1" /><path clip-path="url(#clip070)" d="M760.984 1517.37 Q757.373 1517.37 755.545 1520.93 Q753.739 1524.47 753.739 1531.6 Q753.739 1538.71 755.545 1542.27 Q757.373 1545.82 760.984 1545.82 Q764.619 1545.82 766.424 1542.27 Q768.253 1538.71 768.253 1531.6 Q768.253 1524.47 766.424 1520.93 Q764.619 1517.37 760.984 1517.37 M760.984 1513.66 Q766.794 1513.66 769.85 1518.27 Q772.929 1522.85 772.929 1531.6 Q772.929 1540.33 769.85 1544.94 Q766.794 1549.52 760.984 1549.52 Q755.174 1549.52 752.095 1544.94 Q749.04 1540.33 749.04 1531.6 Q749.04 1522.85 752.095 1518.27 Q755.174 1513.66 760.984 1513.66 Z" fill="#000000" fill-rule="nonzero" fill-opacity="1" /><path clip-path="url(#clip070)" d="M781.146 1542.97 L786.03 1542.97 L786.03 1548.85 L781.146 1548.85 L781.146 1542.97 Z" fill="#000000" fill-rule="nonzero" fill-opacity="1" /><path clip-path="url(#clip070)" d="M796.262 1514.29 L814.618 1514.29 L814.618 1518.22 L800.544 1518.22 L800.544 1526.7 Q801.563 1526.35 802.581 1526.19 Q803.6 1526 804.618 1526 Q810.405 1526 813.785 1529.17 Q817.165 1532.34 817.165 1537.76 Q817.165 1543.34 813.692 1546.44 Q810.22 1549.52 803.901 1549.52 Q801.725 1549.52 799.456 1549.15 Q797.211 1548.78 794.804 1548.04 L794.804 1543.34 Q796.887 1544.47 799.109 1545.03 Q801.331 1545.58 803.808 1545.58 Q807.813 1545.58 810.151 1543.48 Q812.489 1541.37 812.489 1537.76 Q812.489 1534.15 810.151 1532.04 Q807.813 1529.94 803.808 1529.94 Q801.933 1529.94 800.058 1530.35 Q798.206 1530.77 796.262 1531.65 L796.262 1514.29 Z" fill="#000000" fill-rule="nonzero" fill-opacity="1" /><path clip-path="url(#clip070)" d="M1250.73 1517.37 Q1247.12 1517.37 1245.29 1520.93 Q1243.49 1524.47 1243.49 1531.6 Q1243.49 1538.71 1245.29 1542.27 Q1247.12 1545.82 1250.73 1545.82 Q1254.36 1545.82 1256.17 1542.27 Q1258 1538.71 1258 1531.6 Q1258 1524.47 1256.17 1520.93 Q1254.36 1517.37 1250.73 1517.37 M1250.73 1513.66 Q1256.54 1513.66 1259.6 1518.27 Q1262.67 1522.85 1262.67 1531.6 Q1262.67 1540.33 1259.6 1544.94 Q1256.54 1549.52 1250.73 1549.52 Q1244.92 1549.52 1241.84 1544.94 Q1238.79 1540.33 1238.79 1531.6 Q1238.79 1522.85 1241.84 1518.27 Q1244.92 1513.66 1250.73 1513.66 Z" fill="#000000" fill-rule="nonzero" fill-opacity="1" /><path clip-path="url(#clip070)" d="M1270.89 1542.97 L1275.78 1542.97 L1275.78 1548.85 L1270.89 1548.85 L1270.89 1542.97 Z" fill="#000000" fill-rule="nonzero" fill-opacity="1" /><path clip-path="url(#clip070)" d="M1295.96 1517.37 Q1292.35 1517.37 1290.52 1520.93 Q1288.72 1524.47 1288.72 1531.6 Q1288.72 1538.71 1290.52 1542.27 Q1292.35 1545.82 1295.96 1545.82 Q1299.6 1545.82 1301.4 1542.27 Q1303.23 1538.71 1303.23 1531.6 Q1303.23 1524.47 1301.4 1520.93 Q1299.6 1517.37 1295.96 1517.37 M1295.96 1513.66 Q1301.77 1513.66 1304.83 1518.27 Q1307.91 1522.85 1307.91 1531.6 Q1307.91 1540.33 1304.83 1544.94 Q1301.77 1549.52 1295.96 1549.52 Q1290.15 1549.52 1287.07 1544.94 Q1284.02 1540.33 1284.02 1531.6 Q1284.02 1522.85 1287.07 1518.27 Q1290.15 1513.66 1295.96 1513.66 Z" fill="#000000" fill-rule="nonzero" fill-opacity="1" /><path clip-path="url(#clip070)" d="M1760.38 1517.37 Q1756.77 1517.37 1754.94 1520.93 Q1753.14 1524.47 1753.14 1531.6 Q1753.14 1538.71 1754.94 1542.27 Q1756.77 1545.82 1760.38 1545.82 Q1764.02 1545.82 1765.82 1542.27 Q1767.65 1538.71 1767.65 1531.6 Q1767.65 1524.47 1765.82 1520.93 Q1764.02 1517.37 1760.38 1517.37 M1760.38 1513.66 Q1766.19 1513.66 1769.25 1518.27 Q1772.33 1522.85 1772.33 1531.6 Q1772.33 1540.33 1769.25 1544.94 Q1766.19 1549.52 1760.38 1549.52 Q1754.57 1549.52 1751.49 1544.94 Q1748.44 1540.33 1748.44 1531.6 Q1748.44 1522.85 1751.49 1518.27 Q1754.57 1513.66 1760.38 1513.66 Z" fill="#000000" fill-rule="nonzero" fill-opacity="1" /><path clip-path="url(#clip070)" d="M1780.55 1542.97 L1785.43 1542.97 L1785.43 1548.85 L1780.55 1548.85 L1780.55 1542.97 Z" fill="#000000" fill-rule="nonzero" fill-opacity="1" /><path clip-path="url(#clip070)" d="M1795.66 1514.29 L1814.02 1514.29 L1814.02 1518.22 L1799.94 1518.22 L1799.94 1526.7 Q1800.96 1526.35 1801.98 1526.19 Q1803 1526 1804.02 1526 Q1809.8 1526 1813.18 1529.17 Q1816.56 1532.34 1816.56 1537.76 Q1816.56 1543.34 1813.09 1546.44 Q1809.62 1549.52 1803.3 1549.52 Q1801.12 1549.52 1798.86 1549.15 Q1796.61 1548.78 1794.2 1548.04 L1794.2 1543.34 Q1796.29 1544.47 1798.51 1545.03 Q1800.73 1545.58 1803.21 1545.58 Q1807.21 1545.58 1809.55 1543.48 Q1811.89 1541.37 1811.89 1537.76 Q1811.89 1534.15 1809.55 1532.04 Q1807.21 1529.94 1803.21 1529.94 Q1801.33 1529.94 1799.46 1530.35 Q1797.61 1530.77 1795.66 1531.65 L1795.66 1514.29 Z" fill="#000000" fill-rule="nonzero" fill-opacity="1" /><path clip-path="url(#clip070)" d="M2258.81 1544.91 L2266.45 1544.91 L2266.45 1518.55 L2258.14 1520.21 L2258.14 1515.95 L2266.4 1514.29 L2271.08 1514.29 L2271.08 1544.91 L2278.72 1544.91 L2278.72 1548.85 L2258.81 1548.85 L2258.81 1544.91 Z" fill="#000000" fill-rule="nonzero" fill-opacity="1" /><path clip-path="url(#clip070)" d="M2288.16 1542.97 L2293.05 1542.97 L2293.05 1548.85 L2288.16 1548.85 L2288.16 1542.97 Z" fill="#000000" fill-rule="nonzero" fill-opacity="1" /><path clip-path="url(#clip070)" d="M2313.23 1517.37 Q2309.62 1517.37 2307.79 1520.93 Q2305.99 1524.47 2305.99 1531.6 Q2305.99 1538.71 2307.79 1542.27 Q2309.62 1545.82 2313.23 1545.82 Q2316.87 1545.82 2318.67 1542.27 Q2320.5 1538.71 2320.5 1531.6 Q2320.5 1524.47 2318.67 1520.93 Q2316.87 1517.37 2313.23 1517.37 M2313.23 1513.66 Q2319.04 1513.66 2322.1 1518.27 Q2325.18 1522.85 2325.18 1531.6 Q2325.18 1540.33 2322.1 1544.94 Q2319.04 1549.52 2313.23 1549.52 Q2307.42 1549.52 2304.34 1544.94 Q2301.29 1540.33 2301.29 1531.6 Q2301.29 1522.85 2304.34 1518.27 Q2307.42 1513.66 2313.23 1513.66 Z" fill="#000000" fill-rule="nonzero" fill-opacity="1" /><polyline clip-path="url(#clip070)" style="stroke:#000000; stroke-linecap:round; stroke-linejoin:round; stroke-width:4; stroke-opacity:1; fill:none" points="193.936,1486.45 193.936,47.2441 "/>
<polyline clip-path="url(#clip070)" style="stroke:#000000; stroke-linecap:round; stroke-linejoin:round; stroke-width:4; stroke-opacity:1; fill:none" points="193.936,1444.56 212.834,1444.56 "/>
<polyline clip-path="url(#clip070)" style="stroke:#000000; stroke-linecap:round; stroke-linejoin:round; stroke-width:4; stroke-opacity:1; fill:none" points="193.936,1105.71 212.834,1105.71 "/>
<polyline clip-path="url(#clip070)" style="stroke:#000000; stroke-linecap:round; stroke-linejoin:round; stroke-width:4; stroke-opacity:1; fill:none" points="193.936,766.846 212.834,766.846 "/>
<polyline clip-path="url(#clip070)" style="stroke:#000000; stroke-linecap:round; stroke-linejoin:round; stroke-width:4; stroke-opacity:1; fill:none" points="193.936,427.987 212.834,427.987 "/>
<polyline clip-path="url(#clip070)" style="stroke:#000000; stroke-linecap:round; stroke-linejoin:round; stroke-width:4; stroke-opacity:1; fill:none" points="193.936,89.1271 212.834,89.1271 "/>
<path clip-path="url(#clip070)" d="M50.9921 1445.02 L80.6679 1445.02 L80.6679 1448.95 L50.9921 1448.95 L50.9921 1445.02 Z" fill="#000000" fill-rule="nonzero" fill-opacity="1" /><path clip-path="url(#clip070)" d="M91.5706 1457.91 L99.2095 1457.91 L99.2095 1431.54 L90.8993 1433.21 L90.8993 1428.95 L99.1632 1427.28 L103.839 1427.28 L103.839 1457.91 L111.478 1457.91 L111.478 1461.84 L91.5706 1461.84 L91.5706 1457.91 Z" fill="#000000" fill-rule="nonzero" fill-opacity="1" /><path clip-path="url(#clip070)" d="M120.922 1455.97 L125.807 1455.97 L125.807 1461.84 L120.922 1461.84 L120.922 1455.97 Z" fill="#000000" fill-rule="nonzero" fill-opacity="1" /><path clip-path="url(#clip070)" d="M145.992 1430.36 Q142.381 1430.36 140.552 1433.93 Q138.746 1437.47 138.746 1444.6 Q138.746 1451.71 140.552 1455.27 Q142.381 1458.81 145.992 1458.81 Q149.626 1458.81 151.431 1455.27 Q153.26 1451.71 153.26 1444.6 Q153.26 1437.47 151.431 1433.93 Q149.626 1430.36 145.992 1430.36 M145.992 1426.66 Q151.802 1426.66 154.857 1431.27 Q157.936 1435.85 157.936 1444.6 Q157.936 1453.33 154.857 1457.93 Q151.802 1462.52 145.992 1462.52 Q140.181 1462.52 137.103 1457.93 Q134.047 1453.33 134.047 1444.6 Q134.047 1435.85 137.103 1431.27 Q140.181 1426.66 145.992 1426.66 Z" fill="#000000" fill-rule="nonzero" fill-opacity="1" /><path clip-path="url(#clip070)" d="M51.9875 1106.16 L81.6633 1106.16 L81.6633 1110.09 L51.9875 1110.09 L51.9875 1106.16 Z" fill="#000000" fill-rule="nonzero" fill-opacity="1" /><path clip-path="url(#clip070)" d="M101.756 1091.5 Q98.1447 1091.5 96.316 1095.07 Q94.5104 1098.61 94.5104 1105.74 Q94.5104 1112.85 96.316 1116.41 Q98.1447 1119.95 101.756 1119.95 Q105.39 1119.95 107.196 1116.41 Q109.024 1112.85 109.024 1105.74 Q109.024 1098.61 107.196 1095.07 Q105.39 1091.5 101.756 1091.5 M101.756 1087.8 Q107.566 1087.8 110.621 1092.41 Q113.7 1096.99 113.7 1105.74 Q113.7 1114.47 110.621 1119.07 Q107.566 1123.66 101.756 1123.66 Q95.9456 1123.66 92.8669 1119.07 Q89.8114 1114.47 89.8114 1105.74 Q89.8114 1096.99 92.8669 1092.41 Q95.9456 1087.8 101.756 1087.8 Z" fill="#000000" fill-rule="nonzero" fill-opacity="1" /><path clip-path="url(#clip070)" d="M121.918 1117.11 L126.802 1117.11 L126.802 1122.99 L121.918 1122.99 L121.918 1117.11 Z" fill="#000000" fill-rule="nonzero" fill-opacity="1" /><path clip-path="url(#clip070)" d="M137.033 1088.43 L155.39 1088.43 L155.39 1092.36 L141.316 1092.36 L141.316 1100.83 Q142.334 1100.49 143.353 1100.32 Q144.371 1100.14 145.39 1100.14 Q151.177 1100.14 154.556 1103.31 Q157.936 1106.48 157.936 1111.9 Q157.936 1117.48 154.464 1120.58 Q150.992 1123.66 144.672 1123.66 Q142.496 1123.66 140.228 1123.29 Q137.982 1122.92 135.575 1122.18 L135.575 1117.48 Q137.658 1118.61 139.881 1119.17 Q142.103 1119.72 144.58 1119.72 Q148.584 1119.72 150.922 1117.62 Q153.26 1115.51 153.26 1111.9 Q153.26 1108.29 150.922 1106.18 Q148.584 1104.07 144.58 1104.07 Q142.705 1104.07 140.83 1104.49 Q138.978 1104.91 137.033 1105.79 L137.033 1088.43 Z" fill="#000000" fill-rule="nonzero" fill-opacity="1" /><path clip-path="url(#clip070)" d="M100.76 752.645 Q97.1493 752.645 95.3206 756.209 Q93.515 759.751 93.515 766.881 Q93.515 773.987 95.3206 777.552 Q97.1493 781.094 100.76 781.094 Q104.395 781.094 106.2 777.552 Q108.029 773.987 108.029 766.881 Q108.029 759.751 106.2 756.209 Q104.395 752.645 100.76 752.645 M100.76 748.941 Q106.571 748.941 109.626 753.547 Q112.705 758.131 112.705 766.881 Q112.705 775.608 109.626 780.214 Q106.571 784.797 100.76 784.797 Q94.9502 784.797 91.8715 780.214 Q88.816 775.608 88.816 766.881 Q88.816 758.131 91.8715 753.547 Q94.9502 748.941 100.76 748.941 Z" fill="#000000" fill-rule="nonzero" fill-opacity="1" /><path clip-path="url(#clip070)" d="M120.922 778.246 L125.807 778.246 L125.807 784.126 L120.922 784.126 L120.922 778.246 Z" fill="#000000" fill-rule="nonzero" fill-opacity="1" /><path clip-path="url(#clip070)" d="M145.992 752.645 Q142.381 752.645 140.552 756.209 Q138.746 759.751 138.746 766.881 Q138.746 773.987 140.552 777.552 Q142.381 781.094 145.992 781.094 Q149.626 781.094 151.431 777.552 Q153.26 773.987 153.26 766.881 Q153.26 759.751 151.431 756.209 Q149.626 752.645 145.992 752.645 M145.992 748.941 Q151.802 748.941 154.857 753.547 Q157.936 758.131 157.936 766.881 Q157.936 775.608 154.857 780.214 Q151.802 784.797 145.992 784.797 Q140.181 784.797 137.103 780.214 Q134.047 775.608 134.047 766.881 Q134.047 758.131 137.103 753.547 Q140.181 748.941 145.992 748.941 Z" fill="#000000" fill-rule="nonzero" fill-opacity="1" /><path clip-path="url(#clip070)" d="M101.756 413.785 Q98.1447 413.785 96.316 417.35 Q94.5104 420.892 94.5104 428.021 Q94.5104 435.128 96.316 438.693 Q98.1447 442.234 101.756 442.234 Q105.39 442.234 107.196 438.693 Q109.024 435.128 109.024 428.021 Q109.024 420.892 107.196 417.35 Q105.39 413.785 101.756 413.785 M101.756 410.082 Q107.566 410.082 110.621 414.688 Q113.7 419.271 113.7 428.021 Q113.7 436.748 110.621 441.355 Q107.566 445.938 101.756 445.938 Q95.9456 445.938 92.8669 441.355 Q89.8114 436.748 89.8114 428.021 Q89.8114 419.271 92.8669 414.688 Q95.9456 410.082 101.756 410.082 Z" fill="#000000" fill-rule="nonzero" fill-opacity="1" /><path clip-path="url(#clip070)" d="M121.918 439.387 L126.802 439.387 L126.802 445.267 L121.918 445.267 L121.918 439.387 Z" fill="#000000" fill-rule="nonzero" fill-opacity="1" /><path clip-path="url(#clip070)" d="M137.033 410.707 L155.39 410.707 L155.39 414.642 L141.316 414.642 L141.316 423.114 Q142.334 422.767 143.353 422.605 Q144.371 422.419 145.39 422.419 Q151.177 422.419 154.556 425.591 Q157.936 428.762 157.936 434.179 Q157.936 439.757 154.464 442.859 Q150.992 445.938 144.672 445.938 Q142.496 445.938 140.228 445.567 Q137.982 445.197 135.575 444.456 L135.575 439.757 Q137.658 440.892 139.881 441.447 Q142.103 442.003 144.58 442.003 Q148.584 442.003 150.922 439.896 Q153.26 437.79 153.26 434.179 Q153.26 430.568 150.922 428.461 Q148.584 426.355 144.58 426.355 Q142.705 426.355 140.83 426.771 Q138.978 427.188 137.033 428.068 L137.033 410.707 Z" fill="#000000" fill-rule="nonzero" fill-opacity="1" /><path clip-path="url(#clip070)" d="M91.5706 102.472 L99.2095 102.472 L99.2095 76.1064 L90.8993 77.773 L90.8993 73.5138 L99.1632 71.8471 L103.839 71.8471 L103.839 102.472 L111.478 102.472 L111.478 106.407 L91.5706 106.407 L91.5706 102.472 Z" fill="#000000" fill-rule="nonzero" fill-opacity="1" /><path clip-path="url(#clip070)" d="M120.922 100.528 L125.807 100.528 L125.807 106.407 L120.922 106.407 L120.922 100.528 Z" fill="#000000" fill-rule="nonzero" fill-opacity="1" /><path clip-path="url(#clip070)" d="M145.992 74.9258 Q142.381 74.9258 140.552 78.4906 Q138.746 82.0323 138.746 89.1618 Q138.746 96.2683 140.552 99.8331 Q142.381 103.375 145.992 103.375 Q149.626 103.375 151.431 99.8331 Q153.26 96.2683 153.26 89.1618 Q153.26 82.0323 151.431 78.4906 Q149.626 74.9258 145.992 74.9258 M145.992 71.2221 Q151.802 71.2221 154.857 75.8286 Q157.936 80.4119 157.936 89.1618 Q157.936 97.8886 154.857 102.495 Q151.802 107.078 145.992 107.078 Q140.181 107.078 137.103 102.495 Q134.047 97.8886 134.047 89.1618 Q134.047 80.4119 137.103 75.8286 Q140.181 71.2221 145.992 71.2221 Z" fill="#000000" fill-rule="nonzero" fill-opacity="1" /><path clip-path="url(#clip072)" d="M-1.01806e+06 -677630 L-1.01806e+06 679163 L1.0206e+06 -677630 L-1.01806e+06 -677630 L-1.01806e+06 -677630  Z" fill="#009af9" fill-rule="evenodd" fill-opacity="0.5"/>
<polyline clip-path="url(#clip072)" style="stroke:#000000; stroke-linecap:round; stroke-linejoin:round; stroke-width:4; stroke-opacity:0.5; fill:none" points="-1.01806e+06,-677630 -1.01806e+06,679163 1.0206e+06,-677630 -1.01806e+06,-677630 "/>
<path clip-path="url(#clip072)" d="M1.0206e+06 -677630 L-1.01806e+06 -677630 L1.0206e+06 679163 L1.0206e+06 -677630 L1.0206e+06 -677630  Z" fill="#e26f46" fill-rule="evenodd" fill-opacity="0.5"/>
<polyline clip-path="url(#clip072)" style="stroke:#000000; stroke-linecap:round; stroke-linejoin:round; stroke-width:4; stroke-opacity:0.5; fill:none" points="1.0206e+06,-677630 -1.01806e+06,-677630 1.0206e+06,679163 1.0206e+06,-677630 "/>
<path clip-path="url(#clip072)" d="M-1.01806e+06 -677630 L1273.35 766.846 L1.0206e+06 -677630 L-1.01806e+06 -677630 L-1.01806e+06 -677630  Z" fill="#3da44d" fill-rule="evenodd" fill-opacity="0.5"/>
<polyline clip-path="url(#clip072)" style="stroke:#000000; stroke-linecap:round; stroke-linejoin:round; stroke-width:8; stroke-opacity:0.5; fill:none" stroke-dasharray="32, 20" points="-1.01806e+06,-677630 1273.35,766.846 1.0206e+06,-677630 -1.01806e+06,-677630 "/>
<path clip-path="url(#clip072)" d="M933.909 540.94 L1273.35 766.846 L1612.78 540.94 L1601.4 517.627 L1273.35 89.1271 L945.291 517.627 L933.909 540.94 L933.909 540.94  Z" fill="#c271d2" fill-rule="evenodd" fill-opacity="0.5"/>
<polyline clip-path="url(#clip072)" style="stroke:#000000; stroke-linecap:round; stroke-linejoin:round; stroke-width:4; stroke-opacity:0.5; fill:none" points="933.909,540.94 1273.35,766.846 1612.78,540.94 1601.4,517.627 1273.35,89.1271 945.291,517.627 933.909,540.94 "/>
<path clip-path="url(#clip072)" d="M255.035 1444.56 L2291.66 1444.56 L1273.35 89.1271 L255.035 1444.56 L255.035 1444.56  Z" fill="#ac8d18" fill-rule="evenodd" fill-opacity="0.2"/>
<polyline clip-path="url(#clip072)" style="stroke:#000000; stroke-linecap:round; stroke-linejoin:round; stroke-width:4; stroke-opacity:0.2; fill:none" stroke-dasharray="16, 8, 2, 8" points="255.035,1444.56 2291.66,1444.56 1273.35,89.1271 255.035,1444.56 "/>
<path clip-path="url(#clip070)" d="M1779.41 406.258 L2280.8 406.258 L2280.8 95.2176 L1779.41 95.2176  Z" fill="#ffffff" fill-rule="evenodd" fill-opacity="1"/>
<polyline clip-path="url(#clip070)" style="stroke:#000000; stroke-linecap:round; stroke-linejoin:round; stroke-width:4; stroke-opacity:1; fill:none" points="1779.41,406.258 2280.8,406.258 2280.8,95.2176 1779.41,95.2176 1779.41,406.258 "/>
<path clip-path="url(#clip070)" d="M1803.39 167.794 L1947.31 167.794 L1947.31 126.322 L1803.39 126.322 L1803.39 167.794  Z" fill="#009af9" fill-rule="evenodd" fill-opacity="0.5"/>
<polyline clip-path="url(#clip070)" style="stroke:#000000; stroke-linecap:round; stroke-linejoin:round; stroke-width:4; stroke-opacity:1; fill:none" points="1803.39,167.794 1947.31,167.794 1947.31,126.322 1803.39,126.322 1803.39,167.794 "/>
<path clip-path="url(#clip070)" d="M1971.3 129.778 L1975.98 129.778 L1975.98 143.944 L1992.97 143.944 L1992.97 129.778 L1997.64 129.778 L1997.64 164.338 L1992.97 164.338 L1992.97 147.879 L1975.98 147.879 L1975.98 164.338 L1971.3 164.338 L1971.3 129.778 Z" fill="#000000" fill-rule="nonzero" fill-opacity="1" /><path clip-path="url(#clip070)" d="M2008.18 160.402 L2015.81 160.402 L2015.81 134.037 L2007.5 135.703 L2007.5 131.444 L2015.77 129.778 L2020.44 129.778 L2020.44 160.402 L2028.08 160.402 L2028.08 164.338 L2008.18 164.338 L2008.18 160.402 Z" fill="#000000" fill-rule="nonzero" fill-opacity="1" /><path clip-path="url(#clip070)" d="M1803.39 219.634 L1947.31 219.634 L1947.31 178.162 L1803.39 178.162 L1803.39 219.634  Z" fill="#e26f46" fill-rule="evenodd" fill-opacity="0.5"/>
<polyline clip-path="url(#clip070)" style="stroke:#000000; stroke-linecap:round; stroke-linejoin:round; stroke-width:4; stroke-opacity:1; fill:none" points="1803.39,219.634 1947.31,219.634 1947.31,178.162 1803.39,178.162 1803.39,219.634 "/>
<path clip-path="url(#clip070)" d="M1971.3 181.618 L1975.98 181.618 L1975.98 195.784 L1992.97 195.784 L1992.97 181.618 L1997.64 181.618 L1997.64 216.178 L1992.97 216.178 L1992.97 199.719 L1975.98 199.719 L1975.98 216.178 L1971.3 216.178 L1971.3 181.618 Z" fill="#000000" fill-rule="nonzero" fill-opacity="1" /><path clip-path="url(#clip070)" d="M2011.39 212.242 L2027.71 212.242 L2027.71 216.178 L2005.77 216.178 L2005.77 212.242 Q2008.43 209.488 2013.01 204.858 Q2017.62 200.205 2018.8 198.863 Q2021.05 196.34 2021.93 194.604 Q2022.83 192.844 2022.83 191.155 Q2022.83 188.4 2020.88 186.664 Q2018.96 184.928 2015.86 184.928 Q2013.66 184.928 2011.21 185.692 Q2008.78 186.455 2006 188.006 L2006 183.284 Q2008.82 182.15 2011.28 181.571 Q2013.73 180.993 2015.77 180.993 Q2021.14 180.993 2024.33 183.678 Q2027.53 186.363 2027.53 190.854 Q2027.53 192.983 2026.72 194.905 Q2025.93 196.803 2023.82 199.395 Q2023.24 200.067 2020.14 203.284 Q2017.04 206.479 2011.39 212.242 Z" fill="#000000" fill-rule="nonzero" fill-opacity="1" /><path clip-path="url(#clip070)" d="M1803.39 271.474 L1947.31 271.474 L1947.31 230.002 L1803.39 230.002 L1803.39 271.474  Z" fill="#3da44d" fill-rule="evenodd" fill-opacity="0.5"/>
<polyline clip-path="url(#clip070)" style="stroke:#000000; stroke-linecap:round; stroke-linejoin:round; stroke-width:8; stroke-opacity:1; fill:none" stroke-dasharray="32, 20" points="1803.39,271.474 1947.31,271.474 1947.31,230.002 1803.39,230.002 1803.39,271.474 "/>
<path clip-path="url(#clip070)" d="M1975.98 237.3 L1975.98 250.286 L1981.86 250.286 Q1985.12 250.286 1986.9 248.596 Q1988.68 246.907 1988.68 243.782 Q1988.68 240.68 1986.9 238.99 Q1985.12 237.3 1981.86 237.3 L1975.98 237.3 M1971.3 233.458 L1981.86 233.458 Q1987.67 233.458 1990.63 236.096 Q1993.62 238.712 1993.62 243.782 Q1993.62 248.897 1990.63 251.513 Q1987.67 254.129 1981.86 254.129 L1975.98 254.129 L1975.98 268.018 L1971.3 268.018 L1971.3 233.458 Z" fill="#000000" fill-rule="nonzero" fill-opacity="1" /><path clip-path="url(#clip070)" d="M2015.33 246.49 L2045 246.49 L2045 250.379 L2015.33 250.379 L2015.33 246.49 M2015.33 255.934 L2045 255.934 L2045 259.869 L2015.33 259.869 L2015.33 255.934 Z" fill="#000000" fill-rule="nonzero" fill-opacity="1" /><path clip-path="url(#clip070)" d="M2069.75 233.458 L2074.43 233.458 L2074.43 247.624 L2091.42 247.624 L2091.42 233.458 L2096.09 233.458 L2096.09 268.018 L2091.42 268.018 L2091.42 251.559 L2074.43 251.559 L2074.43 268.018 L2069.75 268.018 L2069.75 233.458 Z" fill="#000000" fill-rule="nonzero" fill-opacity="1" /><path clip-path="url(#clip070)" d="M2106.62 264.082 L2114.26 264.082 L2114.26 237.717 L2105.95 239.383 L2105.95 235.124 L2114.22 233.458 L2118.89 233.458 L2118.89 264.082 L2126.53 264.082 L2126.53 268.018 L2106.62 268.018 L2106.62 264.082 Z" fill="#000000" fill-rule="nonzero" fill-opacity="1" /><path clip-path="url(#clip070)" d="M2152.09 254.314 Q2152.09 247.462 2154.91 244.013 Q2157.76 240.564 2163.34 240.564 Q2168.89 240.564 2171.72 244.013 Q2174.56 247.462 2174.56 254.314 L2174.56 268.018 L2170.58 268.018 L2170.58 254.893 Q2170.58 249.245 2168.87 246.814 Q2167.16 244.36 2163.34 244.36 Q2159.49 244.36 2157.78 246.814 Q2156.07 249.245 2156.07 254.893 L2156.07 268.018 L2152.09 268.018 L2152.09 254.314 Z" fill="#000000" fill-rule="nonzero" fill-opacity="1" /><path clip-path="url(#clip070)" d="M2200.4 233.458 L2205.07 233.458 L2205.07 247.624 L2222.06 247.624 L2222.06 233.458 L2226.74 233.458 L2226.74 268.018 L2222.06 268.018 L2222.06 251.559 L2205.07 251.559 L2205.07 268.018 L2200.4 268.018 L2200.4 233.458 Z" fill="#000000" fill-rule="nonzero" fill-opacity="1" /><path clip-path="url(#clip070)" d="M2240.49 264.082 L2256.81 264.082 L2256.81 268.018 L2234.86 268.018 L2234.86 264.082 Q2237.53 261.328 2242.11 256.698 Q2246.72 252.045 2247.9 250.703 Q2250.14 248.18 2251.02 246.444 Q2251.92 244.684 2251.92 242.995 Q2251.92 240.24 2249.98 238.504 Q2248.06 236.768 2244.96 236.768 Q2242.76 236.768 2240.3 237.532 Q2237.87 238.295 2235.1 239.846 L2235.1 235.124 Q2237.92 233.99 2240.37 233.411 Q2242.83 232.833 2244.86 232.833 Q2250.23 232.833 2253.43 235.518 Q2256.62 238.203 2256.62 242.694 Q2256.62 244.823 2255.81 246.745 Q2255.03 248.643 2252.92 251.235 Q2252.34 251.907 2249.24 255.124 Q2246.14 258.319 2240.49 264.082 Z" fill="#000000" fill-rule="nonzero" fill-opacity="1" /><path clip-path="url(#clip070)" d="M1803.39 323.314 L1947.31 323.314 L1947.31 281.842 L1803.39 281.842 L1803.39 323.314  Z" fill="#c271d2" fill-rule="evenodd" fill-opacity="0.5"/>
<polyline clip-path="url(#clip070)" style="stroke:#000000; stroke-linecap:round; stroke-linejoin:round; stroke-width:4; stroke-opacity:1; fill:none" points="1803.39,323.314 1947.31,323.314 1947.31,281.842 1803.39,281.842 1803.39,323.314 "/>
<path clip-path="url(#clip070)" d="M1987.32 288.469 Q1982.23 288.469 1979.22 292.265 Q1976.23 296.061 1976.23 302.612 Q1976.23 309.14 1979.22 312.936 Q1982.23 316.733 1987.32 316.733 Q1992.41 316.733 1995.37 312.936 Q1998.36 309.14 1998.36 302.612 Q1998.36 296.061 1995.37 292.265 Q1992.41 288.469 1987.32 288.469 M1993.87 319.233 L2000.03 325.969 L1994.38 325.969 L1989.26 320.436 Q1988.5 320.483 1988.08 320.506 Q1987.69 320.529 1987.32 320.529 Q1980.03 320.529 1975.65 315.668 Q1971.3 310.784 1971.3 302.612 Q1971.3 294.418 1975.65 289.557 Q1980.03 284.673 1987.32 284.673 Q1994.59 284.673 1998.94 289.557 Q2003.29 294.418 2003.29 302.612 Q2003.29 308.631 2000.86 312.913 Q1998.45 317.196 1993.87 319.233 Z" fill="#000000" fill-rule="nonzero" fill-opacity="1" /><path clip-path="url(#clip070)" d="M2026.05 298.33 L2055.72 298.33 L2055.72 302.219 L2026.05 302.219 L2026.05 298.33 M2026.05 307.774 L2055.72 307.774 L2055.72 311.709 L2026.05 311.709 L2026.05 307.774 Z" fill="#000000" fill-rule="nonzero" fill-opacity="1" /><path clip-path="url(#clip070)" d="M2085.14 289.14 L2085.14 302.126 L2091.02 302.126 Q2094.29 302.126 2096.07 300.436 Q2097.85 298.747 2097.85 295.622 Q2097.85 292.52 2096.07 290.83 Q2094.29 289.14 2091.02 289.14 L2085.14 289.14 M2080.47 285.298 L2091.02 285.298 Q2096.83 285.298 2099.8 287.936 Q2102.78 290.552 2102.78 295.622 Q2102.78 300.737 2099.8 303.353 Q2096.83 305.969 2091.02 305.969 L2085.14 305.969 L2085.14 319.858 L2080.47 319.858 L2080.47 285.298 Z" fill="#000000" fill-rule="nonzero" fill-opacity="1" /><path clip-path="url(#clip070)" d="M2125.58 306.154 Q2125.58 299.302 2128.41 295.853 Q2131.25 292.404 2136.83 292.404 Q2142.39 292.404 2145.21 295.853 Q2148.06 299.302 2148.06 306.154 L2148.06 319.858 L2144.08 319.858 L2144.08 306.733 Q2144.08 301.085 2142.36 298.654 Q2140.65 296.2 2136.83 296.2 Q2132.99 296.2 2131.28 298.654 Q2129.56 301.085 2129.56 306.733 L2129.56 319.858 L2125.58 319.858 L2125.58 306.154 Z" fill="#000000" fill-rule="nonzero" fill-opacity="1" /><path clip-path="url(#clip070)" d="M2190.28 303.654 Q2191.79 304.163 2193.2 305.83 Q2194.63 307.497 2196.07 310.413 L2200.81 319.858 L2195.79 319.858 L2191.37 310.992 Q2189.66 307.52 2188.04 306.385 Q2186.44 305.251 2183.66 305.251 L2178.57 305.251 L2178.57 319.858 L2173.89 319.858 L2173.89 285.298 L2184.45 285.298 Q2190.37 285.298 2193.29 287.774 Q2196.21 290.251 2196.21 295.251 Q2196.21 298.515 2194.68 300.668 Q2193.17 302.821 2190.28 303.654 M2178.57 289.14 L2178.57 301.409 L2184.45 301.409 Q2187.83 301.409 2189.54 299.858 Q2191.28 298.284 2191.28 295.251 Q2191.28 292.219 2189.54 290.691 Q2187.83 289.14 2184.45 289.14 L2178.57 289.14 Z" fill="#000000" fill-rule="nonzero" fill-opacity="1" /><path clip-path="url(#clip070)" d="M1803.39 375.154 L1947.31 375.154 L1947.31 333.682 L1803.39 333.682 L1803.39 375.154  Z" fill="#ac8d18" fill-rule="evenodd" fill-opacity="0.2"/>
<polyline clip-path="url(#clip070)" style="stroke:#000000; stroke-linecap:round; stroke-linejoin:round; stroke-width:4; stroke-opacity:1; fill:none" stroke-dasharray="16, 8, 2, 8" points="1803.39,375.154 1947.31,375.154 1947.31,333.682 1803.39,333.682 1803.39,375.154 "/>
<path clip-path="url(#clip070)" d="M1987.69 355.494 Q1989.19 356.003 1990.61 357.67 Q1992.04 359.337 1993.48 362.253 L1998.22 371.698 L1993.2 371.698 L1988.78 362.832 Q1987.06 359.36 1985.44 358.225 Q1983.85 357.091 1981.07 357.091 L1975.98 357.091 L1975.98 371.698 L1971.3 371.698 L1971.3 337.138 L1981.86 337.138 Q1987.78 337.138 1990.7 339.614 Q1993.62 342.091 1993.62 347.091 Q1993.62 350.355 1992.09 352.508 Q1990.58 354.661 1987.69 355.494 M1975.98 340.98 L1975.98 353.249 L1981.86 353.249 Q1985.24 353.249 1986.95 351.698 Q1988.68 350.124 1988.68 347.091 Q1988.68 344.059 1986.95 342.531 Q1985.24 340.98 1981.86 340.98 L1975.98 340.98 Z" fill="#000000" fill-rule="nonzero" fill-opacity="1" /></svg>
