<?xml version="1.0" encoding="utf-8"?>
<svg xmlns="http://www.w3.org/2000/svg" xmlns:xlink="http://www.w3.org/1999/xlink" width="600" height="400" viewBox="0 0 2400 1600">
<defs>
  <clipPath id="clip310">
    <rect x="0" y="0" width="2400" height="1600"/>
  </clipPath>
</defs>
<path clip-path="url(#clip310)" d="M0 1600 L2400 1600 L2400 0 L0 0  Z" fill="#ffffff" fill-rule="evenodd" fill-opacity="1"/>
<defs>
  <clipPath id="clip311">
    <rect x="193" y="47" width="2160" height="1440"/>
  </clipPath>
</defs>
<path clip-path="url(#clip310)" d="M193.936 1486.45 L2352.76 1486.45 L2352.76 47.2441 L193.936 47.2441  Z" fill="#ffffff" fill-rule="evenodd" fill-opacity="1"/>
<polyline clip-path="url(#clip311)" style="stroke:#000000; stroke-linecap:round; stroke-linejoin:round; stroke-width:2; stroke-opacity:0.1; fill:none" points="240.08,1486.45 240.08,47.2441 "/>
<polyline clip-path="url(#clip311)" style="stroke:#000000; stroke-linecap:round; stroke-linejoin:round; stroke-width:2; stroke-opacity:0.1; fill:none" points="662.078,1486.45 662.078,47.2441 "/>
<polyline clip-path="url(#clip311)" style="stroke:#000000; stroke-linecap:round; stroke-linejoin:round; stroke-width:2; stroke-opacity:0.1; fill:none" points="1084.07,1486.45 1084.07,47.2441 "/>
<polyline clip-path="url(#clip311)" style="stroke:#000000; stroke-linecap:round; stroke-linejoin:round; stroke-width:2; stroke-opacity:0.1; fill:none" points="1506.07,1486.45 1506.07,47.2441 "/>
<polyline clip-path="url(#clip311)" style="stroke:#000000; stroke-linecap:round; stroke-linejoin:round; stroke-width:2; stroke-opacity:0.1; fill:none" points="1928.07,1486.45 1928.07,47.2441 "/>
<polyline clip-path="url(#clip311)" style="stroke:#000000; stroke-linecap:round; stroke-linejoin:round; stroke-width:2; stroke-opacity:0.1; fill:none" points="2350.07,1486.45 2350.07,47.2441 "/>
<polyline clip-path="url(#clip311)" style="stroke:#000000; stroke-linecap:round; stroke-linejoin:round; stroke-width:2; stroke-opacity:0.1; fill:none" points="193.936,1298.08 2352.76,1298.08 "/>
<polyline clip-path="url(#clip311)" style="stroke:#000000; stroke-linecap:round; stroke-linejoin:round; stroke-width:2; stroke-opacity:0.1; fill:none" points="193.936,1044.73 2352.76,1044.73 "/>
<polyline clip-path="url(#clip311)" style="stroke:#000000; stroke-linecap:round; stroke-linejoin:round; stroke-width:2; stroke-opacity:0.1; fill:none" points="193.936,791.382 2352.76,791.382 "/>
<polyline clip-path="url(#clip311)" style="stroke:#000000; stroke-linecap:round; stroke-linejoin:round; stroke-width:2; stroke-opacity:0.1; fill:none" points="193.936,538.031 2352.76,538.031 "/>
<polyline clip-path="url(#clip311)" style="stroke:#000000; stroke-linecap:round; stroke-linejoin:round; stroke-width:2; stroke-opacity:0.1; fill:none" points="193.936,284.681 2352.76,284.681 "/>
<polyline clip-path="url(#clip310)" style="stroke:#000000; stroke-linecap:round; stroke-linejoin:round; stroke-width:4; stroke-opacity:1; fill:none" points="193.936,1486.45 2352.76,1486.45 "/>
<polyline clip-path="url(#clip310)" style="stroke:#000000; stroke-linecap:round; stroke-linejoin:round; stroke-width:4; stroke-opacity:1; fill:none" points="240.08,1486.45 240.08,1467.55 "/>
<polyline clip-path="url(#clip310)" style="stroke:#000000; stroke-linecap:round; stroke-linejoin:round; stroke-width:4; stroke-opacity:1; fill:none" points="662.078,1486.45 662.078,1467.55 "/>
<polyline clip-path="url(#clip310)" style="stroke:#000000; stroke-linecap:round; stroke-linejoin:round; stroke-width:4; stroke-opacity:1; fill:none" points="1084.07,1486.45 1084.07,1467.55 "/>
<polyline clip-path="url(#clip310)" style="stroke:#000000; stroke-linecap:round; stroke-linejoin:round; stroke-width:4; stroke-opacity:1; fill:none" points="1506.07,1486.45 1506.07,1467.55 "/>
<polyline clip-path="url(#clip310)" style="stroke:#000000; stroke-linecap:round; stroke-linejoin:round; stroke-width:4; stroke-opacity:1; fill:none" points="1928.07,1486.45 1928.07,1467.55 "/>
<polyline clip-path="url(#clip310)" style="stroke:#000000; stroke-linecap:round; stroke-linejoin:round; stroke-width:4; stroke-opacity:1; fill:none" points="2350.07,1486.45 2350.07,1467.55 "/>
<path clip-path="url(#clip310)" d="M210.023 1532.02 L239.698 1532.02 L239.698 1535.95 L210.023 1535.95 L210.023 1532.02 Z" fill="#000000" fill-rule="nonzero" fill-opacity="1" /><path clip-path="url(#clip310)" d="M253.819 1544.91 L270.138 1544.91 L270.138 1548.85 L248.194 1548.85 L248.194 1544.91 Q250.856 1542.16 255.439 1537.53 Q260.045 1532.88 261.226 1531.53 Q263.471 1529.01 264.351 1527.27 Q265.254 1525.51 265.254 1523.82 Q265.254 1521.07 263.309 1519.33 Q261.388 1517.6 258.286 1517.6 Q256.087 1517.6 253.633 1518.36 Q251.203 1519.13 248.425 1520.68 L248.425 1515.95 Q251.249 1514.82 253.703 1514.24 Q256.157 1513.66 258.194 1513.66 Q263.564 1513.66 266.758 1516.35 Q269.953 1519.03 269.953 1523.52 Q269.953 1525.65 269.143 1527.57 Q268.356 1529.47 266.249 1532.07 Q265.67 1532.74 262.569 1535.95 Q259.467 1539.15 253.819 1544.91 Z" fill="#000000" fill-rule="nonzero" fill-opacity="1" /><path clip-path="url(#clip310)" d="M631.835 1532.02 L661.51 1532.02 L661.51 1535.95 L631.835 1535.95 L631.835 1532.02 Z" fill="#000000" fill-rule="nonzero" fill-opacity="1" /><path clip-path="url(#clip310)" d="M672.413 1544.91 L680.052 1544.91 L680.052 1518.55 L671.742 1520.21 L671.742 1515.95 L680.006 1514.29 L684.682 1514.29 L684.682 1544.91 L692.32 1544.91 L692.32 1548.85 L672.413 1548.85 L672.413 1544.91 Z" fill="#000000" fill-rule="nonzero" fill-opacity="1" /><path clip-path="url(#clip310)" d="M1084.07 1517.37 Q1080.46 1517.37 1078.63 1520.93 Q1076.83 1524.47 1076.83 1531.6 Q1076.83 1538.71 1078.63 1542.27 Q1080.46 1545.82 1084.07 1545.82 Q1087.71 1545.82 1089.51 1542.27 Q1091.34 1538.71 1091.34 1531.6 Q1091.34 1524.47 1089.51 1520.93 Q1087.71 1517.37 1084.07 1517.37 M1084.07 1513.66 Q1089.88 1513.66 1092.94 1518.27 Q1096.02 1522.85 1096.02 1531.6 Q1096.02 1540.33 1092.94 1544.94 Q1089.88 1549.52 1084.07 1549.52 Q1078.26 1549.52 1075.19 1544.94 Q1072.13 1540.33 1072.13 1531.6 Q1072.13 1522.85 1075.19 1518.27 Q1078.26 1513.66 1084.07 1513.66 Z" fill="#000000" fill-rule="nonzero" fill-opacity="1" /><path clip-path="url(#clip310)" d="M1496.45 1544.91 L1504.09 1544.91 L1504.09 1518.55 L1495.78 1520.21 L1495.78 1515.95 L1504.05 1514.29 L1508.72 1514.29 L1508.72 1544.91 L1516.36 1544.91 L1516.36 1548.85 L1496.45 1548.85 L1496.45 1544.91 Z" fill="#000000" fill-rule="nonzero" fill-opacity="1" /><path clip-path="url(#clip310)" d="M1922.72 1544.91 L1939.04 1544.91 L1939.04 1548.85 L1917.1 1548.85 L1917.1 1544.91 Q1919.76 1542.16 1924.34 1537.53 Q1928.95 1532.88 1930.13 1531.53 Q1932.37 1529.01 1933.25 1527.27 Q1934.16 1525.51 1934.16 1523.82 Q1934.16 1521.07 1932.21 1519.33 Q1930.29 1517.6 1927.19 1517.6 Q1924.99 1517.6 1922.54 1518.36 Q1920.11 1519.13 1917.33 1520.68 L1917.33 1515.95 Q1920.15 1514.82 1922.61 1514.24 Q1925.06 1513.66 1927.1 1513.66 Q1932.47 1513.66 1935.66 1516.35 Q1938.86 1519.03 1938.86 1523.52 Q1938.86 1525.65 1938.05 1527.57 Q1937.26 1529.47 1935.15 1532.07 Q1934.57 1532.74 1931.47 1535.95 Q1928.37 1539.15 1922.72 1544.91 Z" fill="#000000" fill-rule="nonzero" fill-opacity="1" /><path clip-path="url(#clip310)" d="M2354.31 1530.21 Q2357.67 1530.93 2359.55 1533.2 Q2361.44 1535.47 2361.44 1538.8 Q2361.44 1543.92 2357.93 1546.72 Q2354.41 1549.52 2347.93 1549.52 Q2345.75 1549.52 2343.43 1549.08 Q2341.14 1548.66 2338.69 1547.81 L2338.69 1543.29 Q2340.63 1544.43 2342.95 1545.01 Q2345.26 1545.58 2347.79 1545.58 Q2352.18 1545.58 2354.48 1543.85 Q2356.79 1542.11 2356.79 1538.8 Q2356.79 1535.75 2354.64 1534.03 Q2352.51 1532.3 2348.69 1532.3 L2344.66 1532.3 L2344.66 1528.45 L2348.87 1528.45 Q2352.32 1528.45 2354.15 1527.09 Q2355.98 1525.7 2355.98 1523.11 Q2355.98 1520.45 2354.08 1519.03 Q2352.21 1517.6 2348.69 1517.6 Q2346.77 1517.6 2344.57 1518.01 Q2342.37 1518.43 2339.73 1519.31 L2339.73 1515.14 Q2342.39 1514.4 2344.71 1514.03 Q2347.05 1513.66 2349.11 1513.66 Q2354.43 1513.66 2357.53 1516.09 Q2360.63 1518.5 2360.63 1522.62 Q2360.63 1525.49 2358.99 1527.48 Q2357.35 1529.45 2354.31 1530.21 Z" fill="#000000" fill-rule="nonzero" fill-opacity="1" /><polyline clip-path="url(#clip310)" style="stroke:#000000; stroke-linecap:round; stroke-linejoin:round; stroke-width:4; stroke-opacity:1; fill:none" points="193.936,1486.45 193.936,47.2441 "/>
<polyline clip-path="url(#clip310)" style="stroke:#000000; stroke-linecap:round; stroke-linejoin:round; stroke-width:4; stroke-opacity:1; fill:none" points="193.936,1298.08 212.834,1298.08 "/>
<polyline clip-path="url(#clip310)" style="stroke:#000000; stroke-linecap:round; stroke-linejoin:round; stroke-width:4; stroke-opacity:1; fill:none" points="193.936,1044.73 212.834,1044.73 "/>
<polyline clip-path="url(#clip310)" style="stroke:#000000; stroke-linecap:round; stroke-linejoin:round; stroke-width:4; stroke-opacity:1; fill:none" points="193.936,791.382 212.834,791.382 "/>
<polyline clip-path="url(#clip310)" style="stroke:#000000; stroke-linecap:round; stroke-linejoin:round; stroke-width:4; stroke-opacity:1; fill:none" points="193.936,538.031 212.834,538.031 "/>
<polyline clip-path="url(#clip310)" style="stroke:#000000; stroke-linecap:round; stroke-linejoin:round; stroke-width:4; stroke-opacity:1; fill:none" points="193.936,284.681 212.834,284.681 "/>
<path clip-path="url(#clip310)" d="M50.9921 1298.53 L80.6679 1298.53 L80.6679 1302.47 L50.9921 1302.47 L50.9921 1298.53 Z" fill="#000000" fill-rule="nonzero" fill-opacity="1" /><path clip-path="url(#clip310)" d="M91.5706 1311.43 L99.2095 1311.43 L99.2095 1285.06 L90.8993 1286.73 L90.8993 1282.47 L99.1632 1280.8 L103.839 1280.8 L103.839 1311.43 L111.478 1311.43 L111.478 1315.36 L91.5706 1315.36 L91.5706 1311.43 Z" fill="#000000" fill-rule="nonzero" fill-opacity="1" /><path clip-path="url(#clip310)" d="M120.922 1309.48 L125.807 1309.48 L125.807 1315.36 L120.922 1315.36 L120.922 1309.48 Z" fill="#000000" fill-rule="nonzero" fill-opacity="1" /><path clip-path="url(#clip310)" d="M145.992 1283.88 Q142.381 1283.88 140.552 1287.45 Q138.746 1290.99 138.746 1298.12 Q138.746 1305.22 140.552 1308.79 Q142.381 1312.33 145.992 1312.33 Q149.626 1312.33 151.431 1308.79 Q153.26 1305.22 153.26 1298.12 Q153.26 1290.99 151.431 1287.45 Q149.626 1283.88 145.992 1283.88 M145.992 1280.18 Q151.802 1280.18 154.857 1284.78 Q157.936 1289.37 157.936 1298.12 Q157.936 1306.85 154.857 1311.45 Q151.802 1316.03 145.992 1316.03 Q140.181 1316.03 137.103 1311.45 Q134.047 1306.85 134.047 1298.12 Q134.047 1289.37 137.103 1284.78 Q140.181 1280.18 145.992 1280.18 Z" fill="#000000" fill-rule="nonzero" fill-opacity="1" /><path clip-path="url(#clip310)" d="M51.9875 1045.18 L81.6633 1045.18 L81.6633 1049.12 L51.9875 1049.12 L51.9875 1045.18 Z" fill="#000000" fill-rule="nonzero" fill-opacity="1" /><path clip-path="url(#clip310)" d="M101.756 1030.53 Q98.1447 1030.53 96.316 1034.1 Q94.5104 1037.64 94.5104 1044.77 Q94.5104 1051.87 96.316 1055.44 Q98.1447 1058.98 101.756 1058.98 Q105.39 1058.98 107.196 1055.44 Q109.024 1051.87 109.024 1044.77 Q109.024 1037.64 107.196 1034.1 Q105.39 1030.53 101.756 1030.53 M101.756 1026.83 Q107.566 1026.83 110.621 1031.43 Q113.7 1036.02 113.7 1044.77 Q113.7 1053.49 110.621 1058.1 Q107.566 1062.68 101.756 1062.68 Q95.9456 1062.68 92.8669 1058.1 Q89.8114 1053.49 89.8114 1044.77 Q89.8114 1036.02 92.8669 1031.43 Q95.9456 1026.83 101.756 1026.83 Z" fill="#000000" fill-rule="nonzero" fill-opacity="1" /><path clip-path="url(#clip310)" d="M121.918 1056.13 L126.802 1056.13 L126.802 1062.01 L121.918 1062.01 L121.918 1056.13 Z" fill="#000000" fill-rule="nonzero" fill-opacity="1" /><path clip-path="url(#clip310)" d="M137.033 1027.45 L155.39 1027.45 L155.39 1031.39 L141.316 1031.39 L141.316 1039.86 Q142.334 1039.51 143.353 1039.35 Q144.371 1039.17 145.39 1039.17 Q151.177 1039.17 154.556 1042.34 Q157.936 1045.51 157.936 1050.92 Q157.936 1056.5 154.464 1059.61 Q150.992 1062.68 144.672 1062.68 Q142.496 1062.68 140.228 1062.31 Q137.982 1061.94 135.575 1061.2 L135.575 1056.5 Q137.658 1057.64 139.881 1058.19 Q142.103 1058.75 144.58 1058.75 Q148.584 1058.75 150.922 1056.64 Q153.26 1054.54 153.26 1050.92 Q153.26 1047.31 150.922 1045.21 Q148.584 1043.1 144.58 1043.1 Q142.705 1043.1 140.83 1043.52 Q138.978 1043.93 137.033 1044.81 L137.033 1027.45 Z" fill="#000000" fill-rule="nonzero" fill-opacity="1" /><path clip-path="url(#clip310)" d="M100.76 777.181 Q97.1493 777.181 95.3206 780.746 Q93.515 784.287 93.515 791.417 Q93.515 798.523 95.3206 802.088 Q97.1493 805.63 100.76 805.63 Q104.395 805.63 106.2 802.088 Q108.029 798.523 108.029 791.417 Q108.029 784.287 106.2 780.746 Q104.395 777.181 100.76 777.181 M100.76 773.477 Q106.571 773.477 109.626 778.084 Q112.705 782.667 112.705 791.417 Q112.705 800.144 109.626 804.75 Q106.571 809.333 100.76 809.333 Q94.9502 809.333 91.8715 804.75 Q88.816 800.144 88.816 791.417 Q88.816 782.667 91.8715 778.084 Q94.9502 773.477 100.76 773.477 Z" fill="#000000" fill-rule="nonzero" fill-opacity="1" /><path clip-path="url(#clip310)" d="M120.922 802.783 L125.807 802.783 L125.807 808.662 L120.922 808.662 L120.922 802.783 Z" fill="#000000" fill-rule="nonzero" fill-opacity="1" /><path clip-path="url(#clip310)" d="M145.992 777.181 Q142.381 777.181 140.552 780.746 Q138.746 784.287 138.746 791.417 Q138.746 798.523 140.552 802.088 Q142.381 805.63 145.992 805.63 Q149.626 805.63 151.431 802.088 Q153.26 798.523 153.26 791.417 Q153.26 784.287 151.431 780.746 Q149.626 777.181 145.992 777.181 M145.992 773.477 Q151.802 773.477 154.857 778.084 Q157.936 782.667 157.936 791.417 Q157.936 800.144 154.857 804.75 Q151.802 809.333 145.992 809.333 Q140.181 809.333 137.103 804.75 Q134.047 800.144 134.047 791.417 Q134.047 782.667 137.103 778.084 Q140.181 773.477 145.992 773.477 Z" fill="#000000" fill-rule="nonzero" fill-opacity="1" /><path clip-path="url(#clip310)" d="M101.756 523.83 Q98.1447 523.83 96.316 527.395 Q94.5104 530.937 94.5104 538.066 Q94.5104 545.173 96.316 548.737 Q98.1447 552.279 101.756 552.279 Q105.39 552.279 107.196 548.737 Q109.024 545.173 109.024 538.066 Q109.024 530.937 107.196 527.395 Q105.39 523.83 101.756 523.83 M101.756 520.126 Q107.566 520.126 110.621 524.733 Q113.7 529.316 113.7 538.066 Q113.7 546.793 110.621 551.399 Q107.566 555.983 101.756 555.983 Q95.9456 555.983 92.8669 551.399 Q89.8114 546.793 89.8114 538.066 Q89.8114 529.316 92.8669 524.733 Q95.9456 520.126 101.756 520.126 Z" fill="#000000" fill-rule="nonzero" fill-opacity="1" /><path clip-path="url(#clip310)" d="M121.918 549.432 L126.802 549.432 L126.802 555.311 L121.918 555.311 L121.918 549.432 Z" fill="#000000" fill-rule="nonzero" fill-opacity="1" /><path clip-path="url(#clip310)" d="M137.033 520.751 L155.39 520.751 L155.39 524.687 L141.316 524.687 L141.316 533.159 Q142.334 532.812 143.353 532.65 Q144.371 532.464 145.39 532.464 Q151.177 532.464 154.556 535.636 Q157.936 538.807 157.936 544.224 Q157.936 549.802 154.464 552.904 Q150.992 555.983 144.672 555.983 Q142.496 555.983 140.228 555.612 Q137.982 555.242 135.575 554.501 L135.575 549.802 Q137.658 550.936 139.881 551.492 Q142.103 552.048 144.58 552.048 Q148.584 552.048 150.922 549.941 Q153.26 547.835 153.26 544.224 Q153.26 540.612 150.922 538.506 Q148.584 536.4 144.58 536.4 Q142.705 536.4 140.83 536.816 Q138.978 537.233 137.033 538.112 L137.033 520.751 Z" fill="#000000" fill-rule="nonzero" fill-opacity="1" /><path clip-path="url(#clip310)" d="M91.5706 298.026 L99.2095 298.026 L99.2095 271.66 L90.8993 273.327 L90.8993 269.067 L99.1632 267.401 L103.839 267.401 L103.839 298.026 L111.478 298.026 L111.478 301.961 L91.5706 301.961 L91.5706 298.026 Z" fill="#000000" fill-rule="nonzero" fill-opacity="1" /><path clip-path="url(#clip310)" d="M120.922 296.081 L125.807 296.081 L125.807 301.961 L120.922 301.961 L120.922 296.081 Z" fill="#000000" fill-rule="nonzero" fill-opacity="1" /><path clip-path="url(#clip310)" d="M145.992 270.479 Q142.381 270.479 140.552 274.044 Q138.746 277.586 138.746 284.715 Q138.746 291.822 140.552 295.387 Q142.381 298.928 145.992 298.928 Q149.626 298.928 151.431 295.387 Q153.26 291.822 153.26 284.715 Q153.26 277.586 151.431 274.044 Q149.626 270.479 145.992 270.479 M145.992 266.776 Q151.802 266.776 154.857 271.382 Q157.936 275.966 157.936 284.715 Q157.936 293.442 154.857 298.049 Q151.802 302.632 145.992 302.632 Q140.181 302.632 137.103 298.049 Q134.047 293.442 134.047 284.715 Q134.047 275.966 137.103 271.382 Q140.181 266.776 145.992 266.776 Z" fill="#000000" fill-rule="nonzero" fill-opacity="1" /><circle clip-path="url(#clip311)" cx="1228.27" cy="1117.4" r="14.4" fill="#009af9" fill-rule="evenodd" fill-opacity="0.5" stroke="#000000" stroke-opacity="0.5" stroke-width="3.2"/>
<circle clip-path="url(#clip311)" cx="658.769" cy="1157.87" r="14.4" fill="#009af9" fill-rule="evenodd" fill-opacity="0.5" stroke="#000000" stroke-opacity="0.5" stroke-width="3.2"/>
<circle clip-path="url(#clip311)" cx="1018.77" cy="558.785" r="14.4" fill="#009af9" fill-rule="evenodd" fill-opacity="0.5" stroke="#000000" stroke-opacity="0.5" stroke-width="3.2"/>
<circle clip-path="url(#clip311)" cx="432.546" cy="822.174" r="14.4" fill="#009af9" fill-rule="evenodd" fill-opacity="0.5" stroke="#000000" stroke-opacity="0.5" stroke-width="3.2"/>
<circle clip-path="url(#clip311)" cx="907.428" cy="682.825" r="14.4" fill="#009af9" fill-rule="evenodd" fill-opacity="0.5" stroke="#000000" stroke-opacity="0.5" stroke-width="3.2"/>
<circle clip-path="url(#clip311)" cx="255.035" cy="469.44" r="14.4" fill="#009af9" fill-rule="evenodd" fill-opacity="0.5" stroke="#000000" stroke-opacity="0.5" stroke-width="3.2"/>
<circle clip-path="url(#clip311)" cx="361.803" cy="1095.42" r="14.4" fill="#009af9" fill-rule="evenodd" fill-opacity="0.5" stroke="#000000" stroke-opacity="0.5" stroke-width="3.2"/>
<circle clip-path="url(#clip311)" cx="1279.62" cy="295.279" r="14.4" fill="#009af9" fill-rule="evenodd" fill-opacity="0.5" stroke="#000000" stroke-opacity="0.5" stroke-width="3.2"/>
<circle clip-path="url(#clip311)" cx="1048.19" cy="740.305" r="14.4" fill="#009af9" fill-rule="evenodd" fill-opacity="0.5" stroke="#000000" stroke-opacity="0.5" stroke-width="3.2"/>
<circle clip-path="url(#clip311)" cx="1590.94" cy="1041.49" r="14.4" fill="#009af9" fill-rule="evenodd" fill-opacity="0.5" stroke="#000000" stroke-opacity="0.5" stroke-width="3.2"/>
<circle clip-path="url(#clip311)" cx="508.81" cy="1217.24" r="14.4" fill="#009af9" fill-rule="evenodd" fill-opacity="0.5" stroke="#000000" stroke-opacity="0.5" stroke-width="3.2"/>
<circle clip-path="url(#clip311)" cx="687.889" cy="110.896" r="14.4" fill="#009af9" fill-rule="evenodd" fill-opacity="0.5" stroke="#000000" stroke-opacity="0.5" stroke-width="3.2"/>
<circle clip-path="url(#clip311)" cx="1590.16" cy="1063.81" r="14.4" fill="#009af9" fill-rule="evenodd" fill-opacity="0.5" stroke="#000000" stroke-opacity="0.5" stroke-width="3.2"/>
<circle clip-path="url(#clip311)" cx="378.422" cy="1224.33" r="14.4" fill="#009af9" fill-rule="evenodd" fill-opacity="0.5" stroke="#000000" stroke-opacity="0.5" stroke-width="3.2"/>
<circle clip-path="url(#clip311)" cx="1263.86" cy="1182.36" r="14.4" fill="#009af9" fill-rule="evenodd" fill-opacity="0.5" stroke="#000000" stroke-opacity="0.5" stroke-width="3.2"/>
<circle clip-path="url(#clip311)" cx="1637.7" cy="456.864" r="14.4" fill="#009af9" fill-rule="evenodd" fill-opacity="0.5" stroke="#000000" stroke-opacity="0.5" stroke-width="3.2"/>
<circle clip-path="url(#clip311)" cx="1236.57" cy="786.005" r="14.4" fill="#009af9" fill-rule="evenodd" fill-opacity="0.5" stroke="#000000" stroke-opacity="0.5" stroke-width="3.2"/>
<circle clip-path="url(#clip311)" cx="1096.33" cy="184.178" r="14.4" fill="#009af9" fill-rule="evenodd" fill-opacity="0.5" stroke="#000000" stroke-opacity="0.5" stroke-width="3.2"/>
<circle clip-path="url(#clip311)" cx="1043.34" cy="920.163" r="14.4" fill="#009af9" fill-rule="evenodd" fill-opacity="0.5" stroke="#000000" stroke-opacity="0.5" stroke-width="3.2"/>
<circle clip-path="url(#clip311)" cx="492.754" cy="373.412" r="14.4" fill="#009af9" fill-rule="evenodd" fill-opacity="0.5" stroke="#000000" stroke-opacity="0.5" stroke-width="3.2"/>
<circle clip-path="url(#clip311)" cx="1314.17" cy="87.9763" r="14.4" fill="#009af9" fill-rule="evenodd" fill-opacity="0.5" stroke="#000000" stroke-opacity="0.5" stroke-width="3.2"/>
<circle clip-path="url(#clip311)" cx="1232.08" cy="1445.72" r="14.4" fill="#009af9" fill-rule="evenodd" fill-opacity="0.5" stroke="#000000" stroke-opacity="0.5" stroke-width="3.2"/>
<circle clip-path="url(#clip311)" cx="392.122" cy="608.412" r="14.4" fill="#009af9" fill-rule="evenodd" fill-opacity="0.5" stroke="#000000" stroke-opacity="0.5" stroke-width="3.2"/>
<circle clip-path="url(#clip311)" cx="982.619" cy="145.705" r="14.4" fill="#009af9" fill-rule="evenodd" fill-opacity="0.5" stroke="#000000" stroke-opacity="0.5" stroke-width="3.2"/>
<circle clip-path="url(#clip311)" cx="685.716" cy="766.904" r="14.4" fill="#009af9" fill-rule="evenodd" fill-opacity="0.5" stroke="#000000" stroke-opacity="0.5" stroke-width="3.2"/>
<circle clip-path="url(#clip311)" cx="1398.67" cy="626.548" r="14.4" fill="#009af9" fill-rule="evenodd" fill-opacity="0.5" stroke="#000000" stroke-opacity="0.5" stroke-width="3.2"/>
<circle clip-path="url(#clip311)" cx="1141.37" cy="692.994" r="14.4" fill="#009af9" fill-rule="evenodd" fill-opacity="0.5" stroke="#000000" stroke-opacity="0.5" stroke-width="3.2"/>
<circle clip-path="url(#clip311)" cx="2041.31" cy="1304.59" r="14.4" fill="#009af9" fill-rule="evenodd" fill-opacity="0.5" stroke="#000000" stroke-opacity="0.5" stroke-width="3.2"/>
<circle clip-path="url(#clip311)" cx="2291.66" cy="470.044" r="14.4" fill="#009af9" fill-rule="evenodd" fill-opacity="0.5" stroke="#000000" stroke-opacity="0.5" stroke-width="3.2"/>
<circle clip-path="url(#clip311)" cx="1327.15" cy="1393.29" r="14.4" fill="#009af9" fill-rule="evenodd" fill-opacity="0.5" stroke="#000000" stroke-opacity="0.5" stroke-width="3.2"/>
<path clip-path="url(#clip311)" d="M255.035 469.44 L378.422 1224.33 L1232.08 1445.72 L2041.31 1304.59 L2291.66 470.044 L1314.17 87.9763 L687.889 110.896 L255.035 469.44 L255.035 469.44  Z" fill="#e26f46" fill-rule="evenodd" fill-opacity="0.2"/>
<polyline clip-path="url(#clip311)" style="stroke:#000000; stroke-linecap:round; stroke-linejoin:round; stroke-width:4; stroke-opacity:0.2; fill:none" points="255.035,469.44 378.422,1224.33 1232.08,1445.72 2041.31,1304.59 2291.66,470.044 1314.17,87.9763 687.889,110.896 255.035,469.44 "/>
</svg>
