<?xml version="1.0" encoding="utf-8"?>
<svg xmlns="http://www.w3.org/2000/svg" xmlns:xlink="http://www.w3.org/1999/xlink" width="600" height="400" viewBox="0 0 2400 1600">
<defs>
  <clipPath id="clip980">
    <rect x="0" y="0" width="2400" height="1600"/>
  </clipPath>
</defs>
<path clip-path="url(#clip980)" d="M0 1600 L2400 1600 L2400 0 L0 0  Z" fill="#ffffff" fill-rule="evenodd" fill-opacity="1"/>
<defs>
  <clipPath id="clip981">
    <rect x="480" y="0" width="1681" height="1600"/>
  </clipPath>
</defs>
<path clip-path="url(#clip980)" d="M147.478 1486.45 L2352.76 1486.45 L2352.76 47.2441 L147.478 47.2441  Z" fill="#ffffff" fill-rule="evenodd" fill-opacity="1"/>
<defs>
  <clipPath id="clip982">
    <rect x="147" y="47" width="2206" height="1440"/>
  </clipPath>
</defs>
<polyline clip-path="url(#clip982)" style="stroke:#000000; stroke-linecap:round; stroke-linejoin:round; stroke-width:2; stroke-opacity:0.1; fill:none" points="326.582,1486.45 326.582,47.2441 "/>
<polyline clip-path="url(#clip982)" style="stroke:#000000; stroke-linecap:round; stroke-linejoin:round; stroke-width:2; stroke-opacity:0.1; fill:none" points="798.199,1486.45 798.199,47.2441 "/>
<polyline clip-path="url(#clip982)" style="stroke:#000000; stroke-linecap:round; stroke-linejoin:round; stroke-width:2; stroke-opacity:0.1; fill:none" points="1269.82,1486.45 1269.82,47.2441 "/>
<polyline clip-path="url(#clip982)" style="stroke:#000000; stroke-linecap:round; stroke-linejoin:round; stroke-width:2; stroke-opacity:0.1; fill:none" points="1741.43,1486.45 1741.43,47.2441 "/>
<polyline clip-path="url(#clip982)" style="stroke:#000000; stroke-linecap:round; stroke-linejoin:round; stroke-width:2; stroke-opacity:0.1; fill:none" points="2213.05,1486.45 2213.05,47.2441 "/>
<polyline clip-path="url(#clip982)" style="stroke:#000000; stroke-linecap:round; stroke-linejoin:round; stroke-width:2; stroke-opacity:0.1; fill:none" points="147.478,1263 2352.76,1263 "/>
<polyline clip-path="url(#clip982)" style="stroke:#000000; stroke-linecap:round; stroke-linejoin:round; stroke-width:2; stroke-opacity:0.1; fill:none" points="147.478,953.34 2352.76,953.34 "/>
<polyline clip-path="url(#clip982)" style="stroke:#000000; stroke-linecap:round; stroke-linejoin:round; stroke-width:2; stroke-opacity:0.1; fill:none" points="147.478,643.677 2352.76,643.677 "/>
<polyline clip-path="url(#clip982)" style="stroke:#000000; stroke-linecap:round; stroke-linejoin:round; stroke-width:2; stroke-opacity:0.1; fill:none" points="147.478,334.015 2352.76,334.015 "/>
<polyline clip-path="url(#clip980)" style="stroke:#000000; stroke-linecap:round; stroke-linejoin:round; stroke-width:4; stroke-opacity:1; fill:none" points="147.478,1486.45 2352.76,1486.45 "/>
<polyline clip-path="url(#clip980)" style="stroke:#000000; stroke-linecap:round; stroke-linejoin:round; stroke-width:4; stroke-opacity:1; fill:none" points="326.582,1486.45 326.582,1467.55 "/>
<polyline clip-path="url(#clip980)" style="stroke:#000000; stroke-linecap:round; stroke-linejoin:round; stroke-width:4; stroke-opacity:1; fill:none" points="798.199,1486.45 798.199,1467.55 "/>
<polyline clip-path="url(#clip980)" style="stroke:#000000; stroke-linecap:round; stroke-linejoin:round; stroke-width:4; stroke-opacity:1; fill:none" points="1269.82,1486.45 1269.82,1467.55 "/>
<polyline clip-path="url(#clip980)" style="stroke:#000000; stroke-linecap:round; stroke-linejoin:round; stroke-width:4; stroke-opacity:1; fill:none" points="1741.43,1486.45 1741.43,1467.55 "/>
<polyline clip-path="url(#clip980)" style="stroke:#000000; stroke-linecap:round; stroke-linejoin:round; stroke-width:4; stroke-opacity:1; fill:none" points="2213.05,1486.45 2213.05,1467.55 "/>
<path clip-path="url(#clip980)" d="M296.525 1532.02 L326.201 1532.02 L326.201 1535.95 L296.525 1535.95 L296.525 1532.02 Z" fill="#000000" fill-rule="nonzero" fill-opacity="1" /><path clip-path="url(#clip980)" d="M340.321 1544.91 L356.64 1544.91 L356.64 1548.85 L334.696 1548.85 L334.696 1544.91 Q337.358 1542.16 341.941 1537.53 Q346.548 1532.88 347.728 1531.53 Q349.974 1529.01 350.853 1527.27 Q351.756 1525.51 351.756 1523.82 Q351.756 1521.07 349.812 1519.33 Q347.89 1517.6 344.788 1517.6 Q342.589 1517.6 340.136 1518.36 Q337.705 1519.13 334.927 1520.68 L334.927 1515.95 Q337.751 1514.82 340.205 1514.24 Q342.659 1513.66 344.696 1513.66 Q350.066 1513.66 353.261 1516.35 Q356.455 1519.03 356.455 1523.52 Q356.455 1525.65 355.645 1527.57 Q354.858 1529.47 352.751 1532.07 Q352.173 1532.74 349.071 1535.95 Q345.969 1539.15 340.321 1544.91 Z" fill="#000000" fill-rule="nonzero" fill-opacity="1" /><path clip-path="url(#clip980)" d="M767.956 1532.02 L797.632 1532.02 L797.632 1535.95 L767.956 1535.95 L767.956 1532.02 Z" fill="#000000" fill-rule="nonzero" fill-opacity="1" /><path clip-path="url(#clip980)" d="M808.534 1544.91 L816.173 1544.91 L816.173 1518.55 L807.863 1520.21 L807.863 1515.95 L816.127 1514.29 L820.803 1514.29 L820.803 1544.91 L828.442 1544.91 L828.442 1548.85 L808.534 1548.85 L808.534 1544.91 Z" fill="#000000" fill-rule="nonzero" fill-opacity="1" /><path clip-path="url(#clip980)" d="M1269.82 1517.37 Q1266.2 1517.37 1264.38 1520.93 Q1262.57 1524.47 1262.57 1531.6 Q1262.57 1538.71 1264.38 1542.27 Q1266.2 1545.82 1269.82 1545.82 Q1273.45 1545.82 1275.25 1542.27 Q1277.08 1538.71 1277.08 1531.6 Q1277.08 1524.47 1275.25 1520.93 Q1273.45 1517.37 1269.82 1517.37 M1269.82 1513.66 Q1275.63 1513.66 1278.68 1518.27 Q1281.76 1522.85 1281.76 1531.6 Q1281.76 1540.33 1278.68 1544.94 Q1275.63 1549.52 1269.82 1549.52 Q1264 1549.52 1260.93 1544.94 Q1257.87 1540.33 1257.87 1531.6 Q1257.87 1522.85 1260.93 1518.27 Q1264 1513.66 1269.82 1513.66 Z" fill="#000000" fill-rule="nonzero" fill-opacity="1" /><path clip-path="url(#clip980)" d="M1731.81 1544.91 L1739.45 1544.91 L1739.45 1518.55 L1731.14 1520.21 L1731.14 1515.95 L1739.41 1514.29 L1744.08 1514.29 L1744.08 1544.91 L1751.72 1544.91 L1751.72 1548.85 L1731.81 1548.85 L1731.81 1544.91 Z" fill="#000000" fill-rule="nonzero" fill-opacity="1" /><path clip-path="url(#clip980)" d="M2207.7 1544.91 L2224.02 1544.91 L2224.02 1548.85 L2202.08 1548.85 L2202.08 1544.91 Q2204.74 1542.16 2209.32 1537.53 Q2213.93 1532.88 2215.11 1531.53 Q2217.35 1529.01 2218.23 1527.27 Q2219.14 1525.51 2219.14 1523.82 Q2219.14 1521.07 2217.19 1519.33 Q2215.27 1517.6 2212.17 1517.6 Q2209.97 1517.6 2207.52 1518.36 Q2205.08 1519.13 2202.31 1520.68 L2202.31 1515.95 Q2205.13 1514.82 2207.58 1514.24 Q2210.04 1513.66 2212.08 1513.66 Q2217.45 1513.66 2220.64 1516.35 Q2223.83 1519.03 2223.83 1523.52 Q2223.83 1525.65 2223.02 1527.57 Q2222.24 1529.47 2220.13 1532.07 Q2219.55 1532.74 2216.45 1535.95 Q2213.35 1539.15 2207.7 1544.91 Z" fill="#000000" fill-rule="nonzero" fill-opacity="1" /><polyline clip-path="url(#clip980)" style="stroke:#000000; stroke-linecap:round; stroke-linejoin:round; stroke-width:4; stroke-opacity:1; fill:none" points="147.478,1486.45 147.478,47.2441 "/>
<polyline clip-path="url(#clip980)" style="stroke:#000000; stroke-linecap:round; stroke-linejoin:round; stroke-width:4; stroke-opacity:1; fill:none" points="147.478,1263 166.376,1263 "/>
<polyline clip-path="url(#clip980)" style="stroke:#000000; stroke-linecap:round; stroke-linejoin:round; stroke-width:4; stroke-opacity:1; fill:none" points="147.478,953.34 166.376,953.34 "/>
<polyline clip-path="url(#clip980)" style="stroke:#000000; stroke-linecap:round; stroke-linejoin:round; stroke-width:4; stroke-opacity:1; fill:none" points="147.478,643.677 166.376,643.677 "/>
<polyline clip-path="url(#clip980)" style="stroke:#000000; stroke-linecap:round; stroke-linejoin:round; stroke-width:4; stroke-opacity:1; fill:none" points="147.478,334.015 166.376,334.015 "/>
<path clip-path="url(#clip980)" d="M51.3625 1263.45 L81.0383 1263.45 L81.0383 1267.39 L51.3625 1267.39 L51.3625 1263.45 Z" fill="#000000" fill-rule="nonzero" fill-opacity="1" /><path clip-path="url(#clip980)" d="M95.1586 1276.35 L111.478 1276.35 L111.478 1280.28 L89.5336 1280.28 L89.5336 1276.35 Q92.1956 1273.59 96.7789 1268.96 Q101.385 1264.31 102.566 1262.97 Q104.811 1260.44 105.691 1258.71 Q106.594 1256.95 106.594 1255.26 Q106.594 1252.5 104.649 1250.77 Q102.728 1249.03 99.6261 1249.03 Q97.4271 1249.03 94.9734 1249.8 Q92.5428 1250.56 89.7651 1252.11 L89.7651 1247.39 Q92.5891 1246.25 95.0428 1245.68 Q97.4965 1245.1 99.5335 1245.1 Q104.904 1245.1 108.098 1247.78 Q111.293 1250.47 111.293 1254.96 Q111.293 1257.09 110.483 1259.01 Q109.696 1260.91 107.589 1263.5 Q107.01 1264.17 103.909 1267.39 Q100.807 1270.58 95.1586 1276.35 Z" fill="#000000" fill-rule="nonzero" fill-opacity="1" /><path clip-path="url(#clip980)" d="M50.9921 953.791 L80.6679 953.791 L80.6679 957.726 L50.9921 957.726 L50.9921 953.791 Z" fill="#000000" fill-rule="nonzero" fill-opacity="1" /><path clip-path="url(#clip980)" d="M91.5706 966.685 L99.2095 966.685 L99.2095 940.319 L90.8993 941.986 L90.8993 937.726 L99.1632 936.06 L103.839 936.06 L103.839 966.685 L111.478 966.685 L111.478 970.62 L91.5706 970.62 L91.5706 966.685 Z" fill="#000000" fill-rule="nonzero" fill-opacity="1" /><path clip-path="url(#clip980)" d="M99.5335 629.476 Q95.9224 629.476 94.0937 633.041 Q92.2882 636.583 92.2882 643.712 Q92.2882 650.819 94.0937 654.383 Q95.9224 657.925 99.5335 657.925 Q103.168 657.925 104.973 654.383 Q106.802 650.819 106.802 643.712 Q106.802 636.583 104.973 633.041 Q103.168 629.476 99.5335 629.476 M99.5335 625.772 Q105.344 625.772 108.399 630.379 Q111.478 634.962 111.478 643.712 Q111.478 652.439 108.399 657.045 Q105.344 661.629 99.5335 661.629 Q93.7234 661.629 90.6447 657.045 Q87.5892 652.439 87.5892 643.712 Q87.5892 634.962 90.6447 630.379 Q93.7234 625.772 99.5335 625.772 Z" fill="#000000" fill-rule="nonzero" fill-opacity="1" /><path clip-path="url(#clip980)" d="M91.5706 347.36 L99.2095 347.36 L99.2095 320.994 L90.8993 322.661 L90.8993 318.402 L99.1632 316.735 L103.839 316.735 L103.839 347.36 L111.478 347.36 L111.478 351.295 L91.5706 351.295 L91.5706 347.36 Z" fill="#000000" fill-rule="nonzero" fill-opacity="1" /><circle clip-path="url(#clip982)" cx="209.891" cy="837.922" r="14.4" fill="#009af9" fill-rule="evenodd" fill-opacity="0.5" stroke="#000000" stroke-opacity="0.5" stroke-width="3.2"/>
<circle clip-path="url(#clip982)" cx="1613.59" cy="1151.13" r="14.4" fill="#009af9" fill-rule="evenodd" fill-opacity="0.5" stroke="#000000" stroke-opacity="0.5" stroke-width="3.2"/>
<circle clip-path="url(#clip982)" cx="2290.34" cy="532.24" r="14.4" fill="#009af9" fill-rule="evenodd" fill-opacity="0.5" stroke="#000000" stroke-opacity="0.5" stroke-width="3.2"/>
<circle clip-path="url(#clip982)" cx="1758.85" cy="247.954" r="14.4" fill="#009af9" fill-rule="evenodd" fill-opacity="0.5" stroke="#000000" stroke-opacity="0.5" stroke-width="3.2"/>
<circle clip-path="url(#clip982)" cx="557.06" cy="211.522" r="14.4" fill="#009af9" fill-rule="evenodd" fill-opacity="0.5" stroke="#000000" stroke-opacity="0.5" stroke-width="3.2"/>
<circle clip-path="url(#clip982)" cx="1996.69" cy="757.89" r="14.4" fill="#009af9" fill-rule="evenodd" fill-opacity="0.5" stroke="#000000" stroke-opacity="0.5" stroke-width="3.2"/>
<circle clip-path="url(#clip982)" cx="2240.92" cy="365.04" r="14.4" fill="#009af9" fill-rule="evenodd" fill-opacity="0.5" stroke="#000000" stroke-opacity="0.5" stroke-width="3.2"/>
<circle clip-path="url(#clip982)" cx="793.683" cy="1445.72" r="14.4" fill="#009af9" fill-rule="evenodd" fill-opacity="0.5" stroke="#000000" stroke-opacity="0.5" stroke-width="3.2"/>
<circle clip-path="url(#clip982)" cx="1352.7" cy="1246.87" r="14.4" fill="#009af9" fill-rule="evenodd" fill-opacity="0.5" stroke="#000000" stroke-opacity="0.5" stroke-width="3.2"/>
<circle clip-path="url(#clip982)" cx="1159.75" cy="986.924" r="14.4" fill="#009af9" fill-rule="evenodd" fill-opacity="0.5" stroke="#000000" stroke-opacity="0.5" stroke-width="3.2"/>
<circle clip-path="url(#clip982)" cx="607.14" cy="666.752" r="14.4" fill="#009af9" fill-rule="evenodd" fill-opacity="0.5" stroke="#000000" stroke-opacity="0.5" stroke-width="3.2"/>
<circle clip-path="url(#clip982)" cx="588.95" cy="612.333" r="14.4" fill="#009af9" fill-rule="evenodd" fill-opacity="0.5" stroke="#000000" stroke-opacity="0.5" stroke-width="3.2"/>
<circle clip-path="url(#clip982)" cx="1188.71" cy="890.564" r="14.4" fill="#009af9" fill-rule="evenodd" fill-opacity="0.5" stroke="#000000" stroke-opacity="0.5" stroke-width="3.2"/>
<circle clip-path="url(#clip982)" cx="939.181" cy="535.533" r="14.4" fill="#009af9" fill-rule="evenodd" fill-opacity="0.5" stroke="#000000" stroke-opacity="0.5" stroke-width="3.2"/>
<circle clip-path="url(#clip982)" cx="1964.33" cy="1131.79" r="14.4" fill="#009af9" fill-rule="evenodd" fill-opacity="0.5" stroke="#000000" stroke-opacity="0.5" stroke-width="3.2"/>
<circle clip-path="url(#clip982)" cx="1393.42" cy="705.094" r="14.4" fill="#009af9" fill-rule="evenodd" fill-opacity="0.5" stroke="#000000" stroke-opacity="0.5" stroke-width="3.2"/>
<circle clip-path="url(#clip982)" cx="1757.44" cy="523.425" r="14.4" fill="#009af9" fill-rule="evenodd" fill-opacity="0.5" stroke="#000000" stroke-opacity="0.5" stroke-width="3.2"/>
<circle clip-path="url(#clip982)" cx="1312.13" cy="228.58" r="14.4" fill="#009af9" fill-rule="evenodd" fill-opacity="0.5" stroke="#000000" stroke-opacity="0.5" stroke-width="3.2"/>
<circle clip-path="url(#clip982)" cx="1974.32" cy="87.9763" r="14.4" fill="#009af9" fill-rule="evenodd" fill-opacity="0.5" stroke="#000000" stroke-opacity="0.5" stroke-width="3.2"/>
<circle clip-path="url(#clip982)" cx="1330.47" cy="663.398" r="14.4" fill="#009af9" fill-rule="evenodd" fill-opacity="0.5" stroke="#000000" stroke-opacity="0.5" stroke-width="3.2"/>
<circle clip-path="url(#clip982)" cx="2061.46" cy="865.001" r="14.4" fill="#009af9" fill-rule="evenodd" fill-opacity="0.5" stroke="#000000" stroke-opacity="0.5" stroke-width="3.2"/>
<circle clip-path="url(#clip982)" cx="1714.57" cy="654.4" r="14.4" fill="#009af9" fill-rule="evenodd" fill-opacity="0.5" stroke="#000000" stroke-opacity="0.5" stroke-width="3.2"/>
<circle clip-path="url(#clip982)" cx="1257.16" cy="1010.43" r="14.4" fill="#009af9" fill-rule="evenodd" fill-opacity="0.5" stroke="#000000" stroke-opacity="0.5" stroke-width="3.2"/>
<circle clip-path="url(#clip982)" cx="745.847" cy="538.064" r="14.4" fill="#009af9" fill-rule="evenodd" fill-opacity="0.5" stroke="#000000" stroke-opacity="0.5" stroke-width="3.2"/>
<circle clip-path="url(#clip982)" cx="783.416" cy="619.012" r="14.4" fill="#009af9" fill-rule="evenodd" fill-opacity="0.5" stroke="#000000" stroke-opacity="0.5" stroke-width="3.2"/>
<circle clip-path="url(#clip982)" cx="1266.9" cy="902.408" r="14.4" fill="#009af9" fill-rule="evenodd" fill-opacity="0.5" stroke="#000000" stroke-opacity="0.5" stroke-width="3.2"/>
<circle clip-path="url(#clip982)" cx="1959.15" cy="865.762" r="14.4" fill="#009af9" fill-rule="evenodd" fill-opacity="0.5" stroke="#000000" stroke-opacity="0.5" stroke-width="3.2"/>
<circle clip-path="url(#clip982)" cx="1641.29" cy="668.046" r="14.4" fill="#009af9" fill-rule="evenodd" fill-opacity="0.5" stroke="#000000" stroke-opacity="0.5" stroke-width="3.2"/>
<circle clip-path="url(#clip982)" cx="1134.91" cy="875.556" r="14.4" fill="#009af9" fill-rule="evenodd" fill-opacity="0.5" stroke="#000000" stroke-opacity="0.5" stroke-width="3.2"/>
<circle clip-path="url(#clip982)" cx="1910.07" cy="377.149" r="14.4" fill="#009af9" fill-rule="evenodd" fill-opacity="0.5" stroke="#000000" stroke-opacity="0.5" stroke-width="3.2"/>
<path clip-path="url(#clip982)" d="M209.891 837.922 L793.683 1445.72 L1964.33 1131.79 L2290.34 532.24 L2240.92 365.04 L1974.32 87.9763 L557.06 211.522 L209.891 837.922 L209.891 837.922  Z" fill="#e26f46" fill-rule="evenodd" fill-opacity="0.2"/>
<polyline clip-path="url(#clip982)" style="stroke:#000000; stroke-linecap:round; stroke-linejoin:round; stroke-width:4; stroke-opacity:0.2; fill:none" points="209.891,837.922 793.683,1445.72 1964.33,1131.79 2290.34,532.24 2240.92,365.04 1974.32,87.9763 557.06,211.522 209.891,837.922 "/>
</svg>
