<?xml version="1.0" encoding="utf-8"?>
<svg xmlns="http://www.w3.org/2000/svg" xmlns:xlink="http://www.w3.org/1999/xlink" width="600" height="400" viewBox="0 0 2400 1600">
<defs>
  <clipPath id="clip760">
    <rect x="0" y="0" width="2400" height="1600"/>
  </clipPath>
</defs>
<path clip-path="url(#clip760)" d="M0 1600 L2400 1600 L2400 0 L0 0  Z" fill="#ffffff" fill-rule="evenodd" fill-opacity="1"/>
<defs>
  <clipPath id="clip761">
    <rect x="480" y="0" width="1681" height="1600"/>
  </clipPath>
</defs>
<path clip-path="url(#clip760)" d="M147.478 1486.45 L2352.76 1486.45 L2352.76 47.2441 L147.478 47.2441  Z" fill="#ffffff" fill-rule="evenodd" fill-opacity="1"/>
<defs>
  <clipPath id="clip762">
    <rect x="147" y="47" width="2206" height="1440"/>
  </clipPath>
</defs>
<polyline clip-path="url(#clip762)" style="stroke:#000000; stroke-linecap:round; stroke-linejoin:round; stroke-width:2; stroke-opacity:0.1; fill:none" points="481.487,1486.45 481.487,47.2441 "/>
<polyline clip-path="url(#clip762)" style="stroke:#000000; stroke-linecap:round; stroke-linejoin:round; stroke-width:2; stroke-opacity:0.1; fill:none" points="874.045,1486.45 874.045,47.2441 "/>
<polyline clip-path="url(#clip762)" style="stroke:#000000; stroke-linecap:round; stroke-linejoin:round; stroke-width:2; stroke-opacity:0.1; fill:none" points="1266.6,1486.45 1266.6,47.2441 "/>
<polyline clip-path="url(#clip762)" style="stroke:#000000; stroke-linecap:round; stroke-linejoin:round; stroke-width:2; stroke-opacity:0.1; fill:none" points="1659.16,1486.45 1659.16,47.2441 "/>
<polyline clip-path="url(#clip762)" style="stroke:#000000; stroke-linecap:round; stroke-linejoin:round; stroke-width:2; stroke-opacity:0.1; fill:none" points="2051.72,1486.45 2051.72,47.2441 "/>
<polyline clip-path="url(#clip762)" style="stroke:#000000; stroke-linecap:round; stroke-linejoin:round; stroke-width:2; stroke-opacity:0.1; fill:none" points="147.478,1242.8 2352.76,1242.8 "/>
<polyline clip-path="url(#clip762)" style="stroke:#000000; stroke-linecap:round; stroke-linejoin:round; stroke-width:2; stroke-opacity:0.1; fill:none" points="147.478,847.33 2352.76,847.33 "/>
<polyline clip-path="url(#clip762)" style="stroke:#000000; stroke-linecap:round; stroke-linejoin:round; stroke-width:2; stroke-opacity:0.1; fill:none" points="147.478,451.865 2352.76,451.865 "/>
<polyline clip-path="url(#clip762)" style="stroke:#000000; stroke-linecap:round; stroke-linejoin:round; stroke-width:2; stroke-opacity:0.1; fill:none" points="147.478,56.3994 2352.76,56.3994 "/>
<polyline clip-path="url(#clip760)" style="stroke:#000000; stroke-linecap:round; stroke-linejoin:round; stroke-width:4; stroke-opacity:1; fill:none" points="147.478,1486.45 2352.76,1486.45 "/>
<polyline clip-path="url(#clip760)" style="stroke:#000000; stroke-linecap:round; stroke-linejoin:round; stroke-width:4; stroke-opacity:1; fill:none" points="481.487,1486.45 481.487,1467.55 "/>
<polyline clip-path="url(#clip760)" style="stroke:#000000; stroke-linecap:round; stroke-linejoin:round; stroke-width:4; stroke-opacity:1; fill:none" points="874.045,1486.45 874.045,1467.55 "/>
<polyline clip-path="url(#clip760)" style="stroke:#000000; stroke-linecap:round; stroke-linejoin:round; stroke-width:4; stroke-opacity:1; fill:none" points="1266.6,1486.45 1266.6,1467.55 "/>
<polyline clip-path="url(#clip760)" style="stroke:#000000; stroke-linecap:round; stroke-linejoin:round; stroke-width:4; stroke-opacity:1; fill:none" points="1659.16,1486.45 1659.16,1467.55 "/>
<polyline clip-path="url(#clip760)" style="stroke:#000000; stroke-linecap:round; stroke-linejoin:round; stroke-width:4; stroke-opacity:1; fill:none" points="2051.72,1486.45 2051.72,1467.55 "/>
<path clip-path="url(#clip760)" d="M451.429 1532.02 L481.105 1532.02 L481.105 1535.95 L451.429 1535.95 L451.429 1532.02 Z" fill="#000000" fill-rule="nonzero" fill-opacity="1" /><path clip-path="url(#clip760)" d="M495.225 1544.91 L511.545 1544.91 L511.545 1548.85 L489.6 1548.85 L489.6 1544.91 Q492.262 1542.16 496.846 1537.53 Q501.452 1532.88 502.633 1531.53 Q504.878 1529.01 505.758 1527.27 Q506.66 1525.51 506.66 1523.82 Q506.66 1521.07 504.716 1519.33 Q502.795 1517.6 499.693 1517.6 Q497.494 1517.6 495.04 1518.36 Q492.61 1519.13 489.832 1520.68 L489.832 1515.95 Q492.656 1514.82 495.11 1514.24 Q497.563 1513.66 499.6 1513.66 Q504.971 1513.66 508.165 1516.35 Q511.359 1519.03 511.359 1523.52 Q511.359 1525.65 510.549 1527.57 Q509.762 1529.47 507.656 1532.07 Q507.077 1532.74 503.975 1535.95 Q500.873 1539.15 495.225 1544.91 Z" fill="#000000" fill-rule="nonzero" fill-opacity="1" /><path clip-path="url(#clip760)" d="M843.802 1532.02 L873.478 1532.02 L873.478 1535.95 L843.802 1535.95 L843.802 1532.02 Z" fill="#000000" fill-rule="nonzero" fill-opacity="1" /><path clip-path="url(#clip760)" d="M884.381 1544.91 L892.019 1544.91 L892.019 1518.55 L883.709 1520.21 L883.709 1515.95 L891.973 1514.29 L896.649 1514.29 L896.649 1544.91 L904.288 1544.91 L904.288 1548.85 L884.381 1548.85 L884.381 1544.91 Z" fill="#000000" fill-rule="nonzero" fill-opacity="1" /><path clip-path="url(#clip760)" d="M1266.6 1517.37 Q1262.99 1517.37 1261.16 1520.93 Q1259.36 1524.47 1259.36 1531.6 Q1259.36 1538.71 1261.16 1542.27 Q1262.99 1545.82 1266.6 1545.82 Q1270.24 1545.82 1272.04 1542.27 Q1273.87 1538.71 1273.87 1531.6 Q1273.87 1524.47 1272.04 1520.93 Q1270.24 1517.37 1266.6 1517.37 M1266.6 1513.66 Q1272.41 1513.66 1275.47 1518.27 Q1278.55 1522.85 1278.55 1531.6 Q1278.55 1540.33 1275.47 1544.94 Q1272.41 1549.52 1266.6 1549.52 Q1260.79 1549.52 1257.71 1544.94 Q1254.66 1540.33 1254.66 1531.6 Q1254.66 1522.85 1257.71 1518.27 Q1260.79 1513.66 1266.6 1513.66 Z" fill="#000000" fill-rule="nonzero" fill-opacity="1" /><path clip-path="url(#clip760)" d="M1649.54 1544.91 L1657.18 1544.91 L1657.18 1518.55 L1648.87 1520.21 L1648.87 1515.95 L1657.14 1514.29 L1661.81 1514.29 L1661.81 1544.91 L1669.45 1544.91 L1669.45 1548.85 L1649.54 1548.85 L1649.54 1544.91 Z" fill="#000000" fill-rule="nonzero" fill-opacity="1" /><path clip-path="url(#clip760)" d="M2046.37 1544.91 L2062.69 1544.91 L2062.69 1548.85 L2040.75 1548.85 L2040.75 1544.91 Q2043.41 1542.16 2047.99 1537.53 Q2052.6 1532.88 2053.78 1531.53 Q2056.02 1529.01 2056.9 1527.27 Q2057.81 1525.51 2057.81 1523.82 Q2057.81 1521.07 2055.86 1519.33 Q2053.94 1517.6 2050.84 1517.6 Q2048.64 1517.6 2046.19 1518.36 Q2043.76 1519.13 2040.98 1520.68 L2040.98 1515.95 Q2043.8 1514.82 2046.26 1514.24 Q2048.71 1513.66 2050.75 1513.66 Q2056.12 1513.66 2059.31 1516.35 Q2062.51 1519.03 2062.51 1523.52 Q2062.51 1525.65 2061.7 1527.57 Q2060.91 1529.47 2058.8 1532.07 Q2058.22 1532.74 2055.12 1535.95 Q2052.02 1539.15 2046.37 1544.91 Z" fill="#000000" fill-rule="nonzero" fill-opacity="1" /><polyline clip-path="url(#clip760)" style="stroke:#000000; stroke-linecap:round; stroke-linejoin:round; stroke-width:4; stroke-opacity:1; fill:none" points="147.478,1486.45 147.478,47.2441 "/>
<polyline clip-path="url(#clip760)" style="stroke:#000000; stroke-linecap:round; stroke-linejoin:round; stroke-width:4; stroke-opacity:1; fill:none" points="147.478,1242.8 166.376,1242.8 "/>
<polyline clip-path="url(#clip760)" style="stroke:#000000; stroke-linecap:round; stroke-linejoin:round; stroke-width:4; stroke-opacity:1; fill:none" points="147.478,847.33 166.376,847.33 "/>
<polyline clip-path="url(#clip760)" style="stroke:#000000; stroke-linecap:round; stroke-linejoin:round; stroke-width:4; stroke-opacity:1; fill:none" points="147.478,451.865 166.376,451.865 "/>
<polyline clip-path="url(#clip760)" style="stroke:#000000; stroke-linecap:round; stroke-linejoin:round; stroke-width:4; stroke-opacity:1; fill:none" points="147.478,56.3994 166.376,56.3994 "/>
<path clip-path="url(#clip760)" d="M50.9921 1243.25 L80.6679 1243.25 L80.6679 1247.18 L50.9921 1247.18 L50.9921 1243.25 Z" fill="#000000" fill-rule="nonzero" fill-opacity="1" /><path clip-path="url(#clip760)" d="M91.5706 1256.14 L99.2095 1256.14 L99.2095 1229.77 L90.8993 1231.44 L90.8993 1227.18 L99.1632 1225.52 L103.839 1225.52 L103.839 1256.14 L111.478 1256.14 L111.478 1260.08 L91.5706 1260.08 L91.5706 1256.14 Z" fill="#000000" fill-rule="nonzero" fill-opacity="1" /><path clip-path="url(#clip760)" d="M99.5335 833.129 Q95.9224 833.129 94.0937 836.693 Q92.2882 840.235 92.2882 847.365 Q92.2882 854.471 94.0937 858.036 Q95.9224 861.578 99.5335 861.578 Q103.168 861.578 104.973 858.036 Q106.802 854.471 106.802 847.365 Q106.802 840.235 104.973 836.693 Q103.168 833.129 99.5335 833.129 M99.5335 829.425 Q105.344 829.425 108.399 834.031 Q111.478 838.615 111.478 847.365 Q111.478 856.091 108.399 860.698 Q105.344 865.281 99.5335 865.281 Q93.7234 865.281 90.6447 860.698 Q87.5892 856.091 87.5892 847.365 Q87.5892 838.615 90.6447 834.031 Q93.7234 829.425 99.5335 829.425 Z" fill="#000000" fill-rule="nonzero" fill-opacity="1" /><path clip-path="url(#clip760)" d="M91.5706 465.21 L99.2095 465.21 L99.2095 438.844 L90.8993 440.511 L90.8993 436.251 L99.1632 434.585 L103.839 434.585 L103.839 465.21 L111.478 465.21 L111.478 469.145 L91.5706 469.145 L91.5706 465.21 Z" fill="#000000" fill-rule="nonzero" fill-opacity="1" /><path clip-path="url(#clip760)" d="M95.1586 69.7443 L111.478 69.7443 L111.478 73.6794 L89.5336 73.6794 L89.5336 69.7443 Q92.1956 66.9897 96.7789 62.36 Q101.385 57.7073 102.566 56.3647 Q104.811 53.8416 105.691 52.1055 Q106.594 50.3462 106.594 48.6564 Q106.594 45.9018 104.649 44.1657 Q102.728 42.4296 99.6261 42.4296 Q97.4271 42.4296 94.9734 43.1935 Q92.5428 43.9574 89.7651 45.5083 L89.7651 40.7861 Q92.5891 39.6518 95.0428 39.0731 Q97.4965 38.4944 99.5335 38.4944 Q104.904 38.4944 108.098 41.1796 Q111.293 43.8648 111.293 48.3555 Q111.293 50.4851 110.483 52.4064 Q109.696 54.3045 107.589 56.8971 Q107.01 57.5684 103.909 60.786 Q100.807 63.9804 95.1586 69.7443 Z" fill="#000000" fill-rule="nonzero" fill-opacity="1" /><circle clip-path="url(#clip762)" cx="1637.42" cy="1445.72" r="14.4" fill="#009af9" fill-rule="evenodd" fill-opacity="0.5" stroke="#000000" stroke-opacity="0.5" stroke-width="3.2"/>
<circle clip-path="url(#clip762)" cx="1360.61" cy="1005.59" r="14.4" fill="#009af9" fill-rule="evenodd" fill-opacity="0.5" stroke="#000000" stroke-opacity="0.5" stroke-width="3.2"/>
<circle clip-path="url(#clip762)" cx="867.19" cy="674.633" r="14.4" fill="#009af9" fill-rule="evenodd" fill-opacity="0.5" stroke="#000000" stroke-opacity="0.5" stroke-width="3.2"/>
<circle clip-path="url(#clip762)" cx="990.586" cy="840.244" r="14.4" fill="#009af9" fill-rule="evenodd" fill-opacity="0.5" stroke="#000000" stroke-opacity="0.5" stroke-width="3.2"/>
<circle clip-path="url(#clip762)" cx="1368.6" cy="1028.39" r="14.4" fill="#009af9" fill-rule="evenodd" fill-opacity="0.5" stroke="#000000" stroke-opacity="0.5" stroke-width="3.2"/>
<circle clip-path="url(#clip762)" cx="1162.94" cy="287.489" r="14.4" fill="#009af9" fill-rule="evenodd" fill-opacity="0.5" stroke="#000000" stroke-opacity="0.5" stroke-width="3.2"/>
<circle clip-path="url(#clip762)" cx="209.891" cy="324.812" r="14.4" fill="#009af9" fill-rule="evenodd" fill-opacity="0.5" stroke="#000000" stroke-opacity="0.5" stroke-width="3.2"/>
<circle clip-path="url(#clip762)" cx="1030.17" cy="87.9763" r="14.4" fill="#009af9" fill-rule="evenodd" fill-opacity="0.5" stroke="#000000" stroke-opacity="0.5" stroke-width="3.2"/>
<circle clip-path="url(#clip762)" cx="1267.9" cy="898.262" r="14.4" fill="#009af9" fill-rule="evenodd" fill-opacity="0.5" stroke="#000000" stroke-opacity="0.5" stroke-width="3.2"/>
<circle clip-path="url(#clip762)" cx="733.098" cy="1260.76" r="14.4" fill="#009af9" fill-rule="evenodd" fill-opacity="0.5" stroke="#000000" stroke-opacity="0.5" stroke-width="3.2"/>
<circle clip-path="url(#clip762)" cx="1034.13" cy="694.111" r="14.4" fill="#009af9" fill-rule="evenodd" fill-opacity="0.5" stroke="#000000" stroke-opacity="0.5" stroke-width="3.2"/>
<circle clip-path="url(#clip762)" cx="1540.61" cy="615.925" r="14.4" fill="#009af9" fill-rule="evenodd" fill-opacity="0.5" stroke="#000000" stroke-opacity="0.5" stroke-width="3.2"/>
<circle clip-path="url(#clip762)" cx="1204.46" cy="1031.18" r="14.4" fill="#009af9" fill-rule="evenodd" fill-opacity="0.5" stroke="#000000" stroke-opacity="0.5" stroke-width="3.2"/>
<circle clip-path="url(#clip762)" cx="1199.84" cy="428.724" r="14.4" fill="#009af9" fill-rule="evenodd" fill-opacity="0.5" stroke="#000000" stroke-opacity="0.5" stroke-width="3.2"/>
<circle clip-path="url(#clip762)" cx="1079.74" cy="701.795" r="14.4" fill="#009af9" fill-rule="evenodd" fill-opacity="0.5" stroke="#000000" stroke-opacity="0.5" stroke-width="3.2"/>
<circle clip-path="url(#clip762)" cx="1582.37" cy="809.591" r="14.4" fill="#009af9" fill-rule="evenodd" fill-opacity="0.5" stroke="#000000" stroke-opacity="0.5" stroke-width="3.2"/>
<circle clip-path="url(#clip762)" cx="1233.58" cy="682.087" r="14.4" fill="#009af9" fill-rule="evenodd" fill-opacity="0.5" stroke="#000000" stroke-opacity="0.5" stroke-width="3.2"/>
<circle clip-path="url(#clip762)" cx="2290.34" cy="954.036" r="14.4" fill="#009af9" fill-rule="evenodd" fill-opacity="0.5" stroke="#000000" stroke-opacity="0.5" stroke-width="3.2"/>
<circle clip-path="url(#clip762)" cx="1001.68" cy="922.755" r="14.4" fill="#009af9" fill-rule="evenodd" fill-opacity="0.5" stroke="#000000" stroke-opacity="0.5" stroke-width="3.2"/>
<circle clip-path="url(#clip762)" cx="1223.34" cy="828.778" r="14.4" fill="#009af9" fill-rule="evenodd" fill-opacity="0.5" stroke="#000000" stroke-opacity="0.5" stroke-width="3.2"/>
<circle clip-path="url(#clip762)" cx="1058.08" cy="1142.87" r="14.4" fill="#009af9" fill-rule="evenodd" fill-opacity="0.5" stroke="#000000" stroke-opacity="0.5" stroke-width="3.2"/>
<circle clip-path="url(#clip762)" cx="1117.88" cy="1078.21" r="14.4" fill="#009af9" fill-rule="evenodd" fill-opacity="0.5" stroke="#000000" stroke-opacity="0.5" stroke-width="3.2"/>
<circle clip-path="url(#clip762)" cx="1547.66" cy="577.587" r="14.4" fill="#009af9" fill-rule="evenodd" fill-opacity="0.5" stroke="#000000" stroke-opacity="0.5" stroke-width="3.2"/>
<circle clip-path="url(#clip762)" cx="1210.73" cy="822.746" r="14.4" fill="#009af9" fill-rule="evenodd" fill-opacity="0.5" stroke="#000000" stroke-opacity="0.5" stroke-width="3.2"/>
<circle clip-path="url(#clip762)" cx="1073.97" cy="1399.99" r="14.4" fill="#009af9" fill-rule="evenodd" fill-opacity="0.5" stroke="#000000" stroke-opacity="0.5" stroke-width="3.2"/>
<circle clip-path="url(#clip762)" cx="2111.78" cy="1239.3" r="14.4" fill="#009af9" fill-rule="evenodd" fill-opacity="0.5" stroke="#000000" stroke-opacity="0.5" stroke-width="3.2"/>
<circle clip-path="url(#clip762)" cx="1395.54" cy="1017.57" r="14.4" fill="#009af9" fill-rule="evenodd" fill-opacity="0.5" stroke="#000000" stroke-opacity="0.5" stroke-width="3.2"/>
<circle clip-path="url(#clip762)" cx="1305.17" cy="846.209" r="14.4" fill="#009af9" fill-rule="evenodd" fill-opacity="0.5" stroke="#000000" stroke-opacity="0.5" stroke-width="3.2"/>
<circle clip-path="url(#clip762)" cx="1198.56" cy="614.036" r="14.4" fill="#009af9" fill-rule="evenodd" fill-opacity="0.5" stroke="#000000" stroke-opacity="0.5" stroke-width="3.2"/>
<circle clip-path="url(#clip762)" cx="1094.69" cy="1253.51" r="14.4" fill="#009af9" fill-rule="evenodd" fill-opacity="0.5" stroke="#000000" stroke-opacity="0.5" stroke-width="3.2"/>
<path clip-path="url(#clip762)" d="M209.891 324.812 L733.098 1260.76 L1073.97 1399.99 L1637.42 1445.72 L2111.78 1239.3 L2290.34 954.036 L1030.17 87.9763 L209.891 324.812 L209.891 324.812  Z" fill="#e26f46" fill-rule="evenodd" fill-opacity="0.2"/>
<polyline clip-path="url(#clip762)" style="stroke:#000000; stroke-linecap:round; stroke-linejoin:round; stroke-width:4; stroke-opacity:0.2; fill:none" points="209.891,324.812 733.098,1260.76 1073.97,1399.99 1637.42,1445.72 2111.78,1239.3 2290.34,954.036 1030.17,87.9763 209.891,324.812 "/>
</svg>
