<?xml version="1.0" encoding="utf-8"?>
<svg xmlns="http://www.w3.org/2000/svg" xmlns:xlink="http://www.w3.org/1999/xlink" width="600" height="400" viewBox="0 0 2400 1600">
<defs>
  <clipPath id="clip620">
    <rect x="0" y="0" width="2400" height="1600"/>
  </clipPath>
</defs>
<path clip-path="url(#clip620)" d="M0 1600 L2400 1600 L2400 0 L0 0  Z" fill="#ffffff" fill-rule="evenodd" fill-opacity="1"/>
<defs>
  <clipPath id="clip621">
    <rect x="147" y="47" width="2206" height="1440"/>
  </clipPath>
</defs>
<path clip-path="url(#clip620)" d="M147.478 1486.45 L2352.76 1486.45 L2352.76 47.2441 L147.478 47.2441  Z" fill="#ffffff" fill-rule="evenodd" fill-opacity="1"/>
<polyline clip-path="url(#clip621)" style="stroke:#000000; stroke-linecap:round; stroke-linejoin:round; stroke-width:2; stroke-opacity:0.1; fill:none" points="378.584,1486.45 378.584,47.2441 "/>
<polyline clip-path="url(#clip621)" style="stroke:#000000; stroke-linecap:round; stroke-linejoin:round; stroke-width:2; stroke-opacity:0.1; fill:none" points="751.697,1486.45 751.697,47.2441 "/>
<polyline clip-path="url(#clip621)" style="stroke:#000000; stroke-linecap:round; stroke-linejoin:round; stroke-width:2; stroke-opacity:0.1; fill:none" points="1124.81,1486.45 1124.81,47.2441 "/>
<polyline clip-path="url(#clip621)" style="stroke:#000000; stroke-linecap:round; stroke-linejoin:round; stroke-width:2; stroke-opacity:0.1; fill:none" points="1497.92,1486.45 1497.92,47.2441 "/>
<polyline clip-path="url(#clip621)" style="stroke:#000000; stroke-linecap:round; stroke-linejoin:round; stroke-width:2; stroke-opacity:0.1; fill:none" points="1871.04,1486.45 1871.04,47.2441 "/>
<polyline clip-path="url(#clip621)" style="stroke:#000000; stroke-linecap:round; stroke-linejoin:round; stroke-width:2; stroke-opacity:0.1; fill:none" points="2244.15,1486.45 2244.15,47.2441 "/>
<polyline clip-path="url(#clip621)" style="stroke:#000000; stroke-linecap:round; stroke-linejoin:round; stroke-width:2; stroke-opacity:0.1; fill:none" points="147.478,1211.04 2352.76,1211.04 "/>
<polyline clip-path="url(#clip621)" style="stroke:#000000; stroke-linecap:round; stroke-linejoin:round; stroke-width:2; stroke-opacity:0.1; fill:none" points="147.478,923.317 2352.76,923.317 "/>
<polyline clip-path="url(#clip621)" style="stroke:#000000; stroke-linecap:round; stroke-linejoin:round; stroke-width:2; stroke-opacity:0.1; fill:none" points="147.478,635.596 2352.76,635.596 "/>
<polyline clip-path="url(#clip621)" style="stroke:#000000; stroke-linecap:round; stroke-linejoin:round; stroke-width:2; stroke-opacity:0.1; fill:none" points="147.478,347.874 2352.76,347.874 "/>
<polyline clip-path="url(#clip621)" style="stroke:#000000; stroke-linecap:round; stroke-linejoin:round; stroke-width:2; stroke-opacity:0.1; fill:none" points="147.478,60.1516 2352.76,60.1516 "/>
<polyline clip-path="url(#clip620)" style="stroke:#000000; stroke-linecap:round; stroke-linejoin:round; stroke-width:4; stroke-opacity:1; fill:none" points="147.478,1486.45 2352.76,1486.45 "/>
<polyline clip-path="url(#clip620)" style="stroke:#000000; stroke-linecap:round; stroke-linejoin:round; stroke-width:4; stroke-opacity:1; fill:none" points="378.584,1486.45 378.584,1467.55 "/>
<polyline clip-path="url(#clip620)" style="stroke:#000000; stroke-linecap:round; stroke-linejoin:round; stroke-width:4; stroke-opacity:1; fill:none" points="751.697,1486.45 751.697,1467.55 "/>
<polyline clip-path="url(#clip620)" style="stroke:#000000; stroke-linecap:round; stroke-linejoin:round; stroke-width:4; stroke-opacity:1; fill:none" points="1124.81,1486.45 1124.81,1467.55 "/>
<polyline clip-path="url(#clip620)" style="stroke:#000000; stroke-linecap:round; stroke-linejoin:round; stroke-width:4; stroke-opacity:1; fill:none" points="1497.92,1486.45 1497.92,1467.55 "/>
<polyline clip-path="url(#clip620)" style="stroke:#000000; stroke-linecap:round; stroke-linejoin:round; stroke-width:4; stroke-opacity:1; fill:none" points="1871.04,1486.45 1871.04,1467.55 "/>
<polyline clip-path="url(#clip620)" style="stroke:#000000; stroke-linecap:round; stroke-linejoin:round; stroke-width:4; stroke-opacity:1; fill:none" points="2244.15,1486.45 2244.15,1467.55 "/>
<path clip-path="url(#clip620)" d="M348.526 1532.02 L378.202 1532.02 L378.202 1535.95 L348.526 1535.95 L348.526 1532.02 Z" fill="#000000" fill-rule="nonzero" fill-opacity="1" /><path clip-path="url(#clip620)" d="M392.322 1544.91 L408.642 1544.91 L408.642 1548.85 L386.697 1548.85 L386.697 1544.91 Q389.359 1542.16 393.943 1537.53 Q398.549 1532.88 399.73 1531.53 Q401.975 1529.01 402.855 1527.27 Q403.757 1525.51 403.757 1523.82 Q403.757 1521.07 401.813 1519.33 Q399.892 1517.6 396.79 1517.6 Q394.591 1517.6 392.137 1518.36 Q389.706 1519.13 386.929 1520.68 L386.929 1515.95 Q389.753 1514.82 392.206 1514.24 Q394.66 1513.66 396.697 1513.66 Q402.067 1513.66 405.262 1516.35 Q408.456 1519.03 408.456 1523.52 Q408.456 1525.65 407.646 1527.57 Q406.859 1529.47 404.753 1532.07 Q404.174 1532.74 401.072 1535.95 Q397.97 1539.15 392.322 1544.91 Z" fill="#000000" fill-rule="nonzero" fill-opacity="1" /><path clip-path="url(#clip620)" d="M721.454 1532.02 L751.13 1532.02 L751.13 1535.95 L721.454 1535.95 L721.454 1532.02 Z" fill="#000000" fill-rule="nonzero" fill-opacity="1" /><path clip-path="url(#clip620)" d="M762.032 1544.91 L769.671 1544.91 L769.671 1518.55 L761.361 1520.21 L761.361 1515.95 L769.625 1514.29 L774.301 1514.29 L774.301 1544.91 L781.94 1544.91 L781.94 1548.85 L762.032 1548.85 L762.032 1544.91 Z" fill="#000000" fill-rule="nonzero" fill-opacity="1" /><path clip-path="url(#clip620)" d="M1124.81 1517.37 Q1121.2 1517.37 1119.37 1520.93 Q1117.56 1524.47 1117.56 1531.6 Q1117.56 1538.71 1119.37 1542.27 Q1121.2 1545.82 1124.81 1545.82 Q1128.44 1545.82 1130.25 1542.27 Q1132.08 1538.71 1132.08 1531.6 Q1132.08 1524.47 1130.25 1520.93 Q1128.44 1517.37 1124.81 1517.37 M1124.81 1513.66 Q1130.62 1513.66 1133.68 1518.27 Q1136.75 1522.85 1136.75 1531.6 Q1136.75 1540.33 1133.68 1544.94 Q1130.62 1549.52 1124.81 1549.52 Q1119 1549.52 1115.92 1544.94 Q1112.87 1540.33 1112.87 1531.6 Q1112.87 1522.85 1115.92 1518.27 Q1119 1513.66 1124.81 1513.66 Z" fill="#000000" fill-rule="nonzero" fill-opacity="1" /><path clip-path="url(#clip620)" d="M1488.3 1544.91 L1495.94 1544.91 L1495.94 1518.55 L1487.63 1520.21 L1487.63 1515.95 L1495.9 1514.29 L1500.57 1514.29 L1500.57 1544.91 L1508.21 1544.91 L1508.21 1548.85 L1488.3 1548.85 L1488.3 1544.91 Z" fill="#000000" fill-rule="nonzero" fill-opacity="1" /><path clip-path="url(#clip620)" d="M1865.69 1544.91 L1882.01 1544.91 L1882.01 1548.85 L1860.06 1548.85 L1860.06 1544.91 Q1862.73 1542.16 1867.31 1537.53 Q1871.91 1532.88 1873.1 1531.53 Q1875.34 1529.01 1876.22 1527.27 Q1877.12 1525.51 1877.12 1523.82 Q1877.12 1521.07 1875.18 1519.33 Q1873.26 1517.6 1870.16 1517.6 Q1867.96 1517.6 1865.5 1518.36 Q1863.07 1519.13 1860.29 1520.68 L1860.29 1515.95 Q1863.12 1514.82 1865.57 1514.24 Q1868.03 1513.66 1870.06 1513.66 Q1875.43 1513.66 1878.63 1516.35 Q1881.82 1519.03 1881.82 1523.52 Q1881.82 1525.65 1881.01 1527.57 Q1880.23 1529.47 1878.12 1532.07 Q1877.54 1532.74 1874.44 1535.95 Q1871.34 1539.15 1865.69 1544.91 Z" fill="#000000" fill-rule="nonzero" fill-opacity="1" /><path clip-path="url(#clip620)" d="M2248.4 1530.21 Q2251.75 1530.93 2253.63 1533.2 Q2255.53 1535.47 2255.53 1538.8 Q2255.53 1543.92 2252.01 1546.72 Q2248.49 1549.52 2242.01 1549.52 Q2239.83 1549.52 2237.52 1549.08 Q2235.22 1548.66 2232.77 1547.81 L2232.77 1543.29 Q2234.72 1544.43 2237.03 1545.01 Q2239.34 1545.58 2241.87 1545.58 Q2246.27 1545.58 2248.56 1543.85 Q2250.87 1542.11 2250.87 1538.8 Q2250.87 1535.75 2248.72 1534.03 Q2246.59 1532.3 2242.77 1532.3 L2238.74 1532.3 L2238.74 1528.45 L2242.96 1528.45 Q2246.41 1528.45 2248.23 1527.09 Q2250.06 1525.7 2250.06 1523.11 Q2250.06 1520.45 2248.16 1519.03 Q2246.29 1517.6 2242.77 1517.6 Q2240.85 1517.6 2238.65 1518.01 Q2236.45 1518.43 2233.81 1519.31 L2233.81 1515.14 Q2236.47 1514.4 2238.79 1514.03 Q2241.13 1513.66 2243.19 1513.66 Q2248.51 1513.66 2251.61 1516.09 Q2254.72 1518.5 2254.72 1522.62 Q2254.72 1525.49 2253.07 1527.48 Q2251.43 1529.45 2248.4 1530.21 Z" fill="#000000" fill-rule="nonzero" fill-opacity="1" /><polyline clip-path="url(#clip620)" style="stroke:#000000; stroke-linecap:round; stroke-linejoin:round; stroke-width:4; stroke-opacity:1; fill:none" points="147.478,1486.45 147.478,47.2441 "/>
<polyline clip-path="url(#clip620)" style="stroke:#000000; stroke-linecap:round; stroke-linejoin:round; stroke-width:4; stroke-opacity:1; fill:none" points="147.478,1211.04 166.376,1211.04 "/>
<polyline clip-path="url(#clip620)" style="stroke:#000000; stroke-linecap:round; stroke-linejoin:round; stroke-width:4; stroke-opacity:1; fill:none" points="147.478,923.317 166.376,923.317 "/>
<polyline clip-path="url(#clip620)" style="stroke:#000000; stroke-linecap:round; stroke-linejoin:round; stroke-width:4; stroke-opacity:1; fill:none" points="147.478,635.596 166.376,635.596 "/>
<polyline clip-path="url(#clip620)" style="stroke:#000000; stroke-linecap:round; stroke-linejoin:round; stroke-width:4; stroke-opacity:1; fill:none" points="147.478,347.874 166.376,347.874 "/>
<polyline clip-path="url(#clip620)" style="stroke:#000000; stroke-linecap:round; stroke-linejoin:round; stroke-width:4; stroke-opacity:1; fill:none" points="147.478,60.1516 166.376,60.1516 "/>
<path clip-path="url(#clip620)" d="M50.9921 1211.49 L80.6679 1211.49 L80.6679 1215.43 L50.9921 1215.43 L50.9921 1211.49 Z" fill="#000000" fill-rule="nonzero" fill-opacity="1" /><path clip-path="url(#clip620)" d="M91.5706 1224.38 L99.2095 1224.38 L99.2095 1198.02 L90.8993 1199.69 L90.8993 1195.43 L99.1632 1193.76 L103.839 1193.76 L103.839 1224.38 L111.478 1224.38 L111.478 1228.32 L91.5706 1228.32 L91.5706 1224.38 Z" fill="#000000" fill-rule="nonzero" fill-opacity="1" /><path clip-path="url(#clip620)" d="M99.5335 909.116 Q95.9224 909.116 94.0937 912.681 Q92.2882 916.223 92.2882 923.352 Q92.2882 930.459 94.0937 934.023 Q95.9224 937.565 99.5335 937.565 Q103.168 937.565 104.973 934.023 Q106.802 930.459 106.802 923.352 Q106.802 916.223 104.973 912.681 Q103.168 909.116 99.5335 909.116 M99.5335 905.412 Q105.344 905.412 108.399 910.019 Q111.478 914.602 111.478 923.352 Q111.478 932.079 108.399 936.685 Q105.344 941.269 99.5335 941.269 Q93.7234 941.269 90.6447 936.685 Q87.5892 932.079 87.5892 923.352 Q87.5892 914.602 90.6447 910.019 Q93.7234 905.412 99.5335 905.412 Z" fill="#000000" fill-rule="nonzero" fill-opacity="1" /><path clip-path="url(#clip620)" d="M91.5706 648.94 L99.2095 648.94 L99.2095 622.575 L90.8993 624.241 L90.8993 619.982 L99.1632 618.316 L103.839 618.316 L103.839 648.94 L111.478 648.94 L111.478 652.876 L91.5706 652.876 L91.5706 648.94 Z" fill="#000000" fill-rule="nonzero" fill-opacity="1" /><path clip-path="url(#clip620)" d="M95.1586 361.218 L111.478 361.218 L111.478 365.154 L89.5336 365.154 L89.5336 361.218 Q92.1956 358.464 96.7789 353.834 Q101.385 349.181 102.566 347.839 Q104.811 345.316 105.691 343.58 Q106.594 341.82 106.594 340.131 Q106.594 337.376 104.649 335.64 Q102.728 333.904 99.6261 333.904 Q97.4271 333.904 94.9734 334.668 Q92.5428 335.431 89.7651 336.982 L89.7651 332.26 Q92.5891 331.126 95.0428 330.547 Q97.4965 329.969 99.5335 329.969 Q104.904 329.969 108.098 332.654 Q111.293 335.339 111.293 339.83 Q111.293 341.959 110.483 343.881 Q109.696 345.779 107.589 348.371 Q107.01 349.043 103.909 352.26 Q100.807 355.455 95.1586 361.218 Z" fill="#000000" fill-rule="nonzero" fill-opacity="1" /><path clip-path="url(#clip620)" d="M104.348 58.7974 Q107.705 59.515 109.58 61.7835 Q111.478 64.052 111.478 67.3854 Q111.478 72.5011 107.959 75.302 Q104.441 78.1029 97.9595 78.1029 Q95.7836 78.1029 93.4688 77.6631 Q91.1771 77.2464 88.7234 76.3899 L88.7234 71.8761 Q90.6678 73.0103 92.9826 73.589 Q95.2974 74.1677 97.8206 74.1677 Q102.219 74.1677 104.51 72.4316 Q106.825 70.6955 106.825 67.3854 Q106.825 64.3298 104.672 62.6169 Q102.543 60.8808 98.7234 60.8808 L94.6956 60.8808 L94.6956 57.0382 L98.9085 57.0382 Q102.358 57.0382 104.186 55.6725 Q106.015 54.2836 106.015 51.691 Q106.015 49.029 104.117 47.6169 Q102.242 46.1818 98.7234 46.1818 Q96.8021 46.1818 94.603 46.5984 Q92.4039 47.0151 89.7651 47.8947 L89.7651 43.7281 Q92.4271 42.9873 94.7419 42.617 Q97.0798 42.2466 99.14 42.2466 Q104.464 42.2466 107.566 44.6771 Q110.668 47.0845 110.668 51.2049 Q110.668 54.0752 109.024 56.066 Q107.381 58.0336 104.348 58.7974 Z" fill="#000000" fill-rule="nonzero" fill-opacity="1" /><circle clip-path="url(#clip621)" cx="607.825" cy="522.912" r="14.4" fill="#009af9" fill-rule="evenodd" fill-opacity="0.5" stroke="#000000" stroke-opacity="0.5" stroke-width="3.2"/>
<circle clip-path="url(#clip621)" cx="1203.78" cy="977.695" r="14.4" fill="#009af9" fill-rule="evenodd" fill-opacity="0.5" stroke="#000000" stroke-opacity="0.5" stroke-width="3.2"/>
<circle clip-path="url(#clip621)" cx="1134.89" cy="1241.14" r="14.4" fill="#009af9" fill-rule="evenodd" fill-opacity="0.5" stroke="#000000" stroke-opacity="0.5" stroke-width="3.2"/>
<circle clip-path="url(#clip621)" cx="1434.47" cy="865.405" r="14.4" fill="#009af9" fill-rule="evenodd" fill-opacity="0.5" stroke="#000000" stroke-opacity="0.5" stroke-width="3.2"/>
<circle clip-path="url(#clip621)" cx="1559.09" cy="692.793" r="14.4" fill="#009af9" fill-rule="evenodd" fill-opacity="0.5" stroke="#000000" stroke-opacity="0.5" stroke-width="3.2"/>
<circle clip-path="url(#clip621)" cx="1102.79" cy="1165.74" r="14.4" fill="#009af9" fill-rule="evenodd" fill-opacity="0.5" stroke="#000000" stroke-opacity="0.5" stroke-width="3.2"/>
<circle clip-path="url(#clip621)" cx="1260.78" cy="785.709" r="14.4" fill="#009af9" fill-rule="evenodd" fill-opacity="0.5" stroke="#000000" stroke-opacity="0.5" stroke-width="3.2"/>
<circle clip-path="url(#clip621)" cx="491.192" cy="1287.09" r="14.4" fill="#009af9" fill-rule="evenodd" fill-opacity="0.5" stroke="#000000" stroke-opacity="0.5" stroke-width="3.2"/>
<circle clip-path="url(#clip621)" cx="376.747" cy="1230.15" r="14.4" fill="#009af9" fill-rule="evenodd" fill-opacity="0.5" stroke="#000000" stroke-opacity="0.5" stroke-width="3.2"/>
<circle clip-path="url(#clip621)" cx="938.888" cy="559.979" r="14.4" fill="#009af9" fill-rule="evenodd" fill-opacity="0.5" stroke="#000000" stroke-opacity="0.5" stroke-width="3.2"/>
<circle clip-path="url(#clip621)" cx="1343.89" cy="1445.72" r="14.4" fill="#009af9" fill-rule="evenodd" fill-opacity="0.5" stroke="#000000" stroke-opacity="0.5" stroke-width="3.2"/>
<circle clip-path="url(#clip621)" cx="1133.04" cy="382.358" r="14.4" fill="#009af9" fill-rule="evenodd" fill-opacity="0.5" stroke="#000000" stroke-opacity="0.5" stroke-width="3.2"/>
<circle clip-path="url(#clip621)" cx="1679.57" cy="586.687" r="14.4" fill="#009af9" fill-rule="evenodd" fill-opacity="0.5" stroke="#000000" stroke-opacity="0.5" stroke-width="3.2"/>
<circle clip-path="url(#clip621)" cx="1510.71" cy="655.959" r="14.4" fill="#009af9" fill-rule="evenodd" fill-opacity="0.5" stroke="#000000" stroke-opacity="0.5" stroke-width="3.2"/>
<circle clip-path="url(#clip621)" cx="2290.34" cy="813.592" r="14.4" fill="#009af9" fill-rule="evenodd" fill-opacity="0.5" stroke="#000000" stroke-opacity="0.5" stroke-width="3.2"/>
<circle clip-path="url(#clip621)" cx="1309.78" cy="832.669" r="14.4" fill="#009af9" fill-rule="evenodd" fill-opacity="0.5" stroke="#000000" stroke-opacity="0.5" stroke-width="3.2"/>
<circle clip-path="url(#clip621)" cx="448.009" cy="1355.69" r="14.4" fill="#009af9" fill-rule="evenodd" fill-opacity="0.5" stroke="#000000" stroke-opacity="0.5" stroke-width="3.2"/>
<circle clip-path="url(#clip621)" cx="629.567" cy="1125.27" r="14.4" fill="#009af9" fill-rule="evenodd" fill-opacity="0.5" stroke="#000000" stroke-opacity="0.5" stroke-width="3.2"/>
<circle clip-path="url(#clip621)" cx="209.891" cy="1072.72" r="14.4" fill="#009af9" fill-rule="evenodd" fill-opacity="0.5" stroke="#000000" stroke-opacity="0.5" stroke-width="3.2"/>
<circle clip-path="url(#clip621)" cx="837.124" cy="1356.39" r="14.4" fill="#009af9" fill-rule="evenodd" fill-opacity="0.5" stroke="#000000" stroke-opacity="0.5" stroke-width="3.2"/>
<circle clip-path="url(#clip621)" cx="1376.23" cy="766.421" r="14.4" fill="#009af9" fill-rule="evenodd" fill-opacity="0.5" stroke="#000000" stroke-opacity="0.5" stroke-width="3.2"/>
<circle clip-path="url(#clip621)" cx="1009.11" cy="1210.74" r="14.4" fill="#009af9" fill-rule="evenodd" fill-opacity="0.5" stroke="#000000" stroke-opacity="0.5" stroke-width="3.2"/>
<circle clip-path="url(#clip621)" cx="710.941" cy="605.47" r="14.4" fill="#009af9" fill-rule="evenodd" fill-opacity="0.5" stroke="#000000" stroke-opacity="0.5" stroke-width="3.2"/>
<circle clip-path="url(#clip621)" cx="1142.99" cy="87.9763" r="14.4" fill="#009af9" fill-rule="evenodd" fill-opacity="0.5" stroke="#000000" stroke-opacity="0.5" stroke-width="3.2"/>
<circle clip-path="url(#clip621)" cx="1508.61" cy="1019.35" r="14.4" fill="#009af9" fill-rule="evenodd" fill-opacity="0.5" stroke="#000000" stroke-opacity="0.5" stroke-width="3.2"/>
<circle clip-path="url(#clip621)" cx="1303.04" cy="595.805" r="14.4" fill="#009af9" fill-rule="evenodd" fill-opacity="0.5" stroke="#000000" stroke-opacity="0.5" stroke-width="3.2"/>
<circle clip-path="url(#clip621)" cx="1437.34" cy="808.742" r="14.4" fill="#009af9" fill-rule="evenodd" fill-opacity="0.5" stroke="#000000" stroke-opacity="0.5" stroke-width="3.2"/>
<circle clip-path="url(#clip621)" cx="1550.73" cy="902.06" r="14.4" fill="#009af9" fill-rule="evenodd" fill-opacity="0.5" stroke="#000000" stroke-opacity="0.5" stroke-width="3.2"/>
<circle clip-path="url(#clip621)" cx="817.253" cy="548.856" r="14.4" fill="#009af9" fill-rule="evenodd" fill-opacity="0.5" stroke="#000000" stroke-opacity="0.5" stroke-width="3.2"/>
<circle clip-path="url(#clip621)" cx="1496.45" cy="1371.22" r="14.4" fill="#009af9" fill-rule="evenodd" fill-opacity="0.5" stroke="#000000" stroke-opacity="0.5" stroke-width="3.2"/>
<path clip-path="url(#clip621)" d="M209.891 1072.72 L448.009 1355.69 L1343.89 1445.72 L1496.45 1371.22 L2290.34 813.592 L1142.99 87.9763 L607.825 522.912 L209.891 1072.72 L209.891 1072.72  Z" fill="#e26f46" fill-rule="evenodd" fill-opacity="0.2"/>
<polyline clip-path="url(#clip621)" style="stroke:#000000; stroke-linecap:round; stroke-linejoin:round; stroke-width:4; stroke-opacity:0.2; fill:none" points="209.891,1072.72 448.009,1355.69 1343.89,1445.72 1496.45,1371.22 2290.34,813.592 1142.99,87.9763 607.825,522.912 209.891,1072.72 "/>
</svg>
