<?xml version="1.0" encoding="utf-8"?>
<svg xmlns="http://www.w3.org/2000/svg" xmlns:xlink="http://www.w3.org/1999/xlink" width="600" height="400" viewBox="0 0 2400 1600">
<defs>
  <clipPath id="clip980">
    <rect x="0" y="0" width="2400" height="1600"/>
  </clipPath>
</defs>
<path clip-path="url(#clip980)" d="M0 1600 L2400 1600 L2400 0 L0 0  Z" fill="#ffffff" fill-rule="evenodd" fill-opacity="1"/>
<defs>
  <clipPath id="clip981">
    <rect x="147" y="47" width="2206" height="1440"/>
  </clipPath>
</defs>
<path clip-path="url(#clip980)" d="M147.478 1486.45 L2352.76 1486.45 L2352.76 47.2441 L147.478 47.2441  Z" fill="#ffffff" fill-rule="evenodd" fill-opacity="1"/>
<polyline clip-path="url(#clip981)" style="stroke:#000000; stroke-linecap:round; stroke-linejoin:round; stroke-width:2; stroke-opacity:0.1; fill:none" points="245.12,1486.45 245.12,47.2441 "/>
<polyline clip-path="url(#clip981)" style="stroke:#000000; stroke-linecap:round; stroke-linejoin:round; stroke-width:2; stroke-opacity:0.1; fill:none" points="669.425,1486.45 669.425,47.2441 "/>
<polyline clip-path="url(#clip981)" style="stroke:#000000; stroke-linecap:round; stroke-linejoin:round; stroke-width:2; stroke-opacity:0.1; fill:none" points="1093.73,1486.45 1093.73,47.2441 "/>
<polyline clip-path="url(#clip981)" style="stroke:#000000; stroke-linecap:round; stroke-linejoin:round; stroke-width:2; stroke-opacity:0.1; fill:none" points="1518.04,1486.45 1518.04,47.2441 "/>
<polyline clip-path="url(#clip981)" style="stroke:#000000; stroke-linecap:round; stroke-linejoin:round; stroke-width:2; stroke-opacity:0.1; fill:none" points="1942.34,1486.45 1942.34,47.2441 "/>
<polyline clip-path="url(#clip981)" style="stroke:#000000; stroke-linecap:round; stroke-linejoin:round; stroke-width:2; stroke-opacity:0.1; fill:none" points="147.478,1220.98 2352.76,1220.98 "/>
<polyline clip-path="url(#clip981)" style="stroke:#000000; stroke-linecap:round; stroke-linejoin:round; stroke-width:2; stroke-opacity:0.1; fill:none" points="147.478,929.251 2352.76,929.251 "/>
<polyline clip-path="url(#clip981)" style="stroke:#000000; stroke-linecap:round; stroke-linejoin:round; stroke-width:2; stroke-opacity:0.1; fill:none" points="147.478,637.518 2352.76,637.518 "/>
<polyline clip-path="url(#clip981)" style="stroke:#000000; stroke-linecap:round; stroke-linejoin:round; stroke-width:2; stroke-opacity:0.1; fill:none" points="147.478,345.785 2352.76,345.785 "/>
<polyline clip-path="url(#clip981)" style="stroke:#000000; stroke-linecap:round; stroke-linejoin:round; stroke-width:2; stroke-opacity:0.1; fill:none" points="147.478,54.0519 2352.76,54.0519 "/>
<polyline clip-path="url(#clip980)" style="stroke:#000000; stroke-linecap:round; stroke-linejoin:round; stroke-width:4; stroke-opacity:1; fill:none" points="147.478,1486.45 2352.76,1486.45 "/>
<polyline clip-path="url(#clip980)" style="stroke:#000000; stroke-linecap:round; stroke-linejoin:round; stroke-width:4; stroke-opacity:1; fill:none" points="245.12,1486.45 245.12,1467.55 "/>
<polyline clip-path="url(#clip980)" style="stroke:#000000; stroke-linecap:round; stroke-linejoin:round; stroke-width:4; stroke-opacity:1; fill:none" points="669.425,1486.45 669.425,1467.55 "/>
<polyline clip-path="url(#clip980)" style="stroke:#000000; stroke-linecap:round; stroke-linejoin:round; stroke-width:4; stroke-opacity:1; fill:none" points="1093.73,1486.45 1093.73,1467.55 "/>
<polyline clip-path="url(#clip980)" style="stroke:#000000; stroke-linecap:round; stroke-linejoin:round; stroke-width:4; stroke-opacity:1; fill:none" points="1518.04,1486.45 1518.04,1467.55 "/>
<polyline clip-path="url(#clip980)" style="stroke:#000000; stroke-linecap:round; stroke-linejoin:round; stroke-width:4; stroke-opacity:1; fill:none" points="1942.34,1486.45 1942.34,1467.55 "/>
<path clip-path="url(#clip980)" d="M215.062 1532.02 L244.738 1532.02 L244.738 1535.95 L215.062 1535.95 L215.062 1532.02 Z" fill="#000000" fill-rule="nonzero" fill-opacity="1" /><path clip-path="url(#clip980)" d="M258.858 1544.91 L275.178 1544.91 L275.178 1548.85 L253.233 1548.85 L253.233 1544.91 Q255.895 1542.16 260.479 1537.53 Q265.085 1532.88 266.266 1531.53 Q268.511 1529.01 269.391 1527.27 Q270.293 1525.51 270.293 1523.82 Q270.293 1521.07 268.349 1519.33 Q266.428 1517.6 263.326 1517.6 Q261.127 1517.6 258.673 1518.36 Q256.243 1519.13 253.465 1520.68 L253.465 1515.95 Q256.289 1514.82 258.743 1514.24 Q261.196 1513.66 263.233 1513.66 Q268.604 1513.66 271.798 1516.35 Q274.993 1519.03 274.993 1523.52 Q274.993 1525.65 274.182 1527.57 Q273.395 1529.47 271.289 1532.07 Q270.71 1532.74 267.608 1535.95 Q264.506 1539.15 258.858 1544.91 Z" fill="#000000" fill-rule="nonzero" fill-opacity="1" /><path clip-path="url(#clip980)" d="M639.182 1532.02 L668.858 1532.02 L668.858 1535.95 L639.182 1535.95 L639.182 1532.02 Z" fill="#000000" fill-rule="nonzero" fill-opacity="1" /><path clip-path="url(#clip980)" d="M679.761 1544.91 L687.4 1544.91 L687.4 1518.55 L679.09 1520.21 L679.09 1515.95 L687.354 1514.29 L692.029 1514.29 L692.029 1544.91 L699.668 1544.91 L699.668 1548.85 L679.761 1548.85 L679.761 1544.91 Z" fill="#000000" fill-rule="nonzero" fill-opacity="1" /><path clip-path="url(#clip980)" d="M1093.73 1517.37 Q1090.12 1517.37 1088.29 1520.93 Q1086.49 1524.47 1086.49 1531.6 Q1086.49 1538.71 1088.29 1542.27 Q1090.12 1545.82 1093.73 1545.82 Q1097.36 1545.82 1099.17 1542.27 Q1101 1538.71 1101 1531.6 Q1101 1524.47 1099.17 1520.93 Q1097.36 1517.37 1093.73 1517.37 M1093.73 1513.66 Q1099.54 1513.66 1102.6 1518.27 Q1105.68 1522.85 1105.68 1531.6 Q1105.68 1540.33 1102.6 1544.94 Q1099.54 1549.52 1093.73 1549.52 Q1087.92 1549.52 1084.84 1544.94 Q1081.79 1540.33 1081.79 1531.6 Q1081.79 1522.85 1084.84 1518.27 Q1087.92 1513.66 1093.73 1513.66 Z" fill="#000000" fill-rule="nonzero" fill-opacity="1" /><path clip-path="url(#clip980)" d="M1508.42 1544.91 L1516.06 1544.91 L1516.06 1518.55 L1507.75 1520.21 L1507.75 1515.95 L1516.01 1514.29 L1520.69 1514.29 L1520.69 1544.91 L1528.33 1544.91 L1528.33 1548.85 L1508.42 1548.85 L1508.42 1544.91 Z" fill="#000000" fill-rule="nonzero" fill-opacity="1" /><path clip-path="url(#clip980)" d="M1936.99 1544.91 L1953.31 1544.91 L1953.31 1548.85 L1931.37 1548.85 L1931.37 1544.91 Q1934.03 1542.16 1938.61 1537.53 Q1943.22 1532.88 1944.4 1531.53 Q1946.65 1529.01 1947.53 1527.27 Q1948.43 1525.51 1948.43 1523.82 Q1948.43 1521.07 1946.48 1519.33 Q1944.56 1517.6 1941.46 1517.6 Q1939.26 1517.6 1936.81 1518.36 Q1934.38 1519.13 1931.6 1520.68 L1931.6 1515.95 Q1934.42 1514.82 1936.88 1514.24 Q1939.33 1513.66 1941.37 1513.66 Q1946.74 1513.66 1949.93 1516.35 Q1953.13 1519.03 1953.13 1523.52 Q1953.13 1525.65 1952.32 1527.57 Q1951.53 1529.47 1949.42 1532.07 Q1948.85 1532.74 1945.74 1535.95 Q1942.64 1539.15 1936.99 1544.91 Z" fill="#000000" fill-rule="nonzero" fill-opacity="1" /><polyline clip-path="url(#clip980)" style="stroke:#000000; stroke-linecap:round; stroke-linejoin:round; stroke-width:4; stroke-opacity:1; fill:none" points="147.478,1486.45 147.478,47.2441 "/>
<polyline clip-path="url(#clip980)" style="stroke:#000000; stroke-linecap:round; stroke-linejoin:round; stroke-width:4; stroke-opacity:1; fill:none" points="147.478,1220.98 166.376,1220.98 "/>
<polyline clip-path="url(#clip980)" style="stroke:#000000; stroke-linecap:round; stroke-linejoin:round; stroke-width:4; stroke-opacity:1; fill:none" points="147.478,929.251 166.376,929.251 "/>
<polyline clip-path="url(#clip980)" style="stroke:#000000; stroke-linecap:round; stroke-linejoin:round; stroke-width:4; stroke-opacity:1; fill:none" points="147.478,637.518 166.376,637.518 "/>
<polyline clip-path="url(#clip980)" style="stroke:#000000; stroke-linecap:round; stroke-linejoin:round; stroke-width:4; stroke-opacity:1; fill:none" points="147.478,345.785 166.376,345.785 "/>
<polyline clip-path="url(#clip980)" style="stroke:#000000; stroke-linecap:round; stroke-linejoin:round; stroke-width:4; stroke-opacity:1; fill:none" points="147.478,54.0519 166.376,54.0519 "/>
<path clip-path="url(#clip980)" d="M50.9921 1221.43 L80.6679 1221.43 L80.6679 1225.37 L50.9921 1225.37 L50.9921 1221.43 Z" fill="#000000" fill-rule="nonzero" fill-opacity="1" /><path clip-path="url(#clip980)" d="M91.5706 1234.33 L99.2095 1234.33 L99.2095 1207.96 L90.8993 1209.63 L90.8993 1205.37 L99.1632 1203.7 L103.839 1203.7 L103.839 1234.33 L111.478 1234.33 L111.478 1238.26 L91.5706 1238.26 L91.5706 1234.33 Z" fill="#000000" fill-rule="nonzero" fill-opacity="1" /><path clip-path="url(#clip980)" d="M99.5335 915.049 Q95.9224 915.049 94.0937 918.614 Q92.2882 922.156 92.2882 929.285 Q92.2882 936.392 94.0937 939.956 Q95.9224 943.498 99.5335 943.498 Q103.168 943.498 104.973 939.956 Q106.802 936.392 106.802 929.285 Q106.802 922.156 104.973 918.614 Q103.168 915.049 99.5335 915.049 M99.5335 911.346 Q105.344 911.346 108.399 915.952 Q111.478 920.535 111.478 929.285 Q111.478 938.012 108.399 942.619 Q105.344 947.202 99.5335 947.202 Q93.7234 947.202 90.6447 942.619 Q87.5892 938.012 87.5892 929.285 Q87.5892 920.535 90.6447 915.952 Q93.7234 911.346 99.5335 911.346 Z" fill="#000000" fill-rule="nonzero" fill-opacity="1" /><path clip-path="url(#clip980)" d="M91.5706 650.862 L99.2095 650.862 L99.2095 624.497 L90.8993 626.164 L90.8993 621.904 L99.1632 620.238 L103.839 620.238 L103.839 650.862 L111.478 650.862 L111.478 654.798 L91.5706 654.798 L91.5706 650.862 Z" fill="#000000" fill-rule="nonzero" fill-opacity="1" /><path clip-path="url(#clip980)" d="M95.1586 359.13 L111.478 359.13 L111.478 363.065 L89.5336 363.065 L89.5336 359.13 Q92.1956 356.375 96.7789 351.745 Q101.385 347.093 102.566 345.75 Q104.811 343.227 105.691 341.491 Q106.594 339.732 106.594 338.042 Q106.594 335.287 104.649 333.551 Q102.728 331.815 99.6261 331.815 Q97.4271 331.815 94.9734 332.579 Q92.5428 333.343 89.7651 334.894 L89.7651 330.171 Q92.5891 329.037 95.0428 328.458 Q97.4965 327.88 99.5335 327.88 Q104.904 327.88 108.098 330.565 Q111.293 333.25 111.293 337.741 Q111.293 339.87 110.483 341.792 Q109.696 343.69 107.589 346.282 Q107.01 346.954 103.909 350.171 Q100.807 353.366 95.1586 359.13 Z" fill="#000000" fill-rule="nonzero" fill-opacity="1" /><path clip-path="url(#clip980)" d="M104.348 52.6977 Q107.705 53.4153 109.58 55.6838 Q111.478 57.9523 111.478 61.2856 Q111.478 66.4013 107.959 69.2023 Q104.441 72.0032 97.9595 72.0032 Q95.7836 72.0032 93.4688 71.5634 Q91.1771 71.1467 88.7234 70.2902 L88.7234 65.7763 Q90.6678 66.9106 92.9826 67.4893 Q95.2974 68.068 97.8206 68.068 Q102.219 68.068 104.51 66.3319 Q106.825 64.5958 106.825 61.2856 Q106.825 58.2301 104.672 56.5171 Q102.543 54.781 98.7234 54.781 L94.6956 54.781 L94.6956 50.9385 L98.9085 50.9385 Q102.358 50.9385 104.186 49.5727 Q106.015 48.1839 106.015 45.5913 Q106.015 42.9292 104.117 41.5172 Q102.242 40.082 98.7234 40.082 Q96.8021 40.082 94.603 40.4987 Q92.4039 40.9154 89.7651 41.795 L89.7651 37.6284 Q92.4271 36.8876 94.7419 36.5172 Q97.0798 36.1469 99.14 36.1469 Q104.464 36.1469 107.566 38.5774 Q110.668 40.9848 110.668 45.1052 Q110.668 47.9755 109.024 49.9662 Q107.381 51.9338 104.348 52.6977 Z" fill="#000000" fill-rule="nonzero" fill-opacity="1" /><circle clip-path="url(#clip981)" cx="724.715" cy="857.914" r="14.4" fill="#009af9" fill-rule="evenodd" fill-opacity="0.5" stroke="#000000" stroke-opacity="0.5" stroke-width="3.2"/>
<circle clip-path="url(#clip981)" cx="1102.52" cy="1055.54" r="14.4" fill="#009af9" fill-rule="evenodd" fill-opacity="0.5" stroke="#000000" stroke-opacity="0.5" stroke-width="3.2"/>
<circle clip-path="url(#clip981)" cx="825.91" cy="648.784" r="14.4" fill="#009af9" fill-rule="evenodd" fill-opacity="0.5" stroke="#000000" stroke-opacity="0.5" stroke-width="3.2"/>
<circle clip-path="url(#clip981)" cx="2290.34" cy="1117.35" r="14.4" fill="#009af9" fill-rule="evenodd" fill-opacity="0.5" stroke="#000000" stroke-opacity="0.5" stroke-width="3.2"/>
<circle clip-path="url(#clip981)" cx="1484.13" cy="1074.92" r="14.4" fill="#009af9" fill-rule="evenodd" fill-opacity="0.5" stroke="#000000" stroke-opacity="0.5" stroke-width="3.2"/>
<circle clip-path="url(#clip981)" cx="888.025" cy="597.686" r="14.4" fill="#009af9" fill-rule="evenodd" fill-opacity="0.5" stroke="#000000" stroke-opacity="0.5" stroke-width="3.2"/>
<circle clip-path="url(#clip981)" cx="905.734" cy="823.92" r="14.4" fill="#009af9" fill-rule="evenodd" fill-opacity="0.5" stroke="#000000" stroke-opacity="0.5" stroke-width="3.2"/>
<circle clip-path="url(#clip981)" cx="2143.5" cy="1103.85" r="14.4" fill="#009af9" fill-rule="evenodd" fill-opacity="0.5" stroke="#000000" stroke-opacity="0.5" stroke-width="3.2"/>
<circle clip-path="url(#clip981)" cx="1372.32" cy="418.002" r="14.4" fill="#009af9" fill-rule="evenodd" fill-opacity="0.5" stroke="#000000" stroke-opacity="0.5" stroke-width="3.2"/>
<circle clip-path="url(#clip981)" cx="1238.38" cy="1445.72" r="14.4" fill="#009af9" fill-rule="evenodd" fill-opacity="0.5" stroke="#000000" stroke-opacity="0.5" stroke-width="3.2"/>
<circle clip-path="url(#clip981)" cx="1103.24" cy="1131.68" r="14.4" fill="#009af9" fill-rule="evenodd" fill-opacity="0.5" stroke="#000000" stroke-opacity="0.5" stroke-width="3.2"/>
<circle clip-path="url(#clip981)" cx="959.882" cy="1302.15" r="14.4" fill="#009af9" fill-rule="evenodd" fill-opacity="0.5" stroke="#000000" stroke-opacity="0.5" stroke-width="3.2"/>
<circle clip-path="url(#clip981)" cx="959.133" cy="1221.18" r="14.4" fill="#009af9" fill-rule="evenodd" fill-opacity="0.5" stroke="#000000" stroke-opacity="0.5" stroke-width="3.2"/>
<circle clip-path="url(#clip981)" cx="982.564" cy="1319.09" r="14.4" fill="#009af9" fill-rule="evenodd" fill-opacity="0.5" stroke="#000000" stroke-opacity="0.5" stroke-width="3.2"/>
<circle clip-path="url(#clip981)" cx="665.147" cy="274.824" r="14.4" fill="#009af9" fill-rule="evenodd" fill-opacity="0.5" stroke="#000000" stroke-opacity="0.5" stroke-width="3.2"/>
<circle clip-path="url(#clip981)" cx="319.363" cy="1033.65" r="14.4" fill="#009af9" fill-rule="evenodd" fill-opacity="0.5" stroke="#000000" stroke-opacity="0.5" stroke-width="3.2"/>
<circle clip-path="url(#clip981)" cx="612.466" cy="883.303" r="14.4" fill="#009af9" fill-rule="evenodd" fill-opacity="0.5" stroke="#000000" stroke-opacity="0.5" stroke-width="3.2"/>
<circle clip-path="url(#clip981)" cx="833.803" cy="829.642" r="14.4" fill="#009af9" fill-rule="evenodd" fill-opacity="0.5" stroke="#000000" stroke-opacity="0.5" stroke-width="3.2"/>
<circle clip-path="url(#clip981)" cx="209.891" cy="1156.55" r="14.4" fill="#009af9" fill-rule="evenodd" fill-opacity="0.5" stroke="#000000" stroke-opacity="0.5" stroke-width="3.2"/>
<circle clip-path="url(#clip981)" cx="1432.34" cy="517.712" r="14.4" fill="#009af9" fill-rule="evenodd" fill-opacity="0.5" stroke="#000000" stroke-opacity="0.5" stroke-width="3.2"/>
<circle clip-path="url(#clip981)" cx="1331.02" cy="831.957" r="14.4" fill="#009af9" fill-rule="evenodd" fill-opacity="0.5" stroke="#000000" stroke-opacity="0.5" stroke-width="3.2"/>
<circle clip-path="url(#clip981)" cx="1091.58" cy="1149.28" r="14.4" fill="#009af9" fill-rule="evenodd" fill-opacity="0.5" stroke="#000000" stroke-opacity="0.5" stroke-width="3.2"/>
<circle clip-path="url(#clip981)" cx="1546.01" cy="1168.07" r="14.4" fill="#009af9" fill-rule="evenodd" fill-opacity="0.5" stroke="#000000" stroke-opacity="0.5" stroke-width="3.2"/>
<circle clip-path="url(#clip981)" cx="506.775" cy="1031.95" r="14.4" fill="#009af9" fill-rule="evenodd" fill-opacity="0.5" stroke="#000000" stroke-opacity="0.5" stroke-width="3.2"/>
<circle clip-path="url(#clip981)" cx="977.818" cy="1296.5" r="14.4" fill="#009af9" fill-rule="evenodd" fill-opacity="0.5" stroke="#000000" stroke-opacity="0.5" stroke-width="3.2"/>
<circle clip-path="url(#clip981)" cx="1595.32" cy="1404.18" r="14.4" fill="#009af9" fill-rule="evenodd" fill-opacity="0.5" stroke="#000000" stroke-opacity="0.5" stroke-width="3.2"/>
<circle clip-path="url(#clip981)" cx="1333.25" cy="818.371" r="14.4" fill="#009af9" fill-rule="evenodd" fill-opacity="0.5" stroke="#000000" stroke-opacity="0.5" stroke-width="3.2"/>
<circle clip-path="url(#clip981)" cx="1290.54" cy="771.193" r="14.4" fill="#009af9" fill-rule="evenodd" fill-opacity="0.5" stroke="#000000" stroke-opacity="0.5" stroke-width="3.2"/>
<circle clip-path="url(#clip981)" cx="1699.87" cy="913.617" r="14.4" fill="#009af9" fill-rule="evenodd" fill-opacity="0.5" stroke="#000000" stroke-opacity="0.5" stroke-width="3.2"/>
<circle clip-path="url(#clip981)" cx="414.186" cy="87.9763" r="14.4" fill="#009af9" fill-rule="evenodd" fill-opacity="0.5" stroke="#000000" stroke-opacity="0.5" stroke-width="3.2"/>
<path clip-path="url(#clip981)" d="M209.891 1156.55 L1238.38 1445.72 L1595.32 1404.18 L2290.34 1117.35 L1372.32 418.002 L414.186 87.9763 L209.891 1156.55 L209.891 1156.55  Z" fill="#e26f46" fill-rule="evenodd" fill-opacity="0.2"/>
<polyline clip-path="url(#clip981)" style="stroke:#000000; stroke-linecap:round; stroke-linejoin:round; stroke-width:4; stroke-opacity:0.2; fill:none" points="209.891,1156.55 1238.38,1445.72 1595.32,1404.18 2290.34,1117.35 1372.32,418.002 414.186,87.9763 209.891,1156.55 "/>
</svg>
