<?xml version="1.0" encoding="utf-8"?>
<svg xmlns="http://www.w3.org/2000/svg" xmlns:xlink="http://www.w3.org/1999/xlink" width="600" height="400" viewBox="0 0 2400 1600">
<defs>
  <clipPath id="clip620">
    <rect x="0" y="0" width="2400" height="1600"/>
  </clipPath>
</defs>
<path clip-path="url(#clip620)" d="M0 1600 L2400 1600 L2400 0 L0 0  Z" fill="#ffffff" fill-rule="evenodd" fill-opacity="1"/>
<defs>
  <clipPath id="clip621">
    <rect x="480" y="0" width="1681" height="1600"/>
  </clipPath>
</defs>
<path clip-path="url(#clip620)" d="M147.478 1486.45 L2352.76 1486.45 L2352.76 47.2441 L147.478 47.2441  Z" fill="#ffffff" fill-rule="evenodd" fill-opacity="1"/>
<defs>
  <clipPath id="clip622">
    <rect x="147" y="47" width="2206" height="1440"/>
  </clipPath>
</defs>
<polyline clip-path="url(#clip622)" style="stroke:#000000; stroke-linecap:round; stroke-linejoin:round; stroke-width:2; stroke-opacity:0.1; fill:none" points="388.547,1486.45 388.547,47.2441 "/>
<polyline clip-path="url(#clip622)" style="stroke:#000000; stroke-linecap:round; stroke-linejoin:round; stroke-width:2; stroke-opacity:0.1; fill:none" points="802.747,1486.45 802.747,47.2441 "/>
<polyline clip-path="url(#clip622)" style="stroke:#000000; stroke-linecap:round; stroke-linejoin:round; stroke-width:2; stroke-opacity:0.1; fill:none" points="1216.95,1486.45 1216.95,47.2441 "/>
<polyline clip-path="url(#clip622)" style="stroke:#000000; stroke-linecap:round; stroke-linejoin:round; stroke-width:2; stroke-opacity:0.1; fill:none" points="1631.15,1486.45 1631.15,47.2441 "/>
<polyline clip-path="url(#clip622)" style="stroke:#000000; stroke-linecap:round; stroke-linejoin:round; stroke-width:2; stroke-opacity:0.1; fill:none" points="2045.35,1486.45 2045.35,47.2441 "/>
<polyline clip-path="url(#clip622)" style="stroke:#000000; stroke-linecap:round; stroke-linejoin:round; stroke-width:2; stroke-opacity:0.1; fill:none" points="147.478,1439.27 2352.76,1439.27 "/>
<polyline clip-path="url(#clip622)" style="stroke:#000000; stroke-linecap:round; stroke-linejoin:round; stroke-width:2; stroke-opacity:0.1; fill:none" points="147.478,1146.42 2352.76,1146.42 "/>
<polyline clip-path="url(#clip622)" style="stroke:#000000; stroke-linecap:round; stroke-linejoin:round; stroke-width:2; stroke-opacity:0.1; fill:none" points="147.478,853.561 2352.76,853.561 "/>
<polyline clip-path="url(#clip622)" style="stroke:#000000; stroke-linecap:round; stroke-linejoin:round; stroke-width:2; stroke-opacity:0.1; fill:none" points="147.478,560.707 2352.76,560.707 "/>
<polyline clip-path="url(#clip622)" style="stroke:#000000; stroke-linecap:round; stroke-linejoin:round; stroke-width:2; stroke-opacity:0.1; fill:none" points="147.478,267.853 2352.76,267.853 "/>
<polyline clip-path="url(#clip620)" style="stroke:#000000; stroke-linecap:round; stroke-linejoin:round; stroke-width:4; stroke-opacity:1; fill:none" points="147.478,1486.45 2352.76,1486.45 "/>
<polyline clip-path="url(#clip620)" style="stroke:#000000; stroke-linecap:round; stroke-linejoin:round; stroke-width:4; stroke-opacity:1; fill:none" points="388.547,1486.45 388.547,1467.55 "/>
<polyline clip-path="url(#clip620)" style="stroke:#000000; stroke-linecap:round; stroke-linejoin:round; stroke-width:4; stroke-opacity:1; fill:none" points="802.747,1486.45 802.747,1467.55 "/>
<polyline clip-path="url(#clip620)" style="stroke:#000000; stroke-linecap:round; stroke-linejoin:round; stroke-width:4; stroke-opacity:1; fill:none" points="1216.95,1486.45 1216.95,1467.55 "/>
<polyline clip-path="url(#clip620)" style="stroke:#000000; stroke-linecap:round; stroke-linejoin:round; stroke-width:4; stroke-opacity:1; fill:none" points="1631.15,1486.45 1631.15,1467.55 "/>
<polyline clip-path="url(#clip620)" style="stroke:#000000; stroke-linecap:round; stroke-linejoin:round; stroke-width:4; stroke-opacity:1; fill:none" points="2045.35,1486.45 2045.35,1467.55 "/>
<path clip-path="url(#clip620)" d="M358.489 1532.02 L388.165 1532.02 L388.165 1535.95 L358.489 1535.95 L358.489 1532.02 Z" fill="#000000" fill-rule="nonzero" fill-opacity="1" /><path clip-path="url(#clip620)" d="M402.285 1544.91 L418.605 1544.91 L418.605 1548.85 L396.66 1548.85 L396.66 1544.91 Q399.322 1542.16 403.906 1537.53 Q408.512 1532.88 409.693 1531.53 Q411.938 1529.01 412.818 1527.27 Q413.72 1525.51 413.72 1523.82 Q413.72 1521.07 411.776 1519.33 Q409.855 1517.6 406.753 1517.6 Q404.554 1517.6 402.1 1518.36 Q399.67 1519.13 396.892 1520.68 L396.892 1515.95 Q399.716 1514.82 402.169 1514.24 Q404.623 1513.66 406.66 1513.66 Q412.031 1513.66 415.225 1516.35 Q418.419 1519.03 418.419 1523.52 Q418.419 1525.65 417.609 1527.57 Q416.822 1529.47 414.716 1532.07 Q414.137 1532.74 411.035 1535.95 Q407.933 1539.15 402.285 1544.91 Z" fill="#000000" fill-rule="nonzero" fill-opacity="1" /><path clip-path="url(#clip620)" d="M772.504 1532.02 L802.18 1532.02 L802.18 1535.95 L772.504 1535.95 L772.504 1532.02 Z" fill="#000000" fill-rule="nonzero" fill-opacity="1" /><path clip-path="url(#clip620)" d="M813.082 1544.91 L820.721 1544.91 L820.721 1518.55 L812.411 1520.21 L812.411 1515.95 L820.675 1514.29 L825.351 1514.29 L825.351 1544.91 L832.99 1544.91 L832.99 1548.85 L813.082 1548.85 L813.082 1544.91 Z" fill="#000000" fill-rule="nonzero" fill-opacity="1" /><path clip-path="url(#clip620)" d="M1216.95 1517.37 Q1213.34 1517.37 1211.51 1520.93 Q1209.7 1524.47 1209.7 1531.6 Q1209.7 1538.71 1211.51 1542.27 Q1213.34 1545.82 1216.95 1545.82 Q1220.58 1545.82 1222.39 1542.27 Q1224.22 1538.71 1224.22 1531.6 Q1224.22 1524.47 1222.39 1520.93 Q1220.58 1517.37 1216.95 1517.37 M1216.95 1513.66 Q1222.76 1513.66 1225.81 1518.27 Q1228.89 1522.85 1228.89 1531.6 Q1228.89 1540.33 1225.81 1544.94 Q1222.76 1549.52 1216.95 1549.52 Q1211.14 1549.52 1208.06 1544.94 Q1205 1540.33 1205 1531.6 Q1205 1522.85 1208.06 1518.27 Q1211.14 1513.66 1216.95 1513.66 Z" fill="#000000" fill-rule="nonzero" fill-opacity="1" /><path clip-path="url(#clip620)" d="M1621.53 1544.91 L1629.17 1544.91 L1629.17 1518.55 L1620.86 1520.21 L1620.86 1515.95 L1629.12 1514.29 L1633.8 1514.29 L1633.8 1544.91 L1641.44 1544.91 L1641.44 1548.85 L1621.53 1548.85 L1621.53 1544.91 Z" fill="#000000" fill-rule="nonzero" fill-opacity="1" /><path clip-path="url(#clip620)" d="M2040 1544.91 L2056.32 1544.91 L2056.32 1548.85 L2034.37 1548.85 L2034.37 1544.91 Q2037.04 1542.16 2041.62 1537.53 Q2046.23 1532.88 2047.41 1531.53 Q2049.65 1529.01 2050.53 1527.27 Q2051.43 1525.51 2051.43 1523.82 Q2051.43 1521.07 2049.49 1519.33 Q2047.57 1517.6 2044.47 1517.6 Q2042.27 1517.6 2039.81 1518.36 Q2037.38 1519.13 2034.61 1520.68 L2034.61 1515.95 Q2037.43 1514.82 2039.88 1514.24 Q2042.34 1513.66 2044.37 1513.66 Q2049.74 1513.66 2052.94 1516.35 Q2056.13 1519.03 2056.13 1523.52 Q2056.13 1525.65 2055.32 1527.57 Q2054.54 1529.47 2052.43 1532.07 Q2051.85 1532.74 2048.75 1535.95 Q2045.65 1539.15 2040 1544.91 Z" fill="#000000" fill-rule="nonzero" fill-opacity="1" /><polyline clip-path="url(#clip620)" style="stroke:#000000; stroke-linecap:round; stroke-linejoin:round; stroke-width:4; stroke-opacity:1; fill:none" points="147.478,1486.45 147.478,47.2441 "/>
<polyline clip-path="url(#clip620)" style="stroke:#000000; stroke-linecap:round; stroke-linejoin:round; stroke-width:4; stroke-opacity:1; fill:none" points="147.478,1439.27 166.376,1439.27 "/>
<polyline clip-path="url(#clip620)" style="stroke:#000000; stroke-linecap:round; stroke-linejoin:round; stroke-width:4; stroke-opacity:1; fill:none" points="147.478,1146.42 166.376,1146.42 "/>
<polyline clip-path="url(#clip620)" style="stroke:#000000; stroke-linecap:round; stroke-linejoin:round; stroke-width:4; stroke-opacity:1; fill:none" points="147.478,853.561 166.376,853.561 "/>
<polyline clip-path="url(#clip620)" style="stroke:#000000; stroke-linecap:round; stroke-linejoin:round; stroke-width:4; stroke-opacity:1; fill:none" points="147.478,560.707 166.376,560.707 "/>
<polyline clip-path="url(#clip620)" style="stroke:#000000; stroke-linecap:round; stroke-linejoin:round; stroke-width:4; stroke-opacity:1; fill:none" points="147.478,267.853 166.376,267.853 "/>
<path clip-path="url(#clip620)" d="M51.3625 1439.72 L81.0383 1439.72 L81.0383 1443.66 L51.3625 1443.66 L51.3625 1439.72 Z" fill="#000000" fill-rule="nonzero" fill-opacity="1" /><path clip-path="url(#clip620)" d="M95.1586 1452.61 L111.478 1452.61 L111.478 1456.55 L89.5336 1456.55 L89.5336 1452.61 Q92.1956 1449.86 96.7789 1445.23 Q101.385 1440.58 102.566 1439.23 Q104.811 1436.71 105.691 1434.98 Q106.594 1433.22 106.594 1431.53 Q106.594 1428.77 104.649 1427.04 Q102.728 1425.3 99.6261 1425.3 Q97.4271 1425.3 94.9734 1426.06 Q92.5428 1426.83 89.7651 1428.38 L89.7651 1423.66 Q92.5891 1422.52 95.0428 1421.94 Q97.4965 1421.36 99.5335 1421.36 Q104.904 1421.36 108.098 1424.05 Q111.293 1426.73 111.293 1431.23 Q111.293 1433.35 110.483 1435.28 Q109.696 1437.17 107.589 1439.77 Q107.01 1440.44 103.909 1443.66 Q100.807 1446.85 95.1586 1452.61 Z" fill="#000000" fill-rule="nonzero" fill-opacity="1" /><path clip-path="url(#clip620)" d="M50.9921 1146.87 L80.6679 1146.87 L80.6679 1150.8 L50.9921 1150.8 L50.9921 1146.87 Z" fill="#000000" fill-rule="nonzero" fill-opacity="1" /><path clip-path="url(#clip620)" d="M91.5706 1159.76 L99.2095 1159.76 L99.2095 1133.39 L90.8993 1135.06 L90.8993 1130.8 L99.1632 1129.14 L103.839 1129.14 L103.839 1159.76 L111.478 1159.76 L111.478 1163.7 L91.5706 1163.7 L91.5706 1159.76 Z" fill="#000000" fill-rule="nonzero" fill-opacity="1" /><path clip-path="url(#clip620)" d="M99.5335 839.36 Q95.9224 839.36 94.0937 842.925 Q92.2882 846.466 92.2882 853.596 Q92.2882 860.702 94.0937 864.267 Q95.9224 867.809 99.5335 867.809 Q103.168 867.809 104.973 864.267 Q106.802 860.702 106.802 853.596 Q106.802 846.466 104.973 842.925 Q103.168 839.36 99.5335 839.36 M99.5335 835.656 Q105.344 835.656 108.399 840.263 Q111.478 844.846 111.478 853.596 Q111.478 862.323 108.399 866.929 Q105.344 871.512 99.5335 871.512 Q93.7234 871.512 90.6447 866.929 Q87.5892 862.323 87.5892 853.596 Q87.5892 844.846 90.6447 840.263 Q93.7234 835.656 99.5335 835.656 Z" fill="#000000" fill-rule="nonzero" fill-opacity="1" /><path clip-path="url(#clip620)" d="M91.5706 574.052 L99.2095 574.052 L99.2095 547.686 L90.8993 549.353 L90.8993 545.094 L99.1632 543.427 L103.839 543.427 L103.839 574.052 L111.478 574.052 L111.478 577.987 L91.5706 577.987 L91.5706 574.052 Z" fill="#000000" fill-rule="nonzero" fill-opacity="1" /><path clip-path="url(#clip620)" d="M95.1586 281.198 L111.478 281.198 L111.478 285.133 L89.5336 285.133 L89.5336 281.198 Q92.1956 278.443 96.7789 273.814 Q101.385 269.161 102.566 267.818 Q104.811 265.295 105.691 263.559 Q106.594 261.8 106.594 260.11 Q106.594 257.356 104.649 255.619 Q102.728 253.883 99.6261 253.883 Q97.4271 253.883 94.9734 254.647 Q92.5428 255.411 89.7651 256.962 L89.7651 252.24 Q92.5891 251.106 95.0428 250.527 Q97.4965 249.948 99.5335 249.948 Q104.904 249.948 108.098 252.633 Q111.293 255.319 111.293 259.809 Q111.293 261.939 110.483 263.86 Q109.696 265.758 107.589 268.351 Q107.01 269.022 103.909 272.24 Q100.807 275.434 95.1586 281.198 Z" fill="#000000" fill-rule="nonzero" fill-opacity="1" /><circle clip-path="url(#clip622)" cx="1221.47" cy="911.747" r="14.4" fill="#009af9" fill-rule="evenodd" fill-opacity="0.5" stroke="#000000" stroke-opacity="0.5" stroke-width="3.2"/>
<circle clip-path="url(#clip622)" cx="1120.54" cy="874.667" r="14.4" fill="#009af9" fill-rule="evenodd" fill-opacity="0.5" stroke="#000000" stroke-opacity="0.5" stroke-width="3.2"/>
<circle clip-path="url(#clip622)" cx="749.827" cy="869.501" r="14.4" fill="#009af9" fill-rule="evenodd" fill-opacity="0.5" stroke="#000000" stroke-opacity="0.5" stroke-width="3.2"/>
<circle clip-path="url(#clip622)" cx="486.398" cy="1116.67" r="14.4" fill="#009af9" fill-rule="evenodd" fill-opacity="0.5" stroke="#000000" stroke-opacity="0.5" stroke-width="3.2"/>
<circle clip-path="url(#clip622)" cx="927.901" cy="1173.18" r="14.4" fill="#009af9" fill-rule="evenodd" fill-opacity="0.5" stroke="#000000" stroke-opacity="0.5" stroke-width="3.2"/>
<circle clip-path="url(#clip622)" cx="209.891" cy="1445.72" r="14.4" fill="#009af9" fill-rule="evenodd" fill-opacity="0.5" stroke="#000000" stroke-opacity="0.5" stroke-width="3.2"/>
<circle clip-path="url(#clip622)" cx="1283.87" cy="604.865" r="14.4" fill="#009af9" fill-rule="evenodd" fill-opacity="0.5" stroke="#000000" stroke-opacity="0.5" stroke-width="3.2"/>
<circle clip-path="url(#clip622)" cx="648.422" cy="597.401" r="14.4" fill="#009af9" fill-rule="evenodd" fill-opacity="0.5" stroke="#000000" stroke-opacity="0.5" stroke-width="3.2"/>
<circle clip-path="url(#clip622)" cx="1297.8" cy="160.722" r="14.4" fill="#009af9" fill-rule="evenodd" fill-opacity="0.5" stroke="#000000" stroke-opacity="0.5" stroke-width="3.2"/>
<circle clip-path="url(#clip622)" cx="1476.69" cy="855.383" r="14.4" fill="#009af9" fill-rule="evenodd" fill-opacity="0.5" stroke="#000000" stroke-opacity="0.5" stroke-width="3.2"/>
<circle clip-path="url(#clip622)" cx="1144.46" cy="697.588" r="14.4" fill="#009af9" fill-rule="evenodd" fill-opacity="0.5" stroke="#000000" stroke-opacity="0.5" stroke-width="3.2"/>
<circle clip-path="url(#clip622)" cx="671.285" cy="895.367" r="14.4" fill="#009af9" fill-rule="evenodd" fill-opacity="0.5" stroke="#000000" stroke-opacity="0.5" stroke-width="3.2"/>
<circle clip-path="url(#clip622)" cx="315.054" cy="571.946" r="14.4" fill="#009af9" fill-rule="evenodd" fill-opacity="0.5" stroke="#000000" stroke-opacity="0.5" stroke-width="3.2"/>
<circle clip-path="url(#clip622)" cx="1297.74" cy="631.933" r="14.4" fill="#009af9" fill-rule="evenodd" fill-opacity="0.5" stroke="#000000" stroke-opacity="0.5" stroke-width="3.2"/>
<circle clip-path="url(#clip622)" cx="1170.52" cy="713.215" r="14.4" fill="#009af9" fill-rule="evenodd" fill-opacity="0.5" stroke="#000000" stroke-opacity="0.5" stroke-width="3.2"/>
<circle clip-path="url(#clip622)" cx="1827.53" cy="491.089" r="14.4" fill="#009af9" fill-rule="evenodd" fill-opacity="0.5" stroke="#000000" stroke-opacity="0.5" stroke-width="3.2"/>
<circle clip-path="url(#clip622)" cx="1386.64" cy="654.125" r="14.4" fill="#009af9" fill-rule="evenodd" fill-opacity="0.5" stroke="#000000" stroke-opacity="0.5" stroke-width="3.2"/>
<circle clip-path="url(#clip622)" cx="694.718" cy="1045.22" r="14.4" fill="#009af9" fill-rule="evenodd" fill-opacity="0.5" stroke="#000000" stroke-opacity="0.5" stroke-width="3.2"/>
<circle clip-path="url(#clip622)" cx="2106.27" cy="946.289" r="14.4" fill="#009af9" fill-rule="evenodd" fill-opacity="0.5" stroke="#000000" stroke-opacity="0.5" stroke-width="3.2"/>
<circle clip-path="url(#clip622)" cx="1186.9" cy="444.803" r="14.4" fill="#009af9" fill-rule="evenodd" fill-opacity="0.5" stroke="#000000" stroke-opacity="0.5" stroke-width="3.2"/>
<circle clip-path="url(#clip622)" cx="1320.25" cy="1243.34" r="14.4" fill="#009af9" fill-rule="evenodd" fill-opacity="0.5" stroke="#000000" stroke-opacity="0.5" stroke-width="3.2"/>
<circle clip-path="url(#clip622)" cx="2290.34" cy="1073.4" r="14.4" fill="#009af9" fill-rule="evenodd" fill-opacity="0.5" stroke="#000000" stroke-opacity="0.5" stroke-width="3.2"/>
<circle clip-path="url(#clip622)" cx="1495.98" cy="87.9763" r="14.4" fill="#009af9" fill-rule="evenodd" fill-opacity="0.5" stroke="#000000" stroke-opacity="0.5" stroke-width="3.2"/>
<circle clip-path="url(#clip622)" cx="1544.04" cy="791.578" r="14.4" fill="#009af9" fill-rule="evenodd" fill-opacity="0.5" stroke="#000000" stroke-opacity="0.5" stroke-width="3.2"/>
<circle clip-path="url(#clip622)" cx="1207.61" cy="928.128" r="14.4" fill="#009af9" fill-rule="evenodd" fill-opacity="0.5" stroke="#000000" stroke-opacity="0.5" stroke-width="3.2"/>
<circle clip-path="url(#clip622)" cx="1315.78" cy="1061.45" r="14.4" fill="#009af9" fill-rule="evenodd" fill-opacity="0.5" stroke="#000000" stroke-opacity="0.5" stroke-width="3.2"/>
<circle clip-path="url(#clip622)" cx="952.422" cy="538.938" r="14.4" fill="#009af9" fill-rule="evenodd" fill-opacity="0.5" stroke="#000000" stroke-opacity="0.5" stroke-width="3.2"/>
<circle clip-path="url(#clip622)" cx="1361.79" cy="864.54" r="14.4" fill="#009af9" fill-rule="evenodd" fill-opacity="0.5" stroke="#000000" stroke-opacity="0.5" stroke-width="3.2"/>
<circle clip-path="url(#clip622)" cx="1708.9" cy="1005.39" r="14.4" fill="#009af9" fill-rule="evenodd" fill-opacity="0.5" stroke="#000000" stroke-opacity="0.5" stroke-width="3.2"/>
<circle clip-path="url(#clip622)" cx="852.952" cy="1055.03" r="14.4" fill="#009af9" fill-rule="evenodd" fill-opacity="0.5" stroke="#000000" stroke-opacity="0.5" stroke-width="3.2"/>
<path clip-path="url(#clip622)" d="M209.891 1445.72 L2290.34 1073.4 L1827.53 491.089 L1495.98 87.9763 L1297.8 160.722 L315.054 571.946 L209.891 1445.72 L209.891 1445.72  Z" fill="#e26f46" fill-rule="evenodd" fill-opacity="0.2"/>
<polyline clip-path="url(#clip622)" style="stroke:#000000; stroke-linecap:round; stroke-linejoin:round; stroke-width:4; stroke-opacity:0.2; fill:none" points="209.891,1445.72 2290.34,1073.4 1827.53,491.089 1495.98,87.9763 1297.8,160.722 315.054,571.946 209.891,1445.72 "/>
</svg>
