<?xml version="1.0" encoding="utf-8"?>
<svg xmlns="http://www.w3.org/2000/svg" xmlns:xlink="http://www.w3.org/1999/xlink" width="600" height="400" viewBox="0 0 2400 1600">
<defs>
  <clipPath id="clip610">
    <rect x="0" y="0" width="2400" height="1600"/>
  </clipPath>
</defs>
<path clip-path="url(#clip610)" d="M0 1600 L2400 1600 L2400 0 L0 0  Z" fill="#ffffff" fill-rule="evenodd" fill-opacity="1"/>
<defs>
  <clipPath id="clip611">
    <rect x="480" y="0" width="1681" height="1600"/>
  </clipPath>
</defs>
<path clip-path="url(#clip610)" d="M147.478 1486.45 L2352.76 1486.45 L2352.76 47.2441 L147.478 47.2441  Z" fill="#ffffff" fill-rule="evenodd" fill-opacity="1"/>
<defs>
  <clipPath id="clip612">
    <rect x="147" y="47" width="2206" height="1440"/>
  </clipPath>
</defs>
<polyline clip-path="url(#clip612)" style="stroke:#000000; stroke-linecap:round; stroke-linejoin:round; stroke-width:2; stroke-opacity:0.1; fill:none" points="348.789,1486.45 348.789,47.2441 "/>
<polyline clip-path="url(#clip612)" style="stroke:#000000; stroke-linecap:round; stroke-linejoin:round; stroke-width:2; stroke-opacity:0.1; fill:none" points="838.427,1486.45 838.427,47.2441 "/>
<polyline clip-path="url(#clip612)" style="stroke:#000000; stroke-linecap:round; stroke-linejoin:round; stroke-width:2; stroke-opacity:0.1; fill:none" points="1328.07,1486.45 1328.07,47.2441 "/>
<polyline clip-path="url(#clip612)" style="stroke:#000000; stroke-linecap:round; stroke-linejoin:round; stroke-width:2; stroke-opacity:0.1; fill:none" points="1817.7,1486.45 1817.7,47.2441 "/>
<polyline clip-path="url(#clip612)" style="stroke:#000000; stroke-linecap:round; stroke-linejoin:round; stroke-width:2; stroke-opacity:0.1; fill:none" points="2307.34,1486.45 2307.34,47.2441 "/>
<polyline clip-path="url(#clip612)" style="stroke:#000000; stroke-linecap:round; stroke-linejoin:round; stroke-width:2; stroke-opacity:0.1; fill:none" points="147.478,1291.96 2352.76,1291.96 "/>
<polyline clip-path="url(#clip612)" style="stroke:#000000; stroke-linecap:round; stroke-linejoin:round; stroke-width:2; stroke-opacity:0.1; fill:none" points="147.478,1011.28 2352.76,1011.28 "/>
<polyline clip-path="url(#clip612)" style="stroke:#000000; stroke-linecap:round; stroke-linejoin:round; stroke-width:2; stroke-opacity:0.1; fill:none" points="147.478,730.599 2352.76,730.599 "/>
<polyline clip-path="url(#clip612)" style="stroke:#000000; stroke-linecap:round; stroke-linejoin:round; stroke-width:2; stroke-opacity:0.1; fill:none" points="147.478,449.918 2352.76,449.918 "/>
<polyline clip-path="url(#clip612)" style="stroke:#000000; stroke-linecap:round; stroke-linejoin:round; stroke-width:2; stroke-opacity:0.1; fill:none" points="147.478,169.237 2352.76,169.237 "/>
<polyline clip-path="url(#clip610)" style="stroke:#000000; stroke-linecap:round; stroke-linejoin:round; stroke-width:4; stroke-opacity:1; fill:none" points="147.478,1486.45 2352.76,1486.45 "/>
<polyline clip-path="url(#clip610)" style="stroke:#000000; stroke-linecap:round; stroke-linejoin:round; stroke-width:4; stroke-opacity:1; fill:none" points="348.789,1486.45 348.789,1467.55 "/>
<polyline clip-path="url(#clip610)" style="stroke:#000000; stroke-linecap:round; stroke-linejoin:round; stroke-width:4; stroke-opacity:1; fill:none" points="838.427,1486.45 838.427,1467.55 "/>
<polyline clip-path="url(#clip610)" style="stroke:#000000; stroke-linecap:round; stroke-linejoin:round; stroke-width:4; stroke-opacity:1; fill:none" points="1328.07,1486.45 1328.07,1467.55 "/>
<polyline clip-path="url(#clip610)" style="stroke:#000000; stroke-linecap:round; stroke-linejoin:round; stroke-width:4; stroke-opacity:1; fill:none" points="1817.7,1486.45 1817.7,1467.55 "/>
<polyline clip-path="url(#clip610)" style="stroke:#000000; stroke-linecap:round; stroke-linejoin:round; stroke-width:4; stroke-opacity:1; fill:none" points="2307.34,1486.45 2307.34,1467.55 "/>
<path clip-path="url(#clip610)" d="M318.731 1532.02 L348.407 1532.02 L348.407 1535.95 L318.731 1535.95 L318.731 1532.02 Z" fill="#000000" fill-rule="nonzero" fill-opacity="1" /><path clip-path="url(#clip610)" d="M362.527 1544.91 L378.846 1544.91 L378.846 1548.85 L356.902 1548.85 L356.902 1544.91 Q359.564 1542.16 364.147 1537.53 Q368.754 1532.88 369.934 1531.53 Q372.18 1529.01 373.059 1527.27 Q373.962 1525.51 373.962 1523.82 Q373.962 1521.07 372.018 1519.33 Q370.096 1517.6 366.995 1517.6 Q364.796 1517.6 362.342 1518.36 Q359.911 1519.13 357.134 1520.68 L357.134 1515.95 Q359.958 1514.82 362.411 1514.24 Q364.865 1513.66 366.902 1513.66 Q372.272 1513.66 375.467 1516.35 Q378.661 1519.03 378.661 1523.52 Q378.661 1525.65 377.851 1527.57 Q377.064 1529.47 374.957 1532.07 Q374.379 1532.74 371.277 1535.95 Q368.175 1539.15 362.527 1544.91 Z" fill="#000000" fill-rule="nonzero" fill-opacity="1" /><path clip-path="url(#clip610)" d="M808.184 1532.02 L837.86 1532.02 L837.86 1535.95 L808.184 1535.95 L808.184 1532.02 Z" fill="#000000" fill-rule="nonzero" fill-opacity="1" /><path clip-path="url(#clip610)" d="M848.763 1544.91 L856.402 1544.91 L856.402 1518.55 L848.091 1520.21 L848.091 1515.95 L856.355 1514.29 L861.031 1514.29 L861.031 1544.91 L868.67 1544.91 L868.67 1548.85 L848.763 1548.85 L848.763 1544.91 Z" fill="#000000" fill-rule="nonzero" fill-opacity="1" /><path clip-path="url(#clip610)" d="M1328.07 1517.37 Q1324.45 1517.37 1322.63 1520.93 Q1320.82 1524.47 1320.82 1531.6 Q1320.82 1538.71 1322.63 1542.27 Q1324.45 1545.82 1328.07 1545.82 Q1331.7 1545.82 1333.51 1542.27 Q1335.33 1538.71 1335.33 1531.6 Q1335.33 1524.47 1333.51 1520.93 Q1331.7 1517.37 1328.07 1517.37 M1328.07 1513.66 Q1333.88 1513.66 1336.93 1518.27 Q1340.01 1522.85 1340.01 1531.6 Q1340.01 1540.33 1336.93 1544.94 Q1333.88 1549.52 1328.07 1549.52 Q1322.26 1549.52 1319.18 1544.94 Q1316.12 1540.33 1316.12 1531.6 Q1316.12 1522.85 1319.18 1518.27 Q1322.26 1513.66 1328.07 1513.66 Z" fill="#000000" fill-rule="nonzero" fill-opacity="1" /><path clip-path="url(#clip610)" d="M1808.09 1544.91 L1815.73 1544.91 L1815.73 1518.55 L1807.41 1520.21 L1807.41 1515.95 L1815.68 1514.29 L1820.35 1514.29 L1820.35 1544.91 L1827.99 1544.91 L1827.99 1548.85 L1808.09 1548.85 L1808.09 1544.91 Z" fill="#000000" fill-rule="nonzero" fill-opacity="1" /><path clip-path="url(#clip610)" d="M2302 1544.91 L2318.31 1544.91 L2318.31 1548.85 L2296.37 1548.85 L2296.37 1544.91 Q2299.03 1542.16 2303.62 1537.53 Q2308.22 1532.88 2309.4 1531.53 Q2311.65 1529.01 2312.53 1527.27 Q2313.43 1525.51 2313.43 1523.82 Q2313.43 1521.07 2311.49 1519.33 Q2309.56 1517.6 2306.46 1517.6 Q2304.26 1517.6 2301.81 1518.36 Q2299.38 1519.13 2296.6 1520.68 L2296.6 1515.95 Q2299.43 1514.82 2301.88 1514.24 Q2304.33 1513.66 2306.37 1513.66 Q2311.74 1513.66 2314.94 1516.35 Q2318.13 1519.03 2318.13 1523.52 Q2318.13 1525.65 2317.32 1527.57 Q2316.53 1529.47 2314.43 1532.07 Q2313.85 1532.74 2310.75 1535.95 Q2307.64 1539.15 2302 1544.91 Z" fill="#000000" fill-rule="nonzero" fill-opacity="1" /><polyline clip-path="url(#clip610)" style="stroke:#000000; stroke-linecap:round; stroke-linejoin:round; stroke-width:4; stroke-opacity:1; fill:none" points="147.478,1486.45 147.478,47.2441 "/>
<polyline clip-path="url(#clip610)" style="stroke:#000000; stroke-linecap:round; stroke-linejoin:round; stroke-width:4; stroke-opacity:1; fill:none" points="147.478,1291.96 166.376,1291.96 "/>
<polyline clip-path="url(#clip610)" style="stroke:#000000; stroke-linecap:round; stroke-linejoin:round; stroke-width:4; stroke-opacity:1; fill:none" points="147.478,1011.28 166.376,1011.28 "/>
<polyline clip-path="url(#clip610)" style="stroke:#000000; stroke-linecap:round; stroke-linejoin:round; stroke-width:4; stroke-opacity:1; fill:none" points="147.478,730.599 166.376,730.599 "/>
<polyline clip-path="url(#clip610)" style="stroke:#000000; stroke-linecap:round; stroke-linejoin:round; stroke-width:4; stroke-opacity:1; fill:none" points="147.478,449.918 166.376,449.918 "/>
<polyline clip-path="url(#clip610)" style="stroke:#000000; stroke-linecap:round; stroke-linejoin:round; stroke-width:4; stroke-opacity:1; fill:none" points="147.478,169.237 166.376,169.237 "/>
<path clip-path="url(#clip610)" d="M51.3625 1292.41 L81.0383 1292.41 L81.0383 1296.35 L51.3625 1296.35 L51.3625 1292.41 Z" fill="#000000" fill-rule="nonzero" fill-opacity="1" /><path clip-path="url(#clip610)" d="M95.1586 1305.31 L111.478 1305.31 L111.478 1309.24 L89.5336 1309.24 L89.5336 1305.31 Q92.1956 1302.55 96.7789 1297.92 Q101.385 1293.27 102.566 1291.93 Q104.811 1289.4 105.691 1287.67 Q106.594 1285.91 106.594 1284.22 Q106.594 1281.46 104.649 1279.73 Q102.728 1277.99 99.6261 1277.99 Q97.4271 1277.99 94.9734 1278.75 Q92.5428 1279.52 89.7651 1281.07 L89.7651 1276.35 Q92.5891 1275.21 95.0428 1274.63 Q97.4965 1274.06 99.5335 1274.06 Q104.904 1274.06 108.098 1276.74 Q111.293 1279.43 111.293 1283.92 Q111.293 1286.05 110.483 1287.97 Q109.696 1289.87 107.589 1292.46 Q107.01 1293.13 103.909 1296.35 Q100.807 1299.54 95.1586 1305.31 Z" fill="#000000" fill-rule="nonzero" fill-opacity="1" /><path clip-path="url(#clip610)" d="M50.9921 1011.73 L80.6679 1011.73 L80.6679 1015.67 L50.9921 1015.67 L50.9921 1011.73 Z" fill="#000000" fill-rule="nonzero" fill-opacity="1" /><path clip-path="url(#clip610)" d="M91.5706 1024.62 L99.2095 1024.62 L99.2095 998.259 L90.8993 999.926 L90.8993 995.667 L99.1632 994 L103.839 994 L103.839 1024.62 L111.478 1024.62 L111.478 1028.56 L91.5706 1028.56 L91.5706 1024.62 Z" fill="#000000" fill-rule="nonzero" fill-opacity="1" /><path clip-path="url(#clip610)" d="M99.5335 716.398 Q95.9224 716.398 94.0937 719.962 Q92.2882 723.504 92.2882 730.634 Q92.2882 737.74 94.0937 741.305 Q95.9224 744.846 99.5335 744.846 Q103.168 744.846 104.973 741.305 Q106.802 737.74 106.802 730.634 Q106.802 723.504 104.973 719.962 Q103.168 716.398 99.5335 716.398 M99.5335 712.694 Q105.344 712.694 108.399 717.3 Q111.478 721.884 111.478 730.634 Q111.478 739.36 108.399 743.967 Q105.344 748.55 99.5335 748.55 Q93.7234 748.55 90.6447 743.967 Q87.5892 739.36 87.5892 730.634 Q87.5892 721.884 90.6447 717.3 Q93.7234 712.694 99.5335 712.694 Z" fill="#000000" fill-rule="nonzero" fill-opacity="1" /><path clip-path="url(#clip610)" d="M91.5706 463.263 L99.2095 463.263 L99.2095 436.897 L90.8993 438.564 L90.8993 434.304 L99.1632 432.638 L103.839 432.638 L103.839 463.263 L111.478 463.263 L111.478 467.198 L91.5706 467.198 L91.5706 463.263 Z" fill="#000000" fill-rule="nonzero" fill-opacity="1" /><path clip-path="url(#clip610)" d="M95.1586 182.582 L111.478 182.582 L111.478 186.517 L89.5336 186.517 L89.5336 182.582 Q92.1956 179.827 96.7789 175.197 Q101.385 170.545 102.566 169.202 Q104.811 166.679 105.691 164.943 Q106.594 163.184 106.594 161.494 Q106.594 158.739 104.649 157.003 Q102.728 155.267 99.6261 155.267 Q97.4271 155.267 94.9734 156.031 Q92.5428 156.795 89.7651 158.346 L89.7651 153.623 Q92.5891 152.489 95.0428 151.911 Q97.4965 151.332 99.5335 151.332 Q104.904 151.332 108.098 154.017 Q111.293 156.702 111.293 161.193 Q111.293 163.322 110.483 165.244 Q109.696 167.142 107.589 169.734 Q107.01 170.406 103.909 173.623 Q100.807 176.818 95.1586 182.582 Z" fill="#000000" fill-rule="nonzero" fill-opacity="1" /><circle clip-path="url(#clip612)" cx="1320.98" cy="540.663" r="14.4" fill="#009af9" fill-rule="evenodd" fill-opacity="0.5" stroke="#000000" stroke-opacity="0.5" stroke-width="3.2"/>
<circle clip-path="url(#clip612)" cx="1553.56" cy="501.998" r="14.4" fill="#009af9" fill-rule="evenodd" fill-opacity="0.5" stroke="#000000" stroke-opacity="0.5" stroke-width="3.2"/>
<circle clip-path="url(#clip612)" cx="941.337" cy="645.659" r="14.4" fill="#009af9" fill-rule="evenodd" fill-opacity="0.5" stroke="#000000" stroke-opacity="0.5" stroke-width="3.2"/>
<circle clip-path="url(#clip612)" cx="1741.13" cy="743.429" r="14.4" fill="#009af9" fill-rule="evenodd" fill-opacity="0.5" stroke="#000000" stroke-opacity="0.5" stroke-width="3.2"/>
<circle clip-path="url(#clip612)" cx="1328.67" cy="858.813" r="14.4" fill="#009af9" fill-rule="evenodd" fill-opacity="0.5" stroke="#000000" stroke-opacity="0.5" stroke-width="3.2"/>
<circle clip-path="url(#clip612)" cx="1546.59" cy="577.475" r="14.4" fill="#009af9" fill-rule="evenodd" fill-opacity="0.5" stroke="#000000" stroke-opacity="0.5" stroke-width="3.2"/>
<circle clip-path="url(#clip612)" cx="1732.95" cy="558.048" r="14.4" fill="#009af9" fill-rule="evenodd" fill-opacity="0.5" stroke="#000000" stroke-opacity="0.5" stroke-width="3.2"/>
<circle clip-path="url(#clip612)" cx="1140.69" cy="1005.42" r="14.4" fill="#009af9" fill-rule="evenodd" fill-opacity="0.5" stroke="#000000" stroke-opacity="0.5" stroke-width="3.2"/>
<circle clip-path="url(#clip612)" cx="689.464" cy="1134.7" r="14.4" fill="#009af9" fill-rule="evenodd" fill-opacity="0.5" stroke="#000000" stroke-opacity="0.5" stroke-width="3.2"/>
<circle clip-path="url(#clip612)" cx="1290.44" cy="680.089" r="14.4" fill="#009af9" fill-rule="evenodd" fill-opacity="0.5" stroke="#000000" stroke-opacity="0.5" stroke-width="3.2"/>
<circle clip-path="url(#clip612)" cx="1443.31" cy="514.384" r="14.4" fill="#009af9" fill-rule="evenodd" fill-opacity="0.5" stroke="#000000" stroke-opacity="0.5" stroke-width="3.2"/>
<circle clip-path="url(#clip612)" cx="1491.59" cy="1065.4" r="14.4" fill="#009af9" fill-rule="evenodd" fill-opacity="0.5" stroke="#000000" stroke-opacity="0.5" stroke-width="3.2"/>
<circle clip-path="url(#clip612)" cx="2290.34" cy="819.073" r="14.4" fill="#009af9" fill-rule="evenodd" fill-opacity="0.5" stroke="#000000" stroke-opacity="0.5" stroke-width="3.2"/>
<circle clip-path="url(#clip612)" cx="1162.58" cy="1445.72" r="14.4" fill="#009af9" fill-rule="evenodd" fill-opacity="0.5" stroke="#000000" stroke-opacity="0.5" stroke-width="3.2"/>
<circle clip-path="url(#clip612)" cx="1892.03" cy="902.281" r="14.4" fill="#009af9" fill-rule="evenodd" fill-opacity="0.5" stroke="#000000" stroke-opacity="0.5" stroke-width="3.2"/>
<circle clip-path="url(#clip612)" cx="1695.37" cy="480.269" r="14.4" fill="#009af9" fill-rule="evenodd" fill-opacity="0.5" stroke="#000000" stroke-opacity="0.5" stroke-width="3.2"/>
<circle clip-path="url(#clip612)" cx="986.952" cy="677.973" r="14.4" fill="#009af9" fill-rule="evenodd" fill-opacity="0.5" stroke="#000000" stroke-opacity="0.5" stroke-width="3.2"/>
<circle clip-path="url(#clip612)" cx="1534.05" cy="926.401" r="14.4" fill="#009af9" fill-rule="evenodd" fill-opacity="0.5" stroke="#000000" stroke-opacity="0.5" stroke-width="3.2"/>
<circle clip-path="url(#clip612)" cx="1634.19" cy="1047.23" r="14.4" fill="#009af9" fill-rule="evenodd" fill-opacity="0.5" stroke="#000000" stroke-opacity="0.5" stroke-width="3.2"/>
<circle clip-path="url(#clip612)" cx="1731.11" cy="1152.47" r="14.4" fill="#009af9" fill-rule="evenodd" fill-opacity="0.5" stroke="#000000" stroke-opacity="0.5" stroke-width="3.2"/>
<circle clip-path="url(#clip612)" cx="209.891" cy="722.903" r="14.4" fill="#009af9" fill-rule="evenodd" fill-opacity="0.5" stroke="#000000" stroke-opacity="0.5" stroke-width="3.2"/>
<circle clip-path="url(#clip612)" cx="1361.01" cy="944.124" r="14.4" fill="#009af9" fill-rule="evenodd" fill-opacity="0.5" stroke="#000000" stroke-opacity="0.5" stroke-width="3.2"/>
<circle clip-path="url(#clip612)" cx="1024.9" cy="1077.69" r="14.4" fill="#009af9" fill-rule="evenodd" fill-opacity="0.5" stroke="#000000" stroke-opacity="0.5" stroke-width="3.2"/>
<circle clip-path="url(#clip612)" cx="1392.59" cy="415.44" r="14.4" fill="#009af9" fill-rule="evenodd" fill-opacity="0.5" stroke="#000000" stroke-opacity="0.5" stroke-width="3.2"/>
<circle clip-path="url(#clip612)" cx="1878.24" cy="603.836" r="14.4" fill="#009af9" fill-rule="evenodd" fill-opacity="0.5" stroke="#000000" stroke-opacity="0.5" stroke-width="3.2"/>
<circle clip-path="url(#clip612)" cx="1658.01" cy="870.062" r="14.4" fill="#009af9" fill-rule="evenodd" fill-opacity="0.5" stroke="#000000" stroke-opacity="0.5" stroke-width="3.2"/>
<circle clip-path="url(#clip612)" cx="1514.71" cy="981.545" r="14.4" fill="#009af9" fill-rule="evenodd" fill-opacity="0.5" stroke="#000000" stroke-opacity="0.5" stroke-width="3.2"/>
<circle clip-path="url(#clip612)" cx="1817.76" cy="87.9763" r="14.4" fill="#009af9" fill-rule="evenodd" fill-opacity="0.5" stroke="#000000" stroke-opacity="0.5" stroke-width="3.2"/>
<circle clip-path="url(#clip612)" cx="1223.73" cy="873.376" r="14.4" fill="#009af9" fill-rule="evenodd" fill-opacity="0.5" stroke="#000000" stroke-opacity="0.5" stroke-width="3.2"/>
<circle clip-path="url(#clip612)" cx="2184.23" cy="793.283" r="14.4" fill="#009af9" fill-rule="evenodd" fill-opacity="0.5" stroke="#000000" stroke-opacity="0.5" stroke-width="3.2"/>
<path clip-path="url(#clip612)" d="M209.891 722.903 L689.464 1134.7 L1162.58 1445.72 L1731.11 1152.47 L2290.34 819.073 L1817.76 87.9763 L209.891 722.903 L209.891 722.903  Z" fill="#e26f46" fill-rule="evenodd" fill-opacity="0.2"/>
<polyline clip-path="url(#clip612)" style="stroke:#000000; stroke-linecap:round; stroke-linejoin:round; stroke-width:4; stroke-opacity:0.2; fill:none" points="209.891,722.903 689.464,1134.7 1162.58,1445.72 1731.11,1152.47 2290.34,819.073 1817.76,87.9763 209.891,722.903 "/>
</svg>
