<?xml version="1.0" encoding="utf-8"?>
<svg xmlns="http://www.w3.org/2000/svg" xmlns:xlink="http://www.w3.org/1999/xlink" width="600" height="400" viewBox="0 0 2400 1600">
<defs>
  <clipPath id="clip430">
    <rect x="0" y="0" width="2400" height="1600"/>
  </clipPath>
</defs>
<path clip-path="url(#clip430)" d="M0 1600 L2400 1600 L2400 0 L0 0  Z" fill="#ffffff" fill-rule="evenodd" fill-opacity="1"/>
<defs>
  <clipPath id="clip431">
    <rect x="480" y="0" width="1681" height="1600"/>
  </clipPath>
</defs>
<path clip-path="url(#clip430)" d="M147.478 1486.45 L2352.76 1486.45 L2352.76 47.2441 L147.478 47.2441  Z" fill="#ffffff" fill-rule="evenodd" fill-opacity="1"/>
<defs>
  <clipPath id="clip432">
    <rect x="147" y="47" width="2206" height="1440"/>
  </clipPath>
</defs>
<polyline clip-path="url(#clip432)" style="stroke:#000000; stroke-linecap:round; stroke-linejoin:round; stroke-width:2; stroke-opacity:0.1; fill:none" points="197.593,1486.45 197.593,47.2441 "/>
<polyline clip-path="url(#clip432)" style="stroke:#000000; stroke-linecap:round; stroke-linejoin:round; stroke-width:2; stroke-opacity:0.1; fill:none" points="795.943,1486.45 795.943,47.2441 "/>
<polyline clip-path="url(#clip432)" style="stroke:#000000; stroke-linecap:round; stroke-linejoin:round; stroke-width:2; stroke-opacity:0.1; fill:none" points="1394.29,1486.45 1394.29,47.2441 "/>
<polyline clip-path="url(#clip432)" style="stroke:#000000; stroke-linecap:round; stroke-linejoin:round; stroke-width:2; stroke-opacity:0.1; fill:none" points="1992.64,1486.45 1992.64,47.2441 "/>
<polyline clip-path="url(#clip432)" style="stroke:#000000; stroke-linecap:round; stroke-linejoin:round; stroke-width:2; stroke-opacity:0.1; fill:none" points="147.478,1430.71 2352.76,1430.71 "/>
<polyline clip-path="url(#clip432)" style="stroke:#000000; stroke-linecap:round; stroke-linejoin:round; stroke-width:2; stroke-opacity:0.1; fill:none" points="147.478,1150.11 2352.76,1150.11 "/>
<polyline clip-path="url(#clip432)" style="stroke:#000000; stroke-linecap:round; stroke-linejoin:round; stroke-width:2; stroke-opacity:0.1; fill:none" points="147.478,869.517 2352.76,869.517 "/>
<polyline clip-path="url(#clip432)" style="stroke:#000000; stroke-linecap:round; stroke-linejoin:round; stroke-width:2; stroke-opacity:0.1; fill:none" points="147.478,588.92 2352.76,588.92 "/>
<polyline clip-path="url(#clip432)" style="stroke:#000000; stroke-linecap:round; stroke-linejoin:round; stroke-width:2; stroke-opacity:0.1; fill:none" points="147.478,308.324 2352.76,308.324 "/>
<polyline clip-path="url(#clip430)" style="stroke:#000000; stroke-linecap:round; stroke-linejoin:round; stroke-width:4; stroke-opacity:1; fill:none" points="147.478,1486.45 2352.76,1486.45 "/>
<polyline clip-path="url(#clip430)" style="stroke:#000000; stroke-linecap:round; stroke-linejoin:round; stroke-width:4; stroke-opacity:1; fill:none" points="197.593,1486.45 197.593,1467.55 "/>
<polyline clip-path="url(#clip430)" style="stroke:#000000; stroke-linecap:round; stroke-linejoin:round; stroke-width:4; stroke-opacity:1; fill:none" points="795.943,1486.45 795.943,1467.55 "/>
<polyline clip-path="url(#clip430)" style="stroke:#000000; stroke-linecap:round; stroke-linejoin:round; stroke-width:4; stroke-opacity:1; fill:none" points="1394.29,1486.45 1394.29,1467.55 "/>
<polyline clip-path="url(#clip430)" style="stroke:#000000; stroke-linecap:round; stroke-linejoin:round; stroke-width:4; stroke-opacity:1; fill:none" points="1992.64,1486.45 1992.64,1467.55 "/>
<path clip-path="url(#clip430)" d="M167.535 1532.02 L197.211 1532.02 L197.211 1535.95 L167.535 1535.95 L167.535 1532.02 Z" fill="#000000" fill-rule="nonzero" fill-opacity="1" /><path clip-path="url(#clip430)" d="M211.331 1544.91 L227.651 1544.91 L227.651 1548.85 L205.706 1548.85 L205.706 1544.91 Q208.369 1542.16 212.952 1537.53 Q217.558 1532.88 218.739 1531.53 Q220.984 1529.01 221.864 1527.27 Q222.767 1525.51 222.767 1523.82 Q222.767 1521.07 220.822 1519.33 Q218.901 1517.6 215.799 1517.6 Q213.6 1517.6 211.146 1518.36 Q208.716 1519.13 205.938 1520.68 L205.938 1515.95 Q208.762 1514.82 211.216 1514.24 Q213.669 1513.66 215.706 1513.66 Q221.077 1513.66 224.271 1516.35 Q227.466 1519.03 227.466 1523.52 Q227.466 1525.65 226.655 1527.57 Q225.868 1529.47 223.762 1532.07 Q223.183 1532.74 220.081 1535.95 Q216.98 1539.15 211.331 1544.91 Z" fill="#000000" fill-rule="nonzero" fill-opacity="1" /><path clip-path="url(#clip430)" d="M765.7 1532.02 L795.376 1532.02 L795.376 1535.95 L765.7 1535.95 L765.7 1532.02 Z" fill="#000000" fill-rule="nonzero" fill-opacity="1" /><path clip-path="url(#clip430)" d="M806.279 1544.91 L813.917 1544.91 L813.917 1518.55 L805.607 1520.21 L805.607 1515.95 L813.871 1514.29 L818.547 1514.29 L818.547 1544.91 L826.186 1544.91 L826.186 1548.85 L806.279 1548.85 L806.279 1544.91 Z" fill="#000000" fill-rule="nonzero" fill-opacity="1" /><path clip-path="url(#clip430)" d="M1394.29 1517.37 Q1390.68 1517.37 1388.85 1520.93 Q1387.05 1524.47 1387.05 1531.6 Q1387.05 1538.71 1388.85 1542.27 Q1390.68 1545.82 1394.29 1545.82 Q1397.93 1545.82 1399.73 1542.27 Q1401.56 1538.71 1401.56 1531.6 Q1401.56 1524.47 1399.73 1520.93 Q1397.93 1517.37 1394.29 1517.37 M1394.29 1513.66 Q1400.1 1513.66 1403.16 1518.27 Q1406.24 1522.85 1406.24 1531.6 Q1406.24 1540.33 1403.16 1544.94 Q1400.1 1549.52 1394.29 1549.52 Q1388.48 1549.52 1385.4 1544.94 Q1382.35 1540.33 1382.35 1531.6 Q1382.35 1522.85 1385.4 1518.27 Q1388.48 1513.66 1394.29 1513.66 Z" fill="#000000" fill-rule="nonzero" fill-opacity="1" /><path clip-path="url(#clip430)" d="M1983.02 1544.91 L1990.66 1544.91 L1990.66 1518.55 L1982.35 1520.21 L1982.35 1515.95 L1990.62 1514.29 L1995.29 1514.29 L1995.29 1544.91 L2002.93 1544.91 L2002.93 1548.85 L1983.02 1548.85 L1983.02 1544.91 Z" fill="#000000" fill-rule="nonzero" fill-opacity="1" /><polyline clip-path="url(#clip430)" style="stroke:#000000; stroke-linecap:round; stroke-linejoin:round; stroke-width:4; stroke-opacity:1; fill:none" points="147.478,1486.45 147.478,47.2441 "/>
<polyline clip-path="url(#clip430)" style="stroke:#000000; stroke-linecap:round; stroke-linejoin:round; stroke-width:4; stroke-opacity:1; fill:none" points="147.478,1430.71 166.376,1430.71 "/>
<polyline clip-path="url(#clip430)" style="stroke:#000000; stroke-linecap:round; stroke-linejoin:round; stroke-width:4; stroke-opacity:1; fill:none" points="147.478,1150.11 166.376,1150.11 "/>
<polyline clip-path="url(#clip430)" style="stroke:#000000; stroke-linecap:round; stroke-linejoin:round; stroke-width:4; stroke-opacity:1; fill:none" points="147.478,869.517 166.376,869.517 "/>
<polyline clip-path="url(#clip430)" style="stroke:#000000; stroke-linecap:round; stroke-linejoin:round; stroke-width:4; stroke-opacity:1; fill:none" points="147.478,588.92 166.376,588.92 "/>
<polyline clip-path="url(#clip430)" style="stroke:#000000; stroke-linecap:round; stroke-linejoin:round; stroke-width:4; stroke-opacity:1; fill:none" points="147.478,308.324 166.376,308.324 "/>
<path clip-path="url(#clip430)" d="M51.3625 1431.16 L81.0383 1431.16 L81.0383 1435.1 L51.3625 1435.1 L51.3625 1431.16 Z" fill="#000000" fill-rule="nonzero" fill-opacity="1" /><path clip-path="url(#clip430)" d="M95.1586 1444.05 L111.478 1444.05 L111.478 1447.99 L89.5336 1447.99 L89.5336 1444.05 Q92.1956 1441.3 96.7789 1436.67 Q101.385 1432.02 102.566 1430.68 Q104.811 1428.15 105.691 1426.42 Q106.594 1424.66 106.594 1422.97 Q106.594 1420.21 104.649 1418.48 Q102.728 1416.74 99.6261 1416.74 Q97.4271 1416.74 94.9734 1417.5 Q92.5428 1418.27 89.7651 1419.82 L89.7651 1415.1 Q92.5891 1413.96 95.0428 1413.38 Q97.4965 1412.8 99.5335 1412.8 Q104.904 1412.8 108.098 1415.49 Q111.293 1418.18 111.293 1422.67 Q111.293 1424.8 110.483 1426.72 Q109.696 1428.61 107.589 1431.21 Q107.01 1431.88 103.909 1435.1 Q100.807 1438.29 95.1586 1444.05 Z" fill="#000000" fill-rule="nonzero" fill-opacity="1" /><path clip-path="url(#clip430)" d="M50.9921 1150.56 L80.6679 1150.56 L80.6679 1154.5 L50.9921 1154.5 L50.9921 1150.56 Z" fill="#000000" fill-rule="nonzero" fill-opacity="1" /><path clip-path="url(#clip430)" d="M91.5706 1163.46 L99.2095 1163.46 L99.2095 1137.09 L90.8993 1138.76 L90.8993 1134.5 L99.1632 1132.83 L103.839 1132.83 L103.839 1163.46 L111.478 1163.46 L111.478 1167.39 L91.5706 1167.39 L91.5706 1163.46 Z" fill="#000000" fill-rule="nonzero" fill-opacity="1" /><path clip-path="url(#clip430)" d="M99.5335 855.315 Q95.9224 855.315 94.0937 858.88 Q92.2882 862.422 92.2882 869.551 Q92.2882 876.658 94.0937 880.223 Q95.9224 883.764 99.5335 883.764 Q103.168 883.764 104.973 880.223 Q106.802 876.658 106.802 869.551 Q106.802 862.422 104.973 858.88 Q103.168 855.315 99.5335 855.315 M99.5335 851.612 Q105.344 851.612 108.399 856.218 Q111.478 860.802 111.478 869.551 Q111.478 878.278 108.399 882.885 Q105.344 887.468 99.5335 887.468 Q93.7234 887.468 90.6447 882.885 Q87.5892 878.278 87.5892 869.551 Q87.5892 860.802 90.6447 856.218 Q93.7234 851.612 99.5335 851.612 Z" fill="#000000" fill-rule="nonzero" fill-opacity="1" /><path clip-path="url(#clip430)" d="M91.5706 602.265 L99.2095 602.265 L99.2095 575.899 L90.8993 577.566 L90.8993 573.307 L99.1632 571.64 L103.839 571.64 L103.839 602.265 L111.478 602.265 L111.478 606.2 L91.5706 606.2 L91.5706 602.265 Z" fill="#000000" fill-rule="nonzero" fill-opacity="1" /><path clip-path="url(#clip430)" d="M95.1586 321.669 L111.478 321.669 L111.478 325.604 L89.5336 325.604 L89.5336 321.669 Q92.1956 318.914 96.7789 314.284 Q101.385 309.632 102.566 308.289 Q104.811 305.766 105.691 304.03 Q106.594 302.27 106.594 300.581 Q106.594 297.826 104.649 296.09 Q102.728 294.354 99.6261 294.354 Q97.4271 294.354 94.9734 295.118 Q92.5428 295.882 89.7651 297.433 L89.7651 292.71 Q92.5891 291.576 95.0428 290.997 Q97.4965 290.419 99.5335 290.419 Q104.904 290.419 108.098 293.104 Q111.293 295.789 111.293 300.28 Q111.293 302.409 110.483 304.331 Q109.696 306.229 107.589 308.821 Q107.01 309.493 103.909 312.71 Q100.807 315.905 95.1586 321.669 Z" fill="#000000" fill-rule="nonzero" fill-opacity="1" /><circle clip-path="url(#clip432)" cx="828.779" cy="942.852" r="14.4" fill="#009af9" fill-rule="evenodd" fill-opacity="0.5" stroke="#000000" stroke-opacity="0.5" stroke-width="3.2"/>
<circle clip-path="url(#clip432)" cx="2144.4" cy="641.032" r="14.4" fill="#009af9" fill-rule="evenodd" fill-opacity="0.5" stroke="#000000" stroke-opacity="0.5" stroke-width="3.2"/>
<circle clip-path="url(#clip432)" cx="853.352" cy="694.864" r="14.4" fill="#009af9" fill-rule="evenodd" fill-opacity="0.5" stroke="#000000" stroke-opacity="0.5" stroke-width="3.2"/>
<circle clip-path="url(#clip432)" cx="1043.11" cy="966.57" r="14.4" fill="#009af9" fill-rule="evenodd" fill-opacity="0.5" stroke="#000000" stroke-opacity="0.5" stroke-width="3.2"/>
<circle clip-path="url(#clip432)" cx="1247.39" cy="727.574" r="14.4" fill="#009af9" fill-rule="evenodd" fill-opacity="0.5" stroke="#000000" stroke-opacity="0.5" stroke-width="3.2"/>
<circle clip-path="url(#clip432)" cx="1666.55" cy="1445.72" r="14.4" fill="#009af9" fill-rule="evenodd" fill-opacity="0.5" stroke="#000000" stroke-opacity="0.5" stroke-width="3.2"/>
<circle clip-path="url(#clip432)" cx="1203.25" cy="87.9763" r="14.4" fill="#009af9" fill-rule="evenodd" fill-opacity="0.5" stroke="#000000" stroke-opacity="0.5" stroke-width="3.2"/>
<circle clip-path="url(#clip432)" cx="1807.29" cy="1208.38" r="14.4" fill="#009af9" fill-rule="evenodd" fill-opacity="0.5" stroke="#000000" stroke-opacity="0.5" stroke-width="3.2"/>
<circle clip-path="url(#clip432)" cx="2290.34" cy="1208.91" r="14.4" fill="#009af9" fill-rule="evenodd" fill-opacity="0.5" stroke="#000000" stroke-opacity="0.5" stroke-width="3.2"/>
<circle clip-path="url(#clip432)" cx="914.148" cy="1097.56" r="14.4" fill="#009af9" fill-rule="evenodd" fill-opacity="0.5" stroke="#000000" stroke-opacity="0.5" stroke-width="3.2"/>
<circle clip-path="url(#clip432)" cx="209.891" cy="1039.25" r="14.4" fill="#009af9" fill-rule="evenodd" fill-opacity="0.5" stroke="#000000" stroke-opacity="0.5" stroke-width="3.2"/>
<circle clip-path="url(#clip432)" cx="604.736" cy="918.237" r="14.4" fill="#009af9" fill-rule="evenodd" fill-opacity="0.5" stroke="#000000" stroke-opacity="0.5" stroke-width="3.2"/>
<circle clip-path="url(#clip432)" cx="1212.28" cy="755.557" r="14.4" fill="#009af9" fill-rule="evenodd" fill-opacity="0.5" stroke="#000000" stroke-opacity="0.5" stroke-width="3.2"/>
<circle clip-path="url(#clip432)" cx="713.512" cy="995.265" r="14.4" fill="#009af9" fill-rule="evenodd" fill-opacity="0.5" stroke="#000000" stroke-opacity="0.5" stroke-width="3.2"/>
<circle clip-path="url(#clip432)" cx="1783.4" cy="885.774" r="14.4" fill="#009af9" fill-rule="evenodd" fill-opacity="0.5" stroke="#000000" stroke-opacity="0.5" stroke-width="3.2"/>
<circle clip-path="url(#clip432)" cx="1460.34" cy="587.132" r="14.4" fill="#009af9" fill-rule="evenodd" fill-opacity="0.5" stroke="#000000" stroke-opacity="0.5" stroke-width="3.2"/>
<circle clip-path="url(#clip432)" cx="1046.97" cy="673.181" r="14.4" fill="#009af9" fill-rule="evenodd" fill-opacity="0.5" stroke="#000000" stroke-opacity="0.5" stroke-width="3.2"/>
<circle clip-path="url(#clip432)" cx="2090.06" cy="914.593" r="14.4" fill="#009af9" fill-rule="evenodd" fill-opacity="0.5" stroke="#000000" stroke-opacity="0.5" stroke-width="3.2"/>
<circle clip-path="url(#clip432)" cx="332.071" cy="598.815" r="14.4" fill="#009af9" fill-rule="evenodd" fill-opacity="0.5" stroke="#000000" stroke-opacity="0.5" stroke-width="3.2"/>
<circle clip-path="url(#clip432)" cx="2000.46" cy="824.139" r="14.4" fill="#009af9" fill-rule="evenodd" fill-opacity="0.5" stroke="#000000" stroke-opacity="0.5" stroke-width="3.2"/>
<circle clip-path="url(#clip432)" cx="1148.53" cy="969.304" r="14.4" fill="#009af9" fill-rule="evenodd" fill-opacity="0.5" stroke="#000000" stroke-opacity="0.5" stroke-width="3.2"/>
<circle clip-path="url(#clip432)" cx="1109.35" cy="1091.61" r="14.4" fill="#009af9" fill-rule="evenodd" fill-opacity="0.5" stroke="#000000" stroke-opacity="0.5" stroke-width="3.2"/>
<circle clip-path="url(#clip432)" cx="1589.43" cy="968.272" r="14.4" fill="#009af9" fill-rule="evenodd" fill-opacity="0.5" stroke="#000000" stroke-opacity="0.5" stroke-width="3.2"/>
<circle clip-path="url(#clip432)" cx="1490.79" cy="1086.38" r="14.4" fill="#009af9" fill-rule="evenodd" fill-opacity="0.5" stroke="#000000" stroke-opacity="0.5" stroke-width="3.2"/>
<circle clip-path="url(#clip432)" cx="1977.83" cy="937.497" r="14.4" fill="#009af9" fill-rule="evenodd" fill-opacity="0.5" stroke="#000000" stroke-opacity="0.5" stroke-width="3.2"/>
<circle clip-path="url(#clip432)" cx="1310.57" cy="965.125" r="14.4" fill="#009af9" fill-rule="evenodd" fill-opacity="0.5" stroke="#000000" stroke-opacity="0.5" stroke-width="3.2"/>
<circle clip-path="url(#clip432)" cx="1019.03" cy="1104.19" r="14.4" fill="#009af9" fill-rule="evenodd" fill-opacity="0.5" stroke="#000000" stroke-opacity="0.5" stroke-width="3.2"/>
<circle clip-path="url(#clip432)" cx="1171.84" cy="1074.74" r="14.4" fill="#009af9" fill-rule="evenodd" fill-opacity="0.5" stroke="#000000" stroke-opacity="0.5" stroke-width="3.2"/>
<circle clip-path="url(#clip432)" cx="1618.7" cy="1077.67" r="14.4" fill="#009af9" fill-rule="evenodd" fill-opacity="0.5" stroke="#000000" stroke-opacity="0.5" stroke-width="3.2"/>
<circle clip-path="url(#clip432)" cx="1860.82" cy="322.691" r="14.4" fill="#009af9" fill-rule="evenodd" fill-opacity="0.5" stroke="#000000" stroke-opacity="0.5" stroke-width="3.2"/>
<path clip-path="url(#clip432)" d="M209.891 1039.25 L1666.55 1445.72 L2290.34 1208.91 L2144.4 641.032 L1860.82 322.691 L1203.25 87.9763 L332.071 598.815 L209.891 1039.25 L209.891 1039.25  Z" fill="#e26f46" fill-rule="evenodd" fill-opacity="0.2"/>
<polyline clip-path="url(#clip432)" style="stroke:#000000; stroke-linecap:round; stroke-linejoin:round; stroke-width:4; stroke-opacity:0.2; fill:none" points="209.891,1039.25 1666.55,1445.72 2290.34,1208.91 2144.4,641.032 1860.82,322.691 1203.25,87.9763 332.071,598.815 209.891,1039.25 "/>
</svg>
