<?xml version="1.0" encoding="utf-8"?>
<svg xmlns="http://www.w3.org/2000/svg" xmlns:xlink="http://www.w3.org/1999/xlink" width="600" height="400" viewBox="0 0 2400 1600">
<defs>
  <clipPath id="clip270">
    <rect x="0" y="0" width="2400" height="1600"/>
  </clipPath>
</defs>
<path clip-path="url(#clip270)" d="M0 1600 L2400 1600 L2400 0 L0 0  Z" fill="#ffffff" fill-rule="evenodd" fill-opacity="1"/>
<defs>
  <clipPath id="clip271">
    <rect x="480" y="0" width="1681" height="1600"/>
  </clipPath>
</defs>
<path clip-path="url(#clip270)" d="M147.478 1486.45 L2352.76 1486.45 L2352.76 47.2441 L147.478 47.2441  Z" fill="#ffffff" fill-rule="evenodd" fill-opacity="1"/>
<defs>
  <clipPath id="clip272">
    <rect x="147" y="47" width="2206" height="1440"/>
  </clipPath>
</defs>
<polyline clip-path="url(#clip272)" style="stroke:#000000; stroke-linecap:round; stroke-linejoin:round; stroke-width:2; stroke-opacity:0.1; fill:none" points="231.676,1486.45 231.676,47.2441 "/>
<polyline clip-path="url(#clip272)" style="stroke:#000000; stroke-linecap:round; stroke-linejoin:round; stroke-width:2; stroke-opacity:0.1; fill:none" points="680.884,1486.45 680.884,47.2441 "/>
<polyline clip-path="url(#clip272)" style="stroke:#000000; stroke-linecap:round; stroke-linejoin:round; stroke-width:2; stroke-opacity:0.1; fill:none" points="1130.09,1486.45 1130.09,47.2441 "/>
<polyline clip-path="url(#clip272)" style="stroke:#000000; stroke-linecap:round; stroke-linejoin:round; stroke-width:2; stroke-opacity:0.1; fill:none" points="1579.3,1486.45 1579.3,47.2441 "/>
<polyline clip-path="url(#clip272)" style="stroke:#000000; stroke-linecap:round; stroke-linejoin:round; stroke-width:2; stroke-opacity:0.1; fill:none" points="2028.51,1486.45 2028.51,47.2441 "/>
<polyline clip-path="url(#clip272)" style="stroke:#000000; stroke-linecap:round; stroke-linejoin:round; stroke-width:2; stroke-opacity:0.1; fill:none" points="147.478,1227.04 2352.76,1227.04 "/>
<polyline clip-path="url(#clip272)" style="stroke:#000000; stroke-linecap:round; stroke-linejoin:round; stroke-width:2; stroke-opacity:0.1; fill:none" points="147.478,866.497 2352.76,866.497 "/>
<polyline clip-path="url(#clip272)" style="stroke:#000000; stroke-linecap:round; stroke-linejoin:round; stroke-width:2; stroke-opacity:0.1; fill:none" points="147.478,505.95 2352.76,505.95 "/>
<polyline clip-path="url(#clip272)" style="stroke:#000000; stroke-linecap:round; stroke-linejoin:round; stroke-width:2; stroke-opacity:0.1; fill:none" points="147.478,145.404 2352.76,145.404 "/>
<polyline clip-path="url(#clip270)" style="stroke:#000000; stroke-linecap:round; stroke-linejoin:round; stroke-width:4; stroke-opacity:1; fill:none" points="147.478,1486.45 2352.76,1486.45 "/>
<polyline clip-path="url(#clip270)" style="stroke:#000000; stroke-linecap:round; stroke-linejoin:round; stroke-width:4; stroke-opacity:1; fill:none" points="231.676,1486.45 231.676,1467.55 "/>
<polyline clip-path="url(#clip270)" style="stroke:#000000; stroke-linecap:round; stroke-linejoin:round; stroke-width:4; stroke-opacity:1; fill:none" points="680.884,1486.45 680.884,1467.55 "/>
<polyline clip-path="url(#clip270)" style="stroke:#000000; stroke-linecap:round; stroke-linejoin:round; stroke-width:4; stroke-opacity:1; fill:none" points="1130.09,1486.45 1130.09,1467.55 "/>
<polyline clip-path="url(#clip270)" style="stroke:#000000; stroke-linecap:round; stroke-linejoin:round; stroke-width:4; stroke-opacity:1; fill:none" points="1579.3,1486.45 1579.3,1467.55 "/>
<polyline clip-path="url(#clip270)" style="stroke:#000000; stroke-linecap:round; stroke-linejoin:round; stroke-width:4; stroke-opacity:1; fill:none" points="2028.51,1486.45 2028.51,1467.55 "/>
<path clip-path="url(#clip270)" d="M201.618 1532.02 L231.294 1532.02 L231.294 1535.95 L201.618 1535.95 L201.618 1532.02 Z" fill="#000000" fill-rule="nonzero" fill-opacity="1" /><path clip-path="url(#clip270)" d="M245.415 1544.91 L261.734 1544.91 L261.734 1548.85 L239.79 1548.85 L239.79 1544.91 Q242.452 1542.16 247.035 1537.53 Q251.641 1532.88 252.822 1531.53 Q255.067 1529.01 255.947 1527.27 Q256.85 1525.51 256.85 1523.82 Q256.85 1521.07 254.905 1519.33 Q252.984 1517.6 249.882 1517.6 Q247.683 1517.6 245.229 1518.36 Q242.799 1519.13 240.021 1520.68 L240.021 1515.95 Q242.845 1514.82 245.299 1514.24 Q247.752 1513.66 249.789 1513.66 Q255.16 1513.66 258.354 1516.35 Q261.549 1519.03 261.549 1523.52 Q261.549 1525.65 260.739 1527.57 Q259.951 1529.47 257.845 1532.07 Q257.266 1532.74 254.164 1535.95 Q251.063 1539.15 245.415 1544.91 Z" fill="#000000" fill-rule="nonzero" fill-opacity="1" /><path clip-path="url(#clip270)" d="M650.641 1532.02 L680.317 1532.02 L680.317 1535.95 L650.641 1535.95 L650.641 1532.02 Z" fill="#000000" fill-rule="nonzero" fill-opacity="1" /><path clip-path="url(#clip270)" d="M691.219 1544.91 L698.858 1544.91 L698.858 1518.55 L690.548 1520.21 L690.548 1515.95 L698.812 1514.29 L703.488 1514.29 L703.488 1544.91 L711.127 1544.91 L711.127 1548.85 L691.219 1548.85 L691.219 1544.91 Z" fill="#000000" fill-rule="nonzero" fill-opacity="1" /><path clip-path="url(#clip270)" d="M1130.09 1517.37 Q1126.48 1517.37 1124.65 1520.93 Q1122.85 1524.47 1122.85 1531.6 Q1122.85 1538.71 1124.65 1542.27 Q1126.48 1545.82 1130.09 1545.82 Q1133.73 1545.82 1135.53 1542.27 Q1137.36 1538.71 1137.36 1531.6 Q1137.36 1524.47 1135.53 1520.93 Q1133.73 1517.37 1130.09 1517.37 M1130.09 1513.66 Q1135.9 1513.66 1138.96 1518.27 Q1142.04 1522.85 1142.04 1531.6 Q1142.04 1540.33 1138.96 1544.94 Q1135.9 1549.52 1130.09 1549.52 Q1124.28 1549.52 1121.2 1544.94 Q1118.15 1540.33 1118.15 1531.6 Q1118.15 1522.85 1121.2 1518.27 Q1124.28 1513.66 1130.09 1513.66 Z" fill="#000000" fill-rule="nonzero" fill-opacity="1" /><path clip-path="url(#clip270)" d="M1569.68 1544.91 L1577.32 1544.91 L1577.32 1518.55 L1569.01 1520.21 L1569.01 1515.95 L1577.27 1514.29 L1581.95 1514.29 L1581.95 1544.91 L1589.59 1544.91 L1589.59 1548.85 L1569.68 1548.85 L1569.68 1544.91 Z" fill="#000000" fill-rule="nonzero" fill-opacity="1" /><path clip-path="url(#clip270)" d="M2023.16 1544.91 L2039.48 1544.91 L2039.48 1548.85 L2017.53 1548.85 L2017.53 1544.91 Q2020.2 1542.16 2024.78 1537.53 Q2029.39 1532.88 2030.57 1531.53 Q2032.81 1529.01 2033.69 1527.27 Q2034.59 1525.51 2034.59 1523.82 Q2034.59 1521.07 2032.65 1519.33 Q2030.73 1517.6 2027.63 1517.6 Q2025.43 1517.6 2022.97 1518.36 Q2020.54 1519.13 2017.77 1520.68 L2017.77 1515.95 Q2020.59 1514.82 2023.04 1514.24 Q2025.5 1513.66 2027.53 1513.66 Q2032.9 1513.66 2036.1 1516.35 Q2039.29 1519.03 2039.29 1523.52 Q2039.29 1525.65 2038.48 1527.57 Q2037.7 1529.47 2035.59 1532.07 Q2035.01 1532.74 2031.91 1535.95 Q2028.81 1539.15 2023.16 1544.91 Z" fill="#000000" fill-rule="nonzero" fill-opacity="1" /><polyline clip-path="url(#clip270)" style="stroke:#000000; stroke-linecap:round; stroke-linejoin:round; stroke-width:4; stroke-opacity:1; fill:none" points="147.478,1486.45 147.478,47.2441 "/>
<polyline clip-path="url(#clip270)" style="stroke:#000000; stroke-linecap:round; stroke-linejoin:round; stroke-width:4; stroke-opacity:1; fill:none" points="147.478,1227.04 166.376,1227.04 "/>
<polyline clip-path="url(#clip270)" style="stroke:#000000; stroke-linecap:round; stroke-linejoin:round; stroke-width:4; stroke-opacity:1; fill:none" points="147.478,866.497 166.376,866.497 "/>
<polyline clip-path="url(#clip270)" style="stroke:#000000; stroke-linecap:round; stroke-linejoin:round; stroke-width:4; stroke-opacity:1; fill:none" points="147.478,505.95 166.376,505.95 "/>
<polyline clip-path="url(#clip270)" style="stroke:#000000; stroke-linecap:round; stroke-linejoin:round; stroke-width:4; stroke-opacity:1; fill:none" points="147.478,145.404 166.376,145.404 "/>
<path clip-path="url(#clip270)" d="M50.9921 1227.49 L80.6679 1227.49 L80.6679 1231.43 L50.9921 1231.43 L50.9921 1227.49 Z" fill="#000000" fill-rule="nonzero" fill-opacity="1" /><path clip-path="url(#clip270)" d="M91.5706 1240.39 L99.2095 1240.39 L99.2095 1214.02 L90.8993 1215.69 L90.8993 1211.43 L99.1632 1209.76 L103.839 1209.76 L103.839 1240.39 L111.478 1240.39 L111.478 1244.32 L91.5706 1244.32 L91.5706 1240.39 Z" fill="#000000" fill-rule="nonzero" fill-opacity="1" /><path clip-path="url(#clip270)" d="M99.5335 852.295 Q95.9224 852.295 94.0937 855.86 Q92.2882 859.402 92.2882 866.531 Q92.2882 873.638 94.0937 877.203 Q95.9224 880.744 99.5335 880.744 Q103.168 880.744 104.973 877.203 Q106.802 873.638 106.802 866.531 Q106.802 859.402 104.973 855.86 Q103.168 852.295 99.5335 852.295 M99.5335 848.592 Q105.344 848.592 108.399 853.198 Q111.478 857.781 111.478 866.531 Q111.478 875.258 108.399 879.865 Q105.344 884.448 99.5335 884.448 Q93.7234 884.448 90.6447 879.865 Q87.5892 875.258 87.5892 866.531 Q87.5892 857.781 90.6447 853.198 Q93.7234 848.592 99.5335 848.592 Z" fill="#000000" fill-rule="nonzero" fill-opacity="1" /><path clip-path="url(#clip270)" d="M91.5706 519.295 L99.2095 519.295 L99.2095 492.929 L90.8993 494.596 L90.8993 490.337 L99.1632 488.67 L103.839 488.67 L103.839 519.295 L111.478 519.295 L111.478 523.23 L91.5706 523.23 L91.5706 519.295 Z" fill="#000000" fill-rule="nonzero" fill-opacity="1" /><path clip-path="url(#clip270)" d="M95.1586 158.748 L111.478 158.748 L111.478 162.684 L89.5336 162.684 L89.5336 158.748 Q92.1956 155.994 96.7789 151.364 Q101.385 146.712 102.566 145.369 Q104.811 142.846 105.691 141.11 Q106.594 139.35 106.594 137.661 Q106.594 134.906 104.649 133.17 Q102.728 131.434 99.6261 131.434 Q97.4271 131.434 94.9734 132.198 Q92.5428 132.962 89.7651 134.513 L89.7651 129.79 Q92.5891 128.656 95.0428 128.077 Q97.4965 127.499 99.5335 127.499 Q104.904 127.499 108.098 130.184 Q111.293 132.869 111.293 137.36 Q111.293 139.489 110.483 141.411 Q109.696 143.309 107.589 145.901 Q107.01 146.573 103.909 149.79 Q100.807 152.985 95.1586 158.748 Z" fill="#000000" fill-rule="nonzero" fill-opacity="1" /><circle clip-path="url(#clip272)" cx="1517.13" cy="354.117" r="14.4" fill="#009af9" fill-rule="evenodd" fill-opacity="0.5" stroke="#000000" stroke-opacity="0.5" stroke-width="3.2"/>
<circle clip-path="url(#clip272)" cx="841.017" cy="859.066" r="14.4" fill="#009af9" fill-rule="evenodd" fill-opacity="0.5" stroke="#000000" stroke-opacity="0.5" stroke-width="3.2"/>
<circle clip-path="url(#clip272)" cx="859.011" cy="496.31" r="14.4" fill="#009af9" fill-rule="evenodd" fill-opacity="0.5" stroke="#000000" stroke-opacity="0.5" stroke-width="3.2"/>
<circle clip-path="url(#clip272)" cx="1232.66" cy="739.782" r="14.4" fill="#009af9" fill-rule="evenodd" fill-opacity="0.5" stroke="#000000" stroke-opacity="0.5" stroke-width="3.2"/>
<circle clip-path="url(#clip272)" cx="1381.47" cy="87.9763" r="14.4" fill="#009af9" fill-rule="evenodd" fill-opacity="0.5" stroke="#000000" stroke-opacity="0.5" stroke-width="3.2"/>
<circle clip-path="url(#clip272)" cx="949.102" cy="1338.84" r="14.4" fill="#009af9" fill-rule="evenodd" fill-opacity="0.5" stroke="#000000" stroke-opacity="0.5" stroke-width="3.2"/>
<circle clip-path="url(#clip272)" cx="1158.73" cy="386.993" r="14.4" fill="#009af9" fill-rule="evenodd" fill-opacity="0.5" stroke="#000000" stroke-opacity="0.5" stroke-width="3.2"/>
<circle clip-path="url(#clip272)" cx="1271.02" cy="1115.83" r="14.4" fill="#009af9" fill-rule="evenodd" fill-opacity="0.5" stroke="#000000" stroke-opacity="0.5" stroke-width="3.2"/>
<circle clip-path="url(#clip272)" cx="1230.82" cy="1445.72" r="14.4" fill="#009af9" fill-rule="evenodd" fill-opacity="0.5" stroke="#000000" stroke-opacity="0.5" stroke-width="3.2"/>
<circle clip-path="url(#clip272)" cx="1343.65" cy="1401.27" r="14.4" fill="#009af9" fill-rule="evenodd" fill-opacity="0.5" stroke="#000000" stroke-opacity="0.5" stroke-width="3.2"/>
<circle clip-path="url(#clip272)" cx="209.891" cy="1242.09" r="14.4" fill="#009af9" fill-rule="evenodd" fill-opacity="0.5" stroke="#000000" stroke-opacity="0.5" stroke-width="3.2"/>
<circle clip-path="url(#clip272)" cx="797.631" cy="789.758" r="14.4" fill="#009af9" fill-rule="evenodd" fill-opacity="0.5" stroke="#000000" stroke-opacity="0.5" stroke-width="3.2"/>
<circle clip-path="url(#clip272)" cx="1551.29" cy="780.998" r="14.4" fill="#009af9" fill-rule="evenodd" fill-opacity="0.5" stroke="#000000" stroke-opacity="0.5" stroke-width="3.2"/>
<circle clip-path="url(#clip272)" cx="1540.15" cy="1013.02" r="14.4" fill="#009af9" fill-rule="evenodd" fill-opacity="0.5" stroke="#000000" stroke-opacity="0.5" stroke-width="3.2"/>
<circle clip-path="url(#clip272)" cx="899.109" cy="941.659" r="14.4" fill="#009af9" fill-rule="evenodd" fill-opacity="0.5" stroke="#000000" stroke-opacity="0.5" stroke-width="3.2"/>
<circle clip-path="url(#clip272)" cx="925.905" cy="786.16" r="14.4" fill="#009af9" fill-rule="evenodd" fill-opacity="0.5" stroke="#000000" stroke-opacity="0.5" stroke-width="3.2"/>
<circle clip-path="url(#clip272)" cx="2290.34" cy="1231.94" r="14.4" fill="#009af9" fill-rule="evenodd" fill-opacity="0.5" stroke="#000000" stroke-opacity="0.5" stroke-width="3.2"/>
<circle clip-path="url(#clip272)" cx="1251.62" cy="1422.57" r="14.4" fill="#009af9" fill-rule="evenodd" fill-opacity="0.5" stroke="#000000" stroke-opacity="0.5" stroke-width="3.2"/>
<circle clip-path="url(#clip272)" cx="683.325" cy="1289.83" r="14.4" fill="#009af9" fill-rule="evenodd" fill-opacity="0.5" stroke="#000000" stroke-opacity="0.5" stroke-width="3.2"/>
<circle clip-path="url(#clip272)" cx="894.205" cy="616.776" r="14.4" fill="#009af9" fill-rule="evenodd" fill-opacity="0.5" stroke="#000000" stroke-opacity="0.5" stroke-width="3.2"/>
<circle clip-path="url(#clip272)" cx="931.362" cy="115.427" r="14.4" fill="#009af9" fill-rule="evenodd" fill-opacity="0.5" stroke="#000000" stroke-opacity="0.5" stroke-width="3.2"/>
<circle clip-path="url(#clip272)" cx="1920.55" cy="325.064" r="14.4" fill="#009af9" fill-rule="evenodd" fill-opacity="0.5" stroke="#000000" stroke-opacity="0.5" stroke-width="3.2"/>
<circle clip-path="url(#clip272)" cx="758.771" cy="781.313" r="14.4" fill="#009af9" fill-rule="evenodd" fill-opacity="0.5" stroke="#000000" stroke-opacity="0.5" stroke-width="3.2"/>
<circle clip-path="url(#clip272)" cx="1136.38" cy="794.438" r="14.4" fill="#009af9" fill-rule="evenodd" fill-opacity="0.5" stroke="#000000" stroke-opacity="0.5" stroke-width="3.2"/>
<circle clip-path="url(#clip272)" cx="1016.99" cy="1144.61" r="14.4" fill="#009af9" fill-rule="evenodd" fill-opacity="0.5" stroke="#000000" stroke-opacity="0.5" stroke-width="3.2"/>
<circle clip-path="url(#clip272)" cx="873.889" cy="898.529" r="14.4" fill="#009af9" fill-rule="evenodd" fill-opacity="0.5" stroke="#000000" stroke-opacity="0.5" stroke-width="3.2"/>
<circle clip-path="url(#clip272)" cx="1362.01" cy="1049.79" r="14.4" fill="#009af9" fill-rule="evenodd" fill-opacity="0.5" stroke="#000000" stroke-opacity="0.5" stroke-width="3.2"/>
<circle clip-path="url(#clip272)" cx="1153.75" cy="911.73" r="14.4" fill="#009af9" fill-rule="evenodd" fill-opacity="0.5" stroke="#000000" stroke-opacity="0.5" stroke-width="3.2"/>
<circle clip-path="url(#clip272)" cx="819.943" cy="830.29" r="14.4" fill="#009af9" fill-rule="evenodd" fill-opacity="0.5" stroke="#000000" stroke-opacity="0.5" stroke-width="3.2"/>
<circle clip-path="url(#clip272)" cx="1335.9" cy="855.789" r="14.4" fill="#009af9" fill-rule="evenodd" fill-opacity="0.5" stroke="#000000" stroke-opacity="0.5" stroke-width="3.2"/>
<path clip-path="url(#clip272)" d="M209.891 1242.09 L1230.82 1445.72 L2290.34 1231.94 L1920.55 325.064 L1381.47 87.9763 L931.362 115.427 L209.891 1242.09 L209.891 1242.09  Z" fill="#e26f46" fill-rule="evenodd" fill-opacity="0.2"/>
<polyline clip-path="url(#clip272)" style="stroke:#000000; stroke-linecap:round; stroke-linejoin:round; stroke-width:4; stroke-opacity:0.2; fill:none" points="209.891,1242.09 1230.82,1445.72 2290.34,1231.94 1920.55,325.064 1381.47,87.9763 931.362,115.427 209.891,1242.09 "/>
</svg>
