<?xml version="1.0" encoding="utf-8"?>
<svg xmlns="http://www.w3.org/2000/svg" xmlns:xlink="http://www.w3.org/1999/xlink" width="600" height="400" viewBox="0 0 2400 1600">
<defs>
  <clipPath id="clip650">
    <rect x="0" y="0" width="2400" height="1600"/>
  </clipPath>
</defs>
<path clip-path="url(#clip650)" d="M0 1600 L2400 1600 L2400 0 L0 0  Z" fill="#ffffff" fill-rule="evenodd" fill-opacity="1"/>
<defs>
  <clipPath id="clip651">
    <rect x="480" y="0" width="1681" height="1600"/>
  </clipPath>
</defs>
<path clip-path="url(#clip650)" d="M193.936 1486.45 L2352.76 1486.45 L2352.76 47.2441 L193.936 47.2441  Z" fill="#ffffff" fill-rule="evenodd" fill-opacity="1"/>
<defs>
  <clipPath id="clip652">
    <rect x="193" y="47" width="2160" height="1440"/>
  </clipPath>
</defs>
<polyline clip-path="url(#clip652)" style="stroke:#000000; stroke-linecap:round; stroke-linejoin:round; stroke-width:2; stroke-opacity:0.1; fill:none" points="492.997,1486.45 492.997,47.2441 "/>
<polyline clip-path="url(#clip652)" style="stroke:#000000; stroke-linecap:round; stroke-linejoin:round; stroke-width:2; stroke-opacity:0.1; fill:none" points="1015.75,1486.45 1015.75,47.2441 "/>
<polyline clip-path="url(#clip652)" style="stroke:#000000; stroke-linecap:round; stroke-linejoin:round; stroke-width:2; stroke-opacity:0.1; fill:none" points="1538.49,1486.45 1538.49,47.2441 "/>
<polyline clip-path="url(#clip652)" style="stroke:#000000; stroke-linecap:round; stroke-linejoin:round; stroke-width:2; stroke-opacity:0.1; fill:none" points="2061.24,1486.45 2061.24,47.2441 "/>
<polyline clip-path="url(#clip652)" style="stroke:#000000; stroke-linecap:round; stroke-linejoin:round; stroke-width:2; stroke-opacity:0.1; fill:none" points="193.936,1374.79 2352.76,1374.79 "/>
<polyline clip-path="url(#clip652)" style="stroke:#000000; stroke-linecap:round; stroke-linejoin:round; stroke-width:2; stroke-opacity:0.1; fill:none" points="193.936,1176.65 2352.76,1176.65 "/>
<polyline clip-path="url(#clip652)" style="stroke:#000000; stroke-linecap:round; stroke-linejoin:round; stroke-width:2; stroke-opacity:0.1; fill:none" points="193.936,978.512 2352.76,978.512 "/>
<polyline clip-path="url(#clip652)" style="stroke:#000000; stroke-linecap:round; stroke-linejoin:round; stroke-width:2; stroke-opacity:0.1; fill:none" points="193.936,780.375 2352.76,780.375 "/>
<polyline clip-path="url(#clip652)" style="stroke:#000000; stroke-linecap:round; stroke-linejoin:round; stroke-width:2; stroke-opacity:0.1; fill:none" points="193.936,582.239 2352.76,582.239 "/>
<polyline clip-path="url(#clip652)" style="stroke:#000000; stroke-linecap:round; stroke-linejoin:round; stroke-width:2; stroke-opacity:0.1; fill:none" points="193.936,384.102 2352.76,384.102 "/>
<polyline clip-path="url(#clip652)" style="stroke:#000000; stroke-linecap:round; stroke-linejoin:round; stroke-width:2; stroke-opacity:0.1; fill:none" points="193.936,185.965 2352.76,185.965 "/>
<polyline clip-path="url(#clip650)" style="stroke:#000000; stroke-linecap:round; stroke-linejoin:round; stroke-width:4; stroke-opacity:1; fill:none" points="193.936,1486.45 2352.76,1486.45 "/>
<polyline clip-path="url(#clip650)" style="stroke:#000000; stroke-linecap:round; stroke-linejoin:round; stroke-width:4; stroke-opacity:1; fill:none" points="492.997,1486.45 492.997,1467.55 "/>
<polyline clip-path="url(#clip650)" style="stroke:#000000; stroke-linecap:round; stroke-linejoin:round; stroke-width:4; stroke-opacity:1; fill:none" points="1015.75,1486.45 1015.75,1467.55 "/>
<polyline clip-path="url(#clip650)" style="stroke:#000000; stroke-linecap:round; stroke-linejoin:round; stroke-width:4; stroke-opacity:1; fill:none" points="1538.49,1486.45 1538.49,1467.55 "/>
<polyline clip-path="url(#clip650)" style="stroke:#000000; stroke-linecap:round; stroke-linejoin:round; stroke-width:4; stroke-opacity:1; fill:none" points="2061.24,1486.45 2061.24,1467.55 "/>
<path clip-path="url(#clip650)" d="M462.754 1532.02 L492.43 1532.02 L492.43 1535.95 L462.754 1535.95 L462.754 1532.02 Z" fill="#000000" fill-rule="nonzero" fill-opacity="1" /><path clip-path="url(#clip650)" d="M503.333 1544.91 L510.971 1544.91 L510.971 1518.55 L502.661 1520.21 L502.661 1515.95 L510.925 1514.29 L515.601 1514.29 L515.601 1544.91 L523.24 1544.91 L523.24 1548.85 L503.333 1548.85 L503.333 1544.91 Z" fill="#000000" fill-rule="nonzero" fill-opacity="1" /><path clip-path="url(#clip650)" d="M1015.75 1517.37 Q1012.13 1517.37 1010.31 1520.93 Q1008.5 1524.47 1008.5 1531.6 Q1008.5 1538.71 1010.31 1542.27 Q1012.13 1545.82 1015.75 1545.82 Q1019.38 1545.82 1021.19 1542.27 Q1023.01 1538.71 1023.01 1531.6 Q1023.01 1524.47 1021.19 1520.93 Q1019.38 1517.37 1015.75 1517.37 M1015.75 1513.66 Q1021.56 1513.66 1024.61 1518.27 Q1027.69 1522.85 1027.69 1531.6 Q1027.69 1540.33 1024.61 1544.94 Q1021.56 1549.52 1015.75 1549.52 Q1009.94 1549.52 1006.86 1544.94 Q1003.8 1540.33 1003.8 1531.6 Q1003.8 1522.85 1006.86 1518.27 Q1009.94 1513.66 1015.75 1513.66 Z" fill="#000000" fill-rule="nonzero" fill-opacity="1" /><path clip-path="url(#clip650)" d="M1528.88 1544.91 L1536.52 1544.91 L1536.52 1518.55 L1528.21 1520.21 L1528.21 1515.95 L1536.47 1514.29 L1541.15 1514.29 L1541.15 1544.91 L1548.78 1544.91 L1548.78 1548.85 L1528.88 1548.85 L1528.88 1544.91 Z" fill="#000000" fill-rule="nonzero" fill-opacity="1" /><path clip-path="url(#clip650)" d="M2055.9 1544.91 L2072.22 1544.91 L2072.22 1548.85 L2050.27 1548.85 L2050.27 1544.91 Q2052.93 1542.16 2057.52 1537.53 Q2062.12 1532.88 2063.3 1531.53 Q2065.55 1529.01 2066.43 1527.27 Q2067.33 1525.51 2067.33 1523.82 Q2067.33 1521.07 2065.39 1519.33 Q2063.47 1517.6 2060.36 1517.6 Q2058.16 1517.6 2055.71 1518.36 Q2053.28 1519.13 2050.5 1520.68 L2050.5 1515.95 Q2053.33 1514.82 2055.78 1514.24 Q2058.23 1513.66 2060.27 1513.66 Q2065.64 1513.66 2068.84 1516.35 Q2072.03 1519.03 2072.03 1523.52 Q2072.03 1525.65 2071.22 1527.57 Q2070.43 1529.47 2068.33 1532.07 Q2067.75 1532.74 2064.65 1535.95 Q2061.54 1539.15 2055.9 1544.91 Z" fill="#000000" fill-rule="nonzero" fill-opacity="1" /><polyline clip-path="url(#clip650)" style="stroke:#000000; stroke-linecap:round; stroke-linejoin:round; stroke-width:4; stroke-opacity:1; fill:none" points="193.936,1486.45 193.936,47.2441 "/>
<polyline clip-path="url(#clip650)" style="stroke:#000000; stroke-linecap:round; stroke-linejoin:round; stroke-width:4; stroke-opacity:1; fill:none" points="193.936,1374.79 212.834,1374.79 "/>
<polyline clip-path="url(#clip650)" style="stroke:#000000; stroke-linecap:round; stroke-linejoin:round; stroke-width:4; stroke-opacity:1; fill:none" points="193.936,1176.65 212.834,1176.65 "/>
<polyline clip-path="url(#clip650)" style="stroke:#000000; stroke-linecap:round; stroke-linejoin:round; stroke-width:4; stroke-opacity:1; fill:none" points="193.936,978.512 212.834,978.512 "/>
<polyline clip-path="url(#clip650)" style="stroke:#000000; stroke-linecap:round; stroke-linejoin:round; stroke-width:4; stroke-opacity:1; fill:none" points="193.936,780.375 212.834,780.375 "/>
<polyline clip-path="url(#clip650)" style="stroke:#000000; stroke-linecap:round; stroke-linejoin:round; stroke-width:4; stroke-opacity:1; fill:none" points="193.936,582.239 212.834,582.239 "/>
<polyline clip-path="url(#clip650)" style="stroke:#000000; stroke-linecap:round; stroke-linejoin:round; stroke-width:4; stroke-opacity:1; fill:none" points="193.936,384.102 212.834,384.102 "/>
<polyline clip-path="url(#clip650)" style="stroke:#000000; stroke-linecap:round; stroke-linejoin:round; stroke-width:4; stroke-opacity:1; fill:none" points="193.936,185.965 212.834,185.965 "/>
<path clip-path="url(#clip650)" d="M51.9875 1375.24 L81.6633 1375.24 L81.6633 1379.17 L51.9875 1379.17 L51.9875 1375.24 Z" fill="#000000" fill-rule="nonzero" fill-opacity="1" /><path clip-path="url(#clip650)" d="M92.566 1388.13 L100.205 1388.13 L100.205 1361.77 L91.8947 1363.43 L91.8947 1359.17 L100.159 1357.51 L104.834 1357.51 L104.834 1388.13 L112.473 1388.13 L112.473 1392.07 L92.566 1392.07 L92.566 1388.13 Z" fill="#000000" fill-rule="nonzero" fill-opacity="1" /><path clip-path="url(#clip650)" d="M121.918 1386.19 L126.802 1386.19 L126.802 1392.07 L121.918 1392.07 L121.918 1386.19 Z" fill="#000000" fill-rule="nonzero" fill-opacity="1" /><path clip-path="url(#clip650)" d="M137.033 1357.51 L155.39 1357.51 L155.39 1361.44 L141.316 1361.44 L141.316 1369.91 Q142.334 1369.57 143.353 1369.4 Q144.371 1369.22 145.39 1369.22 Q151.177 1369.22 154.556 1372.39 Q157.936 1375.56 157.936 1380.98 Q157.936 1386.56 154.464 1389.66 Q150.992 1392.74 144.672 1392.74 Q142.496 1392.74 140.228 1392.37 Q137.982 1392 135.575 1391.26 L135.575 1386.56 Q137.658 1387.69 139.881 1388.25 Q142.103 1388.8 144.58 1388.8 Q148.584 1388.8 150.922 1386.7 Q153.26 1384.59 153.26 1380.98 Q153.26 1377.37 150.922 1375.26 Q148.584 1373.15 144.58 1373.15 Q142.705 1373.15 140.83 1373.57 Q138.978 1373.99 137.033 1374.87 L137.033 1357.51 Z" fill="#000000" fill-rule="nonzero" fill-opacity="1" /><path clip-path="url(#clip650)" d="M50.9921 1177.1 L80.6679 1177.1 L80.6679 1181.04 L50.9921 1181.04 L50.9921 1177.1 Z" fill="#000000" fill-rule="nonzero" fill-opacity="1" /><path clip-path="url(#clip650)" d="M91.5706 1189.99 L99.2095 1189.99 L99.2095 1163.63 L90.8993 1165.3 L90.8993 1161.04 L99.1632 1159.37 L103.839 1159.37 L103.839 1189.99 L111.478 1189.99 L111.478 1193.93 L91.5706 1193.93 L91.5706 1189.99 Z" fill="#000000" fill-rule="nonzero" fill-opacity="1" /><path clip-path="url(#clip650)" d="M120.922 1188.05 L125.807 1188.05 L125.807 1193.93 L120.922 1193.93 L120.922 1188.05 Z" fill="#000000" fill-rule="nonzero" fill-opacity="1" /><path clip-path="url(#clip650)" d="M145.992 1162.45 Q142.381 1162.45 140.552 1166.01 Q138.746 1169.55 138.746 1176.68 Q138.746 1183.79 140.552 1187.36 Q142.381 1190.9 145.992 1190.9 Q149.626 1190.9 151.431 1187.36 Q153.26 1183.79 153.26 1176.68 Q153.26 1169.55 151.431 1166.01 Q149.626 1162.45 145.992 1162.45 M145.992 1158.74 Q151.802 1158.74 154.857 1163.35 Q157.936 1167.93 157.936 1176.68 Q157.936 1185.41 154.857 1190.02 Q151.802 1194.6 145.992 1194.6 Q140.181 1194.6 137.103 1190.02 Q134.047 1185.41 134.047 1176.68 Q134.047 1167.93 137.103 1163.35 Q140.181 1158.74 145.992 1158.74 Z" fill="#000000" fill-rule="nonzero" fill-opacity="1" /><path clip-path="url(#clip650)" d="M51.9875 978.964 L81.6633 978.964 L81.6633 982.899 L51.9875 982.899 L51.9875 978.964 Z" fill="#000000" fill-rule="nonzero" fill-opacity="1" /><path clip-path="url(#clip650)" d="M101.756 964.311 Q98.1447 964.311 96.316 967.876 Q94.5104 971.418 94.5104 978.547 Q94.5104 985.654 96.316 989.218 Q98.1447 992.76 101.756 992.76 Q105.39 992.76 107.196 989.218 Q109.024 985.654 109.024 978.547 Q109.024 971.418 107.196 967.876 Q105.39 964.311 101.756 964.311 M101.756 960.607 Q107.566 960.607 110.621 965.214 Q113.7 969.797 113.7 978.547 Q113.7 987.274 110.621 991.88 Q107.566 996.464 101.756 996.464 Q95.9456 996.464 92.8669 991.88 Q89.8114 987.274 89.8114 978.547 Q89.8114 969.797 92.8669 965.214 Q95.9456 960.607 101.756 960.607 Z" fill="#000000" fill-rule="nonzero" fill-opacity="1" /><path clip-path="url(#clip650)" d="M121.918 989.913 L126.802 989.913 L126.802 995.792 L121.918 995.792 L121.918 989.913 Z" fill="#000000" fill-rule="nonzero" fill-opacity="1" /><path clip-path="url(#clip650)" d="M137.033 961.232 L155.39 961.232 L155.39 965.168 L141.316 965.168 L141.316 973.64 Q142.334 973.293 143.353 973.13 Q144.371 972.945 145.39 972.945 Q151.177 972.945 154.556 976.117 Q157.936 979.288 157.936 984.704 Q157.936 990.283 154.464 993.385 Q150.992 996.464 144.672 996.464 Q142.496 996.464 140.228 996.093 Q137.982 995.723 135.575 994.982 L135.575 990.283 Q137.658 991.417 139.881 991.973 Q142.103 992.529 144.58 992.529 Q148.584 992.529 150.922 990.422 Q153.26 988.316 153.26 984.704 Q153.26 981.093 150.922 978.987 Q148.584 976.88 144.58 976.88 Q142.705 976.88 140.83 977.297 Q138.978 977.714 137.033 978.593 L137.033 961.232 Z" fill="#000000" fill-rule="nonzero" fill-opacity="1" /><path clip-path="url(#clip650)" d="M100.76 766.174 Q97.1493 766.174 95.3206 769.739 Q93.515 773.281 93.515 780.41 Q93.515 787.517 95.3206 791.081 Q97.1493 794.623 100.76 794.623 Q104.395 794.623 106.2 791.081 Q108.029 787.517 108.029 780.41 Q108.029 773.281 106.2 769.739 Q104.395 766.174 100.76 766.174 M100.76 762.47 Q106.571 762.47 109.626 767.077 Q112.705 771.66 112.705 780.41 Q112.705 789.137 109.626 793.743 Q106.571 798.327 100.76 798.327 Q94.9502 798.327 91.8715 793.743 Q88.816 789.137 88.816 780.41 Q88.816 771.66 91.8715 767.077 Q94.9502 762.47 100.76 762.47 Z" fill="#000000" fill-rule="nonzero" fill-opacity="1" /><path clip-path="url(#clip650)" d="M120.922 791.776 L125.807 791.776 L125.807 797.655 L120.922 797.655 L120.922 791.776 Z" fill="#000000" fill-rule="nonzero" fill-opacity="1" /><path clip-path="url(#clip650)" d="M145.992 766.174 Q142.381 766.174 140.552 769.739 Q138.746 773.281 138.746 780.41 Q138.746 787.517 140.552 791.081 Q142.381 794.623 145.992 794.623 Q149.626 794.623 151.431 791.081 Q153.26 787.517 153.26 780.41 Q153.26 773.281 151.431 769.739 Q149.626 766.174 145.992 766.174 M145.992 762.47 Q151.802 762.47 154.857 767.077 Q157.936 771.66 157.936 780.41 Q157.936 789.137 154.857 793.743 Q151.802 798.327 145.992 798.327 Q140.181 798.327 137.103 793.743 Q134.047 789.137 134.047 780.41 Q134.047 771.66 137.103 767.077 Q140.181 762.47 145.992 762.47 Z" fill="#000000" fill-rule="nonzero" fill-opacity="1" /><path clip-path="url(#clip650)" d="M101.756 568.037 Q98.1447 568.037 96.316 571.602 Q94.5104 575.144 94.5104 582.273 Q94.5104 589.38 96.316 592.945 Q98.1447 596.486 101.756 596.486 Q105.39 596.486 107.196 592.945 Q109.024 589.38 109.024 582.273 Q109.024 575.144 107.196 571.602 Q105.39 568.037 101.756 568.037 M101.756 564.334 Q107.566 564.334 110.621 568.94 Q113.7 573.523 113.7 582.273 Q113.7 591 110.621 595.607 Q107.566 600.19 101.756 600.19 Q95.9456 600.19 92.8669 595.607 Q89.8114 591 89.8114 582.273 Q89.8114 573.523 92.8669 568.94 Q95.9456 564.334 101.756 564.334 Z" fill="#000000" fill-rule="nonzero" fill-opacity="1" /><path clip-path="url(#clip650)" d="M121.918 593.639 L126.802 593.639 L126.802 599.519 L121.918 599.519 L121.918 593.639 Z" fill="#000000" fill-rule="nonzero" fill-opacity="1" /><path clip-path="url(#clip650)" d="M137.033 564.959 L155.39 564.959 L155.39 568.894 L141.316 568.894 L141.316 577.366 Q142.334 577.019 143.353 576.857 Q144.371 576.671 145.39 576.671 Q151.177 576.671 154.556 579.843 Q157.936 583.014 157.936 588.431 Q157.936 594.009 154.464 597.111 Q150.992 600.19 144.672 600.19 Q142.496 600.19 140.228 599.82 Q137.982 599.449 135.575 598.708 L135.575 594.009 Q137.658 595.144 139.881 595.699 Q142.103 596.255 144.58 596.255 Q148.584 596.255 150.922 594.148 Q153.26 592.042 153.26 588.431 Q153.26 584.82 150.922 582.713 Q148.584 580.607 144.58 580.607 Q142.705 580.607 140.83 581.023 Q138.978 581.44 137.033 582.32 L137.033 564.959 Z" fill="#000000" fill-rule="nonzero" fill-opacity="1" /><path clip-path="url(#clip650)" d="M91.5706 397.447 L99.2095 397.447 L99.2095 371.081 L90.8993 372.748 L90.8993 368.488 L99.1632 366.822 L103.839 366.822 L103.839 397.447 L111.478 397.447 L111.478 401.382 L91.5706 401.382 L91.5706 397.447 Z" fill="#000000" fill-rule="nonzero" fill-opacity="1" /><path clip-path="url(#clip650)" d="M120.922 395.502 L125.807 395.502 L125.807 401.382 L120.922 401.382 L120.922 395.502 Z" fill="#000000" fill-rule="nonzero" fill-opacity="1" /><path clip-path="url(#clip650)" d="M145.992 369.9 Q142.381 369.9 140.552 373.465 Q138.746 377.007 138.746 384.136 Q138.746 391.243 140.552 394.808 Q142.381 398.349 145.992 398.349 Q149.626 398.349 151.431 394.808 Q153.26 391.243 153.26 384.136 Q153.26 377.007 151.431 373.465 Q149.626 369.9 145.992 369.9 M145.992 366.197 Q151.802 366.197 154.857 370.803 Q157.936 375.386 157.936 384.136 Q157.936 392.863 154.857 397.47 Q151.802 402.053 145.992 402.053 Q140.181 402.053 137.103 397.47 Q134.047 392.863 134.047 384.136 Q134.047 375.386 137.103 370.803 Q140.181 366.197 145.992 366.197 Z" fill="#000000" fill-rule="nonzero" fill-opacity="1" /><path clip-path="url(#clip650)" d="M92.566 199.31 L100.205 199.31 L100.205 172.944 L91.8947 174.611 L91.8947 170.351 L100.159 168.685 L104.834 168.685 L104.834 199.31 L112.473 199.31 L112.473 203.245 L92.566 203.245 L92.566 199.31 Z" fill="#000000" fill-rule="nonzero" fill-opacity="1" /><path clip-path="url(#clip650)" d="M121.918 197.365 L126.802 197.365 L126.802 203.245 L121.918 203.245 L121.918 197.365 Z" fill="#000000" fill-rule="nonzero" fill-opacity="1" /><path clip-path="url(#clip650)" d="M137.033 168.685 L155.39 168.685 L155.39 172.62 L141.316 172.62 L141.316 181.092 Q142.334 180.745 143.353 180.583 Q144.371 180.398 145.39 180.398 Q151.177 180.398 154.556 183.569 Q157.936 186.74 157.936 192.157 Q157.936 197.736 154.464 200.837 Q150.992 203.916 144.672 203.916 Q142.496 203.916 140.228 203.546 Q137.982 203.175 135.575 202.435 L135.575 197.736 Q137.658 198.87 139.881 199.425 Q142.103 199.981 144.58 199.981 Q148.584 199.981 150.922 197.874 Q153.26 195.768 153.26 192.157 Q153.26 188.546 150.922 186.439 Q148.584 184.333 144.58 184.333 Q142.705 184.333 140.83 184.749 Q138.978 185.166 137.033 186.046 L137.033 168.685 Z" fill="#000000" fill-rule="nonzero" fill-opacity="1" /><circle clip-path="url(#clip652)" cx="1323.3" cy="1075.52" r="14.4" fill="#009af9" fill-rule="evenodd" fill-opacity="0.5" stroke="#000000" stroke-opacity="0.5" stroke-width="3.2"/>
<circle clip-path="url(#clip652)" cx="428.189" cy="1398.02" r="14.4" fill="#009af9" fill-rule="evenodd" fill-opacity="0.5" stroke="#000000" stroke-opacity="0.5" stroke-width="3.2"/>
<circle clip-path="url(#clip652)" cx="2291.66" cy="1161.67" r="14.4" fill="#009af9" fill-rule="evenodd" fill-opacity="0.5" stroke="#000000" stroke-opacity="0.5" stroke-width="3.2"/>
<circle clip-path="url(#clip652)" cx="507.706" cy="815.228" r="14.4" fill="#009af9" fill-rule="evenodd" fill-opacity="0.5" stroke="#000000" stroke-opacity="0.5" stroke-width="3.2"/>
<circle clip-path="url(#clip652)" cx="872.787" cy="976.121" r="14.4" fill="#009af9" fill-rule="evenodd" fill-opacity="0.5" stroke="#000000" stroke-opacity="0.5" stroke-width="3.2"/>
<circle clip-path="url(#clip652)" cx="747.931" cy="730.343" r="14.4" fill="#009af9" fill-rule="evenodd" fill-opacity="0.5" stroke="#000000" stroke-opacity="0.5" stroke-width="3.2"/>
<circle clip-path="url(#clip652)" cx="1011.64" cy="962.948" r="14.4" fill="#009af9" fill-rule="evenodd" fill-opacity="0.5" stroke="#000000" stroke-opacity="0.5" stroke-width="3.2"/>
<circle clip-path="url(#clip652)" cx="1234.36" cy="1398.38" r="14.4" fill="#009af9" fill-rule="evenodd" fill-opacity="0.5" stroke="#000000" stroke-opacity="0.5" stroke-width="3.2"/>
<circle clip-path="url(#clip652)" cx="1560.09" cy="87.9763" r="14.4" fill="#009af9" fill-rule="evenodd" fill-opacity="0.5" stroke="#000000" stroke-opacity="0.5" stroke-width="3.2"/>
<circle clip-path="url(#clip652)" cx="255.035" cy="744.851" r="14.4" fill="#009af9" fill-rule="evenodd" fill-opacity="0.5" stroke="#000000" stroke-opacity="0.5" stroke-width="3.2"/>
<circle clip-path="url(#clip652)" cx="675.107" cy="1445.72" r="14.4" fill="#009af9" fill-rule="evenodd" fill-opacity="0.5" stroke="#000000" stroke-opacity="0.5" stroke-width="3.2"/>
<circle clip-path="url(#clip652)" cx="1012.6" cy="543.127" r="14.4" fill="#009af9" fill-rule="evenodd" fill-opacity="0.5" stroke="#000000" stroke-opacity="0.5" stroke-width="3.2"/>
<circle clip-path="url(#clip652)" cx="991.217" cy="918.058" r="14.4" fill="#009af9" fill-rule="evenodd" fill-opacity="0.5" stroke="#000000" stroke-opacity="0.5" stroke-width="3.2"/>
<circle clip-path="url(#clip652)" cx="599.623" cy="598.674" r="14.4" fill="#009af9" fill-rule="evenodd" fill-opacity="0.5" stroke="#000000" stroke-opacity="0.5" stroke-width="3.2"/>
<circle clip-path="url(#clip652)" cx="1398.18" cy="830.044" r="14.4" fill="#009af9" fill-rule="evenodd" fill-opacity="0.5" stroke="#000000" stroke-opacity="0.5" stroke-width="3.2"/>
<circle clip-path="url(#clip652)" cx="1655.81" cy="954.489" r="14.4" fill="#009af9" fill-rule="evenodd" fill-opacity="0.5" stroke="#000000" stroke-opacity="0.5" stroke-width="3.2"/>
<circle clip-path="url(#clip652)" cx="824.498" cy="538.091" r="14.4" fill="#009af9" fill-rule="evenodd" fill-opacity="0.5" stroke="#000000" stroke-opacity="0.5" stroke-width="3.2"/>
<circle clip-path="url(#clip652)" cx="513.855" cy="954.288" r="14.4" fill="#009af9" fill-rule="evenodd" fill-opacity="0.5" stroke="#000000" stroke-opacity="0.5" stroke-width="3.2"/>
<circle clip-path="url(#clip652)" cx="737.302" cy="306.858" r="14.4" fill="#009af9" fill-rule="evenodd" fill-opacity="0.5" stroke="#000000" stroke-opacity="0.5" stroke-width="3.2"/>
<circle clip-path="url(#clip652)" cx="383.716" cy="519.065" r="14.4" fill="#009af9" fill-rule="evenodd" fill-opacity="0.5" stroke="#000000" stroke-opacity="0.5" stroke-width="3.2"/>
<circle clip-path="url(#clip652)" cx="1599.14" cy="711.837" r="14.4" fill="#009af9" fill-rule="evenodd" fill-opacity="0.5" stroke="#000000" stroke-opacity="0.5" stroke-width="3.2"/>
<circle clip-path="url(#clip652)" cx="1194.99" cy="348.664" r="14.4" fill="#009af9" fill-rule="evenodd" fill-opacity="0.5" stroke="#000000" stroke-opacity="0.5" stroke-width="3.2"/>
<circle clip-path="url(#clip652)" cx="1312.42" cy="596.051" r="14.4" fill="#009af9" fill-rule="evenodd" fill-opacity="0.5" stroke="#000000" stroke-opacity="0.5" stroke-width="3.2"/>
<circle clip-path="url(#clip652)" cx="1718.02" cy="262.935" r="14.4" fill="#009af9" fill-rule="evenodd" fill-opacity="0.5" stroke="#000000" stroke-opacity="0.5" stroke-width="3.2"/>
<circle clip-path="url(#clip652)" cx="1064.19" cy="1051.08" r="14.4" fill="#009af9" fill-rule="evenodd" fill-opacity="0.5" stroke="#000000" stroke-opacity="0.5" stroke-width="3.2"/>
<circle clip-path="url(#clip652)" cx="561.166" cy="817.973" r="14.4" fill="#009af9" fill-rule="evenodd" fill-opacity="0.5" stroke="#000000" stroke-opacity="0.5" stroke-width="3.2"/>
<circle clip-path="url(#clip652)" cx="587.318" cy="715.62" r="14.4" fill="#009af9" fill-rule="evenodd" fill-opacity="0.5" stroke="#000000" stroke-opacity="0.5" stroke-width="3.2"/>
<circle clip-path="url(#clip652)" cx="1012.86" cy="785.631" r="14.4" fill="#009af9" fill-rule="evenodd" fill-opacity="0.5" stroke="#000000" stroke-opacity="0.5" stroke-width="3.2"/>
<circle clip-path="url(#clip652)" cx="800.879" cy="683.399" r="14.4" fill="#009af9" fill-rule="evenodd" fill-opacity="0.5" stroke="#000000" stroke-opacity="0.5" stroke-width="3.2"/>
<circle clip-path="url(#clip652)" cx="1455.26" cy="746.59" r="14.4" fill="#009af9" fill-rule="evenodd" fill-opacity="0.5" stroke="#000000" stroke-opacity="0.5" stroke-width="3.2"/>
<path clip-path="url(#clip652)" d="M255.035 744.851 L428.189 1398.02 L675.107 1445.72 L1234.36 1398.38 L2291.66 1161.67 L1718.02 262.935 L1560.09 87.9763 L737.302 306.858 L383.716 519.065 L255.035 744.851 L255.035 744.851  Z" fill="#e26f46" fill-rule="evenodd" fill-opacity="0.2"/>
<polyline clip-path="url(#clip652)" style="stroke:#000000; stroke-linecap:round; stroke-linejoin:round; stroke-width:4; stroke-opacity:0.2; fill:none" points="255.035,744.851 428.189,1398.02 675.107,1445.72 1234.36,1398.38 2291.66,1161.67 1718.02,262.935 1560.09,87.9763 737.302,306.858 383.716,519.065 255.035,744.851 "/>
</svg>
