<?xml version="1.0" encoding="utf-8"?>
<svg xmlns="http://www.w3.org/2000/svg" xmlns:xlink="http://www.w3.org/1999/xlink" width="600" height="400" viewBox="0 0 2400 1600">
<defs>
  <clipPath id="clip680">
    <rect x="0" y="0" width="2400" height="1600"/>
  </clipPath>
</defs>
<path clip-path="url(#clip680)" d="M0 1600 L2400 1600 L2400 0 L0 0  Z" fill="#ffffff" fill-rule="evenodd" fill-opacity="1"/>
<defs>
  <clipPath id="clip681">
    <rect x="147" y="47" width="2206" height="1440"/>
  </clipPath>
</defs>
<path clip-path="url(#clip680)" d="M147.478 1486.45 L2352.76 1486.45 L2352.76 47.2441 L147.478 47.2441  Z" fill="#ffffff" fill-rule="evenodd" fill-opacity="1"/>
<polyline clip-path="url(#clip681)" style="stroke:#000000; stroke-linecap:round; stroke-linejoin:round; stroke-width:2; stroke-opacity:0.1; fill:none" points="330.053,1486.45 330.053,47.2441 "/>
<polyline clip-path="url(#clip681)" style="stroke:#000000; stroke-linecap:round; stroke-linejoin:round; stroke-width:2; stroke-opacity:0.1; fill:none" points="700.91,1486.45 700.91,47.2441 "/>
<polyline clip-path="url(#clip681)" style="stroke:#000000; stroke-linecap:round; stroke-linejoin:round; stroke-width:2; stroke-opacity:0.1; fill:none" points="1071.77,1486.45 1071.77,47.2441 "/>
<polyline clip-path="url(#clip681)" style="stroke:#000000; stroke-linecap:round; stroke-linejoin:round; stroke-width:2; stroke-opacity:0.1; fill:none" points="1442.62,1486.45 1442.62,47.2441 "/>
<polyline clip-path="url(#clip681)" style="stroke:#000000; stroke-linecap:round; stroke-linejoin:round; stroke-width:2; stroke-opacity:0.1; fill:none" points="1813.48,1486.45 1813.48,47.2441 "/>
<polyline clip-path="url(#clip681)" style="stroke:#000000; stroke-linecap:round; stroke-linejoin:round; stroke-width:2; stroke-opacity:0.1; fill:none" points="2184.34,1486.45 2184.34,47.2441 "/>
<polyline clip-path="url(#clip681)" style="stroke:#000000; stroke-linecap:round; stroke-linejoin:round; stroke-width:2; stroke-opacity:0.1; fill:none" points="147.478,1409.76 2352.76,1409.76 "/>
<polyline clip-path="url(#clip681)" style="stroke:#000000; stroke-linecap:round; stroke-linejoin:round; stroke-width:2; stroke-opacity:0.1; fill:none" points="147.478,1022.15 2352.76,1022.15 "/>
<polyline clip-path="url(#clip681)" style="stroke:#000000; stroke-linecap:round; stroke-linejoin:round; stroke-width:2; stroke-opacity:0.1; fill:none" points="147.478,634.537 2352.76,634.537 "/>
<polyline clip-path="url(#clip681)" style="stroke:#000000; stroke-linecap:round; stroke-linejoin:round; stroke-width:2; stroke-opacity:0.1; fill:none" points="147.478,246.924 2352.76,246.924 "/>
<polyline clip-path="url(#clip680)" style="stroke:#000000; stroke-linecap:round; stroke-linejoin:round; stroke-width:4; stroke-opacity:1; fill:none" points="147.478,1486.45 2352.76,1486.45 "/>
<polyline clip-path="url(#clip680)" style="stroke:#000000; stroke-linecap:round; stroke-linejoin:round; stroke-width:4; stroke-opacity:1; fill:none" points="330.053,1486.45 330.053,1467.55 "/>
<polyline clip-path="url(#clip680)" style="stroke:#000000; stroke-linecap:round; stroke-linejoin:round; stroke-width:4; stroke-opacity:1; fill:none" points="700.91,1486.45 700.91,1467.55 "/>
<polyline clip-path="url(#clip680)" style="stroke:#000000; stroke-linecap:round; stroke-linejoin:round; stroke-width:4; stroke-opacity:1; fill:none" points="1071.77,1486.45 1071.77,1467.55 "/>
<polyline clip-path="url(#clip680)" style="stroke:#000000; stroke-linecap:round; stroke-linejoin:round; stroke-width:4; stroke-opacity:1; fill:none" points="1442.62,1486.45 1442.62,1467.55 "/>
<polyline clip-path="url(#clip680)" style="stroke:#000000; stroke-linecap:round; stroke-linejoin:round; stroke-width:4; stroke-opacity:1; fill:none" points="1813.48,1486.45 1813.48,1467.55 "/>
<polyline clip-path="url(#clip680)" style="stroke:#000000; stroke-linecap:round; stroke-linejoin:round; stroke-width:4; stroke-opacity:1; fill:none" points="2184.34,1486.45 2184.34,1467.55 "/>
<path clip-path="url(#clip680)" d="M276.581 1532.02 L306.257 1532.02 L306.257 1535.95 L276.581 1535.95 L276.581 1532.02 Z" fill="#000000" fill-rule="nonzero" fill-opacity="1" /><path clip-path="url(#clip680)" d="M317.16 1544.91 L324.799 1544.91 L324.799 1518.55 L316.488 1520.21 L316.488 1515.95 L324.752 1514.29 L329.428 1514.29 L329.428 1544.91 L337.067 1544.91 L337.067 1548.85 L317.16 1548.85 L317.16 1544.91 Z" fill="#000000" fill-rule="nonzero" fill-opacity="1" /><path clip-path="url(#clip680)" d="M346.511 1542.97 L351.396 1542.97 L351.396 1548.85 L346.511 1548.85 L346.511 1542.97 Z" fill="#000000" fill-rule="nonzero" fill-opacity="1" /><path clip-path="url(#clip680)" d="M371.581 1517.37 Q367.97 1517.37 366.141 1520.93 Q364.335 1524.47 364.335 1531.6 Q364.335 1538.71 366.141 1542.27 Q367.97 1545.82 371.581 1545.82 Q375.215 1545.82 377.02 1542.27 Q378.849 1538.71 378.849 1531.6 Q378.849 1524.47 377.02 1520.93 Q375.215 1517.37 371.581 1517.37 M371.581 1513.66 Q377.391 1513.66 380.446 1518.27 Q383.525 1522.85 383.525 1531.6 Q383.525 1540.33 380.446 1544.94 Q377.391 1549.52 371.581 1549.52 Q365.771 1549.52 362.692 1544.94 Q359.636 1540.33 359.636 1531.6 Q359.636 1522.85 362.692 1518.27 Q365.771 1513.66 371.581 1513.66 Z" fill="#000000" fill-rule="nonzero" fill-opacity="1" /><path clip-path="url(#clip680)" d="M647.935 1532.02 L677.611 1532.02 L677.611 1535.95 L647.935 1535.95 L647.935 1532.02 Z" fill="#000000" fill-rule="nonzero" fill-opacity="1" /><path clip-path="url(#clip680)" d="M697.704 1517.37 Q694.092 1517.37 692.264 1520.93 Q690.458 1524.47 690.458 1531.6 Q690.458 1538.71 692.264 1542.27 Q694.092 1545.82 697.704 1545.82 Q701.338 1545.82 703.143 1542.27 Q704.972 1538.71 704.972 1531.6 Q704.972 1524.47 703.143 1520.93 Q701.338 1517.37 697.704 1517.37 M697.704 1513.66 Q703.514 1513.66 706.569 1518.27 Q709.648 1522.85 709.648 1531.6 Q709.648 1540.33 706.569 1544.94 Q703.514 1549.52 697.704 1549.52 Q691.893 1549.52 688.815 1544.94 Q685.759 1540.33 685.759 1531.6 Q685.759 1522.85 688.815 1518.27 Q691.893 1513.66 697.704 1513.66 Z" fill="#000000" fill-rule="nonzero" fill-opacity="1" /><path clip-path="url(#clip680)" d="M717.866 1542.97 L722.75 1542.97 L722.75 1548.85 L717.866 1548.85 L717.866 1542.97 Z" fill="#000000" fill-rule="nonzero" fill-opacity="1" /><path clip-path="url(#clip680)" d="M732.981 1514.29 L751.338 1514.29 L751.338 1518.22 L737.264 1518.22 L737.264 1526.7 Q738.282 1526.35 739.301 1526.19 Q740.319 1526 741.338 1526 Q747.125 1526 750.504 1529.17 Q753.884 1532.34 753.884 1537.76 Q753.884 1543.34 750.412 1546.44 Q746.939 1549.52 740.62 1549.52 Q738.444 1549.52 736.176 1549.15 Q733.93 1548.78 731.523 1548.04 L731.523 1543.34 Q733.606 1544.47 735.828 1545.03 Q738.051 1545.58 740.527 1545.58 Q744.532 1545.58 746.87 1543.48 Q749.208 1541.37 749.208 1537.76 Q749.208 1534.15 746.87 1532.04 Q744.532 1529.94 740.527 1529.94 Q738.652 1529.94 736.777 1530.35 Q734.926 1530.77 732.981 1531.65 L732.981 1514.29 Z" fill="#000000" fill-rule="nonzero" fill-opacity="1" /><path clip-path="url(#clip680)" d="M1049.15 1517.37 Q1045.54 1517.37 1043.71 1520.93 Q1041.91 1524.47 1041.91 1531.6 Q1041.91 1538.71 1043.71 1542.27 Q1045.54 1545.82 1049.15 1545.82 Q1052.78 1545.82 1054.59 1542.27 Q1056.42 1538.71 1056.42 1531.6 Q1056.42 1524.47 1054.59 1520.93 Q1052.78 1517.37 1049.15 1517.37 M1049.15 1513.66 Q1054.96 1513.66 1058.02 1518.27 Q1061.09 1522.85 1061.09 1531.6 Q1061.09 1540.33 1058.02 1544.94 Q1054.96 1549.52 1049.15 1549.52 Q1043.34 1549.52 1040.26 1544.94 Q1037.21 1540.33 1037.21 1531.6 Q1037.21 1522.85 1040.26 1518.27 Q1043.34 1513.66 1049.15 1513.66 Z" fill="#000000" fill-rule="nonzero" fill-opacity="1" /><path clip-path="url(#clip680)" d="M1069.31 1542.97 L1074.2 1542.97 L1074.2 1548.85 L1069.31 1548.85 L1069.31 1542.97 Z" fill="#000000" fill-rule="nonzero" fill-opacity="1" /><path clip-path="url(#clip680)" d="M1094.38 1517.37 Q1090.77 1517.37 1088.94 1520.93 Q1087.14 1524.47 1087.14 1531.6 Q1087.14 1538.71 1088.94 1542.27 Q1090.77 1545.82 1094.38 1545.82 Q1098.02 1545.82 1099.82 1542.27 Q1101.65 1538.71 1101.65 1531.6 Q1101.65 1524.47 1099.82 1520.93 Q1098.02 1517.37 1094.38 1517.37 M1094.38 1513.66 Q1100.19 1513.66 1103.25 1518.27 Q1106.33 1522.85 1106.33 1531.6 Q1106.33 1540.33 1103.25 1544.94 Q1100.19 1549.52 1094.38 1549.52 Q1088.57 1549.52 1085.49 1544.94 Q1082.44 1540.33 1082.44 1531.6 Q1082.44 1522.85 1085.49 1518.27 Q1088.57 1513.66 1094.38 1513.66 Z" fill="#000000" fill-rule="nonzero" fill-opacity="1" /><path clip-path="url(#clip680)" d="M1420.5 1517.37 Q1416.89 1517.37 1415.06 1520.93 Q1413.26 1524.47 1413.26 1531.6 Q1413.26 1538.71 1415.06 1542.27 Q1416.89 1545.82 1420.5 1545.82 Q1424.14 1545.82 1425.94 1542.27 Q1427.77 1538.71 1427.77 1531.6 Q1427.77 1524.47 1425.94 1520.93 Q1424.14 1517.37 1420.5 1517.37 M1420.5 1513.66 Q1426.31 1513.66 1429.37 1518.27 Q1432.45 1522.85 1432.45 1531.6 Q1432.45 1540.33 1429.37 1544.94 Q1426.31 1549.52 1420.5 1549.52 Q1414.69 1549.52 1411.62 1544.94 Q1408.56 1540.33 1408.56 1531.6 Q1408.56 1522.85 1411.62 1518.27 Q1414.69 1513.66 1420.5 1513.66 Z" fill="#000000" fill-rule="nonzero" fill-opacity="1" /><path clip-path="url(#clip680)" d="M1440.67 1542.97 L1445.55 1542.97 L1445.55 1548.85 L1440.67 1548.85 L1440.67 1542.97 Z" fill="#000000" fill-rule="nonzero" fill-opacity="1" /><path clip-path="url(#clip680)" d="M1455.78 1514.29 L1474.14 1514.29 L1474.14 1518.22 L1460.06 1518.22 L1460.06 1526.7 Q1461.08 1526.35 1462.1 1526.19 Q1463.12 1526 1464.14 1526 Q1469.93 1526 1473.31 1529.17 Q1476.68 1532.34 1476.68 1537.76 Q1476.68 1543.34 1473.21 1546.44 Q1469.74 1549.52 1463.42 1549.52 Q1461.25 1549.52 1458.98 1549.15 Q1456.73 1548.78 1454.32 1548.04 L1454.32 1543.34 Q1456.41 1544.47 1458.63 1545.03 Q1460.85 1545.58 1463.33 1545.58 Q1467.33 1545.58 1469.67 1543.48 Q1472.01 1541.37 1472.01 1537.76 Q1472.01 1534.15 1469.67 1532.04 Q1467.33 1529.94 1463.33 1529.94 Q1461.45 1529.94 1459.58 1530.35 Q1457.73 1530.77 1455.78 1531.65 L1455.78 1514.29 Z" fill="#000000" fill-rule="nonzero" fill-opacity="1" /><path clip-path="url(#clip680)" d="M1780.63 1544.91 L1788.27 1544.91 L1788.27 1518.55 L1779.96 1520.21 L1779.96 1515.95 L1788.22 1514.29 L1792.9 1514.29 L1792.9 1544.91 L1800.54 1544.91 L1800.54 1548.85 L1780.63 1548.85 L1780.63 1544.91 Z" fill="#000000" fill-rule="nonzero" fill-opacity="1" /><path clip-path="url(#clip680)" d="M1809.98 1542.97 L1814.87 1542.97 L1814.87 1548.85 L1809.98 1548.85 L1809.98 1542.97 Z" fill="#000000" fill-rule="nonzero" fill-opacity="1" /><path clip-path="url(#clip680)" d="M1835.05 1517.37 Q1831.44 1517.37 1829.61 1520.93 Q1827.81 1524.47 1827.81 1531.6 Q1827.81 1538.71 1829.61 1542.27 Q1831.44 1545.82 1835.05 1545.82 Q1838.69 1545.82 1840.49 1542.27 Q1842.32 1538.71 1842.32 1531.6 Q1842.32 1524.47 1840.49 1520.93 Q1838.69 1517.37 1835.05 1517.37 M1835.05 1513.66 Q1840.86 1513.66 1843.92 1518.27 Q1847 1522.85 1847 1531.6 Q1847 1540.33 1843.92 1544.94 Q1840.86 1549.52 1835.05 1549.52 Q1829.24 1549.52 1826.16 1544.94 Q1823.11 1540.33 1823.11 1531.6 Q1823.11 1522.85 1826.16 1518.27 Q1829.24 1513.66 1835.05 1513.66 Z" fill="#000000" fill-rule="nonzero" fill-opacity="1" /><path clip-path="url(#clip680)" d="M2151.99 1544.91 L2159.62 1544.91 L2159.62 1518.55 L2151.31 1520.21 L2151.31 1515.95 L2159.58 1514.29 L2164.25 1514.29 L2164.25 1544.91 L2171.89 1544.91 L2171.89 1548.85 L2151.99 1548.85 L2151.99 1544.91 Z" fill="#000000" fill-rule="nonzero" fill-opacity="1" /><path clip-path="url(#clip680)" d="M2181.34 1542.97 L2186.22 1542.97 L2186.22 1548.85 L2181.34 1548.85 L2181.34 1542.97 Z" fill="#000000" fill-rule="nonzero" fill-opacity="1" /><path clip-path="url(#clip680)" d="M2196.45 1514.29 L2214.81 1514.29 L2214.81 1518.22 L2200.74 1518.22 L2200.74 1526.7 Q2201.75 1526.35 2202.77 1526.19 Q2203.79 1526 2204.81 1526 Q2210.6 1526 2213.98 1529.17 Q2217.36 1532.34 2217.36 1537.76 Q2217.36 1543.34 2213.88 1546.44 Q2210.41 1549.52 2204.09 1549.52 Q2201.92 1549.52 2199.65 1549.15 Q2197.4 1548.78 2195 1548.04 L2195 1543.34 Q2197.08 1544.47 2199.3 1545.03 Q2201.52 1545.58 2204 1545.58 Q2208 1545.58 2210.34 1543.48 Q2212.68 1541.37 2212.68 1537.76 Q2212.68 1534.15 2210.34 1532.04 Q2208 1529.94 2204 1529.94 Q2202.12 1529.94 2200.25 1530.35 Q2198.4 1530.77 2196.45 1531.65 L2196.45 1514.29 Z" fill="#000000" fill-rule="nonzero" fill-opacity="1" /><polyline clip-path="url(#clip680)" style="stroke:#000000; stroke-linecap:round; stroke-linejoin:round; stroke-width:4; stroke-opacity:1; fill:none" points="147.478,1486.45 147.478,47.2441 "/>
<polyline clip-path="url(#clip680)" style="stroke:#000000; stroke-linecap:round; stroke-linejoin:round; stroke-width:4; stroke-opacity:1; fill:none" points="147.478,1409.76 166.376,1409.76 "/>
<polyline clip-path="url(#clip680)" style="stroke:#000000; stroke-linecap:round; stroke-linejoin:round; stroke-width:4; stroke-opacity:1; fill:none" points="147.478,1022.15 166.376,1022.15 "/>
<polyline clip-path="url(#clip680)" style="stroke:#000000; stroke-linecap:round; stroke-linejoin:round; stroke-width:4; stroke-opacity:1; fill:none" points="147.478,634.537 166.376,634.537 "/>
<polyline clip-path="url(#clip680)" style="stroke:#000000; stroke-linecap:round; stroke-linejoin:round; stroke-width:4; stroke-opacity:1; fill:none" points="147.478,246.924 166.376,246.924 "/>
<path clip-path="url(#clip680)" d="M51.3625 1410.22 L81.0383 1410.22 L81.0383 1414.15 L51.3625 1414.15 L51.3625 1410.22 Z" fill="#000000" fill-rule="nonzero" fill-opacity="1" /><path clip-path="url(#clip680)" d="M95.1586 1423.11 L111.478 1423.11 L111.478 1427.04 L89.5336 1427.04 L89.5336 1423.11 Q92.1956 1420.35 96.7789 1415.72 Q101.385 1411.07 102.566 1409.73 Q104.811 1407.21 105.691 1405.47 Q106.594 1403.71 106.594 1402.02 Q106.594 1399.27 104.649 1397.53 Q102.728 1395.79 99.6261 1395.79 Q97.4271 1395.79 94.9734 1396.56 Q92.5428 1397.32 89.7651 1398.87 L89.7651 1394.15 Q92.5891 1393.02 95.0428 1392.44 Q97.4965 1391.86 99.5335 1391.86 Q104.904 1391.86 108.098 1394.54 Q111.293 1397.23 111.293 1401.72 Q111.293 1403.85 110.483 1405.77 Q109.696 1407.67 107.589 1410.26 Q107.01 1410.93 103.909 1414.15 Q100.807 1417.34 95.1586 1423.11 Z" fill="#000000" fill-rule="nonzero" fill-opacity="1" /><path clip-path="url(#clip680)" d="M50.9921 1022.6 L80.6679 1022.6 L80.6679 1026.54 L50.9921 1026.54 L50.9921 1022.6 Z" fill="#000000" fill-rule="nonzero" fill-opacity="1" /><path clip-path="url(#clip680)" d="M91.5706 1035.5 L99.2095 1035.5 L99.2095 1009.13 L90.8993 1010.8 L90.8993 1006.54 L99.1632 1004.87 L103.839 1004.87 L103.839 1035.5 L111.478 1035.5 L111.478 1039.43 L91.5706 1039.43 L91.5706 1035.5 Z" fill="#000000" fill-rule="nonzero" fill-opacity="1" /><path clip-path="url(#clip680)" d="M99.5335 620.336 Q95.9224 620.336 94.0937 623.901 Q92.2882 627.443 92.2882 634.572 Q92.2882 641.679 94.0937 645.243 Q95.9224 648.785 99.5335 648.785 Q103.168 648.785 104.973 645.243 Q106.802 641.679 106.802 634.572 Q106.802 627.443 104.973 623.901 Q103.168 620.336 99.5335 620.336 M99.5335 616.632 Q105.344 616.632 108.399 621.239 Q111.478 625.822 111.478 634.572 Q111.478 643.299 108.399 647.905 Q105.344 652.489 99.5335 652.489 Q93.7234 652.489 90.6447 647.905 Q87.5892 643.299 87.5892 634.572 Q87.5892 625.822 90.6447 621.239 Q93.7234 616.632 99.5335 616.632 Z" fill="#000000" fill-rule="nonzero" fill-opacity="1" /><path clip-path="url(#clip680)" d="M91.5706 260.269 L99.2095 260.269 L99.2095 233.903 L90.8993 235.57 L90.8993 231.311 L99.1632 229.644 L103.839 229.644 L103.839 260.269 L111.478 260.269 L111.478 264.204 L91.5706 264.204 L91.5706 260.269 Z" fill="#000000" fill-rule="nonzero" fill-opacity="1" /><circle clip-path="url(#clip681)" cx="953.978" cy="604.146" r="14.4" fill="#009af9" fill-rule="evenodd" fill-opacity="0.5" stroke="#000000" stroke-opacity="0.5" stroke-width="3.2"/>
<circle clip-path="url(#clip681)" cx="866.818" cy="878.803" r="14.4" fill="#009af9" fill-rule="evenodd" fill-opacity="0.5" stroke="#000000" stroke-opacity="0.5" stroke-width="3.2"/>
<circle clip-path="url(#clip681)" cx="342.126" cy="955.09" r="14.4" fill="#009af9" fill-rule="evenodd" fill-opacity="0.5" stroke="#000000" stroke-opacity="0.5" stroke-width="3.2"/>
<circle clip-path="url(#clip681)" cx="692.848" cy="1266.65" r="14.4" fill="#009af9" fill-rule="evenodd" fill-opacity="0.5" stroke="#000000" stroke-opacity="0.5" stroke-width="3.2"/>
<circle clip-path="url(#clip681)" cx="1816.85" cy="823.668" r="14.4" fill="#009af9" fill-rule="evenodd" fill-opacity="0.5" stroke="#000000" stroke-opacity="0.5" stroke-width="3.2"/>
<circle clip-path="url(#clip681)" cx="2290.34" cy="684.38" r="14.4" fill="#009af9" fill-rule="evenodd" fill-opacity="0.5" stroke="#000000" stroke-opacity="0.5" stroke-width="3.2"/>
<circle clip-path="url(#clip681)" cx="1120.05" cy="166.578" r="14.4" fill="#009af9" fill-rule="evenodd" fill-opacity="0.5" stroke="#000000" stroke-opacity="0.5" stroke-width="3.2"/>
<circle clip-path="url(#clip681)" cx="1602.53" cy="561.204" r="14.4" fill="#009af9" fill-rule="evenodd" fill-opacity="0.5" stroke="#000000" stroke-opacity="0.5" stroke-width="3.2"/>
<circle clip-path="url(#clip681)" cx="815.297" cy="719.77" r="14.4" fill="#009af9" fill-rule="evenodd" fill-opacity="0.5" stroke="#000000" stroke-opacity="0.5" stroke-width="3.2"/>
<circle clip-path="url(#clip681)" cx="814.655" cy="87.9763" r="14.4" fill="#009af9" fill-rule="evenodd" fill-opacity="0.5" stroke="#000000" stroke-opacity="0.5" stroke-width="3.2"/>
<circle clip-path="url(#clip681)" cx="588.762" cy="553.746" r="14.4" fill="#009af9" fill-rule="evenodd" fill-opacity="0.5" stroke="#000000" stroke-opacity="0.5" stroke-width="3.2"/>
<circle clip-path="url(#clip681)" cx="1764.79" cy="403.258" r="14.4" fill="#009af9" fill-rule="evenodd" fill-opacity="0.5" stroke="#000000" stroke-opacity="0.5" stroke-width="3.2"/>
<circle clip-path="url(#clip681)" cx="1917.01" cy="1360.27" r="14.4" fill="#009af9" fill-rule="evenodd" fill-opacity="0.5" stroke="#000000" stroke-opacity="0.5" stroke-width="3.2"/>
<circle clip-path="url(#clip681)" cx="705.892" cy="550.207" r="14.4" fill="#009af9" fill-rule="evenodd" fill-opacity="0.5" stroke="#000000" stroke-opacity="0.5" stroke-width="3.2"/>
<circle clip-path="url(#clip681)" cx="1361.33" cy="301.495" r="14.4" fill="#009af9" fill-rule="evenodd" fill-opacity="0.5" stroke="#000000" stroke-opacity="0.5" stroke-width="3.2"/>
<circle clip-path="url(#clip681)" cx="1822.18" cy="761.371" r="14.4" fill="#009af9" fill-rule="evenodd" fill-opacity="0.5" stroke="#000000" stroke-opacity="0.5" stroke-width="3.2"/>
<circle clip-path="url(#clip681)" cx="1274.58" cy="172.18" r="14.4" fill="#009af9" fill-rule="evenodd" fill-opacity="0.5" stroke="#000000" stroke-opacity="0.5" stroke-width="3.2"/>
<circle clip-path="url(#clip681)" cx="321.262" cy="405.559" r="14.4" fill="#009af9" fill-rule="evenodd" fill-opacity="0.5" stroke="#000000" stroke-opacity="0.5" stroke-width="3.2"/>
<circle clip-path="url(#clip681)" cx="1367.55" cy="138.521" r="14.4" fill="#009af9" fill-rule="evenodd" fill-opacity="0.5" stroke="#000000" stroke-opacity="0.5" stroke-width="3.2"/>
<circle clip-path="url(#clip681)" cx="2275.76" cy="381.397" r="14.4" fill="#009af9" fill-rule="evenodd" fill-opacity="0.5" stroke="#000000" stroke-opacity="0.5" stroke-width="3.2"/>
<circle clip-path="url(#clip681)" cx="2147.08" cy="514.805" r="14.4" fill="#009af9" fill-rule="evenodd" fill-opacity="0.5" stroke="#000000" stroke-opacity="0.5" stroke-width="3.2"/>
<circle clip-path="url(#clip681)" cx="838.073" cy="992.601" r="14.4" fill="#009af9" fill-rule="evenodd" fill-opacity="0.5" stroke="#000000" stroke-opacity="0.5" stroke-width="3.2"/>
<circle clip-path="url(#clip681)" cx="1524.02" cy="442.864" r="14.4" fill="#009af9" fill-rule="evenodd" fill-opacity="0.5" stroke="#000000" stroke-opacity="0.5" stroke-width="3.2"/>
<circle clip-path="url(#clip681)" cx="209.891" cy="793.17" r="14.4" fill="#009af9" fill-rule="evenodd" fill-opacity="0.5" stroke="#000000" stroke-opacity="0.5" stroke-width="3.2"/>
<circle clip-path="url(#clip681)" cx="1126.76" cy="679.31" r="14.4" fill="#009af9" fill-rule="evenodd" fill-opacity="0.5" stroke="#000000" stroke-opacity="0.5" stroke-width="3.2"/>
<circle clip-path="url(#clip681)" cx="236.094" cy="1445.72" r="14.4" fill="#009af9" fill-rule="evenodd" fill-opacity="0.5" stroke="#000000" stroke-opacity="0.5" stroke-width="3.2"/>
<circle clip-path="url(#clip681)" cx="1468.8" cy="807.188" r="14.4" fill="#009af9" fill-rule="evenodd" fill-opacity="0.5" stroke="#000000" stroke-opacity="0.5" stroke-width="3.2"/>
<circle clip-path="url(#clip681)" cx="2089.16" cy="486.487" r="14.4" fill="#009af9" fill-rule="evenodd" fill-opacity="0.5" stroke="#000000" stroke-opacity="0.5" stroke-width="3.2"/>
<circle clip-path="url(#clip681)" cx="1400.09" cy="344.356" r="14.4" fill="#009af9" fill-rule="evenodd" fill-opacity="0.5" stroke="#000000" stroke-opacity="0.5" stroke-width="3.2"/>
<circle clip-path="url(#clip681)" cx="1584.07" cy="242.063" r="14.4" fill="#009af9" fill-rule="evenodd" fill-opacity="0.5" stroke="#000000" stroke-opacity="0.5" stroke-width="3.2"/>
<path clip-path="url(#clip681)" d="M209.891 793.17 L236.094 1445.72 L1917.01 1360.27 L2290.34 684.38 L2275.76 381.397 L1367.55 138.521 L814.655 87.9763 L321.262 405.559 L209.891 793.17 L209.891 793.17  Z" fill="#e26f46" fill-rule="evenodd" fill-opacity="0.2"/>
<polyline clip-path="url(#clip681)" style="stroke:#000000; stroke-linecap:round; stroke-linejoin:round; stroke-width:4; stroke-opacity:0.2; fill:none" points="209.891,793.17 236.094,1445.72 1917.01,1360.27 2290.34,684.38 2275.76,381.397 1367.55,138.521 814.655,87.9763 321.262,405.559 209.891,793.17 "/>
</svg>
