<?xml version="1.0" encoding="utf-8"?>
<svg xmlns="http://www.w3.org/2000/svg" xmlns:xlink="http://www.w3.org/1999/xlink" width="600" height="400" viewBox="0 0 2400 1600">
<defs>
  <clipPath id="clip920">
    <rect x="0" y="0" width="2400" height="1600"/>
  </clipPath>
</defs>
<path clip-path="url(#clip920)" d="M0 1600 L2400 1600 L2400 0 L0 0  Z" fill="#ffffff" fill-rule="evenodd" fill-opacity="1"/>
<defs>
  <clipPath id="clip921">
    <rect x="480" y="0" width="1681" height="1600"/>
  </clipPath>
</defs>
<path clip-path="url(#clip920)" d="M148.057 1486.45 L2352.76 1486.45 L2352.76 47.2441 L148.057 47.2441  Z" fill="#ffffff" fill-rule="evenodd" fill-opacity="1"/>
<defs>
  <clipPath id="clip922">
    <rect x="148" y="47" width="2206" height="1440"/>
  </clipPath>
</defs>
<polyline clip-path="url(#clip922)" style="stroke:#000000; stroke-linecap:round; stroke-linejoin:round; stroke-width:2; stroke-opacity:0.1; fill:none" points="277.933,1486.45 277.933,47.2441 "/>
<polyline clip-path="url(#clip922)" style="stroke:#000000; stroke-linecap:round; stroke-linejoin:round; stroke-width:2; stroke-opacity:0.1; fill:none" points="786.108,1486.45 786.108,47.2441 "/>
<polyline clip-path="url(#clip922)" style="stroke:#000000; stroke-linecap:round; stroke-linejoin:round; stroke-width:2; stroke-opacity:0.1; fill:none" points="1294.28,1486.45 1294.28,47.2441 "/>
<polyline clip-path="url(#clip922)" style="stroke:#000000; stroke-linecap:round; stroke-linejoin:round; stroke-width:2; stroke-opacity:0.1; fill:none" points="1802.46,1486.45 1802.46,47.2441 "/>
<polyline clip-path="url(#clip922)" style="stroke:#000000; stroke-linecap:round; stroke-linejoin:round; stroke-width:2; stroke-opacity:0.1; fill:none" points="2310.64,1486.45 2310.64,47.2441 "/>
<polyline clip-path="url(#clip922)" style="stroke:#000000; stroke-linecap:round; stroke-linejoin:round; stroke-width:2; stroke-opacity:0.1; fill:none" points="148.057,1462.99 2352.76,1462.99 "/>
<polyline clip-path="url(#clip922)" style="stroke:#000000; stroke-linecap:round; stroke-linejoin:round; stroke-width:2; stroke-opacity:0.1; fill:none" points="148.057,1227.95 2352.76,1227.95 "/>
<polyline clip-path="url(#clip922)" style="stroke:#000000; stroke-linecap:round; stroke-linejoin:round; stroke-width:2; stroke-opacity:0.1; fill:none" points="148.057,992.919 2352.76,992.919 "/>
<polyline clip-path="url(#clip922)" style="stroke:#000000; stroke-linecap:round; stroke-linejoin:round; stroke-width:2; stroke-opacity:0.1; fill:none" points="148.057,757.886 2352.76,757.886 "/>
<polyline clip-path="url(#clip922)" style="stroke:#000000; stroke-linecap:round; stroke-linejoin:round; stroke-width:2; stroke-opacity:0.1; fill:none" points="148.057,522.852 2352.76,522.852 "/>
<polyline clip-path="url(#clip922)" style="stroke:#000000; stroke-linecap:round; stroke-linejoin:round; stroke-width:2; stroke-opacity:0.1; fill:none" points="148.057,287.819 2352.76,287.819 "/>
<polyline clip-path="url(#clip922)" style="stroke:#000000; stroke-linecap:round; stroke-linejoin:round; stroke-width:2; stroke-opacity:0.1; fill:none" points="148.057,52.7849 2352.76,52.7849 "/>
<polyline clip-path="url(#clip920)" style="stroke:#000000; stroke-linecap:round; stroke-linejoin:round; stroke-width:4; stroke-opacity:1; fill:none" points="148.057,1486.45 2352.76,1486.45 "/>
<polyline clip-path="url(#clip920)" style="stroke:#000000; stroke-linecap:round; stroke-linejoin:round; stroke-width:4; stroke-opacity:1; fill:none" points="277.933,1486.45 277.933,1467.55 "/>
<polyline clip-path="url(#clip920)" style="stroke:#000000; stroke-linecap:round; stroke-linejoin:round; stroke-width:4; stroke-opacity:1; fill:none" points="786.108,1486.45 786.108,1467.55 "/>
<polyline clip-path="url(#clip920)" style="stroke:#000000; stroke-linecap:round; stroke-linejoin:round; stroke-width:4; stroke-opacity:1; fill:none" points="1294.28,1486.45 1294.28,1467.55 "/>
<polyline clip-path="url(#clip920)" style="stroke:#000000; stroke-linecap:round; stroke-linejoin:round; stroke-width:4; stroke-opacity:1; fill:none" points="1802.46,1486.45 1802.46,1467.55 "/>
<polyline clip-path="url(#clip920)" style="stroke:#000000; stroke-linecap:round; stroke-linejoin:round; stroke-width:4; stroke-opacity:1; fill:none" points="2310.64,1486.45 2310.64,1467.55 "/>
<path clip-path="url(#clip920)" d="M247.875 1532.02 L277.551 1532.02 L277.551 1535.95 L247.875 1535.95 L247.875 1532.02 Z" fill="#000000" fill-rule="nonzero" fill-opacity="1" /><path clip-path="url(#clip920)" d="M291.671 1544.91 L307.99 1544.91 L307.99 1548.85 L286.046 1548.85 L286.046 1544.91 Q288.708 1542.16 293.291 1537.53 Q297.898 1532.88 299.078 1531.53 Q301.324 1529.01 302.203 1527.27 Q303.106 1525.51 303.106 1523.82 Q303.106 1521.07 301.162 1519.33 Q299.24 1517.6 296.138 1517.6 Q293.939 1517.6 291.486 1518.36 Q289.055 1519.13 286.277 1520.68 L286.277 1515.95 Q289.101 1514.82 291.555 1514.24 Q294.009 1513.66 296.046 1513.66 Q301.416 1513.66 304.611 1516.35 Q307.805 1519.03 307.805 1523.52 Q307.805 1525.65 306.995 1527.57 Q306.208 1529.47 304.101 1532.07 Q303.523 1532.74 300.421 1535.95 Q297.319 1539.15 291.671 1544.91 Z" fill="#000000" fill-rule="nonzero" fill-opacity="1" /><path clip-path="url(#clip920)" d="M755.866 1532.02 L785.541 1532.02 L785.541 1535.95 L755.866 1535.95 L755.866 1532.02 Z" fill="#000000" fill-rule="nonzero" fill-opacity="1" /><path clip-path="url(#clip920)" d="M796.444 1544.91 L804.083 1544.91 L804.083 1518.55 L795.773 1520.21 L795.773 1515.95 L804.037 1514.29 L808.713 1514.29 L808.713 1544.91 L816.351 1544.91 L816.351 1548.85 L796.444 1548.85 L796.444 1544.91 Z" fill="#000000" fill-rule="nonzero" fill-opacity="1" /><path clip-path="url(#clip920)" d="M1294.28 1517.37 Q1290.67 1517.37 1288.84 1520.93 Q1287.04 1524.47 1287.04 1531.6 Q1287.04 1538.71 1288.84 1542.27 Q1290.67 1545.82 1294.28 1545.82 Q1297.92 1545.82 1299.72 1542.27 Q1301.55 1538.71 1301.55 1531.6 Q1301.55 1524.47 1299.72 1520.93 Q1297.92 1517.37 1294.28 1517.37 M1294.28 1513.66 Q1300.09 1513.66 1303.15 1518.27 Q1306.23 1522.85 1306.23 1531.6 Q1306.23 1540.33 1303.15 1544.94 Q1300.09 1549.52 1294.28 1549.52 Q1288.47 1549.52 1285.4 1544.94 Q1282.34 1540.33 1282.34 1531.6 Q1282.34 1522.85 1285.4 1518.27 Q1288.47 1513.66 1294.28 1513.66 Z" fill="#000000" fill-rule="nonzero" fill-opacity="1" /><path clip-path="url(#clip920)" d="M1792.84 1544.91 L1800.48 1544.91 L1800.48 1518.55 L1792.17 1520.21 L1792.17 1515.95 L1800.43 1514.29 L1805.11 1514.29 L1805.11 1544.91 L1812.75 1544.91 L1812.75 1548.85 L1792.84 1548.85 L1792.84 1544.91 Z" fill="#000000" fill-rule="nonzero" fill-opacity="1" /><path clip-path="url(#clip920)" d="M2305.29 1544.91 L2321.61 1544.91 L2321.61 1548.85 L2299.66 1548.85 L2299.66 1544.91 Q2302.33 1542.16 2306.91 1537.53 Q2311.52 1532.88 2312.7 1531.53 Q2314.94 1529.01 2315.82 1527.27 Q2316.72 1525.51 2316.72 1523.82 Q2316.72 1521.07 2314.78 1519.33 Q2312.86 1517.6 2309.76 1517.6 Q2307.56 1517.6 2305.1 1518.36 Q2302.67 1519.13 2299.9 1520.68 L2299.9 1515.95 Q2302.72 1514.82 2305.17 1514.24 Q2307.63 1513.66 2309.66 1513.66 Q2315.03 1513.66 2318.23 1516.35 Q2321.42 1519.03 2321.42 1523.52 Q2321.42 1525.65 2320.61 1527.57 Q2319.83 1529.47 2317.72 1532.07 Q2317.14 1532.74 2314.04 1535.95 Q2310.94 1539.15 2305.29 1544.91 Z" fill="#000000" fill-rule="nonzero" fill-opacity="1" /><polyline clip-path="url(#clip920)" style="stroke:#000000; stroke-linecap:round; stroke-linejoin:round; stroke-width:4; stroke-opacity:1; fill:none" points="148.057,1486.45 148.057,47.2441 "/>
<polyline clip-path="url(#clip920)" style="stroke:#000000; stroke-linecap:round; stroke-linejoin:round; stroke-width:4; stroke-opacity:1; fill:none" points="148.057,1462.99 166.954,1462.99 "/>
<polyline clip-path="url(#clip920)" style="stroke:#000000; stroke-linecap:round; stroke-linejoin:round; stroke-width:4; stroke-opacity:1; fill:none" points="148.057,1227.95 166.954,1227.95 "/>
<polyline clip-path="url(#clip920)" style="stroke:#000000; stroke-linecap:round; stroke-linejoin:round; stroke-width:4; stroke-opacity:1; fill:none" points="148.057,992.919 166.954,992.919 "/>
<polyline clip-path="url(#clip920)" style="stroke:#000000; stroke-linecap:round; stroke-linejoin:round; stroke-width:4; stroke-opacity:1; fill:none" points="148.057,757.886 166.954,757.886 "/>
<polyline clip-path="url(#clip920)" style="stroke:#000000; stroke-linecap:round; stroke-linejoin:round; stroke-width:4; stroke-opacity:1; fill:none" points="148.057,522.852 166.954,522.852 "/>
<polyline clip-path="url(#clip920)" style="stroke:#000000; stroke-linecap:round; stroke-linejoin:round; stroke-width:4; stroke-opacity:1; fill:none" points="148.057,287.819 166.954,287.819 "/>
<polyline clip-path="url(#clip920)" style="stroke:#000000; stroke-linecap:round; stroke-linejoin:round; stroke-width:4; stroke-opacity:1; fill:none" points="148.057,52.7849 166.954,52.7849 "/>
<path clip-path="url(#clip920)" d="M50.9921 1463.44 L80.6679 1463.44 L80.6679 1467.37 L50.9921 1467.37 L50.9921 1463.44 Z" fill="#000000" fill-rule="nonzero" fill-opacity="1" /><path clip-path="url(#clip920)" d="M104.927 1461.63 Q108.283 1462.35 110.158 1464.62 Q112.057 1466.89 112.057 1470.22 Q112.057 1475.34 108.538 1478.14 Q105.02 1480.94 98.5382 1480.94 Q96.3623 1480.94 94.0475 1480.5 Q91.7558 1480.08 89.3021 1479.22 L89.3021 1474.71 Q91.2465 1475.85 93.5613 1476.42 Q95.8761 1477 98.3993 1477 Q102.797 1477 105.089 1475.27 Q107.404 1473.53 107.404 1470.22 Q107.404 1467.16 105.251 1465.45 Q103.121 1463.72 99.3021 1463.72 L95.2743 1463.72 L95.2743 1459.87 L99.4872 1459.87 Q102.936 1459.87 104.765 1458.51 Q106.594 1457.12 106.594 1454.53 Q106.594 1451.86 104.696 1450.45 Q102.821 1449.02 99.3021 1449.02 Q97.3808 1449.02 95.1817 1449.43 Q92.9826 1449.85 90.3438 1450.73 L90.3438 1446.56 Q93.0058 1445.82 95.3206 1445.45 Q97.6585 1445.08 99.7187 1445.08 Q105.043 1445.08 108.145 1447.51 Q111.246 1449.92 111.246 1454.04 Q111.246 1456.91 109.603 1458.9 Q107.959 1460.87 104.927 1461.63 Z" fill="#000000" fill-rule="nonzero" fill-opacity="1" /><path clip-path="url(#clip920)" d="M51.9412 1228.4 L81.617 1228.4 L81.617 1232.34 L51.9412 1232.34 L51.9412 1228.4 Z" fill="#000000" fill-rule="nonzero" fill-opacity="1" /><path clip-path="url(#clip920)" d="M95.7373 1241.3 L112.057 1241.3 L112.057 1245.23 L90.1123 1245.23 L90.1123 1241.3 Q92.7743 1238.54 97.3576 1233.91 Q101.964 1229.26 103.145 1227.92 Q105.39 1225.39 106.27 1223.66 Q107.172 1221.9 107.172 1220.21 Q107.172 1217.46 105.228 1215.72 Q103.307 1213.98 100.205 1213.98 Q98.0058 1213.98 95.5521 1214.75 Q93.1215 1215.51 90.3438 1217.06 L90.3438 1212.34 Q93.1678 1211.21 95.6215 1210.63 Q98.0752 1210.05 100.112 1210.05 Q105.483 1210.05 108.677 1212.73 Q111.871 1215.42 111.871 1219.91 Q111.871 1222.04 111.061 1223.96 Q110.274 1225.86 108.168 1228.45 Q107.589 1229.12 104.487 1232.34 Q101.385 1235.53 95.7373 1241.3 Z" fill="#000000" fill-rule="nonzero" fill-opacity="1" /><path clip-path="url(#clip920)" d="M51.5708 993.371 L81.2466 993.371 L81.2466 997.306 L51.5708 997.306 L51.5708 993.371 Z" fill="#000000" fill-rule="nonzero" fill-opacity="1" /><path clip-path="url(#clip920)" d="M92.1493 1006.26 L99.7882 1006.26 L99.7882 979.898 L91.478 981.565 L91.478 977.306 L99.7419 975.639 L104.418 975.639 L104.418 1006.26 L112.057 1006.26 L112.057 1010.2 L92.1493 1010.2 L92.1493 1006.26 Z" fill="#000000" fill-rule="nonzero" fill-opacity="1" /><path clip-path="url(#clip920)" d="M100.112 743.684 Q96.5011 743.684 94.6724 747.249 Q92.8669 750.791 92.8669 757.92 Q92.8669 765.027 94.6724 768.592 Q96.5011 772.133 100.112 772.133 Q103.746 772.133 105.552 768.592 Q107.381 765.027 107.381 757.92 Q107.381 750.791 105.552 747.249 Q103.746 743.684 100.112 743.684 M100.112 739.981 Q105.922 739.981 108.978 744.587 Q112.057 749.17 112.057 757.92 Q112.057 766.647 108.978 771.254 Q105.922 775.837 100.112 775.837 Q94.3021 775.837 91.2234 771.254 Q88.1679 766.647 88.1679 757.92 Q88.1679 749.17 91.2234 744.587 Q94.3021 739.981 100.112 739.981 Z" fill="#000000" fill-rule="nonzero" fill-opacity="1" /><path clip-path="url(#clip920)" d="M92.1493 536.197 L99.7882 536.197 L99.7882 509.831 L91.478 511.498 L91.478 507.239 L99.7419 505.572 L104.418 505.572 L104.418 536.197 L112.057 536.197 L112.057 540.132 L92.1493 540.132 L92.1493 536.197 Z" fill="#000000" fill-rule="nonzero" fill-opacity="1" /><path clip-path="url(#clip920)" d="M95.7373 301.163 L112.057 301.163 L112.057 305.099 L90.1123 305.099 L90.1123 301.163 Q92.7743 298.409 97.3576 293.779 Q101.964 289.126 103.145 287.784 Q105.39 285.261 106.27 283.525 Q107.172 281.765 107.172 280.076 Q107.172 277.321 105.228 275.585 Q103.307 273.849 100.205 273.849 Q98.0058 273.849 95.5521 274.613 Q93.1215 275.376 90.3438 276.927 L90.3438 272.205 Q93.1678 271.071 95.6215 270.492 Q98.0752 269.914 100.112 269.914 Q105.483 269.914 108.677 272.599 Q111.871 275.284 111.871 279.775 Q111.871 281.904 111.061 283.825 Q110.274 285.724 108.168 288.316 Q107.589 288.987 104.487 292.205 Q101.385 295.399 95.7373 301.163 Z" fill="#000000" fill-rule="nonzero" fill-opacity="1" /><path clip-path="url(#clip920)" d="M104.927 51.4308 Q108.283 52.1484 110.158 54.4169 Q112.057 56.6854 112.057 60.0187 Q112.057 65.1344 108.538 67.9353 Q105.02 70.7362 98.5382 70.7362 Q96.3623 70.7362 94.0475 70.2964 Q91.7558 69.8798 89.3021 69.0233 L89.3021 64.5094 Q91.2465 65.6437 93.5613 66.2224 Q95.8761 66.8011 98.3993 66.8011 Q102.797 66.8011 105.089 65.065 Q107.404 63.3289 107.404 60.0187 Q107.404 56.9632 105.251 55.2502 Q103.121 53.5141 99.3021 53.5141 L95.2743 53.5141 L95.2743 49.6715 L99.4872 49.6715 Q102.936 49.6715 104.765 48.3058 Q106.594 46.9169 106.594 44.3243 Q106.594 41.6623 104.696 40.2503 Q102.821 38.8151 99.3021 38.8151 Q97.3808 38.8151 95.1817 39.2318 Q92.9826 39.6484 90.3438 40.5281 L90.3438 36.3614 Q93.0058 35.6207 95.3206 35.2503 Q97.6585 34.8799 99.7187 34.8799 Q105.043 34.8799 108.145 37.3105 Q111.246 39.7179 111.246 43.8382 Q111.246 46.7086 109.603 48.6993 Q107.959 50.6669 104.927 51.4308 Z" fill="#000000" fill-rule="nonzero" fill-opacity="1" /><circle clip-path="url(#clip922)" cx="1596.12" cy="621.218" r="14.4" fill="#009af9" fill-rule="evenodd" fill-opacity="0.5" stroke="#000000" stroke-opacity="0.5" stroke-width="3.2"/>
<circle clip-path="url(#clip922)" cx="1631.37" cy="1445.72" r="14.4" fill="#009af9" fill-rule="evenodd" fill-opacity="0.5" stroke="#000000" stroke-opacity="0.5" stroke-width="3.2"/>
<circle clip-path="url(#clip922)" cx="1245.8" cy="827.284" r="14.4" fill="#009af9" fill-rule="evenodd" fill-opacity="0.5" stroke="#000000" stroke-opacity="0.5" stroke-width="3.2"/>
<circle clip-path="url(#clip922)" cx="1496.17" cy="403.198" r="14.4" fill="#009af9" fill-rule="evenodd" fill-opacity="0.5" stroke="#000000" stroke-opacity="0.5" stroke-width="3.2"/>
<circle clip-path="url(#clip922)" cx="1417.68" cy="768.564" r="14.4" fill="#009af9" fill-rule="evenodd" fill-opacity="0.5" stroke="#000000" stroke-opacity="0.5" stroke-width="3.2"/>
<circle clip-path="url(#clip922)" cx="1039.95" cy="876.674" r="14.4" fill="#009af9" fill-rule="evenodd" fill-opacity="0.5" stroke="#000000" stroke-opacity="0.5" stroke-width="3.2"/>
<circle clip-path="url(#clip922)" cx="1649.8" cy="608.576" r="14.4" fill="#009af9" fill-rule="evenodd" fill-opacity="0.5" stroke="#000000" stroke-opacity="0.5" stroke-width="3.2"/>
<circle clip-path="url(#clip922)" cx="1442.56" cy="635.722" r="14.4" fill="#009af9" fill-rule="evenodd" fill-opacity="0.5" stroke="#000000" stroke-opacity="0.5" stroke-width="3.2"/>
<circle clip-path="url(#clip922)" cx="1449.26" cy="569.694" r="14.4" fill="#009af9" fill-rule="evenodd" fill-opacity="0.5" stroke="#000000" stroke-opacity="0.5" stroke-width="3.2"/>
<circle clip-path="url(#clip922)" cx="500.684" cy="471.175" r="14.4" fill="#009af9" fill-rule="evenodd" fill-opacity="0.5" stroke="#000000" stroke-opacity="0.5" stroke-width="3.2"/>
<circle clip-path="url(#clip922)" cx="1203.85" cy="906.577" r="14.4" fill="#009af9" fill-rule="evenodd" fill-opacity="0.5" stroke="#000000" stroke-opacity="0.5" stroke-width="3.2"/>
<circle clip-path="url(#clip922)" cx="960.616" cy="1136.19" r="14.4" fill="#009af9" fill-rule="evenodd" fill-opacity="0.5" stroke="#000000" stroke-opacity="0.5" stroke-width="3.2"/>
<circle clip-path="url(#clip922)" cx="534.91" cy="800.345" r="14.4" fill="#009af9" fill-rule="evenodd" fill-opacity="0.5" stroke="#000000" stroke-opacity="0.5" stroke-width="3.2"/>
<circle clip-path="url(#clip922)" cx="1696.8" cy="675.158" r="14.4" fill="#009af9" fill-rule="evenodd" fill-opacity="0.5" stroke="#000000" stroke-opacity="0.5" stroke-width="3.2"/>
<circle clip-path="url(#clip922)" cx="1066.52" cy="966.296" r="14.4" fill="#009af9" fill-rule="evenodd" fill-opacity="0.5" stroke="#000000" stroke-opacity="0.5" stroke-width="3.2"/>
<circle clip-path="url(#clip922)" cx="1038.38" cy="587.714" r="14.4" fill="#009af9" fill-rule="evenodd" fill-opacity="0.5" stroke="#000000" stroke-opacity="0.5" stroke-width="3.2"/>
<circle clip-path="url(#clip922)" cx="1781.46" cy="908.296" r="14.4" fill="#009af9" fill-rule="evenodd" fill-opacity="0.5" stroke="#000000" stroke-opacity="0.5" stroke-width="3.2"/>
<circle clip-path="url(#clip922)" cx="605.208" cy="734.892" r="14.4" fill="#009af9" fill-rule="evenodd" fill-opacity="0.5" stroke="#000000" stroke-opacity="0.5" stroke-width="3.2"/>
<circle clip-path="url(#clip922)" cx="1119.96" cy="665.347" r="14.4" fill="#009af9" fill-rule="evenodd" fill-opacity="0.5" stroke="#000000" stroke-opacity="0.5" stroke-width="3.2"/>
<circle clip-path="url(#clip922)" cx="744.903" cy="410.896" r="14.4" fill="#009af9" fill-rule="evenodd" fill-opacity="0.5" stroke="#000000" stroke-opacity="0.5" stroke-width="3.2"/>
<circle clip-path="url(#clip922)" cx="1094.39" cy="796.52" r="14.4" fill="#009af9" fill-rule="evenodd" fill-opacity="0.5" stroke="#000000" stroke-opacity="0.5" stroke-width="3.2"/>
<circle clip-path="url(#clip922)" cx="718.864" cy="898.472" r="14.4" fill="#009af9" fill-rule="evenodd" fill-opacity="0.5" stroke="#000000" stroke-opacity="0.5" stroke-width="3.2"/>
<circle clip-path="url(#clip922)" cx="2290.36" cy="929.298" r="14.4" fill="#009af9" fill-rule="evenodd" fill-opacity="0.5" stroke="#000000" stroke-opacity="0.5" stroke-width="3.2"/>
<circle clip-path="url(#clip922)" cx="1528.67" cy="863.115" r="14.4" fill="#009af9" fill-rule="evenodd" fill-opacity="0.5" stroke="#000000" stroke-opacity="0.5" stroke-width="3.2"/>
<circle clip-path="url(#clip922)" cx="1671.68" cy="87.9763" r="14.4" fill="#009af9" fill-rule="evenodd" fill-opacity="0.5" stroke="#000000" stroke-opacity="0.5" stroke-width="3.2"/>
<circle clip-path="url(#clip922)" cx="210.454" cy="1083.94" r="14.4" fill="#009af9" fill-rule="evenodd" fill-opacity="0.5" stroke="#000000" stroke-opacity="0.5" stroke-width="3.2"/>
<circle clip-path="url(#clip922)" cx="667.017" cy="741.207" r="14.4" fill="#009af9" fill-rule="evenodd" fill-opacity="0.5" stroke="#000000" stroke-opacity="0.5" stroke-width="3.2"/>
<circle clip-path="url(#clip922)" cx="1181.13" cy="867.317" r="14.4" fill="#009af9" fill-rule="evenodd" fill-opacity="0.5" stroke="#000000" stroke-opacity="0.5" stroke-width="3.2"/>
<circle clip-path="url(#clip922)" cx="1072.53" cy="880.327" r="14.4" fill="#009af9" fill-rule="evenodd" fill-opacity="0.5" stroke="#000000" stroke-opacity="0.5" stroke-width="3.2"/>
<circle clip-path="url(#clip922)" cx="1461.09" cy="755.268" r="14.4" fill="#009af9" fill-rule="evenodd" fill-opacity="0.5" stroke="#000000" stroke-opacity="0.5" stroke-width="3.2"/>
<path clip-path="url(#clip922)" d="M210.454 1083.94 L1631.37 1445.72 L2290.36 929.298 L1671.68 87.9763 L500.684 471.175 L210.454 1083.94 L210.454 1083.94  Z" fill="#e26f46" fill-rule="evenodd" fill-opacity="0.2"/>
<polyline clip-path="url(#clip922)" style="stroke:#000000; stroke-linecap:round; stroke-linejoin:round; stroke-width:4; stroke-opacity:0.2; fill:none" points="210.454,1083.94 1631.37,1445.72 2290.36,929.298 1671.68,87.9763 500.684,471.175 210.454,1083.94 "/>
</svg>
