<?xml version="1.0" encoding="utf-8"?>
<svg xmlns="http://www.w3.org/2000/svg" xmlns:xlink="http://www.w3.org/1999/xlink" width="600" height="400" viewBox="0 0 2400 1600">
<defs>
  <clipPath id="clip840">
    <rect x="0" y="0" width="2400" height="1600"/>
  </clipPath>
</defs>
<path clip-path="url(#clip840)" d="M0 1600 L2400 1600 L2400 0 L0 0  Z" fill="#ffffff" fill-rule="evenodd" fill-opacity="1"/>
<defs>
  <clipPath id="clip841">
    <rect x="480" y="0" width="1681" height="1600"/>
  </clipPath>
</defs>
<path clip-path="url(#clip840)" d="M148.057 1486.45 L2352.76 1486.45 L2352.76 47.2441 L148.057 47.2441  Z" fill="#ffffff" fill-rule="evenodd" fill-opacity="1"/>
<defs>
  <clipPath id="clip842">
    <rect x="148" y="47" width="2206" height="1440"/>
  </clipPath>
</defs>
<polyline clip-path="url(#clip842)" style="stroke:#000000; stroke-linecap:round; stroke-linejoin:round; stroke-width:2; stroke-opacity:0.1; fill:none" points="332.41,1486.45 332.41,47.2441 "/>
<polyline clip-path="url(#clip842)" style="stroke:#000000; stroke-linecap:round; stroke-linejoin:round; stroke-width:2; stroke-opacity:0.1; fill:none" points="968.748,1486.45 968.748,47.2441 "/>
<polyline clip-path="url(#clip842)" style="stroke:#000000; stroke-linecap:round; stroke-linejoin:round; stroke-width:2; stroke-opacity:0.1; fill:none" points="1605.09,1486.45 1605.09,47.2441 "/>
<polyline clip-path="url(#clip842)" style="stroke:#000000; stroke-linecap:round; stroke-linejoin:round; stroke-width:2; stroke-opacity:0.1; fill:none" points="2241.42,1486.45 2241.42,47.2441 "/>
<polyline clip-path="url(#clip842)" style="stroke:#000000; stroke-linecap:round; stroke-linejoin:round; stroke-width:2; stroke-opacity:0.1; fill:none" points="148.057,1401.59 2352.76,1401.59 "/>
<polyline clip-path="url(#clip842)" style="stroke:#000000; stroke-linecap:round; stroke-linejoin:round; stroke-width:2; stroke-opacity:0.1; fill:none" points="148.057,1085.45 2352.76,1085.45 "/>
<polyline clip-path="url(#clip842)" style="stroke:#000000; stroke-linecap:round; stroke-linejoin:round; stroke-width:2; stroke-opacity:0.1; fill:none" points="148.057,769.315 2352.76,769.315 "/>
<polyline clip-path="url(#clip842)" style="stroke:#000000; stroke-linecap:round; stroke-linejoin:round; stroke-width:2; stroke-opacity:0.1; fill:none" points="148.057,453.176 2352.76,453.176 "/>
<polyline clip-path="url(#clip842)" style="stroke:#000000; stroke-linecap:round; stroke-linejoin:round; stroke-width:2; stroke-opacity:0.1; fill:none" points="148.057,137.038 2352.76,137.038 "/>
<polyline clip-path="url(#clip840)" style="stroke:#000000; stroke-linecap:round; stroke-linejoin:round; stroke-width:4; stroke-opacity:1; fill:none" points="148.057,1486.45 2352.76,1486.45 "/>
<polyline clip-path="url(#clip840)" style="stroke:#000000; stroke-linecap:round; stroke-linejoin:round; stroke-width:4; stroke-opacity:1; fill:none" points="332.41,1486.45 332.41,1467.55 "/>
<polyline clip-path="url(#clip840)" style="stroke:#000000; stroke-linecap:round; stroke-linejoin:round; stroke-width:4; stroke-opacity:1; fill:none" points="968.748,1486.45 968.748,1467.55 "/>
<polyline clip-path="url(#clip840)" style="stroke:#000000; stroke-linecap:round; stroke-linejoin:round; stroke-width:4; stroke-opacity:1; fill:none" points="1605.09,1486.45 1605.09,1467.55 "/>
<polyline clip-path="url(#clip840)" style="stroke:#000000; stroke-linecap:round; stroke-linejoin:round; stroke-width:4; stroke-opacity:1; fill:none" points="2241.42,1486.45 2241.42,1467.55 "/>
<path clip-path="url(#clip840)" d="M302.352 1532.02 L332.028 1532.02 L332.028 1535.95 L302.352 1535.95 L302.352 1532.02 Z" fill="#000000" fill-rule="nonzero" fill-opacity="1" /><path clip-path="url(#clip840)" d="M346.148 1544.91 L362.468 1544.91 L362.468 1548.85 L340.523 1548.85 L340.523 1544.91 Q343.185 1542.16 347.769 1537.53 Q352.375 1532.88 353.556 1531.53 Q355.801 1529.01 356.681 1527.27 Q357.584 1525.51 357.584 1523.82 Q357.584 1521.07 355.639 1519.33 Q353.718 1517.6 350.616 1517.6 Q348.417 1517.6 345.963 1518.36 Q343.533 1519.13 340.755 1520.68 L340.755 1515.95 Q343.579 1514.82 346.033 1514.24 Q348.486 1513.66 350.523 1513.66 Q355.894 1513.66 359.088 1516.35 Q362.283 1519.03 362.283 1523.52 Q362.283 1525.65 361.472 1527.57 Q360.685 1529.47 358.579 1532.07 Q358 1532.74 354.898 1535.95 Q351.797 1539.15 346.148 1544.91 Z" fill="#000000" fill-rule="nonzero" fill-opacity="1" /><path clip-path="url(#clip840)" d="M938.505 1532.02 L968.18 1532.02 L968.18 1535.95 L938.505 1535.95 L938.505 1532.02 Z" fill="#000000" fill-rule="nonzero" fill-opacity="1" /><path clip-path="url(#clip840)" d="M979.083 1544.91 L986.722 1544.91 L986.722 1518.55 L978.412 1520.21 L978.412 1515.95 L986.676 1514.29 L991.352 1514.29 L991.352 1544.91 L998.99 1544.91 L998.99 1548.85 L979.083 1548.85 L979.083 1544.91 Z" fill="#000000" fill-rule="nonzero" fill-opacity="1" /><path clip-path="url(#clip840)" d="M1605.09 1517.37 Q1601.47 1517.37 1599.65 1520.93 Q1597.84 1524.47 1597.84 1531.6 Q1597.84 1538.71 1599.65 1542.27 Q1601.47 1545.82 1605.09 1545.82 Q1608.72 1545.82 1610.52 1542.27 Q1612.35 1538.71 1612.35 1531.6 Q1612.35 1524.47 1610.52 1520.93 Q1608.72 1517.37 1605.09 1517.37 M1605.09 1513.66 Q1610.9 1513.66 1613.95 1518.27 Q1617.03 1522.85 1617.03 1531.6 Q1617.03 1540.33 1613.95 1544.94 Q1610.9 1549.52 1605.09 1549.52 Q1599.27 1549.52 1596.2 1544.94 Q1593.14 1540.33 1593.14 1531.6 Q1593.14 1522.85 1596.2 1518.27 Q1599.27 1513.66 1605.09 1513.66 Z" fill="#000000" fill-rule="nonzero" fill-opacity="1" /><path clip-path="url(#clip840)" d="M2231.8 1544.91 L2239.44 1544.91 L2239.44 1518.55 L2231.13 1520.21 L2231.13 1515.95 L2239.4 1514.29 L2244.07 1514.29 L2244.07 1544.91 L2251.71 1544.91 L2251.71 1548.85 L2231.8 1548.85 L2231.8 1544.91 Z" fill="#000000" fill-rule="nonzero" fill-opacity="1" /><polyline clip-path="url(#clip840)" style="stroke:#000000; stroke-linecap:round; stroke-linejoin:round; stroke-width:4; stroke-opacity:1; fill:none" points="148.057,1486.45 148.057,47.2441 "/>
<polyline clip-path="url(#clip840)" style="stroke:#000000; stroke-linecap:round; stroke-linejoin:round; stroke-width:4; stroke-opacity:1; fill:none" points="148.057,1401.59 166.954,1401.59 "/>
<polyline clip-path="url(#clip840)" style="stroke:#000000; stroke-linecap:round; stroke-linejoin:round; stroke-width:4; stroke-opacity:1; fill:none" points="148.057,1085.45 166.954,1085.45 "/>
<polyline clip-path="url(#clip840)" style="stroke:#000000; stroke-linecap:round; stroke-linejoin:round; stroke-width:4; stroke-opacity:1; fill:none" points="148.057,769.315 166.954,769.315 "/>
<polyline clip-path="url(#clip840)" style="stroke:#000000; stroke-linecap:round; stroke-linejoin:round; stroke-width:4; stroke-opacity:1; fill:none" points="148.057,453.176 166.954,453.176 "/>
<polyline clip-path="url(#clip840)" style="stroke:#000000; stroke-linecap:round; stroke-linejoin:round; stroke-width:4; stroke-opacity:1; fill:none" points="148.057,137.038 166.954,137.038 "/>
<path clip-path="url(#clip840)" d="M50.9921 1402.04 L80.6679 1402.04 L80.6679 1405.98 L50.9921 1405.98 L50.9921 1402.04 Z" fill="#000000" fill-rule="nonzero" fill-opacity="1" /><path clip-path="url(#clip840)" d="M104.927 1400.24 Q108.283 1400.96 110.158 1403.22 Q112.057 1405.49 112.057 1408.83 Q112.057 1413.94 108.538 1416.74 Q105.02 1419.54 98.5382 1419.54 Q96.3623 1419.54 94.0475 1419.1 Q91.7558 1418.69 89.3021 1417.83 L89.3021 1413.32 Q91.2465 1414.45 93.5613 1415.03 Q95.8761 1415.61 98.3993 1415.61 Q102.797 1415.61 105.089 1413.87 Q107.404 1412.14 107.404 1408.83 Q107.404 1405.77 105.251 1404.06 Q103.121 1402.32 99.3021 1402.32 L95.2743 1402.32 L95.2743 1398.48 L99.4872 1398.48 Q102.936 1398.48 104.765 1397.11 Q106.594 1395.72 106.594 1393.13 Q106.594 1390.47 104.696 1389.06 Q102.821 1387.62 99.3021 1387.62 Q97.3808 1387.62 95.1817 1388.04 Q92.9826 1388.46 90.3438 1389.34 L90.3438 1385.17 Q93.0058 1384.43 95.3206 1384.06 Q97.6585 1383.69 99.7187 1383.69 Q105.043 1383.69 108.145 1386.12 Q111.246 1388.53 111.246 1392.65 Q111.246 1395.52 109.603 1397.51 Q107.959 1399.47 104.927 1400.24 Z" fill="#000000" fill-rule="nonzero" fill-opacity="1" /><path clip-path="url(#clip840)" d="M51.9412 1085.91 L81.617 1085.91 L81.617 1089.84 L51.9412 1089.84 L51.9412 1085.91 Z" fill="#000000" fill-rule="nonzero" fill-opacity="1" /><path clip-path="url(#clip840)" d="M95.7373 1098.8 L112.057 1098.8 L112.057 1102.73 L90.1123 1102.73 L90.1123 1098.8 Q92.7743 1096.04 97.3576 1091.41 Q101.964 1086.76 103.145 1085.42 Q105.39 1082.9 106.27 1081.16 Q107.172 1079.4 107.172 1077.71 Q107.172 1074.96 105.228 1073.22 Q103.307 1071.48 100.205 1071.48 Q98.0058 1071.48 95.5521 1072.25 Q93.1215 1073.01 90.3438 1074.56 L90.3438 1069.84 Q93.1678 1068.71 95.6215 1068.13 Q98.0752 1067.55 100.112 1067.55 Q105.483 1067.55 108.677 1070.23 Q111.871 1072.92 111.871 1077.41 Q111.871 1079.54 111.061 1081.46 Q110.274 1083.36 108.168 1085.95 Q107.589 1086.62 104.487 1089.84 Q101.385 1093.04 95.7373 1098.8 Z" fill="#000000" fill-rule="nonzero" fill-opacity="1" /><path clip-path="url(#clip840)" d="M51.5708 769.767 L81.2466 769.767 L81.2466 773.702 L51.5708 773.702 L51.5708 769.767 Z" fill="#000000" fill-rule="nonzero" fill-opacity="1" /><path clip-path="url(#clip840)" d="M92.1493 782.66 L99.7882 782.66 L99.7882 756.295 L91.478 757.961 L91.478 753.702 L99.7419 752.035 L104.418 752.035 L104.418 782.66 L112.057 782.66 L112.057 786.595 L92.1493 786.595 L92.1493 782.66 Z" fill="#000000" fill-rule="nonzero" fill-opacity="1" /><path clip-path="url(#clip840)" d="M100.112 438.975 Q96.5011 438.975 94.6724 442.54 Q92.8669 446.082 92.8669 453.211 Q92.8669 460.318 94.6724 463.882 Q96.5011 467.424 100.112 467.424 Q103.746 467.424 105.552 463.882 Q107.381 460.318 107.381 453.211 Q107.381 446.082 105.552 442.54 Q103.746 438.975 100.112 438.975 M100.112 435.271 Q105.922 435.271 108.978 439.878 Q112.057 444.461 112.057 453.211 Q112.057 461.938 108.978 466.544 Q105.922 471.128 100.112 471.128 Q94.3021 471.128 91.2234 466.544 Q88.1679 461.938 88.1679 453.211 Q88.1679 444.461 91.2234 439.878 Q94.3021 435.271 100.112 435.271 Z" fill="#000000" fill-rule="nonzero" fill-opacity="1" /><path clip-path="url(#clip840)" d="M92.1493 150.382 L99.7882 150.382 L99.7882 124.017 L91.478 125.684 L91.478 121.424 L99.7419 119.758 L104.418 119.758 L104.418 150.382 L112.057 150.382 L112.057 154.318 L92.1493 154.318 L92.1493 150.382 Z" fill="#000000" fill-rule="nonzero" fill-opacity="1" /><circle clip-path="url(#clip842)" cx="414.331" cy="584.988" r="14.4" fill="#009af9" fill-rule="evenodd" fill-opacity="0.5" stroke="#000000" stroke-opacity="0.5" stroke-width="3.2"/>
<circle clip-path="url(#clip842)" cx="1698.36" cy="698.105" r="14.4" fill="#009af9" fill-rule="evenodd" fill-opacity="0.5" stroke="#000000" stroke-opacity="0.5" stroke-width="3.2"/>
<circle clip-path="url(#clip842)" cx="1093.69" cy="329.013" r="14.4" fill="#009af9" fill-rule="evenodd" fill-opacity="0.5" stroke="#000000" stroke-opacity="0.5" stroke-width="3.2"/>
<circle clip-path="url(#clip842)" cx="1011.51" cy="798.588" r="14.4" fill="#009af9" fill-rule="evenodd" fill-opacity="0.5" stroke="#000000" stroke-opacity="0.5" stroke-width="3.2"/>
<circle clip-path="url(#clip842)" cx="1213.11" cy="517.883" r="14.4" fill="#009af9" fill-rule="evenodd" fill-opacity="0.5" stroke="#000000" stroke-opacity="0.5" stroke-width="3.2"/>
<circle clip-path="url(#clip842)" cx="1174.65" cy="946.05" r="14.4" fill="#009af9" fill-rule="evenodd" fill-opacity="0.5" stroke="#000000" stroke-opacity="0.5" stroke-width="3.2"/>
<circle clip-path="url(#clip842)" cx="1640.38" cy="296.099" r="14.4" fill="#009af9" fill-rule="evenodd" fill-opacity="0.5" stroke="#000000" stroke-opacity="0.5" stroke-width="3.2"/>
<circle clip-path="url(#clip842)" cx="609.089" cy="366.95" r="14.4" fill="#009af9" fill-rule="evenodd" fill-opacity="0.5" stroke="#000000" stroke-opacity="0.5" stroke-width="3.2"/>
<circle clip-path="url(#clip842)" cx="2131.31" cy="405.135" r="14.4" fill="#009af9" fill-rule="evenodd" fill-opacity="0.5" stroke="#000000" stroke-opacity="0.5" stroke-width="3.2"/>
<circle clip-path="url(#clip842)" cx="2017.8" cy="726.935" r="14.4" fill="#009af9" fill-rule="evenodd" fill-opacity="0.5" stroke="#000000" stroke-opacity="0.5" stroke-width="3.2"/>
<circle clip-path="url(#clip842)" cx="1290.28" cy="549.783" r="14.4" fill="#009af9" fill-rule="evenodd" fill-opacity="0.5" stroke="#000000" stroke-opacity="0.5" stroke-width="3.2"/>
<circle clip-path="url(#clip842)" cx="900.614" cy="395.553" r="14.4" fill="#009af9" fill-rule="evenodd" fill-opacity="0.5" stroke="#000000" stroke-opacity="0.5" stroke-width="3.2"/>
<circle clip-path="url(#clip842)" cx="1871.46" cy="423.01" r="14.4" fill="#009af9" fill-rule="evenodd" fill-opacity="0.5" stroke="#000000" stroke-opacity="0.5" stroke-width="3.2"/>
<circle clip-path="url(#clip842)" cx="1193.67" cy="369.571" r="14.4" fill="#009af9" fill-rule="evenodd" fill-opacity="0.5" stroke="#000000" stroke-opacity="0.5" stroke-width="3.2"/>
<circle clip-path="url(#clip842)" cx="1077.19" cy="858.153" r="14.4" fill="#009af9" fill-rule="evenodd" fill-opacity="0.5" stroke="#000000" stroke-opacity="0.5" stroke-width="3.2"/>
<circle clip-path="url(#clip842)" cx="1969" cy="1445.72" r="14.4" fill="#009af9" fill-rule="evenodd" fill-opacity="0.5" stroke="#000000" stroke-opacity="0.5" stroke-width="3.2"/>
<circle clip-path="url(#clip842)" cx="945.915" cy="712.779" r="14.4" fill="#009af9" fill-rule="evenodd" fill-opacity="0.5" stroke="#000000" stroke-opacity="0.5" stroke-width="3.2"/>
<circle clip-path="url(#clip842)" cx="2290.36" cy="154.29" r="14.4" fill="#009af9" fill-rule="evenodd" fill-opacity="0.5" stroke="#000000" stroke-opacity="0.5" stroke-width="3.2"/>
<circle clip-path="url(#clip842)" cx="1805.95" cy="462.039" r="14.4" fill="#009af9" fill-rule="evenodd" fill-opacity="0.5" stroke="#000000" stroke-opacity="0.5" stroke-width="3.2"/>
<circle clip-path="url(#clip842)" cx="809.657" cy="967.984" r="14.4" fill="#009af9" fill-rule="evenodd" fill-opacity="0.5" stroke="#000000" stroke-opacity="0.5" stroke-width="3.2"/>
<circle clip-path="url(#clip842)" cx="947.638" cy="418.922" r="14.4" fill="#009af9" fill-rule="evenodd" fill-opacity="0.5" stroke="#000000" stroke-opacity="0.5" stroke-width="3.2"/>
<circle clip-path="url(#clip842)" cx="1993.61" cy="272.315" r="14.4" fill="#009af9" fill-rule="evenodd" fill-opacity="0.5" stroke="#000000" stroke-opacity="0.5" stroke-width="3.2"/>
<circle clip-path="url(#clip842)" cx="2010.63" cy="1419.13" r="14.4" fill="#009af9" fill-rule="evenodd" fill-opacity="0.5" stroke="#000000" stroke-opacity="0.5" stroke-width="3.2"/>
<circle clip-path="url(#clip842)" cx="1359.11" cy="918.492" r="14.4" fill="#009af9" fill-rule="evenodd" fill-opacity="0.5" stroke="#000000" stroke-opacity="0.5" stroke-width="3.2"/>
<circle clip-path="url(#clip842)" cx="210.454" cy="500.316" r="14.4" fill="#009af9" fill-rule="evenodd" fill-opacity="0.5" stroke="#000000" stroke-opacity="0.5" stroke-width="3.2"/>
<circle clip-path="url(#clip842)" cx="2074.97" cy="514.209" r="14.4" fill="#009af9" fill-rule="evenodd" fill-opacity="0.5" stroke="#000000" stroke-opacity="0.5" stroke-width="3.2"/>
<circle clip-path="url(#clip842)" cx="1344.09" cy="537.067" r="14.4" fill="#009af9" fill-rule="evenodd" fill-opacity="0.5" stroke="#000000" stroke-opacity="0.5" stroke-width="3.2"/>
<circle clip-path="url(#clip842)" cx="970.783" cy="289.987" r="14.4" fill="#009af9" fill-rule="evenodd" fill-opacity="0.5" stroke="#000000" stroke-opacity="0.5" stroke-width="3.2"/>
<circle clip-path="url(#clip842)" cx="1394.1" cy="296.517" r="14.4" fill="#009af9" fill-rule="evenodd" fill-opacity="0.5" stroke="#000000" stroke-opacity="0.5" stroke-width="3.2"/>
<circle clip-path="url(#clip842)" cx="1324.49" cy="87.9763" r="14.4" fill="#009af9" fill-rule="evenodd" fill-opacity="0.5" stroke="#000000" stroke-opacity="0.5" stroke-width="3.2"/>
<path clip-path="url(#clip842)" d="M210.454 500.316 L809.657 967.984 L1969 1445.72 L2010.63 1419.13 L2290.36 154.29 L1324.49 87.9763 L210.454 500.316 L210.454 500.316  Z" fill="#e26f46" fill-rule="evenodd" fill-opacity="0.2"/>
<polyline clip-path="url(#clip842)" style="stroke:#000000; stroke-linecap:round; stroke-linejoin:round; stroke-width:4; stroke-opacity:0.2; fill:none" points="210.454,500.316 809.657,967.984 1969,1445.72 2010.63,1419.13 2290.36,154.29 1324.49,87.9763 210.454,500.316 "/>
</svg>
