<?xml version="1.0" encoding="utf-8"?>
<svg xmlns="http://www.w3.org/2000/svg" xmlns:xlink="http://www.w3.org/1999/xlink" width="600" height="400" viewBox="0 0 2400 1600">
<defs>
  <clipPath id="clip940">
    <rect x="0" y="0" width="2400" height="1600"/>
  </clipPath>
</defs>
<path clip-path="url(#clip940)" d="M0 1600 L2400 1600 L2400 0 L0 0  Z" fill="#ffffff" fill-rule="evenodd" fill-opacity="1"/>
<defs>
  <clipPath id="clip941">
    <rect x="480" y="0" width="1681" height="1600"/>
  </clipPath>
</defs>
<path clip-path="url(#clip940)" d="M193.936 1486.45 L2352.76 1486.45 L2352.76 47.2441 L193.936 47.2441  Z" fill="#ffffff" fill-rule="evenodd" fill-opacity="1"/>
<defs>
  <clipPath id="clip942">
    <rect x="193" y="47" width="2160" height="1440"/>
  </clipPath>
</defs>
<polyline clip-path="url(#clip942)" style="stroke:#000000; stroke-linecap:round; stroke-linejoin:round; stroke-width:2; stroke-opacity:0.1; fill:none" points="266.074,1486.45 266.074,47.2441 "/>
<polyline clip-path="url(#clip942)" style="stroke:#000000; stroke-linecap:round; stroke-linejoin:round; stroke-width:2; stroke-opacity:0.1; fill:none" points="793.37,1486.45 793.37,47.2441 "/>
<polyline clip-path="url(#clip942)" style="stroke:#000000; stroke-linecap:round; stroke-linejoin:round; stroke-width:2; stroke-opacity:0.1; fill:none" points="1320.67,1486.45 1320.67,47.2441 "/>
<polyline clip-path="url(#clip942)" style="stroke:#000000; stroke-linecap:round; stroke-linejoin:round; stroke-width:2; stroke-opacity:0.1; fill:none" points="1847.96,1486.45 1847.96,47.2441 "/>
<polyline clip-path="url(#clip942)" style="stroke:#000000; stroke-linecap:round; stroke-linejoin:round; stroke-width:2; stroke-opacity:0.1; fill:none" points="193.936,1363.69 2352.76,1363.69 "/>
<polyline clip-path="url(#clip942)" style="stroke:#000000; stroke-linecap:round; stroke-linejoin:round; stroke-width:2; stroke-opacity:0.1; fill:none" points="193.936,1173.64 2352.76,1173.64 "/>
<polyline clip-path="url(#clip942)" style="stroke:#000000; stroke-linecap:round; stroke-linejoin:round; stroke-width:2; stroke-opacity:0.1; fill:none" points="193.936,983.594 2352.76,983.594 "/>
<polyline clip-path="url(#clip942)" style="stroke:#000000; stroke-linecap:round; stroke-linejoin:round; stroke-width:2; stroke-opacity:0.1; fill:none" points="193.936,793.545 2352.76,793.545 "/>
<polyline clip-path="url(#clip942)" style="stroke:#000000; stroke-linecap:round; stroke-linejoin:round; stroke-width:2; stroke-opacity:0.1; fill:none" points="193.936,603.495 2352.76,603.495 "/>
<polyline clip-path="url(#clip942)" style="stroke:#000000; stroke-linecap:round; stroke-linejoin:round; stroke-width:2; stroke-opacity:0.1; fill:none" points="193.936,413.446 2352.76,413.446 "/>
<polyline clip-path="url(#clip942)" style="stroke:#000000; stroke-linecap:round; stroke-linejoin:round; stroke-width:2; stroke-opacity:0.1; fill:none" points="193.936,223.397 2352.76,223.397 "/>
<polyline clip-path="url(#clip940)" style="stroke:#000000; stroke-linecap:round; stroke-linejoin:round; stroke-width:4; stroke-opacity:1; fill:none" points="193.936,1486.45 2352.76,1486.45 "/>
<polyline clip-path="url(#clip940)" style="stroke:#000000; stroke-linecap:round; stroke-linejoin:round; stroke-width:4; stroke-opacity:1; fill:none" points="266.074,1486.45 266.074,1467.55 "/>
<polyline clip-path="url(#clip940)" style="stroke:#000000; stroke-linecap:round; stroke-linejoin:round; stroke-width:4; stroke-opacity:1; fill:none" points="793.37,1486.45 793.37,1467.55 "/>
<polyline clip-path="url(#clip940)" style="stroke:#000000; stroke-linecap:round; stroke-linejoin:round; stroke-width:4; stroke-opacity:1; fill:none" points="1320.67,1486.45 1320.67,1467.55 "/>
<polyline clip-path="url(#clip940)" style="stroke:#000000; stroke-linecap:round; stroke-linejoin:round; stroke-width:4; stroke-opacity:1; fill:none" points="1847.96,1486.45 1847.96,1467.55 "/>
<path clip-path="url(#clip940)" d="M236.016 1532.02 L265.692 1532.02 L265.692 1535.95 L236.016 1535.95 L236.016 1532.02 Z" fill="#000000" fill-rule="nonzero" fill-opacity="1" /><path clip-path="url(#clip940)" d="M279.812 1544.91 L296.131 1544.91 L296.131 1548.85 L274.187 1548.85 L274.187 1544.91 Q276.849 1542.16 281.433 1537.53 Q286.039 1532.88 287.22 1531.53 Q289.465 1529.01 290.344 1527.27 Q291.247 1525.51 291.247 1523.82 Q291.247 1521.07 289.303 1519.33 Q287.382 1517.6 284.28 1517.6 Q282.081 1517.6 279.627 1518.36 Q277.196 1519.13 274.419 1520.68 L274.419 1515.95 Q277.243 1514.82 279.696 1514.24 Q282.15 1513.66 284.187 1513.66 Q289.557 1513.66 292.752 1516.35 Q295.946 1519.03 295.946 1523.52 Q295.946 1525.65 295.136 1527.57 Q294.349 1529.47 292.243 1532.07 Q291.664 1532.74 288.562 1535.95 Q285.46 1539.15 279.812 1544.91 Z" fill="#000000" fill-rule="nonzero" fill-opacity="1" /><path clip-path="url(#clip940)" d="M763.127 1532.02 L792.803 1532.02 L792.803 1535.95 L763.127 1535.95 L763.127 1532.02 Z" fill="#000000" fill-rule="nonzero" fill-opacity="1" /><path clip-path="url(#clip940)" d="M803.706 1544.91 L811.345 1544.91 L811.345 1518.55 L803.034 1520.21 L803.034 1515.95 L811.298 1514.29 L815.974 1514.29 L815.974 1544.91 L823.613 1544.91 L823.613 1548.85 L803.706 1548.85 L803.706 1544.91 Z" fill="#000000" fill-rule="nonzero" fill-opacity="1" /><path clip-path="url(#clip940)" d="M1320.67 1517.37 Q1317.06 1517.37 1315.23 1520.93 Q1313.42 1524.47 1313.42 1531.6 Q1313.42 1538.71 1315.23 1542.27 Q1317.06 1545.82 1320.67 1545.82 Q1324.3 1545.82 1326.11 1542.27 Q1327.94 1538.71 1327.94 1531.6 Q1327.94 1524.47 1326.11 1520.93 Q1324.3 1517.37 1320.67 1517.37 M1320.67 1513.66 Q1326.48 1513.66 1329.53 1518.27 Q1332.61 1522.85 1332.61 1531.6 Q1332.61 1540.33 1329.53 1544.94 Q1326.48 1549.52 1320.67 1549.52 Q1314.86 1549.52 1311.78 1544.94 Q1308.72 1540.33 1308.72 1531.6 Q1308.72 1522.85 1311.78 1518.27 Q1314.86 1513.66 1320.67 1513.66 Z" fill="#000000" fill-rule="nonzero" fill-opacity="1" /><path clip-path="url(#clip940)" d="M1838.34 1544.91 L1845.98 1544.91 L1845.98 1518.55 L1837.67 1520.21 L1837.67 1515.95 L1845.94 1514.29 L1850.61 1514.29 L1850.61 1544.91 L1858.25 1544.91 L1858.25 1548.85 L1838.34 1548.85 L1838.34 1544.91 Z" fill="#000000" fill-rule="nonzero" fill-opacity="1" /><polyline clip-path="url(#clip940)" style="stroke:#000000; stroke-linecap:round; stroke-linejoin:round; stroke-width:4; stroke-opacity:1; fill:none" points="193.936,1486.45 193.936,47.2441 "/>
<polyline clip-path="url(#clip940)" style="stroke:#000000; stroke-linecap:round; stroke-linejoin:round; stroke-width:4; stroke-opacity:1; fill:none" points="193.936,1363.69 212.834,1363.69 "/>
<polyline clip-path="url(#clip940)" style="stroke:#000000; stroke-linecap:round; stroke-linejoin:round; stroke-width:4; stroke-opacity:1; fill:none" points="193.936,1173.64 212.834,1173.64 "/>
<polyline clip-path="url(#clip940)" style="stroke:#000000; stroke-linecap:round; stroke-linejoin:round; stroke-width:4; stroke-opacity:1; fill:none" points="193.936,983.594 212.834,983.594 "/>
<polyline clip-path="url(#clip940)" style="stroke:#000000; stroke-linecap:round; stroke-linejoin:round; stroke-width:4; stroke-opacity:1; fill:none" points="193.936,793.545 212.834,793.545 "/>
<polyline clip-path="url(#clip940)" style="stroke:#000000; stroke-linecap:round; stroke-linejoin:round; stroke-width:4; stroke-opacity:1; fill:none" points="193.936,603.495 212.834,603.495 "/>
<polyline clip-path="url(#clip940)" style="stroke:#000000; stroke-linecap:round; stroke-linejoin:round; stroke-width:4; stroke-opacity:1; fill:none" points="193.936,413.446 212.834,413.446 "/>
<polyline clip-path="url(#clip940)" style="stroke:#000000; stroke-linecap:round; stroke-linejoin:round; stroke-width:4; stroke-opacity:1; fill:none" points="193.936,223.397 212.834,223.397 "/>
<path clip-path="url(#clip940)" d="M51.9875 1364.14 L81.6633 1364.14 L81.6633 1368.08 L51.9875 1368.08 L51.9875 1364.14 Z" fill="#000000" fill-rule="nonzero" fill-opacity="1" /><path clip-path="url(#clip940)" d="M92.566 1377.04 L100.205 1377.04 L100.205 1350.67 L91.8947 1352.34 L91.8947 1348.08 L100.159 1346.41 L104.834 1346.41 L104.834 1377.04 L112.473 1377.04 L112.473 1380.97 L92.566 1380.97 L92.566 1377.04 Z" fill="#000000" fill-rule="nonzero" fill-opacity="1" /><path clip-path="url(#clip940)" d="M121.918 1375.09 L126.802 1375.09 L126.802 1380.97 L121.918 1380.97 L121.918 1375.09 Z" fill="#000000" fill-rule="nonzero" fill-opacity="1" /><path clip-path="url(#clip940)" d="M137.033 1346.41 L155.39 1346.41 L155.39 1350.35 L141.316 1350.35 L141.316 1358.82 Q142.334 1358.47 143.353 1358.31 Q144.371 1358.13 145.39 1358.13 Q151.177 1358.13 154.556 1361.3 Q157.936 1364.47 157.936 1369.88 Q157.936 1375.46 154.464 1378.57 Q150.992 1381.64 144.672 1381.64 Q142.496 1381.64 140.228 1381.27 Q137.982 1380.9 135.575 1380.16 L135.575 1375.46 Q137.658 1376.6 139.881 1377.15 Q142.103 1377.71 144.58 1377.71 Q148.584 1377.71 150.922 1375.6 Q153.26 1373.5 153.26 1369.88 Q153.26 1366.27 150.922 1364.17 Q148.584 1362.06 144.58 1362.06 Q142.705 1362.06 140.83 1362.48 Q138.978 1362.89 137.033 1363.77 L137.033 1346.41 Z" fill="#000000" fill-rule="nonzero" fill-opacity="1" /><path clip-path="url(#clip940)" d="M50.9921 1174.09 L80.6679 1174.09 L80.6679 1178.03 L50.9921 1178.03 L50.9921 1174.09 Z" fill="#000000" fill-rule="nonzero" fill-opacity="1" /><path clip-path="url(#clip940)" d="M91.5706 1186.99 L99.2095 1186.99 L99.2095 1160.62 L90.8993 1162.29 L90.8993 1158.03 L99.1632 1156.36 L103.839 1156.36 L103.839 1186.99 L111.478 1186.99 L111.478 1190.92 L91.5706 1190.92 L91.5706 1186.99 Z" fill="#000000" fill-rule="nonzero" fill-opacity="1" /><path clip-path="url(#clip940)" d="M120.922 1185.04 L125.807 1185.04 L125.807 1190.92 L120.922 1190.92 L120.922 1185.04 Z" fill="#000000" fill-rule="nonzero" fill-opacity="1" /><path clip-path="url(#clip940)" d="M145.992 1159.44 Q142.381 1159.44 140.552 1163.01 Q138.746 1166.55 138.746 1173.68 Q138.746 1180.78 140.552 1184.35 Q142.381 1187.89 145.992 1187.89 Q149.626 1187.89 151.431 1184.35 Q153.26 1180.78 153.26 1173.68 Q153.26 1166.55 151.431 1163.01 Q149.626 1159.44 145.992 1159.44 M145.992 1155.74 Q151.802 1155.74 154.857 1160.34 Q157.936 1164.93 157.936 1173.68 Q157.936 1182.4 154.857 1187.01 Q151.802 1191.59 145.992 1191.59 Q140.181 1191.59 137.103 1187.01 Q134.047 1182.4 134.047 1173.68 Q134.047 1164.93 137.103 1160.34 Q140.181 1155.74 145.992 1155.74 Z" fill="#000000" fill-rule="nonzero" fill-opacity="1" /><path clip-path="url(#clip940)" d="M51.9875 984.045 L81.6633 984.045 L81.6633 987.98 L51.9875 987.98 L51.9875 984.045 Z" fill="#000000" fill-rule="nonzero" fill-opacity="1" /><path clip-path="url(#clip940)" d="M101.756 969.393 Q98.1447 969.393 96.316 972.957 Q94.5104 976.499 94.5104 983.629 Q94.5104 990.735 96.316 994.3 Q98.1447 997.842 101.756 997.842 Q105.39 997.842 107.196 994.3 Q109.024 990.735 109.024 983.629 Q109.024 976.499 107.196 972.957 Q105.39 969.393 101.756 969.393 M101.756 965.689 Q107.566 965.689 110.621 970.295 Q113.7 974.879 113.7 983.629 Q113.7 992.355 110.621 996.962 Q107.566 1001.55 101.756 1001.55 Q95.9456 1001.55 92.8669 996.962 Q89.8114 992.355 89.8114 983.629 Q89.8114 974.879 92.8669 970.295 Q95.9456 965.689 101.756 965.689 Z" fill="#000000" fill-rule="nonzero" fill-opacity="1" /><path clip-path="url(#clip940)" d="M121.918 994.994 L126.802 994.994 L126.802 1000.87 L121.918 1000.87 L121.918 994.994 Z" fill="#000000" fill-rule="nonzero" fill-opacity="1" /><path clip-path="url(#clip940)" d="M137.033 966.314 L155.39 966.314 L155.39 970.249 L141.316 970.249 L141.316 978.721 Q142.334 978.374 143.353 978.212 Q144.371 978.027 145.39 978.027 Q151.177 978.027 154.556 981.198 Q157.936 984.369 157.936 989.786 Q157.936 995.365 154.464 998.467 Q150.992 1001.55 144.672 1001.55 Q142.496 1001.55 140.228 1001.17 Q137.982 1000.8 135.575 1000.06 L135.575 995.365 Q137.658 996.499 139.881 997.055 Q142.103 997.61 144.58 997.61 Q148.584 997.61 150.922 995.504 Q153.26 993.397 153.26 989.786 Q153.26 986.175 150.922 984.068 Q148.584 981.962 144.58 981.962 Q142.705 981.962 140.83 982.379 Q138.978 982.795 137.033 983.675 L137.033 966.314 Z" fill="#000000" fill-rule="nonzero" fill-opacity="1" /><path clip-path="url(#clip940)" d="M100.76 779.343 Q97.1493 779.343 95.3206 782.908 Q93.515 786.45 93.515 793.579 Q93.515 800.686 95.3206 804.251 Q97.1493 807.792 100.76 807.792 Q104.395 807.792 106.2 804.251 Q108.029 800.686 108.029 793.579 Q108.029 786.45 106.2 782.908 Q104.395 779.343 100.76 779.343 M100.76 775.64 Q106.571 775.64 109.626 780.246 Q112.705 784.829 112.705 793.579 Q112.705 802.306 109.626 806.913 Q106.571 811.496 100.76 811.496 Q94.9502 811.496 91.8715 806.913 Q88.816 802.306 88.816 793.579 Q88.816 784.829 91.8715 780.246 Q94.9502 775.64 100.76 775.64 Z" fill="#000000" fill-rule="nonzero" fill-opacity="1" /><path clip-path="url(#clip940)" d="M120.922 804.945 L125.807 804.945 L125.807 810.825 L120.922 810.825 L120.922 804.945 Z" fill="#000000" fill-rule="nonzero" fill-opacity="1" /><path clip-path="url(#clip940)" d="M145.992 779.343 Q142.381 779.343 140.552 782.908 Q138.746 786.45 138.746 793.579 Q138.746 800.686 140.552 804.251 Q142.381 807.792 145.992 807.792 Q149.626 807.792 151.431 804.251 Q153.26 800.686 153.26 793.579 Q153.26 786.45 151.431 782.908 Q149.626 779.343 145.992 779.343 M145.992 775.64 Q151.802 775.64 154.857 780.246 Q157.936 784.829 157.936 793.579 Q157.936 802.306 154.857 806.913 Q151.802 811.496 145.992 811.496 Q140.181 811.496 137.103 806.913 Q134.047 802.306 134.047 793.579 Q134.047 784.829 137.103 780.246 Q140.181 775.64 145.992 775.64 Z" fill="#000000" fill-rule="nonzero" fill-opacity="1" /><path clip-path="url(#clip940)" d="M101.756 589.294 Q98.1447 589.294 96.316 592.859 Q94.5104 596.4 94.5104 603.53 Q94.5104 610.637 96.316 614.201 Q98.1447 617.743 101.756 617.743 Q105.39 617.743 107.196 614.201 Q109.024 610.637 109.024 603.53 Q109.024 596.4 107.196 592.859 Q105.39 589.294 101.756 589.294 M101.756 585.59 Q107.566 585.59 110.621 590.197 Q113.7 594.78 113.7 603.53 Q113.7 612.257 110.621 616.863 Q107.566 621.447 101.756 621.447 Q95.9456 621.447 92.8669 616.863 Q89.8114 612.257 89.8114 603.53 Q89.8114 594.78 92.8669 590.197 Q95.9456 585.59 101.756 585.59 Z" fill="#000000" fill-rule="nonzero" fill-opacity="1" /><path clip-path="url(#clip940)" d="M121.918 614.896 L126.802 614.896 L126.802 620.775 L121.918 620.775 L121.918 614.896 Z" fill="#000000" fill-rule="nonzero" fill-opacity="1" /><path clip-path="url(#clip940)" d="M137.033 586.215 L155.39 586.215 L155.39 590.151 L141.316 590.151 L141.316 598.623 Q142.334 598.275 143.353 598.113 Q144.371 597.928 145.39 597.928 Q151.177 597.928 154.556 601.1 Q157.936 604.271 157.936 609.687 Q157.936 615.266 154.464 618.368 Q150.992 621.447 144.672 621.447 Q142.496 621.447 140.228 621.076 Q137.982 620.706 135.575 619.965 L135.575 615.266 Q137.658 616.4 139.881 616.956 Q142.103 617.511 144.58 617.511 Q148.584 617.511 150.922 615.405 Q153.26 613.299 153.26 609.687 Q153.26 606.076 150.922 603.97 Q148.584 601.863 144.58 601.863 Q142.705 601.863 140.83 602.28 Q138.978 602.697 137.033 603.576 L137.033 586.215 Z" fill="#000000" fill-rule="nonzero" fill-opacity="1" /><path clip-path="url(#clip940)" d="M91.5706 426.791 L99.2095 426.791 L99.2095 400.425 L90.8993 402.092 L90.8993 397.833 L99.1632 396.166 L103.839 396.166 L103.839 426.791 L111.478 426.791 L111.478 430.726 L91.5706 430.726 L91.5706 426.791 Z" fill="#000000" fill-rule="nonzero" fill-opacity="1" /><path clip-path="url(#clip940)" d="M120.922 424.846 L125.807 424.846 L125.807 430.726 L120.922 430.726 L120.922 424.846 Z" fill="#000000" fill-rule="nonzero" fill-opacity="1" /><path clip-path="url(#clip940)" d="M145.992 399.245 Q142.381 399.245 140.552 402.81 Q138.746 406.351 138.746 413.481 Q138.746 420.587 140.552 424.152 Q142.381 427.694 145.992 427.694 Q149.626 427.694 151.431 424.152 Q153.26 420.587 153.26 413.481 Q153.26 406.351 151.431 402.81 Q149.626 399.245 145.992 399.245 M145.992 395.541 Q151.802 395.541 154.857 400.148 Q157.936 404.731 157.936 413.481 Q157.936 422.208 154.857 426.814 Q151.802 431.397 145.992 431.397 Q140.181 431.397 137.103 426.814 Q134.047 422.208 134.047 413.481 Q134.047 404.731 137.103 400.148 Q140.181 395.541 145.992 395.541 Z" fill="#000000" fill-rule="nonzero" fill-opacity="1" /><path clip-path="url(#clip940)" d="M92.566 236.742 L100.205 236.742 L100.205 210.376 L91.8947 212.043 L91.8947 207.783 L100.159 206.117 L104.834 206.117 L104.834 236.742 L112.473 236.742 L112.473 240.677 L92.566 240.677 L92.566 236.742 Z" fill="#000000" fill-rule="nonzero" fill-opacity="1" /><path clip-path="url(#clip940)" d="M121.918 234.797 L126.802 234.797 L126.802 240.677 L121.918 240.677 L121.918 234.797 Z" fill="#000000" fill-rule="nonzero" fill-opacity="1" /><path clip-path="url(#clip940)" d="M137.033 206.117 L155.39 206.117 L155.39 210.052 L141.316 210.052 L141.316 218.524 Q142.334 218.177 143.353 218.015 Q144.371 217.83 145.39 217.83 Q151.177 217.83 154.556 221.001 Q157.936 224.172 157.936 229.589 Q157.936 235.168 154.464 238.269 Q150.992 241.348 144.672 241.348 Q142.496 241.348 140.228 240.978 Q137.982 240.607 135.575 239.867 L135.575 235.168 Q137.658 236.302 139.881 236.857 Q142.103 237.413 144.58 237.413 Q148.584 237.413 150.922 235.306 Q153.26 233.2 153.26 229.589 Q153.26 225.978 150.922 223.871 Q148.584 221.765 144.58 221.765 Q142.705 221.765 140.83 222.181 Q138.978 222.598 137.033 223.478 L137.033 206.117 Z" fill="#000000" fill-rule="nonzero" fill-opacity="1" /><circle clip-path="url(#clip942)" cx="904.598" cy="949.341" r="14.4" fill="#009af9" fill-rule="evenodd" fill-opacity="0.5" stroke="#000000" stroke-opacity="0.5" stroke-width="3.2"/>
<circle clip-path="url(#clip942)" cx="1315.43" cy="1078.55" r="14.4" fill="#009af9" fill-rule="evenodd" fill-opacity="0.5" stroke="#000000" stroke-opacity="0.5" stroke-width="3.2"/>
<circle clip-path="url(#clip942)" cx="1368.05" cy="1228.6" r="14.4" fill="#009af9" fill-rule="evenodd" fill-opacity="0.5" stroke="#000000" stroke-opacity="0.5" stroke-width="3.2"/>
<circle clip-path="url(#clip942)" cx="1603.58" cy="855.742" r="14.4" fill="#009af9" fill-rule="evenodd" fill-opacity="0.5" stroke="#000000" stroke-opacity="0.5" stroke-width="3.2"/>
<circle clip-path="url(#clip942)" cx="1792.77" cy="1096.83" r="14.4" fill="#009af9" fill-rule="evenodd" fill-opacity="0.5" stroke="#000000" stroke-opacity="0.5" stroke-width="3.2"/>
<circle clip-path="url(#clip942)" cx="740.579" cy="414.801" r="14.4" fill="#009af9" fill-rule="evenodd" fill-opacity="0.5" stroke="#000000" stroke-opacity="0.5" stroke-width="3.2"/>
<circle clip-path="url(#clip942)" cx="1768.99" cy="987.037" r="14.4" fill="#009af9" fill-rule="evenodd" fill-opacity="0.5" stroke="#000000" stroke-opacity="0.5" stroke-width="3.2"/>
<circle clip-path="url(#clip942)" cx="929.965" cy="346.38" r="14.4" fill="#009af9" fill-rule="evenodd" fill-opacity="0.5" stroke="#000000" stroke-opacity="0.5" stroke-width="3.2"/>
<circle clip-path="url(#clip942)" cx="1238.65" cy="1029.48" r="14.4" fill="#009af9" fill-rule="evenodd" fill-opacity="0.5" stroke="#000000" stroke-opacity="0.5" stroke-width="3.2"/>
<circle clip-path="url(#clip942)" cx="494.492" cy="1345.51" r="14.4" fill="#009af9" fill-rule="evenodd" fill-opacity="0.5" stroke="#000000" stroke-opacity="0.5" stroke-width="3.2"/>
<circle clip-path="url(#clip942)" cx="1006.81" cy="341.826" r="14.4" fill="#009af9" fill-rule="evenodd" fill-opacity="0.5" stroke="#000000" stroke-opacity="0.5" stroke-width="3.2"/>
<circle clip-path="url(#clip942)" cx="701.056" cy="441.961" r="14.4" fill="#009af9" fill-rule="evenodd" fill-opacity="0.5" stroke="#000000" stroke-opacity="0.5" stroke-width="3.2"/>
<circle clip-path="url(#clip942)" cx="818.095" cy="689.813" r="14.4" fill="#009af9" fill-rule="evenodd" fill-opacity="0.5" stroke="#000000" stroke-opacity="0.5" stroke-width="3.2"/>
<circle clip-path="url(#clip942)" cx="1769.89" cy="620.133" r="14.4" fill="#009af9" fill-rule="evenodd" fill-opacity="0.5" stroke="#000000" stroke-opacity="0.5" stroke-width="3.2"/>
<circle clip-path="url(#clip942)" cx="1344.05" cy="1342.68" r="14.4" fill="#009af9" fill-rule="evenodd" fill-opacity="0.5" stroke="#000000" stroke-opacity="0.5" stroke-width="3.2"/>
<circle clip-path="url(#clip942)" cx="1986.53" cy="1198.09" r="14.4" fill="#009af9" fill-rule="evenodd" fill-opacity="0.5" stroke="#000000" stroke-opacity="0.5" stroke-width="3.2"/>
<circle clip-path="url(#clip942)" cx="1490.86" cy="1024.06" r="14.4" fill="#009af9" fill-rule="evenodd" fill-opacity="0.5" stroke="#000000" stroke-opacity="0.5" stroke-width="3.2"/>
<circle clip-path="url(#clip942)" cx="1322.25" cy="930.395" r="14.4" fill="#009af9" fill-rule="evenodd" fill-opacity="0.5" stroke="#000000" stroke-opacity="0.5" stroke-width="3.2"/>
<circle clip-path="url(#clip942)" cx="2014.18" cy="626.447" r="14.4" fill="#009af9" fill-rule="evenodd" fill-opacity="0.5" stroke="#000000" stroke-opacity="0.5" stroke-width="3.2"/>
<circle clip-path="url(#clip942)" cx="1485.42" cy="1034.14" r="14.4" fill="#009af9" fill-rule="evenodd" fill-opacity="0.5" stroke="#000000" stroke-opacity="0.5" stroke-width="3.2"/>
<circle clip-path="url(#clip942)" cx="785.453" cy="917.55" r="14.4" fill="#009af9" fill-rule="evenodd" fill-opacity="0.5" stroke="#000000" stroke-opacity="0.5" stroke-width="3.2"/>
<circle clip-path="url(#clip942)" cx="1677.32" cy="1405.37" r="14.4" fill="#009af9" fill-rule="evenodd" fill-opacity="0.5" stroke="#000000" stroke-opacity="0.5" stroke-width="3.2"/>
<circle clip-path="url(#clip942)" cx="1295.46" cy="852.978" r="14.4" fill="#009af9" fill-rule="evenodd" fill-opacity="0.5" stroke="#000000" stroke-opacity="0.5" stroke-width="3.2"/>
<circle clip-path="url(#clip942)" cx="255.035" cy="834.688" r="14.4" fill="#009af9" fill-rule="evenodd" fill-opacity="0.5" stroke="#000000" stroke-opacity="0.5" stroke-width="3.2"/>
<circle clip-path="url(#clip942)" cx="1586.41" cy="87.9763" r="14.4" fill="#009af9" fill-rule="evenodd" fill-opacity="0.5" stroke="#000000" stroke-opacity="0.5" stroke-width="3.2"/>
<circle clip-path="url(#clip942)" cx="1776.31" cy="509.953" r="14.4" fill="#009af9" fill-rule="evenodd" fill-opacity="0.5" stroke="#000000" stroke-opacity="0.5" stroke-width="3.2"/>
<circle clip-path="url(#clip942)" cx="1126.49" cy="953.32" r="14.4" fill="#009af9" fill-rule="evenodd" fill-opacity="0.5" stroke="#000000" stroke-opacity="0.5" stroke-width="3.2"/>
<circle clip-path="url(#clip942)" cx="1942.41" cy="619.045" r="14.4" fill="#009af9" fill-rule="evenodd" fill-opacity="0.5" stroke="#000000" stroke-opacity="0.5" stroke-width="3.2"/>
<circle clip-path="url(#clip942)" cx="2291.66" cy="315.571" r="14.4" fill="#009af9" fill-rule="evenodd" fill-opacity="0.5" stroke="#000000" stroke-opacity="0.5" stroke-width="3.2"/>
<circle clip-path="url(#clip942)" cx="379.065" cy="1445.72" r="14.4" fill="#009af9" fill-rule="evenodd" fill-opacity="0.5" stroke="#000000" stroke-opacity="0.5" stroke-width="3.2"/>
<path clip-path="url(#clip942)" d="M255.035 834.688 L379.065 1445.72 L1677.32 1405.37 L1986.53 1198.09 L2291.66 315.571 L1586.41 87.9763 L740.579 414.801 L701.056 441.961 L255.035 834.688 L255.035 834.688  Z" fill="#e26f46" fill-rule="evenodd" fill-opacity="0.2"/>
<polyline clip-path="url(#clip942)" style="stroke:#000000; stroke-linecap:round; stroke-linejoin:round; stroke-width:4; stroke-opacity:0.2; fill:none" points="255.035,834.688 379.065,1445.72 1677.32,1405.37 1986.53,1198.09 2291.66,315.571 1586.41,87.9763 740.579,414.801 701.056,441.961 255.035,834.688 "/>
</svg>
