<?xml version="1.0" encoding="utf-8"?>
<svg xmlns="http://www.w3.org/2000/svg" xmlns:xlink="http://www.w3.org/1999/xlink" width="600" height="400" viewBox="0 0 2400 1600">
<defs>
  <clipPath id="clip950">
    <rect x="0" y="0" width="2400" height="1600"/>
  </clipPath>
</defs>
<path clip-path="url(#clip950)" d="M0 1600 L2400 1600 L2400 0 L0 0  Z" fill="#ffffff" fill-rule="evenodd" fill-opacity="1"/>
<defs>
  <clipPath id="clip951">
    <rect x="480" y="0" width="1681" height="1600"/>
  </clipPath>
</defs>
<path clip-path="url(#clip950)" d="M147.478 1486.45 L2352.76 1486.45 L2352.76 47.2441 L147.478 47.2441  Z" fill="#ffffff" fill-rule="evenodd" fill-opacity="1"/>
<defs>
  <clipPath id="clip952">
    <rect x="147" y="47" width="2206" height="1440"/>
  </clipPath>
</defs>
<polyline clip-path="url(#clip952)" style="stroke:#000000; stroke-linecap:round; stroke-linejoin:round; stroke-width:2; stroke-opacity:0.1; fill:none" points="209.891,1486.45 209.891,47.2441 "/>
<polyline clip-path="url(#clip952)" style="stroke:#000000; stroke-linecap:round; stroke-linejoin:round; stroke-width:2; stroke-opacity:0.1; fill:none" points="730.004,1486.45 730.004,47.2441 "/>
<polyline clip-path="url(#clip952)" style="stroke:#000000; stroke-linecap:round; stroke-linejoin:round; stroke-width:2; stroke-opacity:0.1; fill:none" points="1250.12,1486.45 1250.12,47.2441 "/>
<polyline clip-path="url(#clip952)" style="stroke:#000000; stroke-linecap:round; stroke-linejoin:round; stroke-width:2; stroke-opacity:0.1; fill:none" points="1770.23,1486.45 1770.23,47.2441 "/>
<polyline clip-path="url(#clip952)" style="stroke:#000000; stroke-linecap:round; stroke-linejoin:round; stroke-width:2; stroke-opacity:0.1; fill:none" points="2290.34,1486.45 2290.34,47.2441 "/>
<polyline clip-path="url(#clip952)" style="stroke:#000000; stroke-linecap:round; stroke-linejoin:round; stroke-width:2; stroke-opacity:0.1; fill:none" points="147.478,1445.72 2352.76,1445.72 "/>
<polyline clip-path="url(#clip952)" style="stroke:#000000; stroke-linecap:round; stroke-linejoin:round; stroke-width:2; stroke-opacity:0.1; fill:none" points="147.478,1106.28 2352.76,1106.28 "/>
<polyline clip-path="url(#clip952)" style="stroke:#000000; stroke-linecap:round; stroke-linejoin:round; stroke-width:2; stroke-opacity:0.1; fill:none" points="147.478,766.846 2352.76,766.846 "/>
<polyline clip-path="url(#clip952)" style="stroke:#000000; stroke-linecap:round; stroke-linejoin:round; stroke-width:2; stroke-opacity:0.1; fill:none" points="147.478,427.411 2352.76,427.411 "/>
<polyline clip-path="url(#clip952)" style="stroke:#000000; stroke-linecap:round; stroke-linejoin:round; stroke-width:2; stroke-opacity:0.1; fill:none" points="147.478,87.9763 2352.76,87.9763 "/>
<polyline clip-path="url(#clip950)" style="stroke:#000000; stroke-linecap:round; stroke-linejoin:round; stroke-width:4; stroke-opacity:1; fill:none" points="147.478,1486.45 2352.76,1486.45 "/>
<polyline clip-path="url(#clip950)" style="stroke:#000000; stroke-linecap:round; stroke-linejoin:round; stroke-width:4; stroke-opacity:1; fill:none" points="209.891,1486.45 209.891,1467.55 "/>
<polyline clip-path="url(#clip950)" style="stroke:#000000; stroke-linecap:round; stroke-linejoin:round; stroke-width:4; stroke-opacity:1; fill:none" points="730.004,1486.45 730.004,1467.55 "/>
<polyline clip-path="url(#clip950)" style="stroke:#000000; stroke-linecap:round; stroke-linejoin:round; stroke-width:4; stroke-opacity:1; fill:none" points="1250.12,1486.45 1250.12,1467.55 "/>
<polyline clip-path="url(#clip950)" style="stroke:#000000; stroke-linecap:round; stroke-linejoin:round; stroke-width:4; stroke-opacity:1; fill:none" points="1770.23,1486.45 1770.23,1467.55 "/>
<polyline clip-path="url(#clip950)" style="stroke:#000000; stroke-linecap:round; stroke-linejoin:round; stroke-width:4; stroke-opacity:1; fill:none" points="2290.34,1486.45 2290.34,1467.55 "/>
<path clip-path="url(#clip950)" d="M179.834 1532.02 L209.509 1532.02 L209.509 1535.95 L179.834 1535.95 L179.834 1532.02 Z" fill="#000000" fill-rule="nonzero" fill-opacity="1" /><path clip-path="url(#clip950)" d="M223.63 1544.91 L239.949 1544.91 L239.949 1548.85 L218.005 1548.85 L218.005 1544.91 Q220.667 1542.16 225.25 1537.53 Q229.857 1532.88 231.037 1531.53 Q233.283 1529.01 234.162 1527.27 Q235.065 1525.51 235.065 1523.82 Q235.065 1521.07 233.12 1519.33 Q231.199 1517.6 228.097 1517.6 Q225.898 1517.6 223.445 1518.36 Q221.014 1519.13 218.236 1520.68 L218.236 1515.95 Q221.06 1514.82 223.514 1514.24 Q225.968 1513.66 228.005 1513.66 Q233.375 1513.66 236.57 1516.35 Q239.764 1519.03 239.764 1523.52 Q239.764 1525.65 238.954 1527.57 Q238.167 1529.47 236.06 1532.07 Q235.482 1532.74 232.38 1535.95 Q229.278 1539.15 223.63 1544.91 Z" fill="#000000" fill-rule="nonzero" fill-opacity="1" /><path clip-path="url(#clip950)" d="M699.761 1532.02 L729.437 1532.02 L729.437 1535.95 L699.761 1535.95 L699.761 1532.02 Z" fill="#000000" fill-rule="nonzero" fill-opacity="1" /><path clip-path="url(#clip950)" d="M740.34 1544.91 L747.979 1544.91 L747.979 1518.55 L739.668 1520.21 L739.668 1515.95 L747.932 1514.29 L752.608 1514.29 L752.608 1544.91 L760.247 1544.91 L760.247 1548.85 L740.34 1548.85 L740.34 1544.91 Z" fill="#000000" fill-rule="nonzero" fill-opacity="1" /><path clip-path="url(#clip950)" d="M1250.12 1517.37 Q1246.51 1517.37 1244.68 1520.93 Q1242.87 1524.47 1242.87 1531.6 Q1242.87 1538.71 1244.68 1542.27 Q1246.51 1545.82 1250.12 1545.82 Q1253.75 1545.82 1255.56 1542.27 Q1257.39 1538.71 1257.39 1531.6 Q1257.39 1524.47 1255.56 1520.93 Q1253.75 1517.37 1250.12 1517.37 M1250.12 1513.66 Q1255.93 1513.66 1258.98 1518.27 Q1262.06 1522.85 1262.06 1531.6 Q1262.06 1540.33 1258.98 1544.94 Q1255.93 1549.52 1250.12 1549.52 Q1244.31 1549.52 1241.23 1544.94 Q1238.17 1540.33 1238.17 1531.6 Q1238.17 1522.85 1241.23 1518.27 Q1244.31 1513.66 1250.12 1513.66 Z" fill="#000000" fill-rule="nonzero" fill-opacity="1" /><path clip-path="url(#clip950)" d="M1760.61 1544.91 L1768.25 1544.91 L1768.25 1518.55 L1759.94 1520.21 L1759.94 1515.95 L1768.2 1514.29 L1772.88 1514.29 L1772.88 1544.91 L1780.52 1544.91 L1780.52 1548.85 L1760.61 1548.85 L1760.61 1544.91 Z" fill="#000000" fill-rule="nonzero" fill-opacity="1" /><path clip-path="url(#clip950)" d="M2285 1544.91 L2301.31 1544.91 L2301.31 1548.85 L2279.37 1548.85 L2279.37 1544.91 Q2282.03 1542.16 2286.62 1537.53 Q2291.22 1532.88 2292.4 1531.53 Q2294.65 1529.01 2295.53 1527.27 Q2296.43 1525.51 2296.43 1523.82 Q2296.43 1521.07 2294.49 1519.33 Q2292.56 1517.6 2289.46 1517.6 Q2287.26 1517.6 2284.81 1518.36 Q2282.38 1519.13 2279.6 1520.68 L2279.6 1515.95 Q2282.43 1514.82 2284.88 1514.24 Q2287.33 1513.66 2289.37 1513.66 Q2294.74 1513.66 2297.93 1516.35 Q2301.13 1519.03 2301.13 1523.52 Q2301.13 1525.65 2300.32 1527.57 Q2299.53 1529.47 2297.43 1532.07 Q2296.85 1532.74 2293.75 1535.95 Q2290.64 1539.15 2285 1544.91 Z" fill="#000000" fill-rule="nonzero" fill-opacity="1" /><polyline clip-path="url(#clip950)" style="stroke:#000000; stroke-linecap:round; stroke-linejoin:round; stroke-width:4; stroke-opacity:1; fill:none" points="147.478,1486.45 147.478,47.2441 "/>
<polyline clip-path="url(#clip950)" style="stroke:#000000; stroke-linecap:round; stroke-linejoin:round; stroke-width:4; stroke-opacity:1; fill:none" points="147.478,1445.72 166.376,1445.72 "/>
<polyline clip-path="url(#clip950)" style="stroke:#000000; stroke-linecap:round; stroke-linejoin:round; stroke-width:4; stroke-opacity:1; fill:none" points="147.478,1106.28 166.376,1106.28 "/>
<polyline clip-path="url(#clip950)" style="stroke:#000000; stroke-linecap:round; stroke-linejoin:round; stroke-width:4; stroke-opacity:1; fill:none" points="147.478,766.846 166.376,766.846 "/>
<polyline clip-path="url(#clip950)" style="stroke:#000000; stroke-linecap:round; stroke-linejoin:round; stroke-width:4; stroke-opacity:1; fill:none" points="147.478,427.411 166.376,427.411 "/>
<polyline clip-path="url(#clip950)" style="stroke:#000000; stroke-linecap:round; stroke-linejoin:round; stroke-width:4; stroke-opacity:1; fill:none" points="147.478,87.9763 166.376,87.9763 "/>
<path clip-path="url(#clip950)" d="M51.3625 1446.17 L81.0383 1446.17 L81.0383 1450.1 L51.3625 1450.1 L51.3625 1446.17 Z" fill="#000000" fill-rule="nonzero" fill-opacity="1" /><path clip-path="url(#clip950)" d="M95.1586 1459.06 L111.478 1459.06 L111.478 1463 L89.5336 1463 L89.5336 1459.06 Q92.1956 1456.31 96.7789 1451.68 Q101.385 1447.02 102.566 1445.68 Q104.811 1443.16 105.691 1441.42 Q106.594 1439.66 106.594 1437.97 Q106.594 1435.22 104.649 1433.48 Q102.728 1431.75 99.6261 1431.75 Q97.4271 1431.75 94.9734 1432.51 Q92.5428 1433.27 89.7651 1434.82 L89.7651 1430.1 Q92.5891 1428.97 95.0428 1428.39 Q97.4965 1427.81 99.5335 1427.81 Q104.904 1427.81 108.098 1430.5 Q111.293 1433.18 111.293 1437.67 Q111.293 1439.8 110.483 1441.72 Q109.696 1443.62 107.589 1446.21 Q107.01 1446.88 103.909 1450.1 Q100.807 1453.3 95.1586 1459.06 Z" fill="#000000" fill-rule="nonzero" fill-opacity="1" /><path clip-path="url(#clip950)" d="M50.9921 1106.73 L80.6679 1106.73 L80.6679 1110.67 L50.9921 1110.67 L50.9921 1106.73 Z" fill="#000000" fill-rule="nonzero" fill-opacity="1" /><path clip-path="url(#clip950)" d="M91.5706 1119.63 L99.2095 1119.63 L99.2095 1093.26 L90.8993 1094.93 L90.8993 1090.67 L99.1632 1089 L103.839 1089 L103.839 1119.63 L111.478 1119.63 L111.478 1123.56 L91.5706 1123.56 L91.5706 1119.63 Z" fill="#000000" fill-rule="nonzero" fill-opacity="1" /><path clip-path="url(#clip950)" d="M99.5335 752.645 Q95.9224 752.645 94.0937 756.209 Q92.2882 759.751 92.2882 766.881 Q92.2882 773.987 94.0937 777.552 Q95.9224 781.094 99.5335 781.094 Q103.168 781.094 104.973 777.552 Q106.802 773.987 106.802 766.881 Q106.802 759.751 104.973 756.209 Q103.168 752.645 99.5335 752.645 M99.5335 748.941 Q105.344 748.941 108.399 753.547 Q111.478 758.131 111.478 766.881 Q111.478 775.608 108.399 780.214 Q105.344 784.797 99.5335 784.797 Q93.7234 784.797 90.6447 780.214 Q87.5892 775.608 87.5892 766.881 Q87.5892 758.131 90.6447 753.547 Q93.7234 748.941 99.5335 748.941 Z" fill="#000000" fill-rule="nonzero" fill-opacity="1" /><path clip-path="url(#clip950)" d="M91.5706 440.756 L99.2095 440.756 L99.2095 414.39 L90.8993 416.057 L90.8993 411.798 L99.1632 410.131 L103.839 410.131 L103.839 440.756 L111.478 440.756 L111.478 444.691 L91.5706 444.691 L91.5706 440.756 Z" fill="#000000" fill-rule="nonzero" fill-opacity="1" /><path clip-path="url(#clip950)" d="M95.1586 101.321 L111.478 101.321 L111.478 105.256 L89.5336 105.256 L89.5336 101.321 Q92.1956 98.5665 96.7789 93.9369 Q101.385 89.2841 102.566 87.9416 Q104.811 85.4184 105.691 83.6823 Q106.594 81.9231 106.594 80.2333 Q106.594 77.4786 104.649 75.7425 Q102.728 74.0064 99.6261 74.0064 Q97.4271 74.0064 94.9734 74.7703 Q92.5428 75.5342 89.7651 77.0851 L89.7651 72.3629 Q92.5891 71.2287 95.0428 70.65 Q97.4965 70.0713 99.5335 70.0713 Q104.904 70.0713 108.098 72.7565 Q111.293 75.4416 111.293 79.9323 Q111.293 82.062 110.483 83.9832 Q109.696 85.8814 107.589 88.474 Q107.01 89.1453 103.909 92.3628 Q100.807 95.5573 95.1586 101.321 Z" fill="#000000" fill-rule="nonzero" fill-opacity="1" /><path clip-path="url(#clip952)" d="M730.004 1445.72 L1250.12 1106.28 L730.004 766.846 L209.891 1106.28 L730.004 1445.72 L730.004 1445.72  Z" fill="#009af9" fill-rule="evenodd" fill-opacity="0.1"/>
<polyline clip-path="url(#clip952)" style="stroke:#000000; stroke-linecap:round; stroke-linejoin:round; stroke-width:4; stroke-opacity:0.5; fill:none" points="730.004,1445.72 1250.12,1106.28 730.004,766.846 209.891,1106.28 730.004,1445.72 "/>
<path clip-path="url(#clip952)" d="M1250.12 460.843 L1270.1 526.421 L1309.31 588.194 L1366.23 643.788 L1438.68 691.067 L1523.86 728.214 L1618.52 753.802 L1719 766.846 L1821.46 766.846 L1921.94 753.802 L2016.6 728.214 L2101.78 691.067 L2174.23 643.788 L2231.15 588.194 L2270.35 526.421 L2290.34 460.843 L2290.34 393.98 L2270.35 328.402 L2231.15 266.628 L2174.23 211.034 L2101.78 163.755 L2016.6 126.608 L1921.94 101.021 L1821.46 87.9763 L1719 87.9763 L1618.52 101.021 L1523.86 126.608 L1438.68 163.755 L1366.23 211.034 L1309.31 266.628 L1270.1 328.402 L1250.12 393.98 L1250.12 460.843 L1250.12 460.843  Z" fill="#e26f46" fill-rule="evenodd" fill-opacity="0.1"/>
<polyline clip-path="url(#clip952)" style="stroke:#000000; stroke-linecap:round; stroke-linejoin:round; stroke-width:4; stroke-opacity:0.5; fill:none" points="1250.12,460.843 1270.1,526.421 1309.31,588.194 1366.23,643.788 1438.68,691.067 1523.86,728.214 1618.52,753.802 1719,766.846 1821.46,766.846 1921.94,753.802 2016.6,728.214 2101.78,691.067 2174.23,643.788 2231.15,588.194 2270.35,526.421 2290.34,460.843 2290.34,393.98 2270.35,328.402 2231.15,266.628 2174.23,211.034 2101.78,163.755 2016.6,126.608 1921.94,101.021 1821.46,87.9763 1719,87.9763 1618.52,101.021 1523.86,126.608 1438.68,163.755 1366.23,211.034 1309.31,266.628 1270.1,328.402 1250.12,393.98 1250.12,460.843 "/>
<path clip-path="url(#clip952)" d="M1770.23 427.411 L730.004 427.411 L730.004 1106.28 L1770.23 1106.28 L1770.23 427.411 L1770.23 427.411  Z" fill="#3da44d" fill-rule="evenodd" fill-opacity="0.1"/>
<polyline clip-path="url(#clip952)" style="stroke:#000000; stroke-linecap:round; stroke-linejoin:round; stroke-width:4; stroke-opacity:0.5; fill:none" points="1770.23,427.411 730.004,427.411 730.004,1106.28 1770.23,1106.28 1770.23,427.411 "/>
<path clip-path="url(#clip952)" d="M2290.34 87.9763 L1250.12 87.9763 L1250.12 766.846 L2290.34 766.846 L2290.34 87.9763 L2290.34 87.9763  Z" fill="#c271d2" fill-rule="evenodd" fill-opacity="0.1"/>
<polyline clip-path="url(#clip952)" style="stroke:#000000; stroke-linecap:round; stroke-linejoin:round; stroke-width:4; stroke-opacity:0.5; fill:none" points="2290.34,87.9763 1250.12,87.9763 1250.12,766.846 2290.34,766.846 2290.34,87.9763 "/>
<circle clip-path="url(#clip952)" cx="1250.12" cy="1106.28" r="14.4" fill="#ac8d18" fill-rule="evenodd" fill-opacity="0.5" stroke="#000000" stroke-opacity="0.5" stroke-width="3.2"/>
<circle clip-path="url(#clip952)" cx="209.891" cy="1106.28" r="14.4" fill="#00a9ad" fill-rule="evenodd" fill-opacity="0.5" stroke="#000000" stroke-opacity="0.5" stroke-width="3.2"/>
<circle clip-path="url(#clip952)" cx="209.891" cy="1106.28" r="14.4" fill="#ed5d92" fill-rule="evenodd" fill-opacity="0.5" stroke="#000000" stroke-opacity="0.5" stroke-width="3.2"/>
<circle clip-path="url(#clip952)" cx="2290.34" cy="427.411" r="14.4" fill="#c68125" fill-rule="evenodd" fill-opacity="0.5" stroke="#000000" stroke-opacity="0.5" stroke-width="3.2"/>
<circle clip-path="url(#clip952)" cx="1770.23" cy="427.411" r="14.4" fill="#00a98d" fill-rule="evenodd" fill-opacity="0.5" stroke="#000000" stroke-opacity="0.5" stroke-width="3.2"/>
<circle clip-path="url(#clip952)" cx="730.004" cy="427.411" r="14.4" fill="#8e971d" fill-rule="evenodd" fill-opacity="0.5" stroke="#000000" stroke-opacity="0.5" stroke-width="3.2"/>
<circle clip-path="url(#clip952)" cx="730.004" cy="766.846" r="14.4" fill="#00a8cb" fill-rule="evenodd" fill-opacity="0.5" stroke="#000000" stroke-opacity="0.5" stroke-width="3.2"/>
<circle clip-path="url(#clip952)" cx="2290.34" cy="87.9763" r="14.4" fill="#9b7fe8" fill-rule="evenodd" fill-opacity="0.5" stroke="#000000" stroke-opacity="0.5" stroke-width="3.2"/>
<circle clip-path="url(#clip952)" cx="2290.34" cy="87.9763" r="14.4" fill="#608cf6" fill-rule="evenodd" fill-opacity="0.5" stroke="#000000" stroke-opacity="0.5" stroke-width="3.2"/>
<circle clip-path="url(#clip952)" cx="2290.34" cy="427.411" r="14.4" fill="#f05f73" fill-rule="evenodd" fill-opacity="0.5" stroke="#000000" stroke-opacity="0.5" stroke-width="3.2"/>
<path clip-path="url(#clip950)" d="M1273.39 1091.15 L1280.84 1091.15 L1290.16 1126.56 L1299.43 1091.15 L1308.22 1091.15 L1317.54 1126.56 L1326.82 1091.15 L1334.27 1091.15 L1322.4 1136.52 L1313.61 1136.52 L1303.85 1099.33 L1294.05 1136.52 L1285.25 1136.52 L1273.39 1091.15 Z" fill="#000000" fill-rule="nonzero" fill-opacity="1" /><path clip-path="url(#clip950)" d="M1348.04 1129.63 L1361.41 1129.63 L1361.41 1083.49 L1346.87 1086.41 L1346.87 1078.96 L1361.33 1076.04 L1369.51 1076.04 L1369.51 1129.63 L1382.88 1129.63 L1382.88 1136.52 L1348.04 1136.52 L1348.04 1129.63 Z" fill="#000000" fill-rule="nonzero" fill-opacity="1" /><path clip-path="url(#clip950)" d="M233.484 1091.15 L240.938 1091.15 L250.255 1126.56 L259.532 1091.15 L268.322 1091.15 L277.639 1126.56 L286.916 1091.15 L294.37 1091.15 L282.5 1136.52 L273.71 1136.52 L263.947 1099.33 L254.144 1136.52 L245.354 1136.52 L233.484 1091.15 Z" fill="#000000" fill-rule="nonzero" fill-opacity="1" /><path clip-path="url(#clip950)" d="M313.773 1129.63 L342.332 1129.63 L342.332 1136.52 L303.93 1136.52 L303.93 1129.63 Q308.588 1124.81 316.609 1116.71 Q324.67 1108.57 326.736 1106.22 Q330.666 1101.8 332.205 1098.77 Q333.785 1095.69 333.785 1092.73 Q333.785 1087.91 330.382 1084.87 Q327.02 1081.83 321.592 1081.83 Q317.743 1081.83 313.449 1083.17 Q309.196 1084.51 304.335 1087.22 L304.335 1078.96 Q309.277 1076.97 313.571 1075.96 Q317.865 1074.95 321.43 1074.95 Q330.828 1074.95 336.418 1079.65 Q342.008 1084.35 342.008 1092.2 Q342.008 1095.93 340.59 1099.29 Q339.213 1102.61 335.527 1107.15 Q334.514 1108.33 329.086 1113.96 Q323.658 1119.55 313.773 1129.63 Z" fill="#000000" fill-rule="nonzero" fill-opacity="1" /><path clip-path="url(#clip950)" d="M232.654 1091.15 L240.108 1091.15 L249.425 1126.56 L258.701 1091.15 L267.492 1091.15 L276.809 1126.56 L286.085 1091.15 L293.539 1091.15 L281.67 1136.52 L272.879 1136.52 L263.117 1099.33 L253.314 1136.52 L244.523 1136.52 L232.654 1091.15 Z" fill="#000000" fill-rule="nonzero" fill-opacity="1" /><path clip-path="url(#clip950)" d="M330.686 1103.91 Q336.56 1105.17 339.841 1109.14 Q343.163 1113.11 343.163 1118.94 Q343.163 1127.89 337.005 1132.79 Q330.848 1137.7 319.505 1137.7 Q315.698 1137.7 311.647 1136.93 Q307.636 1136.2 303.342 1134.7 L303.342 1126.8 Q306.745 1128.78 310.796 1129.8 Q314.847 1130.81 319.262 1130.81 Q326.959 1130.81 330.969 1127.77 Q335.02 1124.73 335.02 1118.94 Q335.02 1113.59 331.253 1110.6 Q327.526 1107.56 320.842 1107.56 L313.794 1107.56 L313.794 1100.83 L321.166 1100.83 Q327.202 1100.83 330.402 1098.44 Q333.603 1096.01 333.603 1091.47 Q333.603 1086.82 330.281 1084.35 Q327 1081.83 320.842 1081.83 Q317.48 1081.83 313.632 1082.56 Q309.783 1083.29 305.165 1084.83 L305.165 1077.54 Q309.824 1076.24 313.875 1075.6 Q317.966 1074.95 321.571 1074.95 Q330.888 1074.95 336.317 1079.2 Q341.745 1083.41 341.745 1090.62 Q341.745 1095.65 338.869 1099.13 Q335.993 1102.57 330.686 1103.91 Z" fill="#000000" fill-rule="nonzero" fill-opacity="1" /><path clip-path="url(#clip950)" d="M2312.11 412.281 L2319.57 412.281 L2328.88 447.686 L2338.16 412.281 L2346.95 412.281 L2356.27 447.686 L2365.54 412.281 L2373 412.281 L2361.13 457.651 L2352.34 457.651 L2342.58 420.464 L2332.77 457.651 L2323.98 457.651 L2312.11 412.281 Z" fill="#000000" fill-rule="nonzero" fill-opacity="1" /><path clip-path="url(#clip950)" d="M2407.84 404.301 L2387.18 436.586 L2407.84 436.586 L2407.84 404.301 M2405.69 397.171 L2415.98 397.171 L2415.98 436.586 L2424.61 436.586 L2424.61 443.392 L2415.98 443.392 L2415.98 457.651 L2407.84 457.651 L2407.84 443.392 L2380.53 443.392 L2380.53 435.493 L2405.69 397.171 Z" fill="#000000" fill-rule="nonzero" fill-opacity="1" /><path clip-path="url(#clip950)" d="M1793.3 412.281 L1800.75 412.281 L1810.07 447.686 L1819.34 412.281 L1828.13 412.281 L1837.45 447.686 L1846.73 412.281 L1854.18 412.281 L1842.31 457.651 L1833.52 457.651 L1823.76 420.464 L1813.96 457.651 L1805.17 457.651 L1793.3 412.281 Z" fill="#000000" fill-rule="nonzero" fill-opacity="1" /><path clip-path="url(#clip950)" d="M1866.62 397.171 L1898.74 397.171 L1898.74 404.058 L1874.11 404.058 L1874.11 418.884 Q1875.89 418.276 1877.68 417.993 Q1879.46 417.669 1881.24 417.669 Q1891.37 417.669 1897.28 423.218 Q1903.2 428.768 1903.2 438.247 Q1903.2 448.01 1897.12 453.438 Q1891.04 458.826 1879.99 458.826 Q1876.18 458.826 1872.21 458.178 Q1868.28 457.53 1864.07 456.233 L1864.07 448.01 Q1867.71 449.995 1871.6 450.967 Q1875.49 451.939 1879.82 451.939 Q1886.83 451.939 1890.92 448.253 Q1895.01 444.567 1895.01 438.247 Q1895.01 431.928 1890.92 428.242 Q1886.83 424.555 1879.82 424.555 Q1876.54 424.555 1873.26 425.284 Q1870.02 426.014 1866.62 427.553 L1866.62 397.171 Z" fill="#000000" fill-rule="nonzero" fill-opacity="1" /><path clip-path="url(#clip950)" d="M752.058 412.281 L759.512 412.281 L768.829 447.686 L778.105 412.281 L786.896 412.281 L796.213 447.686 L805.489 412.281 L812.943 412.281 L801.074 457.651 L792.283 457.651 L782.521 420.464 L772.717 457.651 L763.927 457.651 L752.058 412.281 Z" fill="#000000" fill-rule="nonzero" fill-opacity="1" /><path clip-path="url(#clip950)" d="M843.811 424.15 Q838.302 424.15 835.061 427.917 Q831.861 431.685 831.861 438.247 Q831.861 444.769 835.061 448.577 Q838.302 452.344 843.811 452.344 Q849.32 452.344 852.52 448.577 Q855.761 444.769 855.761 438.247 Q855.761 431.685 852.52 427.917 Q849.32 424.15 843.811 424.15 M860.055 398.508 L860.055 405.962 Q856.976 404.503 853.817 403.734 Q850.697 402.964 847.619 402.964 Q839.517 402.964 835.223 408.433 Q830.969 413.901 830.362 424.96 Q832.752 421.436 836.357 419.573 Q839.962 417.669 844.297 417.669 Q853.411 417.669 858.678 423.218 Q863.984 428.728 863.984 438.247 Q863.984 447.564 858.475 453.195 Q852.966 458.826 843.811 458.826 Q833.319 458.826 827.769 450.805 Q822.22 442.744 822.22 427.472 Q822.22 413.132 829.025 404.625 Q835.831 396.077 847.295 396.077 Q850.373 396.077 853.492 396.685 Q856.652 397.293 860.055 398.508 Z" fill="#000000" fill-rule="nonzero" fill-opacity="1" /><path clip-path="url(#clip950)" d="M752.99 751.716 L760.443 751.716 L769.76 787.121 L779.037 751.716 L787.827 751.716 L797.144 787.121 L806.421 751.716 L813.875 751.716 L802.005 797.086 L793.215 797.086 L783.452 759.899 L773.649 797.086 L764.859 797.086 L752.99 751.716 Z" fill="#000000" fill-rule="nonzero" fill-opacity="1" /><path clip-path="url(#clip950)" d="M824.164 736.606 L863.053 736.606 L863.053 740.09 L841.097 797.086 L832.549 797.086 L853.209 743.493 L824.164 743.493 L824.164 736.606 Z" fill="#000000" fill-rule="nonzero" fill-opacity="1" /><path clip-path="url(#clip950)" d="M2312.62 72.8461 L2320.07 72.8461 L2329.39 108.251 L2338.67 72.8461 L2347.46 72.8461 L2356.77 108.251 L2366.05 72.8461 L2373.5 72.8461 L2361.63 118.216 L2352.84 118.216 L2343.08 81.029 L2333.28 118.216 L2324.49 118.216 L2312.62 72.8461 Z" fill="#000000" fill-rule="nonzero" fill-opacity="1" /><path clip-path="url(#clip950)" d="M2403.36 89.4954 Q2397.53 89.4954 2394.16 92.6146 Q2390.84 95.7338 2390.84 101.202 Q2390.84 106.671 2394.16 109.79 Q2397.53 112.91 2403.36 112.91 Q2409.19 112.91 2412.55 109.79 Q2415.92 106.631 2415.92 101.202 Q2415.92 95.7338 2412.55 92.6146 Q2409.23 89.4954 2403.36 89.4954 M2395.18 86.0116 Q2389.91 84.7153 2386.95 81.11 Q2384.04 77.5047 2384.04 72.3195 Q2384.04 65.0684 2389.18 60.8555 Q2394.37 56.6425 2403.36 56.6425 Q2412.39 56.6425 2417.54 60.8555 Q2422.68 65.0684 2422.68 72.3195 Q2422.68 77.5047 2419.72 81.11 Q2416.81 84.7153 2411.58 86.0116 Q2417.5 87.3889 2420.78 91.3993 Q2424.1 95.4097 2424.1 101.202 Q2424.1 109.993 2418.71 114.692 Q2413.36 119.391 2403.36 119.391 Q2393.35 119.391 2387.97 114.692 Q2382.62 109.993 2382.62 101.202 Q2382.62 95.4097 2385.94 91.3993 Q2389.26 87.3889 2395.18 86.0116 M2392.18 73.0892 Q2392.18 77.7883 2395.1 80.4213 Q2398.05 83.0544 2403.36 83.0544 Q2408.63 83.0544 2411.58 80.4213 Q2414.58 77.7883 2414.58 73.0892 Q2414.58 68.3902 2411.58 65.7571 Q2408.63 63.124 2403.36 63.124 Q2398.05 63.124 2395.1 65.7571 Q2392.18 68.3902 2392.18 73.0892 Z" fill="#000000" fill-rule="nonzero" fill-opacity="1" /><path clip-path="url(#clip950)" d="M2312.7 72.8461 L2320.15 72.8461 L2329.47 108.251 L2338.75 72.8461 L2347.54 72.8461 L2356.85 108.251 L2366.13 72.8461 L2373.58 72.8461 L2361.72 118.216 L2352.93 118.216 L2343.16 81.029 L2333.36 118.216 L2324.57 118.216 L2312.7 72.8461 Z" fill="#000000" fill-rule="nonzero" fill-opacity="1" /><path clip-path="url(#clip950)" d="M2386.18 116.96 L2386.18 109.507 Q2389.26 110.965 2392.42 111.735 Q2395.58 112.505 2398.62 112.505 Q2406.72 112.505 2410.97 107.076 Q2415.27 101.608 2415.88 90.5081 Q2413.53 93.9919 2409.92 95.8553 Q2406.32 97.7187 2401.94 97.7187 Q2392.87 97.7187 2387.56 92.25 Q2382.29 86.7408 2382.29 77.2211 Q2382.29 67.904 2387.8 62.2733 Q2393.31 56.6425 2402.47 56.6425 Q2412.96 56.6425 2418.47 64.7038 Q2424.02 72.7246 2424.02 88.037 Q2424.02 102.337 2417.21 110.884 Q2410.45 119.391 2398.98 119.391 Q2395.91 119.391 2392.75 118.783 Q2389.59 118.176 2386.18 116.96 M2402.47 91.3183 Q2407.98 91.3183 2411.18 87.5509 Q2414.42 83.7836 2414.42 77.2211 Q2414.42 70.6992 2411.18 66.9318 Q2407.98 63.124 2402.47 63.124 Q2396.96 63.124 2393.72 66.9318 Q2390.52 70.6992 2390.52 77.2211 Q2390.52 83.7836 2393.72 87.5509 Q2396.96 91.3183 2402.47 91.3183 Z" fill="#000000" fill-rule="nonzero" fill-opacity="1" /><path clip-path="url(#clip950)" d="M2286.15 412.281 L2293.6 412.281 L2302.92 447.686 L2312.19 412.281 L2320.98 412.281 L2330.3 447.686 L2339.58 412.281 L2347.03 412.281 L2335.16 457.651 L2326.37 457.651 L2316.61 420.464 L2306.81 457.651 L2298.02 457.651 L2286.15 412.281 Z" fill="#000000" fill-rule="nonzero" fill-opacity="1" /><path clip-path="url(#clip950)" d="M2360.8 450.765 L2374.17 450.765 L2374.17 404.625 L2359.63 407.541 L2359.63 400.088 L2374.09 397.171 L2382.27 397.171 L2382.27 450.765 L2395.64 450.765 L2395.64 457.651 L2360.8 457.651 L2360.8 450.765 Z" fill="#000000" fill-rule="nonzero" fill-opacity="1" /><path clip-path="url(#clip950)" d="M2429.67 402.559 Q2423.35 402.559 2420.15 408.797 Q2416.99 414.995 2416.99 427.472 Q2416.99 439.908 2420.15 446.147 Q2423.35 452.344 2429.67 452.344 Q2436.03 452.344 2439.19 446.147 Q2442.39 439.908 2442.39 427.472 Q2442.39 414.995 2439.19 408.797 Q2436.03 402.559 2429.67 402.559 M2429.67 396.077 Q2439.84 396.077 2445.18 404.139 Q2450.57 412.159 2450.57 427.472 Q2450.57 442.744 2445.18 450.805 Q2439.84 458.826 2429.67 458.826 Q2419.5 458.826 2414.11 450.805 Q2408.77 442.744 2408.77 427.472 Q2408.77 412.159 2414.11 404.139 Q2419.5 396.077 2429.67 396.077 Z" fill="#000000" fill-rule="nonzero" fill-opacity="1" /></svg>
