<?xml version="1.0" encoding="utf-8"?>
<svg xmlns="http://www.w3.org/2000/svg" xmlns:xlink="http://www.w3.org/1999/xlink" width="600" height="400" viewBox="0 0 2400 1600">
<defs>
  <clipPath id="clip340">
    <rect x="0" y="0" width="2400" height="1600"/>
  </clipPath>
</defs>
<path clip-path="url(#clip340)" d="M0 1600 L2400 1600 L2400 0 L0 0  Z" fill="#ffffff" fill-rule="evenodd" fill-opacity="1"/>
<defs>
  <clipPath id="clip341">
    <rect x="480" y="0" width="1681" height="1600"/>
  </clipPath>
</defs>
<path clip-path="url(#clip340)" d="M147.478 1486.45 L2352.76 1486.45 L2352.76 47.2441 L147.478 47.2441  Z" fill="#ffffff" fill-rule="evenodd" fill-opacity="1"/>
<defs>
  <clipPath id="clip342">
    <rect x="147" y="47" width="2206" height="1440"/>
  </clipPath>
</defs>
<polyline clip-path="url(#clip342)" style="stroke:#000000; stroke-linecap:round; stroke-linejoin:round; stroke-width:2; stroke-opacity:0.1; fill:none" points="384.747,1486.45 384.747,47.2441 "/>
<polyline clip-path="url(#clip342)" style="stroke:#000000; stroke-linecap:round; stroke-linejoin:round; stroke-width:2; stroke-opacity:0.1; fill:none" points="942.404,1486.45 942.404,47.2441 "/>
<polyline clip-path="url(#clip342)" style="stroke:#000000; stroke-linecap:round; stroke-linejoin:round; stroke-width:2; stroke-opacity:0.1; fill:none" points="1500.06,1486.45 1500.06,47.2441 "/>
<polyline clip-path="url(#clip342)" style="stroke:#000000; stroke-linecap:round; stroke-linejoin:round; stroke-width:2; stroke-opacity:0.1; fill:none" points="2057.72,1486.45 2057.72,47.2441 "/>
<polyline clip-path="url(#clip342)" style="stroke:#000000; stroke-linecap:round; stroke-linejoin:round; stroke-width:2; stroke-opacity:0.1; fill:none" points="147.478,1339.46 2352.76,1339.46 "/>
<polyline clip-path="url(#clip342)" style="stroke:#000000; stroke-linecap:round; stroke-linejoin:round; stroke-width:2; stroke-opacity:0.1; fill:none" points="147.478,985.107 2352.76,985.107 "/>
<polyline clip-path="url(#clip342)" style="stroke:#000000; stroke-linecap:round; stroke-linejoin:round; stroke-width:2; stroke-opacity:0.1; fill:none" points="147.478,630.754 2352.76,630.754 "/>
<polyline clip-path="url(#clip342)" style="stroke:#000000; stroke-linecap:round; stroke-linejoin:round; stroke-width:2; stroke-opacity:0.1; fill:none" points="147.478,276.401 2352.76,276.401 "/>
<polyline clip-path="url(#clip340)" style="stroke:#000000; stroke-linecap:round; stroke-linejoin:round; stroke-width:4; stroke-opacity:1; fill:none" points="147.478,1486.45 2352.76,1486.45 "/>
<polyline clip-path="url(#clip340)" style="stroke:#000000; stroke-linecap:round; stroke-linejoin:round; stroke-width:4; stroke-opacity:1; fill:none" points="384.747,1486.45 384.747,1467.55 "/>
<polyline clip-path="url(#clip340)" style="stroke:#000000; stroke-linecap:round; stroke-linejoin:round; stroke-width:4; stroke-opacity:1; fill:none" points="942.404,1486.45 942.404,1467.55 "/>
<polyline clip-path="url(#clip340)" style="stroke:#000000; stroke-linecap:round; stroke-linejoin:round; stroke-width:4; stroke-opacity:1; fill:none" points="1500.06,1486.45 1500.06,1467.55 "/>
<polyline clip-path="url(#clip340)" style="stroke:#000000; stroke-linecap:round; stroke-linejoin:round; stroke-width:4; stroke-opacity:1; fill:none" points="2057.72,1486.45 2057.72,1467.55 "/>
<path clip-path="url(#clip340)" d="M354.69 1532.02 L384.365 1532.02 L384.365 1535.95 L354.69 1535.95 L354.69 1532.02 Z" fill="#000000" fill-rule="nonzero" fill-opacity="1" /><path clip-path="url(#clip340)" d="M398.486 1544.91 L414.805 1544.91 L414.805 1548.85 L392.861 1548.85 L392.861 1544.91 Q395.523 1542.16 400.106 1537.53 Q404.712 1532.88 405.893 1531.53 Q408.138 1529.01 409.018 1527.27 Q409.921 1525.51 409.921 1523.82 Q409.921 1521.07 407.976 1519.33 Q406.055 1517.6 402.953 1517.6 Q400.754 1517.6 398.3 1518.36 Q395.87 1519.13 393.092 1520.68 L393.092 1515.95 Q395.916 1514.82 398.37 1514.24 Q400.824 1513.66 402.861 1513.66 Q408.231 1513.66 411.425 1516.35 Q414.62 1519.03 414.62 1523.52 Q414.62 1525.65 413.81 1527.57 Q413.023 1529.47 410.916 1532.07 Q410.337 1532.74 407.236 1535.95 Q404.134 1539.15 398.486 1544.91 Z" fill="#000000" fill-rule="nonzero" fill-opacity="1" /><path clip-path="url(#clip340)" d="M912.161 1532.02 L941.836 1532.02 L941.836 1535.95 L912.161 1535.95 L912.161 1532.02 Z" fill="#000000" fill-rule="nonzero" fill-opacity="1" /><path clip-path="url(#clip340)" d="M952.739 1544.91 L960.378 1544.91 L960.378 1518.55 L952.068 1520.21 L952.068 1515.95 L960.332 1514.29 L965.008 1514.29 L965.008 1544.91 L972.646 1544.91 L972.646 1548.85 L952.739 1548.85 L952.739 1544.91 Z" fill="#000000" fill-rule="nonzero" fill-opacity="1" /><path clip-path="url(#clip340)" d="M1500.06 1517.37 Q1496.45 1517.37 1494.62 1520.93 Q1492.81 1524.47 1492.81 1531.6 Q1492.81 1538.71 1494.62 1542.27 Q1496.45 1545.82 1500.06 1545.82 Q1503.69 1545.82 1505.5 1542.27 Q1507.33 1538.71 1507.33 1531.6 Q1507.33 1524.47 1505.5 1520.93 Q1503.69 1517.37 1500.06 1517.37 M1500.06 1513.66 Q1505.87 1513.66 1508.93 1518.27 Q1512 1522.85 1512 1531.6 Q1512 1540.33 1508.93 1544.94 Q1505.87 1549.52 1500.06 1549.52 Q1494.25 1549.52 1491.17 1544.94 Q1488.12 1540.33 1488.12 1531.6 Q1488.12 1522.85 1491.17 1518.27 Q1494.25 1513.66 1500.06 1513.66 Z" fill="#000000" fill-rule="nonzero" fill-opacity="1" /><path clip-path="url(#clip340)" d="M2048.1 1544.91 L2055.74 1544.91 L2055.74 1518.55 L2047.43 1520.21 L2047.43 1515.95 L2055.69 1514.29 L2060.37 1514.29 L2060.37 1544.91 L2068.01 1544.91 L2068.01 1548.85 L2048.1 1548.85 L2048.1 1544.91 Z" fill="#000000" fill-rule="nonzero" fill-opacity="1" /><polyline clip-path="url(#clip340)" style="stroke:#000000; stroke-linecap:round; stroke-linejoin:round; stroke-width:4; stroke-opacity:1; fill:none" points="147.478,1486.45 147.478,47.2441 "/>
<polyline clip-path="url(#clip340)" style="stroke:#000000; stroke-linecap:round; stroke-linejoin:round; stroke-width:4; stroke-opacity:1; fill:none" points="147.478,1339.46 166.376,1339.46 "/>
<polyline clip-path="url(#clip340)" style="stroke:#000000; stroke-linecap:round; stroke-linejoin:round; stroke-width:4; stroke-opacity:1; fill:none" points="147.478,985.107 166.376,985.107 "/>
<polyline clip-path="url(#clip340)" style="stroke:#000000; stroke-linecap:round; stroke-linejoin:round; stroke-width:4; stroke-opacity:1; fill:none" points="147.478,630.754 166.376,630.754 "/>
<polyline clip-path="url(#clip340)" style="stroke:#000000; stroke-linecap:round; stroke-linejoin:round; stroke-width:4; stroke-opacity:1; fill:none" points="147.478,276.401 166.376,276.401 "/>
<path clip-path="url(#clip340)" d="M51.3625 1339.91 L81.0383 1339.91 L81.0383 1343.85 L51.3625 1343.85 L51.3625 1339.91 Z" fill="#000000" fill-rule="nonzero" fill-opacity="1" /><path clip-path="url(#clip340)" d="M95.1586 1352.81 L111.478 1352.81 L111.478 1356.74 L89.5336 1356.74 L89.5336 1352.81 Q92.1956 1350.05 96.7789 1345.42 Q101.385 1340.77 102.566 1339.43 Q104.811 1336.9 105.691 1335.17 Q106.594 1333.41 106.594 1331.72 Q106.594 1328.96 104.649 1327.23 Q102.728 1325.49 99.6261 1325.49 Q97.4271 1325.49 94.9734 1326.25 Q92.5428 1327.02 89.7651 1328.57 L89.7651 1323.85 Q92.5891 1322.71 95.0428 1322.13 Q97.4965 1321.56 99.5335 1321.56 Q104.904 1321.56 108.098 1324.24 Q111.293 1326.93 111.293 1331.42 Q111.293 1333.55 110.483 1335.47 Q109.696 1337.37 107.589 1339.96 Q107.01 1340.63 103.909 1343.85 Q100.807 1347.04 95.1586 1352.81 Z" fill="#000000" fill-rule="nonzero" fill-opacity="1" /><path clip-path="url(#clip340)" d="M50.9921 985.559 L80.6679 985.559 L80.6679 989.494 L50.9921 989.494 L50.9921 985.559 Z" fill="#000000" fill-rule="nonzero" fill-opacity="1" /><path clip-path="url(#clip340)" d="M91.5706 998.452 L99.2095 998.452 L99.2095 972.087 L90.8993 973.753 L90.8993 969.494 L99.1632 967.827 L103.839 967.827 L103.839 998.452 L111.478 998.452 L111.478 1002.39 L91.5706 1002.39 L91.5706 998.452 Z" fill="#000000" fill-rule="nonzero" fill-opacity="1" /><path clip-path="url(#clip340)" d="M99.5335 616.553 Q95.9224 616.553 94.0937 620.117 Q92.2882 623.659 92.2882 630.789 Q92.2882 637.895 94.0937 641.46 Q95.9224 645.002 99.5335 645.002 Q103.168 645.002 104.973 641.46 Q106.802 637.895 106.802 630.789 Q106.802 623.659 104.973 620.117 Q103.168 616.553 99.5335 616.553 M99.5335 612.849 Q105.344 612.849 108.399 617.455 Q111.478 622.039 111.478 630.789 Q111.478 639.516 108.399 644.122 Q105.344 648.705 99.5335 648.705 Q93.7234 648.705 90.6447 644.122 Q87.5892 639.516 87.5892 630.789 Q87.5892 622.039 90.6447 617.455 Q93.7234 612.849 99.5335 612.849 Z" fill="#000000" fill-rule="nonzero" fill-opacity="1" /><path clip-path="url(#clip340)" d="M91.5706 289.745 L99.2095 289.745 L99.2095 263.38 L90.8993 265.046 L90.8993 260.787 L99.1632 259.121 L103.839 259.121 L103.839 289.745 L111.478 289.745 L111.478 293.681 L91.5706 293.681 L91.5706 289.745 Z" fill="#000000" fill-rule="nonzero" fill-opacity="1" /><circle clip-path="url(#clip342)" cx="2253.46" cy="760.326" r="14.4" fill="#009af9" fill-rule="evenodd" fill-opacity="0.5" stroke="#000000" stroke-opacity="0.5" stroke-width="3.2"/>
<circle clip-path="url(#clip342)" cx="1597.96" cy="384.842" r="14.4" fill="#009af9" fill-rule="evenodd" fill-opacity="0.5" stroke="#000000" stroke-opacity="0.5" stroke-width="3.2"/>
<circle clip-path="url(#clip342)" cx="209.891" cy="958.026" r="14.4" fill="#009af9" fill-rule="evenodd" fill-opacity="0.5" stroke="#000000" stroke-opacity="0.5" stroke-width="3.2"/>
<circle clip-path="url(#clip342)" cx="1061.95" cy="611.398" r="14.4" fill="#009af9" fill-rule="evenodd" fill-opacity="0.5" stroke="#000000" stroke-opacity="0.5" stroke-width="3.2"/>
<circle clip-path="url(#clip342)" cx="1510.82" cy="992.631" r="14.4" fill="#009af9" fill-rule="evenodd" fill-opacity="0.5" stroke="#000000" stroke-opacity="0.5" stroke-width="3.2"/>
<circle clip-path="url(#clip342)" cx="1476.73" cy="309.277" r="14.4" fill="#009af9" fill-rule="evenodd" fill-opacity="0.5" stroke="#000000" stroke-opacity="0.5" stroke-width="3.2"/>
<circle clip-path="url(#clip342)" cx="1620.43" cy="1445.72" r="14.4" fill="#009af9" fill-rule="evenodd" fill-opacity="0.5" stroke="#000000" stroke-opacity="0.5" stroke-width="3.2"/>
<circle clip-path="url(#clip342)" cx="582.246" cy="87.9763" r="14.4" fill="#009af9" fill-rule="evenodd" fill-opacity="0.5" stroke="#000000" stroke-opacity="0.5" stroke-width="3.2"/>
<circle clip-path="url(#clip342)" cx="1385.42" cy="862.234" r="14.4" fill="#009af9" fill-rule="evenodd" fill-opacity="0.5" stroke="#000000" stroke-opacity="0.5" stroke-width="3.2"/>
<circle clip-path="url(#clip342)" cx="1632.72" cy="315.677" r="14.4" fill="#009af9" fill-rule="evenodd" fill-opacity="0.5" stroke="#000000" stroke-opacity="0.5" stroke-width="3.2"/>
<circle clip-path="url(#clip342)" cx="770.959" cy="524.427" r="14.4" fill="#009af9" fill-rule="evenodd" fill-opacity="0.5" stroke="#000000" stroke-opacity="0.5" stroke-width="3.2"/>
<circle clip-path="url(#clip342)" cx="1496.29" cy="527.793" r="14.4" fill="#009af9" fill-rule="evenodd" fill-opacity="0.5" stroke="#000000" stroke-opacity="0.5" stroke-width="3.2"/>
<circle clip-path="url(#clip342)" cx="1155.91" cy="422.896" r="14.4" fill="#009af9" fill-rule="evenodd" fill-opacity="0.5" stroke="#000000" stroke-opacity="0.5" stroke-width="3.2"/>
<circle clip-path="url(#clip342)" cx="1276.74" cy="581.322" r="14.4" fill="#009af9" fill-rule="evenodd" fill-opacity="0.5" stroke="#000000" stroke-opacity="0.5" stroke-width="3.2"/>
<circle clip-path="url(#clip342)" cx="1125.67" cy="453.736" r="14.4" fill="#009af9" fill-rule="evenodd" fill-opacity="0.5" stroke="#000000" stroke-opacity="0.5" stroke-width="3.2"/>
<circle clip-path="url(#clip342)" cx="1087.96" cy="924.477" r="14.4" fill="#009af9" fill-rule="evenodd" fill-opacity="0.5" stroke="#000000" stroke-opacity="0.5" stroke-width="3.2"/>
<circle clip-path="url(#clip342)" cx="938.48" cy="1441.84" r="14.4" fill="#009af9" fill-rule="evenodd" fill-opacity="0.5" stroke="#000000" stroke-opacity="0.5" stroke-width="3.2"/>
<circle clip-path="url(#clip342)" cx="1536.67" cy="682.539" r="14.4" fill="#009af9" fill-rule="evenodd" fill-opacity="0.5" stroke="#000000" stroke-opacity="0.5" stroke-width="3.2"/>
<circle clip-path="url(#clip342)" cx="941.403" cy="980.845" r="14.4" fill="#009af9" fill-rule="evenodd" fill-opacity="0.5" stroke="#000000" stroke-opacity="0.5" stroke-width="3.2"/>
<circle clip-path="url(#clip342)" cx="2027.74" cy="498.05" r="14.4" fill="#009af9" fill-rule="evenodd" fill-opacity="0.5" stroke="#000000" stroke-opacity="0.5" stroke-width="3.2"/>
<circle clip-path="url(#clip342)" cx="1686.5" cy="239.552" r="14.4" fill="#009af9" fill-rule="evenodd" fill-opacity="0.5" stroke="#000000" stroke-opacity="0.5" stroke-width="3.2"/>
<circle clip-path="url(#clip342)" cx="2056.25" cy="211.498" r="14.4" fill="#009af9" fill-rule="evenodd" fill-opacity="0.5" stroke="#000000" stroke-opacity="0.5" stroke-width="3.2"/>
<circle clip-path="url(#clip342)" cx="1422.58" cy="995.897" r="14.4" fill="#009af9" fill-rule="evenodd" fill-opacity="0.5" stroke="#000000" stroke-opacity="0.5" stroke-width="3.2"/>
<circle clip-path="url(#clip342)" cx="1684.36" cy="690.402" r="14.4" fill="#009af9" fill-rule="evenodd" fill-opacity="0.5" stroke="#000000" stroke-opacity="0.5" stroke-width="3.2"/>
<circle clip-path="url(#clip342)" cx="1553.36" cy="1030.35" r="14.4" fill="#009af9" fill-rule="evenodd" fill-opacity="0.5" stroke="#000000" stroke-opacity="0.5" stroke-width="3.2"/>
<circle clip-path="url(#clip342)" cx="2192.17" cy="813.865" r="14.4" fill="#009af9" fill-rule="evenodd" fill-opacity="0.5" stroke="#000000" stroke-opacity="0.5" stroke-width="3.2"/>
<circle clip-path="url(#clip342)" cx="871.958" cy="302.286" r="14.4" fill="#009af9" fill-rule="evenodd" fill-opacity="0.5" stroke="#000000" stroke-opacity="0.5" stroke-width="3.2"/>
<circle clip-path="url(#clip342)" cx="1244.47" cy="1184.8" r="14.4" fill="#009af9" fill-rule="evenodd" fill-opacity="0.5" stroke="#000000" stroke-opacity="0.5" stroke-width="3.2"/>
<circle clip-path="url(#clip342)" cx="2290.34" cy="1032.06" r="14.4" fill="#009af9" fill-rule="evenodd" fill-opacity="0.5" stroke="#000000" stroke-opacity="0.5" stroke-width="3.2"/>
<circle clip-path="url(#clip342)" cx="1845.02" cy="528.594" r="14.4" fill="#009af9" fill-rule="evenodd" fill-opacity="0.5" stroke="#000000" stroke-opacity="0.5" stroke-width="3.2"/>
<path clip-path="url(#clip342)" d="M209.891 958.026 L938.48 1441.84 L1620.43 1445.72 L2290.34 1032.06 L2253.46 760.326 L2056.25 211.498 L582.246 87.9763 L209.891 958.026 L209.891 958.026  Z" fill="#e26f46" fill-rule="evenodd" fill-opacity="0.2"/>
<polyline clip-path="url(#clip342)" style="stroke:#000000; stroke-linecap:round; stroke-linejoin:round; stroke-width:4; stroke-opacity:0.2; fill:none" points="209.891,958.026 938.48,1441.84 1620.43,1445.72 2290.34,1032.06 2253.46,760.326 2056.25,211.498 582.246,87.9763 209.891,958.026 "/>
</svg>
