<?xml version="1.0" encoding="utf-8"?>
<svg xmlns="http://www.w3.org/2000/svg" xmlns:xlink="http://www.w3.org/1999/xlink" width="600" height="400" viewBox="0 0 2400 1600">
<defs>
  <clipPath id="clip050">
    <rect x="0" y="0" width="2400" height="1600"/>
  </clipPath>
</defs>
<path clip-path="url(#clip050)" d="M0 1600 L2400 1600 L2400 0 L0 0  Z" fill="#ffffff" fill-rule="evenodd" fill-opacity="1"/>
<defs>
  <clipPath id="clip051">
    <rect x="480" y="0" width="1681" height="1600"/>
  </clipPath>
</defs>
<path clip-path="url(#clip050)" d="M147.478 1486.45 L2352.76 1486.45 L2352.76 47.2441 L147.478 47.2441  Z" fill="#ffffff" fill-rule="evenodd" fill-opacity="1"/>
<defs>
  <clipPath id="clip052">
    <rect x="147" y="47" width="2206" height="1440"/>
  </clipPath>
</defs>
<polyline clip-path="url(#clip052)" style="stroke:#000000; stroke-linecap:round; stroke-linejoin:round; stroke-width:2; stroke-opacity:0.1; fill:none" points="487.569,1486.45 487.569,47.2441 "/>
<polyline clip-path="url(#clip052)" style="stroke:#000000; stroke-linecap:round; stroke-linejoin:round; stroke-width:2; stroke-opacity:0.1; fill:none" points="943.742,1486.45 943.742,47.2441 "/>
<polyline clip-path="url(#clip052)" style="stroke:#000000; stroke-linecap:round; stroke-linejoin:round; stroke-width:2; stroke-opacity:0.1; fill:none" points="1399.91,1486.45 1399.91,47.2441 "/>
<polyline clip-path="url(#clip052)" style="stroke:#000000; stroke-linecap:round; stroke-linejoin:round; stroke-width:2; stroke-opacity:0.1; fill:none" points="1856.09,1486.45 1856.09,47.2441 "/>
<polyline clip-path="url(#clip052)" style="stroke:#000000; stroke-linecap:round; stroke-linejoin:round; stroke-width:2; stroke-opacity:0.1; fill:none" points="2312.26,1486.45 2312.26,47.2441 "/>
<polyline clip-path="url(#clip052)" style="stroke:#000000; stroke-linecap:round; stroke-linejoin:round; stroke-width:2; stroke-opacity:0.1; fill:none" points="147.478,1386.88 2352.76,1386.88 "/>
<polyline clip-path="url(#clip052)" style="stroke:#000000; stroke-linecap:round; stroke-linejoin:round; stroke-width:2; stroke-opacity:0.1; fill:none" points="147.478,1024.83 2352.76,1024.83 "/>
<polyline clip-path="url(#clip052)" style="stroke:#000000; stroke-linecap:round; stroke-linejoin:round; stroke-width:2; stroke-opacity:0.1; fill:none" points="147.478,662.783 2352.76,662.783 "/>
<polyline clip-path="url(#clip052)" style="stroke:#000000; stroke-linecap:round; stroke-linejoin:round; stroke-width:2; stroke-opacity:0.1; fill:none" points="147.478,300.733 2352.76,300.733 "/>
<polyline clip-path="url(#clip050)" style="stroke:#000000; stroke-linecap:round; stroke-linejoin:round; stroke-width:4; stroke-opacity:1; fill:none" points="147.478,1486.45 2352.76,1486.45 "/>
<polyline clip-path="url(#clip050)" style="stroke:#000000; stroke-linecap:round; stroke-linejoin:round; stroke-width:4; stroke-opacity:1; fill:none" points="487.569,1486.45 487.569,1467.55 "/>
<polyline clip-path="url(#clip050)" style="stroke:#000000; stroke-linecap:round; stroke-linejoin:round; stroke-width:4; stroke-opacity:1; fill:none" points="943.742,1486.45 943.742,1467.55 "/>
<polyline clip-path="url(#clip050)" style="stroke:#000000; stroke-linecap:round; stroke-linejoin:round; stroke-width:4; stroke-opacity:1; fill:none" points="1399.91,1486.45 1399.91,1467.55 "/>
<polyline clip-path="url(#clip050)" style="stroke:#000000; stroke-linecap:round; stroke-linejoin:round; stroke-width:4; stroke-opacity:1; fill:none" points="1856.09,1486.45 1856.09,1467.55 "/>
<polyline clip-path="url(#clip050)" style="stroke:#000000; stroke-linecap:round; stroke-linejoin:round; stroke-width:4; stroke-opacity:1; fill:none" points="2312.26,1486.45 2312.26,1467.55 "/>
<path clip-path="url(#clip050)" d="M457.511 1532.02 L487.187 1532.02 L487.187 1535.95 L457.511 1535.95 L457.511 1532.02 Z" fill="#000000" fill-rule="nonzero" fill-opacity="1" /><path clip-path="url(#clip050)" d="M501.307 1544.91 L517.627 1544.91 L517.627 1548.85 L495.682 1548.85 L495.682 1544.91 Q498.344 1542.16 502.928 1537.53 Q507.534 1532.88 508.715 1531.53 Q510.96 1529.01 511.84 1527.27 Q512.742 1525.51 512.742 1523.82 Q512.742 1521.07 510.798 1519.33 Q508.877 1517.6 505.775 1517.6 Q503.576 1517.6 501.122 1518.36 Q498.691 1519.13 495.914 1520.68 L495.914 1515.95 Q498.738 1514.82 501.191 1514.24 Q503.645 1513.66 505.682 1513.66 Q511.053 1513.66 514.247 1516.35 Q517.441 1519.03 517.441 1523.52 Q517.441 1525.65 516.631 1527.57 Q515.844 1529.47 513.738 1532.07 Q513.159 1532.74 510.057 1535.95 Q506.955 1539.15 501.307 1544.91 Z" fill="#000000" fill-rule="nonzero" fill-opacity="1" /><path clip-path="url(#clip050)" d="M913.499 1532.02 L943.175 1532.02 L943.175 1535.95 L913.499 1535.95 L913.499 1532.02 Z" fill="#000000" fill-rule="nonzero" fill-opacity="1" /><path clip-path="url(#clip050)" d="M954.077 1544.91 L961.716 1544.91 L961.716 1518.55 L953.406 1520.21 L953.406 1515.95 L961.67 1514.29 L966.346 1514.29 L966.346 1544.91 L973.985 1544.91 L973.985 1548.85 L954.077 1548.85 L954.077 1544.91 Z" fill="#000000" fill-rule="nonzero" fill-opacity="1" /><path clip-path="url(#clip050)" d="M1399.91 1517.37 Q1396.3 1517.37 1394.48 1520.93 Q1392.67 1524.47 1392.67 1531.6 Q1392.67 1538.71 1394.48 1542.27 Q1396.3 1545.82 1399.91 1545.82 Q1403.55 1545.82 1405.35 1542.27 Q1407.18 1538.71 1407.18 1531.6 Q1407.18 1524.47 1405.35 1520.93 Q1403.55 1517.37 1399.91 1517.37 M1399.91 1513.66 Q1405.73 1513.66 1408.78 1518.27 Q1411.86 1522.85 1411.86 1531.6 Q1411.86 1540.33 1408.78 1544.94 Q1405.73 1549.52 1399.91 1549.52 Q1394.1 1549.52 1391.03 1544.94 Q1387.97 1540.33 1387.97 1531.6 Q1387.97 1522.85 1391.03 1518.27 Q1394.1 1513.66 1399.91 1513.66 Z" fill="#000000" fill-rule="nonzero" fill-opacity="1" /><path clip-path="url(#clip050)" d="M1846.47 1544.91 L1854.11 1544.91 L1854.11 1518.55 L1845.8 1520.21 L1845.8 1515.95 L1854.06 1514.29 L1858.74 1514.29 L1858.74 1544.91 L1866.38 1544.91 L1866.38 1548.85 L1846.47 1548.85 L1846.47 1544.91 Z" fill="#000000" fill-rule="nonzero" fill-opacity="1" /><path clip-path="url(#clip050)" d="M2306.91 1544.91 L2323.23 1544.91 L2323.23 1548.85 L2301.29 1548.85 L2301.29 1544.91 Q2303.95 1542.16 2308.53 1537.53 Q2313.14 1532.88 2314.32 1531.53 Q2316.57 1529.01 2317.45 1527.27 Q2318.35 1525.51 2318.35 1523.82 Q2318.35 1521.07 2316.4 1519.33 Q2314.48 1517.6 2311.38 1517.6 Q2309.18 1517.6 2306.73 1518.36 Q2304.3 1519.13 2301.52 1520.68 L2301.52 1515.95 Q2304.34 1514.82 2306.8 1514.24 Q2309.25 1513.66 2311.29 1513.66 Q2316.66 1513.66 2319.85 1516.35 Q2323.05 1519.03 2323.05 1523.52 Q2323.05 1525.65 2322.24 1527.57 Q2321.45 1529.47 2319.34 1532.07 Q2318.77 1532.74 2315.66 1535.95 Q2312.56 1539.15 2306.91 1544.91 Z" fill="#000000" fill-rule="nonzero" fill-opacity="1" /><polyline clip-path="url(#clip050)" style="stroke:#000000; stroke-linecap:round; stroke-linejoin:round; stroke-width:4; stroke-opacity:1; fill:none" points="147.478,1486.45 147.478,47.2441 "/>
<polyline clip-path="url(#clip050)" style="stroke:#000000; stroke-linecap:round; stroke-linejoin:round; stroke-width:4; stroke-opacity:1; fill:none" points="147.478,1386.88 166.376,1386.88 "/>
<polyline clip-path="url(#clip050)" style="stroke:#000000; stroke-linecap:round; stroke-linejoin:round; stroke-width:4; stroke-opacity:1; fill:none" points="147.478,1024.83 166.376,1024.83 "/>
<polyline clip-path="url(#clip050)" style="stroke:#000000; stroke-linecap:round; stroke-linejoin:round; stroke-width:4; stroke-opacity:1; fill:none" points="147.478,662.783 166.376,662.783 "/>
<polyline clip-path="url(#clip050)" style="stroke:#000000; stroke-linecap:round; stroke-linejoin:round; stroke-width:4; stroke-opacity:1; fill:none" points="147.478,300.733 166.376,300.733 "/>
<path clip-path="url(#clip050)" d="M51.3625 1387.33 L81.0383 1387.33 L81.0383 1391.27 L51.3625 1391.27 L51.3625 1387.33 Z" fill="#000000" fill-rule="nonzero" fill-opacity="1" /><path clip-path="url(#clip050)" d="M95.1586 1400.23 L111.478 1400.23 L111.478 1404.16 L89.5336 1404.16 L89.5336 1400.23 Q92.1956 1397.47 96.7789 1392.84 Q101.385 1388.19 102.566 1386.85 Q104.811 1384.32 105.691 1382.59 Q106.594 1380.83 106.594 1379.14 Q106.594 1376.38 104.649 1374.65 Q102.728 1372.91 99.6261 1372.91 Q97.4271 1372.91 94.9734 1373.68 Q92.5428 1374.44 89.7651 1375.99 L89.7651 1371.27 Q92.5891 1370.13 95.0428 1369.56 Q97.4965 1368.98 99.5335 1368.98 Q104.904 1368.98 108.098 1371.66 Q111.293 1374.35 111.293 1378.84 Q111.293 1380.97 110.483 1382.89 Q109.696 1384.79 107.589 1387.38 Q107.01 1388.05 103.909 1391.27 Q100.807 1394.46 95.1586 1400.23 Z" fill="#000000" fill-rule="nonzero" fill-opacity="1" /><path clip-path="url(#clip050)" d="M50.9921 1025.28 L80.6679 1025.28 L80.6679 1029.22 L50.9921 1029.22 L50.9921 1025.28 Z" fill="#000000" fill-rule="nonzero" fill-opacity="1" /><path clip-path="url(#clip050)" d="M91.5706 1038.18 L99.2095 1038.18 L99.2095 1011.81 L90.8993 1013.48 L90.8993 1009.22 L99.1632 1007.55 L103.839 1007.55 L103.839 1038.18 L111.478 1038.18 L111.478 1042.11 L91.5706 1042.11 L91.5706 1038.18 Z" fill="#000000" fill-rule="nonzero" fill-opacity="1" /><path clip-path="url(#clip050)" d="M99.5335 648.581 Q95.9224 648.581 94.0937 652.146 Q92.2882 655.688 92.2882 662.817 Q92.2882 669.924 94.0937 673.489 Q95.9224 677.03 99.5335 677.03 Q103.168 677.03 104.973 673.489 Q106.802 669.924 106.802 662.817 Q106.802 655.688 104.973 652.146 Q103.168 648.581 99.5335 648.581 M99.5335 644.878 Q105.344 644.878 108.399 649.484 Q111.478 654.068 111.478 662.817 Q111.478 671.544 108.399 676.151 Q105.344 680.734 99.5335 680.734 Q93.7234 680.734 90.6447 676.151 Q87.5892 671.544 87.5892 662.817 Q87.5892 654.068 90.6447 649.484 Q93.7234 644.878 99.5335 644.878 Z" fill="#000000" fill-rule="nonzero" fill-opacity="1" /><path clip-path="url(#clip050)" d="M91.5706 314.078 L99.2095 314.078 L99.2095 287.713 L90.8993 289.379 L90.8993 285.12 L99.1632 283.453 L103.839 283.453 L103.839 314.078 L111.478 314.078 L111.478 318.013 L91.5706 318.013 L91.5706 314.078 Z" fill="#000000" fill-rule="nonzero" fill-opacity="1" /><circle clip-path="url(#clip052)" cx="1693.41" cy="619.201" r="14.4" fill="#009af9" fill-rule="evenodd" fill-opacity="0.5" stroke="#000000" stroke-opacity="0.5" stroke-width="3.2"/>
<circle clip-path="url(#clip052)" cx="1221.4" cy="681.467" r="14.4" fill="#009af9" fill-rule="evenodd" fill-opacity="0.5" stroke="#000000" stroke-opacity="0.5" stroke-width="3.2"/>
<circle clip-path="url(#clip052)" cx="1144.94" cy="907.002" r="14.4" fill="#009af9" fill-rule="evenodd" fill-opacity="0.5" stroke="#000000" stroke-opacity="0.5" stroke-width="3.2"/>
<circle clip-path="url(#clip052)" cx="991.199" cy="625.911" r="14.4" fill="#009af9" fill-rule="evenodd" fill-opacity="0.5" stroke="#000000" stroke-opacity="0.5" stroke-width="3.2"/>
<circle clip-path="url(#clip052)" cx="1765.69" cy="360.549" r="14.4" fill="#009af9" fill-rule="evenodd" fill-opacity="0.5" stroke="#000000" stroke-opacity="0.5" stroke-width="3.2"/>
<circle clip-path="url(#clip052)" cx="1053.32" cy="959.32" r="14.4" fill="#009af9" fill-rule="evenodd" fill-opacity="0.5" stroke="#000000" stroke-opacity="0.5" stroke-width="3.2"/>
<circle clip-path="url(#clip052)" cx="2052.92" cy="1021.99" r="14.4" fill="#009af9" fill-rule="evenodd" fill-opacity="0.5" stroke="#000000" stroke-opacity="0.5" stroke-width="3.2"/>
<circle clip-path="url(#clip052)" cx="1247.91" cy="532.142" r="14.4" fill="#009af9" fill-rule="evenodd" fill-opacity="0.5" stroke="#000000" stroke-opacity="0.5" stroke-width="3.2"/>
<circle clip-path="url(#clip052)" cx="849.98" cy="791.731" r="14.4" fill="#009af9" fill-rule="evenodd" fill-opacity="0.5" stroke="#000000" stroke-opacity="0.5" stroke-width="3.2"/>
<circle clip-path="url(#clip052)" cx="1727.31" cy="527.22" r="14.4" fill="#009af9" fill-rule="evenodd" fill-opacity="0.5" stroke="#000000" stroke-opacity="0.5" stroke-width="3.2"/>
<circle clip-path="url(#clip052)" cx="1230.88" cy="574.228" r="14.4" fill="#009af9" fill-rule="evenodd" fill-opacity="0.5" stroke="#000000" stroke-opacity="0.5" stroke-width="3.2"/>
<circle clip-path="url(#clip052)" cx="877.509" cy="819.961" r="14.4" fill="#009af9" fill-rule="evenodd" fill-opacity="0.5" stroke="#000000" stroke-opacity="0.5" stroke-width="3.2"/>
<circle clip-path="url(#clip052)" cx="1205.05" cy="402.108" r="14.4" fill="#009af9" fill-rule="evenodd" fill-opacity="0.5" stroke="#000000" stroke-opacity="0.5" stroke-width="3.2"/>
<circle clip-path="url(#clip052)" cx="1420.32" cy="1394.99" r="14.4" fill="#009af9" fill-rule="evenodd" fill-opacity="0.5" stroke="#000000" stroke-opacity="0.5" stroke-width="3.2"/>
<circle clip-path="url(#clip052)" cx="2225.54" cy="804.557" r="14.4" fill="#009af9" fill-rule="evenodd" fill-opacity="0.5" stroke="#000000" stroke-opacity="0.5" stroke-width="3.2"/>
<circle clip-path="url(#clip052)" cx="209.891" cy="820.805" r="14.4" fill="#009af9" fill-rule="evenodd" fill-opacity="0.5" stroke="#000000" stroke-opacity="0.5" stroke-width="3.2"/>
<circle clip-path="url(#clip052)" cx="931.283" cy="487.729" r="14.4" fill="#009af9" fill-rule="evenodd" fill-opacity="0.5" stroke="#000000" stroke-opacity="0.5" stroke-width="3.2"/>
<circle clip-path="url(#clip052)" cx="2290.34" cy="92.1944" r="14.4" fill="#009af9" fill-rule="evenodd" fill-opacity="0.5" stroke="#000000" stroke-opacity="0.5" stroke-width="3.2"/>
<circle clip-path="url(#clip052)" cx="1444.8" cy="704.932" r="14.4" fill="#009af9" fill-rule="evenodd" fill-opacity="0.5" stroke="#000000" stroke-opacity="0.5" stroke-width="3.2"/>
<circle clip-path="url(#clip052)" cx="1681.67" cy="396.948" r="14.4" fill="#009af9" fill-rule="evenodd" fill-opacity="0.5" stroke="#000000" stroke-opacity="0.5" stroke-width="3.2"/>
<circle clip-path="url(#clip052)" cx="1092.07" cy="1445.72" r="14.4" fill="#009af9" fill-rule="evenodd" fill-opacity="0.5" stroke="#000000" stroke-opacity="0.5" stroke-width="3.2"/>
<circle clip-path="url(#clip052)" cx="1938.07" cy="1286.3" r="14.4" fill="#009af9" fill-rule="evenodd" fill-opacity="0.5" stroke="#000000" stroke-opacity="0.5" stroke-width="3.2"/>
<circle clip-path="url(#clip052)" cx="1585.09" cy="853.633" r="14.4" fill="#009af9" fill-rule="evenodd" fill-opacity="0.5" stroke="#000000" stroke-opacity="0.5" stroke-width="3.2"/>
<circle clip-path="url(#clip052)" cx="1580.9" cy="1112.1" r="14.4" fill="#009af9" fill-rule="evenodd" fill-opacity="0.5" stroke="#000000" stroke-opacity="0.5" stroke-width="3.2"/>
<circle clip-path="url(#clip052)" cx="1068.18" cy="239.903" r="14.4" fill="#009af9" fill-rule="evenodd" fill-opacity="0.5" stroke="#000000" stroke-opacity="0.5" stroke-width="3.2"/>
<circle clip-path="url(#clip052)" cx="1036.02" cy="418.811" r="14.4" fill="#009af9" fill-rule="evenodd" fill-opacity="0.5" stroke="#000000" stroke-opacity="0.5" stroke-width="3.2"/>
<circle clip-path="url(#clip052)" cx="1061.71" cy="699.728" r="14.4" fill="#009af9" fill-rule="evenodd" fill-opacity="0.5" stroke="#000000" stroke-opacity="0.5" stroke-width="3.2"/>
<circle clip-path="url(#clip052)" cx="1393.48" cy="498.031" r="14.4" fill="#009af9" fill-rule="evenodd" fill-opacity="0.5" stroke="#000000" stroke-opacity="0.5" stroke-width="3.2"/>
<circle clip-path="url(#clip052)" cx="865.824" cy="1108.59" r="14.4" fill="#009af9" fill-rule="evenodd" fill-opacity="0.5" stroke="#000000" stroke-opacity="0.5" stroke-width="3.2"/>
<circle clip-path="url(#clip052)" cx="941.149" cy="87.9763" r="14.4" fill="#009af9" fill-rule="evenodd" fill-opacity="0.5" stroke="#000000" stroke-opacity="0.5" stroke-width="3.2"/>
<path clip-path="url(#clip052)" d="M209.891 820.805 L1092.07 1445.72 L1420.32 1394.99 L1938.07 1286.3 L2225.54 804.557 L2290.34 92.1944 L941.149 87.9763 L209.891 820.805 L209.891 820.805  Z" fill="#e26f46" fill-rule="evenodd" fill-opacity="0.2"/>
<polyline clip-path="url(#clip052)" style="stroke:#000000; stroke-linecap:round; stroke-linejoin:round; stroke-width:4; stroke-opacity:0.2; fill:none" points="209.891,820.805 1092.07,1445.72 1420.32,1394.99 1938.07,1286.3 2225.54,804.557 2290.34,92.1944 941.149,87.9763 209.891,820.805 "/>
</svg>
