<?xml version="1.0" encoding="utf-8"?>
<svg xmlns="http://www.w3.org/2000/svg" xmlns:xlink="http://www.w3.org/1999/xlink" width="600" height="400" viewBox="0 0 2400 1600">
<defs>
  <clipPath id="clip990">
    <rect x="0" y="0" width="2400" height="1600"/>
  </clipPath>
</defs>
<path clip-path="url(#clip990)" d="M0 1600 L2400 1600 L2400 0 L0 0  Z" fill="#ffffff" fill-rule="evenodd" fill-opacity="1"/>
<defs>
  <clipPath id="clip991">
    <rect x="480" y="0" width="1681" height="1600"/>
  </clipPath>
</defs>
<path clip-path="url(#clip990)" d="M147.478 1486.45 L2352.76 1486.45 L2352.76 47.2441 L147.478 47.2441  Z" fill="#ffffff" fill-rule="evenodd" fill-opacity="1"/>
<defs>
  <clipPath id="clip992">
    <rect x="147" y="47" width="2206" height="1440"/>
  </clipPath>
</defs>
<polyline clip-path="url(#clip992)" style="stroke:#000000; stroke-linecap:round; stroke-linejoin:round; stroke-width:2; stroke-opacity:0.1; fill:none" points="195.471,1486.45 195.471,47.2441 "/>
<polyline clip-path="url(#clip992)" style="stroke:#000000; stroke-linecap:round; stroke-linejoin:round; stroke-width:2; stroke-opacity:0.1; fill:none" points="669.349,1486.45 669.349,47.2441 "/>
<polyline clip-path="url(#clip992)" style="stroke:#000000; stroke-linecap:round; stroke-linejoin:round; stroke-width:2; stroke-opacity:0.1; fill:none" points="1143.23,1486.45 1143.23,47.2441 "/>
<polyline clip-path="url(#clip992)" style="stroke:#000000; stroke-linecap:round; stroke-linejoin:round; stroke-width:2; stroke-opacity:0.1; fill:none" points="1617.1,1486.45 1617.1,47.2441 "/>
<polyline clip-path="url(#clip992)" style="stroke:#000000; stroke-linecap:round; stroke-linejoin:round; stroke-width:2; stroke-opacity:0.1; fill:none" points="2090.98,1486.45 2090.98,47.2441 "/>
<polyline clip-path="url(#clip992)" style="stroke:#000000; stroke-linecap:round; stroke-linejoin:round; stroke-width:2; stroke-opacity:0.1; fill:none" points="147.478,1260.22 2352.76,1260.22 "/>
<polyline clip-path="url(#clip992)" style="stroke:#000000; stroke-linecap:round; stroke-linejoin:round; stroke-width:2; stroke-opacity:0.1; fill:none" points="147.478,897.298 2352.76,897.298 "/>
<polyline clip-path="url(#clip992)" style="stroke:#000000; stroke-linecap:round; stroke-linejoin:round; stroke-width:2; stroke-opacity:0.1; fill:none" points="147.478,534.376 2352.76,534.376 "/>
<polyline clip-path="url(#clip992)" style="stroke:#000000; stroke-linecap:round; stroke-linejoin:round; stroke-width:2; stroke-opacity:0.1; fill:none" points="147.478,171.455 2352.76,171.455 "/>
<polyline clip-path="url(#clip990)" style="stroke:#000000; stroke-linecap:round; stroke-linejoin:round; stroke-width:4; stroke-opacity:1; fill:none" points="147.478,1486.45 2352.76,1486.45 "/>
<polyline clip-path="url(#clip990)" style="stroke:#000000; stroke-linecap:round; stroke-linejoin:round; stroke-width:4; stroke-opacity:1; fill:none" points="195.471,1486.45 195.471,1467.55 "/>
<polyline clip-path="url(#clip990)" style="stroke:#000000; stroke-linecap:round; stroke-linejoin:round; stroke-width:4; stroke-opacity:1; fill:none" points="669.349,1486.45 669.349,1467.55 "/>
<polyline clip-path="url(#clip990)" style="stroke:#000000; stroke-linecap:round; stroke-linejoin:round; stroke-width:4; stroke-opacity:1; fill:none" points="1143.23,1486.45 1143.23,1467.55 "/>
<polyline clip-path="url(#clip990)" style="stroke:#000000; stroke-linecap:round; stroke-linejoin:round; stroke-width:4; stroke-opacity:1; fill:none" points="1617.1,1486.45 1617.1,1467.55 "/>
<polyline clip-path="url(#clip990)" style="stroke:#000000; stroke-linecap:round; stroke-linejoin:round; stroke-width:4; stroke-opacity:1; fill:none" points="2090.98,1486.45 2090.98,1467.55 "/>
<path clip-path="url(#clip990)" d="M165.414 1532.02 L195.089 1532.02 L195.089 1535.95 L165.414 1535.95 L165.414 1532.02 Z" fill="#000000" fill-rule="nonzero" fill-opacity="1" /><path clip-path="url(#clip990)" d="M209.21 1544.91 L225.529 1544.91 L225.529 1548.85 L203.585 1548.85 L203.585 1544.91 Q206.247 1542.16 210.83 1537.53 Q215.437 1532.88 216.617 1531.53 Q218.862 1529.01 219.742 1527.27 Q220.645 1525.51 220.645 1523.82 Q220.645 1521.07 218.7 1519.33 Q216.779 1517.6 213.677 1517.6 Q211.478 1517.6 209.025 1518.36 Q206.594 1519.13 203.816 1520.68 L203.816 1515.95 Q206.64 1514.82 209.094 1514.24 Q211.548 1513.66 213.585 1513.66 Q218.955 1513.66 222.149 1516.35 Q225.344 1519.03 225.344 1523.52 Q225.344 1525.65 224.534 1527.57 Q223.747 1529.47 221.64 1532.07 Q221.061 1532.74 217.96 1535.95 Q214.858 1539.15 209.21 1544.91 Z" fill="#000000" fill-rule="nonzero" fill-opacity="1" /><path clip-path="url(#clip990)" d="M639.106 1532.02 L668.782 1532.02 L668.782 1535.95 L639.106 1535.95 L639.106 1532.02 Z" fill="#000000" fill-rule="nonzero" fill-opacity="1" /><path clip-path="url(#clip990)" d="M679.684 1544.91 L687.323 1544.91 L687.323 1518.55 L679.013 1520.21 L679.013 1515.95 L687.277 1514.29 L691.953 1514.29 L691.953 1544.91 L699.592 1544.91 L699.592 1548.85 L679.684 1548.85 L679.684 1544.91 Z" fill="#000000" fill-rule="nonzero" fill-opacity="1" /><path clip-path="url(#clip990)" d="M1143.23 1517.37 Q1139.62 1517.37 1137.79 1520.93 Q1135.98 1524.47 1135.98 1531.6 Q1135.98 1538.71 1137.79 1542.27 Q1139.62 1545.82 1143.23 1545.82 Q1146.86 1545.82 1148.67 1542.27 Q1150.49 1538.71 1150.49 1531.6 Q1150.49 1524.47 1148.67 1520.93 Q1146.86 1517.37 1143.23 1517.37 M1143.23 1513.66 Q1149.04 1513.66 1152.09 1518.27 Q1155.17 1522.85 1155.17 1531.6 Q1155.17 1540.33 1152.09 1544.94 Q1149.04 1549.52 1143.23 1549.52 Q1137.42 1549.52 1134.34 1544.94 Q1131.28 1540.33 1131.28 1531.6 Q1131.28 1522.85 1134.34 1518.27 Q1137.42 1513.66 1143.23 1513.66 Z" fill="#000000" fill-rule="nonzero" fill-opacity="1" /><path clip-path="url(#clip990)" d="M1607.49 1544.91 L1615.12 1544.91 L1615.12 1518.55 L1606.81 1520.21 L1606.81 1515.95 L1615.08 1514.29 L1619.75 1514.29 L1619.75 1544.91 L1627.39 1544.91 L1627.39 1548.85 L1607.49 1548.85 L1607.49 1544.91 Z" fill="#000000" fill-rule="nonzero" fill-opacity="1" /><path clip-path="url(#clip990)" d="M2085.63 1544.91 L2101.95 1544.91 L2101.95 1548.85 L2080.01 1548.85 L2080.01 1544.91 Q2082.67 1542.16 2087.25 1537.53 Q2091.86 1532.88 2093.04 1531.53 Q2095.29 1529.01 2096.17 1527.27 Q2097.07 1525.51 2097.07 1523.82 Q2097.07 1521.07 2095.12 1519.33 Q2093.2 1517.6 2090.1 1517.6 Q2087.9 1517.6 2085.45 1518.36 Q2083.02 1519.13 2080.24 1520.68 L2080.24 1515.95 Q2083.06 1514.82 2085.52 1514.24 Q2087.97 1513.66 2090.01 1513.66 Q2095.38 1513.66 2098.57 1516.35 Q2101.77 1519.03 2101.77 1523.52 Q2101.77 1525.65 2100.96 1527.57 Q2100.17 1529.47 2098.06 1532.07 Q2097.49 1532.74 2094.38 1535.95 Q2091.28 1539.15 2085.63 1544.91 Z" fill="#000000" fill-rule="nonzero" fill-opacity="1" /><polyline clip-path="url(#clip990)" style="stroke:#000000; stroke-linecap:round; stroke-linejoin:round; stroke-width:4; stroke-opacity:1; fill:none" points="147.478,1486.45 147.478,47.2441 "/>
<polyline clip-path="url(#clip990)" style="stroke:#000000; stroke-linecap:round; stroke-linejoin:round; stroke-width:4; stroke-opacity:1; fill:none" points="147.478,1260.22 166.376,1260.22 "/>
<polyline clip-path="url(#clip990)" style="stroke:#000000; stroke-linecap:round; stroke-linejoin:round; stroke-width:4; stroke-opacity:1; fill:none" points="147.478,897.298 166.376,897.298 "/>
<polyline clip-path="url(#clip990)" style="stroke:#000000; stroke-linecap:round; stroke-linejoin:round; stroke-width:4; stroke-opacity:1; fill:none" points="147.478,534.376 166.376,534.376 "/>
<polyline clip-path="url(#clip990)" style="stroke:#000000; stroke-linecap:round; stroke-linejoin:round; stroke-width:4; stroke-opacity:1; fill:none" points="147.478,171.455 166.376,171.455 "/>
<path clip-path="url(#clip990)" d="M51.3625 1260.67 L81.0383 1260.67 L81.0383 1264.61 L51.3625 1264.61 L51.3625 1260.67 Z" fill="#000000" fill-rule="nonzero" fill-opacity="1" /><path clip-path="url(#clip990)" d="M95.1586 1273.57 L111.478 1273.57 L111.478 1277.5 L89.5336 1277.5 L89.5336 1273.57 Q92.1956 1270.81 96.7789 1266.18 Q101.385 1261.53 102.566 1260.19 Q104.811 1257.66 105.691 1255.93 Q106.594 1254.17 106.594 1252.48 Q106.594 1249.72 104.649 1247.99 Q102.728 1246.25 99.6261 1246.25 Q97.4271 1246.25 94.9734 1247.01 Q92.5428 1247.78 89.7651 1249.33 L89.7651 1244.61 Q92.5891 1243.47 95.0428 1242.89 Q97.4965 1242.32 99.5335 1242.32 Q104.904 1242.32 108.098 1245 Q111.293 1247.69 111.293 1252.18 Q111.293 1254.31 110.483 1256.23 Q109.696 1258.13 107.589 1260.72 Q107.01 1261.39 103.909 1264.61 Q100.807 1267.8 95.1586 1273.57 Z" fill="#000000" fill-rule="nonzero" fill-opacity="1" /><path clip-path="url(#clip990)" d="M50.9921 897.75 L80.6679 897.75 L80.6679 901.685 L50.9921 901.685 L50.9921 897.75 Z" fill="#000000" fill-rule="nonzero" fill-opacity="1" /><path clip-path="url(#clip990)" d="M91.5706 910.643 L99.2095 910.643 L99.2095 884.278 L90.8993 885.944 L90.8993 881.685 L99.1632 880.018 L103.839 880.018 L103.839 910.643 L111.478 910.643 L111.478 914.578 L91.5706 914.578 L91.5706 910.643 Z" fill="#000000" fill-rule="nonzero" fill-opacity="1" /><path clip-path="url(#clip990)" d="M99.5335 520.175 Q95.9224 520.175 94.0937 523.74 Q92.2882 527.282 92.2882 534.411 Q92.2882 541.518 94.0937 545.082 Q95.9224 548.624 99.5335 548.624 Q103.168 548.624 104.973 545.082 Q106.802 541.518 106.802 534.411 Q106.802 527.282 104.973 523.74 Q103.168 520.175 99.5335 520.175 M99.5335 516.471 Q105.344 516.471 108.399 521.078 Q111.478 525.661 111.478 534.411 Q111.478 543.138 108.399 547.744 Q105.344 552.328 99.5335 552.328 Q93.7234 552.328 90.6447 547.744 Q87.5892 543.138 87.5892 534.411 Q87.5892 525.661 90.6447 521.078 Q93.7234 516.471 99.5335 516.471 Z" fill="#000000" fill-rule="nonzero" fill-opacity="1" /><path clip-path="url(#clip990)" d="M91.5706 184.799 L99.2095 184.799 L99.2095 158.434 L90.8993 160.101 L90.8993 155.841 L99.1632 154.175 L103.839 154.175 L103.839 184.799 L111.478 184.799 L111.478 188.735 L91.5706 188.735 L91.5706 184.799 Z" fill="#000000" fill-rule="nonzero" fill-opacity="1" /><circle clip-path="url(#clip992)" cx="1031.86" cy="676.256" r="14.4" fill="#009af9" fill-rule="evenodd" fill-opacity="0.5" stroke="#000000" stroke-opacity="0.5" stroke-width="3.2"/>
<circle clip-path="url(#clip992)" cx="1387.25" cy="1069.94" r="14.4" fill="#009af9" fill-rule="evenodd" fill-opacity="0.5" stroke="#000000" stroke-opacity="0.5" stroke-width="3.2"/>
<circle clip-path="url(#clip992)" cx="2115.99" cy="770.694" r="14.4" fill="#009af9" fill-rule="evenodd" fill-opacity="0.5" stroke="#000000" stroke-opacity="0.5" stroke-width="3.2"/>
<circle clip-path="url(#clip992)" cx="968.448" cy="87.9763" r="14.4" fill="#009af9" fill-rule="evenodd" fill-opacity="0.5" stroke="#000000" stroke-opacity="0.5" stroke-width="3.2"/>
<circle clip-path="url(#clip992)" cx="1516.75" cy="1039.38" r="14.4" fill="#009af9" fill-rule="evenodd" fill-opacity="0.5" stroke="#000000" stroke-opacity="0.5" stroke-width="3.2"/>
<circle clip-path="url(#clip992)" cx="983.3" cy="550.369" r="14.4" fill="#009af9" fill-rule="evenodd" fill-opacity="0.5" stroke="#000000" stroke-opacity="0.5" stroke-width="3.2"/>
<circle clip-path="url(#clip992)" cx="1125.59" cy="546.971" r="14.4" fill="#009af9" fill-rule="evenodd" fill-opacity="0.5" stroke="#000000" stroke-opacity="0.5" stroke-width="3.2"/>
<circle clip-path="url(#clip992)" cx="1189.69" cy="600.924" r="14.4" fill="#009af9" fill-rule="evenodd" fill-opacity="0.5" stroke="#000000" stroke-opacity="0.5" stroke-width="3.2"/>
<circle clip-path="url(#clip992)" cx="869.677" cy="820.445" r="14.4" fill="#009af9" fill-rule="evenodd" fill-opacity="0.5" stroke="#000000" stroke-opacity="0.5" stroke-width="3.2"/>
<circle clip-path="url(#clip992)" cx="1122.33" cy="462.765" r="14.4" fill="#009af9" fill-rule="evenodd" fill-opacity="0.5" stroke="#000000" stroke-opacity="0.5" stroke-width="3.2"/>
<circle clip-path="url(#clip992)" cx="980.137" cy="251.201" r="14.4" fill="#009af9" fill-rule="evenodd" fill-opacity="0.5" stroke="#000000" stroke-opacity="0.5" stroke-width="3.2"/>
<circle clip-path="url(#clip992)" cx="842.221" cy="807.778" r="14.4" fill="#009af9" fill-rule="evenodd" fill-opacity="0.5" stroke="#000000" stroke-opacity="0.5" stroke-width="3.2"/>
<circle clip-path="url(#clip992)" cx="603.536" cy="1207.69" r="14.4" fill="#009af9" fill-rule="evenodd" fill-opacity="0.5" stroke="#000000" stroke-opacity="0.5" stroke-width="3.2"/>
<circle clip-path="url(#clip992)" cx="882.988" cy="659.756" r="14.4" fill="#009af9" fill-rule="evenodd" fill-opacity="0.5" stroke="#000000" stroke-opacity="0.5" stroke-width="3.2"/>
<circle clip-path="url(#clip992)" cx="739.546" cy="410.433" r="14.4" fill="#009af9" fill-rule="evenodd" fill-opacity="0.5" stroke="#000000" stroke-opacity="0.5" stroke-width="3.2"/>
<circle clip-path="url(#clip992)" cx="1354.14" cy="1445.72" r="14.4" fill="#009af9" fill-rule="evenodd" fill-opacity="0.5" stroke="#000000" stroke-opacity="0.5" stroke-width="3.2"/>
<circle clip-path="url(#clip992)" cx="1427.11" cy="986.176" r="14.4" fill="#009af9" fill-rule="evenodd" fill-opacity="0.5" stroke="#000000" stroke-opacity="0.5" stroke-width="3.2"/>
<circle clip-path="url(#clip992)" cx="1193.04" cy="866.931" r="14.4" fill="#009af9" fill-rule="evenodd" fill-opacity="0.5" stroke="#000000" stroke-opacity="0.5" stroke-width="3.2"/>
<circle clip-path="url(#clip992)" cx="1558.37" cy="289.102" r="14.4" fill="#009af9" fill-rule="evenodd" fill-opacity="0.5" stroke="#000000" stroke-opacity="0.5" stroke-width="3.2"/>
<circle clip-path="url(#clip992)" cx="856.258" cy="147.757" r="14.4" fill="#009af9" fill-rule="evenodd" fill-opacity="0.5" stroke="#000000" stroke-opacity="0.5" stroke-width="3.2"/>
<circle clip-path="url(#clip992)" cx="809.605" cy="184.57" r="14.4" fill="#009af9" fill-rule="evenodd" fill-opacity="0.5" stroke="#000000" stroke-opacity="0.5" stroke-width="3.2"/>
<circle clip-path="url(#clip992)" cx="1498.37" cy="125.769" r="14.4" fill="#009af9" fill-rule="evenodd" fill-opacity="0.5" stroke="#000000" stroke-opacity="0.5" stroke-width="3.2"/>
<circle clip-path="url(#clip992)" cx="1535.97" cy="703.184" r="14.4" fill="#009af9" fill-rule="evenodd" fill-opacity="0.5" stroke="#000000" stroke-opacity="0.5" stroke-width="3.2"/>
<circle clip-path="url(#clip992)" cx="1173.78" cy="714.656" r="14.4" fill="#009af9" fill-rule="evenodd" fill-opacity="0.5" stroke="#000000" stroke-opacity="0.5" stroke-width="3.2"/>
<circle clip-path="url(#clip992)" cx="1464.17" cy="467.017" r="14.4" fill="#009af9" fill-rule="evenodd" fill-opacity="0.5" stroke="#000000" stroke-opacity="0.5" stroke-width="3.2"/>
<circle clip-path="url(#clip992)" cx="1852.66" cy="649.662" r="14.4" fill="#009af9" fill-rule="evenodd" fill-opacity="0.5" stroke="#000000" stroke-opacity="0.5" stroke-width="3.2"/>
<circle clip-path="url(#clip992)" cx="2290.34" cy="927.445" r="14.4" fill="#009af9" fill-rule="evenodd" fill-opacity="0.5" stroke="#000000" stroke-opacity="0.5" stroke-width="3.2"/>
<circle clip-path="url(#clip992)" cx="209.891" cy="570.895" r="14.4" fill="#009af9" fill-rule="evenodd" fill-opacity="0.5" stroke="#000000" stroke-opacity="0.5" stroke-width="3.2"/>
<circle clip-path="url(#clip992)" cx="981.543" cy="341.062" r="14.4" fill="#009af9" fill-rule="evenodd" fill-opacity="0.5" stroke="#000000" stroke-opacity="0.5" stroke-width="3.2"/>
<circle clip-path="url(#clip992)" cx="1857.52" cy="791.034" r="14.4" fill="#009af9" fill-rule="evenodd" fill-opacity="0.5" stroke="#000000" stroke-opacity="0.5" stroke-width="3.2"/>
<path clip-path="url(#clip992)" d="M209.891 570.895 L603.536 1207.69 L1354.14 1445.72 L2290.34 927.445 L1498.37 125.769 L968.448 87.9763 L856.258 147.757 L209.891 570.895 L209.891 570.895  Z" fill="#e26f46" fill-rule="evenodd" fill-opacity="0.2"/>
<polyline clip-path="url(#clip992)" style="stroke:#000000; stroke-linecap:round; stroke-linejoin:round; stroke-width:4; stroke-opacity:0.2; fill:none" points="209.891,570.895 603.536,1207.69 1354.14,1445.72 2290.34,927.445 1498.37,125.769 968.448,87.9763 856.258,147.757 209.891,570.895 "/>
</svg>
