<?xml version="1.0" encoding="UTF-8" standalone="no"?>
<svg
   xmlns:dc="http://purl.org/dc/elements/1.1/"
   xmlns:cc="http://creativecommons.org/ns#"
   xmlns:rdf="http://www.w3.org/1999/02/22-rdf-syntax-ns#"
   xmlns:svg="http://www.w3.org/2000/svg"
   xmlns="http://www.w3.org/2000/svg"
   xmlns:xlink="http://www.w3.org/1999/xlink"
   xmlns:sodipodi="http://sodipodi.sourceforge.net/DTD/sodipodi-0.dtd"
   xmlns:inkscape="http://www.inkscape.org/namespaces/inkscape"
   version="1.1"
   x="0"
   y="0"
   width="88.337585"
   height="87.590332"
   viewBox="0 0 88.337585 87.590332"
   id="svg2"
   inkscape:version="0.91 r13725"
   sodipodi:docname="threeballs.svg">
  <metadata
     id="metadata27">
    <rdf:RDF>
      <cc:Work
         rdf:about="">
        <dc:format>image/svg+xml</dc:format>
        <dc:type
           rdf:resource="http://purl.org/dc/dcmitype/StillImage" />
        <dc:title></dc:title>
      </cc:Work>
    </rdf:RDF>
  </metadata>
  <defs
     id="defs25">
    <marker
       inkscape:isstock="true"
       style="overflow:visible"
       id="marker7190"
       refX="0"
       refY="0"
       orient="auto"
       inkscape:stockid="Arrow1Lend">
      <path
         transform="matrix(-0.8,0,0,-0.8,-10,0)"
         style="fill:#000000;fill-opacity:1;fill-rule:evenodd;stroke:#000000;stroke-width:1pt;stroke-opacity:1"
         d="M 0,0 5,-5 -12.5,0 5,5 0,0 Z"
         id="path7192"
         inkscape:connector-curvature="0" />
    </marker>
    <linearGradient
       inkscape:collect="always"
       id="linearGradient6932">
      <stop
         style="stop-color:#000000;stop-opacity:1;"
         offset="0"
         id="stop6934" />
      <stop
         style="stop-color:#000000;stop-opacity:0;"
         offset="1"
         id="stop6936" />
    </linearGradient>
    <marker
       inkscape:stockid="TriangleOutM"
       orient="auto"
       refY="0"
       refX="0"
       id="TriangleOutM"
       style="overflow:visible"
       inkscape:isstock="true">
      <path
         id="path4322"
         d="m 5.77,0 -8.65,5 0,-10 8.65,5 z"
         style="fill:#000000;fill-opacity:1;fill-rule:evenodd;stroke:#000000;stroke-width:1pt;stroke-opacity:1"
         transform="scale(0.4,0.4)"
         inkscape:connector-curvature="0" />
    </marker>
    <marker
       inkscape:stockid="Arrow2Lend"
       orient="auto"
       refY="0"
       refX="0"
       id="marker4757"
       style="overflow:visible"
       inkscape:isstock="true">
      <path
         id="path4759"
         style="fill:#000000;fill-opacity:1;fill-rule:evenodd;stroke:#000000;stroke-width:0.625;stroke-linejoin:round;stroke-opacity:1"
         d="M 8.7185878,4.0337352 -2.2072895,0.01601326 8.7185884,-4.0017078 c -1.7454984,2.3720609 -1.7354408,5.6174519 -6e-7,8.035443 z"
         transform="matrix(-1.1,0,0,-1.1,-1.1,0)"
         inkscape:connector-curvature="0" />
    </marker>
    <marker
       inkscape:stockid="Arrow2Lend"
       orient="auto"
       refY="0"
       refX="0"
       id="marker4717"
       style="overflow:visible"
       inkscape:isstock="true">
      <path
         id="path4719"
         style="fill:#000000;fill-opacity:1;fill-rule:evenodd;stroke:#000000;stroke-width:0.625;stroke-linejoin:round;stroke-opacity:1"
         d="M 8.7185878,4.0337352 -2.2072895,0.01601326 8.7185884,-4.0017078 c -1.7454984,2.3720609 -1.7354408,5.6174519 -6e-7,8.035443 z"
         transform="matrix(-1.1,0,0,-1.1,-1.1,0)"
         inkscape:connector-curvature="0" />
    </marker>
    <marker
       inkscape:stockid="Arrow2Lend"
       orient="auto"
       refY="0"
       refX="0"
       id="marker4683"
       style="overflow:visible"
       inkscape:isstock="true">
      <path
         id="path4685"
         style="fill:#000000;fill-opacity:1;fill-rule:evenodd;stroke:#000000;stroke-width:0.625;stroke-linejoin:round;stroke-opacity:1"
         d="M 8.7185878,4.0337352 -2.2072895,0.01601326 8.7185884,-4.0017078 c -1.7454984,2.3720609 -1.7354408,5.6174519 -6e-7,8.035443 z"
         transform="matrix(-1.1,0,0,-1.1,-1.1,0)"
         inkscape:connector-curvature="0" />
    </marker>
    <marker
       inkscape:stockid="Arrow2Lend"
       orient="auto"
       refY="0"
       refX="0"
       id="Arrow2Lend"
       style="overflow:visible"
       inkscape:isstock="true">
      <path
         id="path4198"
         style="fill:#000000;fill-opacity:1;fill-rule:evenodd;stroke:#000000;stroke-width:0.625;stroke-linejoin:round;stroke-opacity:1"
         d="M 8.7185878,4.0337352 -2.2072895,0.01601326 8.7185884,-4.0017078 c -1.7454984,2.3720609 -1.7354408,5.6174519 -6e-7,8.035443 z"
         transform="matrix(-1.1,0,0,-1.1,-1.1,0)"
         inkscape:connector-curvature="0" />
    </marker>
    <marker
       inkscape:stockid="Arrow1Lend"
       orient="auto"
       refY="0"
       refX="0"
       id="Arrow1Lend"
       style="overflow:visible"
       inkscape:isstock="true">
      <path
         id="path4180"
         d="M 0,0 5,-5 -12.5,0 5,5 0,0 Z"
         style="fill:#000000;fill-opacity:1;fill-rule:evenodd;stroke:#000000;stroke-width:1pt;stroke-opacity:1"
         transform="matrix(-0.8,0,0,-0.8,-10,0)"
         inkscape:connector-curvature="0" />
    </marker>
    <linearGradient
       inkscape:collect="always"
       xlink:href="#linearGradient6932"
       id="linearGradient6938"
       x1="3.5489025"
       y1="59.097538"
       x2="82.955109"
       y2="59.097538"
       gradientUnits="userSpaceOnUse" />
  </defs>
  <sodipodi:namedview
     pagecolor="#ffffff"
     bordercolor="#666666"
     borderopacity="1"
     objecttolerance="10"
     gridtolerance="10"
     guidetolerance="10"
     inkscape:pageopacity="0"
     inkscape:pageshadow="2"
     inkscape:window-width="1025"
     inkscape:window-height="681"
     id="namedview23"
     showgrid="false"
     fit-margin-top="0"
     fit-margin-left="0"
     fit-margin-right="0"
     fit-margin-bottom="0"
     inkscape:zoom="3.337544"
     inkscape:cx="55.281696"
     inkscape:cy="57.333425"
     inkscape:window-x="0"
     inkscape:window-y="0"
     inkscape:window-maximized="0"
     inkscape:current-layer="svg2" />
  <g
     id="g7838"
     transform="translate(-6.2549411,-8.111618)">
    <g
       id="Layer_1">
      <g
         id="g5">
        <path
           id="path7"
           d="m 30.75,84.209 c -8.836,0 -16,-7.163 -16,-16 0,-8.836 7.164,-16 16,-16 8.837,0 16,7.164 16,16 0,8.837 -7.163,16 -16,16 z"
           inkscape:connector-curvature="0"
           style="fill:#d5635c" />
        <path
           id="path9"
           d="m 30.75,50.709 c 9.665,0 17.5,7.835 17.5,17.5 0,9.665 -7.835,17.5 -17.5,17.5 -9.665,0 -17.5,-7.835 -17.5,-17.5 0,-9.665 7.835,-17.5 17.5,-17.5 z m 0,3 c -8.008,0 -14.5,6.492 -14.5,14.5 0,8.009 6.492,14.5 14.5,14.5 8.008,0 14.5,-6.491 14.5,-14.5 0,-8.008 -6.492,-14.5 -14.5,-14.5 z"
           inkscape:connector-curvature="0"
           style="fill:#cb3c33" />
      </g>
      <g
         id="g11">
        <path
           id="path13"
           d="m 72.799,84.209 c -8.837,0 -16,-7.163 -16,-16 0,-8.836 7.163,-16 16,-16 8.836,0 16,7.164 16,16 0,8.837 -7.164,16 -16,16 z"
           inkscape:connector-curvature="0"
           style="fill:#aa79c1" />
        <path
           id="path15"
           d="m 72.799,50.709 c 9.665,0 17.5,7.835 17.5,17.5 0,9.665 -7.835,17.5 -17.5,17.5 -9.665,0 -17.5,-7.835 -17.5,-17.5 0,-9.665 7.835,-17.5 17.5,-17.5 z m 0,3 c -8.008,0 -14.5,6.492 -14.5,14.5 0,8.009 6.492,14.5 14.5,14.5 8.008,0 14.5,-6.491 14.5,-14.5 0,-8.008 -6.492,-14.5 -14.5,-14.5 z"
           inkscape:connector-curvature="0"
           style="fill:#9558b2" />
      </g>
      <g
         id="g17">
        <path
           id="path19"
           d="m 51.777,47.791 c -8.837,0 -16,-7.164 -16,-16 0,-8.837 7.163,-16 16,-16 8.836,0 16,7.163 16,16 0,8.836 -7.164,16 -16,16 z"
           inkscape:connector-curvature="0"
           style="fill:#60ad51" />
        <path
           id="path21"
           d="m 51.776,14.291 c 9.666,0 17.501,7.835 17.501,17.5 0,9.665 -7.835,17.5 -17.5,17.5 -9.665,0 -17.5,-7.835 -17.5,-17.5 0,-9.665 7.835,-17.5 17.5,-17.5 z m 0,3 c -8.007,0 -14.499,6.492 -14.499,14.5 0,8.008 6.492,14.5 14.5,14.5 8.008,0 14.5,-6.492 14.5,-14.5 0,-8.008 -6.492,-14.5 -14.5,-14.5 z"
           inkscape:connector-curvature="0"
           style="fill:#389826" />
      </g>
    </g>
    <rect
       transform="matrix(0.98797253,-0.15462952,0.13015666,0.99149344,0,0)"
       y="21.675598"
       x="4.105927"
       height="74.84388"
       width="78.29216"
       id="rect3355"
       style="opacity:0.26499999;fill:url(#linearGradient6938);fill-opacity:1;fill-rule:evenodd;stroke:#000000;stroke-width:1.1140492px;stroke-linecap:butt;stroke-linejoin:miter;stroke-opacity:1" />
  </g>
</svg>
