<?xml version="1.0" encoding="utf-8"?>
<svg xmlns="http://www.w3.org/2000/svg" xmlns:xlink="http://www.w3.org/1999/xlink" width="600" height="400" viewBox="0 0 2400 1600">
<defs>
  <clipPath id="clip020">
    <rect x="0" y="0" width="2400" height="1600"/>
  </clipPath>
</defs>
<path clip-path="url(#clip020)" d="M0 1600 L2400 1600 L2400 0 L0 0  Z" fill="#ffffff" fill-rule="evenodd" fill-opacity="1"/>
<defs>
  <clipPath id="clip021">
    <rect x="480" y="0" width="1681" height="1600"/>
  </clipPath>
</defs>
<path clip-path="url(#clip020)" d="M147.478 1486.45 L2352.76 1486.45 L2352.76 47.2441 L147.478 47.2441  Z" fill="#ffffff" fill-rule="evenodd" fill-opacity="1"/>
<defs>
  <clipPath id="clip022">
    <rect x="147" y="47" width="2206" height="1440"/>
  </clipPath>
</defs>
<polyline clip-path="url(#clip022)" style="stroke:#000000; stroke-linecap:round; stroke-linejoin:round; stroke-width:2; stroke-opacity:0.1; fill:none" points="344.351,1486.45 344.351,47.2441 "/>
<polyline clip-path="url(#clip022)" style="stroke:#000000; stroke-linecap:round; stroke-linejoin:round; stroke-width:2; stroke-opacity:0.1; fill:none" points="854.64,1486.45 854.64,47.2441 "/>
<polyline clip-path="url(#clip022)" style="stroke:#000000; stroke-linecap:round; stroke-linejoin:round; stroke-width:2; stroke-opacity:0.1; fill:none" points="1364.93,1486.45 1364.93,47.2441 "/>
<polyline clip-path="url(#clip022)" style="stroke:#000000; stroke-linecap:round; stroke-linejoin:round; stroke-width:2; stroke-opacity:0.1; fill:none" points="1875.22,1486.45 1875.22,47.2441 "/>
<polyline clip-path="url(#clip022)" style="stroke:#000000; stroke-linecap:round; stroke-linejoin:round; stroke-width:2; stroke-opacity:0.1; fill:none" points="147.478,1444.91 2352.76,1444.91 "/>
<polyline clip-path="url(#clip022)" style="stroke:#000000; stroke-linecap:round; stroke-linejoin:round; stroke-width:2; stroke-opacity:0.1; fill:none" points="147.478,1050.82 2352.76,1050.82 "/>
<polyline clip-path="url(#clip022)" style="stroke:#000000; stroke-linecap:round; stroke-linejoin:round; stroke-width:2; stroke-opacity:0.1; fill:none" points="147.478,656.719 2352.76,656.719 "/>
<polyline clip-path="url(#clip022)" style="stroke:#000000; stroke-linecap:round; stroke-linejoin:round; stroke-width:2; stroke-opacity:0.1; fill:none" points="147.478,262.623 2352.76,262.623 "/>
<polyline clip-path="url(#clip020)" style="stroke:#000000; stroke-linecap:round; stroke-linejoin:round; stroke-width:4; stroke-opacity:1; fill:none" points="147.478,1486.45 2352.76,1486.45 "/>
<polyline clip-path="url(#clip020)" style="stroke:#000000; stroke-linecap:round; stroke-linejoin:round; stroke-width:4; stroke-opacity:1; fill:none" points="344.351,1486.45 344.351,1467.55 "/>
<polyline clip-path="url(#clip020)" style="stroke:#000000; stroke-linecap:round; stroke-linejoin:round; stroke-width:4; stroke-opacity:1; fill:none" points="854.64,1486.45 854.64,1467.55 "/>
<polyline clip-path="url(#clip020)" style="stroke:#000000; stroke-linecap:round; stroke-linejoin:round; stroke-width:4; stroke-opacity:1; fill:none" points="1364.93,1486.45 1364.93,1467.55 "/>
<polyline clip-path="url(#clip020)" style="stroke:#000000; stroke-linecap:round; stroke-linejoin:round; stroke-width:4; stroke-opacity:1; fill:none" points="1875.22,1486.45 1875.22,1467.55 "/>
<path clip-path="url(#clip020)" d="M314.108 1532.02 L343.784 1532.02 L343.784 1535.95 L314.108 1535.95 L314.108 1532.02 Z" fill="#000000" fill-rule="nonzero" fill-opacity="1" /><path clip-path="url(#clip020)" d="M354.687 1544.91 L362.326 1544.91 L362.326 1518.55 L354.016 1520.21 L354.016 1515.95 L362.279 1514.29 L366.955 1514.29 L366.955 1544.91 L374.594 1544.91 L374.594 1548.85 L354.687 1548.85 L354.687 1544.91 Z" fill="#000000" fill-rule="nonzero" fill-opacity="1" /><path clip-path="url(#clip020)" d="M854.64 1517.37 Q851.029 1517.37 849.2 1520.93 Q847.395 1524.47 847.395 1531.6 Q847.395 1538.71 849.2 1542.27 Q851.029 1545.82 854.64 1545.82 Q858.274 1545.82 860.08 1542.27 Q861.908 1538.71 861.908 1531.6 Q861.908 1524.47 860.08 1520.93 Q858.274 1517.37 854.64 1517.37 M854.64 1513.66 Q860.45 1513.66 863.506 1518.27 Q866.584 1522.85 866.584 1531.6 Q866.584 1540.33 863.506 1544.94 Q860.45 1549.52 854.64 1549.52 Q848.83 1549.52 845.751 1544.94 Q842.696 1540.33 842.696 1531.6 Q842.696 1522.85 845.751 1518.27 Q848.83 1513.66 854.64 1513.66 Z" fill="#000000" fill-rule="nonzero" fill-opacity="1" /><path clip-path="url(#clip020)" d="M1355.31 1544.91 L1362.95 1544.91 L1362.95 1518.55 L1354.64 1520.21 L1354.64 1515.95 L1362.9 1514.29 L1367.58 1514.29 L1367.58 1544.91 L1375.22 1544.91 L1375.22 1548.85 L1355.31 1548.85 L1355.31 1544.91 Z" fill="#000000" fill-rule="nonzero" fill-opacity="1" /><path clip-path="url(#clip020)" d="M1869.87 1544.91 L1886.19 1544.91 L1886.19 1548.85 L1864.25 1548.85 L1864.25 1544.91 Q1866.91 1542.16 1871.49 1537.53 Q1876.1 1532.88 1877.28 1531.53 Q1879.52 1529.01 1880.4 1527.27 Q1881.31 1525.51 1881.31 1523.82 Q1881.31 1521.07 1879.36 1519.33 Q1877.44 1517.6 1874.34 1517.6 Q1872.14 1517.6 1869.69 1518.36 Q1867.25 1519.13 1864.48 1520.68 L1864.48 1515.95 Q1867.3 1514.82 1869.75 1514.24 Q1872.21 1513.66 1874.25 1513.66 Q1879.62 1513.66 1882.81 1516.35 Q1886 1519.03 1886 1523.52 Q1886 1525.65 1885.19 1527.57 Q1884.41 1529.47 1882.3 1532.07 Q1881.72 1532.74 1878.62 1535.95 Q1875.52 1539.15 1869.87 1544.91 Z" fill="#000000" fill-rule="nonzero" fill-opacity="1" /><polyline clip-path="url(#clip020)" style="stroke:#000000; stroke-linecap:round; stroke-linejoin:round; stroke-width:4; stroke-opacity:1; fill:none" points="147.478,1486.45 147.478,47.2441 "/>
<polyline clip-path="url(#clip020)" style="stroke:#000000; stroke-linecap:round; stroke-linejoin:round; stroke-width:4; stroke-opacity:1; fill:none" points="147.478,1444.91 166.376,1444.91 "/>
<polyline clip-path="url(#clip020)" style="stroke:#000000; stroke-linecap:round; stroke-linejoin:round; stroke-width:4; stroke-opacity:1; fill:none" points="147.478,1050.82 166.376,1050.82 "/>
<polyline clip-path="url(#clip020)" style="stroke:#000000; stroke-linecap:round; stroke-linejoin:round; stroke-width:4; stroke-opacity:1; fill:none" points="147.478,656.719 166.376,656.719 "/>
<polyline clip-path="url(#clip020)" style="stroke:#000000; stroke-linecap:round; stroke-linejoin:round; stroke-width:4; stroke-opacity:1; fill:none" points="147.478,262.623 166.376,262.623 "/>
<path clip-path="url(#clip020)" d="M51.3625 1445.36 L81.0383 1445.36 L81.0383 1449.3 L51.3625 1449.3 L51.3625 1445.36 Z" fill="#000000" fill-rule="nonzero" fill-opacity="1" /><path clip-path="url(#clip020)" d="M95.1586 1458.26 L111.478 1458.26 L111.478 1462.19 L89.5336 1462.19 L89.5336 1458.26 Q92.1956 1455.5 96.7789 1450.87 Q101.385 1446.22 102.566 1444.88 Q104.811 1442.36 105.691 1440.62 Q106.594 1438.86 106.594 1437.17 Q106.594 1434.42 104.649 1432.68 Q102.728 1430.94 99.6261 1430.94 Q97.4271 1430.94 94.9734 1431.71 Q92.5428 1432.47 89.7651 1434.02 L89.7651 1429.3 Q92.5891 1428.17 95.0428 1427.59 Q97.4965 1427.01 99.5335 1427.01 Q104.904 1427.01 108.098 1429.69 Q111.293 1432.38 111.293 1436.87 Q111.293 1439 110.483 1440.92 Q109.696 1442.82 107.589 1445.41 Q107.01 1446.08 103.909 1449.3 Q100.807 1452.49 95.1586 1458.26 Z" fill="#000000" fill-rule="nonzero" fill-opacity="1" /><path clip-path="url(#clip020)" d="M50.9921 1051.27 L80.6679 1051.27 L80.6679 1055.2 L50.9921 1055.2 L50.9921 1051.27 Z" fill="#000000" fill-rule="nonzero" fill-opacity="1" /><path clip-path="url(#clip020)" d="M91.5706 1064.16 L99.2095 1064.16 L99.2095 1037.8 L90.8993 1039.46 L90.8993 1035.2 L99.1632 1033.54 L103.839 1033.54 L103.839 1064.16 L111.478 1064.16 L111.478 1068.1 L91.5706 1068.1 L91.5706 1064.16 Z" fill="#000000" fill-rule="nonzero" fill-opacity="1" /><path clip-path="url(#clip020)" d="M99.5335 642.518 Q95.9224 642.518 94.0937 646.083 Q92.2882 649.625 92.2882 656.754 Q92.2882 663.861 94.0937 667.425 Q95.9224 670.967 99.5335 670.967 Q103.168 670.967 104.973 667.425 Q106.802 663.861 106.802 656.754 Q106.802 649.625 104.973 646.083 Q103.168 642.518 99.5335 642.518 M99.5335 638.814 Q105.344 638.814 108.399 643.421 Q111.478 648.004 111.478 656.754 Q111.478 665.481 108.399 670.087 Q105.344 674.671 99.5335 674.671 Q93.7234 674.671 90.6447 670.087 Q87.5892 665.481 87.5892 656.754 Q87.5892 648.004 90.6447 643.421 Q93.7234 638.814 99.5335 638.814 Z" fill="#000000" fill-rule="nonzero" fill-opacity="1" /><path clip-path="url(#clip020)" d="M91.5706 275.967 L99.2095 275.967 L99.2095 249.602 L90.8993 251.268 L90.8993 247.009 L99.1632 245.343 L103.839 245.343 L103.839 275.967 L111.478 275.967 L111.478 279.903 L91.5706 279.903 L91.5706 275.967 Z" fill="#000000" fill-rule="nonzero" fill-opacity="1" /><circle clip-path="url(#clip022)" cx="1151" cy="654.468" r="14.4" fill="#009af9" fill-rule="evenodd" fill-opacity="0.5" stroke="#000000" stroke-opacity="0.5" stroke-width="3.2"/>
<circle clip-path="url(#clip022)" cx="1141.17" cy="884.637" r="14.4" fill="#009af9" fill-rule="evenodd" fill-opacity="0.5" stroke="#000000" stroke-opacity="0.5" stroke-width="3.2"/>
<circle clip-path="url(#clip022)" cx="444.664" cy="915.295" r="14.4" fill="#009af9" fill-rule="evenodd" fill-opacity="0.5" stroke="#000000" stroke-opacity="0.5" stroke-width="3.2"/>
<circle clip-path="url(#clip022)" cx="586.412" cy="907.295" r="14.4" fill="#009af9" fill-rule="evenodd" fill-opacity="0.5" stroke="#000000" stroke-opacity="0.5" stroke-width="3.2"/>
<circle clip-path="url(#clip022)" cx="492.902" cy="161.159" r="14.4" fill="#009af9" fill-rule="evenodd" fill-opacity="0.5" stroke="#000000" stroke-opacity="0.5" stroke-width="3.2"/>
<circle clip-path="url(#clip022)" cx="1230.58" cy="594.702" r="14.4" fill="#009af9" fill-rule="evenodd" fill-opacity="0.5" stroke="#000000" stroke-opacity="0.5" stroke-width="3.2"/>
<circle clip-path="url(#clip022)" cx="649.871" cy="1445.72" r="14.4" fill="#009af9" fill-rule="evenodd" fill-opacity="0.5" stroke="#000000" stroke-opacity="0.5" stroke-width="3.2"/>
<circle clip-path="url(#clip022)" cx="565.41" cy="731.124" r="14.4" fill="#009af9" fill-rule="evenodd" fill-opacity="0.5" stroke="#000000" stroke-opacity="0.5" stroke-width="3.2"/>
<circle clip-path="url(#clip022)" cx="781.63" cy="822.456" r="14.4" fill="#009af9" fill-rule="evenodd" fill-opacity="0.5" stroke="#000000" stroke-opacity="0.5" stroke-width="3.2"/>
<circle clip-path="url(#clip022)" cx="841.932" cy="662.362" r="14.4" fill="#009af9" fill-rule="evenodd" fill-opacity="0.5" stroke="#000000" stroke-opacity="0.5" stroke-width="3.2"/>
<circle clip-path="url(#clip022)" cx="740.861" cy="1018.97" r="14.4" fill="#009af9" fill-rule="evenodd" fill-opacity="0.5" stroke="#000000" stroke-opacity="0.5" stroke-width="3.2"/>
<circle clip-path="url(#clip022)" cx="425.172" cy="867.052" r="14.4" fill="#009af9" fill-rule="evenodd" fill-opacity="0.5" stroke="#000000" stroke-opacity="0.5" stroke-width="3.2"/>
<circle clip-path="url(#clip022)" cx="1008.46" cy="1410.82" r="14.4" fill="#009af9" fill-rule="evenodd" fill-opacity="0.5" stroke="#000000" stroke-opacity="0.5" stroke-width="3.2"/>
<circle clip-path="url(#clip022)" cx="1118.63" cy="1151.62" r="14.4" fill="#009af9" fill-rule="evenodd" fill-opacity="0.5" stroke="#000000" stroke-opacity="0.5" stroke-width="3.2"/>
<circle clip-path="url(#clip022)" cx="427.99" cy="618.255" r="14.4" fill="#009af9" fill-rule="evenodd" fill-opacity="0.5" stroke="#000000" stroke-opacity="0.5" stroke-width="3.2"/>
<circle clip-path="url(#clip022)" cx="2290.34" cy="947.772" r="14.4" fill="#009af9" fill-rule="evenodd" fill-opacity="0.5" stroke="#000000" stroke-opacity="0.5" stroke-width="3.2"/>
<circle clip-path="url(#clip022)" cx="407.002" cy="639.604" r="14.4" fill="#009af9" fill-rule="evenodd" fill-opacity="0.5" stroke="#000000" stroke-opacity="0.5" stroke-width="3.2"/>
<circle clip-path="url(#clip022)" cx="258.656" cy="817.297" r="14.4" fill="#009af9" fill-rule="evenodd" fill-opacity="0.5" stroke="#000000" stroke-opacity="0.5" stroke-width="3.2"/>
<circle clip-path="url(#clip022)" cx="1538.08" cy="652.345" r="14.4" fill="#009af9" fill-rule="evenodd" fill-opacity="0.5" stroke="#000000" stroke-opacity="0.5" stroke-width="3.2"/>
<circle clip-path="url(#clip022)" cx="700.946" cy="87.9763" r="14.4" fill="#009af9" fill-rule="evenodd" fill-opacity="0.5" stroke="#000000" stroke-opacity="0.5" stroke-width="3.2"/>
<circle clip-path="url(#clip022)" cx="397.739" cy="1309.16" r="14.4" fill="#009af9" fill-rule="evenodd" fill-opacity="0.5" stroke="#000000" stroke-opacity="0.5" stroke-width="3.2"/>
<circle clip-path="url(#clip022)" cx="1348.32" cy="285.981" r="14.4" fill="#009af9" fill-rule="evenodd" fill-opacity="0.5" stroke="#000000" stroke-opacity="0.5" stroke-width="3.2"/>
<circle clip-path="url(#clip022)" cx="839.925" cy="548.125" r="14.4" fill="#009af9" fill-rule="evenodd" fill-opacity="0.5" stroke="#000000" stroke-opacity="0.5" stroke-width="3.2"/>
<circle clip-path="url(#clip022)" cx="324.003" cy="972.013" r="14.4" fill="#009af9" fill-rule="evenodd" fill-opacity="0.5" stroke="#000000" stroke-opacity="0.5" stroke-width="3.2"/>
<circle clip-path="url(#clip022)" cx="209.891" cy="713.395" r="14.4" fill="#009af9" fill-rule="evenodd" fill-opacity="0.5" stroke="#000000" stroke-opacity="0.5" stroke-width="3.2"/>
<circle clip-path="url(#clip022)" cx="539.377" cy="1221.98" r="14.4" fill="#009af9" fill-rule="evenodd" fill-opacity="0.5" stroke="#000000" stroke-opacity="0.5" stroke-width="3.2"/>
<circle clip-path="url(#clip022)" cx="611.052" cy="214.745" r="14.4" fill="#009af9" fill-rule="evenodd" fill-opacity="0.5" stroke="#000000" stroke-opacity="0.5" stroke-width="3.2"/>
<circle clip-path="url(#clip022)" cx="1011.72" cy="130.025" r="14.4" fill="#009af9" fill-rule="evenodd" fill-opacity="0.5" stroke="#000000" stroke-opacity="0.5" stroke-width="3.2"/>
<circle clip-path="url(#clip022)" cx="892.844" cy="546.709" r="14.4" fill="#009af9" fill-rule="evenodd" fill-opacity="0.5" stroke="#000000" stroke-opacity="0.5" stroke-width="3.2"/>
<circle clip-path="url(#clip022)" cx="1080.49" cy="889.882" r="14.4" fill="#009af9" fill-rule="evenodd" fill-opacity="0.5" stroke="#000000" stroke-opacity="0.5" stroke-width="3.2"/>
<path clip-path="url(#clip022)" d="M209.891 713.395 L397.739 1309.16 L649.871 1445.72 L1008.46 1410.82 L2290.34 947.772 L1348.32 285.981 L1011.72 130.025 L700.946 87.9763 L492.902 161.159 L209.891 713.395 L209.891 713.395  Z" fill="#e26f46" fill-rule="evenodd" fill-opacity="0.2"/>
<polyline clip-path="url(#clip022)" style="stroke:#000000; stroke-linecap:round; stroke-linejoin:round; stroke-width:4; stroke-opacity:0.2; fill:none" points="209.891,713.395 397.739,1309.16 649.871,1445.72 1008.46,1410.82 2290.34,947.772 1348.32,285.981 1011.72,130.025 700.946,87.9763 492.902,161.159 209.891,713.395 "/>
</svg>
