<?xml version="1.0" encoding="utf-8"?>
<svg xmlns="http://www.w3.org/2000/svg" xmlns:xlink="http://www.w3.org/1999/xlink" width="600" height="400" viewBox="0 0 2400 1600">
<defs>
  <clipPath id="clip890">
    <rect x="0" y="0" width="2400" height="1600"/>
  </clipPath>
</defs>
<path clip-path="url(#clip890)" d="M0 1600 L2400 1600 L2400 0 L0 0  Z" fill="#ffffff" fill-rule="evenodd" fill-opacity="1"/>
<defs>
  <clipPath id="clip891">
    <rect x="480" y="0" width="1681" height="1600"/>
  </clipPath>
</defs>
<path clip-path="url(#clip890)" d="M155.765 1486.45 L2352.76 1486.45 L2352.76 47.2441 L155.765 47.2441  Z" fill="#ffffff" fill-rule="evenodd" fill-opacity="1"/>
<defs>
  <clipPath id="clip892">
    <rect x="155" y="47" width="2198" height="1440"/>
  </clipPath>
</defs>
<polyline clip-path="url(#clip892)" style="stroke:#000000; stroke-linecap:round; stroke-linejoin:round; stroke-width:2; stroke-opacity:0.1; fill:none" points="348.599,1486.45 348.599,47.2441 "/>
<polyline clip-path="url(#clip892)" style="stroke:#000000; stroke-linecap:round; stroke-linejoin:round; stroke-width:2; stroke-opacity:0.1; fill:none" points="683.423,1486.45 683.423,47.2441 "/>
<polyline clip-path="url(#clip892)" style="stroke:#000000; stroke-linecap:round; stroke-linejoin:round; stroke-width:2; stroke-opacity:0.1; fill:none" points="1018.25,1486.45 1018.25,47.2441 "/>
<polyline clip-path="url(#clip892)" style="stroke:#000000; stroke-linecap:round; stroke-linejoin:round; stroke-width:2; stroke-opacity:0.1; fill:none" points="1353.07,1486.45 1353.07,47.2441 "/>
<polyline clip-path="url(#clip892)" style="stroke:#000000; stroke-linecap:round; stroke-linejoin:round; stroke-width:2; stroke-opacity:0.1; fill:none" points="1687.89,1486.45 1687.89,47.2441 "/>
<polyline clip-path="url(#clip892)" style="stroke:#000000; stroke-linecap:round; stroke-linejoin:round; stroke-width:2; stroke-opacity:0.1; fill:none" points="2022.72,1486.45 2022.72,47.2441 "/>
<polyline clip-path="url(#clip892)" style="stroke:#000000; stroke-linecap:round; stroke-linejoin:round; stroke-width:2; stroke-opacity:0.1; fill:none" points="155.765,1342.52 2352.76,1342.52 "/>
<polyline clip-path="url(#clip892)" style="stroke:#000000; stroke-linecap:round; stroke-linejoin:round; stroke-width:2; stroke-opacity:0.1; fill:none" points="155.765,1084.52 2352.76,1084.52 "/>
<polyline clip-path="url(#clip892)" style="stroke:#000000; stroke-linecap:round; stroke-linejoin:round; stroke-width:2; stroke-opacity:0.1; fill:none" points="155.765,826.517 2352.76,826.517 "/>
<polyline clip-path="url(#clip892)" style="stroke:#000000; stroke-linecap:round; stroke-linejoin:round; stroke-width:2; stroke-opacity:0.1; fill:none" points="155.765,568.517 2352.76,568.517 "/>
<polyline clip-path="url(#clip892)" style="stroke:#000000; stroke-linecap:round; stroke-linejoin:round; stroke-width:2; stroke-opacity:0.1; fill:none" points="155.765,310.518 2352.76,310.518 "/>
<polyline clip-path="url(#clip892)" style="stroke:#000000; stroke-linecap:round; stroke-linejoin:round; stroke-width:2; stroke-opacity:0.1; fill:none" points="155.765,52.518 2352.76,52.518 "/>
<polyline clip-path="url(#clip890)" style="stroke:#000000; stroke-linecap:round; stroke-linejoin:round; stroke-width:4; stroke-opacity:1; fill:none" points="155.765,1486.45 2352.76,1486.45 "/>
<polyline clip-path="url(#clip890)" style="stroke:#000000; stroke-linecap:round; stroke-linejoin:round; stroke-width:4; stroke-opacity:1; fill:none" points="348.599,1486.45 348.599,1467.55 "/>
<polyline clip-path="url(#clip890)" style="stroke:#000000; stroke-linecap:round; stroke-linejoin:round; stroke-width:4; stroke-opacity:1; fill:none" points="683.423,1486.45 683.423,1467.55 "/>
<polyline clip-path="url(#clip890)" style="stroke:#000000; stroke-linecap:round; stroke-linejoin:round; stroke-width:4; stroke-opacity:1; fill:none" points="1018.25,1486.45 1018.25,1467.55 "/>
<polyline clip-path="url(#clip890)" style="stroke:#000000; stroke-linecap:round; stroke-linejoin:round; stroke-width:4; stroke-opacity:1; fill:none" points="1353.07,1486.45 1353.07,1467.55 "/>
<polyline clip-path="url(#clip890)" style="stroke:#000000; stroke-linecap:round; stroke-linejoin:round; stroke-width:4; stroke-opacity:1; fill:none" points="1687.89,1486.45 1687.89,1467.55 "/>
<polyline clip-path="url(#clip890)" style="stroke:#000000; stroke-linecap:round; stroke-linejoin:round; stroke-width:4; stroke-opacity:1; fill:none" points="2022.72,1486.45 2022.72,1467.55 "/>
<path clip-path="url(#clip890)" d="M280.544 1532.02 L310.22 1532.02 L310.22 1535.95 L280.544 1535.95 L280.544 1532.02 Z" fill="#000000" fill-rule="nonzero" fill-opacity="1" /><path clip-path="url(#clip890)" d="M330.312 1517.37 Q326.701 1517.37 324.873 1520.93 Q323.067 1524.47 323.067 1531.6 Q323.067 1538.71 324.873 1542.27 Q326.701 1545.82 330.312 1545.82 Q333.947 1545.82 335.752 1542.27 Q337.581 1538.71 337.581 1531.6 Q337.581 1524.47 335.752 1520.93 Q333.947 1517.37 330.312 1517.37 M330.312 1513.66 Q336.122 1513.66 339.178 1518.27 Q342.257 1522.85 342.257 1531.6 Q342.257 1540.33 339.178 1544.94 Q336.122 1549.52 330.312 1549.52 Q324.502 1549.52 321.423 1544.94 Q318.368 1540.33 318.368 1531.6 Q318.368 1522.85 321.423 1518.27 Q324.502 1513.66 330.312 1513.66 Z" fill="#000000" fill-rule="nonzero" fill-opacity="1" /><path clip-path="url(#clip890)" d="M350.474 1542.97 L355.358 1542.97 L355.358 1548.85 L350.474 1548.85 L350.474 1542.97 Z" fill="#000000" fill-rule="nonzero" fill-opacity="1" /><path clip-path="url(#clip890)" d="M369.571 1544.91 L385.891 1544.91 L385.891 1548.85 L363.946 1548.85 L363.946 1544.91 Q366.608 1542.16 371.192 1537.53 Q375.798 1532.88 376.979 1531.53 Q379.224 1529.01 380.104 1527.27 Q381.006 1525.51 381.006 1523.82 Q381.006 1521.07 379.062 1519.33 Q377.141 1517.6 374.039 1517.6 Q371.84 1517.6 369.386 1518.36 Q366.956 1519.13 364.178 1520.68 L364.178 1515.95 Q367.002 1514.82 369.456 1514.24 Q371.909 1513.66 373.946 1513.66 Q379.317 1513.66 382.511 1516.35 Q385.706 1519.03 385.706 1523.52 Q385.706 1525.65 384.895 1527.57 Q384.108 1529.47 382.002 1532.07 Q381.423 1532.74 378.321 1535.95 Q375.219 1539.15 369.571 1544.91 Z" fill="#000000" fill-rule="nonzero" fill-opacity="1" /><path clip-path="url(#clip890)" d="M395.752 1514.29 L414.108 1514.29 L414.108 1518.22 L400.034 1518.22 L400.034 1526.7 Q401.053 1526.35 402.071 1526.19 Q403.09 1526 404.108 1526 Q409.895 1526 413.275 1529.17 Q416.654 1532.34 416.654 1537.76 Q416.654 1543.34 413.182 1546.44 Q409.71 1549.52 403.391 1549.52 Q401.215 1549.52 398.946 1549.15 Q396.701 1548.78 394.293 1548.04 L394.293 1543.34 Q396.377 1544.47 398.599 1545.03 Q400.821 1545.58 403.298 1545.58 Q407.303 1545.58 409.641 1543.48 Q411.979 1541.37 411.979 1537.76 Q411.979 1534.15 409.641 1532.04 Q407.303 1529.94 403.298 1529.94 Q401.423 1529.94 399.548 1530.35 Q397.696 1530.77 395.752 1531.65 L395.752 1514.29 Z" fill="#000000" fill-rule="nonzero" fill-opacity="1" /><path clip-path="url(#clip890)" d="M645.726 1517.37 Q642.115 1517.37 640.287 1520.93 Q638.481 1524.47 638.481 1531.6 Q638.481 1538.71 640.287 1542.27 Q642.115 1545.82 645.726 1545.82 Q649.361 1545.82 651.166 1542.27 Q652.995 1538.71 652.995 1531.6 Q652.995 1524.47 651.166 1520.93 Q649.361 1517.37 645.726 1517.37 M645.726 1513.66 Q651.537 1513.66 654.592 1518.27 Q657.671 1522.85 657.671 1531.6 Q657.671 1540.33 654.592 1544.94 Q651.537 1549.52 645.726 1549.52 Q639.916 1549.52 636.838 1544.94 Q633.782 1540.33 633.782 1531.6 Q633.782 1522.85 636.838 1518.27 Q639.916 1513.66 645.726 1513.66 Z" fill="#000000" fill-rule="nonzero" fill-opacity="1" /><path clip-path="url(#clip890)" d="M665.888 1542.97 L670.773 1542.97 L670.773 1548.85 L665.888 1548.85 L665.888 1542.97 Z" fill="#000000" fill-rule="nonzero" fill-opacity="1" /><path clip-path="url(#clip890)" d="M690.958 1517.37 Q687.347 1517.37 685.518 1520.93 Q683.712 1524.47 683.712 1531.6 Q683.712 1538.71 685.518 1542.27 Q687.347 1545.82 690.958 1545.82 Q694.592 1545.82 696.397 1542.27 Q698.226 1538.71 698.226 1531.6 Q698.226 1524.47 696.397 1520.93 Q694.592 1517.37 690.958 1517.37 M690.958 1513.66 Q696.768 1513.66 699.823 1518.27 Q702.902 1522.85 702.902 1531.6 Q702.902 1540.33 699.823 1544.94 Q696.768 1549.52 690.958 1549.52 Q685.148 1549.52 682.069 1544.94 Q679.013 1540.33 679.013 1531.6 Q679.013 1522.85 682.069 1518.27 Q685.148 1513.66 690.958 1513.66 Z" fill="#000000" fill-rule="nonzero" fill-opacity="1" /><path clip-path="url(#clip890)" d="M721.12 1517.37 Q717.508 1517.37 715.68 1520.93 Q713.874 1524.47 713.874 1531.6 Q713.874 1538.71 715.68 1542.27 Q717.508 1545.82 721.12 1545.82 Q724.754 1545.82 726.559 1542.27 Q728.388 1538.71 728.388 1531.6 Q728.388 1524.47 726.559 1520.93 Q724.754 1517.37 721.12 1517.37 M721.12 1513.66 Q726.93 1513.66 729.985 1518.27 Q733.064 1522.85 733.064 1531.6 Q733.064 1540.33 729.985 1544.94 Q726.93 1549.52 721.12 1549.52 Q715.309 1549.52 712.231 1544.94 Q709.175 1540.33 709.175 1531.6 Q709.175 1522.85 712.231 1518.27 Q715.309 1513.66 721.12 1513.66 Z" fill="#000000" fill-rule="nonzero" fill-opacity="1" /><path clip-path="url(#clip890)" d="M981.048 1517.37 Q977.437 1517.37 975.608 1520.93 Q973.803 1524.47 973.803 1531.6 Q973.803 1538.71 975.608 1542.27 Q977.437 1545.82 981.048 1545.82 Q984.682 1545.82 986.488 1542.27 Q988.316 1538.71 988.316 1531.6 Q988.316 1524.47 986.488 1520.93 Q984.682 1517.37 981.048 1517.37 M981.048 1513.66 Q986.858 1513.66 989.914 1518.27 Q992.992 1522.85 992.992 1531.6 Q992.992 1540.33 989.914 1544.94 Q986.858 1549.52 981.048 1549.52 Q975.238 1549.52 972.159 1544.94 Q969.103 1540.33 969.103 1531.6 Q969.103 1522.85 972.159 1518.27 Q975.238 1513.66 981.048 1513.66 Z" fill="#000000" fill-rule="nonzero" fill-opacity="1" /><path clip-path="url(#clip890)" d="M1001.21 1542.97 L1006.09 1542.97 L1006.09 1548.85 L1001.21 1548.85 L1001.21 1542.97 Z" fill="#000000" fill-rule="nonzero" fill-opacity="1" /><path clip-path="url(#clip890)" d="M1020.31 1544.91 L1036.63 1544.91 L1036.63 1548.85 L1014.68 1548.85 L1014.68 1544.91 Q1017.34 1542.16 1021.93 1537.53 Q1026.53 1532.88 1027.71 1531.53 Q1029.96 1529.01 1030.84 1527.27 Q1031.74 1525.51 1031.74 1523.82 Q1031.74 1521.07 1029.8 1519.33 Q1027.88 1517.6 1024.77 1517.6 Q1022.58 1517.6 1020.12 1518.36 Q1017.69 1519.13 1014.91 1520.68 L1014.91 1515.95 Q1017.74 1514.82 1020.19 1514.24 Q1022.64 1513.66 1024.68 1513.66 Q1030.05 1513.66 1033.25 1516.35 Q1036.44 1519.03 1036.44 1523.52 Q1036.44 1525.65 1035.63 1527.57 Q1034.84 1529.47 1032.74 1532.07 Q1032.16 1532.74 1029.06 1535.95 Q1025.96 1539.15 1020.31 1544.91 Z" fill="#000000" fill-rule="nonzero" fill-opacity="1" /><path clip-path="url(#clip890)" d="M1046.49 1514.29 L1064.84 1514.29 L1064.84 1518.22 L1050.77 1518.22 L1050.77 1526.7 Q1051.79 1526.35 1052.81 1526.19 Q1053.83 1526 1054.84 1526 Q1060.63 1526 1064.01 1529.17 Q1067.39 1532.34 1067.39 1537.76 Q1067.39 1543.34 1063.92 1546.44 Q1060.45 1549.52 1054.13 1549.52 Q1051.95 1549.52 1049.68 1549.15 Q1047.44 1548.78 1045.03 1548.04 L1045.03 1543.34 Q1047.11 1544.47 1049.33 1545.03 Q1051.56 1545.58 1054.03 1545.58 Q1058.04 1545.58 1060.38 1543.48 Q1062.71 1541.37 1062.71 1537.76 Q1062.71 1534.15 1060.38 1532.04 Q1058.04 1529.94 1054.03 1529.94 Q1052.16 1529.94 1050.28 1530.35 Q1048.43 1530.77 1046.49 1531.65 L1046.49 1514.29 Z" fill="#000000" fill-rule="nonzero" fill-opacity="1" /><path clip-path="url(#clip890)" d="M1315.37 1517.37 Q1311.76 1517.37 1309.93 1520.93 Q1308.13 1524.47 1308.13 1531.6 Q1308.13 1538.71 1309.93 1542.27 Q1311.76 1545.82 1315.37 1545.82 Q1319.01 1545.82 1320.81 1542.27 Q1322.64 1538.71 1322.64 1531.6 Q1322.64 1524.47 1320.81 1520.93 Q1319.01 1517.37 1315.37 1517.37 M1315.37 1513.66 Q1321.18 1513.66 1324.24 1518.27 Q1327.32 1522.85 1327.32 1531.6 Q1327.32 1540.33 1324.24 1544.94 Q1321.18 1549.52 1315.37 1549.52 Q1309.56 1549.52 1306.49 1544.94 Q1303.43 1540.33 1303.43 1531.6 Q1303.43 1522.85 1306.49 1518.27 Q1309.56 1513.66 1315.37 1513.66 Z" fill="#000000" fill-rule="nonzero" fill-opacity="1" /><path clip-path="url(#clip890)" d="M1335.54 1542.97 L1340.42 1542.97 L1340.42 1548.85 L1335.54 1548.85 L1335.54 1542.97 Z" fill="#000000" fill-rule="nonzero" fill-opacity="1" /><path clip-path="url(#clip890)" d="M1350.65 1514.29 L1369.01 1514.29 L1369.01 1518.22 L1354.93 1518.22 L1354.93 1526.7 Q1355.95 1526.35 1356.97 1526.19 Q1357.99 1526 1359.01 1526 Q1364.79 1526 1368.17 1529.17 Q1371.55 1532.34 1371.55 1537.76 Q1371.55 1543.34 1368.08 1546.44 Q1364.61 1549.52 1358.29 1549.52 Q1356.11 1549.52 1353.85 1549.15 Q1351.6 1548.78 1349.19 1548.04 L1349.19 1543.34 Q1351.28 1544.47 1353.5 1545.03 Q1355.72 1545.58 1358.2 1545.58 Q1362.2 1545.58 1364.54 1543.48 Q1366.88 1541.37 1366.88 1537.76 Q1366.88 1534.15 1364.54 1532.04 Q1362.2 1529.94 1358.2 1529.94 Q1356.32 1529.94 1354.45 1530.35 Q1352.6 1530.77 1350.65 1531.65 L1350.65 1514.29 Z" fill="#000000" fill-rule="nonzero" fill-opacity="1" /><path clip-path="url(#clip890)" d="M1390.77 1517.37 Q1387.16 1517.37 1385.33 1520.93 Q1383.52 1524.47 1383.52 1531.6 Q1383.52 1538.71 1385.33 1542.27 Q1387.16 1545.82 1390.77 1545.82 Q1394.4 1545.82 1396.21 1542.27 Q1398.04 1538.71 1398.04 1531.6 Q1398.04 1524.47 1396.21 1520.93 Q1394.4 1517.37 1390.77 1517.37 M1390.77 1513.66 Q1396.58 1513.66 1399.63 1518.27 Q1402.71 1522.85 1402.71 1531.6 Q1402.71 1540.33 1399.63 1544.94 Q1396.58 1549.52 1390.77 1549.52 Q1384.96 1549.52 1381.88 1544.94 Q1378.82 1540.33 1378.82 1531.6 Q1378.82 1522.85 1381.88 1518.27 Q1384.96 1513.66 1390.77 1513.66 Z" fill="#000000" fill-rule="nonzero" fill-opacity="1" /><path clip-path="url(#clip890)" d="M1650.7 1517.37 Q1647.08 1517.37 1645.26 1520.93 Q1643.45 1524.47 1643.45 1531.6 Q1643.45 1538.71 1645.26 1542.27 Q1647.08 1545.82 1650.7 1545.82 Q1654.33 1545.82 1656.14 1542.27 Q1657.96 1538.71 1657.96 1531.6 Q1657.96 1524.47 1656.14 1520.93 Q1654.33 1517.37 1650.7 1517.37 M1650.7 1513.66 Q1656.51 1513.66 1659.56 1518.27 Q1662.64 1522.85 1662.64 1531.6 Q1662.64 1540.33 1659.56 1544.94 Q1656.51 1549.52 1650.7 1549.52 Q1644.89 1549.52 1641.81 1544.94 Q1638.75 1540.33 1638.75 1531.6 Q1638.75 1522.85 1641.81 1518.27 Q1644.89 1513.66 1650.7 1513.66 Z" fill="#000000" fill-rule="nonzero" fill-opacity="1" /><path clip-path="url(#clip890)" d="M1670.86 1542.97 L1675.74 1542.97 L1675.74 1548.85 L1670.86 1548.85 L1670.86 1542.97 Z" fill="#000000" fill-rule="nonzero" fill-opacity="1" /><path clip-path="url(#clip890)" d="M1684.75 1514.29 L1706.97 1514.29 L1706.97 1516.28 L1694.42 1548.85 L1689.54 1548.85 L1701.34 1518.22 L1684.75 1518.22 L1684.75 1514.29 Z" fill="#000000" fill-rule="nonzero" fill-opacity="1" /><path clip-path="url(#clip890)" d="M1716.13 1514.29 L1734.49 1514.29 L1734.49 1518.22 L1720.42 1518.22 L1720.42 1526.7 Q1721.44 1526.35 1722.45 1526.19 Q1723.47 1526 1724.49 1526 Q1730.28 1526 1733.66 1529.17 Q1737.04 1532.34 1737.04 1537.76 Q1737.04 1543.34 1733.57 1546.44 Q1730.09 1549.52 1723.77 1549.52 Q1721.6 1549.52 1719.33 1549.15 Q1717.08 1548.78 1714.68 1548.04 L1714.68 1543.34 Q1716.76 1544.47 1718.98 1545.03 Q1721.2 1545.58 1723.68 1545.58 Q1727.69 1545.58 1730.02 1543.48 Q1732.36 1541.37 1732.36 1537.76 Q1732.36 1534.15 1730.02 1532.04 Q1727.69 1529.94 1723.68 1529.94 Q1721.81 1529.94 1719.93 1530.35 Q1718.08 1530.77 1716.13 1531.65 L1716.13 1514.29 Z" fill="#000000" fill-rule="nonzero" fill-opacity="1" /><path clip-path="url(#clip890)" d="M1974.79 1544.91 L1982.43 1544.91 L1982.43 1518.55 L1974.12 1520.21 L1974.12 1515.95 L1982.38 1514.29 L1987.06 1514.29 L1987.06 1544.91 L1994.7 1544.91 L1994.7 1548.85 L1974.79 1548.85 L1974.79 1544.91 Z" fill="#000000" fill-rule="nonzero" fill-opacity="1" /><path clip-path="url(#clip890)" d="M2004.14 1542.97 L2009.03 1542.97 L2009.03 1548.85 L2004.14 1548.85 L2004.14 1542.97 Z" fill="#000000" fill-rule="nonzero" fill-opacity="1" /><path clip-path="url(#clip890)" d="M2029.21 1517.37 Q2025.6 1517.37 2023.77 1520.93 Q2021.97 1524.47 2021.97 1531.6 Q2021.97 1538.71 2023.77 1542.27 Q2025.6 1545.82 2029.21 1545.82 Q2032.85 1545.82 2034.65 1542.27 Q2036.48 1538.71 2036.48 1531.6 Q2036.48 1524.47 2034.65 1520.93 Q2032.85 1517.37 2029.21 1517.37 M2029.21 1513.66 Q2035.02 1513.66 2038.08 1518.27 Q2041.16 1522.85 2041.16 1531.6 Q2041.16 1540.33 2038.08 1544.94 Q2035.02 1549.52 2029.21 1549.52 Q2023.4 1549.52 2020.32 1544.94 Q2017.27 1540.33 2017.27 1531.6 Q2017.27 1522.85 2020.32 1518.27 Q2023.4 1513.66 2029.21 1513.66 Z" fill="#000000" fill-rule="nonzero" fill-opacity="1" /><path clip-path="url(#clip890)" d="M2059.37 1517.37 Q2055.76 1517.37 2053.93 1520.93 Q2052.13 1524.47 2052.13 1531.6 Q2052.13 1538.71 2053.93 1542.27 Q2055.76 1545.82 2059.37 1545.82 Q2063.01 1545.82 2064.81 1542.27 Q2066.64 1538.71 2066.64 1531.6 Q2066.64 1524.47 2064.81 1520.93 Q2063.01 1517.37 2059.37 1517.37 M2059.37 1513.66 Q2065.18 1513.66 2068.24 1518.27 Q2071.32 1522.85 2071.32 1531.6 Q2071.32 1540.33 2068.24 1544.94 Q2065.18 1549.52 2059.37 1549.52 Q2053.56 1549.52 2050.48 1544.94 Q2047.43 1540.33 2047.43 1531.6 Q2047.43 1522.85 2050.48 1518.27 Q2053.56 1513.66 2059.37 1513.66 Z" fill="#000000" fill-rule="nonzero" fill-opacity="1" /><polyline clip-path="url(#clip890)" style="stroke:#000000; stroke-linecap:round; stroke-linejoin:round; stroke-width:4; stroke-opacity:1; fill:none" points="155.765,1486.45 155.765,47.2441 "/>
<polyline clip-path="url(#clip890)" style="stroke:#000000; stroke-linecap:round; stroke-linejoin:round; stroke-width:4; stroke-opacity:1; fill:none" points="155.765,1342.52 174.663,1342.52 "/>
<polyline clip-path="url(#clip890)" style="stroke:#000000; stroke-linecap:round; stroke-linejoin:round; stroke-width:4; stroke-opacity:1; fill:none" points="155.765,1084.52 174.663,1084.52 "/>
<polyline clip-path="url(#clip890)" style="stroke:#000000; stroke-linecap:round; stroke-linejoin:round; stroke-width:4; stroke-opacity:1; fill:none" points="155.765,826.517 174.663,826.517 "/>
<polyline clip-path="url(#clip890)" style="stroke:#000000; stroke-linecap:round; stroke-linejoin:round; stroke-width:4; stroke-opacity:1; fill:none" points="155.765,568.517 174.663,568.517 "/>
<polyline clip-path="url(#clip890)" style="stroke:#000000; stroke-linecap:round; stroke-linejoin:round; stroke-width:4; stroke-opacity:1; fill:none" points="155.765,310.518 174.663,310.518 "/>
<polyline clip-path="url(#clip890)" style="stroke:#000000; stroke-linecap:round; stroke-linejoin:round; stroke-width:4; stroke-opacity:1; fill:none" points="155.765,52.518 174.663,52.518 "/>
<path clip-path="url(#clip890)" d="M53.3995 1355.86 L61.0384 1355.86 L61.0384 1329.5 L52.7282 1331.16 L52.7282 1326.9 L60.9921 1325.24 L65.668 1325.24 L65.668 1355.86 L73.3068 1355.86 L73.3068 1359.8 L53.3995 1359.8 L53.3995 1355.86 Z" fill="#000000" fill-rule="nonzero" fill-opacity="1" /><path clip-path="url(#clip890)" d="M82.7512 1353.92 L87.6354 1353.92 L87.6354 1359.8 L82.7512 1359.8 L82.7512 1353.92 Z" fill="#000000" fill-rule="nonzero" fill-opacity="1" /><path clip-path="url(#clip890)" d="M107.821 1328.31 Q104.209 1328.31 102.381 1331.88 Q100.575 1335.42 100.575 1342.55 Q100.575 1349.66 102.381 1353.22 Q104.209 1356.76 107.821 1356.76 Q111.455 1356.76 113.26 1353.22 Q115.089 1349.66 115.089 1342.55 Q115.089 1335.42 113.26 1331.88 Q111.455 1328.31 107.821 1328.31 M107.821 1324.61 Q113.631 1324.61 116.686 1329.22 Q119.765 1333.8 119.765 1342.55 Q119.765 1351.28 116.686 1355.88 Q113.631 1360.47 107.821 1360.47 Q102.01 1360.47 98.9317 1355.88 Q95.8761 1351.28 95.8761 1342.55 Q95.8761 1333.8 98.9317 1329.22 Q102.01 1324.61 107.821 1324.61 Z" fill="#000000" fill-rule="nonzero" fill-opacity="1" /><path clip-path="url(#clip890)" d="M54.3949 1097.86 L62.0337 1097.86 L62.0337 1071.5 L53.7236 1073.16 L53.7236 1068.9 L61.9874 1067.24 L66.6633 1067.24 L66.6633 1097.86 L74.3022 1097.86 L74.3022 1101.8 L54.3949 1101.8 L54.3949 1097.86 Z" fill="#000000" fill-rule="nonzero" fill-opacity="1" /><path clip-path="url(#clip890)" d="M83.7466 1095.92 L88.6308 1095.92 L88.6308 1101.8 L83.7466 1101.8 L83.7466 1095.92 Z" fill="#000000" fill-rule="nonzero" fill-opacity="1" /><path clip-path="url(#clip890)" d="M98.8622 1067.24 L117.219 1067.24 L117.219 1071.17 L103.145 1071.17 L103.145 1079.64 Q104.163 1079.3 105.182 1079.13 Q106.2 1078.95 107.219 1078.95 Q113.006 1078.95 116.385 1082.12 Q119.765 1085.29 119.765 1090.71 Q119.765 1096.29 116.293 1099.39 Q112.82 1102.47 106.501 1102.47 Q104.325 1102.47 102.057 1102.1 Q99.8113 1101.73 97.4039 1100.99 L97.4039 1096.29 Q99.4872 1097.42 101.709 1097.98 Q103.932 1098.53 106.408 1098.53 Q110.413 1098.53 112.751 1096.43 Q115.089 1094.32 115.089 1090.71 Q115.089 1087.1 112.751 1084.99 Q110.413 1082.88 106.408 1082.88 Q104.534 1082.88 102.659 1083.3 Q100.807 1083.72 98.8622 1084.6 L98.8622 1067.24 Z" fill="#000000" fill-rule="nonzero" fill-opacity="1" /><path clip-path="url(#clip890)" d="M56.6171 839.862 L72.9365 839.862 L72.9365 843.797 L50.9921 843.797 L50.9921 839.862 Q53.6541 837.107 58.2375 832.477 Q62.8439 827.825 64.0245 826.482 Q66.2698 823.959 67.1494 822.223 Q68.0522 820.463 68.0522 818.774 Q68.0522 816.019 66.1078 814.283 Q64.1865 812.547 61.0847 812.547 Q58.8856 812.547 56.4319 813.311 Q54.0014 814.075 51.2236 815.626 L51.2236 810.903 Q54.0477 809.769 56.5014 809.19 Q58.955 808.612 60.9921 808.612 Q66.3624 808.612 69.5568 811.297 Q72.7513 813.982 72.7513 818.473 Q72.7513 820.602 71.9411 822.524 Q71.1541 824.422 69.0476 827.014 Q68.4689 827.686 65.367 830.903 Q62.2652 834.098 56.6171 839.862 Z" fill="#000000" fill-rule="nonzero" fill-opacity="1" /><path clip-path="url(#clip890)" d="M82.7512 837.917 L87.6354 837.917 L87.6354 843.797 L82.7512 843.797 L82.7512 837.917 Z" fill="#000000" fill-rule="nonzero" fill-opacity="1" /><path clip-path="url(#clip890)" d="M107.821 812.315 Q104.209 812.315 102.381 815.88 Q100.575 819.422 100.575 826.551 Q100.575 833.658 102.381 837.223 Q104.209 840.764 107.821 840.764 Q111.455 840.764 113.26 837.223 Q115.089 833.658 115.089 826.551 Q115.089 819.422 113.26 815.88 Q111.455 812.315 107.821 812.315 M107.821 808.612 Q113.631 808.612 116.686 813.218 Q119.765 817.801 119.765 826.551 Q119.765 835.278 116.686 839.885 Q113.631 844.468 107.821 844.468 Q102.01 844.468 98.9317 839.885 Q95.8761 835.278 95.8761 826.551 Q95.8761 817.801 98.9317 813.218 Q102.01 808.612 107.821 808.612 Z" fill="#000000" fill-rule="nonzero" fill-opacity="1" /><path clip-path="url(#clip890)" d="M57.6125 581.862 L73.9318 581.862 L73.9318 585.797 L51.9875 585.797 L51.9875 581.862 Q54.6495 579.107 59.2328 574.478 Q63.8393 569.825 65.0198 568.482 Q67.2652 565.959 68.1448 564.223 Q69.0476 562.464 69.0476 560.774 Q69.0476 558.019 67.1032 556.283 Q65.1819 554.547 62.08 554.547 Q59.881 554.547 57.4273 555.311 Q54.9967 556.075 52.219 557.626 L52.219 552.904 Q55.043 551.77 57.4967 551.191 Q59.9504 550.612 61.9874 550.612 Q67.3578 550.612 70.5522 553.297 Q73.7466 555.982 73.7466 560.473 Q73.7466 562.603 72.9365 564.524 Q72.1494 566.422 70.0429 569.015 Q69.4642 569.686 66.3624 572.904 Q63.2606 576.098 57.6125 581.862 Z" fill="#000000" fill-rule="nonzero" fill-opacity="1" /><path clip-path="url(#clip890)" d="M83.7466 579.918 L88.6308 579.918 L88.6308 585.797 L83.7466 585.797 L83.7466 579.918 Z" fill="#000000" fill-rule="nonzero" fill-opacity="1" /><path clip-path="url(#clip890)" d="M98.8622 551.237 L117.219 551.237 L117.219 555.172 L103.145 555.172 L103.145 563.644 Q104.163 563.297 105.182 563.135 Q106.2 562.95 107.219 562.95 Q113.006 562.95 116.385 566.121 Q119.765 569.293 119.765 574.709 Q119.765 580.288 116.293 583.39 Q112.82 586.468 106.501 586.468 Q104.325 586.468 102.057 586.098 Q99.8113 585.728 97.4039 584.987 L97.4039 580.288 Q99.4872 581.422 101.709 581.978 Q103.932 582.533 106.408 582.533 Q110.413 582.533 112.751 580.427 Q115.089 578.32 115.089 574.709 Q115.089 571.098 112.751 568.992 Q110.413 566.885 106.408 566.885 Q104.534 566.885 102.659 567.302 Q100.807 567.719 98.8622 568.598 L98.8622 551.237 Z" fill="#000000" fill-rule="nonzero" fill-opacity="1" /><path clip-path="url(#clip890)" d="M66.7559 309.163 Q70.1124 309.881 71.9874 312.149 Q73.8855 314.418 73.8855 317.751 Q73.8855 322.867 70.367 325.668 Q66.8485 328.469 60.3671 328.469 Q58.1912 328.469 55.8764 328.029 Q53.5847 327.612 51.131 326.756 L51.131 322.242 Q53.0754 323.376 55.3903 323.955 Q57.7051 324.534 60.2282 324.534 Q64.6263 324.534 66.918 322.798 Q69.2328 321.061 69.2328 317.751 Q69.2328 314.696 67.08 312.983 Q64.9504 311.247 61.131 311.247 L57.1032 311.247 L57.1032 307.404 L61.3161 307.404 Q64.7652 307.404 66.5939 306.038 Q68.4226 304.65 68.4226 302.057 Q68.4226 299.395 66.5245 297.983 Q64.6495 296.548 61.131 296.548 Q59.2097 296.548 57.0106 296.964 Q54.8115 297.381 52.1727 298.261 L52.1727 294.094 Q54.8347 293.353 57.1495 292.983 Q59.4875 292.613 61.5476 292.613 Q66.8717 292.613 69.9735 295.043 Q73.0753 297.45 73.0753 301.571 Q73.0753 304.441 71.4318 306.432 Q69.7883 308.4 66.7559 309.163 Z" fill="#000000" fill-rule="nonzero" fill-opacity="1" /><path clip-path="url(#clip890)" d="M82.7512 321.918 L87.6354 321.918 L87.6354 327.798 L82.7512 327.798 L82.7512 321.918 Z" fill="#000000" fill-rule="nonzero" fill-opacity="1" /><path clip-path="url(#clip890)" d="M107.821 296.316 Q104.209 296.316 102.381 299.881 Q100.575 303.423 100.575 310.552 Q100.575 317.659 102.381 321.224 Q104.209 324.765 107.821 324.765 Q111.455 324.765 113.26 321.224 Q115.089 317.659 115.089 310.552 Q115.089 303.423 113.26 299.881 Q111.455 296.316 107.821 296.316 M107.821 292.613 Q113.631 292.613 116.686 297.219 Q119.765 301.802 119.765 310.552 Q119.765 319.279 116.686 323.886 Q113.631 328.469 107.821 328.469 Q102.01 328.469 98.9317 323.886 Q95.8761 319.279 95.8761 310.552 Q95.8761 301.802 98.9317 297.219 Q102.01 292.613 107.821 292.613 Z" fill="#000000" fill-rule="nonzero" fill-opacity="1" /><path clip-path="url(#clip890)" d="M67.7513 51.1638 Q71.1078 51.8814 72.9827 54.1499 Q74.8809 56.4184 74.8809 59.7517 Q74.8809 64.8674 71.3624 67.6684 Q67.8439 70.4693 61.3624 70.4693 Q59.1865 70.4693 56.8717 70.0295 Q54.5801 69.6128 52.1264 68.7563 L52.1264 64.2424 Q54.0708 65.3767 56.3856 65.9554 Q58.7004 66.5341 61.2236 66.5341 Q65.6217 66.5341 67.9133 64.798 Q70.2281 63.0619 70.2281 59.7517 Q70.2281 56.6962 68.0754 54.9832 Q65.9457 53.2471 62.1263 53.2471 L58.0986 53.2471 L58.0986 49.4046 L62.3115 49.4046 Q65.7606 49.4046 67.5893 48.0388 Q69.418 46.6499 69.418 44.0574 Q69.418 41.3953 67.5198 39.9833 Q65.6448 38.5481 62.1263 38.5481 Q60.205 38.5481 58.006 38.9648 Q55.8069 39.3815 53.168 40.2611 L53.168 36.0944 Q55.8301 35.3537 58.1449 34.9833 Q60.4828 34.613 62.543 34.613 Q67.867 34.613 70.9689 37.0435 Q74.0707 39.4509 74.0707 43.5713 Q74.0707 46.4416 72.4272 48.4323 Q70.7837 50.3999 67.7513 51.1638 Z" fill="#000000" fill-rule="nonzero" fill-opacity="1" /><path clip-path="url(#clip890)" d="M83.7466 63.9184 L88.6308 63.9184 L88.6308 69.798 L83.7466 69.798 L83.7466 63.9184 Z" fill="#000000" fill-rule="nonzero" fill-opacity="1" /><path clip-path="url(#clip890)" d="M98.8622 35.238 L117.219 35.238 L117.219 39.1731 L103.145 39.1731 L103.145 47.6453 Q104.163 47.2981 105.182 47.1361 Q106.2 46.9509 107.219 46.9509 Q113.006 46.9509 116.385 50.1221 Q119.765 53.2934 119.765 58.7101 Q119.765 64.2887 116.293 67.3906 Q112.82 70.4693 106.501 70.4693 Q104.325 70.4693 102.057 70.0989 Q99.8113 69.7285 97.4039 68.9878 L97.4039 64.2887 Q99.4872 65.423 101.709 65.9785 Q103.932 66.5341 106.408 66.5341 Q110.413 66.5341 112.751 64.4276 Q115.089 62.3212 115.089 58.7101 Q115.089 55.099 112.751 52.9925 Q110.413 50.886 106.408 50.886 Q104.534 50.886 102.659 51.3027 Q100.807 51.7194 98.8622 52.599 L98.8622 35.238 Z" fill="#000000" fill-rule="nonzero" fill-opacity="1" /><path clip-path="url(#clip892)" d="M2290.58 1239.32 L1754.86 1239.32 L1754.86 1445.72 L2290.58 1445.72 L2290.58 1239.32 L2290.58 1239.32  Z" fill="#0000ff" fill-rule="evenodd" fill-opacity="0.5"/>
<polyline clip-path="url(#clip892)" style="stroke:#000000; stroke-linecap:round; stroke-linejoin:round; stroke-width:4; stroke-opacity:0.5; fill:none" points="2290.58,1239.32 1754.86,1239.32 1754.86,1445.72 2290.58,1445.72 2290.58,1239.32 "/>
<path clip-path="url(#clip892)" d="M1043.95 87.9763 L217.944 359.916 L923.773 678.156 L1749.78 406.216 L1043.95 87.9763 L1043.95 87.9763  Z" fill="#008000" fill-rule="evenodd" fill-opacity="0.5"/>
<polyline clip-path="url(#clip892)" style="stroke:#000000; stroke-linecap:round; stroke-linejoin:round; stroke-width:4; stroke-opacity:0.5; fill:none" points="1043.95,87.9763 217.944,359.916 923.773,678.156 1749.78,406.216 1043.95,87.9763 "/>
<path clip-path="url(#clip892)" d="M217.944 359.916 L1754.86 1445.72 L2290.58 1445.72 L2290.58 1239.32 L1749.78 406.216 L1043.95 87.9763 L217.944 359.916 L217.944 359.916  Z" fill="#ff0000" fill-rule="evenodd" fill-opacity="0.2"/>
<polyline clip-path="url(#clip892)" style="stroke:#000000; stroke-linecap:round; stroke-linejoin:round; stroke-width:4; stroke-opacity:0.2; fill:none" points="217.944,359.916 1754.86,1445.72 2290.58,1445.72 2290.58,1239.32 1749.78,406.216 1043.95,87.9763 217.944,359.916 "/>
</svg>
