<?xml version="1.0" encoding="utf-8"?>
<svg xmlns="http://www.w3.org/2000/svg" xmlns:xlink="http://www.w3.org/1999/xlink" width="600" height="400" viewBox="0 0 2400 1600">
<defs>
  <clipPath id="clip010">
    <rect x="0" y="0" width="2400" height="1600"/>
  </clipPath>
</defs>
<path clip-path="url(#clip010)" d="M0 1600 L2400 1600 L2400 0 L0 0  Z" fill="#ffffff" fill-rule="evenodd" fill-opacity="1"/>
<defs>
  <clipPath id="clip011">
    <rect x="480" y="0" width="1681" height="1600"/>
  </clipPath>
</defs>
<path clip-path="url(#clip010)" d="M147.478 1486.45 L2352.76 1486.45 L2352.76 47.2441 L147.478 47.2441  Z" fill="#ffffff" fill-rule="evenodd" fill-opacity="1"/>
<defs>
  <clipPath id="clip012">
    <rect x="147" y="47" width="2206" height="1440"/>
  </clipPath>
</defs>
<polyline clip-path="url(#clip012)" style="stroke:#000000; stroke-linecap:round; stroke-linejoin:round; stroke-width:2; stroke-opacity:0.1; fill:none" points="309.988,1486.45 309.988,47.2441 "/>
<polyline clip-path="url(#clip012)" style="stroke:#000000; stroke-linecap:round; stroke-linejoin:round; stroke-width:2; stroke-opacity:0.1; fill:none" points="663.664,1486.45 663.664,47.2441 "/>
<polyline clip-path="url(#clip012)" style="stroke:#000000; stroke-linecap:round; stroke-linejoin:round; stroke-width:2; stroke-opacity:0.1; fill:none" points="1017.34,1486.45 1017.34,47.2441 "/>
<polyline clip-path="url(#clip012)" style="stroke:#000000; stroke-linecap:round; stroke-linejoin:round; stroke-width:2; stroke-opacity:0.1; fill:none" points="1371.02,1486.45 1371.02,47.2441 "/>
<polyline clip-path="url(#clip012)" style="stroke:#000000; stroke-linecap:round; stroke-linejoin:round; stroke-width:2; stroke-opacity:0.1; fill:none" points="1724.69,1486.45 1724.69,47.2441 "/>
<polyline clip-path="url(#clip012)" style="stroke:#000000; stroke-linecap:round; stroke-linejoin:round; stroke-width:2; stroke-opacity:0.1; fill:none" points="2078.37,1486.45 2078.37,47.2441 "/>
<polyline clip-path="url(#clip012)" style="stroke:#000000; stroke-linecap:round; stroke-linejoin:round; stroke-width:2; stroke-opacity:0.1; fill:none" points="147.478,1473.32 2352.76,1473.32 "/>
<polyline clip-path="url(#clip012)" style="stroke:#000000; stroke-linecap:round; stroke-linejoin:round; stroke-width:2; stroke-opacity:0.1; fill:none" points="147.478,1117.52 2352.76,1117.52 "/>
<polyline clip-path="url(#clip012)" style="stroke:#000000; stroke-linecap:round; stroke-linejoin:round; stroke-width:2; stroke-opacity:0.1; fill:none" points="147.478,761.723 2352.76,761.723 "/>
<polyline clip-path="url(#clip012)" style="stroke:#000000; stroke-linecap:round; stroke-linejoin:round; stroke-width:2; stroke-opacity:0.1; fill:none" points="147.478,405.925 2352.76,405.925 "/>
<polyline clip-path="url(#clip012)" style="stroke:#000000; stroke-linecap:round; stroke-linejoin:round; stroke-width:2; stroke-opacity:0.1; fill:none" points="147.478,50.1271 2352.76,50.1271 "/>
<polyline clip-path="url(#clip010)" style="stroke:#000000; stroke-linecap:round; stroke-linejoin:round; stroke-width:4; stroke-opacity:1; fill:none" points="147.478,1486.45 2352.76,1486.45 "/>
<polyline clip-path="url(#clip010)" style="stroke:#000000; stroke-linecap:round; stroke-linejoin:round; stroke-width:4; stroke-opacity:1; fill:none" points="309.988,1486.45 309.988,1467.55 "/>
<polyline clip-path="url(#clip010)" style="stroke:#000000; stroke-linecap:round; stroke-linejoin:round; stroke-width:4; stroke-opacity:1; fill:none" points="663.664,1486.45 663.664,1467.55 "/>
<polyline clip-path="url(#clip010)" style="stroke:#000000; stroke-linecap:round; stroke-linejoin:round; stroke-width:4; stroke-opacity:1; fill:none" points="1017.34,1486.45 1017.34,1467.55 "/>
<polyline clip-path="url(#clip010)" style="stroke:#000000; stroke-linecap:round; stroke-linejoin:round; stroke-width:4; stroke-opacity:1; fill:none" points="1371.02,1486.45 1371.02,1467.55 "/>
<polyline clip-path="url(#clip010)" style="stroke:#000000; stroke-linecap:round; stroke-linejoin:round; stroke-width:4; stroke-opacity:1; fill:none" points="1724.69,1486.45 1724.69,1467.55 "/>
<polyline clip-path="url(#clip010)" style="stroke:#000000; stroke-linecap:round; stroke-linejoin:round; stroke-width:4; stroke-opacity:1; fill:none" points="2078.37,1486.45 2078.37,1467.55 "/>
<path clip-path="url(#clip010)" d="M279.456 1532.02 L309.132 1532.02 L309.132 1535.95 L279.456 1535.95 L279.456 1532.02 Z" fill="#000000" fill-rule="nonzero" fill-opacity="1" /><path clip-path="url(#clip010)" d="M333.391 1530.21 Q336.747 1530.93 338.622 1533.2 Q340.521 1535.47 340.521 1538.8 Q340.521 1543.92 337.002 1546.72 Q333.484 1549.52 327.002 1549.52 Q324.826 1549.52 322.511 1549.08 Q320.22 1548.66 317.766 1547.81 L317.766 1543.29 Q319.711 1544.43 322.025 1545.01 Q324.34 1545.58 326.863 1545.58 Q331.261 1545.58 333.553 1543.85 Q335.868 1542.11 335.868 1538.8 Q335.868 1535.75 333.715 1534.03 Q331.585 1532.3 327.766 1532.3 L323.738 1532.3 L323.738 1528.45 L327.951 1528.45 Q331.4 1528.45 333.229 1527.09 Q335.058 1525.7 335.058 1523.11 Q335.058 1520.45 333.16 1519.03 Q331.285 1517.6 327.766 1517.6 Q325.845 1517.6 323.646 1518.01 Q321.447 1518.43 318.808 1519.31 L318.808 1515.14 Q321.47 1514.4 323.785 1514.03 Q326.123 1513.66 328.183 1513.66 Q333.507 1513.66 336.609 1516.09 Q339.71 1518.5 339.71 1522.62 Q339.71 1525.49 338.067 1527.48 Q336.423 1529.45 333.391 1530.21 Z" fill="#000000" fill-rule="nonzero" fill-opacity="1" /><path clip-path="url(#clip010)" d="M633.606 1532.02 L663.282 1532.02 L663.282 1535.95 L633.606 1535.95 L633.606 1532.02 Z" fill="#000000" fill-rule="nonzero" fill-opacity="1" /><path clip-path="url(#clip010)" d="M677.402 1544.91 L693.722 1544.91 L693.722 1548.85 L671.777 1548.85 L671.777 1544.91 Q674.439 1542.16 679.023 1537.53 Q683.629 1532.88 684.81 1531.53 Q687.055 1529.01 687.935 1527.27 Q688.837 1525.51 688.837 1523.82 Q688.837 1521.07 686.893 1519.33 Q684.972 1517.6 681.87 1517.6 Q679.671 1517.6 677.217 1518.36 Q674.787 1519.13 672.009 1520.68 L672.009 1515.95 Q674.833 1514.82 677.287 1514.24 Q679.74 1513.66 681.777 1513.66 Q687.148 1513.66 690.342 1516.35 Q693.536 1519.03 693.536 1523.52 Q693.536 1525.65 692.726 1527.57 Q691.939 1529.47 689.833 1532.07 Q689.254 1532.74 686.152 1535.95 Q683.05 1539.15 677.402 1544.91 Z" fill="#000000" fill-rule="nonzero" fill-opacity="1" /><path clip-path="url(#clip010)" d="M987.097 1532.02 L1016.77 1532.02 L1016.77 1535.95 L987.097 1535.95 L987.097 1532.02 Z" fill="#000000" fill-rule="nonzero" fill-opacity="1" /><path clip-path="url(#clip010)" d="M1027.68 1544.91 L1035.31 1544.91 L1035.31 1518.55 L1027 1520.21 L1027 1515.95 L1035.27 1514.29 L1039.94 1514.29 L1039.94 1544.91 L1047.58 1544.91 L1047.58 1548.85 L1027.68 1548.85 L1027.68 1544.91 Z" fill="#000000" fill-rule="nonzero" fill-opacity="1" /><path clip-path="url(#clip010)" d="M1371.02 1517.37 Q1367.4 1517.37 1365.58 1520.93 Q1363.77 1524.47 1363.77 1531.6 Q1363.77 1538.71 1365.58 1542.27 Q1367.4 1545.82 1371.02 1545.82 Q1374.65 1545.82 1376.45 1542.27 Q1378.28 1538.71 1378.28 1531.6 Q1378.28 1524.47 1376.45 1520.93 Q1374.65 1517.37 1371.02 1517.37 M1371.02 1513.66 Q1376.83 1513.66 1379.88 1518.27 Q1382.96 1522.85 1382.96 1531.6 Q1382.96 1540.33 1379.88 1544.94 Q1376.83 1549.52 1371.02 1549.52 Q1365.2 1549.52 1362.13 1544.94 Q1359.07 1540.33 1359.07 1531.6 Q1359.07 1522.85 1362.13 1518.27 Q1365.2 1513.66 1371.02 1513.66 Z" fill="#000000" fill-rule="nonzero" fill-opacity="1" /><path clip-path="url(#clip010)" d="M1715.07 1544.91 L1722.71 1544.91 L1722.71 1518.55 L1714.4 1520.21 L1714.4 1515.95 L1722.67 1514.29 L1727.34 1514.29 L1727.34 1544.91 L1734.98 1544.91 L1734.98 1548.85 L1715.07 1548.85 L1715.07 1544.91 Z" fill="#000000" fill-rule="nonzero" fill-opacity="1" /><path clip-path="url(#clip010)" d="M2073.02 1544.91 L2089.34 1544.91 L2089.34 1548.85 L2067.39 1548.85 L2067.39 1544.91 Q2070.06 1542.16 2074.64 1537.53 Q2079.25 1532.88 2080.43 1531.53 Q2082.67 1529.01 2083.55 1527.27 Q2084.45 1525.51 2084.45 1523.82 Q2084.45 1521.07 2082.51 1519.33 Q2080.59 1517.6 2077.49 1517.6 Q2075.29 1517.6 2072.83 1518.36 Q2070.4 1519.13 2067.63 1520.68 L2067.63 1515.95 Q2070.45 1514.82 2072.9 1514.24 Q2075.36 1513.66 2077.39 1513.66 Q2082.76 1513.66 2085.96 1516.35 Q2089.15 1519.03 2089.15 1523.52 Q2089.15 1525.65 2088.34 1527.57 Q2087.56 1529.47 2085.45 1532.07 Q2084.87 1532.74 2081.77 1535.95 Q2078.67 1539.15 2073.02 1544.91 Z" fill="#000000" fill-rule="nonzero" fill-opacity="1" /><polyline clip-path="url(#clip010)" style="stroke:#000000; stroke-linecap:round; stroke-linejoin:round; stroke-width:4; stroke-opacity:1; fill:none" points="147.478,1486.45 147.478,47.2441 "/>
<polyline clip-path="url(#clip010)" style="stroke:#000000; stroke-linecap:round; stroke-linejoin:round; stroke-width:4; stroke-opacity:1; fill:none" points="147.478,1473.32 166.376,1473.32 "/>
<polyline clip-path="url(#clip010)" style="stroke:#000000; stroke-linecap:round; stroke-linejoin:round; stroke-width:4; stroke-opacity:1; fill:none" points="147.478,1117.52 166.376,1117.52 "/>
<polyline clip-path="url(#clip010)" style="stroke:#000000; stroke-linecap:round; stroke-linejoin:round; stroke-width:4; stroke-opacity:1; fill:none" points="147.478,761.723 166.376,761.723 "/>
<polyline clip-path="url(#clip010)" style="stroke:#000000; stroke-linecap:round; stroke-linejoin:round; stroke-width:4; stroke-opacity:1; fill:none" points="147.478,405.925 166.376,405.925 "/>
<polyline clip-path="url(#clip010)" style="stroke:#000000; stroke-linecap:round; stroke-linejoin:round; stroke-width:4; stroke-opacity:1; fill:none" points="147.478,50.1271 166.376,50.1271 "/>
<path clip-path="url(#clip010)" d="M51.3625 1473.77 L81.0383 1473.77 L81.0383 1477.7 L51.3625 1477.7 L51.3625 1473.77 Z" fill="#000000" fill-rule="nonzero" fill-opacity="1" /><path clip-path="url(#clip010)" d="M95.1586 1486.66 L111.478 1486.66 L111.478 1490.6 L89.5336 1490.6 L89.5336 1486.66 Q92.1956 1483.91 96.7789 1479.28 Q101.385 1474.63 102.566 1473.28 Q104.811 1470.76 105.691 1469.02 Q106.594 1467.27 106.594 1465.58 Q106.594 1462.82 104.649 1461.08 Q102.728 1459.35 99.6261 1459.35 Q97.4271 1459.35 94.9734 1460.11 Q92.5428 1460.88 89.7651 1462.43 L89.7651 1457.7 Q92.5891 1456.57 95.0428 1455.99 Q97.4965 1455.41 99.5335 1455.41 Q104.904 1455.41 108.098 1458.1 Q111.293 1460.78 111.293 1465.27 Q111.293 1467.4 110.483 1469.33 Q109.696 1471.22 107.589 1473.82 Q107.01 1474.49 103.909 1477.7 Q100.807 1480.9 95.1586 1486.66 Z" fill="#000000" fill-rule="nonzero" fill-opacity="1" /><path clip-path="url(#clip010)" d="M50.9921 1117.97 L80.6679 1117.97 L80.6679 1121.91 L50.9921 1121.91 L50.9921 1117.97 Z" fill="#000000" fill-rule="nonzero" fill-opacity="1" /><path clip-path="url(#clip010)" d="M91.5706 1130.87 L99.2095 1130.87 L99.2095 1104.5 L90.8993 1106.17 L90.8993 1101.91 L99.1632 1100.24 L103.839 1100.24 L103.839 1130.87 L111.478 1130.87 L111.478 1134.8 L91.5706 1134.8 L91.5706 1130.87 Z" fill="#000000" fill-rule="nonzero" fill-opacity="1" /><path clip-path="url(#clip010)" d="M99.5335 747.521 Q95.9224 747.521 94.0937 751.086 Q92.2882 754.628 92.2882 761.757 Q92.2882 768.864 94.0937 772.429 Q95.9224 775.97 99.5335 775.97 Q103.168 775.97 104.973 772.429 Q106.802 768.864 106.802 761.757 Q106.802 754.628 104.973 751.086 Q103.168 747.521 99.5335 747.521 M99.5335 743.818 Q105.344 743.818 108.399 748.424 Q111.478 753.007 111.478 761.757 Q111.478 770.484 108.399 775.091 Q105.344 779.674 99.5335 779.674 Q93.7234 779.674 90.6447 775.091 Q87.5892 770.484 87.5892 761.757 Q87.5892 753.007 90.6447 748.424 Q93.7234 743.818 99.5335 743.818 Z" fill="#000000" fill-rule="nonzero" fill-opacity="1" /><path clip-path="url(#clip010)" d="M91.5706 419.27 L99.2095 419.27 L99.2095 392.904 L90.8993 394.571 L90.8993 390.312 L99.1632 388.645 L103.839 388.645 L103.839 419.27 L111.478 419.27 L111.478 423.205 L91.5706 423.205 L91.5706 419.27 Z" fill="#000000" fill-rule="nonzero" fill-opacity="1" /><path clip-path="url(#clip010)" d="M95.1586 63.4719 L111.478 63.4719 L111.478 67.4071 L89.5336 67.4071 L89.5336 63.4719 Q92.1956 60.7173 96.7789 56.0877 Q101.385 51.4349 102.566 50.0923 Q104.811 47.5692 105.691 45.8331 Q106.594 44.0738 106.594 42.384 Q106.594 39.6294 104.649 37.8933 Q102.728 36.1572 99.6261 36.1572 Q97.4271 36.1572 94.9734 36.9211 Q92.5428 37.685 89.7651 39.2359 L89.7651 34.5137 Q92.5891 33.3795 95.0428 32.8008 Q97.4965 32.2221 99.5335 32.2221 Q104.904 32.2221 108.098 34.9072 Q111.293 37.5924 111.293 42.0831 Q111.293 44.2127 110.483 46.134 Q109.696 48.0322 107.589 50.6247 Q107.01 51.296 103.909 54.5136 Q100.807 57.708 95.1586 63.4719 Z" fill="#000000" fill-rule="nonzero" fill-opacity="1" /><circle clip-path="url(#clip012)" cx="1034.07" cy="634.834" r="14.4" fill="#009af9" fill-rule="evenodd" fill-opacity="0.5" stroke="#000000" stroke-opacity="0.5" stroke-width="3.2"/>
<circle clip-path="url(#clip012)" cx="209.891" cy="290.724" r="14.4" fill="#009af9" fill-rule="evenodd" fill-opacity="0.5" stroke="#000000" stroke-opacity="0.5" stroke-width="3.2"/>
<circle clip-path="url(#clip012)" cx="1166.46" cy="981.395" r="14.4" fill="#009af9" fill-rule="evenodd" fill-opacity="0.5" stroke="#000000" stroke-opacity="0.5" stroke-width="3.2"/>
<circle clip-path="url(#clip012)" cx="881.314" cy="428.727" r="14.4" fill="#009af9" fill-rule="evenodd" fill-opacity="0.5" stroke="#000000" stroke-opacity="0.5" stroke-width="3.2"/>
<circle clip-path="url(#clip012)" cx="1333.55" cy="430.148" r="14.4" fill="#009af9" fill-rule="evenodd" fill-opacity="0.5" stroke="#000000" stroke-opacity="0.5" stroke-width="3.2"/>
<circle clip-path="url(#clip012)" cx="1380.83" cy="219.04" r="14.4" fill="#009af9" fill-rule="evenodd" fill-opacity="0.5" stroke="#000000" stroke-opacity="0.5" stroke-width="3.2"/>
<circle clip-path="url(#clip012)" cx="1056.42" cy="338.385" r="14.4" fill="#009af9" fill-rule="evenodd" fill-opacity="0.5" stroke="#000000" stroke-opacity="0.5" stroke-width="3.2"/>
<circle clip-path="url(#clip012)" cx="1737.67" cy="623.349" r="14.4" fill="#009af9" fill-rule="evenodd" fill-opacity="0.5" stroke="#000000" stroke-opacity="0.5" stroke-width="3.2"/>
<circle clip-path="url(#clip012)" cx="1070.04" cy="782.29" r="14.4" fill="#009af9" fill-rule="evenodd" fill-opacity="0.5" stroke="#000000" stroke-opacity="0.5" stroke-width="3.2"/>
<circle clip-path="url(#clip012)" cx="1819.04" cy="1107.13" r="14.4" fill="#009af9" fill-rule="evenodd" fill-opacity="0.5" stroke="#000000" stroke-opacity="0.5" stroke-width="3.2"/>
<circle clip-path="url(#clip012)" cx="1842.28" cy="611.401" r="14.4" fill="#009af9" fill-rule="evenodd" fill-opacity="0.5" stroke="#000000" stroke-opacity="0.5" stroke-width="3.2"/>
<circle clip-path="url(#clip012)" cx="700.506" cy="334.15" r="14.4" fill="#009af9" fill-rule="evenodd" fill-opacity="0.5" stroke="#000000" stroke-opacity="0.5" stroke-width="3.2"/>
<circle clip-path="url(#clip012)" cx="1728.08" cy="997.623" r="14.4" fill="#009af9" fill-rule="evenodd" fill-opacity="0.5" stroke="#000000" stroke-opacity="0.5" stroke-width="3.2"/>
<circle clip-path="url(#clip012)" cx="1932.27" cy="1195.3" r="14.4" fill="#009af9" fill-rule="evenodd" fill-opacity="0.5" stroke="#000000" stroke-opacity="0.5" stroke-width="3.2"/>
<circle clip-path="url(#clip012)" cx="1110.87" cy="149.548" r="14.4" fill="#009af9" fill-rule="evenodd" fill-opacity="0.5" stroke="#000000" stroke-opacity="0.5" stroke-width="3.2"/>
<circle clip-path="url(#clip012)" cx="1663.76" cy="487.618" r="14.4" fill="#009af9" fill-rule="evenodd" fill-opacity="0.5" stroke="#000000" stroke-opacity="0.5" stroke-width="3.2"/>
<circle clip-path="url(#clip012)" cx="2126.41" cy="368.87" r="14.4" fill="#009af9" fill-rule="evenodd" fill-opacity="0.5" stroke="#000000" stroke-opacity="0.5" stroke-width="3.2"/>
<circle clip-path="url(#clip012)" cx="1498.64" cy="363.393" r="14.4" fill="#009af9" fill-rule="evenodd" fill-opacity="0.5" stroke="#000000" stroke-opacity="0.5" stroke-width="3.2"/>
<circle clip-path="url(#clip012)" cx="2162.23" cy="1284.68" r="14.4" fill="#009af9" fill-rule="evenodd" fill-opacity="0.5" stroke="#000000" stroke-opacity="0.5" stroke-width="3.2"/>
<circle clip-path="url(#clip012)" cx="1518.26" cy="1325.34" r="14.4" fill="#009af9" fill-rule="evenodd" fill-opacity="0.5" stroke="#000000" stroke-opacity="0.5" stroke-width="3.2"/>
<circle clip-path="url(#clip012)" cx="1693.58" cy="676.65" r="14.4" fill="#009af9" fill-rule="evenodd" fill-opacity="0.5" stroke="#000000" stroke-opacity="0.5" stroke-width="3.2"/>
<circle clip-path="url(#clip012)" cx="1085.41" cy="1445.72" r="14.4" fill="#009af9" fill-rule="evenodd" fill-opacity="0.5" stroke="#000000" stroke-opacity="0.5" stroke-width="3.2"/>
<circle clip-path="url(#clip012)" cx="1557.44" cy="87.9763" r="14.4" fill="#009af9" fill-rule="evenodd" fill-opacity="0.5" stroke="#000000" stroke-opacity="0.5" stroke-width="3.2"/>
<circle clip-path="url(#clip012)" cx="1719.3" cy="1117.29" r="14.4" fill="#009af9" fill-rule="evenodd" fill-opacity="0.5" stroke="#000000" stroke-opacity="0.5" stroke-width="3.2"/>
<circle clip-path="url(#clip012)" cx="2290.34" cy="538.536" r="14.4" fill="#009af9" fill-rule="evenodd" fill-opacity="0.5" stroke="#000000" stroke-opacity="0.5" stroke-width="3.2"/>
<circle clip-path="url(#clip012)" cx="1218.06" cy="1209.3" r="14.4" fill="#009af9" fill-rule="evenodd" fill-opacity="0.5" stroke="#000000" stroke-opacity="0.5" stroke-width="3.2"/>
<circle clip-path="url(#clip012)" cx="1584.09" cy="864.901" r="14.4" fill="#009af9" fill-rule="evenodd" fill-opacity="0.5" stroke="#000000" stroke-opacity="0.5" stroke-width="3.2"/>
<circle clip-path="url(#clip012)" cx="1456.24" cy="1177.38" r="14.4" fill="#009af9" fill-rule="evenodd" fill-opacity="0.5" stroke="#000000" stroke-opacity="0.5" stroke-width="3.2"/>
<circle clip-path="url(#clip012)" cx="626.634" cy="1054.62" r="14.4" fill="#009af9" fill-rule="evenodd" fill-opacity="0.5" stroke="#000000" stroke-opacity="0.5" stroke-width="3.2"/>
<circle clip-path="url(#clip012)" cx="1502.21" cy="891.309" r="14.4" fill="#009af9" fill-rule="evenodd" fill-opacity="0.5" stroke="#000000" stroke-opacity="0.5" stroke-width="3.2"/>
<path clip-path="url(#clip012)" d="M209.891 290.724 L626.634 1054.62 L1085.41 1445.72 L2162.23 1284.68 L2290.34 538.536 L2126.41 368.87 L1557.44 87.9763 L1110.87 149.548 L209.891 290.724 L209.891 290.724  Z" fill="#e26f46" fill-rule="evenodd" fill-opacity="0.2"/>
<polyline clip-path="url(#clip012)" style="stroke:#000000; stroke-linecap:round; stroke-linejoin:round; stroke-width:4; stroke-opacity:0.2; fill:none" points="209.891,290.724 626.634,1054.62 1085.41,1445.72 2162.23,1284.68 2290.34,538.536 2126.41,368.87 1557.44,87.9763 1110.87,149.548 209.891,290.724 "/>
</svg>
