<?xml version="1.0" encoding="utf-8"?>
<svg xmlns="http://www.w3.org/2000/svg" xmlns:xlink="http://www.w3.org/1999/xlink" width="600" height="400" viewBox="0 0 2400 1600">
<defs>
  <clipPath id="clip320">
    <rect x="0" y="0" width="2400" height="1600"/>
  </clipPath>
</defs>
<path clip-path="url(#clip320)" d="M0 1600 L2400 1600 L2400 0 L0 0  Z" fill="#ffffff" fill-rule="evenodd" fill-opacity="1"/>
<defs>
  <clipPath id="clip321">
    <rect x="147" y="47" width="2206" height="1440"/>
  </clipPath>
</defs>
<path clip-path="url(#clip320)" d="M147.478 1486.45 L2352.76 1486.45 L2352.76 47.2441 L147.478 47.2441  Z" fill="#ffffff" fill-rule="evenodd" fill-opacity="1"/>
<polyline clip-path="url(#clip321)" style="stroke:#000000; stroke-linecap:round; stroke-linejoin:round; stroke-width:2; stroke-opacity:0.1; fill:none" points="468.981,1486.45 468.981,47.2441 "/>
<polyline clip-path="url(#clip321)" style="stroke:#000000; stroke-linecap:round; stroke-linejoin:round; stroke-width:2; stroke-opacity:0.1; fill:none" points="1053.27,1486.45 1053.27,47.2441 "/>
<polyline clip-path="url(#clip321)" style="stroke:#000000; stroke-linecap:round; stroke-linejoin:round; stroke-width:2; stroke-opacity:0.1; fill:none" points="1637.55,1486.45 1637.55,47.2441 "/>
<polyline clip-path="url(#clip321)" style="stroke:#000000; stroke-linecap:round; stroke-linejoin:round; stroke-width:2; stroke-opacity:0.1; fill:none" points="2221.83,1486.45 2221.83,47.2441 "/>
<polyline clip-path="url(#clip321)" style="stroke:#000000; stroke-linecap:round; stroke-linejoin:round; stroke-width:2; stroke-opacity:0.1; fill:none" points="147.478,1370.9 2352.76,1370.9 "/>
<polyline clip-path="url(#clip321)" style="stroke:#000000; stroke-linecap:round; stroke-linejoin:round; stroke-width:2; stroke-opacity:0.1; fill:none" points="147.478,1034.5 2352.76,1034.5 "/>
<polyline clip-path="url(#clip321)" style="stroke:#000000; stroke-linecap:round; stroke-linejoin:round; stroke-width:2; stroke-opacity:0.1; fill:none" points="147.478,698.087 2352.76,698.087 "/>
<polyline clip-path="url(#clip321)" style="stroke:#000000; stroke-linecap:round; stroke-linejoin:round; stroke-width:2; stroke-opacity:0.1; fill:none" points="147.478,361.678 2352.76,361.678 "/>
<polyline clip-path="url(#clip320)" style="stroke:#000000; stroke-linecap:round; stroke-linejoin:round; stroke-width:4; stroke-opacity:1; fill:none" points="147.478,1486.45 2352.76,1486.45 "/>
<polyline clip-path="url(#clip320)" style="stroke:#000000; stroke-linecap:round; stroke-linejoin:round; stroke-width:4; stroke-opacity:1; fill:none" points="468.981,1486.45 468.981,1467.55 "/>
<polyline clip-path="url(#clip320)" style="stroke:#000000; stroke-linecap:round; stroke-linejoin:round; stroke-width:4; stroke-opacity:1; fill:none" points="1053.27,1486.45 1053.27,1467.55 "/>
<polyline clip-path="url(#clip320)" style="stroke:#000000; stroke-linecap:round; stroke-linejoin:round; stroke-width:4; stroke-opacity:1; fill:none" points="1637.55,1486.45 1637.55,1467.55 "/>
<polyline clip-path="url(#clip320)" style="stroke:#000000; stroke-linecap:round; stroke-linejoin:round; stroke-width:4; stroke-opacity:1; fill:none" points="2221.83,1486.45 2221.83,1467.55 "/>
<path clip-path="url(#clip320)" d="M438.738 1532.02 L468.414 1532.02 L468.414 1535.95 L438.738 1535.95 L438.738 1532.02 Z" fill="#000000" fill-rule="nonzero" fill-opacity="1" /><path clip-path="url(#clip320)" d="M479.317 1544.91 L486.956 1544.91 L486.956 1518.55 L478.645 1520.21 L478.645 1515.95 L486.909 1514.29 L491.585 1514.29 L491.585 1544.91 L499.224 1544.91 L499.224 1548.85 L479.317 1548.85 L479.317 1544.91 Z" fill="#000000" fill-rule="nonzero" fill-opacity="1" /><path clip-path="url(#clip320)" d="M1053.27 1517.37 Q1049.65 1517.37 1047.83 1520.93 Q1046.02 1524.47 1046.02 1531.6 Q1046.02 1538.71 1047.83 1542.27 Q1049.65 1545.82 1053.27 1545.82 Q1056.9 1545.82 1058.71 1542.27 Q1060.53 1538.71 1060.53 1531.6 Q1060.53 1524.47 1058.71 1520.93 Q1056.9 1517.37 1053.27 1517.37 M1053.27 1513.66 Q1059.08 1513.66 1062.13 1518.27 Q1065.21 1522.85 1065.21 1531.6 Q1065.21 1540.33 1062.13 1544.94 Q1059.08 1549.52 1053.27 1549.52 Q1047.46 1549.52 1044.38 1544.94 Q1041.32 1540.33 1041.32 1531.6 Q1041.32 1522.85 1044.38 1518.27 Q1047.46 1513.66 1053.27 1513.66 Z" fill="#000000" fill-rule="nonzero" fill-opacity="1" /><path clip-path="url(#clip320)" d="M1627.93 1544.91 L1635.57 1544.91 L1635.57 1518.55 L1627.26 1520.21 L1627.26 1515.95 L1635.52 1514.29 L1640.2 1514.29 L1640.2 1544.91 L1647.84 1544.91 L1647.84 1548.85 L1627.93 1548.85 L1627.93 1544.91 Z" fill="#000000" fill-rule="nonzero" fill-opacity="1" /><path clip-path="url(#clip320)" d="M2216.49 1544.91 L2232.81 1544.91 L2232.81 1548.85 L2210.86 1548.85 L2210.86 1544.91 Q2213.52 1542.16 2218.11 1537.53 Q2222.71 1532.88 2223.9 1531.53 Q2226.14 1529.01 2227.02 1527.27 Q2227.92 1525.51 2227.92 1523.82 Q2227.92 1521.07 2225.98 1519.33 Q2224.06 1517.6 2220.96 1517.6 Q2218.76 1517.6 2216.3 1518.36 Q2213.87 1519.13 2211.09 1520.68 L2211.09 1515.95 Q2213.92 1514.82 2216.37 1514.24 Q2218.83 1513.66 2220.86 1513.66 Q2226.23 1513.66 2229.43 1516.35 Q2232.62 1519.03 2232.62 1523.52 Q2232.62 1525.65 2231.81 1527.57 Q2231.02 1529.47 2228.92 1532.07 Q2228.34 1532.74 2225.24 1535.95 Q2222.14 1539.15 2216.49 1544.91 Z" fill="#000000" fill-rule="nonzero" fill-opacity="1" /><polyline clip-path="url(#clip320)" style="stroke:#000000; stroke-linecap:round; stroke-linejoin:round; stroke-width:4; stroke-opacity:1; fill:none" points="147.478,1486.45 147.478,47.2441 "/>
<polyline clip-path="url(#clip320)" style="stroke:#000000; stroke-linecap:round; stroke-linejoin:round; stroke-width:4; stroke-opacity:1; fill:none" points="147.478,1370.9 166.376,1370.9 "/>
<polyline clip-path="url(#clip320)" style="stroke:#000000; stroke-linecap:round; stroke-linejoin:round; stroke-width:4; stroke-opacity:1; fill:none" points="147.478,1034.5 166.376,1034.5 "/>
<polyline clip-path="url(#clip320)" style="stroke:#000000; stroke-linecap:round; stroke-linejoin:round; stroke-width:4; stroke-opacity:1; fill:none" points="147.478,698.087 166.376,698.087 "/>
<polyline clip-path="url(#clip320)" style="stroke:#000000; stroke-linecap:round; stroke-linejoin:round; stroke-width:4; stroke-opacity:1; fill:none" points="147.478,361.678 166.376,361.678 "/>
<path clip-path="url(#clip320)" d="M50.9921 1371.36 L80.6679 1371.36 L80.6679 1375.29 L50.9921 1375.29 L50.9921 1371.36 Z" fill="#000000" fill-rule="nonzero" fill-opacity="1" /><path clip-path="url(#clip320)" d="M91.5706 1384.25 L99.2095 1384.25 L99.2095 1357.88 L90.8993 1359.55 L90.8993 1355.29 L99.1632 1353.62 L103.839 1353.62 L103.839 1384.25 L111.478 1384.25 L111.478 1388.18 L91.5706 1388.18 L91.5706 1384.25 Z" fill="#000000" fill-rule="nonzero" fill-opacity="1" /><path clip-path="url(#clip320)" d="M99.5335 1020.29 Q95.9224 1020.29 94.0937 1023.86 Q92.2882 1027.4 92.2882 1034.53 Q92.2882 1041.64 94.0937 1045.2 Q95.9224 1048.74 99.5335 1048.74 Q103.168 1048.74 104.973 1045.2 Q106.802 1041.64 106.802 1034.53 Q106.802 1027.4 104.973 1023.86 Q103.168 1020.29 99.5335 1020.29 M99.5335 1016.59 Q105.344 1016.59 108.399 1021.2 Q111.478 1025.78 111.478 1034.53 Q111.478 1043.26 108.399 1047.86 Q105.344 1052.45 99.5335 1052.45 Q93.7234 1052.45 90.6447 1047.86 Q87.5892 1043.26 87.5892 1034.53 Q87.5892 1025.78 90.6447 1021.2 Q93.7234 1016.59 99.5335 1016.59 Z" fill="#000000" fill-rule="nonzero" fill-opacity="1" /><path clip-path="url(#clip320)" d="M91.5706 711.432 L99.2095 711.432 L99.2095 685.066 L90.8993 686.733 L90.8993 682.473 L99.1632 680.807 L103.839 680.807 L103.839 711.432 L111.478 711.432 L111.478 715.367 L91.5706 715.367 L91.5706 711.432 Z" fill="#000000" fill-rule="nonzero" fill-opacity="1" /><path clip-path="url(#clip320)" d="M95.1586 375.023 L111.478 375.023 L111.478 378.958 L89.5336 378.958 L89.5336 375.023 Q92.1956 372.268 96.7789 367.638 Q101.385 362.986 102.566 361.643 Q104.811 359.12 105.691 357.384 Q106.594 355.625 106.594 353.935 Q106.594 351.18 104.649 349.444 Q102.728 347.708 99.6261 347.708 Q97.4271 347.708 94.9734 348.472 Q92.5428 349.236 89.7651 350.787 L89.7651 346.064 Q92.5891 344.93 95.0428 344.351 Q97.4965 343.773 99.5335 343.773 Q104.904 343.773 108.098 346.458 Q111.293 349.143 111.293 353.634 Q111.293 355.763 110.483 357.685 Q109.696 359.583 107.589 362.175 Q107.01 362.847 103.909 366.064 Q100.807 369.259 95.1586 375.023 Z" fill="#000000" fill-rule="nonzero" fill-opacity="1" /><circle clip-path="url(#clip321)" cx="1060.62" cy="760.776" r="14.4" fill="#009af9" fill-rule="evenodd" fill-opacity="0.5" stroke="#000000" stroke-opacity="0.5" stroke-width="3.2"/>
<circle clip-path="url(#clip321)" cx="246.15" cy="312.015" r="14.4" fill="#009af9" fill-rule="evenodd" fill-opacity="0.5" stroke="#000000" stroke-opacity="0.5" stroke-width="3.2"/>
<circle clip-path="url(#clip321)" cx="1205.62" cy="144.063" r="14.4" fill="#009af9" fill-rule="evenodd" fill-opacity="0.5" stroke="#000000" stroke-opacity="0.5" stroke-width="3.2"/>
<circle clip-path="url(#clip321)" cx="886.832" cy="777.392" r="14.4" fill="#009af9" fill-rule="evenodd" fill-opacity="0.5" stroke="#000000" stroke-opacity="0.5" stroke-width="3.2"/>
<circle clip-path="url(#clip321)" cx="223.671" cy="1266.89" r="14.4" fill="#009af9" fill-rule="evenodd" fill-opacity="0.5" stroke="#000000" stroke-opacity="0.5" stroke-width="3.2"/>
<circle clip-path="url(#clip321)" cx="918.067" cy="1273.54" r="14.4" fill="#009af9" fill-rule="evenodd" fill-opacity="0.5" stroke="#000000" stroke-opacity="0.5" stroke-width="3.2"/>
<circle clip-path="url(#clip321)" cx="241.194" cy="911.895" r="14.4" fill="#009af9" fill-rule="evenodd" fill-opacity="0.5" stroke="#000000" stroke-opacity="0.5" stroke-width="3.2"/>
<circle clip-path="url(#clip321)" cx="1764.79" cy="1445.72" r="14.4" fill="#009af9" fill-rule="evenodd" fill-opacity="0.5" stroke="#000000" stroke-opacity="0.5" stroke-width="3.2"/>
<circle clip-path="url(#clip321)" cx="428.133" cy="1364.46" r="14.4" fill="#009af9" fill-rule="evenodd" fill-opacity="0.5" stroke="#000000" stroke-opacity="0.5" stroke-width="3.2"/>
<circle clip-path="url(#clip321)" cx="2290.34" cy="796.242" r="14.4" fill="#009af9" fill-rule="evenodd" fill-opacity="0.5" stroke="#000000" stroke-opacity="0.5" stroke-width="3.2"/>
<circle clip-path="url(#clip321)" cx="1007.98" cy="597.366" r="14.4" fill="#009af9" fill-rule="evenodd" fill-opacity="0.5" stroke="#000000" stroke-opacity="0.5" stroke-width="3.2"/>
<circle clip-path="url(#clip321)" cx="1140.36" cy="829.146" r="14.4" fill="#009af9" fill-rule="evenodd" fill-opacity="0.5" stroke="#000000" stroke-opacity="0.5" stroke-width="3.2"/>
<circle clip-path="url(#clip321)" cx="1914.09" cy="748.649" r="14.4" fill="#009af9" fill-rule="evenodd" fill-opacity="0.5" stroke="#000000" stroke-opacity="0.5" stroke-width="3.2"/>
<circle clip-path="url(#clip321)" cx="681.993" cy="1199.57" r="14.4" fill="#009af9" fill-rule="evenodd" fill-opacity="0.5" stroke="#000000" stroke-opacity="0.5" stroke-width="3.2"/>
<circle clip-path="url(#clip321)" cx="871.011" cy="87.9763" r="14.4" fill="#009af9" fill-rule="evenodd" fill-opacity="0.5" stroke="#000000" stroke-opacity="0.5" stroke-width="3.2"/>
<circle clip-path="url(#clip321)" cx="285.583" cy="1266.32" r="14.4" fill="#009af9" fill-rule="evenodd" fill-opacity="0.5" stroke="#000000" stroke-opacity="0.5" stroke-width="3.2"/>
<circle clip-path="url(#clip321)" cx="209.891" cy="1054.96" r="14.4" fill="#009af9" fill-rule="evenodd" fill-opacity="0.5" stroke="#000000" stroke-opacity="0.5" stroke-width="3.2"/>
<circle clip-path="url(#clip321)" cx="603.536" cy="1384.53" r="14.4" fill="#009af9" fill-rule="evenodd" fill-opacity="0.5" stroke="#000000" stroke-opacity="0.5" stroke-width="3.2"/>
<circle clip-path="url(#clip321)" cx="1289.12" cy="1091.39" r="14.4" fill="#009af9" fill-rule="evenodd" fill-opacity="0.5" stroke="#000000" stroke-opacity="0.5" stroke-width="3.2"/>
<circle clip-path="url(#clip321)" cx="1494.99" cy="1423.16" r="14.4" fill="#009af9" fill-rule="evenodd" fill-opacity="0.5" stroke="#000000" stroke-opacity="0.5" stroke-width="3.2"/>
<circle clip-path="url(#clip321)" cx="1728.41" cy="772.868" r="14.4" fill="#009af9" fill-rule="evenodd" fill-opacity="0.5" stroke="#000000" stroke-opacity="0.5" stroke-width="3.2"/>
<circle clip-path="url(#clip321)" cx="1551" cy="693.104" r="14.4" fill="#009af9" fill-rule="evenodd" fill-opacity="0.5" stroke="#000000" stroke-opacity="0.5" stroke-width="3.2"/>
<circle clip-path="url(#clip321)" cx="1063.55" cy="775.395" r="14.4" fill="#009af9" fill-rule="evenodd" fill-opacity="0.5" stroke="#000000" stroke-opacity="0.5" stroke-width="3.2"/>
<circle clip-path="url(#clip321)" cx="2273.08" cy="900.017" r="14.4" fill="#009af9" fill-rule="evenodd" fill-opacity="0.5" stroke="#000000" stroke-opacity="0.5" stroke-width="3.2"/>
<circle clip-path="url(#clip321)" cx="1485.35" cy="781.478" r="14.4" fill="#009af9" fill-rule="evenodd" fill-opacity="0.5" stroke="#000000" stroke-opacity="0.5" stroke-width="3.2"/>
<circle clip-path="url(#clip321)" cx="460.568" cy="1020.51" r="14.4" fill="#009af9" fill-rule="evenodd" fill-opacity="0.5" stroke="#000000" stroke-opacity="0.5" stroke-width="3.2"/>
<circle clip-path="url(#clip321)" cx="475.684" cy="1207.36" r="14.4" fill="#009af9" fill-rule="evenodd" fill-opacity="0.5" stroke="#000000" stroke-opacity="0.5" stroke-width="3.2"/>
<circle clip-path="url(#clip321)" cx="971.737" cy="778.249" r="14.4" fill="#009af9" fill-rule="evenodd" fill-opacity="0.5" stroke="#000000" stroke-opacity="0.5" stroke-width="3.2"/>
<circle clip-path="url(#clip321)" cx="488.771" cy="1229.67" r="14.4" fill="#009af9" fill-rule="evenodd" fill-opacity="0.5" stroke="#000000" stroke-opacity="0.5" stroke-width="3.2"/>
<circle clip-path="url(#clip321)" cx="1319.47" cy="1082.52" r="14.4" fill="#009af9" fill-rule="evenodd" fill-opacity="0.5" stroke="#000000" stroke-opacity="0.5" stroke-width="3.2"/>
<path clip-path="url(#clip321)" d="M209.891 1054.96 L223.671 1266.89 L428.133 1364.46 L603.536 1384.53 L1764.79 1445.72 L2273.08 900.017 L2290.34 796.242 L1205.62 144.063 L871.011 87.9763 L246.15 312.015 L209.891 1054.96 L209.891 1054.96  Z" fill="#e26f46" fill-rule="evenodd" fill-opacity="0.2"/>
<polyline clip-path="url(#clip321)" style="stroke:#000000; stroke-linecap:round; stroke-linejoin:round; stroke-width:4; stroke-opacity:0.2; fill:none" points="209.891,1054.96 223.671,1266.89 428.133,1364.46 603.536,1384.53 1764.79,1445.72 2273.08,900.017 2290.34,796.242 1205.62,144.063 871.011,87.9763 246.15,312.015 209.891,1054.96 "/>
</svg>
