<?xml version="1.0" encoding="utf-8"?>
<svg xmlns="http://www.w3.org/2000/svg" xmlns:xlink="http://www.w3.org/1999/xlink" width="600" height="400" viewBox="0 0 2400 1600">
<defs>
  <clipPath id="clip300">
    <rect x="0" y="0" width="2400" height="1600"/>
  </clipPath>
</defs>
<path clip-path="url(#clip300)" d="M0 1600 L2400 1600 L2400 0 L0 0  Z" fill="#ffffff" fill-rule="evenodd" fill-opacity="1"/>
<defs>
  <clipPath id="clip301">
    <rect x="147" y="47" width="2206" height="1440"/>
  </clipPath>
</defs>
<path clip-path="url(#clip300)" d="M147.478 1486.45 L2352.76 1486.45 L2352.76 47.2441 L147.478 47.2441  Z" fill="#ffffff" fill-rule="evenodd" fill-opacity="1"/>
<polyline clip-path="url(#clip301)" style="stroke:#000000; stroke-linecap:round; stroke-linejoin:round; stroke-width:2; stroke-opacity:0.1; fill:none" points="624.042,1486.45 624.042,47.2441 "/>
<polyline clip-path="url(#clip301)" style="stroke:#000000; stroke-linecap:round; stroke-linejoin:round; stroke-width:2; stroke-opacity:0.1; fill:none" points="1184.65,1486.45 1184.65,47.2441 "/>
<polyline clip-path="url(#clip301)" style="stroke:#000000; stroke-linecap:round; stroke-linejoin:round; stroke-width:2; stroke-opacity:0.1; fill:none" points="1745.26,1486.45 1745.26,47.2441 "/>
<polyline clip-path="url(#clip301)" style="stroke:#000000; stroke-linecap:round; stroke-linejoin:round; stroke-width:2; stroke-opacity:0.1; fill:none" points="2305.87,1486.45 2305.87,47.2441 "/>
<polyline clip-path="url(#clip301)" style="stroke:#000000; stroke-linecap:round; stroke-linejoin:round; stroke-width:2; stroke-opacity:0.1; fill:none" points="147.478,1302.76 2352.76,1302.76 "/>
<polyline clip-path="url(#clip301)" style="stroke:#000000; stroke-linecap:round; stroke-linejoin:round; stroke-width:2; stroke-opacity:0.1; fill:none" points="147.478,977.749 2352.76,977.749 "/>
<polyline clip-path="url(#clip301)" style="stroke:#000000; stroke-linecap:round; stroke-linejoin:round; stroke-width:2; stroke-opacity:0.1; fill:none" points="147.478,652.739 2352.76,652.739 "/>
<polyline clip-path="url(#clip301)" style="stroke:#000000; stroke-linecap:round; stroke-linejoin:round; stroke-width:2; stroke-opacity:0.1; fill:none" points="147.478,327.729 2352.76,327.729 "/>
<polyline clip-path="url(#clip300)" style="stroke:#000000; stroke-linecap:round; stroke-linejoin:round; stroke-width:4; stroke-opacity:1; fill:none" points="147.478,1486.45 2352.76,1486.45 "/>
<polyline clip-path="url(#clip300)" style="stroke:#000000; stroke-linecap:round; stroke-linejoin:round; stroke-width:4; stroke-opacity:1; fill:none" points="624.042,1486.45 624.042,1467.55 "/>
<polyline clip-path="url(#clip300)" style="stroke:#000000; stroke-linecap:round; stroke-linejoin:round; stroke-width:4; stroke-opacity:1; fill:none" points="1184.65,1486.45 1184.65,1467.55 "/>
<polyline clip-path="url(#clip300)" style="stroke:#000000; stroke-linecap:round; stroke-linejoin:round; stroke-width:4; stroke-opacity:1; fill:none" points="1745.26,1486.45 1745.26,1467.55 "/>
<polyline clip-path="url(#clip300)" style="stroke:#000000; stroke-linecap:round; stroke-linejoin:round; stroke-width:4; stroke-opacity:1; fill:none" points="2305.87,1486.45 2305.87,1467.55 "/>
<path clip-path="url(#clip300)" d="M593.799 1532.02 L623.475 1532.02 L623.475 1535.95 L593.799 1535.95 L593.799 1532.02 Z" fill="#000000" fill-rule="nonzero" fill-opacity="1" /><path clip-path="url(#clip300)" d="M634.377 1544.91 L642.016 1544.91 L642.016 1518.55 L633.706 1520.21 L633.706 1515.95 L641.97 1514.29 L646.646 1514.29 L646.646 1544.91 L654.285 1544.91 L654.285 1548.85 L634.377 1548.85 L634.377 1544.91 Z" fill="#000000" fill-rule="nonzero" fill-opacity="1" /><path clip-path="url(#clip300)" d="M1184.65 1517.37 Q1181.04 1517.37 1179.21 1520.93 Q1177.41 1524.47 1177.41 1531.6 Q1177.41 1538.71 1179.21 1542.27 Q1181.04 1545.82 1184.65 1545.82 Q1188.29 1545.82 1190.09 1542.27 Q1191.92 1538.71 1191.92 1531.6 Q1191.92 1524.47 1190.09 1520.93 Q1188.29 1517.37 1184.65 1517.37 M1184.65 1513.66 Q1190.46 1513.66 1193.52 1518.27 Q1196.6 1522.85 1196.6 1531.6 Q1196.6 1540.33 1193.52 1544.94 Q1190.46 1549.52 1184.65 1549.52 Q1178.84 1549.52 1175.76 1544.94 Q1172.71 1540.33 1172.71 1531.6 Q1172.71 1522.85 1175.76 1518.27 Q1178.84 1513.66 1184.65 1513.66 Z" fill="#000000" fill-rule="nonzero" fill-opacity="1" /><path clip-path="url(#clip300)" d="M1735.64 1544.91 L1743.28 1544.91 L1743.28 1518.55 L1734.97 1520.21 L1734.97 1515.95 L1743.24 1514.29 L1747.91 1514.29 L1747.91 1544.91 L1755.55 1544.91 L1755.55 1548.85 L1735.64 1548.85 L1735.64 1544.91 Z" fill="#000000" fill-rule="nonzero" fill-opacity="1" /><path clip-path="url(#clip300)" d="M2300.53 1544.91 L2316.85 1544.91 L2316.85 1548.85 L2294.9 1548.85 L2294.9 1544.91 Q2297.56 1542.16 2302.15 1537.53 Q2306.75 1532.88 2307.93 1531.53 Q2310.18 1529.01 2311.06 1527.27 Q2311.96 1525.51 2311.96 1523.82 Q2311.96 1521.07 2310.02 1519.33 Q2308.1 1517.6 2304.99 1517.6 Q2302.79 1517.6 2300.34 1518.36 Q2297.91 1519.13 2295.13 1520.68 L2295.13 1515.95 Q2297.96 1514.82 2300.41 1514.24 Q2302.86 1513.66 2304.9 1513.66 Q2310.27 1513.66 2313.47 1516.35 Q2316.66 1519.03 2316.66 1523.52 Q2316.66 1525.65 2315.85 1527.57 Q2315.06 1529.47 2312.96 1532.07 Q2312.38 1532.74 2309.28 1535.95 Q2306.17 1539.15 2300.53 1544.91 Z" fill="#000000" fill-rule="nonzero" fill-opacity="1" /><polyline clip-path="url(#clip300)" style="stroke:#000000; stroke-linecap:round; stroke-linejoin:round; stroke-width:4; stroke-opacity:1; fill:none" points="147.478,1486.45 147.478,47.2441 "/>
<polyline clip-path="url(#clip300)" style="stroke:#000000; stroke-linecap:round; stroke-linejoin:round; stroke-width:4; stroke-opacity:1; fill:none" points="147.478,1302.76 166.376,1302.76 "/>
<polyline clip-path="url(#clip300)" style="stroke:#000000; stroke-linecap:round; stroke-linejoin:round; stroke-width:4; stroke-opacity:1; fill:none" points="147.478,977.749 166.376,977.749 "/>
<polyline clip-path="url(#clip300)" style="stroke:#000000; stroke-linecap:round; stroke-linejoin:round; stroke-width:4; stroke-opacity:1; fill:none" points="147.478,652.739 166.376,652.739 "/>
<polyline clip-path="url(#clip300)" style="stroke:#000000; stroke-linecap:round; stroke-linejoin:round; stroke-width:4; stroke-opacity:1; fill:none" points="147.478,327.729 166.376,327.729 "/>
<path clip-path="url(#clip300)" d="M51.3625 1303.21 L81.0383 1303.21 L81.0383 1307.15 L51.3625 1307.15 L51.3625 1303.21 Z" fill="#000000" fill-rule="nonzero" fill-opacity="1" /><path clip-path="url(#clip300)" d="M95.1586 1316.1 L111.478 1316.1 L111.478 1320.04 L89.5336 1320.04 L89.5336 1316.1 Q92.1956 1313.35 96.7789 1308.72 Q101.385 1304.07 102.566 1302.72 Q104.811 1300.2 105.691 1298.47 Q106.594 1296.71 106.594 1295.02 Q106.594 1292.26 104.649 1290.53 Q102.728 1288.79 99.6261 1288.79 Q97.4271 1288.79 94.9734 1289.55 Q92.5428 1290.32 89.7651 1291.87 L89.7651 1287.15 Q92.5891 1286.01 95.0428 1285.43 Q97.4965 1284.85 99.5335 1284.85 Q104.904 1284.85 108.098 1287.54 Q111.293 1290.22 111.293 1294.72 Q111.293 1296.85 110.483 1298.77 Q109.696 1300.66 107.589 1303.26 Q107.01 1303.93 103.909 1307.15 Q100.807 1310.34 95.1586 1316.1 Z" fill="#000000" fill-rule="nonzero" fill-opacity="1" /><path clip-path="url(#clip300)" d="M50.9921 978.201 L80.6679 978.201 L80.6679 982.136 L50.9921 982.136 L50.9921 978.201 Z" fill="#000000" fill-rule="nonzero" fill-opacity="1" /><path clip-path="url(#clip300)" d="M91.5706 991.094 L99.2095 991.094 L99.2095 964.729 L90.8993 966.395 L90.8993 962.136 L99.1632 960.469 L103.839 960.469 L103.839 991.094 L111.478 991.094 L111.478 995.029 L91.5706 995.029 L91.5706 991.094 Z" fill="#000000" fill-rule="nonzero" fill-opacity="1" /><path clip-path="url(#clip300)" d="M99.5335 638.538 Q95.9224 638.538 94.0937 642.103 Q92.2882 645.644 92.2882 652.774 Q92.2882 659.88 94.0937 663.445 Q95.9224 666.987 99.5335 666.987 Q103.168 666.987 104.973 663.445 Q106.802 659.88 106.802 652.774 Q106.802 645.644 104.973 642.103 Q103.168 638.538 99.5335 638.538 M99.5335 634.834 Q105.344 634.834 108.399 639.441 Q111.478 644.024 111.478 652.774 Q111.478 661.501 108.399 666.107 Q105.344 670.69 99.5335 670.69 Q93.7234 670.69 90.6447 666.107 Q87.5892 661.501 87.5892 652.774 Q87.5892 644.024 90.6447 639.441 Q93.7234 634.834 99.5335 634.834 Z" fill="#000000" fill-rule="nonzero" fill-opacity="1" /><path clip-path="url(#clip300)" d="M91.5706 341.074 L99.2095 341.074 L99.2095 314.708 L90.8993 316.375 L90.8993 312.116 L99.1632 310.449 L103.839 310.449 L103.839 341.074 L111.478 341.074 L111.478 345.009 L91.5706 345.009 L91.5706 341.074 Z" fill="#000000" fill-rule="nonzero" fill-opacity="1" /><circle clip-path="url(#clip301)" cx="487.306" cy="344.225" r="14.4" fill="#009af9" fill-rule="evenodd" fill-opacity="0.5" stroke="#000000" stroke-opacity="0.5" stroke-width="3.2"/>
<circle clip-path="url(#clip301)" cx="1999.17" cy="777.415" r="14.4" fill="#009af9" fill-rule="evenodd" fill-opacity="0.5" stroke="#000000" stroke-opacity="0.5" stroke-width="3.2"/>
<circle clip-path="url(#clip301)" cx="2129.09" cy="1163.16" r="14.4" fill="#009af9" fill-rule="evenodd" fill-opacity="0.5" stroke="#000000" stroke-opacity="0.5" stroke-width="3.2"/>
<circle clip-path="url(#clip301)" cx="1414.88" cy="1049.48" r="14.4" fill="#009af9" fill-rule="evenodd" fill-opacity="0.5" stroke="#000000" stroke-opacity="0.5" stroke-width="3.2"/>
<circle clip-path="url(#clip301)" cx="1525.31" cy="977.855" r="14.4" fill="#009af9" fill-rule="evenodd" fill-opacity="0.5" stroke="#000000" stroke-opacity="0.5" stroke-width="3.2"/>
<circle clip-path="url(#clip301)" cx="639.177" cy="272.661" r="14.4" fill="#009af9" fill-rule="evenodd" fill-opacity="0.5" stroke="#000000" stroke-opacity="0.5" stroke-width="3.2"/>
<circle clip-path="url(#clip301)" cx="771.803" cy="680.213" r="14.4" fill="#009af9" fill-rule="evenodd" fill-opacity="0.5" stroke="#000000" stroke-opacity="0.5" stroke-width="3.2"/>
<circle clip-path="url(#clip301)" cx="2290.34" cy="1445.72" r="14.4" fill="#009af9" fill-rule="evenodd" fill-opacity="0.5" stroke="#000000" stroke-opacity="0.5" stroke-width="3.2"/>
<circle clip-path="url(#clip301)" cx="486.344" cy="679.579" r="14.4" fill="#009af9" fill-rule="evenodd" fill-opacity="0.5" stroke="#000000" stroke-opacity="0.5" stroke-width="3.2"/>
<circle clip-path="url(#clip301)" cx="1725.14" cy="1073.22" r="14.4" fill="#009af9" fill-rule="evenodd" fill-opacity="0.5" stroke="#000000" stroke-opacity="0.5" stroke-width="3.2"/>
<circle clip-path="url(#clip301)" cx="1193.66" cy="632.667" r="14.4" fill="#009af9" fill-rule="evenodd" fill-opacity="0.5" stroke="#000000" stroke-opacity="0.5" stroke-width="3.2"/>
<circle clip-path="url(#clip301)" cx="2008.38" cy="1163.08" r="14.4" fill="#009af9" fill-rule="evenodd" fill-opacity="0.5" stroke="#000000" stroke-opacity="0.5" stroke-width="3.2"/>
<circle clip-path="url(#clip301)" cx="1227.96" cy="557.961" r="14.4" fill="#009af9" fill-rule="evenodd" fill-opacity="0.5" stroke="#000000" stroke-opacity="0.5" stroke-width="3.2"/>
<circle clip-path="url(#clip301)" cx="669.565" cy="624.576" r="14.4" fill="#009af9" fill-rule="evenodd" fill-opacity="0.5" stroke="#000000" stroke-opacity="0.5" stroke-width="3.2"/>
<circle clip-path="url(#clip301)" cx="975.193" cy="227.394" r="14.4" fill="#009af9" fill-rule="evenodd" fill-opacity="0.5" stroke="#000000" stroke-opacity="0.5" stroke-width="3.2"/>
<circle clip-path="url(#clip301)" cx="1448.33" cy="809.183" r="14.4" fill="#009af9" fill-rule="evenodd" fill-opacity="0.5" stroke="#000000" stroke-opacity="0.5" stroke-width="3.2"/>
<circle clip-path="url(#clip301)" cx="1304.36" cy="593.732" r="14.4" fill="#009af9" fill-rule="evenodd" fill-opacity="0.5" stroke="#000000" stroke-opacity="0.5" stroke-width="3.2"/>
<circle clip-path="url(#clip301)" cx="770.017" cy="384.947" r="14.4" fill="#009af9" fill-rule="evenodd" fill-opacity="0.5" stroke="#000000" stroke-opacity="0.5" stroke-width="3.2"/>
<circle clip-path="url(#clip301)" cx="1357.36" cy="762.546" r="14.4" fill="#009af9" fill-rule="evenodd" fill-opacity="0.5" stroke="#000000" stroke-opacity="0.5" stroke-width="3.2"/>
<circle clip-path="url(#clip301)" cx="209.891" cy="1093.11" r="14.4" fill="#009af9" fill-rule="evenodd" fill-opacity="0.5" stroke="#000000" stroke-opacity="0.5" stroke-width="3.2"/>
<circle clip-path="url(#clip301)" cx="1131.66" cy="347.23" r="14.4" fill="#009af9" fill-rule="evenodd" fill-opacity="0.5" stroke="#000000" stroke-opacity="0.5" stroke-width="3.2"/>
<circle clip-path="url(#clip301)" cx="636.061" cy="433.972" r="14.4" fill="#009af9" fill-rule="evenodd" fill-opacity="0.5" stroke="#000000" stroke-opacity="0.5" stroke-width="3.2"/>
<circle clip-path="url(#clip301)" cx="1033.62" cy="87.9763" r="14.4" fill="#009af9" fill-rule="evenodd" fill-opacity="0.5" stroke="#000000" stroke-opacity="0.5" stroke-width="3.2"/>
<circle clip-path="url(#clip301)" cx="1958.54" cy="211.379" r="14.4" fill="#009af9" fill-rule="evenodd" fill-opacity="0.5" stroke="#000000" stroke-opacity="0.5" stroke-width="3.2"/>
<circle clip-path="url(#clip301)" cx="1400.08" cy="818.696" r="14.4" fill="#009af9" fill-rule="evenodd" fill-opacity="0.5" stroke="#000000" stroke-opacity="0.5" stroke-width="3.2"/>
<circle clip-path="url(#clip301)" cx="743.515" cy="250.555" r="14.4" fill="#009af9" fill-rule="evenodd" fill-opacity="0.5" stroke="#000000" stroke-opacity="0.5" stroke-width="3.2"/>
<circle clip-path="url(#clip301)" cx="1828.58" cy="646.912" r="14.4" fill="#009af9" fill-rule="evenodd" fill-opacity="0.5" stroke="#000000" stroke-opacity="0.5" stroke-width="3.2"/>
<circle clip-path="url(#clip301)" cx="830.083" cy="305.716" r="14.4" fill="#009af9" fill-rule="evenodd" fill-opacity="0.5" stroke="#000000" stroke-opacity="0.5" stroke-width="3.2"/>
<circle clip-path="url(#clip301)" cx="458.291" cy="412.378" r="14.4" fill="#009af9" fill-rule="evenodd" fill-opacity="0.5" stroke="#000000" stroke-opacity="0.5" stroke-width="3.2"/>
<circle clip-path="url(#clip301)" cx="1048.11" cy="804.268" r="14.4" fill="#009af9" fill-rule="evenodd" fill-opacity="0.5" stroke="#000000" stroke-opacity="0.5" stroke-width="3.2"/>
<path clip-path="url(#clip301)" d="M209.891 1093.11 L2290.34 1445.72 L1958.54 211.379 L1033.62 87.9763 L639.177 272.661 L487.306 344.225 L458.291 412.378 L209.891 1093.11 L209.891 1093.11  Z" fill="#e26f46" fill-rule="evenodd" fill-opacity="0.2"/>
<polyline clip-path="url(#clip301)" style="stroke:#000000; stroke-linecap:round; stroke-linejoin:round; stroke-width:4; stroke-opacity:0.2; fill:none" points="209.891,1093.11 2290.34,1445.72 1958.54,211.379 1033.62,87.9763 639.177,272.661 487.306,344.225 458.291,412.378 209.891,1093.11 "/>
</svg>
