<?xml version="1.0" encoding="utf-8"?>
<svg xmlns="http://www.w3.org/2000/svg" xmlns:xlink="http://www.w3.org/1999/xlink" width="600" height="400" viewBox="0 0 2400 1600">
<defs>
  <clipPath id="clip280">
    <rect x="0" y="0" width="2400" height="1600"/>
  </clipPath>
</defs>
<path clip-path="url(#clip280)" d="M0 1600 L2400 1600 L2400 0 L0 0  Z" fill="#ffffff" fill-rule="evenodd" fill-opacity="1"/>
<defs>
  <clipPath id="clip281">
    <rect x="480" y="0" width="1681" height="1600"/>
  </clipPath>
</defs>
<path clip-path="url(#clip280)" d="M147.478 1486.45 L2352.76 1486.45 L2352.76 47.2441 L147.478 47.2441  Z" fill="#ffffff" fill-rule="evenodd" fill-opacity="1"/>
<defs>
  <clipPath id="clip282">
    <rect x="147" y="47" width="2206" height="1440"/>
  </clipPath>
</defs>
<polyline clip-path="url(#clip282)" style="stroke:#000000; stroke-linecap:round; stroke-linejoin:round; stroke-width:2; stroke-opacity:0.1; fill:none" points="654.454,1486.45 654.454,47.2441 "/>
<polyline clip-path="url(#clip282)" style="stroke:#000000; stroke-linecap:round; stroke-linejoin:round; stroke-width:2; stroke-opacity:0.1; fill:none" points="1201.18,1486.45 1201.18,47.2441 "/>
<polyline clip-path="url(#clip282)" style="stroke:#000000; stroke-linecap:round; stroke-linejoin:round; stroke-width:2; stroke-opacity:0.1; fill:none" points="1747.91,1486.45 1747.91,47.2441 "/>
<polyline clip-path="url(#clip282)" style="stroke:#000000; stroke-linecap:round; stroke-linejoin:round; stroke-width:2; stroke-opacity:0.1; fill:none" points="2294.63,1486.45 2294.63,47.2441 "/>
<polyline clip-path="url(#clip282)" style="stroke:#000000; stroke-linecap:round; stroke-linejoin:round; stroke-width:2; stroke-opacity:0.1; fill:none" points="147.478,1340.66 2352.76,1340.66 "/>
<polyline clip-path="url(#clip282)" style="stroke:#000000; stroke-linecap:round; stroke-linejoin:round; stroke-width:2; stroke-opacity:0.1; fill:none" points="147.478,1008.9 2352.76,1008.9 "/>
<polyline clip-path="url(#clip282)" style="stroke:#000000; stroke-linecap:round; stroke-linejoin:round; stroke-width:2; stroke-opacity:0.1; fill:none" points="147.478,677.142 2352.76,677.142 "/>
<polyline clip-path="url(#clip282)" style="stroke:#000000; stroke-linecap:round; stroke-linejoin:round; stroke-width:2; stroke-opacity:0.1; fill:none" points="147.478,345.383 2352.76,345.383 "/>
<polyline clip-path="url(#clip280)" style="stroke:#000000; stroke-linecap:round; stroke-linejoin:round; stroke-width:4; stroke-opacity:1; fill:none" points="147.478,1486.45 2352.76,1486.45 "/>
<polyline clip-path="url(#clip280)" style="stroke:#000000; stroke-linecap:round; stroke-linejoin:round; stroke-width:4; stroke-opacity:1; fill:none" points="654.454,1486.45 654.454,1467.55 "/>
<polyline clip-path="url(#clip280)" style="stroke:#000000; stroke-linecap:round; stroke-linejoin:round; stroke-width:4; stroke-opacity:1; fill:none" points="1201.18,1486.45 1201.18,1467.55 "/>
<polyline clip-path="url(#clip280)" style="stroke:#000000; stroke-linecap:round; stroke-linejoin:round; stroke-width:4; stroke-opacity:1; fill:none" points="1747.91,1486.45 1747.91,1467.55 "/>
<polyline clip-path="url(#clip280)" style="stroke:#000000; stroke-linecap:round; stroke-linejoin:round; stroke-width:4; stroke-opacity:1; fill:none" points="2294.63,1486.45 2294.63,1467.55 "/>
<path clip-path="url(#clip280)" d="M624.211 1532.02 L653.886 1532.02 L653.886 1535.95 L624.211 1535.95 L624.211 1532.02 Z" fill="#000000" fill-rule="nonzero" fill-opacity="1" /><path clip-path="url(#clip280)" d="M664.789 1544.91 L672.428 1544.91 L672.428 1518.55 L664.118 1520.21 L664.118 1515.95 L672.382 1514.29 L677.058 1514.29 L677.058 1544.91 L684.696 1544.91 L684.696 1548.85 L664.789 1548.85 L664.789 1544.91 Z" fill="#000000" fill-rule="nonzero" fill-opacity="1" /><path clip-path="url(#clip280)" d="M1201.18 1517.37 Q1197.57 1517.37 1195.74 1520.93 Q1193.93 1524.47 1193.93 1531.6 Q1193.93 1538.71 1195.74 1542.27 Q1197.57 1545.82 1201.18 1545.82 Q1204.81 1545.82 1206.62 1542.27 Q1208.45 1538.71 1208.45 1531.6 Q1208.45 1524.47 1206.62 1520.93 Q1204.81 1517.37 1201.18 1517.37 M1201.18 1513.66 Q1206.99 1513.66 1210.05 1518.27 Q1213.12 1522.85 1213.12 1531.6 Q1213.12 1540.33 1210.05 1544.94 Q1206.99 1549.52 1201.18 1549.52 Q1195.37 1549.52 1192.29 1544.94 Q1189.24 1540.33 1189.24 1531.6 Q1189.24 1522.85 1192.29 1518.27 Q1195.37 1513.66 1201.18 1513.66 Z" fill="#000000" fill-rule="nonzero" fill-opacity="1" /><path clip-path="url(#clip280)" d="M1738.29 1544.91 L1745.93 1544.91 L1745.93 1518.55 L1737.62 1520.21 L1737.62 1515.95 L1745.88 1514.29 L1750.56 1514.29 L1750.56 1544.91 L1758.19 1544.91 L1758.19 1548.85 L1738.29 1548.85 L1738.29 1544.91 Z" fill="#000000" fill-rule="nonzero" fill-opacity="1" /><path clip-path="url(#clip280)" d="M2289.28 1544.91 L2305.6 1544.91 L2305.6 1548.85 L2283.66 1548.85 L2283.66 1544.91 Q2286.32 1542.16 2290.9 1537.53 Q2295.51 1532.88 2296.69 1531.53 Q2298.94 1529.01 2299.82 1527.27 Q2300.72 1525.51 2300.72 1523.82 Q2300.72 1521.07 2298.77 1519.33 Q2296.85 1517.6 2293.75 1517.6 Q2291.55 1517.6 2289.1 1518.36 Q2286.67 1519.13 2283.89 1520.68 L2283.89 1515.95 Q2286.71 1514.82 2289.17 1514.24 Q2291.62 1513.66 2293.66 1513.66 Q2299.03 1513.66 2302.22 1516.35 Q2305.42 1519.03 2305.42 1523.52 Q2305.42 1525.65 2304.61 1527.57 Q2303.82 1529.47 2301.71 1532.07 Q2301.14 1532.74 2298.03 1535.95 Q2294.93 1539.15 2289.28 1544.91 Z" fill="#000000" fill-rule="nonzero" fill-opacity="1" /><polyline clip-path="url(#clip280)" style="stroke:#000000; stroke-linecap:round; stroke-linejoin:round; stroke-width:4; stroke-opacity:1; fill:none" points="147.478,1486.45 147.478,47.2441 "/>
<polyline clip-path="url(#clip280)" style="stroke:#000000; stroke-linecap:round; stroke-linejoin:round; stroke-width:4; stroke-opacity:1; fill:none" points="147.478,1340.66 166.376,1340.66 "/>
<polyline clip-path="url(#clip280)" style="stroke:#000000; stroke-linecap:round; stroke-linejoin:round; stroke-width:4; stroke-opacity:1; fill:none" points="147.478,1008.9 166.376,1008.9 "/>
<polyline clip-path="url(#clip280)" style="stroke:#000000; stroke-linecap:round; stroke-linejoin:round; stroke-width:4; stroke-opacity:1; fill:none" points="147.478,677.142 166.376,677.142 "/>
<polyline clip-path="url(#clip280)" style="stroke:#000000; stroke-linecap:round; stroke-linejoin:round; stroke-width:4; stroke-opacity:1; fill:none" points="147.478,345.383 166.376,345.383 "/>
<path clip-path="url(#clip280)" d="M51.3625 1341.11 L81.0383 1341.11 L81.0383 1345.05 L51.3625 1345.05 L51.3625 1341.11 Z" fill="#000000" fill-rule="nonzero" fill-opacity="1" /><path clip-path="url(#clip280)" d="M95.1586 1354 L111.478 1354 L111.478 1357.94 L89.5336 1357.94 L89.5336 1354 Q92.1956 1351.25 96.7789 1346.62 Q101.385 1341.97 102.566 1340.62 Q104.811 1338.1 105.691 1336.37 Q106.594 1334.61 106.594 1332.92 Q106.594 1330.16 104.649 1328.43 Q102.728 1326.69 99.6261 1326.69 Q97.4271 1326.69 94.9734 1327.45 Q92.5428 1328.22 89.7651 1329.77 L89.7651 1325.05 Q92.5891 1323.91 95.0428 1323.33 Q97.4965 1322.75 99.5335 1322.75 Q104.904 1322.75 108.098 1325.44 Q111.293 1328.13 111.293 1332.62 Q111.293 1334.75 110.483 1336.67 Q109.696 1338.56 107.589 1341.16 Q107.01 1341.83 103.909 1345.05 Q100.807 1348.24 95.1586 1354 Z" fill="#000000" fill-rule="nonzero" fill-opacity="1" /><path clip-path="url(#clip280)" d="M50.9921 1009.35 L80.6679 1009.35 L80.6679 1013.29 L50.9921 1013.29 L50.9921 1009.35 Z" fill="#000000" fill-rule="nonzero" fill-opacity="1" /><path clip-path="url(#clip280)" d="M91.5706 1022.25 L99.2095 1022.25 L99.2095 995.88 L90.8993 997.547 L90.8993 993.287 L99.1632 991.621 L103.839 991.621 L103.839 1022.25 L111.478 1022.25 L111.478 1026.18 L91.5706 1026.18 L91.5706 1022.25 Z" fill="#000000" fill-rule="nonzero" fill-opacity="1" /><path clip-path="url(#clip280)" d="M99.5335 662.941 Q95.9224 662.941 94.0937 666.505 Q92.2882 670.047 92.2882 677.177 Q92.2882 684.283 94.0937 687.848 Q95.9224 691.389 99.5335 691.389 Q103.168 691.389 104.973 687.848 Q106.802 684.283 106.802 677.177 Q106.802 670.047 104.973 666.505 Q103.168 662.941 99.5335 662.941 M99.5335 659.237 Q105.344 659.237 108.399 663.843 Q111.478 668.427 111.478 677.177 Q111.478 685.903 108.399 690.51 Q105.344 695.093 99.5335 695.093 Q93.7234 695.093 90.6447 690.51 Q87.5892 685.903 87.5892 677.177 Q87.5892 668.427 90.6447 663.843 Q93.7234 659.237 99.5335 659.237 Z" fill="#000000" fill-rule="nonzero" fill-opacity="1" /><path clip-path="url(#clip280)" d="M91.5706 358.728 L99.2095 358.728 L99.2095 332.362 L90.8993 334.029 L90.8993 329.77 L99.1632 328.103 L103.839 328.103 L103.839 358.728 L111.478 358.728 L111.478 362.663 L91.5706 362.663 L91.5706 358.728 Z" fill="#000000" fill-rule="nonzero" fill-opacity="1" /><circle clip-path="url(#clip282)" cx="1344.58" cy="270.987" r="14.4" fill="#009af9" fill-rule="evenodd" fill-opacity="0.5" stroke="#000000" stroke-opacity="0.5" stroke-width="3.2"/>
<circle clip-path="url(#clip282)" cx="1060.91" cy="600.091" r="14.4" fill="#009af9" fill-rule="evenodd" fill-opacity="0.5" stroke="#000000" stroke-opacity="0.5" stroke-width="3.2"/>
<circle clip-path="url(#clip282)" cx="1055.96" cy="428.289" r="14.4" fill="#009af9" fill-rule="evenodd" fill-opacity="0.5" stroke="#000000" stroke-opacity="0.5" stroke-width="3.2"/>
<circle clip-path="url(#clip282)" cx="767.122" cy="1445.72" r="14.4" fill="#009af9" fill-rule="evenodd" fill-opacity="0.5" stroke="#000000" stroke-opacity="0.5" stroke-width="3.2"/>
<circle clip-path="url(#clip282)" cx="2290.34" cy="731.073" r="14.4" fill="#009af9" fill-rule="evenodd" fill-opacity="0.5" stroke="#000000" stroke-opacity="0.5" stroke-width="3.2"/>
<circle clip-path="url(#clip282)" cx="1049.21" cy="337.709" r="14.4" fill="#009af9" fill-rule="evenodd" fill-opacity="0.5" stroke="#000000" stroke-opacity="0.5" stroke-width="3.2"/>
<circle clip-path="url(#clip282)" cx="561.374" cy="134.884" r="14.4" fill="#009af9" fill-rule="evenodd" fill-opacity="0.5" stroke="#000000" stroke-opacity="0.5" stroke-width="3.2"/>
<circle clip-path="url(#clip282)" cx="545.768" cy="365.275" r="14.4" fill="#009af9" fill-rule="evenodd" fill-opacity="0.5" stroke="#000000" stroke-opacity="0.5" stroke-width="3.2"/>
<circle clip-path="url(#clip282)" cx="1022.65" cy="989.737" r="14.4" fill="#009af9" fill-rule="evenodd" fill-opacity="0.5" stroke="#000000" stroke-opacity="0.5" stroke-width="3.2"/>
<circle clip-path="url(#clip282)" cx="209.891" cy="610.011" r="14.4" fill="#009af9" fill-rule="evenodd" fill-opacity="0.5" stroke="#000000" stroke-opacity="0.5" stroke-width="3.2"/>
<circle clip-path="url(#clip282)" cx="2035.37" cy="1042.11" r="14.4" fill="#009af9" fill-rule="evenodd" fill-opacity="0.5" stroke="#000000" stroke-opacity="0.5" stroke-width="3.2"/>
<circle clip-path="url(#clip282)" cx="770.987" cy="890.512" r="14.4" fill="#009af9" fill-rule="evenodd" fill-opacity="0.5" stroke="#000000" stroke-opacity="0.5" stroke-width="3.2"/>
<circle clip-path="url(#clip282)" cx="1015.52" cy="641.598" r="14.4" fill="#009af9" fill-rule="evenodd" fill-opacity="0.5" stroke="#000000" stroke-opacity="0.5" stroke-width="3.2"/>
<circle clip-path="url(#clip282)" cx="983.331" cy="1020.76" r="14.4" fill="#009af9" fill-rule="evenodd" fill-opacity="0.5" stroke="#000000" stroke-opacity="0.5" stroke-width="3.2"/>
<circle clip-path="url(#clip282)" cx="932.541" cy="889.079" r="14.4" fill="#009af9" fill-rule="evenodd" fill-opacity="0.5" stroke="#000000" stroke-opacity="0.5" stroke-width="3.2"/>
<circle clip-path="url(#clip282)" cx="755.18" cy="1118.88" r="14.4" fill="#009af9" fill-rule="evenodd" fill-opacity="0.5" stroke="#000000" stroke-opacity="0.5" stroke-width="3.2"/>
<circle clip-path="url(#clip282)" cx="1747.68" cy="928.988" r="14.4" fill="#009af9" fill-rule="evenodd" fill-opacity="0.5" stroke="#000000" stroke-opacity="0.5" stroke-width="3.2"/>
<circle clip-path="url(#clip282)" cx="1454.03" cy="435.995" r="14.4" fill="#009af9" fill-rule="evenodd" fill-opacity="0.5" stroke="#000000" stroke-opacity="0.5" stroke-width="3.2"/>
<circle clip-path="url(#clip282)" cx="1367.04" cy="685.765" r="14.4" fill="#009af9" fill-rule="evenodd" fill-opacity="0.5" stroke="#000000" stroke-opacity="0.5" stroke-width="3.2"/>
<circle clip-path="url(#clip282)" cx="1503.93" cy="635.832" r="14.4" fill="#009af9" fill-rule="evenodd" fill-opacity="0.5" stroke="#000000" stroke-opacity="0.5" stroke-width="3.2"/>
<circle clip-path="url(#clip282)" cx="2101.24" cy="130.007" r="14.4" fill="#009af9" fill-rule="evenodd" fill-opacity="0.5" stroke="#000000" stroke-opacity="0.5" stroke-width="3.2"/>
<circle clip-path="url(#clip282)" cx="1609.66" cy="934.588" r="14.4" fill="#009af9" fill-rule="evenodd" fill-opacity="0.5" stroke="#000000" stroke-opacity="0.5" stroke-width="3.2"/>
<circle clip-path="url(#clip282)" cx="1976.44" cy="661.414" r="14.4" fill="#009af9" fill-rule="evenodd" fill-opacity="0.5" stroke="#000000" stroke-opacity="0.5" stroke-width="3.2"/>
<circle clip-path="url(#clip282)" cx="1346.1" cy="677.137" r="14.4" fill="#009af9" fill-rule="evenodd" fill-opacity="0.5" stroke="#000000" stroke-opacity="0.5" stroke-width="3.2"/>
<circle clip-path="url(#clip282)" cx="1400.02" cy="87.9763" r="14.4" fill="#009af9" fill-rule="evenodd" fill-opacity="0.5" stroke="#000000" stroke-opacity="0.5" stroke-width="3.2"/>
<circle clip-path="url(#clip282)" cx="1204.39" cy="1136.85" r="14.4" fill="#009af9" fill-rule="evenodd" fill-opacity="0.5" stroke="#000000" stroke-opacity="0.5" stroke-width="3.2"/>
<circle clip-path="url(#clip282)" cx="1218.75" cy="695.516" r="14.4" fill="#009af9" fill-rule="evenodd" fill-opacity="0.5" stroke="#000000" stroke-opacity="0.5" stroke-width="3.2"/>
<circle clip-path="url(#clip282)" cx="1653.81" cy="633.095" r="14.4" fill="#009af9" fill-rule="evenodd" fill-opacity="0.5" stroke="#000000" stroke-opacity="0.5" stroke-width="3.2"/>
<circle clip-path="url(#clip282)" cx="1722.29" cy="765.473" r="14.4" fill="#009af9" fill-rule="evenodd" fill-opacity="0.5" stroke="#000000" stroke-opacity="0.5" stroke-width="3.2"/>
<circle clip-path="url(#clip282)" cx="693.641" cy="411.204" r="14.4" fill="#009af9" fill-rule="evenodd" fill-opacity="0.5" stroke="#000000" stroke-opacity="0.5" stroke-width="3.2"/>
<path clip-path="url(#clip282)" d="M209.891 610.011 L767.122 1445.72 L2035.37 1042.11 L2290.34 731.073 L2101.24 130.007 L1400.02 87.9763 L561.374 134.884 L209.891 610.011 L209.891 610.011  Z" fill="#e26f46" fill-rule="evenodd" fill-opacity="0.2"/>
<polyline clip-path="url(#clip282)" style="stroke:#000000; stroke-linecap:round; stroke-linejoin:round; stroke-width:4; stroke-opacity:0.2; fill:none" points="209.891,610.011 767.122,1445.72 2035.37,1042.11 2290.34,731.073 2101.24,130.007 1400.02,87.9763 561.374,134.884 209.891,610.011 "/>
</svg>
