<?xml version="1.0" encoding="utf-8"?>
<svg xmlns="http://www.w3.org/2000/svg" xmlns:xlink="http://www.w3.org/1999/xlink" width="600" height="400" viewBox="0 0 2400 1600">
<defs>
  <clipPath id="clip900">
    <rect x="0" y="0" width="2400" height="1600"/>
  </clipPath>
</defs>
<path clip-path="url(#clip900)" d="M0 1600 L2400 1600 L2400 0 L0 0  Z" fill="#ffffff" fill-rule="evenodd" fill-opacity="1"/>
<defs>
  <clipPath id="clip901">
    <rect x="480" y="0" width="1681" height="1600"/>
  </clipPath>
</defs>
<path clip-path="url(#clip900)" d="M147.478 1486.45 L2352.76 1486.45 L2352.76 47.2441 L147.478 47.2441  Z" fill="#ffffff" fill-rule="evenodd" fill-opacity="1"/>
<defs>
  <clipPath id="clip902">
    <rect x="147" y="47" width="2206" height="1440"/>
  </clipPath>
</defs>
<polyline clip-path="url(#clip902)" style="stroke:#000000; stroke-linecap:round; stroke-linejoin:round; stroke-width:2; stroke-opacity:0.1; fill:none" points="582.451,1486.45 582.451,47.2441 "/>
<polyline clip-path="url(#clip902)" style="stroke:#000000; stroke-linecap:round; stroke-linejoin:round; stroke-width:2; stroke-opacity:0.1; fill:none" points="1149.04,1486.45 1149.04,47.2441 "/>
<polyline clip-path="url(#clip902)" style="stroke:#000000; stroke-linecap:round; stroke-linejoin:round; stroke-width:2; stroke-opacity:0.1; fill:none" points="1715.62,1486.45 1715.62,47.2441 "/>
<polyline clip-path="url(#clip902)" style="stroke:#000000; stroke-linecap:round; stroke-linejoin:round; stroke-width:2; stroke-opacity:0.1; fill:none" points="2282.21,1486.45 2282.21,47.2441 "/>
<polyline clip-path="url(#clip900)" style="stroke:#000000; stroke-linecap:round; stroke-linejoin:round; stroke-width:4; stroke-opacity:1; fill:none" points="147.478,1486.45 2352.76,1486.45 "/>
<polyline clip-path="url(#clip900)" style="stroke:#000000; stroke-linecap:round; stroke-linejoin:round; stroke-width:4; stroke-opacity:1; fill:none" points="582.451,1486.45 582.451,1467.55 "/>
<polyline clip-path="url(#clip900)" style="stroke:#000000; stroke-linecap:round; stroke-linejoin:round; stroke-width:4; stroke-opacity:1; fill:none" points="1149.04,1486.45 1149.04,1467.55 "/>
<polyline clip-path="url(#clip900)" style="stroke:#000000; stroke-linecap:round; stroke-linejoin:round; stroke-width:4; stroke-opacity:1; fill:none" points="1715.62,1486.45 1715.62,1467.55 "/>
<polyline clip-path="url(#clip900)" style="stroke:#000000; stroke-linecap:round; stroke-linejoin:round; stroke-width:4; stroke-opacity:1; fill:none" points="2282.21,1486.45 2282.21,1467.55 "/>
<path clip-path="url(#clip900)" d="M552.208 1532.02 L581.884 1532.02 L581.884 1535.95 L552.208 1535.95 L552.208 1532.02 Z" fill="#000000" fill-rule="nonzero" fill-opacity="1" /><path clip-path="url(#clip900)" d="M592.787 1544.91 L600.426 1544.91 L600.426 1518.55 L592.116 1520.21 L592.116 1515.95 L600.379 1514.29 L605.055 1514.29 L605.055 1544.91 L612.694 1544.91 L612.694 1548.85 L592.787 1548.85 L592.787 1544.91 Z" fill="#000000" fill-rule="nonzero" fill-opacity="1" /><path clip-path="url(#clip900)" d="M1149.04 1517.37 Q1145.43 1517.37 1143.6 1520.93 Q1141.79 1524.47 1141.79 1531.6 Q1141.79 1538.71 1143.6 1542.27 Q1145.43 1545.82 1149.04 1545.82 Q1152.67 1545.82 1154.48 1542.27 Q1156.31 1538.71 1156.31 1531.6 Q1156.31 1524.47 1154.48 1520.93 Q1152.67 1517.37 1149.04 1517.37 M1149.04 1513.66 Q1154.85 1513.66 1157.9 1518.27 Q1160.98 1522.85 1160.98 1531.6 Q1160.98 1540.33 1157.9 1544.94 Q1154.85 1549.52 1149.04 1549.52 Q1143.23 1549.52 1140.15 1544.94 Q1137.09 1540.33 1137.09 1531.6 Q1137.09 1522.85 1140.15 1518.27 Q1143.23 1513.66 1149.04 1513.66 Z" fill="#000000" fill-rule="nonzero" fill-opacity="1" /><path clip-path="url(#clip900)" d="M1706.01 1544.91 L1713.64 1544.91 L1713.64 1518.55 L1705.33 1520.21 L1705.33 1515.95 L1713.6 1514.29 L1718.27 1514.29 L1718.27 1544.91 L1725.91 1544.91 L1725.91 1548.85 L1706.01 1548.85 L1706.01 1544.91 Z" fill="#000000" fill-rule="nonzero" fill-opacity="1" /><path clip-path="url(#clip900)" d="M2276.86 1544.91 L2293.18 1544.91 L2293.18 1548.85 L2271.24 1548.85 L2271.24 1544.91 Q2273.9 1542.16 2278.48 1537.53 Q2283.09 1532.88 2284.27 1531.53 Q2286.52 1529.01 2287.4 1527.27 Q2288.3 1525.51 2288.3 1523.82 Q2288.3 1521.07 2286.35 1519.33 Q2284.43 1517.6 2281.33 1517.6 Q2279.13 1517.6 2276.68 1518.36 Q2274.25 1519.13 2271.47 1520.68 L2271.47 1515.95 Q2274.29 1514.82 2276.75 1514.24 Q2279.2 1513.66 2281.24 1513.66 Q2286.61 1513.66 2289.8 1516.35 Q2293 1519.03 2293 1523.52 Q2293 1525.65 2292.19 1527.57 Q2291.4 1529.47 2289.29 1532.07 Q2288.71 1532.74 2285.61 1535.95 Q2282.51 1539.15 2276.86 1544.91 Z" fill="#000000" fill-rule="nonzero" fill-opacity="1" /><polyline clip-path="url(#clip902)" style="stroke:#000000; stroke-linecap:round; stroke-linejoin:round; stroke-width:2; stroke-opacity:0.1; fill:none" points="147.478,1201.04 2352.76,1201.04 "/>
<polyline clip-path="url(#clip902)" style="stroke:#000000; stroke-linecap:round; stroke-linejoin:round; stroke-width:2; stroke-opacity:0.1; fill:none" points="147.478,867.119 2352.76,867.119 "/>
<polyline clip-path="url(#clip902)" style="stroke:#000000; stroke-linecap:round; stroke-linejoin:round; stroke-width:2; stroke-opacity:0.1; fill:none" points="147.478,533.201 2352.76,533.201 "/>
<polyline clip-path="url(#clip902)" style="stroke:#000000; stroke-linecap:round; stroke-linejoin:round; stroke-width:2; stroke-opacity:0.1; fill:none" points="147.478,199.282 2352.76,199.282 "/>
<polyline clip-path="url(#clip900)" style="stroke:#000000; stroke-linecap:round; stroke-linejoin:round; stroke-width:4; stroke-opacity:1; fill:none" points="147.478,1486.45 147.478,47.2441 "/>
<polyline clip-path="url(#clip900)" style="stroke:#000000; stroke-linecap:round; stroke-linejoin:round; stroke-width:4; stroke-opacity:1; fill:none" points="147.478,1201.04 166.376,1201.04 "/>
<polyline clip-path="url(#clip900)" style="stroke:#000000; stroke-linecap:round; stroke-linejoin:round; stroke-width:4; stroke-opacity:1; fill:none" points="147.478,867.119 166.376,867.119 "/>
<polyline clip-path="url(#clip900)" style="stroke:#000000; stroke-linecap:round; stroke-linejoin:round; stroke-width:4; stroke-opacity:1; fill:none" points="147.478,533.201 166.376,533.201 "/>
<polyline clip-path="url(#clip900)" style="stroke:#000000; stroke-linecap:round; stroke-linejoin:round; stroke-width:4; stroke-opacity:1; fill:none" points="147.478,199.282 166.376,199.282 "/>
<path clip-path="url(#clip900)" d="M50.9921 1201.49 L80.6679 1201.49 L80.6679 1205.42 L50.9921 1205.42 L50.9921 1201.49 Z" fill="#000000" fill-rule="nonzero" fill-opacity="1" /><path clip-path="url(#clip900)" d="M91.5706 1214.38 L99.2095 1214.38 L99.2095 1188.02 L90.8993 1189.68 L90.8993 1185.42 L99.1632 1183.76 L103.839 1183.76 L103.839 1214.38 L111.478 1214.38 L111.478 1218.32 L91.5706 1218.32 L91.5706 1214.38 Z" fill="#000000" fill-rule="nonzero" fill-opacity="1" /><path clip-path="url(#clip900)" d="M99.5335 852.918 Q95.9224 852.918 94.0937 856.483 Q92.2882 860.024 92.2882 867.154 Q92.2882 874.26 94.0937 877.825 Q95.9224 881.367 99.5335 881.367 Q103.168 881.367 104.973 877.825 Q106.802 874.26 106.802 867.154 Q106.802 860.024 104.973 856.483 Q103.168 852.918 99.5335 852.918 M99.5335 849.214 Q105.344 849.214 108.399 853.821 Q111.478 858.404 111.478 867.154 Q111.478 875.881 108.399 880.487 Q105.344 885.07 99.5335 885.07 Q93.7234 885.07 90.6447 880.487 Q87.5892 875.881 87.5892 867.154 Q87.5892 858.404 90.6447 853.821 Q93.7234 849.214 99.5335 849.214 Z" fill="#000000" fill-rule="nonzero" fill-opacity="1" /><path clip-path="url(#clip900)" d="M91.5706 546.546 L99.2095 546.546 L99.2095 520.18 L90.8993 521.847 L90.8993 517.587 L99.1632 515.921 L103.839 515.921 L103.839 546.546 L111.478 546.546 L111.478 550.481 L91.5706 550.481 L91.5706 546.546 Z" fill="#000000" fill-rule="nonzero" fill-opacity="1" /><path clip-path="url(#clip900)" d="M95.1586 212.627 L111.478 212.627 L111.478 216.562 L89.5336 216.562 L89.5336 212.627 Q92.1956 209.873 96.7789 205.243 Q101.385 200.59 102.566 199.248 Q104.811 196.724 105.691 194.988 Q106.594 193.229 106.594 191.539 Q106.594 188.785 104.649 187.049 Q102.728 185.312 99.6261 185.312 Q97.4271 185.312 94.9734 186.076 Q92.5428 186.84 89.7651 188.391 L89.7651 183.669 Q92.5891 182.535 95.0428 181.956 Q97.4965 181.377 99.5335 181.377 Q104.904 181.377 108.098 184.062 Q111.293 186.748 111.293 191.238 Q111.293 193.368 110.483 195.289 Q109.696 197.187 107.589 199.78 Q107.01 200.451 103.909 203.669 Q100.807 206.863 95.1586 212.627 Z" fill="#000000" fill-rule="nonzero" fill-opacity="1" /><circle clip-path="url(#clip902)" cx="1084.67" cy="1064.11" r="14.4" fill="#009af9" fill-rule="evenodd" fill-opacity="0.5" stroke="#000000" stroke-opacity="0.5" stroke-width="3.2"/>
<circle clip-path="url(#clip902)" cx="733.405" cy="509.483" r="14.4" fill="#009af9" fill-rule="evenodd" fill-opacity="0.5" stroke="#000000" stroke-opacity="0.5" stroke-width="3.2"/>
<circle clip-path="url(#clip902)" cx="1012.81" cy="749.715" r="14.4" fill="#009af9" fill-rule="evenodd" fill-opacity="0.5" stroke="#000000" stroke-opacity="0.5" stroke-width="3.2"/>
<circle clip-path="url(#clip902)" cx="2202.76" cy="1193.02" r="14.4" fill="#009af9" fill-rule="evenodd" fill-opacity="0.5" stroke="#000000" stroke-opacity="0.5" stroke-width="3.2"/>
<circle clip-path="url(#clip902)" cx="709.231" cy="694.059" r="14.4" fill="#009af9" fill-rule="evenodd" fill-opacity="0.5" stroke="#000000" stroke-opacity="0.5" stroke-width="3.2"/>
<circle clip-path="url(#clip902)" cx="1794.26" cy="87.9763" r="14.4" fill="#009af9" fill-rule="evenodd" fill-opacity="0.5" stroke="#000000" stroke-opacity="0.5" stroke-width="3.2"/>
<circle clip-path="url(#clip902)" cx="1374.15" cy="1156.75" r="14.4" fill="#009af9" fill-rule="evenodd" fill-opacity="0.5" stroke="#000000" stroke-opacity="0.5" stroke-width="3.2"/>
<circle clip-path="url(#clip902)" cx="517.866" cy="1445.72" r="14.4" fill="#009af9" fill-rule="evenodd" fill-opacity="0.5" stroke="#000000" stroke-opacity="0.5" stroke-width="3.2"/>
<circle clip-path="url(#clip902)" cx="716.545" cy="931.724" r="14.4" fill="#009af9" fill-rule="evenodd" fill-opacity="0.5" stroke="#000000" stroke-opacity="0.5" stroke-width="3.2"/>
<circle clip-path="url(#clip902)" cx="846.932" cy="1019.76" r="14.4" fill="#009af9" fill-rule="evenodd" fill-opacity="0.5" stroke="#000000" stroke-opacity="0.5" stroke-width="3.2"/>
<circle clip-path="url(#clip902)" cx="1180.19" cy="114.632" r="14.4" fill="#009af9" fill-rule="evenodd" fill-opacity="0.5" stroke="#000000" stroke-opacity="0.5" stroke-width="3.2"/>
<circle clip-path="url(#clip902)" cx="281.218" cy="313.265" r="14.4" fill="#009af9" fill-rule="evenodd" fill-opacity="0.5" stroke="#000000" stroke-opacity="0.5" stroke-width="3.2"/>
<circle clip-path="url(#clip902)" cx="1117.08" cy="647.694" r="14.4" fill="#009af9" fill-rule="evenodd" fill-opacity="0.5" stroke="#000000" stroke-opacity="0.5" stroke-width="3.2"/>
<circle clip-path="url(#clip902)" cx="540.771" cy="616.071" r="14.4" fill="#009af9" fill-rule="evenodd" fill-opacity="0.5" stroke="#000000" stroke-opacity="0.5" stroke-width="3.2"/>
<circle clip-path="url(#clip902)" cx="1554.57" cy="199.135" r="14.4" fill="#009af9" fill-rule="evenodd" fill-opacity="0.5" stroke="#000000" stroke-opacity="0.5" stroke-width="3.2"/>
<circle clip-path="url(#clip902)" cx="527.651" cy="876.514" r="14.4" fill="#009af9" fill-rule="evenodd" fill-opacity="0.5" stroke="#000000" stroke-opacity="0.5" stroke-width="3.2"/>
<circle clip-path="url(#clip902)" cx="209.891" cy="1430.4" r="14.4" fill="#009af9" fill-rule="evenodd" fill-opacity="0.5" stroke="#000000" stroke-opacity="0.5" stroke-width="3.2"/>
<circle clip-path="url(#clip902)" cx="1711.23" cy="966.6" r="14.4" fill="#009af9" fill-rule="evenodd" fill-opacity="0.5" stroke="#000000" stroke-opacity="0.5" stroke-width="3.2"/>
<circle clip-path="url(#clip902)" cx="1372.77" cy="1314.71" r="14.4" fill="#009af9" fill-rule="evenodd" fill-opacity="0.5" stroke="#000000" stroke-opacity="0.5" stroke-width="3.2"/>
<circle clip-path="url(#clip902)" cx="677.182" cy="742.471" r="14.4" fill="#009af9" fill-rule="evenodd" fill-opacity="0.5" stroke="#000000" stroke-opacity="0.5" stroke-width="3.2"/>
<circle clip-path="url(#clip902)" cx="401.038" cy="788.151" r="14.4" fill="#009af9" fill-rule="evenodd" fill-opacity="0.5" stroke="#000000" stroke-opacity="0.5" stroke-width="3.2"/>
<circle clip-path="url(#clip902)" cx="868.614" cy="562.655" r="14.4" fill="#009af9" fill-rule="evenodd" fill-opacity="0.5" stroke="#000000" stroke-opacity="0.5" stroke-width="3.2"/>
<circle clip-path="url(#clip902)" cx="1007.65" cy="1031.61" r="14.4" fill="#009af9" fill-rule="evenodd" fill-opacity="0.5" stroke="#000000" stroke-opacity="0.5" stroke-width="3.2"/>
<circle clip-path="url(#clip902)" cx="546.197" cy="753.403" r="14.4" fill="#009af9" fill-rule="evenodd" fill-opacity="0.5" stroke="#000000" stroke-opacity="0.5" stroke-width="3.2"/>
<circle clip-path="url(#clip902)" cx="759.984" cy="1177.33" r="14.4" fill="#009af9" fill-rule="evenodd" fill-opacity="0.5" stroke="#000000" stroke-opacity="0.5" stroke-width="3.2"/>
<circle clip-path="url(#clip902)" cx="314.084" cy="890.729" r="14.4" fill="#009af9" fill-rule="evenodd" fill-opacity="0.5" stroke="#000000" stroke-opacity="0.5" stroke-width="3.2"/>
<circle clip-path="url(#clip902)" cx="2290.34" cy="870.311" r="14.4" fill="#009af9" fill-rule="evenodd" fill-opacity="0.5" stroke="#000000" stroke-opacity="0.5" stroke-width="3.2"/>
<circle clip-path="url(#clip902)" cx="767.314" cy="845.347" r="14.4" fill="#009af9" fill-rule="evenodd" fill-opacity="0.5" stroke="#000000" stroke-opacity="0.5" stroke-width="3.2"/>
<circle clip-path="url(#clip902)" cx="779.1" cy="644.757" r="14.4" fill="#009af9" fill-rule="evenodd" fill-opacity="0.5" stroke="#000000" stroke-opacity="0.5" stroke-width="3.2"/>
<circle clip-path="url(#clip902)" cx="1703.8" cy="731.08" r="14.4" fill="#009af9" fill-rule="evenodd" fill-opacity="0.5" stroke="#000000" stroke-opacity="0.5" stroke-width="3.2"/>
<path clip-path="url(#clip902)" d="M209.891 1430.4 L517.866 1445.72 L2202.76 1193.02 L2290.34 870.311 L1794.26 87.9763 L1180.19 114.632 L281.218 313.265 L209.891 1430.4 L209.891 1430.4  Z" fill="#e26f46" fill-rule="evenodd" fill-opacity="0.2"/>
<polyline clip-path="url(#clip902)" style="stroke:#000000; stroke-linecap:round; stroke-linejoin:round; stroke-width:4; stroke-opacity:0.2; fill:none" points="209.891,1430.4 517.866,1445.72 2202.76,1193.02 2290.34,870.311 1794.26,87.9763 1180.19,114.632 281.218,313.265 209.891,1430.4 "/>
</svg>
