<?xml version="1.0" encoding="utf-8"?>
<svg xmlns="http://www.w3.org/2000/svg" xmlns:xlink="http://www.w3.org/1999/xlink" width="600" height="400" viewBox="0 0 2400 1600">
<defs>
  <clipPath id="clip220">
    <rect x="0" y="0" width="2400" height="1600"/>
  </clipPath>
</defs>
<path clip-path="url(#clip220)" d="M0 1600 L2400 1600 L2400 0 L0 0  Z" fill="#ffffff" fill-rule="evenodd" fill-opacity="1"/>
<defs>
  <clipPath id="clip221">
    <rect x="147" y="47" width="2206" height="1440"/>
  </clipPath>
</defs>
<path clip-path="url(#clip220)" d="M147.478 1486.45 L2352.76 1486.45 L2352.76 47.2441 L147.478 47.2441  Z" fill="#ffffff" fill-rule="evenodd" fill-opacity="1"/>
<polyline clip-path="url(#clip221)" style="stroke:#000000; stroke-linecap:round; stroke-linejoin:round; stroke-width:2; stroke-opacity:0.1; fill:none" points="520.928,1486.45 520.928,47.2441 "/>
<polyline clip-path="url(#clip221)" style="stroke:#000000; stroke-linecap:round; stroke-linejoin:round; stroke-width:2; stroke-opacity:0.1; fill:none" points="1099.1,1486.45 1099.1,47.2441 "/>
<polyline clip-path="url(#clip221)" style="stroke:#000000; stroke-linecap:round; stroke-linejoin:round; stroke-width:2; stroke-opacity:0.1; fill:none" points="1677.27,1486.45 1677.27,47.2441 "/>
<polyline clip-path="url(#clip221)" style="stroke:#000000; stroke-linecap:round; stroke-linejoin:round; stroke-width:2; stroke-opacity:0.1; fill:none" points="2255.44,1486.45 2255.44,47.2441 "/>
<polyline clip-path="url(#clip221)" style="stroke:#000000; stroke-linecap:round; stroke-linejoin:round; stroke-width:2; stroke-opacity:0.1; fill:none" points="147.478,1438.92 2352.76,1438.92 "/>
<polyline clip-path="url(#clip221)" style="stroke:#000000; stroke-linecap:round; stroke-linejoin:round; stroke-width:2; stroke-opacity:0.1; fill:none" points="147.478,1053.37 2352.76,1053.37 "/>
<polyline clip-path="url(#clip221)" style="stroke:#000000; stroke-linecap:round; stroke-linejoin:round; stroke-width:2; stroke-opacity:0.1; fill:none" points="147.478,667.818 2352.76,667.818 "/>
<polyline clip-path="url(#clip221)" style="stroke:#000000; stroke-linecap:round; stroke-linejoin:round; stroke-width:2; stroke-opacity:0.1; fill:none" points="147.478,282.267 2352.76,282.267 "/>
<polyline clip-path="url(#clip220)" style="stroke:#000000; stroke-linecap:round; stroke-linejoin:round; stroke-width:4; stroke-opacity:1; fill:none" points="147.478,1486.45 2352.76,1486.45 "/>
<polyline clip-path="url(#clip220)" style="stroke:#000000; stroke-linecap:round; stroke-linejoin:round; stroke-width:4; stroke-opacity:1; fill:none" points="520.928,1486.45 520.928,1467.55 "/>
<polyline clip-path="url(#clip220)" style="stroke:#000000; stroke-linecap:round; stroke-linejoin:round; stroke-width:4; stroke-opacity:1; fill:none" points="1099.1,1486.45 1099.1,1467.55 "/>
<polyline clip-path="url(#clip220)" style="stroke:#000000; stroke-linecap:round; stroke-linejoin:round; stroke-width:4; stroke-opacity:1; fill:none" points="1677.27,1486.45 1677.27,1467.55 "/>
<polyline clip-path="url(#clip220)" style="stroke:#000000; stroke-linecap:round; stroke-linejoin:round; stroke-width:4; stroke-opacity:1; fill:none" points="2255.44,1486.45 2255.44,1467.55 "/>
<path clip-path="url(#clip220)" d="M490.685 1532.02 L520.361 1532.02 L520.361 1535.95 L490.685 1535.95 L490.685 1532.02 Z" fill="#000000" fill-rule="nonzero" fill-opacity="1" /><path clip-path="url(#clip220)" d="M531.264 1544.91 L538.903 1544.91 L538.903 1518.55 L530.593 1520.21 L530.593 1515.95 L538.856 1514.29 L543.532 1514.29 L543.532 1544.91 L551.171 1544.91 L551.171 1548.85 L531.264 1548.85 L531.264 1544.91 Z" fill="#000000" fill-rule="nonzero" fill-opacity="1" /><path clip-path="url(#clip220)" d="M1099.1 1517.37 Q1095.49 1517.37 1093.66 1520.93 Q1091.85 1524.47 1091.85 1531.6 Q1091.85 1538.71 1093.66 1542.27 Q1095.49 1545.82 1099.1 1545.82 Q1102.73 1545.82 1104.54 1542.27 Q1106.37 1538.71 1106.37 1531.6 Q1106.37 1524.47 1104.54 1520.93 Q1102.73 1517.37 1099.1 1517.37 M1099.1 1513.66 Q1104.91 1513.66 1107.97 1518.27 Q1111.04 1522.85 1111.04 1531.6 Q1111.04 1540.33 1107.97 1544.94 Q1104.91 1549.52 1099.1 1549.52 Q1093.29 1549.52 1090.21 1544.94 Q1087.16 1540.33 1087.16 1531.6 Q1087.16 1522.85 1090.21 1518.27 Q1093.29 1513.66 1099.1 1513.66 Z" fill="#000000" fill-rule="nonzero" fill-opacity="1" /><path clip-path="url(#clip220)" d="M1667.65 1544.91 L1675.29 1544.91 L1675.29 1518.55 L1666.98 1520.21 L1666.98 1515.95 L1675.25 1514.29 L1679.92 1514.29 L1679.92 1544.91 L1687.56 1544.91 L1687.56 1548.85 L1667.65 1548.85 L1667.65 1544.91 Z" fill="#000000" fill-rule="nonzero" fill-opacity="1" /><path clip-path="url(#clip220)" d="M2250.1 1544.91 L2266.42 1544.91 L2266.42 1548.85 L2244.47 1548.85 L2244.47 1544.91 Q2247.13 1542.16 2251.72 1537.53 Q2256.32 1532.88 2257.5 1531.53 Q2259.75 1529.01 2260.63 1527.27 Q2261.53 1525.51 2261.53 1523.82 Q2261.53 1521.07 2259.59 1519.33 Q2257.67 1517.6 2254.56 1517.6 Q2252.36 1517.6 2249.91 1518.36 Q2247.48 1519.13 2244.7 1520.68 L2244.7 1515.95 Q2247.53 1514.82 2249.98 1514.24 Q2252.43 1513.66 2254.47 1513.66 Q2259.84 1513.66 2263.04 1516.35 Q2266.23 1519.03 2266.23 1523.52 Q2266.23 1525.65 2265.42 1527.57 Q2264.63 1529.47 2262.53 1532.07 Q2261.95 1532.74 2258.85 1535.95 Q2255.74 1539.15 2250.1 1544.91 Z" fill="#000000" fill-rule="nonzero" fill-opacity="1" /><polyline clip-path="url(#clip220)" style="stroke:#000000; stroke-linecap:round; stroke-linejoin:round; stroke-width:4; stroke-opacity:1; fill:none" points="147.478,1486.45 147.478,47.2441 "/>
<polyline clip-path="url(#clip220)" style="stroke:#000000; stroke-linecap:round; stroke-linejoin:round; stroke-width:4; stroke-opacity:1; fill:none" points="147.478,1438.92 166.376,1438.92 "/>
<polyline clip-path="url(#clip220)" style="stroke:#000000; stroke-linecap:round; stroke-linejoin:round; stroke-width:4; stroke-opacity:1; fill:none" points="147.478,1053.37 166.376,1053.37 "/>
<polyline clip-path="url(#clip220)" style="stroke:#000000; stroke-linecap:round; stroke-linejoin:round; stroke-width:4; stroke-opacity:1; fill:none" points="147.478,667.818 166.376,667.818 "/>
<polyline clip-path="url(#clip220)" style="stroke:#000000; stroke-linecap:round; stroke-linejoin:round; stroke-width:4; stroke-opacity:1; fill:none" points="147.478,282.267 166.376,282.267 "/>
<path clip-path="url(#clip220)" d="M51.3625 1439.37 L81.0383 1439.37 L81.0383 1443.31 L51.3625 1443.31 L51.3625 1439.37 Z" fill="#000000" fill-rule="nonzero" fill-opacity="1" /><path clip-path="url(#clip220)" d="M95.1586 1452.26 L111.478 1452.26 L111.478 1456.2 L89.5336 1456.2 L89.5336 1452.26 Q92.1956 1449.51 96.7789 1444.88 Q101.385 1440.23 102.566 1438.88 Q104.811 1436.36 105.691 1434.63 Q106.594 1432.87 106.594 1431.18 Q106.594 1428.42 104.649 1426.69 Q102.728 1424.95 99.6261 1424.95 Q97.4271 1424.95 94.9734 1425.71 Q92.5428 1426.48 89.7651 1428.03 L89.7651 1423.31 Q92.5891 1422.17 95.0428 1421.59 Q97.4965 1421.01 99.5335 1421.01 Q104.904 1421.01 108.098 1423.7 Q111.293 1426.38 111.293 1430.88 Q111.293 1433.01 110.483 1434.93 Q109.696 1436.82 107.589 1439.42 Q107.01 1440.09 103.909 1443.31 Q100.807 1446.5 95.1586 1452.26 Z" fill="#000000" fill-rule="nonzero" fill-opacity="1" /><path clip-path="url(#clip220)" d="M50.9921 1053.82 L80.6679 1053.82 L80.6679 1057.76 L50.9921 1057.76 L50.9921 1053.82 Z" fill="#000000" fill-rule="nonzero" fill-opacity="1" /><path clip-path="url(#clip220)" d="M91.5706 1066.71 L99.2095 1066.71 L99.2095 1040.35 L90.8993 1042.01 L90.8993 1037.76 L99.1632 1036.09 L103.839 1036.09 L103.839 1066.71 L111.478 1066.71 L111.478 1070.65 L91.5706 1070.65 L91.5706 1066.71 Z" fill="#000000" fill-rule="nonzero" fill-opacity="1" /><path clip-path="url(#clip220)" d="M99.5335 653.616 Q95.9224 653.616 94.0937 657.181 Q92.2882 660.723 92.2882 667.852 Q92.2882 674.959 94.0937 678.524 Q95.9224 682.065 99.5335 682.065 Q103.168 682.065 104.973 678.524 Q106.802 674.959 106.802 667.852 Q106.802 660.723 104.973 657.181 Q103.168 653.616 99.5335 653.616 M99.5335 649.913 Q105.344 649.913 108.399 654.519 Q111.478 659.103 111.478 667.852 Q111.478 676.579 108.399 681.186 Q105.344 685.769 99.5335 685.769 Q93.7234 685.769 90.6447 681.186 Q87.5892 676.579 87.5892 667.852 Q87.5892 659.103 90.6447 654.519 Q93.7234 649.913 99.5335 649.913 Z" fill="#000000" fill-rule="nonzero" fill-opacity="1" /><path clip-path="url(#clip220)" d="M91.5706 295.612 L99.2095 295.612 L99.2095 269.246 L90.8993 270.913 L90.8993 266.654 L99.1632 264.987 L103.839 264.987 L103.839 295.612 L111.478 295.612 L111.478 299.547 L91.5706 299.547 L91.5706 295.612 Z" fill="#000000" fill-rule="nonzero" fill-opacity="1" /><circle clip-path="url(#clip221)" cx="1164.79" cy="379.15" r="14.4" fill="#009af9" fill-rule="evenodd" fill-opacity="0.5" stroke="#000000" stroke-opacity="0.5" stroke-width="3.2"/>
<circle clip-path="url(#clip221)" cx="626.53" cy="1075.46" r="14.4" fill="#009af9" fill-rule="evenodd" fill-opacity="0.5" stroke="#000000" stroke-opacity="0.5" stroke-width="3.2"/>
<circle clip-path="url(#clip221)" cx="345.885" cy="87.9763" r="14.4" fill="#009af9" fill-rule="evenodd" fill-opacity="0.5" stroke="#000000" stroke-opacity="0.5" stroke-width="3.2"/>
<circle clip-path="url(#clip221)" cx="740.27" cy="506.177" r="14.4" fill="#009af9" fill-rule="evenodd" fill-opacity="0.5" stroke="#000000" stroke-opacity="0.5" stroke-width="3.2"/>
<circle clip-path="url(#clip221)" cx="1060.31" cy="327.54" r="14.4" fill="#009af9" fill-rule="evenodd" fill-opacity="0.5" stroke="#000000" stroke-opacity="0.5" stroke-width="3.2"/>
<circle clip-path="url(#clip221)" cx="916.598" cy="378.047" r="14.4" fill="#009af9" fill-rule="evenodd" fill-opacity="0.5" stroke="#000000" stroke-opacity="0.5" stroke-width="3.2"/>
<circle clip-path="url(#clip221)" cx="1686.09" cy="773.335" r="14.4" fill="#009af9" fill-rule="evenodd" fill-opacity="0.5" stroke="#000000" stroke-opacity="0.5" stroke-width="3.2"/>
<circle clip-path="url(#clip221)" cx="939.483" cy="741.602" r="14.4" fill="#009af9" fill-rule="evenodd" fill-opacity="0.5" stroke="#000000" stroke-opacity="0.5" stroke-width="3.2"/>
<circle clip-path="url(#clip221)" cx="1329.44" cy="615.124" r="14.4" fill="#009af9" fill-rule="evenodd" fill-opacity="0.5" stroke="#000000" stroke-opacity="0.5" stroke-width="3.2"/>
<circle clip-path="url(#clip221)" cx="1512.41" cy="342.145" r="14.4" fill="#009af9" fill-rule="evenodd" fill-opacity="0.5" stroke="#000000" stroke-opacity="0.5" stroke-width="3.2"/>
<circle clip-path="url(#clip221)" cx="1529.12" cy="823.988" r="14.4" fill="#009af9" fill-rule="evenodd" fill-opacity="0.5" stroke="#000000" stroke-opacity="0.5" stroke-width="3.2"/>
<circle clip-path="url(#clip221)" cx="2290.34" cy="803.054" r="14.4" fill="#009af9" fill-rule="evenodd" fill-opacity="0.5" stroke="#000000" stroke-opacity="0.5" stroke-width="3.2"/>
<circle clip-path="url(#clip221)" cx="964.825" cy="721.223" r="14.4" fill="#009af9" fill-rule="evenodd" fill-opacity="0.5" stroke="#000000" stroke-opacity="0.5" stroke-width="3.2"/>
<circle clip-path="url(#clip221)" cx="1999.3" cy="1355.24" r="14.4" fill="#009af9" fill-rule="evenodd" fill-opacity="0.5" stroke="#000000" stroke-opacity="0.5" stroke-width="3.2"/>
<circle clip-path="url(#clip221)" cx="1981.77" cy="513.222" r="14.4" fill="#009af9" fill-rule="evenodd" fill-opacity="0.5" stroke="#000000" stroke-opacity="0.5" stroke-width="3.2"/>
<circle clip-path="url(#clip221)" cx="424.941" cy="1181.91" r="14.4" fill="#009af9" fill-rule="evenodd" fill-opacity="0.5" stroke="#000000" stroke-opacity="0.5" stroke-width="3.2"/>
<circle clip-path="url(#clip221)" cx="1030.99" cy="445.623" r="14.4" fill="#009af9" fill-rule="evenodd" fill-opacity="0.5" stroke="#000000" stroke-opacity="0.5" stroke-width="3.2"/>
<circle clip-path="url(#clip221)" cx="1063.24" cy="562.399" r="14.4" fill="#009af9" fill-rule="evenodd" fill-opacity="0.5" stroke="#000000" stroke-opacity="0.5" stroke-width="3.2"/>
<circle clip-path="url(#clip221)" cx="2281.57" cy="785.76" r="14.4" fill="#009af9" fill-rule="evenodd" fill-opacity="0.5" stroke="#000000" stroke-opacity="0.5" stroke-width="3.2"/>
<circle clip-path="url(#clip221)" cx="1360.28" cy="920.877" r="14.4" fill="#009af9" fill-rule="evenodd" fill-opacity="0.5" stroke="#000000" stroke-opacity="0.5" stroke-width="3.2"/>
<circle clip-path="url(#clip221)" cx="1612.31" cy="289.003" r="14.4" fill="#009af9" fill-rule="evenodd" fill-opacity="0.5" stroke="#000000" stroke-opacity="0.5" stroke-width="3.2"/>
<circle clip-path="url(#clip221)" cx="285.839" cy="1445.72" r="14.4" fill="#009af9" fill-rule="evenodd" fill-opacity="0.5" stroke="#000000" stroke-opacity="0.5" stroke-width="3.2"/>
<circle clip-path="url(#clip221)" cx="1119.08" cy="1239.09" r="14.4" fill="#009af9" fill-rule="evenodd" fill-opacity="0.5" stroke="#000000" stroke-opacity="0.5" stroke-width="3.2"/>
<circle clip-path="url(#clip221)" cx="209.891" cy="978.206" r="14.4" fill="#009af9" fill-rule="evenodd" fill-opacity="0.5" stroke="#000000" stroke-opacity="0.5" stroke-width="3.2"/>
<circle clip-path="url(#clip221)" cx="1642.4" cy="851.786" r="14.4" fill="#009af9" fill-rule="evenodd" fill-opacity="0.5" stroke="#000000" stroke-opacity="0.5" stroke-width="3.2"/>
<circle clip-path="url(#clip221)" cx="847.249" cy="553.341" r="14.4" fill="#009af9" fill-rule="evenodd" fill-opacity="0.5" stroke="#000000" stroke-opacity="0.5" stroke-width="3.2"/>
<circle clip-path="url(#clip221)" cx="486.601" cy="489.906" r="14.4" fill="#009af9" fill-rule="evenodd" fill-opacity="0.5" stroke="#000000" stroke-opacity="0.5" stroke-width="3.2"/>
<circle clip-path="url(#clip221)" cx="1493.76" cy="1148.16" r="14.4" fill="#009af9" fill-rule="evenodd" fill-opacity="0.5" stroke="#000000" stroke-opacity="0.5" stroke-width="3.2"/>
<circle clip-path="url(#clip221)" cx="1233.65" cy="690.595" r="14.4" fill="#009af9" fill-rule="evenodd" fill-opacity="0.5" stroke="#000000" stroke-opacity="0.5" stroke-width="3.2"/>
<circle clip-path="url(#clip221)" cx="814.913" cy="1083.05" r="14.4" fill="#009af9" fill-rule="evenodd" fill-opacity="0.5" stroke="#000000" stroke-opacity="0.5" stroke-width="3.2"/>
<path clip-path="url(#clip221)" d="M209.891 978.206 L285.839 1445.72 L1999.3 1355.24 L2290.34 803.054 L2281.57 785.76 L1981.77 513.222 L1612.31 289.003 L345.885 87.9763 L209.891 978.206 L209.891 978.206  Z" fill="#e26f46" fill-rule="evenodd" fill-opacity="0.2"/>
<polyline clip-path="url(#clip221)" style="stroke:#000000; stroke-linecap:round; stroke-linejoin:round; stroke-width:4; stroke-opacity:0.2; fill:none" points="209.891,978.206 285.839,1445.72 1999.3,1355.24 2290.34,803.054 2281.57,785.76 1981.77,513.222 1612.31,289.003 345.885,87.9763 209.891,978.206 "/>
</svg>
