<?xml version="1.0" encoding="utf-8"?>
<svg xmlns="http://www.w3.org/2000/svg" xmlns:xlink="http://www.w3.org/1999/xlink" width="600" height="400" viewBox="0 0 2400 1600">
<defs>
  <clipPath id="clip160">
    <rect x="0" y="0" width="2400" height="1600"/>
  </clipPath>
</defs>
<path clip-path="url(#clip160)" d="M0 1600 L2400 1600 L2400 0 L0 0  Z" fill="#ffffff" fill-rule="evenodd" fill-opacity="1"/>
<defs>
  <clipPath id="clip161">
    <rect x="480" y="0" width="1681" height="1600"/>
  </clipPath>
</defs>
<path clip-path="url(#clip160)" d="M147.478 1486.45 L2352.76 1486.45 L2352.76 47.2441 L147.478 47.2441  Z" fill="#ffffff" fill-rule="evenodd" fill-opacity="1"/>
<defs>
  <clipPath id="clip162">
    <rect x="147" y="47" width="2206" height="1440"/>
  </clipPath>
</defs>
<polyline clip-path="url(#clip162)" style="stroke:#000000; stroke-linecap:round; stroke-linejoin:round; stroke-width:2; stroke-opacity:0.1; fill:none" points="197.263,1486.45 197.263,47.2441 "/>
<polyline clip-path="url(#clip162)" style="stroke:#000000; stroke-linecap:round; stroke-linejoin:round; stroke-width:2; stroke-opacity:0.1; fill:none" points="641.777,1486.45 641.777,47.2441 "/>
<polyline clip-path="url(#clip162)" style="stroke:#000000; stroke-linecap:round; stroke-linejoin:round; stroke-width:2; stroke-opacity:0.1; fill:none" points="1086.29,1486.45 1086.29,47.2441 "/>
<polyline clip-path="url(#clip162)" style="stroke:#000000; stroke-linecap:round; stroke-linejoin:round; stroke-width:2; stroke-opacity:0.1; fill:none" points="1530.81,1486.45 1530.81,47.2441 "/>
<polyline clip-path="url(#clip162)" style="stroke:#000000; stroke-linecap:round; stroke-linejoin:round; stroke-width:2; stroke-opacity:0.1; fill:none" points="1975.32,1486.45 1975.32,47.2441 "/>
<polyline clip-path="url(#clip162)" style="stroke:#000000; stroke-linecap:round; stroke-linejoin:round; stroke-width:2; stroke-opacity:0.1; fill:none" points="147.478,1176.58 2352.76,1176.58 "/>
<polyline clip-path="url(#clip162)" style="stroke:#000000; stroke-linecap:round; stroke-linejoin:round; stroke-width:2; stroke-opacity:0.1; fill:none" points="147.478,845.624 2352.76,845.624 "/>
<polyline clip-path="url(#clip162)" style="stroke:#000000; stroke-linecap:round; stroke-linejoin:round; stroke-width:2; stroke-opacity:0.1; fill:none" points="147.478,514.667 2352.76,514.667 "/>
<polyline clip-path="url(#clip162)" style="stroke:#000000; stroke-linecap:round; stroke-linejoin:round; stroke-width:2; stroke-opacity:0.1; fill:none" points="147.478,183.709 2352.76,183.709 "/>
<polyline clip-path="url(#clip160)" style="stroke:#000000; stroke-linecap:round; stroke-linejoin:round; stroke-width:4; stroke-opacity:1; fill:none" points="147.478,1486.45 2352.76,1486.45 "/>
<polyline clip-path="url(#clip160)" style="stroke:#000000; stroke-linecap:round; stroke-linejoin:round; stroke-width:4; stroke-opacity:1; fill:none" points="197.263,1486.45 197.263,1467.55 "/>
<polyline clip-path="url(#clip160)" style="stroke:#000000; stroke-linecap:round; stroke-linejoin:round; stroke-width:4; stroke-opacity:1; fill:none" points="641.777,1486.45 641.777,1467.55 "/>
<polyline clip-path="url(#clip160)" style="stroke:#000000; stroke-linecap:round; stroke-linejoin:round; stroke-width:4; stroke-opacity:1; fill:none" points="1086.29,1486.45 1086.29,1467.55 "/>
<polyline clip-path="url(#clip160)" style="stroke:#000000; stroke-linecap:round; stroke-linejoin:round; stroke-width:4; stroke-opacity:1; fill:none" points="1530.81,1486.45 1530.81,1467.55 "/>
<polyline clip-path="url(#clip160)" style="stroke:#000000; stroke-linecap:round; stroke-linejoin:round; stroke-width:4; stroke-opacity:1; fill:none" points="1975.32,1486.45 1975.32,1467.55 "/>
<path clip-path="url(#clip160)" d="M167.205 1532.02 L196.881 1532.02 L196.881 1535.95 L167.205 1535.95 L167.205 1532.02 Z" fill="#000000" fill-rule="nonzero" fill-opacity="1" /><path clip-path="url(#clip160)" d="M211.001 1544.91 L227.32 1544.91 L227.32 1548.85 L205.376 1548.85 L205.376 1544.91 Q208.038 1542.16 212.621 1537.53 Q217.228 1532.88 218.408 1531.53 Q220.654 1529.01 221.533 1527.27 Q222.436 1525.51 222.436 1523.82 Q222.436 1521.07 220.492 1519.33 Q218.57 1517.6 215.468 1517.6 Q213.269 1517.6 210.816 1518.36 Q208.385 1519.13 205.607 1520.68 L205.607 1515.95 Q208.431 1514.82 210.885 1514.24 Q213.339 1513.66 215.376 1513.66 Q220.746 1513.66 223.941 1516.35 Q227.135 1519.03 227.135 1523.52 Q227.135 1525.65 226.325 1527.57 Q225.538 1529.47 223.431 1532.07 Q222.853 1532.74 219.751 1535.95 Q216.649 1539.15 211.001 1544.91 Z" fill="#000000" fill-rule="nonzero" fill-opacity="1" /><path clip-path="url(#clip160)" d="M611.534 1532.02 L641.21 1532.02 L641.21 1535.95 L611.534 1535.95 L611.534 1532.02 Z" fill="#000000" fill-rule="nonzero" fill-opacity="1" /><path clip-path="url(#clip160)" d="M652.113 1544.91 L659.751 1544.91 L659.751 1518.55 L651.441 1520.21 L651.441 1515.95 L659.705 1514.29 L664.381 1514.29 L664.381 1544.91 L672.02 1544.91 L672.02 1548.85 L652.113 1548.85 L652.113 1544.91 Z" fill="#000000" fill-rule="nonzero" fill-opacity="1" /><path clip-path="url(#clip160)" d="M1086.29 1517.37 Q1082.68 1517.37 1080.85 1520.93 Q1079.05 1524.47 1079.05 1531.6 Q1079.05 1538.71 1080.85 1542.27 Q1082.68 1545.82 1086.29 1545.82 Q1089.93 1545.82 1091.73 1542.27 Q1093.56 1538.71 1093.56 1531.6 Q1093.56 1524.47 1091.73 1520.93 Q1089.93 1517.37 1086.29 1517.37 M1086.29 1513.66 Q1092.1 1513.66 1095.16 1518.27 Q1098.24 1522.85 1098.24 1531.6 Q1098.24 1540.33 1095.16 1544.94 Q1092.1 1549.52 1086.29 1549.52 Q1080.48 1549.52 1077.4 1544.94 Q1074.35 1540.33 1074.35 1531.6 Q1074.35 1522.85 1077.4 1518.27 Q1080.48 1513.66 1086.29 1513.66 Z" fill="#000000" fill-rule="nonzero" fill-opacity="1" /><path clip-path="url(#clip160)" d="M1521.19 1544.91 L1528.83 1544.91 L1528.83 1518.55 L1520.52 1520.21 L1520.52 1515.95 L1528.78 1514.29 L1533.46 1514.29 L1533.46 1544.91 L1541.1 1544.91 L1541.1 1548.85 L1521.19 1548.85 L1521.19 1544.91 Z" fill="#000000" fill-rule="nonzero" fill-opacity="1" /><path clip-path="url(#clip160)" d="M1969.97 1544.91 L1986.29 1544.91 L1986.29 1548.85 L1964.35 1548.85 L1964.35 1544.91 Q1967.01 1542.16 1971.59 1537.53 Q1976.2 1532.88 1977.38 1531.53 Q1979.63 1529.01 1980.51 1527.27 Q1981.41 1525.51 1981.41 1523.82 Q1981.41 1521.07 1979.46 1519.33 Q1977.54 1517.6 1974.44 1517.6 Q1972.24 1517.6 1969.79 1518.36 Q1967.36 1519.13 1964.58 1520.68 L1964.58 1515.95 Q1967.4 1514.82 1969.86 1514.24 Q1972.31 1513.66 1974.35 1513.66 Q1979.72 1513.66 1982.91 1516.35 Q1986.11 1519.03 1986.11 1523.52 Q1986.11 1525.65 1985.3 1527.57 Q1984.51 1529.47 1982.4 1532.07 Q1981.82 1532.74 1978.72 1535.95 Q1975.62 1539.15 1969.97 1544.91 Z" fill="#000000" fill-rule="nonzero" fill-opacity="1" /><polyline clip-path="url(#clip160)" style="stroke:#000000; stroke-linecap:round; stroke-linejoin:round; stroke-width:4; stroke-opacity:1; fill:none" points="147.478,1486.45 147.478,47.2441 "/>
<polyline clip-path="url(#clip160)" style="stroke:#000000; stroke-linecap:round; stroke-linejoin:round; stroke-width:4; stroke-opacity:1; fill:none" points="147.478,1176.58 166.376,1176.58 "/>
<polyline clip-path="url(#clip160)" style="stroke:#000000; stroke-linecap:round; stroke-linejoin:round; stroke-width:4; stroke-opacity:1; fill:none" points="147.478,845.624 166.376,845.624 "/>
<polyline clip-path="url(#clip160)" style="stroke:#000000; stroke-linecap:round; stroke-linejoin:round; stroke-width:4; stroke-opacity:1; fill:none" points="147.478,514.667 166.376,514.667 "/>
<polyline clip-path="url(#clip160)" style="stroke:#000000; stroke-linecap:round; stroke-linejoin:round; stroke-width:4; stroke-opacity:1; fill:none" points="147.478,183.709 166.376,183.709 "/>
<path clip-path="url(#clip160)" d="M50.9921 1177.03 L80.6679 1177.03 L80.6679 1180.97 L50.9921 1180.97 L50.9921 1177.03 Z" fill="#000000" fill-rule="nonzero" fill-opacity="1" /><path clip-path="url(#clip160)" d="M91.5706 1189.93 L99.2095 1189.93 L99.2095 1163.56 L90.8993 1165.23 L90.8993 1160.97 L99.1632 1159.3 L103.839 1159.3 L103.839 1189.93 L111.478 1189.93 L111.478 1193.86 L91.5706 1193.86 L91.5706 1189.93 Z" fill="#000000" fill-rule="nonzero" fill-opacity="1" /><path clip-path="url(#clip160)" d="M99.5335 831.423 Q95.9224 831.423 94.0937 834.988 Q92.2882 838.529 92.2882 845.659 Q92.2882 852.765 94.0937 856.33 Q95.9224 859.872 99.5335 859.872 Q103.168 859.872 104.973 856.33 Q106.802 852.765 106.802 845.659 Q106.802 838.529 104.973 834.988 Q103.168 831.423 99.5335 831.423 M99.5335 827.719 Q105.344 827.719 108.399 832.326 Q111.478 836.909 111.478 845.659 Q111.478 854.386 108.399 858.992 Q105.344 863.576 99.5335 863.576 Q93.7234 863.576 90.6447 858.992 Q87.5892 854.386 87.5892 845.659 Q87.5892 836.909 90.6447 832.326 Q93.7234 827.719 99.5335 827.719 Z" fill="#000000" fill-rule="nonzero" fill-opacity="1" /><path clip-path="url(#clip160)" d="M91.5706 528.011 L99.2095 528.011 L99.2095 501.646 L90.8993 503.312 L90.8993 499.053 L99.1632 497.387 L103.839 497.387 L103.839 528.011 L111.478 528.011 L111.478 531.947 L91.5706 531.947 L91.5706 528.011 Z" fill="#000000" fill-rule="nonzero" fill-opacity="1" /><path clip-path="url(#clip160)" d="M95.1586 197.054 L111.478 197.054 L111.478 200.989 L89.5336 200.989 L89.5336 197.054 Q92.1956 194.299 96.7789 189.669 Q101.385 185.017 102.566 183.674 Q104.811 181.151 105.691 179.415 Q106.594 177.656 106.594 175.966 Q106.594 173.211 104.649 171.475 Q102.728 169.739 99.6261 169.739 Q97.4271 169.739 94.9734 170.503 Q92.5428 171.267 89.7651 172.818 L89.7651 168.095 Q92.5891 166.961 95.0428 166.382 Q97.4965 165.804 99.5335 165.804 Q104.904 165.804 108.098 168.489 Q111.293 171.174 111.293 175.665 Q111.293 177.794 110.483 179.716 Q109.696 181.614 107.589 184.206 Q107.01 184.878 103.909 188.095 Q100.807 191.29 95.1586 197.054 Z" fill="#000000" fill-rule="nonzero" fill-opacity="1" /><circle clip-path="url(#clip162)" cx="1110.51" cy="1042.24" r="14.4" fill="#009af9" fill-rule="evenodd" fill-opacity="0.5" stroke="#000000" stroke-opacity="0.5" stroke-width="3.2"/>
<circle clip-path="url(#clip162)" cx="1813.31" cy="1445.72" r="14.4" fill="#009af9" fill-rule="evenodd" fill-opacity="0.5" stroke="#000000" stroke-opacity="0.5" stroke-width="3.2"/>
<circle clip-path="url(#clip162)" cx="926.627" cy="1254.13" r="14.4" fill="#009af9" fill-rule="evenodd" fill-opacity="0.5" stroke="#000000" stroke-opacity="0.5" stroke-width="3.2"/>
<circle clip-path="url(#clip162)" cx="473.65" cy="1118.77" r="14.4" fill="#009af9" fill-rule="evenodd" fill-opacity="0.5" stroke="#000000" stroke-opacity="0.5" stroke-width="3.2"/>
<circle clip-path="url(#clip162)" cx="1341.79" cy="388.728" r="14.4" fill="#009af9" fill-rule="evenodd" fill-opacity="0.5" stroke="#000000" stroke-opacity="0.5" stroke-width="3.2"/>
<circle clip-path="url(#clip162)" cx="1678.72" cy="776.665" r="14.4" fill="#009af9" fill-rule="evenodd" fill-opacity="0.5" stroke="#000000" stroke-opacity="0.5" stroke-width="3.2"/>
<circle clip-path="url(#clip162)" cx="1349.58" cy="87.9763" r="14.4" fill="#009af9" fill-rule="evenodd" fill-opacity="0.5" stroke="#000000" stroke-opacity="0.5" stroke-width="3.2"/>
<circle clip-path="url(#clip162)" cx="957.874" cy="1256.89" r="14.4" fill="#009af9" fill-rule="evenodd" fill-opacity="0.5" stroke="#000000" stroke-opacity="0.5" stroke-width="3.2"/>
<circle clip-path="url(#clip162)" cx="209.891" cy="938.937" r="14.4" fill="#009af9" fill-rule="evenodd" fill-opacity="0.5" stroke="#000000" stroke-opacity="0.5" stroke-width="3.2"/>
<circle clip-path="url(#clip162)" cx="982.173" cy="1221.22" r="14.4" fill="#009af9" fill-rule="evenodd" fill-opacity="0.5" stroke="#000000" stroke-opacity="0.5" stroke-width="3.2"/>
<circle clip-path="url(#clip162)" cx="861.024" cy="1053.33" r="14.4" fill="#009af9" fill-rule="evenodd" fill-opacity="0.5" stroke="#000000" stroke-opacity="0.5" stroke-width="3.2"/>
<circle clip-path="url(#clip162)" cx="1658.02" cy="265.002" r="14.4" fill="#009af9" fill-rule="evenodd" fill-opacity="0.5" stroke="#000000" stroke-opacity="0.5" stroke-width="3.2"/>
<circle clip-path="url(#clip162)" cx="1307.45" cy="547.727" r="14.4" fill="#009af9" fill-rule="evenodd" fill-opacity="0.5" stroke="#000000" stroke-opacity="0.5" stroke-width="3.2"/>
<circle clip-path="url(#clip162)" cx="1585.82" cy="1343.95" r="14.4" fill="#009af9" fill-rule="evenodd" fill-opacity="0.5" stroke="#000000" stroke-opacity="0.5" stroke-width="3.2"/>
<circle clip-path="url(#clip162)" cx="725.938" cy="831.551" r="14.4" fill="#009af9" fill-rule="evenodd" fill-opacity="0.5" stroke="#000000" stroke-opacity="0.5" stroke-width="3.2"/>
<circle clip-path="url(#clip162)" cx="616.152" cy="959.248" r="14.4" fill="#009af9" fill-rule="evenodd" fill-opacity="0.5" stroke="#000000" stroke-opacity="0.5" stroke-width="3.2"/>
<circle clip-path="url(#clip162)" cx="1411.25" cy="557.562" r="14.4" fill="#009af9" fill-rule="evenodd" fill-opacity="0.5" stroke="#000000" stroke-opacity="0.5" stroke-width="3.2"/>
<circle clip-path="url(#clip162)" cx="1045.37" cy="1043.02" r="14.4" fill="#009af9" fill-rule="evenodd" fill-opacity="0.5" stroke="#000000" stroke-opacity="0.5" stroke-width="3.2"/>
<circle clip-path="url(#clip162)" cx="1869.88" cy="1152.37" r="14.4" fill="#009af9" fill-rule="evenodd" fill-opacity="0.5" stroke="#000000" stroke-opacity="0.5" stroke-width="3.2"/>
<circle clip-path="url(#clip162)" cx="457.314" cy="775.327" r="14.4" fill="#009af9" fill-rule="evenodd" fill-opacity="0.5" stroke="#000000" stroke-opacity="0.5" stroke-width="3.2"/>
<circle clip-path="url(#clip162)" cx="1187.69" cy="843.19" r="14.4" fill="#009af9" fill-rule="evenodd" fill-opacity="0.5" stroke="#000000" stroke-opacity="0.5" stroke-width="3.2"/>
<circle clip-path="url(#clip162)" cx="1260.97" cy="997.011" r="14.4" fill="#009af9" fill-rule="evenodd" fill-opacity="0.5" stroke="#000000" stroke-opacity="0.5" stroke-width="3.2"/>
<circle clip-path="url(#clip162)" cx="1379.93" cy="842.368" r="14.4" fill="#009af9" fill-rule="evenodd" fill-opacity="0.5" stroke="#000000" stroke-opacity="0.5" stroke-width="3.2"/>
<circle clip-path="url(#clip162)" cx="1174.12" cy="983.391" r="14.4" fill="#009af9" fill-rule="evenodd" fill-opacity="0.5" stroke="#000000" stroke-opacity="0.5" stroke-width="3.2"/>
<circle clip-path="url(#clip162)" cx="826.428" cy="731.764" r="14.4" fill="#009af9" fill-rule="evenodd" fill-opacity="0.5" stroke="#000000" stroke-opacity="0.5" stroke-width="3.2"/>
<circle clip-path="url(#clip162)" cx="1029.25" cy="299.105" r="14.4" fill="#009af9" fill-rule="evenodd" fill-opacity="0.5" stroke="#000000" stroke-opacity="0.5" stroke-width="3.2"/>
<circle clip-path="url(#clip162)" cx="498.295" cy="631.644" r="14.4" fill="#009af9" fill-rule="evenodd" fill-opacity="0.5" stroke="#000000" stroke-opacity="0.5" stroke-width="3.2"/>
<circle clip-path="url(#clip162)" cx="859.389" cy="1340.49" r="14.4" fill="#009af9" fill-rule="evenodd" fill-opacity="0.5" stroke="#000000" stroke-opacity="0.5" stroke-width="3.2"/>
<circle clip-path="url(#clip162)" cx="2290.34" cy="219.692" r="14.4" fill="#009af9" fill-rule="evenodd" fill-opacity="0.5" stroke="#000000" stroke-opacity="0.5" stroke-width="3.2"/>
<circle clip-path="url(#clip162)" cx="1040.99" cy="1220.87" r="14.4" fill="#009af9" fill-rule="evenodd" fill-opacity="0.5" stroke="#000000" stroke-opacity="0.5" stroke-width="3.2"/>
<path clip-path="url(#clip162)" d="M209.891 938.937 L473.65 1118.77 L859.389 1340.49 L1813.31 1445.72 L2290.34 219.692 L1349.58 87.9763 L498.295 631.644 L209.891 938.937 L209.891 938.937  Z" fill="#e26f46" fill-rule="evenodd" fill-opacity="0.2"/>
<polyline clip-path="url(#clip162)" style="stroke:#000000; stroke-linecap:round; stroke-linejoin:round; stroke-width:4; stroke-opacity:0.2; fill:none" points="209.891,938.937 473.65,1118.77 859.389,1340.49 1813.31,1445.72 2290.34,219.692 1349.58,87.9763 498.295,631.644 209.891,938.937 "/>
</svg>
