<?xml version="1.0" encoding="utf-8"?>
<svg xmlns="http://www.w3.org/2000/svg" xmlns:xlink="http://www.w3.org/1999/xlink" width="600" height="400" viewBox="0 0 2400 1600">
<defs>
  <clipPath id="clip290">
    <rect x="0" y="0" width="2400" height="1600"/>
  </clipPath>
</defs>
<path clip-path="url(#clip290)" d="M0 1600 L2400 1600 L2400 0 L0 0  Z" fill="#ffffff" fill-rule="evenodd" fill-opacity="1"/>
<defs>
  <clipPath id="clip291">
    <rect x="193" y="47" width="2160" height="1440"/>
  </clipPath>
</defs>
<path clip-path="url(#clip290)" d="M193.936 1486.45 L2352.76 1486.45 L2352.76 47.2441 L193.936 47.2441  Z" fill="#ffffff" fill-rule="evenodd" fill-opacity="1"/>
<polyline clip-path="url(#clip291)" style="stroke:#000000; stroke-linecap:round; stroke-linejoin:round; stroke-width:2; stroke-opacity:0.1; fill:none" points="537.208,1486.45 537.208,47.2441 "/>
<polyline clip-path="url(#clip291)" style="stroke:#000000; stroke-linecap:round; stroke-linejoin:round; stroke-width:2; stroke-opacity:0.1; fill:none" points="947.71,1486.45 947.71,47.2441 "/>
<polyline clip-path="url(#clip291)" style="stroke:#000000; stroke-linecap:round; stroke-linejoin:round; stroke-width:2; stroke-opacity:0.1; fill:none" points="1358.21,1486.45 1358.21,47.2441 "/>
<polyline clip-path="url(#clip291)" style="stroke:#000000; stroke-linecap:round; stroke-linejoin:round; stroke-width:2; stroke-opacity:0.1; fill:none" points="1768.71,1486.45 1768.71,47.2441 "/>
<polyline clip-path="url(#clip291)" style="stroke:#000000; stroke-linecap:round; stroke-linejoin:round; stroke-width:2; stroke-opacity:0.1; fill:none" points="2179.21,1486.45 2179.21,47.2441 "/>
<polyline clip-path="url(#clip291)" style="stroke:#000000; stroke-linecap:round; stroke-linejoin:round; stroke-width:2; stroke-opacity:0.1; fill:none" points="193.936,1399.6 2352.76,1399.6 "/>
<polyline clip-path="url(#clip291)" style="stroke:#000000; stroke-linecap:round; stroke-linejoin:round; stroke-width:2; stroke-opacity:0.1; fill:none" points="193.936,1178.4 2352.76,1178.4 "/>
<polyline clip-path="url(#clip291)" style="stroke:#000000; stroke-linecap:round; stroke-linejoin:round; stroke-width:2; stroke-opacity:0.1; fill:none" points="193.936,957.189 2352.76,957.189 "/>
<polyline clip-path="url(#clip291)" style="stroke:#000000; stroke-linecap:round; stroke-linejoin:round; stroke-width:2; stroke-opacity:0.1; fill:none" points="193.936,735.982 2352.76,735.982 "/>
<polyline clip-path="url(#clip291)" style="stroke:#000000; stroke-linecap:round; stroke-linejoin:round; stroke-width:2; stroke-opacity:0.1; fill:none" points="193.936,514.775 2352.76,514.775 "/>
<polyline clip-path="url(#clip291)" style="stroke:#000000; stroke-linecap:round; stroke-linejoin:round; stroke-width:2; stroke-opacity:0.1; fill:none" points="193.936,293.567 2352.76,293.567 "/>
<polyline clip-path="url(#clip291)" style="stroke:#000000; stroke-linecap:round; stroke-linejoin:round; stroke-width:2; stroke-opacity:0.1; fill:none" points="193.936,72.3598 2352.76,72.3598 "/>
<polyline clip-path="url(#clip290)" style="stroke:#000000; stroke-linecap:round; stroke-linejoin:round; stroke-width:4; stroke-opacity:1; fill:none" points="193.936,1486.45 2352.76,1486.45 "/>
<polyline clip-path="url(#clip290)" style="stroke:#000000; stroke-linecap:round; stroke-linejoin:round; stroke-width:4; stroke-opacity:1; fill:none" points="537.208,1486.45 537.208,1467.55 "/>
<polyline clip-path="url(#clip290)" style="stroke:#000000; stroke-linecap:round; stroke-linejoin:round; stroke-width:4; stroke-opacity:1; fill:none" points="947.71,1486.45 947.71,1467.55 "/>
<polyline clip-path="url(#clip290)" style="stroke:#000000; stroke-linecap:round; stroke-linejoin:round; stroke-width:4; stroke-opacity:1; fill:none" points="1358.21,1486.45 1358.21,1467.55 "/>
<polyline clip-path="url(#clip290)" style="stroke:#000000; stroke-linecap:round; stroke-linejoin:round; stroke-width:4; stroke-opacity:1; fill:none" points="1768.71,1486.45 1768.71,1467.55 "/>
<polyline clip-path="url(#clip290)" style="stroke:#000000; stroke-linecap:round; stroke-linejoin:round; stroke-width:4; stroke-opacity:1; fill:none" points="2179.21,1486.45 2179.21,1467.55 "/>
<path clip-path="url(#clip290)" d="M507.15 1532.02 L536.826 1532.02 L536.826 1535.95 L507.15 1535.95 L507.15 1532.02 Z" fill="#000000" fill-rule="nonzero" fill-opacity="1" /><path clip-path="url(#clip290)" d="M550.947 1544.91 L567.266 1544.91 L567.266 1548.85 L545.322 1548.85 L545.322 1544.91 Q547.984 1542.16 552.567 1537.53 Q557.173 1532.88 558.354 1531.53 Q560.599 1529.01 561.479 1527.27 Q562.382 1525.51 562.382 1523.82 Q562.382 1521.07 560.437 1519.33 Q558.516 1517.6 555.414 1517.6 Q553.215 1517.6 550.761 1518.36 Q548.331 1519.13 545.553 1520.68 L545.553 1515.95 Q548.377 1514.82 550.831 1514.24 Q553.285 1513.66 555.322 1513.66 Q560.692 1513.66 563.886 1516.35 Q567.081 1519.03 567.081 1523.52 Q567.081 1525.65 566.271 1527.57 Q565.484 1529.47 563.377 1532.07 Q562.798 1532.74 559.697 1535.95 Q556.595 1539.15 550.947 1544.91 Z" fill="#000000" fill-rule="nonzero" fill-opacity="1" /><path clip-path="url(#clip290)" d="M917.467 1532.02 L947.143 1532.02 L947.143 1535.95 L917.467 1535.95 L917.467 1532.02 Z" fill="#000000" fill-rule="nonzero" fill-opacity="1" /><path clip-path="url(#clip290)" d="M958.045 1544.91 L965.684 1544.91 L965.684 1518.55 L957.374 1520.21 L957.374 1515.95 L965.638 1514.29 L970.314 1514.29 L970.314 1544.91 L977.953 1544.91 L977.953 1548.85 L958.045 1548.85 L958.045 1544.91 Z" fill="#000000" fill-rule="nonzero" fill-opacity="1" /><path clip-path="url(#clip290)" d="M1358.21 1517.37 Q1354.6 1517.37 1352.77 1520.93 Q1350.97 1524.47 1350.97 1531.6 Q1350.97 1538.71 1352.77 1542.27 Q1354.6 1545.82 1358.21 1545.82 Q1361.85 1545.82 1363.65 1542.27 Q1365.48 1538.71 1365.48 1531.6 Q1365.48 1524.47 1363.65 1520.93 Q1361.85 1517.37 1358.21 1517.37 M1358.21 1513.66 Q1364.02 1513.66 1367.08 1518.27 Q1370.16 1522.85 1370.16 1531.6 Q1370.16 1540.33 1367.08 1544.94 Q1364.02 1549.52 1358.21 1549.52 Q1352.4 1549.52 1349.32 1544.94 Q1346.27 1540.33 1346.27 1531.6 Q1346.27 1522.85 1349.32 1518.27 Q1352.4 1513.66 1358.21 1513.66 Z" fill="#000000" fill-rule="nonzero" fill-opacity="1" /><path clip-path="url(#clip290)" d="M1759.09 1544.91 L1766.73 1544.91 L1766.73 1518.55 L1758.42 1520.21 L1758.42 1515.95 L1766.69 1514.29 L1771.36 1514.29 L1771.36 1544.91 L1779 1544.91 L1779 1548.85 L1759.09 1548.85 L1759.09 1544.91 Z" fill="#000000" fill-rule="nonzero" fill-opacity="1" /><path clip-path="url(#clip290)" d="M2173.87 1544.91 L2190.19 1544.91 L2190.19 1548.85 L2168.24 1548.85 L2168.24 1544.91 Q2170.9 1542.16 2175.49 1537.53 Q2180.09 1532.88 2181.27 1531.53 Q2183.52 1529.01 2184.4 1527.27 Q2185.3 1525.51 2185.3 1523.82 Q2185.3 1521.07 2183.36 1519.33 Q2181.44 1517.6 2178.33 1517.6 Q2176.14 1517.6 2173.68 1518.36 Q2171.25 1519.13 2168.47 1520.68 L2168.47 1515.95 Q2171.3 1514.82 2173.75 1514.24 Q2176.2 1513.66 2178.24 1513.66 Q2183.61 1513.66 2186.81 1516.35 Q2190 1519.03 2190 1523.52 Q2190 1525.65 2189.19 1527.57 Q2188.4 1529.47 2186.3 1532.07 Q2185.72 1532.74 2182.62 1535.95 Q2179.51 1539.15 2173.87 1544.91 Z" fill="#000000" fill-rule="nonzero" fill-opacity="1" /><polyline clip-path="url(#clip290)" style="stroke:#000000; stroke-linecap:round; stroke-linejoin:round; stroke-width:4; stroke-opacity:1; fill:none" points="193.936,1486.45 193.936,47.2441 "/>
<polyline clip-path="url(#clip290)" style="stroke:#000000; stroke-linecap:round; stroke-linejoin:round; stroke-width:4; stroke-opacity:1; fill:none" points="193.936,1399.6 212.834,1399.6 "/>
<polyline clip-path="url(#clip290)" style="stroke:#000000; stroke-linecap:round; stroke-linejoin:round; stroke-width:4; stroke-opacity:1; fill:none" points="193.936,1178.4 212.834,1178.4 "/>
<polyline clip-path="url(#clip290)" style="stroke:#000000; stroke-linecap:round; stroke-linejoin:round; stroke-width:4; stroke-opacity:1; fill:none" points="193.936,957.189 212.834,957.189 "/>
<polyline clip-path="url(#clip290)" style="stroke:#000000; stroke-linecap:round; stroke-linejoin:round; stroke-width:4; stroke-opacity:1; fill:none" points="193.936,735.982 212.834,735.982 "/>
<polyline clip-path="url(#clip290)" style="stroke:#000000; stroke-linecap:round; stroke-linejoin:round; stroke-width:4; stroke-opacity:1; fill:none" points="193.936,514.775 212.834,514.775 "/>
<polyline clip-path="url(#clip290)" style="stroke:#000000; stroke-linecap:round; stroke-linejoin:round; stroke-width:4; stroke-opacity:1; fill:none" points="193.936,293.567 212.834,293.567 "/>
<polyline clip-path="url(#clip290)" style="stroke:#000000; stroke-linecap:round; stroke-linejoin:round; stroke-width:4; stroke-opacity:1; fill:none" points="193.936,72.3598 212.834,72.3598 "/>
<path clip-path="url(#clip290)" d="M51.9875 1400.06 L81.6633 1400.06 L81.6633 1403.99 L51.9875 1403.99 L51.9875 1400.06 Z" fill="#000000" fill-rule="nonzero" fill-opacity="1" /><path clip-path="url(#clip290)" d="M92.566 1412.95 L100.205 1412.95 L100.205 1386.58 L91.8947 1388.25 L91.8947 1383.99 L100.159 1382.32 L104.834 1382.32 L104.834 1412.95 L112.473 1412.95 L112.473 1416.88 L92.566 1416.88 L92.566 1412.95 Z" fill="#000000" fill-rule="nonzero" fill-opacity="1" /><path clip-path="url(#clip290)" d="M121.918 1411 L126.802 1411 L126.802 1416.88 L121.918 1416.88 L121.918 1411 Z" fill="#000000" fill-rule="nonzero" fill-opacity="1" /><path clip-path="url(#clip290)" d="M137.033 1382.32 L155.39 1382.32 L155.39 1386.26 L141.316 1386.26 L141.316 1394.73 Q142.334 1394.38 143.353 1394.22 Q144.371 1394.04 145.39 1394.04 Q151.177 1394.04 154.556 1397.21 Q157.936 1400.38 157.936 1405.8 Q157.936 1411.37 154.464 1414.48 Q150.992 1417.56 144.672 1417.56 Q142.496 1417.56 140.228 1417.18 Q137.982 1416.81 135.575 1416.07 L135.575 1411.37 Q137.658 1412.51 139.881 1413.06 Q142.103 1413.62 144.58 1413.62 Q148.584 1413.62 150.922 1411.51 Q153.26 1409.41 153.26 1405.8 Q153.26 1402.18 150.922 1400.08 Q148.584 1397.97 144.58 1397.97 Q142.705 1397.97 140.83 1398.39 Q138.978 1398.81 137.033 1399.68 L137.033 1382.32 Z" fill="#000000" fill-rule="nonzero" fill-opacity="1" /><path clip-path="url(#clip290)" d="M50.9921 1178.85 L80.6679 1178.85 L80.6679 1182.78 L50.9921 1182.78 L50.9921 1178.85 Z" fill="#000000" fill-rule="nonzero" fill-opacity="1" /><path clip-path="url(#clip290)" d="M91.5706 1191.74 L99.2095 1191.74 L99.2095 1165.38 L90.8993 1167.04 L90.8993 1162.78 L99.1632 1161.12 L103.839 1161.12 L103.839 1191.74 L111.478 1191.74 L111.478 1195.68 L91.5706 1195.68 L91.5706 1191.74 Z" fill="#000000" fill-rule="nonzero" fill-opacity="1" /><path clip-path="url(#clip290)" d="M120.922 1189.8 L125.807 1189.8 L125.807 1195.68 L120.922 1195.68 L120.922 1189.8 Z" fill="#000000" fill-rule="nonzero" fill-opacity="1" /><path clip-path="url(#clip290)" d="M145.992 1164.2 Q142.381 1164.2 140.552 1167.76 Q138.746 1171.3 138.746 1178.43 Q138.746 1185.54 140.552 1189.1 Q142.381 1192.64 145.992 1192.64 Q149.626 1192.64 151.431 1189.1 Q153.26 1185.54 153.26 1178.43 Q153.26 1171.3 151.431 1167.76 Q149.626 1164.2 145.992 1164.2 M145.992 1160.49 Q151.802 1160.49 154.857 1165.1 Q157.936 1169.68 157.936 1178.43 Q157.936 1187.16 154.857 1191.76 Q151.802 1196.35 145.992 1196.35 Q140.181 1196.35 137.103 1191.76 Q134.047 1187.16 134.047 1178.43 Q134.047 1169.68 137.103 1165.1 Q140.181 1160.49 145.992 1160.49 Z" fill="#000000" fill-rule="nonzero" fill-opacity="1" /><path clip-path="url(#clip290)" d="M51.9875 957.641 L81.6633 957.641 L81.6633 961.576 L51.9875 961.576 L51.9875 957.641 Z" fill="#000000" fill-rule="nonzero" fill-opacity="1" /><path clip-path="url(#clip290)" d="M101.756 942.988 Q98.1447 942.988 96.316 946.553 Q94.5104 950.094 94.5104 957.224 Q94.5104 964.33 96.316 967.895 Q98.1447 971.437 101.756 971.437 Q105.39 971.437 107.196 967.895 Q109.024 964.33 109.024 957.224 Q109.024 950.094 107.196 946.553 Q105.39 942.988 101.756 942.988 M101.756 939.284 Q107.566 939.284 110.621 943.891 Q113.7 948.474 113.7 957.224 Q113.7 965.951 110.621 970.557 Q107.566 975.141 101.756 975.141 Q95.9456 975.141 92.8669 970.557 Q89.8114 965.951 89.8114 957.224 Q89.8114 948.474 92.8669 943.891 Q95.9456 939.284 101.756 939.284 Z" fill="#000000" fill-rule="nonzero" fill-opacity="1" /><path clip-path="url(#clip290)" d="M121.918 968.59 L126.802 968.59 L126.802 974.469 L121.918 974.469 L121.918 968.59 Z" fill="#000000" fill-rule="nonzero" fill-opacity="1" /><path clip-path="url(#clip290)" d="M137.033 939.909 L155.39 939.909 L155.39 943.844 L141.316 943.844 L141.316 952.317 Q142.334 951.969 143.353 951.807 Q144.371 951.622 145.39 951.622 Q151.177 951.622 154.556 954.793 Q157.936 957.965 157.936 963.381 Q157.936 968.96 154.464 972.062 Q150.992 975.141 144.672 975.141 Q142.496 975.141 140.228 974.77 Q137.982 974.4 135.575 973.659 L135.575 968.96 Q137.658 970.094 139.881 970.65 Q142.103 971.205 144.58 971.205 Q148.584 971.205 150.922 969.099 Q153.26 966.992 153.26 963.381 Q153.26 959.77 150.922 957.664 Q148.584 955.557 144.58 955.557 Q142.705 955.557 140.83 955.974 Q138.978 956.391 137.033 957.27 L137.033 939.909 Z" fill="#000000" fill-rule="nonzero" fill-opacity="1" /><path clip-path="url(#clip290)" d="M100.76 721.781 Q97.1493 721.781 95.3206 725.345 Q93.515 728.887 93.515 736.017 Q93.515 743.123 95.3206 746.688 Q97.1493 750.229 100.76 750.229 Q104.395 750.229 106.2 746.688 Q108.029 743.123 108.029 736.017 Q108.029 728.887 106.2 725.345 Q104.395 721.781 100.76 721.781 M100.76 718.077 Q106.571 718.077 109.626 722.683 Q112.705 727.267 112.705 736.017 Q112.705 744.743 109.626 749.35 Q106.571 753.933 100.76 753.933 Q94.9502 753.933 91.8715 749.35 Q88.816 744.743 88.816 736.017 Q88.816 727.267 91.8715 722.683 Q94.9502 718.077 100.76 718.077 Z" fill="#000000" fill-rule="nonzero" fill-opacity="1" /><path clip-path="url(#clip290)" d="M120.922 747.382 L125.807 747.382 L125.807 753.262 L120.922 753.262 L120.922 747.382 Z" fill="#000000" fill-rule="nonzero" fill-opacity="1" /><path clip-path="url(#clip290)" d="M145.992 721.781 Q142.381 721.781 140.552 725.345 Q138.746 728.887 138.746 736.017 Q138.746 743.123 140.552 746.688 Q142.381 750.229 145.992 750.229 Q149.626 750.229 151.431 746.688 Q153.26 743.123 153.26 736.017 Q153.26 728.887 151.431 725.345 Q149.626 721.781 145.992 721.781 M145.992 718.077 Q151.802 718.077 154.857 722.683 Q157.936 727.267 157.936 736.017 Q157.936 744.743 154.857 749.35 Q151.802 753.933 145.992 753.933 Q140.181 753.933 137.103 749.35 Q134.047 744.743 134.047 736.017 Q134.047 727.267 137.103 722.683 Q140.181 718.077 145.992 718.077 Z" fill="#000000" fill-rule="nonzero" fill-opacity="1" /><path clip-path="url(#clip290)" d="M101.756 500.573 Q98.1447 500.573 96.316 504.138 Q94.5104 507.68 94.5104 514.809 Q94.5104 521.916 96.316 525.48 Q98.1447 529.022 101.756 529.022 Q105.39 529.022 107.196 525.48 Q109.024 521.916 109.024 514.809 Q109.024 507.68 107.196 504.138 Q105.39 500.573 101.756 500.573 M101.756 496.87 Q107.566 496.87 110.621 501.476 Q113.7 506.059 113.7 514.809 Q113.7 523.536 110.621 528.142 Q107.566 532.726 101.756 532.726 Q95.9456 532.726 92.8669 528.142 Q89.8114 523.536 89.8114 514.809 Q89.8114 506.059 92.8669 501.476 Q95.9456 496.87 101.756 496.87 Z" fill="#000000" fill-rule="nonzero" fill-opacity="1" /><path clip-path="url(#clip290)" d="M121.918 526.175 L126.802 526.175 L126.802 532.055 L121.918 532.055 L121.918 526.175 Z" fill="#000000" fill-rule="nonzero" fill-opacity="1" /><path clip-path="url(#clip290)" d="M137.033 497.495 L155.39 497.495 L155.39 501.43 L141.316 501.43 L141.316 509.902 Q142.334 509.555 143.353 509.393 Q144.371 509.207 145.39 509.207 Q151.177 509.207 154.556 512.379 Q157.936 515.55 157.936 520.967 Q157.936 526.545 154.464 529.647 Q150.992 532.726 144.672 532.726 Q142.496 532.726 140.228 532.355 Q137.982 531.985 135.575 531.244 L135.575 526.545 Q137.658 527.68 139.881 528.235 Q142.103 528.791 144.58 528.791 Q148.584 528.791 150.922 526.684 Q153.26 524.578 153.26 520.967 Q153.26 517.356 150.922 515.249 Q148.584 513.143 144.58 513.143 Q142.705 513.143 140.83 513.559 Q138.978 513.976 137.033 514.856 L137.033 497.495 Z" fill="#000000" fill-rule="nonzero" fill-opacity="1" /><path clip-path="url(#clip290)" d="M91.5706 306.912 L99.2095 306.912 L99.2095 280.546 L90.8993 282.213 L90.8993 277.954 L99.1632 276.287 L103.839 276.287 L103.839 306.912 L111.478 306.912 L111.478 310.847 L91.5706 310.847 L91.5706 306.912 Z" fill="#000000" fill-rule="nonzero" fill-opacity="1" /><path clip-path="url(#clip290)" d="M120.922 304.968 L125.807 304.968 L125.807 310.847 L120.922 310.847 L120.922 304.968 Z" fill="#000000" fill-rule="nonzero" fill-opacity="1" /><path clip-path="url(#clip290)" d="M145.992 279.366 Q142.381 279.366 140.552 282.931 Q138.746 286.472 138.746 293.602 Q138.746 300.708 140.552 304.273 Q142.381 307.815 145.992 307.815 Q149.626 307.815 151.431 304.273 Q153.26 300.708 153.26 293.602 Q153.26 286.472 151.431 282.931 Q149.626 279.366 145.992 279.366 M145.992 275.662 Q151.802 275.662 154.857 280.269 Q157.936 284.852 157.936 293.602 Q157.936 302.329 154.857 306.935 Q151.802 311.518 145.992 311.518 Q140.181 311.518 137.103 306.935 Q134.047 302.329 134.047 293.602 Q134.047 284.852 137.103 280.269 Q140.181 275.662 145.992 275.662 Z" fill="#000000" fill-rule="nonzero" fill-opacity="1" /><path clip-path="url(#clip290)" d="M92.566 85.7047 L100.205 85.7047 L100.205 59.3391 L91.8947 61.0057 L91.8947 56.7465 L100.159 55.0798 L104.834 55.0798 L104.834 85.7047 L112.473 85.7047 L112.473 89.6398 L92.566 89.6398 L92.566 85.7047 Z" fill="#000000" fill-rule="nonzero" fill-opacity="1" /><path clip-path="url(#clip290)" d="M121.918 83.7602 L126.802 83.7602 L126.802 89.6398 L121.918 89.6398 L121.918 83.7602 Z" fill="#000000" fill-rule="nonzero" fill-opacity="1" /><path clip-path="url(#clip290)" d="M137.033 55.0798 L155.39 55.0798 L155.39 59.015 L141.316 59.015 L141.316 67.4872 Q142.334 67.1399 143.353 66.9779 Q144.371 66.7927 145.39 66.7927 Q151.177 66.7927 154.556 69.964 Q157.936 73.1353 157.936 78.5519 Q157.936 84.1306 154.464 87.2324 Q150.992 90.3111 144.672 90.3111 Q142.496 90.3111 140.228 89.9407 Q137.982 89.5704 135.575 88.8296 L135.575 84.1306 Q137.658 85.2648 139.881 85.8204 Q142.103 86.3759 144.58 86.3759 Q148.584 86.3759 150.922 84.2695 Q153.26 82.163 153.26 78.5519 Q153.26 74.9408 150.922 72.8344 Q148.584 70.7279 144.58 70.7279 Q142.705 70.7279 140.83 71.1445 Q138.978 71.5612 137.033 72.4408 L137.033 55.0798 Z" fill="#000000" fill-rule="nonzero" fill-opacity="1" /><circle clip-path="url(#clip291)" cx="1325" cy="730.847" r="14.4" fill="#009af9" fill-rule="evenodd" fill-opacity="0.5" stroke="#000000" stroke-opacity="0.5" stroke-width="3.2"/>
<circle clip-path="url(#clip291)" cx="882.631" cy="405.554" r="14.4" fill="#009af9" fill-rule="evenodd" fill-opacity="0.5" stroke="#000000" stroke-opacity="0.5" stroke-width="3.2"/>
<circle clip-path="url(#clip291)" cx="1908.4" cy="813.243" r="14.4" fill="#009af9" fill-rule="evenodd" fill-opacity="0.5" stroke="#000000" stroke-opacity="0.5" stroke-width="3.2"/>
<circle clip-path="url(#clip291)" cx="1110.29" cy="501.731" r="14.4" fill="#009af9" fill-rule="evenodd" fill-opacity="0.5" stroke="#000000" stroke-opacity="0.5" stroke-width="3.2"/>
<circle clip-path="url(#clip291)" cx="1145.89" cy="687.313" r="14.4" fill="#009af9" fill-rule="evenodd" fill-opacity="0.5" stroke="#000000" stroke-opacity="0.5" stroke-width="3.2"/>
<circle clip-path="url(#clip291)" cx="255.035" cy="137.719" r="14.4" fill="#009af9" fill-rule="evenodd" fill-opacity="0.5" stroke="#000000" stroke-opacity="0.5" stroke-width="3.2"/>
<circle clip-path="url(#clip291)" cx="1788.88" cy="1445.72" r="14.4" fill="#009af9" fill-rule="evenodd" fill-opacity="0.5" stroke="#000000" stroke-opacity="0.5" stroke-width="3.2"/>
<circle clip-path="url(#clip291)" cx="2291.66" cy="175.108" r="14.4" fill="#009af9" fill-rule="evenodd" fill-opacity="0.5" stroke="#000000" stroke-opacity="0.5" stroke-width="3.2"/>
<circle clip-path="url(#clip291)" cx="1727.29" cy="555.439" r="14.4" fill="#009af9" fill-rule="evenodd" fill-opacity="0.5" stroke="#000000" stroke-opacity="0.5" stroke-width="3.2"/>
<circle clip-path="url(#clip291)" cx="992.763" cy="1045.65" r="14.4" fill="#009af9" fill-rule="evenodd" fill-opacity="0.5" stroke="#000000" stroke-opacity="0.5" stroke-width="3.2"/>
<circle clip-path="url(#clip291)" cx="850.046" cy="916.079" r="14.4" fill="#009af9" fill-rule="evenodd" fill-opacity="0.5" stroke="#000000" stroke-opacity="0.5" stroke-width="3.2"/>
<circle clip-path="url(#clip291)" cx="1482.41" cy="446.054" r="14.4" fill="#009af9" fill-rule="evenodd" fill-opacity="0.5" stroke="#000000" stroke-opacity="0.5" stroke-width="3.2"/>
<circle clip-path="url(#clip291)" cx="1564.86" cy="805.682" r="14.4" fill="#009af9" fill-rule="evenodd" fill-opacity="0.5" stroke="#000000" stroke-opacity="0.5" stroke-width="3.2"/>
<circle clip-path="url(#clip291)" cx="1170.07" cy="566.062" r="14.4" fill="#009af9" fill-rule="evenodd" fill-opacity="0.5" stroke="#000000" stroke-opacity="0.5" stroke-width="3.2"/>
<circle clip-path="url(#clip291)" cx="1400.64" cy="597.313" r="14.4" fill="#009af9" fill-rule="evenodd" fill-opacity="0.5" stroke="#000000" stroke-opacity="0.5" stroke-width="3.2"/>
<circle clip-path="url(#clip291)" cx="1511.37" cy="915.236" r="14.4" fill="#009af9" fill-rule="evenodd" fill-opacity="0.5" stroke="#000000" stroke-opacity="0.5" stroke-width="3.2"/>
<circle clip-path="url(#clip291)" cx="1438.09" cy="453.362" r="14.4" fill="#009af9" fill-rule="evenodd" fill-opacity="0.5" stroke="#000000" stroke-opacity="0.5" stroke-width="3.2"/>
<circle clip-path="url(#clip291)" cx="981.71" cy="87.9763" r="14.4" fill="#009af9" fill-rule="evenodd" fill-opacity="0.5" stroke="#000000" stroke-opacity="0.5" stroke-width="3.2"/>
<circle clip-path="url(#clip291)" cx="1328.18" cy="771.87" r="14.4" fill="#009af9" fill-rule="evenodd" fill-opacity="0.5" stroke="#000000" stroke-opacity="0.5" stroke-width="3.2"/>
<circle clip-path="url(#clip291)" cx="2034.75" cy="730.99" r="14.4" fill="#009af9" fill-rule="evenodd" fill-opacity="0.5" stroke="#000000" stroke-opacity="0.5" stroke-width="3.2"/>
<circle clip-path="url(#clip291)" cx="1209.07" cy="888.293" r="14.4" fill="#009af9" fill-rule="evenodd" fill-opacity="0.5" stroke="#000000" stroke-opacity="0.5" stroke-width="3.2"/>
<circle clip-path="url(#clip291)" cx="1836.4" cy="797.886" r="14.4" fill="#009af9" fill-rule="evenodd" fill-opacity="0.5" stroke="#000000" stroke-opacity="0.5" stroke-width="3.2"/>
<circle clip-path="url(#clip291)" cx="1791.61" cy="372.459" r="14.4" fill="#009af9" fill-rule="evenodd" fill-opacity="0.5" stroke="#000000" stroke-opacity="0.5" stroke-width="3.2"/>
<circle clip-path="url(#clip291)" cx="1191.03" cy="1160.35" r="14.4" fill="#009af9" fill-rule="evenodd" fill-opacity="0.5" stroke="#000000" stroke-opacity="0.5" stroke-width="3.2"/>
<circle clip-path="url(#clip291)" cx="1093.52" cy="754.734" r="14.4" fill="#009af9" fill-rule="evenodd" fill-opacity="0.5" stroke="#000000" stroke-opacity="0.5" stroke-width="3.2"/>
<circle clip-path="url(#clip291)" cx="748.434" cy="878.884" r="14.4" fill="#009af9" fill-rule="evenodd" fill-opacity="0.5" stroke="#000000" stroke-opacity="0.5" stroke-width="3.2"/>
<circle clip-path="url(#clip291)" cx="2078.82" cy="1044.63" r="14.4" fill="#009af9" fill-rule="evenodd" fill-opacity="0.5" stroke="#000000" stroke-opacity="0.5" stroke-width="3.2"/>
<circle clip-path="url(#clip291)" cx="645.22" cy="1064.72" r="14.4" fill="#009af9" fill-rule="evenodd" fill-opacity="0.5" stroke="#000000" stroke-opacity="0.5" stroke-width="3.2"/>
<circle clip-path="url(#clip291)" cx="1850" cy="604.525" r="14.4" fill="#009af9" fill-rule="evenodd" fill-opacity="0.5" stroke="#000000" stroke-opacity="0.5" stroke-width="3.2"/>
<circle clip-path="url(#clip291)" cx="1783.07" cy="778.471" r="14.4" fill="#009af9" fill-rule="evenodd" fill-opacity="0.5" stroke="#000000" stroke-opacity="0.5" stroke-width="3.2"/>
<path clip-path="url(#clip291)" d="M255.035 137.719 L645.22 1064.72 L1788.88 1445.72 L2078.82 1044.63 L2291.66 175.108 L981.71 87.9763 L255.035 137.719 L255.035 137.719  Z" fill="#e26f46" fill-rule="evenodd" fill-opacity="0.2"/>
<polyline clip-path="url(#clip291)" style="stroke:#000000; stroke-linecap:round; stroke-linejoin:round; stroke-width:4; stroke-opacity:0.2; fill:none" points="255.035,137.719 645.22,1064.72 1788.88,1445.72 2078.82,1044.63 2291.66,175.108 981.71,87.9763 255.035,137.719 "/>
</svg>
