<?xml version="1.0" encoding="utf-8"?>
<svg xmlns="http://www.w3.org/2000/svg" xmlns:xlink="http://www.w3.org/1999/xlink" width="600" height="400" viewBox="0 0 2400 1600">
<defs>
  <clipPath id="clip830">
    <rect x="0" y="0" width="2400" height="1600"/>
  </clipPath>
</defs>
<path clip-path="url(#clip830)" d="M0 1600 L2400 1600 L2400 0 L0 0  Z" fill="#ffffff" fill-rule="evenodd" fill-opacity="1"/>
<defs>
  <clipPath id="clip831">
    <rect x="480" y="0" width="1681" height="1600"/>
  </clipPath>
</defs>
<path clip-path="url(#clip830)" d="M193.936 1486.45 L2352.76 1486.45 L2352.76 47.2441 L193.936 47.2441  Z" fill="#ffffff" fill-rule="evenodd" fill-opacity="1"/>
<defs>
  <clipPath id="clip832">
    <rect x="193" y="47" width="2160" height="1440"/>
  </clipPath>
</defs>
<polyline clip-path="url(#clip832)" style="stroke:#000000; stroke-linecap:round; stroke-linejoin:round; stroke-width:2; stroke-opacity:0.1; fill:none" points="352.145,1486.45 352.145,47.2441 "/>
<polyline clip-path="url(#clip832)" style="stroke:#000000; stroke-linecap:round; stroke-linejoin:round; stroke-width:2; stroke-opacity:0.1; fill:none" points="657.848,1486.45 657.848,47.2441 "/>
<polyline clip-path="url(#clip832)" style="stroke:#000000; stroke-linecap:round; stroke-linejoin:round; stroke-width:2; stroke-opacity:0.1; fill:none" points="963.55,1486.45 963.55,47.2441 "/>
<polyline clip-path="url(#clip832)" style="stroke:#000000; stroke-linecap:round; stroke-linejoin:round; stroke-width:2; stroke-opacity:0.1; fill:none" points="1269.25,1486.45 1269.25,47.2441 "/>
<polyline clip-path="url(#clip832)" style="stroke:#000000; stroke-linecap:round; stroke-linejoin:round; stroke-width:2; stroke-opacity:0.1; fill:none" points="1574.96,1486.45 1574.96,47.2441 "/>
<polyline clip-path="url(#clip832)" style="stroke:#000000; stroke-linecap:round; stroke-linejoin:round; stroke-width:2; stroke-opacity:0.1; fill:none" points="1880.66,1486.45 1880.66,47.2441 "/>
<polyline clip-path="url(#clip832)" style="stroke:#000000; stroke-linecap:round; stroke-linejoin:round; stroke-width:2; stroke-opacity:0.1; fill:none" points="2186.36,1486.45 2186.36,47.2441 "/>
<polyline clip-path="url(#clip830)" style="stroke:#000000; stroke-linecap:round; stroke-linejoin:round; stroke-width:4; stroke-opacity:1; fill:none" points="193.936,1486.45 2352.76,1486.45 "/>
<polyline clip-path="url(#clip830)" style="stroke:#000000; stroke-linecap:round; stroke-linejoin:round; stroke-width:4; stroke-opacity:1; fill:none" points="352.145,1486.45 352.145,1467.55 "/>
<polyline clip-path="url(#clip830)" style="stroke:#000000; stroke-linecap:round; stroke-linejoin:round; stroke-width:4; stroke-opacity:1; fill:none" points="657.848,1486.45 657.848,1467.55 "/>
<polyline clip-path="url(#clip830)" style="stroke:#000000; stroke-linecap:round; stroke-linejoin:round; stroke-width:4; stroke-opacity:1; fill:none" points="963.55,1486.45 963.55,1467.55 "/>
<polyline clip-path="url(#clip830)" style="stroke:#000000; stroke-linecap:round; stroke-linejoin:round; stroke-width:4; stroke-opacity:1; fill:none" points="1269.25,1486.45 1269.25,1467.55 "/>
<polyline clip-path="url(#clip830)" style="stroke:#000000; stroke-linecap:round; stroke-linejoin:round; stroke-width:4; stroke-opacity:1; fill:none" points="1574.96,1486.45 1574.96,1467.55 "/>
<polyline clip-path="url(#clip830)" style="stroke:#000000; stroke-linecap:round; stroke-linejoin:round; stroke-width:4; stroke-opacity:1; fill:none" points="1880.66,1486.45 1880.66,1467.55 "/>
<polyline clip-path="url(#clip830)" style="stroke:#000000; stroke-linecap:round; stroke-linejoin:round; stroke-width:4; stroke-opacity:1; fill:none" points="2186.36,1486.45 2186.36,1467.55 "/>
<path clip-path="url(#clip830)" d="M299.17 1532.02 L328.846 1532.02 L328.846 1535.95 L299.17 1535.95 L299.17 1532.02 Z" fill="#000000" fill-rule="nonzero" fill-opacity="1" /><path clip-path="url(#clip830)" d="M339.749 1544.91 L347.388 1544.91 L347.388 1518.55 L339.078 1520.21 L339.078 1515.95 L347.341 1514.29 L352.017 1514.29 L352.017 1544.91 L359.656 1544.91 L359.656 1548.85 L339.749 1548.85 L339.749 1544.91 Z" fill="#000000" fill-rule="nonzero" fill-opacity="1" /><path clip-path="url(#clip830)" d="M369.101 1542.97 L373.985 1542.97 L373.985 1548.85 L369.101 1548.85 L369.101 1542.97 Z" fill="#000000" fill-rule="nonzero" fill-opacity="1" /><path clip-path="url(#clip830)" d="M384.216 1514.29 L402.573 1514.29 L402.573 1518.22 L388.499 1518.22 L388.499 1526.7 Q389.517 1526.35 390.536 1526.19 Q391.554 1526 392.573 1526 Q398.36 1526 401.739 1529.17 Q405.119 1532.34 405.119 1537.76 Q405.119 1543.34 401.647 1546.44 Q398.175 1549.52 391.855 1549.52 Q389.679 1549.52 387.411 1549.15 Q385.165 1548.78 382.758 1548.04 L382.758 1543.34 Q384.841 1544.47 387.063 1545.03 Q389.286 1545.58 391.763 1545.58 Q395.767 1545.58 398.105 1543.48 Q400.443 1541.37 400.443 1537.76 Q400.443 1534.15 398.105 1532.04 Q395.767 1529.94 391.763 1529.94 Q389.888 1529.94 388.013 1530.35 Q386.161 1530.77 384.216 1531.65 L384.216 1514.29 Z" fill="#000000" fill-rule="nonzero" fill-opacity="1" /><path clip-path="url(#clip830)" d="M604.376 1532.02 L634.051 1532.02 L634.051 1535.95 L604.376 1535.95 L604.376 1532.02 Z" fill="#000000" fill-rule="nonzero" fill-opacity="1" /><path clip-path="url(#clip830)" d="M644.954 1544.91 L652.593 1544.91 L652.593 1518.55 L644.283 1520.21 L644.283 1515.95 L652.547 1514.29 L657.223 1514.29 L657.223 1544.91 L664.861 1544.91 L664.861 1548.85 L644.954 1548.85 L644.954 1544.91 Z" fill="#000000" fill-rule="nonzero" fill-opacity="1" /><path clip-path="url(#clip830)" d="M674.306 1542.97 L679.19 1542.97 L679.19 1548.85 L674.306 1548.85 L674.306 1542.97 Z" fill="#000000" fill-rule="nonzero" fill-opacity="1" /><path clip-path="url(#clip830)" d="M699.375 1517.37 Q695.764 1517.37 693.935 1520.93 Q692.13 1524.47 692.13 1531.6 Q692.13 1538.71 693.935 1542.27 Q695.764 1545.82 699.375 1545.82 Q703.009 1545.82 704.815 1542.27 Q706.644 1538.71 706.644 1531.6 Q706.644 1524.47 704.815 1520.93 Q703.009 1517.37 699.375 1517.37 M699.375 1513.66 Q705.185 1513.66 708.241 1518.27 Q711.319 1522.85 711.319 1531.6 Q711.319 1540.33 708.241 1544.94 Q705.185 1549.52 699.375 1549.52 Q693.565 1549.52 690.486 1544.94 Q687.431 1540.33 687.431 1531.6 Q687.431 1522.85 690.486 1518.27 Q693.565 1513.66 699.375 1513.66 Z" fill="#000000" fill-rule="nonzero" fill-opacity="1" /><path clip-path="url(#clip830)" d="M910.576 1532.02 L940.252 1532.02 L940.252 1535.95 L910.576 1535.95 L910.576 1532.02 Z" fill="#000000" fill-rule="nonzero" fill-opacity="1" /><path clip-path="url(#clip830)" d="M960.344 1517.37 Q956.733 1517.37 954.905 1520.93 Q953.099 1524.47 953.099 1531.6 Q953.099 1538.71 954.905 1542.27 Q956.733 1545.82 960.344 1545.82 Q963.979 1545.82 965.784 1542.27 Q967.613 1538.71 967.613 1531.6 Q967.613 1524.47 965.784 1520.93 Q963.979 1517.37 960.344 1517.37 M960.344 1513.66 Q966.155 1513.66 969.21 1518.27 Q972.289 1522.85 972.289 1531.6 Q972.289 1540.33 969.21 1544.94 Q966.155 1549.52 960.344 1549.52 Q954.534 1549.52 951.456 1544.94 Q948.4 1540.33 948.4 1531.6 Q948.4 1522.85 951.456 1518.27 Q954.534 1513.66 960.344 1513.66 Z" fill="#000000" fill-rule="nonzero" fill-opacity="1" /><path clip-path="url(#clip830)" d="M980.506 1542.97 L985.391 1542.97 L985.391 1548.85 L980.506 1548.85 L980.506 1542.97 Z" fill="#000000" fill-rule="nonzero" fill-opacity="1" /><path clip-path="url(#clip830)" d="M995.622 1514.29 L1013.98 1514.29 L1013.98 1518.22 L999.904 1518.22 L999.904 1526.7 Q1000.92 1526.35 1001.94 1526.19 Q1002.96 1526 1003.98 1526 Q1009.77 1526 1013.15 1529.17 Q1016.52 1532.34 1016.52 1537.76 Q1016.52 1543.34 1013.05 1546.44 Q1009.58 1549.52 1003.26 1549.52 Q1001.08 1549.52 998.816 1549.15 Q996.571 1548.78 994.164 1548.04 L994.164 1543.34 Q996.247 1544.47 998.469 1545.03 Q1000.69 1545.58 1003.17 1545.58 Q1007.17 1545.58 1009.51 1543.48 Q1011.85 1541.37 1011.85 1537.76 Q1011.85 1534.15 1009.51 1532.04 Q1007.17 1529.94 1003.17 1529.94 Q1001.29 1529.94 999.418 1530.35 Q997.566 1530.77 995.622 1531.65 L995.622 1514.29 Z" fill="#000000" fill-rule="nonzero" fill-opacity="1" /><path clip-path="url(#clip830)" d="M1246.64 1517.37 Q1243.03 1517.37 1241.2 1520.93 Q1239.39 1524.47 1239.39 1531.6 Q1239.39 1538.71 1241.2 1542.27 Q1243.03 1545.82 1246.64 1545.82 Q1250.27 1545.82 1252.08 1542.27 Q1253.91 1538.71 1253.91 1531.6 Q1253.91 1524.47 1252.08 1520.93 Q1250.27 1517.37 1246.64 1517.37 M1246.64 1513.66 Q1252.45 1513.66 1255.5 1518.27 Q1258.58 1522.85 1258.58 1531.6 Q1258.58 1540.33 1255.5 1544.94 Q1252.45 1549.52 1246.64 1549.52 Q1240.83 1549.52 1237.75 1544.94 Q1234.69 1540.33 1234.69 1531.6 Q1234.69 1522.85 1237.75 1518.27 Q1240.83 1513.66 1246.64 1513.66 Z" fill="#000000" fill-rule="nonzero" fill-opacity="1" /><path clip-path="url(#clip830)" d="M1266.8 1542.97 L1271.68 1542.97 L1271.68 1548.85 L1266.8 1548.85 L1266.8 1542.97 Z" fill="#000000" fill-rule="nonzero" fill-opacity="1" /><path clip-path="url(#clip830)" d="M1291.87 1517.37 Q1288.26 1517.37 1286.43 1520.93 Q1284.62 1524.47 1284.62 1531.6 Q1284.62 1538.71 1286.43 1542.27 Q1288.26 1545.82 1291.87 1545.82 Q1295.5 1545.82 1297.31 1542.27 Q1299.14 1538.71 1299.14 1531.6 Q1299.14 1524.47 1297.31 1520.93 Q1295.5 1517.37 1291.87 1517.37 M1291.87 1513.66 Q1297.68 1513.66 1300.73 1518.27 Q1303.81 1522.85 1303.81 1531.6 Q1303.81 1540.33 1300.73 1544.94 Q1297.68 1549.52 1291.87 1549.52 Q1286.06 1549.52 1282.98 1544.94 Q1279.92 1540.33 1279.92 1531.6 Q1279.92 1522.85 1282.98 1518.27 Q1286.06 1513.66 1291.87 1513.66 Z" fill="#000000" fill-rule="nonzero" fill-opacity="1" /><path clip-path="url(#clip830)" d="M1552.84 1517.37 Q1549.23 1517.37 1547.4 1520.93 Q1545.59 1524.47 1545.59 1531.6 Q1545.59 1538.71 1547.4 1542.27 Q1549.23 1545.82 1552.84 1545.82 Q1556.47 1545.82 1558.28 1542.27 Q1560.11 1538.71 1560.11 1531.6 Q1560.11 1524.47 1558.28 1520.93 Q1556.47 1517.37 1552.84 1517.37 M1552.84 1513.66 Q1558.65 1513.66 1561.7 1518.27 Q1564.78 1522.85 1564.78 1531.6 Q1564.78 1540.33 1561.7 1544.94 Q1558.65 1549.52 1552.84 1549.52 Q1547.03 1549.52 1543.95 1544.94 Q1540.89 1540.33 1540.89 1531.6 Q1540.89 1522.85 1543.95 1518.27 Q1547.03 1513.66 1552.84 1513.66 Z" fill="#000000" fill-rule="nonzero" fill-opacity="1" /><path clip-path="url(#clip830)" d="M1573 1542.97 L1577.88 1542.97 L1577.88 1548.85 L1573 1548.85 L1573 1542.97 Z" fill="#000000" fill-rule="nonzero" fill-opacity="1" /><path clip-path="url(#clip830)" d="M1588.12 1514.29 L1606.47 1514.29 L1606.47 1518.22 L1592.4 1518.22 L1592.4 1526.7 Q1593.42 1526.35 1594.44 1526.19 Q1595.45 1526 1596.47 1526 Q1602.26 1526 1605.64 1529.17 Q1609.02 1532.34 1609.02 1537.76 Q1609.02 1543.34 1605.55 1546.44 Q1602.07 1549.52 1595.75 1549.52 Q1593.58 1549.52 1591.31 1549.15 Q1589.06 1548.78 1586.66 1548.04 L1586.66 1543.34 Q1588.74 1544.47 1590.96 1545.03 Q1593.19 1545.58 1595.66 1545.58 Q1599.67 1545.58 1602 1543.48 Q1604.34 1541.37 1604.34 1537.76 Q1604.34 1534.15 1602 1532.04 Q1599.67 1529.94 1595.66 1529.94 Q1593.79 1529.94 1591.91 1530.35 Q1590.06 1530.77 1588.12 1531.65 L1588.12 1514.29 Z" fill="#000000" fill-rule="nonzero" fill-opacity="1" /><path clip-path="url(#clip830)" d="M1847.81 1544.91 L1855.45 1544.91 L1855.45 1518.55 L1847.14 1520.21 L1847.14 1515.95 L1855.4 1514.29 L1860.08 1514.29 L1860.08 1544.91 L1867.72 1544.91 L1867.72 1548.85 L1847.81 1548.85 L1847.81 1544.91 Z" fill="#000000" fill-rule="nonzero" fill-opacity="1" /><path clip-path="url(#clip830)" d="M1877.16 1542.97 L1882.05 1542.97 L1882.05 1548.85 L1877.16 1548.85 L1877.16 1542.97 Z" fill="#000000" fill-rule="nonzero" fill-opacity="1" /><path clip-path="url(#clip830)" d="M1902.23 1517.37 Q1898.62 1517.37 1896.79 1520.93 Q1894.99 1524.47 1894.99 1531.6 Q1894.99 1538.71 1896.79 1542.27 Q1898.62 1545.82 1902.23 1545.82 Q1905.87 1545.82 1907.67 1542.27 Q1909.5 1538.71 1909.5 1531.6 Q1909.5 1524.47 1907.67 1520.93 Q1905.87 1517.37 1902.23 1517.37 M1902.23 1513.66 Q1908.04 1513.66 1911.1 1518.27 Q1914.18 1522.85 1914.18 1531.6 Q1914.18 1540.33 1911.1 1544.94 Q1908.04 1549.52 1902.23 1549.52 Q1896.42 1549.52 1893.34 1544.94 Q1890.29 1540.33 1890.29 1531.6 Q1890.29 1522.85 1893.34 1518.27 Q1896.42 1513.66 1902.23 1513.66 Z" fill="#000000" fill-rule="nonzero" fill-opacity="1" /><path clip-path="url(#clip830)" d="M2154.01 1544.91 L2161.65 1544.91 L2161.65 1518.55 L2153.34 1520.21 L2153.34 1515.95 L2161.61 1514.29 L2166.28 1514.29 L2166.28 1544.91 L2173.92 1544.91 L2173.92 1548.85 L2154.01 1548.85 L2154.01 1544.91 Z" fill="#000000" fill-rule="nonzero" fill-opacity="1" /><path clip-path="url(#clip830)" d="M2183.36 1542.97 L2188.25 1542.97 L2188.25 1548.85 L2183.36 1548.85 L2183.36 1542.97 Z" fill="#000000" fill-rule="nonzero" fill-opacity="1" /><path clip-path="url(#clip830)" d="M2198.48 1514.29 L2216.84 1514.29 L2216.84 1518.22 L2202.76 1518.22 L2202.76 1526.7 Q2203.78 1526.35 2204.8 1526.19 Q2205.82 1526 2206.84 1526 Q2212.62 1526 2216 1529.17 Q2219.38 1532.34 2219.38 1537.76 Q2219.38 1543.34 2215.91 1546.44 Q2212.44 1549.52 2206.12 1549.52 Q2203.94 1549.52 2201.67 1549.15 Q2199.43 1548.78 2197.02 1548.04 L2197.02 1543.34 Q2199.1 1544.47 2201.33 1545.03 Q2203.55 1545.58 2206.03 1545.58 Q2210.03 1545.58 2212.37 1543.48 Q2214.71 1541.37 2214.71 1537.76 Q2214.71 1534.15 2212.37 1532.04 Q2210.03 1529.94 2206.03 1529.94 Q2204.15 1529.94 2202.28 1530.35 Q2200.42 1530.77 2198.48 1531.65 L2198.48 1514.29 Z" fill="#000000" fill-rule="nonzero" fill-opacity="1" /><polyline clip-path="url(#clip832)" style="stroke:#000000; stroke-linecap:round; stroke-linejoin:round; stroke-width:2; stroke-opacity:0.1; fill:none" points="193.936,1298.01 2352.76,1298.01 "/>
<polyline clip-path="url(#clip832)" style="stroke:#000000; stroke-linecap:round; stroke-linejoin:round; stroke-width:2; stroke-opacity:0.1; fill:none" points="193.936,1056.61 2352.76,1056.61 "/>
<polyline clip-path="url(#clip832)" style="stroke:#000000; stroke-linecap:round; stroke-linejoin:round; stroke-width:2; stroke-opacity:0.1; fill:none" points="193.936,815.213 2352.76,815.213 "/>
<polyline clip-path="url(#clip832)" style="stroke:#000000; stroke-linecap:round; stroke-linejoin:round; stroke-width:2; stroke-opacity:0.1; fill:none" points="193.936,573.813 2352.76,573.813 "/>
<polyline clip-path="url(#clip832)" style="stroke:#000000; stroke-linecap:round; stroke-linejoin:round; stroke-width:2; stroke-opacity:0.1; fill:none" points="193.936,332.413 2352.76,332.413 "/>
<polyline clip-path="url(#clip832)" style="stroke:#000000; stroke-linecap:round; stroke-linejoin:round; stroke-width:2; stroke-opacity:0.1; fill:none" points="193.936,91.013 2352.76,91.013 "/>
<polyline clip-path="url(#clip830)" style="stroke:#000000; stroke-linecap:round; stroke-linejoin:round; stroke-width:4; stroke-opacity:1; fill:none" points="193.936,1486.45 193.936,47.2441 "/>
<polyline clip-path="url(#clip830)" style="stroke:#000000; stroke-linecap:round; stroke-linejoin:round; stroke-width:4; stroke-opacity:1; fill:none" points="193.936,1298.01 212.834,1298.01 "/>
<polyline clip-path="url(#clip830)" style="stroke:#000000; stroke-linecap:round; stroke-linejoin:round; stroke-width:4; stroke-opacity:1; fill:none" points="193.936,1056.61 212.834,1056.61 "/>
<polyline clip-path="url(#clip830)" style="stroke:#000000; stroke-linecap:round; stroke-linejoin:round; stroke-width:4; stroke-opacity:1; fill:none" points="193.936,815.213 212.834,815.213 "/>
<polyline clip-path="url(#clip830)" style="stroke:#000000; stroke-linecap:round; stroke-linejoin:round; stroke-width:4; stroke-opacity:1; fill:none" points="193.936,573.813 212.834,573.813 "/>
<polyline clip-path="url(#clip830)" style="stroke:#000000; stroke-linecap:round; stroke-linejoin:round; stroke-width:4; stroke-opacity:1; fill:none" points="193.936,332.413 212.834,332.413 "/>
<polyline clip-path="url(#clip830)" style="stroke:#000000; stroke-linecap:round; stroke-linejoin:round; stroke-width:4; stroke-opacity:1; fill:none" points="193.936,91.013 212.834,91.013 "/>
<path clip-path="url(#clip830)" d="M50.9921 1298.46 L80.6679 1298.46 L80.6679 1302.4 L50.9921 1302.4 L50.9921 1298.46 Z" fill="#000000" fill-rule="nonzero" fill-opacity="1" /><path clip-path="url(#clip830)" d="M91.5706 1311.36 L99.2095 1311.36 L99.2095 1284.99 L90.8993 1286.66 L90.8993 1282.4 L99.1632 1280.73 L103.839 1280.73 L103.839 1311.36 L111.478 1311.36 L111.478 1315.29 L91.5706 1315.29 L91.5706 1311.36 Z" fill="#000000" fill-rule="nonzero" fill-opacity="1" /><path clip-path="url(#clip830)" d="M120.922 1309.41 L125.807 1309.41 L125.807 1315.29 L120.922 1315.29 L120.922 1309.41 Z" fill="#000000" fill-rule="nonzero" fill-opacity="1" /><path clip-path="url(#clip830)" d="M145.992 1283.81 Q142.381 1283.81 140.552 1287.38 Q138.746 1290.92 138.746 1298.05 Q138.746 1305.15 140.552 1308.72 Q142.381 1312.26 145.992 1312.26 Q149.626 1312.26 151.431 1308.72 Q153.26 1305.15 153.26 1298.05 Q153.26 1290.92 151.431 1287.38 Q149.626 1283.81 145.992 1283.81 M145.992 1280.11 Q151.802 1280.11 154.857 1284.71 Q157.936 1289.3 157.936 1298.05 Q157.936 1306.77 154.857 1311.38 Q151.802 1315.96 145.992 1315.96 Q140.181 1315.96 137.103 1311.38 Q134.047 1306.77 134.047 1298.05 Q134.047 1289.3 137.103 1284.71 Q140.181 1280.11 145.992 1280.11 Z" fill="#000000" fill-rule="nonzero" fill-opacity="1" /><path clip-path="url(#clip830)" d="M51.9875 1057.06 L81.6633 1057.06 L81.6633 1061 L51.9875 1061 L51.9875 1057.06 Z" fill="#000000" fill-rule="nonzero" fill-opacity="1" /><path clip-path="url(#clip830)" d="M101.756 1042.41 Q98.1447 1042.41 96.316 1045.98 Q94.5104 1049.52 94.5104 1056.65 Q94.5104 1063.75 96.316 1067.32 Q98.1447 1070.86 101.756 1070.86 Q105.39 1070.86 107.196 1067.32 Q109.024 1063.75 109.024 1056.65 Q109.024 1049.52 107.196 1045.98 Q105.39 1042.41 101.756 1042.41 M101.756 1038.71 Q107.566 1038.71 110.621 1043.31 Q113.7 1047.9 113.7 1056.65 Q113.7 1065.37 110.621 1069.98 Q107.566 1074.56 101.756 1074.56 Q95.9456 1074.56 92.8669 1069.98 Q89.8114 1065.37 89.8114 1056.65 Q89.8114 1047.9 92.8669 1043.31 Q95.9456 1038.71 101.756 1038.71 Z" fill="#000000" fill-rule="nonzero" fill-opacity="1" /><path clip-path="url(#clip830)" d="M121.918 1068.01 L126.802 1068.01 L126.802 1073.89 L121.918 1073.89 L121.918 1068.01 Z" fill="#000000" fill-rule="nonzero" fill-opacity="1" /><path clip-path="url(#clip830)" d="M137.033 1039.33 L155.39 1039.33 L155.39 1043.27 L141.316 1043.27 L141.316 1051.74 Q142.334 1051.39 143.353 1051.23 Q144.371 1051.05 145.39 1051.05 Q151.177 1051.05 154.556 1054.22 Q157.936 1057.39 157.936 1062.8 Q157.936 1068.38 154.464 1071.49 Q150.992 1074.56 144.672 1074.56 Q142.496 1074.56 140.228 1074.19 Q137.982 1073.82 135.575 1073.08 L135.575 1068.38 Q137.658 1069.52 139.881 1070.07 Q142.103 1070.63 144.58 1070.63 Q148.584 1070.63 150.922 1068.52 Q153.26 1066.42 153.26 1062.8 Q153.26 1059.19 150.922 1057.09 Q148.584 1054.98 144.58 1054.98 Q142.705 1054.98 140.83 1055.4 Q138.978 1055.81 137.033 1056.69 L137.033 1039.33 Z" fill="#000000" fill-rule="nonzero" fill-opacity="1" /><path clip-path="url(#clip830)" d="M100.76 801.011 Q97.1493 801.011 95.3206 804.576 Q93.515 808.118 93.515 815.248 Q93.515 822.354 95.3206 825.919 Q97.1493 829.46 100.76 829.46 Q104.395 829.46 106.2 825.919 Q108.029 822.354 108.029 815.248 Q108.029 808.118 106.2 804.576 Q104.395 801.011 100.76 801.011 M100.76 797.308 Q106.571 797.308 109.626 801.914 Q112.705 806.498 112.705 815.248 Q112.705 823.974 109.626 828.581 Q106.571 833.164 100.76 833.164 Q94.9502 833.164 91.8715 828.581 Q88.816 823.974 88.816 815.248 Q88.816 806.498 91.8715 801.914 Q94.9502 797.308 100.76 797.308 Z" fill="#000000" fill-rule="nonzero" fill-opacity="1" /><path clip-path="url(#clip830)" d="M120.922 826.613 L125.807 826.613 L125.807 832.493 L120.922 832.493 L120.922 826.613 Z" fill="#000000" fill-rule="nonzero" fill-opacity="1" /><path clip-path="url(#clip830)" d="M145.992 801.011 Q142.381 801.011 140.552 804.576 Q138.746 808.118 138.746 815.248 Q138.746 822.354 140.552 825.919 Q142.381 829.46 145.992 829.46 Q149.626 829.46 151.431 825.919 Q153.26 822.354 153.26 815.248 Q153.26 808.118 151.431 804.576 Q149.626 801.011 145.992 801.011 M145.992 797.308 Q151.802 797.308 154.857 801.914 Q157.936 806.498 157.936 815.248 Q157.936 823.974 154.857 828.581 Q151.802 833.164 145.992 833.164 Q140.181 833.164 137.103 828.581 Q134.047 823.974 134.047 815.248 Q134.047 806.498 137.103 801.914 Q140.181 797.308 145.992 797.308 Z" fill="#000000" fill-rule="nonzero" fill-opacity="1" /><path clip-path="url(#clip830)" d="M101.756 559.612 Q98.1447 559.612 96.316 563.176 Q94.5104 566.718 94.5104 573.848 Q94.5104 580.954 96.316 584.519 Q98.1447 588.06 101.756 588.06 Q105.39 588.06 107.196 584.519 Q109.024 580.954 109.024 573.848 Q109.024 566.718 107.196 563.176 Q105.39 559.612 101.756 559.612 M101.756 555.908 Q107.566 555.908 110.621 560.514 Q113.7 565.098 113.7 573.848 Q113.7 582.574 110.621 587.181 Q107.566 591.764 101.756 591.764 Q95.9456 591.764 92.8669 587.181 Q89.8114 582.574 89.8114 573.848 Q89.8114 565.098 92.8669 560.514 Q95.9456 555.908 101.756 555.908 Z" fill="#000000" fill-rule="nonzero" fill-opacity="1" /><path clip-path="url(#clip830)" d="M121.918 585.213 L126.802 585.213 L126.802 591.093 L121.918 591.093 L121.918 585.213 Z" fill="#000000" fill-rule="nonzero" fill-opacity="1" /><path clip-path="url(#clip830)" d="M137.033 556.533 L155.39 556.533 L155.39 560.468 L141.316 560.468 L141.316 568.94 Q142.334 568.593 143.353 568.431 Q144.371 568.246 145.39 568.246 Q151.177 568.246 154.556 571.417 Q157.936 574.588 157.936 580.005 Q157.936 585.584 154.464 588.685 Q150.992 591.764 144.672 591.764 Q142.496 591.764 140.228 591.394 Q137.982 591.023 135.575 590.283 L135.575 585.584 Q137.658 586.718 139.881 587.273 Q142.103 587.829 144.58 587.829 Q148.584 587.829 150.922 585.723 Q153.26 583.616 153.26 580.005 Q153.26 576.394 150.922 574.287 Q148.584 572.181 144.58 572.181 Q142.705 572.181 140.83 572.598 Q138.978 573.014 137.033 573.894 L137.033 556.533 Z" fill="#000000" fill-rule="nonzero" fill-opacity="1" /><path clip-path="url(#clip830)" d="M91.5706 345.758 L99.2095 345.758 L99.2095 319.392 L90.8993 321.059 L90.8993 316.8 L99.1632 315.133 L103.839 315.133 L103.839 345.758 L111.478 345.758 L111.478 349.693 L91.5706 349.693 L91.5706 345.758 Z" fill="#000000" fill-rule="nonzero" fill-opacity="1" /><path clip-path="url(#clip830)" d="M120.922 343.813 L125.807 343.813 L125.807 349.693 L120.922 349.693 L120.922 343.813 Z" fill="#000000" fill-rule="nonzero" fill-opacity="1" /><path clip-path="url(#clip830)" d="M145.992 318.212 Q142.381 318.212 140.552 321.776 Q138.746 325.318 138.746 332.448 Q138.746 339.554 140.552 343.119 Q142.381 346.661 145.992 346.661 Q149.626 346.661 151.431 343.119 Q153.26 339.554 153.26 332.448 Q153.26 325.318 151.431 321.776 Q149.626 318.212 145.992 318.212 M145.992 314.508 Q151.802 314.508 154.857 319.114 Q157.936 323.698 157.936 332.448 Q157.936 341.174 154.857 345.781 Q151.802 350.364 145.992 350.364 Q140.181 350.364 137.103 345.781 Q134.047 341.174 134.047 332.448 Q134.047 323.698 137.103 319.114 Q140.181 314.508 145.992 314.508 Z" fill="#000000" fill-rule="nonzero" fill-opacity="1" /><path clip-path="url(#clip830)" d="M92.566 104.358 L100.205 104.358 L100.205 77.9923 L91.8947 79.6589 L91.8947 75.3997 L100.159 73.733 L104.834 73.733 L104.834 104.358 L112.473 104.358 L112.473 108.293 L92.566 108.293 L92.566 104.358 Z" fill="#000000" fill-rule="nonzero" fill-opacity="1" /><path clip-path="url(#clip830)" d="M121.918 102.413 L126.802 102.413 L126.802 108.293 L121.918 108.293 L121.918 102.413 Z" fill="#000000" fill-rule="nonzero" fill-opacity="1" /><path clip-path="url(#clip830)" d="M137.033 73.733 L155.39 73.733 L155.39 77.6682 L141.316 77.6682 L141.316 86.1404 Q142.334 85.7931 143.353 85.6311 Q144.371 85.4459 145.39 85.4459 Q151.177 85.4459 154.556 88.6172 Q157.936 91.7885 157.936 97.2051 Q157.936 102.784 154.464 105.886 Q150.992 108.964 144.672 108.964 Q142.496 108.964 140.228 108.594 Q137.982 108.224 135.575 107.483 L135.575 102.784 Q137.658 103.918 139.881 104.474 Q142.103 105.029 144.58 105.029 Q148.584 105.029 150.922 102.923 Q153.26 100.816 153.26 97.2051 Q153.26 93.594 150.922 91.4875 Q148.584 89.3811 144.58 89.3811 Q142.705 89.3811 140.83 89.7977 Q138.978 90.2144 137.033 91.094 L137.033 73.733 Z" fill="#000000" fill-rule="nonzero" fill-opacity="1" /><circle clip-path="url(#clip832)" cx="1903.87" cy="377.957" r="14.4" fill="#009af9" fill-rule="evenodd" fill-opacity="0.5" stroke="#000000" stroke-opacity="0.5" stroke-width="3.2"/>
<circle clip-path="url(#clip832)" cx="777.466" cy="980.162" r="14.4" fill="#009af9" fill-rule="evenodd" fill-opacity="0.5" stroke="#000000" stroke-opacity="0.5" stroke-width="3.2"/>
<circle clip-path="url(#clip832)" cx="516.659" cy="180.619" r="14.4" fill="#009af9" fill-rule="evenodd" fill-opacity="0.5" stroke="#000000" stroke-opacity="0.5" stroke-width="3.2"/>
<circle clip-path="url(#clip832)" cx="1336.94" cy="588.132" r="14.4" fill="#009af9" fill-rule="evenodd" fill-opacity="0.5" stroke="#000000" stroke-opacity="0.5" stroke-width="3.2"/>
<circle clip-path="url(#clip832)" cx="1136.3" cy="845.712" r="14.4" fill="#009af9" fill-rule="evenodd" fill-opacity="0.5" stroke="#000000" stroke-opacity="0.5" stroke-width="3.2"/>
<circle clip-path="url(#clip832)" cx="1261.65" cy="1249.08" r="14.4" fill="#009af9" fill-rule="evenodd" fill-opacity="0.5" stroke="#000000" stroke-opacity="0.5" stroke-width="3.2"/>
<circle clip-path="url(#clip832)" cx="1608.1" cy="1179.39" r="14.4" fill="#009af9" fill-rule="evenodd" fill-opacity="0.5" stroke="#000000" stroke-opacity="0.5" stroke-width="3.2"/>
<circle clip-path="url(#clip832)" cx="502.298" cy="565.012" r="14.4" fill="#009af9" fill-rule="evenodd" fill-opacity="0.5" stroke="#000000" stroke-opacity="0.5" stroke-width="3.2"/>
<circle clip-path="url(#clip832)" cx="785.892" cy="361.028" r="14.4" fill="#009af9" fill-rule="evenodd" fill-opacity="0.5" stroke="#000000" stroke-opacity="0.5" stroke-width="3.2"/>
<circle clip-path="url(#clip832)" cx="2016.35" cy="886.402" r="14.4" fill="#009af9" fill-rule="evenodd" fill-opacity="0.5" stroke="#000000" stroke-opacity="0.5" stroke-width="3.2"/>
<circle clip-path="url(#clip832)" cx="1409.78" cy="836.318" r="14.4" fill="#009af9" fill-rule="evenodd" fill-opacity="0.5" stroke="#000000" stroke-opacity="0.5" stroke-width="3.2"/>
<circle clip-path="url(#clip832)" cx="448.745" cy="133.988" r="14.4" fill="#009af9" fill-rule="evenodd" fill-opacity="0.5" stroke="#000000" stroke-opacity="0.5" stroke-width="3.2"/>
<circle clip-path="url(#clip832)" cx="1078.68" cy="296.994" r="14.4" fill="#009af9" fill-rule="evenodd" fill-opacity="0.5" stroke="#000000" stroke-opacity="0.5" stroke-width="3.2"/>
<circle clip-path="url(#clip832)" cx="2291.66" cy="664.058" r="14.4" fill="#009af9" fill-rule="evenodd" fill-opacity="0.5" stroke="#000000" stroke-opacity="0.5" stroke-width="3.2"/>
<circle clip-path="url(#clip832)" cx="1406.13" cy="464.445" r="14.4" fill="#009af9" fill-rule="evenodd" fill-opacity="0.5" stroke="#000000" stroke-opacity="0.5" stroke-width="3.2"/>
<circle clip-path="url(#clip832)" cx="1351.34" cy="924.316" r="14.4" fill="#009af9" fill-rule="evenodd" fill-opacity="0.5" stroke="#000000" stroke-opacity="0.5" stroke-width="3.2"/>
<circle clip-path="url(#clip832)" cx="255.035" cy="370.02" r="14.4" fill="#009af9" fill-rule="evenodd" fill-opacity="0.5" stroke="#000000" stroke-opacity="0.5" stroke-width="3.2"/>
<circle clip-path="url(#clip832)" cx="1014.49" cy="877.528" r="14.4" fill="#009af9" fill-rule="evenodd" fill-opacity="0.5" stroke="#000000" stroke-opacity="0.5" stroke-width="3.2"/>
<circle clip-path="url(#clip832)" cx="1130.4" cy="1132.25" r="14.4" fill="#009af9" fill-rule="evenodd" fill-opacity="0.5" stroke="#000000" stroke-opacity="0.5" stroke-width="3.2"/>
<circle clip-path="url(#clip832)" cx="1366.9" cy="903.44" r="14.4" fill="#009af9" fill-rule="evenodd" fill-opacity="0.5" stroke="#000000" stroke-opacity="0.5" stroke-width="3.2"/>
<circle clip-path="url(#clip832)" cx="1823.28" cy="558.951" r="14.4" fill="#009af9" fill-rule="evenodd" fill-opacity="0.5" stroke="#000000" stroke-opacity="0.5" stroke-width="3.2"/>
<circle clip-path="url(#clip832)" cx="1240.68" cy="87.9763" r="14.4" fill="#009af9" fill-rule="evenodd" fill-opacity="0.5" stroke="#000000" stroke-opacity="0.5" stroke-width="3.2"/>
<circle clip-path="url(#clip832)" cx="1595.5" cy="279.709" r="14.4" fill="#009af9" fill-rule="evenodd" fill-opacity="0.5" stroke="#000000" stroke-opacity="0.5" stroke-width="3.2"/>
<circle clip-path="url(#clip832)" cx="1353.45" cy="1330.59" r="14.4" fill="#009af9" fill-rule="evenodd" fill-opacity="0.5" stroke="#000000" stroke-opacity="0.5" stroke-width="3.2"/>
<circle clip-path="url(#clip832)" cx="1117.04" cy="297.448" r="14.4" fill="#009af9" fill-rule="evenodd" fill-opacity="0.5" stroke="#000000" stroke-opacity="0.5" stroke-width="3.2"/>
<circle clip-path="url(#clip832)" cx="1311.61" cy="732.784" r="14.4" fill="#009af9" fill-rule="evenodd" fill-opacity="0.5" stroke="#000000" stroke-opacity="0.5" stroke-width="3.2"/>
<circle clip-path="url(#clip832)" cx="1411.62" cy="669.951" r="14.4" fill="#009af9" fill-rule="evenodd" fill-opacity="0.5" stroke="#000000" stroke-opacity="0.5" stroke-width="3.2"/>
<circle clip-path="url(#clip832)" cx="2069.78" cy="978.583" r="14.4" fill="#009af9" fill-rule="evenodd" fill-opacity="0.5" stroke="#000000" stroke-opacity="0.5" stroke-width="3.2"/>
<circle clip-path="url(#clip832)" cx="1524.13" cy="1181.22" r="14.4" fill="#009af9" fill-rule="evenodd" fill-opacity="0.5" stroke="#000000" stroke-opacity="0.5" stroke-width="3.2"/>
<circle clip-path="url(#clip832)" cx="1038.08" cy="1445.72" r="14.4" fill="#009af9" fill-rule="evenodd" fill-opacity="0.5" stroke="#000000" stroke-opacity="0.5" stroke-width="3.2"/>
<path clip-path="url(#clip832)" d="M255.035 370.02 L1038.08 1445.72 L1353.45 1330.59 L2069.78 978.583 L2291.66 664.058 L1903.87 377.957 L1240.68 87.9763 L448.745 133.988 L255.035 370.02 L255.035 370.02  Z" fill="#e26f46" fill-rule="evenodd" fill-opacity="0.2"/>
<polyline clip-path="url(#clip832)" style="stroke:#000000; stroke-linecap:round; stroke-linejoin:round; stroke-width:4; stroke-opacity:0.2; fill:none" points="255.035,370.02 1038.08,1445.72 1353.45,1330.59 2069.78,978.583 2291.66,664.058 1903.87,377.957 1240.68,87.9763 448.745,133.988 255.035,370.02 "/>
</svg>
