<?xml version="1.0" encoding="utf-8"?>
<svg xmlns="http://www.w3.org/2000/svg" xmlns:xlink="http://www.w3.org/1999/xlink" width="600" height="400" viewBox="0 0 2400 1600">
<defs>
  <clipPath id="clip080">
    <rect x="0" y="0" width="2400" height="1600"/>
  </clipPath>
</defs>
<path clip-path="url(#clip080)" d="M0 1600 L2400 1600 L2400 0 L0 0  Z" fill="#ffffff" fill-rule="evenodd" fill-opacity="1"/>
<defs>
  <clipPath id="clip081">
    <rect x="480" y="0" width="1681" height="1600"/>
  </clipPath>
</defs>
<path clip-path="url(#clip080)" d="M148.057 1486.45 L2352.76 1486.45 L2352.76 47.2441 L148.057 47.2441  Z" fill="#ffffff" fill-rule="evenodd" fill-opacity="1"/>
<defs>
  <clipPath id="clip082">
    <rect x="148" y="47" width="2206" height="1440"/>
  </clipPath>
</defs>
<polyline clip-path="url(#clip082)" style="stroke:#000000; stroke-linecap:round; stroke-linejoin:round; stroke-width:2; stroke-opacity:0.1; fill:none" points="234.333,1486.45 234.333,47.2441 "/>
<polyline clip-path="url(#clip082)" style="stroke:#000000; stroke-linecap:round; stroke-linejoin:round; stroke-width:2; stroke-opacity:0.1; fill:none" points="676.821,1486.45 676.821,47.2441 "/>
<polyline clip-path="url(#clip082)" style="stroke:#000000; stroke-linecap:round; stroke-linejoin:round; stroke-width:2; stroke-opacity:0.1; fill:none" points="1119.31,1486.45 1119.31,47.2441 "/>
<polyline clip-path="url(#clip082)" style="stroke:#000000; stroke-linecap:round; stroke-linejoin:round; stroke-width:2; stroke-opacity:0.1; fill:none" points="1561.8,1486.45 1561.8,47.2441 "/>
<polyline clip-path="url(#clip082)" style="stroke:#000000; stroke-linecap:round; stroke-linejoin:round; stroke-width:2; stroke-opacity:0.1; fill:none" points="2004.28,1486.45 2004.28,47.2441 "/>
<polyline clip-path="url(#clip082)" style="stroke:#000000; stroke-linecap:round; stroke-linejoin:round; stroke-width:2; stroke-opacity:0.1; fill:none" points="148.057,1391.56 2352.76,1391.56 "/>
<polyline clip-path="url(#clip082)" style="stroke:#000000; stroke-linecap:round; stroke-linejoin:round; stroke-width:2; stroke-opacity:0.1; fill:none" points="148.057,1121.09 2352.76,1121.09 "/>
<polyline clip-path="url(#clip082)" style="stroke:#000000; stroke-linecap:round; stroke-linejoin:round; stroke-width:2; stroke-opacity:0.1; fill:none" points="148.057,850.62 2352.76,850.62 "/>
<polyline clip-path="url(#clip082)" style="stroke:#000000; stroke-linecap:round; stroke-linejoin:round; stroke-width:2; stroke-opacity:0.1; fill:none" points="148.057,580.148 2352.76,580.148 "/>
<polyline clip-path="url(#clip082)" style="stroke:#000000; stroke-linecap:round; stroke-linejoin:round; stroke-width:2; stroke-opacity:0.1; fill:none" points="148.057,309.677 2352.76,309.677 "/>
<polyline clip-path="url(#clip080)" style="stroke:#000000; stroke-linecap:round; stroke-linejoin:round; stroke-width:4; stroke-opacity:1; fill:none" points="148.057,1486.45 2352.76,1486.45 "/>
<polyline clip-path="url(#clip080)" style="stroke:#000000; stroke-linecap:round; stroke-linejoin:round; stroke-width:4; stroke-opacity:1; fill:none" points="234.333,1486.45 234.333,1467.55 "/>
<polyline clip-path="url(#clip080)" style="stroke:#000000; stroke-linecap:round; stroke-linejoin:round; stroke-width:4; stroke-opacity:1; fill:none" points="676.821,1486.45 676.821,1467.55 "/>
<polyline clip-path="url(#clip080)" style="stroke:#000000; stroke-linecap:round; stroke-linejoin:round; stroke-width:4; stroke-opacity:1; fill:none" points="1119.31,1486.45 1119.31,1467.55 "/>
<polyline clip-path="url(#clip080)" style="stroke:#000000; stroke-linecap:round; stroke-linejoin:round; stroke-width:4; stroke-opacity:1; fill:none" points="1561.8,1486.45 1561.8,1467.55 "/>
<polyline clip-path="url(#clip080)" style="stroke:#000000; stroke-linecap:round; stroke-linejoin:round; stroke-width:4; stroke-opacity:1; fill:none" points="2004.28,1486.45 2004.28,1467.55 "/>
<path clip-path="url(#clip080)" d="M204.275 1532.02 L233.951 1532.02 L233.951 1535.95 L204.275 1535.95 L204.275 1532.02 Z" fill="#000000" fill-rule="nonzero" fill-opacity="1" /><path clip-path="url(#clip080)" d="M248.071 1544.91 L264.391 1544.91 L264.391 1548.85 L242.446 1548.85 L242.446 1544.91 Q245.108 1542.16 249.692 1537.53 Q254.298 1532.88 255.479 1531.53 Q257.724 1529.01 258.604 1527.27 Q259.506 1525.51 259.506 1523.82 Q259.506 1521.07 257.562 1519.33 Q255.641 1517.6 252.539 1517.6 Q250.34 1517.6 247.886 1518.36 Q245.455 1519.13 242.678 1520.68 L242.678 1515.95 Q245.502 1514.82 247.955 1514.24 Q250.409 1513.66 252.446 1513.66 Q257.817 1513.66 261.011 1516.35 Q264.205 1519.03 264.205 1523.52 Q264.205 1525.65 263.395 1527.57 Q262.608 1529.47 260.502 1532.07 Q259.923 1532.74 256.821 1535.95 Q253.719 1539.15 248.071 1544.91 Z" fill="#000000" fill-rule="nonzero" fill-opacity="1" /><path clip-path="url(#clip080)" d="M646.578 1532.02 L676.254 1532.02 L676.254 1535.95 L646.578 1535.95 L646.578 1532.02 Z" fill="#000000" fill-rule="nonzero" fill-opacity="1" /><path clip-path="url(#clip080)" d="M687.156 1544.91 L694.795 1544.91 L694.795 1518.55 L686.485 1520.21 L686.485 1515.95 L694.749 1514.29 L699.425 1514.29 L699.425 1544.91 L707.064 1544.91 L707.064 1548.85 L687.156 1548.85 L687.156 1544.91 Z" fill="#000000" fill-rule="nonzero" fill-opacity="1" /><path clip-path="url(#clip080)" d="M1119.31 1517.37 Q1115.7 1517.37 1113.87 1520.93 Q1112.06 1524.47 1112.06 1531.6 Q1112.06 1538.71 1113.87 1542.27 Q1115.7 1545.82 1119.31 1545.82 Q1122.94 1545.82 1124.75 1542.27 Q1126.58 1538.71 1126.58 1531.6 Q1126.58 1524.47 1124.75 1520.93 Q1122.94 1517.37 1119.31 1517.37 M1119.31 1513.66 Q1125.12 1513.66 1128.17 1518.27 Q1131.25 1522.85 1131.25 1531.6 Q1131.25 1540.33 1128.17 1544.94 Q1125.12 1549.52 1119.31 1549.52 Q1113.5 1549.52 1110.42 1544.94 Q1107.36 1540.33 1107.36 1531.6 Q1107.36 1522.85 1110.42 1518.27 Q1113.5 1513.66 1119.31 1513.66 Z" fill="#000000" fill-rule="nonzero" fill-opacity="1" /><path clip-path="url(#clip080)" d="M1552.18 1544.91 L1559.82 1544.91 L1559.82 1518.55 L1551.51 1520.21 L1551.51 1515.95 L1559.77 1514.29 L1564.45 1514.29 L1564.45 1544.91 L1572.09 1544.91 L1572.09 1548.85 L1552.18 1548.85 L1552.18 1544.91 Z" fill="#000000" fill-rule="nonzero" fill-opacity="1" /><path clip-path="url(#clip080)" d="M1998.94 1544.91 L2015.26 1544.91 L2015.26 1548.85 L1993.31 1548.85 L1993.31 1544.91 Q1995.97 1542.16 2000.56 1537.53 Q2005.16 1532.88 2006.34 1531.53 Q2008.59 1529.01 2009.47 1527.27 Q2010.37 1525.51 2010.37 1523.82 Q2010.37 1521.07 2008.43 1519.33 Q2006.51 1517.6 2003.41 1517.6 Q2001.21 1517.6 1998.75 1518.36 Q1996.32 1519.13 1993.54 1520.68 L1993.54 1515.95 Q1996.37 1514.82 1998.82 1514.24 Q2001.28 1513.66 2003.31 1513.66 Q2008.68 1513.66 2011.88 1516.35 Q2015.07 1519.03 2015.07 1523.52 Q2015.07 1525.65 2014.26 1527.57 Q2013.47 1529.47 2011.37 1532.07 Q2010.79 1532.74 2007.69 1535.95 Q2004.59 1539.15 1998.94 1544.91 Z" fill="#000000" fill-rule="nonzero" fill-opacity="1" /><polyline clip-path="url(#clip080)" style="stroke:#000000; stroke-linecap:round; stroke-linejoin:round; stroke-width:4; stroke-opacity:1; fill:none" points="148.057,1486.45 148.057,47.2441 "/>
<polyline clip-path="url(#clip080)" style="stroke:#000000; stroke-linecap:round; stroke-linejoin:round; stroke-width:4; stroke-opacity:1; fill:none" points="148.057,1391.56 166.954,1391.56 "/>
<polyline clip-path="url(#clip080)" style="stroke:#000000; stroke-linecap:round; stroke-linejoin:round; stroke-width:4; stroke-opacity:1; fill:none" points="148.057,1121.09 166.954,1121.09 "/>
<polyline clip-path="url(#clip080)" style="stroke:#000000; stroke-linecap:round; stroke-linejoin:round; stroke-width:4; stroke-opacity:1; fill:none" points="148.057,850.62 166.954,850.62 "/>
<polyline clip-path="url(#clip080)" style="stroke:#000000; stroke-linecap:round; stroke-linejoin:round; stroke-width:4; stroke-opacity:1; fill:none" points="148.057,580.148 166.954,580.148 "/>
<polyline clip-path="url(#clip080)" style="stroke:#000000; stroke-linecap:round; stroke-linejoin:round; stroke-width:4; stroke-opacity:1; fill:none" points="148.057,309.677 166.954,309.677 "/>
<path clip-path="url(#clip080)" d="M50.9921 1392.01 L80.6679 1392.01 L80.6679 1395.95 L50.9921 1395.95 L50.9921 1392.01 Z" fill="#000000" fill-rule="nonzero" fill-opacity="1" /><path clip-path="url(#clip080)" d="M104.927 1390.21 Q108.283 1390.93 110.158 1393.19 Q112.057 1395.46 112.057 1398.8 Q112.057 1403.91 108.538 1406.71 Q105.02 1409.51 98.5382 1409.51 Q96.3623 1409.51 94.0475 1409.07 Q91.7558 1408.66 89.3021 1407.8 L89.3021 1403.29 Q91.2465 1404.42 93.5613 1405 Q95.8761 1405.58 98.3993 1405.58 Q102.797 1405.58 105.089 1403.84 Q107.404 1402.11 107.404 1398.8 Q107.404 1395.74 105.251 1394.03 Q103.121 1392.29 99.3021 1392.29 L95.2743 1392.29 L95.2743 1388.45 L99.4872 1388.45 Q102.936 1388.45 104.765 1387.08 Q106.594 1385.69 106.594 1383.1 Q106.594 1380.44 104.696 1379.03 Q102.821 1377.59 99.3021 1377.59 Q97.3808 1377.59 95.1817 1378.01 Q92.9826 1378.43 90.3438 1379.31 L90.3438 1375.14 Q93.0058 1374.4 95.3206 1374.03 Q97.6585 1373.66 99.7187 1373.66 Q105.043 1373.66 108.145 1376.09 Q111.246 1378.5 111.246 1382.62 Q111.246 1385.49 109.603 1387.48 Q107.959 1389.44 104.927 1390.21 Z" fill="#000000" fill-rule="nonzero" fill-opacity="1" /><path clip-path="url(#clip080)" d="M51.9412 1121.54 L81.617 1121.54 L81.617 1125.48 L51.9412 1125.48 L51.9412 1121.54 Z" fill="#000000" fill-rule="nonzero" fill-opacity="1" /><path clip-path="url(#clip080)" d="M95.7373 1134.44 L112.057 1134.44 L112.057 1138.37 L90.1123 1138.37 L90.1123 1134.44 Q92.7743 1131.68 97.3576 1127.05 Q101.964 1122.4 103.145 1121.06 Q105.39 1118.53 106.27 1116.8 Q107.172 1115.04 107.172 1113.35 Q107.172 1110.59 105.228 1108.86 Q103.307 1107.12 100.205 1107.12 Q98.0058 1107.12 95.5521 1107.89 Q93.1215 1108.65 90.3438 1110.2 L90.3438 1105.48 Q93.1678 1104.34 95.6215 1103.76 Q98.0752 1103.19 100.112 1103.19 Q105.483 1103.19 108.677 1105.87 Q111.871 1108.56 111.871 1113.05 Q111.871 1115.18 111.061 1117.1 Q110.274 1119 108.168 1121.59 Q107.589 1122.26 104.487 1125.48 Q101.385 1128.67 95.7373 1134.44 Z" fill="#000000" fill-rule="nonzero" fill-opacity="1" /><path clip-path="url(#clip080)" d="M51.5708 851.071 L81.2466 851.071 L81.2466 855.006 L51.5708 855.006 L51.5708 851.071 Z" fill="#000000" fill-rule="nonzero" fill-opacity="1" /><path clip-path="url(#clip080)" d="M92.1493 863.964 L99.7882 863.964 L99.7882 837.599 L91.478 839.265 L91.478 835.006 L99.7419 833.34 L104.418 833.34 L104.418 863.964 L112.057 863.964 L112.057 867.9 L92.1493 867.9 L92.1493 863.964 Z" fill="#000000" fill-rule="nonzero" fill-opacity="1" /><path clip-path="url(#clip080)" d="M100.112 565.947 Q96.5011 565.947 94.6724 569.512 Q92.8669 573.053 92.8669 580.183 Q92.8669 587.289 94.6724 590.854 Q96.5011 594.396 100.112 594.396 Q103.746 594.396 105.552 590.854 Q107.381 587.289 107.381 580.183 Q107.381 573.053 105.552 569.512 Q103.746 565.947 100.112 565.947 M100.112 562.243 Q105.922 562.243 108.978 566.85 Q112.057 571.433 112.057 580.183 Q112.057 588.91 108.978 593.516 Q105.922 598.099 100.112 598.099 Q94.3021 598.099 91.2234 593.516 Q88.1679 588.91 88.1679 580.183 Q88.1679 571.433 91.2234 566.85 Q94.3021 562.243 100.112 562.243 Z" fill="#000000" fill-rule="nonzero" fill-opacity="1" /><path clip-path="url(#clip080)" d="M92.1493 323.022 L99.7882 323.022 L99.7882 296.656 L91.478 298.323 L91.478 294.063 L99.7419 292.397 L104.418 292.397 L104.418 323.022 L112.057 323.022 L112.057 326.957 L92.1493 326.957 L92.1493 323.022 Z" fill="#000000" fill-rule="nonzero" fill-opacity="1" /><circle clip-path="url(#clip082)" cx="824.566" cy="731.675" r="14.4" fill="#009af9" fill-rule="evenodd" fill-opacity="0.5" stroke="#000000" stroke-opacity="0.5" stroke-width="3.2"/>
<circle clip-path="url(#clip082)" cx="1252.54" cy="290.916" r="14.4" fill="#009af9" fill-rule="evenodd" fill-opacity="0.5" stroke="#000000" stroke-opacity="0.5" stroke-width="3.2"/>
<circle clip-path="url(#clip082)" cx="983.269" cy="795.694" r="14.4" fill="#009af9" fill-rule="evenodd" fill-opacity="0.5" stroke="#000000" stroke-opacity="0.5" stroke-width="3.2"/>
<circle clip-path="url(#clip082)" cx="1183.91" cy="216.384" r="14.4" fill="#009af9" fill-rule="evenodd" fill-opacity="0.5" stroke="#000000" stroke-opacity="0.5" stroke-width="3.2"/>
<circle clip-path="url(#clip082)" cx="1746.04" cy="624.173" r="14.4" fill="#009af9" fill-rule="evenodd" fill-opacity="0.5" stroke="#000000" stroke-opacity="0.5" stroke-width="3.2"/>
<circle clip-path="url(#clip082)" cx="1480.33" cy="625.508" r="14.4" fill="#009af9" fill-rule="evenodd" fill-opacity="0.5" stroke="#000000" stroke-opacity="0.5" stroke-width="3.2"/>
<circle clip-path="url(#clip082)" cx="1200.9" cy="590.881" r="14.4" fill="#009af9" fill-rule="evenodd" fill-opacity="0.5" stroke="#000000" stroke-opacity="0.5" stroke-width="3.2"/>
<circle clip-path="url(#clip082)" cx="996.249" cy="1084.24" r="14.4" fill="#009af9" fill-rule="evenodd" fill-opacity="0.5" stroke="#000000" stroke-opacity="0.5" stroke-width="3.2"/>
<circle clip-path="url(#clip082)" cx="589.578" cy="268.594" r="14.4" fill="#009af9" fill-rule="evenodd" fill-opacity="0.5" stroke="#000000" stroke-opacity="0.5" stroke-width="3.2"/>
<circle clip-path="url(#clip082)" cx="948.943" cy="1167.13" r="14.4" fill="#009af9" fill-rule="evenodd" fill-opacity="0.5" stroke="#000000" stroke-opacity="0.5" stroke-width="3.2"/>
<circle clip-path="url(#clip082)" cx="452.305" cy="733.959" r="14.4" fill="#009af9" fill-rule="evenodd" fill-opacity="0.5" stroke="#000000" stroke-opacity="0.5" stroke-width="3.2"/>
<circle clip-path="url(#clip082)" cx="281.384" cy="822.798" r="14.4" fill="#009af9" fill-rule="evenodd" fill-opacity="0.5" stroke="#000000" stroke-opacity="0.5" stroke-width="3.2"/>
<circle clip-path="url(#clip082)" cx="807.745" cy="479.65" r="14.4" fill="#009af9" fill-rule="evenodd" fill-opacity="0.5" stroke="#000000" stroke-opacity="0.5" stroke-width="3.2"/>
<circle clip-path="url(#clip082)" cx="587.532" cy="1099.11" r="14.4" fill="#009af9" fill-rule="evenodd" fill-opacity="0.5" stroke="#000000" stroke-opacity="0.5" stroke-width="3.2"/>
<circle clip-path="url(#clip082)" cx="210.454" cy="518.551" r="14.4" fill="#009af9" fill-rule="evenodd" fill-opacity="0.5" stroke="#000000" stroke-opacity="0.5" stroke-width="3.2"/>
<circle clip-path="url(#clip082)" cx="1561.14" cy="504.881" r="14.4" fill="#009af9" fill-rule="evenodd" fill-opacity="0.5" stroke="#000000" stroke-opacity="0.5" stroke-width="3.2"/>
<circle clip-path="url(#clip082)" cx="757.406" cy="470.439" r="14.4" fill="#009af9" fill-rule="evenodd" fill-opacity="0.5" stroke="#000000" stroke-opacity="0.5" stroke-width="3.2"/>
<circle clip-path="url(#clip082)" cx="1369.97" cy="158.582" r="14.4" fill="#009af9" fill-rule="evenodd" fill-opacity="0.5" stroke="#000000" stroke-opacity="0.5" stroke-width="3.2"/>
<circle clip-path="url(#clip082)" cx="854.161" cy="1445.72" r="14.4" fill="#009af9" fill-rule="evenodd" fill-opacity="0.5" stroke="#000000" stroke-opacity="0.5" stroke-width="3.2"/>
<circle clip-path="url(#clip082)" cx="2290.36" cy="514.734" r="14.4" fill="#009af9" fill-rule="evenodd" fill-opacity="0.5" stroke="#000000" stroke-opacity="0.5" stroke-width="3.2"/>
<circle clip-path="url(#clip082)" cx="817.446" cy="453.388" r="14.4" fill="#009af9" fill-rule="evenodd" fill-opacity="0.5" stroke="#000000" stroke-opacity="0.5" stroke-width="3.2"/>
<circle clip-path="url(#clip082)" cx="805.627" cy="277.182" r="14.4" fill="#009af9" fill-rule="evenodd" fill-opacity="0.5" stroke="#000000" stroke-opacity="0.5" stroke-width="3.2"/>
<circle clip-path="url(#clip082)" cx="1973.96" cy="87.9763" r="14.4" fill="#009af9" fill-rule="evenodd" fill-opacity="0.5" stroke="#000000" stroke-opacity="0.5" stroke-width="3.2"/>
<circle clip-path="url(#clip082)" cx="1340.79" cy="496.416" r="14.4" fill="#009af9" fill-rule="evenodd" fill-opacity="0.5" stroke="#000000" stroke-opacity="0.5" stroke-width="3.2"/>
<circle clip-path="url(#clip082)" cx="685.77" cy="1164.9" r="14.4" fill="#009af9" fill-rule="evenodd" fill-opacity="0.5" stroke="#000000" stroke-opacity="0.5" stroke-width="3.2"/>
<circle clip-path="url(#clip082)" cx="970.576" cy="393.302" r="14.4" fill="#009af9" fill-rule="evenodd" fill-opacity="0.5" stroke="#000000" stroke-opacity="0.5" stroke-width="3.2"/>
<circle clip-path="url(#clip082)" cx="865.12" cy="490" r="14.4" fill="#009af9" fill-rule="evenodd" fill-opacity="0.5" stroke="#000000" stroke-opacity="0.5" stroke-width="3.2"/>
<circle clip-path="url(#clip082)" cx="977.084" cy="559.951" r="14.4" fill="#009af9" fill-rule="evenodd" fill-opacity="0.5" stroke="#000000" stroke-opacity="0.5" stroke-width="3.2"/>
<circle clip-path="url(#clip082)" cx="1223.68" cy="494.381" r="14.4" fill="#009af9" fill-rule="evenodd" fill-opacity="0.5" stroke="#000000" stroke-opacity="0.5" stroke-width="3.2"/>
<circle clip-path="url(#clip082)" cx="631.923" cy="215.579" r="14.4" fill="#009af9" fill-rule="evenodd" fill-opacity="0.5" stroke="#000000" stroke-opacity="0.5" stroke-width="3.2"/>
<path clip-path="url(#clip082)" d="M210.454 518.551 L281.384 822.798 L854.161 1445.72 L2290.36 514.734 L1973.96 87.9763 L631.923 215.579 L210.454 518.551 L210.454 518.551  Z" fill="#e26f46" fill-rule="evenodd" fill-opacity="0.2"/>
<polyline clip-path="url(#clip082)" style="stroke:#000000; stroke-linecap:round; stroke-linejoin:round; stroke-width:4; stroke-opacity:0.2; fill:none" points="210.454,518.551 281.384,822.798 854.161,1445.72 2290.36,514.734 1973.96,87.9763 631.923,215.579 210.454,518.551 "/>
</svg>
