<?xml version="1.0" encoding="utf-8"?>
<svg xmlns="http://www.w3.org/2000/svg" xmlns:xlink="http://www.w3.org/1999/xlink" width="600" height="400" viewBox="0 0 2400 1600">
<defs>
  <clipPath id="clip820">
    <rect x="0" y="0" width="2400" height="1600"/>
  </clipPath>
</defs>
<path clip-path="url(#clip820)" d="M0 1600 L2400 1600 L2400 0 L0 0  Z" fill="#ffffff" fill-rule="evenodd" fill-opacity="1"/>
<defs>
  <clipPath id="clip821">
    <rect x="480" y="0" width="1681" height="1600"/>
  </clipPath>
</defs>
<path clip-path="url(#clip820)" d="M147.478 1486.45 L2352.76 1486.45 L2352.76 47.2441 L147.478 47.2441  Z" fill="#ffffff" fill-rule="evenodd" fill-opacity="1"/>
<defs>
  <clipPath id="clip822">
    <rect x="147" y="47" width="2206" height="1440"/>
  </clipPath>
</defs>
<polyline clip-path="url(#clip822)" style="stroke:#000000; stroke-linecap:round; stroke-linejoin:round; stroke-width:2; stroke-opacity:0.1; fill:none" points="452.216,1486.45 452.216,47.2441 "/>
<polyline clip-path="url(#clip822)" style="stroke:#000000; stroke-linecap:round; stroke-linejoin:round; stroke-width:2; stroke-opacity:0.1; fill:none" points="890.635,1486.45 890.635,47.2441 "/>
<polyline clip-path="url(#clip822)" style="stroke:#000000; stroke-linecap:round; stroke-linejoin:round; stroke-width:2; stroke-opacity:0.1; fill:none" points="1329.05,1486.45 1329.05,47.2441 "/>
<polyline clip-path="url(#clip822)" style="stroke:#000000; stroke-linecap:round; stroke-linejoin:round; stroke-width:2; stroke-opacity:0.1; fill:none" points="1767.47,1486.45 1767.47,47.2441 "/>
<polyline clip-path="url(#clip822)" style="stroke:#000000; stroke-linecap:round; stroke-linejoin:round; stroke-width:2; stroke-opacity:0.1; fill:none" points="2205.89,1486.45 2205.89,47.2441 "/>
<polyline clip-path="url(#clip822)" style="stroke:#000000; stroke-linecap:round; stroke-linejoin:round; stroke-width:2; stroke-opacity:0.1; fill:none" points="147.478,1258.02 2352.76,1258.02 "/>
<polyline clip-path="url(#clip822)" style="stroke:#000000; stroke-linecap:round; stroke-linejoin:round; stroke-width:2; stroke-opacity:0.1; fill:none" points="147.478,872.227 2352.76,872.227 "/>
<polyline clip-path="url(#clip822)" style="stroke:#000000; stroke-linecap:round; stroke-linejoin:round; stroke-width:2; stroke-opacity:0.1; fill:none" points="147.478,486.433 2352.76,486.433 "/>
<polyline clip-path="url(#clip822)" style="stroke:#000000; stroke-linecap:round; stroke-linejoin:round; stroke-width:2; stroke-opacity:0.1; fill:none" points="147.478,100.639 2352.76,100.639 "/>
<polyline clip-path="url(#clip820)" style="stroke:#000000; stroke-linecap:round; stroke-linejoin:round; stroke-width:4; stroke-opacity:1; fill:none" points="147.478,1486.45 2352.76,1486.45 "/>
<polyline clip-path="url(#clip820)" style="stroke:#000000; stroke-linecap:round; stroke-linejoin:round; stroke-width:4; stroke-opacity:1; fill:none" points="452.216,1486.45 452.216,1467.55 "/>
<polyline clip-path="url(#clip820)" style="stroke:#000000; stroke-linecap:round; stroke-linejoin:round; stroke-width:4; stroke-opacity:1; fill:none" points="890.635,1486.45 890.635,1467.55 "/>
<polyline clip-path="url(#clip820)" style="stroke:#000000; stroke-linecap:round; stroke-linejoin:round; stroke-width:4; stroke-opacity:1; fill:none" points="1329.05,1486.45 1329.05,1467.55 "/>
<polyline clip-path="url(#clip820)" style="stroke:#000000; stroke-linecap:round; stroke-linejoin:round; stroke-width:4; stroke-opacity:1; fill:none" points="1767.47,1486.45 1767.47,1467.55 "/>
<polyline clip-path="url(#clip820)" style="stroke:#000000; stroke-linecap:round; stroke-linejoin:round; stroke-width:4; stroke-opacity:1; fill:none" points="2205.89,1486.45 2205.89,1467.55 "/>
<path clip-path="url(#clip820)" d="M422.158 1532.02 L451.834 1532.02 L451.834 1535.95 L422.158 1535.95 L422.158 1532.02 Z" fill="#000000" fill-rule="nonzero" fill-opacity="1" /><path clip-path="url(#clip820)" d="M465.954 1544.91 L482.274 1544.91 L482.274 1548.85 L460.329 1548.85 L460.329 1544.91 Q462.991 1542.16 467.575 1537.53 Q472.181 1532.88 473.362 1531.53 Q475.607 1529.01 476.487 1527.27 Q477.389 1525.51 477.389 1523.82 Q477.389 1521.07 475.445 1519.33 Q473.524 1517.6 470.422 1517.6 Q468.223 1517.6 465.769 1518.36 Q463.339 1519.13 460.561 1520.68 L460.561 1515.95 Q463.385 1514.82 465.839 1514.24 Q468.292 1513.66 470.329 1513.66 Q475.7 1513.66 478.894 1516.35 Q482.088 1519.03 482.088 1523.52 Q482.088 1525.65 481.278 1527.57 Q480.491 1529.47 478.385 1532.07 Q477.806 1532.74 474.704 1535.95 Q471.602 1539.15 465.954 1544.91 Z" fill="#000000" fill-rule="nonzero" fill-opacity="1" /><path clip-path="url(#clip820)" d="M860.392 1532.02 L890.068 1532.02 L890.068 1535.95 L860.392 1535.95 L860.392 1532.02 Z" fill="#000000" fill-rule="nonzero" fill-opacity="1" /><path clip-path="url(#clip820)" d="M900.97 1544.91 L908.609 1544.91 L908.609 1518.55 L900.299 1520.21 L900.299 1515.95 L908.563 1514.29 L913.239 1514.29 L913.239 1544.91 L920.878 1544.91 L920.878 1548.85 L900.97 1548.85 L900.97 1544.91 Z" fill="#000000" fill-rule="nonzero" fill-opacity="1" /><path clip-path="url(#clip820)" d="M1329.05 1517.37 Q1325.44 1517.37 1323.61 1520.93 Q1321.81 1524.47 1321.81 1531.6 Q1321.81 1538.71 1323.61 1542.27 Q1325.44 1545.82 1329.05 1545.82 Q1332.69 1545.82 1334.49 1542.27 Q1336.32 1538.71 1336.32 1531.6 Q1336.32 1524.47 1334.49 1520.93 Q1332.69 1517.37 1329.05 1517.37 M1329.05 1513.66 Q1334.86 1513.66 1337.92 1518.27 Q1341 1522.85 1341 1531.6 Q1341 1540.33 1337.92 1544.94 Q1334.86 1549.52 1329.05 1549.52 Q1323.24 1549.52 1320.16 1544.94 Q1317.11 1540.33 1317.11 1531.6 Q1317.11 1522.85 1320.16 1518.27 Q1323.24 1513.66 1329.05 1513.66 Z" fill="#000000" fill-rule="nonzero" fill-opacity="1" /><path clip-path="url(#clip820)" d="M1757.85 1544.91 L1765.49 1544.91 L1765.49 1518.55 L1757.18 1520.21 L1757.18 1515.95 L1765.45 1514.29 L1770.12 1514.29 L1770.12 1544.91 L1777.76 1544.91 L1777.76 1548.85 L1757.85 1548.85 L1757.85 1544.91 Z" fill="#000000" fill-rule="nonzero" fill-opacity="1" /><path clip-path="url(#clip820)" d="M2200.54 1544.91 L2216.86 1544.91 L2216.86 1548.85 L2194.92 1548.85 L2194.92 1544.91 Q2197.58 1542.16 2202.16 1537.53 Q2206.77 1532.88 2207.95 1531.53 Q2210.2 1529.01 2211.08 1527.27 Q2211.98 1525.51 2211.98 1523.82 Q2211.98 1521.07 2210.03 1519.33 Q2208.11 1517.6 2205.01 1517.6 Q2202.81 1517.6 2200.36 1518.36 Q2197.93 1519.13 2195.15 1520.68 L2195.15 1515.95 Q2197.97 1514.82 2200.43 1514.24 Q2202.88 1513.66 2204.92 1513.66 Q2210.29 1513.66 2213.48 1516.35 Q2216.68 1519.03 2216.68 1523.52 Q2216.68 1525.65 2215.87 1527.57 Q2215.08 1529.47 2212.97 1532.07 Q2212.4 1532.74 2209.29 1535.95 Q2206.19 1539.15 2200.54 1544.91 Z" fill="#000000" fill-rule="nonzero" fill-opacity="1" /><polyline clip-path="url(#clip820)" style="stroke:#000000; stroke-linecap:round; stroke-linejoin:round; stroke-width:4; stroke-opacity:1; fill:none" points="147.478,1486.45 147.478,47.2441 "/>
<polyline clip-path="url(#clip820)" style="stroke:#000000; stroke-linecap:round; stroke-linejoin:round; stroke-width:4; stroke-opacity:1; fill:none" points="147.478,1258.02 166.376,1258.02 "/>
<polyline clip-path="url(#clip820)" style="stroke:#000000; stroke-linecap:round; stroke-linejoin:round; stroke-width:4; stroke-opacity:1; fill:none" points="147.478,872.227 166.376,872.227 "/>
<polyline clip-path="url(#clip820)" style="stroke:#000000; stroke-linecap:round; stroke-linejoin:round; stroke-width:4; stroke-opacity:1; fill:none" points="147.478,486.433 166.376,486.433 "/>
<polyline clip-path="url(#clip820)" style="stroke:#000000; stroke-linecap:round; stroke-linejoin:round; stroke-width:4; stroke-opacity:1; fill:none" points="147.478,100.639 166.376,100.639 "/>
<path clip-path="url(#clip820)" d="M50.9921 1258.47 L80.6679 1258.47 L80.6679 1262.41 L50.9921 1262.41 L50.9921 1258.47 Z" fill="#000000" fill-rule="nonzero" fill-opacity="1" /><path clip-path="url(#clip820)" d="M91.5706 1271.37 L99.2095 1271.37 L99.2095 1245 L90.8993 1246.67 L90.8993 1242.41 L99.1632 1240.74 L103.839 1240.74 L103.839 1271.37 L111.478 1271.37 L111.478 1275.3 L91.5706 1275.3 L91.5706 1271.37 Z" fill="#000000" fill-rule="nonzero" fill-opacity="1" /><path clip-path="url(#clip820)" d="M99.5335 858.026 Q95.9224 858.026 94.0937 861.591 Q92.2882 865.132 92.2882 872.262 Q92.2882 879.368 94.0937 882.933 Q95.9224 886.475 99.5335 886.475 Q103.168 886.475 104.973 882.933 Q106.802 879.368 106.802 872.262 Q106.802 865.132 104.973 861.591 Q103.168 858.026 99.5335 858.026 M99.5335 854.322 Q105.344 854.322 108.399 858.929 Q111.478 863.512 111.478 872.262 Q111.478 880.989 108.399 885.595 Q105.344 890.179 99.5335 890.179 Q93.7234 890.179 90.6447 885.595 Q87.5892 880.989 87.5892 872.262 Q87.5892 863.512 90.6447 858.929 Q93.7234 854.322 99.5335 854.322 Z" fill="#000000" fill-rule="nonzero" fill-opacity="1" /><path clip-path="url(#clip820)" d="M91.5706 499.778 L99.2095 499.778 L99.2095 473.412 L90.8993 475.079 L90.8993 470.82 L99.1632 469.153 L103.839 469.153 L103.839 499.778 L111.478 499.778 L111.478 503.713 L91.5706 503.713 L91.5706 499.778 Z" fill="#000000" fill-rule="nonzero" fill-opacity="1" /><path clip-path="url(#clip820)" d="M95.1586 113.983 L111.478 113.983 L111.478 117.919 L89.5336 117.919 L89.5336 113.983 Q92.1956 111.229 96.7789 106.599 Q101.385 101.946 102.566 100.604 Q104.811 98.0807 105.691 96.3446 Q106.594 94.5854 106.594 92.8956 Q106.594 90.141 104.649 88.4049 Q102.728 86.6688 99.6261 86.6688 Q97.4271 86.6688 94.9734 87.4326 Q92.5428 88.1965 89.7651 89.7474 L89.7651 85.0252 Q92.5891 83.891 95.0428 83.3123 Q97.4965 82.7336 99.5335 82.7336 Q104.904 82.7336 108.098 85.4188 Q111.293 88.1039 111.293 92.5946 Q111.293 94.7243 110.483 96.6455 Q109.696 98.5437 107.589 101.136 Q107.01 101.808 103.909 105.025 Q100.807 108.22 95.1586 113.983 Z" fill="#000000" fill-rule="nonzero" fill-opacity="1" /><circle clip-path="url(#clip822)" cx="1105.1" cy="1274.33" r="14.4" fill="#009af9" fill-rule="evenodd" fill-opacity="0.5" stroke="#000000" stroke-opacity="0.5" stroke-width="3.2"/>
<circle clip-path="url(#clip822)" cx="1071.94" cy="570.458" r="14.4" fill="#009af9" fill-rule="evenodd" fill-opacity="0.5" stroke="#000000" stroke-opacity="0.5" stroke-width="3.2"/>
<circle clip-path="url(#clip822)" cx="855.837" cy="212.664" r="14.4" fill="#009af9" fill-rule="evenodd" fill-opacity="0.5" stroke="#000000" stroke-opacity="0.5" stroke-width="3.2"/>
<circle clip-path="url(#clip822)" cx="1817.46" cy="1078.42" r="14.4" fill="#009af9" fill-rule="evenodd" fill-opacity="0.5" stroke="#000000" stroke-opacity="0.5" stroke-width="3.2"/>
<circle clip-path="url(#clip822)" cx="1387.22" cy="567.697" r="14.4" fill="#009af9" fill-rule="evenodd" fill-opacity="0.5" stroke="#000000" stroke-opacity="0.5" stroke-width="3.2"/>
<circle clip-path="url(#clip822)" cx="768.315" cy="1101.7" r="14.4" fill="#009af9" fill-rule="evenodd" fill-opacity="0.5" stroke="#000000" stroke-opacity="0.5" stroke-width="3.2"/>
<circle clip-path="url(#clip822)" cx="2290.34" cy="786.454" r="14.4" fill="#009af9" fill-rule="evenodd" fill-opacity="0.5" stroke="#000000" stroke-opacity="0.5" stroke-width="3.2"/>
<circle clip-path="url(#clip822)" cx="1028.4" cy="1237.12" r="14.4" fill="#009af9" fill-rule="evenodd" fill-opacity="0.5" stroke="#000000" stroke-opacity="0.5" stroke-width="3.2"/>
<circle clip-path="url(#clip822)" cx="1109.9" cy="509.305" r="14.4" fill="#009af9" fill-rule="evenodd" fill-opacity="0.5" stroke="#000000" stroke-opacity="0.5" stroke-width="3.2"/>
<circle clip-path="url(#clip822)" cx="1779.56" cy="595.189" r="14.4" fill="#009af9" fill-rule="evenodd" fill-opacity="0.5" stroke="#000000" stroke-opacity="0.5" stroke-width="3.2"/>
<circle clip-path="url(#clip822)" cx="1794.9" cy="87.9763" r="14.4" fill="#009af9" fill-rule="evenodd" fill-opacity="0.5" stroke="#000000" stroke-opacity="0.5" stroke-width="3.2"/>
<circle clip-path="url(#clip822)" cx="975.887" cy="1161.18" r="14.4" fill="#009af9" fill-rule="evenodd" fill-opacity="0.5" stroke="#000000" stroke-opacity="0.5" stroke-width="3.2"/>
<circle clip-path="url(#clip822)" cx="1236.05" cy="718.008" r="14.4" fill="#009af9" fill-rule="evenodd" fill-opacity="0.5" stroke="#000000" stroke-opacity="0.5" stroke-width="3.2"/>
<circle clip-path="url(#clip822)" cx="1329.36" cy="1445.72" r="14.4" fill="#009af9" fill-rule="evenodd" fill-opacity="0.5" stroke="#000000" stroke-opacity="0.5" stroke-width="3.2"/>
<circle clip-path="url(#clip822)" cx="1085.64" cy="699.106" r="14.4" fill="#009af9" fill-rule="evenodd" fill-opacity="0.5" stroke="#000000" stroke-opacity="0.5" stroke-width="3.2"/>
<circle clip-path="url(#clip822)" cx="1185.2" cy="816.374" r="14.4" fill="#009af9" fill-rule="evenodd" fill-opacity="0.5" stroke="#000000" stroke-opacity="0.5" stroke-width="3.2"/>
<circle clip-path="url(#clip822)" cx="1969.58" cy="1307.54" r="14.4" fill="#009af9" fill-rule="evenodd" fill-opacity="0.5" stroke="#000000" stroke-opacity="0.5" stroke-width="3.2"/>
<circle clip-path="url(#clip822)" cx="1069.77" cy="117.006" r="14.4" fill="#009af9" fill-rule="evenodd" fill-opacity="0.5" stroke="#000000" stroke-opacity="0.5" stroke-width="3.2"/>
<circle clip-path="url(#clip822)" cx="1294.82" cy="737.134" r="14.4" fill="#009af9" fill-rule="evenodd" fill-opacity="0.5" stroke="#000000" stroke-opacity="0.5" stroke-width="3.2"/>
<circle clip-path="url(#clip822)" cx="1369.95" cy="1246.85" r="14.4" fill="#009af9" fill-rule="evenodd" fill-opacity="0.5" stroke="#000000" stroke-opacity="0.5" stroke-width="3.2"/>
<circle clip-path="url(#clip822)" cx="209.891" cy="788.945" r="14.4" fill="#009af9" fill-rule="evenodd" fill-opacity="0.5" stroke="#000000" stroke-opacity="0.5" stroke-width="3.2"/>
<circle clip-path="url(#clip822)" cx="1494.95" cy="643.277" r="14.4" fill="#009af9" fill-rule="evenodd" fill-opacity="0.5" stroke="#000000" stroke-opacity="0.5" stroke-width="3.2"/>
<circle clip-path="url(#clip822)" cx="1624.74" cy="1442.52" r="14.4" fill="#009af9" fill-rule="evenodd" fill-opacity="0.5" stroke="#000000" stroke-opacity="0.5" stroke-width="3.2"/>
<circle clip-path="url(#clip822)" cx="1778.18" cy="1021.62" r="14.4" fill="#009af9" fill-rule="evenodd" fill-opacity="0.5" stroke="#000000" stroke-opacity="0.5" stroke-width="3.2"/>
<circle clip-path="url(#clip822)" cx="1614.79" cy="1166.57" r="14.4" fill="#009af9" fill-rule="evenodd" fill-opacity="0.5" stroke="#000000" stroke-opacity="0.5" stroke-width="3.2"/>
<circle clip-path="url(#clip822)" cx="1237.41" cy="517.851" r="14.4" fill="#009af9" fill-rule="evenodd" fill-opacity="0.5" stroke="#000000" stroke-opacity="0.5" stroke-width="3.2"/>
<circle clip-path="url(#clip822)" cx="1038.61" cy="1433.7" r="14.4" fill="#009af9" fill-rule="evenodd" fill-opacity="0.5" stroke="#000000" stroke-opacity="0.5" stroke-width="3.2"/>
<circle clip-path="url(#clip822)" cx="1239.63" cy="762.845" r="14.4" fill="#009af9" fill-rule="evenodd" fill-opacity="0.5" stroke="#000000" stroke-opacity="0.5" stroke-width="3.2"/>
<circle clip-path="url(#clip822)" cx="909.459" cy="882.786" r="14.4" fill="#009af9" fill-rule="evenodd" fill-opacity="0.5" stroke="#000000" stroke-opacity="0.5" stroke-width="3.2"/>
<circle clip-path="url(#clip822)" cx="1174.78" cy="728.492" r="14.4" fill="#009af9" fill-rule="evenodd" fill-opacity="0.5" stroke="#000000" stroke-opacity="0.5" stroke-width="3.2"/>
<path clip-path="url(#clip822)" d="M209.891 788.945 L1038.61 1433.7 L1329.36 1445.72 L1624.74 1442.52 L1969.58 1307.54 L2290.34 786.454 L1794.9 87.9763 L1069.77 117.006 L855.837 212.664 L209.891 788.945 L209.891 788.945  Z" fill="#e26f46" fill-rule="evenodd" fill-opacity="0.2"/>
<polyline clip-path="url(#clip822)" style="stroke:#000000; stroke-linecap:round; stroke-linejoin:round; stroke-width:4; stroke-opacity:0.2; fill:none" points="209.891,788.945 1038.61,1433.7 1329.36,1445.72 1624.74,1442.52 1969.58,1307.54 2290.34,786.454 1794.9,87.9763 1069.77,117.006 855.837,212.664 209.891,788.945 "/>
</svg>
