<?xml version="1.0" encoding="utf-8"?>
<svg xmlns="http://www.w3.org/2000/svg" xmlns:xlink="http://www.w3.org/1999/xlink" width="600" height="400" viewBox="0 0 2400 1600">
<defs>
  <clipPath id="clip780">
    <rect x="0" y="0" width="2400" height="1600"/>
  </clipPath>
</defs>
<path clip-path="url(#clip780)" d="M0 1600 L2400 1600 L2400 0 L0 0  Z" fill="#ffffff" fill-rule="evenodd" fill-opacity="1"/>
<defs>
  <clipPath id="clip781">
    <rect x="480" y="0" width="1681" height="1600"/>
  </clipPath>
</defs>
<path clip-path="url(#clip780)" d="M147.478 1486.45 L2352.76 1486.45 L2352.76 47.2441 L147.478 47.2441  Z" fill="#ffffff" fill-rule="evenodd" fill-opacity="1"/>
<defs>
  <clipPath id="clip782">
    <rect x="147" y="47" width="2206" height="1440"/>
  </clipPath>
</defs>
<polyline clip-path="url(#clip782)" style="stroke:#000000; stroke-linecap:round; stroke-linejoin:round; stroke-width:2; stroke-opacity:0.1; fill:none" points="473.721,1486.45 473.721,47.2441 "/>
<polyline clip-path="url(#clip782)" style="stroke:#000000; stroke-linecap:round; stroke-linejoin:round; stroke-width:2; stroke-opacity:0.1; fill:none" points="901.76,1486.45 901.76,47.2441 "/>
<polyline clip-path="url(#clip782)" style="stroke:#000000; stroke-linecap:round; stroke-linejoin:round; stroke-width:2; stroke-opacity:0.1; fill:none" points="1329.8,1486.45 1329.8,47.2441 "/>
<polyline clip-path="url(#clip782)" style="stroke:#000000; stroke-linecap:round; stroke-linejoin:round; stroke-width:2; stroke-opacity:0.1; fill:none" points="1757.84,1486.45 1757.84,47.2441 "/>
<polyline clip-path="url(#clip782)" style="stroke:#000000; stroke-linecap:round; stroke-linejoin:round; stroke-width:2; stroke-opacity:0.1; fill:none" points="2185.88,1486.45 2185.88,47.2441 "/>
<polyline clip-path="url(#clip782)" style="stroke:#000000; stroke-linecap:round; stroke-linejoin:round; stroke-width:2; stroke-opacity:0.1; fill:none" points="147.478,1391.29 2352.76,1391.29 "/>
<polyline clip-path="url(#clip782)" style="stroke:#000000; stroke-linecap:round; stroke-linejoin:round; stroke-width:2; stroke-opacity:0.1; fill:none" points="147.478,1075.17 2352.76,1075.17 "/>
<polyline clip-path="url(#clip782)" style="stroke:#000000; stroke-linecap:round; stroke-linejoin:round; stroke-width:2; stroke-opacity:0.1; fill:none" points="147.478,759.05 2352.76,759.05 "/>
<polyline clip-path="url(#clip782)" style="stroke:#000000; stroke-linecap:round; stroke-linejoin:round; stroke-width:2; stroke-opacity:0.1; fill:none" points="147.478,442.928 2352.76,442.928 "/>
<polyline clip-path="url(#clip782)" style="stroke:#000000; stroke-linecap:round; stroke-linejoin:round; stroke-width:2; stroke-opacity:0.1; fill:none" points="147.478,126.805 2352.76,126.805 "/>
<polyline clip-path="url(#clip780)" style="stroke:#000000; stroke-linecap:round; stroke-linejoin:round; stroke-width:4; stroke-opacity:1; fill:none" points="147.478,1486.45 2352.76,1486.45 "/>
<polyline clip-path="url(#clip780)" style="stroke:#000000; stroke-linecap:round; stroke-linejoin:round; stroke-width:4; stroke-opacity:1; fill:none" points="473.721,1486.45 473.721,1467.55 "/>
<polyline clip-path="url(#clip780)" style="stroke:#000000; stroke-linecap:round; stroke-linejoin:round; stroke-width:4; stroke-opacity:1; fill:none" points="901.76,1486.45 901.76,1467.55 "/>
<polyline clip-path="url(#clip780)" style="stroke:#000000; stroke-linecap:round; stroke-linejoin:round; stroke-width:4; stroke-opacity:1; fill:none" points="1329.8,1486.45 1329.8,1467.55 "/>
<polyline clip-path="url(#clip780)" style="stroke:#000000; stroke-linecap:round; stroke-linejoin:round; stroke-width:4; stroke-opacity:1; fill:none" points="1757.84,1486.45 1757.84,1467.55 "/>
<polyline clip-path="url(#clip780)" style="stroke:#000000; stroke-linecap:round; stroke-linejoin:round; stroke-width:4; stroke-opacity:1; fill:none" points="2185.88,1486.45 2185.88,1467.55 "/>
<path clip-path="url(#clip780)" d="M443.663 1532.02 L473.339 1532.02 L473.339 1535.95 L443.663 1535.95 L443.663 1532.02 Z" fill="#000000" fill-rule="nonzero" fill-opacity="1" /><path clip-path="url(#clip780)" d="M487.459 1544.91 L503.778 1544.91 L503.778 1548.85 L481.834 1548.85 L481.834 1544.91 Q484.496 1542.16 489.079 1537.53 Q493.686 1532.88 494.866 1531.53 Q497.112 1529.01 497.991 1527.27 Q498.894 1525.51 498.894 1523.82 Q498.894 1521.07 496.95 1519.33 Q495.028 1517.6 491.926 1517.6 Q489.727 1517.6 487.274 1518.36 Q484.843 1519.13 482.065 1520.68 L482.065 1515.95 Q484.889 1514.82 487.343 1514.24 Q489.797 1513.66 491.834 1513.66 Q497.204 1513.66 500.399 1516.35 Q503.593 1519.03 503.593 1523.52 Q503.593 1525.65 502.783 1527.57 Q501.996 1529.47 499.889 1532.07 Q499.311 1532.74 496.209 1535.95 Q493.107 1539.15 487.459 1544.91 Z" fill="#000000" fill-rule="nonzero" fill-opacity="1" /><path clip-path="url(#clip780)" d="M871.517 1532.02 L901.193 1532.02 L901.193 1535.95 L871.517 1535.95 L871.517 1532.02 Z" fill="#000000" fill-rule="nonzero" fill-opacity="1" /><path clip-path="url(#clip780)" d="M912.096 1544.91 L919.735 1544.91 L919.735 1518.55 L911.425 1520.21 L911.425 1515.95 L919.688 1514.29 L924.364 1514.29 L924.364 1544.91 L932.003 1544.91 L932.003 1548.85 L912.096 1548.85 L912.096 1544.91 Z" fill="#000000" fill-rule="nonzero" fill-opacity="1" /><path clip-path="url(#clip780)" d="M1329.8 1517.37 Q1326.19 1517.37 1324.36 1520.93 Q1322.55 1524.47 1322.55 1531.6 Q1322.55 1538.71 1324.36 1542.27 Q1326.19 1545.82 1329.8 1545.82 Q1333.43 1545.82 1335.24 1542.27 Q1337.07 1538.71 1337.07 1531.6 Q1337.07 1524.47 1335.24 1520.93 Q1333.43 1517.37 1329.8 1517.37 M1329.8 1513.66 Q1335.61 1513.66 1338.67 1518.27 Q1341.74 1522.85 1341.74 1531.6 Q1341.74 1540.33 1338.67 1544.94 Q1335.61 1549.52 1329.8 1549.52 Q1323.99 1549.52 1320.91 1544.94 Q1317.86 1540.33 1317.86 1531.6 Q1317.86 1522.85 1320.91 1518.27 Q1323.99 1513.66 1329.8 1513.66 Z" fill="#000000" fill-rule="nonzero" fill-opacity="1" /><path clip-path="url(#clip780)" d="M1748.22 1544.91 L1755.86 1544.91 L1755.86 1518.55 L1747.55 1520.21 L1747.55 1515.95 L1755.81 1514.29 L1760.49 1514.29 L1760.49 1544.91 L1768.13 1544.91 L1768.13 1548.85 L1748.22 1548.85 L1748.22 1544.91 Z" fill="#000000" fill-rule="nonzero" fill-opacity="1" /><path clip-path="url(#clip780)" d="M2180.53 1544.91 L2196.85 1544.91 L2196.85 1548.85 L2174.91 1548.85 L2174.91 1544.91 Q2177.57 1542.16 2182.15 1537.53 Q2186.76 1532.88 2187.94 1531.53 Q2190.19 1529.01 2191.06 1527.27 Q2191.97 1525.51 2191.97 1523.82 Q2191.97 1521.07 2190.02 1519.33 Q2188.1 1517.6 2185 1517.6 Q2182.8 1517.6 2180.35 1518.36 Q2177.92 1519.13 2175.14 1520.68 L2175.14 1515.95 Q2177.96 1514.82 2180.42 1514.24 Q2182.87 1513.66 2184.91 1513.66 Q2190.28 1513.66 2193.47 1516.35 Q2196.67 1519.03 2196.67 1523.52 Q2196.67 1525.65 2195.86 1527.57 Q2195.07 1529.47 2192.96 1532.07 Q2192.38 1532.74 2189.28 1535.95 Q2186.18 1539.15 2180.53 1544.91 Z" fill="#000000" fill-rule="nonzero" fill-opacity="1" /><polyline clip-path="url(#clip780)" style="stroke:#000000; stroke-linecap:round; stroke-linejoin:round; stroke-width:4; stroke-opacity:1; fill:none" points="147.478,1486.45 147.478,47.2441 "/>
<polyline clip-path="url(#clip780)" style="stroke:#000000; stroke-linecap:round; stroke-linejoin:round; stroke-width:4; stroke-opacity:1; fill:none" points="147.478,1391.29 166.376,1391.29 "/>
<polyline clip-path="url(#clip780)" style="stroke:#000000; stroke-linecap:round; stroke-linejoin:round; stroke-width:4; stroke-opacity:1; fill:none" points="147.478,1075.17 166.376,1075.17 "/>
<polyline clip-path="url(#clip780)" style="stroke:#000000; stroke-linecap:round; stroke-linejoin:round; stroke-width:4; stroke-opacity:1; fill:none" points="147.478,759.05 166.376,759.05 "/>
<polyline clip-path="url(#clip780)" style="stroke:#000000; stroke-linecap:round; stroke-linejoin:round; stroke-width:4; stroke-opacity:1; fill:none" points="147.478,442.928 166.376,442.928 "/>
<polyline clip-path="url(#clip780)" style="stroke:#000000; stroke-linecap:round; stroke-linejoin:round; stroke-width:4; stroke-opacity:1; fill:none" points="147.478,126.805 166.376,126.805 "/>
<path clip-path="url(#clip780)" d="M51.3625 1391.75 L81.0383 1391.75 L81.0383 1395.68 L51.3625 1395.68 L51.3625 1391.75 Z" fill="#000000" fill-rule="nonzero" fill-opacity="1" /><path clip-path="url(#clip780)" d="M95.1586 1404.64 L111.478 1404.64 L111.478 1408.57 L89.5336 1408.57 L89.5336 1404.64 Q92.1956 1401.89 96.7789 1397.26 Q101.385 1392.6 102.566 1391.26 Q104.811 1388.74 105.691 1387 Q106.594 1385.24 106.594 1383.55 Q106.594 1380.8 104.649 1379.06 Q102.728 1377.33 99.6261 1377.33 Q97.4271 1377.33 94.9734 1378.09 Q92.5428 1378.85 89.7651 1380.4 L89.7651 1375.68 Q92.5891 1374.55 95.0428 1373.97 Q97.4965 1373.39 99.5335 1373.39 Q104.904 1373.39 108.098 1376.08 Q111.293 1378.76 111.293 1383.25 Q111.293 1385.38 110.483 1387.3 Q109.696 1389.2 107.589 1391.79 Q107.01 1392.46 103.909 1395.68 Q100.807 1398.88 95.1586 1404.64 Z" fill="#000000" fill-rule="nonzero" fill-opacity="1" /><path clip-path="url(#clip780)" d="M50.9921 1075.62 L80.6679 1075.62 L80.6679 1079.56 L50.9921 1079.56 L50.9921 1075.62 Z" fill="#000000" fill-rule="nonzero" fill-opacity="1" /><path clip-path="url(#clip780)" d="M91.5706 1088.52 L99.2095 1088.52 L99.2095 1062.15 L90.8993 1063.82 L90.8993 1059.56 L99.1632 1057.89 L103.839 1057.89 L103.839 1088.52 L111.478 1088.52 L111.478 1092.45 L91.5706 1092.45 L91.5706 1088.52 Z" fill="#000000" fill-rule="nonzero" fill-opacity="1" /><path clip-path="url(#clip780)" d="M99.5335 744.849 Q95.9224 744.849 94.0937 748.413 Q92.2882 751.955 92.2882 759.085 Q92.2882 766.191 94.0937 769.756 Q95.9224 773.298 99.5335 773.298 Q103.168 773.298 104.973 769.756 Q106.802 766.191 106.802 759.085 Q106.802 751.955 104.973 748.413 Q103.168 744.849 99.5335 744.849 M99.5335 741.145 Q105.344 741.145 108.399 745.751 Q111.478 750.335 111.478 759.085 Q111.478 767.812 108.399 772.418 Q105.344 777.001 99.5335 777.001 Q93.7234 777.001 90.6447 772.418 Q87.5892 767.812 87.5892 759.085 Q87.5892 750.335 90.6447 745.751 Q93.7234 741.145 99.5335 741.145 Z" fill="#000000" fill-rule="nonzero" fill-opacity="1" /><path clip-path="url(#clip780)" d="M91.5706 456.272 L99.2095 456.272 L99.2095 429.907 L90.8993 431.573 L90.8993 427.314 L99.1632 425.648 L103.839 425.648 L103.839 456.272 L111.478 456.272 L111.478 460.208 L91.5706 460.208 L91.5706 456.272 Z" fill="#000000" fill-rule="nonzero" fill-opacity="1" /><path clip-path="url(#clip780)" d="M95.1586 140.15 L111.478 140.15 L111.478 144.085 L89.5336 144.085 L89.5336 140.15 Q92.1956 137.395 96.7789 132.766 Q101.385 128.113 102.566 126.77 Q104.811 124.247 105.691 122.511 Q106.594 120.752 106.594 119.062 Q106.594 116.307 104.649 114.571 Q102.728 112.835 99.6261 112.835 Q97.4271 112.835 94.9734 113.599 Q92.5428 114.363 89.7651 115.914 L89.7651 111.192 Q92.5891 110.058 95.0428 109.479 Q97.4965 108.9 99.5335 108.9 Q104.904 108.9 108.098 111.585 Q111.293 114.27 111.293 118.761 Q111.293 120.891 110.483 122.812 Q109.696 124.71 107.589 127.303 Q107.01 127.974 103.909 131.192 Q100.807 134.386 95.1586 140.15 Z" fill="#000000" fill-rule="nonzero" fill-opacity="1" /><circle clip-path="url(#clip782)" cx="2187.48" cy="1130.77" r="14.4" fill="#009af9" fill-rule="evenodd" fill-opacity="0.5" stroke="#000000" stroke-opacity="0.5" stroke-width="3.2"/>
<circle clip-path="url(#clip782)" cx="1057.85" cy="352.134" r="14.4" fill="#009af9" fill-rule="evenodd" fill-opacity="0.5" stroke="#000000" stroke-opacity="0.5" stroke-width="3.2"/>
<circle clip-path="url(#clip782)" cx="527.906" cy="630.221" r="14.4" fill="#009af9" fill-rule="evenodd" fill-opacity="0.5" stroke="#000000" stroke-opacity="0.5" stroke-width="3.2"/>
<circle clip-path="url(#clip782)" cx="1322.31" cy="802.141" r="14.4" fill="#009af9" fill-rule="evenodd" fill-opacity="0.5" stroke="#000000" stroke-opacity="0.5" stroke-width="3.2"/>
<circle clip-path="url(#clip782)" cx="1586.74" cy="908.836" r="14.4" fill="#009af9" fill-rule="evenodd" fill-opacity="0.5" stroke="#000000" stroke-opacity="0.5" stroke-width="3.2"/>
<circle clip-path="url(#clip782)" cx="1024.55" cy="87.9763" r="14.4" fill="#009af9" fill-rule="evenodd" fill-opacity="0.5" stroke="#000000" stroke-opacity="0.5" stroke-width="3.2"/>
<circle clip-path="url(#clip782)" cx="842.194" cy="770.72" r="14.4" fill="#009af9" fill-rule="evenodd" fill-opacity="0.5" stroke="#000000" stroke-opacity="0.5" stroke-width="3.2"/>
<circle clip-path="url(#clip782)" cx="1033.44" cy="431.745" r="14.4" fill="#009af9" fill-rule="evenodd" fill-opacity="0.5" stroke="#000000" stroke-opacity="0.5" stroke-width="3.2"/>
<circle clip-path="url(#clip782)" cx="751.369" cy="315.688" r="14.4" fill="#009af9" fill-rule="evenodd" fill-opacity="0.5" stroke="#000000" stroke-opacity="0.5" stroke-width="3.2"/>
<circle clip-path="url(#clip782)" cx="1299.5" cy="872.577" r="14.4" fill="#009af9" fill-rule="evenodd" fill-opacity="0.5" stroke="#000000" stroke-opacity="0.5" stroke-width="3.2"/>
<circle clip-path="url(#clip782)" cx="1010.87" cy="1445.72" r="14.4" fill="#009af9" fill-rule="evenodd" fill-opacity="0.5" stroke="#000000" stroke-opacity="0.5" stroke-width="3.2"/>
<circle clip-path="url(#clip782)" cx="1440.27" cy="1083.13" r="14.4" fill="#009af9" fill-rule="evenodd" fill-opacity="0.5" stroke="#000000" stroke-opacity="0.5" stroke-width="3.2"/>
<circle clip-path="url(#clip782)" cx="1535.6" cy="629.138" r="14.4" fill="#009af9" fill-rule="evenodd" fill-opacity="0.5" stroke="#000000" stroke-opacity="0.5" stroke-width="3.2"/>
<circle clip-path="url(#clip782)" cx="2011.41" cy="695.412" r="14.4" fill="#009af9" fill-rule="evenodd" fill-opacity="0.5" stroke="#000000" stroke-opacity="0.5" stroke-width="3.2"/>
<circle clip-path="url(#clip782)" cx="2177.22" cy="1043.43" r="14.4" fill="#009af9" fill-rule="evenodd" fill-opacity="0.5" stroke="#000000" stroke-opacity="0.5" stroke-width="3.2"/>
<circle clip-path="url(#clip782)" cx="1454.86" cy="721.062" r="14.4" fill="#009af9" fill-rule="evenodd" fill-opacity="0.5" stroke="#000000" stroke-opacity="0.5" stroke-width="3.2"/>
<circle clip-path="url(#clip782)" cx="2175.23" cy="632.82" r="14.4" fill="#009af9" fill-rule="evenodd" fill-opacity="0.5" stroke="#000000" stroke-opacity="0.5" stroke-width="3.2"/>
<circle clip-path="url(#clip782)" cx="1503.58" cy="1207.84" r="14.4" fill="#009af9" fill-rule="evenodd" fill-opacity="0.5" stroke="#000000" stroke-opacity="0.5" stroke-width="3.2"/>
<circle clip-path="url(#clip782)" cx="2290.34" cy="600.738" r="14.4" fill="#009af9" fill-rule="evenodd" fill-opacity="0.5" stroke="#000000" stroke-opacity="0.5" stroke-width="3.2"/>
<circle clip-path="url(#clip782)" cx="209.891" cy="1173.83" r="14.4" fill="#009af9" fill-rule="evenodd" fill-opacity="0.5" stroke="#000000" stroke-opacity="0.5" stroke-width="3.2"/>
<circle clip-path="url(#clip782)" cx="1150.54" cy="519.844" r="14.4" fill="#009af9" fill-rule="evenodd" fill-opacity="0.5" stroke="#000000" stroke-opacity="0.5" stroke-width="3.2"/>
<circle clip-path="url(#clip782)" cx="1214.61" cy="848.704" r="14.4" fill="#009af9" fill-rule="evenodd" fill-opacity="0.5" stroke="#000000" stroke-opacity="0.5" stroke-width="3.2"/>
<circle clip-path="url(#clip782)" cx="1695.94" cy="801.488" r="14.4" fill="#009af9" fill-rule="evenodd" fill-opacity="0.5" stroke="#000000" stroke-opacity="0.5" stroke-width="3.2"/>
<circle clip-path="url(#clip782)" cx="2067.97" cy="812.308" r="14.4" fill="#009af9" fill-rule="evenodd" fill-opacity="0.5" stroke="#000000" stroke-opacity="0.5" stroke-width="3.2"/>
<circle clip-path="url(#clip782)" cx="1243.73" cy="1211.91" r="14.4" fill="#009af9" fill-rule="evenodd" fill-opacity="0.5" stroke="#000000" stroke-opacity="0.5" stroke-width="3.2"/>
<circle clip-path="url(#clip782)" cx="1450.26" cy="804.247" r="14.4" fill="#009af9" fill-rule="evenodd" fill-opacity="0.5" stroke="#000000" stroke-opacity="0.5" stroke-width="3.2"/>
<circle clip-path="url(#clip782)" cx="726.734" cy="977.651" r="14.4" fill="#009af9" fill-rule="evenodd" fill-opacity="0.5" stroke="#000000" stroke-opacity="0.5" stroke-width="3.2"/>
<circle clip-path="url(#clip782)" cx="874.75" cy="410.299" r="14.4" fill="#009af9" fill-rule="evenodd" fill-opacity="0.5" stroke="#000000" stroke-opacity="0.5" stroke-width="3.2"/>
<circle clip-path="url(#clip782)" cx="1478.63" cy="502.994" r="14.4" fill="#009af9" fill-rule="evenodd" fill-opacity="0.5" stroke="#000000" stroke-opacity="0.5" stroke-width="3.2"/>
<circle clip-path="url(#clip782)" cx="1392.52" cy="400.238" r="14.4" fill="#009af9" fill-rule="evenodd" fill-opacity="0.5" stroke="#000000" stroke-opacity="0.5" stroke-width="3.2"/>
<path clip-path="url(#clip782)" d="M209.891 1173.83 L1010.87 1445.72 L2187.48 1130.77 L2290.34 600.738 L1024.55 87.9763 L751.369 315.688 L527.906 630.221 L209.891 1173.83 L209.891 1173.83  Z" fill="#e26f46" fill-rule="evenodd" fill-opacity="0.2"/>
<polyline clip-path="url(#clip782)" style="stroke:#000000; stroke-linecap:round; stroke-linejoin:round; stroke-width:4; stroke-opacity:0.2; fill:none" points="209.891,1173.83 1010.87,1445.72 2187.48,1130.77 2290.34,600.738 1024.55,87.9763 751.369,315.688 527.906,630.221 209.891,1173.83 "/>
</svg>
