<?xml version="1.0" encoding="utf-8"?>
<svg xmlns="http://www.w3.org/2000/svg" xmlns:xlink="http://www.w3.org/1999/xlink" width="600" height="400" viewBox="0 0 2400 1600">
<defs>
  <clipPath id="clip820">
    <rect x="0" y="0" width="2400" height="1600"/>
  </clipPath>
</defs>
<path clip-path="url(#clip820)" d="M0 1600 L2400 1600 L2400 0 L0 0  Z" fill="#ffffff" fill-rule="evenodd" fill-opacity="1"/>
<defs>
  <clipPath id="clip821">
    <rect x="147" y="47" width="2206" height="1440"/>
  </clipPath>
</defs>
<path clip-path="url(#clip820)" d="M147.478 1486.45 L2352.76 1486.45 L2352.76 47.2441 L147.478 47.2441  Z" fill="#ffffff" fill-rule="evenodd" fill-opacity="1"/>
<polyline clip-path="url(#clip821)" style="stroke:#000000; stroke-linecap:round; stroke-linejoin:round; stroke-width:2; stroke-opacity:0.1; fill:none" points="520.69,1486.45 520.69,47.2441 "/>
<polyline clip-path="url(#clip821)" style="stroke:#000000; stroke-linecap:round; stroke-linejoin:round; stroke-width:2; stroke-opacity:0.1; fill:none" points="1102.01,1486.45 1102.01,47.2441 "/>
<polyline clip-path="url(#clip821)" style="stroke:#000000; stroke-linecap:round; stroke-linejoin:round; stroke-width:2; stroke-opacity:0.1; fill:none" points="1683.33,1486.45 1683.33,47.2441 "/>
<polyline clip-path="url(#clip821)" style="stroke:#000000; stroke-linecap:round; stroke-linejoin:round; stroke-width:2; stroke-opacity:0.1; fill:none" points="2264.66,1486.45 2264.66,47.2441 "/>
<polyline clip-path="url(#clip821)" style="stroke:#000000; stroke-linecap:round; stroke-linejoin:round; stroke-width:2; stroke-opacity:0.1; fill:none" points="147.478,1343.22 2352.76,1343.22 "/>
<polyline clip-path="url(#clip821)" style="stroke:#000000; stroke-linecap:round; stroke-linejoin:round; stroke-width:2; stroke-opacity:0.1; fill:none" points="147.478,1061.49 2352.76,1061.49 "/>
<polyline clip-path="url(#clip821)" style="stroke:#000000; stroke-linecap:round; stroke-linejoin:round; stroke-width:2; stroke-opacity:0.1; fill:none" points="147.478,779.768 2352.76,779.768 "/>
<polyline clip-path="url(#clip821)" style="stroke:#000000; stroke-linecap:round; stroke-linejoin:round; stroke-width:2; stroke-opacity:0.1; fill:none" points="147.478,498.041 2352.76,498.041 "/>
<polyline clip-path="url(#clip821)" style="stroke:#000000; stroke-linecap:round; stroke-linejoin:round; stroke-width:2; stroke-opacity:0.1; fill:none" points="147.478,216.315 2352.76,216.315 "/>
<polyline clip-path="url(#clip820)" style="stroke:#000000; stroke-linecap:round; stroke-linejoin:round; stroke-width:4; stroke-opacity:1; fill:none" points="147.478,1486.45 2352.76,1486.45 "/>
<polyline clip-path="url(#clip820)" style="stroke:#000000; stroke-linecap:round; stroke-linejoin:round; stroke-width:4; stroke-opacity:1; fill:none" points="520.69,1486.45 520.69,1467.55 "/>
<polyline clip-path="url(#clip820)" style="stroke:#000000; stroke-linecap:round; stroke-linejoin:round; stroke-width:4; stroke-opacity:1; fill:none" points="1102.01,1486.45 1102.01,1467.55 "/>
<polyline clip-path="url(#clip820)" style="stroke:#000000; stroke-linecap:round; stroke-linejoin:round; stroke-width:4; stroke-opacity:1; fill:none" points="1683.33,1486.45 1683.33,1467.55 "/>
<polyline clip-path="url(#clip820)" style="stroke:#000000; stroke-linecap:round; stroke-linejoin:round; stroke-width:4; stroke-opacity:1; fill:none" points="2264.66,1486.45 2264.66,1467.55 "/>
<path clip-path="url(#clip820)" d="M490.447 1532.02 L520.123 1532.02 L520.123 1535.95 L490.447 1535.95 L490.447 1532.02 Z" fill="#000000" fill-rule="nonzero" fill-opacity="1" /><path clip-path="url(#clip820)" d="M531.025 1544.91 L538.664 1544.91 L538.664 1518.55 L530.354 1520.21 L530.354 1515.95 L538.618 1514.29 L543.294 1514.29 L543.294 1544.91 L550.933 1544.91 L550.933 1548.85 L531.025 1548.85 L531.025 1544.91 Z" fill="#000000" fill-rule="nonzero" fill-opacity="1" /><path clip-path="url(#clip820)" d="M1102.01 1517.37 Q1098.4 1517.37 1096.57 1520.93 Q1094.77 1524.47 1094.77 1531.6 Q1094.77 1538.71 1096.57 1542.27 Q1098.4 1545.82 1102.01 1545.82 Q1105.65 1545.82 1107.45 1542.27 Q1109.28 1538.71 1109.28 1531.6 Q1109.28 1524.47 1107.45 1520.93 Q1105.65 1517.37 1102.01 1517.37 M1102.01 1513.66 Q1107.82 1513.66 1110.88 1518.27 Q1113.96 1522.85 1113.96 1531.6 Q1113.96 1540.33 1110.88 1544.94 Q1107.82 1549.52 1102.01 1549.52 Q1096.2 1549.52 1093.12 1544.94 Q1090.07 1540.33 1090.07 1531.6 Q1090.07 1522.85 1093.12 1518.27 Q1096.2 1513.66 1102.01 1513.66 Z" fill="#000000" fill-rule="nonzero" fill-opacity="1" /><path clip-path="url(#clip820)" d="M1673.72 1544.91 L1681.35 1544.91 L1681.35 1518.55 L1673.04 1520.21 L1673.04 1515.95 L1681.31 1514.29 L1685.98 1514.29 L1685.98 1544.91 L1693.62 1544.91 L1693.62 1548.85 L1673.72 1548.85 L1673.72 1544.91 Z" fill="#000000" fill-rule="nonzero" fill-opacity="1" /><path clip-path="url(#clip820)" d="M2259.31 1544.91 L2275.63 1544.91 L2275.63 1548.85 L2253.68 1548.85 L2253.68 1544.91 Q2256.35 1542.16 2260.93 1537.53 Q2265.54 1532.88 2266.72 1531.53 Q2268.96 1529.01 2269.84 1527.27 Q2270.74 1525.51 2270.74 1523.82 Q2270.74 1521.07 2268.8 1519.33 Q2266.88 1517.6 2263.78 1517.6 Q2261.58 1517.6 2259.12 1518.36 Q2256.69 1519.13 2253.92 1520.68 L2253.92 1515.95 Q2256.74 1514.82 2259.19 1514.24 Q2261.65 1513.66 2263.68 1513.66 Q2269.05 1513.66 2272.25 1516.35 Q2275.44 1519.03 2275.44 1523.52 Q2275.44 1525.65 2274.63 1527.57 Q2273.85 1529.47 2271.74 1532.07 Q2271.16 1532.74 2268.06 1535.95 Q2264.96 1539.15 2259.31 1544.91 Z" fill="#000000" fill-rule="nonzero" fill-opacity="1" /><polyline clip-path="url(#clip820)" style="stroke:#000000; stroke-linecap:round; stroke-linejoin:round; stroke-width:4; stroke-opacity:1; fill:none" points="147.478,1486.45 147.478,47.2441 "/>
<polyline clip-path="url(#clip820)" style="stroke:#000000; stroke-linecap:round; stroke-linejoin:round; stroke-width:4; stroke-opacity:1; fill:none" points="147.478,1343.22 166.376,1343.22 "/>
<polyline clip-path="url(#clip820)" style="stroke:#000000; stroke-linecap:round; stroke-linejoin:round; stroke-width:4; stroke-opacity:1; fill:none" points="147.478,1061.49 166.376,1061.49 "/>
<polyline clip-path="url(#clip820)" style="stroke:#000000; stroke-linecap:round; stroke-linejoin:round; stroke-width:4; stroke-opacity:1; fill:none" points="147.478,779.768 166.376,779.768 "/>
<polyline clip-path="url(#clip820)" style="stroke:#000000; stroke-linecap:round; stroke-linejoin:round; stroke-width:4; stroke-opacity:1; fill:none" points="147.478,498.041 166.376,498.041 "/>
<polyline clip-path="url(#clip820)" style="stroke:#000000; stroke-linecap:round; stroke-linejoin:round; stroke-width:4; stroke-opacity:1; fill:none" points="147.478,216.315 166.376,216.315 "/>
<path clip-path="url(#clip820)" d="M51.3625 1343.67 L81.0383 1343.67 L81.0383 1347.61 L51.3625 1347.61 L51.3625 1343.67 Z" fill="#000000" fill-rule="nonzero" fill-opacity="1" /><path clip-path="url(#clip820)" d="M95.1586 1356.57 L111.478 1356.57 L111.478 1360.5 L89.5336 1360.5 L89.5336 1356.57 Q92.1956 1353.81 96.7789 1349.18 Q101.385 1344.53 102.566 1343.19 Q104.811 1340.66 105.691 1338.93 Q106.594 1337.17 106.594 1335.48 Q106.594 1332.72 104.649 1330.99 Q102.728 1329.25 99.6261 1329.25 Q97.4271 1329.25 94.9734 1330.01 Q92.5428 1330.78 89.7651 1332.33 L89.7651 1327.61 Q92.5891 1326.47 95.0428 1325.89 Q97.4965 1325.32 99.5335 1325.32 Q104.904 1325.32 108.098 1328 Q111.293 1330.69 111.293 1335.18 Q111.293 1337.31 110.483 1339.23 Q109.696 1341.13 107.589 1343.72 Q107.01 1344.39 103.909 1347.61 Q100.807 1350.8 95.1586 1356.57 Z" fill="#000000" fill-rule="nonzero" fill-opacity="1" /><path clip-path="url(#clip820)" d="M50.9921 1061.95 L80.6679 1061.95 L80.6679 1065.88 L50.9921 1065.88 L50.9921 1061.95 Z" fill="#000000" fill-rule="nonzero" fill-opacity="1" /><path clip-path="url(#clip820)" d="M91.5706 1074.84 L99.2095 1074.84 L99.2095 1048.47 L90.8993 1050.14 L90.8993 1045.88 L99.1632 1044.21 L103.839 1044.21 L103.839 1074.84 L111.478 1074.84 L111.478 1078.77 L91.5706 1078.77 L91.5706 1074.84 Z" fill="#000000" fill-rule="nonzero" fill-opacity="1" /><path clip-path="url(#clip820)" d="M99.5335 765.566 Q95.9224 765.566 94.0937 769.131 Q92.2882 772.673 92.2882 779.802 Q92.2882 786.909 94.0937 790.474 Q95.9224 794.015 99.5335 794.015 Q103.168 794.015 104.973 790.474 Q106.802 786.909 106.802 779.802 Q106.802 772.673 104.973 769.131 Q103.168 765.566 99.5335 765.566 M99.5335 761.863 Q105.344 761.863 108.399 766.469 Q111.478 771.053 111.478 779.802 Q111.478 788.529 108.399 793.136 Q105.344 797.719 99.5335 797.719 Q93.7234 797.719 90.6447 793.136 Q87.5892 788.529 87.5892 779.802 Q87.5892 771.053 90.6447 766.469 Q93.7234 761.863 99.5335 761.863 Z" fill="#000000" fill-rule="nonzero" fill-opacity="1" /><path clip-path="url(#clip820)" d="M91.5706 511.386 L99.2095 511.386 L99.2095 485.021 L90.8993 486.687 L90.8993 482.428 L99.1632 480.761 L103.839 480.761 L103.839 511.386 L111.478 511.386 L111.478 515.321 L91.5706 515.321 L91.5706 511.386 Z" fill="#000000" fill-rule="nonzero" fill-opacity="1" /><path clip-path="url(#clip820)" d="M95.1586 229.66 L111.478 229.66 L111.478 233.595 L89.5336 233.595 L89.5336 229.66 Q92.1956 226.905 96.7789 222.275 Q101.385 217.623 102.566 216.28 Q104.811 213.757 105.691 212.021 Q106.594 210.262 106.594 208.572 Q106.594 205.817 104.649 204.081 Q102.728 202.345 99.6261 202.345 Q97.4271 202.345 94.9734 203.109 Q92.5428 203.873 89.7651 205.424 L89.7651 200.702 Q92.5891 199.567 95.0428 198.989 Q97.4965 198.41 99.5335 198.41 Q104.904 198.41 108.098 201.095 Q111.293 203.78 111.293 208.271 Q111.293 210.401 110.483 212.322 Q109.696 214.22 107.589 216.813 Q107.01 217.484 103.909 220.701 Q100.807 223.896 95.1586 229.66 Z" fill="#000000" fill-rule="nonzero" fill-opacity="1" /><circle clip-path="url(#clip821)" cx="1784.81" cy="880.179" r="14.4" fill="#009af9" fill-rule="evenodd" fill-opacity="0.5" stroke="#000000" stroke-opacity="0.5" stroke-width="3.2"/>
<circle clip-path="url(#clip821)" cx="797.647" cy="996.182" r="14.4" fill="#009af9" fill-rule="evenodd" fill-opacity="0.5" stroke="#000000" stroke-opacity="0.5" stroke-width="3.2"/>
<circle clip-path="url(#clip821)" cx="1475.07" cy="1445.72" r="14.4" fill="#009af9" fill-rule="evenodd" fill-opacity="0.5" stroke="#000000" stroke-opacity="0.5" stroke-width="3.2"/>
<circle clip-path="url(#clip821)" cx="985.237" cy="865.824" r="14.4" fill="#009af9" fill-rule="evenodd" fill-opacity="0.5" stroke="#000000" stroke-opacity="0.5" stroke-width="3.2"/>
<circle clip-path="url(#clip821)" cx="757.177" cy="952.976" r="14.4" fill="#009af9" fill-rule="evenodd" fill-opacity="0.5" stroke="#000000" stroke-opacity="0.5" stroke-width="3.2"/>
<circle clip-path="url(#clip821)" cx="209.891" cy="595.87" r="14.4" fill="#009af9" fill-rule="evenodd" fill-opacity="0.5" stroke="#000000" stroke-opacity="0.5" stroke-width="3.2"/>
<circle clip-path="url(#clip821)" cx="2290.34" cy="737.984" r="14.4" fill="#009af9" fill-rule="evenodd" fill-opacity="0.5" stroke="#000000" stroke-opacity="0.5" stroke-width="3.2"/>
<circle clip-path="url(#clip821)" cx="1525.47" cy="759.722" r="14.4" fill="#009af9" fill-rule="evenodd" fill-opacity="0.5" stroke="#000000" stroke-opacity="0.5" stroke-width="3.2"/>
<circle clip-path="url(#clip821)" cx="1040.78" cy="292.406" r="14.4" fill="#009af9" fill-rule="evenodd" fill-opacity="0.5" stroke="#000000" stroke-opacity="0.5" stroke-width="3.2"/>
<circle clip-path="url(#clip821)" cx="1630.93" cy="853.365" r="14.4" fill="#009af9" fill-rule="evenodd" fill-opacity="0.5" stroke="#000000" stroke-opacity="0.5" stroke-width="3.2"/>
<circle clip-path="url(#clip821)" cx="2127.04" cy="1069.24" r="14.4" fill="#009af9" fill-rule="evenodd" fill-opacity="0.5" stroke="#000000" stroke-opacity="0.5" stroke-width="3.2"/>
<circle clip-path="url(#clip821)" cx="1197.65" cy="973.675" r="14.4" fill="#009af9" fill-rule="evenodd" fill-opacity="0.5" stroke="#000000" stroke-opacity="0.5" stroke-width="3.2"/>
<circle clip-path="url(#clip821)" cx="831.203" cy="377.49" r="14.4" fill="#009af9" fill-rule="evenodd" fill-opacity="0.5" stroke="#000000" stroke-opacity="0.5" stroke-width="3.2"/>
<circle clip-path="url(#clip821)" cx="563.831" cy="480.825" r="14.4" fill="#009af9" fill-rule="evenodd" fill-opacity="0.5" stroke="#000000" stroke-opacity="0.5" stroke-width="3.2"/>
<circle clip-path="url(#clip821)" cx="645.851" cy="889.537" r="14.4" fill="#009af9" fill-rule="evenodd" fill-opacity="0.5" stroke="#000000" stroke-opacity="0.5" stroke-width="3.2"/>
<circle clip-path="url(#clip821)" cx="1631.62" cy="208.948" r="14.4" fill="#009af9" fill-rule="evenodd" fill-opacity="0.5" stroke="#000000" stroke-opacity="0.5" stroke-width="3.2"/>
<circle clip-path="url(#clip821)" cx="2044.79" cy="873.606" r="14.4" fill="#009af9" fill-rule="evenodd" fill-opacity="0.5" stroke="#000000" stroke-opacity="0.5" stroke-width="3.2"/>
<circle clip-path="url(#clip821)" cx="1936.38" cy="725.077" r="14.4" fill="#009af9" fill-rule="evenodd" fill-opacity="0.5" stroke="#000000" stroke-opacity="0.5" stroke-width="3.2"/>
<circle clip-path="url(#clip821)" cx="1929.08" cy="666.3" r="14.4" fill="#009af9" fill-rule="evenodd" fill-opacity="0.5" stroke="#000000" stroke-opacity="0.5" stroke-width="3.2"/>
<circle clip-path="url(#clip821)" cx="921.459" cy="579.303" r="14.4" fill="#009af9" fill-rule="evenodd" fill-opacity="0.5" stroke="#000000" stroke-opacity="0.5" stroke-width="3.2"/>
<circle clip-path="url(#clip821)" cx="310.851" cy="488.137" r="14.4" fill="#009af9" fill-rule="evenodd" fill-opacity="0.5" stroke="#000000" stroke-opacity="0.5" stroke-width="3.2"/>
<circle clip-path="url(#clip821)" cx="486.195" cy="87.9763" r="14.4" fill="#009af9" fill-rule="evenodd" fill-opacity="0.5" stroke="#000000" stroke-opacity="0.5" stroke-width="3.2"/>
<circle clip-path="url(#clip821)" cx="665.368" cy="428.747" r="14.4" fill="#009af9" fill-rule="evenodd" fill-opacity="0.5" stroke="#000000" stroke-opacity="0.5" stroke-width="3.2"/>
<circle clip-path="url(#clip821)" cx="1975.47" cy="882.344" r="14.4" fill="#009af9" fill-rule="evenodd" fill-opacity="0.5" stroke="#000000" stroke-opacity="0.5" stroke-width="3.2"/>
<circle clip-path="url(#clip821)" cx="839.961" cy="1302.76" r="14.4" fill="#009af9" fill-rule="evenodd" fill-opacity="0.5" stroke="#000000" stroke-opacity="0.5" stroke-width="3.2"/>
<circle clip-path="url(#clip821)" cx="659.581" cy="767.154" r="14.4" fill="#009af9" fill-rule="evenodd" fill-opacity="0.5" stroke="#000000" stroke-opacity="0.5" stroke-width="3.2"/>
<circle clip-path="url(#clip821)" cx="635.908" cy="773.136" r="14.4" fill="#009af9" fill-rule="evenodd" fill-opacity="0.5" stroke="#000000" stroke-opacity="0.5" stroke-width="3.2"/>
<circle clip-path="url(#clip821)" cx="986.915" cy="568.34" r="14.4" fill="#009af9" fill-rule="evenodd" fill-opacity="0.5" stroke="#000000" stroke-opacity="0.5" stroke-width="3.2"/>
<circle clip-path="url(#clip821)" cx="512.036" cy="1349.05" r="14.4" fill="#009af9" fill-rule="evenodd" fill-opacity="0.5" stroke="#000000" stroke-opacity="0.5" stroke-width="3.2"/>
<circle clip-path="url(#clip821)" cx="647.044" cy="834.59" r="14.4" fill="#009af9" fill-rule="evenodd" fill-opacity="0.5" stroke="#000000" stroke-opacity="0.5" stroke-width="3.2"/>
<path clip-path="url(#clip821)" d="M209.891 595.87 L512.036 1349.05 L1475.07 1445.72 L2127.04 1069.24 L2290.34 737.984 L1631.62 208.948 L486.195 87.9763 L209.891 595.87 L209.891 595.87  Z" fill="#e26f46" fill-rule="evenodd" fill-opacity="0.2"/>
<polyline clip-path="url(#clip821)" style="stroke:#000000; stroke-linecap:round; stroke-linejoin:round; stroke-width:4; stroke-opacity:0.2; fill:none" points="209.891,595.87 512.036,1349.05 1475.07,1445.72 2127.04,1069.24 2290.34,737.984 1631.62,208.948 486.195,87.9763 209.891,595.87 "/>
</svg>
