<?xml version="1.0" encoding="utf-8"?>
<svg xmlns="http://www.w3.org/2000/svg" xmlns:xlink="http://www.w3.org/1999/xlink" width="600" height="400" viewBox="0 0 2400 1600">
<defs>
  <clipPath id="clip540">
    <rect x="0" y="0" width="2400" height="1600"/>
  </clipPath>
</defs>
<path clip-path="url(#clip540)" d="M0 1600 L2400 1600 L2400 0 L0 0  Z" fill="#ffffff" fill-rule="evenodd" fill-opacity="1"/>
<defs>
  <clipPath id="clip541">
    <rect x="147" y="47" width="2206" height="1440"/>
  </clipPath>
</defs>
<path clip-path="url(#clip540)" d="M147.478 1486.45 L2352.76 1486.45 L2352.76 47.2441 L147.478 47.2441  Z" fill="#ffffff" fill-rule="evenodd" fill-opacity="1"/>
<polyline clip-path="url(#clip541)" style="stroke:#000000; stroke-linecap:round; stroke-linejoin:round; stroke-width:2; stroke-opacity:0.1; fill:none" points="368.367,1486.45 368.367,47.2441 "/>
<polyline clip-path="url(#clip541)" style="stroke:#000000; stroke-linecap:round; stroke-linejoin:round; stroke-width:2; stroke-opacity:0.1; fill:none" points="961.008,1486.45 961.008,47.2441 "/>
<polyline clip-path="url(#clip541)" style="stroke:#000000; stroke-linecap:round; stroke-linejoin:round; stroke-width:2; stroke-opacity:0.1; fill:none" points="1553.65,1486.45 1553.65,47.2441 "/>
<polyline clip-path="url(#clip541)" style="stroke:#000000; stroke-linecap:round; stroke-linejoin:round; stroke-width:2; stroke-opacity:0.1; fill:none" points="2146.29,1486.45 2146.29,47.2441 "/>
<polyline clip-path="url(#clip541)" style="stroke:#000000; stroke-linecap:round; stroke-linejoin:round; stroke-width:2; stroke-opacity:0.1; fill:none" points="147.478,1210.63 2352.76,1210.63 "/>
<polyline clip-path="url(#clip541)" style="stroke:#000000; stroke-linecap:round; stroke-linejoin:round; stroke-width:2; stroke-opacity:0.1; fill:none" points="147.478,867.413 2352.76,867.413 "/>
<polyline clip-path="url(#clip541)" style="stroke:#000000; stroke-linecap:round; stroke-linejoin:round; stroke-width:2; stroke-opacity:0.1; fill:none" points="147.478,524.191 2352.76,524.191 "/>
<polyline clip-path="url(#clip541)" style="stroke:#000000; stroke-linecap:round; stroke-linejoin:round; stroke-width:2; stroke-opacity:0.1; fill:none" points="147.478,180.969 2352.76,180.969 "/>
<polyline clip-path="url(#clip540)" style="stroke:#000000; stroke-linecap:round; stroke-linejoin:round; stroke-width:4; stroke-opacity:1; fill:none" points="147.478,1486.45 2352.76,1486.45 "/>
<polyline clip-path="url(#clip540)" style="stroke:#000000; stroke-linecap:round; stroke-linejoin:round; stroke-width:4; stroke-opacity:1; fill:none" points="368.367,1486.45 368.367,1467.55 "/>
<polyline clip-path="url(#clip540)" style="stroke:#000000; stroke-linecap:round; stroke-linejoin:round; stroke-width:4; stroke-opacity:1; fill:none" points="961.008,1486.45 961.008,1467.55 "/>
<polyline clip-path="url(#clip540)" style="stroke:#000000; stroke-linecap:round; stroke-linejoin:round; stroke-width:4; stroke-opacity:1; fill:none" points="1553.65,1486.45 1553.65,1467.55 "/>
<polyline clip-path="url(#clip540)" style="stroke:#000000; stroke-linecap:round; stroke-linejoin:round; stroke-width:4; stroke-opacity:1; fill:none" points="2146.29,1486.45 2146.29,1467.55 "/>
<path clip-path="url(#clip540)" d="M338.309 1532.02 L367.985 1532.02 L367.985 1535.95 L338.309 1535.95 L338.309 1532.02 Z" fill="#000000" fill-rule="nonzero" fill-opacity="1" /><path clip-path="url(#clip540)" d="M382.105 1544.91 L398.424 1544.91 L398.424 1548.85 L376.48 1548.85 L376.48 1544.91 Q379.142 1542.16 383.725 1537.53 Q388.332 1532.88 389.512 1531.53 Q391.758 1529.01 392.637 1527.27 Q393.54 1525.51 393.54 1523.82 Q393.54 1521.07 391.596 1519.33 Q389.674 1517.6 386.573 1517.6 Q384.374 1517.6 381.92 1518.36 Q379.489 1519.13 376.712 1520.68 L376.712 1515.95 Q379.536 1514.82 381.989 1514.24 Q384.443 1513.66 386.48 1513.66 Q391.85 1513.66 395.045 1516.35 Q398.239 1519.03 398.239 1523.52 Q398.239 1525.65 397.429 1527.57 Q396.642 1529.47 394.536 1532.07 Q393.957 1532.74 390.855 1535.95 Q387.753 1539.15 382.105 1544.91 Z" fill="#000000" fill-rule="nonzero" fill-opacity="1" /><path clip-path="url(#clip540)" d="M930.766 1532.02 L960.441 1532.02 L960.441 1535.95 L930.766 1535.95 L930.766 1532.02 Z" fill="#000000" fill-rule="nonzero" fill-opacity="1" /><path clip-path="url(#clip540)" d="M971.344 1544.91 L978.983 1544.91 L978.983 1518.55 L970.673 1520.21 L970.673 1515.95 L978.937 1514.29 L983.612 1514.29 L983.612 1544.91 L991.251 1544.91 L991.251 1548.85 L971.344 1548.85 L971.344 1544.91 Z" fill="#000000" fill-rule="nonzero" fill-opacity="1" /><path clip-path="url(#clip540)" d="M1553.65 1517.37 Q1550.04 1517.37 1548.21 1520.93 Q1546.4 1524.47 1546.4 1531.6 Q1546.4 1538.71 1548.21 1542.27 Q1550.04 1545.82 1553.65 1545.82 Q1557.28 1545.82 1559.09 1542.27 Q1560.92 1538.71 1560.92 1531.6 Q1560.92 1524.47 1559.09 1520.93 Q1557.28 1517.37 1553.65 1517.37 M1553.65 1513.66 Q1559.46 1513.66 1562.52 1518.27 Q1565.59 1522.85 1565.59 1531.6 Q1565.59 1540.33 1562.52 1544.94 Q1559.46 1549.52 1553.65 1549.52 Q1547.84 1549.52 1544.76 1544.94 Q1541.71 1540.33 1541.71 1531.6 Q1541.71 1522.85 1544.76 1518.27 Q1547.84 1513.66 1553.65 1513.66 Z" fill="#000000" fill-rule="nonzero" fill-opacity="1" /><path clip-path="url(#clip540)" d="M2136.67 1544.91 L2144.31 1544.91 L2144.31 1518.55 L2136 1520.21 L2136 1515.95 L2144.27 1514.29 L2148.94 1514.29 L2148.94 1544.91 L2156.58 1544.91 L2156.58 1548.85 L2136.67 1548.85 L2136.67 1544.91 Z" fill="#000000" fill-rule="nonzero" fill-opacity="1" /><polyline clip-path="url(#clip540)" style="stroke:#000000; stroke-linecap:round; stroke-linejoin:round; stroke-width:4; stroke-opacity:1; fill:none" points="147.478,1486.45 147.478,47.2441 "/>
<polyline clip-path="url(#clip540)" style="stroke:#000000; stroke-linecap:round; stroke-linejoin:round; stroke-width:4; stroke-opacity:1; fill:none" points="147.478,1210.63 166.376,1210.63 "/>
<polyline clip-path="url(#clip540)" style="stroke:#000000; stroke-linecap:round; stroke-linejoin:round; stroke-width:4; stroke-opacity:1; fill:none" points="147.478,867.413 166.376,867.413 "/>
<polyline clip-path="url(#clip540)" style="stroke:#000000; stroke-linecap:round; stroke-linejoin:round; stroke-width:4; stroke-opacity:1; fill:none" points="147.478,524.191 166.376,524.191 "/>
<polyline clip-path="url(#clip540)" style="stroke:#000000; stroke-linecap:round; stroke-linejoin:round; stroke-width:4; stroke-opacity:1; fill:none" points="147.478,180.969 166.376,180.969 "/>
<path clip-path="url(#clip540)" d="M50.9921 1211.09 L80.6679 1211.09 L80.6679 1215.02 L50.9921 1215.02 L50.9921 1211.09 Z" fill="#000000" fill-rule="nonzero" fill-opacity="1" /><path clip-path="url(#clip540)" d="M91.5706 1223.98 L99.2095 1223.98 L99.2095 1197.61 L90.8993 1199.28 L90.8993 1195.02 L99.1632 1193.35 L103.839 1193.35 L103.839 1223.98 L111.478 1223.98 L111.478 1227.91 L91.5706 1227.91 L91.5706 1223.98 Z" fill="#000000" fill-rule="nonzero" fill-opacity="1" /><path clip-path="url(#clip540)" d="M99.5335 853.211 Q95.9224 853.211 94.0937 856.776 Q92.2882 860.318 92.2882 867.447 Q92.2882 874.554 94.0937 878.119 Q95.9224 881.66 99.5335 881.66 Q103.168 881.66 104.973 878.119 Q106.802 874.554 106.802 867.447 Q106.802 860.318 104.973 856.776 Q103.168 853.211 99.5335 853.211 M99.5335 849.508 Q105.344 849.508 108.399 854.114 Q111.478 858.697 111.478 867.447 Q111.478 876.174 108.399 880.781 Q105.344 885.364 99.5335 885.364 Q93.7234 885.364 90.6447 880.781 Q87.5892 876.174 87.5892 867.447 Q87.5892 858.697 90.6447 854.114 Q93.7234 849.508 99.5335 849.508 Z" fill="#000000" fill-rule="nonzero" fill-opacity="1" /><path clip-path="url(#clip540)" d="M91.5706 537.536 L99.2095 537.536 L99.2095 511.17 L90.8993 512.837 L90.8993 508.578 L99.1632 506.911 L103.839 506.911 L103.839 537.536 L111.478 537.536 L111.478 541.471 L91.5706 541.471 L91.5706 537.536 Z" fill="#000000" fill-rule="nonzero" fill-opacity="1" /><path clip-path="url(#clip540)" d="M95.1586 194.314 L111.478 194.314 L111.478 198.249 L89.5336 198.249 L89.5336 194.314 Q92.1956 191.559 96.7789 186.93 Q101.385 182.277 102.566 180.934 Q104.811 178.411 105.691 176.675 Q106.594 174.916 106.594 173.226 Q106.594 170.471 104.649 168.735 Q102.728 166.999 99.6261 166.999 Q97.4271 166.999 94.9734 167.763 Q92.5428 168.527 89.7651 170.078 L89.7651 165.356 Q92.5891 164.222 95.0428 163.643 Q97.4965 163.064 99.5335 163.064 Q104.904 163.064 108.098 165.749 Q111.293 168.434 111.293 172.925 Q111.293 175.055 110.483 176.976 Q109.696 178.874 107.589 181.467 Q107.01 182.138 103.909 185.356 Q100.807 188.55 95.1586 194.314 Z" fill="#000000" fill-rule="nonzero" fill-opacity="1" /><circle clip-path="url(#clip541)" cx="913.118" cy="629.412" r="14.4" fill="#009af9" fill-rule="evenodd" fill-opacity="0.5" stroke="#000000" stroke-opacity="0.5" stroke-width="3.2"/>
<circle clip-path="url(#clip541)" cx="2131.4" cy="1266.52" r="14.4" fill="#009af9" fill-rule="evenodd" fill-opacity="0.5" stroke="#000000" stroke-opacity="0.5" stroke-width="3.2"/>
<circle clip-path="url(#clip541)" cx="2152.39" cy="1181.18" r="14.4" fill="#009af9" fill-rule="evenodd" fill-opacity="0.5" stroke="#000000" stroke-opacity="0.5" stroke-width="3.2"/>
<circle clip-path="url(#clip541)" cx="1878.56" cy="855.241" r="14.4" fill="#009af9" fill-rule="evenodd" fill-opacity="0.5" stroke="#000000" stroke-opacity="0.5" stroke-width="3.2"/>
<circle clip-path="url(#clip541)" cx="2199.02" cy="750.816" r="14.4" fill="#009af9" fill-rule="evenodd" fill-opacity="0.5" stroke="#000000" stroke-opacity="0.5" stroke-width="3.2"/>
<circle clip-path="url(#clip541)" cx="2134.42" cy="579.21" r="14.4" fill="#009af9" fill-rule="evenodd" fill-opacity="0.5" stroke="#000000" stroke-opacity="0.5" stroke-width="3.2"/>
<circle clip-path="url(#clip541)" cx="1442.15" cy="876.855" r="14.4" fill="#009af9" fill-rule="evenodd" fill-opacity="0.5" stroke="#000000" stroke-opacity="0.5" stroke-width="3.2"/>
<circle clip-path="url(#clip541)" cx="1022.55" cy="879.171" r="14.4" fill="#009af9" fill-rule="evenodd" fill-opacity="0.5" stroke="#000000" stroke-opacity="0.5" stroke-width="3.2"/>
<circle clip-path="url(#clip541)" cx="1188.82" cy="1227.67" r="14.4" fill="#009af9" fill-rule="evenodd" fill-opacity="0.5" stroke="#000000" stroke-opacity="0.5" stroke-width="3.2"/>
<circle clip-path="url(#clip541)" cx="1956.5" cy="662.957" r="14.4" fill="#009af9" fill-rule="evenodd" fill-opacity="0.5" stroke="#000000" stroke-opacity="0.5" stroke-width="3.2"/>
<circle clip-path="url(#clip541)" cx="862.617" cy="559.66" r="14.4" fill="#009af9" fill-rule="evenodd" fill-opacity="0.5" stroke="#000000" stroke-opacity="0.5" stroke-width="3.2"/>
<circle clip-path="url(#clip541)" cx="1777.15" cy="1150.24" r="14.4" fill="#009af9" fill-rule="evenodd" fill-opacity="0.5" stroke="#000000" stroke-opacity="0.5" stroke-width="3.2"/>
<circle clip-path="url(#clip541)" cx="1247.68" cy="1323.78" r="14.4" fill="#009af9" fill-rule="evenodd" fill-opacity="0.5" stroke="#000000" stroke-opacity="0.5" stroke-width="3.2"/>
<circle clip-path="url(#clip541)" cx="1414.83" cy="518.452" r="14.4" fill="#009af9" fill-rule="evenodd" fill-opacity="0.5" stroke="#000000" stroke-opacity="0.5" stroke-width="3.2"/>
<circle clip-path="url(#clip541)" cx="1879.27" cy="1128.24" r="14.4" fill="#009af9" fill-rule="evenodd" fill-opacity="0.5" stroke="#000000" stroke-opacity="0.5" stroke-width="3.2"/>
<circle clip-path="url(#clip541)" cx="1705.47" cy="1189.31" r="14.4" fill="#009af9" fill-rule="evenodd" fill-opacity="0.5" stroke="#000000" stroke-opacity="0.5" stroke-width="3.2"/>
<circle clip-path="url(#clip541)" cx="1990.29" cy="87.9763" r="14.4" fill="#009af9" fill-rule="evenodd" fill-opacity="0.5" stroke="#000000" stroke-opacity="0.5" stroke-width="3.2"/>
<circle clip-path="url(#clip541)" cx="1382.26" cy="1107.11" r="14.4" fill="#009af9" fill-rule="evenodd" fill-opacity="0.5" stroke="#000000" stroke-opacity="0.5" stroke-width="3.2"/>
<circle clip-path="url(#clip541)" cx="1978.81" cy="945.995" r="14.4" fill="#009af9" fill-rule="evenodd" fill-opacity="0.5" stroke="#000000" stroke-opacity="0.5" stroke-width="3.2"/>
<circle clip-path="url(#clip541)" cx="2290.34" cy="591.23" r="14.4" fill="#009af9" fill-rule="evenodd" fill-opacity="0.5" stroke="#000000" stroke-opacity="0.5" stroke-width="3.2"/>
<circle clip-path="url(#clip541)" cx="1967.17" cy="974.159" r="14.4" fill="#009af9" fill-rule="evenodd" fill-opacity="0.5" stroke="#000000" stroke-opacity="0.5" stroke-width="3.2"/>
<circle clip-path="url(#clip541)" cx="957.211" cy="660.513" r="14.4" fill="#009af9" fill-rule="evenodd" fill-opacity="0.5" stroke="#000000" stroke-opacity="0.5" stroke-width="3.2"/>
<circle clip-path="url(#clip541)" cx="618.61" cy="619.387" r="14.4" fill="#009af9" fill-rule="evenodd" fill-opacity="0.5" stroke="#000000" stroke-opacity="0.5" stroke-width="3.2"/>
<circle clip-path="url(#clip541)" cx="1778.76" cy="1445.72" r="14.4" fill="#009af9" fill-rule="evenodd" fill-opacity="0.5" stroke="#000000" stroke-opacity="0.5" stroke-width="3.2"/>
<circle clip-path="url(#clip541)" cx="1323.42" cy="798.474" r="14.4" fill="#009af9" fill-rule="evenodd" fill-opacity="0.5" stroke="#000000" stroke-opacity="0.5" stroke-width="3.2"/>
<circle clip-path="url(#clip541)" cx="2166.25" cy="458.564" r="14.4" fill="#009af9" fill-rule="evenodd" fill-opacity="0.5" stroke="#000000" stroke-opacity="0.5" stroke-width="3.2"/>
<circle clip-path="url(#clip541)" cx="209.891" cy="699.453" r="14.4" fill="#009af9" fill-rule="evenodd" fill-opacity="0.5" stroke="#000000" stroke-opacity="0.5" stroke-width="3.2"/>
<circle clip-path="url(#clip541)" cx="1611.45" cy="769.432" r="14.4" fill="#009af9" fill-rule="evenodd" fill-opacity="0.5" stroke="#000000" stroke-opacity="0.5" stroke-width="3.2"/>
<circle clip-path="url(#clip541)" cx="1825.68" cy="498.631" r="14.4" fill="#009af9" fill-rule="evenodd" fill-opacity="0.5" stroke="#000000" stroke-opacity="0.5" stroke-width="3.2"/>
<circle clip-path="url(#clip541)" cx="1309" cy="348.485" r="14.4" fill="#009af9" fill-rule="evenodd" fill-opacity="0.5" stroke="#000000" stroke-opacity="0.5" stroke-width="3.2"/>
<path clip-path="url(#clip541)" d="M209.891 699.453 L1247.68 1323.78 L1778.76 1445.72 L2131.4 1266.52 L2152.39 1181.18 L2290.34 591.23 L1990.29 87.9763 L209.891 699.453 L209.891 699.453  Z" fill="#e26f46" fill-rule="evenodd" fill-opacity="0.2"/>
<polyline clip-path="url(#clip541)" style="stroke:#000000; stroke-linecap:round; stroke-linejoin:round; stroke-width:4; stroke-opacity:0.2; fill:none" points="209.891,699.453 1247.68,1323.78 1778.76,1445.72 2131.4,1266.52 2152.39,1181.18 2290.34,591.23 1990.29,87.9763 209.891,699.453 "/>
</svg>
